<?xml version="1.0" encoding="utf-8"?>
<!-- Generator: Adobe Illustrator 17.1.0, SVG Export Plug-In . SVG Version: 6.00 Build 0)  -->
<!DOCTYPE svg PUBLIC "-//W3C//DTD SVG 1.1//EN" "http://www.w3.org/Graphics/SVG/1.1/DTD/svg11.dtd">
<svg version="1.1" xmlns="http://www.w3.org/2000/svg" xmlns:xlink="http://www.w3.org/1999/xlink" x="0px" y="0px"
	 viewBox="0 0 1024 505.7" enable-background="new 0 0 1024 505.7" xml:space="preserve">
<g id="turning_x5F_point">
</g>
<g id="user_x5F_centered_x5F_doc">
	<rect y="-0.3" fill="#FFFFFF" width="1024" height="506"/>
	<g>
		<g>
			<g>
				<g>
					<path fill="#FDB913" stroke="#000000" stroke-width="0.5" stroke-miterlimit="10" d="M304.9,288.2l-148.9-48.4
						c21.4-65.8,79.7-108.2,148.9-108.2V288.2z"/>
				</g>
			</g>
			<g>
				<g>
					<path fill="#FFF200" stroke="#000000" stroke-width="0.5" stroke-miterlimit="10" d="M304.9,288.2l-92,126.7
						c-56-40.7-78.3-109.3-56.9-175.1L304.9,288.2z"/>
				</g>
			</g>
			<g>
				<g>
					<path fill="#00A651" stroke="#000000" stroke-width="0.5" stroke-miterlimit="10" d="M304.9,288.2l92,126.7
						c-56,40.7-128.1,40.7-184.1,0L304.9,288.2z"/>
				</g>
			</g>
			<g>
				<g>
					<path fill="#AC70E0" stroke="#000000" stroke-width="0.5" stroke-miterlimit="10" d="M304.9,288.2l148.9-48.4
						c21.4,65.8-0.9,134.4-56.9,175.1L304.9,288.2z"/>
				</g>
			</g>
			<g>
				<g>
					<path fill="#6DCFF6" stroke="#000000" stroke-width="0.5" stroke-miterlimit="10" d="M304.9,288.2V131.6
						c69.2,0,127.5,42.4,148.9,108.2L304.9,288.2z"/>
				</g>
			</g>
		</g>
		<g>
			<g>
			</g>
			<g>
			</g>
			<g>
			</g>
			<g>
			</g>
			<g>
			</g>
		</g>
	</g>
	<circle fill="#FFFFFF" stroke="#000000" stroke-width="0.5" stroke-miterlimit="10" cx="303.7" cy="287.3" r="117.8"/>
	
		<radialGradient id="SVGID_1_" cx="-8481.4463" cy="235.3135" r="79.8727" gradientTransform="matrix(-1.1754 0 0 1.112 -9620.2012 -24.6189)" gradientUnits="userSpaceOnUse">
		<stop  offset="5.222240e-03" style="stop-color:#929497"/>
		<stop  offset="7.321282e-02" style="stop-color:#ABADAF"/>
		<stop  offset="0.1546" style="stop-color:#C1C2C4"/>
		<stop  offset="0.2508" style="stop-color:#D2D3D4"/>
		<stop  offset="0.3698" style="stop-color:#DDDEE0"/>
		<stop  offset="0.5366" style="stop-color:#E4E5E6"/>
		<stop  offset="1" style="stop-color:#E6E7E8"/>
	</radialGradient>
	<ellipse fill="url(#SVGID_1_)" cx="313.1" cy="216.5" rx="15.9" ry="19.2"/>
	<g>
		<g>
			<path fill="#444444" d="M289.4,304.1c-0.1,19.9-4.6,39.6-3.6,59.5c0.2,3.2,5.2,3.2,5,0c-1-19.9,3.4-39.6,3.6-59.5
				C294.5,300.9,289.5,300.9,289.4,304.1L289.4,304.1z"/>
		</g>
	</g>
	
		<radialGradient id="SVGID_2_" cx="-6273.9053" cy="1234.2646" r="25.0962" gradientTransform="matrix(-2.1457 0.4123 0.1474 0.7674 -13339.4873 2007.5317)" gradientUnits="userSpaceOnUse">
		<stop  offset="5.222240e-03" style="stop-color:#929497"/>
		<stop  offset="0.1523" style="stop-color:#AAACAE"/>
		<stop  offset="0.352" style="stop-color:#C4C6C8"/>
		<stop  offset="0.5574" style="stop-color:#D7D8DA"/>
		<stop  offset="0.7698" style="stop-color:#E2E3E4"/>
		<stop  offset="1" style="stop-color:#E6E7E8"/>
	</radialGradient>
	<path fill="url(#SVGID_2_)" d="M273.6,369.4c0.4,2.3,4.9,3.4,9.9,2.4c5.1-1,8.8-3.6,8.3-5.9c-0.4-2.3-4.9-3.4-9.9-2.4
		C276.9,364.4,273.2,367.1,273.6,369.4z"/>
	<g>
		<g>
			<path fill="#444444" d="M316.2,308.5c7.3,18.8,13.8,37.9,19.3,57.3c0.9,3.1,5.7,1.8,4.8-1.3c-5.5-19.4-12-38.5-19.3-57.3
				C319.9,304.2,315,305.5,316.2,308.5L316.2,308.5z"/>
		</g>
	</g>
	
		<radialGradient id="SVGID_3_" cx="-4647.2881" cy="3622.5173" r="25.0962" gradientTransform="matrix(0.3386 2.1301 0.7701 -0.1978 -875.6866 10966.0977)" gradientUnits="userSpaceOnUse">
		<stop  offset="5.222240e-03" style="stop-color:#929497"/>
		<stop  offset="0.1523" style="stop-color:#AAACAE"/>
		<stop  offset="0.352" style="stop-color:#C4C6C8"/>
		<stop  offset="0.5574" style="stop-color:#D7D8DA"/>
		<stop  offset="0.7698" style="stop-color:#E2E3E4"/>
		<stop  offset="1" style="stop-color:#E6E7E8"/>
	</radialGradient>
	<path fill="url(#SVGID_3_)" d="M340.5,381.1c2.3-0.6,3.5-5.1,2.7-10.2c-0.8-5-3.3-8.6-5.6-8c-2.3,0.6-3.5,5.1-2.7,10.2
		C335.6,378.1,338.1,381.7,340.5,381.1z"/>
	<g>
		<g>
			<path fill="#444444" d="M283.7,254.1c-2.7,15-5.9,29.8-9.7,44.6c-0.8,3.1,4,4.4,4.8,1.3c3.8-14.7,7-29.6,9.7-44.6
				C289.1,252.3,284.3,251,283.7,254.1L283.7,254.1z"/>
		</g>
	</g>
	
		<radialGradient id="SVGID_4_" cx="-8486.835" cy="284.08" r="72.8602" gradientTransform="matrix(-1.173 1.516249e-03 -1.704603e-03 0.982 -9604.8096 3.7444)" gradientUnits="userSpaceOnUse">
		<stop  offset="5.222240e-03" style="stop-color:#F7931E"/>
		<stop  offset="0.3211" style="stop-color:#FC931E"/>
		<stop  offset="1" style="stop-color:#FF931E"/>
	</radialGradient>
	<path fill="url(#SVGID_4_)" d="M314.8,240.8c0,0,19.4-1.6,15.3,21.9c-4.5,25.8-9.9,49.7-22,50.7c-2.2,0.2-8.8,0-10.6-1.8
		c-8.3-8.1-11.6-35.8-11.7-47.6C285.7,241.9,290,239.2,314.8,240.8z"/>
	<g>
		<g>
			<path fill="#444444" d="M325.7,260.9c2.9,15,6.5,29.9,10.7,44.6c0.9,3.1,5.7,1.8,4.8-1.3c-4.2-14.7-7.7-29.6-10.7-44.6
				C329.9,256.4,325.1,257.8,325.7,260.9L325.7,260.9z"/>
		</g>
	</g>
	
		<radialGradient id="SVGID_5_" cx="-5765.0156" cy="-2682.8003" r="25.0962" gradientTransform="matrix(-1.0698 -1.2739 -0.5984 0.5025 -7426.3726 -5676.0054)" gradientUnits="userSpaceOnUse">
		<stop  offset="5.222240e-03" style="stop-color:#929497"/>
		<stop  offset="0.1523" style="stop-color:#AAACAE"/>
		<stop  offset="0.352" style="stop-color:#C4C6C8"/>
		<stop  offset="0.5574" style="stop-color:#D7D8DA"/>
		<stop  offset="0.7698" style="stop-color:#E2E3E4"/>
		<stop  offset="1" style="stop-color:#E6E7E8"/>
	</radialGradient>
	<path fill="url(#SVGID_5_)" d="M335.2,299.4c-1.8,1.5-1.2,5.2,1.3,8.2c2.5,3,6,4.2,7.8,2.7c1.8-1.5,1.2-5.2-1.3-8.2
		C340.4,299.1,336.9,297.9,335.2,299.4z"/>
	
		<radialGradient id="SVGID_6_" cx="-3083.7424" cy="4103.4888" r="25.0962" gradientTransform="matrix(0.9744 -1.2739 0.545 0.5025 1037.7571 -5676.0054)" gradientUnits="userSpaceOnUse">
		<stop  offset="5.222240e-03" style="stop-color:#929497"/>
		<stop  offset="0.1523" style="stop-color:#AAACAE"/>
		<stop  offset="0.352" style="stop-color:#C4C6C8"/>
		<stop  offset="0.5574" style="stop-color:#D7D8DA"/>
		<stop  offset="0.7698" style="stop-color:#E2E3E4"/>
		<stop  offset="1" style="stop-color:#E6E7E8"/>
	</radialGradient>
	<path fill="url(#SVGID_6_)" d="M279.7,293.9c1.6,1.5,1.1,5.2-1.2,8.2c-2.3,3-5.5,4.2-7.1,2.7c-1.6-1.5-1.1-5.2,1.2-8.2
		C274.9,293.6,278.1,292.4,279.7,293.9z"/>
	<path fill="#FFFFFF" stroke="#000000" stroke-width="0.5" stroke-miterlimit="10" d="M208,412.8"/>
	<g>
		<path fill="none" d="M204.8,372.1c0,0-44.4-61.4-33.5-122.2"/>
		<path d="M188.1,374l2.7,4.4l-1.6,1l-6.6-10.6l1.6-1l2.7,4.4l12.7-7.9l1.2,1.9L188.1,374z"/>
		<path d="M193.7,353.9l-1.2,0.9l0,0.1c1.2,0.1,2.5,0.8,3.4,2.4c1.2,2.1,0.3,4.1-1.2,4.9c-2.6,1.4-5.2-0.1-7.5-4.2l-0.2,0.1
			c-0.9,0.5-2.3,1.6-1.1,3.8c0.5,1,1.4,1.8,2.3,2.3l-1,1.1c-1.1-0.6-2.1-1.6-2.9-2.9c-1.8-3.2,0-5.2,2.1-6.4l4-2.2
			c0.9-0.5,1.8-1.1,2.4-1.6L193.7,353.9z M188.4,357.2c1.1,2.1,2.8,4.3,4.9,3.1c1.2-0.7,1.4-1.9,0.8-2.8c-0.8-1.4-2.1-1.8-3.2-1.6
			c-0.2,0-0.5,0.1-0.7,0.2L188.4,357.2z"/>
		<path d="M189.4,350.7c0.1-0.8,0-2-0.5-3c-0.7-1.4-1.8-1.7-2.7-1.3c-0.9,0.5-1.2,1.3-1,3c0.3,2.3-0.3,3.7-1.6,4.4
			c-1.7,0.9-3.9,0.2-5-2.1c-0.5-1.1-0.7-2.2-0.7-3l1.7-0.2c-0.1,0.6,0,1.5,0.5,2.5c0.6,1.2,1.6,1.5,2.4,1.1c0.9-0.4,1-1.3,0.8-3
			c-0.2-2.2,0.2-3.7,1.8-4.5c1.9-0.9,4-0.1,5.3,2.4c0.6,1.2,0.8,2.4,0.8,3.4L189.4,350.7z"/>
		<path d="M180.1,341.3L180.1,341.3c-0.5-0.1-1.2-0.3-1.7-0.5l-5.3-1.6l-1.1-2.4l6.4,2.3l4.4-7.8l1.1,2.4l-3.6,6.2l1.6,0.5l4.2-1.8
			l0.9,2l-16.2,7.2l-0.9-2L180.1,341.3z"/>
		<path d="M180.4,325.1l-9.8,3.4l0.6,1.6l-1.6,0.6l-0.6-1.6l-0.6,0.2c-3,1.1-5.6,0-6.7-3.2c-0.4-1.1-0.5-2.4-0.3-3.2l1.8,0
			c-0.2,0.6-0.2,1.6,0.2,2.6c0.8,2.2,2.5,2.3,4.3,1.7l0.6-0.2l-2.3-6.6l11.4-4l0.7,2.1l-9.8,3.4l1.6,4.6l9.8-3.4L180.4,325.1z"/>
		<path d="M164.5,315.6l5.9-4.1c1-0.7,1.8-1.3,2.7-1.8l0-0.1c-1,0-2.1-0.1-3.3-0.2l-7.2-0.4l-0.6-2.2l12.9,1.3l0.6,2l-10.4,7.7
			L164.5,315.6z"/>
		<path d="M167.6,302c2.9-0.6,3.7-2.7,3.3-4.9c-0.3-1.5-0.8-2.4-1.3-3.2l1.5-0.7c0.5,0.7,1.2,1.9,1.5,3.8c0.7,3.6-1.2,6.3-4.8,7
			s-6.8-0.8-7.5-4.3c-0.8-3.9,2.4-5.6,4.6-6c0.4-0.1,0.8-0.1,1-0.1L167.6,302z M164.8,296c-1.4,0.3-3.4,1.3-2.9,3.7
			c0.4,2.2,2.6,2.7,4.2,2.6L164.8,296z"/>
	</g>
	<g>
		<path fill="none" d="M433.8,262.1c0,0,4.8,75.6-37,121.2"/>
		<path d="M448.9,273.9l0.1-5.1l1.8,0l-0.3,12.5l-1.8,0l0.1-5.1l-15-0.4l0.1-2.2L448.9,273.9z"/>
		<path d="M433.1,287.6l1.5-0.1l0-0.1c-0.9-0.7-1.7-2.1-1.5-3.8c0.2-2.4,2-3.6,3.7-3.4c2.9,0.2,4.3,2.9,4,7.6l0.2,0
			c1,0.1,2.8-0.1,3-2.5c0.1-1.1-0.2-2.3-0.7-3.2l1.5-0.4c0.6,1,0.9,2.5,0.8,4c-0.3,3.7-2.9,4.4-5.3,4.2l-4.5-0.3
			c-1-0.1-2.1-0.1-2.9,0L433.1,287.6z M439.3,287.7c0.2-2.4,0-5.1-2.3-5.3c-1.4-0.1-2.2,0.8-2.2,1.9c-0.1,1.6,0.8,2.6,1.8,3.1
			c0.2,0.1,0.5,0.2,0.7,0.2L439.3,287.7z"/>
		<path d="M434.9,292.7c-0.5,0.6-1.1,1.7-1.2,2.8c-0.2,1.6,0.5,2.4,1.5,2.5c1,0.1,1.7-0.4,2.5-2c1-2.1,2.3-2.9,3.8-2.8
			c1.9,0.2,3.3,2,3,4.6c-0.1,1.2-0.6,2.2-1.1,2.9l-1.5-0.7c0.4-0.4,0.9-1.3,1-2.4c0.2-1.3-0.5-2.1-1.4-2.2c-1-0.1-1.5,0.5-2.3,2
			c-1,2-2.2,2.9-4,2.7c-2.1-0.3-3.4-2.1-3.1-4.9c0.2-1.3,0.6-2.5,1.2-3.3L434.9,292.7z"/>
		<path d="M437.6,305.6L437.6,305.6c0.4,0.4,0.8,0.9,1.2,1.3l3.5,4.2l-0.4,2.6l-4.1-5.4l-7.9,4.1l0.4-2.6l6.4-3.2l-1-1.3l-4.5-0.8
			l0.4-2.1l17.5,2.9l-0.4,2.1L437.6,305.6z"/>
		<path d="M442.9,325l-3.4-0.8l-0.7,3.1l-1.6-0.4l0.7-3.1l-6.3-1.5c-1.5-0.4-2.4-0.1-2.7,1.1c-0.1,0.6-0.2,1-0.2,1.3l-1.6-0.3
			c-0.1-0.5,0-1.1,0.2-2c0.2-1,0.8-1.7,1.5-2.1c0.8-0.5,1.9-0.4,3.3-0.1l6.4,1.6l0.4-1.8l1.6,0.4l-0.4,1.8l2.8,0.7L442.9,325z"/>
		<path d="M443.4,331.7l-0.6,2.1l-7.2-2.2l0,0c0.5,0.5,0.9,1.2,1,2c0.2,0.7,0.2,1.5-0.1,2.3c-0.5,1.6-2.2,3.8-6.2,2.5l-6.9-2.1
			l0.6-2.1l6.7,2c1.9,0.6,3.7,0.4,4.3-1.6c0.4-1.4-0.2-2.7-1.2-3.5c-0.2-0.2-0.6-0.3-1-0.4l-7-2.1l0.6-2.1L443.4,331.7z"/>
		<path d="M430.1,342.5c1.3,0.5,2.5,0.9,3.6,1.2l-0.7,1.8l-2.2-0.8l0,0.1c1.3,1.1,1.8,2.7,1.3,4.1c-0.1,0.2-0.2,0.4-0.3,0.6
			l-1.9-0.7c0.1-0.2,0.2-0.4,0.3-0.7c0.5-1.5-0.2-2.9-1.6-3.8c-0.3-0.2-0.6-0.3-0.9-0.5l-6-2.3l0.8-2L430.1,342.5z"/>
		<path d="M424.2,350.1c-2.7-1.2-4.6,0.1-5.5,2.1c-0.6,1.4-0.8,2.4-0.8,3.3l-1.6-0.3c0-0.9,0.2-2.2,1-4c1.5-3.4,4.7-4.4,8-2.9
			s5.1,4.6,3.6,7.9c-1.6,3.6-5.2,3.1-7.2,2.2c-0.4-0.2-0.7-0.4-0.9-0.5L424.2,350.1z M423,356.7c1.3,0.6,3.5,0.9,4.5-1.3
			c0.9-2-0.6-3.8-1.9-4.5L423,356.7z"/>
		<path d="M418.8,361.6c-2.6-1.4-4.6-0.4-5.7,1.6c-0.8,1.4-1,2.3-1.1,3.2l-1.6-0.4c0.1-0.8,0.4-2.2,1.3-3.9c1.8-3.2,5-4,8.2-2.2
			c3.2,1.8,4.6,5.1,2.9,8.1c-1.9,3.4-5.5,2.7-7.4,1.6c-0.4-0.2-0.7-0.4-0.9-0.6L418.8,361.6z M417,368c1.2,0.7,3.4,1.2,4.6-0.9
			c1.1-1.9-0.2-3.8-1.5-4.7L417,368z"/>
	</g>
	<g>
		<path fill="none" d="M183.1,233.1c0,0,40.3-64.1,100.8-76.7"/>
		<path d="M181.1,210.3l-3.2,4l-1.4-1.2l7.8-9.8l1.4,1.2l-3.2,4l11.7,9.4l-1.4,1.7L181.1,210.3z"/>
		<path d="M201.9,208.9l-1.3-0.9l0,0.1c0.3,1.1,0.1,2.7-1.1,4c-1.6,1.8-3.7,1.6-5.1,0.5c-2.2-1.9-1.7-4.9,1.4-8.4l-0.2-0.2
			c-0.8-0.7-2.3-1.6-3.9,0.2c-0.7,0.8-1.3,2-1.4,3l-1.4-0.6c0.2-1.2,0.8-2.6,1.8-3.7c2.4-2.8,4.9-1.8,6.8-0.2l3.4,3
			c0.8,0.7,1.6,1.3,2.3,1.8L201.9,208.9z M197,205c-1.6,1.8-3.1,4.1-1.3,5.7c1.1,0.9,2.2,0.7,2.9-0.2c1-1.2,0.9-2.6,0.4-3.5
			c-0.1-0.2-0.3-0.4-0.4-0.6L197,205z"/>
		<path d="M203.5,203.7c0.8-0.2,1.9-0.7,2.6-1.5c1.1-1.2,1.1-2.2,0.3-2.9c-0.8-0.7-1.6-0.7-3.2,0.1c-2.1,1-3.6,0.9-4.7-0.1
			c-1.4-1.4-1.5-3.6,0.3-5.5c0.8-0.9,1.8-1.4,2.6-1.6l0.8,1.5c-0.5,0.1-1.4,0.5-2.2,1.3c-0.9,0.9-0.9,2-0.2,2.6
			c0.7,0.7,1.5,0.5,3.1-0.2c2-1,3.5-1,4.8,0.2c1.5,1.5,1.5,3.7-0.5,5.8c-0.9,1-2,1.6-3,1.9L203.5,203.7z"/>
		<path d="M209.2,191.9L209.2,191.9c0-0.5-0.1-1.2-0.1-1.8l-0.3-5.5l1.9-1.8l0,6.8l8.8,1.5l-1.9,1.8l-7-1.4l0,1.7l3.1,3.3l-1.6,1.5
			l-12.2-12.9l1.6-1.5L209.2,191.9z"/>
		<path d="M229.2,175.3c2.8,3.5,1.5,7-0.8,8.8c-2.6,2-6,1.7-8.4-1.3c-2.5-3.2-1.9-6.7,0.7-8.8C223.5,171.9,227,172.4,229.2,175.3z
			 M221.8,181.3c1.6,2.1,4.1,2.7,5.8,1.4c1.7-1.3,1.7-3.8,0-6c-1.3-1.6-3.7-3-5.7-1.4C219.8,177,220.4,179.5,221.8,181.3z"/>
		<path d="M230.1,171.4c-0.7-1-1.3-1.9-1.9-2.7l1.6-1.1l1.2,1.6l0,0c-0.1-1.3,0.4-3,2.1-4.1c1.4-0.9,4.1-1.5,6.4,1.9l4,6l-1.8,1.2
			l-3.9-5.8c-1.1-1.6-2.6-2.6-4.3-1.4c-1.2,0.8-1.6,2.3-1.2,3.5c0.1,0.3,0.2,0.6,0.4,0.9l4,6l-1.8,1.2L230.1,171.4z"/>
		<path d="M244.7,165.8c1.5,2.6,3.7,2.7,5.7,1.7c1.4-0.8,2.1-1.5,2.6-2.2l1.1,1.2c-0.5,0.7-1.5,1.7-3.2,2.6
			c-3.3,1.8-6.4,0.7-8.2-2.5c-1.8-3.2-1.3-6.8,1.8-8.5c3.5-1.9,6.1,0.6,7.1,2.6c0.2,0.4,0.3,0.7,0.4,0.9L244.7,165.8z M249.6,161.3
			c-0.7-1.2-2.2-2.9-4.4-1.7c-1.9,1.1-1.8,3.3-1.2,4.8L249.6,161.3z"/>
	</g>
	<g>
		<path fill="none" d="M338.7,159.3c0,0,70.5,27.8,94,85"/>
		<path d="M351.8,148.7l-4.6-2.2l0.8-1.7l11.3,5.4l-0.8,1.7l-4.6-2.2l-6.5,13.5l-2-0.9L351.8,148.7z"/>
		<path d="M357.9,168.7l0.6-1.4l-0.1,0c-1,0.5-2.6,0.6-4.1-0.2c-2.2-1.2-2.4-3.3-1.6-4.8c1.4-2.6,4.4-2.8,8.5-0.5l0.1-0.2
			c0.5-0.9,1.1-2.6-1.1-3.8c-1-0.5-2.2-0.8-3.2-0.7l0.2-1.5c1.2-0.1,2.7,0.2,4,0.9c3.3,1.8,2.9,4.4,1.7,6.5l-2.1,4
			c-0.5,0.9-0.9,1.9-1.2,2.6L357.9,168.7z M360.5,163.1c-2.1-1.2-4.7-2.1-5.8,0c-0.7,1.3-0.2,2.3,0.8,2.8c1.4,0.7,2.7,0.3,3.5-0.4
			c0.2-0.2,0.3-0.4,0.4-0.6L360.5,163.1z"/>
		<path d="M363.3,169.1c0.3,0.7,1.1,1.7,2,2.2c1.4,0.8,2.4,0.5,2.9-0.3c0.5-0.9,0.3-1.7-0.8-3.1c-1.5-1.8-1.7-3.3-1-4.6
			c1-1.7,3.2-2.2,5.4-0.9c1.1,0.6,1.8,1.5,2.2,2.2l-1.3,1.1c-0.3-0.5-0.8-1.3-1.8-1.9c-1.1-0.7-2.1-0.4-2.6,0.4
			c-0.5,0.9-0.1,1.6,0.9,2.9c1.4,1.8,1.8,3.2,0.9,4.8c-1.1,1.8-3.3,2.3-5.7,0.8c-1.1-0.7-2-1.6-2.5-2.5L363.3,169.1z"/>
		<path d="M376.1,172L376.1,172c0.5-0.2,1.2-0.4,1.7-0.5l5.3-1.5l2.2,1.5l-6.6,1.6l0.5,8.9l-2.2-1.5l-0.3-7.1l-1.6,0.4l-2.5,3.8
			l-1.8-1.2l9.8-14.8l1.8,1.2L376.1,172z"/>
		<path d="M396,175l-2.1,2.8l2.5,1.9l-1,1.3l-2.5-1.9l-4,5.2c-0.9,1.2-1.1,2.1-0.1,2.9c0.5,0.4,0.8,0.6,1.1,0.7l-0.9,1.4
			c-0.4-0.1-1.1-0.4-1.7-1c-0.8-0.6-1.3-1.4-1.3-2.2c-0.1-0.9,0.4-1.9,1.2-3l4-5.2l-1.5-1.1l1-1.3l1.5,1.1l1.8-2.3L396,175z"/>
		<path d="M399.6,182.3l-2.9,5.7c-0.6,1.2-1.2,2.4-1.9,3.5l0.1,0c1-0.7,2.2-1.4,3.3-2.2l5.6-3.3l1.4,1.2l-2.6,5.8
			c-0.6,1.4-1.2,2.6-1.8,3.7l0.1,0c1-0.8,2-1.5,3.3-2.3l5.3-3.4l1.6,1.4l-10.9,6.5l-1.5-1.3l2.4-5.5c0.6-1.3,1.1-2.4,1.8-3.7l0,0
			c-1.2,0.9-2.3,1.6-3.5,2.3l-5.3,3l-1.5-1.3l5.3-11.5L399.6,182.3z"/>
		<path d="M416.1,206.4c-3.3,3.1-6.8,2.1-8.8,0c-2.2-2.4-2.2-5.9,0.6-8.5c3-2.8,6.5-2.5,8.8,0C419,200.5,418.8,203.9,416.1,206.4z
			 M409.4,199.5c-1.9,1.8-2.3,4.3-0.9,5.9c1.4,1.5,4,1.3,5.9-0.5c1.5-1.4,2.7-3.9,0.9-5.8C413.6,197.1,411.1,198,409.4,199.5z"/>
	</g>
	<g>
		<path fill="none" d="M348.6,412.6c0,0-83.2,14.2-135.8-18.2"/>
		<path d="M342.8,428.6l5.1-0.6l0.2,1.8l-12.4,1.4l-0.2-1.8l5.1-0.6l-1.7-14.9l2.2-0.3L342.8,428.6z"/>
		<path d="M327.1,415l0.3,1.5l0.1,0c0.6-1,1.8-1.9,3.5-2.1c2.4-0.2,3.8,1.4,4,3.2c0.2,2.9-2.2,4.7-6.9,5.1l0,0.2
			c0.1,1,0.5,2.8,3,2.6c1.1-0.1,2.3-0.5,3.1-1.1l0.6,1.4c-0.9,0.7-2.4,1.3-3.9,1.4c-3.7,0.3-4.8-2.2-5-4.6l-0.4-4.5
			c-0.1-1-0.2-2.1-0.4-2.9L327.1,415z M327.9,421.1c2.4-0.1,5.1-0.8,4.9-3.1c-0.1-1.4-1.1-2-2.2-1.9c-1.6,0.1-2.5,1.2-2.8,2.2
			c-0.1,0.2-0.1,0.5-0.1,0.7L327.9,421.1z"/>
		<path d="M322.3,417.5c-0.7-0.4-1.8-0.8-2.9-0.7c-1.6,0.1-2.3,0.9-2.3,1.9c0,1,0.7,1.6,2.3,2.1c2.2,0.7,3.3,1.8,3.3,3.3
			c0.1,1.9-1.4,3.6-4,3.7c-1.2,0.1-2.3-0.2-3-0.6l0.5-1.6c0.5,0.3,1.4,0.6,2.5,0.6c1.3-0.1,2-0.8,2-1.7c0-1-0.8-1.4-2.4-1.9
			c-2.1-0.7-3.3-1.7-3.3-3.5c-0.1-2.1,1.5-3.7,4.4-3.8c1.3-0.1,2.6,0.2,3.4,0.7L322.3,417.5z"/>
		<path d="M310,422.3L310,422.3c-0.3,0.4-0.8,1-1.1,1.4l-3.5,4.2l-2.7,0l4.6-5l-5.4-7.1l2.7,0l4.2,5.8l1.1-1.3l0-4.6l2.2,0l0.1,17.8
			l-2.2,0L310,422.3z"/>
		<path d="M295.1,415.5l-0.4,10.4l1.7,0.1l-0.1,1.7l-1.7-0.1l0,0.6c-0.1,1.7-0.5,3.2-1.6,4.2c-0.9,0.8-2,1-3,1
			c-0.8,0-1.4-0.2-1.9-0.4l0.4-1.7c0.3,0.2,0.8,0.3,1.4,0.3c1.9,0.1,2.4-1.5,2.5-3.4l0-0.6l-2.9-0.1l0.1-1.7l2.9,0.1l0.4-10.4
			L295.1,415.5z"/>
		<path d="M277.1,420.5c0.4-4.5,3.6-6.1,6.5-5.9c3.3,0.3,5.6,2.9,5.3,6.7c-0.3,4-3.2,6.2-6.5,5.9
			C278.9,426.9,276.8,424.2,277.1,420.5z M286.7,421.2c0.2-2.6-1.1-4.8-3.3-4.9c-2.1-0.2-3.8,1.7-4,4.4c-0.2,2,0.6,4.7,3.2,4.9
			C285.2,425.7,286.5,423.4,286.7,421.2z"/>
		<path d="M264.6,415.9c0.2-1.2,0.3-2.3,0.4-3.3l1.9,0.3l-0.2,2l0.1,0c0.7-0.9,2.1-2,4.3-1.7c1.9,0.3,4,1.6,3.4,5.8l-1,7l-2.2-0.3
			l0.9-6.6c0.3-2.3-0.2-3.9-2.1-4.2c-1.5-0.2-2.6,0.7-3.2,1.6c-0.2,0.3-0.3,0.7-0.4,1.1l-1,7.4l-2.2-0.3L264.6,415.9z"/>
		<path d="M260.1,420.2c-0.3,1.4-0.5,2.6-0.6,3.7l-1.9-0.4l0.4-2.3l-0.1,0c-0.8,1.5-2.3,2.2-3.8,2c-0.2,0-0.4-0.1-0.6-0.2l0.4-2
			c0.2,0.1,0.4,0.2,0.7,0.2c1.5,0.3,2.8-0.6,3.4-2.2c0.1-0.3,0.2-0.6,0.3-1l1.2-6.3l2.1,0.4L260.1,420.2z"/>
	</g>
	<g>
		<g>
			<g>
				<g>
					<path fill="#FDB913" stroke="#000000" stroke-width="0.5" stroke-miterlimit="10" d="M687.9,280.6l-148.9-48.4
						C560.3,166.4,618.7,124,687.9,124V280.6z"/>
				</g>
			</g>
			<g>
				<g>
					<path fill="#FFF200" stroke="#000000" stroke-width="0.5" stroke-miterlimit="10" d="M687.9,280.6l-92,126.7
						c-56-40.7-78.3-109.3-56.9-175.1L687.9,280.6z"/>
				</g>
			</g>
			<g>
				<g>
					<path fill="#00A651" stroke="#000000" stroke-width="0.5" stroke-miterlimit="10" d="M687.9,280.6l92,126.7
						c-56,40.7-128.1,40.7-184.1,0L687.9,280.6z"/>
				</g>
			</g>
			<g>
				<g>
					<path fill="#AC70E0" stroke="#000000" stroke-width="0.5" stroke-miterlimit="10" d="M687.9,280.6l148.9-48.4
						c21.4,65.8-0.9,134.4-56.9,175.1L687.9,280.6z"/>
				</g>
			</g>
			<g>
				<g>
					<path fill="#6DCFF6" stroke="#000000" stroke-width="0.5" stroke-miterlimit="10" d="M687.9,280.6V124
						c69.2,0,127.5,42.4,148.9,108.2L687.9,280.6z"/>
				</g>
			</g>
		</g>
		<g>
			<g>
			</g>
			<g>
			</g>
			<g>
			</g>
			<g>
			</g>
			<g>
			</g>
		</g>
	</g>
	<circle fill="#FFFFFF" stroke="#000000" stroke-width="0.5" stroke-miterlimit="10" cx="686.7" cy="279.6" r="117.8"/>
	<path fill="#FFFFFF" stroke="#000000" stroke-width="0.5" stroke-miterlimit="10" d="M598,405.8"/>
	<g>
		<path fill="none" d="M583.9,363.3c0,0-41.2-63.6-27.1-123.7"/>
		<path d="M567.1,364.3l2.5,4.5l-1.6,0.9l-6-10.9l1.6-0.9l2.5,4.5l13.1-7.3l1.1,1.9L567.1,364.3z"/>
		<path d="M573.7,344.6l-1.3,0.8l0,0.1c1.2,0.2,2.5,1,3.2,2.5c1.1,2.2,0.1,4.1-1.5,4.9c-2.6,1.3-5.2-0.3-7.3-4.5l-0.2,0.1
			c-0.9,0.4-2.4,1.5-1.3,3.7c0.5,1,1.3,1.9,2.2,2.4l-1.1,1.1c-1-0.6-2-1.7-2.7-3.1c-1.6-3.3,0.2-5.2,2.4-6.3l4.1-2
			c0.9-0.5,1.8-1,2.5-1.5L573.7,344.6z M568.3,347.6c1,2.2,2.6,4.4,4.7,3.4c1.3-0.6,1.5-1.8,1-2.8c-0.7-1.4-2-1.9-3.1-1.7
			c-0.2,0-0.5,0.1-0.7,0.2L568.3,347.6z"/>
		<path d="M571.6,340.1c-0.8,0.3-1.9,0.7-2.9,1.1l-13.5,5.7l-0.9-2l7-3l0,0c-1.5-0.2-2.9-1.1-3.7-2.9c-1.2-2.8,0.3-5.7,3.7-7.1
			c4-1.7,7,0,8.1,2.5c0.7,1.6,0.6,3.2-0.5,4.6l0,0.1l1.9-0.7L571.6,340.1z M566.2,339.9c0.3-0.1,0.5-0.3,0.7-0.4
			c1.2-1,1.7-2.6,1.1-4c-0.9-2.1-3.2-2.6-5.7-1.6c-2.2,0.9-3.7,2.9-2.7,5.1c0.6,1.4,2.1,2.3,3.8,2c0.2-0.1,0.6-0.1,0.9-0.2
			L566.2,339.9z"/>
		<path d="M564.3,322l-9.9,3.3l0.5,1.6l-1.6,0.5l-0.5-1.6l-0.6,0.2c-3,1-5.6-0.1-6.7-3.4c-0.4-1.1-0.4-2.4-0.2-3.2l1.8,0.1
			c-0.2,0.6-0.2,1.6,0.1,2.6c0.7,2.2,2.5,2.3,4.3,1.7l0.6-0.2l-2.2-6.7l11.5-3.8l0.7,2.1l-9.9,3.3l1.5,4.6l9.9-3.3L564.3,322z"/>
		<path d="M548.5,312.2l6-4c1-0.7,1.8-1.2,2.8-1.7l0-0.1c-1,0-2.1-0.1-3.3-0.2l-7.2-0.5l-0.6-2.2l12.9,1.5l0.5,2l-10.5,7.5
			L548.5,312.2z"/>
		<path d="M551.8,298.7c2.9-0.6,3.7-2.7,3.3-4.9c-0.3-1.5-0.8-2.4-1.3-3.2l1.5-0.7c0.5,0.7,1.1,1.9,1.5,3.8c0.7,3.7-1.3,6.3-4.8,7
			c-3.6,0.7-6.8-0.9-7.5-4.3c-0.8-3.9,2.5-5.6,4.6-6c0.4-0.1,0.8-0.1,1-0.1L551.8,298.7z M549,292.7c-1.4,0.2-3.4,1.2-2.9,3.7
			c0.4,2.2,2.6,2.7,4.2,2.6L549,292.7z"/>
	</g>
	<g>
		<path fill="none" d="M822,267.3c0,0-3.1,75.7-49.4,116.7"/>
		<path d="M836.3,276.2l0.6-5.1l1.8,0.2l-1.4,12.4l-1.8-0.2l0.6-5.1l-14.9-1.7l0.2-2.2L836.3,276.2z"/>
		<path d="M819.5,288.4l1.5,0.1l0-0.1c-0.8-0.8-1.5-2.2-1.2-3.9c0.4-2.4,2.3-3.4,4-3.1c2.9,0.5,4.1,3.3,3.3,7.9l0.2,0
			c1,0.2,2.8,0.2,3.2-2.3c0.2-1.1,0-2.3-0.4-3.3l1.5-0.3c0.5,1.1,0.7,2.6,0.4,4.1c-0.6,3.7-3.2,4.1-5.6,3.8l-4.5-0.7
			c-1-0.2-2.1-0.3-2.9-0.3L819.5,288.4z M825.6,289.1c0.4-2.4,0.4-5.1-1.9-5.5c-1.4-0.2-2.2,0.6-2.4,1.7c-0.2,1.6,0.6,2.7,1.5,3.2
			c0.2,0.1,0.4,0.2,0.7,0.2L825.6,289.1z"/>
		<path d="M818.6,293.4c0.8,0.2,2,0.5,3,0.8l14.3,3.1l-0.5,2.1l-7.4-1.6l0,0c1.2,1,1.7,2.6,1.3,4.5c-0.6,2.9-3.5,4.5-7.1,3.7
			c-4.2-0.9-5.7-4-5.2-6.7c0.4-1.7,1.3-2.9,3.1-3.5l0-0.1l-1.9-0.5L818.6,293.4z M822.9,296.6c-0.3-0.1-0.5-0.1-0.8-0.1
			c-1.6,0.1-2.9,1.1-3.2,2.7c-0.5,2.2,1.1,4,3.8,4.6c2.4,0.5,4.7-0.3,5.2-2.6c0.3-1.5-0.4-3.1-1.9-3.8c-0.2-0.1-0.5-0.2-0.9-0.3
			L822.9,296.6z"/>
		<path d="M828.3,319.1l-3.3-1l-0.9,3l-1.6-0.5l0.9-3l-6.3-1.8c-1.4-0.4-2.4-0.3-2.7,0.9c-0.2,0.6-0.2,1-0.2,1.3l-1.6-0.4
			c0-0.5,0-1.1,0.3-2c0.3-1,0.8-1.7,1.6-2c0.8-0.4,1.9-0.3,3.3,0.1l6.3,1.9l0.5-1.8l1.6,0.5l-0.5,1.8l2.8,0.8L828.3,319.1z"/>
		<path d="M828.6,325.8l-0.7,2.1l-7.1-2.5l0,0c0.5,0.5,0.8,1.2,0.9,2c0.1,0.7,0.1,1.6-0.2,2.3c-0.5,1.5-2.3,3.7-6.3,2.3l-6.8-2.4
			l0.7-2.1l6.6,2.3c1.8,0.6,3.6,0.5,4.3-1.4c0.5-1.3-0.1-2.7-1.1-3.5c-0.2-0.2-0.5-0.3-0.9-0.5l-6.9-2.4l0.7-2.1L828.6,325.8z"/>
		<path d="M814.8,335.9c1.3,0.6,2.5,1,3.5,1.4l-0.7,1.8l-2.2-0.8l0,0.1c1.3,1.1,1.7,2.8,1.2,4.1c-0.1,0.2-0.2,0.4-0.3,0.5l-1.9-0.8
			c0.1-0.2,0.2-0.4,0.4-0.7c0.6-1.4-0.1-2.9-1.5-3.8c-0.3-0.2-0.6-0.3-0.9-0.5l-5.9-2.5l0.8-2L814.8,335.9z"/>
		<path d="M808.7,343.3c-2.7-1.3-4.6-0.1-5.6,1.9c-0.7,1.4-0.9,2.4-0.9,3.3l-1.6-0.4c0-0.8,0.2-2.2,1.1-3.9c1.6-3.3,4.8-4.3,8.1-2.7
			c3.3,1.6,4.9,4.8,3.4,8c-1.7,3.5-5.3,3-7.3,2c-0.4-0.2-0.7-0.4-0.9-0.5L808.7,343.3z M807.3,349.8c1.2,0.6,3.5,1.1,4.6-1.2
			c1-2-0.4-3.8-1.7-4.6L807.3,349.8z"/>
		<path d="M803,354.6c-2.6-1.5-4.6-0.5-5.7,1.4c-0.8,1.4-1,2.3-1.2,3.2l-1.5-0.5c0.1-0.8,0.4-2.2,1.4-3.8c1.9-3.2,5.1-3.9,8.3-2
			s4.5,5.2,2.7,8.2c-2,3.4-5.5,2.5-7.5,1.4c-0.4-0.2-0.7-0.4-0.8-0.6L803,354.6z M801,360.9c1.2,0.7,3.4,1.3,4.6-0.8
			c1.1-1.9-0.1-3.8-1.4-4.7L801,360.9z"/>
	</g>
	<g>
		<path fill="none" d="M725.4,407c0,0-83.2,14.3-135.8-18.2"/>
		<path d="M719.7,422.9l5.1-0.6l0.2,1.8l-12.4,1.4l-0.2-1.8l5.1-0.6l-1.7-14.9l2.2-0.3L719.7,422.9z"/>
		<path d="M703.9,409.4l0.3,1.5l0.1,0c0.6-1,1.8-1.9,3.5-2.1c2.4-0.2,3.8,1.4,4,3.2c0.2,2.9-2.2,4.7-6.9,5.1l0,0.2
			c0.1,1,0.5,2.8,3,2.6c1.1-0.1,2.3-0.5,3.1-1.1l0.6,1.4c-0.9,0.7-2.4,1.3-3.9,1.4c-3.7,0.3-4.8-2.2-5-4.6l-0.4-4.5
			c-0.1-1-0.2-2.1-0.4-2.9L703.9,409.4z M704.8,415.5c2.4-0.1,5.1-0.8,4.9-3.1c-0.1-1.4-1.1-2-2.2-1.9c-1.6,0.1-2.5,1.2-2.8,2.2
			c-0.1,0.2-0.1,0.5-0.1,0.7L704.8,415.5z"/>
		<path d="M698.9,409.7c0,0.8,0,2.1,0,3.1l0.5,14.6l-2.2,0.1L697,420l0,0c-0.7,1.4-2.1,2.3-4,2.4c-3,0.1-5.2-2.3-5.3-6
			c-0.2-4.3,2.5-6.6,5.2-6.7c1.8-0.1,3.2,0.6,4.1,2.1l0.1,0l0-2L698.9,409.7z M696.8,414.7c0-0.3-0.1-0.5-0.1-0.8
			c-0.5-1.5-1.8-2.5-3.4-2.5c-2.3,0.1-3.6,2-3.5,4.8c0.1,2.4,1.4,4.5,3.8,4.4c1.5-0.1,2.9-1.1,3.2-2.8c0-0.3,0.1-0.6,0.1-0.9
			L696.8,414.7z"/>
		<path d="M679.2,410.1l-0.2,10.4l1.7,0l0,1.7l-1.7,0l0,0.6c0,1.7-0.4,3.2-1.5,4.2c-0.8,0.8-1.9,1.1-3,1.1c-0.8,0-1.4-0.2-1.9-0.4
			l0.3-1.7c0.3,0.2,0.8,0.3,1.4,0.3c1.9,0,2.4-1.6,2.4-3.5l0-0.7l-2.9,0l0-1.7l2.9,0l0.2-10.4L679.2,410.1z"/>
		<path d="M661.4,415.6c0.2-4.5,3.4-6.3,6.4-6.1c3.3,0.2,5.7,2.7,5.5,6.5c-0.2,4-3,6.3-6.3,6.1C663.4,421.9,661.2,419.3,661.4,415.6
			z M671,415.9c0.1-2.6-1.3-4.7-3.4-4.8c-2.1-0.1-3.8,1.8-3.9,4.5c-0.1,2,0.8,4.7,3.4,4.8S670.9,418.2,671,415.9z"/>
		<path d="M648.8,411.4c0.1-1.2,0.2-2.3,0.3-3.3l1.9,0.2l-0.1,2l0,0c0.7-0.9,2.1-2,4.2-1.8c1.9,0.2,4,1.5,3.6,5.7l-0.8,7l-2.2-0.2
			l0.7-6.7c0.2-2.3-0.3-3.9-2.3-4.1c-1.5-0.2-2.6,0.8-3.1,1.7c-0.2,0.3-0.3,0.7-0.3,1.1l-0.8,7.4l-2.2-0.2L648.8,411.4z"/>
		<path d="M644.4,415.8c-0.2,1.4-0.4,2.6-0.5,3.7l-1.9-0.3l0.3-2.4l-0.1,0c-0.8,1.5-2.3,2.3-3.7,2.1c-0.2,0-0.4-0.1-0.6-0.2l0.3-2.1
			c0.2,0.1,0.4,0.1,0.7,0.2c1.5,0.2,2.8-0.8,3.4-2.3c0.1-0.3,0.2-0.6,0.3-1l1-6.4l2.1,0.3L644.4,415.8z"/>
	</g>
	<g>
		<linearGradient id="SVGID_7_" gradientUnits="userSpaceOnUse" x1="739.5258" y1="379.9049" x2="709.4815" y2="327.8667">
			<stop  offset="0.2692" style="stop-color:#FFFFFF"/>
			<stop  offset="1" style="stop-color:#C7AB86"/>
		</linearGradient>
		<polygon fill="url(#SVGID_7_)" points="752.9,306.4 749.1,374.4 693.6,397.1 693.8,336.9 		"/>
		<linearGradient id="SVGID_8_" gradientUnits="userSpaceOnUse" x1="653.7004" y1="220.2172" x2="676.0011" y2="293.1594">
			<stop  offset="0" style="stop-color:#CF8F52"/>
			<stop  offset="1" style="stop-color:#57250C"/>
		</linearGradient>
		<polygon fill="url(#SVGID_8_)" points="694.6,208.8 631.5,227 635.5,305.6 693.9,277.5 		"/>
		<linearGradient id="SVGID_9_" gradientUnits="userSpaceOnUse" x1="736.5184" y1="220.5204" x2="711.8337" y2="292.2099">
			<stop  offset="0" style="stop-color:#CF8F52"/>
			<stop  offset="1" style="stop-color:#57250C"/>
		</linearGradient>
		<polygon fill="url(#SVGID_9_)" points="694.6,208.8 757.4,227.7 752.9,306.4 693.9,277.5 		"/>
		<polygon fill="#B16B37" points="693.8,336.9 694.1,250.3 757.4,227.7 752.9,306.4 		"/>
		<linearGradient id="SVGID_10_" gradientUnits="userSpaceOnUse" x1="655.0513" y1="222.8454" x2="675.7274" y2="340.1058">
			<stop  offset="0" style="stop-color:#DC9A5C"/>
			<stop  offset="1" style="stop-color:#C8864D"/>
		</linearGradient>
		<polygon fill="url(#SVGID_10_)" points="635.5,305.6 631.5,227 694.1,250.3 693.8,336.9 		"/>
		<linearGradient id="SVGID_11_" gradientUnits="userSpaceOnUse" x1="663.2239" y1="238.4471" x2="662.4764" y2="240.3941">
			<stop  offset="0" style="stop-color:#78451D"/>
			<stop  offset="0.544" style="stop-color:#D6955C"/>
		</linearGradient>
		<polygon fill="url(#SVGID_11_)" points="631.6,228.6 631.5,227 694.1,250.3 694.1,252.1 		"/>
		<linearGradient id="SVGID_12_" gradientUnits="userSpaceOnUse" x1="647.4769" y1="378.5915" x2="679.2136" y2="327.802">
			<stop  offset="0.2747" style="stop-color:#FFFFFF"/>
			<stop  offset="1" style="stop-color:#E3C8A0"/>
		</linearGradient>
		<polygon fill="url(#SVGID_12_)" points="693.8,336.9 693.6,397.1 638.8,373.2 635.5,305.6 		"/>
		<g>
			<path fill="#432A1C" d="M726.1,257c-1.7,0.7-24.4,9.6-25.4,10c-1.7,0.7-2.2,1.9-2.2,3.5c0,1.7-0.1,15.1-0.1,15.8
				c0,1.2,0.8,1.7,1.8,1.2c0.7-0.3,24.6-10.6,25.6-11c1.1-0.5,1.6-1.4,1.7-2.7c0-0.8,0.5-15.2,0.5-15.7
				C728,257.7,727.8,256.3,726.1,257z M726.8,273.8c0,0.9-0.4,1.6-1.3,1.9c-0.7,0.3-24.3,10.4-24.9,10.7c-1,0.5-1.4,0-1.4-0.8
				c0-0.3,0.1-13.4,0.1-14.6c0-1.4,0.3-2.3,1.4-2.8c1-0.4,25-10,25.3-10.1c0.6-0.3,1.1,0,1.1,0.7
				C727.2,259.4,726.8,272.8,726.8,273.8z"/>
			<path fill="#432A1C" d="M703.5,272c0,0,2.3-0.9,2.6-1c0.1,2.2-0.7,6.8-2.1,7.6c0,0.4,0,4.2,0,4.3c0.7-0.1,1.2-0.1,1.5,0
				c0.2,0,0.4,0.2,0.1,0.3c-0.3,0.1-3.5,1.5-3.7,1.6c-0.2,0.1-0.3,0-0.2-0.2c0.2-0.3,1.3-1.2,1.8-1.5c0-0.1,0-3.8,0-4.3
				c-1.6-0.2-1.9-2.9-1.9-6c0.3-0.1,1.6-0.6,1.6-0.6l-0.4,1.6l0.5,0.2l-0.7,2.2l1.2-2.3l-0.5-0.4L703.5,272z"/>
			<path fill="#432A1C" d="M710.2,269.7c0-0.5,0-1.4,0-1.4s-0.5,0.7-0.7,1.1c-0.3,0.5-0.1,0.8,0.1,0.9
				C709.8,270.4,710.2,270.3,710.2,269.7z"/>
			<path fill="#432A1C" d="M712.7,267.9c0-0.5,0-1.4,0-1.4s-0.5,0.7-0.7,1.1c-0.3,0.5-0.1,0.8,0.1,0.9
				C712.3,268.5,712.7,268.4,712.7,267.9z"/>
			<path fill="#432A1C" d="M711.9,266c0-0.5,0-1.4,0-1.4s-0.5,0.7-0.7,1.1c-0.3,0.5-0.1,0.8,0.1,0.9
				C711.4,266.7,711.8,266.6,711.9,266z"/>
			<path fill="#432A1C" d="M714.5,264.9c0-0.5,0-1.4,0-1.4s-0.5,0.7-0.7,1.1c-0.3,0.5-0.1,0.8,0.1,0.9
				C714,265.6,714.4,265.5,714.5,264.9z"/>
			<path fill="#432A1C" d="M715.2,266.7c0-0.5,0-1.4,0-1.4s-0.5,0.7-0.7,1.1c-0.3,0.5-0.1,0.8,0.1,0.9
				C714.8,267.4,715.2,267.3,715.2,266.7z"/>
			<path fill="#432A1C" d="M717,267c0-0.5,0-1.4,0-1.4s-0.5,0.6-0.7,1.1c-0.3,0.5-0.1,0.8,0.1,0.9C716.6,267.7,717,267.6,717,267z"
				/>
			<path fill="#432A1C" d="M716.8,264c0-0.5,0-1.4,0-1.4s-0.5,0.6-0.7,1.1c-0.3,0.5-0.1,0.8,0.1,0.9
				C716.4,264.7,716.8,264.6,716.8,264z"/>
			<path fill="#432A1C" d="M712.9,268.9c0-0.1,0-0.3,0-0.6c0-0.3,0.5-0.3,0.4-0.1c0,0.2,0,0.4,0,0.5c2.3-0.7,3.9,0.6,4.4,2.4
				c-1-0.5-1.9,0.2-2.3,1.3c-0.7-1-1.6-0.5-2.2,0.5c0,0.3-0.1,5.1-0.1,5.5c0,1.4-0.9,2.1-1.7,2.1c-0.8,0-1-0.8-1-1.3
				c0-0.4,0.5-0.5,0.5,0c0,1.2,1.5,0.6,1.6-0.7c0-0.7,0.1-5,0.1-5.4c-0.7-0.7-2,0.3-2.2,1.3c-0.8-1-1.5-0.6-2.4,0.6
				C709.2,271.8,711.3,269.7,712.9,268.9z"/>
			<polygon fill="#432A1C" points="719.9,267.8 719,268.1 720.6,264.9 722,266.9 721.2,267.2 721,274.5 719.7,275.1 			"/>
			<polygon fill="#432A1C" points="723.2,266.5 722.4,266.7 723.9,263.6 725.3,265.6 724.5,265.9 724.3,273.2 723,273.7 			"/>
			<polygon fill="#432A1C" points="718.8,276.1 725,273.5 725,274.8 718.8,277.5 			"/>
		</g>
		<linearGradient id="SVGID_13_" gradientUnits="userSpaceOnUse" x1="631.5498" y1="229.5551" x2="757.4014" y2="229.5551">
			<stop  offset="0.4286" style="stop-color:#EEBF8F"/>
			<stop  offset="1" style="stop-color:#DA985B"/>
		</linearGradient>
		<polygon fill="url(#SVGID_13_)" points="694.1,250.3 757.4,227.7 694.6,208.8 631.5,227 		"/>
		<polygon fill="#9C6F43" points="658.2,219.3 667.7,216.6 731.6,236.9 720.5,240.9 		"/>
		<polygon fill="#9C6F43" points="657.6,236.7 721.5,216.9 731.2,219.8 668,240.6 		"/>
		<polygon fill="#9C6F43" points="668,240.6 668.1,255.7 667.1,254.6 666.2,254.9 665.5,253.9 664.6,254.1 663.8,253.2 662.9,253.4 
			661.9,252.4 661,252.6 660.3,251.7 659.5,251.9 658.6,251 657.8,251.2 657.6,236.7 		"/>
		<linearGradient id="SVGID_14_" gradientUnits="userSpaceOnUse" x1="662.6201" y1="228.367" x2="726.2788" y2="228.367">
			<stop  offset="8.791210e-02" style="stop-color:#9A7044"/>
			<stop  offset="1" style="stop-color:#7B5332"/>
		</linearGradient>
		<polygon fill="url(#SVGID_14_)" points="662.6,238.6 725.4,218.1 726.3,218.4 662.8,238.7 		"/>
		<polygon fill="#814C29" points="720.5,240.9 720.3,255.9 721.3,254.9 722.2,255.1 723,254.2 723.9,254.4 724.8,253.5 725.8,253.6 
			726.6,252.7 727.4,253 728.2,252.1 729.1,252.3 730,251.4 730.9,251.6 731.6,236.9 		"/>
	</g>
	<g>
		<path fill="none" d="M721.9,153.5c0,0,70.5,27.8,94,85"/>
		<path d="M735,143l-4.6-2.2l0.8-1.7l11.3,5.4l-0.8,1.7L737,144l-6.5,13.5l-2-0.9L735,143z"/>
		<path d="M741,162.9l0.6-1.4l-0.1,0c-1,0.5-2.6,0.6-4.1-0.2c-2.2-1.2-2.4-3.3-1.6-4.8c1.4-2.6,4.4-2.8,8.5-0.5l0.1-0.2
			c0.5-0.9,1.1-2.6-1.1-3.8c-1-0.5-2.2-0.8-3.2-0.7l0.2-1.5c1.2-0.1,2.7,0.2,4,0.9c3.3,1.8,2.9,4.4,1.7,6.5l-2.1,4
			c-0.5,0.9-0.9,1.9-1.2,2.6L741,162.9z M743.7,157.3c-2.1-1.2-4.7-2.1-5.8,0c-0.7,1.3-0.2,2.3,0.8,2.8c1.4,0.7,2.7,0.3,3.5-0.4
			c0.2-0.2,0.3-0.4,0.4-0.6L743.7,157.3z"/>
		<path d="M745.4,165.4c0.5-0.7,1.2-1.7,1.7-2.6l7.6-12.5l1.9,1.1l-4,6.5l0,0c1.4-0.7,3-0.8,4.7,0.3c2.6,1.6,3.1,4.8,1.1,7.9
			c-2.3,3.7-5.7,4.1-8,2.7c-1.5-0.9-2.3-2.2-2.3-4.1l-0.1,0l-1.1,1.7L745.4,165.4z M749.9,162.4c-0.1,0.2-0.2,0.5-0.3,0.7
			c-0.4,1.5,0.1,3.1,1.5,3.9c2,1.2,4.1,0.3,5.6-2c1.3-2.1,1.3-4.5-0.7-5.7c-1.3-0.8-3-0.6-4.3,0.6c-0.2,0.2-0.4,0.4-0.6,0.7
			L749.9,162.4z"/>
		<path d="M772.9,164.7l-2,2.8l2.6,1.8l-1,1.4l-2.6-1.8l-3.8,5.3c-0.9,1.2-1,2.2,0,2.9c0.5,0.3,0.9,0.5,1.1,0.6l-0.9,1.4
			c-0.4-0.1-1.1-0.4-1.8-0.9c-0.8-0.6-1.3-1.3-1.4-2.1c-0.1-0.9,0.3-1.9,1.1-3.1l3.8-5.4l-1.5-1.1l1-1.4l1.5,1.1l1.7-2.4
			L772.9,164.7z"/>
		<path d="M776.8,171.7l-2.7,5.8c-0.6,1.3-1.1,2.4-1.7,3.5l0.1,0c1-0.8,2.1-1.5,3.3-2.3l5.4-3.5l1.4,1.2l-2.4,5.9
			c-0.6,1.4-1.1,2.6-1.7,3.7l0.1,0c0.9-0.8,2-1.6,3.2-2.4l5.2-3.6l1.7,1.4l-10.7,6.9l-1.5-1.3l2.2-5.6c0.5-1.3,1-2.5,1.7-3.8l0,0
			c-1.2,0.9-2.2,1.7-3.4,2.4l-5.2,3.2l-1.5-1.3l4.8-11.7L776.8,171.7z"/>
		<path d="M794.2,195.2c-3.1,3.2-6.7,2.4-8.8,0.4c-2.3-2.3-2.5-5.8,0.2-8.5c2.8-2.9,6.4-2.8,8.8-0.4
			C796.9,189.1,796.8,192.6,794.2,195.2z M787.2,188.6c-1.8,1.9-2.1,4.4-0.6,5.9c1.5,1.5,4,1.1,5.9-0.8c1.4-1.5,2.5-4,0.6-5.9
			C791.3,186,788.8,187,787.2,188.6z"/>
	</g>
	<g>
		<path fill="none" d="M564.8,231.4c0,0,37.8-65.6,97.8-80.5"/>
		<path d="M569.4,199.2l-3.2,4l-1.4-1.2l7.9-9.7l1.4,1.2l-3.3,4l11.6,9.5l-1.4,1.7L569.4,199.2z"/>
		<path d="M590.1,198l-1.3-0.9l0,0.1c0.3,1.1,0,2.7-1.1,4c-1.6,1.8-3.8,1.6-5.1,0.4c-2.2-1.9-1.6-5,1.5-8.4L584,193
			c-0.7-0.7-2.3-1.7-3.9,0.2c-0.8,0.8-1.3,1.9-1.4,2.9l-1.4-0.6c0.2-1.2,0.8-2.5,1.8-3.7c2.5-2.8,4.9-1.7,6.8-0.1l3.4,3
			c0.8,0.7,1.6,1.3,2.3,1.8L590.1,198z M585.3,194.1c-1.6,1.8-3.1,4.1-1.4,5.6c1.1,1,2.2,0.7,2.9-0.1c1-1.2,1-2.6,0.4-3.5
			c-0.1-0.2-0.3-0.4-0.4-0.6L585.3,194.1z"/>
		<path d="M593.5,194.3c-0.5-0.6-1.4-1.5-2.1-2.3l-10.3-10.4l1.5-1.5l5.4,5.4l0,0c-0.4-1.5,0-3.1,1.4-4.5c2.1-2.1,5.4-1.8,8,0.8
			c3,3.1,2.6,6.5,0.7,8.4c-1.2,1.2-2.7,1.7-4.5,1.2l-0.1,0.1l1.3,1.5L593.5,194.3z M591.7,189.3c0.2,0.2,0.4,0.4,0.6,0.5
			c1.4,0.8,3,0.6,4.2-0.5c1.6-1.6,1.3-3.9-0.7-5.9c-1.7-1.7-4.1-2.3-5.7-0.7c-1.1,1.1-1.3,2.8-0.5,4.3c0.1,0.2,0.3,0.5,0.5,0.7
			L591.7,189.3z"/>
		<path d="M612,169.4c2.8,3.5,1.7,6.9-0.6,8.8c-2.5,2.1-6,1.8-8.4-1.2c-2.6-3.1-2-6.7,0.6-8.8C606.3,166,609.7,166.5,612,169.4z
			 M604.7,175.5c1.7,2.1,4.1,2.6,5.8,1.3c1.6-1.3,1.6-3.9-0.1-6c-1.3-1.6-3.7-3-5.7-1.3C602.6,171.2,603.2,173.8,604.7,175.5z"/>
		<path d="M612.9,165.4c-0.7-1-1.3-1.9-1.9-2.6l1.6-1.1l1.2,1.6l0,0c-0.2-1.3,0.4-3,2-4.1c1.4-0.9,4.1-1.6,6.4,1.8l4.1,6l-1.8,1.2
			l-4-5.7c-1.1-1.6-2.6-2.5-4.3-1.4c-1.2,0.8-1.5,2.3-1.2,3.5c0.1,0.3,0.2,0.6,0.5,0.9l4.1,6l-1.8,1.2L612.9,165.4z"/>
		<path d="M627.4,159.6c1.5,2.6,3.8,2.7,5.7,1.6c1.4-0.8,2.1-1.5,2.6-2.2l1.1,1.2c-0.5,0.7-1.5,1.7-3.1,2.6
			c-3.2,1.8-6.4,0.8-8.2-2.4c-1.8-3.2-1.3-6.7,1.7-8.5c3.4-1.9,6.1,0.6,7.2,2.5c0.2,0.4,0.4,0.7,0.4,0.9L627.4,159.6z M632.2,155.1
			c-0.7-1.2-2.3-2.8-4.4-1.6c-1.9,1.1-1.8,3.4-1.2,4.8L632.2,155.1z"/>
	</g>
	<g>
		<path d="M213.1,46.6v12.4c0,4.7,2.1,6.7,4.9,6.7c3.1,0,5.1-2,5.1-6.7V46.6h2.7v12.2c0,6.4-3.4,9.1-7.9,9.1c-4.3,0-7.5-2.4-7.5-8.9
			V46.6H213.1z"/>
		<path d="M229.8,64.7c0.8,0.5,2.2,1.1,3.6,1.1c2,0,2.9-1,2.9-2.2c0-1.3-0.8-2-2.8-2.8c-2.7-1-4-2.4-4-4.2c0-2.4,2-4.4,5.2-4.4
			c1.5,0,2.9,0.4,3.7,0.9l-0.7,2c-0.6-0.4-1.7-0.9-3.1-0.9c-1.6,0-2.5,0.9-2.5,2c0,1.2,0.9,1.8,2.9,2.5c2.6,1,3.9,2.3,3.9,4.5
			c0,2.6-2,4.5-5.6,4.5c-1.6,0-3.2-0.4-4.2-1L229.8,64.7z"/>
		<path d="M243.9,60.5c0.1,3.7,2.4,5.2,5.1,5.2c2,0,3.1-0.3,4.2-0.8l0.5,2c-1,0.4-2.6,0.9-5,0.9c-4.6,0-7.4-3-7.4-7.6s2.7-8.1,7-8.1
			c4.9,0,6.2,4.3,6.2,7.1c0,0.6-0.1,1-0.1,1.3H243.9z M251.9,58.5c0-1.7-0.7-4.4-3.8-4.4c-2.8,0-4,2.5-4.2,4.4H251.9z"/>
		<path d="M257.9,57.1c0-1.8,0-3.3-0.1-4.7h2.4l0.1,2.9h0.1c0.7-2,2.3-3.3,4.2-3.3c0.3,0,0.5,0,0.8,0.1v2.6
			c-0.3-0.1-0.6-0.1-0.9-0.1c-1.9,0-3.3,1.5-3.7,3.5c-0.1,0.4-0.1,0.8-0.1,1.3v8h-2.7V57.1z"/>
		<path d="M274.2,58.1v2h-7.7v-2H274.2z"/>
		<path d="M292.6,66.8c-1,0.5-3,1-5.5,1c-5.9,0-10.3-3.7-10.3-10.6c0-6.5,4.4-11,10.9-11c2.6,0,4.2,0.6,5,0.9l-0.7,2.2
			c-1-0.5-2.5-0.9-4.2-0.9c-4.9,0-8.2,3.1-8.2,8.6c0,5.1,2.9,8.4,8,8.4c1.6,0,3.3-0.3,4.4-0.9L292.6,66.8z"/>
		<path d="M297,60.5c0.1,3.7,2.4,5.2,5.1,5.2c2,0,3.1-0.3,4.2-0.8l0.5,2c-1,0.4-2.6,0.9-5,0.9c-4.6,0-7.4-3-7.4-7.6s2.7-8.1,7-8.1
			c4.9,0,6.2,4.3,6.2,7.1c0,0.6-0.1,1-0.1,1.3H297z M305,58.5c0-1.7-0.7-4.4-3.8-4.4c-2.8,0-4,2.5-4.2,4.4H305z"/>
		<path d="M311,56.5c0-1.5,0-2.8-0.1-4.1h2.4l0.2,2.5h0.1c0.7-1.4,2.5-2.8,5-2.8c2.1,0,5.3,1.2,5.3,6.4v9h-2.7v-8.7
			c0-2.4-0.9-4.4-3.5-4.4c-1.8,0-3.2,1.3-3.7,2.8c-0.1,0.3-0.2,0.8-0.2,1.3v9H311V56.5z"/>
		<path d="M331.4,48.2v4.3h3.9v2.1h-3.9v8.1c0,1.9,0.5,2.9,2,2.9c0.7,0,1.2-0.1,1.6-0.2l0.1,2c-0.5,0.2-1.4,0.4-2.4,0.4
			c-1.3,0-2.3-0.4-2.9-1.1c-0.8-0.8-1.1-2.1-1.1-3.9v-8.2h-2.3v-2.1h2.3v-3.6L331.4,48.2z"/>
		<path d="M339.7,60.5c0.1,3.7,2.4,5.2,5.1,5.2c2,0,3.1-0.3,4.2-0.8l0.5,2c-1,0.4-2.6,0.9-5,0.9c-4.6,0-7.4-3-7.4-7.6s2.7-8.1,7-8.1
			c4.9,0,6.2,4.3,6.2,7.1c0,0.6-0.1,1-0.1,1.3H339.7z M347.7,58.5c0-1.7-0.7-4.4-3.8-4.4c-2.8,0-4,2.5-4.2,4.4H347.7z"/>
		<path d="M353.7,57.1c0-1.8,0-3.3-0.1-4.7h2.4l0.1,2.9h0.1c0.7-2,2.3-3.3,4.2-3.3c0.3,0,0.5,0,0.8,0.1v2.6
			c-0.3-0.1-0.6-0.1-0.9-0.1c-1.9,0-3.3,1.5-3.7,3.5c-0.1,0.4-0.1,0.8-0.1,1.3v8h-2.7V57.1z"/>
		<path d="M365.1,60.5c0.1,3.7,2.4,5.2,5.1,5.2c2,0,3.1-0.3,4.2-0.8l0.5,2c-1,0.4-2.6,0.9-5,0.9c-4.6,0-7.4-3-7.4-7.6s2.7-8.1,7-8.1
			c4.9,0,6.2,4.3,6.2,7.1c0,0.6-0.1,1-0.1,1.3H365.1z M373.1,58.5c0-1.7-0.7-4.4-3.8-4.4c-2.8,0-4,2.5-4.2,4.4H373.1z"/>
		<path d="M392,45.5v18.1c0,1.3,0,2.9,0.1,3.9h-2.4l-0.1-2.6h-0.1c-0.8,1.7-2.7,2.9-5.1,2.9c-3.6,0-6.4-3.1-6.4-7.6
			c0-5,3.1-8.1,6.7-8.1c2.3,0,3.8,1.1,4.5,2.3h0.1v-9H392z M389.3,58.6c0-0.3,0-0.8-0.1-1.1c-0.4-1.7-1.9-3.2-3.9-3.2
			c-2.8,0-4.5,2.5-4.5,5.8c0,3,1.5,5.5,4.4,5.5c1.8,0,3.5-1.2,4-3.3c0.1-0.4,0.1-0.7,0.1-1.2V58.6z"/>
		<path d="M210.4,84c1.6-0.2,3.6-0.4,5.7-0.4c3.9,0,6.6,0.9,8.5,2.6c1.9,1.7,2.9,4.1,2.9,7.5c0,3.4-1.1,6.2-3,8.1c-2,2-5.2,3-9.2,3
			c-1.9,0-3.5-0.1-4.9-0.2V84z M213.1,102.5c0.7,0.1,1.7,0.2,2.7,0.2c5.8,0,8.9-3.2,8.9-8.9c0-4.9-2.8-8.1-8.5-8.1
			c-1.4,0-2.4,0.1-3.2,0.3V102.5z"/>
		<path d="M244.6,97c0,5.6-3.8,8-7.5,8c-4.1,0-7.2-3-7.2-7.7c0-5,3.3-8,7.4-8C241.7,89.3,244.6,92.5,244.6,97z M232.7,97.2
			c0,3.3,1.9,5.8,4.6,5.8c2.6,0,4.6-2.4,4.6-5.8c0-2.5-1.3-5.8-4.5-5.8S232.7,94.3,232.7,97.2z"/>
		<path d="M258.7,104.1c-0.7,0.4-2.3,0.9-4.3,0.9c-4.5,0-7.5-3.1-7.5-7.7c0-4.6,3.2-8,8.1-8c1.6,0,3,0.4,3.8,0.8l-0.6,2.1
			c-0.7-0.4-1.7-0.7-3.2-0.7c-3.4,0-5.3,2.5-5.3,5.7c0,3.5,2.2,5.6,5.2,5.6c1.6,0,2.6-0.4,3.3-0.7L258.7,104.1z"/>
		<path d="M274.5,100.6c0,1.6,0,2.9,0.1,4.1h-2.4l-0.2-2.4H272c-0.7,1.2-2.3,2.8-5,2.8c-2.4,0-5.2-1.3-5.2-6.6v-8.8h2.7V98
			c0,2.9,0.9,4.8,3.3,4.8c1.8,0,3.1-1.3,3.6-2.5c0.2-0.4,0.2-0.9,0.2-1.4v-9.2h2.7V100.6z"/>
		<path d="M279,93.7c0-1.5,0-2.8-0.1-4.1h2.4l0.1,2.4h0.1c0.8-1.4,2.2-2.8,4.7-2.8c2,0,3.6,1.2,4.2,3h0.1c0.5-0.8,1.1-1.5,1.7-2
			c0.9-0.7,1.9-1.1,3.3-1.1c2,0,4.9,1.3,4.9,6.5v8.8h-2.7v-8.5c0-2.9-1.1-4.6-3.3-4.6c-1.6,0-2.8,1.1-3.2,2.5
			c-0.1,0.4-0.2,0.9-0.2,1.4v9.3h-2.7v-9c0-2.4-1.1-4.1-3.1-4.1c-1.7,0-2.9,1.4-3.4,2.7c-0.2,0.4-0.2,0.9-0.2,1.3v9.1H279V93.7z"/>
		<path d="M306.4,97.7c0.1,3.7,2.4,5.2,5.1,5.2c2,0,3.1-0.3,4.2-0.8l0.5,2c-1,0.4-2.6,0.9-5,0.9c-4.6,0-7.4-3-7.4-7.6s2.7-8.1,7-8.1
			c4.9,0,6.2,4.3,6.2,7.1c0,0.6-0.1,1-0.1,1.3H306.4z M314.4,95.7c0-1.7-0.7-4.4-3.8-4.4c-2.8,0-4,2.5-4.2,4.4H314.4z"/>
		<path d="M320.4,93.7c0-1.5,0-2.8-0.1-4.1h2.4l0.2,2.5h0.1c0.7-1.4,2.5-2.8,5-2.8c2.1,0,5.3,1.2,5.3,6.4v9h-2.7V96
			c0-2.4-0.9-4.4-3.5-4.4c-1.8,0-3.2,1.3-3.7,2.8c-0.1,0.3-0.2,0.8-0.2,1.3v9h-2.7V93.7z"/>
		<path d="M340.8,85.4v4.3h3.9v2.1h-3.9v8.1c0,1.9,0.5,2.9,2,2.9c0.7,0,1.2-0.1,1.6-0.2l0.1,2c-0.5,0.2-1.4,0.4-2.4,0.4
			c-1.3,0-2.3-0.4-2.9-1.1c-0.8-0.8-1.1-2.1-1.1-3.9v-8.2h-2.3v-2.1h2.3v-3.6L340.8,85.4z"/>
		<path d="M356.1,104.7l-0.2-1.9h-0.1c-0.8,1.2-2.4,2.2-4.6,2.2c-3,0-4.6-2.1-4.6-4.3c0-3.6,3.2-5.6,9-5.6v-0.3
			c0-1.2-0.3-3.5-3.4-3.5c-1.4,0-2.9,0.4-3.9,1.1l-0.6-1.8c1.2-0.8,3-1.3,4.9-1.3c4.6,0,5.7,3.1,5.7,6.1v5.6c0,1.3,0.1,2.6,0.2,3.6
			H356.1z M355.7,97c-3-0.1-6.4,0.5-6.4,3.4c0,1.8,1.2,2.6,2.6,2.6c2,0,3.2-1.2,3.6-2.5c0.1-0.3,0.2-0.6,0.2-0.9V97z"/>
		<path d="M365.9,85.4v4.3h3.9v2.1h-3.9v8.1c0,1.9,0.5,2.9,2,2.9c0.7,0,1.2-0.1,1.6-0.2l0.1,2c-0.5,0.2-1.4,0.4-2.4,0.4
			c-1.3,0-2.3-0.4-2.9-1.1c-0.8-0.8-1.1-2.1-1.1-3.9v-8.2h-2.3v-2.1h2.3v-3.6L365.9,85.4z"/>
		<path d="M375.9,85.4c0,0.9-0.7,1.7-1.7,1.7c-1,0-1.6-0.7-1.6-1.7c0-1,0.7-1.7,1.7-1.7C375.2,83.7,375.9,84.5,375.9,85.4z
			 M372.8,104.7v-15h2.7v15H372.8z"/>
		<path d="M393.7,97c0,5.6-3.8,8-7.5,8c-4.1,0-7.2-3-7.2-7.7c0-5,3.3-8,7.4-8C390.7,89.3,393.7,92.5,393.7,97z M381.8,97.2
			c0,3.3,1.9,5.8,4.6,5.8c2.6,0,4.6-2.4,4.6-5.8c0-2.5-1.3-5.8-4.5-5.8S381.8,94.3,381.8,97.2z"/>
		<path d="M397.1,93.7c0-1.5,0-2.8-0.1-4.1h2.4l0.2,2.5h0.1c0.7-1.4,2.5-2.8,5-2.8c2.1,0,5.3,1.2,5.3,6.4v9h-2.7V96
			c0-2.4-0.9-4.4-3.5-4.4c-1.8,0-3.2,1.3-3.7,2.8c-0.1,0.3-0.2,0.8-0.2,1.3v9h-2.7V93.7z"/>
	</g>
	<g>
		<path d="M586.3,46.8c1.3-0.2,3-0.4,5.2-0.4c2.7,0,4.6,0.6,5.9,1.7c1.1,1,1.8,2.5,1.8,4.4c0,1.9-0.6,3.4-1.6,4.5
			c-1.4,1.5-3.8,2.3-6.4,2.3c-0.8,0-1.6,0-2.2-0.2v8.4h-2.7V46.8z M589,56.9c0.6,0.2,1.3,0.2,2.2,0.2c3.3,0,5.2-1.6,5.2-4.5
			c0-2.8-2-4.1-4.9-4.1c-1.2,0-2.1,0.1-2.5,0.2V56.9z"/>
		<path d="M602.2,57.1c0-1.8,0-3.3-0.1-4.7h2.4l0.1,2.9h0.1c0.7-2,2.3-3.3,4.2-3.3c0.3,0,0.5,0,0.8,0.1v2.6
			c-0.3-0.1-0.6-0.1-0.9-0.1c-1.9,0-3.3,1.5-3.7,3.5c-0.1,0.4-0.1,0.8-0.1,1.3v8h-2.7V57.1z"/>
		<path d="M625.6,59.8c0,5.6-3.8,8-7.5,8c-4.1,0-7.2-3-7.2-7.7c0-5,3.3-8,7.4-8C622.7,52.1,625.6,55.3,625.6,59.8z M613.7,60
			c0,3.3,1.9,5.8,4.6,5.8c2.6,0,4.6-2.4,4.6-5.8c0-2.5-1.3-5.8-4.5-5.8S613.7,57.1,613.7,60z"/>
		<path d="M642,45.5v18.1c0,1.3,0,2.9,0.1,3.9h-2.4l-0.1-2.6h-0.1c-0.8,1.7-2.7,2.9-5.1,2.9c-3.6,0-6.4-3.1-6.4-7.6
			c0-5,3.1-8.1,6.7-8.1c2.3,0,3.8,1.1,4.5,2.3h0.1v-9H642z M639.2,58.6c0-0.3,0-0.8-0.1-1.1c-0.4-1.7-1.9-3.2-3.9-3.2
			c-2.8,0-4.5,2.5-4.5,5.8c0,3,1.5,5.5,4.4,5.5c1.8,0,3.5-1.2,4-3.3c0.1-0.4,0.1-0.7,0.1-1.2V58.6z"/>
		<path d="M659.1,63.4c0,1.6,0,2.9,0.1,4.1h-2.4l-0.2-2.4h-0.1c-0.7,1.2-2.3,2.8-5,2.8c-2.4,0-5.2-1.3-5.2-6.6v-8.8h2.7v8.3
			c0,2.9,0.9,4.8,3.3,4.8c1.8,0,3.1-1.3,3.6-2.5c0.2-0.4,0.2-0.9,0.2-1.4v-9.2h2.7V63.4z"/>
		<path d="M674.3,66.9c-0.7,0.4-2.3,0.9-4.3,0.9c-4.5,0-7.5-3.1-7.5-7.7c0-4.6,3.2-8,8.1-8c1.6,0,3,0.4,3.8,0.8l-0.6,2.1
			c-0.7-0.4-1.7-0.7-3.2-0.7c-3.4,0-5.3,2.5-5.3,5.7c0,3.5,2.2,5.6,5.2,5.6c1.6,0,2.6-0.4,3.3-0.7L674.3,66.9z"/>
		<path d="M681.2,48.2v4.3h3.9v2.1h-3.9v8.1c0,1.9,0.5,2.9,2,2.9c0.7,0,1.2-0.1,1.6-0.2l0.1,2c-0.5,0.2-1.4,0.4-2.4,0.4
			c-1.3,0-2.3-0.4-2.9-1.1c-0.8-0.8-1.1-2.1-1.1-3.9v-8.2h-2.3v-2.1h2.3v-3.6L681.2,48.2z"/>
		<path d="M694.3,58.1v2h-7.7v-2H694.3z"/>
		<path d="M712.6,66.8c-1,0.5-3,1-5.5,1c-5.9,0-10.3-3.7-10.3-10.6c0-6.5,4.4-11,10.9-11c2.6,0,4.2,0.6,5,0.9l-0.7,2.2
			c-1-0.5-2.5-0.9-4.2-0.9c-4.9,0-8.2,3.1-8.2,8.6c0,5.1,2.9,8.4,8,8.4c1.6,0,3.3-0.3,4.4-0.9L712.6,66.8z"/>
		<path d="M717.1,60.5c0.1,3.7,2.4,5.2,5.1,5.2c2,0,3.1-0.3,4.2-0.8l0.5,2c-1,0.4-2.6,0.9-5,0.9c-4.6,0-7.4-3-7.4-7.6s2.7-8.1,7-8.1
			c4.9,0,6.2,4.3,6.2,7.1c0,0.6-0.1,1-0.1,1.3H717.1z M725.1,58.5c0-1.7-0.7-4.4-3.8-4.4c-2.8,0-4,2.5-4.2,4.4H725.1z"/>
		<path d="M731.1,56.5c0-1.5,0-2.8-0.1-4.1h2.4l0.2,2.5h0.1c0.7-1.4,2.5-2.8,5-2.8c2.1,0,5.3,1.2,5.3,6.4v9h-2.7v-8.7
			c0-2.4-0.9-4.4-3.5-4.4c-1.8,0-3.2,1.3-3.7,2.8c-0.1,0.3-0.2,0.8-0.2,1.3v9h-2.7V56.5z"/>
		<path d="M751.5,48.2v4.3h3.9v2.1h-3.9v8.1c0,1.9,0.5,2.9,2,2.9c0.7,0,1.2-0.1,1.6-0.2l0.1,2c-0.5,0.2-1.4,0.4-2.4,0.4
			c-1.3,0-2.3-0.4-2.9-1.1c-0.8-0.8-1.1-2.1-1.1-3.9v-8.2h-2.3v-2.1h2.3v-3.6L751.5,48.2z"/>
		<path d="M759.8,60.5c0.1,3.7,2.4,5.2,5.1,5.2c2,0,3.1-0.3,4.2-0.8l0.5,2c-1,0.4-2.6,0.9-5,0.9c-4.6,0-7.4-3-7.4-7.6s2.7-8.1,7-8.1
			c4.9,0,6.2,4.3,6.2,7.1c0,0.6-0.1,1-0.1,1.3H759.8z M767.8,58.5c0-1.7-0.7-4.4-3.8-4.4c-2.8,0-4,2.5-4.2,4.4H767.8z"/>
		<path d="M773.8,57.1c0-1.8,0-3.3-0.1-4.7h2.4l0.1,2.9h0.1c0.7-2,2.3-3.3,4.2-3.3c0.3,0,0.5,0,0.8,0.1v2.6
			c-0.3-0.1-0.6-0.1-0.9-0.1c-1.9,0-3.3,1.5-3.7,3.5c-0.1,0.4-0.1,0.8-0.1,1.3v8h-2.7V57.1z"/>
		<path d="M785.1,60.5c0.1,3.7,2.4,5.2,5.1,5.2c2,0,3.1-0.3,4.2-0.8l0.5,2c-1,0.4-2.6,0.9-5,0.9c-4.6,0-7.4-3-7.4-7.6s2.7-8.1,7-8.1
			c4.9,0,6.2,4.3,6.2,7.1c0,0.6-0.1,1-0.1,1.3H785.1z M793.1,58.5c0-1.7-0.7-4.4-3.8-4.4c-2.8,0-4,2.5-4.2,4.4H793.1z"/>
		<path d="M812.1,45.5v18.1c0,1.3,0,2.9,0.1,3.9h-2.4l-0.1-2.6h-0.1c-0.8,1.7-2.7,2.9-5.1,2.9c-3.6,0-6.4-3.1-6.4-7.6
			c0-5,3.1-8.1,6.7-8.1c2.3,0,3.8,1.1,4.5,2.3h0.1v-9H812.1z M809.4,58.6c0-0.3,0-0.8-0.1-1.1c-0.4-1.7-1.9-3.2-3.9-3.2
			c-2.8,0-4.5,2.5-4.5,5.8c0,3,1.5,5.5,4.4,5.5c1.8,0,3.5-1.2,4-3.3c0.1-0.4,0.1-0.7,0.1-1.2V58.6z"/>
		<path d="M586.3,84c1.6-0.2,3.6-0.4,5.7-0.4c3.9,0,6.6,0.9,8.5,2.6c1.9,1.7,2.9,4.1,2.9,7.5c0,3.4-1.1,6.2-3,8.1c-2,2-5.2,3-9.2,3
			c-1.9,0-3.5-0.1-4.9-0.2V84z M589,102.5c0.7,0.1,1.7,0.2,2.7,0.2c5.8,0,8.9-3.2,8.9-8.9c0-4.9-2.8-8.1-8.5-8.1
			c-1.4,0-2.4,0.1-3.2,0.3V102.5z"/>
		<path d="M620.5,97c0,5.6-3.8,8-7.5,8c-4.1,0-7.2-3-7.2-7.7c0-5,3.3-8,7.4-8C617.6,89.3,620.5,92.5,620.5,97z M608.6,97.2
			c0,3.3,1.9,5.8,4.6,5.8c2.6,0,4.6-2.4,4.6-5.8c0-2.5-1.3-5.8-4.5-5.8S608.6,94.3,608.6,97.2z"/>
		<path d="M634.7,104.1c-0.7,0.4-2.3,0.9-4.3,0.9c-4.5,0-7.5-3.1-7.5-7.7c0-4.6,3.2-8,8.1-8c1.6,0,3,0.4,3.8,0.8l-0.6,2.1
			c-0.7-0.4-1.7-0.7-3.2-0.7c-3.4,0-5.3,2.5-5.3,5.7c0,3.5,2.2,5.6,5.2,5.6c1.6,0,2.6-0.4,3.3-0.7L634.7,104.1z"/>
		<path d="M650.4,100.6c0,1.6,0,2.9,0.1,4.1h-2.4l-0.2-2.4h-0.1c-0.7,1.2-2.3,2.8-5,2.8c-2.4,0-5.2-1.3-5.2-6.6v-8.8h2.7V98
			c0,2.9,0.9,4.8,3.3,4.8c1.8,0,3.1-1.3,3.6-2.5c0.2-0.4,0.2-0.9,0.2-1.4v-9.2h2.7V100.6z"/>
		<path d="M654.9,93.7c0-1.5,0-2.8-0.1-4.1h2.4l0.1,2.4h0.1c0.8-1.4,2.2-2.8,4.7-2.8c2,0,3.6,1.2,4.2,3h0.1c0.5-0.8,1.1-1.5,1.7-2
			c0.9-0.7,1.9-1.1,3.3-1.1c2,0,4.9,1.3,4.9,6.5v8.8h-2.7v-8.5c0-2.9-1.1-4.6-3.3-4.6c-1.6,0-2.8,1.1-3.2,2.5
			c-0.1,0.4-0.2,0.9-0.2,1.4v9.3h-2.7v-9c0-2.4-1.1-4.1-3.1-4.1c-1.7,0-2.9,1.4-3.4,2.7c-0.2,0.4-0.2,0.9-0.2,1.3v9.1h-2.7V93.7z"/>
		<path d="M682.3,97.7c0.1,3.7,2.4,5.2,5.1,5.2c2,0,3.1-0.3,4.2-0.8l0.5,2c-1,0.4-2.6,0.9-5,0.9c-4.6,0-7.4-3-7.4-7.6s2.7-8.1,7-8.1
			c4.9,0,6.2,4.3,6.2,7.1c0,0.6-0.1,1-0.1,1.3H682.3z M690.3,95.7c0-1.7-0.7-4.4-3.8-4.4c-2.8,0-4,2.5-4.2,4.4H690.3z"/>
		<path d="M696.3,93.7c0-1.5,0-2.8-0.1-4.1h2.4l0.2,2.5h0.1c0.7-1.4,2.5-2.8,5-2.8c2.1,0,5.3,1.2,5.3,6.4v9h-2.7V96
			c0-2.4-0.9-4.4-3.5-4.4c-1.8,0-3.2,1.3-3.7,2.8c-0.1,0.3-0.2,0.8-0.2,1.3v9h-2.7V93.7z"/>
		<path d="M716.7,85.4v4.3h3.9v2.1h-3.9v8.1c0,1.9,0.5,2.9,2,2.9c0.7,0,1.2-0.1,1.6-0.2l0.1,2c-0.5,0.2-1.4,0.4-2.4,0.4
			c-1.3,0-2.3-0.4-2.9-1.1c-0.8-0.8-1.1-2.1-1.1-3.9v-8.2h-2.3v-2.1h2.3v-3.6L716.7,85.4z"/>
		<path d="M732,104.7l-0.2-1.9h-0.1c-0.8,1.2-2.4,2.2-4.6,2.2c-3,0-4.6-2.1-4.6-4.3c0-3.6,3.2-5.6,9-5.6v-0.3c0-1.2-0.3-3.5-3.4-3.5
			c-1.4,0-2.9,0.4-3.9,1.1l-0.6-1.8c1.2-0.8,3-1.3,4.9-1.3c4.6,0,5.7,3.1,5.7,6.1v5.6c0,1.3,0.1,2.6,0.2,3.6H732z M731.6,97
			c-3-0.1-6.4,0.5-6.4,3.4c0,1.8,1.2,2.6,2.6,2.6c2,0,3.2-1.2,3.6-2.5c0.1-0.3,0.2-0.6,0.2-0.9V97z"/>
		<path d="M741.8,85.4v4.3h3.9v2.1h-3.9v8.1c0,1.9,0.5,2.9,2,2.9c0.7,0,1.2-0.1,1.6-0.2l0.1,2c-0.5,0.2-1.4,0.4-2.4,0.4
			c-1.3,0-2.3-0.4-2.9-1.1c-0.8-0.8-1.1-2.1-1.1-3.9v-8.2h-2.3v-2.1h2.3v-3.6L741.8,85.4z"/>
		<path d="M751.8,85.4c0,0.9-0.7,1.7-1.7,1.7c-1,0-1.6-0.7-1.6-1.7c0-1,0.7-1.7,1.7-1.7C751.1,83.7,751.8,84.5,751.8,85.4z
			 M748.7,104.7v-15h2.7v15H748.7z"/>
		<path d="M769.6,97c0,5.6-3.8,8-7.5,8c-4.1,0-7.2-3-7.2-7.7c0-5,3.3-8,7.4-8C766.7,89.3,769.6,92.5,769.6,97z M757.7,97.2
			c0,3.3,1.9,5.8,4.6,5.8c2.6,0,4.6-2.4,4.6-5.8c0-2.5-1.3-5.8-4.5-5.8S757.7,94.3,757.7,97.2z"/>
		<path d="M773,93.7c0-1.5,0-2.8-0.1-4.1h2.4l0.2,2.5h0.1c0.7-1.4,2.5-2.8,5-2.8c2.1,0,5.3,1.2,5.3,6.4v9H783V96
			c0-2.4-0.9-4.4-3.5-4.4c-1.8,0-3.2,1.3-3.7,2.8c-0.1,0.3-0.2,0.8-0.2,1.3v9H773V93.7z"/>
	</g>
</g>
<g id="building_x5F_blocks">
</g>
<g id="bookstoweb">
</g>
<g id="visualsengage">
</g>
</svg>
