<?xml version="1.0" encoding="utf-8"?>
<!-- Generator: Adobe Illustrator 17.1.0, SVG Export Plug-In . SVG Version: 6.00 Build 0)  -->
<!DOCTYPE svg PUBLIC "-//W3C//DTD SVG 1.1//EN" "http://www.w3.org/Graphics/SVG/1.1/DTD/svg11.dtd">
<svg version="1.1" xmlns="http://www.w3.org/2000/svg" xmlns:xlink="http://www.w3.org/1999/xlink" x="0px" y="0px"
	 viewBox="0 0 967 505.7" enable-background="new 0 0 967 505.7" xml:space="preserve">
<g id="turning_x5F_point">
</g>
<g id="user_x5F_centered_x5F_doc">
</g>
<g id="building_x5F_blocks">
	<rect x="-4.5" y="0" fill="#FFFFFF" stroke="#000000" stroke-miterlimit="10" width="981.7" height="505.7"/>
	<g>
		<polygon fill="#9F7D56" points="508.2,349.1 488.9,361.2 488.9,388.3 508.2,376.2 		"/>
		<polygon fill="#876840" points="450.3,337.1 488.9,361.2 488.9,388.3 450.3,364.1 		"/>
		<polygon fill="#967348" points="469.6,325 450.3,337.1 488.9,361.2 508.2,349.1 		"/>
		<path fill="#876840" d="M488.9,349.8c-4.4,0-7.9-1.9-7.9-4.3v4.2c0,2.4,3.6,4.3,7.9,4.3c4.4,0,7.9-1.9,7.9-4.3v-4.2
			C496.8,347.9,493.3,349.8,488.9,349.8z M469.6,337.7c-4.4,0-7.9-1.9-7.9-4.3v4.2c0,2.4,3.6,4.3,7.9,4.3c4.4,0,7.9-1.9,7.9-4.3
			v-4.2C477.5,335.8,474,337.7,469.6,337.7z"/>
		<path fill="#9F7D56" d="M488.9,341.3c-4.4,0-7.9,1.9-7.9,4.3c0,2.4,3.6,4.3,7.9,4.3c4.4,0,7.9-1.9,7.9-4.3
			C496.8,343.2,493.3,341.3,488.9,341.3z M469.6,329.2c-4.4,0-7.9,1.9-7.9,4.3c0,2.4,3.6,4.3,7.9,4.3c4.4,0,7.9-1.9,7.9-4.3
			C477.5,331.1,474,329.2,469.6,329.2z"/>
	</g>
	<g>
		<polygon fill="#0067AB" points="344.3,397.4 363.6,409.5 363.6,436.5 344.3,424.5 		"/>
		<polygon fill="#007AC0" points="440.7,361.2 363.6,409.5 363.6,436.5 440.7,388.3 		"/>
		<polygon fill="#0071BB" points="421.4,349.1 440.7,361.2 363.6,409.5 344.3,397.4 		"/>
		<path fill="#0067AB" d="M382.9,386c-4.4,0-7.9-1.9-7.9-4.3v4.2c0,2.4,3.6,4.3,7.9,4.3c4.4,0,7.9-1.9,7.9-4.3v-4.2
			C390.8,384.1,387.3,386,382.9,386z M363.6,398.1c-4.4,0-7.9-1.9-7.9-4.3v4.2c0,2.4,3.6,4.3,7.9,4.3c4.4,0,7.9-1.9,7.9-4.3v-4.2
			C371.5,396.2,368,398.1,363.6,398.1z M421.4,361.9c-4.4,0-7.9-1.9-7.9-4.3v4.2c0,2.4,3.6,4.3,7.9,4.3c4.4,0,7.9-1.9,7.9-4.3v-4.2
			C429.4,360,425.8,361.9,421.4,361.9z M402.1,373.9c-4.4,0-7.9-1.9-7.9-4.3v4.2c0,2.4,3.6,4.3,7.9,4.3c4.4,0,7.9-1.9,7.9-4.3v-4.2
			C410.1,372,406.5,373.9,402.1,373.9z"/>
		<path fill="#007AC0" d="M382.9,377.5c-4.4,0-7.9,1.9-7.9,4.3c0,2.4,3.6,4.3,7.9,4.3c4.4,0,7.9-1.9,7.9-4.3
			C390.8,379.4,387.3,377.5,382.9,377.5z M363.6,389.5c-4.4,0-7.9,1.9-7.9,4.3c0,2.4,3.6,4.3,7.9,4.3c4.4,0,7.9-1.9,7.9-4.3
			C371.5,391.5,368,389.5,363.6,389.5z M421.4,353.3c-4.4,0-7.9,1.9-7.9,4.3c0,2.4,3.6,4.3,7.9,4.3c4.4,0,7.9-1.9,7.9-4.3
			C429.4,355.2,425.8,353.3,421.4,353.3z M402.1,365.4c-4.4,0-7.9,1.9-7.9,4.3c0,2.4,3.6,4.3,7.9,4.3c4.4,0,7.9-1.9,7.9-4.3
			C410.1,367.3,406.5,365.4,402.1,365.4z"/>
	</g>
	<g>
		<polygon fill="#EC1C24" points="488.9,240.5 508.2,252.6 354,349.1 334.7,337.1 		"/>
		<polygon fill="#D71921" points="334.7,337.1 354,349.1 354,376.2 334.7,364.1 		"/>
		<polygon fill="#EE4130" points="508.2,252.6 354,349.1 354,376.2 508.2,279.7 		"/>
		<path fill="#D71921" d="M392.5,313.6c-4.4,0-7.9-1.9-7.9-4.3v4.2c0,2.4,3.6,4.3,7.9,4.3c4.4,0,7.9-1.9,7.9-4.3v-4.2
			C400.4,311.7,396.9,313.6,392.5,313.6z M373.2,325.7c-4.4,0-7.9-1.9-7.9-4.3v4.2c0,2.4,3.6,4.3,7.9,4.3s7.9-1.9,7.9-4.3v-4.2
			C381.2,323.8,377.6,325.7,373.2,325.7z M411.8,301.5c-4.4,0-7.9-1.9-7.9-4.3v4.2c0,2.4,3.6,4.3,7.9,4.3c4.4,0,7.9-1.9,7.9-4.3
			v-4.2C419.7,299.6,416.2,301.5,411.8,301.5z M354,337.7c-4.4,0-7.9-1.9-7.9-4.3v4.2c0,2.4,3.6,4.3,7.9,4.3c4.4,0,7.9-1.9,7.9-4.3
			v-4.2C361.9,335.8,358.3,337.7,354,337.7z M488.9,253.3c-4.4,0-7.9-1.9-7.9-4.3v4.2c0,2.4,3.6,4.3,7.9,4.3c4.4,0,7.9-1.9,7.9-4.3
			V249C496.8,251.4,493.3,253.3,488.9,253.3z M431.1,289.5c-4.4,0-7.9-1.9-7.9-4.3v4.2c0,2.4,3.6,4.3,7.9,4.3c4.4,0,7.9-1.9,7.9-4.3
			v-4.2C439,287.6,435.4,289.5,431.1,289.5z M469.6,265.3c-4.4,0-7.9-1.9-7.9-4.3v4.2c0,2.4,3.6,4.3,7.9,4.3c4.4,0,7.9-1.9,7.9-4.3
			v-4.2C477.5,263.4,474,265.3,469.6,265.3z M450.3,277.4c-4.4,0-7.9-1.9-7.9-4.3v4.2c0,2.4,3.6,4.3,7.9,4.3s7.9-1.9,7.9-4.3v-4.2
			C458.3,275.5,454.7,277.4,450.3,277.4z"/>
		<path fill="#EE4130" d="M373.2,317.1c-4.4,0-7.9,1.9-7.9,4.3c0,2.4,3.6,4.3,7.9,4.3s7.9-1.9,7.9-4.3
			C381.2,319,377.6,317.1,373.2,317.1z M392.5,305.1c-4.4,0-7.9,1.9-7.9,4.3c0,2.4,3.6,4.3,7.9,4.3c4.4,0,7.9-1.9,7.9-4.3
			C400.4,307,396.9,305.1,392.5,305.1z M411.8,293c-4.4,0-7.9,1.9-7.9,4.3c0,2.4,3.6,4.3,7.9,4.3c4.4,0,7.9-1.9,7.9-4.3
			C419.7,294.9,416.2,293,411.8,293z M354,329.2c-4.4,0-7.9,1.9-7.9,4.3c0,2.4,3.6,4.3,7.9,4.3c4.4,0,7.9-1.9,7.9-4.3
			C361.9,331.1,358.3,329.2,354,329.2z M431.1,280.9c-4.4,0-7.9,1.9-7.9,4.3c0,2.4,3.6,4.3,7.9,4.3c4.4,0,7.9-1.9,7.9-4.3
			C439,282.8,435.4,280.9,431.1,280.9z M488.9,244.7c-4.4,0-7.9,1.9-7.9,4.3c0,2.4,3.6,4.3,7.9,4.3c4.4,0,7.9-1.9,7.9-4.3
			C496.8,246.6,493.3,244.7,488.9,244.7z M469.6,256.8c-4.4,0-7.9,1.9-7.9,4.3c0,2.4,3.6,4.3,7.9,4.3c4.4,0,7.9-1.9,7.9-4.3
			C477.5,258.7,474,256.8,469.6,256.8z M450.3,268.9c-4.4,0-7.9,1.9-7.9,4.3c0,2.4,3.6,4.3,7.9,4.3s7.9-1.9,7.9-4.3
			C458.3,270.8,454.7,268.9,450.3,268.9z"/>
	</g>
	<g>
		<g>
			<polygon fill="#98CA4F" points="450.3,234.8 296.1,331.2 296.1,340 450.3,243.6 			"/>
			<polygon fill="#82B93B" points="141.9,234.7 296.1,331.2 296.1,340 141.9,243.5 			"/>
			<polygon fill="#8BC53F" points="296.1,138.3 141.9,234.7 296.1,331.2 450.3,234.8 			"/>
		</g>
		<path fill="#82B93B" d="M257.6,175.1c-4.4,0-7.9-1.9-7.9-4.3v4.2c0,2.4,3.6,4.3,7.9,4.3c4.4,0,7.9-1.9,7.9-4.3v-4.2
			C265.5,173.2,262,175.1,257.6,175.1z M276.9,283.6c-4.4,0-7.9-1.9-7.9-4.3v4.2c0,2.4,3.6,4.3,7.9,4.3c4.4,0,7.9-1.9,7.9-4.3v-4.2
			C284.8,281.7,281.2,283.6,276.9,283.6z M276.9,307.7c-4.4,0-7.9-1.9-7.9-4.3v4.2c0,2.4,3.6,4.3,7.9,4.3s7.9-1.9,7.9-4.3v-4.2
			C284.8,305.8,281.2,307.7,276.9,307.7z M257.6,271.6c-4.4,0-7.9-1.9-7.9-4.3v4.2c0,2.4,3.6,4.3,7.9,4.3c4.4,0,7.9-1.9,7.9-4.3
			v-4.2C265.5,269.7,262,271.6,257.6,271.6z M276.9,259.5c-4.4,0-7.9-1.9-7.9-4.3v4.2c0,2.4,3.6,4.3,7.9,4.3s7.9-1.9,7.9-4.3v-4.2
			C284.8,257.6,281.2,259.5,276.9,259.5z M257.6,247.5c-4.4,0-7.9-1.9-7.9-4.3v4.2c0,2.4,3.6,4.3,7.9,4.3c4.4,0,7.9-1.9,7.9-4.3
			v-4.2C265.5,245.5,262,247.5,257.6,247.5z M257.6,199.2c-4.4,0-7.9-1.9-7.9-4.3v4.2c0,2.4,3.6,4.3,7.9,4.3c4.4,0,7.9-1.9,7.9-4.3
			V195C265.5,197.3,262,199.2,257.6,199.2z M257.6,223.3c-4.4,0-7.9-1.9-7.9-4.3v4.2c0,2.4,3.6,4.3,7.9,4.3c4.4,0,7.9-1.9,7.9-4.3
			v-4.2C265.5,221.4,262,223.3,257.6,223.3z M276.9,163.1c-4.4,0-7.9-1.9-7.9-4.3v4.2c0,2.4,3.6,4.3,7.9,4.3s7.9-1.9,7.9-4.3v-4.2
			C284.8,161.2,281.2,163.1,276.9,163.1z M296.1,295.7c-4.4,0-7.9-1.9-7.9-4.3v4.2c0,2.4,3.6,4.3,7.9,4.3c4.4,0,7.9-1.9,7.9-4.3
			v-4.2C304.1,293.8,300.5,295.7,296.1,295.7z M296.1,319.8c-4.4,0-7.9-1.9-7.9-4.3v4.2c0,2.4,3.6,4.3,7.9,4.3
			c4.4,0,7.9-1.9,7.9-4.3v-4.2C304.1,317.9,300.5,319.8,296.1,319.8z M296.1,271.6c-4.4,0-7.9-1.9-7.9-4.3v4.2
			c0,2.4,3.6,4.3,7.9,4.3c4.4,0,7.9-1.9,7.9-4.3v-4.2C304.1,269.7,300.5,271.6,296.1,271.6z M276.9,235.4c-4.4,0-7.9-1.9-7.9-4.3
			v4.2c0,2.4,3.6,4.3,7.9,4.3c4.4,0,7.9-1.9,7.9-4.3v-4.2C284.8,233.5,281.2,235.4,276.9,235.4z M276.9,211.3
			c-4.4,0-7.9-1.9-7.9-4.3v4.2c0,2.4,3.6,4.3,7.9,4.3s7.9-1.9,7.9-4.3V207C284.8,209.4,281.2,211.3,276.9,211.3z M276.9,187.2
			c-4.4,0-7.9-1.9-7.9-4.3v4.2c0,2.4,3.6,4.3,7.9,4.3c4.4,0,7.9-1.9,7.9-4.3v-4.2C284.8,185.3,281.2,187.2,276.9,187.2z
			 M257.6,295.7c-4.4,0-7.9-1.9-7.9-4.3v4.2c0,2.4,3.6,4.3,7.9,4.3c4.4,0,7.9-1.9,7.9-4.3v-4.2C265.5,293.8,262,295.7,257.6,295.7z
			 M199.7,235.4c-4.4,0-7.9-1.9-7.9-4.3v4.2c0,2.4,3.6,4.3,7.9,4.3c4.4,0,7.9-1.9,7.9-4.3v-4.2C207.7,233.5,204.1,235.4,199.7,235.4
			z M296.1,247.5c-4.4,0-7.9-1.9-7.9-4.3v4.2c0,2.4,3.6,4.3,7.9,4.3c4.4,0,7.9-1.9,7.9-4.3v-4.2
			C304.1,245.6,300.5,247.5,296.1,247.5z M199.7,259.5c-4.4,0-7.9-1.9-7.9-4.3v4.2c0,2.4,3.6,4.3,7.9,4.3c4.4,0,7.9-1.9,7.9-4.3
			v-4.2C207.7,257.6,204.1,259.5,199.7,259.5z M219,271.5c-4.4,0-7.9-1.9-7.9-4.3v4.2c0,2.4,3.6,4.3,7.9,4.3c4.4,0,7.9-1.9,7.9-4.3
			v-4.2C227,269.6,223.4,271.5,219,271.5z M199.7,211.2c-4.4,0-7.9-1.9-7.9-4.3v4.2c0,2.4,3.6,4.3,7.9,4.3c4.4,0,7.9-1.9,7.9-4.3
			V207C207.7,209.3,204.1,211.2,199.7,211.2z M161.2,235.3c-4.4,0-7.9-1.9-7.9-4.3v4.2c0,2.4,3.6,4.3,7.9,4.3c4.4,0,7.9-1.9,7.9-4.3
			v-4.2C169.1,233.4,165.6,235.3,161.2,235.3z M180.5,223.3c-4.4,0-7.9-1.9-7.9-4.3v4.2c0,2.4,3.6,4.3,7.9,4.3
			c4.4,0,7.9-1.9,7.9-4.3V219C188.4,221.4,184.9,223.3,180.5,223.3z M180.5,247.4c-4.4,0-7.9-1.9-7.9-4.3v4.2c0,2.4,3.6,4.3,7.9,4.3
			c4.4,0,7.9-1.9,7.9-4.3v-4.2C188.4,245.5,184.9,247.4,180.5,247.4z M219,223.3c-4.4,0-7.9-1.9-7.9-4.3v4.2c0,2.4,3.6,4.3,7.9,4.3
			c4.4,0,7.9-1.9,7.9-4.3V219C227,221.4,223.4,223.3,219,223.3z M238.3,235.4c-4.4,0-7.9-1.9-7.9-4.3v4.2c0,2.4,3.6,4.3,7.9,4.3
			c4.4,0,7.9-1.9,7.9-4.3v-4.2C246.2,233.5,242.7,235.4,238.3,235.4z M238.3,259.5c-4.4,0-7.9-1.9-7.9-4.3v4.2
			c0,2.4,3.6,4.3,7.9,4.3c4.4,0,7.9-1.9,7.9-4.3v-4.2C246.2,257.6,242.7,259.5,238.3,259.5z M238.3,211.3c-4.4,0-7.9-1.9-7.9-4.3
			v4.2c0,2.4,3.6,4.3,7.9,4.3c4.4,0,7.9-1.9,7.9-4.3V207C246.2,209.4,242.7,211.3,238.3,211.3z M238.3,187.2c-4.4,0-7.9-1.9-7.9-4.3
			v4.2c0,2.4,3.6,4.3,7.9,4.3c4.4,0,7.9-1.9,7.9-4.3v-4.2C246.2,185.2,242.7,187.2,238.3,187.2z M219,247.4c-4.4,0-7.9-1.9-7.9-4.3
			v4.2c0,2.4,3.6,4.3,7.9,4.3c4.4,0,7.9-1.9,7.9-4.3v-4.2C227,245.5,223.4,247.4,219,247.4z M238.3,283.6c-4.4,0-7.9-1.9-7.9-4.3
			v4.2c0,2.4,3.6,4.3,7.9,4.3c4.4,0,7.9-1.9,7.9-4.3v-4.2C246.2,281.7,242.7,283.6,238.3,283.6z M219,199.2c-4.4,0-7.9-1.9-7.9-4.3
			v4.2c0,2.4,3.6,4.3,7.9,4.3c4.4,0,7.9-1.9,7.9-4.3v-4.2C227,197.3,223.4,199.2,219,199.2z M392.5,235.5c-4.4,0-7.9-1.9-7.9-4.3
			v4.2c0,2.4,3.6,4.3,7.9,4.3s7.9-1.9,7.9-4.3v-4.2C400.4,233.6,396.9,235.5,392.5,235.5z M296.1,223.4c-4.4,0-7.9-1.9-7.9-4.3v4.2
			c0,2.4,3.6,4.3,7.9,4.3c4.4,0,7.9-1.9,7.9-4.3v-4.2C304.1,221.5,300.5,223.4,296.1,223.4z M373.2,223.4c-4.4,0-7.9-1.9-7.9-4.3
			v4.2c0,2.4,3.6,4.3,7.9,4.3c4.4,0,7.9-1.9,7.9-4.3v-4.2C381.2,221.5,377.6,223.4,373.2,223.4z M354,187.2c-4.4,0-7.9-1.9-7.9-4.3
			v4.2c0,2.4,3.6,4.3,7.9,4.3c4.4,0,7.9-1.9,7.9-4.3V183C361.9,185.3,358.3,187.2,354,187.2z M373.2,247.5c-4.4,0-7.9-1.9-7.9-4.3
			v4.2c0,2.4,3.6,4.3,7.9,4.3s7.9-1.9,7.9-4.3v-4.2C381.2,245.6,377.6,247.5,373.2,247.5z M334.7,175.2c-4.4,0-7.9-1.9-7.9-4.3v4.2
			c0,2.4,3.6,4.3,7.9,4.3s7.9-1.9,7.9-4.3v-4.2C342.6,173.3,339.1,175.2,334.7,175.2z M354,283.7c-4.4,0-7.9-1.9-7.9-4.3v4.2
			c0,2.4,3.6,4.3,7.9,4.3c4.4,0,7.9-1.9,7.9-4.3v-4.2C361.9,281.8,358.3,283.7,354,283.7z M354,259.6c-4.4,0-7.9-1.9-7.9-4.3v4.2
			c0,2.4,3.6,4.3,7.9,4.3c4.4,0,7.9-1.9,7.9-4.3v-4.2C361.9,257.7,358.3,259.6,354,259.6z M354,235.5c-4.4,0-7.9-1.9-7.9-4.3v4.2
			c0,2.4,3.6,4.3,7.9,4.3c4.4,0,7.9-1.9,7.9-4.3v-4.2C361.9,233.5,358.3,235.5,354,235.5z M354,211.3c-4.4,0-7.9-1.9-7.9-4.3v4.2
			c0,2.4,3.6,4.3,7.9,4.3c4.4,0,7.9-1.9,7.9-4.3v-4.2C361.9,209.4,358.3,211.3,354,211.3z M431.1,235.5c-4.4,0-7.9-1.9-7.9-4.3v4.2
			c0,2.4,3.6,4.3,7.9,4.3c4.4,0,7.9-1.9,7.9-4.3v-4.2C439,233.6,435.4,235.5,431.1,235.5z M373.2,199.3c-4.4,0-7.9-1.9-7.9-4.3v4.2
			c0,2.4,3.6,4.3,7.9,4.3s7.9-1.9,7.9-4.3V195C381.2,197.4,377.6,199.3,373.2,199.3z M411.8,223.4c-4.4,0-7.9-1.9-7.9-4.3v4.2
			c0,2.4,3.6,4.3,7.9,4.3c4.4,0,7.9-1.9,7.9-4.3v-4.2C419.7,221.5,416.2,223.4,411.8,223.4z M392.5,259.6c-4.4,0-7.9-1.9-7.9-4.3
			v4.2c0,2.4,3.6,4.3,7.9,4.3c4.4,0,7.9-1.9,7.9-4.3v-4.2C400.4,257.7,396.9,259.6,392.5,259.6z M392.5,211.4
			c-4.4,0-7.9-1.9-7.9-4.3v4.2c0,2.4,3.6,4.3,7.9,4.3c4.4,0,7.9-1.9,7.9-4.3v-4.2C400.4,209.5,396.9,211.4,392.5,211.4z
			 M411.8,247.5c-4.4,0-7.9-1.9-7.9-4.3v4.2c0,2.4,3.6,4.3,7.9,4.3c4.4,0,7.9-1.9,7.9-4.3v-4.2C419.7,245.6,416.2,247.5,411.8,247.5
			z M373.2,271.6c-4.4,0-7.9-1.9-7.9-4.3v4.2c0,2.4,3.6,4.3,7.9,4.3c4.4,0,7.9-1.9,7.9-4.3v-4.2
			C381.2,269.7,377.6,271.6,373.2,271.6z M315.4,307.8c-4.4,0-7.9-1.9-7.9-4.3v4.2c0,2.4,3.6,4.3,7.9,4.3c4.4,0,7.9-1.9,7.9-4.3
			v-4.2C323.3,305.9,319.8,307.8,315.4,307.8z M334.7,199.3c-4.4,0-7.9-1.9-7.9-4.3v4.2c0,2.4,3.6,4.3,7.9,4.3s7.9-1.9,7.9-4.3V195
			C342.6,197.4,339.1,199.3,334.7,199.3z M315.4,259.6c-4.4,0-7.9-1.9-7.9-4.3v4.2c0,2.4,3.6,4.3,7.9,4.3c4.4,0,7.9-1.9,7.9-4.3
			v-4.2C323.3,257.6,319.8,259.6,315.4,259.6z M315.4,235.4c-4.4,0-7.9-1.9-7.9-4.3v4.2c0,2.4,3.6,4.3,7.9,4.3
			c4.4,0,7.9-1.9,7.9-4.3v-4.2C323.3,233.5,319.8,235.4,315.4,235.4z M296.1,199.3c-4.4,0-7.9-1.9-7.9-4.3v4.2
			c0,2.4,3.6,4.3,7.9,4.3c4.4,0,7.9-1.9,7.9-4.3V195C304.1,197.3,300.5,199.3,296.1,199.3z M296.1,151c-4.4,0-7.9-1.9-7.9-4.3v4.2
			c0,2.4,3.6,4.3,7.9,4.3c4.4,0,7.9-1.9,7.9-4.3v-4.2C304.1,149.1,300.5,151,296.1,151z M296.1,175.1c-4.4,0-7.9-1.9-7.9-4.3v4.2
			c0,2.4,3.6,4.3,7.9,4.3c4.4,0,7.9-1.9,7.9-4.3v-4.2C304.1,173.2,300.5,175.1,296.1,175.1z M315.4,283.7c-4.4,0-7.9-1.9-7.9-4.3
			v4.2c0,2.4,3.6,4.3,7.9,4.3c4.4,0,7.9-1.9,7.9-4.3v-4.2C323.3,281.7,319.8,283.7,315.4,283.7z M334.7,247.5
			c-4.4,0-7.9-1.9-7.9-4.3v4.2c0,2.4,3.6,4.3,7.9,4.3s7.9-1.9,7.9-4.3v-4.2C342.6,245.6,339.1,247.5,334.7,247.5z M334.7,223.4
			c-4.4,0-7.9-1.9-7.9-4.3v4.2c0,2.4,3.6,4.3,7.9,4.3s7.9-1.9,7.9-4.3v-4.2C342.6,221.5,339.1,223.4,334.7,223.4z M315.4,211.3
			c-4.4,0-7.9-1.9-7.9-4.3v4.2c0,2.4,3.6,4.3,7.9,4.3c4.4,0,7.9-1.9,7.9-4.3v-4.2C323.3,209.4,319.8,211.3,315.4,211.3z
			 M334.7,271.6c-4.4,0-7.9-1.9-7.9-4.3v4.2c0,2.4,3.6,4.3,7.9,4.3s7.9-1.9,7.9-4.3v-4.2C342.6,269.7,339.1,271.6,334.7,271.6z
			 M315.4,187.2c-4.4,0-7.9-1.9-7.9-4.3v4.2c0,2.4,3.6,4.3,7.9,4.3c4.4,0,7.9-1.9,7.9-4.3v-4.2C323.3,185.3,319.8,187.2,315.4,187.2
			z M315.4,163.1c-4.4,0-7.9-1.9-7.9-4.3v4.2c0,2.4,3.6,4.3,7.9,4.3c4.4,0,7.9-1.9,7.9-4.3v-4.2
			C323.3,161.2,319.8,163.1,315.4,163.1z M334.7,295.7c-4.4,0-7.9-1.9-7.9-4.3v4.2c0,2.4,3.6,4.3,7.9,4.3s7.9-1.9,7.9-4.3v-4.2
			C342.6,293.8,339.1,295.7,334.7,295.7z"/>
		<path fill="#98CA4F" d="M257.6,166.6c-4.4,0-7.9,1.9-7.9,4.3c0,2.4,3.6,4.3,7.9,4.3c4.4,0,7.9-1.9,7.9-4.3
			C265.5,168.5,262,166.6,257.6,166.6z M276.9,299.2c-4.4,0-7.9,1.9-7.9,4.3c0,2.4,3.6,4.3,7.9,4.3s7.9-1.9,7.9-4.3
			C284.8,301.1,281.2,299.2,276.9,299.2z M257.6,190.7c-4.4,0-7.9,1.9-7.9,4.3c0,2.4,3.6,4.3,7.9,4.3c4.4,0,7.9-1.9,7.9-4.3
			C265.5,192.6,262,190.7,257.6,190.7z M276.9,275.1c-4.4,0-7.9,1.9-7.9,4.3c0,2.4,3.6,4.3,7.9,4.3c4.4,0,7.9-1.9,7.9-4.3
			C284.8,277,281.2,275.1,276.9,275.1z M257.6,263c-4.4,0-7.9,1.9-7.9,4.3c0,2.4,3.6,4.3,7.9,4.3c4.4,0,7.9-1.9,7.9-4.3
			C265.5,264.9,262,263,257.6,263z M257.6,214.8c-4.4,0-7.9,1.9-7.9,4.3c0,2.4,3.6,4.3,7.9,4.3c4.4,0,7.9-1.9,7.9-4.3
			C265.5,216.7,262,214.8,257.6,214.8z M257.6,238.9c-4.4,0-7.9,1.9-7.9,4.3c0,2.4,3.6,4.3,7.9,4.3c4.4,0,7.9-1.9,7.9-4.3
			C265.5,240.8,262,238.9,257.6,238.9z M276.9,178.6c-4.4,0-7.9,1.9-7.9,4.3c0,2.4,3.6,4.3,7.9,4.3c4.4,0,7.9-1.9,7.9-4.3
			C284.8,180.6,281.2,178.6,276.9,178.6z M296.1,311.3c-4.4,0-7.9,1.9-7.9,4.3c0,2.4,3.6,4.3,7.9,4.3c4.4,0,7.9-1.9,7.9-4.3
			C304.1,313.2,300.5,311.3,296.1,311.3z M276.9,251c-4.4,0-7.9,1.9-7.9,4.3c0,2.4,3.6,4.3,7.9,4.3s7.9-1.9,7.9-4.3
			C284.8,252.9,281.2,251,276.9,251z M296.1,263c-4.4,0-7.9,1.9-7.9,4.3c0,2.4,3.6,4.3,7.9,4.3c4.4,0,7.9-1.9,7.9-4.3
			C304.1,265,300.5,263,296.1,263z M296.1,287.2c-4.4,0-7.9,1.9-7.9,4.3c0,2.4,3.6,4.3,7.9,4.3c4.4,0,7.9-1.9,7.9-4.3
			C304.1,289.1,300.5,287.2,296.1,287.2z M276.9,226.9c-4.4,0-7.9,1.9-7.9,4.3c0,2.4,3.6,4.3,7.9,4.3c4.4,0,7.9-1.9,7.9-4.3
			C284.8,228.8,281.2,226.9,276.9,226.9z M276.9,202.7c-4.4,0-7.9,1.9-7.9,4.3c0,2.4,3.6,4.3,7.9,4.3s7.9-1.9,7.9-4.3
			C284.8,204.7,281.2,202.7,276.9,202.7z M276.9,154.5c-4.4,0-7.9,1.9-7.9,4.3c0,2.4,3.6,4.3,7.9,4.3s7.9-1.9,7.9-4.3
			C284.8,156.4,281.2,154.5,276.9,154.5z M257.6,287.1c-4.4,0-7.9,1.9-7.9,4.3c0,2.4,3.6,4.3,7.9,4.3c4.4,0,7.9-1.9,7.9-4.3
			C265.5,289,262,287.1,257.6,287.1z M199.7,226.8c-4.4,0-7.9,1.9-7.9,4.3c0,2.4,3.6,4.3,7.9,4.3c4.4,0,7.9-1.9,7.9-4.3
			C207.7,228.7,204.1,226.8,199.7,226.8z M199.7,202.7c-4.4,0-7.9,1.9-7.9,4.3c0,2.4,3.6,4.3,7.9,4.3c4.4,0,7.9-1.9,7.9-4.3
			C207.7,204.6,204.1,202.7,199.7,202.7z M199.7,250.9c-4.4,0-7.9,1.9-7.9,4.3c0,2.4,3.6,4.3,7.9,4.3c4.4,0,7.9-1.9,7.9-4.3
			C207.7,252.8,204.1,250.9,199.7,250.9z M219,263c-4.4,0-7.9,1.9-7.9,4.3c0,2.4,3.6,4.3,7.9,4.3c4.4,0,7.9-1.9,7.9-4.3
			C227,264.9,223.4,263,219,263z M219,238.9c-4.4,0-7.9,1.9-7.9,4.3s3.6,4.3,7.9,4.3c4.4,0,7.9-1.9,7.9-4.3S223.4,238.9,219,238.9z
			 M161.2,226.8c-4.4,0-7.9,1.9-7.9,4.3c0,2.4,3.6,4.3,7.9,4.3c4.4,0,7.9-1.9,7.9-4.3C169.1,228.7,165.6,226.8,161.2,226.8z
			 M180.5,238.9c-4.4,0-7.9,1.9-7.9,4.3c0,2.4,3.6,4.3,7.9,4.3c4.4,0,7.9-1.9,7.9-4.3C188.4,240.8,184.9,238.9,180.5,238.9z
			 M180.5,214.8c-4.4,0-7.9,1.9-7.9,4.3c0,2.4,3.6,4.3,7.9,4.3c4.4,0,7.9-1.9,7.9-4.3C188.4,216.7,184.9,214.8,180.5,214.8z
			 M238.3,178.6c-4.4,0-7.9,1.9-7.9,4.3c0,2.4,3.6,4.3,7.9,4.3c4.4,0,7.9-1.9,7.9-4.3C246.2,180.5,242.7,178.6,238.3,178.6z
			 M238.3,202.7c-4.4,0-7.9,1.9-7.9,4.3c0,2.4,3.6,4.3,7.9,4.3c4.4,0,7.9-1.9,7.9-4.3C246.2,204.6,242.7,202.7,238.3,202.7z
			 M296.1,238.9c-4.4,0-7.9,1.9-7.9,4.3c0,2.4,3.6,4.3,7.9,4.3c4.4,0,7.9-1.9,7.9-4.3C304.1,240.8,300.5,238.9,296.1,238.9z
			 M238.3,226.8c-4.4,0-7.9,1.9-7.9,4.3c0,2.4,3.6,4.3,7.9,4.3c4.4,0,7.9-1.9,7.9-4.3C246.2,228.8,242.7,226.8,238.3,226.8z
			 M219,214.8c-4.4,0-7.9,1.9-7.9,4.3c0,2.4,3.6,4.3,7.9,4.3c4.4,0,7.9-1.9,7.9-4.3C227,216.7,223.4,214.8,219,214.8z M219,190.7
			c-4.4,0-7.9,1.9-7.9,4.3c0,2.4,3.6,4.3,7.9,4.3c4.4,0,7.9-1.9,7.9-4.3C227,192.6,223.4,190.7,219,190.7z M238.3,251
			c-4.4,0-7.9,1.9-7.9,4.3c0,2.4,3.6,4.3,7.9,4.3c4.4,0,7.9-1.9,7.9-4.3C246.2,252.9,242.7,251,238.3,251z M238.3,275.1
			c-4.4,0-7.9,1.9-7.9,4.3c0,2.4,3.6,4.3,7.9,4.3c4.4,0,7.9-1.9,7.9-4.3C246.2,277,242.7,275.1,238.3,275.1z M334.7,190.7
			c-4.4,0-7.9,1.9-7.9,4.3c0,2.4,3.6,4.3,7.9,4.3s7.9-1.9,7.9-4.3C342.6,192.6,339.1,190.7,334.7,190.7z M373.2,263.1
			c-4.4,0-7.9,1.9-7.9,4.3c0,2.4,3.6,4.3,7.9,4.3c4.4,0,7.9-1.9,7.9-4.3C381.2,265,377.6,263.1,373.2,263.1z M373.2,239
			c-4.4,0-7.9,1.9-7.9,4.3c0,2.4,3.6,4.3,7.9,4.3s7.9-1.9,7.9-4.3C381.2,240.9,377.6,239,373.2,239z M354,178.7
			c-4.4,0-7.9,1.9-7.9,4.3c0,2.4,3.6,4.3,7.9,4.3c4.4,0,7.9-1.9,7.9-4.3C361.9,180.6,358.3,178.7,354,178.7z M354,202.8
			c-4.4,0-7.9,1.9-7.9,4.3c0,2.4,3.6,4.3,7.9,4.3c4.4,0,7.9-1.9,7.9-4.3C361.9,204.7,358.3,202.8,354,202.8z M354,275.1
			c-4.4,0-7.9,1.9-7.9,4.3c0,2.4,3.6,4.3,7.9,4.3c4.4,0,7.9-1.9,7.9-4.3C361.9,277.1,358.3,275.1,354,275.1z M354,226.9
			c-4.4,0-7.9,1.9-7.9,4.3c0,2.4,3.6,4.3,7.9,4.3c4.4,0,7.9-1.9,7.9-4.3C361.9,228.8,358.3,226.9,354,226.9z M373.2,214.9
			c-4.4,0-7.9,1.9-7.9,4.3c0,2.4,3.6,4.3,7.9,4.3c4.4,0,7.9-1.9,7.9-4.3C381.2,216.8,377.6,214.9,373.2,214.9z M354,251
			c-4.4,0-7.9,1.9-7.9,4.3c0,2.4,3.6,4.3,7.9,4.3c4.4,0,7.9-1.9,7.9-4.3C361.9,252.9,358.3,251,354,251z M411.8,239
			c-4.4,0-7.9,1.9-7.9,4.3c0,2.4,3.6,4.3,7.9,4.3c4.4,0,7.9-1.9,7.9-4.3C419.7,240.9,416.2,239,411.8,239z M411.8,214.9
			c-4.4,0-7.9,1.9-7.9,4.3c0,2.4,3.6,4.3,7.9,4.3c4.4,0,7.9-1.9,7.9-4.3C419.7,216.8,416.2,214.9,411.8,214.9z M373.2,190.8
			c-4.4,0-7.9,1.9-7.9,4.3c0,2.4,3.6,4.3,7.9,4.3s7.9-1.9,7.9-4.3C381.2,192.7,377.6,190.8,373.2,190.8z M431.1,227
			c-4.4,0-7.9,1.9-7.9,4.3c0,2.4,3.6,4.3,7.9,4.3c4.4,0,7.9-1.9,7.9-4.3C439,228.9,435.4,227,431.1,227z M392.5,202.8
			c-4.4,0-7.9,1.9-7.9,4.3c0,2.4,3.6,4.3,7.9,4.3c4.4,0,7.9-1.9,7.9-4.3C400.4,204.7,396.9,202.8,392.5,202.8z M392.5,251.1
			c-4.4,0-7.9,1.9-7.9,4.3c0,2.4,3.6,4.3,7.9,4.3c4.4,0,7.9-1.9,7.9-4.3C400.4,253,396.9,251.1,392.5,251.1z M392.5,226.9
			c-4.4,0-7.9,1.9-7.9,4.3c0,2.4,3.6,4.3,7.9,4.3s7.9-1.9,7.9-4.3C400.4,228.8,396.9,226.9,392.5,226.9z M296.1,142.5
			c-4.4,0-7.9,1.9-7.9,4.3c0,2.4,3.6,4.3,7.9,4.3c4.4,0,7.9-1.9,7.9-4.3C304.1,144.4,300.5,142.5,296.1,142.5z M315.4,226.9
			c-4.4,0-7.9,1.9-7.9,4.3c0,2.4,3.6,4.3,7.9,4.3c4.4,0,7.9-1.9,7.9-4.3C323.3,228.8,319.8,226.9,315.4,226.9z M315.4,251
			c-4.4,0-7.9,1.9-7.9,4.3c0,2.4,3.6,4.3,7.9,4.3c4.4,0,7.9-1.9,7.9-4.3C323.3,252.9,319.8,251,315.4,251z M315.4,299.2
			c-4.4,0-7.9,1.9-7.9,4.3c0,2.4,3.6,4.3,7.9,4.3c4.4,0,7.9-1.9,7.9-4.3C323.3,301.1,319.8,299.2,315.4,299.2z M315.4,275.1
			c-4.4,0-7.9,1.9-7.9,4.3c0,2.4,3.6,4.3,7.9,4.3c4.4,0,7.9-1.9,7.9-4.3C323.3,277,319.8,275.1,315.4,275.1z M296.1,214.8
			c-4.4,0-7.9,1.9-7.9,4.3c0,2.4,3.6,4.3,7.9,4.3c4.4,0,7.9-1.9,7.9-4.3C304.1,216.7,300.5,214.8,296.1,214.8z M296.1,190.7
			c-4.4,0-7.9,1.9-7.9,4.3c0,2.4,3.6,4.3,7.9,4.3c4.4,0,7.9-1.9,7.9-4.3C304.1,192.6,300.5,190.7,296.1,190.7z M296.1,166.6
			c-4.4,0-7.9,1.9-7.9,4.3c0,2.4,3.6,4.3,7.9,4.3c4.4,0,7.9-1.9,7.9-4.3C304.1,168.5,300.5,166.6,296.1,166.6z M315.4,202.8
			c-4.4,0-7.9,1.9-7.9,4.3c0,2.4,3.6,4.3,7.9,4.3c4.4,0,7.9-1.9,7.9-4.3C323.3,204.7,319.8,202.8,315.4,202.8z M334.7,239
			c-4.4,0-7.9,1.9-7.9,4.3c0,2.4,3.6,4.3,7.9,4.3s7.9-1.9,7.9-4.3C342.6,240.9,339.1,239,334.7,239z M334.7,263.1
			c-4.4,0-7.9,1.9-7.9,4.3c0,2.4,3.6,4.3,7.9,4.3s7.9-1.9,7.9-4.3C342.6,265,339.1,263.1,334.7,263.1z M334.7,214.8
			c-4.4,0-7.9,1.9-7.9,4.3c0,2.4,3.6,4.3,7.9,4.3s7.9-1.9,7.9-4.3C342.6,216.8,339.1,214.8,334.7,214.8z M315.4,154.6
			c-4.4,0-7.9,1.9-7.9,4.3c0,2.4,3.6,4.3,7.9,4.3c4.4,0,7.9-1.9,7.9-4.3C323.3,156.5,319.8,154.6,315.4,154.6z M334.7,287.2
			c-4.4,0-7.9,1.9-7.9,4.3c0,2.4,3.6,4.3,7.9,4.3s7.9-1.9,7.9-4.3C342.6,289.1,339.1,287.2,334.7,287.2z M315.4,178.7
			c-4.4,0-7.9,1.9-7.9,4.3c0,2.4,3.6,4.3,7.9,4.3c4.4,0,7.9-1.9,7.9-4.3C323.3,180.6,319.8,178.7,315.4,178.7z M334.7,166.6
			c-4.4,0-7.9,1.9-7.9,4.3c0,2.4,3.6,4.3,7.9,4.3s7.9-1.9,7.9-4.3C342.6,168.5,339.1,166.6,334.7,166.6z"/>
	</g>
	<g>
		<polygon fill="#76B78E" points="354,36 431.1,84.3 431.1,111.4 354,63.1 		"/>
		<polygon fill="#9AD2AD" points="469.6,60.2 431.1,84.3 431.1,111.4 469.6,87.2 		"/>
		<polygon fill="#80C99B" points="392.5,11.9 469.6,60.2 431.1,84.3 354,36 		"/>
		<path fill="#76B78E" d="M423.1,68.6v4.2c0,2.4,3.6,4.3,7.9,4.3c4.4,0,7.9-1.9,7.9-4.3v-4.2c0,2.4-3.6,4.3-7.9,4.3
			C426.7,72.9,423.1,71,423.1,68.6z M403.9,56.6v4.2c0,2.4,3.6,4.3,7.9,4.3c4.4,0,7.9-1.9,7.9-4.3v-4.2c0,2.4-3.6,4.3-7.9,4.3
			C407.4,60.8,403.9,58.9,403.9,56.6z M423.1,44.5v4.2c0,2.4,3.6,4.3,7.9,4.3c4.4,0,7.9-1.9,7.9-4.3v-4.2c0,2.4-3.6,4.3-7.9,4.3
			C426.7,48.8,423.1,46.9,423.1,44.5z M442.4,56.6v4.2c0,2.4,3.6,4.3,7.9,4.3c4.4,0,7.9-1.9,7.9-4.3v-4.2c0,2.4-3.6,4.3-7.9,4.3
			C446,60.8,442.4,58.9,442.4,56.6z M365.3,32.4v4.2c0,2.4,3.6,4.3,7.9,4.3c4.4,0,7.9-1.9,7.9-4.3v-4.2c0,2.4-3.6,4.3-7.9,4.3
			C368.9,36.7,365.3,34.8,365.3,32.4z M403.9,32.4v4.2c0,2.4,3.6,4.3,7.9,4.3c4.4,0,7.9-1.9,7.9-4.3v-4.2c0,2.4-3.6,4.3-7.9,4.3
			C407.4,36.7,403.9,34.8,403.9,32.4z M384.6,20.4v4.2c0,2.4,3.6,4.3,7.9,4.3c4.4,0,7.9-1.9,7.9-4.3v-4.2c0,2.4-3.6,4.3-7.9,4.3
			C388.1,24.6,384.6,22.7,384.6,20.4z M384.6,44.5v4.2c0,2.4,3.6,4.3,7.9,4.3c4.4,0,7.9-1.9,7.9-4.3v-4.2c0,2.4-3.6,4.3-7.9,4.3
			C388.1,48.8,384.6,46.9,384.6,44.5z"/>
		<path fill="#9AD2AD" d="M442.4,56.6c0,2.4,3.6,4.3,7.9,4.3c4.4,0,7.9-1.9,7.9-4.3c0-2.4-3.6-4.3-7.9-4.3
			C446,52.3,442.4,54.2,442.4,56.6z M423.1,44.5c0,2.4,3.6,4.3,7.9,4.3c4.4,0,7.9-1.9,7.9-4.3c0-2.4-3.6-4.3-7.9-4.3
			C426.7,40.2,423.1,42.1,423.1,44.5z M403.9,56.6c0,2.4,3.6,4.3,7.9,4.3c4.4,0,7.9-1.9,7.9-4.3c0-2.4-3.6-4.3-7.9-4.3
			C407.4,52.3,403.9,54.2,403.9,56.6z M423.1,68.6c0,2.4,3.6,4.3,7.9,4.3c4.4,0,7.9-1.9,7.9-4.3c0-2.4-3.6-4.3-7.9-4.3
			C426.7,64.4,423.1,66.3,423.1,68.6z M403.9,32.4c0,2.4,3.6,4.3,7.9,4.3c4.4,0,7.9-1.9,7.9-4.3c0-2.4-3.6-4.3-7.9-4.3
			C407.4,28.2,403.9,30.1,403.9,32.4z M365.3,32.4c0,2.4,3.6,4.3,7.9,4.3c4.4,0,7.9-1.9,7.9-4.3c0-2.4-3.6-4.3-7.9-4.3
			C368.9,28.2,365.3,30.1,365.3,32.4z M384.6,20.4c0,2.4,3.6,4.3,7.9,4.3c4.4,0,7.9-1.9,7.9-4.3c0-2.4-3.6-4.3-7.9-4.3
			C388.1,16.1,384.6,18,384.6,20.4z M384.6,44.5c0,2.4,3.6,4.3,7.9,4.3c4.4,0,7.9-1.9,7.9-4.3c0-2.4-3.6-4.3-7.9-4.3
			C388.1,40.2,384.6,42.1,384.6,44.5z"/>
	</g>
	<g>
		<polygon fill="#60C8DD" points="303.7,85.8 226.6,134 226.6,161.1 303.7,112.8 		"/>
		<polygon fill="#03ADC4" points="188,109.9 226.6,134 226.6,161.1 188,137 		"/>
		<polygon fill="#00BDD6" points="265.1,61.6 188,109.9 226.6,134 303.7,85.8 		"/>
		<path fill="#03ADC4" d="M226.6,122.6c-4.4,0-7.9-1.9-7.9-4.3v4.2c0,2.4,3.6,4.3,7.9,4.3c4.4,0,7.9-1.9,7.9-4.3v-4.2
			C234.5,120.7,231,122.6,226.6,122.6z M245.9,110.6c-4.4,0-7.9-1.9-7.9-4.3v4.2c0,2.4,3.6,4.3,7.9,4.3c4.4,0,7.9-1.9,7.9-4.3v-4.2
			C253.8,108.7,250.2,110.6,245.9,110.6z M226.6,98.5c-4.4,0-7.9-1.9-7.9-4.3v4.2c0,2.4,3.6,4.3,7.9,4.3c4.4,0,7.9-1.9,7.9-4.3v-4.2
			C234.5,96.6,231,98.5,226.6,98.5z M207.3,110.6c-4.4,0-7.9-1.9-7.9-4.3v4.2c0,2.4,3.6,4.3,7.9,4.3c4.4,0,7.9-1.9,7.9-4.3v-4.2
			C215.2,108.6,211.7,110.6,207.3,110.6z M284.4,86.4c-4.4,0-7.9-1.9-7.9-4.3v4.2c0,2.4,3.6,4.3,7.9,4.3c4.4,0,7.9-1.9,7.9-4.3v-4.2
			C292.3,84.5,288.8,86.4,284.4,86.4z M245.9,86.4c-4.4,0-7.9-1.9-7.9-4.3v4.2c0,2.4,3.6,4.3,7.9,4.3c4.4,0,7.9-1.9,7.9-4.3v-4.2
			C253.8,84.5,250.2,86.4,245.9,86.4z M265.1,74.4c-4.4,0-7.9-1.9-7.9-4.3v4.2c0,2.4,3.6,4.3,7.9,4.3c4.4,0,7.9-1.9,7.9-4.3v-4.2
			C273.1,72.5,269.5,74.4,265.1,74.4z M265.1,98.5c-4.4,0-7.9-1.9-7.9-4.3v4.2c0,2.4,3.6,4.3,7.9,4.3c4.4,0,7.9-1.9,7.9-4.3v-4.2
			C273.1,96.6,269.5,98.5,265.1,98.5z"/>
		<path fill="#60C8DD" d="M207.3,102c-4.4,0-7.9,1.9-7.9,4.3c0,2.4,3.6,4.3,7.9,4.3c4.4,0,7.9-1.9,7.9-4.3
			C215.2,103.9,211.7,102,207.3,102z M226.6,90c-4.4,0-7.9,1.9-7.9,4.3c0,2.4,3.6,4.3,7.9,4.3c4.4,0,7.9-1.9,7.9-4.3
			C234.5,91.9,231,90,226.6,90z M245.9,102c-4.4,0-7.9,1.9-7.9,4.3c0,2.4,3.6,4.3,7.9,4.3c4.4,0,7.9-1.9,7.9-4.3
			C253.8,103.9,250.2,102,245.9,102z M226.6,114.1c-4.4,0-7.9,1.9-7.9,4.3c0,2.4,3.6,4.3,7.9,4.3c4.4,0,7.9-1.9,7.9-4.3
			C234.5,116,231,114.1,226.6,114.1z M245.9,77.9c-4.4,0-7.9,1.9-7.9,4.3c0,2.4,3.6,4.3,7.9,4.3c4.4,0,7.9-1.9,7.9-4.3
			C253.8,79.8,250.2,77.9,245.9,77.9z M284.4,77.9c-4.4,0-7.9,1.9-7.9,4.3c0,2.4,3.6,4.3,7.9,4.3c4.4,0,7.9-1.9,7.9-4.3
			C292.3,79.8,288.8,77.9,284.4,77.9z M265.1,65.8c-4.4,0-7.9,1.9-7.9,4.3c0,2.4,3.6,4.3,7.9,4.3c4.4,0,7.9-1.9,7.9-4.3
			C273.1,67.7,269.5,65.8,265.1,65.8z M265.1,90c-4.4,0-7.9,1.9-7.9,4.3c0,2.4,3.6,4.3,7.9,4.3c4.4,0,7.9-1.9,7.9-4.3
			C273.1,91.9,269.5,90,265.1,90z"/>
	</g>
	<g>
		<polygon fill="#90278E" points="353.9,83.8 334.7,95.9 488.9,192.5 508.2,180.4 		"/>
		<polygon fill="#993F97" points="508.2,180.4 488.9,192.5 488.9,219.5 508.2,207.5 		"/>
		<polygon fill="#841F82" points="334.7,95.9 488.9,192.5 488.9,219.5 334.7,123 		"/>
		<path fill="#841F82" d="M442.4,152.7v4.2c0,2.4,3.6,4.3,7.9,4.3c4.4,0,7.9-1.9,7.9-4.3v-4.2c0,2.4-3.6,4.3-7.9,4.3
			C445.9,156.9,442.4,155,442.4,152.7z M461.7,164.7v4.2c0,2.4,3.6,4.3,7.9,4.3c4.4,0,7.9-1.9,7.9-4.3v-4.2c0,2.4-3.6,4.3-7.9,4.3
			C465.2,169,461.7,167.1,461.7,164.7z M423.1,140.6v4.2c0,2.4,3.6,4.3,7.9,4.3s7.9-1.9,7.9-4.3v-4.2c0,2.4-3.6,4.3-7.9,4.3
			S423.1,142.9,423.1,140.6z M480.9,176.8v4.2c0,2.4,3.6,4.3,7.9,4.3c4.4,0,7.9-1.9,7.9-4.3v-4.2c0,2.4-3.6,4.3-7.9,4.3
			C484.5,181.1,480.9,179.1,480.9,176.8z M346,92.3v4.2c0,2.4,3.6,4.3,7.9,4.3c4.4,0,7.9-1.9,7.9-4.3v-4.2c0,2.4-3.6,4.3-7.9,4.3
			C349.6,96.6,346,94.7,346,92.3z M403.8,128.5v4.2c0,2.4,3.6,4.3,7.9,4.3c4.4,0,7.9-1.9,7.9-4.3v-4.2c0,2.4-3.6,4.3-7.9,4.3
			C407.4,132.8,403.8,130.9,403.8,128.5z M365.3,104.4v4.2c0,2.4,3.6,4.3,7.9,4.3c4.4,0,7.9-1.9,7.9-4.3v-4.2c0,2.4-3.6,4.3-7.9,4.3
			C368.8,108.7,365.3,106.7,365.3,104.4z M384.6,116.4v4.2c0,2.4,3.6,4.3,7.9,4.3c4.4,0,7.9-1.9,7.9-4.3v-4.2c0,2.4-3.6,4.3-7.9,4.3
			C388.1,120.7,384.6,118.8,384.6,116.4z"/>
		<path fill="#993F97" d="M461.7,164.7c0,2.4,3.6,4.3,7.9,4.3c4.4,0,7.9-1.9,7.9-4.3c0-2.4-3.6-4.3-7.9-4.3
			C465.2,160.4,461.7,162.4,461.7,164.7z M442.4,152.7c0,2.4,3.6,4.3,7.9,4.3c4.4,0,7.9-1.9,7.9-4.3c0-2.4-3.6-4.3-7.9-4.3
			C445.9,148.4,442.4,150.3,442.4,152.7z M423.1,140.6c0,2.4,3.6,4.3,7.9,4.3s7.9-1.9,7.9-4.3c0-2.4-3.6-4.3-7.9-4.3
			S423.1,138.2,423.1,140.6z M480.9,176.8c0,2.4,3.6,4.3,7.9,4.3c4.4,0,7.9-1.9,7.9-4.3c0-2.4-3.6-4.3-7.9-4.3
			C484.5,172.5,480.9,174.4,480.9,176.8z M403.8,128.5c0,2.4,3.6,4.3,7.9,4.3c4.4,0,7.9-1.9,7.9-4.3c0-2.4-3.6-4.3-7.9-4.3
			C407.4,124.2,403.8,126.2,403.8,128.5z M346,92.3c0,2.4,3.6,4.3,7.9,4.3c4.4,0,7.9-1.9,7.9-4.3c0-2.4-3.6-4.3-7.9-4.3
			C349.6,88,346,90,346,92.3z M365.3,104.4c0,2.4,3.6,4.3,7.9,4.3c4.4,0,7.9-1.9,7.9-4.3c0-2.4-3.6-4.3-7.9-4.3
			C368.8,100.1,365.3,102,365.3,104.4z M384.6,116.4c0,2.4,3.6,4.3,7.9,4.3c4.4,0,7.9-1.9,7.9-4.3c0-2.4-3.6-4.3-7.9-4.3
			C388.1,112.2,384.6,114.1,384.6,116.4z"/>
	</g>
	<g>
		<polygon fill="#F37532" points="303.7,380.8 284.4,392.8 284.4,419.9 303.7,407.8 		"/>
		<polygon fill="#DB5C1E" points="207.3,344.6 284.4,392.8 284.4,419.9 207.3,371.6 		"/>
		<polygon fill="#F16522" points="226.6,332.5 207.3,344.6 284.4,392.8 303.7,380.8 		"/>
		<path fill="#DB5C1E" d="M257.2,365.1v4.2c0,2.4,3.6,4.3,7.9,4.3s7.9-1.9,7.9-4.3v-4.2c0,2.4-3.6,4.3-7.9,4.3
			S257.2,367.5,257.2,365.1z M276.5,377.2v4.2c0,2.4,3.6,4.3,7.9,4.3c4.4,0,7.9-1.9,7.9-4.3v-4.2c0,2.4-3.6,4.3-7.9,4.3
			C280,381.5,276.5,379.5,276.5,377.2z M218.6,341v4.2c0,2.4,3.6,4.3,7.9,4.3c4.4,0,7.9-1.9,7.9-4.3V341c0,2.4-3.6,4.3-7.9,4.3
			C222.2,345.2,218.6,343.3,218.6,341z M237.9,353v4.2c0,2.4,3.6,4.3,7.9,4.3c4.4,0,7.9-1.9,7.9-4.3V353c0,2.4-3.6,4.3-7.9,4.3
			C241.5,357.3,237.9,355.4,237.9,353z"/>
		<path fill="#F37532" d="M257.2,365.1c0,2.4,3.6,4.3,7.9,4.3s7.9-1.9,7.9-4.3c0-2.4-3.6-4.3-7.9-4.3S257.2,362.7,257.2,365.1z
			 M276.5,377.2c0,2.4,3.6,4.3,7.9,4.3c4.4,0,7.9-1.9,7.9-4.3c0-2.4-3.6-4.3-7.9-4.3C280,372.9,276.5,374.8,276.5,377.2z M218.6,341
			c0,2.4,3.6,4.3,7.9,4.3c4.4,0,7.9-1.9,7.9-4.3c0-2.4-3.6-4.3-7.9-4.3C222.2,336.7,218.6,338.6,218.6,341z M237.9,353
			c0,2.4,3.6,4.3,7.9,4.3c4.4,0,7.9-1.9,7.9-4.3c0-2.4-3.6-4.3-7.9-4.3C241.5,348.8,237.9,350.7,237.9,353z"/>
	</g>
	<g>
		<polygon fill="#C5C7C9" points="508.2,300.8 527.4,312.9 527.4,340 508.2,327.9 		"/>
		<polygon fill="#DBDCDD" points="566,288.8 527.4,312.9 527.4,340 566,315.8 		"/>
		<polygon fill="#D0D2D3" points="546.7,276.7 566,288.8 527.4,312.9 508.2,300.8 		"/>
		<path fill="#C5C7C9" d="M519.5,297.2v4.2c0,2.4,3.6,4.3,7.9,4.3c4.4,0,7.9-1.9,7.9-4.3v-4.2c0,2.4-3.6,4.3-7.9,4.3
			C523,301.5,519.5,299.6,519.5,297.2z M538.8,285.2v4.2c0,2.4,3.6,4.3,7.9,4.3c4.4,0,7.9-1.9,7.9-4.3v-4.2c0,2.4-3.6,4.3-7.9,4.3
			C542.3,289.4,538.8,287.5,538.8,285.2z"/>
		<path fill="#DBDCDD" d="M519.5,297.2c0,2.4,3.6,4.3,7.9,4.3c4.4,0,7.9-1.9,7.9-4.3c0-2.4-3.6-4.3-7.9-4.3
			C523,293,519.5,294.9,519.5,297.2z M538.8,285.2c0,2.4,3.6,4.3,7.9,4.3c4.4,0,7.9-1.9,7.9-4.3c0-2.4-3.6-4.3-7.9-4.3
			C542.3,280.9,538.8,282.8,538.8,285.2z"/>
	</g>
	<g>
		<polygon fill="#FDBE33" points="206,305 167.4,329.2 167.4,356.2 206,332.1 		"/>
		<polygon fill="#E5A812" points="128.9,305 167.4,329.2 167.4,356.2 128.9,332.1 		"/>
		<polygon fill="#FCB813" points="167.4,280.9 128.9,305 167.4,329.2 206,305 		"/>
		<path fill="#E5A812" d="M167.4,317.8c-4.4,0-7.9-1.9-7.9-4.3v4.2c0,2.4,3.6,4.3,7.9,4.3c4.4,0,7.9-1.9,7.9-4.3v-4.2
			C175.4,315.9,171.8,317.8,167.4,317.8z M148.1,305.7c-4.4,0-7.9-1.9-7.9-4.3v4.2c0,2.4,3.6,4.3,7.9,4.3c4.4,0,7.9-1.9,7.9-4.3
			v-4.2C156.1,303.8,152.5,305.7,148.1,305.7z M186.7,305.7c-4.4,0-7.9-1.9-7.9-4.3v4.2c0,2.4,3.6,4.3,7.9,4.3
			c4.4,0,7.9-1.9,7.9-4.3v-4.2C194.6,303.8,191.1,305.7,186.7,305.7z M167.4,293.6c-4.4,0-7.9-1.9-7.9-4.3v4.2
			c0,2.4,3.6,4.3,7.9,4.3c4.4,0,7.9-1.9,7.9-4.3v-4.2C175.4,291.7,171.8,293.6,167.4,293.6z"/>
		<path fill="#FDBE33" d="M167.4,309.2c-4.4,0-7.9,1.9-7.9,4.3c0,2.4,3.6,4.3,7.9,4.3c4.4,0,7.9-1.9,7.9-4.3
			C175.4,311.1,171.8,309.2,167.4,309.2z M148.1,297.2c-4.4,0-7.9,1.9-7.9,4.3c0,2.4,3.6,4.3,7.9,4.3c4.4,0,7.9-1.9,7.9-4.3
			C156.1,299.1,152.5,297.2,148.1,297.2z M167.4,285.1c-4.4,0-7.9,1.9-7.9,4.3c0,2.4,3.6,4.3,7.9,4.3c4.4,0,7.9-1.9,7.9-4.3
			C175.4,287,171.8,285.1,167.4,285.1z M186.7,297.2c-4.4,0-7.9,1.9-7.9,4.3c0,2.4,3.6,4.3,7.9,4.3c4.4,0,7.9-1.9,7.9-4.3
			C194.6,299.1,191.1,297.2,186.7,297.2z"/>
	</g>
	<g>
		<g>
			<polygon fill="#626366" points="180.5,144.2 161.2,156.2 161.2,183.3 180.5,171.2 			"/>
			<polygon fill="#404041" points="141.9,144.2 161.2,156.2 161.2,183.3 141.9,171.2 			"/>
			<polygon fill="#58595B" points="161.2,132.1 141.9,144.2 161.2,156.2 180.5,144.2 			"/>
		</g>
		<g>
			<path fill="#404041" d="M169.1,144.7c0,2.4-3.6,4.3-7.9,4.3c-4.4,0-7.9-1.9-7.9-4.3v-4.2c0,2.4,3.6,4.3,7.9,4.3
				c4.4,0,7.9-1.9,7.9-4.3V144.7z"/>
			<ellipse fill="#626366" cx="161.2" cy="140.6" rx="7.9" ry="4.3"/>
		</g>
	</g>
	<g>
		<g>
			<polygon fill="#76B78E" points="683.9,318.2 761,366.5 761,393.5 683.9,345.3 			"/>
			<polygon fill="#9AD2AD" points="799.6,342.3 761,366.5 761,393.5 799.6,369.4 			"/>
			<polygon fill="#80C99B" points="722.5,294.1 799.6,342.3 761,366.5 683.9,318.2 			"/>
			<path fill="#76B78E" d="M753.1,350.8v4.2c0,2.4,3.6,4.3,7.9,4.3c4.4,0,7.9-1.9,7.9-4.3v-4.2c0,2.4-3.6,4.3-7.9,4.3
				C756.6,355.1,753.1,353.1,753.1,350.8z M733.8,338.7v4.2c0,2.4,3.6,4.3,7.9,4.3c4.4,0,7.9-1.9,7.9-4.3v-4.2
				c0,2.4-3.6,4.3-7.9,4.3C737.4,343,733.8,341.1,733.8,338.7z M753.1,326.7v4.2c0,2.4,3.6,4.3,7.9,4.3c4.4,0,7.9-1.9,7.9-4.3v-4.2
				c0,2.4-3.6,4.3-7.9,4.3C756.6,330.9,753.1,329,753.1,326.7z M772.4,338.7v4.2c0,2.4,3.6,4.3,7.9,4.3c4.4,0,7.9-1.9,7.9-4.3v-4.2
				c0,2.4-3.6,4.3-7.9,4.3C775.9,343,772.4,341.1,772.4,338.7z M695.3,314.6v4.2c0,2.4,3.6,4.3,7.9,4.3c4.4,0,7.9-1.9,7.9-4.3v-4.2
				c0,2.4-3.6,4.3-7.9,4.3C698.8,318.9,695.3,317,695.3,314.6z M733.8,314.6v4.2c0,2.4,3.6,4.3,7.9,4.3c4.4,0,7.9-1.9,7.9-4.3v-4.2
				c0,2.4-3.6,4.3-7.9,4.3C737.4,318.9,733.8,317,733.8,314.6z M714.5,302.5v4.2c0,2.4,3.6,4.3,7.9,4.3c4.4,0,7.9-1.9,7.9-4.3v-4.2
				c0,2.4-3.6,4.3-7.9,4.3C718.1,306.8,714.5,304.9,714.5,302.5z M714.5,326.7v4.2c0,2.4,3.6,4.3,7.9,4.3c4.4,0,7.9-1.9,7.9-4.3
				v-4.2c0,2.4-3.6,4.3-7.9,4.3C718.1,330.9,714.5,329,714.5,326.7z"/>
			<path fill="#9AD2AD" d="M772.4,338.7c0,2.4,3.6,4.3,7.9,4.3c4.4,0,7.9-1.9,7.9-4.3c0-2.4-3.6-4.3-7.9-4.3
				C775.9,334.4,772.4,336.4,772.4,338.7z M753.1,326.7c0,2.4,3.6,4.3,7.9,4.3c4.4,0,7.9-1.9,7.9-4.3c0-2.4-3.6-4.3-7.9-4.3
				C756.6,322.4,753.1,324.3,753.1,326.7z M733.8,338.7c0,2.4,3.6,4.3,7.9,4.3c4.4,0,7.9-1.9,7.9-4.3c0-2.4-3.6-4.3-7.9-4.3
				C737.4,334.5,733.8,336.4,733.8,338.7z M753.1,350.8c0,2.4,3.6,4.3,7.9,4.3c4.4,0,7.9-1.9,7.9-4.3c0-2.4-3.6-4.3-7.9-4.3
				C756.6,346.5,753.1,348.4,753.1,350.8z M733.8,314.6c0,2.4,3.6,4.3,7.9,4.3c4.4,0,7.9-1.9,7.9-4.3c0-2.4-3.6-4.3-7.9-4.3
				C737.4,310.3,733.8,312.2,733.8,314.6z M695.3,314.6c0,2.4,3.6,4.3,7.9,4.3c4.4,0,7.9-1.9,7.9-4.3c0-2.4-3.6-4.3-7.9-4.3
				C698.8,310.3,695.3,312.2,695.3,314.6z M714.5,302.5c0,2.4,3.6,4.3,7.9,4.3c4.4,0,7.9-1.9,7.9-4.3c0-2.4-3.6-4.3-7.9-4.3
				C718.1,298.3,714.5,300.2,714.5,302.5z M714.5,326.7c0,2.4,3.6,4.3,7.9,4.3c4.4,0,7.9-1.9,7.9-4.3c0-2.4-3.6-4.3-7.9-4.3
				C718.1,322.4,714.5,324.3,714.5,326.7z"/>
		</g>
		<g>
			<polygon fill="#FDBE33" points="761,291.1 722.5,315.2 722.5,342.3 761,318.2 			"/>
			<polygon fill="#E5A812" points="683.9,291.1 722.5,315.2 722.5,342.3 683.9,318.2 			"/>
			<polygon fill="#FCB813" points="722.5,267 683.9,291.1 722.5,315.2 761,291.1 			"/>
			<path fill="#E5A812" d="M722.5,303.8c-4.4,0-7.9-1.9-7.9-4.3v4.2c0,2.4,3.6,4.3,7.9,4.3c4.4,0,7.9-1.9,7.9-4.3v-4.2
				C730.4,301.9,726.9,303.8,722.5,303.8z M703.2,291.8c-4.4,0-7.9-1.9-7.9-4.3v4.2c0,2.4,3.6,4.3,7.9,4.3c4.4,0,7.9-1.9,7.9-4.3
				v-4.2C711.1,289.9,707.6,291.8,703.2,291.8z M741.7,291.8c-4.4,0-7.9-1.9-7.9-4.3v4.2c0,2.4,3.6,4.3,7.9,4.3
				c4.4,0,7.9-1.9,7.9-4.3v-4.2C749.7,289.9,746.1,291.8,741.7,291.8z M722.5,279.7c-4.4,0-7.9-1.9-7.9-4.3v4.2
				c0,2.4,3.6,4.3,7.9,4.3c4.4,0,7.9-1.9,7.9-4.3v-4.2C730.4,277.8,726.9,279.7,722.5,279.7z"/>
			<path fill="#FDBE33" d="M722.5,295.3c-4.4,0-7.9,1.9-7.9,4.3c0,2.4,3.6,4.3,7.9,4.3c4.4,0,7.9-1.9,7.9-4.3
				C730.4,297.2,726.9,295.3,722.5,295.3z M703.2,283.2c-4.4,0-7.9,1.9-7.9,4.3c0,2.4,3.6,4.3,7.9,4.3c4.4,0,7.9-1.9,7.9-4.3
				C711.1,285.1,707.6,283.2,703.2,283.2z M722.5,271.2c-4.4,0-7.9,1.9-7.9,4.3c0,2.4,3.6,4.3,7.9,4.3c4.4,0,7.9-1.9,7.9-4.3
				C730.4,273.1,726.9,271.2,722.5,271.2z M741.7,283.2c-4.4,0-7.9,1.9-7.9,4.3c0,2.4,3.6,4.3,7.9,4.3c4.4,0,7.9-1.9,7.9-4.3
				C749.7,285.2,746.1,283.2,741.7,283.2z"/>
		</g>
		<g>
			<polygon fill="#60C8DD" points="761,263.9 683.9,312.2 683.9,339.2 761,291 			"/>
			<polygon fill="#03ADC4" points="645.4,288 683.9,312.2 683.9,339.2 645.4,315.1 			"/>
			<polygon fill="#00BDD6" points="722.5,239.8 645.4,288 683.9,312.2 761,263.9 			"/>
			<path fill="#03ADC4" d="M683.9,300.8c-4.4,0-7.9-1.9-7.9-4.3v4.2c0,2.4,3.6,4.3,7.9,4.3c4.4,0,7.9-1.9,7.9-4.3v-4.2
				C691.9,298.9,688.3,300.8,683.9,300.8z M703.2,288.7c-4.4,0-7.9-1.9-7.9-4.3v4.2c0,2.4,3.6,4.3,7.9,4.3c4.4,0,7.9-1.9,7.9-4.3
				v-4.2C711.1,286.8,707.6,288.7,703.2,288.7z M683.9,276.7c-4.4,0-7.9-1.9-7.9-4.3v4.2c0,2.4,3.6,4.3,7.9,4.3
				c4.4,0,7.9-1.9,7.9-4.3v-4.2C691.9,274.7,688.3,276.7,683.9,276.7z M664.6,288.7c-4.4,0-7.9-1.9-7.9-4.3v4.2
				c0,2.4,3.6,4.3,7.9,4.3c4.4,0,7.9-1.9,7.9-4.3v-4.2C672.6,286.8,669,288.7,664.6,288.7z M741.7,264.6c-4.4,0-7.9-1.9-7.9-4.3v4.2
				c0,2.4,3.6,4.3,7.9,4.3c4.4,0,7.9-1.9,7.9-4.3v-4.2C749.7,262.7,746.1,264.6,741.7,264.6z M703.2,264.6c-4.4,0-7.9-1.9-7.9-4.3
				v4.2c0,2.4,3.6,4.3,7.9,4.3c4.4,0,7.9-1.9,7.9-4.3v-4.2C711.1,262.7,707.6,264.6,703.2,264.6z M722.5,252.5
				c-4.4,0-7.9-1.9-7.9-4.3v4.2c0,2.4,3.6,4.3,7.9,4.3c4.4,0,7.9-1.9,7.9-4.3v-4.2C730.4,250.6,726.9,252.5,722.5,252.5z
				 M722.5,276.7c-4.4,0-7.9-1.9-7.9-4.3v4.2c0,2.4,3.6,4.3,7.9,4.3c4.4,0,7.9-1.9,7.9-4.3v-4.2
				C730.4,274.7,726.9,276.7,722.5,276.7z"/>
			<path fill="#60C8DD" d="M664.6,280.2c-4.4,0-7.9,1.9-7.9,4.3c0,2.4,3.6,4.3,7.9,4.3c4.4,0,7.9-1.9,7.9-4.3
				C672.6,282.1,669,280.2,664.6,280.2z M683.9,268.1c-4.4,0-7.9,1.9-7.9,4.3c0,2.4,3.6,4.3,7.9,4.3c4.4,0,7.9-1.9,7.9-4.3
				C691.9,270,688.3,268.1,683.9,268.1z M703.2,280.2c-4.4,0-7.9,1.9-7.9,4.3c0,2.4,3.6,4.3,7.9,4.3c4.4,0,7.9-1.9,7.9-4.3
				C711.1,282.1,707.6,280.2,703.2,280.2z M683.9,292.2c-4.4,0-7.9,1.9-7.9,4.3c0,2.4,3.6,4.3,7.9,4.3c4.4,0,7.9-1.9,7.9-4.3
				C691.9,294.1,688.3,292.2,683.9,292.2z M703.2,256c-4.4,0-7.9,1.9-7.9,4.3c0,2.4,3.6,4.3,7.9,4.3c4.4,0,7.9-1.9,7.9-4.3
				C711.1,258,707.6,256,703.2,256z M741.7,256c-4.4,0-7.9,1.9-7.9,4.3c0,2.4,3.6,4.3,7.9,4.3c4.4,0,7.9-1.9,7.9-4.3
				C749.7,258,746.1,256,741.7,256z M722.5,244c-4.4,0-7.9,1.9-7.9,4.3c0,2.4,3.6,4.3,7.9,4.3c4.4,0,7.9-1.9,7.9-4.3
				C730.4,245.9,726.9,244,722.5,244z M722.5,268.1c-4.4,0-7.9,1.9-7.9,4.3c0,2.4,3.6,4.3,7.9,4.3c4.4,0,7.9-1.9,7.9-4.3
				C730.4,270,726.9,268.1,722.5,268.1z"/>
		</g>
		<g>
			<polygon fill="#FDBE33" points="761,236.8 722.5,260.9 722.5,288 761,263.9 			"/>
			<polygon fill="#E5A812" points="683.9,236.8 722.5,260.9 722.5,288 683.9,263.9 			"/>
			<polygon fill="#FCB813" points="722.5,212.7 683.9,236.8 722.5,260.9 761,236.8 			"/>
			<path fill="#E5A812" d="M722.5,249.5c-4.4,0-7.9-1.9-7.9-4.3v4.2c0,2.4,3.6,4.3,7.9,4.3c4.4,0,7.9-1.9,7.9-4.3v-4.2
				C730.4,247.6,726.9,249.5,722.5,249.5z M703.2,237.5c-4.4,0-7.9-1.9-7.9-4.3v4.2c0,2.4,3.6,4.3,7.9,4.3c4.4,0,7.9-1.9,7.9-4.3
				v-4.2C711.1,235.6,707.6,237.5,703.2,237.5z M741.7,237.5c-4.4,0-7.9-1.9-7.9-4.3v4.2c0,2.4,3.6,4.3,7.9,4.3
				c4.4,0,7.9-1.9,7.9-4.3v-4.2C749.7,235.6,746.1,237.5,741.7,237.5z M722.5,225.4c-4.4,0-7.9-1.9-7.9-4.3v4.2
				c0,2.4,3.6,4.3,7.9,4.3c4.4,0,7.9-1.9,7.9-4.3v-4.2C730.4,223.5,726.9,225.4,722.5,225.4z"/>
			<path fill="#FDBE33" d="M722.5,241c-4.4,0-7.9,1.9-7.9,4.3c0,2.4,3.6,4.3,7.9,4.3c4.4,0,7.9-1.9,7.9-4.3
				C730.4,242.9,726.9,241,722.5,241z M703.2,228.9c-4.4,0-7.9,1.9-7.9,4.3c0,2.4,3.6,4.3,7.9,4.3c4.4,0,7.9-1.9,7.9-4.3
				C711.1,230.8,707.6,228.9,703.2,228.9z M722.5,216.9c-4.4,0-7.9,1.9-7.9,4.3c0,2.4,3.6,4.3,7.9,4.3c4.4,0,7.9-1.9,7.9-4.3
				C730.4,218.8,726.9,216.9,722.5,216.9z M741.7,228.9c-4.4,0-7.9,1.9-7.9,4.3c0,2.4,3.6,4.3,7.9,4.3c4.4,0,7.9-1.9,7.9-4.3
				C749.7,230.8,746.1,228.9,741.7,228.9z"/>
		</g>
		<g>
			<polygon fill="#76B78E" points="645.4,185.6 722.5,233.9 722.5,260.9 645.4,212.7 			"/>
			<polygon fill="#9AD2AD" points="761,209.7 722.5,233.9 722.5,260.9 761,236.8 			"/>
			<polygon fill="#80C99B" points="683.9,161.5 761,209.7 722.5,233.9 645.4,185.6 			"/>
			<path fill="#76B78E" d="M714.5,218.2v4.2c0,2.4,3.6,4.3,7.9,4.3c4.4,0,7.9-1.9,7.9-4.3v-4.2c0,2.4-3.6,4.3-7.9,4.3
				C718.1,222.5,714.5,220.6,714.5,218.2z M695.3,206.1v4.2c0,2.4,3.6,4.3,7.9,4.3c4.4,0,7.9-1.9,7.9-4.3v-4.2
				c0,2.4-3.6,4.3-7.9,4.3C698.8,210.4,695.3,208.5,695.3,206.1z M714.5,194.1v4.2c0,2.4,3.6,4.3,7.9,4.3c4.4,0,7.9-1.9,7.9-4.3
				v-4.2c0,2.4-3.6,4.3-7.9,4.3C718.1,198.3,714.5,196.4,714.5,194.1z M733.8,206.1v4.2c0,2.4,3.6,4.3,7.9,4.3
				c4.4,0,7.9-1.9,7.9-4.3v-4.2c0,2.4-3.6,4.3-7.9,4.3C737.4,210.4,733.8,208.5,733.8,206.1z M656.7,182v4.2c0,2.4,3.6,4.3,7.9,4.3
				c4.4,0,7.9-1.9,7.9-4.3V182c0,2.4-3.6,4.3-7.9,4.3C660.3,186.3,656.7,184.4,656.7,182z M695.3,182v4.2c0,2.4,3.6,4.3,7.9,4.3
				c4.4,0,7.9-1.9,7.9-4.3V182c0,2.4-3.6,4.3-7.9,4.3C698.8,186.3,695.3,184.4,695.3,182z M676,169.9v4.2c0,2.4,3.6,4.3,7.9,4.3
				c4.4,0,7.9-1.9,7.9-4.3v-4.2c0,2.4-3.6,4.3-7.9,4.3C679.5,174.2,676,172.3,676,169.9z M676,194.1v4.2c0,2.4,3.6,4.3,7.9,4.3
				c4.4,0,7.9-1.9,7.9-4.3v-4.2c0,2.4-3.6,4.3-7.9,4.3C679.5,198.3,676,196.4,676,194.1z"/>
			<path fill="#9AD2AD" d="M733.8,206.1c0,2.4,3.6,4.3,7.9,4.3c4.4,0,7.9-1.9,7.9-4.3c0-2.4-3.6-4.3-7.9-4.3
				C737.4,201.9,733.8,203.8,733.8,206.1z M714.5,194.1c0,2.4,3.6,4.3,7.9,4.3c4.4,0,7.9-1.9,7.9-4.3c0-2.4-3.6-4.3-7.9-4.3
				C718.1,189.8,714.5,191.7,714.5,194.1z M695.3,206.1c0,2.4,3.6,4.3,7.9,4.3c4.4,0,7.9-1.9,7.9-4.3c0-2.4-3.6-4.3-7.9-4.3
				C698.8,201.9,695.3,203.8,695.3,206.1z M714.5,218.2c0,2.4,3.6,4.3,7.9,4.3c4.4,0,7.9-1.9,7.9-4.3c0-2.4-3.6-4.3-7.9-4.3
				C718.1,213.9,714.5,215.8,714.5,218.2z M695.3,182c0,2.4,3.6,4.3,7.9,4.3c4.4,0,7.9-1.9,7.9-4.3c0-2.4-3.6-4.3-7.9-4.3
				C698.8,177.7,695.3,179.6,695.3,182z M656.7,182c0,2.4,3.6,4.3,7.9,4.3c4.4,0,7.9-1.9,7.9-4.3c0-2.4-3.6-4.3-7.9-4.3
				C660.3,177.7,656.7,179.6,656.7,182z M676,169.9c0,2.4,3.6,4.3,7.9,4.3c4.4,0,7.9-1.9,7.9-4.3c0-2.4-3.6-4.3-7.9-4.3
				C679.5,165.7,676,167.6,676,169.9z M676,194.1c0,2.4,3.6,4.3,7.9,4.3c4.4,0,7.9-1.9,7.9-4.3c0-2.4-3.6-4.3-7.9-4.3
				C679.5,189.8,676,191.7,676,194.1z"/>
		</g>
		<g>
			<polygon fill="#FDBE33" points="761,182.7 722.5,206.8 722.5,233.9 761,209.7 			"/>
			<polygon fill="#E5A812" points="683.9,182.7 722.5,206.8 722.5,233.9 683.9,209.7 			"/>
			<polygon fill="#FCB813" points="722.5,158.5 683.9,182.7 722.5,206.8 761,182.7 			"/>
			<path fill="#E5A812" d="M722.5,195.4c-4.4,0-7.9-1.9-7.9-4.3v4.2c0,2.4,3.6,4.3,7.9,4.3c4.4,0,7.9-1.9,7.9-4.3v-4.2
				C730.4,193.5,726.9,195.4,722.5,195.4z M703.2,183.3c-4.4,0-7.9-1.9-7.9-4.3v4.2c0,2.4,3.6,4.3,7.9,4.3c4.4,0,7.9-1.9,7.9-4.3
				v-4.2C711.1,181.4,707.6,183.3,703.2,183.3z M741.7,183.4c-4.4,0-7.9-1.9-7.9-4.3v4.2c0,2.4,3.6,4.3,7.9,4.3
				c4.4,0,7.9-1.9,7.9-4.3v-4.2C749.7,181.4,746.1,183.4,741.7,183.4z M722.5,171.3c-4.4,0-7.9-1.9-7.9-4.3v4.2
				c0,2.4,3.6,4.3,7.9,4.3c4.4,0,7.9-1.9,7.9-4.3V167C730.4,169.4,726.9,171.3,722.5,171.3z"/>
			<path fill="#FDBE33" d="M722.5,186.9c-4.4,0-7.9,1.9-7.9,4.3c0,2.4,3.6,4.3,7.9,4.3c4.4,0,7.9-1.9,7.9-4.3
				C730.4,188.8,726.9,186.9,722.5,186.9z M703.2,174.8c-4.4,0-7.9,1.9-7.9,4.3c0,2.4,3.6,4.3,7.9,4.3c4.4,0,7.9-1.9,7.9-4.3
				C711.1,176.7,707.6,174.8,703.2,174.8z M722.5,162.7c-4.4,0-7.9,1.9-7.9,4.3c0,2.4,3.6,4.3,7.9,4.3c4.4,0,7.9-1.9,7.9-4.3
				C730.4,164.7,726.9,162.7,722.5,162.7z M741.7,174.8c-4.4,0-7.9,1.9-7.9,4.3c0,2.4,3.6,4.3,7.9,4.3c4.4,0,7.9-1.9,7.9-4.3
				C749.7,176.7,746.1,174.8,741.7,174.8z"/>
		</g>
		<g>
			<polygon fill="#9F7D56" points="761,155.7 741.7,167.7 741.7,194.8 761,182.7 			"/>
			<polygon fill="#876840" points="703.2,143.6 741.7,167.7 741.7,194.8 703.2,170.7 			"/>
			<polygon fill="#967348" points="722.5,131.5 703.2,143.6 741.7,167.7 761,155.7 			"/>
			<path fill="#876840" d="M741.7,156.3c-4.4,0-7.9-1.9-7.9-4.3v4.2c0,2.4,3.6,4.3,7.9,4.3c4.4,0,7.9-1.9,7.9-4.3v-4.2
				C749.7,154.4,746.1,156.3,741.7,156.3z M722.5,144.3c-4.4,0-7.9-1.9-7.9-4.3v4.2c0,2.4,3.6,4.3,7.9,4.3c4.4,0,7.9-1.9,7.9-4.3
				V140C730.4,142.4,726.9,144.3,722.5,144.3z"/>
			<path fill="#9F7D56" d="M741.7,147.8c-4.4,0-7.9,1.9-7.9,4.3c0,2.4,3.6,4.3,7.9,4.3c4.4,0,7.9-1.9,7.9-4.3
				C749.7,149.7,746.1,147.8,741.7,147.8z M722.5,135.7c-4.4,0-7.9,1.9-7.9,4.3c0,2.4,3.6,4.3,7.9,4.3c4.4,0,7.9-1.9,7.9-4.3
				C730.4,137.6,726.9,135.7,722.5,135.7z"/>
		</g>
		<g>
			<g>
				<polygon fill="#626366" points="741.7,116.5 722.5,128.6 722.5,155.7 741.7,143.6 				"/>
				<polygon fill="#404041" points="703.2,116.5 722.5,128.6 722.5,155.7 703.2,143.6 				"/>
				<polygon fill="#58595B" points="722.5,104.5 703.2,116.5 722.5,128.6 741.7,116.5 				"/>
			</g>
			<g>
				<path fill="#404041" d="M730.4,117.1c0,2.4-3.6,4.3-7.9,4.3s-7.9-1.9-7.9-4.3v-4.2c0,2.4,3.6,4.3,7.9,4.3s7.9-1.9,7.9-4.3V117.1
					z"/>
				<ellipse fill="#626366" cx="722.5" cy="112.9" rx="7.9" ry="4.3"/>
			</g>
		</g>
	</g>
	<g>
		<path d="M257.4,455.9c1-0.2,2.4-0.3,4-0.3c2.2,0,3.6,0.4,4.6,1.2c0.9,0.6,1.4,1.6,1.4,3c0,1.6-1.1,3-2.8,3.7v0
			c1.6,0.4,3.5,1.7,3.5,4.2c0,1.4-0.6,2.5-1.4,3.4c-1.2,1.1-3.1,1.6-5.8,1.6c-1.5,0-2.6-0.1-3.4-0.2V455.9z M259.6,462.8h2
			c2.3,0,3.6-1.2,3.6-2.8c0-2-1.5-2.8-3.7-2.8c-1,0-1.6,0.1-1.9,0.2V462.8z M259.6,470.9c0.4,0.1,1,0.1,1.8,0.1
			c2.2,0,4.3-0.8,4.3-3.3c0-2.3-2-3.2-4.3-3.2h-1.8V470.9z"/>
		<path d="M281,469.3c0,1.2,0,2.3,0.1,3.3h-1.9l-0.1-2h0c-0.6,1-1.8,2.2-4,2.2c-1.9,0-4.2-1-4.2-5.3v-7.1h2.2v6.7
			c0,2.3,0.7,3.8,2.7,3.8c1.5,0,2.5-1,2.9-2c0.1-0.3,0.2-0.7,0.2-1.1v-7.4h2.2V469.3z"/>
		<path d="M287.1,457.1c0,0.7-0.5,1.3-1.4,1.3c-0.8,0-1.3-0.6-1.3-1.3c0-0.8,0.6-1.4,1.4-1.4C286.6,455.7,287.1,456.3,287.1,457.1z
			 M284.6,472.6v-12.1h2.2v12.1H284.6z"/>
		<path d="M290.5,454.8h2.2v17.7h-2.2V454.8z"/>
		<path d="M306.8,454.8v14.6c0,1.1,0,2.3,0.1,3.1h-2l-0.1-2.1h-0.1c-0.7,1.3-2.1,2.4-4.1,2.4c-2.9,0-5.2-2.5-5.2-6.1
			c0-4,2.5-6.5,5.4-6.5c1.8,0,3.1,0.9,3.6,1.8h0v-7.2H306.8z M304.6,465.4c0-0.3,0-0.6-0.1-0.9c-0.3-1.4-1.5-2.5-3.2-2.5
			c-2.3,0-3.6,2-3.6,4.7c0,2.4,1.2,4.5,3.6,4.5c1.5,0,2.8-1,3.2-2.6c0.1-0.3,0.1-0.6,0.1-1V465.4z"/>
		<path d="M312.9,457.1c0,0.7-0.5,1.3-1.4,1.3c-0.8,0-1.3-0.6-1.3-1.3c0-0.8,0.6-1.4,1.4-1.4C312.4,455.7,312.9,456.3,312.9,457.1z
			 M310.5,472.6v-12.1h2.2v12.1H310.5z"/>
		<path d="M316.3,463.7c0-1.2,0-2.3-0.1-3.3h1.9l0.1,2h0c0.6-1.1,2-2.3,4-2.3c1.7,0,4.3,1,4.3,5.1v7.2h-2.2v-7
			c0-1.9-0.7-3.6-2.8-3.6c-1.4,0-2.6,1-2.9,2.2c-0.1,0.3-0.1,0.6-0.1,1v7.3h-2.2V463.7z"/>
		<path d="M340.6,460.5c0,0.9-0.1,1.8-0.1,3.3v7c0,2.8-0.5,4.5-1.7,5.5c-1.2,1.1-2.9,1.5-4.4,1.5c-1.4,0-3-0.3-4-1l0.5-1.7
			c0.8,0.5,2,1,3.5,1c2.2,0,3.9-1.2,3.9-4.2v-1.4h-0.1c-0.7,1.1-2,2-3.8,2c-3,0-5.1-2.5-5.1-5.9c0-4.1,2.7-6.4,5.4-6.4
			c2.1,0,3.2,1.1,3.8,2.1h0l0.1-1.8H340.6z M338.4,465.2c0-0.4,0-0.7-0.1-1c-0.4-1.3-1.5-2.3-3.1-2.3c-2.1,0-3.6,1.8-3.6,4.6
			c0,2.4,1.2,4.3,3.6,4.3c1.3,0,2.6-0.8,3-2.2c0.1-0.4,0.2-0.8,0.2-1.2V465.2z"/>
		<path d="M349.4,472.6c0-0.8,0.1-2,0.1-3.1v-14.6h2.2v7.6h0c0.8-1.3,2.2-2.2,4.1-2.2c3,0,5.1,2.5,5.1,6.2c0,4.3-2.7,6.5-5.4,6.5
			c-1.7,0-3.1-0.7-4-2.3h-0.1l-0.1,2H349.4z M351.7,467.7c0,0.3,0,0.5,0.1,0.8c0.4,1.5,1.7,2.6,3.3,2.6c2.3,0,3.7-1.9,3.7-4.6
			c0-2.4-1.2-4.5-3.6-4.5c-1.5,0-2.9,1-3.3,2.7c0,0.2-0.1,0.5-0.1,0.9V467.7z"/>
		<path d="M363.7,454.8h2.2v17.7h-2.2V454.8z"/>
		<path d="M380.6,466.4c0,4.5-3.1,6.4-6,6.4c-3.3,0-5.8-2.4-5.8-6.2c0-4,2.6-6.4,6-6.4C378.2,460.2,380.6,462.7,380.6,466.4z
			 M371,466.5c0,2.6,1.5,4.6,3.7,4.6c2.1,0,3.7-2,3.7-4.7c0-2-1-4.6-3.6-4.6S371,464.2,371,466.5z"/>
		<path d="M392,472.1c-0.6,0.3-1.8,0.7-3.5,0.7c-3.6,0-6-2.5-6-6.2c0-3.7,2.5-6.4,6.5-6.4c1.3,0,2.4,0.3,3,0.6l-0.5,1.7
			c-0.5-0.3-1.3-0.6-2.5-0.6c-2.8,0-4.3,2-4.3,4.6c0,2.8,1.8,4.5,4.2,4.5c1.2,0,2.1-0.3,2.7-0.6L392,472.1z"/>
		<path d="M396.7,466L396.7,466c0.3-0.4,0.8-0.9,1.1-1.4l3.5-4.2h2.6l-4.7,5l5.3,7.1H402l-4.2-5.8l-1.1,1.2v4.5h-2.2v-17.7h2.2V466z
			"/>
		<path d="M406,470.3c0.7,0.4,1.8,0.9,2.9,0.9c1.6,0,2.3-0.8,2.3-1.8c0-1-0.6-1.6-2.2-2.2c-2.2-0.8-3.2-2-3.2-3.4
			c0-1.9,1.6-3.5,4.2-3.5c1.2,0,2.3,0.3,3,0.8l-0.5,1.6c-0.5-0.3-1.3-0.7-2.5-0.7c-1.3,0-2,0.8-2,1.6c0,1,0.7,1.5,2.3,2
			c2.1,0.8,3.2,1.8,3.2,3.6c0,2.1-1.6,3.6-4.5,3.6c-1.3,0-2.5-0.3-3.4-0.8L406,470.3z"/>
	</g>
	<g>
		<path d="M658.3,455.9c1-0.2,2.4-0.3,4.2-0.3c2.1,0,3.7,0.5,4.7,1.4c0.9,0.8,1.5,2,1.5,3.5c0,1.5-0.5,2.7-1.3,3.6
			c-1.2,1.2-3,1.8-5.1,1.8c-0.7,0-1.2,0-1.8-0.1v6.7h-2.2V455.9z M660.4,464c0.5,0.1,1.1,0.2,1.8,0.2c2.6,0,4.2-1.3,4.2-3.6
			c0-2.2-1.6-3.3-4-3.3c-0.9,0-1.7,0.1-2,0.2V464z"/>
		<path d="M671.1,464.2c0-1.4,0-2.6-0.1-3.8h1.9l0.1,2.4h0.1c0.6-1.6,1.9-2.6,3.3-2.6c0.2,0,0.4,0,0.6,0.1v2.1
			c-0.2,0-0.4-0.1-0.8-0.1c-1.5,0-2.7,1.2-2.9,2.8c-0.1,0.3-0.1,0.6-0.1,1v6.4h-2.2V464.2z"/>
		<path d="M680.2,466.9c0.1,3,1.9,4.2,4.1,4.2c1.6,0,2.5-0.3,3.3-0.6l0.4,1.6c-0.8,0.4-2.1,0.8-4,0.8c-3.7,0-5.9-2.4-5.9-6.1
			c0-3.6,2.2-6.5,5.7-6.5c3.9,0,5,3.5,5,5.7c0,0.4,0,0.8-0.1,1H680.2z M686.7,465.3c0-1.4-0.6-3.6-3.1-3.6c-2.2,0-3.2,2-3.4,3.6
			H686.7z"/>
		<path d="M691.2,470.3c0.7,0.4,1.8,0.9,2.9,0.9c1.6,0,2.3-0.8,2.3-1.8c0-1-0.6-1.6-2.2-2.2c-2.2-0.8-3.2-2-3.2-3.4
			c0-2,1.6-3.5,4.2-3.5c1.2,0,2.3,0.4,3,0.8l-0.5,1.6c-0.5-0.3-1.3-0.7-2.5-0.7c-1.3,0-2,0.7-2,1.6c0,1,0.7,1.4,2.3,2
			c2.1,0.8,3.2,1.8,3.2,3.6c0,2.1-1.7,3.6-4.5,3.6c-1.3,0-2.6-0.3-3.4-0.8L691.2,470.3z"/>
		<path d="M702.7,466.9c0.1,3,2,4.2,4.2,4.2c1.6,0,2.5-0.3,3.3-0.6l0.4,1.6c-0.8,0.4-2.1,0.8-4,0.8c-3.7,0-5.9-2.4-5.9-6.1
			c0-3.6,2.1-6.5,5.7-6.5c3.9,0,5,3.5,5,5.7c0,0.4-0.1,0.8-0.1,1H702.7z M709.1,465.3c0-1.4-0.6-3.6-3-3.6c-2.2,0-3.2,2-3.4,3.6
			H709.1z"/>
		<path d="M714,463.7c0-1.2,0-2.3-0.1-3.3h1.9l0.1,2h0c0.6-1.1,2-2.3,4-2.3c1.7,0,4.3,1,4.3,5.1v7.2h-2.2v-7c0-2-0.7-3.6-2.8-3.6
			c-1.4,0-2.6,1-2.9,2.2c-0.1,0.3-0.2,0.7-0.2,1v7.3H714V463.7z"/>
		<path d="M730.4,457v3.5h3.2v1.7h-3.2v6.5c0,1.5,0.4,2.3,1.7,2.3c0.6,0,1-0.1,1.3-0.1l0.1,1.6c-0.4,0.2-1.1,0.3-1.9,0.3
			c-1,0-1.8-0.3-2.4-0.9c-0.6-0.6-0.8-1.7-0.8-3.1v-6.6h-1.9v-1.7h1.9v-2.9L730.4,457z"/>
		<path d="M742.7,472.6l-0.2-1.5h-0.1c-0.7,1-2,1.8-3.7,1.8c-2.4,0-3.7-1.7-3.7-3.5c0-2.9,2.6-4.5,7.3-4.5v-0.2c0-1-0.3-2.8-2.8-2.8
			c-1.1,0-2.3,0.3-3.1,0.9l-0.5-1.4c1-0.7,2.4-1.1,4-1.1c3.7,0,4.6,2.5,4.6,4.9v4.5c0,1,0.1,2.1,0.2,2.9H742.7z M742.4,466.4
			c-2.4-0.1-5.1,0.4-5.1,2.7c0,1.4,1,2.1,2.1,2.1c1.6,0,2.6-1,2.9-2c0.1-0.2,0.1-0.5,0.1-0.7V466.4z"/>
		<path d="M750.6,457v3.5h3.2v1.7h-3.2v6.5c0,1.5,0.4,2.3,1.7,2.3c0.6,0,1-0.1,1.3-0.1l0.1,1.6c-0.4,0.2-1.1,0.3-1.9,0.3
			c-1,0-1.8-0.3-2.4-0.9c-0.6-0.6-0.8-1.7-0.8-3.1v-6.6h-1.9v-1.7h1.9v-2.9L750.6,457z"/>
		<path d="M758.7,457.1c0,0.8-0.5,1.3-1.4,1.3c-0.8,0-1.3-0.6-1.3-1.3c0-0.8,0.6-1.4,1.4-1.4C758.2,455.7,758.7,456.3,758.7,457.1z
			 M756.2,472.6v-12.1h2.2v12.1H756.2z"/>
		<path d="M773,466.4c0,4.5-3.1,6.4-6,6.4c-3.3,0-5.8-2.4-5.8-6.2c0-4,2.6-6.4,6-6.4C770.7,460.2,773,462.7,773,466.4z M763.4,466.5
			c0,2.6,1.5,4.6,3.7,4.6c2.1,0,3.7-2,3.7-4.7c0-2-1-4.6-3.6-4.6S763.4,464.2,763.4,466.5z"/>
		<path d="M775.8,463.7c0-1.2,0-2.3-0.1-3.3h1.9l0.1,2h0c0.6-1.1,2-2.3,4-2.3c1.7,0,4.3,1,4.3,5.1v7.2h-2.2v-7c0-2-0.7-3.6-2.8-3.6
			c-1.4,0-2.6,1-2.9,2.2c-0.1,0.3-0.2,0.7-0.2,1v7.3h-2.2V463.7z"/>
	</g>
</g>
<g id="bookstoweb">
</g>
<g id="visualsengage">
</g>
</svg>
