<?xml version="1.0" encoding="utf-8"?>
<!-- Generator: Adobe Illustrator 17.1.0, SVG Export Plug-In . SVG Version: 6.00 Build 0)  -->
<!DOCTYPE svg PUBLIC "-//W3C//DTD SVG 1.1//EN" "http://www.w3.org/Graphics/SVG/1.1/DTD/svg11.dtd">
<svg version="1.1" id="Layer_1" xmlns="http://www.w3.org/2000/svg" xmlns:xlink="http://www.w3.org/1999/xlink" x="0px" y="0px"
	 viewBox="0 0 600 200" enable-background="new 0 0 600 200" xml:space="preserve">
<polygon points="223.9,38.8 188.5,38.8 188.5,161.2 191.5,161.2 191.5,62.1 223.9,62.1 "/>
<path d="M400.3,143.3h-31.4V121h31.4V143.3z M360.6,143.3h-40.5V121h40.5V143.3z M311.7,143.3h-31.4V121h31.4V143.3z M269.2,95
	h-12.4V83.9h12.4V95z M221,158.5V121h38l0,37.5H221z M209.1,95V83.9h12.4V95H209.1z M225,83.9h12.4V95H225V83.9z M240.9,83.9h12.4
	V95h-12.4V83.9z M277.1,100.5V75.6h3.2v-6.1l-84,0v6.1h5.2v85.6h75.6l132,0v-54.6h2.3v-6.1H277.1z"/>
</svg>
