<?xml version="1.0" encoding="utf-8"?>
<!-- Generator: Adobe Illustrator 17.1.0, SVG Export Plug-In . SVG Version: 6.00 Build 0)  -->
<!DOCTYPE svg PUBLIC "-//W3C//DTD SVG 1.1//EN" "http://www.w3.org/Graphics/SVG/1.1/DTD/svg11.dtd">
<svg version="1.1" id="Layer_1" xmlns="http://www.w3.org/2000/svg" xmlns:xlink="http://www.w3.org/1999/xlink" x="0px" y="0px"
	 viewBox="0 0 775 386.8" enable-background="new 0 0 775 386.8" xml:space="preserve">
<image overflow="visible" width="225" height="225" xlink:href="../rasters/amazonlogo.png"  transform="matrix(1 0 0 1 58 -27.2968)">
</image>
<path d="M117.7,172.5L78.1,191v-30.2l39.6-24.9V172.5z M117.7,219.1l-39.6,10v-29.9l39.6-16.4V219.1z M277.3,148.4L130,112.4
	l-59.8,39.3v167.5l40.8,10.3v-17.6l-32.9-5.6V276l32.9,0.3V276c0.3-3.5,1.2-6.7,2.3-9.7l-35.2,1.5v-30.2l39.6-8.2v28.5
	c2.9-4.1,6.5-7.3,10.9-10c5-2.9,10.3-4.7,16.1-5.3h0.3v-13.2l4.7,0.3c-7.3-5.9-11.7-14.7-11.7-24.6c0-7.6,2.6-14.4,6.7-19.9v-2.3
	h2.1c3.2-3.5,7.3-6.5,12-8.2l-14.1-2.1v-36.7l121.7,24.1V191L191,179.5c3.5,2.9,6.7,6.7,8.8,10.9l66.6,9.4v31.1l-69.2-6.5
	c-2.6,3.5-5.9,6.5-9.4,8.8l78.6,6.5v31.1l-37.3-1.5c0.9,2.9,1.5,5.9,1.5,9.1l35.8,0.9v31.1l-35.8,0.9v17.9l46.6-2.7L277.3,148.4z"/>
<path d="M228,278.1c0-3.2-0.6-6.2-1.5-9.1c-4.4-13.8-17.3-23.8-32.6-23.8l-46.3,0H145c-5.6,0.3-10.6,2.1-15,4.7
	c-5,2.9-9.4,7.3-12.3,12.6c-0.6,1.2-1.2,2.3-1.8,3.5c-1.5,3.2-2.1,6.5-2.6,10c0,0.9-0.3,2.1-0.3,2.9v50.8l16.4,4.1l98.3-5.3v-49.3
	C228,279,228,278.4,228,278.1L228,278.1z"/>
<path d="M201,205.1c0,16.7-13.5,30.2-30.2,30.2c-16.7,0-30.2-13.5-30.2-30.2c0-16.7,13.5-30.2,30.2-30.2
	C187.5,174.8,201,188.4,201,205.1"/>
<image overflow="visible" width="1096" height="635" xlink:href="../rasters/amazondevportalnosidebar.png"  transform="matrix(0.4161 0 0 0.4161 309 66.6233)">
</image>
</svg>
