<?xml version="1.0" encoding="utf-8"?>
<!-- Generator: Adobe Illustrator 17.1.0, SVG Export Plug-In . SVG Version: 6.00 Build 0)  -->
<!DOCTYPE svg PUBLIC "-//W3C//DTD SVG 1.1//EN" "http://www.w3.org/Graphics/SVG/1.1/DTD/svg11.dtd">
<svg version="1.1" id="Layer_1" xmlns="http://www.w3.org/2000/svg" xmlns:xlink="http://www.w3.org/1999/xlink" x="0px" y="0px"
	 viewBox="0 0 775 327" enable-background="new 0 0 775 327" xml:space="preserve">
<polygon points="242.6,174.3 289.3,195.5 187.8,241.7 86.4,195.5 133.1,174.3 187.8,199.2 "/>
<polygon points="133.1,124.4 187.8,149.3 242.6,124.4 289.3,145.7 187.8,191.9 86.4,145.7 "/>
<polygon points="187.8,49.6 289.3,95.8 187.8,142 86.4,95.8 "/>
<polygon points="245.8,223.3 292.5,244.5 191,290.8 89.5,244.5 136.2,223.3 191,248.2 "/>
<line fill="none" stroke="#000000" stroke-miterlimit="10" x1="260" y1="102.5" x2="361" y2="102.5"/>
<line fill="none" stroke="#000000" stroke-miterlimit="10" x1="260" y1="154.5" x2="426" y2="154.5"/>
<line fill="none" stroke="#000000" stroke-miterlimit="10" x1="227" y1="201.5" x2="481" y2="201.5"/>
<line fill="none" stroke="#000000" stroke-miterlimit="10" x1="250" y1="253.5" x2="547" y2="253.5"/>
<text transform="matrix(1 0 0 1 371.1471 110.1326)" font-family="'MyriadPro-Regular'" font-size="30">Doc portal homepage</text>
<text transform="matrix(1 0 0 1 434.8473 161.1031)" font-family="'MyriadPro-Regular'" font-size="30">Product homepage</text>
<text transform="matrix(1 0 0 1 492.9706 208.007)" font-family="'MyriadPro-Regular'" font-size="30">Section homepage</text>
<text transform="matrix(1 0 0 1 555.3823 259.0154)" font-family="'MyriadPro-Regular'" font-size="30">Page</text>
</svg>
