<?xml version="1.0" encoding="utf-8"?>
<!-- Generator: Adobe Illustrator 17.1.0, SVG Export Plug-In . SVG Version: 6.00 Build 0)  -->
<!DOCTYPE svg PUBLIC "-//W3C//DTD SVG 1.1//EN" "http://www.w3.org/Graphics/SVG/1.1/DTD/svg11.dtd">
<svg version="1.1" id="Layer_1" xmlns="http://www.w3.org/2000/svg" xmlns:xlink="http://www.w3.org/1999/xlink" x="0px" y="0px"
	 viewBox="0 0 600 200" enable-background="new 0 0 600 200" xml:space="preserve">
<path d="M294.2,29.3h-46.7v24.1h46.7V29.3z M239.8,54.2V28.4c0-3.7,2.7-6.5,6.1-6.5h50.1c3.4,0,6.1,2.9,6.1,6.5v25.8
	c0,3.7-2.7,6.5-6.1,6.5h-50.1C242.4,60.8,239.8,57.9,239.8,54.2z"/>
<path d="M371.9,161.8v-26.6c0-2.5-2.1-4.5-4.7-4.5h-45.1c-2.6,0-4.7,2-4.7,4.5v26.6"/>
<path d="M371.9,123V96.3c0-2.5-2.1-4.5-4.7-4.5h-45.1c-2.6,0-4.7,2-4.7,4.5V123"/>
<path d="M371.9,84.1V57.4c0-2.5-2.1-4.5-4.7-4.5h-45.1c-2.6,0-4.7,2-4.7,4.5v26.6"/>
<rect x="279.2" y="69.1" fill-rule="evenodd" clip-rule="evenodd" width="37.7" height="6.5"/>
<rect x="279.2" y="69.1" fill="none" stroke="#000000" stroke-width="1.1822" stroke-miterlimit="10" width="37.7" height="6.5"/>
<rect x="182.2" y="115.4" transform="matrix(0.4481 -0.894 0.894 0.4481 19.9625 269.1905)" fill-rule="evenodd" clip-rule="evenodd" width="91.5" height="6"/>
<rect x="182.2" y="115.4" transform="matrix(0.4481 -0.894 0.894 0.4481 19.9625 269.1905)" fill="none" stroke="#000000" stroke-width="1.772" stroke-miterlimit="10" width="91.5" height="6"/>
<rect x="279.2" y="108.1" fill-rule="evenodd" clip-rule="evenodd" width="37.7" height="6.5"/>
<rect x="279.2" y="108.1" fill="none" stroke="#000000" stroke-width="1.1822" stroke-miterlimit="10" width="37.7" height="6.5"/>
<rect x="279.2" y="147" fill-rule="evenodd" clip-rule="evenodd" width="37.7" height="6.5"/>
<rect x="279.2" y="147" fill="none" stroke="#000000" stroke-width="1.1822" stroke-miterlimit="10" width="37.7" height="6.5"/>
</svg>
