<?xml version="1.0" encoding="utf-8"?>
<!-- Generator: Adobe Illustrator 17.1.0, SVG Export Plug-In . SVG Version: 6.00 Build 0)  -->
<!DOCTYPE svg PUBLIC "-//W3C//DTD SVG 1.1//EN" "http://www.w3.org/Graphics/SVG/1.1/DTD/svg11.dtd">
<svg version="1.1" id="Layer_1" xmlns="http://www.w3.org/2000/svg" xmlns:xlink="http://www.w3.org/1999/xlink" x="0px" y="0px"
	 viewBox="0 0 600 200" enable-background="new 0 0 600 200" xml:space="preserve">
<path d="M299.3,96.3V72.7h56.3L367,84.5l-11.4,11.8L299.3,96.3L299.3,96.3z M295.5,176.8H282V46.4h13.5V176.8z M285.1,28.9h7.3
	c3.6,0,6.6,3,6.6,6.6c0,3.6-3,6.6-6.6,6.6h-7.3c-3.6,0-6.6-3-6.6-6.6C278.5,31.8,281.4,28.9,285.1,28.9z M278.2,116.1h-43.8
	l-11.4-11.8l11.4-11.8h43.8V116.1z M278.2,77.8h-58.3L208.5,66l11.4-11.8h58.3V77.8z M372.2,84.5L357.1,69h-57.9V43.4
	c2.2-1.9,3.7-4.8,3.7-8c0-5.8-4.7-10.5-10.5-10.5h-7.3c-5.8,0-10.5,4.7-10.5,10.5c0,3.2,1.4,6,3.7,8v7l-59.9,0L203.2,66l15.1,15.5
	h59.9v7.3l-45.5,0l-15.1,15.5l15.1,15.5h45.5v60.7h21V100h57.9L372.2,84.5z"/>
</svg>
