<?xml version="1.0" encoding="utf-8"?>
<!-- Generator: Adobe Illustrator 17.1.0, SVG Export Plug-In . SVG Version: 6.00 Build 0)  -->
<!DOCTYPE svg PUBLIC "-//W3C//DTD SVG 1.1//EN" "http://www.w3.org/Graphics/SVG/1.1/DTD/svg11.dtd">
<svg version="1.1" id="Layer_1" xmlns="http://www.w3.org/2000/svg" xmlns:xlink="http://www.w3.org/1999/xlink" x="0px" y="0px"
	 viewBox="0 0 775 445" enable-background="new 0 0 775 445" xml:space="preserve">
<path d="M382.5-2748.5l-0.4-5.3h-9.9l-0.3,5.3H382.5z M428.4-2748.5v-0.1V-2748.5z M326-2748.6v0.1V-2748.6z M381.1-2766.2l-7.7,0
	l-0.7,8.8h9.1L381.1-2766.2z M374.4-2778.5l-0.7,7.1h7.1l-0.7-7.1H374.4z M297.7-2907.5v159l51.4-32.5c-13.8-8.2-23.3-22.2-26-38
	c-2.6-15.9,1.8-32.1,12.2-44.4c10.4-12.3,25.7-19.4,41.8-19.4c16.1,0,31.4,7.1,41.8,19.4c10.4,12.3,14.9,28.5,12.2,44.4
	c-2.6,15.9-12.1,29.8-26,38l51.5,32.5v-159H297.7z M403.7-2784.1v-70.4h-53v70.4c-14.1-9-24.7-25.3-24.7-43.9
	c0-18.3,9.8-35.2,25.6-44.4c15.9-9.1,35.4-9.1,51.2,0c15.9,9.2,25.6,26.1,25.6,44.4C428.4-2809.4,417.8-2793.1,403.7-2784.1
	L403.7-2784.1z"/>
<path d="M1094.2-2898.7h-46.7v24.1h46.7V-2898.7z M1039.8-2873.8v-25.8c0-3.7,2.7-6.5,6.1-6.5h50.1c3.4,0,6.1,2.9,6.1,6.5v25.8
	c0,3.7-2.7,6.5-6.1,6.5h-50.1C1042.4-2867.2,1039.8-2870.1,1039.8-2873.8z"/>
<path d="M1171.9-2766.2v-26.6c0-2.5-2.1-4.5-4.7-4.5h-45.1c-2.6,0-4.7,2-4.7,4.5v26.6"/>
<path d="M1171.9-2805v-26.6c0-2.5-2.1-4.5-4.7-4.5h-45.1c-2.6,0-4.7,2-4.7,4.5v26.6"/>
<path d="M1171.9-2843.9v-26.6c0-2.5-2.1-4.5-4.7-4.5h-45.1c-2.6,0-4.7,2-4.7,4.5v26.6"/>
<rect x="1079.2" y="-2858.9" fill-rule="evenodd" clip-rule="evenodd" width="37.7" height="6.5"/>
<rect x="1079.2" y="-2858.9" fill="none" stroke="#000000" stroke-width="1.1822" stroke-miterlimit="10" width="37.7" height="6.5"/>
<rect x="982.2" y="-2812.6" transform="matrix(0.4481 -0.894 0.894 0.4481 3079.126 -631.6526)" fill-rule="evenodd" clip-rule="evenodd" width="91.5" height="6"/>
<rect x="982.2" y="-2812.6" transform="matrix(0.4481 -0.894 0.894 0.4481 3079.126 -631.6526)" fill="none" stroke="#000000" stroke-width="1.772" stroke-miterlimit="10" width="91.5" height="6"/>
<rect x="1079.2" y="-2819.9" fill-rule="evenodd" clip-rule="evenodd" width="37.7" height="6.5"/>
<rect x="1079.2" y="-2819.9" fill="none" stroke="#000000" stroke-width="1.1822" stroke-miterlimit="10" width="37.7" height="6.5"/>
<rect x="1079.2" y="-2781" fill-rule="evenodd" clip-rule="evenodd" width="37.7" height="6.5"/>
<rect x="1079.2" y="-2781" fill="none" stroke="#000000" stroke-width="1.1822" stroke-miterlimit="10" width="37.7" height="6.5"/>
<path d="M1109.3-2507.7v-23.6h56.3l11.4,11.8l-11.4,11.8L1109.3-2507.7L1109.3-2507.7z M1105.5-2427.2H1092v-130.4h13.5V-2427.2z
	 M1095.1-2575.1h7.3c3.6,0,6.6,3,6.6,6.6c0,3.6-3,6.6-6.6,6.6h-7.3c-3.6,0-6.6-3-6.6-6.6C1088.5-2572.2,1091.4-2575.1,1095.1-2575.1
	z M1088.2-2487.9h-43.8l-11.4-11.8l11.4-11.8h43.8V-2487.9z M1088.2-2526.2h-58.3l-11.4-11.8l11.4-11.8h58.3V-2526.2z
	 M1182.2-2519.5l-15.1-15.5h-57.9v-25.5c2.2-1.9,3.7-4.8,3.7-8c0-5.8-4.7-10.5-10.5-10.5h-7.3c-5.8,0-10.5,4.7-10.5,10.5
	c0,3.2,1.4,6,3.7,8v7l-59.9,0l-15.1,15.5l15.1,15.5h59.9v7.3l-45.5,0l-15.1,15.5l15.1,15.5h45.5v60.7h21v-80.6h57.9L1182.2-2519.5z"
	/>
<path d="M335.7-2277.2c0,9.2-7.4,16.6-16.6,16.6c-9.2,0-16.6-7.4-16.6-16.6c0-9.2,7.4-16.6,16.6-16.6
	C328.3-2293.8,335.7-2286.4,335.7-2277.2"/>
<path d="M335.7-2240c0,9.2-7.4,16.6-16.6,16.6c-9.2,0-16.6-7.4-16.6-16.6s7.4-16.6,16.6-16.6C328.3-2256.6,335.7-2249.2,335.7-2240"
	/>
<path d="M335.7-2202.8c0,9.2-7.4,16.6-16.6,16.6c-9.2,0-16.6-7.4-16.6-16.6c0-9.2,7.4-16.6,16.6-16.6
	C328.3-2219.4,335.7-2212,335.7-2202.8"/>
<path d="M335.7-2165.6c0,9.2-7.4,16.6-16.6,16.6c-9.2,0-16.6-7.4-16.6-16.6c0-9.2,7.4-16.6,16.6-16.6
	C328.3-2182.2,335.7-2174.7,335.7-2165.6"/>
<path d="M372.9-2277.2c0,9.2-7.4,16.6-16.6,16.6c-9.2,0-16.6-7.4-16.6-16.6c0-9.2,7.4-16.6,16.6-16.6
	C365.5-2293.8,372.9-2286.4,372.9-2277.2"/>
<path d="M372.9-2240c0,9.2-7.4,16.6-16.6,16.6s-16.6-7.4-16.6-16.6s7.4-16.6,16.6-16.6S372.9-2249.2,372.9-2240"/>
<path d="M372.9-2202.8c0,9.2-7.4,16.6-16.6,16.6c-9.2,0-16.6-7.4-16.6-16.6c0-9.2,7.4-16.6,16.6-16.6
	C365.5-2219.4,372.9-2212,372.9-2202.8"/>
<path d="M372.9-2165.6c0,9.2-7.4,16.6-16.6,16.6c-9.2,0-16.6-7.4-16.6-16.6c0-9.2,7.4-16.6,16.6-16.6
	C365.5-2182.2,372.9-2174.7,372.9-2165.6"/>
<path d="M410.2-2277.2c0,9.2-7.4,16.6-16.6,16.6s-16.6-7.4-16.6-16.6c0-9.2,7.4-16.6,16.6-16.6S410.2-2286.4,410.2-2277.2"/>
<path d="M410.2-2240c0,9.2-7.4,16.6-16.6,16.6c-9.2,0-16.6-7.4-16.6-16.6s7.4-16.6,16.6-16.6C402.7-2256.6,410.2-2249.2,410.2-2240"
	/>
<path d="M393.5-2190.5c-6.7,0-12.2-5.5-12.2-12.2c0-6.7,5.5-12.2,12.2-12.2c6.7,0,12.2,5.5,12.2,12.2
	C405.8-2196,400.3-2190.5,393.5-2190.5z M393.5-2219.4c-9.1,0-16.6,7.4-16.6,16.6c0,9.1,7.4,16.6,16.6,16.6
	c9.1,0,16.6-7.4,16.6-16.6C410.1-2211.9,402.7-2219.4,393.5-2219.4z"/>
<path d="M410.2-2165.6c0,9.2-7.4,16.6-16.6,16.6s-16.6-7.4-16.6-16.6c0-9.2,7.4-16.6,16.6-16.6S410.2-2174.7,410.2-2165.6"/>
<path d="M447.4-2277.2c0,9.2-7.4,16.6-16.6,16.6c-9.2,0-16.6-7.4-16.6-16.6c0-9.2,7.4-16.6,16.6-16.6
	C439.9-2293.8,447.4-2286.4,447.4-2277.2"/>
<path d="M447.4-2240c0,9.2-7.4,16.6-16.6,16.6s-16.6-7.4-16.6-16.6s7.4-16.6,16.6-16.6S447.4-2249.2,447.4-2240"/>
<path d="M447.4-2202.8c0,9.2-7.4,16.6-16.6,16.6c-9.2,0-16.6-7.4-16.6-16.6c0-9.2,7.4-16.6,16.6-16.6
	C439.9-2219.4,447.4-2212,447.4-2202.8"/>
<path d="M447.4-2165.6c0,9.2-7.4,16.6-16.6,16.6s-16.6-7.4-16.6-16.6c0-9.2,7.4-16.6,16.6-16.6S447.4-2174.7,447.4-2165.6"/>
<polygon points="316.9,-2565.2 281.5,-2565.2 281.5,-2442.8 284.5,-2442.8 284.5,-2541.9 316.9,-2541.9 "/>
<path d="M493.3-2460.7h-31.4v-22.3h31.4V-2460.7z M453.6-2460.7h-40.5v-22.3h40.5V-2460.7z M404.7-2460.7h-31.4v-22.3h31.4V-2460.7z
	 M362.2-2509h-12.4v-11.1h12.4V-2509z M314-2445.5v-37.5h38l0,37.5H314z M302.1-2509v-11.1h12.4v11.1H302.1z M318-2520.1h12.4v11.1
	H318V-2520.1z M333.9-2520.1h12.4v11.1h-12.4V-2520.1z M370.1-2503.5v-24.9h3.2v-6.1l-84,0v6.1h5.2v85.6h75.6l132,0v-54.6h2.3v-6.1
	H370.1z"/>
<path d="M174.3-1824.6c6.9,14.6-9.8,22.5-16.7,7.9C150.7-1831.3,167.4-1839.2,174.3-1824.6"/>
<path d="M303.2-1811.9H202.6c-2.2,0-4.1-1.8-4.1-4.1c0-2.2,1.8-4.1,4.1-4.1h96.6v-138.2H123.8v138.2h14.4c2.2,0,4.1,1.8,4.1,4.1
	c0,2.2-1.8,4.1-4.1,4.1h-18.4c-2.2,0-4.1-1.8-4.1-4.1v-146.3c0-2.2,1.8-4.1,4.1-4.1h183.5c2.2,0,4.1,1.8,4.1,4.1v146.3
	C307.3-1813.8,305.5-1811.9,303.2-1811.9L303.2-1811.9z"/>
<path d="M103.8-1787.2c-3.1,0-5.9-0.9-8.3-3.3c-5.2-5.2-2.3-13.1,0.5-20.7c2-5.4,4.2-11.5,3.7-16.6c-0.3-3.6-1-7.2-1.7-10.6
	c-1.5-8.1-3.1-16.5-0.3-26.2c3.5-12.1,3.1-24.4,3.1-24.6v-0.3c0-0.1,0.4-11.9-3.1-23.9c-2.8-9.8-1.2-18.1,0.3-26.2
	c0.7-3.4,1.3-7,1.7-10.6c0.4-5.1-1.7-10.9-3.7-16.6c-2.8-7.6-5.6-15.4-0.5-20.7c5.8-6,14.7-3.1,24.2,0.1c6.6,2.2,13.5,4.5,19.7,4
	c4.3-0.3,8.6-1,12.7-1.7c9.4-1.5,19.2-3.1,30.4-0.3c14.5,3.5,28.6,3.1,28.7,3.1c0.4,0,15.3,0.4,29.7-3.1c11.2-2.8,21-1.2,30.4,0.3
	c4.1,0.7,8.4,1.3,12.7,1.7c6.1,0.5,13-1.8,19.7-4c9.5-3.1,18.4-6.1,24.2-0.1c5.1,5.3,2.2,13.1-0.5,20.7c-2,5.6-4.2,11.4-3.7,16.6
	c0.3,3.6,1,7.2,1.7,10.6c1.5,8.1,3.1,16.4,0.3,26.2c-3.5,12.1-3.1,24.4-3.1,24.6v0.3c0,0.1-0.4,11.9,3.1,23.9
	c2.8,9.7,1.2,18.1-0.3,26.2c-0.7,3.5-1.3,7-1.7,10.6c-0.4,5.1,1.4,10.8,3.3,16.4c2.5,7.6,5.1,15.5-0.1,20.6
	c-5.8,5.6-14.2,2.7-23.2-0.4c-6.2-2.2-13.3-4.6-19.5-4.2c-4.3,0.3-8.6,1-12.7,1.7c-9.4,1.5-19.2,3.1-30.4,0.3
	c-14.5-3.5-34.7-3.1-34.9-3.1c-0.3,0-1.4,0-3.3,0c-2.2,0.1-4.1-1.8-4.1-4c0-2.2,1.8-4.1,4-4.1c2.2,0,3.5,0,3.5,0
	c0.7,0,21.3-0.4,36.9,3.4c9.6,2.3,18.2,1,27.2-0.5c4.3-0.7,8.7-1.4,13.4-1.8c7.9-0.6,15.8,2.2,22.8,4.6c6.2,2.2,12.7,4.4,14.9,2.3
	c1.6-1.6-0.3-7.2-1.9-12.2c-2-6-4.2-12.8-3.6-19.6c0.3-4,1.1-7.8,1.8-11.5c1.4-7.5,2.8-14.5,0.5-22.4c-3.7-12.7-3.5-24.7-3.4-26.3
	c0-1.6-0.3-14.2,3.4-27c2.3-7.9,0.9-14.9-0.5-22.4c-0.7-3.6-1.4-7.4-1.8-11.5c-0.6-6.9,1.9-13.9,4.2-20c1.8-5,3.9-10.7,2.3-12.3
	c-2.2-2.3-9.1,0-15.8,2.2c-7.1,2.3-15.1,5-22.8,4.4c-4.7-0.3-9.1-1.1-13.4-1.8c-9-1.5-17.5-2.8-27.2-0.5c-15.6,3.8-31,3.4-31.7,3.4
	c-0.4,0-15.1,0.4-30.6-3.4c-9.6-2.4-18.2-1-27.2,0.5c-4.3,0.7-8.7,1.4-13.4,1.8c-7.7,0.6-15.7-2.1-22.8-4.4
	c-6.7-2.2-13.6-4.5-15.8-2.2c-1.6,1.6,0.5,7.3,2.3,12.3c2.2,6.2,4.8,13.1,4.2,20c-0.3,4-1.1,7.8-1.8,11.4
	c-1.4,7.5-2.8,14.5-0.5,22.4c3.7,12.7,3.5,24.7,3.4,26.3c0,1.6,0.3,14.2-3.4,27c-2.3,7.9-0.9,14.9,0.5,22.4
	c0.7,3.6,1.4,7.4,1.8,11.4c0.6,6.9-2,13.9-4.2,20.1c-1.7,4.8-3.9,10.7-2.3,12.2c2.1,2.2,8-0.1,14.2-2.5c6.9-2.6,14.6-5.6,22.6-5
	c2.2,0.2,3.9,2.1,3.8,4.3c-0.2,2.2-2.1,4-4.3,3.8c-6.2-0.4-13.1,2.2-19.2,4.5C113.4-1789.1,108.3-1787.2,103.8-1787.2L103.8-1787.2z
	"/>
<path d="M186.2-1764.6c0,6.5,8.4,5.8,8.3-1.6c-0.2-13.3-0.5-23.5-4.9-31.2c-4.6-8.1-15.5-7.5-21.1-7.4c-6.1,0.1-17.8,1.9-20.6,13.7
	c-2.5,10.8-1.6,20.8,0.2,26.8c2.5,8.6,9.3,5.2,7.8-1.4c-1.6-7.1-1.5-24.9,2.2-21.8c1.6,1.4,1.8,24.5,2.2,31.9
	c0.3,5.2-0.2,13,0.3,23.1c0.4,9,9.2,8.8,9.4,0.3c0.1-4.8,0.4-20.1,0.9-26.1c0.2-2,0.7-2.7,1.5-2.7c1.4,0,2,1.2,2.1,2.5
	c0.3,7.3,0.8,19.4,0.9,26.4c0.2,7.9,9.4,8.9,9-0.9c-0.4-10-1-21.5-1.2-29.9c-0.2-7.2-1.9-29,1-25.9
	C187.2-1785.6,186.2-1771.7,186.2-1764.6L186.2-1764.6z"/>
<path d="M560.6-1860c4.9,3.5,6.1,10.3,2.6,15.3c-3.5,4.9-10.3,6.1-15.3,2.6c-4.9-3.5-6.1-10.3-2.6-15.3
	C548.9-1862.3,555.7-1863.5,560.6-1860"/>
<path d="M519.4-1806.2c0,0.1,0,0.1,0.1,0.1c0,0,0,0.1,0.1,0.3c0.5,1.4,2.6,7.9,2.6,17.8c0,5.2-0.6,11.3-2.2,18.2
	c-0.8,3.3,1.3,6.5,4.5,7.3c0.5,0.1,0.9,0.2,1.4,0.2c2.8,0,5.3-1.9,5.9-4.7c1.8-7.8,2.5-14.9,2.5-20.9c0-8.6-1.3-15.1-2.3-18.9
	c0.2-0.4,0.3-0.8,0.5-1.2c1.4-5.2,4.2-10.4,7.1-14.9c-0.2-0.3-0.5-0.6-0.7-0.9c-3.4-4.8-4.6-9.4-4.9-11.1l0-0.1
	c-0.2-1.3,0-2.6,0.8-3.7c0.7-1.1,1.8-1.8,3.1-2c0.3-0.1,0.6-0.1,0.9-0.1c2.3,0,4.3,1.7,4.8,4c0,0.1,0,0.1,0.1,0.2
	c0.1,0.2,0.1,0.5,0.3,1c0.2,0.8,0.7,2,1.4,3.4c0.1,0.2,0.2,0.3,0.2,0.5c2.1-3.8,2.1-8.7-0.9-10.9c-3.5-2.5-9.9-2.7-14.9,2.9
	c-6.8,7.8-9.9,13.5-12.8,24C515.8-1811,517.2-1808.1,519.4-1806.2L519.4-1806.2z"/>
<path d="M550.4-1813.2l3.5,3.7l3.6-3.4c-2.1-0.3-4.1-0.7-6-1.4L550.4-1813.2z"/>
<path d="M568.7-1837.5c3.1-2.9,8-2.8,10.9,0.3c2.9,3.1,2.8,8-0.3,10.9c-3.1,2.9-8,2.8-10.9-0.3
	C565.4-1829.7,565.6-1834.6,568.7-1837.5L568.7-1837.5z M561.6-1822.4c0.3,0,0.5,0,0.8,0l0.1,0c1.4,0,2.6,0.6,3.5,1.5l0.2-0.2
	l1.2,1.2l2-1.9c4,1.8,8.8,1.1,12.2-2.1c4.5-4.2,4.7-11.3,0.5-15.8c-4.2-4.5-11.3-4.7-15.8-0.5c-3.4,3.2-4.3,8-2.8,12l-2,1.8l1.2,1.3
	l-2.6,2.5C560.6-1822.4,561.1-1822.4,561.6-1822.4L561.6-1822.4z"/>
<path d="M542.8-1835.5c-0.1-0.4-0.2-0.8-0.3-1c0-0.1,0-0.2-0.1-0.2c0,0,0,0,0,0c0,0,0,0,0,0c-0.4-2.1-2.4-3.5-4.5-3.1
	c-2.1,0.4-3.5,2.4-3.1,4.5c0.1,0.3,1,5.4,4.8,10.8c0.1,0.2,0.3,0.4,0.5,0.6c1.9,2.5,4.4,5,7.8,6.9c1.4,0.8,2.8,1.4,4.5,2
	c1.9,0.6,3.9,1.1,6.1,1.3c1,0.1,2,0.1,3.1,0.1h0c0.4,0,0.8,0,1.1,0c2.1-0.1,3.8-1.9,3.8-4c0-1-0.5-2-1.1-2.6
	c-0.7-0.7-1.8-1.2-2.9-1.1c-0.3,0-0.6,0-0.9,0c-0.8,0-1.6-0.1-2.4-0.1c-3.1-0.3-5.5-1.1-7.5-2.3c-3.3-1.8-5.5-4.6-6.9-7.1
	c-0.2-0.3-0.4-0.7-0.5-1C543.5-1833.3,543.1-1834.6,542.8-1835.5L542.8-1835.5z"/>
<line fill="none" stroke="#444343" stroke-miterlimit="10" x1="392.5" y1="-2013" x2="392.5" y2="-1591"/>
<text transform="matrix(1 0 0 1 38.641 -1681.8975)"><tspan x="0" y="0" font-family="'MyriadPro-Regular'" font-size="30">Understand the whole?</tspan><tspan x="0" y="36" font-family="'MyriadPro-Regular'" font-size="30">Use hierarchy for big pic.</tspan></text>
<text transform="matrix(1 0 0 1 417.8985 -1681.8975)"><tspan x="0" y="0" font-family="'MyriadPro-Regular'" font-size="30">Understand just 1 part?</tspan><tspan x="0" y="36" font-family="'MyriadPro-Regular'" font-size="30">No need for hierarchy.</tspan></text>
<line fill="none" stroke="#444343" stroke-miterlimit="10" x1="387.5" y1="-1508" x2="387.5" y2="-1086"/>
<text transform="matrix(1 0 0 1 63.9999 -1108.8997)" font-family="'MyriadPro-Regular'" font-size="30">Flat hierarchy</text>
<text transform="matrix(1 0 0 1 457.0014 -1108.9)" font-family="'MyriadPro-Regular'" font-size="30">Deep hierarchy</text>
<line fill="none" stroke="#000000" stroke-width="6" stroke-miterlimit="10" x1="64" y1="-1492" x2="64" y2="-1226"/>
<line fill="none" stroke="#000000" stroke-width="5" stroke-miterlimit="10" x1="64" y1="-1443.5" x2="99" y2="-1443.5"/>
<line fill="none" stroke="#000000" stroke-width="5" stroke-miterlimit="10" x1="64" y1="-1353.5" x2="99" y2="-1353.5"/>
<g>
	<path fill="#FF931E" d="M131-1431c0,1.7-1.3,3-3,3h-27c-1.7,0-3-1.3-3-3v-23c0-1.7,1.3-3,3-3h27c1.7,0,3,1.3,3,3V-1431z"/>
	<path fill="none" stroke="#AD6014" stroke-miterlimit="10" d="M131.5-1431.5c0,1.7-1.4,3-3,3h-27c-1.7,0-3-1.3-3-3v-23
		c0-1.7,1.3-3,3-3h27c1.6,0,3,1.3,3,3V-1431.5z"/>
</g>
<g>
	<path fill="#FF931E" d="M131-1342c0,1.7-1.3,3-3,3h-27c-1.7,0-3-1.3-3-3v-23c0-1.7,1.3-3,3-3h27c1.7,0,3,1.3,3,3V-1342z"/>
	<path fill="none" stroke="#AD6014" stroke-miterlimit="10" d="M131.5-1342.5c0,1.7-1.4,3-3,3h-27c-1.7,0-3-1.3-3-3v-23
		c0-1.7,1.3-3,3-3h27c1.6,0,3,1.3,3,3V-1342.5z"/>
</g>
<line fill="none" stroke="#000000" stroke-width="5" stroke-miterlimit="10" x1="145" y1="-1438.5" x2="182" y2="-1438.5"/>
<line fill="none" stroke="#000000" stroke-width="5" stroke-miterlimit="10" x1="145" y1="-1422.5" x2="182" y2="-1422.5"/>
<line fill="none" stroke="#000000" stroke-width="5" stroke-miterlimit="10" x1="145" y1="-1405.5" x2="182" y2="-1405.5"/>
<line fill="none" stroke="#000000" stroke-width="5" stroke-miterlimit="10" x1="145" y1="-1349.5" x2="182" y2="-1349.5"/>
<line fill="none" stroke="#000000" stroke-width="5" stroke-miterlimit="10" x1="145" y1="-1333.5" x2="182" y2="-1333.5"/>
<line fill="none" stroke="#000000" stroke-width="5" stroke-miterlimit="10" x1="145" y1="-1316.5" x2="182" y2="-1316.5"/>
<line fill="none" stroke="#000000" stroke-width="6" stroke-miterlimit="10" x1="433" y1="-1485" x2="433" y2="-1226"/>
<line fill="none" stroke="#000000" stroke-width="5" stroke-miterlimit="10" x1="433" y1="-1436.5" x2="468" y2="-1436.5"/>
<line fill="none" stroke="#000000" stroke-width="5" stroke-miterlimit="10" x1="433" y1="-1326.5" x2="468" y2="-1326.5"/>
<g>
	<path fill="#FF931E" d="M500-1424c0,1.7-1.3,3-3,3h-27c-1.7,0-3-1.3-3-3v-23c0-1.7,1.3-3,3-3h27c1.7,0,3,1.3,3,3V-1424z"/>
	<path fill="none" stroke="#AD6014" stroke-miterlimit="10" d="M500.5-1424.5c0,1.7-1.4,3-3,3h-27c-1.6,0-3-1.3-3-3v-23
		c0-1.7,1.4-3,3-3h27c1.6,0,3,1.3,3,3V-1424.5z"/>
</g>
<g>
	<path fill="#FF931E" d="M500-1315c0,1.7-1.3,3-3,3h-27c-1.7,0-3-1.3-3-3v-23c0-1.7,1.3-3,3-3h27c1.7,0,3,1.3,3,3V-1315z"/>
	<path fill="none" stroke="#AD6014" stroke-miterlimit="10" d="M500.5-1315.5c0,1.7-1.4,3-3,3h-27c-1.6,0-3-1.3-3-3v-23
		c0-1.7,1.4-3,3-3h27c1.6,0,3,1.3,3,3V-1315.5z"/>
</g>
<line fill="none" stroke="#000000" stroke-width="5" stroke-miterlimit="10" x1="514" y1="-1431.5" x2="551" y2="-1431.5"/>
<line fill="none" stroke="#000000" stroke-width="5" stroke-miterlimit="10" x1="514" y1="-1415.5" x2="551" y2="-1415.5"/>
<line fill="none" stroke="#000000" stroke-width="5" stroke-miterlimit="10" x1="514" y1="-1398.5" x2="551" y2="-1398.5"/>
<line fill="none" stroke="#000000" stroke-width="5" stroke-miterlimit="10" x1="514" y1="-1322.5" x2="551" y2="-1322.5"/>
<line fill="none" stroke="#000000" stroke-width="5" stroke-miterlimit="10" x1="514" y1="-1306.5" x2="551" y2="-1306.5"/>
<line fill="none" stroke="#000000" stroke-width="5" stroke-miterlimit="10" x1="514" y1="-1289.5" x2="551" y2="-1289.5"/>
<g>
	<path fill="#FF931E" d="M592-1372c0,1.7-1.3,3-3,3h-27c-1.7,0-3-1.3-3-3v-23c0-1.7,1.3-3,3-3h27c1.7,0,3,1.3,3,3V-1372z"/>
	<path fill="none" stroke="#AD6014" stroke-miterlimit="10" d="M592.5-1372.5c0,1.7-1.3,3-3,3h-27c-1.7,0-3-1.3-3-3v-23
		c0-1.7,1.3-3,3-3h27c1.7,0,3,1.3,3,3V-1372.5z"/>
</g>
<line fill="none" stroke="#000000" stroke-width="5" stroke-miterlimit="10" x1="600" y1="-1380.5" x2="637" y2="-1380.5"/>
<line fill="none" stroke="#000000" stroke-width="5" stroke-miterlimit="10" x1="600" y1="-1364.5" x2="637" y2="-1364.5"/>
<line fill="none" stroke="#000000" stroke-width="5" stroke-miterlimit="10" x1="600" y1="-1347.5" x2="637" y2="-1347.5"/>
<g>
	<path fill="#FF931E" d="M680-1321c0,1.7-1.3,3-3,3h-27c-1.7,0-3-1.3-3-3v-23c0-1.7,1.3-3,3-3h27c1.7,0,3,1.3,3,3V-1321z"/>
	<path fill="none" stroke="#AD6014" stroke-miterlimit="10" d="M680.5-1321.5c0,1.7-1.3,3-3,3h-27c-1.7,0-3-1.3-3-3v-23
		c0-1.7,1.3-3,3-3h27c1.7,0,3,1.3,3,3V-1321.5z"/>
</g>
<line fill="none" stroke="#000000" stroke-width="5" stroke-miterlimit="10" x1="691" y1="-1319.5" x2="728" y2="-1319.5"/>
<line fill="none" stroke="#000000" stroke-width="5" stroke-miterlimit="10" x1="691" y1="-1303.5" x2="728" y2="-1303.5"/>
<line fill="none" stroke="#000000" stroke-width="5" stroke-miterlimit="10" x1="691" y1="-1286.5" x2="728" y2="-1286.5"/>
<g>
	<path fill="#FF931E" d="M592-1265c0,1.7-1.3,3-3,3h-27c-1.7,0-3-1.3-3-3v-23c0-1.7,1.3-3,3-3h27c1.7,0,3,1.3,3,3V-1265z"/>
	<path fill="none" stroke="#AD6014" stroke-miterlimit="10" d="M592.5-1265.5c0,1.7-1.3,3-3,3h-27c-1.7,0-3-1.3-3-3v-23
		c0-1.7,1.3-3,3-3h27c1.7,0,3,1.3,3,3V-1265.5z"/>
</g>
<line fill="none" stroke="#000000" stroke-width="5" stroke-miterlimit="10" x1="600" y1="-1262.5" x2="637" y2="-1262.5"/>
<line fill="none" stroke="#000000" stroke-width="5" stroke-miterlimit="10" x1="600" y1="-1246.5" x2="637" y2="-1246.5"/>
<line fill="none" stroke="#000000" stroke-width="5" stroke-miterlimit="10" x1="600" y1="-1229.5" x2="637" y2="-1229.5"/>
<g>
	<path fill="#FF931E" d="M682-1202c0,1.7-1.3,3-3,3h-27c-1.7,0-3-1.3-3-3v-23c0-1.7,1.3-3,3-3h27c1.7,0,3,1.3,3,3V-1202z"/>
	<path fill="none" stroke="#AD6014" stroke-miterlimit="10" d="M682.5-1202.5c0,1.7-1.3,3-3,3h-27c-1.7,0-3-1.3-3-3v-23
		c0-1.7,1.3-3,3-3h27c1.7,0,3,1.3,3,3V-1202.5z"/>
</g>
<line fill="none" stroke="#000000" stroke-width="5" stroke-miterlimit="10" x1="691" y1="-1202.5" x2="728" y2="-1202.5"/>
<line fill="none" stroke="#000000" stroke-width="5" stroke-miterlimit="10" x1="691" y1="-1186.5" x2="728" y2="-1186.5"/>
<line fill="none" stroke="#000000" stroke-width="5" stroke-miterlimit="10" x1="691" y1="-1169.5" x2="728" y2="-1169.5"/>
<line fill="none" stroke="#000000" stroke-width="5" stroke-miterlimit="10" x1="62" y1="-1253.5" x2="97" y2="-1253.5"/>
<g>
	<path fill="#FF931E" d="M129-1242c0,1.7-1.3,3-3,3H99c-1.7,0-3-1.3-3-3v-23c0-1.7,1.3-3,3-3h27c1.7,0,3,1.3,3,3V-1242z"/>
	<path fill="none" stroke="#AD6014" stroke-miterlimit="10" d="M129.5-1242.5c0,1.7-1.4,3-3,3h-27c-1.7,0-3-1.3-3-3v-23
		c0-1.7,1.3-3,3-3h27c1.6,0,3,1.3,3,3V-1242.5z"/>
</g>
<line fill="none" stroke="#000000" stroke-width="5" stroke-miterlimit="10" x1="143" y1="-1249.5" x2="180" y2="-1249.5"/>
<line fill="none" stroke="#000000" stroke-width="5" stroke-miterlimit="10" x1="143" y1="-1233.5" x2="180" y2="-1233.5"/>
<line fill="none" stroke="#000000" stroke-width="5" stroke-miterlimit="10" x1="143" y1="-1216.5" x2="180" y2="-1216.5"/>
<text transform="matrix(1 0 0 1 484.9084 -599.8997)" font-family="'MyriadPro-Regular'" font-size="30">user lands here</text>
<text transform="matrix(1 0 0 1 92.4999 -108.8997)" font-family="'MyriadPro-Regular'" font-size="30">complex system</text>
<path d="M592.3-217.3c0-2.5,1.8-4.3,4.3-4.3h73.5c2.5,0,4.3,1.8,4.3,4.3c0,2.5-1.8,4.3-4.3,4.3h-73.5
	C594.1-212.9,592.3-214.7,592.3-217.3z M592.3-260.5c0-2.5,1.8-4.3,4.3-4.3h73.5c2.5,0,4.3,1.8,4.3,4.3c0,2.5-1.8,4.3-4.3,4.3h-73.5
	C594.1-256.2,592.3-258,592.3-260.5z M592.3-303.8c0-2.5,1.8-4.3,4.3-4.3h73.5c2.5,0,4.3,1.8,4.3,4.3c0,2.5-1.8,4.3-4.3,4.3h-73.5
	C594.1-299.5,592.3-301.3,592.3-303.8z M592.3-347.1c0-2.5,1.8-4.3,4.3-4.3h73.5c2.5,0,4.3,1.8,4.3,4.3c0,2.5-1.8,4.3-4.3,4.3h-73.5
	C594.1-342.7,592.3-344.5,592.3-347.1z M565.6-221.6c2.5,0,4.3,1.8,4.3,4.3s-1.8,4.3-4.3,4.3s-4.3-1.8-4.3-4.3
	S563.1-221.6,565.6-221.6z M565.6-204.3c7.2,0,13-5.8,13-13c0-7.2-5.8-13-13-13s-13,5.8-13,13C552.6-210.1,558.4-204.3,565.6-204.3z
	 M565.6-264.9c2.5,0,4.3,1.8,4.3,4.3c0,2.5-1.8,4.3-4.3,4.3s-4.3-1.8-4.3-4.3C561.3-263,563.1-264.9,565.6-264.9z M565.6-247.5
	c7.2,0,13-5.8,13-13c0-7.2-5.8-13-13-13s-13,5.8-13,13C552.6-253.3,558.4-247.5,565.6-247.5z M565.6-308.1c2.5,0,4.3,1.8,4.3,4.3
	c0,2.5-1.8,4.3-4.3,4.3s-4.3-1.8-4.3-4.3C561.3-306.3,563.1-308.1,565.6-308.1z M565.6-290.8c7.2,0,13-5.8,13-13c0-7.2-5.8-13-13-13
	s-13,5.8-13,13C552.6-296.6,558.4-290.8,565.6-290.8z M565.6-351.4c2.5,0,4.3,1.8,4.3,4.3c0,2.5-1.8,4.3-4.3,4.3s-4.3-1.8-4.3-4.3
	C561.3-349.6,563.1-351.4,565.6-351.4z M565.6-334.1c7.2,0,13-5.8,13-13s-5.8-13-13-13s-13,5.8-13,13S558.4-334.1,565.6-334.1z
	 M691.4-182.6H535.6v-199h155.8L691.4-182.6z M695.7-390.3H531.3c-2.5,0-4.3,1.8-4.3,4.3v207.7c0,2.5,1.8,4.3,4.3,4.3h164.4
	c2.5,0,4.3-1.8,4.3-4.3V-386C700.1-388.5,698.3-390.3,695.7-390.3z"/>
<path d="M277-246c0-2.4-1.6-4-4-4c-2.4,0-4,1.6-4,4v8c0,2.4,1.6,4,4,4c2.4,0,4-1.6,4-4V-246z M277-226c0-2.4-1.6-4-4-4
	c-2.4,0-4,1.6-4,4v8c0,2.4,1.6,4,4,4c2.4,0,4-1.6,4-4V-226z M273-210c-2.4,0-4,1.6-4,4v8c0,2.4,1.6,4,4,4c2.4,0,4-1.6,4-4v-8
	C277-208.4,275.4-210,273-210z M237-210H101v8h136V-210z M245-214v16c0,2.4-1.6,4-4,4H97c-2.4,0-4-1.6-4-4v-16c0-2.4,1.6-4,4-4h144
	C243.4-218,245-216.4,245-214z M101-234h136v-8H101V-234z M97-250h144c2.4,0,4,1.6,4,4v16c0,2.4-1.6,4-4,4H97c-2.4,0-4-1.6-4-4v-16
	C93-248.4,94.6-250,97-250z M97-266c2.4,0,4-1.6,4-4v-12c0-2.4-1.6-4-4-4s-4,1.6-4,4v12C93-267.6,94.6-266,97-266z M113-270
	c0,2.4,1.6,4,4,4c2.4,0,4-1.6,4-4v-12c0-2.4-1.6-4-4-4c-2.4,0-4,1.6-4,4V-270z M117-302c2.4,0,4-1.6,4-4v-12c0-2.4-1.6-4-4-4
	c-2.4,0-4,1.6-4,4v12C113-303.6,114.6-302,117-302z M153-298h24c2.4,0,4-1.6,4-4c0-2.4-1.6-4-4-4h-24c-2.4,0-4,1.6-4,4
	C149-299.6,150.6-298,153-298z M153-282h24c2.4,0,4-1.6,4-4c0-2.4-1.6-4-4-4h-24c-2.4,0-4,1.6-4,4C149-283.6,150.6-282,153-282z
	 M189-314h-48v40h48V-314z M197-318v48c0,2.4-1.6,4-4,4h-56c-2.4,0-4-1.6-4-4v-48c0-2.4,1.6-4,4-4h56C195.4-322,197-320.4,197-318z
	 M141-350h48v-48h-48V-350z M133-362v-8h-4c-2.4,0-4-1.6-4-4s1.6-4,4-4h4v-8h-4c-2.4,0-4-1.6-4-4c0-2.4,1.6-4,4-4h4v-8
	c0-2.4,1.6-4,4-4h8v-4c0-2.4,1.6-4,4-4s4,1.6,4,4v4h8v-4c0-2.4,1.6-4,4-4s4,1.6,4,4v4h8v-4c0-2.4,1.6-4,4-4c2.4,0,4,1.6,4,4v4h8
	c2.4,0,4,1.6,4,4v8h4c2.4,0,4,1.6,4,4c0,2.4-1.6,4-4,4h-4v8h4c2.4,0,4,1.6,4,4s-1.6,4-4,4h-4v8h4c2.4,0,4,1.6,4,4c0,2.4-1.6,4-4,4
	h-4v8c0,2.4-1.6,4-4,4h-8v4c0,2.4-1.6,4-4,4c-2.4,0-4-1.6-4-4v-4h-8v4c0,2.4-1.6,4-4,4s-4-1.6-4-4v-4h-8v4c0,2.4-1.6,4-4,4
	s-4-1.6-4-4v-4h-8c-2.4,0-4-1.6-4-4v-8h-4c-2.4,0-4-1.6-4-4c0-2.4,1.6-4,4-4H133z M229-330h8v-76h-8V-330z M237-322h-8v48h8V-322z
	 M225-266c-2.4,0-4-1.6-4-4v-140c0-2.4,1.6-4,4-4h16c2.4,0,4,1.6,4,4v140c0,2.4-1.6,4-4,4H225z M269-322h-8v48h8V-322z M261-330h8
	v-76h-8V-330z M277-270c0,2.4-1.6,4-4,4h-16c-2.4,0-4-1.6-4-4v-140c0-2.4,1.6-4,4-4h16c2.4,0,4,1.6,4,4V-270z M81-342h20v-32H81
	V-342z M73-338v-40c0-2.4,1.6-4,4-4h28c2.4,0,4,1.6,4,4v40c0,2.4-1.6,4-4,4H77C74.6-334,73-335.6,73-338z M81-310h12v-12H81V-310z
	 M73-306v-20c0-2.4,1.6-4,4-4h20c2.4,0,4,1.6,4,4v20c0,2.4-1.6,4-4,4H77C74.6-302,73-303.6,73-306z M81-394h12v-8H81V-394z M73-390
	v-16c0-2.4,1.6-4,4-4h20c2.4,0,4,1.6,4,4v16c0,2.4-1.6,4-4,4H77C74.6-386,73-387.6,73-390z M297-426v248c0,2.4-1.6,4-4,4H77
	c-2.4,0-4-1.6-4-4v-116c0-2.4,1.6-4,4-4c2.4,0,4,1.6,4,4v112h208v-240H81v4c0,2.4-1.6,4-4,4c-2.4,0-4-1.6-4-4v-8c0-2.4,1.6-4,4-4
	h216C295.4-430,297-428.4,297-426L297-426z"/>
<text transform="matrix(1 0 0 1 526.9997 -108.8999)" font-family="'MyriadPro-Regular'" font-size="30">a list of parts</text>
<g>
	<g>
		<line fill="none" stroke="#000000" stroke-width="6" stroke-miterlimit="10" x1="323" y1="-285" x2="484" y2="-285"/>
		<g>
			<polygon points="479,-268.8 507,-285 479,-301.2 			"/>
		</g>
	</g>
</g>
<circle cx="209" cy="-296.3" r="6"/>
<circle cx="209" cy="-273.3" r="6"/>
<circle cx="209" cy="-319.3" r="6"/>
<line fill="none" stroke="#000000" stroke-width="8" stroke-linecap="round" stroke-miterlimit="10" x1="258" y1="-247" x2="258" y2="-192"/>
<circle fill="none" stroke="#000000" stroke-linecap="round" stroke-miterlimit="10" cx="148.3" cy="-379.5" r="3"/>
<circle fill="none" stroke="#000000" stroke-linecap="round" stroke-miterlimit="10" cx="148.3" cy="-357.6" r="3"/>
<circle fill="none" stroke="#000000" stroke-linecap="round" stroke-miterlimit="10" cx="148.3" cy="-390.4" r="3"/>
<circle fill="none" stroke="#000000" stroke-linecap="round" stroke-miterlimit="10" cx="148.3" cy="-368.7" r="3"/>
<circle fill="none" stroke="#000000" stroke-linecap="round" stroke-miterlimit="10" cx="159.3" cy="-379.5" r="3"/>
<circle fill="none" stroke="#000000" stroke-linecap="round" stroke-miterlimit="10" cx="159.3" cy="-357.6" r="3"/>
<circle fill="none" stroke="#000000" stroke-linecap="round" stroke-miterlimit="10" cx="159.3" cy="-390.4" r="3"/>
<circle fill="none" stroke="#000000" stroke-linecap="round" stroke-miterlimit="10" cx="159.3" cy="-368.7" r="3"/>
<circle fill="none" stroke="#000000" stroke-linecap="round" stroke-miterlimit="10" cx="169.3" cy="-379.5" r="3"/>
<circle fill="none" stroke="#000000" stroke-linecap="round" stroke-miterlimit="10" cx="169.3" cy="-357.6" r="3"/>
<circle fill="none" stroke="#000000" stroke-linecap="round" stroke-miterlimit="10" cx="169.3" cy="-390.4" r="3"/>
<circle fill="none" stroke="#000000" stroke-linecap="round" stroke-miterlimit="10" cx="169.3" cy="-368.7" r="3"/>
<circle fill="none" stroke="#000000" stroke-linecap="round" stroke-miterlimit="10" cx="180.3" cy="-379.5" r="3"/>
<circle fill="none" stroke="#000000" stroke-linecap="round" stroke-miterlimit="10" cx="180.3" cy="-357.6" r="3"/>
<circle fill="none" stroke="#000000" stroke-linecap="round" stroke-miterlimit="10" cx="180.3" cy="-390.4" r="3"/>
<circle fill="none" stroke="#000000" stroke-linecap="round" stroke-miterlimit="10" cx="180.3" cy="-368.7" r="3"/>
<rect x="100" y="-210" width="141" height="16"/>
<rect x="225" y="-408" width="16" height="79"/>
<path d="M204.2-705.3H193v-15.8h11.1V-705.3z M198.5-773.5h52.9v5.3l-11.1,0c-0.5-0.1-1,0.2-1.3,0.6l-10.5,11.5
	c-0.1,0.1-0.1,0.2-0.2,0.3c0,0.1-0.1,0.1-0.1,0.2c-0.1,0.2-0.1,0.4-0.1,0.7v5l-6.8,0v-13.8c0-1-0.8-1.8-1.8-1.8h-12.6
	c-1,0-1.8,0.8-1.8,1.8v13.8l-6.7,0L198.5-773.5z M254.9-756.7h-21.1l7.3-7.9l10.3,0l3.5,0l10.6,0l7.3,7.9L254.9-756.7z M208.6-750
	v-12h9v12H208.6z M238.7-786.8l10.1,9.8h-48.2l8.7-9.8L238.7-786.8z M194.9-746.5h3.5l29.5,0h0.9l0.9,1.1l1.8,2.1l1.3,1.6l2.9,3.5
	l2.6,3.1H228l-45.2,0l8-11.5L194.9-746.5z M240.3-715.6v10.3h-32.6v-17.6c0-1-0.8-1.8-1.8-1.8h-14.7c-1,0-1.8,0.8-1.8,1.8l0,17.6
	h-8.3v-26.1h59.2L240.3-715.6z M275.1-719.1h-5.7V-739c0-1-0.8-1.8-1.8-1.8h-13.5c-0.4,0-0.7,0.1-1,0.3c-0.2,0.2-0.4,0.3-0.5,0.6
	c-0.1,0.3-0.2,0.5-0.2,0.9v19.9h-8.5v-14.1c0-0.4-0.1-0.8-0.4-1.1l-3.1-3.8l-2.9-3.5l-5.9-7.1v-4.5h43.6L275.1-719.1z M265.9-719.1
	h-10v-18.1h10V-719.1z M278.5-755.6c0-0.1-0.1-0.2-0.2-0.2c-0.1-0.1-0.1-0.2-0.2-0.3l-10.6-11.4c-0.3-0.4-0.8-0.6-1.3-0.6l-11.4,0
	v-7.1c0-0.5-0.2-0.9-0.5-1.3l-13.8-13.2c-0.3-0.3-0.8-0.5-1.2-0.5l-30.9-0.1h0c-0.5,0-1,0.2-1.3,0.6l-11.9,13.3
	c-0.3,0.3-0.4,0.7-0.4,1.2v25.3l-5,0h0c-0.6,0-1.1,0.3-1.4,0.8L178-734.2c0,0.1-0.1,0.1-0.1,0.2c0,0.1-0.1,0.1-0.1,0.2
	c-0.1,0.2-0.1,0.4-0.1,0.6v29.7c0,1,0.8,1.8,1.8,1.8h62.7c1,0,1.8-0.8,1.8-1.8v-12.1h33c1,0,1.8-0.8,1.8-1.8v-37.6
	C278.6-755.2,278.6-755.4,278.5-755.6L278.5-755.6z"/>
<path d="M312.1-901.4h5.8v5.8h-5.8V-901.4z M320.7-904.6c-0.3-0.2-0.6-0.3-1-0.3h-9.4c-1,0-1.8,0.8-1.8,1.8v9.4c0,1,0.8,1.8,1.8,1.8
	h9.4c1,0,1.8-0.8,1.8-1.8v-9.4C321.5-903.8,321.2-904.3,320.7-904.6L320.7-904.6z"/>
<path fill-rule="evenodd" clip-rule="evenodd" d="M489.6-846.5c1.1,0,2-0.9,2-2c0-1.1-0.9-2-2-2h-110c-1.1,0-2,0.9-2,2
	c0,1.1,0.9,2,2,2H489.6z"/>
<path fill-rule="evenodd" clip-rule="evenodd" d="M407.1-878c1.1,0,2-0.9,2-2c0-1.1-0.9-2-2-2h-11.8c-1.1,0-2,0.9-2,2
	c0,1.1,0.9,2,2,2H407.1z"/>
<path fill-rule="evenodd" clip-rule="evenodd" d="M411.1-913.3c1.1,0,2-0.9,2-2c0-1.1-0.9-2-2-2h-11.8c-1.1,0-2,0.9-2,2
	c0,1.1,0.9,2,2,2H411.1z"/>
<path fill-rule="evenodd" clip-rule="evenodd" d="M450.4-885.8c1.1,0,2-0.9,2-2s-0.9-2-2-2h-11.8c-1.1,0-2,0.9-2,2s0.9,2,2,2H450.4z
	"/>
<path fill-rule="evenodd" clip-rule="evenodd" d="M438.6-944.8c1.1,0,2-0.9,2-2c0-1.1-0.9-2-2-2h-3.9c-1.1,0-2,0.9-2,2
	c0,1.1,0.9,2,2,2H438.6z"/>
<path fill-rule="evenodd" clip-rule="evenodd" d="M393.4-872.1c0-1.1,0.9-2,2-2h11.8c1.1,0,2,0.9,2,2v25.5h-3.9v-23.6h-7.9v23.6
	h-3.9L393.4-872.1z"/>
<path fill-rule="evenodd" clip-rule="evenodd" d="M436.6-876c0-1.1,0.9-2,2-2h11.8c1.1,0,2,0.9,2,2v29.5h-3.9V-874h-7.9v27.5h-3.9
	L436.6-876z"/>
<path fill-rule="evenodd" clip-rule="evenodd" d="M385.5-880.1l15.7-16.6l15.7,16.6v33.5h3.9v-34.3c0-0.5-0.2-1-0.5-1.3l-17.7-18.7
	c-0.8-0.8-2.1-0.8-2.9,0l-17.7,18.7c-0.3,0.4-0.5,0.8-0.5,1.3v34.3h3.9L385.5-880.1z"/>
<path fill-rule="evenodd" clip-rule="evenodd" d="M389.5-919.4l15.7-16.6l15.7,16.6v21.7h3.9v-22.6c0-0.5-0.2-1-0.5-1.4l-17.7-18.7
	c-0.8-0.8-2.1-0.8-2.9,0l-17.7,18.7c-0.3,0.4-0.5,0.9-0.5,1.4v38.3l3.9-3.9L389.5-919.4z"/>
<path fill-rule="evenodd" clip-rule="evenodd" d="M420.9-942.9l15.7-16.6l15.7,16.6v17.8l3.9,3.9v-22.6c0-0.5-0.2-1-0.5-1.4
	L438-963.8c-0.8-0.8-2.1-0.8-2.9,0l-17.7,18.7c-0.3,0.4-0.5,0.9-0.5,1.4v6.8h3.9L420.9-942.9z"/>
<rect x="417" y="-881.9" fill-rule="evenodd" clip-rule="evenodd" width="11.8" height="3.9"/>
<rect x="456.3" y="-921.2" fill-rule="evenodd" clip-rule="evenodd" width="3.9" height="11.8"/>
<rect x="475.9" y="-944.8" fill-rule="evenodd" clip-rule="evenodd" width="3.9" height="43.2"/>
<rect x="483.8" y="-893.7" fill-rule="evenodd" clip-rule="evenodd" width="3.9" height="47.1"/>
<path fill-rule="evenodd" clip-rule="evenodd" d="M428.7-891.9l15.7-16.6l15.7,16.6v45.3h3.9v-46.1c0-0.5-0.2-1-0.5-1.3l-17.7-18.7
	c-0.8-0.8-2.1-0.8-2.9,0L425.4-894c-0.3,0.4-0.5,0.8-0.5,1.3v46.1h3.9L428.7-891.9z"/>
<path fill-rule="evenodd" clip-rule="evenodd" d="M458.6-960.5l15.7,15.7h-21.9v3.9H479c1.7,0,2.6-2.1,1.4-3.4l-19.6-19.6
	c-0.4-0.4-0.9-0.6-1.4-0.6h-22.8v3.9L458.6-960.5z"/>
<path fill-rule="evenodd" clip-rule="evenodd" d="M438.9-936.9l15.7,15.7h-33.7v3.9h38.5c1.7,0,2.6-2.1,1.4-3.4l-19.6-19.6
	c-0.4-0.4-0.9-0.6-1.4-0.6h-34.6v3.9L438.9-936.9z"/>
<path fill-rule="evenodd" clip-rule="evenodd" d="M466.4-909.4l15.7,15.7h-21.9v3.9h26.7c1.7,0,2.6-2.1,1.4-3.4l-19.6-19.6
	c-0.4-0.4-0.9-0.6-1.4-0.6h-22.8v3.9L466.4-909.4z"/>
<path fill-rule="evenodd" clip-rule="evenodd" d="M423.2-897.6h-22v-3.9H424c0.5,0,1,0.2,1.4,0.6l5.2,5.2l-1.9,2.1v1.6L423.2-897.6z
	"/>
<path fill="none" stroke="#000000" stroke-width="1.4713" stroke-miterlimit="10" d="M428-663.8c0,0-224.2,44.1-56.4-238.3"/>
<path fill="none" stroke="#000000" stroke-miterlimit="10" d="M457.4-763"/>
<path fill="none" stroke="#000000" stroke-width="1.4713" stroke-miterlimit="10" d="M420.7-651c0,0-230.4,30.3-62.7-252.1"/>
<g>
	<g>
		<path fill="none" stroke="#000000" stroke-width="1.4688" stroke-miterlimit="10" d="M420.7-657.1c0,0-3.3,0.6-8.8,1.1"/>
		<path fill="none" stroke="#000000" stroke-width="1.4688" stroke-miterlimit="10" stroke-dasharray="17.2222,17.2222" d="
			M394.8-655.3c-51.8-0.4-153.5-24.8-38.4-233.1"/>
		<path fill="none" stroke="#000000" stroke-width="1.4688" stroke-miterlimit="10" d="M360.6-895.9c1.4-2.5,2.9-5.1,4.4-7.7"/>
	</g>
</g>
<rect x="211.2" y="-871.8" width="11.1" height="15.8"/>
<path d="M216.7-924.2h52.9v5.3l-11.1,0c-0.5-0.1-1,0.2-1.3,0.6l-10.5,11.5c-0.1,0.1-0.1,0.2-0.2,0.3c0,0.1-0.1,0.1-0.1,0.2
	c-0.1,0.2-0.1,0.4-0.1,0.7v5l-6.8,0v-13.8c0-1-0.8-1.8-1.8-1.8h-12.6c-1,0-1.8,0.8-1.8,1.8v13.8l-6.7,0L216.7-924.2z"/>
<polygon points="273.1,-907.5 252,-907.5 259.3,-915.4 269.6,-915.4 273.1,-915.4 283.7,-915.3 291,-907.5 "/>
<rect x="226.9" y="-912.7" width="9" height="12"/>
<polygon points="256.9,-937.5 267,-927.8 218.8,-927.8 227.6,-937.6 "/>
<polygon points="213.1,-897.2 216.7,-897.2 246.2,-897.2 247.1,-897.2 248,-896.1 249.7,-894 251,-892.4 254,-888.9 256.6,-885.7 
	246.2,-885.7 201,-885.7 209,-897.2 "/>
<path d="M258.6-866.3v10.3h-32.6v-17.6c0-1-0.8-1.8-1.8-1.8h-14.7c-1,0-1.8,0.8-1.8,1.8l0,17.6h-8.3v-26.1h59.2L258.6-866.3z"/>
<path d="M293.3-869.9h-5.7v-19.9c0-1-0.8-1.8-1.8-1.8h-13.5c-0.4,0-0.7,0.1-1,0.3c-0.2,0.2-0.4,0.3-0.5,0.6
	c-0.1,0.3-0.2,0.5-0.2,0.9v19.9h-8.5v-14.1c0-0.4-0.1-0.8-0.4-1.1l-3.1-3.8l-2.9-3.5l-5.9-7.1v-4.5h43.6L293.3-869.9z"/>
<rect x="274.1" y="-888" width="10" height="18.1"/>
<path fill="none" stroke="#000000" stroke-width="1.4713" stroke-miterlimit="10" d="M296.7-906.4c0-0.1-0.1-0.2-0.2-0.2
	c-0.1-0.1-0.1-0.2-0.2-0.3l-10.6-11.4c-0.3-0.4-0.8-0.6-1.3-0.6l-11.4,0v-7.1c0-0.5-0.2-0.9-0.5-1.3l-13.8-13.2
	c-0.3-0.3-0.8-0.5-1.2-0.5l-30.9-0.1h0c-0.5,0-1,0.2-1.3,0.6l-11.9,13.3c-0.3,0.3-0.4,0.7-0.4,1.2v25.3l-5,0h0
	c-0.6,0-1.1,0.3-1.4,0.8l-10.5,15.1c0,0.1-0.1,0.1-0.1,0.2c0,0.1-0.1,0.1-0.1,0.2c-0.1,0.2-0.1,0.4-0.1,0.6v29.7
	c0,1,0.8,1.8,1.8,1.8h62.7c1,0,1.8-0.8,1.8-1.8v-12.1h33c1,0,1.8-0.8,1.8-1.8v-37.6C296.8-905.9,296.8-906.2,296.7-906.4
	L296.7-906.4z"/>
<g>
	<g>
		
			<line fill="none" stroke="#000000" stroke-width="1.2463" stroke-miterlimit="10" x1="507.4" y1="-625.4" x2="470.6" y2="-662.9"/>
		<g>
			<polygon points="476.4,-665.9 464.4,-669.2 467.5,-657.2 			"/>
		</g>
	</g>
</g>
<g>
	<text transform="matrix(1 0 0 1 164.0887 -964.4148)" font-family="'MyriadPro-Regular'" font-size="16">other topics</text>
</g>
<text transform="matrix(1 0 0 1 124.3645 -790.3572)"><tspan x="0" y="0" font-family="'MyriadPro-Regular'" font-size="16">other </tspan><tspan x="0" y="19.2" font-family="'MyriadPro-Regular'" font-size="16">topics</tspan></text>
<text transform="matrix(1 0 0 1 491.613 -962.3201)"><tspan x="0" y="0" font-family="'MyriadPro-Regular'" font-size="16">other </tspan><tspan x="0" y="19.2" font-family="'MyriadPro-Regular'" font-size="16">topics</tspan></text>
<g>
	<path d="M372.4-723.9c0,2.7-2.2,5-5,5c-2.7,0-5-2.2-5-5c0-2.7,2.2-5,5-5C370.2-728.8,372.4-726.6,372.4-723.9"/>
	<path fill="none" stroke="#000000" stroke-width="1.3758" stroke-miterlimit="10" d="M380.2-702.9"/>
	<path d="M376.6-699.7l1,7.6L385-680c0.8,1.3,0.4,3-0.9,3.8c-0.5,0.3-1,0.4-1.4,0.4c-0.9,0-1.9-0.5-2.3-1.3l-7.8-12.7
		c-0.2-0.3-0.3-0.7-0.4-1.1l-0.7-5.1L376.6-699.7z"/>
	<path d="M352.8-708l7.2-2.6c1.1-1.4,2.3-2.8,3.4-4.1c1-1.2,1.9-2.8,3.5-3.1c0.6-0.1,3-0.3,3.6-0.2c0.6,0.1,1.1,0.3,1.6,0.6l6.6,2.8
		c1,0.4,2.1,0.8,2.8,1.8l4.4,7.6c0.8,1.3,0.3,3-1,3.8c-0.4,0.3-0.9,0.3-1.4,0.3c-1,0-1.9-0.5-2.4-1.4l-3.9-6.9l-3-1.3l2.1,9.6
		l-5.1,3.6l-7.6,5.5v13.2c0,1.5-1.2,2.8-2.8,2.8c-1.5,0-2.8-1.2-2.8-2.8v-14.6c0-0.9,0.4-1.7,1.1-2.2l8.3-6.1l-1.8-7.4l-2,2.5
		c-0.3,0.4-0.8,0.7-1.2,0.8l-7.8,2.9c-1.4,0.6-3-0.2-3.5-1.6C350.6-706,351.4-707.6,352.8-708L352.8-708z"/>
</g>
<path fill="none" stroke="#000000" stroke-width="0.7496" stroke-miterlimit="10" d="M334.6-789.3c0.4-0.1,0.8-0.2,1.3-0.2
	c14.2-2.4,63.2-1.6,67.3,5c1.1,1.8,1.6,20.4-1.1,26.4c-2.1,4.6-38.6,2.1-40,11.3c-0.7,4.7,2.6,8.5,5.4,11.8
	c-4.9,0.7-10.3-2.9-12.9-7c-1.3-2-2.2-4.4-4-6.1c-2.9-2.7-23.5-2.8-27-6.2c-4.7-4.5-2.7-13.3-2.8-19.2
	C320.7-783.8,325.3-787.5,334.6-789.3z"/>
<text transform="matrix(1 0 0 1 333.0586 -775.2057)"><tspan x="0" y="0" font-family="'MyriadPro-Regular'" font-size="13">What else </tspan><tspan x="0" y="15.6" font-family="'MyriadPro-Regular'" font-size="13">can I do?</tspan></text>
<path fill="#F7931E" d="M423.4-724.6L445-703h-43.2L423.4-724.6z M442.4-674.4h-4.8v-17.5c0-0.9-0.7-1.6-1.6-1.6h-9.5
	c-0.9,0-1.6,0.7-1.6,1.6v17.5h-20.6v-25.4h38.1V-674.4z M434.5-674.4h-6.4v-15.9h6.4V-674.4z M398-699.8h3.2v27
	c0,0.9,0.7,1.6,1.6,1.6H444c0.9,0,1.6-0.7,1.6-1.6v-27h3.2c0.6,0,1.2-0.4,1.5-1c0.2-0.6,0.1-1.3-0.3-1.7l-25.4-25.4
	c-0.6-0.6-1.6-0.6-2.2,0l-25.4,25.4c-0.5,0.5-0.6,1.1-0.3,1.7C396.7-700.2,397.3-699.8,398-699.8L398-699.8z"/>
<path fill="#F7931E" d="M412.3-690.3h6.4v6.4h-6.4V-690.3z M410.7-680.8h9.5c0.9,0,1.6-0.7,1.6-1.6v-9.5c0-0.9-0.7-1.6-1.6-1.6h-9.5
	c-0.9,0-1.6,0.7-1.6,1.6v9.5C409.1-681.5,409.8-680.8,410.7-680.8z"/>
<path fill="#F7931E" d="M203.3-1861.5c0-1.3,1-2.2,2.5-2.2h42.1c1.4,0,2.5,0.9,2.5,2.2s-1,2.2-2.5,2.2h-42.1
	C204.3-1859.3,203.3-1860.2,203.3-1861.5z M203.3-1884c0-1.3,1-2.2,2.5-2.2h42.1c1.4,0,2.5,0.9,2.5,2.2s-1,2.2-2.5,2.2h-42.1
	C204.3-1881.8,203.3-1882.7,203.3-1884z M203.3-1906.5c0-1.3,1-2.2,2.5-2.2h42.1c1.4,0,2.5,0.9,2.5,2.2s-1,2.2-2.5,2.2h-42.1
	C204.3-1904.2,203.3-1905.2,203.3-1906.5z M203.3-1929c0-1.3,1-2.2,2.5-2.2h42.1c1.4,0,2.5,0.9,2.5,2.2s-1,2.2-2.5,2.2h-42.1
	C204.3-1926.7,203.3-1927.7,203.3-1929z M188-1863.8c1.4,0,2.5,0.9,2.5,2.2s-1,2.2-2.5,2.2c-1.4,0-2.5-0.9-2.5-2.2
	S186.6-1863.8,188-1863.8z M188-1854.8c4.1,0,7.4-3,7.4-6.8c0-3.7-3.3-6.8-7.4-6.8c-4.1,0-7.4,3-7.4,6.8
	C180.6-1857.8,183.9-1854.8,188-1854.8z M188-1886.2c1.4,0,2.5,0.9,2.5,2.2s-1,2.2-2.5,2.2c-1.4,0-2.5-0.9-2.5-2.2
	S186.6-1886.2,188-1886.2z M188-1877.3c4.1,0,7.4-3,7.4-6.8c0-3.7-3.3-6.8-7.4-6.8c-4.1,0-7.4,3-7.4,6.8
	C180.6-1880.3,183.9-1877.3,188-1877.3z M188-1908.7c1.4,0,2.5,0.9,2.5,2.2s-1,2.2-2.5,2.2c-1.4,0-2.5-0.9-2.5-2.2
	S186.6-1908.7,188-1908.7z M188-1899.7c4.1,0,7.4-3,7.4-6.8c0-3.7-3.3-6.8-7.4-6.8c-4.1,0-7.4,3-7.4,6.8
	C180.6-1902.7,183.9-1899.7,188-1899.7z M188-1931.2c1.4,0,2.5,0.9,2.5,2.2s-1,2.2-2.5,2.2c-1.4,0-2.5-0.9-2.5-2.2
	S186.6-1931.2,188-1931.2z M188-1922.2c4.1,0,7.4-3,7.4-6.8c0-3.7-3.3-6.8-7.4-6.8c-4.1,0-7.4,3-7.4,6.8
	C180.6-1925.2,183.9-1922.2,188-1922.2z M260-1843.5h-89.2V-1947H260L260-1843.5z M262.5-1951.5h-94.1c-1.4,0-2.5,0.9-2.5,2.2v108
	c0,1.3,1,2.2,2.5,2.2h94.1c1.4,0,2.5-0.9,2.5-2.2v-108C265-1950.5,264-1951.5,262.5-1951.5z"/>
<g>
	<path fill="#F7931E" d="M593.6-1804.8c0-1.3,1-2.2,2.5-2.2h42.1c1.4,0,2.5,0.9,2.5,2.2s-1,2.2-2.5,2.2h-42.1
		C594.7-1802.5,593.6-1803.5,593.6-1804.8z"/>
	<path fill="none" stroke="#F7931E" stroke-width="5" stroke-miterlimit="10" d="M580.3-1799.7c3.1,0,5.6-2.3,5.6-5.1
		c0-2.8-2.5-5.1-5.6-5.1c-3.1,0-5.6,2.3-5.6,5.1C574.6-1802,577.2-1799.7,580.3-1799.7z"/>
</g>
<rect x="334.9" y="190.9" fill="none" stroke="#000000" stroke-width="1.9117" stroke-miterlimit="10" width="5.7" height="5.7"/>
<rect x="325.4" y="190.9" fill="none" stroke="#000000" stroke-width="1.9117" stroke-miterlimit="10" width="5.7" height="5.7"/>
<rect x="315.8" y="190.9" fill="none" stroke="#000000" stroke-width="1.9117" stroke-miterlimit="10" width="5.7" height="5.7"/>
<rect x="306.2" y="190.9" fill="none" stroke="#000000" stroke-width="1.9117" stroke-miterlimit="10" width="5.7" height="5.7"/>
<rect x="302.4" y="181.4" fill="none" stroke="#000000" stroke-width="1.9117" stroke-miterlimit="10" width="45.9" height="1.9"/>
<rect x="306.2" y="160.3" fill="none" stroke="#000000" stroke-width="1.9117" stroke-miterlimit="10" width="30.6" height="3.8"/>
<rect x="306.2" y="150.8" fill="none" stroke="#000000" stroke-width="1.9117" stroke-miterlimit="10" width="24.9" height="3.8"/>
<rect x="306.2" y="141.2" fill="none" stroke="#000000" stroke-width="1.9117" stroke-miterlimit="10" width="28.7" height="3.8"/>
<rect x="306.2" y="131.7" fill="none" stroke="#000000" stroke-width="1.9117" stroke-miterlimit="10" width="30.6" height="3.8"/>
<rect x="307.2" y="113" fill="none" stroke="#000000" stroke-width="1.9117" stroke-miterlimit="10" width="7.6" height="1.9"/>
<rect x="306.2" y="122.1" fill="none" stroke="#000000" stroke-width="1.9117" stroke-miterlimit="10" width="24.9" height="3.8"/>
<rect x="447.5" y="88.6" fill="none" stroke="#000000" stroke-width="1.9117" stroke-miterlimit="10" width="9.6" height="1.9"/>
<rect x="447.5" y="92.5" fill="none" stroke="#000000" stroke-width="1.9117" stroke-miterlimit="10" width="9.6" height="1.9"/>
<rect x="447.5" y="96.3" fill="none" stroke="#000000" stroke-width="1.9117" stroke-miterlimit="10" width="9.6" height="1.9"/>
<rect x="302.2" y="88.6" fill="none" stroke="#000000" stroke-width="1.9117" stroke-miterlimit="10" width="45.9" height="9.6"/>
<rect x="298.4" y="84.8" fill="none" stroke="#000000" stroke-width="1.9117" stroke-miterlimit="10" width="164.4" height="17.2"/>
<rect x="298.6" y="106.8" fill="none" stroke="#000000" stroke-width="1.9117" stroke-miterlimit="10" width="53.5" height="143.4"/>
<rect x="294.6" y="81" fill="none" stroke="#000000" stroke-width="1.9117" stroke-miterlimit="10" width="172.1" height="172.1"/>
<line fill="none" stroke="#333333" stroke-width="4" stroke-miterlimit="10" x1="368" y1="120" x2="440" y2="120"/>
<line fill="none" stroke="#333333" stroke-width="4" stroke-miterlimit="10" x1="368" y1="132" x2="456" y2="132"/>
<line fill="none" stroke="#333333" stroke-width="4" stroke-miterlimit="10" x1="368" y1="143" x2="451" y2="143"/>
<line fill="none" stroke="#333333" stroke-width="4" stroke-miterlimit="10" x1="368" y1="155" x2="457" y2="155"/>
<line fill="none" stroke="#333333" stroke-width="4" stroke-miterlimit="10" x1="368" y1="166" x2="456" y2="166"/>
<line fill="none" stroke="#333333" stroke-width="4" stroke-miterlimit="10" x1="368" y1="178" x2="457" y2="178"/>
<line fill="none" stroke="#333333" stroke-width="4" stroke-miterlimit="10" x1="368" y1="201" x2="444" y2="201"/>
<line fill="none" stroke="#333333" stroke-width="4" stroke-miterlimit="10" x1="368" y1="213" x2="451" y2="213"/>
<line fill="none" stroke="#333333" stroke-width="4" stroke-miterlimit="10" x1="368" y1="224" x2="457" y2="224"/>
<line fill="none" stroke="#333333" stroke-width="4" stroke-miterlimit="10" x1="368" y1="236" x2="456" y2="236"/>
<line fill="none" stroke="#333333" stroke-width="4" stroke-miterlimit="10" x1="368" y1="246" x2="457" y2="246"/>
<line fill="none" stroke="#3DA1D8" stroke-width="4" stroke-miterlimit="10" x1="381" y1="120" x2="394" y2="120"/>
<line fill="none" stroke="#3DA1D8" stroke-width="4" stroke-miterlimit="10" x1="382" y1="143" x2="396" y2="143"/>
<line fill="none" stroke="#3DA1D8" stroke-width="4" stroke-miterlimit="10" x1="421" y1="132" x2="440" y2="132"/>
<line fill="none" stroke="#3DA1D8" stroke-width="4" stroke-miterlimit="10" x1="414" y1="236" x2="433" y2="236"/>
<line fill="none" stroke="#3DA1D8" stroke-width="4" stroke-miterlimit="10" x1="410" y1="166" x2="434" y2="166"/>
<line fill="none" stroke="#3DA1D8" stroke-width="4" stroke-miterlimit="10" x1="427" y1="213" x2="447" y2="213"/>
<line fill="none" stroke="#3DA1D8" stroke-width="4" stroke-miterlimit="10" x1="369" y1="201" x2="391" y2="201"/>
<line fill="none" stroke="#3DA1D8" stroke-width="4" stroke-miterlimit="10" x1="382" y1="224" x2="392" y2="224"/>
<line fill="none" stroke="#3DA1D8" stroke-width="4" stroke-miterlimit="10" x1="385" y1="246" x2="404" y2="246"/>
<path d="M331.1,332.1c-7.6,0-14.6-3.3-20.6-9.9c-0.6-0.7-0.6-1.7,0.1-2.3c0.7-0.6,1.7-0.6,2.3,0.1c5.3,5.9,11.5,8.8,18.2,8.8
	c7.6,0,13.9-5,17.9-9.1c0.6-0.6,1.6-0.7,2.3-0.1c0.6,0.6,0.7,1.6,0.1,2.3C345,328.6,338,332.1,331.1,332.1L331.1,332.1z"/>
<path d="M254,374.1h156c-2.6-13.2-6.2-27.2-7.9-29.2c-2.6-2-29.2-11.8-52.9-19.9c-0.9-0.3-1.6-1.1-1.9-2c-0.2-0.9,0-1.9,0.7-2.7
	c6.8-7.2,11.4-16.8,12.7-22.8c0.2-0.7,0.6-1.3,1.1-1.7c0.8-0.6,2.4-3.3,2.5-6.6c0.1-1.5-0.2-3.5-1.7-4.7c-1.4-1.2-1.3-2.3-1-8.5
	c0.4-6.4,1.1-18.3-1-23.2c-4.7-10.9-11.1-16.5-19-16.5c-9.8,0-18.6,8.1-18.7,8.1c-0.6,0.5-1.3,0.8-2.1,0.7c-0.8-0.1-1.5-0.4-2-1
	c0,0-3.1-3.6-7.1-3.6c-4.4,0-8.8,4.4-12.9,12.7c-3.9,8-0.1,20.4,1.5,25.7c0.9,3.1,1.4,4.6-0.2,5.9c-1.4,1.2-1.5,3.4-1.5,4.7
	c0.1,2.9,1.5,5.6,2.4,6.2c0.6,0.4,1,1,1.2,1.7c0.8,3.3,4,14.6,11.7,23.1c0.6,0.7,0.9,1.7,0.7,2.6c-0.2,0.9-0.9,1.7-1.8,2
	c-17.6,6.7-46.3,17.8-49.8,19.8C261.3,347.3,257.2,361.1,254,374.1L254,374.1z"/>
<line fill="none" stroke="#686765" stroke-width="1.5124" stroke-miterlimit="10" x1="429.1" y1="236.7" x2="534" y2="166"/>
<text transform="matrix(1 0 0 1 526.9996 162.2493)" fill="#0C0C0C" font-family="'MyriadPro-Regular'" font-size="30">inline link</text>
<path fill="none" d="M404.6,340.1c3.2-4.9,6.4-9.8,9.6-14.8c1.4-2.2,2.9-4.4,4.6-6.4c2.7-3.1,6.2-5.5,8.8-8.8
	c2.8-3.5,4.4-7.7,6-11.8"/>
<path fill="none" d="M417.4,377.5c0.6-4.4,2.9-8.4,5-12.4c8.1-14.7,14.7-30.2,19.9-46.2"/>
<path d="M408.9,374.3c1.9-1.6,22.3-32.9,25.5-58.3c3.2-25.4,6.1-40.6-2.6-42.6c-8.8-2-5.7-14.6-8.4,3.5
	c-2.7,18.1-5.9,48.8-15.2,56.4c-9.3,7.6-19.7,8.8-19.7,8.8l-5.3,23.4L408.9,374.3z"/>
<circle fill="none" stroke="#F7931E" stroke-miterlimit="10" cx="422.6" cy="236.5" r="10.6"/>
<circle fill="none" stroke="#F7931E" stroke-width="0.598" stroke-miterlimit="10" cx="422.8" cy="236.7" r="6.3"/>
<circle fill="none" stroke="#F7931E" stroke-width="1.3725" stroke-miterlimit="10" cx="422.6" cy="236.6" r="14.5"/>
<path d="M439.5,255c-1.5,0-2.8,1.2-2.8,2.7v-1.6c0-1.5-1.2-2.7-2.8-2.7c-1.5,0-2.8,1.2-2.8,2.7v-1.6c0-1.5-1.2-2.7-2.8-2.7
	c-1.5,0-2.8,1.2-2.8,2.7l0-15.4c0-1.5-1.2-2.7-2.8-2.7s-2.8,1.2-2.8,2.7v25.8c0,0,0,0,0,0.1c-1.4-3.6-2-5.5-4.6-8.9
	c-1.5-1.7-3.8-1.8-5-0.5c-1.1,1.3-0.9,3.3,0.3,4.6c3.4,3.8,3.8,7.7,5.3,12.4c0,0,2.6,7.1,6.2,7.1h13.5c3.6,0,6.5-2.6,6.5-5.8v-2.8
	l0-13.5C442.3,256.2,441.1,255,439.5,255L439.5,255z"/>
<line fill="none" stroke="#686765" stroke-width="1.103" stroke-miterlimit="10" x1="227.7" y1="181.4" x2="306" y2="131"/>
<text transform="matrix(1 0 0 1 142.9996 201.3682)"><tspan x="0" y="0" fill="#0C0C0C" font-family="'MyriadPro-Regular'" font-size="30">sidebar </tspan><tspan x="0" y="36" fill="#0C0C0C" font-family="'MyriadPro-Regular'" font-size="30">navigation</tspan></text>
</svg>
