<?xml version="1.0" encoding="utf-8"?>
<!-- Generator: Adobe Illustrator 17.1.0, SVG Export Plug-In . SVG Version: 6.00 Build 0)  -->
<!DOCTYPE svg PUBLIC "-//W3C//DTD SVG 1.1//EN" "http://www.w3.org/Graphics/SVG/1.1/DTD/svg11.dtd">
<svg version="1.1" id="Layer_1" xmlns="http://www.w3.org/2000/svg" xmlns:xlink="http://www.w3.org/1999/xlink" x="0px" y="0px"
	 viewBox="0 0 775 445" enable-background="new 0 0 775 445" xml:space="preserve">
<path d="M174.4,212.1c6.9,14.6-9.8,22.5-16.7,7.9C150.8,205.3,167.5,197.4,174.4,212.1"/>
<path d="M303.4,224.7H202.7c-2.2,0-4.1-1.8-4.1-4.1c0-2.2,1.8-4.1,4.1-4.1h96.6V78.3H123.9v138.2h14.4c2.2,0,4.1,1.8,4.1,4.1
	c0,2.2-1.8,4.1-4.1,4.1h-18.4c-2.2,0-4.1-1.8-4.1-4.1V74.3c0-2.2,1.8-4.1,4.1-4.1h183.5c2.2,0,4.1,1.8,4.1,4.1v146.3
	C307.4,222.9,305.6,224.7,303.4,224.7L303.4,224.7z"/>
<path d="M103.9,249.4c-3.1,0-5.9-0.9-8.3-3.3c-5.2-5.2-2.3-13.1,0.5-20.7c2-5.4,4.2-11.5,3.7-16.6c-0.3-3.6-1-7.2-1.7-10.6
	c-1.5-8.1-3.1-16.5-0.3-26.2c3.5-12.1,3.1-24.4,3.1-24.6v-0.3c0-0.1,0.4-11.9-3.1-23.9c-2.8-9.8-1.2-18.1,0.3-26.2
	c0.7-3.4,1.3-7,1.7-10.6c0.4-5.1-1.7-10.9-3.7-16.6c-2.8-7.6-5.6-15.4-0.5-20.7c5.8-6,14.7-3.1,24.2,0.1c6.6,2.2,13.5,4.5,19.7,4
	c4.3-0.3,8.6-1,12.7-1.7c9.4-1.5,19.2-3.1,30.4-0.3c14.5,3.5,28.6,3.1,28.7,3.1c0.4,0,15.3,0.4,29.7-3.1c11.2-2.8,21-1.2,30.4,0.3
	c4.1,0.7,8.4,1.3,12.7,1.7c6.1,0.5,13-1.8,19.7-4c9.5-3.1,18.4-6.1,24.2-0.1c5.1,5.3,2.2,13.1-0.5,20.7c-2,5.6-4.2,11.4-3.7,16.6
	c0.3,3.6,1,7.2,1.7,10.6c1.5,8.1,3.1,16.4,0.3,26.2c-3.5,12.1-3.1,24.4-3.1,24.6v0.3c0,0.1-0.4,11.9,3.1,23.9
	c2.8,9.7,1.2,18.1-0.3,26.2c-0.7,3.5-1.3,7-1.7,10.6c-0.4,5.1,1.4,10.8,3.3,16.4c2.5,7.6,5.1,15.5-0.1,20.6
	c-5.8,5.6-14.2,2.7-23.2-0.4c-6.2-2.2-13.3-4.6-19.5-4.2c-4.3,0.3-8.6,1-12.7,1.7c-9.4,1.5-19.2,3.1-30.4,0.3
	c-14.5-3.5-34.7-3.1-34.9-3.1c-0.3,0-1.4,0-3.3,0c-2.2,0.1-4.1-1.8-4.1-4c0-2.2,1.8-4.1,4-4.1c2.2,0,3.5,0,3.5,0
	c0.7,0,21.3-0.4,36.9,3.4c9.6,2.3,18.2,1,27.2-0.5c4.3-0.7,8.7-1.4,13.4-1.8c7.9-0.6,15.8,2.2,22.8,4.6c6.2,2.2,12.7,4.4,14.9,2.3
	c1.6-1.6-0.3-7.2-1.9-12.2c-2-6-4.2-12.8-3.6-19.6c0.3-4,1.1-7.8,1.8-11.5c1.4-7.5,2.8-14.5,0.5-22.4c-3.7-12.7-3.5-24.7-3.4-26.3
	c0-1.6-0.3-14.2,3.4-27c2.3-7.9,0.9-14.9-0.5-22.4c-0.7-3.6-1.4-7.4-1.8-11.5c-0.6-6.9,1.9-13.9,4.2-20c1.8-5,3.9-10.7,2.3-12.3
	c-2.2-2.3-9.1,0-15.8,2.2c-7.1,2.3-15.1,5-22.8,4.4c-4.7-0.3-9.1-1.1-13.4-1.8c-9-1.5-17.5-2.8-27.2-0.5c-15.6,3.8-31,3.4-31.7,3.4
	c-0.4,0-15.1,0.4-30.6-3.4c-9.6-2.4-18.2-1-27.2,0.5c-4.3,0.7-8.7,1.4-13.4,1.8c-7.7,0.6-15.7-2.1-22.8-4.4
	c-6.7-2.2-13.6-4.5-15.8-2.2c-1.6,1.6,0.5,7.3,2.3,12.3c2.2,6.2,4.8,13.1,4.2,20c-0.3,4-1.1,7.8-1.8,11.4
	c-1.4,7.5-2.8,14.5-0.5,22.4c3.7,12.7,3.5,24.7,3.4,26.3c0,1.6,0.3,14.2-3.4,27c-2.3,7.9-0.9,14.9,0.5,22.4
	c0.7,3.6,1.4,7.4,1.8,11.4c0.6,6.9-2,13.9-4.2,20.1c-1.7,4.8-3.9,10.7-2.3,12.2c2.1,2.2,8-0.1,14.2-2.5c6.9-2.6,14.6-5.6,22.6-5
	c2.2,0.2,3.9,2.1,3.8,4.3c-0.2,2.2-2.1,4-4.3,3.8c-6.2-0.4-13.1,2.2-19.2,4.5C113.6,247.5,108.5,249.4,103.9,249.4L103.9,249.4z"/>
<path d="M186.4,272.1c0,6.5,8.4,5.8,8.3-1.6c-0.2-13.3-0.5-23.5-4.9-31.2c-4.6-8.1-15.5-7.5-21.1-7.4c-6.1,0.1-17.8,1.9-20.6,13.7
	c-2.5,10.8-1.6,20.8,0.2,26.8c2.5,8.6,9.3,5.2,7.8-1.4c-1.6-7.1-1.5-24.9,2.2-21.8c1.6,1.4,1.8,24.5,2.2,31.9
	c0.3,5.2-0.2,13,0.3,23.1c0.4,9,9.2,8.8,9.4,0.3c0.1-4.8,0.4-20.1,0.9-26.1c0.2-2,0.7-2.7,1.5-2.7c1.4,0,2,1.2,2.1,2.5
	c0.3,7.3,0.8,19.4,0.9,26.4c0.2,7.9,9.4,8.9,9-0.9c-0.4-10-1-21.5-1.2-29.9c-0.2-7.2-1.9-29,1-25.9
	C187.4,251,186.3,264.9,186.4,272.1L186.4,272.1z"/>
<path d="M560.8,176.6c4.9,3.5,6.1,10.3,2.6,15.3c-3.5,4.9-10.3,6.1-15.3,2.6c-4.9-3.5-6.1-10.3-2.6-15.3
	C549,174.3,555.9,173.1,560.8,176.6"/>
<path d="M519.5,230.4c0,0.1,0,0.1,0.1,0.1c0,0,0,0.1,0.1,0.3c0.5,1.4,2.6,7.9,2.6,17.8c0,5.2-0.6,11.3-2.2,18.2
	c-0.8,3.3,1.3,6.5,4.5,7.3c0.5,0.1,0.9,0.2,1.4,0.2c2.8,0,5.3-1.9,5.9-4.7c1.8-7.8,2.5-14.9,2.5-20.9c0-8.6-1.3-15.1-2.3-18.9
	c0.2-0.4,0.3-0.8,0.5-1.2c1.4-5.2,4.2-10.4,7.1-14.9c-0.2-0.3-0.5-0.6-0.7-0.9c-3.4-4.8-4.6-9.4-4.9-11.1l0-0.1
	c-0.2-1.3,0-2.6,0.8-3.7c0.7-1.1,1.8-1.8,3.1-2c0.3-0.1,0.6-0.1,0.9-0.1c2.3,0,4.3,1.7,4.8,4c0,0.1,0,0.1,0.1,0.2
	c0.1,0.2,0.1,0.5,0.3,1c0.2,0.8,0.7,2,1.4,3.4c0.1,0.2,0.2,0.3,0.2,0.5c2.1-3.8,2.1-8.7-0.9-10.9c-3.5-2.5-9.9-2.7-14.9,2.9
	c-6.8,7.8-9.9,13.5-12.8,24C515.9,225.6,517.3,228.5,519.5,230.4L519.5,230.4z"/>
<path d="M550.5,223.4l3.5,3.7l3.6-3.4c-2.1-0.3-4.1-0.7-6-1.4L550.5,223.4z"/>
<path d="M568.8,199.1c3.1-2.9,8-2.8,10.9,0.3c2.9,3.1,2.8,8-0.3,10.9c-3.1,2.9-8,2.8-10.9-0.3C565.6,206.9,565.7,202,568.8,199.1
	L568.8,199.1z M561.8,214.2c0.3,0,0.5,0,0.8,0l0.1,0c1.4,0,2.6,0.6,3.5,1.5l0.2-0.2l1.2,1.2l2-1.9c4,1.8,8.8,1.1,12.2-2.1
	c4.5-4.2,4.7-11.3,0.5-15.8c-4.2-4.5-11.3-4.7-15.8-0.5c-3.4,3.2-4.3,8-2.8,12l-2,1.8l1.2,1.3l-2.6,2.5
	C560.7,214.2,561.2,214.2,561.8,214.2L561.8,214.2z"/>
<path d="M542.9,201.1c-0.1-0.4-0.2-0.8-0.3-1c0-0.1,0-0.2-0.1-0.2c0,0,0,0,0,0s0,0,0,0c-0.4-2.1-2.4-3.5-4.5-3.1
	c-2.1,0.4-3.5,2.4-3.1,4.5c0.1,0.3,1,5.4,4.8,10.8c0.1,0.2,0.3,0.4,0.5,0.6c1.9,2.5,4.4,5,7.8,6.9c1.4,0.8,2.8,1.4,4.5,2
	c1.9,0.6,3.9,1.1,6.1,1.3c1,0.1,2,0.1,3.1,0.1h0c0.4,0,0.8,0,1.1,0c2.1-0.1,3.8-1.9,3.8-4c0-1-0.5-2-1.1-2.6
	c-0.7-0.7-1.8-1.2-2.9-1.1c-0.3,0-0.6,0-0.9,0c-0.8,0-1.6-0.1-2.4-0.1c-3.1-0.3-5.5-1.1-7.5-2.3c-3.3-1.8-5.5-4.6-6.9-7.1
	c-0.2-0.3-0.4-0.7-0.5-1C543.6,203.3,543.2,202,542.9,201.1L542.9,201.1z"/>
<line fill="none" stroke="#444343" stroke-miterlimit="10" x1="392.6" y1="23.6" x2="392.6" y2="445.6"/>
<text transform="matrix(1 0 0 1 38.782 354.7052)"><tspan x="0" y="0" font-family="'MyriadPro-Regular'" font-size="30">To understand the whole,</tspan><tspan x="0" y="36" font-family="'MyriadPro-Regular'" font-size="30">provide hierarchy of whole.</tspan></text>
<text transform="matrix(1 0 0 1 418.0395 354.7052)"><tspan x="0" y="0" font-family="'MyriadPro-Regular'" font-size="30">To understand just 1 part,</tspan><tspan x="0" y="36" font-family="'MyriadPro-Regular'" font-size="30">no need for hierarchy.</tspan></text>
<path fill="#F7931E" d="M203.4,175.1c0-1.3,1-2.2,2.5-2.2H248c1.4,0,2.5,0.9,2.5,2.2c0,1.3-1,2.2-2.5,2.2h-42.1
	C204.5,177.3,203.4,176.4,203.4,175.1z M203.4,152.6c0-1.3,1-2.2,2.5-2.2H248c1.4,0,2.5,0.9,2.5,2.2c0,1.3-1,2.2-2.5,2.2h-42.1
	C204.5,154.8,203.4,153.9,203.4,152.6z M203.4,130.1c0-1.3,1-2.2,2.5-2.2H248c1.4,0,2.5,0.9,2.5,2.2s-1,2.2-2.5,2.2h-42.1
	C204.5,132.4,203.4,131.4,203.4,130.1z M203.4,107.6c0-1.3,1-2.2,2.5-2.2H248c1.4,0,2.5,0.9,2.5,2.2c0,1.3-1,2.2-2.5,2.2h-42.1
	C204.5,109.9,203.4,108.9,203.4,107.6z M188.2,172.8c1.4,0,2.5,0.9,2.5,2.2s-1,2.2-2.5,2.2s-2.5-0.9-2.5-2.2
	S186.7,172.8,188.2,172.8z M188.2,181.8c4.1,0,7.4-3,7.4-6.8s-3.3-6.8-7.4-6.8c-4.1,0-7.4,3-7.4,6.8S184,181.8,188.2,181.8z
	 M188.2,150.4c1.4,0,2.5,0.9,2.5,2.2c0,1.3-1,2.2-2.5,2.2s-2.5-0.9-2.5-2.2C185.7,151.3,186.7,150.4,188.2,150.4z M188.2,159.4
	c4.1,0,7.4-3,7.4-6.8c0-3.7-3.3-6.8-7.4-6.8c-4.1,0-7.4,3-7.4,6.8C180.7,156.3,184,159.4,188.2,159.4z M188.2,127.9
	c1.4,0,2.5,0.9,2.5,2.2c0,1.3-1,2.2-2.5,2.2s-2.5-0.9-2.5-2.2C185.7,128.8,186.7,127.9,188.2,127.9z M188.2,136.9
	c4.1,0,7.4-3,7.4-6.8c0-3.7-3.3-6.8-7.4-6.8c-4.1,0-7.4,3-7.4,6.8C180.7,133.9,184,136.9,188.2,136.9z M188.2,105.4
	c1.4,0,2.5,0.9,2.5,2.2c0,1.3-1,2.2-2.5,2.2s-2.5-0.9-2.5-2.2C185.7,106.3,186.7,105.4,188.2,105.4z M188.2,114.4
	c4.1,0,7.4-3,7.4-6.8s-3.3-6.8-7.4-6.8c-4.1,0-7.4,3-7.4,6.8S184,114.4,188.2,114.4z M260.2,193.1H171V89.6h89.2L260.2,193.1z
	 M262.7,85.1h-94.1c-1.4,0-2.5,0.9-2.5,2.2v108c0,1.3,1,2.2,2.5,2.2h94.1c1.4,0,2.5-0.9,2.5-2.2v-108
	C265.1,86.1,264.1,85.1,262.7,85.1z"/>
<g>
	<path fill="#F7931E" d="M593.8,231.8c0-1.3,1-2.2,2.5-2.2h42.1c1.4,0,2.5,0.9,2.5,2.2c0,1.3-1,2.2-2.5,2.2h-42.1
		C594.8,234.1,593.8,233.1,593.8,231.8z"/>
	<path fill="none" stroke="#F7931E" stroke-width="5" stroke-miterlimit="10" d="M580.4,236.9c3.1,0,5.6-2.3,5.6-5.1
		s-2.5-5.1-5.6-5.1c-3.1,0-5.6,2.3-5.6,5.1S577.3,236.9,580.4,236.9z"/>
</g>
</svg>
