<?xml version="1.0" encoding="utf-8"?>
<!-- Generator: Adobe Illustrator 17.1.0, SVG Export Plug-In . SVG Version: 6.00 Build 0)  -->
<!DOCTYPE svg PUBLIC "-//W3C//DTD SVG 1.1//EN" "http://www.w3.org/Graphics/SVG/1.1/DTD/svg11.dtd">
<svg version="1.1" id="Layer_1" xmlns="http://www.w3.org/2000/svg" xmlns:xlink="http://www.w3.org/1999/xlink" x="0px" y="0px"
	 viewBox="0 0 775 445" enable-background="new 0 0 775 445" xml:space="preserve">
<text transform="matrix(1 0 0 1 92.4999 381.1003)" font-family="'MyriadPro-Regular'" font-size="30">complex system</text>
<path d="M592.3,272.7c0-2.5,1.8-4.3,4.3-4.3h73.5c2.5,0,4.3,1.8,4.3,4.3c0,2.5-1.8,4.3-4.3,4.3h-73.5
	C594.1,277.1,592.3,275.3,592.3,272.7z M592.3,229.5c0-2.5,1.8-4.3,4.3-4.3h73.5c2.5,0,4.3,1.8,4.3,4.3s-1.8,4.3-4.3,4.3h-73.5
	C594.1,233.8,592.3,232,592.3,229.5z M592.3,186.2c0-2.5,1.8-4.3,4.3-4.3h73.5c2.5,0,4.3,1.8,4.3,4.3s-1.8,4.3-4.3,4.3h-73.5
	C594.1,190.5,592.3,188.7,592.3,186.2z M592.3,142.9c0-2.5,1.8-4.3,4.3-4.3h73.5c2.5,0,4.3,1.8,4.3,4.3c0,2.5-1.8,4.3-4.3,4.3h-73.5
	C594.1,147.3,592.3,145.5,592.3,142.9z M565.6,268.4c2.5,0,4.3,1.8,4.3,4.3c0,2.5-1.8,4.3-4.3,4.3s-4.3-1.8-4.3-4.3
	C561.3,270.2,563.1,268.4,565.6,268.4z M565.6,285.7c7.2,0,13-5.8,13-13s-5.8-13-13-13s-13,5.8-13,13S558.4,285.7,565.6,285.7z
	 M565.6,225.1c2.5,0,4.3,1.8,4.3,4.3s-1.8,4.3-4.3,4.3s-4.3-1.8-4.3-4.3S563.1,225.1,565.6,225.1z M565.6,242.5c7.2,0,13-5.8,13-13
	s-5.8-13-13-13s-13,5.8-13,13S558.4,242.5,565.6,242.5z M565.6,181.9c2.5,0,4.3,1.8,4.3,4.3c0,2.5-1.8,4.3-4.3,4.3s-4.3-1.8-4.3-4.3
	C561.3,183.7,563.1,181.9,565.6,181.9z M565.6,199.2c7.2,0,13-5.8,13-13c0-7.2-5.8-13-13-13s-13,5.8-13,13
	C552.6,193.4,558.4,199.2,565.6,199.2z M565.6,138.6c2.5,0,4.3,1.8,4.3,4.3c0,2.5-1.8,4.3-4.3,4.3s-4.3-1.8-4.3-4.3
	C561.3,140.4,563.1,138.6,565.6,138.6z M565.6,155.9c7.2,0,13-5.8,13-13s-5.8-13-13-13s-13,5.8-13,13S558.4,155.9,565.6,155.9z
	 M691.4,307.4H535.6v-199h155.8L691.4,307.4z M695.7,99.7H531.3c-2.5,0-4.3,1.8-4.3,4.3v207.7c0,2.5,1.8,4.3,4.3,4.3h164.4
	c2.5,0,4.3-1.8,4.3-4.3V104C700.1,101.5,698.3,99.7,695.7,99.7z"/>
<path d="M277,244c0-2.4-1.6-4-4-4c-2.4,0-4,1.6-4,4v8c0,2.4,1.6,4,4,4c2.4,0,4-1.6,4-4V244z M277,264c0-2.4-1.6-4-4-4
	c-2.4,0-4,1.6-4,4v8c0,2.4,1.6,4,4,4c2.4,0,4-1.6,4-4V264z M273,280c-2.4,0-4,1.6-4,4v8c0,2.4,1.6,4,4,4c2.4,0,4-1.6,4-4v-8
	C277,281.6,275.4,280,273,280z M237,280H101v8h136V280z M245,276v16c0,2.4-1.6,4-4,4H97c-2.4,0-4-1.6-4-4v-16c0-2.4,1.6-4,4-4h144
	C243.4,272,245,273.6,245,276z M101,256h136v-8H101V256z M97,240h144c2.4,0,4,1.6,4,4v16c0,2.4-1.6,4-4,4H97c-2.4,0-4-1.6-4-4v-16
	C93,241.6,94.6,240,97,240z M97,224c2.4,0,4-1.6,4-4v-12c0-2.4-1.6-4-4-4s-4,1.6-4,4v12C93,222.4,94.6,224,97,224z M113,220
	c0,2.4,1.6,4,4,4c2.4,0,4-1.6,4-4v-12c0-2.4-1.6-4-4-4c-2.4,0-4,1.6-4,4V220z M117,188c2.4,0,4-1.6,4-4v-12c0-2.4-1.6-4-4-4
	c-2.4,0-4,1.6-4,4v12C113,186.4,114.6,188,117,188z M153,192h24c2.4,0,4-1.6,4-4s-1.6-4-4-4h-24c-2.4,0-4,1.6-4,4S150.6,192,153,192
	z M153,208h24c2.4,0,4-1.6,4-4c0-2.4-1.6-4-4-4h-24c-2.4,0-4,1.6-4,4C149,206.4,150.6,208,153,208z M189,176h-48v40h48V176z
	 M197,172v48c0,2.4-1.6,4-4,4h-56c-2.4,0-4-1.6-4-4v-48c0-2.4,1.6-4,4-4h56C195.4,168,197,169.6,197,172z M141,140h48V92h-48V140z
	 M133,128v-8h-4c-2.4,0-4-1.6-4-4c0-2.4,1.6-4,4-4h4v-8h-4c-2.4,0-4-1.6-4-4c0-2.4,1.6-4,4-4h4v-8c0-2.4,1.6-4,4-4h8v-4
	c0-2.4,1.6-4,4-4s4,1.6,4,4v4h8v-4c0-2.4,1.6-4,4-4s4,1.6,4,4v4h8v-4c0-2.4,1.6-4,4-4c2.4,0,4,1.6,4,4v4h8c2.4,0,4,1.6,4,4v8h4
	c2.4,0,4,1.6,4,4c0,2.4-1.6,4-4,4h-4v8h4c2.4,0,4,1.6,4,4c0,2.4-1.6,4-4,4h-4v8h4c2.4,0,4,1.6,4,4s-1.6,4-4,4h-4v8c0,2.4-1.6,4-4,4
	h-8v4c0,2.4-1.6,4-4,4c-2.4,0-4-1.6-4-4v-4h-8v4c0,2.4-1.6,4-4,4s-4-1.6-4-4v-4h-8v4c0,2.4-1.6,4-4,4s-4-1.6-4-4v-4h-8
	c-2.4,0-4-1.6-4-4v-8h-4c-2.4,0-4-1.6-4-4s1.6-4,4-4H133z M229,160h8V84h-8V160z M237,168h-8v48h8V168z M225,224c-2.4,0-4-1.6-4-4
	V80c0-2.4,1.6-4,4-4h16c2.4,0,4,1.6,4,4v140c0,2.4-1.6,4-4,4H225z M269,168h-8v48h8V168z M261,160h8V84h-8V160z M277,220
	c0,2.4-1.6,4-4,4h-16c-2.4,0-4-1.6-4-4V80c0-2.4,1.6-4,4-4h16c2.4,0,4,1.6,4,4V220z M81,148h20v-32H81V148z M73,152v-40
	c0-2.4,1.6-4,4-4h28c2.4,0,4,1.6,4,4v40c0,2.4-1.6,4-4,4H77C74.6,156,73,154.4,73,152z M81,180h12v-12H81V180z M73,184v-20
	c0-2.4,1.6-4,4-4h20c2.4,0,4,1.6,4,4v20c0,2.4-1.6,4-4,4H77C74.6,188,73,186.4,73,184z M81,96h12v-8H81V96z M73,100V84
	c0-2.4,1.6-4,4-4h20c2.4,0,4,1.6,4,4v16c0,2.4-1.6,4-4,4H77C74.6,104,73,102.4,73,100z M297,64v248c0,2.4-1.6,4-4,4H77
	c-2.4,0-4-1.6-4-4V196c0-2.4,1.6-4,4-4c2.4,0,4,1.6,4,4v112h208V68H81v4c0,2.4-1.6,4-4,4c-2.4,0-4-1.6-4-4v-8c0-2.4,1.6-4,4-4h216
	C295.4,60,297,61.6,297,64L297,64z"/>
<text transform="matrix(1 0 0 1 526.9997 381.1001)" font-family="'MyriadPro-Regular'" font-size="30">a list of parts</text>
<g>
	<g>
		<line fill="none" stroke="#000000" stroke-width="6" stroke-miterlimit="10" x1="323" y1="205" x2="484" y2="205"/>
		<g>
			<polygon points="479,221.2 507,205 479,188.8 			"/>
		</g>
	</g>
</g>
<circle cx="209" cy="193.7" r="6"/>
<circle cx="209" cy="216.7" r="6"/>
<circle cx="209" cy="170.7" r="6"/>
<line fill="none" stroke="#000000" stroke-width="8" stroke-linecap="round" stroke-miterlimit="10" x1="258" y1="243" x2="258" y2="298"/>
<circle fill="none" stroke="#000000" stroke-linecap="round" stroke-miterlimit="10" cx="148.3" cy="110.5" r="3"/>
<circle fill="none" stroke="#000000" stroke-linecap="round" stroke-miterlimit="10" cx="148.3" cy="132.4" r="3"/>
<circle fill="none" stroke="#000000" stroke-linecap="round" stroke-miterlimit="10" cx="148.3" cy="99.6" r="3"/>
<circle fill="none" stroke="#000000" stroke-linecap="round" stroke-miterlimit="10" cx="148.3" cy="121.3" r="3"/>
<circle fill="none" stroke="#000000" stroke-linecap="round" stroke-miterlimit="10" cx="159.3" cy="110.5" r="3"/>
<circle fill="none" stroke="#000000" stroke-linecap="round" stroke-miterlimit="10" cx="159.3" cy="132.4" r="3"/>
<circle fill="none" stroke="#000000" stroke-linecap="round" stroke-miterlimit="10" cx="159.3" cy="99.6" r="3"/>
<circle fill="none" stroke="#000000" stroke-linecap="round" stroke-miterlimit="10" cx="159.3" cy="121.3" r="3"/>
<circle fill="none" stroke="#000000" stroke-linecap="round" stroke-miterlimit="10" cx="169.3" cy="110.5" r="3"/>
<circle fill="none" stroke="#000000" stroke-linecap="round" stroke-miterlimit="10" cx="169.3" cy="132.4" r="3"/>
<circle fill="none" stroke="#000000" stroke-linecap="round" stroke-miterlimit="10" cx="169.3" cy="99.6" r="3"/>
<circle fill="none" stroke="#000000" stroke-linecap="round" stroke-miterlimit="10" cx="169.3" cy="121.3" r="3"/>
<circle fill="none" stroke="#000000" stroke-linecap="round" stroke-miterlimit="10" cx="180.3" cy="110.5" r="3"/>
<circle fill="none" stroke="#000000" stroke-linecap="round" stroke-miterlimit="10" cx="180.3" cy="132.4" r="3"/>
<circle fill="none" stroke="#000000" stroke-linecap="round" stroke-miterlimit="10" cx="180.3" cy="99.6" r="3"/>
<circle fill="none" stroke="#000000" stroke-linecap="round" stroke-miterlimit="10" cx="180.3" cy="121.3" r="3"/>
<rect x="100" y="280" width="141" height="16"/>
<rect x="225" y="82" width="16" height="79"/>
</svg>
