<?xml version="1.0" encoding="utf-8"?>
<!-- Generator: Adobe Illustrator 17.1.0, SVG Export Plug-In . SVG Version: 6.00 Build 0)  -->
<!DOCTYPE svg PUBLIC "-//W3C//DTD SVG 1.1//EN" "http://www.w3.org/Graphics/SVG/1.1/DTD/svg11.dtd">
<svg version="1.1" id="Layer_1" xmlns="http://www.w3.org/2000/svg" xmlns:xlink="http://www.w3.org/1999/xlink" x="0px" y="0px"
	 viewBox="0 0 600 200" enable-background="new 0 0 600 200" xml:space="preserve">
<path d="M289.5,179.5l-0.4-5.3h-9.9l-0.3,5.3H289.5z M335.4,179.5v-0.1V179.5z M233,179.4v0.1V179.4z M288.1,161.8l-7.7,0l-0.7,8.8
	h9.1L288.1,161.8z M281.4,149.5l-0.7,7.1h7.1l-0.7-7.1H281.4z M204.7,20.5v159l51.4-32.5c-13.8-8.2-23.3-22.2-26-38
	c-2.6-15.9,1.8-32.1,12.2-44.4c10.4-12.3,25.7-19.4,41.8-19.4c16.1,0,31.4,7.1,41.8,19.4c10.4,12.3,14.9,28.5,12.2,44.4
	c-2.6,15.9-12.1,29.8-26,38l51.5,32.5v-159H204.7z M310.7,143.9V73.5h-53v70.4c-14.1-9-24.7-25.3-24.7-43.9
	c0-18.3,9.8-35.2,25.6-44.4c15.9-9.1,35.4-9.1,51.2,0c15.9,9.2,25.6,26.1,25.6,44.4C335.4,118.6,324.8,134.9,310.7,143.9
	L310.7,143.9z"/>
</svg>
