<?xml version="1.0" encoding="utf-8"?>
<!-- Generator: Adobe Illustrator 17.1.0, SVG Export Plug-In . SVG Version: 6.00 Build 0)  -->
<!DOCTYPE svg PUBLIC "-//W3C//DTD SVG 1.1//EN" "http://www.w3.org/Graphics/SVG/1.1/DTD/svg11.dtd">
<svg version="1.1" id="Layer_1" xmlns="http://www.w3.org/2000/svg" xmlns:xlink="http://www.w3.org/1999/xlink" x="0px" y="0px"
	 viewBox="0 0 600 200" enable-background="new 0 0 600 200" xml:space="preserve">
<path d="M302.1,170.7c-3.9,0-7.4-1.7-10.4-5c-0.3-0.3-0.3-0.9,0.1-1.2c0.3-0.3,0.9-0.3,1.2,0.1c2.7,3,5.8,4.5,9.2,4.5
	c3.8,0,7-2.5,9-4.6c0.3-0.3,0.8-0.3,1.2,0c0.3,0.3,0.3,0.8,0,1.2C309.1,169,305.6,170.7,302.1,170.7L302.1,170.7z"/>
<path d="M270.2,188H334c-1.1-5.4-2.5-11.1-3.2-11.9c-1.1-0.8-11.9-4.8-21.6-8.1c-0.4-0.1-0.7-0.4-0.8-0.8c-0.1-0.4,0-0.8,0.3-1.1
	c2.8-2.9,4.6-6.9,5.2-9.3c0.1-0.3,0.2-0.5,0.5-0.7c0.3-0.2,1-1.4,1-2.7c0-0.6-0.1-1.4-0.7-1.9c-0.6-0.5-0.5-0.9-0.4-3.5
	c0.2-2.6,0.4-7.5-0.4-9.5c-1.9-4.5-4.5-6.7-7.8-6.7c-4,0-7.6,3.3-7.7,3.3c-0.2,0.2-0.5,0.3-0.9,0.3c-0.3,0-0.6-0.2-0.8-0.4
	c0,0-1.3-1.5-2.9-1.5c-1.8,0-3.6,1.8-5.3,5.2c-1.6,3.3-0.1,8.4,0.6,10.5c0.4,1.3,0.6,1.9-0.1,2.4c-0.6,0.5-0.6,1.4-0.6,1.9
	c0.1,1.2,0.6,2.3,1,2.5c0.2,0.2,0.4,0.4,0.5,0.7c0.3,1.3,1.6,6,4.8,9.4c0.3,0.3,0.4,0.7,0.3,1.1c-0.1,0.4-0.4,0.7-0.7,0.8
	c-7.2,2.7-18.9,7.3-20.3,8.1C273.3,177.1,271.6,182.7,270.2,188L270.2,188z"/>
<path d="M283.1,18.4c-2.7-1-5.7,0.8-6.5,3.8L239,159.1c-0.8,3,0.8,6.3,3.5,7.1c0.6,0.3,1.1,0.3,1.7,0.3c2.3,0,4.4-1.6,5-4.1
	l37.5-136.7C287.3,22.5,285.8,19.4,283.1,18.4L283.1,18.4z"/>
<path d="M363,162.4L327,22.5c-0.7-3-3.6-4.9-6.2-3.9c-2.6,0.8-4.2,4.2-3.3,7.3l35.9,140.1c0.7,2.4,2.6,4,4.8,4c0.4,0,1,0,1.4-0.2
	C362.3,168.8,363.7,165.6,363,162.4L363,162.4z"/>
<path d="M304.7,82.1c-0.1-1.4-1.3-2.4-2.7-2.4c-1.4,0-2.5,1-2.7,2.4l-2.4,31.3c0,0.7,0.2,1.5,0.7,2c0.5,0.6,1.3,0.8,2,0.8h4.9
	c0.7,0,1.5-0.3,2-0.8c0.5-0.6,0.8-1.3,0.7-2L304.7,82.1z"/>
<path d="M302,47.4c-0.7,0-1.3,0.5-1.3,1.2l-2.4,19.2c0,0.3,0.1,0.8,0.3,1c0.2,0.2,0.6,0.5,1,0.5h4.9c0.3,0,0.7-0.1,1-0.5
	c0.2-0.2,0.3-0.7,0.3-1l-2.4-19.2C303.3,47.9,302.7,47.4,302,47.4L302,47.4z"/>
<path d="M299.6,38h4.9c0.5,0,0.8-0.2,1-0.5c0.2-0.3,0.3-0.7,0.2-1.2l-2.4-9.6c-0.1-0.6-0.7-1-1.3-1s-1.2,0.5-1.3,1l-2.4,9.6
	c-0.1,0.3,0,0.8,0.2,1.2C298.8,37.8,299.2,38,299.6,38L299.6,38z"/>
<text transform="matrix(0.2844 -0.9587 0.9587 0.2844 240.3681 132.0711)" fill="#0C0C0C" font-family="'MyriadPro-Regular'" font-size="15.1842">user’s system</text>
<g>
	<path d="M337.6,33.3V16.6h43.1v16.7H337.6z M380.7,34.6h-1.1V34h1.1L380.7,34.6L380.7,34.6z M341.6,34.6h-2.2V34h2.2L341.6,34.6
		L341.6,34.6z M344.5,34.6h-2.2V34h2.2L344.5,34.6L344.5,34.6z M347.4,34.6h-2.2V34h2.2L347.4,34.6L347.4,34.6z M350.3,34.6H348V34
		h2.2L350.3,34.6L350.3,34.6z M353.1,34.6h-2.2V34h2.2L353.1,34.6L353.1,34.6z M356,34.6h-2.2V34h2.2L356,34.6L356,34.6z
		 M358.9,34.6h-2.2V34h2.2L358.9,34.6L358.9,34.6z M361.7,34.6h-2.2V34h2.2L361.7,34.6L361.7,34.6z M364.6,34.6h-2.2V34h2.2
		L364.6,34.6L364.6,34.6z M367.5,34.6h-2.2V34h2.2L367.5,34.6L367.5,34.6z M370.3,34.6h-2.2V34h2.2L370.3,34.6L370.3,34.6z
		 M373.2,34.6H371V34h2.2L373.2,34.6L373.2,34.6z M376.1,34.6h-2.2V34h2.2V34.6z M379,34v0.6h-2.2V34H379z M337.6,34h1.1v0.6h-1.1
		V34z M374.3,15.9l0.5-1h1.1v-0.3h-0.2l-0.3-0.9h-1l-0.3,0.9h-0.2v0.3h0.6l-0.5,1l-6.9,0l0.4-1h1v-0.3h-0.2l-0.3-0.9H367l-0.3,0.9
		h-0.2v0.3h0.7l-0.4,1H359v-1h0.9v-0.3h-0.2l-0.4-0.9h-0.9l-0.3,0.9h-0.2v0.3h0.9v1h-7.1l-0.5-1h0.6v-0.3h-0.2l-0.3-0.9h-0.9
		l-0.3,0.9h-0.2v0.3h1.2l0.5,1l-6.8,0l-0.6-1l0.6,0v-0.3h-0.2l-0.3-0.9h-1l-0.3,0.9h-0.2v0.3h1.2l0.6,1l-7.3,0v19.5h18.7l0.6,2.2
		h0.6v24.6h4.6V37.5h0.6l0.7-2.2h18.7V15.9L374.3,15.9z"/>
	<line fill="none" stroke="#333333" stroke-width="2" stroke-miterlimit="10" x1="341" y1="19" x2="378" y2="19"/>
	<line fill="none" stroke="#333333" stroke-width="2" stroke-miterlimit="10" x1="341" y1="25" x2="377" y2="25"/>
	<line fill="none" stroke="#333333" stroke-width="2" stroke-miterlimit="10" x1="341" y1="30" x2="377" y2="30"/>
	<line fill="none" stroke="#3DA1D8" stroke-width="2" stroke-miterlimit="10" x1="341" y1="19" x2="346" y2="19"/>
	<line fill="none" stroke="#3DA1D8" stroke-width="2" stroke-miterlimit="10" x1="341" y1="30" x2="347" y2="30"/>
	<line fill="none" stroke="#3DA1D8" stroke-width="2" stroke-miterlimit="10" x1="359" y1="25" x2="370" y2="25"/>
</g>
</svg>
