<?xml version="1.0" encoding="utf-8"?>
<!-- Generator: Adobe Illustrator 17.1.0, SVG Export Plug-In . SVG Version: 6.00 Build 0)  -->
<!DOCTYPE svg PUBLIC "-//W3C//DTD SVG 1.1//EN" "http://www.w3.org/Graphics/SVG/1.1/DTD/svg11.dtd">
<svg version="1.1" id="Layer_1" xmlns="http://www.w3.org/2000/svg" xmlns:xlink="http://www.w3.org/1999/xlink" x="0px" y="0px"
	 viewBox="0 0 600 200" enable-background="new 0 0 600 200" xml:space="preserve">
<path d="M325.3,135.1c8,0,16,3,21.6,8c5.5,5,8.7,11.4,8.8,18.3h-37.4c0-8-3-15.9-8.1-22.4C314.8,136.6,320,135.1,325.3,135.1
	L325.3,135.1z M275.5,126.3c10.3,0,20.6,3.8,27.8,10.3c7.2,6.5,11.4,15.7,11.4,24.8h-78.4c0-9.1,4.2-18.3,11.4-24.8
	C255,130.2,265.2,126.3,275.5,126.3z M324.6,105.3c6.8,0,12.3,5.5,12.3,12.3c0,6.8-5.5,12.3-12.3,12.3s-12.3-5.5-12.3-12.3
	C312.3,110.8,317.8,105.3,324.6,105.3z M275,86c9.7,0,17.6,7.8,17.6,17.6s-7.8,17.6-17.6,17.6s-17.6-7.8-17.6-17.6S265.2,86,275,86z
	 M275,82.4c-11.6,0-21.1,9.5-21.1,21.1c0,9.2,6,17.1,14.3,19.9c-8.5,1.4-16.6,5.1-22.8,10.6c-7.9,7.1-12.6,17.2-12.6,27.3v0.1
	c0,0.6,0,1.2,0.1,1.8c0,0.9,0.8,1.7,1.8,1.7h122.9c0.9,0,1.7-0.8,1.8-1.7c0-0.6,0-1.1,0-1.5c0-8.1-3.7-15.6-10-21.2
	c-5-4.5-11.5-7.4-18.3-8.5c5.6-2.4,9.5-8.1,9.5-14.5c0-8.7-7.1-15.8-15.8-15.8c-8.7,0-15.8,7.1-15.8,15.8c0,6.6,4.1,12.4,9.9,14.7
	c-3.9,0.7-7.7,2.1-11.1,4c-0.7-0.7-1.2-1.5-2-2.1c-6.4-5.7-14.8-9.5-23.6-10.8c8.1-2.9,13.9-10.7,13.9-19.8
	C296,91.9,286.6,82.4,275,82.4L275,82.4z M331.2,38.5c8.9,0,16.9,2.5,22.6,6.4s9,9.1,9,14.7s-3.3,10.8-9,14.7s-13.7,6.4-22.6,6.4
	h-5.3c-0.2,0-0.5,0.1-0.7,0.2l-13.3,5.9v-9.6c0-0.6-0.3-1.2-0.9-1.5c-7.1-4-11.4-9.7-11.4-16c0-5.6,3.3-10.8,9-14.7
	C314.2,41,322.3,38.5,331.2,38.5L331.2,38.5z M331.2,35c-9.5,0-18.2,2.6-24.6,7c-6.4,4.4-10.5,10.6-10.5,17.6
	c0,7.6,5,14.1,12.3,18.5v11.4c0,0.6,0.3,1.1,0.8,1.5c0.5,0.3,1.1,0.4,1.7,0.1l15.4-6.9h4.9c9.5,0,18.2-2.6,24.6-7
	c6.4-4.4,10.5-10.6,10.5-17.6s-4.2-13.2-10.5-17.6C349.4,37.6,340.7,35,331.2,35L331.2,35z"/>
</svg>
