<?xml version="1.0" encoding="utf-8"?>
<!-- Generator: Adobe Illustrator 17.1.0, SVG Export Plug-In . SVG Version: 6.00 Build 0)  -->
<!DOCTYPE svg PUBLIC "-//W3C//DTD SVG 1.1//EN" "http://www.w3.org/Graphics/SVG/1.1/DTD/svg11.dtd">
<svg version="1.1" id="Layer_1" xmlns="http://www.w3.org/2000/svg" xmlns:xlink="http://www.w3.org/1999/xlink" x="0px" y="0px"
	 viewBox="0 0 600 200" enable-background="new 0 0 600 200" xml:space="preserve">
<path d="M242.7,46.8c0,9.2-7.4,16.6-16.6,16.6c-9.2,0-16.6-7.4-16.6-16.6c0-9.2,7.4-16.6,16.6-16.6
	C235.3,30.2,242.7,37.6,242.7,46.8"/>
<path d="M242.7,84c0,9.2-7.4,16.6-16.6,16.6c-9.2,0-16.6-7.4-16.6-16.6s7.4-16.6,16.6-16.6C235.3,67.4,242.7,74.8,242.7,84"/>
<path d="M242.7,121.2c0,9.2-7.4,16.6-16.6,16.6c-9.2,0-16.6-7.4-16.6-16.6c0-9.2,7.4-16.6,16.6-16.6
	C235.3,104.6,242.7,112,242.7,121.2"/>
<path d="M242.7,158.4c0,9.2-7.4,16.6-16.6,16.6c-9.2,0-16.6-7.4-16.6-16.6c0-9.2,7.4-16.6,16.6-16.6
	C235.3,141.8,242.7,149.3,242.7,158.4"/>
<path d="M279.9,46.8c0,9.2-7.4,16.6-16.6,16.6c-9.2,0-16.6-7.4-16.6-16.6c0-9.2,7.4-16.6,16.6-16.6
	C272.5,30.2,279.9,37.6,279.9,46.8"/>
<path d="M279.9,84c0,9.2-7.4,16.6-16.6,16.6s-16.6-7.4-16.6-16.6s7.4-16.6,16.6-16.6S279.9,74.8,279.9,84"/>
<path d="M279.9,121.2c0,9.2-7.4,16.6-16.6,16.6c-9.2,0-16.6-7.4-16.6-16.6c0-9.2,7.4-16.6,16.6-16.6
	C272.5,104.6,279.9,112,279.9,121.2"/>
<path d="M279.9,158.4c0,9.2-7.4,16.6-16.6,16.6c-9.2,0-16.6-7.4-16.6-16.6c0-9.2,7.4-16.6,16.6-16.6
	C272.5,141.8,279.9,149.3,279.9,158.4"/>
<path d="M317.2,46.8c0,9.2-7.4,16.6-16.6,16.6s-16.6-7.4-16.6-16.6c0-9.2,7.4-16.6,16.6-16.6S317.2,37.6,317.2,46.8"/>
<path d="M317.2,84c0,9.2-7.4,16.6-16.6,16.6c-9.2,0-16.6-7.4-16.6-16.6s7.4-16.6,16.6-16.6C309.7,67.4,317.2,74.8,317.2,84"/>
<path d="M300.5,133.5c-6.7,0-12.2-5.5-12.2-12.2c0-6.7,5.5-12.2,12.2-12.2c6.7,0,12.2,5.5,12.2,12.2
	C312.8,128,307.3,133.5,300.5,133.5z M300.5,104.6c-9.1,0-16.6,7.4-16.6,16.6c0,9.1,7.4,16.6,16.6,16.6c9.1,0,16.6-7.4,16.6-16.6
	S309.7,104.6,300.5,104.6z"/>
<path d="M317.2,158.4c0,9.2-7.4,16.6-16.6,16.6s-16.6-7.4-16.6-16.6c0-9.2,7.4-16.6,16.6-16.6S317.2,149.3,317.2,158.4"/>
<path d="M354.4,46.8c0,9.2-7.4,16.6-16.6,16.6c-9.2,0-16.6-7.4-16.6-16.6c0-9.2,7.4-16.6,16.6-16.6
	C346.9,30.2,354.4,37.6,354.4,46.8"/>
<path d="M354.4,84c0,9.2-7.4,16.6-16.6,16.6s-16.6-7.4-16.6-16.6s7.4-16.6,16.6-16.6S354.4,74.8,354.4,84"/>
<path d="M354.4,121.2c0,9.2-7.4,16.6-16.6,16.6c-9.2,0-16.6-7.4-16.6-16.6c0-9.2,7.4-16.6,16.6-16.6
	C346.9,104.6,354.4,112,354.4,121.2"/>
<path d="M354.4,158.4c0,9.2-7.4,16.6-16.6,16.6s-16.6-7.4-16.6-16.6s7.4-16.6,16.6-16.6S354.4,149.3,354.4,158.4"/>
</svg>
