<?xml version="1.0" encoding="utf-8"?>
<!-- Generator: Adobe Illustrator 17.1.0, SVG Export Plug-In . SVG Version: 6.00 Build 0)  -->
<!DOCTYPE svg PUBLIC "-//W3C//DTD SVG 1.1//EN" "http://www.w3.org/Graphics/SVG/1.1/DTD/svg11.dtd">
<svg version="1.1" id="Layer_1" xmlns="http://www.w3.org/2000/svg" xmlns:xlink="http://www.w3.org/1999/xlink" x="0px" y="0px"
	 viewBox="0 0 775 386.8" enable-background="new 0 0 775 386.8" xml:space="preserve">
<path d="M228,278.9c0-3.2-0.6-6.2-1.5-9.1C222.1,256,209.2,246,194,246l-46.3,0H145c-5.6,0.3-10.6,2.1-15,4.7
	c-5,2.9-9.4,7.3-12.3,12.6c-0.6,1.2-1.2,2.3-1.8,3.5c-1.5,3.2-2.1,6.5-2.6,10c0,0.9-0.3,2.1-0.3,2.9v50.8l16.4,4.1l98.3-5.3V280
	C228,279.7,228,279.2,228,278.9L228,278.9z"/>
<path d="M117.7,173.3l-39.6,18.5v-30.2l39.6-24.9V173.3z M117.7,219.9l-39.6,10V200l39.6-16.4V219.9z M277.3,149.2L130,113.1
	l-59.8,39.3v167.5l40.8,10.3v-17.6L78.1,307v-30.2l32.9,0.3v-0.3c0.3-3.5,1.2-6.7,2.3-9.7l-35.2,1.5v-30.2l39.6-8.2v28.5
	c2.9-4.1,6.5-7.3,10.9-10c5-2.9,10.3-4.7,16.1-5.3h0.3v-13.2l4.7,0.3c-7.3-5.9-11.7-14.7-11.7-24.6c0-7.6,2.6-14.4,6.7-19.9v-2.3
	h2.1c3.2-3.5,7.3-6.5,12-8.2l-14.1-2.1v-36.7l121.7,24.1v31.1L191,180.3c3.5,2.9,6.7,6.7,8.8,10.9l66.6,9.4v31.1l-69.2-6.5
	c-2.6,3.5-5.9,6.5-9.4,8.8l78.6,6.5v31.1l-37.3-1.5c0.9,2.9,1.5,5.9,1.5,9.1l35.8,0.9v31.1l-35.8,0.9v17.9l46.6-2.7L277.3,149.2z"/>
<path d="M201,205.8c0,16.7-13.5,30.2-30.2,30.2c-16.7,0-30.2-13.5-30.2-30.2c0-16.7,13.5-30.2,30.2-30.2
	C187.5,175.6,201,189.1,201,205.8"/>
<path fill="#FCFCFC" stroke="#000000" stroke-miterlimit="10" d="M481.2,142h-6.1v-6.1h6.1V142z M469.1,142h-6.1v-6.1h6.1V142z
	 M457,142H451v-6.1h6.1V142z M438.8,126.8v24.2h145.4l0-24.2H438.8z"/>
<path fill="#FCFCFC" stroke="#000000" stroke-miterlimit="10" d="M447.9,190.4h24.2v6.1h-24.2V190.4z M447.9,178.3h24.2v6.1h-24.2
	V178.3z M447.9,166.2h24.2v6.1h-24.2V166.2z M438.8,272.2h42.4l0-115.1h-42.4L438.8,272.2z"/>
<path fill="#FCFCFC" stroke="#000000" stroke-miterlimit="10" d="M493.4,251h78.7v6.1h-78.7V251z M493.4,232.8h78.7v6.1h-78.7V232.8
	z M493.4,214.7h78.7v6.1h-78.7V214.7z M493.4,196.5h51.5v6.1h-51.5V196.5z M487.3,272.2h96.9V157.1h-96.9V272.2z"/>
<text transform="matrix(1 0 0 1 490.8378 308.298)" font-family="'MyriadPro-Regular'" font-size="30">docs</text>
<path fill="#0F0F0F" d="M591.8,244.7l3.5-7.1l12.1,10.9l-3.5,7.1L591.8,244.7z M614.1,244l-6.1,3.8l-12.1-10.9l6.7-4.2l7.6,6.8
	l3.9,3.5v-1.1l-10.9-9.8l1.4-2.9c0-0.6-0.1-1.2-0.1-1.7l-2.2,4.5l-7.3,4.6c0,0,0,0,0,0c0,0,0,0-0.1,0.1c0,0,0,0-0.1,0.1c0,0,0,0,0,0
	l-3.9,7.9c-0.1,0.2,0,0.4,0.1,0.5l12.8,11.5c0.1,0.1,0.2,0.1,0.3,0.1c0,0,0.1,0,0.1,0c0.1,0,0.2-0.1,0.3-0.2l3.9-7.8l4.4-2.8
	l1.4-0.9L614.1,244z"/>
<path fill="#F7931E" d="M613.1,230.7l1.1,1v-1.1l-1-0.9c0,0.1,0,0.1,0,0.2C613.1,230.1,613.1,230.4,613.1,230.7L613.1,230.7z"/>
<path fill="#F7931E" d="M635.8,181.2c0,5.2-4.2,9.5-9.5,9.5c-5.2,0-9.5-4.2-9.5-9.5c0-5.2,4.2-9.5,9.5-9.5
	C631.6,171.7,635.8,175.9,635.8,181.2"/>
<path fill="#F7931E" d="M605.5,230.2c0.1,1.8,1.6,3.2,3.4,3.2c0.1,0,0.1,0,0.2,0c1.9-0.1,3.3-1.7,3.2-3.6c-0.1-2.2-0.2-4.3-0.2-6.2
	c0-0.5,0-1,0-1.5c0-10.2,1.5-15.9,2.9-18.9v63.3c0,2.9,2.3,5.2,5.2,5.2c2.9,0,5.2-2.3,5.2-5.2v-38.1h2v38.1c0,2.9,2.3,5.2,5.2,5.2
	c2.9,0,5.2-2.3,5.2-5.2v-67.7c0.8-0.3,1.8-0.7,2.9-1.2c0.9-0.4,1.9-0.9,2.9-1.4c2.1-1.1,4.2-2.3,6-3.9c0.9-0.8,1.7-1.7,2.4-2.7
	c0.7-1.1,1.2-2.4,1.2-3.9c0-1.4-0.5-2.9-1.3-4c-1.3-1.7-3.1-3-5.5-4.2c-2.4-1.2-5.6-2.2-9.6-3.2c-0.8-0.2-1.6-0.1-2.3,0.3
	c1.5,1.8,2.3,4.1,2.3,6.5c0,0.1,0,0.1,0,0.2c4.1,1.1,6.8,2.2,8.2,3.1c0.8,0.5,1.2,1,1.4,1.2c0,0,0.1,0.1,0.1,0.1
	c0,0.1-0.1,0.2-0.3,0.5c-0.4,0.6-1.5,1.5-2.8,2.4c-1.4,0.9-3,1.7-4.6,2.4c-0.7,0.3-1.3,0.6-2,0.9c-1,0.4-1.9,0.7-2.5,1
	c-0.2,0.1-0.4,0.1-0.5,0.2l-15,0c-0.1,0-0.3,0-0.6,0c-0.7,0-2.1,0.1-3.6,0.9c-2.3,1.1-4.7,3.6-6.4,7.9c-1.7,4.4-2.9,10.7-2.9,20.3
	c0,0.2,0,0.5,0,0.7C605.3,225.1,605.4,227.5,605.5,230.2L605.5,230.2z"/>
</svg>
