<?xml version="1.0" encoding="utf-8"?>
<!-- Generator: Adobe Illustrator 17.1.0, SVG Export Plug-In . SVG Version: 6.00 Build 0)  -->
<!DOCTYPE svg PUBLIC "-//W3C//DTD SVG 1.1//EN" "http://www.w3.org/Graphics/SVG/1.1/DTD/svg11.dtd">
<svg version="1.1" id="Layer_1" xmlns="http://www.w3.org/2000/svg" xmlns:xlink="http://www.w3.org/1999/xlink" x="0px" y="0px"
	 viewBox="0 0 775 445" enable-background="new 0 0 775 445" xml:space="preserve">
<text transform="matrix(1 0 0 1 484.9084 414.1003)" font-family="'MyriadPro-Regular'" font-size="30">user lands here</text>
<path d="M204.2,308.7H193v-15.8h11.1V308.7z M198.5,240.5h52.9v5.3l-11.1,0c-0.5-0.1-1,0.2-1.3,0.6l-10.5,11.5
	c-0.1,0.1-0.1,0.2-0.2,0.3c0,0.1-0.1,0.1-0.1,0.2c-0.1,0.2-0.1,0.4-0.1,0.7v5l-6.8,0v-13.8c0-1-0.8-1.8-1.8-1.8h-12.6
	c-1,0-1.8,0.8-1.8,1.8V264l-6.7,0L198.5,240.5z M254.9,257.3h-21.1l7.3-7.9l10.3,0l3.5,0l10.6,0l7.3,7.9L254.9,257.3z M208.6,264
	v-12h9v12H208.6z M238.7,227.2l10.1,9.8h-48.2l8.7-9.8L238.7,227.2z M194.9,267.5h3.5l29.5,0h0.9l0.9,1.1l1.8,2.1l1.3,1.6l2.9,3.5
	l2.6,3.1H228l-45.2,0l8-11.5L194.9,267.5z M240.3,298.4v10.3h-32.6v-17.6c0-1-0.8-1.8-1.8-1.8h-14.7c-1,0-1.8,0.8-1.8,1.8l0,17.6
	h-8.3v-26.1h59.2L240.3,298.4z M275.1,294.9h-5.7V275c0-1-0.8-1.8-1.8-1.8h-13.5c-0.4,0-0.7,0.1-1,0.3c-0.2,0.2-0.4,0.3-0.5,0.6
	c-0.1,0.3-0.2,0.5-0.2,0.9v19.9h-8.5v-14.1c0-0.4-0.1-0.8-0.4-1.1l-3.1-3.8l-2.9-3.5l-5.9-7.1v-4.5h43.6L275.1,294.9z M265.9,294.9
	h-10v-18.1h10V294.9z M278.5,258.4c0-0.1-0.1-0.2-0.2-0.2c-0.1-0.1-0.1-0.2-0.2-0.3l-10.6-11.4c-0.3-0.4-0.8-0.6-1.3-0.6l-11.4,0
	v-7.1c0-0.5-0.2-0.9-0.5-1.3l-13.8-13.2c-0.3-0.3-0.8-0.5-1.2-0.5l-30.9-0.1h0c-0.5,0-1,0.2-1.3,0.6l-11.9,13.3
	c-0.3,0.3-0.4,0.7-0.4,1.2V264l-5,0h0c-0.6,0-1.1,0.3-1.4,0.8L178,279.8c0,0.1-0.1,0.1-0.1,0.2c0,0.1-0.1,0.1-0.1,0.2
	c-0.1,0.2-0.1,0.4-0.1,0.6v29.7c0,1,0.8,1.8,1.8,1.8h62.7c1,0,1.8-0.8,1.8-1.8v-12.1h33c1,0,1.8-0.8,1.8-1.8v-37.6
	C278.6,258.8,278.6,258.6,278.5,258.4L278.5,258.4z"/>
<path d="M312.1,112.6h5.8v5.8h-5.8V112.6z M320.7,109.4c-0.3-0.2-0.6-0.3-1-0.3h-9.4c-1,0-1.8,0.8-1.8,1.8v9.4c0,1,0.8,1.8,1.8,1.8
	h9.4c1,0,1.8-0.8,1.8-1.8v-9.4C321.5,110.2,321.2,109.7,320.7,109.4L320.7,109.4z"/>
<path fill-rule="evenodd" clip-rule="evenodd" d="M489.6,167.5c1.1,0,2-0.9,2-2c0-1.1-0.9-2-2-2h-110c-1.1,0-2,0.9-2,2
	c0,1.1,0.9,2,2,2H489.6z"/>
<path fill-rule="evenodd" clip-rule="evenodd" d="M407.1,136c1.1,0,2-0.9,2-2c0-1.1-0.9-2-2-2h-11.8c-1.1,0-2,0.9-2,2
	c0,1.1,0.9,2,2,2H407.1z"/>
<path fill-rule="evenodd" clip-rule="evenodd" d="M411.1,100.7c1.1,0,2-0.9,2-2c0-1.1-0.9-2-2-2h-11.8c-1.1,0-2,0.9-2,2
	c0,1.1,0.9,2,2,2H411.1z"/>
<path fill-rule="evenodd" clip-rule="evenodd" d="M450.4,128.2c1.1,0,2-0.9,2-2c0-1.1-0.9-2-2-2h-11.8c-1.1,0-2,0.9-2,2
	c0,1.1,0.9,2,2,2H450.4z"/>
<path fill-rule="evenodd" clip-rule="evenodd" d="M438.6,69.2c1.1,0,2-0.9,2-2s-0.9-2-2-2h-3.9c-1.1,0-2,0.9-2,2s0.9,2,2,2H438.6z"
	/>
<path fill-rule="evenodd" clip-rule="evenodd" d="M393.4,141.9c0-1.1,0.9-2,2-2h11.8c1.1,0,2,0.9,2,2v25.5h-3.9v-23.6h-7.9v23.6
	h-3.9L393.4,141.9z"/>
<path fill-rule="evenodd" clip-rule="evenodd" d="M436.6,138c0-1.1,0.9-2,2-2h11.8c1.1,0,2,0.9,2,2v29.5h-3.9V140h-7.9v27.5h-3.9
	L436.6,138z"/>
<path fill-rule="evenodd" clip-rule="evenodd" d="M385.5,133.9l15.7-16.6l15.7,16.6v33.5h3.9v-34.3c0-0.5-0.2-1-0.5-1.3l-17.7-18.7
	c-0.8-0.8-2.1-0.8-2.9,0l-17.7,18.7c-0.3,0.4-0.5,0.8-0.5,1.3v34.3h3.9L385.5,133.9z"/>
<path fill-rule="evenodd" clip-rule="evenodd" d="M389.5,94.6L405.2,78l15.7,16.6v21.7h3.9V93.8c0-0.5-0.2-1-0.5-1.4l-17.7-18.7
	c-0.8-0.8-2.1-0.8-2.9,0l-17.7,18.7c-0.3,0.4-0.5,0.9-0.5,1.4v38.3l3.9-3.9L389.5,94.6z"/>
<path fill-rule="evenodd" clip-rule="evenodd" d="M420.9,71.1l15.7-16.6l15.7,16.6v17.8l3.9,3.9V70.2c0-0.5-0.2-1-0.5-1.4L438,50.2
	c-0.8-0.8-2.1-0.8-2.9,0l-17.7,18.7c-0.3,0.4-0.5,0.9-0.5,1.4v6.8h3.9L420.9,71.1z"/>
<rect x="417" y="132.1" fill-rule="evenodd" clip-rule="evenodd" width="11.8" height="3.9"/>
<rect x="456.3" y="92.8" fill-rule="evenodd" clip-rule="evenodd" width="3.9" height="11.8"/>
<rect x="475.9" y="69.2" fill-rule="evenodd" clip-rule="evenodd" width="3.9" height="43.2"/>
<rect x="483.8" y="120.3" fill-rule="evenodd" clip-rule="evenodd" width="3.9" height="47.1"/>
<path fill-rule="evenodd" clip-rule="evenodd" d="M428.7,122.1l15.7-16.6l15.7,16.6v45.3h3.9v-46.1c0-0.5-0.2-1-0.5-1.3l-17.7-18.7
	c-0.8-0.8-2.1-0.8-2.9,0L425.4,120c-0.3,0.4-0.5,0.8-0.5,1.3v46.1h3.9L428.7,122.1z"/>
<path fill-rule="evenodd" clip-rule="evenodd" d="M458.6,53.5l15.7,15.7h-21.9v3.9H479c1.7,0,2.6-2.1,1.4-3.4l-19.6-19.6
	c-0.4-0.4-0.9-0.6-1.4-0.6h-22.8v3.9L458.6,53.5z"/>
<path fill-rule="evenodd" clip-rule="evenodd" d="M438.9,77.1l15.7,15.7h-33.7v3.9h38.5c1.7,0,2.6-2.1,1.4-3.4l-19.6-19.6
	c-0.4-0.4-0.9-0.6-1.4-0.6h-34.6v3.9L438.9,77.1z"/>
<path fill-rule="evenodd" clip-rule="evenodd" d="M466.4,104.6l15.7,15.7h-21.9v3.9h26.7c1.7,0,2.6-2.1,1.4-3.4l-19.6-19.6
	c-0.4-0.4-0.9-0.6-1.4-0.6h-22.8v3.9L466.4,104.6z"/>
<path fill-rule="evenodd" clip-rule="evenodd" d="M423.2,116.4h-22v-3.9H424c0.5,0,1,0.2,1.4,0.6l5.2,5.2l-1.9,2.1v1.6L423.2,116.4z
	"/>
<path fill="none" stroke="#000000" stroke-width="1.4713" stroke-miterlimit="10" d="M428,350.2c0,0-224.2,44.1-56.4-238.3"/>
<path fill="none" stroke="#000000" stroke-miterlimit="10" d="M457.4,251"/>
<path fill="none" stroke="#000000" stroke-width="1.4713" stroke-miterlimit="10" d="M420.7,363c0,0-230.4,30.3-62.7-252.1"/>
<g>
	<g>
		<path fill="none" stroke="#000000" stroke-width="1.4688" stroke-miterlimit="10" d="M420.7,356.9c0,0-3.3,0.6-8.8,1.1"/>
		<path fill="none" stroke="#000000" stroke-width="1.4688" stroke-miterlimit="10" stroke-dasharray="17.2222,17.2222" d="
			M394.8,358.7c-51.8-0.4-153.5-24.8-38.4-233.1"/>
		<path fill="none" stroke="#000000" stroke-width="1.4688" stroke-miterlimit="10" d="M360.6,118.1c1.4-2.5,2.9-5.1,4.4-7.7"/>
	</g>
</g>
<rect x="211.2" y="142.2" width="11.1" height="15.8"/>
<path d="M216.7,89.8h52.9v5.3l-11.1,0c-0.5-0.1-1,0.2-1.3,0.6l-10.5,11.5c-0.1,0.1-0.1,0.2-0.2,0.3c0,0.1-0.1,0.1-0.1,0.2
	c-0.1,0.2-0.1,0.4-0.1,0.7v5l-6.8,0V99.5c0-1-0.8-1.8-1.8-1.8h-12.6c-1,0-1.8,0.8-1.8,1.8v13.8l-6.7,0L216.7,89.8z"/>
<polygon points="273.1,106.5 252,106.5 259.3,98.6 269.6,98.6 273.1,98.6 283.7,98.7 291,106.5 "/>
<rect x="226.9" y="101.3" width="9" height="12"/>
<polygon points="256.9,76.5 267,86.2 218.8,86.2 227.6,76.4 "/>
<polygon points="213.1,116.8 216.7,116.8 246.2,116.8 247.1,116.8 248,117.9 249.7,120 251,121.6 254,125.1 256.6,128.3 
	246.2,128.3 201,128.3 209,116.8 "/>
<path d="M258.6,147.7V158h-32.6v-17.6c0-1-0.8-1.8-1.8-1.8h-14.7c-1,0-1.8,0.8-1.8,1.8l0,17.6h-8.3v-26.1h59.2L258.6,147.7z"/>
<path d="M293.3,144.1h-5.7v-19.9c0-1-0.8-1.8-1.8-1.8h-13.5c-0.4,0-0.7,0.1-1,0.3c-0.2,0.2-0.4,0.3-0.5,0.6
	c-0.1,0.3-0.2,0.5-0.2,0.9v19.9h-8.5v-14.1c0-0.4-0.1-0.8-0.4-1.1l-3.1-3.8l-2.9-3.5l-5.9-7.1v-4.5h43.6L293.3,144.1z"/>
<rect x="274.1" y="126" width="10" height="18.1"/>
<path fill="none" stroke="#000000" stroke-width="1.4713" stroke-miterlimit="10" d="M296.7,107.6c0-0.1-0.1-0.2-0.2-0.2
	c-0.1-0.1-0.1-0.2-0.2-0.3l-10.6-11.4c-0.3-0.4-0.8-0.6-1.3-0.6l-11.4,0V88c0-0.5-0.2-0.9-0.5-1.3l-13.8-13.2
	c-0.3-0.3-0.8-0.5-1.2-0.5l-30.9-0.1h0c-0.5,0-1,0.2-1.3,0.6l-11.9,13.3c-0.3,0.3-0.4,0.7-0.4,1.2v25.3l-5,0h0
	c-0.6,0-1.1,0.3-1.4,0.8l-10.5,15.1c0,0.1-0.1,0.1-0.1,0.2c0,0.1-0.1,0.1-0.1,0.2c-0.1,0.2-0.1,0.4-0.1,0.6v29.7
	c0,1,0.8,1.8,1.8,1.8h62.7c1,0,1.8-0.8,1.8-1.8v-12.1h33c1,0,1.8-0.8,1.8-1.8v-37.6C296.8,108.1,296.8,107.8,296.7,107.6
	L296.7,107.6z"/>
<path fill-rule="evenodd" clip-rule="evenodd" fill="#F7931E" d="M443.7,295.5c-1.2,0-2.2-0.9-2.2-2c0-1.1,1-2,2.2-2h12.9
	c1.2,0,2.2,0.9,2.2,2c0,1.1-1,2-2.2,2H443.7z"/>
<path fill-rule="evenodd" clip-rule="evenodd" fill="#F7931E" d="M458.8,305.3c0-1.1-1-2-2.2-2h-12.9c-1.2,0-2.2,0.9-2.2,2v29.5h4.3
	v-27.5h8.6v27.5h4.3L458.8,305.3z"/>
<rect x="402.8" y="287.6" fill-rule="evenodd" clip-rule="evenodd" fill="#F7931E" width="4.3" height="47.1"/>
<path fill-rule="evenodd" clip-rule="evenodd" fill="#F7931E" d="M467.4,289.4l-17.2-16.6l-17.2,16.6v45.3h-4.3v-46.1
	c0-0.5,0.2-1,0.6-1.3l19.4-18.7c0.8-0.8,2.3-0.8,3.1,0l19.4,18.7c0.4,0.4,0.6,0.8,0.6,1.3v46.1h-4.3L467.4,289.4z"/>
<path fill-rule="evenodd" clip-rule="evenodd" fill="#F7931E" d="M426.1,271.9l-17.2,15.7h24v3.9h-29.3c-1.9,0-2.9-2.1-1.5-3.4
	l21.5-19.6c0.4-0.4,1-0.6,1.5-0.6h25v3.9L426.1,271.9z"/>
<g>
	<g>
		<line fill="none" stroke="#000000" stroke-width="1.2463" stroke-miterlimit="10" x1="507.4" y1="388.6" x2="470.6" y2="351.1"/>
		<g>
			<polygon points="476.4,348.1 464.4,344.8 467.5,356.8 			"/>
		</g>
	</g>
</g>
<text transform="matrix(1 0 0 1 164.0887 49.5852)" font-family="'MyriadPro-Regular'" font-size="22.069">other topics</text>
<text transform="matrix(1 0 0 1 124.3645 223.6429)"><tspan x="0" y="0" font-family="'MyriadPro-Regular'" font-size="22.069">other </tspan><tspan x="0" y="26.5" font-family="'MyriadPro-Regular'" font-size="22.069">topics</tspan></text>
<text transform="matrix(1 0 0 1 491.613 51.68)"><tspan x="0" y="0" font-family="'MyriadPro-Regular'" font-size="15">other </tspan><tspan x="0" y="18" font-family="'MyriadPro-Regular'" font-size="15">topics</tspan></text>
<g>
	<path d="M372.4,290.1c0,2.7-2.2,5-5,5c-2.7,0-5-2.2-5-5c0-2.7,2.2-5,5-5C370.2,285.2,372.4,287.4,372.4,290.1"/>
	<path fill="none" stroke="#000000" stroke-width="1.3758" stroke-miterlimit="10" d="M380.2,311.1"/>
	<path d="M376.6,314.3l1,7.6L385,334c0.8,1.3,0.4,3-0.9,3.8c-0.5,0.3-1,0.4-1.4,0.4c-0.9,0-1.9-0.5-2.3-1.3l-7.8-12.7
		c-0.2-0.3-0.3-0.7-0.4-1.1l-0.7-5.1L376.6,314.3z"/>
	<path d="M352.8,306l7.2-2.6c1.1-1.4,2.3-2.8,3.4-4.1c1-1.2,1.9-2.8,3.5-3.1c0.6-0.1,3-0.3,3.6-0.2c0.6,0.1,1.1,0.3,1.6,0.6l6.6,2.8
		c1,0.4,2.1,0.8,2.8,1.8l4.4,7.6c0.8,1.3,0.3,3-1,3.8c-0.4,0.3-0.9,0.3-1.4,0.3c-1,0-1.9-0.5-2.4-1.4l-3.9-6.9l-3-1.3l2.1,9.6
		l-5.1,3.6l-7.6,5.5v13.2c0,1.5-1.2,2.8-2.8,2.8c-1.5,0-2.8-1.2-2.8-2.8v-14.6c0-0.9,0.4-1.7,1.1-2.2l8.3-6.1l-1.8-7.4l-2,2.5
		c-0.3,0.4-0.8,0.7-1.2,0.8l-7.8,2.9c-1.4,0.6-3-0.2-3.5-1.6C350.6,308,351.4,306.4,352.8,306L352.8,306z"/>
</g>
<path fill="none" stroke="#000000" stroke-width="0.7496" stroke-miterlimit="10" d="M334.6,224.7c0.4-0.1,0.8-0.2,1.3-0.2
	c14.2-2.4,63.2-1.6,67.3,5c1.1,1.8,1.6,20.4-1.1,26.4c-2.1,4.6-38.6,2.1-40,11.3c-0.7,4.7,2.6,8.5,5.4,11.8
	c-4.9,0.7-10.3-2.9-12.9-7c-1.3-2-2.2-4.4-4-6.1c-2.9-2.7-23.5-2.8-27-6.2c-4.7-4.5-2.7-13.3-2.8-19.2
	C320.7,230.2,325.3,226.5,334.6,224.7z"/>
<text transform="matrix(1 0 0 1 336.0586 240.7943)"><tspan x="0" y="0" font-family="'MyriadPro-Regular'" font-size="13">what else</tspan><tspan x="0" y="15.6" font-family="'MyriadPro-Regular'" font-size="13">is here?</tspan></text>
</svg>
