<?xml version="1.0" encoding="utf-8"?>
<!-- Generator: Adobe Illustrator 17.1.0, SVG Export Plug-In . SVG Version: 6.00 Build 0)  -->
<!DOCTYPE svg PUBLIC "-//W3C//DTD SVG 1.1//EN" "http://www.w3.org/Graphics/SVG/1.1/DTD/svg11.dtd">
<svg version="1.1" id="Layer_1" xmlns="http://www.w3.org/2000/svg" xmlns:xlink="http://www.w3.org/1999/xlink" x="0px" y="0px"
	 viewBox="0 0 775 445" enable-background="new 0 0 775 445" xml:space="preserve">
<line fill="none" stroke="#444343" stroke-miterlimit="10" x1="387.5" y1="12" x2="387.5" y2="434"/>
<text transform="matrix(1 0 0 1 63.9999 411.1003)" font-family="'MyriadPro-Regular'" font-size="30">Flat hierarchy</text>
<text transform="matrix(1 0 0 1 457.0015 411.1)" font-family="'MyriadPro-Regular'" font-size="30">Deep hierarchy</text>
<line fill="none" stroke="#000000" stroke-width="6" stroke-miterlimit="10" x1="64" y1="28" x2="64" y2="294"/>
<line fill="none" stroke="#000000" stroke-width="5" stroke-miterlimit="10" x1="64" y1="76.5" x2="99" y2="76.5"/>
<line fill="none" stroke="#000000" stroke-width="5" stroke-miterlimit="10" x1="64" y1="166.5" x2="99" y2="166.5"/>
<g>
	<path fill="#FF931E" d="M131,89c0,1.7-1.3,3-3,3h-27c-1.7,0-3-1.3-3-3V66c0-1.7,1.3-3,3-3h27c1.7,0,3,1.3,3,3V89z"/>
	<path fill="none" stroke="#AD6014" stroke-miterlimit="10" d="M131.5,88.5c0,1.7-1.4,3-3,3h-27c-1.7,0-3-1.3-3-3v-23
		c0-1.7,1.3-3,3-3h27c1.6,0,3,1.3,3,3V88.5z"/>
</g>
<g>
	<path fill="#FF931E" d="M131,178c0,1.7-1.3,3-3,3h-27c-1.7,0-3-1.3-3-3v-23c0-1.7,1.3-3,3-3h27c1.7,0,3,1.3,3,3V178z"/>
	<path fill="none" stroke="#AD6014" stroke-miterlimit="10" d="M131.5,177.5c0,1.6-1.4,3-3,3h-27c-1.7,0-3-1.4-3-3v-23
		c0-1.6,1.3-3,3-3h27c1.6,0,3,1.4,3,3V177.5z"/>
</g>
<line fill="none" stroke="#000000" stroke-width="5" stroke-miterlimit="10" x1="145" y1="81.5" x2="182" y2="81.5"/>
<line fill="none" stroke="#000000" stroke-width="5" stroke-miterlimit="10" x1="145" y1="97.5" x2="182" y2="97.5"/>
<line fill="none" stroke="#000000" stroke-width="5" stroke-miterlimit="10" x1="145" y1="114.5" x2="182" y2="114.5"/>
<line fill="none" stroke="#000000" stroke-width="5" stroke-miterlimit="10" x1="145" y1="170.5" x2="182" y2="170.5"/>
<line fill="none" stroke="#000000" stroke-width="5" stroke-miterlimit="10" x1="145" y1="186.5" x2="182" y2="186.5"/>
<line fill="none" stroke="#000000" stroke-width="5" stroke-miterlimit="10" x1="145" y1="203.5" x2="182" y2="203.5"/>
<line fill="none" stroke="#000000" stroke-width="6" stroke-miterlimit="10" x1="433" y1="35" x2="433" y2="294"/>
<line fill="none" stroke="#000000" stroke-width="5" stroke-miterlimit="10" x1="433" y1="83.5" x2="468" y2="83.5"/>
<line fill="none" stroke="#000000" stroke-width="5" stroke-miterlimit="10" x1="433" y1="193.5" x2="468" y2="193.5"/>
<g>
	<path fill="#FF931E" d="M500,96c0,1.7-1.3,3-3,3h-27c-1.7,0-3-1.3-3-3V73c0-1.7,1.3-3,3-3h27c1.7,0,3,1.3,3,3V96z"/>
	<path fill="none" stroke="#AD6014" stroke-miterlimit="10" d="M500.5,95.5c0,1.7-1.4,3-3,3h-27c-1.6,0-3-1.3-3-3v-23
		c0-1.7,1.4-3,3-3h27c1.6,0,3,1.3,3,3V95.5z"/>
</g>
<g>
	<path fill="#FF931E" d="M500,205c0,1.7-1.3,3-3,3h-27c-1.7,0-3-1.3-3-3v-23c0-1.7,1.3-3,3-3h27c1.7,0,3,1.3,3,3V205z"/>
	<path fill="none" stroke="#AD6014" stroke-miterlimit="10" d="M500.5,204.5c0,1.6-1.4,3-3,3h-27c-1.6,0-3-1.4-3-3v-23
		c0-1.6,1.4-3,3-3h27c1.6,0,3,1.4,3,3V204.5z"/>
</g>
<line fill="none" stroke="#000000" stroke-width="5" stroke-miterlimit="10" x1="514" y1="88.5" x2="551" y2="88.5"/>
<line fill="none" stroke="#000000" stroke-width="5" stroke-miterlimit="10" x1="514" y1="104.5" x2="551" y2="104.5"/>
<line fill="none" stroke="#000000" stroke-width="5" stroke-miterlimit="10" x1="514" y1="121.5" x2="551" y2="121.5"/>
<line fill="none" stroke="#000000" stroke-width="5" stroke-miterlimit="10" x1="514" y1="197.5" x2="551" y2="197.5"/>
<line fill="none" stroke="#000000" stroke-width="5" stroke-miterlimit="10" x1="514" y1="213.5" x2="551" y2="213.5"/>
<line fill="none" stroke="#000000" stroke-width="5" stroke-miterlimit="10" x1="514" y1="230.5" x2="551" y2="230.5"/>
<g>
	<path fill="#FF931E" d="M592,148c0,1.7-1.3,3-3,3h-27c-1.7,0-3-1.3-3-3v-23c0-1.7,1.3-3,3-3h27c1.7,0,3,1.3,3,3V148z"/>
	<path fill="none" stroke="#AD6014" stroke-miterlimit="10" d="M592.5,147.5c0,1.6-1.3,3-3,3h-27c-1.7,0-3-1.4-3-3v-23
		c0-1.7,1.3-3,3-3h27c1.7,0,3,1.3,3,3V147.5z"/>
</g>
<line fill="none" stroke="#000000" stroke-width="5" stroke-miterlimit="10" x1="600" y1="139.5" x2="637" y2="139.5"/>
<line fill="none" stroke="#000000" stroke-width="5" stroke-miterlimit="10" x1="600" y1="155.5" x2="637" y2="155.5"/>
<line fill="none" stroke="#000000" stroke-width="5" stroke-miterlimit="10" x1="600" y1="172.5" x2="637" y2="172.5"/>
<g>
	<path fill="#FF931E" d="M680,199c0,1.7-1.3,3-3,3h-27c-1.7,0-3-1.3-3-3v-23c0-1.7,1.3-3,3-3h27c1.7,0,3,1.3,3,3V199z"/>
	<path fill="none" stroke="#AD6014" stroke-miterlimit="10" d="M680.5,198.5c0,1.6-1.3,3-3,3h-27c-1.7,0-3-1.4-3-3v-23
		c0-1.6,1.3-3,3-3h27c1.7,0,3,1.4,3,3V198.5z"/>
</g>
<line fill="none" stroke="#000000" stroke-width="5" stroke-miterlimit="10" x1="691" y1="200.5" x2="728" y2="200.5"/>
<line fill="none" stroke="#000000" stroke-width="5" stroke-miterlimit="10" x1="691" y1="216.5" x2="728" y2="216.5"/>
<line fill="none" stroke="#000000" stroke-width="5" stroke-miterlimit="10" x1="691" y1="233.5" x2="728" y2="233.5"/>
<g>
	<path fill="#FF931E" d="M592,255c0,1.7-1.3,3-3,3h-27c-1.7,0-3-1.3-3-3v-23c0-1.7,1.3-3,3-3h27c1.7,0,3,1.3,3,3V255z"/>
	<path fill="none" stroke="#AD6014" stroke-miterlimit="10" d="M592.5,254.5c0,1.6-1.3,3-3,3h-27c-1.7,0-3-1.4-3-3v-23
		c0-1.6,1.3-3,3-3h27c1.7,0,3,1.4,3,3V254.5z"/>
</g>
<line fill="none" stroke="#000000" stroke-width="5" stroke-miterlimit="10" x1="600" y1="257.5" x2="637" y2="257.5"/>
<line fill="none" stroke="#000000" stroke-width="5" stroke-miterlimit="10" x1="600" y1="273.5" x2="637" y2="273.5"/>
<line fill="none" stroke="#000000" stroke-width="5" stroke-miterlimit="10" x1="600" y1="290.5" x2="637" y2="290.5"/>
<g>
	<path fill="#FF931E" d="M682,318c0,1.7-1.3,3-3,3h-27c-1.7,0-3-1.3-3-3v-23c0-1.7,1.3-3,3-3h27c1.7,0,3,1.3,3,3V318z"/>
	<path fill="none" stroke="#AD6014" stroke-miterlimit="10" d="M682.5,317.5c0,1.6-1.3,3-3,3h-27c-1.7,0-3-1.4-3-3v-23
		c0-1.6,1.3-3,3-3h27c1.7,0,3,1.4,3,3V317.5z"/>
</g>
<line fill="none" stroke="#000000" stroke-width="5" stroke-miterlimit="10" x1="691" y1="317.5" x2="728" y2="317.5"/>
<line fill="none" stroke="#000000" stroke-width="5" stroke-miterlimit="10" x1="691" y1="333.5" x2="728" y2="333.5"/>
<line fill="none" stroke="#000000" stroke-width="5" stroke-miterlimit="10" x1="691" y1="350.5" x2="728" y2="350.5"/>
<line fill="none" stroke="#000000" stroke-width="5" stroke-miterlimit="10" x1="62" y1="266.5" x2="97" y2="266.5"/>
<g>
	<path fill="#FF931E" d="M129,278c0,1.7-1.3,3-3,3H99c-1.7,0-3-1.3-3-3v-23c0-1.7,1.3-3,3-3h27c1.7,0,3,1.3,3,3V278z"/>
	<path fill="none" stroke="#AD6014" stroke-miterlimit="10" d="M129.5,277.5c0,1.6-1.4,3-3,3h-27c-1.7,0-3-1.4-3-3v-23
		c0-1.6,1.3-3,3-3h27c1.6,0,3,1.4,3,3V277.5z"/>
</g>
<line fill="none" stroke="#000000" stroke-width="5" stroke-miterlimit="10" x1="143" y1="270.5" x2="180" y2="270.5"/>
<line fill="none" stroke="#000000" stroke-width="5" stroke-miterlimit="10" x1="143" y1="286.5" x2="180" y2="286.5"/>
<line fill="none" stroke="#000000" stroke-width="5" stroke-miterlimit="10" x1="143" y1="303.5" x2="180" y2="303.5"/>
</svg>
