<?xml version="1.0" encoding="utf-8"?>
<!-- Generator: Adobe Illustrator 17.1.0, SVG Export Plug-In . SVG Version: 6.00 Build 0)  -->
<!DOCTYPE svg PUBLIC "-//W3C//DTD SVG 1.1//EN" "http://www.w3.org/Graphics/SVG/1.1/DTD/svg11.dtd">
<svg version="1.1" id="Layer_1" xmlns="http://www.w3.org/2000/svg" xmlns:xlink="http://www.w3.org/1999/xlink" x="0px" y="0px"
	 viewBox="0 0 775 445" enable-background="new 0 0 775 445" xml:space="preserve">
<line fill="none" stroke="#444343" stroke-miterlimit="10" x1="397.5" y1="12" x2="397.5" y2="434"/>
<text transform="matrix(1 0 0 1 43.9999 418.1003)" font-family="'MyriadPro-Regular'" font-size="30">Long, standalone content</text>
<text transform="matrix(1 0 0 1 425.7656 418.1006)" font-family="'MyriadPro-Regular'" font-size="30">Short, fragmented content</text>
<rect x="97" y="19" fill="#F4F4F4" stroke="#000000" stroke-width="2" stroke-miterlimit="10" width="204" height="348"/>
<line fill="none" stroke="#000000" stroke-width="6" stroke-miterlimit="10" x1="114" y1="128" x2="282" y2="128"/>
<line fill="none" stroke="#000000" stroke-width="6" stroke-miterlimit="10" x1="114" y1="158" x2="282" y2="158"/>
<line fill="none" stroke="#000000" stroke-width="6" stroke-miterlimit="10" x1="114" y1="219" x2="282" y2="219"/>
<line fill="none" stroke="#000000" stroke-width="6" stroke-miterlimit="10" x1="115" y1="342" x2="283" y2="342"/>
<line fill="none" stroke="#000000" stroke-width="6" stroke-miterlimit="10" x1="114" y1="311" x2="282" y2="311"/>
<line fill="none" stroke="#000000" stroke-width="6" stroke-miterlimit="10" x1="114" y1="280" x2="282" y2="280"/>
<line fill="none" stroke="#000000" stroke-width="6" stroke-miterlimit="10" x1="114" y1="250" x2="282" y2="250"/>
<line fill="none" stroke="#000000" stroke-width="6" stroke-miterlimit="10" x1="114" y1="189" x2="282" y2="189"/>
<line fill="none" stroke="#000000" stroke-width="6" stroke-miterlimit="10" x1="114" y1="67" x2="282" y2="67"/>
<line fill="none" stroke="#000000" stroke-width="6" stroke-miterlimit="10" x1="114" y1="97" x2="282" y2="97"/>
<line fill="none" stroke="#000000" stroke-width="6" stroke-miterlimit="10" x1="114" y1="36" x2="282" y2="36"/>
<rect x="456" y="19" fill="#F4F4F4" stroke="#000000" stroke-width="2" stroke-miterlimit="10" width="204" height="112"/>
<line fill="none" stroke="#000000" stroke-width="6" stroke-miterlimit="10" x1="473" y1="67" x2="641" y2="67"/>
<line fill="none" stroke="#000000" stroke-width="6" stroke-miterlimit="10" x1="473" y1="97" x2="641" y2="97"/>
<line fill="none" stroke="#000000" stroke-width="6" stroke-miterlimit="10" x1="473" y1="36" x2="641" y2="36"/>
</svg>
