<?xml version="1.0" encoding="utf-8"?>
<!-- Generator: Adobe Illustrator 17.1.0, SVG Export Plug-In . SVG Version: 6.00 Build 0)  -->
<!DOCTYPE svg PUBLIC "-//W3C//DTD SVG 1.1//EN" "http://www.w3.org/Graphics/SVG/1.1/DTD/svg11.dtd">
<svg version="1.1" id="Layer_1" xmlns="http://www.w3.org/2000/svg" xmlns:xlink="http://www.w3.org/1999/xlink" x="0px" y="0px"
	 viewBox="0 0 775 445" enable-background="new 0 0 775 445" xml:space="preserve">
<rect x="334.9" y="190.9" fill="none" stroke="#000000" stroke-width="1.9117" stroke-miterlimit="10" width="5.7" height="5.7"/>
<rect x="325.4" y="190.9" fill="none" stroke="#000000" stroke-width="1.9117" stroke-miterlimit="10" width="5.7" height="5.7"/>
<rect x="315.8" y="190.9" fill="none" stroke="#000000" stroke-width="1.9117" stroke-miterlimit="10" width="5.7" height="5.7"/>
<rect x="306.2" y="190.9" fill="none" stroke="#000000" stroke-width="1.9117" stroke-miterlimit="10" width="5.7" height="5.7"/>
<rect x="302.4" y="181.4" fill="none" stroke="#000000" stroke-width="1.9117" stroke-miterlimit="10" width="45.9" height="1.9"/>
<rect x="306.2" y="160.3" fill="none" stroke="#000000" stroke-width="1.9117" stroke-miterlimit="10" width="30.6" height="3.8"/>
<rect x="306.2" y="150.8" fill="none" stroke="#000000" stroke-width="1.9117" stroke-miterlimit="10" width="24.9" height="3.8"/>
<rect x="306.2" y="141.2" fill="none" stroke="#000000" stroke-width="1.9117" stroke-miterlimit="10" width="28.7" height="3.8"/>
<rect x="306.2" y="131.7" fill="none" stroke="#000000" stroke-width="1.9117" stroke-miterlimit="10" width="30.6" height="3.8"/>
<rect x="307.2" y="113" fill="none" stroke="#000000" stroke-width="1.9117" stroke-miterlimit="10" width="7.6" height="1.9"/>
<rect x="306.2" y="122.1" fill="none" stroke="#000000" stroke-width="1.9117" stroke-miterlimit="10" width="24.9" height="3.8"/>
<rect x="447.5" y="88.6" fill="none" stroke="#000000" stroke-width="1.9117" stroke-miterlimit="10" width="9.6" height="1.9"/>
<rect x="447.5" y="92.5" fill="none" stroke="#000000" stroke-width="1.9117" stroke-miterlimit="10" width="9.6" height="1.9"/>
<rect x="447.5" y="96.3" fill="none" stroke="#000000" stroke-width="1.9117" stroke-miterlimit="10" width="9.6" height="1.9"/>
<rect x="302.2" y="88.6" fill="none" stroke="#000000" stroke-width="1.9117" stroke-miterlimit="10" width="45.9" height="9.6"/>
<rect x="298.4" y="84.8" fill="none" stroke="#000000" stroke-width="1.9117" stroke-miterlimit="10" width="164.4" height="17.2"/>
<rect x="298.6" y="106.8" fill="none" stroke="#000000" stroke-width="1.9117" stroke-miterlimit="10" width="53.5" height="143.4"/>
<rect x="294.6" y="81" fill="none" stroke="#000000" stroke-width="1.9117" stroke-miterlimit="10" width="172.1" height="172.1"/>
<line fill="none" stroke="#333333" stroke-width="4" stroke-miterlimit="10" x1="368" y1="120" x2="440" y2="120"/>
<line fill="none" stroke="#333333" stroke-width="4" stroke-miterlimit="10" x1="368" y1="132" x2="456" y2="132"/>
<line fill="none" stroke="#333333" stroke-width="4" stroke-miterlimit="10" x1="368" y1="143" x2="451" y2="143"/>
<line fill="none" stroke="#333333" stroke-width="4" stroke-miterlimit="10" x1="368" y1="155" x2="457" y2="155"/>
<line fill="none" stroke="#333333" stroke-width="4" stroke-miterlimit="10" x1="368" y1="166" x2="456" y2="166"/>
<line fill="none" stroke="#333333" stroke-width="4" stroke-miterlimit="10" x1="368" y1="178" x2="457" y2="178"/>
<line fill="none" stroke="#333333" stroke-width="4" stroke-miterlimit="10" x1="368" y1="201" x2="444" y2="201"/>
<line fill="none" stroke="#333333" stroke-width="4" stroke-miterlimit="10" x1="368" y1="213" x2="451" y2="213"/>
<line fill="none" stroke="#333333" stroke-width="4" stroke-miterlimit="10" x1="368" y1="224" x2="457" y2="224"/>
<line fill="none" stroke="#333333" stroke-width="4" stroke-miterlimit="10" x1="368" y1="236" x2="456" y2="236"/>
<line fill="none" stroke="#333333" stroke-width="4" stroke-miterlimit="10" x1="368" y1="246" x2="457" y2="246"/>
<line fill="none" stroke="#3DA1D8" stroke-width="4" stroke-miterlimit="10" x1="381" y1="120" x2="394" y2="120"/>
<line fill="none" stroke="#3DA1D8" stroke-width="4" stroke-miterlimit="10" x1="382" y1="143" x2="396" y2="143"/>
<line fill="none" stroke="#3DA1D8" stroke-width="4" stroke-miterlimit="10" x1="421" y1="132" x2="440" y2="132"/>
<line fill="none" stroke="#3DA1D8" stroke-width="4" stroke-miterlimit="10" x1="414" y1="236" x2="433" y2="236"/>
<line fill="none" stroke="#3DA1D8" stroke-width="4" stroke-miterlimit="10" x1="410" y1="166" x2="434" y2="166"/>
<line fill="none" stroke="#3DA1D8" stroke-width="4" stroke-miterlimit="10" x1="427" y1="213" x2="447" y2="213"/>
<line fill="none" stroke="#3DA1D8" stroke-width="4" stroke-miterlimit="10" x1="369" y1="201" x2="391" y2="201"/>
<line fill="none" stroke="#3DA1D8" stroke-width="4" stroke-miterlimit="10" x1="382" y1="224" x2="392" y2="224"/>
<line fill="none" stroke="#3DA1D8" stroke-width="4" stroke-miterlimit="10" x1="385" y1="246" x2="404" y2="246"/>
<path d="M331.1,332.1c-7.6,0-14.6-3.3-20.6-9.9c-0.6-0.7-0.6-1.7,0.1-2.3c0.7-0.6,1.7-0.6,2.3,0.1c5.3,5.9,11.5,8.8,18.2,8.8
	c7.6,0,13.9-5,17.9-9.1c0.6-0.6,1.6-0.7,2.3-0.1c0.6,0.6,0.7,1.6,0.1,2.3C345,328.6,338,332.1,331.1,332.1L331.1,332.1z"/>
<path d="M254,374.1h156c-2.6-13.2-6.2-27.2-7.9-29.2c-2.6-2-29.2-11.8-52.9-19.9c-0.9-0.3-1.6-1.1-1.9-2c-0.2-0.9,0-1.9,0.7-2.7
	c6.8-7.2,11.4-16.8,12.7-22.8c0.2-0.7,0.6-1.3,1.1-1.7c0.8-0.6,2.4-3.3,2.5-6.6c0.1-1.5-0.2-3.5-1.7-4.7c-1.4-1.2-1.3-2.3-1-8.5
	c0.4-6.4,1.1-18.3-1-23.2c-4.7-10.9-11.1-16.5-19-16.5c-9.8,0-18.6,8.1-18.7,8.1c-0.6,0.5-1.3,0.8-2.1,0.7c-0.8-0.1-1.5-0.4-2-1
	c0,0-3.1-3.6-7.1-3.6c-4.4,0-8.8,4.4-12.9,12.7c-3.9,8-0.1,20.4,1.5,25.7c0.9,3.1,1.4,4.6-0.2,5.9c-1.4,1.2-1.5,3.4-1.5,4.7
	c0.1,2.9,1.5,5.6,2.4,6.2c0.6,0.4,1,1,1.2,1.7c0.8,3.3,4,14.6,11.7,23.1c0.6,0.7,0.9,1.7,0.7,2.6c-0.2,0.9-0.9,1.7-1.8,2
	c-17.6,6.7-46.3,17.8-49.8,19.8C261.3,347.3,257.2,361.1,254,374.1L254,374.1z"/>
<line fill="none" stroke="#686765" stroke-width="1.5124" stroke-miterlimit="10" x1="429.1" y1="236.7" x2="534" y2="166"/>
<text transform="matrix(1 0 0 1 526.9996 162.2493)" fill="#0C0C0C" font-family="'MyriadPro-Regular'" font-size="30">inline link</text>
<path fill="none" d="M404.6,340.1c3.2-4.9,6.4-9.8,9.6-14.8c1.4-2.2,2.9-4.4,4.6-6.4c2.7-3.1,6.2-5.5,8.8-8.8
	c2.8-3.5,4.4-7.7,6-11.8"/>
<path fill="none" d="M417.4,377.5c0.6-4.4,2.9-8.4,5-12.4c8.1-14.7,14.7-30.2,19.9-46.2"/>
<path d="M408.9,374.3c1.9-1.6,22.3-32.9,25.5-58.3c3.2-25.4,6.1-40.6-2.6-42.6c-8.8-2-5.7-14.6-8.4,3.5
	c-2.7,18.1-5.9,48.8-15.2,56.4c-9.3,7.6-19.7,8.8-19.7,8.8l-5.3,23.4L408.9,374.3z"/>
<circle fill="none" stroke="#F7931E" stroke-miterlimit="10" cx="422.6" cy="236.5" r="10.6"/>
<circle fill="none" stroke="#F7931E" stroke-width="0.598" stroke-miterlimit="10" cx="422.8" cy="236.7" r="6.3"/>
<circle fill="none" stroke="#F7931E" stroke-width="1.3725" stroke-miterlimit="10" cx="422.6" cy="236.6" r="14.5"/>
<path d="M439.5,255c-1.5,0-2.8,1.2-2.8,2.7v-1.6c0-1.5-1.2-2.7-2.8-2.7c-1.5,0-2.8,1.2-2.8,2.7v-1.6c0-1.5-1.2-2.7-2.8-2.7
	c-1.5,0-2.8,1.2-2.8,2.7l0-15.4c0-1.5-1.2-2.7-2.8-2.7s-2.8,1.2-2.8,2.7v25.8c0,0,0,0,0,0.1c-1.4-3.6-2-5.5-4.6-8.9
	c-1.5-1.7-3.8-1.8-5-0.5c-1.1,1.3-0.9,3.3,0.3,4.6c3.4,3.8,3.8,7.7,5.3,12.4c0,0,2.6,7.1,6.2,7.1h13.5c3.6,0,6.5-2.6,6.5-5.8v-2.8
	l0-13.5C442.3,256.2,441.1,255,439.5,255L439.5,255z"/>
<line fill="none" stroke="#686765" stroke-width="1.103" stroke-miterlimit="10" x1="227.7" y1="181.4" x2="306" y2="131"/>
<text transform="matrix(1 0 0 1 142.9996 201.3682)"><tspan x="0" y="0" fill="#0C0C0C" font-family="'MyriadPro-Regular'" font-size="30">sidebar </tspan><tspan x="0" y="36" fill="#0C0C0C" font-family="'MyriadPro-Regular'" font-size="30">navigation</tspan></text>
</svg>
