<?xml version="1.0" encoding="utf-8"?>
<!-- Generator: Adobe Illustrator 17.1.0, SVG Export Plug-In . SVG Version: 6.00 Build 0)  -->
<!DOCTYPE svg PUBLIC "-//W3C//DTD SVG 1.1//EN" "http://www.w3.org/Graphics/SVG/1.1/DTD/svg11.dtd">
<svg version="1.1" id="Layer_1" xmlns="http://www.w3.org/2000/svg" xmlns:xlink="http://www.w3.org/1999/xlink" x="0px" y="0px"
	 viewBox="0 0 1268 630" style="enable-background:new 0 0 1268 630;" xml:space="preserve">
<g>
	<path style="fill:#90D8F4;" d="M117.4,161.2c-0.5,0.7-1.8,2-3.8,3c-4.4,2.2-8.8,0.6-11.1-3.9c-2.3-4.5-0.8-9.4,4-11.8
		c1.6-0.8,3.2-1.1,4.1-1.1l0.4,2.4c-0.8,0-2,0.1-3.5,0.8c-3.4,1.7-4,5.1-2.4,8.2c1.7,3.4,4.9,4.4,7.9,3c1.5-0.8,2.3-1.7,2.9-2.4
		L117.4,161.2z"/>
	<path style="fill:#90D8F4;" d="M110,138.6l2.7-1.3l4.6,9.2l0.1,0c0.1-1,0.4-2,1-2.8c0.6-0.8,1.4-1.6,2.4-2.1c2-1,5.8-1.3,8.3,3.7
		l4.4,8.8l-2.7,1.3l-4.2-8.5c-1.2-2.4-3.1-3.9-5.6-2.7c-1.7,0.9-2.5,2.8-2.3,4.5c0,0.4,0.2,0.9,0.5,1.4l4.4,8.9l-2.7,1.3L110,138.6z
		"/>
	<path style="fill:#90D8F4;" d="M145.8,147.8l-1.1-1.8l-0.1,0c-0.2,1.6-1.3,3.4-3.4,4.4c-3,1.5-5.5,0.1-6.6-2
		c-1.8-3.6,0.4-7.1,6.1-9.9l-0.2-0.3c-0.6-1.2-2-3.2-5-1.7c-1.4,0.7-2.6,1.8-3.3,3l-1.5-1.5c0.8-1.4,2.3-2.8,4.2-3.7
		c4.5-2.2,7.1,0.3,8.6,3.2l2.7,5.5c0.6,1.3,1.3,2.5,2,3.4L145.8,147.8z M141.7,140.5c-3,1.4-6,3.6-4.6,6.4c0.9,1.7,2.4,2,3.8,1.3
		c1.9-1,2.5-2.8,2.3-4.2c0-0.3-0.1-0.7-0.3-0.9L141.7,140.5z"/>
	<path style="fill:#90D8F4;" d="M141.6,122.9l2.7-1.3l10.7,21.6l-2.7,1.3L141.6,122.9z"/>
	<path style="fill:#90D8F4;" d="M148.8,119.4l2.7-1.3l10.7,21.6l-2.7,1.3L148.8,119.4z"/>
	<path style="fill:#90D8F4;" d="M164.8,129.8c1.9,3.6,4.9,3.9,7.6,2.6c1.9-1,2.9-1.9,3.7-2.8l1.4,1.7c-0.7,0.9-2.1,2.2-4.4,3.3
		c-4.5,2.3-8.7,0.6-10.9-3.8s-1.3-9.2,3-11.4c4.8-2.4,8.2,1.2,9.5,3.9c0.3,0.5,0.4,1,0.5,1.3L164.8,129.8z M171.7,124
		c-0.8-1.7-2.9-4-5.9-2.5c-2.7,1.3-2.7,4.4-2,6.4L171.7,124z"/>
	<path style="fill:#90D8F4;" d="M176.6,119.1c-0.8-1.5-1.4-2.8-2.1-3.9l2.4-1.2l1.4,2.4l0.1,0c0-1.8,1.1-4,3.5-5.2
		c2-1,5.8-1.4,8.3,3.7l4.4,8.8l-2.7,1.3l-4.2-8.5c-1.2-2.4-3-3.9-5.6-2.7c-1.8,0.9-2.5,2.8-2.2,4.5c0,0.4,0.2,0.9,0.4,1.3l4.4,8.9
		l-2.7,1.3L176.6,119.1z"/>
	<path style="fill:#90D8F4;" d="M204.3,100.4c0.5,1.1,1,2.3,1.9,4.1l4.2,8.6c1.7,3.4,2,5.8,1.2,7.8c-0.8,2.1-2.6,3.5-4.5,4.4
		c-1.8,0.9-3.9,1.4-5.5,1.2l-0.3-2.4c1.3,0.1,3.1-0.1,4.9-1c2.7-1.4,4-3.8,2.2-7.5l-0.8-1.6l-0.1,0c-0.1,1.8-1.2,3.7-3.5,4.8
		c-3.7,1.8-7.8,0-9.8-4.1c-2.5-5-0.6-9.4,2.8-11.1c2.6-1.3,4.6-0.6,5.9,0.3l0.1,0l-1-2.3L204.3,100.4z M204.4,107.6
		c-0.2-0.5-0.5-0.8-0.8-1.1c-1.3-1.3-3.2-1.9-5.2-1c-2.6,1.3-3.3,4.3-1.6,7.7c1.4,2.9,4.1,4.6,7,3.1c1.6-0.8,2.6-2.6,2.4-4.6
		c-0.1-0.5-0.3-1.1-0.5-1.5L204.4,107.6z"/>
	<path style="fill:#90D8F4;" d="M214,105.4c1.9,3.6,4.9,3.9,7.6,2.6c1.9-1,2.9-1.9,3.7-2.8l1.4,1.7c-0.7,0.9-2.1,2.2-4.4,3.3
		c-4.5,2.3-8.7,0.6-10.9-3.8s-1.3-9.2,3-11.4c4.8-2.4,8.2,1.2,9.5,3.9c0.3,0.5,0.4,1,0.5,1.3L214,105.4z M220.9,99.6
		c-0.8-1.7-2.9-4-5.9-2.5c-2.7,1.3-2.7,4.4-1.9,6.4L220.9,99.6z"/>
</g>
</svg>
