<?xml version="1.0" encoding="utf-8"?>
<!-- Generator: Adobe Illustrator 17.1.0, SVG Export Plug-In . SVG Version: 6.00 Build 0)  -->
<!DOCTYPE svg PUBLIC "-//W3C//DTD SVG 1.1//EN" "http://www.w3.org/Graphics/SVG/1.1/DTD/svg11.dtd">
<svg version="1.1" id="Layer_1" xmlns="http://www.w3.org/2000/svg" xmlns:xlink="http://www.w3.org/1999/xlink" x="0px" y="0px"
	 viewBox="0 0 775 445" style="enable-background:new 0 0 775 445;" xml:space="preserve">
<path d="M509.1,88.8l-2.1-0.6c-0.2-0.1-0.4-0.3-0.4-0.5v-8.2c0-0.2,0.1-0.4,0.4-0.5l2.1-0.6c0.7-0.2,1.4-0.9,1.2-1.7
	c-0.1-1-1-1.6-2-1.4l-3.1,0.9c-0.1,0-0.2,0-0.3,0l-3.1-0.9c-0.9-0.3-1.9,0.3-2,1.4c-0.1,0.7,0.5,1.5,1.3,1.7l2.1,0.6
	c0.2,0.1,0.4,0.3,0.4,0.5v8.2c0,0.2-0.1,0.4-0.4,0.5l-2.1,0.6c-0.7,0.2-1.4,0.9-1.2,1.8c0.1,0.8,0.8,1.4,1.6,1.4
	c0.1,0,0.3,0,0.4-0.1l3.1-0.9c0.1,0,0.2,0,0.3,0l3.1,0.9c0.1,0,0.3,0.1,0.4,0.1c0.7,0,1.5-0.5,1.6-1.4
	C510.4,89.8,509.9,89,509.1,88.8z"/>
<path d="M528.4,93.9h-30.1c-0.8,0-1.6-0.7-1.6-1.6V74.8c0-0.8,0.7-1.6,1.6-1.6h36.5c0.2,0,0.4-0.1,0.5-0.2c0.5-0.3,1.7-1,2.3-1.4
	c2.4-1.1,5-1.8,7.6-1.8c3.5,0,7,1,9.8,2.9c0.3,0.2,0.6,0.3,1,0.3h4.8c0.8,0,1.6,0.7,1.6,1.6v8.4c0.7,2.9,0.7,5.9,0,8.9v0.3
	c0,0.4-0.1,0.7-0.4,1c-0.5,1.5-1.2,2.9-2.1,4.3l0.3,0.5h4.3c1.1,0,2.1-0.9,2.1-2.1V71.1c0-1.1-0.9-2.1-2.1-2.1h-69.8
	c-1.1,0-2.1,0.9-2.1,2.1V96c0,1.1,0.9,2.1,2.1,2.1h34.8c0.6,0,1-0.7,0.7-1.4c-0.3-0.5-0.6-1.1-0.9-1.8c-0.1-0.2-0.3-0.6-0.4-0.8
	C528.8,94,528.6,93.9,528.4,93.9z"/>
<path d="M550,96.7c-5,2.7-11.2,0.7-13.9-4.3c-2.7-5-0.8-11.2,4.2-14s11.2-0.7,13.9,4.3C556.9,87.8,555,94,550,96.7z M557.1,81.3
	c-3.8-7-12.8-9.4-19.6-4.8c-5.1,3.4-7.2,10.2-4.9,15.9c2.4,6.1,8.5,9.4,14.5,8.5c0.5-0.1,1,0.2,1.2,0.7l5.7,14.3
	c0.8,2.2,3.4,3.1,5.4,2l2.7-1.5c2.1-1,2.7-3.8,1.4-5.6l-8.6-12.7c-0.3-0.4-0.3-1,0.1-1.5C558.9,92.6,559.8,86.4,557.1,81.3z"/>
<rect x="200" y="37" style="fill:none;stroke:#000000;stroke-width:6;stroke-miterlimit:10;" width="410" height="367"/>
<line style="fill:none;stroke:#000000;stroke-width:6;stroke-miterlimit:10;" x1="296" y1="36" x2="296" y2="403"/>
<line style="fill:none;stroke:#000000;stroke-width:6;stroke-linecap:round;stroke-miterlimit:10;" x1="231" y1="118" x2="281" y2="118"/>
<line style="fill:none;stroke:#000000;stroke-width:6;stroke-linecap:round;stroke-miterlimit:10;" x1="215" y1="219" x2="281" y2="219"/>
<line style="fill:none;stroke:#000000;stroke-width:6;stroke-linecap:round;stroke-miterlimit:10;" x1="215" y1="196" x2="281" y2="196"/>
<line style="fill:none;stroke:#000000;stroke-width:6;stroke-linecap:round;stroke-miterlimit:10;" x1="215" y1="173" x2="281" y2="173"/>
<line style="fill:none;stroke:#000000;stroke-width:6;stroke-linecap:round;stroke-miterlimit:10;" x1="215" y1="72" x2="281" y2="72"/>
<line style="fill:none;stroke:#000000;stroke-width:6;stroke-linecap:round;stroke-miterlimit:10;" x1="215" y1="95" x2="281" y2="95"/>
<line style="fill:none;stroke:#000000;stroke-width:6;stroke-linecap:round;stroke-miterlimit:10;" x1="231" y1="141" x2="281" y2="141"/>
<line style="fill:none;stroke:#000000;stroke-width:6;stroke-linecap:round;stroke-miterlimit:10;" x1="232" y1="293" x2="281" y2="293"/>
<line style="fill:none;stroke:#000000;stroke-width:6;stroke-linecap:round;stroke-miterlimit:10;" x1="232" y1="270" x2="281" y2="270"/>
<line style="fill:none;stroke:#000000;stroke-width:6;stroke-linecap:round;stroke-miterlimit:10;" x1="215" y1="247" x2="281" y2="247"/>
<g>
	<path d="M390.5,191.7c0.1,0.8,0.3,1.3,0.6,1.8c0.6,0.7,1.6,1.1,3.1,1.1c0.9,0,1.6-0.2,2.3-0.6c0.7-0.4,1-0.9,1-1.7
		c0-0.6-0.3-1-0.8-1.3c-0.3-0.2-1-0.4-2-0.6l-1.8-0.5c-1.2-0.3-2-0.6-2.6-1c-1-0.6-1.5-1.5-1.5-2.6c0-1.3,0.5-2.3,1.4-3.1
		c0.9-0.8,2.2-1.2,3.8-1.2c2.1,0,3.6,0.6,4.5,1.8c0.6,0.8,0.9,1.6,0.8,2.5h-2.2c0-0.5-0.2-1-0.6-1.4c-0.5-0.6-1.5-0.9-2.8-0.9
		c-0.9,0-1.6,0.2-2,0.5c-0.5,0.3-0.7,0.8-0.7,1.3c0,0.6,0.3,1.1,0.9,1.4c0.3,0.2,0.9,0.4,1.5,0.6l1.5,0.4c1.7,0.4,2.8,0.8,3.4,1.2
		c0.9,0.6,1.3,1.5,1.3,2.8c0,1.2-0.5,2.3-1.4,3.1s-2.3,1.3-4.2,1.3c-2,0-3.5-0.5-4.4-1.4c-0.9-0.9-1.3-2.1-1.4-3.4H390.5z"/>
	<path d="M410.6,182.8c0.9,0.5,1.6,1,2.1,1.8c0.5,0.7,0.8,1.5,0.9,2.4c0.1,0.6,0.2,1.6,0.2,3h-9.9c0,1.4,0.4,2.5,1,3.3
		s1.5,1.3,2.8,1.3c1.2,0,2.1-0.4,2.8-1.2c0.4-0.5,0.7-1,0.8-1.6h2.2c-0.1,0.5-0.3,1.1-0.6,1.7c-0.3,0.6-0.7,1.1-1.1,1.5
		c-0.7,0.7-1.5,1.1-2.6,1.4c-0.5,0.1-1.2,0.2-1.9,0.2c-1.7,0-3.1-0.6-4.3-1.8c-1.2-1.2-1.8-3-1.8-5.2c0-2.2,0.6-4,1.8-5.3
		s2.7-2,4.6-2C408.7,182.1,409.7,182.3,410.6,182.8z M411.4,188.1c-0.1-1-0.3-1.8-0.6-2.4c-0.6-1.1-1.7-1.7-3.1-1.7
		c-1,0-1.9,0.4-2.6,1.1c-0.7,0.8-1.1,1.7-1.1,2.9H411.4z"/>
	<path d="M423.9,187.8c0.5-0.1,0.9-0.3,1.1-0.7c0.1-0.2,0.2-0.5,0.2-0.9c0-0.8-0.3-1.3-0.8-1.7c-0.6-0.4-1.3-0.5-2.4-0.5
		c-1.2,0-2,0.3-2.5,1c-0.3,0.4-0.5,0.9-0.5,1.6h-2.1c0-1.7,0.6-2.8,1.6-3.5c1-0.7,2.3-1,3.6-1c1.6,0,2.9,0.3,3.9,0.9
		c1,0.6,1.5,1.6,1.5,2.8v7.8c0,0.2,0,0.4,0.1,0.6c0.1,0.1,0.3,0.2,0.6,0.2c0.1,0,0.2,0,0.3,0c0.1,0,0.3,0,0.4-0.1v1.7
		c-0.4,0.1-0.6,0.2-0.8,0.2s-0.4,0-0.8,0c-0.8,0-1.4-0.3-1.7-0.8c-0.2-0.3-0.3-0.7-0.4-1.3c-0.5,0.6-1.1,1.1-2,1.6s-1.8,0.7-2.9,0.7
		c-1.3,0-2.3-0.4-3.1-1.1c-0.8-0.8-1.2-1.7-1.2-2.9c0-1.3,0.4-2.2,1.2-2.9c0.8-0.7,1.8-1.1,3.1-1.3L423.9,187.8z M419.1,193.9
		c0.5,0.4,1.1,0.6,1.7,0.6c0.8,0,1.6-0.2,2.3-0.6c1.3-0.6,1.9-1.6,1.9-3v-1.8c-0.3,0.2-0.6,0.3-1.1,0.4c-0.4,0.1-0.9,0.2-1.3,0.3
		l-1.4,0.2c-0.8,0.1-1.5,0.3-1.9,0.5c-0.7,0.4-1.1,1-1.1,1.9C418.4,193,418.6,193.6,419.1,193.9z"/>
	<path d="M431.2,182.4h2.2v2.3c0.2-0.5,0.6-1,1.3-1.7c0.7-0.7,1.5-1,2.4-1c0,0,0.1,0,0.2,0s0.3,0,0.5,0.1v2.4c-0.1,0-0.3,0-0.4-0.1
		c-0.1,0-0.2,0-0.4,0c-1.2,0-2,0.4-2.7,1.1c-0.6,0.7-0.9,1.6-0.9,2.6v7.8h-2.3V182.4z"/>
	<path d="M448.7,183.1c1,0.7,1.5,2,1.7,3.8h-2.2c-0.1-0.8-0.4-1.5-0.9-2.1c-0.5-0.6-1.3-0.8-2.3-0.8c-1.5,0-2.5,0.7-3.1,2.1
		c-0.4,0.9-0.6,2.1-0.6,3.4c0,1.4,0.3,2.5,0.9,3.4s1.5,1.4,2.7,1.4c0.9,0,1.7-0.3,2.3-0.9c0.6-0.6,0.9-1.4,1.1-2.4h2.2
		c-0.3,1.8-0.9,3.1-1.9,4c-1,0.8-2.3,1.3-3.9,1.3c-1.8,0-3.2-0.6-4.3-1.9c-1.1-1.3-1.6-2.9-1.6-4.9c0-2.4,0.6-4.2,1.7-5.6
		s2.6-2,4.4-2C446.5,182,447.8,182.4,448.7,183.1z"/>
	<path d="M452.8,177.3h2.3v7c0.5-0.7,1-1.2,1.5-1.4c0.7-0.5,1.7-0.7,2.8-0.7c2,0,3.3,0.7,4,2.1c0.4,0.8,0.6,1.8,0.6,3.1v8.7h-2.3
		v-8.6c0-1-0.1-1.7-0.4-2.2c-0.4-0.7-1.2-1.1-2.3-1.1c-0.9,0-1.8,0.3-2.6,1s-1.2,1.9-1.2,3.7v7.2h-2.3V177.3z"/>
</g>
<g>
	<g>
		<path style="fill:none;stroke:#000000;stroke-width:2;" d="M446.7,167.9c17.4-12.7,34.7-25.3,52.1-38"/>
		<g>
			<polygon points="502.3,139.7 510.3,121.5 490.5,123.6 			"/>
		</g>
	</g>
</g>
</svg>
