<?xml version="1.0" encoding="utf-8"?>
<!-- Generator: Adobe Illustrator 17.1.0, SVG Export Plug-In . SVG Version: 6.00 Build 0)  -->
<!DOCTYPE svg PUBLIC "-//W3C//DTD SVG 1.1//EN" "http://www.w3.org/Graphics/SVG/1.1/DTD/svg11.dtd">
<svg version="1.1" id="Layer_1" xmlns="http://www.w3.org/2000/svg" xmlns:xlink="http://www.w3.org/1999/xlink" x="0px" y="0px"
	 viewBox="0 0 775 445" style="enable-background:new 0 0 775 445;" xml:space="preserve">
<path d="M359.8,151.8c-17.6,0-28.9-5.2-28.9-8.7c0-3.6,11.2-8.8,28.9-8.8s28.9,5.2,28.9,8.8C388.6,146.6,377.4,151.8,359.8,151.8z
	 M359.8,129.4c-16.8,0-33.8,4.7-33.8,13.6c0,2.1,0.9,3.9,2.6,5.6l19.5,21.8c0.1,0.2,0.3,0.6,0.3,0.8v20c0,3.9,5.7,5.6,11.4,5.6
	c5.7,0,11.4-1.7,11.4-5.6v-20c0-0.2,0.2-0.7,0.3-0.8l19.5-21.9c1.6-1.6,2.6-3.5,2.6-5.6C393.5,134.1,376.5,129.4,359.8,129.4z"/>
<g>
	<polygon style="fill:#FCFCFC;stroke:#000000;stroke-width:5;stroke-miterlimit:10;" points="142.5,166.6 93.5,142.8 93.5,64.5 
		142.5,88.4 	"/>
	<line style="fill:none;stroke:#000000;stroke-width:8;stroke-miterlimit:10;" x1="98.3" y1="81" x2="137.9" y2="100.2"/>
	<line style="fill:none;stroke:#000000;stroke-width:8;stroke-miterlimit:10;" x1="98.3" y1="97.9" x2="137.9" y2="117.1"/>
	<line style="fill:none;stroke:#000000;stroke-width:8;stroke-miterlimit:10;" x1="98.3" y1="114.3" x2="137.9" y2="133.5"/>
	<line style="fill:none;stroke:#000000;stroke-width:8;stroke-miterlimit:10;" x1="98.3" y1="131.2" x2="137.9" y2="150.4"/>
	<rect x="96" y="75" style="fill:#FFFFFF;" width="4" height="67"/>
	<rect x="136" y="92" style="fill:#FFFFFF;" width="4" height="67"/>
</g>
<g>
	<polygon style="fill:#FCFCFC;stroke:#000000;stroke-width:5;stroke-miterlimit:10;" points="131.5,203.6 82.5,179.8 82.5,101.5 
		131.5,125.4 	"/>
	<line style="fill:none;stroke:#000000;stroke-width:8;stroke-miterlimit:10;" x1="87.3" y1="118" x2="126.9" y2="137.1"/>
	<line style="fill:none;stroke:#000000;stroke-width:8;stroke-miterlimit:10;" x1="87.3" y1="134.9" x2="126.9" y2="154.1"/>
	<line style="fill:none;stroke:#000000;stroke-width:8;stroke-miterlimit:10;" x1="87.3" y1="151.3" x2="126.9" y2="170.5"/>
	<line style="fill:none;stroke:#000000;stroke-width:8;stroke-miterlimit:10;" x1="87.3" y1="168.2" x2="126.9" y2="187.4"/>
	<rect x="85" y="112" style="fill:#FFFFFF;" width="4" height="67"/>
	<rect x="125" y="129" style="fill:#FFFFFF;" width="4" height="67"/>
</g>
<g>
	<polygon style="fill:#FCFCFC;stroke:#000000;stroke-width:5;stroke-miterlimit:10;" points="119.5,240.6 70.5,216.8 70.5,138.5 
		119.5,162.3 	"/>
	<line style="fill:none;stroke:#000000;stroke-width:8;stroke-miterlimit:10;" x1="74.8" y1="155" x2="114.4" y2="174.1"/>
	<line style="fill:none;stroke:#000000;stroke-width:8;stroke-miterlimit:10;" x1="74.8" y1="171.9" x2="114.4" y2="191"/>
	<line style="fill:none;stroke:#000000;stroke-width:8;stroke-miterlimit:10;" x1="74.8" y1="188.3" x2="114.4" y2="207.5"/>
	<line style="fill:none;stroke:#000000;stroke-width:8;stroke-miterlimit:10;" x1="74.8" y1="205.2" x2="114.4" y2="224.4"/>
	<rect x="73" y="150" style="fill:#FFFFFF;" width="3" height="67"/>
	<rect x="112" y="166" style="fill:#FFFFFF;" width="4" height="67"/>
</g>
<g>
	<polygon style="fill:#FCFCFC;stroke:#000000;stroke-width:5;stroke-miterlimit:10;" points="109.5,277.6 60.5,253.7 60.5,175.5 
		109.5,199.3 	"/>
	<line style="fill:none;stroke:#000000;stroke-width:8;stroke-miterlimit:10;" x1="65.2" y1="192" x2="104.8" y2="211.1"/>
	<line style="fill:none;stroke:#000000;stroke-width:8;stroke-miterlimit:10;" x1="65.2" y1="208.9" x2="104.8" y2="228"/>
	<line style="fill:none;stroke:#000000;stroke-width:8;stroke-miterlimit:10;" x1="65.2" y1="225.3" x2="104.8" y2="244.5"/>
	<line style="fill:none;stroke:#000000;stroke-width:8;stroke-miterlimit:10;" x1="65.2" y1="242.2" x2="104.8" y2="261.4"/>
	<rect x="63" y="186" style="fill:#FFFFFF;" width="4" height="67"/>
	<rect x="103" y="203" style="fill:#FFFFFF;" width="4" height="67"/>
</g>
<g>
	<polygon style="fill:#FCFCFC;stroke:#000000;stroke-width:5;stroke-miterlimit:10;" points="98.5,314.6 49.5,290.7 49.5,212.5 
		98.5,236.3 	"/>
	<line style="fill:none;stroke:#000000;stroke-width:8;stroke-miterlimit:10;" x1="54.1" y1="229" x2="93.8" y2="248.1"/>
	<line style="fill:none;stroke:#000000;stroke-width:8;stroke-miterlimit:10;" x1="54.1" y1="245.9" x2="93.8" y2="265"/>
	<line style="fill:none;stroke:#000000;stroke-width:8;stroke-miterlimit:10;" x1="54.1" y1="262.3" x2="93.8" y2="281.5"/>
	<line style="fill:none;stroke:#000000;stroke-width:8;stroke-miterlimit:10;" x1="54.1" y1="279.2" x2="93.8" y2="298.4"/>
	<rect x="52" y="223" style="fill:#FFFFFF;" width="4" height="67"/>
	<rect x="92" y="240" style="fill:#FFFFFF;" width="4" height="67"/>
</g>
<g>
	<polygon style="fill:#FCFCFC;stroke:#000000;stroke-width:5;stroke-miterlimit:10;" points="608.5,111.6 559.5,87.8 559.5,9.5 
		608.5,33.4 	"/>
	<line style="fill:none;stroke:#000000;stroke-width:8;stroke-miterlimit:10;" x1="564.3" y1="26" x2="603.9" y2="45.2"/>
	<line style="fill:none;stroke:#000000;stroke-width:8;stroke-miterlimit:10;" x1="564.3" y1="42.9" x2="603.9" y2="62.1"/>
	<line style="fill:none;stroke:#000000;stroke-width:8;stroke-miterlimit:10;" x1="564.3" y1="59.3" x2="603.9" y2="78.5"/>
	<line style="fill:none;stroke:#000000;stroke-width:8;stroke-miterlimit:10;" x1="564.3" y1="76.2" x2="603.9" y2="95.4"/>
	<rect x="562" y="20" style="fill:#FFFFFF;" width="4" height="67"/>
	<rect x="602" y="37" style="fill:#FFFFFF;" width="4" height="67"/>
</g>
<g>
	<polygon style="fill:#FCFCFC;stroke:#000000;stroke-width:5;stroke-miterlimit:10;" points="597.5,148.6 548.5,124.8 548.5,46.5 
		597.5,70.4 	"/>
	<line style="fill:none;stroke:#000000;stroke-width:8;stroke-miterlimit:10;" x1="553.3" y1="63" x2="592.9" y2="82.1"/>
	<line style="fill:none;stroke:#000000;stroke-width:8;stroke-miterlimit:10;" x1="553.3" y1="79.9" x2="592.9" y2="99.1"/>
	<line style="fill:none;stroke:#000000;stroke-width:8;stroke-miterlimit:10;" x1="553.3" y1="96.3" x2="592.9" y2="115.5"/>
	<line style="fill:none;stroke:#000000;stroke-width:8;stroke-miterlimit:10;" x1="553.3" y1="113.2" x2="592.9" y2="132.4"/>
	<rect x="551" y="57" style="fill:#FFFFFF;" width="4" height="67"/>
	<rect x="591" y="74" style="fill:#FFFFFF;" width="4" height="67"/>
</g>
<polygon style="fill:#FCFCFC;stroke:#000000;stroke-width:5;stroke-miterlimit:10;" points="585.5,185.6 536.5,161.8 536.5,83.5 
	585.5,107.3 "/>
<line style="fill:none;stroke:#000000;stroke-width:8;stroke-miterlimit:10;" x1="540.8" y1="100" x2="580.4" y2="119.1"/>
<line style="fill:none;stroke:#000000;stroke-width:8;stroke-miterlimit:10;" x1="540.8" y1="116.9" x2="580.4" y2="136"/>
<line style="fill:none;stroke:#000000;stroke-width:8;stroke-miterlimit:10;" x1="540.8" y1="133.3" x2="580.4" y2="152.5"/>
<line style="fill:none;stroke:#000000;stroke-width:8;stroke-miterlimit:10;" x1="540.8" y1="150.2" x2="580.4" y2="169.4"/>
<rect x="539" y="95" style="fill:#FFFFFF;" width="3" height="67"/>
<rect x="578" y="111" style="fill:#FFFFFF;" width="4" height="67"/>
<g>
	<polygon style="fill:#FCFCFC;stroke:#000000;stroke-width:5;stroke-miterlimit:10;" points="589.5,357.6 540.5,333.8 540.5,255.5 
		589.5,279.4 	"/>
	<line style="fill:none;stroke:#000000;stroke-width:8;stroke-miterlimit:10;" x1="545.3" y1="272" x2="584.9" y2="291.2"/>
	<line style="fill:none;stroke:#000000;stroke-width:8;stroke-miterlimit:10;" x1="545.3" y1="288.9" x2="584.9" y2="308.1"/>
	<line style="fill:none;stroke:#000000;stroke-width:8;stroke-miterlimit:10;" x1="545.3" y1="305.3" x2="584.9" y2="324.5"/>
	<line style="fill:none;stroke:#000000;stroke-width:8;stroke-miterlimit:10;" x1="545.3" y1="322.2" x2="584.9" y2="341.4"/>
	<rect x="543" y="266" style="fill:#FFFFFF;" width="4" height="67"/>
	<rect x="583" y="283" style="fill:#FFFFFF;" width="4" height="67"/>
</g>
<polygon style="fill:#FCFCFC;stroke:#000000;stroke-width:5;stroke-miterlimit:10;" points="578.5,394.6 529.5,370.8 529.5,292.5 
	578.5,316.4 "/>
<line style="fill:none;stroke:#000000;stroke-width:8;stroke-miterlimit:10;" x1="534.3" y1="309" x2="573.9" y2="328.1"/>
<line style="fill:none;stroke:#000000;stroke-width:8;stroke-miterlimit:10;" x1="534.3" y1="325.9" x2="573.9" y2="345.1"/>
<rect x="532" y="303" style="fill:#FFFFFF;" width="4" height="67"/>
<rect x="572" y="320" style="fill:#FFFFFF;" width="4" height="67"/>
<path d="M674.7,80.2c-0.1,0-4.8,0.1-8.3,3c-3.8,3.3-5.4,8-4.5,13.9c1,6.4,3,9.9,4.1,10.9c0.4,0.3,2.2,1.9,2.2,3.4
	c0,0.5-0.2,0.8-0.5,1.1c-0.8,0.6-4.6,2.5-8.8,4.5c-1,0.5-1.8,0.8-2.3,1.1c-2.5,1.2-6.3,4-6.2,5.1c0,0.2,0,0.4,0,0.6
	c0.2,2.2,0.4,3.9,2.7,3.9h43.3c2.3,0,2.5-1.6,2.7-3.9c0-0.2,0-0.4,0.1-0.6c0.1-1.3-3.4-3.9-5.9-5.1c-0.4-0.2-1-0.5-1.8-0.9
	c-4.2-2.1-8.4-4.2-9.2-4.7c-0.4-0.2-0.5-0.5-0.5-1c-0.1-1.2,1.3-2.8,2.2-3.7c1-1,3.1-4.5,4.1-10.9c0.9-6-0.7-10.9-4.5-13.9
	C679.6,80.2,674.7,80.2,674.7,80.2z M696.3,129H653c-3.6,0-3.8-3.1-3.9-5c0-0.2,0-0.4-0.1-0.6c-0.2-2.5,5.7-5.8,6.9-6.3
	c0.5-0.2,1.3-0.6,2.3-1.1c2.7-1.3,7.8-3.7,8.5-4.4c0.1-0.1,0.1-0.1,0.1-0.2c0-0.5-0.8-1.6-1.8-2.5c-1.2-1.2-3.4-4.9-4.4-11.6
	c-1.2-7.9,2-12.5,4.9-15c3.9-3.3,9-3.3,9.2-3.3c0.2,0,5.3,0.1,9.4,3.3c4.2,3.2,5.9,8.5,4.9,15c-1,6.7-3.2,10.5-4.4,11.6
	c-1.3,1.3-1.9,2.3-1.8,2.7c0,0.1,0,0.1,0.1,0.1c0.8,0.5,6.2,3.2,9.1,4.6c0.8,0.4,1.4,0.7,1.8,0.9c0.1,0.1,6.8,3.5,6.5,6.3
	c0,0.2,0,0.4-0.1,0.6C700.1,125.9,699.9,129,696.3,129z"/>
<path d="M674.7,309.2c-0.1,0-4.8,0.1-8.3,3c-3.8,3.3-5.4,8-4.5,13.9c1,6.4,3,9.9,4.1,10.9c0.4,0.3,2.2,1.9,2.2,3.4
	c0,0.5-0.2,0.8-0.5,1.1c-0.8,0.6-4.6,2.5-8.8,4.5c-1,0.5-1.8,0.8-2.3,1.1c-2.5,1.2-6.3,4-6.2,5.1c0,0.2,0,0.4,0,0.6
	c0.2,2.2,0.4,3.9,2.7,3.9h43.3c2.3,0,2.5-1.6,2.7-3.9c0-0.2,0-0.4,0.1-0.6c0.1-1.3-3.4-3.9-5.9-5.1c-0.4-0.2-1-0.5-1.8-0.9
	c-4.2-2.1-8.4-4.2-9.2-4.7c-0.4-0.2-0.5-0.5-0.5-1c-0.1-1.2,1.3-2.8,2.2-3.7c1-1,3.1-4.5,4.1-10.9c0.9-6-0.7-10.9-4.5-13.9
	C679.6,309.2,674.7,309.2,674.7,309.2z M696.3,358H653c-3.6,0-3.8-3.1-3.9-5c0-0.2,0-0.4-0.1-0.6c-0.2-2.5,5.7-5.8,6.9-6.3
	c0.5-0.2,1.3-0.6,2.3-1.1c2.7-1.3,7.8-3.7,8.5-4.4c0.1-0.1,0.1-0.1,0.1-0.2c0-0.5-0.8-1.6-1.8-2.5c-1.2-1.2-3.4-4.9-4.4-11.6
	c-1.2-7.9,2-12.5,4.9-15c3.9-3.3,9-3.3,9.2-3.3c0.2,0,5.3,0.1,9.4,3.3c4.2,3.2,5.9,8.5,4.9,15c-1,6.7-3.2,10.5-4.4,11.6
	c-1.3,1.3-1.9,2.3-1.8,2.7c0,0.1,0,0.1,0.1,0.1c0.8,0.5,6.2,3.2,9.1,4.6c0.8,0.4,1.4,0.7,1.8,0.9c0.1,0.1,6.8,3.5,6.5,6.3
	c0,0.2,0,0.4-0.1,0.6C700.1,354.9,699.9,358,696.3,358z"/>
<g>
	<g>
		<path d="M634,152.3c0.5-0.1,0.9-0.3,1.1-0.7c0.1-0.2,0.2-0.5,0.2-0.9c0-0.8-0.3-1.3-0.8-1.7c-0.6-0.4-1.3-0.5-2.4-0.5
			c-1.2,0-2,0.3-2.5,1c-0.3,0.4-0.5,0.9-0.5,1.6h-2.1c0-1.7,0.6-2.8,1.6-3.5c1-0.7,2.3-1,3.6-1c1.6,0,2.9,0.3,3.9,0.9
			c1,0.6,1.5,1.6,1.5,2.8v7.8c0,0.2,0,0.4,0.1,0.6c0.1,0.1,0.3,0.2,0.6,0.2c0.1,0,0.2,0,0.3,0s0.3,0,0.4-0.1v1.7
			c-0.4,0.1-0.6,0.2-0.8,0.2s-0.4,0-0.8,0c-0.8,0-1.4-0.3-1.7-0.8c-0.2-0.3-0.3-0.7-0.4-1.3c-0.5,0.6-1.1,1.1-2,1.6
			c-0.9,0.4-1.8,0.7-2.9,0.7c-1.3,0-2.3-0.4-3.1-1.1c-0.8-0.8-1.2-1.7-1.2-2.9c0-1.3,0.4-2.2,1.2-2.9c0.8-0.7,1.8-1.1,3.1-1.3
			L634,152.3z M629.2,158.4c0.5,0.4,1.1,0.6,1.7,0.6c0.8,0,1.6-0.2,2.3-0.6c1.3-0.6,1.9-1.6,1.9-3v-1.8c-0.3,0.2-0.6,0.3-1.1,0.4
			c-0.4,0.1-0.9,0.2-1.3,0.3l-1.4,0.2c-0.8,0.1-1.5,0.3-1.9,0.5c-0.7,0.4-1.1,1-1.1,1.9C628.4,157.5,628.7,158.1,629.2,158.4z"/>
		<path d="M643.4,146.9v9c0,0.7,0.1,1.3,0.3,1.7c0.4,0.8,1.1,1.2,2.2,1.2c1.5,0,2.6-0.7,3.2-2.1c0.3-0.8,0.5-1.8,0.5-3.1v-6.7h2.3
			v13.6h-2.2l0-2c-0.3,0.5-0.7,1-1.1,1.3c-0.9,0.7-1.9,1.1-3.1,1.1c-1.9,0-3.2-0.6-3.9-1.9c-0.4-0.7-0.6-1.6-0.6-2.8v-9.2H643.4z"/>
		<path d="M663.1,147.3c0.4,0.3,0.9,0.7,1.4,1.3v-6.9h2.2v18.7h-2.1v-1.9c-0.5,0.8-1.2,1.4-1.9,1.8c-0.7,0.4-1.6,0.6-2.5,0.6
			c-1.5,0-2.8-0.6-3.9-1.9c-1.1-1.3-1.7-3-1.7-5.1c0-2,0.5-3.7,1.5-5.1c1-1.5,2.4-2.2,4.3-2.2C661.5,146.7,662.4,146.9,663.1,147.3z
			 M658,157.5c0.6,1,1.6,1.5,3,1.5c1.1,0,1.9-0.5,2.6-1.4c0.7-0.9,1-2.2,1-3.9c0-1.7-0.3-3-1-3.8c-0.7-0.8-1.6-1.2-2.6-1.2
			c-1.1,0-2.1,0.4-2.8,1.3c-0.7,0.9-1.1,2.2-1.1,3.9C657.1,155.3,657.4,156.5,658,157.5z"/>
		<path d="M670.1,141.9h2.3v2.6h-2.3V141.9z M670.1,147h2.3v13.5h-2.3V147z"/>
		<path d="M684.2,147.3c0.9,0.5,1.6,1,2.1,1.8c0.5,0.7,0.8,1.5,0.9,2.4c0.1,0.6,0.2,1.6,0.2,3h-9.9c0,1.4,0.4,2.5,1,3.3
			s1.5,1.3,2.8,1.3c1.2,0,2.1-0.4,2.8-1.2c0.4-0.5,0.7-1,0.8-1.6h2.2c-0.1,0.5-0.3,1.1-0.6,1.7c-0.3,0.6-0.7,1.1-1.1,1.5
			c-0.7,0.7-1.5,1.1-2.6,1.4c-0.5,0.1-1.2,0.2-1.9,0.2c-1.7,0-3.1-0.6-4.3-1.8c-1.2-1.2-1.8-3-1.8-5.2c0-2.2,0.6-4,1.8-5.3
			s2.7-2,4.6-2C682.4,146.6,683.3,146.8,684.2,147.3z M685.1,152.6c-0.1-1-0.3-1.8-0.6-2.4c-0.6-1.1-1.7-1.7-3.1-1.7
			c-1,0-1.9,0.4-2.6,1.1s-1.1,1.7-1.1,2.9H685.1z"/>
		<path d="M690.3,146.9h2.2v1.9c0.6-0.8,1.3-1.4,2-1.7s1.5-0.5,2.4-0.5c1.9,0,3.2,0.7,3.9,2c0.4,0.7,0.6,1.8,0.6,3.2v8.7h-2.3v-8.6
			c0-0.8-0.1-1.5-0.4-2c-0.4-0.8-1.1-1.3-2.2-1.3c-0.5,0-1,0.1-1.3,0.2c-0.6,0.2-1.2,0.6-1.7,1.1c-0.4,0.4-0.6,0.9-0.7,1.4
			c-0.1,0.5-0.2,1.2-0.2,2.1v7.1h-2.3V146.9z"/>
		<path d="M713.7,147.6c1,0.7,1.5,2,1.7,3.8h-2.2c-0.1-0.8-0.4-1.5-0.9-2.1s-1.3-0.8-2.3-0.8c-1.5,0-2.5,0.7-3.1,2.1
			c-0.4,0.9-0.6,2.1-0.6,3.4c0,1.4,0.3,2.5,0.9,3.4c0.6,0.9,1.5,1.4,2.7,1.4c0.9,0,1.7-0.3,2.3-0.9c0.6-0.6,0.9-1.4,1.1-2.4h2.2
			c-0.3,1.8-0.9,3.1-1.9,4s-2.3,1.3-3.9,1.3c-1.8,0-3.2-0.6-4.3-1.9s-1.6-2.9-1.6-4.9c0-2.4,0.6-4.2,1.7-5.6s2.6-2,4.4-2
			C711.5,146.5,712.8,146.9,713.7,147.6z"/>
		<path d="M726.2,147.3c0.9,0.5,1.6,1,2.1,1.8c0.5,0.7,0.8,1.5,0.9,2.4c0.1,0.6,0.2,1.6,0.2,3h-9.9c0,1.4,0.4,2.5,1,3.3
			s1.5,1.3,2.8,1.3c1.2,0,2.1-0.4,2.8-1.2c0.4-0.5,0.7-1,0.8-1.6h2.2c-0.1,0.5-0.3,1.1-0.6,1.7c-0.3,0.6-0.7,1.1-1.1,1.5
			c-0.7,0.7-1.5,1.1-2.6,1.4c-0.5,0.1-1.2,0.2-1.9,0.2c-1.7,0-3.1-0.6-4.3-1.8c-1.2-1.2-1.8-3-1.8-5.2c0-2.2,0.6-4,1.8-5.3
			s2.7-2,4.6-2C724.3,146.6,725.3,146.8,726.2,147.3z M727,152.6c-0.1-1-0.3-1.8-0.6-2.4c-0.6-1.1-1.7-1.7-3.1-1.7
			c-1,0-1.9,0.4-2.6,1.1s-1.1,1.7-1.1,2.9H727z"/>
		<path d="M740.3,147.6v-1.8c1.7-0.2,2.8-0.4,3.5-0.8s1.1-1.3,1.5-2.7h1.8v18.1h-2.4v-12.9H740.3z"/>
	</g>
</g>
<g>
	<path d="M625,381.3c0.5-0.1,0.9-0.3,1.1-0.7c0.1-0.2,0.2-0.5,0.2-0.9c0-0.8-0.3-1.3-0.8-1.7c-0.6-0.4-1.3-0.5-2.4-0.5
		c-1.2,0-2,0.3-2.5,1c-0.3,0.4-0.5,0.9-0.5,1.6h-2.1c0-1.7,0.6-2.8,1.6-3.5c1-0.7,2.3-1,3.6-1c1.6,0,2.9,0.3,3.9,0.9
		c1,0.6,1.5,1.6,1.5,2.8v7.8c0,0.2,0,0.4,0.1,0.6c0.1,0.1,0.3,0.2,0.6,0.2c0.1,0,0.2,0,0.3,0s0.3,0,0.4-0.1v1.7
		c-0.4,0.1-0.6,0.2-0.8,0.2s-0.4,0-0.8,0c-0.8,0-1.4-0.3-1.7-0.8c-0.2-0.3-0.3-0.7-0.4-1.3c-0.5,0.6-1.1,1.1-2,1.6
		c-0.9,0.4-1.8,0.7-2.9,0.7c-1.3,0-2.3-0.4-3.1-1.1c-0.8-0.8-1.2-1.7-1.2-2.9c0-1.3,0.4-2.2,1.2-2.9c0.8-0.7,1.8-1.1,3.1-1.3
		L625,381.3z M620.2,387.4c0.5,0.4,1.1,0.6,1.7,0.6c0.8,0,1.6-0.2,2.3-0.6c1.3-0.6,1.9-1.6,1.9-3v-1.8c-0.3,0.2-0.6,0.3-1.1,0.4
		c-0.4,0.1-0.9,0.2-1.3,0.3l-1.4,0.2c-0.8,0.1-1.5,0.3-1.9,0.5c-0.7,0.4-1.1,1-1.1,1.9C619.4,386.5,619.7,387.1,620.2,387.4z"/>
	<path d="M634.4,375.9v9c0,0.7,0.1,1.3,0.3,1.7c0.4,0.8,1.1,1.2,2.2,1.2c1.5,0,2.6-0.7,3.2-2.1c0.3-0.8,0.5-1.8,0.5-3.1v-6.7h2.3
		v13.6h-2.2l0-2c-0.3,0.5-0.7,1-1.1,1.3c-0.9,0.7-1.9,1.1-3.1,1.1c-1.9,0-3.2-0.6-3.9-1.9c-0.4-0.7-0.6-1.6-0.6-2.8v-9.2H634.4z"/>
	<path d="M654.1,376.3c0.4,0.3,0.9,0.7,1.4,1.3v-6.9h2.2v18.7h-2.1v-1.9c-0.5,0.8-1.2,1.4-1.9,1.8c-0.7,0.4-1.6,0.6-2.5,0.6
		c-1.5,0-2.8-0.6-3.9-1.9c-1.1-1.3-1.7-3-1.7-5.1c0-2,0.5-3.7,1.5-5.1c1-1.5,2.4-2.2,4.3-2.2C652.5,375.7,653.4,375.9,654.1,376.3z
		 M649,386.5c0.6,1,1.6,1.5,3,1.5c1.1,0,1.9-0.5,2.6-1.4c0.7-0.9,1-2.2,1-3.9c0-1.7-0.3-3-1-3.8c-0.7-0.8-1.6-1.2-2.6-1.2
		c-1.1,0-2.1,0.4-2.8,1.3c-0.7,0.9-1.1,2.2-1.1,3.9C648.1,384.3,648.4,385.5,649,386.5z"/>
	<path d="M661.1,370.9h2.3v2.6h-2.3V370.9z M661.1,376h2.3v13.5h-2.3V376z"/>
	<path d="M675.2,376.3c0.9,0.5,1.6,1,2.1,1.8c0.5,0.7,0.8,1.5,0.9,2.4c0.1,0.6,0.2,1.6,0.2,3h-9.9c0,1.4,0.4,2.5,1,3.3
		s1.5,1.3,2.8,1.3c1.2,0,2.1-0.4,2.8-1.2c0.4-0.5,0.7-1,0.8-1.6h2.2c-0.1,0.5-0.3,1.1-0.6,1.7c-0.3,0.6-0.7,1.1-1.1,1.5
		c-0.7,0.7-1.5,1.1-2.6,1.4c-0.5,0.1-1.2,0.2-1.9,0.2c-1.7,0-3.1-0.6-4.3-1.8c-1.2-1.2-1.8-3-1.8-5.2c0-2.2,0.6-4,1.8-5.3
		s2.7-2,4.6-2C673.4,375.6,674.3,375.8,675.2,376.3z M676.1,381.6c-0.1-1-0.3-1.8-0.6-2.4c-0.6-1.1-1.7-1.7-3.1-1.7
		c-1,0-1.9,0.4-2.6,1.1s-1.1,1.7-1.1,2.9H676.1z"/>
	<path d="M681.3,375.9h2.2v1.9c0.6-0.8,1.3-1.4,2-1.7s1.5-0.5,2.4-0.5c1.9,0,3.2,0.7,3.9,2c0.4,0.7,0.6,1.8,0.6,3.2v8.7h-2.3v-8.6
		c0-0.8-0.1-1.5-0.4-2c-0.4-0.8-1.1-1.3-2.2-1.3c-0.5,0-1,0.1-1.3,0.2c-0.6,0.2-1.2,0.6-1.7,1.1c-0.4,0.4-0.6,0.9-0.7,1.4
		c-0.1,0.5-0.2,1.2-0.2,2.1v7.1h-2.3V375.9z"/>
	<path d="M704.7,376.6c1,0.7,1.5,2,1.7,3.8h-2.2c-0.1-0.8-0.4-1.5-0.9-2.1s-1.3-0.8-2.3-0.8c-1.5,0-2.5,0.7-3.1,2.1
		c-0.4,0.9-0.6,2.1-0.6,3.4c0,1.4,0.3,2.5,0.9,3.4c0.6,0.9,1.5,1.4,2.7,1.4c0.9,0,1.7-0.3,2.3-0.9c0.6-0.6,0.9-1.4,1.1-2.4h2.2
		c-0.3,1.8-0.9,3.1-1.9,4s-2.3,1.3-3.9,1.3c-1.8,0-3.2-0.6-4.3-1.9s-1.6-2.9-1.6-4.9c0-2.4,0.6-4.2,1.7-5.6s2.6-2,4.4-2
		C702.5,375.5,703.8,375.9,704.7,376.6z"/>
	<path d="M717.2,376.3c0.9,0.5,1.6,1,2.1,1.8c0.5,0.7,0.8,1.5,0.9,2.4c0.1,0.6,0.2,1.6,0.2,3h-9.9c0,1.4,0.4,2.5,1,3.3
		s1.5,1.3,2.8,1.3c1.2,0,2.1-0.4,2.8-1.2c0.4-0.5,0.7-1,0.8-1.6h2.2c-0.1,0.5-0.3,1.1-0.6,1.7c-0.3,0.6-0.7,1.1-1.1,1.5
		c-0.7,0.7-1.5,1.1-2.6,1.4c-0.5,0.1-1.2,0.2-1.9,0.2c-1.7,0-3.1-0.6-4.3-1.8c-1.2-1.2-1.8-3-1.8-5.2c0-2.2,0.6-4,1.8-5.3
		s2.7-2,4.6-2C715.3,375.6,716.3,375.8,717.2,376.3z M718,381.6c-0.1-1-0.3-1.8-0.6-2.4c-0.6-1.1-1.7-1.7-3.1-1.7
		c-1,0-1.9,0.4-2.6,1.1s-1.1,1.7-1.1,2.9H718z"/>
	<path d="M730.6,385.4c0.6-1.2,1.7-2.2,3.3-3.2l2.4-1.4c1.1-0.6,1.9-1.2,2.3-1.6c0.7-0.7,1-1.5,1-2.4c0-1.1-0.3-1.9-1-2.5
		c-0.6-0.6-1.5-0.9-2.5-0.9c-1.6,0-2.6,0.6-3.2,1.8c-0.3,0.6-0.5,1.5-0.5,2.6H730c0-1.6,0.3-2.9,0.9-3.9c1-1.8,2.7-2.6,5.2-2.6
		c2.1,0,3.6,0.6,4.6,1.7c1,1.1,1.4,2.4,1.4,3.8c0,1.5-0.5,2.7-1.5,3.7c-0.6,0.6-1.7,1.3-3.2,2.2l-1.7,1c-0.8,0.5-1.5,0.9-2,1.3
		c-0.8,0.7-1.4,1.6-1.6,2.5h9.9v2.2h-12.5C729.7,387.9,730,386.6,730.6,385.4z"/>
</g>
<g>
	<path d="M317,216.5c0.5-0.8,1.6-1.2,3.1-1.2c0.1,0,0.3,0,0.4,0s0.3,0,0.5,0v2.1c-0.2,0-0.4,0-0.5,0c-0.1,0-0.2,0-0.3,0
		c-0.7,0-1.1,0.2-1.3,0.5s-0.2,1.3-0.2,2.7h2.3v1.8h-2.3v11.7h-2.3v-11.7h-1.9v-1.8h1.9v-2.1C316.5,217.6,316.7,216.9,317,216.5z"/>
	<path d="M323.1,215.6h2.3v2.6h-2.3V215.6z M323.1,220.7h2.3v13.5h-2.3V220.7z"/>
	<path d="M329,215.6h2.3v18.6H329V215.6z"/>
	<path d="M335.1,216.8h2.3v3.8h2.2v1.9h-2.2v8.9c0,0.5,0.2,0.8,0.5,1c0.2,0.1,0.5,0.1,0.9,0.1c0.1,0,0.2,0,0.4,0s0.3,0,0.4,0v1.8
		c-0.3,0.1-0.5,0.1-0.8,0.2c-0.3,0-0.6,0.1-0.9,0.1c-1.1,0-1.8-0.3-2.2-0.8s-0.6-1.3-0.6-2.1v-9h-1.8v-1.9h1.8V216.8z"/>
	<path d="M350.3,221c0.9,0.5,1.6,1,2.1,1.8c0.5,0.7,0.8,1.5,0.9,2.4c0.1,0.6,0.2,1.6,0.2,3h-9.9c0,1.4,0.4,2.5,1,3.3
		s1.5,1.3,2.8,1.3c1.2,0,2.1-0.4,2.8-1.2c0.4-0.5,0.7-1,0.8-1.6h2.2c-0.1,0.5-0.3,1.1-0.6,1.7c-0.3,0.6-0.7,1.1-1.1,1.5
		c-0.7,0.7-1.5,1.1-2.6,1.4c-0.5,0.1-1.2,0.2-1.9,0.2c-1.7,0-3.1-0.6-4.3-1.8c-1.2-1.2-1.8-3-1.8-5.2c0-2.2,0.6-4,1.8-5.3
		s2.7-2,4.6-2C348.5,220.3,349.4,220.6,350.3,221z M351.1,226.3c-0.1-1-0.3-1.8-0.6-2.4c-0.6-1.1-1.7-1.7-3.1-1.7
		c-1,0-1.9,0.4-2.6,1.1s-1.1,1.7-1.1,2.9H351.1z"/>
	<path d="M356.4,220.6h2.2v2.3c0.2-0.5,0.6-1,1.3-1.7s1.5-1,2.4-1c0,0,0.1,0,0.2,0s0.3,0,0.5,0.1v2.4c-0.1,0-0.3,0-0.4-0.1
		c-0.1,0-0.2,0-0.4,0c-1.2,0-2,0.4-2.7,1.1s-0.9,1.6-0.9,2.6v7.8h-2.3V220.6z"/>
	<path d="M365,215.6h2.3v2.6H365V215.6z M365,220.7h2.3v13.5H365V220.7z"/>
	<path d="M370.8,220.6h2.2v1.9c0.6-0.8,1.3-1.4,2-1.7s1.5-0.5,2.4-0.5c1.9,0,3.2,0.7,3.9,2c0.4,0.7,0.6,1.8,0.6,3.2v8.7h-2.3v-8.6
		c0-0.8-0.1-1.5-0.4-2c-0.4-0.8-1.1-1.3-2.2-1.3c-0.5,0-1,0.1-1.3,0.2c-0.6,0.2-1.2,0.6-1.7,1.1c-0.4,0.4-0.6,0.9-0.7,1.4
		c-0.1,0.5-0.2,1.2-0.2,2.1v7.1h-2.3V220.6z"/>
	<path d="M392.8,221.2c0.4,0.3,0.9,0.7,1.3,1.3v-1.7h2.1v12.4c0,1.7-0.3,3.1-0.8,4.1c-0.9,1.8-2.7,2.8-5.4,2.8c-1.5,0-2.7-0.3-3.7-1
		c-1-0.7-1.6-1.7-1.7-3.1h2.3c0.1,0.6,0.3,1.1,0.7,1.4c0.5,0.5,1.3,0.8,2.4,0.8c1.7,0,2.9-0.6,3.4-1.9c0.3-0.7,0.5-2,0.4-3.9
		c-0.5,0.7-1,1.2-1.6,1.5s-1.5,0.5-2.5,0.5c-1.5,0-2.8-0.5-3.9-1.6c-1.1-1-1.7-2.8-1.7-5.2c0-2.3,0.6-4.1,1.7-5.3s2.4-1.9,4-1.9
		C391.1,220.4,392,220.7,392.8,221.2z M393.1,223.6c-0.7-0.8-1.6-1.2-2.6-1.2c-1.6,0-2.7,0.8-3.3,2.3c-0.3,0.8-0.5,1.9-0.5,3.2
		c0,1.5,0.3,2.7,0.9,3.5c0.6,0.8,1.5,1.2,2.5,1.2c1.6,0,2.8-0.7,3.4-2.2c0.4-0.8,0.6-1.8,0.6-2.9
		C394.1,225.7,393.8,224.4,393.1,223.6z"/>
	<path d="M295,251.8h2.3v1.9c0.5-0.7,1-1.2,1.5-1.5c0.8-0.5,1.6-0.8,2.6-0.8c1.1,0,2,0.3,2.6,0.8c0.4,0.3,0.7,0.8,1,1.3
		c0.5-0.7,1.1-1.3,1.8-1.6s1.5-0.5,2.3-0.5c1.8,0,3.1,0.7,3.7,2c0.4,0.7,0.5,1.7,0.5,2.9v9.1h-2.4V256c0-0.9-0.2-1.5-0.7-1.9
		c-0.5-0.3-1-0.5-1.7-0.5c-0.9,0-1.7,0.3-2.3,0.9c-0.6,0.6-1,1.6-1,3v7.9h-2.3v-8.9c0-0.9-0.1-1.6-0.3-2c-0.3-0.6-1-1-1.9-1
		c-0.9,0-1.6,0.3-2.4,1c-0.7,0.7-1.1,1.9-1.1,3.6v7.2H295V251.8z"/>
	<path d="M325,252.2c0.9,0.5,1.6,1,2.1,1.8c0.5,0.7,0.8,1.5,0.9,2.4c0.1,0.6,0.2,1.6,0.2,3h-9.9c0,1.4,0.4,2.5,1,3.3
		s1.5,1.3,2.8,1.3c1.2,0,2.1-0.4,2.8-1.2c0.4-0.5,0.7-1,0.8-1.6h2.2c-0.1,0.5-0.3,1.1-0.6,1.7c-0.3,0.6-0.7,1.1-1.1,1.5
		c-0.7,0.7-1.5,1.1-2.6,1.4c-0.5,0.1-1.2,0.2-1.9,0.2c-1.7,0-3.1-0.6-4.3-1.8c-1.2-1.2-1.8-3-1.8-5.2c0-2.2,0.6-4,1.8-5.3
		s2.7-2,4.6-2C323.2,251.5,324.1,251.8,325,252.2z M325.8,257.5c-0.1-1-0.3-1.8-0.6-2.4c-0.6-1.1-1.7-1.7-3.1-1.7
		c-1,0-1.9,0.4-2.6,1.1s-1.1,1.7-1.1,2.9H325.8z"/>
	<path d="M340.1,252.6c1,0.7,1.5,2,1.7,3.8h-2.2c-0.1-0.8-0.4-1.5-0.9-2.1s-1.3-0.8-2.3-0.8c-1.5,0-2.5,0.7-3.1,2.1
		c-0.4,0.9-0.6,2.1-0.6,3.4c0,1.4,0.3,2.5,0.9,3.4c0.6,0.9,1.5,1.4,2.7,1.4c0.9,0,1.7-0.3,2.3-0.9c0.6-0.6,0.9-1.4,1.1-2.4h2.2
		c-0.3,1.8-0.9,3.1-1.9,4s-2.3,1.3-3.9,1.3c-1.8,0-3.2-0.6-4.3-1.9s-1.6-2.9-1.6-4.9c0-2.4,0.6-4.2,1.7-5.6s2.6-2,4.4-2
		C337.9,251.4,339.1,251.8,340.1,252.6z"/>
	<path d="M344.1,246.7h2.3v7c0.5-0.7,1-1.2,1.5-1.4c0.7-0.5,1.7-0.7,2.8-0.7c2,0,3.3,0.7,4,2.1c0.4,0.8,0.6,1.8,0.6,3.1v8.7h-2.3
		v-8.6c0-1-0.1-1.7-0.4-2.2c-0.4-0.7-1.2-1.1-2.3-1.1c-0.9,0-1.8,0.3-2.6,1s-1.2,1.9-1.2,3.7v7.2h-2.3V246.7z"/>
	<path d="M365.8,257.2c0.5-0.1,0.9-0.3,1.1-0.7c0.1-0.2,0.2-0.5,0.2-0.9c0-0.8-0.3-1.3-0.8-1.7c-0.6-0.4-1.3-0.5-2.4-0.5
		c-1.2,0-2,0.3-2.5,1c-0.3,0.4-0.5,0.9-0.5,1.6h-2.1c0-1.7,0.6-2.8,1.6-3.5c1-0.7,2.3-1,3.6-1c1.6,0,2.9,0.3,3.9,0.9
		c1,0.6,1.5,1.6,1.5,2.8v7.8c0,0.2,0,0.4,0.1,0.6c0.1,0.1,0.3,0.2,0.6,0.2c0.1,0,0.2,0,0.3,0s0.3,0,0.4-0.1v1.7
		c-0.4,0.1-0.6,0.2-0.8,0.2s-0.4,0-0.8,0c-0.8,0-1.4-0.3-1.7-0.8c-0.2-0.3-0.3-0.7-0.4-1.3c-0.5,0.6-1.1,1.1-2,1.6
		c-0.9,0.4-1.8,0.7-2.9,0.7c-1.3,0-2.3-0.4-3.1-1.1c-0.8-0.8-1.2-1.7-1.2-2.9c0-1.3,0.4-2.2,1.2-2.9c0.8-0.7,1.8-1.1,3.1-1.3
		L365.8,257.2z M361,263.4c0.5,0.4,1.1,0.6,1.7,0.6c0.8,0,1.6-0.2,2.3-0.6c1.3-0.6,1.9-1.6,1.9-3v-1.8c-0.3,0.2-0.6,0.3-1.1,0.4
		c-0.4,0.1-0.9,0.2-1.3,0.3l-1.4,0.2c-0.8,0.1-1.5,0.3-1.9,0.5c-0.7,0.4-1.1,1-1.1,1.9C360.3,262.5,360.5,263,361,263.4z"/>
	<path d="M373,251.8h2.2v1.9c0.6-0.8,1.3-1.4,2-1.7s1.5-0.5,2.4-0.5c1.9,0,3.2,0.7,3.9,2c0.4,0.7,0.6,1.8,0.6,3.2v8.7h-2.3v-8.6
		c0-0.8-0.1-1.5-0.4-2c-0.4-0.8-1.1-1.3-2.2-1.3c-0.5,0-1,0.1-1.3,0.2c-0.6,0.2-1.2,0.6-1.7,1.1c-0.4,0.4-0.6,0.9-0.7,1.4
		c-0.1,0.5-0.2,1.2-0.2,2.1v7.1H373V251.8z"/>
	<path d="M387.5,246.8h2.3v2.6h-2.3V246.8z M387.5,251.9h2.3v13.5h-2.3V251.9z"/>
	<path d="M394.6,261.2c0.1,0.8,0.3,1.3,0.6,1.8c0.6,0.7,1.6,1.1,3.1,1.1c0.9,0,1.6-0.2,2.3-0.6c0.7-0.4,1-0.9,1-1.7
		c0-0.6-0.3-1-0.8-1.3c-0.3-0.2-1-0.4-2-0.6l-1.8-0.5c-1.2-0.3-2-0.6-2.6-1c-1-0.6-1.5-1.5-1.5-2.6c0-1.3,0.5-2.3,1.4-3.1
		c0.9-0.8,2.2-1.2,3.8-1.2c2.1,0,3.6,0.6,4.5,1.8c0.6,0.8,0.9,1.6,0.8,2.5h-2.2c0-0.5-0.2-1-0.6-1.4c-0.5-0.6-1.5-0.9-2.8-0.9
		c-0.9,0-1.6,0.2-2,0.5c-0.5,0.3-0.7,0.8-0.7,1.3c0,0.6,0.3,1.1,0.9,1.4c0.3,0.2,0.9,0.4,1.5,0.6l1.5,0.4c1.7,0.4,2.8,0.8,3.4,1.2
		c0.9,0.6,1.3,1.5,1.3,2.8c0,1.2-0.5,2.3-1.4,3.1s-2.3,1.3-4.2,1.3c-2,0-3.5-0.5-4.4-1.4s-1.3-2.1-1.4-3.4H394.6z"/>
	<path d="M406.2,251.8h2.3v1.9c0.5-0.7,1-1.2,1.5-1.5c0.8-0.5,1.6-0.8,2.6-0.8c1.1,0,2,0.3,2.6,0.8c0.4,0.3,0.7,0.8,1,1.3
		c0.5-0.7,1.1-1.3,1.8-1.6s1.5-0.5,2.3-0.5c1.8,0,3.1,0.7,3.7,2c0.4,0.7,0.5,1.7,0.5,2.9v9.1h-2.4V256c0-0.9-0.2-1.5-0.7-1.9
		c-0.5-0.3-1-0.5-1.7-0.5c-0.9,0-1.7,0.3-2.3,0.9c-0.6,0.6-1,1.6-1,3v7.9h-2.3v-8.9c0-0.9-0.1-1.6-0.3-2c-0.3-0.6-1-1-1.9-1
		c-0.9,0-1.6,0.3-2.4,1c-0.7,0.7-1.1,1.9-1.1,3.6v7.2h-2.3V251.8z"/>
</g>
<g>
	<path d="M40.8,354.3c0.1,0.8,0.3,1.3,0.6,1.8c0.6,0.7,1.6,1.1,3.1,1.1c0.9,0,1.6-0.2,2.3-0.6c0.7-0.4,1-0.9,1-1.7
		c0-0.6-0.3-1-0.8-1.3c-0.3-0.2-1-0.4-2-0.6l-1.8-0.5c-1.2-0.3-2-0.6-2.6-1c-1-0.6-1.5-1.5-1.5-2.6c0-1.3,0.5-2.3,1.4-3.1
		c0.9-0.8,2.2-1.2,3.8-1.2c2.1,0,3.6,0.6,4.5,1.8c0.6,0.8,0.9,1.6,0.8,2.5h-2.2c0-0.5-0.2-1-0.6-1.4c-0.5-0.6-1.5-0.9-2.8-0.9
		c-0.9,0-1.6,0.2-2,0.5c-0.5,0.3-0.7,0.8-0.7,1.3c0,0.6,0.3,1.1,0.9,1.4c0.3,0.2,0.9,0.4,1.5,0.6l1.5,0.4c1.7,0.4,2.8,0.8,3.4,1.2
		c0.9,0.6,1.3,1.5,1.3,2.8c0,1.2-0.5,2.3-1.4,3.1s-2.3,1.3-4.2,1.3c-2,0-3.5-0.5-4.4-1.4s-1.3-2.1-1.4-3.4H40.8z"/>
	<path d="M62.3,346.3c1.2,1.2,1.8,2.9,1.8,5.1c0,2.2-0.5,4-1.6,5.4c-1.1,1.4-2.7,2.1-4.9,2.1c-1.9,0-3.3-0.6-4.4-1.9s-1.6-3-1.6-5.1
		c0-2.3,0.6-4.1,1.7-5.5c1.2-1.4,2.7-2,4.6-2C59.6,344.6,61.1,345.2,62.3,346.3z M60.9,355.4c0.6-1.1,0.8-2.4,0.8-3.8
		c0-1.3-0.2-2.3-0.6-3.1c-0.6-1.3-1.7-1.9-3.3-1.9c-1.4,0-2.4,0.5-3,1.6c-0.6,1.1-0.9,2.4-0.9,3.9c0,1.4,0.3,2.6,0.9,3.6
		c0.6,1,1.6,1.4,3,1.4C59.3,357.1,60.3,356.5,60.9,355.4z"/>
	<path d="M69.2,345v9c0,0.7,0.1,1.3,0.3,1.7c0.4,0.8,1.1,1.2,2.2,1.2c1.5,0,2.6-0.7,3.2-2.1c0.3-0.8,0.5-1.8,0.5-3.1V345h2.3v13.6
		h-2.2l0-2c-0.3,0.5-0.7,1-1.1,1.3c-0.9,0.7-1.9,1.1-3.1,1.1c-1.9,0-3.2-0.6-3.9-1.9c-0.4-0.7-0.6-1.6-0.6-2.8V345H69.2z"/>
	<path d="M81.4,345h2.2v2.3c0.2-0.5,0.6-1,1.3-1.7s1.5-1,2.4-1c0,0,0.1,0,0.2,0s0.3,0,0.5,0.1v2.4c-0.1,0-0.3,0-0.4-0.1
		c-0.1,0-0.2,0-0.4,0c-1.2,0-2,0.4-2.7,1.1s-0.9,1.6-0.9,2.6v7.8h-2.3V345z"/>
	<path d="M99,345.7c1,0.7,1.5,2,1.7,3.8h-2.2c-0.1-0.8-0.4-1.5-0.9-2.1s-1.3-0.8-2.3-0.8c-1.5,0-2.5,0.7-3.1,2.1
		c-0.4,0.9-0.6,2.1-0.6,3.4c0,1.4,0.3,2.5,0.9,3.4c0.6,0.9,1.5,1.4,2.7,1.4c0.9,0,1.7-0.3,2.3-0.9c0.6-0.6,0.9-1.4,1.1-2.4h2.2
		c-0.3,1.8-0.9,3.1-1.9,4s-2.3,1.3-3.9,1.3c-1.8,0-3.2-0.6-4.3-1.9s-1.6-2.9-1.6-4.9c0-2.4,0.6-4.2,1.7-5.6s2.6-2,4.4-2
		C96.8,344.6,98,344.9,99,345.7z"/>
	<path d="M111.4,345.3c0.9,0.5,1.6,1,2.1,1.8c0.5,0.7,0.8,1.5,0.9,2.4c0.1,0.6,0.2,1.6,0.2,3h-9.9c0,1.4,0.4,2.5,1,3.3
		s1.5,1.3,2.8,1.3c1.2,0,2.1-0.4,2.8-1.2c0.4-0.5,0.7-1,0.8-1.6h2.2c-0.1,0.5-0.3,1.1-0.6,1.7c-0.3,0.6-0.7,1.1-1.1,1.5
		c-0.7,0.7-1.5,1.1-2.6,1.4c-0.5,0.1-1.2,0.2-1.9,0.2c-1.7,0-3.1-0.6-4.3-1.8c-1.2-1.2-1.8-3-1.8-5.2c0-2.2,0.6-4,1.8-5.3
		s2.7-2,4.6-2C109.6,344.7,110.5,344.9,111.4,345.3z M112.2,350.7c-0.1-1-0.3-1.8-0.6-2.4c-0.6-1.1-1.7-1.7-3.1-1.7
		c-1,0-1.9,0.4-2.6,1.1s-1.1,1.7-1.1,2.9H112.2z"/>
</g>
<g>
	<g>
		<line style="fill:none;stroke:#000000;stroke-width:2;stroke-miterlimit:10;" x1="172" y1="188" x2="276" y2="188"/>
		<g>
			<polygon points="273,198 290.3,188 273,178 			"/>
		</g>
	</g>
</g>
<g>
	<g>
		<line style="fill:none;stroke:#000000;stroke-width:2;stroke-miterlimit:10;" x1="426.6" y1="188.1" x2="500.4" y2="114.3"/>
		<g>
			<polygon points="505.4,123.4 510.6,104.1 491.3,109.3 			"/>
		</g>
	</g>
</g>
<g>
	<g>
		<line style="fill:none;stroke:#000000;stroke-width:2;stroke-miterlimit:10;" x1="426.6" y1="204.6" x2="500" y2="278"/>
		<g>
			<polygon points="490.9,283 510.1,288.2 505,268.9 			"/>
		</g>
	</g>
</g>
<g>
	<g>
		<path style="fill:none;stroke:#000000;stroke-width:2;stroke-miterlimit:10;" d="M421.8,170.1c4.6-25.7,13.9-50.4,23.1-74.9
			c5.5-14.6,11-29.2,16.5-43.8c0.7-1.7,1.3-3.5,2-5.2"/>
		<g>
			<polygon points="471.4,52.9 469.2,33.1 453.1,44.9 			"/>
		</g>
	</g>
</g>
<g>
	<g>
		<path style="fill:none;stroke:#000000;stroke-width:2;stroke-miterlimit:10;" d="M434.1,199.1c30.6-3,61.4-4.2,92.1-3.7"/>
		<g>
			<polygon points="523.1,205.4 540.6,195.7 523.5,185.5 			"/>
		</g>
	</g>
</g>
<g>
	<g>
		<path style="fill:none;stroke:#000000;stroke-width:2;stroke-miterlimit:10;" d="M427.2,222.5c1.5,49.9,5.3,99.7,9.3,149.5"/>
		<g>
			<polygon points="426.3,369.9 437.6,386.3 446.2,368.4 			"/>
		</g>
	</g>
</g>
</svg>
