<?xml version="1.0" encoding="utf-8"?>
<!-- Generator: Adobe Illustrator 17.1.0, SVG Export Plug-In . SVG Version: 6.00 Build 0)  -->
<!DOCTYPE svg PUBLIC "-//W3C//DTD SVG 1.1//EN" "http://www.w3.org/Graphics/SVG/1.1/DTD/svg11.dtd">
<svg version="1.1" id="Layer_1" xmlns="http://www.w3.org/2000/svg" xmlns:xlink="http://www.w3.org/1999/xlink" x="0px" y="0px"
	 viewBox="0 0 775 445" style="enable-background:new 0 0 775 445;" xml:space="preserve">
<path d="M562.9,74.2l-50.5,50.5c-1.1,1.1-1.1,2.9,0,4l50.5,50.5l-10.6,10.6l-54.5-54.5c-4.8-4.8-4.8-12.5,0-17.3l54.3-54.3
	L562.9,74.2z"/>
<path d="M581.3,149.3l24.3-24.3c1.1-1.1,1.1-2.9,0-4l-24.3-24.3L591.8,86l28.3,28.3c4.8,4.8,4.8,12.5,0,17.3L592,159.7L581.3,149.3z
	"/>
<path d="M150.8,95.8V75H176v20.8L150.8,95.8L150.8,95.8z M176,204.6h53.4v-44h-14V193h-25.3v-32.4h-39.3v-20.8h39.3v-32.4h39.3V75
	h39.3V31h-53.4v11.6h39.3v20.8h-39.3v32.4h-25.3V63.4h-53.4v44H176v20.8h-39.3v44H176L176,204.6L176,204.6z"/>
<g>
	<path d="M166.6,226.6c1.3,1.2,2,2.7,2.1,4.2h-2.5c-0.3-1.2-0.8-2.2-1.6-2.9c-0.8-0.7-2-1.1-3.4-1.1c-1.8,0-3.3,0.6-4.4,1.9
		c-1.1,1.3-1.7,3.3-1.7,5.9c0,2.2,0.5,4,1.5,5.3c1,1.4,2.5,2,4.5,2c1.8,0,3.2-0.7,4.2-2.1c0.5-0.8,0.9-1.7,1.1-3h2.5
		c-0.2,2-0.9,3.6-2.2,4.9c-1.5,1.6-3.4,2.4-5.9,2.4c-2.1,0-3.9-0.7-5.4-2c-1.9-1.7-2.9-4.4-2.9-8c0-2.8,0.7-5,2.2-6.8
		c1.6-1.9,3.7-2.9,6.4-2.9C163.5,224.8,165.3,225.4,166.6,226.6z"/>
	<path d="M181.7,231.7c1.2,1.2,1.8,2.9,1.8,5.1c0,2.2-0.5,4-1.6,5.4c-1.1,1.4-2.7,2.1-4.9,2.1c-1.9,0-3.3-0.6-4.4-1.9
		c-1.1-1.3-1.6-3-1.6-5.1c0-2.3,0.6-4.1,1.7-5.5s2.7-2,4.6-2C179.1,229.9,180.5,230.5,181.7,231.7z M180.3,240.7
		c0.6-1.1,0.8-2.4,0.8-3.8c0-1.3-0.2-2.3-0.6-3.1c-0.6-1.3-1.7-1.9-3.3-1.9c-1.4,0-2.4,0.5-3,1.6c-0.6,1.1-0.9,2.3-0.9,3.9
		c0,1.4,0.3,2.7,0.9,3.6c0.6,1,1.6,1.4,3,1.4C178.7,242.4,179.8,241.9,180.3,240.7z"/>
	<path d="M186.4,230.3h2.3v1.9c0.5-0.7,1-1.2,1.5-1.5c0.8-0.5,1.6-0.8,2.6-0.8c1.1,0,2,0.3,2.6,0.8c0.4,0.3,0.7,0.8,1,1.3
		c0.5-0.7,1.1-1.3,1.8-1.6c0.7-0.4,1.5-0.5,2.3-0.5c1.8,0,3.1,0.7,3.7,2c0.4,0.7,0.5,1.7,0.5,2.9v9.1h-2.4v-9.4
		c0-0.9-0.2-1.5-0.7-1.9c-0.5-0.3-1-0.5-1.7-0.5c-0.9,0-1.7,0.3-2.3,0.9c-0.6,0.6-1,1.6-1,3v7.9h-2.3V235c0-0.9-0.1-1.6-0.3-2
		c-0.3-0.6-1-1-1.9-1c-0.9,0-1.6,0.3-2.4,1c-0.7,0.7-1.1,1.9-1.1,3.6v7.2h-2.3V230.3z"/>
	<path d="M207.8,230.4h2.2v1.8c0.5-0.6,1-1.1,1.5-1.4c0.8-0.5,1.7-0.8,2.7-0.8c1.5,0,2.9,0.6,3.9,1.8c1.1,1.2,1.6,2.9,1.6,5.1
		c0,3-0.8,5.1-2.3,6.3c-1,0.8-2.1,1.2-3.4,1.2c-1,0-1.9-0.2-2.6-0.7c-0.4-0.3-0.9-0.7-1.4-1.3v6.9h-2.3V230.4z M216.4,241
		c0.7-0.9,1.1-2.2,1.1-4c0-1.1-0.2-2-0.5-2.8c-0.6-1.5-1.7-2.2-3.3-2.2c-1.6,0-2.7,0.8-3.3,2.4c-0.3,0.8-0.5,1.9-0.5,3.2
		c0,1,0.2,1.9,0.5,2.7c0.6,1.4,1.7,2.1,3.3,2.1C214.8,242.4,215.7,241.9,216.4,241z"/>
	<path d="M222.5,225.3h2.3v18.6h-2.3V225.3z"/>
	<path d="M236.6,230.7c0.9,0.5,1.6,1,2.1,1.8c0.5,0.7,0.8,1.5,0.9,2.4c0.1,0.6,0.2,1.6,0.2,3h-9.9c0,1.4,0.4,2.5,1,3.3
		c0.6,0.8,1.5,1.3,2.8,1.3c1.2,0,2.1-0.4,2.8-1.2c0.4-0.5,0.7-1,0.8-1.6h2.2c-0.1,0.5-0.3,1.1-0.6,1.7c-0.3,0.6-0.7,1.1-1.1,1.5
		c-0.7,0.7-1.5,1.1-2.6,1.4c-0.5,0.1-1.2,0.2-1.9,0.2c-1.7,0-3.1-0.6-4.3-1.8s-1.8-3-1.8-5.2c0-2.2,0.6-4,1.8-5.3
		c1.2-1.4,2.7-2,4.6-2C234.8,230,235.7,230.2,236.6,230.7z M237.5,236c-0.1-1-0.3-1.8-0.6-2.4c-0.6-1.1-1.7-1.7-3.1-1.7
		c-1,0-1.9,0.4-2.6,1.1c-0.7,0.8-1.1,1.7-1.1,2.9H237.5z"/>
	<path d="M241.4,230.3h3l3.1,4.8l3.2-4.8l2.8,0.1l-4.6,6.6l4.8,7h-2.9l-3.4-5.1l-3.3,5.1h-2.9l4.8-7L241.4,230.3z"/>
</g>
<g>
	<path d="M534.6,237.9c0.1,1.1,0.3,1.9,0.7,2.6c0.8,1.2,2.2,1.9,4.3,1.9c0.9,0,1.7-0.1,2.5-0.4c1.5-0.5,2.2-1.5,2.2-2.8
		c0-1-0.3-1.7-0.9-2.2c-0.6-0.4-1.6-0.8-2.9-1.1l-2.4-0.6c-1.6-0.4-2.7-0.8-3.4-1.2c-1.1-0.8-1.7-1.9-1.7-3.5c0-1.7,0.6-3.1,1.7-4.1
		c1.1-1.1,2.7-1.6,4.8-1.6c1.9,0,3.5,0.5,4.8,1.4c1.3,0.9,2,2.5,2,4.5h-2.4c-0.1-1-0.4-1.8-0.8-2.3c-0.7-1-2-1.5-3.8-1.5
		c-1.4,0-2.5,0.3-3.1,0.9c-0.6,0.6-0.9,1.4-0.9,2.2c0,0.9,0.4,1.6,1.1,2c0.5,0.3,1.6,0.6,3.3,1l2.5,0.6c1.2,0.3,2.2,0.7,2.8,1.2
		c1.1,0.9,1.7,2.1,1.7,3.8c0,2.1-0.7,3.5-2.2,4.4c-1.5,0.9-3.2,1.3-5.1,1.3c-2.3,0-4-0.6-5.3-1.8c-1.3-1.2-1.9-2.8-1.9-4.8H534.6z"
		/>
	<path d="M550,225.3h2.3v2.6H550V225.3z M550,230.4h2.3v13.5H550V230.4z"/>
	<path d="M555.8,230.3h2.3v1.9c0.5-0.7,1-1.2,1.5-1.5c0.8-0.5,1.6-0.8,2.6-0.8c1.1,0,2,0.3,2.6,0.8c0.4,0.3,0.7,0.8,1,1.3
		c0.5-0.7,1.1-1.3,1.8-1.6c0.7-0.4,1.5-0.5,2.3-0.5c1.8,0,3.1,0.7,3.7,2c0.4,0.7,0.5,1.7,0.5,2.9v9.1h-2.4v-9.4
		c0-0.9-0.2-1.5-0.7-1.9c-0.5-0.3-1-0.5-1.7-0.5c-0.9,0-1.7,0.3-2.3,0.9c-0.6,0.6-1,1.6-1,3v7.9h-2.3V235c0-0.9-0.1-1.6-0.3-2
		c-0.3-0.6-1-1-1.9-1c-0.9,0-1.6,0.3-2.4,1c-0.7,0.7-1.1,1.9-1.1,3.6v7.2h-2.3V230.3z"/>
	<path d="M577.3,230.4h2.2v1.8c0.5-0.6,1-1.1,1.5-1.4c0.8-0.5,1.7-0.8,2.7-0.8c1.5,0,2.9,0.6,3.9,1.8c1.1,1.2,1.6,2.9,1.6,5.1
		c0,3-0.8,5.1-2.3,6.3c-1,0.8-2.1,1.2-3.4,1.2c-1,0-1.9-0.2-2.6-0.7c-0.4-0.3-0.9-0.7-1.4-1.3v6.9h-2.3V230.4z M585.9,241
		c0.7-0.9,1.1-2.2,1.1-4c0-1.1-0.2-2-0.5-2.8c-0.6-1.5-1.7-2.2-3.3-2.2c-1.6,0-2.7,0.8-3.3,2.4c-0.3,0.8-0.5,1.9-0.5,3.2
		c0,1,0.2,1.9,0.5,2.7c0.6,1.4,1.7,2.1,3.3,2.1C584.3,242.4,585.1,241.9,585.9,241z"/>
	<path d="M592,225.3h2.3v18.6H592V225.3z"/>
	<path d="M606.1,230.7c0.9,0.5,1.6,1,2.1,1.8c0.5,0.7,0.8,1.5,0.9,2.4c0.1,0.6,0.2,1.6,0.2,3h-9.9c0,1.4,0.4,2.5,1,3.3
		s1.5,1.3,2.8,1.3c1.2,0,2.1-0.4,2.8-1.2c0.4-0.5,0.7-1,0.8-1.6h2.2c-0.1,0.5-0.3,1.1-0.6,1.7c-0.3,0.6-0.7,1.1-1.1,1.5
		c-0.7,0.7-1.5,1.1-2.6,1.4c-0.5,0.1-1.2,0.2-1.9,0.2c-1.7,0-3.1-0.6-4.3-1.8c-1.2-1.2-1.8-3-1.8-5.2c0-2.2,0.6-4,1.8-5.3
		c1.2-1.4,2.7-2,4.6-2C604.3,230,605.2,230.2,606.1,230.7z M606.9,236c-0.1-1-0.3-1.8-0.6-2.4c-0.6-1.1-1.7-1.7-3.1-1.7
		c-1,0-1.9,0.4-2.6,1.1c-0.7,0.8-1.1,1.7-1.1,2.9H606.9z"/>
</g>
<g>
	<path d="M306.4,379.5h2.3v3.8h2.2v1.9h-2.2v8.9c0,0.5,0.2,0.8,0.5,1c0.2,0.1,0.5,0.1,0.9,0.1c0.1,0,0.2,0,0.4,0c0.1,0,0.3,0,0.4,0
		v1.8c-0.3,0.1-0.5,0.1-0.8,0.2c-0.3,0-0.6,0.1-0.9,0.1c-1.1,0-1.8-0.3-2.2-0.8s-0.6-1.3-0.6-2.1v-9h-1.8v-1.9h1.8V379.5z"/>
	<path d="M321.6,383.7c0.9,0.5,1.6,1,2.1,1.8c0.5,0.7,0.8,1.5,0.9,2.4c0.1,0.6,0.2,1.6,0.2,3h-9.9c0,1.4,0.4,2.5,1,3.3
		c0.6,0.8,1.5,1.3,2.8,1.3c1.2,0,2.1-0.4,2.8-1.2c0.4-0.5,0.7-1,0.8-1.6h2.2c-0.1,0.5-0.3,1.1-0.6,1.7c-0.3,0.6-0.7,1.1-1.1,1.5
		c-0.7,0.7-1.5,1.1-2.6,1.4c-0.5,0.1-1.2,0.2-1.9,0.2c-1.7,0-3.1-0.6-4.3-1.8s-1.8-3-1.8-5.2c0-2.2,0.6-4,1.8-5.3
		c1.2-1.4,2.7-2,4.6-2C319.7,383,320.7,383.2,321.6,383.7z M322.4,389c-0.1-1-0.3-1.8-0.6-2.4c-0.6-1.1-1.7-1.7-3.1-1.7
		c-1,0-1.9,0.4-2.6,1.1c-0.7,0.8-1.1,1.7-1.1,2.9H322.4z"/>
	<path d="M336.6,384c1,0.7,1.5,2,1.7,3.8h-2.2c-0.1-0.8-0.4-1.5-0.9-2.1c-0.5-0.6-1.3-0.8-2.3-0.8c-1.5,0-2.5,0.7-3.1,2.1
		c-0.4,0.9-0.6,2.1-0.6,3.4c0,1.4,0.3,2.5,0.9,3.4c0.6,0.9,1.5,1.4,2.7,1.4c0.9,0,1.7-0.3,2.3-0.9c0.6-0.6,0.9-1.4,1.1-2.4h2.2
		c-0.3,1.8-0.9,3.1-1.9,4c-1,0.8-2.3,1.2-3.9,1.2c-1.8,0-3.2-0.6-4.3-1.9c-1.1-1.3-1.6-2.9-1.6-4.9c0-2.4,0.6-4.2,1.7-5.6
		c1.2-1.3,2.6-2,4.4-2C334.4,382.9,335.7,383.3,336.6,384z"/>
	<path d="M340.6,378.2h2.3v7c0.5-0.7,1-1.2,1.5-1.4c0.7-0.5,1.7-0.7,2.8-0.7c2,0,3.3,0.7,4,2.1c0.4,0.8,0.6,1.8,0.6,3.1v8.7h-2.3
		v-8.6c0-1-0.1-1.7-0.4-2.2c-0.4-0.7-1.2-1.1-2.3-1.1c-0.9,0-1.8,0.3-2.6,1c-0.8,0.7-1.2,1.9-1.2,3.7v7.2h-2.3V378.2z"/>
	<path d="M363.4,383.3L366,394l2.7-10.7h2.6l2.7,10.7l2.8-10.7h2.3l-3.9,13.6h-2.4l-2.8-10.5l-2.7,10.5h-2.4l-3.9-13.6H363.4z"/>
	<path d="M381.2,383.3h2.2v2.3c0.2-0.5,0.6-1,1.3-1.7c0.7-0.7,1.5-1,2.4-1c0,0,0.1,0,0.2,0c0.1,0,0.3,0,0.5,0.1v2.4
		c-0.1,0-0.3,0-0.4-0.1c-0.1,0-0.2,0-0.4,0c-1.2,0-2,0.4-2.7,1.1c-0.6,0.7-0.9,1.6-0.9,2.6v7.8h-2.3V383.3z"/>
	<path d="M389.8,378.3h2.3v2.6h-2.3V378.3z M389.8,383.4h2.3v13.5h-2.3V383.4z"/>
	<path d="M396,379.5h2.3v3.8h2.2v1.9h-2.2v8.9c0,0.5,0.2,0.8,0.5,1c0.2,0.1,0.5,0.1,0.9,0.1c0.1,0,0.2,0,0.4,0c0.1,0,0.3,0,0.4,0
		v1.8c-0.3,0.1-0.5,0.1-0.8,0.2c-0.3,0-0.6,0.1-0.9,0.1c-1.1,0-1.8-0.3-2.2-0.8s-0.6-1.3-0.6-2.1v-9h-1.8v-1.9h1.8V379.5z"/>
	<path d="M411.1,383.7c0.9,0.5,1.6,1,2.1,1.8c0.5,0.7,0.8,1.5,0.9,2.4c0.1,0.6,0.2,1.6,0.2,3h-9.9c0,1.4,0.4,2.5,1,3.3
		c0.6,0.8,1.5,1.3,2.8,1.3c1.2,0,2.1-0.4,2.8-1.2c0.4-0.5,0.7-1,0.8-1.6h2.2c-0.1,0.5-0.3,1.1-0.6,1.7c-0.3,0.6-0.7,1.1-1.1,1.5
		c-0.7,0.7-1.5,1.1-2.6,1.4c-0.5,0.1-1.2,0.2-1.9,0.2c-1.7,0-3.1-0.6-4.3-1.8s-1.8-3-1.8-5.2c0-2.2,0.6-4,1.8-5.3
		c1.2-1.4,2.7-2,4.6-2C409.3,383,410.2,383.2,411.1,383.7z M412,389c-0.1-1-0.3-1.8-0.6-2.4c-0.6-1.1-1.7-1.7-3.1-1.7
		c-1,0-1.9,0.4-2.6,1.1c-0.7,0.8-1.1,1.7-1.1,2.9H412z"/>
	<path d="M417.3,383.3h2.2v2.3c0.2-0.5,0.6-1,1.3-1.7c0.7-0.7,1.5-1,2.4-1c0,0,0.1,0,0.2,0c0.1,0,0.3,0,0.5,0.1v2.4
		c-0.1,0-0.3,0-0.4-0.1c-0.1,0-0.2,0-0.4,0c-1.2,0-2,0.4-2.7,1.1c-0.6,0.7-0.9,1.6-0.9,2.6v7.8h-2.3V383.3z"/>
	<path d="M427.2,392.7c0.1,0.8,0.3,1.3,0.6,1.8c0.6,0.7,1.6,1.1,3.1,1.1c0.9,0,1.6-0.2,2.3-0.6c0.7-0.4,1-0.9,1-1.7
		c0-0.6-0.3-1-0.8-1.3c-0.3-0.2-1-0.4-2-0.6l-1.8-0.5c-1.2-0.3-2-0.6-2.6-1c-1-0.6-1.5-1.5-1.5-2.6c0-1.3,0.5-2.3,1.4-3.1
		c0.9-0.8,2.2-1.2,3.8-1.2c2.1,0,3.6,0.6,4.5,1.8c0.6,0.8,0.9,1.6,0.8,2.5h-2.2c0-0.5-0.2-1-0.6-1.4c-0.5-0.6-1.5-0.9-2.8-0.9
		c-0.9,0-1.6,0.2-2,0.5c-0.5,0.3-0.7,0.8-0.7,1.3c0,0.6,0.3,1.1,0.9,1.4c0.3,0.2,0.9,0.4,1.5,0.6l1.5,0.4c1.7,0.4,2.8,0.8,3.4,1.2
		c0.9,0.6,1.3,1.5,1.3,2.8c0,1.2-0.5,2.3-1.4,3.1c-0.9,0.9-2.3,1.3-4.2,1.3c-2,0-3.5-0.5-4.4-1.4c-0.9-0.9-1.3-2.1-1.4-3.4H427.2z"
		/>
</g>
<path d="M349.1,338.6c2.1-2.5,5.7-4.5,9.8-5.7c1.5-0.7,1.9-0.8,2-0.9l0.5-0.5c0.3-0.3,0.5-0.5,0.6-0.6c-0.9-0.5-2-0.8-3.2-1.2
	c-1.3-0.5-2.1-0.9-2.7-1.5c-0.7-0.7-1-1.4-1.2-2.1c0-0.1-0.1-0.6,0-3.9v-0.6l0.3-0.3c0.7-0.8,1.4-2.1,2-3.9c-0.1-1.2,0-2.2,0.3-3.1
	c-1-4.5-1.2-8.5-0.3-11.5c-0.1-0.1-0.2-0.4-0.2-0.5c-1.3-1.5-3.4-2.3-6.4-2.3c-2.1,0-2.3,0.3-2.7,0.8c-0.1,0.1-0.4,0.4-0.6,0.6
	l-0.4,0.4h-0.5c-1,0-1.9,0.3-2.3,1.2c-1.3,1.7-1.4,5.4-0.4,9.6l0.1,0.7l-0.5,0.6c-0.1,0.1-0.2,0.6,0,1.5c0.1,0.7,0.7,1.3,0.9,1.3
	l0.7,0.2l0.2,0.7c0.6,2,1,3,1.7,3.8l0.4,0.3v4.2c-0.1,1.3-0.8,1.9-1.3,2.3l-0.5,0.5c-0.5,0.4-0.9,0.6-2.4,1.3
	c-2.9,0.8-5.3,2.2-6.6,3.7l-0.6,0.6c-0.5,0.8-1,2.5-0.6,3.5c0.5,0.9,2.1,1.2,3.2,1.2h10.1L349.1,338.6z M338.7,341.7L338.7,341.7
	c-2.9-0.1-4.9-1-5.8-2.7c-1.5-2.8,0.6-6.3,0.8-6.6l0.6-0.7h0.1c1.7-2,4.5-3.6,7.9-4.5c1.2-0.6,1.4-0.6,1.5-0.7l0.4-0.3
	c0.5-0.5,0.5-0.5,0.5-0.5v-2.9c-0.8-1.2-1.4-2.5-1.9-3.8c-0.9-0.6-1.7-1.7-2-3c-0.2-1.3-0.2-2.3,0.2-3.2c-1.2-5-0.9-9.1,0.9-11.6
	c0.9-1.3,2.3-2.1,3.9-2.2c0.9-1.2,2-1.7,5.1-1.7c3.6,0,6.4,1.2,8.2,3.4c0.3,0.3,0.5,0.8,0.7,1.2l0.5,0.9l-0.2,0.6
	c-0.9,2.4-0.8,6.5,0.3,10.9l0.2,0.7l-0.5,0.6c-0.1,0.1-0.4,0.8-0.1,2l0.2,0.9l-0.5,0.4c-0.6,1.7-1.3,3-2.1,4.1c0,1.6,0,2.7,0,2.8
	c0,0.1,0.1,0.3,0.5,0.6c0.2,0.2,0.6,0.5,1.6,0.8c1.6,0.5,3.1,1,4.5,1.7l0.8,0.5v1.6c-0.2,1.4-0.8,2.1-1.5,2.8l-0.9,0.7
	c-0.6,0.5-1,0.7-2.9,1.5c-3.8,1-6.9,2.8-8.6,4.9l-0.5,0.6l-0.5,0.7L338.7,341.7z"/>
<path d="M392.8,338.8h10.1c1.3,0,2.8-0.2,3.2-1.2c0.6-0.9-0.1-2.7-0.6-3.5l-0.6-0.6c-1.3-1.5-3.7-2.9-6.6-3.7
	c-1.5-0.7-2-0.8-2.4-1.3l-0.5-0.5c-0.6-0.6-1.2-1.2-1.3-2.3v-4.2l0.4-0.4c0.7-0.8,1.2-1.9,1.7-3.8l0.2-0.7l0.7-0.2
	c0.2-0.1,0.7-0.6,0.9-1.3c0.2-0.9,0-1.4,0-1.5l-0.5-0.6l0.1-0.7c1.2-4.3,1-8-0.3-9.6c-0.6-0.7-1.4-1.2-2.3-1.2h-0.5l-0.5-0.4
	c-0.2-0.2-0.5-0.5-0.6-0.6c-0.3-0.5-0.6-0.8-2.7-0.8c-3,0-5,0.8-6.4,2.3c-0.1,0.1-0.1,0.2-0.2,0.5c0.9,3,0.8,7.1-0.3,11.5
	c0.3,0.8,0.5,1.9,0.3,3.1c0.6,1.9,1.3,3.1,2,3.9l0.3,0.4v0.6c0.1,3.2,0,3.7,0,3.9c-0.1,0.8-0.6,1.5-1.2,2.1c-0.7,0.7-1.5,1-2.7,1.5
	c-1.2,0.3-2.2,0.7-3.2,1.2c0.1,0.1,0.2,0.2,0.6,0.6l0.5,0.5c0.1,0.1,0.5,0.2,2,0.9c4.2,1.2,7.8,3.1,9.8,5.7L392.8,338.8z
	 M402.9,341.7h-11.7l-0.5-0.7l-0.5-0.6c-1.7-2-4.9-3.8-8.6-4.9c-1.9-0.8-2.3-1-2.9-1.5l-0.6-0.6c-0.7-0.7-1.4-1.4-1.5-2.8v-1.6
	l0.8-0.5c1.4-0.7,2.9-1.4,4.5-1.7c0.9-0.5,1.4-0.6,1.6-0.8c0.4-0.4,0.4-0.6,0.5-0.6c0-0.2,0-1.3,0-2.8c-0.8-0.9-1.4-2.3-2.1-4.1
	l-0.7-0.4l0.2-0.9c0.2-1.2,0-1.9-0.1-2l-0.5-0.6l0.2-0.7c1.2-4.4,1.3-8.5,0.3-11l-0.2-0.6l0.5-0.9c0.2-0.3,0.3-0.7,0.7-1.2
	c1.9-2.2,4.6-3.4,8.2-3.4c3.1,0,4.3,0.7,5.1,1.7c1.6,0.2,3,0.9,3.9,2.2c1.7,2.4,2.1,6.6,0.9,11.6c0.4,0.8,0.5,2,0.2,3.2
	c-0.2,1.3-1,2.3-2,3c-0.5,1.4-0.9,2.7-1.9,3.8v2.9c0,0.1,0,0.1,0.5,0.5l0.3,0.3c0,0,0.2,0.1,1.5,0.7c3.2,0.9,6.1,2.5,7.9,4.5h0.1
	l0.6,0.7c0.2,0.4,2.3,3.9,0.8,6.6C407.7,340.7,405.8,341.6,402.9,341.7z"/>
<path d="M409.6,332.6h8.2c1,0,2.3-0.2,2.7-0.9c0.5-0.8-0.1-2.2-0.5-2.9l-0.5-0.5c-1-1.3-3-2.4-5.4-3c-1.3-0.6-1.6-0.7-2-1l-0.3-0.3
	c-0.5-0.5-0.9-0.9-1-2v-3.4l0.2-0.4c0.6-0.6,0.9-1.5,1.4-3.1l0.1-0.6l0.6-0.2c0.2-0.1,0.6-0.5,0.7-1c0.1-0.8,0-1.2,0-1.2l-0.3-0.5
	l0.1-0.6c0.9-3.5,0.8-6.5-0.2-8c-0.5-0.6-1.2-0.9-2-0.9h-0.5l-0.3-0.2c-0.2-0.2-0.4-0.4-0.5-0.5c-0.2-0.3-0.5-0.7-2.2-0.7
	c-2.4,0-4.2,0.7-5.2,2c-0.1,0.1-0.1,0.2-0.2,0.4c0.7,2.4,0.7,5.8-0.2,9.5c0.4,0.7,0.5,1.5,0.4,2.5c0.5,1.5,1,2.5,1.6,3.2l0.2,0.4
	v0.5c0.1,2.7,0,3.1,0,3.2c-0.1,0.7-0.5,1.2-1,1.7c-0.6,0.6-1.2,0.8-2.2,1.3c-1,0.2-1.9,0.6-2.7,0.9c0.1,0.1,0.2,0.2,0.5,0.5l0.3,0.3
	c0.1,0.1,0.4,0.2,1.6,0.8c3.5,0.9,6.4,2.7,8.1,4.6H409.6z M417.9,335h-9.6l-0.3-0.6l-0.4-0.5c-1.4-1.6-3.9-3.1-7.1-3.9
	c-1.5-0.7-2-0.8-2.4-1.3l-0.5-0.5c-0.6-0.6-1.2-1-1.3-2.3v-1.3l0.6-0.3c1.2-0.6,2.4-1.2,3.7-1.5c0.8-0.3,1.2-0.5,1.3-0.7
	c0.2-0.2,0.3-0.5,0.3-0.6c0-0.1,0-1,0-2.3c-0.6-0.8-1.2-1.9-1.7-3.4l-0.5-0.2l0.1-0.8c0.2-1,0-1.5-0.1-1.6l-0.2-0.3l0.1-0.6
	c0.9-3.6,1-6.9,0.2-9l-0.2-0.5l0.4-0.7c0.1-0.2,0.3-0.6,0.6-0.9c1.5-1.9,3.8-2.8,6.8-2.8c2.5,0,3.5,0.6,4.2,1.4
	c1.3,0.1,2.4,0.8,3.2,1.9c1.5,2,1.7,5.4,0.8,9.5c0.3,0.7,0.3,1.6,0.1,2.7c-0.2,1-0.8,2-1.6,2.4c-0.3,1.2-0.8,2.2-1.5,3.1v2.4
	c0,0,0,0,0.3,0.5l0.4,0.4c0,0,0.2,0.1,1.2,0.6c2.7,0.7,5.1,2.1,6.5,3.7h0.1l0.5,0.6c0.2,0.4,1.9,3.2,0.7,5.4
	C422,334.2,420.4,334.9,417.9,335z"/>
<path d="M332.7,332.6c1.7-2.1,4.6-3.7,8.1-4.6c1.3-0.6,1.5-0.7,1.6-0.8l0.3-0.3c0.2-0.2,0.5-0.5,0.5-0.5c-0.8-0.4-1.6-0.7-2.7-0.9
	c-1-0.5-1.7-0.7-2.2-1.3c-0.6-0.6-0.9-1.2-1-1.7c0-0.1-0.1-0.5,0-3.2v-0.5l0.2-0.4c0.6-0.7,1.2-1.7,1.6-3.2c-0.1-1,0-1.9,0.4-2.5
	c-0.9-3.7-1-6.9-0.2-9.5c-0.1-0.1-0.1-0.2-0.2-0.4c-1-1.3-2.8-2-5.2-2c-1.7,0-2,0.2-2.2,0.7c-0.1,0.1-0.2,0.4-0.5,0.5l-0.3,0.2h-0.5
	c-0.8,0-1.5,0.4-2,0.9c-1,1.4-1.2,4.5-0.2,8l0.1,0.6l-0.2,0.6c0,0.1-0.2,0.5,0,1.2c0.1,0.6,0.6,1,0.7,1l0.6,0.2l0.1,0.6
	c0.5,1.6,0.9,2.5,1.4,3.1l0.2,0.4v3.4c-0.1,1-0.6,1.5-1,2l-0.4,0.4c-0.4,0.3-0.7,0.5-2,1c-2.4,0.7-4.4,1.7-5.4,3l-0.5,0.5
	c-0.3,0.7-0.9,2.1-0.5,2.9c0.6,0.7,1.9,0.9,2.8,0.9h8.2L332.7,332.6z M324.1,335.1L324.1,335.1c-2.4-0.1-4.1-0.8-4.7-2.2
	c-1.3-2.3,0.5-5.1,0.7-5.4l0.4-0.6h0.1c1.4-1.6,3.7-3,6.5-3.7c0.9-0.5,1.2-0.5,1.2-0.6l0.4-0.4c0.3-0.4,0.3-0.4,0.3-0.5v-2.4
	c-0.7-0.9-1.2-2.1-1.5-3.1c-0.8-0.6-1.4-1.4-1.6-2.4c-0.2-1-0.1-2,0.1-2.7c-1-4.1-0.7-7.5,0.8-9.5c0.8-1,2-1.7,3.2-1.9
	c0.7-0.9,1.6-1.4,4.2-1.4c3,0,5.3,0.9,6.8,2.8c0.2,0.4,0.5,0.6,0.6,0.9l0.4,0.7l-0.2,0.5c-0.8,2.1-0.7,5.4,0.2,9l0.1,0.6l-0.4,0.5
	c-0.1,0.1-0.2,0.7-0.1,1.6l0.1,0.8l-0.5,0.2c-0.5,1.4-1,2.5-1.7,3.4c0,1.3,0,2.2,0,2.3c0,0.1,0.1,0.2,0.3,0.6
	c0.2,0.2,0.5,0.3,1.3,0.7c1.4,0.4,2.5,0.8,3.7,1.5l0.6,0.3v1.3c-0.1,1.2-0.7,1.7-1.3,2.3l-0.5,0.5c-0.5,0.4-0.9,0.6-2.4,1.3
	c-3.1,0.8-5.7,2.3-7.1,3.9l-0.3,0.5l-0.4,0.6L324.1,335.1z"/>
<path d="M370.4,351.3l0.1-3l15.9,0.2c1.6,0,3.8-0.3,4.6-1.6c0.8-1.4-0.1-3.8-0.7-5l-0.7-0.7c-1.7-2.1-5-3.9-8.8-5
	c-2-0.8-2.4-1-3-1.5l-0.6-0.6c-0.7-0.7-1.4-1.4-1.5-2.9v-5.1l0.4-0.5c0.9-1,1.5-2.5,2.4-5.1l0.2-0.7l0.7-0.2
	c0.5-0.1,1.2-0.9,1.4-2.1c0.2-1.3,0.1-2.1-0.1-2.3l-0.5-0.6l0.2-0.7c1.4-5.7,1.3-10.6-0.5-12.9c-0.8-1-2-1.6-3.4-1.6h-0.6l-0.3-0.4
	c-0.4-0.2-0.5-0.5-0.6-0.7c-0.5-0.7-0.8-1.2-3.8-1.2h-0.4c-3.7,0-6.5,1-8.2,3.2c-2.4,2.9-3,7.5-2,13.9l0.1,0.6l-0.4,0
	c-0.2,0.3-0.4,1-0.1,2.2c0.1,0.9,0.7,1.6,1.2,2.1l0.5,0.2l0.2,0.6c0.8,2.4,1.6,4.2,2.7,5.2l0.3,0.4v0.5c0,2,0.1,4.4,0,5
	c-0.1,0.9-0.6,1.7-1.4,2.7c-0.8,0.9-2,1.3-3.4,2c-4.3,1.2-7.5,3-9.4,5.1l-0.5,0.6c-0.5,0.7-1.6,3.5-0.8,5.1c0.7,1.3,3,1.6,4.6,1.6
	h16v3h-16.2c-3.7-0.1-6.1-1.2-7.3-3.4c-2-3.5,0.7-7.8,0.9-8.2l0.6-0.7c2.2-2.7,6-4.7,10.6-6c1.4-0.6,2-0.8,2.3-1.2
	c0.5-0.5,0.6-0.8,0.6-1c0-0.2,0-1.6,0-3.8c-0.9-1.3-2-3-2.8-5.2c-1-0.8-2-2.2-2.3-3.7c-0.2-1.4-0.1-2.9,0.2-3.8
	c-0.9-7.1,0-12.3,2.9-15.7c2.4-2.9,5.9-4.3,10.5-4.3h0.4c3.7,0,5,0.8,6.3,2.3c2.1,0.2,3.8,1.2,5,2.8c2.3,3.1,2.7,8.5,1,14.8
	c0.5,1,0.6,2.5,0.2,4.1c-0.3,1.5-1.3,3-2.5,3.7c-0.6,1.7-1.3,3.7-2.4,5.1v3.9c0,0.2,0.1,0.4,0.7,0.9l0.5,0.5
	c0.1,0.1,0.5,0.2,2.1,0.9c4.3,1.2,8,3.2,10.2,5.9l0.7,0.7c0.4,0.5,2.9,4.9,0.9,8.2c-1.2,2.1-3.6,3.2-7.2,3.4L370.4,351.3
	L370.4,351.3z"/>
</svg>
