<?xml version="1.0" encoding="utf-8"?>
<!-- Generator: Adobe Illustrator 17.1.0, SVG Export Plug-In . SVG Version: 6.00 Build 0)  -->
<!DOCTYPE svg PUBLIC "-//W3C//DTD SVG 1.1//EN" "http://www.w3.org/Graphics/SVG/1.1/DTD/svg11.dtd">
<svg version="1.1" id="Layer_1" xmlns="http://www.w3.org/2000/svg" xmlns:xlink="http://www.w3.org/1999/xlink" x="0px" y="0px"
	 viewBox="0 0 775 445" style="enable-background:new 0 0 775 445;" xml:space="preserve">
<path d="M312.5,313.3H160.4c-1.9,0-3.5-1.6-3.5-3.5V97.4c0-1.9,1.6-3.5,3.5-3.5H271v31.9c0,8.6,7,15.5,15.5,15.5h29.7v168.4
	C316,311.7,314.4,313.3,312.5,313.3z M326.7,140.3c0-2.1-0.8-4.3-2.4-5.9l-45-48.5c-1.6-1.9-4-2.7-6.4-2.7H160.4
	c-7.8,0-14.2,6.4-14.2,14.2v212.4c0,7.8,6.4,14.2,14.2,14.2h152.4c7.8,0,14.2-6.4,14.2-14.2L326.7,140.3z"/>
<line style="fill:none;stroke:#000000;stroke-width:8;stroke-miterlimit:10;" x1="185" y1="164" x2="284" y2="164"/>
<line style="fill:none;stroke:#000000;stroke-width:8;stroke-miterlimit:10;" x1="185" y1="204" x2="284" y2="204"/>
<line style="fill:none;stroke:#000000;stroke-width:8;stroke-miterlimit:10;" x1="185" y1="244" x2="284" y2="244"/>
<line style="fill:none;stroke:#000000;stroke-width:8;stroke-miterlimit:10;" x1="185" y1="283" x2="284" y2="283"/>
<path d="M650.7,77.8c-0.1,0-4.8,0.1-8.3,3c-3.8,3.3-5.4,8-4.5,13.9c1,6.4,3,9.9,4.1,10.9c0.4,0.3,2.2,1.9,2.2,3.4
	c0,0.5-0.2,0.8-0.5,1.1c-0.8,0.6-4.6,2.5-8.8,4.5c-1,0.5-1.8,0.8-2.3,1.1c-2.5,1.2-6.3,4-6.2,5.1c0,0.2,0,0.4,0,0.6
	c0.2,2.2,0.4,3.9,2.7,3.9h43.3c2.3,0,2.5-1.6,2.7-3.9c0-0.2,0-0.4,0.1-0.6c0.1-1.3-3.4-3.9-5.9-5.1c-0.4-0.2-1-0.5-1.8-0.9
	c-4.2-2.1-8.4-4.2-9.2-4.7c-0.4-0.2-0.5-0.5-0.5-1c-0.1-1.2,1.3-2.8,2.2-3.7c1-1,3.1-4.5,4.1-10.9c0.9-6-0.7-10.9-4.5-13.9
	C655.6,77.8,650.8,77.8,650.7,77.8z M672.4,126.6h-43.3c-3.6,0-3.8-3.1-3.9-5c0-0.2,0-0.4-0.1-0.6c-0.2-2.5,5.7-5.8,6.9-6.3
	c0.5-0.2,1.3-0.6,2.3-1.1c2.7-1.3,7.8-3.7,8.5-4.4c0.1-0.1,0.1-0.1,0.1-0.2c0-0.5-0.8-1.6-1.8-2.5c-1.2-1.2-3.4-4.9-4.4-11.6
	c-1.2-7.9,2-12.5,4.9-15c3.9-3.3,9-3.3,9.2-3.3c0.2,0,5.3,0.1,9.4,3.3c4.2,3.2,5.9,8.5,4.9,15c-1,6.7-3.2,10.5-4.4,11.6
	c-1.3,1.3-1.9,2.3-1.8,2.7c0,0.1,0,0.1,0.1,0.1c0.8,0.5,6.2,3.2,9.1,4.6c0.8,0.4,1.4,0.7,1.8,0.9c0.1,0.1,6.8,3.5,6.5,6.3
	c0,0.2,0,0.4-0.1,0.6C676.2,123.5,676,126.6,672.4,126.6z"/>
<path d="M654.1,258.8c-0.1,0-4.8,0.1-8.3,3c-3.8,3.3-5.4,8-4.5,13.9c1,6.4,3,9.9,4.1,10.9c0.4,0.3,2.2,1.9,2.2,3.4
	c0,0.5-0.2,0.8-0.5,1.1c-0.8,0.6-4.6,2.5-8.8,4.5c-1,0.5-1.8,0.8-2.3,1.1c-2.5,1.2-6.3,4-6.2,5.1c0,0.2,0,0.4,0,0.6
	c0.2,2.2,0.4,3.9,2.7,3.9h43.3c2.3,0,2.5-1.6,2.7-3.9c0-0.2,0-0.4,0.1-0.6c0.1-1.3-3.4-3.9-5.9-5.1c-0.4-0.2-1-0.5-1.8-0.9
	c-4.2-2.1-8.4-4.2-9.2-4.7c-0.4-0.2-0.5-0.5-0.5-1c-0.1-1.2,1.3-2.8,2.2-3.7c1-1,3.1-4.5,4.1-10.9c0.9-6-0.7-10.9-4.5-13.9
	C659,258.8,654.2,258.8,654.1,258.8z M675.8,307.6h-43.3c-3.6,0-3.8-3.1-3.9-5c0-0.2,0-0.4-0.1-0.6c-0.2-2.5,5.7-5.8,6.9-6.3
	c0.5-0.2,1.3-0.6,2.3-1.1c2.7-1.3,7.8-3.7,8.5-4.4c0.1-0.1,0.1-0.1,0.1-0.2c0-0.5-0.8-1.6-1.8-2.5c-1.2-1.2-3.4-4.9-4.4-11.6
	c-1.2-7.9,2-12.5,4.9-15c3.9-3.3,9-3.3,9.2-3.3c0.2,0,5.3,0.1,9.4,3.3c4.2,3.2,5.9,8.5,4.9,15c-1,6.7-3.2,10.5-4.4,11.6
	c-1.3,1.3-1.9,2.3-1.8,2.7c0,0.1,0,0.1,0.1,0.1c0.8,0.5,6.2,3.2,9.1,4.6c0.8,0.4,1.4,0.7,1.8,0.9c0.1,0.1,6.8,3.5,6.5,6.3
	c0,0.2,0,0.4-0.1,0.6C679.6,304.6,679.4,307.6,675.8,307.6z"/>
<rect x="166" y="147" style="fill:none;stroke:#000000;stroke-width:2;stroke-miterlimit:10;" width="135" height="69"/>
<rect x="167" y="226" style="fill:none;stroke:#000000;stroke-width:2;stroke-miterlimit:10;" width="135" height="70"/>
<g>
	<g>
		<path style="fill:none;stroke:#000000;stroke-width:2;stroke-miterlimit:10;" d="M302.7,188.2c96.5-34.6,195.1-63.7,295.1-87.2"/>
		<g>
			<polygon points="597.3,111.5 611.8,97.8 592.7,92.1 			"/>
		</g>
	</g>
</g>
<g>
	<g>
		<path style="fill:none;stroke:#000000;stroke-width:2;stroke-miterlimit:10;" d="M303.6,256.9c62.5-4.9,125.1,1.4,187.5,7.6
			c35.5,3.5,71,7.1,106.4,10.6"/>
		<g>
			<polygon points="593.6,284.7 611.8,276.5 595.6,264.8 			"/>
		</g>
	</g>
</g>
<g>
	<path d="M357.9,148.8c0.4-0.2,0.6-0.4,0.6-0.7c0-0.2,0-0.4-0.1-0.7c-0.2-0.6-0.5-0.9-1-1.1c-0.5-0.1-1.1-0.1-1.9,0.1
		c-0.9,0.3-1.4,0.7-1.7,1.3c-0.1,0.3-0.2,0.8-0.1,1.3l-1.6,0.5c-0.3-1.2-0.2-2.2,0.5-2.9c0.6-0.7,1.5-1.2,2.5-1.5
		c1.2-0.3,2.2-0.4,3.1-0.2c0.9,0.2,1.4,0.8,1.7,1.8l1.7,5.8c0.1,0.2,0.1,0.3,0.2,0.4c0.1,0.1,0.3,0.1,0.5,0c0.1,0,0.2,0,0.2-0.1
		c0.1,0,0.2-0.1,0.3-0.1l0.4,1.2c-0.2,0.2-0.4,0.3-0.6,0.3c-0.1,0.1-0.3,0.1-0.6,0.2c-0.6,0.2-1.1,0.1-1.4-0.3
		c-0.2-0.2-0.4-0.5-0.6-0.8c-0.2,0.5-0.6,1.1-1.1,1.6c-0.5,0.5-1.2,0.9-2,1.1c-0.9,0.3-1.8,0.2-2.5-0.2c-0.8-0.4-1.3-1-1.5-1.9
		c-0.3-0.9-0.2-1.7,0.2-2.4c0.4-0.7,1.1-1.2,2-1.6L357.9,148.8z M355.7,154.4c0.4,0.2,0.9,0.2,1.4,0.1c0.6-0.2,1.1-0.5,1.6-0.9
		c0.8-0.7,1.1-1.6,0.8-2.6l-0.4-1.4c-0.2,0.2-0.4,0.4-0.7,0.6c-0.3,0.2-0.6,0.3-0.9,0.5l-1,0.4c-0.6,0.3-1,0.5-1.3,0.8
		c-0.4,0.4-0.6,1-0.4,1.6C354.9,153.9,355.2,154.2,355.7,154.4z"/>
	<path d="M361.9,143.4l1.7-0.5l0.4,1.3c0.2-0.6,0.5-1,0.8-1.4c0.5-0.5,1.1-0.9,1.8-1.1c1.1-0.3,2.2-0.2,3.3,0.5s1.8,1.8,2.3,3.4
		c0.6,2.2,0.5,3.9-0.4,5.2c-0.6,0.8-1.3,1.3-2.3,1.6c-0.8,0.2-1.4,0.2-2.1,0.1c-0.4-0.1-0.8-0.3-1.3-0.7l1.5,5.1l-1.7,0.5
		L361.9,143.4z M370.6,149.4c0.3-0.8,0.3-1.9-0.1-3.2c-0.2-0.8-0.5-1.5-0.9-2c-0.8-1-1.7-1.3-2.9-1c-1.2,0.3-1.8,1.2-1.9,2.5
		c-0.1,0.7,0.1,1.5,0.3,2.5c0.2,0.8,0.5,1.4,0.9,1.9c0.7,0.9,1.7,1.2,2.9,0.9C369.7,150.7,370.2,150.2,370.6,149.4z"/>
	<path d="M372.6,140.3l1.7-0.5l0.4,1.3c0.2-0.6,0.5-1,0.8-1.4c0.5-0.5,1.1-0.9,1.8-1.1c1.1-0.3,2.2-0.2,3.3,0.5s1.8,1.8,2.3,3.4
		c0.6,2.2,0.5,3.9-0.4,5.2c-0.6,0.8-1.3,1.3-2.3,1.6c-0.8,0.2-1.4,0.2-2.1,0.1c-0.4-0.1-0.8-0.3-1.3-0.7l1.5,5.1l-1.7,0.5
		L372.6,140.3z M381.2,146.3c0.3-0.8,0.3-1.9-0.1-3.2c-0.2-0.8-0.5-1.5-0.9-2c-0.8-1-1.7-1.3-2.9-1c-1.2,0.3-1.8,1.2-1.9,2.5
		c-0.1,0.7,0.1,1.5,0.3,2.5c0.2,0.8,0.5,1.4,0.9,1.9c0.7,0.9,1.7,1.2,2.9,0.9C380.4,147.6,380.9,147.1,381.2,146.3z"/>
	<path d="M382.4,133.4l1.7-0.5l4,13.8l-1.7,0.5L382.4,133.4z"/>
	<path d="M386.6,132.1l1.7-0.5l0.6,1.9l-1.7,0.5L386.6,132.1z M387.7,135.9l1.7-0.5l2.9,10l-1.7,0.5L387.7,135.9z"/>
	<path d="M398.2,133.1c0.8,0.1,1.4,0.4,1.9,0.9c0.5,0.4,0.9,0.9,1.2,1.6c0.2,0.4,0.5,1.2,0.8,2.2l-7.3,2.1c0.3,1,0.8,1.8,1.4,2.3
		c0.6,0.5,1.4,0.6,2.3,0.3c0.9-0.3,1.5-0.7,1.8-1.5c0.2-0.4,0.3-0.9,0.3-1.4l1.7-0.5c0.1,0.4,0,0.8-0.1,1.4c-0.1,0.5-0.3,1-0.5,1.4
		c-0.4,0.6-0.9,1.2-1.6,1.6c-0.4,0.2-0.8,0.4-1.3,0.5c-1.2,0.4-2.4,0.2-3.6-0.4c-1.1-0.7-1.9-1.8-2.4-3.4c-0.5-1.6-0.4-3,0.2-4.3
		c0.6-1.3,1.6-2.1,3-2.5C396.7,133,397.5,133,398.2,133.1z M400,136.9c-0.3-0.7-0.6-1.3-1-1.6c-0.7-0.7-1.6-0.9-2.7-0.6
		c-0.8,0.2-1.3,0.7-1.7,1.4c-0.4,0.7-0.4,1.5-0.2,2.4L400,136.9z"/>
	<path d="M405.6,138.1c0.2,0.5,0.5,0.9,0.8,1.2c0.6,0.4,1.4,0.5,2.5,0.2c0.6-0.2,1.2-0.5,1.6-0.9c0.4-0.4,0.5-0.9,0.4-1.5
		c-0.1-0.4-0.4-0.7-0.9-0.8c-0.3-0.1-0.8-0.1-1.6-0.1l-1.5,0.1c-0.9,0-1.6,0-2.1-0.2c-0.9-0.2-1.4-0.8-1.7-1.6
		c-0.3-1-0.2-1.8,0.4-2.6c0.5-0.8,1.4-1.4,2.5-1.7c1.5-0.4,2.8-0.3,3.7,0.4c0.6,0.4,1,1,1.1,1.6l-1.6,0.5c-0.1-0.4-0.4-0.7-0.7-0.9
		c-0.5-0.3-1.3-0.3-2.3-0.1c-0.7,0.2-1.1,0.5-1.4,0.8c-0.3,0.3-0.3,0.7-0.2,1.1c0.1,0.4,0.4,0.7,1,0.9c0.3,0.1,0.7,0.1,1.2,0.1
		l1.2-0.1c1.3-0.1,2.2,0,2.7,0.1c0.8,0.2,1.3,0.8,1.6,1.8c0.3,0.9,0.1,1.8-0.4,2.6c-0.5,0.8-1.5,1.5-2.9,1.9
		c-1.5,0.4-2.7,0.4-3.5-0.1s-1.4-1.2-1.7-2.2L405.6,138.1z"/>
	<path d="M417.1,124.3l1.7-0.5l0.8,2.8l1.6-0.5l0.4,1.4L420,128l1.9,6.6c0.1,0.4,0.3,0.6,0.6,0.6c0.2,0,0.4,0,0.7-0.1
		c0.1,0,0.2-0.1,0.3-0.1c0.1,0,0.2-0.1,0.3-0.1l0.4,1.3c-0.2,0.1-0.4,0.2-0.6,0.3c-0.2,0.1-0.4,0.2-0.7,0.2
		c-0.8,0.2-1.4,0.2-1.8-0.1c-0.4-0.3-0.7-0.8-0.9-1.4l-1.9-6.7l-1.4,0.4l-0.4-1.4l1.4-0.4L417.1,124.3z"/>
	<path d="M430.5,124.5c1.1,0.6,1.9,1.7,2.4,3.4c0.5,1.6,0.5,3.1,0,4.4c-0.5,1.3-1.5,2.2-3.2,2.6c-1.4,0.4-2.6,0.2-3.7-0.5
		c-1.1-0.7-1.8-1.8-2.3-3.4c-0.5-1.7-0.5-3.2,0.1-4.4c0.6-1.2,1.6-2.1,3-2.5C428.1,123.8,429.4,123.9,430.5,124.5z M431.4,131.5
		c0.2-1,0.1-2-0.2-3c-0.3-0.9-0.6-1.7-1.1-2.2c-0.7-0.8-1.7-1-2.8-0.7c-1,0.3-1.6,0.9-1.9,1.8c-0.2,0.9-0.2,1.9,0.1,3
		c0.3,1.1,0.8,1.9,1.5,2.5c0.7,0.6,1.5,0.7,2.5,0.4C430.6,133.1,431.2,132.5,431.4,131.5z"/>
	<path d="M438.5,118.1l1.7-0.5l0.8,2.8l1.6-0.5l0.4,1.4l-1.6,0.5l1.9,6.6c0.1,0.3,0.3,0.5,0.6,0.6c0.2,0,0.4,0,0.7-0.1
		c0.1,0,0.2-0.1,0.3-0.1c0.1,0,0.2-0.1,0.3-0.1l0.4,1.3c-0.2,0.1-0.4,0.2-0.6,0.3c-0.2,0.1-0.4,0.2-0.7,0.2
		c-0.8,0.2-1.4,0.2-1.8-0.1c-0.4-0.3-0.7-0.8-0.9-1.4l-1.9-6.7l-1.4,0.4l-0.4-1.4l1.4-0.4L438.5,118.1z"/>
	<path d="M443.2,115.7l1.7-0.5l1.5,5.1c0.3-0.6,0.5-1.1,0.8-1.4c0.4-0.5,1.1-0.9,1.9-1.1c1.5-0.4,2.6-0.2,3.4,0.7
		c0.4,0.5,0.8,1.2,1.1,2.2l1.9,6.4l-1.7,0.5l-1.8-6.3c-0.2-0.7-0.5-1.3-0.8-1.5c-0.5-0.5-1.1-0.6-2-0.3c-0.7,0.2-1.3,0.6-1.7,1.3
		s-0.5,1.6-0.1,3l1.5,5.3l-1.7,0.5L443.2,115.7z"/>
	<path d="M453.9,112.6l1.7-0.5l0.6,1.9l-1.7,0.5L453.9,112.6z M455,116.4l1.7-0.5l2.9,10l-1.7,0.5L455,116.4z"/>
	<path d="M462.2,121.7c0.2,0.5,0.5,0.9,0.8,1.2c0.6,0.4,1.4,0.5,2.5,0.2c0.6-0.2,1.2-0.5,1.6-0.9c0.4-0.4,0.5-0.9,0.4-1.5
		c-0.1-0.4-0.4-0.7-0.9-0.8c-0.3-0.1-0.8-0.1-1.6-0.1l-1.5,0.1c-0.9,0-1.6,0-2.1-0.2c-0.9-0.2-1.4-0.8-1.7-1.6
		c-0.3-1-0.2-1.8,0.4-2.6c0.5-0.8,1.4-1.4,2.5-1.7c1.5-0.4,2.8-0.3,3.7,0.4c0.6,0.4,1,1,1.1,1.6l-1.6,0.5c-0.1-0.4-0.4-0.7-0.7-0.9
		c-0.5-0.3-1.3-0.3-2.3-0.1c-0.7,0.2-1.1,0.5-1.4,0.8c-0.3,0.3-0.3,0.7-0.2,1.1c0.1,0.4,0.4,0.7,1,0.9c0.3,0.1,0.7,0.1,1.2,0.1
		l1.2-0.1c1.3-0.1,2.2,0,2.7,0.1c0.8,0.2,1.3,0.8,1.6,1.8c0.3,0.9,0.1,1.8-0.4,2.6c-0.5,0.8-1.5,1.5-2.9,1.9
		c-1.5,0.4-2.7,0.4-3.5-0.1s-1.4-1.2-1.7-2.2L462.2,121.7z"/>
	<path d="M480.7,113.2c0.4-0.2,0.6-0.4,0.6-0.7c0-0.2,0-0.4-0.1-0.7c-0.2-0.6-0.5-0.9-1-1.1c-0.5-0.1-1.1-0.1-1.9,0.1
		c-0.9,0.3-1.4,0.7-1.7,1.3c-0.1,0.3-0.1,0.8-0.1,1.3l-1.6,0.5c-0.3-1.3-0.2-2.2,0.5-2.9s1.5-1.2,2.5-1.5c1.2-0.3,2.2-0.4,3.1-0.2
		c0.9,0.2,1.4,0.8,1.7,1.8l1.7,5.8c0.1,0.2,0.1,0.3,0.2,0.4c0.1,0.1,0.3,0.1,0.5,0c0.1,0,0.2-0.1,0.2-0.1c0.1,0,0.2-0.1,0.3-0.1
		l0.4,1.2c-0.2,0.2-0.4,0.3-0.6,0.3c-0.1,0.1-0.3,0.1-0.6,0.2c-0.6,0.2-1.1,0.1-1.4-0.3c-0.2-0.2-0.4-0.5-0.6-0.8
		c-0.2,0.5-0.6,1.1-1.1,1.6c-0.5,0.5-1.2,0.9-2,1.1c-0.9,0.3-1.8,0.2-2.5-0.2c-0.8-0.4-1.3-1-1.5-1.9c-0.3-0.9-0.2-1.7,0.2-2.4
		c0.4-0.7,1.1-1.2,2-1.6L480.7,113.2z M478.5,118.8c0.4,0.2,0.9,0.2,1.4,0.1c0.6-0.2,1.1-0.5,1.6-0.9c0.8-0.7,1.1-1.6,0.8-2.6
		l-0.4-1.4c-0.2,0.2-0.4,0.4-0.7,0.6s-0.6,0.3-0.9,0.5l-1,0.4c-0.6,0.3-1,0.5-1.3,0.8c-0.4,0.4-0.6,1-0.4,1.6
		C477.7,118.3,478,118.6,478.5,118.8z"/>
	<path d="M486.5,107.2l1.9,6.7c0.1,0.5,0.3,0.9,0.6,1.2c0.5,0.5,1.1,0.7,1.9,0.4c1.1-0.3,1.8-1.1,1.9-2.3c0.1-0.6,0-1.4-0.3-2.4
		l-1.4-4.9l1.7-0.5l2.9,10l-1.6,0.5l-0.4-1.5c-0.1,0.4-0.3,0.8-0.5,1.2c-0.5,0.7-1.2,1.2-2.1,1.5c-1.4,0.4-2.5,0.2-3.3-0.6
		c-0.4-0.4-0.8-1.1-1-1.9l-2-6.8L486.5,107.2z"/>
	<path d="M501.1,103.3c0.4,0.1,0.8,0.3,1.3,0.7l-1.5-5.1l1.6-0.5l4,13.8l-1.5,0.4l-0.4-1.4c-0.2,0.7-0.5,1.3-1,1.7
		c-0.5,0.4-1,0.7-1.7,0.9c-1.1,0.3-2.2,0.1-3.3-0.6c-1.1-0.7-1.9-1.8-2.3-3.4c-0.4-1.5-0.4-2.8,0-4.1c0.4-1.3,1.3-2.1,2.7-2.5
		C499.8,103.2,500.5,103.1,501.1,103.3z M499.6,111.9c0.7,0.6,1.5,0.7,2.5,0.5c0.8-0.2,1.3-0.7,1.6-1.6c0.3-0.8,0.3-1.9-0.1-3.1
		c-0.4-1.3-0.9-2.1-1.6-2.6c-0.7-0.5-1.4-0.6-2.2-0.4c-0.8,0.2-1.4,0.8-1.8,1.6c-0.3,0.8-0.3,1.8,0,3.1
		C498.4,110.5,498.9,111.4,499.6,111.9z"/>
	<path d="M505.1,97.8l1.7-0.5l0.6,1.9l-1.7,0.5L505.1,97.8z M506.2,101.6l1.7-0.5l2.9,10l-1.7,0.5L506.2,101.6z"/>
	<path d="M516.8,98.8c0.8,0.1,1.4,0.4,1.9,0.9c0.5,0.4,0.9,0.9,1.2,1.6c0.2,0.4,0.5,1.2,0.8,2.2l-7.3,2.1c0.3,1,0.8,1.8,1.4,2.3
		c0.6,0.5,1.4,0.6,2.3,0.3c0.9-0.3,1.5-0.7,1.8-1.5c0.2-0.4,0.3-0.9,0.3-1.4l1.7-0.5c0.1,0.4,0,0.8-0.1,1.4c-0.1,0.5-0.3,1-0.5,1.4
		c-0.4,0.6-0.9,1.2-1.6,1.6c-0.4,0.2-0.8,0.4-1.3,0.5c-1.2,0.4-2.4,0.2-3.6-0.4c-1.1-0.7-1.9-1.8-2.4-3.4c-0.5-1.6-0.4-3,0.2-4.3
		c0.6-1.3,1.6-2.1,3-2.5C515.3,98.6,516,98.6,516.8,98.8z M518.5,102.5c-0.3-0.7-0.6-1.3-1-1.6c-0.7-0.7-1.6-0.9-2.7-0.6
		c-0.8,0.2-1.3,0.7-1.7,1.4c-0.4,0.7-0.4,1.5-0.2,2.4L518.5,102.5z"/>
	<path d="M521.2,97.2l1.6-0.5l0.4,1.4c0.3-0.7,0.7-1.3,1.1-1.7c0.5-0.4,1-0.7,1.7-0.9c1.4-0.4,2.5-0.2,3.3,0.7
		c0.4,0.5,0.8,1.2,1.1,2.2l1.9,6.4l-1.7,0.5l-1.8-6.3c-0.2-0.6-0.4-1.1-0.7-1.4c-0.5-0.5-1.1-0.7-1.9-0.5c-0.4,0.1-0.7,0.3-0.9,0.4
		c-0.4,0.3-0.8,0.7-1,1.2c-0.2,0.4-0.3,0.8-0.3,1.2c0,0.4,0.1,0.9,0.3,1.6l1.5,5.3l-1.7,0.5L521.2,97.2z"/>
	<path d="M538.6,92.7c0.9,0.3,1.6,1.2,2.1,2.5l-1.6,0.5c-0.3-0.6-0.7-1-1.1-1.3c-0.5-0.3-1.1-0.3-1.9-0.1c-1.1,0.3-1.7,1.1-1.9,2.2
		c-0.1,0.8,0,1.7,0.3,2.7c0.3,1,0.7,1.8,1.4,2.4c0.6,0.6,1.4,0.7,2.3,0.4c0.7-0.2,1.2-0.6,1.5-1.1c0.3-0.5,0.4-1.2,0.3-2l1.6-0.5
		c0.2,1.4,0,2.5-0.6,3.3c-0.6,0.8-1.4,1.4-2.6,1.8c-1.3,0.4-2.5,0.2-3.6-0.5c-1.1-0.7-1.8-1.8-2.2-3.3c-0.5-1.8-0.5-3.3,0.1-4.5
		c0.6-1.2,1.5-2,2.8-2.4C536.8,92.3,537.8,92.4,538.6,92.7z"/>
	<path d="M547.7,89.8c0.8,0.1,1.4,0.4,1.9,0.9c0.5,0.4,0.9,0.9,1.2,1.6c0.2,0.4,0.5,1.2,0.8,2.2l-7.3,2.1c0.3,1,0.8,1.8,1.4,2.3
		c0.6,0.5,1.4,0.6,2.3,0.3c0.9-0.3,1.5-0.7,1.8-1.5c0.2-0.4,0.3-0.9,0.3-1.4l1.7-0.5c0.1,0.4,0,0.8-0.1,1.4c-0.1,0.5-0.3,1-0.5,1.4
		c-0.4,0.6-0.9,1.2-1.6,1.6c-0.4,0.2-0.8,0.4-1.3,0.5c-1.2,0.4-2.4,0.2-3.6-0.4s-1.9-1.8-2.4-3.4c-0.5-1.6-0.4-3,0.2-4.3
		c0.6-1.3,1.6-2.1,3-2.5C546.2,89.7,547,89.6,547.7,89.8z M549.5,93.6c-0.3-0.7-0.6-1.3-1-1.6c-0.7-0.7-1.6-0.9-2.7-0.6
		c-0.8,0.2-1.3,0.7-1.7,1.4c-0.4,0.7-0.4,1.5-0.2,2.4L549.5,93.6z"/>
</g>
<g>
	<path d="M369.6,234.8c0.4,0,0.7-0.2,0.8-0.4c0.1-0.2,0.1-0.4,0.2-0.7c0-0.6-0.1-1-0.5-1.4c-0.4-0.3-1-0.5-1.8-0.5
		c-0.9-0.1-1.6,0.1-2,0.6c-0.2,0.3-0.4,0.7-0.5,1.2l-1.6-0.1c0.1-1.3,0.6-2.2,1.5-2.6c0.8-0.4,1.8-0.6,2.8-0.5
		c1.2,0.1,2.2,0.4,2.9,0.9c0.7,0.5,1,1.3,1,2.3l-0.5,6c0,0.2,0,0.3,0.1,0.4c0.1,0.1,0.2,0.2,0.5,0.2c0.1,0,0.2,0,0.3,0
		c0.1,0,0.2,0,0.3,0l-0.1,1.3c-0.3,0.1-0.5,0.1-0.6,0.1c-0.1,0-0.3,0-0.6,0c-0.6,0-1-0.3-1.3-0.7c-0.1-0.2-0.2-0.6-0.2-1
		c-0.4,0.4-0.9,0.8-1.6,1.1c-0.7,0.3-1.4,0.4-2.2,0.3c-1-0.1-1.7-0.4-2.3-1.1c-0.6-0.6-0.8-1.4-0.8-2.3c0.1-1,0.4-1.7,1.1-2.2
		c0.6-0.5,1.5-0.8,2.5-0.8L369.6,234.8z M365.5,239.3c0.3,0.3,0.8,0.5,1.3,0.5c0.6,0,1.2,0,1.8-0.3c1-0.4,1.6-1.1,1.6-2.2l0.1-1.4
		c-0.2,0.1-0.5,0.2-0.9,0.3c-0.3,0.1-0.7,0.1-1,0.1l-1.1,0.1c-0.6,0-1.1,0.1-1.5,0.3c-0.6,0.3-0.9,0.7-0.9,1.4
		C365,238.6,365.2,239,365.5,239.3z"/>
	<path d="M375.3,231.2l1.7,0.1l-0.1,1.4c0.4-0.4,0.8-0.8,1.2-1c0.6-0.3,1.3-0.5,2.1-0.4c1.2,0.1,2.2,0.6,2.9,1.6
		c0.8,1,1.1,2.3,0.9,4c-0.2,2.3-0.9,3.8-2.2,4.7c-0.8,0.6-1.7,0.8-2.7,0.7c-0.8-0.1-1.4-0.3-1.9-0.7c-0.3-0.2-0.6-0.6-1-1.1
		l-0.4,5.3l-1.8-0.1L375.3,231.2z M381.2,239.9c0.6-0.6,0.9-1.6,1.1-3c0.1-0.8,0-1.6-0.2-2.2c-0.4-1.2-1.2-1.8-2.4-1.9
		c-1.2-0.1-2.1,0.4-2.6,1.6c-0.3,0.6-0.5,1.4-0.6,2.4c-0.1,0.8,0,1.5,0.2,2.1c0.4,1.1,1.2,1.7,2.4,1.8
		C379.9,240.8,380.6,240.5,381.2,239.9z"/>
	<path d="M386.3,232l1.7,0.1l-0.1,1.4c0.4-0.4,0.8-0.8,1.2-1c0.6-0.3,1.3-0.5,2.1-0.4c1.2,0.1,2.2,0.6,2.9,1.6c0.8,1,1.1,2.3,0.9,4
		c-0.2,2.3-0.9,3.8-2.2,4.7c-0.8,0.6-1.7,0.8-2.7,0.7c-0.8-0.1-1.4-0.3-1.9-0.7c-0.3-0.2-0.6-0.6-1-1.1l-0.4,5.3l-1.8-0.1L386.3,232
		z M392.3,240.7c0.6-0.6,0.9-1.6,1.1-3c0.1-0.8,0-1.6-0.2-2.2c-0.4-1.2-1.2-1.8-2.4-1.9c-1.2-0.1-2.1,0.4-2.6,1.6
		c-0.3,0.6-0.5,1.4-0.6,2.4c-0.1,0.8,0,1.5,0.2,2.1c0.4,1.1,1.2,1.7,2.4,1.8C391,241.7,391.7,241.4,392.3,240.7z"/>
	<path d="M397.9,229l1.8,0.1l-1.1,14.3l-1.8-0.1L397.9,229z"/>
	<path d="M402,233.3l1.8,0.1l-0.8,10.4l-1.8-0.1L402,233.3z M402.3,229.3l1.8,0.1l-0.2,2l-1.8-0.1L402.3,229.3z"/>
	<path d="M412.9,234.3c0.7,0.4,1.2,0.9,1.5,1.5c0.3,0.6,0.5,1.2,0.6,1.9c0.1,0.5,0.1,1.3,0,2.3l-7.6-0.6c0,1.1,0.1,1.9,0.5,2.6
		s1.1,1.1,2.1,1.1c0.9,0.1,1.7-0.2,2.2-0.7c0.3-0.3,0.6-0.7,0.7-1.2l1.7,0.1c-0.1,0.4-0.3,0.8-0.6,1.2c-0.3,0.5-0.6,0.8-0.9,1.1
		c-0.6,0.5-1.2,0.8-2,0.9c-0.4,0.1-0.9,0.1-1.4,0c-1.3-0.1-2.3-0.7-3.2-1.7c-0.8-1-1.2-2.4-1-4.1c0.1-1.7,0.7-3,1.7-4
		c1-1,2.2-1.4,3.7-1.3C411.5,233.7,412.2,233.9,412.9,234.3z M413.2,238.5c0-0.8-0.1-1.4-0.4-1.9c-0.4-0.9-1.2-1.4-2.3-1.5
		c-0.8-0.1-1.5,0.2-2.1,0.7c-0.6,0.5-0.9,1.3-1,2.1L413.2,238.5z"/>
	<path d="M418,241.6c0,0.6,0.1,1,0.3,1.4c0.4,0.6,1.2,0.9,2.3,1c0.7,0.1,1.3,0,1.8-0.3c0.5-0.2,0.8-0.7,0.9-1.3
		c0-0.4-0.1-0.8-0.5-1.1c-0.2-0.2-0.7-0.4-1.5-0.6l-1.4-0.5c-0.9-0.3-1.5-0.6-1.9-0.9c-0.7-0.5-1.1-1.2-1-2.1c0.1-1,0.5-1.8,1.3-2.3
		c0.8-0.6,1.8-0.8,3-0.7c1.6,0.1,2.7,0.7,3.3,1.6c0.4,0.6,0.6,1.3,0.5,1.9l-1.7-0.1c0-0.4-0.1-0.8-0.3-1.1c-0.4-0.5-1.1-0.8-2.1-0.9
		c-0.7-0.1-1.2,0-1.6,0.3c-0.4,0.2-0.6,0.5-0.6,1c0,0.5,0.2,0.8,0.6,1.1c0.3,0.2,0.6,0.4,1.1,0.5l1.2,0.4c1.3,0.4,2.1,0.8,2.5,1.1
		c0.6,0.5,0.9,1.2,0.9,2.2c-0.1,0.9-0.5,1.7-1.3,2.3c-0.8,0.6-1.9,0.9-3.3,0.8c-1.6-0.1-2.7-0.6-3.3-1.3s-0.9-1.7-0.8-2.7L418,241.6
		z"/>
	<path d="M433.6,232.7l1.8,0.1l-0.2,2.9l1.7,0.1l-0.1,1.4l-1.7-0.1l-0.5,6.8c0,0.4,0.1,0.6,0.3,0.8c0.1,0.1,0.4,0.1,0.7,0.2
		c0.1,0,0.2,0,0.3,0c0.1,0,0.2,0,0.3,0l-0.1,1.4c-0.2,0-0.4,0.1-0.6,0.1s-0.5,0-0.7,0c-0.8-0.1-1.4-0.3-1.6-0.8
		c-0.3-0.4-0.4-1-0.3-1.7l0.5-6.9l-1.4-0.1l0.1-1.4l1.4,0.1L433.6,232.7z"/>
	<path d="M446.1,237.6c0.9,1,1.2,2.3,1.1,4.1c-0.1,1.7-0.6,3-1.5,4.1c-0.9,1-2.2,1.5-3.9,1.4c-1.4-0.1-2.5-0.7-3.3-1.7
		c-0.8-1-1.1-2.4-1-4c0.1-1.8,0.7-3.1,1.6-4.1c1-1,2.2-1.4,3.7-1.3C444.1,236.1,445.2,236.7,446.1,237.6z M444.4,244.5
		c0.5-0.8,0.8-1.8,0.9-2.9c0.1-1,0-1.8-0.3-2.4c-0.4-1-1.2-1.5-2.4-1.6c-1.1-0.1-1.9,0.3-2.4,1c-0.5,0.8-0.9,1.7-1,2.9
		c-0.1,1.1,0.1,2.1,0.5,2.8c0.4,0.8,1.2,1.2,2.2,1.3C443.1,245.7,443.9,245.3,444.4,244.5z"/>
	<path d="M455.8,234.4l1.8,0.1l-0.2,2.9l1.7,0.1l-0.1,1.4l-1.7-0.1l-0.5,6.8c0,0.4,0.1,0.6,0.3,0.8c0.1,0.1,0.4,0.1,0.7,0.2
		c0.1,0,0.2,0,0.3,0s0.2,0,0.3,0l-0.1,1.4c-0.2,0-0.4,0.1-0.6,0.1c-0.2,0-0.5,0-0.7,0c-0.8-0.1-1.4-0.3-1.6-0.8s-0.4-1-0.3-1.7
		l0.5-6.9l-1.4-0.1l0.1-1.4l1.4,0.1L455.8,234.4z"/>
	<path d="M461.1,233.8l1.8,0.1l-0.4,5.3c0.5-0.5,0.9-0.8,1.2-1c0.6-0.3,1.3-0.5,2.2-0.4c1.5,0.1,2.5,0.7,3,1.8
		c0.2,0.6,0.3,1.4,0.3,2.4l-0.5,6.7l-1.8-0.1l0.5-6.6c0.1-0.8,0-1.3-0.2-1.7c-0.3-0.6-0.8-0.9-1.7-1c-0.7-0.1-1.4,0.1-2,0.6
		c-0.6,0.5-1,1.4-1.1,2.8l-0.4,5.5l-1.8-0.1L461.1,233.8z"/>
	<path d="M471.8,238.6l1.8,0.1l-0.8,10.4L471,249L471.8,238.6z M472.1,234.7l1.8,0.1l-0.2,2l-1.8-0.1L472.1,234.7z"/>
	<path d="M476.8,246.2c0,0.6,0.1,1,0.3,1.4c0.4,0.6,1.2,0.9,2.3,1c0.7,0.1,1.3,0,1.8-0.3c0.5-0.2,0.8-0.7,0.9-1.3
		c0-0.4-0.1-0.8-0.5-1.1c-0.2-0.2-0.7-0.4-1.5-0.6l-1.4-0.5c-0.9-0.3-1.5-0.6-1.9-0.9c-0.7-0.5-1.1-1.2-1-2.1c0.1-1,0.5-1.8,1.3-2.3
		c0.8-0.6,1.8-0.8,3-0.7c1.6,0.1,2.7,0.7,3.3,1.6c0.4,0.6,0.6,1.3,0.5,1.9l-1.7-0.1c0-0.4-0.1-0.8-0.3-1.1c-0.4-0.5-1.1-0.8-2.1-0.9
		c-0.7-0.1-1.2,0-1.6,0.3c-0.4,0.2-0.6,0.5-0.6,1c0,0.5,0.2,0.8,0.6,1.1c0.3,0.2,0.6,0.4,1.1,0.5l1.2,0.4c1.3,0.4,2.1,0.8,2.5,1.1
		c0.6,0.5,0.9,1.2,0.9,2.2c-0.1,0.9-0.5,1.7-1.3,2.3c-0.8,0.6-1.9,0.9-3.3,0.8c-1.6-0.1-2.7-0.6-3.3-1.3c-0.6-0.8-0.9-1.7-0.8-2.7
		L476.8,246.2z"/>
	<path d="M497.1,244.7c0.4,0,0.7-0.2,0.8-0.4c0.1-0.2,0.1-0.4,0.2-0.7c0-0.6-0.1-1.1-0.5-1.4c-0.4-0.3-1-0.5-1.8-0.5
		c-0.9-0.1-1.6,0.1-2,0.6c-0.2,0.3-0.4,0.7-0.5,1.2l-1.6-0.1c0.1-1.3,0.6-2.2,1.5-2.6c0.8-0.4,1.8-0.6,2.8-0.5
		c1.2,0.1,2.2,0.4,2.9,0.9c0.7,0.5,1,1.3,1,2.3l-0.5,6c0,0.2,0,0.3,0.1,0.4c0.1,0.1,0.2,0.2,0.5,0.2c0.1,0,0.2,0,0.3,0
		c0.1,0,0.2,0,0.3,0l-0.1,1.3c-0.3,0.1-0.5,0.1-0.6,0.1c-0.1,0-0.3,0-0.6,0c-0.6,0-1-0.3-1.3-0.7c-0.1-0.2-0.2-0.6-0.2-1
		c-0.4,0.4-0.9,0.8-1.6,1.1s-1.4,0.4-2.2,0.3c-1-0.1-1.7-0.4-2.3-1.1c-0.6-0.6-0.8-1.4-0.8-2.3c0.1-1,0.4-1.7,1.1-2.2
		c0.6-0.5,1.5-0.8,2.5-0.8L497.1,244.7z M493,249.1c0.3,0.3,0.8,0.5,1.3,0.5c0.6,0,1.2,0,1.8-0.3c1-0.4,1.6-1.1,1.6-2.2l0.1-1.4
		c-0.2,0.1-0.5,0.2-0.9,0.3c-0.3,0.1-0.7,0.1-1,0.1l-1.1,0.1c-0.6,0-1.1,0.1-1.5,0.3c-0.6,0.3-0.9,0.7-0.9,1.4
		C492.5,248.4,492.7,248.8,493,249.1z"/>
	<path d="M504.6,241.1l-0.5,6.9c0,0.5,0,1,0.1,1.3c0.3,0.6,0.8,1,1.6,1.1c1.2,0.1,2-0.4,2.6-1.4c0.3-0.6,0.5-1.4,0.5-2.4l0.4-5.1
		l1.8,0.1l-0.8,10.4l-1.7-0.1l0.1-1.5c-0.3,0.4-0.6,0.7-0.9,0.9c-0.7,0.5-1.5,0.7-2.5,0.6c-1.5-0.1-2.4-0.7-2.9-1.7
		c-0.2-0.6-0.3-1.3-0.3-2.2l0.5-7.1L504.6,241.1z"/>
	<path d="M519.7,242.6c0.3,0.2,0.6,0.6,1,1.1l0.4-5.3l1.7,0.1l-1.1,14.4l-1.6-0.1l0.1-1.5c-0.5,0.6-1,1-1.6,1.3
		c-0.6,0.2-1.2,0.3-1.9,0.3c-1.2-0.1-2.1-0.7-2.9-1.7c-0.8-1-1.1-2.4-1-4c0.1-1.5,0.6-2.8,1.5-3.9c0.9-1.1,2-1.5,3.4-1.4
		C518.5,242,519.2,242.2,519.7,242.6z M515.2,250.1c0.4,0.8,1.1,1.2,2.2,1.3c0.8,0.1,1.5-0.2,2.1-0.9c0.6-0.7,0.9-1.6,1-2.9
		c0.1-1.3-0.1-2.3-0.6-3c-0.5-0.7-1.1-1-1.9-1.1c-0.9-0.1-1.6,0.2-2.2,0.8c-0.6,0.6-0.9,1.6-1,2.9
		C514.6,248.4,514.7,249.3,515.2,250.1z"/>
	<path d="M525.1,242.7l1.8,0.1l-0.8,10.4l-1.8-0.1L525.1,242.7z M525.4,238.8l1.8,0.1l-0.2,2l-1.8-0.1L525.4,238.8z"/>
	<path d="M535.9,243.8c0.7,0.4,1.2,0.9,1.5,1.5c0.3,0.6,0.5,1.2,0.6,1.9c0.1,0.5,0.1,1.3,0,2.3l-7.6-0.6c0,1.1,0.1,1.9,0.5,2.6
		c0.4,0.7,1.1,1.1,2.1,1.1c0.9,0.1,1.7-0.2,2.2-0.7c0.3-0.3,0.6-0.7,0.7-1.2l1.7,0.1c-0.1,0.4-0.3,0.8-0.6,1.2
		c-0.3,0.5-0.6,0.8-0.9,1.1c-0.6,0.5-1.2,0.8-2,0.9c-0.4,0.1-0.9,0.1-1.4,0c-1.3-0.1-2.3-0.7-3.2-1.7c-0.8-1-1.2-2.4-1-4.1
		c0.1-1.7,0.7-3,1.7-4s2.2-1.4,3.7-1.3C534.5,243.2,535.2,243.4,535.9,243.8z M536.2,247.9c0-0.8-0.1-1.4-0.4-1.9
		c-0.4-0.9-1.2-1.4-2.3-1.4c-0.8-0.1-1.5,0.2-2.1,0.7c-0.6,0.5-0.9,1.3-1,2.1L536.2,247.9z"/>
	<path d="M540.6,243.9l1.7,0.1l-0.1,1.5c0.5-0.6,1.1-1,1.7-1.2c0.6-0.2,1.2-0.3,1.9-0.3c1.5,0.1,2.4,0.7,2.9,1.8
		c0.2,0.6,0.3,1.4,0.2,2.5l-0.5,6.7l-1.8-0.1l0.5-6.6c0-0.6,0-1.2-0.2-1.6c-0.3-0.7-0.8-1-1.6-1.1c-0.4,0-0.8,0-1,0
		c-0.5,0.1-0.9,0.4-1.3,0.8c-0.3,0.3-0.5,0.7-0.7,1c-0.1,0.4-0.2,0.9-0.3,1.6l-0.4,5.5l-1.8-0.1L540.6,243.9z"/>
	<path d="M558.5,245.8c0.7,0.6,1.1,1.6,1.1,3.1l-1.7-0.1c-0.1-0.7-0.2-1.2-0.6-1.7c-0.3-0.5-0.9-0.7-1.7-0.8c-1.1-0.1-2,0.4-2.5,1.4
		c-0.4,0.7-0.6,1.5-0.7,2.6c-0.1,1,0.1,1.9,0.5,2.7s1.1,1.2,2,1.2c0.7,0.1,1.3-0.1,1.8-0.5s0.8-1,1-1.8l1.7,0.1
		c-0.3,1.4-0.9,2.3-1.7,2.9c-0.8,0.6-1.8,0.8-3.1,0.7c-1.4-0.1-2.4-0.7-3.1-1.7c-0.7-1.1-1-2.3-0.9-3.8c0.1-1.8,0.7-3.2,1.7-4.2
		c1-1,2.1-1.4,3.5-1.3C556.9,244.8,557.8,245.2,558.5,245.8z"/>
	<path d="M568.1,246.3c0.7,0.4,1.2,0.9,1.5,1.5c0.3,0.6,0.5,1.2,0.6,1.9c0.1,0.5,0.1,1.3,0,2.3l-7.6-0.6c0,1.1,0.1,1.9,0.5,2.6
		c0.4,0.7,1.1,1.1,2.1,1.1c0.9,0.1,1.7-0.2,2.2-0.7c0.3-0.3,0.6-0.7,0.7-1.2l1.7,0.1c-0.1,0.4-0.3,0.8-0.6,1.2s-0.6,0.8-0.9,1.1
		c-0.6,0.5-1.2,0.8-2,0.9c-0.4,0.1-0.9,0.1-1.4,0c-1.3-0.1-2.3-0.7-3.2-1.7s-1.2-2.4-1-4.1c0.1-1.7,0.7-3,1.7-4c1-1,2.2-1.4,3.7-1.3
		C566.7,245.7,567.4,245.9,568.1,246.3z M568.4,250.4c0-0.8-0.1-1.4-0.4-1.9c-0.4-0.9-1.2-1.4-2.3-1.4c-0.8-0.1-1.5,0.2-2.1,0.7
		c-0.6,0.5-0.9,1.3-1,2.1L568.4,250.4z"/>
</g>
<g>
	<path d="M596.1,150.8c0.5-0.1,0.9-0.3,1.1-0.7c0.1-0.2,0.2-0.5,0.2-0.9c0-0.8-0.3-1.3-0.8-1.7c-0.6-0.4-1.3-0.5-2.4-0.5
		c-1.2,0-2,0.3-2.5,1c-0.3,0.4-0.5,0.9-0.5,1.6h-2.1c0-1.7,0.6-2.8,1.6-3.5c1-0.7,2.3-1,3.6-1c1.6,0,2.9,0.3,3.9,0.9
		c1,0.6,1.5,1.6,1.5,2.8v7.8c0,0.2,0,0.4,0.1,0.6c0.1,0.1,0.3,0.2,0.6,0.2c0.1,0,0.2,0,0.3,0s0.3,0,0.4-0.1v1.7
		c-0.4,0.1-0.6,0.2-0.8,0.2s-0.4,0-0.8,0c-0.8,0-1.4-0.3-1.7-0.8c-0.2-0.3-0.3-0.7-0.4-1.3c-0.5,0.6-1.1,1.1-2,1.6
		c-0.9,0.4-1.8,0.7-2.9,0.7c-1.3,0-2.3-0.4-3.1-1.1c-0.8-0.8-1.2-1.7-1.2-2.9c0-1.3,0.4-2.2,1.2-2.9c0.8-0.7,1.8-1.1,3.1-1.3
		L596.1,150.8z M591.3,156.9c0.5,0.4,1.1,0.6,1.7,0.6c0.8,0,1.6-0.2,2.3-0.6c1.3-0.6,1.9-1.6,1.9-3v-1.8c-0.3,0.2-0.6,0.3-1.1,0.4
		c-0.4,0.1-0.9,0.2-1.3,0.3l-1.4,0.2c-0.8,0.1-1.5,0.3-1.9,0.5c-0.7,0.4-1.1,1-1.1,1.9C590.6,156,590.8,156.6,591.3,156.9z"/>
	<path d="M605.5,145.4v9c0,0.7,0.1,1.3,0.3,1.7c0.4,0.8,1.1,1.2,2.2,1.2c1.5,0,2.6-0.7,3.2-2.1c0.3-0.8,0.5-1.8,0.5-3.1v-6.7h2.3
		V159h-2.2l0-2c-0.3,0.5-0.7,1-1.1,1.3c-0.9,0.7-1.9,1.1-3.1,1.1c-1.9,0-3.2-0.6-3.9-1.9c-0.4-0.7-0.6-1.6-0.6-2.8v-9.2H605.5z"/>
	<path d="M625.2,145.8c0.4,0.3,0.9,0.7,1.4,1.3v-6.9h2.2V159h-2.1v-1.9c-0.5,0.8-1.2,1.4-1.9,1.8c-0.7,0.4-1.6,0.6-2.5,0.6
		c-1.5,0-2.8-0.6-3.9-1.9c-1.1-1.3-1.7-3-1.7-5.1c0-2,0.5-3.7,1.5-5.1c1-1.5,2.4-2.2,4.3-2.2C623.6,145.2,624.5,145.4,625.2,145.8z
		 M620.1,156c0.6,1,1.6,1.5,3,1.5c1.1,0,1.9-0.5,2.6-1.4c0.7-0.9,1-2.2,1-3.9c0-1.7-0.3-3-1-3.8c-0.7-0.8-1.6-1.2-2.6-1.2
		c-1.1,0-2.1,0.4-2.8,1.3c-0.7,0.9-1.1,2.2-1.1,3.9C619.2,153.8,619.5,155,620.1,156z"/>
	<path d="M632.2,140.4h2.3v2.6h-2.3V140.4z M632.2,145.5h2.3V159h-2.3V145.5z"/>
	<path d="M646.4,145.8c0.9,0.5,1.6,1,2.1,1.8c0.5,0.7,0.8,1.5,0.9,2.4c0.1,0.6,0.2,1.6,0.2,3h-9.9c0,1.4,0.4,2.5,1,3.3
		s1.5,1.3,2.8,1.3c1.2,0,2.1-0.4,2.8-1.2c0.4-0.5,0.7-1,0.8-1.6h2.2c-0.1,0.5-0.3,1.1-0.6,1.7c-0.3,0.6-0.7,1.1-1.1,1.5
		c-0.7,0.7-1.5,1.1-2.6,1.4c-0.5,0.1-1.2,0.2-1.9,0.2c-1.7,0-3.1-0.6-4.3-1.8c-1.2-1.2-1.8-3-1.8-5.2c0-2.2,0.6-4,1.8-5.3
		s2.7-2,4.6-2C644.5,145.1,645.5,145.3,646.4,145.8z M647.2,151.1c-0.1-1-0.3-1.8-0.6-2.4c-0.6-1.1-1.7-1.7-3.1-1.7
		c-1,0-1.9,0.4-2.6,1.1s-1.1,1.7-1.1,2.9H647.2z"/>
	<path d="M652.4,145.4h2.2v1.9c0.6-0.8,1.3-1.4,2-1.7s1.5-0.5,2.4-0.5c1.9,0,3.2,0.7,3.9,2c0.4,0.7,0.6,1.8,0.6,3.2v8.7h-2.3v-8.6
		c0-0.8-0.1-1.5-0.4-2c-0.4-0.8-1.1-1.3-2.2-1.3c-0.5,0-1,0.1-1.3,0.2c-0.6,0.2-1.2,0.6-1.7,1.1c-0.4,0.4-0.6,0.9-0.7,1.4
		c-0.1,0.5-0.2,1.2-0.2,2.1v7.1h-2.3V145.4z"/>
	<path d="M675.9,146.1c1,0.7,1.5,2,1.7,3.8h-2.2c-0.1-0.8-0.4-1.5-0.9-2.1s-1.3-0.8-2.3-0.8c-1.5,0-2.5,0.7-3.1,2.1
		c-0.4,0.9-0.6,2.1-0.6,3.4c0,1.4,0.3,2.5,0.9,3.4c0.6,0.9,1.5,1.4,2.7,1.4c0.9,0,1.7-0.3,2.3-0.9c0.6-0.6,0.9-1.4,1.1-2.4h2.2
		c-0.3,1.8-0.9,3.1-1.9,4s-2.3,1.3-3.9,1.3c-1.8,0-3.2-0.6-4.3-1.9s-1.6-2.9-1.6-4.9c0-2.4,0.6-4.2,1.7-5.6s2.6-2,4.4-2
		C673.7,145,674.9,145.4,675.9,146.1z"/>
	<path d="M688.3,145.8c0.9,0.5,1.6,1,2.1,1.8c0.5,0.7,0.8,1.5,0.9,2.4c0.1,0.6,0.2,1.6,0.2,3h-9.9c0,1.4,0.4,2.5,1,3.3
		s1.5,1.3,2.8,1.3c1.2,0,2.1-0.4,2.8-1.2c0.4-0.5,0.7-1,0.8-1.6h2.2c-0.1,0.5-0.3,1.1-0.6,1.7c-0.3,0.6-0.7,1.1-1.1,1.5
		c-0.7,0.7-1.5,1.1-2.6,1.4c-0.5,0.1-1.2,0.2-1.9,0.2c-1.7,0-3.1-0.6-4.3-1.8c-1.2-1.2-1.8-3-1.8-5.2c0-2.2,0.6-4,1.8-5.3
		s2.7-2,4.6-2C686.4,145.1,687.4,145.3,688.3,145.8z M689.1,151.1c-0.1-1-0.3-1.8-0.6-2.4c-0.6-1.1-1.7-1.7-3.1-1.7
		c-1,0-1.9,0.4-2.6,1.1s-1.1,1.7-1.1,2.9H689.1z"/>
	<path d="M702.4,146.1v-1.8c1.7-0.2,2.8-0.4,3.5-0.8s1.1-1.3,1.5-2.7h1.8V159h-2.4v-12.9H702.4z"/>
</g>
<g>
	<path d="M599.5,335.3c0.5-0.1,0.9-0.3,1.1-0.7c0.1-0.2,0.2-0.5,0.2-0.9c0-0.8-0.3-1.3-0.8-1.7c-0.6-0.4-1.3-0.5-2.4-0.5
		c-1.2,0-2,0.3-2.5,1c-0.3,0.4-0.5,0.9-0.5,1.6h-2.1c0-1.7,0.6-2.8,1.6-3.5c1-0.7,2.3-1,3.6-1c1.6,0,2.9,0.3,3.9,0.9
		c1,0.6,1.5,1.6,1.5,2.8v7.8c0,0.2,0,0.4,0.1,0.6c0.1,0.1,0.3,0.2,0.6,0.2c0.1,0,0.2,0,0.3,0s0.3,0,0.4-0.1v1.7
		c-0.4,0.1-0.6,0.2-0.8,0.2s-0.4,0-0.8,0c-0.8,0-1.4-0.3-1.7-0.8c-0.2-0.3-0.3-0.7-0.4-1.3c-0.5,0.6-1.1,1.1-2,1.6
		c-0.9,0.4-1.8,0.7-2.9,0.7c-1.3,0-2.3-0.4-3.1-1.1c-0.8-0.8-1.2-1.7-1.2-2.9c0-1.3,0.4-2.2,1.2-2.9c0.8-0.7,1.8-1.1,3.1-1.3
		L599.5,335.3z M594.7,341.5c0.5,0.4,1.1,0.6,1.7,0.6c0.8,0,1.6-0.2,2.3-0.6c1.3-0.6,1.9-1.6,1.9-3v-1.8c-0.3,0.2-0.6,0.3-1.1,0.4
		c-0.4,0.1-0.9,0.2-1.3,0.3l-1.4,0.2c-0.8,0.1-1.5,0.3-1.9,0.5c-0.7,0.4-1.1,1-1.1,1.9C593.9,340.6,594.2,341.1,594.7,341.5z"/>
	<path d="M608.9,330v9c0,0.7,0.1,1.3,0.3,1.7c0.4,0.8,1.1,1.2,2.2,1.2c1.5,0,2.6-0.7,3.2-2.1c0.3-0.8,0.5-1.8,0.5-3.1V330h2.3v13.6
		h-2.2l0-2c-0.3,0.5-0.7,1-1.1,1.3c-0.9,0.7-1.9,1.1-3.1,1.1c-1.9,0-3.2-0.6-3.9-1.9c-0.4-0.7-0.6-1.6-0.6-2.8V330H608.9z"/>
	<path d="M628.6,330.4c0.4,0.3,0.9,0.7,1.4,1.3v-6.9h2.2v18.7h-2.1v-1.9c-0.5,0.8-1.2,1.4-1.9,1.8c-0.7,0.4-1.6,0.6-2.5,0.6
		c-1.5,0-2.8-0.6-3.9-1.9c-1.1-1.3-1.7-3-1.7-5.1c0-2,0.5-3.7,1.5-5.1c1-1.5,2.4-2.2,4.3-2.2C627,329.7,627.9,329.9,628.6,330.4z
		 M623.5,340.6c0.6,1,1.6,1.5,3,1.5c1.1,0,1.9-0.5,2.6-1.4c0.7-0.9,1-2.2,1-3.9c0-1.7-0.3-3-1-3.8c-0.7-0.8-1.6-1.2-2.6-1.2
		c-1.1,0-2.1,0.4-2.8,1.3c-0.7,0.9-1.1,2.2-1.1,3.9C622.6,338.4,622.9,339.6,623.5,340.6z"/>
	<path d="M635.6,324.9h2.3v2.6h-2.3V324.9z M635.6,330h2.3v13.5h-2.3V330z"/>
	<path d="M649.7,330.3c0.9,0.5,1.6,1,2.1,1.8c0.5,0.7,0.8,1.5,0.9,2.4c0.1,0.6,0.2,1.6,0.2,3H643c0,1.4,0.4,2.5,1,3.3
		s1.5,1.3,2.8,1.3c1.2,0,2.1-0.4,2.8-1.2c0.4-0.5,0.7-1,0.8-1.6h2.2c-0.1,0.5-0.3,1.1-0.6,1.7c-0.3,0.6-0.7,1.1-1.1,1.5
		c-0.7,0.7-1.5,1.1-2.6,1.4c-0.5,0.1-1.2,0.2-1.9,0.2c-1.7,0-3.1-0.6-4.3-1.8c-1.2-1.2-1.8-3-1.8-5.2c0-2.2,0.6-4,1.8-5.3
		s2.7-2,4.6-2C647.9,329.7,648.8,329.9,649.7,330.3z M650.6,335.7c-0.1-1-0.3-1.8-0.6-2.4c-0.6-1.1-1.7-1.7-3.1-1.7
		c-1,0-1.9,0.4-2.6,1.1s-1.1,1.7-1.1,2.9H650.6z"/>
	<path d="M655.8,330h2.2v1.9c0.6-0.8,1.3-1.4,2-1.7s1.5-0.5,2.4-0.5c1.9,0,3.2,0.7,3.9,2c0.4,0.7,0.6,1.8,0.6,3.2v8.7h-2.3V335
		c0-0.8-0.1-1.5-0.4-2c-0.4-0.8-1.1-1.3-2.2-1.3c-0.5,0-1,0.1-1.3,0.2c-0.6,0.2-1.2,0.6-1.7,1.1c-0.4,0.4-0.6,0.9-0.7,1.4
		c-0.1,0.5-0.2,1.2-0.2,2.1v7.1h-2.3V330z"/>
	<path d="M679.3,330.7c1,0.7,1.5,2,1.7,3.8h-2.2c-0.1-0.8-0.4-1.5-0.9-2.1s-1.3-0.8-2.3-0.8c-1.5,0-2.5,0.7-3.1,2.1
		c-0.4,0.9-0.6,2.1-0.6,3.4c0,1.4,0.3,2.5,0.9,3.4c0.6,0.9,1.5,1.4,2.7,1.4c0.9,0,1.7-0.3,2.3-0.9c0.6-0.6,0.9-1.4,1.1-2.4h2.2
		c-0.3,1.8-0.9,3.1-1.9,4s-2.3,1.3-3.9,1.3c-1.8,0-3.2-0.6-4.3-1.9s-1.6-2.9-1.6-4.9c0-2.4,0.6-4.2,1.7-5.6s2.6-2,4.4-2
		C677,329.6,678.3,329.9,679.3,330.7z"/>
	<path d="M691.7,330.3c0.9,0.5,1.6,1,2.1,1.8c0.5,0.7,0.8,1.5,0.9,2.4c0.1,0.6,0.2,1.6,0.2,3h-9.9c0,1.4,0.4,2.5,1,3.3
		s1.5,1.3,2.8,1.3c1.2,0,2.1-0.4,2.8-1.2c0.4-0.5,0.7-1,0.8-1.6h2.2c-0.1,0.5-0.3,1.1-0.6,1.7c-0.3,0.6-0.7,1.1-1.1,1.5
		c-0.7,0.7-1.5,1.1-2.6,1.4c-0.5,0.1-1.2,0.2-1.9,0.2c-1.7,0-3.1-0.6-4.3-1.8c-1.2-1.2-1.8-3-1.8-5.2c0-2.2,0.6-4,1.8-5.3
		s2.7-2,4.6-2C689.8,329.7,690.8,329.9,691.7,330.3z M692.5,335.7c-0.1-1-0.3-1.8-0.6-2.4c-0.6-1.1-1.7-1.7-3.1-1.7
		c-1,0-1.9,0.4-2.6,1.1s-1.1,1.7-1.1,2.9H692.5z"/>
	<path d="M705.1,339.5c0.6-1.2,1.7-2.2,3.3-3.2l2.4-1.4c1.1-0.6,1.9-1.2,2.3-1.6c0.7-0.7,1-1.5,1-2.4c0-1.1-0.3-1.9-1-2.5
		c-0.6-0.6-1.5-0.9-2.5-0.9c-1.6,0-2.6,0.6-3.2,1.8c-0.3,0.6-0.5,1.5-0.5,2.6h-2.3c0-1.6,0.3-2.9,0.9-3.9c1-1.8,2.7-2.6,5.2-2.6
		c2.1,0,3.6,0.6,4.6,1.7c1,1.1,1.4,2.4,1.4,3.8c0,1.5-0.5,2.7-1.5,3.7c-0.6,0.6-1.7,1.3-3.2,2.2l-1.7,1c-0.8,0.5-1.5,0.9-2,1.3
		c-0.8,0.7-1.4,1.6-1.6,2.5h9.9v2.2h-12.5C704.2,342,704.5,340.6,705.1,339.5z"/>
</g>
</svg>
