<?xml version="1.0" encoding="utf-8"?>
<!-- Generator: Adobe Illustrator 17.1.0, SVG Export Plug-In . SVG Version: 6.00 Build 0)  -->
<!DOCTYPE svg PUBLIC "-//W3C//DTD SVG 1.1//EN" "http://www.w3.org/Graphics/SVG/1.1/DTD/svg11.dtd">
<svg version="1.1" id="Layer_1" xmlns="http://www.w3.org/2000/svg" xmlns:xlink="http://www.w3.org/1999/xlink" x="0px" y="0px"
	 viewBox="0 0 775 445" style="enable-background:new 0 0 775 445;" xml:space="preserve">
<rect x="196" y="49" style="fill:none;stroke:#000000;stroke-width:6;stroke-miterlimit:10;" width="410" height="367"/>
<line style="fill:none;stroke:#000000;stroke-width:6;stroke-miterlimit:10;" x1="291" y1="48" x2="291" y2="415"/>
<line style="fill:none;stroke:#000000;stroke-width:6;stroke-linecap:round;stroke-miterlimit:10;" x1="227" y1="130" x2="277" y2="130"/>
<line style="fill:none;stroke:#000000;stroke-width:6;stroke-linecap:round;stroke-miterlimit:10;" x1="211" y1="231" x2="277" y2="231"/>
<line style="fill:none;stroke:#000000;stroke-width:6;stroke-linecap:round;stroke-miterlimit:10;" x1="211" y1="208" x2="277" y2="208"/>
<line style="fill:none;stroke:#000000;stroke-width:6;stroke-linecap:round;stroke-miterlimit:10;" x1="211" y1="185" x2="277" y2="185"/>
<line style="fill:none;stroke:#000000;stroke-width:6;stroke-linecap:round;stroke-miterlimit:10;" x1="211" y1="84" x2="277" y2="84"/>
<line style="fill:none;stroke:#000000;stroke-width:6;stroke-linecap:round;stroke-miterlimit:10;" x1="211" y1="107" x2="277" y2="107"/>
<line style="fill:none;stroke:#000000;stroke-width:6;stroke-linecap:round;stroke-miterlimit:10;" x1="227" y1="153" x2="277" y2="153"/>
<line style="fill:none;stroke:#000000;stroke-width:6;stroke-linecap:round;stroke-miterlimit:10;" x1="228" y1="305" x2="277" y2="305"/>
<line style="fill:none;stroke:#000000;stroke-width:6;stroke-linecap:round;stroke-miterlimit:10;" x1="228" y1="282" x2="277" y2="282"/>
<line style="fill:none;stroke:#000000;stroke-width:6;stroke-linecap:round;stroke-miterlimit:10;" x1="211" y1="259" x2="277" y2="259"/>
<g>
	<g>
		<path style="fill:none;stroke:#000000;stroke-width:2;stroke-miterlimit:10;" d="M414,259c-36.7-12.9-72.7-27.7-107.8-44.4"/>
		<g>
			<polygon points="313.2,206.7 293.3,208.4 304.7,224.8 			"/>
		</g>
	</g>
</g>
<g>
	<path d="M438,260.7c0.1,1.1,0.3,1.9,0.7,2.6c0.8,1.2,2.2,1.9,4.3,1.9c0.9,0,1.7-0.1,2.5-0.4c1.5-0.5,2.2-1.5,2.2-2.8
		c0-1-0.3-1.7-0.9-2.2c-0.6-0.4-1.6-0.8-2.9-1.1l-2.4-0.6c-1.6-0.4-2.7-0.8-3.4-1.2c-1.1-0.8-1.7-1.9-1.7-3.5c0-1.7,0.6-3.1,1.7-4.1
		s2.7-1.6,4.8-1.6c1.9,0,3.5,0.5,4.8,1.4s2,2.5,2,4.5h-2.4c-0.1-1-0.4-1.8-0.8-2.3c-0.7-1-2-1.5-3.8-1.5c-1.4,0-2.5,0.3-3.1,0.9
		s-0.9,1.4-0.9,2.2c0,0.9,0.4,1.6,1.1,2c0.5,0.3,1.6,0.6,3.3,1l2.5,0.6c1.2,0.3,2.2,0.7,2.8,1.2c1.1,0.9,1.7,2.1,1.7,3.8
		c0,2.1-0.7,3.5-2.2,4.4c-1.5,0.9-3.2,1.3-5.1,1.3c-2.3,0-4-0.6-5.3-1.8c-1.3-1.2-1.9-2.8-1.9-4.8H438z"/>
	<path d="M453.4,248.1h2.3v2.6h-2.3V248.1z M453.4,253.2h2.3v13.5h-2.3V253.2z"/>
	<path d="M466.7,253.6c0.4,0.3,0.9,0.7,1.4,1.3V248h2.2v18.7h-2.1v-1.9c-0.5,0.8-1.2,1.4-1.9,1.8c-0.7,0.4-1.6,0.6-2.5,0.6
		c-1.5,0-2.8-0.6-3.9-1.9s-1.7-3-1.7-5.1c0-2,0.5-3.7,1.5-5.1c1-1.5,2.4-2.2,4.3-2.2C465.1,252.9,466,253.1,466.7,253.6z
		 M461.6,263.8c0.6,1,1.6,1.5,3,1.5c1.1,0,1.9-0.5,2.6-1.4c0.7-0.9,1-2.2,1-3.9c0-1.7-0.3-3-1-3.8c-0.7-0.8-1.6-1.2-2.6-1.2
		c-1.1,0-2.1,0.4-2.8,1.3c-0.7,0.9-1.1,2.2-1.1,3.9C460.6,261.6,461,262.8,461.6,263.8z"/>
	<path d="M482.1,253.5c0.9,0.5,1.6,1,2.1,1.8c0.5,0.7,0.8,1.5,0.9,2.4c0.1,0.6,0.2,1.6,0.2,3h-9.9c0,1.4,0.4,2.5,1,3.3
		c0.6,0.8,1.5,1.3,2.8,1.3c1.2,0,2.1-0.4,2.8-1.2c0.4-0.5,0.7-1,0.8-1.6h2.2c-0.1,0.5-0.3,1.1-0.6,1.7s-0.7,1.1-1.1,1.5
		c-0.7,0.7-1.5,1.1-2.6,1.4c-0.5,0.1-1.2,0.2-1.9,0.2c-1.7,0-3.1-0.6-4.3-1.8c-1.2-1.2-1.8-3-1.8-5.2c0-2.2,0.6-4,1.8-5.3
		c1.2-1.4,2.7-2,4.6-2C480.2,252.8,481.2,253.1,482.1,253.5z M482.9,258.9c-0.1-1-0.3-1.8-0.6-2.4c-0.6-1.1-1.7-1.7-3.1-1.7
		c-1,0-1.9,0.4-2.6,1.1c-0.7,0.8-1.1,1.7-1.1,2.9H482.9z"/>
	<path d="M487.9,248h2.2v6.8c0.5-0.7,1.1-1.1,1.8-1.5s1.5-0.5,2.3-0.5c1.7,0,3.1,0.6,4.1,1.7c1.1,1.2,1.6,2.9,1.6,5.1
		c0,2.1-0.5,3.9-1.6,5.4c-1,1.4-2.5,2.1-4.3,2.1c-1,0-1.9-0.2-2.6-0.7c-0.4-0.3-0.9-0.8-1.4-1.4v1.7h-2.1V248z M496.7,263.7
		c0.6-1,0.9-2.3,0.9-3.9c0-1.4-0.3-2.6-0.9-3.6c-0.6-0.9-1.5-1.4-2.7-1.4c-1,0-2,0.4-2.7,1.2s-1.2,2-1.2,3.8c0,1.3,0.2,2.3,0.5,3.1
		c0.6,1.5,1.7,2.2,3.4,2.2C495.1,265.2,496.1,264.7,496.7,263.7z"/>
	<path d="M509.9,258.5c0.5-0.1,0.9-0.3,1.1-0.7c0.1-0.2,0.2-0.5,0.2-0.9c0-0.8-0.3-1.3-0.8-1.7s-1.3-0.5-2.4-0.5c-1.2,0-2,0.3-2.5,1
		c-0.3,0.4-0.5,0.9-0.5,1.6h-2.1c0-1.7,0.6-2.8,1.6-3.5s2.3-1,3.6-1c1.6,0,2.9,0.3,3.9,0.9c1,0.6,1.5,1.6,1.5,2.8v7.8
		c0,0.2,0,0.4,0.1,0.6s0.3,0.2,0.6,0.2c0.1,0,0.2,0,0.3,0s0.3,0,0.4-0.1v1.7c-0.4,0.1-0.6,0.2-0.8,0.2s-0.4,0-0.8,0
		c-0.8,0-1.4-0.3-1.7-0.8c-0.2-0.3-0.3-0.7-0.4-1.3c-0.5,0.6-1.1,1.1-2,1.6c-0.9,0.4-1.8,0.7-2.9,0.7c-1.3,0-2.3-0.4-3.1-1.1
		c-0.8-0.8-1.2-1.7-1.2-2.9c0-1.3,0.4-2.2,1.2-2.9c0.8-0.7,1.8-1.1,3.1-1.3L509.9,258.5z M505.1,264.7c0.5,0.4,1.1,0.6,1.7,0.6
		c0.8,0,1.6-0.2,2.3-0.6c1.3-0.6,1.9-1.6,1.9-3v-1.8c-0.3,0.2-0.6,0.3-1.1,0.4c-0.4,0.1-0.9,0.2-1.3,0.3l-1.4,0.2
		c-0.8,0.1-1.5,0.3-1.9,0.5c-0.7,0.4-1.1,1-1.1,1.9C504.3,263.8,504.6,264.3,505.1,264.7z"/>
	<path d="M517.1,253.1h2.2v2.3c0.2-0.5,0.6-1,1.3-1.7s1.5-1,2.4-1c0,0,0.1,0,0.2,0s0.3,0,0.5,0.1v2.4c-0.1,0-0.3,0-0.4-0.1
		s-0.2,0-0.4,0c-1.2,0-2,0.4-2.7,1.1s-0.9,1.6-0.9,2.6v7.8h-2.3V253.1z"/>
	<path d="M385.5,284.3h2.2v1.9c0.6-0.8,1.3-1.4,2-1.7s1.5-0.5,2.4-0.5c1.9,0,3.2,0.7,3.9,2c0.4,0.7,0.6,1.8,0.6,3.2v8.7h-2.3v-8.6
		c0-0.8-0.1-1.5-0.4-2c-0.4-0.8-1.1-1.3-2.2-1.3c-0.5,0-1,0.1-1.3,0.2c-0.6,0.2-1.2,0.6-1.7,1.1c-0.4,0.4-0.6,0.9-0.7,1.4
		s-0.2,1.2-0.2,2.1v7.1h-2.3V284.3z"/>
	<path d="M407.2,289.7c0.5-0.1,0.9-0.3,1.1-0.7c0.1-0.2,0.2-0.5,0.2-0.9c0-0.8-0.3-1.3-0.8-1.7s-1.3-0.5-2.4-0.5c-1.2,0-2,0.3-2.5,1
		c-0.3,0.4-0.5,0.9-0.5,1.6H400c0-1.7,0.6-2.8,1.6-3.5s2.3-1,3.6-1c1.6,0,2.9,0.3,3.9,0.9c1,0.6,1.5,1.6,1.5,2.8v7.8
		c0,0.2,0,0.4,0.1,0.6s0.3,0.2,0.6,0.2c0.1,0,0.2,0,0.3,0s0.3,0,0.4-0.1v1.7c-0.4,0.1-0.6,0.2-0.8,0.2s-0.4,0-0.8,0
		c-0.8,0-1.4-0.3-1.7-0.8c-0.2-0.3-0.3-0.7-0.4-1.3c-0.5,0.6-1.1,1.1-2,1.6c-0.9,0.4-1.8,0.7-2.9,0.7c-1.3,0-2.3-0.4-3.1-1.1
		c-0.8-0.8-1.2-1.7-1.2-2.9c0-1.3,0.4-2.2,1.2-2.9c0.8-0.7,1.8-1.1,3.1-1.3L407.2,289.7z M402.4,295.9c0.5,0.4,1.1,0.6,1.7,0.6
		c0.8,0,1.6-0.2,2.3-0.6c1.3-0.6,1.9-1.6,1.9-3V291c-0.3,0.2-0.6,0.3-1.1,0.4c-0.4,0.1-0.9,0.2-1.3,0.3l-1.4,0.2
		c-0.8,0.1-1.5,0.3-1.9,0.5c-0.7,0.4-1.1,1-1.1,1.9C401.7,295,401.9,295.5,402.4,295.9z"/>
	<path d="M415.5,284.3l3.6,11.1l3.8-11.1h2.5l-5.1,13.6h-2.4l-5-13.6H415.5z"/>
	<path d="M427.4,279.3h2.3v2.6h-2.3V279.3z M427.4,284.4h2.3v13.5h-2.3V284.4z"/>
	<path d="M440.7,284.9c0.4,0.3,0.9,0.7,1.3,1.3v-1.7h2.1v12.4c0,1.7-0.3,3.1-0.8,4.1c-0.9,1.8-2.7,2.8-5.4,2.8c-1.5,0-2.7-0.3-3.7-1
		c-1-0.7-1.6-1.7-1.7-3.1h2.3c0.1,0.6,0.3,1.1,0.7,1.4c0.5,0.5,1.3,0.8,2.4,0.8c1.7,0,2.9-0.6,3.4-1.9c0.3-0.7,0.5-2,0.4-3.9
		c-0.5,0.7-1,1.2-1.6,1.5c-0.6,0.3-1.5,0.5-2.5,0.5c-1.5,0-2.8-0.5-3.9-1.6s-1.7-2.8-1.7-5.2c0-2.3,0.6-4.1,1.7-5.3
		c1.1-1.3,2.4-1.9,4-1.9C439,284.1,440,284.4,440.7,284.9z M441,287.3c-0.7-0.8-1.6-1.2-2.6-1.2c-1.6,0-2.7,0.8-3.3,2.3
		c-0.3,0.8-0.5,1.9-0.5,3.2c0,1.5,0.3,2.7,0.9,3.5c0.6,0.8,1.5,1.2,2.5,1.2c1.6,0,2.8-0.7,3.4-2.2c0.4-0.8,0.6-1.8,0.6-2.9
		C442.1,289.4,441.7,288.2,441,287.3z"/>
	<path d="M454.9,289.7c0.5-0.1,0.9-0.3,1.1-0.7c0.1-0.2,0.2-0.5,0.2-0.9c0-0.8-0.3-1.3-0.8-1.7s-1.3-0.5-2.4-0.5c-1.2,0-2,0.3-2.5,1
		c-0.3,0.4-0.5,0.9-0.5,1.6h-2.1c0-1.7,0.6-2.8,1.6-3.5s2.3-1,3.6-1c1.6,0,2.9,0.3,3.9,0.9c1,0.6,1.5,1.6,1.5,2.8v7.8
		c0,0.2,0,0.4,0.1,0.6s0.3,0.2,0.6,0.2c0.1,0,0.2,0,0.3,0s0.3,0,0.4-0.1v1.7c-0.4,0.1-0.6,0.2-0.8,0.2s-0.4,0-0.8,0
		c-0.8,0-1.4-0.3-1.7-0.8c-0.2-0.3-0.3-0.7-0.4-1.3c-0.5,0.6-1.1,1.1-2,1.6c-0.9,0.4-1.8,0.7-2.9,0.7c-1.3,0-2.3-0.4-3.1-1.1
		c-0.8-0.8-1.2-1.7-1.2-2.9c0-1.3,0.4-2.2,1.2-2.9c0.8-0.7,1.8-1.1,3.1-1.3L454.9,289.7z M450.1,295.9c0.5,0.4,1.1,0.6,1.7,0.6
		c0.8,0,1.6-0.2,2.3-0.6c1.3-0.6,1.9-1.6,1.9-3V291c-0.3,0.2-0.6,0.3-1.1,0.4c-0.4,0.1-0.9,0.2-1.3,0.3l-1.4,0.2
		c-0.8,0.1-1.5,0.3-1.9,0.5c-0.7,0.4-1.1,1-1.1,1.9C449.4,295,449.6,295.5,450.1,295.9z"/>
	<path d="M462.6,280.5h2.3v3.8h2.2v1.9h-2.2v8.9c0,0.5,0.2,0.8,0.5,1c0.2,0.1,0.5,0.1,0.9,0.1c0.1,0,0.2,0,0.4,0s0.3,0,0.4,0v1.8
		c-0.3,0.1-0.5,0.1-0.8,0.2s-0.6,0.1-0.9,0.1c-1.1,0-1.8-0.3-2.2-0.8s-0.6-1.3-0.6-2.1v-9h-1.8v-1.9h1.8V280.5z"/>
	<path d="M469.3,279.3h2.3v2.6h-2.3V279.3z M469.3,284.4h2.3v13.5h-2.3V284.4z"/>
	<path d="M485,285.7c1.2,1.2,1.8,2.9,1.8,5.1c0,2.2-0.5,4-1.6,5.4c-1.1,1.4-2.7,2.1-4.9,2.1c-1.9,0-3.3-0.6-4.4-1.9s-1.6-3-1.6-5.1
		c0-2.3,0.6-4.1,1.7-5.5c1.2-1.4,2.7-2,4.6-2C482.3,284,483.8,284.5,485,285.7z M483.5,294.7c0.6-1.1,0.8-2.4,0.8-3.8
		c0-1.3-0.2-2.3-0.6-3.1c-0.6-1.3-1.7-1.9-3.3-1.9c-1.4,0-2.4,0.5-3,1.6c-0.6,1.1-0.9,2.4-0.9,3.9c0,1.4,0.3,2.6,0.9,3.6
		c0.6,1,1.6,1.4,3,1.4C482,296.5,483,295.9,483.5,294.7z"/>
	<path d="M489.6,284.3h2.2v1.9c0.6-0.8,1.3-1.4,2-1.7s1.5-0.5,2.4-0.5c1.9,0,3.2,0.7,3.9,2c0.4,0.7,0.6,1.8,0.6,3.2v8.7h-2.3v-8.6
		c0-0.8-0.1-1.5-0.4-2c-0.4-0.8-1.1-1.3-2.2-1.3c-0.5,0-1,0.1-1.3,0.2c-0.6,0.2-1.2,0.6-1.7,1.1c-0.4,0.4-0.6,0.9-0.7,1.4
		s-0.2,1.2-0.2,2.1v7.1h-2.3V284.3z"/>
	<path d="M511.2,284.3h2.3v1.9c0.5-0.7,1-1.2,1.5-1.5c0.8-0.5,1.6-0.8,2.6-0.8c1.1,0,2,0.3,2.6,0.8c0.4,0.3,0.7,0.8,1,1.3
		c0.5-0.7,1.1-1.3,1.8-1.6s1.5-0.5,2.3-0.5c1.8,0,3.1,0.7,3.7,2c0.4,0.7,0.5,1.7,0.5,2.9v9.1h-2.4v-9.4c0-0.9-0.2-1.5-0.7-1.9
		s-1-0.5-1.7-0.5c-0.9,0-1.7,0.3-2.3,0.9s-1,1.6-1,3v7.9h-2.3v-8.9c0-0.9-0.1-1.6-0.3-2c-0.3-0.6-1-1-1.9-1c-0.9,0-1.6,0.3-2.4,1
		s-1.1,1.9-1.1,3.6v7.2h-2.3V284.3z"/>
	<path d="M541.3,284.7c0.9,0.5,1.6,1,2.1,1.8c0.5,0.7,0.8,1.5,0.9,2.4c0.1,0.6,0.2,1.6,0.2,3h-9.9c0,1.4,0.4,2.5,1,3.3
		c0.6,0.8,1.5,1.3,2.8,1.3c1.2,0,2.1-0.4,2.8-1.2c0.4-0.5,0.7-1,0.8-1.6h2.2c-0.1,0.5-0.3,1.1-0.6,1.7s-0.7,1.1-1.1,1.5
		c-0.7,0.7-1.5,1.1-2.6,1.4c-0.5,0.1-1.2,0.2-1.9,0.2c-1.7,0-3.1-0.6-4.3-1.8c-1.2-1.2-1.8-3-1.8-5.2c0-2.2,0.6-4,1.8-5.3
		c1.2-1.4,2.7-2,4.6-2C539.5,284,540.4,284.3,541.3,284.7z M542.1,290.1c-0.1-1-0.3-1.8-0.6-2.4c-0.6-1.1-1.7-1.7-3.1-1.7
		c-1,0-1.9,0.4-2.6,1.1c-0.7,0.8-1.1,1.7-1.1,2.9H542.1z"/>
	<path d="M547.4,284.3h2.2v1.9c0.6-0.8,1.3-1.4,2-1.7s1.5-0.5,2.4-0.5c1.9,0,3.2,0.7,3.9,2c0.4,0.7,0.6,1.8,0.6,3.2v8.7h-2.3v-8.6
		c0-0.8-0.1-1.5-0.4-2c-0.4-0.8-1.1-1.3-2.2-1.3c-0.5,0-1,0.1-1.3,0.2c-0.6,0.2-1.2,0.6-1.7,1.1c-0.4,0.4-0.6,0.9-0.7,1.4
		s-0.2,1.2-0.2,2.1v7.1h-2.3V284.3z"/>
	<path d="M564.1,284.3v9c0,0.7,0.1,1.3,0.3,1.7c0.4,0.8,1.1,1.2,2.2,1.2c1.5,0,2.6-0.7,3.2-2.1c0.3-0.8,0.5-1.8,0.5-3.1v-6.7h2.3
		v13.6h-2.2l0-2c-0.3,0.5-0.7,1-1.1,1.3c-0.9,0.7-1.9,1.1-3.1,1.1c-1.9,0-3.2-0.6-3.9-1.9c-0.4-0.7-0.6-1.6-0.6-2.8v-9.2H564.1z"/>
</g>
</svg>
