<?xml version="1.0" encoding="utf-8"?>
<!-- Generator: Adobe Illustrator 17.1.0, SVG Export Plug-In . SVG Version: 6.00 Build 0)  -->
<!DOCTYPE svg PUBLIC "-//W3C//DTD SVG 1.1//EN" "http://www.w3.org/Graphics/SVG/1.1/DTD/svg11.dtd">
<svg version="1.1" id="Layer_1" xmlns="http://www.w3.org/2000/svg" xmlns:xlink="http://www.w3.org/1999/xlink" x="0px" y="0px"
	 viewBox="0 0 1268 630" style="enable-background:new 0 0 1268 630;" xml:space="preserve">
<g>
	<path style="fill:#8FA2EF;" d="M145.3,152.3c1,0.1,2.7,0,4.1-0.7c1.9-1,2.4-2.4,1.8-3.6c-0.6-1.3-1.7-1.6-4.1-1.3
		c-3.1,0.4-5.1-0.5-6-2.2c-1.2-2.4-0.2-5.3,2.9-6.8c1.5-0.7,3-1,4.1-0.9l0.3,2.3c-0.8-0.1-2.1,0-3.4,0.6c-1.6,0.8-2,2.1-1.5,3.2
		c0.6,1.2,1.8,1.3,4,1.1c3-0.3,5,0.3,6.1,2.5c1.3,2.6,0.2,5.4-3.3,7.2c-1.6,0.8-3.3,1.1-4.6,1.1L145.3,152.3z"/>
	<path style="fill:#8FA2EF;" d="M168.7,134.8c2.7,5.5,0.1,9.7-3.5,11.5c-4,2-8.5,0.6-10.8-4.1c-2.4-4.9-0.7-9.4,3.4-11.5
		C162.1,128.6,166.5,130.3,168.7,134.8z M157.1,140.7c1.6,3.2,4.7,4.7,7.3,3.4c2.6-1.3,3.3-4.6,1.6-7.9c-1.2-2.5-4.1-5-7.2-3.5
		C155.6,134.3,155.7,137.9,157.1,140.7z"/>
	<path style="fill:#8FA2EF;" d="M165.1,119l2.7-1.3l10.7,21.6l-2.7,1.3L165.1,119z"/>
	<path style="fill:#8FA2EF;" d="M193.3,126.9c0.8,1.5,1.5,2.8,2.1,4l-2.4,1.2l-1.3-2.3l-0.1,0c-0.1,1.5-0.9,3.9-3.5,5.2
		c-2.3,1.1-5.7,1.2-8.3-3.9l-4.3-8.6l2.7-1.3l4.1,8.2c1.4,2.8,3.2,4.3,5.6,3.1c1.8-0.9,2.4-2.8,2.3-4.2c0-0.5-0.2-1-0.4-1.5l-4.5-9
		l2.7-1.3L193.3,126.9z"/>
	<path style="fill:#8FA2EF;" d="M193.6,108.1l2.1,4.2l3.8-1.9l1,2l-3.8,1.9l3.9,7.9c0.9,1.8,1.9,2.6,3.4,1.9c0.7-0.3,1.2-0.7,1.5-1
		l1.1,1.9c-0.4,0.5-1.2,1-2.2,1.5c-1.2,0.6-2.4,0.7-3.5,0.3c-1.2-0.4-2.1-1.6-2.9-3.3l-4-8l-2.3,1.1l-1-2l2.3-1.1l-1.8-3.5
		L193.6,108.1z"/>
	<path style="fill:#8FA2EF;" d="M203.5,103.3c0.5,0.9,0.2,2-0.9,2.5c-0.9,0.5-2,0.1-2.4-0.8c-0.5-0.9-0.1-2,0.8-2.5
		C202,102,203,102.4,203.5,103.3z M209.8,123.7l-7.3-14.7l2.7-1.3l7.3,14.7L209.8,123.7z"/>
	<path style="fill:#8FA2EF;" d="M226.6,106c2.7,5.5,0.1,9.7-3.5,11.5c-4,2-8.5,0.6-10.8-4.1c-2.4-4.9-0.7-9.4,3.4-11.5
		C220,99.9,224.4,101.5,226.6,106z M215,112c1.6,3.2,4.7,4.7,7.3,3.4c2.6-1.3,3.3-4.6,1.6-7.9c-1.2-2.5-4.1-5-7.2-3.5
		C213.5,105.6,213.6,109.2,215,112z"/>
	<path style="fill:#8FA2EF;" d="M228.4,101.1c-0.8-1.5-1.4-2.8-2.1-3.9l2.4-1.2l1.4,2.4l0.1,0c0-1.8,1.1-4,3.5-5.2
		c2-1,5.8-1.4,8.3,3.7l4.4,8.8l-2.7,1.3l-4.2-8.5c-1.2-2.4-3-3.9-5.6-2.7c-1.8,0.9-2.5,2.8-2.2,4.5c0,0.4,0.2,0.9,0.4,1.3l4.4,8.9
		l-2.7,1.3L228.4,101.1z"/>
</g>
</svg>
