<?xml version="1.0" encoding="utf-8"?>
<!-- Generator: Adobe Illustrator 17.1.0, SVG Export Plug-In . SVG Version: 6.00 Build 0)  -->
<!DOCTYPE svg PUBLIC "-//W3C//DTD SVG 1.1//EN" "http://www.w3.org/Graphics/SVG/1.1/DTD/svg11.dtd">
<svg version="1.1" id="Layer_1" xmlns="http://www.w3.org/2000/svg" xmlns:xlink="http://www.w3.org/1999/xlink" x="0px" y="0px"
	 viewBox="0 0 775 445" style="enable-background:new 0 0 775 445;" xml:space="preserve">
<rect x="82.6" y="95.6" width="4.5" height="3.4"/>
<rect x="141" y="95.6" width="14.6" height="3.4"/>
<rect x="82.6" y="83.2" width="4.5" height="3.4"/>
<rect x="141" y="83.2" width="14.6" height="3.4"/>
<rect x="82.6" y="70.9" width="4.5" height="3.4"/>
<rect x="141" y="70.9" width="14.6" height="3.4"/>
<rect x="82.6" y="107.9" width="4.5" height="3.4"/>
<rect x="141" y="107.9" width="14.6" height="3.4"/>
<rect x="82.6" y="120.3" width="4.5" height="3.4"/>
<rect x="141" y="120.3" width="14.6" height="3.4"/>
<rect x="82.6" y="132.6" width="4.5" height="3.4"/>
<rect x="141" y="132.6" width="14.6" height="3.4"/>
<rect x="82.6" y="145" width="4.5" height="3.4"/>
<rect x="141" y="145" width="14.6" height="3.4"/>
<rect x="80.3" y="155.1" width="3.4" height="2.2"/>
<rect x="155.6" y="155.1" width="2.2" height="2.2"/>
<rect x="152.2" y="155.1" width="2.2" height="2.2"/>
<rect x="148.9" y="155.1" width="2.2" height="2.2"/>
<path d="M159,77.6H79.2V67.5H159L159,77.6L159,77.6z M159,89.9H79.2V79.8H159L159,89.9L159,89.9z M159,102.3H79.2V92.2H159
	L159,102.3L159,102.3z M159,114.7H79.2v-10.1H159L159,114.7L159,114.7z M159,127H79.2v-10.1H159L159,127L159,127z M159,139.4H79.2
	v-10.1H159L159,139.4L159,139.4z M159,151.7H79.2v-10.1H159L159,151.7L159,151.7z M159,161.8h-13.5V154H159L159,161.8L159,161.8z
	 M141,161.8V154h2.2v7.9L141,161.8L141,161.8z M136.5,161.8V154h2.2v7.9L136.5,161.8L136.5,161.8z M132,161.8V154h2.2v7.9L132,161.8
	L132,161.8z M127.5,161.8V154h2.2v7.9L127.5,161.8L127.5,161.8z M123,161.8V154h2.2v7.9L123,161.8L123,161.8z M118.5,161.8V154h2.2
	v7.9L118.5,161.8L118.5,161.8z M114,161.8V154h2.2v7.9L114,161.8L114,161.8z M109.6,161.8V154h2.2v7.9L109.6,161.8L109.6,161.8z
	 M105.1,161.8V154h2.2v7.9L105.1,161.8L105.1,161.8z M100.6,161.8V154h2.2v7.9L100.6,161.8L100.6,161.8z M96.1,161.8V154h2.2v7.9
	L96.1,161.8L96.1,161.8z M91.6,161.8V154h2.2v7.9L91.6,161.8L91.6,161.8z M79.2,161.8V154h10.1v7.9L79.2,161.8L79.2,161.8z M77,84.3
	h-4.5v-9c0-1.2,1-2.2,2.2-2.2H77V84.3L77,84.3z M77,96.7h-4.5V86.6H77V96.7L77,96.7z M77,102.3v6.7h-4.5V98.9H77V102.3L77,102.3z
	 M77,120.3h-4.5v-9H77V120.3L77,120.3z M77,134.9h-4.5v-12.4H77V134.9L77,134.9z M77,146.1h-4.5v-9H77V146.1L77,146.1z M77,156.2
	h-2.2c-1.2,0-2.2-1-2.2-2.2v-5.6H77V156.2L77,156.2z M70.2,115.8V154c0,2.5,2,4.5,4.5,4.5H77v5.6h84.2V65.2H77v5.6h-2.2
	c-2.5,0-4.5,2-4.5,4.5v38.2v-5.6"/>
<path d="M431.5,118.4c0,0.7-0.6,1.2-1.2,1.2h-18.1c-0.7,0-1.2-0.6-1.2-1.2v-2.6c0-0.7,0.6-1.3,1.2-1.3h18c0.7,0,1.2,0.6,1.2,1.3v2.6
	H431.5z M385.4,118.4c0,0.7-0.6,1.2-1.2,1.2h-2.6c-0.7,0-1.2-0.6-1.2-1.2v-2.6c0-0.7,0.6-1.3,1.2-1.3h2.6c0.7,0,1.2,0.6,1.2,1.3
	V118.4z M375.2,118.4c0,0.7-0.6,1.2-1.2,1.2h-2.6c-0.7,0-1.2-0.6-1.2-1.2v-2.6c0-0.7,0.6-1.3,1.2-1.3h2.6c0.7,0,1.2,0.6,1.2,1.3
	V118.4z M441.7,104.1h-82.5c-2.7,0-4.8,2.1-4.8,4.8v15.9c0,2.7,2.1,4.8,4.8,4.8h82.4c2.7,0,4.8-2.1,4.8-4.8v-15.9
	C446.4,106.2,444.2,104.1,441.7,104.1z"/>
<path d="M431.5,149.6c0,0.7-0.6,1.2-1.2,1.2h-18.1c-0.7,0-1.2-0.6-1.2-1.2V147c0-0.7,0.6-1.3,1.2-1.3h18c0.7,0,1.2,0.6,1.2,1.3v2.6
	H431.5z M385.4,149.6c0,0.7-0.6,1.2-1.2,1.2h-2.6c-0.7,0-1.2-0.6-1.2-1.2V147c0-0.7,0.6-1.3,1.2-1.3h2.6c0.7,0,1.2,0.6,1.2,1.3
	V149.6z M375.2,149.6c0,0.7-0.6,1.2-1.2,1.2h-2.6c-0.7,0-1.2-0.6-1.2-1.2V147c0-0.7,0.6-1.3,1.2-1.3h2.6c0.7,0,1.2,0.6,1.2,1.3
	V149.6z M441.7,135.2h-82.5c-2.7,0-4.8,2.1-4.8,4.8V156c0,2.7,2.1,4.8,4.8,4.8h82.4c2.7,0,4.8-2.1,4.8-4.8V140
	C446.4,137.4,444.2,135.2,441.7,135.2z"/>
<path d="M431.5,87.2c0,0.7-0.6,1.2-1.2,1.2h-18.1c-0.7,0-1.2-0.6-1.2-1.2v-2.6c0-0.7,0.6-1.3,1.2-1.3h18c0.7,0,1.2,0.6,1.2,1.3v2.6
	H431.5z M385.4,87.2c0,0.7-0.6,1.2-1.2,1.2h-2.6c-0.7,0-1.2-0.6-1.2-1.2v-2.6c0-0.7,0.6-1.3,1.2-1.3h2.6c0.7,0,1.2,0.6,1.2,1.3V87.2
	z M375.2,87.2c0,0.7-0.6,1.2-1.2,1.2h-2.6c-0.7,0-1.2-0.6-1.2-1.2v-2.6c0-0.7,0.6-1.3,1.2-1.3h2.6c0.7,0,1.2,0.6,1.2,1.3V87.2z
	 M441.7,72.9h-82.5c-2.7,0-4.8,2.1-4.8,4.8v15.9c0,2.7,2.1,4.8,4.8,4.8h82.4c2.7,0,4.8-2.1,4.8-4.8V77.7
	C446.4,75,444.2,72.9,441.7,72.9z"/>
<path d="M685.1,116.5h-16.8c-1.4,0-2.4-0.9-2.4-2.3c0-1.4,1-2.3,2.4-2.3h16.8c1.4,0,2.4,0.9,2.4,2.3
	C687.4,115.6,686.3,116.5,685.1,116.5z M711.6,111.6c0-2.3-1.9-4.2-4.2-4.2h-41.6c-2.3,0-4.2,1.9-4.2,4.2v5.2c0,2.3,1.9,4.2,4.2,4.2
	h41.6c2.3,0,4.2-1.9,4.2-4.2V111.6z"/>
<path d="M685.1,134.6h-16.8c-1.4,0-2.4-0.9-2.4-2.3c0-1.4,1-2.3,2.4-2.3h16.8c1.4,0,2.4,0.9,2.4,2.3
	C687.4,133.7,686.3,134.6,685.1,134.6z M711.6,129.8c0-2.3-1.9-4.2-4.2-4.2h-41.6c-2.3,0-4.2,1.9-4.2,4.2v5.2c0,2.3,1.9,4.2,4.2,4.2
	h41.6c2.3,0,4.2-1.9,4.2-4.2V129.8z"/>
<path d="M685.1,152.8h-16.8c-1.4,0-2.4-0.9-2.4-2.3s1-2.3,2.4-2.3h16.8c1.4,0,2.4,0.9,2.4,2.3S686.3,152.8,685.1,152.8z
	 M711.6,147.9c0-2.3-1.9-4.2-4.2-4.2h-41.6c-2.3,0-4.2,1.9-4.2,4.2v5.2c0,2.3,1.9,4.2,4.2,4.2h41.6c2.3,0,4.2-1.9,4.2-4.2V147.9z"/>
<path d="M656,109.6c0-4,3.5-6.7,7.5-6.7h34.8c-1.3-1.1-2.7-2.3-4.3-2.8l-0.5-2.2c-0.9-3.6-3.3-6.6-6.7-8.2s-7.2-1.5-10.5,0.1
	l-0.6,0.2l-2.8-3.6c-5.8-7.3-14.9-10.2-23.7-7.7c-9.1,2.6-15.3,9.8-16.6,19l-0.5,3.4l-3.1,1.7c-7.3,3.9-10.7,11.6-8.6,19.7
	c2,7.9,8.6,13.4,16.8,13.4H656V109.6z"/>
<g>
	<path d="M49.5,184.4c1.3,1.2,2,2.7,2.1,4.2h-2.5c-0.3-1.2-0.8-2.2-1.6-2.9s-2-1.1-3.4-1.1c-1.8,0-3.3,0.6-4.4,1.9
		c-1.1,1.3-1.7,3.3-1.7,5.9c0,2.2,0.5,4,1.5,5.3c1,1.4,2.5,2,4.5,2c1.8,0,3.2-0.7,4.2-2.1c0.5-0.8,0.9-1.7,1.1-3h2.5
		c-0.2,2-0.9,3.6-2.2,4.9c-1.5,1.6-3.4,2.4-5.9,2.4c-2.1,0-3.9-0.7-5.4-2c-1.9-1.7-2.9-4.4-2.9-8c0-2.8,0.7-5,2.2-6.8
		c1.6-1.9,3.7-2.9,6.4-2.9C46.4,182.5,48.2,183.2,49.5,184.4z"/>
	<path d="M64.6,189.5c1.2,1.2,1.8,2.9,1.8,5.1c0,2.2-0.5,4-1.6,5.4c-1.1,1.4-2.7,2.1-4.9,2.1c-1.9,0-3.3-0.6-4.4-1.9s-1.6-3-1.6-5.1
		c0-2.3,0.6-4.1,1.7-5.5c1.2-1.4,2.7-2,4.6-2C61.9,187.7,63.4,188.3,64.6,189.5z M63.2,198.5c0.6-1.1,0.8-2.4,0.8-3.8
		c0-1.3-0.2-2.3-0.6-3.1c-0.6-1.3-1.7-1.9-3.3-1.9c-1.4,0-2.4,0.5-3,1.6c-0.6,1.1-0.9,2.4-0.9,3.9c0,1.4,0.3,2.6,0.9,3.6
		c0.6,1,1.6,1.4,3,1.4C61.6,200.2,62.6,199.6,63.2,198.5z"/>
	<path d="M69.2,188.1h2.2v1.9c0.6-0.8,1.3-1.4,2-1.7s1.5-0.5,2.4-0.5c1.9,0,3.2,0.7,3.9,2c0.4,0.7,0.6,1.8,0.6,3.2v8.7H78v-8.6
		c0-0.8-0.1-1.5-0.4-2c-0.4-0.8-1.1-1.3-2.2-1.3c-0.5,0-1,0.1-1.3,0.2c-0.6,0.2-1.2,0.6-1.7,1.1c-0.4,0.4-0.6,0.9-0.7,1.4
		s-0.2,1.2-0.2,2.1v7.1h-2.3V188.1z"/>
	<path d="M84.1,184.3h2.3v3.8h2.2v1.9h-2.2v8.9c0,0.5,0.2,0.8,0.5,1c0.2,0.1,0.5,0.1,0.9,0.1c0.1,0,0.2,0,0.4,0s0.3,0,0.4,0v1.8
		c-0.3,0.1-0.5,0.1-0.8,0.2s-0.6,0.1-0.9,0.1c-1.1,0-1.8-0.3-2.2-0.8s-0.6-1.3-0.6-2.1v-9h-1.8v-1.9h1.8V184.3z"/>
	<path d="M99.3,188.5c0.9,0.5,1.6,1,2.1,1.8c0.5,0.7,0.8,1.5,0.9,2.4c0.1,0.6,0.2,1.6,0.2,3h-9.9c0,1.4,0.4,2.5,1,3.3
		c0.6,0.8,1.5,1.3,2.8,1.3c1.2,0,2.1-0.4,2.8-1.2c0.4-0.5,0.7-1,0.8-1.6h2.2c-0.1,0.5-0.3,1.1-0.6,1.7s-0.7,1.1-1.1,1.5
		c-0.7,0.7-1.5,1.1-2.6,1.4c-0.5,0.1-1.2,0.2-1.9,0.2c-1.7,0-3.1-0.6-4.3-1.8c-1.2-1.2-1.8-3-1.8-5.2c0-2.2,0.6-4,1.8-5.3
		c1.2-1.4,2.7-2,4.6-2C97.5,187.8,98.4,188,99.3,188.5z M100.1,193.8c-0.1-1-0.3-1.8-0.6-2.4c-0.6-1.1-1.7-1.7-3.1-1.7
		c-1,0-1.9,0.4-2.6,1.1c-0.7,0.8-1.1,1.7-1.1,2.9H100.1z"/>
	<path d="M105.3,188.1h2.2v1.9c0.6-0.8,1.3-1.4,2-1.7s1.5-0.5,2.4-0.5c1.9,0,3.2,0.7,3.9,2c0.4,0.7,0.6,1.8,0.6,3.2v8.7h-2.3v-8.6
		c0-0.8-0.1-1.5-0.4-2c-0.4-0.8-1.1-1.3-2.2-1.3c-0.5,0-1,0.1-1.3,0.2c-0.6,0.2-1.2,0.6-1.7,1.1c-0.4,0.4-0.6,0.9-0.7,1.4
		s-0.2,1.2-0.2,2.1v7.1h-2.3V188.1z"/>
	<path d="M120.3,184.3h2.3v3.8h2.2v1.9h-2.2v8.9c0,0.5,0.2,0.8,0.5,1c0.2,0.1,0.5,0.1,0.9,0.1c0.1,0,0.2,0,0.4,0s0.3,0,0.4,0v1.8
		c-0.3,0.1-0.5,0.1-0.8,0.2s-0.6,0.1-0.9,0.1c-1.1,0-1.8-0.3-2.2-0.8s-0.6-1.3-0.6-2.1v-9h-1.8v-1.9h1.8V184.3z"/>
	<path d="M134.3,188.1h2.2v2.3c0.2-0.5,0.6-1,1.3-1.7s1.5-1,2.4-1c0,0,0.1,0,0.2,0s0.3,0,0.5,0.1v2.4c-0.1,0-0.3,0-0.4-0.1
		s-0.2,0-0.4,0c-1.2,0-2,0.4-2.7,1.1s-0.9,1.6-0.9,2.6v7.8h-2.3V188.1z"/>
	<path d="M151.3,188.5c0.9,0.5,1.6,1,2.1,1.8c0.5,0.7,0.8,1.5,0.9,2.4c0.1,0.6,0.2,1.6,0.2,3h-9.9c0,1.4,0.4,2.5,1,3.3
		c0.6,0.8,1.5,1.3,2.8,1.3c1.2,0,2.1-0.4,2.8-1.2c0.4-0.5,0.7-1,0.8-1.6h2.2c-0.1,0.5-0.3,1.1-0.6,1.7s-0.7,1.1-1.1,1.5
		c-0.7,0.7-1.5,1.1-2.6,1.4c-0.5,0.1-1.2,0.2-1.9,0.2c-1.7,0-3.1-0.6-4.3-1.8c-1.2-1.2-1.8-3-1.8-5.2c0-2.2,0.6-4,1.8-5.3
		c1.2-1.4,2.7-2,4.6-2C149.5,187.8,150.4,188,151.3,188.5z M152.1,193.8c-0.1-1-0.3-1.8-0.6-2.4c-0.6-1.1-1.7-1.7-3.1-1.7
		c-1,0-1.9,0.4-2.6,1.1c-0.7,0.8-1.1,1.7-1.1,2.9H152.1z"/>
	<path d="M158.5,188.1l3.6,11.1l3.8-11.1h2.5l-5.1,13.6h-2.4l-5-13.6H158.5z"/>
	<path d="M170.4,183.1h2.3v2.6h-2.3V183.1z M170.4,188.2h2.3v13.5h-2.3V188.2z"/>
	<path d="M184.5,188.5c0.9,0.5,1.6,1,2.1,1.8c0.5,0.7,0.8,1.5,0.9,2.4c0.1,0.6,0.2,1.6,0.2,3h-9.9c0,1.4,0.4,2.5,1,3.3
		c0.6,0.8,1.5,1.3,2.8,1.3c1.2,0,2.1-0.4,2.8-1.2c0.4-0.5,0.7-1,0.8-1.6h2.2c-0.1,0.5-0.3,1.1-0.6,1.7s-0.7,1.1-1.1,1.5
		c-0.7,0.7-1.5,1.1-2.6,1.4c-0.5,0.1-1.2,0.2-1.9,0.2c-1.7,0-3.1-0.6-4.3-1.8c-1.2-1.2-1.8-3-1.8-5.2c0-2.2,0.6-4,1.8-5.3
		c1.2-1.4,2.7-2,4.6-2C182.7,187.8,183.6,188,184.5,188.5z M185.4,193.8c-0.1-1-0.3-1.8-0.6-2.4c-0.6-1.1-1.7-1.7-3.1-1.7
		c-1,0-1.9,0.4-2.6,1.1c-0.7,0.8-1.1,1.7-1.1,2.9H185.4z"/>
	<path d="M191.7,188.1l2.6,10.7l2.7-10.7h2.6l2.7,10.7l2.8-10.7h2.3l-3.9,13.6h-2.4l-2.8-10.5l-2.7,10.5h-2.4l-3.9-13.6H191.7z"/>
	<path d="M59.5,219.7c0.9,0.5,1.6,1,2.1,1.8c0.5,0.7,0.8,1.5,0.9,2.4c0.1,0.6,0.2,1.6,0.2,3h-9.9c0,1.4,0.4,2.5,1,3.3
		c0.6,0.8,1.5,1.3,2.8,1.3c1.2,0,2.1-0.4,2.8-1.2c0.4-0.5,0.7-1,0.8-1.6h2.2c-0.1,0.5-0.3,1.1-0.6,1.7s-0.7,1.1-1.1,1.5
		c-0.7,0.7-1.5,1.1-2.6,1.4c-0.5,0.1-1.2,0.2-1.9,0.2c-1.7,0-3.1-0.6-4.3-1.8c-1.2-1.2-1.8-3-1.8-5.2c0-2.2,0.6-4,1.8-5.3
		c1.2-1.4,2.7-2,4.6-2C57.7,219,58.6,219.2,59.5,219.7z M60.4,225c-0.1-1-0.3-1.8-0.6-2.4c-0.6-1.1-1.7-1.7-3.1-1.7
		c-1,0-1.9,0.4-2.6,1.1c-0.7,0.8-1.1,1.7-1.1,2.9H60.4z"/>
	<path d="M65.6,219.3h2.2v1.9c0.6-0.8,1.3-1.4,2-1.7s1.5-0.5,2.4-0.5c1.9,0,3.2,0.7,3.9,2c0.4,0.7,0.6,1.8,0.6,3.2v8.7h-2.3v-8.6
		c0-0.8-0.1-1.5-0.4-2c-0.4-0.8-1.1-1.3-2.2-1.3c-0.5,0-1,0.1-1.3,0.2c-0.6,0.2-1.2,0.6-1.7,1.1c-0.4,0.4-0.6,0.9-0.7,1.4
		s-0.2,1.2-0.2,2.1v7.1h-2.3V219.3z"/>
	<path d="M81.2,219.3l3.6,11.1l3.8-11.1h2.5L86,232.9h-2.4l-5-13.6H81.2z"/>
	<path d="M93.1,214.3h2.3v2.6h-2.3V214.3z M93.1,219.4h2.3v13.5h-2.3V219.4z"/>
	<path d="M98.9,219.3h2.2v2.3c0.2-0.5,0.6-1,1.3-1.7s1.5-1,2.4-1c0,0,0.1,0,0.2,0s0.3,0,0.5,0.1v2.4c-0.1,0-0.3,0-0.4-0.1
		s-0.2,0-0.4,0c-1.2,0-2,0.4-2.7,1.1s-0.9,1.6-0.9,2.6v7.8h-2.3V219.3z"/>
	<path d="M117.3,220.7c1.2,1.2,1.8,2.9,1.8,5.1c0,2.2-0.5,4-1.6,5.4c-1.1,1.4-2.7,2.1-4.9,2.1c-1.9,0-3.3-0.6-4.4-1.9
		s-1.6-3-1.6-5.1c0-2.3,0.6-4.1,1.7-5.5c1.2-1.4,2.7-2,4.6-2C114.7,218.9,116.1,219.5,117.3,220.7z M115.9,229.7
		c0.6-1.1,0.8-2.4,0.8-3.8c0-1.3-0.2-2.3-0.6-3.1c-0.6-1.3-1.7-1.9-3.3-1.9c-1.4,0-2.4,0.5-3,1.6c-0.6,1.1-0.9,2.4-0.9,3.9
		c0,1.4,0.3,2.6,0.9,3.6c0.6,1,1.6,1.4,3,1.4C114.3,231.4,115.4,230.8,115.9,229.7z"/>
	<path d="M122,219.3h2.2v1.9c0.6-0.8,1.3-1.4,2-1.7s1.5-0.5,2.4-0.5c1.9,0,3.2,0.7,3.9,2c0.4,0.7,0.6,1.8,0.6,3.2v8.7h-2.3v-8.6
		c0-0.8-0.1-1.5-0.4-2c-0.4-0.8-1.1-1.3-2.2-1.3c-0.5,0-1,0.1-1.3,0.2c-0.6,0.2-1.2,0.6-1.7,1.1c-0.4,0.4-0.6,0.9-0.7,1.4
		s-0.2,1.2-0.2,2.1v7.1H122V219.3z"/>
	<path d="M136.4,219.3h2.3v1.9c0.5-0.7,1-1.2,1.5-1.5c0.8-0.5,1.6-0.8,2.6-0.8c1.1,0,2,0.3,2.6,0.8c0.4,0.3,0.7,0.8,1,1.3
		c0.5-0.7,1.1-1.3,1.8-1.6s1.5-0.5,2.3-0.5c1.8,0,3.1,0.7,3.7,2c0.4,0.7,0.5,1.7,0.5,2.9v9.1h-2.4v-9.4c0-0.9-0.2-1.5-0.7-1.9
		s-1-0.5-1.7-0.5c-0.9,0-1.7,0.3-2.3,0.9s-1,1.6-1,3v7.9h-2.3V224c0-0.9-0.1-1.6-0.3-2c-0.3-0.6-1-1-1.9-1c-0.9,0-1.6,0.3-2.4,1
		s-1.1,1.9-1.1,3.6v7.2h-2.3V219.3z"/>
	<path d="M166.5,219.7c0.9,0.5,1.6,1,2.1,1.8c0.5,0.7,0.8,1.5,0.9,2.4c0.1,0.6,0.2,1.6,0.2,3h-9.9c0,1.4,0.4,2.5,1,3.3
		c0.6,0.8,1.5,1.3,2.8,1.3c1.2,0,2.1-0.4,2.8-1.2c0.4-0.5,0.7-1,0.8-1.6h2.2c-0.1,0.5-0.3,1.1-0.6,1.7s-0.7,1.1-1.1,1.5
		c-0.7,0.7-1.5,1.1-2.6,1.4c-0.5,0.1-1.2,0.2-1.9,0.2c-1.7,0-3.1-0.6-4.3-1.8c-1.2-1.2-1.8-3-1.8-5.2c0-2.2,0.6-4,1.8-5.3
		c1.2-1.4,2.7-2,4.6-2C164.6,219,165.6,219.2,166.5,219.7z M167.3,225c-0.1-1-0.3-1.8-0.6-2.4c-0.6-1.1-1.7-1.7-3.1-1.7
		c-1,0-1.9,0.4-2.6,1.1c-0.7,0.8-1.1,1.7-1.1,2.9H167.3z"/>
	<path d="M172.5,219.3h2.2v1.9c0.6-0.8,1.3-1.4,2-1.7s1.5-0.5,2.4-0.5c1.9,0,3.2,0.7,3.9,2c0.4,0.7,0.6,1.8,0.6,3.2v8.7h-2.3v-8.6
		c0-0.8-0.1-1.5-0.4-2c-0.4-0.8-1.1-1.3-2.2-1.3c-0.5,0-1,0.1-1.3,0.2c-0.6,0.2-1.2,0.6-1.7,1.1c-0.4,0.4-0.6,0.9-0.7,1.4
		s-0.2,1.2-0.2,2.1v7.1h-2.3V219.3z"/>
	<path d="M187.4,215.5h2.3v3.8h2.2v1.9h-2.2v8.9c0,0.5,0.2,0.8,0.5,1c0.2,0.1,0.5,0.1,0.9,0.1c0.1,0,0.2,0,0.4,0s0.3,0,0.4,0v1.8
		c-0.3,0.1-0.5,0.1-0.8,0.2s-0.6,0.1-0.9,0.1c-1.1,0-1.8-0.3-2.2-0.8s-0.6-1.3-0.6-2.1v-9h-1.8v-1.9h1.8V215.5z"/>
</g>
<g>
	<path d="M392.1,178.1v2.2h-6.3v16.4h-2.6v-16.4H377v-2.2H392.1z"/>
	<path d="M399.6,183.5c0.9,0.5,1.6,1,2.1,1.8c0.5,0.7,0.8,1.5,0.9,2.4c0.1,0.6,0.2,1.6,0.2,3h-9.9c0,1.4,0.4,2.5,1,3.3
		c0.6,0.8,1.5,1.3,2.8,1.3c1.2,0,2.1-0.4,2.8-1.2c0.4-0.5,0.7-1,0.8-1.6h2.2c-0.1,0.5-0.3,1.1-0.6,1.7s-0.7,1.1-1.1,1.5
		c-0.7,0.7-1.5,1.1-2.6,1.4c-0.5,0.1-1.2,0.2-1.9,0.2c-1.7,0-3.1-0.6-4.3-1.8c-1.2-1.2-1.8-3-1.8-5.2c0-2.2,0.6-4,1.8-5.3
		c1.2-1.4,2.7-2,4.6-2C397.8,182.8,398.7,183,399.6,183.5z M400.4,188.8c-0.1-1-0.3-1.8-0.6-2.4c-0.6-1.1-1.7-1.7-3.1-1.7
		c-1,0-1.9,0.4-2.6,1.1c-0.7,0.8-1.1,1.7-1.1,2.9H400.4z"/>
	<path d="M407,192.4c0.1,0.8,0.3,1.3,0.6,1.8c0.6,0.7,1.6,1.1,3.1,1.1c0.9,0,1.6-0.2,2.3-0.6s1-0.9,1-1.7c0-0.6-0.3-1-0.8-1.3
		c-0.3-0.2-1-0.4-2-0.6l-1.8-0.5c-1.2-0.3-2-0.6-2.6-1c-1-0.6-1.5-1.5-1.5-2.6c0-1.3,0.5-2.3,1.4-3.1s2.2-1.2,3.8-1.2
		c2.1,0,3.6,0.6,4.5,1.8c0.6,0.8,0.9,1.6,0.8,2.5h-2.2c0-0.5-0.2-1-0.6-1.4c-0.5-0.6-1.5-0.9-2.8-0.9c-0.9,0-1.6,0.2-2,0.5
		c-0.5,0.3-0.7,0.8-0.7,1.3c0,0.6,0.3,1.1,0.9,1.4c0.3,0.2,0.9,0.4,1.5,0.6l1.5,0.4c1.7,0.4,2.8,0.8,3.4,1.2
		c0.9,0.6,1.3,1.5,1.3,2.8c0,1.2-0.5,2.3-1.4,3.1s-2.3,1.3-4.2,1.3c-2,0-3.5-0.5-4.4-1.4c-0.9-0.9-1.3-2.1-1.4-3.4H407z"/>
	<path d="M419.1,179.3h2.3v3.8h2.2v1.9h-2.2v8.9c0,0.5,0.2,0.8,0.5,1c0.2,0.1,0.5,0.1,0.9,0.1c0.1,0,0.2,0,0.4,0s0.3,0,0.4,0v1.8
		c-0.3,0.1-0.5,0.1-0.8,0.2s-0.6,0.1-0.9,0.1c-1.1,0-1.8-0.3-2.2-0.8s-0.6-1.3-0.6-2.1v-9h-1.8v-1.9h1.8V179.3z"/>
	<path d="M338.9,214.7c0.9,0.5,1.6,1,2.1,1.8c0.5,0.7,0.8,1.5,0.9,2.4c0.1,0.6,0.2,1.6,0.2,3h-9.9c0,1.4,0.4,2.5,1,3.3
		c0.6,0.8,1.5,1.3,2.8,1.3c1.2,0,2.1-0.4,2.8-1.2c0.4-0.5,0.7-1,0.8-1.6h2.2c-0.1,0.5-0.3,1.1-0.6,1.7s-0.7,1.1-1.1,1.5
		c-0.7,0.7-1.5,1.1-2.6,1.4c-0.5,0.1-1.2,0.2-1.9,0.2c-1.7,0-3.1-0.6-4.3-1.8c-1.2-1.2-1.8-3-1.8-5.2c0-2.2,0.6-4,1.8-5.3
		c1.2-1.4,2.7-2,4.6-2C337.1,214,338,214.2,338.9,214.7z M339.7,220c-0.1-1-0.3-1.8-0.6-2.4c-0.6-1.1-1.7-1.7-3.1-1.7
		c-1,0-1.9,0.4-2.6,1.1c-0.7,0.8-1.1,1.7-1.1,2.9H339.7z"/>
	<path d="M345,214.3h2.2v1.9c0.6-0.8,1.3-1.4,2-1.7s1.5-0.5,2.4-0.5c1.9,0,3.2,0.7,3.9,2c0.4,0.7,0.6,1.8,0.6,3.2v8.7h-2.3v-8.6
		c0-0.8-0.1-1.5-0.4-2c-0.4-0.8-1.1-1.3-2.2-1.3c-0.5,0-1,0.1-1.3,0.2c-0.6,0.2-1.2,0.6-1.7,1.1c-0.4,0.4-0.6,0.9-0.7,1.4
		s-0.2,1.2-0.2,2.1v7.1H345V214.3z"/>
	<path d="M360.6,214.3l3.6,11.1l3.8-11.1h2.5l-5.1,13.6h-2.4l-5-13.6H360.6z"/>
	<path d="M372.4,209.3h2.3v2.6h-2.3V209.3z M372.4,214.4h2.3v13.5h-2.3V214.4z"/>
	<path d="M378.3,214.3h2.2v2.3c0.2-0.5,0.6-1,1.3-1.7s1.5-1,2.4-1c0,0,0.1,0,0.2,0s0.3,0,0.5,0.1v2.4c-0.1,0-0.3,0-0.4-0.1
		s-0.2,0-0.4,0c-1.2,0-2,0.4-2.7,1.1s-0.9,1.6-0.9,2.6v7.8h-2.3V214.3z"/>
	<path d="M396.7,215.7c1.2,1.2,1.8,2.9,1.8,5.1c0,2.2-0.5,4-1.6,5.4c-1.1,1.4-2.7,2.1-4.9,2.1c-1.9,0-3.3-0.6-4.4-1.9
		s-1.6-3-1.6-5.1c0-2.3,0.6-4.1,1.7-5.5c1.2-1.4,2.7-2,4.6-2C394.1,213.9,395.5,214.5,396.7,215.7z M395.3,224.7
		c0.6-1.1,0.8-2.4,0.8-3.8c0-1.3-0.2-2.3-0.6-3.1c-0.6-1.3-1.7-1.9-3.3-1.9c-1.4,0-2.4,0.5-3,1.6c-0.6,1.1-0.9,2.4-0.9,3.9
		c0,1.4,0.3,2.6,0.9,3.6c0.6,1,1.6,1.4,3,1.4C393.7,226.4,394.8,225.8,395.3,224.7z"/>
	<path d="M401.3,214.3h2.2v1.9c0.6-0.8,1.3-1.4,2-1.7s1.5-0.5,2.4-0.5c1.9,0,3.2,0.7,3.9,2c0.4,0.7,0.6,1.8,0.6,3.2v8.7h-2.3v-8.6
		c0-0.8-0.1-1.5-0.4-2c-0.4-0.8-1.1-1.3-2.2-1.3c-0.5,0-1,0.1-1.3,0.2c-0.6,0.2-1.2,0.6-1.7,1.1c-0.4,0.4-0.6,0.9-0.7,1.4
		s-0.2,1.2-0.2,2.1v7.1h-2.3V214.3z"/>
	<path d="M415.8,214.3h2.3v1.9c0.5-0.7,1-1.2,1.5-1.5c0.8-0.5,1.6-0.8,2.6-0.8c1.1,0,2,0.3,2.6,0.8c0.4,0.3,0.7,0.8,1,1.3
		c0.5-0.7,1.1-1.3,1.8-1.6s1.5-0.5,2.3-0.5c1.8,0,3.1,0.7,3.7,2c0.4,0.7,0.5,1.7,0.5,2.9v9.1h-2.4v-9.4c0-0.9-0.2-1.5-0.7-1.9
		s-1-0.5-1.7-0.5c-0.9,0-1.7,0.3-2.3,0.9s-1,1.6-1,3v7.9h-2.3V219c0-0.9-0.1-1.6-0.3-2c-0.3-0.6-1-1-1.9-1c-0.9,0-1.6,0.3-2.4,1
		s-1.1,1.9-1.1,3.6v7.2h-2.3V214.3z"/>
	<path d="M445.9,214.7c0.9,0.5,1.6,1,2.1,1.8c0.5,0.7,0.8,1.5,0.9,2.4c0.1,0.6,0.2,1.6,0.2,3h-9.9c0,1.4,0.4,2.5,1,3.3
		c0.6,0.8,1.5,1.3,2.8,1.3c1.2,0,2.1-0.4,2.8-1.2c0.4-0.5,0.7-1,0.8-1.6h2.2c-0.1,0.5-0.3,1.1-0.6,1.7s-0.7,1.1-1.1,1.5
		c-0.7,0.7-1.5,1.1-2.6,1.4c-0.5,0.1-1.2,0.2-1.9,0.2c-1.7,0-3.1-0.6-4.3-1.8c-1.2-1.2-1.8-3-1.8-5.2c0-2.2,0.6-4,1.8-5.3
		c1.2-1.4,2.7-2,4.6-2C444,214,445,214.2,445.9,214.7z M446.7,220c-0.1-1-0.3-1.8-0.6-2.4c-0.6-1.1-1.7-1.7-3.1-1.7
		c-1,0-1.9,0.4-2.6,1.1c-0.7,0.8-1.1,1.7-1.1,2.9H446.7z"/>
	<path d="M451.9,214.3h2.2v1.9c0.6-0.8,1.3-1.4,2-1.7s1.5-0.5,2.4-0.5c1.9,0,3.2,0.7,3.9,2c0.4,0.7,0.6,1.8,0.6,3.2v8.7h-2.3v-8.6
		c0-0.8-0.1-1.5-0.4-2c-0.4-0.8-1.1-1.3-2.2-1.3c-0.5,0-1,0.1-1.3,0.2c-0.6,0.2-1.2,0.6-1.7,1.1c-0.4,0.4-0.6,0.9-0.7,1.4
		s-0.2,1.2-0.2,2.1v7.1h-2.3V214.3z"/>
	<path d="M466.8,210.5h2.3v3.8h2.2v1.9h-2.2v8.9c0,0.5,0.2,0.8,0.5,1c0.2,0.1,0.5,0.1,0.9,0.1c0.1,0,0.2,0,0.4,0s0.3,0,0.4,0v1.8
		c-0.3,0.1-0.5,0.1-0.8,0.2s-0.6,0.1-0.9,0.1c-1.1,0-1.8-0.3-2.2-0.8s-0.6-1.3-0.6-2.1v-9H465v-1.9h1.8V210.5z"/>
</g>
<g>
	<path d="M636.5,172.4h13.5v2.3H639v5.7h10.2v2.2H639v6.3h11.3v2.2h-13.7V172.4z"/>
	<path d="M652,177.4h3l3.1,4.8l3.2-4.8l2.8,0.1l-4.6,6.6l4.8,7h-2.9l-3.4-5.1l-3.3,5.1h-2.9l4.8-7L652,177.4z"/>
	<path d="M666.8,173.6h2.3v3.8h2.2v1.9h-2.2v8.9c0,0.5,0.2,0.8,0.5,1c0.2,0.1,0.5,0.1,0.9,0.1c0.1,0,0.2,0,0.4,0s0.3,0,0.4,0v1.8
		c-0.3,0.1-0.5,0.1-0.8,0.2s-0.6,0.1-0.9,0.1c-1.1,0-1.8-0.3-2.2-0.8s-0.6-1.3-0.6-2.1v-9h-1.8v-1.9h1.8V173.6z"/>
	<path d="M681.9,177.8c0.9,0.5,1.6,1,2.1,1.8c0.5,0.7,0.8,1.5,0.9,2.4c0.1,0.6,0.2,1.6,0.2,3h-9.9c0,1.4,0.4,2.5,1,3.3
		c0.6,0.8,1.5,1.3,2.8,1.3c1.2,0,2.1-0.4,2.8-1.2c0.4-0.5,0.7-1,0.8-1.6h2.2c-0.1,0.5-0.3,1.1-0.6,1.7s-0.7,1.1-1.1,1.5
		c-0.7,0.7-1.5,1.1-2.6,1.4c-0.5,0.1-1.2,0.2-1.9,0.2c-1.7,0-3.1-0.6-4.3-1.8c-1.2-1.2-1.8-3-1.8-5.2c0-2.2,0.6-4,1.8-5.3
		c1.2-1.4,2.7-2,4.6-2C680.1,177.1,681,177.3,681.9,177.8z M682.8,183.1c-0.1-1-0.3-1.8-0.6-2.4c-0.6-1.1-1.7-1.7-3.1-1.7
		c-1,0-1.9,0.4-2.6,1.1c-0.7,0.8-1.1,1.7-1.1,2.9H682.8z"/>
	<path d="M688.1,177.4h2.2v2.3c0.2-0.5,0.6-1,1.3-1.7s1.5-1,2.4-1c0,0,0.1,0,0.2,0s0.3,0,0.5,0.1v2.4c-0.1,0-0.3,0-0.4-0.1
		s-0.2,0-0.4,0c-1.2,0-2,0.4-2.7,1.1s-0.9,1.6-0.9,2.6v7.8h-2.3V177.4z"/>
	<path d="M696.7,177.4h2.2v1.9c0.6-0.8,1.3-1.4,2-1.7s1.5-0.5,2.4-0.5c1.9,0,3.2,0.7,3.9,2c0.4,0.7,0.6,1.8,0.6,3.2v8.7h-2.3v-8.6
		c0-0.8-0.1-1.5-0.4-2c-0.4-0.8-1.1-1.3-2.2-1.3c-0.5,0-1,0.1-1.3,0.2c-0.6,0.2-1.2,0.6-1.7,1.1c-0.4,0.4-0.6,0.9-0.7,1.4
		s-0.2,1.2-0.2,2.1v7.1h-2.3V177.4z"/>
	<path d="M718.4,182.8c0.5-0.1,0.9-0.3,1.1-0.7c0.1-0.2,0.2-0.5,0.2-0.9c0-0.8-0.3-1.3-0.8-1.7s-1.3-0.5-2.4-0.5c-1.2,0-2,0.3-2.5,1
		c-0.3,0.4-0.5,0.9-0.5,1.6h-2.1c0-1.7,0.6-2.8,1.6-3.5s2.3-1,3.6-1c1.6,0,2.9,0.3,3.9,0.9c1,0.6,1.5,1.6,1.5,2.8v7.8
		c0,0.2,0,0.4,0.1,0.6s0.3,0.2,0.6,0.2c0.1,0,0.2,0,0.3,0s0.3,0,0.4-0.1v1.7c-0.4,0.1-0.6,0.2-0.8,0.2s-0.4,0-0.8,0
		c-0.8,0-1.4-0.3-1.7-0.8c-0.2-0.3-0.3-0.7-0.4-1.3c-0.5,0.6-1.1,1.1-2,1.6c-0.9,0.4-1.8,0.7-2.9,0.7c-1.3,0-2.3-0.4-3.1-1.1
		c-0.8-0.8-1.2-1.7-1.2-2.9c0-1.3,0.4-2.2,1.2-2.9c0.8-0.7,1.8-1.1,3.1-1.3L718.4,182.8z M713.6,188.9c0.5,0.4,1.1,0.6,1.7,0.6
		c0.8,0,1.6-0.2,2.3-0.6c1.3-0.6,1.9-1.6,1.9-3v-1.8c-0.3,0.2-0.6,0.3-1.1,0.4c-0.4,0.1-0.9,0.2-1.3,0.3l-1.4,0.2
		c-0.8,0.1-1.5,0.3-1.9,0.5c-0.7,0.4-1.1,1-1.1,1.9C712.9,188,713.1,188.6,713.6,188.9z"/>
	<path d="M725.7,172.4h2.3V191h-2.3V172.4z"/>
	<path d="M620.5,209c0.9,0.5,1.6,1,2.1,1.8c0.5,0.7,0.8,1.5,0.9,2.4c0.1,0.6,0.2,1.6,0.2,3h-9.9c0,1.4,0.4,2.5,1,3.3
		c0.6,0.8,1.5,1.3,2.8,1.3c1.2,0,2.1-0.4,2.8-1.2c0.4-0.5,0.7-1,0.8-1.6h2.2c-0.1,0.5-0.3,1.1-0.6,1.7s-0.7,1.1-1.1,1.5
		c-0.7,0.7-1.5,1.1-2.6,1.4c-0.5,0.1-1.2,0.2-1.9,0.2c-1.7,0-3.1-0.6-4.3-1.8c-1.2-1.2-1.8-3-1.8-5.2c0-2.2,0.6-4,1.8-5.3
		c1.2-1.4,2.7-2,4.6-2C618.7,208.3,619.6,208.5,620.5,209z M621.4,214.3c-0.1-1-0.3-1.8-0.6-2.4c-0.6-1.1-1.7-1.7-3.1-1.7
		c-1,0-1.9,0.4-2.6,1.1c-0.7,0.8-1.1,1.7-1.1,2.9H621.4z"/>
	<path d="M626.6,208.6h2.2v1.9c0.6-0.8,1.3-1.4,2-1.7s1.5-0.5,2.4-0.5c1.9,0,3.2,0.7,3.9,2c0.4,0.7,0.6,1.8,0.6,3.2v8.7h-2.3v-8.6
		c0-0.8-0.1-1.5-0.4-2c-0.4-0.8-1.1-1.3-2.2-1.3c-0.5,0-1,0.1-1.3,0.2c-0.6,0.2-1.2,0.6-1.7,1.1c-0.4,0.4-0.6,0.9-0.7,1.4
		s-0.2,1.2-0.2,2.1v7.1h-2.3V208.6z"/>
	<path d="M642.2,208.6l3.6,11.1l3.8-11.1h2.5l-5.1,13.6h-2.4l-5-13.6H642.2z"/>
	<path d="M654.1,203.6h2.3v2.6h-2.3V203.6z M654.1,208.7h2.3v13.5h-2.3V208.7z"/>
	<path d="M659.9,208.6h2.2v2.3c0.2-0.5,0.6-1,1.3-1.7s1.5-1,2.4-1c0,0,0.1,0,0.2,0s0.3,0,0.5,0.1v2.4c-0.1,0-0.3,0-0.4-0.1
		s-0.2,0-0.4,0c-1.2,0-2,0.4-2.7,1.1s-0.9,1.6-0.9,2.6v7.8h-2.3V208.6z"/>
	<path d="M678.3,210c1.2,1.2,1.8,2.9,1.8,5.1c0,2.2-0.5,4-1.6,5.4c-1.1,1.4-2.7,2.1-4.9,2.1c-1.9,0-3.3-0.6-4.4-1.9s-1.6-3-1.6-5.1
		c0-2.3,0.6-4.1,1.7-5.5c1.2-1.4,2.7-2,4.6-2C675.7,208.2,677.1,208.8,678.3,210z M676.9,219c0.6-1.1,0.8-2.4,0.8-3.8
		c0-1.3-0.2-2.3-0.6-3.1c-0.6-1.3-1.7-1.9-3.3-1.9c-1.4,0-2.4,0.5-3,1.6c-0.6,1.1-0.9,2.4-0.9,3.9c0,1.4,0.3,2.6,0.9,3.6
		c0.6,1,1.6,1.4,3,1.4C675.3,220.7,676.4,220.1,676.9,219z"/>
	<path d="M683,208.6h2.2v1.9c0.6-0.8,1.3-1.4,2-1.7s1.5-0.5,2.4-0.5c1.9,0,3.2,0.7,3.9,2c0.4,0.7,0.6,1.8,0.6,3.2v8.7h-2.3v-8.6
		c0-0.8-0.1-1.5-0.4-2c-0.4-0.8-1.1-1.3-2.2-1.3c-0.5,0-1,0.1-1.3,0.2c-0.6,0.2-1.2,0.6-1.7,1.1c-0.4,0.4-0.6,0.9-0.7,1.4
		s-0.2,1.2-0.2,2.1v7.1H683V208.6z"/>
	<path d="M697.4,208.6h2.3v1.9c0.5-0.7,1-1.2,1.5-1.5c0.8-0.5,1.6-0.8,2.6-0.8c1.1,0,2,0.3,2.6,0.8c0.4,0.3,0.7,0.8,1,1.3
		c0.5-0.7,1.1-1.3,1.8-1.6s1.5-0.5,2.3-0.5c1.8,0,3.1,0.7,3.7,2c0.4,0.7,0.5,1.7,0.5,2.9v9.1h-2.4v-9.4c0-0.9-0.2-1.5-0.7-1.9
		s-1-0.5-1.7-0.5c-0.9,0-1.7,0.3-2.3,0.9s-1,1.6-1,3v7.9h-2.3v-8.9c0-0.9-0.1-1.6-0.3-2c-0.3-0.6-1-1-1.9-1c-0.9,0-1.6,0.3-2.4,1
		s-1.1,1.9-1.1,3.6v7.2h-2.3V208.6z"/>
	<path d="M727.5,209c0.9,0.5,1.6,1,2.1,1.8c0.5,0.7,0.8,1.5,0.9,2.4c0.1,0.6,0.2,1.6,0.2,3h-9.9c0,1.4,0.4,2.5,1,3.3
		c0.6,0.8,1.5,1.3,2.8,1.3c1.2,0,2.1-0.4,2.8-1.2c0.4-0.5,0.7-1,0.8-1.6h2.2c-0.1,0.5-0.3,1.1-0.6,1.7s-0.7,1.1-1.1,1.5
		c-0.7,0.7-1.5,1.1-2.6,1.4c-0.5,0.1-1.2,0.2-1.9,0.2c-1.7,0-3.1-0.6-4.3-1.8c-1.2-1.2-1.8-3-1.8-5.2c0-2.2,0.6-4,1.8-5.3
		c1.2-1.4,2.7-2,4.6-2C725.6,208.3,726.6,208.5,727.5,209z M728.3,214.3c-0.1-1-0.3-1.8-0.6-2.4c-0.6-1.1-1.7-1.7-3.1-1.7
		c-1,0-1.9,0.4-2.6,1.1c-0.7,0.8-1.1,1.7-1.1,2.9H728.3z"/>
	<path d="M733.5,208.6h2.2v1.9c0.6-0.8,1.3-1.4,2-1.7s1.5-0.5,2.4-0.5c1.9,0,3.2,0.7,3.9,2c0.4,0.7,0.6,1.8,0.6,3.2v8.7h-2.3v-8.6
		c0-0.8-0.1-1.5-0.4-2c-0.4-0.8-1.1-1.3-2.2-1.3c-0.5,0-1,0.1-1.3,0.2c-0.6,0.2-1.2,0.6-1.7,1.1c-0.4,0.4-0.6,0.9-0.7,1.4
		s-0.2,1.2-0.2,2.1v7.1h-2.3V208.6z"/>
	<path d="M748.4,204.8h2.3v3.8h2.2v1.9h-2.2v8.9c0,0.5,0.2,0.8,0.5,1c0.2,0.1,0.5,0.1,0.9,0.1c0.1,0,0.2,0,0.4,0s0.3,0,0.4,0v1.8
		c-0.3,0.1-0.5,0.1-0.8,0.2s-0.6,0.1-0.9,0.1c-1.1,0-1.8-0.3-2.2-0.8s-0.6-1.3-0.6-2.1v-9h-1.8v-1.9h1.8V204.8z"/>
</g>
<g>
	<path d="M412.8,401.9h-30.7c-0.4,0-0.7-0.3-0.7-0.7v-42.8c0-0.4,0.3-0.7,0.7-0.7h22.3v6.4c0,1.7,1.4,3.1,3.1,3.1h6v34
		C413.5,401.6,413.1,401.9,412.8,401.9z M415.6,367.1c0-0.4-0.2-0.9-0.5-1.2l-9.1-9.8c-0.3-0.4-0.8-0.5-1.3-0.5h-22.7
		c-1.6,0-2.9,1.3-2.9,2.9v42.8c0,1.6,1.3,2.9,2.9,2.9h30.7c1.6,0,2.9-1.3,2.9-2.9L415.6,367.1z"/>
	<path d="M389.9,387.3h-0.6c-0.3,0-0.5,0.2-0.5,0.5v2.1h-2.4v-2.1c0-0.3-0.2-0.5-0.5-0.5h-0.6c-0.3,0-0.5,0.2-0.5,0.5v5.6
		c0,0.3,0.2,0.5,0.5,0.5h0.6c0.3,0,0.5-0.2,0.5-0.5v-2.1h2.4v2.1c0,0.3,0.2,0.5,0.5,0.5h0.6c0.3,0,0.5-0.2,0.5-0.5v-5.6
		C390.3,387.4,390.2,387.3,389.9,387.3z"/>
	<path d="M396.8,387.3h-4.6c-0.3,0-0.5,0.2-0.5,0.5v0.4c0,0.3,0.2,0.5,0.5,0.5h1.5v4.7c0,0.3,0.2,0.5,0.5,0.5h0.6
		c0.3,0,0.5-0.2,0.5-0.5v-4.7h1.5c0.3,0,0.5-0.2,0.5-0.5v-0.4C397.3,387.4,397.1,387.3,396.8,387.3z"/>
	<path d="M404.4,387.3h-0.8c-0.3,0-0.5,0.1-0.6,0.4l-0.8,2.4c-0.2,0.4-0.3,1.1-0.3,1.1s-0.2-0.6-0.3-1.1l-0.9-2.4
		c-0.1-0.3-0.3-0.4-0.6-0.4h-0.8c-0.3,0-0.5,0.2-0.5,0.5l-0.4,5.6c-0.1,0.3,0.2,0.5,0.5,0.5h0.6c0.3,0,0.5-0.2,0.5-0.5l0.2-2.5
		c0.1-0.5,0-1.1,0-1.1s0.2,0.7,0.4,1.1l0.5,1.5c0.1,0.3,0.3,0.4,0.6,0.4h0.5c0.3,0,0.5-0.1,0.6-0.4l0.5-1.5c0.2-0.4,0.4-1.1,0.4-1.1
		s-0.1,0.6,0,1.1l0.2,2.5c0.1,0.3,0.2,0.5,0.5,0.5h0.6c0.3,0,0.5-0.2,0.5-0.5l-0.4-5.6C404.9,387.4,404.7,387.3,404.4,387.3z"/>
	<path d="M410.9,392.4h-2.2v-4.7c0-0.3-0.2-0.5-0.5-0.5h-0.6c-0.3,0-0.5,0.2-0.5,0.5v5.6c0,0.3,0.2,0.5,0.5,0.5h3.3
		c0.3,0,0.5-0.2,0.5-0.5v-0.4C411.4,392.6,411.2,392.4,410.9,392.4z"/>
</g>
<g>
	<g>
		<path style="fill:none;stroke:#000000;stroke-width:2;stroke-miterlimit:10;" d="M367.5,370.5c-55.6-26.8-111.2-53.5-164-84.4
			c-9.8-5.7-19.6-11.7-29.8-16.9"/>
		<g>
			<polygon points="180.7,261.6 160.8,263.2 172,279.6 			"/>
		</g>
	</g>
</g>
<g>
	<g>
		<path style="fill:none;stroke:#000000;stroke-width:2;stroke-miterlimit:10;" d="M393.6,346.5c0.9-29.1,1.7-58.1,2.6-87.2"/>
		<g>
			<polygon points="406,262.5 396.6,245 386.1,262 			"/>
		</g>
	</g>
</g>
<g>
	<g>
		<path style="fill:none;stroke:#000000;stroke-width:2;stroke-miterlimit:10;" d="M426,370.5c50-40.8,99.9-81.6,149.9-122.4"/>
		<g>
			<polygon points="580,257.7 587,239 567.3,242.2 			"/>
		</g>
	</g>
</g>
<g>
	<path d="M91.9,35.5v11.1c0,0.8,0,1.7,0.1,2.4h-1.5l-0.1-1.6h0c-0.5,1-1.6,1.8-3.1,1.8c-2.2,0-3.9-1.9-3.9-4.7
		c0-3.1,1.9-4.9,4.1-4.9c1.4,0,2.4,0.7,2.8,1.4h0v-5.5H91.9z M90.2,43.5c0-0.2,0-0.5-0.1-0.7c-0.2-1.1-1.2-1.9-2.4-1.9
		c-1.7,0-2.8,1.5-2.8,3.6c0,1.9,0.9,3.4,2.7,3.4c1.1,0,2.1-0.7,2.5-2c0.1-0.2,0.1-0.5,0.1-0.7V43.5z"/>
	<path d="M103,44.3c0,3.4-2.4,4.9-4.6,4.9c-2.5,0-4.4-1.8-4.4-4.7c0-3.1,2-4.9,4.6-4.9C101.2,39.6,103,41.5,103,44.3z M95.7,44.4
		c0,2,1.2,3.5,2.8,3.5c1.6,0,2.8-1.5,2.8-3.6c0-1.6-0.8-3.5-2.8-3.5S95.7,42.7,95.7,44.4z"/>
	<path d="M105.1,42.3c0-0.9,0-1.7-0.1-2.5h1.5l0.1,1.5h0.1c0.5-0.9,1.4-1.7,2.9-1.7c1.3,0,2.2,0.8,2.6,1.8h0c0.3-0.5,0.6-0.9,1-1.2
		c0.6-0.4,1.2-0.6,2-0.6c1.2,0,3,0.8,3,4V49h-1.6v-5.2c0-1.8-0.6-2.8-2-2.8c-0.9,0-1.7,0.7-2,1.5c-0.1,0.2-0.1,0.5-0.1,0.8V49h-1.6
		v-5.5c0-1.5-0.6-2.5-1.9-2.5c-1,0-1.8,0.8-2.1,1.7c-0.1,0.2-0.1,0.5-0.1,0.8V49h-1.6V42.3z"/>
	<path d="M126.1,49l-0.1-1.2h-0.1c-0.5,0.7-1.5,1.4-2.8,1.4c-1.9,0-2.8-1.3-2.8-2.6c0-2.2,2-3.4,5.5-3.4V43c0-0.8-0.2-2.1-2.1-2.1
		c-0.9,0-1.7,0.3-2.4,0.7l-0.4-1.1c0.8-0.5,1.9-0.8,3-0.8c2.8,0,3.5,1.9,3.5,3.8v3.4c0,0.8,0,1.6,0.2,2.2H126.1z M125.8,44.3
		c-1.8,0-3.9,0.3-3.9,2.1c0,1.1,0.7,1.6,1.6,1.6c1.2,0,2-0.8,2.2-1.5c0.1-0.2,0.1-0.4,0.1-0.5V44.3z"/>
	<path d="M132,37.2c0,0.6-0.4,1-1.1,1c-0.6,0-1-0.5-1-1c0-0.6,0.4-1,1-1C131.6,36.2,132,36.6,132,37.2z M130.1,49v-9.2h1.7V49H130.1
		z"/>
	<path d="M134.6,42.3c0-0.9,0-1.7-0.1-2.5h1.5l0.1,1.5h0c0.5-0.9,1.5-1.7,3-1.7c1.3,0,3.2,0.8,3.2,3.9V49h-1.7v-5.3
		c0-1.5-0.6-2.7-2.1-2.7c-1.1,0-2,0.8-2.2,1.7c-0.1,0.2-0.1,0.5-0.1,0.8V49h-1.7V42.3z"/>
	<path d="M152.2,38.2L152.2,38.2l-2.2,1.2l-0.3-1.3l2.7-1.4h1.4V49h-1.6V38.2z"/>
</g>
<g>
	<path d="M376.5,35.5v11.1c0,0.8,0,1.7,0.1,2.4h-1.5l-0.1-1.6h0c-0.5,1-1.6,1.8-3.1,1.8c-2.2,0-3.9-1.9-3.9-4.7
		c0-3.1,1.9-4.9,4.1-4.9c1.4,0,2.4,0.7,2.8,1.4h0v-5.5H376.5z M374.9,43.5c0-0.2,0-0.5-0.1-0.7c-0.2-1.1-1.2-1.9-2.4-1.9
		c-1.7,0-2.8,1.5-2.8,3.6c0,1.9,0.9,3.4,2.7,3.4c1.1,0,2.1-0.7,2.5-2c0.1-0.2,0.1-0.5,0.1-0.7V43.5z"/>
	<path d="M387.6,44.3c0,3.4-2.4,4.9-4.6,4.9c-2.5,0-4.4-1.8-4.4-4.7c0-3.1,2-4.9,4.6-4.9C385.9,39.6,387.6,41.5,387.6,44.3z
		 M380.3,44.4c0,2,1.2,3.5,2.8,3.5c1.6,0,2.8-1.5,2.8-3.6c0-1.6-0.8-3.5-2.8-3.5S380.3,42.7,380.3,44.4z"/>
	<path d="M389.8,42.3c0-0.9,0-1.7-0.1-2.5h1.5l0.1,1.5h0.1c0.5-0.9,1.4-1.7,2.9-1.7c1.3,0,2.2,0.8,2.6,1.8h0c0.3-0.5,0.6-0.9,1-1.2
		c0.6-0.4,1.2-0.6,2-0.6c1.2,0,3,0.8,3,4V49h-1.6v-5.2c0-1.8-0.6-2.8-2-2.8c-1,0-1.7,0.7-2,1.5c-0.1,0.2-0.1,0.5-0.1,0.8V49h-1.6
		v-5.5c0-1.5-0.6-2.5-1.9-2.5c-1,0-1.8,0.8-2.1,1.7c-0.1,0.2-0.1,0.5-0.1,0.8V49h-1.6V42.3z"/>
	<path d="M410.7,49l-0.1-1.2h-0.1c-0.5,0.7-1.5,1.4-2.8,1.4c-1.9,0-2.8-1.3-2.8-2.6c0-2.2,2-3.4,5.5-3.4V43c0-0.8-0.2-2.1-2.1-2.1
		c-0.9,0-1.7,0.3-2.4,0.7l-0.4-1.1c0.8-0.5,1.9-0.8,3-0.8c2.8,0,3.5,1.9,3.5,3.8v3.4c0,0.8,0,1.6,0.2,2.2H410.7z M410.4,44.3
		c-1.8,0-3.9,0.3-3.9,2.1c0,1.1,0.7,1.6,1.6,1.6c1.2,0,2-0.8,2.2-1.5c0.1-0.2,0.1-0.4,0.1-0.5V44.3z"/>
	<path d="M416.6,37.2c0,0.6-0.4,1-1.1,1c-0.6,0-1-0.5-1-1c0-0.6,0.4-1,1-1C416.2,36.2,416.6,36.6,416.6,37.2z M414.8,49v-9.2h1.7V49
		H414.8z"/>
	<path d="M419.2,42.3c0-0.9,0-1.7-0.1-2.5h1.5l0.1,1.5h0c0.5-0.9,1.5-1.7,3-1.7c1.3,0,3.2,0.8,3.2,3.9V49h-1.7v-5.3
		c0-1.5-0.6-2.7-2.1-2.7c-1.1,0-2,0.8-2.2,1.7c-0.1,0.2-0.1,0.5-0.1,0.8V49h-1.7V42.3z"/>
	<path d="M433.2,49v-1l1.3-1.3c3.2-3,4.6-4.6,4.6-6.5c0-1.3-0.6-2.4-2.5-2.4c-1.1,0-2.1,0.6-2.6,1l-0.5-1.2c0.9-0.7,2.1-1.3,3.5-1.3
		c2.7,0,3.8,1.8,3.8,3.6c0,2.3-1.7,4.1-4.3,6.6l-1,0.9v0h5.5V49H433.2z"/>
</g>
<g>
	<path d="M637.2,35.5v11.1c0,0.8,0,1.7,0.1,2.4h-1.5l-0.1-1.6h0c-0.5,1-1.6,1.8-3.1,1.8c-2.2,0-3.9-1.9-3.9-4.7
		c0-3.1,1.9-4.9,4.1-4.9c1.4,0,2.4,0.7,2.8,1.4h0v-5.5H637.2z M635.5,43.5c0-0.2,0-0.5-0.1-0.7c-0.2-1.1-1.2-1.9-2.4-1.9
		c-1.7,0-2.8,1.5-2.8,3.6c0,1.9,0.9,3.4,2.7,3.4c1.1,0,2.1-0.7,2.5-2c0.1-0.2,0.1-0.5,0.1-0.7V43.5z"/>
	<path d="M648.3,44.3c0,3.4-2.4,4.9-4.6,4.9c-2.5,0-4.4-1.8-4.4-4.7c0-3.1,2-4.9,4.6-4.9C646.5,39.6,648.3,41.5,648.3,44.3z
		 M641,44.4c0,2,1.2,3.5,2.8,3.5c1.6,0,2.8-1.5,2.8-3.6c0-1.6-0.8-3.5-2.8-3.5S641,42.7,641,44.4z"/>
	<path d="M650.4,42.3c0-0.9,0-1.7-0.1-2.5h1.5l0.1,1.5h0.1c0.5-0.9,1.4-1.7,2.9-1.7c1.3,0,2.2,0.8,2.6,1.8h0c0.3-0.5,0.6-0.9,1-1.2
		c0.6-0.4,1.2-0.6,2-0.6c1.2,0,3,0.8,3,4V49h-1.6v-5.2c0-1.8-0.6-2.8-2-2.8c-0.9,0-1.7,0.7-2,1.5c-0.1,0.2-0.1,0.5-0.1,0.8V49h-1.6
		v-5.5c0-1.5-0.6-2.5-1.9-2.5c-1,0-1.8,0.8-2.1,1.7c-0.1,0.2-0.1,0.5-0.1,0.8V49h-1.6V42.3z"/>
	<path d="M671.3,49l-0.1-1.2h-0.1c-0.5,0.7-1.5,1.4-2.8,1.4c-1.9,0-2.8-1.3-2.8-2.6c0-2.2,2-3.4,5.5-3.4V43c0-0.8-0.2-2.1-2.1-2.1
		c-0.9,0-1.7,0.3-2.4,0.7l-0.4-1.1c0.8-0.5,1.9-0.8,3-0.8c2.8,0,3.5,1.9,3.5,3.8v3.4c0,0.8,0,1.6,0.2,2.2H671.3z M671.1,44.3
		c-1.8,0-3.9,0.3-3.9,2.1c0,1.1,0.7,1.6,1.6,1.6c1.2,0,2-0.8,2.2-1.5c0.1-0.2,0.1-0.4,0.1-0.5V44.3z"/>
	<path d="M677.2,37.2c0,0.6-0.4,1-1.1,1c-0.6,0-1-0.5-1-1c0-0.6,0.4-1,1-1C676.8,36.2,677.2,36.6,677.2,37.2z M675.4,49v-9.2h1.7V49
		H675.4z"/>
	<path d="M679.8,42.3c0-0.9,0-1.7-0.1-2.5h1.5l0.1,1.5h0c0.5-0.9,1.5-1.7,3-1.7c1.3,0,3.2,0.8,3.2,3.9V49H686v-5.3
		c0-1.5-0.6-2.7-2.1-2.7c-1.1,0-2,0.8-2.2,1.7c-0.1,0.2-0.1,0.5-0.1,0.8V49h-1.7V42.3z"/>
	<path d="M694.3,47.1c0.5,0.3,1.6,0.8,2.7,0.8c2.1,0,2.8-1.4,2.8-2.4c0-1.7-1.6-2.5-3.2-2.5h-0.9v-1.3h0.9c1.2,0,2.8-0.6,2.8-2.1
		c0-1-0.6-1.9-2.2-1.9c-1,0-1.9,0.4-2.5,0.8l-0.4-1.2c0.6-0.5,1.9-0.9,3.2-0.9c2.4,0,3.5,1.4,3.5,2.9c0,1.3-0.8,2.4-2.3,2.9v0
		c1.5,0.3,2.8,1.4,2.8,3.2c0,2-1.5,3.7-4.5,3.7c-1.4,0-2.6-0.4-3.2-0.8L694.3,47.1z"/>
</g>
<g>
	<path d="M350.5,425.3c0,1.4-0.2,2.5-0.6,3.2c-0.8,1.4-2.2,2.1-4.4,2.1c-1.2,0-2.3-0.3-3.2-1c-0.9-0.7-1.3-1.9-1.3-3.6v-1.2h2.1v1.2
		c0,0.9,0.2,1.6,0.6,2c0.4,0.5,1,0.7,1.9,0.7c1.2,0,2-0.4,2.3-1.2c0.2-0.5,0.3-1.4,0.3-2.8v-11h2.2V425.3z"/>
	<path d="M361.1,418.5c0.8,0.4,1.4,0.9,1.8,1.6c0.4,0.6,0.7,1.3,0.8,2.1c0.1,0.6,0.2,1.4,0.2,2.7h-8.7c0,1.2,0.3,2.2,0.9,2.9
		c0.5,0.7,1.4,1.1,2.5,1.1c1,0,1.9-0.3,2.5-1c0.3-0.4,0.6-0.9,0.7-1.4h2c-0.1,0.4-0.2,0.9-0.5,1.5c-0.3,0.5-0.6,1-1,1.3
		c-0.6,0.6-1.4,1-2.3,1.2c-0.5,0.1-1,0.2-1.6,0.2c-1.5,0-2.7-0.5-3.8-1.6c-1-1.1-1.6-2.6-1.6-4.6c0-1.9,0.5-3.5,1.6-4.7
		s2.4-1.8,4.1-1.8C359.5,417.9,360.3,418.1,361.1,418.5z M361.8,423.2c-0.1-0.9-0.3-1.6-0.6-2.1c-0.5-1-1.5-1.5-2.8-1.5
		c-0.9,0-1.7,0.3-2.3,1c-0.6,0.7-1,1.5-1,2.6H361.8z"/>
	<path d="M366.4,413.7h1.9v9.6l5.2-5.1h2.6l-4.6,4.5l4.9,7.6h-2.6l-3.8-6.1l-1.7,1.6v4.5h-1.9V413.7z"/>
	<path d="M385.5,418.2h2.2c-0.3,0.8-0.9,2.5-1.9,5.3c-0.7,2.1-1.3,3.8-1.8,5.1c-1.2,3.1-2,4.9-2.5,5.6c-0.5,0.7-1.3,1-2.5,1
		c-0.3,0-0.5,0-0.7,0c-0.2,0-0.3-0.1-0.6-0.1v-1.8c0.4,0.1,0.6,0.2,0.8,0.2s0.3,0,0.4,0c0.4,0,0.6-0.1,0.8-0.2
		c0.2-0.1,0.3-0.3,0.4-0.5c0-0.1,0.2-0.4,0.4-0.9c0.2-0.6,0.4-1,0.5-1.2l-4.4-12.4h2.3l3.2,9.8L385.5,418.2z"/>
	<path d="M389.5,413.7h2v16.5h-2V413.7z"/>
	<path d="M394.6,413.7h2v16.5h-2V413.7z"/>
	<path d="M405.9,418.2h2v1.6c0.4-0.5,0.8-1,1.3-1.3c0.7-0.4,1.5-0.7,2.4-0.7c1.4,0,2.5,0.5,3.5,1.6c1,1,1.4,2.5,1.4,4.5
		c0,2.6-0.7,4.5-2.1,5.6c-0.9,0.7-1.9,1.1-3,1.1c-0.9,0-1.7-0.2-2.3-0.6c-0.4-0.2-0.8-0.6-1.2-1.2v6.1h-2V418.2z M413.5,427.7
		c0.6-0.8,0.9-2,0.9-3.5c0-1-0.1-1.8-0.4-2.5c-0.5-1.3-1.5-2-2.9-2c-1.4,0-2.4,0.7-2.9,2.1c-0.3,0.7-0.4,1.7-0.4,2.9
		c0,0.9,0.1,1.7,0.4,2.4c0.5,1.2,1.5,1.9,2.9,1.9C412.1,428.8,412.9,428.4,413.5,427.7z"/>
	<path d="M418.9,418.2h1.9v2.1c0.2-0.4,0.5-0.9,1.2-1.5c0.6-0.6,1.3-0.9,2.1-0.9c0,0,0.1,0,0.2,0s0.2,0,0.5,0v2.1
		c-0.1,0-0.2,0-0.3,0c-0.1,0-0.2,0-0.3,0c-1,0-1.8,0.3-2.3,1c-0.5,0.7-0.8,1.4-0.8,2.3v6.9h-2V418.2z"/>
	<path d="M435.2,419.4c1.1,1,1.6,2.6,1.6,4.6c0,1.9-0.5,3.5-1.4,4.8s-2.4,1.9-4.4,1.9c-1.6,0-2.9-0.6-3.9-1.7
		c-1-1.1-1.4-2.6-1.4-4.5c0-2,0.5-3.6,1.5-4.8s2.4-1.8,4.1-1.8C432.9,417.8,434.2,418.3,435.2,419.4z M434,427.4
		c0.5-1,0.7-2.1,0.7-3.4c0-1.1-0.2-2-0.5-2.7c-0.6-1.1-1.5-1.7-2.9-1.7c-1.2,0-2.1,0.5-2.7,1.4s-0.8,2.1-0.8,3.4
		c0,1.3,0.3,2.3,0.8,3.2s1.4,1.3,2.6,1.3C432.6,428.9,433.5,428.4,434,427.4z"/>
	<path d="M437.4,433.2c0.9,0,1.5-0.1,1.6-0.2c0.2-0.1,0.3-0.5,0.3-1.2v-13.5h2V432c0,0.9-0.1,1.5-0.4,2c-0.5,0.7-1.4,1.1-2.7,1.1
		c-0.1,0-0.2,0-0.3,0c-0.1,0-0.3,0-0.5,0V433.2z M441.3,416h-2v-2.3h2V416z"/>
	<path d="M451.8,418.5c0.8,0.4,1.4,0.9,1.8,1.6c0.4,0.6,0.7,1.3,0.8,2.1c0.1,0.6,0.2,1.4,0.2,2.7h-8.7c0,1.2,0.3,2.2,0.9,2.9
		c0.5,0.7,1.4,1.1,2.5,1.1c1,0,1.9-0.3,2.5-1c0.3-0.4,0.6-0.9,0.7-1.4h2c-0.1,0.4-0.2,0.9-0.5,1.5c-0.3,0.5-0.6,1-1,1.3
		c-0.6,0.6-1.4,1-2.3,1.2c-0.5,0.1-1,0.2-1.6,0.2c-1.5,0-2.7-0.5-3.8-1.6c-1-1.1-1.6-2.6-1.6-4.6c0-1.9,0.5-3.5,1.6-4.7
		s2.4-1.8,4.1-1.8C450.2,417.9,451,418.1,451.8,418.5z M452.6,423.2c-0.1-0.9-0.3-1.6-0.6-2.1c-0.5-1-1.5-1.5-2.8-1.5
		c-0.9,0-1.7,0.3-2.3,1c-0.6,0.7-1,1.5-1,2.6H452.6z"/>
	<path d="M465.1,418.8c0.9,0.7,1.4,1.8,1.5,3.4h-2c-0.1-0.7-0.4-1.4-0.8-1.8c-0.4-0.5-1.1-0.7-2.1-0.7c-1.3,0-2.2,0.6-2.8,1.9
		c-0.4,0.8-0.5,1.8-0.5,3c0,1.2,0.3,2.2,0.8,3s1.3,1.2,2.4,1.2c0.8,0,1.5-0.3,2-0.8c0.5-0.5,0.8-1.2,1-2.1h2
		c-0.2,1.6-0.8,2.8-1.7,3.5c-0.9,0.7-2,1.1-3.4,1.1c-1.6,0-2.8-0.6-3.8-1.7c-0.9-1.1-1.4-2.6-1.4-4.3c0-2.1,0.5-3.8,1.5-4.9
		s2.3-1.8,3.9-1.8C463.2,417.8,464.3,418.2,465.1,418.8z"/>
	<path d="M469.1,414.8h2v3.4h1.9v1.7h-1.9v7.9c0,0.4,0.1,0.7,0.4,0.8c0.2,0.1,0.4,0.1,0.8,0.1c0.1,0,0.2,0,0.3,0s0.2,0,0.4,0v1.6
		c-0.2,0.1-0.5,0.1-0.7,0.1c-0.3,0-0.5,0-0.8,0c-0.9,0-1.6-0.2-1.9-0.7c-0.3-0.5-0.5-1.1-0.5-1.9v-8h-1.6v-1.7h1.6V414.8z"/>
</g>
<g>
	<g>
		<line style="fill:none;stroke:#A2A3A3;stroke-width:5;stroke-miterlimit:10;" x1="185" y1="117.5" x2="188" y2="117.5"/>
		
			<line style="fill:none;stroke:#A2A3A3;stroke-width:5;stroke-miterlimit:10;stroke-dasharray:6,6;" x1="194" y1="117.5" x2="308" y2="117.5"/>
		<line style="fill:none;stroke:#A2A3A3;stroke-width:5;stroke-miterlimit:10;" x1="311" y1="117.5" x2="314" y2="117.5"/>
	</g>
</g>
<g>
	<g>
		<line style="fill:none;stroke:#A2A3A3;stroke-width:5;stroke-miterlimit:10;" x1="460" y1="114.5" x2="463" y2="114.5"/>
		
			<line style="fill:none;stroke:#A2A3A3;stroke-width:5;stroke-miterlimit:10;stroke-dasharray:6,6;" x1="469" y1="114.5" x2="583" y2="114.5"/>
		<line style="fill:none;stroke:#A2A3A3;stroke-width:5;stroke-miterlimit:10;" x1="586" y1="114.5" x2="589" y2="114.5"/>
	</g>
</g>
</svg>
