<?xml version="1.0" encoding="utf-8"?>
<!-- Generator: Adobe Illustrator 17.1.0, SVG Export Plug-In . SVG Version: 6.00 Build 0)  -->
<!DOCTYPE svg PUBLIC "-//W3C//DTD SVG 1.1//EN" "http://www.w3.org/Graphics/SVG/1.1/DTD/svg11.dtd">
<svg version="1.1" id="Layer_1" xmlns="http://www.w3.org/2000/svg" xmlns:xlink="http://www.w3.org/1999/xlink" x="0px" y="0px"
	 viewBox="0 0 775 445" style="enable-background:new 0 0 775 445;" xml:space="preserve">
<path d="M439.9,182.7c0-1.2-0.8-2-2-2h-2.4c-1.2,0-2,0.8-2,2v15c0,1.2,0.8,2,2,2h2.4c1.2,0,2-0.8,2-2V182.7z M439.9,207.1
	c0-1.2-0.8-2-2-2h-2.4c-1.2,0-2,0.8-2,2v2.8c0,1.2,0.8,2,2,2h2.4c1.2,0,2-0.8,2-2V207.1z M460.5,219.2h-47.8c-3.7,0-5.7-3.7-4.1-6.9
	l23.9-41c1.6-2.8,6.1-2.8,7.7,0l23.9,41.3C466.2,215.6,463.8,219.2,460.5,219.2z M465,77.4h-32.4v-4.1H465V77.4z M254.3,81.4h-40.5
	V69.3h40.5V81.4z M424.5,77.4H392v-4.1h32.4V77.4z M505.5,77.4h-32.4v-4.1h32.4V77.4z M554.1,89.5H205.6V61.2h348.5V89.5z
	 M554.1,397.5H205.6v-24.3h348.5V397.5z M554.1,409.7H205.6v-8.1h348.5V409.7z M282.6,235.4h194.5v24.3H282.6V235.4z M477.1,231.4
	H282.6v-77h194.5V231.4z M197.5,53.1v364.7h364.7V53.1H197.5z M546,73.3h-32.4v4.1H546V73.3z M359.6,201h-60.8v4.1h60.8V201z
	 M388,192.9h-89.2v4.1H388V192.9z M359.6,176.7h-60.8v8.1h60.8V176.7z M412.3,245.6h-32.4v4.1h32.4V245.6z M465,249.6h-44.6v-4.1
	H465V249.6z"/>
<rect x="295" y="166" style="fill:#FFFFFF;" width="110" height="50"/>
<g>
	<path d="M323.2,219.9v-7.4h-9.8v-4.3l9.4-19.4h5.6v18.7h2.9v5h-2.9v7.4H323.2z M323.2,207.4V201c0-1.7,0.2-3.5,0.3-5.1h-0.2
		c-0.7,1.7-1.2,3.1-2,4.8l-3.1,6.6v0.1H323.2z"/>
	<path d="M349.5,204.2c0,11.2-3.7,16.1-8.4,16.1c-6.3,0-8.4-7.8-8.4-15.8c0-9,2.6-16.1,8.6-16.1C348,188.3,349.5,196.7,349.5,204.2z
		 M338.6,204.3c-0.1,7.3,0.8,10.6,2.7,10.6c1.8,0,2.4-3.5,2.4-10.6c0-6.7-0.6-10.6-2.4-10.6C339.4,193.7,338.5,197.1,338.6,204.3z"
		/>
	<path d="M360.8,219.9v-7.4H351v-4.3l9.4-19.4h5.6v18.7h2.9v5H366v7.4H360.8z M360.8,207.4V201c0-1.7,0.2-3.5,0.3-5.1H361
		c-0.7,1.7-1.2,3.1-2,4.8l-3.1,6.6v0.1H360.8z"/>
</g>
<g>
	<path d="M296.1,164.5c0.7-0.2,1.7-0.3,2.6-0.3c1.5,0,2.7,0.2,3.5,1.1c0.8,0.7,1.1,1.9,1.1,3.1c0,1.5-0.4,2.6-1.1,3.4
		c-0.8,0.9-2.1,1.3-3.2,1.3c-0.2,0-0.3,0-0.5,0v5.3h-2.5V164.5z M298.6,170.9c0.1,0,0.3,0,0.4,0c1.3,0,1.9-1,1.9-2.3
		c0-1.2-0.5-2.2-1.6-2.2c-0.2,0-0.5,0-0.6,0.1V170.9z"/>
	<path d="M308.6,178.5l-0.1-1h0c-0.5,0.8-1.3,1.2-2.1,1.2c-1.4,0-2.5-1.3-2.5-3.1c0-2.7,2.2-3.8,4.3-3.8v-0.2c0-0.8-0.4-1.4-1.3-1.4
		c-0.8,0-1.4,0.2-1.9,0.6l-0.5-1.8c0.5-0.3,1.6-0.8,2.9-0.8c2.9,0,3.3,2.2,3.3,4.3v3.8c0,0.8,0,1.7,0.2,2.4H308.6z M308.3,173.5
		c-0.8,0-2,0.3-2,1.7c0,1,0.5,1.4,0.9,1.4c0.4,0,0.9-0.3,1-0.9c0-0.1,0.1-0.3,0.1-0.5V173.5z"/>
	<path d="M319.5,168.2c0,0.9-0.1,2-0.1,3.3v5.9c0,2.2-0.4,3.4-1.1,4.2c-0.7,0.7-1.7,1.1-3.1,1.1c-0.9,0-1.7-0.2-2.4-0.5l0.5-2.1
		c0.5,0.2,1.1,0.4,1.8,0.4c1.3,0,1.8-0.9,1.8-2.5v-0.6h0c-0.3,0.7-1,1-1.7,1c-2.1,0-3-2.5-3-5c0-3.4,1.4-5.4,3.2-5.4
		c0.8,0,1.4,0.4,1.7,1.2h0l0.1-1H319.5z M316.9,171.9c0-0.3,0-0.5-0.1-0.8c-0.1-0.4-0.4-0.8-0.8-0.8c-0.9,0-1.3,1.3-1.3,3
		c0,1.9,0.5,2.9,1.2,2.9c0.3,0,0.7-0.2,0.8-0.7c0.1-0.2,0.1-0.5,0.1-0.8V171.9z"/>
	<path d="M323.3,174.3c0,1.6,0.9,2.2,2,2.2c0.7,0,1.4-0.2,1.8-0.3l0.3,2c-0.7,0.3-1.6,0.5-2.6,0.5c-2.6,0-4-1.8-4-5.1
		c0-3.4,1.6-5.5,3.8-5.5c2,0,3.2,1.7,3.2,4.9c0,0.7,0,1.1-0.1,1.4H323.3z M325.6,172.4c0-1.3-0.3-2.4-1.1-2.4
		c-0.8,0-1.2,1.3-1.2,2.4H325.6z"/>
	<path d="M332.3,171.3c0-1.1-0.1-2.1-0.1-3.1h2.2l0.1,1.2h0c0.5-0.8,1.3-1.3,2.3-1.3c1.8,0,2.5,1.6,2.5,3.8v6.6h-2.5V172
		c0-0.9-0.2-1.7-0.9-1.7c-0.4,0-0.8,0.3-0.9,0.9c-0.1,0.2-0.1,0.5-0.1,0.9v6.3h-2.5V171.3z"/>
	<path d="M348.1,173.3c0,4.3-2.2,5.3-3.6,5.3c-2.3,0-3.6-1.9-3.6-5.3c0-3.7,1.8-5.3,3.6-5.3C346.7,168,348.1,170.1,348.1,173.3z
		 M343.4,173.3c0,1.8,0.3,3.2,1.2,3.2c0.8,0,1-1.7,1-3.2c0-1.4-0.2-3.2-1.1-3.2C343.6,170.1,343.4,171.9,343.4,173.3z"/>
	<path d="M352.5,165.4v2.8h1.9v2h-1.9v4.7c0,1.2,0.5,1.5,1,1.5c0.3,0,0.4,0,0.7-0.1l0,2.1c-0.3,0.1-0.9,0.2-1.5,0.2
		c-0.7,0-1.4-0.2-1.8-0.7c-0.5-0.5-0.8-1.3-0.8-2.9v-4.9h-1.1v-2h1.1v-2.1L352.5,165.4z"/>
	<path d="M359,178.5v-8.3h-1.3v-2h1.3v-0.4c0-1.2,0.2-2.2,1-3.1c0.6-0.6,1.4-0.9,2.3-0.9c0.7,0,1.2,0.1,1.5,0.2l-0.3,2.1
		c-0.2-0.1-0.5-0.1-0.8-0.1c-0.8,0-1.2,0.8-1.2,1.7v0.5h1.6v2h-1.6v8.3H359z"/>
	<path d="M370.8,173.3c0,4.3-2.2,5.3-3.6,5.3c-2.3,0-3.6-1.9-3.6-5.3c0-3.7,1.8-5.3,3.6-5.3C369.5,168,370.8,170.1,370.8,173.3z
		 M366.1,173.3c0,1.8,0.3,3.2,1.2,3.2c0.8,0,1-1.7,1-3.2c0-1.4-0.2-3.2-1.1-3.2C366.3,170.1,366.1,171.9,366.1,173.3z"/>
	<path d="M379.2,175.3c0,1.1,0,2.2,0.1,3.1h-2.2l-0.1-1.1h0c-0.4,0.7-1.2,1.3-2.2,1.3c-1.8,0-2.5-1.4-2.5-4.2v-6.2h2.5v5.9
		c0,1.3,0.2,2.2,0.9,2.2c0.4,0,0.7-0.4,0.8-0.7c0.1-0.2,0.2-0.5,0.2-0.9v-6.6h2.5V175.3z"/>
	<path d="M381,171.3c0-1.1-0.1-2.1-0.1-3.1h2.2l0.1,1.2h0c0.5-0.8,1.3-1.3,2.3-1.3c1.8,0,2.5,1.6,2.5,3.8v6.6h-2.5V172
		c0-0.9-0.2-1.7-0.9-1.7c-0.4,0-0.8,0.3-0.9,0.9c-0.1,0.2-0.1,0.5-0.1,0.9v6.3H381V171.3z"/>
	<path d="M396.7,163.9v11.5c0,1,0,2.1,0.1,3h-2.2l-0.1-1.2h0c-0.3,0.7-1.1,1.3-2,1.3c-2,0-2.9-2.4-2.9-5.3c0-3.6,1.4-5.3,3-5.3
		c0.8,0,1.4,0.4,1.6,1h0v-5.1H396.7z M394.2,172.1c0-0.2,0-0.4,0-0.6c-0.1-0.6-0.4-1.2-0.9-1.2c-0.9,0-1.2,1.4-1.2,3.1
		c0,2,0.5,3,1.2,3c0.3,0,0.7-0.2,0.9-0.9c0.1-0.1,0.1-0.4,0.1-0.6V172.1z"/>
</g>
</svg>
