<?xml version="1.0" encoding="utf-8"?>
<!-- Generator: Adobe Illustrator 17.1.0, SVG Export Plug-In . SVG Version: 6.00 Build 0)  -->
<!DOCTYPE svg PUBLIC "-//W3C//DTD SVG 1.1//EN" "http://www.w3.org/Graphics/SVG/1.1/DTD/svg11.dtd">
<svg version="1.1" id="Layer_1" xmlns="http://www.w3.org/2000/svg" xmlns:xlink="http://www.w3.org/1999/xlink" x="0px" y="0px"
	 viewBox="0 0 775 445" style="enable-background:new 0 0 775 445;" xml:space="preserve">
<path style="stroke:#000000;stroke-width:0.5;stroke-miterlimit:10;" d="M144.6,390.6l0.2-4.5l23.5,0.3c2.4,0,5.7-0.5,6.9-2.4
	c1.2-2.1-0.2-5.7-1-7.4l-1-1c-2.6-3.1-7.4-5.8-13-7.4c-2.9-1.2-3.6-1.5-4.5-2.2l-0.9-0.9c-1-1-2.1-2.1-2.2-4.3v-7.6l0.5-0.7
	c1.4-1.5,2.2-3.8,3.6-7.6l0.3-1l1-0.3c0.7-0.2,1.7-1.4,2.1-3.1c0.3-1.9,0.2-3.1-0.2-3.4l-0.7-0.9l0.3-1c2.1-8.4,1.9-15.8-0.7-19.1
	c-1.2-1.5-2.9-2.4-5-2.4H153l-0.5-0.5c-0.5-0.3-0.7-0.7-0.9-1c-0.7-1-1.2-1.7-5.7-1.7h-0.7c-5.5,0-9.6,1.5-12.2,4.8
	c-3.6,4.3-4.5,11.2-2.9,20.6l0.2,0.9l-0.5,0c-0.3,0.5-0.5,1.5-0.2,3.3c0.2,1.4,1,2.4,1.7,3.1l0.7,0.3l0.3,0.9c1.2,3.6,2.4,6.2,4,7.7
	l0.5,0.5v0.7c0,2.9,0.2,6.5,0,7.4c-0.2,1.4-0.9,2.6-2.1,4c-1.2,1.4-2.9,1.9-5,2.9c-6.4,1.7-11.2,4.5-13.9,7.6l-0.7,0.9
	c-0.7,1-2.4,5.2-1.2,7.6c1,1.9,4.5,2.4,6.9,2.4h23.7v4.5h-24c-5.5-0.2-9.1-1.7-10.8-5c-2.9-5.2,1-11.5,1.4-12.2l0.9-1
	c3.3-4,8.9-7,15.8-8.9c2.1-0.9,2.9-1.2,3.4-1.7c0.7-0.7,0.9-1.2,0.9-1.5c0-0.3,0-2.4,0-5.7c-1.4-1.9-2.9-4.5-4.1-7.7
	c-1.5-1.2-2.9-3.3-3.4-5.5c-0.3-2.1-0.2-4.3,0.3-5.7c-1.4-10.5,0-18.2,4.3-23.4c3.6-4.3,8.8-6.4,15.6-6.4h0.5c5.5,0,7.4,1.2,9.3,3.4
	c3.1,0.3,5.7,1.7,7.4,4.1c3.4,4.6,4,12.5,1.5,22c0.7,1.5,0.9,3.8,0.3,6c-0.5,2.2-1.9,4.5-3.8,5.5c-0.9,2.6-1.9,5.5-3.6,7.6v5.8
	c0,0.3,0.2,0.5,1,1.4l0.7,0.7c0.2,0.2,0.7,0.3,3.1,1.4c6.4,1.7,11.9,4.8,15.1,8.8l1,1c0.5,0.7,4.3,7.2,1.4,12.2
	c-1.7,3.1-5.3,4.8-10.6,5L144.6,390.6L144.6,390.6z"/>
<path style="stroke:#000000;stroke-width:0.5;stroke-miterlimit:10;" d="M385.1,390.6l0.2-4.5l23.5,0.3c2.4,0,5.7-0.5,6.9-2.4
	c1.2-2.1-0.2-5.7-1-7.4l-1-1c-2.6-3.1-7.4-5.8-13-7.4c-2.9-1.2-3.6-1.5-4.5-2.2l-0.9-0.9c-1-1-2.1-2.1-2.2-4.3v-7.6l0.5-0.7
	c1.4-1.5,2.2-3.8,3.6-7.6l0.3-1l1-0.3c0.7-0.2,1.7-1.4,2.1-3.1c0.3-1.9,0.2-3.1-0.2-3.4l-0.7-0.9l0.3-1c2.1-8.4,1.9-15.8-0.7-19.1
	c-1.2-1.5-2.9-2.4-5-2.4h-0.9l-0.5-0.5c-0.5-0.3-0.7-0.7-0.9-1c-0.7-1-1.2-1.7-5.7-1.7h-0.7c-5.5,0-9.6,1.5-12.2,4.8
	c-3.6,4.3-4.5,11.2-2.9,20.6l0.2,0.9l-0.5,0c-0.3,0.5-0.5,1.5-0.2,3.3c0.2,1.4,1,2.4,1.7,3.1l0.7,0.3l0.3,0.9c1.2,3.6,2.4,6.2,4,7.7
	l0.5,0.5v0.7c0,2.9,0.2,6.5,0,7.4c-0.2,1.4-0.9,2.6-2.1,4c-1.2,1.4-2.9,1.9-5,2.9c-6.4,1.7-11.2,4.5-13.9,7.6l-0.7,0.9
	c-0.7,1-2.4,5.2-1.2,7.6c1,1.9,4.5,2.4,6.9,2.4h23.7v4.5h-24c-5.5-0.2-9.1-1.7-10.8-5c-2.9-5.2,1-11.5,1.4-12.2l0.9-1
	c3.3-4,8.9-7,15.8-8.9c2.1-0.9,2.9-1.2,3.4-1.7c0.7-0.7,0.9-1.2,0.9-1.5c0-0.3,0-2.4,0-5.7c-1.4-1.9-2.9-4.5-4.1-7.7
	c-1.5-1.2-2.9-3.3-3.4-5.5c-0.3-2.1-0.2-4.3,0.3-5.7c-1.4-10.5,0-18.2,4.3-23.4c3.6-4.3,8.8-6.4,15.6-6.4h0.5c5.5,0,7.4,1.2,9.3,3.4
	c3.1,0.3,5.7,1.7,7.4,4.1c3.4,4.6,4,12.5,1.5,22c0.7,1.5,0.9,3.8,0.3,6c-0.5,2.2-1.9,4.5-3.8,5.5c-0.9,2.6-1.9,5.5-3.6,7.6v5.8
	c0,0.3,0.2,0.5,1,1.4l0.7,0.7c0.2,0.2,0.7,0.3,3.1,1.4c6.4,1.7,11.9,4.8,15.1,8.8l1,1c0.5,0.7,4.3,7.2,1.4,12.2
	c-1.7,3.1-5.3,4.8-10.6,5L385.1,390.6L385.1,390.6z"/>
<path style="stroke:#000000;stroke-width:0.5;stroke-miterlimit:10;" d="M625.5,390.6l0.2-4.5l23.5,0.3c2.4,0,5.7-0.5,6.9-2.4
	c1.2-2.1-0.2-5.7-1-7.4l-1-1c-2.6-3.1-7.4-5.8-13-7.4c-2.9-1.2-3.6-1.5-4.5-2.2l-0.9-0.9c-1-1-2.1-2.1-2.2-4.3v-7.6l0.5-0.7
	c1.4-1.5,2.2-3.8,3.6-7.6l0.3-1l1-0.3c0.7-0.2,1.7-1.4,2.1-3.1c0.3-1.9,0.2-3.1-0.2-3.4l-0.7-0.9l0.3-1c2.1-8.4,1.9-15.8-0.7-19.1
	c-1.2-1.5-2.9-2.4-5-2.4h-0.9l-0.5-0.5c-0.5-0.3-0.7-0.7-0.9-1c-0.7-1-1.2-1.7-5.7-1.7h-0.7c-5.5,0-9.6,1.5-12.2,4.8
	c-3.6,4.3-4.5,11.2-2.9,20.6l0.2,0.9l-0.5,0c-0.3,0.5-0.5,1.5-0.2,3.3c0.2,1.4,1,2.4,1.7,3.1l0.7,0.3l0.3,0.9c1.2,3.6,2.4,6.2,4,7.7
	l0.5,0.5v0.7c0,2.9,0.2,6.5,0,7.4c-0.2,1.4-0.9,2.6-2.1,4c-1.2,1.4-2.9,1.9-5,2.9c-6.4,1.7-11.2,4.5-13.9,7.6l-0.7,0.9
	c-0.7,1-2.4,5.2-1.2,7.6c1,1.9,4.5,2.4,6.9,2.4h23.7v4.5h-24c-5.5-0.2-9.1-1.7-10.8-5c-2.9-5.2,1-11.5,1.4-12.2l0.9-1
	c3.3-4,8.9-7,15.8-8.9c2.1-0.9,2.9-1.2,3.4-1.7c0.7-0.7,0.9-1.2,0.9-1.5c0-0.3,0-2.4,0-5.7c-1.4-1.9-2.9-4.5-4.1-7.7
	c-1.5-1.2-2.9-3.3-3.4-5.5c-0.3-2.1-0.2-4.3,0.3-5.7c-1.4-10.5,0-18.2,4.3-23.4c3.6-4.3,8.8-6.4,15.6-6.4h0.5c5.5,0,7.4,1.2,9.3,3.4
	c3.1,0.3,5.7,1.7,7.4,4.1c3.4,4.6,4,12.5,1.5,22c0.7,1.5,0.9,3.8,0.3,6c-0.5,2.2-1.9,4.5-3.8,5.5c-0.9,2.6-1.9,5.5-3.6,7.6v5.8
	c0,0.3,0.2,0.5,1,1.4l0.7,0.7c0.2,0.2,0.7,0.3,3.1,1.4c6.4,1.7,11.9,4.8,15.1,8.8l1,1c0.5,0.7,4.3,7.2,1.4,12.2
	c-1.7,3.1-5.3,4.8-10.6,5L625.5,390.6L625.5,390.6z"/>
<path d="M171.8,170.5h-55.5c-1.3,0-2.6-0.6-3.4-1.4l12-38h64.2l-10.1,32.4c0,0,0,0,0,0.1l0,0C178.7,165.2,176.9,170.5,171.8,170.5z
	 M114.3,107.3h23c1.6,0,2.9,1.3,2.9,2.9v5.5h-28.8v-5.5C111.3,108.6,112.6,107.3,114.3,107.3z M179,126.7c0,0.2,0,0.3,0.1,0.5h-55.6
	h-0.1c-0.1,0-0.1,0-0.2,0c-0.1,0-0.1,0-0.2,0c-0.1,0-0.1,0-0.2,0.1c-0.1,0-0.1,0-0.2,0.1c-0.1,0-0.1,0.1-0.2,0.1
	c-0.1,0-0.1,0.1-0.1,0.1c-0.1,0-0.1,0.1-0.2,0.1l-0.1,0.1c0,0.1-0.1,0.1-0.1,0.2c0,0-0.1,0.1-0.1,0.2c0,0.1-0.1,0.1-0.1,0.2
	c0,0.1-0.1,0.1-0.1,0.2v0.1l-10.4,32.8v-41.9h60.5C175.7,119.5,179,122.8,179,126.7z M193.5,129c0-0.1,0-0.1,0-0.2
	c0-0.1,0-0.1,0-0.2c0-0.1,0-0.1-0.1-0.2c0-0.1,0-0.1-0.1-0.2c0-0.1-0.1-0.1-0.1-0.2s-0.1-0.1-0.1-0.2c0-0.1-0.1-0.1-0.1-0.1
	l-0.1-0.1l-0.1-0.1c-0.1,0-0.1-0.1-0.2-0.1c-0.1,0-0.1-0.1-0.2-0.1s-0.1-0.1-0.2-0.1h-0.1h-0.1c-0.1,0-0.1,0-0.2,0
	c-0.1,0-0.1,0-0.2,0h-0.1h-8.8c0-0.2,0.1-0.3,0.1-0.5c0-6.1-4.9-11-11-11H144v-5.5c0-3.7-3-6.7-6.7-6.7h-23c-3.7,0-6.7,3-6.7,6.7
	v55.3c0,1.9,0.7,3.7,1.7,5.1c0,0,0,0.1,0.1,0.1c1.6,2.2,4.2,3.5,7,3.5h55.6c6.1-0.1,9.6-5.1,10.8-9.8l0,0l10.7-34.9v-0.1
	c0-0.1,0-0.1,0-0.2c0-0.1,0-0.1,0-0.2C193.5,129.2,193.5,129.1,193.5,129C193.5,129.1,193.5,129,193.5,129z"/>
<path d="M403.4,170.5h-55.5c-1.3,0-2.6-0.6-3.4-1.4l12-38h64.2l-10.1,32.4c0,0,0,0,0,0.1l0,0C410.3,165.2,408.5,170.5,403.4,170.5z
	 M345.9,107.3h23c1.6,0,2.9,1.3,2.9,2.9v5.5h-28.8v-5.5C342.9,108.6,344.2,107.3,345.9,107.3z M410.6,126.7c0,0.2,0,0.3,0.1,0.5
	h-55.6H355c-0.1,0-0.1,0-0.2,0c-0.1,0-0.1,0-0.2,0s-0.1,0-0.2,0.1c-0.1,0-0.1,0-0.2,0.1c-0.1,0-0.1,0.1-0.2,0.1
	c-0.1,0-0.1,0.1-0.1,0.1c-0.1,0-0.1,0.1-0.2,0.1l-0.1,0.1c0,0.1-0.1,0.1-0.1,0.2c0,0-0.1,0.1-0.1,0.2c0,0.1-0.1,0.1-0.1,0.2
	c0,0.1-0.1,0.1-0.1,0.2v0.1l-10.4,32.8v-41.9h60.5C407.3,119.5,410.6,122.8,410.6,126.7z M425.1,129c0-0.1,0-0.1,0-0.2
	c0-0.1,0-0.1,0-0.2c0-0.1,0-0.1-0.1-0.2c0-0.1,0-0.1-0.1-0.2c0-0.1-0.1-0.1-0.1-0.2s-0.1-0.1-0.1-0.2c0-0.1-0.1-0.1-0.1-0.1
	l-0.1-0.1l-0.1-0.1c-0.1,0-0.1-0.1-0.2-0.1c-0.1,0-0.1-0.1-0.2-0.1s-0.1-0.1-0.2-0.1h-0.1h-0.1c-0.1,0-0.1,0-0.2,0
	c-0.1,0-0.1,0-0.2,0h-0.1h-8.8c0-0.2,0.1-0.3,0.1-0.5c0-6.1-4.9-11-11-11h-27.9v-5.5c0-3.7-3-6.7-6.7-6.7h-23c-3.7,0-6.7,3-6.7,6.7
	v55.3c0,1.9,0.7,3.7,1.7,5.1c0,0,0,0.1,0.1,0.1c1.6,2.2,4.2,3.5,7,3.5h55.6c6.1-0.1,9.6-5.1,10.8-9.8l0,0l10.7-34.9v-0.1
	c0-0.1,0-0.1,0-0.2c0-0.1,0-0.1,0-0.2C425.1,129.2,425.1,129.1,425.1,129C425.1,129.1,425.1,129,425.1,129z"/>
<path d="M645,170.5h-55.5c-1.3,0-2.6-0.6-3.4-1.4l12-38h64.2l-10.1,32.4c0,0,0,0,0,0.1l0,0C651.9,165.2,650.1,170.5,645,170.5z
	 M587.5,107.3h23c1.6,0,2.9,1.3,2.9,2.9v5.5h-28.8v-5.5C584.5,108.6,585.8,107.3,587.5,107.3z M652.2,126.7c0,0.2,0,0.3,0.1,0.5
	h-55.6h-0.1c-0.1,0-0.1,0-0.2,0c-0.1,0-0.1,0-0.2,0c-0.1,0-0.1,0-0.2,0.1c-0.1,0-0.1,0-0.2,0.1c-0.1,0-0.1,0.1-0.2,0.1
	c-0.1,0-0.1,0.1-0.1,0.1c-0.1,0-0.1,0.1-0.2,0.1l-0.1,0.1c0,0.1-0.1,0.1-0.1,0.2c0,0-0.1,0.1-0.1,0.2c0,0.1-0.1,0.1-0.1,0.2
	c0,0.1-0.1,0.1-0.1,0.2v0.1l-10.4,32.8v-41.9H645C648.9,119.5,652.2,122.8,652.2,126.7z M666.7,129c0-0.1,0-0.1,0-0.2
	c0-0.1,0-0.1,0-0.2c0-0.1,0-0.1-0.1-0.2c0-0.1,0-0.1-0.1-0.2c0-0.1-0.1-0.1-0.1-0.2s-0.1-0.1-0.1-0.2c0-0.1-0.1-0.1-0.1-0.1
	l-0.1-0.1l-0.1-0.1c-0.1,0-0.1-0.1-0.2-0.1c-0.1,0-0.1-0.1-0.2-0.1c-0.1,0-0.1-0.1-0.2-0.1h-0.1h-0.1c-0.1,0-0.1,0-0.2,0
	c-0.1,0-0.1,0-0.2,0h-0.1H656c0-0.2,0.1-0.3,0.1-0.5c0-6.1-4.9-11-11-11h-27.9v-5.5c0-3.7-3-6.7-6.7-6.7h-23c-3.7,0-6.7,3-6.7,6.7
	v55.3c0,1.9,0.7,3.7,1.7,5.1c0,0,0,0.1,0.1,0.1c1.6,2.2,4.2,3.5,7,3.5h55.6c6.1-0.1,9.6-5.1,10.8-9.8l0,0l10.7-34.9v-0.1
	c0-0.1,0-0.1,0-0.2c0-0.1,0-0.1,0-0.2C666.7,129.2,666.7,129.1,666.7,129C666.7,129.1,666.7,129,666.7,129z"/>
<g>
	<path d="M106.4,411l2.6,10.7l2.7-10.7h2.6l2.7,10.7l2.8-10.7h2.3l-3.9,13.6h-2.4l-2.8-10.5l-2.7,10.5h-2.4l-3.9-13.6H106.4z"/>
	<path d="M124.2,411h2.2v2.3c0.2-0.5,0.6-1,1.3-1.7c0.7-0.7,1.5-1,2.4-1c0,0,0.1,0,0.2,0c0.1,0,0.3,0,0.5,0.1v2.4
		c-0.1,0-0.3,0-0.4-0.1c-0.1,0-0.2,0-0.4,0c-1.2,0-2,0.4-2.7,1.1c-0.6,0.7-0.9,1.6-0.9,2.6v7.8h-2.3V411z"/>
	<path d="M132.8,405.9h2.3v2.6h-2.3V405.9z M132.8,411h2.3v13.5h-2.3V411z"/>
	<path d="M139,407.2h2.3v3.8h2.2v1.9h-2.2v8.9c0,0.5,0.2,0.8,0.5,1c0.2,0.1,0.5,0.1,0.9,0.1c0.1,0,0.2,0,0.4,0c0.1,0,0.3,0,0.4,0
		v1.8c-0.3,0.1-0.5,0.1-0.8,0.2c-0.3,0-0.6,0.1-0.9,0.1c-1.1,0-1.8-0.3-2.2-0.8s-0.6-1.3-0.6-2.1v-9h-1.8V411h1.8V407.2z"/>
	<path d="M154.2,411.3c0.9,0.5,1.6,1,2.1,1.8c0.5,0.7,0.8,1.5,0.9,2.4c0.1,0.6,0.2,1.6,0.2,3h-9.9c0,1.4,0.4,2.5,1,3.3
		c0.6,0.8,1.5,1.3,2.8,1.3c1.2,0,2.1-0.4,2.8-1.2c0.4-0.5,0.7-1,0.8-1.6h2.2c-0.1,0.5-0.3,1.1-0.6,1.7c-0.3,0.6-0.7,1.1-1.1,1.5
		c-0.7,0.7-1.5,1.1-2.6,1.4c-0.5,0.1-1.2,0.2-1.9,0.2c-1.7,0-3.1-0.6-4.3-1.8s-1.8-3-1.8-5.2c0-2.2,0.6-4,1.8-5.3
		c1.2-1.4,2.7-2,4.6-2C152.4,410.6,153.3,410.9,154.2,411.3z M155,416.7c-0.1-1-0.3-1.8-0.6-2.4c-0.6-1.1-1.7-1.7-3.1-1.7
		c-1,0-1.9,0.4-2.6,1.1c-0.7,0.8-1.1,1.7-1.1,2.9H155z"/>
	<path d="M160.3,411h2.2v2.3c0.2-0.5,0.6-1,1.3-1.7c0.7-0.7,1.5-1,2.4-1c0,0,0.1,0,0.2,0c0.1,0,0.3,0,0.5,0.1v2.4
		c-0.1,0-0.3,0-0.4-0.1c-0.1,0-0.2,0-0.4,0c-1.2,0-2,0.4-2.7,1.1c-0.6,0.7-0.9,1.6-0.9,2.6v7.8h-2.3V411z"/>
	<path d="M177,411.7v-1.8c1.7-0.2,2.8-0.4,3.5-0.8c0.7-0.4,1.1-1.3,1.5-2.7h1.8v18.1h-2.4v-12.9H177z"/>
</g>
<g>
	<path d="M346.2,411l2.6,10.7l2.7-10.7h2.6l2.7,10.7l2.8-10.7h2.3l-3.9,13.6h-2.4l-2.8-10.5l-2.7,10.5h-2.4l-3.9-13.6H346.2z"/>
	<path d="M364,411h2.2v2.3c0.2-0.5,0.6-1,1.3-1.7c0.7-0.7,1.5-1,2.4-1c0,0,0.1,0,0.2,0c0.1,0,0.3,0,0.5,0.1v2.4
		c-0.1,0-0.3,0-0.4-0.1c-0.1,0-0.2,0-0.4,0c-1.2,0-2,0.4-2.7,1.1c-0.6,0.7-0.9,1.6-0.9,2.6v7.8H364V411z"/>
	<path d="M372.6,405.9h2.3v2.6h-2.3V405.9z M372.6,411h2.3v13.5h-2.3V411z"/>
	<path d="M378.8,407.2h2.3v3.8h2.2v1.9h-2.2v8.9c0,0.5,0.2,0.8,0.5,1c0.2,0.1,0.5,0.1,0.9,0.1c0.1,0,0.2,0,0.4,0s0.3,0,0.4,0v1.8
		c-0.3,0.1-0.5,0.1-0.8,0.2c-0.3,0-0.6,0.1-0.9,0.1c-1.1,0-1.8-0.3-2.2-0.8s-0.6-1.3-0.6-2.1v-9H377V411h1.8V407.2z"/>
	<path d="M394,411.3c0.9,0.5,1.6,1,2.1,1.8c0.5,0.7,0.8,1.5,0.9,2.4c0.1,0.6,0.2,1.6,0.2,3h-9.9c0,1.4,0.4,2.5,1,3.3
		c0.6,0.8,1.5,1.3,2.8,1.3c1.2,0,2.1-0.4,2.8-1.2c0.4-0.5,0.7-1,0.8-1.6h2.2c-0.1,0.5-0.3,1.1-0.6,1.7c-0.3,0.6-0.7,1.1-1.1,1.5
		c-0.7,0.7-1.5,1.1-2.6,1.4c-0.5,0.1-1.2,0.2-1.9,0.2c-1.7,0-3.1-0.6-4.3-1.8s-1.8-3-1.8-5.2c0-2.2,0.6-4,1.8-5.3
		c1.2-1.4,2.7-2,4.6-2C392.2,410.6,393.1,410.9,394,411.3z M394.8,416.7c-0.1-1-0.3-1.8-0.6-2.4c-0.6-1.1-1.7-1.7-3.1-1.7
		c-1,0-1.9,0.4-2.6,1.1c-0.7,0.8-1.1,1.7-1.1,2.9H394.8z"/>
	<path d="M400.1,411h2.2v2.3c0.2-0.5,0.6-1,1.3-1.7c0.7-0.7,1.5-1,2.4-1c0,0,0.1,0,0.2,0c0.1,0,0.3,0,0.5,0.1v2.4
		c-0.1,0-0.3,0-0.4-0.1c-0.1,0-0.2,0-0.4,0c-1.2,0-2,0.4-2.7,1.1c-0.6,0.7-0.9,1.6-0.9,2.6v7.8h-2.3V411z"/>
	<path d="M416,420.5c0.6-1.2,1.7-2.2,3.3-3.2l2.4-1.4c1.1-0.6,1.9-1.2,2.3-1.6c0.7-0.7,1-1.5,1-2.4c0-1.1-0.3-1.9-1-2.5
		s-1.5-0.9-2.5-0.9c-1.6,0-2.6,0.6-3.2,1.8c-0.3,0.6-0.5,1.5-0.5,2.6h-2.3c0-1.6,0.3-2.9,0.9-3.9c1-1.8,2.7-2.6,5.2-2.6
		c2.1,0,3.6,0.6,4.6,1.7c1,1.1,1.4,2.4,1.4,3.8c0,1.5-0.5,2.7-1.5,3.7c-0.6,0.6-1.7,1.3-3.2,2.2l-1.7,1c-0.8,0.5-1.5,0.9-2,1.3
		c-0.8,0.7-1.4,1.6-1.6,2.5h9.9v2.2h-12.5C415.2,423,415.5,421.6,416,420.5z"/>
</g>
<g>
	<path d="M592.3,411l2.6,10.7l2.7-10.7h2.6l2.7,10.7l2.8-10.7h2.3l-3.9,13.6h-2.4l-2.8-10.5l-2.7,10.5h-2.4l-3.9-13.6H592.3z"/>
	<path d="M610.1,411h2.2v2.3c0.2-0.5,0.6-1,1.3-1.7c0.7-0.7,1.5-1,2.4-1c0,0,0.1,0,0.2,0c0.1,0,0.3,0,0.5,0.1v2.4
		c-0.1,0-0.3,0-0.4-0.1c-0.1,0-0.2,0-0.4,0c-1.2,0-2,0.4-2.7,1.1c-0.6,0.7-0.9,1.6-0.9,2.6v7.8h-2.3V411z"/>
	<path d="M618.7,405.9h2.3v2.6h-2.3V405.9z M618.7,411h2.3v13.5h-2.3V411z"/>
	<path d="M624.9,407.2h2.3v3.8h2.2v1.9h-2.2v8.9c0,0.5,0.2,0.8,0.5,1c0.2,0.1,0.5,0.1,0.9,0.1c0.1,0,0.2,0,0.4,0c0.1,0,0.3,0,0.4,0
		v1.8c-0.3,0.1-0.5,0.1-0.8,0.2c-0.3,0-0.6,0.1-0.9,0.1c-1.1,0-1.8-0.3-2.2-0.8s-0.6-1.3-0.6-2.1v-9h-1.8V411h1.8V407.2z"/>
	<path d="M640.1,411.3c0.9,0.5,1.6,1,2.1,1.8c0.5,0.7,0.8,1.5,0.9,2.4c0.1,0.6,0.2,1.6,0.2,3h-9.9c0,1.4,0.4,2.5,1,3.3
		c0.6,0.8,1.5,1.3,2.8,1.3c1.2,0,2.1-0.4,2.8-1.2c0.4-0.5,0.7-1,0.8-1.6h2.2c-0.1,0.5-0.3,1.1-0.6,1.7c-0.3,0.6-0.7,1.1-1.1,1.5
		c-0.7,0.7-1.5,1.1-2.6,1.4c-0.5,0.1-1.2,0.2-1.9,0.2c-1.7,0-3.1-0.6-4.3-1.8s-1.8-3-1.8-5.2c0-2.2,0.6-4,1.8-5.3
		c1.2-1.4,2.7-2,4.6-2C638.3,410.6,639.2,410.9,640.1,411.3z M640.9,416.7c-0.1-1-0.3-1.8-0.6-2.4c-0.6-1.1-1.7-1.7-3.1-1.7
		c-1,0-1.9,0.4-2.6,1.1c-0.7,0.8-1.1,1.7-1.1,2.9H640.9z"/>
	<path d="M646.2,411h2.2v2.3c0.2-0.5,0.6-1,1.3-1.7c0.7-0.7,1.5-1,2.4-1c0,0,0.1,0,0.2,0c0.1,0,0.3,0,0.5,0.1v2.4
		c-0.1,0-0.3,0-0.4-0.1c-0.1,0-0.2,0-0.4,0c-1.2,0-2,0.4-2.7,1.1c-0.6,0.7-0.9,1.6-0.9,2.6v7.8h-2.3V411z"/>
	<path d="M662.4,423.3c-1-1.2-1.5-2.6-1.5-4.3h2.4c0.1,1.2,0.3,2,0.7,2.6c0.6,1,1.7,1.4,3.2,1.4c1.2,0,2.2-0.3,2.9-1
		c0.7-0.6,1.1-1.5,1.1-2.5c0-1.3-0.4-2.1-1.1-2.6c-0.8-0.5-1.8-0.7-3.2-0.7c-0.2,0-0.3,0-0.5,0c-0.2,0-0.3,0-0.5,0v-2
		c0.2,0,0.4,0,0.6,0.1c0.2,0,0.3,0,0.5,0c0.9,0,1.6-0.1,2.1-0.4c1-0.5,1.4-1.3,1.4-2.5c0-0.9-0.3-1.6-1-2.1
		c-0.6-0.5-1.4-0.7-2.2-0.7c-1.5,0-2.6,0.5-3.2,1.5c-0.3,0.6-0.5,1.4-0.5,2.4h-2.3c0-1.4,0.3-2.5,0.8-3.5c0.9-1.7,2.6-2.5,4.9-2.5
		c1.9,0,3.3,0.4,4.3,1.2s1.5,2,1.5,3.6c0,1.1-0.3,2-0.9,2.7c-0.4,0.4-0.9,0.8-1.4,1c1,0.3,1.7,0.8,2.2,1.5c0.5,0.7,0.8,1.7,0.8,2.7
		c0,1.7-0.6,3.1-1.7,4.2s-2.8,1.6-4.9,1.6C665,425,663.4,424.5,662.4,423.3z"/>
</g>
<line style="fill:none;stroke:#000000;stroke-miterlimit:10;" x1="256.5" y1="11" x2="256.5" y2="425"/>
<line style="fill:none;stroke:#000000;stroke-miterlimit:10;" x1="506.5" y1="11" x2="506.5" y2="425"/>
<g>
	<g>
		<path style="fill:none;stroke:#000000;stroke-width:2;stroke-miterlimit:10;" d="M151.9,105.4c35.2-35.9,89.7-51.7,138.7-40.2
			c17.3,4.1,34.1,11.6,47.5,23.1"/>
		<g>
			<polygon points="328.8,93.4 348.1,98.5 342.9,79.3 			"/>
		</g>
	</g>
</g>
<rect x="236" y="33" style="fill:#FFFFFF;" width="41" height="52"/>
<g>
	<path d="M271.5,81.6h-30.7c-0.4,0-0.7-0.3-0.7-0.7V38.1c0-0.4,0.3-0.7,0.7-0.7h22.3v6.4c0,1.7,1.4,3.1,3.1,3.1h6v34
		C272.2,81.3,271.8,81.6,271.5,81.6z M274.3,46.7c0-0.4-0.2-0.9-0.5-1.2l-9.1-9.8c-0.3-0.4-0.8-0.5-1.3-0.5h-22.7
		c-1.6,0-2.9,1.3-2.9,2.9v42.8c0,1.6,1.3,2.9,2.9,2.9h30.7c1.6,0,2.9-1.3,2.9-2.9L274.3,46.7z"/>
	<line style="fill:none;stroke:#000000;stroke-width:2;stroke-miterlimit:10;" x1="246" y1="51" x2="266" y2="51"/>
	<line style="fill:none;stroke:#000000;stroke-width:2;stroke-miterlimit:10;" x1="246" y1="59" x2="266" y2="59"/>
	<line style="fill:none;stroke:#000000;stroke-width:2;stroke-miterlimit:10;" x1="246" y1="67" x2="266" y2="67"/>
	<line style="fill:none;stroke:#000000;stroke-width:2;stroke-miterlimit:10;" x1="246" y1="75" x2="266" y2="75"/>
</g>
<g>
	<g>
		<path style="fill:none;stroke:#000000;stroke-width:2;stroke-miterlimit:10;" d="M617.2,98.1c-32.1-23.2-72.8-35-112.3-33.8
			c-34.8,1-69.2,12.2-98.1,31.6"/>
		<g>
			<polygon points="403.4,86.1 395.2,104.3 415,102.3 			"/>
		</g>
	</g>
</g>
<rect x="489" y="33" style="fill:#FFFFFF;" width="41" height="52"/>
<g>
	<path d="M524.5,82.6h-30.7c-0.4,0-0.7-0.3-0.7-0.7V39.1c0-0.4,0.3-0.7,0.7-0.7h22.3v6.4c0,1.7,1.4,3.1,3.1,3.1h6v34
		C525.2,82.3,524.8,82.6,524.5,82.6z M527.3,47.7c0-0.4-0.2-0.9-0.5-1.2l-9.1-9.8c-0.3-0.4-0.8-0.5-1.3-0.5h-22.7
		c-1.6,0-2.9,1.3-2.9,2.9v42.8c0,1.6,1.3,2.9,2.9,2.9h30.7c1.6,0,2.9-1.3,2.9-2.9L527.3,47.7z"/>
	<line style="fill:none;stroke:#000000;stroke-width:2;stroke-miterlimit:10;" x1="499" y1="52" x2="519" y2="52"/>
	<line style="fill:none;stroke:#000000;stroke-width:2;stroke-miterlimit:10;" x1="499" y1="60" x2="519" y2="60"/>
	<line style="fill:none;stroke:#000000;stroke-width:2;stroke-miterlimit:10;" x1="499" y1="68" x2="519" y2="68"/>
	<line style="fill:none;stroke:#000000;stroke-width:2;stroke-miterlimit:10;" x1="499" y1="76" x2="519" y2="76"/>
</g>
<g>
	<path d="M63.5,210.5c1,0,1.6-0.1,1.8-0.3c0.2-0.1,0.3-0.6,0.3-1.4v-15.3h2.3v15.6c0,1-0.2,1.7-0.5,2.2c-0.5,0.8-1.5,1.2-3,1.2
		c-0.1,0-0.2,0-0.3,0c-0.1,0-0.3,0-0.6-0.1V210.5z M67.9,191.1h-2.3v-2.6h2.3V191.1z"/>
	<path d="M79.8,193.9c0.9,0.5,1.6,1,2.1,1.8c0.5,0.7,0.8,1.5,0.9,2.4c0.1,0.6,0.2,1.6,0.2,3h-9.9c0,1.4,0.4,2.5,1,3.3
		c0.6,0.8,1.5,1.3,2.8,1.3c1.2,0,2.1-0.4,2.8-1.2c0.4-0.5,0.7-1,0.8-1.6h2.2c-0.1,0.5-0.3,1.1-0.6,1.7c-0.3,0.6-0.7,1.1-1.1,1.5
		c-0.7,0.7-1.5,1.1-2.6,1.4c-0.5,0.1-1.2,0.2-1.9,0.2c-1.7,0-3.1-0.6-4.3-1.8s-1.8-3-1.8-5.2c0-2.2,0.6-4,1.8-5.3
		c1.2-1.4,2.7-2,4.6-2C78,193.2,78.9,193.4,79.8,193.9z M80.6,199.2c-0.1-1-0.3-1.8-0.6-2.4c-0.6-1.1-1.7-1.7-3.1-1.7
		c-1,0-1.9,0.4-2.6,1.1c-0.7,0.8-1.1,1.7-1.1,2.9H80.6z"/>
	<path d="M85.8,188.4H88v10.8l5.9-5.8h2.9l-5.2,5.1l5.5,8.5h-2.9l-4.3-6.9L88,202v5.1h-2.2V188.4z"/>
	<path d="M107.4,193.5h2.5c-0.3,0.9-1,2.9-2.1,6c-0.8,2.3-1.5,4.2-2.1,5.7c-1.3,3.5-2.2,5.6-2.8,6.3c-0.5,0.8-1.5,1.1-2.8,1.1
		c-0.3,0-0.6,0-0.7,0c-0.2,0-0.4-0.1-0.6-0.1v-2.1c0.4,0.1,0.7,0.2,0.9,0.2s0.3,0,0.5,0c0.4,0,0.7-0.1,0.9-0.2
		c0.2-0.1,0.4-0.3,0.5-0.5c0-0.1,0.2-0.4,0.5-1c0.3-0.6,0.5-1.1,0.6-1.4l-5-14h2.6l3.6,11.1L107.4,193.5z"/>
	<path d="M111.9,188.4h2.3v18.6h-2.3V188.4z"/>
	<path d="M117.7,188.4h2.3v18.6h-2.3V188.4z"/>
	<path d="M130.4,193.6h2.2v1.8c0.5-0.6,1-1.1,1.5-1.4c0.8-0.5,1.7-0.8,2.7-0.8c1.5,0,2.9,0.6,3.9,1.8s1.6,2.9,1.6,5.1
		c0,3-0.8,5.1-2.3,6.3c-1,0.8-2.1,1.2-3.4,1.2c-1,0-1.9-0.2-2.6-0.7c-0.4-0.3-0.9-0.7-1.4-1.3v6.9h-2.3V193.6z M139,204.2
		c0.7-0.9,1.1-2.2,1.1-4c0-1.1-0.2-2-0.5-2.8c-0.6-1.5-1.7-2.2-3.3-2.2c-1.6,0-2.7,0.8-3.3,2.4c-0.3,0.8-0.5,1.9-0.5,3.2
		c0,1,0.2,1.9,0.5,2.7c0.6,1.4,1.7,2.1,3.3,2.1C137.4,205.6,138.3,205.1,139,204.2z"/>
	<path d="M145.2,193.5h2.2v2.3c0.2-0.5,0.6-1,1.3-1.7c0.7-0.7,1.5-1,2.4-1c0,0,0.1,0,0.2,0c0.1,0,0.3,0,0.5,0.1v2.4
		c-0.1,0-0.3,0-0.4-0.1c-0.1,0-0.2,0-0.4,0c-1.2,0-2,0.4-2.7,1.1c-0.6,0.7-0.9,1.6-0.9,2.6v7.8h-2.3V193.5z"/>
	<path d="M163.6,194.9c1.2,1.2,1.8,2.9,1.8,5.1c0,2.2-0.5,4-1.6,5.4c-1.1,1.4-2.7,2.1-4.9,2.1c-1.9,0-3.3-0.6-4.4-1.9
		c-1.1-1.3-1.6-3-1.6-5.1c0-2.3,0.6-4.1,1.7-5.5s2.7-2,4.6-2C160.9,193.1,162.4,193.7,163.6,194.9z M162.2,203.9
		c0.6-1.1,0.8-2.4,0.8-3.8c0-1.3-0.2-2.3-0.6-3.1c-0.6-1.3-1.7-1.9-3.3-1.9c-1.4,0-2.4,0.5-3,1.6c-0.6,1.1-0.9,2.3-0.9,3.9
		c0,1.4,0.3,2.7,0.9,3.6c0.6,1,1.6,1.4,3,1.4C160.6,205.6,161.6,205,162.2,203.9z"/>
	<path d="M166,210.5c1,0,1.6-0.1,1.8-0.3c0.2-0.1,0.3-0.6,0.3-1.4v-15.3h2.3v15.6c0,1-0.2,1.7-0.5,2.2c-0.5,0.8-1.5,1.2-3,1.2
		c-0.1,0-0.2,0-0.3,0c-0.1,0-0.3,0-0.6-0.1V210.5z M170.5,191.1h-2.3v-2.6h2.3V191.1z"/>
	<path d="M182.4,193.9c0.9,0.5,1.6,1,2.1,1.8c0.5,0.7,0.8,1.5,0.9,2.4c0.1,0.6,0.2,1.6,0.2,3h-9.9c0,1.4,0.4,2.5,1,3.3
		s1.5,1.3,2.8,1.3c1.2,0,2.1-0.4,2.8-1.2c0.4-0.5,0.7-1,0.8-1.6h2.2c-0.1,0.5-0.3,1.1-0.6,1.7c-0.3,0.6-0.7,1.1-1.1,1.5
		c-0.7,0.7-1.5,1.1-2.6,1.4c-0.5,0.1-1.2,0.2-1.9,0.2c-1.7,0-3.1-0.6-4.3-1.8c-1.2-1.2-1.8-3-1.8-5.2c0-2.2,0.6-4,1.8-5.3
		c1.2-1.4,2.7-2,4.6-2C180.6,193.2,181.5,193.4,182.4,193.9z M183.2,199.2c-0.1-1-0.3-1.8-0.6-2.4c-0.6-1.1-1.7-1.7-3.1-1.7
		c-1,0-1.9,0.4-2.6,1.1c-0.7,0.8-1.1,1.7-1.1,2.9H183.2z"/>
	<path d="M197.4,194.2c1,0.7,1.5,2,1.7,3.8h-2.2c-0.1-0.8-0.4-1.5-0.9-2.1c-0.5-0.6-1.3-0.8-2.3-0.8c-1.5,0-2.5,0.7-3.1,2.1
		c-0.4,0.9-0.6,2.1-0.6,3.4c0,1.4,0.3,2.5,0.9,3.4c0.6,0.9,1.5,1.4,2.7,1.4c0.9,0,1.7-0.3,2.3-0.9c0.6-0.6,0.9-1.4,1.1-2.4h2.2
		c-0.3,1.8-0.9,3.1-1.9,4c-1,0.8-2.3,1.3-3.9,1.3c-1.8,0-3.2-0.6-4.3-1.9c-1.1-1.3-1.6-2.9-1.6-4.9c0-2.4,0.6-4.2,1.7-5.6
		c1.2-1.3,2.6-2,4.4-2C195.2,193.1,196.5,193.5,197.4,194.2z"/>
	<path d="M201.9,189.7h2.3v3.8h2.2v1.9h-2.2v8.9c0,0.5,0.2,0.8,0.5,1c0.2,0.1,0.5,0.1,0.9,0.1c0.1,0,0.2,0,0.4,0c0.1,0,0.3,0,0.4,0
		v1.8c-0.3,0.1-0.5,0.1-0.8,0.2c-0.3,0-0.6,0.1-0.9,0.1c-1.1,0-1.8-0.3-2.2-0.8s-0.6-1.3-0.6-2.1v-9h-1.8v-1.9h1.8V189.7z"/>
	<path d="M216.7,194.2v-1.8c1.7-0.2,2.8-0.4,3.5-0.8c0.7-0.4,1.1-1.3,1.5-2.7h1.8v18.1H221v-12.9H216.7z"/>
</g>
<g>
	<path d="M298.2,210.5c1,0,1.6-0.1,1.8-0.3c0.2-0.1,0.3-0.6,0.3-1.4v-15.3h2.3v15.6c0,1-0.2,1.7-0.5,2.2c-0.5,0.8-1.5,1.2-3,1.2
		c-0.1,0-0.2,0-0.3,0c-0.1,0-0.3,0-0.6-0.1V210.5z M302.6,191.1h-2.3v-2.6h2.3V191.1z"/>
	<path d="M314.5,193.9c0.9,0.5,1.6,1,2.1,1.8c0.5,0.7,0.8,1.5,0.9,2.4c0.1,0.6,0.2,1.6,0.2,3h-9.9c0,1.4,0.4,2.5,1,3.3
		c0.6,0.8,1.5,1.3,2.8,1.3c1.2,0,2.1-0.4,2.8-1.2c0.4-0.5,0.7-1,0.8-1.6h2.2c-0.1,0.5-0.3,1.1-0.6,1.7c-0.3,0.6-0.7,1.1-1.1,1.5
		c-0.7,0.7-1.5,1.1-2.6,1.4c-0.5,0.1-1.2,0.2-1.9,0.2c-1.7,0-3.1-0.6-4.3-1.8s-1.8-3-1.8-5.2c0-2.2,0.6-4,1.8-5.3
		c1.2-1.4,2.7-2,4.6-2C312.7,193.2,313.6,193.4,314.5,193.9z M315.3,199.2c-0.1-1-0.3-1.8-0.6-2.4c-0.6-1.1-1.7-1.7-3.1-1.7
		c-1,0-1.9,0.4-2.6,1.1c-0.7,0.8-1.1,1.7-1.1,2.9H315.3z"/>
	<path d="M320.5,188.4h2.2v10.8l5.9-5.8h2.9l-5.2,5.1l5.5,8.5h-2.9l-4.3-6.9l-1.9,1.8v5.1h-2.2V188.4z"/>
	<path d="M342.1,193.5h2.5c-0.3,0.9-1,2.9-2.1,6c-0.8,2.3-1.5,4.2-2.1,5.7c-1.3,3.5-2.2,5.6-2.8,6.3c-0.5,0.8-1.5,1.1-2.8,1.1
		c-0.3,0-0.6,0-0.7,0c-0.2,0-0.4-0.1-0.6-0.1v-2.1c0.4,0.1,0.7,0.2,0.9,0.2c0.2,0,0.3,0,0.5,0c0.4,0,0.7-0.1,0.9-0.2
		c0.2-0.1,0.4-0.3,0.5-0.5c0-0.1,0.2-0.4,0.5-1c0.3-0.6,0.5-1.1,0.6-1.4l-5-14h2.6l3.6,11.1L342.1,193.5z"/>
	<path d="M346.6,188.4h2.3v18.6h-2.3V188.4z"/>
	<path d="M352.4,188.4h2.3v18.6h-2.3V188.4z"/>
	<path d="M365.1,193.6h2.2v1.8c0.5-0.6,1-1.1,1.5-1.4c0.8-0.5,1.7-0.8,2.7-0.8c1.5,0,2.9,0.6,3.9,1.8c1.1,1.2,1.6,2.9,1.6,5.1
		c0,3-0.8,5.1-2.3,6.3c-1,0.8-2.1,1.2-3.4,1.2c-1,0-1.9-0.2-2.6-0.7c-0.4-0.3-0.9-0.7-1.4-1.3v6.9h-2.3V193.6z M373.7,204.2
		c0.7-0.9,1.1-2.2,1.1-4c0-1.1-0.2-2-0.5-2.8c-0.6-1.5-1.7-2.2-3.3-2.2c-1.6,0-2.7,0.8-3.3,2.4c-0.3,0.8-0.5,1.9-0.5,3.2
		c0,1,0.2,1.9,0.5,2.7c0.6,1.4,1.7,2.1,3.3,2.1C372.1,205.6,373,205.1,373.7,204.2z"/>
	<path d="M379.9,193.5h2.2v2.3c0.2-0.5,0.6-1,1.3-1.7c0.7-0.7,1.5-1,2.4-1c0,0,0.1,0,0.2,0c0.1,0,0.3,0,0.5,0.1v2.4
		c-0.1,0-0.3,0-0.4-0.1c-0.1,0-0.2,0-0.4,0c-1.2,0-2,0.4-2.7,1.1c-0.6,0.7-0.9,1.6-0.9,2.6v7.8h-2.3V193.5z"/>
	<path d="M398.3,194.9c1.2,1.2,1.8,2.9,1.8,5.1c0,2.2-0.5,4-1.6,5.4c-1.1,1.4-2.7,2.1-4.9,2.1c-1.9,0-3.3-0.6-4.4-1.9
		c-1.1-1.3-1.6-3-1.6-5.1c0-2.3,0.6-4.1,1.7-5.5s2.7-2,4.6-2C395.6,193.1,397.1,193.7,398.3,194.9z M396.9,203.9
		c0.6-1.1,0.8-2.4,0.8-3.8c0-1.3-0.2-2.3-0.6-3.1c-0.6-1.3-1.7-1.9-3.3-1.9c-1.4,0-2.4,0.5-3,1.6c-0.6,1.1-0.9,2.3-0.9,3.9
		c0,1.4,0.3,2.7,0.9,3.6c0.6,1,1.6,1.4,3,1.4C395.3,205.6,396.3,205,396.9,203.9z"/>
	<path d="M400.7,210.5c1,0,1.6-0.1,1.8-0.3c0.2-0.1,0.3-0.6,0.3-1.4v-15.3h2.3v15.6c0,1-0.2,1.7-0.5,2.2c-0.5,0.8-1.5,1.2-3,1.2
		c-0.1,0-0.2,0-0.3,0c-0.1,0-0.3,0-0.6-0.1V210.5z M405.2,191.1h-2.3v-2.6h2.3V191.1z"/>
	<path d="M417.1,193.9c0.9,0.5,1.6,1,2.1,1.8c0.5,0.7,0.8,1.5,0.9,2.4c0.1,0.6,0.2,1.6,0.2,3h-9.9c0,1.4,0.4,2.5,1,3.3
		c0.6,0.8,1.5,1.3,2.8,1.3c1.2,0,2.1-0.4,2.8-1.2c0.4-0.5,0.7-1,0.8-1.6h2.2c-0.1,0.5-0.3,1.1-0.6,1.7c-0.3,0.6-0.7,1.1-1.1,1.5
		c-0.7,0.7-1.5,1.1-2.6,1.4c-0.5,0.1-1.2,0.2-1.9,0.2c-1.7,0-3.1-0.6-4.3-1.8s-1.8-3-1.8-5.2c0-2.2,0.6-4,1.8-5.3
		c1.2-1.4,2.7-2,4.6-2C415.3,193.2,416.2,193.4,417.1,193.9z M417.9,199.2c-0.1-1-0.3-1.8-0.6-2.4c-0.6-1.1-1.7-1.7-3.1-1.7
		c-1,0-1.9,0.4-2.6,1.1c-0.7,0.8-1.1,1.7-1.1,2.9H417.9z"/>
	<path d="M432.1,194.2c1,0.7,1.5,2,1.7,3.8h-2.2c-0.1-0.8-0.4-1.5-0.9-2.1c-0.5-0.6-1.3-0.8-2.3-0.8c-1.5,0-2.5,0.7-3.1,2.1
		c-0.4,0.9-0.6,2.1-0.6,3.4c0,1.4,0.3,2.5,0.9,3.4c0.6,0.9,1.5,1.4,2.7,1.4c0.9,0,1.7-0.3,2.3-0.9c0.6-0.6,0.9-1.4,1.1-2.4h2.2
		c-0.3,1.8-0.9,3.1-1.9,4c-1,0.8-2.3,1.3-3.9,1.3c-1.8,0-3.2-0.6-4.3-1.9c-1.1-1.3-1.6-2.9-1.6-4.9c0-2.4,0.6-4.2,1.7-5.6
		c1.2-1.3,2.6-2,4.4-2C429.9,193.1,431.2,193.5,432.1,194.2z"/>
	<path d="M436.6,189.7h2.3v3.8h2.2v1.9h-2.2v8.9c0,0.5,0.2,0.8,0.5,1c0.2,0.1,0.5,0.1,0.9,0.1c0.1,0,0.2,0,0.4,0c0.1,0,0.3,0,0.4,0
		v1.8c-0.3,0.1-0.5,0.1-0.8,0.2c-0.3,0-0.6,0.1-0.9,0.1c-1.1,0-1.8-0.3-2.2-0.8s-0.6-1.3-0.6-2.1v-9h-1.8v-1.9h1.8V189.7z"/>
	<path d="M450.7,203c0.6-1.2,1.7-2.2,3.3-3.2l2.4-1.4c1.1-0.6,1.9-1.2,2.3-1.6c0.7-0.7,1-1.5,1-2.4c0-1.1-0.3-1.9-1-2.5
		s-1.5-0.9-2.5-0.9c-1.6,0-2.6,0.6-3.2,1.8c-0.3,0.6-0.5,1.5-0.5,2.6h-2.3c0-1.6,0.3-2.9,0.9-3.9c1-1.8,2.7-2.6,5.2-2.6
		c2.1,0,3.6,0.6,4.6,1.7c1,1.1,1.4,2.4,1.4,3.8c0,1.5-0.5,2.7-1.5,3.7c-0.6,0.6-1.7,1.3-3.2,2.2l-1.7,1c-0.8,0.5-1.5,0.9-2,1.3
		c-0.8,0.7-1.4,1.6-1.6,2.5h9.9v2.2h-12.5C449.8,205.5,450.1,204.2,450.7,203z"/>
</g>
<g>
	<path d="M532.9,210.5c1,0,1.6-0.1,1.8-0.3c0.2-0.1,0.3-0.6,0.3-1.4v-15.3h2.3v15.6c0,1-0.2,1.7-0.5,2.2c-0.5,0.8-1.5,1.2-3,1.2
		c-0.1,0-0.2,0-0.3,0c-0.1,0-0.3,0-0.6-0.1V210.5z M537.3,191.1H535v-2.6h2.3V191.1z"/>
	<path d="M549.2,193.9c0.9,0.5,1.6,1,2.1,1.8c0.5,0.7,0.8,1.5,0.9,2.4c0.1,0.6,0.2,1.6,0.2,3h-9.9c0,1.4,0.4,2.5,1,3.3
		c0.6,0.8,1.5,1.3,2.8,1.3c1.2,0,2.1-0.4,2.8-1.2c0.4-0.5,0.7-1,0.8-1.6h2.2c-0.1,0.5-0.3,1.1-0.6,1.7c-0.3,0.6-0.7,1.1-1.1,1.5
		c-0.7,0.7-1.5,1.1-2.6,1.4c-0.5,0.1-1.2,0.2-1.9,0.2c-1.7,0-3.1-0.6-4.3-1.8s-1.8-3-1.8-5.2c0-2.2,0.6-4,1.8-5.3
		c1.2-1.4,2.7-2,4.6-2C547.4,193.2,548.3,193.4,549.2,193.9z M550,199.2c-0.1-1-0.3-1.8-0.6-2.4c-0.6-1.1-1.7-1.7-3.1-1.7
		c-1,0-1.9,0.4-2.6,1.1c-0.7,0.8-1.1,1.7-1.1,2.9H550z"/>
	<path d="M555.2,188.4h2.2v10.8l5.9-5.8h2.9l-5.2,5.1l5.5,8.5h-2.9l-4.3-6.9l-1.9,1.8v5.1h-2.2V188.4z"/>
	<path d="M576.8,193.5h2.5c-0.3,0.9-1,2.9-2.1,6c-0.8,2.3-1.5,4.2-2.1,5.7c-1.3,3.5-2.2,5.6-2.8,6.3c-0.5,0.8-1.5,1.1-2.8,1.1
		c-0.3,0-0.6,0-0.7,0c-0.2,0-0.4-0.1-0.6-0.1v-2.1c0.4,0.1,0.7,0.2,0.9,0.2c0.2,0,0.3,0,0.5,0c0.4,0,0.7-0.1,0.9-0.2
		c0.2-0.1,0.4-0.3,0.5-0.5c0-0.1,0.2-0.4,0.5-1c0.3-0.6,0.5-1.1,0.6-1.4l-5-14h2.6l3.6,11.1L576.8,193.5z"/>
	<path d="M581.3,188.4h2.3v18.6h-2.3V188.4z"/>
	<path d="M587.1,188.4h2.3v18.6h-2.3V188.4z"/>
	<path d="M599.8,193.6h2.2v1.8c0.5-0.6,1-1.1,1.5-1.4c0.8-0.5,1.7-0.8,2.7-0.8c1.5,0,2.9,0.6,3.9,1.8c1.1,1.2,1.6,2.9,1.6,5.1
		c0,3-0.8,5.1-2.3,6.3c-1,0.8-2.1,1.2-3.4,1.2c-1,0-1.9-0.2-2.6-0.7c-0.4-0.3-0.9-0.7-1.4-1.3v6.9h-2.3V193.6z M608.4,204.2
		c0.7-0.9,1.1-2.2,1.1-4c0-1.1-0.2-2-0.5-2.8c-0.6-1.5-1.7-2.2-3.3-2.2c-1.6,0-2.7,0.8-3.3,2.4c-0.3,0.8-0.5,1.9-0.5,3.2
		c0,1,0.2,1.9,0.5,2.7c0.6,1.4,1.7,2.1,3.3,2.1C606.8,205.6,607.7,205.1,608.4,204.2z"/>
	<path d="M614.6,193.5h2.2v2.3c0.2-0.5,0.6-1,1.3-1.7c0.7-0.7,1.5-1,2.4-1c0,0,0.1,0,0.2,0c0.1,0,0.3,0,0.5,0.1v2.4
		c-0.1,0-0.3,0-0.4-0.1c-0.1,0-0.2,0-0.4,0c-1.2,0-2,0.4-2.7,1.1c-0.6,0.7-0.9,1.6-0.9,2.6v7.8h-2.3V193.5z"/>
	<path d="M633,194.9c1.2,1.2,1.8,2.9,1.8,5.1c0,2.2-0.5,4-1.6,5.4c-1.1,1.4-2.7,2.1-4.9,2.1c-1.9,0-3.3-0.6-4.4-1.9
		c-1.1-1.3-1.6-3-1.6-5.1c0-2.3,0.6-4.1,1.7-5.5c1.2-1.4,2.7-2,4.6-2C630.3,193.1,631.8,193.7,633,194.9z M631.6,203.9
		c0.6-1.1,0.8-2.4,0.8-3.8c0-1.3-0.2-2.3-0.6-3.1c-0.6-1.3-1.7-1.9-3.3-1.9c-1.4,0-2.4,0.5-3,1.6c-0.6,1.1-0.9,2.4-0.9,3.9
		c0,1.4,0.3,2.6,0.9,3.6c0.6,1,1.6,1.4,3,1.4C630,205.6,631,205,631.6,203.9z"/>
	<path d="M635.4,210.5c1,0,1.6-0.1,1.8-0.3c0.2-0.1,0.3-0.6,0.3-1.4v-15.3h2.3v15.6c0,1-0.2,1.7-0.5,2.2c-0.5,0.8-1.5,1.2-3,1.2
		c-0.1,0-0.2,0-0.3,0c-0.1,0-0.3,0-0.6-0.1V210.5z M639.9,191.1h-2.3v-2.6h2.3V191.1z"/>
	<path d="M651.8,193.9c0.9,0.5,1.6,1,2.1,1.8c0.5,0.7,0.8,1.5,0.9,2.4c0.1,0.6,0.2,1.6,0.2,3h-9.9c0,1.4,0.4,2.5,1,3.3
		c0.6,0.8,1.5,1.3,2.8,1.3c1.2,0,2.1-0.4,2.8-1.2c0.4-0.5,0.7-1,0.8-1.6h2.2c-0.1,0.5-0.3,1.1-0.6,1.7c-0.3,0.6-0.7,1.1-1.1,1.5
		c-0.7,0.7-1.5,1.1-2.6,1.4c-0.5,0.1-1.2,0.2-1.9,0.2c-1.7,0-3.1-0.6-4.3-1.8s-1.8-3-1.8-5.2c0-2.2,0.6-4,1.8-5.3
		c1.2-1.4,2.7-2,4.6-2C650,193.2,650.9,193.4,651.8,193.9z M652.6,199.2c-0.1-1-0.3-1.8-0.6-2.4c-0.6-1.1-1.7-1.7-3.1-1.7
		c-1,0-1.9,0.4-2.6,1.1c-0.7,0.8-1.1,1.7-1.1,2.9H652.6z"/>
	<path d="M666.8,194.2c1,0.7,1.5,2,1.7,3.8h-2.2c-0.1-0.8-0.4-1.5-0.9-2.1c-0.5-0.6-1.3-0.8-2.3-0.8c-1.5,0-2.5,0.7-3.1,2.1
		c-0.4,0.9-0.6,2.1-0.6,3.4c0,1.4,0.3,2.5,0.9,3.4c0.6,0.9,1.5,1.4,2.7,1.4c0.9,0,1.7-0.3,2.3-0.9c0.6-0.6,0.9-1.4,1.1-2.4h2.2
		c-0.3,1.8-0.9,3.1-1.9,4c-1,0.8-2.3,1.2-3.9,1.2c-1.8,0-3.2-0.6-4.3-1.9c-1.1-1.3-1.6-2.9-1.6-4.9c0-2.4,0.6-4.2,1.7-5.6
		c1.2-1.3,2.6-2,4.4-2C664.6,193.1,665.9,193.5,666.8,194.2z"/>
	<path d="M671.3,189.7h2.3v3.8h2.2v1.9h-2.2v8.9c0,0.5,0.2,0.8,0.5,1c0.2,0.1,0.5,0.1,0.9,0.1c0.1,0,0.2,0,0.4,0c0.1,0,0.3,0,0.4,0
		v1.8c-0.3,0.1-0.5,0.1-0.8,0.2c-0.3,0-0.6,0.1-0.9,0.1c-1.1,0-1.8-0.3-2.2-0.8s-0.6-1.3-0.6-2.1v-9h-1.8v-1.9h1.8V189.7z"/>
	<path d="M685.7,205.8c-1-1.2-1.5-2.6-1.5-4.3h2.4c0.1,1.2,0.3,2,0.7,2.6c0.6,1,1.7,1.4,3.2,1.4c1.2,0,2.2-0.3,2.9-1
		c0.7-0.6,1.1-1.5,1.1-2.5c0-1.3-0.4-2.1-1.1-2.6c-0.8-0.5-1.8-0.7-3.2-0.7c-0.2,0-0.3,0-0.5,0c-0.2,0-0.3,0-0.5,0v-2
		c0.2,0,0.4,0,0.6,0.1c0.2,0,0.3,0,0.5,0c0.9,0,1.6-0.1,2.1-0.4c1-0.5,1.4-1.3,1.4-2.5c0-0.9-0.3-1.6-1-2.1
		c-0.6-0.5-1.4-0.7-2.2-0.7c-1.5,0-2.6,0.5-3.2,1.5c-0.3,0.6-0.5,1.4-0.5,2.4h-2.3c0-1.4,0.3-2.5,0.8-3.5c0.9-1.7,2.6-2.5,4.9-2.5
		c1.9,0,3.3,0.4,4.3,1.2s1.5,2,1.5,3.6c0,1.1-0.3,2-0.9,2.7c-0.4,0.4-0.9,0.8-1.4,1c1,0.3,1.7,0.8,2.2,1.5c0.5,0.7,0.8,1.7,0.8,2.7
		c0,1.7-0.6,3.1-1.7,4.2s-2.8,1.6-4.9,1.6C688.2,207.6,686.7,207,685.7,205.8z"/>
</g>
</svg>
