<?xml version="1.0" encoding="utf-8"?>
<!-- Generator: Adobe Illustrator 17.1.0, SVG Export Plug-In . SVG Version: 6.00 Build 0)  -->
<!DOCTYPE svg PUBLIC "-//W3C//DTD SVG 1.1//EN" "http://www.w3.org/Graphics/SVG/1.1/DTD/svg11.dtd">
<svg version="1.1" id="Layer_1" xmlns="http://www.w3.org/2000/svg" xmlns:xlink="http://www.w3.org/1999/xlink" x="0px" y="0px"
	 viewBox="0 0 775 445" style="enable-background:new 0 0 775 445;" xml:space="preserve">
<rect x="87" y="199" style="fill:#FFFFFF;" width="32" height="35"/>
<path d="M591.8,182.6h-30.7c-0.4,0-0.7-0.3-0.7-0.7v-42.8c0-0.4,0.3-0.7,0.7-0.7h22.3v6.4c0,1.7,1.4,3.1,3.1,3.1h6v34
	C592.5,182.3,592.1,182.6,591.8,182.6z M594.6,147.7c0-0.4-0.2-0.9-0.5-1.2l-9.1-9.8c-0.3-0.4-0.8-0.5-1.3-0.5h-22.7
	c-1.6,0-2.9,1.3-2.9,2.9v42.8c0,1.6,1.3,2.9,2.9,2.9h30.7c1.6,0,2.9-1.3,2.9-2.9L594.6,147.7z"/>
<path d="M208,43.9v-3.7c1,0.7,2.2,1.3,3.5,1.8c2.8,1.3,6.2,2.3,9.9,3.3c12,3.2,28.1,4.7,43.5,4.7s31.4-1.5,43.5-4.7
	c3.7-1,7-2,9.9-3.3c1.3-0.5,2.5-1.2,3.5-1.8v12.4c0,2-4.7,4.8-13.4,7.4c-4.5,1.3-10.2,2.5-17,3.3c-7.5,1-16.4,1.7-26.4,1.7
	c-10,0-18.9-0.7-26.4-1.7c-6.9-0.8-12.5-2-17-3.3c-8.7-2.5-13.4-5.3-13.4-7.4V43.9z M264.8,19.2c36.8,0,56.8,8,56.8,12.2
	c0,2-4.7,4.8-13.4,7.4c-4.5,1.3-10.2,2.5-17,3.3c-7.5,1-16.4,1.7-26.4,1.7c-10,0-18.9-0.7-26.4-1.7c-6.9-0.8-12.5-2-17-3.3
	c-8.7-2.5-13.4-5.3-13.4-7.4C208,27.2,228,19.2,264.8,19.2z M264.8,107.2c-36.8,0-56.8-8-56.8-12.2V82.7c1,0.7,2.2,1.3,3.5,1.8
	c2.8,1.3,6.2,2.3,9.9,3.3c12,3.2,28.1,4.7,43.5,4.7c6.5,0,13-0.3,19.4-0.8c0.5-2.3,1.2-4.5,2.2-6.5c-6.4,0.7-13.5,1-21.6,1
	c-10,0-18.9-0.7-26.4-1.7c-6.9-0.8-12.5-2-17-3.3c-8.7-2.5-13.4-5.3-13.4-7.4V61.4c1,0.7,2.2,1.3,3.5,1.8c2.8,1.3,6.2,2.3,9.9,3.3
	c12,3.2,28.1,4.7,43.5,4.7s31.4-1.5,43.5-4.7c3.7-1,7-2,9.9-3.3c1.3-0.5,2.5-1.2,3.5-1.8v6c2.2,0.5,4.3,1.2,6.4,2.2V30h-0.2
	c-2.2-11.9-33.6-17.2-63-17.2s-60.8,5.3-63,17.2h-0.2v66.3h0.2c2.2,11.9,33.8,17.4,63,17.4c7.5,0,15.2-0.3,22.6-1.2
	c-1-2-1.8-4-2.5-6.2C278.8,106.9,272.2,107.2,264.8,107.2z"/>
<path d="M327.8,95.2c0,0.5-0.5,1-1,1h-1c-0.5,0-1-0.5-1-1v-3.8c0-2.2-1.7-3.8-3.8-3.8c-2.2,0-3.8,1.7-3.8,3.8v2.8h1.5
	c0.8,0,1.5,0.7,1.5,1.5v8.7c0,0.8-0.7,1.5-1.5,1.5h-14.4c-0.8,0-1.5-0.7-1.5-1.5v-8.7c0-0.8,0.7-1.5,1.5-1.5h10v-2.8
	c0-3.7,3-6.7,6.7-6.7c3.7,0,6.7,3,6.7,6.7v3.8H327.8z M313.8,72.8c-13.2,0-24.1,10.9-24.1,24.1s10.9,24.1,24.1,24.1
	c13.2,0,24.1-10.9,24.1-24.1S327,72.8,313.8,72.8z"/>
<path d="M644.1,182.6h-30.7c-0.4,0-0.7-0.3-0.7-0.7v-42.8c0-0.4,0.3-0.7,0.7-0.7h22.3v6.4c0,1.7,1.4,3.1,3.1,3.1h6v34
	C644.8,182.3,644.5,182.6,644.1,182.6z M647,147.7c0-0.4-0.2-0.9-0.5-1.2l-9.1-9.8c-0.3-0.4-0.8-0.5-1.3-0.5h-22.7
	c-1.6,0-2.9,1.3-2.9,2.9v42.8c0,1.6,1.3,2.9,2.9,2.9h30.7c1.6,0,2.9-1.3,2.9-2.9L647,147.7z"/>
<path d="M592.6,240.5h-30.7c-0.4,0-0.7-0.3-0.7-0.7V197c0-0.4,0.3-0.7,0.7-0.7h22.3v6.4c0,1.7,1.4,3.1,3.1,3.1h6v34
	C593.3,240.2,593,240.5,592.6,240.5z M595.4,205.6c0-0.4-0.2-0.9-0.5-1.2l-9.1-9.8c-0.3-0.4-0.8-0.5-1.3-0.5h-22.7
	c-1.6,0-2.9,1.3-2.9,2.9v42.8c0,1.6,1.3,2.9,2.9,2.9h30.7c1.6,0,2.9-1.3,2.9-2.9L595.4,205.6z"/>
<path d="M644.9,240.5h-30.7c-0.4,0-0.7-0.3-0.7-0.7V197c0-0.4,0.3-0.7,0.7-0.7h22.3v6.4c0,1.7,1.4,3.1,3.1,3.1h6v34
	C645.6,240.2,645.3,240.5,644.9,240.5z M647.8,205.6c0-0.4-0.2-0.9-0.5-1.2l-9.1-9.8c-0.3-0.4-0.8-0.5-1.3-0.5h-22.7
	c-1.6,0-2.9,1.3-2.9,2.9v42.8c0,1.6,1.3,2.9,2.9,2.9H645c1.6,0,2.9-1.3,2.9-2.9L647.8,205.6z"/>
<path d="M697.3,240.5h-30.7c-0.4,0-0.7-0.3-0.7-0.7V197c0-0.4,0.3-0.7,0.7-0.7h22.3v6.4c0,1.7,1.4,3.1,3.1,3.1h6v34
	C698,240.2,697.7,240.5,697.3,240.5z M700.1,205.6c0-0.4-0.2-0.9-0.5-1.2l-9.1-9.8c-0.3-0.4-0.8-0.5-1.3-0.5h-22.7
	c-1.6,0-2.9,1.3-2.9,2.9v42.8c0,1.6,1.3,2.9,2.9,2.9h30.7c1.6,0,2.9-1.3,2.9-2.9L700.1,205.6z"/>
<path d="M593.8,302.9h-30.7c-0.4,0-0.7-0.3-0.7-0.7v-42.8c0-0.4,0.3-0.7,0.7-0.7h22.3v6.4c0,1.7,1.4,3.1,3.1,3.1h6v34
	C594.5,302.6,594.1,302.9,593.8,302.9z M596.6,268.1c0-0.4-0.2-0.9-0.5-1.2l-9.1-9.8c-0.3-0.4-0.8-0.5-1.3-0.5h-22.7
	c-1.6,0-2.9,1.3-2.9,2.9v42.8c0,1.6,1.3,2.9,2.9,2.9h30.7c1.6,0,2.9-1.3,2.9-2.9L596.6,268.1z"/>
<path d="M646.1,302.9h-30.7c-0.4,0-0.7-0.3-0.7-0.7v-42.8c0-0.4,0.3-0.7,0.7-0.7h22.3v6.4c0,1.7,1.4,3.1,3.1,3.1h6v34
	C646.8,302.6,646.5,302.9,646.1,302.9z M649,268.1c0-0.4-0.2-0.9-0.5-1.2l-9.1-9.8c-0.3-0.4-0.8-0.5-1.3-0.5h-22.7
	c-1.6,0-2.9,1.3-2.9,2.9v42.8c0,1.6,1.3,2.9,2.9,2.9h30.7c1.6,0,2.9-1.3,2.9-2.9L649,268.1z"/>
<path d="M698.5,302.9h-30.7c-0.4,0-0.7-0.3-0.7-0.7v-42.8c0-0.4,0.3-0.7,0.7-0.7h22.3v6.4c0,1.7,1.4,3.1,3.1,3.1h6v34
	C699.2,302.6,698.8,302.9,698.5,302.9z M701.3,268.1c0-0.4-0.2-0.9-0.5-1.2l-9.1-9.8c-0.3-0.4-0.8-0.5-1.3-0.5h-22.7
	c-1.6,0-2.9,1.3-2.9,2.9v42.8c0,1.6,1.3,2.9,2.9,2.9h30.7c1.6,0,2.9-1.3,2.9-2.9L701.3,268.1z"/>
<path d="M233.8,188.8h-29.4c-0.4,0-0.7-0.3-0.7-0.7v-41c0-0.4,0.3-0.7,0.7-0.7h21.4v6.2c0,1.7,1.3,3,3,3h5.7v32.5
	C234.4,188.5,234.1,188.8,233.8,188.8z M236.5,155.4c0-0.4-0.2-0.8-0.5-1.1l-8.7-9.4c-0.3-0.4-0.8-0.5-1.2-0.5h-21.7
	c-1.5,0-2.7,1.2-2.7,2.7v41c0,1.5,1.2,2.7,2.7,2.7h29.4c1.5,0,2.7-1.2,2.7-2.7L236.5,155.4z"/>
<path d="M283.9,188.8h-29.4c-0.4,0-0.7-0.3-0.7-0.7v-41c0-0.4,0.3-0.7,0.7-0.7h21.4v6.2c0,1.7,1.3,3,3,3h5.7v32.5
	C284.6,188.5,284.2,188.8,283.9,188.8z M286.6,155.4c0-0.4-0.2-0.8-0.5-1.1l-8.7-9.4c-0.3-0.4-0.8-0.5-1.2-0.5h-21.7
	c-1.5,0-2.7,1.2-2.7,2.7v41c0,1.5,1.2,2.7,2.7,2.7h29.4c1.5,0,2.7-1.2,2.7-2.7L286.6,155.4z"/>
<path d="M234.5,247.1h-29.4c-0.4,0-0.7-0.3-0.7-0.7v-41c0-0.4,0.3-0.7,0.7-0.7h21.4v6.2c0,1.7,1.3,3,3,3h5.7v32.5
	C235.2,246.8,234.9,247.1,234.5,247.1z M237.3,213.7c0-0.4-0.2-0.8-0.5-1.1l-8.7-9.4c-0.3-0.4-0.8-0.5-1.2-0.5h-21.7
	c-1.5,0-2.7,1.2-2.7,2.7v41c0,1.5,1.2,2.7,2.7,2.7h29.4c1.5,0,2.7-1.2,2.7-2.7L237.3,213.7z"/>
<path d="M284.7,247.1h-29.4c-0.4,0-0.7-0.3-0.7-0.7v-41c0-0.4,0.3-0.7,0.7-0.7h21.4v6.2c0,1.7,1.3,3,3,3h5.7v32.5
	C285.3,246.8,285,247.1,284.7,247.1z M287.4,213.7c0-0.4-0.2-0.8-0.5-1.1l-8.7-9.4c-0.3-0.4-0.8-0.5-1.2-0.5h-21.7
	c-1.5,0-2.7,1.2-2.7,2.7v41c0,1.5,1.2,2.7,2.7,2.7h29.4c1.5,0,2.7-1.2,2.7-2.7L287.4,213.7z"/>
<path d="M334.8,247.1h-29.4c-0.4,0-0.7-0.3-0.7-0.7v-41c0-0.4,0.3-0.7,0.7-0.7h21.4v6.2c0,1.7,1.3,3,3,3h5.7v32.5
	C335.5,246.8,335.2,247.1,334.8,247.1z M337.5,213.7c0-0.4-0.2-0.8-0.5-1.1l-8.7-9.4c-0.3-0.4-0.8-0.5-1.2-0.5h-21.7
	c-1.5,0-2.7,1.2-2.7,2.7v41c0,1.5,1.2,2.7,2.7,2.7h29.4c1.5,0,2.7-1.2,2.7-2.7L337.5,213.7z"/>
<path d="M334,188.8h-29.4c-0.4,0-0.7-0.3-0.7-0.7v-41c0-0.4,0.3-0.7,0.7-0.7H326v6.2c0,1.7,1.3,3,3,3h5.7v32.5
	C334.7,188.5,334.4,188.8,334,188.8z M336.8,155.4c0-0.4-0.2-0.8-0.5-1.1l-8.7-9.4c-0.3-0.4-0.8-0.5-1.2-0.5h-21.7
	c-1.5,0-2.7,1.2-2.7,2.7v41c0,1.5,1.2,2.7,2.7,2.7h29.4c1.5,0,2.7-1.2,2.7-2.7L336.8,155.4z"/>
<path d="M235.9,304.4h-29.4c-0.4,0-0.7-0.3-0.7-0.7v-41c0-0.4,0.3-0.7,0.7-0.7h21.4v6.2c0,1.7,1.3,3,3,3h5.7v32.5
	C236.6,304,236.3,304.4,235.9,304.4z M238.7,270.9c0-0.4-0.2-0.8-0.5-1.1l-8.7-9.4c-0.3-0.4-0.8-0.5-1.2-0.5h-21.7
	c-1.5,0-2.7,1.2-2.7,2.7v41c0,1.5,1.2,2.7,2.7,2.7H236c1.5,0,2.7-1.2,2.7-2.7L238.7,270.9z"/>
<path d="M286.1,304.4h-29.4c-0.4,0-0.7-0.3-0.7-0.7v-41c0-0.4,0.3-0.7,0.7-0.7H278v6.2c0,1.7,1.3,3,3,3h5.7v32.5
	C286.7,304,286.4,304.4,286.1,304.4z M288.8,270.9c0-0.4-0.2-0.8-0.5-1.1l-8.7-9.4c-0.3-0.4-0.8-0.5-1.2-0.5h-21.7
	c-1.5,0-2.7,1.2-2.7,2.7v41c0,1.5,1.2,2.7,2.7,2.7h29.4c1.5,0,2.7-1.2,2.7-2.7L288.8,270.9z"/>
<path d="M336.2,304.4h-29.4c-0.4,0-0.7-0.3-0.7-0.7v-41c0-0.4,0.3-0.7,0.7-0.7h21.4v6.2c0,1.7,1.3,3,3,3h5.7v32.5
	C336.9,304,336.5,304.4,336.2,304.4z M338.9,270.9c0-0.4-0.2-0.8-0.5-1.1l-8.7-9.4c-0.3-0.4-0.8-0.5-1.2-0.5h-21.7
	c-1.5,0-2.7,1.2-2.7,2.7v41c0,1.5,1.2,2.7,2.7,2.7h29.4c1.5,0,2.7-1.2,2.7-2.7L338.9,270.9z"/>
<path d="M337,367.9c-0.1,0-4.8,0.1-8.3,3c-3.8,3.3-5.4,8-4.5,13.9c1,6.4,3,9.9,4.1,10.9c0.4,0.3,2.2,1.9,2.2,3.4
	c0,0.5-0.2,0.8-0.5,1.1c-0.8,0.6-4.6,2.5-8.8,4.5c-1,0.5-1.8,0.8-2.3,1.1c-2.5,1.2-6.3,4-6.2,5.1c0,0.2,0,0.4,0,0.6
	c0.2,2.2,0.4,3.9,2.7,3.9h43.3c2.3,0,2.5-1.6,2.7-3.9c0-0.2,0-0.4,0.1-0.6c0.1-1.3-3.4-3.9-5.9-5.1c-0.4-0.2-1-0.5-1.8-0.9
	c-4.2-2.1-8.4-4.2-9.2-4.7c-0.4-0.2-0.5-0.5-0.5-1c-0.1-1.2,1.3-2.8,2.2-3.7c1-1,3.1-4.5,4.1-10.9c0.9-6-0.7-10.9-4.5-13.9
	C341.9,367.9,337,367.9,337,367.9z M358.6,416.7h-43.3c-3.6,0-3.8-3.1-3.9-5c0-0.2,0-0.4-0.1-0.6c-0.2-2.5,5.7-5.8,6.9-6.3
	c0.5-0.2,1.3-0.6,2.3-1.1c2.7-1.3,7.8-3.7,8.5-4.4c0.1-0.1,0.1-0.1,0.1-0.2c0-0.5-0.8-1.6-1.8-2.5c-1.2-1.2-3.4-4.9-4.4-11.6
	c-1.2-7.9,2-12.5,4.9-15c3.9-3.3,9-3.3,9.2-3.3c0.2,0,5.3,0.1,9.4,3.3c4.2,3.2,5.9,8.5,4.9,15c-1,6.7-3.2,10.5-4.4,11.6
	c-1.3,1.3-1.9,2.3-1.8,2.7c0,0.1,0,0.1,0.1,0.1c0.8,0.5,6.2,3.2,9.1,4.6c0.8,0.4,1.4,0.7,1.8,0.9c0.1,0.1,6.8,3.5,6.5,6.3
	c0,0.2,0,0.4-0.1,0.6C362.4,413.6,362.2,416.7,358.6,416.7z"/>
<path d="M693.8,363.9c-0.1,0-4.8,0.1-8.3,3c-3.8,3.3-5.4,8-4.5,13.9c1,6.4,3,9.9,4.1,10.9c0.4,0.3,2.2,1.9,2.2,3.4
	c0,0.5-0.2,0.8-0.5,1.1c-0.8,0.6-4.6,2.5-8.8,4.5c-1,0.5-1.8,0.8-2.3,1.1c-2.5,1.2-6.3,4-6.2,5.1c0,0.2,0,0.4,0,0.6
	c0.2,2.2,0.4,3.9,2.7,3.9h43.3c2.3,0,2.5-1.6,2.7-3.9c0-0.2,0-0.4,0.1-0.6c0.1-1.3-3.4-3.9-5.9-5.1c-0.4-0.2-1-0.5-1.8-0.9
	c-4.2-2.1-8.4-4.2-9.2-4.7c-0.4-0.2-0.5-0.5-0.5-1c-0.1-1.2,1.3-2.8,2.2-3.7c1-1,3.1-4.5,4.1-10.9c0.9-6-0.7-10.9-4.5-13.9
	C698.7,363.9,693.9,363.9,693.8,363.9z M715.5,412.7h-43.3c-3.6,0-3.8-3.1-3.9-5c0-0.2,0-0.4-0.1-0.6c-0.2-2.5,5.7-5.8,6.9-6.3
	c0.5-0.2,1.3-0.6,2.3-1.1c2.7-1.3,7.8-3.7,8.5-4.4c0.1-0.1,0.1-0.1,0.1-0.2c0-0.5-0.8-1.6-1.8-2.5c-1.2-1.2-3.4-4.9-4.4-11.6
	c-1.2-7.9,2-12.5,4.9-15c3.9-3.3,9-3.3,9.2-3.3c0.2,0,5.3,0.1,9.4,3.3c4.2,3.2,5.9,8.5,4.9,15c-1,6.7-3.2,10.5-4.4,11.6
	c-1.3,1.3-1.9,2.3-1.8,2.7c0,0.1,0,0.1,0.1,0.1c0.8,0.5,6.2,3.2,9.1,4.6c0.8,0.4,1.4,0.7,1.8,0.9c0.1,0.1,6.8,3.5,6.5,6.3
	c0,0.2,0,0.4-0.1,0.6C719.3,409.6,719,412.7,715.5,412.7z"/>
<g>
	<g>
		<line style="fill:none;stroke:#000102;stroke-width:2;stroke-miterlimit:10;" x1="335" y1="354" x2="335" y2="323"/>
		<g>
			<polygon style="fill:#000102;" points="342.1,325 335,312.7 327.9,325 			"/>
		</g>
	</g>
</g>
<g>
	<g>
		<line style="fill:none;stroke:#000102;stroke-width:2;stroke-miterlimit:10;" x1="320" y1="315" x2="320" y2="346"/>
		<g>
			<polygon style="fill:#000102;" points="312.9,344 320,356.3 327.1,344 			"/>
		</g>
	</g>
</g>
<g>
	<g>
		<line style="fill:none;stroke:#000102;stroke-width:2;stroke-miterlimit:10;" x1="696" y1="353" x2="696" y2="322"/>
		<g>
			<polygon style="fill:#000102;" points="703.1,324 696,311.7 688.9,324 			"/>
		</g>
	</g>
</g>
<g>
	<g>
		<line style="fill:none;stroke:#000102;stroke-width:2;stroke-miterlimit:10;" x1="681" y1="314" x2="681" y2="345"/>
		<g>
			<polygon style="fill:#000102;" points="673.9,343 681,355.3 688.1,343 			"/>
		</g>
	</g>
</g>
<g>
	<path d="M131.1,394.1h7.5c2.5,0,4.5,0.9,5.9,2.7c1.2,1.6,1.9,3.7,1.9,6.3c0,2-0.4,3.8-1.1,5.4c-1.3,2.8-3.5,4.2-6.7,4.2h-7.4V394.1
		z M138.1,410.5c0.8,0,1.5-0.1,2.1-0.3c1-0.3,1.7-1,2.4-1.9c0.5-0.8,0.8-1.7,1.1-2.9c0.1-0.7,0.2-1.4,0.2-2c0-2.3-0.4-4.1-1.3-5.4
		c-0.9-1.3-2.3-1.9-4.3-1.9h-4.4v14.3H138.1z"/>
	<path d="M156.7,404.5c0.5-0.1,0.9-0.3,1.1-0.7c0.1-0.2,0.2-0.5,0.2-0.9c0-0.8-0.3-1.3-0.8-1.7s-1.3-0.5-2.4-0.5c-1.2,0-2,0.3-2.5,1
		c-0.3,0.4-0.5,0.9-0.5,1.6h-2.1c0-1.7,0.6-2.8,1.6-3.5s2.3-1,3.6-1c1.6,0,2.9,0.3,3.9,0.9c1,0.6,1.5,1.6,1.5,2.8v7.8
		c0,0.2,0,0.4,0.1,0.6s0.3,0.2,0.6,0.2c0.1,0,0.2,0,0.3,0s0.3,0,0.4-0.1v1.7c-0.4,0.1-0.6,0.2-0.8,0.2s-0.4,0-0.8,0
		c-0.8,0-1.4-0.3-1.7-0.8c-0.2-0.3-0.3-0.7-0.4-1.3c-0.5,0.6-1.1,1.1-2,1.6c-0.9,0.4-1.8,0.7-2.9,0.7c-1.3,0-2.3-0.4-3.1-1.1
		c-0.8-0.8-1.2-1.7-1.2-2.9c0-1.3,0.4-2.2,1.2-2.9c0.8-0.7,1.8-1.1,3.1-1.3L156.7,404.5z M151.9,410.6c0.5,0.4,1.1,0.6,1.7,0.6
		c0.8,0,1.6-0.2,2.3-0.6c1.3-0.6,1.9-1.6,1.9-3v-1.8c-0.3,0.2-0.6,0.3-1.1,0.4c-0.4,0.1-0.9,0.2-1.3,0.3l-1.4,0.2
		c-0.8,0.1-1.5,0.3-1.9,0.5c-0.7,0.4-1.1,1-1.1,1.9C151.2,409.7,151.4,410.3,151.9,410.6z"/>
	<path d="M164.4,395.3h2.3v3.8h2.2v1.9h-2.2v8.9c0,0.5,0.2,0.8,0.5,1c0.2,0.1,0.5,0.1,0.9,0.1c0.1,0,0.2,0,0.4,0s0.3,0,0.4,0v1.8
		c-0.3,0.1-0.5,0.1-0.8,0.2s-0.6,0.1-0.9,0.1c-1.1,0-1.8-0.3-2.2-0.8s-0.6-1.3-0.6-2.1v-9h-1.8v-1.9h1.8V395.3z"/>
	<path d="M178.4,404.5c0.5-0.1,0.9-0.3,1.1-0.7c0.1-0.2,0.2-0.5,0.2-0.9c0-0.8-0.3-1.3-0.8-1.7s-1.3-0.5-2.4-0.5c-1.2,0-2,0.3-2.5,1
		c-0.3,0.4-0.5,0.9-0.5,1.6h-2.1c0-1.7,0.6-2.8,1.6-3.5s2.3-1,3.6-1c1.6,0,2.9,0.3,3.9,0.9c1,0.6,1.5,1.6,1.5,2.8v7.8
		c0,0.2,0,0.4,0.1,0.6s0.3,0.2,0.6,0.2c0.1,0,0.2,0,0.3,0s0.3,0,0.4-0.1v1.7c-0.4,0.1-0.6,0.2-0.8,0.2s-0.4,0-0.8,0
		c-0.8,0-1.4-0.3-1.7-0.8c-0.2-0.3-0.3-0.7-0.4-1.3c-0.5,0.6-1.1,1.1-2,1.6c-0.9,0.4-1.8,0.7-2.9,0.7c-1.3,0-2.3-0.4-3.1-1.1
		c-0.8-0.8-1.2-1.7-1.2-2.9c0-1.3,0.4-2.2,1.2-2.9c0.8-0.7,1.8-1.1,3.1-1.3L178.4,404.5z M173.6,410.6c0.5,0.4,1.1,0.6,1.7,0.6
		c0.8,0,1.6-0.2,2.3-0.6c1.3-0.6,1.9-1.6,1.9-3v-1.8c-0.3,0.2-0.6,0.3-1.1,0.4c-0.4,0.1-0.9,0.2-1.3,0.3l-1.4,0.2
		c-0.8,0.1-1.5,0.3-1.9,0.5c-0.7,0.4-1.1,1-1.1,1.9C172.9,409.7,173.1,410.3,173.6,410.6z"/>
	<path d="M185.4,394h2.2v6.8c0.5-0.7,1.1-1.1,1.8-1.5s1.5-0.5,2.3-0.5c1.7,0,3.1,0.6,4.1,1.7c1.1,1.2,1.6,2.9,1.6,5.1
		c0,2.1-0.5,3.9-1.6,5.4c-1,1.4-2.5,2.1-4.3,2.1c-1,0-1.9-0.2-2.6-0.7c-0.4-0.3-0.9-0.8-1.4-1.4v1.7h-2.1V394z M194.1,409.6
		c0.6-1,0.9-2.3,0.9-3.9c0-1.4-0.3-2.6-0.9-3.6c-0.6-0.9-1.5-1.4-2.7-1.4c-1,0-2,0.4-2.7,1.2s-1.2,2-1.2,3.8c0,1.3,0.2,2.3,0.5,3.1
		c0.6,1.5,1.7,2.2,3.4,2.2C192.6,411.1,193.5,410.6,194.1,409.6z"/>
	<path d="M207.3,404.5c0.5-0.1,0.9-0.3,1.1-0.7c0.1-0.2,0.2-0.5,0.2-0.9c0-0.8-0.3-1.3-0.8-1.7s-1.3-0.5-2.4-0.5c-1.2,0-2,0.3-2.5,1
		c-0.3,0.4-0.5,0.9-0.5,1.6h-2.1c0-1.7,0.6-2.8,1.6-3.5s2.3-1,3.6-1c1.6,0,2.9,0.3,3.9,0.9c1,0.6,1.5,1.6,1.5,2.8v7.8
		c0,0.2,0,0.4,0.1,0.6s0.3,0.2,0.6,0.2c0.1,0,0.2,0,0.3,0s0.3,0,0.4-0.1v1.7c-0.4,0.1-0.6,0.2-0.8,0.2s-0.4,0-0.8,0
		c-0.8,0-1.4-0.3-1.7-0.8c-0.2-0.3-0.3-0.7-0.4-1.3c-0.5,0.6-1.1,1.1-2,1.6c-0.9,0.4-1.8,0.7-2.9,0.7c-1.3,0-2.3-0.4-3.1-1.1
		c-0.8-0.8-1.2-1.7-1.2-2.9c0-1.3,0.4-2.2,1.2-2.9c0.8-0.7,1.8-1.1,3.1-1.3L207.3,404.5z M202.5,410.6c0.5,0.4,1.1,0.6,1.7,0.6
		c0.8,0,1.6-0.2,2.3-0.6c1.3-0.6,1.9-1.6,1.9-3v-1.8c-0.3,0.2-0.6,0.3-1.1,0.4c-0.4,0.1-0.9,0.2-1.3,0.3l-1.4,0.2
		c-0.8,0.1-1.5,0.3-1.9,0.5c-0.7,0.4-1.1,1-1.1,1.9C201.8,409.7,202,410.3,202.5,410.6z"/>
	<path d="M215.9,408.4c0.1,0.8,0.3,1.3,0.6,1.8c0.6,0.7,1.6,1.1,3.1,1.1c0.9,0,1.6-0.2,2.3-0.6s1-0.9,1-1.7c0-0.6-0.3-1-0.8-1.3
		c-0.3-0.2-1-0.4-2-0.6l-1.8-0.5c-1.2-0.3-2-0.6-2.6-1c-1-0.6-1.5-1.5-1.5-2.6c0-1.3,0.5-2.3,1.4-3.1s2.2-1.2,3.8-1.2
		c2.1,0,3.6,0.6,4.5,1.8c0.6,0.8,0.9,1.6,0.8,2.5h-2.2c0-0.5-0.2-1-0.6-1.4c-0.5-0.6-1.5-0.9-2.8-0.9c-0.9,0-1.6,0.2-2,0.5
		c-0.5,0.3-0.7,0.8-0.7,1.3c0,0.6,0.3,1.1,0.9,1.4c0.3,0.2,0.9,0.4,1.5,0.6l1.5,0.4c1.7,0.4,2.8,0.8,3.4,1.2
		c0.9,0.6,1.3,1.5,1.3,2.8c0,1.2-0.5,2.3-1.4,3.1s-2.3,1.3-4.2,1.3c-2,0-3.5-0.5-4.4-1.4c-0.9-0.9-1.3-2.1-1.4-3.4H215.9z"/>
	<path d="M235.9,399.5c0.9,0.5,1.6,1,2.1,1.8c0.5,0.7,0.8,1.5,0.9,2.4c0.1,0.6,0.2,1.6,0.2,3h-9.9c0,1.4,0.4,2.5,1,3.3
		c0.6,0.8,1.5,1.3,2.8,1.3c1.2,0,2.1-0.4,2.8-1.2c0.4-0.5,0.7-1,0.8-1.6h2.2c-0.1,0.5-0.3,1.1-0.6,1.7s-0.7,1.1-1.1,1.5
		c-0.7,0.7-1.5,1.1-2.6,1.4c-0.5,0.1-1.2,0.2-1.9,0.2c-1.7,0-3.1-0.6-4.3-1.8c-1.2-1.2-1.8-3-1.8-5.2c0-2.2,0.6-4,1.8-5.3
		c1.2-1.4,2.7-2,4.6-2C234.1,398.8,235,399,235.9,399.5z M236.7,404.8c-0.1-1-0.3-1.8-0.6-2.4c-0.6-1.1-1.7-1.7-3.1-1.7
		c-1,0-1.9,0.4-2.6,1.1c-0.7,0.8-1.1,1.7-1.1,2.9H236.7z"/>
	<path d="M262.7,395.4c1.3,1.2,2,2.7,2.1,4.2h-2.5c-0.3-1.2-0.8-2.2-1.6-2.9s-2-1.1-3.4-1.1c-1.8,0-3.3,0.6-4.4,1.9
		c-1.1,1.3-1.7,3.3-1.7,5.9c0,2.2,0.5,4,1.5,5.3c1,1.4,2.5,2,4.5,2c1.8,0,3.2-0.7,4.2-2.1c0.5-0.8,0.9-1.7,1.1-3h2.5
		c-0.2,2-0.9,3.6-2.2,4.9c-1.5,1.6-3.4,2.4-5.9,2.4c-2.1,0-3.9-0.7-5.4-2c-1.9-1.7-2.9-4.4-2.9-8c0-2.8,0.7-5,2.2-6.8
		c1.6-1.9,3.7-2.9,6.4-2.9C259.6,393.5,261.4,394.2,262.7,395.4z"/>
	<path d="M268.2,394.1h3.6l5.4,15.8l5.3-15.8h3.6v18.6h-2.4v-11c0-0.4,0-1,0-1.9s0-1.8,0-2.8l-5.3,15.7h-2.5l-5.4-15.7v0.6
		c0,0.5,0,1.2,0,2.1s0,1.6,0,2.1v11h-2.4V394.1z"/>
	<path d="M291.6,406.7c0.1,1.1,0.3,1.9,0.7,2.6c0.8,1.2,2.2,1.9,4.3,1.9c0.9,0,1.7-0.1,2.5-0.4c1.5-0.5,2.2-1.5,2.2-2.8
		c0-1-0.3-1.7-0.9-2.2c-0.6-0.4-1.6-0.8-2.9-1.1L295,404c-1.6-0.4-2.7-0.8-3.4-1.2c-1.1-0.8-1.7-1.9-1.7-3.5c0-1.7,0.6-3.1,1.7-4.1
		s2.7-1.6,4.8-1.6c1.9,0,3.5,0.5,4.8,1.4s2,2.5,2,4.5h-2.4c-0.1-1-0.4-1.8-0.8-2.3c-0.7-1-2-1.5-3.8-1.5c-1.4,0-2.5,0.3-3.1,0.9
		s-0.9,1.4-0.9,2.2c0,0.9,0.4,1.6,1.1,2c0.5,0.3,1.6,0.6,3.3,1l2.5,0.6c1.2,0.3,2.2,0.7,2.8,1.2c1.1,0.9,1.7,2.1,1.7,3.8
		c0,2.1-0.7,3.5-2.2,4.4c-1.5,0.9-3.2,1.3-5.1,1.3c-2.3,0-4-0.6-5.3-1.8c-1.3-1.2-1.9-2.8-1.9-4.8H291.6z"/>
</g>
<g>
	<path d="M535.3,376c0.1,1.1,0.3,1.9,0.7,2.6c0.8,1.2,2.2,1.9,4.3,1.9c0.9,0,1.7-0.1,2.5-0.4c1.5-0.5,2.2-1.5,2.2-2.8
		c0-1-0.3-1.7-0.9-2.2c-0.6-0.4-1.6-0.8-2.9-1.1l-2.4-0.6c-1.6-0.4-2.7-0.8-3.4-1.2c-1.1-0.8-1.7-1.9-1.7-3.5c0-1.7,0.6-3.1,1.7-4.1
		c1.1-1.1,2.7-1.6,4.8-1.6c1.9,0,3.5,0.5,4.8,1.4s2,2.5,2,4.5h-2.4c-0.1-1-0.4-1.8-0.8-2.3c-0.7-1-2-1.5-3.8-1.5
		c-1.4,0-2.5,0.3-3.1,0.9s-0.9,1.4-0.9,2.2c0,0.9,0.4,1.6,1.1,2c0.5,0.3,1.6,0.6,3.3,1l2.5,0.6c1.2,0.3,2.2,0.7,2.8,1.2
		c1.1,0.9,1.7,2.1,1.7,3.8c0,2.1-0.7,3.5-2.2,4.4s-3.2,1.3-5.1,1.3c-2.3,0-4-0.6-5.3-1.8c-1.3-1.2-1.9-2.8-1.9-4.8H535.3z"/>
	<path d="M551.2,364.6h2.3v3.8h2.2v1.9h-2.2v8.9c0,0.5,0.2,0.8,0.5,1c0.2,0.1,0.5,0.1,0.9,0.1c0.1,0,0.2,0,0.4,0s0.3,0,0.4,0v1.8
		c-0.3,0.1-0.5,0.1-0.8,0.2c-0.3,0-0.6,0.1-0.9,0.1c-1.1,0-1.8-0.3-2.2-0.8s-0.6-1.3-0.6-2.1v-9h-1.8v-1.9h1.8V364.6z"/>
	<path d="M565.2,373.8c0.5-0.1,0.9-0.3,1.1-0.7c0.1-0.2,0.2-0.5,0.2-0.9c0-0.8-0.3-1.3-0.8-1.7c-0.6-0.4-1.3-0.5-2.4-0.5
		c-1.2,0-2,0.3-2.5,1c-0.3,0.4-0.5,0.9-0.5,1.6H558c0-1.7,0.6-2.8,1.6-3.5s2.3-1,3.6-1c1.6,0,2.9,0.3,3.9,0.9c1,0.6,1.5,1.6,1.5,2.8
		v7.8c0,0.2,0,0.4,0.1,0.6c0.1,0.1,0.3,0.2,0.6,0.2c0.1,0,0.2,0,0.3,0s0.3,0,0.4-0.1v1.7c-0.4,0.1-0.6,0.2-0.8,0.2
		c-0.2,0-0.4,0-0.8,0c-0.8,0-1.4-0.3-1.7-0.8c-0.2-0.3-0.3-0.7-0.4-1.3c-0.5,0.6-1.1,1.1-2,1.6c-0.9,0.4-1.8,0.7-2.9,0.7
		c-1.3,0-2.3-0.4-3.1-1.1c-0.8-0.8-1.2-1.7-1.2-2.9c0-1.3,0.4-2.2,1.2-2.9c0.8-0.7,1.8-1.1,3.1-1.3L565.2,373.8z M560.4,379.9
		c0.5,0.4,1.1,0.6,1.7,0.6c0.8,0,1.6-0.2,2.3-0.6c1.3-0.6,1.9-1.6,1.9-3v-1.8c-0.3,0.2-0.6,0.3-1.1,0.4c-0.4,0.1-0.9,0.2-1.3,0.3
		l-1.4,0.2c-0.8,0.1-1.5,0.3-1.9,0.5c-0.7,0.4-1.1,1-1.1,1.9C559.7,379,559.9,379.6,560.4,379.9z"/>
	<path d="M572.9,364.6h2.3v3.8h2.2v1.9h-2.2v8.9c0,0.5,0.2,0.8,0.5,1c0.2,0.1,0.5,0.1,0.9,0.1c0.1,0,0.2,0,0.4,0s0.3,0,0.4,0v1.8
		c-0.3,0.1-0.5,0.1-0.8,0.2c-0.3,0-0.6,0.1-0.9,0.1c-1.1,0-1.8-0.3-2.2-0.8s-0.6-1.3-0.6-2.1v-9H571v-1.9h1.8V364.6z"/>
	<path d="M579.6,363.4h2.3v2.6h-2.3V363.4z M579.6,368.5h2.3V382h-2.3V368.5z"/>
	<path d="M594.4,369.1c1,0.7,1.5,2,1.7,3.8h-2.2c-0.1-0.8-0.4-1.5-0.9-2.1s-1.3-0.8-2.3-0.8c-1.5,0-2.5,0.7-3.1,2.1
		c-0.4,0.9-0.6,2.1-0.6,3.4c0,1.4,0.3,2.5,0.9,3.4c0.6,0.9,1.5,1.4,2.7,1.4c0.9,0,1.7-0.3,2.3-0.9c0.6-0.6,0.9-1.4,1.1-2.4h2.2
		c-0.3,1.8-0.9,3.1-1.9,4s-2.3,1.3-3.9,1.3c-1.8,0-3.2-0.6-4.3-1.9c-1.1-1.3-1.6-2.9-1.6-4.9c0-2.4,0.6-4.2,1.7-5.6
		c1.2-1.3,2.6-2,4.4-2C592.2,368,593.4,368.4,594.4,369.1z"/>
	<path d="M607,377.7c0.1,0.8,0.3,1.3,0.6,1.8c0.6,0.7,1.6,1.1,3.1,1.1c0.9,0,1.6-0.2,2.3-0.6c0.7-0.4,1-0.9,1-1.7
		c0-0.6-0.3-1-0.8-1.3c-0.3-0.2-1-0.4-2-0.6l-1.8-0.5c-1.2-0.3-2-0.6-2.6-1c-1-0.6-1.5-1.5-1.5-2.6c0-1.3,0.5-2.3,1.4-3.1
		c0.9-0.8,2.2-1.2,3.8-1.2c2.1,0,3.6,0.6,4.5,1.8c0.6,0.8,0.9,1.6,0.8,2.5h-2.2c0-0.5-0.2-1-0.6-1.4c-0.5-0.6-1.5-0.9-2.8-0.9
		c-0.9,0-1.6,0.2-2,0.5c-0.5,0.3-0.7,0.8-0.7,1.3c0,0.6,0.3,1.1,0.9,1.4c0.3,0.2,0.9,0.4,1.5,0.6l1.5,0.4c1.7,0.4,2.8,0.8,3.4,1.2
		c0.9,0.6,1.3,1.5,1.3,2.8c0,1.2-0.5,2.3-1.4,3.1s-2.3,1.3-4.2,1.3c-2,0-3.5-0.5-4.4-1.4s-1.3-2.1-1.4-3.4H607z"/>
	<path d="M618.6,363.4h2.3v2.6h-2.3V363.4z M618.6,368.5h2.3V382h-2.3V368.5z"/>
	<path d="M624.9,364.6h2.3v3.8h2.2v1.9h-2.2v8.9c0,0.5,0.2,0.8,0.5,1c0.2,0.1,0.5,0.1,0.9,0.1c0.1,0,0.2,0,0.4,0s0.3,0,0.4,0v1.8
		c-0.3,0.1-0.5,0.1-0.8,0.2c-0.3,0-0.6,0.1-0.9,0.1c-1.1,0-1.8-0.3-2.2-0.8s-0.6-1.3-0.6-2.1v-9H623v-1.9h1.8V364.6z"/>
	<path d="M640,368.8c0.9,0.5,1.6,1,2.1,1.8c0.5,0.7,0.8,1.5,0.9,2.4c0.1,0.6,0.2,1.6,0.2,3h-9.9c0,1.4,0.4,2.5,1,3.3
		c0.6,0.8,1.5,1.3,2.8,1.3c1.2,0,2.1-0.4,2.8-1.2c0.4-0.5,0.7-1,0.8-1.6h2.2c-0.1,0.5-0.3,1.1-0.6,1.7c-0.3,0.6-0.7,1.1-1.1,1.5
		c-0.7,0.7-1.5,1.1-2.6,1.4c-0.5,0.1-1.2,0.2-1.9,0.2c-1.7,0-3.1-0.6-4.3-1.8s-1.8-3-1.8-5.2c0-2.2,0.6-4,1.8-5.3s2.7-2,4.6-2
		C638.2,368.1,639.1,368.3,640,368.8z M640.9,374.1c-0.1-1-0.3-1.8-0.6-2.4c-0.6-1.1-1.7-1.7-3.1-1.7c-1,0-1.9,0.4-2.6,1.1
		c-0.7,0.8-1.1,1.7-1.1,2.9H640.9z"/>
	<path d="M540.9,400.1c0.4,0.3,0.9,0.7,1.3,1.3v-1.7h2.1v12.4c0,1.7-0.3,3.1-0.8,4.1c-0.9,1.8-2.7,2.8-5.4,2.8c-1.5,0-2.7-0.3-3.7-1
		s-1.6-1.7-1.7-3.1h2.3c0.1,0.6,0.3,1.1,0.7,1.4c0.5,0.5,1.3,0.8,2.4,0.8c1.7,0,2.9-0.6,3.4-1.9c0.3-0.7,0.5-2,0.4-3.9
		c-0.5,0.7-1,1.2-1.6,1.5s-1.5,0.5-2.5,0.5c-1.5,0-2.8-0.5-3.9-1.6c-1.1-1-1.7-2.8-1.7-5.2c0-2.3,0.6-4.1,1.7-5.3s2.4-1.9,4-1.9
		C539.2,399.4,540.2,399.6,540.9,400.1z M541.2,402.6c-0.7-0.8-1.6-1.2-2.6-1.2c-1.6,0-2.7,0.8-3.3,2.3c-0.3,0.8-0.5,1.9-0.5,3.2
		c0,1.5,0.3,2.7,0.9,3.5s1.5,1.2,2.5,1.2c1.6,0,2.8-0.7,3.4-2.2c0.4-0.8,0.6-1.8,0.6-2.9C542.3,404.7,541.9,403.4,541.2,402.6z"/>
	<path d="M556.2,400c0.9,0.5,1.6,1,2.1,1.8c0.5,0.7,0.8,1.5,0.9,2.4c0.1,0.6,0.2,1.6,0.2,3h-9.9c0,1.4,0.4,2.5,1,3.3
		c0.6,0.8,1.5,1.3,2.8,1.3c1.2,0,2.1-0.4,2.8-1.2c0.4-0.5,0.7-1,0.8-1.6h2.2c-0.1,0.5-0.3,1.1-0.6,1.7c-0.3,0.6-0.7,1.1-1.1,1.5
		c-0.7,0.7-1.5,1.1-2.6,1.4c-0.5,0.1-1.2,0.2-1.9,0.2c-1.7,0-3.1-0.6-4.3-1.8s-1.8-3-1.8-5.2c0-2.2,0.6-4,1.8-5.3s2.7-2,4.6-2
		C554.4,399.3,555.3,399.5,556.2,400z M557.1,405.3c-0.1-1-0.3-1.8-0.6-2.4c-0.6-1.1-1.7-1.7-3.1-1.7c-1,0-1.9,0.4-2.6,1.1
		c-0.7,0.8-1.1,1.7-1.1,2.9H557.1z"/>
	<path d="M562.3,399.6h2.2v1.9c0.6-0.8,1.3-1.4,2-1.7c0.7-0.3,1.5-0.5,2.4-0.5c1.9,0,3.2,0.7,3.9,2c0.4,0.7,0.6,1.8,0.6,3.2v8.7
		h-2.3v-8.6c0-0.8-0.1-1.5-0.4-2c-0.4-0.8-1.1-1.3-2.2-1.3c-0.5,0-1,0.1-1.3,0.2c-0.6,0.2-1.2,0.6-1.7,1.1c-0.4,0.4-0.6,0.9-0.7,1.4
		s-0.2,1.2-0.2,2.1v7.1h-2.3V399.6z"/>
	<path d="M585.2,400c0.9,0.5,1.6,1,2.1,1.8c0.5,0.7,0.8,1.5,0.9,2.4c0.1,0.6,0.2,1.6,0.2,3h-9.9c0,1.4,0.4,2.5,1,3.3
		c0.6,0.8,1.5,1.3,2.8,1.3c1.2,0,2.1-0.4,2.8-1.2c0.4-0.5,0.7-1,0.8-1.6h2.2c-0.1,0.5-0.3,1.1-0.6,1.7c-0.3,0.6-0.7,1.1-1.1,1.5
		c-0.7,0.7-1.5,1.1-2.6,1.4c-0.5,0.1-1.2,0.2-1.9,0.2c-1.7,0-3.1-0.6-4.3-1.8s-1.8-3-1.8-5.2c0-2.2,0.6-4,1.8-5.3s2.7-2,4.6-2
		C583.3,399.3,584.3,399.5,585.2,400z M586,405.3c-0.1-1-0.3-1.8-0.6-2.4c-0.6-1.1-1.7-1.7-3.1-1.7c-1,0-1.9,0.4-2.6,1.1
		c-0.7,0.8-1.1,1.7-1.1,2.9H586z"/>
	<path d="M591.3,399.6h2.2v2.3c0.2-0.5,0.6-1,1.3-1.7c0.7-0.7,1.5-1,2.4-1c0,0,0.1,0,0.2,0s0.3,0,0.5,0.1v2.4c-0.1,0-0.3,0-0.4-0.1
		s-0.2,0-0.4,0c-1.2,0-2,0.4-2.7,1.1c-0.6,0.7-0.9,1.6-0.9,2.6v7.8h-2.3V399.6z"/>
	<path d="M607.2,405c0.5-0.1,0.9-0.3,1.1-0.7c0.1-0.2,0.2-0.5,0.2-0.9c0-0.8-0.3-1.3-0.8-1.7c-0.6-0.4-1.3-0.5-2.4-0.5
		c-1.2,0-2,0.3-2.5,1c-0.3,0.4-0.5,0.9-0.5,1.6H600c0-1.7,0.6-2.8,1.6-3.5s2.3-1,3.6-1c1.6,0,2.9,0.3,3.9,0.9c1,0.6,1.5,1.6,1.5,2.8
		v7.8c0,0.2,0,0.4,0.1,0.6c0.1,0.1,0.3,0.2,0.6,0.2c0.1,0,0.2,0,0.3,0s0.3,0,0.4-0.1v1.7c-0.4,0.1-0.6,0.2-0.8,0.2
		c-0.2,0-0.4,0-0.8,0c-0.8,0-1.4-0.3-1.7-0.8c-0.2-0.3-0.3-0.7-0.4-1.3c-0.5,0.6-1.1,1.1-2,1.6c-0.9,0.4-1.8,0.7-2.9,0.7
		c-1.3,0-2.3-0.4-3.1-1.1c-0.8-0.8-1.2-1.7-1.2-2.9c0-1.3,0.4-2.2,1.2-2.9c0.8-0.7,1.8-1.1,3.1-1.3L607.2,405z M602.4,411.1
		c0.5,0.4,1.1,0.6,1.7,0.6c0.8,0,1.6-0.2,2.3-0.6c1.3-0.6,1.9-1.6,1.9-3v-1.8c-0.3,0.2-0.6,0.3-1.1,0.4c-0.4,0.1-0.9,0.2-1.3,0.3
		l-1.4,0.2c-0.8,0.1-1.5,0.3-1.9,0.5c-0.7,0.4-1.1,1-1.1,1.9C601.6,410.2,601.9,410.8,602.4,411.1z"/>
	<path d="M614.8,395.8h2.3v3.8h2.2v1.9h-2.2v8.9c0,0.5,0.2,0.8,0.5,1c0.2,0.1,0.5,0.1,0.9,0.1c0.1,0,0.2,0,0.4,0s0.3,0,0.4,0v1.8
		c-0.3,0.1-0.5,0.1-0.8,0.2c-0.3,0-0.6,0.1-0.9,0.1c-1.1,0-1.8-0.3-2.2-0.8s-0.6-1.3-0.6-2.1v-9H613v-1.9h1.8V395.8z"/>
	<path d="M631.4,401c1.2,1.2,1.8,2.9,1.8,5.1c0,2.2-0.5,4-1.6,5.4c-1.1,1.4-2.7,2.1-4.9,2.1c-1.9,0-3.3-0.6-4.4-1.9s-1.6-3-1.6-5.1
		c0-2.3,0.6-4.1,1.7-5.5c1.2-1.4,2.7-2,4.6-2C628.8,399.2,630.2,399.8,631.4,401z M630,410c0.6-1.1,0.8-2.4,0.8-3.8
		c0-1.3-0.2-2.3-0.6-3.1c-0.6-1.3-1.7-1.9-3.3-1.9c-1.4,0-2.4,0.5-3,1.6c-0.6,1.1-0.9,2.4-0.9,3.9c0,1.4,0.3,2.6,0.9,3.6
		c0.6,1,1.6,1.4,3,1.4C628.4,411.7,629.4,411.1,630,410z"/>
	<path d="M636.1,399.6h2.2v2.3c0.2-0.5,0.6-1,1.3-1.7c0.7-0.7,1.5-1,2.4-1c0,0,0.1,0,0.2,0s0.3,0,0.5,0.1v2.4c-0.1,0-0.3,0-0.4-0.1
		s-0.2,0-0.4,0c-1.2,0-2,0.4-2.7,1.1c-0.6,0.7-0.9,1.6-0.9,2.6v7.8h-2.3V399.6z"/>
	<path d="M646,408.9c0.1,0.8,0.3,1.3,0.6,1.8c0.6,0.7,1.6,1.1,3.1,1.1c0.9,0,1.6-0.2,2.3-0.6c0.7-0.4,1-0.9,1-1.7
		c0-0.6-0.3-1-0.8-1.3c-0.3-0.2-1-0.4-2-0.6l-1.8-0.5c-1.2-0.3-2-0.6-2.6-1c-1-0.6-1.5-1.5-1.5-2.6c0-1.3,0.5-2.3,1.4-3.1
		c0.9-0.8,2.2-1.2,3.8-1.2c2.1,0,3.6,0.6,4.5,1.8c0.6,0.8,0.9,1.6,0.8,2.5h-2.2c0-0.5-0.2-1-0.6-1.4c-0.5-0.6-1.5-0.9-2.8-0.9
		c-0.9,0-1.6,0.2-2,0.5c-0.5,0.3-0.7,0.8-0.7,1.3c0,0.6,0.3,1.1,0.9,1.4c0.3,0.2,0.9,0.4,1.5,0.6l1.5,0.4c1.7,0.4,2.8,0.8,3.4,1.2
		c0.9,0.6,1.3,1.5,1.3,2.8c0,1.2-0.5,2.3-1.4,3.1s-2.3,1.3-4.2,1.3c-2,0-3.5-0.5-4.4-1.4s-1.3-2.1-1.4-3.4H646z"/>
</g>
<g>
	<line style="fill:none;stroke:#000000;stroke-width:2;stroke-miterlimit:10;" x1="92" y1="204" x2="112" y2="204"/>
	<line style="fill:none;stroke:#000000;stroke-width:2;stroke-miterlimit:10;" x1="92" y1="212" x2="112" y2="212"/>
	<line style="fill:none;stroke:#000000;stroke-width:2;stroke-miterlimit:10;" x1="92" y1="220" x2="112" y2="220"/>
	<line style="fill:none;stroke:#000000;stroke-width:2;stroke-miterlimit:10;" x1="92" y1="228" x2="112" y2="228"/>
</g>
<line style="fill:none;stroke:#000000;stroke-width:2;stroke-miterlimit:10;" x1="566" y1="152" x2="586" y2="152"/>
<line style="fill:none;stroke:#000000;stroke-width:2;stroke-miterlimit:10;" x1="566" y1="160" x2="586" y2="160"/>
<line style="fill:none;stroke:#000000;stroke-width:2;stroke-miterlimit:10;" x1="566" y1="168" x2="586" y2="168"/>
<line style="fill:none;stroke:#000000;stroke-width:2;stroke-miterlimit:10;" x1="566" y1="176" x2="586" y2="176"/>
<line style="fill:none;stroke:#000000;stroke-width:2;stroke-miterlimit:10;" x1="619" y1="152" x2="639" y2="152"/>
<line style="fill:none;stroke:#000000;stroke-width:2;stroke-miterlimit:10;" x1="619" y1="160" x2="639" y2="160"/>
<line style="fill:none;stroke:#000000;stroke-width:2;stroke-miterlimit:10;" x1="619" y1="168" x2="639" y2="168"/>
<line style="fill:none;stroke:#000000;stroke-width:2;stroke-miterlimit:10;" x1="619" y1="176" x2="639" y2="176"/>
<line style="fill:none;stroke:#000000;stroke-width:2;stroke-miterlimit:10;" x1="567" y1="210" x2="587" y2="210"/>
<line style="fill:none;stroke:#000000;stroke-width:2;stroke-miterlimit:10;" x1="567" y1="218" x2="587" y2="218"/>
<line style="fill:none;stroke:#000000;stroke-width:2;stroke-miterlimit:10;" x1="567" y1="226" x2="587" y2="226"/>
<line style="fill:none;stroke:#000000;stroke-width:2;stroke-miterlimit:10;" x1="567" y1="234" x2="587" y2="234"/>
<line style="fill:none;stroke:#000000;stroke-width:2;stroke-miterlimit:10;" x1="568" y1="271" x2="588" y2="271"/>
<line style="fill:none;stroke:#000000;stroke-width:2;stroke-miterlimit:10;" x1="568" y1="279" x2="588" y2="279"/>
<line style="fill:none;stroke:#000000;stroke-width:2;stroke-miterlimit:10;" x1="568" y1="287" x2="588" y2="287"/>
<line style="fill:none;stroke:#000000;stroke-width:2;stroke-miterlimit:10;" x1="568" y1="295" x2="588" y2="295"/>
<line style="fill:none;stroke:#000000;stroke-width:2;stroke-miterlimit:10;" x1="619" y1="210" x2="639" y2="210"/>
<line style="fill:none;stroke:#000000;stroke-width:2;stroke-miterlimit:10;" x1="619" y1="218" x2="639" y2="218"/>
<line style="fill:none;stroke:#000000;stroke-width:2;stroke-miterlimit:10;" x1="619" y1="226" x2="639" y2="226"/>
<line style="fill:none;stroke:#000000;stroke-width:2;stroke-miterlimit:10;" x1="619" y1="234" x2="639" y2="234"/>
<line style="fill:none;stroke:#000000;stroke-width:2;stroke-miterlimit:10;" x1="671" y1="208" x2="691" y2="208"/>
<line style="fill:none;stroke:#000000;stroke-width:2;stroke-miterlimit:10;" x1="671" y1="216" x2="691" y2="216"/>
<line style="fill:none;stroke:#000000;stroke-width:2;stroke-miterlimit:10;" x1="671" y1="224" x2="691" y2="224"/>
<line style="fill:none;stroke:#000000;stroke-width:2;stroke-miterlimit:10;" x1="671" y1="232" x2="691" y2="232"/>
<g>
	<path d="M696.5,182.6h-30.7c-0.4,0-0.7-0.3-0.7-0.7v-42.8c0-0.4,0.3-0.7,0.7-0.7h22.3v6.4c0,1.7,1.4,3.1,3.1,3.1h6v34
		C697.2,182.3,696.8,182.6,696.5,182.6z M699.3,147.7c0-0.4-0.2-0.9-0.5-1.2l-9.1-9.8c-0.3-0.4-0.8-0.5-1.3-0.5h-22.7
		c-1.6,0-2.9,1.3-2.9,2.9v42.8c0,1.6,1.3,2.9,2.9,2.9h30.7c1.6,0,2.9-1.3,2.9-2.9L699.3,147.7z"/>
	<line style="fill:none;stroke:#000000;stroke-width:2;stroke-miterlimit:10;" x1="671" y1="152" x2="691" y2="152"/>
	<line style="fill:none;stroke:#000000;stroke-width:2;stroke-miterlimit:10;" x1="671" y1="160" x2="691" y2="160"/>
	<line style="fill:none;stroke:#000000;stroke-width:2;stroke-miterlimit:10;" x1="671" y1="168" x2="691" y2="168"/>
	<line style="fill:none;stroke:#000000;stroke-width:2;stroke-miterlimit:10;" x1="671" y1="176" x2="691" y2="176"/>
</g>
<line style="fill:none;stroke:#000000;stroke-width:2;stroke-miterlimit:10;" x1="620" y1="271" x2="640" y2="271"/>
<line style="fill:none;stroke:#000000;stroke-width:2;stroke-miterlimit:10;" x1="620" y1="279" x2="640" y2="279"/>
<line style="fill:none;stroke:#000000;stroke-width:2;stroke-miterlimit:10;" x1="620" y1="287" x2="640" y2="287"/>
<line style="fill:none;stroke:#000000;stroke-width:2;stroke-miterlimit:10;" x1="620" y1="295" x2="640" y2="295"/>
<line style="fill:none;stroke:#000000;stroke-width:2;stroke-miterlimit:10;" x1="672" y1="271" x2="692" y2="271"/>
<line style="fill:none;stroke:#000000;stroke-width:2;stroke-miterlimit:10;" x1="672" y1="279" x2="692" y2="279"/>
<line style="fill:none;stroke:#000000;stroke-width:2;stroke-miterlimit:10;" x1="672" y1="287" x2="692" y2="287"/>
<line style="fill:none;stroke:#000000;stroke-width:2;stroke-miterlimit:10;" x1="672" y1="295" x2="692" y2="295"/>
<g>
	<path d="M404.6,170.5c0.3,0.2,0.7,0.6,1,1v-1.3h1.6v9.5c0,1.3-0.2,2.4-0.6,3.1c-0.7,1.4-2.1,2.1-4.1,2.1c-1.1,0-2.1-0.3-2.8-0.8
		s-1.2-1.3-1.3-2.4h1.8c0.1,0.5,0.3,0.8,0.5,1.1c0.4,0.4,1,0.6,1.9,0.6c1.3,0,2.2-0.5,2.6-1.4c0.2-0.6,0.4-1.6,0.3-3
		c-0.4,0.5-0.8,0.9-1.3,1.2c-0.5,0.3-1.1,0.4-2,0.4c-1.1,0-2.1-0.4-3-1.2s-1.3-2.1-1.3-4c0-1.8,0.4-3.1,1.3-4.1
		c0.9-1,1.9-1.5,3.1-1.5C403.3,169.9,404,170.1,404.6,170.5z M404.9,172.3c-0.5-0.6-1.2-0.9-2-0.9c-1.2,0-2.1,0.6-2.5,1.7
		c-0.2,0.6-0.4,1.4-0.4,2.4c0,1.2,0.2,2.1,0.7,2.7c0.5,0.6,1.1,0.9,1.9,0.9c1.3,0,2.1-0.6,2.7-1.7c0.3-0.6,0.4-1.4,0.4-2.3
		C405.6,173.9,405.4,173,404.9,172.3z"/>
	<path d="M416.4,170.3c0.7,0.3,1.2,0.8,1.6,1.4c0.3,0.5,0.6,1.1,0.7,1.8c0.1,0.5,0.2,1.2,0.2,2.3h-7.6c0,1.1,0.3,1.9,0.7,2.6
		c0.5,0.6,1.2,1,2.2,1c0.9,0,1.6-0.3,2.2-0.9c0.3-0.4,0.5-0.8,0.6-1.2h1.7c0,0.4-0.2,0.8-0.5,1.3s-0.5,0.9-0.9,1.2
		c-0.5,0.5-1.2,0.9-2,1.1c-0.4,0.1-0.9,0.2-1.4,0.2c-1.3,0-2.4-0.5-3.3-1.4c-0.9-0.9-1.3-2.3-1.3-4c0-1.7,0.5-3,1.4-4.1
		s2.1-1.6,3.6-1.6C415,169.8,415.7,170,416.4,170.3z M417,174.4c-0.1-0.8-0.2-1.4-0.5-1.8c-0.5-0.8-1.3-1.3-2.4-1.3
		c-0.8,0-1.5,0.3-2,0.9s-0.8,1.3-0.9,2.2H417z"/>
	<path d="M421.4,167.1h1.8v2.9h1.7v1.4h-1.7v6.8c0,0.4,0.1,0.6,0.4,0.7c0.1,0.1,0.4,0.1,0.7,0.1c0.1,0,0.2,0,0.3,0s0.2,0,0.3,0v1.4
		c-0.2,0.1-0.4,0.1-0.6,0.1s-0.5,0-0.7,0c-0.8,0-1.4-0.2-1.7-0.6s-0.4-1-0.4-1.6v-6.9H420V170h1.4V167.1z"/>
	<path d="M405.7,194.6c0.7,0.6,1.2,1.6,1.3,3h-1.7c-0.1-0.6-0.3-1.2-0.7-1.6s-1-0.6-1.8-0.6c-1.1,0-1.9,0.5-2.4,1.6
		c-0.3,0.7-0.5,1.6-0.5,2.6c0,1,0.2,1.9,0.7,2.6s1.1,1.1,2.1,1.1c0.7,0,1.3-0.2,1.7-0.7c0.4-0.4,0.7-1.1,0.9-1.8h1.7
		c-0.2,1.4-0.7,2.4-1.5,3s-1.8,1-3,1c-1.4,0-2.5-0.5-3.3-1.5s-1.2-2.2-1.2-3.7c0-1.8,0.4-3.3,1.3-4.3s2-1.5,3.4-1.5
		C404,193.7,405,194,405.7,194.6z"/>
	<path d="M416.4,195.1c0.9,0.9,1.4,2.2,1.4,4c0,1.7-0.4,3.1-1.2,4.2c-0.8,1.1-2.1,1.6-3.8,1.6c-1.4,0-2.6-0.5-3.4-1.5
		c-0.8-1-1.3-2.3-1.3-3.9c0-1.8,0.4-3.2,1.3-4.2c0.9-1,2.1-1.6,3.6-1.6C414.3,193.7,415.5,194.2,416.4,195.1z M415.3,202
		c0.4-0.9,0.6-1.9,0.6-2.9c0-1-0.2-1.8-0.5-2.4c-0.5-1-1.3-1.4-2.5-1.4c-1.1,0-1.8,0.4-2.3,1.2s-0.7,1.8-0.7,3c0,1.1,0.2,2,0.7,2.8
		s1.2,1.1,2.3,1.1C414.1,203.4,414.9,202.9,415.3,202z"/>
	<path d="M419.9,194h1.7v1.5c0.5-0.6,1-1.1,1.6-1.3s1.2-0.4,1.8-0.4c1.5,0,2.5,0.5,3,1.6c0.3,0.6,0.4,1.4,0.4,2.4v6.7h-1.8v-6.6
		c0-0.6-0.1-1.2-0.3-1.5c-0.3-0.7-0.9-1-1.7-1c-0.4,0-0.8,0-1,0.1c-0.5,0.1-0.9,0.4-1.3,0.9c-0.3,0.3-0.5,0.7-0.6,1.1
		s-0.1,0.9-0.1,1.6v5.5h-1.8V194z"/>
	<path d="M431.4,191.1h1.8v2.9h1.7v1.4h-1.7v6.8c0,0.4,0.1,0.6,0.4,0.7c0.1,0.1,0.4,0.1,0.7,0.1c0.1,0,0.2,0,0.3,0s0.2,0,0.3,0v1.4
		c-0.2,0.1-0.4,0.1-0.6,0.1s-0.5,0-0.7,0c-0.8,0-1.4-0.2-1.7-0.6s-0.4-1-0.4-1.6v-6.9H430V194h1.4V191.1z"/>
	<path d="M443.1,194.3c0.7,0.3,1.2,0.8,1.6,1.4c0.3,0.5,0.6,1.1,0.7,1.8c0.1,0.5,0.2,1.2,0.2,2.3h-7.6c0,1.1,0.3,1.9,0.7,2.6
		c0.5,0.6,1.2,1,2.2,1c0.9,0,1.6-0.3,2.2-0.9c0.3-0.4,0.5-0.8,0.6-1.2h1.7c0,0.4-0.2,0.8-0.5,1.3s-0.5,0.9-0.9,1.2
		c-0.5,0.5-1.2,0.9-2,1.1c-0.4,0.1-0.9,0.2-1.4,0.2c-1.3,0-2.4-0.5-3.3-1.4c-0.9-0.9-1.3-2.3-1.3-4c0-1.7,0.5-3,1.4-4.1
		s2.1-1.6,3.6-1.6C441.7,193.8,442.4,194,443.1,194.3z M443.7,198.4c-0.1-0.8-0.2-1.4-0.5-1.8c-0.5-0.8-1.3-1.3-2.4-1.3
		c-0.8,0-1.5,0.3-2,0.9s-0.8,1.3-0.9,2.2H443.7z"/>
	<path d="M447.7,194h1.7v1.5c0.5-0.6,1-1.1,1.6-1.3s1.2-0.4,1.8-0.4c1.5,0,2.5,0.5,3,1.6c0.3,0.6,0.4,1.4,0.4,2.4v6.7h-1.8v-6.6
		c0-0.6-0.1-1.2-0.3-1.5c-0.3-0.7-0.9-1-1.7-1c-0.4,0-0.8,0-1,0.1c-0.5,0.1-0.9,0.4-1.3,0.9c-0.3,0.3-0.5,0.7-0.6,1.1
		s-0.1,0.9-0.1,1.6v5.5h-1.8V194z"/>
	<path d="M459.2,191.1h1.8v2.9h1.7v1.4H461v6.8c0,0.4,0.1,0.6,0.4,0.7c0.1,0.1,0.4,0.1,0.7,0.1c0.1,0,0.2,0,0.3,0s0.2,0,0.3,0v1.4
		c-0.2,0.1-0.4,0.1-0.6,0.1s-0.5,0-0.7,0c-0.8,0-1.4-0.2-1.7-0.6s-0.4-1-0.4-1.6v-6.9h-1.4V194h1.4V191.1z"/>
</g>
<g>
	<path d="M39.7,183.7h1.7v1.4c0.4-0.5,0.7-0.8,1.2-1.1c0.6-0.4,1.3-0.6,2.1-0.6c1.2,0,2.2,0.5,3,1.4c0.8,0.9,1.2,2.2,1.2,3.9
		c0,2.3-0.6,3.9-1.8,4.9c-0.8,0.6-1.6,0.9-2.6,0.9c-0.8,0-1.5-0.2-2-0.5c-0.3-0.2-0.7-0.5-1-1v5.3h-1.8V183.7z M46.3,191.9
		c0.5-0.7,0.8-1.7,0.8-3.1c0-0.8-0.1-1.5-0.4-2.1c-0.5-1.2-1.3-1.7-2.5-1.7c-1.2,0-2.1,0.6-2.5,1.8c-0.2,0.7-0.4,1.5-0.4,2.5
		c0,0.8,0.1,1.5,0.4,2.1c0.5,1.1,1.3,1.6,2.5,1.6C45.1,192.9,45.8,192.6,46.3,191.9z"/>
	<path d="M58.5,184.7c0.9,0.9,1.4,2.2,1.4,4c0,1.7-0.4,3.1-1.2,4.2c-0.8,1.1-2.1,1.6-3.8,1.6c-1.4,0-2.6-0.5-3.4-1.5
		c-0.8-1-1.3-2.3-1.3-3.9c0-1.8,0.4-3.2,1.3-4.2c0.9-1,2.1-1.6,3.6-1.6C56.5,183.4,57.6,183.8,58.5,184.7z M57.4,191.6
		c0.4-0.9,0.6-1.9,0.6-2.9c0-1-0.2-1.8-0.5-2.4c-0.5-1-1.3-1.4-2.5-1.4c-1.1,0-1.8,0.4-2.3,1.2s-0.7,1.8-0.7,3c0,1.1,0.2,2,0.7,2.8
		s1.2,1.1,2.3,1.1C56.2,193,57,192.5,57.4,191.6z"/>
	<path d="M61.9,183.7h1.7v1.4c0.4-0.5,0.7-0.8,1.2-1.1c0.6-0.4,1.3-0.6,2.1-0.6c1.2,0,2.2,0.5,3,1.4c0.8,0.9,1.2,2.2,1.2,3.9
		c0,2.3-0.6,3.9-1.8,4.9c-0.8,0.6-1.6,0.9-2.6,0.9c-0.8,0-1.5-0.2-2-0.5c-0.3-0.2-0.7-0.5-1-1v5.3h-1.8V183.7z M68.5,191.9
		c0.5-0.7,0.8-1.7,0.8-3.1c0-0.8-0.1-1.5-0.4-2.1c-0.5-1.2-1.3-1.7-2.5-1.7c-1.2,0-2.1,0.6-2.5,1.8c-0.2,0.7-0.4,1.5-0.4,2.5
		c0,0.8,0.1,1.5,0.4,2.1c0.5,1.1,1.3,1.6,2.5,1.6C67.3,192.9,68,192.6,68.5,191.9z"/>
	<path d="M75,183.7v6.9c0,0.5,0.1,1,0.2,1.3c0.3,0.6,0.9,0.9,1.7,0.9c1.2,0,2-0.5,2.4-1.6c0.2-0.6,0.4-1.4,0.4-2.4v-5.1h1.8v10.5
		h-1.7l0-1.5c-0.2,0.4-0.5,0.7-0.8,1c-0.7,0.5-1.5,0.8-2.4,0.8c-1.5,0-2.5-0.5-3-1.5c-0.3-0.5-0.4-1.2-0.4-2.1v-7.1H75z"/>
	<path d="M84.4,179.8h1.8v14.3h-1.8V179.8z"/>
	<path d="M94.4,187.8c0.4-0.1,0.7-0.2,0.8-0.5c0.1-0.2,0.1-0.4,0.1-0.7c0-0.6-0.2-1-0.6-1.3c-0.4-0.3-1-0.4-1.8-0.4
		c-0.9,0-1.6,0.2-1.9,0.7c-0.2,0.3-0.4,0.7-0.4,1.2h-1.6c0-1.3,0.5-2.2,1.3-2.7c0.8-0.5,1.7-0.8,2.8-0.8c1.2,0,2.2,0.2,3,0.7
		c0.8,0.5,1.1,1.2,1.1,2.2v6c0,0.2,0,0.3,0.1,0.4c0.1,0.1,0.2,0.2,0.5,0.2c0.1,0,0.2,0,0.3,0s0.2,0,0.3,0v1.3
		c-0.3,0.1-0.5,0.1-0.6,0.1s-0.3,0-0.6,0c-0.6,0-1-0.2-1.3-0.6c-0.1-0.2-0.2-0.5-0.3-1c-0.4,0.5-0.9,0.9-1.5,1.2
		c-0.7,0.3-1.4,0.5-2.2,0.5c-1,0-1.8-0.3-2.4-0.9s-0.9-1.3-0.9-2.2c0-1,0.3-1.7,0.9-2.3s1.4-0.9,2.4-1L94.4,187.8z M90.7,192.5
		c0.4,0.3,0.8,0.4,1.3,0.4c0.6,0,1.2-0.1,1.8-0.4c1-0.5,1.5-1.3,1.5-2.3v-1.4c-0.2,0.1-0.5,0.3-0.8,0.3c-0.3,0.1-0.7,0.2-1,0.2
		l-1.1,0.1c-0.6,0.1-1.1,0.2-1.4,0.4c-0.5,0.3-0.8,0.8-0.8,1.5C90.1,191.8,90.3,192.2,90.7,192.5z"/>
	<path d="M100.2,180.7h1.8v2.9h1.7v1.4H102v6.8c0,0.4,0.1,0.6,0.4,0.7c0.1,0.1,0.4,0.1,0.7,0.1c0.1,0,0.2,0,0.3,0s0.2,0,0.3,0v1.4
		c-0.2,0.1-0.4,0.1-0.6,0.1s-0.5,0-0.7,0c-0.8,0-1.4-0.2-1.7-0.6s-0.4-1-0.4-1.6v-6.9h-1.4v-1.4h1.4V180.7z"/>
	<path d="M111.9,183.9c0.7,0.3,1.2,0.8,1.6,1.4c0.3,0.5,0.6,1.1,0.7,1.8c0.1,0.5,0.2,1.2,0.2,2.3h-7.6c0,1.1,0.3,1.9,0.7,2.6
		c0.5,0.6,1.2,1,2.2,1c0.9,0,1.6-0.3,2.2-0.9c0.3-0.4,0.5-0.8,0.6-1.2h1.7c0,0.4-0.2,0.8-0.5,1.3s-0.5,0.9-0.9,1.2
		c-0.5,0.5-1.2,0.9-2,1.1c-0.4,0.1-0.9,0.2-1.4,0.2c-1.3,0-2.4-0.5-3.3-1.4c-0.9-0.9-1.3-2.3-1.3-4c0-1.7,0.5-3,1.4-4.1
		s2.1-1.6,3.6-1.6C110.5,183.4,111.2,183.6,111.9,183.9z M112.5,188c-0.1-0.8-0.2-1.4-0.5-1.8c-0.5-0.8-1.3-1.3-2.4-1.3
		c-0.8,0-1.5,0.3-2,0.9s-0.8,1.3-0.9,2.2H112.5z"/>
	<path d="M39.7,207.7h1.7v1.4c0.4-0.5,0.7-0.8,1.2-1.1c0.6-0.4,1.3-0.6,2.1-0.6c1.2,0,2.2,0.5,3,1.4c0.8,0.9,1.2,2.2,1.2,3.9
		c0,2.3-0.6,3.9-1.8,4.9c-0.8,0.6-1.6,0.9-2.6,0.9c-0.8,0-1.5-0.2-2-0.5c-0.3-0.2-0.7-0.5-1-1v5.3h-1.8V207.7z M46.3,215.9
		c0.5-0.7,0.8-1.7,0.8-3.1c0-0.8-0.1-1.5-0.4-2.1c-0.5-1.2-1.3-1.7-2.5-1.7c-1.2,0-2.1,0.6-2.5,1.8c-0.2,0.7-0.4,1.5-0.4,2.5
		c0,0.8,0.1,1.5,0.4,2.1c0.5,1.1,1.3,1.6,2.5,1.6C45.1,216.9,45.8,216.6,46.3,215.9z"/>
	<path d="M56.6,211.8c0.4-0.1,0.7-0.2,0.8-0.5c0.1-0.2,0.1-0.4,0.1-0.7c0-0.6-0.2-1-0.6-1.3c-0.4-0.3-1-0.4-1.8-0.4
		c-0.9,0-1.6,0.2-1.9,0.7c-0.2,0.3-0.4,0.7-0.4,1.2H51c0-1.3,0.5-2.2,1.3-2.7c0.8-0.5,1.7-0.8,2.8-0.8c1.2,0,2.2,0.2,3,0.7
		c0.8,0.5,1.1,1.2,1.1,2.2v6c0,0.2,0,0.3,0.1,0.4c0.1,0.1,0.2,0.2,0.5,0.2c0.1,0,0.2,0,0.3,0s0.2,0,0.3,0v1.3
		c-0.3,0.1-0.5,0.1-0.6,0.1s-0.3,0-0.6,0c-0.6,0-1-0.2-1.3-0.6c-0.1-0.2-0.2-0.5-0.3-1c-0.4,0.5-0.9,0.9-1.5,1.2
		c-0.7,0.3-1.4,0.5-2.2,0.5c-1,0-1.8-0.3-2.4-0.9s-0.9-1.3-0.9-2.2c0-1,0.3-1.7,0.9-2.3s1.4-0.9,2.4-1L56.6,211.8z M52.9,216.5
		c0.4,0.3,0.8,0.4,1.3,0.4c0.6,0,1.2-0.1,1.8-0.4c1-0.5,1.5-1.3,1.5-2.3v-1.4c-0.2,0.1-0.5,0.3-0.8,0.3c-0.3,0.1-0.7,0.2-1,0.2
		l-1.1,0.1c-0.6,0.1-1.1,0.2-1.4,0.4c-0.5,0.3-0.8,0.8-0.8,1.5C52.3,215.8,52.5,216.2,52.9,216.5z"/>
	<path d="M67.9,208.1c0.3,0.2,0.7,0.6,1,1v-1.3h1.6v9.5c0,1.3-0.2,2.4-0.6,3.1c-0.7,1.4-2.1,2.1-4.1,2.1c-1.1,0-2.1-0.3-2.8-0.8
		s-1.2-1.3-1.3-2.4h1.8c0.1,0.5,0.3,0.8,0.5,1.1c0.4,0.4,1,0.6,1.9,0.6c1.3,0,2.2-0.5,2.6-1.4c0.2-0.6,0.4-1.6,0.3-3
		c-0.4,0.5-0.8,0.9-1.3,1.2c-0.5,0.3-1.1,0.4-2,0.4c-1.1,0-2.1-0.4-3-1.2s-1.3-2.1-1.3-4c0-1.8,0.4-3.1,1.3-4.1
		c0.9-1,1.9-1.5,3.1-1.5C66.6,207.5,67.3,207.7,67.9,208.1z M68.1,210c-0.5-0.6-1.2-0.9-2-0.9c-1.2,0-2.1,0.6-2.5,1.7
		c-0.2,0.6-0.4,1.4-0.4,2.4c0,1.2,0.2,2.1,0.7,2.7c0.5,0.6,1.1,0.9,1.9,0.9c1.3,0,2.1-0.6,2.7-1.7c0.3-0.6,0.4-1.4,0.4-2.3
		C68.9,211.5,68.6,210.6,68.1,210z"/>
	<path d="M79.7,207.9c0.7,0.3,1.2,0.8,1.6,1.4c0.3,0.5,0.6,1.1,0.7,1.8c0.1,0.5,0.2,1.2,0.2,2.3h-7.6c0,1.1,0.3,1.9,0.7,2.6
		c0.5,0.6,1.2,1,2.2,1c0.9,0,1.6-0.3,2.2-0.9c0.3-0.4,0.5-0.8,0.6-1.2H82c0,0.4-0.2,0.8-0.5,1.3s-0.5,0.9-0.9,1.2
		c-0.5,0.5-1.2,0.9-2,1.1c-0.4,0.1-0.9,0.2-1.4,0.2c-1.3,0-2.4-0.5-3.3-1.4c-0.9-0.9-1.3-2.3-1.3-4c0-1.7,0.5-3,1.4-4.1
		s2.1-1.6,3.6-1.6C78.3,207.4,79,207.6,79.7,207.9z M80.3,212c-0.1-0.8-0.2-1.4-0.5-1.8c-0.5-0.8-1.3-1.3-2.4-1.3
		c-0.8,0-1.5,0.3-2,0.9s-0.8,1.3-0.9,2.2H80.3z"/>
</g>
<line style="fill:none;stroke:#000000;stroke-miterlimit:10;" x1="489.5" y1="33" x2="489.5" y2="413"/>
<g>
	<g>
		<path style="fill:none;stroke:#000102;stroke-width:2;stroke-miterlimit:10;" d="M418.6,224.3c-7.1,36.3-40.9,63.7-81.6,63.7"/>
		<g>
			<polygon style="fill:#000102;" points="408.2,226 420,210 428,228.3 			"/>
		</g>
	</g>
</g>
<g>
	<g>
		<path style="fill:none;stroke:#000102;stroke-width:2;stroke-miterlimit:10;" d="M354.9,78.4c37.7,5.8,66.6,40.3,66.7,82"/>
		<g>
			<polygon style="fill:#000102;" points="356.5,86.7 343.4,77.6 357.9,70.8 			"/>
		</g>
	</g>
</g>
<g>
	<g>
		<path style="fill:none;stroke:#000102;stroke-width:2;stroke-miterlimit:10;" d="M85.9,152.6c6.6-43.3,49.8-79.7,102.1-79.7"/>
		<g>
			<polygon style="fill:#000102;" points="94.2,150.9 85,164 78.3,149.5 			"/>
		</g>
	</g>
</g>
<g>
	<g>
		<path style="fill:none;stroke:#000102;stroke-width:2;stroke-miterlimit:10;" d="M296.4,309.8C182.9,377.5,94.3,297.6,85,243"/>
		<g>
			<polygon style="fill:#000102;" points="290.2,304.2 306.1,303.7 298.6,317.8 			"/>
		</g>
	</g>
</g>
</svg>
