<?xml version="1.0" encoding="utf-8"?>
<!-- Generator: Adobe Illustrator 18.1.1, SVG Export Plug-In . SVG Version: 6.00 Build 0)  -->
<svg version="1.1" xmlns="http://www.w3.org/2000/svg" xmlns:xlink="http://www.w3.org/1999/xlink" x="0px" y="0px"
	 viewBox="0 0 767 471" enable-background="new 0 0 767 471" xml:space="preserve">
<g id="separate">
</g>
<g id="code">
</g>
<g id="ux">
</g>
<g id="disruptive">
</g>
<g id="helpapi">
</g>
<g id="significant">
</g>
<g id="allcontribute">
</g>
<g id="githubhelp">
</g>
<g id="microsoft">
</g>
<g id="json">
</g>
<g id="github">
	<rect fill="#FFFFFF" width="767" height="471"/>
	<rect x="14.8" y="321.4" fill="none" width="256.4" height="130.2"/>
	<text transform="matrix(1 0 0 1 14.8274 337.9824)"><tspan x="0" y="0" font-family="'Helvetica'" font-size="23">Forking, sharing, and </tspan><tspan x="0" y="27.6" font-family="'Helvetica'" font-size="23">reincorporating code </tspan><tspan x="0" y="55.2" font-family="'Helvetica'" font-size="23">in a social way</tspan></text>
	<rect x="227.7" y="187.3" fill="#FFFFFF" stroke="#000000" stroke-miterlimit="10" width="127.4" height="79.5"/>
	<g>
		<rect x="235" y="193.5" fill="none" width="112.7" height="66.4"/>
		<text transform="matrix(1 0 0 1 234.9946 197.7363)"><tspan x="0" y="0" font-family="'Helvetica'" font-size="5.9296">code code code code code code code </tspan><tspan x="0" y="7.1" font-family="'Helvetica'" font-size="5.9296">code code code code code code code </tspan><tspan x="0" y="14.2" font-family="'Helvetica'" font-size="5.9296">code code code code code code code </tspan><tspan x="0" y="21.3" font-family="'Helvetica'" font-size="5.9296">code code code code code code code </tspan><tspan x="0" y="28.5" font-family="'Helvetica'" font-size="5.9296">code code code code code code code </tspan><tspan x="0" y="35.6" font-family="'Helvetica'" font-size="5.9296">code code code code code code code </tspan><tspan x="0" y="42.7" font-family="'Helvetica'" font-size="5.9296">code code code code code code code </tspan><tspan x="0" y="49.8" font-family="'Helvetica'" font-size="5.9296">code code code code code code code </tspan><tspan x="0" y="56.9" font-family="'Helvetica'" font-size="5.9296">code code code code code code code </tspan></text>
	</g>
	<g>
		<rect x="314.6" y="244.8" fill="#FFFFFF" stroke="#000000" stroke-miterlimit="10" width="135.6" height="84.7"/>
		<rect x="322.4" y="251.4" fill="none" width="120" height="70.7"/>
		<text transform="matrix(1 0 0 1 322.3633 255.9619)"><tspan x="0" y="0" font-family="'Helvetica'" font-size="6.3137">code code code code code code code </tspan><tspan x="0" y="7.6" font-family="'Helvetica'" font-size="6.3137">code code code code code code code </tspan><tspan x="0" y="15.2" font-family="'Helvetica'" font-size="6.3137">code code code code code code code </tspan><tspan x="0" y="22.7" font-family="'Helvetica'" font-size="6.3137">code code code code code code code </tspan><tspan x="0" y="30.3" font-family="'Helvetica'" font-size="6.3137">code code code code code code code </tspan><tspan x="0" y="37.9" font-family="'Helvetica'" font-size="6.3137">code code code code code code code </tspan><tspan x="0" y="45.5" font-family="'Helvetica'" font-size="6.3137">code code code code code code code </tspan><tspan x="0" y="53" font-family="'Helvetica'" font-size="6.3137">code code code code code code code </tspan><tspan x="0" y="60.6" font-family="'Helvetica'" font-size="6.3137">code code code code code code code </tspan></text>
	</g>
	<g>
		<rect x="374.6" y="309.3" fill="#FFFFFF" stroke="#000000" stroke-miterlimit="10" width="135.6" height="84.7"/>
		<rect x="382.4" y="315.9" fill="none" width="120" height="70.7"/>
		<text transform="matrix(1 0 0 1 382.375 320.4082)"><tspan x="0" y="0" font-family="'Helvetica'" font-size="6.3137">code code code code code code code </tspan><tspan x="0" y="7.6" font-family="'Helvetica'" font-size="6.3137">code code code code code code code </tspan><tspan x="0" y="15.2" font-family="'Helvetica'" font-size="6.3137">code code code code code code code </tspan><tspan x="0" y="22.7" font-family="'Helvetica'" font-size="6.3137">code code code code code code code </tspan><tspan x="0" y="30.3" font-family="'Helvetica'" font-size="6.3137">code code code code code code code </tspan><tspan x="0" y="37.9" font-family="'Helvetica'" font-size="6.3137">code code code code code code code </tspan><tspan x="0" y="45.5" font-family="'Helvetica'" font-size="6.3137">code code code code code code code </tspan><tspan x="0" y="53" font-family="'Helvetica'" font-size="6.3137">code code code code code code code </tspan><tspan x="0" y="60.6" font-family="'Helvetica'" font-size="6.3137">code code code code code code code </tspan></text>
	</g>
	<g>
		<rect x="473.4" y="351.6" fill="#FFFFFF" stroke="#000000" stroke-miterlimit="10" width="135.6" height="84.7"/>
		<rect x="481.2" y="358.2" fill="none" width="120" height="70.7"/>
		<text transform="matrix(1 0 0 1 481.1709 362.75)"><tspan x="0" y="0" font-family="'Helvetica'" font-size="6.3137">code code code code code code code </tspan><tspan x="0" y="7.6" font-family="'Helvetica'" font-size="6.3137">code code code code code code code </tspan><tspan x="0" y="15.2" font-family="'Helvetica'" font-size="6.3137">code code code code code code code </tspan><tspan x="0" y="22.7" font-family="'Helvetica'" font-size="6.3137">code code code code code code code </tspan><tspan x="0" y="30.3" font-family="'Helvetica'" font-size="6.3137">code code code code code code code </tspan><tspan x="0" y="37.9" font-family="'Helvetica'" font-size="6.3137">code code code code code code code </tspan><tspan x="0" y="45.5" font-family="'Helvetica'" font-size="6.3137">code code code code code code code </tspan><tspan x="0" y="53" font-family="'Helvetica'" font-size="6.3137">code code code code code code code </tspan><tspan x="0" y="60.6" font-family="'Helvetica'" font-size="6.3137">code code code code code code code </tspan></text>
	</g>
	<rect x="321.8" y="144.5" fill="#FFFFFF" stroke="#000000" stroke-miterlimit="10" width="127.4" height="78.5"/>
	<g>
		<g>
			<path fill="none" stroke="#EF9D0A" stroke-width="8" stroke-miterlimit="10" d="M392,96.5c-41.7,0-115.3,0.8-155.3,13
				c-12.6,3.8-25.3,9.1-34,18.9c-12.9,14.6-14.3,35.8-15.1,55.3c-0.4,9.5-0.6,19.6,3.8,28.1c4.6,8.7,12.7,11.1,21.3,11.5"/>
			<g>
				<path fill="#EF9D0A" d="M227.7,222.9c-7,2.7-15.7,7.3-21,12.1l4.1-11.8l-4.4-11.7C211.8,216.1,220.6,220.4,227.7,222.9z"/>
			</g>
		</g>
	</g>
	<g>
		<g>
			<path fill="none" stroke="#EF9D0A" stroke-width="8" stroke-miterlimit="10" d="M473.7,415.4c-41.7,0-115.3-0.8-155.3-11.7
				c-12.6-3.4-25.3-8.2-34-17c-12.9-13.2-14.3-32.3-15.1-49.8c-0.4-8.6-0.6-17.7,3.8-25.3c4.6-7.9,12.7-10,21.3-10.4"/>
			<g>
				<path fill="#EF9D0A" d="M309.3,301.4c-7.1,2.5-15.9,6.9-21.3,11.6l4.4-11.8l-4.1-11.8C293.6,294.2,302.3,298.7,309.3,301.4z"/>
			</g>
		</g>
	</g>
	<g>
		<rect x="332.6" y="151.2" fill="none" width="112.7" height="66.4"/>
		<text transform="matrix(1 0 0 1 332.6201 155.4248)"><tspan x="0" y="0" font-family="'Helvetica'" font-size="5.9296">code code code code code code code </tspan><tspan x="0" y="7.1" font-family="'Helvetica'" font-size="5.9296">code code code code code code code </tspan><tspan x="0" y="14.2" font-family="'Helvetica'" font-size="5.9296">code code code code code code code </tspan><tspan x="0" y="21.3" font-family="'Helvetica'" font-size="5.9296">code code code code code code code </tspan><tspan x="0" y="28.5" font-family="'Helvetica'" font-size="5.9296">code code code code code code code </tspan><tspan x="0" y="35.6" font-family="'Helvetica'" font-size="5.9296">code code code code code code code </tspan><tspan x="0" y="42.7" font-family="'Helvetica'" font-size="5.9296">code code code code code code code </tspan><tspan x="0" y="49.8" font-family="'Helvetica'" font-size="5.9296">code code code code code code code </tspan><tspan x="0" y="56.9" font-family="'Helvetica'" font-size="5.9296">code code code code code code code </tspan></text>
	</g>
	<rect x="392" y="76.5" fill="#FFFFFF" stroke="#000000" stroke-miterlimit="10" width="135.6" height="83.6"/>
	<g>
		<rect x="405.1" y="86.4" fill="none" width="112.7" height="66.4"/>
		<text transform="matrix(1 0 0 1 405.0967 90.6733)"><tspan x="0" y="0" font-family="'Helvetica'" font-size="5.9296">code code code code code code code </tspan><tspan x="0" y="7.1" font-family="'Helvetica'" font-size="5.9296">code code code code code code code </tspan><tspan x="0" y="14.2" font-family="'Helvetica'" font-size="5.9296">code code code code code code code </tspan><tspan x="0" y="21.3" font-family="'Helvetica'" font-size="5.9296">code code code code code code code </tspan><tspan x="0" y="28.5" font-family="'Helvetica'" font-size="5.9296">code code code code code code code </tspan><tspan x="0" y="35.6" font-family="'Helvetica'" font-size="5.9296">code code code code code code code </tspan><tspan x="0" y="42.7" font-family="'Helvetica'" font-size="5.9296">code code code code code code code </tspan><tspan x="0" y="49.8" font-family="'Helvetica'" font-size="5.9296">code code code code code code code </tspan><tspan x="0" y="56.9" font-family="'Helvetica'" font-size="5.9296">code code code code code code code </tspan></text>
	</g>
	<rect x="452" y="12.9" fill="#FFFFFF" stroke="#000000" stroke-miterlimit="10" width="135.6" height="83.6"/>
	<rect x="465.3" y="22.2" fill="none" width="112.7" height="66.4"/>
	<text transform="matrix(1 0 0 1 465.2549 26.4145)"><tspan x="0" y="0" font-family="'Helvetica'" font-size="5.9296">code code code code code code code </tspan><tspan x="0" y="7.1" font-family="'Helvetica'" font-size="5.9296">code code code code code code code </tspan><tspan x="0" y="14.2" font-family="'Helvetica'" font-size="5.9296">code code code code code code code </tspan><tspan x="0" y="21.3" font-family="'Helvetica'" font-size="5.9296">code code code code code code code </tspan><tspan x="0" y="28.5" font-family="'Helvetica'" font-size="5.9296">code code code code code code code </tspan><tspan x="0" y="35.6" font-family="'Helvetica'" font-size="5.9296">code code code code code code code </tspan><tspan x="0" y="42.7" font-family="'Helvetica'" font-size="5.9296">code code code code code code code </tspan><tspan x="0" y="49.8" font-family="'Helvetica'" font-size="5.9296">code code code code code code code </tspan><tspan x="0" y="56.9" font-family="'Helvetica'" font-size="5.9296">code code code code code code code </tspan></text>
	<g>
		<g>
			<path fill="none" stroke="#EF9D0A" stroke-width="8" stroke-miterlimit="10" d="M282.3,183.7c6.6-7.2,12.2-12.2,16.7-15.7"/>
			<g>
				<polygon fill="#EF9D0A" points="314.6,159.9 297.8,180.7 298.1,169 288.1,163 				"/>
			</g>
		</g>
	</g>
	<g>
		<g>
			<path fill="none" stroke="#EF9D0A" stroke-width="8" stroke-miterlimit="10" d="M353.3,133.5c6.6-7.2,12.2-12.2,16.7-15.7"/>
			<g>
				<polygon fill="#EF9D0A" points="385.5,109.7 368.8,130.5 369,118.8 359,112.8 				"/>
			</g>
		</g>
	</g>
	<g>
		<g>
			<path fill="none" stroke="#EF9D0A" stroke-width="8" stroke-miterlimit="10" d="M412.8,67.3c6.6-7.2,12.2-12.2,16.7-15.7"/>
			<g>
				<polygon fill="#EF9D0A" points="445,43.5 428.3,64.2 428.5,52.6 418.5,46.6 				"/>
			</g>
		</g>
	</g>
	<g>
		<g>
			<path fill="none" stroke="#EF9D0A" stroke-width="8" stroke-miterlimit="10" d="M275.6,271.3c6.5,6.2,11.9,10.6,16.4,13.7"/>
			<g>
				<polygon fill="#EF9D0A" points="307.9,292.5 281.3,290.6 291,284.1 290.2,272.5 				"/>
			</g>
		</g>
	</g>
	<g>
		<g>
			<path fill="none" stroke="#EF9D0A" stroke-width="8" stroke-miterlimit="10" d="M331.8,334.2c6.5,6.2,11.9,10.6,16.4,13.7"/>
			<g>
				<polygon fill="#EF9D0A" points="364.1,355.4 337.5,353.4 347.2,347 346.4,335.4 				"/>
			</g>
		</g>
	</g>
	<g>
		<g>
			<path fill="none" stroke="#EF9D0A" stroke-width="8" stroke-miterlimit="10" d="M436.2,400.3c7.9,2.6,14.5,4.4,19.8,5.6"/>
			<g>
				<polygon fill="#EF9D0A" points="473.4,408.6 447.4,414.5 454.8,405.5 450.7,394.6 				"/>
			</g>
		</g>
	</g>
	<g>
		<g>
			<path fill="none" stroke="#EF9D0A" stroke-width="8" stroke-miterlimit="10" d="M502.4,334.4c20.3,0,56.2-1.4,75.7-20.9
				c6.1-6.1,12.3-14.6,16.6-30.5c3.3-12.4,19.5-72.4,0.4-108.4c-11.8-22.3-40.4-33.7-58-38.5"/>
			<g>
				<path fill="#EF9D0A" d="M522.4,133.2c7.4-1.1,16.9-3.7,23.2-7.2l-6.6,10.7l1.8,12.4C536.4,143.4,528.7,137.2,522.4,133.2z"/>
			</g>
		</g>
	</g>
	<g>
		<g>
			<path fill="none" stroke="#EF9D0A" stroke-width="8" stroke-miterlimit="10" d="M587.7,43.5c0,0,36.5-1.4,69.2,33
				c26.7,28.1,56.8,95.3,64.5,122.1c15.2,52.5-7.3,175.6-54.4,194.9c-9.7,4-17.4,6.5-23.5,8.1"/>
			<g>
				<path fill="#EF9D0A" d="M619.4,400.3c11.5-3.9,25.8-10.6,34.8-18l-7.5,18.8l6.3,19.2C644.5,412.5,630.7,404.8,619.4,400.3z"/>
			</g>
		</g>
	</g>
</g>
<g id="scalability">
</g>
<g id="performance">
</g>
<g id="skillset">
</g>
<g id="wastedtime">
</g>
<g id="legacy">
</g>
<g id="notanengineer">
</g>
<g id="strategies">
</g>
<g id="pressure">
</g>
<g id="whatif">
</g>
<g id="turning_x5F_point">
</g>
<g id="tbt">
</g>
<g id="milkyway">
</g>
<g id="bubbles">
</g>
<g id="_x31_2345">
</g>
</svg>
