<?xml version="1.0" encoding="utf-8"?>
<!-- Generator: Adobe Illustrator 17.1.0, SVG Export Plug-In . SVG Version: 6.00 Build 0)  -->
<!DOCTYPE svg PUBLIC "-//W3C//DTD SVG 1.1//EN" "http://www.w3.org/Graphics/SVG/1.1/DTD/svg11.dtd">
<svg version="1.1" id="Layer_1" xmlns="http://www.w3.org/2000/svg" xmlns:xlink="http://www.w3.org/1999/xlink" x="0px" y="0px"
	 viewBox="0 0 775 445" style="enable-background:new 0 0 775 445;" xml:space="preserve">
<path style="fill-rule:evenodd;clip-rule:evenodd;" d="M294.8,185.8h-55.2c-1.2,0-2.3,0.9-2.3,2.3s0.9,2.3,2.3,2.3h52.8v83h-90.9
	v-83.3h9.9c1.2,0,2.3-0.9,2.3-2.3s-0.9-2.3-2.3-2.3h-12.2c-1.2,0-2.3,0.9-2.3,2.3v87.4c0,1.2,0.9,2.3,2.3,2.3h95.5
	c1.2,0,2.3-0.9,2.3-2.3v-87.1C296.9,186.6,296,185.8,294.8,185.8z M225.7,212.8c1.2,0,2.3-0.9,2.3-2.3V162c0-4.6,3.8-8.4,8.4-8.4h52
	l-13.7,13.7c-0.9,0.9-0.9,2.3,0,3.2c0.3,0.3,0.9,0.6,1.5,0.6s1.2-0.3,1.5-0.6l16.8-17.1c0.9-0.9,0.9-2.3,0-3.2l-16.8-17.1
	c-0.9-0.9-2.3-0.9-3.2,0c-0.9,0.9-0.9,2.3,0,3.2l13.1,13.1h-51.4c-7,0-12.8,5.8-12.8,12.8v48.5C223.4,211.6,224.6,212.8,225.7,212.8
	z"/>
<rect x="322" y="80" style="fill:none;stroke:#000000;stroke-width:2;stroke-miterlimit:10;" width="271" height="293"/>
<line style="fill:none;stroke:#000000;stroke-width:5;stroke-miterlimit:10;" x1="361" y1="138.5" x2="546" y2="138.5"/>
<line style="fill:none;stroke:#000000;stroke-width:5;stroke-miterlimit:10;" x1="361" y1="183.5" x2="546" y2="183.5"/>
<line style="fill:none;stroke:#000000;stroke-width:5;stroke-miterlimit:10;" x1="361" y1="229.5" x2="546" y2="229.5"/>
<line style="fill:none;stroke:#000000;stroke-width:5;stroke-miterlimit:10;" x1="361" y1="274.5" x2="546" y2="274.5"/>
<line style="fill:none;stroke:#000000;stroke-width:5;stroke-miterlimit:10;" x1="361" y1="319.5" x2="546" y2="319.5"/>
<rect x="22" y="72" style="fill:#FFFFFF;stroke:#000000;stroke-width:2;stroke-miterlimit:10;" width="71" height="65"/>
<rect x="22" y="182" style="fill:#FFFFFF;stroke:#000000;stroke-width:2;stroke-miterlimit:10;" width="71" height="65"/>
<rect x="22" y="298" style="fill:#FFFFFF;stroke:#000000;stroke-width:2;stroke-miterlimit:10;" width="71" height="65"/>
<g>
	<path d="M185.9,308.2v-11.4h1.7v1.7c0.4-0.8,0.9-1.3,1.2-1.6c0.4-0.3,0.8-0.4,1.2-0.4c0.7,0,1.3,0.2,2,0.6l-0.7,1.8
		c-0.5-0.3-0.9-0.4-1.4-0.4c-0.4,0-0.8,0.1-1.1,0.4c-0.3,0.3-0.6,0.6-0.7,1.1c-0.2,0.7-0.3,1.4-0.3,2.3v6H185.9z"/>
	<path d="M201.1,304.5l2,0.2c-0.3,1.2-0.9,2.1-1.8,2.7s-1.9,1-3.3,1c-1.7,0-3-0.5-4-1.5c-1-1-1.5-2.5-1.5-4.3c0-1.9,0.5-3.4,1.5-4.5
		c1-1.1,2.3-1.6,3.8-1.6c1.5,0,2.8,0.5,3.7,1.6c1,1,1.5,2.5,1.5,4.4c0,0.1,0,0.3,0,0.5h-8.5c0.1,1.3,0.4,2.2,1.1,2.9s1.4,1,2.4,1
		c0.7,0,1.3-0.2,1.8-0.6C200.4,305.9,200.8,305.3,201.1,304.5z M194.7,301.4h6.4c-0.1-1-0.3-1.7-0.7-2.2c-0.6-0.7-1.4-1.1-2.4-1.1
		c-0.9,0-1.6,0.3-2.2,0.9C195.1,299.6,194.8,300.4,194.7,301.4z"/>
	<path d="M204.8,303.4v-1.9h5.9v1.9H204.8z"/>
	<path d="M220.3,308.2v-1.7c-0.9,1.3-2.1,1.9-3.6,1.9c-0.7,0-1.3-0.1-1.9-0.4c-0.6-0.3-1-0.6-1.3-1c-0.3-0.4-0.5-0.9-0.6-1.4
		c-0.1-0.4-0.1-1-0.1-1.8v-7.1h1.9v6.3c0,1,0,1.7,0.1,2c0.1,0.5,0.4,0.9,0.8,1.2s0.9,0.4,1.5,0.4s1.1-0.1,1.6-0.4
		c0.5-0.3,0.9-0.7,1.1-1.2c0.2-0.5,0.3-1.3,0.3-2.2v-6.1h1.9v11.4H220.3z"/>
	<path d="M224.3,304.7l1.9-0.3c0.1,0.8,0.4,1.4,0.9,1.8c0.5,0.4,1.2,0.6,2.1,0.6c0.9,0,1.5-0.2,2-0.5c0.4-0.4,0.6-0.8,0.6-1.3
		c0-0.4-0.2-0.8-0.6-1c-0.3-0.2-0.9-0.4-2-0.7c-1.4-0.4-2.4-0.7-2.9-0.9c-0.5-0.3-1-0.6-1.2-1.1c-0.3-0.5-0.4-1-0.4-1.5
		c0-0.5,0.1-1,0.3-1.4c0.2-0.4,0.5-0.8,1-1.1c0.3-0.2,0.7-0.4,1.2-0.6c0.5-0.2,1.1-0.2,1.7-0.2c0.9,0,1.7,0.1,2.4,0.4
		c0.7,0.3,1.2,0.6,1.5,1s0.5,1,0.7,1.8l-1.9,0.3c-0.1-0.6-0.3-1-0.7-1.4c-0.4-0.3-1-0.5-1.7-0.5c-0.9,0-1.5,0.1-1.9,0.4
		c-0.4,0.3-0.6,0.6-0.6,1c0,0.3,0.1,0.5,0.2,0.7c0.2,0.2,0.4,0.4,0.7,0.5c0.2,0.1,0.8,0.2,1.7,0.5c1.4,0.4,2.3,0.7,2.9,0.9
		c0.5,0.2,1,0.6,1.3,1c0.3,0.4,0.5,1,0.5,1.7c0,0.6-0.2,1.3-0.6,1.8c-0.4,0.6-0.9,1-1.6,1.3s-1.5,0.5-2.4,0.5
		c-1.5,0-2.6-0.3-3.4-0.9C225,306.9,224.5,306,224.3,304.7z"/>
	<path d="M243.5,306.7c-0.7,0.6-1.4,1-2.1,1.3c-0.7,0.3-1.4,0.4-2.1,0.4c-1.3,0-2.2-0.3-2.9-0.9s-1-1.4-1-2.3c0-0.6,0.1-1.1,0.4-1.5
		c0.3-0.5,0.6-0.8,1-1.1c0.4-0.3,0.9-0.5,1.4-0.6c0.4-0.1,1-0.2,1.7-0.3c1.6-0.2,2.7-0.4,3.4-0.7c0-0.3,0-0.4,0-0.5
		c0-0.8-0.2-1.3-0.5-1.7c-0.5-0.4-1.2-0.7-2.2-0.7c-0.9,0-1.6,0.2-2,0.5c-0.4,0.3-0.8,0.9-1,1.7l-1.9-0.3c0.2-0.8,0.5-1.5,0.8-2
		c0.4-0.5,1-0.9,1.7-1.1s1.6-0.4,2.6-0.4c1,0,1.8,0.1,2.4,0.3c0.6,0.2,1.1,0.5,1.3,0.9c0.3,0.3,0.5,0.8,0.6,1.3
		c0.1,0.3,0.1,0.9,0.1,1.8v2.6c0,1.8,0,2.9,0.1,3.4c0.1,0.5,0.2,0.9,0.5,1.4h-2C243.7,307.8,243.6,307.3,243.5,306.7z M243.4,302.4
		c-0.7,0.3-1.8,0.5-3.2,0.7c-0.8,0.1-1.4,0.2-1.7,0.4c-0.3,0.1-0.6,0.4-0.8,0.6c-0.2,0.3-0.3,0.6-0.3,0.9c0,0.5,0.2,0.9,0.6,1.3
		c0.4,0.3,1,0.5,1.7,0.5c0.7,0,1.4-0.2,2-0.5c0.6-0.3,1-0.8,1.3-1.3c0.2-0.4,0.3-1.1,0.3-1.9V302.4z"/>
	<path d="M250.1,308.2h-1.8v-15.7h1.9v5.6c0.8-1,1.9-1.5,3.1-1.5c0.7,0,1.4,0.1,2,0.4c0.6,0.3,1.1,0.7,1.5,1.2
		c0.4,0.5,0.7,1.1,1,1.9c0.2,0.7,0.3,1.5,0.3,2.3c0,2-0.5,3.5-1.5,4.5c-1,1.1-2.1,1.6-3.5,1.6c-1.3,0-2.4-0.6-3.2-1.7V308.2z
		 M250.1,302.4c0,1.4,0.2,2.4,0.6,3c0.6,1,1.4,1.5,2.5,1.5c0.8,0,1.6-0.4,2.2-1.1c0.6-0.7,0.9-1.8,0.9-3.3c0-1.5-0.3-2.6-0.9-3.3
		c-0.6-0.7-1.3-1.1-2.1-1.1c-0.8,0-1.6,0.4-2.2,1.1C250.4,299.9,250.1,301,250.1,302.4z"/>
	<path d="M260.5,308.2v-15.7h1.9v15.7H260.5z"/>
	<path d="M273.2,304.5l2,0.2c-0.3,1.2-0.9,2.1-1.8,2.7s-1.9,1-3.3,1c-1.7,0-3-0.5-4-1.5c-1-1-1.5-2.5-1.5-4.3c0-1.9,0.5-3.4,1.5-4.5
		c1-1.1,2.3-1.6,3.8-1.6c1.5,0,2.8,0.5,3.7,1.6c1,1,1.5,2.5,1.5,4.4c0,0.1,0,0.3,0,0.5h-8.5c0.1,1.3,0.4,2.2,1.1,2.9s1.4,1,2.4,1
		c0.7,0,1.3-0.2,1.8-0.6C272.5,305.9,272.9,305.3,273.2,304.5z M266.9,301.4h6.4c-0.1-1-0.3-1.7-0.7-2.2c-0.6-0.7-1.4-1.1-2.4-1.1
		c-0.9,0-1.6,0.3-2.2,0.9C267.3,299.6,267,300.4,266.9,301.4z"/>
	<path d="M193.4,330.4l1.9,0.2c-0.2,1.3-0.7,2.3-1.6,3.1c-0.9,0.7-1.9,1.1-3.2,1.1c-1.6,0-2.8-0.5-3.8-1.5c-0.9-1-1.4-2.5-1.4-4.4
		c0-1.2,0.2-2.3,0.6-3.2s1-1.6,1.9-2.1c0.8-0.5,1.7-0.7,2.7-0.7c1.2,0,2.3,0.3,3,0.9c0.8,0.6,1.3,1.5,1.5,2.7l-1.9,0.3
		c-0.2-0.8-0.5-1.3-1-1.7c-0.5-0.4-1-0.6-1.6-0.6c-1,0-1.8,0.3-2.4,1s-0.9,1.8-0.9,3.3c0,1.5,0.3,2.6,0.9,3.3c0.6,0.7,1.4,1,2.3,1
		c0.8,0,1.4-0.2,1.9-0.7C192.9,332.1,193.3,331.3,193.4,330.4z"/>
	<path d="M196.2,328.8c0-2.1,0.6-3.7,1.8-4.7c1-0.8,2.2-1.3,3.6-1.3c1.6,0,2.9,0.5,3.8,1.5c1,1,1.5,2.4,1.5,4.3
		c0,1.5-0.2,2.6-0.7,3.5c-0.4,0.8-1.1,1.5-1.9,2c-0.8,0.5-1.8,0.7-2.8,0.7c-1.6,0-2.9-0.5-3.9-1.5
		C196.7,332.2,196.2,330.8,196.2,328.8z M198.2,328.8c0,1.5,0.3,2.6,1,3.3c0.6,0.7,1.4,1.1,2.4,1.1c1,0,1.8-0.4,2.4-1.1s1-1.8,1-3.3
		c0-1.4-0.3-2.5-1-3.2c-0.6-0.7-1.4-1.1-2.4-1.1c-1,0-1.8,0.4-2.4,1.1C198.5,326.3,198.2,327.4,198.2,328.8z"/>
	<path d="M209.2,334.6v-11.4h1.7v1.6c0.4-0.6,0.8-1,1.4-1.3c0.6-0.3,1.3-0.5,2-0.5c0.8,0,1.5,0.2,2.1,0.5c0.5,0.4,0.9,0.8,1.1,1.5
		c0.9-1.3,2.1-2,3.5-2c1.1,0,2,0.3,2.6,0.9c0.6,0.6,0.9,1.6,0.9,2.9v7.8h-1.9v-7.2c0-0.8-0.1-1.3-0.2-1.7c-0.1-0.3-0.4-0.6-0.7-0.8
		c-0.3-0.2-0.7-0.3-1.2-0.3c-0.8,0-1.5,0.3-2,0.8c-0.5,0.5-0.8,1.4-0.8,2.6v6.6H216v-7.4c0-0.9-0.2-1.5-0.5-1.9s-0.8-0.6-1.5-0.6
		c-0.5,0-1,0.1-1.5,0.4c-0.5,0.3-0.8,0.7-1,1.3c-0.2,0.6-0.3,1.3-0.3,2.4v5.9H209.2z"/>
	<path d="M227.5,338.9v-15.8h1.8v1.5c0.4-0.6,0.9-1,1.4-1.3s1.2-0.4,1.9-0.4c1,0,1.8,0.3,2.6,0.8c0.7,0.5,1.3,1.2,1.7,2.1
		s0.6,1.9,0.6,3c0,1.2-0.2,2.2-0.6,3.2c-0.4,0.9-1,1.7-1.8,2.1c-0.8,0.5-1.6,0.7-2.5,0.7c-0.6,0-1.2-0.1-1.7-0.4
		c-0.5-0.3-0.9-0.6-1.3-1v5.6H227.5z M229.3,328.9c0,1.5,0.3,2.6,0.9,3.3c0.6,0.7,1.3,1.1,2.2,1.1c0.9,0,1.6-0.4,2.2-1.1
		c0.6-0.7,0.9-1.9,0.9-3.4c0-1.5-0.3-2.5-0.9-3.3c-0.6-0.7-1.3-1.1-2.1-1.1c-0.8,0-1.6,0.4-2.2,1.2
		C229.6,326.3,229.3,327.4,229.3,328.9z"/>
	<path d="M239,328.8c0-2.1,0.6-3.7,1.8-4.7c1-0.8,2.2-1.3,3.6-1.3c1.6,0,2.9,0.5,3.8,1.5c1,1,1.5,2.4,1.5,4.3c0,1.5-0.2,2.6-0.7,3.5
		c-0.4,0.8-1.1,1.5-1.9,2c-0.8,0.5-1.8,0.7-2.8,0.7c-1.6,0-2.9-0.5-3.9-1.5C239.5,332.2,239,330.8,239,328.8z M241,328.8
		c0,1.5,0.3,2.6,1,3.3c0.6,0.7,1.4,1.1,2.4,1.1c1,0,1.8-0.4,2.4-1.1s1-1.8,1-3.3c0-1.4-0.3-2.5-1-3.2c-0.6-0.7-1.4-1.1-2.4-1.1
		c-1,0-1.8,0.4-2.4,1.1C241.3,326.3,241,327.4,241,328.8z"/>
	<path d="M252,334.6v-11.4h1.7v1.6c0.8-1.3,2-1.9,3.6-1.9c0.7,0,1.3,0.1,1.9,0.4c0.6,0.2,1,0.6,1.3,1c0.3,0.4,0.5,0.9,0.6,1.4
		c0.1,0.4,0.1,1,0.1,1.9v7h-1.9v-6.9c0-0.8-0.1-1.4-0.2-1.8c-0.2-0.4-0.4-0.7-0.8-0.9c-0.4-0.2-0.8-0.3-1.3-0.3
		c-0.8,0-1.5,0.3-2.1,0.8c-0.6,0.5-0.9,1.5-0.9,3v6.2H252z"/>
	<path d="M272,330.9l2,0.2c-0.3,1.2-0.9,2.1-1.8,2.7s-1.9,1-3.3,1c-1.7,0-3-0.5-4-1.5c-1-1-1.5-2.5-1.5-4.3c0-1.9,0.5-3.4,1.5-4.5
		c1-1.1,2.3-1.6,3.8-1.6c1.5,0,2.8,0.5,3.7,1.6c1,1,1.5,2.5,1.5,4.4c0,0.1,0,0.3,0,0.5h-8.5c0.1,1.3,0.4,2.2,1.1,2.9s1.4,1,2.4,1
		c0.7,0,1.3-0.2,1.8-0.6C271.3,332.3,271.7,331.7,272,330.9z M265.7,327.8h6.4c-0.1-1-0.3-1.7-0.7-2.2c-0.6-0.7-1.4-1.1-2.4-1.1
		c-0.9,0-1.6,0.3-2.2,0.9C266.1,326,265.7,326.8,265.7,327.8z"/>
	<path d="M276.4,334.6v-11.4h1.7v1.6c0.8-1.3,2-1.9,3.6-1.9c0.7,0,1.3,0.1,1.9,0.4c0.6,0.2,1,0.6,1.3,1c0.3,0.4,0.5,0.9,0.6,1.4
		c0.1,0.4,0.1,1,0.1,1.9v7h-1.9v-6.9c0-0.8-0.1-1.4-0.2-1.8c-0.2-0.4-0.4-0.7-0.8-0.9c-0.4-0.2-0.8-0.3-1.3-0.3
		c-0.8,0-1.5,0.3-2.1,0.8c-0.6,0.5-0.9,1.5-0.9,3v6.2H276.4z"/>
	<path d="M292.9,332.8l0.3,1.7c-0.5,0.1-1,0.2-1.5,0.2c-0.7,0-1.2-0.1-1.6-0.3s-0.7-0.5-0.8-0.9c-0.2-0.4-0.2-1.1-0.2-2.3v-6.6h-1.4
		v-1.5h1.4v-2.8l1.9-1.2v4h1.9v1.5H291v6.7c0,0.6,0,0.9,0.1,1.1c0.1,0.2,0.2,0.3,0.3,0.4c0.2,0.1,0.4,0.1,0.7,0.1
		C292.3,332.9,292.6,332.9,292.9,332.8z"/>
</g>
</svg>
