<?xml version="1.0" encoding="utf-8"?>
<!-- Generator: Adobe Illustrator 17.1.0, SVG Export Plug-In . SVG Version: 6.00 Build 0)  -->
<!DOCTYPE svg PUBLIC "-//W3C//DTD SVG 1.1//EN" "http://www.w3.org/Graphics/SVG/1.1/DTD/svg11.dtd">
<svg version="1.1" id="Layer_1" xmlns="http://www.w3.org/2000/svg" xmlns:xlink="http://www.w3.org/1999/xlink" x="0px" y="0px"
	 viewBox="0 0 1268 630" style="enable-background:new 0 0 1268 630;" xml:space="preserve">
<g>
	<path style="fill:#90D8F4;" d="M164.4,131.9c-0.4,0.5-1.4,1.5-2.9,2.3c-3.4,1.7-6.8,0.5-8.5-3c-1.7-3.5-0.6-7.2,3.1-9
		c1.2-0.6,2.4-0.8,3.1-0.8l0.3,1.8c-0.6,0-1.5,0.1-2.6,0.6c-2.6,1.3-3,3.9-1.9,6.2c1.3,2.6,3.8,3.4,6,2.3c1.2-0.6,1.8-1.3,2.2-1.8
		L164.4,131.9z"/>
	<path style="fill:#90D8F4;" d="M158.8,114.5l2.1-1l3.5,7l0,0c0-0.7,0.3-1.5,0.8-2.2c0.4-0.6,1-1.2,1.8-1.6c1.5-0.8,4.4-1,6.3,2.9
		l3.3,6.7l-2,1l-3.2-6.5c-0.9-1.8-2.3-3-4.3-2.1c-1.3,0.7-1.9,2.1-1.7,3.4c0,0.3,0.2,0.7,0.3,1l3.4,6.8l-2,1L158.8,114.5z"/>
	<path style="fill:#90D8F4;" d="M186.2,121.6l-0.9-1.3l-0.1,0c-0.2,1.2-1,2.6-2.6,3.4c-2.3,1.1-4.2,0.1-5.1-1.5
		c-1.4-2.7,0.3-5.4,4.7-7.6l-0.1-0.2c-0.5-0.9-1.6-2.5-3.9-1.3c-1,0.5-2,1.4-2.5,2.3l-1.1-1.1c0.6-1.1,1.8-2.1,3.2-2.8
		c3.4-1.7,5.5,0.2,6.6,2.5l2.1,4.2c0.5,1,1,1.9,1.5,2.6L186.2,121.6z M183,116c-2.3,1.1-4.6,2.7-3.5,4.9c0.7,1.3,1.9,1.5,2.9,1
		c1.5-0.7,1.9-2.1,1.8-3.2c0-0.2-0.1-0.5-0.2-0.7L183,116z"/>
	<path style="fill:#90D8F4;" d="M183,102.6l2-1l8.2,16.5l-2,1L183,102.6z"/>
	<path style="fill:#90D8F4;" d="M188.5,99.8l2.1-1l8.2,16.5l-2,1L188.5,99.8z"/>
	<path style="fill:#90D8F4;" d="M200.7,107.8c1.4,2.7,3.8,3,5.8,2c1.5-0.7,2.2-1.4,2.8-2.1l1.1,1.3c-0.6,0.7-1.6,1.7-3.4,2.6
		c-3.5,1.7-6.7,0.5-8.4-2.9c-1.7-3.4-1-7.1,2.3-8.7c3.7-1.8,6.3,0.9,7.3,3c0.2,0.4,0.3,0.8,0.4,1L200.7,107.8z M206,103.4
		c-0.6-1.3-2.2-3.1-4.5-1.9c-2.1,1-2,3.4-1.5,4.9L206,103.4z"/>
	<path style="fill:#90D8F4;" d="M209.8,99.6c-0.6-1.2-1.1-2.1-1.6-3l1.8-0.9l1,1.8l0,0c0-1.3,0.8-3,2.7-4c1.6-0.8,4.4-1,6.4,2.8
		l3.3,6.7l-2,1l-3.2-6.5c-0.9-1.8-2.3-3-4.3-2c-1.4,0.7-1.9,2.1-1.7,3.5c0,0.3,0.2,0.7,0.3,1l3.4,6.8l-2,1L209.8,99.6z"/>
	<path style="fill:#90D8F4;" d="M230.9,85.3c0.4,0.8,0.8,1.8,1.4,3.1l3.2,6.5c1.3,2.6,1.6,4.4,0.9,5.9c-0.6,1.6-2,2.7-3.4,3.4
		c-1.4,0.7-3,1.1-4.2,0.9l-0.3-1.8c1,0.1,2.3-0.1,3.7-0.8c2.1-1,3.1-2.9,1.7-5.7l-0.6-1.3l0,0c-0.1,1.4-0.9,2.8-2.6,3.7
		c-2.8,1.4-6,0-7.5-3.1c-1.9-3.8-0.5-7.2,2.1-8.5c2-1,3.5-0.5,4.5,0.2l0,0l-0.8-1.7L230.9,85.3z M231,90.8c-0.2-0.3-0.3-0.6-0.6-0.9
		c-1-1-2.4-1.5-3.9-0.7c-2,1-2.5,3.3-1.2,5.9c1.1,2.2,3.1,3.5,5.3,2.4c1.3-0.6,2-2,1.8-3.5c-0.1-0.4-0.2-0.8-0.4-1.2L231,90.8z"/>
	<path style="fill:#90D8F4;" d="M238.3,89.1c1.4,2.7,3.8,3,5.8,2c1.5-0.7,2.2-1.4,2.8-2.1l1.1,1.3c-0.6,0.7-1.6,1.7-3.4,2.6
		c-3.5,1.7-6.7,0.5-8.4-2.9c-1.7-3.4-1-7.1,2.3-8.7c3.7-1.8,6.3,0.9,7.3,3c0.2,0.4,0.3,0.8,0.4,1L238.3,89.1z M243.6,84.7
		c-0.6-1.3-2.2-3.1-4.5-1.9c-2.1,1-2,3.4-1.5,4.9L243.6,84.7z"/>
</g>
</svg>
