<?xml version="1.0" encoding="utf-8"?>
<!-- Generator: Adobe Illustrator 17.1.0, SVG Export Plug-In . SVG Version: 6.00 Build 0)  -->
<!DOCTYPE svg PUBLIC "-//W3C//DTD SVG 1.1//EN" "http://www.w3.org/Graphics/SVG/1.1/DTD/svg11.dtd">
<svg version="1.1" id="Layer_1" xmlns="http://www.w3.org/2000/svg" xmlns:xlink="http://www.w3.org/1999/xlink" x="0px" y="0px"
	 viewBox="0 0 775 445" style="enable-background:new 0 0 775 445;" xml:space="preserve">
<g id="uWMZnZ.tif">
	<g>
		<g>
			<path d="M183.5,306.4c0-60.8,0-121.7,0-182.5c127.3,0,254.5,0,381.8,0c0,60.8,0,121.7,0,182.5C438,306.4,310.8,306.4,183.5,306.4
				z M397,202.3c-3.4-2.2-5.5-8.7-11.2-4c-4.6,3.7-8.8,7.9-13.2,11.9c0.3,0.3,0.6,0.6,0.8,0.8c5-4,10.1-8.1,15.1-12.1
				c0.5,0.6,1,1.2,1.5,1.8c-1.4,1.8-2.9,3.6-4.3,5.4c-2.2,2.9-5,5.6-6.2,8.8c-1.1,3.2-0.4,7-0.4,10.6c3.3-0.3,6.7-0.6,10-1.1
				c0.9-0.1,1.6-1.2,3.5-2.8c-2.8,0.5-4.2,0.8-7.1,1.3c2.3-3.6,4.1-6.1,5.6-8.8c2-3.9,3.8-7.9,5.6-11.8c3.4,3.5,7.5,6,11.7,2.4
				c1.9-1.7,1.8-5.7,2.5-8.6c-3.3-0.8-6.5-1.5-10-2.3c-0.3-1.1-1-3-1.6-5c-0.5,0.1-1,0.3-1.5,0.4c0.4,3,0.9,5.9,1.4,9.1
				c-1.7-0.8-3.1-1.3-5.7-2.5C395.1,198.6,396.1,200.5,397,202.3z M439.3,170.5c-0.3,3.6,0.2,5.8-0.6,7
				c-5.8,8.7-11.4,17.7-18.1,25.7c-4,4.8-5.3,10-5.9,15.6c-0.7,5.9,2.5,9.3,8.3,8.2c4.4-0.9,8.7-3.3,12.7-5.5
				c2.9-1.6,5.3-4.1,8.6-6.7c-0.2,5.7-3.8,12.6,3.8,14.1c4.9,1,10.4-1.3,15.8-2.2c-0.7,1.9-1.6,4.1-2.4,6.3
				c-0.9,2.4-1.9,4.8-2.7,7.2c-2.8,8.1,0.1,15.6,6.9,18.3c7.4,3,14.6-0.5,17.9-8.8c5.5-14.1,10.6-28.5,16.3-42.5
				c7.9-19.3,13-39.7,24.1-58.4c-6.6-7.4-15.8-10.3-25.8-10.8c-1.1-0.1-2.8,2.1-3.3,3.6c-3.5,10.7-6.8,21.4-9.6,30.3
				c-4.1-0.7-7-1.9-9.6-1.4c-3.6,0.7-7,2.6-12,4.6c2.9,0.4,4,0.6,5.7,0.8c-0.8,1.9-1.2,3.6-2.2,5c-6.5,9.3-12.6,19-19.9,27.5
				c-4.8,5.6-11.3,9.7-17.5,13.9c-2.2,1.5-5.6,1-8.4,1.5c0.3-2.8-0.3-6.1,1.1-8.2c6.2-9.5,12.7-18.7,19.4-27.8
				c3.4-4.6,7.6-8.7,11.1-13.3c0.9-1.3,1.4-4,0.6-5.1c-0.8-1.2-3.4-1.8-5-1.5C444.8,168.4,441.2,169.9,439.3,170.5z M365.5,191.9
				c9.8-4.9,19.5-10.2,25.1-20.2c1.5-2.7,1.9-7.9,0.3-9.8c-1.7-2-6.9-2.6-9.8-1.5c-4.5,1.6-8.7,4.5-12.3,7.7
				c-10.9,9.6-18.4,21.7-25.6,34.2c-4,7.1-6.5,14.2-7.4,22c-0.4,3.4,0.6,6.9,1,10.4c0.5-0.1,1-0.2,1.5-0.3
				c0.8-5.1,1.6-10.1,2.6-16.3c8.4,8.1,16.6,11.3,26.4,7.3c-7.7-0.1-13.3-4.2-17.6-8.4c6.5-3,13.2-5.3,18.8-9.1
				c2.3-1.6,2.3-6.5,3.3-10c-3.5-0.5-7.3-2.1-10.6-1.3c-3.5,0.8-6.6,3.6-10.6,6c14.2-21.8,29.2-35.7,39.3-35.7
				C385.4,179.3,374.2,184.4,365.5,191.9z M238.5,252.5c0,0.6,0.1,1.1,0.1,1.7c4.2,0.3,8.5,1.1,12.7,0.8c19.7-1.6,46-30.1,46.1-50
				c0-2.5-1.6-4.9-2.4-7.2c-3.4,5.6-6.3,10.2-9.1,14.7c0.8-0.2,1.8-0.4,3.4-0.7c-6.5,12.2-14,22.9-24.2,31.5
				C257.5,249.8,249.6,255.6,238.5,252.5z M317.6,214.7c0.2,0.4,0.4,0.8,0.5,1.2c3.4-1.9,7.1-3.4,10.1-5.9c1.7-1.4,3.3-4.9,2.6-6.5
				c-0.9-2-4-3.7-6.4-4c-10.1-1.3-21.8,5.3-25.2,14.8c-1.3,3.6-1.6,9.2,0.3,11.9c2,2.7,7.5,4.2,11.2,3.8c9.4-0.8,16.3-6.6,22.5-13.2
				c-2.5,1-4.6,2.8-6.9,4.1c-4.1,2.3-8.1,4.7-12.5,6.1c-4.3,1.4-7-1.1-6.8-5.8c0.2-6.7,9.6-17.5,16-18.3c1.4-0.2,3.7,0.4,4.4,1.4
				c0.6,0.9,0,3.6-0.9,4.3C323.8,211.1,320.6,212.8,317.6,214.7z M353.1,252.9c24.3,10.8,52.9-19.2,55.2-44.7
				c-1.9,1.2-3.4,2.8-4.7,4.5c-7.6,10.3-14.4,21.1-22.8,30.6C373.9,251.2,364.5,255.7,353.1,252.9z M300.1,195.9
				c2.3-3.3,4-5.4,5.3-7.8c0.1-0.3-3.3-2.9-3.5-2.7c-2,1.8-3.8,3.9-5.2,6.2C296.4,191.9,298.3,193.6,300.1,195.9z M423,190
				c-1.7-0.6-4.3-2.1-4.8-1.5c-2.4,2.5-4.3,5.6-6.3,8.4c0.3,0.1,0.6,0.2,0.9,0.4C415.9,195.1,419,192.9,423,190z"/>
			<path style="fill:#FFFFFF;" d="M439.3,170.5c1.9-0.6,5.5-2.1,9.2-2.8c1.6-0.3,4.2,0.3,5,1.5c0.8,1.1,0.4,3.9-0.6,5.1
				c-3.5,4.6-7.6,8.7-11.1,13.3c-6.7,9.1-13.3,18.3-19.4,27.8c-1.4,2.1-0.8,5.5-1.1,8.2c2.8-0.4,6.3,0,8.4-1.5
				c6.2-4.2,12.7-8.4,17.5-13.9c7.4-8.6,13.4-18.3,19.9-27.5c0.9-1.3,1.3-3,2.2-5c-1.7-0.2-2.8-0.4-5.7-0.8c5-2,8.4-3.9,12-4.6
				c2.6-0.5,5.4,0.7,9.6,1.4c2.8-8.9,6.1-19.7,9.6-30.3c0.5-1.5,2.2-3.6,3.3-3.6c10.1,0.5,19.2,3.4,25.8,10.8
				c-11.1,18.7-16.2,39.1-24.1,58.4c-5.8,14-10.8,28.4-16.3,42.5c-3.3,8.4-10.5,11.8-17.9,8.8c-6.8-2.7-9.6-10.3-6.9-18.3
				c0.8-2.4,1.8-4.8,2.7-7.2c0.8-2.2,1.7-4.3,2.4-6.3c-5.4,0.9-10.9,3.2-15.8,2.2c-7.6-1.5-4-8.4-3.8-14.1c-3.2,2.6-5.7,5.1-8.6,6.7
				c-4,2.3-8.3,4.7-12.7,5.5c-5.9,1.1-9-2.3-8.3-8.2c0.6-5.6,1.9-10.8,5.9-15.6c6.7-8,12.3-17,18.1-25.7
				C439.5,176.3,439,174.1,439.3,170.5z M504.1,184.5c-4.1,2.3-7,5.1-10.1,5.5c-13.2,1.8-17.6,11.1-20.3,22.3
				c1.3-0.3,2.3-0.6,3.4-0.9c-9.4,8-10.5,19.9-14.7,30.1c-2.5,6,0.2,12,5.3,13.9c5,1.8,9.9-0.9,12.3-7.2
				c4.9-12.7,9.7-25.5,14.6-38.3C497.6,201.8,500.7,193.6,504.1,184.5z M482.3,178.2c-0.5-0.4-1-0.7-1.6-1.1
				c-9.2,12.4-18.5,24.7-27.6,37.2c-1.7,2.3-2.9,5.4-3.3,8.2c-0.2,1.2,3,4.1,3.4,3.9c4.8-2.5,11.5-4.4,13.4-8.5
				C472.9,205.2,477.2,191.5,482.3,178.2z M516.8,149.9c0.3-0.8,0.5-1.5,0.8-2.3c-5.9-5.8-12.5-7.9-19.4-4.6
				C505.4,145.7,511.1,147.8,516.8,149.9z"/>
			<path style="fill:#FFFFFF;" d="M365.5,191.9c8.7-7.6,19.9-12.7,24.5-25c-10,0-25.1,13.8-39.3,35.7c4-2.4,7.1-5.3,10.6-6
				c3.3-0.7,7,0.8,10.6,1.3c-1,3.4-1,8.4-3.3,10c-5.6,3.8-12.3,6.1-18.8,9.1c4.4,4.2,9.9,8.3,17.6,8.4c-9.8,4-18,0.8-26.4-7.3
				c-1,6.1-1.8,11.2-2.6,16.3c-0.5,0.1-1,0.2-1.5,0.3c-0.4-3.5-1.4-7-1-10.4c0.8-7.8,3.4-14.9,7.4-22c7.1-12.6,14.7-24.6,25.6-34.2
				c3.6-3.2,7.8-6.2,12.3-7.7c2.9-1,8.1-0.4,9.8,1.5c1.6,1.9,1.2,7.1-0.3,9.8C384.9,181.7,375.3,187,365.5,191.9z M343.9,211.5
				c8,3.3,18.6-0.7,20.3-6.1c0.4-1.4,0.2-3.7-0.7-4.5c-0.9-0.8-3.5-1.1-4.6-0.4C354.2,203.7,349.7,207.3,343.9,211.5z"/>
			<path style="fill:#FFFFFF;" d="M238.5,252.5c11.1,3.1,19-2.7,26.6-9.1c10.2-8.6,17.8-19.3,24.2-31.5c-1.6,0.3-2.6,0.5-3.4,0.7
				c2.8-4.5,5.6-9.1,9.1-14.7c0.8,2.2,2.4,4.7,2.4,7.2c-0.1,19.8-26.4,48.3-46.1,50c-4.2,0.3-8.5-0.5-12.7-0.8
				C238.5,253.6,238.5,253.1,238.5,252.5z"/>
			<path style="fill:#FFFFFF;" d="M317.6,214.7c3-1.9,6.2-3.6,8.9-5.9c1-0.8,1.5-3.4,0.9-4.3c-0.7-1-2.9-1.6-4.4-1.4
				c-6.5,0.8-15.8,11.6-16,18.3c-0.2,4.7,2.5,7.1,6.8,5.8c4.4-1.4,8.5-3.9,12.5-6.1c2.3-1.3,4.4-3.1,6.9-4.1
				c-6.2,6.7-13.2,12.5-22.5,13.2c-3.8,0.3-9.2-1.2-11.2-3.8c-2-2.7-1.6-8.2-0.3-11.9c3.4-9.5,15.1-16.2,25.2-14.8
				c2.4,0.3,5.5,2.1,6.4,4c0.7,1.5-0.9,5.1-2.6,6.5c-2.9,2.5-6.7,4-10.1,5.9C318,215.5,317.8,215.1,317.6,214.7z"/>
			<path style="fill:#FFFFFF;" d="M353.1,252.9c11.4,2.8,20.8-1.7,27.7-9.5c8.4-9.5,15.3-20.4,22.8-30.6c1.3-1.7,2.8-3.3,4.7-4.5
				C406,233.7,377.4,263.6,353.1,252.9z"/>
			<path style="fill:#FFFFFF;" d="M396.8,202.1c-1.9,4-3.6,8-5.6,11.8c-1.4,2.7-3.3,5.2-5.6,8.8c2.8-0.5,4.3-0.8,7.1-1.3
				c-1.9,1.6-2.7,2.7-3.5,2.8c-3.3,0.5-6.7,0.8-10,1.1c0.1-3.5-0.6-7.4,0.4-10.6c1.1-3.3,4-5.9,6.2-8.8c1.4-1.8,2.9-3.6,4.3-5.4
				c-0.5-0.6-1-1.2-1.5-1.8c-5,4-10.1,8.1-15.1,12.1c-0.3-0.3-0.6-0.6-0.8-0.8c4.4-4,8.6-8.1,13.2-11.9c5.7-4.7,7.8,1.8,11.2,4
				L396.8,202.1z"/>
			<path style="fill:#FFFFFF;" d="M397,202.3c-0.9-1.8-1.9-3.6-3.5-6.8c2.6,1.1,4,1.7,5.7,2.5c-0.5-3.1-0.9-6.1-1.4-9.1
				c0.5-0.1,1-0.3,1.5-0.4c0.6,2,1.3,3.9,1.6,5c3.5,0.8,6.7,1.6,10,2.3c-0.8,2.9-0.6,7-2.5,8.6c-4.1,3.6-8.3,1.2-11.7-2.4
				C396.8,202.1,397,202.3,397,202.3z"/>
			<path style="fill:#FFFFFF;" d="M300.1,195.9c-1.8-2.3-3.7-4-3.5-4.4c1.4-2.3,3.2-4.3,5.2-6.2c0.2-0.2,3.6,2.5,3.5,2.7
				C304.1,190.5,302.4,192.6,300.1,195.9z"/>
			<path style="fill:#FFFFFF;" d="M423,190c-4,2.8-7.1,5-10.2,7.3c-0.3-0.1-0.6-0.2-0.9-0.4c2.1-2.9,3.9-5.9,6.3-8.4
				C418.7,188,421.2,189.4,423,190z"/>
			<path d="M504.1,184.5c-3.4,9.1-6.5,17.2-9.6,25.3c-4.8,12.8-9.6,25.6-14.6,38.3c-2.4,6.3-7.4,9-12.3,7.2
				c-5.1-1.9-7.8-7.9-5.3-13.9c4.2-10.2,5.3-22.1,14.7-30.1c-1.1,0.3-2.1,0.6-3.4,0.9c2.7-11.2,7.1-20.5,20.3-22.3
				C497.1,189.6,499.9,186.9,504.1,184.5z"/>
			<path d="M482.3,178.2c-5.1,13.3-9.4,26.9-15.6,39.7c-2,4.1-8.7,6-13.4,8.5c-0.4,0.2-3.6-2.7-3.4-3.9c0.4-2.8,1.6-5.9,3.3-8.2
				c9.1-12.5,18.4-24.8,27.6-37.2C481.3,177.5,481.8,177.9,482.3,178.2z"/>
			<path d="M516.8,149.9c-5.7-2.1-11.4-4.2-18.6-6.8c6.9-3.3,13.5-1.2,19.4,4.6C517.3,148.3,517.1,149.1,516.8,149.9z"/>
			<path d="M343.9,211.5c5.7-4.2,10.3-7.8,15.1-11c1.1-0.7,3.6-0.5,4.6,0.4c0.9,0.8,1.1,3.2,0.7,4.5
				C362.5,210.9,351.9,214.8,343.9,211.5z"/>
		</g>
	</g>
</g>
</svg>
