<?xml version="1.0" encoding="utf-8"?>
<!-- Generator: Adobe Illustrator 17.1.0, SVG Export Plug-In . SVG Version: 6.00 Build 0)  -->
<!DOCTYPE svg PUBLIC "-//W3C//DTD SVG 1.1//EN" "http://www.w3.org/Graphics/SVG/1.1/DTD/svg11.dtd">
<svg version="1.1" id="Layer_1" xmlns="http://www.w3.org/2000/svg" xmlns:xlink="http://www.w3.org/1999/xlink" x="0px" y="0px"
	 viewBox="0 0 775 445" style="enable-background:new 0 0 775 445;" xml:space="preserve">
<g>
	<path d="M177.1,75.2L177.1,75.2c-0.2,0-0.3,0.1-0.4,0.4c-0.3,0.6-0.2,1.7,0.2,2.9c0.1-0.1,0.1-0.2,0.1-0.2c0.6-2,0.5-2.9,0.3-3.1
		C177.2,75.3,177.2,75.2,177.1,75.2z M176.9,81.5c-0.4,1.2-1,2.6-1.6,3.9c1.2-0.4,2.5-0.8,3.8-1c-0.1-0.1-0.1-0.1-0.1-0.1
		C178.1,83.5,177.4,82.5,176.9,81.5z M181.6,85.1c1.5,1,2.6,1,3.1,0.8c0.2-0.1,0.3-0.2,0.3-0.2c0-0.1,0-0.2-0.1-0.2
		c-0.1-0.2-0.6-0.4-2.4-0.4c-0.1,0-0.1,0-0.1,0C182.2,85.1,181.9,85.1,181.6,85.1z M173.1,87.4c-1.5,0.7-2.9,1.9-2.9,2.4l0.1,0.1
		c0.2,0.2,1-0.1,1.7-0.9C172.3,88.6,172.7,88.1,173.1,87.4z M170.3,91.1c-0.3,0-0.6-0.1-0.8-0.3c-0.3-0.3-0.4-0.6-0.4-1.1
		c0.2-1.3,2.3-2.7,3.8-3.3c0.3-0.1,0.6-0.3,1-0.4c1-1.9,1.9-4.2,2.4-5.8c-0.8-2-1-3.9-0.6-4.9c0.3-0.8,0.9-1,1.2-1.1
		c0.6-0.1,1,0.2,1.2,0.4c0.2,0.3,0.8,1-0.1,4.1c0,0-0.2,0.6-0.5,1.5c0.5,1.2,1.3,2.4,2.3,3.4c0.3,0.3,0.4,0.4,0.6,0.6
		c0.8-0.1,1.5-0.2,2.2-0.2l0,0c1.7,0,2.6,0.3,3.1,0.8c0.3,0.3,0.4,0.6,0.3,1c-0.1,0.5-0.4,0.9-1,1.2c-1,0.4-2.8,0.1-5-1.7
		c-1.9,0.3-3.9,1-5.4,1.5c-0.6,1.2-1.3,2.3-2,2.9C171.9,90.6,171,91.1,170.3,91.1z"/>
	<path d="M171.7,105.3c0.1,0.1,0.3,0.1,0.6,0.1c0.8,0,1.3-0.4,1.3-1.2c0-0.7-0.4-1-1.3-1c-0.3,0-0.5,0-0.6,0.1V105.3z M170.7,102.4
		c0.4-0.1,1-0.1,1.7-0.1c0.8,0,1.4,0.2,1.8,0.5c0.4,0.3,0.6,0.8,0.6,1.3s-0.2,1.1-0.5,1.4c-0.4,0.4-1.2,0.6-1.9,0.6
		c-0.2,0-0.4,0-0.6-0.1v2.3h-1.1V102.4z"/>
	<path d="M176.9,107.7c0.1,0,0.4,0,0.6,0c1.5,0,2.3-0.8,2.3-2.4c0-1.3-0.8-2.1-2.2-2.1c-0.4,0-0.6,0-0.8,0.1V107.7z M175.8,102.4
		c0.5-0.1,1.2-0.1,1.8-0.1c1.2,0,1.9,0.3,2.5,0.7c0.6,0.5,1,1.2,1,2.2c0,1.1-0.4,1.9-1,2.4c-0.6,0.6-1.6,0.8-2.8,0.8
		c-0.6,0-1.2-0.1-1.5-0.1L175.8,102.4L175.8,102.4z"/>
	<polygon points="182,102.4 185.5,102.4 185.5,103.3 183.1,103.3 183.1,105 185.3,105 185.3,105.9 183.1,105.9 183.1,108.5 
		182,108.5 	"/>
	<path d="M158.3,111.4V99.6h40.6v11.8H158.3z M185.6,59.1v13.3h13.3v26.2h-40.6V59.1H185.6z M187.1,60.1l10.6,10.7h-10.6V60.1z
		 M186.8,57.5h-30V113h43.8V71.3L186.8,57.5z"/>
</g>
<path d="M405.1,278.7c-1.4,0.2-2.5,1.2-2.3,2.4c0.1,1.1,1.5,2,2.8,2h63.5c1.4,0,2.7-1.1,2.7-2.2c0-1.1-1.3-2.1-2.7-2.1h-63.5
	c0,0-0.1,0-0.2,0C405.3,278.7,405.2,278.7,405.1,278.7z M288.7,278.7c-1.4,0.2-2.5,1.3-2.3,2.4c0.2,1.1,1.5,2,2.9,1.9h63.4
	c1.4,0,2.7-1.1,2.7-2.2c0-1.1-1.3-2.1-2.7-2.1h-63.4c-0.1,0-0.2,0-0.3,0C288.9,278.7,288.8,278.7,288.7,278.7z M405.1,249.4
	c-1.4,0.1-2.5,1.2-2.3,2.4c0.1,1.1,1.5,2.1,2.8,1.9h63.5c1.4,0.1,2.7-1,2.7-2.1c0-1.1-1.3-2.1-2.7-2.1h-63.5c0,0-0.1,0-0.2,0
	C405.3,249.4,405.2,249.4,405.1,249.4z M288.7,249.4c-1.4,0.2-2.5,1.2-2.3,2.4c0.2,1.1,1.5,2.1,2.9,1.9h63.4c1.4,0.1,2.7-1,2.7-2.1
	c0-1.1-1.3-2.1-2.7-2.1h-63.4c-0.1,0-0.2,0-0.3,0C288.9,249.4,288.8,249.4,288.7,249.4z M405.1,220.1c-1.4,0.1-2.5,1.2-2.3,2.4
	c0.1,1.1,1.5,2,2.8,1.9h63.5c1.4,0,2.7-1,2.7-2.1c0-1.1-1.3-2.2-2.7-2.1h-63.5c0,0-0.1,0-0.2,0C405.3,220.1,405.2,220.1,405.1,220.1
	z M288.7,220.1c-1.4,0.1-2.5,1.2-2.3,2.4c0.2,1.1,1.5,2.1,2.9,1.9h63.4c1.4,0,2.7-1,2.7-2.1c0-1.1-1.3-2.2-2.7-2.1h-63.4
	c-0.1,0-0.2,0-0.3,0C288.9,220.1,288.8,220.1,288.7,220.1z M405.1,190.6c-1.4,0.2-2.5,1.2-2.3,2.4c0.1,1.1,1.5,2.1,2.8,2h63.5
	c1.4,0,2.7-1.1,2.7-2.1c0-1.1-1.3-2.2-2.7-2.2h-63.5c0,0-0.1,0-0.2,0C405.3,190.6,405.2,190.6,405.1,190.6z M288.7,190.6
	c-1.4,0.2-2.5,1.3-2.3,2.4c0.2,1.1,1.5,2,2.9,1.9h63.4c1.4,0,2.7-1.1,2.7-2.1c0-1.1-1.3-2.2-2.7-2.2h-63.4c-0.1,0-0.2,0-0.3,0
	C288.9,190.6,288.8,190.6,288.7,190.6z M405.6,160.9h82.9v146.9h-82.9c-10.1,0-18.6,4.8-23.8,11.7V182.4
	C381.8,170.3,392.5,160.9,405.6,160.9z M269.8,160.9h82.9c13.1,0,23.9,9.4,23.9,21.4v137.1c-5.2-6.9-13.7-11.7-23.9-11.7h-82.9
	V160.9z M266.8,156.6c-0.2,0.1-0.4,0.1-0.5,0.2c-0.1,0.1-0.2,0.1-0.3,0.2c-0.1,0-0.2,0-0.3,0.1l-0.1,0.1c-0.2,0.2-0.4,0.2-0.5,0.4
	c-0.1,0.2-0.3,0.3-0.3,0.5c-0.1,0.1-0.1,0.2-0.1,0.2c-0.1,0.1-0.1,0.2-0.1,0.2c0,0.2,0,0.2,0,0.4h-0.1v151.1c0,1.1,1.2,2.2,2.6,2.2
	h85.5c12,0,22,8,23.6,18.6c0.1,1.6,2.9,2.6,4.4,1.4c0,0,0.1,0,0.1-0.1c0.6-0.3,1-0.8,1.2-1.4c1.6-10.6,11.5-18.6,23.5-18.6h85.4
	c1.4,0,2.7-1.1,2.7-2.2V158.8c0-0.1,0-0.2,0-0.2c-0.1-0.3-0.2-0.5-0.3-0.8c-0.1-0.1-0.1-0.2-0.2-0.2c-0.1-0.2-0.2-0.3-0.3-0.4
	c-0.1-0.1-0.3-0.2-0.4-0.2c-0.1-0.1-0.2-0.2-0.3-0.2c0-0.1-0.1-0.1-0.2-0.2c-0.2-0.1-0.4-0.1-0.5-0.2c-0.1,0-0.2,0-0.3,0
	c-0.1,0-0.3,0-0.4,0h-85.5c-11.8,0-21.9,6.2-26.4,15.2c-4.5-9-14.6-15.2-26.5-15.2h-85.3c-0.1,0-0.1,0-0.2,0c-0.1,0-0.2,0-0.2,0
	C267,156.6,266.9,156.6,266.8,156.6z"/>
<g>
	<g>
		<path style="fill:none;stroke:#000000;stroke-width:2;" d="M170,129.2c-4.8,26.7-2.2,53.4,15.4,75.3
			c10.9,13.5,31.4,27.9,50.5,29.8"/>
		<g>
			<polygon points="233.6,244 250.3,233.1 232.5,224.1 			"/>
		</g>
	</g>
</g>
<g>
	<path d="M209.3,363.4h7.5c2.5,0,4.5,0.9,5.9,2.7c1.2,1.6,1.9,3.7,1.9,6.3c0,2-0.4,3.8-1.1,5.4c-1.3,2.8-3.5,4.2-6.7,4.2h-7.4V363.4
		z M216.3,379.9c0.8,0,1.5-0.1,2.1-0.3c1-0.3,1.7-1,2.4-1.9c0.5-0.8,0.8-1.7,1.1-2.9c0.1-0.7,0.2-1.4,0.2-2c0-2.3-0.4-4.1-1.3-5.4
		c-0.9-1.3-2.3-1.9-4.3-1.9h-4.4v14.3H216.3z"/>
	<path d="M237.5,369.8c1.2,1.2,1.8,2.9,1.8,5.1c0,2.2-0.5,4-1.6,5.4c-1.1,1.4-2.7,2.1-4.9,2.1c-1.9,0-3.3-0.6-4.4-1.9
		c-1.1-1.3-1.6-3-1.6-5.1c0-2.3,0.6-4.1,1.7-5.5s2.7-2,4.6-2C234.8,368.1,236.3,368.7,237.5,369.8z M236.1,378.9
		c0.6-1.1,0.8-2.4,0.8-3.8c0-1.3-0.2-2.3-0.6-3.1c-0.6-1.3-1.7-1.9-3.3-1.9c-1.4,0-2.4,0.5-3,1.6s-0.9,2.3-0.9,3.9
		c0,1.4,0.3,2.7,0.9,3.6c0.6,1,1.6,1.4,3,1.4C234.5,380.6,235.5,380,236.1,378.9z"/>
	<path d="M243.2,368.5l2.6,10.7l2.7-10.7h2.6l2.7,10.7l2.8-10.7h2.3l-3.9,13.6h-2.4l-2.8-10.5l-2.7,10.5h-2.4l-3.9-13.6H243.2z"/>
	<path d="M260.9,368.5h2.2v1.9c0.6-0.8,1.3-1.4,2-1.7c0.7-0.3,1.5-0.5,2.4-0.5c1.9,0,3.2,0.7,3.9,2c0.4,0.7,0.6,1.8,0.6,3.2v8.7
		h-2.3v-8.6c0-0.8-0.1-1.5-0.4-2c-0.4-0.8-1.1-1.3-2.2-1.3c-0.5,0-1,0.1-1.3,0.2c-0.6,0.2-1.2,0.6-1.7,1.1c-0.4,0.4-0.6,0.9-0.7,1.4
		c-0.1,0.5-0.2,1.2-0.2,2.1v7.1h-2.3V368.5z"/>
	<path d="M275.4,363.4h2.3v18.6h-2.3V363.4z"/>
	<path d="M291,369.8c1.2,1.2,1.8,2.9,1.8,5.1c0,2.2-0.5,4-1.6,5.4c-1.1,1.4-2.7,2.1-4.9,2.1c-1.9,0-3.3-0.6-4.4-1.9
		c-1.1-1.3-1.6-3-1.6-5.1c0-2.3,0.6-4.1,1.7-5.5s2.7-2,4.6-2C288.3,368.1,289.8,368.7,291,369.8z M289.6,378.9
		c0.6-1.1,0.8-2.4,0.8-3.8c0-1.3-0.2-2.3-0.6-3.1c-0.6-1.3-1.7-1.9-3.3-1.9c-1.4,0-2.4,0.5-3,1.6s-0.9,2.3-0.9,3.9
		c0,1.4,0.3,2.7,0.9,3.6c0.6,1,1.6,1.4,3,1.4C288,380.6,289,380,289.6,378.9z"/>
	<path d="M302.9,373.9c0.5-0.1,0.9-0.3,1.1-0.7c0.1-0.2,0.2-0.5,0.2-0.9c0-0.8-0.3-1.3-0.8-1.7s-1.3-0.5-2.4-0.5c-1.2,0-2,0.3-2.5,1
		c-0.3,0.4-0.5,0.9-0.5,1.6h-2.1c0-1.7,0.6-2.8,1.6-3.5c1-0.7,2.3-1,3.6-1c1.6,0,2.9,0.3,3.9,0.9c1,0.6,1.5,1.6,1.5,2.8v7.8
		c0,0.2,0,0.4,0.1,0.6s0.3,0.2,0.6,0.2c0.1,0,0.2,0,0.3,0s0.3,0,0.4-0.1v1.7c-0.4,0.1-0.6,0.2-0.8,0.2s-0.4,0-0.8,0
		c-0.8,0-1.4-0.3-1.7-0.8c-0.2-0.3-0.3-0.7-0.4-1.3c-0.5,0.6-1.1,1.1-2,1.6s-1.8,0.7-2.9,0.7c-1.3,0-2.3-0.4-3.1-1.1
		c-0.8-0.8-1.2-1.7-1.2-2.9c0-1.3,0.4-2.2,1.2-2.9c0.8-0.7,1.8-1.1,3.1-1.3L302.9,373.9z M298.1,380c0.5,0.4,1.1,0.6,1.7,0.6
		c0.8,0,1.6-0.2,2.3-0.6c1.3-0.6,1.9-1.6,1.9-3v-1.8c-0.3,0.2-0.6,0.3-1.1,0.4c-0.4,0.1-0.9,0.2-1.3,0.3l-1.4,0.2
		c-0.8,0.1-1.5,0.3-1.9,0.5c-0.7,0.4-1.1,1-1.1,1.9C297.3,379.1,297.6,379.7,298.1,380z"/>
	<path d="M317.5,368.9c0.4,0.3,0.9,0.7,1.4,1.3v-6.9h2.2v18.7H319v-1.9c-0.5,0.8-1.2,1.4-1.9,1.8c-0.7,0.4-1.6,0.6-2.5,0.6
		c-1.5,0-2.8-0.6-3.9-1.9c-1.1-1.3-1.7-3-1.7-5.1c0-2,0.5-3.7,1.5-5.1c1-1.5,2.4-2.2,4.3-2.2C316,368.2,316.8,368.5,317.5,368.9z
		 M312.4,379.1c0.6,1,1.6,1.5,3,1.5c1.1,0,1.9-0.5,2.6-1.4c0.7-0.9,1-2.2,1-3.9c0-1.7-0.3-3-1-3.8c-0.7-0.8-1.6-1.2-2.6-1.2
		c-1.1,0-2.1,0.4-2.8,1.3c-0.7,0.9-1.1,2.2-1.1,3.9C311.5,376.9,311.8,378.1,312.4,379.1z"/>
	<path d="M339,373.9c0.5-0.1,0.9-0.3,1.1-0.7c0.1-0.2,0.2-0.5,0.2-0.9c0-0.8-0.3-1.3-0.8-1.7s-1.3-0.5-2.4-0.5c-1.2,0-2,0.3-2.5,1
		c-0.3,0.4-0.5,0.9-0.5,1.6h-2.1c0-1.7,0.6-2.8,1.6-3.5c1-0.7,2.3-1,3.6-1c1.6,0,2.9,0.3,3.9,0.9c1,0.6,1.5,1.6,1.5,2.8v7.8
		c0,0.2,0,0.4,0.1,0.6s0.3,0.2,0.6,0.2c0.1,0,0.2,0,0.3,0s0.3,0,0.4-0.1v1.7c-0.4,0.1-0.6,0.2-0.8,0.2s-0.4,0-0.8,0
		c-0.8,0-1.4-0.3-1.7-0.8c-0.2-0.3-0.3-0.7-0.4-1.3c-0.5,0.6-1.1,1.1-2,1.6s-1.8,0.7-2.9,0.7c-1.3,0-2.3-0.4-3.1-1.1
		c-0.8-0.8-1.2-1.7-1.2-2.9c0-1.3,0.4-2.2,1.2-2.9c0.8-0.7,1.8-1.1,3.1-1.3L339,373.9z M334.2,380c0.5,0.4,1.1,0.6,1.7,0.6
		c0.8,0,1.6-0.2,2.3-0.6c1.3-0.6,1.9-1.6,1.9-3v-1.8c-0.3,0.2-0.6,0.3-1.1,0.4c-0.4,0.1-0.9,0.2-1.3,0.3l-1.4,0.2
		c-0.8,0.1-1.5,0.3-1.9,0.5c-0.7,0.4-1.1,1-1.1,1.9C333.5,379.1,333.7,379.7,334.2,380z"/>
	<path d="M346.2,368.5h2.2v1.9c0.6-0.8,1.3-1.4,2-1.7c0.7-0.3,1.5-0.5,2.4-0.5c1.9,0,3.2,0.7,3.9,2c0.4,0.7,0.6,1.8,0.6,3.2v8.7H355
		v-8.6c0-0.8-0.1-1.5-0.4-2c-0.4-0.8-1.1-1.3-2.2-1.3c-0.5,0-1,0.1-1.3,0.2c-0.6,0.2-1.2,0.6-1.7,1.1c-0.4,0.4-0.6,0.9-0.7,1.4
		c-0.1,0.5-0.2,1.2-0.2,2.1v7.1h-2.3V368.5z"/>
	<path d="M368.1,368.9c0.4,0.3,0.9,0.7,1.4,1.3v-6.9h2.2v18.7h-2.1v-1.9c-0.5,0.8-1.2,1.4-1.9,1.8c-0.7,0.4-1.6,0.6-2.5,0.6
		c-1.5,0-2.8-0.6-3.9-1.9c-1.1-1.3-1.7-3-1.7-5.1c0-2,0.5-3.7,1.5-5.1c1-1.5,2.4-2.2,4.3-2.2C366.6,368.2,367.4,368.5,368.1,368.9z
		 M363,379.1c0.6,1,1.6,1.5,3,1.5c1.1,0,1.9-0.5,2.6-1.4c0.7-0.9,1-2.2,1-3.9c0-1.7-0.3-3-1-3.8c-0.7-0.8-1.6-1.2-2.6-1.2
		c-1.1,0-2.1,0.4-2.8,1.3c-0.7,0.9-1.1,2.2-1.1,3.9C362.1,376.9,362.4,378.1,363,379.1z"/>
	<path d="M382.2,368.6h2.2v1.8c0.5-0.6,1-1.1,1.5-1.4c0.8-0.5,1.7-0.8,2.7-0.8c1.5,0,2.9,0.6,3.9,1.8s1.6,2.9,1.6,5.1
		c0,3-0.8,5.1-2.3,6.3c-1,0.8-2.1,1.2-3.4,1.2c-1,0-1.9-0.2-2.6-0.7c-0.4-0.3-0.9-0.7-1.4-1.3v6.9h-2.3V368.6z M390.7,379.2
		c0.7-0.9,1.1-2.2,1.1-4c0-1.1-0.2-2-0.5-2.8c-0.6-1.5-1.7-2.2-3.3-2.2c-1.6,0-2.7,0.8-3.3,2.4c-0.3,0.8-0.5,1.9-0.5,3.2
		c0,1,0.2,1.9,0.5,2.7c0.6,1.4,1.7,2.1,3.3,2.1C389.1,380.6,390,380.1,390.7,379.2z"/>
	<path d="M396.9,368.5h2.2v2.3c0.2-0.5,0.6-1,1.3-1.7c0.7-0.7,1.5-1,2.4-1c0,0,0.1,0,0.2,0c0.1,0,0.3,0,0.5,0.1v2.4
		c-0.1,0-0.3,0-0.4-0.1c-0.1,0-0.2,0-0.4,0c-1.2,0-2,0.4-2.7,1.1c-0.6,0.7-0.9,1.6-0.9,2.6v7.8h-2.3V368.5z"/>
	<path d="M405.5,363.4h2.3v2.6h-2.3V363.4z M405.5,368.6h2.3v13.5h-2.3V368.6z"/>
	<path d="M411.2,368.5h2.2v1.9c0.6-0.8,1.3-1.4,2-1.7c0.7-0.3,1.5-0.5,2.4-0.5c1.9,0,3.2,0.7,3.9,2c0.4,0.7,0.6,1.8,0.6,3.2v8.7H420
		v-8.6c0-0.8-0.1-1.5-0.4-2c-0.4-0.8-1.1-1.3-2.2-1.3c-0.5,0-1,0.1-1.3,0.2c-0.6,0.2-1.2,0.6-1.7,1.1c-0.4,0.4-0.6,0.9-0.7,1.4
		c-0.1,0.5-0.2,1.2-0.2,2.1v7.1h-2.3V368.5z"/>
	<path d="M426.2,364.7h2.3v3.8h2.2v1.9h-2.2v8.9c0,0.5,0.2,0.8,0.5,1c0.2,0.1,0.5,0.1,0.9,0.1c0.1,0,0.2,0,0.4,0c0.1,0,0.3,0,0.4,0
		v1.8c-0.3,0.1-0.5,0.1-0.8,0.2c-0.3,0-0.6,0.1-0.9,0.1c-1.1,0-1.8-0.3-2.2-0.8s-0.6-1.3-0.6-2.1v-9h-1.8v-1.9h1.8V364.7z"/>
	<path d="M447.4,373.9c0.5-0.1,0.9-0.3,1.1-0.7c0.1-0.2,0.2-0.5,0.2-0.9c0-0.8-0.3-1.3-0.8-1.7s-1.3-0.5-2.4-0.5c-1.2,0-2,0.3-2.5,1
		c-0.3,0.4-0.5,0.9-0.5,1.6h-2.1c0-1.7,0.6-2.8,1.6-3.5c1-0.7,2.3-1,3.6-1c1.6,0,2.9,0.3,3.9,0.9c1,0.6,1.5,1.6,1.5,2.8v7.8
		c0,0.2,0,0.4,0.1,0.6s0.3,0.2,0.6,0.2c0.1,0,0.2,0,0.3,0s0.3,0,0.4-0.1v1.7c-0.4,0.1-0.6,0.2-0.8,0.2s-0.4,0-0.8,0
		c-0.8,0-1.4-0.3-1.7-0.8c-0.2-0.3-0.3-0.7-0.4-1.3c-0.5,0.6-1.1,1.1-2,1.6s-1.8,0.7-2.9,0.7c-1.3,0-2.3-0.4-3.1-1.1
		c-0.8-0.8-1.2-1.7-1.2-2.9c0-1.3,0.4-2.2,1.2-2.9c0.8-0.7,1.8-1.1,3.1-1.3L447.4,373.9z M442.6,380c0.5,0.4,1.1,0.6,1.7,0.6
		c0.8,0,1.6-0.2,2.3-0.6c1.3-0.6,1.9-1.6,1.9-3v-1.8c-0.3,0.2-0.6,0.3-1.1,0.4c-0.4,0.1-0.9,0.2-1.3,0.3l-1.4,0.2
		c-0.8,0.1-1.5,0.3-1.9,0.5c-0.7,0.4-1.1,1-1.1,1.9C441.9,379.1,442.1,379.7,442.6,380z"/>
	<path d="M456,377.8c0.1,0.8,0.3,1.3,0.6,1.8c0.6,0.7,1.6,1.1,3.1,1.1c0.9,0,1.6-0.2,2.3-0.6s1-0.9,1-1.7c0-0.6-0.3-1-0.8-1.3
		c-0.3-0.2-1-0.4-2-0.6l-1.8-0.5c-1.2-0.3-2-0.6-2.6-1c-1-0.6-1.5-1.5-1.5-2.6c0-1.3,0.5-2.3,1.4-3.1c0.9-0.8,2.2-1.2,3.8-1.2
		c2.1,0,3.6,0.6,4.5,1.8c0.6,0.8,0.9,1.6,0.8,2.5h-2.2c0-0.5-0.2-1-0.6-1.4c-0.5-0.6-1.5-0.9-2.8-0.9c-0.9,0-1.6,0.2-2,0.5
		c-0.5,0.3-0.7,0.8-0.7,1.3c0,0.6,0.3,1.1,0.9,1.4c0.3,0.2,0.9,0.4,1.5,0.6l1.5,0.4c1.7,0.4,2.8,0.8,3.4,1.2
		c0.9,0.6,1.3,1.5,1.3,2.8c0,1.2-0.5,2.3-1.4,3.1c-0.9,0.9-2.3,1.3-4.2,1.3c-2,0-3.5-0.5-4.4-1.4c-0.9-0.9-1.3-2.1-1.4-3.4H456z"/>
	<path d="M482.1,373.9c0.5-0.1,0.9-0.3,1.1-0.7c0.1-0.2,0.2-0.5,0.2-0.9c0-0.8-0.3-1.3-0.8-1.7s-1.3-0.5-2.4-0.5c-1.2,0-2,0.3-2.5,1
		c-0.3,0.4-0.5,0.9-0.5,1.6h-2.1c0-1.7,0.6-2.8,1.6-3.5c1-0.7,2.3-1,3.6-1c1.6,0,2.9,0.3,3.9,0.9c1,0.6,1.5,1.6,1.5,2.8v7.8
		c0,0.2,0,0.4,0.1,0.6s0.3,0.2,0.6,0.2c0.1,0,0.2,0,0.3,0s0.3,0,0.4-0.1v1.7c-0.4,0.1-0.6,0.2-0.8,0.2s-0.4,0-0.8,0
		c-0.8,0-1.4-0.3-1.7-0.8c-0.2-0.3-0.3-0.7-0.4-1.3c-0.5,0.6-1.1,1.1-2,1.6s-1.8,0.7-2.9,0.7c-1.3,0-2.3-0.4-3.1-1.1
		c-0.8-0.8-1.2-1.7-1.2-2.9c0-1.3,0.4-2.2,1.2-2.9c0.8-0.7,1.8-1.1,3.1-1.3L482.1,373.9z M477.3,380c0.5,0.4,1.1,0.6,1.7,0.6
		c0.8,0,1.6-0.2,2.3-0.6c1.3-0.6,1.9-1.6,1.9-3v-1.8c-0.3,0.2-0.6,0.3-1.1,0.4c-0.4,0.1-0.9,0.2-1.3,0.3l-1.4,0.2
		c-0.8,0.1-1.5,0.3-1.9,0.5c-0.7,0.4-1.1,1-1.1,1.9C476.6,379.1,476.8,379.7,477.3,380z"/>
	<path d="M496.3,363.4h2.2v6.8c0.5-0.7,1.1-1.1,1.8-1.5s1.5-0.5,2.3-0.5c1.7,0,3.1,0.6,4.1,1.7c1.1,1.2,1.6,2.9,1.6,5.1
		c0,2.1-0.5,3.9-1.6,5.4c-1,1.4-2.5,2.1-4.3,2.1c-1,0-1.9-0.2-2.6-0.7c-0.4-0.3-0.9-0.8-1.4-1.4v1.7h-2.1V363.4z M505.1,379
		c0.6-1,0.9-2.3,0.9-3.9c0-1.4-0.3-2.6-0.9-3.6c-0.6-0.9-1.5-1.4-2.7-1.4c-1,0-2,0.4-2.7,1.2c-0.8,0.8-1.2,2-1.2,3.8
		c0,1.3,0.2,2.3,0.5,3.1c0.6,1.5,1.7,2.2,3.4,2.2C503.5,380.5,504.4,380,505.1,379z"/>
	<path d="M520.8,369.8c1.2,1.2,1.8,2.9,1.8,5.1c0,2.2-0.5,4-1.6,5.4c-1.1,1.4-2.7,2.1-4.9,2.1c-1.9,0-3.3-0.6-4.4-1.9
		c-1.1-1.3-1.6-3-1.6-5.1c0-2.3,0.6-4.1,1.7-5.5s2.7-2,4.6-2C518.1,368.1,519.6,368.7,520.8,369.8z M519.4,378.9
		c0.6-1.1,0.8-2.4,0.8-3.8c0-1.3-0.2-2.3-0.6-3.1c-0.6-1.3-1.7-1.9-3.3-1.9c-1.4,0-2.4,0.5-3,1.6s-0.9,2.3-0.9,3.9
		c0,1.4,0.3,2.7,0.9,3.6c0.6,1,1.6,1.4,3,1.4C517.8,380.6,518.8,380,519.4,378.9z"/>
	<path d="M535.3,369.8c1.2,1.2,1.8,2.9,1.8,5.1c0,2.2-0.5,4-1.6,5.4c-1.1,1.4-2.7,2.1-4.9,2.1c-1.9,0-3.3-0.6-4.4-1.9
		c-1.1-1.3-1.6-3-1.6-5.1c0-2.3,0.6-4.1,1.7-5.5s2.7-2,4.6-2C532.6,368.1,534.1,368.7,535.3,369.8z M533.9,378.9
		c0.6-1.1,0.8-2.4,0.8-3.8c0-1.3-0.2-2.3-0.6-3.1c-0.6-1.3-1.7-1.9-3.3-1.9c-1.4,0-2.4,0.5-3,1.6s-0.9,2.3-0.9,3.9
		c0,1.4,0.3,2.7,0.9,3.6c0.6,1,1.6,1.4,3,1.4C532.3,380.6,533.3,380,533.9,378.9z"/>
	<path d="M539.8,363.4h2.2v10.8l5.9-5.8h2.9l-5.2,5.1l5.5,8.5h-2.9l-4.3-6.9L542,377v5.1h-2.2V363.4z"/>
</g>
</svg>
