<?xml version="1.0" encoding="utf-8"?>
<!-- Generator: Adobe Illustrator 17.1.0, SVG Export Plug-In . SVG Version: 6.00 Build 0)  -->
<!DOCTYPE svg PUBLIC "-//W3C//DTD SVG 1.1//EN" "http://www.w3.org/Graphics/SVG/1.1/DTD/svg11.dtd">
<svg version="1.1" id="Layer_1" xmlns="http://www.w3.org/2000/svg" xmlns:xlink="http://www.w3.org/1999/xlink" x="0px" y="0px"
	 viewBox="0 0 775 445" style="enable-background:new 0 0 775 445;" xml:space="preserve">
<path d="M267.5,119c-0.8,0-1.5,0.7-1.5,1.5v18.8c0,0.8,0.7,1.5,1.5,1.5s1.5-0.7,1.5-1.5v-18.8C269,119.7,268.3,119,267.5,119z"/>
<path d="M267.5,144.5c-0.8,0-1.5,0.7-1.5,1.5v3c0,0.8,0.7,1.5,1.5,1.5s1.5-0.7,1.5-1.5v-3C269,145.2,268.3,144.5,267.5,144.5z"/>
<path d="M297.9,157.2c-0.1,0.3-0.6,0.8-1.5,0.8h-58c-0.9,0-1.3-0.5-1.5-0.8c-0.1-0.3-0.4-0.9,0-1.7l29-50.2c0.4-0.8,1.2-0.8,1.5-0.8
	c0.3,0,1,0.1,1.5,0.8l29,50.2C298.4,156.3,298.1,157,297.9,157.2z M271.6,103.9c-0.8-1.5-2.4-2.3-4.1-2.3s-3.2,0.9-4.1,2.3l-29,50.2
	c-0.8,1.5-0.8,3.1,0,4.6c0.8,1.5,2.4,2.3,4.1,2.3h58c1.7,0,3.2-0.8,4.1-2.3c0.8-1.5,0.8-3.2,0-4.7L271.6,103.9z"/>
<path d="M266.1,202.7c0-1,0.4-1.8,1.1-2.5c0.7-0.7,1.6-1,2.6-1c1,0,1.8,0.3,2.5,1c0.7,0.7,1,1.5,1,2.5s-0.3,1.8-1,2.6
	c-0.7,0.7-1.5,1.1-2.5,1.1c-1,0-1.8-0.4-2.6-1.1C266.5,204.5,266.1,203.6,266.1,202.7z M271.9,211.9h0.9v17c0,2.1,1.1,3.2,3.3,3.5
	v0.9h-13v-0.9c1.4-0.3,2.3-0.7,2.8-1.2c0.5-0.5,0.7-1.4,0.7-2.8v-11c0-1.3-0.2-2.1-0.7-2.6c-0.5-0.5-1.5-0.9-3-1.2v-0.9L271.9,211.9
	z"/>
<path d="M268.8,189.2c-15.3,0-27.8,12.4-27.8,27.8s12.4,27.8,27.8,27.8s27.8-12.4,27.8-27.8S284.1,189.2,268.8,189.2z M268.8,247
	c-16.5,0-30-13.5-30-30s13.5-30,30-30s30,13.5,30,30S285.3,247,268.8,247z"/>
<path d="M269.5,329.2c-16.3,0-29.6-13.3-29.6-29.6c0-16.3,13.3-29.6,29.6-29.6s29.6,13.3,29.6,29.6
	C299.1,315.9,285.8,329.2,269.5,329.2z M269.5,266.7c-18.1,0-32.8,14.7-32.8,32.8c0,18.1,14.7,32.8,32.8,32.8
	c18.1,0,32.8-14.7,32.8-32.8C302.3,281.5,287.6,266.7,269.5,266.7z"/>
<path d="M273.6,300.6c-0.7,0.7-1.4,1.4-1.9,2.1h-4.9c-0.6-0.8-1.3-1.5-1.9-2.1c-1.8-1.8-3.4-3.4-3.4-6.2c0-5.5,4.2-7.6,7.8-7.7
	c3.6,0.1,7.8,2.2,7.8,7.7C277.1,297.2,275.4,298.8,273.6,300.6z M269.2,283.4L269.2,283.4c-5.8,0.1-11.1,3.9-11.1,11
	c0,6.6,6.3,8.9,6.5,11.6h9c0.2-2.7,6.5-5,6.5-11.6C280.3,287.3,275,283.5,269.2,283.4z"/>
<path d="M269.2,313.8c2.7,0,4.9-2.3,4.9-5.2h-9.7C264.4,311.5,266.6,313.8,269.2,313.8z"/>
<g>
	<path d="M319,211.7h3l9.3,15.1v-15.1h2.4v18.6h-2.8l-9.4-15.1v15.1H319V211.7z"/>
	<path d="M347.3,218.1c1.2,1.2,1.8,2.9,1.8,5.1c0,2.2-0.5,4-1.6,5.4c-1.1,1.4-2.7,2.1-4.9,2.1c-1.9,0-3.3-0.6-4.4-1.9
		s-1.6-3-1.6-5.1c0-2.3,0.6-4.1,1.7-5.5c1.2-1.4,2.7-2,4.6-2C344.6,216.4,346.1,217,347.3,218.1z M345.9,227.2
		c0.6-1.1,0.8-2.4,0.8-3.8c0-1.3-0.2-2.3-0.6-3.1c-0.6-1.3-1.7-1.9-3.3-1.9c-1.4,0-2.4,0.5-3,1.6c-0.6,1.1-0.9,2.4-0.9,3.9
		c0,1.4,0.3,2.6,0.9,3.6c0.6,1,1.6,1.4,3,1.4C344.3,228.9,345.3,228.3,345.9,227.2z"/>
	<path d="M352.3,213h2.3v3.8h2.2v1.9h-2.2v8.9c0,0.5,0.2,0.8,0.5,1c0.2,0.1,0.5,0.1,0.9,0.1c0.1,0,0.2,0,0.4,0s0.3,0,0.4,0v1.8
		c-0.3,0.1-0.5,0.1-0.8,0.2c-0.3,0-0.6,0.1-0.9,0.1c-1.1,0-1.8-0.3-2.2-0.8s-0.6-1.3-0.6-2.1v-9h-1.8v-1.9h1.8V213z"/>
	<path d="M367.5,217.2c0.9,0.5,1.6,1,2.1,1.8c0.5,0.7,0.8,1.5,0.9,2.4c0.1,0.6,0.2,1.6,0.2,3h-9.9c0,1.4,0.4,2.5,1,3.3
		s1.5,1.3,2.8,1.3c1.2,0,2.1-0.4,2.8-1.2c0.4-0.5,0.7-1,0.8-1.6h2.2c-0.1,0.5-0.3,1.1-0.6,1.7c-0.3,0.6-0.7,1.1-1.1,1.5
		c-0.7,0.7-1.5,1.1-2.6,1.4c-0.5,0.1-1.2,0.2-1.9,0.2c-1.7,0-3.1-0.6-4.3-1.8c-1.2-1.2-1.8-3-1.8-5.2c0-2.2,0.6-4,1.8-5.3
		s2.7-2,4.6-2C365.7,216.5,366.6,216.7,367.5,217.2z M368.3,222.5c-0.1-1-0.3-1.8-0.6-2.4c-0.6-1.1-1.7-1.7-3.1-1.7
		c-1,0-1.9,0.4-2.6,1.1s-1.1,1.7-1.1,2.9H368.3z"/>
	<path d="M381.3,227.6h2.7v2.8h-2.7V227.6z"/>
	<path d="M388.6,227.6h2.7v2.8h-2.7V227.6z"/>
	<path d="M395.8,227.6h2.7v2.8h-2.7V227.6z"/>
</g>
<g>
	<path d="M320.2,125.9l3.5,15.2l4.2-15.2h2.7l4.2,15.2l3.5-15.2h2.8l-4.9,18.6h-2.7l-4.3-15.5l-4.3,15.5h-2.7l-4.9-18.6H320.2z"/>
	<path d="M349.5,136.3c0.5-0.1,0.9-0.3,1.1-0.7c0.1-0.2,0.2-0.5,0.2-0.9c0-0.8-0.3-1.3-0.8-1.7c-0.6-0.4-1.3-0.5-2.4-0.5
		c-1.2,0-2,0.3-2.5,1c-0.3,0.4-0.5,0.9-0.5,1.6h-2.1c0-1.7,0.6-2.8,1.6-3.5c1-0.7,2.3-1,3.6-1c1.6,0,2.9,0.3,3.9,0.9
		c1,0.6,1.5,1.6,1.5,2.8v7.8c0,0.2,0,0.4,0.1,0.6c0.1,0.1,0.3,0.2,0.6,0.2c0.1,0,0.2,0,0.3,0s0.3,0,0.4-0.1v1.7
		c-0.4,0.1-0.6,0.2-0.8,0.2s-0.4,0-0.8,0c-0.8,0-1.4-0.3-1.7-0.8c-0.2-0.3-0.3-0.7-0.4-1.3c-0.5,0.6-1.1,1.1-2,1.6
		c-0.9,0.4-1.8,0.7-2.9,0.7c-1.3,0-2.3-0.4-3.1-1.1c-0.8-0.8-1.2-1.7-1.2-2.9c0-1.3,0.4-2.2,1.2-2.9c0.8-0.7,1.8-1.1,3.1-1.3
		L349.5,136.3z M344.7,142.4c0.5,0.4,1.1,0.6,1.7,0.6c0.8,0,1.6-0.2,2.3-0.6c1.3-0.6,1.9-1.6,1.9-3v-1.8c-0.3,0.2-0.6,0.3-1.1,0.4
		c-0.4,0.1-0.9,0.2-1.3,0.3l-1.4,0.2c-0.8,0.1-1.5,0.3-1.9,0.5c-0.7,0.4-1.1,1-1.1,1.9C344,141.5,344.2,142.1,344.7,142.4z"/>
	<path d="M356.8,130.9h2.2v2.3c0.2-0.5,0.6-1,1.3-1.7s1.5-1,2.4-1c0,0,0.1,0,0.2,0s0.3,0,0.5,0.1v2.4c-0.1,0-0.3,0-0.4-0.1
		c-0.1,0-0.2,0-0.4,0c-1.2,0-2,0.4-2.7,1.1s-0.9,1.6-0.9,2.6v7.8h-2.3V130.9z"/>
	<path d="M365.4,130.9h2.2v1.9c0.6-0.8,1.3-1.4,2-1.7s1.5-0.5,2.4-0.5c1.9,0,3.2,0.7,3.9,2c0.4,0.7,0.6,1.8,0.6,3.2v8.7h-2.3v-8.6
		c0-0.8-0.1-1.5-0.4-2c-0.4-0.8-1.1-1.3-2.2-1.3c-0.5,0-1,0.1-1.3,0.2c-0.6,0.2-1.2,0.6-1.7,1.1c-0.4,0.4-0.6,0.9-0.7,1.4
		c-0.1,0.5-0.2,1.2-0.2,2.1v7.1h-2.3V130.9z"/>
	<path d="M379.8,125.9h2.3v2.6h-2.3V125.9z M379.8,131h2.3v13.5h-2.3V131z"/>
	<path d="M385.6,130.9h2.2v1.9c0.6-0.8,1.3-1.4,2-1.7s1.5-0.5,2.4-0.5c1.9,0,3.2,0.7,3.9,2c0.4,0.7,0.6,1.8,0.6,3.2v8.7h-2.3v-8.6
		c0-0.8-0.1-1.5-0.4-2c-0.4-0.8-1.1-1.3-2.2-1.3c-0.5,0-1,0.1-1.3,0.2c-0.6,0.2-1.2,0.6-1.7,1.1c-0.4,0.4-0.6,0.9-0.7,1.4
		c-0.1,0.5-0.2,1.2-0.2,2.1v7.1h-2.3V130.9z"/>
	<path d="M407.6,131.4c0.4,0.3,0.9,0.7,1.3,1.3V131h2.1v12.4c0,1.7-0.3,3.1-0.8,4.1c-0.9,1.8-2.7,2.8-5.4,2.8c-1.5,0-2.7-0.3-3.7-1
		c-1-0.7-1.6-1.7-1.7-3.1h2.3c0.1,0.6,0.3,1.1,0.7,1.4c0.5,0.5,1.3,0.8,2.4,0.8c1.7,0,2.9-0.6,3.4-1.9c0.3-0.7,0.5-2,0.4-3.9
		c-0.5,0.7-1,1.2-1.6,1.5s-1.5,0.5-2.5,0.5c-1.5,0-2.8-0.5-3.9-1.6c-1.1-1-1.7-2.8-1.7-5.2c0-2.3,0.6-4.1,1.7-5.3s2.4-1.9,4-1.9
		C405.9,130.7,406.8,130.9,407.6,131.4z M407.9,133.9c-0.7-0.8-1.6-1.2-2.6-1.2c-1.6,0-2.7,0.8-3.3,2.3c-0.3,0.8-0.5,1.9-0.5,3.2
		c0,1.5,0.3,2.7,0.9,3.5c0.6,0.8,1.5,1.2,2.5,1.2c1.6,0,2.8-0.7,3.4-2.2c0.4-0.8,0.6-1.8,0.6-2.9C408.9,136,408.6,134.7,407.9,133.9
		z"/>
	<path d="M422.3,141.7h2.7v2.8h-2.7V141.7z"/>
	<path d="M429.5,141.7h2.7v2.8h-2.7V141.7z"/>
	<path d="M436.7,141.7h2.7v2.8h-2.7V141.7z"/>
</g>
<g>
	<path d="M332.5,292.6v2.2h-6.3v16.4h-2.6v-16.4h-6.3v-2.2H332.5z"/>
	<path d="M333.6,292.6h2.3v2.6h-2.3V292.6z M333.6,297.7h2.3v13.5h-2.3V297.7z"/>
	<path d="M339.2,297.7h2.2v1.8c0.5-0.6,1-1.1,1.5-1.4c0.8-0.5,1.7-0.8,2.7-0.8c1.5,0,2.9,0.6,3.9,1.8c1.1,1.2,1.6,2.9,1.6,5.1
		c0,3-0.8,5.1-2.3,6.3c-1,0.8-2.1,1.2-3.4,1.2c-1,0-1.9-0.2-2.6-0.7c-0.4-0.3-0.9-0.7-1.4-1.3v6.9h-2.3V297.7z M347.8,308.4
		c0.7-0.9,1.1-2.2,1.1-4c0-1.1-0.2-2-0.5-2.8c-0.6-1.5-1.7-2.2-3.3-2.2c-1.6,0-2.7,0.8-3.3,2.4c-0.3,0.8-0.5,1.9-0.5,3.2
		c0,1,0.2,1.9,0.5,2.7c0.6,1.4,1.7,2.1,3.3,2.1C346.2,309.7,347,309.3,347.8,308.4z"/>
	<path d="M361.6,308.5h2.7v2.8h-2.7V308.5z"/>
	<path d="M368.8,308.5h2.7v2.8h-2.7V308.5z"/>
	<path d="M376,308.5h2.7v2.8H376V308.5z"/>
</g>
</svg>
