<?xml version="1.0" encoding="utf-8"?>
<!-- Generator: Adobe Illustrator 17.1.0, SVG Export Plug-In . SVG Version: 6.00 Build 0)  -->
<!DOCTYPE svg PUBLIC "-//W3C//DTD SVG 1.1//EN" "http://www.w3.org/Graphics/SVG/1.1/DTD/svg11.dtd">
<svg version="1.1" id="Layer_1" xmlns="http://www.w3.org/2000/svg" xmlns:xlink="http://www.w3.org/1999/xlink" x="0px" y="0px"
	 viewBox="0 0 775 445" style="enable-background:new 0 0 775 445;" xml:space="preserve">
<line style="fill:none;stroke:#000000;stroke-miterlimit:10;" x1="372.5" y1="101" x2="372.5" y2="185"/>
<g>
	<path d="M180.1,224.6c0.8-0.1,1.9-0.2,3-0.2c2,0,3.4,0.5,4.4,1.3c1,0.9,1.5,2.1,1.5,3.9c0,1.8-0.5,3.2-1.6,4.2
		c-1,1-2.7,1.6-4.8,1.6c-1,0-1.8,0-2.5-0.1V224.6z M181.5,234.1c0.4,0.1,0.9,0.1,1.4,0.1c3,0,4.6-1.7,4.6-4.6c0-2.5-1.4-4.2-4.4-4.2
		c-0.7,0-1.3,0.1-1.6,0.1V234.1z"/>
	<path d="M192.2,224.4v10.8h-1.4v-10.8H192.2z"/>
	<path d="M196.7,225.6h-3.3v-1.2h8v1.2h-3.3v9.6h-1.4V225.6z"/>
	<path d="M203.1,231.8l-1.1,3.4h-1.4l3.7-10.8h1.7l3.7,10.8h-1.5l-1.2-3.4H203.1z M206.7,230.7l-1.1-3.1c-0.2-0.7-0.4-1.3-0.6-2h0
		c-0.2,0.6-0.3,1.3-0.5,2l-1.1,3.1H206.7z"/>
	<path d="M212.2,232.2l0-0.4c-0.1-0.9,0.2-1.8,1-2.8c0.7-0.8,1.1-1.5,1.1-2.2c0-0.8-0.5-1.4-1.5-1.4c-0.6,0-1.2,0.2-1.6,0.5l-0.4-1
		c0.5-0.4,1.4-0.6,2.3-0.6c1.8,0,2.7,1.1,2.7,2.4c0,1.1-0.6,1.9-1.4,2.8c-0.7,0.8-1,1.5-0.9,2.4l0,0.4H212.2z M211.9,234.4
		c0-0.6,0.4-1,1-1s0.9,0.4,0.9,1c0,0.6-0.4,1-1,1C212.2,235.4,211.9,235,211.9,234.4z"/>
</g>
<g>
	<path d="M360.2,219.2l1,3.9c0.2,0.9,0.4,1.7,0.6,2.5h0c0.2-0.8,0.4-1.6,0.7-2.4l1.3-4h1.2l1.2,3.9c0.3,0.9,0.5,1.7,0.7,2.5h0
		c0.1-0.8,0.3-1.6,0.6-2.5l1.1-3.9h1.4l-2.5,7.7h-1.3l-1.2-3.7c-0.3-0.9-0.5-1.6-0.7-2.5h0c-0.2,0.9-0.4,1.7-0.7,2.6l-1.2,3.7H361
		l-2.3-7.7H360.2z"/>
	<path d="M372,223.3c0,1.9,1.2,2.7,2.7,2.7c1,0,1.6-0.2,2.1-0.4l0.2,1c-0.5,0.2-1.3,0.5-2.6,0.5c-2.4,0-3.8-1.6-3.8-3.9
		s1.4-4.2,3.6-4.2c2.5,0,3.2,2.2,3.2,3.6c0,0.3,0,0.5,0,0.7H372z M376.1,222.3c0-0.9-0.4-2.3-2-2.3c-1.4,0-2,1.3-2.2,2.3H376.1z"/>
	<path d="M379.2,227c0-0.5,0.1-1.3,0.1-2v-9.4h1.4v4.9h0c0.5-0.9,1.4-1.4,2.6-1.4c1.9,0,3.3,1.6,3.3,4c0,2.8-1.7,4.1-3.5,4.1
		c-1.1,0-2-0.4-2.6-1.5h0l-0.1,1.3H379.2z M380.6,223.9c0,0.2,0,0.4,0.1,0.5c0.3,1,1.1,1.6,2.1,1.6c1.5,0,2.4-1.2,2.4-3
		c0-1.6-0.8-2.9-2.3-2.9c-1,0-1.9,0.7-2.1,1.7c0,0.2-0.1,0.4-0.1,0.6V223.9z"/>
	<path d="M367.2,245.8c-0.5,0.3-1.5,0.5-2.8,0.5c-3,0-5.3-1.9-5.3-5.5c0-3.4,2.3-5.7,5.6-5.7c1.3,0,2.2,0.3,2.6,0.5l-0.3,1.1
		c-0.5-0.3-1.3-0.4-2.2-0.4c-2.5,0-4.2,1.6-4.2,4.4c0,2.6,1.5,4.3,4.1,4.3c0.8,0,1.7-0.2,2.3-0.4L367.2,245.8z"/>
	<path d="M378,241.4c-0.1-1.5-0.2-3.3-0.2-4.7h0c-0.4,1.3-0.8,2.6-1.4,4.1l-1.9,5.2h-1.1l-1.7-5.1c-0.5-1.5-0.9-2.9-1.2-4.2h0
		c0,1.3-0.1,3.2-0.2,4.8l-0.3,4.6h-1.3l0.8-10.8h1.8l1.8,5.2c0.4,1.3,0.8,2.5,1.1,3.6h0c0.3-1.1,0.7-2.3,1.1-3.6l1.9-5.2h1.8
		l0.7,10.8h-1.4L378,241.4z"/>
	<path d="M381.6,244.5c0.6,0.4,1.5,0.7,2.5,0.7c1.4,0,2.3-0.8,2.3-1.8c0-1-0.6-1.6-2-2.1c-1.8-0.6-2.8-1.5-2.8-3.1
		c0-1.7,1.4-2.9,3.5-2.9c1.1,0,1.9,0.3,2.4,0.5l-0.4,1.1c-0.4-0.2-1.1-0.5-2-0.5c-1.5,0-2,0.9-2,1.6c0,1,0.7,1.5,2.1,2.1
		c1.8,0.7,2.8,1.6,2.8,3.2c0,1.7-1.2,3.1-3.8,3.1c-1,0-2.2-0.3-2.8-0.7L381.6,244.5z"/>
	<path d="M390.7,243.1l0-0.4c-0.1-0.9,0.2-1.8,1-2.8c0.7-0.8,1.1-1.5,1.1-2.2c0-0.8-0.5-1.4-1.5-1.4c-0.6,0-1.2,0.2-1.6,0.5l-0.4-1
		c0.5-0.4,1.4-0.6,2.3-0.6c1.8,0,2.7,1.1,2.7,2.4c0,1.1-0.6,1.9-1.4,2.8c-0.7,0.8-1,1.5-0.9,2.4l0,0.4H390.7z M390.4,245.3
		c0-0.6,0.4-1,1-1s0.9,0.4,0.9,1c0,0.6-0.4,1-1,1C390.7,246.3,390.4,245.9,390.4,245.3z"/>
</g>
<line style="fill:none;stroke:#000000;stroke-miterlimit:10;" x1="311.8" y1="91.8" x2="219.9" y2="185"/>
<polygon style="fill:none;stroke:#000000;stroke-miterlimit:10;" points="408.3,236.4 374,275 339.8,236.4 374,197.2 "/>
<polygon style="fill:none;stroke:#000000;stroke-miterlimit:10;" points="230.7,233 196.4,271.6 162.1,233 196.4,193.7 "/>
<path style="fill:none;stroke:#000000;stroke-miterlimit:10;" d="M421.5,71.5c0,6.6-5.4,12-12,12h-73c-6.6,0-12-5.4-12-12v-22
	c0-6.6,5.4-12,12-12h73c6.6,0,12,5.4,12,12V71.5z"/>
<g>
	<path d="M366.3,58.9c-0.1-1.5-0.2-3.3-0.2-4.7h0c-0.4,1.3-0.8,2.6-1.4,4.1l-1.9,5.2h-1.1l-1.7-5.1c-0.5-1.5-0.9-2.9-1.2-4.2h0
		c0,1.3-0.1,3.2-0.2,4.8l-0.3,4.6H357l0.8-10.8h1.8l1.8,5.2c0.4,1.3,0.8,2.5,1.1,3.6h0c0.3-1.1,0.7-2.3,1.1-3.6l1.9-5.2h1.8
		l0.7,10.8h-1.4L366.3,58.9z"/>
	<path d="M374.5,63.6l-0.1-1h0c-0.4,0.6-1.3,1.2-2.4,1.2c-1.6,0-2.4-1.1-2.4-2.2c0-1.9,1.7-2.9,4.7-2.9v-0.2c0-0.6-0.2-1.8-1.8-1.8
		c-0.7,0-1.5,0.2-2,0.6l-0.3-0.9c0.6-0.4,1.6-0.7,2.5-0.7c2.4,0,2.9,1.6,2.9,3.2v2.9c0,0.7,0,1.3,0.1,1.9H374.5z M374.2,59.6
		c-1.5,0-3.3,0.2-3.3,1.7c0,0.9,0.6,1.3,1.3,1.3c1,0,1.6-0.6,1.9-1.3c0-0.1,0.1-0.3,0.1-0.4V59.6z"/>
	<path d="M383.4,63.3c-0.4,0.2-1.2,0.4-2.2,0.4c-2.3,0-3.9-1.6-3.9-4c0-2.4,1.6-4.1,4.2-4.1c0.8,0,1.6,0.2,2,0.4l-0.3,1.1
		c-0.3-0.2-0.9-0.4-1.6-0.4c-1.8,0-2.7,1.3-2.7,2.9c0,1.8,1.2,2.9,2.7,2.9c0.8,0,1.3-0.2,1.7-0.4L383.4,63.3z"/>
</g>
<g>
	<path style="fill:#F90606;" d="M150.2,341.4v2.2h2v1.1h-2v4.2c0,1,0.3,1.5,1.1,1.5c0.4,0,0.6,0,0.8-0.1l0.1,1.1
		c-0.3,0.1-0.7,0.2-1.2,0.2c-0.7,0-1.2-0.2-1.5-0.6c-0.4-0.4-0.5-1.1-0.5-2v-4.2h-1.2v-1.1h1.2v-1.9L150.2,341.4z"/>
	<path style="fill:#F90606;" d="M160.7,347.5c0,2.9-2,4.1-3.9,4.1c-2.1,0-3.7-1.5-3.7-4c0-2.6,1.7-4.1,3.8-4.1
		C159.2,343.5,160.7,345.1,160.7,347.5z M154.6,347.5c0,1.7,1,3,2.4,3c1.3,0,2.4-1.3,2.4-3c0-1.3-0.7-3-2.3-3
		C155.3,344.5,154.6,346.1,154.6,347.5z"/>
	<path style="fill:#F90606;" d="M169.5,347.5c0,2.9-2,4.1-3.9,4.1c-2.1,0-3.7-1.5-3.7-4c0-2.6,1.7-4.1,3.8-4.1
		C168,343.5,169.5,345.1,169.5,347.5z M163.3,347.5c0,1.7,1,3,2.4,3c1.3,0,2.4-1.3,2.4-3c0-1.3-0.7-3-2.3-3
		C164.1,344.5,163.3,346.1,163.3,347.5z"/>
	<path style="fill:#F90606;" d="M174.7,346.1c0-0.9,0-1.7-0.1-2.4h1.2l0,1.5h0.1c0.4-1,1.2-1.7,2.1-1.7c0.2,0,0.3,0,0.4,0v1.3
		c-0.1,0-0.3,0-0.5,0c-1,0-1.7,0.8-1.9,1.8c0,0.2-0.1,0.4-0.1,0.7v4.1h-1.4V346.1z"/>
	<path style="fill:#F90606;" d="M180.5,347.8c0,1.9,1.2,2.7,2.7,2.7c1,0,1.6-0.2,2.1-0.4l0.2,1c-0.5,0.2-1.3,0.5-2.6,0.5
		c-2.4,0-3.8-1.6-3.8-3.9s1.4-4.2,3.6-4.2c2.5,0,3.2,2.2,3.2,3.6c0,0.3,0,0.5,0,0.7H180.5z M184.6,346.8c0-0.9-0.4-2.3-2-2.3
		c-1.4,0-2,1.3-2.2,2.3H184.6z"/>
	<path style="fill:#F90606;" d="M187.6,350c0.4,0.3,1.2,0.6,1.9,0.6c1,0,1.5-0.5,1.5-1.2c0-0.7-0.4-1-1.4-1.4c-1.4-0.5-2-1.3-2-2.2
		c0-1.2,1-2.3,2.7-2.3c0.8,0,1.5,0.2,1.9,0.5l-0.4,1c-0.3-0.2-0.9-0.4-1.6-0.4c-0.8,0-1.3,0.5-1.3,1.1c0,0.6,0.5,0.9,1.5,1.3
		c1.3,0.5,2,1.2,2,2.3c0,1.4-1.1,2.3-2.9,2.3c-0.8,0-1.6-0.2-2.2-0.5L187.6,350z"/>
	<path style="fill:#F90606;" d="M195.8,341.4v2.2h2v1.1h-2v4.2c0,1,0.3,1.5,1.1,1.5c0.4,0,0.6,0,0.8-0.1l0.1,1.1
		c-0.3,0.1-0.7,0.2-1.2,0.2c-0.7,0-1.2-0.2-1.5-0.6c-0.4-0.4-0.5-1.1-0.5-2v-4.2h-1.2v-1.1h1.2v-1.9L195.8,341.4z"/>
	<path style="fill:#F90606;" d="M199.4,346.1c0-0.9,0-1.7-0.1-2.4h1.2l0,1.5h0.1c0.4-1,1.2-1.7,2.1-1.7c0.2,0,0.3,0,0.4,0v1.3
		c-0.1,0-0.3,0-0.5,0c-1,0-1.7,0.8-1.9,1.8c0,0.2-0.1,0.4-0.1,0.7v4.1h-1.4V346.1z"/>
	<path style="fill:#F90606;" d="M206.2,341.5c0,0.5-0.3,0.9-0.9,0.9c-0.5,0-0.8-0.4-0.8-0.9c0-0.5,0.4-0.9,0.9-0.9
		C205.9,340.6,206.2,341,206.2,341.5z M204.7,351.4v-7.7h1.4v7.7H204.7z"/>
	<path style="fill:#F90606;" d="M213.9,351.1c-0.4,0.2-1.2,0.4-2.2,0.4c-2.3,0-3.9-1.6-3.9-4c0-2.4,1.6-4.1,4.2-4.1
		c0.8,0,1.6,0.2,2,0.4l-0.3,1.1c-0.3-0.2-0.9-0.4-1.6-0.4c-1.8,0-2.7,1.3-2.7,2.9c0,1.8,1.2,2.9,2.7,2.9c0.8,0,1.3-0.2,1.7-0.4
		L213.9,351.1z"/>
	<path style="fill:#F90606;" d="M217.5,341.4v2.2h2v1.1h-2v4.2c0,1,0.3,1.5,1.1,1.5c0.4,0,0.6,0,0.8-0.1l0.1,1.1
		c-0.3,0.1-0.7,0.2-1.2,0.2c-0.7,0-1.2-0.2-1.5-0.6c-0.4-0.4-0.5-1.1-0.5-2v-4.2h-1.2v-1.1h1.2v-1.9L217.5,341.4z"/>
	<path style="fill:#F90606;" d="M222.7,341.5c0,0.5-0.3,0.9-0.9,0.9c-0.5,0-0.8-0.4-0.8-0.9c0-0.5,0.4-0.9,0.9-0.9
		C222.3,340.6,222.7,341,222.7,341.5z M221.1,351.4v-7.7h1.4v7.7H221.1z"/>
	<path style="fill:#F90606;" d="M225.4,343.7l1.5,4.4c0.3,0.7,0.5,1.3,0.6,2h0c0.2-0.6,0.4-1.3,0.7-2l1.5-4.4h1.5l-3,7.7h-1.3
		l-2.9-7.7H225.4z"/>
	<path style="fill:#F90606;" d="M233.2,347.8c0,1.9,1.2,2.7,2.7,2.7c1,0,1.6-0.2,2.1-0.4l0.2,1c-0.5,0.2-1.3,0.5-2.6,0.5
		c-2.4,0-3.8-1.6-3.8-3.9s1.4-4.2,3.6-4.2c2.5,0,3.2,2.2,3.2,3.6c0,0.3,0,0.5,0,0.7H233.2z M237.3,346.8c0-0.9-0.4-2.3-2-2.3
		c-1.4,0-2,1.3-2.2,2.3H237.3z"/>
</g>
<g>
	<path style="fill:#F90606;" d="M350,336.6v2.2h2v1.1h-2v4.2c0,1,0.3,1.5,1.1,1.5c0.4,0,0.6,0,0.8-0.1l0.1,1.1
		c-0.3,0.1-0.7,0.2-1.2,0.2c-0.7,0-1.2-0.2-1.5-0.6c-0.4-0.4-0.5-1.1-0.5-2v-4.2h-1.2v-1.1h1.2V337L350,336.6z"/>
	<path style="fill:#F90606;" d="M360.6,342.7c0,2.9-2,4.1-3.9,4.1c-2.1,0-3.7-1.5-3.7-4c0-2.6,1.7-4.1,3.8-4.1
		C359.1,338.7,360.6,340.3,360.6,342.7z M354.4,342.7c0,1.7,1,3,2.4,3c1.3,0,2.4-1.3,2.4-3c0-1.3-0.7-3-2.3-3
		C355.1,339.7,354.4,341.3,354.4,342.7z"/>
	<path style="fill:#F90606;" d="M369.3,342.7c0,2.9-2,4.1-3.9,4.1c-2.1,0-3.7-1.5-3.7-4c0-2.6,1.7-4.1,3.8-4.1
		C367.8,338.7,369.3,340.3,369.3,342.7z M363.2,342.7c0,1.7,1,3,2.4,3c1.3,0,2.4-1.3,2.4-3c0-1.3-0.7-3-2.3-3
		C363.9,339.7,363.2,341.3,363.2,342.7z"/>
	<path style="fill:#F90606;" d="M374.5,340.9c0-0.8,0-1.5-0.1-2.1h1.2l0.1,1.2h0c0.4-0.7,1.2-1.4,2.4-1.4c1.1,0,1.9,0.6,2.2,1.6h0
		c0.2-0.4,0.5-0.8,0.9-1c0.5-0.4,1-0.5,1.7-0.5c1,0,2.5,0.7,2.5,3.4v4.6h-1.4v-4.4c0-1.5-0.5-2.4-1.7-2.4c-0.8,0-1.4,0.6-1.7,1.3
		c-0.1,0.2-0.1,0.4-0.1,0.7v4.8h-1.4V342c0-1.2-0.5-2.1-1.6-2.1c-0.9,0-1.5,0.7-1.7,1.4c-0.1,0.2-0.1,0.4-0.1,0.7v4.7h-1.4V340.9z"
		/>
	<path style="fill:#F90606;" d="M394.3,344.5c0,0.8,0,1.5,0.1,2.1h-1.2l-0.1-1.3h0c-0.4,0.6-1.2,1.4-2.6,1.4c-1.2,0-2.7-0.7-2.7-3.4
		v-4.5h1.4v4.3c0,1.5,0.4,2.5,1.7,2.5c0.9,0,1.6-0.7,1.9-1.3c0.1-0.2,0.1-0.5,0.1-0.7v-4.8h1.4V344.5z"/>
	<path style="fill:#F90606;" d="M402.2,346.3c-0.4,0.2-1.2,0.4-2.2,0.4c-2.3,0-3.9-1.6-3.9-4c0-2.4,1.6-4.1,4.2-4.1
		c0.8,0,1.6,0.2,2,0.4l-0.3,1.1c-0.3-0.2-0.9-0.4-1.6-0.4c-1.8,0-2.7,1.3-2.7,2.9c0,1.8,1.2,2.9,2.7,2.9c0.8,0,1.3-0.2,1.7-0.4
		L402.2,346.3z"/>
	<path style="fill:#F90606;" d="M403.8,335.2h1.4v4.8h0c0.2-0.4,0.6-0.8,1-1c0.4-0.2,0.9-0.4,1.4-0.4c1,0,2.7,0.6,2.7,3.3v4.6H409
		v-4.4c0-1.2-0.5-2.3-1.8-2.3c-0.9,0-1.6,0.6-1.9,1.4c-0.1,0.2-0.1,0.4-0.1,0.7v4.7h-1.4V335.2z"/>
	<path style="fill:#F90606;" d="M349.9,355.9c0,0.5-0.3,0.9-0.9,0.9c-0.5,0-0.8-0.4-0.8-0.9c0-0.5,0.4-0.9,0.9-0.9
		C349.6,355,349.9,355.4,349.9,355.9z M348.3,365.8V358h1.4v7.7H348.3z"/>
	<path style="fill:#F90606;" d="M352.1,360.1c0-0.8,0-1.5-0.1-2.1h1.2l0.1,1.3h0c0.4-0.7,1.3-1.5,2.6-1.5c1.1,0,2.7,0.6,2.7,3.3v4.6
		h-1.4v-4.5c0-1.2-0.5-2.3-1.8-2.3c-0.9,0-1.6,0.7-1.9,1.4c-0.1,0.2-0.1,0.4-0.1,0.7v4.7h-1.4V360.1z"/>
	<path style="fill:#F90606;" d="M361.1,365.8v-6.7H360V358h1.1v-0.4c0-1.1,0.2-2.1,0.9-2.7c0.5-0.5,1.2-0.7,1.9-0.7
		c0.5,0,0.9,0.1,1.2,0.2l-0.2,1.1c-0.2-0.1-0.5-0.2-0.9-0.2c-1.2,0-1.5,1.1-1.5,2.2v0.4h1.9v1.1h-1.9v6.7H361.1z"/>
	<path style="fill:#F90606;" d="M365.6,360.5c0-0.9,0-1.7-0.1-2.4h1.2l0,1.5h0.1c0.4-1,1.2-1.7,2.1-1.7c0.2,0,0.3,0,0.4,0v1.3
		c-0.1,0-0.3,0-0.5,0c-1,0-1.7,0.8-1.9,1.8c0,0.2-0.1,0.4-0.1,0.7v4.1h-1.4V360.5z"/>
	<path style="fill:#F90606;" d="M375.1,365.8l-0.1-1h0c-0.4,0.6-1.3,1.2-2.4,1.2c-1.6,0-2.4-1.1-2.4-2.2c0-1.9,1.7-2.9,4.7-2.9v-0.2
		c0-0.6-0.2-1.8-1.8-1.8c-0.7,0-1.5,0.2-2,0.6l-0.3-0.9c0.6-0.4,1.6-0.7,2.5-0.7c2.4,0,2.9,1.6,2.9,3.2v2.9c0,0.7,0,1.3,0.1,1.9
		H375.1z M374.9,361.8c-1.5,0-3.3,0.2-3.3,1.7c0,0.9,0.6,1.3,1.3,1.3c1,0,1.6-0.6,1.9-1.3c0-0.1,0.1-0.3,0.1-0.4V361.8z"/>
	<path style="fill:#F90606;" d="M378.3,364.4c0.4,0.3,1.2,0.6,1.9,0.6c1,0,1.5-0.5,1.5-1.2c0-0.7-0.4-1-1.4-1.4
		c-1.4-0.5-2-1.3-2-2.2c0-1.2,1-2.3,2.7-2.3c0.8,0,1.5,0.2,1.9,0.5l-0.4,1c-0.3-0.2-0.9-0.4-1.6-0.4c-0.8,0-1.3,0.5-1.3,1.1
		c0,0.6,0.5,0.9,1.5,1.3c1.3,0.5,2,1.2,2,2.3c0,1.4-1.1,2.3-2.9,2.3c-0.8,0-1.6-0.2-2.2-0.5L378.3,364.4z"/>
	<path style="fill:#F90606;" d="M386.5,355.8v2.2h2v1.1h-2v4.2c0,1,0.3,1.5,1.1,1.5c0.4,0,0.6,0,0.8-0.1l0.1,1.1
		c-0.3,0.1-0.7,0.2-1.2,0.2c-0.7,0-1.2-0.2-1.5-0.6c-0.4-0.4-0.5-1.1-0.5-2v-4.2H384V358h1.2v-1.9L386.5,355.8z"/>
	<path style="fill:#F90606;" d="M390.1,360.5c0-0.9,0-1.7-0.1-2.4h1.2l0,1.5h0.1c0.4-1,1.2-1.7,2.1-1.7c0.2,0,0.3,0,0.4,0v1.3
		c-0.1,0-0.3,0-0.5,0c-1,0-1.7,0.8-1.9,1.8c0,0.2-0.1,0.4-0.1,0.7v4.1h-1.4V360.5z"/>
	<path style="fill:#F90606;" d="M401.9,363.7c0,0.8,0,1.5,0.1,2.1h-1.2l-0.1-1.3h0c-0.4,0.6-1.2,1.4-2.6,1.4c-1.2,0-2.7-0.7-2.7-3.4
		V358h1.4v4.3c0,1.5,0.4,2.5,1.7,2.5c0.9,0,1.6-0.7,1.9-1.3c0.1-0.2,0.1-0.5,0.1-0.7V358h1.4V363.7z"/>
	<path style="fill:#F90606;" d="M409.7,365.5c-0.4,0.2-1.2,0.4-2.2,0.4c-2.3,0-3.9-1.6-3.9-4c0-2.4,1.6-4.1,4.2-4.1
		c0.8,0,1.6,0.2,2,0.4l-0.3,1.1c-0.3-0.2-0.9-0.4-1.6-0.4c-1.8,0-2.7,1.3-2.7,2.9c0,1.8,1.2,2.9,2.7,2.9c0.8,0,1.3-0.2,1.7-0.4
		L409.7,365.5z"/>
	<path style="fill:#F90606;" d="M413.3,355.8v2.2h2v1.1h-2v4.2c0,1,0.3,1.5,1.1,1.5c0.4,0,0.6,0,0.8-0.1l0.1,1.1
		c-0.3,0.1-0.7,0.2-1.2,0.2c-0.7,0-1.2-0.2-1.5-0.6c-0.4-0.4-0.5-1.1-0.5-2v-4.2h-1.2V358h1.2v-1.9L413.3,355.8z"/>
	<path style="fill:#F90606;" d="M423.3,363.7c0,0.8,0,1.5,0.1,2.1h-1.2l-0.1-1.3h0c-0.4,0.6-1.2,1.4-2.6,1.4c-1.2,0-2.7-0.7-2.7-3.4
		V358h1.4v4.3c0,1.5,0.4,2.5,1.7,2.5c0.9,0,1.6-0.7,1.9-1.3c0.1-0.2,0.1-0.5,0.1-0.7V358h1.4V363.7z"/>
	<path style="fill:#F90606;" d="M425.7,360.5c0-0.9,0-1.7-0.1-2.4h1.2l0,1.5h0.1c0.4-1,1.2-1.7,2.1-1.7c0.2,0,0.3,0,0.4,0v1.3
		c-0.1,0-0.3,0-0.5,0c-1,0-1.7,0.8-1.9,1.8c0,0.2-0.1,0.4-0.1,0.7v4.1h-1.4V360.5z"/>
	<path style="fill:#F90606;" d="M431.5,362.2c0,1.9,1.2,2.7,2.7,2.7c1,0,1.6-0.2,2.1-0.4l0.2,1c-0.5,0.2-1.3,0.5-2.6,0.5
		c-2.4,0-3.8-1.6-3.8-3.9s1.4-4.2,3.6-4.2c2.5,0,3.2,2.2,3.2,3.6c0,0.3,0,0.5,0,0.7H431.5z M435.7,361.2c0-0.9-0.4-2.3-2-2.3
		c-1.4,0-2,1.3-2.2,2.3H435.7z"/>
</g>
<line style="fill:none;" x1="437.7" y1="63.6" x2="679.9" y2="164.8"/>
<line style="fill:none;" x1="421.5" y1="97" x2="504.4" y2="189"/>
<polygon style="fill:none;stroke:#000000;stroke-miterlimit:10;" points="581.1,223.5 545,265.4 508.9,223.5 545,180.9 "/>
<line style="fill:none;stroke:#000000;stroke-miterlimit:10;" x1="425.9" y1="91.8" x2="526.6" y2="174"/>
<g>
	<path d="M528.8,212.6c0.4,0.3,1.2,0.6,1.9,0.6c1,0,1.5-0.5,1.5-1.2c0-0.7-0.4-1-1.4-1.4c-1.4-0.5-2-1.3-2-2.2c0-1.2,1-2.3,2.7-2.3
		c0.8,0,1.5,0.2,1.9,0.5l-0.4,1c-0.3-0.2-0.9-0.4-1.6-0.4c-0.8,0-1.3,0.5-1.3,1.1c0,0.6,0.5,0.9,1.5,1.3c1.3,0.5,2,1.2,2,2.3
		c0,1.4-1.1,2.3-2.9,2.3c-0.8,0-1.6-0.2-2.2-0.5L528.8,212.6z"/>
	<path d="M537.1,204v2.2h2v1.1h-2v4.2c0,1,0.3,1.5,1.1,1.5c0.4,0,0.6,0,0.8-0.1l0.1,1.1c-0.3,0.1-0.7,0.2-1.2,0.2
		c-0.7,0-1.2-0.2-1.5-0.6c-0.4-0.4-0.5-1.1-0.5-2v-4.2h-1.2v-1.1h1.2v-1.9L537.1,204z"/>
	<path d="M545,214l-0.1-1h0c-0.4,0.6-1.3,1.2-2.4,1.2c-1.6,0-2.4-1.1-2.4-2.2c0-1.9,1.7-2.9,4.7-2.9v-0.2c0-0.6-0.2-1.8-1.8-1.8
		c-0.7,0-1.5,0.2-2,0.6l-0.3-0.9c0.6-0.4,1.6-0.7,2.5-0.7c2.4,0,2.9,1.6,2.9,3.2v2.9c0,0.7,0,1.3,0.1,1.9H545z M544.7,210
		c-1.5,0-3.3,0.2-3.3,1.7c0,0.9,0.6,1.3,1.3,1.3c1,0,1.6-0.6,1.9-1.3c0-0.1,0.1-0.3,0.1-0.4V210z"/>
	<path d="M550,204v2.2h2v1.1h-2v4.2c0,1,0.3,1.5,1.1,1.5c0.4,0,0.6,0,0.8-0.1l0.1,1.1c-0.3,0.1-0.7,0.2-1.2,0.2
		c-0.7,0-1.2-0.2-1.5-0.6c-0.4-0.4-0.5-1.1-0.5-2v-4.2h-1.2v-1.1h1.2v-1.9L550,204z"/>
	<path d="M555.2,204.1c0,0.5-0.3,0.9-0.9,0.9c-0.5,0-0.8-0.4-0.8-0.9c0-0.5,0.4-0.9,0.9-0.9C554.8,203.2,555.2,203.6,555.2,204.1z
		 M553.6,214v-7.7h1.4v7.7H553.6z"/>
	<path d="M562.9,213.7c-0.4,0.2-1.2,0.4-2.2,0.4c-2.3,0-3.9-1.6-3.9-4c0-2.4,1.6-4.1,4.2-4.1c0.8,0,1.6,0.2,2,0.4l-0.3,1.1
		c-0.3-0.2-0.9-0.4-1.6-0.4c-1.8,0-2.7,1.3-2.7,2.9c0,1.8,1.2,2.9,2.7,2.9c0.8,0,1.3-0.2,1.7-0.4L562.9,213.7z"/>
	<path d="M528.8,226.8c0.4,0.3,1.2,0.6,1.9,0.6c1,0,1.5-0.5,1.5-1.2c0-0.7-0.4-1-1.4-1.4c-1.4-0.5-2-1.3-2-2.2c0-1.2,1-2.3,2.7-2.3
		c0.8,0,1.5,0.2,1.9,0.5l-0.4,1c-0.3-0.2-0.9-0.4-1.6-0.4c-0.8,0-1.3,0.5-1.3,1.1c0,0.6,0.5,0.9,1.5,1.3c1.3,0.5,2,1.2,2,2.3
		c0,1.4-1.1,2.3-2.9,2.3c-0.8,0-1.6-0.2-2.2-0.5L528.8,226.8z"/>
	<path d="M536.9,218.3c0,0.5-0.3,0.9-0.9,0.9c-0.5,0-0.8-0.4-0.8-0.9c0-0.5,0.4-0.9,0.9-0.9C536.6,217.4,536.9,217.8,536.9,218.3z
		 M535.4,228.2v-7.7h1.4v7.7H535.4z"/>
	<path d="M540.8,218.2v2.2h2v1.1h-2v4.2c0,1,0.3,1.5,1.1,1.5c0.4,0,0.6,0,0.8-0.1l0.1,1.1c-0.3,0.1-0.7,0.2-1.2,0.2
		c-0.7,0-1.2-0.2-1.5-0.6c-0.4-0.4-0.5-1.1-0.5-2v-4.2h-1.2v-1.1h1.2v-1.9L540.8,218.2z"/>
	<path d="M545.1,224.6c0,1.9,1.2,2.7,2.7,2.7c1,0,1.6-0.2,2.1-0.4l0.2,1c-0.5,0.2-1.3,0.5-2.6,0.5c-2.4,0-3.8-1.6-3.8-3.9
		s1.4-4.2,3.6-4.2c2.5,0,3.2,2.2,3.2,3.6c0,0.3,0,0.5,0,0.7H545.1z M549.2,223.6c0-0.9-0.4-2.3-2-2.3c-1.4,0-2,1.3-2.2,2.3H549.2z"
		/>
	<path d="M535.7,234.7c0,0.6-0.1,1.2-0.1,2.1v4.5c0,1.8-0.4,2.9-1.1,3.5c-0.8,0.7-1.8,0.9-2.8,0.9c-0.9,0-2-0.2-2.6-0.6l0.4-1.1
		c0.5,0.3,1.3,0.6,2.3,0.6c1.4,0,2.5-0.8,2.5-2.7v-0.9h0c-0.4,0.7-1.3,1.3-2.5,1.3c-1.9,0-3.3-1.6-3.3-3.8c0-2.6,1.7-4.1,3.5-4.1
		c1.3,0,2.1,0.7,2.4,1.3h0l0.1-1.2H535.7z M534.3,237.7c0-0.2,0-0.4-0.1-0.6c-0.3-0.8-0.9-1.5-2-1.5c-1.3,0-2.3,1.1-2.3,2.9
		c0,1.5,0.8,2.8,2.3,2.8c0.9,0,1.6-0.5,2-1.4c0.1-0.2,0.1-0.5,0.1-0.8V237.7z"/>
	<path d="M538.8,238.8c0,1.9,1.2,2.7,2.7,2.7c1,0,1.6-0.2,2.1-0.4l0.2,1c-0.5,0.2-1.3,0.5-2.6,0.5c-2.4,0-3.8-1.6-3.8-3.9
		s1.4-4.2,3.6-4.2c2.5,0,3.2,2.2,3.2,3.6c0,0.3,0,0.5,0,0.7H538.8z M542.9,237.8c0-0.9-0.4-2.3-2-2.3c-1.4,0-2,1.3-2.2,2.3H542.9z"
		/>
	<path d="M546,236.7c0-0.8,0-1.5-0.1-2.1h1.2l0.1,1.3h0c0.4-0.7,1.3-1.5,2.6-1.5c1.1,0,2.7,0.6,2.7,3.3v4.6h-1.4v-4.5
		c0-1.2-0.5-2.3-1.8-2.3c-0.9,0-1.6,0.7-1.9,1.4c-0.1,0.2-0.1,0.4-0.1,0.7v4.7H546V236.7z"/>
	<path d="M554.5,241.6c0-0.6,0.4-1,1-1c0.6,0,0.9,0.4,0.9,1c0,0.6-0.4,1-1,1C554.9,242.6,554.5,242.1,554.5,241.6z"/>
	<path d="M559.3,239.3l0-0.4c-0.1-0.9,0.2-1.8,1-2.8c0.7-0.8,1.1-1.5,1.1-2.2c0-0.8-0.5-1.4-1.5-1.4c-0.6,0-1.2,0.2-1.6,0.5l-0.4-1
		c0.5-0.4,1.4-0.6,2.3-0.6c1.8,0,2.7,1.1,2.7,2.4c0,1.1-0.6,1.9-1.4,2.8c-0.7,0.8-1,1.5-0.9,2.4l0,0.4H559.3z M558.9,241.6
		c0-0.6,0.4-1,1-1s0.9,0.4,0.9,1c0,0.6-0.4,1-1,1C559.3,242.6,558.9,242.1,558.9,241.6z"/>
</g>
<line style="fill:none;stroke:#000000;stroke-miterlimit:10;" x1="195.5" y1="285" x2="195.5" y2="322"/>
<line style="fill:none;stroke:#000000;stroke-miterlimit:10;" x1="375.5" y1="286" x2="375.5" y2="323"/>
<circle style="fill:none;stroke:#F90606;stroke-miterlimit:10;" cx="192.6" cy="376" r="11.1"/>
<circle style="fill:#F90606;" cx="189.4" cy="372.3" r="0.6"/>
<circle style="fill:#F90303;" cx="196.7" cy="371.9" r="0.6"/>
<path style="fill:none;stroke:#F70606;stroke-miterlimit:10;" d="M186.9,380.1c2.2-1.3,4.1-2.5,7-2.2c2.9,0.3,3.7,1,4.7,2.2"/>
<circle style="fill:none;stroke:#F90606;stroke-miterlimit:10;" cx="377.6" cy="387" r="11.1"/>
<circle style="fill:#F90606;" cx="374.4" cy="383.3" r="0.6"/>
<circle style="fill:#F90303;" cx="381.7" cy="382.9" r="0.6"/>
<path style="fill:none;stroke:#F70606;stroke-miterlimit:10;" d="M371.9,391.1c2.2-1.3,4.1-2.5,7-2.2c2.9,0.3,3.7,1,4.7,2.2"/>
<circle style="fill:none;stroke:#000000;stroke-miterlimit:10;" cx="547.6" cy="292" r="11.1"/>
<circle cx="544.4" cy="288.3" r="0.6"/>
<circle cx="551.7" cy="287.9" r="0.6"/>
<path style="fill:none;stroke:#050000;stroke-miterlimit:10;" d="M540.4,294.5c2.3,1,5,0.7,8,0.4c3-0.2,4.2,0.1,5.2-0.9"/>
<path style="fill:none;stroke:#050505;stroke-miterlimit:10;" d="M541.1,287.5c0.2-0.7,0.7-1.4,1.2-1.9c0.2-0.2,0.4-0.3,0.6-0.4
	c0.3-0.1,0.7-0.1,0.9-0.3"/>
<path style="fill:none;stroke:#050505;stroke-miterlimit:10;" d="M550.9,285.1c0.7,0.1,1.5,0.4,2.1,0.9c0.2,0.2,0.4,0.3,0.5,0.6
	c0.1,0.3,0.2,0.7,0.5,0.8"/>
</svg>
