<?xml version="1.0" encoding="utf-8"?>
<!-- Generator: Adobe Illustrator 17.1.0, SVG Export Plug-In . SVG Version: 6.00 Build 0)  -->
<!DOCTYPE svg PUBLIC "-//W3C//DTD SVG 1.1//EN" "http://www.w3.org/Graphics/SVG/1.1/DTD/svg11.dtd">
<svg version="1.1" id="Layer_1" xmlns="http://www.w3.org/2000/svg" xmlns:xlink="http://www.w3.org/1999/xlink" x="0px" y="0px"
	 viewBox="0 0 775 445" style="enable-background:new 0 0 775 445;" xml:space="preserve">
<path d="M561.5,58.7c-0.3,0.4-0.5,0.8-0.7,1.2c0.8,0.4,1.4,1.6,2.5,1.1c6.2-2.6,12.5-5.7,19.4-8.9c-0.5-0.8-0.7-1.8-1.2-1.6
	C574.8,53.2,568.2,55.9,561.5,58.7 M531.1,71.9c-0.1,2.7,0.8,3.3,3.7,1.9c6.9-3.2,13.7-6,20.5-9c0.2-0.4,0.5-0.7,0.7-1.1
	c-0.7-0.5-1.2-1.9-2.2-1.5C546.4,65.2,538.8,68.5,531.1,71.9 M524.4,79.8c0.3-0.5,0.7-1.1,1-1.6c-1-0.4-1.7-1.7-2.9-1.1
	c-9,4-18.1,8.3-27.2,12.5c-1.1,0.5-2.3,1.4-3.4,2c0.3,4.1,2.6,4.1,7.3,1.1c5.6-3.4,11-5.8,16.5-8.6
	C518.6,82.7,521.5,81.3,524.4,79.8 M479.2,106.1c-0.8-4.4-1.5-4.7-6.8-1.3c-4.2,2.7-8.6,5.7-12.8,9.2c-10.7,9.1-18.5,19.8-24.3,31.4
	l7.2,0C451.5,128,463.4,114.5,479.2,106.1 M427,163.1c-5.7,16.8-11.2,33.2-16.8,49.8c4.7-1.8,8.9-3.3,13.6-5.1
	c4.4-16.2,8.7-31.9,13-47.7C433.6,161.1,430.7,161.9,427,163.1 M402.1,233.9c-9.7,22-16.9,43.3-36.8,65.9c3.4,1.3,6.6,2.3,9.5,3.7
	c1.7,0.8,3.3-0.1,6-3.3c7.8-9.5,13.5-19.1,18.3-28.8c6.9-14.1,11.5-27.3,15.5-40.6C410.4,231.8,406.5,232.8,402.1,233.9
	 M177.9,352.8c10.6-5.2,20.5-10.1,30.3-14.7c22.7-10.8,45.4-21.3,68.2-32.3c12.2-5.9,24.8-13.4,37.5-22.6
	c19.1-13.8,35.4-30.6,47.4-52c8-14.4,12.4-27.6,16.2-40.6c3.1-10.6,6.1-21.3,10.9-32.4c10.6-24.7,28.7-45.2,51.5-61.7
	c18-13,35-21.3,51.6-28.1c23.9-9.7,46.1-15.5,68.1-20.7c7.1-1.7,14.2-3.3,21.3-4.9c0.8-0.2,1.6-0.4,2.1-0.1
	c7.3,4.2,14.5,8.5,22.2,13.1c-2,1.1-3.3,1.8-4.6,2.4c-21.3,10.5-42.6,20.9-64.9,36.1c-9.7,6.6-19.6,13.6-29.2,21.5
	c-18.4,15.2-27.6,30.2-29.8,47.2c-1.7,12.7-0.1,23,1.9,32.9c2.4,11.4,4.5,22.9,2.8,37.5c-3.3,27.2-17,57-40.4,89.3
	c-23.1,31.8-50,59.1-78.4,84.2c-6.2,5.4-12.4,10.5-18.6,15.9c-2.6,2.3-4,2.6-5.4,2c-18-8.1-36-16.2-54-24.3
	c-4.2-1.9-8.5-3.7-13.2-5.8c25.8-17.6,51.2-33.3,77-57.2c-4.5-1.4-8.7-2.7-12.9-3.9c-0.4-0.1-1.5,0.4-2.2,1
	c-21,16.5-41.5,27.9-62.1,40.1c-5.5,3.2-11,6.6-16.5,9.5c-1.7,0.9-3.6,1.3-4.6,0.9c-23.4-10.3-46.6-20.6-69.8-31
	C179.5,353.7,179,353.4,177.9,352.8"/>
<g>
	<path d="M627,67.1H671l3,6H624L627,67.1z M625.8,66l-3.8,7.5c-0.2,0.5,0.2,1.1,0.7,1.1h52.5c0.5,0,0.9-0.6,0.7-1.1l-3.8-7.5
		c-0.1-0.2-0.4-0.4-0.7-0.4h-45C626.2,65.6,625.9,65.8,625.8,66z M643.5,52.1h11.1l4.4,7.5h-19.9L643.5,52.1z M645,36.9
		c1.3,0.1,2.6,0.2,4,0.2c1.4,0,2.7-0.1,4-0.2c-0.2,1.3-0.6,2.5-1,3.5c-0.5,1.2-1,2.1-1.5,2.6c-0.5,0.6-1,0.8-1.5,0.8
		c-0.5,0-1-0.2-1.5-0.8c-0.5-0.6-1.1-1.5-1.5-2.6C645.6,39.4,645.3,38.2,645,36.9z M661.4,34.2c-1.1,4.6-4.7,8.2-9.3,9.3
		c0.5-0.7,1-1.5,1.3-2.5c0.5-1.2,0.9-2.7,1.1-4.3c1.6-0.3,3-0.7,4.3-1.1C659.8,35.2,660.7,34.7,661.4,34.2z M636.7,34.2
		c0.7,0.5,1.5,1,2.5,1.3c1.2,0.5,2.7,0.9,4.3,1.1c0.3,1.6,0.7,3,1.1,4.3c0.4,1,0.8,1.8,1.3,2.5C641.4,42.4,637.8,38.8,636.7,34.2z
		 M654.8,27.2c1.3,0.2,2.5,0.6,3.5,1c1.2,0.5,2.1,1,2.6,1.5c0.6,0.5,0.8,1,0.8,1.5s-0.2,1-0.8,1.5c-0.6,0.5-1.5,1.1-2.6,1.5
		c-1,0.4-2.2,0.7-3.5,1c0.1-1.3,0.2-2.6,0.2-4C655,29.8,654.9,28.4,654.8,27.2z M643.2,27.2c-0.1,1.3-0.2,2.6-0.2,4
		c0,1.4,0.1,2.7,0.2,4c-1.3-0.2-2.5-0.6-3.5-1c-1.2-0.5-2.1-1-2.6-1.5c-0.6-0.5-0.8-1-0.8-1.5s0.2-1,0.8-1.5
		c0.6-0.5,1.5-1.1,2.6-1.5C640.7,27.7,641.9,27.4,643.2,27.2z M649,26.6c1.5,0,2.9,0.1,4.2,0.3c0.2,1.3,0.3,2.7,0.3,4.2
		c0,1.5-0.1,2.9-0.3,4.2c-1.3,0.2-2.7,0.3-4.2,0.3s-2.9-0.1-4.2-0.3c-0.2-1.3-0.3-2.7-0.3-4.2c0-1.5,0.1-2.9,0.3-4.2
		C646.1,26.7,647.5,26.6,649,26.6z M652.1,18.8c4.6,1.1,8.2,4.7,9.3,9.3c-0.7-0.5-1.5-1-2.5-1.3c-1.2-0.5-2.7-0.9-4.3-1.1
		c-0.3-1.6-0.7-3-1.1-4.3C653,20.3,652.6,19.5,652.1,18.8z M645.9,18.8c-0.5,0.7-1,1.5-1.3,2.5c-0.5,1.2-0.9,2.7-1.1,4.3
		c-1.6,0.3-3,0.7-4.3,1.1c-1,0.4-1.8,0.8-2.5,1.3C637.8,23.5,641.4,19.9,645.9,18.8z M649,18.4c0.5,0,1,0.2,1.5,0.8
		c0.5,0.6,1.1,1.5,1.5,2.6c0.4,1,0.7,2.2,1,3.5c-1.3-0.1-2.6-0.2-4-0.2c-1.4,0-2.7,0.1-4,0.2c0.2-1.3,0.6-2.5,1-3.5
		c0.5-1.2,1-2.1,1.5-2.6C648,18.6,648.5,18.4,649,18.4z M649,16.9c-7.9,0-14.2,6.4-14.2,14.2s6.4,14.2,14.2,14.2s14.2-6.4,14.2-14.2
		S656.9,16.9,649,16.9z M622,11.6h54c1.7,0,3,1.3,3,3v33c0,1.7-1.3,3-3,3h-54c-1.7,0-3-1.3-3-3v-33C619,13,620.3,11.6,622,11.6z
		 M622,10.1c-2.5,0-4.5,2-4.5,4.5v33c0,2.5,2,4.5,4.5,4.5h19.7l-4.6,7.9c-0.3,0.5,0.1,1.2,0.7,1.1h22.5c0.5,0,0.9-0.7,0.7-1.1
		l-4.6-7.9H676c2.5,0,4.5-2,4.5-4.5v-33c0-2.5-2-4.5-4.5-4.5H622z"/>
</g>
<g>
	<path d="M107.7,332L107.7,332c-0.2,0-0.4,0.1-0.4,0.4c-0.3,0.8-0.2,2,0.2,3.4c0.1-0.1,0.1-0.2,0.1-0.2c0.8-2.3,0.6-3.4,0.4-3.6
		C107.9,332.1,107.8,332,107.7,332z M107.5,339.4c-0.5,1.4-1.2,3-1.9,4.6c1.4-0.5,2.9-0.9,4.4-1.2c-0.1-0.1-0.1-0.1-0.1-0.1
		C108.9,341.7,108.1,340.5,107.5,339.4z M113,343.5c1.7,1.1,3,1.2,3.6,1c0.2-0.1,0.3-0.2,0.4-0.2c0-0.1,0-0.2-0.1-0.2
		c-0.1-0.2-0.8-0.5-2.8-0.5c-0.1,0-0.1,0-0.1,0C113.7,343.5,113.4,343.5,113,343.5z M103,346.3c-1.8,0.8-3.4,2.2-3.4,2.9l0.1,0.1
		c0.2,0.2,1.1-0.1,2-1.1C102.1,347.7,102.6,347.1,103,346.3z M99.8,350.6c-0.4,0-0.8-0.1-1-0.4c-0.4-0.3-0.5-0.8-0.5-1.3
		c0.2-1.5,2.7-3.2,4.4-3.9c0.4-0.1,0.8-0.3,1.2-0.5c1.1-2.2,2.2-4.9,2.8-6.8c-1-2.3-1.1-4.6-0.8-5.8c0.4-1,1.1-1.2,1.4-1.3
		c0.8-0.1,1.2,0.2,1.4,0.5c0.2,0.3,1,1.2-0.1,4.8c0,0-0.2,0.7-0.6,1.7c0.6,1.4,1.5,2.8,2.7,4c0.3,0.3,0.5,0.5,0.8,0.8
		c0.9-0.1,1.7-0.2,2.6-0.2l0,0c1.9,0,3.1,0.3,3.7,0.9c0.3,0.3,0.4,0.8,0.4,1.2c-0.1,0.6-0.4,1.1-1.1,1.4c-1.2,0.4-3.3,0.1-5.9-1.9
		c-2.2,0.4-4.6,1.1-6.4,1.8c-0.8,1.4-1.5,2.7-2.3,3.4C101.7,350.1,100.6,350.6,99.8,350.6z"/>
	<path d="M101.4,367.3c0.1,0.1,0.4,0.1,0.7,0.1c1,0,1.6-0.4,1.6-1.4c0-0.8-0.5-1.2-1.5-1.2c-0.4,0-0.6,0-0.8,0.1V367.3z
		 M100.2,363.9c0.4-0.1,1.1-0.1,2-0.1c1,0,1.6,0.2,2.1,0.6c0.4,0.4,0.7,0.9,0.7,1.6s-0.2,1.3-0.6,1.6c-0.5,0.5-1.4,0.8-2.2,0.8
		c-0.2,0-0.4,0-0.7-0.1v2.7h-1.3V363.9z"/>
	<path d="M107.4,370.1c0.1,0,0.4,0,0.8,0c1.7,0,2.7-0.9,2.7-2.8c0-1.6-0.9-2.5-2.6-2.5c-0.4,0-0.8,0-0.9,0.1V370.1z M106.2,363.9
		c0.6-0.1,1.4-0.1,2.1-0.1c1.4,0,2.2,0.3,2.9,0.8c0.7,0.6,1.1,1.4,1.1,2.6c0,1.3-0.4,2.2-1.1,2.9c-0.8,0.7-1.9,1-3.3,1
		c-0.8,0-1.4-0.1-1.8-0.1L106.2,363.9L106.2,363.9z"/>
	<polygon points="113.4,363.9 117.6,363.9 117.6,364.9 114.7,364.9 114.7,366.9 117.3,366.9 117.3,368 114.7,368 114.7,371.1 
		113.4,371.1 	"/>
	<path d="M85.7,374.4v-13.8h47.6v13.8H85.7z M117.7,313v15.6h15.6v30.8H85.7V313H117.7z M119.5,314.3l12.4,12.5h-12.4V314.3z
		 M119.1,311.1H83.8v65.2h51.4v-49L119.1,311.1z"/>
</g>
<g>
	<g>
		<path d="M596,105.4c0.5-0.1,0.9-0.3,1.1-0.7c0.1-0.2,0.2-0.5,0.2-0.9c0-0.8-0.3-1.3-0.8-1.7c-0.6-0.4-1.3-0.5-2.4-0.5
			c-1.2,0-2,0.3-2.5,1c-0.3,0.4-0.5,0.9-0.5,1.6h-2.1c0-1.7,0.6-2.8,1.6-3.5c1-0.7,2.3-1,3.6-1c1.6,0,2.9,0.3,3.9,0.9
			c1,0.6,1.5,1.6,1.5,2.8v7.8c0,0.2,0,0.4,0.1,0.6c0.1,0.1,0.3,0.2,0.6,0.2c0.1,0,0.2,0,0.3,0s0.3,0,0.4-0.1v1.7
			c-0.4,0.1-0.6,0.2-0.8,0.2s-0.4,0-0.8,0c-0.8,0-1.4-0.3-1.7-0.8c-0.2-0.3-0.3-0.7-0.4-1.3c-0.5,0.6-1.1,1.1-2,1.6
			c-0.9,0.4-1.8,0.7-2.9,0.7c-1.3,0-2.3-0.4-3.1-1.1c-0.8-0.8-1.2-1.7-1.2-2.9c0-1.3,0.4-2.2,1.2-2.9s1.8-1.1,3.1-1.3L596,105.4z
			 M591.2,111.5c0.5,0.4,1.1,0.6,1.7,0.6c0.8,0,1.6-0.2,2.3-0.6c1.3-0.6,1.9-1.6,1.9-3v-1.8c-0.3,0.2-0.6,0.3-1.1,0.4
			c-0.4,0.1-0.9,0.2-1.3,0.3l-1.4,0.2c-0.8,0.1-1.5,0.3-1.9,0.5c-0.7,0.4-1.1,1-1.1,1.9C590.4,110.6,590.7,111.2,591.2,111.5z"/>
		<path d="M604.2,100l2.6,10.7l2.7-10.7h2.6l2.7,10.7l2.8-10.7h2.3l-3.9,13.6h-2.4l-2.8-10.5l-2.7,10.5h-2.4l-3.9-13.6H604.2z"/>
		<path d="M630.3,100.4c0.9,0.5,1.6,1,2.1,1.8c0.5,0.7,0.8,1.5,0.9,2.4c0.1,0.6,0.2,1.6,0.2,3h-9.9c0,1.4,0.4,2.5,1,3.3
			s1.5,1.3,2.8,1.3c1.2,0,2.1-0.4,2.8-1.2c0.4-0.5,0.7-1,0.8-1.6h2.2c-0.1,0.5-0.3,1.1-0.6,1.7c-0.3,0.6-0.7,1.1-1.1,1.5
			c-0.7,0.7-1.5,1.1-2.6,1.4c-0.5,0.1-1.2,0.2-1.9,0.2c-1.7,0-3.1-0.6-4.3-1.8c-1.2-1.2-1.8-3-1.8-5.2c0-2.2,0.6-4,1.8-5.3
			c1.2-1.4,2.7-2,4.6-2C628.5,99.7,629.4,99.9,630.3,100.4z M631.1,105.7c-0.1-1-0.3-1.8-0.6-2.4c-0.6-1.1-1.7-1.7-3.1-1.7
			c-1,0-1.9,0.4-2.6,1.1c-0.7,0.8-1.1,1.7-1.1,2.9H631.1z"/>
		<path d="M637.7,109.3c0.1,0.8,0.3,1.3,0.6,1.8c0.6,0.7,1.6,1.1,3.1,1.1c0.9,0,1.6-0.2,2.3-0.6c0.7-0.4,1-0.9,1-1.7
			c0-0.6-0.3-1-0.8-1.3c-0.3-0.2-1-0.4-2-0.6l-1.8-0.5c-1.2-0.3-2-0.6-2.6-1c-1-0.6-1.5-1.5-1.5-2.6c0-1.3,0.5-2.3,1.4-3.1
			c0.9-0.8,2.2-1.2,3.8-1.2c2.1,0,3.6,0.6,4.5,1.8c0.6,0.8,0.9,1.6,0.8,2.5h-2.2c0-0.5-0.2-1-0.6-1.4c-0.5-0.6-1.5-0.9-2.8-0.9
			c-0.9,0-1.6,0.2-2,0.5c-0.5,0.3-0.7,0.8-0.7,1.3c0,0.6,0.3,1.1,0.9,1.4c0.3,0.2,0.9,0.4,1.5,0.6l1.5,0.4c1.7,0.4,2.8,0.8,3.4,1.2
			c0.9,0.6,1.3,1.5,1.3,2.8c0,1.2-0.5,2.3-1.4,3.1c-0.9,0.9-2.3,1.3-4.2,1.3c-2,0-3.5-0.5-4.4-1.4c-0.9-0.9-1.3-2.1-1.4-3.4H637.7z"
			/>
		<path d="M659.2,101.4c1.2,1.2,1.8,2.9,1.8,5.1c0,2.2-0.5,4-1.6,5.4c-1.1,1.4-2.7,2.1-4.9,2.1c-1.9,0-3.3-0.6-4.4-1.9
			c-1.1-1.3-1.6-3-1.6-5.1c0-2.3,0.6-4.1,1.7-5.5c1.2-1.4,2.7-2,4.6-2C656.6,99.6,658,100.2,659.2,101.4z M657.8,110.4
			c0.6-1.1,0.8-2.4,0.8-3.8c0-1.3-0.2-2.3-0.6-3.1c-0.6-1.3-1.7-1.9-3.3-1.9c-1.4,0-2.4,0.5-3,1.6c-0.6,1.1-0.9,2.4-0.9,3.9
			c0,1.4,0.3,2.6,0.9,3.6s1.6,1.4,3,1.4C656.2,112.1,657.2,111.5,657.8,110.4z"/>
		<path d="M663.8,100h2.3v1.9c0.5-0.7,1-1.2,1.5-1.5c0.8-0.5,1.6-0.8,2.6-0.8c1.1,0,2,0.3,2.6,0.8c0.4,0.3,0.7,0.8,1,1.3
			c0.5-0.7,1.1-1.3,1.8-1.6c0.7-0.4,1.5-0.5,2.3-0.5c1.8,0,3.1,0.7,3.7,2c0.4,0.7,0.5,1.7,0.5,2.9v9.1h-2.4v-9.4
			c0-0.9-0.2-1.5-0.7-1.9c-0.5-0.3-1-0.5-1.7-0.5c-0.9,0-1.7,0.3-2.3,0.9c-0.6,0.6-1,1.6-1,3v7.9h-2.3v-8.9c0-0.9-0.1-1.6-0.3-2
			c-0.3-0.6-1-1-1.9-1c-0.9,0-1.6,0.3-2.4,1c-0.7,0.7-1.1,1.9-1.1,3.6v7.2h-2.3V100z"/>
		<path d="M693.9,100.4c0.9,0.5,1.6,1,2.1,1.8c0.5,0.7,0.8,1.5,0.9,2.4c0.1,0.6,0.2,1.6,0.2,3h-9.9c0,1.4,0.4,2.5,1,3.3
			s1.5,1.3,2.8,1.3c1.2,0,2.1-0.4,2.8-1.2c0.4-0.5,0.7-1,0.8-1.6h2.2c-0.1,0.5-0.3,1.1-0.6,1.7c-0.3,0.6-0.7,1.1-1.1,1.5
			c-0.7,0.7-1.5,1.1-2.6,1.4c-0.5,0.1-1.2,0.2-1.9,0.2c-1.7,0-3.1-0.6-4.3-1.8c-1.2-1.2-1.8-3-1.8-5.2c0-2.2,0.6-4,1.8-5.3
			c1.2-1.4,2.7-2,4.6-2C692.1,99.7,693,99.9,693.9,100.4z M694.7,105.7c-0.1-1-0.3-1.8-0.6-2.4c-0.6-1.1-1.7-1.7-3.1-1.7
			c-1,0-1.9,0.4-2.6,1.1c-0.7,0.8-1.1,1.7-1.1,2.9H694.7z"/>
		<path d="M588.7,126.1h2.3v7c0.5-0.7,1-1.2,1.5-1.4c0.7-0.5,1.7-0.7,2.8-0.7c2,0,3.3,0.7,4,2.1c0.4,0.8,0.6,1.8,0.6,3.1v8.7h-2.3
			v-8.6c0-1-0.1-1.7-0.4-2.2c-0.4-0.7-1.2-1.1-2.3-1.1c-0.9,0-1.8,0.3-2.6,1c-0.8,0.7-1.2,1.9-1.2,3.7v7.2h-2.3V126.1z"/>
		<path d="M611.5,131.6c0.9,0.5,1.6,1,2.1,1.8c0.5,0.7,0.8,1.5,0.9,2.4c0.1,0.6,0.2,1.6,0.2,3h-9.9c0,1.4,0.4,2.5,1,3.3
			s1.5,1.3,2.8,1.3c1.2,0,2.1-0.4,2.8-1.2c0.4-0.5,0.7-1,0.8-1.6h2.2c-0.1,0.5-0.3,1.1-0.6,1.7c-0.3,0.6-0.7,1.1-1.1,1.5
			c-0.7,0.7-1.5,1.1-2.6,1.4c-0.5,0.1-1.2,0.2-1.9,0.2c-1.7,0-3.1-0.6-4.3-1.8c-1.2-1.2-1.8-3-1.8-5.2c0-2.2,0.6-4,1.8-5.3
			c1.2-1.4,2.7-2,4.6-2C609.7,130.9,610.6,131.1,611.5,131.6z M612.4,136.9c-0.1-1-0.3-1.8-0.6-2.4c-0.6-1.1-1.7-1.7-3.1-1.7
			c-1,0-1.9,0.4-2.6,1.1c-0.7,0.8-1.1,1.7-1.1,2.9H612.4z"/>
		<path d="M617.7,126.1h2.3v18.6h-2.3V126.1z"/>
		<path d="M623.2,131.3h2.2v1.8c0.5-0.6,1-1.1,1.5-1.4c0.8-0.5,1.7-0.8,2.7-0.8c1.5,0,2.9,0.6,3.9,1.8c1.1,1.2,1.6,2.9,1.6,5.1
			c0,3-0.8,5.1-2.3,6.3c-1,0.8-2.1,1.2-3.4,1.2c-1,0-1.9-0.2-2.6-0.7c-0.4-0.3-0.9-0.7-1.4-1.3v6.9h-2.3V131.3z M631.8,141.9
			c0.7-0.9,1.1-2.2,1.1-4c0-1.1-0.2-2-0.5-2.8c-0.6-1.5-1.7-2.2-3.3-2.2c-1.6,0-2.7,0.8-3.3,2.4c-0.3,0.8-0.5,1.9-0.5,3.2
			c0,1,0.2,1.9,0.5,2.7c0.6,1.4,1.7,2.1,3.3,2.1C630.2,143.3,631.1,142.8,631.8,141.9z"/>
		<path d="M646.1,131.2l2.6,10.7l2.7-10.7h2.6l2.7,10.7l2.8-10.7h2.3l-3.9,13.6h-2.4l-2.8-10.5l-2.7,10.5h-2.4l-3.9-13.6H646.1z"/>
		<path d="M672.2,131.6c0.9,0.5,1.6,1,2.1,1.8c0.5,0.7,0.8,1.5,0.9,2.4c0.1,0.6,0.2,1.6,0.2,3h-9.9c0,1.4,0.4,2.5,1,3.3
			s1.5,1.3,2.8,1.3c1.2,0,2.1-0.4,2.8-1.2c0.4-0.5,0.7-1,0.8-1.6h2.2c-0.1,0.5-0.3,1.1-0.6,1.7c-0.3,0.6-0.7,1.1-1.1,1.5
			c-0.7,0.7-1.5,1.1-2.6,1.4c-0.5,0.1-1.2,0.2-1.9,0.2c-1.7,0-3.1-0.6-4.3-1.8c-1.2-1.2-1.8-3-1.8-5.2c0-2.2,0.6-4,1.8-5.3
			c1.2-1.4,2.7-2,4.6-2C670.4,130.9,671.3,131.1,672.2,131.6z M673,136.9c-0.1-1-0.3-1.8-0.6-2.4c-0.6-1.1-1.7-1.7-3.1-1.7
			c-1,0-1.9,0.4-2.6,1.1c-0.7,0.8-1.1,1.7-1.1,2.9H673z"/>
		<path d="M678.1,126.1h2.2v6.8c0.5-0.7,1.1-1.1,1.8-1.5s1.5-0.5,2.3-0.5c1.7,0,3.1,0.6,4.1,1.7c1.1,1.2,1.6,2.9,1.6,5.1
			c0,2.2-0.5,3.9-1.6,5.4s-2.5,2.1-4.3,2.1c-1,0-1.9-0.2-2.6-0.7c-0.4-0.3-0.9-0.8-1.4-1.4v1.7h-2.1V126.1z M686.8,141.7
			c0.6-1,0.9-2.3,0.9-3.9c0-1.4-0.3-2.6-0.9-3.6c-0.6-0.9-1.5-1.4-2.7-1.4c-1,0-2,0.4-2.7,1.2c-0.8,0.8-1.2,2-1.2,3.8
			c0,1.3,0.2,2.3,0.5,3.1c0.6,1.5,1.7,2.2,3.4,2.2C685.3,143.2,686.2,142.7,686.8,141.7z"/>
		<path d="M694.1,140.5c0.1,0.8,0.3,1.3,0.6,1.8c0.6,0.7,1.6,1.1,3.1,1.1c0.9,0,1.6-0.2,2.3-0.6c0.7-0.4,1-0.9,1-1.7
			c0-0.6-0.3-1-0.8-1.3c-0.3-0.2-1-0.4-2-0.6l-1.8-0.5c-1.2-0.3-2-0.6-2.6-1c-1-0.6-1.5-1.5-1.5-2.6c0-1.3,0.5-2.3,1.4-3.1
			c0.9-0.8,2.2-1.2,3.8-1.2c2.1,0,3.6,0.6,4.5,1.8c0.6,0.8,0.9,1.6,0.8,2.5h-2.2c0-0.5-0.2-1-0.6-1.4c-0.5-0.6-1.5-0.9-2.8-0.9
			c-0.9,0-1.6,0.2-2,0.5c-0.5,0.3-0.7,0.8-0.7,1.3c0,0.6,0.3,1.1,0.9,1.4c0.3,0.2,0.9,0.4,1.5,0.6l1.5,0.4c1.7,0.4,2.8,0.8,3.4,1.2
			c0.9,0.6,1.3,1.5,1.3,2.8c0,1.2-0.5,2.3-1.4,3.1c-0.9,0.9-2.3,1.3-4.2,1.3c-2,0-3.5-0.5-4.4-1.4c-0.9-0.9-1.3-2.1-1.4-3.4H694.1z"
			/>
		<path d="M705.8,126.1h2.3v2.6h-2.3V126.1z M705.8,131.3h2.3v13.5h-2.3V131.3z"/>
		<path d="M712,127.4h2.3v3.8h2.2v1.9h-2.2v8.9c0,0.5,0.2,0.8,0.5,1c0.2,0.1,0.5,0.1,0.9,0.1c0.1,0,0.2,0,0.4,0c0.1,0,0.3,0,0.4,0
			v1.8c-0.3,0.1-0.5,0.1-0.8,0.2c-0.3,0-0.6,0.1-0.9,0.1c-1.1,0-1.8-0.3-2.2-0.8s-0.6-1.3-0.6-2.1v-9h-1.8v-1.9h1.8V127.4z"/>
		<path d="M727.2,131.6c0.9,0.5,1.6,1,2.1,1.8c0.5,0.7,0.8,1.5,0.9,2.4c0.1,0.6,0.2,1.6,0.2,3h-9.9c0,1.4,0.4,2.5,1,3.3
			s1.5,1.3,2.8,1.3c1.2,0,2.1-0.4,2.8-1.2c0.4-0.5,0.7-1,0.8-1.6h2.2c-0.1,0.5-0.3,1.1-0.6,1.7c-0.3,0.6-0.7,1.1-1.1,1.5
			c-0.7,0.7-1.5,1.1-2.6,1.4c-0.5,0.1-1.2,0.2-1.9,0.2c-1.7,0-3.1-0.6-4.3-1.8c-1.2-1.2-1.8-3-1.8-5.2c0-2.2,0.6-4,1.8-5.3
			c1.2-1.4,2.7-2,4.6-2C725.3,130.9,726.2,131.1,727.2,131.6z M728,136.9c-0.1-1-0.3-1.8-0.6-2.4c-0.6-1.1-1.7-1.7-3.1-1.7
			c-1,0-1.9,0.4-2.6,1.1c-0.7,0.8-1.1,1.7-1.1,2.9H728z"/>
	</g>
</g>
<g>
	<g>
		<path d="M55.5,389.9h2.2v6.8c0.5-0.7,1.1-1.1,1.8-1.5s1.5-0.5,2.3-0.5c1.7,0,3.1,0.6,4.1,1.7c1.1,1.2,1.6,2.9,1.6,5.1
			c0,2.2-0.5,3.9-1.6,5.4s-2.5,2.1-4.3,2.1c-1,0-1.9-0.2-2.6-0.7c-0.4-0.3-0.9-0.8-1.4-1.4v1.7h-2.1V389.9z M64.2,405.5
			c0.6-1,0.9-2.3,0.9-3.9c0-1.4-0.3-2.6-0.9-3.6c-0.6-0.9-1.5-1.4-2.7-1.4c-1,0-2,0.4-2.7,1.2c-0.8,0.8-1.2,2-1.2,3.8
			c0,1.3,0.2,2.3,0.5,3.1c0.6,1.5,1.7,2.2,3.4,2.2C62.7,407,63.6,406.5,64.2,405.5z"/>
		<path d="M80,396.4c1.2,1.2,1.8,2.9,1.8,5.1c0,2.2-0.5,4-1.6,5.4c-1.1,1.4-2.7,2.1-4.9,2.1c-1.9,0-3.3-0.6-4.4-1.9
			c-1.1-1.3-1.6-3-1.6-5.1c0-2.3,0.6-4.1,1.7-5.5c1.2-1.4,2.7-2,4.6-2C77.3,394.6,78.8,395.2,80,396.4z M78.6,405.4
			c0.6-1.1,0.8-2.4,0.8-3.8c0-1.3-0.2-2.3-0.6-3.1c-0.6-1.3-1.7-1.9-3.3-1.9c-1.4,0-2.4,0.5-3,1.6c-0.6,1.1-0.9,2.4-0.9,3.9
			c0,1.4,0.3,2.6,0.9,3.6s1.6,1.4,3,1.4C77,407.1,78,406.5,78.6,405.4z"/>
		<path d="M84.7,395h2.2v2.3c0.2-0.5,0.6-1,1.3-1.7c0.7-0.7,1.5-1,2.4-1c0,0,0.1,0,0.2,0c0.1,0,0.3,0,0.5,0.1v2.4
			c-0.1,0-0.3,0-0.4-0.1c-0.1,0-0.2,0-0.4,0c-1.2,0-2,0.4-2.7,1.1c-0.6,0.7-0.9,1.6-0.9,2.6v7.8h-2.3V395z"/>
		<path d="M93.3,389.9h2.3v2.6h-2.3V389.9z M93.3,395.1h2.3v13.5h-2.3V395.1z"/>
		<path d="M99,395h2.2v1.9c0.6-0.8,1.3-1.4,2-1.7c0.7-0.3,1.5-0.5,2.4-0.5c1.9,0,3.2,0.7,3.9,2c0.4,0.7,0.6,1.8,0.6,3.2v8.7h-2.3
			V400c0-0.8-0.1-1.5-0.4-2c-0.4-0.8-1.1-1.3-2.2-1.3c-0.5,0-1,0.1-1.3,0.2c-0.6,0.2-1.2,0.6-1.7,1.1c-0.4,0.4-0.6,0.9-0.7,1.4
			c-0.1,0.5-0.2,1.2-0.2,2v7.1H99V395z"/>
		<path d="M121,395.5c0.4,0.3,0.9,0.7,1.3,1.3v-1.7h2.1v12.4c0,1.7-0.3,3.1-0.8,4.1c-0.9,1.8-2.7,2.8-5.4,2.8c-1.5,0-2.7-0.3-3.7-1
			c-1-0.7-1.6-1.7-1.7-3.1h2.3c0.1,0.6,0.3,1.1,0.7,1.4c0.5,0.5,1.3,0.8,2.4,0.8c1.7,0,2.9-0.6,3.4-1.9c0.3-0.7,0.5-2,0.4-3.9
			c-0.5,0.7-1,1.2-1.6,1.5c-0.6,0.3-1.5,0.5-2.5,0.5c-1.5,0-2.8-0.5-3.9-1.6c-1.1-1-1.7-2.8-1.7-5.2c0-2.3,0.6-4.1,1.7-5.3
			c1.1-1.3,2.4-1.9,4-1.9C119.3,394.8,120.3,395,121,395.5z M121.3,398c-0.7-0.8-1.6-1.2-2.6-1.2c-1.6,0-2.7,0.8-3.3,2.3
			c-0.3,0.8-0.5,1.9-0.5,3.2c0,1.5,0.3,2.7,0.9,3.5c0.6,0.8,1.5,1.2,2.5,1.2c1.6,0,2.8-0.7,3.4-2.2c0.4-0.8,0.6-1.8,0.6-2.9
			C122.4,400.1,122,398.8,121.3,398z"/>
		<path d="M135.7,389.9h8.3c1.6,0,3,0.5,4,1.4c1,0.9,1.5,2.2,1.5,3.9c0,1.5-0.5,2.7-1.4,3.8c-0.9,1.1-2.3,1.6-4.2,1.6h-5.8v7.9h-2.5
			V389.9z M145.5,392.5c-0.6-0.3-1.3-0.4-2.3-0.4h-5v6.5h5c1.1,0,2-0.2,2.7-0.7c0.7-0.5,1.1-1.3,1.1-2.6
			C147,393.9,146.5,393,145.5,392.5z"/>
		<path d="M152.9,389.9h7.5c2.5,0,4.5,0.9,5.9,2.7c1.2,1.6,1.9,3.7,1.9,6.3c0,2-0.4,3.8-1.1,5.4c-1.3,2.8-3.5,4.2-6.7,4.2h-7.4
			V389.9z M159.9,406.4c0.8,0,1.5-0.1,2.1-0.3c1-0.3,1.7-1,2.4-1.9c0.5-0.8,0.8-1.7,1.1-2.9c0.1-0.7,0.2-1.4,0.2-2
			c0-2.3-0.4-4.1-1.3-5.4c-0.9-1.3-2.3-1.9-4.3-1.9h-4.4v14.3H159.9z"/>
		<path d="M171.8,389.9h12.9v2.3h-10.4v5.7h9.2v2.2h-9.2v8.5h-2.5V389.9z"/>
	</g>
</g>
</svg>
