<?xml version="1.0" encoding="utf-8"?>
<!-- Generator: Adobe Illustrator 17.1.0, SVG Export Plug-In . SVG Version: 6.00 Build 0)  -->
<!DOCTYPE svg PUBLIC "-//W3C//DTD SVG 1.1//EN" "http://www.w3.org/Graphics/SVG/1.1/DTD/svg11.dtd">
<svg version="1.1" id="Layer_1" xmlns="http://www.w3.org/2000/svg" xmlns:xlink="http://www.w3.org/1999/xlink" x="0px" y="0px"
	 viewBox="0 0 1268 630" style="enable-background:new 0 0 1268 630;" xml:space="preserve">
<g>
	<path style="fill:#F4F2F2;" d="M185.8,139.9c-0.5,0.6-1.6,1.7-3.4,2.6c-3.9,1.9-7.8,0.6-9.8-3.4c-2-4-0.7-8.3,3.6-10.4
		c1.4-0.7,2.8-1,3.6-1l0.4,2.1c-0.7,0-1.8,0.1-3,0.7c-3,1.5-3.5,4.5-2.2,7.2c1.5,3,4.3,3.9,6.9,2.6c1.3-0.7,2.1-1.5,2.6-2.1
		L185.8,139.9z"/>
	<path style="fill:#F4F2F2;" d="M179.3,120l2.4-1.2l4,8.1l0.1,0c0-0.9,0.3-1.7,0.9-2.5c0.5-0.7,1.2-1.4,2.1-1.9
		c1.7-0.9,5.1-1.2,7.3,3.3l3.8,7.7l-2.4,1.2l-3.7-7.5c-1-2.1-2.7-3.5-4.9-2.4c-1.5,0.8-2.2,2.4-2,3.9c0,0.4,0.2,0.8,0.4,1.2l3.9,7.8
		l-2.4,1.2L179.3,120z"/>
	<path style="fill:#F4F2F2;" d="M210.9,128.1l-1-1.5l-0.1,0c-0.2,1.4-1.2,3-3,3.9c-2.6,1.3-4.9,0.1-5.8-1.8
		c-1.6-3.1,0.4-6.3,5.4-8.7l-0.1-0.3c-0.5-1.1-1.8-2.9-4.5-1.5c-1.2,0.6-2.3,1.6-2.9,2.6l-1.3-1.3c0.7-1.2,2.1-2.5,3.7-3.3
		c4-2,6.3,0.3,7.6,2.9l2.4,4.9c0.6,1.1,1.2,2.2,1.8,3L210.9,128.1z M207.3,121.6c-2.6,1.2-5.3,3.1-4.1,5.7c0.8,1.5,2.1,1.7,3.3,1.1
		c1.7-0.8,2.2-2.4,2.1-3.7c0-0.3-0.1-0.6-0.2-0.8L207.3,121.6z"/>
	<path style="fill:#F4F2F2;" d="M207.2,106.1l2.4-1.2L219,124l-2.4,1.2L207.2,106.1z"/>
	<path style="fill:#F4F2F2;" d="M213.5,103l2.4-1.2l9.5,19.1l-2.4,1.2L213.5,103z"/>
	<path style="fill:#F4F2F2;" d="M227.6,112.2c1.6,3.2,4.3,3.5,6.7,2.3c1.7-0.8,2.6-1.6,3.3-2.5l1.2,1.5c-0.6,0.8-1.9,1.9-3.9,3
		c-4,2-7.7,0.5-9.7-3.4c-1.9-3.9-1.2-8.2,2.6-10c4.2-2.1,7.2,1.1,8.4,3.5c0.2,0.5,0.4,0.9,0.5,1.1L227.6,112.2z M233.7,107.1
		c-0.7-1.5-2.5-3.5-5.2-2.2c-2.4,1.2-2.3,3.9-1.7,5.6L233.7,107.1z"/>
	<path style="fill:#F4F2F2;" d="M238.1,102.8c-0.7-1.3-1.2-2.4-1.9-3.5l2.1-1l1.2,2.1l0.1,0c0-1.6,0.9-3.5,3.1-4.6
		c1.8-0.9,5.1-1.2,7.3,3.3l3.9,7.8l-2.4,1.2l-3.7-7.5c-1-2.1-2.7-3.5-4.9-2.3c-1.6,0.8-2.2,2.5-2,4c0,0.3,0.2,0.8,0.4,1.2l3.9,7.8
		l-2.4,1.2L238.1,102.8z"/>
	<path style="fill:#F4F2F2;" d="M262.5,86.3c0.4,1,0.9,2,1.7,3.6l3.7,7.6c1.5,3,1.8,5.1,1.1,6.9c-0.7,1.8-2.3,3.1-4,3.9
		c-1.6,0.8-3.5,1.3-4.9,1.1l-0.3-2.1c1.1,0.1,2.7-0.1,4.3-0.9c2.4-1.2,3.6-3.3,1.9-6.6l-0.7-1.5l-0.1,0c-0.1,1.6-1,3.2-3.1,4.2
		c-3.2,1.6-6.9,0-8.7-3.6c-2.2-4.4-0.6-8.3,2.4-9.8c2.3-1.1,4.1-0.6,5.2,0.2l0.1,0l-0.9-2L262.5,86.3z M262.6,92.6
		c-0.2-0.4-0.4-0.7-0.7-1c-1.1-1.2-2.8-1.7-4.5-0.9c-2.3,1.1-2.9,3.8-1.4,6.8c1.3,2.6,3.6,4,6.2,2.8c1.5-0.7,2.3-2.3,2.1-4
		c-0.1-0.5-0.2-1-0.4-1.4L262.6,92.6z"/>
	<path style="fill:#F4F2F2;" d="M271,90.7c1.6,3.2,4.3,3.5,6.7,2.3c1.7-0.8,2.6-1.6,3.3-2.5l1.2,1.5c-0.6,0.8-1.9,1.9-3.9,3
		c-4,2-7.7,0.5-9.6-3.4c-1.9-3.9-1.2-8.2,2.6-10c4.2-2.1,7.2,1.1,8.4,3.5c0.2,0.5,0.4,0.9,0.5,1.1L271,90.7z M277.1,85.5
		c-0.7-1.5-2.5-3.5-5.2-2.2c-2.4,1.2-2.3,3.9-1.7,5.6L277.1,85.5z"/>
</g>
</svg>
