<?xml version="1.0" encoding="utf-8"?>
<!-- Generator: Adobe Illustrator 17.1.0, SVG Export Plug-In . SVG Version: 6.00 Build 0)  -->
<!DOCTYPE svg PUBLIC "-//W3C//DTD SVG 1.1//EN" "http://www.w3.org/Graphics/SVG/1.1/DTD/svg11.dtd">
<svg version="1.1" id="Layer_1" xmlns="http://www.w3.org/2000/svg" xmlns:xlink="http://www.w3.org/1999/xlink" x="0px" y="0px"
	 viewBox="0 0 775 445" style="enable-background:new 0 0 775 445;" xml:space="preserve">
<path d="M386.3,252.4c-0.9,0-1.8,0-2-0.6c-0.6-0.6-0.6-1.5-0.6-2.3c0.3-2.3,2-3.5,2.6-3.5h0.3c2.3,0.3,3.5,1.5,3.5,3.2
	C389.5,250.3,387.4,252.1,386.3,252.4z M394.7,249.2c0-4.4-2.9-7.6-7.6-8.2c-0.3,0-0.6,0-0.9,0c-3.8,0-7,3.5-7.6,7.9
	c-0.3,2.6,0.6,4.7,1.8,6.4c0.9,0.9,2.6,2,5.3,2c0.3,0,0.9,0,1.2,0C390.3,256.8,394.4,253.3,394.7,249.2z"/>
<path d="M368.1,238.4c-0.9,2-2.6,4.4-5.3,4.4h-0.6c-1.2,0-2-0.6-2.6-1.5c-0.9-0.9-1.2-2.6-0.9-4.4c0.9-2.6,2.6-4.1,4.4-4.1
	c0.3,0,0.6,0,1.2,0.3C368.1,234,368.4,236.9,368.1,238.4z M363.2,227.8c-4.4,0-7.9,2.9-9.3,7.9v0.3c-0.6,3.2,0.3,6.1,2,8.5
	c1.5,1.7,3.5,2.9,6.1,3.2c0.3,0,0.6,0,1.2,0c4.7,0,8.8-3.2,10.2-7.9v-0.6c0.6-5.6-2.3-9.9-7.9-11.1
	C364.6,227.8,363.7,227.8,363.2,227.8z"/>
<path d="M270,208c-9.3-10.8-13.4-25.7-11.7-42.1c2-19,18.7-30.1,26-35.1c10.5-6.7,19.6-9.6,31-9.6c3.8,0,8.2,0.3,12.6,1.2
	c19,2.9,33.9,8.8,43.8,20.4c8.8,10.5,12.9,24,11.7,38.3c-1.5,14.3-14.3,26.3-24.8,33.9c-12.9,8.5-24.5,12.3-38.6,12.3
	c-1.7,0-3.8,0-5.6-0.3C295.1,225.8,279.9,219.4,270,208z M319.6,231.9c15.2,0,27.5-3.8,41.5-13.1c11.4-8.2,25.4-21.3,27.2-37.7
	c2-25.7-12.3-56.4-59.6-64c-5-0.6-9.3-0.9-13.4-0.9c-12.3,0-22.5,3.2-33.9,10.5c-7.9,5.3-26,17.8-28.3,38.6
	c-1.7,17.8,2.9,34.2,12.9,45.9c10.8,12.6,27.2,19.6,47.6,20.7C315.8,231.9,317.9,231.9,319.6,231.9z"/>
<rect x="286.3" y="149.3" width="68.1" height="12.9"/>
<rect x="286.3" y="167.7" width="17" height="32.4"/>
<rect x="310.9" y="167.7" width="43.5" height="32.4"/>
<path d="M486.4,333.9c2.3-8.2,2.3-15.8,0-26.6c-0.6-2.6-1.7-5.6-3.2-7.9c-5.6-5.6-16.1-12-28.6-12c-5.6,0-11.4,1.2-17.5,4.4
	c-22.8,12-31,29.5-35.3,38c-1.5,2.6-2.6,5-3.5,7.6c2.3,5.8,5,11.7,7.3,17.5c0.9,2,1.5,3.8,2.3,5.8c4.7,1.2,9.9,2.6,14.9,4.1
	c1.2,0.3,2.6,0.6,3.8,1.2c0.6-0.3,0.9-0.3,1.2-0.3c2-0.9,4.1-1.8,6.1-2.6c-3.2-0.9-6.4-1.7-9.9-2.9c-5.8-1.7-12-3.5-17.2-4.7
	c6.4-28.9,24.3-40.3,24.3-40.3c8.2,12.3,14.9,27.5,14.6,42.1c3.2-1.7,6.7-3.8,9.6-5.8c5-3.5,11.7-9.6,14.6-20.2
	c1.5-4.7,1.2-7.9,0.6-11.4c-0.3-0.6,0-1.5,0.3-2v-0.3c0.3-0.3,0.6-0.3,1.2-0.3c0.3,0,0.6,0,0.9,0.3c0.3,0.3,0.6,1.2,0.6,2
	c0,0.9,0.9,6.4-0.6,12.6c-2.9,10.5-9.3,16.9-15.8,21.6c-5.6,4.1-12,7.6-18.7,10.5c-2.3,1.2-4.7,2-7.3,3.2c-0.9,0.3-1.7,0.6-2.3,1.2
	c0,0-8.5,2.3-7.3,6.1c0.6,1.7,2.9,2.9,6.4,3.2c0.3,0,0.9,0,1.2,0h1.5c0.3,0,0.6,0,0.9,0h0.6c0.3,0,0.6,0,1.2-0.3h0.6
	c0.6,0,1.2-0.3,1.7-0.3c7-2,19.3-6.4,28.6-13.4C471.5,357.5,482.7,347.9,486.4,333.9z"/>
<path d="M489.4,334.8c-4.1,14.9-15.8,25.1-23.9,31c-4.7,3.2-9.9,6.4-16.4,9.1c2.9,1.2,6.4,1.5,9.6,1.5c1.7,0,3.8,0,5.6-0.3
	c7.9-0.6,15.8-2,23.1-4.7c1.7-0.6,2.3-1.8,2.6-3.5c0.9-7.6,1.8-15.8,1.8-24.3v-0.3c0-5.3-0.3-10.2-0.9-15.2
	C490.5,330.4,490,332.7,489.4,334.8z"/>
<path d="M389.8,362.8v-0.6c-0.3-1.2-0.6-2.6-1.2-4.1c-1.2-3.5-2-6.4-3.5-6.4h-0.3c-1.8,0.6-2.3,4.1-1.2,7.9c0.3,0.9,0.6,2,1.2,2.6
	c0.3,0.6,0.6,0.9,0.9,1.5l1.4,1.4l0.6,0.3l0.3,0.3h0.6l0.6-0.6v-0.6c0-0.3,0-0.6,0-0.9L389.8,362.8z"/>
<path d="M423.1,379.7c-3.2,2.3-6.7,5-9.9,7.3c-12.6-3.2-35.9-8.5-48.2-11.1c5.6-2,13.4-5.3,21-8.5c-1.2-0.9-2.3-2-3.2-4.1
	c-13.1,5.6-26.9,10.8-27.2,10.8c-1.2,0.3-1.8,1.5-1.8,2.6c0,1.2,0.9,2,2,2.3c0.3,0,40.3,8.8,57.3,13.1h0.6c0.6,0,0.9-0.3,1.5-0.3
	c5-3.5,10.2-7.3,14.9-10.8l0.6-0.3c-0.6,0-1.2,0-1.7,0C426.6,380.6,424.5,380.3,423.1,379.7z"/>
<path d="M390,329.5c-0.9-2-2.3-2.6-4.1-2.6c-2.9,0-5.8,2.6-4.4,6.1c0.3,0.9,0.6,1.5,0.9,2.3c2.9-0.6,5.8-1.5,8.5-2.6
	C390.9,331.5,390.3,330.7,390,329.5z"/>
<path d="M402.6,359.6c-0.6-1.2-0.9-2.3-1.5-3.5c-0.3-0.3-0.3-0.9-0.6-1.2c-0.9-1.7-1.5-3.8-2.3-5.6c0-0.3-0.3-0.6-0.3-0.9
	c-0.9-1.7-1.5-3.8-2.3-5.6c-1.2-2.6-2-5-3.2-7.6c-2.6,1.2-5.6,2.3-8.5,2.9c3.8,8.8,7.3,17.2,10.8,26c0.6,1.7,1.5,3.5,2,5.3
	c0.3,0.6,0.6,1.2,1.2,1.8c0.9,0.3,2,0.3,2.6,0.3c0.3,0,0.6,0,0.9,0c0.6-0.3,2-1.5,4.4-2.9c0-0.6-0.3-1.2-0.3-1.5
	c-0.6-1.5-1.2-2.6-1.5-4.1C403.5,361.6,402.9,360.5,402.6,359.6z"/>
<path d="M403.2,373.9c-0.9,0-2-0.3-2.9-0.3H400c1.5,1.5,2.9,2.6,3.8,3.2c0.3,0.3,0.6,0.3,0.9,0.3c0.3,0,0.3-0.3,0.6-0.6
	c0.3-0.9,0.3-2.9,0.6-4.7c-0.3,0.3-0.6,0.6-0.9,1.2C404.6,373.6,404.1,373.9,403.2,373.9z"/>
<ellipse transform="matrix(0.9442 -0.3293 0.3293 0.9442 -59.6822 162.1006)" cx="448.6" cy="257.2" rx="21.1" ry="26.4"/>
</svg>
