<?xml version="1.0" encoding="utf-8"?>
<!-- Generator: Adobe Illustrator 17.1.0, SVG Export Plug-In . SVG Version: 6.00 Build 0)  -->
<!DOCTYPE svg PUBLIC "-//W3C//DTD SVG 1.1//EN" "http://www.w3.org/Graphics/SVG/1.1/DTD/svg11.dtd">
<svg version="1.1" id="Layer_1" xmlns="http://www.w3.org/2000/svg" xmlns:xlink="http://www.w3.org/1999/xlink" x="0px" y="0px"
	 viewBox="0 0 775 445" style="enable-background:new 0 0 775 445;" xml:space="preserve">
<line style="fill:none;stroke:#000000;stroke-miterlimit:10;" x1="372.5" y1="101" x2="372.5" y2="217"/>
<g>
	<path d="M148.5,225.5c0.8-0.1,1.9-0.2,3-0.2c2,0,3.4,0.5,4.4,1.3c1,0.9,1.5,2.1,1.5,3.9c0,1.8-0.5,3.2-1.6,4.2
		c-1,1-2.7,1.6-4.8,1.6c-1,0-1.8,0-2.5-0.1V225.5z M149.9,235c0.4,0.1,0.9,0.1,1.4,0.1c3,0,4.6-1.7,4.6-4.6c0-2.5-1.4-4.2-4.4-4.2
		c-0.7,0-1.3,0.1-1.6,0.1V235z"/>
	<path d="M160.6,225.4v10.8h-1.4v-10.8H160.6z"/>
	<path d="M165.1,226.5h-3.3v-1.2h8v1.2h-3.3v9.6h-1.4V226.5z"/>
	<path d="M171.5,232.8l-1.1,3.4H169l3.7-10.8h1.7l3.7,10.8h-1.5l-1.2-3.4H171.5z M175.1,231.7l-1.1-3.1c-0.2-0.7-0.4-1.3-0.6-2h0
		c-0.2,0.6-0.3,1.3-0.5,2l-1.1,3.1H175.1z"/>
	<path d="M183.5,228.4l1,3.9c0.2,0.9,0.4,1.7,0.6,2.5h0c0.2-0.8,0.4-1.6,0.7-2.4l1.3-4h1.2l1.2,3.9c0.3,0.9,0.5,1.7,0.7,2.5h0
		c0.1-0.8,0.3-1.6,0.6-2.5l1.1-3.9h1.4l-2.5,7.7h-1.3l-1.2-3.7c-0.3-0.9-0.5-1.6-0.7-2.5h0c-0.2,0.9-0.4,1.7-0.7,2.6l-1.2,3.7h-1.3
		l-2.3-7.7H183.5z"/>
	<path d="M196.3,226.2c0,0.5-0.3,0.9-0.9,0.9c-0.5,0-0.8-0.4-0.8-0.9c0-0.5,0.4-0.9,0.9-0.9C195.9,225.3,196.3,225.7,196.3,226.2z
		 M194.7,236.2v-7.7h1.4v7.7H194.7z"/>
	<path d="M200.1,226.2v2.2h2v1.1h-2v4.2c0,1,0.3,1.5,1.1,1.5c0.4,0,0.6,0,0.8-0.1l0.1,1.1c-0.3,0.1-0.7,0.2-1.2,0.2
		c-0.7,0-1.2-0.2-1.5-0.6c-0.4-0.4-0.5-1.1-0.5-2v-4.2h-1.2v-1.1h1.2v-1.9L200.1,226.2z"/>
	<path d="M203.7,224.8h1.4v4.8h0c0.2-0.4,0.6-0.8,1-1c0.4-0.2,0.9-0.4,1.4-0.4c1,0,2.7,0.6,2.7,3.3v4.6h-1.4v-4.4
		c0-1.2-0.5-2.3-1.8-2.3c-0.9,0-1.6,0.6-1.9,1.4c-0.1,0.2-0.1,0.4-0.1,0.7v4.7h-1.4V224.8z"/>
	<path d="M157.8,249.8c0,3.7-2.3,5.7-5,5.7c-2.8,0-4.8-2.2-4.8-5.5c0-3.4,2.1-5.7,5-5.7C155.9,244.4,157.8,246.6,157.8,249.8z
		 M149.4,250c0,2.3,1.2,4.4,3.4,4.4c2.2,0,3.5-2,3.5-4.5c0-2.1-1.1-4.4-3.4-4.4C150.6,245.5,149.4,247.7,149.4,250z"/>
	<path d="M160.1,247.6l1.1,1.7c0.3,0.4,0.5,0.8,0.8,1.3h0c0.3-0.5,0.5-0.9,0.8-1.3l1.1-1.6h1.5l-2.6,3.7l2.7,4h-1.6l-1.1-1.7
		c-0.3-0.4-0.6-0.9-0.8-1.3h0c-0.3,0.5-0.5,0.9-0.8,1.3l-1.1,1.7h-1.6l2.8-4l-2.6-3.8H160.1z"/>
	<path d="M167.6,247.6l1.7,4.6c0.2,0.5,0.4,1.1,0.5,1.6h0c0.1-0.5,0.3-1.1,0.5-1.6l1.5-4.5h1.5l-2.1,5.5c-1,2.7-1.7,4-2.7,4.9
		c-0.7,0.6-1.4,0.8-1.7,0.9l-0.4-1.2c0.4-0.1,0.8-0.3,1.2-0.7c0.4-0.3,0.9-0.8,1.2-1.6c0.1-0.1,0.1-0.3,0.1-0.3s0-0.2-0.1-0.4
		l-2.9-7.1H167.6z"/>
	<path d="M181.1,247.6c0,0.6-0.1,1.2-0.1,2.1v4.5c0,1.8-0.4,2.9-1.1,3.5c-0.8,0.7-1.8,0.9-2.8,0.9c-0.9,0-2-0.2-2.6-0.6l0.4-1.1
		c0.5,0.3,1.3,0.6,2.3,0.6c1.4,0,2.5-0.8,2.5-2.7V254h0c-0.4,0.7-1.3,1.3-2.5,1.3c-1.9,0-3.3-1.6-3.3-3.8c0-2.6,1.7-4.1,3.5-4.1
		c1.3,0,2.1,0.7,2.4,1.3h0l0.1-1.2H181.1z M179.7,250.7c0-0.2,0-0.4-0.1-0.6c-0.3-0.8-0.9-1.5-2-1.5c-1.3,0-2.3,1.1-2.3,2.9
		c0,1.5,0.8,2.8,2.3,2.8c0.9,0,1.6-0.5,2-1.4c0.1-0.2,0.1-0.5,0.1-0.8V250.7z"/>
	<path d="M184.2,251.7c0,1.9,1.2,2.7,2.7,2.7c1,0,1.6-0.2,2.1-0.4l0.2,1c-0.5,0.2-1.3,0.5-2.6,0.5c-2.4,0-3.8-1.6-3.8-3.9
		s1.4-4.2,3.6-4.2c2.5,0,3.2,2.2,3.2,3.6c0,0.3,0,0.5,0,0.7H184.2z M188.3,250.7c0-0.9-0.4-2.3-2-2.3c-1.4,0-2,1.3-2.2,2.3H188.3z"
		/>
	<path d="M191.4,249.7c0-0.8,0-1.5-0.1-2.1h1.2l0.1,1.3h0c0.4-0.7,1.3-1.5,2.6-1.5c1.1,0,2.7,0.6,2.7,3.3v4.6h-1.4v-4.5
		c0-1.2-0.5-2.3-1.8-2.3c-0.9,0-1.6,0.7-1.9,1.4c-0.1,0.2-0.1,0.4-0.1,0.7v4.7h-1.4V249.7z"/>
	<path d="M209.7,255.4l-1.4-2.4c-0.6-0.9-0.9-1.5-1.2-2.1h0c-0.3,0.6-0.6,1.2-1.2,2.1l-1.3,2.4h-1.6l3.3-5.5l-3.2-5.3h1.6l1.4,2.5
		c0.4,0.7,0.7,1.2,1,1.8h0c0.3-0.6,0.6-1.1,1-1.8l1.5-2.5h1.6l-3.3,5.3l3.4,5.5H209.7z"/>
	<path d="M222,250.6c-0.1-1.5-0.2-3.3-0.2-4.7h0c-0.4,1.3-0.8,2.6-1.4,4.1l-1.9,5.2h-1.1l-1.7-5.1c-0.5-1.5-0.9-2.9-1.2-4.2h0
		c0,1.3-0.1,3.2-0.2,4.8l-0.3,4.6h-1.3l0.8-10.8h1.8l1.8,5.2c0.4,1.3,0.8,2.5,1.1,3.6h0c0.3-1.1,0.7-2.3,1.1-3.6l1.9-5.2h1.8
		l0.7,10.8h-1.4L222,250.6z"/>
	<path d="M225.7,244.6h1.4v9.6h4.6v1.2h-6V244.6z"/>
</g>
<g>
	<path d="M342.7,236.2l-2.7-10.8h1.5l1.3,5.5c0.3,1.3,0.6,2.7,0.8,3.7h0c0.2-1.1,0.5-2.4,0.9-3.7l1.4-5.4h1.5l1.3,5.5
		c0.3,1.3,0.6,2.6,0.8,3.7h0c0.2-1.2,0.5-2.4,0.9-3.7l1.4-5.4h1.4l-3.1,10.8h-1.5l-1.4-5.6c-0.3-1.4-0.6-2.4-0.7-3.5h0
		c-0.2,1.1-0.4,2.1-0.8,3.5l-1.5,5.6H342.7z"/>
	<path d="M360.9,232.2c0,2.9-2,4.1-3.9,4.1c-2.1,0-3.7-1.5-3.7-4c0-2.6,1.7-4.1,3.8-4.1C359.4,228.2,360.9,229.8,360.9,232.2z
		 M354.8,232.3c0,1.7,1,3,2.4,3c1.3,0,2.4-1.3,2.4-3c0-1.3-0.7-3-2.3-3C355.5,229.3,354.8,230.8,354.8,232.3z"/>
	<path d="M362.7,230.8c0-0.9,0-1.7-0.1-2.4h1.2l0,1.5h0.1c0.4-1,1.2-1.7,2.1-1.7c0.2,0,0.3,0,0.4,0v1.3c-0.1,0-0.3,0-0.5,0
		c-1,0-1.7,0.8-1.9,1.8c0,0.2-0.1,0.4-0.1,0.7v4.1h-1.4V230.8z"/>
	<path d="M374.5,224.8v9.4c0,0.7,0,1.5,0.1,2h-1.3l-0.1-1.3h0c-0.4,0.9-1.4,1.5-2.6,1.5c-1.9,0-3.3-1.6-3.3-3.9
		c0-2.6,1.6-4.2,3.5-4.2c1.2,0,2,0.6,2.3,1.2h0v-4.6H374.5z M373.1,231.6c0-0.2,0-0.4-0.1-0.6c-0.2-0.9-1-1.6-2-1.6
		c-1.5,0-2.3,1.3-2.3,3c0,1.6,0.8,2.9,2.3,2.9c0.9,0,1.8-0.6,2.1-1.7c0-0.2,0.1-0.4,0.1-0.6V231.6z"/>
	<path d="M376.9,225.5c0.7-0.1,1.6-0.2,2.7-0.2c1.4,0,2.4,0.3,3,0.9c0.6,0.5,0.9,1.3,0.9,2.3c0,1-0.3,1.7-0.8,2.3
		c-0.7,0.8-1.9,1.2-3.3,1.2c-0.4,0-0.8,0-1.1-0.1v4.3h-1.4V225.5z M378.2,230.7c0.3,0.1,0.7,0.1,1.2,0.1c1.7,0,2.7-0.8,2.7-2.3
		c0-1.4-1-2.1-2.5-2.1c-0.6,0-1.1,0-1.3,0.1V230.7z"/>
	<path d="M385.1,230.8c0-0.9,0-1.7-0.1-2.4h1.2l0,1.5h0.1c0.4-1,1.2-1.7,2.1-1.7c0.2,0,0.3,0,0.4,0v1.3c-0.1,0-0.3,0-0.5,0
		c-1,0-1.7,0.8-1.9,1.8c0,0.2-0.1,0.4-0.1,0.7v4.1h-1.4V230.8z"/>
	<path d="M390.9,232.5c0,1.9,1.2,2.7,2.7,2.7c1,0,1.6-0.2,2.1-0.4l0.2,1c-0.5,0.2-1.3,0.5-2.6,0.5c-2.4,0-3.8-1.6-3.8-3.9
		s1.4-4.2,3.6-4.2c2.5,0,3.2,2.2,3.2,3.6c0,0.3,0,0.5,0,0.7H390.9z M395,231.5c0-0.9-0.4-2.3-2-2.3c-1.4,0-2,1.3-2.2,2.3H395z"/>
	<path d="M398,234.7c0.4,0.3,1.2,0.6,1.9,0.6c1,0,1.5-0.5,1.5-1.2c0-0.7-0.4-1-1.4-1.4c-1.4-0.5-2-1.3-2-2.2c0-1.2,1-2.3,2.7-2.3
		c0.8,0,1.5,0.2,1.9,0.5l-0.4,1c-0.3-0.2-0.9-0.4-1.6-0.4c-0.8,0-1.3,0.5-1.3,1.1c0,0.6,0.5,0.9,1.5,1.3c1.3,0.5,2,1.2,2,2.3
		c0,1.4-1.1,2.3-2.9,2.3c-0.8,0-1.6-0.2-2.2-0.5L398,234.7z"/>
	<path d="M404.3,234.7c0.4,0.3,1.2,0.6,1.9,0.6c1,0,1.5-0.5,1.5-1.2c0-0.7-0.4-1-1.4-1.4c-1.4-0.5-2-1.3-2-2.2c0-1.2,1-2.3,2.7-2.3
		c0.8,0,1.5,0.2,1.9,0.5l-0.4,1c-0.3-0.2-0.9-0.4-1.6-0.4c-0.8,0-1.3,0.5-1.3,1.1c0,0.6,0.5,0.9,1.5,1.3c1.3,0.5,2,1.2,2,2.3
		c0,1.4-1.1,2.3-2.9,2.3c-0.8,0-1.6-0.2-2.2-0.5L404.3,234.7z"/>
	<path d="M350.1,250.6c-0.1-1.5-0.2-3.3-0.2-4.7h0c-0.4,1.3-0.8,2.6-1.4,4.1l-1.9,5.2h-1.1l-1.7-5.1c-0.5-1.5-0.9-2.9-1.2-4.2h0
		c0,1.3-0.1,3.2-0.2,4.8l-0.3,4.6h-1.3l0.8-10.8h1.8l1.8,5.2c0.4,1.3,0.8,2.5,1.1,3.6h0c0.3-1.1,0.7-2.3,1.1-3.6l1.9-5.2h1.8
		l0.7,10.8h-1.4L350.1,250.6z"/>
	<path d="M360.3,253.2c0,0.8,0,1.5,0.1,2.1h-1.2l-0.1-1.3h0c-0.4,0.6-1.2,1.4-2.6,1.4c-1.2,0-2.7-0.7-2.7-3.4v-4.5h1.4v4.3
		c0,1.5,0.4,2.5,1.7,2.5c0.9,0,1.6-0.7,1.9-1.3c0.1-0.2,0.1-0.5,0.1-0.7v-4.8h1.4V253.2z"/>
	<path d="M362.6,244h1.4v11.4h-1.4V244z"/>
	<path d="M368.1,245.4v2.2h2v1.1h-2v4.2c0,1,0.3,1.5,1.1,1.5c0.4,0,0.6,0,0.8-0.1l0.1,1.1c-0.3,0.1-0.7,0.2-1.2,0.2
		c-0.7,0-1.2-0.2-1.5-0.6c-0.4-0.4-0.5-1.1-0.5-2v-4.2h-1.2v-1.1h1.2v-1.9L368.1,245.4z"/>
	<path d="M373.3,245.4c0,0.5-0.3,0.9-0.9,0.9c-0.5,0-0.8-0.4-0.8-0.9c0-0.5,0.4-0.9,0.9-0.9C373,244.5,373.3,244.9,373.3,245.4z
		 M371.7,255.4v-7.7h1.4v7.7H371.7z"/>
	<path d="M375.3,253.9c0.4,0.3,1.2,0.6,1.9,0.6c1,0,1.5-0.5,1.5-1.2c0-0.7-0.4-1-1.4-1.4c-1.4-0.5-2-1.3-2-2.2c0-1.2,1-2.3,2.7-2.3
		c0.8,0,1.5,0.2,1.9,0.5l-0.4,1c-0.3-0.2-0.9-0.4-1.6-0.4c-0.8,0-1.3,0.5-1.3,1.1c0,0.6,0.5,0.9,1.5,1.3c1.3,0.5,2,1.2,2,2.3
		c0,1.4-1.1,2.3-2.9,2.3c-0.8,0-1.6-0.2-2.2-0.5L375.3,253.9z"/>
	<path d="M383.4,245.4c0,0.5-0.3,0.9-0.9,0.9c-0.5,0-0.8-0.4-0.8-0.9c0-0.5,0.4-0.9,0.9-0.9C383,244.5,383.4,244.9,383.4,245.4z
		 M381.8,255.4v-7.7h1.4v7.7H381.8z"/>
	<path d="M387.2,245.4v2.2h2v1.1h-2v4.2c0,1,0.3,1.5,1.1,1.5c0.4,0,0.6,0,0.8-0.1l0.1,1.1c-0.3,0.1-0.7,0.2-1.2,0.2
		c-0.7,0-1.2-0.2-1.5-0.6c-0.4-0.4-0.5-1.1-0.5-2v-4.2h-1.2v-1.1h1.2v-1.9L387.2,245.4z"/>
	<path d="M391.5,251.7c0,1.9,1.2,2.7,2.7,2.7c1,0,1.6-0.2,2.1-0.4l0.2,1c-0.5,0.2-1.3,0.5-2.6,0.5c-2.4,0-3.8-1.6-3.8-3.9
		s1.4-4.2,3.6-4.2c2.5,0,3.2,2.2,3.2,3.6c0,0.3,0,0.5,0,0.7H391.5z M395.7,250.7c0-0.9-0.4-2.3-2-2.3c-1.4,0-2,1.3-2.2,2.3H395.7z"
		/>
</g>
<line style="fill:none;stroke:#000000;stroke-miterlimit:10;" x1="311.8" y1="91.8" x2="196.1" y2="211"/>
<path style="fill:none;stroke:#000000;stroke-miterlimit:10;" d="M421.5,71.5c0,6.6-5.4,12-12,12h-73c-6.6,0-12-5.4-12-12v-22
	c0-6.6,5.4-12,12-12h73c6.6,0,12,5.4,12,12V71.5z"/>
<g>
	<path d="M366.3,62.6c-0.1-1.5-0.2-3.3-0.2-4.7h0c-0.4,1.3-0.8,2.6-1.4,4.1l-1.9,5.2h-1.1l-1.7-5.1c-0.5-1.5-0.9-2.9-1.2-4.2h0
		c0,1.3-0.1,3.2-0.2,4.8l-0.3,4.6H357l0.8-10.8h1.8l1.8,5.2c0.4,1.3,0.8,2.5,1.1,3.6h0c0.3-1.1,0.7-2.3,1.1-3.6l1.9-5.2h1.8
		l0.7,10.8h-1.4L366.3,62.6z"/>
	<path d="M374.5,67.3l-0.1-1h0c-0.4,0.6-1.3,1.2-2.4,1.2c-1.6,0-2.4-1.1-2.4-2.2c0-1.9,1.7-2.9,4.7-2.9v-0.2c0-0.6-0.2-1.8-1.8-1.8
		c-0.7,0-1.5,0.2-2,0.6l-0.3-0.9c0.6-0.4,1.6-0.7,2.5-0.7c2.4,0,2.9,1.6,2.9,3.2v2.9c0,0.7,0,1.3,0.1,1.9H374.5z M374.2,63.3
		c-1.5,0-3.3,0.2-3.3,1.7c0,0.9,0.6,1.3,1.3,1.3c1,0,1.7-0.6,1.9-1.3c0-0.1,0.1-0.3,0.1-0.4V63.3z"/>
	<path d="M383.4,67c-0.4,0.2-1.2,0.4-2.2,0.4c-2.3,0-3.9-1.6-3.9-4c0-2.4,1.6-4.1,4.2-4.1c0.8,0,1.6,0.2,2,0.4l-0.3,1.1
		c-0.3-0.2-0.9-0.4-1.6-0.4c-1.8,0-2.7,1.3-2.7,2.9c0,1.8,1.2,2.9,2.7,2.9c0.8,0,1.3-0.2,1.7-0.4L383.4,67z"/>
</g>
<g>
	<path style="fill:#F90606;" d="M150.2,341.4v2.2h2v1.1h-2v4.2c0,1,0.3,1.5,1.1,1.5c0.4,0,0.6,0,0.8-0.1l0.1,1.1
		c-0.3,0.1-0.7,0.2-1.2,0.2c-0.7,0-1.2-0.2-1.5-0.6c-0.4-0.4-0.5-1.1-0.5-2v-4.2h-1.2v-1.1h1.2v-1.9L150.2,341.4z"/>
	<path style="fill:#F90606;" d="M160.7,347.5c0,2.9-2,4.1-3.9,4.1c-2.1,0-3.7-1.5-3.7-4c0-2.6,1.7-4.1,3.8-4.1
		C159.2,343.5,160.7,345.1,160.7,347.5z M154.6,347.5c0,1.7,1,3,2.4,3c1.3,0,2.4-1.3,2.4-3c0-1.3-0.7-3-2.3-3
		C155.3,344.5,154.6,346.1,154.6,347.5z"/>
	<path style="fill:#F90606;" d="M169.5,347.5c0,2.9-2,4.1-3.9,4.1c-2.1,0-3.7-1.5-3.7-4c0-2.6,1.7-4.1,3.8-4.1
		C168,343.5,169.5,345.1,169.5,347.5z M163.3,347.5c0,1.7,1,3,2.4,3c1.3,0,2.4-1.3,2.4-3c0-1.3-0.7-3-2.3-3
		C164.1,344.5,163.3,346.1,163.3,347.5z"/>
	<path style="fill:#F90606;" d="M174.7,346.1c0-0.9,0-1.7-0.1-2.4h1.2l0,1.5h0.1c0.4-1,1.2-1.7,2.1-1.7c0.2,0,0.3,0,0.4,0v1.3
		c-0.1,0-0.3,0-0.5,0c-1,0-1.7,0.8-1.9,1.8c0,0.2-0.1,0.4-0.1,0.7v4.1h-1.4V346.1z"/>
	<path style="fill:#F90606;" d="M180.5,347.8c0,1.9,1.2,2.7,2.7,2.7c1,0,1.6-0.2,2.1-0.4l0.2,1c-0.5,0.2-1.3,0.5-2.6,0.5
		c-2.4,0-3.8-1.6-3.8-3.9s1.4-4.2,3.6-4.2c2.5,0,3.2,2.2,3.2,3.6c0,0.3,0,0.5,0,0.7H180.5z M184.6,346.8c0-0.9-0.4-2.3-2-2.3
		c-1.4,0-2,1.3-2.2,2.3H184.6z"/>
	<path style="fill:#F90606;" d="M187.6,350c0.4,0.3,1.2,0.6,1.9,0.6c1,0,1.5-0.5,1.5-1.2c0-0.7-0.4-1-1.4-1.4c-1.4-0.5-2-1.3-2-2.2
		c0-1.2,1-2.3,2.7-2.3c0.8,0,1.5,0.2,1.9,0.5l-0.4,1c-0.3-0.2-0.9-0.4-1.6-0.4c-0.8,0-1.3,0.5-1.3,1.1c0,0.6,0.5,0.9,1.5,1.3
		c1.3,0.5,2,1.2,2,2.3c0,1.4-1.1,2.3-2.9,2.3c-0.8,0-1.6-0.2-2.2-0.5L187.6,350z"/>
	<path style="fill:#F90606;" d="M195.8,341.4v2.2h2v1.1h-2v4.2c0,1,0.3,1.5,1.1,1.5c0.4,0,0.6,0,0.8-0.1l0.1,1.1
		c-0.3,0.1-0.7,0.2-1.2,0.2c-0.7,0-1.2-0.2-1.5-0.6c-0.4-0.4-0.5-1.1-0.5-2v-4.2h-1.2v-1.1h1.2v-1.9L195.8,341.4z"/>
	<path style="fill:#F90606;" d="M199.4,346.1c0-0.9,0-1.7-0.1-2.4h1.2l0,1.5h0.1c0.4-1,1.2-1.7,2.1-1.7c0.2,0,0.3,0,0.4,0v1.3
		c-0.1,0-0.3,0-0.5,0c-1,0-1.7,0.8-1.9,1.8c0,0.2-0.1,0.4-0.1,0.7v4.1h-1.4V346.1z"/>
	<path style="fill:#F90606;" d="M206.2,341.5c0,0.5-0.3,0.9-0.9,0.9c-0.5,0-0.8-0.4-0.8-0.9c0-0.5,0.4-0.9,0.9-0.9
		C205.9,340.6,206.2,341,206.2,341.5z M204.7,351.4v-7.7h1.4v7.7H204.7z"/>
	<path style="fill:#F90606;" d="M213.9,351.1c-0.4,0.2-1.2,0.4-2.2,0.4c-2.3,0-3.9-1.6-3.9-4c0-2.4,1.6-4.1,4.2-4.1
		c0.8,0,1.6,0.2,2,0.4l-0.3,1.1c-0.3-0.2-0.9-0.4-1.6-0.4c-1.8,0-2.7,1.3-2.7,2.9c0,1.8,1.2,2.9,2.7,2.9c0.8,0,1.3-0.2,1.7-0.4
		L213.9,351.1z"/>
	<path style="fill:#F90606;" d="M217.5,341.4v2.2h2v1.1h-2v4.2c0,1,0.3,1.5,1.1,1.5c0.4,0,0.6,0,0.8-0.1l0.1,1.1
		c-0.3,0.1-0.7,0.2-1.2,0.2c-0.7,0-1.2-0.2-1.5-0.6c-0.4-0.4-0.5-1.1-0.5-2v-4.2h-1.2v-1.1h1.2v-1.9L217.5,341.4z"/>
	<path style="fill:#F90606;" d="M222.7,341.5c0,0.5-0.3,0.9-0.9,0.9c-0.5,0-0.8-0.4-0.8-0.9c0-0.5,0.4-0.9,0.9-0.9
		C222.3,340.6,222.7,341,222.7,341.5z M221.1,351.4v-7.7h1.4v7.7H221.1z"/>
	<path style="fill:#F90606;" d="M225.4,343.7l1.5,4.4c0.3,0.7,0.5,1.3,0.6,2h0c0.2-0.6,0.4-1.3,0.7-2l1.5-4.4h1.5l-3,7.7h-1.3
		l-2.9-7.7H225.4z"/>
	<path style="fill:#F90606;" d="M233.2,347.8c0,1.9,1.2,2.7,2.7,2.7c1,0,1.6-0.2,2.1-0.4l0.2,1c-0.5,0.2-1.3,0.5-2.6,0.5
		c-2.4,0-3.8-1.6-3.8-3.9s1.4-4.2,3.6-4.2c2.5,0,3.2,2.2,3.2,3.6c0,0.3,0,0.5,0,0.7H233.2z M237.3,346.8c0-0.9-0.4-2.3-2-2.3
		c-1.4,0-2,1.3-2.2,2.3H237.3z"/>
</g>
<g>
	<path style="fill:#F90606;" d="M350,336.6v2.2h2v1.1h-2v4.2c0,1,0.3,1.5,1.1,1.5c0.4,0,0.6,0,0.8-0.1l0.1,1.1
		c-0.3,0.1-0.7,0.2-1.2,0.2c-0.7,0-1.2-0.2-1.5-0.6c-0.4-0.4-0.5-1.1-0.5-2v-4.2h-1.2v-1.1h1.2V337L350,336.6z"/>
	<path style="fill:#F90606;" d="M360.6,342.7c0,2.9-2,4.1-3.9,4.1c-2.1,0-3.7-1.5-3.7-4c0-2.6,1.7-4.1,3.8-4.1
		C359.1,338.7,360.6,340.3,360.6,342.7z M354.4,342.7c0,1.7,1,3,2.4,3c1.3,0,2.4-1.3,2.4-3c0-1.3-0.7-3-2.3-3
		C355.1,339.7,354.4,341.3,354.4,342.7z"/>
	<path style="fill:#F90606;" d="M369.3,342.7c0,2.9-2,4.1-3.9,4.1c-2.1,0-3.7-1.5-3.7-4c0-2.6,1.7-4.1,3.8-4.1
		C367.8,338.7,369.3,340.3,369.3,342.7z M363.2,342.7c0,1.7,1,3,2.4,3c1.3,0,2.4-1.3,2.4-3c0-1.3-0.7-3-2.3-3
		C363.9,339.7,363.2,341.3,363.2,342.7z"/>
	<path style="fill:#F90606;" d="M374.5,340.9c0-0.8,0-1.5-0.1-2.1h1.2l0.1,1.2h0c0.4-0.7,1.2-1.4,2.4-1.4c1.1,0,1.9,0.6,2.2,1.6h0
		c0.2-0.4,0.5-0.8,0.9-1c0.5-0.4,1-0.5,1.7-0.5c1,0,2.5,0.7,2.5,3.4v4.6h-1.4v-4.4c0-1.5-0.5-2.4-1.7-2.4c-0.8,0-1.4,0.6-1.7,1.3
		c-0.1,0.2-0.1,0.4-0.1,0.7v4.8h-1.4V342c0-1.2-0.5-2.1-1.6-2.1c-0.9,0-1.5,0.7-1.7,1.4c-0.1,0.2-0.1,0.4-0.1,0.7v4.7h-1.4V340.9z"
		/>
	<path style="fill:#F90606;" d="M394.3,344.5c0,0.8,0,1.5,0.1,2.1h-1.2l-0.1-1.3h0c-0.4,0.6-1.2,1.4-2.6,1.4c-1.2,0-2.7-0.7-2.7-3.4
		v-4.5h1.4v4.3c0,1.5,0.4,2.5,1.7,2.5c0.9,0,1.6-0.7,1.9-1.3c0.1-0.2,0.1-0.5,0.1-0.7v-4.8h1.4V344.5z"/>
	<path style="fill:#F90606;" d="M402.2,346.3c-0.4,0.2-1.2,0.4-2.2,0.4c-2.3,0-3.9-1.6-3.9-4c0-2.4,1.6-4.1,4.2-4.1
		c0.8,0,1.6,0.2,2,0.4l-0.3,1.1c-0.3-0.2-0.9-0.4-1.6-0.4c-1.8,0-2.7,1.3-2.7,2.9c0,1.8,1.2,2.9,2.7,2.9c0.8,0,1.3-0.2,1.7-0.4
		L402.2,346.3z"/>
	<path style="fill:#F90606;" d="M403.8,335.2h1.4v4.8h0c0.2-0.4,0.6-0.8,1-1c0.4-0.2,0.9-0.4,1.4-0.4c1,0,2.7,0.6,2.7,3.3v4.6H409
		v-4.4c0-1.2-0.5-2.3-1.8-2.3c-0.9,0-1.6,0.6-1.9,1.4c-0.1,0.2-0.1,0.4-0.1,0.7v4.7h-1.4V335.2z"/>
	<path style="fill:#F90606;" d="M349.9,355.9c0,0.5-0.3,0.9-0.9,0.9c-0.5,0-0.8-0.4-0.8-0.9c0-0.5,0.4-0.9,0.9-0.9
		C349.6,355,349.9,355.4,349.9,355.9z M348.3,365.8V358h1.4v7.7H348.3z"/>
	<path style="fill:#F90606;" d="M352.1,360.1c0-0.8,0-1.5-0.1-2.1h1.2l0.1,1.3h0c0.4-0.7,1.3-1.5,2.6-1.5c1.1,0,2.7,0.6,2.7,3.3v4.6
		h-1.4v-4.5c0-1.2-0.5-2.3-1.8-2.3c-0.9,0-1.6,0.7-1.9,1.4c-0.1,0.2-0.1,0.4-0.1,0.7v4.7h-1.4V360.1z"/>
	<path style="fill:#F90606;" d="M361.1,365.8v-6.7H360V358h1.1v-0.4c0-1.1,0.2-2.1,0.9-2.7c0.5-0.5,1.2-0.7,1.9-0.7
		c0.5,0,0.9,0.1,1.2,0.2l-0.2,1.1c-0.2-0.1-0.5-0.2-0.9-0.2c-1.2,0-1.5,1.1-1.5,2.2v0.4h1.9v1.1h-1.9v6.7H361.1z"/>
	<path style="fill:#F90606;" d="M365.6,360.5c0-0.9,0-1.7-0.1-2.4h1.2l0,1.5h0.1c0.4-1,1.2-1.7,2.1-1.7c0.2,0,0.3,0,0.4,0v1.3
		c-0.1,0-0.3,0-0.5,0c-1,0-1.7,0.8-1.9,1.8c0,0.2-0.1,0.4-0.1,0.7v4.1h-1.4V360.5z"/>
	<path style="fill:#F90606;" d="M375.1,365.8l-0.1-1h0c-0.4,0.6-1.3,1.2-2.4,1.2c-1.6,0-2.4-1.1-2.4-2.2c0-1.9,1.7-2.9,4.7-2.9v-0.2
		c0-0.6-0.2-1.8-1.8-1.8c-0.7,0-1.5,0.2-2,0.6l-0.3-0.9c0.6-0.4,1.6-0.7,2.5-0.7c2.4,0,2.9,1.6,2.9,3.2v2.9c0,0.7,0,1.3,0.1,1.9
		H375.1z M374.9,361.8c-1.5,0-3.3,0.2-3.3,1.7c0,0.9,0.6,1.3,1.3,1.3c1,0,1.6-0.6,1.9-1.3c0-0.1,0.1-0.3,0.1-0.4V361.8z"/>
	<path style="fill:#F90606;" d="M378.3,364.4c0.4,0.3,1.2,0.6,1.9,0.6c1,0,1.5-0.5,1.5-1.2c0-0.7-0.4-1-1.4-1.4
		c-1.4-0.5-2-1.3-2-2.2c0-1.2,1-2.3,2.7-2.3c0.8,0,1.5,0.2,1.9,0.5l-0.4,1c-0.3-0.2-0.9-0.4-1.6-0.4c-0.8,0-1.3,0.5-1.3,1.1
		c0,0.6,0.5,0.9,1.5,1.3c1.3,0.5,2,1.2,2,2.3c0,1.4-1.1,2.3-2.9,2.3c-0.8,0-1.6-0.2-2.2-0.5L378.3,364.4z"/>
	<path style="fill:#F90606;" d="M386.5,355.8v2.2h2v1.1h-2v4.2c0,1,0.3,1.5,1.1,1.5c0.4,0,0.6,0,0.8-0.1l0.1,1.1
		c-0.3,0.1-0.7,0.2-1.2,0.2c-0.7,0-1.2-0.2-1.5-0.6c-0.4-0.4-0.5-1.1-0.5-2v-4.2H384V358h1.2v-1.9L386.5,355.8z"/>
	<path style="fill:#F90606;" d="M390.1,360.5c0-0.9,0-1.7-0.1-2.4h1.2l0,1.5h0.1c0.4-1,1.2-1.7,2.1-1.7c0.2,0,0.3,0,0.4,0v1.3
		c-0.1,0-0.3,0-0.5,0c-1,0-1.7,0.8-1.9,1.8c0,0.2-0.1,0.4-0.1,0.7v4.1h-1.4V360.5z"/>
	<path style="fill:#F90606;" d="M401.9,363.7c0,0.8,0,1.5,0.1,2.1h-1.2l-0.1-1.3h0c-0.4,0.6-1.2,1.4-2.6,1.4c-1.2,0-2.7-0.7-2.7-3.4
		V358h1.4v4.3c0,1.5,0.4,2.5,1.7,2.5c0.9,0,1.6-0.7,1.9-1.3c0.1-0.2,0.1-0.5,0.1-0.7V358h1.4V363.7z"/>
	<path style="fill:#F90606;" d="M409.7,365.5c-0.4,0.2-1.2,0.4-2.2,0.4c-2.3,0-3.9-1.6-3.9-4c0-2.4,1.6-4.1,4.2-4.1
		c0.8,0,1.6,0.2,2,0.4l-0.3,1.1c-0.3-0.2-0.9-0.4-1.6-0.4c-1.8,0-2.7,1.3-2.7,2.9c0,1.8,1.2,2.9,2.7,2.9c0.8,0,1.3-0.2,1.7-0.4
		L409.7,365.5z"/>
	<path style="fill:#F90606;" d="M413.3,355.8v2.2h2v1.1h-2v4.2c0,1,0.3,1.5,1.1,1.5c0.4,0,0.6,0,0.8-0.1l0.1,1.1
		c-0.3,0.1-0.7,0.2-1.2,0.2c-0.7,0-1.2-0.2-1.5-0.6c-0.4-0.4-0.5-1.1-0.5-2v-4.2h-1.2V358h1.2v-1.9L413.3,355.8z"/>
	<path style="fill:#F90606;" d="M423.3,363.7c0,0.8,0,1.5,0.1,2.1h-1.2l-0.1-1.3h0c-0.4,0.6-1.2,1.4-2.6,1.4c-1.2,0-2.7-0.7-2.7-3.4
		V358h1.4v4.3c0,1.5,0.4,2.5,1.7,2.5c0.9,0,1.6-0.7,1.9-1.3c0.1-0.2,0.1-0.5,0.1-0.7V358h1.4V363.7z"/>
	<path style="fill:#F90606;" d="M425.7,360.5c0-0.9,0-1.7-0.1-2.4h1.2l0,1.5h0.1c0.4-1,1.2-1.7,2.1-1.7c0.2,0,0.3,0,0.4,0v1.3
		c-0.1,0-0.3,0-0.5,0c-1,0-1.7,0.8-1.9,1.8c0,0.2-0.1,0.4-0.1,0.7v4.1h-1.4V360.5z"/>
	<path style="fill:#F90606;" d="M431.5,362.2c0,1.9,1.2,2.7,2.7,2.7c1,0,1.6-0.2,2.1-0.4l0.2,1c-0.5,0.2-1.3,0.5-2.6,0.5
		c-2.4,0-3.8-1.6-3.8-3.9s1.4-4.2,3.6-4.2c2.5,0,3.2,2.2,3.2,3.6c0,0.3,0,0.5,0,0.7H431.5z M435.7,361.2c0-0.9-0.4-2.3-2-2.3
		c-1.4,0-2,1.3-2.2,2.3H435.7z"/>
</g>
<line style="fill:none;" x1="437.7" y1="63.6" x2="679.9" y2="164.8"/>
<g>
	<path d="M528.8,231.6c0.4,0.3,1.2,0.6,1.9,0.6c1,0,1.5-0.5,1.5-1.2c0-0.7-0.4-1-1.4-1.4c-1.4-0.5-2-1.3-2-2.2c0-1.2,1-2.3,2.7-2.3
		c0.8,0,1.5,0.2,1.9,0.5l-0.4,1c-0.3-0.2-0.9-0.4-1.6-0.4c-0.8,0-1.3,0.5-1.3,1.1c0,0.6,0.5,0.9,1.5,1.3c1.3,0.5,2,1.2,2,2.3
		c0,1.4-1.1,2.3-2.9,2.3c-0.8,0-1.6-0.2-2.2-0.5L528.8,231.6z"/>
	<path d="M537.1,223.1v2.2h2v1.1h-2v4.2c0,1,0.3,1.5,1.1,1.5c0.4,0,0.6,0,0.8-0.1l0.1,1.1c-0.3,0.1-0.7,0.2-1.2,0.2
		c-0.7,0-1.2-0.2-1.5-0.6c-0.4-0.4-0.5-1.1-0.5-2v-4.2h-1.2v-1.1h1.2v-1.9L537.1,223.1z"/>
	<path d="M545,233l-0.1-1h0c-0.4,0.6-1.3,1.2-2.4,1.2c-1.6,0-2.4-1.1-2.4-2.2c0-1.9,1.7-2.9,4.7-2.9v-0.2c0-0.6-0.2-1.8-1.8-1.8
		c-0.7,0-1.5,0.2-2,0.6l-0.3-0.9c0.6-0.4,1.6-0.7,2.5-0.7c2.4,0,2.9,1.6,2.9,3.2v2.9c0,0.7,0,1.3,0.1,1.9H545z M544.8,229.1
		c-1.5,0-3.3,0.2-3.3,1.7c0,0.9,0.6,1.3,1.3,1.3c1,0,1.6-0.6,1.9-1.3c0-0.1,0.1-0.3,0.1-0.4V229.1z"/>
	<path d="M550,223.1v2.2h2v1.1h-2v4.2c0,1,0.3,1.5,1.1,1.5c0.4,0,0.6,0,0.8-0.1l0.1,1.1c-0.3,0.1-0.7,0.2-1.2,0.2
		c-0.7,0-1.2-0.2-1.5-0.6c-0.4-0.4-0.5-1.1-0.5-2v-4.2h-1.2v-1.1h1.2v-1.9L550,223.1z"/>
	<path d="M555.2,223.1c0,0.5-0.3,0.9-0.9,0.9c-0.5,0-0.8-0.4-0.8-0.9c0-0.5,0.4-0.9,0.9-0.9C554.8,222.2,555.2,222.6,555.2,223.1z
		 M553.6,233v-7.7h1.4v7.7H553.6z"/>
	<path d="M562.9,232.7c-0.4,0.2-1.2,0.4-2.2,0.4c-2.3,0-3.9-1.6-3.9-4c0-2.4,1.6-4.1,4.2-4.1c0.8,0,1.6,0.2,2,0.4l-0.3,1.1
		c-0.3-0.2-0.9-0.4-1.6-0.4c-1.8,0-2.7,1.3-2.7,2.9c0,1.8,1.2,2.9,2.7,2.9c0.8,0,1.3-0.2,1.7-0.4L562.9,232.7z"/>
	<path d="M567.7,231.6c0.4,0.3,1.2,0.6,1.9,0.6c1,0,1.5-0.5,1.5-1.2c0-0.7-0.4-1-1.4-1.4c-1.4-0.5-2-1.3-2-2.2c0-1.2,1-2.3,2.7-2.3
		c0.8,0,1.5,0.2,1.9,0.5l-0.4,1c-0.3-0.2-0.9-0.4-1.6-0.4c-0.8,0-1.3,0.5-1.3,1.1c0,0.6,0.5,0.9,1.5,1.3c1.3,0.5,2,1.2,2,2.3
		c0,1.4-1.1,2.3-2.9,2.3c-0.8,0-1.6-0.2-2.2-0.5L567.7,231.6z"/>
	<path d="M575.8,223.1c0,0.5-0.3,0.9-0.9,0.9c-0.5,0-0.8-0.4-0.8-0.9c0-0.5,0.4-0.9,0.9-0.9C575.5,222.2,575.8,222.6,575.8,223.1z
		 M574.3,233v-7.7h1.4v7.7H574.3z"/>
	<path d="M579.7,223.1v2.2h2v1.1h-2v4.2c0,1,0.3,1.5,1.1,1.5c0.4,0,0.6,0,0.8-0.1l0.1,1.1c-0.3,0.1-0.7,0.2-1.2,0.2
		c-0.7,0-1.2-0.2-1.5-0.6c-0.4-0.4-0.5-1.1-0.5-2v-4.2h-1.2v-1.1h1.2v-1.9L579.7,223.1z"/>
	<path d="M584,229.4c0,1.9,1.2,2.7,2.7,2.7c1,0,1.6-0.2,2.1-0.4l0.2,1c-0.5,0.2-1.3,0.5-2.6,0.5c-2.4,0-3.8-1.6-3.8-3.9
		s1.4-4.2,3.6-4.2c2.5,0,3.2,2.2,3.2,3.6c0,0.3,0,0.5,0,0.7H584z M588.1,228.4c0-0.9-0.4-2.3-2-2.3c-1.4,0-2,1.3-2.2,2.3H588.1z"/>
	<path d="M535.7,243.3c0,0.6-0.1,1.2-0.1,2.1v4.5c0,1.8-0.4,2.9-1.1,3.5c-0.8,0.7-1.8,0.9-2.8,0.9c-0.9,0-2-0.2-2.6-0.6l0.4-1.1
		c0.5,0.3,1.3,0.6,2.3,0.6c1.4,0,2.5-0.8,2.5-2.7v-0.9h0c-0.4,0.7-1.3,1.3-2.5,1.3c-1.9,0-3.3-1.6-3.3-3.8c0-2.6,1.7-4.1,3.5-4.1
		c1.3,0,2.1,0.7,2.4,1.3h0l0.1-1.2H535.7z M534.3,246.3c0-0.2,0-0.4-0.1-0.6c-0.3-0.8-0.9-1.5-2-1.5c-1.3,0-2.3,1.1-2.3,2.9
		c0,1.5,0.8,2.8,2.3,2.8c0.9,0,1.6-0.5,2-1.4c0.1-0.2,0.1-0.5,0.1-0.8V246.3z"/>
	<path d="M538.8,247.4c0,1.9,1.2,2.7,2.7,2.7c1,0,1.6-0.2,2.1-0.4l0.2,1c-0.5,0.2-1.3,0.5-2.6,0.5c-2.4,0-3.8-1.6-3.8-3.9
		s1.4-4.2,3.6-4.2c2.5,0,3.2,2.2,3.2,3.6c0,0.3,0,0.5,0,0.7H538.8z M542.9,246.4c0-0.9-0.4-2.3-2-2.3c-1.4,0-2,1.3-2.2,2.3H542.9z"
		/>
	<path d="M546,245.4c0-0.8,0-1.5-0.1-2.1h1.2l0.1,1.3h0c0.4-0.7,1.3-1.5,2.6-1.5c1.1,0,2.7,0.6,2.7,3.3v4.6h-1.4v-4.5
		c0-1.2-0.5-2.3-1.8-2.3c-0.9,0-1.6,0.7-1.9,1.4c-0.1,0.2-0.1,0.4-0.1,0.7v4.7H546V245.4z"/>
	<path d="M555.7,247.4c0,1.9,1.2,2.7,2.7,2.7c1,0,1.6-0.2,2.1-0.4l0.2,1c-0.5,0.2-1.3,0.5-2.6,0.5c-2.4,0-3.8-1.6-3.8-3.9
		s1.4-4.2,3.6-4.2c2.5,0,3.2,2.2,3.2,3.6c0,0.3,0,0.5,0,0.7H555.7z M559.8,246.4c0-0.9-0.4-2.3-2-2.3c-1.4,0-2,1.3-2.2,2.3H559.8z"
		/>
	<path d="M562.9,245.7c0-0.9,0-1.7-0.1-2.4h1.2l0,1.5h0.1c0.4-1,1.2-1.7,2.1-1.7c0.2,0,0.3,0,0.4,0v1.3c-0.1,0-0.3,0-0.5,0
		c-1,0-1.7,0.8-1.9,1.8c0,0.2-0.1,0.4-0.1,0.7v4.1h-1.4V245.7z"/>
	<path d="M572.3,251l-0.1-1h0c-0.4,0.6-1.3,1.2-2.4,1.2c-1.6,0-2.4-1.1-2.4-2.2c0-1.9,1.7-2.9,4.7-2.9v-0.2c0-0.6-0.2-1.8-1.8-1.8
		c-0.7,0-1.5,0.2-2,0.6l-0.3-0.9c0.6-0.4,1.6-0.7,2.5-0.7c2.4,0,2.9,1.6,2.9,3.2v2.9c0,0.7,0,1.3,0.1,1.9H572.3z M572.1,247.1
		c-1.5,0-3.3,0.2-3.3,1.7c0,0.9,0.6,1.3,1.3,1.3c1,0,1.7-0.6,1.9-1.3c0-0.1,0.1-0.3,0.1-0.4V247.1z"/>
	<path d="M577.4,241.1v2.2h2v1.1h-2v4.2c0,1,0.3,1.5,1.1,1.5c0.4,0,0.6,0,0.8-0.1l0.1,1.1c-0.3,0.1-0.7,0.2-1.2,0.2
		c-0.7,0-1.2-0.2-1.5-0.6c-0.4-0.4-0.5-1.1-0.5-2v-4.2h-1.2v-1.1h1.2v-1.9L577.4,241.1z"/>
	<path d="M587.9,247.1c0,2.9-2,4.1-3.9,4.1c-2.1,0-3.7-1.5-3.7-4c0-2.6,1.7-4.1,3.8-4.1C586.4,243.1,587.9,244.7,587.9,247.1z
		 M581.8,247.2c0,1.7,1,3,2.4,3c1.3,0,2.4-1.3,2.4-3c0-1.3-0.7-3-2.3-3S581.8,245.7,581.8,247.2z"/>
	<path d="M589.7,245.7c0-0.9,0-1.7-0.1-2.4h1.2l0,1.5h0.1c0.4-1,1.2-1.7,2.1-1.7c0.2,0,0.3,0,0.4,0v1.3c-0.1,0-0.3,0-0.5,0
		c-1,0-1.7,0.8-1.9,1.8c0,0.2-0.1,0.4-0.1,0.7v4.1h-1.4V245.7z"/>
	<path d="M594.7,249.6c0.4,0.3,1.2,0.6,1.9,0.6c1,0,1.5-0.5,1.5-1.2c0-0.7-0.4-1-1.4-1.4c-1.4-0.5-2-1.3-2-2.2c0-1.2,1-2.3,2.7-2.3
		c0.8,0,1.5,0.2,1.9,0.5l-0.4,1c-0.3-0.2-0.9-0.4-1.6-0.4c-0.8,0-1.3,0.5-1.3,1.1c0,0.6,0.5,0.9,1.5,1.3c1.3,0.5,2,1.2,2,2.3
		c0,1.4-1.1,2.3-2.9,2.3c-0.8,0-1.6-0.2-2.2-0.5L594.7,249.6z"/>
	<path d="M602.3,248l0-0.4c-0.1-0.9,0.2-1.8,1-2.8c0.7-0.8,1.1-1.5,1.1-2.2c0-0.8-0.5-1.4-1.5-1.4c-0.6,0-1.2,0.2-1.6,0.5l-0.4-1
		c0.5-0.4,1.4-0.6,2.3-0.6c1.8,0,2.7,1.1,2.7,2.4c0,1.1-0.6,1.9-1.4,2.8c-0.7,0.8-1,1.5-0.9,2.4l0,0.4H602.3z M602,250.2
		c0-0.6,0.4-1,1-1s0.9,0.4,0.9,1c0,0.6-0.4,1-1,1C602.4,251.2,602,250.8,602,250.2z"/>
</g>
<line style="stroke:#F90606;stroke-miterlimit:10;" x1="188.5" y1="267" x2="188.5" y2="330"/>
<line style="stroke:#F90606;stroke-miterlimit:10;" x1="375.5" y1="267" x2="375.5" y2="323"/>
<circle style="fill:none;stroke:#F90606;stroke-miterlimit:10;" cx="192.6" cy="376" r="11.1"/>
<circle style="fill:#F90606;" cx="189.4" cy="372.3" r="0.6"/>
<circle style="fill:#F90303;" cx="196.7" cy="371.9" r="0.6"/>
<path style="fill:none;stroke:#F70606;stroke-miterlimit:10;" d="M186.9,380.1c2.2-1.3,4.1-2.5,7-2.2c2.9,0.3,3.7,1,4.7,2.2"/>
<circle style="fill:none;stroke:#F90606;stroke-miterlimit:10;" cx="377.6" cy="387" r="11.1"/>
<circle style="fill:#F90606;" cx="374.4" cy="383.3" r="0.6"/>
<circle style="fill:#F90303;" cx="381.7" cy="382.9" r="0.6"/>
<path style="fill:none;stroke:#F70606;stroke-miterlimit:10;" d="M371.9,391.1c2.2-1.3,4.1-2.5,7-2.2c2.9,0.3,3.7,1,4.7,2.2"/>
<circle style="fill:none;stroke:#000000;stroke-miterlimit:10;" cx="567.6" cy="282" r="11.1"/>
<circle cx="564.4" cy="278.3" r="0.6"/>
<circle cx="571.7" cy="277.9" r="0.6"/>
<path style="fill:none;stroke:#050000;stroke-miterlimit:10;" d="M560.4,284.5c2.3,1,5,0.7,8,0.4c3-0.2,4.2,0.1,5.2-0.9"/>
<path style="fill:none;stroke:#050505;stroke-miterlimit:10;" d="M561.1,277.5c0.2-0.7,0.7-1.4,1.2-1.9c0.2-0.2,0.4-0.3,0.6-0.4
	c0.3-0.1,0.7-0.1,0.9-0.3"/>
<path style="fill:none;stroke:#050505;stroke-miterlimit:10;" d="M570.9,275.1c0.7,0.1,1.5,0.4,2.1,0.9c0.2,0.2,0.4,0.3,0.5,0.6
	c0.1,0.3,0.2,0.7,0.5,0.8"/>
<g>
	<path d="M233.3,148.4l-0.7-0.6l0,0c0.1,0.7-0.1,1.6-0.9,2.3c-1.1,1-2.3,0.8-3,0c-1.2-1.3-0.7-3,1.3-5l-0.1-0.1
		c-0.4-0.4-1.3-1.1-2.4-0.1c-0.5,0.5-0.9,1.1-1,1.7l-0.8-0.4c0.2-0.7,0.6-1.5,1.3-2.1c1.6-1.5,3-0.8,4,0.2l1.9,2
		c0.4,0.5,0.9,0.9,1.3,1.2L233.3,148.4z M230.6,145.9c-1.1,1-2.1,2.3-1.1,3.3c0.6,0.6,1.3,0.5,1.8,0.1c0.7-0.7,0.7-1.5,0.4-2.1
		c-0.1-0.1-0.1-0.3-0.2-0.4L230.6,145.9z"/>
	<path d="M230.3,138.4l1.4,1.5l1.4-1.3l0.7,0.7l-1.4,1.3l2.7,2.8c0.6,0.7,1.2,0.8,1.7,0.3c0.2-0.2,0.4-0.4,0.5-0.6l0.7,0.7
		c-0.1,0.3-0.4,0.6-0.7,0.9c-0.4,0.4-0.9,0.6-1.4,0.6c-0.5,0-1.1-0.4-1.7-1l-2.7-2.9l-0.8,0.8l-0.7-0.7l0.8-0.8l-1.2-1.3
		L230.3,138.4z"/>
	<path d="M233.9,135l1.4,1.5l1.4-1.3l0.7,0.7l-1.4,1.3l2.7,2.8c0.6,0.7,1.2,0.8,1.7,0.3c0.2-0.2,0.4-0.4,0.5-0.6l0.7,0.7
		c-0.1,0.3-0.4,0.6-0.7,0.9c-0.4,0.4-0.9,0.6-1.4,0.6c-0.5,0-1.1-0.4-1.7-1l-2.7-2.9l-0.8,0.8l-0.7-0.7l0.8-0.8l-1.2-1.3L233.9,135z
		"/>
	<path d="M240.9,136.5c1.3,1.3,2.6,1,3.5,0.1c0.7-0.7,1-1.2,1.2-1.7l0.8,0.5c-0.2,0.5-0.6,1.2-1.4,2c-1.6,1.5-3.6,1.4-5.1-0.2
		c-1.5-1.6-1.8-3.7-0.2-5.2c1.7-1.6,3.6-0.6,4.5,0.4c0.2,0.2,0.3,0.4,0.4,0.5L240.9,136.5z M243,133.1c-0.6-0.6-1.7-1.3-2.8-0.3
		c-1,0.9-0.5,2.2,0,2.9L243,133.1z"/>
	<path d="M244.5,130.4c-0.5-0.5-1-1-1.4-1.4l0.8-0.8l0.9,0.8l0,0c-0.2-0.8-0.1-1.7,0.7-2.5c0.7-0.7,1.7-0.8,2.5-0.4l0,0
		c-0.1-0.4-0.1-0.9-0.1-1.2c0.1-0.5,0.3-1,0.8-1.5c0.7-0.7,2.2-1.2,3.9,0.6l3,3.1l-0.9,0.9l-2.8-3c-1-1-1.9-1.3-2.7-0.5
		c-0.5,0.5-0.6,1.3-0.3,1.9c0.1,0.2,0.2,0.4,0.4,0.6l3.1,3.2l-0.9,0.9l-3-3.1c-0.8-0.8-1.7-1.1-2.5-0.4c-0.6,0.6-0.6,1.5-0.3,2.1
		c0.1,0.2,0.2,0.4,0.4,0.5l3,3.2l-0.9,0.9L244.5,130.4z"/>
	<path d="M253.8,122.1c-0.6-0.7-1.2-1.2-1.7-1.7l0.9-0.8l0.9,0.9l0,0c-0.2-1,0-2,0.9-2.8c1.3-1.2,3.2-1,4.8,0.5
		c1.8,1.9,1.5,3.9,0.3,5.1c-0.7,0.7-1.6,0.9-2.4,0.7l0,0l2.7,2.9l-0.9,0.9L253.8,122.1z M256.1,122.6c0.1,0.1,0.3,0.3,0.4,0.3
		c0.8,0.5,1.8,0.4,2.5-0.2c1-1,0.8-2.3-0.3-3.6c-1-1.1-2.4-1.4-3.4-0.5c-0.7,0.6-0.8,1.7-0.3,2.6c0.1,0.2,0.2,0.3,0.3,0.5
		L256.1,122.6z"/>
	<path d="M258.1,111.9l1.4,1.5l1.4-1.3l0.7,0.7l-1.4,1.3l2.7,2.8c0.6,0.7,1.2,0.8,1.7,0.3c0.2-0.2,0.4-0.4,0.5-0.6l0.7,0.7
		c-0.1,0.3-0.4,0.6-0.7,0.9c-0.4,0.4-0.9,0.6-1.4,0.6c-0.5,0-1.1-0.4-1.7-1l-2.7-2.9l-0.8,0.8l-0.7-0.7l0.8-0.8l-1.2-1.3
		L258.1,111.9z"/>
	<path d="M265.1,106.2L265.1,106.2l-0.6,1.9l-0.9-0.6l0.8-2.3l0.8-0.8l6.7,7.1l-0.9,0.9L265.1,106.2z"/>
</g>
<g>
	<path d="M359.8,168.9l-0.9,0.1v0c0.6,0.4,1.1,1.2,1.1,2.2c0,1.5-1,2.2-2.1,2.2c-1.8,0-2.7-1.6-2.7-4.4l-0.2,0
		c-0.6,0-1.7,0.2-1.7,1.6c0,0.7,0.2,1.4,0.5,1.9l-0.9,0.3c-0.4-0.6-0.6-1.5-0.6-2.4c0-2.2,1.5-2.8,3-2.7l2.7,0c0.6,0,1.2,0,1.7-0.1
		L359.8,168.9z M356.1,169.1c0,1.4,0.2,3.1,1.6,3.1c0.9,0,1.3-0.6,1.3-1.2c0-0.9-0.6-1.5-1.2-1.8c-0.1,0-0.3-0.1-0.4-0.1
		L356.1,169.1z"/>
	<path d="M350.5,164.1l2.1,0l0-1.9l1,0l0,1.9l3.9,0c0.9,0,1.4-0.2,1.4-1c0-0.3,0-0.6-0.1-0.8l1-0.1c0.1,0.3,0.2,0.7,0.2,1.2
		c0,0.6-0.2,1.1-0.6,1.4c-0.4,0.4-1,0.5-1.9,0.5l-4,0l0,1.1l-1,0l0-1.1l-1.7,0L350.5,164.1z"/>
	<path d="M350.5,159.1l2.1,0l0-1.9l1,0l0,1.9l3.9,0c0.9,0,1.4-0.2,1.4-1c0-0.3,0-0.6-0.1-0.8l1-0.1c0.1,0.3,0.2,0.7,0.2,1.2
		c0,0.6-0.2,1.1-0.6,1.4c-0.4,0.4-1,0.5-1.9,0.5l-4,0l0,1.1l-1,0l0-1.1l-1.7,0L350.5,159.1z"/>
	<path d="M356.5,155.1c1.8,0,2.5-1.2,2.5-2.5c0-0.9-0.2-1.5-0.4-2l0.9-0.2c0.2,0.5,0.4,1.3,0.4,2.4c0,2.2-1.5,3.6-3.7,3.5
		c-2.2,0-3.9-1.3-3.9-3.4c0-2.4,2.1-3,3.4-3c0.3,0,0.5,0,0.6,0L356.5,155.1z M355.5,151.3c-0.8,0-2.1,0.3-2.2,1.8
		c0,1.3,1.2,1.9,2.1,2L355.5,151.3z"/>
	<path d="M354.6,148.3c-0.8,0-1.4,0-2,0l0-1.2l1.2-0.1v0c-0.7-0.4-1.3-1.1-1.3-2.3c0-1,0.6-1.7,1.5-2v0c-0.4-0.2-0.7-0.5-0.9-0.8
		c-0.3-0.4-0.5-0.9-0.5-1.6c0-1,0.6-2.4,3.2-2.4l4.3,0l0,1.3l-4.1,0c-1.4,0-2.2,0.5-2.2,1.6c0,0.8,0.5,1.3,1.2,1.6
		c0.2,0.1,0.4,0.1,0.7,0.1l4.5,0l0,1.3l-4.3,0c-1.2,0-2,0.5-2,1.5c0,0.8,0.7,1.4,1.3,1.6c0.2,0.1,0.4,0.1,0.6,0.1l4.4,0l0,1.3
		L354.6,148.3z"/>
	<path d="M355.1,135.8c-0.9,0-1.7,0-2.4,0l0-1.2l1.2-0.1v0c-0.9-0.5-1.4-1.4-1.4-2.6c0-1.8,1.5-3.1,3.7-3.1c2.6,0,3.9,1.6,3.9,3.3
		c0,1-0.4,1.8-1.2,2.2v0l3.9,0l0,1.3L355.1,135.8z M357,134.5c0.2,0,0.4,0,0.5-0.1c0.9-0.2,1.6-1,1.6-2c0-1.4-1.1-2.2-2.8-2.2
		c-1.5,0-2.7,0.7-2.7,2.1c0,0.9,0.6,1.7,1.6,2c0.2,0,0.4,0.1,0.5,0.1L357,134.5z"/>
	<path d="M350.7,125.7l2.1,0l0-1.9l1,0l0,1.9l3.9,0c0.9,0,1.4-0.2,1.4-1c0-0.3,0-0.6-0.1-0.8l1-0.1c0.1,0.3,0.2,0.7,0.2,1.2
		c0,0.6-0.2,1.1-0.6,1.4c-0.4,0.4-1,0.5-1.9,0.5l-4,0l0,1.1l-1,0l0-1.1l-1.7,0L350.7,125.7z"/>
	<path d="M360.1,119.6l-0.8,0l-1-1c-2.4-2.5-3.6-3.6-5.1-3.7c-1,0-1.9,0.5-1.9,1.9c0,0.9,0.4,1.6,0.8,2.1l-0.9,0.4
		c-0.6-0.7-1-1.6-1-2.8c0-2.1,1.5-3,2.9-3c1.8,0,3.2,1.3,5.2,3.4l0.7,0.8l0,0l0-4.4l1.1,0L360.1,119.6z"/>
</g>
<line style="fill:none;stroke:#000000;stroke-miterlimit:10;" x1="556.1" y1="212" x2="425.9" y2="92.8"/>
</svg>
