<?xml version="1.0" encoding="utf-8"?>
<!-- Generator: Adobe Illustrator 17.1.0, SVG Export Plug-In . SVG Version: 6.00 Build 0)  -->
<!DOCTYPE svg PUBLIC "-//W3C//DTD SVG 1.1//EN" "http://www.w3.org/Graphics/SVG/1.1/DTD/svg11.dtd">
<svg version="1.1" id="Layer_1" xmlns="http://www.w3.org/2000/svg" xmlns:xlink="http://www.w3.org/1999/xlink" x="0px" y="0px"
	 viewBox="0 0 775 445" style="enable-background:new 0 0 775 445;" xml:space="preserve">
<path d="M312.9,286c4.7,0,8.4,3.7,8.4,8.4s-3.7,8.4-8.4,8.4c-4.7,0-8.4-3.7-8.4-8.4S308.2,286,312.9,286z M396.8,196.2
	c4.7,0,8.4,3.7,8.4,8.4s-3.7,8.4-8.4,8.4c-4.7,0-8.4-3.7-8.4-8.4S392.1,196.2,396.8,196.2z M396.8,151.3c4.7,0,8.4,3.7,8.4,8.4
	c0,4.7-3.7,8.4-8.4,8.4c-4.7,0-8.4-3.7-8.4-8.4C388.4,155,392.1,151.3,396.8,151.3z M396.8,106.4c4.7,0,8.4,3.7,8.4,8.4
	s-3.7,8.4-8.4,8.4c-4.7,0-8.4-3.7-8.4-8.4S392.1,106.4,396.8,106.4z M312.9,106.4c4.7,0,8.4,3.7,8.4,8.4s-3.7,8.4-8.4,8.4
	c-4.7,0-8.4-3.7-8.4-8.4S308.2,106.4,312.9,106.4z M312.9,96.8c-9.9,0-18,8.1-18,18c0,8.2,5.6,15.2,13.2,17.3v145
	c-7.6,2.1-13.2,9.1-13.2,17.3c0,9.9,8.1,18,18,18c9.9,0,18-8.1,18-18c0-8.1-5.5-15.1-13-17.2c0.8-12.1,4.9-17.2,10.7-20.2
	c6.4-3.3,16.3-3.6,26.7-3.6c10.5,0,21.5,0.3,30.9-4.5c8.3-4.3,14.1-13.1,15.1-27c7.7-2,13.4-9.1,13.4-17.3c0-8.2-5.6-15.2-13.2-17.3
	V177c7.6-2.1,13.2-9.1,13.2-17.3c0-8.2-5.6-15.2-13.2-17.3v-10.3c7.6-2.1,13.2-9.1,13.2-17.3c0-9.9-8.1-18-18-18
	c-8.2,0-15.1,5.6-17.3,13.1l-26.7,0.1v-5.6l-18,10.4l18,10.4v-5.5l26.7-0.1c1.7,6,6.5,10.8,12.5,12.5v10.3
	c-7.6,2.1-13.2,9.1-13.2,17.3c0,8.2,5.6,15.2,13.2,17.3v10.3c-7.6,2.1-13.2,9.1-13.2,17.3c0,8.1,5.5,15.1,13,17.2
	c-0.8,11.2-4.5,15.8-10,18.6c-6.2,3.2-16,3.4-26.5,3.4c-10.5,0-21.7-0.2-31.1,4.6c-2.4,1.2-4.6,2.8-6.5,4.8V132.1
	c7.6-2.1,13.2-9.1,13.2-17.3C330.8,105,322.8,96.9,312.9,96.8L312.9,96.8z"/>
<g>
	<path d="M189.4,177.4l5.4,15.9l5.3-15.9h2.8L196,196h-2.7l-6.8-18.6H189.4z"/>
	<path d="M211.9,182.8c0.9,0.5,1.6,1,2.1,1.8c0.5,0.7,0.8,1.5,0.9,2.4c0.1,0.6,0.2,1.6,0.2,3h-9.9c0,1.4,0.4,2.5,1,3.3
		c0.6,0.8,1.5,1.3,2.8,1.3c1.2,0,2.1-0.4,2.8-1.2c0.4-0.5,0.7-1,0.8-1.6h2.2c-0.1,0.5-0.3,1.1-0.6,1.7c-0.3,0.6-0.7,1.1-1.1,1.5
		c-0.7,0.7-1.5,1.1-2.6,1.4c-0.5,0.1-1.2,0.2-1.9,0.2c-1.7,0-3.1-0.6-4.3-1.8c-1.2-1.2-1.8-3-1.8-5.2c0-2.2,0.6-4,1.8-5.3
		c1.2-1.4,2.7-2,4.6-2C210.1,182.1,211,182.3,211.9,182.8z M212.7,188.1c-0.1-1-0.3-1.8-0.6-2.4c-0.6-1.1-1.7-1.7-3.1-1.7
		c-1,0-1.9,0.4-2.6,1.1c-0.7,0.8-1.1,1.7-1.1,2.9H212.7z"/>
	<path d="M218,182.4h2.2v2.3c0.2-0.5,0.6-1,1.3-1.7c0.7-0.7,1.5-1,2.4-1c0,0,0.1,0,0.2,0c0.1,0,0.3,0,0.5,0.1v2.4
		c-0.1,0-0.3,0-0.4-0.1c-0.1,0-0.2,0-0.4,0c-1.2,0-2,0.4-2.7,1.1c-0.6,0.7-0.9,1.6-0.9,2.6v7.8H218V182.4z"/>
	<path d="M228,191.7c0.1,0.8,0.3,1.3,0.6,1.8c0.6,0.7,1.6,1.1,3.1,1.1c0.9,0,1.6-0.2,2.3-0.6s1-0.9,1-1.7c0-0.6-0.3-1-0.8-1.3
		c-0.3-0.2-1-0.4-2-0.6l-1.8-0.5c-1.2-0.3-2-0.6-2.6-1c-1-0.6-1.5-1.5-1.5-2.6c0-1.3,0.5-2.3,1.4-3.1c0.9-0.8,2.2-1.2,3.8-1.2
		c2.1,0,3.6,0.6,4.5,1.8c0.6,0.8,0.9,1.6,0.8,2.5h-2.2c0-0.5-0.2-1-0.6-1.4c-0.5-0.6-1.5-0.9-2.8-0.9c-0.9,0-1.6,0.2-2,0.5
		c-0.5,0.3-0.7,0.8-0.7,1.3c0,0.6,0.3,1.1,0.9,1.4c0.3,0.2,0.9,0.4,1.5,0.6l1.5,0.4c1.7,0.4,2.8,0.8,3.4,1.2
		c0.9,0.6,1.3,1.5,1.3,2.8c0,1.2-0.5,2.3-1.4,3.1c-0.9,0.9-2.3,1.3-4.2,1.3c-2,0-3.5-0.5-4.4-1.4c-0.9-0.9-1.3-2.1-1.4-3.4H228z"/>
	<path d="M239.6,177.4h2.3v2.6h-2.3V177.4z M239.6,182.5h2.3V196h-2.3V182.5z"/>
	<path d="M255.2,183.8c1.2,1.2,1.8,2.9,1.8,5.1c0,2.2-0.5,4-1.6,5.4c-1.1,1.4-2.7,2.1-4.9,2.1c-1.9,0-3.3-0.6-4.4-1.9
		c-1.1-1.3-1.6-3-1.6-5.1c0-2.3,0.6-4.1,1.7-5.5c1.2-1.4,2.7-2,4.6-2C252.6,182,254,182.6,255.2,183.8z M253.8,192.8
		c0.6-1.1,0.8-2.4,0.8-3.8c0-1.3-0.2-2.3-0.6-3.1c-0.6-1.3-1.7-1.9-3.3-1.9c-1.4,0-2.4,0.5-3,1.6c-0.6,1.1-0.9,2.4-0.9,3.9
		c0,1.4,0.3,2.6,0.9,3.6s1.6,1.4,3,1.4C252.2,194.5,253.3,193.9,253.8,192.8z"/>
	<path d="M259.8,182.4h2.2v1.9c0.6-0.8,1.3-1.4,2-1.7c0.7-0.3,1.5-0.5,2.4-0.5c1.9,0,3.2,0.7,3.9,2c0.4,0.7,0.6,1.8,0.6,3.2v8.7
		h-2.3v-8.6c0-0.8-0.1-1.5-0.4-2c-0.4-0.8-1.1-1.3-2.2-1.3c-0.5,0-1,0.1-1.3,0.2c-0.6,0.2-1.2,0.6-1.7,1.1c-0.4,0.4-0.6,0.9-0.7,1.4
		c-0.1,0.5-0.2,1.2-0.2,2v7.1h-2.3V182.4z"/>
	<path d="M200.9,214.3c1,0.7,1.5,2,1.7,3.8h-2.2c-0.1-0.8-0.4-1.5-0.9-2.1c-0.5-0.6-1.3-0.8-2.3-0.8c-1.5,0-2.5,0.7-3.1,2.1
		c-0.4,0.9-0.6,2.1-0.6,3.4c0,1.4,0.3,2.5,0.9,3.4s1.5,1.4,2.7,1.4c0.9,0,1.7-0.3,2.3-0.9c0.6-0.6,0.9-1.4,1.1-2.4h2.2
		c-0.3,1.8-0.9,3.1-1.9,4c-1,0.8-2.3,1.2-3.9,1.2c-1.8,0-3.2-0.6-4.3-1.9c-1.1-1.3-1.6-2.9-1.6-4.9c0-2.4,0.6-4.2,1.7-5.6
		c1.2-1.3,2.6-2,4.4-2C198.7,213.2,199.9,213.6,200.9,214.3z"/>
	<path d="M214.8,215c1.2,1.2,1.8,2.9,1.8,5.1c0,2.2-0.5,4-1.6,5.4c-1.1,1.4-2.7,2.1-4.9,2.1c-1.9,0-3.3-0.6-4.4-1.9
		c-1.1-1.3-1.6-3-1.6-5.1c0-2.3,0.6-4.1,1.7-5.5c1.2-1.4,2.7-2,4.6-2C212.1,213.2,213.6,213.8,214.8,215z M213.3,224
		c0.6-1.1,0.8-2.4,0.8-3.8c0-1.3-0.2-2.3-0.6-3.1c-0.6-1.3-1.7-1.9-3.3-1.9c-1.4,0-2.4,0.5-3,1.6c-0.6,1.1-0.9,2.4-0.9,3.9
		c0,1.4,0.3,2.6,0.9,3.6s1.6,1.4,3,1.4C211.8,225.7,212.8,225.1,213.3,224z"/>
	<path d="M219.4,213.6h2.2v1.9c0.6-0.8,1.3-1.4,2-1.7c0.7-0.3,1.5-0.5,2.4-0.5c1.9,0,3.2,0.7,3.9,2c0.4,0.7,0.6,1.8,0.6,3.2v8.7
		h-2.3v-8.6c0-0.8-0.1-1.5-0.4-2c-0.4-0.8-1.1-1.3-2.2-1.3c-0.5,0-1,0.1-1.3,0.2c-0.6,0.2-1.2,0.6-1.7,1.1c-0.4,0.4-0.6,0.9-0.7,1.4
		c-0.1,0.5-0.2,1.2-0.2,2v7.1h-2.3V213.6z"/>
	<path d="M234.3,209.8h2.3v3.8h2.2v1.9h-2.2v8.9c0,0.5,0.2,0.8,0.5,1c0.2,0.1,0.5,0.1,0.9,0.1c0.1,0,0.2,0,0.4,0c0.1,0,0.3,0,0.4,0
		v1.8c-0.3,0.1-0.5,0.1-0.8,0.2c-0.3,0-0.6,0.1-0.9,0.1c-1.1,0-1.8-0.3-2.2-0.8s-0.6-1.3-0.6-2.1v-9h-1.8v-1.9h1.8V209.8z"/>
	<path d="M241.1,213.6h2.2v2.3c0.2-0.5,0.6-1,1.3-1.7c0.7-0.7,1.5-1,2.4-1c0,0,0.1,0,0.2,0c0.1,0,0.3,0,0.5,0.1v2.4
		c-0.1,0-0.3,0-0.4-0.1c-0.1,0-0.2,0-0.4,0c-1.2,0-2,0.4-2.7,1.1c-0.6,0.7-0.9,1.6-0.9,2.6v7.8h-2.3V213.6z"/>
	<path d="M259.6,215c1.2,1.2,1.8,2.9,1.8,5.1c0,2.2-0.5,4-1.6,5.4c-1.1,1.4-2.7,2.1-4.9,2.1c-1.9,0-3.3-0.6-4.4-1.9
		c-1.1-1.3-1.6-3-1.6-5.1c0-2.3,0.6-4.1,1.7-5.5c1.2-1.4,2.7-2,4.6-2C256.9,213.2,258.4,213.8,259.6,215z M258.2,224
		c0.6-1.1,0.8-2.4,0.8-3.8c0-1.3-0.2-2.3-0.6-3.1c-0.6-1.3-1.7-1.9-3.3-1.9c-1.4,0-2.4,0.5-3,1.6c-0.6,1.1-0.9,2.4-0.9,3.9
		c0,1.4,0.3,2.6,0.9,3.6s1.6,1.4,3,1.4C256.6,225.7,257.6,225.1,258.2,224z"/>
	<path d="M264.2,208.6h2.3v18.6h-2.3V208.6z"/>
</g>
<g>
	<path style="fill:#F90808;" d="M503.1,163.7l1.6-0.7l0.6,1.4c0.2-0.6,0.4-1.1,0.6-1.5c0.4-0.6,0.9-1,1.6-1.3
		c0.8-0.3,1.5-0.4,2.1-0.2c0.4,0.1,0.7,0.3,1.1,0.6c0.1-0.7,0.4-1.2,0.8-1.7c0.4-0.5,0.9-0.8,1.5-1.1c1.3-0.6,2.4-0.5,3.3,0.3
		c0.5,0.4,0.9,1,1.2,1.9l2.7,6.4l-1.7,0.7l-2.8-6.7c-0.3-0.6-0.6-1-1-1.1s-0.9-0.1-1.3,0.1c-0.6,0.3-1.1,0.7-1.4,1.3
		c-0.3,0.6-0.2,1.4,0.2,2.4l2.4,5.6l-1.7,0.7l-2.6-6.3c-0.3-0.7-0.6-1.1-0.8-1.3c-0.4-0.3-1-0.4-1.7-0.1c-0.6,0.3-1.1,0.7-1.4,1.4
		c-0.3,0.7-0.2,1.7,0.3,2.9l2.2,5.1l-1.6,0.7L503.1,163.7z"/>
	<path style="fill:#F90808;" d="M524.9,154.9c0.8,0,1.5,0.3,2,0.6c0.5,0.3,1,0.8,1.4,1.4c0.3,0.4,0.6,1.1,1,2.1l-7.1,3
		c0.4,1,1,1.7,1.7,2.1c0.7,0.4,1.5,0.4,2.4,0c0.9-0.4,1.4-0.9,1.7-1.7c0.1-0.4,0.2-0.9,0.1-1.4l1.6-0.7c0.1,0.4,0.1,0.8,0.1,1.4
		c-0.1,0.5-0.2,1-0.4,1.4c-0.3,0.7-0.8,1.3-1.4,1.7c-0.4,0.3-0.8,0.5-1.3,0.7c-1.2,0.5-2.4,0.5-3.6,0c-1.2-0.5-2.1-1.6-2.8-3.1
		c-0.7-1.5-0.8-3-0.3-4.3c0.4-1.3,1.3-2.3,2.7-2.8C523.4,155,524.1,154.8,524.9,154.9z M527.1,158.4c-0.4-0.7-0.8-1.2-1.2-1.5
		c-0.8-0.6-1.7-0.7-2.7-0.2c-0.8,0.3-1.3,0.8-1.5,1.6c-0.3,0.8-0.3,1.5,0.1,2.4L527.1,158.4z"/>
	<path style="fill:#F90808;" d="M529.2,152.8l1.6-0.7l0.7,1.7c0-0.4,0.1-0.9,0.4-1.6c0.3-0.7,0.8-1.2,1.4-1.4c0,0,0.1,0,0.2-0.1
		c0.1,0,0.2-0.1,0.4-0.1l0.7,1.7c-0.1,0-0.2,0-0.3,0.1c-0.1,0-0.2,0.1-0.3,0.1c-0.8,0.3-1.4,0.9-1.6,1.6c-0.2,0.7-0.2,1.4,0.1,2.1
		l2.3,5.5l-1.6,0.7L529.2,152.8z"/>
	<path style="fill:#F90808;" d="M541,148.3c0.4,0.1,0.8,0.3,1.3,0.5l-0.5-1.2l1.5-0.6l3.7,8.8c0.5,1.2,0.7,2.3,0.7,3.1
		c-0.1,1.6-1.1,2.8-3,3.6c-1.1,0.4-2,0.6-2.9,0.4s-1.6-0.7-2.1-1.7l1.7-0.7c0.3,0.4,0.6,0.7,0.9,0.8c0.5,0.2,1.2,0.1,2-0.2
		c1.3-0.5,1.9-1.3,1.9-2.4c0-0.6-0.3-1.6-0.8-2.9c-0.1,0.6-0.4,1.2-0.7,1.6c-0.4,0.4-0.9,0.8-1.7,1.1c-1.1,0.4-2.1,0.5-3.2,0.1
		s-2-1.5-2.7-3.2c-0.7-1.6-0.8-3-0.4-4.3s1.2-2.1,2.3-2.6C539.5,148.2,540.3,148.1,541,148.3z M541.9,149.9
		c-0.7-0.4-1.5-0.4-2.3-0.1c-1.2,0.5-1.7,1.4-1.7,2.6c0,0.7,0.2,1.5,0.6,2.4c0.5,1.1,1,1.8,1.7,2.2c0.7,0.4,1.4,0.4,2.2,0.1
		c1.2-0.5,1.8-1.4,1.8-2.6c0-0.7-0.1-1.5-0.5-2.2C543.3,151.1,542.7,150.3,541.9,149.9z"/>
	<path style="fill:#F90808;" d="M552,143.5c0.8,0,1.5,0.3,2,0.6c0.5,0.3,1,0.8,1.4,1.4c0.3,0.4,0.6,1.1,1,2.1l-7.1,3
		c0.4,1,1,1.7,1.7,2.1c0.7,0.4,1.5,0.4,2.4,0c0.9-0.4,1.4-0.9,1.7-1.7c0.1-0.4,0.2-0.9,0.1-1.4l1.6-0.7c0.1,0.4,0.1,0.8,0.1,1.4
		c-0.1,0.5-0.2,1-0.4,1.4c-0.3,0.7-0.8,1.3-1.4,1.7c-0.4,0.3-0.8,0.5-1.3,0.7c-1.2,0.5-2.4,0.5-3.6,0c-1.2-0.5-2.1-1.6-2.8-3.1
		c-0.7-1.5-0.8-3-0.3-4.3c0.4-1.3,1.3-2.3,2.7-2.8C550.4,143.6,551.2,143.4,552,143.5z M554.1,147c-0.4-0.7-0.8-1.2-1.2-1.5
		c-0.8-0.6-1.7-0.7-2.7-0.2c-0.8,0.3-1.3,0.8-1.5,1.6c-0.3,0.8-0.3,1.5,0.1,2.4L554.1,147z"/>
	<path style="fill:#F90808;" d="M568.1,137c0.9,0.2,1.7,1,2.4,2.2l-1.6,0.7c-0.3-0.6-0.8-1-1.3-1.2c-0.5-0.2-1.2-0.2-1.9,0.1
		c-1,0.4-1.6,1.3-1.6,2.5c0,0.8,0.2,1.6,0.6,2.6c0.4,1,1,1.7,1.6,2.2c0.7,0.5,1.5,0.5,2.4,0.2c0.7-0.3,1.1-0.7,1.4-1.3
		c0.2-0.6,0.3-1.3,0.1-2l1.6-0.7c0.4,1.4,0.3,2.5-0.2,3.4c-0.5,0.9-1.3,1.6-2.4,2.1c-1.3,0.5-2.5,0.5-3.6-0.1c-1.2-0.6-2-1.6-2.6-3
		c-0.7-1.7-0.8-3.2-0.4-4.5c0.4-1.3,1.3-2.2,2.6-2.8C566.2,136.9,567.2,136.8,568.1,137z"/>
	<path style="fill:#F90808;" d="M578.3,133.2c1.2,0.5,2.2,1.5,2.8,3.1c0.7,1.6,0.8,3,0.5,4.3c-0.3,1.3-1.3,2.3-2.9,3
		c-1.3,0.6-2.6,0.6-3.8,0c-1.2-0.6-2.1-1.6-2.7-3.1c-0.7-1.6-0.8-3.1-0.4-4.4c0.4-1.3,1.3-2.3,2.7-2.8
		C575.9,132.8,577.1,132.8,578.3,133.2z M580,140.1c0.1-1-0.1-2-0.5-3c-0.4-0.9-0.8-1.6-1.4-2c-0.8-0.7-1.8-0.8-2.9-0.3
		c-1,0.4-1.6,1.1-1.7,2c-0.1,0.9,0,2,0.5,3c0.4,1,1,1.8,1.8,2.3c0.7,0.5,1.6,0.5,2.6,0.1C579.3,141.8,579.9,141.1,580,140.1z"/>
	<path style="fill:#F90808;" d="M581.2,130.9l1.6-0.7l0.6,1.4c0.2-0.8,0.5-1.4,1-1.8c0.4-0.5,0.9-0.8,1.6-1.1
		c1.4-0.6,2.5-0.5,3.4,0.2c0.5,0.4,0.9,1.1,1.3,2.1l2.6,6.2l-1.7,0.7l-2.6-6.1c-0.2-0.6-0.5-1-0.9-1.3c-0.5-0.5-1.2-0.6-2-0.2
		c-0.4,0.2-0.7,0.3-0.9,0.5c-0.4,0.3-0.7,0.8-0.9,1.3c-0.1,0.4-0.2,0.8-0.1,1.2c0.1,0.4,0.2,0.9,0.5,1.5l2.1,5.1l-1.6,0.7
		L581.2,130.9z"/>
	<path style="fill:#F90808;" d="M591.2,123.2c0.2-0.7,0.8-1.3,1.9-1.8c0.1,0,0.2-0.1,0.3-0.1c0.1,0,0.2-0.1,0.4-0.1l0.6,1.5
		c-0.2,0.1-0.3,0.1-0.4,0.1s-0.2,0.1-0.2,0.1c-0.5,0.2-0.8,0.5-0.7,0.8s0.2,1,0.7,2l1.6-0.7l0.5,1.3l-1.6,0.7l3.5,8.3l-1.6,0.7
		l-3.5-8.3l-1.4,0.6l-0.5-1.3l1.4-0.6l-0.6-1.5C591.2,124.2,591.1,123.6,591.2,123.2z"/>
	<path style="fill:#F90808;" d="M595.4,120.7l1.6-0.7l5.6,13.2l-1.6,0.7L595.4,120.7z"/>
	<path style="fill:#F90808;" d="M599.5,119l1.7-0.7l0.8,1.8l-1.7,0.7L599.5,119z M601,122.6l1.7-0.7l4,9.6l-1.7,0.7L601,122.6z"/>
	<path style="fill:#F90808;" d="M611.9,118.6c0.9,0.2,1.7,1,2.4,2.2l-1.6,0.7c-0.3-0.6-0.8-1-1.3-1.2c-0.5-0.2-1.2-0.2-1.9,0.1
		c-1,0.4-1.6,1.3-1.6,2.5c0,0.8,0.2,1.6,0.6,2.6c0.4,1,1,1.7,1.6,2.2c0.7,0.5,1.5,0.5,2.4,0.2c0.7-0.3,1.1-0.7,1.4-1.3
		c0.2-0.6,0.3-1.3,0.1-2l1.6-0.7c0.4,1.4,0.3,2.5-0.2,3.4c-0.5,0.9-1.3,1.6-2.4,2.1c-1.3,0.5-2.5,0.5-3.6-0.1c-1.2-0.6-2-1.6-2.6-3
		c-0.7-1.7-0.8-3.2-0.4-4.5c0.4-1.3,1.3-2.2,2.6-2.8C609.9,118.5,611,118.4,611.9,118.6z"/>
	<path style="fill:#F90808;" d="M613.7,114l1.7-0.7l1.1,2.7l1.6-0.7l0.6,1.3l-1.6,0.7l2.6,6.3c0.1,0.3,0.4,0.5,0.6,0.5
		c0.2,0,0.4,0,0.7-0.2c0.1,0,0.2-0.1,0.3-0.1c0.1,0,0.2-0.1,0.3-0.2l0.5,1.3c-0.2,0.1-0.3,0.3-0.5,0.4c-0.2,0.1-0.4,0.2-0.6,0.3
		c-0.8,0.3-1.4,0.3-1.8,0.1s-0.8-0.7-1-1.3l-2.7-6.4l-1.3,0.6l-0.6-1.3l1.3-0.6L613.7,114z"/>
	<path style="fill:#F90808;" d="M619.2,110.7l1.9-0.8l1.8,4.3l2,5.9l-0.9,0.4L621,115L619.2,110.7z M624,122.1l1.8-0.8l0.8,1.9
		l-1.8,0.8L624,122.1z"/>
	<path style="fill:#F90808;" d="M624.4,108.5l1.9-0.8l1.8,4.3l2,5.9l-0.9,0.4l-2.9-5.5L624.4,108.5z M629.2,119.9l1.8-0.8l0.8,1.9
		l-1.8,0.8L629.2,119.9z"/>
	<path style="fill:#F90808;" d="M629.6,106.3l1.9-0.8l1.8,4.3l2,5.9l-0.9,0.4l-2.9-5.5L629.6,106.3z M634.4,117.7l1.8-0.8l0.8,1.9
		l-1.8,0.8L634.4,117.7z"/>
</g>
<g>
	<g>
		<path style="fill:none;stroke:#000000;stroke-width:2;stroke-miterlimit:10;" d="M555.1,108.6c-20.6-31.3-54.5-54-91.2-61.2
			C432.1,41.3,354.3,46,346.2,87"/>
		<g>
			<polygon points="562,101.1 562.3,121 544.9,111.3 			"/>
		</g>
	</g>
</g>
<g>
	<path d="M294,378.8c2.1-2.5,5.7-4.5,9.8-5.7c1.5-0.7,1.9-0.8,2-0.9l0.5-0.5c0.3-0.3,0.5-0.5,0.6-0.6c-0.9-0.5-2-0.8-3.2-1.2
		c-1.3-0.5-2.1-0.9-2.7-1.5c-0.7-0.7-1-1.4-1.2-2.1c0-0.1-0.1-0.6,0-3.9v-0.6l0.3-0.3c0.7-0.8,1.4-2.1,2-3.9c-0.1-1.2,0-2.2,0.3-3.1
		c-1-4.5-1.2-8.5-0.3-11.5c-0.1-0.1-0.2-0.4-0.2-0.5c-1.3-1.5-3.4-2.3-6.4-2.3c-2.1,0-2.3,0.3-2.7,0.8c-0.1,0.1-0.4,0.4-0.6,0.6
		l-0.4,0.4h-0.5c-1,0-1.9,0.3-2.3,1.2c-1.3,1.7-1.4,5.4-0.4,9.6l0.1,0.7l-0.5,0.6c-0.1,0.1-0.2,0.6,0,1.5c0.1,0.7,0.7,1.3,0.9,1.3
		l0.7,0.2l0.2,0.7c0.6,2,1,3,1.7,3.8l0.4,0.3v4.2c-0.1,1.3-0.8,1.9-1.3,2.3l-0.5,0.5c-0.5,0.4-0.9,0.6-2.4,1.3
		c-2.9,0.8-5.3,2.2-6.6,3.7l-0.6,0.6c-0.5,0.8-1,2.5-0.6,3.5c0.5,0.9,2.1,1.2,3.2,1.2h10.1L294,378.8z M283.6,382L283.6,382
		c-2.9-0.1-4.9-1-5.8-2.7c-1.5-2.8,0.6-6.3,0.8-6.6l0.6-0.7h0.1c1.7-2,4.5-3.6,7.9-4.5c1.2-0.6,1.4-0.6,1.5-0.7l0.4-0.3
		c0.5-0.5,0.5-0.5,0.5-0.5v-2.9c-0.8-1.2-1.4-2.5-1.9-3.8c-0.9-0.6-1.7-1.7-2-3c-0.2-1.3-0.2-2.3,0.2-3.2c-1.2-5-0.9-9.1,0.9-11.6
		c0.9-1.3,2.3-2.1,3.9-2.2c0.9-1.2,2-1.7,5.1-1.7c3.6,0,6.4,1.2,8.2,3.4c0.3,0.3,0.5,0.8,0.7,1.2l0.5,0.9l-0.2,0.6
		c-0.9,2.4-0.8,6.5,0.3,10.9l0.2,0.7l-0.5,0.6c-0.1,0.1-0.4,0.8-0.1,2l0.2,0.9l-0.5,0.4c-0.6,1.7-1.3,3-2.1,4.1c0,1.6,0,2.7,0,2.8
		c0,0.1,0.1,0.3,0.5,0.6c0.2,0.2,0.6,0.5,1.6,0.8c1.6,0.5,3.1,1,4.5,1.7l0.8,0.5v1.6c-0.2,1.4-0.8,2.1-1.5,2.8l-0.9,0.7
		c-0.6,0.5-1,0.7-2.9,1.5c-3.8,1-6.9,2.8-8.6,4.9l-0.5,0.6l-0.5,0.7L283.6,382z"/>
	<path d="M337.7,379.1h10.1c1.3,0,2.8-0.2,3.2-1.2c0.6-0.9-0.1-2.7-0.6-3.5l-0.6-0.6c-1.3-1.5-3.7-2.9-6.6-3.7
		c-1.5-0.7-2-0.8-2.4-1.3l-0.5-0.5c-0.6-0.6-1.2-1.2-1.3-2.3v-4.2l0.4-0.4c0.7-0.8,1.2-1.9,1.7-3.8l0.2-0.7l0.7-0.2
		c0.2-0.1,0.7-0.6,0.9-1.3c0.2-0.9,0-1.4,0-1.5l-0.5-0.6l0.1-0.7c1.2-4.3,1-8-0.3-9.6c-0.6-0.7-1.4-1.2-2.3-1.2h-0.5l-0.5-0.4
		c-0.2-0.2-0.5-0.5-0.6-0.6c-0.3-0.5-0.6-0.8-2.7-0.8c-3,0-5,0.8-6.4,2.3c-0.1,0.1-0.1,0.2-0.2,0.5c0.9,3,0.8,7.1-0.3,11.5
		c0.3,0.8,0.5,1.9,0.3,3.1c0.6,1.9,1.3,3.1,2,3.9l0.3,0.4v0.6c0.1,3.2,0,3.7,0,3.9c-0.1,0.8-0.6,1.5-1.2,2.1c-0.7,0.7-1.5,1-2.7,1.5
		c-1.2,0.3-2.2,0.7-3.2,1.2c0.1,0.1,0.2,0.2,0.6,0.6l0.5,0.5c0.1,0.1,0.5,0.2,2,0.9c4.2,1.2,7.8,3.1,9.8,5.7L337.7,379.1z
		 M347.7,382H336l-0.5-0.7l-0.5-0.6c-1.7-2-4.9-3.8-8.6-4.9c-1.9-0.8-2.3-1-2.9-1.5l-0.6-0.6c-0.7-0.7-1.4-1.4-1.5-2.8v-1.6l0.8-0.5
		c1.4-0.7,2.9-1.4,4.5-1.7c0.9-0.5,1.4-0.6,1.6-0.8c0.4-0.4,0.4-0.6,0.5-0.6c0-0.2,0-1.3,0-2.8c-0.8-0.9-1.4-2.3-2.1-4.1l-0.7-0.4
		l0.2-0.9c0.2-1.2,0-1.9-0.1-2l-0.5-0.6l0.2-0.7c1.2-4.4,1.3-8.5,0.3-11l-0.2-0.6l0.5-0.9c0.2-0.3,0.3-0.7,0.7-1.2
		c1.9-2.2,4.6-3.4,8.2-3.4c3.1,0,4.3,0.7,5.1,1.7c1.6,0.2,3,0.9,3.9,2.2c1.7,2.4,2.1,6.6,0.9,11.6c0.4,0.8,0.5,2,0.2,3.2
		c-0.2,1.3-1,2.3-2,3c-0.5,1.4-0.9,2.7-1.9,3.8v2.9c0,0.1,0,0.1,0.5,0.5l0.3,0.3c0,0,0.2,0.1,1.5,0.7c3.2,0.9,6.1,2.5,7.9,4.5h0.1
		l0.6,0.7c0.2,0.4,2.3,3.9,0.8,6.6C352.6,380.9,350.6,381.9,347.7,382z"/>
	<path d="M354.4,372.8h8.2c1,0,2.3-0.2,2.7-0.9c0.5-0.8-0.1-2.2-0.5-2.9l-0.5-0.5c-1-1.3-3-2.4-5.4-3c-1.3-0.6-1.6-0.7-2-1l-0.3-0.3
		c-0.5-0.5-0.9-0.9-1-2v-3.4l0.2-0.4c0.6-0.6,0.9-1.5,1.4-3.1l0.1-0.6l0.6-0.2c0.2-0.1,0.6-0.5,0.7-1c0.1-0.8,0-1.2,0-1.2l-0.3-0.5
		l0.1-0.6c0.9-3.5,0.8-6.5-0.2-8c-0.5-0.6-1.2-0.9-2-0.9h-0.5l-0.3-0.2c-0.2-0.2-0.4-0.4-0.5-0.5c-0.2-0.3-0.5-0.7-2.2-0.7
		c-2.4,0-4.2,0.7-5.2,2c-0.1,0.1-0.1,0.2-0.2,0.4c0.7,2.4,0.7,5.8-0.2,9.5c0.4,0.7,0.5,1.5,0.4,2.5c0.5,1.5,1,2.5,1.6,3.2l0.2,0.4
		v0.5c0.1,2.7,0,3.1,0,3.2c-0.1,0.7-0.5,1.2-1,1.7c-0.6,0.6-1.2,0.8-2.2,1.3c-1,0.2-1.9,0.6-2.7,0.9c0.1,0.1,0.2,0.2,0.5,0.5
		l0.3,0.3c0.1,0.1,0.4,0.2,1.6,0.8c3.5,0.9,6.4,2.7,8.1,4.6H354.4z M362.8,375.3h-9.6l-0.3-0.6l-0.4-0.5c-1.4-1.6-3.9-3.1-7.1-3.9
		c-1.5-0.7-2-0.8-2.4-1.3l-0.5-0.5c-0.6-0.6-1.2-1-1.3-2.3v-1.3l0.6-0.3c1.2-0.6,2.4-1.2,3.7-1.5c0.8-0.3,1.2-0.5,1.3-0.7
		c0.2-0.2,0.3-0.5,0.3-0.6c0-0.1,0-1,0-2.3c-0.6-0.8-1.2-1.9-1.7-3.4l-0.5-0.2l0.1-0.8c0.2-1,0-1.5-0.1-1.6l-0.2-0.3l0.1-0.6
		c0.9-3.6,1-6.9,0.2-9l-0.2-0.5l0.4-0.7c0.1-0.2,0.3-0.6,0.6-0.9c1.5-1.9,3.8-2.8,6.8-2.8c2.5,0,3.5,0.6,4.2,1.4
		c1.3,0.1,2.4,0.8,3.2,1.9c1.5,2,1.7,5.4,0.8,9.5c0.3,0.7,0.3,1.6,0.1,2.7c-0.2,1-0.8,2-1.6,2.4c-0.3,1.2-0.8,2.2-1.5,3.1v2.4
		c0,0,0,0,0.3,0.5l0.4,0.4c0,0,0.2,0.1,1.2,0.6c2.7,0.7,5.1,2.1,6.5,3.7h0.1l0.5,0.6c0.2,0.4,1.9,3.2,0.7,5.4
		C366.8,374.4,365.2,375.1,362.8,375.3z"/>
	<path d="M277.6,372.8c1.7-2.1,4.6-3.7,8.1-4.6c1.3-0.6,1.5-0.7,1.6-0.8l0.3-0.3c0.2-0.2,0.5-0.5,0.5-0.5c-0.8-0.4-1.6-0.7-2.7-0.9
		c-1-0.5-1.7-0.7-2.2-1.3c-0.6-0.6-0.9-1.2-1-1.7c0-0.1-0.1-0.5,0-3.2v-0.5l0.2-0.4c0.6-0.7,1.2-1.7,1.6-3.2c-0.1-1,0-1.9,0.4-2.5
		c-0.9-3.7-1-6.9-0.2-9.5c-0.1-0.1-0.1-0.2-0.2-0.4c-1-1.3-2.8-2-5.2-2c-1.7,0-2,0.2-2.2,0.7c-0.1,0.1-0.2,0.4-0.5,0.5l-0.3,0.2
		h-0.5c-0.8,0-1.5,0.4-2,0.9c-1,1.4-1.2,4.5-0.2,8l0.1,0.6l-0.2,0.6c0,0.1-0.2,0.5,0,1.2c0.1,0.6,0.6,1,0.7,1l0.6,0.2l0.1,0.6
		c0.5,1.6,0.9,2.5,1.4,3.1l0.2,0.4v3.4c-0.1,1-0.6,1.5-1,2l-0.4,0.4c-0.4,0.3-0.7,0.5-2,1c-2.4,0.7-4.4,1.7-5.4,3l-0.5,0.5
		c-0.3,0.7-0.9,2.1-0.5,2.9c0.6,0.7,1.9,0.9,2.8,0.9h8.2L277.6,372.8z M269,375.4L269,375.4c-2.4-0.1-4.1-0.8-4.7-2.2
		c-1.3-2.3,0.5-5.1,0.7-5.4l0.4-0.6h0.1c1.4-1.6,3.7-3,6.5-3.7c0.9-0.5,1.2-0.5,1.2-0.6l0.4-0.4c0.3-0.4,0.3-0.4,0.3-0.5v-2.4
		c-0.7-0.9-1.2-2.1-1.5-3.1c-0.8-0.6-1.4-1.4-1.6-2.4c-0.2-1-0.1-2,0.1-2.7c-1-4.1-0.7-7.5,0.8-9.5c0.8-1,2-1.7,3.2-1.9
		c0.7-0.9,1.6-1.4,4.2-1.4c3,0,5.3,0.9,6.8,2.8c0.2,0.4,0.5,0.6,0.6,0.9l0.4,0.7l-0.2,0.5c-0.8,2.1-0.7,5.4,0.2,9l0.1,0.6l-0.4,0.5
		c-0.1,0.1-0.2,0.7-0.1,1.6l0.1,0.8l-0.5,0.2c-0.5,1.4-1,2.5-1.7,3.4c0,1.3,0,2.2,0,2.3c0,0.1,0.1,0.2,0.3,0.6
		c0.2,0.2,0.5,0.3,1.3,0.7c1.4,0.4,2.5,0.8,3.7,1.5l0.6,0.3v1.3c-0.1,1.2-0.7,1.7-1.3,2.3l-0.5,0.5c-0.5,0.4-0.9,0.6-2.4,1.3
		c-3.1,0.8-5.7,2.3-7.1,3.9l-0.3,0.5l-0.4,0.6L269,375.4z"/>
	<path d="M315.3,391.6l0.1-3l15.9,0.2c1.6,0,3.8-0.3,4.6-1.6c0.8-1.4-0.1-3.8-0.7-5l-0.7-0.7c-1.7-2.1-5-3.9-8.8-5
		c-2-0.8-2.4-1-3-1.5l-0.6-0.6c-0.7-0.7-1.4-1.4-1.5-2.9v-5.1l0.4-0.5c0.9-1,1.5-2.5,2.4-5.1l0.2-0.7l0.7-0.2
		c0.5-0.1,1.2-0.9,1.4-2.1c0.2-1.3,0.1-2.1-0.1-2.3l-0.5-0.6l0.2-0.7c1.4-5.7,1.3-10.6-0.5-12.9c-0.8-1-2-1.6-3.4-1.6H321l-0.3-0.4
		c-0.4-0.2-0.5-0.5-0.6-0.7c-0.5-0.7-0.8-1.2-3.8-1.2h-0.4c-3.7,0-6.5,1-8.2,3.2c-2.4,2.9-3,7.5-2,13.9l0.1,0.6l-0.4,0
		c-0.2,0.3-0.4,1-0.1,2.2c0.1,0.9,0.7,1.6,1.2,2.1l0.5,0.2l0.2,0.6c0.8,2.4,1.6,4.2,2.7,5.2l0.3,0.4v0.5c0,2,0.1,4.4,0,5
		c-0.1,0.9-0.6,1.7-1.4,2.7c-0.8,0.9-2,1.3-3.4,2c-4.3,1.2-7.5,3-9.4,5.1l-0.5,0.6c-0.5,0.7-1.6,3.5-0.8,5.1c0.7,1.3,3,1.6,4.6,1.6
		h16v3h-16.2c-3.7-0.1-6.1-1.2-7.3-3.4c-2-3.5,0.7-7.8,0.9-8.2l0.6-0.7c2.2-2.7,6-4.7,10.6-6c1.4-0.6,2-0.8,2.3-1.2
		c0.5-0.5,0.6-0.8,0.6-1c0-0.2,0-1.6,0-3.8c-0.9-1.3-2-3-2.8-5.2c-1-0.8-2-2.2-2.3-3.7c-0.2-1.4-0.1-2.9,0.2-3.8
		c-0.9-7.1,0-12.3,2.9-15.7c2.4-2.9,5.9-4.3,10.5-4.3h0.4c3.7,0,5,0.8,6.3,2.3c2.1,0.2,3.8,1.2,5,2.8c2.3,3.1,2.7,8.5,1,14.8
		c0.5,1,0.6,2.5,0.2,4.1c-0.3,1.5-1.3,3-2.5,3.7c-0.6,1.7-1.3,3.7-2.4,5.1v3.9c0,0.2,0.1,0.4,0.7,0.9l0.5,0.5
		c0.1,0.1,0.5,0.2,2.1,0.9c4.3,1.2,8,3.2,10.2,5.9l0.7,0.7c0.4,0.5,2.9,4.9,0.9,8.2c-1.2,2.1-3.6,3.2-7.2,3.4L315.3,391.6
		L315.3,391.6z"/>
</g>
</svg>
