<?xml version="1.0" encoding="utf-8"?>
<!-- Generator: Adobe Illustrator 17.1.0, SVG Export Plug-In . SVG Version: 6.00 Build 0)  -->
<!DOCTYPE svg PUBLIC "-//W3C//DTD SVG 1.1//EN" "http://www.w3.org/Graphics/SVG/1.1/DTD/svg11.dtd">
<svg version="1.1" id="Layer_1" xmlns="http://www.w3.org/2000/svg" xmlns:xlink="http://www.w3.org/1999/xlink" x="0px" y="0px"
	 viewBox="0 0 775 445" style="enable-background:new 0 0 775 445;" xml:space="preserve">
<g>
	<polygon style="fill:#F2F4F4;" points="215,409 532,28 760.4,28 562.9,409 	"/>
	<g>
		<polyline style="fill:none;stroke:#8E8E8E;stroke-miterlimit:10;" points="218,408.5 215,408.5 216.9,406.2 		"/>
		
			<line style="fill:none;stroke:#8E8E8E;stroke-miterlimit:10;stroke-dasharray:6.0448,6.0448;" x1="220.8" y1="401.5" x2="528.1" y2="32.1"/>
		<polyline style="fill:none;stroke:#8E8E8E;stroke-miterlimit:10;" points="530.1,29.8 532,27.5 535,27.5 		"/>
		<line style="fill:none;stroke:#8E8E8E;stroke-miterlimit:10;stroke-dasharray:6,6;" x1="541" y1="27.5" x2="754" y2="27.5"/>
		<polyline style="fill:none;stroke:#8E8E8E;stroke-miterlimit:10;" points="757,27.5 760.4,27.5 758.8,30.2 		"/>
		
			<line style="fill:none;stroke:#8E8E8E;stroke-miterlimit:10;stroke-dasharray:5.9599,5.9599;" x1="756.3" y1="35.5" x2="565.7" y2="403.2"/>
		<polyline style="fill:none;stroke:#8E8E8E;stroke-miterlimit:10;" points="564.3,405.8 562.9,408.5 560,408.5 		"/>
		<line style="fill:none;stroke:#8E8E8E;stroke-miterlimit:10;stroke-dasharray:6,6;" x1="554" y1="408.5" x2="221" y2="408.5"/>
	</g>
</g>
<path d="M562.9,74.2l-50.5,50.5c-1.1,1.1-1.1,2.9,0,4l50.5,50.5l-10.6,10.6l-54.5-54.5c-4.8-4.8-4.8-12.5,0-17.3l54.3-54.3
	L562.9,74.2z"/>
<path d="M581.3,149.3l24.3-24.3c1.1-1.1,1.1-2.9,0-4l-24.3-24.3L591.8,86l28.3,28.3c4.8,4.8,4.8,12.5,0,17.3L592,159.7L581.3,149.3z
	"/>
<path d="M150.8,95.8V75H176v20.8L150.8,95.8L150.8,95.8z M176,204.6h53.4v-44h-14V193h-25.3v-32.4h-39.3v-20.8h39.3v-32.4h39.3V75
	h39.3V31h-53.4v11.6h39.3v20.8h-39.3v32.4h-25.3V63.4h-53.4v44H176v20.8h-39.3v44H176L176,204.6L176,204.6z"/>
<g>
	<g>
		<path d="M170.8,228.6c1.1,1.1,1.8,2.4,1.9,3.8h-2.2c-0.2-1.1-0.7-1.9-1.5-2.5c-0.7-0.6-1.7-0.9-3-0.9c-1.6,0-2.9,0.6-3.9,1.7
			c-1,1.1-1.5,2.9-1.5,5.3c0,1.9,0.4,3.5,1.3,4.7c0.9,1.2,2.2,1.8,4,1.8c1.6,0,2.9-0.6,3.7-1.9c0.4-0.7,0.8-1.5,1-2.6h2.2
			c-0.2,1.7-0.8,3.2-1.9,4.4c-1.3,1.4-3,2.1-5.2,2.1c-1.9,0-3.5-0.6-4.8-1.7c-1.7-1.5-2.5-3.9-2.5-7.1c0-2.4,0.6-4.4,1.9-6
			c1.4-1.7,3.3-2.5,5.7-2.5C168,227,169.6,227.5,170.8,228.6z"/>
		<path d="M184.2,233.1c1.1,1,1.6,2.6,1.6,4.6c0,1.9-0.5,3.5-1.4,4.8c-0.9,1.3-2.4,1.9-4.4,1.9c-1.6,0-2.9-0.6-3.9-1.7
			s-1.4-2.6-1.4-4.5c0-2,0.5-3.6,1.5-4.8c1-1.2,2.4-1.8,4.1-1.8C181.8,231.5,183.1,232.1,184.2,233.1z M182.9,241.1
			c0.5-1,0.7-2.1,0.7-3.4c0-1.1-0.2-2-0.5-2.7c-0.6-1.1-1.5-1.7-2.9-1.7c-1.2,0-2.1,0.5-2.7,1.4c-0.6,0.9-0.8,2.1-0.8,3.4
			c0,1.3,0.3,2.3,0.8,3.2c0.6,0.9,1.4,1.3,2.6,1.3C181.5,242.6,182.4,242.1,182.9,241.1z"/>
		<path d="M188.2,231.9h2v1.7c0.5-0.6,0.9-1,1.3-1.3c0.7-0.5,1.4-0.7,2.3-0.7c1,0,1.7,0.2,2.3,0.7c0.3,0.3,0.6,0.7,0.9,1.2
			c0.4-0.6,1-1.1,1.6-1.4c0.6-0.3,1.3-0.5,2-0.5c1.6,0,2.7,0.6,3.3,1.8c0.3,0.6,0.5,1.5,0.5,2.5v8h-2.1v-8.4c0-0.8-0.2-1.4-0.6-1.7
			c-0.4-0.3-0.9-0.4-1.5-0.4c-0.8,0-1.5,0.3-2,0.8c-0.6,0.5-0.9,1.4-0.9,2.7v7h-2.1v-7.9c0-0.8-0.1-1.4-0.3-1.8
			c-0.3-0.6-0.9-0.8-1.7-0.8c-0.8,0-1.5,0.3-2.1,0.9c-0.6,0.6-0.9,1.7-0.9,3.2v6.4h-2V231.9z"/>
		<path d="M207.2,231.9h2v1.6c0.4-0.5,0.8-1,1.3-1.3c0.7-0.4,1.5-0.7,2.4-0.7c1.4,0,2.5,0.5,3.5,1.6c1,1,1.4,2.5,1.4,4.5
			c0,2.6-0.7,4.5-2.1,5.6c-0.9,0.7-1.9,1.1-3,1.1c-0.9,0-1.7-0.2-2.3-0.6c-0.4-0.2-0.8-0.6-1.2-1.2v6.1h-2V231.9z M214.8,241.4
			c0.6-0.8,0.9-2,0.9-3.5c0-1-0.1-1.8-0.4-2.5c-0.5-1.3-1.5-2-2.9-2c-1.4,0-2.4,0.7-2.9,2.1c-0.3,0.7-0.4,1.7-0.4,2.9
			c0,0.9,0.1,1.7,0.4,2.4c0.5,1.2,1.5,1.9,2.9,1.9C213.4,242.6,214.2,242.2,214.8,241.4z"/>
		<path d="M220.2,227.4h2v16.5h-2V227.4z"/>
		<path d="M232.7,232.2c0.8,0.4,1.4,0.9,1.8,1.6c0.4,0.6,0.7,1.3,0.8,2.1c0.1,0.6,0.2,1.4,0.2,2.7h-8.7c0,1.2,0.3,2.2,0.9,2.9
			c0.5,0.7,1.4,1.1,2.5,1.1c1,0,1.9-0.3,2.5-1c0.3-0.4,0.6-0.9,0.7-1.4h2c-0.1,0.4-0.2,0.9-0.5,1.5s-0.6,1-1,1.3
			c-0.6,0.6-1.4,1-2.3,1.2c-0.5,0.1-1,0.2-1.6,0.2c-1.5,0-2.7-0.5-3.8-1.6c-1-1.1-1.6-2.6-1.6-4.6c0-1.9,0.5-3.5,1.6-4.7
			c1-1.2,2.4-1.8,4.1-1.8C231.1,231.6,231.9,231.8,232.7,232.2z M233.5,236.9c-0.1-0.9-0.3-1.6-0.6-2.1c-0.5-1-1.5-1.5-2.8-1.5
			c-0.9,0-1.7,0.3-2.3,1c-0.6,0.7-1,1.5-1,2.6H233.5z"/>
		<path d="M236.9,231.9h2.6l2.8,4.2l2.8-4.2l2.5,0.1l-4.1,5.8l4.2,6.2h-2.6l-3-4.5l-2.9,4.5h-2.6l4.2-6.2L236.9,231.9z"/>
		<path d="M151.6,259.5h2v1.6c0.4-0.5,0.8-1,1.3-1.3c0.7-0.4,1.5-0.7,2.4-0.7c1.4,0,2.5,0.5,3.5,1.6c1,1,1.4,2.5,1.4,4.5
			c0,2.6-0.7,4.5-2.1,5.6c-0.9,0.7-1.9,1.1-3,1.1c-0.9,0-1.7-0.2-2.3-0.6c-0.4-0.2-0.8-0.6-1.2-1.2v6.1h-2V259.5z M159.2,269
			c0.6-0.8,0.9-2,0.9-3.5c0-1-0.1-1.8-0.4-2.5c-0.5-1.3-1.5-2-2.9-2c-1.4,0-2.4,0.7-2.9,2.1c-0.3,0.7-0.4,1.7-0.4,2.9
			c0,0.9,0.1,1.7,0.4,2.4c0.5,1.2,1.5,1.9,2.9,1.9C157.8,270.2,158.6,269.8,159.2,269z"/>
		<path d="M164.7,259.5h1.9v2.1c0.2-0.4,0.5-0.9,1.2-1.5c0.6-0.6,1.3-0.9,2.1-0.9c0,0,0.1,0,0.2,0c0.1,0,0.2,0,0.5,0v2.1
			c-0.1,0-0.2,0-0.3,0c-0.1,0-0.2,0-0.3,0c-1,0-1.8,0.3-2.3,1c-0.5,0.7-0.8,1.4-0.8,2.3v6.9h-2V259.5z"/>
		<path d="M181,260.7c1.1,1,1.6,2.6,1.6,4.6c0,1.9-0.5,3.5-1.4,4.8c-0.9,1.3-2.4,1.9-4.4,1.9c-1.6,0-2.9-0.6-3.9-1.7
			c-1-1.1-1.5-2.6-1.5-4.5c0-2,0.5-3.6,1.5-4.8c1-1.2,2.4-1.8,4.1-1.8C178.6,259.1,179.9,259.7,181,260.7z M179.7,268.7
			c0.5-1,0.7-2.1,0.7-3.4c0-1.1-0.2-2-0.5-2.7c-0.6-1.1-1.5-1.7-2.9-1.7c-1.2,0-2.1,0.5-2.7,1.4c-0.6,0.9-0.8,2.1-0.8,3.4
			c0,1.3,0.3,2.3,0.8,3.2c0.6,0.9,1.4,1.3,2.6,1.3C178.3,270.2,179.2,269.7,179.7,268.7z"/>
		<path d="M193,260.1c0.9,0.7,1.4,1.8,1.5,3.4h-2c-0.1-0.7-0.4-1.4-0.8-1.8s-1.1-0.7-2.1-0.7c-1.3,0-2.2,0.6-2.8,1.9
			c-0.4,0.8-0.5,1.8-0.5,3c0,1.2,0.3,2.2,0.8,3c0.5,0.8,1.3,1.2,2.4,1.2c0.8,0,1.5-0.3,2-0.8c0.5-0.5,0.8-1.2,1-2.1h2
			c-0.2,1.6-0.8,2.8-1.7,3.5s-2,1.1-3.4,1.1c-1.6,0-2.8-0.6-3.8-1.7c-0.9-1.1-1.4-2.6-1.4-4.3c0-2.1,0.5-3.8,1.5-4.9
			c1-1.2,2.3-1.8,3.9-1.8C191,259.1,192.1,259.5,193,260.1z"/>
		<path d="M204,259.8c0.8,0.4,1.4,0.9,1.8,1.6c0.4,0.6,0.7,1.3,0.8,2.1c0.1,0.6,0.2,1.4,0.2,2.7H198c0,1.2,0.3,2.2,0.9,2.9
			s1.4,1.1,2.5,1.1c1,0,1.9-0.3,2.5-1c0.3-0.4,0.6-0.9,0.7-1.4h2c-0.1,0.4-0.2,0.9-0.5,1.5c-0.3,0.5-0.6,1-1,1.3
			c-0.6,0.6-1.4,1-2.3,1.2c-0.5,0.1-1,0.2-1.6,0.2c-1.5,0-2.7-0.5-3.8-1.6c-1-1.1-1.6-2.6-1.6-4.6c0-1.9,0.5-3.5,1.6-4.7
			c1-1.2,2.4-1.8,4.1-1.8C202.4,259.2,203.2,259.4,204,259.8z M204.7,264.5c-0.1-0.9-0.3-1.6-0.6-2.1c-0.5-1-1.5-1.5-2.8-1.5
			c-0.9,0-1.7,0.3-2.3,1c-0.6,0.7-1,1.5-1,2.6H204.7z"/>
		<path d="M210.5,267.7c0.1,0.7,0.2,1.2,0.5,1.5c0.5,0.7,1.4,1,2.7,1c0.8,0,1.4-0.2,2-0.5c0.6-0.3,0.9-0.8,0.9-1.5
			c0-0.5-0.2-0.9-0.7-1.2c-0.3-0.2-0.9-0.4-1.8-0.6l-1.6-0.4c-1-0.3-1.8-0.5-2.3-0.9c-0.9-0.5-1.3-1.3-1.3-2.3
			c0-1.1,0.4-2.1,1.2-2.8c0.8-0.7,1.9-1.1,3.4-1.1c1.8,0,3.2,0.5,4,1.6c0.5,0.7,0.8,1.4,0.7,2.2h-1.9c0-0.5-0.2-0.9-0.5-1.2
			c-0.5-0.5-1.3-0.8-2.5-0.8c-0.8,0-1.4,0.1-1.8,0.4s-0.6,0.7-0.6,1.2c0,0.5,0.3,0.9,0.8,1.3c0.3,0.2,0.8,0.4,1.4,0.5l1.4,0.3
			c1.5,0.4,2.5,0.7,3,1c0.8,0.5,1.2,1.3,1.2,2.4c0,1.1-0.4,2-1.2,2.8c-0.8,0.8-2.1,1.2-3.8,1.2c-1.8,0-3.1-0.4-3.8-1.2
			c-0.8-0.8-1.2-1.8-1.2-3H210.5z"/>
		<path d="M222,267.7c0.1,0.7,0.2,1.2,0.5,1.5c0.5,0.7,1.4,1,2.7,1c0.8,0,1.4-0.2,2-0.5c0.6-0.3,0.9-0.8,0.9-1.5
			c0-0.5-0.2-0.9-0.7-1.2c-0.3-0.2-0.9-0.4-1.8-0.6l-1.6-0.4c-1-0.3-1.8-0.5-2.3-0.9c-0.9-0.5-1.3-1.3-1.3-2.3
			c0-1.1,0.4-2.1,1.2-2.8c0.8-0.7,1.9-1.1,3.4-1.1c1.8,0,3.2,0.5,4,1.6c0.5,0.7,0.8,1.4,0.7,2.2h-1.9c0-0.5-0.2-0.9-0.5-1.2
			c-0.5-0.5-1.3-0.8-2.5-0.8c-0.8,0-1.4,0.1-1.8,0.4s-0.6,0.7-0.6,1.2c0,0.5,0.3,0.9,0.8,1.3c0.3,0.2,0.8,0.4,1.4,0.5l1.4,0.3
			c1.5,0.4,2.5,0.7,3,1c0.8,0.5,1.2,1.3,1.2,2.4c0,1.1-0.4,2-1.2,2.8c-0.8,0.8-2.1,1.2-3.8,1.2c-1.8,0-3.1-0.4-3.8-1.2
			c-0.8-0.8-1.2-1.8-1.2-3H222z"/>
		<path d="M239.8,259.8c0.8,0.4,1.4,0.9,1.8,1.6c0.4,0.6,0.7,1.3,0.8,2.1c0.1,0.6,0.2,1.4,0.2,2.7h-8.7c0,1.2,0.3,2.2,0.9,2.9
			c0.5,0.7,1.4,1.1,2.5,1.1c1,0,1.9-0.3,2.5-1c0.3-0.4,0.6-0.9,0.7-1.4h2c-0.1,0.4-0.2,0.9-0.5,1.5c-0.3,0.5-0.6,1-1,1.3
			c-0.6,0.6-1.4,1-2.3,1.2c-0.5,0.1-1,0.2-1.6,0.2c-1.5,0-2.7-0.5-3.8-1.6c-1-1.1-1.6-2.6-1.6-4.6c0-1.9,0.5-3.5,1.6-4.7
			c1-1.2,2.4-1.8,4.1-1.8C238.1,259.2,239,259.4,239.8,259.8z M240.5,264.5c-0.1-0.9-0.3-1.6-0.6-2.1c-0.5-1-1.5-1.5-2.8-1.5
			c-0.9,0-1.7,0.3-2.3,1c-0.6,0.7-1,1.5-1,2.6H240.5z"/>
		<path d="M246.3,267.7c0.1,0.7,0.2,1.2,0.5,1.5c0.5,0.7,1.4,1,2.7,1c0.8,0,1.4-0.2,2-0.5c0.6-0.3,0.9-0.8,0.9-1.5
			c0-0.5-0.2-0.9-0.7-1.2c-0.3-0.2-0.9-0.4-1.8-0.6l-1.6-0.4c-1-0.3-1.8-0.5-2.3-0.9c-0.9-0.5-1.3-1.3-1.3-2.3
			c0-1.1,0.4-2.1,1.2-2.8c0.8-0.7,1.9-1.1,3.4-1.1c1.8,0,3.2,0.5,4,1.6c0.5,0.7,0.8,1.4,0.7,2.2h-1.9c0-0.5-0.2-0.9-0.5-1.2
			c-0.5-0.5-1.3-0.8-2.5-0.8c-0.8,0-1.4,0.1-1.8,0.4s-0.6,0.7-0.6,1.2c0,0.5,0.3,0.9,0.8,1.3c0.3,0.2,0.8,0.4,1.3,0.5l1.4,0.3
			c1.5,0.4,2.5,0.7,3,1c0.8,0.5,1.2,1.3,1.2,2.4c0,1.1-0.4,2-1.2,2.8c-0.8,0.8-2.1,1.2-3.8,1.2c-1.8,0-3.1-0.4-3.8-1.2
			c-0.8-0.8-1.2-1.8-1.2-3H246.3z"/>
	</g>
</g>
<g>
	<path d="M530.8,225.6c0.1,0.9,0.3,1.7,0.6,2.3c0.7,1.1,2,1.6,3.8,1.6c0.8,0,1.5-0.1,2.2-0.4c1.3-0.5,1.9-1.3,1.9-2.5
		c0-0.9-0.3-1.5-0.8-1.9c-0.6-0.4-1.4-0.7-2.6-1l-2.2-0.5c-1.4-0.3-2.4-0.7-3-1.1c-1-0.7-1.5-1.7-1.5-3.1c0-1.5,0.5-2.7,1.5-3.6
		c1-1,2.4-1.4,4.2-1.4c1.7,0,3.1,0.4,4.3,1.3c1.2,0.8,1.8,2.2,1.8,4h-2.1c-0.1-0.9-0.3-1.6-0.7-2c-0.7-0.9-1.8-1.3-3.3-1.3
		c-1.3,0-2.2,0.3-2.7,0.8c-0.6,0.6-0.8,1.2-0.8,1.9c0,0.8,0.3,1.4,1,1.8c0.4,0.2,1.4,0.5,2.9,0.9l2.2,0.5c1.1,0.3,1.9,0.6,2.5,1
		c1,0.8,1.5,1.9,1.5,3.4c0,1.8-0.6,3.1-1.9,3.9c-1.3,0.8-2.8,1.2-4.5,1.2c-2,0-3.6-0.5-4.7-1.6c-1.1-1-1.7-2.5-1.7-4.2H530.8z"/>
	<path d="M544.4,214.4h2.1v2.3h-2.1V214.4z M544.4,218.9h2.1v12h-2.1V218.9z"/>
	<path d="M549.5,218.9h2v1.7c0.5-0.6,0.9-1,1.3-1.3c0.7-0.5,1.4-0.7,2.3-0.7c1,0,1.7,0.2,2.3,0.7c0.3,0.3,0.6,0.7,0.9,1.2
		c0.4-0.6,1-1.1,1.6-1.4s1.3-0.5,2-0.5c1.6,0,2.7,0.6,3.3,1.8c0.3,0.6,0.5,1.5,0.5,2.5v8h-2.1v-8.4c0-0.8-0.2-1.4-0.6-1.7
		c-0.4-0.3-0.9-0.4-1.5-0.4c-0.8,0-1.5,0.3-2,0.8c-0.6,0.5-0.9,1.4-0.9,2.7v7h-2.1v-7.8c0-0.8-0.1-1.4-0.3-1.8
		c-0.3-0.6-0.9-0.8-1.7-0.8c-0.8,0-1.5,0.3-2.1,0.9c-0.6,0.6-0.9,1.7-0.9,3.2v6.4h-2V218.9z"/>
	<path d="M568.5,218.9h2v1.6c0.4-0.5,0.8-1,1.3-1.3c0.7-0.4,1.5-0.7,2.4-0.7c1.4,0,2.5,0.5,3.5,1.6c1,1,1.4,2.5,1.4,4.5
		c0,2.6-0.7,4.5-2.1,5.6c-0.9,0.7-1.9,1.1-3,1.1c-0.9,0-1.7-0.2-2.3-0.6c-0.4-0.2-0.8-0.6-1.2-1.2v6.1h-2V218.9z M576.1,228.4
		c0.6-0.8,0.9-2,0.9-3.5c0-1-0.1-1.8-0.4-2.5c-0.5-1.3-1.5-2-2.9-2c-1.4,0-2.4,0.7-2.9,2.1c-0.3,0.7-0.4,1.7-0.4,2.9
		c0,0.9,0.1,1.7,0.4,2.4c0.5,1.2,1.5,1.9,2.9,1.9C574.7,229.6,575.5,229.2,576.1,228.4z"/>
	<path d="M581.5,214.4h2v16.5h-2V214.4z"/>
	<path d="M594,219.2c0.8,0.4,1.4,0.9,1.8,1.6c0.4,0.6,0.7,1.3,0.8,2.1c0.1,0.6,0.2,1.4,0.2,2.7h-8.7c0,1.2,0.3,2.2,0.9,2.9
		s1.4,1.1,2.5,1.1c1,0,1.9-0.3,2.5-1c0.3-0.4,0.6-0.9,0.7-1.4h2c-0.1,0.4-0.2,0.9-0.5,1.5c-0.3,0.5-0.6,1-1,1.3
		c-0.6,0.6-1.4,1-2.3,1.2c-0.5,0.1-1,0.2-1.6,0.2c-1.5,0-2.7-0.5-3.8-1.6c-1-1.1-1.6-2.6-1.6-4.6c0-1.9,0.5-3.5,1.6-4.7
		c1-1.2,2.4-1.8,4.1-1.8C592.4,218.6,593.2,218.8,594,219.2z M594.7,223.9c-0.1-0.9-0.3-1.6-0.6-2.1c-0.5-1-1.5-1.5-2.8-1.5
		c-0.9,0-1.7,0.3-2.3,1c-0.6,0.7-1,1.5-1,2.6H594.7z"/>
	<path d="M511.6,246.5h2v1.6c0.4-0.5,0.8-1,1.3-1.3c0.7-0.4,1.5-0.7,2.4-0.7c1.4,0,2.5,0.5,3.5,1.6c1,1,1.4,2.5,1.4,4.5
		c0,2.6-0.7,4.5-2.1,5.6c-0.9,0.7-1.9,1.1-3,1.1c-0.9,0-1.7-0.2-2.3-0.6c-0.4-0.2-0.8-0.6-1.2-1.2v6.1h-2V246.5z M519.2,256
		c0.6-0.8,0.9-2,0.9-3.5c0-1-0.1-1.8-0.4-2.5c-0.5-1.3-1.5-2-2.9-2c-1.4,0-2.4,0.7-2.9,2.1c-0.3,0.7-0.4,1.7-0.4,2.9
		c0,0.9,0.1,1.7,0.4,2.4c0.5,1.2,1.5,1.9,2.9,1.9C517.8,257.2,518.6,256.8,519.2,256z"/>
	<path d="M524.7,246.5h1.9v2.1c0.2-0.4,0.5-0.9,1.2-1.5c0.6-0.6,1.3-0.9,2.1-0.9c0,0,0.1,0,0.2,0c0.1,0,0.2,0,0.5,0v2.1
		c-0.1,0-0.2,0-0.3,0c-0.1,0-0.2,0-0.3,0c-1,0-1.8,0.3-2.3,1c-0.5,0.7-0.8,1.4-0.8,2.3v6.9h-2V246.5z"/>
	<path d="M541,247.7c1.1,1,1.6,2.6,1.6,4.6c0,1.9-0.5,3.5-1.4,4.8c-0.9,1.3-2.4,1.9-4.4,1.9c-1.6,0-2.9-0.6-3.9-1.7
		c-1-1.1-1.5-2.6-1.5-4.5c0-2,0.5-3.6,1.5-4.8c1-1.2,2.4-1.8,4.1-1.8C538.6,246.1,539.9,246.7,541,247.7z M539.7,255.7
		c0.5-1,0.7-2.1,0.7-3.4c0-1.1-0.2-2-0.5-2.7c-0.6-1.1-1.5-1.7-2.9-1.7c-1.2,0-2.1,0.5-2.7,1.4c-0.6,0.9-0.8,2.1-0.8,3.4
		c0,1.3,0.3,2.3,0.8,3.2c0.6,0.9,1.4,1.3,2.6,1.3C538.3,257.2,539.2,256.7,539.7,255.7z"/>
	<path d="M553,247.1c0.9,0.7,1.4,1.8,1.5,3.4h-2c-0.1-0.7-0.4-1.4-0.8-1.8c-0.4-0.5-1.1-0.7-2.1-0.7c-1.3,0-2.2,0.6-2.8,1.9
		c-0.4,0.8-0.5,1.8-0.5,3c0,1.2,0.3,2.2,0.8,3c0.5,0.8,1.3,1.2,2.4,1.2c0.8,0,1.5-0.3,2-0.8s0.8-1.2,1-2.1h2
		c-0.2,1.6-0.8,2.8-1.7,3.5c-0.9,0.7-2,1.1-3.4,1.1c-1.6,0-2.8-0.6-3.8-1.7c-0.9-1.1-1.4-2.6-1.4-4.3c0-2.1,0.5-3.8,1.5-4.9
		c1-1.2,2.3-1.8,3.9-1.8C551,246.1,552.1,246.5,553,247.1z"/>
	<path d="M564,246.8c0.8,0.4,1.4,0.9,1.8,1.6c0.4,0.6,0.7,1.3,0.8,2.1c0.1,0.6,0.2,1.4,0.2,2.7H558c0,1.2,0.3,2.2,0.9,2.9
		c0.5,0.7,1.4,1.1,2.5,1.1c1,0,1.9-0.3,2.5-1c0.3-0.4,0.6-0.9,0.7-1.4h2c-0.1,0.4-0.2,0.9-0.5,1.5c-0.3,0.5-0.6,1-1,1.3
		c-0.6,0.6-1.4,1-2.3,1.2c-0.5,0.1-1,0.2-1.6,0.2c-1.5,0-2.7-0.5-3.8-1.6c-1-1.1-1.6-2.6-1.6-4.6c0-1.9,0.5-3.5,1.6-4.7
		c1-1.2,2.4-1.8,4.1-1.8C562.4,246.2,563.2,246.4,564,246.8z M564.7,251.5c-0.1-0.9-0.3-1.6-0.6-2.1c-0.5-1-1.5-1.5-2.8-1.5
		c-0.9,0-1.7,0.3-2.3,1c-0.6,0.7-1,1.5-1,2.6H564.7z"/>
	<path d="M570.5,254.7c0.1,0.7,0.2,1.2,0.5,1.5c0.5,0.7,1.4,1,2.7,1c0.8,0,1.4-0.2,2-0.5c0.6-0.3,0.9-0.8,0.9-1.5
		c0-0.5-0.2-0.9-0.7-1.2c-0.3-0.2-0.9-0.4-1.8-0.6l-1.6-0.4c-1-0.3-1.8-0.5-2.3-0.9c-0.9-0.5-1.3-1.3-1.3-2.3c0-1.1,0.4-2.1,1.2-2.8
		c0.8-0.7,1.9-1.1,3.4-1.1c1.8,0,3.2,0.5,4,1.6c0.5,0.7,0.8,1.4,0.7,2.2h-1.9c0-0.5-0.2-0.9-0.5-1.2c-0.5-0.5-1.3-0.8-2.5-0.8
		c-0.8,0-1.4,0.1-1.8,0.4s-0.6,0.7-0.6,1.2c0,0.5,0.3,0.9,0.8,1.3c0.3,0.2,0.8,0.4,1.4,0.5l1.4,0.3c1.5,0.4,2.5,0.7,3,1
		c0.8,0.5,1.2,1.3,1.2,2.4c0,1.1-0.4,2-1.2,2.8c-0.8,0.8-2.1,1.2-3.8,1.2c-1.8,0-3.1-0.4-3.8-1.2c-0.8-0.8-1.2-1.8-1.2-3H570.5z"/>
	<path d="M582,254.7c0.1,0.7,0.2,1.2,0.5,1.5c0.5,0.7,1.4,1,2.7,1c0.8,0,1.4-0.2,2-0.5c0.6-0.3,0.9-0.8,0.9-1.5
		c0-0.5-0.2-0.9-0.7-1.2c-0.3-0.2-0.9-0.4-1.8-0.6l-1.6-0.4c-1-0.3-1.8-0.5-2.3-0.9c-0.9-0.5-1.3-1.3-1.3-2.3c0-1.1,0.4-2.1,1.2-2.8
		c0.8-0.7,1.9-1.1,3.4-1.1c1.8,0,3.2,0.5,4,1.6c0.5,0.7,0.8,1.4,0.7,2.2h-1.9c0-0.5-0.2-0.9-0.5-1.2c-0.5-0.5-1.3-0.8-2.5-0.8
		c-0.8,0-1.4,0.1-1.8,0.4s-0.6,0.7-0.6,1.2c0,0.5,0.3,0.9,0.8,1.3c0.3,0.2,0.8,0.4,1.4,0.5l1.4,0.3c1.5,0.4,2.5,0.7,3,1
		c0.8,0.5,1.2,1.3,1.2,2.4c0,1.1-0.4,2-1.2,2.8c-0.8,0.8-2.1,1.2-3.8,1.2c-1.8,0-3.1-0.4-3.8-1.2c-0.8-0.8-1.2-1.8-1.2-3H582z"/>
	<path d="M599.8,246.8c0.8,0.4,1.4,0.9,1.8,1.6c0.4,0.6,0.7,1.3,0.8,2.1c0.1,0.6,0.2,1.4,0.2,2.7h-8.7c0,1.2,0.3,2.2,0.9,2.9
		c0.5,0.7,1.4,1.1,2.5,1.1c1,0,1.9-0.3,2.5-1c0.3-0.4,0.6-0.9,0.7-1.4h2c-0.1,0.4-0.2,0.9-0.5,1.5s-0.6,1-1,1.3
		c-0.6,0.6-1.4,1-2.3,1.2c-0.5,0.1-1,0.2-1.6,0.2c-1.5,0-2.7-0.5-3.8-1.6c-1-1.1-1.6-2.6-1.6-4.6c0-1.9,0.5-3.5,1.6-4.7
		c1-1.2,2.4-1.8,4.1-1.8C598.1,246.2,599,246.4,599.8,246.8z M600.5,251.5c-0.1-0.9-0.3-1.6-0.6-2.1c-0.5-1-1.5-1.5-2.8-1.5
		c-0.9,0-1.7,0.3-2.3,1c-0.6,0.7-1,1.5-1,2.6H600.5z"/>
	<path d="M606.3,254.7c0.1,0.7,0.2,1.2,0.5,1.5c0.5,0.7,1.4,1,2.7,1c0.8,0,1.4-0.2,2-0.5c0.6-0.3,0.9-0.8,0.9-1.5
		c0-0.5-0.2-0.9-0.7-1.2c-0.3-0.2-0.9-0.4-1.8-0.6l-1.6-0.4c-1-0.3-1.8-0.5-2.3-0.9c-0.9-0.5-1.3-1.3-1.3-2.3c0-1.1,0.4-2.1,1.2-2.8
		c0.8-0.7,1.9-1.1,3.4-1.1c1.8,0,3.2,0.5,4,1.6c0.5,0.7,0.8,1.4,0.7,2.2h-1.9c0-0.5-0.2-0.9-0.5-1.2c-0.5-0.5-1.3-0.8-2.5-0.8
		c-0.8,0-1.4,0.1-1.8,0.4s-0.6,0.7-0.6,1.2c0,0.5,0.3,0.9,0.8,1.3c0.3,0.2,0.8,0.4,1.3,0.5l1.4,0.3c1.5,0.4,2.5,0.7,3,1
		c0.8,0.5,1.2,1.3,1.2,2.4c0,1.1-0.4,2-1.2,2.8c-0.8,0.8-2.1,1.2-3.8,1.2c-1.8,0-3.1-0.4-3.8-1.2c-0.8-0.8-1.2-1.8-1.2-3H606.3z"/>
</g>
<g>
	<g>
		<path d="M313.8,381.5h2v3.4h1.9v1.7h-1.9v7.9c0,0.4,0.1,0.7,0.4,0.8c0.2,0.1,0.4,0.1,0.8,0.1c0.1,0,0.2,0,0.3,0s0.2,0,0.4,0v1.6
			c-0.2,0.1-0.5,0.1-0.7,0.1c-0.3,0-0.5,0-0.8,0c-0.9,0-1.6-0.2-1.9-0.7c-0.3-0.5-0.5-1.1-0.5-1.9v-8h-1.6v-1.7h1.6V381.5z"/>
		<path d="M327.2,385.2c0.8,0.4,1.4,0.9,1.8,1.6c0.4,0.6,0.7,1.3,0.8,2.1c0.1,0.6,0.2,1.4,0.2,2.7h-8.7c0,1.2,0.3,2.2,0.9,2.9
			s1.4,1.1,2.5,1.1c1,0,1.9-0.3,2.5-1c0.3-0.4,0.6-0.9,0.7-1.4h2c-0.1,0.4-0.2,0.9-0.5,1.5c-0.3,0.5-0.6,1-1,1.3
			c-0.6,0.6-1.4,1-2.3,1.2c-0.5,0.1-1,0.2-1.6,0.2c-1.5,0-2.7-0.5-3.8-1.6c-1-1.1-1.6-2.6-1.6-4.6c0-1.9,0.5-3.5,1.6-4.7
			c1-1.2,2.4-1.8,4.1-1.8C325.6,384.6,326.4,384.8,327.2,385.2z M328,389.9c-0.1-0.9-0.3-1.6-0.6-2.1c-0.5-1-1.5-1.5-2.8-1.5
			c-0.9,0-1.7,0.3-2.3,1c-0.6,0.7-1,1.5-1,2.6H328z"/>
		<path d="M340.6,385.5c0.8,0.7,1.4,1.8,1.5,3.4h-2c-0.1-0.7-0.4-1.4-0.8-1.8s-1.1-0.7-2.1-0.7c-1.3,0-2.2,0.6-2.8,1.9
			c-0.4,0.8-0.5,1.8-0.5,3c0,1.2,0.3,2.2,0.8,3c0.5,0.8,1.3,1.2,2.4,1.2c0.8,0,1.5-0.3,2-0.8c0.5-0.5,0.8-1.2,1-2.1h2
			c-0.2,1.6-0.8,2.8-1.7,3.5s-2,1.1-3.4,1.1c-1.6,0-2.8-0.6-3.8-1.7c-0.9-1.1-1.4-2.6-1.4-4.3c0-2.1,0.5-3.8,1.5-4.9
			c1-1.2,2.3-1.8,3.9-1.8C338.6,384.5,339.7,384.9,340.6,385.5z"/>
		<path d="M344.1,380.4h2v6.2c0.5-0.6,0.9-1,1.3-1.3c0.7-0.4,1.5-0.6,2.4-0.6c1.7,0,2.9,0.6,3.5,1.8c0.3,0.7,0.5,1.6,0.5,2.8v7.7
			h-2.1v-7.6c0-0.9-0.1-1.5-0.3-1.9c-0.4-0.7-1.1-1-2.1-1c-0.8,0-1.6,0.3-2.3,0.9c-0.7,0.6-1,1.7-1,3.3v6.4h-2V380.4z"/>
		<path d="M364.2,384.9l2.3,9.5l2.3-9.5h2.3l2.4,9.4l2.5-9.4h2l-3.5,12h-2.1l-2.4-9.3l-2.4,9.3h-2.1l-3.5-12H364.2z"/>
		<path d="M380,384.9h1.9v2.1c0.2-0.4,0.5-0.9,1.2-1.5c0.6-0.6,1.3-0.9,2.1-0.9c0,0,0.1,0,0.2,0c0.1,0,0.2,0,0.5,0v2.1
			c-0.1,0-0.2,0-0.3,0c-0.1,0-0.2,0-0.3,0c-1,0-1.8,0.3-2.3,1c-0.5,0.7-0.8,1.4-0.8,2.3v6.9h-2V384.9z"/>
		<path d="M387.6,380.4h2.1v2.3h-2.1V380.4z M387.6,384.9h2.1v12h-2.1V384.9z"/>
		<path d="M393.1,381.5h2v3.4h1.9v1.7h-1.9v7.9c0,0.4,0.1,0.7,0.4,0.8c0.2,0.1,0.4,0.1,0.8,0.1c0.1,0,0.2,0,0.3,0s0.2,0,0.4,0v1.6
			c-0.2,0.1-0.5,0.1-0.7,0.1c-0.3,0-0.5,0-0.8,0c-0.9,0-1.6-0.2-1.9-0.7c-0.3-0.5-0.5-1.1-0.5-1.9v-8h-1.6v-1.7h1.6V381.5z"/>
		<path d="M406.5,385.2c0.8,0.4,1.4,0.9,1.8,1.6c0.4,0.6,0.7,1.3,0.8,2.1c0.1,0.6,0.2,1.4,0.2,2.7h-8.7c0,1.2,0.3,2.2,0.9,2.9
			s1.4,1.1,2.5,1.1c1,0,1.9-0.3,2.5-1c0.3-0.4,0.6-0.9,0.7-1.4h2c-0.1,0.4-0.2,0.9-0.5,1.5c-0.3,0.5-0.6,1-1,1.3
			c-0.6,0.6-1.4,1-2.3,1.2c-0.5,0.1-1,0.2-1.6,0.2c-1.5,0-2.7-0.5-3.8-1.6c-1-1.1-1.6-2.6-1.6-4.6c0-1.9,0.5-3.5,1.6-4.7
			c1-1.2,2.4-1.8,4.1-1.8C404.9,384.6,405.7,384.8,406.5,385.2z M407.2,389.9c-0.1-0.9-0.3-1.6-0.6-2.1c-0.5-1-1.5-1.5-2.8-1.5
			c-0.9,0-1.7,0.3-2.3,1c-0.6,0.7-1,1.5-1,2.6H407.2z"/>
		<path d="M411.9,384.9h1.9v2.1c0.2-0.4,0.5-0.9,1.2-1.5c0.6-0.6,1.3-0.9,2.1-0.9c0,0,0.1,0,0.2,0c0.1,0,0.2,0,0.5,0v2.1
			c-0.1,0-0.2,0-0.3,0c-0.1,0-0.2,0-0.3,0c-1,0-1.8,0.3-2.3,1c-0.5,0.7-0.8,1.4-0.8,2.3v6.9h-2V384.9z"/>
		<path d="M420.7,393.1c0.1,0.7,0.2,1.2,0.5,1.5c0.5,0.7,1.4,1,2.7,1c0.8,0,1.4-0.2,2-0.5c0.6-0.3,0.9-0.8,0.9-1.5
			c0-0.5-0.2-0.9-0.7-1.2c-0.3-0.2-0.9-0.4-1.8-0.6l-1.6-0.4c-1-0.3-1.8-0.5-2.3-0.9c-0.9-0.5-1.3-1.3-1.3-2.3
			c0-1.1,0.4-2.1,1.2-2.8c0.8-0.7,1.9-1.1,3.4-1.1c1.8,0,3.2,0.5,4,1.6c0.5,0.7,0.8,1.4,0.7,2.2h-1.9c0-0.5-0.2-0.9-0.5-1.2
			c-0.5-0.5-1.3-0.8-2.5-0.8c-0.8,0-1.4,0.1-1.8,0.4s-0.6,0.7-0.6,1.2c0,0.5,0.3,0.9,0.8,1.3c0.3,0.2,0.8,0.4,1.4,0.5l1.4,0.3
			c1.5,0.4,2.5,0.7,3,1c0.8,0.5,1.2,1.3,1.2,2.4c0,1.1-0.4,2-1.2,2.8c-0.8,0.8-2.1,1.2-3.8,1.2c-1.8,0-3.1-0.4-3.8-1.2
			c-0.8-0.8-1.2-1.8-1.2-3H420.7z"/>
	</g>
</g>
<path d="M349.1,348.6c2.1-2.5,5.7-4.5,9.8-5.7c1.5-0.7,1.9-0.8,2-0.9l0.5-0.5c0.3-0.3,0.5-0.5,0.6-0.6c-0.9-0.5-2-0.8-3.2-1.2
	c-1.3-0.5-2.1-0.9-2.7-1.5c-0.7-0.7-1-1.4-1.2-2.1c0-0.1-0.1-0.6,0-3.9v-0.6l0.3-0.3c0.7-0.8,1.4-2.1,2-3.9c-0.1-1.2,0-2.2,0.3-3.1
	c-1-4.5-1.2-8.5-0.3-11.5c-0.1-0.1-0.2-0.4-0.2-0.5c-1.3-1.5-3.4-2.3-6.4-2.3c-2.1,0-2.3,0.3-2.7,0.8c-0.1,0.1-0.4,0.4-0.6,0.6
	l-0.4,0.4h-0.5c-1,0-1.9,0.3-2.3,1.2c-1.3,1.7-1.4,5.4-0.4,9.6l0.1,0.7l-0.5,0.6c-0.1,0.1-0.2,0.6,0,1.5c0.1,0.7,0.7,1.3,0.9,1.3
	l0.7,0.2l0.2,0.7c0.6,2,1,3,1.7,3.8l0.4,0.3v4.2c-0.1,1.3-0.8,1.9-1.3,2.3l-0.5,0.5c-0.5,0.4-0.9,0.6-2.4,1.3
	c-2.9,0.8-5.3,2.2-6.6,3.7l-0.6,0.6c-0.5,0.8-1,2.5-0.6,3.5c0.5,0.9,2.1,1.2,3.2,1.2h10.1L349.1,348.6z M338.7,351.7L338.7,351.7
	c-2.9-0.1-4.9-1-5.8-2.7c-1.5-2.8,0.6-6.3,0.8-6.6l0.6-0.7h0.1c1.7-2,4.5-3.6,7.9-4.5c1.2-0.6,1.4-0.6,1.5-0.7l0.4-0.3
	c0.5-0.5,0.5-0.5,0.5-0.5v-2.9c-0.8-1.2-1.4-2.5-1.9-3.8c-0.9-0.6-1.7-1.7-2-3c-0.2-1.3-0.2-2.3,0.2-3.2c-1.2-5-0.9-9.1,0.9-11.6
	c0.9-1.3,2.3-2.1,3.9-2.2c0.9-1.2,2-1.7,5.1-1.7c3.6,0,6.4,1.2,8.2,3.4c0.3,0.3,0.5,0.8,0.7,1.2l0.5,0.9l-0.2,0.6
	c-0.9,2.4-0.8,6.5,0.3,10.9l0.2,0.7l-0.5,0.6c-0.1,0.1-0.4,0.8-0.1,2l0.2,0.9l-0.5,0.4c-0.6,1.7-1.3,3-2.1,4.1c0,1.6,0,2.7,0,2.8
	c0,0.1,0.1,0.3,0.5,0.6c0.2,0.2,0.6,0.5,1.6,0.8c1.6,0.5,3.1,1,4.5,1.7l0.8,0.5v1.6c-0.2,1.4-0.8,2.1-1.5,2.8l-0.9,0.7
	c-0.6,0.5-1,0.7-2.9,1.5c-3.8,1-6.9,2.8-8.6,4.9l-0.5,0.6l-0.5,0.7L338.7,351.7z"/>
<path d="M392.8,348.8h10.1c1.3,0,2.8-0.2,3.2-1.2c0.6-0.9-0.1-2.7-0.6-3.5l-0.6-0.6c-1.3-1.5-3.7-2.9-6.6-3.7
	c-1.5-0.7-2-0.8-2.4-1.3l-0.5-0.5c-0.6-0.6-1.2-1.2-1.3-2.3v-4.2l0.4-0.4c0.7-0.8,1.2-1.9,1.7-3.8l0.2-0.7l0.7-0.2
	c0.2-0.1,0.7-0.6,0.9-1.3c0.2-0.9,0-1.4,0-1.5l-0.5-0.6l0.1-0.7c1.2-4.3,1-8-0.3-9.6c-0.6-0.7-1.4-1.2-2.3-1.2h-0.5l-0.5-0.4
	c-0.2-0.2-0.5-0.5-0.6-0.6c-0.3-0.5-0.6-0.8-2.7-0.8c-3,0-5,0.8-6.4,2.3c-0.1,0.1-0.1,0.2-0.2,0.5c0.9,3,0.8,7.1-0.3,11.5
	c0.3,0.8,0.5,1.9,0.3,3.1c0.6,1.9,1.3,3.1,2,3.9l0.3,0.4v0.6c0.1,3.2,0,3.7,0,3.9c-0.1,0.8-0.6,1.5-1.2,2.1c-0.7,0.7-1.5,1-2.7,1.5
	c-1.2,0.3-2.2,0.7-3.2,1.2c0.1,0.1,0.2,0.2,0.6,0.6l0.5,0.5c0.1,0.1,0.5,0.2,2,0.9c4.2,1.2,7.8,3.1,9.8,5.7L392.8,348.8z
	 M402.9,351.7h-11.7l-0.5-0.7l-0.5-0.6c-1.7-2-4.9-3.8-8.6-4.9c-1.9-0.8-2.3-1-2.9-1.5l-0.6-0.6c-0.7-0.7-1.4-1.4-1.5-2.8v-1.6
	l0.8-0.5c1.4-0.7,2.9-1.4,4.5-1.7c0.9-0.5,1.4-0.6,1.6-0.8c0.4-0.4,0.4-0.6,0.5-0.6c0-0.2,0-1.3,0-2.8c-0.8-0.9-1.4-2.3-2.1-4.1
	l-0.7-0.4l0.2-0.9c0.2-1.2,0-1.9-0.1-2l-0.5-0.6l0.2-0.7c1.2-4.4,1.3-8.5,0.3-11l-0.2-0.6l0.5-0.9c0.2-0.3,0.3-0.7,0.7-1.2
	c1.9-2.2,4.6-3.4,8.2-3.4c3.1,0,4.3,0.7,5.1,1.7c1.6,0.2,3,0.9,3.9,2.2c1.7,2.4,2.1,6.6,0.9,11.6c0.4,0.8,0.5,2,0.2,3.2
	c-0.2,1.3-1,2.3-2,3c-0.5,1.4-0.9,2.7-1.9,3.8v2.9c0,0.1,0,0.1,0.5,0.5l0.3,0.3c0,0,0.2,0.1,1.5,0.7c3.2,0.9,6.1,2.5,7.9,4.5h0.1
	l0.6,0.7c0.2,0.4,2.3,3.9,0.8,6.6C407.7,350.7,405.8,351.6,402.9,351.7z"/>
<path d="M409.6,342.6h8.2c1,0,2.3-0.2,2.7-0.9c0.5-0.8-0.1-2.2-0.5-2.9l-0.5-0.5c-1-1.3-3-2.4-5.4-3c-1.3-0.6-1.6-0.7-2-1l-0.3-0.3
	c-0.5-0.5-0.9-0.9-1-2v-3.4l0.2-0.4c0.6-0.6,0.9-1.5,1.4-3.1l0.1-0.6l0.6-0.2c0.2-0.1,0.6-0.5,0.7-1c0.1-0.8,0-1.2,0-1.2l-0.3-0.5
	l0.1-0.6c0.9-3.5,0.8-6.5-0.2-8c-0.5-0.6-1.2-0.9-2-0.9h-0.5l-0.3-0.2c-0.2-0.2-0.4-0.4-0.5-0.5c-0.2-0.3-0.5-0.7-2.2-0.7
	c-2.4,0-4.2,0.7-5.2,2c-0.1,0.1-0.1,0.2-0.2,0.4c0.7,2.4,0.7,5.8-0.2,9.5c0.4,0.7,0.5,1.5,0.4,2.5c0.5,1.5,1,2.5,1.6,3.2l0.2,0.4
	v0.5c0.1,2.7,0,3.1,0,3.2c-0.1,0.7-0.5,1.2-1,1.7c-0.6,0.6-1.2,0.8-2.2,1.3c-1,0.2-1.9,0.6-2.7,0.9c0.1,0.1,0.2,0.2,0.5,0.5l0.3,0.3
	c0.1,0.1,0.4,0.2,1.6,0.8c3.5,0.9,6.4,2.7,8.1,4.6H409.6z M417.9,345h-9.6l-0.3-0.6l-0.4-0.5c-1.4-1.6-3.9-3.1-7.1-3.9
	c-1.5-0.7-2-0.8-2.4-1.3l-0.5-0.5c-0.6-0.6-1.2-1-1.3-2.3v-1.3l0.6-0.3c1.2-0.6,2.4-1.2,3.7-1.5c0.8-0.3,1.2-0.5,1.3-0.7
	c0.2-0.2,0.3-0.5,0.3-0.6c0-0.1,0-1,0-2.3c-0.6-0.8-1.2-1.9-1.7-3.4l-0.5-0.2l0.1-0.8c0.2-1,0-1.5-0.1-1.6l-0.2-0.3l0.1-0.6
	c0.9-3.6,1-6.9,0.2-9l-0.2-0.5l0.4-0.7c0.1-0.2,0.3-0.6,0.6-0.9c1.5-1.9,3.8-2.8,6.8-2.8c2.5,0,3.5,0.6,4.2,1.4
	c1.3,0.1,2.4,0.8,3.2,1.9c1.5,2,1.7,5.4,0.8,9.5c0.3,0.7,0.3,1.6,0.1,2.7c-0.2,1-0.8,2-1.6,2.4c-0.3,1.2-0.8,2.2-1.5,3.1v2.4
	c0,0,0,0,0.3,0.5l0.4,0.4c0,0,0.2,0.1,1.2,0.6c2.7,0.7,5.1,2.1,6.5,3.7h0.1l0.5,0.6c0.2,0.4,1.9,3.2,0.7,5.4
	C422,344.2,420.4,344.9,417.9,345z"/>
<path d="M332.7,342.6c1.7-2.1,4.6-3.7,8.1-4.6c1.3-0.6,1.5-0.7,1.6-0.8l0.3-0.3c0.2-0.2,0.5-0.5,0.5-0.5c-0.8-0.4-1.6-0.7-2.7-0.9
	c-1-0.5-1.7-0.7-2.2-1.3c-0.6-0.6-0.9-1.2-1-1.7c0-0.1-0.1-0.5,0-3.2v-0.5l0.2-0.4c0.6-0.7,1.2-1.7,1.6-3.2c-0.1-1,0-1.9,0.4-2.5
	c-0.9-3.7-1-6.9-0.2-9.5c-0.1-0.1-0.1-0.2-0.2-0.4c-1-1.3-2.8-2-5.2-2c-1.7,0-2,0.2-2.2,0.7c-0.1,0.1-0.2,0.4-0.5,0.5l-0.3,0.2h-0.5
	c-0.8,0-1.5,0.4-2,0.9c-1,1.4-1.2,4.5-0.2,8l0.1,0.6l-0.2,0.6c0,0.1-0.2,0.5,0,1.2c0.1,0.6,0.6,1,0.7,1l0.6,0.2l0.1,0.6
	c0.5,1.6,0.9,2.5,1.4,3.1l0.2,0.4v3.4c-0.1,1-0.6,1.5-1,2l-0.4,0.4c-0.4,0.3-0.7,0.5-2,1c-2.4,0.7-4.4,1.7-5.4,3l-0.5,0.5
	c-0.3,0.7-0.9,2.1-0.5,2.9c0.6,0.7,1.9,0.9,2.8,0.9h8.2L332.7,342.6z M324.1,345.1L324.1,345.1c-2.4-0.1-4.1-0.8-4.7-2.2
	c-1.3-2.3,0.5-5.1,0.7-5.4l0.4-0.6h0.1c1.4-1.6,3.7-3,6.5-3.7c0.9-0.5,1.2-0.5,1.2-0.6l0.4-0.4c0.3-0.4,0.3-0.4,0.3-0.5v-2.4
	c-0.7-0.9-1.2-2.1-1.5-3.1c-0.8-0.6-1.4-1.4-1.6-2.4c-0.2-1-0.1-2,0.1-2.7c-1-4.1-0.7-7.5,0.8-9.5c0.8-1,2-1.7,3.2-1.9
	c0.7-0.9,1.6-1.4,4.2-1.4c3,0,5.3,0.9,6.8,2.8c0.2,0.4,0.5,0.6,0.6,0.9l0.4,0.7l-0.2,0.5c-0.8,2.1-0.7,5.4,0.2,9l0.1,0.6l-0.4,0.5
	c-0.1,0.1-0.2,0.7-0.1,1.6l0.1,0.8l-0.5,0.2c-0.5,1.4-1,2.5-1.7,3.4c0,1.3,0,2.2,0,2.3c0,0.1,0.1,0.2,0.3,0.6
	c0.2,0.2,0.5,0.3,1.3,0.7c1.4,0.4,2.5,0.8,3.7,1.5l0.6,0.3v1.3c-0.1,1.2-0.7,1.7-1.3,2.3l-0.5,0.5c-0.5,0.4-0.9,0.6-2.4,1.3
	c-3.1,0.8-5.7,2.3-7.1,3.9l-0.3,0.5l-0.4,0.6L324.1,345.1z"/>
<path d="M370.4,361.3l0.1-3l15.9,0.2c1.6,0,3.8-0.3,4.6-1.6c0.8-1.4-0.1-3.8-0.7-5l-0.7-0.7c-1.7-2.1-5-3.9-8.8-5
	c-2-0.8-2.4-1-3-1.5l-0.6-0.6c-0.7-0.7-1.4-1.4-1.5-2.9v-5.1l0.4-0.5c0.9-1,1.5-2.5,2.4-5.1l0.2-0.7l0.7-0.2
	c0.5-0.1,1.2-0.9,1.4-2.1c0.2-1.3,0.1-2.1-0.1-2.3l-0.5-0.6l0.2-0.7c1.4-5.7,1.3-10.6-0.5-12.9c-0.8-1-2-1.6-3.4-1.6h-0.6l-0.3-0.4
	c-0.4-0.2-0.5-0.5-0.6-0.7c-0.5-0.7-0.8-1.2-3.8-1.2h-0.4c-3.7,0-6.5,1-8.2,3.2c-2.4,2.9-3,7.5-2,13.9l0.1,0.6l-0.4,0
	c-0.2,0.3-0.4,1-0.1,2.2c0.1,0.9,0.7,1.6,1.2,2.1l0.5,0.2l0.2,0.6c0.8,2.4,1.6,4.2,2.7,5.2l0.3,0.4v0.5c0,2,0.1,4.4,0,5
	c-0.1,0.9-0.6,1.7-1.4,2.7c-0.8,0.9-2,1.3-3.4,2c-4.3,1.2-7.5,3-9.4,5.1l-0.5,0.6c-0.5,0.7-1.6,3.5-0.8,5.1c0.7,1.3,3,1.6,4.6,1.6
	h16v3h-16.2c-3.7-0.1-6.1-1.2-7.3-3.4c-2-3.5,0.7-7.8,0.9-8.2l0.6-0.7c2.2-2.7,6-4.7,10.6-6c1.4-0.6,2-0.8,2.3-1.2
	c0.5-0.5,0.6-0.8,0.6-1c0-0.2,0-1.6,0-3.8c-0.9-1.3-2-3-2.8-5.2c-1-0.8-2-2.2-2.3-3.7c-0.2-1.4-0.1-2.9,0.2-3.8
	c-0.9-7.1,0-12.3,2.9-15.7c2.4-2.9,5.9-4.3,10.5-4.3h0.4c3.7,0,5,0.8,6.3,2.3c2.1,0.2,3.8,1.2,5,2.8c2.3,3.1,2.7,8.5,1,14.8
	c0.5,1,0.6,2.5,0.2,4.1c-0.3,1.5-1.3,3-2.5,3.7c-0.6,1.7-1.3,3.7-2.4,5.1v3.9c0,0.2,0.1,0.4,0.7,0.9l0.5,0.5
	c0.1,0.1,0.5,0.2,2.1,0.9c4.3,1.2,8,3.2,10.2,5.9l0.7,0.7c0.4,0.5,2.9,4.9,0.9,8.2c-1.2,2.1-3.6,3.2-7.2,3.4L370.4,361.3
	L370.4,361.3z"/>
</svg>
