<?xml version="1.0" encoding="utf-8"?>
<!-- Generator: Adobe Illustrator 17.1.0, SVG Export Plug-In . SVG Version: 6.00 Build 0)  -->
<!DOCTYPE svg PUBLIC "-//W3C//DTD SVG 1.1//EN" "http://www.w3.org/Graphics/SVG/1.1/DTD/svg11.dtd">
<svg version="1.1" id="Layer_1" xmlns="http://www.w3.org/2000/svg" xmlns:xlink="http://www.w3.org/1999/xlink" x="0px" y="0px"
	 viewBox="0 0 775 445" style="enable-background:new 0 0 775 445;" xml:space="preserve">
<rect x="67" y="109" style="fill:none;stroke:#000000;stroke-width:6;stroke-miterlimit:10;" width="178" height="159"/>
<line style="fill:none;stroke:#000000;stroke-width:6;stroke-miterlimit:10;" x1="113" y1="109" x2="113" y2="268"/>
<line style="fill:none;stroke:#000000;stroke-width:6;stroke-linecap:round;stroke-miterlimit:10;" x1="80" y1="145" x2="102" y2="145"/>
<line style="fill:none;stroke:#000000;stroke-width:6;stroke-linecap:round;stroke-miterlimit:10;" x1="74" y1="125" x2="102" y2="125"/>
<line style="fill:none;stroke:#000000;stroke-width:6;stroke-linecap:round;stroke-miterlimit:10;" x1="74" y1="135" x2="102" y2="135"/>
<line style="fill:none;stroke:#000000;stroke-width:6;stroke-linecap:round;stroke-miterlimit:10;" x1="80" y1="155" x2="102" y2="155"/>
<rect x="300" y="109" style="fill:none;stroke:#000000;stroke-width:6;stroke-miterlimit:10;" width="178" height="159"/>
<line style="fill:none;stroke:#000000;stroke-width:6;stroke-miterlimit:10;" x1="346" y1="109" x2="346" y2="268"/>
<line style="fill:none;stroke:#000000;stroke-width:6;stroke-linecap:round;stroke-miterlimit:10;" x1="313" y1="145" x2="335" y2="145"/>
<line style="fill:none;stroke:#000000;stroke-width:6;stroke-linecap:round;stroke-miterlimit:10;" x1="307" y1="125" x2="335" y2="125"/>
<line style="fill:none;stroke:#000000;stroke-width:6;stroke-linecap:round;stroke-miterlimit:10;" x1="307" y1="135" x2="335" y2="135"/>
<line style="fill:none;stroke:#000000;stroke-width:6;stroke-linecap:round;stroke-miterlimit:10;" x1="313" y1="155" x2="335" y2="155"/>
<rect x="531" y="109" style="fill:none;stroke:#000000;stroke-width:6;stroke-miterlimit:10;" width="178" height="159"/>
<line style="fill:none;stroke:#000000;stroke-width:6;stroke-miterlimit:10;" x1="577" y1="109" x2="577" y2="268"/>
<line style="fill:none;stroke:#000000;stroke-width:6;stroke-linecap:round;stroke-miterlimit:10;" x1="544" y1="145" x2="566" y2="145"/>
<line style="fill:none;stroke:#000000;stroke-width:6;stroke-linecap:round;stroke-miterlimit:10;" x1="538" y1="125" x2="566" y2="125"/>
<line style="fill:none;stroke:#000000;stroke-width:6;stroke-linecap:round;stroke-miterlimit:10;" x1="538" y1="135" x2="566" y2="135"/>
<line style="fill:none;stroke:#000000;stroke-width:6;stroke-linecap:round;stroke-miterlimit:10;" x1="544" y1="155" x2="566" y2="155"/>
<g>
	<path d="M364.4,137c0,0.1-0.1,0.2-0.3,0.2c-0.5,2.8-1.4,5.9-2.9,7.7c-0.2-0.2-0.6-0.3-0.8-0.4c1.4-1.8,2.4-4.7,2.8-7.8L364.4,137z
		 M368.2,136.6c1.3,2.2,2.7,5.7,3.3,7.9l-0.9,0.3c-0.5-2.1-1.9-5.7-3.2-7.9L368.2,136.6z"/>
	<path d="M381.9,136.9v7.9H381V144h-6.6v0.8h-0.8v-7.9H381.9z M381,143.2v-5.6h-6.6v5.6H381z"/>
	<path d="M384.3,139.8h10v0.9h-9.6c-0.1,0.1-0.2,0.2-0.4,0.2L384.3,139.8z"/>
	<path d="M405.3,136.5c0,0-0.1,0.1-0.2,0.1c-0.5,4.7-2.1,7.2-6.1,8.8c-0.2-0.2-0.4-0.5-0.6-0.6c3.8-1.6,5.3-3.8,5.7-7.8h-6.8v3.3
		h-0.8v-4.1h8l0.1-0.1L405.3,136.5z"/>
	<path d="M407.1,139.8h10v0.9h-9.6c-0.1,0.1-0.2,0.2-0.4,0.2L407.1,139.8z"/>
	<path d="M421.8,137.1c0,0.1-0.1,0.2-0.3,0.2c-0.1,3.2-0.3,6.2-2.2,8.3c-0.2-0.1-0.5-0.3-0.7-0.5c1.8-1.9,2-4.9,2-8.2L421.8,137.1z
		 M424.9,144c2-1,3.3-2.7,4-4.8c0.2,0.2,0.5,0.4,0.7,0.5c-0.9,2.4-2.3,4.2-4.9,5.4c0,0.1-0.1,0.2-0.2,0.2l-0.6-0.8l0.1-0.2v-8.8
		l1.1,0.1c0,0.1-0.1,0.2-0.3,0.2V144z"/>
	<path d="M438,141.6c-1.2-0.7-2.9-1.4-4.2-2v6h-0.9v-10.4l1.2,0.1c0,0.1-0.1,0.2-0.3,0.3v3.5l0.2-0.3c1.4,0.5,3.3,1.3,4.5,2
		L438,141.6z M436.8,136c0.6,0.5,1.3,1.2,1.7,1.8l-0.5,0.4c-0.4-0.5-1.1-1.3-1.6-1.8L436.8,136z M438.4,134.9
		c0.6,0.5,1.3,1.2,1.6,1.8l-0.4,0.4c-0.4-0.5-1.1-1.3-1.6-1.8L438.4,134.9z"/>
</g>
<g>
	<path d="M364.4,163.3c0,0.1-0.1,0.2-0.3,0.2c-0.5,2.8-1.4,5.9-2.9,7.7c-0.2-0.2-0.6-0.3-0.8-0.4c1.4-1.8,2.4-4.7,2.8-7.8
		L364.4,163.3z M368.2,162.9c1.3,2.2,2.7,5.7,3.3,7.9l-0.9,0.3c-0.5-2.1-1.9-5.7-3.2-7.9L368.2,162.9z"/>
	<path d="M381.9,163.1v7.9H381v-0.8h-6.6v0.8h-0.8v-7.9H381.9z M381,169.5v-5.6h-6.6v5.6H381z"/>
	<path d="M384.3,166.1h10v0.9h-9.6c-0.1,0.1-0.2,0.2-0.4,0.2L384.3,166.1z"/>
	<path d="M405.3,162.8c0,0-0.1,0.1-0.2,0.1c-0.5,4.7-2.1,7.2-6.1,8.8c-0.2-0.2-0.4-0.5-0.6-0.6c3.8-1.6,5.3-3.8,5.7-7.8h-6.8v3.3
		h-0.8v-4.1h8l0.1-0.1L405.3,162.8z"/>
	<path d="M407.1,166.1h10v0.9h-9.6c-0.1,0.1-0.2,0.2-0.4,0.2L407.1,166.1z"/>
	<path d="M421.8,163.3c0,0.1-0.1,0.2-0.3,0.2c-0.1,3.2-0.3,6.2-2.2,8.3c-0.2-0.1-0.5-0.3-0.7-0.5c1.8-1.9,2-4.9,2-8.2L421.8,163.3z
		 M424.9,170.3c2-1,3.3-2.7,4-4.8c0.2,0.2,0.5,0.4,0.7,0.5c-0.9,2.4-2.3,4.2-4.9,5.4c0,0.1-0.1,0.2-0.2,0.2l-0.6-0.8l0.1-0.2v-8.8
		l1.1,0.1c0,0.1-0.1,0.2-0.3,0.2V170.3z"/>
	<path d="M438,167.9c-1.2-0.7-2.9-1.4-4.2-2v6h-0.9v-10.4l1.2,0.1c0,0.1-0.1,0.2-0.3,0.3v3.5l0.2-0.3c1.4,0.5,3.3,1.3,4.5,2
		L438,167.9z M436.8,162.2c0.6,0.5,1.3,1.2,1.7,1.8l-0.5,0.4c-0.4-0.5-1.1-1.3-1.6-1.8L436.8,162.2z M438.4,161.2
		c0.6,0.5,1.3,1.2,1.6,1.8l-0.4,0.4c-0.4-0.5-1.1-1.3-1.6-1.8L438.4,161.2z"/>
</g>
<g>
	<path d="M364.4,189.5c0,0.1-0.1,0.2-0.3,0.2c-0.5,2.8-1.4,5.9-2.9,7.7c-0.2-0.2-0.6-0.3-0.8-0.4c1.4-1.8,2.4-4.7,2.8-7.8
		L364.4,189.5z M368.2,189.1c1.3,2.2,2.7,5.7,3.3,7.9l-0.9,0.3c-0.5-2.1-1.9-5.7-3.2-7.9L368.2,189.1z"/>
	<path d="M381.9,189.4v7.9H381v-0.8h-6.6v0.8h-0.8v-7.9H381.9z M381,195.7v-5.6h-6.6v5.6H381z"/>
	<path d="M384.3,192.3h10v0.9h-9.6c-0.1,0.1-0.2,0.2-0.4,0.2L384.3,192.3z"/>
	<path d="M405.3,189c0,0-0.1,0.1-0.2,0.1c-0.5,4.7-2.1,7.2-6.1,8.8c-0.2-0.2-0.4-0.5-0.6-0.6c3.8-1.6,5.3-3.8,5.7-7.8h-6.8v3.3h-0.8
		v-4.1h8l0.1-0.1L405.3,189z"/>
	<path d="M407.1,192.3h10v0.9h-9.6c-0.1,0.1-0.2,0.2-0.4,0.2L407.1,192.3z"/>
	<path d="M421.8,189.6c0,0.1-0.1,0.2-0.3,0.2c-0.1,3.2-0.3,6.2-2.2,8.3c-0.2-0.1-0.5-0.3-0.7-0.5c1.8-1.9,2-4.9,2-8.2L421.8,189.6z
		 M424.9,196.5c2-1,3.3-2.7,4-4.8c0.2,0.2,0.5,0.4,0.7,0.5c-0.9,2.4-2.3,4.2-4.9,5.4c0,0.1-0.1,0.2-0.2,0.2l-0.6-0.8l0.1-0.2V188
		l1.1,0.1c0,0.1-0.1,0.2-0.3,0.2V196.5z"/>
	<path d="M438,194.1c-1.2-0.7-2.9-1.4-4.2-2v6h-0.9v-10.4l1.2,0.1c0,0.1-0.1,0.2-0.3,0.3v3.5l0.2-0.3c1.4,0.5,3.3,1.3,4.5,2
		L438,194.1z M436.8,188.5c0.6,0.5,1.3,1.2,1.7,1.8l-0.5,0.4c-0.4-0.5-1.1-1.3-1.6-1.8L436.8,188.5z M438.4,187.4
		c0.6,0.5,1.3,1.2,1.6,1.8l-0.4,0.4c-0.4-0.5-1.1-1.3-1.6-1.8L438.4,187.4z"/>
</g>
<g>
	<path d="M364.4,242c0,0.1-0.1,0.2-0.3,0.2c-0.5,2.8-1.4,5.9-2.9,7.7c-0.2-0.2-0.6-0.3-0.8-0.4c1.4-1.8,2.4-4.7,2.8-7.8L364.4,242z
		 M368.2,241.6c1.3,2.2,2.7,5.7,3.3,7.9l-0.9,0.3c-0.5-2.1-1.9-5.7-3.2-7.9L368.2,241.6z"/>
	<path d="M381.9,241.9v7.9H381V249h-6.6v0.8h-0.8v-7.9H381.9z M381,248.2v-5.6h-6.6v5.6H381z"/>
	<path d="M384.3,244.8h10v0.9h-9.6c-0.1,0.1-0.2,0.2-0.4,0.2L384.3,244.8z"/>
	<path d="M405.3,241.5c0,0-0.1,0.1-0.2,0.1c-0.5,4.7-2.1,7.2-6.1,8.8c-0.2-0.2-0.4-0.5-0.6-0.6c3.8-1.6,5.3-3.8,5.7-7.8h-6.8v3.3
		h-0.8v-4.1h8l0.1-0.1L405.3,241.5z"/>
	<path d="M407.1,244.8h10v0.9h-9.6c-0.1,0.1-0.2,0.2-0.4,0.2L407.1,244.8z"/>
	<path d="M421.8,242.1c0,0.1-0.1,0.2-0.3,0.2c-0.1,3.2-0.3,6.2-2.2,8.3c-0.2-0.1-0.5-0.3-0.7-0.5c1.8-1.9,2-4.9,2-8.2L421.8,242.1z
		 M424.9,249c2-1,3.3-2.7,4-4.8c0.2,0.2,0.5,0.4,0.7,0.5c-0.9,2.4-2.3,4.2-4.9,5.4c0,0.1-0.1,0.2-0.2,0.2l-0.6-0.8l0.1-0.2v-8.8
		l1.1,0.1c0,0.1-0.1,0.2-0.3,0.2V249z"/>
	<path d="M438,246.6c-1.2-0.7-2.9-1.4-4.2-2v6h-0.9v-10.4l1.2,0.1c0,0.1-0.1,0.2-0.3,0.3v3.5l0.2-0.3c1.4,0.5,3.3,1.3,4.5,2
		L438,246.6z M436.8,241c0.6,0.5,1.3,1.2,1.7,1.8l-0.5,0.4c-0.4-0.5-1.1-1.3-1.6-1.8L436.8,241z M438.4,239.9
		c0.6,0.5,1.3,1.2,1.6,1.8l-0.4,0.4c-0.4-0.5-1.1-1.3-1.6-1.8L438.4,239.9z"/>
</g>
<g>
	<path d="M364.4,215.8c0,0.1-0.1,0.2-0.3,0.2c-0.5,2.8-1.4,5.9-2.9,7.7c-0.2-0.2-0.6-0.3-0.8-0.4c1.4-1.8,2.4-4.7,2.8-7.8
		L364.4,215.8z M368.2,215.4c1.3,2.2,2.7,5.7,3.3,7.9l-0.9,0.3c-0.5-2.1-1.9-5.7-3.2-7.9L368.2,215.4z"/>
	<path d="M381.9,215.6v7.9H381v-0.8h-6.6v0.8h-0.8v-7.9H381.9z M381,222v-5.6h-6.6v5.6H381z"/>
	<path d="M384.3,218.6h10v0.9h-9.6c-0.1,0.1-0.2,0.2-0.4,0.2L384.3,218.6z"/>
	<path d="M405.3,215.3c0,0-0.1,0.1-0.2,0.1c-0.5,4.7-2.1,7.2-6.1,8.8c-0.2-0.2-0.4-0.5-0.6-0.6c3.8-1.6,5.3-3.8,5.7-7.8h-6.8v3.3
		h-0.8V215h8l0.1-0.1L405.3,215.3z"/>
	<path d="M407.1,218.6h10v0.9h-9.6c-0.1,0.1-0.2,0.2-0.4,0.2L407.1,218.6z"/>
	<path d="M421.8,215.8c0,0.1-0.1,0.2-0.3,0.2c-0.1,3.2-0.3,6.2-2.2,8.3c-0.2-0.1-0.5-0.3-0.7-0.5c1.8-1.9,2-4.9,2-8.2L421.8,215.8z
		 M424.9,222.8c2-1,3.3-2.7,4-4.8c0.2,0.2,0.5,0.4,0.7,0.5c-0.9,2.4-2.3,4.2-4.9,5.4c0,0.1-0.1,0.2-0.2,0.2l-0.6-0.8l0.1-0.2v-8.8
		l1.1,0.1c0,0.1-0.1,0.2-0.3,0.2V222.8z"/>
	<path d="M438,220.4c-1.2-0.7-2.9-1.4-4.2-2v6h-0.9V214l1.2,0.1c0,0.1-0.1,0.2-0.3,0.3v3.5l0.2-0.3c1.4,0.5,3.3,1.3,4.5,2L438,220.4
		z M436.8,214.7c0.6,0.5,1.3,1.2,1.7,1.8l-0.5,0.4c-0.4-0.5-1.1-1.3-1.6-1.8L436.8,214.7z M438.4,213.7c0.6,0.5,1.3,1.2,1.6,1.8
		l-0.4,0.4c-0.4-0.5-1.1-1.3-1.6-1.8L438.4,213.7z"/>
</g>
<g>
	<path d="M136.6,132.2h1.5v4.4h5.5v-4.4h1.5V143h-1.5v-5H138v5h-1.5V132.2z"/>
	<path d="M152,135.4c0.5,0.3,0.9,0.6,1.2,1c0.3,0.4,0.4,0.9,0.5,1.4c0.1,0.4,0.1,0.9,0.1,1.7h-5.7c0,0.8,0.2,1.4,0.6,1.9
		s0.9,0.7,1.6,0.7c0.7,0,1.2-0.2,1.6-0.7c0.2-0.3,0.4-0.6,0.5-0.9h1.3c0,0.3-0.1,0.6-0.3,1c-0.2,0.4-0.4,0.6-0.6,0.9
		c-0.4,0.4-0.9,0.7-1.5,0.8c-0.3,0.1-0.7,0.1-1.1,0.1c-1,0-1.8-0.4-2.5-1.1c-0.7-0.7-1-1.7-1-3c0-1.3,0.3-2.3,1-3.1s1.6-1.2,2.7-1.2
		C151,135,151.5,135.1,152,135.4z M152.5,138.5c-0.1-0.6-0.2-1-0.4-1.4c-0.4-0.6-1-1-1.8-1c-0.6,0-1.1,0.2-1.5,0.7
		c-0.4,0.4-0.6,1-0.6,1.7H152.5z"/>
	<path d="M155.6,132.2h1.3V143h-1.3V132.2z"/>
	<path d="M158.9,132.2h1.3V143h-1.3V132.2z"/>
	<path d="M167.9,135.9c0.7,0.7,1,1.7,1,3c0,1.3-0.3,2.3-0.9,3.1c-0.6,0.8-1.6,1.2-2.8,1.2c-1.1,0-1.9-0.4-2.6-1.1s-0.9-1.7-0.9-2.9
		c0-1.3,0.3-2.4,1-3.1c0.7-0.8,1.6-1.2,2.7-1.2C166.3,134.9,167.2,135.3,167.9,135.9z M167,141.2c0.3-0.7,0.5-1.4,0.5-2.2
		c0-0.7-0.1-1.3-0.3-1.8c-0.4-0.7-1-1.1-1.9-1.1c-0.8,0-1.4,0.3-1.7,0.9c-0.4,0.6-0.5,1.4-0.5,2.2c0,0.8,0.2,1.5,0.5,2.1
		c0.4,0.6,0.9,0.8,1.7,0.8C166.1,142.1,166.7,141.8,167,141.2z"/>
	<path d="M175.6,132.2l2,8.7l2.4-8.7h1.6l2.4,8.8l2-8.8h1.6l-2.8,10.8h-1.5l-2.5-8.9l-2.5,8.9h-1.5l-2.8-10.8H175.6z"/>
	<path d="M194.3,135.9c0.7,0.7,1,1.7,1,3c0,1.3-0.3,2.3-0.9,3.1c-0.6,0.8-1.6,1.2-2.8,1.2c-1.1,0-1.9-0.4-2.6-1.1s-0.9-1.7-0.9-2.9
		c0-1.3,0.3-2.4,1-3.1c0.7-0.8,1.6-1.2,2.7-1.2C192.7,134.9,193.6,135.3,194.3,135.9z M193.4,141.2c0.3-0.7,0.5-1.4,0.5-2.2
		c0-0.7-0.1-1.3-0.3-1.8c-0.4-0.7-1-1.1-1.9-1.1c-0.8,0-1.4,0.3-1.7,0.9c-0.4,0.6-0.5,1.4-0.5,2.2c0,0.8,0.2,1.5,0.5,2.1
		c0.4,0.6,0.9,0.8,1.7,0.8C192.5,142.1,193.1,141.8,193.4,141.2z"/>
	<path d="M197,135.2h1.3v1.4c0.1-0.3,0.4-0.6,0.8-1c0.4-0.4,0.9-0.6,1.4-0.6c0,0,0.1,0,0.1,0s0.2,0,0.3,0v1.4c-0.1,0-0.2,0-0.2,0
		c-0.1,0-0.1,0-0.2,0c-0.7,0-1.2,0.2-1.5,0.6c-0.4,0.4-0.5,0.9-0.5,1.5v4.5H197V135.2z"/>
	<path d="M202,132.2h1.3V143H202V132.2z"/>
	<path d="M209.6,135.4c0.2,0.1,0.5,0.4,0.8,0.8v-4h1.3V143h-1.2v-1.1c-0.3,0.5-0.7,0.8-1.1,1c-0.4,0.2-0.9,0.3-1.4,0.3
		c-0.9,0-1.6-0.4-2.3-1.1c-0.6-0.7-1-1.7-1-2.9c0-1.1,0.3-2.1,0.9-3c0.6-0.8,1.4-1.3,2.5-1.3C208.7,135,209.2,135.1,209.6,135.4z
		 M206.6,141.3c0.4,0.6,0.9,0.8,1.7,0.8c0.6,0,1.1-0.3,1.5-0.8c0.4-0.5,0.6-1.3,0.6-2.3c0-1-0.2-1.7-0.6-2.2
		c-0.4-0.5-0.9-0.7-1.5-0.7c-0.7,0-1.2,0.3-1.6,0.8c-0.4,0.5-0.6,1.3-0.6,2.2C206.1,140,206.3,140.7,206.6,141.3z"/>
</g>
<g>
	<path d="M136.6,241.2h1.5v4.4h5.5v-4.4h1.5V252h-1.5v-5H138v5h-1.5V241.2z"/>
	<path d="M152,244.4c0.5,0.3,0.9,0.6,1.2,1c0.3,0.4,0.4,0.9,0.5,1.4c0.1,0.4,0.1,0.9,0.1,1.7h-5.7c0,0.8,0.2,1.4,0.6,1.9
		s0.9,0.7,1.6,0.7c0.7,0,1.2-0.2,1.6-0.7c0.2-0.3,0.4-0.6,0.5-0.9h1.3c0,0.3-0.1,0.6-0.3,1c-0.2,0.4-0.4,0.6-0.6,0.9
		c-0.4,0.4-0.9,0.7-1.5,0.8c-0.3,0.1-0.7,0.1-1.1,0.1c-1,0-1.8-0.4-2.5-1.1c-0.7-0.7-1-1.7-1-3c0-1.3,0.3-2.3,1-3.1s1.6-1.2,2.7-1.2
		C151,244,151.5,244.1,152,244.4z M152.5,247.5c-0.1-0.6-0.2-1-0.4-1.4c-0.4-0.6-1-1-1.8-1c-0.6,0-1.1,0.2-1.5,0.7
		c-0.4,0.4-0.6,1-0.6,1.7H152.5z"/>
	<path d="M155.6,241.2h1.3V252h-1.3V241.2z"/>
	<path d="M158.9,241.2h1.3V252h-1.3V241.2z"/>
	<path d="M167.9,244.9c0.7,0.7,1,1.7,1,3c0,1.3-0.3,2.3-0.9,3.1c-0.6,0.8-1.6,1.2-2.8,1.2c-1.1,0-1.9-0.4-2.6-1.1s-0.9-1.7-0.9-2.9
		c0-1.3,0.3-2.4,1-3.1c0.7-0.8,1.6-1.2,2.7-1.2C166.3,243.9,167.2,244.3,167.9,244.9z M167,250.2c0.3-0.7,0.5-1.4,0.5-2.2
		c0-0.7-0.1-1.3-0.3-1.8c-0.4-0.7-1-1.1-1.9-1.1c-0.8,0-1.4,0.3-1.7,0.9c-0.4,0.6-0.5,1.4-0.5,2.2c0,0.8,0.2,1.5,0.5,2.1
		c0.4,0.6,0.9,0.8,1.7,0.8C166.1,251.1,166.7,250.8,167,250.2z"/>
	<path d="M175.6,241.2l2,8.7l2.4-8.7h1.6l2.4,8.8l2-8.8h1.6l-2.8,10.8h-1.5l-2.5-8.9l-2.5,8.9h-1.5l-2.8-10.8H175.6z"/>
	<path d="M194.3,244.9c0.7,0.7,1,1.7,1,3c0,1.3-0.3,2.3-0.9,3.1c-0.6,0.8-1.6,1.2-2.8,1.2c-1.1,0-1.9-0.4-2.6-1.1s-0.9-1.7-0.9-2.9
		c0-1.3,0.3-2.4,1-3.1c0.7-0.8,1.6-1.2,2.7-1.2C192.7,243.9,193.6,244.3,194.3,244.9z M193.4,250.2c0.3-0.7,0.5-1.4,0.5-2.2
		c0-0.7-0.1-1.3-0.3-1.8c-0.4-0.7-1-1.1-1.9-1.1c-0.8,0-1.4,0.3-1.7,0.9c-0.4,0.6-0.5,1.4-0.5,2.2c0,0.8,0.2,1.5,0.5,2.1
		c0.4,0.6,0.9,0.8,1.7,0.8C192.5,251.1,193.1,250.8,193.4,250.2z"/>
	<path d="M197,244.2h1.3v1.4c0.1-0.3,0.4-0.6,0.8-1c0.4-0.4,0.9-0.6,1.4-0.6c0,0,0.1,0,0.1,0s0.2,0,0.3,0v1.4c-0.1,0-0.2,0-0.2,0
		c-0.1,0-0.1,0-0.2,0c-0.7,0-1.2,0.2-1.5,0.6c-0.4,0.4-0.5,0.9-0.5,1.5v4.5H197V244.2z"/>
	<path d="M202,241.2h1.3V252H202V241.2z"/>
	<path d="M209.6,244.4c0.2,0.1,0.5,0.4,0.8,0.8v-4h1.3V252h-1.2v-1.1c-0.3,0.5-0.7,0.8-1.1,1c-0.4,0.2-0.9,0.3-1.4,0.3
		c-0.9,0-1.6-0.4-2.3-1.1c-0.6-0.7-1-1.7-1-2.9c0-1.1,0.3-2.1,0.9-3c0.6-0.8,1.4-1.3,2.5-1.3C208.7,244,209.2,244.1,209.6,244.4z
		 M206.6,250.3c0.4,0.6,0.9,0.8,1.7,0.8c0.6,0,1.1-0.3,1.5-0.8c0.4-0.5,0.6-1.3,0.6-2.3c0-1-0.2-1.7-0.6-2.2
		c-0.4-0.5-0.9-0.7-1.5-0.7c-0.7,0-1.2,0.3-1.6,0.8c-0.4,0.5-0.6,1.3-0.6,2.2C206.1,249,206.3,249.7,206.6,250.3z"/>
</g>
<g>
	<path d="M136.6,214h1.5v4.4h5.5V214h1.5v10.8h-1.5v-5H138v5h-1.5V214z"/>
	<path d="M152,217.1c0.5,0.3,0.9,0.6,1.2,1c0.3,0.4,0.4,0.9,0.5,1.4c0.1,0.4,0.1,0.9,0.1,1.7h-5.7c0,0.8,0.2,1.4,0.6,1.9
		s0.9,0.7,1.6,0.7c0.7,0,1.2-0.2,1.6-0.7c0.2-0.3,0.4-0.6,0.5-0.9h1.3c0,0.3-0.1,0.6-0.3,1c-0.2,0.4-0.4,0.6-0.6,0.9
		c-0.4,0.4-0.9,0.7-1.5,0.8c-0.3,0.1-0.7,0.1-1.1,0.1c-1,0-1.8-0.4-2.5-1.1c-0.7-0.7-1-1.7-1-3c0-1.3,0.3-2.3,1-3.1s1.6-1.2,2.7-1.2
		C151,216.7,151.5,216.9,152,217.1z M152.5,220.2c-0.1-0.6-0.2-1-0.4-1.4c-0.4-0.6-1-1-1.8-1c-0.6,0-1.1,0.2-1.5,0.7
		c-0.4,0.4-0.6,1-0.6,1.7H152.5z"/>
	<path d="M155.6,214h1.3v10.8h-1.3V214z"/>
	<path d="M158.9,214h1.3v10.8h-1.3V214z"/>
	<path d="M167.9,217.7c0.7,0.7,1,1.7,1,3c0,1.3-0.3,2.3-0.9,3.1c-0.6,0.8-1.6,1.2-2.8,1.2c-1.1,0-1.9-0.4-2.6-1.1s-0.9-1.7-0.9-2.9
		c0-1.3,0.3-2.4,1-3.1c0.7-0.8,1.6-1.2,2.7-1.2C166.3,216.7,167.2,217,167.9,217.7z M167,222.9c0.3-0.7,0.5-1.4,0.5-2.2
		c0-0.7-0.1-1.3-0.3-1.8c-0.4-0.7-1-1.1-1.9-1.1c-0.8,0-1.4,0.3-1.7,0.9c-0.4,0.6-0.5,1.4-0.5,2.2c0,0.8,0.2,1.5,0.5,2.1
		c0.4,0.6,0.9,0.8,1.7,0.8C166.1,223.9,166.7,223.6,167,222.9z"/>
	<path d="M175.6,214l2,8.7l2.4-8.7h1.6l2.4,8.8l2-8.8h1.6l-2.8,10.8h-1.5l-2.5-8.9l-2.5,8.9h-1.5L174,214H175.6z"/>
	<path d="M194.3,217.7c0.7,0.7,1,1.7,1,3c0,1.3-0.3,2.3-0.9,3.1c-0.6,0.8-1.6,1.2-2.8,1.2c-1.1,0-1.9-0.4-2.6-1.1s-0.9-1.7-0.9-2.9
		c0-1.3,0.3-2.4,1-3.1c0.7-0.8,1.6-1.2,2.7-1.2C192.7,216.7,193.6,217,194.3,217.7z M193.4,222.9c0.3-0.7,0.5-1.4,0.5-2.2
		c0-0.7-0.1-1.3-0.3-1.8c-0.4-0.7-1-1.1-1.9-1.1c-0.8,0-1.4,0.3-1.7,0.9c-0.4,0.6-0.5,1.4-0.5,2.2c0,0.8,0.2,1.5,0.5,2.1
		c0.4,0.6,0.9,0.8,1.7,0.8C192.5,223.9,193.1,223.6,193.4,222.9z"/>
	<path d="M197,216.9h1.3v1.4c0.1-0.3,0.4-0.6,0.8-1c0.4-0.4,0.9-0.6,1.4-0.6c0,0,0.1,0,0.1,0s0.2,0,0.3,0v1.4c-0.1,0-0.2,0-0.2,0
		c-0.1,0-0.1,0-0.2,0c-0.7,0-1.2,0.2-1.5,0.6c-0.4,0.4-0.5,0.9-0.5,1.5v4.5H197V216.9z"/>
	<path d="M202,214h1.3v10.8H202V214z"/>
	<path d="M209.6,217.1c0.2,0.1,0.5,0.4,0.8,0.8v-4h1.3v10.8h-1.2v-1.1c-0.3,0.5-0.7,0.8-1.1,1c-0.4,0.2-0.9,0.3-1.4,0.3
		c-0.9,0-1.6-0.4-2.3-1.1c-0.6-0.7-1-1.7-1-2.9c0-1.1,0.3-2.1,0.9-3c0.6-0.8,1.4-1.3,2.5-1.3C208.7,216.8,209.2,216.9,209.6,217.1z
		 M206.6,223c0.4,0.6,0.9,0.8,1.7,0.8c0.6,0,1.1-0.3,1.5-0.8c0.4-0.5,0.6-1.3,0.6-2.3c0-1-0.2-1.7-0.6-2.2c-0.4-0.5-0.9-0.7-1.5-0.7
		c-0.7,0-1.2,0.3-1.6,0.8c-0.4,0.5-0.6,1.3-0.6,2.2C206.1,221.8,206.3,222.5,206.6,223z"/>
</g>
<g>
	<path d="M136.6,186.7h1.5v4.4h5.5v-4.4h1.5v10.8h-1.5v-5H138v5h-1.5V186.7z"/>
	<path d="M152,189.9c0.5,0.3,0.9,0.6,1.2,1c0.3,0.4,0.4,0.9,0.5,1.4c0.1,0.4,0.1,0.9,0.1,1.7h-5.7c0,0.8,0.2,1.4,0.6,1.9
		s0.9,0.7,1.6,0.7c0.7,0,1.2-0.2,1.6-0.7c0.2-0.3,0.4-0.6,0.5-0.9h1.3c0,0.3-0.1,0.6-0.3,1c-0.2,0.4-0.4,0.6-0.6,0.9
		c-0.4,0.4-0.9,0.7-1.5,0.8c-0.3,0.1-0.7,0.1-1.1,0.1c-1,0-1.8-0.4-2.5-1.1c-0.7-0.7-1-1.7-1-3c0-1.3,0.3-2.3,1-3.1s1.6-1.2,2.7-1.2
		C151,189.5,151.5,189.6,152,189.9z M152.5,193c-0.1-0.6-0.2-1-0.4-1.4c-0.4-0.6-1-1-1.8-1c-0.6,0-1.1,0.2-1.5,0.7
		c-0.4,0.4-0.6,1-0.6,1.7H152.5z"/>
	<path d="M155.6,186.7h1.3v10.8h-1.3V186.7z"/>
	<path d="M158.9,186.7h1.3v10.8h-1.3V186.7z"/>
	<path d="M167.9,190.4c0.7,0.7,1,1.7,1,3c0,1.3-0.3,2.3-0.9,3.1c-0.6,0.8-1.6,1.2-2.8,1.2c-1.1,0-1.9-0.4-2.6-1.1s-0.9-1.7-0.9-2.9
		c0-1.3,0.3-2.4,1-3.1c0.7-0.8,1.6-1.2,2.7-1.2C166.3,189.4,167.2,189.8,167.9,190.4z M167,195.7c0.3-0.7,0.5-1.4,0.5-2.2
		c0-0.7-0.1-1.3-0.3-1.8c-0.4-0.7-1-1.1-1.9-1.1c-0.8,0-1.4,0.3-1.7,0.9c-0.4,0.6-0.5,1.4-0.5,2.2c0,0.8,0.2,1.5,0.5,2.1
		c0.4,0.6,0.9,0.8,1.7,0.8C166.1,196.6,166.7,196.3,167,195.7z"/>
	<path d="M175.6,186.7l2,8.7l2.4-8.7h1.6l2.4,8.8l2-8.8h1.6l-2.8,10.8h-1.5l-2.5-8.9l-2.5,8.9h-1.5l-2.8-10.8H175.6z"/>
	<path d="M194.3,190.4c0.7,0.7,1,1.7,1,3c0,1.3-0.3,2.3-0.9,3.1c-0.6,0.8-1.6,1.2-2.8,1.2c-1.1,0-1.9-0.4-2.6-1.1s-0.9-1.7-0.9-2.9
		c0-1.3,0.3-2.4,1-3.1c0.7-0.8,1.6-1.2,2.7-1.2C192.7,189.4,193.6,189.8,194.3,190.4z M193.4,195.7c0.3-0.7,0.5-1.4,0.5-2.2
		c0-0.7-0.1-1.3-0.3-1.8c-0.4-0.7-1-1.1-1.9-1.1c-0.8,0-1.4,0.3-1.7,0.9c-0.4,0.6-0.5,1.4-0.5,2.2c0,0.8,0.2,1.5,0.5,2.1
		c0.4,0.6,0.9,0.8,1.7,0.8C192.5,196.6,193.1,196.3,193.4,195.7z"/>
	<path d="M197,189.7h1.3v1.4c0.1-0.3,0.4-0.6,0.8-1c0.4-0.4,0.9-0.6,1.4-0.6c0,0,0.1,0,0.1,0s0.2,0,0.3,0v1.4c-0.1,0-0.2,0-0.2,0
		c-0.1,0-0.1,0-0.2,0c-0.7,0-1.2,0.2-1.5,0.6c-0.4,0.4-0.5,0.9-0.5,1.5v4.5H197V189.7z"/>
	<path d="M202,186.7h1.3v10.8H202V186.7z"/>
	<path d="M209.6,189.9c0.2,0.1,0.5,0.4,0.8,0.8v-4h1.3v10.8h-1.2v-1.1c-0.3,0.5-0.7,0.8-1.1,1c-0.4,0.2-0.9,0.3-1.4,0.3
		c-0.9,0-1.6-0.4-2.3-1.1c-0.6-0.7-1-1.7-1-2.9c0-1.1,0.3-2.1,0.9-3c0.6-0.8,1.4-1.3,2.5-1.3C208.7,189.5,209.2,189.6,209.6,189.9z
		 M206.6,195.8c0.4,0.6,0.9,0.8,1.7,0.8c0.6,0,1.1-0.3,1.5-0.8c0.4-0.5,0.6-1.3,0.6-2.3c0-1-0.2-1.7-0.6-2.2
		c-0.4-0.5-0.9-0.7-1.5-0.7c-0.7,0-1.2,0.3-1.6,0.8c-0.4,0.5-0.6,1.3-0.6,2.2C206.1,194.5,206.3,195.2,206.6,195.8z"/>
</g>
<g>
	<path d="M136.6,159.5h1.5v4.4h5.5v-4.4h1.5v10.8h-1.5v-5H138v5h-1.5V159.5z"/>
	<path d="M152,162.6c0.5,0.3,0.9,0.6,1.2,1c0.3,0.4,0.4,0.9,0.5,1.4c0.1,0.4,0.1,0.9,0.1,1.7h-5.7c0,0.8,0.2,1.4,0.6,1.9
		s0.9,0.7,1.6,0.7c0.7,0,1.2-0.2,1.6-0.7c0.2-0.3,0.4-0.6,0.5-0.9h1.3c0,0.3-0.1,0.6-0.3,1c-0.2,0.4-0.4,0.6-0.6,0.9
		c-0.4,0.4-0.9,0.7-1.5,0.8c-0.3,0.1-0.7,0.1-1.1,0.1c-1,0-1.8-0.4-2.5-1.1c-0.7-0.7-1-1.7-1-3c0-1.3,0.3-2.3,1-3.1s1.6-1.2,2.7-1.2
		C151,162.2,151.5,162.4,152,162.6z M152.5,165.7c-0.1-0.6-0.2-1-0.4-1.4c-0.4-0.6-1-1-1.8-1c-0.6,0-1.1,0.2-1.5,0.7
		c-0.4,0.4-0.6,1-0.6,1.7H152.5z"/>
	<path d="M155.6,159.5h1.3v10.8h-1.3V159.5z"/>
	<path d="M158.9,159.5h1.3v10.8h-1.3V159.5z"/>
	<path d="M167.9,163.2c0.7,0.7,1,1.7,1,3c0,1.3-0.3,2.3-0.9,3.1c-0.6,0.8-1.6,1.2-2.8,1.2c-1.1,0-1.9-0.4-2.6-1.1s-0.9-1.7-0.9-2.9
		c0-1.3,0.3-2.4,1-3.1c0.7-0.8,1.6-1.2,2.7-1.2C166.3,162.2,167.2,162.5,167.9,163.2z M167,168.4c0.3-0.7,0.5-1.4,0.5-2.2
		c0-0.7-0.1-1.3-0.3-1.8c-0.4-0.7-1-1.1-1.9-1.1c-0.8,0-1.4,0.3-1.7,0.9c-0.4,0.6-0.5,1.4-0.5,2.2c0,0.8,0.2,1.5,0.5,2.1
		c0.4,0.6,0.9,0.8,1.7,0.8C166.1,169.4,166.7,169.1,167,168.4z"/>
	<path d="M175.6,159.5l2,8.7l2.4-8.7h1.6l2.4,8.8l2-8.8h1.6l-2.8,10.8h-1.5l-2.5-8.9l-2.5,8.9h-1.5l-2.8-10.8H175.6z"/>
	<path d="M194.3,163.2c0.7,0.7,1,1.7,1,3c0,1.3-0.3,2.3-0.9,3.1c-0.6,0.8-1.6,1.2-2.8,1.2c-1.1,0-1.9-0.4-2.6-1.1s-0.9-1.7-0.9-2.9
		c0-1.3,0.3-2.4,1-3.1c0.7-0.8,1.6-1.2,2.7-1.2C192.7,162.2,193.6,162.5,194.3,163.2z M193.4,168.4c0.3-0.7,0.5-1.4,0.5-2.2
		c0-0.7-0.1-1.3-0.3-1.8c-0.4-0.7-1-1.1-1.9-1.1c-0.8,0-1.4,0.3-1.7,0.9c-0.4,0.6-0.5,1.4-0.5,2.2c0,0.8,0.2,1.5,0.5,2.1
		c0.4,0.6,0.9,0.8,1.7,0.8C192.5,169.4,193.1,169.1,193.4,168.4z"/>
	<path d="M197,162.4h1.3v1.4c0.1-0.3,0.4-0.6,0.8-1c0.4-0.4,0.9-0.6,1.4-0.6c0,0,0.1,0,0.1,0s0.2,0,0.3,0v1.4c-0.1,0-0.2,0-0.2,0
		c-0.1,0-0.1,0-0.2,0c-0.7,0-1.2,0.2-1.5,0.6c-0.4,0.4-0.5,0.9-0.5,1.5v4.5H197V162.4z"/>
	<path d="M202,159.5h1.3v10.8H202V159.5z"/>
	<path d="M209.6,162.6c0.2,0.1,0.5,0.4,0.8,0.8v-4h1.3v10.8h-1.2v-1.1c-0.3,0.5-0.7,0.8-1.1,1c-0.4,0.2-0.9,0.3-1.4,0.3
		c-0.9,0-1.6-0.4-2.3-1.1c-0.6-0.7-1-1.7-1-2.9c0-1.1,0.3-2.1,0.9-3c0.6-0.8,1.4-1.3,2.5-1.3C208.7,162.3,209.2,162.4,209.6,162.6z
		 M206.6,168.5c0.4,0.6,0.9,0.8,1.7,0.8c0.6,0,1.1-0.3,1.5-0.8c0.4-0.5,0.6-1.3,0.6-2.3c0-1-0.2-1.7-0.6-2.2
		c-0.4-0.5-0.9-0.7-1.5-0.7c-0.7,0-1.2,0.3-1.6,0.8c-0.4,0.5-0.6,1.3-0.6,2.2C206.1,167.3,206.3,168,206.6,168.5z"/>
</g>
<g>
	<g>
		<path d="M602.9,133.9V144h-1.3v-9h-4.7v9h-1.3v-10.1H602.9z"/>
		<path d="M605.1,139.1c0-0.9,0-1.7-0.1-2.4h1.2l0.1,1.2h0c0.5-0.9,1.4-1.4,2.6-1.4c1.8,0,3.1,1.5,3.1,3.7c0,2.6-1.6,3.9-3.3,3.9
			c-1,0-1.8-0.4-2.2-1.1h0v3.9h-1.3V139.1z M606.4,141c0,0.2,0,0.4,0.1,0.5c0.2,0.9,1,1.5,2,1.5c1.4,0,2.2-1.1,2.2-2.8
			c0-1.5-0.8-2.7-2.2-2.7c-0.9,0-1.7,0.6-2,1.6c0,0.2-0.1,0.4-0.1,0.5V141z"/>
		<path d="M614.9,136.7v3.1c0,1.2,0,1.9-0.1,2.9l0,0c0.4-0.9,0.7-1.4,1.2-2.2l2.3-3.8h1.5v7.3h-1.3v-3.1c0-1.2,0-1.8,0.1-3h0
			c-0.5,0.9-0.8,1.5-1.2,2.2c-0.7,1.1-1.5,2.5-2.3,3.8h-1.5v-7.3H614.9z"/>
		<path d="M621.9,136.8c0.5-0.1,1.5-0.2,2.3-0.2c1.2,0,3.2,0.2,3.2,1.8c0,0.9-0.7,1.5-1.5,1.6v0c1.1,0.2,1.8,0.8,1.8,1.8
			c0,1.9-2.4,2.1-3.8,2.1c-0.8,0-1.6-0.1-2-0.1V136.8z M623.2,143.1c0.4,0,0.6,0.1,1.1,0.1c0.9,0,2.2-0.2,2.2-1.3c0-1-1-1.3-2.3-1.3
			h-1V143.1z M623.2,139.8h1c1,0,2-0.3,2-1.1c0-0.7-0.6-1.1-2-1.1c-0.4,0-0.7,0-1,0.1V139.8z"/>
		<path d="M630.2,140.6c0,1.8,1.2,2.5,2.5,2.5c0.9,0,1.5-0.2,2-0.4l0.2,0.9c-0.5,0.2-1.3,0.5-2.4,0.5c-2.2,0-3.6-1.5-3.6-3.7
			s1.3-3.9,3.4-3.9c2.4,0,3,2.1,3,3.4c0,0.3,0,0.5,0,0.6H630.2z M634,139.7c0-0.8-0.3-2.1-1.8-2.1c-1.3,0-1.9,1.2-2,2.1H634z"/>
		<path d="M641.8,136.7v1h-2.3v6.2h-1.3v-6.2H636v-1H641.8z"/>
		<path d="M646.3,136.7h1.6l1.3,3.7c0.2,0.5,0.5,1.4,0.7,2h0c0.2-0.5,0.6-1.7,0.9-2.5l1.2-3.2h1.6l0.5,7.3h-1.3l-0.2-3.5
			c0-0.8-0.1-1.7-0.1-2.6h0c-0.2,0.7-0.4,1.2-0.8,2.4l-1.4,3.7h-1l-1.3-3.6c-0.2-0.7-0.5-1.7-0.7-2.4h-0.1c0,0.9-0.1,1.8-0.1,2.6
			L647,144h-1.2L646.3,136.7z"/>
		<path d="M657,136.7v3.1c0,1.2,0,1.9-0.1,2.9l0,0c0.4-0.9,0.7-1.4,1.2-2.2l2.3-3.8h1.5v7.3h-1.3v-3.1c0-1.2,0-1.8,0.1-3h0
			c-0.5,0.9-0.8,1.5-1.2,2.2c-0.7,1.1-1.5,2.5-2.3,3.8h-1.5v-7.3H657z"/>
		<path d="M664.1,139.1c0-0.9,0-1.7-0.1-2.4h1.2l0.1,1.2h0c0.5-0.9,1.4-1.4,2.6-1.4c1.8,0,3.1,1.5,3.1,3.7c0,2.6-1.6,3.9-3.3,3.9
			c-1,0-1.8-0.4-2.2-1.1h0v3.9h-1.3V139.1z M665.4,141c0,0.2,0,0.4,0.1,0.5c0.2,0.9,1,1.5,2,1.5c1.4,0,2.2-1.1,2.2-2.8
			c0-1.5-0.8-2.7-2.2-2.7c-0.9,0-1.7,0.6-2,1.6c0,0.2-0.1,0.4-0.1,0.5V141z"/>
	</g>
</g>
<g>
	<g>
		<path d="M602.9,160.4v10.1h-1.3v-9h-4.7v9h-1.3v-10.1H602.9z"/>
		<path d="M605.1,165.6c0-0.9,0-1.7-0.1-2.4h1.2l0.1,1.2h0c0.5-0.9,1.4-1.4,2.6-1.4c1.8,0,3.1,1.5,3.1,3.7c0,2.6-1.6,3.9-3.3,3.9
			c-1,0-1.8-0.4-2.2-1.1h0v3.9h-1.3V165.6z M606.4,167.5c0,0.2,0,0.4,0.1,0.5c0.2,0.9,1,1.5,2,1.5c1.4,0,2.2-1.1,2.2-2.8
			c0-1.5-0.8-2.7-2.2-2.7c-0.9,0-1.7,0.6-2,1.6c0,0.2-0.1,0.4-0.1,0.5V167.5z"/>
		<path d="M614.9,163.2v3.1c0,1.2,0,1.9-0.1,2.9l0,0c0.4-0.9,0.7-1.4,1.2-2.2l2.3-3.8h1.5v7.3h-1.3v-3.1c0-1.2,0-1.8,0.1-3h0
			c-0.5,0.9-0.8,1.5-1.2,2.2c-0.7,1.1-1.5,2.5-2.3,3.8h-1.5v-7.3H614.9z"/>
		<path d="M621.9,163.3c0.5-0.1,1.5-0.2,2.3-0.2c1.2,0,3.2,0.2,3.2,1.8c0,0.9-0.7,1.5-1.5,1.6v0c1.1,0.2,1.8,0.8,1.8,1.8
			c0,1.9-2.4,2.1-3.8,2.1c-0.8,0-1.6-0.1-2-0.1V163.3z M623.2,169.6c0.4,0,0.6,0.1,1.1,0.1c0.9,0,2.2-0.2,2.2-1.3c0-1-1-1.3-2.3-1.3
			h-1V169.6z M623.2,166.3h1c1,0,2-0.3,2-1.1c0-0.7-0.6-1.1-2-1.1c-0.4,0-0.7,0-1,0.1V166.3z"/>
		<path d="M630.2,167.1c0,1.8,1.2,2.5,2.5,2.5c0.9,0,1.5-0.2,2-0.4l0.2,0.9c-0.5,0.2-1.3,0.5-2.4,0.5c-2.2,0-3.6-1.5-3.6-3.7
			s1.3-3.9,3.4-3.9c2.4,0,3,2.1,3,3.4c0,0.3,0,0.5,0,0.6H630.2z M634,166.2c0-0.8-0.3-2.1-1.8-2.1c-1.3,0-1.9,1.2-2,2.1H634z"/>
		<path d="M641.8,163.2v1h-2.3v6.2h-1.3v-6.2H636v-1H641.8z"/>
		<path d="M646.3,163.2h1.6l1.3,3.7c0.2,0.5,0.5,1.4,0.7,2h0c0.2-0.5,0.6-1.7,0.9-2.5l1.2-3.2h1.6l0.5,7.3h-1.3l-0.2-3.5
			c0-0.8-0.1-1.7-0.1-2.6h0c-0.2,0.7-0.4,1.2-0.8,2.4l-1.4,3.7h-1l-1.3-3.6c-0.2-0.7-0.5-1.7-0.7-2.4h-0.1c0,0.9-0.1,1.8-0.1,2.6
			l-0.2,3.4h-1.2L646.3,163.2z"/>
		<path d="M657,163.2v3.1c0,1.2,0,1.9-0.1,2.9l0,0c0.4-0.9,0.7-1.4,1.2-2.2l2.3-3.8h1.5v7.3h-1.3v-3.1c0-1.2,0-1.8,0.1-3h0
			c-0.5,0.9-0.8,1.5-1.2,2.2c-0.7,1.1-1.5,2.5-2.3,3.8h-1.5v-7.3H657z"/>
		<path d="M664.1,165.6c0-0.9,0-1.7-0.1-2.4h1.2l0.1,1.2h0c0.5-0.9,1.4-1.4,2.6-1.4c1.8,0,3.1,1.5,3.1,3.7c0,2.6-1.6,3.9-3.3,3.9
			c-1,0-1.8-0.4-2.2-1.1h0v3.9h-1.3V165.6z M665.4,167.5c0,0.2,0,0.4,0.1,0.5c0.2,0.9,1,1.5,2,1.5c1.4,0,2.2-1.1,2.2-2.8
			c0-1.5-0.8-2.7-2.2-2.7c-0.9,0-1.7,0.6-2,1.6c0,0.2-0.1,0.4-0.1,0.5V167.5z"/>
	</g>
</g>
<g>
	<g>
		<path d="M602.9,186.9V197h-1.3v-9h-4.7v9h-1.3v-10.1H602.9z"/>
		<path d="M605.1,192.1c0-0.9,0-1.7-0.1-2.4h1.2l0.1,1.2h0c0.5-0.9,1.4-1.4,2.6-1.4c1.8,0,3.1,1.5,3.1,3.7c0,2.6-1.6,3.9-3.3,3.9
			c-1,0-1.8-0.4-2.2-1.1h0v3.9h-1.3V192.1z M606.4,194c0,0.2,0,0.4,0.1,0.5c0.2,0.9,1,1.5,2,1.5c1.4,0,2.2-1.1,2.2-2.8
			c0-1.5-0.8-2.7-2.2-2.7c-0.9,0-1.7,0.6-2,1.6c0,0.2-0.1,0.4-0.1,0.5V194z"/>
		<path d="M614.9,189.7v3.1c0,1.2,0,1.9-0.1,2.9l0,0c0.4-0.9,0.7-1.4,1.2-2.2l2.3-3.8h1.5v7.3h-1.3v-3.1c0-1.2,0-1.8,0.1-3h0
			c-0.5,0.9-0.8,1.5-1.2,2.2c-0.7,1.1-1.5,2.5-2.3,3.8h-1.5v-7.3H614.9z"/>
		<path d="M621.9,189.8c0.5-0.1,1.5-0.2,2.3-0.2c1.2,0,3.2,0.2,3.2,1.8c0,0.9-0.7,1.5-1.5,1.6v0c1.1,0.2,1.8,0.8,1.8,1.8
			c0,1.9-2.4,2.1-3.8,2.1c-0.8,0-1.6-0.1-2-0.1V189.8z M623.2,196.1c0.4,0,0.6,0.1,1.1,0.1c0.9,0,2.2-0.2,2.2-1.3c0-1-1-1.3-2.3-1.3
			h-1V196.1z M623.2,192.8h1c1,0,2-0.3,2-1.1c0-0.7-0.6-1.1-2-1.1c-0.4,0-0.7,0-1,0.1V192.8z"/>
		<path d="M630.2,193.6c0,1.8,1.2,2.5,2.5,2.5c0.9,0,1.5-0.2,2-0.4l0.2,0.9c-0.5,0.2-1.3,0.5-2.4,0.5c-2.2,0-3.6-1.5-3.6-3.7
			s1.3-3.9,3.4-3.9c2.4,0,3,2.1,3,3.4c0,0.3,0,0.5,0,0.6H630.2z M634,192.7c0-0.8-0.3-2.1-1.8-2.1c-1.3,0-1.9,1.2-2,2.1H634z"/>
		<path d="M641.8,189.7v1h-2.3v6.2h-1.3v-6.2H636v-1H641.8z"/>
		<path d="M646.3,189.7h1.6l1.3,3.7c0.2,0.5,0.5,1.4,0.7,2h0c0.2-0.5,0.6-1.7,0.9-2.5l1.2-3.2h1.6l0.5,7.3h-1.3l-0.2-3.5
			c0-0.8-0.1-1.7-0.1-2.6h0c-0.2,0.7-0.4,1.2-0.8,2.4l-1.4,3.7h-1l-1.3-3.6c-0.2-0.7-0.5-1.7-0.7-2.4h-0.1c0,0.9-0.1,1.8-0.1,2.6
			L647,197h-1.2L646.3,189.7z"/>
		<path d="M657,189.7v3.1c0,1.2,0,1.9-0.1,2.9l0,0c0.4-0.9,0.7-1.4,1.2-2.2l2.3-3.8h1.5v7.3h-1.3v-3.1c0-1.2,0-1.8,0.1-3h0
			c-0.5,0.9-0.8,1.5-1.2,2.2c-0.7,1.1-1.5,2.5-2.3,3.8h-1.5v-7.3H657z"/>
		<path d="M664.1,192.1c0-0.9,0-1.7-0.1-2.4h1.2l0.1,1.2h0c0.5-0.9,1.4-1.4,2.6-1.4c1.8,0,3.1,1.5,3.1,3.7c0,2.6-1.6,3.9-3.3,3.9
			c-1,0-1.8-0.4-2.2-1.1h0v3.9h-1.3V192.1z M665.4,194c0,0.2,0,0.4,0.1,0.5c0.2,0.9,1,1.5,2,1.5c1.4,0,2.2-1.1,2.2-2.8
			c0-1.5-0.8-2.7-2.2-2.7c-0.9,0-1.7,0.6-2,1.6c0,0.2-0.1,0.4-0.1,0.5V194z"/>
	</g>
</g>
<g>
	<g>
		<path d="M602.9,213.4v10.1h-1.3v-9h-4.7v9h-1.3v-10.1H602.9z"/>
		<path d="M605.1,218.6c0-0.9,0-1.7-0.1-2.4h1.2l0.1,1.2h0c0.5-0.9,1.4-1.4,2.6-1.4c1.8,0,3.1,1.5,3.1,3.7c0,2.6-1.6,3.9-3.3,3.9
			c-1,0-1.8-0.4-2.2-1.1h0v3.9h-1.3V218.6z M606.4,220.5c0,0.2,0,0.4,0.1,0.5c0.2,0.9,1,1.5,2,1.5c1.4,0,2.2-1.1,2.2-2.8
			c0-1.5-0.8-2.7-2.2-2.7c-0.9,0-1.7,0.6-2,1.6c0,0.2-0.1,0.4-0.1,0.5V220.5z"/>
		<path d="M614.9,216.2v3.1c0,1.2,0,1.9-0.1,2.9l0,0c0.4-0.9,0.7-1.4,1.2-2.2l2.3-3.8h1.5v7.3h-1.3v-3.1c0-1.2,0-1.8,0.1-3h0
			c-0.5,0.9-0.8,1.5-1.2,2.2c-0.7,1.1-1.5,2.5-2.3,3.8h-1.5v-7.3H614.9z"/>
		<path d="M621.9,216.3c0.5-0.1,1.5-0.2,2.3-0.2c1.2,0,3.2,0.2,3.2,1.8c0,0.9-0.7,1.5-1.5,1.6v0c1.1,0.2,1.8,0.8,1.8,1.8
			c0,1.9-2.4,2.1-3.8,2.1c-0.8,0-1.6-0.1-2-0.1V216.3z M623.2,222.6c0.4,0,0.6,0.1,1.1,0.1c0.9,0,2.2-0.2,2.2-1.3c0-1-1-1.3-2.3-1.3
			h-1V222.6z M623.2,219.3h1c1,0,2-0.3,2-1.1c0-0.7-0.6-1.1-2-1.1c-0.4,0-0.7,0-1,0.1V219.3z"/>
		<path d="M630.2,220.1c0,1.8,1.2,2.5,2.5,2.5c0.9,0,1.5-0.2,2-0.4l0.2,0.9c-0.5,0.2-1.3,0.5-2.4,0.5c-2.2,0-3.6-1.5-3.6-3.7
			s1.3-3.9,3.4-3.9c2.4,0,3,2.1,3,3.4c0,0.3,0,0.5,0,0.6H630.2z M634,219.2c0-0.8-0.3-2.1-1.8-2.1c-1.3,0-1.9,1.2-2,2.1H634z"/>
		<path d="M641.8,216.2v1h-2.3v6.2h-1.3v-6.2H636v-1H641.8z"/>
		<path d="M646.3,216.2h1.6l1.3,3.7c0.2,0.5,0.5,1.4,0.7,2h0c0.2-0.5,0.6-1.7,0.9-2.5l1.2-3.2h1.6l0.5,7.3h-1.3l-0.2-3.5
			c0-0.8-0.1-1.7-0.1-2.6h0c-0.2,0.7-0.4,1.2-0.8,2.4l-1.4,3.7h-1l-1.3-3.6c-0.2-0.7-0.5-1.7-0.7-2.4h-0.1c0,0.9-0.1,1.8-0.1,2.6
			l-0.2,3.4h-1.2L646.3,216.2z"/>
		<path d="M657,216.2v3.1c0,1.2,0,1.9-0.1,2.9l0,0c0.4-0.9,0.7-1.4,1.2-2.2l2.3-3.8h1.5v7.3h-1.3v-3.1c0-1.2,0-1.8,0.1-3h0
			c-0.5,0.9-0.8,1.5-1.2,2.2c-0.7,1.1-1.5,2.5-2.3,3.8h-1.5v-7.3H657z"/>
		<path d="M664.1,218.6c0-0.9,0-1.7-0.1-2.4h1.2l0.1,1.2h0c0.5-0.9,1.4-1.4,2.6-1.4c1.8,0,3.1,1.5,3.1,3.7c0,2.6-1.6,3.9-3.3,3.9
			c-1,0-1.8-0.4-2.2-1.1h0v3.9h-1.3V218.6z M665.4,220.5c0,0.2,0,0.4,0.1,0.5c0.2,0.9,1,1.5,2,1.5c1.4,0,2.2-1.1,2.2-2.8
			c0-1.5-0.8-2.7-2.2-2.7c-0.9,0-1.7,0.6-2,1.6c0,0.2-0.1,0.4-0.1,0.5V220.5z"/>
	</g>
</g>
<g>
	<g>
		<path d="M602.9,239.9V250h-1.3v-9h-4.7v9h-1.3v-10.1H602.9z"/>
		<path d="M605.1,245.1c0-0.9,0-1.7-0.1-2.4h1.2l0.1,1.2h0c0.5-0.9,1.4-1.4,2.6-1.4c1.8,0,3.1,1.5,3.1,3.7c0,2.6-1.6,3.9-3.3,3.9
			c-1,0-1.8-0.4-2.2-1.1h0v3.9h-1.3V245.1z M606.4,247c0,0.2,0,0.4,0.1,0.5c0.2,0.9,1,1.5,2,1.5c1.4,0,2.2-1.1,2.2-2.8
			c0-1.5-0.8-2.7-2.2-2.7c-0.9,0-1.7,0.6-2,1.6c0,0.2-0.1,0.4-0.1,0.5V247z"/>
		<path d="M614.9,242.7v3.1c0,1.2,0,1.9-0.1,2.9l0,0c0.4-0.9,0.7-1.4,1.2-2.2l2.3-3.8h1.5v7.3h-1.3v-3.1c0-1.2,0-1.8,0.1-3h0
			c-0.5,0.9-0.8,1.5-1.2,2.2c-0.7,1.1-1.5,2.5-2.3,3.8h-1.5v-7.3H614.9z"/>
		<path d="M621.9,242.8c0.5-0.1,1.5-0.2,2.3-0.2c1.2,0,3.2,0.2,3.2,1.8c0,0.9-0.7,1.5-1.5,1.6v0c1.1,0.2,1.8,0.8,1.8,1.8
			c0,1.9-2.4,2.1-3.8,2.1c-0.8,0-1.6-0.1-2-0.1V242.8z M623.2,249.1c0.4,0,0.6,0.1,1.1,0.1c0.9,0,2.2-0.2,2.2-1.3c0-1-1-1.3-2.3-1.3
			h-1V249.1z M623.2,245.8h1c1,0,2-0.3,2-1.1c0-0.7-0.6-1.1-2-1.1c-0.4,0-0.7,0-1,0.1V245.8z"/>
		<path d="M630.2,246.6c0,1.8,1.2,2.5,2.5,2.5c0.9,0,1.5-0.2,2-0.4l0.2,0.9c-0.5,0.2-1.3,0.5-2.4,0.5c-2.2,0-3.6-1.5-3.6-3.7
			s1.3-3.9,3.4-3.9c2.4,0,3,2.1,3,3.4c0,0.3,0,0.5,0,0.6H630.2z M634,245.7c0-0.8-0.3-2.1-1.8-2.1c-1.3,0-1.9,1.2-2,2.1H634z"/>
		<path d="M641.8,242.7v1h-2.3v6.2h-1.3v-6.2H636v-1H641.8z"/>
		<path d="M646.3,242.7h1.6l1.3,3.7c0.2,0.5,0.5,1.4,0.7,2h0c0.2-0.5,0.6-1.7,0.9-2.5l1.2-3.2h1.6l0.5,7.3h-1.3l-0.2-3.5
			c0-0.8-0.1-1.7-0.1-2.6h0c-0.2,0.7-0.4,1.2-0.8,2.4l-1.4,3.7h-1l-1.3-3.6c-0.2-0.7-0.5-1.7-0.7-2.4h-0.1c0,0.9-0.1,1.8-0.1,2.6
			L647,250h-1.2L646.3,242.7z"/>
		<path d="M657,242.7v3.1c0,1.2,0,1.9-0.1,2.9l0,0c0.4-0.9,0.7-1.4,1.2-2.2l2.3-3.8h1.5v7.3h-1.3v-3.1c0-1.2,0-1.8,0.1-3h0
			c-0.5,0.9-0.8,1.5-1.2,2.2c-0.7,1.1-1.5,2.5-2.3,3.8h-1.5v-7.3H657z"/>
		<path d="M664.1,245.1c0-0.9,0-1.7-0.1-2.4h1.2l0.1,1.2h0c0.5-0.9,1.4-1.4,2.6-1.4c1.8,0,3.1,1.5,3.1,3.7c0,2.6-1.6,3.9-3.3,3.9
			c-1,0-1.8-0.4-2.2-1.1h0v3.9h-1.3V245.1z M665.4,247c0,0.2,0,0.4,0.1,0.5c0.2,0.9,1,1.5,2,1.5c1.4,0,2.2-1.1,2.2-2.8
			c0-1.5-0.8-2.7-2.2-2.7c-0.9,0-1.7,0.6-2,1.6c0,0.2-0.1,0.4-0.1,0.5V247z"/>
	</g>
</g>
<g>
	<path d="M106.6,307.4h13.5v2.3H109v5.7h10.2v2.2H109v6.3h11.3v2.2h-13.7V307.4z"/>
	<path d="M123.4,312.4h2.2v1.9c0.6-0.8,1.3-1.4,2-1.7c0.7-0.3,1.5-0.5,2.4-0.5c1.9,0,3.2,0.7,3.9,2c0.4,0.7,0.6,1.8,0.6,3.2v8.7
		h-2.3v-8.6c0-0.8-0.1-1.5-0.4-2c-0.4-0.8-1.1-1.3-2.2-1.3c-0.5,0-1,0.1-1.3,0.2c-0.6,0.2-1.2,0.6-1.7,1.1c-0.4,0.4-0.6,0.9-0.7,1.4
		s-0.2,1.2-0.2,2.1v7.1h-2.3V312.4z"/>
	<path d="M145.4,312.9c0.4,0.3,0.9,0.7,1.3,1.3v-1.7h2.1v12.4c0,1.7-0.3,3.1-0.8,4.1c-0.9,1.8-2.7,2.8-5.4,2.8c-1.5,0-2.7-0.3-3.7-1
		c-1-0.7-1.6-1.7-1.7-3.1h2.3c0.1,0.6,0.3,1.1,0.7,1.4c0.5,0.5,1.3,0.8,2.4,0.8c1.7,0,2.9-0.6,3.4-1.9c0.3-0.7,0.5-2,0.4-3.9
		c-0.5,0.7-1,1.2-1.6,1.5c-0.6,0.3-1.5,0.5-2.5,0.5c-1.5,0-2.8-0.5-3.9-1.6s-1.7-2.8-1.7-5.2c0-2.3,0.6-4.1,1.7-5.3
		c1.1-1.3,2.4-1.9,4-1.9C143.7,312.2,144.6,312.4,145.4,312.9z M145.7,315.4c-0.7-0.8-1.6-1.2-2.6-1.2c-1.6,0-2.7,0.8-3.3,2.3
		c-0.3,0.8-0.5,1.9-0.5,3.2c0,1.5,0.3,2.7,0.9,3.5c0.6,0.8,1.5,1.2,2.5,1.2c1.6,0,2.8-0.7,3.4-2.2c0.4-0.8,0.6-1.8,0.6-2.9
		C146.7,317.5,146.4,316.2,145.7,315.4z"/>
	<path d="M152.4,307.4h2.3V326h-2.3V307.4z"/>
	<path d="M158.1,307.4h2.3v2.6h-2.3V307.4z M158.1,312.5h2.3V326h-2.3V312.5z"/>
	<path d="M165.2,321.7c0.1,0.8,0.3,1.3,0.6,1.8c0.6,0.7,1.6,1.1,3.1,1.1c0.9,0,1.6-0.2,2.3-0.6s1-0.9,1-1.7c0-0.6-0.3-1-0.8-1.3
		c-0.3-0.2-1-0.4-2-0.6l-1.8-0.5c-1.2-0.3-2-0.6-2.6-1c-1-0.6-1.5-1.5-1.5-2.6c0-1.3,0.5-2.3,1.4-3.1c0.9-0.8,2.2-1.2,3.8-1.2
		c2.1,0,3.6,0.6,4.5,1.8c0.6,0.8,0.9,1.6,0.8,2.5h-2.2c0-0.5-0.2-1-0.6-1.4c-0.5-0.6-1.5-0.9-2.8-0.9c-0.9,0-1.6,0.2-2,0.5
		c-0.5,0.3-0.7,0.8-0.7,1.3c0,0.6,0.3,1.1,0.9,1.4c0.3,0.2,0.9,0.4,1.5,0.6l1.5,0.4c1.7,0.4,2.8,0.8,3.4,1.2
		c0.9,0.6,1.3,1.5,1.3,2.8c0,1.2-0.5,2.3-1.4,3.1c-0.9,0.9-2.3,1.3-4.2,1.3c-2,0-3.5-0.5-4.4-1.4c-0.9-0.9-1.3-2.1-1.4-3.4H165.2z"
		/>
	<path d="M176.9,307.3h2.3v7c0.5-0.7,1-1.2,1.5-1.4c0.7-0.5,1.7-0.7,2.8-0.7c2,0,3.3,0.7,4,2.1c0.4,0.8,0.6,1.8,0.6,3.1v8.7h-2.3
		v-8.6c0-1-0.1-1.7-0.4-2.2c-0.4-0.7-1.2-1.1-2.3-1.1c-0.9,0-1.8,0.3-2.6,1c-0.8,0.7-1.2,1.9-1.2,3.7v7.2h-2.3V307.3z"/>
</g>
<g>
	<path d="M349.8,320.4c0,1.6-0.2,2.8-0.7,3.7c-0.9,1.6-2.5,2.4-4.9,2.4c-1.4,0-2.6-0.4-3.6-1.1c-1-0.8-1.5-2.1-1.5-4V320h2.4v1.3
		c0,1,0.2,1.8,0.7,2.3c0.5,0.5,1.2,0.8,2.1,0.8c1.3,0,2.2-0.5,2.6-1.4c0.3-0.6,0.4-1.6,0.4-3.2v-12.4h2.5V320.4z"/>
	<path d="M360.6,317.8c0.5-0.1,0.9-0.3,1.1-0.7c0.1-0.2,0.2-0.5,0.2-0.9c0-0.8-0.3-1.3-0.8-1.7c-0.6-0.4-1.3-0.5-2.4-0.5
		c-1.2,0-2,0.3-2.5,1c-0.3,0.4-0.5,0.9-0.5,1.6h-2.1c0-1.7,0.6-2.8,1.6-3.5c1-0.7,2.3-1,3.6-1c1.6,0,2.9,0.3,3.9,0.9
		c1,0.6,1.5,1.6,1.5,2.8v7.8c0,0.2,0,0.4,0.1,0.6c0.1,0.1,0.3,0.2,0.6,0.2c0.1,0,0.2,0,0.3,0c0.1,0,0.3,0,0.4-0.1v1.7
		c-0.4,0.1-0.6,0.2-0.8,0.2s-0.4,0-0.8,0c-0.8,0-1.4-0.3-1.7-0.8c-0.2-0.3-0.3-0.7-0.4-1.3c-0.5,0.6-1.1,1.1-2,1.6
		c-0.9,0.4-1.8,0.7-2.9,0.7c-1.3,0-2.3-0.4-3.1-1.1c-0.8-0.8-1.2-1.7-1.2-2.9c0-1.3,0.4-2.2,1.2-2.9s1.8-1.1,3.1-1.3L360.6,317.8z
		 M355.8,323.9c0.5,0.4,1.1,0.6,1.7,0.6c0.8,0,1.6-0.2,2.3-0.6c1.3-0.6,1.9-1.6,1.9-3v-1.8c-0.3,0.2-0.6,0.3-1.1,0.4
		c-0.4,0.1-0.9,0.2-1.3,0.3L358,320c-0.8,0.1-1.5,0.3-1.9,0.5c-0.7,0.4-1.1,1-1.1,1.9C355,323,355.3,323.6,355.8,323.9z"/>
	<path d="M367.6,312.5h2.2v1.8c0.5-0.6,1-1.1,1.5-1.4c0.8-0.5,1.7-0.8,2.7-0.8c1.5,0,2.9,0.6,3.9,1.8c1.1,1.2,1.6,2.9,1.6,5.1
		c0,3-0.8,5.1-2.3,6.3c-1,0.8-2.1,1.2-3.4,1.2c-1,0-1.9-0.2-2.6-0.7c-0.4-0.3-0.9-0.7-1.4-1.3v6.9h-2.3V312.5z M376.2,323.1
		c0.7-0.9,1.1-2.2,1.1-4c0-1.1-0.2-2-0.5-2.8c-0.6-1.5-1.7-2.2-3.3-2.2c-1.6,0-2.7,0.8-3.3,2.4c-0.3,0.8-0.5,1.9-0.5,3.2
		c0,1,0.2,1.9,0.5,2.7c0.6,1.4,1.7,2.1,3.3,2.1C374.6,324.5,375.5,324,376.2,323.1z"/>
	<path d="M389.5,317.8c0.5-0.1,0.9-0.3,1.1-0.7c0.1-0.2,0.2-0.5,0.2-0.9c0-0.8-0.3-1.3-0.8-1.7c-0.6-0.4-1.3-0.5-2.4-0.5
		c-1.2,0-2,0.3-2.5,1c-0.3,0.4-0.5,0.9-0.5,1.6h-2.1c0-1.7,0.6-2.8,1.6-3.5c1-0.7,2.3-1,3.6-1c1.6,0,2.9,0.3,3.9,0.9
		c1,0.6,1.5,1.6,1.5,2.8v7.8c0,0.2,0,0.4,0.1,0.6c0.1,0.1,0.3,0.2,0.6,0.2c0.1,0,0.2,0,0.3,0c0.1,0,0.3,0,0.4-0.1v1.7
		c-0.4,0.1-0.6,0.2-0.8,0.2s-0.4,0-0.8,0c-0.8,0-1.4-0.3-1.7-0.8c-0.2-0.3-0.3-0.7-0.4-1.3c-0.5,0.6-1.1,1.1-2,1.6
		c-0.9,0.4-1.8,0.7-2.9,0.7c-1.3,0-2.3-0.4-3.1-1.1c-0.8-0.8-1.2-1.7-1.2-2.9c0-1.3,0.4-2.2,1.2-2.9s1.8-1.1,3.1-1.3L389.5,317.8z
		 M384.7,323.9c0.5,0.4,1.1,0.6,1.7,0.6c0.8,0,1.6-0.2,2.3-0.6c1.3-0.6,1.9-1.6,1.9-3v-1.8c-0.3,0.2-0.6,0.3-1.1,0.4
		c-0.4,0.1-0.9,0.2-1.3,0.3l-1.4,0.2c-0.8,0.1-1.5,0.3-1.9,0.5c-0.7,0.4-1.1,1-1.1,1.9C384,323,384.2,323.6,384.7,323.9z"/>
	<path d="M396.7,312.4h2.2v1.9c0.6-0.8,1.3-1.4,2-1.7s1.5-0.5,2.4-0.5c1.9,0,3.2,0.7,3.9,2c0.4,0.7,0.6,1.8,0.6,3.2v8.7h-2.3v-8.6
		c0-0.8-0.1-1.5-0.4-2c-0.4-0.8-1.1-1.3-2.2-1.3c-0.5,0-1,0.1-1.3,0.2c-0.6,0.2-1.2,0.6-1.7,1.1c-0.4,0.4-0.6,0.9-0.7,1.4
		c-0.1,0.5-0.2,1.2-0.2,2.1v7.1h-2.3V312.4z"/>
	<path d="M419.5,312.8c0.9,0.5,1.6,1,2.1,1.8c0.5,0.7,0.8,1.5,0.9,2.4c0.1,0.6,0.2,1.6,0.2,3h-9.9c0,1.4,0.4,2.5,1,3.3
		c0.6,0.8,1.5,1.3,2.8,1.3c1.2,0,2.1-0.4,2.8-1.2c0.4-0.5,0.7-1,0.8-1.6h2.2c-0.1,0.5-0.3,1.1-0.6,1.7c-0.3,0.6-0.7,1.1-1.1,1.5
		c-0.7,0.7-1.5,1.1-2.6,1.4c-0.5,0.1-1.2,0.2-1.9,0.2c-1.7,0-3.1-0.6-4.3-1.8c-1.2-1.2-1.8-3-1.8-5.2c0-2.2,0.6-4,1.8-5.3
		c1.2-1.4,2.7-2,4.6-2C417.7,312.1,418.6,312.3,419.5,312.8z M420.4,318.1c-0.1-1-0.3-1.8-0.6-2.4c-0.6-1.1-1.7-1.7-3.1-1.7
		c-1,0-1.9,0.4-2.6,1.1c-0.7,0.8-1.1,1.7-1.1,2.9H420.4z"/>
	<path d="M427,321.7c0.1,0.8,0.3,1.3,0.6,1.8c0.6,0.7,1.6,1.1,3.1,1.1c0.9,0,1.6-0.2,2.3-0.6c0.7-0.4,1-0.9,1-1.7
		c0-0.6-0.3-1-0.8-1.3c-0.3-0.2-1-0.4-2-0.6l-1.8-0.5c-1.2-0.3-2-0.6-2.6-1c-1-0.6-1.5-1.5-1.5-2.6c0-1.3,0.5-2.3,1.4-3.1
		s2.2-1.2,3.8-1.2c2.1,0,3.6,0.6,4.5,1.8c0.6,0.8,0.9,1.6,0.8,2.5h-2.2c0-0.5-0.2-1-0.6-1.4c-0.5-0.6-1.5-0.9-2.8-0.9
		c-0.9,0-1.6,0.2-2,0.5c-0.5,0.3-0.7,0.8-0.7,1.3c0,0.6,0.3,1.1,0.9,1.4c0.3,0.2,0.9,0.4,1.5,0.6l1.5,0.4c1.7,0.4,2.8,0.8,3.4,1.2
		c0.9,0.6,1.3,1.5,1.3,2.8c0,1.2-0.5,2.3-1.4,3.1s-2.3,1.3-4.2,1.3c-2,0-3.5-0.5-4.4-1.4c-0.9-0.9-1.3-2.1-1.4-3.4H427z"/>
	<path d="M447,312.8c0.9,0.5,1.6,1,2.1,1.8c0.5,0.7,0.8,1.5,0.9,2.4c0.1,0.6,0.2,1.6,0.2,3h-9.9c0,1.4,0.4,2.5,1,3.3
		c0.6,0.8,1.5,1.3,2.8,1.3c1.2,0,2.1-0.4,2.8-1.2c0.4-0.5,0.7-1,0.8-1.6h2.2c-0.1,0.5-0.3,1.1-0.6,1.7c-0.3,0.6-0.7,1.1-1.1,1.5
		c-0.7,0.7-1.5,1.1-2.6,1.4c-0.5,0.1-1.2,0.2-1.9,0.2c-1.7,0-3.1-0.6-4.3-1.8c-1.2-1.2-1.8-3-1.8-5.2c0-2.2,0.6-4,1.8-5.3
		c1.2-1.4,2.7-2,4.6-2C445.2,312.1,446.1,312.3,447,312.8z M447.8,318.1c-0.1-1-0.3-1.8-0.6-2.4c-0.6-1.1-1.7-1.7-3.1-1.7
		c-1,0-1.9,0.4-2.6,1.1c-0.7,0.8-1.1,1.7-1.1,2.9H447.8z"/>
</g>
<g>
	<path d="M584.3,307.4h8.5c1.4,0,2.5,0.2,3.5,0.6c1.7,0.8,2.6,2.3,2.6,4.4c0,1.1-0.2,2-0.7,2.7s-1.1,1.3-1.9,1.7
		c0.7,0.3,1.3,0.7,1.6,1.2s0.6,1.3,0.6,2.3l0.1,2.5c0,0.7,0.1,1.2,0.2,1.6c0.2,0.6,0.4,1,0.8,1.1v0.4h-3.1c-0.1-0.2-0.2-0.4-0.2-0.6
		s-0.1-0.7-0.1-1.5l-0.2-3.1c-0.1-1.2-0.5-2-1.3-2.4c-0.5-0.2-1.2-0.3-2.2-0.3h-5.6v8h-2.5V307.4z M592.5,315.9
		c1.2,0,2.1-0.2,2.7-0.7c0.7-0.5,1-1.3,1-2.6c0-1.3-0.5-2.2-1.4-2.7c-0.5-0.3-1.2-0.4-2-0.4h-6v6.4H592.5z"/>
	<path d="M604.8,312.4v9c0,0.7,0.1,1.3,0.3,1.7c0.4,0.8,1.1,1.2,2.2,1.2c1.5,0,2.6-0.7,3.2-2.1c0.3-0.8,0.5-1.8,0.5-3.1v-6.7h2.3
		V326h-2.2l0-2c-0.3,0.5-0.7,1-1.1,1.3c-0.9,0.7-1.9,1.1-3.1,1.1c-1.9,0-3.2-0.6-3.9-1.9c-0.4-0.7-0.6-1.6-0.6-2.8v-9.2H604.8z"/>
	<path d="M618.3,321.7c0.1,0.8,0.3,1.3,0.6,1.8c0.6,0.7,1.6,1.1,3.1,1.1c0.9,0,1.6-0.2,2.3-0.6s1-0.9,1-1.7c0-0.6-0.3-1-0.8-1.3
		c-0.3-0.2-1-0.4-2-0.6l-1.8-0.5c-1.2-0.3-2-0.6-2.6-1c-1-0.6-1.5-1.5-1.5-2.6c0-1.3,0.5-2.3,1.4-3.1c0.9-0.8,2.2-1.2,3.8-1.2
		c2.1,0,3.6,0.6,4.5,1.8c0.6,0.8,0.9,1.6,0.8,2.5h-2.2c0-0.5-0.2-1-0.6-1.4c-0.5-0.6-1.5-0.9-2.8-0.9c-0.9,0-1.6,0.2-2,0.5
		c-0.5,0.3-0.7,0.8-0.7,1.3c0,0.6,0.3,1.1,0.9,1.4c0.3,0.2,0.9,0.4,1.5,0.6l1.5,0.4c1.7,0.4,2.8,0.8,3.4,1.2
		c0.9,0.6,1.3,1.5,1.3,2.8c0,1.2-0.5,2.3-1.4,3.1c-0.9,0.9-2.3,1.3-4.2,1.3c-2,0-3.5-0.5-4.4-1.4c-0.9-0.9-1.3-2.1-1.4-3.4H618.3z"
		/>
	<path d="M631.3,321.7c0.1,0.8,0.3,1.3,0.6,1.8c0.6,0.7,1.6,1.1,3.1,1.1c0.9,0,1.6-0.2,2.3-0.6s1-0.9,1-1.7c0-0.6-0.3-1-0.8-1.3
		c-0.3-0.2-1-0.4-2-0.6l-1.8-0.5c-1.2-0.3-2-0.6-2.6-1c-1-0.6-1.5-1.5-1.5-2.6c0-1.3,0.5-2.3,1.4-3.1c0.9-0.8,2.2-1.2,3.8-1.2
		c2.1,0,3.6,0.6,4.5,1.8c0.6,0.8,0.9,1.6,0.8,2.5h-2.2c0-0.5-0.2-1-0.6-1.4c-0.5-0.6-1.5-0.9-2.8-0.9c-0.9,0-1.6,0.2-2,0.5
		c-0.5,0.3-0.7,0.8-0.7,1.3c0,0.6,0.3,1.1,0.9,1.4c0.3,0.2,0.9,0.4,1.5,0.6l1.5,0.4c1.7,0.4,2.8,0.8,3.4,1.2
		c0.9,0.6,1.3,1.5,1.3,2.8c0,1.2-0.5,2.3-1.4,3.1c-0.9,0.9-2.3,1.3-4.2,1.3c-2,0-3.5-0.5-4.4-1.4c-0.9-0.9-1.3-2.1-1.4-3.4H631.3z"
		/>
	<path d="M642.9,307.4h2.3v2.6h-2.3V307.4z M642.9,312.5h2.3V326h-2.3V312.5z"/>
	<path d="M656,317.8c0.5-0.1,0.9-0.3,1.1-0.7c0.1-0.2,0.2-0.5,0.2-0.9c0-0.8-0.3-1.3-0.8-1.7S655,314,654,314c-1.2,0-2,0.3-2.5,1
		c-0.3,0.4-0.5,0.9-0.5,1.6h-2.1c0-1.7,0.6-2.8,1.6-3.5s2.3-1,3.6-1c1.6,0,2.9,0.3,3.9,0.9c1,0.6,1.5,1.6,1.5,2.8v7.8
		c0,0.2,0,0.4,0.1,0.6s0.3,0.2,0.6,0.2c0.1,0,0.2,0,0.3,0s0.3,0,0.4-0.1v1.7c-0.4,0.1-0.6,0.2-0.8,0.2s-0.4,0-0.8,0
		c-0.8,0-1.4-0.3-1.7-0.8c-0.2-0.3-0.3-0.7-0.4-1.3c-0.5,0.6-1.1,1.1-2,1.6c-0.9,0.4-1.8,0.7-2.9,0.7c-1.3,0-2.3-0.4-3.1-1.1
		c-0.8-0.8-1.2-1.7-1.2-2.9c0-1.3,0.4-2.2,1.2-2.9c0.8-0.7,1.8-1.1,3.1-1.3L656,317.8z M651.2,323.9c0.5,0.4,1.1,0.6,1.7,0.6
		c0.8,0,1.6-0.2,2.3-0.6c1.3-0.6,1.9-1.6,1.9-3v-1.8c-0.3,0.2-0.6,0.3-1.1,0.4c-0.4,0.1-0.9,0.2-1.3,0.3l-1.4,0.2
		c-0.8,0.1-1.5,0.3-1.9,0.5c-0.7,0.4-1.1,1-1.1,1.9C650.5,323,650.7,323.6,651.2,323.9z"/>
	<path d="M663.2,312.4h2.2v1.9c0.6-0.8,1.3-1.4,2-1.7c0.7-0.3,1.5-0.5,2.4-0.5c1.9,0,3.2,0.7,3.9,2c0.4,0.7,0.6,1.8,0.6,3.2v8.7
		h-2.3v-8.6c0-0.8-0.1-1.5-0.4-2c-0.4-0.8-1.1-1.3-2.2-1.3c-0.5,0-1,0.1-1.3,0.2c-0.6,0.2-1.2,0.6-1.7,1.1c-0.4,0.4-0.6,0.9-0.7,1.4
		s-0.2,1.2-0.2,2.1v7.1h-2.3V312.4z"/>
</g>
</svg>
