<?xml version="1.0" encoding="utf-8"?>
<!-- Generator: Adobe Illustrator 17.1.0, SVG Export Plug-In . SVG Version: 6.00 Build 0)  -->
<!DOCTYPE svg PUBLIC "-//W3C//DTD SVG 1.1//EN" "http://www.w3.org/Graphics/SVG/1.1/DTD/svg11.dtd">
<svg version="1.1" id="Layer_1" xmlns="http://www.w3.org/2000/svg" xmlns:xlink="http://www.w3.org/1999/xlink" x="0px" y="0px"
	 viewBox="0 0 775 445" style="enable-background:new 0 0 775 445;" xml:space="preserve">
<path d="M198.6,312.5C198.6,312.5,198.6,312.6,198.6,312.5C198.6,312.6,198.6,312.5,198.6,312.5z M198.7,311.7c0-0.1,0-0.1,0-0.2
	C198.7,311.6,198.7,311.6,198.7,311.7z M197,310.1c1,0,1.5,0.6,1.7,1.4c0,0.2,0,0.4,0,0.5c0,0,0,0,0,0.1c0,0.2-0.1,0.4-0.1,0.5
	c-0.2,0.6-0.8,1.1-1.6,1.1C194.6,313.7,194.6,310.1,197,310.1z M173.9,342.5c-1.6,0-1.6-2.5,0-2.5
	C175.5,340,175.5,342.5,173.9,342.5z M168.5,348.5c-2.4,0-2.4-3.8,0-3.8C170.9,344.7,170.9,348.5,168.5,348.5z M164.2,341.7
	c-3.6,0-3.6-5.6,0-5.6c0.1,0,0.2,0,0.3,0c0.2-0.6,0.8-1.1,1.6-1.1c2.1,0,2.3,2.8,0.8,3.5C167.1,340.1,166.2,341.7,164.2,341.7z
	 M156.3,336.4c-2.4,0-2.4-3.8,0-3.8C158.7,332.6,158.7,336.4,156.3,336.4z M156.3,351c-1.4,1.4-3.3,2.1-4.7,1.7c0,0,0,0,0-0.1
	c0.4-1.4,0-2.8-0.9-4c0.3-0.6,0.7-1.2,1.3-1.8c1.4-1.4,3.1-2,4.5-1.7c0.1,0.4,0.2,0.7,0.5,1c0.3,0.3,0.6,0.4,1,0.5
	C158.4,347.8,157.7,349.6,156.3,351z M143.9,353.7c-0.2,0-0.3-0.1-0.5-0.1c-0.8-0.3-1.6-0.7-2.1-1.2c0.6-1.2,0.7-2.7,0.2-4.2
	c1-0.5,2.4-0.6,3.9-0.2c0.2,0,0.3,0.1,0.5,0.1c0.8,0.3,1.5,0.7,2,1.1c-0.3,1.4-0.2,2.8,0.5,3.9C147.4,353.9,145.6,354.2,143.9,353.7
	z M135.7,352.1c-0.9-0.3-1.7-0.8-2.5-1.6c-0.9-0.9-1.6-2.1-1.8-3.2c0-0.2,0-0.4-0.1-0.6c0.7,0.2,1.4,0.3,2.1,0.1
	c1-0.2,1.9-0.8,2.7-1.6c0.4,0.3,0.9,0.6,1.3,1c0.4,0.4,0.7,0.8,0.9,1.2c-0.3,0.5-0.6,1-0.8,1.5c-0.3,1.1-0.1,2.1,0.3,3.1
	C137.3,352.4,136.5,352.4,135.7,352.1z M125.2,329.9c-0.2-0.5-0.3-1.5,0.3-2.3c0.6-0.8,2-1,3.5-0.5c0.7,0.2,1.4,0.6,2.1,1.1
	c1,0.8,1.8,1.9,2.1,3c0.1,0.4,0.2,1,0.1,1.5c0,0,0,0,0,0c-0.7-0.2-1.5-0.3-2.2-0.2c-0.8,0.2-1.6,0.6-2.2,1.2c-0.5-0.2-1-0.5-1.4-0.8
	C126.2,332.1,125.5,331,125.2,329.9z M123.3,316.3c0.2-0.3,0.5-0.6,1-0.8c0.3,0.2,0.6,0.4,1,0.4c0.4,0,0.8-0.1,1.1-0.3
	c1.1,0.8,1.8,2.5,1.7,4.5c-0.1,1.3-0.5,2.6-1.2,3.4c-0.3,0.4-1.1,1.2-2,1.1c-0.2,0-0.3,0-0.5-0.1c-1.4-0.5-2.4-2.5-2.2-4.8
	C122.2,318.4,122.7,317.2,123.3,316.3z M129.6,336.7c1.5,0.3,3,0.1,4.1-0.6c0.7,0.8,1.2,1.9,1.5,3.1c0.2,1,0.1,2-0.1,2.9
	c-1.8-0.4-3.4-0.1-4.6,0.9c-0.6-0.7-1-1.7-1.2-2.7C129,339,129.2,337.7,129.6,336.7z M124.1,303.4c-0.2-1.1,0.4-2.3,1.8-2.3
	c1.5,0,2.1,1.3,1.8,2.4c1.7,1.5,1.1,5.2-1.9,5.2C122.7,308.7,122.1,304.8,124.1,303.4z M116.9,309.7c-2.4,0-2.4-3.8,0-3.8
	C119.4,305.9,119.4,309.7,116.9,309.7z M114.5,289.4c0-0.5-0.2-1.1-0.5-1.5c0,0,0,0,0,0c-2.7-6.5-0.5-14.2,5.5-18.3
	c3.3-2.2,7.3-2.9,10.9-2.2c0,0,0,0,0,0c0.2,0,0.4,0,0.6,0c0.3,0.1,0.6,0.2,0.9,0.3c0,0,0,0,0,0c3.1,1.1,5.8,3.3,7.6,6.3
	c4,6.9,1.7,15.7-5.2,19.7c-6.2,3.6-13.9,2.1-18.3-3.2C115.7,290,115.1,289.6,114.5,289.4z M130.1,262.6c0.2-0.1,0.4-0.1,0.6-0.1
	c2.3,0,2.3,3.6,0,3.6c-0.2,0-0.4,0-0.6-0.1c0,0-0.1,0-0.1,0c-0.2-0.1-0.3-0.2-0.5-0.3C128.6,264.9,128.8,263,130.1,262.6z
	 M134.6,299.9c1.5,0,1.5,2.4,0,2.4C133.1,302.2,133.1,299.9,134.6,299.9z M134.2,310.6c-2.4,0-2.4-3.8,0-3.8
	C136.7,306.8,136.7,310.6,134.2,310.6z M204.4,299.3c-0.6-10.5-8.8-18.7-19-19.9c0,0,0,0,0,0c-1.1-0.1-2.2,0.2-2.9,1.1
	c-1.1,1.3-0.9,3.3,0.4,4.5c0.6,0.5,1.4,0.7,2.1,0.7l0,0c7,1,12.6,6.7,13,14c0.2,4-1.2,7.7-3.6,10.6c0,0,0,0,0,0
	c-0.2,0.3-0.4,0.7-0.5,1.1c-0.1,0.2-0.2,0.5-0.3,0.7c-0.2,1,0.1,1.9,0.7,2.6c0,0,0,0,0,0c1.5,2.9,2.1,6.3,1.4,9.8
	c-1.6,7.8-9.3,12.8-17.1,11.2c-7-1.5-11.7-7.8-11.4-14.7c0.2-1.6-0.8-3-2.4-3.4c-1.7-0.3-3.3,0.7-3.6,2.4c0,0.2-0.1,0.4-0.1,0.5
	c0,0,0,0,0,0c0,0,0,0.1,0,0.1c0,0.8,0,1.5,0,2.3c-1,0-2,0.3-2.8,1.1l-6.5,6.4c-1.5,1.5-1.5,3.9,0,5.4l6.1,6.1
	c-0.1,0.1-0.2,0.2-0.3,0.3c-0.1,0.1-0.2,0.3-0.4,0.4c-2.2-0.6-4.9,0.3-7,2.4c-0.6,0.6-1,1.2-1.4,1.8c-0.7-0.4-1.4-0.8-2.2-1.1
	c-0.2-0.1-0.4-0.1-0.7-0.2c-2.1-0.5-4.1-0.3-5.7,0.4c-0.3-0.5-0.7-1-1.1-1.4c-0.6-0.5-1.2-1-1.8-1.4c0.4-1.3,0.5-2.8,0.3-4.3
	c-0.3-1.8-1.2-3.4-2.3-4.6c0.5-1.1,0.6-2.4,0.2-3.7c-0.5-1.6-1.5-3.1-3-4.3c-0.9-0.7-1.8-1.2-2.8-1.6c-0.2-0.1-0.3-0.1-0.5-0.1
	c0.8-1.2,1.3-2.7,1.4-4.3c0.2-3-1-5.6-2.9-6.8c0-0.2,0.1-0.4,0.1-0.5c0-0.1,0-0.3,0-0.4l8.2,0.4c2.1,0.1,3.9-1.5,4-3.6l0.5-9.1
	c0.1-1-0.3-2-0.9-2.7c8.1-6.2,10.5-17.6,5.3-26.6c-2.7-4.6-6.8-7.7-11.5-9.2v0c-0.3-0.1-0.6-0.1-0.8-0.1c-0.3-0.2-0.6-0.3-1-0.4
	c0,0,0,0,0,0c-0.1,0-0.1,0-0.2,0c0,0,0,0,0,0c0,0,0,0,0,0c-5.1-0.9-10.6,0.1-15.2,3.2c-8.7,5.8-11.8,17-7.6,26.5c0,0,0,0,0,0
	c0.4,0.9,1.1,1.6,2.1,1.8c0,0.4,0.2,0.8,0.4,1.2c0.1,0.2,0.2,0.3,0.3,0.4c0,0,0,0,0,0c0,0,0,0,0.1,0.1c0.5,0.6,1,1.2,1.5,1.7
	c-0.8,0.6-1.2,1.6-1.3,2.7l-0.5,9.1c-0.1,2.1,1.5,3.9,3.6,4l8.6,0.5c0,0.1,0,0.3-0.1,0.4c0,0.2,0,0.4,0,0.5
	c-0.7,0.3-1.3,0.9-1.9,1.6c-1,1.3-1.6,3-1.7,4.9c-0.2,3.2,1.2,6,3.4,7.1c-0.6,1.1-0.7,2.5-0.3,3.9c0.5,1.6,1.5,3.1,3,4.3
	c0.5,0.4,1,0.7,1.5,1c-0.6,1.4-0.8,3.1-0.5,4.9c0.3,1.8,1.1,3.4,2.3,4.5c-0.2,0.8-0.2,1.6-0.1,2.5c0.3,1.6,1.2,3.2,2.5,4.6
	c1,1,2.2,1.7,3.4,2.2c1.7,0.6,3.4,0.5,4.7-0.3c0.8,0.7,1.8,1.4,3,1.8c0.2,0.1,0.4,0.1,0.7,0.2c2.8,0.7,5.4,0.1,7-1.3
	c0.2,0.1,0.3,0.2,0.5,0.2c2.3,0.8,5.2-0.1,7.3-2.3c2.1-2.1,3-4.8,2.4-7c0.1-0.1,0.3-0.2,0.4-0.3c0.1-0.1,0.2-0.2,0.3-0.3l5.8,5.8
	c1.5,1.5,3.9,1.5,5.4,0l6.5-6.4c0.7-0.7,1.1-1.7,1.1-2.6c10.1,0.8,19.6-6,21.7-16.2c0.9-4.4,0.3-8.8-1.4-12.7
	C203.1,309.2,204.7,304.4,204.4,299.3z"/>
<path d="M442.4,251.4c0.8-19,2-39.5-2.9-58c-3.8-14.4-20-40.3-26.9-53.3c-1.9-3.5,0.8-21.4,3.3-32.1c2.6-10.7,7.4-20.7,11.9-30.7
	c2.4-5.3-17.7-14.3-20.1-9c-8.8,19.6-15.1,32.7-16.2,53.8c-0.9,0.6-1.9,1.3-2.9,2.1c8.1-21-15.4-41-34.8-29.6
	c-18.9,11.1-13.8,40.7,7.8,44.7c-4.7,2.7-5.2,4.2-7.2,5.6c-5.9,4.4-16.9,14.8-23.7,17.6c-0.9,0.4-1.9,0.5-3,0.6
	c-13.2,0.9-52.8-4.6-52.8-4.6c-8.6-0.8-10.5,21.2-1.9,21.9c0,0,46.1,2.6,61.5,3.8c0.2,0,0.4-0.1,0.7-0.1c2.7,0.1,5.4-0.6,8.1-2.9
	c5-4.3,20.8-15.8,20.8-15.8s20.3,36.5,23.4,49.9c1.8,7.6,0.6,31.2,0.6,31.2c-0.2,1.3-0.7,2.5-1.4,3.5l-22.9,28.8l-47-18.8
	c-8-3.2-16.2,17.2-8.2,20.4c19.4,7.8,38.9,15.5,58.3,23.3c0.8,0.3,1.6,0.2,2.5,0.1c1.5-0.2,2.8-0.4,3.6-1.4
	c9.3-11.7,37.2-46.9,37.2-46.9c1.8-0.5,3.1-1.3,4.4-1.4c1.4-0.1,4,1.9,4.1,3.6c0.4,9.4-7.8,43.2-7.8,43.2l-48.9,15.7
	c-8.2,2.6-1.5,23.6,6.7,21c0,0,46.7-10.6,59.5-19.6c1.2-0.9,1.9-2.4,2.7-4.1c0.2-0.4,0.5-0.9,0.5-1.3
	C434.3,297.4,442.4,251.4,442.4,251.4z"/>
</svg>
