<?xml version="1.0" encoding="utf-8"?>
<!-- Generator: Adobe Illustrator 17.1.0, SVG Export Plug-In . SVG Version: 6.00 Build 0)  -->
<!DOCTYPE svg PUBLIC "-//W3C//DTD SVG 1.1//EN" "http://www.w3.org/Graphics/SVG/1.1/DTD/svg11.dtd">
<svg version="1.1" id="Layer_1" xmlns="http://www.w3.org/2000/svg" xmlns:xlink="http://www.w3.org/1999/xlink" x="0px" y="0px"
	 viewBox="0 0 775 445" style="enable-background:new 0 0 775 445;" xml:space="preserve">
<polygon style="fill:#FFFFFF;stroke:#000000;stroke-width:8;stroke-miterlimit:10;" points="513.3,270.5 513.3,293.5 229.3,293.5 
	229.3,112 513.3,112 "/>
<path d="M443.1,308.8c0,12.6-9.4,22.8-20.9,22.8h-89.9c-11.5,0-20.9-10.2-20.9-22.8v-4.7h132.3v4.7H443.1z"/>
<path d="M406.1,192.4l-0.3-8.8c0-15.5-12.7-29-28.5-28.8c-15.2,0.3-27.4,12.7-27.4,27.9v0.8c0,1.4,1.1,2.5,2.5,2.5h7.5
	c1.4,0,2.5-1.1,2.5-2.5v-0.3c0-8.3,6.4-15.8,14.7-16.3c9.1-0.5,16.6,6.6,16.6,15.8v9.7h-44.5c-3.9,0-7.2,3.3-7.2,7.5v40.6
	c0,4.1,3.3,7.5,7.5,7.5h56.7c4.1,0,7.5-3.3,7.5-7.5v-40.9C413.6,195.7,410.3,192.4,406.1,192.4z"/>
<path style="fill:#FFFFFF;" d="M382.4,219.5c-0.5,0.3-0.8,0.8-0.8,1.4c0,3,0,6.1,0,8.8c0,1.1-0.5,2.5-1.7,3c-2.5,1.4-5.3-0.5-5.3-3
	l0,0c0-3,0-6.1,0-8.8c0-0.5,0-1.1-0.5-1.4c-2.8-1.9-3.6-5.5-2.2-8.3c1.4-3,4.4-4.7,7.5-3.9c3.3,0.5,5.8,3.3,5.8,6.6
	C385.1,216.4,384.3,218.4,382.4,219.5z"/>
<rect x="448.5" y="126.5" style="fill:none;stroke:#000000;stroke-miterlimit:10;" width="50" height="11"/>
<rect x="448.5" y="144.5" style="fill:none;stroke:#000000;stroke-miterlimit:10;" width="50" height="12"/>
<path d="M491,166c0,2.2-1.8,4-4,4h-25c-2.2,0-4-1.8-4-4l0,0c0-2.2,1.8-4,4-4h25C489.2,162,491,163.8,491,166L491,166z"/>
<g>
	<path d="M457.4,130.3v2.9c0,0.2,0,0.4,0.1,0.5c0.1,0.3,0.4,0.4,0.7,0.4c0.5,0,0.8-0.2,1-0.7c0.1-0.2,0.1-0.6,0.1-1v-2.1h0.7v4.4
		h-0.7l0-0.6c-0.1,0.2-0.2,0.3-0.3,0.4c-0.3,0.2-0.6,0.3-1,0.3c-0.6,0-1-0.2-1.3-0.6c-0.1-0.2-0.2-0.5-0.2-0.9v-3H457.4z"/>
	<path d="M461.7,133.3c0,0.2,0.1,0.4,0.2,0.6c0.2,0.2,0.5,0.4,1,0.4c0.3,0,0.5-0.1,0.7-0.2s0.3-0.3,0.3-0.5c0-0.2-0.1-0.3-0.3-0.4
		c-0.1-0.1-0.3-0.1-0.6-0.2l-0.6-0.1c-0.4-0.1-0.7-0.2-0.8-0.3c-0.3-0.2-0.5-0.5-0.5-0.8c0-0.4,0.2-0.7,0.5-1
		c0.3-0.3,0.7-0.4,1.2-0.4c0.7,0,1.1,0.2,1.4,0.6c0.2,0.2,0.3,0.5,0.3,0.8h-0.7c0-0.2-0.1-0.3-0.2-0.5c-0.2-0.2-0.5-0.3-0.9-0.3
		c-0.3,0-0.5,0.1-0.6,0.2c-0.1,0.1-0.2,0.2-0.2,0.4c0,0.2,0.1,0.3,0.3,0.5c0.1,0.1,0.3,0.1,0.5,0.2l0.5,0.1c0.5,0.1,0.9,0.3,1.1,0.4
		c0.3,0.2,0.4,0.5,0.4,0.9c0,0.4-0.1,0.7-0.4,1c-0.3,0.3-0.8,0.4-1.4,0.4c-0.7,0-1.1-0.1-1.4-0.4c-0.3-0.3-0.4-0.7-0.4-1.1H461.7z"
		/>
	<path d="M468.2,130.4c0.3,0.1,0.5,0.3,0.7,0.6c0.1,0.2,0.2,0.5,0.3,0.8c0,0.2,0.1,0.5,0.1,1H466c0,0.4,0.1,0.8,0.3,1.1
		c0.2,0.3,0.5,0.4,0.9,0.4c0.4,0,0.7-0.1,0.9-0.4c0.1-0.1,0.2-0.3,0.3-0.5h0.7c0,0.2-0.1,0.3-0.2,0.5c-0.1,0.2-0.2,0.4-0.4,0.5
		c-0.2,0.2-0.5,0.4-0.8,0.4c-0.2,0-0.4,0.1-0.6,0.1c-0.5,0-1-0.2-1.4-0.6c-0.4-0.4-0.6-1-0.6-1.7c0-0.7,0.2-1.3,0.6-1.7
		c0.4-0.4,0.9-0.7,1.5-0.7C467.6,130.2,467.9,130.3,468.2,130.4z M468.5,132.1c0-0.3-0.1-0.6-0.2-0.8c-0.2-0.4-0.5-0.5-1-0.5
		c-0.3,0-0.6,0.1-0.8,0.4c-0.2,0.2-0.3,0.6-0.4,0.9H468.5z"/>
	<path d="M470.2,130.3h0.7v0.8c0.1-0.1,0.2-0.3,0.4-0.5s0.5-0.3,0.8-0.3c0,0,0,0,0.1,0c0,0,0.1,0,0.2,0v0.8c0,0-0.1,0-0.1,0
		c0,0-0.1,0-0.1,0c-0.4,0-0.7,0.1-0.9,0.4s-0.3,0.5-0.3,0.8v2.5h-0.7V130.3z"/>
	<path d="M472.9,130.3h0.7v0.6c0.2-0.3,0.4-0.4,0.7-0.6c0.2-0.1,0.5-0.2,0.8-0.2c0.6,0,1,0.2,1.3,0.6c0.1,0.2,0.2,0.6,0.2,1v2.8
		h-0.7v-2.8c0-0.3,0-0.5-0.1-0.6c-0.1-0.3-0.4-0.4-0.7-0.4c-0.2,0-0.3,0-0.4,0.1c-0.2,0.1-0.4,0.2-0.5,0.4c-0.1,0.1-0.2,0.3-0.2,0.4
		c0,0.2-0.1,0.4-0.1,0.7v2.3h-0.7V130.3z"/>
	<path d="M479.9,132c0.2,0,0.3-0.1,0.3-0.2c0-0.1,0-0.2,0-0.3c0-0.3-0.1-0.4-0.3-0.5c-0.2-0.1-0.4-0.2-0.8-0.2
		c-0.4,0-0.7,0.1-0.8,0.3c-0.1,0.1-0.1,0.3-0.2,0.5h-0.7c0-0.5,0.2-0.9,0.5-1.1s0.7-0.3,1.2-0.3c0.5,0,0.9,0.1,1.3,0.3
		c0.3,0.2,0.5,0.5,0.5,0.9v2.5c0,0.1,0,0.1,0,0.2c0,0,0.1,0.1,0.2,0.1c0,0,0.1,0,0.1,0c0,0,0.1,0,0.1,0v0.5c-0.1,0-0.2,0.1-0.3,0.1
		c-0.1,0-0.1,0-0.2,0c-0.3,0-0.4-0.1-0.6-0.3c-0.1-0.1-0.1-0.2-0.1-0.4c-0.1,0.2-0.4,0.4-0.6,0.5c-0.3,0.1-0.6,0.2-0.9,0.2
		c-0.4,0-0.7-0.1-1-0.4s-0.4-0.6-0.4-0.9c0-0.4,0.1-0.7,0.4-0.9c0.3-0.2,0.6-0.4,1-0.4L479.9,132z M478.4,134
		c0.2,0.1,0.3,0.2,0.6,0.2c0.3,0,0.5-0.1,0.8-0.2c0.4-0.2,0.6-0.5,0.6-1v-0.6c-0.1,0.1-0.2,0.1-0.3,0.1s-0.3,0.1-0.4,0.1l-0.4,0.1
		c-0.3,0-0.5,0.1-0.6,0.2c-0.2,0.1-0.3,0.3-0.3,0.6C478.1,133.7,478.2,133.9,478.4,134z"/>
	<path d="M482.2,130.3h0.7v0.6c0.2-0.2,0.3-0.4,0.5-0.5c0.2-0.2,0.5-0.2,0.8-0.2c0.3,0,0.6,0.1,0.8,0.3c0.1,0.1,0.2,0.2,0.3,0.4
		c0.2-0.2,0.4-0.4,0.6-0.5c0.2-0.1,0.5-0.2,0.7-0.2c0.6,0,1,0.2,1.2,0.6c0.1,0.2,0.2,0.5,0.2,0.9v2.9h-0.8v-3c0-0.3-0.1-0.5-0.2-0.6
		c-0.1-0.1-0.3-0.2-0.5-0.2c-0.3,0-0.5,0.1-0.7,0.3c-0.2,0.2-0.3,0.5-0.3,1v2.5h-0.7v-2.9c0-0.3,0-0.5-0.1-0.6
		c-0.1-0.2-0.3-0.3-0.6-0.3c-0.3,0-0.5,0.1-0.8,0.3c-0.2,0.2-0.3,0.6-0.3,1.2v2.3h-0.7V130.3z"/>
	<path d="M491.9,130.4c0.3,0.1,0.5,0.3,0.7,0.6c0.1,0.2,0.2,0.5,0.3,0.8c0,0.2,0.1,0.5,0.1,1h-3.2c0,0.4,0.1,0.8,0.3,1.1
		c0.2,0.3,0.5,0.4,0.9,0.4c0.4,0,0.7-0.1,0.9-0.4c0.1-0.1,0.2-0.3,0.3-0.5h0.7c0,0.2-0.1,0.3-0.2,0.5c-0.1,0.2-0.2,0.4-0.4,0.5
		c-0.2,0.2-0.5,0.4-0.8,0.4c-0.2,0-0.4,0.1-0.6,0.1c-0.5,0-1-0.2-1.4-0.6c-0.4-0.4-0.6-1-0.6-1.7c0-0.7,0.2-1.3,0.6-1.7
		c0.4-0.4,0.9-0.7,1.5-0.7C491.3,130.2,491.6,130.3,491.9,130.4z M492.2,132.1c0-0.3-0.1-0.6-0.2-0.8c-0.2-0.4-0.5-0.5-1-0.5
		c-0.3,0-0.6,0.1-0.8,0.4c-0.2,0.2-0.3,0.6-0.4,0.9H492.2z"/>
</g>
<g>
	<path d="M454.8,148.1h0.7v0.6c0.1-0.2,0.3-0.4,0.5-0.5c0.2-0.2,0.5-0.2,0.9-0.2c0.5,0,0.9,0.2,1.3,0.6s0.5,0.9,0.5,1.6
		c0,1-0.2,1.6-0.8,2c-0.3,0.3-0.7,0.4-1.1,0.4c-0.3,0-0.6-0.1-0.8-0.2c-0.1-0.1-0.3-0.2-0.4-0.4v2.2h-0.7V148.1z M457.6,151.5
		c0.2-0.3,0.3-0.7,0.3-1.3c0-0.3-0.1-0.6-0.2-0.9c-0.2-0.5-0.5-0.7-1-0.7c-0.5,0-0.9,0.3-1,0.8c-0.1,0.3-0.2,0.6-0.2,1
		c0,0.3,0.1,0.6,0.2,0.9c0.2,0.5,0.5,0.7,1,0.7C457,151.9,457.3,151.8,457.6,151.5z"/>
	<path d="M461.8,149.8c0.2,0,0.3-0.1,0.3-0.2c0-0.1,0-0.2,0-0.3c0-0.3-0.1-0.4-0.3-0.5c-0.2-0.1-0.4-0.2-0.8-0.2
		c-0.4,0-0.7,0.1-0.8,0.3c-0.1,0.1-0.1,0.3-0.2,0.5h-0.7c0-0.5,0.2-0.9,0.5-1.1s0.7-0.3,1.2-0.3c0.5,0,0.9,0.1,1.3,0.3
		c0.3,0.2,0.5,0.5,0.5,0.9v2.5c0,0.1,0,0.1,0,0.2c0,0,0.1,0.1,0.2,0.1c0,0,0.1,0,0.1,0c0,0,0.1,0,0.1,0v0.5c-0.1,0-0.2,0.1-0.3,0.1
		c-0.1,0-0.1,0-0.2,0c-0.3,0-0.4-0.1-0.6-0.3c-0.1-0.1-0.1-0.2-0.1-0.4c-0.1,0.2-0.4,0.4-0.6,0.5c-0.3,0.1-0.6,0.2-0.9,0.2
		c-0.4,0-0.7-0.1-1-0.4s-0.4-0.6-0.4-0.9c0-0.4,0.1-0.7,0.4-0.9c0.3-0.2,0.6-0.4,1-0.4L461.8,149.8z M460.3,151.8
		c0.2,0.1,0.3,0.2,0.6,0.2c0.3,0,0.5-0.1,0.8-0.2c0.4-0.2,0.6-0.5,0.6-1v-0.6c-0.1,0.1-0.2,0.1-0.3,0.1s-0.3,0.1-0.4,0.1l-0.4,0.1
		c-0.3,0-0.5,0.1-0.6,0.2c-0.2,0.1-0.3,0.3-0.3,0.6C460.1,151.5,460.1,151.7,460.3,151.8z"/>
	<path d="M464.6,151.1c0,0.2,0.1,0.4,0.2,0.6c0.2,0.2,0.5,0.4,1,0.4c0.3,0,0.5-0.1,0.7-0.2s0.3-0.3,0.3-0.5c0-0.2-0.1-0.3-0.3-0.4
		c-0.1-0.1-0.3-0.1-0.6-0.2l-0.6-0.1c-0.4-0.1-0.7-0.2-0.8-0.3c-0.3-0.2-0.5-0.5-0.5-0.8c0-0.4,0.2-0.7,0.5-1
		c0.3-0.3,0.7-0.4,1.2-0.4c0.7,0,1.1,0.2,1.4,0.6c0.2,0.2,0.3,0.5,0.3,0.8h-0.7c0-0.2-0.1-0.3-0.2-0.5c-0.2-0.2-0.5-0.3-0.9-0.3
		c-0.3,0-0.5,0.1-0.6,0.2c-0.1,0.1-0.2,0.2-0.2,0.4c0,0.2,0.1,0.3,0.3,0.5c0.1,0.1,0.3,0.1,0.5,0.2l0.5,0.1c0.5,0.1,0.9,0.3,1.1,0.4
		c0.3,0.2,0.4,0.5,0.4,0.9c0,0.4-0.1,0.7-0.4,1c-0.3,0.3-0.8,0.4-1.4,0.4c-0.7,0-1.1-0.1-1.4-0.4c-0.3-0.3-0.4-0.7-0.4-1.1H464.6z"
		/>
	<path d="M468.8,151.1c0,0.2,0.1,0.4,0.2,0.6c0.2,0.2,0.5,0.4,1,0.4c0.3,0,0.5-0.1,0.7-0.2s0.3-0.3,0.3-0.5c0-0.2-0.1-0.3-0.3-0.4
		c-0.1-0.1-0.3-0.1-0.6-0.2l-0.6-0.1c-0.4-0.1-0.7-0.2-0.8-0.3c-0.3-0.2-0.5-0.5-0.5-0.8c0-0.4,0.2-0.7,0.5-1
		c0.3-0.3,0.7-0.4,1.2-0.4c0.7,0,1.1,0.2,1.4,0.6c0.2,0.2,0.3,0.5,0.3,0.8h-0.7c0-0.2-0.1-0.3-0.2-0.5c-0.2-0.2-0.5-0.3-0.9-0.3
		c-0.3,0-0.5,0.1-0.6,0.2c-0.1,0.1-0.2,0.2-0.2,0.4c0,0.2,0.1,0.3,0.3,0.5c0.1,0.1,0.3,0.1,0.5,0.2l0.5,0.1c0.5,0.1,0.9,0.3,1.1,0.4
		c0.3,0.2,0.4,0.5,0.4,0.9c0,0.4-0.1,0.7-0.4,1c-0.3,0.3-0.8,0.4-1.4,0.4c-0.7,0-1.1-0.1-1.4-0.4c-0.3-0.3-0.4-0.7-0.4-1.1H468.8z"
		/>
	<path d="M472.9,148.1l0.8,3.4l0.9-3.4h0.8l0.9,3.4l0.9-3.4h0.7l-1.3,4.4h-0.8l-0.9-3.4l-0.9,3.4h-0.8l-1.3-4.4H472.9z"/>
	<path d="M481.7,148.5c0.4,0.4,0.6,0.9,0.6,1.7c0,0.7-0.2,1.3-0.5,1.7c-0.3,0.5-0.9,0.7-1.6,0.7c-0.6,0-1.1-0.2-1.4-0.6
		c-0.4-0.4-0.5-1-0.5-1.6c0-0.7,0.2-1.3,0.6-1.8c0.4-0.4,0.9-0.7,1.5-0.7C480.9,147.9,481.3,148.1,481.7,148.5z M481.3,151.4
		c0.2-0.4,0.3-0.8,0.3-1.2c0-0.4-0.1-0.7-0.2-1c-0.2-0.4-0.6-0.6-1.1-0.6c-0.4,0-0.8,0.2-1,0.5c-0.2,0.3-0.3,0.8-0.3,1.2
		c0,0.5,0.1,0.9,0.3,1.2c0.2,0.3,0.5,0.5,1,0.5C480.8,152,481.1,151.8,481.3,151.4z"/>
	<path d="M483.2,148.1h0.7v0.8c0.1-0.1,0.2-0.3,0.4-0.5s0.5-0.3,0.8-0.3c0,0,0,0,0.1,0c0,0,0.1,0,0.2,0v0.8c0,0-0.1,0-0.1,0
		c0,0-0.1,0-0.1,0c-0.4,0-0.7,0.1-0.9,0.4s-0.3,0.5-0.3,0.8v2.5h-0.7V148.1z"/>
	<path d="M488.4,148.2c0.1,0.1,0.3,0.2,0.4,0.4v-2.2h0.7v6h-0.7v-0.6c-0.2,0.3-0.4,0.5-0.6,0.6s-0.5,0.2-0.8,0.2
		c-0.5,0-0.9-0.2-1.3-0.6c-0.4-0.4-0.5-1-0.5-1.6c0-0.6,0.2-1.2,0.5-1.7c0.3-0.5,0.8-0.7,1.4-0.7C487.9,148,488.2,148.1,488.4,148.2
		z M486.8,151.5c0.2,0.3,0.5,0.5,1,0.5c0.3,0,0.6-0.1,0.8-0.4c0.2-0.3,0.3-0.7,0.3-1.3c0-0.6-0.1-1-0.3-1.2
		c-0.2-0.3-0.5-0.4-0.8-0.4c-0.4,0-0.7,0.1-0.9,0.4s-0.3,0.7-0.3,1.2C486.5,150.8,486.6,151.2,486.8,151.5z"/>
</g>
<g>
	<g>
		<path style="fill:none;stroke:#000000;stroke-width:2;stroke-miterlimit:10;" d="M602.7,187.3c-10.8-3.9-21.5-8.1-32.2-12.4
			c-2.5-1-4.9-2-7.4-2.9c-9.5-3.8-19-7.5-28-12.2"/>
		<g>
			<polygon points="542.1,152.1 522.2,153.5 533.2,170 			"/>
		</g>
	</g>
</g>
<g>
	<path d="M568,199v9c0,0.7,0.1,1.3,0.3,1.7c0.4,0.8,1.1,1.2,2.2,1.2c1.5,0,2.6-0.7,3.2-2.1c0.3-0.8,0.5-1.8,0.5-3.1V199h2.3v13.6
		h-2.2l0-2c-0.3,0.5-0.7,1-1.1,1.3c-0.9,0.7-1.9,1.1-3.1,1.1c-1.9,0-3.2-0.6-3.9-1.9c-0.4-0.7-0.6-1.6-0.6-2.8V199H568z"/>
	<path d="M581.6,208.3c0.1,0.8,0.3,1.3,0.6,1.8c0.6,0.7,1.6,1.1,3.1,1.1c0.9,0,1.6-0.2,2.3-0.6c0.7-0.4,1-0.9,1-1.7
		c0-0.6-0.3-1-0.8-1.3c-0.3-0.2-1-0.4-2-0.6l-1.8-0.5c-1.2-0.3-2-0.6-2.6-1c-1-0.6-1.5-1.5-1.5-2.6c0-1.3,0.5-2.3,1.4-3.1
		c0.9-0.8,2.2-1.2,3.8-1.2c2.1,0,3.6,0.6,4.5,1.8c0.6,0.8,0.9,1.6,0.8,2.5h-2.2c0-0.5-0.2-1-0.6-1.4c-0.5-0.6-1.5-0.9-2.8-0.9
		c-0.9,0-1.6,0.2-2,0.5c-0.5,0.3-0.7,0.8-0.7,1.3c0,0.6,0.3,1.1,0.9,1.4c0.3,0.2,0.9,0.4,1.5,0.6l1.5,0.4c1.7,0.4,2.8,0.8,3.4,1.2
		c0.9,0.6,1.3,1.5,1.3,2.8c0,1.2-0.5,2.3-1.4,3.1c-0.9,0.9-2.3,1.3-4.2,1.3c-2,0-3.5-0.5-4.4-1.4c-0.9-0.9-1.3-2.1-1.4-3.4H581.6z"
		/>
	<path d="M601.6,199.3c0.9,0.5,1.6,1,2.1,1.8c0.5,0.7,0.8,1.5,0.9,2.4c0.1,0.6,0.2,1.6,0.2,3h-9.9c0,1.4,0.4,2.5,1,3.3
		s1.5,1.3,2.8,1.3c1.2,0,2.1-0.4,2.8-1.2c0.4-0.5,0.7-1,0.8-1.6h2.2c-0.1,0.5-0.3,1.1-0.6,1.7c-0.3,0.6-0.7,1.1-1.1,1.5
		c-0.7,0.7-1.5,1.1-2.6,1.4c-0.5,0.1-1.2,0.2-1.9,0.2c-1.7,0-3.1-0.6-4.3-1.8c-1.2-1.2-1.8-3-1.8-5.2c0-2.2,0.6-4,1.8-5.3
		c1.2-1.4,2.7-2,4.6-2C599.8,198.7,600.7,198.9,601.6,199.3z M602.4,204.7c-0.1-1-0.3-1.8-0.6-2.4c-0.6-1.1-1.7-1.7-3.1-1.7
		c-1,0-1.9,0.4-2.6,1.1c-0.7,0.8-1.1,1.7-1.1,2.9H602.4z"/>
	<path d="M607.7,199h2.2v2.3c0.2-0.5,0.6-1,1.3-1.7c0.7-0.7,1.5-1,2.4-1c0,0,0.1,0,0.2,0c0.1,0,0.3,0,0.5,0.1v2.4
		c-0.1,0-0.3,0-0.4-0.1c-0.1,0-0.2,0-0.4,0c-1.2,0-2,0.4-2.7,1.1c-0.6,0.7-0.9,1.6-0.9,2.6v7.8h-2.3V199z"/>
	<path d="M623.6,193.9h2.3v18.6h-2.3V193.9z"/>
	<path d="M639.2,200.3c1.2,1.2,1.8,2.9,1.8,5.1c0,2.2-0.5,4-1.6,5.4c-1.1,1.4-2.7,2.1-4.9,2.1c-1.9,0-3.3-0.6-4.4-1.9
		c-1.1-1.3-1.6-3-1.6-5.1c0-2.3,0.6-4.1,1.7-5.5c1.2-1.4,2.7-2,4.6-2C636.5,198.6,638,199.2,639.2,200.3z M637.7,209.4
		c0.6-1.1,0.8-2.4,0.8-3.8c0-1.3-0.2-2.3-0.6-3.1c-0.6-1.3-1.7-1.9-3.3-1.9c-1.4,0-2.4,0.5-3,1.6c-0.6,1.1-0.9,2.4-0.9,3.9
		c0,1.4,0.3,2.6,0.9,3.6c0.6,1,1.6,1.4,3,1.4C636.2,211.1,637.2,210.5,637.7,209.4z"/>
	<path d="M651.3,199.5c0.4,0.3,0.9,0.7,1.3,1.3v-1.7h2.1v12.4c0,1.7-0.3,3.1-0.8,4.1c-0.9,1.8-2.7,2.8-5.4,2.8c-1.5,0-2.7-0.3-3.7-1
		c-1-0.7-1.6-1.7-1.7-3.1h2.3c0.1,0.6,0.3,1.1,0.7,1.4c0.5,0.5,1.3,0.8,2.4,0.8c1.7,0,2.9-0.6,3.4-1.9c0.3-0.7,0.5-2,0.4-3.9
		c-0.5,0.7-1,1.2-1.6,1.5c-0.6,0.3-1.5,0.5-2.5,0.5c-1.5,0-2.8-0.5-3.9-1.6c-1.1-1-1.7-2.8-1.7-5.2c0-2.3,0.6-4.1,1.7-5.3
		c1.1-1.3,2.4-1.9,4-1.9C649.6,198.7,650.5,199,651.3,199.5z M651.6,202c-0.7-0.8-1.6-1.2-2.6-1.2c-1.6,0-2.7,0.8-3.3,2.3
		c-0.3,0.8-0.5,1.9-0.5,3.2c0,1.5,0.3,2.7,0.9,3.5c0.6,0.8,1.5,1.2,2.5,1.2c1.6,0,2.8-0.7,3.4-2.2c0.4-0.8,0.6-1.8,0.6-2.9
		C652.6,204,652.3,202.8,651.6,202z"/>
	<path d="M658.2,193.9h2.3v2.6h-2.3V193.9z M658.2,199h2.3v13.5h-2.3V199z"/>
	<path d="M664,199h2.2v1.9c0.6-0.8,1.3-1.4,2-1.7c0.7-0.3,1.5-0.5,2.4-0.5c1.9,0,3.2,0.7,3.9,2c0.4,0.7,0.6,1.8,0.6,3.2v8.7h-2.3
		V204c0-0.8-0.1-1.5-0.4-2c-0.4-0.8-1.1-1.3-2.2-1.3c-0.5,0-1,0.1-1.3,0.2c-0.6,0.2-1.2,0.6-1.7,1.1c-0.4,0.4-0.6,0.9-0.7,1.4
		c-0.1,0.5-0.2,1.2-0.2,2v7.1H664V199z"/>
</g>
</svg>
