<?xml version="1.0" encoding="utf-8"?>
<!-- Generator: Adobe Illustrator 17.1.0, SVG Export Plug-In . SVG Version: 6.00 Build 0)  -->
<!DOCTYPE svg PUBLIC "-//W3C//DTD SVG 1.1//EN" "http://www.w3.org/Graphics/SVG/1.1/DTD/svg11.dtd">
<svg version="1.1" id="Layer_1" xmlns="http://www.w3.org/2000/svg" xmlns:xlink="http://www.w3.org/1999/xlink" x="0px" y="0px"
	 viewBox="0 0 600 321.2" enable-background="new 0 0 600 321.2" xml:space="preserve">
<path d="M282.2,204.4c-0.6-0.8-2-0.8-2.7,0L229.6,271c-0.4,0.5-0.4,1.2-0.2,1.7c0.3,0.6,0.9,0.9,1.5,0.9h99.9c0.6,0,1.2-0.4,1.5-0.9
	c0.3-0.6,0.2-1.2-0.2-1.7L282.2,204.4z"/>
<g>
	<path d="M142.8,193c0,0-0.7-11.4-18.6-15.6l1.1-6.2c0,0-11.7-0.1-11.9-4.6c-0.1-3.8,6.9-4.6,13.6-3.7l1.4-4.2l5.3,1.2
		c0,0,2.2-18.9-9.5-20.6c-10.5-1.5-15.8,7.6-17.3,13.2c-0.9,3.4-4.2,16-6.2,24.3c0,0-18,8.5-15.5,24.7L142.8,193z"/>
	<polygon points="133.6,141.6 133.4,140.4 140.7,136.7 138.9,133.1 148.9,130.3 150.4,131.4 144.4,135.5 145.1,139.9 	"/>
	<polygon points="129.2,138.4 126.5,137.6 130.8,131.8 127.9,129.6 134.4,120.9 135.9,122 133,128.9 137.2,130.8 	"/>
	<polygon points="122.5,136.9 119.9,137.3 120.2,130.8 116.4,131.4 116.2,121.1 117.4,120.9 119.7,127 124.8,126.2 	"/>
	<path d="M139.2,193.6c0,0,0.2-30.9-3.7-48.4c0,0,8.9,0.9,11.7,10.9c3.1,11.2,3,11,7,35.2L139.2,193.6z"/>
</g>
<g>
	<path fill="#F7931E" d="M437.6,103.6c0,3.5-1.9,6.3-4.2,6.3c-2.3,0-4.2-2.8-4.2-6.3s1.9-6.3,4.2-6.3
		C435.7,97.3,437.6,100.1,437.6,103.6"/>
	<path fill="#F7931E" d="M483.8,103.6c0-5.9,3.8-10.5,8.4-10.5v-6.7c0-1.3-1.3-2.1-2.1-1.7l-26.9,7.6h-0.8l-26.9-7.6
		c-0.8-0.4-2.1,0.4-2.1,1.7v6.7c4.6,0,8.4,4.6,8.4,10.5s-3.8,10.5-8.4,10.5v7.1c0,0.8,0.4,1.3,1.3,1.7l27.7,8h0.8l27.7-8
		c0.8,0,1.3-0.8,1.3-1.7v-7.1C487.6,114.5,483.8,109.5,483.8,103.6z"/>
	<path fill="#F7931E" d="M496.4,103.6c0,3.5-1.9,6.3-4.2,6.3s-4.2-2.8-4.2-6.3s1.9-6.3,4.2-6.3S496.4,100.1,496.4,103.6"/>
	<path fill="#F7931E" d="M481.3,83c-3.8-6.7-10.5-10.9-18.5-10.9s-14.7,4.2-18,10.9l18,5L481.3,83z"/>
	<path fill="#F7931E" d="M475.4,59.5c0,7-5.6,12.6-12.6,12.6s-12.6-5.6-12.6-12.6s5.6-12.6,12.6-12.6S475.4,52.6,475.4,59.5"/>
</g>
<text transform="matrix(1 0 0 1 51.1421 280.6701)"><tspan x="0" y="0" font-family="'MyriadPro-Regular'" font-size="18">Pain of </tspan><tspan x="-10.3" y="21.6" font-family="'MyriadPro-Regular'" font-size="18">ignorance</tspan></text>
<g>
	<text transform="matrix(1 0 0 1 451.7074 181.8875)"><tspan x="0" y="0" font-family="'MyriadPro-Regular'" font-size="18">Pain of </tspan><tspan x="-3.4" y="21.6" font-family="'MyriadPro-Regular'" font-size="18">learning</tspan></text>
</g>
<polygon points="51.8,255.9 37.1,225.7 547.2,121.6 550.9,129.3 "/>
<path fill="#F7931E" d="M545,113.7c0,1.8-1.5,3.3-3.3,3.3h-32.4c-1.8,0-3.3-1.5-3.3-3.3v-0.4c0-1.8,1.5-3.3,3.3-3.3h32.4
	c1.8,0,3.3,1.5,3.3,3.3V113.7z"/>
<path fill="#F7931E" d="M545,102.7c0,1.8-1.5,3.3-3.3,3.3h-32.4c-1.8,0-3.3-1.5-3.3-3.3v-0.4c0-1.8,1.5-3.3,3.3-3.3h32.4
	c1.8,0,3.3,1.5,3.3,3.3V102.7z"/>
<path fill="#F7931E" d="M545,90.7c0,1.8-1.5,3.3-3.3,3.3h-32.4c-1.8,0-3.3-1.5-3.3-3.3v-0.4c0-1.8,1.5-3.3,3.3-3.3h32.4
	c1.8,0,3.3,1.5,3.3,3.3V90.7z"/>
<path d="M78,207.7c0,1.8-1.5,3.3-3.3,3.3H42.3c-1.8,0-3.3-1.5-3.3-3.3v-0.4c0-1.8,1.5-3.3,3.3-3.3h32.4c1.8,0,3.3,1.5,3.3,3.3V207.7
	z"/>
<path d="M78,196.7c0,1.8-1.5,3.3-3.3,3.3H42.3c-1.8,0-3.3-1.5-3.3-3.3v-0.4c0-1.8,1.5-3.3,3.3-3.3h32.4c1.8,0,3.3,1.5,3.3,3.3V196.7
	z"/>
<path d="M78,184.7c0,1.8-1.5,3.3-3.3,3.3H42.3c-1.8,0-3.3-1.5-3.3-3.3v-0.4c0-1.8,1.5-3.3,3.3-3.3h32.4c1.8,0,3.3,1.5,3.3,3.3V184.7
	z"/>
<path d="M78,172.7c0,1.8-1.5,3.3-3.3,3.3H42.3c-1.8,0-3.3-1.5-3.3-3.3v-0.4c0-1.8,1.5-3.3,3.3-3.3h32.4c1.8,0,3.3,1.5,3.3,3.3V172.7
	z"/>
<path d="M78,161.7c0,1.8-1.5,3.3-3.3,3.3H42.3c-1.8,0-3.3-1.5-3.3-3.3v-0.4c0-1.8,1.5-3.3,3.3-3.3h32.4c1.8,0,3.3,1.5,3.3,3.3V161.7
	z"/>
<path d="M78,149.7c0,1.8-1.5,3.3-3.3,3.3H42.3c-1.8,0-3.3-1.5-3.3-3.3v-0.4c0-1.8,1.5-3.3,3.3-3.3h32.4c1.8,0,3.3,1.5,3.3,3.3V149.7
	z"/>
<path d="M78,137.7c0,1.8-1.5,3.3-3.3,3.3H42.3c-1.8,0-3.3-1.5-3.3-3.3v-0.4c0-1.8,1.5-3.3,3.3-3.3h32.4c1.8,0,3.3,1.5,3.3,3.3V137.7
	z"/>
<path d="M78,126.7c0,1.8-1.5,3.3-3.3,3.3H42.3c-1.8,0-3.3-1.5-3.3-3.3v-0.4c0-1.8,1.5-3.3,3.3-3.3h32.4c1.8,0,3.3,1.5,3.3,3.3V126.7
	z"/>
<path d="M78,114.7c0,1.8-1.5,3.3-3.3,3.3H42.3c-1.8,0-3.3-1.5-3.3-3.3v-0.4c0-1.8,1.5-3.3,3.3-3.3h32.4c1.8,0,3.3,1.5,3.3,3.3V114.7
	z"/>
<text transform="matrix(1 0 0 1 163.658 46.9166)" font-family="'MyriadPro-Bold'" font-size="20">USER CHOOSES LEARNING</text>
<text transform="matrix(1 0 0 1 48.8804 103.5782)" font-family="'MyriadPro-Regular'" font-size="11">pain</text>
<text transform="matrix(1 0 0 1 515.3804 80.0743)" font-family="'MyriadPro-Regular'" font-size="11">pain</text>
</svg>
