<?xml version="1.0" encoding="utf-8"?>
<!-- Generator: Adobe Illustrator 17.1.0, SVG Export Plug-In . SVG Version: 6.00 Build 0)  -->
<!DOCTYPE svg PUBLIC "-//W3C//DTD SVG 1.1//EN" "http://www.w3.org/Graphics/SVG/1.1/DTD/svg11.dtd">
<svg version="1.1" id="Layer_1" xmlns="http://www.w3.org/2000/svg" xmlns:xlink="http://www.w3.org/1999/xlink" x="0px" y="0px"
	 viewBox="0 0 600 321.2" enable-background="new 0 0 600 321.2" xml:space="preserve">
<path d="M282.2,201.4c-0.6-0.8-2-0.8-2.7,0L229.6,268c-0.4,0.5-0.4,1.2-0.2,1.7c0.3,0.6,0.9,0.9,1.5,0.9h99.9c0.6,0,1.2-0.4,1.5-0.9
	c0.3-0.6,0.2-1.2-0.2-1.7L282.2,201.4z"/>
<g>
	<path fill="#F7931E" d="M157.8,134.8c0,0,2.5-11.2-13.7-20l2.7-5.6c0,0-11.3-3.3-10.2-7.6c1-3.7,7.9-2.5,14.1,0.2l2.5-3.7l4.7,2.6
		c0,0,7.3-17.6-3.5-22.4c-9.7-4.3-17.2,3-20.2,8c-1.8,3.1-8.4,14.3-12.6,21.7c0,0-19.6,3.3-21.7,19.6L157.8,134.8z"/>
	<polygon fill="#F7931E" points="163,82.8 163.1,81.5 171.1,80 170.3,76 180.7,76 181.8,77.5 175,79.8 174.5,84.2 	"/>
	<polygon fill="#F7931E" points="159.6,78.5 157.2,76.9 162.9,72.5 160.7,69.7 169.3,63.1 170.5,64.5 165.8,70.3 169.3,73.3 	"/>
	<polygon fill="#F7931E" points="153.5,75.2 150.9,74.9 153,68.7 149.2,68.2 151.7,58.3 153,58.4 153.5,64.9 158.6,65.6 	"/>
	<path fill="#F7931E" d="M154.2,134.3c0,0,8.5-29.7,9.6-47.6c0,0,8.3,3.3,8.3,13.7c-0.1,11.6-0.1,11.4-2.8,35.8L154.2,134.3z"/>
</g>
<g>
	<path d="M425,169.3c0,3.5-1.9,6.3-4.2,6.3c-2.3,0-4.2-2.8-4.2-6.3s1.9-6.3,4.2-6.3C423.2,163,425,165.9,425,169.3"/>
	<path d="M471.2,169.3c0-5.9,3.8-10.5,8.4-10.5v-6.7c0-1.3-1.3-2.1-2.1-1.7l-26.9,7.6h-0.8l-26.9-7.6c-0.8-0.4-2.1,0.4-2.1,1.7v6.7
		c4.6,0,8.4,4.6,8.4,10.5c0,5.9-3.8,10.5-8.4,10.5v7.1c0,0.8,0.4,1.3,1.3,1.7l27.7,8h0.8l27.7-8c0.8,0,1.3-0.8,1.3-1.7v-7.1
		C475,180.3,471.2,175.2,471.2,169.3z"/>
	<path d="M483.8,169.3c0,3.5-1.9,6.3-4.2,6.3c-2.3,0-4.2-2.8-4.2-6.3s1.9-6.3,4.2-6.3C481.9,163,483.8,165.9,483.8,169.3"/>
	<path d="M468.7,148.8c-3.8-6.7-10.5-10.9-18.5-10.9s-14.7,4.2-18,10.9l18,5L468.7,148.8z"/>
	<path d="M462.8,125.3c0,7-5.6,12.6-12.6,12.6s-12.6-5.6-12.6-12.6c0-7,5.6-12.6,12.6-12.6S462.8,118.3,462.8,125.3"/>
</g>
<g>
	<text transform="matrix(1 0 0 1 51.1422 169.5118)"><tspan x="0" y="0" font-family="'MyriadPro-Regular'" font-size="18">Pain of </tspan><tspan x="-10.3" y="21.6" font-family="'MyriadPro-Regular'" font-size="18">ignorance</tspan></text>
</g>
<text transform="matrix(1 0 0 1 468.7776 276.6699)"><tspan x="0" y="0" font-family="'MyriadPro-Regular'" font-size="18">Pain of </tspan><tspan x="-3.4" y="21.6" font-family="'MyriadPro-Regular'" font-size="18">learning</tspan></text>
<polygon points="546,228.4 546,262 42,131.6 42,123 "/>
<path d="M540,207.7c0,1.8-1.5,3.3-3.3,3.3h-32.4c-1.8,0-3.3-1.5-3.3-3.3v-0.4c0-1.8,1.5-3.3,3.3-3.3h32.4c1.8,0,3.3,1.5,3.3,3.3
	V207.7z"/>
<path d="M540,196.7c0,1.8-1.5,3.3-3.3,3.3h-32.4c-1.8,0-3.3-1.5-3.3-3.3v-0.4c0-1.8,1.5-3.3,3.3-3.3h32.4c1.8,0,3.3,1.5,3.3,3.3
	V196.7z"/>
<path d="M540,184.7c0,1.8-1.5,3.3-3.3,3.3h-32.4c-1.8,0-3.3-1.5-3.3-3.3v-0.4c0-1.8,1.5-3.3,3.3-3.3h32.4c1.8,0,3.3,1.5,3.3,3.3
	V184.7z"/>
<path d="M540,172.7c0,1.8-1.5,3.3-3.3,3.3h-32.4c-1.8,0-3.3-1.5-3.3-3.3v-0.4c0-1.8,1.5-3.3,3.3-3.3h32.4c1.8,0,3.3,1.5,3.3,3.3
	V172.7z"/>
<path d="M540,161.7c0,1.8-1.5,3.3-3.3,3.3h-32.4c-1.8,0-3.3-1.5-3.3-3.3v-0.4c0-1.8,1.5-3.3,3.3-3.3h32.4c1.8,0,3.3,1.5,3.3,3.3
	V161.7z"/>
<path d="M540,149.7c0,1.8-1.5,3.3-3.3,3.3h-32.4c-1.8,0-3.3-1.5-3.3-3.3v-0.4c0-1.8,1.5-3.3,3.3-3.3h32.4c1.8,0,3.3,1.5,3.3,3.3
	V149.7z"/>
<path d="M540,137.7c0,1.8-1.5,3.3-3.3,3.3h-32.4c-1.8,0-3.3-1.5-3.3-3.3v-0.4c0-1.8,1.5-3.3,3.3-3.3h32.4c1.8,0,3.3,1.5,3.3,3.3
	V137.7z"/>
<path d="M540,126.7c0,1.8-1.5,3.3-3.3,3.3h-32.4c-1.8,0-3.3-1.5-3.3-3.3v-0.4c0-1.8,1.5-3.3,3.3-3.3h32.4c1.8,0,3.3,1.5,3.3,3.3
	V126.7z"/>
<path d="M540,114.7c0,1.8-1.5,3.3-3.3,3.3h-32.4c-1.8,0-3.3-1.5-3.3-3.3v-0.4c0-1.8,1.5-3.3,3.3-3.3h32.4c1.8,0,3.3,1.5,3.3,3.3
	V114.7z"/>
<path fill="#F7931E" d="M98,115.7c0,1.8-1.5,3.3-3.3,3.3H62.3c-1.8,0-3.3-1.5-3.3-3.3v-0.4c0-1.8,1.5-3.3,3.3-3.3h32.4
	c1.8,0,3.3,1.5,3.3,3.3V115.7z"/>
<path fill="#F7931E" d="M98,104.7c0,1.8-1.5,3.3-3.3,3.3H62.3c-1.8,0-3.3-1.5-3.3-3.3v-0.4c0-1.8,1.5-3.3,3.3-3.3h32.4
	c1.8,0,3.3,1.5,3.3,3.3V104.7z"/>
<path fill="#F7931E" d="M98,92.7c0,1.8-1.5,3.3-3.3,3.3H62.3c-1.8,0-3.3-1.5-3.3-3.3v-0.4c0-1.8,1.5-3.3,3.3-3.3h32.4
	c1.8,0,3.3,1.5,3.3,3.3V92.7z"/>
<text transform="matrix(1 0 0 1 186.7319 46)" font-family="'MyriadPro-Bold'" font-size="20">USER CHOOSES IGNORANCE</text>
<text transform="matrix(1 0 0 1 67.8804 80.1305)" font-family="'MyriadPro-Regular'" font-size="11">pain</text>
<text transform="matrix(1 0 0 1 510.3804 101.0001)" font-family="'MyriadPro-Regular'" font-size="11">pain</text>
</svg>
