<?xml version="1.0" encoding="utf-8"?>
<!-- Generator: Adobe Illustrator 17.1.0, SVG Export Plug-In . SVG Version: 6.00 Build 0)  -->
<!DOCTYPE svg PUBLIC "-//W3C//DTD SVG 1.1//EN" "http://www.w3.org/Graphics/SVG/1.1/DTD/svg11.dtd">
<svg version="1.1" id="Layer_1" xmlns="http://www.w3.org/2000/svg" xmlns:xlink="http://www.w3.org/1999/xlink" x="0px" y="0px"
	 viewBox="0 0 497.1 242.8" enable-background="new 0 0 497.1 242.8" xml:space="preserve">
<path d="M224.9,91.5c0-0.6,0.4-1,1-1h1.3c0.6,0,1,0.4,1,1s-0.4,1-1,1h-1.3C225.4,92.5,224.9,92,224.9,91.5z M246.4,114.7v3.2
	c0,0.6-0.4,1-1,1c-0.6,0-1-0.4-1-1v-3.2c0-0.6,0.4-1,1-1C246,113.7,246.4,114.1,246.4,114.7z M249.6,114.7v3.2c0,0.6-0.4,1-1,1
	c-0.6,0-1-0.4-1-1v-3.2c0-0.6,0.4-1,1-1C249.1,113.7,249.6,114.1,249.6,114.7z M266.4,109.1c0.9,0,1.7,0.8,1.7,1.7
	c0,0.9-0.8,1.7-1.7,1.7c-0.9,0-1.7-0.8-1.7-1.7C264.7,109.9,265.4,109.1,266.4,109.1z M269.1,105.4c0.6,0,1-0.4,1-1c0-0.6-0.4-1-1-1
	h-5.4c-0.6,0-1,0.4-1,1v6.4c0,2,1.7,3.7,3.7,3.7c0.6,0,1.2-0.2,1.7-0.4v2.8h-3.9c-0.6,0-1,0.4-1,1s0.4,1,1,1h4.9c0.6,0,1-0.4,1-1
	v-7.1c0-2-1.7-3.7-3.7-3.7c-0.6,0-1.2,0.2-1.7,0.4v-2.1L269.1,105.4z M249.6,110.5v-2.2h4.5v2.2H249.6z M255.1,106.4h-6.5
	c-0.6,0-1,0.4-1,1v1.4l-4.1-5c-0.4-0.4-1-0.5-1.4-0.1c-0.4,0.4-0.5,1-0.1,1.4l5.9,7.1c0,0,0,0,0,0c0.1,0.1,0.2,0.1,0.2,0.2
	c0,0,0.1,0,0.1,0.1c0.1,0.1,0.3,0.1,0.4,0.1h5.5v5.3c0,0.6,0.4,1,1,1s1-0.4,1-1v-10.5C256.1,106.8,255.6,106.4,255.1,106.4
	L255.1,106.4z M231.1,110.1l-6.2-2.2l6.2-2.2V110.1z M232.7,103.6c-0.3-0.2-0.6-0.2-0.9-0.1l-10.2,3.6c-0.4,0.1-0.7,0.5-0.7,0.9
	c0,0.4,0.3,0.8,0.7,0.9l9.5,3.4v4.6h-6c-0.6,0-1,0.4-1,1c0,0.6,0.4,1,1,1h7c0.6,0,1-0.4,1-1v-6.3v0v-7.2
	C233.1,104.1,232.9,103.7,232.7,103.6L232.7,103.6z M260.5,68.2c0-0.6,0.4-1,1-1h3.8v-4c0-0.6,0.4-1,1-1s1,0.4,1,1V73
	c0,0.6-0.4,1-1,1s-1-0.4-1-1v-3.8h-3.8C261,69.2,260.5,68.8,260.5,68.2z M256.7,96.3c0.2,0.3,0.2,0.7,0,1c-0.2,0.3-0.5,0.5-0.9,0.5
	l-10,0c-0.6,0-1-0.4-1-1c0-0.6,0.4-1,1-1h8.3l-4-7c-0.3-0.5-0.1-1.1,0.4-1.4c0.5-0.3,1.1-0.1,1.4,0.4L256.7,96.3z M242.7,92.7
	l1.4-2.4l2.6,0l1.4,2.5L242.7,92.7z M249.9,94.7c0.6,0,1-0.4,1-1c0-0.2-0.1-0.5-0.2-0.7l-2.5-4.3c-0.2-0.3-0.5-0.5-0.9-0.5h0l-3.8,0
	c-0.4,0-0.7,0.2-0.9,0.5l-2.6,4.4c-0.2,0.3-0.2,0.7,0,1c0.2,0.3,0.5,0.5,0.9,0.5L249.9,94.7C249.9,94.7,249.9,94.7,249.9,94.7
	L249.9,94.7z M231.2,91.5c0,2.4-1.9,4.3-4.3,4.3c-2.4,0-4.3-1.9-4.3-4.3c0-2.4,1.9-4.3,4.3-4.3S231.2,89.1,231.2,91.5z M235.8,85.1
	h-9.2c0,0-0.1,0-0.1,0c-3.3,0.2-6,2.9-6,6.3c0,3.5,2.8,6.3,6.3,6.3c3.5,0,6.3-2.8,6.3-6.3c0-1.7-0.7-3.2-1.7-4.3h3.3v1.4
	c0,0.6,0.4,1,1,1s1-0.4,1-1v-2.4C236.8,85.6,236.3,85.1,235.8,85.1L235.8,85.1z M261.7,74.9h9.1c0.6,0,1,0.4,1,1s-0.4,1-1,1h-9.1
	c-0.6,0-1-0.4-1-1S261.2,74.9,261.7,74.9z M266.4,95.8c-2,0-3.8-1.4-4.2-3.3h8.4C270.2,94.4,268.4,95.8,266.4,95.8z M271.7,90.5
	h-4.3l0-1.5h2.9c0.6,0,1-0.4,1-1c0-0.6-0.4-1-1-1h-3.4l-3.8-3.8c-0.4-0.4-1-0.4-1.4,0c-0.4,0.4-0.4,1,0,1.4l3.8,3.8v2.1h-4.3
	c-0.6,0-1,0.4-1,1c0,3.5,2.8,6.3,6.3,6.3c3.5,0,6.3-2.8,6.3-6.3C272.7,90.9,272.3,90.5,271.7,90.5z M248,64.1c1.9,0,3.4,1.5,3.4,3.4
	c0,1.5-1,2.8-2.4,3.2v-3.2c0-0.6-0.4-1-1-1c-0.6,0-1,0.4-1,1v3.2c-1.4-0.4-2.4-1.7-2.4-3.2C244.6,65.6,246.1,64.1,248,64.1z
	 M247,72.8v2.1h-3c-0.6,0-1,0.4-1,1s0.4,1,1,1h8c0.6,0,1-0.4,1-1s-0.4-1-1-1h-3v-2.1c2.5-0.5,4.4-2.7,4.4-5.3c0-3-2.4-5.4-5.4-5.4
	c-3,0-5.4,2.4-5.4,5.4C242.6,70.1,244.5,72.3,247,72.8z M226.4,74.9h7.8v-7.8c0-0.6,0.4-1,1-1c0.6,0,1,0.4,1,1v8.8c0,0.6-0.4,1-1,1
	h-8.8c-0.6,0-1-0.4-1-1S225.9,74.9,226.4,74.9z M223.4,64.1h5.4l-5.4,5.4V64.1z M222,72.8c0.1,0.1,0.3,0.1,0.4,0.1
	c0.3,0,0.5-0.1,0.7-0.3l8.8-8.8c0.3-0.3,0.4-0.7,0.2-1.1c-0.2-0.4-0.5-0.6-0.9-0.6h-8.8c-0.6,0-1,0.4-1,1v8.8
	C221.4,72.3,221.7,72.7,222,72.8L222,72.8z M212,127.9V46.5h56.4v11.6c0,0.6,0.4,1,1,1H283v68.8H212z M270.4,47.1l11.6,10h-11.6
	V47.1z M286.8,56.2c0-0.1-13.3-11.2-15.8-13.3c-0.3-0.2-1.3-0.4-1.3-0.4H210c-1.1,0-2,0.9-2,2v85.4c0,1.1,0.9,2,2,2h75
	c1.1,0,2-0.9,2-2V57.1C287,57,287,56.6,286.8,56.2L286.8,56.2z"/>
<path fill="none" stroke="#000000" stroke-width="4" stroke-linejoin="round" stroke-miterlimit="10" d="M121.4,73.2
	c0,7-2.8,13.6-7.4,18.2c-4.8,4.8-11.2,7.8-18.6,7.8c-7.4,0-13.8-3-18.6-7.8c-4.6-4.6-7.4-11.2-7.4-18.2s2.8-13.6,7.4-18.2
	c4.8-4.8,11.4-7.8,18.6-7.8c7.2,0,13.8,3,18.6,7.8C118.6,59.6,121.4,66.2,121.4,73.2z"/>
<path fill="none" stroke="#F7931E" stroke-width="4" stroke-linejoin="round" stroke-miterlimit="10" d="M95.4,85.4
	c0-4.2,2.2-8,5.6-10.2c2.6-1.8,4.4-4.8,4.4-8.2c0-6.2-5.6-11-12-9.8c-3.8,0.8-7,3.8-7.8,7.8"/>
<line fill="none" stroke="#F7931E" stroke-width="4" stroke-linejoin="round" stroke-miterlimit="10" x1="95.4" y1="89.2" x2="95.4" y2="93.2"/>
<text transform="matrix(1 0 0 1 24.2027 159.42)"><tspan x="0" y="0" font-family="'MyriadPro-Regular'" font-size="18">This person doesn’t </tspan><tspan x="0" y="21.6" font-family="'MyriadPro-Regular'" font-size="18">speak the language. </tspan><tspan x="0" y="43.2" font-family="'MyriadPro-Regular'" font-size="18">The content seems</tspan><tspan x="0" y="64.8" font-family="'MyriadPro-Regular'" font-size="18">like gibberish.</tspan></text>
<text transform="matrix(1 0 0 1 335.5071 154.449)"><tspan x="0" y="0" font-family="'MyriadPro-Regular'" font-size="18">This person does</tspan><tspan x="0" y="21.6" font-family="'MyriadPro-Regular'" font-size="18">speak the language. </tspan><tspan x="0" y="43.2" font-family="'MyriadPro-Regular'" font-size="18">The content seems</tspan><tspan x="0" y="64.8" font-family="'MyriadPro-Regular'" font-size="18">clear.</tspan></text>
<polygon fill="#E5E3E3" points="132.2,67.8 208.2,47.2 208.2,85.4 132.4,73.2 "/>
<polygon fill="#E5E3E3" points="362.3,69.8 287.2,49.2 287.2,87.4 362.1,75.2 "/>
<path fill="none" stroke="#000000" stroke-width="4" stroke-miterlimit="10" d="M117.4,131.2v-20h16v-18h10l-11-20
	c0-20-16.4-36-36.4-36s-36.6,16.2-36.6,36c0,0-1.2,12.6,7.6,25.2c3.6,5.2,6.6,11,8.2,17.2c1,3.8,1.6,10.4,1.6,15.6"/>
<path fill="none" stroke="#000000" stroke-width="4.0001" stroke-miterlimit="10" d="M378.2,132.4v-20h-16v-18h-10l11-20
	c0-20,16.4-36,36.4-36s36.6,16.2,36.6,36c0,0,1.2,12.6-7.6,25.2c-3.6,5.2-6.6,11-8.2,17.2c-1,3.8-1.6,10.4-1.6,15.6"/>
<path fill="none" stroke="#000000" stroke-width="4.0001" stroke-linejoin="round" stroke-miterlimit="10" d="M374.2,74.4
	c0,7,2.8,13.6,7.4,18.2c4.8,4.8,11.2,7.8,18.6,7.8c7.4,0,13.8-3,18.6-7.8c4.6-4.6,7.4-11.2,7.4-18.2s-2.8-13.6-7.4-18.2
	c-4.8-4.8-11.4-7.8-18.6-7.8s-13.8,3-18.6,7.8C377,60.8,374.2,67.4,374.2,74.4z"/>
<g>
	<path fill="#F7931E" d="M399.4,91.8h1.6c0,0.5-0.3,0.8-0.8,0.8S399.4,92.3,399.4,91.8z M396.6,88.6h7.3v0.8c0,0.5-0.4,0.8-0.8,0.8
		h-5.6c-0.4,0-0.8-0.3-0.8-0.8V88.6z M396.6,85.3h7.3V87h-7.3V85.3z M413.1,70.8c-0.4,0-0.8,0.4-0.8,0.8s0.4,0.8,0.8,0.8h3.2
		c0.4,0,0.8-0.4,0.8-0.8s-0.4-0.8-0.8-0.8H413.1z M384.1,70.8c-0.4,0-0.8,0.4-0.8,0.8s0.4,0.8,0.8,0.8h3.2c0.4,0,0.8-0.4,0.8-0.8
		s-0.4-0.8-0.8-0.8H384.1z M400.2,62.7c4.5,0,8.9,3.5,8.9,8.4c0,3.3-1.2,5.2-2.5,7c-1.2,1.6-2.5,3.3-2.7,5.6h-7.4
		c-0.3-2.3-1.6-3.9-2.7-5.6c-1.3-1.8-2.5-3.7-2.5-7C391.4,66.2,395.7,62.7,400.2,62.7z M400.2,61.1c-5.3,0-10.5,4.2-10.5,10
		c0,3.7,1.4,6.1,2.8,7.9c1.3,1.9,2.5,3.3,2.5,5.4v4.8c0,1.4,1.1,2.4,2.4,2.4h0.4c0,1.3,1.1,2.4,2.4,2.4c1.3,0,2.4-1.1,2.4-2.4h0.4
		c1.3,0,2.4-1.1,2.4-2.4v-4.8c0-2.2,1.1-3.5,2.5-5.4c1.3-1.9,2.8-4.2,2.8-7.9C410.7,65.3,405.6,61.1,400.2,61.1z M411.6,59.4
		c-0.2,0-0.4,0.1-0.6,0.2l-2.3,2.3c-0.3,0.3-0.3,0.8,0,1.1c0.3,0.3,0.8,0.3,1.1,0l2.3-2.3c0.3-0.3,0.3-0.8,0-1.1
		C412,59.5,411.8,59.4,411.6,59.4L411.6,59.4z M388.8,59.4c-0.2,0-0.4,0.1-0.6,0.2c-0.3,0.3-0.3,0.8,0,1.1l2.3,2.3
		c0.3,0.3,0.8,0.3,1.1,0s0.3-0.8,0-1.1l-2.3-2.3C389.2,59.5,389,59.4,388.8,59.4L388.8,59.4z M400.2,54.7c-0.4,0-0.8,0.4-0.8,0.8
		v3.2c0,0.4,0.4,0.8,0.8,0.8c0.4,0,0.8-0.4,0.8-0.8v-3.2C401,55,400.7,54.7,400.2,54.7z"/>
</g>
</svg>
