<?xml version="1.0" encoding="utf-8"?>
<!-- Generator: Adobe Illustrator 17.1.0, SVG Export Plug-In . SVG Version: 6.00 Build 0)  -->
<!DOCTYPE svg PUBLIC "-//W3C//DTD SVG 1.1//EN" "http://www.w3.org/Graphics/SVG/1.1/DTD/svg11.dtd">
<svg version="1.1" id="Layer_1" xmlns="http://www.w3.org/2000/svg" xmlns:xlink="http://www.w3.org/1999/xlink" x="0px" y="0px"
	 viewBox="-625 -357 775 445" enable-background="new -625 -357 775 445" xml:space="preserve">
<g>
	<path d="M-120.3-68.3c0,0-0.4-56.4-0.4-56.8c0-11.2-7.3-19.3-17.8-19.3c-8.9,0-15.8,5.8-17.8,14.7v-8.1c0-14.7-7.7-24.3-19.7-24.3
		c-9.7,0-15.4,6.2-18.1,13.9v-11.6c0-10.4-9.3-19.3-19.7-19.3c-10.8,0-19.7,8.9-19.7,19.3v-49.4c8.1-5.8,13.1-15.4,13.1-26.3
		c0-18.1-14.7-32.4-32.4-32.4c-18.1,0-32.4,14.7-32.4,32.4c0,10.8,5.4,20.5,13.9,26.6v119.3l-3.1,2.7c-4.2-10-12.4-29.3-15.1-37.1
		c-4.6-12.7-11.2-21.6-18.9-25.5c-3.1-1.5-6.2-2.3-9.3-2.3c-8.1,0-13.9,5.4-13.9,13.5c0,0.4,0,0.4,7.3,40.2l0,0l0,0l13.1,49.4v0.8
		l0.4,0.4l34,61l0.8,45.6v5h5h126.6h5v-5V-5.4l18.5-61.4l0.4-0.8V-68.3z M-143.8-6.1v65.2h-127l-0.8-47.1l-35.1-61.8l-13.1-49.4
		l-7.3-39.4c0-5.4,3.9-8.5,9.3-8.5c2.3,0,4.6,0.8,7.3,1.9c7.3,3.5,12.7,12.4,16.6,22.8c3.9,11.2,18.1,43.6,18.1,43.6l10-9.3v-143.6
		c0-2.3,0.4-4.2,1.2-6.2c2.3-5,7.3-8.5,13.1-8.5c5.8,0,10.8,3.5,13.1,8.5c0.4,0.8,0.8,2.7,0.8,6.2v118.9h10v-47.1
		c0-8.1,6.9-14.3,15.1-14.3c8.1,0,14.7,6.6,14.7,14.3v53.7h8.1v-31.7c0-8.1,3.5-19.3,14.7-19.3c12,0,15.1,11.2,15.1,19.3V-98h9.7
		v-27c0-8.1,5-14.3,13.1-14.3c7.7,0,12.7,6.6,12.7,14.3l0.4,56.8L-143.8-6.1z"/>
	<path d="M-224.9-194.9l-6.2-9.3c0.8-0.4,1.5-1.2,2.3-1.9l6.9,8.5C-223-196.5-224.1-195.7-224.9-194.9z M-296.3-214.2
		c-0.4-1.2-1.2-2.3-1.5-3.5l10.4-3.9c0.4,0.8,0.8,1.9,1.2,2.7L-296.3-214.2z M-203.7-231.6l-11.2-0.8c0-1.2,0-1.9,0-3.1h11.2l0,0
		C-203.7-234.3-203.7-233.2-203.7-231.6z M-286.7-252.1l-10-4.6c0.4-1.2,1.2-2.3,1.9-3.5l9.7,5.4
		C-285.5-254-286.3-252.8-286.7-252.1z M-226.4-263.3c-0.8-0.8-1.5-1.5-2.3-1.9l6.6-8.9c1.2,0.8,1.9,1.5,3.1,2.7L-226.4-263.3z
		 M-260.8-272.5l-2.3-10.8c0.8-0.4,2.3-0.4,3.5-0.8l1.5,10.8C-258.9-272.9-260-272.9-260.8-272.5z"/>
</g>
</svg>
