<?xml version="1.0" encoding="utf-8"?>
<!-- Generator: Adobe Illustrator 17.1.0, SVG Export Plug-In . SVG Version: 6.00 Build 0)  -->
<!DOCTYPE svg PUBLIC "-//W3C//DTD SVG 1.1//EN" "http://www.w3.org/Graphics/SVG/1.1/DTD/svg11.dtd">
<svg version="1.1" id="Layer_1" xmlns="http://www.w3.org/2000/svg" xmlns:xlink="http://www.w3.org/1999/xlink" x="0px" y="0px"
	 viewBox="0 0 567.1 315" style="enable-background:new 0 0 567.1 315;" xml:space="preserve">
<path d="M278.2,169.7c-0.8,0-1.6,0-1.8-0.5c-0.5-0.5-0.5-1.3-0.5-2.1c0.3-2.1,1.8-3.1,2.3-3.1h0.3c2.1,0.3,3.1,1.3,3.1,2.9
	C281.1,167.8,279.3,169.4,278.2,169.7z M285.7,166.8c0-3.9-2.6-6.7-6.7-7.3c-0.3,0-0.5,0-0.8,0c-3.4,0-6.2,3.1-6.7,7
	c-0.3,2.3,0.5,4.1,1.6,5.7c0.8,0.8,2.3,1.8,4.7,1.8c0.3,0,0.8,0,1,0C281.9,173.5,285.5,170.4,285.7,166.8z"/>
<path d="M326.8,190.9c-14,0-25.2-12.2-25.2-27c0-4.9,1.3-9.6,3.4-13.5c2.9,8.8,11.2,15.8,20.2,18.4c8.6,2.6,17.4,2.3,26.2,0.8
	C348.8,182.1,338.7,190.9,326.8,190.9z M355,152.3c-4.4-11.9-15.6-20.2-28.5-20.2c-7.3,0-13.8,2.6-18.9,7l-0.3,0.3
	c-7,6-11.4,15.1-11.4,25.2c0,17.9,13.8,32.2,30.6,32.2c12.2,0,22.8-7.5,27.8-18.4c1.6,6.5,5.2,14,12.7,17.4
	c11.2,5.2,12.7,20.5,12.7,20.5C396.8,192.2,384.3,147.9,355,152.3z"/>
<path d="M262.1,157.2c-0.8,1.8-2.3,3.9-4.7,3.9H257c-1,0-1.8-0.5-2.3-1.3c-0.8-0.8-1-2.3-0.8-3.9c0.8-2.3,2.3-3.6,3.9-3.6
	c0.3,0,0.5,0,1,0.3C262.1,153.3,262.4,155.9,262.1,157.2z M257.7,147.9c-3.9,0-7,2.6-8.3,7v0.3c-0.5,2.9,0.3,5.4,1.8,7.5
	c1.3,1.6,3.1,2.6,5.4,2.9c0.3,0,0.5,0,1,0c4.1,0,7.8-2.9,9.1-7V158c0.5-4.9-2.1-8.8-7-9.9C259,147.9,258.3,147.9,257.7,147.9z"/>
<path d="M175,130.2c-8.3-9.6-11.9-22.8-10.4-37.4c1.8-16.9,16.6-26.7,23.1-31.1c9.3-6,17.4-8.6,27.5-8.6c3.4,0,7.3,0.3,11.2,1
	c16.9,2.6,30.1,7.8,38.9,18.2c7.8,9.3,11.4,21.3,10.4,34c-1.3,12.7-12.7,23.4-22.1,30.1c-11.4,7.5-21.8,10.9-34.2,10.9
	c-1.6,0-3.4,0-4.9-0.3C197.3,146,183.8,140.3,175,130.2z M219.1,151.5c13.5,0,24.4-3.4,36.8-11.7c10.1-7.3,22.6-18.9,24.1-33.5
	c1.8-22.8-10.9-50.1-52.9-56.8c-4.4-0.5-8.3-0.8-11.9-0.8c-10.9,0-20,2.9-30.1,9.3c-7,4.7-23.1,15.8-25.2,34.2
	c-1.6,15.8,2.6,30.3,11.4,40.7c9.6,11.2,24.1,17.4,42.3,18.4C215.7,151.5,217.5,151.5,219.1,151.5z"/>
<rect x="189.5" y="78.1" width="60.5" height="11.4"/>
<rect x="189.5" y="94.4" width="15.1" height="28.8"/>
<rect x="211.3" y="94.4" width="38.7" height="28.8"/>
<path d="M367.2,242c2.1-7.3,2.1-14,0-23.6c-0.5-2.3-1.6-4.9-2.9-7c-4.9-4.9-14.3-10.6-25.4-10.6c-4.9,0-10.1,1-15.6,3.9
	c-20.2,10.6-27.5,26.2-31.4,33.7c-1.3,2.3-2.3,4.4-3.1,6.7c2.1,5.2,4.4,10.4,6.5,15.6c0.8,1.8,1.3,3.4,2.1,5.2
	c4.2,1,8.8,2.3,13.2,3.6c1,0.3,2.3,0.5,3.4,1c0.5-0.3,0.8-0.3,1-0.3c1.8-0.8,3.6-1.6,5.4-2.3c-2.9-0.8-5.7-1.6-8.8-2.6
	c-5.2-1.6-10.6-3.1-15.3-4.1c5.7-25.7,21.5-35.8,21.5-35.8c7.3,10.9,13.2,24.4,13,37.4c2.9-1.6,6-3.4,8.6-5.2
	c4.4-3.1,10.4-8.6,13-17.9c1.3-4.1,1-7,0.5-10.1c-0.3-0.5,0-1.3,0.3-1.8v-0.3c0.3-0.3,0.5-0.3,1-0.3c0.3,0,0.5,0,0.8,0.3
	c0.3,0.3,0.5,1,0.5,1.8c0,0.8,0.8,5.7-0.5,11.2c-2.6,9.3-8.3,15.1-14,19.2c-4.9,3.6-10.6,6.7-16.6,9.3c-2.1,1-4.1,1.8-6.5,2.9
	c-0.8,0.3-1.6,0.5-2.1,1c0,0-7.5,2.1-6.5,5.4c0.5,1.6,2.6,2.6,5.7,2.9c0.3,0,0.8,0,1,0h1.3c0.3,0,0.5,0,0.8,0h0.5c0.3,0,0.5,0,1-0.3
	h0.5c0.5,0,1-0.3,1.6-0.3c6.2-1.8,17.1-5.7,25.4-11.9C354,263.1,363.9,254.5,367.2,242z"/>
<path d="M369.8,242.8c-3.6,13.2-14,22.3-21.3,27.5c-4.1,2.9-8.8,5.7-14.5,8c2.6,1,5.7,1.3,8.6,1.3c1.6,0,3.4,0,4.9-0.3
	c7-0.5,14-1.8,20.5-4.1c1.6-0.5,2.1-1.6,2.3-3.1c0.8-6.7,1.6-14,1.6-21.5v-0.3c0-4.7-0.3-9.1-0.8-13.5
	C370.9,238.9,370.3,241,369.8,242.8z"/>
<path d="M281.3,267.7v-0.5c-0.3-1-0.5-2.3-1-3.6c-1-3.1-1.8-5.7-3.1-5.7h-0.3c-1.6,0.5-2.1,3.6-1,7c0.3,0.8,0.5,1.8,1,2.3
	c0.3,0.5,0.5,0.8,0.8,1.3l1.3,1.3l0.5,0.3l0.3,0.3h0.5l0.5-0.5v-0.5c0-0.3,0-0.5,0-0.8L281.3,267.7z"/>
<path d="M310.9,282.8c-2.9,2.1-6,4.4-8.8,6.5c-11.2-2.9-31.9-7.5-42.8-9.9c4.9-1.8,11.9-4.7,18.7-7.5c-1-0.8-2.1-1.8-2.9-3.6
	c-11.7,4.9-23.9,9.6-24.1,9.6c-1,0.3-1.6,1.3-1.6,2.3c0,1,0.8,1.8,1.8,2.1c0.3,0,35.8,7.8,50.8,11.7h0.5c0.5,0,0.8-0.3,1.3-0.3
	c4.4-3.1,9.1-6.5,13.2-9.6l0.5-0.3c-0.5,0-1,0-1.6,0C314,283.6,312.2,283.3,310.9,282.8z"/>
<path d="M281.6,238.2c-0.8-1.8-2.1-2.3-3.6-2.3c-2.6,0-5.2,2.3-3.9,5.4c0.3,0.8,0.5,1.3,0.8,2.1c2.6-0.5,5.2-1.3,7.5-2.3
	C282.4,240,281.9,239.2,281.6,238.2z"/>
<path d="M292.8,264.9c-0.5-1-0.8-2.1-1.3-3.1c-0.3-0.3-0.3-0.8-0.5-1c-0.8-1.6-1.3-3.4-2.1-4.9c0-0.3-0.3-0.5-0.3-0.8
	c-0.8-1.6-1.3-3.4-2.1-4.9c-1-2.3-1.8-4.4-2.9-6.7c-2.3,1-4.9,2.1-7.5,2.6c3.4,7.8,6.5,15.3,9.6,23.1c0.5,1.6,1.3,3.1,1.8,4.7
	c0.3,0.5,0.5,1,1,1.6c0.8,0.3,1.8,0.3,2.3,0.3c0.3,0,0.5,0,0.8,0c0.5-0.3,1.8-1.3,3.9-2.6c0-0.5-0.3-1-0.3-1.3
	c-0.5-1.3-1-2.3-1.3-3.6C293.5,266.7,293,265.6,292.8,264.9z"/>
<path d="M293.3,277.6c-0.8,0-1.8-0.3-2.6-0.3h-0.3c1.3,1.3,2.6,2.3,3.4,2.9c0.3,0.3,0.5,0.3,0.8,0.3c0.3,0,0.3-0.3,0.5-0.5
	c0.3-0.8,0.3-2.6,0.5-4.1c-0.3,0.3-0.5,0.5-0.8,1C294.6,277.3,294.1,277.6,293.3,277.6z"/>
</svg>
