<?xml version="1.0" encoding="utf-8"?>
<!-- Generator: Adobe Illustrator 17.1.0, SVG Export Plug-In . SVG Version: 6.00 Build 0)  -->
<!DOCTYPE svg PUBLIC "-//W3C//DTD SVG 1.1//EN" "http://www.w3.org/Graphics/SVG/1.1/DTD/svg11.dtd">
<svg version="1.1" id="Layer_1" xmlns="http://www.w3.org/2000/svg" xmlns:xlink="http://www.w3.org/1999/xlink" x="0px" y="0px"
	 viewBox="0 0 700 465" style="enable-background:new 0 0 700 465;" xml:space="preserve">
<path d="M298.3,89.3c9.3,0,16.8,7.6,16.8,16.8c0,9.3-7.6,16.8-16.8,16.8c-9.3,0-16.8-7.6-16.8-16.8C281.5,96.9,289,89.3,298.3,89.3z
	 M298.3,129.7c13,0,23.5-10.5,23.5-23.5c0-12.9-10.5-23.5-23.5-23.5c-12.9,0-23.5,10.5-23.5,23.5
	C274.8,119.1,285.4,129.7,298.3,129.7z"/>
<path d="M438.7,285l1.7-6.7c5.2-19.5,4.4-25.7,3.9-27.4c-6.8-22.8-27.8-22-28.6-22h-58.2c-18.3,0-26.7,17-27.2,17.9
	c-4.5,10.4,0.6,27.3,1.4,29.8l2.1,8.4H231.3L176,205.9h179.3c6.5,10.5,18,17.6,31.3,17.6c13.2,0,24.8-7.1,31.3-17.6h29l72.5,79.2
	L438.7,285L438.7,285z M431.6,276l-2.3,9l-3.5,14L412,353.9c-1.4,2.2-8.8,12.6-26.1,12.6l-0.1,4.6v-4.6c-2.2,0-22.1-0.4-25.7-14.8
	l-12.8-50.5l-5.3-20.9l-1.5-6.1l-0.1-0.3c-1.3-4.1-4.5-17.2-1.8-23.4c0.1-0.1,6.3-12.6,18.9-12.6h58.8c3.4,0,14.9,1.1,19.3,15.3
	C435.6,254,436,259.3,431.6,276z M269.9,161l-0.1-0.2c-0.8-2.5-2.8-10.6-1.2-14.3c0-0.1,3.8-7.7,11.4-7.7h13.8l-6.3,10.3
	c-0.4,0.7-0.6,1.6-0.4,2.4l8.4,42.3c0.3,1.5,1.6,2.7,3.2,2.7h0c1.6,0,2.9-1.1,3.3-2.6l9.1-42.8c0.2-0.9,0-1.8-0.5-2.6l-6.5-9.5H317
	c2.1,0,8.9,0.7,11.6,9.2c0,0.5,0.2,3.9-2.5,14.1l-8.9,35.4h-38.1L269.9,161z M299,143.1l5.4,7.8l-5.4,25.7l-5-25.1L299,143.1z
	 M386.5,159.2c15.2,0,27.6,12.4,27.6,27.6c0,3.8-0.8,7.4-2.2,10.7c0,0-2.5,5.7-5.6,8.4c-5,5.2-12.1,8.5-19.9,8.5
	c-7.8,0-14.8-3.3-19.9-8.5c0,0-4.3-4.5-5.6-8.4c-1.4-3.3-2.2-6.9-2.2-10.7C358.9,171.6,371.3,159.2,386.5,159.2z M531.9,286.4
	l-80.2-87.6c-0.8-0.9-1.9-1.4-3.1-1.4h-27c1-3.4,1.6-6.9,1.6-10.7c0-20.2-16.5-36.7-36.7-36.7c-20.2,0-36.7,16.4-36.7,36.7
	c0,3.7,0.6,7.3,1.6,10.7H324l8.6-33.7c3.3-12.4,2.8-16.4,2.4-17.5c-4.4-14.6-17.8-14.1-18.4-14.1H280c-11.7,0-17.2,10.9-17.5,11.5
	c-2.9,6.6,0.3,17.4,0.9,19l8.8,34.8H167.9c-1.6,0-3,0.9-3.7,2.3c-0.7,1.4-0.6,3.1,0.3,4.4l61.2,87.6c0.8,1.1,2.1,1.8,3.5,1.8h106.8
	l15.3,60.5c5.3,21,31.5,21.6,34.5,21.6h0.2c24.6,0,33.9-17.1,34.3-17.8l0.3-0.5l16.1-63.8h92.2c1.7,0,3.2-1,3.9-2.5
	C533.3,289.4,533.1,287.7,531.9,286.4z"/>
</svg>
