<?xml version="1.0" encoding="utf-8"?>
<!-- Generator: Adobe Illustrator 17.1.0, SVG Export Plug-In . SVG Version: 6.00 Build 0)  -->
<!DOCTYPE svg PUBLIC "-//W3C//DTD SVG 1.1//EN" "http://www.w3.org/Graphics/SVG/1.1/DTD/svg11.dtd">
<svg version="1.1" id="Layer_1" xmlns="http://www.w3.org/2000/svg" xmlns:xlink="http://www.w3.org/1999/xlink" x="0px" y="0px"
	 viewBox="0 0 700 338.5" style="enable-background:new 0 0 700 338.5;" xml:space="preserve">
<path d="M322.2,90.6h-271v203.3h271V90.6z M316.7,96v192.4H56.5V96H316.7"/>
<path d="M255.9,145.4c-6.9,0-12.5-5.6-12.5-12.5c0-6.9,5.6-12.5,12.5-12.5c6.9,0,12.5,5.6,12.5,12.5
	C268.4,139.8,262.8,145.4,255.9,145.4z M221.5,140.6l-6.6-6.6l2.6-2.6l4.1,4.1l10.1-10.1l2.6,2.6L221.5,140.6z M256.7,116.6h-38.9
	c-8.9,0-16.1,7.2-16.1,16.1v0.3c0,8.9,7.2,16.1,16.1,16.1h38.9c8.9,0,16.1-7.2,16.1-16.1v-0.3C272.8,123.9,265.6,116.6,256.7,116.6z
	"/>
<rect x="90.2" y="123.2" width="58.7" height="5.2"/>
<rect x="90.2" y="136.2" width="91.3" height="5.2"/>
<rect x="90.2" y="175.3" width="91.3" height="5.2"/>
<rect x="90.2" y="188.4" width="78.2" height="5.2"/>
<path d="M255.9,197.6c-6.9,0-12.5-5.6-12.5-12.5c0-6.9,5.6-12.5,12.5-12.5c6.9,0,12.5,5.6,12.5,12.5
	C268.4,192,262.8,197.6,255.9,197.6z M221.5,192.7l-6.6-6.6l2.6-2.6l4.1,4.1l10.1-10.1l2.6,2.6L221.5,192.7z M256.7,168.8h-38.9
	c-8.9,0-16.1,7.2-16.1,16.1v0.3c0,8.9,7.2,16.1,16.1,16.1h38.9c8.9,0,16.1-7.2,16.1-16.1v-0.3C272.8,176,265.6,168.8,256.7,168.8z"
	/>
<rect x="90.2" y="227.5" width="78.2" height="5.2"/>
<rect x="90.2" y="240.5" width="91.3" height="5.2"/>
<path d="M254.9,244.9l-5.1-5.1l-5.1,5.1l-2.6-2.6l5.1-5.1l-5.1-5.1l2.6-2.6l5.1,5.1l5.1-5.1l2.6,2.6l-5.1,5.1l5.1,5.1L254.9,244.9z
	 M218.4,249.8c-6.9,0-12.5-5.6-12.5-12.5c0-6.9,5.6-12.5,12.5-12.5c6.9,0,12.5,5.6,12.5,12.5C230.9,244.2,225.3,249.8,218.4,249.8z
	 M256.7,221h-38.9c-8.9,0-16.1,7.2-16.1,16.1v0.3c0,8.9,7.2,16.1,16.1,16.1h38.9c8.9,0,16.1-7.2,16.1-16.1v-0.3
	C272.8,228.2,265.6,221,256.7,221z"/>
<path d="M656,284.1H402.7V96.7H656V284.1z M397.4,91.5v197.9h263.9V91.5H397.4z"/>
<path d="M485.4,221.9v-98.5h55.5v24.5h23.8v74l-6.6-3.3l-11,5.5l-11-5.5l-11,5.5l-11-5.5l-11,5.5l-11-5.5L485.4,221.9z M545.2,125.6
	l17.8,17.8h-17.8V125.6z M503,229l11-5.5l11,5.5l11-5.5l11,5.5l11-5.5l11,5.5v-85.8L544.8,119H481v110l11-5.5L503,229z"/>
<rect x="541.5" y="191.1" width="11" height="4.4"/>
<rect x="497.5" y="169.1" width="55" height="4.4"/>
<rect x="541.5" y="202.1" width="11" height="4.4"/>
<rect x="497.5" y="191.1" width="27.5" height="4.4"/>
<rect x="497.5" y="202.1" width="27.5" height="4.4"/>
<rect x="497.5" y="158" width="55" height="4.4"/>
<rect x="497.5" y="141.5" width="33" height="4.4"/>
<rect x="448" y="135.5" width="27.5" height="5.5"/>
<rect x="448" y="124.5" width="27.5" height="5.5"/>
<rect x="448" y="146.5" width="27.5" height="5.5"/>
<rect x="448" y="157.5" width="27.5" height="5.5"/>
<rect x="448" y="168.5" width="27.5" height="5.5"/>
<rect x="448" y="179.5" width="27.5" height="5.5"/>
<rect x="448" y="190.5" width="27.5" height="5.5"/>
<rect x="448" y="201.5" width="27.5" height="5.5"/>
<rect x="448" y="212.5" width="27.5" height="5.5"/>
<rect x="574.5" y="135.5" width="27.5" height="5.5"/>
<rect x="563.5" y="124.5" width="38.5" height="5.5"/>
<rect x="574.5" y="146.5" width="27.5" height="5.5"/>
<rect x="574.5" y="157.5" width="27.5" height="5.5"/>
<rect x="574.5" y="168.5" width="27.5" height="5.5"/>
<rect x="574.5" y="179.5" width="27.5" height="5.5"/>
<rect x="574.5" y="190.5" width="27.5" height="5.5"/>
<rect x="574.5" y="201.5" width="27.5" height="5.5"/>
<rect x="574.5" y="212.5" width="27.5" height="5.5"/>
<g>
	<path d="M87.2,61.9v-1.5l5.5,0v4.8c-0.8,0.7-1.7,1.2-2.6,1.5s-1.8,0.5-2.7,0.5c-1.3,0-2.4-0.3-3.4-0.8S82,65,81.5,64
		s-0.8-2.2-0.8-3.4c0-1.3,0.3-2.4,0.8-3.5s1.3-1.9,2.3-2.4s2.1-0.8,3.4-0.8c0.9,0,1.8,0.2,2.5,0.5s1.3,0.7,1.8,1.3s0.8,1.2,1,2.1
		l-1.5,0.4c-0.2-0.7-0.4-1.2-0.7-1.5s-0.7-0.7-1.2-0.9s-1.1-0.3-1.8-0.3c-0.8,0-1.5,0.1-2,0.4s-1,0.5-1.4,0.9s-0.6,0.8-0.8,1.3
		c-0.3,0.8-0.5,1.7-0.5,2.6c0,1.1,0.2,2.1,0.6,2.9s1,1.3,1.7,1.7s1.6,0.6,2.4,0.6c0.7,0,1.5-0.1,2.2-0.4s1.2-0.6,1.6-0.9v-2.4H87.2z
		"/>
	<path d="M103.6,54h1.7v7.4c0,1.3-0.1,2.3-0.4,3.1s-0.8,1.4-1.6,1.9s-1.8,0.7-3,0.7c-1.2,0-2.2-0.2-3-0.6s-1.3-1-1.6-1.8
		s-0.5-1.9-0.5-3.2V54h1.7v7.4c0,1.1,0.1,1.9,0.3,2.5s0.6,0.9,1.1,1.2s1.1,0.4,1.9,0.4c1.3,0,2.1-0.3,2.7-0.9s0.8-1.7,0.8-3.3V54z"
		/>
	<path d="M108.4,66.9V54h1.7v12.9H108.4z"/>
	<path d="M118,70.5V57.6h1.4v1.2c0.3-0.5,0.7-0.8,1.2-1.1s0.9-0.4,1.6-0.4c0.8,0,1.5,0.2,2.1,0.6s1.1,1,1.4,1.7s0.5,1.6,0.5,2.5
		c0,1-0.2,1.8-0.5,2.6s-0.8,1.4-1.5,1.8s-1.3,0.6-2.1,0.6c-0.5,0-1-0.1-1.4-0.3s-0.8-0.5-1-0.8v4.5H118z M119.4,62.3
		c0,1.2,0.2,2.1,0.7,2.7s1.1,0.9,1.8,0.9c0.7,0,1.3-0.3,1.8-0.9s0.8-1.5,0.8-2.8c0-1.2-0.2-2.1-0.7-2.7s-1.1-0.9-1.8-0.9
		c-0.7,0-1.3,0.3-1.8,0.9S119.4,61.1,119.4,62.3z"/>
	<path d="M128,66.9v-9.3h1.4V59c0.4-0.7,0.7-1.1,1-1.3s0.6-0.3,1-0.3c0.5,0,1.1,0.2,1.6,0.5l-0.5,1.5c-0.4-0.2-0.8-0.3-1.2-0.3
		c-0.3,0-0.7,0.1-0.9,0.3s-0.5,0.5-0.6,0.9c-0.2,0.6-0.3,1.2-0.3,1.8v4.9H128z"/>
	<path d="M133.4,62.3c0-1.7,0.5-3,1.4-3.8c0.8-0.7,1.8-1,2.9-1c1.3,0,2.3,0.4,3.1,1.3s1.2,2,1.2,3.5c0,1.2-0.2,2.1-0.5,2.8
		s-0.9,1.2-1.6,1.6s-1.4,0.6-2.3,0.6c-1.3,0-2.4-0.4-3.2-1.3S133.4,63.8,133.4,62.3z M135,62.3c0,1.2,0.3,2.1,0.8,2.7s1.2,0.9,2,0.9
		c0.8,0,1.4-0.3,2-0.9s0.8-1.5,0.8-2.7c0-1.2-0.3-2-0.8-2.6s-1.2-0.9-2-0.9c-0.8,0-1.4,0.3-2,0.9S135,61.1,135,62.3z"/>
	<path d="M150,66.9v-1.2c-0.6,0.9-1.5,1.4-2.6,1.4c-0.7,0-1.4-0.2-2.1-0.6s-1.1-1-1.5-1.7s-0.5-1.6-0.5-2.5c0-0.9,0.2-1.8,0.5-2.5
		s0.8-1.3,1.4-1.7s1.3-0.6,2.1-0.6c0.6,0,1.1,0.1,1.5,0.4s0.8,0.5,1.1,0.9V54h1.6v12.9H150z M145,62.3c0,1.2,0.3,2.1,0.8,2.7
		s1.1,0.9,1.8,0.9c0.7,0,1.3-0.3,1.8-0.8s0.7-1.4,0.7-2.6c0-1.3-0.2-2.2-0.7-2.8s-1.1-0.9-1.8-0.9c-0.7,0-1.3,0.3-1.8,0.9
		S145,61,145,62.3z"/>
	<path d="M160.1,66.9v-1.4c-0.7,1.1-1.7,1.6-3,1.6c-0.6,0-1.1-0.1-1.5-0.3s-0.8-0.5-1.1-0.8s-0.4-0.7-0.5-1.2
		c-0.1-0.3-0.1-0.8-0.1-1.5v-5.8h1.6v5.2c0,0.8,0,1.4,0.1,1.7c0.1,0.4,0.3,0.7,0.6,1s0.7,0.4,1.2,0.4s0.9-0.1,1.3-0.4s0.7-0.6,0.9-1
		s0.3-1,0.3-1.8v-5h1.6v9.3H160.1z"/>
	<path d="M170.1,63.5l1.6,0.2c-0.2,1.1-0.6,1.9-1.3,2.5s-1.6,0.9-2.6,0.9c-1.3,0-2.3-0.4-3.1-1.3s-1.2-2-1.2-3.6
		c0-1,0.2-1.9,0.5-2.6s0.8-1.3,1.5-1.7s1.4-0.6,2.2-0.6c1,0,1.8,0.3,2.5,0.8s1.1,1.2,1.2,2.2l-1.5,0.2c-0.1-0.6-0.4-1.1-0.8-1.4
		s-0.8-0.5-1.3-0.5c-0.8,0-1.4,0.3-1.9,0.9s-0.7,1.5-0.7,2.7c0,1.3,0.2,2.2,0.7,2.7s1.1,0.9,1.9,0.9c0.6,0,1.1-0.2,1.6-0.6
		S170,64.3,170.1,63.5z"/>
	<path d="M176.4,65.5l0.2,1.4c-0.4,0.1-0.8,0.1-1.2,0.1c-0.6,0-1-0.1-1.3-0.3s-0.5-0.4-0.7-0.7s-0.2-0.9-0.2-1.9v-5.4h-1.2v-1.2h1.2
		v-2.3l1.6-0.9v3.3h1.6v1.2h-1.6v5.5c0,0.5,0,0.7,0.1,0.9s0.1,0.2,0.3,0.3s0.3,0.1,0.5,0.1C175.9,65.6,176.2,65.5,176.4,65.5z"/>
	<path d="M183,55.9V54h1.6v1.8H183z M183,66.9v-9.3h1.6v9.3H183z"/>
	<path d="M187,66.9v-9.3h1.4v1.3c0.7-1,1.7-1.5,3-1.5c0.6,0,1.1,0.1,1.6,0.3s0.8,0.5,1.1,0.8s0.4,0.7,0.5,1.2
		c0.1,0.3,0.1,0.8,0.1,1.5v5.7H193v-5.7c0-0.6-0.1-1.1-0.2-1.4s-0.3-0.6-0.7-0.8s-0.7-0.3-1.1-0.3c-0.7,0-1.3,0.2-1.7,0.6
		s-0.7,1.2-0.7,2.4v5.1H187z"/>
	<path d="M200.5,65.5l0.2,1.4c-0.4,0.1-0.8,0.1-1.2,0.1c-0.6,0-1-0.1-1.3-0.3s-0.5-0.4-0.7-0.7s-0.2-0.9-0.2-1.9v-5.4h-1.2v-1.2h1.2
		v-2.3l1.6-0.9v3.3h1.6v1.2h-1.6v5.5c0,0.5,0,0.7,0.1,0.9s0.1,0.2,0.3,0.3s0.3,0.1,0.5,0.1C199.9,65.6,200.2,65.5,200.5,65.5z"/>
	<path d="M208.4,63.9l1.6,0.2c-0.3,1-0.7,1.7-1.4,2.2s-1.6,0.8-2.7,0.8c-1.4,0-2.4-0.4-3.2-1.3s-1.2-2-1.2-3.5
		c0-1.6,0.4-2.8,1.2-3.7s1.9-1.3,3.1-1.3c1.2,0,2.3,0.4,3.1,1.3s1.2,2,1.2,3.6c0,0.1,0,0.2,0,0.4h-7c0.1,1,0.3,1.8,0.9,2.4
		s1.2,0.8,2,0.8c0.6,0,1.1-0.2,1.5-0.5S208.2,64.6,208.4,63.9z M203.2,61.4h5.2c-0.1-0.8-0.3-1.4-0.6-1.8c-0.5-0.6-1.2-0.9-2-0.9
		c-0.7,0-1.3,0.2-1.8,0.7S203.3,60.5,203.2,61.4z"/>
	<path d="M212,66.9v-9.3h1.4V59c0.4-0.7,0.7-1.1,1-1.3s0.6-0.3,1-0.3c0.5,0,1.1,0.2,1.6,0.5l-0.5,1.5c-0.4-0.2-0.8-0.3-1.2-0.3
		c-0.3,0-0.7,0.1-0.9,0.3s-0.5,0.5-0.6,0.9c-0.2,0.6-0.3,1.2-0.3,1.8v4.9H212z"/>
	<path d="M218.4,66.9v-8.1H217v-1.2h1.4v-1c0-0.6,0.1-1.1,0.2-1.4c0.2-0.4,0.4-0.7,0.8-1s0.9-0.4,1.6-0.4c0.4,0,0.9,0.1,1.5,0.2
		l-0.2,1.4c-0.3-0.1-0.6-0.1-0.9-0.1c-0.5,0-0.8,0.1-1,0.3s-0.3,0.6-0.3,1.2v0.9h1.8v1.2H220v8.1H218.4z"/>
	<path d="M229.1,65.8c-0.6,0.5-1.1,0.8-1.7,1.1s-1.1,0.3-1.7,0.3c-1,0-1.8-0.3-2.4-0.8s-0.8-1.1-0.8-1.9c0-0.5,0.1-0.9,0.3-1.3
		s0.5-0.7,0.8-0.9s0.7-0.4,1.1-0.5c0.3-0.1,0.8-0.2,1.4-0.2c1.3-0.2,2.2-0.3,2.8-0.5c0-0.2,0-0.4,0-0.4c0-0.6-0.1-1.1-0.4-1.4
		c-0.4-0.4-1-0.5-1.8-0.5c-0.7,0-1.3,0.1-1.6,0.4s-0.6,0.7-0.8,1.4l-1.5-0.2c0.1-0.7,0.4-1.2,0.7-1.6s0.8-0.7,1.4-0.9
		s1.3-0.3,2.1-0.3c0.8,0,1.4,0.1,1.9,0.3s0.9,0.4,1.1,0.7s0.4,0.6,0.5,1.1c0.1,0.3,0.1,0.8,0.1,1.5V63c0,1.5,0,2.4,0.1,2.8
		s0.2,0.8,0.4,1.1h-1.7C229.3,66.6,229.2,66.2,229.1,65.8z M229,62.2c-0.6,0.2-1.4,0.4-2.6,0.6c-0.7,0.1-1.1,0.2-1.4,0.3
		s-0.5,0.3-0.6,0.5s-0.2,0.5-0.2,0.8c0,0.4,0.2,0.8,0.5,1.1s0.8,0.4,1.4,0.4c0.6,0,1.2-0.1,1.6-0.4s0.8-0.6,1-1.1
		c0.2-0.4,0.3-0.9,0.3-1.6V62.2z"/>
	<path d="M239.1,63.5l1.6,0.2c-0.2,1.1-0.6,1.9-1.3,2.5s-1.6,0.9-2.6,0.9c-1.3,0-2.3-0.4-3.1-1.3s-1.2-2-1.2-3.6
		c0-1,0.2-1.9,0.5-2.6s0.8-1.3,1.5-1.7s1.4-0.6,2.2-0.6c1,0,1.8,0.3,2.5,0.8s1.1,1.2,1.2,2.2l-1.5,0.2c-0.1-0.6-0.4-1.1-0.8-1.4
		s-0.8-0.5-1.3-0.5c-0.8,0-1.4,0.3-1.9,0.9s-0.7,1.5-0.7,2.7c0,1.3,0.2,2.2,0.7,2.7s1.1,0.9,1.9,0.9c0.6,0,1.1-0.2,1.6-0.6
		S239,64.3,239.1,63.5z"/>
	<path d="M248.4,63.9l1.6,0.2c-0.3,1-0.7,1.7-1.4,2.2s-1.6,0.8-2.7,0.8c-1.4,0-2.4-0.4-3.2-1.3s-1.2-2-1.2-3.5
		c0-1.6,0.4-2.8,1.2-3.7s1.9-1.3,3.1-1.3c1.2,0,2.3,0.4,3.1,1.3s1.2,2,1.2,3.6c0,0.1,0,0.2,0,0.4h-7c0.1,1,0.3,1.8,0.9,2.4
		s1.2,0.8,2,0.8c0.6,0,1.1-0.2,1.5-0.5S248.2,64.6,248.4,63.9z M243.2,61.4h5.2c-0.1-0.8-0.3-1.4-0.6-1.8c-0.5-0.6-1.2-0.9-2-0.9
		c-0.7,0-1.3,0.2-1.8,0.7S243.3,60.5,243.2,61.4z"/>
</g>
<g>
	<path d="M431.1,66.9L436,54h1.8l5.3,12.9h-1.9l-1.5-3.9h-5.4l-1.4,3.9H431.1z M434.8,61.6h4.4l-1.3-3.6c-0.4-1.1-0.7-2-0.9-2.7
		c-0.2,0.8-0.4,1.6-0.7,2.5L434.8,61.6z"/>
	<path d="M444.5,66.9V54h4.9c0.9,0,1.5,0,2,0.1c0.6,0.1,1.2,0.3,1.6,0.6s0.8,0.7,1,1.2s0.4,1.1,0.4,1.8c0,1.1-0.3,2-1,2.8
		s-2,1.1-3.8,1.1h-3.3v5.2H444.5z M446.2,60.2h3.3c1.1,0,1.9-0.2,2.3-0.6s0.7-1,0.7-1.7c0-0.5-0.1-1-0.4-1.4s-0.6-0.6-1.1-0.8
		c-0.3-0.1-0.8-0.1-1.6-0.1h-3.3V60.2z"/>
	<path d="M456.8,66.9V54h1.7v12.9H456.8z"/>
	<path d="M466.3,70.5V57.6h1.4v1.2c0.3-0.5,0.7-0.8,1.2-1.1s0.9-0.4,1.6-0.4c0.8,0,1.5,0.2,2.1,0.6s1.1,1,1.4,1.7s0.5,1.6,0.5,2.5
		c0,1-0.2,1.8-0.5,2.6s-0.8,1.4-1.5,1.8s-1.3,0.6-2.1,0.6c-0.5,0-1-0.1-1.4-0.3s-0.8-0.5-1-0.8v4.5H466.3z M467.7,62.3
		c0,1.2,0.2,2.1,0.7,2.7s1.1,0.9,1.8,0.9c0.7,0,1.3-0.3,1.8-0.9s0.8-1.5,0.8-2.8c0-1.2-0.2-2.1-0.7-2.7s-1.1-0.9-1.8-0.9
		c-0.7,0-1.3,0.3-1.8,0.9S467.7,61.1,467.7,62.3z"/>
	<path d="M476.3,66.9v-9.3h1.4V59c0.4-0.7,0.7-1.1,1-1.3s0.6-0.3,1-0.3c0.5,0,1.1,0.2,1.6,0.5l-0.5,1.5c-0.4-0.2-0.8-0.3-1.2-0.3
		c-0.3,0-0.7,0.1-0.9,0.3s-0.5,0.5-0.6,0.9c-0.2,0.6-0.3,1.2-0.3,1.8v4.9H476.3z"/>
	<path d="M481.7,62.3c0-1.7,0.5-3,1.4-3.8c0.8-0.7,1.8-1,2.9-1c1.3,0,2.3,0.4,3.1,1.3s1.2,2,1.2,3.5c0,1.2-0.2,2.1-0.5,2.8
		s-0.9,1.2-1.6,1.6s-1.4,0.6-2.3,0.6c-1.3,0-2.4-0.4-3.2-1.3S481.7,63.8,481.7,62.3z M483.3,62.3c0,1.2,0.3,2.1,0.8,2.7
		s1.2,0.9,2,0.9c0.8,0,1.4-0.3,2-0.9s0.8-1.5,0.8-2.7c0-1.2-0.3-2-0.8-2.6s-1.2-0.9-2-0.9c-0.8,0-1.4,0.3-2,0.9
		S483.3,61.1,483.3,62.3z"/>
	<path d="M498.4,66.9v-1.2c-0.6,0.9-1.5,1.4-2.6,1.4c-0.7,0-1.4-0.2-2.1-0.6s-1.1-1-1.5-1.7s-0.5-1.6-0.5-2.5c0-0.9,0.2-1.8,0.5-2.5
		s0.8-1.3,1.4-1.7s1.3-0.6,2.1-0.6c0.6,0,1.1,0.1,1.5,0.4s0.8,0.5,1.1,0.9V54h1.6v12.9H498.4z M493.4,62.3c0,1.2,0.3,2.1,0.8,2.7
		s1.1,0.9,1.8,0.9c0.7,0,1.3-0.3,1.8-0.8s0.7-1.4,0.7-2.6c0-1.3-0.2-2.2-0.7-2.8s-1.1-0.9-1.8-0.9c-0.7,0-1.3,0.3-1.8,0.9
		S493.4,61,493.4,62.3z"/>
	<path d="M508.4,66.9v-1.4c-0.7,1.1-1.7,1.6-3,1.6c-0.6,0-1.1-0.1-1.5-0.3s-0.8-0.5-1.1-0.8s-0.4-0.7-0.5-1.2
		c-0.1-0.3-0.1-0.8-0.1-1.5v-5.8h1.6v5.2c0,0.8,0,1.4,0.1,1.7c0.1,0.4,0.3,0.7,0.6,1s0.7,0.4,1.2,0.4s0.9-0.1,1.3-0.4s0.7-0.6,0.9-1
		s0.3-1,0.3-1.8v-5h1.6v9.3H508.4z"/>
	<path d="M518.4,63.5l1.6,0.2c-0.2,1.1-0.6,1.9-1.3,2.5s-1.6,0.9-2.6,0.9c-1.3,0-2.3-0.4-3.1-1.3s-1.2-2-1.2-3.6
		c0-1,0.2-1.9,0.5-2.6s0.8-1.3,1.5-1.7s1.4-0.6,2.2-0.6c1,0,1.8,0.3,2.5,0.8s1.1,1.2,1.2,2.2l-1.5,0.2c-0.1-0.6-0.4-1.1-0.8-1.4
		s-0.8-0.5-1.3-0.5c-0.8,0-1.4,0.3-1.9,0.9s-0.7,1.5-0.7,2.7c0,1.3,0.2,2.2,0.7,2.7s1.1,0.9,1.9,0.9c0.6,0,1.1-0.2,1.6-0.6
		S518.3,64.3,518.4,63.5z"/>
	<path d="M524.8,65.5l0.2,1.4c-0.4,0.1-0.8,0.1-1.2,0.1c-0.6,0-1-0.1-1.3-0.3s-0.5-0.4-0.7-0.7s-0.2-0.9-0.2-1.9v-5.4h-1.2v-1.2h1.2
		v-2.3l1.6-0.9v3.3h1.6v1.2h-1.6v5.5c0,0.5,0,0.7,0.1,0.9s0.1,0.2,0.3,0.3s0.3,0.1,0.5,0.1C524.3,65.6,524.5,65.5,524.8,65.5z"/>
	<path d="M531.3,55.9V54h1.6v1.8H531.3z M531.3,66.9v-9.3h1.6v9.3H531.3z"/>
	<path d="M535.3,66.9v-9.3h1.4v1.3c0.7-1,1.7-1.5,3-1.5c0.6,0,1.1,0.1,1.6,0.3s0.8,0.5,1.1,0.8s0.4,0.7,0.5,1.2
		c0.1,0.3,0.1,0.8,0.1,1.5v5.7h-1.6v-5.7c0-0.6-0.1-1.1-0.2-1.4s-0.3-0.6-0.7-0.8s-0.7-0.3-1.1-0.3c-0.7,0-1.3,0.2-1.7,0.6
		s-0.7,1.2-0.7,2.4v5.1H535.3z"/>
	<path d="M548.8,65.5l0.2,1.4c-0.4,0.1-0.8,0.1-1.2,0.1c-0.6,0-1-0.1-1.3-0.3s-0.5-0.4-0.7-0.7s-0.2-0.9-0.2-1.9v-5.4h-1.2v-1.2h1.2
		v-2.3l1.6-0.9v3.3h1.6v1.2h-1.6v5.5c0,0.5,0,0.7,0.1,0.9s0.1,0.2,0.3,0.3s0.3,0.1,0.5,0.1C548.3,65.6,548.5,65.5,548.8,65.5z"/>
	<path d="M556.7,63.9l1.6,0.2c-0.3,1-0.7,1.7-1.4,2.2s-1.6,0.8-2.7,0.8c-1.4,0-2.4-0.4-3.2-1.3s-1.2-2-1.2-3.5
		c0-1.6,0.4-2.8,1.2-3.7s1.9-1.3,3.1-1.3c1.2,0,2.3,0.4,3.1,1.3s1.2,2,1.2,3.6c0,0.1,0,0.2,0,0.4h-7c0.1,1,0.3,1.8,0.9,2.4
		s1.2,0.8,2,0.8c0.6,0,1.1-0.2,1.5-0.5S556.5,64.6,556.7,63.9z M551.5,61.4h5.2c-0.1-0.8-0.3-1.4-0.6-1.8c-0.5-0.6-1.2-0.9-2-0.9
		c-0.7,0-1.3,0.2-1.8,0.7S551.6,60.5,551.5,61.4z"/>
	<path d="M560.3,66.9v-9.3h1.4V59c0.4-0.7,0.7-1.1,1-1.3s0.6-0.3,1-0.3c0.5,0,1.1,0.2,1.6,0.5l-0.5,1.5c-0.4-0.2-0.8-0.3-1.2-0.3
		c-0.3,0-0.7,0.1-0.9,0.3s-0.5,0.5-0.6,0.9c-0.2,0.6-0.3,1.2-0.3,1.8v4.9H560.3z"/>
	<path d="M566.7,66.9v-8.1h-1.4v-1.2h1.4v-1c0-0.6,0.1-1.1,0.2-1.4c0.2-0.4,0.4-0.7,0.8-1s0.9-0.4,1.6-0.4c0.4,0,0.9,0.1,1.5,0.2
		l-0.2,1.4c-0.3-0.1-0.6-0.1-0.9-0.1c-0.5,0-0.8,0.1-1,0.3s-0.3,0.6-0.3,1.2v0.9h1.8v1.2h-1.8v8.1H566.7z"/>
	<path d="M577.4,65.8c-0.6,0.5-1.1,0.8-1.7,1.1s-1.1,0.3-1.7,0.3c-1,0-1.8-0.3-2.4-0.8s-0.8-1.1-0.8-1.9c0-0.5,0.1-0.9,0.3-1.3
		s0.5-0.7,0.8-0.9s0.7-0.4,1.1-0.5c0.3-0.1,0.8-0.2,1.4-0.2c1.3-0.2,2.2-0.3,2.8-0.5c0-0.2,0-0.4,0-0.4c0-0.6-0.1-1.1-0.4-1.4
		c-0.4-0.4-1-0.5-1.8-0.5c-0.7,0-1.3,0.1-1.6,0.4s-0.6,0.7-0.8,1.4l-1.5-0.2c0.1-0.7,0.4-1.2,0.7-1.6s0.8-0.7,1.4-0.9
		s1.3-0.3,2.1-0.3c0.8,0,1.4,0.1,1.9,0.3s0.9,0.4,1.1,0.7s0.4,0.6,0.5,1.1c0.1,0.3,0.1,0.8,0.1,1.5V63c0,1.5,0,2.4,0.1,2.8
		s0.2,0.8,0.4,1.1h-1.7C577.6,66.6,577.5,66.2,577.4,65.8z M577.3,62.2c-0.6,0.2-1.4,0.4-2.6,0.6c-0.7,0.1-1.1,0.2-1.4,0.3
		s-0.5,0.3-0.6,0.5s-0.2,0.5-0.2,0.8c0,0.4,0.2,0.8,0.5,1.1s0.8,0.4,1.4,0.4c0.6,0,1.2-0.1,1.6-0.4s0.8-0.6,1-1.1
		c0.2-0.4,0.3-0.9,0.3-1.6V62.2z"/>
	<path d="M587.5,63.5l1.6,0.2c-0.2,1.1-0.6,1.9-1.3,2.5s-1.6,0.9-2.6,0.9c-1.3,0-2.3-0.4-3.1-1.3s-1.2-2-1.2-3.6
		c0-1,0.2-1.9,0.5-2.6s0.8-1.3,1.5-1.7s1.4-0.6,2.2-0.6c1,0,1.8,0.3,2.5,0.8s1.1,1.2,1.2,2.2l-1.5,0.2c-0.1-0.6-0.4-1.1-0.8-1.4
		s-0.8-0.5-1.3-0.5c-0.8,0-1.4,0.3-1.9,0.9s-0.7,1.5-0.7,2.7c0,1.3,0.2,2.2,0.7,2.7s1.1,0.9,1.9,0.9c0.6,0,1.1-0.2,1.6-0.6
		S587.3,64.3,587.5,63.5z"/>
	<path d="M596.8,63.9l1.6,0.2c-0.3,1-0.7,1.7-1.4,2.2s-1.6,0.8-2.7,0.8c-1.4,0-2.4-0.4-3.2-1.3s-1.2-2-1.2-3.5
		c0-1.6,0.4-2.8,1.2-3.7s1.9-1.3,3.1-1.3c1.2,0,2.3,0.4,3.1,1.3s1.2,2,1.2,3.6c0,0.1,0,0.2,0,0.4h-7c0.1,1,0.3,1.8,0.9,2.4
		s1.2,0.8,2,0.8c0.6,0,1.1-0.2,1.5-0.5S596.5,64.6,596.8,63.9z M591.6,61.4h5.2c-0.1-0.8-0.3-1.4-0.6-1.8c-0.5-0.6-1.2-0.9-2-0.9
		c-0.7,0-1.3,0.2-1.8,0.7S591.6,60.5,591.6,61.4z"/>
</g>
<line style="fill:none;stroke:#000000;stroke-miterlimit:10;" x1="349.5" y1="-12.3" x2="349.5" y2="362.7"/>
<g>
	<path style="fill:#F4B008;" d="M470.7,261.5v-12.9h4.4c1,0,1.8,0.1,2.3,0.2c0.7,0.2,1.4,0.5,1.9,0.9c0.7,0.6,1.2,1.3,1.5,2.2
		c0.3,0.9,0.5,1.9,0.5,3.1c0,1-0.1,1.8-0.3,2.6s-0.5,1.4-0.9,1.9c-0.4,0.5-0.7,0.9-1.2,1.2s-0.9,0.5-1.5,0.6s-1.3,0.2-2.1,0.2H470.7
		z M472.4,260h2.8c0.8,0,1.5-0.1,2-0.2s0.9-0.4,1.2-0.7c0.4-0.4,0.7-0.9,0.9-1.6c0.2-0.7,0.3-1.5,0.3-2.5c0-1.3-0.2-2.4-0.7-3.1
		c-0.4-0.7-1-1.2-1.6-1.5c-0.5-0.2-1.2-0.3-2.2-0.3h-2.7V260z"/>
	<path style="fill:#F4B008;" d="M482.9,256.9c0-1.7,0.5-3,1.4-3.8c0.8-0.7,1.8-1,2.9-1c1.3,0,2.3,0.4,3.1,1.3s1.2,2,1.2,3.5
		c0,1.2-0.2,2.1-0.5,2.8c-0.4,0.7-0.9,1.2-1.6,1.6s-1.4,0.6-2.3,0.6c-1.3,0-2.4-0.4-3.2-1.3S482.9,258.4,482.9,256.9z M484.5,256.9
		c0,1.2,0.3,2.1,0.8,2.7c0.5,0.6,1.2,0.9,2,0.9c0.8,0,1.4-0.3,2-0.9s0.8-1.5,0.8-2.7c0-1.2-0.3-2-0.8-2.6c-0.5-0.6-1.2-0.9-2-0.9
		c-0.8,0-1.4,0.3-2,0.9S484.5,255.7,484.5,256.9z"/>
	<path style="fill:#F4B008;" d="M499.6,258.1l1.6,0.2c-0.2,1.1-0.6,1.9-1.3,2.5c-0.7,0.6-1.6,0.9-2.6,0.9c-1.3,0-2.3-0.4-3.1-1.3
		c-0.8-0.8-1.2-2-1.2-3.6c0-1,0.2-1.9,0.5-2.6s0.8-1.3,1.5-1.7c0.7-0.4,1.4-0.6,2.2-0.6c1,0,1.8,0.3,2.5,0.8s1.1,1.2,1.2,2.2
		l-1.5,0.2c-0.1-0.6-0.4-1.1-0.8-1.4s-0.8-0.5-1.3-0.5c-0.8,0-1.4,0.3-1.9,0.9c-0.5,0.6-0.7,1.5-0.7,2.7c0,1.3,0.2,2.2,0.7,2.7
		s1.1,0.9,1.9,0.9c0.6,0,1.1-0.2,1.6-0.6S499.5,258.9,499.6,258.1z"/>
	<path style="fill:#F4B008;" d="M508.6,261.5v-1.4c-0.7,1.1-1.7,1.6-3,1.6c-0.6,0-1.1-0.1-1.5-0.3s-0.8-0.5-1.1-0.8
		s-0.4-0.7-0.5-1.2c-0.1-0.3-0.1-0.8-0.1-1.5v-5.8h1.6v5.2c0,0.8,0,1.4,0.1,1.7c0.1,0.4,0.3,0.7,0.6,1c0.3,0.2,0.7,0.4,1.2,0.4
		s0.9-0.1,1.3-0.4s0.7-0.6,0.9-1c0.2-0.4,0.3-1,0.3-1.8v-5h1.6v9.3H508.6z"/>
	<path style="fill:#F4B008;" d="M512.5,261.5v-9.3h1.4v1.3c0.3-0.5,0.7-0.8,1.2-1.1s1-0.4,1.7-0.4c0.7,0,1.3,0.1,1.7,0.4
		s0.8,0.7,0.9,1.2c0.7-1.1,1.7-1.6,2.9-1.6c0.9,0,1.6,0.3,2.1,0.8s0.7,1.3,0.7,2.4v6.4h-1.6v-5.9c0-0.6-0.1-1.1-0.2-1.4
		s-0.3-0.5-0.6-0.7s-0.6-0.3-0.9-0.3c-0.7,0-1.2,0.2-1.6,0.7c-0.4,0.4-0.7,1.1-0.7,2.1v5.4h-1.6v-6.1c0-0.7-0.1-1.2-0.4-1.6
		s-0.7-0.5-1.3-0.5c-0.4,0-0.9,0.1-1.2,0.4s-0.7,0.6-0.8,1s-0.3,1.1-0.3,2v4.8H512.5z"/>
	<path style="fill:#F4B008;" d="M533.9,258.5l1.6,0.2c-0.3,1-0.7,1.7-1.4,2.2s-1.6,0.8-2.7,0.8c-1.4,0-2.4-0.4-3.2-1.3
		c-0.8-0.8-1.2-2-1.2-3.5c0-1.6,0.4-2.8,1.2-3.7s1.9-1.3,3.1-1.3c1.2,0,2.3,0.4,3.1,1.3s1.2,2,1.2,3.6c0,0.1,0,0.2,0,0.4h-7
		c0.1,1,0.3,1.8,0.9,2.4s1.2,0.8,2,0.8c0.6,0,1.1-0.2,1.5-0.5S533.7,259.2,533.9,258.5z M528.7,256h5.2c-0.1-0.8-0.3-1.4-0.6-1.8
		c-0.5-0.6-1.2-0.9-2-0.9c-0.7,0-1.3,0.2-1.8,0.7S528.8,255.2,528.7,256z"/>
	<path style="fill:#F4B008;" d="M537.5,261.5v-9.3h1.4v1.3c0.7-1,1.7-1.5,3-1.5c0.6,0,1.1,0.1,1.6,0.3c0.5,0.2,0.8,0.5,1.1,0.8
		s0.4,0.7,0.5,1.2c0.1,0.3,0.1,0.8,0.1,1.5v5.7h-1.6v-5.7c0-0.6-0.1-1.1-0.2-1.4s-0.3-0.6-0.7-0.8c-0.3-0.2-0.7-0.3-1.1-0.3
		c-0.7,0-1.3,0.2-1.7,0.6s-0.7,1.2-0.7,2.4v5.1H537.5z"/>
	<path style="fill:#F4B008;" d="M551,260.1l0.2,1.4c-0.4,0.1-0.8,0.1-1.2,0.1c-0.6,0-1-0.1-1.3-0.3s-0.5-0.4-0.7-0.7
		s-0.2-0.9-0.2-1.9v-5.4h-1.2v-1.2h1.2v-2.3l1.6-0.9v3.3h1.6v1.2h-1.6v5.5c0,0.5,0,0.7,0.1,0.9s0.1,0.2,0.3,0.3s0.3,0.1,0.5,0.1
		C550.5,260.2,550.7,260.2,551,260.1z"/>
	<path style="fill:#F4B008;" d="M558.6,260.4c-0.6,0.5-1.1,0.8-1.7,1.1s-1.1,0.3-1.7,0.3c-1,0-1.8-0.2-2.4-0.8
		c-0.6-0.5-0.8-1.1-0.8-1.9c0-0.5,0.1-0.9,0.3-1.3c0.2-0.4,0.5-0.7,0.8-0.9s0.7-0.4,1.1-0.5c0.3-0.1,0.8-0.2,1.4-0.2
		c1.3-0.2,2.2-0.3,2.8-0.5c0-0.2,0-0.4,0-0.4c0-0.6-0.1-1.1-0.4-1.4c-0.4-0.4-1-0.5-1.8-0.5c-0.7,0-1.3,0.1-1.6,0.4
		s-0.6,0.7-0.8,1.4l-1.5-0.2c0.1-0.7,0.4-1.2,0.7-1.6c0.3-0.4,0.8-0.7,1.4-0.9c0.6-0.2,1.3-0.3,2.1-0.3c0.8,0,1.4,0.1,1.9,0.3
		s0.9,0.4,1.1,0.7c0.2,0.3,0.4,0.6,0.5,1.1c0.1,0.3,0.1,0.8,0.1,1.5v2.1c0,1.5,0,2.4,0.1,2.8c0.1,0.4,0.2,0.8,0.4,1.1h-1.7
		C558.8,261.2,558.7,260.8,558.6,260.4z M558.5,256.9c-0.6,0.2-1.4,0.4-2.6,0.6c-0.7,0.1-1.1,0.2-1.4,0.3s-0.5,0.3-0.6,0.5
		s-0.2,0.5-0.2,0.8c0,0.4,0.2,0.8,0.5,1.1s0.8,0.4,1.4,0.4c0.6,0,1.2-0.1,1.6-0.4s0.8-0.6,1-1.1c0.2-0.4,0.3-0.9,0.3-1.6V256.9z"/>
	<path style="fill:#F4B008;" d="M566,260.1l0.2,1.4c-0.4,0.1-0.8,0.1-1.2,0.1c-0.6,0-1-0.1-1.3-0.3s-0.5-0.4-0.7-0.7
		s-0.2-0.9-0.2-1.9v-5.4h-1.2v-1.2h1.2v-2.3l1.6-0.9v3.3h1.6v1.2h-1.6v5.5c0,0.5,0,0.7,0.1,0.9s0.1,0.2,0.3,0.3s0.3,0.1,0.5,0.1
		C565.5,260.2,565.7,260.2,566,260.1z"/>
	<path style="fill:#F4B008;" d="M567.6,250.5v-1.8h1.6v1.8H567.6z M567.6,261.5v-9.3h1.6v9.3H567.6z"/>
	<path style="fill:#F4B008;" d="M571,256.9c0-1.7,0.5-3,1.4-3.8c0.8-0.7,1.8-1,2.9-1c1.3,0,2.3,0.4,3.1,1.3s1.2,2,1.2,3.5
		c0,1.2-0.2,2.1-0.5,2.8c-0.4,0.7-0.9,1.2-1.6,1.6s-1.4,0.6-2.3,0.6c-1.3,0-2.4-0.4-3.2-1.3S571,258.4,571,256.9z M572.6,256.9
		c0,1.2,0.3,2.1,0.8,2.7c0.5,0.6,1.2,0.9,2,0.9c0.8,0,1.4-0.3,2-0.9s0.8-1.5,0.8-2.7c0-1.2-0.3-2-0.8-2.6c-0.5-0.6-1.2-0.9-2-0.9
		c-0.8,0-1.4,0.3-2,0.9S572.6,255.7,572.6,256.9z"/>
	<path style="fill:#F4B008;" d="M581.6,261.5v-9.3h1.4v1.3c0.7-1,1.7-1.5,3-1.5c0.6,0,1.1,0.1,1.6,0.3c0.5,0.2,0.8,0.5,1.1,0.8
		s0.4,0.7,0.5,1.2c0.1,0.3,0.1,0.8,0.1,1.5v5.7h-1.6v-5.7c0-0.6-0.1-1.1-0.2-1.4s-0.3-0.6-0.7-0.8c-0.3-0.2-0.7-0.3-1.1-0.3
		c-0.7,0-1.3,0.2-1.7,0.6s-0.7,1.2-0.7,2.4v5.1H581.6z"/>
</g>
</svg>
