<?xml version="1.0" encoding="utf-8"?>
<!-- Generator: Adobe Illustrator 17.1.0, SVG Export Plug-In . SVG Version: 6.00 Build 0)  -->
<!DOCTYPE svg PUBLIC "-//W3C//DTD SVG 1.1//EN" "http://www.w3.org/Graphics/SVG/1.1/DTD/svg11.dtd">
<svg version="1.1" id="Layer_1" xmlns="http://www.w3.org/2000/svg" xmlns:xlink="http://www.w3.org/1999/xlink" x="0px" y="0px"
	 viewBox="0 0 516.2 304.2" style="enable-background:new 0 0 516.2 304.2;" xml:space="preserve">
<path d="M205.8,126.7c0-1.1-0.7-2-2.3-2.8l-12.7-6.5c-0.4-0.2-0.7-0.4-1-0.5c-0.3-0.1-0.6-0.2-0.8-0.2c-0.6,0-1.1,0.2-1.5,0.7
	c-0.4,0.4-0.5,1-0.5,1.6c0,0.7,0.1,1.2,0.5,1.5c0.3,0.4,0.7,0.7,1.4,1.1l9.4,4.8l-9.4,4.8c-0.7,0.4-1.2,0.7-1.4,1.1
	c-0.4,0.4-0.5,0.9-0.5,1.5c0,0.7,0.1,1.2,0.5,1.7c0.4,0.4,0.9,0.6,1.5,0.6c0.3,0,0.6,0,0.8-0.1c0.2-0.1,0.5-0.2,0.9-0.4l13-6.5
	C205.1,128.6,205.8,127.8,205.8,126.7z"/>
<path d="M183.7,114.2c0-0.7-0.3-1.3-0.8-1.8c-0.5-0.5-1-0.6-1.7-0.6c-0.5,0-0.9,0.1-1.2,0.6c-0.3,0.3-0.6,0.8-0.9,1.6l-9.5,22.1
	c-0.4,0.8-0.5,1.3-0.5,1.8c0,0.6,0.3,1.3,0.8,1.8c0.5,0.4,1,0.6,1.7,0.6c0.5,0,0.9-0.2,1.3-0.6c0.3-0.4,0.6-0.9,0.9-1.7l9.4-22
	c0.1-0.4,0.3-0.8,0.3-1.1C183.7,114.8,183.7,114.5,183.7,114.2z"/>
<path d="M154.1,126.6l9.4-4.8c0.7-0.3,1.1-0.6,1.4-1.1c0.3-0.4,0.5-0.9,0.5-1.5c0-0.6-0.2-1.2-0.6-1.6c-0.3-0.5-0.8-0.7-1.5-0.7
	c-0.2,0-0.4,0-0.7,0.2c-0.2,0-0.5,0.2-1,0.5l-12.9,6.5c-1.4,0.7-2.1,1.6-2.1,2.7c0,1,0.7,1.9,2,2.6l13.1,6.5
	c0.3,0.2,0.7,0.3,0.9,0.4c0.3,0.1,0.5,0.1,0.8,0.1c0.7,0,1.1-0.2,1.5-0.6c0.4-0.5,0.6-1,0.6-1.7c0-0.5-0.2-1.1-0.5-1.5
	c-0.3-0.3-0.7-0.6-1.4-1L154.1,126.6z"/>
<path d="M217.6,106.5v39.4c0,6.5-4.9,11.8-11,11.8H203v15.8l-21.8-15.8h-32.7c-6,0-10.9-5.3-10.9-11.8v-39.4
	c0-6.6,4.9-11.9,10.9-11.9h58.1C212.6,94.6,217.6,99.9,217.6,106.5z"/>
<polygon points="183.7,205.8 183.7,220.2 193.6,220.2 193.6,274 312.5,274 312.5,220.2 322.4,220.2 322.4,205.8 "/>
<path d="M230.8,191.5c0,2,1.5,3.6,3.3,3.6c1.8,0,3.3-1.6,3.3-3.6c0-2-1.4-3.6-3.3-3.6C232.2,187.9,230.8,189.5,230.8,191.5z"/>
<polygon points="216.4,202.2 213.9,180.7 253.5,180.7 256,202.2 "/>
<path d="M255.9,163.9c9.4,0,17-8.3,17-18.5c0-10.2-7.6-18.6-17-18.6s-17.1,8.3-17.1,18.6C238.8,155.6,246.5,163.9,255.9,163.9z"/>
<path d="M269.6,166c0,0-5.9,4-12.5,4c-6.7,0-12.6-4-12.6-4c-6.2,0-12.5,4.4-16.2,11.2h25.6c1.4,0,2.6,1.2,2.8,2.6l2.6,22.5h30.1
	c0,0,0-3.8,0-10.8C289.4,177.1,279.5,166,269.6,166z"/>
<polygon points="292.7,191.5 292.7,202.2 325.7,202.2 325.7,223.7 315.8,223.7 315.8,252.5 368.7,252.5 368.7,202.2 378.6,202.2 
	378.6,191.5 "/>
<path d="M336.5,178c0-1.8-1.3-3.2-2.9-3.2c-1.6,0-3,1.4-3,3.2s1.4,3.3,3,3.3C335.2,181.2,336.5,179.8,336.5,178z"/>
<polygon points="351.3,168.7 349.2,187.9 314.3,187.9 316.4,168.7 "/>
<path d="M314,153.2c8.5,0,15.3-7.4,15.3-16.7s-6.9-16.7-15.3-16.7c-8.5,0-15.4,7.4-15.4,16.7S305.6,153.2,314,153.2z"/>
<path d="M292.5,187.9c-0.7-6.9-3.5-13.1-7.5-17.7c2.7-8.9,9.7-15.1,16.7-15.1c0,0,5.3,3.6,11.3,3.6s11.3-3.6,11.3-3.6
	c5.6,0,11.2,3.9,14.6,10H316c-1.4,0-2.6,1.2-2.8,2.6l-2.3,20.2H292.5z"/>
<g>
	<path style="fill:#F7F7F7;" d="M169.2,133.4l-18.6-8.1v-4.5l18.6-8.1v5.3l-13,5l13,5.2V133.4z"/>
	<path style="fill:#F7F7F7;" d="M170.9,137l6.7-28.1h3.9l-6.8,28.1H170.9z"/>
	<path style="fill:#F7F7F7;" d="M183.3,133.4v-5.3l13-5.1l-13-5.1v-5.2l18.7,8.1v4.5L183.3,133.4z"/>
</g>
<path d="M344.2,57.7c0.1,0.1,0.2,0.1,0.3,0.1s0.2,0,0.3-0.1l1.8-1.8l-1.8-1.8c-0.2-0.2-0.4-0.2-0.6,0c-0.2,0.2-0.2,0.4,0,0.6
	l1.2,1.2l-1.1,1.2C344,57.3,344,57.5,344.2,57.7z"/>
<path d="M347.1,57.3c-0.2,0-0.4,0.2-0.4,0.4s0.2,0.4,0.4,0.4h2.2c0.2,0,0.4-0.2,0.4-0.4s-0.2-0.4-0.4-0.4H347.1z"/>
<rect x="356.9" y="58.9" transform="matrix(0.2464 0.9692 -0.9692 0.2464 327.228 -302.5944)" width="2.5" height="0.4"/>
<g>
	<path d="M346.4,76.5l-1.2,0.7c-0.6,0.4-0.7,1.2-0.2,1.7c0.4,0.4,0.9,0.7,1.4,1.1c2.9,1.7,6.4,1.2,8.7-1.1c0.5-0.4,0.9-1.1-0.1-1.5
		v-0.1h-3.7c-0.7,0-1.4-0.2-1.9-0.5c-0.3,0-0.7-0.2-1-0.4C347.8,76.1,347,76.1,346.4,76.5z"/>
	<path d="M346.7,73.7c0-0.6-0.1-1.2,0.2-1.7c0.1-0.1,0-0.3,0-0.4v-4.8c-1,0.6-2.6,1.7-3.5,3.2c-1,1.7-1.1,3.6-0.7,5.4
		c0.2,0.7,1,1,1.6,0.7l1.3-0.7C346.3,75,346.7,74.4,346.7,73.7z"/>
	<path d="M376.4,63.1c-0.5-0.6-1.3-1.5-2-2.1c-0.8-0.6-2.1-1.1-3.2-1.1c-0.4,0-0.7,0-1.1,0.1l-5.6,1.4l-0.8-0.6l-1.5,0.4l1.1,4.2
		l1.5-0.4l0.5-0.9l5.4-1.4l0.8-1l0.1,0c0.5-0.1,1-0.2,1.6-0.2c0.6,0,1.4,0.1,1.9,0.5c0.5,0.4,0.8,0.7,1,1L376.4,63.1z"/>
	<path d="M385.5,38.3h-60c-6.2,0-11.6,4.9-11.6,11.5v39.4c0,6.5,5.3,12,11.6,12h3.4v15.6l22.8-15.6h33.7c6.1,0,11.5-5.6,11.5-12
		V49.8C397,43.2,391.7,38.3,385.5,38.3z M375.8,64.1l-0.2-0.2c0,0-0.4-0.5-1-1c-0.2-0.2-0.8-0.3-1.4-0.3c-0.4,0-0.9,0-1.3,0.1
		l-0.6,0.8l5.6,20.9l-4.2,1.1l-5.1-20.9l-1.8,0.5l-0.5,0.9l-2.6,0.6l-1.5-5.8l2.6-0.6l0.8,0.6l5.3-1.3c0.4-0.1,0.8-0.1,1.2-0.1
		c1.3,0,2.9,0.5,3.9,1.2c0.3,0.2-0.1,0.5,0.9,0.7V58c0-1.6-1.6-2.7-3.2-2.7h-21.4c-1.6,0-3.4,1-3.4,2.7v15.6c0,1.6,1.8,2.8,3.4,2.8
		h18.3l0.2,1h-10.6l1.4,1l-1.2,2.2l-1.7-0.9c-0.5,0.6-1.1,1.2-1.7,1.7l0.8,1.7l-2.2,1.2l-1-1.6c-0.7,0.3-1.6,0.6-2.4,0.7l0,2h-2.5
		l0-2c-0.8-0.1-1.6-0.4-2.4-0.7l-1,1.6l-2.2-1.3l0.9-1.7c-0.6-0.5-1.2-1.1-1.7-1.7l-1.7,0.9l-1.2-2.2l1.6-1
		c-0.3-0.7-0.3-1.6-0.4-2.4l-1.7,0v-2.5l1.7,0c0.1-0.8,0.2-1.6,0.5-2.4l-1.7-1l1.2-2.2l1.6,0.9c0.5-0.6,1.1-1.2,1.7-1.7l-0.9-1.7
		l2.2-1.2l0.8,1.6c0.4-0.1,0.8-0.3,0.8-0.4V58c0-2.2,2.2-3.7,4.4-3.7h21.4c2.2,0,4.2,1.5,4.2,3.7v4.2c0,0.5,0.5,0.8,0.6,0.9l0.4,0.5
		l-1,0.3v9.7c0,1.2-0.6,2.2-1.5,3l-0.2-1.1c0.4-0.5,0.7-1.2,0.7-1.8v-9.5L375.8,64.1z"/>
</g>
<g>
	<path style="fill:#F7F7F7;" d="M354.1,69.8l-4.5-1.9v-1.1l4.5-1.9v1.3l-3.1,1.2l3.1,1.2V69.8z"/>
	<path style="fill:#F7F7F7;" d="M354.5,70.6l1.6-6.7h0.9l-1.6,6.7H354.5z"/>
	<path style="fill:#F7F7F7;" d="M357.4,69.8v-1.3l3.1-1.2l-3.1-1.2v-1.2l4.5,1.9v1.1L357.4,69.8z"/>
</g>
</svg>
