<?xml version="1.0" encoding="utf-8"?>
<!-- Generator: Adobe Illustrator 17.1.0, SVG Export Plug-In . SVG Version: 6.00 Build 0)  -->
<!DOCTYPE svg PUBLIC "-//W3C//DTD SVG 1.1//EN" "http://www.w3.org/Graphics/SVG/1.1/DTD/svg11.dtd">
<svg version="1.1" id="Layer_1" xmlns="http://www.w3.org/2000/svg" xmlns:xlink="http://www.w3.org/1999/xlink" x="0px" y="0px"
	 viewBox="0 0 700 465" style="enable-background:new 0 0 700 465;" xml:space="preserve">
<path d="M224.9,76.7c0,23.7-19.2,42.9-42.9,42.9s-42.9-19.2-42.9-42.9s19.2-42.9,42.9-42.9S224.9,53,224.9,76.7"/>
<path d="M117.7,301.8v-150c0-5.9-4.8-10.7-10.7-10.7c-5.9,0-10.7,4.8-10.7,10.7v150c0,29.6,24,53.6,53.6,53.6h10.7v42.9h-32.2
	c-5.9,0-10.7,4.8-10.7,10.7c0,5.9,4.8,10.7,10.7,10.7h85.7c5.9,0,10.7-4.8,10.7-10.7c0-5.9-4.8-10.7-10.7-10.7H182v-42.9h42.9v-21.4
	h-75C132.2,333.9,117.7,319.5,117.7,301.8z"/>
<path d="M567.9,76.7c0,23.7-19.2,42.9-42.9,42.9s-42.9-19.2-42.9-42.9s19.2-42.9,42.9-42.9S567.9,53,567.9,76.7"/>
<path d="M600,141c-5.9,0-10.7,4.8-10.7,10.7v150c0,17.7-14.4,32.2-32.2,32.2h-75v21.4H525v42.9h-32.2c-5.9,0-10.7,4.8-10.7,10.7
	c0,5.9,4.8,10.7,10.7,10.7h85.7c5.9,0,10.7-4.8,10.7-10.7c0-5.9-4.8-10.7-10.7-10.7h-32.2v-42.9h10.7c29.6,0,53.6-24,53.6-53.6v-150
	C610.8,145.8,606,141,600,141z"/>
<path d="M567.9,291.1V162.6c0-0.1,0-0.1,0-0.1c0-11.8-9.6-21.4-21.4-21.4H525c-11.8,0-21.4,9.6-21.4,21.4v107.2h-42.9
	c-23.6,0-42.9,19.2-42.9,42.9v64.3c0,11.8,9.6,21.4,21.4,21.4s21.4-9.6,21.4-21.4v-64.3h85.7C558.3,312.5,567.9,302.9,567.9,291.1z"
	/>
<path d="M407.1,205.3H235.6c-5.9,0-10.7,4.8-10.7,10.7c0,5.9,4.8,10.7,10.7,10.7h10.7v192.9h150V226.7h10.7
	c5.9,0,10.7-4.8,10.7-10.7C417.8,210.1,413,205.3,407.1,205.3z"/>
<path d="M203.5,183.9v-21.4c0-11.8-9.6-21.4-21.4-21.4h-21.4c-11.8,0-21.4,9.6-21.4,21.4c0,0.1,0,0.1,0,0.1v128.5
	c0,11.8,9.6,21.4,21.4,21.4h64.3v-42.9h-21.4V183.9z"/>
</svg>
