<?xml version="1.0" encoding="utf-8"?>
<!-- Generator: Adobe Illustrator 17.1.0, SVG Export Plug-In . SVG Version: 6.00 Build 0)  -->
<!DOCTYPE svg PUBLIC "-//W3C//DTD SVG 1.1//EN" "http://www.w3.org/Graphics/SVG/1.1/DTD/svg11.dtd">
<svg version="1.1" id="Layer_1" xmlns="http://www.w3.org/2000/svg" xmlns:xlink="http://www.w3.org/1999/xlink" x="0px" y="0px"
	 viewBox="0 0 700 465" style="enable-background:new 0 0 700 465;" xml:space="preserve">
<path d="M502.9,206.3c-4.5-9.7-13-11.4-19.4-8.9c-6.9,2.7-10.5,9.7-8.4,16.3c0.5,1.6,1.2,3.5,1.9,5.6c3.7,10.8,9.8,28.8,8,37.3
	c-0.8,3.6-4,15.8-12.2,18.8c-7.4,2.7-10.3,2.3-15.6,1.4l-1.4-0.2c-1.9-0.3-3-2-2.1-9l0.3,0c0.3-4.4,1.6-8.2,3-12.2
	c1.6-4.8,3.4-9.9,3.2-16c-0.4-11.4-7.4-22.7-20-24.2c-1.2-0.1-2.4-0.2-3.7-0.2c-1.3,0-2.5,0.2-3.7,0.4c-12.6,2.2-18.8,14-18.5,25.4
	c0.2,6,2.3,10.9,4.2,15.7c1.3,3.1,2.6,6.2,3.3,9.5c0.4,3.4,0.5,9.9-3.6,10.8c-5.9,1.3-9.4,1.3-17.3-1.6c-8.2-3-11.4-15.1-12.2-18.8
	c-1.8-8.5,4.3-26.6,8-37.3c0.7-2.1,1.4-4,1.9-5.6c2.1-6.6-1.5-13.6-8.4-16.3c-6.4-2.5-14.9-0.8-19.4,8.9c-7,15-12.3,44.8-11.4,53.5
	c1.7,16.6,16.7,42.6,39.7,48.6l0.4,73.8c0,2.1,1.7,3.7,3.7,3.7h0c2.1,0,3.7-1.7,3.7-3.8l-0.4-76.8c0-1.8-1.3-3.3-3.1-3.6
	c-20.4-3.6-35-27.3-36.6-42.7c-0.7-6.8,4.1-35.2,10.7-49.6c3.3-7.1,8.4-5.7,9.9-5.1c2.8,1.1,5.1,3.9,4,7.1c-0.5,1.6-1.2,3.4-1.8,5.5
	c-4.2,12.3-10.5,30.8-8.2,41.3c1.3,5.9,5.5,20,16.9,24.2c9.7,3.6,14.6,3.4,21.5,1.9c6.2-1.4,9.5-6.8,9.5-15l0.3,0
	c-0.1-0.9-0.3-1.8-0.4-2.7c0-0.7-0.1-1.3-0.2-2c-0.1-0.6-0.3-1.1-0.6-1.6c-0.9-3.4-2.1-6.5-3.2-9.3c-1.8-4.3-3.5-8.3-3.7-13
	c-0.2-8.4,4.3-17.8,15-18.1c10.7-0.3,15.8,8.7,16.1,17.1c0.1,4.7-1.3,8.8-2.8,13.2c-1.2,3.5-2.5,7.3-3.1,11.6
	c-0.2,0.4-0.4,0.9-0.5,1.4c-0.6,4.1-2.4,16.4,8.2,18l1.4,0.2c5.8,1,10.1,1.6,19.3-1.8c11.5-4.2,15.6-18.4,16.9-24.2
	c2.3-10.5-4.1-29-8.2-41.3c-0.7-2.1-1.3-3.9-1.8-5.5c-1-3.2,1.2-6,4-7.1c1.5-0.6,6.6-1.9,9.9,5.1c6.7,14.4,11.4,42.8,10.8,49.6
	c-1.7,16.7-16.1,33.2-37.5,43c-1.3,0.6-2.2,1.9-2.2,3.4l-0.4,76.8c0,2.1,1.7,3.8,3.7,3.8c0,0,0,0,0,0c2,0,3.7-1.7,3.7-3.7l0.4-74.4
	c22.6-11,37.7-29.2,39.7-48C515.2,251.1,509.9,221.3,502.9,206.3z"/>
<path d="M216.8,164.3c0-6.4,5.2-11.7,11.7-11.7h56.7c6.4,0,11.6,5.2,11.6,11.7v33.3c0,6.4-5.2,11.7-11.6,11.7h-13.8l-14.6,14.6
	L251,218h0l-8.7-8.7h-13.8c-6.4,0-11.7-5.2-11.7-11.7L216.8,164.3L216.8,164.3z M228.5,218h10.2l18.2,18.2L275,218h10.2
	c11.2,0,20.4-9.1,20.4-20.4v-33.3c0-11.2-9.1-20.4-20.4-20.4h-56.7c-11.2,0-20.4,9.1-20.4,20.4v33.3
	C208.1,208.8,217.2,218,228.5,218z"/>
<path d="M255.5,192.7c-2.7,0-5,2.1-5,4.8c0,2.8,2.3,4.8,5,4.8c2.8,0,5.1-2.1,5.1-4.8C260.6,194.8,258.2,192.7,255.5,192.7z"/>
<path d="M257,169.8c3.1,0,5.1,2,5.1,4.9c0,3.2-2.5,5-5.7,5h-4.7l0.6,9.4h7.1l0.3-3.3c6.8-0.9,11.1-5,11.1-11.1c0-7.6-6-12.7-14-12.7
	c-8.8,0-13.6,4.9-14.1,12.3h9.1C251.9,171.6,253.9,169.8,257,169.8z"/>
<path d="M397.2,118.2c0-6.4,5.2-11.7,11.7-11.7h56.7c6.4,0,11.6,5.2,11.6,11.7v33.3c0,6.4-5.2,11.7-11.6,11.7h-13.8l-14.6,14.6
	l-5.8-5.8h0l-8.7-8.7h-13.8c-6.4,0-11.7-5.2-11.7-11.7V118.2z M408.9,171.9h10.2l18.2,18.2l18.2-18.2h10.2
	c11.2,0,20.4-9.1,20.4-20.4v-33.3c0-11.2-9.1-20.4-20.4-20.4h-56.7c-11.2,0-20.4,9.1-20.4,20.4v33.3
	C388.5,162.7,397.7,171.9,408.9,171.9z"/>
<path d="M436.9,156c2.8,0,5.1-2.1,5.1-4.8c0-2.8-2.3-4.8-5.1-4.8s-5,2.1-5,4.8C431.8,153.9,434.1,156,436.9,156z"/>
<polygon points="440.9,142.6 441.8,116.1 431.9,116.1 432.8,142.6 "/>
<path d="M216.6,342.4c-2-0.5-4,0.8-4.5,2.8l-8.5,36.1c-0.5,2,0.8,4,2.8,4.5c0.3,0.1,0.6,0.1,0.9,0.1c1.7,0,3.2-1.2,3.6-2.9l8.5-36.1
	C219.8,344.9,218.6,342.9,216.6,342.4z"/>
<path d="M347.6,266.4c-0.8,3.2-2.7,5.9-5.5,7.6c-2.8,1.7-6.1,2.2-9.2,1.5c-6.6-1.6-10.7-8.2-9.1-14.8c0.8-3.2,2.7-5.9,5.5-7.6
	c2.8-1.7,6.1-2.3,9.2-1.5c3.2,0.8,5.9,2.7,7.6,5.5C347.8,260,348.3,263.2,347.6,266.4z M340.2,244.4c-5.1-1.2-10.4-0.4-14.9,2.4
	c-4.5,2.8-7.6,7.1-8.9,12.2c-2,8.4,1.7,16.9,8.7,21.2l-3.4,14.1c-1.5,0.3-2.8,0.8-4.1,1.5c-3.5,2.1-5.7,5.8-6.9,11.3
	c-0.9,4.3-4.7,24.1-7,36.2c-3.4-5.8-7.7-13.6-10.5-20.1c-3.7-8.6-13-12.1-20.5-14.8c-1.3-0.5-2.5-0.9-3.6-1.4
	c-0.7-0.3-0.8-0.6-0.9-0.8c-0.4-1.2,0.3-3.8,1.1-5.2c0.3-0.6,0.4-1.2,0.4-1.8c1.1-2.7,2.4-5.2,3.8-7.8c2.4-4.5,5-9.2,5.9-15.2
	c1.5-11.3-3.4-23.6-15.6-27.2c-1.1-0.3-2.4-0.6-3.6-0.8c-1.3-0.2-2.5-0.2-3.7-0.2c-12.8,0.1-20.9,10.6-22.5,21.9
	c-0.8,6,0.3,11.2,1.5,16.2c1,4.5,2,8.7,1.6,13.6h0c-0.1,2.1-0.6,4.2-1.2,4.9c-10.8,0.1-25.1,2.1-31.8,10.6
	c-7,8.8-14.1,33.2-19.3,51.1c-1.9,6.7-3.6,12.4-4.5,14.3c-0.9,1.9,0,4.1,1.9,4.9c0.5,0.2,1,0.3,1.5,0.3c1.4,0,2.8-0.8,3.4-2.2
	c1-2.4,2.6-7.8,4.8-15.3c4.4-15.3,11.9-40.8,18-48.5c3.9-4.9,13.2-7.6,26.3-7.8c5.3-0.1,8.5-5.3,8.4-14c0-0.4-0.1-0.7-0.2-1.1
	c-0.1-4.7-1-8.8-1.8-12.5c-1.1-4.5-2.1-8.8-1.4-13.5c1.2-8.4,7.3-16.8,17.8-15.3c10.6,1.5,14.1,11.2,13,19.6
	c-0.6,4.6-2.8,8.5-5,12.5c-1.8,3.3-3.8,7-5.1,11.3c0,0.1-0.1,0.2-0.1,0.3c-0.9,2.2-1.9,6-0.7,9.4c0.9,2.4,2.6,4.2,5.1,5.1
	c1.2,0.5,2.5,1,3.8,1.5c6.4,2.4,13.8,5.1,16.2,10.8c5.3,12.4,15.6,28.8,16.1,29.4c0.8,1.3,2.4,2,3.9,1.7c1.5-0.3,2.7-1.5,3-3
	c0.1-0.4,7.5-39.7,8.8-45.7c0.6-2.8,1.4-4.7,2.5-5.7c0.2-0.3,0.5-0.5,0.8-0.7c1.6-0.9,4-0.9,7.2,0c0.5,0.1,1.5,0.8,1.7,3.8
	c0.1,2,0,5-1,9.6c-0.3,1.3-0.8,4-1.5,7.4c-2.6,13.3-7.4,38-9.9,46.1c-0.3,1-3.6,4.7-8.4,5.6c-4.2,0.7-8.1-1.2-11.6-5.7
	c-11.4-14.6-13.5-17.4-13.5-17.4c-0.9-1.2-2.4-1.7-3.9-1.3c-1.4,0.4-2.5,1.5-2.8,3l-4.9,28c-0.3,2.1,1,4,3,4.3c0.2,0,0.4,0,0.6,0
	c1.8,0,3.4-1.3,3.7-3.1l3.4-19.7c2,2.5,4.7,6,8.4,10.7c7.1,9.1,14.9,9.2,19,8.4c6.8-1.3,12.7-6.6,13.9-10.7
	c2.5-8.5,7.4-33.4,10.1-46.8c0.6-3.4,1.2-6.1,1.4-7.3c0.9-4.1,3.2-15.4-2.5-20.3l3.3-13.8c3-0.3,5.9-1.2,8.5-2.8
	c4.5-2.8,7.6-7.1,8.9-12.2c1.2-5.1,0.4-10.4-2.4-14.9C349.7,248.7,345.4,245.6,340.2,244.4z"/>
</svg>
