<?xml version="1.0" encoding="utf-8"?>
<!-- Generator: Adobe Illustrator 17.1.0, SVG Export Plug-In . SVG Version: 6.00 Build 0)  -->
<!DOCTYPE svg PUBLIC "-//W3C//DTD SVG 1.1//EN" "http://www.w3.org/Graphics/SVG/1.1/DTD/svg11.dtd">
<svg version="1.1" id="Layer_1" xmlns="http://www.w3.org/2000/svg" xmlns:xlink="http://www.w3.org/1999/xlink" x="0px" y="0px"
	 viewBox="0 0 506.8 295.8" style="enable-background:new 0 0 506.8 295.8;" xml:space="preserve">
<path d="M113.2,134.5H61.1l0-43.1h52.1L113.2,134.5z M70.2,75.7h3.9l1.4,2.5l1.4-2.5h3.9l-3.3,5.6l3.6,5.9h-4l-1.6-2.8l-1.7,2.8
	h-3.9l3.6-6L70.2,75.7z M82.9,75.7h3.9l1,3.9c0.1,0.5,0.2,0.9,0.3,1.3c0.1-0.4,0.2-0.9,0.3-1.3l1.1-3.9h3.8L94,87.2h-3.3l-0.2-4.5
	c0-0.1,0-0.2,0-0.3c0,0.1,0,0.1-0.1,0.2L89.2,87h-2.6l-1.1-4.2l-0.2,4.3h-3.2L82.9,75.7z M96.1,75.6h3.4v8.6h4.8v3.1l-8.2,0
	L96.1,75.6L96.1,75.6z M114.3,70.8H60c-1.5,0-2.8,1.2-2.8,2.8v62c0,1.5,1.2,2.8,2.8,2.8h54.3c1.5,0,2.8-1.2,2.8-2.8v-62
	C117,72.1,115.8,70.8,114.3,70.8z"/>
<path d="M77.9,113.9c0.1,2.3,0.4,4.6,0.9,6.7c-1.2,0.7-2.3,1.5-3.4,2.4c-2.2-2.5-3.5-5.7-3.7-9.1L77.9,113.9L77.9,113.9z
	 M75.4,102.8c1,0.9,2.2,1.7,3.4,2.4c-0.5,2.1-0.8,4.3-0.9,6.7h-6.2C71.9,108.6,73.2,105.4,75.4,102.8z M81.9,98.4
	c-0.6,0.7-1.1,1.5-1.5,2.4c-0.4,0.7-0.7,1.6-1,2.4c-0.9-0.5-1.8-1.1-2.5-1.8C78.3,100.1,80,99,81.9,98.4z M86.1,97.6v7.7
	c-1.7-0.1-3.3-0.5-4.9-1.1C82.4,100.6,84.2,98.2,86.1,97.6z M86.1,111.9h-6.2c0.1-2,0.3-4,0.8-5.8c1.7,0.7,3.6,1.1,5.4,1.2V111.9z
	 M86.1,118.5c-1.9,0.1-3.7,0.5-5.4,1.2c-0.4-1.8-0.7-3.8-0.8-5.8h6.2V118.5z M86.1,128.2c-1.9-0.6-3.7-3-4.9-6.5
	c1.5-0.6,3.2-1,4.9-1.1V128.2z M76.8,124.5c0.8-0.7,1.6-1.3,2.5-1.8c0.3,0.9,0.6,1.7,1,2.4c0.5,0.9,1,1.7,1.5,2.4
	C80,126.8,78.3,125.8,76.8,124.5z M88.1,120.6c1.7,0.1,3.3,0.5,4.9,1.1c-1.2,3.5-3,5.9-4.9,6.5V120.6z M88.1,113.9h6.2
	c-0.1,2-0.3,4-0.8,5.8c-1.7-0.7-3.6-1.1-5.4-1.2V113.9z M88.1,107.3c1.9-0.1,3.7-0.5,5.4-1.2c0.4,1.8,0.7,3.8,0.8,5.8h-6.2V107.3z
	 M88.1,97.6c1.9,0.6,3.7,3,4.9,6.5c-1.5,0.6-3.2,1-4.9,1.1V97.6z M97.4,101.4c-0.8,0.7-1.6,1.3-2.5,1.8c-0.3-0.9-0.6-1.7-1-2.4
	c-0.5-0.9-1-1.7-1.5-2.4C94.2,99,95.9,100.1,97.4,101.4z M102.6,111.9h-6.2c-0.1-2.3-0.4-4.6-0.9-6.7c1.2-0.7,2.3-1.5,3.4-2.4
	C101,105.4,102.3,108.6,102.6,111.9z M98.9,123c-1-0.9-2.2-1.7-3.4-2.4c0.5-2.1,0.8-4.3,0.9-6.7h6.2C102.3,117.3,101,120.5,98.9,123
	z M92.3,127.5c0.5-0.7,1.1-1.5,1.5-2.4c0.4-0.7,0.7-1.6,1-2.4c0.9,0.5,1.8,1.1,2.5,1.8C95.9,125.8,94.2,126.8,92.3,127.5z
	 M87.1,130.5c4.7,0,9.1-1.8,12.4-5.1c3.3-3.3,5.1-7.7,5.1-12.4c0-4.7-1.8-9.1-5.1-12.4c-3.3-3.3-7.7-5.1-12.4-5.1s-9.1,1.8-12.4,5.1
	c-3.3,3.3-5.1,7.7-5.1,12.4s1.8,9.1,5.1,12.4C78,128.6,82.4,130.5,87.1,130.5z"/>
<g>
	<path d="M274.1,79.3l0.6,0.6l-2.1,2.1l-0.6-0.6L274.1,79.3z M272.6,57l2.1,2.1l-0.6,0.6l-2.1-2.1L272.6,57z M276.3,60.7l2.1,2.1
		l-0.6,0.6l-2.1-2.1L276.3,60.7z M276.3,78.3l-0.6-0.6l2.1-2.1l0.6,0.6L276.3,78.3z M280,64.4l2.1,2.1l-0.6,0.6l-2.1-2.1L280,64.4z
		 M280,74.6l-0.6-0.6l2.1-2.1l0.6,0.6L280,74.6z M283.8,68.1l0.7,0.7l0.7-0.7l0.6,0.6l-0.7,0.7l0.7,0.7l-0.6,0.6l-0.7-0.7l-0.7,0.7
		l-0.6-0.6l0.7-0.7l-0.7-0.7L283.8,68.1z M287.5,71.8l2.1,2.1l-0.6,0.6l-2.1-2.1L287.5,71.8z M289,64.4l0.6,0.6l-2.1,2.1l-0.6-0.6
		L289,64.4z M291.2,75.5l2.1,2.1l-0.6,0.6l-2.1-2.1L291.2,75.5z M292.7,60.7l0.6,0.6l-2.1,2.1l-0.6-0.6L292.7,60.7z M294.9,79.3
		l2.1,2.1l-0.6,0.6l-2.1-2.1L294.9,79.3z M296.4,57l0.6,0.6l-2.1,2.1l-0.6-0.6L296.4,57z M298.1,83.5l0.5-0.5V55.9l-0.5-0.5h-27.1
		l-0.5,0.5v27.1l0.5,0.5L298.1,83.5L298.1,83.5z"/>
	<path d="M300.2,85.2h-31.4V53.8h31.4V85.2z M284.5,39.5c-16.6,0-30,13.4-30,30s13.4,30,30,30c16.6,0,30-13.4,30-30
		S301.1,39.5,284.5,39.5z"/>
	<path d="M385.2,88h-31.4V56.6h31.4V88z M339.5,42.3v60h60v-60H339.5z"/>
	<path d="M359.1,82.3l0.6,0.6l-2.1,2.1l-0.6-0.6L359.1,82.3z M357.6,60l2.1,2.1l-0.6,0.6l-2.1-2.1L357.6,60z M361.3,63.7l2.1,2.1
		l-0.6,0.6l-2.1-2.1L361.3,63.7z M361.3,81.3l-0.6-0.6l2.1-2.1l0.6,0.6L361.3,81.3z M365,67.4l2.1,2.1l-0.6,0.6l-2.1-2.1L365,67.4z
		 M365,77.6l-0.6-0.6l2.1-2.1l0.6,0.6L365,77.6z M368.8,71.1l0.7,0.7l0.7-0.7l0.6,0.6l-0.7,0.7l0.7,0.7l-0.6,0.6l-0.7-0.7l-0.7,0.7
		l-0.6-0.6l0.7-0.7l-0.7-0.7L368.8,71.1z M372.5,74.8l2.1,2.1l-0.6,0.6l-2.1-2.1L372.5,74.8z M374,67.4l0.6,0.6l-2.1,2.1l-0.6-0.6
		L374,67.4z M376.2,78.5l2.1,2.1l-0.6,0.6l-2.1-2.1L376.2,78.5z M377.7,63.7l0.6,0.6l-2.1,2.1l-0.6-0.6L377.7,63.7z M379.9,82.3
		l2.1,2.1l-0.6,0.6l-2.1-2.1L379.9,82.3z M381.4,60l0.6,0.6l-2.1,2.1l-0.6-0.6L381.4,60z M383.1,86.5l0.5-0.5V58.9l-0.5-0.5h-27.1
		l-0.5,0.5v27.1l0.5,0.5L383.1,86.5L383.1,86.5z"/>
	<path d="M303.1,169.2h-31.4v-31.4h31.4V169.2z M287.5,123.5c-16.6,0-30,13.4-30,30s13.4,30,30,30s30-13.4,30-30
		S304,123.5,287.5,123.5z"/>
	<path d="M296.8,149h-3v-0.9h3V149z M296.8,158.9h-3V158h3V158.9z M291.6,149h-3v-0.9h3V149z M291.6,158.9h-3V158h3V158.9z
		 M286.3,149h-3v-0.9h3V149z M286.3,158.9h-3V158h3V158.9z M281.1,149h-3v-0.9h3V149z M281.1,158.9h-3V158h3V158.9z M301.5,158.9
		h-2.4V158h2.4v-9h-2.4v-0.9h2.4v-8.6h-28.1v8.6h2.4v0.9h-2.4v9h2.4v0.9h-2.4v8.6h28.1C301.5,167.5,301.5,158.9,301.5,158.9z"/>
	<path d="M380.9,153.9h-3v-0.9h3V153.9z M375.6,153.9h-3v-0.9h3V153.9z M370.4,153.9h-3v-0.9h3V153.9z M365.1,153.9h-3v-0.9h3V153.9
		z M385.5,153.9h-2.4v-0.9h2.4v-13.6h-28.1v13.6h2.4v0.9h-2.4v13.6h28.1C385.5,167.5,385.5,153.9,385.5,153.9z"/>
	<path d="M387.2,169.2h-31.4v-31.4h31.4V169.2z M341.5,123.5v60h60v-60H341.5z"/>
	<path d="M473.7,168.1h-31.4v-31.4h31.4V168.1z M458,122.4c-16.6,0-30,13.4-30,30s13.4,30,30,30c16.6,0,30-13.4,30-30
		S474.6,122.4,458,122.4z"/>
	<path d="M457.6,158.8h0.9v3h-0.9V158.8z M457.6,153.5h0.9v3h-0.9V153.5z M457.6,148.3h0.9v3h-0.9V148.3z M457.6,143h0.9v3h-0.9V143
		z M457.6,164h0.9v2.4h13.6v-28.1h-13.6v2.4h-0.9v-2.4H444v28.1h13.6V164z"/>
	<path d="M472.3,59.5l-1.1-1.1l1.1-1.1l1.1,1.1L472.3,59.5z M458.5,85.8c-2.8,0-5.4-0.8-7.6-2.4l1.1-1.1c1.9,1.2,4.2,1.9,6.5,1.9
		c6.6,0,12-5.4,12-12c0-2.3-0.7-4.6-1.9-6.5l1.1-1.1c1.5,2.3,2.4,4.9,2.4,7.6C472.1,79.7,466,85.8,458.5,85.8z M449.7,79.9l2.2-2.2
		l1.1,1.1l-2.2,2.2L449.7,79.9z M447.2,84.6l-1.1-1.1l2.2-2.2l1.1,1.1L447.2,84.6z M448.6,87.3h-5.3v-5.3h1.6v3l0.7,0.7h3
		C448.6,85.8,448.6,87.3,448.6,87.3z M456.6,75.2l-2.2,2.2l-1.1-1.1l2.2-2.2L456.6,75.2z M460.2,71.6l-2.2,2.2l-1.1-1.1l2.2-2.2
		L460.2,71.6z M463.8,68l-2.2,2.2l-1.1-1.1l2.2-2.2L463.8,68z M458.5,58.6c2.8,0,5.4,0.8,7.6,2.4l-1.1,1.1c-1.9-1.2-4.2-1.9-6.5-1.9
		c-6.6,0-12,5.4-12,12c0,2.3,0.7,4.6,1.9,6.5l-1.1,1.1c-1.5-2.3-2.4-4.9-2.4-7.6C444.9,64.7,451,58.6,458.5,58.6z M467.4,64.5
		l-2.2,2.2l-1.1-1.1l2.2-2.2L467.4,64.5z M469.8,59.7l1.1,1.1l-2.2,2.2l-1.1-1.1L469.8,59.7z M428.4,42.3v60h60v-60H428.4z"/>
</g>
<line style="fill:none;stroke:#000000;stroke-miterlimit:10;" x1="212.3" y1="9" x2="212.3" y2="284"/>
<g>
	<path d="M24.6,233.2l1.6-0.1c0.1,0.6,0.3,1.2,0.5,1.6c0.3,0.4,0.7,0.7,1.3,1c0.6,0.3,1.2,0.4,2,0.4c0.7,0,1.2-0.1,1.7-0.3
		s0.9-0.5,1.1-0.8s0.4-0.7,0.4-1.1c0-0.4-0.1-0.8-0.4-1.1s-0.6-0.6-1.2-0.8c-0.3-0.1-1.1-0.3-2.3-0.6s-2-0.6-2.5-0.8
		c-0.6-0.3-1.1-0.7-1.4-1.2s-0.5-1-0.5-1.6c0-0.7,0.2-1.3,0.6-1.8s0.9-1,1.6-1.3s1.5-0.4,2.4-0.4c1,0,1.8,0.2,2.5,0.5
		c0.7,0.3,1.3,0.8,1.7,1.4s0.6,1.3,0.6,2l-1.6,0.1c-0.1-0.8-0.4-1.4-0.9-1.8s-1.3-0.6-2.2-0.6c-1,0-1.8,0.2-2.3,0.6
		c-0.5,0.4-0.7,0.8-0.7,1.4c0,0.5,0.2,0.8,0.5,1.1c0.3,0.3,1.2,0.6,2.6,0.9c1.4,0.3,2.3,0.6,2.9,0.8c0.8,0.3,1.3,0.8,1.7,1.3
		s0.5,1.1,0.5,1.8c0,0.7-0.2,1.3-0.6,1.9c-0.4,0.6-1,1.1-1.7,1.4c-0.7,0.3-1.6,0.5-2.5,0.5c-1.2,0-2.1-0.2-2.9-0.5s-1.4-0.9-1.9-1.5
		C24.9,234.8,24.7,234.1,24.6,233.2z"/>
	<path d="M36.7,231.1c0-2.1,0.6-3.8,1.7-5c1.1-1.2,2.6-1.8,4.4-1.8c1.2,0,2.3,0.3,3.2,0.9s1.7,1.4,2.2,2.4s0.8,2.2,0.8,3.5
		c0,1.3-0.3,2.5-0.8,3.5s-1.3,1.8-2.2,2.3c-1,0.5-2,0.8-3.1,0.8c-1.2,0-2.3-0.3-3.3-0.9s-1.7-1.4-2.2-2.4S36.7,232.2,36.7,231.1z
		 M38.5,231.1c0,1.6,0.4,2.8,1.3,3.7c0.8,0.9,1.9,1.3,3.1,1.3c1.3,0,2.3-0.5,3.2-1.4s1.2-2.2,1.2-3.8c0-1-0.2-2-0.5-2.7
		c-0.4-0.8-0.9-1.4-1.6-1.8c-0.7-0.4-1.4-0.6-2.3-0.6c-1.2,0-2.2,0.4-3.1,1.2C38.9,227.8,38.5,229.1,38.5,231.1z"/>
	<path d="M49.8,237.3l4.9-12.9h1.8l5.3,12.9h-1.9l-1.5-3.9H53l-1.4,3.9H49.8z M53.5,232h4.4l-1.3-3.6c-0.4-1.1-0.7-2-0.9-2.7
		c-0.2,0.8-0.4,1.6-0.7,2.5L53.5,232z"/>
	<path d="M63.2,237.3v-12.9h4.9c0.9,0,1.5,0,2,0.1c0.6,0.1,1.2,0.3,1.6,0.6c0.4,0.3,0.8,0.7,1,1.2s0.4,1.1,0.4,1.8
		c0,1.1-0.3,2-1,2.8c-0.7,0.8-2,1.1-3.8,1.1h-3.3v5.2H63.2z M64.9,230.6h3.3c1.1,0,1.9-0.2,2.3-0.6s0.7-1,0.7-1.7
		c0-0.5-0.1-1-0.4-1.4c-0.3-0.4-0.6-0.6-1.1-0.8c-0.3-0.1-0.8-0.1-1.6-0.1h-3.3V230.6z"/>
	<path d="M81.4,237.3l-2.9-9.3h1.6l1.5,5.4l0.6,2c0-0.1,0.2-0.7,0.5-1.9l1.5-5.5h1.6l1.4,5.4l0.5,1.8l0.5-1.8l1.6-5.4h1.5l-2.9,9.3
		h-1.6l-1.5-5.6l-0.4-1.6l-1.9,7.2H81.4z"/>
	<path d="M98.8,236.2c-0.6,0.5-1.1,0.8-1.7,1.1s-1.1,0.3-1.7,0.3c-1,0-1.8-0.2-2.4-0.8c-0.6-0.5-0.8-1.1-0.8-1.9
		c0-0.5,0.1-0.9,0.3-1.3c0.2-0.4,0.5-0.7,0.8-0.9s0.7-0.4,1.1-0.5c0.3-0.1,0.8-0.2,1.4-0.2c1.3-0.2,2.2-0.3,2.8-0.5
		c0-0.2,0-0.4,0-0.4c0-0.6-0.1-1.1-0.4-1.4c-0.4-0.4-1-0.5-1.8-0.5c-0.7,0-1.3,0.1-1.6,0.4s-0.6,0.7-0.8,1.4l-1.5-0.2
		c0.1-0.7,0.4-1.2,0.7-1.6c0.3-0.4,0.8-0.7,1.4-0.9c0.6-0.2,1.3-0.3,2.1-0.3c0.8,0,1.4,0.1,1.9,0.3s0.9,0.4,1.1,0.7
		c0.2,0.3,0.4,0.6,0.5,1.1c0.1,0.3,0.1,0.8,0.1,1.5v2.1c0,1.5,0,2.4,0.1,2.8c0.1,0.4,0.2,0.8,0.4,1.1h-1.7
		C98.9,237,98.8,236.6,98.8,236.2z M98.7,232.6c-0.6,0.2-1.4,0.4-2.6,0.6c-0.7,0.1-1.1,0.2-1.4,0.3s-0.5,0.3-0.6,0.5
		s-0.2,0.5-0.2,0.8c0,0.4,0.2,0.8,0.5,1.1s0.8,0.4,1.4,0.4c0.6,0,1.2-0.1,1.6-0.4s0.8-0.6,1-1.1c0.2-0.4,0.3-0.9,0.3-1.6V232.6z"/>
	<path d="M102.1,234.5l1.6-0.2c0.1,0.6,0.3,1.1,0.7,1.4s1,0.5,1.7,0.5c0.7,0,1.3-0.1,1.6-0.4s0.5-0.6,0.5-1c0-0.4-0.2-0.6-0.5-0.8
		c-0.2-0.1-0.8-0.3-1.6-0.5c-1.2-0.3-2-0.5-2.4-0.8s-0.8-0.5-1-0.9c-0.2-0.4-0.3-0.8-0.3-1.3c0-0.4,0.1-0.8,0.3-1.2
		c0.2-0.4,0.4-0.6,0.8-0.9c0.2-0.2,0.6-0.3,1-0.5s0.9-0.2,1.4-0.2c0.7,0,1.4,0.1,1.9,0.3s1,0.5,1.2,0.9c0.3,0.4,0.4,0.8,0.5,1.4
		l-1.5,0.2c-0.1-0.5-0.3-0.9-0.6-1.1s-0.8-0.4-1.4-0.4c-0.7,0-1.2,0.1-1.6,0.4s-0.5,0.5-0.5,0.8c0,0.2,0.1,0.4,0.2,0.6
		c0.1,0.2,0.3,0.3,0.6,0.4c0.2,0.1,0.6,0.2,1.4,0.4c1.1,0.3,1.9,0.5,2.3,0.7s0.8,0.5,1,0.8s0.4,0.8,0.4,1.4c0,0.5-0.2,1-0.5,1.5
		c-0.3,0.5-0.8,0.8-1.3,1.1c-0.6,0.3-1.2,0.4-2,0.4c-1.2,0-2.1-0.3-2.8-0.8S102.3,235.5,102.1,234.5z"/>
	<path d="M122.8,236.2c-0.6,0.5-1.1,0.8-1.7,1.1s-1.1,0.3-1.7,0.3c-1,0-1.8-0.2-2.4-0.8c-0.6-0.5-0.8-1.1-0.8-1.9
		c0-0.5,0.1-0.9,0.3-1.3c0.2-0.4,0.5-0.7,0.8-0.9s0.7-0.4,1.1-0.5c0.3-0.1,0.8-0.2,1.4-0.2c1.3-0.2,2.2-0.3,2.8-0.5
		c0-0.2,0-0.4,0-0.4c0-0.6-0.1-1.1-0.4-1.4c-0.4-0.4-1-0.5-1.8-0.5c-0.7,0-1.3,0.1-1.6,0.4s-0.6,0.7-0.8,1.4l-1.5-0.2
		c0.1-0.7,0.4-1.2,0.7-1.6c0.3-0.4,0.8-0.7,1.4-0.9c0.6-0.2,1.3-0.3,2.1-0.3c0.8,0,1.4,0.1,1.9,0.3s0.9,0.4,1.1,0.7
		c0.2,0.3,0.4,0.6,0.5,1.1c0.1,0.3,0.1,0.8,0.1,1.5v2.1c0,1.5,0,2.4,0.1,2.8c0.1,0.4,0.2,0.8,0.4,1.1h-1.7
		C123,237,122.9,236.6,122.8,236.2z M122.7,232.6c-0.6,0.2-1.4,0.4-2.6,0.6c-0.7,0.1-1.1,0.2-1.4,0.3s-0.5,0.3-0.6,0.5
		s-0.2,0.5-0.2,0.8c0,0.4,0.2,0.8,0.5,1.1s0.8,0.4,1.4,0.4c0.6,0,1.2-0.1,1.6-0.4s0.8-0.6,1-1.1c0.2-0.4,0.3-0.9,0.3-1.6V232.6z"/>
	<path d="M132.1,237.3v-8.1h-1.4V228h1.4v-1c0-0.6,0.1-1.1,0.2-1.4c0.2-0.4,0.4-0.7,0.8-1c0.4-0.3,0.9-0.4,1.6-0.4
		c0.4,0,0.9,0.1,1.5,0.2l-0.2,1.4c-0.3-0.1-0.6-0.1-0.9-0.1c-0.5,0-0.8,0.1-1,0.3s-0.3,0.6-0.3,1.2v0.9h1.8v1.2h-1.8v8.1H132.1z"/>
	<path d="M136.7,226.3v-1.8h1.6v1.8H136.7z M136.7,237.3V228h1.6v9.3H136.7z"/>
	<path d="M139.7,237.3l3.4-4.9l-3.2-4.5h2l1.4,2.2c0.3,0.4,0.5,0.8,0.7,1c0.3-0.4,0.5-0.7,0.7-1l1.6-2.2h1.9l-3.2,4.4l3.5,4.9h-1.9
		l-1.9-2.9l-0.5-0.8l-2.5,3.7H139.7z"/>
	<path d="M156.1,234.3l1.6,0.2c-0.3,1-0.7,1.7-1.4,2.2s-1.6,0.8-2.7,0.8c-1.4,0-2.4-0.4-3.2-1.3c-0.8-0.8-1.2-2-1.2-3.5
		c0-1.6,0.4-2.8,1.2-3.7s1.9-1.3,3.1-1.3c1.2,0,2.3,0.4,3.1,1.3s1.2,2,1.2,3.6c0,0.1,0,0.2,0,0.4h-7c0.1,1,0.3,1.8,0.9,2.4
		s1.2,0.8,2,0.8c0.6,0,1.1-0.2,1.5-0.5S155.9,235,156.1,234.3z M150.9,231.8h5.2c-0.1-0.8-0.3-1.4-0.6-1.8c-0.5-0.6-1.2-0.9-2-0.9
		c-0.7,0-1.3,0.2-1.8,0.7S151,231,150.9,231.8z"/>
	<path d="M165.8,237.3v-1.2c-0.6,0.9-1.5,1.4-2.6,1.4c-0.7,0-1.4-0.2-2.1-0.6s-1.1-1-1.5-1.7c-0.3-0.7-0.5-1.6-0.5-2.5
		c0-0.9,0.2-1.8,0.5-2.5s0.8-1.3,1.4-1.7s1.3-0.6,2.1-0.6c0.6,0,1.1,0.1,1.5,0.4c0.4,0.2,0.8,0.5,1.1,0.9v-4.6h1.6v12.9H165.8z
		 M160.8,232.7c0,1.2,0.3,2.1,0.8,2.7s1.1,0.9,1.8,0.9c0.7,0,1.3-0.3,1.8-0.8s0.7-1.4,0.7-2.6c0-1.3-0.2-2.2-0.7-2.8
		s-1.1-0.9-1.8-0.9c-0.7,0-1.3,0.3-1.8,0.9S160.8,231.4,160.8,232.7z"/>
	<path d="M23.9,258.9l5-6.7l-4.4-6.2h2l2.3,3.3c0.5,0.7,0.8,1.2,1,1.6c0.3-0.5,0.6-1,1-1.5l2.6-3.4h1.9l-4.5,6.1l4.9,6.8h-2.1
		l-3.2-4.6c-0.2-0.3-0.4-0.6-0.6-0.9c-0.3,0.5-0.5,0.8-0.6,1l-3.2,4.5H23.9z"/>
	<path d="M37.2,258.9V246h2.6l3,9.1c0.3,0.8,0.5,1.5,0.6,1.9c0.1-0.5,0.4-1.2,0.7-2.1l3.1-9h2.3v12.9h-1.6v-10.8l-3.7,10.8h-1.5
		l-3.7-11v11H37.2z"/>
	<path d="M52.1,258.9V246h1.7v11.4h6.3v1.5H52.1z"/>
	<path d="M66.4,262.5v-12.9h1.4v1.2c0.3-0.5,0.7-0.8,1.2-1.1c0.4-0.2,0.9-0.4,1.6-0.4c0.8,0,1.5,0.2,2.1,0.6s1.1,1,1.4,1.7
		c0.3,0.7,0.5,1.6,0.5,2.5c0,1-0.2,1.8-0.5,2.6c-0.3,0.8-0.8,1.4-1.5,1.8c-0.7,0.4-1.3,0.6-2.1,0.6c-0.5,0-1-0.1-1.4-0.3
		s-0.8-0.5-1-0.8v4.5H66.4z M67.8,254.3c0,1.2,0.2,2.1,0.7,2.7s1.1,0.9,1.8,0.9c0.7,0,1.3-0.3,1.8-0.9c0.5-0.6,0.8-1.5,0.8-2.8
		c0-1.2-0.2-2.1-0.7-2.7s-1.1-0.9-1.8-0.9c-0.7,0-1.3,0.3-1.8,0.9C68,252.2,67.8,253.1,67.8,254.3z"/>
	<path d="M76.3,258.9v-9.3h1.4v1.4c0.4-0.7,0.7-1.1,1-1.3s0.6-0.3,1-0.3c0.5,0,1.1,0.2,1.6,0.5l-0.5,1.5c-0.4-0.2-0.8-0.3-1.2-0.3
		c-0.3,0-0.7,0.1-0.9,0.3s-0.5,0.5-0.6,0.9c-0.2,0.6-0.3,1.2-0.3,1.8v4.9H76.3z"/>
	<path d="M81.8,254.3c0-1.7,0.5-3,1.4-3.8c0.8-0.7,1.8-1,2.9-1c1.3,0,2.3,0.4,3.1,1.3s1.2,2,1.2,3.5c0,1.2-0.2,2.1-0.5,2.8
		c-0.4,0.7-0.9,1.2-1.6,1.6s-1.4,0.6-2.3,0.6c-1.3,0-2.4-0.4-3.2-1.3S81.8,255.8,81.8,254.3z M83.4,254.3c0,1.2,0.3,2.1,0.8,2.7
		c0.5,0.6,1.2,0.9,2,0.9c0.8,0,1.4-0.3,2-0.9s0.8-1.5,0.8-2.7c0-1.2-0.3-2-0.8-2.6c-0.5-0.6-1.2-0.9-2-0.9c-0.8,0-1.4,0.3-2,0.9
		S83.4,253.1,83.4,254.3z"/>
	<path d="M95.8,257.5l0.2,1.4c-0.4,0.1-0.8,0.1-1.2,0.1c-0.6,0-1-0.1-1.3-0.3s-0.5-0.4-0.7-0.7s-0.2-0.9-0.2-1.9v-5.4h-1.2v-1.2h1.2
		v-2.3l1.6-0.9v3.3h1.6v1.2h-1.6v5.5c0,0.5,0,0.7,0.1,0.9s0.1,0.2,0.3,0.3s0.3,0.1,0.5,0.1C95.3,257.6,95.5,257.6,95.8,257.5z"/>
	<path d="M96.8,254.3c0-1.7,0.5-3,1.4-3.8c0.8-0.7,1.8-1,2.9-1c1.3,0,2.3,0.4,3.1,1.3s1.2,2,1.2,3.5c0,1.2-0.2,2.1-0.5,2.8
		c-0.4,0.7-0.9,1.2-1.6,1.6s-1.4,0.6-2.3,0.6c-1.3,0-2.4-0.4-3.2-1.3S96.8,255.8,96.8,254.3z M98.4,254.3c0,1.2,0.3,2.1,0.8,2.7
		c0.5,0.6,1.2,0.9,2,0.9c0.8,0,1.4-0.3,2-0.9s0.8-1.5,0.8-2.7c0-1.2-0.3-2-0.8-2.6c-0.5-0.6-1.2-0.9-2-0.9c-0.8,0-1.4,0.3-2,0.9
		S98.4,253.1,98.4,254.3z"/>
	<path d="M113.5,255.5l1.6,0.2c-0.2,1.1-0.6,1.9-1.3,2.5c-0.7,0.6-1.6,0.9-2.6,0.9c-1.3,0-2.3-0.4-3.1-1.3c-0.8-0.8-1.2-2-1.2-3.6
		c0-1,0.2-1.9,0.5-2.6s0.8-1.3,1.5-1.7c0.7-0.4,1.4-0.6,2.2-0.6c1,0,1.8,0.3,2.5,0.8s1.1,1.2,1.2,2.2l-1.5,0.2
		c-0.1-0.6-0.4-1.1-0.8-1.4s-0.8-0.5-1.3-0.5c-0.8,0-1.4,0.3-1.9,0.9c-0.5,0.6-0.7,1.5-0.7,2.7c0,1.3,0.2,2.2,0.7,2.7
		s1.1,0.9,1.9,0.9c0.6,0,1.1-0.2,1.6-0.6S113.4,256.3,113.5,255.5z"/>
	<path d="M115.8,254.3c0-1.7,0.5-3,1.4-3.8c0.8-0.7,1.8-1,2.9-1c1.3,0,2.3,0.4,3.1,1.3s1.2,2,1.2,3.5c0,1.2-0.2,2.1-0.5,2.8
		c-0.4,0.7-0.9,1.2-1.6,1.6s-1.4,0.6-2.3,0.6c-1.3,0-2.4-0.4-3.2-1.3S115.8,255.8,115.8,254.3z M117.4,254.3c0,1.2,0.3,2.1,0.8,2.7
		c0.5,0.6,1.2,0.9,2,0.9c0.8,0,1.4-0.3,2-0.9s0.8-1.5,0.8-2.7c0-1.2-0.3-2-0.8-2.6c-0.5-0.6-1.2-0.9-2-0.9c-0.8,0-1.4,0.3-2,0.9
		S117.4,253.1,117.4,254.3z"/>
	<path d="M126.4,258.9V246h1.6v12.9H126.4z"/>
</g>
<g>
	<path d="M274.9,237.3v-12.9h5.7c1.1,0,2,0.1,2.6,0.3s1.1,0.6,1.4,1.2s0.5,1.2,0.5,1.9c0,0.9-0.3,1.7-0.9,2.3s-1.5,1-2.7,1.2
		c0.5,0.2,0.8,0.4,1,0.6c0.5,0.5,1,1,1.4,1.7l2.2,3.5h-2.1l-1.7-2.7c-0.5-0.8-0.9-1.4-1.2-1.8s-0.6-0.7-0.9-0.9s-0.5-0.3-0.8-0.3
		c-0.2,0-0.5-0.1-0.9-0.1h-2v5.7H274.9z M276.6,230.1h3.7c0.8,0,1.4-0.1,1.8-0.2s0.8-0.4,1-0.8s0.3-0.7,0.3-1.2
		c0-0.6-0.2-1.1-0.7-1.5s-1.1-0.6-2.1-0.6h-4.1V230.1z"/>
	<path d="M287.9,237.3v-12.9h9.3v1.5h-7.6v3.9h7.1v1.5h-7.1v4.4h7.9v1.5H287.9z"/>
	<path d="M299.3,233.2l1.6-0.1c0.1,0.6,0.3,1.2,0.5,1.6c0.3,0.4,0.7,0.7,1.3,1c0.6,0.3,1.2,0.4,2,0.4c0.7,0,1.2-0.1,1.7-0.3
		s0.9-0.5,1.1-0.8s0.4-0.7,0.4-1.1c0-0.4-0.1-0.8-0.4-1.1s-0.6-0.6-1.2-0.8c-0.3-0.1-1.1-0.3-2.3-0.6s-2-0.6-2.5-0.8
		c-0.6-0.3-1.1-0.7-1.4-1.2s-0.5-1-0.5-1.6c0-0.7,0.2-1.3,0.6-1.8s0.9-1,1.6-1.3s1.5-0.4,2.4-0.4c1,0,1.8,0.2,2.5,0.5
		c0.7,0.3,1.3,0.8,1.7,1.4s0.6,1.3,0.6,2l-1.6,0.1c-0.1-0.8-0.4-1.4-0.9-1.8s-1.3-0.6-2.2-0.6c-1,0-1.8,0.2-2.3,0.6
		c-0.5,0.4-0.7,0.8-0.7,1.4c0,0.5,0.2,0.8,0.5,1.1c0.3,0.3,1.2,0.6,2.6,0.9c1.4,0.3,2.3,0.6,2.9,0.8c0.8,0.3,1.3,0.8,1.7,1.3
		s0.5,1.1,0.5,1.8c0,0.7-0.2,1.3-0.6,1.9c-0.4,0.6-1,1.1-1.7,1.4c-0.7,0.3-1.6,0.5-2.5,0.5c-1.2,0-2.1-0.2-2.9-0.5s-1.4-0.9-1.9-1.5
		C299.5,234.8,299.3,234.1,299.3,233.2z"/>
	<path d="M315.1,237.3V226h-4.2v-1.5h10.2v1.5h-4.3v11.4H315.1z"/>
	<path d="M327.3,226.3v-1.8h1.6v1.8H327.3z M327.3,237.3V228h1.6v9.3H327.3z"/>
	<path d="M330.7,234.5l1.6-0.2c0.1,0.6,0.3,1.1,0.7,1.4s1,0.5,1.7,0.5c0.7,0,1.3-0.1,1.6-0.4s0.5-0.6,0.5-1c0-0.4-0.2-0.6-0.5-0.8
		c-0.2-0.1-0.8-0.3-1.6-0.5c-1.2-0.3-2-0.5-2.4-0.8s-0.8-0.5-1-0.9c-0.2-0.4-0.3-0.8-0.3-1.3c0-0.4,0.1-0.8,0.3-1.2
		c0.2-0.4,0.4-0.6,0.8-0.9c0.2-0.2,0.6-0.3,1-0.5s0.9-0.2,1.4-0.2c0.7,0,1.4,0.1,1.9,0.3s1,0.5,1.2,0.9c0.3,0.4,0.4,0.8,0.5,1.4
		l-1.5,0.2c-0.1-0.5-0.3-0.9-0.6-1.1s-0.8-0.4-1.4-0.4c-0.7,0-1.2,0.1-1.6,0.4s-0.5,0.5-0.5,0.8c0,0.2,0.1,0.4,0.2,0.6
		c0.1,0.2,0.3,0.3,0.6,0.4c0.2,0.1,0.6,0.2,1.4,0.4c1.1,0.3,1.9,0.5,2.3,0.7s0.8,0.5,1,0.8s0.4,0.8,0.4,1.4c0,0.5-0.2,1-0.5,1.5
		c-0.3,0.5-0.8,0.8-1.3,1.1c-0.6,0.3-1.2,0.4-2,0.4c-1.2,0-2.1-0.3-2.8-0.8S330.9,235.5,330.7,234.5z"/>
	<path d="M351.4,236.2c-0.6,0.5-1.1,0.8-1.7,1.1s-1.1,0.3-1.7,0.3c-1,0-1.8-0.2-2.4-0.8c-0.6-0.5-0.8-1.1-0.8-1.9
		c0-0.5,0.1-0.9,0.3-1.3c0.2-0.4,0.5-0.7,0.8-0.9s0.7-0.4,1.1-0.5c0.3-0.1,0.8-0.2,1.4-0.2c1.3-0.2,2.2-0.3,2.8-0.5
		c0-0.2,0-0.4,0-0.4c0-0.6-0.1-1.1-0.4-1.4c-0.4-0.4-1-0.5-1.8-0.5c-0.7,0-1.3,0.1-1.6,0.4s-0.6,0.7-0.8,1.4l-1.5-0.2
		c0.1-0.7,0.4-1.2,0.7-1.6c0.3-0.4,0.8-0.7,1.4-0.9c0.6-0.2,1.3-0.3,2.1-0.3c0.8,0,1.4,0.1,1.9,0.3s0.9,0.4,1.1,0.7
		c0.2,0.3,0.4,0.6,0.5,1.1c0.1,0.3,0.1,0.8,0.1,1.5v2.1c0,1.5,0,2.4,0.1,2.8c0.1,0.4,0.2,0.8,0.4,1.1h-1.7
		C351.6,237,351.5,236.6,351.4,236.2z M351.3,232.6c-0.6,0.2-1.4,0.4-2.6,0.6c-0.7,0.1-1.1,0.2-1.4,0.3s-0.5,0.3-0.6,0.5
		s-0.2,0.5-0.2,0.8c0,0.4,0.2,0.8,0.5,1.1s0.8,0.4,1.4,0.4c0.6,0,1.2-0.1,1.6-0.4s0.8-0.6,1-1.1c0.2-0.4,0.3-0.9,0.3-1.6V232.6z"/>
	<path d="M355.3,237.3V228h1.4v1.3c0.7-1,1.7-1.5,3-1.5c0.6,0,1.1,0.1,1.6,0.3c0.5,0.2,0.8,0.5,1.1,0.8s0.4,0.7,0.5,1.2
		c0.1,0.3,0.1,0.8,0.1,1.5v5.7h-1.6v-5.7c0-0.6-0.1-1.1-0.2-1.4s-0.3-0.6-0.7-0.8c-0.3-0.2-0.7-0.3-1.1-0.3c-0.7,0-1.3,0.2-1.7,0.6
		s-0.7,1.2-0.7,2.4v5.1H355.3z"/>
	<path d="M376.4,236.2c-0.6,0.5-1.1,0.8-1.7,1.1s-1.1,0.3-1.7,0.3c-1,0-1.8-0.2-2.4-0.8c-0.6-0.5-0.8-1.1-0.8-1.9
		c0-0.5,0.1-0.9,0.3-1.3c0.2-0.4,0.5-0.7,0.8-0.9s0.7-0.4,1.1-0.5c0.3-0.1,0.8-0.2,1.4-0.2c1.3-0.2,2.2-0.3,2.8-0.5
		c0-0.2,0-0.4,0-0.4c0-0.6-0.1-1.1-0.4-1.4c-0.4-0.4-1-0.5-1.8-0.5c-0.7,0-1.3,0.1-1.6,0.4s-0.6,0.7-0.8,1.4l-1.5-0.2
		c0.1-0.7,0.4-1.2,0.7-1.6c0.3-0.4,0.8-0.7,1.4-0.9c0.6-0.2,1.3-0.3,2.1-0.3c0.8,0,1.4,0.1,1.9,0.3s0.9,0.4,1.1,0.7
		c0.2,0.3,0.4,0.6,0.5,1.1c0.1,0.3,0.1,0.8,0.1,1.5v2.1c0,1.5,0,2.4,0.1,2.8c0.1,0.4,0.2,0.8,0.4,1.1h-1.7
		C376.6,237,376.5,236.6,376.4,236.2z M376.3,232.6c-0.6,0.2-1.4,0.4-2.6,0.6c-0.7,0.1-1.1,0.2-1.4,0.3s-0.5,0.3-0.6,0.5
		s-0.2,0.5-0.2,0.8c0,0.4,0.2,0.8,0.5,1.1s0.8,0.4,1.4,0.4c0.6,0,1.2-0.1,1.6-0.4s0.8-0.6,1-1.1c0.2-0.4,0.3-0.9,0.3-1.6V232.6z"/>
	<path d="M380.3,237.3V228h1.4v1.4c0.4-0.7,0.7-1.1,1-1.3s0.6-0.3,1-0.3c0.5,0,1.1,0.2,1.6,0.5l-0.5,1.5c-0.4-0.2-0.8-0.3-1.2-0.3
		c-0.3,0-0.7,0.1-0.9,0.3s-0.5,0.5-0.6,0.9c-0.2,0.6-0.3,1.2-0.3,1.8v4.9H380.3z"/>
	<path d="M392.4,233.9l1.6,0.2c-0.2,1.1-0.6,1.9-1.3,2.5c-0.7,0.6-1.6,0.9-2.6,0.9c-1.3,0-2.3-0.4-3.1-1.3c-0.8-0.8-1.2-2-1.2-3.6
		c0-1,0.2-1.9,0.5-2.6s0.8-1.3,1.5-1.7c0.7-0.4,1.4-0.6,2.2-0.6c1,0,1.8,0.3,2.5,0.8s1.1,1.2,1.2,2.2l-1.5,0.2
		c-0.1-0.6-0.4-1.1-0.8-1.4s-0.8-0.5-1.3-0.5c-0.8,0-1.4,0.3-1.9,0.9c-0.5,0.6-0.7,1.5-0.7,2.7c0,1.3,0.2,2.2,0.7,2.7
		s1.1,0.9,1.9,0.9c0.6,0,1.1-0.2,1.6-0.6S392.3,234.7,392.4,233.9z"/>
	<path d="M395.3,237.3v-12.9h1.6v4.6c0.7-0.9,1.7-1.3,2.8-1.3c0.7,0,1.3,0.1,1.8,0.4c0.5,0.3,0.9,0.6,1.1,1.1s0.3,1.2,0.3,2.1v5.9
		h-1.6v-5.9c0-0.8-0.2-1.4-0.5-1.7c-0.3-0.4-0.8-0.5-1.5-0.5c-0.5,0-0.9,0.1-1.3,0.4c-0.4,0.2-0.7,0.6-0.9,1s-0.3,1-0.3,1.7v5.1
		H395.3z"/>
	<path d="M405.4,226.3v-1.8h1.6v1.8H405.4z M405.4,237.3V228h1.6v9.3H405.4z"/>
	<path d="M412.8,235.9l0.2,1.4c-0.4,0.1-0.8,0.1-1.2,0.1c-0.6,0-1-0.1-1.3-0.3s-0.5-0.4-0.7-0.7s-0.2-0.9-0.2-1.9v-5.4h-1.2V228h1.2
		v-2.3l1.6-0.9v3.3h1.6v1.2h-1.6v5.5c0,0.5,0,0.7,0.1,0.9s0.1,0.2,0.3,0.3s0.3,0.1,0.5,0.1C412.3,236,412.5,236,412.8,235.9z"/>
	<path d="M420.7,234.3l1.6,0.2c-0.3,1-0.7,1.7-1.4,2.2s-1.6,0.8-2.7,0.8c-1.4,0-2.4-0.4-3.2-1.3c-0.8-0.8-1.2-2-1.2-3.5
		c0-1.6,0.4-2.8,1.2-3.7s1.9-1.3,3.1-1.3c1.2,0,2.3,0.4,3.1,1.3s1.2,2,1.2,3.6c0,0.1,0,0.2,0,0.4h-7c0.1,1,0.3,1.8,0.9,2.4
		s1.2,0.8,2,0.8c0.6,0,1.1-0.2,1.5-0.5S420.5,235,420.7,234.3z M415.5,231.8h5.2c-0.1-0.8-0.3-1.4-0.6-1.8c-0.5-0.6-1.2-0.9-2-0.9
		c-0.7,0-1.3,0.2-1.8,0.7S415.6,231,415.5,231.8z"/>
	<path d="M430.5,233.9l1.6,0.2c-0.2,1.1-0.6,1.9-1.3,2.5c-0.7,0.6-1.6,0.9-2.6,0.9c-1.3,0-2.3-0.4-3.1-1.3c-0.8-0.8-1.2-2-1.2-3.6
		c0-1,0.2-1.9,0.5-2.6s0.8-1.3,1.5-1.7c0.7-0.4,1.4-0.6,2.2-0.6c1,0,1.8,0.3,2.5,0.8s1.1,1.2,1.2,2.2l-1.5,0.2
		c-0.1-0.6-0.4-1.1-0.8-1.4s-0.8-0.5-1.3-0.5c-0.8,0-1.4,0.3-1.9,0.9c-0.5,0.6-0.7,1.5-0.7,2.7c0,1.3,0.2,2.2,0.7,2.7
		s1.1,0.9,1.9,0.9c0.6,0,1.1-0.2,1.6-0.6S430.3,234.7,430.5,233.9z"/>
	<path d="M436.8,235.9l0.2,1.4c-0.4,0.1-0.8,0.1-1.2,0.1c-0.6,0-1-0.1-1.3-0.3s-0.5-0.4-0.7-0.7s-0.2-0.9-0.2-1.9v-5.4h-1.2V228h1.2
		v-2.3l1.6-0.9v3.3h1.6v1.2h-1.6v5.5c0,0.5,0,0.7,0.1,0.9s0.1,0.2,0.3,0.3s0.3,0.1,0.5,0.1C436.3,236,436.5,236,436.8,235.9z"/>
	<path d="M444.5,237.3V236c-0.7,1.1-1.7,1.6-3,1.6c-0.6,0-1.1-0.1-1.5-0.3s-0.8-0.5-1.1-0.8s-0.4-0.7-0.5-1.2
		c-0.1-0.3-0.1-0.8-0.1-1.5V228h1.6v5.2c0,0.8,0,1.4,0.1,1.7c0.1,0.4,0.3,0.7,0.6,1c0.3,0.2,0.7,0.4,1.2,0.4s0.9-0.1,1.3-0.4
		s0.7-0.6,0.9-1c0.2-0.4,0.3-1,0.3-1.8v-5h1.6v9.3H444.5z"/>
	<path d="M448.4,237.3V228h1.4v1.4c0.4-0.7,0.7-1.1,1-1.3s0.6-0.3,1-0.3c0.5,0,1.1,0.2,1.6,0.5l-0.5,1.5c-0.4-0.2-0.8-0.3-1.2-0.3
		c-0.3,0-0.7,0.1-0.9,0.3s-0.5,0.5-0.6,0.9c-0.2,0.6-0.3,1.2-0.3,1.8v4.9H448.4z"/>
	<path d="M460.5,236.2c-0.6,0.5-1.1,0.8-1.7,1.1s-1.1,0.3-1.7,0.3c-1,0-1.8-0.2-2.4-0.8c-0.6-0.5-0.8-1.1-0.8-1.9
		c0-0.5,0.1-0.9,0.3-1.3c0.2-0.4,0.5-0.7,0.8-0.9s0.7-0.4,1.1-0.5c0.3-0.1,0.8-0.2,1.4-0.2c1.3-0.2,2.2-0.3,2.8-0.5
		c0-0.2,0-0.4,0-0.4c0-0.6-0.1-1.1-0.4-1.4c-0.4-0.4-1-0.5-1.8-0.5c-0.7,0-1.3,0.1-1.6,0.4s-0.6,0.7-0.8,1.4l-1.5-0.2
		c0.1-0.7,0.4-1.2,0.7-1.6c0.3-0.4,0.8-0.7,1.4-0.9c0.6-0.2,1.3-0.3,2.1-0.3c0.8,0,1.4,0.1,1.9,0.3s0.9,0.4,1.1,0.7
		c0.2,0.3,0.4,0.6,0.5,1.1c0.1,0.3,0.1,0.8,0.1,1.5v2.1c0,1.5,0,2.4,0.1,2.8c0.1,0.4,0.2,0.8,0.4,1.1h-1.7
		C460.6,237,460.5,236.6,460.5,236.2z M460.3,232.6c-0.6,0.2-1.4,0.4-2.6,0.6c-0.7,0.1-1.1,0.2-1.4,0.3s-0.5,0.3-0.6,0.5
		s-0.2,0.5-0.2,0.8c0,0.4,0.2,0.8,0.5,1.1s0.8,0.4,1.4,0.4c0.6,0,1.2-0.1,1.6-0.4s0.8-0.6,1-1.1c0.2-0.4,0.3-0.9,0.3-1.6V232.6z"/>
	<path d="M464.3,237.3v-12.9h1.6v12.9H464.3z"/>
	<path d="M274,256.1l1.6-0.2c0.1,0.6,0.3,1.1,0.7,1.4s1,0.5,1.7,0.5c0.7,0,1.3-0.1,1.6-0.4s0.5-0.6,0.5-1c0-0.4-0.2-0.6-0.5-0.8
		c-0.2-0.1-0.8-0.3-1.6-0.5c-1.2-0.3-2-0.5-2.4-0.8s-0.8-0.5-1-0.9c-0.2-0.4-0.3-0.8-0.3-1.3c0-0.4,0.1-0.8,0.3-1.2
		c0.2-0.4,0.4-0.6,0.8-0.9c0.2-0.2,0.6-0.3,1-0.5s0.9-0.2,1.4-0.2c0.7,0,1.4,0.1,1.9,0.3s1,0.5,1.2,0.9c0.3,0.4,0.4,0.8,0.5,1.4
		l-1.5,0.2c-0.1-0.5-0.3-0.9-0.6-1.1s-0.8-0.4-1.4-0.4c-0.7,0-1.2,0.1-1.6,0.4s-0.5,0.5-0.5,0.8c0,0.2,0.1,0.4,0.2,0.6
		c0.1,0.2,0.3,0.3,0.6,0.4c0.2,0.1,0.6,0.2,1.4,0.4c1.1,0.3,1.9,0.5,2.3,0.7s0.8,0.5,1,0.8s0.4,0.8,0.4,1.4c0,0.5-0.2,1-0.5,1.5
		c-0.3,0.5-0.8,0.8-1.3,1.1c-0.6,0.3-1.2,0.4-2,0.4c-1.2,0-2.1-0.3-2.8-0.8S274.2,257.1,274,256.1z"/>
	<path d="M287.1,257.5l0.2,1.4c-0.4,0.1-0.8,0.1-1.2,0.1c-0.6,0-1-0.1-1.3-0.3s-0.5-0.4-0.7-0.7s-0.2-0.9-0.2-1.9v-5.4h-1.2v-1.2
		h1.2v-2.3l1.6-0.9v3.3h1.6v1.2h-1.6v5.5c0,0.5,0,0.7,0.1,0.9s0.1,0.2,0.3,0.3s0.3,0.1,0.5,0.1C286.6,257.6,286.8,257.6,287.1,257.5
		z"/>
	<path d="M288.6,262.5l-0.2-1.5c0.3,0.1,0.6,0.1,0.9,0.1c0.4,0,0.6-0.1,0.8-0.2s0.4-0.3,0.5-0.5c0.1-0.2,0.3-0.6,0.5-1.2
		c0-0.1,0.1-0.2,0.1-0.4l-3.5-9.4h1.7l1.9,5.4c0.3,0.7,0.5,1.4,0.7,2.2c0.2-0.7,0.4-1.4,0.7-2.1l2-5.4h1.6l-3.6,9.5
		c-0.4,1-0.7,1.7-0.9,2.1c-0.3,0.5-0.6,0.9-1,1.1c-0.4,0.2-0.8,0.4-1.3,0.4C289.3,262.7,288.9,262.7,288.6,262.5z"/>
	<path d="M297.6,258.9V246h1.6v12.9H297.6z"/>
	<path d="M308,255.9l1.6,0.2c-0.3,1-0.7,1.7-1.4,2.2s-1.6,0.8-2.7,0.8c-1.4,0-2.4-0.4-3.2-1.3c-0.8-0.8-1.2-2-1.2-3.5
		c0-1.6,0.4-2.8,1.2-3.7s1.9-1.3,3.1-1.3c1.2,0,2.3,0.4,3.1,1.3s1.2,2,1.2,3.6c0,0.1,0,0.2,0,0.4h-7c0.1,1,0.3,1.8,0.9,2.4
		s1.2,0.8,2,0.8c0.6,0,1.1-0.2,1.5-0.5S307.8,256.6,308,255.9z M302.8,253.4h5.2c-0.1-0.8-0.3-1.4-0.6-1.8c-0.5-0.6-1.2-0.9-2-0.9
		c-0.7,0-1.3,0.2-1.8,0.7S302.9,252.6,302.8,253.4z"/>
</g>
</svg>
