<?xml version="1.0" encoding="utf-8"?>
<!-- Generator: Adobe Illustrator 17.1.0, SVG Export Plug-In . SVG Version: 6.00 Build 0)  -->
<!DOCTYPE svg PUBLIC "-//W3C//DTD SVG 1.1//EN" "http://www.w3.org/Graphics/SVG/1.1/DTD/svg11.dtd">
<svg version="1.1" id="Layer_1" xmlns="http://www.w3.org/2000/svg" xmlns:xlink="http://www.w3.org/1999/xlink" x="0px" y="0px"
	 viewBox="0 0 567.1 315" style="enable-background:new 0 0 567.1 315;" xml:space="preserve">
<path d="M241.2,177.8c0.1,0,0.2,0,0.2,0c0.5-0.1,0.8-0.6,0.7-1.2c-0.1-0.4-0.5-0.7-0.9-0.7c-0.1,0-0.2,0-0.2,0
	c-0.2,0.1-0.5,0.2-0.6,0.4c-0.1,0.2-0.2,0.5-0.1,0.7C240.3,177.5,240.7,177.8,241.2,177.8z"/>
<path d="M232,175.3c0.3,0,0.5-0.1,0.7-0.3c0.2-0.2,0.3-0.4,0.2-0.7c0-0.3-0.1-0.5-0.3-0.7c-0.2-0.2-0.4-0.3-0.6-0.3
	c-0.3,0-0.5,0.1-0.7,0.3c-0.2,0.2-0.3,0.4-0.2,0.7c0,0.3,0.1,0.5,0.3,0.7C231.5,175.2,231.7,175.3,232,175.3z"/>
<path d="M234.5,175.8c-0.1,0-0.1,0-0.2,0c-0.5,0-0.9,0.3-0.9,0.8c0,0.3,0,0.5,0.2,0.7c0.2,0.2,0.4,0.3,0.6,0.4c0.1,0,0.1,0,0.2,0
	c0.5,0,0.9-0.3,0.9-0.8C235.4,176.4,235.1,175.9,234.5,175.8z"/>
<path d="M234.4,166c0.2,0,0.4-0.1,0.6-0.2c0.2-0.2,0.3-0.4,0.4-0.6c0-0.3,0-0.5-0.2-0.7c-0.2-0.2-0.5-0.4-0.8-0.4
	c-0.2,0-0.4,0.1-0.6,0.2c-0.4,0.3-0.5,0.9-0.2,1.4C233.8,165.8,234.1,166,234.4,166z"/>
<path d="M243.6,168.6c0.2,0,0.3,0,0.5-0.1c0.2-0.1,0.4-0.3,0.5-0.6c0.1-0.2,0-0.5-0.1-0.7c-0.2-0.3-0.5-0.5-0.8-0.5
	c-0.2,0-0.3,0-0.5,0.1c-0.5,0.3-0.6,0.8-0.4,1.3C243,168.5,243.3,168.6,243.6,168.6z"/>
<path d="M231.5,168.4c0.1,0,0.2,0.1,0.3,0.1c0.4,0,0.8-0.3,0.9-0.7c0.1-0.2,0.1-0.5,0-0.7c-0.1-0.2-0.3-0.4-0.6-0.5
	c-0.1,0-0.2,0-0.3,0c-0.4,0-0.8,0.3-0.9,0.7C230.8,167.7,231,168.2,231.5,168.4z"/>
<path d="M244.1,173.6c-0.2-0.1-0.3-0.2-0.5-0.2c-0.3,0-0.6,0.2-0.8,0.4c-0.1,0.2-0.2,0.5-0.1,0.7c0,0.3,0.2,0.5,0.4,0.6
	c0.2,0.1,0.3,0.2,0.5,0.2c0.3,0,0.6-0.2,0.8-0.4c0.1-0.2,0.2-0.5,0.1-0.7C244.4,173.9,244.3,173.7,244.1,173.6z"/>
<path d="M240.7,165.9c0.1,0.1,0.3,0.1,0.5,0.1c0.4,0,0.7-0.2,0.8-0.5c0.2-0.5,0.1-1.1-0.4-1.3c-0.1-0.1-0.3-0.1-0.5-0.1
	c-0.4,0-0.7,0.2-0.8,0.5c-0.1,0.2-0.1,0.5-0.1,0.7C240.3,165.6,240.5,165.8,240.7,165.9z"/>
<path d="M231.2,171.9c0.5-0.1,0.8-0.7,0.7-1.2l0,0c-0.1-0.4-0.5-0.7-0.9-0.7c-0.1,0-0.2,0-0.2,0c-0.2,0.1-0.5,0.2-0.6,0.4
	c-0.1,0.2-0.2,0.5-0.1,0.7c0.1,0.4,0.5,0.7,0.9,0.7C231.1,172,231.2,171.9,231.2,171.9z"/>
<path d="M243.5,171c0,0.5,0.4,1,1,1c0.3,0,0.5-0.1,0.7-0.3c0.2-0.2,0.3-0.4,0.3-0.7c0-0.5-0.4-1-1-1C244,170,243.5,170.5,243.5,171z
	"/>
<path d="M237.8,170C237.8,170,237.8,170,237.8,170c-0.3,0-0.6,0.1-0.7,0.3c-0.2,0.2-0.2,0.4-0.2,0.7c0,0.5,0.5,0.9,1,0.9
	c0,0,0.1,0,0.1,0c0.5-0.1,0.9-0.5,0.9-1C238.7,170.4,238.3,170,237.8,170z"/>
<path d="M234.3,172C234.3,172,234.4,172,234.3,172c0.6-0.1,1-0.5,1-1c0-0.5-0.5-0.9-1-0.9c0,0-0.1,0-0.1,0c-0.3,0-0.5,0.1-0.7,0.3
	c-0.2,0.2-0.2,0.4-0.2,0.7C233.4,171.6,233.8,172,234.3,172z"/>
<path d="M241.3,170C241.3,170,241.3,170,241.3,170c-0.3,0-0.6,0.1-0.7,0.3c-0.2,0.2-0.2,0.4-0.2,0.7c0,0.5,0.5,0.9,1,0.9
	c0,0,0.1,0,0.1,0c0.5-0.1,0.9-0.5,0.9-1C242.3,170.4,241.8,170,241.3,170z"/>
<path d="M237.8,178.6c0.1,0,0.3,0,0.4-0.1c0.2-0.1,0.4-0.3,0.5-0.5c0.1-0.2,0.1-0.5,0-0.7c-0.1-0.3-0.5-0.6-0.9-0.6
	c-0.1,0-0.3,0-0.4,0.1c-0.5,0.2-0.7,0.8-0.5,1.3C237.1,178.3,237.4,178.6,237.8,178.6z"/>
<path d="M237.8,165C237.9,165,237.9,165,237.8,165c0.6,0,1-0.5,1-1c0-0.5-0.5-0.9-1-0.9c0,0-0.1,0-0.1,0c-0.3,0-0.5,0.1-0.6,0.3
	c-0.2,0.2-0.2,0.4-0.2,0.7C236.9,164.6,237.3,165,237.8,165z"/>
<path d="M237.8,168.3C237.9,168.3,237.9,168.3,237.8,168.3c0.6,0,1-0.5,1-1c0-0.5-0.5-0.9-1-0.9c0,0-0.1,0-0.1,0
	c-0.3,0-0.5,0.1-0.6,0.3c-0.2,0.2-0.2,0.4-0.2,0.7C236.9,167.9,237.3,168.3,237.8,168.3z"/>
<path d="M237.8,175.3C237.9,175.3,237.9,175.3,237.8,175.3c0.6,0,1-0.5,1-1c0-0.5-0.5-0.9-1-0.9c0,0-0.1,0-0.1,0
	c-0.3,0-0.5,0.1-0.6,0.3c-0.2,0.2-0.2,0.4-0.2,0.7C236.9,174.9,237.3,175.3,237.8,175.3z"/>
<path d="M243.7,189.2c0,8.4-12.6,8.4-12.6,0C231.1,180.8,243.7,180.8,243.7,189.2"/>
<path d="M334.9,148.8l-5.1-5.7c1.7-1.5,3-3.1,3.8-4.2l-3.4-2.5c-2.1,2.7-6.3,7-10.3,7.3c-4.3,0.3-9.3-3.6-9.3-3.6l2-5.3l-5.6,0.3
	l-0.9-4.6l-8.6,0.1l-0.7-26.5l-7.4-3.9c2.7-3.8,8.9-12.1,14.7-16.6c7-5.3,15.3-6.2,20.7-5.2c8.3,1.3,14.7,18.8,17.6,48l0.1,0.8
	l0.5,0.5c1,1,2,2,2.9,2.9C341.5,137.2,337.8,143.2,334.9,148.8z M292.1,214.4c-9.6-0.9-14.1-6.9-14.2-7c-0.2-0.2-0.4-0.4-0.7-0.4
	c-0.3,0-0.6,0.1-0.8,0.3l-5.2,4.9c-0.7,0.7-1.9,0.6-2.6-0.1c-0.7-0.7-0.8-1.6-0.3-2.4l0,0c0-0.1,0.1-0.1,0.1-0.2l6.6-6.1
	c0.4-0.4,0.4-1,0-1.4c-0.4-0.4-1-0.4-1.4-0.1l-7,6.4c-0.1,0.1-0.1,0.1-0.1,0.2c-0.7,0.4-1.7,0.3-2.4-0.3c-0.7-0.7-0.8-1.7-0.3-2.4
	l6.5-6.7c0.4-0.4,0.4-1,0-1.4c-0.4-0.4-1-0.4-1.4,0l-6.2,6.4c0,0,0,0,0,0.1l-0.6,0.7c-0.7,0.5-1.8,0.4-2.4-0.3
	c-0.7-0.7-0.8-1.9-0.1-2.7l8-8.3c0.3-0.3,0.4-0.7,0.2-1.1c-0.2-0.4-0.5-0.6-0.9-0.6h-15.6c-0.7,0-1.3,0-1.8-0.1
	c-0.9-0.1-1.5-0.4-1.9-0.8c-0.2-0.2-0.5-0.6-0.5-1.6c0-1,0.2-1.8,2.4-2c0.5-0.1,1.2-0.1,2-0.1h13.8c5.6,0,9.2,1.6,12.9,4
	c3.3,2.1,15.2,12.1,18.1,14.5L292.1,214.4z M249.5,198.3h-24.1V158h24.1v27.4c-2.1,0.2-4.4,1-4.4,4c0,1.3,0.3,2.3,1.1,3.1
	c0.7,0.7,1.8,1.2,3.3,1.4L249.5,198.3L249.5,198.3z M385.1,238.5c0.1-33.2-2.8-55.6-9.6-72.8c-6.2-15.9-15.4-27-29.1-40.5
	c-2.3-22.2-7.8-48.8-21.1-50.9c-6.3-1.1-15.9-0.1-24,6c-8.2,6.3-16.7,19-17,19.5l-1.3,1.9l9.4,5l0.7,28.2l9.6-0.1
	c0,0,0.6,2.6,1.1,3.8l3.5-0.4l-1.9,2.8c0,0,7.3,7.4,14.2,6.9c2.2-0.2,4.7-1,6.6-2.2l6.5,7.1c-9.1,18.5-11.5,33.9-13.8,55.3l-8.8-4.5
	l-1.9,3.9l-9.6-4.6l-0.8,1.6c-1.9-1.6-15-12.6-18.6-15c-4-2.6-7.9-4.3-14-4.3h-11.6v-29.4c0-1.2-0.9-2.1-2.1-2.1h-28.3
	c-1.2,0-2.1,0.9-2.1,2.1v44.5c0,1.2,0.9,2.1,2.1,2.1h28.3c1.2,0,2.1-0.9,2.1-2.1v-6.5h10.8l-6.5,6.7l0,0c-1.4,1.5-1.3,3.9,0.2,5.3
	c0.9,0.9,2.2,1.3,3.4,1.1c0.1,0.9,0.4,1.9,1.1,2.6c0.9,0.9,2.1,1.3,3.2,1.1c0,1,0.4,1.9,1.1,2.7c1.5,1.5,3.8,1.5,5.3,0.2l0,0
	l4.6-4.3c1.7,1.9,6.6,6.2,15.2,7l-1.5,3.1l9.5,4.6l-3.3,6.7l21,9.6c-0.2,9.4-0.2,20.2-0.2,20.3l4.2,0c0-0.1,0.1-12,0.2-21.6l0-1.4
	l-19.6-9l9.4-19.4l10.4,5.3l0.3-3.1c3.3-31.1,5.9-47.8,26.1-77.9c22.3,23.3,32.2,43.6,32,104.8v21.2h4.2V238.5z"/>
</svg>
