<?xml version="1.0" encoding="utf-8"?>
<!-- Generator: Adobe Illustrator 17.1.0, SVG Export Plug-In . SVG Version: 6.00 Build 0)  -->
<!DOCTYPE svg PUBLIC "-//W3C//DTD SVG 1.1//EN" "http://www.w3.org/Graphics/SVG/1.1/DTD/svg11.dtd">
<svg version="1.1" id="Layer_1" xmlns="http://www.w3.org/2000/svg" xmlns:xlink="http://www.w3.org/1999/xlink" x="0px" y="0px"
	 viewBox="0 102 700 426" style="enable-background:new 0 102 700 426;" xml:space="preserve">
<g id="www_1_">
</g>
<line style="fill:none;stroke:#B3B3B3;stroke-miterlimit:10;" x1="294" y1="348.4" x2="173.8" y2="348.4"/>
<rect x="20.2" y="271" style="fill:#E2E2E2;" width="162.2" height="248.6"/>
<rect x="399" y="168.5" style="fill:#E2E2E2;" width="292.1" height="79"/>
<line style="fill:none;stroke:#FFFFFF;stroke-width:0.75;stroke-miterlimit:10;" x1="173.8" y1="121.6" x2="182.6" y2="121.6"/>
<path d="M175.2,195.5H76.8c-8.8,0-15.9-7.1-15.9-15.9c0-7.9,5.9-14.8,13.9-15.8l4.7-0.6l0.4-4.7c1.5-17.4,16.3-31,33.8-31
	c10.4,0,20.2,4.7,26.6,12.8l2.8,3.5l4.1-1.9c2.2-1.1,4.5-1.5,6.9-1.5c7.2,0,13.8,4.9,16,11.8l1.2,4.1l4.2,0.1
	c10.1,0.2,18.4,9,18.4,19.5C194,186.7,185.6,195.5,175.2,195.5z M175.7,150.7c-2.8-9.2-11.3-16-21.5-16c-3.4,0-6.5,0.7-9.3,2.1
	c-7.2-9.2-18.6-15.1-31.1-15.1c-20.8,0-37.9,16-39.7,36.4c-10.7,1.4-19,10.5-19,21.5c0,12,9.7,21.7,21.7,21.7h98.3
	c13.5,0,24.6-11.3,24.6-25.3C199.8,162.1,189.1,150.9,175.7,150.7z"/>
<path d="M134.3,158.9c-0.8,0-1.5-0.7-1.5-1.5s0.7-1.5,1.5-1.5s1.5,0.7,1.5,1.5C135.9,158.2,135.2,158.9,134.3,158.9z M126.6,159.1
	h-21.5v-3.4h21.5V159.1z M137.1,151.9H103c-0.9,0-1.8,0.8-1.8,1.8v7.5c0,0.9,0.8,1.8,1.8,1.8h34.1c0.9,0,1.8-0.8,1.8-1.8v-7.5
	C138.8,152.8,138.1,151.9,137.1,151.9z M134.3,184.3c-0.8,0-1.5-0.7-1.5-1.5s0.7-1.5,1.5-1.5s1.5,0.7,1.5,1.5
	C135.9,183.6,135.2,184.3,134.3,184.3z M126.6,184.4h-21.5V181h21.5V184.4z M137.1,177.3H103c-0.9,0-1.8,0.8-1.8,1.8v7.5
	c0,0.9,0.8,1.8,1.8,1.8h34.1c0.9,0,1.8-0.8,1.8-1.8V179C138.8,178,138.1,177.3,137.1,177.3z M134.3,171.8c-0.8,0-1.5-0.7-1.5-1.5
	s0.7-1.5,1.5-1.5s1.5,0.7,1.5,1.5C135.9,171.1,135.2,171.8,134.3,171.8z M126.6,171.9h-21.5v-3.4h21.5V171.9z M137.1,164.7H103
	c-0.9,0-1.8,0.8-1.8,1.8v7.5c0,0.9,0.8,1.8,1.8,1.8h34.1c0.9,0,1.8-0.8,1.8-1.8v-7.5C138.8,165.5,138.1,164.7,137.1,164.7z"/>
<g>
	<path style="fill:none;stroke:#000000;stroke-miterlimit:10;" d="M535.3,451.4h-45v-25.2h45.1L535.3,451.4z M492.1,421.9
		c1,0,1.9,0.6,1.9,1.3c0,0.7-0.8,1.3-1.9,1.3s-1.9-0.6-1.9-1.3C490.2,422.5,491,421.9,492.1,421.9z M497.6,421.9
		c1,0,1.9,0.6,1.9,1.3c0,0.7-0.8,1.3-1.9,1.3s-1.9-0.6-1.9-1.3C495.7,422.5,496.5,421.9,497.6,421.9z M503.1,421.9
		c1.1,0,1.9,0.6,1.9,1.3c0,0.7-0.8,1.3-1.9,1.3c-1,0-1.9-0.6-1.9-1.3C501.2,422.5,502,421.9,503.1,421.9z M535.3,420.2h-45.2
		c-1.4,0-2.4,0.8-2.4,1.8v30.3c0,0.9,1,1.8,2.4,1.8h45.2c1.4,0,2.4-0.8,2.4-1.8v-30.3C537.7,421,536.7,420.2,535.3,420.2z"/>
	<rect x="493.3" y="429.3" style="fill:none;stroke:#000000;stroke-miterlimit:10;" width="18.3" height="1.8"/>
	<rect x="493.3" y="437.1" style="fill:none;stroke:#000000;stroke-miterlimit:10;" width="18.3" height="1.8"/>
	<rect x="493.3" y="433.2" style="fill:none;stroke:#000000;stroke-miterlimit:10;" width="23.8" height="1.8"/>
</g>
<path d="M467.8,441.9c0.2-0.2,0.1-0.5,0-0.7C467.9,441.4,467.9,441.8,467.8,441.9z"/>
<path d="M527.3,475.1c-0.1,0.1-0.3,0.2-0.8,0.2c-0.1,0-0.2,0-0.4,0c-0.3,0-0.9,0-1.6,0c-0.3,0-0.8,0-1.3,0c-0.7,0-1.6,0-2.8,0
	c-1.6,0-3.6,0-5.4,0c-3.2,0-6.3,0-8.3,0c-0.6,0-0.9,0-1.3,0c-1.2,0-2,0-2.5,0c-0.1,0-0.1,0-0.2,0s-0.1,0-0.2,0
	c-1.5-0.2-0.4-1.4-0.4-1.4s1.9-1.4,2.8-2.9c0,0,0.2,0,0.5-2.2c0.3-3.2,0.7-5.6,0.7-5.6h16.9c0,0,0.3,2.5,0.7,5.6
	c0.2,2.2,0.5,2.2,0.5,2.2c0.8,1.4,2.6,2.7,2.7,2.9l0,0c0,0,0.1,0,0.1,0.1C527.3,474.3,527.6,474.8,527.3,475.1z"/>
<path d="M467.7,440.8c0,0.1,0.1,0.1,0.1,0.2C467.8,440.9,467.8,440.9,467.7,440.8z"/>
<path d="M553.8,415.1h-78.5v44.5h78.5V415.1L553.8,415.1z M514.6,463.7c-2.8,0-39,0.1-40.7,0c-1.9-0.1-2-2-2-2v-48.1
	c0-1.5,2-1.6,2-1.6h81.3c0,0,2,0.1,2,1.6v48.1c0,0-0.1,1.9-2,2C553.5,463.8,518.7,463.7,514.6,463.7"/>
<g>
	<path d="M87.4,224.2v-13.4h5.9c1.2,0,2.1,0.1,2.7,0.4c0.6,0.2,1.2,0.7,1.5,1.3c0.3,0.6,0.6,1.3,0.6,2c0,0.9-0.3,1.8-0.9,2.4
		s-1.5,1-2.8,1.3c0.5,0.2,0.8,0.5,1.1,0.7c0.5,0.5,1.1,1.1,1.5,1.8l2.3,3.6h-2.2l-1.8-2.8c-0.5-0.8-0.9-1.4-1.3-1.9
		c-0.4-0.5-0.6-0.7-0.9-0.9c-0.2-0.1-0.6-0.2-0.8-0.4c-0.2,0-0.6-0.1-0.9-0.1h-2.1v5.9h-1.9V224.2z M89.2,216.7h3.8
		c0.8,0,1.4-0.1,1.9-0.2c0.5-0.1,0.8-0.5,1.1-0.8c0.2-0.3,0.3-0.8,0.3-1.2c0-0.6-0.2-1.2-0.7-1.5s-1.2-0.6-2.2-0.6h-4.2
		C89.3,212.4,89.3,216.7,89.2,216.7z"/>
	<path d="M100.9,224.2v-13.4h9.7v1.6h-7.9v4.1h7.4v1.5h-7.4v4.6h8.2v1.6L100.9,224.2L100.9,224.2z"/>
	<path d="M112.7,219.9l1.6-0.1c0.1,0.7,0.2,1.2,0.6,1.6c0.2,0.5,0.7,0.8,1.4,1c0.6,0.2,1.3,0.4,2.1,0.4c0.7,0,1.3-0.1,1.8-0.4
		c0.5-0.2,0.9-0.5,1.2-0.8c0.2-0.4,0.4-0.7,0.4-1.2s-0.1-0.8-0.4-1c-0.2-0.4-0.7-0.6-1.2-0.8c-0.4-0.1-1.2-0.4-2.3-0.7
		c-1.3-0.4-2.1-0.6-2.6-0.8c-0.6-0.4-1.2-0.7-1.4-1.3c-0.4-0.5-0.5-1.1-0.5-1.6c0-0.7,0.2-1.3,0.6-1.9c0.3-0.6,0.9-1.1,1.6-1.3
		c0.7-0.4,1.5-0.5,2.4-0.5c0.9,0,1.9,0.1,2.6,0.5c0.7,0.3,1.3,0.8,1.8,1.4c0.4,0.6,0.6,1.3,0.7,2.1l-1.8,0.1
		c-0.1-0.8-0.4-1.5-0.9-1.9c-0.6-0.5-1.3-0.7-2.3-0.7s-1.9,0.2-2.3,0.6c-0.5,0.4-0.7,0.8-0.7,1.4c0,0.5,0.1,0.9,0.5,1.2
		c0.4,0.3,1.3,0.6,2.7,0.9c1.4,0.4,2.4,0.6,2.9,0.8c0.8,0.4,1.4,0.8,1.8,1.4s0.6,1.2,0.6,1.9c0,0.7-0.2,1.4-0.6,2s-1.1,1.2-1.8,1.5
		c-0.8,0.4-1.6,0.5-2.6,0.5c-1.2,0-2.2-0.2-3-0.6c-0.8-0.4-1.4-0.9-1.9-1.6C113,221.6,112.7,220.8,112.7,219.9z"/>
	<path d="M129.1,224.2v-11.8h-4.3v-1.6h10.6v1.6H131v11.8H129.1z"/>
	<path d="M139.5,224.2l5.1-13.4h1.9l5.5,13.4h-2l-1.5-4.1h-5.6l-1.5,4.1H139.5z M143.4,218.7h4.6l-1.4-3.7c-0.5-1.2-0.7-2.1-0.9-2.8
		c-0.1,0.8-0.5,1.8-0.7,2.6L143.4,218.7z"/>
	<path d="M153.4,224.2v-13.4h5c0.9,0,1.5,0,2,0.1c0.7,0.1,1.2,0.4,1.6,0.6c0.5,0.4,0.8,0.7,1,1.3c0.2,0.6,0.4,1.2,0.4,1.9
		c0,1.2-0.4,2.1-1,2.9c-0.7,0.8-2,1.2-4,1.2h-3.3v5.5L153.4,224.2L153.4,224.2z M155.2,217.2h3.5c1.2,0,2-0.2,2.5-0.6
		c0.5-0.5,0.7-1.1,0.7-1.8c0-0.6-0.1-1.1-0.5-1.4c-0.2-0.4-0.7-0.7-1.2-0.8c-0.4-0.1-0.8-0.1-1.6-0.1h-3.4V217.2z"/>
	<path d="M166.2,224.2v-13.4h1.8v13.4H166.2z"/>
</g>
<g>
	<path d="M475.2,498.6l5.1-13.4h1.9l5.5,13.4h-2l-1.5-4.1h-5.6l-1.5,4.1H475.2z M479,493.1h4.5l-1.4-3.7c-0.5-1.2-0.7-2.1-0.9-2.8
		c-0.1,0.8-0.5,1.8-0.7,2.6L479,493.1z"/>
	<path d="M488.8,502.3v-13.4h1.5v1.3c0.3-0.5,0.7-0.8,1.2-1c0.5-0.2,0.9-0.3,1.6-0.3c0.8,0,1.5,0.2,2.2,0.6c0.6,0.5,1.2,1,1.4,1.8
		c0.3,0.8,0.5,1.6,0.5,2.6c0,0.9-0.2,1.9-0.6,2.7s-0.8,1.4-1.5,1.9c-0.7,0.5-1.4,0.6-2.1,0.6c-0.6,0-1-0.1-1.5-0.3
		c-0.5-0.2-0.8-0.5-1-0.9v4.7h-1.6V502.3z M490.3,493.8c0,1.3,0.2,2.2,0.7,2.8c0.5,0.6,1.2,0.9,1.9,0.9s1.4-0.3,1.9-0.9
		c0.5-0.6,0.8-1.5,0.8-2.9c0-1.3-0.2-2.1-0.8-2.8c-0.5-0.6-1.2-0.9-1.9-0.9s-1.3,0.3-1.9,0.9C490.6,491.6,490.3,492.5,490.3,493.8z"
		/>
	<path d="M499.2,502.3v-13.4h1.5v1.3c0.3-0.5,0.7-0.8,1.2-1c0.5-0.2,0.9-0.3,1.6-0.3c0.8,0,1.5,0.2,2.2,0.6c0.6,0.5,1.2,1,1.4,1.8
		c0.3,0.8,0.5,1.6,0.5,2.6c0,0.9-0.2,1.9-0.6,2.7c-0.4,0.8-0.8,1.4-1.5,1.9c-0.7,0.5-1.4,0.6-2.1,0.6c-0.6,0-1-0.1-1.5-0.3
		c-0.5-0.2-0.8-0.5-1-0.9v4.7h-1.6V502.3z M500.7,493.8c0,1.3,0.2,2.2,0.7,2.8c0.5,0.6,1.2,0.9,1.9,0.9s1.4-0.3,1.9-0.9
		c0.5-0.6,0.8-1.5,0.8-2.9c0-1.3-0.2-2.1-0.8-2.8c-0.5-0.6-1.2-0.9-1.9-0.9s-1.3,0.3-1.9,0.9C501,491.6,500.7,492.5,500.7,493.8z"/>
	<path d="M509.6,498.6v-13.4h1.6v13.4H509.6z"/>
	<path d="M513.8,487.1v-1.9h1.6v1.9H513.8z M513.8,498.6v-9.7h1.6v9.7H513.8z"/>
	<path d="M524.3,495.1l1.6,0.2c-0.2,1.2-0.6,2-1.4,2.6c-0.7,0.6-1.6,0.9-2.7,0.9c-1.3,0-2.3-0.5-3.2-1.3c-0.8-0.8-1.2-2.1-1.2-3.7
		c0-1,0.1-2,0.5-2.8s0.8-1.4,1.6-1.8c0.7-0.3,1.5-0.6,2.3-0.6c1,0,1.9,0.2,2.6,0.8c0.7,0.6,1,1.3,1.3,2.2l-1.6,0.2
		c-0.1-0.7-0.5-1.2-0.8-1.5c-0.3-0.4-0.8-0.5-1.4-0.5c-0.8,0-1.5,0.3-2,0.9s-0.8,1.5-0.8,2.8c0,1.3,0.2,2.2,0.7,2.8
		c0.5,0.6,1.2,0.9,2,0.9c0.7,0,1.2-0.2,1.6-0.6C523.8,496.5,524.2,495.9,524.3,495.1z"/>
	<path d="M533.6,497.4c-0.6,0.5-1.2,0.9-1.8,1.1c-0.6,0.2-1.2,0.3-1.9,0.3c-1.1,0-1.9-0.2-2.5-0.8c-0.6-0.5-0.8-1.2-0.8-2
		c0-0.5,0.1-0.9,0.3-1.3c0.2-0.3,0.5-0.7,0.8-0.9c0.3-0.2,0.7-0.5,1.2-0.6c0.4-0.1,0.8-0.1,1.4-0.2c1.3-0.1,2.3-0.3,2.9-0.6
		c0-0.2,0-0.3,0-0.5c0-0.7-0.1-1.2-0.5-1.4c-0.5-0.3-1-0.6-1.9-0.6c-0.8,0-1.3,0.1-1.8,0.3c-0.4,0.2-0.6,0.7-0.8,1.4l-1.6-0.2
		c0.1-0.7,0.3-1.3,0.7-1.6c0.3-0.5,0.8-0.7,1.4-0.9c0.6-0.2,1.4-0.3,2.2-0.3c0.8,0,1.5,0.1,2,0.2c0.5,0.2,0.9,0.5,1.2,0.7
		c0.2,0.4,0.5,0.7,0.5,1.2c0,0.2,0.1,0.8,0.1,1.5v2.2c0,1.5,0,2.5,0.1,2.9c0.1,0.3,0.2,0.8,0.5,1.2h-1.8
		C533.8,498.2,533.6,497.9,533.6,497.4z M533.4,493.7c-0.6,0.2-1.5,0.5-2.7,0.6c-0.7,0.1-1.2,0.2-1.4,0.3c-0.2,0.1-0.5,0.3-0.7,0.6
		c-0.1,0.2-0.2,0.5-0.2,0.8c0,0.5,0.1,0.8,0.5,1c0.3,0.2,0.8,0.5,1.4,0.5c0.6,0,1.2-0.1,1.6-0.5c0.5-0.2,0.8-0.7,1-1.2
		c0.2-0.4,0.2-0.9,0.2-1.6v-0.6H533.4z"/>
	<path d="M541.2,497.2l0.2,1.4c-0.5,0.1-0.9,0.1-1.3,0.1c-0.6,0-1-0.1-1.4-0.2c-0.4-0.1-0.6-0.5-0.7-0.7c-0.1-0.4-0.2-0.9-0.2-2
		v-5.6h-1.2v-1.3h1.2v-2.5l1.6-0.9v3.4h1.6v1.3h-1.6v5.7c0,0.5,0,0.8,0.1,0.9c0,0.1,0.1,0.2,0.2,0.3c0.1,0.1,0.3,0.1,0.6,0.1
		C540.8,497.2,541,497.2,541.2,497.2z"/>
	<path d="M542.8,487.1v-1.9h1.6v1.9H542.8z M542.8,498.6v-9.7h1.6v9.7H542.8z"/>
	<path d="M546.3,493.8c0-1.8,0.5-3.1,1.5-4c0.8-0.7,1.9-1,3-1c1.3,0,2.5,0.5,3.3,1.3s1.3,2.1,1.3,3.6c0,1.3-0.2,2.2-0.6,2.9
		c-0.3,0.7-0.9,1.3-1.6,1.6c-0.7,0.4-1.5,0.6-2.3,0.6c-1.4,0-2.5-0.5-3.3-1.3C546.8,496.6,546.3,495.4,546.3,493.8z M548.1,493.8
		c0,1.3,0.2,2.2,0.8,2.8c0.6,0.6,1.2,0.9,2.1,0.9c0.8,0,1.5-0.3,2-0.9c0.6-0.6,0.8-1.5,0.8-2.8c0-1.2-0.2-2.1-0.8-2.7
		c-0.6-0.6-1.2-0.9-2-0.9c-0.8,0-1.5,0.4-2.1,0.9C548.3,491.6,548.1,492.5,548.1,493.8z"/>
	<path d="M557.3,498.6v-9.7h1.5v1.4c0.7-1,1.8-1.6,3-1.6c0.6,0,1.2,0.1,1.6,0.3c0.5,0.2,0.8,0.5,1,0.8c0.2,0.3,0.5,0.7,0.5,1.2
		c0.1,0.4,0.1,0.8,0.1,1.6v6h-1.6v-5.8c0-0.7-0.1-1.2-0.2-1.5c-0.1-0.4-0.4-0.6-0.7-0.8c-0.4-0.2-0.7-0.4-1.2-0.4
		c-0.7,0-1.3,0.2-1.9,0.7c-0.5,0.5-0.8,1.3-0.8,2.6v5.2L557.3,498.6L557.3,498.6z"/>
</g>
<g>
	<line style="fill:none;" x1="480.4" y1="392" x2="199.8" y2="209"/>
	<g>
		<line style="fill:none;stroke:#00FF00;stroke-width:2;stroke-miterlimit:10;" x1="480.4" y1="392" x2="478.4" y2="390.8"/>
		
			<line style="fill:none;stroke:#00FF00;stroke-width:2;stroke-miterlimit:10;stroke-dasharray:3.9541,3.9541;" x1="474.6" y1="388.2" x2="206" y2="213.1"/>
		<line style="fill:none;stroke:#00FF00;stroke-width:2;stroke-miterlimit:10;" x1="204.2" y1="211.8" x2="202.2" y2="210.5"/>
		<g>
			<path style="fill:#00FF00;" d="M221.7,209.8c0,0.7-0.6,1.2-1.2,1.2l-17.9-0.2L210,227c0.2,0.6,0,1.3-0.6,1.5
				c-0.6,0.2-1.3,0-1.5-0.6l-8.2-18c-0.1-0.4-0.1-0.8,0.1-1.2s0.6-0.6,0.9-0.6l19.7,0.2c0.2,0,0.5,0.1,0.6,0.2
				C221.4,209.1,221.7,209.5,221.7,209.8z"/>
		</g>
	</g>
</g>
<g>
	<line style="fill:none;" x1="171" y1="230" x2="464.1" y2="421.2"/>
	<g>
		<line style="fill:none;stroke:#00FF00;stroke-width:2;stroke-miterlimit:10;" x1="171" y1="230" x2="173" y2="231.3"/>
		
			<line style="fill:none;stroke:#00FF00;stroke-width:2;stroke-miterlimit:10;stroke-dasharray:4.0201,4.0201;" x1="177" y1="233.9" x2="457.8" y2="417.1"/>
		<line style="fill:none;stroke:#00FF00;stroke-width:2;stroke-miterlimit:10;" x1="459.8" y1="418.4" x2="461.8" y2="419.7"/>
		<g>
			<path style="fill:#00FF00;" d="M442.3,420.3c0-0.7,0.6-1.2,1.2-1.2l17.9,0.2l-7.4-16.2c-0.2-0.6,0-1.3,0.6-1.5
				c0.6-0.2,1.3,0,1.5,0.6l8.2,18c0.1,0.4,0.1,0.8-0.1,1.2c-0.2,0.3-0.6,0.6-0.9,0.6l-19.7-0.2c-0.2,0-0.5-0.1-0.6-0.2
				C442.5,421.1,442.3,420.8,442.3,420.3z"/>
		</g>
	</g>
</g>
<g>
	<line style="fill:none;" x1="297.6" y1="256.2" x2="460.9" y2="362.4"/>
	<path d="M329.1,276.8l5.5-8.4l3.7,2.5c0.7,0.5,1.3,0.9,1.5,1.3c0.2,0.4,0.5,0.8,0.5,1.4c0,0.6-0.1,1-0.5,1.5
		c-0.3,0.6-0.9,0.9-1.5,1.2c-0.6,0.2-1.4,0-2.3-0.4c0.2,0.4,0.3,0.6,0.3,0.8c0.1,0.5,0.2,1,0.2,1.8v3.3l-1.4-0.9v-2.5
		c0-0.7,0-1.3,0-1.6c0-0.4-0.1-0.7-0.2-0.9c-0.1-0.2-0.2-0.4-0.3-0.6c-0.1-0.1-0.3-0.2-0.6-0.5l-1.3-0.8l-2.5,3.7L329.1,276.8z
		 M333.3,272.8l2.3,1.5c0.5,0.4,0.9,0.6,1.3,0.6c0.4,0,0.7,0,0.9-0.1c0.3-0.1,0.6-0.4,0.7-0.6c0.2-0.3,0.3-0.8,0.2-1.3
		c-0.1-0.5-0.5-0.8-1.2-1.3l-2.7-1.8L333.3,272.8z"/>
	<path d="M342.9,283l0.9,0.8c-0.6,0.5-1.2,0.8-1.9,0.8s-1.4-0.1-2.1-0.6c-0.9-0.6-1.4-1.3-1.6-2.2c-0.1-0.9,0.1-1.9,0.7-2.8
		c0.7-1,1.4-1.6,2.3-1.9s1.8-0.1,2.6,0.5c0.8,0.6,1.3,1.3,1.4,2.1c0.1,0.8-0.1,1.9-0.7,2.8c0,0.1-0.1,0.1-0.2,0.2l-4.5-2.9
		c-0.3,0.7-0.6,1.3-0.5,1.9c0.1,0.6,0.5,1,0.9,1.4c0.4,0.2,0.8,0.4,1.2,0.4C342.1,283.4,342.5,283.3,342.9,283z M340.7,279.1
		l3.4,2.2c0.2-0.6,0.3-1.1,0.3-1.4c-0.1-0.6-0.3-1.1-0.9-1.4c-0.5-0.3-0.9-0.3-1.5-0.3C341.4,278.2,341,278.5,340.7,279.1z"/>
	<path d="M346.4,291.2l2-3c-0.4,0.1-0.7,0.1-1,0.1c-0.4,0-0.7-0.1-1.1-0.4c-0.7-0.5-1.2-1.2-1.3-2.1c-0.1-0.9,0.1-1.9,0.8-2.9
		c0.3-0.6,0.8-1,1.4-1.4c0.6-0.4,1-0.5,1.6-0.5c0.6,0,1.1,0.1,1.5,0.5c0.7,0.5,1.2,1.2,1.2,2.1l0.6-0.8l0.9,0.6l-5.5,8.4
		L346.4,291.2z M346.7,283.8c-0.5,0.8-0.7,1.5-0.7,2.1c0.1,0.6,0.3,1.1,0.8,1.4c0.5,0.2,0.9,0.4,1.5,0.2c0.6-0.1,1-0.6,1.6-1.4
		c0.6-0.8,0.7-1.5,0.7-2.1c-0.1-0.6-0.3-1-0.8-1.4c-0.5-0.2-0.9-0.4-1.5-0.1C347.8,282.5,347.2,283,346.7,283.8z"/>
	<path d="M354.5,293.2l0.6-0.9c-0.9,0.4-1.8,0.4-2.6-0.2c-0.3-0.2-0.7-0.5-0.8-0.8c-0.2-0.4-0.3-0.7-0.3-0.9c0-0.4,0-0.6,0.2-0.9
		c0.1-0.2,0.2-0.6,0.6-1l2.5-3.7l1,0.7l-2.2,3.4c-0.4,0.6-0.6,0.9-0.7,1.2c-0.1,0.4-0.1,0.6,0,0.9c0.1,0.2,0.3,0.6,0.6,0.7
		c0.4,0.2,0.7,0.4,1.1,0.4c0.3,0,0.7-0.1,1-0.2c0.2-0.2,0.6-0.6,0.9-1l2.1-3.3l1,0.7l-4,6.1L354.5,293.2z"/>
	<path d="M362.5,295.7l0.9,0.8c-0.6,0.5-1.2,0.8-1.9,0.8s-1.4-0.1-2.1-0.6c-0.9-0.6-1.4-1.3-1.6-2.2c-0.1-0.9,0.1-1.9,0.7-2.8
		c0.7-1,1.4-1.6,2.3-1.9s1.8-0.1,2.6,0.5c0.8,0.6,1.3,1.3,1.4,2.1c0.1,0.8-0.1,1.9-0.7,2.8c0,0.1-0.1,0.1-0.2,0.2l-4.6-2.9
		c-0.3,0.7-0.6,1.3-0.5,1.9s0.5,1,0.9,1.4c0.3,0.2,0.8,0.4,1.2,0.4C361.7,296.1,362.1,296,362.5,295.7z M360.3,291.8l3.4,2.2
		c0.2-0.6,0.3-1,0.3-1.4c-0.1-0.6-0.3-1-0.9-1.4c-0.5-0.4-0.9-0.4-1.5-0.4C361,290.9,360.6,291.2,360.3,291.8z"/>
	<path d="M364.3,297.1l1.2,0.5c-0.2,0.5-0.2,0.8-0.1,1.3c0.1,0.3,0.5,0.7,0.9,1c0.5,0.4,0.9,0.5,1.3,0.4c0.3,0,0.6-0.2,0.8-0.5
		c0.1-0.2,0.1-0.5,0-0.7c-0.1-0.2-0.4-0.6-0.8-1c-0.6-0.7-1.1-1.2-1.3-1.5s-0.3-0.7-0.2-1c0.1-0.4,0.1-0.7,0.3-0.9
		c0.2-0.2,0.3-0.5,0.7-0.6c0.2-0.1,0.6-0.2,0.9-0.2c0.2,0,0.5,0,0.8,0.1c0.3,0.1,0.7,0.2,0.9,0.5c0.5,0.4,0.8,0.7,1.2,1.1
		c0.4,0.3,0.5,0.7,0.5,1c0,0.3-0.1,0.7-0.2,1.2l-1-0.5c0.1-0.4,0.2-0.7,0.1-1.1c-0.1-0.4-0.3-0.6-0.8-0.8c-0.5-0.4-0.8-0.5-1.2-0.5
		s-0.6,0.1-0.7,0.4c-0.1,0.1-0.1,0.2-0.1,0.5c0,0.1,0.1,0.4,0.2,0.6c0.1,0.1,0.4,0.3,0.7,0.8c0.6,0.7,1,1.2,1.2,1.5
		c0.1,0.4,0.3,0.6,0.3,0.9s-0.1,0.7-0.3,1c-0.2,0.4-0.6,0.6-0.9,0.8c-0.4,0.1-0.8,0.2-1.3,0.1c-0.5-0.1-0.9-0.2-1.4-0.6
		c-0.8-0.5-1.3-1-1.5-1.6S364.1,297.8,364.3,297.1z"/>
	<path d="M372.4,303.5l-0.5,1c-0.4-0.1-0.6-0.2-0.8-0.5c-0.4-0.2-0.6-0.5-0.7-0.7s-0.1-0.5-0.1-0.7s0.2-0.7,0.7-1.3l2.2-3.5
		l-0.7-0.5l0.5-0.8l0.7,0.5l0.9-1.5h1.4l-1.4,2.1l1,0.7l-0.5,0.8l-1-0.7l-2.3,3.6c-0.2,0.4-0.3,0.5-0.3,0.6s0,0.2,0,0.4
		s0.1,0.2,0.3,0.4C372,303.4,372.2,303.5,372.4,303.5z"/>
	<path d="M387.1,302.5l1.2,0.7l-3.1,4.9c-0.6,0.8-1.1,1.4-1.6,1.9c-0.5,0.4-1.2,0.6-1.9,0.6c-0.7,0-1.4-0.2-2.2-0.8
		c-0.8-0.5-1.4-1-1.6-1.6c-0.3-0.6-0.5-1.2-0.3-1.9s0.5-1.4,1-2.3l3.2-4.9l1.2,0.7l-3.2,4.9c-0.5,0.7-0.7,1.3-0.8,1.8
		c-0.1,0.5,0,0.8,0.2,1.3c0.2,0.4,0.6,0.7,1,1c0.8,0.6,1.5,0.7,2.1,0.6c0.6-0.1,1.3-0.7,1.9-1.8L387.1,302.5z"/>
	<path d="M384.6,312.8l5.5-8.4l3.7,2.5c0.7,0.5,1.3,0.9,1.5,1.3s0.5,0.8,0.5,1.4s-0.1,1-0.5,1.5c-0.4,0.6-0.9,0.9-1.5,1.2
		c-0.6,0.2-1.4,0-2.3-0.3c0.2,0.3,0.4,0.6,0.4,0.8c0.1,0.5,0.2,1,0.2,1.8v3.3l-1.4-0.9v-2.5c0-0.7,0-1.3,0-1.6
		c0-0.4-0.1-0.7-0.2-0.9c-0.1-0.2-0.2-0.4-0.3-0.6c-0.1-0.1-0.4-0.2-0.6-0.5l-1.3-0.8l-2.4,3.7L384.6,312.8z M388.8,308.9l2.3,1.5
		c0.5,0.4,0.9,0.6,1.3,0.6c0.4,0,0.7,0,0.9-0.1c0.3-0.1,0.6-0.4,0.7-0.6c0.2-0.4,0.3-0.8,0.2-1.3c-0.1-0.5-0.5-0.8-1.2-1.3l-2.7-1.8
		L388.8,308.9z"/>
	<path d="M393.3,318.4l5.5-8.4l1.2,0.7l-5.5,8.4L393.3,318.4z"/>
	<path d="M399.9,326.2c-0.1-1,0-2.2,0.2-3.5c0.2-1.2,0.7-2.3,1.4-3.4c0.6-0.9,1.3-1.6,2.1-2.3c0.9-0.7,2.1-1.4,3.5-1.9l0.7,0.5
		c-0.9,0.5-1.6,0.8-2,1c-0.6,0.4-1.2,0.8-1.6,1.3c-0.6,0.6-1.2,1.3-1.6,2c-1.2,1.9-1.9,4.1-1.9,6.6L399.9,326.2z"/>
	<path d="M403.5,325.1l5.5-8.4l1.2,0.7l-2.2,3.5l4.3,2.8l2.2-3.5l1.2,0.7l-5.5,8.4l-1.2-0.7l2.6-4l-4.3-2.8l-2.6,4L403.5,325.1z"/>
	<path d="M414.2,332l4.8-7.5l-2.8-1.8l0.7-1l6.7,4.3l-0.7,1l-2.8-1.8l-4.8,7.5L414.2,332z"/>
	<path d="M421.4,336.6l4.8-7.5l-2.8-1.8l0.7-1l6.7,4.3l-0.7,1.1l-2.8-1.8l-4.8,7.5L421.4,336.6z"/>
	<path d="M426.4,339.9l5.5-8.4l3.2,2.1c0.6,0.4,0.9,0.7,1.3,0.9c0.4,0.4,0.6,0.7,0.8,1.1c0.2,0.3,0.2,0.8,0.1,1.3
		c0,0.5-0.2,0.9-0.5,1.3c-0.5,0.7-1,1.2-1.9,1.4c-0.8,0.2-1.8-0.1-2.9-0.8l-2.1-1.4l-2.2,3.4L426.4,339.9z M430.4,336.3l2.2,1.4
		c0.7,0.5,1.3,0.7,1.8,0.6c0.5-0.1,0.8-0.4,1.2-0.8c0.2-0.4,0.4-0.7,0.4-1c0-0.4-0.1-0.7-0.4-0.9c-0.1-0.1-0.5-0.5-0.9-0.7l-2.1-1.4
		L430.4,336.3z"/>
	<path d="M433.2,347.8l-0.7-0.5c2.3-1,4.1-2.6,5.2-4.4c0.5-0.7,0.8-1.5,1.2-2.3c0.2-0.7,0.5-1.3,0.6-2c0.1-0.5,0.1-1.2,0.2-2.3
		l0.7,0.5c0.1,1.4,0,2.7-0.2,4c-0.2,1.1-0.7,2-1.3,2.9c-0.7,1-1.5,1.9-2.6,2.6C435.2,347,434.2,347.5,433.2,347.8z"/>
</g>
<g>
	<line style="fill:none;" x1="245.8" y1="305.2" x2="409.1" y2="411.3"/>
	<path d="M277.3,325.8l5.5-8.4l3.7,2.5c0.7,0.5,1.3,0.9,1.5,1.3s0.5,0.8,0.5,1.4c0,0.6-0.1,1-0.5,1.5c-0.4,0.6-0.9,0.9-1.5,1.2
		c-0.6,0.2-1.4,0-2.3-0.4c0.2,0.4,0.4,0.6,0.4,0.8c0.1,0.5,0.2,1,0.2,1.8v3.3l-1.4-0.9v-2.4c0-0.7,0-1.3,0-1.6
		c0-0.4-0.1-0.7-0.2-0.9c-0.1-0.2-0.2-0.4-0.4-0.6c-0.1-0.1-0.4-0.2-0.6-0.5l-1.3-0.8l-2.5,3.7L277.3,325.8z M281.5,321.8l2.3,1.5
		c0.5,0.3,0.9,0.6,1.3,0.6s0.7,0,0.9-0.1c0.4-0.1,0.6-0.4,0.7-0.6c0.2-0.4,0.3-0.8,0.2-1.3s-0.5-0.8-1.2-1.3l-2.7-1.8L281.5,321.8z"
		/>
	<path d="M291.1,331.9l0.9,0.8c-0.6,0.5-1.2,0.8-1.9,0.8s-1.4-0.1-2.1-0.6c-0.9-0.6-1.4-1.3-1.6-2.2c-0.1-0.9,0.1-1.9,0.7-2.8
		c0.7-1,1.4-1.6,2.3-1.9c0.9-0.2,1.8-0.1,2.6,0.5c0.8,0.6,1.3,1.3,1.4,2.1c0.1,0.8-0.1,1.9-0.7,2.8c0,0.1-0.1,0.1-0.2,0.2l-4.5-2.9
		c-0.4,0.7-0.6,1.3-0.5,1.9c0.1,0.6,0.5,1,0.9,1.4c0.4,0.2,0.8,0.4,1.2,0.4C290.3,332.4,290.7,332.2,291.1,331.9z M288.9,328
		l3.4,2.2c0.2-0.6,0.4-1,0.4-1.4c-0.1-0.6-0.4-1-0.9-1.4c-0.5-0.4-0.9-0.4-1.5-0.4C289.6,327.1,289.2,327.5,288.9,328z"/>
	<path d="M293,333.4l1.2,0.5c-0.2,0.5-0.2,0.8-0.1,1.3c0.1,0.4,0.5,0.7,0.9,1c0.5,0.4,0.9,0.5,1.3,0.4c0.4,0,0.6-0.2,0.8-0.5
		c0.1-0.2,0.1-0.5,0-0.7s-0.4-0.6-0.8-1c-0.6-0.7-1-1.2-1.3-1.5c-0.2-0.4-0.4-0.7-0.2-1c0.1-0.3,0.1-0.7,0.3-0.9
		c0.2-0.2,0.4-0.5,0.7-0.6c0.2-0.1,0.6-0.2,0.9-0.2c0.2,0,0.5,0,0.8,0.1c0.4,0.1,0.7,0.2,0.9,0.5c0.5,0.4,0.8,0.7,1.2,1
		s0.5,0.7,0.5,1c0,0.4-0.1,0.7-0.2,1.2l-1-0.5c0.1-0.4,0.2-0.7,0.1-1c-0.1-0.4-0.4-0.6-0.8-0.8c-0.5-0.3-0.8-0.5-1.2-0.5
		s-0.6,0.1-0.7,0.4c-0.1,0.1-0.1,0.2-0.1,0.5c0,0.1,0.1,0.4,0.2,0.6c0.1,0.1,0.4,0.4,0.7,0.8c0.6,0.7,1,1.2,1.2,1.5
		c0.1,0.4,0.3,0.6,0.3,0.9s-0.1,0.7-0.3,1c-0.2,0.4-0.6,0.6-0.9,0.8c-0.4,0.1-0.8,0.2-1.3,0.1c-0.5-0.1-0.9-0.2-1.4-0.6
		c-0.8-0.5-1.3-1-1.5-1.6C292.8,334.9,292.7,334.1,293,333.4z"/>
	<path d="M296.6,341.5l5.5-8.4l0.9,0.6l-0.5,0.8c0.5-0.1,0.8-0.2,1.2-0.2c0.3,0,0.8,0.1,1.2,0.5c0.5,0.4,0.9,0.8,1.2,1.3
		c0.2,0.5,0.2,1,0.1,1.8c-0.1,0.6-0.3,1.2-0.7,1.8c-0.4,0.6-0.9,1.2-1.4,1.5c-0.6,0.4-1.2,0.5-1.8,0.5s-1.2-0.1-1.6-0.5
		c-0.3-0.2-0.6-0.5-0.8-0.8c-0.2-0.3-0.2-0.7-0.3-0.9l-1.9,2.9L296.6,341.5z M301,336.8c-0.5,0.8-0.7,1.5-0.7,2.1
		c0.1,0.6,0.3,1,0.8,1.3c0.5,0.4,0.9,0.4,1.5,0.2c0.6-0.1,1.2-0.7,1.6-1.5c0.5-0.8,0.7-1.5,0.7-2.1c-0.1-0.6-0.3-1-0.8-1.3
		c-0.5-0.2-0.9-0.4-1.5-0.1C302,335.6,301.5,336,301,336.8z"/>
	<path d="M306.2,340.1c0.7-1.2,1.6-1.8,2.6-1.9c0.8-0.1,1.6,0.1,2.3,0.6c0.8,0.6,1.4,1.3,1.5,2.1c0.1,0.9,0,1.9-0.7,2.8
		c-0.5,0.8-1,1.3-1.5,1.6c-0.6,0.4-1,0.5-1.8,0.4c-0.6,0-1.2-0.2-1.8-0.6c-0.8-0.6-1.4-1.3-1.5-2.2
		C305.3,342.1,305.5,341.2,306.2,340.1z M307.3,340.8c-0.5,0.8-0.7,1.5-0.6,2.1c0.1,0.6,0.3,1.1,0.9,1.4c0.5,0.3,1,0.5,1.6,0.2
		c0.6-0.1,1.2-0.7,1.6-1.4c0.5-0.7,0.7-1.4,0.6-2.1c-0.1-0.6-0.3-1-0.9-1.4c-0.5-0.4-1-0.5-1.6-0.2
		C308.3,339.5,307.8,340,307.3,340.8z"/>
	<path d="M311.1,347.7l4-6.1l0.9,0.6l-0.6,0.8c0.9-0.4,1.8-0.4,2.6,0.2c0.3,0.2,0.7,0.5,0.9,0.8c0.2,0.4,0.3,0.7,0.3,0.9
		c0,0.4,0,0.6-0.1,0.9c-0.1,0.2-0.2,0.6-0.6,1.1l-2.5,3.7l-1-0.7l2.4-3.7c0.2-0.5,0.5-0.8,0.5-1c0-0.2,0-0.5-0.1-0.8
		c-0.1-0.2-0.4-0.5-0.6-0.7c-0.5-0.2-0.9-0.4-1.4-0.4c-0.5,0-1,0.5-1.5,1.3l-2.2,3.4L311.1,347.7z"/>
	<path d="M318.5,349.8l1.2,0.5c-0.2,0.5-0.2,0.8-0.1,1.3c0.1,0.4,0.5,0.7,0.9,1c0.5,0.4,0.9,0.5,1.3,0.4c0.4,0,0.6-0.2,0.8-0.5
		c0.1-0.2,0.1-0.5,0-0.7s-0.3-0.6-0.8-1c-0.6-0.7-1-1.2-1.3-1.5c-0.2-0.4-0.4-0.7-0.2-1.1c0.1-0.3,0.1-0.7,0.4-0.9
		c0.2-0.2,0.3-0.5,0.7-0.6c0.2-0.1,0.6-0.2,0.9-0.2c0.2,0,0.5,0,0.8,0.1c0.3,0.1,0.7,0.2,0.9,0.5c0.5,0.4,0.8,0.7,1.2,1
		c0.3,0.4,0.5,0.7,0.5,1c0,0.4-0.1,0.7-0.2,1.2l-1-0.5c0.1-0.4,0.2-0.7,0.1-1c-0.1-0.4-0.3-0.6-0.8-0.8c-0.5-0.4-0.8-0.5-1.2-0.5
		c-0.4,0-0.6,0.1-0.7,0.4c-0.1,0.1-0.1,0.2-0.1,0.5c0,0.1,0.1,0.4,0.2,0.6c0.1,0.1,0.3,0.4,0.7,0.8c0.6,0.7,1,1.2,1.2,1.5
		s0.4,0.6,0.4,0.9c0,0.3-0.1,0.7-0.4,1c-0.2,0.4-0.6,0.6-0.9,0.8c-0.3,0.1-0.8,0.2-1.3,0.1c-0.5-0.1-0.9-0.2-1.4-0.6
		c-0.8-0.5-1.3-1.1-1.5-1.6C318.4,351.3,318.1,350.5,318.5,349.8z"/>
	<path d="M329,356.5l0.9,0.8c-0.6,0.5-1.2,0.8-1.9,0.8c-0.7,0-1.4-0.1-2.1-0.6c-0.9-0.6-1.4-1.3-1.6-2.2c-0.1-0.9,0.1-1.9,0.7-2.8
		c0.7-1,1.4-1.6,2.3-1.9s1.8-0.1,2.6,0.5c0.8,0.6,1.3,1.3,1.4,2.1c0.1,0.8-0.1,1.9-0.7,2.8c0,0.1-0.1,0.1-0.2,0.2l-4.5-2.9
		c-0.3,0.7-0.6,1.3-0.5,1.9c0.1,0.6,0.5,1,0.9,1.4c0.3,0.2,0.8,0.4,1.2,0.4C328.2,357,328.5,356.8,329,356.5z M326.7,352.6l3.4,2.2
		c0.2-0.6,0.3-1.1,0.3-1.4c-0.1-0.6-0.3-1-0.9-1.4c-0.5-0.4-0.9-0.4-1.5-0.4C327.6,351.8,327.1,352.1,326.7,352.6z"/>
	<path d="M333.8,365.9c-0.1-1,0-2.2,0.2-3.5c0.2-1.2,0.7-2.3,1.4-3.4c0.6-0.9,1.3-1.6,2.1-2.3c0.9-0.7,2.1-1.4,3.5-1.9l0.7,0.5
		c-0.9,0.5-1.6,0.8-2,1c-0.6,0.4-1.2,0.8-1.6,1.3c-0.6,0.6-1.2,1.3-1.6,2c-1.2,1.9-1.9,4.1-1.9,6.6L333.8,365.9z"/>
	<path d="M337.5,364.8l5.5-8.4l1.2,0.7l-2.2,3.5l4.3,2.8l2.2-3.5l1.2,0.7l-5.5,8.4l-1.2-0.7l2.6-4l-4.3-2.8l-2.6,4L337.5,364.8z"/>
	<path d="M348,371.6l4.8-7.5l-2.8-1.8l0.7-1l6.7,4.3l-0.7,1l-2.8-1.8l-4.8,7.5L348,371.6z"/>
	<path d="M355.2,376.3l4.8-7.5l-2.8-1.8l0.7-1l6.6,4.3l-0.7,1l-2.8-1.8l-4.8,7.5L355.2,376.3z"/>
	<path d="M360.3,379.6l5.5-8.4l3.1,2.1c0.6,0.4,0.9,0.7,1.3,0.9c0.3,0.4,0.6,0.7,0.8,1.1c0.2,0.3,0.2,0.8,0.1,1.3
		c0,0.5-0.2,0.9-0.5,1.3c-0.5,0.7-1,1.2-1.9,1.4c-0.8,0.2-1.8-0.1-2.9-0.8l-2.1-1.4l-2.2,3.4L360.3,379.6z M364.2,375.8l2.2,1.4
		c0.7,0.5,1.3,0.7,1.8,0.6c0.5-0.1,0.8-0.4,1.2-0.8c0.2-0.4,0.3-0.7,0.3-1c0-0.4-0.1-0.7-0.3-0.9c-0.1-0.1-0.5-0.5-0.9-0.7l-2.1-1.4
		L364.2,375.8z"/>
	<path d="M367,387.5l-0.7-0.5c2.3-1,4.1-2.6,5.2-4.4c0.5-0.7,0.8-1.5,1.2-2.3c0.2-0.7,0.5-1.3,0.6-2c0.1-0.5,0.1-1.2,0.2-2.3
		l0.7,0.5c0.1,1.4,0,2.7-0.2,4c-0.2,1-0.7,2-1.3,2.9c-0.7,1-1.5,1.9-2.6,2.6S368.1,387.1,367,387.5z"/>
</g>
<g>
	<g>
		<path style="fill:#666666;" d="M508.4,517.8c-0.7-0.8-1.3-1.9-1.8-3c-0.5-1.2-0.7-2.3-0.7-3.6c0-1,0.1-2.1,0.5-3.2
			c0.3-1.2,1-2.3,1.9-3.5h0.9c-0.6,0.9-0.9,1.6-1,2c-0.2,0.6-0.5,1.3-0.6,2c-0.2,0.8-0.2,1.8-0.2,2.6c0,2.2,0.7,4.4,2.1,6.5
			L508.4,517.8z"/>
		<path style="fill:#666666;" d="M510.9,514.9l-0.1-10h4.4c0.9,0,1.5,0.1,2,0.2c0.5,0.2,0.8,0.5,1.2,0.9c0.2,0.5,0.5,0.9,0.5,1.5
			c0,0.7-0.2,1.3-0.7,1.8c-0.5,0.5-1.2,0.8-2.1,0.9c0.3,0.1,0.6,0.3,0.8,0.5c0.3,0.4,0.8,0.8,1.2,1.3l1.8,2.7h-1.6l-1.4-2.1
			c-0.3-0.6-0.7-1.1-0.9-1.4c-0.2-0.4-0.5-0.6-0.7-0.7s-0.3-0.2-0.6-0.2c-0.1,0-0.3,0-0.7,0h-1.5v4.4L510.9,514.9z M512.2,509.3h2.8
			c0.6,0,1.1-0.1,1.4-0.2c0.3-0.1,0.6-0.4,0.8-0.6s0.2-0.6,0.2-0.9c0-0.5-0.2-0.8-0.6-1.2c-0.4-0.4-0.9-0.5-1.6-0.5H512L512.2,509.3
			z"/>
		<path style="fill:#666666;" d="M525.6,514.8v-1c-0.6,0.8-1.3,1.3-2.3,1.3c-0.5,0-0.8-0.1-1.2-0.2s-0.7-0.3-0.8-0.6
			c-0.2-0.2-0.4-0.6-0.4-0.9c0-0.2-0.1-0.6-0.1-1.2v-4.6h1.3v4.1c0,0.7,0,1,0.1,1.3c0.1,0.3,0.2,0.6,0.5,0.7
			c0.2,0.1,0.6,0.2,0.9,0.2s0.7-0.1,1-0.3s0.6-0.5,0.7-0.8c0.1-0.4,0.2-0.8,0.2-1.4v-3.8h1.3l0.1,7.2L525.6,514.8z"/>
		<path style="fill:#666666;" d="M529.7,514.7h-1.2l-0.1-10h1.3v3.6c0.5-0.7,1.2-0.9,2-1c0.5,0,0.8,0.1,1.3,0.2s0.7,0.5,0.9,0.7
			c0.2,0.2,0.5,0.7,0.6,1.2c0.1,0.5,0.2,0.9,0.2,1.5c0,1.3-0.2,2.2-0.9,2.9c-0.7,0.7-1.4,1-2.2,1c-0.8,0-1.5-0.3-2-1L529.7,514.7z
			 M529.7,511c0,0.8,0.1,1.5,0.4,1.9c0.3,0.6,0.9,0.9,1.6,0.9c0.6,0,1-0.2,1.4-0.7s0.6-1.2,0.6-2.1s-0.2-1.6-0.6-2.1
			c-0.3-0.5-0.8-0.7-1.4-0.7s-1,0.2-1.4,0.7C529.9,509.4,529.7,510.1,529.7,511z"/>
		<path style="fill:#666666;" d="M536.3,517.5l-0.1-1.2c0.2,0.1,0.5,0.1,0.7,0.1c0.2,0,0.5,0,0.7-0.1c0.1-0.1,0.4-0.2,0.4-0.3
			c0.1-0.1,0.2-0.5,0.3-0.9c0-0.1,0-0.1,0.1-0.3l-2.8-7.2h1.3l1.5,4.2c0.2,0.6,0.4,1,0.6,1.6c0.1-0.6,0.3-1.2,0.5-1.6l1.5-4.2h1.3
			l-2.7,7.3c-0.2,0.8-0.5,1.4-0.7,1.6c-0.2,0.4-0.5,0.7-0.7,0.9s-0.6,0.2-1,0.3C536.9,517.6,536.7,517.6,536.3,517.5z"/>
		<path style="fill:#666666;" d="M544.2,517.6h-0.9c1.4-2.2,2-4.4,2-6.5c0-0.8-0.1-1.8-0.3-2.6c-0.1-0.7-0.3-1.3-0.7-2
			c-0.2-0.5-0.6-1.1-1.2-2.1h0.9c0.8,1.2,1.5,2.3,2,3.4c0.3,0.9,0.6,2,0.6,3.2c0,1.3-0.2,2.4-0.7,3.6
			C545.4,515.6,544.8,516.7,544.2,517.6z"/>
	</g>
</g>
<g>
	<g>
		<rect x="47.7" y="309.9" style="fill:none;" width="126.5" height="210.6"/>
		<path d="M48.6,324.7v-12.8h2.7v1h-1.5v10.7h1.5v1L48.6,324.7L48.6,324.7z"/>
		<path d="M59.7,334.5c0.3,0,0.6-0.1,0.8-0.2c0.2-0.1,0.3-0.5,0.5-0.7c0.1-0.2,0.1-0.8,0.1-1.6s0-1.3,0-1.5c0-0.4,0.1-0.7,0.2-0.9
			c0.1-0.2,0.2-0.5,0.5-0.6c0.2-0.1,0.3-0.2,0.6-0.3c0.1,0,0.5-0.1,0.8-0.1h0.3v1.1h-0.2c-0.5,0-0.8,0.1-0.9,0.2
			c-0.1,0.1-0.2,0.6-0.2,1.2c0,1.2,0,2-0.1,2.2c-0.1,0.5-0.2,0.8-0.5,1.2c-0.2,0.4-0.5,0.5-0.9,0.7c0.5,0.2,0.8,0.6,1.1,0.9
			s0.3,1.2,0.3,2.1c0,0.9,0,1.4,0,1.6c0,0.4,0.1,0.6,0.2,0.7c0.1,0.1,0.5,0.2,0.8,0.2h0.2v1H63c-0.5,0-0.8,0-0.9-0.1
			c-0.2-0.1-0.6-0.2-0.7-0.5c-0.1-0.2-0.3-0.6-0.3-0.9s-0.1-0.9-0.1-1.8c0-0.8,0-1.4-0.1-1.8s-0.2-0.6-0.5-0.7
			c-0.2-0.1-0.5-0.2-0.8-0.2v-1.2H59.7z"/>
		<path d="M72,349l-0.3-1.9v-1.6H73v1.6l-0.3,1.9H72z M74.3,349l-0.3-1.9v-1.6h1.4v1.6L75,349H74.3z"/>
		<path d="M76.9,355.5v-10h1.3v3.6c0.6-0.7,1.3-1,2.2-1c0.6,0,1.1,0.1,1.4,0.4c0.3,0.2,0.7,0.5,0.8,0.9c0.1,0.5,0.2,0.9,0.2,1.6v4.5
			h-1.3V351c0-0.6-0.1-1-0.3-1.4c-0.2-0.4-0.7-0.5-1.2-0.5c-0.3,0-0.7,0.1-1.1,0.2c-0.3,0.1-0.6,0.5-0.7,0.8
			c-0.1,0.4-0.2,0.8-0.2,1.3v4h-1.2V355.5z"/>
		<path d="M84.2,351.9c0-1.4,0.3-2.3,1.2-3c0.6-0.6,1.4-0.8,2.3-0.8c1,0,1.9,0.4,2.4,0.9c0.6,0.6,0.9,1.5,0.9,2.7
			c0,0.9-0.1,1.6-0.5,2.2s-0.7,0.9-1.2,1.3c-0.5,0.4-1.2,0.5-1.8,0.5c-1.1,0-1.9-0.4-2.5-0.9C84.7,354.1,84.2,353.1,84.2,351.9z
			 M85.5,351.9c0,0.9,0.2,1.6,0.6,2.1c0.4,0.5,0.9,0.7,1.5,0.7c0.6,0,1.2-0.2,1.5-0.7c0.4-0.5,0.6-1.2,0.6-2.1c0-0.9-0.2-1.6-0.6-2
			c-0.3-0.3-0.9-0.7-1.5-0.7c-0.6,0-1.2,0.2-1.5,0.7C85.8,350.4,85.5,351,85.5,351.9z"/>
		<path d="M92.5,355.5v-7.2h1v1c0.2-0.4,0.6-0.6,0.9-0.8c0.3-0.2,0.8-0.4,1.3-0.4c0.6,0,0.9,0.1,1.3,0.4c0.3,0.2,0.6,0.6,0.7,0.9
			c0.6-0.8,1.3-1.3,2.2-1.3c0.7,0,1.3,0.2,1.6,0.6c0.4,0.4,0.6,1,0.6,1.9v5H101v-4.6c0-0.5,0-0.8-0.1-1c-0.1-0.2-0.2-0.4-0.5-0.5
			c-0.2-0.1-0.5-0.2-0.7-0.2c-0.5,0-0.9,0.1-1.3,0.5c-0.3,0.4-0.5,0.7-0.5,1.5v4.2h-1.2v-4.7c0-0.6-0.1-0.9-0.3-1.3
			c-0.2-0.4-0.6-0.5-0.9-0.5c-0.3,0-0.7,0.1-0.9,0.2c-0.2,0.1-0.5,0.5-0.6,0.8c-0.1,0.4-0.2,0.8-0.2,1.5v3.7h-1.3V355.5z"/>
		<path d="M109.1,353.2l1.3,0.1c-0.2,0.7-0.6,1.3-1.2,1.8c-0.6,0.5-1.3,0.6-2.1,0.6c-1.1,0-1.9-0.4-2.6-0.9
			c-0.7-0.6-0.9-1.5-0.9-2.8c0-1.2,0.4-2.2,0.9-2.8c0.6-0.6,1.4-1.1,2.5-1.1c0.9,0,1.8,0.4,2.3,0.9c0.6,0.6,0.9,1.6,0.9,2.8
			c0,0.1,0,0.2,0,0.4H105c0,0.8,0.2,1.4,0.7,1.9s0.9,0.6,1.5,0.6c0.5,0,0.8-0.1,1.2-0.4S109,353.7,109.1,353.2z M105.1,351.2h4.1
			c0-0.6-0.2-1-0.5-1.4c-0.4-0.5-0.9-0.7-1.5-0.7c-0.6,0-1.1,0.2-1.4,0.6C105.5,350,105.1,350.5,105.1,351.2z"/>
		<path d="M112,349l-0.4-1.9v-1.6h1.4v1.6l-0.4,1.9H112z M114.2,349l-0.4-1.9v-1.6h1.4v1.6l-0.3,1.9H114.2z"/>
		<path d="M117.2,349.7v-1.4h1.4v1.4H117.2z M117.2,355.5v-1.4h1.4v1.4H117.2z"/>
		<path d="M124.7,349l-0.4-1.9v-1.6h1.4v1.6l-0.3,1.9H124.7z M127,349l-0.3-1.9v-1.6h1.4v1.6l-0.4,1.9H127z"/>
		<path d="M133.9,355.5h-1.3v-7.8c-0.3,0.2-0.7,0.6-1.2,0.8c-0.5,0.2-0.9,0.5-1.3,0.6V348c0.7-0.4,1.3-0.7,1.8-1.2
			c0.5-0.5,0.9-0.9,1.1-1.3h0.8v10H133.9z"/>
		<path d="M143.6,354.4v1.2H137c0-0.4,0-0.6,0.1-0.8c0.1-0.5,0.5-0.9,0.8-1.3c0.3-0.3,0.9-0.9,1.6-1.5c1.1-0.9,1.9-1.6,2.2-2.1
			s0.6-1,0.6-1.5c0-0.5-0.1-0.9-0.5-1.3c-0.3-0.4-0.8-0.5-1.4-0.5c-0.6,0-1.1,0.2-1.4,0.6s-0.6,0.8-0.6,1.5l-1.3-0.1
			c0.1-0.9,0.5-1.6,0.9-2.1c0.5-0.5,1.3-0.7,2.3-0.7c0.9,0,1.8,0.2,2.3,0.8c0.6,0.6,0.8,1.2,0.8,2c0,0.4-0.1,0.8-0.2,1.2
			c-0.1,0.3-0.5,0.8-0.8,1.2c-0.4,0.4-1.1,1-1.9,1.8c-0.7,0.6-1.2,1-1.4,1.3c-0.2,0.2-0.4,0.5-0.5,0.7h4.8V354.4z"/>
		<path d="M144.9,352.9l1.3-0.1c0.1,0.7,0.4,1.2,0.7,1.5c0.4,0.4,0.7,0.5,1.3,0.5c0.6,0,1.1-0.2,1.5-0.6s0.6-0.9,0.6-1.5
			c0-0.6-0.2-1-0.6-1.4c-0.4-0.4-0.8-0.6-1.4-0.6c-0.2,0-0.5,0-0.8,0.1l0.1-1c0.1,0,0.1,0,0.2,0c0.5,0,1.1-0.1,1.4-0.5
			c0.3-0.3,0.6-0.7,0.6-1.3c0-0.5-0.1-0.8-0.5-1.2c-0.3-0.4-0.7-0.5-1.2-0.5c-0.5,0-0.9,0.1-1.2,0.5c-0.2,0.4-0.5,0.7-0.6,1.4
			l-1.3-0.2c0.1-0.8,0.5-1.5,1.1-1.9c0.6-0.4,1.2-0.7,2-0.7c0.6,0,1.1,0.1,1.5,0.4c0.5,0.2,0.8,0.6,1,0.9c0.2,0.4,0.4,0.8,0.4,1.3
			c0,0.5-0.1,0.8-0.4,1.2c-0.2,0.4-0.6,0.6-1,0.8c0.6,0.1,1,0.5,1.4,0.8s0.5,0.9,0.5,1.6c0,0.9-0.4,1.6-0.9,2.2
			c-0.6,0.6-1.4,0.9-2.4,0.9c-0.9,0-1.6-0.2-2.2-0.8C145.4,354.1,145,353.7,144.9,352.9z"/>
		<path d="M153.1,349l-0.3-1.9v-1.6h1.4v1.6l-0.4,1.9H153.1z M155.4,349l-0.4-1.9v-1.6h1.4v1.6l-0.4,1.9H155.4z"/>
		<path d="M72,365.8l-0.3-1.9v-1.6H73v1.6l-0.3,1.9H72z M74.3,365.8l-0.3-1.9v-1.6h1.4v1.6l-0.4,1.9H74.3z"/>
		<path d="M76.9,372.3v-10h1.3v10H76.9z"/>
		<path d="M79.6,368.7c0-1.4,0.4-2.3,1.2-3c0.6-0.6,1.4-0.8,2.3-0.8c1.1,0,1.9,0.4,2.4,0.9c0.6,0.6,0.9,1.5,0.9,2.7
			c0,0.9-0.1,1.6-0.5,2.2c-0.4,0.6-0.7,0.9-1.2,1.3c-0.5,0.4-1.2,0.5-1.8,0.5c-1.1,0-1.9-0.3-2.4-0.9
			C80,370.9,79.6,369.9,79.6,368.7z M80.8,368.7c0,0.9,0.2,1.6,0.6,2.1c0.4,0.5,0.9,0.7,1.5,0.7s1.2-0.2,1.5-0.7
			c0.4-0.5,0.6-1.2,0.6-2.1s-0.2-1.6-0.6-2c-0.4-0.4-0.9-0.7-1.5-0.7s-1.2,0.2-1.5,0.7C81.1,367.2,80.8,367.8,80.8,368.7z"/>
		<path d="M92.5,369.6l1.2,0.1c-0.1,0.8-0.5,1.5-1.1,2s-1.2,0.7-2,0.7c-1.1,0-1.8-0.4-2.4-0.9c-0.7-0.6-0.9-1.6-0.9-2.8
			c0-0.8,0.1-1.5,0.3-2.1c0.2-0.6,0.7-1,1.2-1.3c0.5-0.2,1.2-0.5,1.8-0.5c0.8,0,1.4,0.2,2,0.6c0.6,0.4,0.8,0.9,0.9,1.8l-1.2,0.2
			c-0.1-0.5-0.4-0.8-0.6-1s-0.6-0.3-1.1-0.3c-0.6,0-1.2,0.2-1.5,0.7c-0.4,0.5-0.6,1.2-0.6,2.1s0.2,1.6,0.6,2.1
			c0.4,0.5,0.8,0.7,1.5,0.7c0.5,0,0.9-0.1,1.2-0.5C92,370.8,92.5,370.2,92.5,369.6z"/>
		<path d="M99.5,371.4c-0.5,0.4-0.9,0.7-1.3,0.8c-0.3,0.1-0.8,0.2-1.4,0.2c-0.8,0-1.4-0.2-1.9-0.6s-0.7-0.9-0.7-1.5
			c0-0.3,0.1-0.7,0.2-0.9c0.1-0.2,0.3-0.6,0.6-0.7c0.2-0.1,0.6-0.4,0.9-0.4c0.2-0.1,0.6-0.1,1.1-0.2c1-0.1,1.8-0.2,2.2-0.5
			c0-0.1,0-0.2,0-0.3c0-0.5-0.1-0.8-0.4-1c-0.4-0.2-0.8-0.5-1.4-0.5c-0.6,0-1.1,0.1-1.3,0.4s-0.5,0.6-0.6,1l-1.2-0.1
			c0.1-0.5,0.2-0.9,0.6-1.3c0.3-0.4,0.6-0.6,1-0.7c0.5-0.1,1.1-0.2,1.6-0.2s1.2,0.1,1.5,0.2c0.4,0.1,0.7,0.3,0.8,0.6
			c0.1,0.2,0.3,0.5,0.3,0.8c0,0.2,0.1,0.6,0.1,1.2v1.6c0,1.2,0,1.9,0.1,2.2c0.1,0.3,0.1,0.6,0.4,0.8h-1.3
			C99.6,372.1,99.6,371.8,99.5,371.4z M99.4,368.7c-0.5,0.2-1.2,0.4-2,0.5c-0.5,0.1-0.8,0.1-1.1,0.2s-0.4,0.2-0.5,0.3
			c-0.1,0.1-0.1,0.4-0.1,0.6c0,0.3,0.1,0.6,0.4,0.8s0.6,0.3,1.1,0.3s0.9-0.1,1.3-0.3c0.3-0.2,0.6-0.5,0.8-0.8
			c0.1-0.2,0.2-0.7,0.2-1.3v-0.4H99.4z"/>
		<path d="M105.2,371.2l0.2,1c-0.4,0.1-0.7,0.1-0.9,0.1c-0.5,0-0.8-0.1-1.1-0.2c-0.2-0.1-0.5-0.3-0.5-0.6c0-0.2-0.1-0.7-0.1-1.4
			v-4.2H102V365h0.9v-1.8l1.2-0.7v2.6h1.3v0.9h-1.3v4.2c0,0.3,0,0.6,0.1,0.7c0.1,0.1,0.1,0.2,0.2,0.2c0.1,0,0.2,0.1,0.5,0.1
			C104.9,371.3,105.1,371.3,105.2,371.2z"/>
		<path d="M106.5,363.7v-1.4h1.3v1.4H106.5z M106.5,372.3v-7.2h1.3v7.2H106.5z"/>
		<path d="M109.2,368.7c0-1.4,0.3-2.3,1.2-3c0.6-0.6,1.4-0.8,2.3-0.8c1,0,1.9,0.4,2.4,0.9c0.6,0.6,0.9,1.5,0.9,2.7
			c0,0.9-0.1,1.6-0.5,2.2c-0.4,0.6-0.7,0.9-1.2,1.3c-0.5,0.4-1.2,0.5-1.8,0.5c-1.1,0-1.9-0.3-2.4-0.9
			C109.7,370.9,109.2,369.9,109.2,368.7z M110.4,368.7c0,0.9,0.2,1.6,0.6,2.1c0.3,0.5,0.9,0.7,1.5,0.7c0.6,0,1.2-0.2,1.5-0.7
			c0.3-0.5,0.6-1.2,0.6-2.1s-0.2-1.6-0.6-2c-0.4-0.4-0.9-0.7-1.5-0.7c-0.6,0-1.2,0.2-1.5,0.7C110.6,367.2,110.4,367.8,110.4,368.7z"
			/>
		<path d="M117.4,372.3v-7.2h1.1v1c0.6-0.8,1.3-1.2,2.3-1.2c0.5,0,0.8,0.1,1.2,0.2c0.3,0.1,0.6,0.4,0.8,0.6s0.4,0.6,0.4,0.9
			c0,0.2,0.1,0.6,0.1,1.2v4.4h-1.3v-4.4c0-0.5,0-0.9-0.1-1.2c-0.1-0.2-0.2-0.5-0.5-0.6c-0.2-0.1-0.6-0.2-0.8-0.2
			c-0.5,0-0.9,0.1-1.4,0.5c-0.5,0.3-0.6,0.9-0.6,1.9v4h-1.2V372.3z"/>
		<path d="M125.2,365.8l-0.4-1.9v-1.6h1.4v1.6l-0.3,1.9H125.2z M127.5,365.8l-0.3-1.9v-1.6h1.4v1.6l-0.4,1.9H127.5z"/>
		<path d="M130.4,366.5v-1.4h1.4v1.4H130.4z M130.4,372.3v-1.4h1.4v1.4H130.4z"/>
		<path d="M134.1,365.8l-0.4-1.9v-1.6h1.4v1.6l-0.4,1.9H134.1z M136.4,365.8l-0.4-1.9v-1.6h1.4v1.6l-0.4,1.9H136.4z"/>
		<path d="M138,372.3l3.9-10h1.4l4.1,10h-1.5l-1.2-3h-4.2l-1.1,3H138z M140.9,368.2h3.4l-1.1-2.8c-0.4-0.8-0.6-1.5-0.7-2.1
			c-0.1,0.7-0.4,1.3-0.6,1.9L140.9,368.2z"/>
		<path d="M147.7,372.3V371l5.1-6.4c0.4-0.5,0.7-0.8,1-1.2h-5.6v-1.2h7.2v1.2l-5.6,7l-0.6,0.7h6.4v1.2H147.7z"/>
		<path d="M156.9,365.8l-0.4-1.9v-1.6h1.4v1.6l-0.4,1.9H156.9z M159.2,365.8l-0.4-1.9v-1.6h1.4v1.6l-0.4,1.9H159.2z"/>
		<path d="M72,382.6l-0.3-1.9v-1.6H73v1.6l-0.3,1.9H72z M74.3,382.6l-0.3-1.9v-1.6h1.4v1.6l-0.4,1.9H74.3z"/>
		<path d="M76.9,391.9v-10H78v0.9c0.2-0.3,0.6-0.7,0.9-0.8c0.3-0.1,0.7-0.2,1.2-0.2c0.6,0,1.2,0.1,1.6,0.5c0.5,0.4,0.8,0.8,1,1.4
			c0.2,0.6,0.4,1.2,0.4,1.9s-0.1,1.4-0.4,2c-0.2,0.6-0.7,1-1.2,1.4c-0.5,0.4-1.1,0.5-1.6,0.5c-0.5,0-0.8-0.1-1.1-0.2
			c-0.2-0.1-0.6-0.3-0.8-0.7v3.5L76.9,391.9L76.9,391.9z M78,385.5c0,0.9,0.2,1.6,0.6,2.1c0.4,0.5,0.8,0.7,1.4,0.7
			c0.6,0,1.1-0.2,1.4-0.7c0.3-0.5,0.6-1.2,0.6-2.1s-0.2-1.6-0.6-2.1c-0.4-0.5-0.8-0.7-1.4-0.7c-0.5,0-0.9,0.2-1.4,0.7
			C78.2,383.9,78,384.6,78,385.5z"/>
		<path d="M84.7,389.1v-7.2h1.1v1c0.2-0.5,0.6-0.8,0.8-1s0.5-0.2,0.8-0.2c0.5,0,0.8,0.1,1.3,0.3l-0.5,1.2c-0.4-0.2-0.6-0.2-0.9-0.2
			c-0.2,0-0.5,0.1-0.7,0.2c-0.2,0.1-0.4,0.3-0.5,0.7c-0.1,0.5-0.2,0.9-0.2,1.4v3.8L84.7,389.1L84.7,389.1z"/>
		<path d="M89.4,380.5v-1.4h1.3v1.4H89.4z M89.4,389.1v-7.2h1.3v7.2H89.4z"/>
		<path d="M97.2,386.5l1.2,0.1c-0.1,0.8-0.5,1.5-1.1,2c-0.6,0.5-1.2,0.7-2,0.7c-1,0-1.8-0.3-2.4-0.9s-0.9-1.6-0.9-2.8
			c0-0.8,0.1-1.5,0.4-2.1c0.2-0.6,0.7-1,1.2-1.3s1.2-0.5,1.8-0.5c0.8,0,1.4,0.2,2,0.6s0.8,0.9,0.9,1.8l-1.2,0.2
			c-0.1-0.5-0.4-0.8-0.6-1s-0.6-0.3-1.1-0.3c-0.6,0-1.2,0.2-1.5,0.7c-0.3,0.5-0.6,1.2-0.6,2.1s0.2,1.6,0.6,2.1
			c0.4,0.5,0.8,0.7,1.5,0.7c0.5,0,0.9-0.1,1.2-0.5C96.7,387.6,97.2,387,97.2,386.5z"/>
		<path d="M104.4,386.8l1.3,0.1c-0.2,0.7-0.6,1.3-1.2,1.8c-0.6,0.5-1.3,0.6-2.1,0.6c-1.1,0-1.9-0.4-2.6-0.9
			c-0.7-0.6-0.9-1.5-0.9-2.8c0-1.2,0.3-2.2,0.9-2.8c0.6-0.6,1.4-1,2.4-1c0.9,0,1.8,0.4,2.3,0.9c0.6,0.6,0.9,1.6,0.9,2.8
			c0,0.1,0,0.2,0,0.4h-5.2c0,0.8,0.2,1.4,0.7,1.9c0.5,0.5,0.9,0.6,1.5,0.6c0.5,0,0.8-0.1,1.2-0.4
			C104.1,387.6,104.3,387.3,104.4,386.8z M100.4,384.8h4.1c0-0.6-0.2-1-0.5-1.4c-0.3-0.5-0.9-0.7-1.5-0.7c-0.6,0-1.1,0.2-1.4,0.6
			C100.8,383.6,100.4,384.1,100.4,384.8z"/>
		<path d="M107.3,382.6l-0.3-1.9v-1.6h1.4v1.6l-0.4,1.9H107.3z M109.5,382.6l-0.3-1.9v-1.6h1.4v1.6l-0.4,1.9H109.5z"/>
		<path d="M112.6,383.3v-1.4h1.4v1.4H112.6z M112.6,389.1v-1.4h1.4v1.4H112.6z"/>
		<path d="M116.2,382.6l-0.4-1.9v-1.6h1.4v1.6l-0.3,1.9H116.2z M118.4,382.6l-0.4-1.9v-1.6h1.4v1.6l-0.3,1.9H118.4z"/>
		<path d="M127.2,388v1.2h-6.7c0-0.4,0-0.6,0.1-0.8c0.1-0.5,0.5-0.9,0.8-1.3c0.3-0.4,0.9-0.9,1.6-1.5c1.1-0.9,1.9-1.6,2.2-2.1
			c0.4-0.5,0.6-1,0.6-1.5c0-0.5-0.1-0.9-0.5-1.3c-0.4-0.4-0.8-0.5-1.4-0.5c-0.6,0-1,0.2-1.4,0.6c-0.3,0.3-0.6,0.8-0.6,1.5l-1.3-0.1
			c0.1-0.9,0.5-1.6,0.9-2.1c0.5-0.5,1.3-0.7,2.3-0.7c0.9,0,1.8,0.2,2.3,0.8c0.6,0.6,0.8,1.2,0.8,2c0,0.3-0.1,0.8-0.2,1.2
			c-0.1,0.3-0.5,0.8-0.8,1.2c-0.3,0.4-1.1,1.1-1.9,1.8c-0.7,0.6-1.2,1.1-1.4,1.3s-0.3,0.5-0.5,0.7h4.8V388z"/>
		<path d="M128.6,384.1c0-1.2,0.1-2.1,0.3-2.9s0.6-1.3,1.1-1.6c0.5-0.4,1.1-0.6,1.9-0.6c0.6,0,1.1,0.1,1.4,0.3
			c0.3,0.2,0.7,0.6,1.1,0.9c0.4,0.4,0.5,0.9,0.6,1.5c0.1,0.6,0.2,1.4,0.2,2.3c0,1.2-0.1,2.1-0.4,2.8s-0.6,1.3-1.1,1.6
			c-0.5,0.3-1.1,0.6-1.9,0.6c-0.9,0-1.8-0.3-2.3-1C128.9,387.4,128.6,386.1,128.6,384.1z M129.9,384.1c0,1.6,0.2,2.7,0.6,3.3
			c0.4,0.6,0.8,0.8,1.4,0.8s1.1-0.2,1.4-0.8c0.3-0.6,0.6-1.6,0.6-3.3s-0.2-2.8-0.6-3.3c-0.4-0.5-0.8-0.8-1.4-0.8s-1.1,0.2-1.4,0.7
			C130,381.4,129.9,382.5,129.9,384.1z"/>
		<path d="M136.3,384.1c0-1.2,0.1-2.1,0.4-2.9s0.6-1.3,1.1-1.6c0.5-0.4,1.1-0.6,1.9-0.6c0.6,0,1.1,0.1,1.4,0.3
			c0.3,0.2,0.7,0.6,1.1,0.9c0.4,0.4,0.5,0.9,0.6,1.5s0.2,1.4,0.2,2.3c0,1.2-0.1,2.1-0.4,2.8s-0.6,1.3-1.1,1.6
			c-0.5,0.3-1.1,0.6-1.9,0.6c-0.9,0-1.8-0.3-2.3-1C136.6,387.4,136.3,386.1,136.3,384.1z M137.6,384.1c0,1.6,0.2,2.7,0.6,3.3
			c0.4,0.6,0.8,0.8,1.4,0.8s1.1-0.2,1.4-0.8c0.4-0.6,0.6-1.6,0.6-3.3s-0.2-2.8-0.6-3.3c-0.4-0.5-0.8-0.8-1.4-0.8s-1.1,0.2-1.4,0.7
			C137.8,381.4,137.6,382.5,137.6,384.1z"/>
		<path d="M144.4,389.1v-10h1.3v5.7l2.9-2.9h1.6l-2.8,2.7l3,4.5H149l-2.4-3.7l-0.8,0.8v2.9L144.4,389.1L144.4,389.1z"/>
		<path d="M151.5,382.6l-0.4-1.9v-1.6h1.4v1.6l-0.4,1.9H151.5z M153.8,382.6l-0.4-1.9v-1.6h1.4v1.6l-0.3,1.9H153.8z"/>
		<path d="M63.6,401.7v1.2c-0.3,0-0.6,0.1-0.8,0.2s-0.3,0.5-0.5,0.7c-0.1,0.2-0.1,0.8-0.1,1.6c0,0.8,0,1.3,0,1.5
			c0,0.3-0.1,0.7-0.2,0.9s-0.2,0.5-0.5,0.6c-0.2,0.1-0.3,0.2-0.6,0.3c-0.1,0-0.5,0.1-0.8,0.1h-0.4v-1H60c0.5,0,0.8-0.1,0.9-0.2
			s0.2-0.6,0.2-1.2c0-1.2,0-1.9,0.1-2.2c0.1-0.5,0.2-0.9,0.5-1.2c0.2-0.2,0.6-0.6,0.9-0.7c-0.5-0.2-0.9-0.6-1.1-1
			c-0.1-0.5-0.3-1.2-0.3-2.1s0-1.4,0-1.6c0-0.3-0.1-0.5-0.2-0.6s-0.5-0.2-0.8-0.2H60v-1.2h0.4c0.5,0,0.8,0,0.9,0.1
			c0.2,0.1,0.6,0.2,0.7,0.5s0.4,0.6,0.4,0.9c0,0.3,0.1,0.9,0.1,1.8s0,1.4,0.1,1.8c0.1,0.3,0.2,0.6,0.5,0.7
			C63.2,401.5,63.2,401.7,63.6,401.7z"/>
		<path d="M65.3,405.9v-1.4h1.4v1.4c0,0.5-0.1,0.9-0.2,1.3c-0.1,0.4-0.5,0.6-0.8,0.7l-0.3-0.6c0.2-0.1,0.5-0.2,0.6-0.5
			c0.1-0.2,0.2-0.6,0.2-0.9L65.3,405.9L65.3,405.9z"/>
		<path d="M59.7,418.5c0.3,0,0.6-0.1,0.8-0.2s0.3-0.5,0.5-0.7c0.1-0.2,0.1-0.8,0.1-1.6s0-1.3,0-1.5c0-0.4,0.1-0.7,0.2-0.9
			c0.1-0.2,0.2-0.5,0.5-0.6s0.3-0.2,0.6-0.3c0.1,0,0.5-0.1,0.8-0.1h0.3v1.1h-0.2c-0.5,0-0.8,0.1-0.9,0.2s-0.2,0.6-0.2,1.2
			c0,1.2,0,2-0.1,2.2c-0.1,0.5-0.2,0.8-0.5,1.2s-0.5,0.5-0.9,0.7c0.5,0.2,0.8,0.6,1.1,0.9s0.3,1.2,0.3,2.1s0,1.4,0,1.6
			c0,0.3,0.1,0.6,0.2,0.7s0.5,0.2,0.8,0.2h0.2v1H63c-0.5,0-0.8,0-0.9-0.1c-0.2-0.1-0.6-0.2-0.7-0.5s-0.3-0.6-0.3-0.9
			c0-0.4-0.1-0.9-0.1-1.8s0-1.4-0.1-1.8c-0.1-0.4-0.2-0.6-0.5-0.7c-0.2-0.1-0.5-0.2-0.8-0.2v-1.2H59.7z"/>
		<path d="M72,433l-0.3-1.9v-1.6H73v1.6l-0.3,1.9H72z M74.3,433l-0.3-1.9v-1.6h1.4v1.6L75,433H74.3z"/>
		<path d="M76.9,439.5v-10h1.3v3.6c0.6-0.7,1.3-1,2.2-1c0.6,0,1.1,0.1,1.4,0.3c0.3,0.2,0.7,0.5,0.8,0.9c0.1,0.5,0.2,0.9,0.2,1.6v4.5
			h-1.3V435c0-0.6-0.1-1-0.3-1.4c-0.2-0.4-0.7-0.5-1.2-0.5c-0.3,0-0.7,0.1-1.1,0.2c-0.3,0.1-0.6,0.5-0.7,0.8
			c-0.1,0.4-0.2,0.8-0.2,1.3v4h-1.2V439.5z"/>
		<path d="M84.2,435.9c0-1.4,0.3-2.3,1.2-3c0.6-0.6,1.4-0.8,2.3-0.8c1,0,1.9,0.3,2.4,0.9c0.6,0.6,0.9,1.5,0.9,2.7
			c0,0.9-0.1,1.6-0.5,2.2s-0.7,0.9-1.2,1.3c-0.5,0.4-1.2,0.5-1.8,0.5c-1.1,0-1.9-0.3-2.5-0.9C84.7,438.1,84.2,437.1,84.2,435.9z
			 M85.5,435.9c0,0.9,0.2,1.6,0.6,2.1c0.4,0.5,0.9,0.7,1.5,0.7c0.6,0,1.2-0.2,1.5-0.7c0.4-0.5,0.6-1.2,0.6-2.1s-0.2-1.6-0.6-2
			c-0.3-0.4-0.9-0.7-1.5-0.7c-0.6,0-1.2,0.2-1.5,0.7C85.8,434.4,85.5,435,85.5,435.9z"/>
		<path d="M92.5,439.5v-7.2h1v1c0.2-0.3,0.6-0.6,0.9-0.8c0.3-0.2,0.8-0.3,1.3-0.3c0.6,0,0.9,0.1,1.3,0.3c0.3,0.2,0.6,0.6,0.7,0.9
			c0.6-0.8,1.3-1.3,2.2-1.3c0.7,0,1.3,0.2,1.6,0.6c0.4,0.4,0.6,1,0.6,1.9v5H101v-4.5c0-0.5,0-0.8-0.1-1c-0.1-0.2-0.2-0.4-0.5-0.5
			s-0.5-0.2-0.7-0.2c-0.5,0-0.9,0.1-1.3,0.5c-0.3,0.4-0.5,0.7-0.5,1.5v4.2h-1.2v-4.7c0-0.6-0.1-0.9-0.3-1.3
			c-0.2-0.4-0.6-0.5-0.9-0.5c-0.3,0-0.7,0.1-0.9,0.2s-0.5,0.5-0.6,0.8c-0.1,0.4-0.2,0.8-0.2,1.5v3.7h-1.3V439.5z"/>
		<path d="M109.1,437.2l1.3,0.1c-0.2,0.7-0.6,1.3-1.2,1.8c-0.6,0.5-1.3,0.6-2.1,0.6c-1.1,0-1.9-0.3-2.6-0.9
			c-0.7-0.6-0.9-1.5-0.9-2.8c0-1.2,0.4-2.2,0.9-2.8c0.6-0.6,1.4-1,2.5-1c0.9,0,1.8,0.3,2.3,0.9c0.6,0.6,0.9,1.6,0.9,2.8
			c0,0.1,0,0.2,0,0.3H105c0,0.8,0.2,1.4,0.7,1.9c0.5,0.5,0.9,0.6,1.5,0.6c0.5,0,0.8-0.1,1.2-0.3S109,437.7,109.1,437.2z
			 M105.1,435.2h4.1c0-0.6-0.2-1-0.5-1.4c-0.4-0.5-0.9-0.7-1.5-0.7c-0.6,0-1.1,0.2-1.4,0.6C105.5,434,105.1,434.5,105.1,435.2z"/>
		<path d="M112,433l-0.4-1.9v-1.6h1.4v1.6l-0.4,1.9H112z M114.2,433l-0.4-1.9v-1.6h1.4v1.6l-0.3,1.9H114.2z"/>
		<path d="M117.2,433.7v-1.4h1.4v1.4H117.2z M117.2,439.5v-1.4h1.4v1.4H117.2z"/>
		<path d="M120.9,433l-0.4-1.9v-1.6h1.4v1.6l-0.4,1.9H120.9z M123.1,433l-0.4-1.9v-1.6h1.4v1.6l-0.4,1.9H123.1z"/>
		<path d="M129.4,439.5v-2.5h-4.3v-1.2l4.6-6.5h1.1v6.5h1.4v1.2h-1.4v2.5H129.4z M129.4,436v-4.5l-3.1,4.5H129.4z"/>
		<path d="M133.2,436.8l1.3-0.1c0.1,0.6,0.3,1,0.7,1.4c0.3,0.4,0.8,0.5,1.3,0.5c0.6,0,1.1-0.2,1.5-0.7c0.5-0.5,0.6-1,0.6-1.8
			s-0.2-1.3-0.6-1.6c-0.4-0.3-0.9-0.6-1.5-0.6c-0.4,0-0.7,0.1-1.1,0.2s-0.6,0.5-0.7,0.7l-1.2-0.1l0.9-5.1h5v1.2h-4.2l-0.6,2.7
			c0.6-0.5,1.3-0.6,1.9-0.6c0.9,0,1.6,0.3,2.2,0.9c0.6,0.6,0.9,1.4,0.9,2.3s-0.2,1.6-0.8,2.3c-0.7,0.8-1.5,1.2-2.7,1.2
			c-0.9,0-1.6-0.2-2.2-0.8C133.5,438.2,133.4,437.8,133.2,436.8z"/>
		<path d="M147.4,432l-1.2,0.1c-0.1-0.5-0.2-0.8-0.5-1c-0.4-0.4-0.7-0.6-1.3-0.6c-0.4,0-0.7,0.1-1.1,0.3c-0.4,0.2-0.7,0.7-0.9,1.3
			c-0.2,0.6-0.4,1.3-0.4,2.3c0.4-0.5,0.7-0.8,1.1-1s0.9-0.3,1.4-0.3c0.8,0,1.5,0.3,2.1,0.9s0.8,1.4,0.8,2.3c0,0.6-0.1,1.2-0.4,1.8
			c-0.2,0.6-0.7,0.9-1.2,1.3c-0.5,0.4-1.1,0.5-1.6,0.5c-1.1,0-1.9-0.4-2.6-1.2s-0.9-2-0.9-3.7c0-2,0.4-3.4,1.1-4.2
			c0.6-0.8,1.5-1.2,2.6-1.2c0.8,0,1.4,0.2,2,0.7C147,430.7,147.2,431.1,147.4,432z M142.3,436.3c0,0.5,0.1,0.8,0.2,1.2
			c0.1,0.3,0.5,0.7,0.7,0.9c0.2,0.2,0.7,0.3,1.1,0.3c0.5,0,0.9-0.2,1.3-0.6c0.3-0.3,0.6-0.9,0.6-1.8c0-0.7-0.2-1.3-0.6-1.6
			c-0.4-0.4-0.8-0.6-1.4-0.6c-0.6,0-1.1,0.2-1.4,0.6C142.4,435.1,142.3,435.6,142.3,436.3z"/>
		<path d="M149.2,433l-0.4-1.9v-1.6h1.4v1.6l-0.4,1.9H149.2z M151.4,433l-0.4-1.9v-1.6h1.4v1.6l-0.4,1.9H151.4z"/>
		<path d="M154.5,439.5v-1.4h1.4v1.4c0,0.5-0.1,0.9-0.2,1.3c-0.1,0.4-0.5,0.6-0.8,0.7l-0.3-0.6c0.2-0.1,0.5-0.2,0.6-0.5
			c0.1-0.2,0.2-0.6,0.2-0.9L154.5,439.5L154.5,439.5z"/>
		<path d="M72,449.8l-0.3-1.9v-1.6H73v1.6l-0.3,1.9H72z M74.3,449.8l-0.3-1.9v-1.6h1.4v1.6l-0.4,1.9H74.3z"/>
		<path d="M76.9,456.3v-10h1.3v10H76.9z"/>
		<path d="M79.6,452.7c0-1.4,0.4-2.3,1.2-3c0.6-0.6,1.4-0.8,2.3-0.8c1.1,0,1.9,0.3,2.4,0.9c0.6,0.6,0.9,1.5,0.9,2.7
			c0,0.9-0.1,1.6-0.5,2.2c-0.4,0.6-0.7,0.9-1.2,1.3c-0.5,0.4-1.2,0.5-1.8,0.5c-1.1,0-1.9-0.3-2.4-0.9
			C80,454.9,79.6,453.9,79.6,452.7z M80.8,452.7c0,0.9,0.2,1.6,0.6,2.1c0.4,0.5,0.9,0.7,1.5,0.7s1.2-0.2,1.5-0.7
			c0.4-0.5,0.6-1.2,0.6-2.1s-0.2-1.6-0.6-2c-0.4-0.4-0.9-0.7-1.5-0.7s-1.2,0.2-1.5,0.7C81.1,451.2,80.8,451.8,80.8,452.7z"/>
		<path d="M92.5,453.6l1.2,0.1c-0.1,0.8-0.5,1.5-1.1,2s-1.2,0.7-2,0.7c-1.1,0-1.8-0.4-2.4-0.9c-0.7-0.6-0.9-1.6-0.9-2.8
			c0-0.8,0.1-1.5,0.3-2.1c0.2-0.6,0.7-1,1.2-1.3c0.5-0.2,1.2-0.5,1.8-0.5c0.8,0,1.4,0.2,2,0.6c0.6,0.3,0.8,0.9,0.9,1.8l-1.2,0.2
			c-0.1-0.5-0.4-0.8-0.6-1s-0.6-0.3-1.1-0.3c-0.6,0-1.2,0.2-1.5,0.7c-0.4,0.5-0.6,1.2-0.6,2.1s0.2,1.6,0.6,2.1
			c0.4,0.5,0.8,0.7,1.5,0.7c0.5,0,0.9-0.1,1.2-0.5C92,454.8,92.5,454.2,92.5,453.6z"/>
		<path d="M99.5,455.4c-0.5,0.4-0.9,0.7-1.3,0.8c-0.3,0.1-0.8,0.2-1.4,0.2c-0.8,0-1.4-0.2-1.9-0.6s-0.7-0.9-0.7-1.5
			c0-0.3,0.1-0.7,0.2-0.9c0.1-0.2,0.3-0.6,0.6-0.7c0.2-0.1,0.6-0.4,0.9-0.4c0.2-0.1,0.6-0.1,1.1-0.2c1-0.1,1.8-0.2,2.2-0.5
			c0-0.1,0-0.2,0-0.3c0-0.5-0.1-0.8-0.4-1c-0.4-0.2-0.8-0.5-1.4-0.5c-0.6,0-1.1,0.1-1.3,0.4s-0.5,0.6-0.6,1l-1.2-0.1
			c0.1-0.5,0.2-0.9,0.6-1.3c0.3-0.4,0.6-0.6,1-0.7c0.5-0.1,1.1-0.2,1.6-0.2s1.2,0.1,1.5,0.2c0.4,0.1,0.7,0.4,0.8,0.6
			c0.1,0.2,0.3,0.5,0.3,0.8c0,0.2,0.1,0.6,0.1,1.2v1.6c0,1.2,0,1.9,0.1,2.2c0.1,0.3,0.1,0.6,0.4,0.8h-1.3
			C99.6,456.1,99.6,455.8,99.5,455.4z M99.4,452.7c-0.5,0.2-1.2,0.4-2,0.5c-0.5,0.1-0.8,0.1-1.1,0.2s-0.4,0.2-0.5,0.3
			c-0.1,0.1-0.1,0.4-0.1,0.6c0,0.3,0.1,0.6,0.4,0.8s0.6,0.3,1.1,0.3s0.9-0.1,1.3-0.3c0.3-0.2,0.6-0.5,0.8-0.8
			c0.1-0.2,0.2-0.7,0.2-1.3v-0.4H99.4z"/>
		<path d="M105.2,455.2l0.2,1c-0.4,0.1-0.7,0.1-0.9,0.1c-0.5,0-0.8-0.1-1.1-0.2c-0.2-0.1-0.5-0.3-0.5-0.6c0-0.2-0.1-0.7-0.1-1.4
			v-4.2H102V449h0.9v-1.8l1.2-0.7v2.6h1.3v0.9h-1.3v4.2c0,0.3,0,0.6,0.1,0.7c0.1,0.1,0.1,0.2,0.2,0.2c0.1,0,0.2,0.1,0.5,0.1
			C104.9,455.3,105.1,455.3,105.2,455.2z"/>
		<path d="M106.5,447.7v-1.4h1.3v1.4H106.5z M106.5,456.3v-7.2h1.3v7.2H106.5z"/>
		<path d="M109.2,452.7c0-1.4,0.3-2.3,1.2-3c0.6-0.6,1.4-0.8,2.3-0.8c1,0,1.9,0.3,2.4,0.9c0.6,0.6,0.9,1.5,0.9,2.7
			c0,0.9-0.1,1.6-0.5,2.2c-0.4,0.6-0.7,0.9-1.2,1.3c-0.5,0.4-1.2,0.5-1.8,0.5c-1.1,0-1.9-0.3-2.4-0.9
			C109.7,454.9,109.2,453.9,109.2,452.7z M110.4,452.7c0,0.9,0.2,1.6,0.6,2.1c0.3,0.5,0.9,0.7,1.5,0.7c0.6,0,1.2-0.2,1.5-0.7
			c0.3-0.5,0.6-1.2,0.6-2.1s-0.2-1.6-0.6-2c-0.4-0.4-0.9-0.7-1.5-0.7c-0.6,0-1.2,0.2-1.5,0.7C110.6,451.2,110.4,451.8,110.4,452.7z"
			/>
		<path d="M117.4,456.3v-7.2h1.1v1c0.6-0.8,1.3-1.2,2.3-1.2c0.5,0,0.8,0.1,1.2,0.2c0.3,0.1,0.6,0.4,0.8,0.6s0.4,0.6,0.4,0.9
			c0,0.2,0.1,0.6,0.1,1.2v4.4h-1.3v-4.4c0-0.5,0-0.9-0.1-1.2c-0.1-0.2-0.2-0.5-0.5-0.6s-0.6-0.2-0.8-0.2c-0.5,0-0.9,0.1-1.4,0.5
			c-0.5,0.4-0.6,0.9-0.6,1.9v4h-1.2V456.3z"/>
		<path d="M125.2,449.8l-0.4-1.9v-1.6h1.4v1.6l-0.3,1.9H125.2z M127.5,449.8l-0.3-1.9v-1.6h1.4v1.6l-0.4,1.9H127.5z"/>
		<path d="M130.4,450.5v-1.4h1.4v1.4H130.4z M130.4,456.3v-1.4h1.4v1.4H130.4z"/>
		<path d="M138,449.8l-0.4-1.9v-1.6h1.4v1.6l-0.4,1.9H138z M140.2,449.8l-0.4-1.9v-1.6h1.4v1.6l-0.4,1.9H140.2z"/>
		<path d="M150.1,452.8l1.3,0.4c-0.2,1-0.8,1.9-1.5,2.5c-0.7,0.6-1.6,0.8-2.7,0.8s-2-0.2-2.7-0.7c-0.7-0.5-1.2-1-1.5-1.9
			c-0.4-0.8-0.6-1.8-0.6-2.7c0-1.1,0.2-2,0.6-2.7c0.3-0.7,0.9-1.4,1.8-1.8c0.8-0.4,1.5-0.6,2.4-0.6c1.1,0,1.9,0.2,2.6,0.8
			s1.2,1.3,1.4,2.1l-1.3,0.4c-0.2-0.7-0.6-1.3-1.1-1.6c-0.5-0.4-1.1-0.5-1.6-0.5c-0.8,0-1.4,0.2-2,0.6c-0.6,0.3-0.9,0.8-1.1,1.5
			c-0.1,0.7-0.4,1.3-0.4,1.9c0,0.8,0.1,1.6,0.4,2.2c0.2,0.6,0.6,1.2,1.2,1.4c0.6,0.2,1.1,0.5,1.8,0.5s1.4-0.2,1.9-0.7
			C149.4,454.2,150,453.6,150.1,452.8z"/>
		<path d="M152,456.3l3.9-10h1.4l4.1,10h-1.5l-1.2-3h-4.2l-1.1,3H152z M154.9,452.2h3.4l-1-2.8c-0.4-0.8-0.6-1.5-0.7-2.1
			c-0.1,0.7-0.3,1.3-0.6,1.9L154.9,452.2z"/>
		<path d="M162.4,449.8l-0.4-1.9v-1.6h1.4v1.6l-0.4,1.9H162.4z M164.6,449.8l-0.4-1.9v-1.6h1.4v1.6l-0.4,1.9H164.6z"/>
		<path d="M72,466.6l-0.3-1.9v-1.6H73v1.6l-0.3,1.9H72z M74.3,466.6l-0.3-1.9v-1.6h1.4v1.6l-0.4,1.9H74.3z"/>
		<path d="M76.9,475.9v-10H78v0.9c0.2-0.3,0.6-0.7,0.9-0.8c0.3-0.1,0.7-0.2,1.2-0.2c0.6,0,1.2,0.1,1.6,0.5c0.5,0.4,0.8,0.8,1,1.4
			c0.2,0.6,0.4,1.2,0.4,1.9s-0.1,1.4-0.4,2c-0.2,0.6-0.7,1-1.2,1.4c-0.5,0.4-1.1,0.5-1.6,0.5c-0.5,0-0.8-0.1-1.1-0.2
			c-0.2-0.1-0.6-0.3-0.8-0.7v3.5L76.9,475.9L76.9,475.9z M78,469.5c0,0.9,0.2,1.6,0.6,2.1c0.4,0.5,0.8,0.7,1.4,0.7
			c0.6,0,1.1-0.2,1.4-0.7c0.3-0.5,0.6-1.2,0.6-2.1s-0.2-1.6-0.6-2.1c-0.4-0.5-0.8-0.7-1.4-0.7c-0.5,0-0.9,0.2-1.4,0.7
			C78.2,467.9,78,468.6,78,469.5z"/>
		<path d="M84.7,473.1v-7.2h1.1v1c0.2-0.5,0.6-0.8,0.8-1s0.5-0.2,0.8-0.2c0.5,0,0.8,0.1,1.3,0.3l-0.5,1.2c-0.4-0.2-0.6-0.2-0.9-0.2
			c-0.2,0-0.5,0.1-0.7,0.2c-0.2,0.1-0.4,0.3-0.5,0.7c-0.1,0.5-0.2,0.9-0.2,1.4v3.8L84.7,473.1L84.7,473.1z"/>
		<path d="M89.4,464.5v-1.4h1.3v1.4H89.4z M89.4,473.1v-7.2h1.3v7.2H89.4z"/>
		<path d="M97.2,470.5l1.2,0.1c-0.1,0.8-0.5,1.5-1.1,2c-0.6,0.5-1.2,0.7-2,0.7c-1,0-1.8-0.3-2.4-0.9s-0.9-1.6-0.9-2.8
			c0-0.8,0.1-1.5,0.4-2.1c0.2-0.6,0.7-1,1.2-1.3s1.2-0.5,1.8-0.5c0.8,0,1.4,0.2,2,0.6s0.8,0.9,0.9,1.8l-1.2,0.2
			c-0.1-0.5-0.4-0.8-0.6-1s-0.6-0.3-1.1-0.3c-0.6,0-1.2,0.2-1.5,0.7c-0.3,0.5-0.6,1.2-0.6,2.1s0.2,1.6,0.6,2.1
			c0.4,0.5,0.8,0.7,1.5,0.7c0.5,0,0.9-0.1,1.2-0.5C96.7,471.6,97.2,471,97.2,470.5z"/>
		<path d="M104.4,470.8l1.3,0.1c-0.2,0.7-0.6,1.3-1.2,1.8c-0.6,0.5-1.3,0.6-2.1,0.6c-1.1,0-1.9-0.4-2.6-0.9
			c-0.7-0.6-0.9-1.5-0.9-2.8c0-1.2,0.3-2.2,0.9-2.8c0.6-0.6,1.4-1,2.4-1c0.9,0,1.8,0.4,2.3,0.9c0.6,0.6,0.9,1.6,0.9,2.8
			c0,0.1,0,0.2,0,0.4h-5.2c0,0.8,0.2,1.4,0.7,1.9c0.5,0.5,0.9,0.6,1.5,0.6c0.5,0,0.8-0.1,1.2-0.4
			C104.1,471.6,104.3,471.3,104.4,470.8z M100.4,468.8h4.1c0-0.6-0.2-1-0.5-1.4c-0.3-0.5-0.9-0.7-1.5-0.7c-0.6,0-1.1,0.2-1.4,0.6
			C100.8,467.6,100.4,468.1,100.4,468.8z"/>
		<path d="M107.3,466.6l-0.3-1.9v-1.6h1.4v1.6l-0.4,1.9H107.3z M109.5,466.6l-0.3-1.9v-1.6h1.4v1.6l-0.4,1.9H109.5z"/>
		<path d="M112.6,467.3v-1.4h1.4v1.4H112.6z M112.6,473.1v-1.4h1.4v1.4H112.6z"/>
		<path d="M120,466.6l-0.3-1.9v-1.6h1.4v1.6l-0.4,1.9H120z M122.4,466.6l-0.4-1.9v-1.6h1.4v1.6l-0.4,1.9H122.4z"/>
		<path d="M126.6,467.6c-0.5-0.2-0.9-0.5-1.2-0.8c-0.2-0.4-0.4-0.8-0.4-1.3c0-0.7,0.2-1.4,0.8-1.9c0.6-0.5,1.2-0.7,2.1-0.7
			s1.6,0.2,2.1,0.8s0.8,1.2,0.8,1.9c0,0.5-0.1,0.8-0.4,1.2c-0.2,0.4-0.6,0.6-1.2,0.8c0.6,0.2,1.1,0.5,1.4,0.9
			c0.3,0.5,0.5,0.9,0.5,1.6c0,0.8-0.4,1.6-0.9,2.2c-0.6,0.6-1.4,0.9-2.4,0.9s-1.8-0.4-2.4-0.9c-0.7-0.6-0.9-1.3-0.9-2.2
			c0-0.7,0.1-1.2,0.5-1.6C125.3,468.1,125.9,467.9,126.6,467.6z M125.9,470.2c0,0.4,0.1,0.7,0.2,1c0.1,0.4,0.5,0.6,0.7,0.8
			c0.2,0.2,0.7,0.2,1.1,0.2c0.6,0,1-0.2,1.4-0.6c0.3-0.3,0.6-0.8,0.6-1.4c0-0.6-0.2-1-0.6-1.5c-0.4-0.5-0.9-0.6-1.5-0.6
			s-1.1,0.2-1.4,0.6C126,469.2,125.9,469.6,125.9,470.2z M126.2,465.5c0,0.5,0.1,0.8,0.5,1.2c0.3,0.4,0.7,0.5,1.2,0.5
			s0.8-0.1,1.2-0.5c0.4-0.3,0.5-0.7,0.5-1c0-0.5-0.1-0.8-0.5-1.2c-0.4-0.4-0.7-0.5-1.2-0.5s-0.8,0.1-1.2,0.5
			C126.3,464.8,126.2,465.2,126.2,465.5z"/>
		<path d="M132.4,468.1c0-1.2,0.1-2.1,0.4-2.9s0.6-1.3,1.1-1.6c0.5-0.4,1.1-0.6,1.9-0.6c0.6,0,1.1,0.1,1.4,0.3
			c0.3,0.2,0.7,0.6,1.1,0.9c0.4,0.4,0.5,0.9,0.6,1.5c0.1,0.6,0.2,1.4,0.2,2.3c0,1.2-0.1,2.1-0.4,2.8s-0.6,1.3-1.1,1.6
			c-0.5,0.3-1.1,0.6-1.9,0.6c-0.9,0-1.8-0.3-2.3-1C132.8,471.4,132.4,470.1,132.4,468.1z M133.7,468.1c0,1.6,0.2,2.7,0.6,3.3
			c0.4,0.6,0.8,0.8,1.4,0.8c0.6,0,1.1-0.2,1.4-0.8c0.4-0.6,0.6-1.6,0.6-3.3s-0.2-2.8-0.6-3.3c-0.3-0.5-0.8-0.8-1.4-0.8
			c-0.6,0-1.1,0.2-1.4,0.7C133.9,465.4,133.7,466.5,133.7,468.1z"/>
		<path d="M140.2,468.1c0-1.2,0.1-2.1,0.4-2.9s0.6-1.3,1.1-1.6c0.5-0.4,1.1-0.6,1.9-0.6c0.6,0,1.1,0.1,1.4,0.3
			c0.3,0.2,0.7,0.6,1.1,0.9c0.4,0.4,0.5,0.9,0.6,1.5s0.2,1.4,0.2,2.3c0,1.2-0.1,2.1-0.4,2.8s-0.6,1.3-1.1,1.6
			c-0.5,0.3-1.1,0.6-1.9,0.6c-0.9,0-1.8-0.3-2.3-1C140.6,471.4,140.2,470.1,140.2,468.1z M141.5,468.1c0,1.6,0.2,2.7,0.6,3.3
			c0.3,0.6,0.8,0.8,1.4,0.8c0.6,0,1.1-0.2,1.4-0.8c0.3-0.6,0.6-1.6,0.6-3.3s-0.2-2.8-0.6-3.3c-0.4-0.5-0.8-0.8-1.4-0.8
			c-0.6,0-1.1,0.2-1.4,0.7C141.6,465.4,141.5,466.5,141.5,468.1z"/>
		<path d="M148.4,473.1v-10h1.3v5l5-5h1.8l-4.2,4.1l4.4,6h-1.8l-3.6-5l-1.6,1.6v3.5h-1.3V473.1z"/>
		<path d="M157.7,466.6l-0.4-1.9v-1.6h1.4v1.6l-0.3,1.9H157.7z M159.9,466.6l-0.4-1.9v-1.6h1.4v1.6l-0.4,1.9H159.9z"/>
		<path d="M63.6,485.7v1.2c-0.3,0-0.6,0.1-0.8,0.2s-0.3,0.5-0.5,0.7c-0.1,0.2-0.1,0.8-0.1,1.6c0,0.8,0,1.3,0,1.5
			c0,0.3-0.1,0.7-0.2,0.9s-0.2,0.5-0.5,0.6c-0.2,0.1-0.3,0.2-0.6,0.3c-0.1,0-0.5,0.1-0.8,0.1h-0.4v-1H60c0.5,0,0.8-0.1,0.9-0.2
			s0.2-0.6,0.2-1.2c0-1.2,0-1.9,0.1-2.2c0.1-0.5,0.2-0.9,0.5-1.2c0.2-0.2,0.6-0.6,0.9-0.7c-0.5-0.2-0.9-0.6-1.1-1
			c-0.1-0.5-0.3-1.2-0.3-2.1s0-1.4,0-1.6c0-0.3-0.1-0.5-0.2-0.6s-0.5-0.2-0.8-0.2H60v-1.2h0.4c0.5,0,0.8,0,0.9,0.1
			c0.2,0.1,0.6,0.2,0.7,0.5s0.4,0.6,0.4,0.9c0,0.3,0.1,0.9,0.1,1.8s0,1.4,0.1,1.8c0.1,0.3,0.2,0.6,0.5,0.7
			C63.2,485.5,63.2,485.7,63.6,485.7z"/>
		<path d="M50.6,509.5H48v-1h1.5v-10.7H48v-1h2.7V509.5z"/>
	</g>
	<g>
		<path d="M41.2,288.5c0.7-0.1,1.8-0.2,2.7-0.2c1.5,0,2.4,0.2,3.1,0.9c0.6,0.5,0.8,1.3,0.8,2.1c0,1.4-0.9,2.5-2.1,2.8l0,0
			c0.8,0.4,1.4,1,1.6,2.2c0.3,1.5,0.6,2.6,0.8,3h-1.5c-0.2-0.4-0.5-1.3-0.7-2.7c-0.3-1.5-0.9-2.1-2.2-2.1h-1.3v4.8h-1.4v-10.9H41.2z
			 M42.6,293.5H44c1.5,0,2.4-0.8,2.4-2.1c0-1.4-1.1-2.1-2.6-2.1c-0.7,0-1.2,0.1-1.4,0.1v4.1H42.6z"/>
		<path d="M50.8,295.7c0,2,1.3,2.8,2.7,2.8c1.1,0,1.6-0.2,2.2-0.5l0.2,1c-0.5,0.2-1.4,0.5-2.7,0.5c-2.4,0-3.8-1.6-3.8-4
			c0-2.3,1.4-4.3,3.7-4.3c2.6,0,3.3,2.2,3.3,3.7c0,0.4,0,0.5,0,0.7H50.8z M55.1,294.6c0-0.9-0.3-2.3-2-2.3c-1.4,0-2.1,1.3-2.2,2.3
			H55.1z"/>
		<path d="M58,297.9c0.5,0.2,1.2,0.6,1.9,0.6c1,0,1.5-0.5,1.5-1.2s-0.5-1-1.5-1.4c-1.4-0.5-2.1-1.3-2.1-2.2c0-1.3,1.1-2.3,2.7-2.3
			c0.8,0,1.5,0.2,2,0.5l-0.3,1c-0.3-0.2-0.9-0.5-1.6-0.5c-0.8,0-1.3,0.5-1.3,1c0,0.7,0.5,0.9,1.5,1.3c1.4,0.5,2.1,1.2,2.1,2.3
			c0,1.4-1,2.3-2.9,2.3c-0.8,0-1.6-0.2-2.2-0.6L58,297.9z"/>
		<path d="M64.6,294c0-1,0-1.9-0.1-2.6h1.3l0.1,1.4l0,0c0.6-0.9,1.5-1.5,2.8-1.5c1.9,0,3.4,1.6,3.4,4c0,2.8-1.8,4.2-3.6,4.2
			c-1.1,0-2-0.5-2.4-1.3l0,0v4.3h-1.4C64.6,302.6,64.6,294,64.6,294z M66,296.1c0,0.2,0,0.5,0.1,0.6c0.2,1,1.2,1.6,2.1,1.6
			c1.5,0,2.4-1.3,2.4-3c0-1.6-0.8-2.9-2.3-2.9c-0.9,0-1.9,0.7-2.2,1.8c0,0.2-0.1,0.4-0.1,0.6C66,294.7,66,296.1,66,296.1z"/>
		<path d="M81.1,295.3c0,2.9-2,4.2-4,4.2c-2.1,0-3.7-1.5-3.7-4.1c0-2.7,1.7-4.2,4-4.2S81.1,292.9,81.1,295.3z M74.8,295.3
			c0,1.8,1.1,3,2.5,3c1.4,0,2.4-1.3,2.4-3c0-1.3-0.7-3-2.3-3C75.6,292.3,74.8,293.9,74.8,295.3z"/>
		<path d="M82.9,293.6c0-0.8,0-1.5-0.1-2.1h1.3l0.1,1.3l0,0c0.3-0.7,1.3-1.5,2.6-1.5c1.1,0,2.8,0.7,2.8,3.4v4.7h-1.4v-4.5
			c0-1.3-0.5-2.3-1.9-2.3c-0.9,0-1.6,0.7-2,1.5c-0.1,0.2-0.1,0.5-0.1,0.7v4.8h-1.4v-5.8H82.9z"/>
		<path d="M91.8,297.9c0.5,0.2,1.2,0.6,1.9,0.6c1.1,0,1.5-0.5,1.5-1.2s-0.5-1-1.5-1.4c-1.4-0.5-2.1-1.3-2.1-2.2
			c0-1.3,1.1-2.3,2.7-2.3c0.8,0,1.5,0.2,2,0.5l-0.3,1c-0.4-0.2-0.9-0.5-1.6-0.5c-0.8,0-1.3,0.5-1.3,1c0,0.7,0.5,0.9,1.5,1.3
			c1.4,0.5,2.1,1.2,2.1,2.3c0,1.4-1.1,2.3-2.9,2.3c-0.8,0-1.6-0.2-2.2-0.6L91.8,297.9z"/>
		<path d="M99.3,295.7c0,2,1.3,2.8,2.7,2.8c1.1,0,1.6-0.2,2.2-0.5l0.2,1c-0.5,0.2-1.4,0.5-2.7,0.5c-2.5,0-3.9-1.6-3.9-4
			c0-2.3,1.4-4.3,3.7-4.3c2.6,0,3.3,2.2,3.3,3.7c0,0.4,0,0.5,0,0.7H99.3z M103.5,294.6c0-0.9-0.4-2.3-2-2.3c-1.4,0-2.1,1.3-2.2,2.3
			H103.5z"/>
		<path d="M113.2,288c-1.2,1.6-2.1,3.7-2.1,6.6c0,2.9,0.9,5,2.1,6.6H112c-1.1-1.4-2.1-3.5-2.1-6.6c0-3.3,1.2-5.4,2.1-6.6H113.2z"/>
		<path d="M117.2,288.3h1.4v7.3c0,2.9-1.4,3.9-3.4,3.9c-0.5,0-1.2-0.1-1.5-0.2l0.2-1.2c0.4,0.1,0.7,0.2,1.2,0.2c1.3,0,2-0.6,2-2.7
			v-7.3H117.2z"/>
		<path d="M120.9,297.5c0.6,0.4,1.5,0.7,2.6,0.7c1.4,0,2.3-0.8,2.3-1.9s-0.6-1.6-2.1-2.2c-1.8-0.6-2.9-1.5-2.9-3.1
			c0-1.8,1.4-3,3.6-3c1.2,0,2,0.2,2.4,0.6l-0.4,1.2c-0.3-0.2-1.1-0.5-2.1-0.5c-1.5,0-2.1,0.9-2.1,1.6c0,1,0.7,1.5,2.2,2.1
			c1.9,0.7,2.8,1.6,2.8,3.3c0,1.8-1.3,3.1-3.9,3.1c-1.1,0-2.2-0.4-2.8-0.7L120.9,297.5z"/>
		<path d="M138.6,293.7c0,3.7-2.3,5.8-5.1,5.8c-2.9,0-4.9-2.2-4.9-5.6c0-3.5,2.2-5.8,5.1-5.8S138.6,290.4,138.6,293.7z M130,293.9
			c0,2.3,1.3,4.4,3.5,4.4c2.2,0,3.5-2.1,3.5-4.5c0-2.2-1.2-4.4-3.5-4.4C131.1,289.3,130,291.5,130,293.9z"/>
		<path d="M140.4,299.3v-11h1.5l3.5,5.6c0.8,1.3,1.4,2.5,2,3.6l0,0c-0.1-1.5-0.1-2.8-0.1-4.6v-4.7h1.3v11h-1.4l-3.5-5.6
			c-0.8-1.3-1.5-2.5-2.1-3.7l0,0c0.1,1.4,0.1,2.7,0.1,4.6v4.7h-1.3V299.3z"/>
		<path d="M150.3,301.3c1.2-1.6,2.1-3.7,2.1-6.6c0-2.9-0.9-5-2.1-6.6h1.2c1,1.3,2.1,3.4,2.1,6.6c0,3.1-1.1,5.2-2.1,6.6H150.3z"/>
	</g>
</g>
<g>
	<g>
		<path d="M411.4,209.5v5.6c0,2.1,0.9,3,2.2,3c1.4,0,2.3-0.9,2.3-3v-5.6h1.3v5.5c0,2.9-1.5,4.1-3.6,4.1c-2,0-3.4-1-3.4-4.1v-5.6h1.2
			V209.5z"/>
		<path d="M419.3,209.6c0.6-0.1,1.5-0.2,2.3-0.2c1.3,0,2.1,0.2,2.7,0.8c0.5,0.5,0.7,1.1,0.7,1.8c0,1.3-0.8,2.1-1.8,2.4l0,0
			c0.7,0.2,1.2,0.9,1.4,1.9c0.3,1.3,0.6,2.2,0.7,2.6h-1.3c-0.1-0.2-0.3-1-0.6-2.2c-0.2-1.3-0.8-1.8-1.9-1.9h-1.2v4.1h-1.2V209.6z
			 M420.5,213.8h1.3c1.3,0,2.1-0.7,2.1-1.8c0-1.2-0.9-1.8-2.2-1.8c-0.6,0-1,0-1.2,0.1V213.8z"/>
		<path d="M428,209.5v9.4h-1.2v-9.4H428z"/>
		<path d="M429.8,213.2c0-0.5,0.3-0.9,0.8-0.9c0.5,0,0.8,0.4,0.8,0.9c0,0.5-0.4,0.8-0.8,0.8C430.1,214,429.8,213.7,429.8,213.2z
			 M429.8,218.1c0-0.5,0.3-0.9,0.8-0.9c0.5,0,0.8,0.3,0.8,0.9c0,0.5-0.4,0.8-0.8,0.8C430.1,219,429.8,218.6,429.8,218.1z"/>
		<path d="M438.9,208.9h1.3v4.2l0,0c0.2-0.3,0.5-0.7,0.9-0.8c0.3-0.2,0.8-0.4,1.3-0.4c0.9,0,2.3,0.6,2.3,2.9v4.1h-1.3v-3.9
			c0-1.1-0.3-2-1.5-2c-0.8,0-1.4,0.6-1.6,1.3c-0.1,0.1-0.1,0.4-0.1,0.6v4.1h-1.3V208.9z"/>
		<path d="M448.1,210.2v2h1.8v0.9h-1.8v3.6c0,0.8,0.2,1.3,0.9,1.3c0.3,0,0.6,0,0.7-0.1v0.9c-0.2,0.1-0.6,0.1-1,0.1
			c-0.6,0-1-0.2-1.3-0.5c-0.3-0.4-0.5-0.9-0.5-1.8V213h-1V212h1v-1.6L448.1,210.2z"/>
		<path d="M452.8,210.2v2h1.8v0.9h-1.8v3.6c0,0.8,0.2,1.3,0.9,1.3c0.3,0,0.6,0,0.7-0.1v0.9c-0.2,0.1-0.6,0.1-1,0.1
			c-0.6,0-1.1-0.2-1.3-0.5c-0.3-0.4-0.5-0.9-0.5-1.8V213h-1.1V212h1.1v-1.6L452.8,210.2z"/>
		<path d="M455.9,214.2c0-0.8,0-1.5,0-2.2h1.1v1.2l0,0c0.5-0.8,1.3-1.3,2.4-1.3c1.6,0,2.9,1.4,2.9,3.5c0,2.4-1.5,3.6-3,3.6
			c-0.9,0-1.6-0.4-2.1-1l0,0v3.7H456v-7.5H455.9z M457.1,216.1c0,0.2,0,0.4,0,0.5c0.2,0.8,0.9,1.4,1.9,1.4c1.3,0,2.1-1,2.1-2.6
			c0-1.4-0.7-2.6-2-2.6c-0.8,0-1.6,0.6-1.9,1.5c0,0.1-0.1,0.4-0.1,0.5L457.1,216.1L457.1,216.1z"/>
		<path d="M463.6,213.2c0-0.5,0.4-0.9,0.8-0.9c0.5,0,0.8,0.4,0.8,0.9c0,0.5-0.3,0.8-0.8,0.8C463.9,214,463.6,213.7,463.6,213.2z
			 M463.6,218.1c0-0.5,0.4-0.9,0.8-0.9c0.5,0,0.8,0.3,0.8,0.9c0,0.5-0.3,0.8-0.8,0.8C463.9,219,463.6,218.6,463.6,218.1z"/>
		<path d="M465.7,219.4l3.8-10.1h0.9l-4,10.1H465.7z"/>
		<path d="M470.5,219.4l3.8-10.1h0.9l-4,10.1H470.5z"/>
		<path d="M481.2,218.6c-0.3,0.1-1,0.4-2,0.4c-2.1,0-3.4-1.4-3.4-3.5c0-2.1,1.4-3.6,3.6-3.6c0.7,0,1.4,0.2,1.8,0.4l-0.2,0.9
			c-0.3-0.1-0.7-0.4-1.4-0.4c-1.5,0-2.4,1.2-2.4,2.6c0,1.5,1,2.6,2.3,2.6c0.7,0,1.2-0.2,1.5-0.4L481.2,218.6z"/>
		<path d="M488.7,215.4c0,2.4-1.8,3.6-3.4,3.6c-1.9,0-3.3-1.4-3.3-3.5c0-2.2,1.5-3.6,3.4-3.6C487.4,211.9,488.7,213.3,488.7,215.4z
			 M483.3,215.4c0,1.5,0.8,2.6,2.1,2.6c1.2,0,2.1-1,2.1-2.7c0-1.2-0.6-2.6-2-2.6C483.9,212.9,483.3,214.1,483.3,215.4z"/>
		<path d="M496.4,215.4c0,2.4-1.8,3.6-3.4,3.6c-1.9,0-3.3-1.4-3.3-3.5c0-2.2,1.5-3.6,3.4-3.6C495,211.9,496.4,213.3,496.4,215.4z
			 M491,215.4c0,1.5,0.8,2.6,2.1,2.6c1.2,0,2.1-1,2.1-2.7c0-1.2-0.6-2.6-2-2.6C491.6,212.9,491,214.1,491,215.4z"/>
		<path d="M497.9,208.9h1.3v9.9h-1.3V208.9z"/>
		<path d="M501.2,208.9h1.3v4.2l0,0c0.2-0.3,0.5-0.7,0.9-0.8c0.3-0.2,0.8-0.4,1.3-0.4c0.9,0,2.3,0.6,2.3,2.9v4.1h-1.3v-3.9
			c0-1.1-0.3-2-1.5-2c-0.8,0-1.4,0.6-1.6,1.3c-0.1,0.1-0.1,0.4-0.1,0.6v4.1h-1.3V208.9z"/>
		<path d="M515.2,215.4c0,2.4-1.8,3.6-3.4,3.6c-1.9,0-3.3-1.4-3.3-3.5c0-2.2,1.5-3.6,3.4-3.6C513.8,211.9,515.2,213.3,515.2,215.4z
			 M509.7,215.4c0,1.5,0.8,2.6,2.1,2.6c1.2,0,2.1-1,2.1-2.7c0-1.2-0.6-2.6-2-2.6C510.4,212.9,509.7,214.1,509.7,215.4z"/>
		<path d="M516.7,213.9c0-0.7,0-1.3,0-1.9h1.1v1.1l0,0c0.3-0.7,1-1.3,2.1-1.3c0.9,0,1.6,0.6,1.9,1.4l0,0c0.2-0.4,0.5-0.7,0.7-0.9
			c0.3-0.4,0.8-0.5,1.5-0.5c0.9,0,2.2,0.6,2.2,2.9v4H525v-3.9c0-1.3-0.5-2.1-1.5-2.1c-0.7,0-1.3,0.5-1.4,1.2c0,0.1-0.1,0.4-0.1,0.6
			v4.2h-1.2v-3.8c0-1.1-0.5-1.9-1.4-1.9c-0.8,0-1.3,0.6-1.5,1.3c-0.1,0.2-0.1,0.4-0.1,0.6v4.1h-1.2v-5H516.7z"/>
		<path d="M529.1,215.6c0,1.6,1,2.3,2.3,2.3c0.9,0,1.4-0.1,1.9-0.3l0.2,0.9c-0.5,0.2-1.2,0.5-2.2,0.5c-2.1,0-3.4-1.4-3.4-3.4
			s1.2-3.6,3.2-3.6c2.2,0,2.8,2,2.8,3.1c0,0.2,0,0.5,0,0.6h-4.8V215.6z M532.7,214.8c0-0.8-0.4-2-1.8-2c-1.3,0-1.8,1.2-1.9,2H532.7z
			"/>
		<path d="M535.3,217.6c0.3,0.2,1,0.5,1.6,0.5c0.9,0,1.3-0.5,1.3-1.1c0-0.6-0.3-0.9-1.3-1.3c-1.2-0.5-1.8-1.1-1.8-1.9
			c0-1.1,0.9-2,2.3-2c0.7,0,1.3,0.2,1.6,0.5l-0.3,0.9c-0.2-0.1-0.7-0.3-1.4-0.3s-1.2,0.5-1.2,0.9c0,0.6,0.3,0.8,1.3,1.2
			c1.2,0.5,1.8,1.1,1.8,2.1c0,1.2-0.9,2-2.6,2c-0.7,0-1.4-0.2-1.9-0.5L535.3,217.6z"/>
		<path d="M540.5,218.1c0-0.5,0.3-0.9,0.8-0.9s0.8,0.3,0.8,0.9c0,0.5-0.4,0.9-0.8,0.9S540.5,218.6,540.5,218.1z"/>
		<path d="M547.4,218.8l-0.1-0.8l0,0c-0.3,0.6-1,1.1-2.1,1.1c-1.4,0-2.1-0.9-2.1-2c0-1.6,1.4-2.6,4.1-2.6v-0.1
			c0-0.6-0.1-1.5-1.5-1.5c-0.6,0-1.3,0.2-1.8,0.5l-0.2-0.8c0.6-0.4,1.4-0.6,2.2-0.6c2.1,0,2.6,1.4,2.6,2.8v2.6c0,0.6,0,1.2,0.1,1.6
			h-1.2V218.8z M547.3,215.4c-1.4,0-2.9,0.2-2.9,1.5c0,0.8,0.6,1.2,1.2,1.2c0.9,0,1.4-0.6,1.6-1.2c0-0.1,0.1-0.2,0.1-0.4V215.4z"/>
		<path d="M550.4,214.2c0-0.8,0-1.5,0-2.2h1v1.2l0,0c0.5-0.8,1.3-1.3,2.5-1.3c1.6,0,2.9,1.4,2.9,3.5c0,2.4-1.5,3.6-3,3.6
			c-0.9,0-1.6-0.4-2.1-1l0,0v3.7h-1.2v-7.5H550.4z M551.6,216.1c0,0.2,0,0.4,0,0.5c0.2,0.8,0.9,1.4,1.9,1.4c1.3,0,2.1-1,2.1-2.6
			c0-1.4-0.7-2.6-2-2.6c-0.8,0-1.6,0.6-1.9,1.5c0,0.1-0.1,0.4-0.1,0.5L551.6,216.1L551.6,216.1z"/>
		<path d="M559.8,210.2c0,0.5-0.4,0.7-0.8,0.7s-0.7-0.4-0.7-0.7c0-0.5,0.3-0.8,0.8-0.8C559.4,209.4,559.8,209.7,559.8,210.2z
			 M558.4,218.8V212h1.3v6.8H558.4z"/>
		<path d="M561.4,218.1c0-0.5,0.3-0.9,0.8-0.9s0.8,0.3,0.8,0.9c0,0.5-0.4,0.9-0.8,0.9S561.4,218.6,561.4,218.1z"/>
		<path d="M569.5,218.6c-0.4,0.1-1,0.4-2,0.4c-2.1,0-3.4-1.4-3.4-3.5c0-2.1,1.4-3.6,3.6-3.6c0.7,0,1.4,0.2,1.8,0.4l-0.2,0.9
			c-0.3-0.1-0.7-0.4-1.4-0.4c-1.5,0-2.5,1.2-2.5,2.6c0,1.5,1,2.6,2.3,2.6c0.7,0,1.2-0.2,1.5-0.4L569.5,218.6z"/>
		<path d="M576.9,215.4c0,2.4-1.8,3.6-3.4,3.6c-1.9,0-3.3-1.4-3.3-3.5c0-2.2,1.5-3.6,3.4-3.6C575.5,211.9,576.9,213.3,576.9,215.4z
			 M571.5,215.4c0,1.5,0.8,2.6,2.1,2.6c1.2,0,2.1-1,2.1-2.7c0-1.2-0.6-2.6-2-2.6C572.1,212.9,571.5,214.1,571.5,215.4z"/>
		<path d="M578.4,213.9c0-0.7,0-1.3,0-1.9h1v1.1l0,0c0.3-0.7,1-1.3,2.1-1.3c0.9,0,1.6,0.6,1.9,1.4l0,0c0.2-0.4,0.5-0.7,0.7-0.9
			c0.3-0.4,0.8-0.5,1.5-0.5c0.9,0,2.2,0.6,2.2,2.9v4h-1.2v-3.9c0-1.3-0.5-2.1-1.5-2.1c-0.7,0-1.3,0.5-1.4,1.2c0,0.1-0.1,0.4-0.1,0.6
			v4.2h-1.2v-3.8c0-1.1-0.5-1.9-1.4-1.9c-0.8,0-1.3,0.6-1.5,1.3c-0.1,0.2-0.1,0.4-0.1,0.6v4.1h-1.2v-5H578.4z"/>
		<path d="M589,219.4l3.8-10.1h0.9l-4,10.1H589z"/>
		<path d="M594.9,208.9h1.3v4.2l0,0c0.2-0.3,0.5-0.7,0.9-0.8c0.3-0.2,0.8-0.4,1.3-0.4c0.9,0,2.3,0.6,2.3,2.9v4.1h-1.3v-3.9
			c0-1.1-0.3-2-1.5-2c-0.8,0-1.4,0.6-1.6,1.3c-0.1,0.1-0.1,0.4-0.1,0.6v4.1h-1.3V208.9z"/>
		<path d="M608.8,215.4c0,2.4-1.8,3.6-3.4,3.6c-1.9,0-3.3-1.4-3.3-3.5c0-2.2,1.5-3.6,3.4-3.6C607.5,211.9,608.8,213.3,608.8,215.4z
			 M603.4,215.4c0,1.5,0.8,2.6,2.1,2.6c1.2,0,2.1-1,2.1-2.7c0-1.2-0.6-2.6-2-2.6C604.1,212.9,603.4,214.1,603.4,215.4z"/>
		<path d="M610.4,213.9c0-0.7,0-1.3,0-1.9h1.1v1.1l0,0c0.3-0.7,1.1-1.3,2.1-1.3c0.9,0,1.6,0.6,1.9,1.4l0,0c0.2-0.4,0.5-0.7,0.7-0.9
			c0.3-0.4,0.8-0.5,1.5-0.5c0.9,0,2.2,0.6,2.2,2.9v4h-1.2v-3.9c0-1.3-0.5-2.1-1.5-2.1c-0.7,0-1.3,0.5-1.4,1.2c0,0.1-0.1,0.4-0.1,0.6
			v4.2h-1.2v-3.8c0-1.1-0.5-1.9-1.4-1.9c-0.8,0-1.3,0.6-1.5,1.3c-0.1,0.2-0.1,0.4-0.1,0.6v4.1h-1.2v-5H610.4z"/>
		<path d="M622.8,215.6c0,1.6,1.1,2.3,2.3,2.3c0.9,0,1.4-0.1,1.9-0.3l0.2,0.9c-0.5,0.2-1.2,0.5-2.2,0.5c-2.1,0-3.4-1.4-3.4-3.4
			s1.2-3.6,3.1-3.6c2.2,0,2.8,2,2.8,3.1c0,0.2,0,0.5,0,0.6h-4.8V215.6z M626.4,214.8c0-0.8-0.4-2-1.8-2c-1.3,0-1.8,1.2-1.9,2H626.4z
			"/>
		<path d="M628.9,217.6c0.3,0.2,1.1,0.5,1.6,0.5c0.9,0,1.3-0.5,1.3-1.1c0-0.6-0.4-0.9-1.3-1.3c-1.2-0.5-1.8-1.1-1.8-1.9
			c0-1.1,0.9-2,2.3-2c0.7,0,1.3,0.2,1.6,0.5l-0.3,0.9c-0.2-0.1-0.7-0.3-1.4-0.3c-0.7,0-1.2,0.5-1.2,0.9c0,0.6,0.3,0.8,1.3,1.2
			c1.2,0.5,1.8,1.1,1.8,2.1c0,1.2-0.9,2-2.6,2c-0.7,0-1.4-0.2-1.9-0.5L628.9,217.6z"/>
		<path d="M635.6,216.1v-0.3c-0.1-0.7,0.1-1.6,0.8-2.5c0.6-0.7,0.9-1.3,0.9-1.9c0-0.7-0.5-1.2-1.3-1.2c-0.5,0-1.1,0.1-1.4,0.5
			l-0.3-0.9c0.5-0.3,1.3-0.6,2-0.6c1.6,0,2.3,1.1,2.3,2.1c0,0.9-0.6,1.6-1.2,2.4c-0.6,0.7-0.8,1.4-0.8,2.1v0.4h-1V216.1z
			 M635.2,218.1c0-0.5,0.3-0.9,0.8-0.9s0.8,0.3,0.8,0.9c0,0.5-0.4,0.8-0.8,0.8C635.6,219,635.2,218.6,635.2,218.1z"/>
		<path d="M640.3,208.9h1.3v9.9h-1.3V208.9z"/>
		<path d="M644.9,210.2c0,0.5-0.3,0.7-0.8,0.7c-0.5,0-0.7-0.4-0.7-0.7c0-0.5,0.3-0.8,0.8-0.8C644.7,209.4,644.9,209.7,644.9,210.2z
			 M643.6,218.8V212h1.3v6.8H643.6z"/>
		<path d="M646.9,213.9c0-0.7,0-1.3,0-1.9h1.1v1.1l0,0c0.3-0.7,1.1-1.3,2.1-1.3c0.9,0,1.6,0.6,1.9,1.4l0,0c0.2-0.4,0.5-0.7,0.7-0.9
			c0.4-0.4,0.8-0.5,1.5-0.5c0.9,0,2.2,0.6,2.2,2.9v4h-1.2v-3.9c0-1.3-0.5-2.1-1.5-2.1c-0.7,0-1.3,0.5-1.4,1.2c0,0.1-0.1,0.4-0.1,0.6
			v4.2H651v-3.8c0-1.1-0.5-1.9-1.4-1.9c-0.8,0-1.3,0.6-1.5,1.3c-0.1,0.2-0.1,0.4-0.1,0.6v4.1h-1.2v-5H646.9z"/>
		<path d="M659.9,210.2c0,0.5-0.4,0.7-0.8,0.7s-0.7-0.4-0.7-0.7c0-0.5,0.3-0.8,0.8-0.8C659.6,209.4,659.9,209.7,659.9,210.2z
			 M658.6,218.8V212h1.3v6.8H658.6z"/>
		<path d="M663.2,210.2v2h1.8v0.9h-1.8v3.6c0,0.8,0.2,1.3,0.9,1.3c0.3,0,0.6,0,0.7-0.1v0.9c-0.2,0.1-0.6,0.1-1,0.1
			c-0.6,0-1.1-0.2-1.3-0.5c-0.3-0.4-0.5-0.9-0.5-1.8V213H661V212h1.1v-1.6L663.2,210.2z"/>
		<path d="M666,214.1v-0.8h7.2v0.8H666z M666,216.8V216h7.2v0.8H666z"/>
		<path d="M679.8,210.8h-3.5l-0.3,2.3c0.2,0,0.3,0,0.7,0c0.7,0,1.4,0.1,2,0.5c0.7,0.4,1.3,1.2,1.3,2.3c0,1.8-1.4,3.2-3.4,3.2
			c-1.1,0-1.9-0.2-2.2-0.6l0.3-0.9c0.3,0.2,1.2,0.5,2,0.5c1.2,0,2.1-0.7,2.1-2c0-1.2-0.8-2-2.6-2c-0.5,0-0.9,0-1.3,0.1l0.6-4.3h4.3
			L679.8,210.8L679.8,210.8z"/>
		<path d="M418.1,231.5c-0.1-1.3-0.1-2.9-0.1-4.1l0,0c-0.3,1-0.7,2.3-1.2,3.6l-1.6,4.6h-1l-1.5-4.6c-0.5-1.3-0.8-2.6-1-3.6l0,0
			c0,1.2-0.1,2.8-0.2,4.2l-0.2,4.1H410l0.7-9.5h1.5l1.6,4.6c0.4,1.2,0.7,2.2,0.9,3.1l0,0c0.2-0.9,0.6-2,1.1-3.1l1.6-4.6h1.5l0.6,9.5
			h-1.2L418.1,231.5z"/>
		<path d="M422.2,232.5c0,1.6,1,2.3,2.3,2.3c0.9,0,1.4-0.1,1.9-0.4l0.2,0.9c-0.5,0.2-1.2,0.5-2.2,0.5c-2.1,0-3.4-1.4-3.4-3.4
			c0-2,1.2-3.6,3.2-3.6c2.2,0,2.8,2,2.8,3.1c0,0.2,0,0.5,0,0.6h-4.8V232.5z M425.8,231.6c0-0.8-0.3-2-1.8-2c-1.3,0-1.8,1.2-1.9,2
			H425.8z"/>
		<path d="M430,227v2h1.8v0.9H430v3.6c0,0.8,0.2,1.3,0.9,1.3c0.3,0,0.6,0,0.7-0.1v0.9c-0.2,0.1-0.6,0.1-1,0.1c-0.6,0-1-0.2-1.3-0.5
			c-0.3-0.4-0.5-0.9-0.5-1.8v-3.7h-1v-0.9h1v-1.6L430,227z"/>
		<path d="M433.2,225.7h1.3v4.2l0,0c0.2-0.4,0.5-0.7,0.9-0.8c0.3-0.2,0.8-0.4,1.3-0.4c0.9,0,2.3,0.6,2.3,2.9v4.1h-1.3v-3.9
			c0-1-0.4-2-1.5-2c-0.8,0-1.4,0.6-1.6,1.3c-0.1,0.1-0.1,0.4-0.1,0.6v4.1h-1.3V225.7z"/>
		<path d="M447.1,232.2c0,2.5-1.8,3.6-3.4,3.6c-1.9,0-3.3-1.4-3.3-3.5c0-2.2,1.5-3.6,3.4-3.6C445.8,228.7,447.1,230.1,447.1,232.2z
			 M441.7,232.2c0,1.5,0.8,2.6,2.1,2.6c1.2,0,2.1-1.1,2.1-2.7c0-1.2-0.6-2.6-2-2.6C442.3,229.6,441.7,230.9,441.7,232.2z"/>
		<path d="M454.4,225.7v8.2c0,0.6,0,1.3,0,1.8h-1v-1.2l0,0c-0.4,0.7-1.2,1.3-2.3,1.3c-1.6,0-2.9-1.4-2.9-3.5c0-2.2,1.4-3.6,3-3.6
			c1,0,1.8,0.5,2.1,1l0,0v-4.1h1.2V225.7z M453.2,231.6c0-0.1,0-0.4,0-0.5c-0.2-0.8-0.8-1.4-1.8-1.4c-1.3,0-2,1.2-2,2.6
			s0.7,2.5,2,2.5c0.8,0,1.6-0.6,1.8-1.5c0-0.1,0-0.3,0-0.6V231.6z"/>
		<path d="M456.2,230c0-0.5,0.3-0.9,0.8-0.9c0.5,0,0.8,0.4,0.8,0.9c0,0.5-0.4,0.8-0.8,0.8C456.5,230.8,456.2,230.5,456.2,230z
			 M456.2,234.9c0-0.5,0.3-0.9,0.8-0.9c0.5,0,0.8,0.4,0.8,0.9c0,0.5-0.4,0.8-0.8,0.8C456.5,235.8,456.2,235.4,456.2,234.9z"/>
		<path d="M475.5,235.2c-0.6,0.2-1.6,0.5-2.9,0.5c-1.4,0-2.6-0.4-3.5-1.3c-0.8-0.8-1.3-2.1-1.3-3.5c0-2.8,2-4.9,5.1-4.9
			c1,0,2,0.2,2.3,0.5l-0.4,1c-0.5-0.2-1.2-0.4-2.1-0.4c-2.3,0-3.7,1.4-3.7,3.7c0,2.4,1.4,3.9,3.6,3.9c0.8,0,1.4-0.1,1.6-0.2v-2.8
			h-1.9v-0.9h3.2v4.4H475.5z"/>
		<path d="M482.3,231.2h-3.6v3.4h4.1v1.1h-5.2v-9.5h5.1v1h-3.8v3h3.6v0.9H482.3z"/>
		<path d="M486.3,227.2h-2.9v-1.1h7v1.1h-2.9v8.4h-1.3v-8.4H486.3z"/>
	</g>
	<g>
		<path d="M507,185.3c0.7-0.1,1.8-0.2,2.7-0.2c1.5,0,2.4,0.2,3.1,0.9c0.6,0.5,0.8,1.3,0.8,2.1c0,1.4-0.9,2.4-2.1,2.8l0,0
			c0.8,0.4,1.4,1.1,1.6,2.2c0.3,1.5,0.6,2.6,0.8,3h-1.5c-0.2-0.4-0.5-1.3-0.7-2.7c-0.4-1.5-0.9-2.1-2.2-2.1h-1.3v4.8h-1.4v-10.9H507
			z M508.5,190.3h1.4c1.5,0,2.5-0.8,2.5-2.1c0-1.4-1.1-2.1-2.6-2.1c-0.7,0-1.2,0.1-1.4,0.1v4.1H508.5z"/>
		<path d="M516.7,192.6c0,2,1.3,2.8,2.7,2.8c1,0,1.6-0.2,2.2-0.5l0.2,1.1c-0.5,0.2-1.4,0.5-2.7,0.5c-2.5,0-3.8-1.6-3.8-4
			c0-2.3,1.4-4.3,3.7-4.3c2.6,0,3.3,2.2,3.3,3.7c0,0.4,0,0.5,0,0.7H516.7z M520.9,191.5c0-0.9-0.3-2.3-2-2.3c-1.4,0-2.1,1.3-2.2,2.3
			H520.9z"/>
		<path d="M529.4,195L529.4,195c-0.5,0.8-1.3,1.4-2.6,1.4c-1.9,0-3.4-1.6-3.4-4c0-2.9,1.9-4.3,3.6-4.3c1.3,0,2.1,0.6,2.5,1.4l0,0
			v-1.2h1.4c0,0.7,0,1.4,0,2.2v9h-1.4V195H529.4z M529.4,191.5c0-0.2,0-0.5-0.1-0.6c-0.2-0.9-0.9-1.6-2.1-1.6c-1.5,0-2.3,1.3-2.3,3
			c0,1.5,0.7,2.9,2.3,2.9c0.9,0,1.8-0.6,2.1-1.5c0.1-0.2,0.1-0.5,0.1-0.7V191.5z"/>
		<path d="M539.9,194.1c0,0.8,0,1.5,0.1,2.1h-1.3l-0.1-1.3l0,0c-0.3,0.6-1.2,1.5-2.6,1.5c-1.3,0-2.7-0.7-2.7-3.5v-4.7h1.4v4.4
			c0,1.5,0.5,2.6,1.8,2.6c0.9,0,1.6-0.7,1.9-1.3c0.1-0.2,0.1-0.5,0.1-0.7v-4.9h1.4L539.9,194.1L539.9,194.1z"/>
		<path d="M543.1,192.6c0,2,1.3,2.8,2.7,2.8c1,0,1.6-0.2,2.2-0.5l0.2,1.1c-0.5,0.2-1.4,0.5-2.7,0.5c-2.5,0-3.8-1.6-3.8-4
			c0-2.3,1.4-4.3,3.7-4.3c2.6,0,3.3,2.2,3.3,3.7c0,0.4,0,0.5,0,0.7H543.1z M547.3,191.5c0-0.9-0.3-2.3-2-2.3c-1.4,0-2.1,1.3-2.2,2.3
			H547.3z"/>
		<path d="M550.2,194.8c0.5,0.2,1.2,0.6,1.9,0.6c1,0,1.5-0.5,1.5-1.2s-0.5-1.1-1.5-1.4c-1.4-0.5-2.1-1.3-2.1-2.2
			c0-1.3,1-2.3,2.7-2.3c0.8,0,1.5,0.2,2,0.5l-0.3,1.1c-0.4-0.2-0.9-0.5-1.6-0.5c-0.8,0-1.3,0.5-1.3,1.1c0,0.7,0.5,0.9,1.5,1.3
			c1.4,0.5,2.1,1.2,2.1,2.3c0,1.4-1,2.3-2.9,2.3c-0.8,0-1.6-0.2-2.2-0.6L550.2,194.8z"/>
		<path d="M558.6,186v2.2h2.1v1.1h-2.1v4.3c0,0.9,0.2,1.5,1,1.5c0.3,0,0.7,0,0.8-0.1l0.1,1.1c-0.2,0.1-0.7,0.2-1.3,0.2
			c-0.7,0-1.2-0.2-1.5-0.6c-0.5-0.5-0.6-1.2-0.6-2.1v-4.3h-1.3v-1.1h1.3v-1.9L558.6,186z"/>
	</g>
</g>
<line style="fill:none;stroke:#B3B3B3;stroke-miterlimit:10;" x1="422.3" y1="316.9" x2="535.5" y2="316.9"/>
<line style="fill:none;stroke:#B3B3B3;stroke-miterlimit:10;" x1="534.9" y1="317.5" x2="534.9" y2="247.5"/>
<g>
	<g>
		<path style="fill:#666666;" d="M111.9,245.8c-0.7-0.8-1.3-1.9-1.8-3s-0.7-2.3-0.7-3.6c0-1.1,0.1-2.1,0.5-3.2
			c0.4-1.2,1.1-2.3,1.9-3.5h0.9c-0.6,0.9-0.9,1.6-1.1,2c-0.2,0.6-0.5,1.3-0.6,2c-0.2,0.8-0.2,1.8-0.2,2.6c0,2.2,0.7,4.4,2.1,6.5
			L111.9,245.8z"/>
		<path style="fill:#666666;" d="M113.6,239.9l1.2-0.1c0,0.8,0.2,1.3,0.5,1.5c0.2,0.2,0.6,0.5,1.1,0.5c0.4,0,0.6-0.1,0.8-0.2
			s0.4-0.4,0.5-0.6c0.1-0.2,0.1-0.7,0.1-1.3l-0.1-6.9h1.3l0.1,6.9c0,0.8-0.1,1.5-0.2,2c-0.1,0.5-0.5,0.8-0.9,1.1
			c-0.5,0.2-0.9,0.4-1.5,0.4c-0.9,0-1.5-0.2-2-0.7C113.9,241.7,113.6,241,113.6,239.9z"/>
		<path style="fill:#666666;" d="M125.9,241.8c-0.5,0.4-0.9,0.7-1.3,0.8c-0.5,0.1-0.8,0.2-1.4,0.2c-0.8,0-1.4-0.2-1.9-0.6
			s-0.7-0.9-0.7-1.5c0-0.3,0.1-0.7,0.2-0.9c0.1-0.4,0.4-0.6,0.6-0.7c0.2-0.2,0.6-0.4,0.9-0.5c0.2-0.1,0.6-0.1,1.1-0.2
			c1.1-0.1,1.8-0.2,2.2-0.5c0-0.1,0-0.2,0-0.4c0-0.5-0.1-0.8-0.4-1c-0.3-0.2-0.8-0.5-1.4-0.4c-0.6,0-1.1,0.1-1.3,0.4
			c-0.2,0.2-0.5,0.6-0.6,1l-1.2-0.1c0.1-0.5,0.2-0.9,0.6-1.3c0.2-0.4,0.6-0.6,1.1-0.7c0.5-0.1,1.1-0.2,1.6-0.2
			c0.6,0,1.2,0.1,1.5,0.2c0.4,0.1,0.7,0.4,0.8,0.6c0.2,0.2,0.4,0.5,0.4,0.8c0,0.2,0.1,0.6,0.1,1.2v1.6c0,1.2,0,1.9,0.1,2.2
			c0,0.4,0.1,0.6,0.3,0.8h-1.3C126.1,242.5,126,242.1,125.9,241.8z M125.8,239.1c-0.5,0.2-1.2,0.4-2,0.5c-0.5,0.1-0.8,0.1-1,0.2
			c-0.2,0.1-0.4,0.2-0.5,0.4c-0.1,0.2-0.1,0.4-0.1,0.6c0,0.4,0.1,0.6,0.4,0.8c0.2,0.2,0.6,0.4,1,0.4c0.5,0,0.9-0.1,1.3-0.4
			c0.3-0.2,0.6-0.5,0.8-0.8c0.1-0.2,0.2-0.7,0.2-1.3L125.8,239.1z"/>
		<path style="fill:#666666;" d="M131,242.6l-2.8-7.2h1.3l1.6,4.3c0.1,0.5,0.4,0.9,0.5,1.5c0.1-0.4,0.2-0.8,0.5-1.4l1.5-4.4h1.3
			l-2.7,7.2H131z"/>
		<path style="fill:#666666;" d="M140.7,241.7c-0.5,0.3-0.9,0.7-1.3,0.8c-0.5,0.1-0.8,0.2-1.4,0.2c-0.8,0-1.4-0.2-1.9-0.6
			c-0.5-0.4-0.7-0.9-0.7-1.5c0-0.4,0.1-0.7,0.2-0.9c0.1-0.4,0.4-0.6,0.6-0.7c0.2-0.1,0.6-0.4,0.9-0.5c0.2-0.1,0.6-0.1,1.1-0.2
			c1.1-0.1,1.8-0.2,2.2-0.5c0-0.1,0-0.2,0-0.4c0-0.5-0.1-0.8-0.4-1c-0.4-0.2-0.8-0.5-1.4-0.4c-0.6,0-1.1,0.1-1.3,0.4
			c-0.2,0.2-0.5,0.6-0.6,1l-1.2-0.1c0.1-0.5,0.2-0.9,0.6-1.3c0.4-0.4,0.6-0.6,1.1-0.7c0.5-0.1,1.1-0.2,1.6-0.2s1.2,0.1,1.5,0.2
			c0.4,0.1,0.7,0.4,0.8,0.6c0.2,0.2,0.4,0.5,0.4,0.8c0,0.2,0.1,0.6,0.1,1.2v1.6c0,1.2,0,1.9,0.1,2.2c0.1,0.3,0.1,0.6,0.3,0.8h-1.3
			C140.8,242.2,140.8,242,140.7,241.7z M140.6,238.9c-0.5,0.2-1.2,0.4-2,0.5c-0.5,0.1-0.8,0.1-1.1,0.2c-0.2,0.1-0.4,0.2-0.5,0.4
			c-0.1,0.2-0.1,0.3-0.1,0.6c0,0.4,0.1,0.6,0.4,0.8c0.2,0.2,0.6,0.4,1.1,0.4s0.9-0.1,1.3-0.4c0.4-0.2,0.6-0.5,0.8-0.8
			c0.1-0.2,0.2-0.7,0.2-1.3L140.6,238.9z"/>
		<path style="fill:#666666;" d="M144.7,245.5h-0.9c1.4-2.2,2-4.4,2-6.5c0-0.8-0.1-1.8-0.4-2.6c-0.1-0.7-0.4-1.3-0.7-2
			c-0.2-0.5-0.6-1-1.2-2h0.9c0.8,1.2,1.5,2.3,2,3.4c0.4,0.9,0.6,2,0.6,3.1c0,1.3-0.2,2.5-0.7,3.6
			C145.8,243.6,145.2,244.6,144.7,245.5z"/>
	</g>
</g>
</svg>
