<?xml version="1.0" encoding="utf-8"?>
<!-- Generator: Adobe Illustrator 19.0.1, SVG Export Plug-In . SVG Version: 6.00 Build 0)  -->
<svg version="1.1" xmlns="http://www.w3.org/2000/svg" xmlns:xlink="http://www.w3.org/1999/xlink" x="0px" y="0px"
	 viewBox="0 0 600 400" enable-background="new 0 0 600 400" xml:space="preserve">
<g id="www_1_">
</g>
<g id="restapi">
	<line fill="none" stroke="#B3B3B3" stroke-miterlimit="10" x1="252" y1="241.5" x2="149" y2="241.5"/>
	<rect x="17.3" y="175.1" fill="#E2E2E2" width="139" height="213.1"/>
	<rect x="342" y="87.3" fill="#E2E2E2" width="250.4" height="67.7"/>
	<line fill="none" stroke="#FFFFFF" stroke-width="0.75" stroke-miterlimit="10" x1="149" y1="47.1" x2="156.5" y2="47.1"/>
	<path d="M150.2,110.4H65.8c-7.5,0-13.6-6.1-13.6-13.6c0-6.8,5.1-12.7,11.9-13.5l4-0.5l0.3-4c1.3-14.9,14-26.6,29-26.6
		c8.9,0,17.3,4,22.8,11l2.4,3l3.5-1.6c1.9-0.9,3.9-1.3,5.9-1.3c6.2,0,11.8,4.2,13.7,10.1l1,3.5l3.6,0.1c8.7,0.2,15.8,7.7,15.8,16.7
		C166.3,102.9,159.1,110.4,150.2,110.4z M150.6,72c-2.4-7.9-9.7-13.7-18.4-13.7c-2.9,0-5.6,0.6-8,1.8c-6.2-7.9-15.9-12.9-26.7-12.9
		c-17.8,0-32.5,13.7-34,31.2c-9.2,1.2-16.3,9-16.3,18.4c0,10.3,8.3,18.6,18.6,18.6h84.3c11.6,0,21.1-9.7,21.1-21.7
		C171.3,81.8,162.1,72.2,150.6,72z"/>
	<path d="M115.1,79.1c-0.7,0-1.3-0.6-1.3-1.3c0-0.7,0.6-1.3,1.3-1.3c0.7,0,1.3,0.6,1.3,1.3C116.5,78.5,115.9,79.1,115.1,79.1z
		 M108.5,79.2H90.1v-2.9h18.4V79.2z M117.5,73.1H88.3c-0.8,0-1.5,0.7-1.5,1.5V81c0,0.8,0.7,1.5,1.5,1.5h29.2c0.8,0,1.5-0.7,1.5-1.5
		v-6.4C119,73.8,118.4,73.1,117.5,73.1z M115.1,100.8c-0.7,0-1.3-0.6-1.3-1.3c0-0.7,0.6-1.3,1.3-1.3c0.7,0,1.3,0.6,1.3,1.3
		C116.5,100.2,115.9,100.8,115.1,100.8z M108.5,100.9H90.1V98h18.4V100.9z M117.5,94.8H88.3c-0.8,0-1.5,0.7-1.5,1.5v6.4
		c0,0.8,0.7,1.5,1.5,1.5h29.2c0.8,0,1.5-0.7,1.5-1.5v-6.4C119,95.4,118.4,94.8,117.5,94.8z M115.1,90.1c-0.7,0-1.3-0.6-1.3-1.3
		c0-0.7,0.6-1.3,1.3-1.3c0.7,0,1.3,0.6,1.3,1.3C116.5,89.5,115.9,90.1,115.1,90.1z M108.5,90.2H90.1v-2.9h18.4V90.2z M117.5,84H88.3
		c-0.8,0-1.5,0.7-1.5,1.5v6.4c0,0.8,0.7,1.5,1.5,1.5h29.2c0.8,0,1.5-0.7,1.5-1.5v-6.4C119,84.7,118.4,84,117.5,84z"/>
	<g>
		<path fill="none" stroke="#000000" stroke-miterlimit="10" d="M458.8,329.8h-38.6v-21.6h38.7L458.8,329.8z M421.8,304.5
			c0.9,0,1.6,0.5,1.6,1.1c0,0.6-0.7,1.1-1.6,1.1c-0.9,0-1.6-0.5-1.6-1.1C420.2,305,420.9,304.5,421.8,304.5z M426.5,304.5
			c0.9,0,1.6,0.5,1.6,1.1c0,0.6-0.7,1.1-1.6,1.1c-0.9,0-1.6-0.5-1.6-1.1C424.9,305,425.6,304.5,426.5,304.5z M431.2,304.5
			c0.9,0,1.6,0.5,1.6,1.1c0,0.6-0.7,1.1-1.6,1.1c-0.9,0-1.6-0.5-1.6-1.1C429.6,305,430.3,304.5,431.2,304.5z M458.8,303h-38.7
			c-1.2,0-2.1,0.7-2.1,1.5v26c0,0.8,0.9,1.5,2.1,1.5h38.7c1.2,0,2.1-0.7,2.1-1.5v-26C460.9,303.7,460,303,458.8,303z"/>
		<rect x="422.8" y="310.8" fill="none" stroke="#000000" stroke-miterlimit="10" width="15.7" height="1.5"/>
		<rect x="422.8" y="317.5" fill="none" stroke="#000000" stroke-miterlimit="10" width="15.7" height="1.5"/>
		<rect x="422.8" y="314.2" fill="none" stroke="#000000" stroke-miterlimit="10" width="20.4" height="1.5"/>
	</g>
	<path d="M401,321.6c0.2-0.2,0.1-0.4,0-0.6C401.1,321.2,401.1,321.5,401,321.6z"/>
	<path d="M452,350.1c-0.1,0.1-0.3,0.2-0.7,0.2c-0.1,0-0.2,0-0.3,0c-0.3,0-0.8,0-1.4,0c-0.3,0-0.7,0-1.1,0c-0.6,0-1.4,0-2.4,0
		c-1.4,0-3.1,0-4.6,0c-2.7,0-5.4,0-7.1,0c-0.5,0-0.8,0-1.1,0c-1,0-1.7,0-2.1,0c-0.1,0-0.1,0-0.2,0c-0.1,0-0.1,0-0.2,0
		c-1.3-0.2-0.3-1.2-0.3-1.2s1.6-1.2,2.4-2.5c0,0,0.2,0,0.4-1.9c0.3-2.7,0.6-4.8,0.6-4.8h14.5c0,0,0.3,2.1,0.6,4.8
		c0.2,1.9,0.4,1.9,0.4,1.9c0.7,1.2,2.2,2.3,2.3,2.5c0,0,0,0,0,0s0.1,0,0.1,0.1C452,349.4,452.2,349.8,452,350.1z"/>
	<path d="M400.9,320.7c0,0.1,0.1,0.1,0.1,0.2C401,320.8,401,320.8,400.9,320.7z"/>
	<path d="M474.7,298.7h-67.3v38.1h67.3L474.7,298.7L474.7,298.7z M441.1,340.3c-2.4,0-33.4,0.1-34.9,0c-1.6-0.1-1.7-1.7-1.7-1.7
		v-41.2c0-1.3,1.7-1.4,1.7-1.4h69.7c0,0,1.7,0.1,1.7,1.4v41.2c0,0-0.1,1.6-1.7,1.7C474.4,340.4,444.6,340.3,441.1,340.3"/>
	<g>
		<path d="M74.9,135v-11.5H80c1,0,1.8,0.1,2.3,0.3c0.5,0.2,1,0.6,1.3,1.1c0.3,0.5,0.5,1.1,0.5,1.7c0,0.8-0.3,1.5-0.8,2.1
			c-0.5,0.6-1.3,0.9-2.4,1.1c0.4,0.2,0.7,0.4,0.9,0.6c0.4,0.4,0.9,0.9,1.3,1.5l2,3.1h-1.9l-1.5-2.4c-0.4-0.7-0.8-1.2-1.1-1.6
			c-0.3-0.4-0.5-0.6-0.8-0.8c-0.2-0.1-0.5-0.2-0.7-0.3c-0.2,0-0.5-0.1-0.8-0.1h-1.8v5.1H74.9z M76.5,128.6h3.3
			c0.7,0,1.2-0.1,1.6-0.2c0.4-0.1,0.7-0.4,0.9-0.7c0.2-0.3,0.3-0.7,0.3-1c0-0.5-0.2-1-0.6-1.3c-0.4-0.3-1-0.5-1.9-0.5h-3.6V128.6z"
			/>
		<path d="M86.5,135v-11.5h8.3v1.4H88v3.5h6.3v1.3H88v3.9h7v1.4H86.5z"/>
		<path d="M96.6,131.3l1.4-0.1c0.1,0.6,0.2,1,0.5,1.4c0.2,0.4,0.6,0.7,1.2,0.9c0.5,0.2,1.1,0.3,1.8,0.3c0.6,0,1.1-0.1,1.5-0.3
			c0.4-0.2,0.8-0.4,1-0.7c0.2-0.3,0.3-0.6,0.3-1c0-0.4-0.1-0.7-0.3-0.9c-0.2-0.3-0.6-0.5-1-0.7c-0.3-0.1-1-0.3-2-0.6
			c-1.1-0.3-1.8-0.5-2.2-0.7c-0.5-0.3-1-0.6-1.2-1.1c-0.3-0.4-0.4-0.9-0.4-1.4c0-0.6,0.2-1.1,0.5-1.6c0.3-0.5,0.8-0.9,1.4-1.1
			c0.6-0.3,1.3-0.4,2.1-0.4c0.8,0,1.6,0.1,2.2,0.4s1.1,0.7,1.5,1.2c0.3,0.5,0.5,1.1,0.6,1.8l-1.5,0.1c-0.1-0.7-0.3-1.3-0.8-1.6
			c-0.5-0.4-1.1-0.6-2-0.6c-0.9,0-1.6,0.2-2,0.5c-0.4,0.3-0.6,0.7-0.6,1.2c0,0.4,0.1,0.8,0.4,1c0.3,0.3,1.1,0.5,2.3,0.8
			c1.2,0.3,2.1,0.5,2.5,0.7c0.7,0.3,1.2,0.7,1.5,1.2c0.3,0.5,0.5,1,0.5,1.6c0,0.6-0.2,1.2-0.5,1.7c-0.3,0.5-0.9,1-1.5,1.3
			c-0.7,0.3-1.4,0.4-2.2,0.4c-1,0-1.9-0.2-2.6-0.5c-0.7-0.3-1.2-0.8-1.6-1.4C96.9,132.8,96.6,132.1,96.6,131.3z"/>
		<path d="M110.7,135v-10.1H107v-1.4h9.1v1.4h-3.8V135H110.7z"/>
		<path d="M119.6,135l4.4-11.5h1.6l4.7,11.5h-1.7l-1.3-3.5h-4.8l-1.3,3.5H119.6z M122.9,130.3h3.9l-1.2-3.2c-0.4-1-0.6-1.8-0.8-2.4
			c-0.1,0.7-0.4,1.5-0.6,2.2L122.9,130.3z"/>
		<path d="M131.5,135v-11.5h4.3c0.8,0,1.3,0,1.7,0.1c0.6,0.1,1,0.3,1.4,0.5c0.4,0.3,0.7,0.6,0.9,1.1c0.2,0.5,0.3,1,0.3,1.6
			c0,1-0.3,1.8-0.9,2.5c-0.6,0.7-1.7,1-3.4,1H133v4.7H131.5z M133,129h3c1,0,1.7-0.2,2.1-0.5c0.4-0.4,0.6-0.9,0.6-1.5
			c0-0.5-0.1-0.9-0.4-1.2c-0.2-0.3-0.6-0.6-1-0.7c-0.3-0.1-0.7-0.1-1.4-0.1H133V129z"/>
		<path d="M142.5,135v-11.5h1.5V135H142.5z"/>
	</g>
	<g>
		<path d="M407.3,370.2l4.4-11.5h1.6l4.7,11.5h-1.7l-1.3-3.5h-4.8l-1.3,3.5H407.3z M410.6,365.5h3.9l-1.2-3.2
			c-0.4-1-0.6-1.8-0.8-2.4c-0.1,0.7-0.4,1.5-0.6,2.2L410.6,365.5z"/>
		<path d="M419,373.4v-11.5h1.3v1.1c0.3-0.4,0.6-0.7,1-0.9c0.4-0.2,0.8-0.3,1.4-0.3c0.7,0,1.3,0.2,1.9,0.5c0.5,0.4,1,0.9,1.2,1.5
			c0.3,0.7,0.4,1.4,0.4,2.2c0,0.8-0.2,1.6-0.5,2.3s-0.7,1.2-1.3,1.6c-0.6,0.4-1.2,0.5-1.8,0.5c-0.5,0-0.9-0.1-1.3-0.3
			c-0.4-0.2-0.7-0.4-0.9-0.8v4H419z M420.3,366.1c0,1.1,0.2,1.9,0.6,2.4c0.4,0.5,1,0.8,1.6,0.8c0.6,0,1.2-0.3,1.6-0.8
			c0.4-0.5,0.7-1.3,0.7-2.5c0-1.1-0.2-1.8-0.7-2.4c-0.4-0.5-1-0.8-1.6-0.8c-0.6,0-1.1,0.3-1.6,0.8
			C420.5,364.2,420.3,365,420.3,366.1z"/>
		<path d="M427.9,373.4v-11.5h1.3v1.1c0.3-0.4,0.6-0.7,1-0.9c0.4-0.2,0.8-0.3,1.4-0.3c0.7,0,1.3,0.2,1.9,0.5c0.5,0.4,1,0.9,1.2,1.5
			c0.3,0.7,0.4,1.4,0.4,2.2c0,0.8-0.2,1.6-0.5,2.3s-0.7,1.2-1.3,1.6c-0.6,0.4-1.2,0.5-1.8,0.5c-0.5,0-0.9-0.1-1.3-0.3
			c-0.4-0.2-0.7-0.4-0.9-0.8v4H427.9z M429.2,366.1c0,1.1,0.2,1.9,0.6,2.4c0.4,0.5,1,0.8,1.6,0.8c0.6,0,1.2-0.3,1.6-0.8
			c0.4-0.5,0.7-1.3,0.7-2.5c0-1.1-0.2-1.8-0.7-2.4c-0.4-0.5-1-0.8-1.6-0.8c-0.6,0-1.1,0.3-1.6,0.8
			C429.4,364.2,429.2,365,429.2,366.1z"/>
		<path d="M436.8,370.2v-11.5h1.4v11.5H436.8z"/>
		<path d="M440.4,360.4v-1.6h1.4v1.6H440.4z M440.4,370.2v-8.3h1.4v8.3H440.4z"/>
		<path d="M449.4,367.2l1.4,0.2c-0.2,1-0.5,1.7-1.2,2.2c-0.6,0.5-1.4,0.8-2.3,0.8c-1.1,0-2-0.4-2.7-1.1c-0.7-0.7-1-1.8-1-3.2
			c0-0.9,0.1-1.7,0.4-2.4s0.7-1.2,1.4-1.5c0.6-0.3,1.3-0.5,2-0.5c0.9,0,1.6,0.2,2.2,0.7c0.6,0.5,0.9,1.1,1.1,1.9l-1.4,0.2
			c-0.1-0.6-0.4-1-0.7-1.3c-0.3-0.3-0.7-0.4-1.2-0.4c-0.7,0-1.3,0.3-1.7,0.8c-0.4,0.5-0.7,1.3-0.7,2.4c0,1.1,0.2,1.9,0.6,2.4
			c0.4,0.5,1,0.8,1.7,0.8c0.6,0,1-0.2,1.4-0.5C449,368.4,449.3,367.9,449.4,367.2z"/>
		<path d="M457.4,369.2c-0.5,0.4-1,0.8-1.5,0.9c-0.5,0.2-1,0.3-1.6,0.3c-0.9,0-1.6-0.2-2.1-0.7c-0.5-0.4-0.7-1-0.7-1.7
			c0-0.4,0.1-0.8,0.3-1.1c0.2-0.3,0.4-0.6,0.7-0.8c0.3-0.2,0.6-0.4,1-0.5c0.3-0.1,0.7-0.1,1.2-0.2c1.1-0.1,2-0.3,2.5-0.5
			c0-0.2,0-0.3,0-0.4c0-0.6-0.1-1-0.4-1.2c-0.4-0.3-0.9-0.5-1.6-0.5c-0.7,0-1.1,0.1-1.5,0.3c-0.3,0.2-0.5,0.6-0.7,1.2l-1.4-0.2
			c0.1-0.6,0.3-1.1,0.6-1.4c0.3-0.4,0.7-0.6,1.2-0.8c0.5-0.2,1.2-0.3,1.9-0.3c0.7,0,1.3,0.1,1.7,0.2c0.4,0.2,0.8,0.4,1,0.6
			c0.2,0.3,0.4,0.6,0.4,1c0,0.2,0.1,0.7,0.1,1.3v1.9c0,1.3,0,2.1,0.1,2.5c0.1,0.3,0.2,0.7,0.4,1h-1.5
			C457.5,369.9,457.4,369.6,457.4,369.2z M457.2,366c-0.5,0.2-1.3,0.4-2.3,0.5c-0.6,0.1-1,0.2-1.2,0.3c-0.2,0.1-0.4,0.3-0.6,0.5
			c-0.1,0.2-0.2,0.4-0.2,0.7c0,0.4,0.1,0.7,0.4,0.9c0.3,0.2,0.7,0.4,1.2,0.4c0.5,0,1-0.1,1.4-0.4c0.4-0.2,0.7-0.6,0.9-1
			c0.2-0.3,0.2-0.8,0.2-1.4V366z"/>
		<path d="M463.9,369l0.2,1.2c-0.4,0.1-0.8,0.1-1.1,0.1c-0.5,0-0.9-0.1-1.2-0.2s-0.5-0.4-0.6-0.6c-0.1-0.3-0.2-0.8-0.2-1.7V363h-1
			v-1.1h1v-2.1l1.4-0.8v2.9h1.4v1.1h-1.4v4.9c0,0.4,0,0.7,0.1,0.8c0,0.1,0.1,0.2,0.2,0.3c0.1,0.1,0.3,0.1,0.5,0.1
			C463.5,369,463.7,369,463.9,369z"/>
		<path d="M465.3,360.4v-1.6h1.4v1.6H465.3z M465.3,370.2v-8.3h1.4v8.3H465.3z"/>
		<path d="M468.3,366.1c0-1.5,0.4-2.7,1.3-3.4c0.7-0.6,1.6-0.9,2.6-0.9c1.1,0,2.1,0.4,2.8,1.1c0.7,0.7,1.1,1.8,1.1,3.1
			c0,1.1-0.2,1.9-0.5,2.5c-0.3,0.6-0.8,1.1-1.4,1.4c-0.6,0.3-1.3,0.5-2,0.5c-1.2,0-2.1-0.4-2.8-1.1
			C468.7,368.5,468.3,367.5,468.3,366.1z M469.8,366.1c0,1.1,0.2,1.9,0.7,2.4c0.5,0.5,1,0.8,1.8,0.8c0.7,0,1.3-0.3,1.7-0.8
			c0.5-0.5,0.7-1.3,0.7-2.4c0-1-0.2-1.8-0.7-2.3c-0.5-0.5-1-0.8-1.7-0.8c-0.7,0-1.3,0.3-1.8,0.8C470,364.2,469.8,365,469.8,366.1z"
			/>
		<path d="M477.7,370.2v-8.3h1.3v1.2c0.6-0.9,1.5-1.4,2.6-1.4c0.5,0,1,0.1,1.4,0.3c0.4,0.2,0.7,0.4,0.9,0.7c0.2,0.3,0.4,0.6,0.4,1
			c0.1,0.3,0.1,0.7,0.1,1.4v5.1h-1.4v-5c0-0.6-0.1-1-0.2-1.3c-0.1-0.3-0.3-0.5-0.6-0.7c-0.3-0.2-0.6-0.3-1-0.3
			c-0.6,0-1.1,0.2-1.6,0.6c-0.4,0.4-0.7,1.1-0.7,2.2v4.5H477.7z"/>
	</g>
	<g>
		<line x1="411.8" y1="278.9" x2="171.3" y2="122"/>
		<g>
			<line fill="none" stroke="#00FF00" stroke-width="2" stroke-miterlimit="10" x1="411.8" y1="278.9" x2="410.1" y2="277.8"/>
			
				<line fill="none" stroke="#00FF00" stroke-width="2" stroke-miterlimit="10" stroke-dasharray="3.9541,3.9541" x1="406.8" y1="275.6" x2="176.6" y2="125.5"/>
			<line fill="none" stroke="#00FF00" stroke-width="2" stroke-miterlimit="10" x1="175" y1="124.4" x2="173.3" y2="123.3"/>
			<g>
				<path fill="#00FF00" d="M190,122.7c0,0.6-0.5,1-1,1l-15.3-0.2l6.3,13.9c0.2,0.5,0,1.1-0.5,1.3c-0.5,0.2-1.1,0-1.3-0.5l-7-15.4
					c-0.1-0.3-0.1-0.7,0.1-1c0.2-0.3,0.5-0.5,0.8-0.5l16.9,0.2c0.2,0,0.4,0.1,0.5,0.2C189.8,122.1,190,122.4,190,122.7z"/>
			</g>
		</g>
	</g>
	<g>
		<line x1="146.6" y1="140" x2="397.8" y2="303.9"/>
		<g>
			<line fill="none" stroke="#00FF00" stroke-width="2" stroke-miterlimit="10" x1="146.6" y1="140" x2="148.3" y2="141.1"/>
			
				<line fill="none" stroke="#00FF00" stroke-width="2" stroke-miterlimit="10" stroke-dasharray="4.0201,4.0201" x1="151.7" y1="143.3" x2="392.4" y2="300.4"/>
			<line fill="none" stroke="#00FF00" stroke-width="2" stroke-miterlimit="10" x1="394.1" y1="301.5" x2="395.8" y2="302.6"/>
			<g>
				<path fill="#00FF00" d="M379.1,303.1c0-0.6,0.5-1,1-1l15.3,0.2l-6.3-13.9c-0.2-0.5,0-1.1,0.5-1.3c0.5-0.2,1.1,0,1.3,0.5l7,15.4
					c0.1,0.3,0.1,0.7-0.1,1s-0.5,0.5-0.8,0.5l-16.9-0.2c-0.2,0-0.4-0.1-0.5-0.2C379.3,303.8,379.1,303.5,379.1,303.1z"/>
			</g>
		</g>
	</g>
	<g>
		<line fill="none" x1="255.1" y1="162.5" x2="395.1" y2="253.5"/>
		<path d="M282.1,180.1l4.7-7.2l3.2,2.1c0.6,0.4,1.1,0.8,1.3,1.1c0.2,0.3,0.4,0.7,0.4,1.2c0,0.5-0.1,0.9-0.4,1.3
			c-0.3,0.5-0.8,0.8-1.3,1s-1.2,0-2-0.3c0.2,0.3,0.3,0.5,0.3,0.7c0.1,0.4,0.2,0.9,0.2,1.5l0,2.8l-1.2-0.8l0-2.1c0-0.6,0-1.1,0-1.4
			c0-0.3-0.1-0.6-0.2-0.8c-0.1-0.2-0.2-0.3-0.3-0.5c-0.1-0.1-0.3-0.2-0.5-0.4l-1.1-0.7l-2.1,3.2L282.1,180.1z M285.7,176.7l2,1.3
			c0.4,0.3,0.8,0.5,1.1,0.5s0.6,0,0.8-0.1c0.3-0.1,0.5-0.3,0.6-0.5c0.2-0.3,0.3-0.7,0.2-1.1c-0.1-0.4-0.4-0.7-1-1.1l-2.3-1.5
			L285.7,176.7z"/>
		<path d="M293.9,185.4l0.8,0.7c-0.5,0.4-1,0.7-1.6,0.7c-0.6,0-1.2-0.1-1.8-0.5c-0.8-0.5-1.2-1.1-1.4-1.9c-0.1-0.8,0.1-1.6,0.6-2.4
			c0.6-0.9,1.2-1.4,2-1.6c0.8-0.2,1.5-0.1,2.2,0.4c0.7,0.5,1.1,1.1,1.2,1.8s-0.1,1.6-0.6,2.4c0,0.1-0.1,0.1-0.2,0.2l-3.9-2.5
			c-0.3,0.6-0.5,1.1-0.4,1.6c0.1,0.5,0.4,0.9,0.8,1.2c0.3,0.2,0.7,0.3,1,0.3C293.2,185.8,293.6,185.7,293.9,185.4z M292,182.1
			l2.9,1.9c0.2-0.5,0.3-0.9,0.3-1.2c-0.1-0.5-0.3-0.9-0.8-1.2c-0.4-0.3-0.8-0.3-1.3-0.3S292.3,181.6,292,182.1z"/>
		<path d="M296.9,192.5l1.7-2.6c-0.3,0.1-0.6,0.1-0.9,0.1c-0.3,0-0.6-0.1-0.9-0.3c-0.6-0.4-1-1-1.1-1.8c-0.1-0.8,0.1-1.6,0.7-2.5
			c0.3-0.5,0.7-0.9,1.2-1.2c0.5-0.3,0.9-0.4,1.4-0.4c0.5,0,0.9,0.1,1.3,0.4c0.6,0.4,1,1,1,1.8l0.5-0.7l0.8,0.5l-4.7,7.2L296.9,192.5
			z M297.2,186.1c-0.4,0.7-0.6,1.3-0.6,1.8c0.1,0.5,0.3,0.9,0.7,1.2c0.4,0.2,0.8,0.3,1.3,0.2c0.5-0.1,0.9-0.5,1.4-1.2
			c0.5-0.7,0.6-1.3,0.6-1.8c-0.1-0.5-0.3-0.9-0.7-1.2c-0.4-0.2-0.8-0.3-1.3-0.1C298.1,185,297.6,185.4,297.2,186.1z"/>
		<path d="M303.9,194.2l0.5-0.8c-0.8,0.3-1.5,0.3-2.2-0.2c-0.3-0.2-0.6-0.4-0.7-0.7c-0.2-0.3-0.3-0.6-0.3-0.8c0-0.3,0-0.5,0.2-0.8
			c0.1-0.2,0.2-0.5,0.5-0.9l2.1-3.2l0.9,0.6l-1.9,2.9c-0.3,0.5-0.5,0.8-0.6,1c-0.1,0.3-0.1,0.5,0,0.8c0.1,0.2,0.3,0.5,0.5,0.6
			c0.3,0.2,0.6,0.3,0.9,0.3s0.6-0.1,0.9-0.2c0.2-0.2,0.5-0.5,0.8-0.9l1.8-2.8l0.9,0.6l-3.4,5.2L303.9,194.2z"/>
		<path d="M310.7,196.3l0.8,0.7c-0.5,0.4-1,0.7-1.6,0.7c-0.6,0-1.2-0.1-1.8-0.5c-0.8-0.5-1.2-1.1-1.4-1.9c-0.1-0.8,0.1-1.6,0.6-2.4
			c0.6-0.9,1.2-1.4,2-1.6c0.8-0.2,1.5-0.1,2.2,0.4c0.7,0.5,1.1,1.1,1.2,1.8s-0.1,1.6-0.6,2.4c0,0.1-0.1,0.1-0.2,0.2l-3.9-2.5
			c-0.3,0.6-0.5,1.1-0.4,1.6c0.1,0.5,0.4,0.9,0.8,1.2c0.3,0.2,0.7,0.3,1,0.3C310,196.7,310.4,196.6,310.7,196.3z M308.8,193l2.9,1.9
			c0.2-0.5,0.3-0.9,0.3-1.2c-0.1-0.5-0.3-0.9-0.8-1.2c-0.4-0.3-0.8-0.3-1.3-0.3S309.1,192.5,308.8,193z"/>
		<path d="M312.3,197.5l1,0.4c-0.2,0.4-0.2,0.7-0.1,1.1c0.1,0.3,0.4,0.6,0.8,0.9c0.4,0.3,0.8,0.4,1.1,0.3c0.3,0,0.5-0.2,0.7-0.4
			c0.1-0.2,0.1-0.4,0-0.6c-0.1-0.2-0.3-0.5-0.7-0.9c-0.5-0.6-0.9-1-1.1-1.3c-0.2-0.3-0.3-0.6-0.2-0.9s0.1-0.6,0.3-0.8
			c0.2-0.2,0.3-0.4,0.6-0.5c0.2-0.1,0.5-0.2,0.8-0.2c0.2,0,0.4,0,0.7,0.1c0.3,0.1,0.6,0.2,0.8,0.4c0.4,0.3,0.7,0.6,1,0.9
			s0.4,0.6,0.4,0.9s-0.1,0.6-0.2,1l-0.9-0.4c0.1-0.3,0.2-0.6,0.1-0.9c-0.1-0.3-0.3-0.5-0.7-0.7c-0.4-0.3-0.7-0.4-1-0.4
			c-0.3,0-0.5,0.1-0.6,0.3c-0.1,0.1-0.1,0.2-0.1,0.4c0,0.1,0.1,0.3,0.2,0.5c0.1,0.1,0.3,0.3,0.6,0.7c0.5,0.6,0.9,1,1,1.3
			s0.3,0.5,0.3,0.8c0,0.3-0.1,0.6-0.3,0.9c-0.2,0.3-0.5,0.5-0.8,0.7c-0.3,0.1-0.7,0.2-1.1,0.1c-0.4-0.1-0.8-0.2-1.2-0.5
			c-0.7-0.4-1.1-0.9-1.3-1.4S312.1,198.1,312.3,197.5z"/>
		<path d="M319.2,203l-0.4,0.9c-0.3-0.1-0.5-0.2-0.7-0.4c-0.3-0.2-0.5-0.4-0.6-0.6c-0.1-0.2-0.1-0.4-0.1-0.6c0-0.2,0.2-0.6,0.6-1.1
			l1.9-3l-0.6-0.4l0.4-0.7l0.6,0.4l0.8-1.3l1.2,0l-1.2,1.8l0.9,0.6l-0.4,0.7l-0.9-0.6l-2,3.1c-0.2,0.3-0.3,0.4-0.3,0.5s0,0.2,0,0.3
			c0,0.1,0.1,0.2,0.3,0.3C318.9,202.9,319,203,319.2,203z"/>
		<path d="M331.8,202.1l1,0.6l-2.7,4.2c-0.5,0.7-0.9,1.2-1.4,1.6c-0.4,0.3-1,0.5-1.6,0.5c-0.6,0-1.2-0.2-1.9-0.7
			c-0.7-0.4-1.2-0.9-1.4-1.4c-0.3-0.5-0.4-1-0.3-1.6c0.1-0.6,0.4-1.2,0.9-2l2.7-4.2l1,0.6l-2.7,4.2c-0.4,0.6-0.6,1.1-0.7,1.5
			s0,0.7,0.2,1.1c0.2,0.3,0.5,0.6,0.9,0.9c0.7,0.5,1.3,0.6,1.8,0.5c0.5-0.1,1.1-0.6,1.6-1.5L331.8,202.1z"/>
		<path d="M329.7,211l4.7-7.2l3.2,2.1c0.6,0.4,1.1,0.8,1.3,1.1c0.2,0.3,0.4,0.7,0.4,1.2c0,0.5-0.1,0.9-0.4,1.3
			c-0.3,0.5-0.8,0.8-1.3,1s-1.2,0-2-0.3c0.2,0.3,0.3,0.5,0.3,0.7c0.1,0.4,0.2,0.9,0.2,1.5l0,2.8l-1.2-0.8l0-2.1c0-0.6,0-1.1,0-1.4
			c0-0.3-0.1-0.6-0.2-0.8c-0.1-0.2-0.2-0.3-0.3-0.5c-0.1-0.1-0.3-0.2-0.5-0.4l-1.1-0.7l-2.1,3.2L329.7,211z M333.3,207.6l2,1.3
			c0.4,0.3,0.8,0.5,1.1,0.5s0.6,0,0.8-0.1c0.3-0.1,0.5-0.3,0.6-0.5c0.2-0.3,0.3-0.7,0.2-1.1c-0.1-0.4-0.4-0.7-1-1.1l-2.3-1.5
			L333.3,207.6z"/>
		<path d="M337.1,215.8l4.7-7.2l1,0.6l-4.7,7.2L337.1,215.8z"/>
		<path d="M342.8,222.5c-0.1-0.9,0-1.9,0.2-3c0.2-1,0.6-2,1.2-2.9c0.5-0.8,1.1-1.4,1.8-2c0.8-0.6,1.8-1.2,3-1.6l0.6,0.4
			c-0.8,0.4-1.4,0.7-1.7,0.9c-0.5,0.3-1,0.7-1.4,1.1c-0.5,0.5-1,1.1-1.4,1.7c-1,1.6-1.6,3.5-1.6,5.7L342.8,222.5z"/>
		<path d="M345.9,221.5l4.7-7.2l1,0.6l-1.9,3l3.7,2.4l1.9-3l1,0.6l-4.7,7.2l-1-0.6l2.2-3.4l-3.7-2.4l-2.2,3.4L345.9,221.5z"/>
		<path d="M355,227.4l4.1-6.4l-2.4-1.5l0.6-0.9l5.7,3.7l-0.6,0.9l-2.4-1.5l-4.1,6.4L355,227.4z"/>
		<path d="M361.2,231.4l4.1-6.4l-2.4-1.5l0.6-0.9l5.7,3.7l-0.6,0.9l-2.4-1.5l-4.1,6.4L361.2,231.4z"/>
		<path d="M365.5,234.2l4.7-7.2l2.7,1.8c0.5,0.3,0.8,0.6,1.1,0.8c0.3,0.3,0.5,0.6,0.7,0.9s0.2,0.7,0.1,1.1c0,0.4-0.2,0.8-0.4,1.1
			c-0.4,0.6-0.9,1-1.6,1.2c-0.7,0.2-1.5-0.1-2.5-0.7l-1.8-1.2l-1.9,2.9L365.5,234.2z M368.9,231.1l1.9,1.2c0.6,0.4,1.1,0.6,1.5,0.5
			c0.4-0.1,0.7-0.3,1-0.7c0.2-0.3,0.3-0.6,0.3-0.9s-0.1-0.6-0.3-0.8c-0.1-0.1-0.4-0.4-0.8-0.6l-1.8-1.2L368.9,231.1z"/>
		<path d="M371.3,241l-0.6-0.4c2-0.9,3.5-2.2,4.5-3.8c0.4-0.6,0.7-1.3,1-2c0.2-0.6,0.4-1.1,0.5-1.7c0.1-0.4,0.1-1,0.2-2l0.6,0.4
			c0.1,1.2,0,2.3-0.2,3.4c-0.2,0.9-0.6,1.7-1.1,2.5c-0.6,0.9-1.3,1.6-2.2,2.2C373,240.3,372.2,240.7,371.3,241z"/>
	</g>
	<g>
		<line fill="none" x1="210.7" y1="204.5" x2="350.7" y2="295.4"/>
		<path d="M237.7,222.1l4.7-7.2l3.2,2.1c0.6,0.4,1.1,0.8,1.3,1.1c0.2,0.3,0.4,0.7,0.4,1.2c0,0.5-0.1,0.9-0.4,1.3
			c-0.3,0.5-0.8,0.8-1.3,1s-1.2,0-2-0.3c0.2,0.3,0.3,0.5,0.3,0.7c0.1,0.4,0.2,0.9,0.2,1.5l0,2.8l-1.2-0.8l0-2.1c0-0.6,0-1.1,0-1.4
			c0-0.3-0.1-0.6-0.2-0.8c-0.1-0.2-0.2-0.3-0.3-0.5c-0.1-0.1-0.3-0.2-0.5-0.4l-1.1-0.7l-2.1,3.2L237.7,222.1z M241.3,218.7l2,1.3
			c0.4,0.3,0.8,0.5,1.1,0.5s0.6,0,0.8-0.1c0.3-0.1,0.5-0.3,0.6-0.5c0.2-0.3,0.3-0.7,0.2-1.1c-0.1-0.4-0.4-0.7-1-1.1l-2.3-1.5
			L241.3,218.7z"/>
		<path d="M249.5,227.3l0.8,0.7c-0.5,0.4-1,0.7-1.6,0.7c-0.6,0-1.2-0.1-1.8-0.5c-0.8-0.5-1.2-1.1-1.4-1.9c-0.1-0.8,0.1-1.6,0.6-2.4
			c0.6-0.9,1.2-1.4,2-1.6c0.8-0.2,1.5-0.1,2.2,0.4c0.7,0.5,1.1,1.1,1.2,1.8s-0.1,1.6-0.6,2.4c0,0.1-0.1,0.1-0.2,0.2l-3.9-2.5
			c-0.3,0.6-0.5,1.1-0.4,1.6c0.1,0.5,0.4,0.9,0.8,1.2c0.3,0.2,0.7,0.3,1,0.3C248.8,227.8,249.2,227.6,249.5,227.3z M247.6,224
			l2.9,1.9c0.2-0.5,0.3-0.9,0.3-1.2c-0.1-0.5-0.3-0.9-0.8-1.2c-0.4-0.3-0.8-0.3-1.3-0.3S247.9,223.6,247.6,224z"/>
		<path d="M251.1,228.6l1,0.4c-0.2,0.4-0.2,0.7-0.1,1.1c0.1,0.3,0.4,0.6,0.8,0.9c0.4,0.3,0.8,0.4,1.1,0.3c0.3,0,0.5-0.2,0.7-0.4
			c0.1-0.2,0.1-0.4,0-0.6c-0.1-0.2-0.3-0.5-0.7-0.9c-0.5-0.6-0.9-1-1.1-1.3c-0.2-0.3-0.3-0.6-0.2-0.9s0.1-0.6,0.3-0.8
			c0.2-0.2,0.3-0.4,0.6-0.5c0.2-0.1,0.5-0.2,0.8-0.2c0.2,0,0.4,0,0.7,0.1c0.3,0.1,0.6,0.2,0.8,0.4c0.4,0.3,0.7,0.6,1,0.9
			s0.4,0.6,0.4,0.9s-0.1,0.6-0.2,1l-0.9-0.4c0.1-0.3,0.2-0.6,0.1-0.9c-0.1-0.3-0.3-0.5-0.7-0.7c-0.4-0.3-0.7-0.4-1-0.4
			c-0.3,0-0.5,0.1-0.6,0.3c-0.1,0.1-0.1,0.2-0.1,0.4c0,0.1,0.1,0.3,0.2,0.5c0.1,0.1,0.3,0.3,0.6,0.7c0.5,0.6,0.9,1,1,1.3
			s0.3,0.5,0.3,0.8c0,0.3-0.1,0.6-0.3,0.9c-0.2,0.3-0.5,0.5-0.8,0.7c-0.3,0.1-0.7,0.2-1.1,0.1c-0.4-0.1-0.8-0.2-1.2-0.5
			c-0.7-0.4-1.1-0.9-1.3-1.4S250.9,229.2,251.1,228.6z"/>
		<path d="M254.2,235.6l4.7-7.2l0.8,0.5l-0.4,0.7c0.4-0.1,0.7-0.2,1-0.2c0.3,0,0.7,0.1,1,0.4c0.4,0.3,0.8,0.7,1,1.1s0.2,0.9,0.1,1.5
			c-0.1,0.5-0.3,1-0.6,1.5c-0.3,0.5-0.8,1-1.2,1.3c-0.5,0.3-1,0.4-1.5,0.4c-0.5,0-1-0.1-1.4-0.4c-0.3-0.2-0.5-0.4-0.7-0.7
			c-0.2-0.3-0.2-0.6-0.3-0.8l-1.6,2.5L254.2,235.6z M258,231.5c-0.4,0.7-0.6,1.3-0.6,1.8c0.1,0.5,0.3,0.9,0.7,1.1
			c0.4,0.3,0.8,0.3,1.3,0.2s1-0.6,1.4-1.3c0.4-0.7,0.6-1.3,0.6-1.8c-0.1-0.5-0.3-0.9-0.7-1.1c-0.4-0.2-0.8-0.3-1.3-0.1
			S258.4,230.9,258,231.5z"/>
		<path d="M262.5,234.4c0.6-1,1.4-1.5,2.2-1.6c0.7-0.1,1.4,0.1,2,0.5c0.7,0.5,1.2,1.1,1.3,1.8c0.1,0.8,0,1.6-0.6,2.4
			c-0.4,0.7-0.9,1.1-1.3,1.4c-0.5,0.3-0.9,0.4-1.5,0.3c-0.5,0-1-0.2-1.5-0.5c-0.7-0.5-1.2-1.1-1.3-1.9
			C261.7,236.1,261.9,235.3,262.5,234.4z M263.4,235c-0.4,0.7-0.6,1.3-0.5,1.8c0.1,0.5,0.3,0.9,0.8,1.2c0.4,0.3,0.9,0.4,1.4,0.2
			c0.5-0.1,1-0.6,1.4-1.2c0.4-0.6,0.6-1.2,0.5-1.8c-0.1-0.5-0.3-0.9-0.8-1.2c-0.4-0.3-0.9-0.4-1.4-0.2
			C264.3,233.9,263.8,234.3,263.4,235z"/>
		<path d="M266.7,240.9l3.4-5.2l0.8,0.5l-0.5,0.7c0.8-0.3,1.5-0.3,2.2,0.2c0.3,0.2,0.6,0.4,0.8,0.7c0.2,0.3,0.3,0.6,0.3,0.8
			c0,0.3,0,0.5-0.1,0.8c-0.1,0.2-0.2,0.5-0.5,0.9l-2.1,3.2l-0.9-0.6l2.1-3.2c0.2-0.4,0.4-0.7,0.4-0.9c0-0.2,0-0.4-0.1-0.7
			c-0.1-0.2-0.3-0.4-0.5-0.6c-0.4-0.2-0.8-0.3-1.2-0.3s-0.9,0.4-1.3,1.1l-1.9,2.9L266.7,240.9z"/>
		<path d="M273,242.7l1,0.4c-0.2,0.4-0.2,0.7-0.1,1.1c0.1,0.3,0.4,0.6,0.8,0.9c0.4,0.3,0.8,0.4,1.1,0.3c0.3,0,0.5-0.2,0.7-0.4
			c0.1-0.2,0.1-0.4,0-0.6c-0.1-0.2-0.3-0.5-0.7-0.9c-0.5-0.6-0.9-1-1.1-1.3c-0.2-0.3-0.3-0.6-0.2-0.9s0.1-0.6,0.3-0.8
			c0.2-0.2,0.3-0.4,0.6-0.5c0.2-0.1,0.5-0.2,0.8-0.2c0.2,0,0.4,0,0.7,0.1c0.3,0.1,0.6,0.2,0.8,0.4c0.4,0.3,0.7,0.6,1,0.9
			s0.4,0.6,0.4,0.9s-0.1,0.6-0.2,1l-0.9-0.4c0.1-0.3,0.2-0.6,0.1-0.9c-0.1-0.3-0.3-0.5-0.7-0.7c-0.4-0.3-0.7-0.4-1-0.4
			c-0.3,0-0.5,0.1-0.6,0.3c-0.1,0.1-0.1,0.2-0.1,0.4c0,0.1,0.1,0.3,0.2,0.5c0.1,0.1,0.3,0.3,0.6,0.7c0.5,0.6,0.9,1,1,1.3
			s0.3,0.5,0.3,0.8c0,0.3-0.1,0.6-0.3,0.9c-0.2,0.3-0.5,0.5-0.8,0.7c-0.3,0.1-0.7,0.2-1.1,0.1c-0.4-0.1-0.8-0.2-1.2-0.5
			c-0.7-0.4-1.1-0.9-1.3-1.4S272.7,243.3,273,242.7z"/>
		<path d="M282,248.4l0.8,0.7c-0.5,0.4-1,0.7-1.6,0.7c-0.6,0-1.2-0.1-1.8-0.5c-0.8-0.5-1.2-1.1-1.4-1.9c-0.1-0.8,0.1-1.6,0.6-2.4
			c0.6-0.9,1.2-1.4,2-1.6c0.8-0.2,1.5-0.1,2.2,0.4c0.7,0.5,1.1,1.1,1.2,1.8s-0.1,1.6-0.6,2.4c0,0.1-0.1,0.1-0.2,0.2l-3.9-2.5
			c-0.3,0.6-0.5,1.1-0.4,1.6c0.1,0.5,0.4,0.9,0.8,1.2c0.3,0.2,0.7,0.3,1,0.3C281.3,248.9,281.6,248.7,282,248.4z M280,245.1l2.9,1.9
			c0.2-0.5,0.3-0.9,0.3-1.2c-0.1-0.5-0.3-0.9-0.8-1.2c-0.4-0.3-0.8-0.3-1.3-0.3C280.8,244.4,280.4,244.7,280,245.1z"/>
		<path d="M286.1,256.5c-0.1-0.9,0-1.9,0.2-3c0.2-1,0.6-2,1.2-2.9c0.5-0.8,1.1-1.4,1.8-2c0.8-0.6,1.8-1.2,3-1.6l0.6,0.4
			c-0.8,0.4-1.4,0.7-1.7,0.9c-0.5,0.3-1,0.7-1.4,1.1c-0.5,0.5-1,1.1-1.4,1.7c-1,1.6-1.6,3.5-1.6,5.7L286.1,256.5z"/>
		<path d="M289.3,255.5l4.7-7.2l1,0.6l-1.9,3l3.7,2.4l1.9-3l1,0.6l-4.7,7.2l-1-0.6l2.2-3.4l-3.7-2.4l-2.2,3.4L289.3,255.5z"/>
		<path d="M298.3,261.4l4.1-6.4l-2.4-1.5l0.6-0.9l5.7,3.7l-0.6,0.9l-2.4-1.5l-4.1,6.4L298.3,261.4z"/>
		<path d="M304.5,265.4l4.1-6.4l-2.4-1.5l0.6-0.9l5.7,3.7l-0.6,0.9l-2.4-1.5l-4.1,6.4L304.5,265.4z"/>
		<path d="M308.8,268.2l4.7-7.2l2.7,1.8c0.5,0.3,0.8,0.6,1.1,0.8c0.3,0.3,0.5,0.6,0.7,0.9s0.2,0.7,0.1,1.1c0,0.4-0.2,0.8-0.4,1.1
			c-0.4,0.6-0.9,1-1.6,1.2c-0.7,0.2-1.5-0.1-2.5-0.7l-1.8-1.2l-1.9,2.9L308.8,268.2z M312.2,265l1.9,1.2c0.6,0.4,1.1,0.6,1.5,0.5
			c0.4-0.1,0.7-0.3,1-0.7c0.2-0.3,0.3-0.6,0.3-0.9s-0.1-0.6-0.3-0.8c-0.1-0.1-0.4-0.4-0.8-0.6l-1.8-1.2L312.2,265z"/>
		<path d="M314.6,275l-0.6-0.4c2-0.9,3.5-2.2,4.5-3.8c0.4-0.6,0.7-1.3,1-2c0.2-0.6,0.4-1.1,0.5-1.7c0.1-0.4,0.1-1,0.2-2l0.6,0.4
			c0.1,1.2,0,2.3-0.2,3.4c-0.2,0.9-0.6,1.7-1.1,2.5c-0.6,0.9-1.3,1.6-2.2,2.2C316.4,274.2,315.5,274.7,314.6,275z"/>
	</g>
	<g>
		<g>
			<path fill="#666666" d="M435.8,386.7c-0.6-0.7-1.1-1.6-1.5-2.6c-0.4-1-0.6-2-0.6-3.1c0-0.9,0.1-1.8,0.4-2.7c0.3-1,0.9-2,1.6-3
				l0.8,0c-0.5,0.8-0.8,1.4-0.9,1.7c-0.2,0.5-0.4,1.1-0.5,1.7c-0.2,0.7-0.2,1.5-0.2,2.2c0,1.9,0.6,3.8,1.8,5.6L435.8,386.7z"/>
			<path fill="#666666" d="M437.9,384.2l-0.1-8.6l3.8,0c0.8,0,1.3,0.1,1.7,0.2c0.4,0.2,0.7,0.4,1,0.8c0.2,0.4,0.4,0.8,0.4,1.3
				c0,0.6-0.2,1.1-0.6,1.5c-0.4,0.4-1,0.7-1.8,0.8c0.3,0.1,0.5,0.3,0.7,0.4c0.3,0.3,0.7,0.7,1,1.1l1.5,2.3l-1.4,0l-1.2-1.8
				c-0.3-0.5-0.6-0.9-0.8-1.2s-0.4-0.5-0.6-0.6c-0.2-0.1-0.3-0.2-0.5-0.2c-0.1,0-0.3,0-0.6,0l-1.3,0l0,3.8L437.9,384.2z M439,379.4
				l2.4,0c0.5,0,0.9-0.1,1.2-0.2c0.3-0.1,0.5-0.3,0.7-0.5c0.2-0.2,0.2-0.5,0.2-0.8c0-0.4-0.2-0.7-0.5-1c-0.3-0.3-0.8-0.4-1.4-0.4
				l-2.7,0L439,379.4z"/>
			<path fill="#666666" d="M450.5,384.1l0-0.9c-0.5,0.7-1.1,1.1-2,1.1c-0.4,0-0.7-0.1-1-0.2c-0.3-0.1-0.6-0.3-0.7-0.5
				c-0.2-0.2-0.3-0.5-0.3-0.8c0-0.2-0.1-0.5-0.1-1l0-3.9l1.1,0l0,3.5c0,0.6,0,0.9,0.1,1.1c0.1,0.3,0.2,0.5,0.4,0.6s0.5,0.2,0.8,0.2
				s0.6-0.1,0.9-0.3c0.3-0.2,0.5-0.4,0.6-0.7s0.2-0.7,0.2-1.2l0-3.3l1.1,0l0.1,6.2L450.5,384.1z"/>
			<path fill="#666666" d="M454,384l-1,0l-0.1-8.6l1.1,0l0,3.1c0.4-0.6,1-0.8,1.7-0.9c0.4,0,0.7,0.1,1.1,0.2s0.6,0.4,0.8,0.6
				s0.4,0.6,0.5,1c0.1,0.4,0.2,0.8,0.2,1.3c0,1.1-0.2,1.9-0.8,2.5s-1.2,0.9-1.9,0.9c-0.7,0-1.3-0.3-1.7-0.9L454,384z M454,380.9
				c0,0.7,0.1,1.3,0.3,1.6c0.3,0.5,0.8,0.8,1.4,0.8c0.5,0,0.9-0.2,1.2-0.6s0.5-1,0.5-1.8c0-0.8-0.2-1.4-0.5-1.8s-0.7-0.6-1.2-0.6
				c-0.5,0-0.9,0.2-1.2,0.6C454.2,379.5,454,380.1,454,380.9z"/>
			<path fill="#666666" d="M459.7,386.4l-0.1-1c0.2,0.1,0.4,0.1,0.6,0.1c0.2,0,0.4,0,0.6-0.1c0.1-0.1,0.3-0.2,0.3-0.3
				c0.1-0.1,0.2-0.4,0.3-0.8c0-0.1,0-0.1,0.1-0.3l-2.4-6.2l1.1,0l1.3,3.6c0.2,0.5,0.3,0.9,0.5,1.4c0.1-0.5,0.3-1,0.4-1.4l1.3-3.6
				l1.1,0l-2.3,6.3c-0.2,0.7-0.4,1.2-0.6,1.4c-0.2,0.3-0.4,0.6-0.6,0.8s-0.5,0.2-0.9,0.3C460.2,386.5,460,386.5,459.7,386.4z"/>
			<path fill="#666666" d="M466.5,386.5l-0.8,0c1.2-1.9,1.7-3.8,1.7-5.6c0-0.7-0.1-1.5-0.3-2.2c-0.1-0.6-0.3-1.1-0.6-1.7
				c-0.2-0.4-0.5-0.9-1-1.8l0.8,0c0.7,1,1.3,2,1.7,2.9c0.3,0.8,0.5,1.7,0.5,2.7c0,1.1-0.2,2.1-0.6,3.1
				C467.5,384.8,467,385.7,466.5,386.5z"/>
		</g>
	</g>
	<g>
		<g>
			<rect x="40.9" y="208.5" fill="none" width="108.4" height="180.5"/>
			<path d="M41.7,221.2v-11H44v0.9h-1.3v9.2H44v0.9H41.7z"/>
			<path d="M51.2,229.6c0.3,0,0.5-0.1,0.7-0.2s0.3-0.4,0.4-0.6s0.1-0.7,0.1-1.4s0-1.1,0-1.3c0-0.3,0.1-0.6,0.2-0.8s0.2-0.4,0.4-0.5
				s0.3-0.2,0.5-0.3c0.1,0,0.4-0.1,0.7-0.1h0.3v0.9h-0.2c-0.4,0-0.7,0.1-0.8,0.2s-0.2,0.5-0.2,1c0,1,0,1.7-0.1,1.9
				c-0.1,0.4-0.2,0.7-0.4,1s-0.4,0.4-0.8,0.6c0.4,0.2,0.7,0.5,0.9,0.8s0.3,1,0.3,1.8c0,0.8,0,1.2,0,1.4c0,0.3,0.1,0.5,0.2,0.6
				s0.4,0.2,0.7,0.2h0.2v0.9h-0.3c-0.4,0-0.7,0-0.8-0.1c-0.2-0.1-0.5-0.2-0.6-0.4s-0.3-0.5-0.3-0.8s-0.1-0.8-0.1-1.5s0-1.2-0.1-1.5
				s-0.2-0.5-0.4-0.6s-0.4-0.2-0.7-0.2V229.6z"/>
			<path d="M61.7,242l-0.3-1.6V239h1.2v1.4l-0.3,1.6H61.7z M63.7,242l-0.3-1.6V239h1.2v1.4l-0.3,1.6H63.7z"/>
			<path d="M65.9,247.6V239H67v3.1c0.5-0.6,1.1-0.9,1.9-0.9c0.5,0,0.9,0.1,1.2,0.3s0.6,0.4,0.7,0.8s0.2,0.8,0.2,1.4v3.9h-1.1v-3.9
				c0-0.5-0.1-0.9-0.3-1.2s-0.6-0.4-1-0.4c-0.3,0-0.6,0.1-0.9,0.2s-0.5,0.4-0.6,0.7s-0.2,0.7-0.2,1.1v3.4H65.9z"/>
			<path d="M72.2,244.5c0-1.2,0.3-2,1-2.6c0.5-0.5,1.2-0.7,2-0.7c0.9,0,1.6,0.3,2.1,0.8s0.8,1.3,0.8,2.3c0,0.8-0.1,1.4-0.4,1.9
				s-0.6,0.8-1,1.1s-1,0.4-1.5,0.4c-0.9,0-1.6-0.3-2.1-0.8S72.2,245.5,72.2,244.5z M73.3,244.5c0,0.8,0.2,1.4,0.5,1.8
				s0.8,0.6,1.3,0.6c0.5,0,1-0.2,1.3-0.6s0.5-1,0.5-1.8c0-0.8-0.2-1.4-0.5-1.7s-0.8-0.6-1.3-0.6c-0.5,0-1,0.2-1.3,0.6
				S73.3,243.7,73.3,244.5z"/>
			<path d="M79.3,247.6v-6.2h0.9v0.9c0.2-0.3,0.5-0.5,0.8-0.7s0.7-0.3,1.1-0.3c0.5,0,0.8,0.1,1.1,0.3s0.5,0.5,0.6,0.8
				c0.5-0.7,1.1-1.1,1.9-1.1c0.6,0,1.1,0.2,1.4,0.5s0.5,0.9,0.5,1.6v4.3h-1v-3.9c0-0.4,0-0.7-0.1-0.9s-0.2-0.3-0.4-0.4
				s-0.4-0.2-0.6-0.2c-0.4,0-0.8,0.1-1.1,0.4S84,243.3,84,244v3.6H83v-4c0-0.5-0.1-0.8-0.3-1.1s-0.5-0.4-0.8-0.4
				c-0.3,0-0.6,0.1-0.8,0.2s-0.4,0.4-0.5,0.7s-0.2,0.7-0.2,1.3v3.2H79.3z"/>
			<path d="M93.5,245.6l1.1,0.1c-0.2,0.6-0.5,1.1-1,1.5s-1.1,0.5-1.8,0.5c-0.9,0-1.6-0.3-2.2-0.8s-0.8-1.3-0.8-2.4
				c0-1,0.3-1.9,0.8-2.4s1.2-0.9,2.1-0.9c0.8,0,1.5,0.3,2,0.8s0.8,1.4,0.8,2.4c0,0.1,0,0.2,0,0.3H90c0,0.7,0.2,1.2,0.6,1.6
				s0.8,0.5,1.3,0.5c0.4,0,0.7-0.1,1-0.3S93.4,246,93.5,245.6z M90.1,243.9h3.5c0-0.5-0.2-0.9-0.4-1.2c-0.3-0.4-0.8-0.6-1.3-0.6
				c-0.5,0-0.9,0.2-1.2,0.5S90.1,243.3,90.1,243.9z"/>
			<path d="M96,242l-0.3-1.6V239h1.2v1.4l-0.3,1.6H96z M97.9,242l-0.3-1.6V239h1.2v1.4l-0.3,1.6H97.9z"/>
			<path d="M100.5,242.6v-1.2h1.2v1.2H100.5z M100.5,247.6v-1.2h1.2v1.2H100.5z"/>
			<path d="M106.9,242l-0.3-1.6V239h1.2v1.4l-0.3,1.6H106.9z M108.9,242l-0.3-1.6V239h1.2v1.4l-0.3,1.6H108.9z"/>
			<path d="M114.8,247.6h-1.1v-6.7c-0.3,0.2-0.6,0.5-1,0.7s-0.8,0.4-1.1,0.5v-1c0.6-0.3,1.1-0.6,1.5-1s0.8-0.8,0.9-1.1h0.7V247.6z"
				/>
			<path d="M123.1,246.6v1h-5.7c0-0.3,0-0.5,0.1-0.7c0.1-0.4,0.4-0.8,0.7-1.1s0.8-0.8,1.4-1.3c0.9-0.8,1.6-1.4,1.9-1.8
				s0.5-0.9,0.5-1.3c0-0.4-0.1-0.8-0.4-1.1s-0.7-0.4-1.2-0.4c-0.5,0-0.9,0.2-1.2,0.5s-0.5,0.7-0.5,1.3l-1.1-0.1
				c0.1-0.8,0.4-1.4,0.8-1.8s1.1-0.6,2-0.6c0.8,0,1.5,0.2,2,0.7s0.7,1,0.7,1.7c0,0.3-0.1,0.7-0.2,1s-0.4,0.7-0.7,1s-0.9,0.9-1.6,1.5
				c-0.6,0.5-1,0.9-1.2,1.1s-0.3,0.4-0.4,0.6H123.1z"/>
			<path d="M124.2,245.3l1.1-0.1c0.1,0.6,0.3,1,0.6,1.3s0.6,0.4,1.1,0.4c0.5,0,0.9-0.2,1.3-0.5s0.5-0.8,0.5-1.3
				c0-0.5-0.2-0.9-0.5-1.2s-0.7-0.5-1.2-0.5c-0.2,0-0.4,0-0.7,0.1l0.1-0.9c0.1,0,0.1,0,0.2,0c0.4,0,0.9-0.1,1.2-0.4s0.5-0.6,0.5-1.1
				c0-0.4-0.1-0.7-0.4-1s-0.6-0.4-1-0.4c-0.4,0-0.8,0.1-1,0.4s-0.4,0.6-0.5,1.2l-1.1-0.2c0.1-0.7,0.4-1.3,0.9-1.6s1-0.6,1.7-0.6
				c0.5,0,0.9,0.1,1.3,0.3s0.7,0.5,0.9,0.8s0.3,0.7,0.3,1.1c0,0.4-0.1,0.7-0.3,1s-0.5,0.5-0.9,0.7c0.5,0.1,0.9,0.4,1.2,0.7
				s0.4,0.8,0.4,1.4c0,0.8-0.3,1.4-0.8,1.9s-1.2,0.8-2.1,0.8c-0.8,0-1.4-0.2-1.9-0.7S124.3,246,124.2,245.3z"/>
			<path d="M131.2,242l-0.3-1.6V239h1.2v1.4l-0.3,1.6H131.2z M133.2,242l-0.3-1.6V239h1.2v1.4l-0.3,1.6H133.2z"/>
			<path d="M61.7,256.4l-0.3-1.6v-1.4h1.2v1.4l-0.3,1.6H61.7z M63.7,256.4l-0.3-1.6v-1.4h1.2v1.4l-0.3,1.6H63.7z"/>
			<path d="M65.9,262v-8.6H67v8.6H65.9z"/>
			<path d="M68.2,258.9c0-1.2,0.3-2,1-2.6c0.5-0.5,1.2-0.7,2-0.7c0.9,0,1.6,0.3,2.1,0.8s0.8,1.3,0.8,2.3c0,0.8-0.1,1.4-0.4,1.9
				s-0.6,0.8-1,1.1s-1,0.4-1.5,0.4c-0.9,0-1.6-0.3-2.1-0.8S68.2,259.9,68.2,258.9z M69.3,258.9c0,0.8,0.2,1.4,0.5,1.8
				s0.8,0.6,1.3,0.6c0.5,0,1-0.2,1.3-0.6s0.5-1,0.5-1.8c0-0.8-0.2-1.4-0.5-1.7s-0.8-0.6-1.3-0.6c-0.5,0-1,0.2-1.3,0.6
				S69.3,258.1,69.3,258.9z"/>
			<path d="M79.3,259.7l1,0.1c-0.1,0.7-0.4,1.3-0.9,1.7s-1,0.6-1.7,0.6c-0.9,0-1.5-0.3-2.1-0.8s-0.8-1.4-0.8-2.4
				c0-0.7,0.1-1.3,0.3-1.8s0.6-0.9,1-1.1s1-0.4,1.5-0.4c0.7,0,1.2,0.2,1.7,0.5s0.7,0.8,0.8,1.5l-1,0.2c-0.1-0.4-0.3-0.7-0.5-0.9
				s-0.5-0.3-0.9-0.3c-0.5,0-1,0.2-1.3,0.6s-0.5,1-0.5,1.8c0,0.8,0.2,1.4,0.5,1.8s0.7,0.6,1.3,0.6c0.4,0,0.8-0.1,1-0.4
				S79.3,260.2,79.3,259.7z"/>
			<path d="M85.3,261.2c-0.4,0.3-0.8,0.6-1.1,0.7s-0.7,0.2-1.2,0.2c-0.7,0-1.2-0.2-1.6-0.5s-0.6-0.8-0.6-1.3c0-0.3,0.1-0.6,0.2-0.8
				s0.3-0.5,0.5-0.6s0.5-0.3,0.8-0.3c0.2-0.1,0.5-0.1,0.9-0.2c0.9-0.1,1.5-0.2,1.9-0.4c0-0.1,0-0.2,0-0.3c0-0.4-0.1-0.7-0.3-0.9
				c-0.3-0.2-0.7-0.4-1.2-0.4c-0.5,0-0.9,0.1-1.1,0.3s-0.4,0.5-0.5,0.9l-1-0.1c0.1-0.4,0.2-0.8,0.5-1.1s0.5-0.5,0.9-0.6
				s0.9-0.2,1.4-0.2c0.5,0,1,0.1,1.3,0.2s0.6,0.3,0.7,0.5s0.3,0.4,0.3,0.7c0,0.2,0.1,0.5,0.1,1v1.4c0,1,0,1.6,0.1,1.9
				s0.1,0.5,0.3,0.7h-1.1C85.4,261.8,85.4,261.5,85.3,261.2z M85.2,258.9c-0.4,0.2-1,0.3-1.7,0.4c-0.4,0.1-0.7,0.1-0.9,0.2
				s-0.3,0.2-0.4,0.3s-0.1,0.3-0.1,0.5c0,0.3,0.1,0.5,0.3,0.7s0.5,0.3,0.9,0.3c0.4,0,0.8-0.1,1.1-0.3s0.5-0.4,0.7-0.7
				c0.1-0.2,0.2-0.6,0.2-1.1V258.9z"/>
			<path d="M90.2,261l0.2,0.9c-0.3,0.1-0.6,0.1-0.8,0.1c-0.4,0-0.7-0.1-0.9-0.2s-0.4-0.3-0.4-0.5s-0.1-0.6-0.1-1.2v-3.6h-0.8v-0.8
				h0.8v-1.5l1-0.6v2.2h1.1v0.8h-1.1v3.6c0,0.3,0,0.5,0.1,0.6s0.1,0.2,0.2,0.2s0.2,0.1,0.4,0.1C89.9,261.1,90.1,261.1,90.2,261z"/>
			<path d="M91.3,254.6v-1.2h1.1v1.2H91.3z M91.3,262v-6.2h1.1v6.2H91.3z"/>
			<path d="M93.6,258.9c0-1.2,0.3-2,1-2.6c0.5-0.5,1.2-0.7,2-0.7c0.9,0,1.6,0.3,2.1,0.8s0.8,1.3,0.8,2.3c0,0.8-0.1,1.4-0.4,1.9
				s-0.6,0.8-1,1.1s-1,0.4-1.5,0.4c-0.9,0-1.6-0.3-2.1-0.8S93.6,259.9,93.6,258.9z M94.6,258.9c0,0.8,0.2,1.4,0.5,1.8
				s0.8,0.6,1.3,0.6c0.5,0,1-0.2,1.3-0.6s0.5-1,0.5-1.8c0-0.8-0.2-1.4-0.5-1.7s-0.8-0.6-1.3-0.6c-0.5,0-1,0.2-1.3,0.6
				S94.6,258.1,94.6,258.9z"/>
			<path d="M100.6,262v-6.2h0.9v0.9c0.5-0.7,1.1-1,2-1c0.4,0,0.7,0.1,1,0.2s0.5,0.3,0.7,0.5s0.3,0.5,0.3,0.8c0,0.2,0.1,0.5,0.1,1
				v3.8h-1.1v-3.8c0-0.4,0-0.8-0.1-1s-0.2-0.4-0.4-0.5s-0.5-0.2-0.7-0.2c-0.4,0-0.8,0.1-1.2,0.4s-0.5,0.8-0.5,1.6v3.4H100.6z"/>
			<path d="M107.3,256.4l-0.3-1.6v-1.4h1.2v1.4l-0.3,1.6H107.3z M109.3,256.4l-0.3-1.6v-1.4h1.2v1.4l-0.3,1.6H109.3z"/>
			<path d="M111.8,257v-1.2h1.2v1.2H111.8z M111.8,262v-1.2h1.2v1.2H111.8z"/>
			<path d="M114.9,256.4l-0.3-1.6v-1.4h1.2v1.4l-0.3,1.6H114.9z M116.9,256.4l-0.3-1.6v-1.4h1.2v1.4l-0.3,1.6H116.9z"/>
			<path d="M118.3,262l3.3-8.6h1.2l3.5,8.6h-1.3l-1-2.6h-3.6l-0.9,2.6H118.3z M120.8,258.5h2.9l-0.9-2.4c-0.3-0.7-0.5-1.3-0.6-1.8
				c-0.1,0.6-0.3,1.1-0.5,1.6L120.8,258.5z"/>
			<path d="M126.6,262v-1.1l4.4-5.5c0.3-0.4,0.6-0.7,0.9-1h-4.8v-1h6.2v1l-4.8,6l-0.5,0.6h5.5v1H126.6z"/>
			<path d="M134.5,256.4l-0.3-1.6v-1.4h1.2v1.4l-0.3,1.6H134.5z M136.5,256.4l-0.3-1.6v-1.4h1.2v1.4l-0.3,1.6H136.5z"/>
			<path d="M61.7,270.8l-0.3-1.6v-1.4h1.2v1.4l-0.3,1.6H61.7z M63.7,270.8l-0.3-1.6v-1.4h1.2v1.4l-0.3,1.6H63.7z"/>
			<path d="M65.9,278.8v-8.6h1v0.8c0.2-0.3,0.5-0.6,0.8-0.7s0.6-0.2,1-0.2c0.5,0,1,0.1,1.4,0.4s0.7,0.7,0.9,1.2s0.3,1,0.3,1.6
				c0,0.6-0.1,1.2-0.3,1.7s-0.6,0.9-1,1.2s-0.9,0.4-1.4,0.4c-0.4,0-0.7-0.1-0.9-0.2s-0.5-0.3-0.7-0.6v3H65.9z M66.9,273.3
				c0,0.8,0.2,1.4,0.5,1.8s0.7,0.6,1.2,0.6c0.5,0,0.9-0.2,1.2-0.6s0.5-1,0.5-1.8c0-0.8-0.2-1.4-0.5-1.8s-0.7-0.6-1.2-0.6
				c-0.4,0-0.8,0.2-1.2,0.6S66.9,272.5,66.9,273.3z"/>
			<path d="M72.6,276.4v-6.2h0.9v0.9c0.2-0.4,0.5-0.7,0.7-0.9s0.4-0.2,0.7-0.2c0.4,0,0.7,0.1,1.1,0.3l-0.4,1
				c-0.3-0.2-0.5-0.2-0.8-0.2c-0.2,0-0.4,0.1-0.6,0.2s-0.3,0.3-0.4,0.6c-0.1,0.4-0.2,0.8-0.2,1.2v3.3H72.6z"/>
			<path d="M76.6,269v-1.2h1.1v1.2H76.6z M76.6,276.4v-6.2h1.1v6.2H76.6z"/>
			<path d="M83.3,274.1l1,0.1c-0.1,0.7-0.4,1.3-0.9,1.7s-1,0.6-1.7,0.6c-0.9,0-1.5-0.3-2.1-0.8s-0.8-1.4-0.8-2.4
				c0-0.7,0.1-1.3,0.3-1.8s0.6-0.9,1-1.1s1-0.4,1.5-0.4c0.7,0,1.2,0.2,1.7,0.5s0.7,0.8,0.8,1.5l-1,0.2c-0.1-0.4-0.3-0.7-0.5-0.9
				s-0.5-0.3-0.9-0.3c-0.5,0-1,0.2-1.3,0.6s-0.5,1-0.5,1.8c0,0.8,0.2,1.4,0.5,1.8s0.7,0.6,1.3,0.6c0.4,0,0.8-0.1,1-0.4
				S83.3,274.6,83.3,274.1z"/>
			<path d="M89.5,274.4l1.1,0.1c-0.2,0.6-0.5,1.1-1,1.5s-1.1,0.5-1.8,0.5c-0.9,0-1.6-0.3-2.2-0.8s-0.8-1.3-0.8-2.4
				c0-1,0.3-1.9,0.8-2.4s1.2-0.9,2.1-0.9c0.8,0,1.5,0.3,2,0.8s0.8,1.4,0.8,2.4c0,0.1,0,0.2,0,0.3H86c0,0.7,0.2,1.2,0.6,1.6
				s0.8,0.5,1.3,0.5c0.4,0,0.7-0.1,1-0.3S89.4,274.8,89.5,274.4z M86.1,272.7h3.5c0-0.5-0.2-0.9-0.4-1.2c-0.3-0.4-0.8-0.6-1.3-0.6
				c-0.5,0-0.9,0.2-1.2,0.5S86.1,272.1,86.1,272.7z"/>
			<path d="M92,270.8l-0.3-1.6v-1.4h1.2v1.4l-0.3,1.6H92z M93.9,270.8l-0.3-1.6v-1.4h1.2v1.4l-0.3,1.6H93.9z"/>
			<path d="M96.5,271.4v-1.2h1.2v1.2H96.5z M96.5,276.4v-1.2h1.2v1.2H96.5z"/>
			<path d="M99.6,270.8l-0.3-1.6v-1.4h1.2v1.4l-0.3,1.6H99.6z M101.5,270.8l-0.3-1.6v-1.4h1.2v1.4l-0.3,1.6H101.5z"/>
			<path d="M109,275.4v1h-5.7c0-0.3,0-0.5,0.1-0.7c0.1-0.4,0.4-0.8,0.7-1.1s0.8-0.8,1.4-1.3c0.9-0.8,1.6-1.4,1.9-1.8
				s0.5-0.9,0.5-1.3c0-0.4-0.1-0.8-0.4-1.1s-0.7-0.4-1.2-0.4c-0.5,0-0.9,0.2-1.2,0.5s-0.5,0.7-0.5,1.3l-1.1-0.1
				c0.1-0.8,0.4-1.4,0.8-1.8s1.1-0.6,2-0.6c0.8,0,1.5,0.2,2,0.7s0.7,1,0.7,1.7c0,0.3-0.1,0.7-0.2,1s-0.4,0.7-0.7,1s-0.9,0.9-1.6,1.5
				c-0.6,0.5-1,0.9-1.2,1.1s-0.3,0.4-0.4,0.6H109z"/>
			<path d="M110.2,272.1c0-1,0.1-1.8,0.3-2.5s0.5-1.1,0.9-1.4s0.9-0.5,1.6-0.5c0.5,0,0.9,0.1,1.2,0.3s0.6,0.5,0.9,0.8
				s0.4,0.8,0.5,1.3s0.2,1.2,0.2,2c0,1-0.1,1.8-0.3,2.4s-0.5,1.1-0.9,1.4s-0.9,0.5-1.6,0.5c-0.8,0-1.5-0.3-2-0.9
				C110.5,274.9,110.2,273.8,110.2,272.1z M111.3,272.1c0,1.4,0.2,2.3,0.5,2.8s0.7,0.7,1.2,0.7s0.9-0.2,1.2-0.7s0.5-1.4,0.5-2.8
				c0-1.4-0.2-2.4-0.5-2.8s-0.7-0.7-1.2-0.7c-0.5,0-0.9,0.2-1.2,0.6C111.4,269.8,111.3,270.7,111.3,272.1z"/>
			<path d="M116.8,272.1c0-1,0.1-1.8,0.3-2.5s0.5-1.1,0.9-1.4s0.9-0.5,1.6-0.5c0.5,0,0.9,0.1,1.2,0.3s0.6,0.5,0.9,0.8
				s0.4,0.8,0.5,1.3s0.2,1.2,0.2,2c0,1-0.1,1.8-0.3,2.4s-0.5,1.1-0.9,1.4s-0.9,0.5-1.6,0.5c-0.8,0-1.5-0.3-2-0.9
				C117.1,274.9,116.8,273.8,116.8,272.1z M117.9,272.1c0,1.4,0.2,2.3,0.5,2.8s0.7,0.7,1.2,0.7s0.9-0.2,1.2-0.7s0.5-1.4,0.5-2.8
				c0-1.4-0.2-2.4-0.5-2.8s-0.7-0.7-1.2-0.7c-0.5,0-0.9,0.2-1.2,0.6C118.1,269.8,117.9,270.7,117.9,272.1z"/>
			<path d="M123.8,276.4v-8.6h1.1v4.9l2.5-2.5h1.4l-2.4,2.3l2.6,3.9h-1.3l-2.1-3.2l-0.7,0.7v2.5H123.8z"/>
			<path d="M129.9,270.8l-0.3-1.6v-1.4h1.2v1.4l-0.3,1.6H129.9z M131.8,270.8l-0.3-1.6v-1.4h1.2v1.4l-0.3,1.6H131.8z"/>
			<path d="M54.5,287.2v1c-0.3,0-0.5,0.1-0.7,0.2s-0.3,0.4-0.4,0.6s-0.1,0.7-0.1,1.4s0,1.1,0,1.3c0,0.3-0.1,0.6-0.2,0.8
				s-0.2,0.4-0.4,0.5s-0.3,0.2-0.5,0.3c-0.1,0-0.4,0.1-0.7,0.1h-0.3v-0.9h0.2c0.4,0,0.7-0.1,0.8-0.2s0.2-0.5,0.2-1
				c0-1,0-1.6,0.1-1.9c0.1-0.4,0.2-0.8,0.4-1s0.5-0.5,0.8-0.6c-0.4-0.2-0.8-0.5-0.9-0.9s-0.3-1-0.3-1.8c0-0.8,0-1.2,0-1.4
				c0-0.3-0.1-0.4-0.2-0.5s-0.4-0.2-0.7-0.2h-0.2V282h0.3c0.4,0,0.7,0,0.8,0.1c0.2,0.1,0.5,0.2,0.6,0.4s0.3,0.5,0.3,0.8
				s0.1,0.8,0.1,1.5s0,1.2,0.1,1.5s0.2,0.5,0.4,0.6S54.2,287.2,54.5,287.2z"/>
			<path d="M56,290.8v-1.2h1.2v1.2c0,0.4-0.1,0.8-0.2,1.1s-0.4,0.5-0.7,0.6l-0.3-0.5c0.2-0.1,0.4-0.2,0.5-0.4s0.2-0.5,0.2-0.8H56z"
				/>
			<path d="M51.2,301.6c0.3,0,0.5-0.1,0.7-0.2s0.3-0.4,0.4-0.6s0.1-0.7,0.1-1.4s0-1.1,0-1.3c0-0.3,0.1-0.6,0.2-0.8s0.2-0.4,0.4-0.5
				s0.3-0.2,0.5-0.3c0.1,0,0.4-0.1,0.7-0.1h0.3v0.9h-0.2c-0.4,0-0.7,0.1-0.8,0.2s-0.2,0.5-0.2,1c0,1,0,1.7-0.1,1.9
				c-0.1,0.4-0.2,0.7-0.4,1s-0.4,0.4-0.8,0.6c0.4,0.2,0.7,0.5,0.9,0.8s0.3,1,0.3,1.8c0,0.8,0,1.2,0,1.4c0,0.3,0.1,0.5,0.2,0.6
				s0.4,0.2,0.7,0.2h0.2v0.9h-0.3c-0.4,0-0.7,0-0.8-0.1c-0.2-0.1-0.5-0.2-0.6-0.4s-0.3-0.5-0.3-0.8s-0.1-0.8-0.1-1.5s0-1.2-0.1-1.5
				s-0.2-0.5-0.4-0.6s-0.4-0.2-0.7-0.2V301.6z"/>
			<path d="M61.7,314l-0.3-1.6V311h1.2v1.4l-0.3,1.6H61.7z M63.7,314l-0.3-1.6V311h1.2v1.4l-0.3,1.6H63.7z"/>
			<path d="M65.9,319.6V311H67v3.1c0.5-0.6,1.1-0.9,1.9-0.9c0.5,0,0.9,0.1,1.2,0.3s0.6,0.4,0.7,0.8s0.2,0.8,0.2,1.4v3.9h-1.1v-3.9
				c0-0.5-0.1-0.9-0.3-1.2s-0.6-0.4-1-0.4c-0.3,0-0.6,0.1-0.9,0.2s-0.5,0.4-0.6,0.7s-0.2,0.7-0.2,1.1v3.4H65.9z"/>
			<path d="M72.2,316.5c0-1.2,0.3-2,1-2.6c0.5-0.5,1.2-0.7,2-0.7c0.9,0,1.6,0.3,2.1,0.8s0.8,1.3,0.8,2.3c0,0.8-0.1,1.4-0.4,1.9
				s-0.6,0.8-1,1.1s-1,0.4-1.5,0.4c-0.9,0-1.6-0.3-2.1-0.8S72.2,317.5,72.2,316.5z M73.3,316.5c0,0.8,0.2,1.4,0.5,1.8
				s0.8,0.6,1.3,0.6c0.5,0,1-0.2,1.3-0.6s0.5-1,0.5-1.8c0-0.8-0.2-1.4-0.5-1.7s-0.8-0.6-1.3-0.6c-0.5,0-1,0.2-1.3,0.6
				S73.3,315.7,73.3,316.5z"/>
			<path d="M79.3,319.6v-6.2h0.9v0.9c0.2-0.3,0.5-0.5,0.8-0.7s0.7-0.3,1.1-0.3c0.5,0,0.8,0.1,1.1,0.3s0.5,0.5,0.6,0.8
				c0.5-0.7,1.1-1.1,1.9-1.1c0.6,0,1.1,0.2,1.4,0.5s0.5,0.9,0.5,1.6v4.3h-1v-3.9c0-0.4,0-0.7-0.1-0.9s-0.2-0.3-0.4-0.4
				s-0.4-0.2-0.6-0.2c-0.4,0-0.8,0.1-1.1,0.4S84,315.3,84,316v3.6H83v-4c0-0.5-0.1-0.8-0.3-1.1s-0.5-0.4-0.8-0.4
				c-0.3,0-0.6,0.1-0.8,0.2s-0.4,0.4-0.5,0.7s-0.2,0.7-0.2,1.3v3.2H79.3z"/>
			<path d="M93.5,317.6l1.1,0.1c-0.2,0.6-0.5,1.1-1,1.5s-1.1,0.5-1.8,0.5c-0.9,0-1.6-0.3-2.2-0.8s-0.8-1.3-0.8-2.4
				c0-1,0.3-1.9,0.8-2.4s1.2-0.9,2.1-0.9c0.8,0,1.5,0.3,2,0.8s0.8,1.4,0.8,2.4c0,0.1,0,0.2,0,0.3H90c0,0.7,0.2,1.2,0.6,1.6
				s0.8,0.5,1.3,0.5c0.4,0,0.7-0.1,1-0.3S93.4,318,93.5,317.6z M90.1,315.9h3.5c0-0.5-0.2-0.9-0.4-1.2c-0.3-0.4-0.8-0.6-1.3-0.6
				c-0.5,0-0.9,0.2-1.2,0.5S90.1,315.3,90.1,315.9z"/>
			<path d="M96,314l-0.3-1.6V311h1.2v1.4l-0.3,1.6H96z M97.9,314l-0.3-1.6V311h1.2v1.4l-0.3,1.6H97.9z"/>
			<path d="M100.5,314.6v-1.2h1.2v1.2H100.5z M100.5,319.6v-1.2h1.2v1.2H100.5z"/>
			<path d="M103.6,314l-0.3-1.6V311h1.2v1.4l-0.3,1.6H103.6z M105.5,314l-0.3-1.6V311h1.2v1.4l-0.3,1.6H105.5z"/>
			<path d="M110.9,319.6v-2.1h-3.7v-1l3.9-5.6h0.9v5.6h1.2v1h-1.2v2.1H110.9z M110.9,316.6v-3.9l-2.7,3.9H110.9z"/>
			<path d="M114.2,317.3l1.1-0.1c0.1,0.5,0.3,0.9,0.6,1.2s0.7,0.4,1.1,0.4c0.5,0,0.9-0.2,1.3-0.6s0.5-0.9,0.5-1.5
				c0-0.6-0.2-1.1-0.5-1.4s-0.8-0.5-1.3-0.5c-0.3,0-0.6,0.1-0.9,0.2s-0.5,0.4-0.6,0.6l-1-0.1l0.8-4.4h4.3v1H116l-0.5,2.3
				c0.5-0.4,1.1-0.5,1.6-0.5c0.8,0,1.4,0.3,1.9,0.8s0.8,1.2,0.8,2c0,0.8-0.2,1.4-0.7,2c-0.6,0.7-1.3,1-2.3,1c-0.8,0-1.4-0.2-1.9-0.7
				S114.3,318.1,114.2,317.3z"/>
			<path d="M126.3,313.1l-1,0.1c-0.1-0.4-0.2-0.7-0.4-0.9c-0.3-0.3-0.6-0.5-1.1-0.5c-0.3,0-0.6,0.1-0.9,0.3
				c-0.3,0.2-0.6,0.6-0.8,1.1s-0.3,1.1-0.3,2c0.3-0.4,0.6-0.7,0.9-0.9s0.8-0.3,1.2-0.3c0.7,0,1.3,0.3,1.8,0.8s0.7,1.2,0.7,2
				c0,0.5-0.1,1-0.3,1.5s-0.6,0.8-1,1.1s-0.9,0.4-1.4,0.4c-0.9,0-1.6-0.3-2.2-1s-0.8-1.7-0.8-3.2c0-1.7,0.3-2.9,0.9-3.6
				c0.5-0.7,1.3-1,2.2-1c0.7,0,1.2,0.2,1.7,0.6S126.2,312.4,126.3,313.1z M122,316.8c0,0.4,0.1,0.7,0.2,1s0.4,0.6,0.6,0.8
				s0.6,0.3,0.9,0.3c0.4,0,0.8-0.2,1.1-0.5s0.5-0.8,0.5-1.5c0-0.6-0.2-1.1-0.5-1.4s-0.7-0.5-1.2-0.5c-0.5,0-0.9,0.2-1.2,0.5
				S122,316.2,122,316.8z"/>
			<path d="M127.9,314l-0.3-1.6V311h1.2v1.4l-0.3,1.6H127.9z M129.8,314l-0.3-1.6V311h1.2v1.4l-0.3,1.6H129.8z"/>
			<path d="M132.4,319.6v-1.2h1.2v1.2c0,0.4-0.1,0.8-0.2,1.1s-0.4,0.5-0.7,0.6l-0.3-0.5c0.2-0.1,0.4-0.2,0.5-0.4s0.2-0.5,0.2-0.8
				H132.4z"/>
			<path d="M61.7,328.4l-0.3-1.6v-1.4h1.2v1.4l-0.3,1.6H61.7z M63.7,328.4l-0.3-1.6v-1.4h1.2v1.4l-0.3,1.6H63.7z"/>
			<path d="M65.9,334v-8.6H67v8.6H65.9z"/>
			<path d="M68.2,330.9c0-1.2,0.3-2,1-2.6c0.5-0.5,1.2-0.7,2-0.7c0.9,0,1.6,0.3,2.1,0.8s0.8,1.3,0.8,2.3c0,0.8-0.1,1.4-0.4,1.9
				s-0.6,0.8-1,1.1s-1,0.4-1.5,0.4c-0.9,0-1.6-0.3-2.1-0.8S68.2,331.9,68.2,330.9z M69.3,330.9c0,0.8,0.2,1.4,0.5,1.8
				s0.8,0.6,1.3,0.6c0.5,0,1-0.2,1.3-0.6s0.5-1,0.5-1.8c0-0.8-0.2-1.4-0.5-1.7s-0.8-0.6-1.3-0.6c-0.5,0-1,0.2-1.3,0.6
				S69.3,330.1,69.3,330.9z"/>
			<path d="M79.3,331.7l1,0.1c-0.1,0.7-0.4,1.3-0.9,1.7s-1,0.6-1.7,0.6c-0.9,0-1.5-0.3-2.1-0.8s-0.8-1.4-0.8-2.4
				c0-0.7,0.1-1.3,0.3-1.8s0.6-0.9,1-1.1s1-0.4,1.5-0.4c0.7,0,1.2,0.2,1.7,0.5s0.7,0.8,0.8,1.5l-1,0.2c-0.1-0.4-0.3-0.7-0.5-0.9
				s-0.5-0.3-0.9-0.3c-0.5,0-1,0.2-1.3,0.6s-0.5,1-0.5,1.8c0,0.8,0.2,1.4,0.5,1.8s0.7,0.6,1.3,0.6c0.4,0,0.8-0.1,1-0.4
				S79.3,332.2,79.3,331.7z"/>
			<path d="M85.3,333.2c-0.4,0.3-0.8,0.6-1.1,0.7s-0.7,0.2-1.2,0.2c-0.7,0-1.2-0.2-1.6-0.5s-0.6-0.8-0.6-1.3c0-0.3,0.1-0.6,0.2-0.8
				s0.3-0.5,0.5-0.6s0.5-0.3,0.8-0.3c0.2-0.1,0.5-0.1,0.9-0.2c0.9-0.1,1.5-0.2,1.9-0.4c0-0.1,0-0.2,0-0.3c0-0.4-0.1-0.7-0.3-0.9
				c-0.3-0.2-0.7-0.4-1.2-0.4c-0.5,0-0.9,0.1-1.1,0.3s-0.4,0.5-0.5,0.9l-1-0.1c0.1-0.4,0.2-0.8,0.5-1.1s0.5-0.5,0.9-0.6
				s0.9-0.2,1.4-0.2c0.5,0,1,0.1,1.3,0.2s0.6,0.3,0.7,0.5s0.3,0.4,0.3,0.7c0,0.2,0.1,0.5,0.1,1v1.4c0,1,0,1.6,0.1,1.9
				s0.1,0.5,0.3,0.7h-1.1C85.4,333.8,85.4,333.5,85.3,333.2z M85.2,330.9c-0.4,0.2-1,0.3-1.7,0.4c-0.4,0.1-0.7,0.1-0.9,0.2
				s-0.3,0.2-0.4,0.3s-0.1,0.3-0.1,0.5c0,0.3,0.1,0.5,0.3,0.7s0.5,0.3,0.9,0.3c0.4,0,0.8-0.1,1.1-0.3s0.5-0.4,0.7-0.7
				c0.1-0.2,0.2-0.6,0.2-1.1V330.9z"/>
			<path d="M90.2,333l0.2,0.9c-0.3,0.1-0.6,0.1-0.8,0.1c-0.4,0-0.7-0.1-0.9-0.2s-0.4-0.3-0.4-0.5s-0.1-0.6-0.1-1.2v-3.6h-0.8v-0.8
				h0.8v-1.5l1-0.6v2.2h1.1v0.8h-1.1v3.6c0,0.3,0,0.5,0.1,0.6s0.1,0.2,0.2,0.2s0.2,0.1,0.4,0.1C89.9,333.1,90.1,333.1,90.2,333z"/>
			<path d="M91.3,326.6v-1.2h1.1v1.2H91.3z M91.3,334v-6.2h1.1v6.2H91.3z"/>
			<path d="M93.6,330.9c0-1.2,0.3-2,1-2.6c0.5-0.5,1.2-0.7,2-0.7c0.9,0,1.6,0.3,2.1,0.8s0.8,1.3,0.8,2.3c0,0.8-0.1,1.4-0.4,1.9
				s-0.6,0.8-1,1.1s-1,0.4-1.5,0.4c-0.9,0-1.6-0.3-2.1-0.8S93.6,331.9,93.6,330.9z M94.6,330.9c0,0.8,0.2,1.4,0.5,1.8
				s0.8,0.6,1.3,0.6c0.5,0,1-0.2,1.3-0.6s0.5-1,0.5-1.8c0-0.8-0.2-1.4-0.5-1.7s-0.8-0.6-1.3-0.6c-0.5,0-1,0.2-1.3,0.6
				S94.6,330.1,94.6,330.9z"/>
			<path d="M100.6,334v-6.2h0.9v0.9c0.5-0.7,1.1-1,2-1c0.4,0,0.7,0.1,1,0.2s0.5,0.3,0.7,0.5s0.3,0.5,0.3,0.8c0,0.2,0.1,0.5,0.1,1
				v3.8h-1.1v-3.8c0-0.4,0-0.8-0.1-1s-0.2-0.4-0.4-0.5s-0.5-0.2-0.7-0.2c-0.4,0-0.8,0.1-1.2,0.4s-0.5,0.8-0.5,1.6v3.4H100.6z"/>
			<path d="M107.3,328.4l-0.3-1.6v-1.4h1.2v1.4l-0.3,1.6H107.3z M109.3,328.4l-0.3-1.6v-1.4h1.2v1.4l-0.3,1.6H109.3z"/>
			<path d="M111.8,329v-1.2h1.2v1.2H111.8z M111.8,334v-1.2h1.2v1.2H111.8z"/>
			<path d="M118.3,328.4l-0.3-1.6v-1.4h1.2v1.4l-0.3,1.6H118.3z M120.2,328.4l-0.3-1.6v-1.4h1.2v1.4l-0.3,1.6H120.2z"/>
			<path d="M128.7,331l1.1,0.3c-0.2,0.9-0.7,1.6-1.3,2.1s-1.4,0.7-2.3,0.7c-0.9,0-1.7-0.2-2.3-0.6s-1-0.9-1.3-1.6s-0.5-1.5-0.5-2.3
				c0-0.9,0.2-1.7,0.5-2.3s0.8-1.2,1.5-1.5s1.3-0.5,2.1-0.5c0.9,0,1.6,0.2,2.2,0.7s1,1.1,1.2,1.8l-1.1,0.3c-0.2-0.6-0.5-1.1-0.9-1.4
				s-0.9-0.4-1.4-0.4c-0.7,0-1.2,0.2-1.7,0.5s-0.8,0.7-0.9,1.3s-0.3,1.1-0.3,1.6c0,0.7,0.1,1.4,0.3,1.9s0.5,1,1,1.2s0.9,0.4,1.5,0.4
				c0.6,0,1.2-0.2,1.6-0.6S128.6,331.7,128.7,331z"/>
			<path d="M130.3,334l3.3-8.6h1.2l3.5,8.6h-1.3l-1-2.6h-3.6l-0.9,2.6H130.3z M132.8,330.5h2.9l-0.9-2.4c-0.3-0.7-0.5-1.3-0.6-1.8
				c-0.1,0.6-0.3,1.1-0.5,1.6L132.8,330.5z"/>
			<path d="M139.2,328.4l-0.3-1.6v-1.4h1.2v1.4l-0.3,1.6H139.2z M141.1,328.4l-0.3-1.6v-1.4h1.2v1.4l-0.3,1.6H141.1z"/>
			<path d="M61.7,342.8l-0.3-1.6v-1.4h1.2v1.4l-0.3,1.6H61.7z M63.7,342.8l-0.3-1.6v-1.4h1.2v1.4l-0.3,1.6H63.7z"/>
			<path d="M65.9,350.8v-8.6h1v0.8c0.2-0.3,0.5-0.6,0.8-0.7s0.6-0.2,1-0.2c0.5,0,1,0.1,1.4,0.4s0.7,0.7,0.9,1.2s0.3,1,0.3,1.6
				c0,0.6-0.1,1.2-0.3,1.7s-0.6,0.9-1,1.2s-0.9,0.4-1.4,0.4c-0.4,0-0.7-0.1-0.9-0.2s-0.5-0.3-0.7-0.6v3H65.9z M66.9,345.3
				c0,0.8,0.2,1.4,0.5,1.8s0.7,0.6,1.2,0.6c0.5,0,0.9-0.2,1.2-0.6s0.5-1,0.5-1.8c0-0.8-0.2-1.4-0.5-1.8s-0.7-0.6-1.2-0.6
				c-0.4,0-0.8,0.2-1.2,0.6S66.9,344.5,66.9,345.3z"/>
			<path d="M72.6,348.4v-6.2h0.9v0.9c0.2-0.4,0.5-0.7,0.7-0.9s0.4-0.2,0.7-0.2c0.4,0,0.7,0.1,1.1,0.3l-0.4,1
				c-0.3-0.2-0.5-0.2-0.8-0.2c-0.2,0-0.4,0.1-0.6,0.2s-0.3,0.3-0.4,0.6c-0.1,0.4-0.2,0.8-0.2,1.2v3.3H72.6z"/>
			<path d="M76.6,341v-1.2h1.1v1.2H76.6z M76.6,348.4v-6.2h1.1v6.2H76.6z"/>
			<path d="M83.3,346.1l1,0.1c-0.1,0.7-0.4,1.3-0.9,1.7s-1,0.6-1.7,0.6c-0.9,0-1.5-0.3-2.1-0.8s-0.8-1.4-0.8-2.4
				c0-0.7,0.1-1.3,0.3-1.8s0.6-0.9,1-1.1s1-0.4,1.5-0.4c0.7,0,1.2,0.2,1.7,0.5s0.7,0.8,0.8,1.5l-1,0.2c-0.1-0.4-0.3-0.7-0.5-0.9
				s-0.5-0.3-0.9-0.3c-0.5,0-1,0.2-1.3,0.6s-0.5,1-0.5,1.8c0,0.8,0.2,1.4,0.5,1.8s0.7,0.6,1.3,0.6c0.4,0,0.8-0.1,1-0.4
				S83.3,346.6,83.3,346.1z"/>
			<path d="M89.5,346.4l1.1,0.1c-0.2,0.6-0.5,1.1-1,1.5s-1.1,0.5-1.8,0.5c-0.9,0-1.6-0.3-2.2-0.8s-0.8-1.3-0.8-2.4
				c0-1,0.3-1.9,0.8-2.4s1.2-0.9,2.1-0.9c0.8,0,1.5,0.3,2,0.8s0.8,1.4,0.8,2.4c0,0.1,0,0.2,0,0.3H86c0,0.7,0.2,1.2,0.6,1.6
				s0.8,0.5,1.3,0.5c0.4,0,0.7-0.1,1-0.3S89.4,346.8,89.5,346.4z M86.1,344.7h3.5c0-0.5-0.2-0.9-0.4-1.2c-0.3-0.4-0.8-0.6-1.3-0.6
				c-0.5,0-0.9,0.2-1.2,0.5S86.1,344.1,86.1,344.7z"/>
			<path d="M92,342.8l-0.3-1.6v-1.4h1.2v1.4l-0.3,1.6H92z M93.9,342.8l-0.3-1.6v-1.4h1.2v1.4l-0.3,1.6H93.9z"/>
			<path d="M96.5,343.4v-1.2h1.2v1.2H96.5z M96.5,348.4v-1.2h1.2v1.2H96.5z"/>
			<path d="M102.9,342.8l-0.3-1.6v-1.4h1.2v1.4l-0.3,1.6H102.9z M104.9,342.8l-0.3-1.6v-1.4h1.2v1.4l-0.3,1.6H104.9z"/>
			<path d="M108.5,343.7c-0.4-0.2-0.8-0.4-1-0.7s-0.3-0.7-0.3-1.1c0-0.6,0.2-1.2,0.7-1.6s1-0.6,1.8-0.6c0.8,0,1.4,0.2,1.8,0.7
				s0.7,1,0.7,1.6c0,0.4-0.1,0.7-0.3,1s-0.5,0.5-1,0.7c0.5,0.2,0.9,0.4,1.2,0.8s0.4,0.8,0.4,1.4c0,0.7-0.3,1.4-0.8,1.9
				s-1.2,0.8-2.1,0.8s-1.5-0.3-2.1-0.8s-0.8-1.1-0.8-1.9c0-0.6,0.1-1,0.4-1.4S107.9,343.9,108.5,343.7z M107.9,345.9
				c0,0.3,0.1,0.6,0.2,0.9s0.4,0.5,0.6,0.7s0.6,0.2,0.9,0.2c0.5,0,0.9-0.2,1.2-0.5s0.5-0.7,0.5-1.2c0-0.5-0.2-0.9-0.5-1.3
				s-0.8-0.5-1.3-0.5c-0.5,0-0.9,0.2-1.2,0.5S107.9,345.4,107.9,345.9z M108.2,341.9c0,0.4,0.1,0.7,0.4,1s0.6,0.4,1,0.4
				c0.4,0,0.7-0.1,1-0.4s0.4-0.6,0.4-0.9c0-0.4-0.1-0.7-0.4-1s-0.6-0.4-1-0.4c-0.4,0-0.7,0.1-1,0.4S108.2,341.6,108.2,341.9z"/>
			<path d="M113.5,344.1c0-1,0.1-1.8,0.3-2.5s0.5-1.1,0.9-1.4s0.9-0.5,1.6-0.5c0.5,0,0.9,0.1,1.2,0.3s0.6,0.5,0.9,0.8
				s0.4,0.8,0.5,1.3s0.2,1.2,0.2,2c0,1-0.1,1.8-0.3,2.4s-0.5,1.1-0.9,1.4s-0.9,0.5-1.6,0.5c-0.8,0-1.5-0.3-2-0.9
				C113.8,346.9,113.5,345.8,113.5,344.1z M114.6,344.1c0,1.4,0.2,2.3,0.5,2.8s0.7,0.7,1.2,0.7s0.9-0.2,1.2-0.7s0.5-1.4,0.5-2.8
				c0-1.4-0.2-2.4-0.5-2.8s-0.7-0.7-1.2-0.7c-0.5,0-0.9,0.2-1.2,0.6C114.8,341.8,114.6,342.7,114.6,344.1z"/>
			<path d="M120.2,344.1c0-1,0.1-1.8,0.3-2.5s0.5-1.1,0.9-1.4s0.9-0.5,1.6-0.5c0.5,0,0.9,0.1,1.2,0.3s0.6,0.5,0.9,0.8
				s0.4,0.8,0.5,1.3s0.2,1.2,0.2,2c0,1-0.1,1.8-0.3,2.4s-0.5,1.1-0.9,1.4s-0.9,0.5-1.6,0.5c-0.8,0-1.5-0.3-2-0.9
				C120.5,346.9,120.2,345.8,120.2,344.1z M121.3,344.1c0,1.4,0.2,2.3,0.5,2.8s0.7,0.7,1.2,0.7s0.9-0.2,1.2-0.7s0.5-1.4,0.5-2.8
				c0-1.4-0.2-2.4-0.5-2.8s-0.7-0.7-1.2-0.7c-0.5,0-0.9,0.2-1.2,0.6C121.4,341.8,121.3,342.7,121.3,344.1z"/>
			<path d="M127.2,348.4v-8.6h1.1v4.3l4.3-4.3h1.5l-3.6,3.5l3.8,5.1h-1.5l-3.1-4.3l-1.4,1.4v3H127.2z"/>
			<path d="M135.2,342.8l-0.3-1.6v-1.4h1.2v1.4l-0.3,1.6H135.2z M137.1,342.8l-0.3-1.6v-1.4h1.2v1.4l-0.3,1.6H137.1z"/>
			<path d="M54.5,359.2v1c-0.3,0-0.5,0.1-0.7,0.2s-0.3,0.4-0.4,0.6s-0.1,0.7-0.1,1.4s0,1.1,0,1.3c0,0.3-0.1,0.6-0.2,0.8
				s-0.2,0.4-0.4,0.5s-0.3,0.2-0.5,0.3c-0.1,0-0.4,0.1-0.7,0.1h-0.3v-0.9h0.2c0.4,0,0.7-0.1,0.8-0.2s0.2-0.5,0.2-1
				c0-1,0-1.6,0.1-1.9c0.1-0.4,0.2-0.8,0.4-1s0.5-0.5,0.8-0.6c-0.4-0.2-0.8-0.5-0.9-0.9s-0.3-1-0.3-1.8c0-0.8,0-1.2,0-1.4
				c0-0.3-0.1-0.4-0.2-0.5s-0.4-0.2-0.7-0.2h-0.2V354h0.3c0.4,0,0.7,0,0.8,0.1c0.2,0.1,0.5,0.2,0.6,0.4s0.3,0.5,0.3,0.8
				s0.1,0.8,0.1,1.5s0,1.2,0.1,1.5s0.2,0.5,0.4,0.6S54.2,359.2,54.5,359.2z"/>
			<path d="M43.4,379.6h-2.3v-0.9h1.3v-9.2h-1.3v-0.9h2.3V379.6z"/>
		</g>
		<g>
			<path d="M35.3,190.1c0.6-0.1,1.5-0.2,2.3-0.2c1.3,0,2.1,0.2,2.7,0.8c0.5,0.4,0.7,1.1,0.7,1.8c0,1.2-0.8,2.1-1.8,2.4v0
				c0.7,0.3,1.2,0.9,1.4,1.9c0.3,1.3,0.5,2.2,0.7,2.6h-1.3c-0.2-0.3-0.4-1.1-0.6-2.3c-0.3-1.3-0.8-1.8-1.9-1.8h-1.1v4.1h-1.2V190.1z
				 M36.5,194.4h1.2c1.3,0,2.1-0.7,2.1-1.8c0-1.2-0.9-1.8-2.2-1.8c-0.6,0-1,0.1-1.2,0.1V194.4z"/>
			<path d="M43.5,196.3c0,1.7,1.1,2.4,2.3,2.4c0.9,0,1.4-0.2,1.9-0.4l0.2,0.9c-0.4,0.2-1.2,0.4-2.3,0.4c-2.1,0-3.3-1.4-3.3-3.4
				c0-2,1.2-3.7,3.2-3.7c2.2,0,2.8,1.9,2.8,3.2c0,0.3,0,0.4,0,0.6H43.5z M47.2,195.4c0-0.8-0.3-2-1.7-2c-1.2,0-1.8,1.1-1.9,2H47.2z"
				/>
			<path d="M49.7,198.2c0.4,0.2,1,0.5,1.6,0.5c0.9,0,1.3-0.4,1.3-1c0-0.6-0.4-0.9-1.3-1.2c-1.2-0.4-1.8-1.1-1.8-1.9
				c0-1.1,0.9-2,2.3-2c0.7,0,1.3,0.2,1.7,0.4l-0.3,0.9c-0.3-0.2-0.8-0.4-1.4-0.4c-0.7,0-1.1,0.4-1.1,0.9c0,0.6,0.4,0.8,1.3,1.1
				c1.2,0.4,1.8,1,1.8,2c0,1.2-0.9,2-2.5,2c-0.7,0-1.4-0.2-1.9-0.5L49.7,198.2z"/>
			<path d="M55.4,194.9c0-0.9,0-1.6-0.1-2.2h1.1l0.1,1.2h0c0.5-0.8,1.3-1.3,2.4-1.3c1.6,0,2.9,1.4,2.9,3.4c0,2.4-1.5,3.6-3.1,3.6
				c-0.9,0-1.7-0.4-2.1-1.1h0v3.7h-1.2V194.9z M56.6,196.7c0,0.2,0,0.4,0.1,0.5c0.2,0.9,1,1.4,1.8,1.4c1.3,0,2.1-1.1,2.1-2.6
				c0-1.4-0.7-2.5-2-2.5c-0.8,0-1.6,0.6-1.9,1.5c0,0.2-0.1,0.3-0.1,0.5V196.7z"/>
			<path d="M69.5,196c0,2.5-1.7,3.6-3.4,3.6c-1.8,0-3.2-1.3-3.2-3.5c0-2.3,1.5-3.6,3.4-3.6C68.2,192.5,69.5,193.9,69.5,196z
				 M64.1,196c0,1.5,0.9,2.6,2.1,2.6c1.2,0,2.1-1.1,2.1-2.6c0-1.1-0.6-2.6-2-2.6C64.8,193.4,64.1,194.8,64.1,196z"/>
			<path d="M71.1,194.5c0-0.7,0-1.3-0.1-1.8h1.1l0.1,1.1h0c0.3-0.6,1.1-1.3,2.2-1.3c0.9,0,2.4,0.6,2.4,2.9v4h-1.2v-3.9
				c0-1.1-0.4-2-1.6-2c-0.8,0-1.4,0.6-1.7,1.3c-0.1,0.2-0.1,0.4-0.1,0.6v4.1h-1.2V194.5z"/>
			<path d="M78.7,198.2c0.4,0.2,1,0.5,1.6,0.5c0.9,0,1.3-0.4,1.3-1c0-0.6-0.4-0.9-1.3-1.2c-1.2-0.4-1.8-1.1-1.8-1.9
				c0-1.1,0.9-2,2.3-2c0.7,0,1.3,0.2,1.7,0.4l-0.3,0.9c-0.3-0.2-0.8-0.4-1.4-0.4c-0.7,0-1.1,0.4-1.1,0.9c0,0.6,0.4,0.8,1.3,1.1
				c1.2,0.4,1.8,1,1.8,2c0,1.2-0.9,2-2.5,2c-0.7,0-1.4-0.2-1.9-0.5L78.7,198.2z"/>
			<path d="M85.1,196.3c0,1.7,1.1,2.4,2.3,2.4c0.9,0,1.4-0.2,1.9-0.4l0.2,0.9c-0.4,0.2-1.2,0.4-2.3,0.4c-2.1,0-3.3-1.4-3.3-3.4
				c0-2,1.2-3.7,3.2-3.7c2.2,0,2.8,1.9,2.8,3.2c0,0.3,0,0.4,0,0.6H85.1z M88.7,195.4c0-0.8-0.3-2-1.7-2c-1.2,0-1.8,1.1-1.9,2H88.7z"
				/>
			<path d="M97,189.7c-1,1.4-1.8,3.2-1.8,5.7c0,2.5,0.8,4.3,1.8,5.7h-1c-0.9-1.2-1.8-3-1.8-5.7c0-2.8,1-4.6,1.8-5.7H97z"/>
			<path d="M100.5,190h1.2v6.3c0,2.5-1.2,3.3-2.9,3.3c-0.4,0-1-0.1-1.3-0.2l0.2-1c0.3,0.1,0.6,0.2,1,0.2c1.1,0,1.7-0.5,1.7-2.3V190z
				"/>
			<path d="M103.6,197.9c0.5,0.3,1.3,0.6,2.2,0.6c1.2,0,2-0.7,2-1.6c0-0.9-0.5-1.4-1.8-1.9c-1.5-0.5-2.5-1.3-2.5-2.7
				c0-1.5,1.2-2.6,3.1-2.6c1,0,1.7,0.2,2.1,0.5l-0.3,1c-0.3-0.2-0.9-0.4-1.8-0.4c-1.3,0-1.8,0.8-1.8,1.4c0,0.9,0.6,1.3,1.9,1.8
				c1.6,0.6,2.4,1.4,2.4,2.8c0,1.5-1.1,2.7-3.3,2.7c-0.9,0-1.9-0.3-2.4-0.6L103.6,197.9z"/>
			<path d="M118.8,194.6c0,3.2-2,5-4.4,5c-2.5,0-4.2-1.9-4.2-4.8c0-3,1.9-5,4.4-5C117.1,189.8,118.8,191.8,118.8,194.6z
				 M111.4,194.8c0,2,1.1,3.8,3,3.8c1.9,0,3-1.8,3-3.9c0-1.9-1-3.8-3-3.8C112.4,190.8,111.4,192.7,111.4,194.8z"/>
			<path d="M120.3,199.4V190h1.3l3,4.8c0.7,1.1,1.2,2.1,1.7,3.1l0,0c-0.1-1.3-0.1-2.4-0.1-3.9V190h1.1v9.4h-1.2l-3-4.8
				c-0.7-1.1-1.3-2.1-1.8-3.2l0,0c0.1,1.2,0.1,2.3,0.1,3.9v4H120.3z"/>
			<path d="M128.8,201.1c1-1.4,1.8-3.2,1.8-5.7c0-2.5-0.8-4.3-1.8-5.7h1c0.9,1.1,1.8,2.9,1.8,5.7c0,2.7-0.9,4.5-1.8,5.7H128.8z"/>
		</g>
	</g>
	<g>
		<g>
			<path d="M352.6,122.4v4.8c0,1.8,0.8,2.6,1.9,2.6c1.2,0,2-0.8,2-2.6v-4.8h1.1v4.7c0,2.5-1.3,3.5-3.1,3.5c-1.7,0-2.9-0.9-2.9-3.5
				v-4.8H352.6z"/>
			<path d="M359.4,122.5c0.5-0.1,1.3-0.2,2-0.2c1.1,0,1.8,0.2,2.3,0.7c0.4,0.4,0.6,0.9,0.6,1.5c0,1.1-0.7,1.8-1.5,2.1v0
				c0.6,0.2,1,0.8,1.2,1.6c0.3,1.1,0.5,1.9,0.6,2.2h-1.1c-0.1-0.2-0.3-0.9-0.5-1.9c-0.2-1.1-0.7-1.5-1.6-1.6h-1v3.5h-1V122.5z
				 M360.4,126.1h1.1c1.1,0,1.8-0.6,1.8-1.5c0-1-0.8-1.5-1.9-1.5c-0.5,0-0.9,0-1,0.1V126.1z"/>
			<path d="M366.9,122.4v8.1h-1v-8.1H366.9z"/>
			<path d="M368.4,125.6c0-0.4,0.3-0.8,0.7-0.8s0.7,0.3,0.7,0.8c0,0.4-0.3,0.7-0.7,0.7C368.7,126.3,368.4,126,368.4,125.6z
				 M368.4,129.8c0-0.4,0.3-0.8,0.7-0.8s0.7,0.3,0.7,0.8c0,0.4-0.3,0.7-0.7,0.7C368.7,130.6,368.4,130.2,368.4,129.8z"/>
			<path d="M376.2,121.9h1.1v3.6h0c0.2-0.3,0.4-0.6,0.8-0.7c0.3-0.2,0.7-0.3,1.1-0.3c0.8,0,2,0.5,2,2.5v3.5h-1.1v-3.3
				c0-0.9-0.3-1.7-1.3-1.7c-0.7,0-1.2,0.5-1.4,1.1c-0.1,0.1-0.1,0.3-0.1,0.5v3.5h-1.1V121.9z"/>
			<path d="M384.1,123v1.7h1.5v0.8h-1.5v3.1c0,0.7,0.2,1.1,0.8,1.1c0.3,0,0.5,0,0.6-0.1l0,0.8c-0.2,0.1-0.5,0.1-0.9,0.1
				c-0.5,0-0.9-0.2-1.1-0.4c-0.3-0.3-0.4-0.8-0.4-1.5v-3.2h-0.9v-0.8h0.9v-1.4L384.1,123z"/>
			<path d="M388.1,123v1.7h1.5v0.8h-1.5v3.1c0,0.7,0.2,1.1,0.8,1.1c0.3,0,0.5,0,0.6-0.1l0,0.8c-0.2,0.1-0.5,0.1-0.9,0.1
				c-0.5,0-0.9-0.2-1.1-0.4c-0.3-0.3-0.4-0.8-0.4-1.5v-3.2h-0.9v-0.8h0.9v-1.4L388.1,123z"/>
			<path d="M390.8,126.5c0-0.7,0-1.3,0-1.9h0.9l0,1h0c0.4-0.7,1.1-1.1,2.1-1.1c1.4,0,2.5,1.2,2.5,3c0,2.1-1.3,3.1-2.6,3.1
				c-0.8,0-1.4-0.3-1.8-0.9h0v3.2h-1V126.5z M391.8,128.1c0,0.2,0,0.3,0,0.4c0.2,0.7,0.8,1.2,1.6,1.2c1.1,0,1.8-0.9,1.8-2.2
				c0-1.2-0.6-2.2-1.7-2.2c-0.7,0-1.4,0.5-1.6,1.3c0,0.1-0.1,0.3-0.1,0.4V128.1z"/>
			<path d="M397.4,125.6c0-0.4,0.3-0.8,0.7-0.8s0.7,0.3,0.7,0.8c0,0.4-0.3,0.7-0.7,0.7C397.6,126.3,397.4,126,397.4,125.6z
				 M397.4,129.8c0-0.4,0.3-0.8,0.7-0.8s0.7,0.3,0.7,0.8c0,0.4-0.3,0.7-0.7,0.7C397.6,130.6,397.4,130.2,397.4,129.8z"/>
			<path d="M399.2,130.9l3.3-8.7h0.8l-3.4,8.7H399.2z"/>
			<path d="M403.3,130.9l3.3-8.7h0.8l-3.4,8.7H403.3z"/>
			<path d="M412.5,130.2c-0.3,0.1-0.9,0.3-1.7,0.3c-1.8,0-2.9-1.2-2.9-3c0-1.8,1.2-3.1,3.1-3.1c0.6,0,1.2,0.2,1.5,0.3l-0.2,0.8
				c-0.3-0.1-0.6-0.3-1.2-0.3c-1.3,0-2.1,1-2.1,2.2c0,1.3,0.9,2.2,2,2.2c0.6,0,1-0.2,1.3-0.3L412.5,130.2z"/>
			<path d="M418.9,127.5c0,2.1-1.5,3.1-2.9,3.1c-1.6,0-2.8-1.2-2.8-3c0-1.9,1.3-3.1,2.9-3.1C417.8,124.5,418.9,125.7,418.9,127.5z
				 M414.3,127.5c0,1.3,0.7,2.2,1.8,2.2c1,0,1.8-0.9,1.8-2.3c0-1-0.5-2.2-1.7-2.2C414.8,125.3,414.3,126.4,414.3,127.5z"/>
			<path d="M425.5,127.5c0,2.1-1.5,3.1-2.9,3.1c-1.6,0-2.8-1.2-2.8-3c0-1.9,1.3-3.1,2.9-3.1C424.3,124.5,425.5,125.7,425.5,127.5z
				 M420.9,127.5c0,1.3,0.7,2.2,1.8,2.2c1,0,1.8-0.9,1.8-2.3c0-1-0.5-2.2-1.7-2.2C421.4,125.3,420.9,126.4,420.9,127.5z"/>
			<path d="M426.8,121.9h1.1v8.5h-1.1V121.9z"/>
			<path d="M429.6,121.9h1.1v3.6h0c0.2-0.3,0.4-0.6,0.8-0.7c0.3-0.2,0.7-0.3,1.1-0.3c0.8,0,2,0.5,2,2.5v3.5h-1.1v-3.3
				c0-0.9-0.3-1.7-1.3-1.7c-0.7,0-1.2,0.5-1.4,1.1c-0.1,0.1-0.1,0.3-0.1,0.5v3.5h-1.1V121.9z"/>
			<path d="M441.6,127.5c0,2.1-1.5,3.1-2.9,3.1c-1.6,0-2.8-1.2-2.8-3c0-1.9,1.3-3.1,2.9-3.1C440.4,124.5,441.6,125.7,441.6,127.5z
				 M436.9,127.5c0,1.3,0.7,2.2,1.8,2.2c1,0,1.8-0.9,1.8-2.3c0-1-0.5-2.2-1.7-2.2C437.5,125.3,436.9,126.4,436.9,127.5z"/>
			<path d="M442.9,126.2c0-0.6,0-1.1,0-1.6h0.9l0,0.9h0c0.3-0.6,0.9-1.1,1.8-1.1c0.8,0,1.4,0.5,1.6,1.2h0c0.2-0.3,0.4-0.6,0.6-0.8
				c0.3-0.3,0.7-0.4,1.3-0.4c0.8,0,1.9,0.5,1.9,2.5v3.4h-1v-3.3c0-1.1-0.4-1.8-1.3-1.8c-0.6,0-1.1,0.4-1.2,1c0,0.1-0.1,0.3-0.1,0.5
				v3.6h-1V127c0-0.9-0.4-1.6-1.2-1.6c-0.7,0-1.1,0.5-1.3,1.1c-0.1,0.2-0.1,0.3-0.1,0.5v3.5h-1V126.2z"/>
			<path d="M453.5,127.7c0,1.4,0.9,2,2,2c0.8,0,1.2-0.1,1.6-0.3l0.2,0.8c-0.4,0.2-1,0.4-1.9,0.4c-1.8,0-2.9-1.2-2.9-2.9
				s1-3.1,2.7-3.1c1.9,0,2.4,1.7,2.4,2.7c0,0.2,0,0.4,0,0.5H453.5z M456.6,127c0-0.7-0.3-1.7-1.5-1.7c-1.1,0-1.5,1-1.6,1.7H456.6z"
				/>
			<path d="M458.8,129.4c0.3,0.2,0.9,0.4,1.4,0.4c0.8,0,1.1-0.4,1.1-0.9c0-0.5-0.3-0.8-1.1-1.1c-1-0.4-1.5-0.9-1.5-1.6
				c0-0.9,0.8-1.7,2-1.7c0.6,0,1.1,0.2,1.4,0.4l-0.3,0.8c-0.2-0.1-0.6-0.3-1.2-0.3c-0.6,0-1,0.4-1,0.8c0,0.5,0.3,0.7,1.1,1
				c1,0.4,1.5,0.9,1.5,1.8c0,1-0.8,1.7-2.2,1.7c-0.6,0-1.2-0.2-1.6-0.4L458.8,129.4z"/>
			<path d="M463.3,129.8c0-0.4,0.3-0.8,0.7-0.8s0.7,0.3,0.7,0.8c0,0.4-0.3,0.8-0.7,0.8C463.6,130.6,463.3,130.2,463.3,129.8z"/>
			<path d="M469.2,130.4l-0.1-0.7h0c-0.3,0.5-0.9,0.9-1.8,0.9c-1.2,0-1.8-0.8-1.8-1.7c0-1.4,1.2-2.2,3.5-2.2v-0.1
				c0-0.5-0.1-1.3-1.3-1.3c-0.5,0-1.1,0.2-1.5,0.4L466,125c0.5-0.3,1.2-0.5,1.9-0.5c1.8,0,2.2,1.2,2.2,2.4v2.2c0,0.5,0,1,0.1,1.4
				H469.2z M469.1,127.5c-1.2,0-2.5,0.2-2.5,1.3c0,0.7,0.5,1,1,1c0.8,0,1.2-0.5,1.4-1c0-0.1,0.1-0.2,0.1-0.3V127.5z"/>
			<path d="M471.8,126.5c0-0.7,0-1.3,0-1.9h0.9l0,1h0c0.4-0.7,1.1-1.1,2.1-1.1c1.4,0,2.5,1.2,2.5,3c0,2.1-1.3,3.1-2.6,3.1
				c-0.8,0-1.4-0.3-1.8-0.9h0v3.2h-1V126.5z M472.8,128.1c0,0.2,0,0.3,0,0.4c0.2,0.7,0.8,1.2,1.6,1.2c1.1,0,1.8-0.9,1.8-2.2
				c0-1.2-0.6-2.2-1.7-2.2c-0.7,0-1.4,0.5-1.6,1.3c0,0.1-0.1,0.3-0.1,0.4V128.1z"/>
			<path d="M479.8,123c0,0.4-0.3,0.6-0.7,0.6c-0.4,0-0.6-0.3-0.6-0.6c0-0.4,0.3-0.7,0.7-0.7C479.5,122.3,479.8,122.6,479.8,123z
				 M478.6,130.4v-5.8h1.1v5.8H478.6z"/>
			<path d="M481.2,129.8c0-0.4,0.3-0.8,0.7-0.8s0.7,0.3,0.7,0.8c0,0.4-0.3,0.8-0.7,0.8C481.5,130.6,481.2,130.2,481.2,129.8z"/>
			<path d="M488.1,130.2c-0.3,0.1-0.9,0.3-1.7,0.3c-1.8,0-2.9-1.2-2.9-3c0-1.8,1.2-3.1,3.1-3.1c0.6,0,1.2,0.2,1.5,0.3l-0.2,0.8
				c-0.3-0.1-0.6-0.3-1.2-0.3c-1.3,0-2.1,1-2.1,2.2c0,1.3,0.9,2.2,2,2.2c0.6,0,1-0.2,1.3-0.3L488.1,130.2z"/>
			<path d="M494.5,127.5c0,2.1-1.5,3.1-2.9,3.1c-1.6,0-2.8-1.2-2.8-3c0-1.9,1.3-3.1,2.9-3.1C493.3,124.5,494.5,125.7,494.5,127.5z
				 M489.9,127.5c0,1.3,0.7,2.2,1.8,2.2c1,0,1.8-0.9,1.8-2.3c0-1-0.5-2.2-1.7-2.2C490.4,125.3,489.9,126.4,489.9,127.5z"/>
			<path d="M495.8,126.2c0-0.6,0-1.1,0-1.6h0.9l0,0.9h0c0.3-0.6,0.9-1.1,1.8-1.1c0.8,0,1.4,0.5,1.6,1.2h0c0.2-0.3,0.4-0.6,0.6-0.8
				c0.3-0.3,0.7-0.4,1.3-0.4c0.8,0,1.9,0.5,1.9,2.5v3.4h-1v-3.3c0-1.1-0.4-1.8-1.3-1.8c-0.6,0-1.1,0.4-1.2,1c0,0.1-0.1,0.3-0.1,0.5
				v3.6h-1V127c0-0.9-0.4-1.6-1.2-1.6c-0.7,0-1.1,0.5-1.3,1.1c-0.1,0.2-0.1,0.3-0.1,0.5v3.5h-1V126.2z"/>
			<path d="M504.9,130.9l3.3-8.7h0.8l-3.4,8.7H504.9z"/>
			<path d="M509.9,121.9h1.1v3.6h0c0.2-0.3,0.4-0.6,0.8-0.7c0.3-0.2,0.7-0.3,1.1-0.3c0.8,0,2,0.5,2,2.5v3.5h-1.1v-3.3
				c0-0.9-0.3-1.7-1.3-1.7c-0.7,0-1.2,0.5-1.4,1.1c-0.1,0.1-0.1,0.3-0.1,0.5v3.5h-1.1V121.9z"/>
			<path d="M521.8,127.5c0,2.1-1.5,3.1-2.9,3.1c-1.6,0-2.8-1.2-2.8-3c0-1.9,1.3-3.1,2.9-3.1C520.7,124.5,521.8,125.7,521.8,127.5z
				 M517.2,127.5c0,1.3,0.7,2.2,1.8,2.2c1,0,1.8-0.9,1.8-2.3c0-1-0.5-2.2-1.7-2.2C517.8,125.3,517.2,126.4,517.2,127.5z"/>
			<path d="M523.2,126.2c0-0.6,0-1.1,0-1.6h0.9l0,0.9h0c0.3-0.6,0.9-1.1,1.8-1.1c0.8,0,1.4,0.5,1.6,1.2h0c0.2-0.3,0.4-0.6,0.6-0.8
				c0.3-0.3,0.7-0.4,1.3-0.4c0.8,0,1.9,0.5,1.9,2.5v3.4h-1v-3.3c0-1.1-0.4-1.8-1.3-1.8c-0.6,0-1.1,0.4-1.2,1c0,0.1-0.1,0.3-0.1,0.5
				v3.6h-1V127c0-0.9-0.4-1.6-1.2-1.6c-0.7,0-1.1,0.5-1.3,1.1c-0.1,0.2-0.1,0.3-0.1,0.5v3.5h-1V126.2z"/>
			<path d="M533.8,127.7c0,1.4,0.9,2,2,2c0.8,0,1.2-0.1,1.6-0.3l0.2,0.8c-0.4,0.2-1,0.4-1.9,0.4c-1.8,0-2.9-1.2-2.9-2.9
				s1-3.1,2.7-3.1c1.9,0,2.4,1.7,2.4,2.7c0,0.2,0,0.4,0,0.5H533.8z M536.9,127c0-0.7-0.3-1.7-1.5-1.7c-1.1,0-1.5,1-1.6,1.7H536.9z"
				/>
			<path d="M539.1,129.4c0.3,0.2,0.9,0.4,1.4,0.4c0.8,0,1.1-0.4,1.1-0.9c0-0.5-0.3-0.8-1.1-1.1c-1-0.4-1.5-0.9-1.5-1.6
				c0-0.9,0.8-1.7,2-1.7c0.6,0,1.1,0.2,1.4,0.4l-0.3,0.8c-0.2-0.1-0.6-0.3-1.2-0.3c-0.6,0-1,0.4-1,0.8c0,0.5,0.3,0.7,1.1,1
				c1,0.4,1.5,0.9,1.5,1.8c0,1-0.8,1.7-2.2,1.7c-0.6,0-1.2-0.2-1.6-0.4L539.1,129.4z"/>
			<path d="M544.8,128.1l0-0.3c-0.1-0.6,0.1-1.4,0.7-2.1c0.5-0.6,0.8-1.1,0.8-1.6c0-0.6-0.4-1-1.1-1c-0.4,0-0.9,0.1-1.2,0.4
				l-0.3-0.8c0.4-0.3,1.1-0.5,1.7-0.5c1.4,0,2,0.9,2,1.8c0,0.8-0.5,1.4-1,2.1c-0.5,0.6-0.7,1.2-0.7,1.8l0,0.3H544.8z M544.5,129.8
				c0-0.4,0.3-0.8,0.7-0.8c0.4,0,0.7,0.3,0.7,0.8c0,0.4-0.3,0.7-0.7,0.7C544.8,130.6,544.5,130.2,544.5,129.8z"/>
			<path d="M548.8,121.9h1.1v8.5h-1.1V121.9z"/>
			<path d="M552.8,123c0,0.4-0.3,0.6-0.7,0.6c-0.4,0-0.6-0.3-0.6-0.6c0-0.4,0.3-0.7,0.7-0.7C552.6,122.3,552.8,122.6,552.8,123z
				 M551.7,130.4v-5.8h1.1v5.8H551.7z"/>
			<path d="M554.5,126.2c0-0.6,0-1.1,0-1.6h0.9l0,0.9h0c0.3-0.6,0.9-1.1,1.8-1.1c0.8,0,1.4,0.5,1.6,1.2h0c0.2-0.3,0.4-0.6,0.6-0.8
				c0.3-0.3,0.7-0.4,1.3-0.4c0.8,0,1.9,0.5,1.9,2.5v3.4h-1v-3.3c0-1.1-0.4-1.8-1.3-1.8c-0.6,0-1.1,0.4-1.2,1c0,0.1-0.1,0.3-0.1,0.5
				v3.6h-1V127c0-0.9-0.4-1.6-1.2-1.6c-0.7,0-1.1,0.5-1.3,1.1c-0.1,0.2-0.1,0.3-0.1,0.5v3.5h-1V126.2z"/>
			<path d="M565.6,123c0,0.4-0.3,0.6-0.7,0.6c-0.4,0-0.6-0.3-0.6-0.6c0-0.4,0.3-0.7,0.7-0.7C565.4,122.3,565.6,122.6,565.6,123z
				 M564.5,130.4v-5.8h1.1v5.8H564.5z"/>
			<path d="M568.5,123v1.7h1.5v0.8h-1.5v3.1c0,0.7,0.2,1.1,0.8,1.1c0.3,0,0.5,0,0.6-0.1l0,0.8c-0.2,0.1-0.5,0.1-0.9,0.1
				c-0.5,0-0.9-0.2-1.1-0.4c-0.3-0.3-0.4-0.8-0.4-1.5v-3.2h-0.9v-0.8h0.9v-1.4L568.5,123z"/>
			<path d="M570.9,126.4v-0.7h6.2v0.7H570.9z M570.9,128.7V128h6.2v0.7H570.9z"/>
			<path d="M582.7,123.5h-3l-0.3,2c0.2,0,0.3,0,0.6,0c0.6,0,1.2,0.1,1.7,0.4c0.6,0.3,1.1,1,1.1,2c0,1.5-1.2,2.7-2.9,2.7
				c-0.9,0-1.6-0.2-1.9-0.5l0.3-0.8c0.3,0.2,1,0.4,1.7,0.4c1,0,1.8-0.6,1.8-1.7c0-1-0.7-1.7-2.2-1.7c-0.4,0-0.8,0-1.1,0.1l0.5-3.7
				h3.7V123.5z"/>
			<path d="M358.4,141.3c-0.1-1.1-0.1-2.5-0.1-3.5h0c-0.3,0.9-0.6,2-1,3.1l-1.4,3.9H355l-1.3-3.9c-0.4-1.1-0.7-2.2-0.9-3.1h0
				c0,1-0.1,2.4-0.2,3.6l-0.2,3.5h-1l0.6-8.1h1.3l1.4,3.9c0.3,1,0.6,1.9,0.8,2.7h0c0.2-0.8,0.5-1.7,0.9-2.7l1.4-3.9h1.3l0.5,8.1h-1
				L358.4,141.3z"/>
			<path d="M361.9,142.1c0,1.4,0.9,2,2,2c0.8,0,1.2-0.1,1.6-0.3l0.2,0.8c-0.4,0.2-1,0.4-1.9,0.4c-1.8,0-2.9-1.2-2.9-2.9
				s1-3.1,2.7-3.1c1.9,0,2.4,1.7,2.4,2.7c0,0.2,0,0.4,0,0.5H361.9z M365,141.4c0-0.7-0.3-1.7-1.5-1.7c-1.1,0-1.5,1-1.6,1.7H365z"/>
			<path d="M368.6,137.4v1.7h1.5v0.8h-1.5v3.1c0,0.7,0.2,1.1,0.8,1.1c0.3,0,0.5,0,0.6-0.1l0,0.8c-0.2,0.1-0.5,0.1-0.9,0.1
				c-0.5,0-0.9-0.2-1.1-0.4c-0.3-0.3-0.4-0.8-0.4-1.5v-3.2h-0.9V139h0.9v-1.4L368.6,137.4z"/>
			<path d="M371.3,136.3h1.1v3.6h0c0.2-0.3,0.4-0.6,0.8-0.7c0.3-0.2,0.7-0.3,1.1-0.3c0.8,0,2,0.5,2,2.5v3.5h-1.1v-3.3
				c0-0.9-0.3-1.7-1.3-1.7c-0.7,0-1.2,0.5-1.4,1.1c-0.1,0.1-0.1,0.3-0.1,0.5v3.5h-1.1V136.3z"/>
			<path d="M383.2,141.9c0,2.1-1.5,3.1-2.9,3.1c-1.6,0-2.8-1.2-2.8-3c0-1.9,1.3-3.1,2.9-3.1C382.1,138.9,383.2,140.1,383.2,141.9z
				 M378.6,141.9c0,1.3,0.7,2.2,1.8,2.2c1,0,1.8-0.9,1.8-2.3c0-1-0.5-2.2-1.7-2.2C379.1,139.7,378.6,140.8,378.6,141.9z"/>
			<path d="M389.5,136.3v7c0,0.5,0,1.1,0,1.5h-0.9l0-1h0c-0.3,0.6-1,1.1-2,1.1c-1.4,0-2.5-1.2-2.5-3c0-1.9,1.2-3.1,2.6-3.1
				c0.9,0,1.5,0.4,1.8,0.9h0v-3.5H389.5z M388.5,141.4c0-0.1,0-0.3,0-0.4c-0.2-0.7-0.7-1.2-1.5-1.2c-1.1,0-1.7,1-1.7,2.2
				c0,1.2,0.6,2.1,1.7,2.1c0.7,0,1.4-0.5,1.5-1.3c0-0.1,0-0.3,0-0.5V141.4z"/>
			<path d="M391,140c0-0.4,0.3-0.8,0.7-0.8s0.7,0.3,0.7,0.8c0,0.4-0.3,0.7-0.7,0.7C391.3,140.7,391,140.4,391,140z M391,144.2
				c0-0.4,0.3-0.8,0.7-0.8s0.7,0.3,0.7,0.8c0,0.4-0.3,0.7-0.7,0.7C391.3,145,391,144.6,391,144.2z"/>
			<path d="M407.6,144.5c-0.5,0.2-1.4,0.4-2.5,0.4c-1.2,0-2.2-0.3-3-1.1c-0.7-0.7-1.1-1.8-1.1-3c0-2.4,1.7-4.2,4.4-4.2
				c0.9,0,1.7,0.2,2,0.4l-0.3,0.9c-0.4-0.2-1-0.3-1.8-0.3c-2,0-3.2,1.2-3.2,3.2c0,2.1,1.2,3.3,3.1,3.3c0.7,0,1.2-0.1,1.4-0.2v-2.4
				h-1.6v-0.8h2.7V144.5z"/>
			<path d="M413.4,141h-3.1v2.9h3.5v0.9h-4.5v-8.1h4.4v0.9h-3.3v2.6h3.1V141z"/>
			<path d="M416.8,137.6h-2.5v-0.9h6v0.9h-2.5v7.2h-1.1V137.6z"/>
		</g>
		<g>
			<path d="M434.6,101.7c0.6-0.1,1.5-0.2,2.3-0.2c1.3,0,2.1,0.2,2.7,0.8c0.5,0.4,0.7,1.1,0.7,1.8c0,1.2-0.8,2.1-1.8,2.4v0
				c0.7,0.3,1.2,0.9,1.4,1.9c0.3,1.3,0.5,2.2,0.7,2.6h-1.3c-0.2-0.3-0.4-1.1-0.6-2.3c-0.3-1.3-0.8-1.8-1.9-1.8h-1.1v4.1h-1.2V101.7z
				 M435.9,106h1.2c1.3,0,2.1-0.7,2.1-1.8c0-1.2-0.9-1.8-2.2-1.8c-0.6,0-1,0.1-1.2,0.1V106z"/>
			<path d="M442.9,107.9c0,1.7,1.1,2.4,2.3,2.4c0.9,0,1.4-0.2,1.9-0.4l0.2,0.9c-0.4,0.2-1.2,0.4-2.3,0.4c-2.1,0-3.3-1.4-3.3-3.4
				c0-2,1.2-3.7,3.2-3.7c2.2,0,2.8,1.9,2.8,3.2c0,0.3,0,0.4,0,0.6H442.9z M446.5,107c0-0.8-0.3-2-1.7-2c-1.2,0-1.8,1.1-1.9,2H446.5z
				"/>
			<path d="M453.8,110L453.8,110c-0.4,0.7-1.1,1.2-2.2,1.2c-1.6,0-2.9-1.4-2.9-3.4c0-2.5,1.6-3.7,3.1-3.7c1.1,0,1.8,0.5,2.1,1.2h0
				l0-1h1.2c0,0.6,0,1.2,0,1.9v7.7h-1.2V110z M453.8,107c0-0.2,0-0.4-0.1-0.5c-0.2-0.8-0.8-1.4-1.8-1.4c-1.3,0-2,1.1-2,2.6
				c0,1.3,0.6,2.5,2,2.5c0.8,0,1.5-0.5,1.8-1.3c0.1-0.2,0.1-0.4,0.1-0.6V107z"/>
			<path d="M462.8,109.2c0,0.7,0,1.3,0.1,1.8h-1.1l-0.1-1.1h0c-0.3,0.5-1,1.3-2.2,1.3c-1.1,0-2.3-0.6-2.3-3v-4h1.2v3.8
				c0,1.3,0.4,2.2,1.5,2.2c0.8,0,1.4-0.6,1.6-1.1c0.1-0.2,0.1-0.4,0.1-0.6v-4.2h1.2V109.2z"/>
			<path d="M465.5,107.9c0,1.7,1.1,2.4,2.3,2.4c0.9,0,1.4-0.2,1.9-0.4l0.2,0.9c-0.4,0.2-1.2,0.4-2.3,0.4c-2.1,0-3.3-1.4-3.3-3.4
				c0-2,1.2-3.7,3.2-3.7c2.2,0,2.8,1.9,2.8,3.2c0,0.3,0,0.4,0,0.6H465.5z M469.1,107c0-0.8-0.3-2-1.7-2c-1.2,0-1.8,1.1-1.9,2H469.1z
				"/>
			<path d="M471.6,109.8c0.4,0.2,1,0.5,1.6,0.5c0.9,0,1.3-0.4,1.3-1c0-0.6-0.4-0.9-1.3-1.2c-1.2-0.4-1.8-1.1-1.8-1.9
				c0-1.1,0.9-2,2.3-2c0.7,0,1.3,0.2,1.7,0.4l-0.3,0.9c-0.3-0.2-0.8-0.4-1.4-0.4c-0.7,0-1.1,0.4-1.1,0.9c0,0.6,0.4,0.8,1.3,1.1
				c1.2,0.4,1.8,1,1.8,2c0,1.2-0.9,2-2.5,2c-0.7,0-1.4-0.2-1.9-0.5L471.6,109.8z"/>
			<path d="M478.8,102.3v1.9h1.8v0.9h-1.8v3.7c0,0.8,0.2,1.3,0.9,1.3c0.3,0,0.6,0,0.7-0.1l0.1,0.9c-0.2,0.1-0.6,0.2-1.1,0.2
				c-0.6,0-1-0.2-1.3-0.5c-0.4-0.4-0.5-1-0.5-1.8v-3.7h-1.1v-0.9h1.1v-1.6L478.8,102.3z"/>
		</g>
	</g>
	<line fill="none" stroke="#B3B3B3" stroke-miterlimit="10" x1="362" y1="214.5" x2="459" y2="214.5"/>
	<line fill="none" stroke="#B3B3B3" stroke-miterlimit="10" x1="458.5" y1="215" x2="458.5" y2="155"/>
	<g>
		<g>
			<path fill="#666666" d="M95.9,153.5c-0.6-0.7-1.1-1.6-1.5-2.6c-0.4-1-0.6-2-0.6-3.1c0-0.9,0.1-1.8,0.4-2.7c0.3-1,0.9-2,1.6-3
				l0.8,0c-0.5,0.8-0.8,1.4-0.9,1.7c-0.2,0.5-0.4,1.1-0.5,1.7c-0.2,0.7-0.2,1.5-0.2,2.2c0,1.9,0.6,3.8,1.8,5.6L95.9,153.5z"/>
			<path fill="#666666" d="M97.4,148.5l1-0.1c0,0.7,0.2,1.1,0.4,1.3c0.2,0.2,0.5,0.4,0.9,0.4c0.3,0,0.5-0.1,0.7-0.2s0.3-0.3,0.4-0.5
				c0.1-0.2,0.1-0.6,0.1-1.1l-0.1-5.9l1.1,0l0.1,5.9c0,0.7-0.1,1.3-0.2,1.7s-0.4,0.7-0.8,0.9c-0.4,0.2-0.8,0.3-1.3,0.3
				c-0.8,0-1.3-0.2-1.7-0.6C97.6,150,97.4,149.4,97.4,148.5z"/>
			<path fill="#666666" d="M107.9,150.1c-0.4,0.3-0.8,0.6-1.1,0.7c-0.4,0.1-0.7,0.2-1.2,0.2c-0.7,0-1.2-0.2-1.6-0.5
				c-0.4-0.3-0.6-0.8-0.6-1.3c0-0.3,0.1-0.6,0.2-0.8c0.1-0.3,0.3-0.5,0.5-0.6c0.2-0.2,0.5-0.3,0.8-0.4c0.2-0.1,0.5-0.1,0.9-0.2
				c0.9-0.1,1.5-0.2,1.9-0.4c0-0.1,0-0.2,0-0.3c0-0.4-0.1-0.7-0.3-0.9c-0.3-0.2-0.7-0.4-1.2-0.3c-0.5,0-0.9,0.1-1.1,0.3
				c-0.2,0.2-0.4,0.5-0.5,0.9l-1-0.1c0.1-0.4,0.2-0.8,0.5-1.1c0.2-0.3,0.5-0.5,0.9-0.6c0.4-0.1,0.9-0.2,1.4-0.2c0.5,0,1,0.1,1.3,0.2
				c0.3,0.1,0.6,0.3,0.7,0.5c0.2,0.2,0.3,0.4,0.3,0.7c0,0.2,0.1,0.5,0.1,1l0,1.4c0,1,0,1.6,0.1,1.9c0,0.3,0.1,0.5,0.3,0.7l-1.1,0
				C108.1,150.7,108,150.4,107.9,150.1z M107.8,147.8c-0.4,0.2-1,0.3-1.7,0.4c-0.4,0.1-0.7,0.1-0.9,0.2c-0.2,0.1-0.3,0.2-0.4,0.3
				c-0.1,0.2-0.1,0.3-0.1,0.5c0,0.3,0.1,0.5,0.3,0.7c0.2,0.2,0.5,0.3,0.9,0.3c0.4,0,0.8-0.1,1.1-0.3s0.5-0.4,0.7-0.7
				c0.1-0.2,0.2-0.6,0.2-1.1L107.8,147.8z"/>
			<path fill="#666666" d="M112.3,150.8l-2.4-6.2l1.1,0l1.4,3.7c0.1,0.4,0.3,0.8,0.4,1.3c0.1-0.3,0.2-0.7,0.4-1.2l1.3-3.8l1.1,0
				l-2.3,6.2L112.3,150.8z"/>
			<path fill="#666666" d="M120.6,150c-0.4,0.3-0.8,0.6-1.1,0.7c-0.4,0.1-0.7,0.2-1.2,0.2c-0.7,0-1.2-0.2-1.6-0.5s-0.6-0.8-0.6-1.3
				c0-0.3,0.1-0.6,0.2-0.8c0.1-0.3,0.3-0.5,0.5-0.6s0.5-0.3,0.8-0.4c0.2-0.1,0.5-0.1,0.9-0.2c0.9-0.1,1.5-0.2,1.9-0.4
				c0-0.1,0-0.2,0-0.3c0-0.4-0.1-0.7-0.3-0.9c-0.3-0.2-0.7-0.4-1.2-0.3c-0.5,0-0.9,0.1-1.1,0.3c-0.2,0.2-0.4,0.5-0.5,0.9l-1-0.1
				c0.1-0.4,0.2-0.8,0.5-1.1s0.5-0.5,0.9-0.6c0.4-0.1,0.9-0.2,1.4-0.2c0.5,0,1,0.1,1.3,0.2c0.3,0.1,0.6,0.3,0.7,0.5
				c0.2,0.2,0.3,0.4,0.3,0.7c0,0.2,0.1,0.5,0.1,1l0,1.4c0,1,0,1.6,0.1,1.9s0.1,0.5,0.3,0.7l-1.1,0
				C120.7,150.5,120.7,150.3,120.6,150z M120.5,147.6c-0.4,0.2-1,0.3-1.7,0.4c-0.4,0.1-0.7,0.1-0.9,0.2c-0.2,0.1-0.3,0.2-0.4,0.3
				c-0.1,0.2-0.1,0.3-0.1,0.5c0,0.3,0.1,0.5,0.3,0.7c0.2,0.2,0.5,0.3,0.9,0.3c0.4,0,0.8-0.1,1.1-0.3c0.3-0.2,0.5-0.4,0.7-0.7
				c0.1-0.2,0.2-0.6,0.2-1.1L120.5,147.6z"/>
			<path fill="#666666" d="M124,153.3l-0.8,0c1.2-1.9,1.7-3.8,1.7-5.6c0-0.7-0.1-1.5-0.3-2.2c-0.1-0.6-0.3-1.1-0.6-1.7
				c-0.2-0.4-0.5-0.9-1-1.7l0.8,0c0.7,1,1.3,2,1.7,2.9c0.3,0.8,0.5,1.7,0.5,2.7c0,1.1-0.2,2.1-0.6,3.1
				C125,151.7,124.5,152.5,124,153.3z"/>
		</g>
	</g>
	<g>
		<path d="M226.1,29.6V15.3h6.3c1.3,0,2.2,0.1,2.9,0.4s1.2,0.7,1.6,1.4s0.6,1.4,0.6,2.2c0,1-0.3,1.9-1,2.6s-1.7,1.1-3,1.3
			c0.5,0.2,0.9,0.5,1.1,0.7c0.6,0.5,1.1,1.1,1.6,1.9l2.5,3.9h-2.4l-1.9-3c-0.6-0.9-1-1.5-1.4-2s-0.7-0.8-1-1s-0.6-0.3-0.9-0.4
			c-0.2,0-0.6-0.1-1.1-0.1H228v6.4H226.1z M228,21.6h4.1c0.9,0,1.5-0.1,2-0.3s0.9-0.5,1.1-0.9s0.4-0.8,0.4-1.3
			c0-0.7-0.2-1.2-0.7-1.7s-1.3-0.7-2.3-0.7H228V21.6z"/>
		<path d="M240.6,29.6V15.3h10.4V17h-8.5v4.4h7.9v1.7h-7.9v4.9h8.8v1.7H240.6z"/>
		<path d="M253.2,25l1.8-0.2c0.1,0.7,0.3,1.3,0.6,1.8s0.8,0.8,1.4,1.1s1.4,0.4,2.2,0.4c0.7,0,1.4-0.1,1.9-0.3s1-0.5,1.2-0.9
			s0.4-0.8,0.4-1.2c0-0.4-0.1-0.8-0.4-1.2s-0.7-0.6-1.3-0.8c-0.4-0.1-1.2-0.4-2.5-0.7s-2.2-0.6-2.8-0.9c-0.7-0.4-1.2-0.8-1.5-1.3
			s-0.5-1.1-0.5-1.8c0-0.7,0.2-1.4,0.6-2s1-1.1,1.8-1.4s1.7-0.5,2.6-0.5c1.1,0,2,0.2,2.8,0.5s1.4,0.8,1.9,1.5s0.7,1.4,0.7,2.3
			l-1.8,0.1c-0.1-0.9-0.4-1.6-1-2.1s-1.4-0.7-2.5-0.7c-1.1,0-2,0.2-2.5,0.6s-0.8,0.9-0.8,1.5c0,0.5,0.2,0.9,0.6,1.3
			c0.4,0.3,1.3,0.7,2.9,1s2.6,0.7,3.2,0.9c0.8,0.4,1.4,0.9,1.8,1.5s0.6,1.3,0.6,2c0,0.8-0.2,1.5-0.7,2.2s-1.1,1.2-1.9,1.6
			s-1.7,0.6-2.8,0.6c-1.3,0-2.4-0.2-3.3-0.6s-1.6-0.9-2.1-1.7S253.2,26,253.2,25z"/>
		<path d="M270.8,29.6V17h-4.7v-1.7h11.3V17h-4.7v12.6H270.8z"/>
		<path d="M281.9,29.6l5.5-14.3h2l5.9,14.3h-2.2l-1.7-4.3h-6l-1.6,4.3H281.9z M286.1,23.7h4.9l-1.5-4c-0.5-1.2-0.8-2.2-1-3
			c-0.2,0.9-0.4,1.8-0.8,2.7L286.1,23.7z"/>
		<path d="M296.8,29.6V15.3h5.4c1,0,1.7,0,2.2,0.1c0.7,0.1,1.3,0.3,1.8,0.7s0.9,0.8,1.1,1.4s0.4,1.2,0.4,2c0,1.2-0.4,2.2-1.2,3.1
			s-2.2,1.3-4.2,1.3h-3.7v5.8H296.8z M298.7,22.1h3.7c1.2,0,2.1-0.2,2.6-0.7s0.8-1.1,0.8-1.9c0-0.6-0.2-1.1-0.5-1.5
			s-0.7-0.7-1.2-0.8c-0.3-0.1-0.9-0.1-1.8-0.1h-3.7V22.1z"/>
		<path d="M310.5,29.6V15.3h1.9v14.3H310.5z"/>
		<path d="M321.1,29.6V19.2h1.6v1.5c0.3-0.5,0.8-0.9,1.3-1.2s1.2-0.5,1.8-0.5c0.8,0,1.4,0.2,1.9,0.5s0.8,0.8,1,1.3
			c0.8-1.2,1.9-1.8,3.2-1.8c1,0,1.8,0.3,2.4,0.9s0.8,1.4,0.8,2.6v7.1h-1.7v-6.5c0-0.7-0.1-1.2-0.2-1.5s-0.3-0.6-0.6-0.7
			s-0.7-0.3-1.1-0.3c-0.7,0-1.3,0.2-1.8,0.7s-0.7,1.3-0.7,2.3v6h-1.8v-6.7c0-0.8-0.1-1.4-0.4-1.8s-0.8-0.6-1.4-0.6
			c-0.5,0-1,0.1-1.4,0.4s-0.7,0.6-0.9,1.1s-0.3,1.2-0.3,2.2v5.4H321.1z"/>
		<path d="M337.1,24.4c0-1.9,0.5-3.3,1.6-4.3c0.9-0.8,2-1.2,3.3-1.2c1.4,0,2.6,0.5,3.5,1.4s1.4,2.2,1.4,3.9c0,1.3-0.2,2.4-0.6,3.1
			s-1,1.4-1.7,1.8s-1.6,0.6-2.5,0.6c-1.5,0-2.6-0.5-3.5-1.4S337.1,26.2,337.1,24.4z M338.9,24.4c0,1.3,0.3,2.3,0.9,3s1.3,1,2.2,1
			c0.9,0,1.6-0.3,2.2-1s0.9-1.7,0.9-3c0-1.3-0.3-2.3-0.9-2.9s-1.3-1-2.2-1c-0.9,0-1.6,0.3-2.2,1S338.9,23.1,338.9,24.4z"/>
		<path d="M355.6,29.6v-1.3c-0.7,1-1.6,1.5-2.9,1.5c-0.8,0-1.6-0.2-2.3-0.7s-1.2-1.1-1.6-1.9s-0.6-1.8-0.6-2.8c0-1,0.2-2,0.5-2.8
			s0.9-1.5,1.6-1.9s1.5-0.7,2.3-0.7c0.6,0,1.2,0.1,1.7,0.4s0.9,0.6,1.2,1v-5.1h1.7v14.3H355.6z M350,24.4c0,1.3,0.3,2.3,0.8,3
			s1.2,1,2,1c0.8,0,1.4-0.3,2-0.9s0.8-1.6,0.8-2.9c0-1.4-0.3-2.5-0.8-3.1s-1.2-1-2-1c-0.8,0-1.4,0.3-2,1S350,23.1,350,24.4z"/>
		<path d="M367.1,26.3l1.8,0.2c-0.3,1.1-0.8,1.9-1.6,2.5s-1.8,0.9-3,0.9c-1.5,0-2.7-0.5-3.6-1.4s-1.3-2.2-1.3-3.9
			c0-1.7,0.4-3.1,1.3-4.1s2.1-1.4,3.5-1.4c1.4,0,2.5,0.5,3.4,1.4s1.3,2.3,1.3,4c0,0.1,0,0.3,0,0.5h-7.7c0.1,1.1,0.4,2,1,2.6
			s1.3,0.9,2.2,0.9c0.6,0,1.2-0.2,1.7-0.5S366.8,27,367.1,26.3z M361.3,23.4h5.8c-0.1-0.9-0.3-1.5-0.7-2c-0.6-0.7-1.3-1-2.2-1
			c-0.8,0-1.5,0.3-2,0.8S361.4,22.5,361.3,23.4z"/>
		<path d="M371.1,29.6V15.3h1.8v14.3H371.1z"/>
	</g>
</g>
</svg>
