<svg id="Layer_1" data-name="Layer 1" xmlns="http://www.w3.org/2000/svg" viewBox="0 0 700 322.5"><defs><style>.cls-1{fill:none;stroke:#0dd6f7;}.cls-1,.cls-2{stroke-miterlimit:10;}.cls-2{fill:#a4d5f7;stroke:#231f20;stroke-linecap:round;stroke-width:0.88px;}.cls-3{font-size:16.85px;font-weight:700;}.cls-3,.cls-4{font-family:Arial;}.cls-4{font-size:14px;}</style></defs><title>idratherbewriting</title><line class="cls-1" x1="114.61" y1="58.95" x2="194.31" y2="118.1"/><line class="cls-1" x1="202.58" y1="73.54" x2="259.52" y2="119.19"/><line class="cls-1" x1="376.83" y1="194.93" x2="462.28" y2="263.45"/><line class="cls-1" x1="334.43" y1="232.44" x2="352.1" y2="246.61"/><line class="cls-1" x1="266.93" y1="86.17" x2="318.97" y2="127.89"/><line class="cls-1" x1="296.88" y1="37.34" x2="360.12" y2="88.04"/><line class="cls-1" x1="461" y1="200.5" x2="556.18" y2="278.73"/><line class="cls-1" x1="527.35" y1="201.23" x2="645.69" y2="296.11"/><line class="cls-1" x1="23.85" y1="42.52" x2="122.93" y2="121.97"/><path d="M311.32,239.2c-13.79-1.35-27.36-2.81-39.91-4.93-2.39-.42-4.72-0.86-6.84-1.46a4.77,4.77,0,0,1-1.85-1,21.14,21.14,0,0,1,3.35-.45c4.54,0,9.17,0,13.71,0,12.59,0.07,25.21.31,37.79,0.18,9.79-.11,19.5-0.69,29.24-1.11a20.18,20.18,0,0,0,3-.31,5,5,0,0,0,1.68-.56,2.85,2.85,0,0,0-1.75-.55c-3.41-.32-6.87-0.63-10.36-0.91-20.45-1.31-40.77-2.77-60.33-5.06a581.73,581.73,0,0,1-62.83-10.48C200.75,209,187,205,175.85,200.26c-2.87-1.22-5.65-2.43-6.71-3.92a6.27,6.27,0,0,1,.72-0.25c1.54,0.21,3.25.42,4.62,0.7,8.89,1.94,17.61,4,26.61,5.9a578.73,578.73,0,0,0,70,10.23c19,1.66,38.41,2.57,58.27,2.43,6.19,0,12.34-.35,18.51-0.55,1.3,0,2.53-.31,3.83-0.45a0.7,0.7,0,0,1,.18-0.31c-1.51-.18-2.94-0.42-4.48-0.52-11.59-.79-23.29-1.49-34.78-2.43a538.28,538.28,0,0,1-65.9-9.16c-24.08-5-43.4-11.25-57.63-18.75-10.12-5.34-17.34-11-19.8-17.08-1-2.28-.65-4.61-0.82-6.9a2.23,2.23,0,0,1,.89-0.93c0.41,0,.82,0,1.26,0,1.41,1.11,3,2.22,4.25,3.33,8,7.53,19.49,14.57,36.94,20.68,24.51,8.57,55.3,14.3,92.92,16.73a351.13,351.13,0,0,0,42.3.48c1.6-.1,3.18-0.31,4.79-0.42a1.76,1.76,0,0,0,0-.41c-3.39-.25-6.71-0.56-10.13-0.8-19.9-1.22-39.08-3-56.63-6.11-35-6.14-58.52-14.82-68.51-26.34-8-9.29-5.57-18.36,10-27a26.32,26.32,0,0,1,8.72-3.3l1.16,0.11a11.8,11.8,0,0,1-1.27,2.08c-4.06,4.69-6.66,9.44-5.84,14.3,1.37,8.08,10.59,15.33,28.66,21.54,13.82,4.76,31.12,8.16,51.67,10a280.32,280.32,0,0,0,37.89.91,21.9,21.9,0,0,0,4.35-.69c-1.23-.18-2.43-0.42-3.76-0.49-10.12-1-20.72-1.77-30.34-3.15-30.16-4.2-49.18-11.14-54.92-20.72s7.21-19.4,34.88-24.65c3.39-.66,7.28-1.08,11-1.56,1.37-.17,3-0.1,4.58-0.17,0.21,0.11.41,0.17,0.58,0.28-1.4.52-2.66,1-4.2,1.53-10.5,3.19-18.77,6.77-22.84,11.07-8.11,8.5,4.47,17.77,29.85,21.72a141.75,141.75,0,0,0,29.44,1.67c2-.11,3.76-0.42,5.65-0.6,0-.1,0-0.24.1-0.41-1.87-.28-3.66-0.63-5.64-0.84-8.59-1-16.45-2.36-22.75-4.37-14-4.48-15.9-11.25-1.74-15.89,6.57-2.16,19-3.47,27.29-2.67,0.89,0.07,1.78.17,2.57,0.31,2.67,0.49,2.71.93,0.24,1.49-2.94.69-6.22,1.25-8.78,2-4.35,1.32-6.16,2.89-4.11,4.69a5.76,5.76,0,0,0,.68.48,15.64,15.64,0,0,0,7.56,1.43c3.69,0,4.27-1,4.68-1.87h0a11,11,0,0,1-5.71-.56c-1.47-.69-0.68-1.35.75-2,2.71-1.18,8.62-1.6,14-1.15a39.44,39.44,0,0,1,12.45,3A41.17,41.17,0,0,0,378,153.2c1.13-.55,2.87-1,3.21-1.66,2-3.61-3.48-6.32-13.17-8.33-13.89-2.88-34.2-2.5-47.58.63-8.54,2-13.88,4.54-17.95,7.43a23.43,23.43,0,0,1-3.56,1.52c-1-.55-2.53-1.11-2.87-1.7-1.6-2.95.66-5.72,5.44-8.26,10.54-5.65,27.12-8.74,49-9.47a208.62,208.62,0,0,1,56.16,5.28c3,0.73,5.71,1.53,8.65,2.26,1.2,0.31,2.6.52,3.9,0.79,0.41,0,.75-0.1,1.13-0.13a6.23,6.23,0,0,0-1.44-1.95c-4.1-3-11-5.41-19.52-7.5-15.8-3.81-34.27-5.59-54.58-5.59q-30.11,0-54.48,5.24c-21.41,4.55-33.55,10.83-40.08,18.19a33.4,33.4,0,0,1-2.78,2.64,6.83,6.83,0,0,1-1.19.42c-2.87-1-2.84-2.15-3-3.16-1-7.39,7.21-13.88,22.77-19.64,15.26-5.65,35-9.47,58.69-11.55a398.78,398.78,0,0,1,48.73-1.39c11.39,0.42,22.61,1.15,33.89,1.74,1.23,0.07,2.46.1,3.69,0.13,0.24-.06.45-0.17,0.65-0.24a32,32,0,0,0-3.25-1,223.32,223.32,0,0,0-33-4.41c-45.82-3.23-87-.25-123.25,8.32-29.07,6.88-45.48,16-53.62,26.48-1.23,1.56-2.57,3.12-4.1,5-3.49-1-3.32-2.08-3.6-3-2.53-8.19,4.38-15.83,17.45-23,20.14-11.11,51.12-18.81,91-23.54,8.86-1,18-1.9,27-2.88,2-.2,3.9-0.49,5.88-0.76,0-.11-0.07-0.24-0.11-0.38-2-.1-4.17-0.24-6.26-0.28a445.76,445.76,0,0,0-56.66,3.09,381.74,381.74,0,0,0-58.21,10.51c-30.23,8.12-49.72,18.12-60.23,29.6-2.73,3-4.79,6-7.21,9a12.06,12.06,0,0,1-1.71,1.35h-1.47c-0.82-1-2-1.95-2.36-2.95-2.43-6.63.45-13.15,6.53-19.54,8.38-8.81,23-16.66,42-23.91,4.61-1.78,9.31-3.51,13.89-5.28a20.93,20.93,0,0,0,2.71-1.39c-0.18-.11-0.38-0.18-0.55-0.28a35.77,35.77,0,0,0-4.58.42c-8.11,1.63-16.66,3.09-24,4.93-28.25,7.12-48,16-62.11,26A76.7,76.7,0,0,0,93.5,149.59a15.31,15.31,0,0,1-2.57,2.53,13.05,13.05,0,0,1-2.19.69,6.25,6.25,0,0,1-2-.69c-1.4-1.77-3.42-3.61-3.73-5.41a79.74,79.74,0,0,1-.81-12.46,42.25,42.25,0,0,1,.65-5.53c0-.24.24-0.48,0-0.69a19.31,19.31,0,0,0-2-1.15,17.4,17.4,0,0,0-3.39.63c-3.93,1.91-8.62,3.78-11.32,5.83-6.43,4.93-13.72,8.57-17.85,14.89-11.73,17.94,3.86,33.9,26.61,46.36,51.6,28.32,153.9,47.73,271.92,48.11-1-.14-2.08-0.25-3.18-0.38C332.93,241.18,322.09,240.2,311.32,239.2Z"/><path d="M376.64,65c18.09,1.66,36.21,3.3,52.91,6,3.28,0.52,6.36,1.18,9.3,1.85,0.86,0.17,1.71.66,1.44,0.9a8.58,8.58,0,0,1-3.07.49q-12.67,0-25.38-.11c-18-.17-36-0.28-53.69.94-2.36.17-4.51,0.52-7.35,0.86,3.26,1,7,1.15,10.44,1.39,20.28,1.39,40.56,2.75,60,4.93,35.33,4,66.63,9.72,91.93,17.95,7,2.28,12.72,4.92,18.85,7.46a8.61,8.61,0,0,1,2.25,1.63,4.58,4.58,0,0,1-.81.24c-1.47-.2-3.08-0.38-4.38-0.66-9.24-2-18.26-4.17-27.7-6.14A588.21,588.21,0,0,0,406.59,91c-11.32-.48-22.84-0.69-34.33-0.79-5.54,0-11.15.31-16.77,0.55a34.84,34.84,0,0,0-4,.49,0.92,0.92,0,0,0,0,.31c2.22,0.2,4.45.45,6.71,0.62C373.45,93.3,389,94.27,404,95.69a460.24,460.24,0,0,1,61,9.71c18.88,4.34,34.37,9.55,46.65,15.55,11.08,5.42,18.67,11.25,22.17,17.49,1.26,2.26,1.26,4.62,1.57,6.91,0.11,0.62-.68,1.24-1.06,1.87-0.47,0-1,0-1.51.07-1.47-1.18-3.11-2.32-4.41-3.54-8.17-7.57-19.7-14.61-37.41-20.72-24.56-8.47-55.17-14.16-92.65-16.49a353,353,0,0,0-42-.48c-1.61.1-3.21,0.28-4.79,0.41a1.54,1.54,0,0,0-.07.38c3.25,0.28,6.43.63,9.79,0.84,28.83,1.71,55.33,4.86,77.94,10.41,23.49,5.77,39.6,12.94,47.29,21.59,7.49,8.43,6.43,16.77-5.47,24.89a69.2,69.2,0,0,1-8.58,4.54,32.35,32.35,0,0,1-4.11,1.32c-0.41,0-.82-0.11-1.23-0.18a27.54,27.54,0,0,1,1.61-2.57c3.69-4.41,6.26-8.85,5.51-13.4-1.67-10.58-15.66-19.43-43.88-26.24-15.56-3.78-33.62-6.07-53.79-6.73-6.78-.2-13.79,0-20.66.18-1.51,0-2.94.28-4.41,0.42a1.26,1.26,0,0,0,0,.38c2.88,0.28,5.72.62,8.66,0.84,17.06,1.28,33,3.23,46.65,6.59,18.84,4.61,30.68,10.38,34,17.52,2.94,6.22-.89,12-12.59,17.35-7.73,3.51-17.75,6.35-31.33,8-2.08.24-4.41,0.31-6.6,0.49-0.2-.11-0.41-0.18-0.61-0.28,0.61-.28,1.13-0.59,1.85-0.86,6-2.33,13.37-4.44,18.05-7,13.65-7.37,13.24-14.78-3.79-21.73-9.58-3.88-23-6.17-39.64-6.63-3.76-.1-7.66.14-11.45,0.31-1.13,0-2.12.32-4.25,0.63,2.87,0.44,4.82.76,6.88,1,11.69,1.39,21.71,3.37,28.24,6.59,8.83,4.37,7.73,9.72-3.83,13.5-7.15,2.35-16.25,3.54-27.46,2.77a23,23,0,0,1-2.53-.28c-2.53-.49-2.57-0.91-0.21-1.42s5.2-1.08,7.53-1.67c4.34-1.15,6.7-2.53,6-4.3-0.47-1.18-2.36-2.11-6.46-2.53s-7,.24-6.67,1.55h0c2.26,0.25,5.2.25,5.47,1.29s-1.58,1.77-4.72,2.29c-6.43,1-14.87.2-20.28-1.87-1.34-.52-2.47-1.08-3.8-1.63-2.33-.9-4.34-0.83-5.85.21-2,1.39-1.78,2.77-.41,4.19,3.53,3.68,16.25,6.63,29.45,7,22.29,0.73,39.33-3.54,46.61-8.36,1.54-1,3.35-2.05,5.26-3.23,3.39,0.83,3.66,1.8,3.8,2.77,1.06,6.59-14.26,12.74-35.33,15.34a217.51,217.51,0,0,1-69.87-2.51c-5.17-1-9.67-2.35-14.5-3.54l-4-.93c-0.38,0-.72.1-1.09,0.1a3.7,3.7,0,0,0,.89,1.6c3.62,3.09,10.53,5.59,18.91,7.7,13.06,3.33,28.52,5.21,45.72,5.77,25.38,0.79,48.13-1.29,68-5.87,19.32-4.44,30.44-10.38,36.63-17.21,1-1,2.19-2,3.41-3.23,3.39,1,3.39,2.15,3.49,3.15,1.13,7.67-7.73,14.37-24.22,20.23-15,5.38-34.27,9-57.14,11a431.93,431.93,0,0,1-63.31.79c-6.43-.37-12.79-0.79-19.18-1.21a25.52,25.52,0,0,0-4.79.1,24.61,24.61,0,0,0,3.11,1c12.73,2.81,27.39,4.26,42.86,5.14q17.55,0.93,35.43.48a403.62,403.62,0,0,0,63.89-6.31c24.35-4.55,42.3-10.7,54.79-18.26,7.76-4.69,12-9.65,16-14.68a16.32,16.32,0,0,1,2-1.6c3.11,1.7,3.39,3.33,3.42,4.92,0.4,9.06-8.72,17.36-25.58,24.92-23.12,10.38-56,17.15-95.89,21.17-5.51.55-11.08,1.08-16.63,1.63-1.44.17-2.77,0.44-4.17,0.62,0,0.11,0,.24,0,0.35,1.81,0.11,3.62.24,5.44,0.28a459.67,459.67,0,0,0,81.36-6.39c37.27-6.14,64.05-15.09,82-26.27A60.71,60.71,0,0,0,558,156.14a29.84,29.84,0,0,1,3-3.26c0.48,0,1,0,1.54,0,0.79,0.91,2,1.77,2.32,2.67a14.55,14.55,0,0,1-.47,11c-2.57,6.25-8.72,12.25-17.48,17.95-9.51,6.25-22.44,11.87-37,17.14-3,1.11-5.85,2.22-8.65,3.37a11.42,11.42,0,0,0-2.06,1.29c2.64-.25,4.48-0.28,5.79-0.52,8-1.6,16.51-3,23.74-4.9,38.61-9.92,61.59-22.52,74.42-36.78,2.77-3.13,5.13-6.25,7.83-9.37a15.4,15.4,0,0,1,2.64-1.91h1.47a13.45,13.45,0,0,1,2.77,2.09,17.26,17.26,0,0,1,3.25,13.81c-0.51,2.88-.68,5.8-1,8.72a0.82,0.82,0,0,0,.11.62c0.68,0.93,2.64,1.18,4.82.45,2.43-.84,4.44-1.87,6.32-2.67,9.44-4,17.76-7.08,26.82-15.69,2.22-2.08,2.53-5.9,2.91-7.45,0-49.35-137.1-89.44-307-90.06,0.65,0.13,1.44.28,2.32,0.38C363.13,63.62,369.83,64.35,376.64,65Z"/><path class="cls-2" d="M392.07,146.1c6.56,6.43-16.19,18.12-38,20S311.8,161,311,151.81s17.67-12.38,39.44-14.29S387,141.08,392.07,146.1Z"/><text class="cls-3" transform="translate(324.29 157.92) scale(1.11 1)">APIs</text><text class="cls-4" transform="translate(7.77 37.54)">Swagger</text><text class="cls-4" transform="translate(80.5 52.22)">Markdown</text><text class="cls-4" transform="translate(165.5 66.22)">Github</text><text class="cls-4" transform="translate(232.33 79.08)">Programming</text><text class="cls-4" transform="translate(268.09 32.9)">Security</text><text class="cls-4" transform="translate(319.48 261.54)">W<tspan x="12.96" y="0">rite the Docs</tspan></text><text class="cls-4" transform="translate(420.31 277.53)">Authoring tools</text><text class="cls-4" transform="translate(533.59 295.03)">T<tspan x="8.03" y="0">utorials</tspan></text><text class="cls-4" transform="translate(591.09 311.03)">API-based CMS</text></svg>