<?xml version="1.0" encoding="utf-8"?>
<!-- Generator: Adobe Illustrator 17.1.0, SVG Export Plug-In . SVG Version: 6.00 Build 0)  -->
<!DOCTYPE svg PUBLIC "-//W3C//DTD SVG 1.1//EN" "http://www.w3.org/Graphics/SVG/1.1/DTD/svg11.dtd">
<svg version="1.1" id="Layer_1" xmlns="http://www.w3.org/2000/svg" xmlns:xlink="http://www.w3.org/1999/xlink" x="0px" y="0px"
	 viewBox="0 0 600 1052.9" enable-background="new 0 0 600 1052.9" xml:space="preserve">
<path d="M135.7,252.8l-3.6,3.6v-3.6H135.7z M108.9,229.6h27.2v22.6h-4.3c-0.2,0-0.3,0.1-0.3,0.3v4.3h-22.6L108.9,229.6z M136.4,229
	h-27.8c-0.2,0-0.3,0.1-0.3,0.3v27.8c0,0.2,0.1,0.3,0.3,0.3h23.2c0.1,0,0.2,0,0.2-0.1l4.6-4.6c0.1-0.1,0.1-0.1,0.1-0.2v-23.2
	C136.7,229.1,136.5,229,136.4,229L136.4,229z"/>
<path d="M166.2,272.7l-3.6,3.6v-3.6H166.2z M139.4,249.5h27.2V272h-4.3c-0.2,0-0.3,0.1-0.3,0.3v4.3h-22.6L139.4,249.5z M166.9,248.9
	h-27.8c-0.2,0-0.3,0.1-0.3,0.3V277c0,0.2,0.1,0.3,0.3,0.3h23.3c0.1,0,0.2,0,0.2-0.1l4.6-4.6c0.1-0.1,0.1-0.1,0.1-0.2v-23.2
	C167.2,249,167.1,248.9,166.9,248.9L166.9,248.9z"/>
<path d="M130.2,293l-3.6,3.6V293H130.2z M103.4,286.7l2.5-2.5c0.1-0.1,0.1-0.1,0.1-0.2v-14.2h24.6v22.6h-4.3c-0.2,0-0.3,0.1-0.3,0.3
	v4.3h-22.6L103.4,286.7z M78.2,261h27.2v22.6h-4.3c-0.2,0-0.3,0.1-0.3,0.3v4.3H78.2L78.2,261z M101.4,287.8v-3.6h3.6L101.4,287.8z
	 M130.9,269.2H106v-8.5c0-0.2-0.1-0.3-0.3-0.3l-27.8,0c-0.2,0-0.3,0.1-0.3,0.3v27.8c0,0.2,0.1,0.3,0.3,0.3h23.3c0.1,0,0.2,0,0.2-0.1
	l1.5-1.5v10c0,0.2,0.1,0.3,0.3,0.3h23.2c0.1,0,0.2,0,0.2-0.1l4.6-4.6c0.1-0.1,0.1-0.1,0.1-0.2v-23.2
	C131.2,269.3,131.1,269.2,130.9,269.2L130.9,269.2z"/>
<path d="M114,234.8h17c0.2,0,0.3-0.1,0.3-0.3s-0.1-0.3-0.3-0.3h-17c-0.2,0-0.3,0.1-0.3,0.3S113.8,234.8,114,234.8z"/>
<path d="M130.9,238.8h-17c-0.2,0-0.3,0.1-0.3,0.3s0.1,0.3,0.3,0.3h17c0.2,0,0.3-0.1,0.3-0.3C131.2,239,131.1,238.8,130.9,238.8
	L130.9,238.8z"/>
<path d="M130.9,243.5h-17c-0.2,0-0.3,0.1-0.3,0.3c0,0.2,0.1,0.3,0.3,0.3h17c0.2,0,0.3-0.1,0.3-0.3
	C131.3,243.7,131.1,243.5,130.9,243.5L130.9,243.5z"/>
<path d="M144.5,254.6h17c0.2,0,0.3-0.1,0.3-0.3c0-0.2-0.1-0.3-0.3-0.3l-17,0c-0.2,0-0.3,0.1-0.3,0.3
	C144.2,254.5,144.4,254.6,144.5,254.6z"/>
<path d="M161.5,258.7h-17c-0.2,0-0.3,0.1-0.3,0.3c0,0.2,0.1,0.3,0.3,0.3h17c0.2,0,0.3-0.1,0.3-0.3
	C161.8,258.8,161.7,258.7,161.5,258.7z"/>
<path d="M161.5,263.4h-17c-0.2,0-0.3,0.1-0.3,0.3c0,0.2,0.1,0.3,0.3,0.3h17c0.2,0,0.3-0.1,0.3-0.3
	C161.8,263.5,161.7,263.4,161.5,263.4z"/>
<path d="M83.3,266.2h17c0.2,0,0.3-0.1,0.3-0.3s-0.1-0.3-0.3-0.3l-17,0c-0.2,0-0.3,0.1-0.3,0.3C83,266.1,83.1,266.2,83.3,266.2
	L83.3,266.2z"/>
<path d="M100.3,270.3h-17c-0.2,0-0.3,0.1-0.3,0.3s0.1,0.3,0.3,0.3h17c0.2,0,0.3-0.1,0.3-0.3S100.4,270.3,100.3,270.3z"/>
<path d="M100.3,274.9h-17c-0.2,0-0.3,0.1-0.3,0.3s0.1,0.3,0.3,0.3h17c0.2,0,0.3-0.1,0.3-0.3C100.6,275.1,100.4,274.9,100.3,274.9z"
	/>
<path d="M108.5,275h17c0.2,0,0.3-0.1,0.3-0.3c0-0.2-0.1-0.3-0.3-0.3l-17,0c-0.2,0-0.3,0.1-0.3,0.3C108.2,274.8,108.4,275,108.5,275z
	"/>
<path d="M125.5,279h-17c-0.2,0-0.3,0.1-0.3,0.3c0,0.2,0.1,0.3,0.3,0.3h17c0.2,0,0.3-0.1,0.3-0.3S125.7,279,125.5,279z"/>
<path d="M125.5,283.7h-17c-0.2,0-0.3,0.1-0.3,0.3c0,0.2,0.1,0.3,0.3,0.3h17c0.2,0,0.3-0.1,0.3-0.3
	C125.8,283.8,125.7,283.7,125.5,283.7z"/>
<path d="M209,248.4l-3.6,3.6v-3.6H209z M182.2,225.2h27.2v22.6H205c-0.2,0-0.3,0.1-0.3,0.3v4.3h-22.6L182.2,225.2z M209.7,224.6
	h-27.8c-0.2,0-0.3,0.1-0.3,0.3v27.8c0,0.2,0.1,0.3,0.3,0.3h23.2c0.1,0,0.2,0,0.2-0.1l4.6-4.6c0.1-0.1,0.1-0.1,0.1-0.2v-23.2
	C210,224.8,209.8,224.6,209.7,224.6L209.7,224.6z"/>
<path d="M111.7,398.2l-3.6,3.6v-3.6H111.7z M84.9,375h27.2v22.6h-4.3c-0.2,0-0.3,0.1-0.3,0.3v4.3H84.9L84.9,375z M112.4,374.4H84.6
	c-0.2,0-0.3,0.1-0.3,0.3v27.8c0,0.2,0.1,0.3,0.3,0.3h23.3c0.1,0,0.2,0,0.2-0.1l4.6-4.6c0.1-0.1,0.1-0.1,0.1-0.2v-23.2
	C112.7,374.5,112.6,374.4,112.4,374.4L112.4,374.4z"/>
<path d="M232,293.7l-3.6,3.6v-3.6H232z M205.2,287.4l2.5-2.5c0.1-0.1,0.1-0.1,0.1-0.2v-14.2h24.6v22.6h-4.3c-0.2,0-0.3,0.1-0.3,0.3
	v4.3h-22.6L205.2,287.4z M179.9,261.7h27.2v22.6h-4.3c-0.2,0-0.3,0.1-0.3,0.3v4.3h-22.6L179.9,261.7z M203.1,288.6v-3.6h3.6
	L203.1,288.6z M232.7,269.9h-24.9v-8.5c0-0.2-0.1-0.3-0.3-0.3l-27.8,0c-0.2,0-0.3,0.1-0.3,0.3v27.8c0,0.2,0.1,0.3,0.3,0.3h23.2
	c0.1,0,0.2,0,0.2-0.1l1.5-1.5v10c0,0.2,0.1,0.3,0.3,0.3h23.2c0.1,0,0.2,0,0.2-0.1l4.6-4.6c0.1-0.1,0.1-0.1,0.1-0.2v-23.2
	C233,270,232.8,269.9,232.7,269.9L232.7,269.9z"/>
<path d="M187.3,230.4h17c0.2,0,0.3-0.1,0.3-0.3s-0.1-0.3-0.3-0.3h-17c-0.2,0-0.3,0.1-0.3,0.3S187.1,230.4,187.3,230.4z"/>
<path d="M204.2,234.5h-17c-0.2,0-0.3,0.1-0.3,0.3s0.1,0.3,0.3,0.3h17c0.2,0,0.3-0.1,0.3-0.3C204.5,234.6,204.4,234.5,204.2,234.5
	L204.2,234.5z"/>
<path d="M204.2,239.1h-17c-0.2,0-0.3,0.1-0.3,0.3c0,0.2,0.1,0.3,0.3,0.3h17c0.2,0,0.3-0.1,0.3-0.3
	C204.5,239.3,204.4,239.1,204.2,239.1L204.2,239.1z"/>
<path d="M90,380.2h17c0.2,0,0.3-0.1,0.3-0.3c0-0.2-0.1-0.3-0.3-0.3l-17,0c-0.2,0-0.3,0.1-0.3,0.3C89.7,380,89.8,380.2,90,380.2z"/>
<path d="M107,384.2H90c-0.2,0-0.3,0.1-0.3,0.3c0,0.2,0.1,0.3,0.3,0.3h17c0.2,0,0.3-0.1,0.3-0.3C107.3,384.4,107.1,384.2,107,384.2z"
	/>
<path d="M107,388.9H90c-0.2,0-0.3,0.1-0.3,0.3s0.1,0.3,0.3,0.3h17c0.2,0,0.3-0.1,0.3-0.3S107.1,388.9,107,388.9z"/>
<path d="M185,266.9h17c0.2,0,0.3-0.1,0.3-0.3s-0.1-0.3-0.3-0.3l-17,0c-0.2,0-0.3,0.1-0.3,0.3C184.7,266.8,184.9,266.9,185,266.9
	L185,266.9z"/>
<path d="M202,271h-17c-0.2,0-0.3,0.1-0.3,0.3s0.1,0.3,0.3,0.3h17c0.2,0,0.3-0.1,0.3-0.3S202.2,271,202,271z"/>
<path d="M202,275.7h-17c-0.2,0-0.3,0.1-0.3,0.3s0.1,0.3,0.3,0.3h17c0.2,0,0.3-0.1,0.3-0.3C202.3,275.8,202.2,275.7,202,275.7z"/>
<path d="M210.3,275.7h17c0.2,0,0.3-0.1,0.3-0.3c0-0.2-0.1-0.3-0.3-0.3l-17,0c-0.2,0-0.3,0.1-0.3,0.3
	C210,275.5,210.1,275.7,210.3,275.7z"/>
<path d="M227.2,279.7h-17c-0.2,0-0.3,0.1-0.3,0.3c0,0.2,0.1,0.3,0.3,0.3h17c0.2,0,0.3-0.1,0.3-0.3S227.4,279.7,227.2,279.7z"/>
<path d="M227.2,284.4h-17c-0.2,0-0.3,0.1-0.3,0.3c0,0.2,0.1,0.3,0.3,0.3h17c0.2,0,0.3-0.1,0.3-0.3
	C227.6,284.6,227.4,284.4,227.2,284.4z"/>
<path d="M320.7,250.9l-3.6,3.6v-3.6H320.7z M293.9,227.7h27.2v22.6h-4.3c-0.2,0-0.3,0.1-0.3,0.3v4.3h-22.6L293.9,227.7z
	 M321.4,227.1h-27.8c-0.2,0-0.3,0.1-0.3,0.3v27.8c0,0.2,0.1,0.3,0.3,0.3h23.2c0.1,0,0.2,0,0.2-0.1l4.6-4.6c0.1-0.1,0.1-0.1,0.1-0.2
	v-23.2C321.7,227.2,321.6,227.1,321.4,227.1L321.4,227.1z"/>
<path d="M365.5,275.1l-3.6,3.6v-3.6H365.5z M338.7,251.9h27.2v22.6h-4.3c-0.2,0-0.3,0.1-0.3,0.3v4.3h-22.6L338.7,251.9z
	 M366.2,251.3h-27.8c-0.2,0-0.3,0.1-0.3,0.3v27.8c0,0.2,0.1,0.3,0.3,0.3h23.3c0.1,0,0.2,0,0.2-0.1l4.6-4.6c0.1-0.1,0.1-0.1,0.1-0.2
	v-23.3C366.5,251.4,366.4,251.3,366.2,251.3L366.2,251.3z"/>
<path d="M329.5,295.5l-3.6,3.6v-3.6H329.5z M302.7,289.1l2.5-2.5c0.1-0.1,0.1-0.1,0.1-0.2v-14.2h24.6v22.6h-4.3
	c-0.2,0-0.3,0.1-0.3,0.3v4.3h-22.6L302.7,289.1z M277.5,263.5h27.2v22.6h-4.3c-0.2,0-0.3,0.1-0.3,0.3v4.3h-22.6L277.5,263.5z
	 M300.7,290.3v-3.6h3.6L300.7,290.3z M330.2,271.6h-24.9v-8.5c0-0.2-0.1-0.3-0.3-0.3l-27.8,0c-0.2,0-0.3,0.1-0.3,0.3V291
	c0,0.2,0.1,0.3,0.3,0.3h23.2c0.1,0,0.2,0,0.2-0.1l1.5-1.5v10c0,0.2,0.1,0.3,0.3,0.3h23.2c0.1,0,0.2,0,0.2-0.1l4.6-4.6
	c0.1-0.1,0.1-0.1,0.1-0.2v-23.2C330.5,271.8,330.4,271.6,330.2,271.6L330.2,271.6z"/>
<path d="M299.1,232.8h17c0.2,0,0.3-0.1,0.3-0.3c0-0.2-0.1-0.3-0.3-0.3h-17c-0.2,0-0.3,0.1-0.3,0.3
	C298.7,232.7,298.9,232.8,299.1,232.8z"/>
<path d="M316,236.9h-17c-0.2,0-0.3,0.1-0.3,0.3c0,0.2,0.1,0.3,0.3,0.3h17c0.2,0,0.3-0.1,0.3-0.3C316.3,237.1,316.2,236.9,316,236.9
	L316,236.9z"/>
<path d="M316,241.6h-17c-0.2,0-0.3,0.1-0.3,0.3s0.1,0.3,0.3,0.3h17c0.2,0,0.3-0.1,0.3-0.3C316.3,241.7,316.2,241.6,316,241.6
	L316,241.6z"/>
<path d="M343.8,257.1h17c0.2,0,0.3-0.1,0.3-0.3c0-0.2-0.1-0.3-0.3-0.3l-17,0c-0.2,0-0.3,0.1-0.3,0.3
	C343.5,256.9,343.7,257.1,343.8,257.1z"/>
<path d="M360.8,261.1h-17c-0.2,0-0.3,0.1-0.3,0.3c0,0.2,0.1,0.3,0.3,0.3h17c0.2,0,0.3-0.1,0.3-0.3
	C361.1,261.3,361,261.1,360.8,261.1z"/>
<path d="M360.8,265.8h-17c-0.2,0-0.3,0.1-0.3,0.3s0.1,0.3,0.3,0.3h17c0.2,0,0.3-0.1,0.3-0.3S361,265.8,360.8,265.8z"/>
<path d="M282.6,268.7h17c0.2,0,0.3-0.1,0.3-0.3s-0.1-0.3-0.3-0.3l-17,0c-0.2,0-0.3,0.1-0.3,0.3C282.3,268.5,282.4,268.7,282.6,268.7
	L282.6,268.7z"/>
<path d="M299.6,272.7h-17c-0.2,0-0.3,0.1-0.3,0.3s0.1,0.3,0.3,0.3h17c0.2,0,0.3-0.1,0.3-0.3S299.7,272.7,299.6,272.7z"/>
<path d="M299.6,277.4h-17c-0.2,0-0.3,0.1-0.3,0.3s0.1,0.3,0.3,0.3h17c0.2,0,0.3-0.1,0.3-0.3C299.9,277.5,299.7,277.4,299.6,277.4z"
	/>
<path d="M307.8,277.4h17c0.2,0,0.3-0.1,0.3-0.3s-0.1-0.3-0.3-0.3l-17,0c-0.2,0-0.3,0.1-0.3,0.3C307.5,277.3,307.7,277.4,307.8,277.4
	z"/>
<path d="M324.8,281.5h-17c-0.2,0-0.3,0.1-0.3,0.3c0,0.2,0.1,0.3,0.3,0.3h17c0.2,0,0.3-0.1,0.3-0.3S325,281.5,324.8,281.5z"/>
<path d="M324.8,286.2h-17c-0.2,0-0.3,0.1-0.3,0.3c0,0.2,0.1,0.3,0.3,0.3h17c0.2,0,0.3-0.1,0.3-0.3
	C325.1,286.3,325,286.2,324.8,286.2z"/>
<path d="M111.7,430.6l-3.6,3.6v-3.6H111.7z M84.9,407.4h27.2v22.6h-4.3c-0.2,0-0.3,0.1-0.3,0.3v4.3H84.9L84.9,407.4z M112.4,406.7
	H84.6c-0.2,0-0.3,0.1-0.3,0.3v27.8c0,0.2,0.1,0.3,0.3,0.3h23.3c0.1,0,0.2,0,0.2-0.1l4.6-4.6c0.1-0.1,0.1-0.1,0.1-0.2v-23.2
	C112.7,406.9,112.6,406.7,112.4,406.7L112.4,406.7z"/>
<path d="M90,412.5h17c0.2,0,0.3-0.1,0.3-0.3c0-0.2-0.1-0.3-0.3-0.3l-17,0c-0.2,0-0.3,0.1-0.3,0.3C89.7,412.4,89.8,412.5,90,412.5z"
	/>
<path d="M107,416.6H90c-0.2,0-0.3,0.1-0.3,0.3c0,0.2,0.1,0.3,0.3,0.3h17c0.2,0,0.3-0.1,0.3-0.3C107.3,416.7,107.1,416.6,107,416.6z"
	/>
<path d="M107,421.3H90c-0.2,0-0.3,0.1-0.3,0.3s0.1,0.3,0.3,0.3h17c0.2,0,0.3-0.1,0.3-0.3S107.1,421.3,107,421.3z"/>
<path d="M111.7,464.7l-3.6,3.6v-3.6H111.7z M84.9,441.5h27.2v22.6h-4.3c-0.2,0-0.3,0.1-0.3,0.3v4.3H84.9L84.9,441.5z M112.4,440.9
	H84.6c-0.2,0-0.3,0.1-0.3,0.3V469c0,0.2,0.1,0.3,0.3,0.3h23.3c0.1,0,0.2,0,0.2-0.1l4.6-4.6c0.1-0.1,0.1-0.1,0.1-0.2v-23.2
	C112.7,441,112.6,440.9,112.4,440.9L112.4,440.9z"/>
<path d="M90,446.7h17c0.2,0,0.3-0.1,0.3-0.3c0-0.2-0.1-0.3-0.3-0.3l-17,0c-0.2,0-0.3,0.1-0.3,0.3C89.7,446.5,89.8,446.7,90,446.7z"
	/>
<path d="M107,450.7H90c-0.2,0-0.3,0.1-0.3,0.3c0,0.2,0.1,0.3,0.3,0.3h17c0.2,0,0.3-0.1,0.3-0.3C107.3,450.9,107.1,450.7,107,450.7z"
	/>
<path d="M107,455.4H90c-0.2,0-0.3,0.1-0.3,0.3s0.1,0.3,0.3,0.3h17c0.2,0,0.3-0.1,0.3-0.3S107.1,455.4,107,455.4z"/>
<path d="M278.8,296.3l-3.6,3.6v-3.6H278.8z M252,273.1h27.2v22.6h-4.3c-0.2,0-0.3,0.1-0.3,0.3v4.3H252L252,273.1z M279.5,272.5
	h-27.8c-0.2,0-0.3,0.1-0.3,0.3v27.8c0,0.2,0.1,0.3,0.3,0.3h23.3c0.1,0,0.2,0,0.2-0.1l4.6-4.6c0.1-0.1,0.1-0.1,0.1-0.2v-23.2
	C279.8,272.7,279.6,272.5,279.5,272.5L279.5,272.5z"/>
<path d="M257.1,278.3h17c0.2,0,0.3-0.1,0.3-0.3c0-0.2-0.1-0.3-0.3-0.3l-17,0c-0.2,0-0.3,0.1-0.3,0.3
	C256.8,278.2,256.9,278.3,257.1,278.3z"/>
<path d="M274.1,282.4h-17c-0.2,0-0.3,0.1-0.3,0.3c0,0.2,0.1,0.3,0.3,0.3h17c0.2,0,0.3-0.1,0.3-0.3
	C274.4,282.5,274.2,282.4,274.1,282.4z"/>
<path d="M274.1,287.1h-17c-0.2,0-0.3,0.1-0.3,0.3s0.1,0.3,0.3,0.3h17c0.2,0,0.3-0.1,0.3-0.3S274.2,287.1,274.1,287.1z"/>
<path d="M260.4,251.8l-3.6,3.6v-3.6H260.4z M233.6,228.6h27.2v22.6h-4.3c-0.2,0-0.3,0.1-0.3,0.3v4.3h-22.6L233.6,228.6z M261.1,228
	h-27.8c-0.2,0-0.3,0.1-0.3,0.3v27.8c0,0.2,0.1,0.3,0.3,0.3h23.3c0.1,0,0.2,0,0.2-0.1l4.6-4.6c0.1-0.1,0.1-0.1,0.1-0.2v-23.2
	C261.4,228.1,261.3,228,261.1,228L261.1,228z"/>
<path d="M238.7,233.8h17c0.2,0,0.3-0.1,0.3-0.3c0-0.2-0.1-0.3-0.3-0.3l-17,0c-0.2,0-0.3,0.1-0.3,0.3
	C238.4,233.6,238.5,233.8,238.7,233.8z"/>
<path d="M255.7,237.8h-17c-0.2,0-0.3,0.1-0.3,0.3c0,0.2,0.1,0.3,0.3,0.3h17c0.2,0,0.3-0.1,0.3-0.3C256,238,255.8,237.8,255.7,237.8z
	"/>
<path d="M255.7,242.5h-17c-0.2,0-0.3,0.1-0.3,0.3s0.1,0.3,0.3,0.3h17c0.2,0,0.3-0.1,0.3-0.3S255.8,242.5,255.7,242.5z"/>
<path d="M292.3,232.3l-3.6,3.6v-3.6H292.3z M265.5,209.1h27.2v22.6h-4.3c-0.2,0-0.3,0.1-0.3,0.3v4.3h-22.6L265.5,209.1z M293,208.5
	h-27.8c-0.2,0-0.3,0.1-0.3,0.3v27.8c0,0.2,0.1,0.3,0.3,0.3h23.3c0.1,0,0.2,0,0.2-0.1l4.6-4.6c0.1-0.1,0.1-0.1,0.1-0.2v-23.2
	C293.3,208.6,293.2,208.5,293,208.5L293,208.5z"/>
<path d="M270.6,214.3h17c0.2,0,0.3-0.1,0.3-0.3c0-0.2-0.1-0.3-0.3-0.3l-17,0c-0.2,0-0.3,0.1-0.3,0.3
	C270.3,214.1,270.5,214.3,270.6,214.3z"/>
<path d="M287.6,218.3h-17c-0.2,0-0.3,0.1-0.3,0.3c0,0.2,0.1,0.3,0.3,0.3h17c0.2,0,0.3-0.1,0.3-0.3
	C287.9,218.5,287.8,218.3,287.6,218.3z"/>
<path d="M287.6,223h-17c-0.2,0-0.3,0.1-0.3,0.3s0.1,0.3,0.3,0.3h17c0.2,0,0.3-0.1,0.3-0.3S287.8,223,287.6,223z"/>
<path d="M175,234.2l-3.6,3.6v-3.6H175z M148.2,211h27.2v22.6h-4.3c-0.2,0-0.3,0.1-0.3,0.3v4.3h-22.6L148.2,211z M175.7,210.4h-27.8
	c-0.2,0-0.3,0.1-0.3,0.3v27.8c0,0.2,0.1,0.3,0.3,0.3h23.3c0.1,0,0.2,0,0.2-0.1l4.6-4.6c0.1-0.1,0.1-0.1,0.1-0.2v-23.2
	C176,210.5,175.9,210.4,175.7,210.4L175.7,210.4z"/>
<path d="M153.3,216.2h17c0.2,0,0.3-0.1,0.3-0.3c0-0.2-0.1-0.3-0.3-0.3l-17,0c-0.2,0-0.3,0.1-0.3,0.3
	C153,216,153.2,216.2,153.3,216.2z"/>
<path d="M170.3,220.2h-17c-0.2,0-0.3,0.1-0.3,0.3c0,0.2,0.1,0.3,0.3,0.3h17c0.2,0,0.3-0.1,0.3-0.3
	C170.6,220.4,170.5,220.2,170.3,220.2z"/>
<path d="M170.3,224.9h-17c-0.2,0-0.3,0.1-0.3,0.3c0,0.2,0.1,0.3,0.3,0.3h17c0.2,0,0.3-0.1,0.3-0.3
	C170.6,225.1,170.5,224.9,170.3,224.9z"/>
<path d="M365.5,236.7l-3.6,3.6v-3.6H365.5z M338.7,213.5h27.2V236h-4.3c-0.2,0-0.3,0.1-0.3,0.3v4.3h-22.6L338.7,213.5z M366.2,212.9
	h-27.8c-0.2,0-0.3,0.1-0.3,0.3V241c0,0.2,0.1,0.3,0.3,0.3h23.3c0.1,0,0.2,0,0.2-0.1l4.6-4.6c0.1-0.1,0.1-0.1,0.1-0.2v-23.2
	C366.5,213,366.4,212.9,366.2,212.9L366.2,212.9z"/>
<path d="M343.8,218.6h17c0.2,0,0.3-0.1,0.3-0.3c0-0.2-0.1-0.3-0.3-0.3l-17,0c-0.2,0-0.3,0.1-0.3,0.3
	C343.5,218.5,343.7,218.6,343.8,218.6z"/>
<path d="M360.8,222.7h-17c-0.2,0-0.3,0.1-0.3,0.3c0,0.2,0.1,0.3,0.3,0.3h17c0.2,0,0.3-0.1,0.3-0.3
	C361.1,222.8,361,222.7,360.8,222.7z"/>
<path d="M360.8,227.4h-17c-0.2,0-0.3,0.1-0.3,0.3c0,0.2,0.1,0.3,0.3,0.3h17c0.2,0,0.3-0.1,0.3-0.3
	C361.1,227.5,361,227.4,360.8,227.4z"/>
<path d="M185.1,399.5l-3.6,3.6v-3.6H185.1z M158.3,376.3h27.2v22.6h-4.3c-0.2,0-0.3,0.1-0.3,0.3v4.3h-22.6L158.3,376.3z
	 M185.8,375.7H158c-0.2,0-0.3,0.1-0.3,0.3v27.8c0,0.2,0.1,0.3,0.3,0.3h23.3c0.1,0,0.2,0,0.2-0.1l4.6-4.6c0.1-0.1,0.1-0.1,0.1-0.2
	V376C186.1,375.8,186,375.7,185.8,375.7L185.8,375.7z"/>
<path d="M163.4,381.5h17c0.2,0,0.3-0.1,0.3-0.3c0-0.2-0.1-0.3-0.3-0.3l-17,0c-0.2,0-0.3,0.1-0.3,0.3
	C163.1,381.3,163.3,381.5,163.4,381.5z"/>
<path d="M180.4,385.5h-17c-0.2,0-0.3,0.1-0.3,0.3c0,0.2,0.1,0.3,0.3,0.3h17c0.2,0,0.3-0.1,0.3-0.3
	C180.7,385.7,180.6,385.5,180.4,385.5z"/>
<path d="M180.4,390.2h-17c-0.2,0-0.3,0.1-0.3,0.3s0.1,0.3,0.3,0.3h17c0.2,0,0.3-0.1,0.3-0.3S180.6,390.2,180.4,390.2z"/>
<path d="M185.1,431.8l-3.6,3.6v-3.6H185.1z M158.3,408.7h27.2v22.6h-4.3c-0.2,0-0.3,0.1-0.3,0.3v4.3h-22.6L158.3,408.7z M185.8,408
	H158c-0.2,0-0.3,0.1-0.3,0.3v27.8c0,0.2,0.1,0.3,0.3,0.3h23.3c0.1,0,0.2,0,0.2-0.1l4.6-4.6c0.1-0.1,0.1-0.1,0.1-0.2v-23.2
	C186.1,408.2,186,408,185.8,408L185.8,408z"/>
<path d="M163.4,413.8h17c0.2,0,0.3-0.1,0.3-0.3c0-0.2-0.1-0.3-0.3-0.3l-17,0c-0.2,0-0.3,0.1-0.3,0.3
	C163.1,413.7,163.3,413.8,163.4,413.8z"/>
<path d="M180.4,417.9h-17c-0.2,0-0.3,0.1-0.3,0.3c0,0.2,0.1,0.3,0.3,0.3h17c0.2,0,0.3-0.1,0.3-0.3
	C180.7,418,180.6,417.9,180.4,417.9z"/>
<path d="M180.4,422.6h-17c-0.2,0-0.3,0.1-0.3,0.3c0,0.2,0.1,0.3,0.3,0.3h17c0.2,0,0.3-0.1,0.3-0.3
	C180.7,422.7,180.6,422.6,180.4,422.6z"/>
<path d="M185.1,466l-3.6,3.6V466H185.1z M158.3,442.8h27.2v22.6h-4.3c-0.2,0-0.3,0.1-0.3,0.3v4.3h-22.6L158.3,442.8z M185.8,442.2
	H158c-0.2,0-0.3,0.1-0.3,0.3v27.8c0,0.2,0.1,0.3,0.3,0.3h23.3c0.1,0,0.2,0,0.2-0.1l4.6-4.6c0.1-0.1,0.1-0.1,0.1-0.2v-23.2
	C186.1,442.3,186,442.2,185.8,442.2L185.8,442.2z"/>
<path d="M163.4,448h17c0.2,0,0.3-0.1,0.3-0.3c0-0.2-0.1-0.3-0.3-0.3l-17,0c-0.2,0-0.3,0.1-0.3,0.3C163.1,447.8,163.3,448,163.4,448z
	"/>
<path d="M180.4,452h-17c-0.2,0-0.3,0.1-0.3,0.3c0,0.2,0.1,0.3,0.3,0.3h17c0.2,0,0.3-0.1,0.3-0.3C180.7,452.2,180.6,452,180.4,452z"
	/>
<path d="M180.4,456.7h-17c-0.2,0-0.3,0.1-0.3,0.3s0.1,0.3,0.3,0.3h17c0.2,0,0.3-0.1,0.3-0.3S180.6,456.7,180.4,456.7z"/>
<path d="M265.9,399.5l-3.6,3.6v-3.6H265.9z M239.1,376.3h27.2v22.6h-4.3c-0.2,0-0.3,0.1-0.3,0.3v4.3h-22.6L239.1,376.3z
	 M266.6,375.7h-27.8c-0.2,0-0.3,0.1-0.3,0.3v27.8c0,0.2,0.1,0.3,0.3,0.3H262c0.1,0,0.2,0,0.2-0.1l4.6-4.6c0.1-0.1,0.1-0.1,0.1-0.2
	V376C266.9,375.9,266.7,375.7,266.6,375.7L266.6,375.7z"/>
<path d="M244.2,381.5h17c0.2,0,0.3-0.1,0.3-0.3c0-0.2-0.1-0.3-0.3-0.3l-17,0c-0.2,0-0.3,0.1-0.3,0.3
	C243.9,381.3,244,381.5,244.2,381.5z"/>
<path d="M261.1,385.6h-17c-0.2,0-0.3,0.1-0.3,0.3c0,0.2,0.1,0.3,0.3,0.3h17c0.2,0,0.3-0.1,0.3-0.3
	C261.4,385.7,261.3,385.6,261.1,385.6z"/>
<path d="M261.1,390.2h-17c-0.2,0-0.3,0.1-0.3,0.3s0.1,0.3,0.3,0.3h17c0.2,0,0.3-0.1,0.3-0.3S261.3,390.2,261.1,390.2z"/>
<path d="M265.9,431.9l-3.6,3.6v-3.6H265.9z M239.1,408.7h27.2v22.6h-4.3c-0.2,0-0.3,0.1-0.3,0.3v4.3h-22.6L239.1,408.7z
	 M266.6,408.1h-27.8c-0.2,0-0.3,0.1-0.3,0.3v27.8c0,0.2,0.1,0.3,0.3,0.3H262c0.1,0,0.2,0,0.2-0.1l4.6-4.6c0.1-0.1,0.1-0.1,0.1-0.2
	v-23.2C266.9,408.2,266.7,408.1,266.6,408.1L266.6,408.1z"/>
<path d="M244.2,413.8h17c0.2,0,0.3-0.1,0.3-0.3c0-0.2-0.1-0.3-0.3-0.3l-17,0c-0.2,0-0.3,0.1-0.3,0.3
	C243.9,413.7,244,413.8,244.2,413.8z"/>
<path d="M261.1,417.9h-17c-0.2,0-0.3,0.1-0.3,0.3c0,0.2,0.1,0.3,0.3,0.3h17c0.2,0,0.3-0.1,0.3-0.3
	C261.4,418,261.3,417.9,261.1,417.9z"/>
<path d="M261.1,422.6h-17c-0.2,0-0.3,0.1-0.3,0.3s0.1,0.3,0.3,0.3h17c0.2,0,0.3-0.1,0.3-0.3S261.3,422.6,261.1,422.6z"/>
<path d="M265.9,466l-3.6,3.6V466H265.9z M239.1,442.8h27.2v22.6h-4.3c-0.2,0-0.3,0.1-0.3,0.3v4.3h-22.6L239.1,442.8z M266.6,442.2
	h-27.8c-0.2,0-0.3,0.1-0.3,0.3v27.8c0,0.2,0.1,0.3,0.3,0.3H262c0.1,0,0.2,0,0.2-0.1l4.6-4.6c0.1-0.1,0.1-0.1,0.1-0.2v-23.2
	C266.9,442.4,266.7,442.2,266.6,442.2L266.6,442.2z"/>
<path d="M244.2,448h17c0.2,0,0.3-0.1,0.3-0.3c0-0.2-0.1-0.3-0.3-0.3l-17,0c-0.2,0-0.3,0.1-0.3,0.3C243.9,447.9,244,448,244.2,448z"
	/>
<path d="M261.1,452.1h-17c-0.2,0-0.3,0.1-0.3,0.3c0,0.2,0.1,0.3,0.3,0.3h17c0.2,0,0.3-0.1,0.3-0.3
	C261.4,452.2,261.3,452.1,261.1,452.1z"/>
<path d="M261.1,456.8h-17c-0.2,0-0.3,0.1-0.3,0.3s0.1,0.3,0.3,0.3h17c0.2,0,0.3-0.1,0.3-0.3S261.3,456.8,261.1,456.8z"/>
<path d="M345,401l-3.6,3.6V401H345z M318.2,377.8h27.2v22.6h-4.3c-0.2,0-0.3,0.1-0.3,0.3v4.3h-22.6L318.2,377.8z M345.7,377.2h-27.8
	c-0.2,0-0.3,0.1-0.3,0.3v27.8c0,0.2,0.1,0.3,0.3,0.3h23.3c0.1,0,0.2,0,0.2-0.1l4.6-4.6c0.1-0.1,0.1-0.1,0.1-0.2v-23.2
	C346,377.3,345.9,377.2,345.7,377.2L345.7,377.2z"/>
<path d="M323.3,382.9h17c0.2,0,0.3-0.1,0.3-0.3c0-0.2-0.1-0.3-0.3-0.3l-17,0c-0.2,0-0.3,0.1-0.3,0.3
	C323,382.8,323.2,382.9,323.3,382.9z"/>
<path d="M340.3,387h-17c-0.2,0-0.3,0.1-0.3,0.3c0,0.2,0.1,0.3,0.3,0.3h17c0.2,0,0.3-0.1,0.3-0.3C340.6,387.1,340.5,387,340.3,387z"
	/>
<path d="M340.3,391.7h-17c-0.2,0-0.3,0.1-0.3,0.3s0.1,0.3,0.3,0.3h17c0.2,0,0.3-0.1,0.3-0.3S340.5,391.7,340.3,391.7z"/>
<path d="M345,433.3l-3.6,3.6v-3.6H345z M318.2,410.1h27.2v22.6h-4.3c-0.2,0-0.3,0.1-0.3,0.3v4.3h-22.6L318.2,410.1z M345.7,409.5
	h-27.8c-0.2,0-0.3,0.1-0.3,0.3v27.8c0,0.2,0.1,0.3,0.3,0.3h23.3c0.1,0,0.2,0,0.2-0.1l4.6-4.6c0.1-0.1,0.1-0.1,0.1-0.2v-23.2
	C346,409.7,345.9,409.5,345.7,409.5L345.7,409.5z"/>
<path d="M323.3,415.3h17c0.2,0,0.3-0.1,0.3-0.3c0-0.2-0.1-0.3-0.3-0.3l-17,0c-0.2,0-0.3,0.1-0.3,0.3
	C323,415.2,323.2,415.3,323.3,415.3z"/>
<path d="M340.3,419.4h-17c-0.2,0-0.3,0.1-0.3,0.3c0,0.2,0.1,0.3,0.3,0.3h17c0.2,0,0.3-0.1,0.3-0.3
	C340.6,419.5,340.5,419.4,340.3,419.4z"/>
<path d="M340.3,424h-17c-0.2,0-0.3,0.1-0.3,0.3c0,0.2,0.1,0.3,0.3,0.3h17c0.2,0,0.3-0.1,0.3-0.3C340.6,424.2,340.5,424,340.3,424z"
	/>
<path d="M345,467.5l-3.6,3.6v-3.6H345z M318.2,444.3h27.2v22.6h-4.3c-0.2,0-0.3,0.1-0.3,0.3v4.3h-22.6L318.2,444.3z M345.7,443.7
	h-27.8c-0.2,0-0.3,0.1-0.3,0.3v27.8c0,0.2,0.1,0.3,0.3,0.3h23.3c0.1,0,0.2,0,0.2-0.1l4.6-4.6c0.1-0.1,0.1-0.1,0.1-0.2V444
	C346,443.8,345.9,443.7,345.7,443.7L345.7,443.7z"/>
<path d="M323.3,449.5h17c0.2,0,0.3-0.1,0.3-0.3c0-0.2-0.1-0.3-0.3-0.3l-17,0c-0.2,0-0.3,0.1-0.3,0.3
	C323,449.3,323.2,449.5,323.3,449.5z"/>
<path d="M340.3,453.5h-17c-0.2,0-0.3,0.1-0.3,0.3c0,0.2,0.1,0.3,0.3,0.3h17c0.2,0,0.3-0.1,0.3-0.3
	C340.6,453.7,340.5,453.5,340.3,453.5z"/>
<path d="M340.3,458.2h-17c-0.2,0-0.3,0.1-0.3,0.3s0.1,0.3,0.3,0.3h17c0.2,0,0.3-0.1,0.3-0.3S340.5,458.2,340.3,458.2z"/>
<text transform="matrix(1 0 0 1 67.4092 352.0308)" font-family="'MyriadPro-Regular'" font-size="18">Step 3: Group details into different categories</text>
<text transform="matrix(1 0 0 1 67.4091 183.7003)" font-family="'MyriadPro-Regular'" font-size="18">Step 2: Observe details in an experience</text>
<text transform="matrix(1 0 0 1 67.4092 523.0302)"><tspan x="0" y="0" font-family="'MyriadPro-Regular'" font-size="18">Step 4: Form “How might we...?” questions from categories </tspan><tspan x="0" y="21.6" font-family="'MyriadPro-Regular'" font-size="18">onto original objective</tspan></text>
<text transform="matrix(1 0 0 1 67.4094 39.4227)" font-family="'MyriadPro-Regular'" font-size="18">Step 1: Define original objective</text>
<g>
	<path d="M148.4,72.6h-4.9v1.9h3.9v3.9h1.9v-4.9C149.3,73.1,148.9,72.6,148.4,72.6z"/>
	<path d="M92.8,74.6h3.9v-1.9h-4.9c-0.5,0-1,0.4-1,1v4.9h1.9V74.6z"/>
	<path d="M147.4,129.2h-3.9v1.9h4.9c0.5,0,1-0.4,1-1v-4.9h-1.9V129.2z"/>
	<path d="M91.8,131.1h4.9v-1.9h-3.9v-3.9h-1.9v4.9C90.9,130.7,91.3,131.1,91.8,131.1z"/>
	<path d="M121.1,126.2v-2.9h-1.9v2.9c-12.7-0.5-22.9-10.7-23.4-23.4h2.9v-1.9h-2.9c0.5-12.7,10.7-22.9,23.4-23.4v2.9h1.9v-2.9
		c12.7,0.5,22.9,10.7,23.4,23.4h-2.9v1.9h2.9C143.9,115.5,133.7,125.7,121.1,126.2z M121.1,75.6v-2.9h-1.9v2.9
		c-13.7,0.5-24.8,11.6-25.3,25.3h-2.9v1.9h2.9c0.5,13.7,11.6,24.8,25.3,25.3v2.9h1.9v-2.9c13.7-0.5,24.8-11.6,25.3-25.3h2.9v-1.9
		h-2.9C145.9,87.2,134.8,76.1,121.1,75.6z"/>
	<path d="M121.1,111.6v-8.7h8.7C129.3,107.4,125.7,111.1,121.1,111.6z M110.4,102.8h8.7v8.7C114.5,111.1,110.9,107.4,110.4,102.8z
		 M119.1,92.2v8.7h-8.7C110.9,96.3,114.5,92.6,119.1,92.2z M129.8,100.9h-8.7v-8.7C125.7,92.6,129.3,96.3,129.8,100.9z M121.1,90.2
		v-3h-1.9v3c-5.7,0.5-10.2,5-10.7,10.7h-3v1.9h3c0.5,5.7,5,10.2,10.7,10.7v3.9h1.9v-3.9c5.7-0.5,10.2-5,10.7-10.7h3v-1.9h-3
		C131.3,95.2,126.8,90.7,121.1,90.2z"/>
</g>
<g>
	<path d="M255.1,589.8h-3.7v1.5h2.9v2.9h1.5v-3.7C255.8,590.1,255.5,589.8,255.1,589.8z"/>
	<path d="M213.4,591.2h2.9v-1.5h-3.7c-0.4,0-0.7,0.3-0.7,0.7v3.7h1.5V591.2z"/>
	<path d="M254.3,632.2h-2.9v1.5h3.7c0.4,0,0.7-0.3,0.7-0.7v-3.7h-1.5V632.2z"/>
	<path d="M212.7,633.6h3.7v-1.5h-2.9v-2.9h-1.5v3.7C211.9,633.3,212.2,633.6,212.7,633.6z"/>
	<path d="M234.6,629.9v-2.2h-1.5v2.2c-9.5-0.4-17.2-8-17.5-17.5h2.2V611h-2.2c0.4-9.5,8-17.2,17.5-17.5v2.2h1.5v-2.2
		c9.5,0.4,17.2,8,17.5,17.5h-2.2v1.5h2.2C251.7,621.9,244.1,629.6,234.6,629.9z M234.6,592v-2.2h-1.5v2.2c-10.3,0.4-18.6,8.7-19,19
		h-2.2v1.5h2.2c0.4,10.3,8.7,18.6,19,19v2.2h1.5v-2.2c10.3-0.4,18.6-8.7,19-19h2.2V611h-2.2C253.2,600.7,244.9,592.3,234.6,592z"/>
	<path d="M234.6,619v-6.5h6.5C240.8,615.9,238,618.6,234.6,619z M226.6,612.4h6.5v6.5C229.7,618.6,226.9,615.9,226.6,612.4z
		 M233.1,604.4v6.5h-6.5C226.9,607.5,229.7,604.8,233.1,604.4z M241.1,611h-6.5v-6.5C238,604.8,240.8,607.5,241.1,611z M234.6,603
		v-2.2h-1.5v2.2c-4.3,0.4-7.7,3.8-8,8h-2.2v1.5h2.2c0.4,4.3,3.8,7.7,8,8v3h1.5v-3c4.3-0.4,7.7-3.8,8-8h2.2V611h-2.2
		C242.2,606.7,238.8,603.3,234.6,603z"/>
</g>
<path d="M109.3,598.2l-3,3v-3H109.3z M87,579h22.6v18.8H106c-0.1,0-0.3,0.1-0.3,0.3v3.6H87L87,579z M109.8,578.4H86.7
	c-0.1,0-0.3,0.1-0.3,0.3v23.1c0,0.1,0.1,0.3,0.3,0.3h19.3c0.1,0,0.1,0,0.2-0.1l3.8-3.8c0-0.1,0.1-0.1,0.1-0.2v-19.3
	C110.1,578.6,110,578.4,109.8,578.4L109.8,578.4z"/>
<path d="M91.2,583.2h14.1c0.1,0,0.3-0.1,0.3-0.3c0-0.1-0.1-0.3-0.3-0.3l-14.1,0c-0.1,0-0.3,0.1-0.3,0.3
	C91,583.1,91.1,583.2,91.2,583.2z"/>
<path d="M105.3,586.6H91.2c-0.1,0-0.3,0.1-0.3,0.3c0,0.1,0.1,0.3,0.3,0.3h14.1c0.1,0,0.3-0.1,0.3-0.3
	C105.6,586.7,105.5,586.6,105.3,586.6z"/>
<path d="M105.3,590.5H91.2c-0.1,0-0.3,0.1-0.3,0.3c0,0.1,0.1,0.3,0.3,0.3h14.1c0.1,0,0.3-0.1,0.3-0.3S105.5,590.5,105.3,590.5z"/>
<path d="M109.3,625.1l-3,3v-3H109.3z M87,605.8h22.6v18.8H106c-0.1,0-0.3,0.1-0.3,0.3v3.6H87L87,605.8z M109.8,605.3H86.7
	c-0.1,0-0.3,0.1-0.3,0.3v23.1c0,0.1,0.1,0.3,0.3,0.3h19.3c0.1,0,0.1,0,0.2-0.1l3.8-3.8c0-0.1,0.1-0.1,0.1-0.2v-19.3
	C110.1,605.4,110,605.3,109.8,605.3L109.8,605.3z"/>
<path d="M91.2,610.1h14.1c0.1,0,0.3-0.1,0.3-0.3c0-0.1-0.1-0.3-0.3-0.3l-14.1,0c-0.1,0-0.3,0.1-0.3,0.3
	C91,610,91.1,610.1,91.2,610.1z"/>
<path d="M105.3,613.5H91.2c-0.1,0-0.3,0.1-0.3,0.3c0,0.1,0.1,0.3,0.3,0.3h14.1c0.1,0,0.3-0.1,0.3-0.3
	C105.6,613.6,105.5,613.5,105.3,613.5z"/>
<path d="M105.3,617.4H91.2c-0.1,0-0.3,0.1-0.3,0.3c0,0.1,0.1,0.3,0.3,0.3h14.1c0.1,0,0.3-0.1,0.3-0.3
	C105.6,617.5,105.5,617.4,105.3,617.4z"/>
<path d="M109.3,653.5l-3,3v-3H109.3z M87,634.2h22.6V653H106c-0.1,0-0.3,0.1-0.3,0.3v3.6H87L87,634.2z M109.8,633.7H86.7
	c-0.1,0-0.3,0.1-0.3,0.3v23.1c0,0.1,0.1,0.3,0.3,0.3h19.3c0.1,0,0.1,0,0.2-0.1l3.8-3.8c0-0.1,0.1-0.1,0.1-0.2V634
	C110.1,633.8,110,633.7,109.8,633.7L109.8,633.7z"/>
<path d="M91.2,638.5h14.1c0.1,0,0.3-0.1,0.3-0.3c0-0.1-0.1-0.3-0.3-0.3l-14.1,0c-0.1,0-0.3,0.1-0.3,0.3
	C91,638.4,91.1,638.5,91.2,638.5z"/>
<path d="M105.3,641.9H91.2c-0.1,0-0.3,0.1-0.3,0.3c0,0.1,0.1,0.3,0.3,0.3h14.1c0.1,0,0.3-0.1,0.3-0.3
	C105.6,642,105.5,641.9,105.3,641.9z"/>
<path d="M105.3,645.8H91.2c-0.1,0-0.3,0.1-0.3,0.3c0,0.1,0.1,0.3,0.3,0.3h14.1c0.1,0,0.3-0.1,0.3-0.3
	C105.6,645.9,105.5,645.8,105.3,645.8z"/>
<polygon fill="#050606" points="177.7,623.9 194.7,606.8 194.7,606.8 177.7,589.8 169.1,589.8 186.2,606.8 169.1,623.9 "/>
<polygon fill="#050606" points="162,603.8 186.2,603.8 186.2,609.9 156,609.9 156,609.9 "/>
<polygon fill="#050606" points="146.2,603.8 129.1,620.9 129.1,620.9 146.2,638 154.7,638 137.6,620.9 154.7,603.8 "/>
<polygon fill="#050606" points="161.8,623.9 137.6,623.9 137.6,617.9 167.8,617.9 167.8,617.9 "/>
<g>
	<text transform="matrix(1 0 0 1 67.4091 719.8276)" font-family="'MyriadPro-Regular'" font-size="18">Step 5: Work out the full idea</text>
</g>
<path d="M83.8,747.6c0.1,0.2,0.2,0.2,0.4,0.2c0.2,0,0.3-0.1,0.4-0.2c0.2-0.2,0.2-0.6,0-0.9l-1.2-1.2c-0.2-0.2-0.6-0.2-0.9,0
	s-0.2,0.6,0,0.9L83.8,747.6z"/>
<path d="M87.9,751.8c0.1,0.1,0.2,0.2,0.4,0.2s0.3-0.1,0.4-0.2c0.2-0.2,0.2-0.6,0-0.9l-1.2-1.2c-0.2-0.2-0.6-0.2-0.9,0
	c-0.2,0.2-0.2,0.6,0,0.9L87.9,751.8z"/>
<path d="M82.9,751.9c0.2,0,0.3-0.1,0.4-0.2l1.2-1.2c0.2-0.2,0.2-0.6,0-0.9s-0.6-0.2-0.9,0l-1.2,1.2c-0.2,0.2-0.2,0.6,0,0.9
	C82.6,751.9,82.8,751.9,82.9,751.9L82.9,751.9z"/>
<path d="M87.1,747.7c0.2,0,0.3-0.1,0.4-0.2l1.2-1.2c0.2-0.2,0.2-0.6,0-0.9c-0.2-0.2-0.6-0.2-0.9,0l-1.2,1.2c-0.2,0.2-0.2,0.6,0,0.9
	C86.8,747.7,86.9,747.7,87.1,747.7L87.1,747.7z"/>
<path d="M158.2,830.9c-0.2-0.2-0.6-0.2-0.9,0c-0.2,0.2-0.2,0.6,0,0.9l1.2,1.2c0.1,0.1,0.2,0.2,0.4,0.2c0.2,0,0.3-0.1,0.4-0.2
	c0.2-0.2,0.2-0.6,0-0.9L158.2,830.9z"/>
<path d="M162.4,835.1c-0.2-0.2-0.6-0.2-0.9,0c-0.2,0.2-0.2,0.6,0,0.9l1.2,1.2c0.1,0.1,0.2,0.2,0.4,0.2s0.3-0.1,0.4-0.2
	c0.2-0.2,0.2-0.6,0-0.9L162.4,835.1z"/>
<path d="M158.6,835.1l-1.2,1.2c-0.2,0.2-0.2,0.6,0,0.9c0.1,0.1,0.2,0.2,0.4,0.2c0.2,0,0.3-0.1,0.4-0.2l1.2-1.2
	c0.2-0.2,0.2-0.6,0-0.9C159.3,834.8,158.9,834.8,158.6,835.1L158.6,835.1z"/>
<path d="M162.9,830.9l-1.2,1.2c-0.2,0.2-0.2,0.6,0,0.9c0.1,0.1,0.2,0.2,0.4,0.2c0.2,0,0.3-0.1,0.4-0.2l1.2-1.2
	c0.2-0.2,0.2-0.6,0-0.9C163.4,830.7,163.1,830.7,162.9,830.9L162.9,830.9z"/>
<path d="M132.7,818.6c-0.2-0.2-0.6-0.2-0.9,0s-0.2,0.6,0,0.9l1.2,1.2c0.1,0.1,0.2,0.2,0.4,0.2c0.2,0,0.3-0.1,0.4-0.2
	c0.2-0.2,0.2-0.6,0-0.9L132.7,818.6z"/>
<path d="M136.8,822.7c-0.2-0.2-0.6-0.2-0.9,0c-0.2,0.2-0.2,0.6,0,0.9l1.2,1.2c0.1,0.1,0.2,0.2,0.4,0.2s0.3-0.1,0.4-0.2
	c0.2-0.2,0.2-0.6,0-0.9L136.8,822.7z"/>
<path d="M133.2,822.7l-1.2,1.2c-0.2,0.2-0.2,0.6,0,0.9c0.1,0.1,0.2,0.2,0.4,0.2s0.3-0.1,0.4-0.2l1.2-1.2c0.2-0.2,0.2-0.6,0-0.9
	C133.8,822.5,133.4,822.5,133.2,822.7L133.2,822.7z"/>
<path d="M137.3,818.6l-1.2,1.2c-0.2,0.2-0.2,0.6,0,0.9c0.1,0.1,0.2,0.2,0.4,0.2c0.2,0,0.3-0.1,0.4-0.2l1.2-1.2
	c0.2-0.2,0.2-0.6,0-0.9C137.9,818.3,137.6,818.3,137.3,818.6L137.3,818.6z"/>
<path d="M84,783v9.5c0,0.3,0.2,0.6,0.6,0.6c0.3,0,0.6-0.2,0.6-0.6V783c0-0.3-0.2-0.6-0.6-0.6C84.2,782.3,84,782.6,84,783z"/>
<path d="M84.5,796.2c-0.3,0-0.6,0.2-0.6,0.6v3.4c0,0.3,0.2,0.6,0.6,0.6c0.3,0,0.6-0.2,0.6-0.6v-3.4
	C85.1,796.5,84.8,796.2,84.5,796.2z"/>
<path d="M172.8,802.3c-0.3,0-0.6,0.2-0.6,0.6v9.5c0,0.3,0.2,0.6,0.6,0.6c0.3,0,0.6-0.2,0.6-0.6v-9.5
	C173.4,802.5,173.1,802.3,172.8,802.3L172.8,802.3z"/>
<path d="M172.8,816.1c-0.3,0-0.6,0.2-0.6,0.6v3.4c0,0.3,0.2,0.6,0.6,0.6c0.3,0,0.6-0.2,0.6-0.6v-3.4
	C173.4,816.4,173.1,816.1,172.8,816.1z"/>
<path d="M107.7,809.4c-0.9,0-1.6-0.7-1.6-1.6c0-0.9,0.7-1.6,1.6-1.6c0.9,0,1.6,0.7,1.6,1.6C109.3,808.7,108.6,809.4,107.7,809.4z
	 M107.7,805.1c-1.6,0-2.8,1.2-2.8,2.8s1.2,2.8,2.8,2.8s2.8-1.2,2.8-2.8S109.3,805.1,107.7,805.1z"/>
<path d="M167,767c-0.9,0-1.6-0.7-1.6-1.6c0-0.9,0.7-1.6,1.6-1.6c0.9,0,1.6,0.7,1.6,1.6S167.9,767,167,767z M167,762.6
	c-1.6,0-2.8,1.2-2.8,2.8s1.2,2.8,2.8,2.8s2.8-1.2,2.8-2.8C169.8,763.9,168.6,762.6,167,762.6z"/>
<path d="M98.6,820.8c0-0.3-0.2-0.6-0.6-0.6H85.7c-0.3,0-0.6,0.2-0.6,0.6c0,0.3,0.2,0.6,0.6,0.6H98C98.3,821.3,98.6,821.1,98.6,820.8
	L98.6,820.8z"/>
<path d="M81.6,820.1h-4c-0.3,0-0.6,0.2-0.6,0.6c0,0.3,0.2,0.6,0.6,0.6h4c0.3,0,0.6-0.2,0.6-0.6C82.2,820.5,81.9,820.1,81.6,820.1z"
	/>
<path d="M77.6,817.1h8.6c0.3,0,0.6-0.2,0.6-0.6c0-0.3-0.2-0.6-0.6-0.6h-8.6c-0.3,0-0.6,0.2-0.6,0.6S77.2,817.1,77.6,817.1z"/>
<path d="M89.9,817.1h2.8c0.3,0,0.6-0.2,0.6-0.6c0-0.3-0.2-0.6-0.6-0.6h-2.8c-0.3,0-0.6,0.2-0.6,0.6
	C89.3,816.9,89.6,817.1,89.9,817.1z"/>
<path d="M155.2,747.1h12.3c0.3,0,0.6-0.2,0.6-0.6c0-0.3-0.2-0.6-0.6-0.6h-12.3c-0.3,0-0.6,0.2-0.6,0.6
	C154.7,746.9,154.9,747.1,155.2,747.1z"/>
<path d="M171.6,747.1h4c0.3,0,0.6-0.2,0.6-0.6c0-0.3-0.2-0.6-0.6-0.6h-4c-0.3,0-0.6,0.2-0.6,0.6
	C171.1,746.9,171.3,747.1,171.6,747.1z"/>
<path d="M175.6,750.1H167c-0.3,0-0.6,0.2-0.6,0.6c0,0.3,0.2,0.6,0.6,0.6h8.6c0.3,0,0.6-0.2,0.6-0.6
	C176.2,750.5,176,750.1,175.6,750.1z"/>
<path d="M160.5,750.1c-0.3,0-0.6,0.2-0.6,0.6c0,0.3,0.2,0.6,0.6,0.6h2.8c0.3,0,0.6-0.2,0.6-0.6c0-0.3-0.2-0.6-0.6-0.6H160.5z"/>
<path d="M123.7,752.6c0.3,0,0.6-0.2,0.6-0.6v-9.2c0-0.3-0.2-0.6-0.6-0.6c-0.3,0-0.6,0.2-0.6,0.6v9.2
	C123.2,752.3,123.4,752.6,123.7,752.6z"/>
<path d="M112,755.4c0.1,0.2,0.3,0.3,0.5,0.3c0.1,0,0.2,0,0.3-0.1c0.3-0.2,0.4-0.5,0.2-0.8l-4.7-8c-0.2-0.3-0.5-0.4-0.8-0.2
	c-0.3,0.2-0.4,0.5-0.2,0.8L112,755.4z"/>
<path d="M96.1,759.1l8,4.5c0.1,0.1,0.2,0.1,0.3,0.1c0.2,0,0.4-0.1,0.5-0.3c0.2-0.3,0.1-0.6-0.2-0.8l-8-4.5c-0.3-0.2-0.6-0.1-0.8,0.2
	S95.9,759,96.1,759.1L96.1,759.1z"/>
<path d="M92.4,774.9l9.2-0.1c0.3,0,0.6-0.2,0.5-0.6c0-0.3-0.2-0.5-0.6-0.5l-9.2,0.1c-0.3,0-0.6,0.2-0.5,0.6
	C91.8,774.6,92.1,774.9,92.4,774.9z"/>
<path d="M104.3,784.8l-8,4.6c-0.3,0.2-0.4,0.5-0.2,0.8c0.1,0.2,0.3,0.3,0.5,0.3c0.1,0,0.2,0,0.3-0.1l8-4.6c0.3-0.2,0.4-0.5,0.2-0.8
	C105,784.7,104.6,784.6,104.3,784.8L104.3,784.8z"/>
<path d="M117.9,752.6c0.1,0.2,0.3,0.4,0.5,0.4h0.2c0.3-0.1,0.5-0.4,0.4-0.7l-1.6-5.3c-0.1-0.3-0.4-0.5-0.7-0.4s-0.5,0.4-0.4,0.7
	L117.9,752.6z"/>
<path d="M108,758.4c0.1,0.1,0.2,0.2,0.4,0.2c0.2,0,0.3-0.1,0.5-0.2c0.2-0.2,0.2-0.6,0-0.9l-4.1-3.8c-0.2-0.2-0.6-0.2-0.9,0
	c-0.2,0.2-0.2,0.6,0,0.9L108,758.4z"/>
<path d="M102.9,768c0.1-0.3-0.2-0.6-0.5-0.7l-5.4-1.2c-0.3-0.1-0.6,0.2-0.7,0.5c-0.1,0.3,0.2,0.6,0.5,0.7l5.4,1.2h0.2
	C102.7,768.5,102.9,768.3,102.9,768L102.9,768z"/>
<path d="M96.7,780.5c-0.3,0.1-0.5,0.4-0.4,0.7c0.1,0.2,0.3,0.4,0.5,0.4H97l5.3-1.7c0.3-0.1,0.5-0.4,0.4-0.7
	c-0.1-0.3-0.4-0.5-0.7-0.4L96.7,780.5z"/>
<path d="M107.3,789.1l-3.8,4.1c-0.2,0.2-0.2,0.6,0.1,0.9c0.1,0.1,0.2,0.2,0.4,0.2c0.2,0,0.3-0.1,0.5-0.2l3.8-4.1
	c0.2-0.2,0.2-0.6-0.1-0.9C107.9,788.9,107.5,788.9,107.3,789.1L107.3,789.1z"/>
<path d="M134.7,755.5c0.1,0.1,0.2,0.1,0.3,0.1c0.2,0,0.4-0.1,0.5-0.3l4.7-8c0.2-0.3,0.1-0.6-0.2-0.8c-0.3-0.2-0.6-0.1-0.8,0.2
	l-4.7,8C134.3,755.1,134.4,755.4,134.7,755.5L134.7,755.5z"/>
<path d="M128.8,753h0.2c0.2,0,0.5-0.2,0.5-0.4l1.6-5.3c0.1-0.3-0.1-0.6-0.4-0.7c-0.3-0.1-0.6,0.1-0.7,0.4l-1.6,5.3
	C128.3,752.6,128.5,753,128.8,753L128.8,753z"/>
<path d="M138.7,758.4c0.1,0.2,0.3,0.2,0.5,0.2s0.3-0.1,0.4-0.2l4.1-3.8c0.2-0.2,0.2-0.6,0-0.9c-0.2-0.2-0.6-0.2-0.9,0l-4.1,3.8
	C138.5,757.8,138.5,758.2,138.7,758.4L138.7,758.4z"/>
<path d="M118.3,782.5c-0.4,0-0.8,0-1.1-0.1c-0.7-0.2-1-0.9-0.9-1.6c0-0.2,0.1-0.7,0.5-0.8c0.2,0,0.5,0.1,0.9,0.7
	C117.8,781.2,118,781.8,118.3,782.5L118.3,782.5z M129.3,782.5c0.2-0.7,0.5-1.3,0.6-1.8c0.3-0.8,0.9-0.7,0.9-0.7
	c0.5,0.1,0.5,0.6,0.5,0.8c0.1,0.6-0.2,1.4-0.9,1.6C130.1,782.5,129.7,782.6,129.3,782.5L129.3,782.5z M139.1,772.6
	c0.2,3-0.5,5.9-2,8.4v0.1c-0.2,0.2-0.2,0.5-0.4,0.7c-2.5,4.2-4.3,9-5.5,14h-4.6c0.3-2.1,1.2-8,2.4-12.1c0.6,0.1,1.2,0.1,1.8-0.1
	c1.3-0.4,1.9-1.7,1.8-2.8c-0.1-1-0.7-1.7-1.6-1.9c-0.5-0.1-1.6,0.2-2.1,1.4c-0.2,0.5-0.5,1.2-0.7,2c-1.2-0.3-2.6-1-3.4-1.6
	c0.6-0.5,1.5-1.4,1.6-2.6c0.1-1.3-0.5-2.9-2.2-3.1h-0.7c-1.6,0.3-2.3,1.9-2.2,3.1c0.1,1.2,0.9,2,1.6,2.6c-0.9,0.6-2.2,1.3-3.4,1.6
	c-0.2-0.8-0.5-1.5-0.7-2c-0.5-1.2-1.6-1.5-2.1-1.4c-0.9,0.1-1.5,0.9-1.6,1.9c-0.1,1.1,0.5,2.4,1.8,2.8c0.5,0.2,1.2,0.2,1.8,0.1
	c1.1,4,2.1,9.9,2.4,12.1h-4.6c-1.1-4.8-2.8-9.2-5.1-13.3c-0.4-0.7-0.9-1.4-1.2-2.1c0,0,0-0.1-0.1-0.1c-1-2.1-1.6-4.5-1.6-6.8
	c0-4.2,1.8-8.4,4.9-11.2c3.1-3,7.3-4.4,11.6-4.1c2.9,0.2,5.6,1.2,7.9,2.8c0.1,0.1,0.2,0.2,0.2,0.2
	C136.5,763.7,138.9,767.9,139.1,772.6L139.1,772.6z M128.1,803.7h-8.7c-0.9,0-1.6-0.5-2-1.2c-0.1-0.5-0.2-1-0.2-1.5h13
	c-0.1,0.4-0.1,0.8-0.2,1.2C129.9,803,129.1,803.7,128.1,803.7L128.1,803.7z M123.8,807.3c-2,0-3.7-1-4.1-2.4h8
	C127.5,806.2,125.8,807.3,123.8,807.3z M121.3,796.9c0.2,0.1,0.2,0.2,0.4,0.1c0.1,0,0.2-0.1,0.2-0.1h3.6c0.1,0.1,0.2,0.1,0.2,0.1
	h0.1c0.2,0,0.2-0.1,0.3-0.1h4.7c-0.2,0.9-0.3,1.6-0.5,2.5c0,0.1,0,0.2-0.1,0.3h-13.1c-0.1-0.6-0.2-1.2-0.3-1.8l-0.2-0.9L121.3,796.9
	z M122.4,778c0-0.1-0.2-1.6,1.2-1.9h0.4c1.3,0.2,1.2,1.8,1.2,1.9c-0.1,0.8-0.9,1.6-1.4,2C123.3,779.5,122.5,778.8,122.4,778
	L122.4,778z M123.8,781.4c1,0.8,2.5,1.6,4.1,2c-1.2,4.2-2.1,10.3-2.4,12.3h-3.3c-0.3-2-1.2-8.1-2.4-12.3
	C121.3,783,122.8,782.3,123.8,781.4z M162.9,783.6c-0.5-1-0.8-2-1-3.1l-0.8-4.4c-0.5-2.7-1.9-5.5-4.1-8c-6.7-7.8-15.5-8.2-15.9-8.2
	h-7.8c-2.4-1.7-5.3-2.8-8.4-3c-4.7-0.3-9.1,1.2-12.5,4.5c-3.4,3.1-5.2,7.6-5.2,12.1c0,2.6,0.5,5.1,1.7,7.3v0.1
	c0.4,0.8,0.8,1.5,1.3,2.2c2.6,4.5,4.4,9.6,5.4,15c0.3,1.5,0.5,3,0.7,4.5v0.2c0.4,1,1.2,1.7,2.2,2c0.2,1.5,1.4,2.7,3,3.3v1.5
	c0,0.3,0.2,0.6,0.6,0.6c0.3,0,0.6-0.2,0.6-0.6v-1.2c0.3,0.1,0.7,0.1,1,0.1c0.7,0,1.4-0.1,2-0.3v28.2c0,1.8-1.5,3.3-3.3,3.3H92.1
	c-0.3,0-0.6,0.2-0.6,0.6c0,0.3,0.2,0.6,0.6,0.6h30.5c2.5,0,4.5-2,4.5-4.5V808c0-0.1-0.1-0.2-0.1-0.3c1.2-0.7,2-1.7,2.1-2.9
	c1.1-0.3,2-1.2,2.3-2.4c0.1-0.9,0.2-1.8,0.4-2.7c1-6.2,3.1-12.2,6.1-17.3c0.2-0.2,0.2-0.4,0.4-0.6c0,0,0-0.1,0.1-0.1
	c1.6-2.7,2.3-5.9,2.1-9.1c-0.2-4.5-2.3-8.7-5.5-11.5h6.3c0.1,0,8.6,0.4,15,7.8c2,2.3,3.4,4.9,3.8,7.4l0.8,4.4
	c0.2,1.2,0.5,2.3,1.1,3.4l4.9,10.2c0.2,0.3,0.2,0.7-0.1,1.1c-0.2,0.3-0.5,0.5-0.9,0.5h-4.1c-0.3,0-0.6,0.2-0.6,0.6v9.1
	c0,0.2-0.6,4.8-5.8,5.2h-8.2c-0.3,0-0.6,0.2-0.6,0.6c0,0.3,0.2,0.6,0.6,0.6h2.1v11.2c0,0.3,0.2,0.6,0.6,0.6c0.3,0,0.6-0.2,0.6-0.6
	V812h5c6.2-0.3,7-6.1,7-6.2v-8.7h3.5c0.8,0,1.5-0.4,2-1.1c0.4-0.7,0.5-1.5,0.2-2.2L162.9,783.6z"/>
<path d="M122.2,813.3c0.3,0,0.6-0.2,0.6-0.6v-0.4c0-0.3-0.2-0.6-0.6-0.6c-0.3,0-0.6,0.2-0.6,0.6v0.4
	C121.5,813,121.8,813.3,122.2,813.3z"/>
<path d="M121.5,821.6c0,0.3,0.2,0.6,0.6,0.6c0.3,0,0.6-0.2,0.6-0.6v-2.8v-0.2v-0.2v-2.8c0-0.3-0.2-0.6-0.6-0.6
	c-0.3,0-0.6,0.2-0.6,0.6v2.8v0.2v0.2V821.6z"/>
<path d="M92.6,836.1c0.3,0,0.6-0.2,0.6-0.6c0-0.3-0.2-0.6-0.6-0.6h-2.8h-0.2h-0.2h-1.6c-0.3,0-0.6,0.2-0.6,0.6
	c0,0.3,0.2,0.6,0.6,0.6h1.6h0.2h0.2H92.6z"/>
<path d="M121.5,824.8c0,0.3,0.2,0.6,0.6,0.6c0.3,0,0.6-0.2,0.6-0.6v-0.4c0-0.3-0.2-0.6-0.6-0.6c-0.3,0-0.6,0.2-0.6,0.6V824.8z"/>
<path d="M101.8,834.9h-0.2h-0.2h-2.8c-0.3,0-0.6,0.2-0.6,0.6c0,0.3,0.2,0.6,0.6,0.6h2.8h0.2h0.2h2.9c0.3,0,0.6-0.2,0.6-0.6
	c0-0.3-0.2-0.6-0.6-0.6H101.8z"/>
<path d="M121.5,833c0,0.2,0,0.3-0.1,0.5c-0.1,0.3,0.1,0.6,0.4,0.7h0.2c0.2,0,0.5-0.2,0.5-0.4s0.1-0.5,0.1-0.9v-2.2v-0.2v-0.2v-2.8
	c0-0.3-0.2-0.6-0.6-0.6c-0.3,0-0.6,0.2-0.6,0.6v2.8v0.2v0.2v2.3L121.5,833z"/>
<path d="M120.1,836.1c0.3-0.1,0.5-0.3,0.5-0.6c-0.1-0.3-0.3-0.5-0.6-0.5h-0.3c-0.3,0-0.5,0.2-0.5,0.6c0,0.3,0.3,0.6,0.6,0.6
	C119.8,836.1,120,836.1,120.1,836.1L120.1,836.1z"/>
<path d="M95.4,834.9c-0.3,0-0.6,0.2-0.6,0.6c0,0.3,0.2,0.6,0.6,0.6h0.4c0.3,0,0.6-0.2,0.6-0.6c0-0.3-0.2-0.6-0.6-0.6H95.4z"/>
<path d="M107.6,834.9c-0.3,0-0.6,0.2-0.6,0.6c0,0.3,0.2,0.6,0.6,0.6h0.4c0.3,0,0.6-0.2,0.6-0.6c0-0.3-0.2-0.6-0.6-0.6H107.6z"/>
<path d="M110.8,836.1h2.8h0.2h0.2h2.8c0.3,0,0.6-0.2,0.6-0.6c0-0.3-0.2-0.6-0.6-0.6h-2.8h-0.2h-0.2h-2.8c-0.3,0-0.6,0.2-0.6,0.6
	C110.2,835.8,110.4,836.1,110.8,836.1z"/>
<path d="M143.5,836c-0.3,0-0.6,0.2-0.6,0.6v1.6c0,0.3,0.2,0.6,0.6,0.6c0.3,0,0.6-0.2,0.6-0.6v-1.6C144.1,836.3,143.8,836,143.5,836z
	"/>
<path d="M143.5,822.3c-0.3,0-0.6,0.2-0.6,0.6v0.4c0,0.3,0.2,0.6,0.6,0.6c0.3,0,0.6-0.2,0.6-0.6V823
	C144.1,822.6,143.8,822.3,143.5,822.3z"/>
<path d="M143.5,815.6c-0.3,0-0.6,0.2-0.6,0.6v1.6v0.2v0.2v3.1c0,0.3,0.2,0.6,0.6,0.6c0.3,0,0.6-0.2,0.6-0.6v-3.1V818v-0.2v-1.6
	C144.1,815.9,143.8,815.6,143.5,815.6z"/>
<path d="M143.5,832.5c-0.3,0-0.6,0.2-0.6,0.6v0.4c0,0.3,0.2,0.6,0.6,0.6c0.3,0,0.6-0.2,0.6-0.6v-0.4
	C144.1,832.7,143.8,832.5,143.5,832.5z"/>
<path d="M143.5,825.8c-0.3,0-0.6,0.2-0.6,0.6v1.6v0.2v0.2v3.1c0,0.3,0.2,0.6,0.6,0.6c0.3,0,0.6-0.2,0.6-0.6v-3.1v-0.2V828v-1.6
	C144.1,826.1,143.8,825.8,143.5,825.8z"/>
<path d="M157.1,782.3C157.1,782.3,157.2,782.3,157.1,782.3c0.3,0,0.6-0.2,0.6-0.5c0.7-10.6-8.5-14.9-8.6-14.9
	c-0.3-0.2-0.6,0-0.8,0.3s0,0.6,0.3,0.8c0.1,0,8.5,4,7.9,13.8C156.5,781.9,156.8,782.2,157.1,782.3L157.1,782.3z"/>
<text transform="matrix(1 0 0 1 62.7424 903.1609)" font-family="'MyriadPro-Regular'" font-size="18">Step 6: Create a pitch that starts with the observations in step 2</text>
<path d="M175.9,934.2h-47.1v28.1c1.6,1.1,2.3,2.3,2.8,4.1h8.9l0.1-0.2l0.7-0.7c0.8-0.8,1.7-1.7,2.5-2.5c0.5-0.5,1.3-0.4,1.7,0.1
	c0.1,0.1,0.2,0.2,0.3,0.4c0.2,0.3,0.5,0.6,0.8,1c1.4,1.7,0.9,1.1,1.6,1.9h5.3c1.7-4.5,3.4-6.6,8.2-6.9h8.4c1.9,0,3.9,0,5.8,0.5
	L175.9,934.2z M152.6,968.7h-2.5c0.5,0.6,1.1,1.3,1.7,1.9C152.1,970,152.4,969.3,152.6,968.7L152.6,968.7z M120.1,962.6h-5.2
	c-7.7,0-10.4,1.9-10.4,5.2l-2,25h2l4-23.2c0.2-1.4,2.3-1.2,2.3,0.2V994l-1,35.6h4l1-34.6c0-0.6,0.5-1.1,1.1-1.1h2.1
	c0.6,0,1.1,0.5,1.1,1.1l1,34.6h4l-1-35.6v-24.1c0-1.4,2.1-1.6,2.3-0.1l3,23.1h2c-0.1-1.6,0-0.7-0.1-2.5c-0.1-2.8-0.2-5.6-0.4-8.4
	c0-0.6,0-0.6-0.1-1.2c-0.3-7.1-0.5-11.8-0.5-13C129.5,964.5,126.9,962.6,120.1,962.6L120.1,962.6z M170.1,961.8h-8.4
	c-3.5,0-4.7,1.6-6.5,6.6l-0.1,0.2c-0.9,2.4-1.3,3.5-2.1,4.7c-0.4,0.6-1.3,0.7-1.8,0.2c-0.6-0.6-1.9-2-3.6-4.2
	c-0.1-0.1-0.1-0.1-0.1-0.2c-0.8-1-1.7-2-2.6-3.1l-0.4-0.4l-0.7,0.7l-1,1c0.5,0.8,0.2,0.4,0.8,1.4c0.9,1.6,1.9,3.2,2.9,4.7
	c0.5,0.8,1.1,1.6,1.6,2.3c1.8,2.5,3.3,4,3.7,4c0.1,0,0.2,0,0.4-0.1c1.3-0.3,2.9-2.3,4.6-5.2c0.7-1.2,1.4-2.6,2-3.9
	c0.2-0.5,0.4-0.9,0.6-1.3c0.1-0.2,0.2-0.4,0.2-0.5c0.5-1.2,2.3-0.8,2.2,0.5l-1.1,24.5l-3.1,35.9h4.1l3.1-35.1
	c0.1-0.6,0.5-1.1,1.1-1.1h2.1c0.6,0,1.1,0.4,1.1,1l3.6,35.1h3.6l-3.1-36v-24.4c0-1.4,2-1.6,2.3-0.2l4.1,23.5h2
	c-0.1-1.2-0.3-2.3-0.4-3.5c-0.6-4.7-1.4-11.8-2.7-21.8C177.9,962.4,177.1,961.8,170.1,961.8L170.1,961.8z M177.1,931.9
	c0.6,0,1.1,0.5,1.1,1.1v27.6l-0.1,0.3c1.8,1.5,2.3,3.7,2.7,5.9c1.2,9.9,2.1,17.1,2.7,21.8c0.2,1.7,0.3,2.9,0.4,3.8
	c0.1,0.5,0.1,0.8,0.1,1c0.1,0.7-0.5,1.3-1.1,1.2h-4.2c-0.6,0-1-0.4-1.1-0.9l-2-11.3l0,11l3.2,37.2c0.1,0.7-0.5,1.2-1.1,1.2h-5.9
	c-0.6,0-1.1-0.4-1.1-1l-3.6-35.1h0l-3.1,35.1c-0.1,0.6-0.5,1-1.1,1h-6.4c-0.7,0-1.2-0.6-1.1-1.2l3.2-37.1l0.8-18.7l-0.4,0.7
	c-2,3.5-3.9,5.7-6,6.3c-0.3,0.1-0.6,0.1-1,0.1c-1.6,0-3.2-1.7-5.6-5c-0.5-0.7-1.1-1.6-1.6-2.4c-1-1.5-2-3.2-2.9-4.8
	c-0.5-0.9-0.3-0.5-0.6-1.1h-9.3c0.1,4,0.3,8,0.5,12c0,0.6,0,0.6,0.1,1.2c0.1,2.7,0.2,5.6,0.4,8.4c0,1,0.1,1.9,0.1,2.7
	c0,0.4,0,0.4,0,0.8c0,0.1,0,0.1,0,0.2c0,0,0,0,0,0.1v0v0c0,0.7-0.5,1.2-1.1,1.2h-4.2c-0.6,0-1.1-0.4-1.1-1l-0.9-6.6v6.4l1.1,36.7
	c0,0.6-0.5,1.2-1.1,1.2h-6.3c-0.6,0-1.1-0.5-1.1-1.1l-0.9-32.3l-1,32.3c0,0.6-0.5,1.1-1.1,1.1h-6.3c-0.6,0-1.2-0.5-1.1-1.2l1.1-36.7
	v-10.8l-1.9,11c-0.1,0.6-0.6,0.9-1.1,0.9h-4.2c-0.7,0-1.2-0.6-1.1-1.2l2.1-26.1c0-4.7,3.9-7.4,12.7-7.4h5.2c2.3,0.1,2.6,0,5.3,0.6
	c0.4,0.1,0.7,0.3,1.1,0.4v-28.2c0-0.6,0.5-1.1,1.1-1.1L177.1,931.9z"/>
<path d="M167.1,945.7c-2.6,0.3-3.6,2.9-3.8,5.2c0,2.9,1.7,5.2,3.7,5.2c1.9,0,3.7-2.3,3.7-5.2C170.5,948.7,169.6,946.1,167.1,945.7z
	 M167.2,943.4L167.2,943.4c3.9,0.4,5.4,4.1,5.6,7.5c0,4.1-2.6,7.5-6,7.5c-3.4,0-6-3.4-6-7.5c0.1-3.6,2.2-7,6-7.5v0H167.2z"/>
<path d="M172.5,935.4c0.9,0.4,0.6,0.1,1,0.7c0.2,0.6-0.1,1.3-0.7,1.5l-14.6,5.6c-1.1,1.4-2.2,2.9-3.2,4.3c-2.6,3.4-2.6,3.4-3.4,4.6
	l-0.4,0.5l-0.7-0.1c-1-0.1-1-0.1-4-0.6c-1.1-0.2-2.2-0.3-3.3-0.5l-5.3,7.6l-0.1,0.2l-0.2,0.1l-5.2,3c-0.5,0.3-1.2,0.1-1.6-0.4
	c-0.3-0.5-0.1-1.2,0.4-1.6l5-2.9l5.6-7.9l0.4-0.6l0.7,0.1c1,0.1,1,0.1,4,0.6c1.1,0.2,2.2,0.3,3.3,0.5l1-1.4c1.4-1.9,0.8-1,2-2.7
	c2.6-3.4,2.6-3.4,3.4-4.6l0.2-0.3l0.3-0.1l14.9-5.7L172.5,935.4z"/>
<path d="M117,946.9c-2,0-3.8,2.3-3.8,5.2s1.8,5.2,3.8,5.2c2,0,3.8-2.3,3.8-5.2c-0.1-1.6-0.5-3.2-1.7-4.3c-0.4-0.3-0.9-0.5-1.4-0.8
	L117,946.9z M117,944.6l1.2,0.2c3.3,1.3,4.6,4,4.9,7.4c0,4.1-2.7,7.5-6.1,7.5c-3.4,0-6.1-3.4-6.1-7.5C111,948.3,113.1,945,117,944.6
	L117,944.6z"/>
<path d="M104.3,998.3h-1.9v16.6h1.9V998.3z M105.4,996c0.6,0,1.1,0.5,1.1,1.1v18.9c0,0.6-0.5,1.1-1.1,1.1h-4.2
	c-0.6,0-1.1-0.5-1.1-1.1v-18.9c0-0.6,0.5-1.1,1.1-1.1H105.4z"/>
<path d="M92,954.9h-5.7v37.9H92V954.9z M93.2,952.6c0.6,0,1.1,0.5,1.1,1.1V994c0,0.6-0.5,1.1-1.1,1.1h-8c-0.6,0-1.1-0.5-1.1-1.1
	v-40.2c0-0.6,0.5-1.1,1.1-1.1H93.2z"/>
<path d="M89.2,965.8c-0.6,0-1.1,0.5-1.1,1.1c0,0.6,0.5,1.1,1.1,1.1c0.6,0,1.2-0.5,1.2-1.1C90.3,966.3,89.8,965.8,89.2,965.8z
	 M89.2,964.7c1.3,0,2.3,1,2.3,2.2c0,1.2-1,2.2-2.3,2.2c-1.3,0-2.3-1-2.3-2.2C86.9,965.6,87.9,964.7,89.2,964.7z"/>
<path d="M89.2,971.6c-0.6,0-1.1,0.5-1.1,1c0,0.5,0.5,1,1.1,1c0.6,0,1.2-0.5,1.2-1C90.3,972,89.8,971.6,89.2,971.6z M89.2,970.4
	c1.3,0,2.3,1,2.3,2.2c0,1.2-1,2.2-2.3,2.2s-2.3-1-2.3-2.2C86.9,971.4,87.9,970.4,89.2,970.4z"/>
<path d="M89.2,977.3c-0.6,0-1.1,0.5-1.1,1c0,0.6,0.5,1,1.1,1c0.6,0,1.2-0.5,1.2-1C90.3,977.8,89.8,977.3,89.2,977.3z M89.2,976.2
	c1.3,0,2.3,1,2.3,2.2c0,1.2-1,2.2-2.3,2.2c-1.3,0-2.3-1-2.3-2.2C86.9,977.1,87.9,976.2,89.2,976.2z"/>
<path d="M89.2,983c-0.6,0-1.1,0.5-1.1,1c0,0.5,0.5,1,1.1,1c0.6,0,1.2-0.5,1.2-1C90.3,983.5,89.8,983,89.2,983z M89.2,981.9
	c1.3,0,2.3,1,2.3,2.2c0,1.2-1,2.2-2.3,2.2s-2.3-1-2.3-2.2C86.9,982.8,87.9,981.9,89.2,981.9z"/>
<path d="M89.2,988.8c-0.6,0-1.1,0.5-1.1,1c0,0.5,0.5,1,1.1,1c0.6,0,1.2-0.5,1.2-1C90.3,989.2,89.8,988.8,89.2,988.8z M89.2,987.6
	c1.3,0,2.3,1,2.3,2.2c0,1.2-1,2.2-2.3,2.2s-2.3-1-2.3-2.2C86.9,988.6,87.9,987.6,89.2,987.6z"/>
<path d="M91,960.1l0.2,0.1c0.3,0.2,0.3,0.5,0.1,0.8l-1.7,2.3c-0.2,0.3-0.7,0.3-0.9,0c-0.3-0.3-0.1-0.1-0.5-0.6
	c-0.4-0.6-0.8-1.1-1.2-1.7c-0.2-0.3-0.1-0.6,0.1-0.8c0.3-0.2,0.6-0.1,0.8,0.1c0.2,0.3,0.2,0.3,0.9,1.1c0.4,0.5,0.2,0.3,0.4,0.5
	l1.3-1.7C90.7,960,90.5,960.2,91,960.1L91,960.1z"/>
<path d="M89.1,955.5l0.3,0l0.2,0.2l1.7,2.3c0.2,0.3,0.1,0.6-0.1,0.8c-0.3,0.2-0.6,0.1-0.8-0.1l-1.3-1.7c-0.1,0.2,0,0-0.4,0.5
	c-0.6,0.9-0.6,0.9-0.9,1.1c-0.2,0.3-0.6,0.3-0.8,0.1c-0.3-0.2-0.3-0.6-0.1-0.8c0.2-0.3,0.1-0.1,0.5-0.6c0.4-0.6,0.8-1.1,1.2-1.6
	C88.9,955.5,88.8,955.6,89.1,955.5L89.1,955.5z"/>
</svg>
