<svg id="Layer_1" data-name="Layer 1" xmlns="http://www.w3.org/2000/svg" viewBox="0 0 550 400"><defs><style>.cls-1{fill-rule:evenodd;}.cls-2,.cls-3,.cls-4{fill:none;stroke:#4c4b4b;stroke-miterlimit:10;}.cls-3{stroke-dasharray:2.03 2.03;}.cls-4{stroke-dasharray:2.01 2.01;}.cls-5{font-size:14px;font-family:Arial;}</style></defs><title>complexity</title><path d="M86.84,140c0-14.72,3.84-26.6,11.41-35.4,1.43,0.47,2.87,1,4.31,1.6a61.58,61.58,0,0,1,23.49,17.89,29.6,29.6,0,0,0-8,9.27c-5.4,10-7.43,21.74-9.23,32.1a134.18,134.18,0,0,1-3.88,17.62C94.9,174.79,86.84,161.45,86.84,140ZM47.12,172.14a3.19,3.19,0,0,0,4.31-1.34l5.39-10.26c-1.14,10.07-1.37,26.27,6.65,36.28,4.66,5.82,11.36,8.77,19.92,8.77h0.29c12.66-.1,19.72-5.32,24.05-13,17,10.33,35.69,10.74,36,10.74h0a3.19,3.19,0,0,0,0-6.38c-1.28,0-18.37-.38-33.5-10,2.33-6.21,3.57-13.36,4.79-20.43,1.79-10.35,3.64-21.06,8.55-30.16a23.47,23.47,0,0,1,6.23-7.23,100.63,100.63,0,0,1,9.21,16.22l-8.62-8.16a3.19,3.19,0,1,0-4.38,4.63l20.5,19.37a3.19,3.19,0,0,0,5.37-2.58l-2.27-27.56a3.19,3.19,0,1,0-6.36.52l0.78,9.47a106.17,106.17,0,0,0-8.86-15.42c14.85-7.82,37.91-8.31,52-7.73l-10.42,2.64a3.19,3.19,0,0,0,.78,6.27,3.52,3.52,0,0,0,.79-0.09l27.35-6.93a3.19,3.19,0,0,0,.69-5.91l-24.48-12.85a3.19,3.19,0,0,0-3,5.65l9.23,4.85c-14.84-.68-40.09-0.2-56.8,9A68.1,68.1,0,0,0,105,100.37c-0.58-.25-1.16-0.47-1.74-0.68C119.84,86,143.36,87.08,143.6,87.09a3.19,3.19,0,1,0,.36-6.37c-1.17-.06-28.5-1.43-47.11,16.13-0.2.19-.38,0.38-0.57,0.57-23.72-6.17-44.48,2.79-45.45,3.21a3.19,3.19,0,0,0,2.58,5.83c0.21-.09,17.72-7.65,38.06-3.6-7.31,9.67-11,22.12-11,37.17,0,24.76,10,39.82,22,49-3.5,6.53-8.95,10.09-18.86,10.17-6.76,0-11.71-2-15.18-6.37-6-7.53-6.3-20.17-5.52-29.2L65.27,173a3.18,3.18,0,0,0,3.09,2.4,3.38,3.38,0,0,0,.79-0.09,3.18,3.18,0,0,0,2.31-3.87L64.53,144a3.18,3.18,0,0,0-5.91-.69L45.77,167.83A3.21,3.21,0,0,0,47.12,172.14Z"/><path d="M346.44,143.14a9.54,9.54,0,0,1,9.53-9.53h15v19H356A9.54,9.54,0,0,1,346.44,143.14ZM380,161.69h14.68a9.54,9.54,0,0,1,9.53,9.53v9.1H389.57a9.54,9.54,0,0,1-9.53-9.53v-9.09Zm0-28.09h63.09l0,14-2-4.34a5,5,0,1,0-9,4.23l11.2,23.93a5,5,0,0,0,4.51,2.87h0a5,5,0,0,0,4.51-2.89l10.89-23.51a5,5,0,1,0-9-4.19l-2,4.29,0-14.38h8.61a9.54,9.54,0,0,1,9.53,9.53V170.8a9.52,9.52,0,0,1-9.52,9.52h-47.5v-9.1a18.59,18.59,0,0,0-18.57-18.57H380v-19h0Zm9.52-12.91h5.15a18.59,18.59,0,0,0,18.57-18.57v-6a9.54,9.54,0,0,1,9.53-9.53h10.85a9.53,9.53,0,0,1,9.53,9.54l0,28.39H381.91A9.54,9.54,0,0,1,389.56,120.7Zm-18.56,41v9.09a18.59,18.59,0,0,0,18.56,18.57h14.68V203a18.59,18.59,0,0,0,18.57,18.57h48.44a4.52,4.52,0,0,0,0-9H422.81a9.54,9.54,0,0,1-9.53-9.53V189.36h47.5a18.57,18.57,0,0,0,18.57-18.56V143.14a18.59,18.59,0,0,0-18.57-18.57h-8.6l0-28.38A18.57,18.57,0,0,0,433.65,77.6H422.8a18.59,18.59,0,0,0-18.57,18.57v6a9.54,9.54,0,0,1-9.53,9.53h-5.15a18.6,18.6,0,0,0-17.68,12.91H355.95a18.57,18.57,0,0,0,0,37.14H371v0Z"/><path d="M234.88,340a19.21,19.21,0,0,0-10.95,4.23c-5,4.17-8.6,12.56-5.27,26.28a3.39,3.39,0,1,0,6.59-1.6c-3-12.17,0-16.94,3-19.46a12.52,12.52,0,0,1,6.77-2.67,3.39,3.39,0,1,0-.15-6.78h0Z"/><path d="M248.58,328.17a9,9,0,0,1,1,2.43,1,1,0,0,1-1,1.17,1.06,1.06,0,0,1-1.05-1.17A8.62,8.62,0,0,1,248.58,328.17Zm-5.58-6.1a8.15,8.15,0,1,0,8.15,8.15A8.15,8.15,0,0,0,243,322.07Z"/><path class="cls-1" d="M229.84,344.45s0-4.58,6.58-4.58h13.16c6.62,0,6.58,4.58,6.58,4.58v21.74H229.83V344.45Z"/><path class="cls-1" d="M255.16,325.59h0a3.39,3.39,0,0,0-1.74,6.36c6.5,3.69,10.16,6.69,11.67,8.19l-0.12,0a40.82,40.82,0,0,1-8.86.25c-3-.18-5.35-0.5-5.35-0.5a3.39,3.39,0,1,0-.91,6.72s2.57,0.35,5.85.55a42.79,42.79,0,0,0,10.62-.37,8.4,8.4,0,0,0,4.88-2.34,5.46,5.46,0,0,0,1.46-3.2,6.14,6.14,0,0,0-.74-3.34c-2-3.86-6.34-6.89-15.15-11.89A3.39,3.39,0,0,0,255.16,325.59Z"/><path d="M219.53,294h48.79v23.48h-38v7.4L225.7,318l-0.27-.4h-0.48l-5.42-.06V294h0Zm-1.84-1.84V319.3h0.91l5.84,0.07,6.06,9,1.68,2.5V319.31h38V292.15H217.69Z"/><path d="M253.5,309.21a5.75,5.75,0,0,0,1.29,1.16h0a7.34,7.34,0,0,0,2.4,1,22.79,22.79,0,0,1-7.17.8,12.89,12.89,0,0,0,3.3-2.76v0l0.16-.22h0Zm-12.31-1.72a7.07,7.07,0,0,0,3.77,5h0l0.24,0.09a16.43,16.43,0,0,1-7.61-.23l-0.06,0h-0.06a8.18,8.18,0,0,1-2.68-.71,12.16,12.16,0,0,0,5.78-3.3l0,0,0,0a6.68,6.68,0,0,0,.55-0.78h0ZM254,302.14a6.74,6.74,0,0,1,.12,2,8.12,8.12,0,0,1-.53,2.23,6.08,6.08,0,0,1-.18-1.63,6.57,6.57,0,0,1,.59-2.58h0Zm4.28-3.09a3.44,3.44,0,0,1,2.47,1.24h0c2.41,2.89,1.46,7.59-1.33,10a6.47,6.47,0,0,1-3.85-1h0a4.51,4.51,0,0,1-1.25-1.24,9.6,9.6,0,0,0,1.15-3.76,7.64,7.64,0,0,0-.51-3.58,5.18,5.18,0,0,1,.67-0.64l0,0,0,0a3.22,3.22,0,0,1,2.58-.91h0Zm-9.1-.55a5.64,5.64,0,0,1,3.66,1.29,5.36,5.36,0,0,1,.52.72,7.85,7.85,0,0,0-1.31,4.18,7.19,7.19,0,0,0,.69,3.29,6.65,6.65,0,0,1-.43.59,11.88,11.88,0,0,1-4.68,3.29,13.77,13.77,0,0,1-2.08-.63,5.75,5.75,0,0,1-3.07-4.23,7.09,7.09,0,0,1,1-5.32l0-.08a6.28,6.28,0,0,1,5.6-3.11h0ZM236.07,298a5.15,5.15,0,0,1,1.5.21,5.22,5.22,0,0,1,3.17,4,6.27,6.27,0,0,1-1.14,5.16,11.09,11.09,0,0,1-6.56,3.16,8.35,8.35,0,0,1-3.27-5.25v0c-0.81-3.63,2.74-7.22,6.31-7.24h0Zm0-1.37c-4.44,0-8.64,4.28-7.64,8.87v0a0,0,0,0,0,0,0,9.48,9.48,0,0,0,2.65,5.11c-2.33,0-4.91-.39-6.57-2-3.06-2.91-1-9.16,3.09-10.29l-0.36-1.31c-5.17,1.43-7.33,8.63-3.69,12.57l0.06,0.06,0.07,0a14.19,14.19,0,0,0,9,2.22,10,10,0,0,0,4.65,1.69,17.42,17.42,0,0,0,10.4-.4,23.28,23.28,0,0,0,10.72-.8l0.05,0,0,0c0.48-.23.89-0.58,1.35-0.83a1.67,1.67,0,0,1,.59-0.05,17.24,17.24,0,0,0,5.43-1.75l-0.61-1.22a17.6,17.6,0,0,1-3.77,1.4c2.32-3,2.76-7.47.22-10.54h0a4.79,4.79,0,0,0-7-.48l-0.08.07c-0.16.13-.3,0.26-0.44,0.39a5.9,5.9,0,0,0-.44-0.56l0,0,0,0a7.62,7.62,0,0,0-11.35,2.12l0,0.08c-0.13.19-.25,0.39-0.36,0.59a6.51,6.51,0,0,0-4-4.63h0a6.7,6.7,0,0,0-1.91-.29h0Z"/><line class="cls-2" x1="203.53" y1="278.64" x2="202.79" y2="277.96"/><line class="cls-3" x1="201.3" y1="276.59" x2="133.35" y2="214.12"/><line class="cls-2" x1="132.6" y1="213.43" x2="131.87" y2="212.75"/><line class="cls-2" x1="283.91" y1="278.12" x2="284.62" y2="277.41"/><line class="cls-4" x1="286.04" y1="275.99" x2="365.06" y2="196.95"/><line class="cls-2" x1="365.77" y1="196.24" x2="366.48" y2="195.54"/><text class="cls-5" transform="translate(46.13 31)">Option<tspan x="41.25" y="0"> </tspan><tspan x="44.37" y="0">A: Meeting publishing</tspan><tspan x="0" y="16.8">requirements with bleeding-edge </tspan><tspan x="0" y="33.6">tools</tspan></text><text class="cls-5" transform="translate(347.73 29.5)">Option B: Meeting publishing<tspan x="0" y="16.8">requirements with a standard</tspan><tspan x="0" y="33.6">tech comm tool</tspan></text></svg>