<?xml version="1.0" encoding="utf-8"?>
<!-- Generator: Adobe Illustrator 17.1.0, SVG Export Plug-In . SVG Version: 6.00 Build 0)  -->
<!DOCTYPE svg PUBLIC "-//W3C//DTD SVG 1.1//EN" "http://www.w3.org/Graphics/SVG/1.1/DTD/svg11.dtd">
<svg version="1.1" id="Layer_1" xmlns="http://www.w3.org/2000/svg" xmlns:xlink="http://www.w3.org/1999/xlink" x="0px" y="0px"
	 viewBox="0 0 664.5 378" enable-background="new 0 0 664.5 378" xml:space="preserve">
<rect x="-0.1" y="0.4" fill="#FFFFFF" width="665" height="378"/>
<path d="M548.7,202l-22.8-7.1c-0.7-2.3-2-4.2-3.9-5.5l20.7-39.8c-2.7-0.9,1.3,0.3,2.1,0.3c0.1,0,0.1,0,0.2,0l7.9,46.9
	C550.8,197.8,549.3,199.7,548.7,202L548.7,202z M539.5,243.6c-1.7-0.7-3.6-1.1-5.5-1.1c-0.7,0-1.3,0.1-2,0.2l-10.5-36.4
	c2.3-1.4,4-3.6,4.6-6.3l23,7.1c0.7,1.7,2,3,3.6,3.9L539.5,243.6z M546.1,256.9c0,6.7-5.4,12.1-12.1,12.1c-6.7,0-12.1-5.4-12.1-12.1
	c0-6.7,5.4-12.1,12.1-12.1C540.7,244.9,546.1,250.3,546.1,256.9z M492.3,238.9l19.2-32.4c1.4,0.8,3,1.3,4.8,1.3c0.1,0,0.2,0,0.3,0
	l10.6,36.5c-3.7,2-6.4,5.4-7.3,9.6l-26.8-9c0.2-0.6,0.3-1.3,0.3-2C493.4,241.4,493,240,492.3,238.9L492.3,238.9z M488.6,235.4
	c-1-0.5-2.1-0.7-3.3-0.7c-1,0-2,0.2-2.9,0.6L453,203.7c1.9-2,3.1-4.5,3.6-7.3l49.8,3.4c0.3,1.2,0.7,2.3,1.4,3.3L488.6,235.4z
	 M477.4,241.2l-73.6,4.9c-0.1-0.2-0.2-0.3-0.3-0.5l32.1-38.9c2,1.1,4.3,1.7,6.8,1.7c2.4,0,4.6-0.6,6.6-1.6l29.5,31.7
	C478,239.3,477.6,240.2,477.4,241.2L477.4,241.2z M400.3,242.3c-0.8-0.5-1.6-0.8-2.5-1l0.6-42.1c3.1-0.6,5.6-2.8,6.7-5.7l23.1,2.4
	c0.4,3.1,1.8,5.9,3.8,8.1L400.3,242.3z M418.4,141.7c0.4,0,0.8-0.1,1.2-0.1l16.1,39.6c-3.8,2-6.5,5.6-7.4,10l-22.9-2.4
	c-0.4-2.2-1.6-4-3.2-5.3L418.4,141.7z M426.5,136.4l37,10.4c0.4,2.4,1.6,4.5,3.3,6l-17.6,28.4c-2-1.1-4.3-1.7-6.7-1.7
	c-0.8,0-1.6,0.1-2.4,0.2l-16.2-39.9C425,138.9,425.9,137.8,426.5,136.4L426.5,136.4z M454.7,95.6c0.3,0.1,0.6,0.2,1,0.2l12.2,40
	c-1.9,1.3-3.3,3.3-3.9,5.6c-0.1,0.2-0.1,0.3-0.2,0.5l-36.6-10.4c-0.3-2.1-1.4-3.8-2.9-5.2L454.7,95.6z M462.8,92.4l33,7
	c-0.1,0.8-0.2,1.5-0.2,2.3c0,3.1,1,6,2.7,8.3l-19,25.3c-1.3-0.7-2.6-1.1-4.1-1.2c-0.5-0.1-1-0.1-1.5-0.1c-0.3,0-0.7,0.1-1,0.1
	l-12-39.4C461.5,94.1,462.3,93.3,462.8,92.4L462.8,92.4z M510,89.7c6.7,0,12.1,5.4,12.1,12.1c0,6.7-5.4,12.1-12.1,12.1
	c-6.7,0-12.1-5.4-12.1-12.1C497.9,95.1,503.4,89.7,510,89.7z M536.6,139.5l-51.9,3.2c-0.3-1.5-0.9-2.9-1.8-4.1l18.9-25.1
	c2.3,1.6,5.1,2.6,8.2,2.6c2.3,0,4.4-0.5,6.4-1.5l21.3,22.3C537.2,137.7,536.9,138.6,536.6,139.5L536.6,139.5z M483.4,150.5
	c0.6-1,1-2.1,1.3-3.2l52.2-3.2c0.3,1,0.9,2,1.6,2.8l-21.3,40.7c-0.3,0-0.6-0.1-0.9-0.1c-1.3,0-2.5,0.3-3.7,0.7L483.4,150.5z
	 M442.4,206c-6.7,0-12.1-5.4-12.1-12.1c0-6.7,5.4-12.1,12.1-12.1s12.1,5.4,12.1,12.1C454.5,200.6,449.1,206,442.4,206z M456.6,191.3
	c-0.5-2.8-1.9-5.3-3.8-7.3l17.9-28.8c1.1,0.4,2.3,0.6,3.5,0.6c2.1,0,4-0.6,5.6-1.6l28.7,37c-0.9,1-1.5,2.2-1.9,3.5L456.6,191.3z
	 M557.9,195.9l-8.1-47.8c2-1.5,3.4-4,3.4-6.7c0-4.6-3.8-8.4-8.4-8.4c-1.1,0-2.2,0.2-3.2,0.6l-21.2-21.9c2.5-2.6,4.1-6.1,4.1-10
	c0-7.9-6.5-14.4-14.4-14.4c-5.3,0-10,2.9-12.5,7.3l-33.8-7.2c-0.7-3.2-3.5-5.7-6.9-5.7c-3.9,0-7.1,3.2-7.1,7.1
	c0,1.2,0.3,2.4,0.9,3.4l-30.8,31.9c-0.4-0.1-0.9-0.1-1.3-0.1c-4.9,0-8.9,4-8.9,8.9c0,3.3,1.8,6.1,4.4,7.6l-16,41.2
	c-0.4-0.1-0.8-0.1-1.2-0.1c-4.9,0-8.9,4-8.9,8.9c0,3.7,2.3,6.9,5.5,8.2l-0.6,42.9c-3.4,1.3-5.8,4.5-5.8,8.3c0,4.9,4,8.9,8.9,8.9
	c4.5,0,8.1-3.3,8.7-7.6l73.5-4.9c1.3,2.7,4.1,4.7,7.3,4.7c1.9,0,3.6-0.7,4.9-1.7l29.5,10c1.1,6.9,7,12.2,14.2,12.2
	c7.9,0,14.4-6.5,14.4-14.4c0-4.1-1.8-7.9-4.6-10.5l14-34.6c3.9-0.6,6.9-3.9,6.9-8C564.7,199.8,561.7,196.5,557.9,195.9L557.9,195.9z
	"/>
<polygon points="506.9,109.7 509.9,105.4 512.9,109.7 518.1,109.7 512.5,101.8 517.9,94.2 512.8,94.2 510.1,98.4 507.4,94.2 
	502.2,94.2 507.4,101.8 502,109.7 "/>
<polygon points="541.8,249.2 536.8,249.2 534,253.3 531.4,249.2 526.2,249.2 531.4,256.8 525.9,264.7 530.9,264.7 533.9,260.4 
	536.9,264.7 542,264.7 536.5,256.8 "/>
<polygon points="450.3,186.2 445.2,186.2 442.5,190.3 439.8,186.2 434.7,186.2 439.8,193.8 434.4,201.7 439.4,201.7 442.3,197.4 
	445.3,201.7 450.5,201.7 445,193.7 "/>
<path d="M148.7,168.4c-1.5,0-0.7,0-2.4,0.1c-0.9,0-1.8,0-2.6,0.1c-0.9,1.1-1.8,2.2-2.7,3.3c-1.7,2.1-3.4,4.2-5.1,6.4
	c-2.5,3.1-4.9,6.1-7.4,9.2l-0.6,0.8c1-0.6,0.4-0.2,1.9-1.1c3.7-2.1,3.7-2.1,5-2.8c0.4-0.2,0.8-0.1,1,0.3c0.5,1.1,0.5,1.1,2.1,4.3
	c0.5,1.1,1.1,2.2,1.6,3.3c1-1.1,1.9-2.3,2.9-3.4c2.7-3.2,2.7-3.2,3.6-4.3c0.3-0.4,1-0.3,1.2,0.1c0.9,1.8,0.9,1.8,3.5,7.1
	c0.9,1.8,1.7,3.5,2.6,5.3c0.3-1.7,0.7-3.4,1-5.1c1.1-5.3,1.1-5.3,1.5-7.1c0.1-0.6,0.9-0.8,1.2-0.3c0.9,1.1,0.9,1.1,3.6,4.3
	c0.9,1.1,1.8,2.2,2.7,3.3c0.3-1,0.7-2,1-3.1c1.1-3.2,1.1-3.2,1.4-4.3c0.3-0.4,0.1-0.2,0.7-0.5l0.3,0.1l1.3,0.8
	c0.9,0.6,1.9,1.1,2.8,1.7c-0.8-1-0.4-0.5-1.1-1.5c-4.2-5.6-8.4-11.2-12.6-16.7h-4.8c-0.3,1-0.2,0.5-0.6,1.6
	c-0.5,1.6-0.5,1.6-0.7,2.1c-0.2,0.7-1.2,0.6-1.4,0c-0.1-0.6-0.1-0.6-0.6-2.2C148.9,168.9,149,169.4,148.7,168.4L148.7,168.4z
	 M149.3,166.9c0.3,0,0.6,0.2,0.7,0.5c0.2,0.7,0.4,1.4,0.6,2.1c0.2-0.7,0.4-1.3,0.7-2c0.1-0.3,0.4-0.5,0.7-0.5h5.7
	c0.2,0,0.4,0.1,0.6,0.3c5.6,7.5,9.8,13.1,12.8,17c1.6,2.1,1.6,2.1,2.5,3.3c0.6,0.8,0.6,0.8,0.7,0.9l0,0.2c2.4,3.4,1.2,1.7,3.7,5.2
	c1.5-1.1,3-2.2,4.6-3.3c3.7-2.7,3.7-2.7,5-3.6l0.4-0.1l0.4,0.2c2.1,1.6,4.1,3.3,6.2,4.9c5.2,4.2,2.7,2.2,7.6,6.1
	c1.4-0.8,2.7-1.6,4.1-2.4c2.1-1.3,2.1-1.3,2.7-1.6l0.4-0.1l0.4,0.1c0.7,0.4,0.7,0.4,2.9,1.8c2.1,1.3,2.1,1.3,2.9,1.8
	c0.3,0.2,0.4,0.6,0.2,1c-0.2,0.3-0.6,0.4-1,0.2c-0.7-0.4-0.7-0.4-2.8-1.8c-0.8-0.5-1.7-1-2.5-1.6c-0.8,0.4-1.5,0.9-2.3,1.3
	c-1.4,0.8-2.8,1.6-4.2,2.5l0,0.1c-0.3,0.2-0.1,0.2-0.5,0.2c-0.4,0.3-0.1,0-1.2,0.7c-3.2,1.9-3.2,1.9-5.9,3.4
	c-2.1,1.3-2.1,1.3-2.7,1.6c-0.3,0.2-0.8,0.1-1-0.3c-0.2-0.3-0.1-0.8,0.3-1c0.5-0.3,0.5-0.3,2.7-1.6c2.7-1.6,2.7-1.6,5.9-3.4l0.4-0.3
	c-3.2-2.6-1.5-1.2-5.3-4.2c-2.5-2-5.1-4.1-7.6-6.1c-1.5,1.1-3,2.2-4.6,3.2c-1.5,1.1-3,2.2-4.6,3.3l0.4,0.5
	c4.9,6.9,4.9,6.9,10.8,15.2c5.9,8.3,5.9,8.3,10.8,15.2c3.9,5.5,3.9,5.5,4.9,6.9c0.3,0.5,0,1.1-0.6,1.1c-0.9,0-0.9,0-5,0.1
	c-5.4,0.1-5.4,0.1-13.1,0.2c-18,0.2-18,0.2-39.7,0.5s-21.6,0.3-39.7,0.5c-7.7,0.1-7.7,0.1-13.1,0.2c-4.1,0.1-4.1,0.1-5,0.1
	c-0.6,0-0.9-0.7-0.6-1.2c1.1-1.4,1.1-1.4,5.6-6.9c5.6-6.9,5.6-6.9,12.2-15.2c2.8-3.5,5.6-7,8.4-10.5l-8.6-7.4l-22.3,16.8
	c-0.3,0.2-0.8,0.2-1-0.1c-0.2-0.3-0.2-0.8,0.1-1l22.8-17.1l0.4-0.1l0.4,0.2l9,7.7c1-1.2,1.9-2.4,2.9-3.6c1.8-2.3,3.6-4.5,5.4-6.8
	l0.1-0.2c0.6-0.7,0.6-0.7,2.9-3.5c2.9-3.5,2.9-3.5,6.3-7.8c3.4-4.2,3.4-4.2,6.3-7.8c2.3-2.8,2.3-2.8,2.9-3.5
	c0.1-0.2,0.3-0.3,0.5-0.3c0.9,0,0.3,0,1.7,0L149.3,166.9z"/>
<path fill="none" stroke="#000000" stroke-linejoin="bevel" stroke-miterlimit="10" d="M152.5,114.3h-4c-4.3,0-10.7-11.4-13.7-16.1
	c-1.1-1.7-1.6-0.5-1.6-0.5l4.7,12l7.4,9.3c0.2-0.9,0,0,0,0.9v18.2l-1,26h2.9l1.5-25.3c0-0.4,0.3-0.7,0.7-0.7h1.6
	c0.4,0,0.7,0.3,0.7,0.7l1.2,25.3h2.9l-0.7-26l-0.2-20.2c0-0.9,10.3-3.6,10.3-3.6s10.4-2.3,10.4-3.2
	C175.5,108.6,157.7,114.3,152.5,114.3L152.5,114.3z"/>
<path d="M149.8,102.9c-1.6,0-3,1.8-3,4.1c0,2.3,1.4,4.1,3,4.1s3-1.8,3-4.1c-0.1-2.2-0.6-3-2.4-4L149.8,102.9z M149.8,101.5l0.9,0.1
	c2.4,0.9,3.3,2.9,3.5,5.4c0,3-2,5.5-4.5,5.5c-2.5,0-4.5-2.5-4.5-5.5C145.3,104,147.3,101.5,149.8,101.5L149.8,101.5z"/>
<path fill="#F9F9F9" stroke="#1E1D1D" stroke-width="0.6449" stroke-miterlimit="10" d="M108.5,275.6c-2.9,0-5.6,0.8-7.4,2
	c-1.9,1.2-2.9,2.8-2.9,4.4v4.6h20.6V282c0-1.6-1-3.2-2.9-4.4C114.1,276.4,111.4,275.6,108.5,275.6z M127.8,282.7v-7.2
	c0-3.8-4.9-7-11-7c-0.8,0-1.5,0.1-2.3,0.2c-0.9,2.5-3.3,4.4-6.1,4.4c-2.8,0-5.2-1.8-6.1-4.4c-0.7-0.1-1.5-0.2-2.3-0.2
	c-6.1,0-11,3.2-11,7v7.2h7.7V282c0-2.2,1.4-4.1,3.5-5.5c2.1-1.4,5-2.2,8.1-2.2s6,0.8,8.1,2.2c2.1,1.4,3.5,3.3,3.5,5.5v0.7
	 M125.3,262c-0.8,0-1.5,0.1-2.3,0.2c-0.9,2.5-3.3,4.4-6.1,4.4c-0.6,0-1.1-0.1-1.7-0.2c-0.1,0.2-0.2,0.3-0.3,0.5c0,0.2,0,0.3,0,0.5
	c0.6-0.1,1.3-0.1,2-0.1c3.3,0,6.2,0.8,8.5,2.3c2.2,1.4,3.8,3.6,3.8,6v0.7h7.1v-7.2C136.2,265.3,131.3,262,125.3,262L125.3,262z
	 M91.7,262c-6.1,0-11,3.2-11,7v7.2h7.1v-0.7c0-2.5,1.6-4.6,3.8-6c2.2-1.4,5.2-2.3,8.5-2.3c0.7,0,1.3,0,2,0.1c0-0.2,0-0.3,0-0.5
	c-0.1-0.2-0.2-0.3-0.3-0.5c-0.5,0.1-1.1,0.2-1.7,0.2c-2.8,0-5.2-1.8-6.1-4.4C93.3,262.1,92.5,262,91.7,262L91.7,262z M108.5,261.4
	c-2.8,0-5.2,2.3-5.2,5.2c0,2.8,2.3,5.2,5.2,5.2s5.2-2.3,5.2-5.2C113.7,263.7,111.3,261.4,108.5,261.4z M108.5,256.2
	c-1.1,0-2.1,0.1-3,0.3c0.7,1,1.1,2.3,1.1,3.6c0,0.1,0,0.2,0,0.3c0.6-0.2,1.3-0.3,1.9-0.3c0.7,0,1.3,0.1,1.9,0.3c0-0.1,0-0.2,0-0.3
	c0-1.3,0.4-2.6,1.1-3.6C110.6,256.3,109.5,256.2,108.5,256.2L108.5,256.2z M116.9,254.9c-2.8,0-5.2,2.3-5.2,5.2
	c0,2.8,2.3,5.2,5.2,5.2s5.2-2.3,5.2-5.2C122,257.3,119.7,254.9,116.9,254.9z M100.1,254.9c-2.8,0-5.2,2.3-5.2,5.2
	c0,2.8,2.3,5.2,5.2,5.2c2.8,0,5.2-2.3,5.2-5.2C105.3,257.3,103,254.9,100.1,254.9z M125.3,248.5c-2.8,0-5.2,2.3-5.2,5.2
	c0,2.8,2.3,5.2,5.2,5.2s5.2-2.3,5.2-5.2C130.4,250.8,128.1,248.5,125.3,248.5z M91.7,248.5c-2.8,0-5.2,2.3-5.2,5.2
	c0,2.8,2.3,5.2,5.2,5.2c2.8,0,5.2-2.3,5.2-5.2C96.9,250.8,94.6,248.5,91.7,248.5z M108.5,244c-2.8,0-5.2,2.3-5.2,5.2
	c0,2.8,2.3,5.2,5.2,5.2s5.2-2.3,5.2-5.2C113.7,246.3,111.3,244,108.5,244z"/>
<path fill="#F9F9F9" stroke="#1E1D1D" stroke-width="0.6449" stroke-miterlimit="10" d="M150.2,271.9c-2.9,0-5.6,0.8-7.4,2
	c-1.9,1.2-2.9,2.8-2.9,4.4v4.6h20.6v-4.6c0-1.6-1-3.2-2.9-4.4C155.7,272.6,153.1,271.9,150.2,271.9z M169.5,279v-7.2
	c0-3.8-4.9-7-11-7c-0.8,0-1.5,0.1-2.3,0.2c-0.9,2.5-3.3,4.4-6.1,4.4c-2.8,0-5.2-1.8-6.1-4.4c-0.7-0.1-1.5-0.2-2.3-0.2
	c-6.1,0-11,3.2-11,7v7.2h7.7v-0.7c0-2.2,1.4-4.1,3.5-5.5c2.1-1.4,5-2.2,8.1-2.2s6,0.8,8.1,2.2c2.1,1.4,3.5,3.3,3.5,5.5v0.7
	 M166.9,258.3c-0.8,0-1.5,0.1-2.3,0.2c-0.9,2.5-3.3,4.4-6.1,4.4c-0.6,0-1.1-0.1-1.7-0.2c-0.1,0.2-0.2,0.3-0.3,0.5c0,0.2,0,0.3,0,0.5
	c0.6-0.1,1.3-0.1,2-0.1c3.3,0,6.2,0.8,8.5,2.3c2.2,1.4,3.8,3.6,3.8,6v0.7h7.1v-7.2C177.9,261.5,173,258.3,166.9,258.3L166.9,258.3z
	 M133.4,258.3c-6.1,0-11,3.2-11,7v7.2h7.1v-0.7c0-2.5,1.6-4.6,3.8-6c2.2-1.4,5.2-2.3,8.5-2.3c0.7,0,1.3,0,2,0.1c0-0.2,0-0.3,0-0.5
	c-0.1-0.2-0.2-0.3-0.3-0.5c-0.5,0.1-1.1,0.2-1.7,0.2c-2.8,0-5.2-1.8-6.1-4.4C134.9,258.4,134.2,258.3,133.4,258.3L133.4,258.3z
	 M150.2,257.7c-2.8,0-5.2,2.3-5.2,5.2c0,2.8,2.3,5.2,5.2,5.2c2.8,0,5.2-2.3,5.2-5.2C155.3,260,153,257.7,150.2,257.7z M150.2,252.5
	c-1.1,0-2.1,0.1-3,0.3c0.7,1,1.1,2.3,1.1,3.6c0,0.1,0,0.2,0,0.3c0.6-0.2,1.3-0.3,1.9-0.3c0.7,0,1.3,0.1,1.9,0.3c0-0.1,0-0.2,0-0.3
	c0-1.3,0.4-2.6,1.1-3.6C152.2,252.6,151.2,252.5,150.2,252.5L150.2,252.5z M158.6,251.2c-2.8,0-5.2,2.3-5.2,5.2
	c0,2.8,2.3,5.2,5.2,5.2c2.8,0,5.2-2.3,5.2-5.2C163.7,253.5,161.4,251.2,158.6,251.2z M141.8,251.2c-2.8,0-5.2,2.3-5.2,5.2
	c0,2.8,2.3,5.2,5.2,5.2c2.8,0,5.2-2.3,5.2-5.2C146.9,253.5,144.6,251.2,141.8,251.2z M166.9,244.8c-2.8,0-5.2,2.3-5.2,5.2
	c0,2.8,2.3,5.2,5.2,5.2c2.8,0,5.2-2.3,5.2-5.2C172.1,247.1,169.8,244.8,166.9,244.8z M133.4,244.8c-2.8,0-5.2,2.3-5.2,5.2
	c0,2.8,2.3,5.2,5.2,5.2c2.8,0,5.2-2.3,5.2-5.2C138.6,247.1,136.2,244.8,133.4,244.8z M150.2,240.3c-2.8,0-5.2,2.3-5.2,5.2
	c0,2.8,2.3,5.2,5.2,5.2c2.8,0,5.2-2.3,5.2-5.2C155.3,242.6,153,240.3,150.2,240.3z"/>
<path fill="#F9F9F9" stroke="#1E1D1D" stroke-width="0.6449" stroke-miterlimit="10" d="M190.1,271.9c-2.9,0-5.6,0.8-7.4,2
	c-1.9,1.2-2.9,2.8-2.9,4.4v4.6h20.6v-4.6c0-1.6-1-3.2-2.9-4.4C195.7,272.6,193,271.9,190.1,271.9z M209.4,279v-7.2c0-3.8-4.9-7-11-7
	c-0.8,0-1.5,0.1-2.3,0.2c-0.9,2.5-3.3,4.4-6.1,4.4c-2.8,0-5.2-1.8-6.1-4.4c-0.7-0.1-1.5-0.2-2.3-0.2c-6.1,0-11,3.2-11,7v7.2h7.7
	v-0.7c0-2.2,1.4-4.1,3.5-5.5c2.1-1.4,5-2.2,8.1-2.2s6,0.8,8.1,2.2c2.1,1.4,3.5,3.3,3.5,5.5v0.7 M206.9,258.3c-0.8,0-1.5,0.1-2.3,0.2
	c-0.9,2.5-3.3,4.4-6.1,4.4c-0.6,0-1.1-0.1-1.7-0.2c-0.1,0.2-0.2,0.3-0.3,0.5c0,0.2,0,0.3,0,0.5c0.6-0.1,1.3-0.1,2-0.1
	c3.3,0,6.2,0.8,8.5,2.3c2.2,1.4,3.8,3.6,3.8,6v0.7h7.1v-7.2C217.8,261.5,212.9,258.3,206.9,258.3L206.9,258.3z M173.3,258.3
	c-6.1,0-11,3.2-11,7v7.2h7.1v-0.7c0-2.5,1.6-4.6,3.8-6c2.2-1.4,5.2-2.3,8.5-2.3c0.7,0,1.3,0,2,0.1c0-0.2,0-0.3,0-0.5
	c-0.1-0.2-0.2-0.3-0.3-0.5c-0.5,0.1-1.1,0.2-1.7,0.2c-2.8,0-5.2-1.8-6.1-4.4C174.9,258.4,174.1,258.3,173.3,258.3L173.3,258.3z
	 M190.1,257.7c-2.8,0-5.2,2.3-5.2,5.2c0,2.8,2.3,5.2,5.2,5.2c2.8,0,5.2-2.3,5.2-5.2C195.3,260,192.9,257.7,190.1,257.7z
	 M190.1,252.5c-1.1,0-2.1,0.1-3,0.3c0.7,1,1.1,2.3,1.1,3.6c0,0.1,0,0.2,0,0.3c0.6-0.2,1.3-0.3,1.9-0.3c0.7,0,1.3,0.1,1.9,0.3
	c0-0.1,0-0.2,0-0.3c0-1.3,0.4-2.6,1.1-3.6C192.2,252.6,191.1,252.5,190.1,252.5L190.1,252.5z M198.5,251.2c-2.8,0-5.2,2.3-5.2,5.2
	c0,2.8,2.3,5.2,5.2,5.2c2.8,0,5.2-2.3,5.2-5.2C203.6,253.5,201.3,251.2,198.5,251.2z M181.7,251.2c-2.8,0-5.2,2.3-5.2,5.2
	c0,2.8,2.3,5.2,5.2,5.2c2.8,0,5.2-2.3,5.2-5.2C186.9,253.5,184.6,251.2,181.7,251.2z M206.9,244.8c-2.8,0-5.2,2.3-5.2,5.2
	c0,2.8,2.3,5.2,5.2,5.2c2.8,0,5.2-2.3,5.2-5.2C212,247.1,209.7,244.8,206.9,244.8z M173.3,244.8c-2.8,0-5.2,2.3-5.2,5.2
	c0,2.8,2.3,5.2,5.2,5.2c2.8,0,5.2-2.3,5.2-5.2C178.5,247.1,176.2,244.8,173.3,244.8z M190.1,240.3c-2.8,0-5.2,2.3-5.2,5.2
	c0,2.8,2.3,5.2,5.2,5.2c2.8,0,5.2-2.3,5.2-5.2C195.3,242.6,192.9,240.3,190.1,240.3z"/>
<text transform="matrix(1 0 0 1 172.3587 55.5684)"><tspan x="0" y="0" font-family="'MyriadPro-Regular'" font-size="12">This is how it </tspan><tspan x="0" y="14.4" font-family="'MyriadPro-Regular'" font-size="12">works, really.</tspan></text>
<g>
	<path fill="#FF931E" stroke="#F9F9F9" stroke-width="0.6449" stroke-miterlimit="10" d="M371.5,181.5c-2.9,0-5.6,0.8-7.4,2
		c-1.9,1.2-2.9,2.8-2.9,4.4v4.6h20.6v-4.6c0-1.6-1-3.2-2.9-4.4C377,182.3,374.4,181.5,371.5,181.5z"/>
	<circle fill="#FF931E" stroke="#F9F9F9" stroke-width="0.6449" stroke-miterlimit="10" cx="371.5" cy="175.1" r="5.2"/>
</g>
<g>
	<path fill="#FF931E" stroke="#F9F9F9" stroke-width="0.6449" stroke-miterlimit="10" d="M381.8,255.6c-2.9,0-5.6,0.8-7.4,2
		c-1.9,1.2-2.9,2.8-2.9,4.4v4.6h20.6V262c0-1.6-1-3.2-2.9-4.4C387.4,256.4,384.7,255.6,381.8,255.6z"/>
	<circle fill="#FF931E" stroke="#F9F9F9" stroke-width="0.6449" stroke-miterlimit="10" cx="381.8" cy="249.1" r="5.2"/>
</g>
<g>
	<path fill="#FF931E" stroke="#F9F9F9" stroke-width="0.6449" stroke-miterlimit="10" d="M455.9,68.6c-2.9,0-5.6,0.8-7.4,2
		c-1.9,1.2-2.9,2.8-2.9,4.4v4.6h20.6V75c0-1.6-1-3.2-2.9-4.4C461.5,69.4,458.8,68.6,455.9,68.6z"/>
	<circle fill="#FF931E" stroke="#F9F9F9" stroke-width="0.6449" stroke-miterlimit="10" cx="455.9" cy="62.2" r="5.2"/>
</g>
<g>
	<path fill="#FF931E" stroke="#F9F9F9" stroke-width="0.6449" stroke-miterlimit="10" d="M397.3,120.3c-2.9,0-5.6,0.8-7.4,2
		c-1.9,1.2-2.9,2.8-2.9,4.4v4.6h20.6v-4.6c0-1.6-1-3.2-2.9-4.4S400.2,120.3,397.3,120.3z"/>
	<circle fill="#FF931E" stroke="#F9F9F9" stroke-width="0.6449" stroke-miterlimit="10" cx="397.3" cy="113.8" r="5.2"/>
</g>
<g>
	<path fill="#FF931E" stroke="#F9F9F9" stroke-width="0.6449" stroke-miterlimit="10" d="M522.6,74.4c-2.9,0-5.6,0.8-7.4,2
		s-2.9,2.8-2.9,4.4v4.6h20.6v-4.6c0-1.6-1-3.2-2.9-4.4S525.5,74.4,522.6,74.4z"/>
	<circle fill="#FF931E" stroke="#F9F9F9" stroke-width="0.6449" stroke-miterlimit="10" cx="522.6" cy="68" r="5.2"/>
</g>
<g>
	<path fill="#FF931E" stroke="#F9F9F9" stroke-width="0.6449" stroke-miterlimit="10" d="M512.3,175.4c-2.9,0-5.6,0.8-7.4,2
		c-1.9,1.2-2.9,2.8-2.9,4.4v4.6h20.6v-4.6c0-1.6-1-3.2-2.9-4.4C517.8,176.2,515.2,175.4,512.3,175.4z"/>
	<circle fill="#FF931E" stroke="#F9F9F9" stroke-width="0.6449" stroke-miterlimit="10" cx="512.3" cy="168.9" r="5.2"/>
</g>
<g>
	<path fill="#FF931E" stroke="#F9F9F9" stroke-width="0.6449" stroke-miterlimit="10" d="M486.1,261.4c-2.9,0-5.6,0.8-7.4,2
		c-1.9,1.2-2.9,2.8-2.9,4.4v4.6h20.6v-4.6c0-1.6-1-3.2-2.9-4.4S489.1,261.4,486.1,261.4z"/>
	<circle fill="#FF931E" stroke="#F9F9F9" stroke-width="0.6449" stroke-miterlimit="10" cx="486.1" cy="254.9" r="5.2"/>
</g>
<g>
	<path fill="#FF931E" stroke="#F9F9F9" stroke-width="0.6449" stroke-miterlimit="10" d="M551.2,274.9c-2.9,0-5.6,0.8-7.4,2
		s-2.9,2.8-2.9,4.4v4.6h20.6v-4.6c0-1.6-1-3.2-2.9-4.4C556.8,275.7,554.1,274.9,551.2,274.9z"/>
	<circle fill="#FF931E" stroke="#F9F9F9" stroke-width="0.6449" stroke-miterlimit="10" cx="551.2" cy="268.5" r="5.2"/>
</g>
<g>
	<path fill="#FF931E" stroke="#F9F9F9" stroke-width="0.6449" stroke-miterlimit="10" d="M575,206c-2.9,0-5.6,0.8-7.4,2
		s-2.9,2.8-2.9,4.4v4.6h20.6v-4.6c0-1.6-1-3.2-2.9-4.4S577.9,206,575,206z"/>
	<circle fill="#FF931E" stroke="#F9F9F9" stroke-width="0.6449" stroke-miterlimit="10" cx="575" cy="199.6" r="5.2"/>
</g>
<g>
	<path fill="#FF931E" stroke="#F9F9F9" stroke-width="0.6449" stroke-miterlimit="10" d="M564.7,137.4c-2.9,0-5.6,0.8-7.4,2
		c-1.9,1.2-2.9,2.8-2.9,4.4v4.6H575v-4.6c0-1.6-1-3.2-2.9-4.4C570.2,138.2,567.6,137.4,564.7,137.4z"/>
	<circle fill="#FF931E" stroke="#F9F9F9" stroke-width="0.6449" stroke-miterlimit="10" cx="564.7" cy="130.9" r="5.2"/>
</g>
<g>
	<path fill="none" stroke="#151515" stroke-width="1.1026" stroke-miterlimit="10" d="M206.5,30.6c-28,0-50.7,14-50.7,31.3
		c0,9.7,7.2,18.4,18.5,24.2c-0.4,3.1-1.9,9-8.2,14c-3.8,3.1-6.5,4.7-8.2,5.6c8.4-2.5,30-9.4,31.3-13.2c0.1-0.3,0.2-0.7,0.3-1.1
		c5.3,1.2,11,1.8,17,1.8c28,0,50.7-14,50.7-31.3S234.5,30.6,206.5,30.6z"/>
	<path fill="none" stroke="#151515" stroke-width="1.1026" stroke-miterlimit="10" d="M157.8,105.7c-2,0.6-3.3,1-3.3,1
		S155.4,106.9,157.8,105.7z"/>
</g>
<g>
	<path fill="none" stroke="#232323" stroke-width="0.3292" stroke-miterlimit="10" d="M419,88.6c-8.9,0-16.1,3.9-16.1,8.8
		c0,2.7,2.3,5.2,5.9,6.8c-0.1,0.9-0.6,2.5-2.6,3.9c-1.2,0.9-2.1,1.3-2.6,1.6c2.7-0.7,9.5-2.6,9.9-3.7c0-0.1,0.1-0.2,0.1-0.3
		c1.7,0.3,3.5,0.5,5.4,0.5c8.9,0,16.1-3.9,16.1-8.8S427.9,88.6,419,88.6z"/>
	<path fill="none" stroke="#232323" stroke-width="0.3292" stroke-miterlimit="10" d="M403.6,109.7c-0.6,0.2-1,0.3-1,0.3
		S402.8,110,403.6,109.7z"/>
</g>
<g>
	<path fill="none" stroke="#232323" stroke-width="0.3292" stroke-miterlimit="10" d="M481,40.6c-8.9,0-16.1,3.9-16.1,8.8
		c0,2.7,2.3,5.2,5.9,6.8c-0.1,0.9-0.6,2.5-2.6,3.9c-1.2,0.9-2.1,1.3-2.6,1.6c2.7-0.7,9.5-2.6,9.9-3.7c0-0.1,0.1-0.2,0.1-0.3
		c1.7,0.3,3.5,0.5,5.4,0.5c8.9,0,16.1-3.9,16.1-8.8S489.9,40.6,481,40.6z"/>
	<path fill="none" stroke="#232323" stroke-width="0.3292" stroke-miterlimit="10" d="M465.6,61.7c-0.6,0.2-1,0.3-1,0.3
		S464.8,62,465.6,61.7z"/>
</g>
<g>
	<path fill="none" stroke="#232323" stroke-width="0.3292" stroke-miterlimit="10" d="M392,152.6c-8.9,0-16.1,3.9-16.1,8.8
		c0,2.7,2.3,5.2,5.9,6.8c-0.1,0.9-0.6,2.5-2.6,3.9c-1.2,0.9-2.1,1.3-2.6,1.6c2.7-0.7,9.5-2.6,9.9-3.7c0-0.1,0.1-0.2,0.1-0.3
		c1.7,0.3,3.5,0.5,5.4,0.5c8.9,0,16.1-3.9,16.1-8.8C408.1,156.5,400.9,152.6,392,152.6z"/>
	<path fill="none" stroke="#232323" stroke-width="0.3292" stroke-miterlimit="10" d="M376.6,173.7c-0.6,0.2-1,0.3-1,0.3
		S375.8,174,376.6,173.7z"/>
</g>
<g>
	<path fill="none" stroke="#232323" stroke-width="0.3292" stroke-miterlimit="10" d="M544,46.6c-8.9,0-16.1,3.9-16.1,8.8
		c0,2.7,2.3,5.2,5.9,6.8c-0.1,0.9-0.6,2.5-2.6,3.9c-1.2,0.9-2.1,1.3-2.6,1.6c2.7-0.7,9.5-2.6,9.9-3.7c0-0.1,0.1-0.2,0.1-0.3
		c1.7,0.3,3.5,0.5,5.4,0.5c8.9,0,16.1-3.9,16.1-8.8S552.9,46.6,544,46.6z"/>
	<path fill="none" stroke="#232323" stroke-width="0.3292" stroke-miterlimit="10" d="M528.6,67.7c-0.6,0.2-1,0.3-1,0.3
		S527.8,68,528.6,67.7z"/>
</g>
<g>
	<path fill="none" stroke="#232323" stroke-width="0.3292" stroke-miterlimit="10" d="M586,109.6c-8.9,0-16.1,3.9-16.1,8.8
		c0,2.7,2.3,5.2,5.9,6.8c-0.1,0.9-0.6,2.5-2.6,3.9c-1.2,0.9-2.1,1.3-2.6,1.6c2.7-0.7,9.5-2.6,9.9-3.7c0-0.1,0.1-0.2,0.1-0.3
		c1.7,0.3,3.5,0.5,5.4,0.5c8.9,0,16.1-3.9,16.1-8.8S594.9,109.6,586,109.6z"/>
	<path fill="none" stroke="#232323" stroke-width="0.3292" stroke-miterlimit="10" d="M570.6,130.7c-0.6,0.2-1,0.3-1,0.3
		S569.8,131,570.6,130.7z"/>
</g>
<g>
	<path fill="none" stroke="#232323" stroke-width="0.3292" stroke-miterlimit="10" d="M599,180.6c-8.9,0-16.1,3.9-16.1,8.8
		c0,2.7,2.3,5.2,5.9,6.8c-0.1,0.9-0.6,2.5-2.6,3.9c-1.2,0.9-2.1,1.3-2.6,1.6c2.7-0.7,9.5-2.6,9.9-3.7c0-0.1,0.1-0.2,0.1-0.3
		c1.7,0.3,3.5,0.5,5.4,0.5c8.9,0,16.1-3.9,16.1-8.8C615.1,184.5,607.9,180.6,599,180.6z"/>
	<path fill="none" stroke="#232323" stroke-width="0.3292" stroke-miterlimit="10" d="M583.6,201.7c-0.6,0.2-1,0.3-1,0.3
		S582.8,202,583.6,201.7z"/>
</g>
<g>
	<path fill="#FFFFFF" stroke="#232323" stroke-width="0.3292" stroke-miterlimit="10" d="M403,223.6c-8.9,0-16.1,3.9-16.1,8.8
		c0,2.7,2.3,5.2,5.9,6.8c-0.1,0.9-0.6,2.5-2.6,3.9c-1.2,0.9-2.1,1.3-2.6,1.6c2.7-0.7,9.5-2.6,9.9-3.7c0-0.1,0.1-0.2,0.1-0.3
		c1.7,0.3,3.5,0.5,5.4,0.5c8.9,0,16.1-3.9,16.1-8.8C419.1,227.5,411.9,223.6,403,223.6z"/>
	<path fill="#FFFFFF" stroke="#232323" stroke-width="0.3292" stroke-miterlimit="10" d="M387.6,244.7c-0.6,0.2-1,0.3-1,0.3
		S386.8,245,387.6,244.7z"/>
</g>
<g>
	<path fill="#FFFFFF" stroke="#232323" stroke-width="0.3292" stroke-miterlimit="10" d="M507,233.6c-8.9,0-16.1,3.9-16.1,8.8
		c0,2.7,2.3,5.2,5.9,6.8c-0.1,0.9-0.6,2.5-2.6,3.9c-1.2,0.9-2.1,1.3-2.6,1.6c2.7-0.7,9.5-2.6,9.9-3.7c0-0.1,0.1-0.2,0.1-0.3
		c1.7,0.3,3.5,0.5,5.4,0.5c8.9,0,16.1-3.9,16.1-8.8C523.1,237.5,515.9,233.6,507,233.6z"/>
	<path fill="#FFFFFF" stroke="#232323" stroke-width="0.3292" stroke-miterlimit="10" d="M491.6,254.7c-0.6,0.2-1,0.3-1,0.3
		S490.8,255,491.6,254.7z"/>
</g>
<g>
	<path fill="#FFFFFF" stroke="#232323" stroke-width="0.3292" stroke-miterlimit="10" d="M533,148.6c-8.9,0-16.1,3.9-16.1,8.8
		c0,2.7,2.3,5.2,5.9,6.8c-0.1,0.9-0.6,2.5-2.6,3.9c-1.2,0.9-2.1,1.3-2.6,1.6c2.7-0.7,9.5-2.6,9.9-3.7c0-0.1,0.1-0.2,0.1-0.3
		c1.7,0.3,3.5,0.5,5.4,0.5c8.9,0,16.1-3.9,16.1-8.8C549.1,152.5,541.9,148.6,533,148.6z"/>
	<path fill="#FFFFFF" stroke="#232323" stroke-width="0.3292" stroke-miterlimit="10" d="M517.6,169.7c-0.6,0.2-1,0.3-1,0.3
		S516.8,170,517.6,169.7z"/>
</g>
<g>
	<path fill="none" stroke="#232323" stroke-width="0.3292" stroke-miterlimit="10" d="M573,248.6c-8.9,0-16.1,3.9-16.1,8.8
		c0,2.7,2.3,5.2,5.9,6.8c-0.1,0.9-0.6,2.5-2.6,3.9c-1.2,0.9-2.1,1.3-2.6,1.6c2.7-0.7,9.5-2.6,9.9-3.7c0-0.1,0.1-0.2,0.1-0.3
		c1.7,0.3,3.5,0.5,5.4,0.5c8.9,0,16.1-3.9,16.1-8.8C589.1,252.5,581.9,248.6,573,248.6z"/>
	<path fill="none" stroke="#232323" stroke-width="0.3292" stroke-miterlimit="10" d="M557.6,269.7c-0.6,0.2-1,0.3-1,0.3
		S556.8,270,557.6,269.7z"/>
</g>
<g>
	<path fill="#FFFFFF" stroke="#232323" stroke-width="0.3292" stroke-miterlimit="10" d="M460,141.6c-8.9,0-16.1,3.9-16.1,8.8
		c0,2.7,2.3,5.2,5.9,6.8c-0.1,0.9-0.6,2.5-2.6,3.9c-1.2,0.9-2.1,1.3-2.6,1.6c2.7-0.7,9.5-2.6,9.9-3.7c0-0.1,0.1-0.2,0.1-0.3
		c1.7,0.3,3.5,0.5,5.4,0.5c8.9,0,16.1-3.9,16.1-8.8C476.1,145.5,468.9,141.6,460,141.6z"/>
	<path fill="#FFFFFF" stroke="#232323" stroke-width="0.3292" stroke-miterlimit="10" d="M444.6,162.7c-0.6,0.2-1,0.3-1,0.3
		S443.8,163,444.6,162.7z"/>
</g>
<g>
	<path fill="#FFFFFF" stroke="#232323" stroke-width="0.3292" stroke-miterlimit="10" d="M492,94.6c-8.9,0-16.1,3.9-16.1,8.8
		c0,2.7,2.3,5.2,5.9,6.8c-0.1,0.9-0.6,2.5-2.6,3.9c-1.2,0.9-2.1,1.3-2.6,1.6c2.7-0.7,9.5-2.6,9.9-3.7c0-0.1,0.1-0.2,0.1-0.3
		c1.7,0.3,3.5,0.5,5.4,0.5c8.9,0,16.1-3.9,16.1-8.8S500.9,94.6,492,94.6z"/>
	<path fill="#FFFFFF" stroke="#232323" stroke-width="0.3292" stroke-miterlimit="10" d="M476.6,115.7c-0.6,0.2-1,0.3-1,0.3
		S475.8,116,476.6,115.7z"/>
</g>
<g>
	<path fill="#FF931E" stroke="#F9F9F9" stroke-width="0.6449" stroke-miterlimit="10" d="M475.8,120.6c-2.9,0-5.6,0.8-7.4,2
		s-2.9,2.8-2.9,4.4v4.6h20.6V127c0-1.6-1-3.2-2.9-4.4C481.4,121.4,478.7,120.6,475.8,120.6z"/>
	<circle fill="#FF931E" stroke="#F9F9F9" stroke-width="0.6449" stroke-miterlimit="10" cx="475.8" cy="114.2" r="5.2"/>
</g>
<g>
	<path fill="#FF931E" stroke="#F9F9F9" stroke-width="0.6449" stroke-miterlimit="10" d="M442.4,165.6c-2.9,0-5.6,0.8-7.4,2
		c-1.9,1.2-2.9,2.8-2.9,4.4v4.6h20.6V172c0-1.6-1-3.2-2.9-4.4C448,166.4,445.4,165.6,442.4,165.6z"/>
	<circle fill="#FF931E" stroke="#F9F9F9" stroke-width="0.6449" stroke-miterlimit="10" cx="442.4" cy="159.1" r="5.2"/>
</g>
<line fill="none" stroke="#A8A8A8" stroke-width="4" stroke-miterlimit="10" x1="408.9" y1="97.4" x2="428.9" y2="97.4"/>
<line fill="none" stroke="#A8A8A8" stroke-width="4" stroke-miterlimit="10" x1="470.9" y1="48.4" x2="490.9" y2="48.4"/>
<line fill="none" stroke="#A8A8A8" stroke-width="4" stroke-miterlimit="10" x1="381.9" y1="162.4" x2="401.9" y2="162.4"/>
<line fill="none" stroke="#A8A8A8" stroke-width="4" stroke-miterlimit="10" x1="391.9" y1="230.4" x2="411.9" y2="230.4"/>
<line fill="none" stroke="#A8A8A8" stroke-width="4" stroke-miterlimit="10" x1="482.9" y1="102.4" x2="502.9" y2="102.4"/>
<line fill="none" stroke="#A8A8A8" stroke-width="4" stroke-miterlimit="10" x1="531.9" y1="54.4" x2="551.9" y2="54.4"/>
<line fill="none" stroke="#A8A8A8" stroke-width="4" stroke-miterlimit="10" x1="449.9" y1="149.4" x2="469.9" y2="149.4"/>
<line fill="none" stroke="#A8A8A8" stroke-width="4" stroke-miterlimit="10" x1="575.9" y1="118.4" x2="595.9" y2="118.4"/>
<line fill="none" stroke="#A8A8A8" stroke-width="4" stroke-miterlimit="10" x1="521.9" y1="156.4" x2="541.9" y2="156.4"/>
<line fill="none" stroke="#A8A8A8" stroke-width="4" stroke-miterlimit="10" x1="588.9" y1="188.4" x2="608.9" y2="188.4"/>
<line fill="none" stroke="#A8A8A8" stroke-width="4" stroke-miterlimit="10" x1="497.9" y1="241.4" x2="517.9" y2="241.4"/>
<line fill="none" stroke="#A8A8A8" stroke-width="4" stroke-miterlimit="10" x1="561.9" y1="257.4" x2="581.9" y2="257.4"/>
<text transform="matrix(1 0 0 1 43.8923 325.3988)" font-family="'MyriadPro-Regular'" font-size="18">Centralized information model</text>
<text transform="matrix(1 0 0 1 366.3137 325.3988)" font-family="'MyriadPro-Regular'" font-size="18">Decentralized information model</text>
<line fill="none" stroke="#A8A8A8" stroke-width="2" stroke-miterlimit="10" x1="328.9" y1="15.4" x2="328.9" y2="360.4"/>
</svg>
