<?xml version="1.0" encoding="utf-8"?>
<!-- Generator: Adobe Illustrator 19.2.1, SVG Export Plug-In . SVG Version: 6.00 Build 0)  -->
<svg version="1.1" id="Layer_1" xmlns="http://www.w3.org/2000/svg" xmlns:xlink="http://www.w3.org/1999/xlink" x="0px" y="0px"
	 viewBox="0 0 418 383" style="enable-background:new 0 0 418 383;" xml:space="preserve">
<style type="text/css">
	.st0{fill:none;stroke:#000000;stroke-miterlimit:10;}
</style>
<path d="M197.8,26.3c-9.6,0-17.4,7.8-17.4,17.4c0,9.6,7.8,17.4,17.4,17.4c9.6,0,17.4-7.8,17.4-17.4
	C215.2,34.1,207.4,26.3,197.8,26.3z"/>
<path d="M197,101.5 M180.1,65.1c0,0-17.6,0.2-17.6,16.5s0,20,0,20s34.3,0,34.5,0L180.1,65.1z"/>
<path d="M215.4,65.1l-16.8,36.5h34.5c0,0,0-3.8,0-20C233.1,65.3,215.4,65.1,215.4,65.1z"/>
<polygon points="197.8,65.1 185.7,65.1 197.8,91.9 209.9,65.1 "/>
<path d="M349.6,262.3c-9.6,0-17.4,7.8-17.4,17.4c0,9.6,7.8,17.4,17.4,17.4c9.6,0,17.4-7.8,17.4-17.4
	C367.1,270.1,359.3,262.3,349.6,262.3z"/>
<path d="M348.8,337.5 M332,301.1c0,0-17.6,0.2-17.6,16.5c0,16.2,0,20,0,20s34.3,0,34.5,0L332,301.1z"/>
<path d="M367.3,301.1l-16.8,36.5h34.5c0,0,0-3.8,0-20C384.9,301.3,367.3,301.1,367.3,301.1z"/>
<polygon points="349.6,301.1 337.5,301.1 349.6,327.9 361.8,301.1 "/>
<path d="M79.9,261.1c-9.6,0-17.4,7.8-17.4,17.4c0,9.6,7.8,17.4,17.4,17.4c9.6,0,17.4-7.8,17.4-17.4
	C97.3,268.9,89.5,261.1,79.9,261.1z"/>
<path d="M79.1,336.4 M62.3,299.9c0,0-17.6,0.2-17.6,16.5c0,16.2,0,20,0,20s34.3,0,34.5,0L62.3,299.9z"/>
<path d="M97.6,299.9l-16.8,36.5h34.5c0,0,0-3.8,0-20C115.2,300.1,97.6,299.9,97.6,299.9z"/>
<polygon points="79.9,299.9 67.8,299.9 79.9,326.7 92,299.9 "/>
<polygon points="194.8,176.9 155.3,194 155.3,203.5 194.8,220.7 194.8,209.6 167.2,198.7 194.8,188.1 "/>
<polygon points="221,168.7 212.7,168.7 198.4,228.3 206.6,228.3 "/>
<polygon points="224.7,177 224.7,188.1 252.2,198.8 224.7,209.6 224.7,220.8 264.2,203.5 264.2,194.1 "/>
<path d="M333.9,141.4c-1.1,0.7-2.2,2.6-2,4.4c0.1,1.1,0.5,2.4,2.6,3.1c1.2,0.4,2.6,0.1,3.7-0.8c1-0.8,1.4-1.9,1.2-3.1
	c-0.3-1.6-1.7-2.2-3.8-2.9c-0.4-0.1-0.9-0.3-1.4-0.5C334,141.4,333.9,141.4,333.9,141.4z M335.5,150.7c-0.6,0-1.2-0.1-1.7-0.3
	c-2.2-0.8-3.5-2.4-3.7-4.6c-0.1-2.4,1.2-5.1,3.1-6.1c1.1-0.6,2.3-0.4,3.3,0.3c0.2,0.1,0.3,0.4,0.3,0.7c1.8,0.7,3.7,1.6,4.1,3.9
	c0.3,1.8-0.3,3.5-1.8,4.8C338.1,150.3,336.8,150.7,335.5,150.7z"/>
<path d="M344.8,141.9c-0.9,0.5-1.6,1.4-1.8,2.3c-0.4,1.3-0.1,3,1.8,3.8c0.8,0.4,2.9-0.1,4.4-1.3c0.9-0.7,1.4-1.4,1.3-2
	c-0.1-1.4-1.8-1.9-3.9-2.3c-0.6-0.1-1.2-0.3-1.6-0.4C345,142,344.9,141.9,344.8,141.9z M345.6,150c-0.5,0-1.1-0.1-1.4-0.3
	c-2.7-1.2-3.4-3.8-2.8-5.9c0.6-2.2,2.7-4.4,5.6-4c0.4,0.1,0.8,0.4,0.8,1c0,0.1,0,0.1,0,0.1c1.9,0.4,4.2,1.3,4.6,3.6
	c0.1,1.3-0.5,2.6-1.9,3.7C349.1,149.2,347.2,150,345.6,150z"/>
<path d="M339.6,144.2c-0.2,0-0.4-0.1-0.6-0.2l-0.5-0.5c-0.3-0.3-0.3-0.7-0.1-1.1c0.4-0.8,1.1-1.2,2-1.4c1.1-0.2,2.4,0,3.4,0.6
	c0.4,0.3,0.5,0.8,0.2,1.2c-0.3,0.4-0.8,0.5-1.2,0.2c-0.6-0.4-1.4-0.5-2-0.4c-0.1,0.1-0.3,0.1-0.4,0.1c0.3,0.4,0.2,0.8-0.1,1.1
	C340.1,144.1,339.9,144.2,339.6,144.2z"/>
<path d="M345.3,146.2c-0.2,0-0.5-0.1-0.7-0.3c-0.5-0.7-0.8-1.4-0.7-2.2c0-0.4,0.4-0.8,0.9-0.8c0.4,0,0.8,0.4,0.8,0.9
	c0,0.4,0.1,0.7,0.3,1c0.3,0.4,0.2,0.9-0.1,1.2C345.7,146.2,345.6,146.2,345.3,146.2z"/>
<path d="M336,146.8c-0.4,0-0.9-0.4-0.9-0.9v-2.1c0-0.4,0.4-0.9,0.9-0.9c0.5,0,0.9,0.4,0.9,0.9v2.1
	C336.9,146.4,336.5,146.8,336,146.8z"/>
<path d="M341.2,153.5L341.2,153.5c-0.3,0-0.6,0-0.9,0c-0.8,0-1.5,0-2.2-0.1c-0.3,0-0.5-0.1-0.7-0.4c-0.1-0.2-0.1-0.5-0.1-0.8
	c0.7-1.9,1.1-3.8,1.5-5.6c0.1-0.4,0.6-0.8,1.1-0.7c0.4,0.1,0.8,0.6,0.7,1.1c-0.3,1.4-0.7,3.1-1.2,4.6c0.3,0,0.7,0,1.1,0
	c0.3,0,0.6,0,0.9,0c0.4,0,0.8,0.4,0.8,0.9C342,153.1,341.7,153.5,341.2,153.5z"/>
<path d="M341.3,158.3c-0.7,0-1.4-0.1-2-0.3c-2.8-0.8-5.1-2.9-5.6-5.2c-0.1-0.4,0.2-0.9,0.7-1.1c0.4-0.1,0.9,0.2,1.1,0.7
	c0.4,1.6,2.2,3.3,4.4,3.9c1.6,0.4,3.1,0.2,4-0.7c0.3-0.4,0.9-0.4,1.2,0c0.4,0.3,0.4,0.9,0,1.2C344,157.9,342.7,158.3,341.3,158.3z"
	/>
<path d="M337.6,163.1c-2.8,0-5.4-0.1-7.9-0.4c-0.4-0.1-0.8-0.4-0.8-0.8c-0.2-2.5,0.1-4.8,0.4-7.1c0.3-2,0.6-3.9,0.5-5.9
	c0-0.4,0.3-0.9,0.8-0.9c0.4,0,0.9,0.3,0.9,0.8c0.1,2.2-0.2,4.3-0.5,6.3c-0.3,1.9-0.6,3.9-0.5,5.9c5.8,0.5,12.7,0.4,20.6-0.5
	c0.5-5.1,0.1-9.2-1.1-9.8c-0.4-0.2-0.6-0.8-0.4-1.1c0.2-0.4,0.8-0.6,1.1-0.4c2.8,1.4,2.4,8.2,1.9,12.2c-0.1,0.4-0.4,0.8-0.8,0.8
	C346.8,162.8,342,163.1,337.6,163.1z"/>
<path d="M352.1,152c-0.1,0-0.4,0-0.6,0c-0.4,0-0.8-0.4-0.8-0.9c0-0.4,0.4-0.8,0.9-0.8c2.7,0.2,3.8-1.4,4.2-2.4
	c0.6-1.6,0.4-3.4-0.7-4.3c-0.8-0.7-2.1-0.5-3.7,0.4c-0.4,0.2-0.9,0.1-1.2-0.3c-0.3-0.4-0.1-0.9,0.3-1.2c3-1.9,4.9-1.1,5.7-0.3
	c1.6,1.3,2,4,1.1,6.2C356.5,150.7,354.6,152,352.1,152z"/>
<path d="M329.6,151.1c-1.3,0-2.1-0.6-2.5-1.1c-0.9-1-1.2-2.6-0.7-4c0.6-1.7,2.2-2.9,4.2-3.1c0.4-0.1,0.9,0.3,1,0.8
	c0.1,0.4-0.3,0.9-0.8,1c-1.9,0.2-2.6,1.5-2.9,2c-0.3,0.8-0.1,1.6,0.3,2.2c0.6,0.6,1.5,0.5,2.2,0.3c0.4-0.1,1,0.1,1.1,0.6
	c0.1,0.4-0.1,1-0.6,1.1C330.5,151,330,151.1,329.6,151.1z"/>
<path d="M352.1,141.1L352.1,141.1c-0.5-0.1-0.9-0.4-0.8-1c0.1-1.1-0.1-2.8-0.4-4.3c-0.1-0.4-0.1-0.7-0.1-1.1
	c-4.3-0.3-9.7,0.8-16,3.1c-0.4,0.1-1-0.1-1.1-0.5c-0.1-0.4,0.1-1,0.5-1.1c7-2.6,12.7-3.6,17.4-3.1c0.4,0.1,0.8,0.4,0.8,0.8
	c0.1,0.5,0.1,1.1,0.2,1.6c0.2,1.6,0.5,3.3,0.4,4.6C352.9,140.8,352.5,141.1,352.1,141.1z"/>
<path d="M353.4,141.6c-0.1,0-0.3,0-0.4,0c-0.4-0.1-0.8-0.4-0.8-1c0.1-0.4,0.4-0.8,1-0.8c1.3,0.1,2-1,2.4-1.9
	c1.2-2.7,0.9-7.1-0.5-8.2c-0.2-0.1-0.8-0.6-2,0.2c-0.2,0.1-0.5,0.1-0.8,0.1c-0.2-0.1-0.4-0.3-0.5-0.5c-2.1-6-6.4-8.3-13.5-7.1
	c-3.2,0.5-5.6,2.8-6.4,6.1c-1,4.1,0.5,8.7,3.6,11.1c0.4,0.3,0.4,0.8,0.1,1.2c-0.3,0.4-0.8,0.4-1.2,0.1c-3.6-2.8-5.4-8-4.2-12.8
	c1-4.1,3.8-6.8,7.8-7.4c7.4-1.3,12.5,1.2,15.1,7.3c1.5-0.6,2.6-0.1,3.1,0.4c2.2,1.9,2.4,7.1,1.1,10.3
	C356.4,140.5,355.1,141.6,353.4,141.6z"/>
<path d="M338.1,188.8c-0.1,0-0.1,0-0.2,0c-1.2-0.3-1.6-1-1.7-1.4c-0.4-1.5,1.2-3.1,1.9-3.8c2-1.9,3.6-2,5.7-2c2.1,0.1,4.6,0.3,6.1,2
	c0.9,1.1,1.3,2.6,1.1,4.5c-0.1,0.4-0.4,0.8-1,0.8c-0.4-0.1-0.8-0.5-0.8-1c0.1-1.4,0-2.5-0.6-3.1c-0.8-0.9-2.3-1.4-4.9-1.4
	c-1.9,0-3,0.1-4.5,1.5c-1,1-1.4,1.8-1.4,2.1c0,0,0.1,0.1,0.4,0.2c0.4,0.1,0.8,0.6,0.6,1.1C338.8,188.5,338.4,188.8,338.1,188.8z"/>
<path d="M360.4,186.2c-0.3,0-0.7-0.2-0.8-0.5c-0.6-1.4-1.4-2.8-2.2-4.2c-0.7-1.3-1.4-2.6-2-3.9c-0.1-0.4-0.4-0.9-0.8-1.5
	c-3.1-6.1-4.6-9.6-3.1-11.1c0.3-0.4,0.9-0.4,1.2,0c0.4,0.3,0.4,0.9,0,1.2c-0.3,0.3-0.3,1.9,3.4,9.1c0.4,0.7,0.6,1.2,0.8,1.6
	c0.6,1.3,1.3,2.6,1.9,3.8c0.8,1.4,1.6,2.9,2.2,4.4c0.2,0.4,0,1-0.4,1.1C360.6,186.2,360.5,186.2,360.4,186.2z"/>
<path d="M350,188.3c-0.1,0-0.3,0-0.4-0.1c-0.4-0.2-0.6-0.8-0.4-1.2c1.1-2.2,1.1-6.4,1-9.5c0-0.7,0-1.2,0-1.8c0-1.6,0.1-3.8,0.3-5.9
	c0.1-1.4,0.2-2.6,0.2-3.2c0-0.4,0.4-0.8,0.9-0.8l0,0c0.4,0,0.8,0.4,0.8,0.9c0,0.7-0.1,1.9-0.2,3.4c-0.1,1.9-0.3,4.2-0.3,5.7
	c0,0.5,0,1.1,0,1.7c0.1,3.3,0.1,7.7-1.1,10.4C350.7,188.1,350.4,188.3,350,188.3z"/>
<path d="M339.7,181.5c-0.1,0-0.1,0-0.2,0c-0.3-0.1-0.6-0.4-0.6-0.8c-0.1-1,0-1.9,0.3-2.8c-0.1-0.4-0.3-1-0.5-1.5
	c-0.1-0.4-0.3-0.7-0.4-1.1c-0.5-1.4-0.8-3-1.2-4.4c-0.4-2-1-4.2-1.9-6.1c-0.2-0.4,0-1,0.5-1.1c0.4-0.2,1,0,1.1,0.4
	c1,2.1,1.5,4.3,1.9,6.4c0.3,1.4,0.7,2.9,1.1,4.3c0.1,0.3,0.2,0.6,0.3,0.9c0.7-1.1,1.6-2.2,2.4-3.4c2.3-2.8,4.3-5.5,3.5-8.1
	c-0.1-0.4,0.1-0.9,0.6-1.1c0.4-0.1,0.9,0.1,1.1,0.6c1,3.4-1.4,6.6-3.7,9.6c-1.2,1.6-2.4,3.1-3,4.6c0.2,1.1,0.1,2.2-0.6,3.1
	C340.2,181.4,340,181.5,339.7,181.5z"/>
<path d="M341.2,174.8c-0.2,0-0.4-0.1-0.6-0.2c-1.4-1.2-1.8-3.6-1.1-5.6c0.1-0.3,0.2-0.5,0.4-0.8c-0.3-0.4-0.5-0.9-0.5-1.5
	c-0.1-1,0.9-2.2,2-3.4l0.2-0.3c0.1-0.1,0.2-0.2,0.4-0.3c0.8-0.2,1.6,0.1,2,0.9c0.2,0.4,0.1,1-0.3,1.2c-0.4,0.2-0.9,0.1-1.1-0.3
	c-1,1.1-1.5,1.8-1.5,2.1c0,0.1,0,0.2,0.1,0.3c0.4-0.3,1-0.4,1.6-0.5c0.3,0,0.6,0.1,0.8,0.3c0.1,0.2,0.2,0.5,0.1,0.8
	c-0.3,1.1-1.2,1.6-2.2,1.6c-0.1,0.1-0.1,0.4-0.2,0.5c-0.4,1.3-0.1,2.9,0.7,3.8c0.4,0.3,0.4,0.9,0.1,1.2
	C341.7,174.7,341.4,174.8,341.2,174.8z"/>
<path d="M331.3,188.8L331.3,188.8c-0.5-0.1-0.9-0.4-0.8-0.9c0.1-1.9,0-3.8-0.2-5.8c-0.1-1.6-0.3-3.4-0.3-5c0-1.6,0.3-3.3,0.6-4.9
	c0.3-1.9,0.6-3.8,0.6-5.6c-0.1-0.1-0.1-0.3-0.1-0.4v-0.9c0-0.4,0.4-0.8,0.8-0.9c0.4,0,0.8,0.3,0.9,0.8c0.3,2.3-0.1,4.8-0.4,7.3
	c-0.4,1.6-0.7,3.1-0.7,4.6c0,1.6,0.1,3.2,0.3,4.8c0.2,2,0.4,4.1,0.2,6.1C332.1,188.4,331.8,188.8,331.3,188.8z"/>
<path d="M325.1,184.6c-0.3,0-0.6-0.1-0.8-0.4c-0.2-0.4-0.1-1,0.4-1.2c3.6-1.9,4.4-3.3,4.8-7.6l0.1-1c0.1-1.9,0.5-6.8,0.4-7.6
	c-0.1-0.4,0.1-0.8,0.4-1c0.4-0.2,1-0.1,1.2,0.4c0.1,0.3,0.2,0.5-0.3,8.4l-0.2,1c-0.4,4.9-1.5,6.8-5.7,9
	C325.4,184.6,325.2,184.6,325.1,184.6z"/>
<path d="M318.9,188.2c-0.8,0-1.7-0.2-2.6-0.7c-1.9-1.1-3.3-2.9-3.1-4.7c0.1-0.8,0.5-2.4,2.9-3.2c4.6-1.6,7,2.2,8.7,4.9
	c0.2,0.3,0.4,0.6,0.5,0.9c0.2,0.4,0.1,0.9-0.2,1.2c-0.4,0.2-0.9,0.1-1.2-0.2c-0.2-0.3-0.4-0.6-0.6-0.9c-2.1-3.3-3.7-5.3-6.7-4.3
	c-1.1,0.4-1.6,1-1.7,1.7c-0.1,1.1,0.9,2.3,2.2,3.1c0.7,0.3,2.3,1,3.8-0.2c0.4-0.3,0.9-0.2,1.2,0.1s0.2,0.9-0.1,1.2
	C321.1,187.8,320.1,188.2,318.9,188.2z"/>
<path d="M318.9,174.9l-0.1,0.8L318.9,174.9z M319.4,185.7L319.4,185.7c-0.5,0-0.9-0.4-0.9-0.9c0-0.4-0.3-1.9-0.5-3.1
	c-0.8-3.8-1.2-6.1-0.3-7.1c0.3-0.4,0.8-0.4,1.3-0.4s0.8,0.5,0.7,1c-0.1,0.4-0.4,0.7-0.8,0.7c-0.2,0.9,0.4,4,0.8,5.5
	c0.4,1.8,0.6,2.9,0.6,3.6C320.2,185.3,319.8,185.7,319.4,185.7z"/>
<path d="M90.3,178.2c1,0.7,2,2.6,1.9,4.4c-0.1,1.1-0.5,2.4-2.3,3.1c-1.1,0.4-2.4,0.1-3.4-0.8c-0.9-0.8-1.3-1.9-1.1-3.1
	c0.3-1.6,1.6-2.2,3.5-2.9c0.4-0.1,0.8-0.3,1.2-0.5C90.2,178.3,90.3,178.3,90.3,178.2z M88.8,187.6c0.6,0,1.1-0.1,1.6-0.3
	c2.1-0.8,3.2-2.4,3.4-4.6c0.1-2.4-1.1-5.1-2.9-6.1c-1-0.6-2.1-0.4-3,0.3c-0.2,0.1-0.3,0.4-0.3,0.7c-1.6,0.7-3.4,1.6-3.7,3.9
	c-0.3,1.8,0.3,3.5,1.6,4.8C86.4,187.2,87.6,187.6,88.8,187.6z"/>
<path d="M80.3,178.8c0.8,0.5,1.4,1.4,1.6,2.3c0.3,1.3,0.1,3-1.6,3.8c-0.8,0.4-2.7-0.1-4.1-1.3c-0.8-0.7-1.2-1.4-1.2-2
	c0.1-1.4,1.6-1.9,3.6-2.3c0.6-0.1,1.1-0.3,1.5-0.4C80.2,178.9,80.2,178.8,80.3,178.8z M79.5,186.9c0.5,0,1-0.1,1.3-0.3
	c2.5-1.2,3.1-3.8,2.5-5.9c-0.6-2.2-2.5-4.4-5.2-4c-0.4,0.1-0.8,0.4-0.7,1c0,0.1,0,0.1,0,0.1c-1.8,0.4-3.8,1.3-4.2,3.6
	c-0.1,1.3,0.5,2.6,1.8,3.7C76.4,186.1,78.1,186.9,79.5,186.9z"/>
<path d="M85,181.1c0.2,0,0.4-0.1,0.6-0.2l0.5-0.5c0.3-0.3,0.3-0.7,0.1-1.1c-0.4-0.8-1-1.2-1.9-1.4c-1-0.2-2.2,0-3.1,0.6
	c-0.3,0.3-0.5,0.8-0.2,1.2c0.3,0.4,0.8,0.5,1.1,0.2c0.6-0.4,1.3-0.5,1.9-0.4c0.1,0.1,0.3,0.1,0.4,0.1c-0.3,0.4-0.2,0.8,0.1,1.1
	C84.6,180.9,84.8,181.1,85,181.1z"/>
<path d="M79.8,183.1c0.2,0,0.5-0.1,0.6-0.3c0.5-0.7,0.7-1.4,0.6-2.2c0-0.4-0.4-0.8-0.8-0.8c-0.4,0-0.8,0.4-0.8,0.9
	c0,0.4-0.1,0.7-0.3,1c-0.3,0.4-0.2,0.9,0.1,1.2C79.5,183,79.6,183.1,79.8,183.1z"/>
<path d="M88.4,183.6c0.4,0,0.8-0.4,0.8-0.9v-2.1c0-0.4-0.3-0.9-0.8-0.9c-0.5,0-0.8,0.4-0.8,0.9v2.1
	C87.6,183.3,87.9,183.6,88.4,183.6z"/>
<path d="M83.6,190.4L83.6,190.4c0.3,0,0.6,0,0.8,0c0.7,0,1.4,0,2.1-0.1c0.3,0,0.5-0.1,0.6-0.4c0.1-0.2,0.1-0.5,0.1-0.8
	c-0.6-1.9-1-3.8-1.4-5.6c-0.1-0.4-0.6-0.8-1-0.7c-0.4,0.1-0.7,0.6-0.6,1.1c0.3,1.4,0.6,3.1,1.1,4.6c-0.3,0-0.6,0-1,0
	c-0.3,0-0.6,0-0.8,0c-0.4,0-0.8,0.4-0.8,0.9C82.8,190,83.2,190.4,83.6,190.4z"/>
<path d="M83.5,195.2c0.6,0,1.2-0.1,1.9-0.3c2.5-0.8,4.7-2.9,5.2-5.2c0.1-0.4-0.2-0.9-0.6-1.1c-0.4-0.1-0.8,0.2-1,0.7
	c-0.3,1.6-2.1,3.3-4.1,3.9c-1.5,0.4-2.8,0.2-3.6-0.7c-0.3-0.4-0.8-0.4-1.1,0c-0.3,0.3-0.3,0.9,0,1.2
	C81.1,194.7,82.2,195.2,83.5,195.2z"/>
<path d="M86.9,200c2.5,0,4.9-0.1,7.2-0.4c0.3-0.1,0.7-0.4,0.7-0.8c0.2-2.5-0.1-4.8-0.4-7.1c-0.3-2-0.6-3.9-0.5-5.9
	c0-0.4-0.3-0.9-0.8-0.9c-0.4,0-0.8,0.3-0.8,0.8c-0.1,2.2,0.2,4.3,0.5,6.3c0.3,1.9,0.6,3.9,0.5,5.9c-5.3,0.5-11.6,0.4-18.8-0.5
	c-0.5-5.1-0.1-9.2,1-9.8c0.4-0.2,0.6-0.8,0.3-1.1c-0.2-0.4-0.7-0.6-1-0.4c-2.5,1.4-2.2,8.2-1.8,12.2c0.1,0.4,0.3,0.8,0.7,0.8
	C78.4,199.7,82.9,200,86.9,200z"/>
<path d="M73.6,188.9c0.1,0,0.3,0,0.6,0c0.4,0,0.8-0.4,0.8-0.9c0-0.4-0.4-0.8-0.8-0.8c-2.5,0.2-3.5-1.4-3.8-2.4
	c-0.6-1.6-0.3-3.4,0.6-4.3c0.8-0.7,1.9-0.5,3.4,0.4c0.3,0.2,0.8,0.1,1.1-0.3c0.3-0.4,0.1-0.9-0.3-1.2c-2.7-1.9-4.5-1.1-5.2-0.3
	c-1.4,1.3-1.9,4-1,6.2C69.6,187.6,71.4,188.9,73.6,188.9z"/>
<path d="M94.2,188c1.2,0,1.9-0.6,2.3-1.1c0.8-1,1.1-2.6,0.6-4c-0.6-1.7-2-2.9-3.8-3.1c-0.4-0.1-0.8,0.3-0.9,0.8
	c-0.1,0.4,0.3,0.9,0.7,1c1.8,0.2,2.4,1.5,2.6,2c0.3,0.8,0.1,1.6-0.3,2.2c-0.6,0.6-1.4,0.5-2,0.3c-0.4-0.1-0.9,0.1-1,0.6
	c-0.1,0.4,0.1,1,0.6,1.1C93.4,187.9,93.8,188,94.2,188z"/>
<path d="M73.6,177.9L73.6,177.9c0.5-0.1,0.8-0.4,0.8-1c-0.1-1.1,0.1-2.8,0.3-4.3c0.1-0.4,0.1-0.7,0.1-1.1c3.9-0.3,8.9,0.8,14.6,3.1
	c0.4,0.1,0.9-0.1,1-0.5c0.1-0.4-0.1-1-0.5-1.1c-6.4-2.6-11.6-3.6-15.9-3.1c-0.3,0.1-0.7,0.4-0.7,0.8c-0.1,0.5-0.1,1.1-0.2,1.6
	c-0.2,1.6-0.5,3.3-0.3,4.6C72.9,177.6,73.2,177.9,73.6,177.9z"/>
<path d="M72.4,178.5c0.1,0,0.3,0,0.4,0c0.4-0.1,0.8-0.4,0.7-1c-0.1-0.4-0.4-0.8-0.9-0.8c-1.2,0.1-1.9-1-2.2-1.9
	c-1.1-2.7-0.8-7.1,0.5-8.2c0.2-0.1,0.7-0.6,1.9,0.2c0.2,0.1,0.5,0.1,0.7,0.1c0.2-0.1,0.4-0.3,0.5-0.5c1.9-6,5.9-8.3,12.4-7.1
	c3,0.5,5.2,2.8,5.9,6.1c0.9,4.1-0.5,8.7-3.3,11.1c-0.3,0.3-0.4,0.8-0.1,1.2c0.3,0.4,0.8,0.4,1.1,0.1c3.3-2.8,5-8,3.9-12.8
	c-0.9-4.1-3.5-6.8-7.1-7.4c-6.8-1.3-11.5,1.2-13.8,7.3c-1.4-0.6-2.4-0.1-2.9,0.4c-2.1,1.9-2.2,7.1-1,10.3
	C69.7,177.4,70.9,178.5,72.4,178.5z"/>
<path d="M86.5,225.7c0.1,0,0.1,0,0.2,0c1.1-0.3,1.4-1,1.6-1.4c0.3-1.5-1.1-3.1-1.7-3.8c-1.9-1.9-3.3-2-5.2-2c-1.9,0.1-4.3,0.3-5.6,2
	c-0.8,1.1-1.2,2.6-1,4.5c0.1,0.4,0.4,0.8,0.9,0.8c0.4-0.1,0.8-0.5,0.7-1c-0.1-1.4,0-2.5,0.6-3.1c0.7-0.9,2.1-1.4,4.5-1.4
	c1.8,0,2.7,0.1,4.1,1.5c0.9,1,1.3,1.8,1.2,2.1c0,0-0.1,0.1-0.4,0.2c-0.4,0.1-0.7,0.6-0.6,1.1C85.8,225.4,86.1,225.7,86.5,225.7z"/>
<path d="M66,223.1c0.3,0,0.6-0.2,0.8-0.5c0.6-1.4,1.2-2.8,2-4.2c0.6-1.3,1.3-2.6,1.9-3.9c0.1-0.4,0.4-0.9,0.7-1.5
	c2.9-6.1,4.3-9.6,2.9-11.1c-0.3-0.4-0.8-0.4-1.1,0c-0.3,0.3-0.3,0.9,0,1.2c0.3,0.3,0.3,1.9-3.2,9.1c-0.3,0.7-0.6,1.2-0.8,1.6
	c-0.6,1.3-1.2,2.6-1.8,3.8c-0.7,1.4-1.4,2.9-2.1,4.4c-0.2,0.4,0,1,0.4,1.1C65.8,223.1,65.9,223.1,66,223.1z"/>
<path d="M75.6,225.2c0.1,0,0.3,0,0.3-0.1c0.4-0.2,0.6-0.8,0.3-1.2c-1-2.2-1-6.4-0.9-9.5c0-0.7,0-1.2,0-1.8c0-1.6-0.1-3.8-0.3-5.9
	c-0.1-1.4-0.2-2.6-0.2-3.2c0-0.4-0.3-0.8-0.8-0.8l0,0c-0.4,0-0.8,0.4-0.8,0.9c0,0.7,0.1,1.9,0.2,3.4c0.1,1.9,0.3,4.2,0.3,5.7
	c0,0.5,0,1.1,0,1.7c-0.1,3.3-0.1,7.7,1,10.4C74.9,225,75.2,225.2,75.6,225.2z"/>
<path d="M85,218.4c0.1,0,0.1,0,0.2,0c0.3-0.1,0.6-0.4,0.6-0.8c0.1-1,0-1.9-0.3-2.8c0.1-0.4,0.3-1,0.5-1.5c0.1-0.4,0.3-0.7,0.3-1.1
	c0.5-1.4,0.8-3,1.1-4.4c0.4-2,0.9-4.2,1.7-6.1c0.2-0.4,0-1-0.4-1.1c-0.4-0.2-0.9,0-1,0.4c-0.9,2.1-1.4,4.3-1.8,6.4
	c-0.3,1.4-0.6,2.9-1,4.3c-0.1,0.3-0.2,0.6-0.3,0.9c-0.6-1.1-1.4-2.2-2.2-3.4c-2.1-2.8-3.9-5.5-3.2-8.1c0.1-0.4-0.1-0.9-0.6-1.1
	c-0.4-0.1-0.8,0.1-1,0.6c-0.9,3.4,1.3,6.6,3.4,9.6c1.1,1.6,2.2,3.1,2.7,4.6c-0.2,1.1-0.1,2.2,0.6,3.1
	C84.5,218.3,84.7,218.4,85,218.4z"/>
<path d="M83.6,211.7c0.2,0,0.4-0.1,0.6-0.2c1.2-1.2,1.6-3.6,1-5.6c-0.1-0.3-0.2-0.5-0.3-0.8c0.3-0.4,0.5-0.9,0.5-1.5
	c0.1-1-0.8-2.2-1.8-3.4l-0.2-0.3c-0.1-0.1-0.2-0.2-0.4-0.3c-0.8-0.2-1.4,0.1-1.9,0.9c-0.2,0.4-0.1,1,0.3,1.2c0.3,0.2,0.8,0.1,1-0.3
	c0.9,1.1,1.4,1.8,1.4,2.1c0,0.1,0,0.2-0.1,0.3c-0.4-0.3-0.9-0.4-1.4-0.5c-0.3,0-0.6,0.1-0.7,0.3c-0.1,0.2-0.2,0.5-0.1,0.8
	c0.3,1.1,1.1,1.6,2,1.6c0.1,0.1,0.1,0.4,0.2,0.5c0.4,1.3,0.1,2.9-0.6,3.8c-0.3,0.3-0.3,0.9-0.1,1.2
	C83.2,211.6,83.4,211.7,83.6,211.7z"/>
<path d="M92.7,225.7L92.7,225.7c0.5-0.1,0.8-0.4,0.8-0.9c-0.1-1.9,0-3.8,0.2-5.8c0.1-1.6,0.3-3.4,0.3-5c0-1.6-0.3-3.3-0.6-4.9
	c-0.3-1.9-0.6-3.8-0.6-5.6c0.1-0.1,0.1-0.3,0.1-0.4v-0.9c0-0.4-0.3-0.8-0.8-0.9c-0.4,0-0.8,0.3-0.8,0.8c-0.3,2.3,0.1,4.8,0.4,7.3
	c0.3,1.6,0.6,3.1,0.6,4.6c0,1.6-0.1,3.2-0.3,4.8c-0.2,2-0.3,4.1-0.2,6.1C91.9,225.3,92.2,225.7,92.7,225.7z"/>
<path d="M98.4,221.5c0.3,0,0.6-0.1,0.7-0.4c0.2-0.4,0.1-1-0.3-1.2c-3.3-1.9-4.1-3.3-4.4-7.6l-0.1-1c-0.1-1.9-0.5-6.8-0.4-7.6
	c0.1-0.4-0.1-0.8-0.4-1c-0.4-0.2-0.9-0.1-1.1,0.4c-0.1,0.3-0.2,0.5,0.3,8.4l0.2,1c0.3,4.9,1.4,6.8,5.2,9
	C98.1,221.5,98.2,221.5,98.4,221.5z"/>
<path d="M104,225c0.8,0,1.6-0.2,2.3-0.7c1.8-1.1,3-2.9,2.9-4.7c-0.1-0.8-0.5-2.4-2.6-3.2c-4.2-1.6-6.4,2.2-8,4.9
	c-0.2,0.3-0.3,0.6-0.5,0.9c-0.2,0.4-0.1,0.9,0.2,1.2c0.3,0.2,0.8,0.1,1.1-0.2c0.2-0.3,0.3-0.6,0.6-0.9c1.9-3.3,3.4-5.3,6.1-4.3
	c1,0.4,1.5,1,1.6,1.7c0.1,1.1-0.8,2.3-2.1,3.1c-0.6,0.3-2.1,1-3.5-0.2c-0.3-0.3-0.8-0.2-1.1,0.1s-0.2,0.9,0.1,1.2
	C102,224.7,103,225,104,225z"/>
<path d="M108.4,207.2l0.2,0.8L108.4,207.2z M107.8,218L107.8,218c0.6,0,1-0.4,1-0.9c0-0.4,0.3-1.9,0.6-3.1c0.9-3.8,1.4-6.1,0.3-7.1
	c-0.3-0.4-0.9-0.4-1.5-0.4c-0.5,0.1-0.9,0.5-0.8,1c0.1,0.4,0.4,0.7,0.9,0.7c0.3,0.9-0.5,4-0.9,5.5c-0.4,1.8-0.7,2.9-0.7,3.6
	C106.8,217.6,107.3,218,107.8,218z"/>
<g>
	<path d="M163.2,124v-11.5h3.9c0.9,0,1.6,0.1,2,0.2c0.7,0.2,1.2,0.4,1.7,0.8c0.6,0.5,1.1,1.2,1.4,2c0.3,0.8,0.4,1.7,0.4,2.7
		c0,0.9-0.1,1.6-0.3,2.3s-0.5,1.2-0.8,1.7c-0.3,0.4-0.7,0.8-1,1c-0.4,0.3-0.8,0.4-1.4,0.6c-0.5,0.1-1.1,0.2-1.8,0.2H163.2z
		 M164.8,122.6h2.4c0.8,0,1.3-0.1,1.8-0.2s0.8-0.3,1-0.6c0.4-0.4,0.6-0.8,0.8-1.4c0.2-0.6,0.3-1.3,0.3-2.2c0-1.2-0.2-2.1-0.6-2.8
		c-0.4-0.6-0.9-1.1-1.4-1.3c-0.4-0.2-1.1-0.2-2-0.2h-2.4V122.6z"/>
	<path d="M180.3,121.3l1.5,0.2c-0.2,0.8-0.7,1.5-1.3,2c-0.6,0.5-1.4,0.7-2.4,0.7c-1.2,0-2.2-0.4-2.9-1.1c-0.7-0.7-1.1-1.8-1.1-3.1
		c0-1.4,0.4-2.5,1.1-3.2c0.7-0.8,1.7-1.2,2.8-1.2c1.1,0,2,0.4,2.7,1.1c0.7,0.8,1.1,1.8,1.1,3.2c0,0.1,0,0.2,0,0.4h-6.2
		c0.1,0.9,0.3,1.6,0.8,2.1c0.5,0.5,1,0.7,1.7,0.7c0.5,0,1-0.1,1.3-0.4C179.8,122.4,180.1,121.9,180.3,121.3z M175.7,119.1h4.6
		c-0.1-0.7-0.2-1.2-0.5-1.6c-0.4-0.5-1-0.8-1.7-0.8c-0.6,0-1.2,0.2-1.6,0.6C176,117.8,175.7,118.3,175.7,119.1z"/>
	<path d="M185.8,124l-3.2-8.3h1.5l1.8,5c0.2,0.5,0.4,1.1,0.5,1.7c0.1-0.4,0.3-1,0.5-1.6l1.8-5.1h1.4l-3.1,8.3H185.8z"/>
	<path d="M197.2,121.3l1.5,0.2c-0.2,0.8-0.7,1.5-1.3,2c-0.6,0.5-1.4,0.7-2.4,0.7c-1.2,0-2.2-0.4-2.9-1.1c-0.7-0.7-1.1-1.8-1.1-3.1
		c0-1.4,0.4-2.5,1.1-3.2c0.7-0.8,1.7-1.2,2.8-1.2c1.1,0,2,0.4,2.7,1.1c0.7,0.8,1.1,1.8,1.1,3.2c0,0.1,0,0.2,0,0.4h-6.2
		c0.1,0.9,0.3,1.6,0.8,2.1c0.5,0.5,1,0.7,1.7,0.7c0.5,0,1-0.1,1.3-0.4C196.7,122.4,197,121.9,197.2,121.3z M192.6,119.1h4.6
		c-0.1-0.7-0.2-1.2-0.5-1.6c-0.4-0.5-1-0.8-1.7-0.8c-0.6,0-1.2,0.2-1.6,0.6C192.9,117.8,192.6,118.3,192.6,119.1z"/>
	<path d="M200.4,124v-11.5h1.4V124H200.4z"/>
	<path d="M203.4,119.9c0-1.5,0.4-2.7,1.3-3.4c0.7-0.6,1.6-0.9,2.6-0.9c1.1,0,2.1,0.4,2.8,1.1c0.7,0.7,1.1,1.8,1.1,3.1
		c0,1.1-0.2,1.9-0.5,2.5c-0.3,0.6-0.8,1.1-1.4,1.4c-0.6,0.3-1.3,0.5-2,0.5c-1.2,0-2.1-0.4-2.8-1.1
		C203.8,122.3,203.4,121.3,203.4,119.9z M204.9,119.9c0,1.1,0.2,1.9,0.7,2.4c0.5,0.5,1,0.8,1.8,0.8c0.7,0,1.3-0.3,1.7-0.8
		c0.5-0.5,0.7-1.3,0.7-2.4c0-1-0.2-1.8-0.7-2.3c-0.5-0.5-1-0.8-1.7-0.8c-0.7,0-1.3,0.3-1.8,0.8C205.1,118,204.9,118.8,204.9,119.9z"
		/>
	<path d="M212.9,127.2v-11.5h1.3v1.1c0.3-0.4,0.6-0.7,1-0.9c0.4-0.2,0.8-0.3,1.4-0.3c0.7,0,1.3,0.2,1.9,0.5c0.5,0.4,1,0.9,1.2,1.5
		c0.3,0.7,0.4,1.4,0.4,2.2c0,0.8-0.2,1.6-0.5,2.3s-0.7,1.2-1.3,1.6c-0.6,0.4-1.2,0.5-1.8,0.5c-0.5,0-0.9-0.1-1.3-0.3
		c-0.4-0.2-0.7-0.4-0.9-0.8v4H212.9z M214.1,119.9c0,1.1,0.2,1.9,0.6,2.4c0.4,0.5,1,0.8,1.6,0.8c0.6,0,1.2-0.3,1.6-0.8
		c0.4-0.5,0.7-1.3,0.7-2.5c0-1.1-0.2-1.8-0.7-2.4c-0.4-0.5-1-0.8-1.6-0.8c-0.6,0-1.1,0.3-1.6,0.8C214.4,118,214.1,118.8,214.1,119.9
		z"/>
	<path d="M227.4,121.3l1.5,0.2c-0.2,0.8-0.7,1.5-1.3,2c-0.6,0.5-1.4,0.7-2.4,0.7c-1.2,0-2.2-0.4-2.9-1.1c-0.7-0.7-1.1-1.8-1.1-3.1
		c0-1.4,0.4-2.5,1.1-3.2c0.7-0.8,1.7-1.2,2.8-1.2c1.1,0,2,0.4,2.7,1.1c0.7,0.8,1.1,1.8,1.1,3.2c0,0.1,0,0.2,0,0.4h-6.2
		c0.1,0.9,0.3,1.6,0.8,2.1c0.5,0.5,1,0.7,1.7,0.7c0.5,0,1-0.1,1.3-0.4C226.9,122.4,227.2,121.9,227.4,121.3z M222.8,119.1h4.6
		c-0.1-0.7-0.2-1.2-0.5-1.6c-0.4-0.5-1-0.8-1.7-0.8c-0.6,0-1.2,0.2-1.6,0.6C223.1,117.8,222.9,118.3,222.8,119.1z"/>
	<path d="M230.6,124v-8.3h1.3v1.3c0.3-0.6,0.6-1,0.9-1.2s0.6-0.3,0.9-0.3c0.5,0,1,0.2,1.4,0.5l-0.5,1.3c-0.3-0.2-0.7-0.3-1-0.3
		c-0.3,0-0.6,0.1-0.8,0.3c-0.2,0.2-0.4,0.4-0.5,0.8c-0.2,0.5-0.2,1-0.2,1.6v4.3H230.6z"/>
</g>
<g>
	<path d="M318.4,355v-11.5h3.9c0.9,0,1.6,0.1,2,0.2c0.7,0.2,1.2,0.4,1.7,0.8c0.6,0.5,1.1,1.2,1.4,2c0.3,0.8,0.4,1.7,0.4,2.7
		c0,0.9-0.1,1.6-0.3,2.3s-0.5,1.2-0.8,1.7c-0.3,0.4-0.7,0.8-1,1c-0.4,0.3-0.8,0.4-1.4,0.6c-0.5,0.1-1.1,0.2-1.8,0.2H318.4z
		 M319.9,353.6h2.4c0.8,0,1.3-0.1,1.8-0.2s0.8-0.3,1-0.6c0.4-0.4,0.6-0.8,0.8-1.4c0.2-0.6,0.3-1.3,0.3-2.2c0-1.2-0.2-2.1-0.6-2.8
		c-0.4-0.6-0.9-1.1-1.4-1.3c-0.4-0.2-1.1-0.2-2-0.2h-2.4V353.6z"/>
	<path d="M335.4,352.3l1.5,0.2c-0.2,0.8-0.7,1.5-1.3,2s-1.4,0.7-2.4,0.7c-1.2,0-2.2-0.4-2.9-1.1c-0.7-0.7-1.1-1.8-1.1-3.1
		c0-1.4,0.4-2.5,1.1-3.2c0.7-0.8,1.7-1.2,2.8-1.2c1.1,0,2,0.4,2.7,1.1c0.7,0.8,1.1,1.8,1.1,3.2c0,0.1,0,0.2,0,0.4h-6.2
		c0.1,0.9,0.3,1.6,0.8,2.1s1,0.7,1.7,0.7c0.5,0,1-0.1,1.3-0.4C334.9,353.4,335.2,352.9,335.4,352.3z M330.8,350.1h4.6
		c-0.1-0.7-0.2-1.2-0.5-1.6c-0.4-0.5-1-0.8-1.7-0.8c-0.6,0-1.2,0.2-1.6,0.6C331.1,348.8,330.9,349.3,330.8,350.1z"/>
	<path d="M341,355l-3.2-8.3h1.5l1.8,5c0.2,0.5,0.4,1.1,0.5,1.7c0.1-0.4,0.3-1,0.5-1.6l1.8-5.1h1.4l-3.1,8.3H341z"/>
	<path d="M352.3,352.3l1.5,0.2c-0.2,0.8-0.7,1.5-1.3,2s-1.4,0.7-2.4,0.7c-1.2,0-2.2-0.4-2.9-1.1c-0.7-0.7-1.1-1.8-1.1-3.1
		c0-1.4,0.4-2.5,1.1-3.2c0.7-0.8,1.7-1.2,2.8-1.2c1.1,0,2,0.4,2.7,1.1c0.7,0.8,1.1,1.8,1.1,3.2c0,0.1,0,0.2,0,0.4h-6.2
		c0.1,0.9,0.3,1.6,0.8,2.1s1,0.7,1.7,0.7c0.5,0,1-0.1,1.3-0.4C351.8,353.4,352.1,352.9,352.3,352.3z M347.7,350.1h4.6
		c-0.1-0.7-0.2-1.2-0.5-1.6c-0.4-0.5-1-0.8-1.7-0.8c-0.6,0-1.2,0.2-1.6,0.6C348,348.8,347.8,349.3,347.7,350.1z"/>
	<path d="M355.5,355v-11.5h1.4V355H355.5z"/>
	<path d="M358.6,350.9c0-1.5,0.4-2.7,1.3-3.4c0.7-0.6,1.6-0.9,2.6-0.9c1.1,0,2.1,0.4,2.8,1.1c0.7,0.7,1.1,1.8,1.1,3.1
		c0,1.1-0.2,1.9-0.5,2.5c-0.3,0.6-0.8,1.1-1.4,1.4s-1.3,0.5-2,0.5c-1.2,0-2.1-0.4-2.8-1.1C358.9,353.3,358.6,352.3,358.6,350.9z
		 M360,350.9c0,1.1,0.2,1.9,0.7,2.4c0.5,0.5,1,0.8,1.8,0.8c0.7,0,1.3-0.3,1.7-0.8s0.7-1.3,0.7-2.4c0-1-0.2-1.8-0.7-2.3
		c-0.5-0.5-1-0.8-1.7-0.8c-0.7,0-1.3,0.3-1.8,0.8C360.3,349,360,349.8,360,350.9z"/>
	<path d="M368,358.2v-11.5h1.3v1.1c0.3-0.4,0.6-0.7,1-0.9s0.8-0.3,1.4-0.3c0.7,0,1.3,0.2,1.9,0.5c0.5,0.4,1,0.9,1.2,1.5
		s0.4,1.4,0.4,2.2c0,0.8-0.2,1.6-0.5,2.3s-0.7,1.2-1.3,1.6s-1.2,0.5-1.8,0.5c-0.5,0-0.9-0.1-1.3-0.3s-0.7-0.4-0.9-0.8v4H368z
		 M369.3,350.9c0,1.1,0.2,1.9,0.6,2.4c0.4,0.5,1,0.8,1.6,0.8c0.6,0,1.2-0.3,1.6-0.8c0.4-0.5,0.7-1.3,0.7-2.5c0-1.1-0.2-1.8-0.7-2.4
		c-0.4-0.5-1-0.8-1.6-0.8c-0.6,0-1.1,0.3-1.6,0.8C369.5,349,369.3,349.8,369.3,350.9z"/>
	<path d="M382.6,352.3l1.5,0.2c-0.2,0.8-0.7,1.5-1.3,2s-1.4,0.7-2.4,0.7c-1.2,0-2.2-0.4-2.9-1.1c-0.7-0.7-1.1-1.8-1.1-3.1
		c0-1.4,0.4-2.5,1.1-3.2c0.7-0.8,1.7-1.2,2.8-1.2c1.1,0,2,0.4,2.7,1.1c0.7,0.8,1.1,1.8,1.1,3.2c0,0.1,0,0.2,0,0.4h-6.2
		c0.1,0.9,0.3,1.6,0.8,2.1s1,0.7,1.7,0.7c0.5,0,1-0.1,1.3-0.4C382.1,353.4,382.4,352.9,382.6,352.3z M378,350.1h4.6
		c-0.1-0.7-0.2-1.2-0.5-1.6c-0.4-0.5-1-0.8-1.7-0.8c-0.6,0-1.2,0.2-1.6,0.6C378.3,348.8,378,349.3,378,350.1z"/>
	<path d="M385.8,355v-8.3h1.3v1.3c0.3-0.6,0.6-1,0.9-1.2s0.6-0.3,0.9-0.3c0.5,0,1,0.2,1.4,0.5l-0.5,1.3c-0.3-0.2-0.7-0.3-1-0.3
		c-0.3,0-0.6,0.1-0.8,0.3c-0.2,0.2-0.4,0.4-0.5,0.8c-0.2,0.5-0.2,1-0.2,1.6v4.3H385.8z"/>
</g>
<g>
	<path d="M45.9,355v-11.5h3.9c0.9,0,1.6,0.1,2,0.2c0.7,0.2,1.2,0.4,1.7,0.8c0.6,0.5,1.1,1.2,1.4,2c0.3,0.8,0.4,1.7,0.4,2.7
		c0,0.9-0.1,1.6-0.3,2.3s-0.5,1.2-0.8,1.7c-0.3,0.4-0.7,0.8-1,1c-0.4,0.3-0.8,0.4-1.4,0.6c-0.5,0.1-1.1,0.2-1.8,0.2H45.9z
		 M47.4,353.6h2.4c0.8,0,1.3-0.1,1.8-0.2s0.8-0.3,1-0.6c0.4-0.4,0.6-0.8,0.8-1.4c0.2-0.6,0.3-1.3,0.3-2.2c0-1.2-0.2-2.1-0.6-2.8
		c-0.4-0.6-0.9-1.1-1.4-1.3c-0.4-0.2-1.1-0.2-2-0.2h-2.4V353.6z"/>
	<path d="M62.9,352.3l1.5,0.2c-0.2,0.8-0.7,1.5-1.3,2s-1.4,0.7-2.4,0.7c-1.2,0-2.2-0.4-2.9-1.1c-0.7-0.7-1.1-1.8-1.1-3.1
		c0-1.4,0.4-2.5,1.1-3.2c0.7-0.8,1.7-1.2,2.8-1.2c1.1,0,2,0.4,2.7,1.1c0.7,0.8,1.1,1.8,1.1,3.2c0,0.1,0,0.2,0,0.4h-6.2
		c0.1,0.9,0.3,1.6,0.8,2.1s1,0.7,1.7,0.7c0.5,0,1-0.1,1.3-0.4C62.4,353.4,62.7,352.9,62.9,352.3z M58.3,350.1h4.6
		c-0.1-0.7-0.2-1.2-0.5-1.6c-0.4-0.5-1-0.8-1.7-0.8c-0.6,0-1.2,0.2-1.6,0.6C58.6,348.8,58.4,349.3,58.3,350.1z"/>
	<path d="M68.5,355l-3.2-8.3h1.5l1.8,5c0.2,0.5,0.4,1.1,0.5,1.7c0.1-0.4,0.3-1,0.5-1.6l1.8-5.1h1.4l-3.1,8.3H68.5z"/>
	<path d="M79.8,352.3l1.5,0.2c-0.2,0.8-0.7,1.5-1.3,2s-1.4,0.7-2.4,0.7c-1.2,0-2.2-0.4-2.9-1.1c-0.7-0.7-1.1-1.8-1.1-3.1
		c0-1.4,0.4-2.5,1.1-3.2c0.7-0.8,1.7-1.2,2.8-1.2c1.1,0,2,0.4,2.7,1.1c0.7,0.8,1.1,1.8,1.1,3.2c0,0.1,0,0.2,0,0.4h-6.2
		c0.1,0.9,0.3,1.6,0.8,2.1s1,0.7,1.7,0.7c0.5,0,1-0.1,1.3-0.4C79.3,353.4,79.6,352.9,79.8,352.3z M75.2,350.1h4.6
		c-0.1-0.7-0.2-1.2-0.5-1.6c-0.4-0.5-1-0.8-1.7-0.8c-0.6,0-1.2,0.2-1.6,0.6C75.5,348.8,75.3,349.3,75.2,350.1z"/>
	<path d="M83,355v-11.5h1.4V355H83z"/>
	<path d="M86.1,350.9c0-1.5,0.4-2.7,1.3-3.4c0.7-0.6,1.6-0.9,2.6-0.9c1.1,0,2.1,0.4,2.8,1.1c0.7,0.7,1.1,1.8,1.1,3.1
		c0,1.1-0.2,1.9-0.5,2.5c-0.3,0.6-0.8,1.1-1.4,1.4s-1.3,0.5-2,0.5c-1.2,0-2.1-0.4-2.8-1.1C86.4,353.3,86.1,352.3,86.1,350.9z
		 M87.5,350.9c0,1.1,0.2,1.9,0.7,2.4c0.5,0.5,1,0.8,1.8,0.8c0.7,0,1.3-0.3,1.7-0.8s0.7-1.3,0.7-2.4c0-1-0.2-1.8-0.7-2.3
		c-0.5-0.5-1-0.8-1.7-0.8c-0.7,0-1.3,0.3-1.8,0.8C87.8,349,87.5,349.8,87.5,350.9z"/>
	<path d="M95.5,358.2v-11.5h1.3v1.1c0.3-0.4,0.6-0.7,1-0.9s0.8-0.3,1.4-0.3c0.7,0,1.3,0.2,1.9,0.5c0.5,0.4,1,0.9,1.2,1.5
		s0.4,1.4,0.4,2.2c0,0.8-0.2,1.6-0.5,2.3s-0.7,1.2-1.3,1.6s-1.2,0.5-1.8,0.5c-0.5,0-0.9-0.1-1.3-0.3s-0.7-0.4-0.9-0.8v4H95.5z
		 M96.8,350.9c0,1.1,0.2,1.9,0.6,2.4c0.4,0.5,1,0.8,1.6,0.8c0.6,0,1.2-0.3,1.6-0.8c0.4-0.5,0.7-1.3,0.7-2.5c0-1.1-0.2-1.8-0.7-2.4
		c-0.4-0.5-1-0.8-1.6-0.8c-0.6,0-1.1,0.3-1.6,0.8C97,349,96.8,349.8,96.8,350.9z"/>
	<path d="M110.1,352.3l1.5,0.2c-0.2,0.8-0.7,1.5-1.3,2s-1.4,0.7-2.4,0.7c-1.2,0-2.2-0.4-2.9-1.1c-0.7-0.7-1.1-1.8-1.1-3.1
		c0-1.4,0.4-2.5,1.1-3.2c0.7-0.8,1.7-1.2,2.8-1.2c1.1,0,2,0.4,2.7,1.1c0.7,0.8,1.1,1.8,1.1,3.2c0,0.1,0,0.2,0,0.4h-6.2
		c0.1,0.9,0.3,1.6,0.8,2.1s1,0.7,1.7,0.7c0.5,0,1-0.1,1.3-0.4C109.6,353.4,109.9,352.9,110.1,352.3z M105.5,350.1h4.6
		c-0.1-0.7-0.2-1.2-0.5-1.6c-0.4-0.5-1-0.8-1.7-0.8c-0.6,0-1.2,0.2-1.6,0.6C105.7,348.8,105.5,349.3,105.5,350.1z"/>
	<path d="M113.3,355v-8.3h1.3v1.3c0.3-0.6,0.6-1,0.9-1.2s0.6-0.3,0.9-0.3c0.5,0,1,0.2,1.4,0.5l-0.5,1.3c-0.3-0.2-0.7-0.3-1-0.3
		c-0.3,0-0.6,0.1-0.8,0.3c-0.2,0.2-0.4,0.4-0.5,0.8c-0.2,0.5-0.2,1-0.2,1.6v4.3H113.3z"/>
</g>
<g>
	<path d="M323.5,206.4l-3-11.5h1.6l1.7,7.5c0.2,0.8,0.3,1.6,0.5,2.3c0.3-1.2,0.5-1.9,0.5-2.1l2.2-7.7h1.8l1.6,5.8
		c0.4,1.4,0.7,2.8,0.9,4.1c0.1-0.7,0.3-1.6,0.6-2.5l1.8-7.4h1.5l-3.1,11.5h-1.5l-2.4-8.7c-0.2-0.7-0.3-1.2-0.4-1.3
		c-0.1,0.5-0.2,1-0.3,1.3l-2.4,8.7H323.5z"/>
	<path d="M336.1,206.4v-8.3h1.3v1.3c0.3-0.6,0.6-1,0.9-1.2s0.6-0.3,0.9-0.3c0.5,0,1,0.2,1.4,0.5l-0.5,1.3c-0.3-0.2-0.7-0.3-1-0.3
		c-0.3,0-0.6,0.1-0.8,0.3c-0.2,0.2-0.4,0.4-0.5,0.8c-0.2,0.5-0.2,1-0.2,1.6v4.3H336.1z"/>
	<path d="M341.4,196.6v-1.6h1.4v1.6H341.4z M341.4,206.4v-8.3h1.4v8.3H341.4z"/>
	<path d="M348,205.1l0.2,1.2c-0.4,0.1-0.8,0.1-1.1,0.1c-0.5,0-0.9-0.1-1.2-0.2s-0.5-0.4-0.6-0.6c-0.1-0.3-0.2-0.8-0.2-1.7v-4.8h-1
		v-1.1h1V196l1.4-0.8v2.9h1.4v1.1h-1.4v4.9c0,0.4,0,0.7,0.1,0.8c0,0.1,0.1,0.2,0.2,0.3c0.1,0.1,0.3,0.1,0.5,0.1
		C347.6,205.2,347.8,205.2,348,205.1z"/>
	<path d="M355.1,203.7l1.5,0.2c-0.2,0.8-0.7,1.5-1.3,2c-0.6,0.5-1.4,0.7-2.4,0.7c-1.2,0-2.2-0.4-2.9-1.1c-0.7-0.7-1.1-1.8-1.1-3.1
		c0-1.4,0.4-2.5,1.1-3.2c0.7-0.8,1.7-1.2,2.8-1.2c1.1,0,2,0.4,2.7,1.1c0.7,0.8,1.1,1.8,1.1,3.2c0,0.1,0,0.2,0,0.4h-6.2
		c0.1,0.9,0.3,1.6,0.8,2.1c0.5,0.5,1,0.7,1.7,0.7c0.5,0,1-0.1,1.3-0.4C354.6,204.8,354.9,204.3,355.1,203.7z M350.5,201.5h4.6
		c-0.1-0.7-0.2-1.2-0.5-1.6c-0.4-0.5-1-0.8-1.7-0.8c-0.6,0-1.2,0.2-1.6,0.6C350.8,200.1,350.5,200.7,350.5,201.5z"/>
	<path d="M358.3,206.4v-8.3h1.3v1.3c0.3-0.6,0.6-1,0.9-1.2s0.6-0.3,0.9-0.3c0.5,0,1,0.2,1.4,0.5l-0.5,1.3c-0.3-0.2-0.7-0.3-1-0.3
		c-0.3,0-0.6,0.1-0.8,0.3c-0.2,0.2-0.4,0.4-0.5,0.8c-0.2,0.5-0.2,1-0.2,1.6v4.3H358.3z"/>
</g>
<g>
	<path d="M67.5,242.4l-3-11.5H66l1.7,7.5c0.2,0.8,0.3,1.6,0.5,2.3c0.3-1.2,0.5-1.9,0.5-2.1l2.2-7.7h1.8l1.6,5.8
		c0.4,1.4,0.7,2.8,0.9,4.1c0.1-0.7,0.3-1.6,0.6-2.5l1.8-7.4h1.5L76,242.4h-1.5l-2.4-8.7c-0.2-0.7-0.3-1.2-0.4-1.3
		c-0.1,0.5-0.2,1-0.3,1.3l-2.4,8.7H67.5z"/>
	<path d="M80.1,242.4v-8.3h1.3v1.3c0.3-0.6,0.6-1,0.9-1.2s0.6-0.3,0.9-0.3c0.5,0,1,0.2,1.4,0.5l-0.5,1.3c-0.3-0.2-0.7-0.3-1-0.3
		c-0.3,0-0.6,0.1-0.8,0.3c-0.2,0.2-0.4,0.4-0.5,0.8c-0.2,0.5-0.2,1-0.2,1.6v4.3H80.1z"/>
	<path d="M85.4,232.6v-1.6h1.4v1.6H85.4z M85.4,242.4v-8.3h1.4v8.3H85.4z"/>
	<path d="M92,241.1l0.2,1.2c-0.4,0.1-0.8,0.1-1.1,0.1c-0.5,0-0.9-0.1-1.2-0.2s-0.5-0.4-0.6-0.6c-0.1-0.3-0.2-0.8-0.2-1.7v-4.8h-1
		v-1.1h1V232l1.4-0.8v2.9H92v1.1h-1.4v4.9c0,0.4,0,0.7,0.1,0.8c0,0.1,0.1,0.2,0.2,0.3c0.1,0.1,0.3,0.1,0.5,0.1
		C91.6,241.2,91.8,241.2,92,241.1z"/>
	<path d="M99.1,239.7l1.5,0.2c-0.2,0.8-0.7,1.5-1.3,2c-0.6,0.5-1.4,0.7-2.4,0.7c-1.2,0-2.2-0.4-2.9-1.1c-0.7-0.7-1.1-1.8-1.1-3.1
		c0-1.4,0.4-2.5,1.1-3.2c0.7-0.8,1.7-1.2,2.8-1.2c1.1,0,2,0.4,2.7,1.1c0.7,0.8,1.1,1.8,1.1,3.2c0,0.1,0,0.2,0,0.4h-6.2
		c0.1,0.9,0.3,1.6,0.8,2.1c0.5,0.5,1,0.7,1.7,0.7c0.5,0,1-0.1,1.3-0.4C98.6,240.8,98.9,240.3,99.1,239.7z M94.5,237.5h4.6
		c-0.1-0.7-0.2-1.2-0.5-1.6c-0.4-0.5-1-0.8-1.7-0.8c-0.6,0-1.2,0.2-1.6,0.6C94.8,236.1,94.5,236.7,94.5,237.5z"/>
	<path d="M102.3,242.4v-8.3h1.3v1.3c0.3-0.6,0.6-1,0.9-1.2s0.6-0.3,0.9-0.3c0.5,0,1,0.2,1.4,0.5l-0.5,1.3c-0.3-0.2-0.7-0.3-1-0.3
		c-0.3,0-0.6,0.1-0.8,0.3c-0.2,0.2-0.4,0.4-0.5,0.8c-0.2,0.5-0.2,1-0.2,1.6v4.3H102.3z"/>
</g>
<g>
	<path d="M140.5,285.4v-11.5h3.9c0.9,0,1.6,0.1,2,0.2c0.7,0.2,1.2,0.4,1.7,0.8c0.6,0.5,1.1,1.2,1.4,2c0.3,0.8,0.4,1.7,0.4,2.7
		c0,0.9-0.1,1.6-0.3,2.3s-0.5,1.2-0.8,1.7c-0.3,0.4-0.7,0.8-1,1c-0.4,0.3-0.8,0.4-1.4,0.6c-0.5,0.1-1.1,0.2-1.8,0.2H140.5z M142,284
		h2.4c0.8,0,1.3-0.1,1.8-0.2s0.8-0.3,1-0.6c0.4-0.4,0.6-0.8,0.8-1.4c0.2-0.6,0.3-1.3,0.3-2.2c0-1.2-0.2-2.1-0.6-2.8
		c-0.4-0.6-0.9-1.1-1.4-1.3c-0.4-0.2-1.1-0.2-2-0.2H142V284z"/>
	<path d="M151.3,281.2c0-1.5,0.4-2.7,1.3-3.4c0.7-0.6,1.6-0.9,2.6-0.9c1.1,0,2.1,0.4,2.8,1.1c0.7,0.7,1.1,1.8,1.1,3.1
		c0,1.1-0.2,1.9-0.5,2.5c-0.3,0.6-0.8,1.1-1.4,1.4c-0.6,0.3-1.3,0.5-2,0.5c-1.2,0-2.1-0.4-2.8-1.1
		C151.7,283.7,151.3,282.6,151.3,281.2z M152.7,281.2c0,1.1,0.2,1.9,0.7,2.4c0.5,0.5,1,0.8,1.8,0.8c0.7,0,1.3-0.3,1.7-0.8
		c0.5-0.5,0.7-1.3,0.7-2.4c0-1-0.2-1.8-0.7-2.3c-0.5-0.5-1-0.8-1.7-0.8c-0.7,0-1.3,0.3-1.8,0.8C153,279.4,152.7,280.2,152.7,281.2z"
		/>
	<path d="M166.1,282.4l1.4,0.2c-0.2,1-0.5,1.7-1.2,2.2c-0.6,0.5-1.4,0.8-2.3,0.8c-1.1,0-2-0.4-2.7-1.1c-0.7-0.7-1-1.8-1-3.2
		c0-0.9,0.1-1.7,0.4-2.4s0.7-1.2,1.4-1.5c0.6-0.3,1.3-0.5,2-0.5c0.9,0,1.6,0.2,2.2,0.7c0.6,0.5,0.9,1.1,1.1,1.9l-1.4,0.2
		c-0.1-0.6-0.4-1-0.7-1.3c-0.3-0.3-0.7-0.4-1.2-0.4c-0.7,0-1.3,0.3-1.7,0.8c-0.4,0.5-0.7,1.3-0.7,2.4c0,1.1,0.2,1.9,0.6,2.4
		c0.4,0.5,1,0.8,1.7,0.8c0.6,0,1-0.2,1.4-0.5C165.8,283.6,166,283.1,166.1,282.4z"/>
	<path d="M174.2,285.4v-1.2c-0.6,0.9-1.5,1.4-2.6,1.4c-0.5,0-0.9-0.1-1.4-0.3c-0.4-0.2-0.7-0.4-0.9-0.7c-0.2-0.3-0.4-0.6-0.4-1
		c-0.1-0.3-0.1-0.7-0.1-1.3v-5.1h1.4v4.6c0,0.7,0,1.2,0.1,1.5c0.1,0.4,0.3,0.7,0.6,0.9c0.3,0.2,0.6,0.3,1.1,0.3s0.8-0.1,1.2-0.3
		c0.4-0.2,0.6-0.5,0.8-0.9c0.2-0.4,0.2-0.9,0.2-1.6v-4.4h1.4v8.3H174.2z"/>
	<path d="M177.6,285.4v-8.3h1.3v1.2c0.3-0.4,0.6-0.7,1-1c0.4-0.2,0.9-0.4,1.5-0.4c0.6,0,1.1,0.1,1.5,0.4c0.4,0.3,0.7,0.6,0.8,1.1
		c0.7-1,1.5-1.5,2.6-1.5c0.8,0,1.5,0.2,1.9,0.7c0.4,0.5,0.7,1.2,0.7,2.1v5.7h-1.4v-5.2c0-0.6,0-1-0.1-1.2c-0.1-0.2-0.3-0.4-0.5-0.6
		c-0.2-0.2-0.5-0.2-0.8-0.2c-0.6,0-1.1,0.2-1.5,0.6c-0.4,0.4-0.6,1-0.6,1.9v4.8h-1.4V280c0-0.6-0.1-1.1-0.3-1.4
		c-0.2-0.3-0.6-0.5-1.1-0.5c-0.4,0-0.8,0.1-1.1,0.3c-0.3,0.2-0.6,0.5-0.7,0.9c-0.2,0.4-0.2,1-0.2,1.7v4.3H177.6z"/>
	<path d="M196.6,282.7l1.5,0.2c-0.2,0.8-0.7,1.5-1.3,2c-0.6,0.5-1.4,0.7-2.4,0.7c-1.2,0-2.2-0.4-2.9-1.1c-0.7-0.7-1.1-1.8-1.1-3.1
		c0-1.4,0.4-2.5,1.1-3.2c0.7-0.8,1.7-1.2,2.8-1.2c1.1,0,2,0.4,2.7,1.1c0.7,0.8,1.1,1.8,1.1,3.2c0,0.1,0,0.2,0,0.4h-6.2
		c0.1,0.9,0.3,1.6,0.8,2.1c0.5,0.5,1,0.7,1.7,0.7c0.5,0,1-0.1,1.3-0.4C196.1,283.8,196.4,283.3,196.6,282.7z M192,280.5h4.6
		c-0.1-0.7-0.2-1.2-0.5-1.6c-0.4-0.5-1-0.8-1.7-0.8c-0.6,0-1.2,0.2-1.6,0.6C192.3,279.1,192.1,279.7,192,280.5z"/>
	<path d="M199.8,285.4v-8.3h1.3v1.2c0.6-0.9,1.5-1.4,2.6-1.4c0.5,0,1,0.1,1.4,0.3c0.4,0.2,0.7,0.4,0.9,0.7c0.2,0.3,0.4,0.6,0.4,1
		c0.1,0.3,0.1,0.7,0.1,1.4v5.1h-1.4v-5c0-0.6-0.1-1-0.2-1.3c-0.1-0.3-0.3-0.5-0.6-0.7c-0.3-0.2-0.6-0.3-1-0.3
		c-0.6,0-1.1,0.2-1.6,0.6c-0.4,0.4-0.7,1.1-0.7,2.2v4.5H199.8z"/>
	<path d="M211.8,284.1l0.2,1.2c-0.4,0.1-0.8,0.1-1.1,0.1c-0.5,0-0.9-0.1-1.2-0.2s-0.5-0.4-0.6-0.6c-0.1-0.3-0.2-0.8-0.2-1.7v-4.8h-1
		v-1.1h1V275l1.4-0.8v2.9h1.4v1.1h-1.4v4.9c0,0.4,0,0.7,0.1,0.8c0,0.1,0.1,0.2,0.2,0.3c0.1,0.1,0.3,0.1,0.5,0.1
		C211.4,284.2,211.6,284.2,211.8,284.1z"/>
	<path d="M218.6,284.4c-0.5,0.4-1,0.8-1.5,0.9c-0.5,0.2-1,0.3-1.6,0.3c-0.9,0-1.6-0.2-2.1-0.7c-0.5-0.4-0.7-1-0.7-1.7
		c0-0.4,0.1-0.8,0.3-1.1c0.2-0.3,0.4-0.6,0.7-0.8c0.3-0.2,0.6-0.4,1-0.5c0.3-0.1,0.7-0.1,1.2-0.2c1.1-0.1,2-0.3,2.5-0.5
		c0-0.2,0-0.3,0-0.4c0-0.6-0.1-1-0.4-1.2c-0.4-0.3-0.9-0.5-1.6-0.5c-0.7,0-1.2,0.1-1.5,0.3c-0.3,0.2-0.5,0.6-0.7,1.2l-1.4-0.2
		c0.1-0.6,0.3-1.1,0.6-1.4c0.3-0.4,0.7-0.6,1.2-0.8c0.5-0.2,1.2-0.3,1.9-0.3c0.7,0,1.3,0.1,1.7,0.2c0.4,0.2,0.8,0.4,1,0.6
		c0.2,0.3,0.4,0.6,0.4,1c0,0.2,0.1,0.7,0.1,1.3v1.9c0,1.3,0,2.1,0.1,2.5c0.1,0.3,0.2,0.7,0.4,1h-1.5
		C218.7,285.1,218.6,284.8,218.6,284.4z M218.5,281.2c-0.5,0.2-1.3,0.4-2.3,0.5c-0.6,0.1-1,0.2-1.2,0.3c-0.2,0.1-0.4,0.3-0.6,0.5
		c-0.1,0.2-0.2,0.4-0.2,0.7c0,0.4,0.1,0.7,0.4,0.9c0.3,0.2,0.7,0.4,1.2,0.4c0.5,0,1-0.1,1.4-0.4c0.4-0.2,0.7-0.6,0.9-1
		c0.2-0.3,0.2-0.8,0.2-1.4V281.2z"/>
	<path d="M225.2,284.1l0.2,1.2c-0.4,0.1-0.8,0.1-1.1,0.1c-0.5,0-0.9-0.1-1.2-0.2s-0.5-0.4-0.6-0.6c-0.1-0.3-0.2-0.8-0.2-1.7v-4.8h-1
		v-1.1h1V275l1.4-0.8v2.9h1.4v1.1h-1.4v4.9c0,0.4,0,0.7,0.1,0.8c0,0.1,0.1,0.2,0.2,0.3c0.1,0.1,0.3,0.1,0.5,0.1
		C224.7,284.2,224.9,284.2,225.2,284.1z"/>
	<path d="M226.5,275.6v-1.6h1.4v1.6H226.5z M226.5,285.4v-8.3h1.4v8.3H226.5z"/>
	<path d="M229.6,281.2c0-1.5,0.4-2.7,1.3-3.4c0.7-0.6,1.6-0.9,2.6-0.9c1.1,0,2.1,0.4,2.8,1.1c0.7,0.7,1.1,1.8,1.1,3.1
		c0,1.1-0.2,1.9-0.5,2.5c-0.3,0.6-0.8,1.1-1.4,1.4c-0.6,0.3-1.3,0.5-2,0.5c-1.2,0-2.1-0.4-2.8-1.1
		C229.9,283.7,229.6,282.6,229.6,281.2z M231,281.2c0,1.1,0.2,1.9,0.7,2.4c0.5,0.5,1,0.8,1.8,0.8c0.7,0,1.3-0.3,1.7-0.8
		c0.5-0.5,0.7-1.3,0.7-2.4c0-1-0.2-1.8-0.7-2.3c-0.5-0.5-1-0.8-1.7-0.8c-0.7,0-1.3,0.3-1.8,0.8C231.2,279.4,231,280.2,231,281.2z"/>
	<path d="M239,285.4v-8.3h1.3v1.2c0.6-0.9,1.5-1.4,2.6-1.4c0.5,0,1,0.1,1.4,0.3c0.4,0.2,0.7,0.4,0.9,0.7c0.2,0.3,0.4,0.6,0.4,1
		c0.1,0.3,0.1,0.7,0.1,1.4v5.1h-1.4v-5c0-0.6-0.1-1-0.2-1.3c-0.1-0.3-0.3-0.5-0.6-0.7c-0.3-0.2-0.6-0.3-1-0.3
		c-0.6,0-1.1,0.2-1.6,0.6c-0.4,0.4-0.7,1.1-0.7,2.2v4.5H239z"/>
	<path d="M253.6,285.4h-1.3v-11.5h1.4v4.1c0.6-0.7,1.4-1.1,2.3-1.1c0.5,0,1,0.1,1.4,0.3c0.5,0.2,0.8,0.5,1.1,0.9
		c0.3,0.4,0.5,0.8,0.7,1.3c0.2,0.5,0.2,1.1,0.2,1.7c0,1.4-0.4,2.5-1.1,3.3c-0.7,0.8-1.5,1.2-2.5,1.2c-1,0-1.7-0.4-2.3-1.2V285.4z
		 M253.6,281.2c0,1,0.1,1.7,0.4,2.2c0.4,0.7,1,1.1,1.8,1.1c0.6,0,1.1-0.3,1.6-0.8c0.4-0.5,0.7-1.3,0.7-2.4c0-1.1-0.2-1.9-0.6-2.4
		s-0.9-0.8-1.6-0.8c-0.6,0-1.1,0.3-1.6,0.8C253.8,279.4,253.6,280.2,253.6,281.2z"/>
	<path d="M266.6,284.4c-0.5,0.4-1,0.8-1.5,0.9c-0.5,0.2-1,0.3-1.6,0.3c-0.9,0-1.6-0.2-2.1-0.7c-0.5-0.4-0.7-1-0.7-1.7
		c0-0.4,0.1-0.8,0.3-1.1c0.2-0.3,0.4-0.6,0.7-0.8c0.3-0.2,0.6-0.4,1-0.5c0.3-0.1,0.7-0.1,1.2-0.2c1.1-0.1,2-0.3,2.5-0.5
		c0-0.2,0-0.3,0-0.4c0-0.6-0.1-1-0.4-1.2c-0.4-0.3-0.9-0.5-1.6-0.5c-0.7,0-1.2,0.1-1.5,0.3c-0.3,0.2-0.5,0.6-0.7,1.2l-1.4-0.2
		c0.1-0.6,0.3-1.1,0.6-1.4c0.3-0.4,0.7-0.6,1.2-0.8c0.5-0.2,1.2-0.3,1.9-0.3c0.7,0,1.3,0.1,1.7,0.2c0.4,0.2,0.8,0.4,1,0.6
		c0.2,0.3,0.4,0.6,0.4,1c0,0.2,0.1,0.7,0.1,1.3v1.9c0,1.3,0,2.1,0.1,2.5c0.1,0.3,0.2,0.7,0.4,1h-1.5
		C266.8,285.1,266.7,284.8,266.6,284.4z M266.5,281.2c-0.5,0.2-1.3,0.4-2.3,0.5c-0.6,0.1-1,0.2-1.2,0.3c-0.2,0.1-0.4,0.3-0.6,0.5
		c-0.1,0.2-0.2,0.4-0.2,0.7c0,0.4,0.1,0.7,0.4,0.9c0.3,0.2,0.7,0.4,1.2,0.4c0.5,0,1-0.1,1.4-0.4c0.4-0.2,0.7-0.6,0.9-1
		c0.2-0.3,0.2-0.8,0.2-1.4V281.2z"/>
	<path d="M269.6,282.9l1.4-0.2c0.1,0.6,0.3,1,0.7,1.3c0.4,0.3,0.9,0.4,1.5,0.4c0.6,0,1.1-0.1,1.4-0.4c0.3-0.3,0.5-0.6,0.5-0.9
		c0-0.3-0.1-0.6-0.4-0.8c-0.2-0.1-0.7-0.3-1.4-0.5c-1-0.3-1.7-0.5-2.1-0.7c-0.4-0.2-0.7-0.5-0.9-0.8c-0.2-0.3-0.3-0.7-0.3-1.1
		c0-0.4,0.1-0.7,0.3-1c0.2-0.3,0.4-0.6,0.7-0.8c0.2-0.2,0.5-0.3,0.9-0.4c0.4-0.1,0.8-0.2,1.2-0.2c0.7,0,1.2,0.1,1.7,0.3
		s0.9,0.4,1.1,0.8s0.4,0.7,0.5,1.3l-1.4,0.2c-0.1-0.4-0.2-0.8-0.5-1c-0.3-0.2-0.7-0.4-1.3-0.4c-0.6,0-1.1,0.1-1.4,0.3
		c-0.3,0.2-0.4,0.5-0.4,0.8c0,0.2,0.1,0.3,0.2,0.5c0.1,0.2,0.3,0.3,0.5,0.4c0.1,0.1,0.6,0.2,1.2,0.4c1,0.3,1.7,0.5,2.1,0.7
		c0.4,0.2,0.7,0.4,0.9,0.7c0.2,0.3,0.3,0.7,0.3,1.2c0,0.5-0.1,0.9-0.4,1.3s-0.7,0.7-1.2,1s-1.1,0.3-1.8,0.3c-1.1,0-1.9-0.2-2.5-0.7
		C270.1,284.5,269.7,283.8,269.6,282.9z"/>
	<path d="M283.8,282.7l1.5,0.2c-0.2,0.8-0.7,1.5-1.3,2c-0.6,0.5-1.4,0.7-2.4,0.7c-1.2,0-2.2-0.4-2.9-1.1c-0.7-0.7-1.1-1.8-1.1-3.1
		c0-1.4,0.4-2.5,1.1-3.2c0.7-0.8,1.7-1.2,2.8-1.2c1.1,0,2,0.4,2.7,1.1c0.7,0.8,1.1,1.8,1.1,3.2c0,0.1,0,0.2,0,0.4h-6.2
		c0.1,0.9,0.3,1.6,0.8,2.1c0.5,0.5,1,0.7,1.7,0.7c0.5,0,1-0.1,1.3-0.4C283.3,283.8,283.6,283.3,283.8,282.7z M279.2,280.5h4.6
		c-0.1-0.7-0.2-1.2-0.5-1.6c-0.4-0.5-1-0.8-1.7-0.8c-0.6,0-1.2,0.2-1.6,0.6C279.5,279.1,279.2,279.7,279.2,280.5z"/>
	<path d="M292.4,285.4v-1c-0.5,0.8-1.3,1.2-2.3,1.2c-0.7,0-1.3-0.2-1.8-0.5s-1-0.9-1.3-1.5c-0.3-0.7-0.5-1.4-0.5-2.3
		c0-0.8,0.1-1.6,0.4-2.3c0.3-0.7,0.7-1.2,1.2-1.6c0.6-0.4,1.2-0.5,1.9-0.5c0.5,0,0.9,0.1,1.3,0.3s0.7,0.5,1,0.8v-4.1h1.4v11.5H292.4
		z M288,281.3c0,1.1,0.2,1.9,0.7,2.4c0.4,0.5,1,0.8,1.6,0.8c0.6,0,1.1-0.3,1.6-0.8c0.4-0.5,0.6-1.3,0.6-2.3c0-1.1-0.2-2-0.7-2.5
		s-1-0.8-1.6-0.8c-0.6,0-1.1,0.3-1.6,0.8C288.2,279.4,288,280.2,288,281.3z"/>
	<path d="M139.7,300.4c0-1.5,0.4-2.7,1.3-3.4c0.7-0.6,1.6-0.9,2.6-0.9c1.1,0,2.1,0.4,2.8,1.1c0.7,0.7,1.1,1.8,1.1,3.1
		c0,1.1-0.2,1.9-0.5,2.5c-0.3,0.6-0.8,1.1-1.4,1.4c-0.6,0.3-1.3,0.5-2,0.5c-1.2,0-2.1-0.4-2.8-1.1
		C140.1,302.9,139.7,301.8,139.7,300.4z M141.2,300.4c0,1.1,0.2,1.9,0.7,2.4c0.5,0.5,1,0.8,1.8,0.8c0.7,0,1.3-0.3,1.7-0.8
		c0.5-0.5,0.7-1.3,0.7-2.4c0-1-0.2-1.8-0.7-2.3c-0.5-0.5-1-0.8-1.7-0.8c-0.7,0-1.3,0.3-1.8,0.8C141.4,298.6,141.2,299.4,141.2,300.4
		z"/>
	<path d="M149.2,304.6v-8.3h1.3v1.2c0.6-0.9,1.5-1.4,2.6-1.4c0.5,0,1,0.1,1.4,0.3c0.4,0.2,0.7,0.4,0.9,0.7c0.2,0.3,0.4,0.6,0.4,1
		c0.1,0.3,0.1,0.7,0.1,1.4v5.1h-1.4v-5c0-0.6-0.1-1-0.2-1.3c-0.1-0.3-0.3-0.5-0.6-0.7c-0.3-0.2-0.6-0.3-1-0.3
		c-0.6,0-1.1,0.2-1.6,0.6c-0.4,0.4-0.7,1.1-0.7,2.2v4.5H149.2z"/>
	<path d="M167.9,304.6v-1c-0.5,0.8-1.3,1.2-2.3,1.2c-0.7,0-1.3-0.2-1.8-0.5s-1-0.9-1.3-1.5c-0.3-0.7-0.5-1.4-0.5-2.3
		c0-0.8,0.1-1.6,0.4-2.3c0.3-0.7,0.7-1.2,1.2-1.6c0.6-0.4,1.2-0.5,1.9-0.5c0.5,0,0.9,0.1,1.3,0.3s0.7,0.5,1,0.8v-4.1h1.4v11.5H167.9
		z M163.5,300.5c0,1.1,0.2,1.9,0.7,2.4c0.4,0.5,1,0.8,1.6,0.8c0.6,0,1.1-0.3,1.6-0.8c0.4-0.5,0.6-1.3,0.6-2.3c0-1.1-0.2-2-0.7-2.5
		s-1-0.8-1.6-0.8c-0.6,0-1.1,0.3-1.6,0.8C163.7,298.6,163.5,299.4,163.5,300.5z"/>
	<path d="M177.1,301.9l1.5,0.2c-0.2,0.8-0.7,1.5-1.3,2c-0.6,0.5-1.4,0.7-2.4,0.7c-1.2,0-2.2-0.4-2.9-1.1c-0.7-0.7-1.1-1.8-1.1-3.1
		c0-1.4,0.4-2.5,1.1-3.2c0.7-0.8,1.7-1.2,2.8-1.2c1.1,0,2,0.4,2.7,1.1c0.7,0.8,1.1,1.8,1.1,3.2c0,0.1,0,0.2,0,0.4h-6.2
		c0.1,0.9,0.3,1.6,0.8,2.1c0.5,0.5,1,0.7,1.7,0.7c0.5,0,1-0.1,1.3-0.4C176.6,303,176.9,302.5,177.1,301.9z M172.5,299.7h4.6
		c-0.1-0.7-0.2-1.2-0.5-1.6c-0.4-0.5-1-0.8-1.7-0.8c-0.6,0-1.2,0.2-1.6,0.6C172.8,298.3,172.5,298.9,172.5,299.7z"/>
	<path d="M182.6,304.6l-3.2-8.3h1.5l1.8,5c0.2,0.5,0.4,1.1,0.5,1.7c0.1-0.4,0.3-1,0.5-1.6l1.8-5.1h1.4l-3.1,8.3H182.6z"/>
	<path d="M194,301.9l1.5,0.2c-0.2,0.8-0.7,1.5-1.3,2c-0.6,0.5-1.4,0.7-2.4,0.7c-1.2,0-2.2-0.4-2.9-1.1c-0.7-0.7-1.1-1.8-1.1-3.1
		c0-1.4,0.4-2.5,1.1-3.2c0.7-0.8,1.7-1.2,2.8-1.2c1.1,0,2,0.4,2.7,1.1c0.7,0.8,1.1,1.8,1.1,3.2c0,0.1,0,0.2,0,0.4h-6.2
		c0.1,0.9,0.3,1.6,0.8,2.1c0.5,0.5,1,0.7,1.7,0.7c0.5,0,1-0.1,1.3-0.4C193.5,303,193.8,302.5,194,301.9z M189.4,299.7h4.6
		c-0.1-0.7-0.2-1.2-0.5-1.6c-0.4-0.5-1-0.8-1.7-0.8c-0.6,0-1.2,0.2-1.6,0.6C189.7,298.3,189.4,298.9,189.4,299.7z"/>
	<path d="M197.2,304.6v-11.5h1.4v11.5H197.2z"/>
	<path d="M200.2,300.4c0-1.5,0.4-2.7,1.3-3.4c0.7-0.6,1.6-0.9,2.6-0.9c1.1,0,2.1,0.4,2.8,1.1c0.7,0.7,1.1,1.8,1.1,3.1
		c0,1.1-0.2,1.9-0.5,2.5c-0.3,0.6-0.8,1.1-1.4,1.4c-0.6,0.3-1.3,0.5-2,0.5c-1.2,0-2.1-0.4-2.8-1.1
		C200.6,302.9,200.2,301.8,200.2,300.4z M201.7,300.4c0,1.1,0.2,1.9,0.7,2.4c0.5,0.5,1,0.8,1.8,0.8c0.7,0,1.3-0.3,1.7-0.8
		c0.5-0.5,0.7-1.3,0.7-2.4c0-1-0.2-1.8-0.7-2.3c-0.5-0.5-1-0.8-1.7-0.8c-0.7,0-1.3,0.3-1.8,0.8C201.9,298.6,201.7,299.4,201.7,300.4
		z"/>
	<path d="M209.7,307.8v-11.5h1.3v1.1c0.3-0.4,0.6-0.7,1-0.9c0.4-0.2,0.8-0.3,1.4-0.3c0.7,0,1.3,0.2,1.9,0.5c0.5,0.4,1,0.9,1.2,1.5
		c0.3,0.7,0.4,1.4,0.4,2.2c0,0.8-0.2,1.6-0.5,2.3s-0.7,1.2-1.3,1.6c-0.6,0.4-1.2,0.5-1.8,0.5c-0.5,0-0.9-0.1-1.3-0.3
		c-0.4-0.2-0.7-0.4-0.9-0.8v4H209.7z M210.9,300.5c0,1.1,0.2,1.9,0.6,2.4c0.4,0.5,1,0.8,1.6,0.8c0.6,0,1.2-0.3,1.6-0.8
		c0.4-0.5,0.7-1.3,0.7-2.5c0-1.1-0.2-1.8-0.7-2.4c-0.4-0.5-1-0.8-1.6-0.8c-0.6,0-1.1,0.3-1.6,0.8
		C211.2,298.6,210.9,299.4,210.9,300.5z"/>
	<path d="M224.2,301.9l1.5,0.2c-0.2,0.8-0.7,1.5-1.3,2c-0.6,0.5-1.4,0.7-2.4,0.7c-1.2,0-2.2-0.4-2.9-1.1c-0.7-0.7-1.1-1.8-1.1-3.1
		c0-1.4,0.4-2.5,1.1-3.2c0.7-0.8,1.7-1.2,2.8-1.2c1.1,0,2,0.4,2.7,1.1c0.7,0.8,1.1,1.8,1.1,3.2c0,0.1,0,0.2,0,0.4h-6.2
		c0.1,0.9,0.3,1.6,0.8,2.1c0.5,0.5,1,0.7,1.7,0.7c0.5,0,1-0.1,1.3-0.4C223.7,303,224,302.5,224.2,301.9z M219.6,299.7h4.6
		c-0.1-0.7-0.2-1.2-0.5-1.6c-0.4-0.5-1-0.8-1.7-0.8c-0.6,0-1.2,0.2-1.6,0.6C219.9,298.3,219.7,298.9,219.6,299.7z"/>
	<path d="M227.4,304.6v-8.3h1.3v1.3c0.3-0.6,0.6-1,0.9-1.2s0.6-0.3,0.9-0.3c0.5,0,1,0.2,1.4,0.5l-0.5,1.3c-0.3-0.2-0.7-0.3-1-0.3
		c-0.3,0-0.6,0.1-0.8,0.3c-0.2,0.2-0.4,0.4-0.5,0.8c-0.2,0.5-0.2,1-0.2,1.6v4.3H227.4z"/>
	<path d="M240.3,303.3l0.2,1.2c-0.4,0.1-0.8,0.1-1.1,0.1c-0.5,0-0.9-0.1-1.2-0.2s-0.5-0.4-0.6-0.6c-0.1-0.3-0.2-0.8-0.2-1.7v-4.8h-1
		v-1.1h1v-2.1l1.4-0.8v2.9h1.4v1.1h-1.4v4.9c0,0.4,0,0.7,0.1,0.8c0,0.1,0.1,0.2,0.2,0.3c0.1,0.1,0.3,0.1,0.5,0.1
		C239.8,303.4,240,303.4,240.3,303.3z"/>
	<path d="M241.2,300.4c0-1.5,0.4-2.7,1.3-3.4c0.7-0.6,1.6-0.9,2.6-0.9c1.1,0,2.1,0.4,2.8,1.1c0.7,0.7,1.1,1.8,1.1,3.1
		c0,1.1-0.2,1.9-0.5,2.5c-0.3,0.6-0.8,1.1-1.4,1.4c-0.6,0.3-1.3,0.5-2,0.5c-1.2,0-2.1-0.4-2.8-1.1
		C241.5,302.9,241.2,301.8,241.2,300.4z M242.6,300.4c0,1.1,0.2,1.9,0.7,2.4c0.5,0.5,1,0.8,1.8,0.8c0.7,0,1.3-0.3,1.7-0.8
		c0.5-0.5,0.7-1.3,0.7-2.4c0-1-0.2-1.8-0.7-2.3c-0.5-0.5-1-0.8-1.7-0.8c-0.7,0-1.3,0.3-1.8,0.8C242.8,298.6,242.6,299.4,242.6,300.4
		z"/>
	<path d="M250.1,300.4c0-1.5,0.4-2.7,1.3-3.4c0.7-0.6,1.6-0.9,2.6-0.9c1.1,0,2.1,0.4,2.8,1.1c0.7,0.7,1.1,1.8,1.1,3.1
		c0,1.1-0.2,1.9-0.5,2.5c-0.3,0.6-0.8,1.1-1.4,1.4c-0.6,0.3-1.3,0.5-2,0.5c-1.2,0-2.1-0.4-2.8-1.1
		C250.4,302.9,250.1,301.8,250.1,300.4z M251.5,300.4c0,1.1,0.2,1.9,0.7,2.4c0.5,0.5,1,0.8,1.8,0.8c0.7,0,1.3-0.3,1.7-0.8
		c0.5-0.5,0.7-1.3,0.7-2.4c0-1-0.2-1.8-0.7-2.3c-0.5-0.5-1-0.8-1.7-0.8c-0.7,0-1.3,0.3-1.8,0.8C251.7,298.6,251.5,299.4,251.5,300.4
		z"/>
	<path d="M259.4,304.6v-11.5h1.4v11.5H259.4z"/>
	<path d="M263,294.8v-1.6h1.4v1.6H263z M263,304.6v-8.3h1.4v8.3H263z"/>
	<path d="M266.6,304.6v-8.3h1.3v1.2c0.6-0.9,1.5-1.4,2.6-1.4c0.5,0,1,0.1,1.4,0.3c0.4,0.2,0.7,0.4,0.9,0.7c0.2,0.3,0.4,0.6,0.4,1
		c0.1,0.3,0.1,0.7,0.1,1.4v5.1h-1.4v-5c0-0.6-0.1-1-0.2-1.3c-0.1-0.3-0.3-0.5-0.6-0.7c-0.3-0.2-0.6-0.3-1-0.3
		c-0.6,0-1.1,0.2-1.6,0.6c-0.4,0.4-0.7,1.1-0.7,2.2v4.5H266.6z"/>
	<path d="M275.2,305.3l1.4,0.2c0.1,0.4,0.2,0.7,0.5,0.9c0.3,0.3,0.8,0.4,1.4,0.4c0.7,0,1.2-0.1,1.5-0.4c0.4-0.3,0.6-0.6,0.7-1.1
		c0.1-0.3,0.1-0.9,0.1-1.8c-0.6,0.7-1.4,1.1-2.3,1.1c-1.1,0-2-0.4-2.6-1.2c-0.6-0.8-0.9-1.8-0.9-3c0-0.8,0.1-1.5,0.4-2.2
		c0.3-0.7,0.7-1.2,1.2-1.6c0.5-0.4,1.2-0.5,1.9-0.5c1,0,1.8,0.4,2.4,1.2v-1h1.3v7.2c0,1.3-0.1,2.2-0.4,2.7c-0.3,0.5-0.7,1-1.2,1.3
		s-1.3,0.5-2.1,0.5c-1,0-1.8-0.2-2.4-0.7S275.2,306.2,275.2,305.3z M276.4,300.3c0,1.1,0.2,1.9,0.6,2.4c0.4,0.5,1,0.8,1.6,0.8
		c0.6,0,1.2-0.2,1.6-0.7c0.4-0.5,0.7-1.3,0.7-2.3c0-1-0.2-1.8-0.7-2.3c-0.5-0.5-1-0.8-1.6-0.8c-0.6,0-1.2,0.3-1.6,0.8
		S276.4,299.3,276.4,300.3z"/>
</g>
</svg>
