<?xml version="1.0" encoding="utf-8"?>
<!-- Generator: Adobe Illustrator 19.2.1, SVG Export Plug-In . SVG Version: 6.00 Build 0)  -->
<svg version="1.1" id="Layer_1" xmlns="http://www.w3.org/2000/svg" xmlns:xlink="http://www.w3.org/1999/xlink" x="0px" y="0px"
	 viewBox="0 0 586.3 285.7" style="enable-background:new 0 0 586.3 285.7;" xml:space="preserve">
<style type="text/css">
	.st0{fill:none;stroke:#000000;stroke-miterlimit:10;}
</style>
<path d="M318.5,58.5c-1.1,0.7-2.2,2.6-2,4.4c0.1,1.1,0.5,2.4,2.6,3.1c1.2,0.4,2.6,0.1,3.7-0.8c1-0.8,1.4-2,1.2-3.1
	c-0.3-1.6-1.7-2.2-3.8-2.9c-0.4-0.1-0.9-0.3-1.4-0.5C318.6,58.5,318.5,58.5,318.5,58.5z M320.1,67.8c-0.6,0-1.2-0.1-1.7-0.3
	c-2.2-0.8-3.5-2.4-3.7-4.6c-0.1-2.4,1.2-5.1,3.1-6.1c1.1-0.6,2.3-0.4,3.3,0.3c0.2,0.1,0.3,0.4,0.3,0.7c1.8,0.7,3.7,1.6,4.1,3.9
	c0.3,1.8-0.3,3.5-1.8,4.8C322.7,67.4,321.4,67.8,320.1,67.8z"/>
<path d="M329.4,59.1c-0.9,0.5-1.6,1.4-1.8,2.3c-0.4,1.3-0.1,3,1.8,3.8c0.8,0.4,2.9-0.1,4.4-1.3c0.9-0.7,1.4-1.4,1.3-2
	c-0.1-1.4-1.8-1.9-3.9-2.3c-0.6-0.1-1.2-0.3-1.6-0.4C329.6,59.1,329.5,59.1,329.4,59.1z M330.2,67.1c-0.5,0-1.1-0.1-1.4-0.3
	c-2.7-1.2-3.4-3.8-2.8-5.9c0.6-2.2,2.7-4.4,5.6-4c0.4,0.1,0.8,0.4,0.8,1c0,0.1,0,0.1,0,0.1c1.9,0.4,4.2,1.3,4.6,3.6
	c0.1,1.3-0.5,2.6-1.9,3.7C333.7,66.3,331.8,67.1,330.2,67.1z"/>
<path d="M324.2,61.3c-0.2,0-0.4-0.1-0.6-0.2l-0.5-0.5c-0.3-0.3-0.3-0.7-0.1-1c0.4-0.8,1.1-1.2,2-1.4c1.1-0.2,2.4,0,3.4,0.6
	c0.4,0.3,0.5,0.8,0.2,1.2c-0.3,0.4-0.8,0.5-1.2,0.2c-0.6-0.4-1.4-0.5-2-0.4c-0.1,0.1-0.3,0.1-0.4,0.1c0.3,0.4,0.2,0.8-0.1,1.1
	C324.7,61.2,324.5,61.3,324.2,61.3z"/>
<path d="M329.9,63.3c-0.2,0-0.5-0.1-0.7-0.3c-0.5-0.7-0.8-1.4-0.7-2.2c0-0.4,0.4-0.8,0.9-0.8c0.4,0,0.8,0.4,0.8,0.9
	c0,0.4,0.1,0.7,0.3,1c0.3,0.4,0.2,0.9-0.1,1.2C330.3,63.3,330.2,63.3,329.9,63.3z"/>
<path d="M320.6,63.9c-0.4,0-0.9-0.4-0.9-0.9v-2.1c0-0.4,0.4-0.9,0.9-0.9c0.5,0,0.9,0.4,0.9,0.9V63C321.5,63.5,321.1,63.9,320.6,63.9
	z"/>
<path d="M325.8,70.6L325.8,70.6c-0.3,0-0.6,0-0.9,0c-0.8,0-1.5,0-2.2-0.1c-0.3,0-0.5-0.1-0.7-0.4c-0.1-0.2-0.1-0.5-0.1-0.8
	c0.7-1.9,1.1-3.8,1.5-5.6c0.1-0.4,0.6-0.8,1.1-0.7c0.4,0.1,0.8,0.6,0.7,1.1c-0.3,1.4-0.7,3.1-1.2,4.6c0.3,0,0.7,0,1.1,0
	c0.3,0,0.6,0,0.9,0c0.4,0,0.8,0.4,0.8,0.9C326.6,70.2,326.3,70.6,325.8,70.6z"/>
<path d="M325.9,75.4c-0.7,0-1.4-0.1-2-0.3c-2.8-0.8-5.1-2.9-5.6-5.2c-0.1-0.4,0.2-0.9,0.7-1.1c0.4-0.1,0.9,0.2,1.1,0.7
	c0.4,1.6,2.2,3.3,4.4,3.9c1.6,0.4,3.1,0.2,4-0.7c0.3-0.4,0.9-0.4,1.2,0c0.4,0.3,0.4,0.9,0,1.2C328.6,75,327.3,75.4,325.9,75.4z"/>
<path d="M322.2,80.2c-2.8,0-5.4-0.1-7.9-0.4c-0.4-0.1-0.8-0.4-0.8-0.8c-0.2-2.5,0.1-4.8,0.4-7.1c0.3-2,0.6-3.9,0.5-5.9
	c0-0.4,0.3-0.9,0.8-0.9c0.4,0,0.9,0.3,0.9,0.8c0.1,2.2-0.2,4.3-0.5,6.3c-0.3,1.9-0.6,3.9-0.5,5.9c5.8,0.5,12.7,0.4,20.6-0.5
	c0.5-5.1,0.1-9.2-1.1-9.8c-0.4-0.2-0.6-0.8-0.4-1.1c0.2-0.4,0.8-0.6,1.1-0.4c2.8,1.4,2.4,8.2,1.9,12.2c-0.1,0.4-0.4,0.8-0.8,0.8
	C331.4,79.9,326.6,80.2,322.2,80.2z"/>
<path d="M336.7,69.1c-0.1,0-0.4,0-0.6,0c-0.4,0-0.8-0.4-0.8-0.9s0.4-0.8,0.9-0.8c2.7,0.2,3.8-1.4,4.2-2.4c0.6-1.6,0.4-3.4-0.7-4.3
	c-0.8-0.7-2.1-0.5-3.7,0.4c-0.4,0.2-0.9,0.1-1.2-0.3c-0.3-0.4-0.1-0.9,0.3-1.2c3-1.9,4.9-1.1,5.7-0.3c1.6,1.3,2,4,1.1,6.2
	C341.1,67.8,339.2,69.1,336.7,69.1z"/>
<path d="M314.2,68.2c-1.3,0-2.1-0.6-2.5-1.1c-0.9-1-1.2-2.6-0.7-4c0.6-1.7,2.2-2.9,4.2-3.1c0.4-0.1,0.9,0.3,1,0.8
	c0.1,0.4-0.3,0.9-0.8,1c-1.9,0.2-2.6,1.5-2.9,2c-0.3,0.8-0.1,1.6,0.3,2.2c0.6,0.6,1.5,0.5,2.2,0.3c0.4-0.1,1,0.1,1.1,0.6
	c0.1,0.4-0.1,1-0.6,1.1C315.1,68.1,314.6,68.2,314.2,68.2z"/>
<path d="M336.7,58.2L336.7,58.2c-0.5-0.1-0.9-0.4-0.8-1c0.1-1.1-0.1-2.8-0.4-4.3c-0.1-0.4-0.1-0.7-0.1-1.1c-4.3-0.3-9.7,0.8-16,3.1
	c-0.4,0.1-1-0.1-1.1-0.5c-0.1-0.4,0.1-1,0.5-1.1c7-2.6,12.7-3.6,17.4-3.1c0.4,0.1,0.8,0.4,0.8,0.8c0.1,0.5,0.1,1.1,0.2,1.6
	c0.2,1.6,0.5,3.3,0.4,4.6C337.5,57.9,337.1,58.2,336.7,58.2z"/>
<path d="M338,58.7c-0.1,0-0.3,0-0.4,0c-0.4-0.1-0.8-0.4-0.8-1c0.1-0.4,0.4-0.8,1-0.8c1.3,0.1,2-1,2.4-1.9c1.2-2.7,0.9-7.1-0.5-8.2
	c-0.2-0.1-0.8-0.6-2,0.2c-0.2,0.1-0.5,0.1-0.8,0.1c-0.2-0.1-0.4-0.3-0.5-0.5c-2.1-6-6.4-8.3-13.5-7.1c-3.2,0.5-5.6,2.8-6.4,6.1
	c-1,4.1,0.5,8.7,3.6,11.1c0.4,0.3,0.4,0.8,0.1,1.2s-0.8,0.4-1.2,0.1c-3.6-2.8-5.4-8-4.2-12.8c1-4.1,3.8-6.8,7.8-7.4
	c7.4-1.3,12.5,1.2,15.1,7.3c1.5-0.6,2.6-0.1,3.1,0.4c2.2,1.9,2.4,7.1,1.1,10.3C341,57.6,339.7,58.7,338,58.7z"/>
<path d="M322.7,105.9c-0.1,0-0.1,0-0.2,0c-1.2-0.3-1.6-1-1.7-1.4c-0.4-1.5,1.2-3.1,1.9-3.8c2-1.9,3.6-2,5.7-2c2.1,0.1,4.6,0.3,6.1,2
	c0.9,1.1,1.3,2.6,1.1,4.5c-0.1,0.4-0.4,0.8-1,0.8c-0.4-0.1-0.8-0.5-0.8-1c0.1-1.4,0-2.5-0.6-3.1c-0.8-0.9-2.3-1.4-4.9-1.4
	c-1.9,0-3,0.1-4.5,1.5c-1,1-1.4,1.8-1.4,2.1c0,0,0.1,0.1,0.4,0.2c0.4,0.1,0.8,0.6,0.6,1.1C323.4,105.6,323,105.9,322.7,105.9z"/>
<path d="M345,103.3c-0.3,0-0.7-0.2-0.8-0.5c-0.6-1.4-1.4-2.8-2.2-4.2c-0.7-1.3-1.4-2.6-2-3.9c-0.1-0.4-0.4-0.9-0.8-1.5
	c-3.1-6.1-4.6-9.6-3.1-11.1c0.3-0.4,0.9-0.4,1.2,0c0.4,0.3,0.4,0.9,0,1.2c-0.3,0.3-0.3,1.9,3.4,9.1c0.4,0.7,0.6,1.2,0.8,1.6
	c0.6,1.3,1.3,2.6,1.9,3.8c0.8,1.4,1.6,2.9,2.2,4.4c0.2,0.4,0,1-0.4,1.1C345.2,103.3,345.1,103.3,345,103.3z"/>
<path d="M334.6,105.4c-0.1,0-0.3,0-0.4-0.1c-0.4-0.2-0.6-0.8-0.4-1.2c1.1-2.2,1.1-6.5,1-9.5c0-0.7,0-1.2,0-1.8
	c0-1.6,0.1-3.8,0.3-5.9c0.1-1.4,0.2-2.6,0.2-3.2c0-0.4,0.4-0.8,0.9-0.8l0,0c0.4,0,0.8,0.4,0.8,0.9c0,0.7-0.1,1.9-0.2,3.4
	c-0.1,1.9-0.3,4.2-0.3,5.7c0,0.5,0,1.1,0,1.7c0.1,3.3,0.1,7.7-1.1,10.4C335.3,105.2,335,105.4,334.6,105.4z"/>
<path d="M324.3,98.6c-0.1,0-0.1,0-0.2,0c-0.3-0.1-0.6-0.4-0.6-0.8c-0.1-1,0-1.9,0.3-2.8c-0.1-0.4-0.3-1-0.5-1.5
	c-0.1-0.4-0.3-0.7-0.4-1c-0.5-1.4-0.8-3-1.2-4.4c-0.4-2-1-4.2-1.9-6.1c-0.2-0.5,0-1,0.4-1.1c0.4-0.2,1,0,1.1,0.4
	c1,2.1,1.5,4.3,1.9,6.4c0.3,1.4,0.7,2.9,1.1,4.3c0.1,0.3,0.2,0.6,0.3,0.9c0.7-1.1,1.6-2.2,2.4-3.4c2.3-2.8,4.3-5.5,3.5-8.1
	c-0.1-0.4,0.1-0.9,0.6-1.1c0.4-0.1,0.9,0.1,1.1,0.6c1,3.4-1.4,6.6-3.7,9.6c-1.2,1.6-2.4,3.1-3,4.6c0.2,1.1,0.1,2.2-0.6,3.1
	C324.8,98.5,324.6,98.6,324.3,98.6z"/>
<path d="M325.8,91.9c-0.2,0-0.4-0.1-0.6-0.2c-1.4-1.2-1.8-3.6-1.1-5.6c0.1-0.3,0.2-0.5,0.4-0.8c-0.3-0.4-0.5-0.9-0.5-1.5
	c-0.1-1,0.9-2.2,1.9-3.4l0.2-0.3c0.1-0.1,0.2-0.2,0.4-0.3c0.8-0.2,1.6,0.1,2,0.9c0.2,0.5,0.1,1-0.3,1.2c-0.4,0.2-0.9,0.1-1.1-0.3
	c-1,1-1.5,1.8-1.5,2.1c0,0.1,0,0.2,0.1,0.3c0.4-0.3,1-0.4,1.6-0.5c0.3,0,0.6,0.1,0.8,0.3c0.1,0.2,0.2,0.5,0.1,0.8
	c-0.3,1.1-1.2,1.6-2.2,1.6c-0.1,0.1-0.1,0.4-0.2,0.5c-0.4,1.3-0.1,2.9,0.7,3.8c0.4,0.3,0.4,0.9,0.1,1.2
	C326.3,91.8,326,91.9,325.8,91.9z"/>
<path d="M315.9,105.9L315.9,105.9c-0.5-0.1-0.9-0.4-0.8-0.9c0.1-1.9,0-3.8-0.2-5.8c-0.1-1.6-0.3-3.4-0.3-5c0-1.6,0.3-3.3,0.6-4.9
	c0.3-1.9,0.6-3.8,0.6-5.6c-0.1-0.1-0.1-0.3-0.1-0.4v-0.9c0-0.4,0.4-0.8,0.8-0.9c0.4,0,0.8,0.3,0.9,0.8c0.3,2.3-0.1,4.8-0.4,7.3
	c-0.4,1.6-0.7,3.1-0.7,4.6c0,1.6,0.1,3.2,0.3,4.8c0.2,2,0.4,4.1,0.2,6.1C316.7,105.6,316.4,105.9,315.9,105.9z"/>
<path d="M309.7,101.7c-0.3,0-0.6-0.1-0.8-0.4c-0.2-0.4-0.1-1,0.4-1.2c3.6-1.9,4.4-3.3,4.8-7.6l0.1-1c0.1-1.9,0.5-6.8,0.4-7.6
	c-0.1-0.4,0.1-0.8,0.4-1c0.4-0.2,1-0.1,1.2,0.4c0.1,0.3,0.2,0.5-0.3,8.4l-0.2,1c-0.4,4.9-1.5,6.8-5.7,9
	C310,101.7,309.8,101.7,309.7,101.7z"/>
<path d="M303.5,105.3c-0.8,0-1.7-0.2-2.6-0.7c-1.9-1.1-3.3-2.9-3.1-4.7c0.1-0.8,0.5-2.4,2.9-3.2c4.6-1.6,7,2.2,8.7,4.9
	c0.2,0.3,0.4,0.6,0.5,0.9c0.2,0.4,0.1,0.9-0.2,1.2c-0.4,0.2-0.9,0.1-1.2-0.2c-0.2-0.3-0.4-0.6-0.6-0.9c-2.1-3.3-3.7-5.3-6.7-4.3
	c-1.1,0.4-1.6,1-1.7,1.7c-0.1,1.1,0.9,2.3,2.2,3.1c0.7,0.3,2.3,1,3.8-0.2c0.4-0.3,0.9-0.2,1.2,0.1s0.2,0.9-0.1,1.2
	C305.7,104.9,304.7,105.3,303.5,105.3z"/>
<path d="M303.5,92.1l-0.1,0.8L303.5,92.1z M304,102.8L304,102.8c-0.5,0-0.9-0.4-0.9-0.9c0-0.5-0.3-1.9-0.5-3.1
	c-0.8-3.8-1.2-6.1-0.3-7.1c0.3-0.4,0.8-0.4,1.3-0.4s0.8,0.5,0.7,1c-0.1,0.4-0.4,0.7-0.8,0.7c-0.2,0.9,0.4,4,0.8,5.5
	c0.4,1.8,0.6,2.9,0.6,3.6C304.8,102.4,304.4,102.8,304,102.8z"/>
<g>
	<path d="M133.4,19.3c-7.8,0-14.1,6.3-14.1,14.1c0,7.8,6.3,14.1,14.1,14.1c7.8,0,14.1-6.3,14.1-14.1
		C147.5,25.6,141.2,19.3,133.4,19.3z"/>
	<path d="M132.7,80.4 M119.1,50.8c0,0-14.3,0.2-14.3,13.4c0,13.2,0,16.2,0,16.2s27.9,0,28,0L119.1,50.8z"/>
	<path d="M147.7,50.8L134,80.4h28c0,0,0-3.1,0-16.2C162,51,147.7,50.8,147.7,50.8z"/>
	<polygon points="133.4,50.8 123.6,50.8 133.4,72.6 143.2,50.8 	"/>
	<g>
		<path d="M105.3,98.7v-9.3h3.2c0.7,0,1.3,0,1.7,0.1c0.5,0.1,1,0.3,1.4,0.7c0.5,0.4,0.9,0.9,1.1,1.6c0.2,0.6,0.4,1.4,0.4,2.2
			c0,0.7-0.1,1.3-0.2,1.9c-0.2,0.5-0.4,1-0.6,1.4c-0.3,0.4-0.5,0.6-0.8,0.8s-0.7,0.4-1.1,0.5c-0.4,0.1-0.9,0.2-1.5,0.2H105.3z
			 M106.5,97.6h2c0.6,0,1.1-0.1,1.4-0.2c0.3-0.1,0.6-0.3,0.8-0.5c0.3-0.3,0.5-0.7,0.7-1.2c0.2-0.5,0.2-1.1,0.2-1.8
			c0-1-0.2-1.7-0.5-2.2s-0.7-0.9-1.2-1c-0.3-0.1-0.9-0.2-1.6-0.2h-2V97.6z"/>
		<path d="M119.2,96.5l1.2,0.1c-0.2,0.7-0.5,1.2-1,1.6c-0.5,0.4-1.1,0.6-1.9,0.6c-1,0-1.8-0.3-2.3-0.9c-0.6-0.6-0.9-1.5-0.9-2.6
			c0-1.1,0.3-2,0.9-2.6c0.6-0.6,1.3-0.9,2.3-0.9c0.9,0,1.6,0.3,2.2,0.9c0.6,0.6,0.9,1.5,0.9,2.6c0,0.1,0,0.2,0,0.3h-5
			c0,0.7,0.3,1.3,0.6,1.7c0.4,0.4,0.8,0.6,1.4,0.6c0.4,0,0.8-0.1,1.1-0.3C118.8,97.4,119,97,119.2,96.5z M115.4,94.7h3.8
			c-0.1-0.6-0.2-1-0.4-1.3c-0.4-0.4-0.8-0.7-1.4-0.7c-0.5,0-1,0.2-1.3,0.5S115.5,94.1,115.4,94.7z"/>
		<path d="M123.7,98.7l-2.6-6.7h1.2l1.4,4c0.2,0.4,0.3,0.9,0.4,1.4c0.1-0.4,0.2-0.8,0.4-1.3l1.5-4.1h1.2l-2.6,6.7H123.7z"/>
		<path d="M132.9,96.5l1.2,0.1c-0.2,0.7-0.5,1.2-1,1.6c-0.5,0.4-1.1,0.6-1.9,0.6c-1,0-1.8-0.3-2.3-0.9c-0.6-0.6-0.9-1.5-0.9-2.6
			c0-1.1,0.3-2,0.9-2.6c0.6-0.6,1.3-0.9,2.3-0.9c0.9,0,1.6,0.3,2.2,0.9c0.6,0.6,0.9,1.5,0.9,2.6c0,0.1,0,0.2,0,0.3h-5
			c0,0.7,0.3,1.3,0.6,1.7c0.4,0.4,0.8,0.6,1.4,0.6c0.4,0,0.8-0.1,1.1-0.3C132.5,97.4,132.7,97,132.9,96.5z M129.1,94.7h3.8
			c-0.1-0.6-0.2-1-0.4-1.3c-0.4-0.4-0.8-0.7-1.4-0.7c-0.5,0-1,0.2-1.3,0.5S129.2,94.1,129.1,94.7z"/>
		<path d="M135.5,98.7v-9.3h1.1v9.3H135.5z"/>
		<path d="M138,95.3c0-1.2,0.3-2.2,1-2.8c0.6-0.5,1.3-0.7,2.1-0.7c0.9,0,1.7,0.3,2.3,0.9s0.9,1.4,0.9,2.5c0,0.9-0.1,1.5-0.4,2
			c-0.3,0.5-0.6,0.9-1.1,1.2c-0.5,0.3-1,0.4-1.6,0.4c-0.9,0-1.7-0.3-2.3-0.9S138,96.5,138,95.3z M139.1,95.3c0,0.9,0.2,1.5,0.6,1.9
			s0.9,0.6,1.4,0.6c0.6,0,1-0.2,1.4-0.6c0.4-0.4,0.6-1.1,0.6-2c0-0.8-0.2-1.5-0.6-1.9c-0.4-0.4-0.8-0.6-1.4-0.6
			c-0.6,0-1,0.2-1.4,0.6S139.1,94.5,139.1,95.3z"/>
		<path d="M145.6,101.3V92h1v0.9c0.2-0.3,0.5-0.6,0.8-0.8c0.3-0.2,0.7-0.3,1.1-0.3c0.6,0,1.1,0.1,1.5,0.4c0.4,0.3,0.8,0.7,1,1.3
			c0.2,0.5,0.3,1.1,0.3,1.8c0,0.7-0.1,1.3-0.4,1.9c-0.2,0.6-0.6,1-1.1,1.3c-0.5,0.3-1,0.4-1.5,0.4c-0.4,0-0.7-0.1-1-0.2
			c-0.3-0.2-0.6-0.4-0.7-0.6v3.3H145.6z M146.7,95.4c0,0.9,0.2,1.5,0.5,1.9s0.8,0.6,1.3,0.6c0.5,0,0.9-0.2,1.3-0.6
			c0.4-0.4,0.5-1.1,0.5-2c0-0.9-0.2-1.5-0.5-1.9c-0.4-0.4-0.8-0.6-1.3-0.6c-0.5,0-0.9,0.2-1.3,0.7C146.8,93.8,146.7,94.5,146.7,95.4
			z"/>
		<path d="M157.5,96.5l1.2,0.1c-0.2,0.7-0.5,1.2-1,1.6c-0.5,0.4-1.1,0.6-1.9,0.6c-1,0-1.8-0.3-2.3-0.9c-0.6-0.6-0.9-1.5-0.9-2.6
			c0-1.1,0.3-2,0.9-2.6c0.6-0.6,1.3-0.9,2.3-0.9c0.9,0,1.6,0.3,2.2,0.9c0.6,0.6,0.9,1.5,0.9,2.6c0,0.1,0,0.2,0,0.3h-5
			c0,0.7,0.3,1.3,0.6,1.7c0.4,0.4,0.8,0.6,1.4,0.6c0.4,0,0.8-0.1,1.1-0.3C157.1,97.4,157.3,97,157.5,96.5z M153.7,94.7h3.8
			c-0.1-0.6-0.2-1-0.4-1.3c-0.4-0.4-0.8-0.7-1.4-0.7c-0.5,0-1,0.2-1.3,0.5S153.7,94.1,153.7,94.7z"/>
		<path d="M160.1,98.7V92h1v1c0.3-0.5,0.5-0.8,0.7-0.9s0.5-0.2,0.7-0.2c0.4,0,0.8,0.1,1.2,0.4l-0.4,1.1c-0.3-0.2-0.6-0.2-0.8-0.2
			c-0.2,0-0.5,0.1-0.7,0.2c-0.2,0.1-0.3,0.4-0.4,0.6c-0.1,0.4-0.2,0.9-0.2,1.3v3.5H160.1z"/>
	</g>
</g>
<g>
	<path d="M308,123.5l-3-11.5h1.6l1.7,7.5c0.2,0.8,0.3,1.6,0.5,2.3c0.3-1.2,0.5-1.9,0.5-2.1l2.2-7.7h1.8l1.6,5.8
		c0.4,1.4,0.7,2.8,0.9,4.1c0.1-0.7,0.3-1.6,0.6-2.5l1.8-7.4h1.5l-3.1,11.5h-1.5l-2.4-8.7c-0.2-0.7-0.3-1.2-0.4-1.3
		c-0.1,0.5-0.2,1-0.3,1.3l-2.4,8.7H308z"/>
	<path d="M320.7,123.5v-8.3h1.3v1.3c0.3-0.6,0.6-1,0.9-1.2s0.6-0.3,0.9-0.3c0.5,0,1,0.2,1.4,0.5l-0.5,1.3c-0.3-0.2-0.7-0.3-1-0.3
		c-0.3,0-0.6,0.1-0.8,0.3c-0.2,0.2-0.4,0.4-0.5,0.8c-0.2,0.5-0.2,1-0.2,1.6v4.3H320.7z"/>
	<path d="M326,113.7v-1.6h1.4v1.6H326z M326,123.5v-8.3h1.4v8.3H326z"/>
	<path d="M332.6,122.3l0.2,1.2c-0.4,0.1-0.8,0.1-1.1,0.1c-0.5,0-0.9-0.1-1.2-0.2s-0.5-0.4-0.6-0.6c-0.1-0.3-0.2-0.8-0.2-1.7v-4.8h-1
		v-1.1h1v-2.1l1.4-0.8v2.9h1.4v1.1h-1.4v4.9c0,0.4,0,0.7,0.1,0.8c0,0.1,0.1,0.2,0.2,0.3c0.1,0.1,0.3,0.1,0.5,0.1
		C332.2,122.3,332.4,122.3,332.6,122.3z"/>
	<path d="M339.7,120.8l1.5,0.2c-0.2,0.8-0.7,1.5-1.3,2c-0.6,0.5-1.4,0.7-2.4,0.7c-1.2,0-2.2-0.4-2.9-1.1c-0.7-0.7-1.1-1.8-1.1-3.1
		c0-1.4,0.4-2.5,1.1-3.2c0.7-0.8,1.7-1.2,2.8-1.2c1.1,0,2,0.4,2.7,1.1c0.7,0.8,1.1,1.8,1.1,3.2c0,0.1,0,0.2,0,0.4H335
		c0.1,0.9,0.3,1.6,0.8,2.1c0.5,0.5,1,0.7,1.7,0.7c0.5,0,1-0.1,1.3-0.4C339.2,121.9,339.5,121.4,339.7,120.8z M335.1,118.6h4.6
		c-0.1-0.7-0.2-1.2-0.5-1.6c-0.4-0.5-1-0.8-1.7-0.8c-0.6,0-1.2,0.2-1.6,0.6C335.4,117.3,335.1,117.8,335.1,118.6z"/>
	<path d="M342.9,123.5v-8.3h1.3v1.3c0.3-0.6,0.6-1,0.9-1.2s0.6-0.3,0.9-0.3c0.5,0,1,0.2,1.4,0.5l-0.5,1.3c-0.3-0.2-0.7-0.3-1-0.3
		c-0.3,0-0.6,0.1-0.8,0.3c-0.2,0.2-0.4,0.4-0.5,0.8c-0.2,0.5-0.2,1-0.2,1.6v4.3H342.9z"/>
</g>
<path d="M138.9,167.5h23.7c2.5,0,4.6-2.1,4.6-4.6v-23.7l2.1-1.7v25.4c0,3.7-3,6.7-6.7,6.7h-25.3L138.9,167.5z M124.6,169.6h-20.9
	c-3.7,0-6.7-3-6.7-6.7v-43.3c0-3.7,3-6.7,6.7-6.7h58.9c3.7,0,6.7,3,6.7,6.7v2.8l-2.1,1.6v-4.4c0-2.5-2.1-4.6-4.6-4.6h-58.9
	c-2.5,0-4.6,2.1-4.6,4.6v43.3c0,2.5,2.1,4.6,4.6,4.6h21.6L124.6,169.6z"/>
<path d="M113.4,130.6l-8.1-3.6c-1.1-0.5-1.2-1-1.2-1.6c0-0.8,0.6-1.4,1.4-1.4c0.4,0,0.8,0,1.4,0.4l10.3,4.7c0.5,0.3,0.9,0.8,0.9,1.4
	s-0.4,1.2-0.9,1.4l-10.3,4.7c-0.6,0.3-1,0.4-1.4,0.4c-0.8,0-1.4-0.6-1.4-1.4c0-0.6,0.1-1.1,1.2-1.6L113.4,130.6z"/>
<path d="M175.7,117.3l-12.6,12.6l6,6c0,0,0,0,0,0l12.6-12.6L175.7,117.3z M169.1,138.1c-0.6,0-1.1-0.2-1.5-0.6l-6-6
	c-0.4-0.4-0.6-0.9-0.6-1.5c0-0.6,0.2-1.1,0.6-1.5l12.6-12.6c0.8-0.8,2.2-0.8,3,0l6,6c0.4,0.4,0.6,0.9,0.6,1.5c0,0.6-0.2,1.1-0.6,1.5
	l-12.6,12.6C170.2,137.9,169.6,138.1,169.1,138.1z"/>
<path d="M170,122.9l-43.7,43.8l-2.1,8.1l8.2-2.1l43.7-43.7L170,122.9z M123.9,177c-0.6,0-1.1-0.3-1.5-0.7c-0.3-0.5-0.5-1-0.3-1.6
	l2.2-8.6c0.1-0.4,0.3-0.7,0.5-0.9l43.9-43.9c0.7-0.7,1.9-0.8,2.6-0.1l6.5,6.5c0.7,0.7,0.7,1.9-0.1,2.6l-43.9,43.9
	c-0.3,0.3-0.6,0.4-0.9,0.5l-8.6,2.2C124.2,177,124,177,123.9,177z"/>
<path d="M129.1,170c-0.3,0-0.5-0.1-0.7-0.3c-0.4-0.4-0.4-1.1,0-1.5l44.3-44.3c0.4-0.4,1.1-0.4,1.5,0c0.4,0.4,0.4,1.1,0,1.5
	l-44.3,44.3C129.6,169.9,129.3,170,129.1,170z"/>
<g>
	<path d="M206.4,185.2c-7.8,0-14.1,6.3-14.1,14.1c0,7.8,6.3,14.1,14.1,14.1c7.8,0,14.1-6.3,14.1-14.1
		C220.5,191.5,214.2,185.2,206.4,185.2z"/>
	<path d="M205.7,246.3 M192,216.7c0,0-14.3,0.2-14.3,13.4c0,13.2,0,16.2,0,16.2s27.9,0,28,0L192,216.7z"/>
	<path d="M220.7,216.7L207,246.3h28c0,0,0-3.1,0-16.2C235,216.9,220.7,216.7,220.7,216.7z"/>
	<polygon points="206.4,216.7 196.5,216.7 206.4,238.5 216.2,216.7 	"/>
	<g>
		<path d="M178.3,264.6v-9.3h3.2c0.7,0,1.3,0,1.7,0.1c0.5,0.1,1,0.3,1.4,0.7c0.5,0.4,0.9,0.9,1.1,1.6c0.2,0.6,0.4,1.4,0.4,2.2
			c0,0.7-0.1,1.3-0.2,1.9c-0.2,0.5-0.4,1-0.6,1.4c-0.3,0.4-0.5,0.6-0.8,0.8s-0.7,0.4-1.1,0.5c-0.4,0.1-0.9,0.2-1.5,0.2H178.3z
			 M179.5,263.5h2c0.6,0,1.1-0.1,1.4-0.2c0.3-0.1,0.6-0.3,0.8-0.5c0.3-0.3,0.5-0.7,0.7-1.2c0.2-0.5,0.2-1.1,0.2-1.8
			c0-1-0.2-1.7-0.5-2.2s-0.7-0.9-1.2-1c-0.3-0.1-0.9-0.2-1.6-0.2h-2V263.5z"/>
		<path d="M192.1,262.4l1.2,0.1c-0.2,0.7-0.5,1.2-1,1.6s-1.1,0.6-1.9,0.6c-1,0-1.8-0.3-2.3-0.9c-0.6-0.6-0.9-1.5-0.9-2.6
			c0-1.1,0.3-2,0.9-2.6c0.6-0.6,1.3-0.9,2.3-0.9c0.9,0,1.6,0.3,2.2,0.9c0.6,0.6,0.9,1.5,0.9,2.6c0,0.1,0,0.2,0,0.3h-5
			c0,0.7,0.3,1.3,0.6,1.7s0.8,0.6,1.4,0.6c0.4,0,0.8-0.1,1.1-0.3C191.7,263.2,192,262.9,192.1,262.4z M188.4,260.6h3.8
			c-0.1-0.6-0.2-1-0.4-1.3c-0.4-0.4-0.8-0.7-1.4-0.7c-0.5,0-1,0.2-1.3,0.5C188.6,259.5,188.4,260,188.4,260.6z"/>
		<path d="M196.6,264.6l-2.6-6.7h1.2l1.4,4c0.2,0.4,0.3,0.9,0.4,1.4c0.1-0.4,0.2-0.8,0.4-1.3l1.5-4.1h1.2l-2.6,6.7H196.6z"/>
		<path d="M205.9,262.4l1.2,0.1c-0.2,0.7-0.5,1.2-1,1.6s-1.1,0.6-1.9,0.6c-1,0-1.8-0.3-2.3-0.9c-0.6-0.6-0.9-1.5-0.9-2.6
			c0-1.1,0.3-2,0.9-2.6c0.6-0.6,1.3-0.9,2.3-0.9c0.9,0,1.6,0.3,2.2,0.9c0.6,0.6,0.9,1.5,0.9,2.6c0,0.1,0,0.2,0,0.3h-5
			c0,0.7,0.3,1.3,0.6,1.7s0.8,0.6,1.4,0.6c0.4,0,0.8-0.1,1.1-0.3C205.5,263.2,205.7,262.9,205.9,262.4z M202.1,260.6h3.8
			c-0.1-0.6-0.2-1-0.4-1.3c-0.4-0.4-0.8-0.7-1.4-0.7c-0.5,0-1,0.2-1.3,0.5C202.4,259.5,202.2,260,202.1,260.6z"/>
		<path d="M208.5,264.6v-9.3h1.1v9.3H208.5z"/>
		<path d="M210.9,261.2c0-1.2,0.3-2.2,1-2.8c0.6-0.5,1.3-0.7,2.1-0.7c0.9,0,1.7,0.3,2.3,0.9c0.6,0.6,0.9,1.4,0.9,2.5
			c0,0.9-0.1,1.5-0.4,2c-0.3,0.5-0.6,0.9-1.1,1.2c-0.5,0.3-1,0.4-1.6,0.4c-0.9,0-1.7-0.3-2.3-0.9
			C211.2,263.2,210.9,262.4,210.9,261.2z M212.1,261.2c0,0.9,0.2,1.5,0.6,1.9c0.4,0.4,0.9,0.6,1.4,0.6c0.6,0,1-0.2,1.4-0.6
			c0.4-0.4,0.6-1.1,0.6-2c0-0.8-0.2-1.5-0.6-1.9c-0.4-0.4-0.8-0.6-1.4-0.6c-0.6,0-1,0.2-1.4,0.6
			C212.3,259.7,212.1,260.3,212.1,261.2z"/>
		<path d="M218.6,267.2v-9.3h1v0.9c0.2-0.3,0.5-0.6,0.8-0.8c0.3-0.2,0.7-0.3,1.1-0.3c0.6,0,1.1,0.1,1.5,0.4s0.8,0.7,1,1.3
			s0.3,1.1,0.3,1.8c0,0.7-0.1,1.3-0.4,1.9c-0.2,0.6-0.6,1-1.1,1.3c-0.5,0.3-1,0.4-1.5,0.4c-0.4,0-0.7-0.1-1-0.2
			c-0.3-0.2-0.6-0.4-0.7-0.6v3.3H218.6z M219.6,261.3c0,0.9,0.2,1.5,0.5,1.9c0.4,0.4,0.8,0.6,1.3,0.6c0.5,0,0.9-0.2,1.3-0.6
			c0.4-0.4,0.5-1.1,0.5-2c0-0.9-0.2-1.5-0.5-1.9c-0.4-0.4-0.8-0.6-1.3-0.6c-0.5,0-0.9,0.2-1.3,0.7
			C219.8,259.7,219.6,260.4,219.6,261.3z"/>
		<path d="M230.4,262.4l1.2,0.1c-0.2,0.7-0.5,1.2-1,1.6s-1.1,0.6-1.9,0.6c-1,0-1.8-0.3-2.3-0.9c-0.6-0.6-0.9-1.5-0.9-2.6
			c0-1.1,0.3-2,0.9-2.6c0.6-0.6,1.3-0.9,2.3-0.9c0.9,0,1.6,0.3,2.2,0.9c0.6,0.6,0.9,1.5,0.9,2.6c0,0.1,0,0.2,0,0.3h-5
			c0,0.7,0.3,1.3,0.6,1.7s0.8,0.6,1.4,0.6c0.4,0,0.8-0.1,1.1-0.3C230,263.2,230.3,262.9,230.4,262.4z M226.7,260.6h3.8
			c-0.1-0.6-0.2-1-0.4-1.3c-0.4-0.4-0.8-0.7-1.4-0.7c-0.5,0-1,0.2-1.3,0.5C226.9,259.5,226.7,260,226.7,260.6z"/>
		<path d="M233,264.6v-6.7h1v1c0.3-0.5,0.5-0.8,0.7-0.9s0.5-0.2,0.7-0.2c0.4,0,0.8,0.1,1.2,0.4l-0.4,1.1c-0.3-0.2-0.6-0.2-0.8-0.2
			c-0.2,0-0.5,0.1-0.7,0.2c-0.2,0.2-0.3,0.4-0.4,0.6c-0.1,0.4-0.2,0.9-0.2,1.3v3.5H233z"/>
	</g>
</g>
<g>
	<path d="M54.6,181.5c-7.8,0-14.1,6.3-14.1,14.1c0,7.8,6.3,14.1,14.1,14.1s14.1-6.3,14.1-14.1C68.8,187.9,62.4,181.5,54.6,181.5z"/>
	<path d="M54,242.7 M40.3,213c0,0-14.3,0.2-14.3,13.4s0,16.2,0,16.2s27.9,0,28,0L40.3,213z"/>
	<path d="M69,213l-13.7,29.6h28c0,0,0-3.1,0-16.2C83.3,213.2,69,213,69,213z"/>
	<polygon points="54.6,213 44.8,213 54.6,234.8 64.5,213 	"/>
	<g>
		<path d="M26.6,260.9v-9.3h3.2c0.7,0,1.3,0,1.7,0.1c0.5,0.1,1,0.3,1.4,0.7c0.5,0.4,0.9,0.9,1.1,1.6c0.2,0.6,0.4,1.4,0.4,2.2
			c0,0.7-0.1,1.3-0.2,1.9c-0.2,0.5-0.4,1-0.6,1.4c-0.3,0.4-0.5,0.6-0.8,0.8s-0.7,0.4-1.1,0.5c-0.4,0.1-0.9,0.2-1.5,0.2H26.6z
			 M27.8,259.8h2c0.6,0,1.1-0.1,1.4-0.2c0.3-0.1,0.6-0.3,0.8-0.5c0.3-0.3,0.5-0.7,0.7-1.2c0.2-0.5,0.2-1.1,0.2-1.8
			c0-1-0.2-1.7-0.5-2.2s-0.7-0.9-1.2-1c-0.3-0.1-0.9-0.2-1.6-0.2h-2V259.8z"/>
		<path d="M40.4,258.7l1.2,0.1c-0.2,0.7-0.5,1.2-1,1.6s-1.1,0.6-1.9,0.6c-1,0-1.8-0.3-2.3-0.9c-0.6-0.6-0.9-1.5-0.9-2.6
			c0-1.1,0.3-2,0.9-2.6c0.6-0.6,1.3-0.9,2.3-0.9c0.9,0,1.6,0.3,2.2,0.9c0.6,0.6,0.9,1.5,0.9,2.6c0,0.1,0,0.2,0,0.3h-5
			c0,0.7,0.3,1.3,0.6,1.7s0.8,0.6,1.4,0.6c0.4,0,0.8-0.1,1.1-0.3C40,259.6,40.2,259.2,40.4,258.7z M36.7,256.9h3.8
			c-0.1-0.6-0.2-1-0.4-1.3c-0.4-0.4-0.8-0.7-1.4-0.7c-0.5,0-1,0.2-1.3,0.5C36.9,255.8,36.7,256.3,36.7,256.9z"/>
		<path d="M44.9,260.9l-2.6-6.7h1.2l1.4,4c0.2,0.4,0.3,0.9,0.4,1.4c0.1-0.4,0.2-0.8,0.4-1.3l1.5-4.1h1.2l-2.6,6.7H44.9z"/>
		<path d="M54.1,258.7l1.2,0.1c-0.2,0.7-0.5,1.2-1,1.6s-1.1,0.6-1.9,0.6c-1,0-1.8-0.3-2.3-0.9c-0.6-0.6-0.9-1.5-0.9-2.6
			c0-1.1,0.3-2,0.9-2.6c0.6-0.6,1.3-0.9,2.3-0.9c0.9,0,1.6,0.3,2.2,0.9c0.6,0.6,0.9,1.5,0.9,2.6c0,0.1,0,0.2,0,0.3h-5
			c0,0.7,0.3,1.3,0.6,1.7s0.8,0.6,1.4,0.6c0.4,0,0.8-0.1,1.1-0.3C53.7,259.6,54,259.2,54.1,258.7z M50.4,256.9h3.8
			c-0.1-0.6-0.2-1-0.4-1.3c-0.4-0.4-0.8-0.7-1.4-0.7c-0.5,0-1,0.2-1.3,0.5C50.6,255.8,50.4,256.3,50.4,256.9z"/>
		<path d="M56.7,260.9v-9.3h1.1v9.3H56.7z"/>
		<path d="M59.2,257.5c0-1.2,0.3-2.2,1-2.8c0.6-0.5,1.3-0.7,2.1-0.7c0.9,0,1.7,0.3,2.3,0.9c0.6,0.6,0.9,1.4,0.9,2.5
			c0,0.9-0.1,1.5-0.4,2c-0.3,0.5-0.6,0.9-1.1,1.2c-0.5,0.3-1,0.4-1.6,0.4c-0.9,0-1.7-0.3-2.3-0.9C59.5,259.6,59.2,258.7,59.2,257.5z
			 M60.4,257.5c0,0.9,0.2,1.5,0.6,1.9c0.4,0.4,0.9,0.6,1.4,0.6c0.6,0,1-0.2,1.4-0.6c0.4-0.4,0.6-1.1,0.6-2c0-0.8-0.2-1.5-0.6-1.9
			c-0.4-0.4-0.8-0.6-1.4-0.6c-0.6,0-1,0.2-1.4,0.6C60.6,256,60.4,256.7,60.4,257.5z"/>
		<path d="M66.9,263.5v-9.3h1v0.9c0.2-0.3,0.5-0.6,0.8-0.8c0.3-0.2,0.7-0.3,1.1-0.3c0.6,0,1.1,0.1,1.5,0.4s0.8,0.7,1,1.3
			s0.3,1.1,0.3,1.8c0,0.7-0.1,1.3-0.4,1.9c-0.2,0.6-0.6,1-1.1,1.3c-0.5,0.3-1,0.4-1.5,0.4c-0.4,0-0.7-0.1-1-0.2
			c-0.3-0.2-0.6-0.4-0.7-0.6v3.3H66.9z M67.9,257.6c0,0.9,0.2,1.5,0.5,1.9c0.4,0.4,0.8,0.6,1.3,0.6c0.5,0,0.9-0.2,1.3-0.6
			c0.4-0.4,0.5-1.1,0.5-2c0-0.9-0.2-1.5-0.5-1.9c-0.4-0.4-0.8-0.6-1.3-0.6c-0.5,0-0.9,0.2-1.3,0.7C68.1,256.1,67.9,256.7,67.9,257.6
			z"/>
		<path d="M78.7,258.7l1.2,0.1c-0.2,0.7-0.5,1.2-1,1.6s-1.1,0.6-1.9,0.6c-1,0-1.8-0.3-2.3-0.9c-0.6-0.6-0.9-1.5-0.9-2.6
			c0-1.1,0.3-2,0.9-2.6c0.6-0.6,1.3-0.9,2.3-0.9c0.9,0,1.6,0.3,2.2,0.9c0.6,0.6,0.9,1.5,0.9,2.6c0,0.1,0,0.2,0,0.3h-5
			c0,0.7,0.3,1.3,0.6,1.7s0.8,0.6,1.4,0.6c0.4,0,0.8-0.1,1.1-0.3C78.3,259.6,78.5,259.2,78.7,258.7z M75,256.9h3.8
			c-0.1-0.6-0.2-1-0.4-1.3c-0.4-0.4-0.8-0.7-1.4-0.7c-0.5,0-1,0.2-1.3,0.5C75.2,255.8,75,256.3,75,256.9z"/>
		<path d="M81.3,260.9v-6.7h1v1c0.3-0.5,0.5-0.8,0.7-0.9s0.5-0.2,0.7-0.2c0.4,0,0.8,0.1,1.2,0.4l-0.4,1.1c-0.3-0.2-0.6-0.2-0.8-0.2
			c-0.2,0-0.5,0.1-0.7,0.2c-0.2,0.2-0.3,0.4-0.4,0.6c-0.1,0.4-0.2,0.9-0.2,1.3v3.5H81.3z"/>
	</g>
</g>
<path d="M320.3,166.5c-1.1,0.7-2.2,2.6-2,4.4c0.1,1.1,0.5,2.4,2.6,3.1c1.2,0.4,2.6,0.1,3.7-0.8c1-0.8,1.4-2,1.2-3.1
	c-0.3-1.6-1.7-2.2-3.8-2.9c-0.4-0.1-0.9-0.3-1.4-0.5C320.4,166.6,320.4,166.6,320.3,166.5z M321.9,175.9c-0.6,0-1.2-0.1-1.7-0.3
	c-2.2-0.8-3.5-2.4-3.7-4.6c-0.1-2.4,1.2-5.1,3.1-6.1c1.1-0.6,2.3-0.4,3.3,0.3c0.2,0.1,0.3,0.4,0.3,0.7c1.8,0.7,3.7,1.6,4.1,3.9
	c0.3,1.8-0.3,3.5-1.8,4.8C324.6,175.4,323.2,175.9,321.9,175.9z"/>
<path d="M331.2,167.1c-0.9,0.5-1.6,1.4-1.8,2.3c-0.4,1.3-0.1,3,1.8,3.8c0.8,0.4,2.9-0.1,4.4-1.3c0.9-0.7,1.4-1.4,1.3-2
	c-0.1-1.4-1.8-1.9-3.9-2.3c-0.6-0.1-1.2-0.3-1.6-0.4C331.4,167.2,331.3,167.1,331.2,167.1z M332.1,175.1c-0.5,0-1.1-0.1-1.4-0.3
	c-2.7-1.2-3.4-3.8-2.8-5.9c0.6-2.2,2.7-4.4,5.6-4c0.4,0.1,0.8,0.4,0.8,1c0,0.1,0,0.1,0,0.1c1.9,0.4,4.2,1.3,4.6,3.6
	c0.1,1.3-0.5,2.6-1.9,3.7C335.5,174.4,333.6,175.1,332.1,175.1z"/>
<path d="M326.1,169.3c-0.2,0-0.4-0.1-0.6-0.2l-0.5-0.5c-0.3-0.3-0.3-0.7-0.1-1.1c0.4-0.8,1.1-1.2,2-1.4c1.1-0.2,2.4,0,3.4,0.6
	c0.4,0.3,0.5,0.8,0.2,1.2c-0.3,0.4-0.8,0.5-1.2,0.2c-0.6-0.4-1.4-0.5-2-0.4c-0.1,0.1-0.3,0.1-0.4,0.1c0.3,0.4,0.2,0.8-0.1,1.1
	C326.5,169.2,326.3,169.3,326.1,169.3z"/>
<path d="M331.8,171.4c-0.2,0-0.5-0.1-0.7-0.3c-0.5-0.7-0.8-1.4-0.7-2.2c0-0.4,0.4-0.8,0.9-0.8c0.5,0,0.8,0.4,0.8,0.9
	c0,0.4,0.1,0.7,0.3,1c0.3,0.4,0.2,0.9-0.1,1.2C332.1,171.3,332,171.4,331.8,171.4z"/>
<path d="M322.4,171.9c-0.4,0-0.9-0.4-0.9-0.9v-2.1c0-0.4,0.4-0.9,0.9-0.9c0.5,0,0.9,0.4,0.9,0.9v2.1
	C323.3,171.5,322.9,171.9,322.4,171.9z"/>
<path d="M327.6,178.6L327.6,178.6c-0.3,0-0.6,0-0.9,0c-0.8,0-1.5,0-2.2-0.1c-0.3,0-0.5-0.1-0.7-0.4c-0.1-0.2-0.1-0.5-0.1-0.8
	c0.7-1.9,1.1-3.8,1.5-5.6c0.1-0.4,0.6-0.8,1.1-0.7c0.4,0.1,0.8,0.6,0.7,1.1c-0.3,1.4-0.7,3.1-1.2,4.6c0.3,0,0.7,0,1.1,0
	c0.3,0,0.6,0,0.9,0c0.4,0,0.8,0.4,0.8,0.9C328.5,178.2,328.1,178.6,327.6,178.6z"/>
<path d="M327.7,183.4c-0.7,0-1.4-0.1-2-0.3c-2.8-0.8-5.1-2.9-5.6-5.2c-0.1-0.4,0.2-0.9,0.7-1.1c0.4-0.1,0.9,0.2,1.1,0.7
	c0.4,1.6,2.2,3.3,4.4,3.9c1.6,0.4,3.1,0.2,4-0.7c0.3-0.4,0.9-0.4,1.2,0c0.4,0.3,0.4,0.9,0,1.2C330.4,183,329.1,183.4,327.7,183.4z"
	/>
<path d="M324,188.2c-2.8,0-5.4-0.1-7.9-0.4c-0.4-0.1-0.8-0.4-0.8-0.8c-0.2-2.5,0.1-4.8,0.4-7.1c0.3-2,0.6-3.9,0.5-5.9
	c0-0.4,0.3-0.9,0.8-0.9c0.4,0,0.9,0.3,0.9,0.8c0.1,2.2-0.2,4.3-0.5,6.3c-0.3,1.9-0.6,3.9-0.5,5.9c5.8,0.5,12.7,0.4,20.6-0.5
	c0.5-5.1,0.1-9.2-1.1-9.8c-0.4-0.2-0.6-0.8-0.4-1.1c0.2-0.4,0.8-0.6,1.1-0.4c2.8,1.4,2.4,8.2,1.9,12.2c-0.1,0.4-0.4,0.8-0.8,0.8
	C333.3,187.9,328.4,188.2,324,188.2z"/>
<path d="M338.5,177.1c-0.1,0-0.4,0-0.6,0c-0.4,0-0.8-0.4-0.8-0.9c0-0.4,0.4-0.8,0.9-0.8c2.7,0.2,3.8-1.4,4.2-2.4
	c0.6-1.6,0.4-3.4-0.7-4.3c-0.8-0.7-2.1-0.5-3.7,0.4c-0.4,0.2-0.9,0.1-1.2-0.3c-0.3-0.4-0.1-0.9,0.3-1.2c3-1.9,4.9-1.1,5.7-0.3
	c1.6,1.3,2,4,1.1,6.2C342.9,175.9,341,177.1,338.5,177.1z"/>
<path d="M316,176.2c-1.3,0-2.1-0.6-2.5-1.1c-0.9-1-1.2-2.6-0.7-4c0.6-1.7,2.2-2.9,4.2-3.1c0.5-0.1,0.9,0.3,1,0.8
	c0.1,0.4-0.3,0.9-0.8,1c-1.9,0.2-2.6,1.5-2.9,2c-0.3,0.8-0.1,1.6,0.3,2.2c0.6,0.6,1.5,0.5,2.2,0.3c0.4-0.1,1,0.1,1.1,0.6
	c0.1,0.4-0.1,1-0.6,1.1C316.9,176.2,316.5,176.2,316,176.2z"/>
<path d="M338.5,166.2L338.5,166.2c-0.5-0.1-0.9-0.4-0.8-1c0.1-1.1-0.1-2.8-0.4-4.3c-0.1-0.4-0.1-0.7-0.1-1.1
	c-4.3-0.3-9.7,0.8-16,3.1c-0.4,0.1-1-0.1-1.1-0.5c-0.1-0.4,0.1-1,0.5-1.1c7-2.6,12.7-3.6,17.4-3.1c0.4,0.1,0.8,0.4,0.8,0.8
	c0.1,0.5,0.1,1.1,0.2,1.6c0.2,1.6,0.5,3.3,0.4,4.6C339.3,165.9,339,166.2,338.5,166.2z"/>
<path d="M339.9,166.7c-0.1,0-0.3,0-0.4,0c-0.4-0.1-0.8-0.4-0.8-1c0.1-0.4,0.4-0.8,1-0.8c1.3,0.1,2-1,2.4-1.9
	c1.2-2.7,0.9-7.1-0.5-8.2c-0.2-0.1-0.8-0.6-2,0.2c-0.2,0.1-0.5,0.1-0.8,0.1c-0.2-0.1-0.4-0.3-0.5-0.5c-2.1-6-6.4-8.3-13.5-7.1
	c-3.2,0.5-5.6,2.8-6.4,6.1c-1,4.1,0.5,8.7,3.6,11.1c0.4,0.3,0.4,0.8,0.1,1.2s-0.8,0.4-1.2,0.1c-3.6-2.8-5.4-8-4.2-12.8
	c1-4.1,3.8-6.8,7.8-7.4c7.4-1.3,12.5,1.2,15.1,7.3c1.5-0.6,2.6-0.1,3.1,0.4c2.2,1.9,2.4,7.1,1.1,10.3
	C342.8,165.7,341.5,166.7,339.9,166.7z"/>
<path d="M324.5,213.9c-0.1,0-0.1,0-0.2,0c-1.2-0.3-1.6-1-1.7-1.4c-0.4-1.5,1.2-3.1,1.9-3.8c2-1.9,3.6-2,5.7-2c2.1,0.1,4.6,0.3,6.1,2
	c0.9,1.1,1.3,2.6,1,4.5c-0.1,0.4-0.4,0.8-1,0.8c-0.4-0.1-0.8-0.5-0.8-1c0.1-1.4,0-2.5-0.6-3.1c-0.8-0.9-2.3-1.4-4.9-1.4
	c-1.9,0-3,0.1-4.5,1.5c-1,1-1.4,1.8-1.4,2.1c0,0,0.1,0.1,0.4,0.2c0.4,0.1,0.8,0.6,0.6,1.1C325.2,213.7,324.9,213.9,324.5,213.9z"/>
<path d="M346.8,211.3c-0.3,0-0.7-0.2-0.8-0.5c-0.6-1.4-1.4-2.8-2.2-4.2c-0.7-1.3-1.4-2.6-2-3.9c-0.1-0.4-0.4-0.9-0.8-1.5
	c-3.1-6.1-4.6-9.6-3.1-11.1c0.3-0.4,0.9-0.4,1.2,0c0.4,0.3,0.4,0.9,0,1.2c-0.3,0.3-0.3,1.9,3.4,9.1c0.4,0.7,0.6,1.2,0.8,1.6
	c0.6,1.3,1.3,2.6,2,3.8c0.8,1.4,1.6,2.9,2.2,4.4c0.2,0.4,0,1-0.5,1.1C347.1,211.3,346.9,211.3,346.8,211.3z"/>
<path d="M336.4,213.4c-0.1,0-0.3,0-0.4-0.1c-0.4-0.2-0.6-0.8-0.4-1.2c1.1-2.2,1.1-6.5,1-9.5c0-0.7,0-1.2,0-1.8
	c0-1.6,0.1-3.8,0.3-5.9c0.1-1.4,0.2-2.6,0.2-3.2c0-0.4,0.4-0.8,0.9-0.8l0,0c0.4,0,0.8,0.4,0.8,0.9c0,0.7-0.1,1.9-0.2,3.4
	c-0.1,1.9-0.3,4.2-0.3,5.7c0,0.5,0,1.1,0,1.7c0.1,3.3,0.1,7.7-1.1,10.4C337.1,213.2,336.8,213.4,336.4,213.4z"/>
<path d="M326.1,206.6c-0.1,0-0.1,0-0.2,0c-0.3-0.1-0.6-0.4-0.6-0.8c-0.1-1,0-1.9,0.3-2.8c-0.1-0.4-0.3-1-0.5-1.5
	c-0.1-0.4-0.3-0.7-0.4-1c-0.5-1.4-0.8-3-1.2-4.4c-0.4-2-1-4.2-1.9-6.1c-0.2-0.5,0-1,0.4-1.1c0.4-0.2,1,0,1.1,0.4
	c1,2.1,1.5,4.3,1.9,6.4c0.3,1.4,0.7,2.9,1.1,4.3c0.1,0.3,0.2,0.6,0.3,0.9c0.7-1.1,1.6-2.2,2.4-3.4c2.3-2.8,4.3-5.5,3.5-8.1
	c-0.1-0.4,0.1-0.9,0.6-1.1c0.4-0.1,0.9,0.1,1.1,0.6c1,3.4-1.4,6.6-3.7,9.6c-1.2,1.6-2.4,3.1-3,4.6c0.2,1.1,0.1,2.2-0.6,3.1
	C326.7,206.5,326.4,206.6,326.1,206.6z"/>
<path d="M327.6,199.9c-0.2,0-0.4-0.1-0.6-0.2c-1.4-1.2-1.8-3.6-1.1-5.6c0.1-0.3,0.2-0.5,0.4-0.8c-0.3-0.4-0.5-0.9-0.5-1.5
	c-0.1-1,0.9-2.2,1.9-3.4l0.2-0.3c0.1-0.1,0.2-0.2,0.4-0.3c0.8-0.2,1.6,0.1,2,0.9c0.2,0.5,0.1,1-0.3,1.2c-0.4,0.2-0.9,0.1-1.1-0.3
	c-1,1-1.5,1.8-1.5,2.1c0,0.1,0,0.2,0.1,0.3c0.4-0.3,1-0.4,1.6-0.5c0.3,0,0.6,0.1,0.8,0.3c0.1,0.2,0.2,0.5,0.1,0.8
	c-0.3,1.1-1.2,1.6-2.2,1.6c-0.1,0.1-0.1,0.4-0.2,0.5c-0.5,1.3-0.1,2.9,0.7,3.8c0.4,0.3,0.4,0.9,0.1,1.2
	C328.1,199.9,327.9,199.9,327.6,199.9z"/>
<path d="M317.7,213.9L317.7,213.9c-0.5-0.1-0.9-0.4-0.8-0.9c0.1-1.9,0-3.8-0.2-5.8c-0.1-1.6-0.3-3.4-0.3-5c0-1.6,0.3-3.3,0.6-4.9
	c0.3-1.9,0.6-3.8,0.6-5.6c-0.1-0.1-0.1-0.3-0.1-0.4v-0.9c0-0.4,0.4-0.8,0.8-0.9c0.4,0,0.8,0.3,0.9,0.8c0.3,2.3-0.1,4.8-0.4,7.3
	c-0.4,1.6-0.7,3.1-0.7,4.6c0,1.6,0.1,3.2,0.3,4.8c0.2,2,0.4,4.1,0.2,6.1C318.6,213.6,318.2,213.9,317.7,213.9z"/>
<path d="M311.5,209.7c-0.3,0-0.6-0.1-0.8-0.4c-0.2-0.4-0.1-1,0.4-1.2c3.6-1.9,4.4-3.3,4.8-7.6l0.1-1c0.1-1.9,0.5-6.8,0.4-7.6
	c-0.1-0.4,0.1-0.8,0.4-1c0.4-0.2,1-0.1,1.2,0.4c0.1,0.3,0.2,0.5-0.3,8.4l-0.2,1c-0.4,4.9-1.5,6.8-5.7,9
	C311.8,209.7,311.7,209.7,311.5,209.7z"/>
<path d="M305.4,213.3c-0.8,0-1.7-0.2-2.6-0.7c-1.9-1.1-3.3-2.9-3.1-4.7c0.1-0.8,0.5-2.4,2.9-3.2c4.6-1.6,7,2.2,8.7,4.9
	c0.2,0.3,0.4,0.6,0.5,0.9c0.2,0.4,0.1,0.9-0.2,1.2c-0.4,0.2-0.9,0.1-1.2-0.2c-0.2-0.3-0.4-0.6-0.6-0.9c-2.1-3.3-3.7-5.3-6.7-4.3
	c-1.1,0.4-1.6,1-1.7,1.7c-0.1,1.1,0.9,2.3,2.2,3.1c0.7,0.3,2.3,1,3.8-0.2c0.4-0.3,0.9-0.2,1.2,0.1c0.3,0.4,0.2,0.9-0.1,1.2
	C307.5,212.9,306.5,213.3,305.4,213.3z"/>
<path d="M305.3,200.1l-0.1,0.8L305.3,200.1z M305.8,210.8L305.8,210.8c-0.5,0-0.9-0.4-0.9-0.9c0-0.5-0.3-1.9-0.5-3.1
	c-0.8-3.8-1.2-6.1-0.3-7.1c0.3-0.4,0.8-0.4,1.3-0.4c0.4,0.1,0.8,0.5,0.7,1c-0.1,0.4-0.4,0.7-0.8,0.7c-0.2,0.9,0.4,4,0.8,5.5
	c0.4,1.8,0.6,2.9,0.6,3.6C306.6,210.4,306.3,210.8,305.8,210.8z"/>
<g>
	<path d="M309.9,231.5l-3-11.5h1.6l1.7,7.5c0.2,0.8,0.3,1.6,0.5,2.3c0.3-1.2,0.5-1.9,0.5-2.1l2.2-7.7h1.8l1.6,5.8
		c0.4,1.4,0.7,2.8,0.9,4.1c0.1-0.7,0.3-1.6,0.6-2.5l1.8-7.4h1.5l-3.1,11.5H317l-2.4-8.7c-0.2-0.7-0.3-1.2-0.4-1.3
		c-0.1,0.5-0.2,1-0.3,1.3l-2.4,8.7H309.9z"/>
	<path d="M322.5,231.5v-8.3h1.3v1.3c0.3-0.6,0.6-1,0.9-1.2s0.6-0.3,0.9-0.3c0.5,0,1,0.2,1.4,0.5l-0.5,1.3c-0.3-0.2-0.7-0.3-1-0.3
		c-0.3,0-0.6,0.1-0.8,0.3c-0.2,0.2-0.4,0.4-0.5,0.8c-0.2,0.5-0.2,1-0.2,1.6v4.3H322.5z"/>
	<path d="M327.8,221.7v-1.6h1.4v1.6H327.8z M327.8,231.5v-8.3h1.4v8.3H327.8z"/>
	<path d="M334.5,230.3l0.2,1.2c-0.4,0.1-0.8,0.1-1.1,0.1c-0.5,0-0.9-0.1-1.2-0.2s-0.5-0.4-0.6-0.6c-0.1-0.3-0.2-0.8-0.2-1.7v-4.8h-1
		v-1.1h1v-2.1l1.4-0.8v2.9h1.4v1.1H333v4.9c0,0.4,0,0.7,0.1,0.8c0,0.1,0.1,0.2,0.2,0.3c0.1,0.1,0.3,0.1,0.5,0.1
		C334,230.3,334.2,230.3,334.5,230.3z"/>
	<path d="M341.5,228.8l1.5,0.2c-0.2,0.8-0.7,1.5-1.3,2c-0.6,0.5-1.4,0.7-2.4,0.7c-1.2,0-2.2-0.4-2.9-1.1s-1.1-1.8-1.1-3.1
		c0-1.4,0.4-2.5,1.1-3.2c0.7-0.8,1.7-1.2,2.8-1.2c1.1,0,2,0.4,2.7,1.1c0.7,0.8,1.1,1.8,1.1,3.2c0,0.1,0,0.2,0,0.4h-6.2
		c0.1,0.9,0.3,1.6,0.8,2.1c0.5,0.5,1,0.7,1.7,0.7c0.5,0,1-0.1,1.3-0.4C341,229.9,341.3,229.4,341.5,228.8z M336.9,226.6h4.6
		c-0.1-0.7-0.2-1.2-0.5-1.6c-0.4-0.5-1-0.8-1.7-0.8c-0.6,0-1.2,0.2-1.6,0.6C337.2,225.3,336.9,225.9,336.9,226.6z"/>
	<path d="M344.7,231.5v-8.3h1.3v1.3c0.3-0.6,0.6-1,0.9-1.2s0.6-0.3,0.9-0.3c0.5,0,1,0.2,1.4,0.5l-0.5,1.3c-0.3-0.2-0.7-0.3-1-0.3
		c-0.3,0-0.6,0.1-0.8,0.3c-0.2,0.2-0.4,0.4-0.5,0.8c-0.2,0.5-0.2,1-0.2,1.6v4.3H344.7z"/>
</g>
<path class="st0" d="M191.7,136l103.9-65.4L191.7,136z"/>
<line class="st0" x1="191.7" y1="148.9" x2="295.6" y2="195"/>
<path d="M434.3,111.3v1.1h1.1v-1.1H434.3z M448.7,106.6v5.7h4.1v-1h-2.9v-4.8H448.7z M441.9,106.6v5.8h1.1v-4.5l1.1,4.5h1.1l1.1-4.5
	v4.5h1.1v-5.8h-1.8l-1,3.9l-1-3.9H441.9z M436.1,106.6l1.8,2.8l-2,3h1.4l1.3-2l1.3,2h1.4l-2-3l1.8-2.8h-1.4l-1.1,1.9l-1.2-1.9H436.1
	z M431.6,103.7H459c0.4,0,0.8,0.3,0.8,0.8v9.9c0,0.4-0.3,0.8-0.8,0.8h-27.3c-0.4,0-0.8-0.3-0.8-0.8v-9.9
	C430.9,104.1,431.2,103.7,431.6,103.7z M429,98.7L429,98.7c-1,0.1-0.8,1.6,0.2,1.5h12.7c0.4,0,0.8-0.3,0.8-0.8s-0.3-0.8-0.8-0.8
	h-12.7C429.1,98.7,429,98.7,429,98.7z M429,94.2L429,94.2c-1,0.1-0.8,1.6,0.2,1.5h23.6c0.4,0,0.8-0.3,0.8-0.8s-0.3-0.8-0.8-0.8
	h-23.6C429.1,94.2,429,94.2,429,94.2z M429,89.8L429,89.8c-0.4,0-0.7,0.4-0.7,0.8c0,0.4,0.4,0.7,0.8,0.7h23.6c0.4,0,0.8-0.3,0.8-0.8
	s-0.3-0.8-0.8-0.8h-23.6C429.1,89.8,429,89.8,429,89.8z M429.7,78.8L429.7,78.8c-0.6,0.1-0.8,0.9-0.3,1.3l3.8,2.9l-3.8,2.9
	c-0.3,0.3-0.4,0.7-0.1,1.1c0.3,0.3,0.7,0.4,1.1,0.1l4.6-3.6c0.4-0.3,0.4-0.9,0-1.2l-4.6-3.5C430.1,78.8,429.9,78.7,429.7,78.8z
	 M446.1,74.2l7.8,7.5l0.6,0.5h-6.8c-0.8,0-1.5-0.7-1.5-1.5V74.2z M427.9,73.2h16.7v7.5c0,1.7,1.4,3,3,3h7.9v18.6h-23.9
	c-1.2,0-2.2,1-2.2,2.2v8h-1.5c-0.8,0-1.5-0.7-1.5-1.5V74.7C426.4,73.9,427,73.2,427.9,73.2z M445.2,71.7L445.2,71.7
	C445.2,71.7,445.2,71.7,445.2,71.7l-17.3,0c-1.7,0-3,1.4-3,3V111c0,1.7,1.4,3,3,3h1.5v0.4c0,1.2,1,2.2,2.2,2.2H459
	c1.2,0,2.2-1,2.2-2.2v-9.9c0-1.2-1-2.2-2.2-2.2h-2V83c0,0,0,0,0,0c0,0,0,0,0,0c0,0,0-0.1,0-0.1c0,0,0,0,0,0c0,0,0,0,0,0c0,0,0,0,0,0
	c0,0,0,0,0,0c0,0,0,0,0,0s0,0,0,0c0,0,0,0,0,0c0,0,0,0,0,0c0,0,0,0,0,0c0,0,0,0,0,0c0,0,0,0,0,0c0,0,0,0,0,0l-10.9-10.5c0,0,0,0,0,0
	c0,0,0,0,0,0c0,0,0,0,0,0c0,0,0,0,0,0c0,0,0,0,0,0c0,0,0,0,0,0c0,0,0,0,0,0c0,0,0,0,0,0c0,0,0,0,0,0c0,0,0,0,0,0c0,0,0,0,0,0
	c0,0,0,0,0,0c0,0,0,0,0,0C445.4,71.7,445.3,71.7,445.2,71.7z"/>
<path d="M487.4,110.8v1.1h1.1v-1.1H487.4z M501.7,106.1v5.7h4.1v-1h-2.9v-4.8H501.7z M495,106.1v5.8h1.1v-4.5l1.1,4.5h1.1l1.1-4.5
	v4.5h1.1v-5.8h-1.8l-1,3.9l-1-3.9H495z M489.2,106.1l1.8,2.8l-2,3h1.4l1.3-2l1.3,2h1.4l-2-3l1.8-2.8h-1.4l-1.1,1.9l-1.2-1.9H489.2z
	 M484.7,103.2H512c0.4,0,0.8,0.3,0.8,0.8v9.9c0,0.4-0.3,0.8-0.8,0.8h-27.3c-0.4,0-0.8-0.3-0.8-0.8V104
	C484,103.6,484.3,103.2,484.7,103.2z M482.1,98.2L482.1,98.2c-1,0.1-0.8,1.6,0.2,1.5h12.7c0.4,0,0.8-0.3,0.8-0.8
	c0-0.4-0.3-0.8-0.8-0.8h-12.7C482.2,98.2,482.1,98.2,482.1,98.2z M482.1,93.7L482.1,93.7c-1,0.1-0.8,1.6,0.2,1.5h23.6
	c0.4,0,0.8-0.3,0.8-0.8c0-0.4-0.3-0.8-0.8-0.8h-23.6C482.2,93.7,482.1,93.7,482.1,93.7z M482.1,89.3L482.1,89.3
	c-0.4,0-0.7,0.4-0.7,0.8c0,0.4,0.4,0.7,0.8,0.7h23.6c0.4,0,0.8-0.3,0.8-0.8s-0.3-0.8-0.8-0.8h-23.6
	C482.2,89.3,482.1,89.3,482.1,89.3z M482.8,78.2L482.8,78.2c-0.6,0.1-0.8,0.9-0.3,1.3l3.8,2.9l-3.8,2.9c-0.3,0.3-0.4,0.7-0.1,1.1
	c0.3,0.3,0.7,0.4,1.1,0.1l4.6-3.6c0.4-0.3,0.4-0.9,0-1.2l-4.6-3.5C483.2,78.3,483,78.2,482.8,78.2z M499.1,73.7l7.8,7.5l0.6,0.5
	h-6.8c-0.8,0-1.5-0.7-1.5-1.5V73.7z M481,72.7h16.7v7.5c0,1.7,1.4,3,3,3h7.9v18.6h-23.9c-1.2,0-2.2,1-2.2,2.2v8H481
	c-0.8,0-1.5-0.7-1.5-1.5V74.2C479.4,73.3,480.1,72.7,481,72.7z M498.3,71.1L498.3,71.1C498.3,71.2,498.3,71.2,498.3,71.1l-17.3,0
	c-1.7,0-3,1.4-3,3v36.3c0,1.7,1.4,3,3,3h1.5v0.4c0,1.2,1,2.2,2.2,2.2H512c1.2,0,2.2-1,2.2-2.2V104c0-1.2-1-2.2-2.2-2.2h-2V82.5
	c0,0,0,0,0,0c0,0,0,0,0,0c0,0,0-0.1,0-0.1c0,0,0,0,0,0c0,0,0,0,0,0c0,0,0,0,0,0c0,0,0,0,0,0c0,0,0,0,0,0s0,0,0,0c0,0,0,0,0,0
	c0,0,0,0,0,0c0,0,0,0,0,0c0,0,0,0,0,0c0,0,0,0,0,0c0,0,0,0,0,0l-10.9-10.5c0,0,0,0,0,0c0,0,0,0,0,0c0,0,0,0,0,0c0,0,0,0,0,0
	c0,0,0,0,0,0c0,0,0,0,0,0c0,0,0,0,0,0c0,0,0,0,0,0c0,0,0,0,0,0c0,0,0,0,0,0c0,0,0,0,0,0c0,0,0,0,0,0c0,0,0,0,0,0
	C498.4,71.2,498.4,71.1,498.3,71.1z"/>
<path d="M489.3,171.3v1.1h1.1v-1.1H489.3z M503.7,166.6v5.7h4.1v-1h-2.9v-4.8H503.7z M496.9,166.6v5.8h1.1v-4.5l1.1,4.5h1.1l1.1-4.5
	v4.5h1.1v-5.8h-1.8l-1,3.9l-1-3.9H496.9z M491.1,166.6l1.8,2.8l-2,3h1.4l1.3-2l1.3,2h1.4l-2-3l1.8-2.8h-1.4l-1.1,1.9l-1.2-1.9H491.1
	z M486.6,163.7H514c0.4,0,0.8,0.3,0.8,0.8v9.9c0,0.4-0.3,0.8-0.8,0.8h-27.3c-0.4,0-0.8-0.3-0.8-0.8v-9.9
	C485.9,164.1,486.2,163.7,486.6,163.7z M484,158.7L484,158.7c-1,0.1-0.8,1.6,0.2,1.5h12.7c0.4,0,0.8-0.3,0.8-0.8s-0.3-0.8-0.8-0.8
	h-12.7C484.1,158.7,484,158.7,484,158.7z M484,154.2L484,154.2c-1,0.1-0.8,1.6,0.2,1.5h23.6c0.4,0,0.8-0.3,0.8-0.8s-0.3-0.8-0.8-0.8
	h-23.6C484.1,154.2,484,154.2,484,154.2z M484,149.8L484,149.8c-0.4,0-0.7,0.4-0.7,0.8c0,0.4,0.4,0.7,0.8,0.7h23.6
	c0.4,0,0.8-0.3,0.8-0.8s-0.3-0.8-0.8-0.8h-23.6C484.1,149.8,484,149.8,484,149.8z M484.7,138.8L484.7,138.8
	c-0.6,0.1-0.8,0.9-0.3,1.3l3.8,2.9l-3.8,2.9c-0.3,0.3-0.4,0.7-0.1,1.1c0.3,0.3,0.7,0.4,1.1,0.1l4.6-3.6c0.4-0.3,0.4-0.9,0-1.2
	l-4.6-3.5C485.1,138.8,484.9,138.7,484.7,138.8z M501.1,134.2l7.8,7.5l0.6,0.5h-6.8c-0.8,0-1.5-0.7-1.5-1.5V134.2z M482.9,133.2
	h16.7v7.5c0,1.7,1.4,3,3,3h7.9v18.6h-23.9c-1.2,0-2.2,1-2.2,2.2v8h-1.5c-0.8,0-1.5-0.7-1.5-1.5v-36.3
	C481.4,133.9,482,133.2,482.9,133.2z M500.2,131.7L500.2,131.7C500.2,131.7,500.2,131.7,500.2,131.7l-17.3,0c-1.7,0-3,1.4-3,3V171
	c0,1.7,1.4,3,3,3h1.5v0.4c0,1.2,1,2.2,2.2,2.2H514c1.2,0,2.2-1,2.2-2.2v-9.9c0-1.2-1-2.2-2.2-2.2h-2V143c0,0,0,0,0,0c0,0,0,0,0,0
	c0,0,0-0.1,0-0.1c0,0,0,0,0,0c0,0,0,0,0,0c0,0,0,0,0,0c0,0,0,0,0,0c0,0,0,0,0,0c0,0,0,0,0,0c0,0,0,0,0,0c0,0,0,0,0,0c0,0,0,0,0,0
	c0,0,0,0,0,0c0,0,0,0,0,0c0,0,0,0,0,0l-10.9-10.5c0,0,0,0,0,0c0,0,0,0,0,0c0,0,0,0,0,0c0,0,0,0,0,0c0,0,0,0,0,0c0,0,0,0,0,0
	c0,0,0,0,0,0c0,0,0,0,0,0c0,0,0,0,0,0c0,0,0,0,0,0c0,0,0,0,0,0c0,0,0,0,0,0c0,0,0,0,0,0C500.4,131.7,500.3,131.7,500.2,131.7z"/>
<path d="M438.3,172.3v1.1h1.1v-1.1H438.3z M452.7,167.6v5.7h4.1v-1h-2.9v-4.8H452.7z M445.9,167.6v5.8h1.1v-4.5l1.1,4.5h1.1l1.1-4.5
	v4.5h1.1v-5.8h-1.8l-1,3.9l-1-3.9H445.9z M440.1,167.6l1.8,2.8l-2,3h1.4l1.3-2l1.3,2h1.4l-2-3l1.8-2.8h-1.4l-1.1,1.9l-1.2-1.9H440.1
	z M435.6,164.7H463c0.4,0,0.8,0.3,0.8,0.8v9.9c0,0.4-0.3,0.8-0.8,0.8h-27.3c-0.4,0-0.8-0.3-0.8-0.8v-9.9
	C434.9,165.1,435.2,164.7,435.6,164.7z M433,159.7L433,159.7c-1,0.1-0.8,1.6,0.2,1.5h12.7c0.4,0,0.8-0.3,0.8-0.8s-0.3-0.8-0.8-0.8
	h-12.7C433.1,159.7,433,159.7,433,159.7z M433,155.2L433,155.2c-1,0.1-0.8,1.6,0.2,1.5h23.6c0.4,0,0.8-0.3,0.8-0.8s-0.3-0.8-0.8-0.8
	h-23.6C433.1,155.2,433,155.2,433,155.2z M433,150.8L433,150.8c-0.4,0-0.7,0.4-0.7,0.8c0,0.4,0.4,0.7,0.8,0.7h23.6
	c0.4,0,0.8-0.3,0.8-0.8s-0.3-0.8-0.8-0.8h-23.6C433.1,150.8,433,150.8,433,150.8z M433.7,139.8L433.7,139.8
	c-0.6,0.1-0.8,0.9-0.3,1.3l3.8,2.9l-3.8,2.9c-0.3,0.3-0.4,0.7-0.1,1.1c0.3,0.3,0.7,0.4,1.1,0.1l4.6-3.6c0.4-0.3,0.4-0.9,0-1.2
	l-4.6-3.5C434.1,139.8,433.9,139.7,433.7,139.8z M450.1,135.2l7.8,7.5l0.6,0.5h-6.8c-0.8,0-1.5-0.7-1.5-1.5V135.2z M431.9,134.2
	h16.7v7.5c0,1.7,1.4,3,3,3h7.9v18.6h-23.9c-1.2,0-2.2,1-2.2,2.2v8h-1.5c-0.8,0-1.5-0.7-1.5-1.5v-36.3
	C430.4,134.9,431,134.2,431.9,134.2z M449.2,132.7L449.2,132.7C449.2,132.7,449.2,132.7,449.2,132.7l-17.3,0c-1.7,0-3,1.4-3,3V172
	c0,1.7,1.4,3,3,3h1.5v0.4c0,1.2,1,2.2,2.2,2.2H463c1.2,0,2.2-1,2.2-2.2v-9.9c0-1.2-1-2.2-2.2-2.2h-2V144c0,0,0,0,0,0c0,0,0,0,0,0
	c0,0,0-0.1,0-0.1c0,0,0,0,0,0c0,0,0,0,0,0c0,0,0,0,0,0c0,0,0,0,0,0c0,0,0,0,0,0c0,0,0,0,0,0c0,0,0,0,0,0c0,0,0,0,0,0c0,0,0,0,0,0
	c0,0,0,0,0,0c0,0,0,0,0,0c0,0,0,0,0,0l-10.9-10.5c0,0,0,0,0,0c0,0,0,0,0,0c0,0,0,0,0,0c0,0,0,0,0,0c0,0,0,0,0,0c0,0,0,0,0,0
	c0,0,0,0,0,0c0,0,0,0,0,0c0,0,0,0,0,0c0,0,0,0,0,0c0,0,0,0,0,0c0,0,0,0,0,0c0,0,0,0,0,0C449.4,132.7,449.3,132.7,449.2,132.7z"/>
<line class="st0" x1="350.9" y1="61.7" x2="412" y2="89.3"/>
<line class="st0" x1="347.7" y1="191.9" x2="416" y2="169.3"/>
<g>
	<path d="M411.9,205.6v-11.5h3.9c0.9,0,1.6,0.1,2,0.2c0.7,0.2,1.2,0.4,1.7,0.8c0.6,0.5,1.1,1.2,1.4,2c0.3,0.8,0.4,1.7,0.4,2.7
		c0,0.9-0.1,1.6-0.3,2.3s-0.5,1.2-0.8,1.7c-0.3,0.4-0.7,0.8-1,1c-0.4,0.3-0.8,0.4-1.4,0.6c-0.5,0.1-1.1,0.2-1.8,0.2H411.9z
		 M413.4,204.2h2.4c0.8,0,1.3-0.1,1.8-0.2s0.8-0.3,1-0.6c0.4-0.4,0.6-0.8,0.8-1.4c0.2-0.6,0.3-1.3,0.3-2.2c0-1.2-0.2-2.1-0.6-2.8
		c-0.4-0.6-0.9-1.1-1.4-1.3c-0.4-0.2-1.1-0.2-2-0.2h-2.4V204.2z"/>
	<path d="M422.7,201.5c0-1.5,0.4-2.7,1.3-3.4c0.7-0.6,1.6-0.9,2.6-0.9c1.1,0,2.1,0.4,2.8,1.1c0.7,0.7,1.1,1.8,1.1,3.1
		c0,1.1-0.2,1.9-0.5,2.5c-0.3,0.6-0.8,1.1-1.4,1.4c-0.6,0.3-1.3,0.5-2,0.5c-1.2,0-2.1-0.4-2.8-1.1
		C423.1,203.9,422.7,202.9,422.7,201.5z M424.2,201.5c0,1.1,0.2,1.9,0.7,2.4c0.5,0.5,1,0.8,1.8,0.8c0.7,0,1.3-0.3,1.7-0.8
		c0.5-0.5,0.7-1.3,0.7-2.4c0-1-0.2-1.8-0.7-2.3c-0.5-0.5-1-0.8-1.7-0.8c-0.7,0-1.3,0.3-1.8,0.8C424.4,199.6,424.2,200.4,424.2,201.5
		z"/>
	<path d="M437.6,202.6l1.4,0.2c-0.2,1-0.5,1.7-1.2,2.2c-0.6,0.5-1.4,0.8-2.3,0.8c-1.1,0-2-0.4-2.7-1.1c-0.7-0.7-1-1.8-1-3.2
		c0-0.9,0.1-1.7,0.4-2.4s0.7-1.2,1.4-1.5c0.6-0.3,1.3-0.5,2-0.5c0.9,0,1.6,0.2,2.2,0.7c0.6,0.5,0.9,1.1,1.1,1.9l-1.4,0.2
		c-0.1-0.6-0.4-1-0.7-1.3c-0.3-0.3-0.7-0.4-1.2-0.4c-0.7,0-1.3,0.3-1.7,0.8c-0.4,0.5-0.7,1.3-0.7,2.4c0,1.1,0.2,1.9,0.6,2.4
		c0.4,0.5,1,0.8,1.7,0.8c0.6,0,1-0.2,1.4-0.5C437.2,203.8,437.5,203.3,437.6,202.6z"/>
	<path d="M445.6,205.6v-1.2c-0.6,0.9-1.5,1.4-2.6,1.4c-0.5,0-0.9-0.1-1.4-0.3c-0.4-0.2-0.7-0.4-0.9-0.7c-0.2-0.3-0.4-0.6-0.4-1
		c-0.1-0.3-0.1-0.7-0.1-1.3v-5.1h1.4v4.6c0,0.7,0,1.2,0.1,1.5c0.1,0.4,0.3,0.7,0.6,0.9c0.3,0.2,0.6,0.3,1.1,0.3s0.8-0.1,1.2-0.3
		c0.4-0.2,0.6-0.5,0.8-0.9c0.2-0.4,0.2-0.9,0.2-1.6v-4.4h1.4v8.3H445.6z"/>
	<path d="M449,205.6v-8.3h1.3v1.2c0.3-0.4,0.6-0.7,1-1c0.4-0.2,0.9-0.4,1.5-0.4c0.6,0,1.1,0.1,1.5,0.4c0.4,0.3,0.7,0.6,0.8,1.1
		c0.7-1,1.5-1.5,2.6-1.5c0.8,0,1.5,0.2,1.9,0.7c0.4,0.5,0.7,1.2,0.7,2.1v5.7h-1.4v-5.2c0-0.6,0-1-0.1-1.2c-0.1-0.2-0.3-0.4-0.5-0.6
		c-0.2-0.2-0.5-0.2-0.8-0.2c-0.6,0-1.1,0.2-1.5,0.6c-0.4,0.4-0.6,1-0.6,1.9v4.8H454v-5.4c0-0.6-0.1-1.1-0.3-1.4
		c-0.2-0.3-0.6-0.5-1.1-0.5c-0.4,0-0.8,0.1-1.1,0.3c-0.3,0.2-0.6,0.5-0.7,0.9c-0.2,0.4-0.2,1-0.2,1.7v4.3H449z"/>
	<path d="M468,202.9l1.5,0.2c-0.2,0.8-0.7,1.5-1.3,2c-0.6,0.5-1.4,0.7-2.4,0.7c-1.2,0-2.2-0.4-2.9-1.1c-0.7-0.7-1.1-1.8-1.1-3.1
		c0-1.4,0.4-2.5,1.1-3.2c0.7-0.8,1.7-1.2,2.8-1.2c1.1,0,2,0.4,2.7,1.1c0.7,0.8,1.1,1.8,1.1,3.2c0,0.1,0,0.2,0,0.4h-6.2
		c0.1,0.9,0.3,1.6,0.8,2.1c0.5,0.5,1,0.7,1.7,0.7c0.5,0,1-0.1,1.3-0.4C467.5,204,467.8,203.5,468,202.9z M463.4,200.7h4.6
		c-0.1-0.7-0.2-1.2-0.5-1.6c-0.4-0.5-1-0.8-1.7-0.8c-0.6,0-1.2,0.2-1.6,0.6C463.7,199.4,463.5,199.9,463.4,200.7z"/>
	<path d="M471.3,205.6v-8.3h1.3v1.2c0.6-0.9,1.5-1.4,2.6-1.4c0.5,0,1,0.1,1.4,0.3c0.4,0.2,0.7,0.4,0.9,0.7c0.2,0.3,0.4,0.6,0.4,1
		c0.1,0.3,0.1,0.7,0.1,1.4v5.1h-1.4v-5c0-0.6-0.1-1-0.2-1.3c-0.1-0.3-0.3-0.5-0.6-0.7c-0.3-0.2-0.6-0.3-1-0.3
		c-0.6,0-1.1,0.2-1.6,0.6c-0.4,0.4-0.7,1.1-0.7,2.2v4.5H471.3z"/>
	<path d="M483.2,204.3l0.2,1.2c-0.4,0.1-0.8,0.1-1.1,0.1c-0.5,0-0.9-0.1-1.2-0.2s-0.5-0.4-0.6-0.6c-0.1-0.3-0.2-0.8-0.2-1.7v-4.8h-1
		v-1.1h1v-2.1l1.4-0.8v2.9h1.4v1.1h-1.4v4.9c0,0.4,0,0.7,0.1,0.8c0,0.1,0.1,0.2,0.2,0.3c0.1,0.1,0.3,0.1,0.5,0.1
		C482.8,204.4,483,204.4,483.2,204.3z"/>
	<path d="M490,204.6c-0.5,0.4-1,0.8-1.5,0.9c-0.5,0.2-1,0.3-1.6,0.3c-0.9,0-1.6-0.2-2.1-0.7c-0.5-0.4-0.7-1-0.7-1.7
		c0-0.4,0.1-0.8,0.3-1.1c0.2-0.3,0.4-0.6,0.7-0.8c0.3-0.2,0.6-0.4,1-0.5c0.3-0.1,0.7-0.1,1.2-0.2c1.1-0.1,2-0.3,2.5-0.5
		c0-0.2,0-0.3,0-0.4c0-0.6-0.1-1-0.4-1.2c-0.4-0.3-0.9-0.5-1.6-0.5c-0.7,0-1.1,0.1-1.5,0.3c-0.3,0.2-0.5,0.6-0.7,1.2l-1.4-0.2
		c0.1-0.6,0.3-1.1,0.6-1.4c0.3-0.4,0.7-0.6,1.2-0.8c0.5-0.2,1.2-0.3,1.9-0.3c0.7,0,1.3,0.1,1.7,0.2c0.4,0.2,0.8,0.4,1,0.6
		c0.2,0.3,0.4,0.6,0.4,1c0,0.2,0.1,0.7,0.1,1.3v1.9c0,1.3,0,2.1,0.1,2.5c0.1,0.3,0.2,0.7,0.4,1h-1.5
		C490.2,205.3,490.1,205,490,204.6z M489.9,201.4c-0.5,0.2-1.3,0.4-2.3,0.5c-0.6,0.1-1,0.2-1.2,0.3c-0.2,0.1-0.4,0.3-0.6,0.5
		c-0.1,0.2-0.2,0.4-0.2,0.7c0,0.4,0.1,0.7,0.4,0.9c0.3,0.2,0.7,0.4,1.2,0.4c0.5,0,1-0.1,1.4-0.4c0.4-0.2,0.7-0.6,0.9-1
		c0.2-0.3,0.2-0.8,0.2-1.4V201.4z"/>
	<path d="M496.6,204.3l0.2,1.2c-0.4,0.1-0.8,0.1-1.1,0.1c-0.5,0-0.9-0.1-1.2-0.2s-0.5-0.4-0.6-0.6c-0.1-0.3-0.2-0.8-0.2-1.7v-4.8h-1
		v-1.1h1v-2.1l1.4-0.8v2.9h1.4v1.1h-1.4v4.9c0,0.4,0,0.7,0.1,0.8c0,0.1,0.1,0.2,0.2,0.3c0.1,0.1,0.3,0.1,0.5,0.1
		C496.1,204.4,496.3,204.4,496.6,204.3z"/>
	<path d="M498,195.8v-1.6h1.4v1.6H498z M498,205.6v-8.3h1.4v8.3H498z"/>
	<path d="M501,201.5c0-1.5,0.4-2.7,1.3-3.4c0.7-0.6,1.6-0.9,2.6-0.9c1.1,0,2.1,0.4,2.8,1.1c0.7,0.7,1.1,1.8,1.1,3.1
		c0,1.1-0.2,1.9-0.5,2.5c-0.3,0.6-0.8,1.1-1.4,1.4c-0.6,0.3-1.3,0.5-2,0.5c-1.2,0-2.1-0.4-2.8-1.1C501.3,203.9,501,202.9,501,201.5z
		 M502.4,201.5c0,1.1,0.2,1.9,0.7,2.4c0.5,0.5,1,0.8,1.8,0.8c0.7,0,1.3-0.3,1.7-0.8c0.5-0.5,0.7-1.3,0.7-2.4c0-1-0.2-1.8-0.7-2.3
		c-0.5-0.5-1-0.8-1.7-0.8c-0.7,0-1.3,0.3-1.8,0.8C502.7,199.6,502.4,200.4,502.4,201.5z"/>
	<path d="M510.4,205.6v-8.3h1.3v1.2c0.6-0.9,1.5-1.4,2.6-1.4c0.5,0,1,0.1,1.4,0.3c0.4,0.2,0.7,0.4,0.9,0.7c0.2,0.3,0.4,0.6,0.4,1
		c0.1,0.3,0.1,0.7,0.1,1.4v5.1h-1.4v-5c0-0.6-0.1-1-0.2-1.3c-0.1-0.3-0.3-0.5-0.6-0.7c-0.3-0.2-0.6-0.3-1-0.3
		c-0.6,0-1.1,0.2-1.6,0.6c-0.4,0.4-0.7,1.1-0.7,2.2v4.5H510.4z"/>
	<path d="M525,205.6h-1.3v-11.5h1.4v4.1c0.6-0.7,1.4-1.1,2.3-1.1c0.5,0,1,0.1,1.4,0.3c0.5,0.2,0.8,0.5,1.1,0.9
		c0.3,0.4,0.5,0.8,0.7,1.3c0.2,0.5,0.2,1.1,0.2,1.7c0,1.4-0.4,2.5-1.1,3.3c-0.7,0.8-1.5,1.2-2.5,1.2c-1,0-1.7-0.4-2.3-1.2V205.6z
		 M525,201.4c0,1,0.1,1.7,0.4,2.2c0.4,0.7,1,1.1,1.8,1.1c0.6,0,1.1-0.3,1.6-0.8c0.4-0.5,0.7-1.3,0.7-2.4c0-1.1-0.2-1.9-0.6-2.4
		s-0.9-0.8-1.6-0.8c-0.6,0-1.1,0.3-1.6,0.8C525.3,199.6,525,200.4,525,201.4z"/>
	<path d="M538.1,204.6c-0.5,0.4-1,0.8-1.5,0.9c-0.5,0.2-1,0.3-1.6,0.3c-0.9,0-1.6-0.2-2.1-0.7c-0.5-0.4-0.7-1-0.7-1.7
		c0-0.4,0.1-0.8,0.3-1.1c0.2-0.3,0.4-0.6,0.7-0.8c0.3-0.2,0.6-0.4,1-0.5c0.3-0.1,0.7-0.1,1.2-0.2c1.1-0.1,2-0.3,2.5-0.5
		c0-0.2,0-0.3,0-0.4c0-0.6-0.1-1-0.4-1.2c-0.4-0.3-0.9-0.5-1.6-0.5c-0.7,0-1.2,0.1-1.5,0.3c-0.3,0.2-0.5,0.6-0.7,1.2l-1.4-0.2
		c0.1-0.6,0.3-1.1,0.6-1.4c0.3-0.4,0.7-0.6,1.2-0.8c0.5-0.2,1.2-0.3,1.9-0.3c0.7,0,1.3,0.1,1.7,0.2c0.4,0.2,0.8,0.4,1,0.6
		c0.2,0.3,0.4,0.6,0.4,1c0,0.2,0.1,0.7,0.1,1.3v1.9c0,1.3,0,2.1,0.1,2.5c0.1,0.3,0.2,0.7,0.4,1h-1.5
		C538.2,205.3,538.1,205,538.1,204.6z M537.9,201.4c-0.5,0.2-1.3,0.4-2.3,0.5c-0.6,0.1-1,0.2-1.2,0.3c-0.2,0.1-0.4,0.3-0.6,0.5
		c-0.1,0.2-0.2,0.4-0.2,0.7c0,0.4,0.1,0.7,0.4,0.9c0.3,0.2,0.7,0.4,1.2,0.4c0.5,0,1-0.1,1.4-0.4c0.4-0.2,0.7-0.6,0.9-1
		c0.2-0.3,0.2-0.8,0.2-1.4V201.4z"/>
	<path d="M541,203.1l1.4-0.2c0.1,0.6,0.3,1,0.7,1.3c0.4,0.3,0.9,0.4,1.5,0.4c0.6,0,1.1-0.1,1.4-0.4c0.3-0.3,0.5-0.6,0.5-0.9
		c0-0.3-0.1-0.6-0.4-0.8c-0.2-0.1-0.7-0.3-1.4-0.5c-1-0.3-1.7-0.5-2.1-0.7c-0.4-0.2-0.7-0.5-0.9-0.8c-0.2-0.3-0.3-0.7-0.3-1.1
		c0-0.4,0.1-0.7,0.3-1c0.2-0.3,0.4-0.6,0.7-0.8c0.2-0.2,0.5-0.3,0.9-0.4c0.4-0.1,0.8-0.2,1.2-0.2c0.7,0,1.2,0.1,1.7,0.3
		s0.9,0.4,1.1,0.8s0.4,0.7,0.5,1.3l-1.4,0.2c-0.1-0.4-0.2-0.8-0.5-1c-0.3-0.2-0.7-0.4-1.3-0.4c-0.6,0-1.1,0.1-1.4,0.3
		c-0.3,0.2-0.4,0.5-0.4,0.8c0,0.2,0.1,0.3,0.2,0.5c0.1,0.2,0.3,0.3,0.5,0.4c0.1,0.1,0.6,0.2,1.2,0.4c1,0.3,1.7,0.5,2.1,0.7
		c0.4,0.2,0.7,0.4,0.9,0.7c0.2,0.3,0.3,0.7,0.3,1.2c0,0.5-0.1,0.9-0.4,1.3s-0.7,0.7-1.2,1s-1.1,0.3-1.8,0.3c-1.1,0-1.9-0.2-2.5-0.7
		C541.5,204.7,541.1,204,541,203.1z"/>
	<path d="M555.2,202.9l1.5,0.2c-0.2,0.8-0.7,1.5-1.3,2c-0.6,0.5-1.4,0.7-2.4,0.7c-1.2,0-2.2-0.4-2.9-1.1c-0.7-0.7-1.1-1.8-1.1-3.1
		c0-1.4,0.4-2.5,1.1-3.2c0.7-0.8,1.7-1.2,2.8-1.2c1.1,0,2,0.4,2.7,1.1c0.7,0.8,1.1,1.8,1.1,3.2c0,0.1,0,0.2,0,0.4h-6.2
		c0.1,0.9,0.3,1.6,0.8,2.1c0.5,0.5,1,0.7,1.7,0.7c0.5,0,1-0.1,1.3-0.4C554.7,204,555,203.5,555.2,202.9z M550.6,200.7h4.6
		c-0.1-0.7-0.2-1.2-0.5-1.6c-0.4-0.5-1-0.8-1.7-0.8c-0.6,0-1.2,0.2-1.6,0.6C550.9,199.4,550.7,199.9,550.6,200.7z"/>
	<path d="M563.8,205.6v-1c-0.5,0.8-1.3,1.2-2.3,1.2c-0.7,0-1.3-0.2-1.8-0.5s-1-0.9-1.3-1.5c-0.3-0.7-0.5-1.4-0.5-2.3
		c0-0.8,0.1-1.6,0.4-2.3c0.3-0.7,0.7-1.2,1.2-1.6c0.6-0.4,1.2-0.5,1.9-0.5c0.5,0,0.9,0.1,1.3,0.3s0.7,0.5,1,0.8v-4.1h1.4v11.5H563.8
		z M559.4,201.5c0,1.1,0.2,1.9,0.7,2.4c0.4,0.5,1,0.8,1.6,0.8c0.6,0,1.1-0.3,1.6-0.8c0.4-0.5,0.6-1.3,0.6-2.3c0-1.1-0.2-2-0.7-2.5
		s-1-0.8-1.6-0.8c-0.6,0-1.1,0.3-1.6,0.8C559.6,199.6,559.4,200.4,559.4,201.5z"/>
	<path d="M411.2,220.7c0-1.5,0.4-2.7,1.3-3.4c0.7-0.6,1.6-0.9,2.6-0.9c1.1,0,2.1,0.4,2.8,1.1c0.7,0.7,1.1,1.8,1.1,3.1
		c0,1.1-0.2,1.9-0.5,2.5c-0.3,0.6-0.8,1.1-1.4,1.4c-0.6,0.3-1.3,0.5-2,0.5c-1.2,0-2.1-0.4-2.8-1.1
		C411.5,223.1,411.2,222.1,411.2,220.7z M412.6,220.7c0,1.1,0.2,1.9,0.7,2.4c0.5,0.5,1,0.8,1.8,0.8c0.7,0,1.3-0.3,1.7-0.8
		c0.5-0.5,0.7-1.3,0.7-2.4c0-1-0.2-1.8-0.7-2.3c-0.5-0.5-1-0.8-1.7-0.8c-0.7,0-1.3,0.3-1.8,0.8C412.8,218.8,412.6,219.6,412.6,220.7
		z"/>
	<path d="M420.6,224.8v-8.3h1.3v1.2c0.6-0.9,1.5-1.4,2.6-1.4c0.5,0,1,0.1,1.4,0.3c0.4,0.2,0.7,0.4,0.9,0.7c0.2,0.3,0.4,0.6,0.4,1
		c0.1,0.3,0.1,0.7,0.1,1.4v5.1h-1.4v-5c0-0.6-0.1-1-0.2-1.3c-0.1-0.3-0.3-0.5-0.6-0.7c-0.3-0.2-0.6-0.3-1-0.3
		c-0.6,0-1.1,0.2-1.6,0.6c-0.4,0.4-0.7,1.1-0.7,2.2v4.5H420.6z"/>
	<path d="M435.5,224.8l-2.5-8.3h1.5l1.3,4.8l0.5,1.8c0-0.1,0.2-0.7,0.4-1.7l1.3-4.9h1.4l1.2,4.8l0.4,1.6l0.5-1.6l1.4-4.8h1.4
		l-2.6,8.3h-1.5l-1.3-5l-0.3-1.4l-1.7,6.4H435.5z"/>
	<path d="M445.5,224.8v-8.3h1.3v1.3c0.3-0.6,0.6-1,0.9-1.2s0.6-0.3,0.9-0.3c0.5,0,1,0.2,1.4,0.5l-0.5,1.3c-0.3-0.2-0.7-0.3-1-0.3
		c-0.3,0-0.6,0.1-0.8,0.3c-0.2,0.2-0.4,0.4-0.5,0.8c-0.2,0.5-0.2,1-0.2,1.6v4.3H445.5z"/>
	<path d="M450.8,215v-1.6h1.4v1.6H450.8z M450.8,224.8v-8.3h1.4v8.3H450.8z"/>
	<path d="M457.4,223.5l0.2,1.2c-0.4,0.1-0.8,0.1-1.1,0.1c-0.5,0-0.9-0.1-1.2-0.2s-0.5-0.4-0.6-0.6c-0.1-0.3-0.2-0.8-0.2-1.7v-4.8h-1
		v-1.1h1v-2.1l1.4-0.8v2.9h1.4v1.1H456v4.9c0,0.4,0,0.7,0.1,0.8c0,0.1,0.1,0.2,0.2,0.3c0.1,0.1,0.3,0.1,0.5,0.1
		C457,223.6,457.2,223.6,457.4,223.5z"/>
	<path d="M464.5,222.1l1.5,0.2c-0.2,0.8-0.7,1.5-1.3,2c-0.6,0.5-1.4,0.7-2.4,0.7c-1.2,0-2.2-0.4-2.9-1.1c-0.7-0.7-1.1-1.8-1.1-3.1
		c0-1.4,0.4-2.5,1.1-3.2c0.7-0.8,1.7-1.2,2.8-1.2c1.1,0,2,0.4,2.7,1.1c0.7,0.8,1.1,1.8,1.1,3.2c0,0.1,0,0.2,0,0.4h-6.2
		c0.1,0.9,0.3,1.6,0.8,2.1c0.5,0.5,1,0.7,1.7,0.7c0.5,0,1-0.1,1.3-0.4C464,223.2,464.3,222.7,464.5,222.1z M459.9,219.9h4.6
		c-0.1-0.7-0.2-1.2-0.5-1.6c-0.4-0.5-1-0.8-1.7-0.8c-0.6,0-1.2,0.2-1.6,0.6C460.2,218.6,459.9,219.1,459.9,219.9z"/>
	<path d="M467.7,224.8v-8.3h1.3v1.3c0.3-0.6,0.6-1,0.9-1.2s0.6-0.3,0.9-0.3c0.5,0,1,0.2,1.4,0.5l-0.5,1.3c-0.3-0.2-0.7-0.3-1-0.3
		c-0.3,0-0.6,0.1-0.8,0.3c-0.2,0.2-0.4,0.4-0.5,0.8c-0.2,0.5-0.2,1-0.2,1.6v4.3H467.7z"/>
	<path d="M480.6,223.5l0.2,1.2c-0.4,0.1-0.8,0.1-1.1,0.1c-0.5,0-0.9-0.1-1.2-0.2s-0.5-0.4-0.6-0.6c-0.1-0.3-0.2-0.8-0.2-1.7v-4.8h-1
		v-1.1h1v-2.1l1.4-0.8v2.9h1.4v1.1h-1.4v4.9c0,0.4,0,0.7,0.1,0.8c0,0.1,0.1,0.2,0.2,0.3c0.1,0.1,0.3,0.1,0.5,0.1
		C480.1,223.6,480.3,223.6,480.6,223.5z"/>
	<path d="M481.4,220.7c0-1.5,0.4-2.7,1.3-3.4c0.7-0.6,1.6-0.9,2.6-0.9c1.1,0,2.1,0.4,2.8,1.1c0.7,0.7,1.1,1.8,1.1,3.1
		c0,1.1-0.2,1.9-0.5,2.5c-0.3,0.6-0.8,1.1-1.4,1.4c-0.6,0.3-1.3,0.5-2,0.5c-1.2,0-2.1-0.4-2.8-1.1
		C481.8,223.1,481.4,222.1,481.4,220.7z M482.9,220.7c0,1.1,0.2,1.9,0.7,2.4c0.5,0.5,1,0.8,1.8,0.8c0.7,0,1.3-0.3,1.7-0.8
		c0.5-0.5,0.7-1.3,0.7-2.4c0-1-0.2-1.8-0.7-2.3c-0.5-0.5-1-0.8-1.7-0.8c-0.7,0-1.3,0.3-1.8,0.8C483.1,218.8,482.9,219.6,482.9,220.7
		z"/>
	<path d="M490.3,220.7c0-1.5,0.4-2.7,1.3-3.4c0.7-0.6,1.6-0.9,2.6-0.9c1.1,0,2.1,0.4,2.8,1.1c0.7,0.7,1.1,1.8,1.1,3.1
		c0,1.1-0.2,1.9-0.5,2.5c-0.3,0.6-0.8,1.1-1.4,1.4c-0.6,0.3-1.3,0.5-2,0.5c-1.2,0-2.1-0.4-2.8-1.1
		C490.7,223.1,490.3,222.1,490.3,220.7z M491.8,220.7c0,1.1,0.2,1.9,0.7,2.4c0.5,0.5,1,0.8,1.8,0.8c0.7,0,1.3-0.3,1.7-0.8
		c0.5-0.5,0.7-1.3,0.7-2.4c0-1-0.2-1.8-0.7-2.3c-0.5-0.5-1-0.8-1.7-0.8c-0.7,0-1.3,0.3-1.8,0.8C492,218.8,491.8,219.6,491.8,220.7z"
		/>
	<path d="M499.7,224.8v-11.5h1.4v11.5H499.7z"/>
	<path d="M503.3,215v-1.6h1.4v1.6H503.3z M503.3,224.8v-8.3h1.4v8.3H503.3z"/>
	<path d="M506.8,224.8v-8.3h1.3v1.2c0.6-0.9,1.5-1.4,2.6-1.4c0.5,0,1,0.1,1.4,0.3c0.4,0.2,0.7,0.4,0.9,0.7c0.2,0.3,0.4,0.6,0.4,1
		c0.1,0.3,0.1,0.7,0.1,1.4v5.1h-1.4v-5c0-0.6-0.1-1-0.2-1.3c-0.1-0.3-0.3-0.5-0.6-0.7c-0.3-0.2-0.6-0.3-1-0.3
		c-0.6,0-1.1,0.2-1.6,0.6c-0.4,0.4-0.7,1.1-0.7,2.2v4.5H506.8z"/>
	<path d="M515.5,225.5l1.4,0.2c0.1,0.4,0.2,0.7,0.5,0.9c0.3,0.3,0.8,0.4,1.4,0.4c0.7,0,1.2-0.1,1.5-0.4c0.4-0.3,0.6-0.6,0.7-1.1
		c0.1-0.3,0.1-0.9,0.1-1.8c-0.6,0.7-1.4,1.1-2.3,1.1c-1.1,0-2-0.4-2.6-1.2c-0.6-0.8-0.9-1.8-0.9-3c0-0.8,0.1-1.5,0.4-2.2
		c0.3-0.7,0.7-1.2,1.2-1.6c0.5-0.4,1.2-0.5,1.9-0.5c1,0,1.8,0.4,2.4,1.2v-1h1.3v7.2c0,1.3-0.1,2.2-0.4,2.7c-0.3,0.5-0.7,1-1.2,1.3
		s-1.3,0.5-2.1,0.5c-1,0-1.8-0.2-2.4-0.7S515.5,226.4,515.5,225.5z M516.6,220.5c0,1.1,0.2,1.9,0.6,2.4c0.4,0.5,1,0.8,1.6,0.8
		c0.6,0,1.2-0.2,1.6-0.7c0.4-0.5,0.7-1.3,0.7-2.3c0-1-0.2-1.8-0.7-2.3c-0.5-0.5-1-0.8-1.6-0.8c-0.6,0-1.2,0.3-1.6,0.8
		S516.6,219.5,516.6,220.5z"/>
</g>
<g>
	<path d="M113.9,198.5l-3-11.5h1.6l1.7,7.5c0.2,0.8,0.3,1.6,0.5,2.3c0.3-1.2,0.5-1.9,0.5-2.1l2.2-7.7h1.8l1.6,5.8
		c0.4,1.4,0.7,2.8,0.9,4.1c0.1-0.7,0.3-1.6,0.6-2.5l1.8-7.4h1.5l-3.1,11.5H121l-2.4-8.7c-0.2-0.7-0.3-1.2-0.4-1.3
		c-0.1,0.5-0.2,1-0.3,1.3l-2.4,8.7H113.9z"/>
	<path d="M126.8,188.7v-1.6h1.4v1.6H126.8z M126.8,198.5v-8.3h1.4v8.3H126.8z"/>
	<path d="M130.4,198.5v-11.5h1.4v6.5l3.3-3.4h1.8l-3.2,3.1l3.5,5.2h-1.7l-2.7-4.2l-1,1v3.3H130.4z"/>
	<path d="M138.4,188.7v-1.6h1.4v1.6H138.4z M138.4,198.5v-8.3h1.4v8.3H138.4z"/>
</g>
</svg>
