<?xml version="1.0" encoding="utf-8"?>
<!-- Generator: Adobe Illustrator 17.1.0, SVG Export Plug-In . SVG Version: 6.00 Build 0)  -->
<!DOCTYPE svg PUBLIC "-//W3C//DTD SVG 1.1//EN" "http://www.w3.org/Graphics/SVG/1.1/DTD/svg11.dtd">
<svg version="1.1" id="Layer_1" xmlns="http://www.w3.org/2000/svg" xmlns:xlink="http://www.w3.org/1999/xlink" x="0px" y="0px"
	 viewBox="0 0 600 400" enable-background="new 0 0 600 400" xml:space="preserve">
<g>
	<path d="M131.6,284.1c0,0.6-0.5,1.1-1.1,1.1H98.8v12.3h13.6c0.5,0,0.8,0.3,0.8,0.4c0,0.1-0.3,0.4-0.8,0.4l-44.4,0
		c-0.5,0-0.8-0.3-0.8-0.4c0-0.1,0.3-0.4,0.8-0.4H82v-12.3H50.3c-0.6,0-1.1-0.5-1.1-1.1v-55.3c0-0.6,0.5-1.1,1.1-1.1h80.1
		c0.6,0,1.1,0.5,1.1,1.1L131.6,284.1z M130.5,225.7H50.3c-1.7,0-3.1,1.4-3.1,3.1v55.3c0,1.7,1.4,3.1,3.1,3.1l29.7,0v8.3l-11.9,0
		c-1.5,0-2.8,1.1-2.8,2.4c0,1.3,1.2,2.4,2.8,2.4h44.4c1.5,0,2.8-1.1,2.8-2.4c0-1.3-1.2-2.4-2.8-2.4h-11.6v-8.3h29.6
		c1.7,0,3.1-1.4,3.1-3.1v-55.3C133.6,227.1,132.2,225.7,130.5,225.7L130.5,225.7z"/>
	<path d="M126.4,279.7h-72v-47h72V279.7z M52.4,230.7v51h76v-51H52.4z"/>
	<path d="M125.6,256.5c0,0.6-0.4,1-1,1h-17.1l3.1,3.1c0.4,0.4,0.4,1,0,1.4c-0.2,0.2-0.4,0.3-0.7,0.3c-0.3,0-0.5-0.1-0.7-0.3
		l-5.5-5.5l5.5-5.5c0.4-0.4,1-0.4,1.4,0c0.4,0.4,0.4,1,0,1.4l-3.1,3.1h17.1C125.2,255.5,125.6,256,125.6,256.5L125.6,256.5z"/>
	<path d="M77,256.5l-5.5,5.5c-0.2,0.2-0.4,0.3-0.7,0.3c-0.2,0-0.5-0.1-0.7-0.3c-0.4-0.4-0.4-1,0-1.4l3.1-3.1H56.1c-0.6,0-1-0.4-1-1
		c0-0.6,0.4-1,1-1h17.1l-3.1-3.1c-0.4-0.4-0.4-1,0-1.4c0.4-0.4,1-0.4,1.4,0L77,256.5z"/>
	<path d="M101.3,274.1c0,0.9-0.7,1.7-1.5,1.7H81c-0.8,0-1.5-0.8-1.5-1.7v-35.8c0-0.9,0.7-1.7,1.5-1.7h18.8c0.8,0,1.5,0.8,1.5,1.7
		V274.1z M99.8,234.6H81c-1.9,0-3.5,1.7-3.5,3.7v35.7c0,2,1.6,3.7,3.5,3.7h18.8c1.9,0,3.5-1.7,3.5-3.7v-35.7
		C103.3,236.3,101.7,234.6,99.8,234.6z"/>
	<path d="M98.1,268.2c0,0.6-0.4,1.1-0.8,1.1H83.5c-0.4,0-0.8-0.5-0.8-1.1v-27.3c0-0.6,0.4-1.1,0.8-1.1l13.8,0c0.4,0,0.8,0.5,0.8,1.1
		V268.2z M97.3,237.7H83.5c-1.6,0-2.8,1.4-2.8,3.1v27.3c0,1.7,1.3,3.1,2.8,3.1h13.8c1.6,0,2.8-1.4,2.8-3.1v-27.3
		C100.1,239.1,98.8,237.7,97.3,237.7L97.3,237.7z"/>
	<path d="M93.6,273.6c0,0.6-0.4,1-1,1h-4.8c-0.6,0-1-0.4-1-1c0-0.6,0.4-1,1-1h4.8C93.2,272.6,93.6,273.1,93.6,273.6z"/>
</g>
<g>
	<path d="M460.1,247c-0.6,0.6-0.6,1.5,0,2.1c0.6,0.6,1.5,0.6,2.1,0c7.6-7.6,7.6-20,0-27.6c-0.6-0.6-1.5-0.6-2.1,0s-0.6,1.5,0,2.1
		C466.5,230.2,466.5,240.6,460.1,247L460.1,247z"/>
	<path d="M453.8,240.6c-0.6,0.6-0.6,1.5,0,2.1c0.6,0.6,1.5,0.6,2.1,0c4.1-4.1,4.1-10.8,0-14.8c-0.6-0.6-1.5-0.6-2.1,0
		c-0.6,0.6-0.6,1.5,0,2.1C456.7,233.1,456.7,237.8,453.8,240.6L453.8,240.6z"/>
	<path d="M423.3,277.9l5.2,6.5l-11.1,7.6L423.3,277.9z M439.7,231.1c2.4,0,4.2,2,4.2,4.2c0,2.4-2,4.2-4.2,4.2s-4.2-1.8-4.2-4.2
		C435.3,233.1,437.3,231.1,439.7,231.1z M442.6,213.5h39.2v20c0,0.9,0.6,1.5,1.5,1.5h20.1v67.9c0,0.9-0.6,1.5-1.5,1.5h-59.4
		c-0.9,0-1.5-0.6-1.5-1.5v-6.2l7.7-9.8l15.5,10.6c1.2,0.9,2.9-0.5,2.3-1.8l-22.7-54.2c2-1.4,3.2-3.5,3.2-6.1c0-3.5-2.6-6.5-5.9-7.1
		V215C441.1,214.1,441.8,213.5,442.6,213.5L442.6,213.5z M485,215.6l16.4,16.4H485V215.6z M439.5,280.5l6.8,4.7l-6.7,8.6l-6.8-8.6
		L439.5,280.5z M438,265.6l-6.2-7.9l6.2-14.8V265.6z M441.1,265.6v-22.9l6.2,14.8L441.1,265.6z M448.3,282.8l-7.1-5v-7.3l7.6-9.7
		l5.9,13.9L448.3,282.8z M461.8,292l-11.1-7.6l5.2-6.5L461.8,292z M430.5,260.9l7.6,9.5v7.3l-7.1,4.8l-6.2-7.9L430.5,260.9z
		 M414.8,297.5l15.5-10.6l7.7,9.8v6.2c0,2.6,2,4.5,4.5,4.5H502c2.6,0,4.5-2,4.5-4.5v-69.4c0-0.5-0.3-0.9-0.6-1.2l-21.4-21.4
		c-0.3-0.3-0.8-0.5-1.2-0.5h-40.8c-2.6,0-4.5,2-4.5,4.5v13.2c-3.3,0.8-5.8,3.6-5.8,7.1c0,2.4,1.2,4.7,3.2,5.9l-22.9,54.4
		C412,297,413.6,298.2,414.8,297.5L414.8,297.5z"/>
	<path d="M464.4,264c0,0.9,0.6,1.5,1.5,1.5h27.3c0.9,0,1.5-0.6,1.5-1.5c0-0.9-0.6-1.5-1.5-1.5h-27.3
		C465.1,262.5,464.4,263.1,464.4,264z"/>
	<path d="M493.2,278.5H472c-0.9,0-1.5,0.6-1.5,1.5s0.6,1.5,1.5,1.5h21.2c0.9,0,1.5-0.6,1.5-1.5C494.7,279.3,494.1,278.5,493.2,278.5
		z"/>
	<path d="M493.2,294.7H475c-0.9,0-1.5,0.6-1.5,1.5c0,0.9,0.6,1.5,1.5,1.5h18.2c0.9,0,1.5-0.6,1.5-1.5
		C494.7,295.3,494.1,294.7,493.2,294.7z"/>
</g>
<g>
	<path d="M414.3,38.1h95.3v88.3c0,0.2-0.1,0.4-0.2,0.6c-0.1,0.1-0.3,0.2-0.6,0.2h-93.8c-0.4,0-0.8-0.4-0.8-0.8L414.3,38.1z
		 M414.3,31.1c0-0.4,0.4-0.8,0.8-0.8h93.8c0.2,0,0.4,0.1,0.6,0.2c0.1,0.1,0.2,0.3,0.2,0.6v5.5h-95.3L414.3,31.1z M415.1,128.7h93.8
		c1.3,0,2.3-1.1,2.3-2.3V31.1c0-1.3-1.1-2.3-2.3-2.3h-93.8c-1.3,0-2.3,1.1-2.3,2.3v95.3C412.7,127.7,413.8,128.7,415.1,128.7z"/>
	<path d="M507.2,33.5c0,1.2-1.8,1.2-1.8,0S507.2,32.3,507.2,33.5"/>
	<path d="M503.7,33.5c0,1.2-1.8,1.2-1.8,0S503.7,32.3,503.7,33.5"/>
	<path d="M500.2,33.5c0,1.2-1.8,1.2-1.8,0S500.2,32.3,500.2,33.5"/>
	<path d="M496.3,117.8h-60.9c-0.4,0-0.8,0.4-0.8,0.8s0.4,0.8,0.8,0.8h60.9c0.4,0,0.8-0.4,0.8-0.8S496.8,117.8,496.3,117.8z"/>
	<path d="M429.9,119.8c0,0.2-0.1,0.4-0.2,0.6c-0.1,0.1-0.3,0.2-0.6,0.2h-2.3c-0.4,0-0.8-0.4-0.8-0.8v-2.4c0-0.4,0.4-0.8,0.8-0.8h2.3
		c0.2,0,0.4,0.1,0.6,0.2c0.1,0.1,0.2,0.3,0.2,0.6V119.8z M429.1,115h-2.3c-1.3,0-2.3,1.1-2.3,2.3v2.4c0,1.3,1.1,2.3,2.3,2.3h2.3
		c1.3,0,2.3-1.1,2.3-2.3v-2.4C431.5,116.1,430.4,115,429.1,115z"/>
	<path d="M496.3,108.4h-60.9c-0.4,0-0.8,0.4-0.8,0.8c0,0.4,0.4,0.8,0.8,0.8h60.9c0.4,0,0.8-0.4,0.8-0.8
		C497.1,108.8,496.8,108.4,496.3,108.4z"/>
	<path d="M429.9,110.4c0,0.2-0.1,0.4-0.2,0.6c-0.1,0.1-0.3,0.2-0.6,0.2h-2.3c-0.4,0-0.8-0.4-0.8-0.8V108c0-0.4,0.4-0.8,0.8-0.8h2.3
		c0.2,0,0.4,0.1,0.6,0.2c0.1,0.1,0.2,0.3,0.2,0.6V110.4z M429.1,105.7h-2.3c-1.3,0-2.3,1.1-2.3,2.3v2.4c0,1.3,1.1,2.3,2.3,2.3h2.3
		c1.3,0,2.3-1.1,2.3-2.3V108C431.5,106.7,430.4,105.7,429.1,105.7z"/>
	<path d="M435.4,42c0-0.4,0.4-0.8,0.8-0.8h51.6c0.2,0,0.4,0.1,0.6,0.2c0.1,0.1,0.2,0.3,0.2,0.6v4.7c0,0.2-0.1,0.4-0.2,0.6
		c-0.1,0.1-0.3,0.2-0.6,0.2h-51.6c-0.4,0-0.8-0.4-0.8-0.8V42z M436.2,49h51.6c1.3,0,2.3-1.1,2.3-2.3V42c0-1.3-1.1-2.3-2.3-2.3h-51.6
		c-1.3,0-2.3,1.1-2.3,2.3v4.7C433.8,48,434.9,49,436.2,49z"/>
	<path d="M498.2,69h-6.1c-0.7-2.5-1.9-4.8-3.6-6.8C492.5,63.3,495.9,65.7,498.2,69L498.2,69z M501.3,78.7c0,3.8-1.2,7.4-3.5,10.4
		c-2.3,3-5.5,5.1-9.2,6.1c3-3.1,4.9-9.4,4.9-16.5c0-2.7-0.3-5.5-0.9-8.1h6.6C500.6,73.1,501.3,75.9,501.3,78.7L501.3,78.7z
		 M480.4,60.5c-2.1,0.4-4.1,1.3-5.9,2.4c0.4,0.3,0.8,0.7,1.2,1.1c1.3-0.8,2.7-1.3,4.2-1.7c-1,1.1-1.8,2.3-2.3,3.6
		c0.4,0.5,0.7,0.9,1.1,1.4c1.1-2.6,2.6-4.6,4.2-5.3c0.9-0.4,1.9-0.4,2.8,0c2,0.9,3.8,3.5,4.9,7h-9.9c-0.4,0-0.8,0.4-0.8,0.8
		s0.4,0.8,0.8,0.8H491c0.6,2.7,0.9,5.4,0.9,8.2c0,8-2.6,15-6.1,16.7c-0.5,0.2-1,0.4-1.6,0.4c-0.5,0-1.1-0.1-1.6-0.4
		c-1.6-0.8-3-2.7-4.1-5.2c-0.3,0.5-0.7,1-1.1,1.4c0.6,1.3,1.4,2.5,2.3,3.6c-1.4-0.4-2.8-0.9-4.1-1.7c-0.4,0.4-0.8,0.7-1.2,1.1
		c4.7,2.8,10.4,3.5,15.6,1.7c5.2-1.7,9.4-5.7,11.4-10.8c2-5.1,1.7-10.8-0.9-15.7c-2.6-4.8-7.2-8.3-12.5-9.4
		C485.5,60,482.9,60,480.4,60.5L480.4,60.5z"/>
	<path d="M453.7,87.3c0.9,3.4,2.2,6.1,3.9,7.9c-4.4-1.1-8.1-4-10.4-7.9H453.7z M444.9,78.7c0-3.8,1.3-7.4,3.6-10.4
		c2.3-3,5.5-5.1,9.1-6.1c-3,3.1-4.9,9.4-4.9,16.5c0,2.4,0.2,4.7,0.7,7h-7C445.4,83.5,444.9,81.1,444.9,78.7L444.9,78.7z M460.5,62
		c0.9-0.4,1.9-0.4,2.8,0c2,0.9,3.8,3.5,4.9,7h-9.8c-0.4,0-0.8,0.4-0.8,0.8s0.4,0.8,0.8,0.8h10.3c0.6,2.7,1,5.4,1,8.1
		c0,8-2.6,15-6.1,16.7c-0.5,0.2-1,0.4-1.6,0.4c-0.5,0-1.1-0.1-1.6-0.4c-2.2-1.1-4-4.1-5.1-8.1h9.2c0.4,0,0.8-0.4,0.8-0.8
		s-0.4-0.8-0.8-0.8h-9.6c-0.5-2.3-0.7-4.7-0.7-7C454.3,70.6,456.9,63.6,460.5,62L460.5,62z M476,69h-6.1c-0.7-2.5-1.9-4.8-3.6-6.8
		C470.2,63.3,473.7,65.7,476,69z M479,78.7c0,3.8-1.2,7.4-3.5,10.4c-2.3,3-5.5,5.1-9.2,6.1c3-3.1,4.9-9.4,4.9-16.5
		c0-2.7-0.3-5.5-0.9-8.1h6.6C478.3,73.1,479,75.9,479,78.7L479,78.7z M457.8,96.9c6.5,1.4,13.3-0.7,17.8-5.6c4.5-4.9,6-11.9,4-18.2
		c-2-6.3-7.3-11.1-13.8-12.6c-5.5-1.1-11.2,0.2-15.6,3.8c-4.4,3.5-6.9,8.9-6.9,14.5c0,4.2,1.4,8.3,4,11.6
		C450,93.6,453.6,96,457.8,96.9L457.8,96.9z"/>
	<path d="M487.5,86.5c0-0.4-0.3-0.7-0.6-0.8h-6.2c-0.2,0.5-0.4,1-0.6,1.6h6.8C487.3,87.3,487.5,86.9,487.5,86.5L487.5,86.5z"/>
	<path d="M436.2,69c-0.4,0-0.8,0.4-0.8,0.8s0.4,0.8,0.8,0.8h7.3c0.2-0.5,0.5-1,0.8-1.6H436.2z"/>
	<path d="M431.5,87.3c0.9,3.4,2.2,6.1,3.9,7.9c-4.4-1.1-8.1-4-10.4-7.9H431.5z M422.6,78.7c0-3.8,1.3-7.4,3.6-10.4
		c2.3-3,5.5-5.1,9.1-6.1c-3,3.1-4.9,9.4-4.9,16.5c0,2.4,0.2,4.7,0.7,7h-7C423.1,83.5,422.6,81.1,422.6,78.7L422.6,78.7z M435.5,96.9
		c4.8,1.1,9.8,0.3,14-2.3c-0.4-0.3-0.8-0.7-1.2-1.1c-1.3,0.7-2.7,1.3-4.2,1.7c1-1.1,1.8-2.3,2.3-3.6c-0.4-0.5-0.7-0.9-1.1-1.4
		c-1.1,2.5-2.5,4.4-4.1,5.2c-0.5,0.2-1,0.4-1.6,0.4c-0.5,0-1.1-0.1-1.6-0.4c-2.2-1.1-4-4.1-5.1-8.1h9.2c0.4,0,0.8-0.4,0.8-0.8
		s-0.4-0.8-0.8-0.8h-9.5c-0.5-2.3-0.7-4.7-0.7-7c0-8.1,2.6-15.2,6.2-16.8c0.9-0.4,1.9-0.4,2.8,0c1.7,0.7,3.1,2.7,4.2,5.3
		c0.3-0.5,0.7-1,1.1-1.4c-0.6-1.3-1.4-2.5-2.3-3.6c1.5,0.4,2.9,1,4.2,1.7c0.4-0.4,0.8-0.7,1.2-1.1c-1.8-1.1-3.8-2-6-2.4
		c-5.5-1.2-11.2,0.2-15.6,3.8c-4.4,3.5-6.9,8.9-6.9,14.5c0,4.2,1.4,8.3,4,11.6C427.7,93.6,431.4,96,435.5,96.9L435.5,96.9z"/>
</g>
<g>
	<rect x="250.9" y="84.8" width="27.1" height="4.3"/>
	<rect x="250.9" y="93.4" width="16.4" height="4.3"/>
	<rect x="269.5" y="93.4" width="12.9" height="4.3"/>
	<rect x="250.9" y="101.9" width="6.4" height="4.3"/>
	<rect x="258.8" y="101.9" width="10" height="4.3"/>
	<rect x="250.9" y="110.5" width="10" height="4.3"/>
	<rect x="262.3" y="110.5" width="14.3" height="4.3"/>
	<rect x="285.9" y="43.7" width="27.1" height="4.3"/>
	<rect x="285.9" y="52.3" width="10" height="4.3"/>
	<rect x="298" y="52.3" width="11.4" height="4.3"/>
	<rect x="285.9" y="60.9" width="6.4" height="4.3"/>
	<rect x="293.8" y="60.9" width="10" height="4.3"/>
	<rect x="305.2" y="60.9" width="10" height="4.3"/>
	<rect x="285.9" y="69.4" width="10" height="4.3"/>
	<rect x="297.3" y="69.4" width="14.3" height="4.3"/>
	<path d="M318.8,124.4H243V33h75.7V124.4z M238.8,28.7v100H323v-100H238.8z"/>
	<rect x="250.9" y="43.7" width="25.7" height="25.7"/>
	<rect x="286.1" y="84.8" width="25.7" height="25.7"/>
</g>
<g>
	<path fill="#00AEEF" d="M50.2,29.4c-4.2,0-7.6,3.4-7.6,7.6c0,4.2,3.4,7.6,7.6,7.6c4.2,0,7.6-3.4,7.6-7.6
		C57.9,32.8,54.4,29.4,50.2,29.4z M50.2,46.6c-5.3,0-9.6-4.3-9.6-9.6s4.3-9.6,9.6-9.6s9.6,4.3,9.6,9.6S55.5,46.6,50.2,46.6z"/>
	<path fill="#00AEEF" d="M34.8,65.6h30.9c-1.9-6.7-7.9-15.2-15.4-15.2C43.2,50.4,36.8,58,34.8,65.6z M68.2,67.6H32.3l0.2-1.2
		c1.8-8.7,9.3-18,17.7-18c9.1,0,16.1,10.5,17.7,18L68.2,67.6z"/>
	<path fill="#00AEEF" d="M74.6,43.6l3.4,2v12.5c0,1.6,1.7,2.7,3.4,2.7h35c1.7,0,2.6-1,2.6-2.7v-20c0-1.6-1-3.3-2.6-3.3h-35
		c-1.7,0-3.4,1.7-3.4,3.3v3.6L74.6,43.6z M116.4,62.7h-35c-2.6,0-5.4-1.7-5.4-4.7V46.8l-5.4-3.1l5.4-3.1v-2.4c0-2.7,2.6-5.3,5.4-5.3
		h35c2.9,0,4.6,2.7,4.6,5.3v20C121,60.8,119.1,62.7,116.4,62.7L116.4,62.7z"/>
	<rect x="87" y="42.7" fill="#00AEEF" width="23" height="2"/>
	<rect x="87" y="50.7" fill="#00AEEF" width="19" height="2"/>
	<path fill="#F7941E" d="M122.1,84.8l-3.4-2V70.4c0-1.6-1.7-2.7-3.4-2.7h-35c-1.7,0-2.6,1-2.6,2.7v20c0,1.6,1,3.3,2.6,3.3h35
		c1.7,0,3.4-1.7,3.4-3.3v-3.6L122.1,84.8z M80.3,65.7h35c2.6,0,5.4,1.7,5.4,4.7v11.3l5.4,3.1l-5.4,3.1v2.4c0,2.7-2.6,5.3-5.4,5.3
		h-35c-2.9,0-4.6-2.7-4.6-5.3v-20C75.7,67.6,77.6,65.7,80.3,65.7L80.3,65.7z"/>
	<rect x="86.7" y="83.7" fill="#F7941E" width="23" height="2"/>
	<rect x="90.7" y="75.7" fill="#F7941E" width="19" height="2"/>
	<path d="M73.6,109.6l3.4,2v12.5c0,1.6,1.7,2.7,3.4,2.7h35c1.7,0,2.6-1,2.6-2.7v-20c0-1.6-1-3.3-2.6-3.3h-35c-1.7,0-3.4,1.7-3.4,3.3
		v3.6L73.6,109.6z M115.4,128.7h-35c-2.6,0-5.4-1.7-5.4-4.7v-11.3l-5.4-3.1l5.4-3.1v-2.4c0-2.7,2.6-5.3,5.4-5.3h35
		c2.9,0,4.6,2.7,4.6,5.3v20C120,126.8,118.1,128.7,115.4,128.7L115.4,128.7z"/>
	<rect x="86" y="108.7" width="23" height="2"/>
	<rect x="86" y="116.7" width="19" height="2"/>
	<path d="M45.2,87.7c-4.2,0-7.6,3.4-7.6,7.6s3.4,7.6,7.6,7.6c4.2,0,7.6-3.4,7.6-7.6C52.9,91.1,49.4,87.7,45.2,87.7z M45.2,105
		c-5.3,0-9.6-4.3-9.6-9.6s4.3-9.6,9.6-9.6s9.6,4.3,9.6,9.6S50.5,105,45.2,105z"/>
	<path d="M29.8,123.9h30.9c-1.9-6.7-7.9-15.2-15.4-15.2C38.2,108.7,31.8,116.4,29.8,123.9z M63.2,125.9H27.3l0.2-1.2
		c1.8-8.7,9.3-18,17.7-18c9.1,0,16.1,10.5,17.7,18L63.2,125.9z"/>
	<path fill="#F7941E" d="M143.6,77.6c-4.2,0-7.6,3.4-7.6,7.6s3.4,7.6,7.6,7.6c4.2,0,7.6-3.4,7.6-7.6C151.2,81,147.8,77.6,143.6,77.6
		z M143.6,94.9c-5.3,0-9.6-4.3-9.6-9.6s4.3-9.6,9.6-9.6s9.6,4.3,9.6,9.6S148.9,94.9,143.6,94.9z"/>
	<path fill="#F7941E" d="M128.1,113.8H159c-1.9-6.7-7.9-15.2-15.4-15.2C136.5,98.6,130.1,106.3,128.1,113.8z M161.5,115.8h-35.9
		l0.2-1.2c1.8-8.7,9.3-18,17.7-18c9.1,0,16.1,10.5,17.7,18L161.5,115.8z"/>
</g>
<text transform="matrix(1 0 0 1 27.2636 162.3996)" font-family="'MyriadPro-Regular'" font-size="20">Review process</text>
<text transform="matrix(1 0 0 1 215.2636 162.3997)" font-family="'MyriadPro-Regular'" font-size="20">Layout &amp; design</text>
<text transform="matrix(1 0 0 1 398.2636 162.3998)" font-family="'MyriadPro-Regular'" font-size="20">web publishing</text>
<text transform="matrix(1 0 0 1 412.444 351.5228)" font-family="'MyriadPro-Regular'" font-size="20">Syndication</text>
<text transform="matrix(1 0 0 1 18.0295 351.5223)" font-family="'MyriadPro-Regular'" font-size="20">Responsive design</text>
<text transform="matrix(1 0 0 1 227.5879 351.5228)" font-family="'MyriadPro-Regular'" font-size="20">PDF output</text>
<path d="M313.2,298.5v-60.3l-24.5-24.6v-0.1h-0.1l-2-2h-41.1c-3.1,0-9,1.9-9,9v78c0,3.1,1.9,9,9,9h58.7
	C307.3,307.5,313.2,305.6,313.2,298.5 M306,236h-11.9c-5.1,0-5.5-4.6-5.5-5.5l0-11.9L306,236z M309.6,298.5c0,5.2-4.6,5.5-5.5,5.5
	h-58.7c-5.1,0-5.5-4.6-5.5-5.5v-78c0-5.2,4.6-5.5,5.5-5.5h39.6l0,0v15.5c0,3.1,1.9,9,9,9h15.4l0.1,0.1L309.6,298.5z M302.2,274.3
	c-0.2-2.8-4.9-4.6-5-4.6c-1.8-0.6-3.8-1-6.1-1c-2.4,0-5,0.4-8.4,1.1c-3-2.1-5.6-4.8-7.5-7.7c-0.9-1.3-1.6-2.6-2.3-3.9
	c1.6-3.9,3.1-8.1,2.8-12.8c-0.2-3.8-1.9-6.3-4.2-6.3c-1.6,0-2.9,1.2-4.1,3.5c-2,4.1-1.5,9.4,1.5,15.7c-1.1,2.5-2.1,5.2-3.1,7.7
	c-1.2,3.2-2.5,6.4-3.9,9.5c-3.9,1.6-7.2,3.4-9.9,5.8c-1.8,1.5-3.9,3.8-4,6.3c-0.1,1.1,0.3,2.2,1.1,3c0.8,0.9,1.9,1.4,3.1,1.4
	c3.8,0,7.6-5.3,8.3-6.3c1.4-2.1,2.7-4.5,4-7.2c3.3-1.2,6.7-2.1,10.1-2.9l1.2-0.3c0.9-0.2,1.9-0.5,2.8-0.8c1-0.3,2.1-0.6,3.1-0.8
	c3.5,2.2,7.2,3.6,10.8,4.2c3.1,0.4,5.8,0.2,7.6-0.8C302.1,276.1,302.2,274.8,302.2,274.3 M259.6,280.6c-0.6,1.1-1.2,2.1-1.9,3.1
	c-1.5,2.3-4,4.8-5.3,4.8c-0.1,0-0.3,0-0.5-0.3c-0.1-0.2-0.2-0.3-0.2-0.4c0-0.8,1.2-2.4,2.8-3.8C256.1,282.8,257.7,281.6,259.6,280.6
	 M272.2,245.7c0.2,2.8-0.4,5.4-1.3,8c-1.1-3.2-1.6-6.6-0.2-9.4c0.3-0.7,0.6-1.1,0.8-1.3C271.8,243.3,272.2,244.3,272.2,245.7
	 M278.4,270.9c-0.1,0-0.3,0.1-0.4,0.1c-0.9,0.3-1.9,0.5-2.8,0.7L274,272c-2.4,0.6-4.9,1.2-7.3,2c0.9-2.2,1.8-4.5,2.6-6.7
	c0.6-1.6,1.3-3.3,1.9-5c0.3,0.6,0.7,1.1,1,1.7C273.9,266.5,276,268.9,278.4,270.9 M298.1,274.1c-1.2,0.3-2.9,0.4-4.7,0.1
	c-2-0.3-4-0.9-6-1.8c3.5-0.5,6.3-0.4,8.6,0.5C296.6,273.1,297.5,273.7,298.1,274.1"/>
</svg>
