<?xml version="1.0" encoding="utf-8"?>
<!-- Generator: Adobe Illustrator 17.1.0, SVG Export Plug-In . SVG Version: 6.00 Build 0)  -->
<!DOCTYPE svg PUBLIC "-//W3C//DTD SVG 1.1//EN" "http://www.w3.org/Graphics/SVG/1.1/DTD/svg11.dtd">
<svg version="1.1" id="Layer_1" xmlns="http://www.w3.org/2000/svg" xmlns:xlink="http://www.w3.org/1999/xlink" x="0px" y="0px"
	 viewBox="0 0 600 400" enable-background="new 0 0 600 400" xml:space="preserve">
<g>
	<path fill="#EFEFEF" d="M368.8,373.9c0,1.1-0.9,2-2,2H79.7c-1.1,0-2-0.9-2-2V23.2c0-1.1,0.9-2,2-2h287.2c1.1,0,2,0.9,2,2V373.9z"/>
	<path fill="none" stroke="#000000" stroke-width="2" stroke-miterlimit="10" d="M368.8,373.9c0,1.1-0.9,2-2,2H79.7
		c-1.1,0-2-0.9-2-2V23.2c0-1.1,0.9-2,2-2h287.2c1.1,0,2,0.9,2,2V373.9z"/>
</g>
<rect x="108.3" y="135" fill="#FFFFFF" width="329.4" height="133.7"/>
<text transform="matrix(1 0 0 1 119.1199 292.1259)" font-family="'MyriadPro-Regular'" font-size="14.2526">Table</text>
<path d="M293.6,168.5H251v-28.6h40.1c1.4,0,2.5,1.1,2.5,2.5L293.6,168.5z M293.6,200.8H251v-28.6h42.6L293.6,200.8z M293.6,233.2
	H251v-28.6h42.6L293.6,233.2z M293.6,263c0,1.4-1.1,2.5-2.5,2.5l-40.2,0v-28.6h42.6L293.6,263z M112.1,263v-26.2h42.6v28.6h-40.2
	C113.2,265.5,112.1,264.4,112.1,263L112.1,263z M112.1,204.5h42.6v28.6h-42.6V204.5z M112.1,172.2h42.6v28.6h-42.6V172.2z
	 M112.1,142.4c0-1.4,1.1-2.5,2.5-2.5h40.1v28.6h-42.6L112.1,142.4z M247.3,168.5h-42.6v-28.6h42.6V168.5z M247.3,236.9v28.6h-42.6
	v-28.6H247.3z M204.7,200.8v-28.6h42.6v28.6H204.7z M247.3,204.5v28.6h-42.6v-28.6H247.3z M201,236.9v28.6h-42.6v-28.6H201z
	 M201,204.5v28.6h-42.6v-28.6H201z M158.4,168.5v-28.6H201v28.6H158.4z M201,172.2v28.6h-42.6v-28.6H201z M291.1,136.2H114.5
	c-3.4,0-6.2,2.8-6.2,6.2V263c0,3.4,2.8,6.2,6.2,6.2h176.6c3.4,0,6.2-2.8,6.2-6.2V142.4C297.3,139,294.5,136.2,291.1,136.2z"/>
<path d="M145.7,146.3H121c-1,0-1.9,0.8-1.9,1.9v12.2c0,1,0.8,1.9,1.9,1.9h24.8c1,0,1.9-0.8,1.9-1.9v-12.2
	C147.6,147.1,146.8,146.3,145.7,146.3z"/>
<path d="M145.7,178.6H121c-1,0-1.9,0.8-1.9,1.9v12.2c0,1,0.8,1.9,1.9,1.9h24.8c1,0,1.9-0.8,1.9-1.9v-12.2
	C147.6,179.4,146.8,178.6,145.7,178.6z"/>
<path d="M145.7,210.9H121c-1,0-1.9,0.8-1.9,1.9v12.2c0,1,0.8,1.9,1.9,1.9h24.8c1,0,1.9-0.8,1.9-1.9v-12.2
	C147.6,211.7,146.8,210.9,145.7,210.9z"/>
<path d="M145.7,243.2H121c-1,0-1.9,0.8-1.9,1.9v12.2c0,1,0.8,1.9,1.9,1.9h24.8c1,0,1.9-0.8,1.9-1.9v-12.2
	C147.6,244,146.8,243.2,145.7,243.2z"/>
<path d="M192.1,146.3h-24.8c-1,0-1.9,0.8-1.9,1.9v12.2c0,1,0.8,1.9,1.9,1.9h24.8c1,0,1.9-0.8,1.9-1.9v-12.2
	C193.9,147.1,193.1,146.3,192.1,146.3z"/>
<path d="M213.6,162.2h24.8c1,0,1.9-0.8,1.9-1.9v-12.2c0-1-0.8-1.9-1.9-1.9l-24.8,0c-1,0-1.9,0.8-1.9,1.9v12.2
	C211.7,161.3,212.6,162.2,213.6,162.2z"/>
<path d="M284.7,146.3h-24.8c-1,0-1.9,0.8-1.9,1.9v12.2c0,1,0.8,1.9,1.9,1.9h24.8c1,0,1.9-0.8,1.9-1.9v-12.2
	C286.5,147.1,285.7,146.3,284.7,146.3z"/>
<path fill="#A4A4A4" d="M326.5,144.5h-20.7c-0.9,0-1.5,0.7-1.5,1.5v9.7c0,0.8,0.7,1.5,1.5,1.5h20.7c0.9,0,1.5-0.7,1.5-1.5v-9.7
	C328.1,145.1,327.4,144.5,326.5,144.5z"/>
<path fill="#A4A4A4" d="M360,144.5h-20.7c-0.9,0-1.5,0.7-1.5,1.5v9.7c0,0.8,0.7,1.5,1.5,1.5H360c0.9,0,1.5-0.7,1.5-1.5v-9.7
	C361.6,145.1,360.9,144.5,360,144.5z"/>
<path fill="#A4A4A4" d="M396.2,144.5h-20.7c-0.9,0-1.5,0.7-1.5,1.5v9.7c0,0.8,0.7,1.5,1.5,1.5h20.7c0.9,0,1.5-0.7,1.5-1.5v-9.7
	C397.8,145.1,397.1,144.5,396.2,144.5z"/>
<path fill="#A4A4A4" d="M430.9,144.5h-20.7c-0.9,0-1.5,0.7-1.5,1.5v9.7c0,0.8,0.7,1.5,1.5,1.5h20.7c0.9,0,1.5-0.7,1.5-1.5v-9.7
	C432.5,145.1,431.8,144.5,430.9,144.5z"/>
<g>
	<g>
		<polyline fill="none" stroke="#B5B4B5" stroke-width="3.1328" stroke-miterlimit="10" points="333.5,267.2 333.5,268.2 
			332.5,268.2 		"/>
		
			<line fill="none" stroke="#B5B4B5" stroke-width="3.1328" stroke-miterlimit="10" stroke-dasharray="1.917,1.917" x1="330.6" y1="268.2" x2="300.8" y2="268.2"/>
		<polyline fill="none" stroke="#B5B4B5" stroke-width="3.1328" stroke-miterlimit="10" points="299.9,268.2 298.9,268.2 
			298.9,267.2 		"/>
		
			<line fill="none" stroke="#B5B4B5" stroke-width="3.1328" stroke-miterlimit="10" stroke-dasharray="1.9712,1.9712" x1="298.9" y1="265.2" x2="298.9" y2="140.1"/>
		<polyline fill="none" stroke="#B5B4B5" stroke-width="3.1328" stroke-miterlimit="10" points="298.9,139.1 298.9,138.1 
			299.9,138.1 		"/>
		
			<line fill="none" stroke="#B5B4B5" stroke-width="3.1328" stroke-miterlimit="10" stroke-dasharray="1.917,1.917" x1="301.8" y1="138.1" x2="331.5" y2="138.1"/>
		<polyline fill="none" stroke="#B5B4B5" stroke-width="3.1328" stroke-miterlimit="10" points="332.5,138.1 333.5,138.1 
			333.5,139.1 		"/>
		
			<line fill="none" stroke="#B5B4B5" stroke-width="3.1328" stroke-miterlimit="10" stroke-dasharray="1.9712,1.9712" x1="333.5" y1="141" x2="333.5" y2="266.2"/>
	</g>
</g>
<g>
	<g>
		<polyline fill="none" stroke="#B5B4B5" stroke-width="3.1328" stroke-miterlimit="10" points="368.3,267.2 368.3,268.2 
			367.3,268.2 		"/>
		
			<line fill="none" stroke="#B5B4B5" stroke-width="3.1328" stroke-miterlimit="10" stroke-dasharray="1.917,1.917" x1="365.4" y1="268.2" x2="335.7" y2="268.2"/>
		<polyline fill="none" stroke="#B5B4B5" stroke-width="3.1328" stroke-miterlimit="10" points="334.7,268.2 333.7,268.2 
			333.7,267.2 		"/>
		
			<line fill="none" stroke="#B5B4B5" stroke-width="3.1328" stroke-miterlimit="10" stroke-dasharray="1.9712,1.9712" x1="333.7" y1="265.2" x2="333.7" y2="140.1"/>
		<polyline fill="none" stroke="#B5B4B5" stroke-width="3.1328" stroke-miterlimit="10" points="333.7,139.1 333.7,138.1 
			334.7,138.1 		"/>
		
			<line fill="none" stroke="#B5B4B5" stroke-width="3.1328" stroke-miterlimit="10" stroke-dasharray="1.917,1.917" x1="336.6" y1="138.1" x2="366.4" y2="138.1"/>
		<polyline fill="none" stroke="#B5B4B5" stroke-width="3.1328" stroke-miterlimit="10" points="367.3,138.1 368.3,138.1 
			368.3,139.1 		"/>
		
			<line fill="none" stroke="#B5B4B5" stroke-width="3.1328" stroke-miterlimit="10" stroke-dasharray="1.9712,1.9712" x1="368.3" y1="141" x2="368.3" y2="266.2"/>
	</g>
</g>
<g>
	<g>
		<polyline fill="none" stroke="#B5B4B5" stroke-width="3.1328" stroke-miterlimit="10" points="403.2,267.2 403.2,268.2 
			402.2,268.2 		"/>
		
			<line fill="none" stroke="#B5B4B5" stroke-width="3.1328" stroke-miterlimit="10" stroke-dasharray="1.917,1.917" x1="400.2" y1="268.2" x2="370.5" y2="268.2"/>
		<polyline fill="none" stroke="#B5B4B5" stroke-width="3.1328" stroke-miterlimit="10" points="369.6,268.2 368.6,268.2 
			368.6,267.2 		"/>
		
			<line fill="none" stroke="#B5B4B5" stroke-width="3.1328" stroke-miterlimit="10" stroke-dasharray="1.9712,1.9712" x1="368.6" y1="265.2" x2="368.6" y2="140.1"/>
		<polyline fill="none" stroke="#B5B4B5" stroke-width="3.1328" stroke-miterlimit="10" points="368.6,139.1 368.6,138.1 
			369.6,138.1 		"/>
		
			<line fill="none" stroke="#B5B4B5" stroke-width="3.1328" stroke-miterlimit="10" stroke-dasharray="1.917,1.917" x1="371.5" y1="138.1" x2="401.2" y2="138.1"/>
		<polyline fill="none" stroke="#B5B4B5" stroke-width="3.1328" stroke-miterlimit="10" points="402.2,138.1 403.2,138.1 
			403.2,139.1 		"/>
		
			<line fill="none" stroke="#B5B4B5" stroke-width="3.1328" stroke-miterlimit="10" stroke-dasharray="1.9712,1.9712" x1="403.2" y1="141" x2="403.2" y2="266.2"/>
	</g>
</g>
<g>
	<g>
		<polyline fill="none" stroke="#B5B4B5" stroke-width="3.1384" stroke-miterlimit="10" points="437.7,267.7 437.7,268.7 
			436.7,268.7 		"/>
		
			<line fill="none" stroke="#B5B4B5" stroke-width="3.1384" stroke-miterlimit="10" stroke-dasharray="1.917,1.917" x1="434.8" y1="268.7" x2="405.1" y2="268.7"/>
		<polyline fill="none" stroke="#B5B4B5" stroke-width="3.1384" stroke-miterlimit="10" points="404.2,268.7 403.2,268.7 
			403.2,267.7 		"/>
		
			<line fill="none" stroke="#B5B4B5" stroke-width="3.1384" stroke-miterlimit="10" stroke-dasharray="1.9783,1.9783" x1="403.2" y1="265.7" x2="403.2" y2="140.1"/>
		<polyline fill="none" stroke="#B5B4B5" stroke-width="3.1384" stroke-miterlimit="10" points="403.2,139.1 403.2,138.1 
			404.2,138.1 		"/>
		
			<line fill="none" stroke="#B5B4B5" stroke-width="3.1384" stroke-miterlimit="10" stroke-dasharray="1.917,1.917" x1="406.1" y1="138.1" x2="435.8" y2="138.1"/>
		<polyline fill="none" stroke="#B5B4B5" stroke-width="3.1384" stroke-miterlimit="10" points="436.7,138.1 437.7,138.1 
			437.7,139.1 		"/>
		
			<line fill="none" stroke="#B5B4B5" stroke-width="3.1384" stroke-miterlimit="10" stroke-dasharray="1.9783,1.9783" x1="437.7" y1="141" x2="437.7" y2="266.7"/>
	</g>
</g>
<g>
	<g>
		<line fill="none" stroke="#B5B4B5" stroke-width="2.9879" stroke-miterlimit="10" x1="298.9" y1="166.2" x2="299.9" y2="166.2"/>
		
			<line fill="none" stroke="#B5B4B5" stroke-width="2.9879" stroke-miterlimit="10" stroke-dasharray="1.9867,1.9867" x1="301.9" y1="166.2" x2="436" y2="166.2"/>
		<line fill="none" stroke="#B5B4B5" stroke-width="2.9879" stroke-miterlimit="10" x1="437" y1="166.2" x2="438" y2="166.2"/>
	</g>
</g>
<g>
	<g>
		<line fill="none" stroke="#B5B4B5" stroke-width="2.9743" stroke-miterlimit="10" x1="299.9" y1="201.7" x2="300.9" y2="201.7"/>
		
			<line fill="none" stroke="#B5B4B5" stroke-width="2.9743" stroke-miterlimit="10" stroke-dasharray="2.0271,2.0271" x1="303" y1="201.7" x2="435.7" y2="201.7"/>
		<line fill="none" stroke="#B5B4B5" stroke-width="2.9743" stroke-miterlimit="10" x1="436.7" y1="201.7" x2="437.7" y2="201.7"/>
	</g>
</g>
<g>
	<g>
		<line fill="none" stroke="#B5B4B5" stroke-width="3.0278" stroke-miterlimit="10" x1="294.9" y1="233.5" x2="295.9" y2="233.5"/>
		
			<line fill="none" stroke="#B5B4B5" stroke-width="3.0278" stroke-miterlimit="10" stroke-dasharray="1.9833,1.9833" x1="297.9" y1="233.5" x2="435.8" y2="233.5"/>
		<line fill="none" stroke="#B5B4B5" stroke-width="3.0278" stroke-miterlimit="10" x1="436.7" y1="233.5" x2="437.7" y2="233.5"/>
	</g>
</g>
<text transform="matrix(1 0 0 1 137 65.1894)" font-family="'MyriadPro-Regular'" font-size="25">Doc Page Title</text>
<line fill="none" stroke="#222222" stroke-width="5" stroke-miterlimit="10" x1="111.7" y1="86.5" x2="320.3" y2="86.5"/>
<line fill="none" stroke="#222222" stroke-width="4.4686" stroke-miterlimit="10" x1="111.7" y1="102.5" x2="278.3" y2="102.5"/>
<line fill="none" stroke="#222222" stroke-width="4.7361" stroke-miterlimit="10" x1="111.7" y1="117.9" x2="298.9" y2="117.9"/>
</svg>
