<?xml version="1.0" encoding="utf-8"?>
<!-- Generator: Adobe Illustrator 17.1.0, SVG Export Plug-In . SVG Version: 6.00 Build 0)  -->
<!DOCTYPE svg PUBLIC "-//W3C//DTD SVG 1.1//EN" "http://www.w3.org/Graphics/SVG/1.1/DTD/svg11.dtd">
<svg version="1.1" id="Layer_1" xmlns="http://www.w3.org/2000/svg" xmlns:xlink="http://www.w3.org/1999/xlink" x="0px" y="0px"
	 viewBox="0 0 600 350" enable-background="new 0 0 600 350" xml:space="preserve">
<path d="M582.3,123c-0.5-0.2-1.1,0.1-1.3,0.6l-0.3,1c-0.2,0.5,0.1,1.1,0.6,1.3c0.1,0,0.2,0.1,0.3,0.1c0.4,0,0.8-0.3,0.9-0.7l0.3-1
	C583.1,123.8,582.9,123.2,582.3,123z"/>
<path d="M583.8,118.3c-0.5-0.2-1.1,0.1-1.2,0.7l-0.1,0.5c-0.2,0.5,0.1,1.1,0.7,1.2h0.3c0.4,0,0.8-0.3,1-0.7l0.1-0.5
	C584.6,119.1,584.3,118.5,583.8,118.3z"/>
<path d="M160.5,230h-6.9v-54.8h6.9V230z M167.4,168.3h-20.6v68.5h20.6V168.3z"/>
<rect x="491.8" y="299.6" width="13" height="20.2"/>
<rect x="508.6" y="292.3" width="13" height="27.5"/>
<rect x="525.1" y="281.7" width="13" height="38.1"/>
<rect x="541.9" y="270" width="13" height="49.8"/>
<path d="M550.9,250v8.7c0,1.4-1.1,2.5-2.5,2.5c-1.4,0-2.5-1.1-2.5-2.5v-2c-24.3,26.6-51.2,35.3-52.4,35.7c-0.2,0.1-0.5,0.1-0.8,0.1
	c-1.1,0-2.1-0.7-2.4-1.8c-0.4-1.3,0.3-2.7,1.6-3.1c0.3-0.1,27.3-8.9,50.9-35.1h-3.2c-1.4,0-2.5-1.1-2.5-2.5c0-1.4,1.1-2.5,2.5-2.5
	h8.7c0.1,0,0.2,0,0.4,0c0.1,0,0.1,0,0.1,0C550.1,247.8,550.9,248.8,550.9,250L550.9,250z"/>
<path fill="#00AEEF" d="M376.4,307.7l-0.5,0.2c-0.5,0.2-0.8,0.7-0.6,1.3c0.1,0.4,0.5,0.7,1,0.7h0.3l0.5-0.2c0.5-0.2,0.8-0.7,0.6-1.3
	C377.5,307.8,377,307.5,376.4,307.7z"/>
<path fill="#00AEEF" d="M386.6,303.9c-0.3,0.1-0.7,0.3-1,0.4c-0.5,0.2-0.7,0.8-0.5,1.3c0.2,0.4,0.5,0.6,0.9,0.6c0.1,0,0.3,0,0.4-0.1
	c0.3-0.1,0.7-0.3,1-0.4c0.5-0.2,0.7-0.8,0.5-1.3C387.7,303.9,387.1,303.7,386.6,303.9z"/>
<path fill="#00AEEF" d="M381.5,305.9l-1,0.4c-0.5,0.2-0.8,0.8-0.6,1.3c0.1,0.4,0.5,0.7,0.9,0.7c0.1,0,0.2,0,0.3-0.1l1-0.4
	c0.5-0.2,0.8-0.8,0.6-1.3C382.6,306,382.1,305.7,381.5,305.9z"/>
<path fill="#00AEEF" d="M420.5,276.7c-0.5-0.3-1.1-0.1-1.4,0.3c-0.2,0.3-0.4,0.6-0.6,0.9c-0.3,0.5-0.2,1.1,0.3,1.4
	c0.2,0.1,0.4,0.2,0.5,0.2c0.3,0,0.7-0.2,0.8-0.5c0.2-0.3,0.4-0.6,0.6-0.9C421.1,277.7,421,277,420.5,276.7z"/>
<path fill="#00AEEF" d="M391.5,301.6c-0.3,0.2-0.6,0.3-1,0.5c-0.5,0.2-0.7,0.8-0.5,1.3c0.2,0.4,0.5,0.6,0.9,0.6c0.1,0,0.3,0,0.4-0.1
	c0.3-0.2,0.7-0.3,1-0.5c0.5-0.2,0.7-0.8,0.4-1.3C392.6,301.6,392,301.4,391.5,301.6z"/>
<path fill="#00AEEF" d="M413.5,287.8c0.2-0.3,0.5-0.5,0.7-0.8c0.4-0.4,0.3-1-0.1-1.4c-0.4-0.4-1-0.3-1.4,0.1
	c-0.2,0.3-0.5,0.5-0.7,0.8c-0.4,0.4-0.3,1,0.1,1.4c0.2,0.2,0.4,0.3,0.7,0.3C413,288.1,413.3,288,413.5,287.8z"/>
<path fill="#00AEEF" d="M417.7,282.7c0.3-0.4,0.2-1.1-0.2-1.4c-0.4-0.3-1.1-0.2-1.4,0.2c-0.2,0.3-0.4,0.6-0.6,0.9
	c-0.3,0.4-0.3,1.1,0.2,1.4c0.2,0.1,0.4,0.2,0.6,0.2c0.3,0,0.6-0.1,0.8-0.4C417.3,283.3,417.5,283,417.7,282.7z"/>
<path fill="#00AEEF" d="M396.2,299.1c-0.3,0.2-0.6,0.4-0.9,0.5c-0.5,0.3-0.6,0.9-0.4,1.4c0.2,0.3,0.5,0.5,0.9,0.5
	c0.2,0,0.3,0,0.5-0.1c0.3-0.2,0.6-0.4,1-0.5c0.5-0.3,0.6-0.9,0.4-1.4C397.3,298.9,396.7,298.8,396.2,299.1z"/>
<path fill="#00AEEF" d="M429.8,258.1c0.2-0.5-0.1-1.1-0.6-1.3c-0.5-0.2-1.1,0.1-1.3,0.6l-0.3,1c-0.2,0.5,0.1,1.1,0.6,1.3
	c0.1,0,0.2,0.1,0.3,0.1c0.4,0,0.8-0.3,0.9-0.7L429.8,258.1z"/>
<path fill="#00AEEF" d="M427.4,262c-0.5-0.2-1.1,0.1-1.3,0.6c-0.1,0.3-0.3,0.7-0.4,1c-0.2,0.5,0.1,1.1,0.6,1.3
	c0.1,0,0.2,0.1,0.4,0.1c0.4,0,0.8-0.2,0.9-0.6c0.1-0.3,0.3-0.7,0.4-1C428.2,262.8,428,262.2,427.4,262L427.4,262z"/>
<path fill="#00AEEF" d="M400.7,296.2c-0.3,0.2-0.6,0.4-0.9,0.6c-0.5,0.3-0.6,0.9-0.3,1.4c0.2,0.3,0.5,0.4,0.8,0.4
	c0.2,0,0.4-0.1,0.6-0.2c0.3-0.2,0.6-0.4,0.9-0.6c0.5-0.3,0.6-0.9,0.3-1.4C401.8,296,401.2,295.9,400.7,296.2z"/>
<path fill="#00AEEF" d="M425.5,269.4c0.2-0.3,0.3-0.7,0.5-1c0.2-0.5,0-1.1-0.5-1.3s-1.1,0-1.3,0.5c-0.1,0.3-0.3,0.7-0.4,1
	c-0.2,0.5,0,1.1,0.5,1.3c0.1,0.1,0.3,0.1,0.4,0.1C424.9,270,425.3,269.8,425.5,269.4z"/>
<path fill="#00AEEF" d="M408.9,292c0.2,0,0.5-0.1,0.7-0.3c0.3-0.2,0.5-0.5,0.8-0.8c0.4-0.4,0.4-1,0-1.4c-0.4-0.4-1-0.4-1.4,0
	c-0.3,0.2-0.5,0.5-0.8,0.7c-0.4,0.4-0.4,1-0.1,1.4C408.4,291.8,408.7,292,408.9,292z"/>
<path fill="#00AEEF" d="M423.1,272c-0.5-0.3-1.1-0.1-1.4,0.4c-0.2,0.3-0.3,0.6-0.5,0.9c-0.3,0.5-0.1,1.1,0.4,1.4
	c0.2,0.1,0.3,0.1,0.5,0.1c0.4,0,0.7-0.2,0.9-0.5c0.2-0.3,0.3-0.6,0.5-1C423.8,272.9,423.6,272.3,423.1,272L423.1,272z"/>
<path fill="#00AEEF" d="M429.9,254.5h0.3c0.4,0,0.8-0.3,1-0.7l0.1-0.5c0.2-0.5-0.1-1.1-0.7-1.2c-0.5-0.2-1.1,0.1-1.2,0.7l-0.1,0.5
	C429.1,253.8,429.4,254.4,429.9,254.5L429.9,254.5z"/>
<path fill="#00AEEF" d="M435.8,307.6l-0.5-0.1c-0.5-0.1-1.1,0.2-1.2,0.7c-0.1,0.5,0.2,1.1,0.7,1.2l0.5,0.1h0.3c0.4,0,0.8-0.3,1-0.7
	C436.7,308.3,436.4,307.7,435.8,307.6L435.8,307.6z"/>
<path fill="#00AEEF" d="M431.7,306.4l-0.9-0.3c-0.5-0.2-1.1,0.1-1.3,0.6s0.1,1.1,0.6,1.3l0.9,0.3h0.3c0.4,0,0.8-0.3,1-0.7
	C432.5,307.1,432.2,306.6,431.7,306.4L431.7,306.4z"/>
<path fill="#00AEEF" d="M427.3,304.9c-0.3-0.1-0.6-0.2-0.9-0.3c-0.5-0.2-1.1,0.1-1.3,0.6c-0.2,0.5,0.1,1.1,0.6,1.3
	c0.3,0.1,0.6,0.2,0.9,0.3c0.1,0,0.2,0.1,0.3,0.1c0.4,0,0.8-0.3,0.9-0.7C428,305.7,427.8,305.1,427.3,304.9z"/>
<path fill="#00AEEF" d="M399.9,287.9c-0.2-0.2-0.4-0.4-0.7-0.7c-0.4-0.4-1-0.4-1.4,0c-0.4,0.4-0.4,1,0,1.4c0.2,0.2,0.5,0.4,0.7,0.7
	c0.2,0.2,0.4,0.3,0.7,0.3c0.3,0,0.5-0.1,0.7-0.3C400.3,288.9,400.3,288.3,399.9,287.9z"/>
<path fill="#00AEEF" d="M418.7,301.3c-0.3-0.1-0.6-0.3-0.8-0.4c-0.5-0.3-1.1-0.1-1.3,0.4c-0.3,0.5-0.1,1.1,0.4,1.3
	c0.3,0.1,0.6,0.3,0.9,0.4c0.1,0.1,0.3,0.1,0.4,0.1c0.4,0,0.7-0.2,0.9-0.6C419.4,302.1,419.2,301.5,418.7,301.3L418.7,301.3z"/>
<path fill="#00AEEF" d="M378.3,257.5l-0.4-0.8c-0.3-0.5-0.9-0.7-1.3-0.4c-0.5,0.3-0.7,0.9-0.4,1.3l0.4,0.8c0.2,0.3,0.5,0.5,0.9,0.5
	c0.2,0,0.3,0,0.5-0.1C378.4,258.6,378.5,258,378.3,257.5z"/>
<path fill="#00AEEF" d="M380.6,266l0.5,0.8c0.2,0.3,0.5,0.5,0.9,0.5c0.2,0,0.3,0,0.5-0.1c0.5-0.3,0.6-0.9,0.3-1.4l-0.5-0.8
	c-0.3-0.5-0.9-0.6-1.4-0.4C380.5,264.9,380.4,265.5,380.6,266z"/>
<path fill="#00AEEF" d="M422.9,303.2c-0.3-0.1-0.6-0.2-0.9-0.4c-0.5-0.2-1.1,0-1.3,0.5c-0.2,0.5,0,1.1,0.5,1.3
	c0.3,0.1,0.6,0.3,0.9,0.4c0.1,0.1,0.3,0.1,0.4,0.1c0.4,0,0.8-0.2,0.9-0.6C423.7,304,423.4,303.4,422.9,303.2z"/>
<path fill="#00AEEF" d="M380.5,261.7l-0.5-0.8c-0.3-0.5-0.9-0.7-1.4-0.4s-0.7,0.9-0.4,1.4l0.5,0.8c0.2,0.3,0.5,0.5,0.9,0.5
	c0.2,0,0.3,0,0.5-0.1C380.6,262.8,380.8,262.2,380.5,261.7z"/>
<path fill="#00AEEF" d="M393,280.3c-0.3-0.4-1-0.5-1.4-0.1c-0.4,0.3-0.5,1-0.1,1.4c0.2,0.2,0.4,0.5,0.6,0.7c0.2,0.2,0.5,0.4,0.8,0.4
	c0.2,0,0.5-0.1,0.6-0.2c0.4-0.4,0.5-1,0.1-1.4L393,280.3z"/>
<path fill="#00AEEF" d="M395.9,286.2c0.2,0,0.5-0.1,0.7-0.3c0.4-0.4,0.4-1,0.1-1.4l-0.6-0.7c-0.4-0.4-1-0.4-1.4-0.1
	c-0.4,0.4-0.4,1-0.1,1.4l0.6,0.7C395.4,286.1,395.6,286.2,395.9,286.2z"/>
<path fill="#00AEEF" d="M405.7,296.6c-1.2,0-2.1-1-2.1-2.1c0-1.2,1-2.1,2.1-2.1c1.1,0,2.1,1,2.1,2.1
	C407.9,295.7,406.9,296.6,405.7,296.6z M409.9,296.1c-0.2-0.2-0.5-0.2-0.8-0.2c0.2-0.4,0.3-0.9,0.3-1.5c0-2.1-1.7-3.7-3.7-3.7
	c-0.8,0-1.5,0.3-2.1,0.7c-0.1-0.2-0.1-0.3-0.3-0.4c-0.2-0.2-0.5-0.4-0.7-0.6c-0.4-0.4-1-0.3-1.4,0.1c-0.4,0.4-0.3,1,0.1,1.4
	c0.2,0.2,0.5,0.4,0.7,0.6c0.1,0.1,0.3,0.2,0.5,0.2c-0.3,0.5-0.5,1.1-0.5,1.8c0,2.1,1.7,3.7,3.7,3.7c1,0,2-0.4,2.6-1.1
	c0,0.3,0.2,0.5,0.4,0.6c0.3,0.2,0.5,0.4,0.8,0.5c0.2,0.1,0.4,0.2,0.6,0.2c0.3,0,0.6-0.2,0.8-0.4c0.3-0.5,0.2-1.1-0.3-1.4
	C410.4,296.5,410.2,296.3,409.9,296.1L409.9,296.1z"/>
<path fill="#00AEEF" d="M385.4,269.7l-0.5-0.8c-0.3-0.5-0.9-0.6-1.4-0.3s-0.6,0.9-0.3,1.4l0.5,0.8c0.2,0.3,0.5,0.5,0.8,0.5
	c0.2,0,0.4-0.1,0.5-0.2C385.5,270.8,385.7,270.2,385.4,269.7z"/>
<path fill="#00AEEF" d="M387.4,272.8c-0.3-0.5-0.9-0.6-1.4-0.3c-0.5,0.3-0.6,0.9-0.3,1.4l0.5,0.8c0.2,0.3,0.5,0.4,0.8,0.4
	c0.2,0,0.4-0.1,0.6-0.2c0.5-0.3,0.6-0.9,0.3-1.4L387.4,272.8z"/>
<path fill="#00AEEF" d="M414.6,299.1l-0.8-0.5c-0.5-0.3-1.1-0.1-1.4,0.3c-0.3,0.5-0.1,1.1,0.3,1.4c0.3,0.2,0.5,0.3,0.8,0.5
	c0.2,0.1,0.3,0.1,0.5,0.1c0.3,0,0.7-0.2,0.9-0.5C415.3,300,415.1,299.4,414.6,299.1L414.6,299.1z"/>
<path fill="#00AEEF" d="M390.7,277.4l-0.6-0.7c-0.3-0.4-1-0.5-1.4-0.2c-0.4,0.3-0.5,1-0.2,1.4l0.6,0.8c0.2,0.3,0.5,0.4,0.8,0.4
	c0.2,0,0.4-0.1,0.6-0.2C390.9,278.5,391,277.8,390.7,277.4L390.7,277.4z"/>
<path fill="#00AEEF" d="M376.1,253.3l-0.2-0.4c-0.2-0.5-0.8-0.7-1.3-0.5c-0.5,0.2-0.7,0.8-0.5,1.3l0.2,0.5c0.2,0.4,0.5,0.6,0.9,0.6
	c0.1,0,0.3,0,0.4-0.1C376.2,254.4,376.4,253.8,376.1,253.3L376.1,253.3z"/>
<path fill="#F7941E" d="M524,166.6l-0.5,0.2c-0.5,0.2-0.8,0.7-0.6,1.3c0.1,0.4,0.5,0.7,1,0.7h0.3l0.5-0.2c0.5-0.2,0.8-0.7,0.6-1.3
	C525.1,166.7,524.5,166.4,524,166.6z"/>
<path fill="#F7941E" d="M534.1,162.8c-0.3,0.1-0.7,0.3-1,0.4c-0.5,0.2-0.7,0.8-0.5,1.3c0.2,0.4,0.5,0.6,0.9,0.6c0.1,0,0.3,0,0.4-0.1
	c0.3-0.1,0.7-0.3,1-0.4c0.5-0.2,0.7-0.8,0.5-1.3C535.1,162.8,534.6,162.6,534.1,162.8z"/>
<path fill="#F7941E" d="M529.1,164.8l-1,0.4c-0.5,0.2-0.8,0.8-0.6,1.3c0.1,0.4,0.5,0.7,0.9,0.7c0.1,0,0.2,0,0.3-0.1l1-0.4
	c0.5-0.2,0.8-0.8,0.6-1.3C530.2,164.9,529.6,164.6,529.1,164.8z"/>
<path fill="#F7941E" d="M553.1,154.8c-1.2,0-2.1-0.9-2.1-2.1c0-1.2,0.9-2.1,2.1-2.1s2.1,0.9,2.1,2.1
	C555.2,153.9,554.3,154.8,553.1,154.8z M556.5,148.4c-0.3,0.2-0.5,0.5-0.8,0.7c-0.2,0.2-0.3,0.5-0.3,0.8c-0.6-0.5-1.4-0.8-2.3-0.8
	c-2,0-3.6,1.6-3.6,3.6c0,2,1.6,3.6,3.6,3.6c2,0,3.6-1.6,3.6-3.6c0-0.7-0.2-1.4-0.6-1.9h0.2c0.2,0,0.5-0.1,0.7-0.3
	c0.3-0.2,0.5-0.5,0.8-0.8c0.4-0.4,0.4-1,0-1.4C557.4,147.9,556.9,148,556.5,148.4L556.5,148.4z"/>
<path fill="#F7941E" d="M548.2,155.1c-0.3,0.2-0.6,0.4-0.9,0.6c-0.5,0.3-0.6,0.9-0.3,1.4c0.2,0.3,0.5,0.4,0.8,0.4
	c0.2,0,0.4-0.1,0.6-0.2c0.3-0.2,0.6-0.4,0.9-0.6c0.5-0.3,0.6-0.9,0.3-1.4C549.2,154.9,548.6,154.8,548.2,155.1z"/>
<path fill="#F7941E" d="M543.6,158c-0.3,0.2-0.6,0.4-0.9,0.5c-0.5,0.3-0.6,0.9-0.4,1.4c0.2,0.3,0.5,0.5,0.9,0.5c0.2,0,0.3,0,0.5-0.1
	c0.3-0.2,0.6-0.4,1-0.5c0.5-0.3,0.6-0.9,0.4-1.4C544.7,157.8,544.1,157.7,543.6,158z"/>
<path fill="#F7941E" d="M538.9,160.5c-0.3,0.2-0.6,0.3-1,0.5c-0.5,0.2-0.7,0.8-0.5,1.3c0.2,0.4,0.5,0.6,0.9,0.6c0.1,0,0.3,0,0.4-0.1
	c0.3-0.2,0.7-0.3,1-0.5c0.5-0.2,0.7-0.8,0.4-1.3C540,160.5,539.4,160.3,538.9,160.5z"/>
<path fill="#F7941E" d="M573,126c-0.5-0.2-1.1,0-1.3,0.5c-0.1,0.3-0.3,0.7-0.4,1c-0.2,0.5,0,1.1,0.5,1.3c0.1,0.1,0.3,0.1,0.4,0.1
	c0.4,0,0.7-0.2,0.9-0.6c0.2-0.3,0.3-0.7,0.5-1C573.7,126.8,573.5,126.2,573,126z"/>
<path fill="#F7941E" d="M575,120.8c-0.5-0.2-1.1,0.1-1.3,0.6c-0.1,0.3-0.3,0.7-0.4,1c-0.2,0.5,0.1,1.1,0.6,1.3
	c0.1,0,0.2,0.1,0.4,0.1c0.4,0,0.8-0.2,0.9-0.6c0.1-0.3,0.3-0.7,0.4-1C575.7,121.6,575.5,121,575,120.8L575,120.8z"/>
<path fill="#F7941E" d="M576.7,115.7c-0.5-0.2-1.1,0.1-1.3,0.6l-0.3,1c-0.2,0.5,0.1,1.1,0.6,1.3c0.1,0,0.2,0.1,0.3,0.1
	c0.4,0,0.8-0.3,0.9-0.7l0.3-1C577.5,116.5,577.3,115.9,576.7,115.7z"/>
<path fill="#F7941E" d="M560.2,144.5c-0.2,0.3-0.5,0.5-0.7,0.8c-0.4,0.4-0.3,1,0.1,1.4c0.2,0.2,0.4,0.3,0.7,0.3
	c0.3,0,0.5-0.1,0.7-0.3c0.2-0.3,0.5-0.5,0.7-0.8c0.4-0.4,0.3-1-0.1-1.4C561.2,144.1,560.5,144.1,560.2,144.5z"/>
<path fill="#F7941E" d="M563.6,140.4c-0.2,0.3-0.4,0.6-0.6,0.9c-0.3,0.4-0.3,1.1,0.2,1.4c0.2,0.1,0.4,0.2,0.6,0.2
	c0.3,0,0.6-0.1,0.8-0.4c0.2-0.3,0.4-0.6,0.7-0.9c0.3-0.4,0.2-1.1-0.2-1.4C564.6,139.8,564,139.9,563.6,140.4z"/>
<path fill="#F7941E" d="M570.6,130.9c-0.5-0.3-1.1-0.1-1.4,0.4c-0.2,0.3-0.3,0.6-0.5,0.9c-0.3,0.5-0.1,1.1,0.4,1.4
	c0.2,0.1,0.3,0.1,0.5,0.1c0.4,0,0.7-0.2,0.9-0.5c0.2-0.3,0.3-0.6,0.5-1C571.3,131.8,571.1,131.2,570.6,130.9L570.6,130.9z"/>
<path fill="#F7941E" d="M568,135.6c-0.5-0.3-1.1-0.1-1.4,0.3c-0.2,0.3-0.4,0.6-0.6,0.9c-0.3,0.5-0.2,1.1,0.3,1.4
	c0.2,0.1,0.4,0.2,0.5,0.2c0.3,0,0.7-0.2,0.8-0.5c0.2-0.3,0.4-0.6,0.6-0.9C568.6,136.6,568.5,135.9,568,135.6z"/>
<path fill="#F7941E" d="M578.2,111c-0.5-0.2-1.1,0.1-1.2,0.7l-0.1,0.5c-0.2,0.5,0.1,1.1,0.7,1.2h0.3c0.4,0,0.8-0.3,1-0.7l0.1-0.5
	C579,111.8,578.7,111.2,578.2,111z"/>
<path fill="#00A651" d="M224.1,326.3l-0.5-0.1c-0.5-0.1-1.1,0.2-1.2,0.7c-0.1,0.5,0.2,1.1,0.7,1.2l0.5,0.1h0.3c0.4,0,0.8-0.3,1-0.7
	C225,327,224.6,326.5,224.1,326.3z"/>
<path fill="#00A651" d="M220.1,325.2l-0.9-0.3c-0.5-0.2-1.1,0.1-1.3,0.6c-0.2,0.5,0.1,1.1,0.6,1.3c0.3,0.1,0.6,0.2,0.9,0.3h0.3
	c0.4,0,0.8-0.3,1-0.7C220.9,325.9,220.6,325.3,220.1,325.2L220.1,325.2z"/>
<path fill="#00A651" d="M215.6,323.7c-0.3-0.1-0.6-0.2-0.9-0.3c-0.5-0.2-1.1,0.1-1.3,0.6s0.1,1.1,0.6,1.3c0.3,0.1,0.6,0.2,0.9,0.3
	c0.1,0,0.2,0.1,0.3,0.1c0.4,0,0.8-0.3,0.9-0.7C216.4,324.4,216.2,323.9,215.6,323.7z"/>
<path fill="#00A651" d="M175.7,291.5c-0.3-0.5-0.9-0.6-1.4-0.3c-0.5,0.3-0.6,0.9-0.3,1.4l0.5,0.8c0.2,0.3,0.5,0.4,0.8,0.4
	c0.2,0,0.4-0.1,0.6-0.2c0.5-0.3,0.6-0.9,0.3-1.4L175.7,291.5z"/>
<path fill="#00A651" d="M178.5,295.3c-0.3-0.4-1-0.5-1.4-0.2c-0.4,0.3-0.5,1-0.2,1.4l0.6,0.8c0.2,0.3,0.5,0.4,0.8,0.4
	c0.2,0,0.4-0.1,0.6-0.2c0.4-0.3,0.5-1,0.2-1.4L178.5,295.3z"/>
<path fill="#00A651" d="M171.2,284.4l-0.4-0.8c-0.3-0.5-0.9-0.6-1.4-0.4c-0.5,0.3-0.6,0.9-0.4,1.4l0.5,0.8c0.2,0.3,0.5,0.5,0.9,0.5
	c0.2,0,0.3,0,0.5-0.1C171.4,285.5,171.5,284.9,171.2,284.4L171.2,284.4z"/>
<path fill="#00A651" d="M173.2,287.6c-0.3-0.5-0.9-0.6-1.4-0.3c-0.5,0.3-0.6,0.9-0.3,1.4l0.5,0.8c0.2,0.3,0.5,0.5,0.8,0.5
	c0.2,0,0.4-0.1,0.5-0.2c0.5-0.3,0.6-0.9,0.3-1.4L173.2,287.6z"/>
<path fill="#00A651" d="M166.7,276.2l-0.4-0.8c-0.3-0.5-0.9-0.7-1.3-0.4c-0.5,0.3-0.7,0.9-0.4,1.3l0.4,0.8c0.2,0.3,0.5,0.5,0.9,0.5
	c0.2,0,0.3,0,0.5-0.1C166.7,277.3,166.9,276.7,166.7,276.2z"/>
<path fill="#00A651" d="M168.9,280.3l-0.5-0.8c-0.3-0.5-0.9-0.7-1.4-0.4c-0.5,0.3-0.7,0.9-0.4,1.4l0.5,0.8c0.2,0.3,0.5,0.5,0.9,0.5
	c0.2,0,0.3,0,0.5-0.1C169,281.4,169.2,280.8,168.9,280.3z"/>
<path fill="#00A651" d="M181.4,299c-0.3-0.4-1-0.5-1.4-0.1c-0.4,0.3-0.5,1-0.1,1.4c0.2,0.2,0.4,0.5,0.6,0.7c0.2,0.2,0.5,0.4,0.8,0.4
	c0.2,0,0.5-0.1,0.6-0.2c0.4-0.4,0.5-1,0.1-1.4L181.4,299z"/>
<path fill="#00A651" d="M207.1,320c-0.3-0.1-0.6-0.3-0.8-0.4c-0.5-0.3-1.1-0.1-1.3,0.4c-0.3,0.5-0.1,1.1,0.4,1.3
	c0.3,0.1,0.6,0.3,0.9,0.4c0.1,0.1,0.3,0.1,0.4,0.1c0.4,0,0.7-0.2,0.9-0.6C207.8,320.9,207.6,320.3,207.1,320L207.1,320z"/>
<path fill="#00A651" d="M211.3,322c-0.3-0.1-0.6-0.2-0.9-0.4c-0.5-0.2-1.1,0-1.3,0.5s0,1.1,0.5,1.3c0.3,0.1,0.6,0.3,0.9,0.4
	c0.1,0.1,0.3,0.1,0.4,0.1c0.4,0,0.8-0.2,0.9-0.6C212.1,322.8,211.8,322.2,211.3,322z"/>
<path fill="#00A651" d="M203,317.8l-0.8-0.5c-0.5-0.3-1.1-0.1-1.4,0.3c-0.3,0.5-0.1,1.1,0.3,1.4c0.3,0.2,0.5,0.3,0.8,0.5
	c0.2,0.1,0.3,0.1,0.5,0.1c0.3,0,0.7-0.2,0.9-0.5C203.7,318.7,203.5,318.1,203,317.8L203,317.8z"/>
<path fill="#00A651" d="M194.2,315.6c-1.2,0-2.1-0.9-2.1-2.1s0.9-2.1,2.1-2.1c1.2,0,2.1,0.9,2.1,2.1
	C196.3,314.7,195.4,315.6,194.2,315.6z M198.3,314.8c-0.2-0.1-0.4-0.2-0.6-0.2c0.1-0.4,0.2-0.8,0.2-1.2c0-2-1.6-3.7-3.7-3.7
	c-0.8,0-1.6,0.3-2.2,0.8c0-0.3-0.1-0.6-0.3-0.9c-0.2-0.2-0.5-0.4-0.7-0.6c-0.4-0.4-1-0.3-1.4,0.1c-0.4,0.4-0.3,1,0.1,1.4
	c0.2,0.2,0.5,0.4,0.7,0.6c0.2,0.2,0.4,0.2,0.7,0.2h0.1c-0.4,0.6-0.6,1.3-0.6,2c0,2,1.6,3.7,3.7,3.7c1,0,1.9-0.4,2.6-1.1
	c0.1,0.2,0.2,0.3,0.3,0.4c0.3,0.2,0.5,0.4,0.8,0.5c0.2,0.1,0.4,0.2,0.6,0.2c0.3,0,0.6-0.2,0.8-0.4c0.3-0.5,0.2-1.1-0.3-1.4
	C198.8,315.2,198.6,315,198.3,314.8L198.3,314.8z"/>
<path fill="#00A651" d="M187.6,305.9c-0.4-0.4-1-0.4-1.4,0c-0.4,0.4-0.4,1,0,1.4c0.2,0.2,0.5,0.4,0.7,0.7c0.2,0.2,0.4,0.3,0.7,0.3
	c0.3,0,0.5-0.1,0.7-0.3c0.4-0.4,0.4-1,0-1.4C188.1,306.3,187.8,306.1,187.6,305.9L187.6,305.9z"/>
<path fill="#00A651" d="M184.4,302.5c-0.4-0.4-1-0.4-1.4-0.1c-0.4,0.4-0.4,1-0.1,1.4l0.6,0.7c0.2,0.2,0.5,0.3,0.7,0.3
	c0.2,0,0.5-0.1,0.7-0.3c0.4-0.4,0.4-1,0.1-1.4L184.4,302.5z"/>
<path fill="#00A651" d="M164.5,272l-0.2-0.4c-0.2-0.5-0.8-0.7-1.3-0.5c-0.5,0.2-0.7,0.8-0.5,1.3l0.2,0.4c0.2,0.4,0.5,0.6,0.9,0.6
	c0.1,0,0.3,0,0.4-0.1C164.6,273.1,164.8,272.5,164.5,272z"/>
<path fill="#F26522" d="M100.1,155.9c0.2,0.3,0.2,0.8,0,1.2c-0.3,0.4-1,0.5-1.4,0.2l-0.4-0.3c-0.4-0.3-0.5-1-0.2-1.4
	c0.3-0.4,1-0.5,1.4-0.2l0.4,0.3C99.9,155.7,100,155.8,100.1,155.9z"/>
<path fill="#F26522" d="M91.6,149.9c0.2,0.3,0.3,0.8,0,1.1c-0.3,0.4-0.9,0.6-1.4,0.3c-0.3-0.2-0.6-0.4-0.9-0.6
	c-0.4-0.3-0.6-0.9-0.3-1.4c0.3-0.4,0.9-0.6,1.4-0.3c0.3,0.2,0.6,0.4,0.9,0.6C91.5,149.7,91.5,149.8,91.6,149.9z M96.1,153
	c0.2,0.3,0.2,0.8-0.1,1.1c-0.3,0.4-1,0.5-1.4,0.2l-0.9-0.6c-0.4-0.3-0.5-1-0.2-1.4c0.3-0.4,1-0.5,1.4-0.2l0.9,0.6
	C96,152.8,96.1,152.9,96.1,153z"/>
<path fill="#F26522" d="M29.3,140.8c0.1,0.1,0.1,0.2,0.1,0.3c0.1,0.5-0.1,1.1-0.7,1.2l-1,0.3c-0.5,0.1-1.1-0.1-1.2-0.7
	c-0.1-0.5,0.1-1.1,0.7-1.2l1-0.3C28.6,140.3,29.1,140.5,29.3,140.8z M34.6,139.5c0.1,0.1,0.1,0.2,0.1,0.4c0.1,0.5-0.2,1.1-0.7,1.2
	c-0.3,0.1-0.8,0.1-1.1,0.2c-0.5,0.1-1.1-0.2-1.2-0.7c-0.1-0.5,0.2-1.1,0.7-1.2c0.3-0.1,0.8-0.1,1.1-0.2
	C34,139,34.4,139.2,34.6,139.5L34.6,139.5z M39.9,138.4c0.1,0.1,0.2,0.2,0.1,0.4c0.1,0.5-0.3,1-0.8,1.1c-0.3,0.1-0.7,0.1-1.1,0.2
	c-0.5,0.1-1-0.3-1.1-0.8c-0.1-0.5,0.3-1,0.8-1.1c0.3-0.1,0.8-0.1,1.1-0.2C39.3,138,39.7,138.1,39.9,138.4z M45.2,137.7
	c0.1,0.2,0.2,0.2,0.2,0.5c0,0.6-0.3,1.1-0.9,1.1c-0.4,0-0.7,0.1-1,0.1c-0.6,0-1.1-0.3-1.1-0.9c0-0.6,0.3-1.1,0.9-1.1
	c0.4,0,0.7-0.1,1.1-0.2C44.8,137.2,45.1,137.5,45.2,137.7z M50.7,137.4c0.1,0.2,0.1,0.4,0.1,0.5c0,0.6-0.4,1-1,1c-0.4,0-0.7,0-1.1,0
	c-0.6,0-1-0.4-1-1c0-0.6,0.4-1,1-1c0.4,0,0.7,0,1.1,0C50.1,136.9,50.5,137.1,50.7,137.4z M56.1,137.5c0.1,0.2,0.1,0.4,0.2,0.6
	c0,0.5-0.5,1-1,1c-0.4,0-0.7,0-1.1,0c-0.5,0-1-0.5-1-1c0-0.5,0.5-1,1-1c0.4,0,0.7,0,1.1,0.1C55.7,137,55.9,137.2,56.1,137.5z
	 M61.6,138c0.1,0.2,0.2,0.5,0.1,0.8c-0.1,0.6-0.6,0.9-1.1,0.9c-0.4,0-0.7-0.1-1.1-0.1c-0.6-0.1-1-0.5-0.9-1.1c0.1-0.6,0.5-1,1.1-0.9
	c0.4,0,0.7,0.1,1.1,0.1C61.2,137.6,61.4,137.7,61.6,138z M66.9,138.9c0.2,0.2,0.2,0.5,0.1,0.8c-0.1,0.6-0.7,0.8-1.2,0.7
	c-0.3-0.1-0.7-0.1-1-0.3c-0.6-0.1-0.9-0.6-0.8-1.2c0.1-0.6,0.6-0.9,1.2-0.8l1.1,0.2C66.6,138.6,66.8,138.8,66.9,138.9z M72.2,140.4
	c0.2,0.2,0.3,0.6,0.1,0.9c-0.2,0.5-0.7,0.9-1.3,0.6c-0.3-0.1-0.7-0.3-1-0.3c-0.5-0.2-0.9-0.7-0.7-1.2c0.2-0.5,0.7-0.9,1.2-0.7
	c0.3,0.1,0.8,0.2,1.1,0.3C71.8,140.1,72.1,140.3,72.2,140.4z M77.2,142.3c0.2,0.2,0.2,0.6,0.1,0.9c-0.2,0.5-0.8,0.8-1.3,0.5
	c-0.3-0.1-0.7-0.3-1-0.4c-0.5-0.2-0.8-0.8-0.5-1.3c0.2-0.5,0.8-0.8,1.3-0.5c0.3,0.1,0.7,0.3,1,0.4C77,142,77.1,142.2,77.2,142.3z
	 M82.2,144.5c0.2,0.2,0.2,0.7,0.1,1c-0.2,0.5-0.9,0.7-1.4,0.5c-0.3-0.1-0.7-0.3-0.9-0.5c-0.5-0.2-0.7-0.9-0.5-1.4
	c0.2-0.5,0.9-0.7,1.4-0.5c0.3,0.1,0.7,0.3,1,0.5C82,144.3,82.1,144.3,82.2,144.5z M87,147.1c0.2,0.3,0.2,0.7,0,1.1
	c-0.3,0.4-0.9,0.6-1.4,0.3c-0.3-0.1-0.6-0.3-1-0.5c-0.4-0.3-0.6-0.9-0.4-1.3c0.3-0.4,0.9-0.6,1.3-0.4c0.3,0.1,0.6,0.4,1,0.5
	C86.8,146.8,87,147,87,147.1L87,147.1z"/>
<path fill="#F26522" d="M24.1,142.4l0.2,0.2c0.1,0.5-0.1,1.1-0.6,1.3l-0.5,0.2c-0.5,0.1-1.1-0.1-1.3-0.6c-0.1-0.5,0.1-1.1,0.6-1.3
	l0.5-0.2C23.3,141.8,23.8,142,24.1,142.4z"/>
<path fill="#F26522" d="M102.4,161.8c0.7,1,2,1.2,2.9,0.6c1-0.7,1.2-2,0.6-2.9s-2-1.2-2.9-0.6C102,159.5,101.7,160.8,102.4,161.8z
	 M107.3,158.5c1.1,1.7,0.7,4-1,5.2c-1.7,1.1-4,0.7-5.2-1s-0.7-4,1-5.2C103.8,156.4,106.2,156.8,107.3,158.5z"/>
<path fill="#F26522" d="M13.7,147.6c-0.5,0-0.8-0.7-0.5-1.1l4.2-6.3c0.3-0.4,0.9-0.4,1.1,0.1l3.2,6.8c0.2,0.5-0.1,1.1-0.7,1
	l-3.7-0.3L13.7,147.6z"/>
<path fill="#F26522" d="M105.5,288.9l-0.5-0.1c-0.5-0.1-1.1,0.2-1.2,0.7c-0.1,0.5,0.2,1.1,0.7,1.2l0.5,0.1h0.3c0.4,0,0.8-0.3,1-0.7
	C106.4,289.6,106,289.1,105.5,288.9z"/>
<path fill="#F26522" d="M97,286.3c-0.3-0.1-0.6-0.2-0.9-0.3c-0.5-0.2-1.1,0.1-1.3,0.6s0.1,1.1,0.6,1.3c0.3,0.1,0.6,0.2,0.9,0.3
	c0.1,0,0.2,0.1,0.3,0.1c0.4,0,0.8-0.3,0.9-0.7C97.8,287,97.6,286.5,97,286.3z"/>
<path fill="#F26522" d="M101.5,287.8l-0.9-0.3c-0.5-0.2-1.1,0.1-1.3,0.6c-0.2,0.5,0.1,1.1,0.6,1.3c0.3,0.1,0.6,0.2,0.9,0.3h0.3
	c0.4,0,0.8-0.3,1-0.7C102.3,288.5,102,287.9,101.5,287.8L101.5,287.8z"/>
<path fill="#F26522" d="M54.6,250.3c-0.3-0.5-0.9-0.6-1.4-0.3s-0.6,0.9-0.3,1.4l0.5,0.8c0.2,0.3,0.5,0.5,0.8,0.5
	c0.2,0,0.4-0.1,0.5-0.2c0.5-0.3,0.6-0.9,0.3-1.4L54.6,250.3z"/>
<path fill="#F26522" d="M62.7,261.7c-0.3-0.4-1-0.5-1.4-0.1c-0.4,0.3-0.5,1-0.1,1.4c0.2,0.2,0.4,0.5,0.6,0.7
	c0.2,0.2,0.5,0.4,0.8,0.4c0.2,0,0.5-0.1,0.6-0.2c0.4-0.4,0.5-1,0.1-1.4L62.7,261.7z"/>
<path fill="#F26522" d="M65.7,265.2c-0.4-0.4-1-0.4-1.4-0.1c-0.4,0.4-0.4,1-0.1,1.4l0.6,0.7c0.2,0.2,0.5,0.3,0.7,0.3
	c0.2,0,0.5-0.1,0.7-0.3c0.4-0.4,0.4-1,0.1-1.4L65.7,265.2z"/>
<path fill="#F26522" d="M59.8,258c-0.3-0.4-1-0.5-1.4-0.2c-0.4,0.3-0.5,1-0.2,1.4l0.6,0.8c0.2,0.3,0.5,0.4,0.8,0.4
	c0.2,0,0.4-0.1,0.6-0.2c0.4-0.3,0.5-1,0.2-1.4L59.8,258z"/>
<path fill="#F26522" d="M48.1,238.8l-0.4-0.8c-0.3-0.5-0.9-0.7-1.3-0.4c-0.5,0.3-0.7,0.9-0.4,1.3l0.4,0.8c0.2,0.3,0.5,0.5,0.9,0.5
	c0.2,0,0.3,0,0.5-0.1C48.1,239.9,48.3,239.3,48.1,238.8z"/>
<path fill="#F26522" d="M52.6,247.1l-0.4-0.8c-0.3-0.5-0.9-0.6-1.4-0.4c-0.5,0.3-0.6,0.9-0.4,1.4l0.5,0.8c0.2,0.3,0.5,0.5,0.9,0.5
	c0.2,0,0.3,0,0.5-0.1C52.8,248.2,52.9,247.6,52.6,247.1L52.6,247.1z"/>
<path fill="#F26522" d="M50.3,242.9l-0.5-0.8c-0.3-0.5-0.9-0.7-1.4-0.4c-0.5,0.3-0.7,0.9-0.4,1.4l0.5,0.8c0.2,0.3,0.5,0.5,0.9,0.5
	c0.2,0,0.3,0,0.5-0.1C50.4,244.1,50.6,243.4,50.3,242.9L50.3,242.9z"/>
<path fill="#F26522" d="M57.1,254.2c-0.3-0.5-0.9-0.6-1.4-0.3s-0.6,0.9-0.3,1.4l0.5,0.8c0.2,0.3,0.5,0.4,0.8,0.4
	c0.2,0,0.4-0.1,0.6-0.2c0.5-0.3,0.6-0.9,0.3-1.4L57.1,254.2z"/>
<path fill="#F26522" d="M88.5,282.6c-0.3-0.1-0.6-0.3-0.8-0.4c-0.5-0.3-1.1-0.1-1.3,0.4c-0.3,0.5-0.1,1.1,0.4,1.3
	c0.3,0.1,0.6,0.3,0.9,0.4c0.1,0.1,0.3,0.1,0.4,0.1c0.4,0,0.7-0.2,0.9-0.6C89.2,283.5,89,282.9,88.5,282.6L88.5,282.6z"/>
<path fill="#F26522" d="M92.7,284.6c-0.3-0.1-0.6-0.2-0.9-0.4c-0.5-0.2-1.1,0-1.3,0.5s0,1.1,0.5,1.3c0.3,0.1,0.6,0.3,0.9,0.4
	c0.1,0.1,0.3,0.1,0.4,0.1c0.4,0,0.8-0.2,0.9-0.6C93.5,285.4,93.2,284.8,92.7,284.6z"/>
<path fill="#F26522" d="M84.4,280.4l-0.8-0.5c-0.5-0.3-1.1-0.1-1.4,0.3c-0.3,0.5-0.1,1.1,0.3,1.4c0.3,0.2,0.5,0.3,0.8,0.5
	c0.2,0.1,0.3,0.1,0.5,0.1c0.3,0,0.7-0.2,0.9-0.5C85.1,281.3,84.9,280.7,84.4,280.4L84.4,280.4z"/>
<path fill="#F26522" d="M69,268.6c-0.4-0.4-1-0.4-1.4,0c-0.4,0.4-0.4,1,0,1.4c0.2,0.2,0.5,0.4,0.7,0.7c0.2,0.2,0.4,0.3,0.7,0.3
	c0.3,0,0.5-0.1,0.7-0.3c0.4-0.4,0.4-1,0-1.4C69.5,269,69.2,268.8,69,268.6L69,268.6z"/>
<path fill="#F26522" d="M79.7,277.4c-0.5-0.3-1.1-0.2-1.4,0.3c-0.3,0.5-0.2,1.1,0.3,1.4c0.3,0.2,0.5,0.4,0.8,0.5
	c0.2,0.1,0.4,0.2,0.6,0.2c0.3,0,0.6-0.2,0.8-0.4c0.3-0.5,0.2-1.1-0.3-1.4C80.2,277.8,80,277.6,79.7,277.4z"/>
<path fill="#F26522" d="M72.4,271.7c-0.4-0.4-1-0.3-1.4,0.1c-0.4,0.4-0.3,1,0.1,1.4c0.2,0.2,0.5,0.4,0.7,0.6
	c0.2,0.2,0.4,0.2,0.7,0.2c0.3,0,0.6-0.1,0.8-0.3c0.4-0.4,0.3-1-0.1-1.4C72.9,272.2,72.6,272,72.4,271.7z"/>
<path fill="#F26522" d="M76,274.7c-0.4-0.3-1.1-0.3-1.4,0.2c-0.3,0.4-0.3,1.1,0.2,1.4c0.2,0.2,0.5,0.4,0.8,0.6
	c0.2,0.1,0.4,0.2,0.6,0.2c0.3,0,0.6-0.1,0.8-0.4c0.3-0.4,0.2-1.1-0.2-1.4C76.4,275.1,76.2,274.9,76,274.7z"/>
<path fill="#F26522" d="M45.9,234.6l-0.2-0.4c-0.2-0.5-0.8-0.7-1.3-0.5c-0.5,0.2-0.7,0.8-0.5,1.3l0.2,0.4c0.2,0.4,0.5,0.6,0.9,0.6
	c0.1,0,0.3,0,0.4-0.1C46,235.7,46.2,235.1,45.9,234.6z"/>
<path fill="#F26522" d="M42.5,231.3c-1.2,0-2.1-0.9-2.1-2.1c0-1.2,0.9-2.1,2.1-2.1c1.2,0,2.1,0.9,2.1,2.1
	C44.6,230.4,43.7,231.3,42.5,231.3z M46.1,229.2c0-2-1.6-3.6-3.6-3.6c-2,0-3.6,1.6-3.6,3.6s1.6,3.6,3.6,3.6
	C44.5,232.8,46.1,231.2,46.1,229.2z"/>
<path fill="#F26522" d="M115.1,291.4l-5.6-5c-0.4-0.4-1-0.2-1.1,0.4l-1.6,7.2c-0.1,0.5,0.4,1,0.9,0.8l7-2.2
	C115.4,292.4,115.5,291.8,115.1,291.4L115.1,291.4z"/>
<path fill="#F26522" d="M27.5,94.4L27,94.6c-0.5,0.2-0.8,0.7-0.6,1.3c0.1,0.4,0.5,0.7,1,0.7h0.3l0.5-0.2c0.5-0.2,0.8-0.7,0.6-1.3
	C28.6,94.5,28.1,94.2,27.5,94.4z"/>
<path fill="#F26522" d="M32.6,92.6l-1,0.4c-0.5,0.2-0.8,0.8-0.6,1.3c0.1,0.4,0.5,0.7,0.9,0.7c0.1,0,0.2,0,0.3-0.1l1-0.4
	c0.5-0.2,0.8-0.8,0.6-1.3C33.7,92.7,33.2,92.4,32.6,92.6z"/>
<path fill="#F26522" d="M37.6,90.6c-0.3,0.1-0.7,0.3-1,0.4c-0.5,0.2-0.7,0.8-0.5,1.3c0.2,0.4,0.5,0.6,0.9,0.6c0.1,0,0.3,0,0.4-0.1
	c0.3-0.1,0.7-0.3,1-0.4c0.5-0.2,0.7-0.8,0.5-1.3C38.7,90.6,38.1,90.4,37.6,90.6z"/>
<path fill="#F26522" d="M71.6,63.4c-0.5-0.3-1.1-0.1-1.4,0.3c-0.2,0.3-0.4,0.6-0.6,0.9c-0.3,0.5-0.2,1.1,0.3,1.4
	c0.2,0.1,0.4,0.2,0.5,0.2c0.3,0,0.7-0.2,0.8-0.5c0.2-0.3,0.4-0.6,0.6-0.9C72.2,64.4,72.1,63.7,71.6,63.4z"/>
<path fill="#F26522" d="M74.2,58.7c-0.5-0.3-1.1-0.1-1.4,0.4c-0.2,0.3-0.3,0.6-0.5,0.9c-0.3,0.5-0.1,1.1,0.4,1.4
	c0.2,0.1,0.3,0.1,0.5,0.1c0.4,0,0.7-0.2,0.9-0.5c0.2-0.3,0.3-0.6,0.5-1C74.9,59.6,74.7,59,74.2,58.7L74.2,58.7z"/>
<path fill="#F26522" d="M42.5,88.3c-0.3,0.2-0.6,0.3-1,0.5C41,89,40.8,89.6,41,90.1c0.2,0.4,0.5,0.6,0.9,0.6c0.1,0,0.3,0,0.4-0.1
	c0.3-0.2,0.7-0.3,1-0.5c0.5-0.2,0.7-0.8,0.4-1.3C43.6,88.3,43,88.1,42.5,88.3z"/>
<path fill="#F26522" d="M76.6,56c0.2-0.3,0.3-0.7,0.5-1c0.2-0.5,0-1.1-0.5-1.3c-0.5-0.2-1.1,0-1.3,0.5c-0.1,0.3-0.3,0.7-0.4,1
	c-0.2,0.5,0,1.1,0.5,1.3c0.1,0.1,0.3,0.1,0.4,0.1C76,56.7,76.4,56.4,76.6,56z"/>
<path fill="#F26522" d="M51.7,82.9c-0.3,0.2-0.6,0.4-0.9,0.6c-0.5,0.3-0.6,0.9-0.3,1.4c0.2,0.3,0.5,0.4,0.8,0.4
	c0.2,0,0.4-0.1,0.6-0.2c0.3-0.2,0.6-0.4,0.9-0.6c0.5-0.3,0.6-0.9,0.3-1.4C52.8,82.7,52.2,82.6,51.7,82.9L51.7,82.9z"/>
<path fill="#F26522" d="M47.2,85.8c-0.3,0.2-0.6,0.4-0.9,0.5c-0.5,0.3-0.6,0.9-0.4,1.4c0.2,0.3,0.5,0.5,0.9,0.5c0.2,0,0.3,0,0.5-0.1
	c0.3-0.2,0.6-0.4,1-0.5c0.5-0.3,0.6-0.9,0.4-1.4C48.3,85.6,47.7,85.5,47.2,85.8z"/>
<path fill="#F26522" d="M64.5,74.5c0.2-0.3,0.5-0.5,0.7-0.8c0.4-0.4,0.3-1-0.1-1.4c-0.4-0.4-1-0.3-1.4,0.1c-0.2,0.3-0.5,0.5-0.7,0.8
	c-0.4,0.4-0.3,1,0.1,1.4c0.2,0.2,0.4,0.3,0.7,0.3C64,74.8,64.3,74.7,64.5,74.5z"/>
<path fill="#F26522" d="M78.5,48.6c-0.5-0.2-1.1,0.1-1.3,0.6c-0.1,0.3-0.3,0.7-0.4,1c-0.2,0.5,0.1,1.1,0.6,1.3
	c0.1,0,0.2,0.1,0.4,0.1c0.4,0,0.8-0.2,0.9-0.6c0.1-0.3,0.3-0.7,0.4-1C79.3,49.4,79.1,48.8,78.5,48.6L78.5,48.6z"/>
<path fill="#F26522" d="M60,76.2c-0.3,0.2-0.5,0.5-0.8,0.7c-0.4,0.4-0.4,1-0.1,1.4c0.2,0.2,0.5,0.3,0.7,0.3c0.2,0,0.5-0.1,0.7-0.3
	c0.3-0.2,0.5-0.5,0.8-0.8c0.4-0.4,0.4-1,0-1.4C60.9,75.7,60.4,75.8,60,76.2z"/>
<path fill="#F26522" d="M80.6,45.8l0.3-1c0.2-0.5-0.1-1.1-0.6-1.3c-0.5-0.2-1.1,0.1-1.3,0.6l-0.3,1c-0.2,0.5,0.1,1.1,0.6,1.3
	c0.1,0,0.2,0.1,0.3,0.1C80.1,46.5,80.5,46.2,80.6,45.8z"/>
<path fill="#F26522" d="M81,41.2h0.3c0.4,0,0.8-0.3,1-0.7l0.1-0.5c0.2-0.5-0.1-1.1-0.7-1.2c-0.5-0.2-1.1,0.1-1.2,0.7L80.4,40
	C80.2,40.5,80.5,41.1,81,41.2L81,41.2z"/>
<path fill="#F26522" d="M86.8,94.3l-0.5-0.1c-0.5-0.1-1.1,0.2-1.2,0.7c-0.1,0.5,0.2,1.1,0.7,1.2l0.5,0.1h0.3c0.4,0,0.8-0.3,1-0.7
	C87.7,95,87.4,94.4,86.8,94.3L86.8,94.3z"/>
<path fill="#F26522" d="M78.4,91.6c-0.3-0.1-0.6-0.2-0.9-0.3c-0.5-0.2-1.1,0.1-1.3,0.6c-0.2,0.5,0.1,1.1,0.6,1.3
	c0.3,0.1,0.6,0.2,0.9,0.3c0.1,0,0.2,0.1,0.3,0.1c0.4,0,0.8-0.3,0.9-0.7C79.1,92.4,78.9,91.8,78.4,91.6z"/>
<path fill="#F26522" d="M82.8,93.1l-0.9-0.3c-0.5-0.2-1.1,0.1-1.3,0.6s0.1,1.1,0.6,1.3l0.9,0.3h0.3c0.4,0,0.8-0.3,1-0.7
	C83.6,93.8,83.3,93.3,82.8,93.1L82.8,93.1z"/>
<path fill="#F26522" d="M44,67c-0.3-0.4-1-0.5-1.4-0.1c-0.4,0.3-0.5,1-0.1,1.4c0.2,0.2,0.4,0.5,0.6,0.7c0.2,0.2,0.5,0.4,0.8,0.4
	c0.2,0,0.5-0.1,0.6-0.2c0.4-0.4,0.5-1,0.1-1.4L44,67z"/>
<path fill="#F26522" d="M46.9,72.9c0.2,0,0.5-0.1,0.7-0.3c0.4-0.4,0.4-1,0.1-1.4l-0.6-0.7c-0.4-0.4-1-0.4-1.4-0.1
	c-0.4,0.4-0.4,1-0.1,1.4l0.6,0.7C46.4,72.8,46.6,72.9,46.9,72.9z"/>
<path fill="#F26522" d="M38.4,59.5c-0.3-0.5-0.9-0.6-1.4-0.3c-0.5,0.3-0.6,0.9-0.3,1.4l0.5,0.8c0.2,0.3,0.5,0.4,0.8,0.4
	c0.2,0,0.4-0.1,0.6-0.2c0.5-0.3,0.6-0.9,0.3-1.4L38.4,59.5z"/>
<path fill="#F26522" d="M29.4,44.2L29,43.4c-0.3-0.5-0.9-0.7-1.3-0.4c-0.5,0.3-0.7,0.9-0.4,1.3l0.4,0.8c0.2,0.3,0.5,0.5,0.9,0.5
	c0.2,0,0.3,0,0.5-0.1C29.5,45.3,29.6,44.7,29.4,44.2z"/>
<path fill="#F26522" d="M41.7,64.1l-0.6-0.7c-0.3-0.4-1-0.5-1.4-0.2c-0.4,0.3-0.5,1-0.2,1.4l0.6,0.8c0.2,0.3,0.5,0.4,0.8,0.4
	c0.2,0,0.4-0.1,0.6-0.2C41.9,65.2,42,64.5,41.7,64.1L41.7,64.1z"/>
<path fill="#F26522" d="M31.6,48.3l-0.5-0.8c-0.3-0.5-0.9-0.7-1.4-0.4c-0.5,0.3-0.7,0.9-0.4,1.4l0.5,0.8c0.2,0.3,0.5,0.5,0.9,0.5
	c0.2,0,0.3,0,0.5-0.1C31.7,49.4,31.9,48.8,31.6,48.3L31.6,48.3z"/>
<path fill="#F26522" d="M36.4,56.4l-0.5-0.8c-0.3-0.5-0.9-0.6-1.4-0.3s-0.6,0.9-0.3,1.4l0.5,0.8c0.2,0.3,0.5,0.5,0.8,0.5
	c0.2,0,0.4-0.1,0.5-0.2C36.5,57.5,36.7,56.9,36.4,56.4L36.4,56.4z"/>
<path fill="#F26522" d="M31.7,52.6l0.5,0.8c0.2,0.3,0.5,0.5,0.9,0.5c0.2,0,0.3,0,0.5-0.1c0.5-0.3,0.6-0.9,0.3-1.4l-0.5-0.8
	c-0.3-0.5-0.9-0.6-1.4-0.4C31.6,51.5,31.5,52.1,31.7,52.6z"/>
<path fill="#F26522" d="M74,89.9c-0.3-0.1-0.6-0.2-0.9-0.4c-0.5-0.2-1.1,0-1.3,0.5s0,1.1,0.5,1.3c0.3,0.1,0.6,0.3,0.9,0.4
	c0.1,0.1,0.3,0.1,0.4,0.1c0.4,0,0.8-0.2,0.9-0.6C74.8,90.7,74.5,90.1,74,89.9z"/>
<path fill="#F26522" d="M50.9,74.6c-0.2-0.2-0.4-0.4-0.7-0.7c-0.4-0.4-1-0.4-1.4,0c-0.4,0.4-0.4,1,0,1.4c0.2,0.2,0.5,0.4,0.7,0.7
	c0.2,0.2,0.4,0.3,0.7,0.3c0.3,0,0.5-0.1,0.7-0.3C51.3,75.6,51.3,75,50.9,74.6z"/>
<path fill="#F26522" d="M56.7,83.3c-1.2,0-2.1-1-2.1-2.1c0-1.2,1-2.1,2.1-2.1c1.2,0,2.1,1,2.1,2.1C58.9,82.4,57.9,83.3,56.7,83.3z
	 M60.9,82.8c-0.2-0.2-0.5-0.2-0.8-0.2c0.2-0.4,0.3-0.9,0.3-1.5c0-2.1-1.7-3.7-3.7-3.7c-0.8,0-1.5,0.3-2.1,0.7
	c-0.1-0.2-0.1-0.3-0.3-0.4c-0.2-0.2-0.5-0.4-0.7-0.6c-0.4-0.4-1-0.3-1.4,0.1c-0.4,0.4-0.3,1,0.1,1.4c0.2,0.2,0.5,0.4,0.7,0.6
	c0.1,0.1,0.3,0.2,0.5,0.2c-0.3,0.5-0.5,1.1-0.5,1.8c0,2.1,1.7,3.7,3.7,3.7c1,0,2-0.4,2.6-1.1c0,0.3,0.2,0.5,0.4,0.6
	c0.3,0.2,0.5,0.4,0.8,0.5c0.2,0.1,0.4,0.2,0.6,0.2c0.3,0,0.6-0.2,0.8-0.4c0.3-0.5,0.2-1.1-0.3-1.4C61.4,83.2,61.2,83,60.9,82.8
	L60.9,82.8z"/>
<path fill="#F26522" d="M65.6,85.8l-0.8-0.5c-0.5-0.3-1.1-0.1-1.4,0.3c-0.3,0.5-0.1,1.1,0.3,1.4c0.3,0.2,0.5,0.3,0.8,0.5
	c0.2,0.1,0.3,0.1,0.5,0.1c0.3,0,0.7-0.2,0.9-0.5C66.3,86.7,66.1,86.1,65.6,85.8L65.6,85.8z"/>
<path fill="#F26522" d="M69.8,88c-0.3-0.1-0.6-0.3-0.8-0.4c-0.5-0.3-1.1-0.1-1.3,0.4c-0.3,0.5-0.1,1.1,0.4,1.3
	c0.3,0.1,0.6,0.3,0.9,0.4c0.1,0.1,0.3,0.1,0.4,0.1c0.4,0,0.7-0.2,0.9-0.6C70.4,88.8,70.3,88.2,69.8,88L69.8,88z"/>
<path fill="#F26522" d="M27.2,40L27,39.6c-0.2-0.5-0.8-0.7-1.3-0.5c-0.5,0.2-0.7,0.8-0.5,1.3l0.2,0.5c0.2,0.4,0.5,0.6,0.9,0.6
	c0.1,0,0.3,0,0.4-0.1C27.3,41.1,27.5,40.5,27.2,40L27.2,40z"/>
<path fill="#F26522" d="M98.2,90.6c-0.3-0.1-0.6-0.2-0.9-0.3c-0.5-0.2-1.1,0.1-1.3,0.6s0.1,1.1,0.6,1.3c0.3,0.1,0.6,0.2,0.9,0.3
	c0.1,0,0.2,0.1,0.3,0.1c0.4,0,0.8-0.3,0.9-0.7C99,91.4,98.8,90.8,98.2,90.6z"/>
<path fill="#F26522" d="M51.6,51.6l0.5,0.8c0.2,0.3,0.5,0.5,0.9,0.5c0.2,0,0.3,0,0.5-0.1c0.5-0.3,0.6-0.9,0.3-1.4l-0.5-0.8
	c-0.3-0.5-0.9-0.6-1.4-0.4C51.5,50.5,51.4,51.1,51.6,51.6z"/>
<path fill="#F26522" d="M54.1,55.6l0.5,0.8c0.2,0.3,0.5,0.5,0.8,0.5c0.2,0,0.4-0.1,0.5-0.2c0.5-0.3,0.6-0.9,0.3-1.4l-0.5-0.8
	c-0.3-0.5-0.9-0.6-1.4-0.3C53.9,54.5,53.8,55.1,54.1,55.6z"/>
<path fill="#F26522" d="M47.1,43.3l0.4,0.8c0.2,0.3,0.5,0.5,0.9,0.5c0.2,0,0.3,0,0.5-0.1c0.5-0.3,0.7-0.9,0.4-1.3l-0.4-0.8
	c-0.3-0.5-0.9-0.7-1.3-0.4C47,42.2,46.8,42.8,47.1,43.3z"/>
<path fill="#F26522" d="M57.2,60.5c0.2,0.3,0.5,0.4,0.8,0.4c0.2,0,0.4-0.1,0.6-0.2c0.5-0.3,0.6-0.9,0.3-1.4l-0.5-0.8
	c-0.3-0.5-0.9-0.6-1.4-0.3c-0.5,0.3-0.6,0.9-0.3,1.4L57.2,60.5z"/>
<path fill="#F26522" d="M49.3,47.4l0.5,0.8c0.2,0.3,0.5,0.5,0.9,0.5c0.2,0,0.3,0,0.5-0.1c0.5-0.3,0.7-0.9,0.4-1.4l-0.5-0.8
	c-0.3-0.5-0.9-0.7-1.4-0.4C49.2,46.3,49,47,49.3,47.4z"/>
<path fill="#F26522" d="M60,64.3c0.2,0.3,0.5,0.4,0.8,0.4c0.2,0,0.4-0.1,0.6-0.2c0.4-0.3,0.5-1,0.2-1.4L61,62.4
	c-0.3-0.4-1-0.5-1.4-0.2c-0.4,0.3-0.5,1-0.2,1.4L60,64.3z"/>
<path fill="#F26522" d="M82,83.7c0.3-0.5,0.2-1.1-0.3-1.4c-0.3-0.2-0.5-0.3-0.8-0.5c-0.5-0.3-1.1-0.2-1.4,0.3
	c-0.3,0.5-0.2,1.1,0.3,1.4c0.3,0.2,0.5,0.4,0.8,0.5c0.2,0.1,0.4,0.2,0.6,0.2C81.4,84.2,81.8,84,82,83.7z"/>
<path fill="#F26522" d="M89.7,87c-0.3-0.1-0.6-0.3-0.8-0.4c-0.5-0.3-1.1-0.1-1.3,0.4c-0.3,0.5-0.1,1.1,0.4,1.3
	c0.3,0.1,0.6,0.3,0.9,0.4c0.1,0.1,0.3,0.1,0.4,0.1c0.4,0,0.7-0.2,0.9-0.6C90.4,87.8,90.2,87.2,89.7,87L89.7,87z"/>
<path fill="#F26522" d="M86,86.1c0.3-0.5,0.1-1.1-0.4-1.4l-0.8-0.5c-0.5-0.3-1.1-0.1-1.4,0.3c-0.3,0.5-0.1,1.1,0.3,1.4
	c0.3,0.2,0.5,0.3,0.8,0.5c0.2,0.1,0.3,0.1,0.5,0.1C85.5,86.6,85.8,86.5,86,86.1z"/>
<path fill="#F26522" d="M93.9,88.9c-0.3-0.1-0.6-0.2-0.9-0.4c-0.5-0.2-1.1,0-1.3,0.5s0,1.1,0.5,1.3c0.3,0.1,0.6,0.3,0.9,0.4
	c0.1,0.1,0.3,0.1,0.4,0.1c0.4,0,0.8-0.2,0.9-0.6C94.7,89.7,94.4,89.1,93.9,88.9z"/>
<path fill="#F26522" d="M73.6,76.1c-0.4-0.4-1-0.3-1.4,0.1c-0.4,0.4-0.3,1,0.1,1.4c0.2,0.2,0.5,0.4,0.7,0.6c0.2,0.2,0.4,0.2,0.7,0.2
	c0.3,0,0.6-0.1,0.8-0.3c0.4-0.4,0.3-1-0.1-1.4C74.1,76.5,73.8,76.3,73.6,76.1z"/>
<path fill="#F26522" d="M70.1,72.9c-0.4-0.4-1-0.4-1.4,0c-0.4,0.4-0.4,1,0,1.4c0.2,0.2,0.5,0.4,0.7,0.7c0.2,0.2,0.4,0.3,0.7,0.3
	c0.3,0,0.5-0.1,0.7-0.3c0.4-0.4,0.4-1,0-1.4C70.6,73.4,70.3,73.2,70.1,72.9L70.1,72.9z"/>
<path fill="#F26522" d="M63.7,68.4c0.2,0,0.5-0.1,0.6-0.2c0.4-0.4,0.5-1,0.1-1.4l-0.6-0.7c-0.3-0.4-1-0.5-1.4-0.1
	c-0.4,0.3-0.5,1-0.1,1.4c0.2,0.2,0.4,0.5,0.6,0.7C63.1,68.3,63.4,68.4,63.7,68.4z"/>
<path fill="#F26522" d="M67.7,70.5l0.3-0.3c0.2-0.3,0.4-0.6,0.7-0.9c0.3-0.4,0.2-1.1-0.2-1.4c-0.4-0.3-1.1-0.2-1.4,0.2
	c-0.2,0.3-0.4,0.6-0.6,0.9c-0.1,0.1-0.1,0.2-0.1,0.2c-0.3-0.1-0.6,0-0.8,0.2c-0.4,0.4-0.4,1-0.1,1.4l0.6,0.7
	c0.2,0.2,0.5,0.3,0.7,0.3c0.2,0,0.5-0.1,0.7-0.3C67.8,71.4,67.9,70.9,67.7,70.5z"/>
<path fill="#F26522" d="M46.3,40.4c0.1,0,0.3,0,0.4-0.1c0.5-0.2,0.7-0.8,0.4-1.3l-0.2-0.4c-0.2-0.5-0.8-0.7-1.3-0.5
	c-0.5,0.2-0.7,0.8-0.5,1.3l0.2,0.5C45.5,40.2,45.9,40.4,46.3,40.4L46.3,40.4z"/>
<path fill="#F26522" d="M77.2,81.4c0.3,0,0.7-0.2,0.9-0.5c0.3-0.5,0.1-1.1-0.4-1.4L76.9,79c-0.5-0.3-1.1-0.1-1.4,0.3
	c-0.3,0.5-0.1,1.1,0.3,1.4c0.3,0.2,0.5,0.3,0.8,0.5C76.9,81.4,77.1,81.4,77.2,81.4z"/>
<path fill="#F7941E" d="M154.3,100c-1.1,0.3-2.3-0.4-2.6-1.5c-0.3-1.1,0.4-2.3,1.5-2.6c1.1-0.3,2.3,0.4,2.6,1.5
	C156.1,98.5,155.4,99.7,154.3,100z M152.8,94.3c-2,0.5-3.2,2.6-2.7,4.5c0.5,1.9,2.6,3.2,4.5,2.7c1.9-0.5,3.2-2.6,2.7-4.5
	C156.8,95,154.8,93.8,152.8,94.3z"/>
<path fill="#F7941E" d="M215,42.4l-0.1-3.7c0-0.5-0.6-0.8-1.1-0.6l-6.2,4c-0.4,0.3-0.4,0.9,0,1.2l6.6,3.4c0.5,0.2,1-0.1,1-0.6
	L215,42.4z"/>
<path fill="#F7941E" d="M174.5,61.7c-0.2-0.3-0.5-0.4-0.9-0.4c-0.3,0-0.6,0.2-0.8,0.5l-0.1,0.2c-0.3,0.5-0.1,1.1,0.4,1.4
	c0.1,0,0.2,0.1,0.2,0.1c0.2,0.3,0.5,0.4,0.8,0.4c0.2,0,0.4-0.1,0.6-0.2c0.4-0.3,0.5-1,0.2-1.4L174.5,61.7z"/>
<path fill="#F7941E" d="M172.1,65.1c-0.5-0.3-1.1-0.1-1.4,0.4l-0.5,0.9c-0.3,0.5-0.1,1.1,0.4,1.4c0.2,0.1,0.3,0.1,0.5,0.1
	c0.4,0,0.7-0.2,0.9-0.5l0.5-0.9C172.6,66,172.6,65.4,172.1,65.1z"/>
<path fill="#F7941E" d="M180.2,69.5c-0.3-0.4-1-0.5-1.4-0.2c-0.4,0.3-0.5,1-0.2,1.4l0.6,0.8c0.2,0.3,0.5,0.4,0.8,0.4
	c0.2,0,0.4-0.1,0.6-0.2c0.4-0.3,0.5-1,0.2-1.4L180.2,69.5z"/>
<path fill="#F7941E" d="M177.3,65.5c-0.3-0.4-1-0.5-1.4-0.2c-0.4,0.3-0.5,1-0.2,1.4l0.6,0.8c0.2,0.3,0.5,0.4,0.8,0.4
	c0.2,0,0.4-0.1,0.6-0.2c0.4-0.3,0.5-1,0.2-1.4L177.3,65.5z"/>
<path fill="#F7941E" d="M169.5,69.5c-0.5-0.3-1.1-0.1-1.4,0.4l-0.5,0.9c-0.3,0.5-0.1,1.1,0.4,1.4c0.2,0.1,0.3,0.1,0.5,0.1
	c0.4,0,0.7-0.2,0.9-0.5l0.5-0.9C170.2,70.3,170,69.7,169.5,69.5z"/>
<path fill="#F7941E" d="M164.7,78.2c-0.5-0.3-1.1-0.1-1.4,0.4l-0.5,0.9c-0.3,0.5-0.1,1.1,0.4,1.4c0.2,0.1,0.3,0.1,0.5,0.1
	c0.4,0,0.7-0.2,0.9-0.5l0.5-0.9C165.3,79.1,165.1,78.5,164.7,78.2z"/>
<path fill="#F7941E" d="M162.2,82.6c-0.5-0.3-1.1-0.1-1.4,0.4l-0.5,0.9c-0.3,0.5-0.1,1.1,0.4,1.4c0.2,0.1,0.3,0.1,0.5,0.1
	c0.4,0,0.7-0.2,0.9-0.5l0.5-0.9C162.9,83.4,162.7,82.8,162.2,82.6z"/>
<path fill="#F7941E" d="M167.1,73.8c-0.5-0.3-1.1-0.1-1.4,0.4l-0.5,0.9c-0.3,0.5-0.1,1.1,0.4,1.4c0.2,0.1,0.3,0.1,0.5,0.1
	c0.4,0,0.7-0.2,0.9-0.5l0.5-0.9C167.7,74.7,167.6,74.1,167.1,73.8z"/>
<path fill="#F7941E" d="M159.8,86.9c-0.5-0.3-1.1-0.1-1.4,0.4l-0.5,0.9c-0.3,0.5-0.1,1.1,0.4,1.4c0.2,0.1,0.3,0.1,0.5,0.1
	c0.4,0,0.7-0.2,0.9-0.5l0.5-0.9C160.4,87.8,160.3,87.2,159.8,86.9L159.8,86.9z"/>
<path fill="#F7941E" d="M183.2,73.6c-0.3-0.4-1-0.5-1.4-0.2c-0.4,0.3-0.5,1-0.2,1.4l0.6,0.8c0.2,0.3,0.5,0.4,0.8,0.4
	c0.2,0,0.4-0.1,0.6-0.2c0.4-0.3,0.5-1,0.2-1.4L183.2,73.6z"/>
<path fill="#F7941E" d="M157.3,91.3c-0.5-0.3-1.1-0.1-1.4,0.4l-0.5,0.9c-0.3,0.5-0.1,1.1,0.4,1.4c0.2,0.1,0.3,0.1,0.5,0.1
	c0.4,0,0.7-0.2,0.9-0.5l0.5-0.9C158,92.2,157.8,91.6,157.3,91.3L157.3,91.3z"/>
<path fill="#F7941E" d="M204.8,55.1c-0.5-0.3-1.1-0.1-1.4,0.3l-0.5,0.9c-0.3,0.5-0.1,1.1,0.3,1.4c0.2,0.1,0.3,0.1,0.5,0.1
	c0.3,0,0.7-0.2,0.9-0.5l0.5-0.9C205.4,56.1,205.3,55.4,204.8,55.1L204.8,55.1z"/>
<path fill="#F7941E" d="M202.2,59.5c-0.5-0.3-1.1-0.1-1.4,0.3l-0.5,0.9c-0.3,0.5-0.1,1.1,0.3,1.4c0.2,0.1,0.3,0.1,0.5,0.1
	c0.3,0,0.7-0.2,0.9-0.5l0.5-0.9C202.9,60.4,202.7,59.8,202.2,59.5L202.2,59.5z"/>
<path fill="#F7941E" d="M207.4,50.8c-0.5-0.3-1.1-0.1-1.4,0.3l-0.5,0.9c-0.3,0.5-0.1,1.1,0.3,1.4c0.2,0.1,0.3,0.1,0.5,0.1
	c0.3,0,0.7-0.2,0.9-0.5l0.5-0.9C208,51.7,207.9,51.1,207.4,50.8L207.4,50.8z"/>
<path fill="#F7941E" d="M210,46.5c-0.5-0.3-1.1-0.1-1.4,0.3l-0.5,0.9c-0.3,0.5-0.1,1.1,0.3,1.4c0.2,0.1,0.3,0.1,0.5,0.1
	c0.3,0,0.7-0.2,0.9-0.5l0.5-0.9C210.6,47.4,210.4,46.8,210,46.5L210,46.5z"/>
<path fill="#F7941E" d="M199.7,63.8c-0.5-0.3-1.1-0.1-1.4,0.3l-0.5,0.9c-0.3,0.5-0.1,1.1,0.3,1.4c0.2,0.1,0.3,0.1,0.5,0.1
	c0.3,0,0.7-0.2,0.9-0.5l0.5-0.9C200.3,64.7,200.1,64,199.7,63.8L199.7,63.8z"/>
<path fill="#F7941E" d="M197.1,68c-0.5-0.3-1.1-0.1-1.4,0.3l-0.5,0.9c-0.3,0.5-0.1,1.1,0.3,1.4c0.2,0.1,0.3,0.1,0.5,0.1
	c0.3,0,0.7-0.2,0.9-0.5l0.5-0.9C197.7,68.9,197.6,68.3,197.1,68L197.1,68z"/>
<path fill="#F7941E" d="M191.9,76.6c-0.5-0.3-1.1-0.1-1.4,0.3l-0.5,0.9c-0.3,0.5-0.1,1.1,0.3,1.4c0.2,0.1,0.3,0.1,0.5,0.1
	c0.3,0,0.7-0.2,0.9-0.5l0.5-0.9C192.6,77.5,192.4,76.9,191.9,76.6L191.9,76.6z"/>
<path fill="#F7941E" d="M189.4,80.9c-0.5-0.3-1.1-0.1-1.4,0.3c-0.1,0-0.2,0.1-0.2,0.1c-0.4,0.3-0.5,1-0.2,1.4l0.1,0.2
	c0.2,0.3,0.5,0.4,0.8,0.4c0.3,0,0.6-0.2,0.8-0.5l0.4-0.6C190,81.8,189.8,81.2,189.4,80.9L189.4,80.9z"/>
<path fill="#F7941E" d="M186.2,77.6c-0.3-0.4-1-0.5-1.4-0.2c-0.4,0.3-0.5,1-0.2,1.4l0.6,0.8c0.2,0.3,0.5,0.4,0.8,0.4
	c0.2,0,0.4-0.1,0.6-0.2c0.4-0.3,0.5-1,0.2-1.4L186.2,77.6z"/>
<path fill="#F7941E" d="M194.5,72.3c-0.5-0.3-1.1-0.1-1.4,0.3l-0.5,0.9c-0.3,0.5-0.1,1.1,0.3,1.4c0.2,0.1,0.3,0.1,0.5,0.1
	c0.3,0,0.7-0.2,0.9-0.5l0.5-0.9C195.1,73.2,195,72.6,194.5,72.3L194.5,72.3z"/>
<path fill="#F7941E" d="M272.1,99.4c-1.1,0.4-2.3-0.2-2.7-1.3c-0.4-1.1,0.2-2.3,1.3-2.7c1.1-0.4,2.3,0.2,2.7,1.3
	C273.8,97.8,273.3,99,272.1,99.4z M270.3,93.8c-1.9,0.7-3,2.8-2.3,4.7c0.7,1.9,2.8,3,4.7,2.3c1.9-0.7,3-2.8,2.3-4.7
	C274.3,94.2,272.2,93.2,270.3,93.8z"/>
<path fill="#F7941E" d="M281.1,76.4c-0.5-0.2-1.1,0-1.3,0.5l-0.4,0.9c-0.2,0.5,0,1.1,0.5,1.3c0.1,0.1,0.3,0.1,0.4,0.1
	c0.4,0,0.7-0.2,0.9-0.6l0.4-0.9C281.8,77.2,281.6,76.6,281.1,76.4z"/>
<path fill="#F7941E" d="M284.8,74.9h-1c-0.6,0-1,0.5-1,1c0,0.5,0.5,1,1,1h1c0.6,0,1-0.5,1-1C285.8,75.3,285.4,74.9,284.8,74.9z"/>
<path fill="#F7941E" d="M289.8,74.7h-1c-0.6,0-1,0.5-1,1c0,0.5,0.5,1,1,1h1c0.6,0,1-0.5,1-1C290.8,75.2,290.3,74.7,289.8,74.7z"/>
<path fill="#F7941E" d="M294.8,74.5h-1c-0.6,0-1,0.5-1,1c0,0.5,0.5,1,1,1h1c0.6,0,1-0.5,1-1S295.3,74.5,294.8,74.5z"/>
<path fill="#F7941E" d="M299.8,74.3h-1c-0.6,0-1,0.5-1,1c0,0.5,0.5,1,1,1h1c0.6,0,1-0.5,1-1C300.8,74.8,300.3,74.3,299.8,74.3z"/>
<path fill="#F7941E" d="M274.7,90c-0.5-0.2-1.1,0-1.3,0.5l-0.4,0.9c-0.2,0.5,0,1.1,0.5,1.3c0.1,0.1,0.3,0.1,0.4,0.1
	c0.4,0,0.7-0.2,0.9-0.6l0.4-0.9C275.4,90.8,275.2,90.2,274.7,90z"/>
<path fill="#F7941E" d="M276.8,85.4c-0.5-0.2-1.1,0-1.3,0.5l-0.4,0.9c-0.2,0.5,0,1.1,0.5,1.3c0.1,0.1,0.3,0.1,0.4,0.1
	c0.4,0,0.7-0.2,0.9-0.6l0.4-0.9C277.5,86.3,277.3,85.7,276.8,85.4z"/>
<path fill="#F7941E" d="M279,80.9c-0.5-0.2-1.1,0-1.3,0.5l-0.4,0.9c-0.2,0.5,0,1.1,0.5,1.3c0.1,0.1,0.3,0.1,0.4,0.1
	c0.4,0,0.7-0.2,0.9-0.6l0.4-0.9C279.7,81.8,279.5,81.2,279,80.9z"/>
<path fill="#F7941E" d="M331.5,46.9c-0.5-0.2-1.1,0-1.3,0.5l-0.4,0.9c-0.2,0.5,0,1.1,0.5,1.3c0.1,0.1,0.3,0.1,0.4,0.1
	c0.4,0,0.7-0.2,0.9-0.6l0.4-0.9C332.2,47.7,332,47.1,331.5,46.9z"/>
<path fill="#F7941E" d="M319.8,61.9l-1,0.2c-0.5,0.1-0.9,0.7-0.8,1.2c0.1,0.5,0.5,0.8,1,0.8h0.2l1-0.2c0.5-0.1,0.9-0.7,0.8-1.2
	C320.8,62.1,320.3,61.7,319.8,61.9z"/>
<path fill="#F7941E" d="M327.2,55.9c-0.5-0.2-1.1,0-1.3,0.5l-0.4,0.9c-0.2,0.5,0,1.1,0.5,1.3c0.1,0.1,0.3,0.1,0.4,0.1
	c0.4,0,0.7-0.2,0.9-0.6l0.4-0.9C327.9,56.7,327.7,56.1,327.2,55.9z"/>
<path fill="#F7941E" d="M325,60.5c-0.5-0.2-1.1,0-1.3,0.5v0.1c-0.5,0.1-0.8,0.7-0.7,1.2c0.1,0.5,0.5,0.8,1,0.8h0.2l0.4-0.1
	c0.3-0.1,0.6-0.3,0.7-0.5l0.2-0.5C325.7,61.3,325.5,60.7,325,60.5L325,60.5z"/>
<path fill="#F7941E" d="M302.4,71.1l-0.6,0.8c-0.4,0.4-0.3,1.1,0.1,1.4c0.2,0.2,0.4,0.2,0.6,0.2c0.3,0,0.6-0.1,0.8-0.4l0.6-0.8
	c0.4-0.4,0.3-1.1-0.1-1.4C303.3,70.6,302.7,70.6,302.4,71.1L302.4,71.1z"/>
<path fill="#F7941E" d="M329.4,51.4c-0.5-0.2-1.1,0-1.3,0.5l-0.4,0.9c-0.2,0.5,0,1.1,0.5,1.3c0.1,0.1,0.3,0.1,0.4,0.1
	c0.4,0,0.7-0.2,0.9-0.6l0.4-0.9C330.1,52.2,329.9,51.6,329.4,51.4z"/>
<path fill="#F7941E" d="M305.5,67.2l-0.6,0.8c-0.4,0.4-0.3,1.1,0.1,1.4c0.2,0.2,0.4,0.2,0.6,0.2c0.3,0,0.6-0.1,0.8-0.4l0.6-0.8
	c0.4-0.4,0.3-1.1-0.1-1.4C306.5,66.7,305.9,66.8,305.5,67.2L305.5,67.2z"/>
<path fill="#F7941E" d="M314.8,62.9l-1,0.2c-0.5,0.1-0.9,0.7-0.8,1.2c0.1,0.5,0.5,0.8,1,0.8h0.2l1-0.2c0.5-0.1,0.9-0.7,0.8-1.2
	C315.9,63.2,315.3,62.8,314.8,62.9z"/>
<path fill="#F7941E" d="M309.9,64l-1,0.2c-0.5,0.1-0.9,0.7-0.8,1.2c0.1,0.5,0.5,0.8,1,0.8h0.2l1-0.2c0.5-0.1,0.9-0.7,0.8-1.2
	C311,64.3,310.4,63.9,309.9,64z"/>
<path fill="#F7941E" d="M337.3,40.7c-0.2-0.5-0.7-0.7-1-0.6l-2.9,1.3l-1.6-2.9c-0.2-0.3-0.7-0.4-1.2-0.2c-0.5,0.2-0.7,0.7-0.5,1.1
	l1.5,2.7l-2.8,1.3c-0.3,0.2-0.4,0.7-0.2,1.1c0.2,0.5,0.7,0.7,1,0.6l2.9-1.3l1.6,2.9c0.2,0.3,0.7,0.4,1.2,0.2
	c0.5-0.2,0.7-0.7,0.5-1.1l-1.5-2.7l2.8-1.3C337.4,41.7,337.5,41.2,337.3,40.7z"/>
<path fill="#F7941E" d="M450,59.6c0.1,0.3,0.2,0.6,0.3,0.9c0.1,0.4,0.5,0.7,1,0.7h0.3c0.5-0.1,0.9-0.7,0.7-1.2
	c-0.1-0.3-0.2-0.7-0.3-1c-0.2-0.5-0.7-0.8-1.2-0.7C450.2,58.5,449.9,59.1,450,59.6L450,59.6z"/>
<path fill="#F7941E" d="M403.9,43.9c-0.3-0.4-1-0.5-1.4-0.1c-0.3,0.2-0.5,0.4-0.8,0.7c-0.4,0.4-0.5,1-0.1,1.4
	c0.2,0.2,0.5,0.3,0.8,0.3c0.2,0,0.5-0.1,0.7-0.2c0.2-0.2,0.5-0.4,0.7-0.6C404.2,44.9,404.3,44.3,403.9,43.9L403.9,43.9z"/>
<path fill="#F7941E" d="M392.5,73.2c0.5-0.1,0.9-0.6,0.8-1.1c0-0.3-0.1-0.6-0.1-1c-0.1-0.5-0.6-0.9-1.1-0.9
	c-0.5,0.1-0.9,0.6-0.9,1.1c0,0.3,0.1,0.7,0.1,1c0.1,0.5,0.5,0.9,1,0.9H392.5z"/>
<path fill="#F7941E" d="M394.5,76.8c-0.1-0.3-0.2-0.6-0.3-0.9c-0.2-0.5-0.7-0.8-1.2-0.7c-0.5,0.2-0.8,0.7-0.7,1.2
	c0.1,0.3,0.2,0.7,0.3,1c0.1,0.4,0.5,0.7,1,0.7h0.3C394.4,77.9,394.6,77.3,394.5,76.8L394.5,76.8z"/>
<path fill="#F7941E" d="M412.7,39.3c-0.2-0.5-0.8-0.8-1.3-0.6c-0.3,0.1-0.6,0.2-1,0.4c-0.5,0.2-0.8,0.8-0.6,1.3
	c0.2,0.4,0.5,0.6,0.9,0.6c0.1,0,0.3,0,0.4-0.1c0.3-0.1,0.6-0.2,0.9-0.3C412.7,40.3,412.9,39.8,412.7,39.3z"/>
<path fill="#F7941E" d="M405.1,91.4c-0.4-0.3-1.1-0.2-1.4,0.2c-0.3,0.4-0.2,1.1,0.2,1.4c0.3,0.2,0.6,0.4,0.8,0.6
	c0.2,0.1,0.4,0.2,0.6,0.2c0.3,0,0.6-0.2,0.8-0.4c0.3-0.5,0.2-1.1-0.3-1.4C405.6,91.8,405.3,91.6,405.1,91.4z"/>
<path fill="#F7941E" d="M410.1,94.3c-0.3-0.1-0.6-0.3-0.9-0.4c-0.5-0.2-1.1,0-1.3,0.5c-0.2,0.5,0,1.1,0.5,1.3
	c0.3,0.2,0.6,0.3,0.9,0.4c0.1,0.1,0.3,0.1,0.4,0.1c0.4,0,0.7-0.2,0.9-0.6C410.8,95.1,410.6,94.6,410.1,94.3z"/>
<path fill="#F7941E" d="M408.1,41.2c-0.3-0.5-0.9-0.6-1.4-0.4c-0.3,0.2-0.6,0.3-0.9,0.5c-0.5,0.3-0.6,0.9-0.3,1.4
	c0.2,0.3,0.5,0.5,0.9,0.5c0.2,0,0.4,0,0.5-0.1c0.3-0.2,0.5-0.3,0.8-0.5C408.2,42.3,408.4,41.7,408.1,41.2z"/>
<path fill="#F7941E" d="M396.3,81.2c-0.1-0.3-0.3-0.6-0.4-0.9c-0.2-0.5-0.8-0.7-1.3-0.5c-0.5,0.2-0.7,0.8-0.5,1.3
	c0.1,0.3,0.3,0.6,0.5,0.9c0.2,0.3,0.5,0.5,0.9,0.5c0.2,0,0.3,0,0.5-0.1C396.4,82.3,396.6,81.7,396.3,81.2L396.3,81.2z"/>
<path fill="#F7941E" d="M395.6,53.7c0.2,0.1,0.3,0.1,0.5,0.1c0.3,0,0.7-0.2,0.9-0.5c0.2-0.3,0.3-0.6,0.5-0.8
	c0.3-0.5,0.1-1.1-0.3-1.4c-0.5-0.3-1.1-0.1-1.4,0.3c-0.2,0.3-0.4,0.6-0.5,0.9C394.9,52.8,395.1,53.4,395.6,53.7z"/>
<path fill="#F7941E" d="M398.9,49.7c0.3,0,0.6-0.1,0.8-0.4c0.2-0.2,0.4-0.5,0.6-0.7c0.4-0.4,0.3-1-0.1-1.4c-0.4-0.4-1-0.3-1.4,0.1
	c-0.2,0.3-0.5,0.5-0.7,0.8c-0.4,0.4-0.3,1.1,0.1,1.4C398.5,49.7,398.7,49.7,398.9,49.7z"/>
<path fill="#F7941E" d="M439.7,44.7c0.2,0.1,0.4,0.2,0.6,0.2c0.3,0,0.6-0.1,0.8-0.4c0.3-0.4,0.2-1.1-0.2-1.4
	c-0.3-0.2-0.6-0.4-0.8-0.6c-0.5-0.3-1.1-0.2-1.4,0.2c-0.3,0.5-0.2,1.1,0.2,1.4C439.2,44.3,439.5,44.5,439.7,44.7L439.7,44.7z"/>
<path fill="#F7941E" d="M448.7,55.9c0.2,0.4,0.5,0.6,0.9,0.6c0.1,0,0.3,0,0.4-0.1c0.5-0.2,0.7-0.8,0.5-1.3c-0.1-0.3-0.3-0.6-0.4-0.9
	c-0.2-0.5-0.8-0.7-1.3-0.5c-0.5,0.2-0.7,0.8-0.5,1.3C448.4,55.3,448.5,55.6,448.7,55.9z"/>
<path fill="#F7941E" d="M393.6,58.4c0.1,0,0.2,0.1,0.3,0.1c0.4,0,0.8-0.2,0.9-0.7c0.1-0.3,0.2-0.6,0.4-0.9c0.2-0.5,0-1.1-0.5-1.3
	c-0.5-0.2-1.1,0-1.3,0.5c-0.1,0.3-0.3,0.6-0.4,1C392.8,57.6,393.1,58.2,393.6,58.4z"/>
<path fill="#F7941E" d="M392.4,63.3h0.2c0.5,0,0.9-0.3,1-0.8c0.1-0.3,0.1-0.6,0.2-0.9c0.1-0.5-0.2-1.1-0.8-1.2
	c-0.5-0.1-1.1,0.2-1.2,0.8c-0.1,0.3-0.1,0.7-0.2,1C391.5,62.6,391.9,63.2,392.4,63.3L392.4,63.3z"/>
<path fill="#F7941E" d="M451,64.3c0,0.3,0.1,0.6,0.1,1c0,0.5,0.5,0.9,1,0.9h0.1c0.5-0.1,1-0.5,0.9-1.1c0-0.3-0.1-0.7-0.1-1
	c-0.1-0.5-0.6-0.9-1.1-0.9C451.3,63.3,450.9,63.8,451,64.3z"/>
<path fill="#F7941E" d="M392.1,68.3c0.6,0,1-0.4,1-1v-1c0-0.6-0.4-1-0.9-1.1c-0.5,0-1,0.4-1.1,0.9v1
	C391.1,67.8,391.5,68.2,392.1,68.3L392.1,68.3z"/>
<path fill="#F7941E" d="M441.7,89.4c-0.2,0.2-0.5,0.4-0.7,0.6c-0.4,0.4-0.5,1-0.1,1.4c0.2,0.2,0.5,0.4,0.8,0.4
	c0.2,0,0.5-0.1,0.6-0.2c0.3-0.2,0.5-0.5,0.8-0.7c0.4-0.4,0.4-1,0.1-1.4C442.8,89,442.1,89,441.7,89.4z"/>
<path fill="#F7941E" d="M437.9,92.3c-0.3,0.2-0.5,0.3-0.8,0.5c-0.5,0.3-0.6,0.9-0.3,1.4c0.2,0.3,0.5,0.5,0.9,0.5
	c0.2,0,0.4,0,0.5-0.1c0.3-0.2,0.6-0.4,0.9-0.5c0.5-0.3,0.6-0.9,0.3-1.4C439,92.1,438.4,92,437.9,92.3z"/>
<path fill="#F7941E" d="M433.7,94.6c-0.3,0.1-0.6,0.2-0.9,0.4c-0.5,0.2-0.8,0.8-0.6,1.3c0.2,0.4,0.5,0.6,0.9,0.6
	c0.1,0,0.2,0,0.4-0.1c0.3-0.1,0.6-0.3,1-0.4c0.5-0.2,0.7-0.8,0.5-1.3C434.7,94.6,434.2,94.4,433.7,94.6z"/>
<path fill="#F7941E" d="M449,81.4c-0.5-0.3-1.1-0.1-1.4,0.4c-0.2,0.3-0.3,0.6-0.5,0.8c-0.3,0.5-0.1,1.1,0.3,1.4
	c0.2,0.1,0.3,0.1,0.5,0.1c0.3,0,0.7-0.2,0.9-0.5c0.2-0.3,0.3-0.6,0.5-0.9C449.7,82.3,449.5,81.7,449,81.4L449,81.4z"/>
<path fill="#F7941E" d="M437,41.7c0.3-0.5,0.1-1.1-0.4-1.4c-0.3-0.2-0.6-0.3-0.9-0.5c-0.5-0.2-1.1,0-1.3,0.5c-0.2,0.5,0,1.1,0.5,1.3
	c0.3,0.1,0.6,0.3,0.9,0.4c0.1,0.1,0.3,0.1,0.5,0.1C436.5,42.2,436.8,42,437,41.7L437,41.7z"/>
<path fill="#F7941E" d="M445,85.8c-0.2,0.3-0.4,0.5-0.6,0.7c-0.4,0.4-0.3,1.1,0.1,1.4c0.2,0.2,0.4,0.2,0.6,0.2
	c0.3,0,0.6-0.1,0.8-0.4c0.2-0.3,0.4-0.5,0.7-0.8c0.3-0.4,0.3-1.1-0.2-1.4C446,85.3,445.4,85.4,445,85.8z"/>
<path fill="#F7941E" d="M450.9,76.8c-0.5-0.2-1.1,0.1-1.3,0.6c-0.1,0.3-0.2,0.6-0.3,0.9c-0.2,0.5,0.1,1.1,0.6,1.3
	c0.1,0,0.2,0.1,0.4,0.1c0.4,0,0.8-0.2,0.9-0.6c0.1-0.3,0.2-0.6,0.4-1C451.7,77.5,451.4,77,450.9,76.8z"/>
<path fill="#F7941E" d="M414.6,96c-0.3-0.1-0.6-0.2-0.9-0.3c-0.5-0.2-1.1,0.1-1.2,0.7c-0.2,0.5,0.1,1.1,0.7,1.2
	c0.3,0.1,0.7,0.2,1,0.3h0.3c0.4,0,0.8-0.3,1-0.7C415.5,96.6,415.2,96.1,414.6,96z"/>
<path fill="#F7941E" d="M452,71.9c-0.6-0.1-1.1,0.3-1.2,0.8c-0.1,0.3-0.1,0.6-0.2,1c-0.1,0.5,0.2,1.1,0.8,1.2h0.2
	c0.5,0,0.9-0.3,1-0.8c0.1-0.3,0.1-0.7,0.2-1C452.9,72.5,452.5,72,452,71.9z"/>
<path fill="#F7941E" d="M452.2,66.9c-0.6,0-1,0.4-1,1v1c0,0.6,0.4,1,1,1c0.5,0,1-0.4,1-1v-1C453.2,67.3,452.8,66.9,452.2,66.9z"/>
<path fill="#F7941E" d="M422.7,37.8c0-0.6-0.5-1-1-1h-1c-0.6,0-1,0.5-0.9,1c0,0.5,0.5,1,1,1h0.1h1C422.3,38.8,422.7,38.3,422.7,37.8
	z"/>
<path fill="#F7941E" d="M419.5,96.8c-0.3,0-0.6-0.1-1-0.1c-0.6-0.1-1,0.3-1.1,0.9c-0.1,0.5,0.3,1,0.9,1.1c0.3,0,0.7,0.1,1,0.1h0.1
	c0.5,0,0.9-0.4,1-0.9C420.3,97.3,420,96.8,419.5,96.8z"/>
<path fill="#F7941E" d="M417.6,38.1c-0.1-0.5-0.6-0.9-1.2-0.8c-0.3,0.1-0.7,0.1-1,0.2c-0.5,0.1-0.9,0.7-0.8,1.2
	c0.1,0.5,0.5,0.8,1,0.8h0.2c0.3-0.1,0.6-0.1,0.9-0.2C417.3,39.2,417.7,38.6,417.6,38.1z"/>
<path fill="#F7941E" d="M432.5,39.6c0.2-0.5-0.1-1.1-0.6-1.3c-0.3-0.1-0.7-0.2-1-0.3c-0.5-0.2-1.1,0.2-1.2,0.7
	c-0.2,0.5,0.2,1.1,0.7,1.2c0.3,0.1,0.6,0.2,0.9,0.3h0.3C431.9,40.3,432.3,40,432.5,39.6L432.5,39.6z"/>
<path fill="#F7941E" d="M426.8,37.1c-0.3-0.1-0.7-0.1-1-0.1c-0.6-0.1-1,0.3-1.1,0.9c-0.1,0.5,0.3,1,0.9,1.1c0.3,0,0.6,0.1,1,0.1h0.1
	c0.5,0,0.9-0.4,1-0.9C427.7,37.7,427.4,37.2,426.8,37.1z"/>
<path fill="#F7941E" d="M429.1,96.1c-0.3,0.1-0.6,0.1-0.9,0.2c-0.5,0.1-0.9,0.6-0.8,1.2c0.1,0.5,0.5,0.8,1,0.8h0.2
	c0.3-0.1,0.7-0.1,1-0.2c0.5-0.1,0.9-0.7,0.7-1.2C430.1,96.4,429.6,96,429.1,96.1z"/>
<path fill="#F7941E" d="M424.3,96.8c-0.3,0-0.6,0-1,0.1c-0.6,0-1,0.5-1,1c0,0.5,0.5,1,1,1c0.3,0,0.7,0,1-0.1c0.6,0,1-0.5,0.9-1.1
	C425.3,97.2,424.9,96.8,424.3,96.8L424.3,96.8z"/>
<path fill="#F7941E" d="M399.9,89.5c-1.1,0.4-2.3-0.2-2.7-1.3c-0.4-1.1,0.2-2.3,1.3-2.7c1.1-0.4,2.3,0.2,2.7,1.3
	C401.6,87.9,401,89.1,399.9,89.5z M398,84c-1.9,0.7-3,2.8-2.3,4.7c0.7,1.9,2.8,3,4.7,2.3c1.9-0.7,3-2.8,2.3-4.7
	C402.1,84.4,400,83.3,398,84z"/>
<path fill="#F7941E" d="M447.9,51.1l-1.2-7.4c-0.1-0.5-0.7-0.8-1.1-0.4l-5.8,4.6c-0.4,0.3-0.3,1,0.2,1.2l7,2.8
	C447.4,52.1,447.9,51.7,447.9,51.1L447.9,51.1z"/>
<path fill="#F7941E" d="M525.7,41.8c-14,0-25.4,11.4-25.4,25.4s11.4,25.4,25.4,25.4S551,81.1,551,67.2
	C551,53.2,539.7,41.8,525.7,41.8z M525.7,94.6c-15.1,0-27.4-12.3-27.4-27.4s12.2-27.5,27.4-27.5c15.1,0,27.4,12.3,27.4,27.4
	S540.8,94.6,525.7,94.6z"/>
<path fill="#F7941E" d="M558.3,41.8c-0.5,0-1-0.4-1-1c0-0.6,0.4-1,1-1h1c0.6,0,1,0.4,1,1c0,0.6-0.4,1-1,1H558.3z M564.3,42.2h-0.2
	c-0.3-0.1-0.6-0.1-1-0.2c-0.5-0.1-0.9-0.6-0.9-1.1c0.1-0.5,0.6-0.9,1.1-0.9c0.3,0,0.7,0.1,1,0.2c0.5,0.1,0.9,0.6,0.8,1.2
	C565.2,41.9,564.8,42.2,564.3,42.2L564.3,42.2z M553.3,42.5c-0.5,0-0.9-0.3-1-0.8s0.2-1.1,0.7-1.2c0.3-0.1,0.7-0.2,1-0.2
	c0.5-0.1,1.1,0.2,1.2,0.8c0.1,0.5-0.2,1.1-0.8,1.2c-0.3,0.1-0.6,0.1-0.9,0.2H553.3L553.3,42.5z M569.1,43.6c-0.1,0-0.2,0-0.4-0.1
	c-0.3-0.1-0.6-0.2-0.9-0.3c-0.5-0.2-0.8-0.7-0.6-1.3c0.2-0.5,0.7-0.8,1.3-0.6c0.3,0.1,0.7,0.2,1,0.4c0.5,0.2,0.8,0.8,0.6,1.3
	C569.9,43.3,569.5,43.6,569.1,43.6L569.1,43.6z M548.6,44.2c-0.4,0-0.7-0.2-0.9-0.6c-0.2-0.5,0-1.1,0.5-1.3c0.3-0.1,0.6-0.3,0.9-0.4
	c0.5-0.2,1.1,0,1.3,0.5s0,1.1-0.5,1.3c-0.3,0.1-0.6,0.3-0.9,0.4C548.9,44.1,548.8,44.2,548.6,44.2L548.6,44.2z M573.7,45.8
	c-0.2,0-0.4,0-0.5-0.2c-0.3-0.2-0.5-0.3-0.8-0.5c-0.5-0.3-0.6-0.9-0.4-1.4c0.3-0.5,0.9-0.6,1.4-0.4c0.3,0.2,0.6,0.4,0.9,0.5
	c0.5,0.3,0.6,0.9,0.3,1.4C574.3,45.6,574,45.8,573.7,45.8L573.7,45.8z M544.3,46.7c-0.3,0-0.6-0.1-0.8-0.4c-0.3-0.4-0.2-1.1,0.2-1.4
	c0.3-0.2,0.6-0.4,0.9-0.6c0.5-0.3,1.1-0.2,1.4,0.3s0.2,1.1-0.3,1.4c-0.3,0.2-0.5,0.4-0.8,0.5C544.7,46.6,544.5,46.7,544.3,46.7
	L544.3,46.7z M577.6,48.9c-0.2,0-0.5-0.1-0.7-0.3c-0.2-0.2-0.5-0.4-0.7-0.6c-0.4-0.4-0.5-1-0.1-1.4c0.4-0.4,1-0.5,1.4-0.1
	c0.3,0.2,0.5,0.5,0.8,0.7c0.4,0.4,0.4,1,0,1.4C578.2,48.7,577.9,48.9,577.6,48.9L577.6,48.9z M540.5,49.9c-0.2,0-0.5-0.1-0.7-0.3
	c-0.4-0.4-0.4-1,0-1.4c0.2-0.3,0.5-0.5,0.7-0.7c0.4-0.4,1-0.4,1.4,0c0.4,0.4,0.4,1,0,1.4l-0.7,0.7C541,49.8,540.8,49.9,540.5,49.9
	L540.5,49.9z M581,52.6c-0.3,0-0.6-0.1-0.8-0.4s-0.4-0.5-0.6-0.8c-0.3-0.4-0.3-1.1,0.2-1.4c0.4-0.3,1.1-0.3,1.4,0.2
	c0.2,0.3,0.4,0.5,0.6,0.8c0.3,0.4,0.2,1.1-0.2,1.4C581.4,52.5,581.2,52.6,581,52.6L581,52.6z M537.4,53.9c-0.2,0-0.4-0.1-0.5-0.2
	c-0.5-0.3-0.6-0.9-0.3-1.4c0.2-0.3,0.4-0.6,0.6-0.9c0.3-0.5,0.9-0.6,1.4-0.2c0.5,0.3,0.6,0.9,0.2,1.4c-0.2,0.3-0.4,0.5-0.5,0.8
	C538.1,53.7,537.7,53.9,537.4,53.9L537.4,53.9z M583.5,57c-0.4,0-0.7-0.2-0.9-0.6c-0.1-0.3-0.3-0.6-0.4-0.9
	c-0.3-0.5-0.1-1.1,0.4-1.3c0.5-0.3,1.1-0.1,1.3,0.4c0.2,0.3,0.3,0.6,0.5,0.9c0.2,0.5,0,1.1-0.5,1.3C583.8,57,583.7,57,583.5,57
	L583.5,57z M535.1,58.4c-0.1,0-0.2,0-0.4-0.1c-0.5-0.2-0.8-0.8-0.6-1.3c0.1-0.3,0.3-0.6,0.4-1c0.2-0.5,0.8-0.7,1.3-0.5
	c0.5,0.2,0.7,0.8,0.5,1.3c-0.1,0.3-0.3,0.6-0.4,0.9C535.9,58.2,535.5,58.4,535.1,58.4L535.1,58.4z M585.2,61.7c-0.4,0-0.9-0.3-1-0.8
	c-0.1-0.3-0.2-0.6-0.3-0.9c-0.2-0.5,0.1-1.1,0.7-1.2c0.5-0.2,1.1,0.1,1.2,0.7c0.1,0.3,0.2,0.7,0.3,1c0.1,0.5-0.2,1.1-0.7,1.2
	C585.4,61.7,585.3,61.7,585.2,61.7L585.2,61.7z M533.7,63.2h-0.2c-0.5-0.1-0.9-0.6-0.8-1.2c0.1-0.3,0.1-0.7,0.2-1
	c0.1-0.5,0.7-0.9,1.2-0.7c0.5,0.1,0.9,0.7,0.7,1.2c-0.1,0.3-0.1,0.6-0.2,0.9C534.6,62.9,534.2,63.2,533.7,63.2L533.7,63.2z
	 M586,66.7c-0.5,0-1-0.4-1-0.9c0-0.3,0-0.6-0.1-1c-0.1-0.5,0.3-1,0.9-1.1c0.6-0.1,1,0.3,1.1,0.9c0,0.3,0.1,0.7,0.1,1
	C587,66.2,586.6,66.6,586,66.7L586,66.7z M533.2,68.3c-0.6,0-1-0.4-1-1v-0.1v-1c0-0.6,0.5-1,1-1c0.6,0,1,0.5,1,1v1v0.1
	C534.2,67.9,533.8,68.3,533.2,68.3z M585.8,71.7h-0.1c-0.5-0.1-0.9-0.6-0.9-1.1c0-0.3,0.1-0.6,0.1-1c0.1-0.5,0.5-1,1.1-0.9
	c0.5,0.1,1,0.5,0.9,1.1c0,0.3-0.1,0.7-0.1,1C586.7,71.3,586.3,71.7,585.8,71.7L585.8,71.7z M533.7,73.3c-0.5,0-0.9-0.3-1-0.8
	c-0.1-0.3-0.1-0.7-0.2-1c-0.1-0.5,0.3-1.1,0.8-1.1c0.5-0.1,1.1,0.3,1.1,0.8c0,0.3,0.1,0.6,0.2,0.9C534.7,72.6,534.4,73.2,533.7,73.3
	L533.7,73.3L533.7,73.3z M584.7,76.5c-0.1,0-0.2,0-0.3-0.1c-0.5-0.2-0.8-0.7-0.6-1.3c0.1-0.3,0.2-0.6,0.3-0.9
	c0.2-0.5,0.7-0.8,1.2-0.7c0.5,0.2,0.8,0.7,0.7,1.2c-0.1,0.3-0.2,0.7-0.3,1C585.5,76.3,585.1,76.5,584.7,76.5L584.7,76.5z
	 M535.1,78.1c-0.4,0-0.8-0.2-0.9-0.6c-0.1-0.3-0.3-0.6-0.4-1c-0.2-0.5,0.1-1.1,0.6-1.3c0.5-0.2,1.1,0.1,1.3,0.6
	c0.1,0.3,0.2,0.6,0.3,0.9c0.2,0.5,0,1.1-0.6,1.3C535.4,78.1,535.3,78.1,535.1,78.1L535.1,78.1z M582.6,81.1c-0.2,0-0.3,0-0.5-0.1
	c-0.5-0.3-0.7-0.9-0.4-1.4c0.2-0.3,0.3-0.6,0.5-0.9c0.3-0.5,0.9-0.7,1.3-0.4c0.5,0.3,0.7,0.9,0.4,1.3c-0.2,0.3-0.3,0.6-0.5,0.9
	C583.3,80.9,583,81.1,582.6,81.1L582.6,81.1z M537.5,82.5c-0.3,0-0.6-0.2-0.8-0.5s-0.4-0.6-0.5-0.9c-0.3-0.5-0.1-1.1,0.3-1.4
	c0.5-0.3,1.1-0.1,1.4,0.3c0.2,0.3,0.3,0.5,0.5,0.8c0.3,0.5,0.2,1.1-0.3,1.4C537.8,82.5,537.6,82.5,537.5,82.5L537.5,82.5z
	 M579.8,85.2c-0.2,0-0.5-0.1-0.6-0.2c-0.4-0.4-0.5-1-0.1-1.4c0.2-0.2,0.4-0.5,0.6-0.7c0.3-0.4,1-0.5,1.4-0.2c0.4,0.3,0.5,1,0.2,1.4
	c-0.2,0.3-0.4,0.5-0.7,0.8C580.3,85.1,580.1,85.2,579.8,85.2L579.8,85.2z M540.6,86.5c-0.3,0-0.5-0.1-0.7-0.3
	c-0.2-0.2-0.5-0.5-0.7-0.8c-0.4-0.4-0.3-1,0.1-1.4c0.4-0.4,1-0.3,1.4,0.1c0.2,0.2,0.4,0.5,0.7,0.7c0.4,0.4,0.4,1,0,1.4
	C541.1,86.4,540.8,86.5,540.6,86.5L540.6,86.5z M576.2,88.7c-0.3,0-0.6-0.1-0.8-0.4c-0.3-0.4-0.3-1.1,0.1-1.4
	c0.3-0.2,0.5-0.4,0.7-0.6c0.4-0.4,1-0.3,1.4,0.1c0.4,0.4,0.3,1-0.1,1.4c-0.3,0.2-0.5,0.4-0.8,0.7C576.6,88.7,576.4,88.7,576.2,88.7
	L576.2,88.7z M544.4,89.7c-0.2,0-0.4-0.1-0.6-0.2c-0.3-0.2-0.6-0.4-0.8-0.6c-0.4-0.3-0.5-1-0.2-1.4c0.3-0.4,1-0.5,1.4-0.2
	c0.3,0.2,0.5,0.4,0.8,0.6c0.5,0.3,0.6,0.9,0.2,1.4C545,89.6,544.7,89.7,544.4,89.7L544.4,89.7z M571.9,91.5c-0.4,0-0.7-0.2-0.9-0.5
	c-0.3-0.5-0.1-1.1,0.4-1.4c0.3-0.2,0.6-0.3,0.8-0.5c0.5-0.3,1.1-0.1,1.4,0.4c0.3,0.5,0.1,1.1-0.4,1.4c-0.3,0.2-0.6,0.3-0.9,0.5
	C572.3,91.4,572.1,91.5,571.9,91.5L571.9,91.5z M548.7,92.2c-0.1,0-0.3,0-0.4-0.1c-0.3-0.1-0.6-0.3-0.9-0.5
	c-0.5-0.2-0.7-0.8-0.4-1.3c0.2-0.5,0.9-0.7,1.3-0.4c0.3,0.1,0.6,0.3,0.9,0.4c0.5,0.2,0.7,0.8,0.5,1.3
	C549.4,92,549.1,92.2,548.7,92.2L548.7,92.2z M567.3,93.4c-0.4,0-0.8-0.3-1-0.7c-0.2-0.5,0.1-1.1,0.7-1.2c0.3-0.1,0.6-0.2,0.9-0.3
	c0.5-0.2,1.1,0.1,1.3,0.6c0.2,0.5-0.1,1.1-0.6,1.3c-0.3,0.1-0.7,0.2-1,0.3C567.5,93.4,567.4,93.4,567.3,93.4L567.3,93.4z
	 M553.4,93.8h-0.2c-0.3-0.1-0.7-0.2-1-0.3c-0.5-0.1-0.8-0.7-0.7-1.2c0.1-0.5,0.7-0.8,1.2-0.7c0.3,0.1,0.6,0.2,0.9,0.2
	c0.5,0.1,0.9,0.7,0.7,1.2C554.3,93.5,553.9,93.8,553.4,93.8L553.4,93.8z M562.4,94.4c-0.5,0-0.9-0.4-1-0.9s0.3-1,0.9-1.1
	c0.3,0,0.6-0.1,1-0.1c0.5-0.1,1.1,0.3,1.1,0.8c0.1,0.5-0.3,1.1-0.8,1.1c-0.3,0-0.7,0.1-1,0.1C562.5,94.4,562.4,94.4,562.4,94.4
	L562.4,94.4z M558.4,94.5c-0.4,0-0.7,0-1.1-0.1c-0.5,0-1-0.5-0.9-1.1c0-0.6,0.5-1,1.1-0.9c0.3,0,0.6,0,1,0.1c0.6,0,1,0.5,1,1
	C559.4,94.1,558.9,94.5,558.4,94.5L558.4,94.5z"/>
<path fill="#F7941E" d="M385.7,143.1c-0.3,1.1-1.5,1.8-2.6,1.5c-1.1-0.3-1.8-1.5-1.5-2.6c0.3-1.1,1.5-1.8,2.6-1.5
	C385.3,140.8,386,142,385.7,143.1z M387.2,143.5c0.5-2-0.7-4-2.7-4.5c-2-0.5-4,0.7-4.5,2.7c-0.5,2,0.7,4,2.7,4.5
	C384.7,146.7,386.7,145.5,387.2,143.5z"/>
<path fill="#F7941E" d="M444.9,198.2l-0.1,3.7c0,0.5-0.6,0.8-1.1,0.6l-6.2-4c-0.4-0.3-0.4-0.9,0-1.2l6.6-3.4c0.5-0.2,1,0.1,1,0.6
	L444.9,198.2z"/>
<path fill="#F7941E" d="M404.3,178.9c-0.2,0.3-0.5,0.4-0.9,0.4c-0.3,0-0.6-0.2-0.8-0.5l-0.1-0.2c-0.3-0.5-0.1-1.1,0.4-1.4
	c0.1,0,0.2-0.1,0.2-0.1c0.2-0.3,0.5-0.4,0.8-0.4c0.2,0,0.4,0.1,0.6,0.2c0.4,0.3,0.5,1,0.2,1.4L404.3,178.9z"/>
<path fill="#F7941E" d="M401.9,175.5c-0.5,0.3-1.1,0.1-1.4-0.4l-0.5-0.9c-0.3-0.5-0.1-1.1,0.4-1.4c0.2-0.1,0.3-0.1,0.5-0.1
	c0.4,0,0.7,0.2,0.9,0.5l0.5,0.9C402.5,174.5,402.3,175.1,401.9,175.5L401.9,175.5z"/>
<path fill="#F7941E" d="M410,171c-0.3,0.4-1,0.5-1.4,0.2c-0.4-0.3-0.5-1-0.2-1.4l0.6-0.8c0.2-0.3,0.5-0.4,0.8-0.4
	c0.2,0,0.4,0.1,0.6,0.2c0.4,0.3,0.5,1,0.2,1.4L410,171z"/>
<path fill="#F7941E" d="M407.1,175.1c-0.3,0.4-1,0.5-1.4,0.2c-0.4-0.3-0.5-1-0.2-1.4l0.6-0.8c0.2-0.3,0.5-0.4,0.8-0.4
	c0.2,0,0.4,0.1,0.6,0.2c0.4,0.3,0.5,1,0.2,1.4L407.1,175.1z"/>
<path fill="#F7941E" d="M399.4,171.1c-0.5,0.3-1.1,0.1-1.4-0.4l-0.5-0.9c-0.3-0.5-0.1-1.1,0.4-1.4c0.2-0.1,0.3-0.1,0.5-0.1
	c0.4,0,0.7,0.2,0.9,0.5l0.5,0.9C400.1,170.2,399.9,170.8,399.4,171.1L399.4,171.1z"/>
<path fill="#F7941E" d="M394.5,162.3c-0.5,0.3-1.1,0.1-1.4-0.4l-0.5-0.9c-0.3-0.5-0.1-1.1,0.4-1.4c0.2-0.1,0.3-0.1,0.5-0.1
	c0.4,0,0.7,0.2,0.9,0.5l0.5,0.9C395.2,161.4,395,162.1,394.5,162.3L394.5,162.3z"/>
<path fill="#F7941E" d="M392.1,158c-0.5,0.3-1.1,0.1-1.4-0.4l-0.4-0.9c-0.3-0.5-0.1-1.1,0.4-1.4c0.2-0.1,0.3-0.1,0.5-0.1
	c0.4,0,0.7,0.2,0.9,0.5l0.5,0.9C392.8,157.1,392.6,157.7,392.1,158L392.1,158z"/>
<path fill="#F7941E" d="M397,166.7c-0.5,0.3-1.1,0.1-1.4-0.4l-0.5-0.9c-0.3-0.5-0.1-1.1,0.4-1.4c0.2-0.1,0.3-0.1,0.5-0.1
	c0.4,0,0.7,0.2,0.9,0.5l0.5,0.9C397.6,165.8,397.5,166.4,397,166.7L397,166.7z"/>
<path fill="#F7941E" d="M389.7,153.6c-0.5,0.3-1.1,0.1-1.4-0.4l-0.5-0.9c-0.3-0.5-0.1-1.1,0.4-1.4c0.2-0.1,0.3-0.1,0.5-0.1
	c0.4,0,0.7,0.2,0.9,0.5l0.5,0.9C390.3,152.7,390.2,153.3,389.7,153.6L389.7,153.6z"/>
<path fill="#F7941E" d="M413,166.9c-0.3,0.4-1,0.5-1.4,0.2c-0.4-0.3-0.5-1-0.2-1.4l0.6-0.8c0.2-0.3,0.5-0.4,0.8-0.4
	c0.2,0,0.4,0.1,0.6,0.2c0.4,0.3,0.5,1,0.2,1.4L413,166.9z"/>
<path fill="#F7941E" d="M387.2,149.2c-0.5,0.3-1.1,0.1-1.4-0.4l-0.5-0.9c-0.3-0.5-0.1-1.1,0.4-1.4c0.2-0.1,0.3-0.1,0.5-0.1
	c0.4,0,0.7,0.2,0.9,0.5l0.5,0.9C387.9,148.3,387.7,149,387.2,149.2L387.2,149.2z"/>
<path fill="#F7941E" d="M434.7,185.4c-0.5,0.3-1.1,0.1-1.4-0.3l-0.5-0.9c-0.3-0.5-0.1-1.1,0.3-1.4c0.2-0.1,0.3-0.1,0.5-0.1
	c0.3,0,0.7,0.2,0.9,0.5l0.5,0.9C435.3,184.5,435.2,185.1,434.7,185.4L434.7,185.4z"/>
<path fill="#F7941E" d="M432.1,181.1c-0.5,0.3-1.1,0.1-1.4-0.3l-0.5-0.9c-0.3-0.5-0.1-1.1,0.3-1.4c0.2-0.1,0.3-0.1,0.5-0.1
	c0.3,0,0.7,0.2,0.9,0.5l0.5,0.9C432.8,180.2,432.6,180.8,432.1,181.1L432.1,181.1z"/>
<path fill="#F7941E" d="M437.3,189.7c-0.5,0.3-1.1,0.1-1.4-0.3l-0.5-0.9c-0.3-0.5-0.1-1.1,0.3-1.4c0.2-0.1,0.3-0.1,0.5-0.1
	c0.3,0,0.7,0.2,0.9,0.5l0.5,0.9C437.9,188.8,437.8,189.4,437.3,189.7L437.3,189.7z"/>
<path fill="#F7941E" d="M439.9,194c-0.5,0.3-1.1,0.1-1.4-0.3l-0.5-0.9c-0.3-0.5-0.1-1.1,0.3-1.4c0.2-0.1,0.3-0.1,0.5-0.1
	c0.3,0,0.7,0.2,0.9,0.5l0.5,0.9C440.5,193.1,440.3,193.7,439.9,194L439.9,194z"/>
<path fill="#F7941E" d="M429.6,176.8c-0.5,0.3-1.1,0.1-1.4-0.3l-0.5-0.9c-0.3-0.5-0.1-1.1,0.3-1.4c0.2-0.1,0.3-0.1,0.5-0.1
	c0.3,0,0.7,0.2,0.9,0.5l0.5,0.9C430.2,175.9,430,176.6,429.6,176.8L429.6,176.8z"/>
<path fill="#F7941E" d="M426.9,172.5c-0.5,0.3-1.1,0.1-1.4-0.3l-0.5-0.9c-0.3-0.5-0.1-1.1,0.3-1.4c0.2-0.1,0.3-0.1,0.5-0.1
	c0.3,0,0.7,0.2,0.9,0.5l0.5,0.9C427.6,171.6,427.4,172.2,426.9,172.5L426.9,172.5z"/>
<path fill="#F7941E" d="M421.7,163.9c-0.5,0.3-1.1,0.1-1.4-0.3l-0.5-0.9c-0.3-0.5-0.1-1.1,0.3-1.4c0.2-0.1,0.3-0.1,0.5-0.1
	c0.3,0,0.7,0.2,0.9,0.5l0.5,0.9C422.3,163,422.2,163.6,421.7,163.9L421.7,163.9z"/>
<path fill="#F7941E" d="M419.1,159.6c-0.5,0.3-1.1,0.1-1.4-0.3c-0.1,0-0.2-0.1-0.2-0.1c-0.4-0.3-0.5-1-0.2-1.4l0.1-0.2
	c0.2-0.3,0.5-0.4,0.8-0.4s0.6,0.2,0.8,0.5l0.4,0.6C419.8,158.7,419.6,159.3,419.1,159.6L419.1,159.6z"/>
<path fill="#F7941E" d="M415.9,162.9c-0.3,0.4-1,0.5-1.4,0.2c-0.4-0.3-0.5-1-0.2-1.4l0.6-0.8c0.2-0.3,0.5-0.4,0.8-0.4
	c0.2,0,0.4,0.1,0.6,0.2c0.4,0.3,0.5,1,0.2,1.4L415.9,162.9z"/>
<path fill="#F7941E" d="M424.3,168.2c-0.5,0.3-1.1,0.1-1.4-0.3l-0.5-0.9c-0.3-0.5-0.1-1.1,0.3-1.4c0.2-0.1,0.3-0.1,0.5-0.1
	c0.3,0,0.7,0.2,0.9,0.5l0.5,0.9C424.9,167.3,424.8,167.9,424.3,168.2L424.3,168.2z"/>
<path d="M239.7,106.6c28.4,0,51.4,23,51.4,51.4c0,13.7-5.5,26-14,35.3V134h-20.6v72.6c-2.1,0.7-4.5,1.4-6.9,1.7v-94.9h-20.6v94.9
	c-2.4-0.3-4.8-1-6.9-2.1v-51.7h-20.6v38c-8.2-9.3-13.4-21.2-13.4-34.6C188.3,129.6,211.2,106.6,239.7,106.6L239.7,106.6z
	 M270.2,199.5c-2.1,1.7-4.5,3.1-6.9,4.5v-63h6.9V199.5z M235.9,209.1v-88.7h6.9v89.1h-3.1C238.3,209.4,237.3,209.4,235.9,209.1
	L235.9,209.1z M215.4,203.3c-2.4-1.4-4.8-2.7-6.9-4.5v-37.3h6.9V203.3z M239.7,216.3c32.2,0,58.2-26,58.2-58.2s-26-58.2-58.2-58.2
	s-58.2,26-58.2,58.2S207.5,216.3,239.7,216.3z"/>
<path d="M335.3,273.5c0,1-0.7,1.7-1.4,2.4l-11,8.2c-0.7,0.7-1.4,0.7-2.4,0.7c-1,0-1.7-0.7-2.4-1.4L290,244.7c-1-1.4-0.7-3.8,0.7-4.8
	l11-8.2c0.7-0.3,1.4-0.7,2.1-0.7h0.3c1,0,1.7,0.7,2.4,1.4l28.1,38.7C335.3,271.8,335.3,272.5,335.3,273.5L335.3,273.5z M263.3,230
	v-4.5c2.4-0.7,4.5-1.7,6.9-2.7v7.2H263.3z M242.8,230h-6.9v-0.7c1,0,2.4,0.3,3.4,0.3h3.4V230z M215.4,230h-6.9v-7.2
	c2.1,1,4.5,2.1,6.9,2.7V230z M181.1,230v-30.1c2.1,2.7,4.5,5.5,6.9,8.2V230H181.1z M240,92.6c36,0,65.1,29.1,65.1,65.1
	c0,18.5-8.2,36.3-21.9,48.7l-2.4,2.1l14,19.5l-5.5,4.1l-14-19.5l-2.4,1.4c-9.9,5.8-21.6,8.9-32.9,8.9c-36,0-65.1-29.1-65.1-65.1
	S204,92.6,240,92.6L240,92.6z M297.6,220.4l-8.2-11.3c3.1-2.7,5.8-6.2,8.2-9.6V220.4z M318.1,199.1h6.9V230h-6.9V199.1z
	 M342.1,243.7h-19.2l-5.1-6.9h14v-44.5h-20.6v35.6c-1.7-1.7-3.8-3.1-6.2-3.4h-0.7v-36.3c4.5-9.3,6.9-19.9,6.9-30.5
	c0-39.7-32.2-71.9-71.9-71.9s-71.9,32.2-71.9,71.9c0,11,2.4,21.2,6.9,30.5v48.7h20.6v-22.6c2.1,1.7,4.5,3.4,6.9,4.8v17.8h20.6v-9.3
	c2.4,0.7,4.5,1,6.9,1.4v7.9h20.6V229c2.4-0.3,4.5-0.7,6.9-1.4v9.3H277v-9.9l6.9,9.3v0.7h0.3v0.3c-1,1.4-1.7,2.7-1.7,4.1
	c-0.3,0.7-0.3,1.7-0.3,2.4H136.6v6.9h149l26.7,37c1.7,2.1,4.1,3.8,6.9,4.1h1.7c2.1,0,4.1-0.7,5.8-1.7l11-8.2
	c2.1-1.7,3.8-4.1,4.1-6.9c0.7-2.7,0-5.5-1.7-7.5l-12.3-16.8h14.4L342.1,243.7z"/>
</svg>
