<?xml version="1.0" encoding="utf-8"?>
<!-- Generator: Adobe Illustrator 17.1.0, SVG Export Plug-In . SVG Version: 6.00 Build 0)  -->
<!DOCTYPE svg PUBLIC "-//W3C//DTD SVG 1.1//EN" "http://www.w3.org/Graphics/SVG/1.1/DTD/svg11.dtd">
<svg version="1.1" id="Layer_1" xmlns="http://www.w3.org/2000/svg" xmlns:xlink="http://www.w3.org/1999/xlink" x="0px" y="0px"
	 viewBox="0 0 802 618.5" enable-background="new 0 0 802 618.5" xml:space="preserve">
<text transform="matrix(1 0 0 1 389 347)" font-family="'MyriadPro-Regular'" font-size="12">milestonesurveyforappdevs</text>
<rect x="2" y="5.5" fill="#FFFFFF" width="800" height="613"/>
<path fill="none" stroke="#636464" stroke-width="8.2445" stroke-miterlimit="10" d="M348,619c0-175.8,275.5-318,616-318"/>
<path fill="none" stroke="#B7B7B8" stroke-width="9.6776" stroke-miterlimit="10" stroke-dasharray="40" d="M536,677
	c-2.1,0,6.4-657-577-527.3"/>
<path fill="none" stroke="#0E0E0E" stroke-width="6.1158" stroke-miterlimit="10" stroke-dasharray="18.3475" d="M2,6
	c-4.1,22.2,381.5,480.1,940,436.5"/>
<path fill="none" stroke="#737272" stroke-width="8.2445" stroke-miterlimit="10" stroke-dasharray="40" d="M652.7,17
	c0,0,79.5,430.9-605.7,527"/>
<path fill="none" stroke="#B0B0B0" stroke-width="9.8484" stroke-miterlimit="10" stroke-dasharray="15" d="M552,6
	c0,0-215,488,12,629"/>
<path fill="none" stroke="#5C5B5B" stroke-width="5.0087" stroke-miterlimit="10" stroke-dasharray="8" d="M47,494
	c0,0,304.2-163,773-102"/>
<rect x="563" y="140.5" fill="#FFFFFF" width="142" height="27"/>
<rect x="203" y="240.5" fill="#FFFFFF" width="142" height="27"/>
<text transform="matrix(1 0 0 1 246 259)" fill="#010101" font-family="'MyriadPro-Regular'" font-size="16">Support</text>
<rect x="84" y="424.5" fill="#FFFFFF" width="178" height="25"/>
<rect x="394" y="70.5" fill="#FFFFFF" width="142" height="27"/>
<text transform="matrix(1 0 0 1 483 90)" fill="#010101" font-family="'MyriadPro-Regular'" font-size="16">Marketing</text>
<text transform="matrix(1 0 0 1 119 442.5004)" fill="#010101" font-family="'MyriadPro-Regular'" font-size="16">Product Evangelists</text>
<text transform="matrix(1 0 0 1 615 159)" fill="#010101" font-family="'MyriadPro-Regular'" font-size="16">Training</text>
<rect x="191" y="149.5" fill="#FFFFFF" width="142" height="27"/>
<text transform="matrix(1 0 0 1 192 168)" fill="#010101" font-family="'MyriadPro-Regular'" font-size="16">Solutions Architects</text>
<path fill="none" stroke="#AEAEAE" stroke-width="3" stroke-miterlimit="10" stroke-dasharray="25.835" d="M923,502
	c-8.2,1.4-704-52-956-426"/>
<rect x="274" y="564.5" fill="#FFFFFF" width="142" height="27"/>
<text transform="matrix(1 0 0 1 315 583)" fill="#010101" font-family="'MyriadPro-Regular'" font-size="16">End users</text>
<path fill="none" stroke="#AEAEAE" stroke-width="3" stroke-miterlimit="10" stroke-dasharray="25.835" d="M282,612
	c0,0,194-358,660-315"/>
<g>
	<path fill="#717070" d="M564,418.5c0,5.5-4.5,10-10,10H411c-5.5,0-10-4.5-10-10v-69c0-5.5,4.5-10,10-10h143c5.5,0,10,4.5,10,10
		V418.5z"/>
	<path fill="none" stroke="#FBFBFB" stroke-miterlimit="10" d="M564.5,418c0,5.5-4.5,10-10,10h-143c-5.5,0-10-4.5-10-10v-69
		c0-5.5,4.5-10,10-10h143c5.5,0,10,4.5,10,10V418z"/>
</g>
<rect x="648" y="292.5" fill="#FFFFFF" width="100" height="23"/>
<text transform="matrix(1 0 0 1 415.5 389)" fill="#FDFEFF" font-family="'MyriadPro-Bold'" font-size="20">Documentation</text>
<rect x="629" y="466.5" fill="#FFFFFF" width="142" height="27"/>
<text transform="matrix(1 0 0 1 644 485)" fill="#010101" font-family="'MyriadPro-Regular'" font-size="16">Internal engineers</text>
<text transform="matrix(0.8969 0 0 1 672 310)" fill="#010101" font-family="'MyriadPro-Regular'" font-size="17.8399">UX design</text>
<rect x="2" y="5.5" fill="#FFFFFF" width="800" height="613"/>
<path fill="none" stroke="#636464" stroke-width="8.2445" stroke-miterlimit="10" d="M348,619c0-175.8,275.5-318,616-318"/>
<path fill="none" stroke="#B7B7B8" stroke-width="9.6776" stroke-miterlimit="10" stroke-dasharray="40" d="M536,677
	c-2.1,0,6.4-657-577-527.3"/>
<path fill="none" stroke="#0E0E0E" stroke-width="6.1158" stroke-miterlimit="10" stroke-dasharray="18.3475" d="M2,6
	c-4.1,22.2,381.5,480.1,940,436.5"/>
<path fill="none" stroke="#737272" stroke-width="8.2445" stroke-miterlimit="10" stroke-dasharray="40" d="M652.7,17
	c0,0,79.5,430.9-605.7,527"/>
<path fill="none" stroke="#B0B0B0" stroke-width="9.8484" stroke-miterlimit="10" stroke-dasharray="15" d="M552,6
	c0,0-215,488,12,629"/>
<path fill="none" stroke="#5C5B5B" stroke-width="5.0087" stroke-miterlimit="10" stroke-dasharray="8" d="M47,494
	c0,0,304.2-163,773-102"/>
<rect x="563" y="140.5" fill="#FFFFFF" width="142" height="27"/>
<rect x="203" y="240.5" fill="#FFFFFF" width="142" height="27"/>
<text transform="matrix(1 0 0 1 246 259)" fill="#010101" font-family="'MyriadPro-Regular'" font-size="16">Support</text>
<rect x="84" y="424.5" fill="#FFFFFF" width="178" height="25"/>
<rect x="394" y="70.5" fill="#FFFFFF" width="142" height="27"/>
<text transform="matrix(1 0 0 1 483 90)" fill="#010101" font-family="'MyriadPro-Regular'" font-size="16">Marketing</text>
<text transform="matrix(1 0 0 1 119 442.5004)" fill="#010101" font-family="'MyriadPro-Regular'" font-size="16">Product Evangelists</text>
<text transform="matrix(1 0 0 1 615 159)" fill="#010101" font-family="'MyriadPro-Regular'" font-size="16">Training</text>
<rect x="191" y="149.5" fill="#FFFFFF" width="142" height="27"/>
<text transform="matrix(1 0 0 1 192 168)" fill="#010101" font-family="'MyriadPro-Regular'" font-size="16">Solutions Architects</text>
<path fill="none" stroke="#AEAEAE" stroke-width="3" stroke-miterlimit="10" stroke-dasharray="25.835" d="M923,502
	c-8.2,1.4-704-52-956-426"/>
<rect x="274" y="564.5" fill="#FFFFFF" width="142" height="27"/>
<text transform="matrix(1 0 0 1 315 583)" fill="#010101" font-family="'MyriadPro-Regular'" font-size="16">End users</text>
<path fill="none" stroke="#AEAEAE" stroke-width="3" stroke-miterlimit="10" stroke-dasharray="25.835" d="M282,612
	c0,0,194-358,660-315"/>
<g>
	<path fill="#717070" d="M564,418.5c0,5.5-4.5,10-10,10H411c-5.5,0-10-4.5-10-10v-69c0-5.5,4.5-10,10-10h143c5.5,0,10,4.5,10,10
		V418.5z"/>
	<path fill="none" stroke="#FBFBFB" stroke-miterlimit="10" d="M564.5,418c0,5.5-4.5,10-10,10h-143c-5.5,0-10-4.5-10-10v-69
		c0-5.5,4.5-10,10-10h143c5.5,0,10,4.5,10,10V418z"/>
</g>
<rect x="648" y="292.5" fill="#FFFFFF" width="100" height="23"/>
<text transform="matrix(1 0 0 1 415.5 389)" fill="#FDFEFF" font-family="'MyriadPro-Bold'" font-size="20">Documentation</text>
<rect x="629" y="466.5" fill="#FFFFFF" width="142" height="27"/>
<text transform="matrix(1 0 0 1 644 485)" fill="#010101" font-family="'MyriadPro-Regular'" font-size="16">Internal engineers</text>
<text transform="matrix(0.8969 0 0 1 672 310)" fill="#010101" font-family="'MyriadPro-Regular'" font-size="17.8399">UX design</text>
<rect x="2" y="5.5" fill="#FFFFFF" width="800" height="613"/>
<path fill="none" stroke="#636464" stroke-width="8.2445" stroke-miterlimit="10" d="M348,619c0-175.8,275.5-318,616-318"/>
<path fill="none" stroke="#B7B7B8" stroke-width="9.6776" stroke-miterlimit="10" stroke-dasharray="40" d="M536,677
	c-2.1,0,6.4-657-577-527.3"/>
<path fill="none" stroke="#0E0E0E" stroke-width="6.1158" stroke-miterlimit="10" stroke-dasharray="18.3475" d="M2,6
	c-4.1,22.2,381.5,480.1,940,436.5"/>
<path fill="none" stroke="#737272" stroke-width="8.2445" stroke-miterlimit="10" stroke-dasharray="40" d="M652.7,17
	c0,0,79.5,430.9-605.7,527"/>
<path fill="none" stroke="#B0B0B0" stroke-width="9.8484" stroke-miterlimit="10" stroke-dasharray="15" d="M552,6
	c0,0-215,488,12,629"/>
<path fill="none" stroke="#5C5B5B" stroke-width="5.0087" stroke-miterlimit="10" stroke-dasharray="8" d="M47,494
	c0,0,304.2-163,773-102"/>
<rect x="563" y="140.5" fill="#FFFFFF" width="142" height="27"/>
<rect x="203" y="240.5" fill="#FFFFFF" width="142" height="27"/>
<text transform="matrix(1 0 0 1 246 259)" fill="#010101" font-family="'MyriadPro-Regular'" font-size="16">Support</text>
<rect x="84" y="424.5" fill="#FFFFFF" width="178" height="25"/>
<rect x="394" y="70.5" fill="#FFFFFF" width="142" height="27"/>
<text transform="matrix(1 0 0 1 483 90)" fill="#010101" font-family="'MyriadPro-Regular'" font-size="16">Marketing</text>
<text transform="matrix(1 0 0 1 119 442.5004)" fill="#010101" font-family="'MyriadPro-Regular'" font-size="16">Product Evangelists</text>
<text transform="matrix(1 0 0 1 615 159)" fill="#010101" font-family="'MyriadPro-Regular'" font-size="16">Training</text>
<rect x="191" y="149.5" fill="#FFFFFF" width="142" height="27"/>
<text transform="matrix(1 0 0 1 192 168)" fill="#010101" font-family="'MyriadPro-Regular'" font-size="16">Solutions Architects</text>
<path fill="none" stroke="#AEAEAE" stroke-width="3" stroke-miterlimit="10" stroke-dasharray="25.835" d="M923,502
	c-8.2,1.4-704-52-956-426"/>
<rect x="274" y="564.5" fill="#FFFFFF" width="142" height="27"/>
<text transform="matrix(1 0 0 1 315 583)" fill="#010101" font-family="'MyriadPro-Regular'" font-size="16">End users</text>
<path fill="none" stroke="#AEAEAE" stroke-width="3" stroke-miterlimit="10" stroke-dasharray="25.835" d="M282,612
	c0,0,194-358,660-315"/>
<g>
	<path fill="#717070" d="M564,418.5c0,5.5-4.5,10-10,10H411c-5.5,0-10-4.5-10-10v-69c0-5.5,4.5-10,10-10h143c5.5,0,10,4.5,10,10
		V418.5z"/>
	<path fill="none" stroke="#FBFBFB" stroke-miterlimit="10" d="M564.5,418c0,5.5-4.5,10-10,10h-143c-5.5,0-10-4.5-10-10v-69
		c0-5.5,4.5-10,10-10h143c5.5,0,10,4.5,10,10V418z"/>
</g>
<rect x="648" y="292.5" fill="#FFFFFF" width="100" height="23"/>
<text transform="matrix(1 0 0 1 415.5 389)" fill="#FDFEFF" font-family="'MyriadPro-Bold'" font-size="20">Documentation</text>
<rect x="629" y="466.5" fill="#FFFFFF" width="142" height="27"/>
<text transform="matrix(1 0 0 1 644 485)" fill="#010101" font-family="'MyriadPro-Regular'" font-size="16">Internal engineers</text>
<text transform="matrix(0.8969 0 0 1 672 310)" fill="#010101" font-family="'MyriadPro-Regular'" font-size="17.8399">UX design</text>
<line fill="none" stroke="#000000" stroke-width="2" stroke-miterlimit="10" x1="-37.9" y1="519.2" x2="137.7" y2="519.2"/>
</svg>
