<?xml version="1.0" encoding="utf-8"?>
<!-- Generator: Adobe Illustrator 17.1.0, SVG Export Plug-In . SVG Version: 6.00 Build 0)  -->
<!DOCTYPE svg PUBLIC "-//W3C//DTD SVG 1.1//EN" "http://www.w3.org/Graphics/SVG/1.1/DTD/svg11.dtd">
<svg version="1.1" id="Layer_1" xmlns="http://www.w3.org/2000/svg" xmlns:xlink="http://www.w3.org/1999/xlink" x="0px" y="0px"
	 viewBox="0 0 600 350" enable-background="new 0 0 600 350" xml:space="preserve">
<path d="M166.3,164.4l-27.6,65l28.9,2.6l8.4,40.8l54.5-3.1l-0.7-13.2l-43.2,2.6l-8.2-39.2l-20.5-2l21.6-50.9v-1.3
	c0-34.4,30.4-63.3,66.8-63.3c28,0,54.7,17.9,63.3,42.6v0.7c5.7,12.1,2.4,39.5-0.2,61.3c-0.9,8.2-2,15.9-2.4,22.3l0,0
	c-0.6,9-0.4,18.1,0.4,27.1l0.7,6.6l13.2-1.3l-0.7-6.6v0c-0.8-8.3-1-16.6-0.4-24.9c0.4-6.2,1.3-13.7,2.2-21.6
	c2.9-24.7,6.2-52.5-0.7-68.1c-10.1-29.8-42.1-51.2-75.4-51.2C203.4,89.2,167,123.4,166.3,164.4L166.3,164.4z"/>
<path d="M247.9,131.7c2.9,0,5.6,1.8,6.7,4.5c1.1,2.7,0.5,5.8-1.6,7.9c-2.1,2.1-5.2,2.7-7.9,1.6c-2.7-1.1-4.5-3.8-4.5-6.7
	C240.6,135,243.9,131.7,247.9,131.7L247.9,131.7z M209.6,171.2c2.9,0,5.6,1.8,6.7,4.5c1.1,2.7,0.5,5.8-1.6,7.9
	c-2.1,2.1-5.2,2.7-7.9,1.6c-2.7-1.1-4.5-3.8-4.5-6.7C202.3,174.5,205.5,171.2,209.6,171.2L209.6,171.2z M282.1,189.9
	c2.9,0,5.6,1.8,6.7,4.5c1.1,2.7,0.5,5.8-1.6,7.9c-2.1,2.1-5.2,2.7-7.9,1.6c-2.7-1.1-4.5-3.8-4.5-6.7
	C274.8,193.2,278.1,189.9,282.1,189.9L282.1,189.9z M241.3,252.6v42.1h13.2v-42.1h34.2v-36.2c9.5-3.2,15.3-12.9,13.6-22.8
	c-1.6-9.9-10.2-17.2-20.2-17.2c-10,0-18.6,7.3-20.2,17.2c-1.6,9.9,4.1,19.5,13.6,22.8v22.9h-20.9v-81.1c9.5-3.2,15.3-12.9,13.6-22.8
	c-1.6-9.9-10.2-17.1-20.2-17.1s-18.6,7.3-20.2,17.1c-1.6,9.9,4.1,19.5,13.6,22.8v53.4h-25.1v-13.9c9.5-3.2,15.3-12.9,13.6-22.8
	c-1.6-9.9-10.2-17.2-20.2-17.2c-10,0-18.6,7.3-20.2,17.2c-1.6,9.9,4.1,19.5,13.6,22.8v27.1h38.4V252.6z"/>
<line fill="none" stroke="#000000" stroke-miterlimit="10" x1="245.8" y1="105.9" x2="373.5" y2="105.9"/>
<line fill="none" stroke="#000000" stroke-miterlimit="10" x1="283.2" y1="195" x2="369.7" y2="195"/>
<line fill="none" stroke="#000000" stroke-miterlimit="10" x1="102.1" y1="178" x2="207.8" y2="178"/>
<text transform="matrix(1 0 0 1 382 156.1597)" font-family="'MyriadPro-Regular'" font-size="24">actions &amp; reactions</text>
<text transform="matrix(1 0 0 1 382 111.1597)" font-family="'MyriadPro-Regular'" font-size="24">prerequisites</text>
<text transform="matrix(1 0 0 1 378.8638 201.8123)" font-family="'MyriadPro-Regular'" font-size="24">troubleshooting</text>
<text transform="matrix(1 0 0 1 29.3333 186.4785)" font-family="'MyriadPro-Regular'" font-size="24">goals</text>
<path fill="none" stroke="#000000" stroke-width="10" stroke-miterlimit="10" d="M302.9,156.2c0,6.6-5.4,12-12,12h-0.7
	c-6.6,0-12-5.4-12-12l0,0c0-6.6,5.4-12,12-12h0.7C297.5,144.2,302.9,149.5,302.9,156.2L302.9,156.2z"/>
<line fill="none" stroke="#000000" stroke-miterlimit="10" x1="245.8" y1="105.9" x2="245.8" y2="139.4"/>
<line fill="none" stroke="#000000" stroke-width="10" stroke-miterlimit="10" x1="248.6" y1="168.2" x2="278.2" y2="159.9"/>
<line fill="none" stroke="#000000" stroke-miterlimit="10" x1="291.2" y1="156.2" x2="361.9" y2="156.2"/>
</svg>
