<?xml version="1.0" encoding="UTF-8" standalone="no"?>
<!DOCTYPE svg PUBLIC "-//W3C//DTD SVG 1.0//EN" "http://www.w3.org/TR/2001/REC-SVG-20010904/DTD/svg10.dtd">
<!-- Generated by Microsoft Visio 11.0, SVG Export, v1.0 image translation workflow.svg Page-1 -->
<svg xmlns="http://www.w3.org/2000/svg" xmlns:xlink="http://www.w3.org/1999/xlink" xmlns:ev="http://www.w3.org/2001/xml-events"
		xmlns:v="http://schemas.microsoft.com/visio/2003/SVGExtensions/" width="7.51969in" height="0.629921in"
		viewBox="0 0 541.417 45.3543" xml:space="preserve" color-interpolation-filters="sRGB" class="st7">
	<v:documentProperties v:langID="2057" v:metric="true" v:viewMarkup="false">
		<v:userDefs>
			<v:ud v:nameU="msvNoAutoConnect" v:val="VT0(1):26"/>
		</v:userDefs>
	</v:documentProperties>

	<style type="text/css">
	<![CDATA[
		.st1 {fill:#ffffff;stroke:#000000;stroke-linecap:round;stroke-linejoin:round;stroke-width:0.75}
		.st2 {fill:#000000;font-family:Arial;font-size:1.00001em}
		.st3 {fill:#000000;stroke:none;stroke-linecap:butt;stroke-width:38.25}
		.st4 {fill:#000000;stroke:none;stroke-linecap:butt;stroke-width:6.12}
		.st5 {marker-end:url(#mrkr13-45);stroke:#000000;stroke-linecap:round;stroke-linejoin:round;stroke-width:0.75}
		.st6 {fill:#000000;fill-opacity:1;stroke:#000000;stroke-opacity:1;stroke-width:0.22935779816514}
		.st7 {fill:none;fill-rule:evenodd;font-size:12px;overflow:visible;stroke-linecap:square;stroke-miterlimit:3}
	]]>
	</style>

	<defs id="Markers">
		<g id="lend13">
			<path d="M 3 1 L 0 0 L 3 -1 L 3 1 " style="stroke:none"/>
		</g>
		<marker id="mrkr13-45" class="st6" v:arrowType="13" v:arrowSize="2" v:setback="13.08" refX="-13.08" orient="auto"
				markerUnits="strokeWidth" overflow="visible">
			<use xlink:href="#lend13" transform="scale(-4.36,-4.36) "/>
		</marker>
	</defs>
	<g v:mID="0" v:index="1" v:groupContext="foregroundPage">
		<title>Page-1</title>
		<v:pageProperties v:drawingScale="0.0393701" v:pageScale="0.0393701" v:drawingUnits="24" v:shadowOffsetX="8.50394"
				v:shadowOffsetY="-8.50394"/>
		<g id="shape27-1" v:mID="27" v:groupContext="shape" transform="translate(1.13386,-1.41732)">
			<title>Sheet.27</title>
			<desc>Identify</desc>
			<v:textBlock v:margins="rect(4,4,4,10)" v:tabSpace="42.5197"/>
			<v:textRect cx="42.5197" cy="24.0945" width="85.04" height="42.5197"/>
			<rect x="0" y="2.83465" width="85.0394" height="42.5197" class="st1"/>
			<text x="42.35" y="27.69" class="st2" v:langID="1030"><v:paragraph v:horizAlign="2"/><v:tabList/>Identify</text>		</g>
		<g id="group29-4" transform="translate(8.22047,-11.3386)" v:mID="29" v:groupContext="group">
			<title>search</title>
			<g id="shape30-5" v:mID="30" v:groupContext="shape">
				<title>Sheet.30</title>
				<path d="M11.67 38.61 C10.58 39.17 9.34 39.48 8.03 39.48 C3.59 39.48 0 35.89 0 31.45 C-0 27.02 3.59 23.43 8.03 23.43
							 C12.46 23.43 16.06 27.02 16.06 31.45 C16.06 33.12 15.55 34.66 14.69 35.94 L20.31 41.57 C20.31 41.57
							 21.26 42.52 20.31 43.46 L19.37 44.41 C18.42 45.35 17.48 44.41 17.48 44.41 L11.67 38.61 ZM2.68 31.45
							 C2.68 28.5 5.07 26.1 8.03 26.1 C10.98 26.1 13.38 28.5 13.38 31.45 C13.38 34.41 10.98 36.81 8.03 36.81
							 C5.07 36.81 2.68 34.41 2.68 31.45 Z" class="st3"/>
			</g>
		</g>
		<g id="shape28-7" v:mID="28" v:groupContext="shape" transform="translate(468.85,-1.41732)">
			<title>Sheet.28</title>
			<desc>Link</desc>
			<v:textBlock v:margins="rect(4,4,4,4)" v:tabSpace="42.5197"/>
			<v:textRect cx="35.4331" cy="24.0945" width="70.87" height="42.5197"/>
			<rect x="0" y="2.83465" width="70.8661" height="42.5197" class="st1"/>
			<text x="44.85" y="27.69" class="st2" v:langID="1030"><v:paragraph v:horizAlign="2"/><v:tabList/>Link</text>		</g>
		<g id="group45-10" transform="translate(475.937,-12.4699)" v:mID="45" v:groupContext="group">
			<title>Sheet.45</title>
			<g id="shape46-11" v:mID="46" v:groupContext="shape" transform="translate(3.32602,-5.18211)">
				<title>Sheet.46</title>
				<path d="M15.55 31.97 C14.32 30.74 12.95 30.12 11.45 30.12 C9.5 30.12 7.42 31.21 5.26 33.37 C3.08 35.55 0 39.79 3.87
							 43.65 C4.75 44.54 5.71 45.1 6.74 45.35 C6.82 45.28 6.89 45.22 6.96 45.14 C7.67 44.44 8.21 43.78 8.6
							 43.15 C8.38 43.2 8.17 43.22 7.96 43.22 C7.08 43.22 6.27 42.83 5.48 42.04 C4.26 40.83 3.09 38.77 6.88
							 34.98 C8.59 33.27 10.13 32.4 11.45 32.4 C12.33 32.4 13.14 32.79 13.94 33.58 C15.09 34.74 16.21 36.66
							 13.04 40.11 C13.18 40.91 13.14 41.74 12.94 42.59 C12.86 42.93 12.75 43.27 12.61 43.62 C13.12 43.22 13.63
							 42.77 14.15 42.25 C15.83 40.57 16.87 38.93 17.24 37.38 C17.71 35.41 17.12 33.54 15.55 31.97 Z"
						class="st4"/>
			</g>
			<g id="shape47-13" v:mID="47" v:groupContext="shape">
				<title>Sheet.47</title>
				<path d="M10.96 30.12 C10.89 30.19 10.81 30.26 10.74 30.34 C10 31.08 9.46 31.74 9.09 32.33 C9.31 32.28 9.53 32.26
							 9.74 32.26 C10.62 32.26 11.43 32.64 12.23 33.44 C13.25 34.46 13.6 35.5 13.31 36.7 C13.04 37.84 12.2
							 39.12 10.83 40.49 C9.12 42.21 7.58 43.07 6.25 43.07 C5.37 43.07 4.56 42.69 3.77 41.89 C2.74 40.87 2.4
							 39.83 2.69 38.63 C2.92 37.63 3.59 36.53 4.67 35.35 C4.49 34.22 4.65 33.03 5.13 31.82 C4.61 32.23 4.09
							 32.69 3.55 33.22 C1.88 34.9 0.84 36.54 0.47 38.1 C0 40.07 0.58 41.93 2.16 43.51 C3.38 44.73 4.76 45.35
							 6.25 45.35 C8.2 45.35 10.29 44.26 12.44 42.11 C14.12 40.43 15.16 38.79 15.53 37.23 C16 35.26 15.41 33.39
							 13.84 31.82 C12.96 30.94 11.99 30.37 10.96 30.12 Z" class="st4"/>
			</g>
		</g>
		<g id="shape34-15" v:mID="34" v:groupContext="shape" transform="translate(114.52,-1.41732)">
			<title>Sheet.34</title>
			<desc>Extract</desc>
			<v:textBlock v:margins="rect(4,4,4,10)" v:tabSpace="42.5197"/>
			<v:textRect cx="42.5197" cy="24.0945" width="85.04" height="42.5197"/>
			<rect x="0" y="2.83465" width="85.0394" height="42.5197" class="st1"/>
			<text x="43.7" y="27.69" class="st2" v:langID="1030"><v:paragraph v:horizAlign="2"/><v:tabList/>Extract</text>		</g>
		<g id="shape35-18" v:mID="35" v:groupContext="shape" transform="translate(227.906,-1.41732)">
			<title>Sheet.35</title>
			<desc>Translate</desc>
			<v:textBlock v:margins="rect(4,4,4,10)" v:tabSpace="42.5197"/>
			<v:textRect cx="49.6063" cy="24.0945" width="99.22" height="42.5197"/>
			<rect x="0" y="2.83465" width="99.2126" height="42.5197" class="st1"/>
			<text x="45.19" y="27.69" class="st2" v:langID="1030"><v:paragraph v:horizAlign="2"/><v:tabList/>Translate</text>		</g>
		<g id="group36-21" transform="translate(169.024,9.83842) rotate(90)" v:mID="36" v:groupContext="group">
			<title>Sheet.36</title>
			<g id="shape37-22" v:mID="37" v:groupContext="shape">
				<title>Sheet.37</title>
				<path d="M4.36 26.16 L0 30.9 L2.56 30.9 C2.57 33.41 3.24 35.18 4.34 36.5 C5.46 37.86 6.98 38.71 8.28 39.4 C9.22 39.9
							 10.45 40.63 10.49 41.63 C10.5 42 10.49 41.59 10.49 42.61 L10.49 45.35 L15.11 45.35 L15.11 42.61 C15.11
							 41.59 15.1 42 15.11 41.63 C15.14 40.63 16.37 39.9 17.31 39.4 C18.61 38.71 20.14 37.86 21.26 36.5 C22.35
							 35.18 23.01 33.41 23.03 30.9 L25.59 30.9 L21.24 26.16 L16.88 30.9 L19.43 30.9 C19.42 33.16 18.84 34.53
							 18.07 35.46 C17.27 36.42 16.25 37 14.98 37.68 C14.29 38.04 13.53 38.44 12.8 38.92 C12.06 38.44 11.3
							 38.04 10.61 37.68 C9.35 37 8.32 36.42 7.53 35.46 C6.75 34.53 6.17 33.16 6.16 30.9 L8.72 30.9 L4.36 26.16
							 Z" class="st4"/>
			</g>
		</g>
		<g id="group38-24" transform="translate(234.283,-9.92126)" v:mID="38" v:groupContext="group">
			<title>Sheet.38</title>
			<g id="group39-25" v:mID="39" v:groupContext="group">
				<title>Sheet.39</title>
				<g id="shape40-26" v:mID="40" v:groupContext="shape" transform="translate(1.4988E-013,-7.39992)">
					<title>Sheet.40</title>
					<path d="M5.83 43.15 L5.83 40.65 L3.21 40.65 C2.2 40.65 1.37 39.77 1.37 38.69 L1.37 33.04 C1.37 31.97 2.2 31.09
								 3.21 31.09 L14.92 31.09 C15.93 31.09 16.76 31.97 16.76 33.04 L16.76 38.69 C16.76 39.77 15.93 40.65
								 14.92 40.65 L14.92 42.02 C16.69 42.02 18.13 40.53 18.13 38.69 L18.13 33.04 C18.13 31.21 16.69 29.72
								 14.92 29.72 L3.21 29.72 C1.44 29.72 0 31.21 0 33.04 L0 38.69 C0 40.53 1.44 42.02 3.21 42.02 L4.46
								 42.02 L4.46 44.45 C4.46 44.83 4.7 45.17 5.06 45.3 C5.16 45.34 5.26 45.35 5.37 45.35 C5.62 45.35
								 5.86 45.25 6.03 45.05 L8.58 42.02 L11.13 42.02 L11.13 40.65 L7.95 40.65 L5.83 43.15 Z" class="st4"/>
				</g>
				<g id="shape41-28" v:mID="41" v:groupContext="shape" transform="translate(12.34,7.10543E-015)">
					<title>Sheet.41</title>
					<path d="M14.92 29.72 L6.99 29.72 L6.99 31.09 L14.92 31.09 C15.93 31.09 16.76 31.97 16.76 33.05 L16.76 38.69
								 C16.76 39.77 15.93 40.65 14.92 40.65 L12.3 40.65 L12.3 43.15 L10.19 40.65 L3.21 40.65 C2.2 40.65
								 1.37 39.77 1.37 38.69 L1.37 33.05 C1.37 31.97 2.2 31.09 3.21 31.09 L3.21 29.72 C1.44 29.72 0 31.21
								 0 33.04 L0 38.69 C0 40.53 1.44 42.02 3.21 42.02 L9.55 42.02 L12.11 45.05 C12.27 45.25 12.52 45.35
								 12.77 45.35 C12.87 45.35 12.97 45.34 13.08 45.3 C13.43 45.17 13.68 44.83 13.68 44.45 L13.68 42.02
								 L14.92 42.02 C16.69 42.02 18.13 40.53 18.13 38.69 L18.13 33.05 C18.13 31.21 16.69 29.72 14.92 29.72
								 Z" class="st4"/>
				</g>
				<g id="shape42-30" v:mID="42" v:groupContext="shape" transform="translate(5.64125,-14.3702)">
					<title>Sheet.42</title>
					<path d="M2.43 38.96 L0 45.35 L1.42 45.35 L1.93 43.93 L4.32 43.93 L4.8 45.35 L6.26 45.35 L3.87 38.96 L2.43 38.96
								 ZM2.29 42.88 L3.13 40.53 L3.15 40.53 L3.95 42.88 L2.29 42.88 Z" class="st4"/>
				</g>
				<g id="shape43-32" v:mID="43" v:groupContext="shape" transform="translate(18.3266,-6.37568)">
					<title>Sheet.43</title>
					<path d="M0 43.69 C0 44.39 0.45 44.85 1.18 44.85 C2.06 44.83 2.93 44.27 3.21 44.02 C3.49 43.77 4.25 42.89 4.59
								 42.2 C5.02 42.4 5.22 42.73 5.22 43.11 C5.22 43.91 4.44 44.38 3.2 44.52 L3.8 45.35 C5.74 45.1 6.4
								 44.29 6.4 43.09 C6.4 42.08 5.77 41.47 4.96 41.2 C4.97 41.13 5 41.05 5.01 40.98 L3.91 40.78 C3.9
								 40.89 3.88 40.91 3.86 41.03 C3.46 41 3.02 41.06 2.88 41.09 C2.88 40.89 2.89 40.35 2.9 40.16 C3.81
								 40.12 4.72 40.05 5.55 39.92 L5.46 38.83 C4.6 39 3.77 39.09 2.96 39.14 C2.98 38.92 3.01 38.31 3.01
								 38.31 L1.84 38.22 C1.83 38.52 1.82 38.87 1.81 39.17 C1.29 39.18 0.68 39.18 0.36 39.17 L0.41 40.23
								 L0.54 40.23 C0.84 40.23 1.34 40.21 1.79 40.2 C1.79 40.49 1.8 41.11 1.81 41.4 C0.75 41.84 0 42.65
								 0 43.69 ZM3.51 42 C3.35 42.32 3.16 42.6 2.96 42.84 C2.92 42.59 2.91 42.34 2.9 42.07 C2.98 42.05
								 3.31 42 3.51 42 ZM1.87 42.44 C1.9 42.85 1.95 43.26 2.01 43.62 C1.82 43.72 1.63 43.78 1.46 43.79
								 C1.09 43.8 1.09 43.56 1.09 43.46 C1.09 43.06 1.4 42.7 1.87 42.44 Z" class="st4"/>
				</g>
			</g>
		</g>
		<g id="shape31-34" v:mID="31" v:groupContext="shape" transform="translate(355.465,-1.41732)">
			<title>Sheet.31</title>
			<desc>Merge</desc>
			<v:textBlock v:margins="rect(4,4,4,4)" v:tabSpace="42.5197"/>
			<v:textRect cx="42.5197" cy="24.0945" width="85.04" height="42.5197"/>
			<rect x="0" y="2.83465" width="85.0394" height="42.5197" class="st1"/>
			<text x="47.03" y="27.69" class="st2" v:langID="1030"><v:paragraph v:horizAlign="2"/><v:tabList/>Merge</text>		</g>
		<g id="group32-37" transform="translate(407.906,10.6299) rotate(90)" v:mID="32" v:groupContext="group">
			<title>Sheet.32</title>
			<g id="shape33-38" v:mID="33" v:groupContext="shape">
				<title>Sheet.33</title>
				<path d="M12.05 23.62 L6.93 29.35 L9.34 29.35 L9.34 31.01 C9.34 32.23 9.35 31.74 9.34 32.18 C9.3 33.4 7.85 34.28
							 6.75 34.89 C5.22 35.72 3.42 36.74 2.1 38.38 C0.78 40.02 0 42.21 0.02 45.35 L4.25 45.35 C4.23 42.5 4.93
							 40.8 5.86 39.64 C6.79 38.48 8 37.78 9.49 36.97 C10.3 36.53 11.18 36.05 12.05 35.46 C12.91 36.05 13.8
							 36.53 14.6 36.97 C16.09 37.78 17.3 38.48 18.24 39.64 C19.17 40.8 19.87 42.5 19.85 45.35 L24.08 45.35
							 C24.09 42.21 23.31 40.02 22 38.38 C20.68 36.74 18.87 35.72 17.35 34.89 C16.24 34.28 14.8 33.4 14.76
							 32.18 C14.74 31.74 14.76 32.23 14.76 31.01 L14.76 29.35 L17.16 29.35 L12.05 23.62 Z" class="st4"/>
			</g>
		</g>
		<g id="shape52-40" v:mID="52" v:groupContext="shape" transform="translate(86.1732,-21.2598)">
			<title>Sheet.52</title>
			<path d="M0 45.35 L18.54 45.35" class="st5"/>
		</g>
		<g id="shape53-46" v:mID="53" v:groupContext="shape" transform="translate(440.504,-21.2598)">
			<title>Sheet.53</title>
			<path d="M0 45.35 L18.54 45.35" class="st5"/>
		</g>
		<g id="shape55-51" v:mID="55" v:groupContext="shape" transform="translate(199.559,-21.2598)">
			<title>Sheet.55</title>
			<path d="M0 45.35 L18.54 45.35" class="st5"/>
		</g>
		<g id="shape56-56" v:mID="56" v:groupContext="shape" transform="translate(327.118,-21.2598)">
			<title>Sheet.56</title>
			<path d="M0 45.35 L18.54 45.35" class="st5"/>
		</g>
	</g>
</svg>
