<?xml version="1.0" encoding="utf-8"?>
<!-- Generator: Adobe Illustrator 17.1.0, SVG Export Plug-In . SVG Version: 6.00 Build 0)  -->
<!DOCTYPE svg PUBLIC "-//W3C//DTD SVG 1.1//EN" "http://www.w3.org/Graphics/SVG/1.1/DTD/svg11.dtd">
<svg version="1.1" id="Layer_1" xmlns="http://www.w3.org/2000/svg" xmlns:xlink="http://www.w3.org/1999/xlink" x="0px" y="0px"
	 viewBox="0 0 800 600" enable-background="new 0 0 800 600" xml:space="preserve">
<rect y="-13" fill="#FFFFFF" width="800" height="613"/>
<rect y="-2" fill="#FFFFFF" width="800" height="602"/>
<path fill="none" stroke="#636363" stroke-width="8.2445" stroke-miterlimit="10" d="M346,600c0-175.8,275.5-318,616-318"/>
<path fill="none" stroke="#B7B7B7" stroke-width="9.6776" stroke-miterlimit="10" stroke-dasharray="40" d="M534,658
	c-2.1,0,6.4-657-577-527.3"/>
<path fill="none" stroke="#0C0C0C" stroke-width="6.1158" stroke-miterlimit="10" stroke-dasharray="18.3475" d="M0-13
	C-4.1,9.2,381.5,467.1,940,423.5"/>
<path fill="none" stroke="#727171" stroke-width="8.2445" stroke-miterlimit="10" stroke-dasharray="40" d="M650.7-2
	c0,0,79.5,430.9-605.7,527"/>
<path fill="none" stroke="#AFAFAF" stroke-width="9.8484" stroke-miterlimit="10" stroke-dasharray="15" d="M550-13
	c0,0-215,488,12,629"/>
<path fill="none" stroke="#5B5A5A" stroke-width="5.0087" stroke-miterlimit="10" stroke-dasharray="8" d="M45,475
	c0,0,304.2-163,773-102"/>
<rect x="561" y="122" fill="#FFFFFF" width="142" height="27"/>
<rect x="201" y="222" fill="#FFFFFF" width="142" height="27"/>
<g>
	<path d="M245,238.3c0.6,0.4,1.5,0.7,2.5,0.7c1.4,0,2.3-0.8,2.3-1.8c0-1-0.6-1.6-2-2.1c-1.8-0.6-2.8-1.5-2.8-3.1
		c0-1.7,1.4-2.9,3.5-2.9c1.1,0,1.9,0.3,2.4,0.5l-0.4,1.1c-0.4-0.2-1.1-0.5-2-0.5c-1.5,0-2,0.9-2,1.6c0,1,0.7,1.5,2.1,2.1
		c1.8,0.7,2.8,1.6,2.8,3.2c0,1.7-1.2,3.1-3.8,3.1c-1,0-2.2-0.3-2.8-0.7L245,238.3z"/>
	<path d="M259.5,237.9c0,0.8,0,1.5,0.1,2.1h-1.2l-0.1-1.3h0c-0.4,0.6-1.2,1.4-2.6,1.4c-1.2,0-2.7-0.7-2.7-3.4v-4.5h1.4v4.3
		c0,1.5,0.4,2.5,1.7,2.5c0.9,0,1.6-0.7,1.9-1.3c0.1-0.2,0.1-0.5,0.1-0.7v-4.8h1.4V237.9z"/>
	<path d="M261.9,234.8c0-1,0-1.8-0.1-2.5h1.3l0.1,1.3h0c0.6-0.9,1.5-1.5,2.8-1.5c1.9,0,3.3,1.6,3.3,3.9c0,2.8-1.7,4.2-3.5,4.2
		c-1,0-1.9-0.4-2.4-1.2h0v4.2h-1.4V234.8z M263.3,236.8c0,0.2,0,0.4,0.1,0.6c0.3,1,1.1,1.6,2.1,1.6c1.5,0,2.4-1.2,2.4-3
		c0-1.6-0.8-2.9-2.3-2.9c-1,0-1.9,0.7-2.1,1.7c0,0.2-0.1,0.4-0.1,0.6V236.8z"/>
	<path d="M271,234.8c0-1,0-1.8-0.1-2.5h1.3l0.1,1.3h0c0.6-0.9,1.5-1.5,2.8-1.5c1.9,0,3.3,1.6,3.3,3.9c0,2.8-1.7,4.2-3.5,4.2
		c-1,0-1.9-0.4-2.4-1.2h0v4.2H271V234.8z M272.4,236.8c0,0.2,0,0.4,0.1,0.6c0.3,1,1.1,1.6,2.1,1.6c1.5,0,2.4-1.2,2.4-3
		c0-1.6-0.8-2.9-2.3-2.9c-1,0-1.9,0.7-2.1,1.7c0,0.2-0.1,0.4-0.1,0.6V236.8z"/>
	<path d="M287.1,236.1c0,2.9-2,4.1-3.9,4.1c-2.1,0-3.7-1.5-3.7-4c0-2.6,1.7-4.1,3.8-4.1C285.6,232.1,287.1,233.7,287.1,236.1z
		 M280.9,236.1c0,1.7,1,3,2.4,3c1.3,0,2.4-1.3,2.4-3c0-1.3-0.7-3-2.3-3C281.7,233.1,280.9,234.7,280.9,236.1z"/>
	<path d="M288.9,234.7c0-0.9,0-1.7-0.1-2.4h1.2l0,1.5h0.1c0.4-1,1.2-1.7,2.1-1.7c0.2,0,0.3,0,0.4,0v1.3c-0.1,0-0.3,0-0.5,0
		c-1,0-1.7,0.8-1.9,1.8c0,0.2-0.1,0.4-0.1,0.7v4.1h-1.4V234.7z"/>
	<path d="M296.2,230v2.2h2v1.1h-2v4.2c0,1,0.3,1.5,1.1,1.5c0.4,0,0.6,0,0.8-0.1l0.1,1.1c-0.3,0.1-0.7,0.2-1.2,0.2
		c-0.7,0-1.2-0.2-1.5-0.6c-0.4-0.4-0.5-1.1-0.5-2v-4.2h-1.2v-1.1h1.2v-1.9L296.2,230z"/>
</g>
<rect x="82" y="406" fill="#FFFFFF" width="178" height="25"/>
<rect x="392" y="52" fill="#FFFFFF" width="142" height="27"/>
<g>
	<path d="M491.3,66.3c-0.1-1.5-0.2-3.3-0.2-4.7h0c-0.4,1.3-0.8,2.6-1.4,4.1l-1.9,5.2h-1.1l-1.7-5.1c-0.5-1.5-0.9-2.9-1.2-4.2h0
		c0,1.3-0.1,3.2-0.2,4.8l-0.3,4.6h-1.3l0.8-10.8h1.8l1.8,5.2c0.4,1.3,0.8,2.5,1.1,3.6h0c0.3-1.1,0.7-2.3,1.1-3.6l1.9-5.2h1.8
		l0.7,10.8h-1.4L491.3,66.3z"/>
	<path d="M499.4,71l-0.1-1h0c-0.4,0.6-1.3,1.2-2.4,1.2c-1.6,0-2.4-1.1-2.4-2.2c0-1.9,1.7-2.9,4.7-2.9v-0.2c0-0.6-0.2-1.8-1.8-1.8
		c-0.7,0-1.5,0.2-2,0.6l-0.3-0.9c0.6-0.4,1.6-0.7,2.5-0.7c2.4,0,2.9,1.6,2.9,3.2v2.9c0,0.7,0,1.3,0.1,1.9H499.4z M499.2,67
		c-1.5,0-3.3,0.2-3.3,1.7c0,0.9,0.6,1.3,1.3,1.3c1,0,1.6-0.6,1.9-1.3c0-0.1,0.1-0.3,0.1-0.4V67z"/>
	<path d="M502.8,65.7c0-0.9,0-1.7-0.1-2.4h1.2l0,1.5h0.1c0.4-1,1.2-1.7,2.1-1.7c0.2,0,0.3,0,0.4,0v1.3c-0.1,0-0.3,0-0.5,0
		c-1,0-1.7,0.8-1.9,1.8c0,0.2-0.1,0.4-0.1,0.7V71h-1.4V65.7z"/>
	<path d="M509.5,66.8L509.5,66.8c0.2-0.3,0.5-0.6,0.7-0.9l2.3-2.7h1.7l-3,3.2l3.4,4.6h-1.7l-2.7-3.7l-0.7,0.8V71h-1.4V59.6h1.4V66.8
		z"/>
	<path d="M516.4,67.4c0,1.9,1.2,2.7,2.7,2.7c1,0,1.6-0.2,2.1-0.4l0.2,1c-0.5,0.2-1.3,0.5-2.6,0.5c-2.4,0-3.8-1.6-3.8-3.9
		s1.4-4.2,3.6-4.2c2.5,0,3.2,2.2,3.2,3.6c0,0.3,0,0.5,0,0.7H516.4z M520.6,66.4c0-0.9-0.4-2.3-2-2.3c-1.4,0-2,1.3-2.2,2.3H520.6z"/>
	<path d="M525.4,61v2.2h2v1.1h-2v4.2c0,1,0.3,1.5,1.1,1.5c0.4,0,0.6,0,0.8-0.1l0.1,1.1c-0.3,0.1-0.7,0.2-1.2,0.2
		c-0.7,0-1.2-0.2-1.5-0.6c-0.4-0.4-0.5-1.1-0.5-2v-4.2h-1.2v-1.1h1.2v-1.9L525.4,61z"/>
	<path d="M530.5,61.1c0,0.5-0.3,0.9-0.9,0.9c-0.5,0-0.8-0.4-0.8-0.9c0-0.5,0.4-0.9,0.9-0.9C530.2,60.2,530.5,60.6,530.5,61.1z
		 M529,71v-7.7h1.4V71H529z"/>
	<path d="M532.7,65.3c0-0.8,0-1.5-0.1-2.1h1.2l0.1,1.3h0c0.4-0.7,1.3-1.5,2.6-1.5c1.1,0,2.7,0.6,2.7,3.3V71h-1.4v-4.5
		c0-1.2-0.5-2.3-1.8-2.3c-0.9,0-1.6,0.7-1.9,1.4c-0.1,0.2-0.1,0.4-0.1,0.7V71h-1.4V65.3z"/>
	<path d="M548.2,63.3c0,0.6-0.1,1.2-0.1,2.1v4.5c0,1.8-0.4,2.9-1.1,3.5c-0.8,0.7-1.8,0.9-2.8,0.9c-0.9,0-2-0.2-2.6-0.6l0.4-1.1
		c0.5,0.3,1.3,0.6,2.3,0.6c1.4,0,2.5-0.8,2.5-2.7v-0.9h0c-0.4,0.7-1.3,1.3-2.5,1.3c-1.9,0-3.3-1.6-3.3-3.8c0-2.6,1.7-4.1,3.5-4.1
		c1.3,0,2.1,0.7,2.4,1.3h0l0.1-1.2H548.2z M546.8,66.3c0-0.2,0-0.4-0.1-0.6c-0.3-0.8-0.9-1.5-2-1.5c-1.3,0-2.3,1.1-2.3,2.9
		c0,1.5,0.8,2.8,2.3,2.8c0.9,0,1.6-0.5,2-1.4c0.1-0.2,0.1-0.5,0.1-0.8V66.3z"/>
</g>
<g>
	<path d="M118.2,412.8c0.7-0.1,1.6-0.2,2.7-0.2c1.4,0,2.4,0.3,3,0.9c0.6,0.5,0.9,1.3,0.9,2.3c0,1-0.3,1.7-0.8,2.3
		c-0.7,0.8-1.9,1.2-3.3,1.2c-0.4,0-0.8,0-1.1-0.1v4.3h-1.4V412.8z M119.6,418c0.3,0.1,0.7,0.1,1.2,0.1c1.7,0,2.7-0.8,2.7-2.3
		c0-1.4-1-2.1-2.5-2.1c-0.6,0-1.1,0-1.3,0.1V418z"/>
	<path d="M126.4,418.2c0-0.9,0-1.7-0.1-2.4h1.2l0,1.5h0.1c0.4-1,1.2-1.7,2.1-1.7c0.2,0,0.3,0,0.4,0v1.3c-0.1,0-0.3,0-0.5,0
		c-1,0-1.7,0.8-1.9,1.8c0,0.2-0.1,0.4-0.1,0.7v4.1h-1.4V418.2z"/>
	<path d="M138.5,419.6c0,2.9-2,4.1-3.9,4.1c-2.1,0-3.7-1.5-3.7-4c0-2.6,1.7-4.1,3.8-4.1C137,415.6,138.5,417.2,138.5,419.6z
		 M132.4,419.6c0,1.7,1,3,2.4,3c1.3,0,2.4-1.3,2.4-3c0-1.3-0.7-3-2.3-3C133.1,416.6,132.4,418.2,132.4,419.6z"/>
	<path d="M147,412.1v9.4c0,0.7,0,1.5,0.1,2h-1.3l-0.1-1.3h0c-0.4,0.9-1.4,1.5-2.6,1.5c-1.9,0-3.3-1.6-3.3-3.9c0-2.6,1.6-4.2,3.5-4.2
		c1.2,0,2,0.6,2.3,1.2h0v-4.6H147z M145.6,418.9c0-0.2,0-0.4-0.1-0.6c-0.2-0.9-1-1.6-2-1.6c-1.5,0-2.3,1.3-2.3,3
		c0,1.6,0.8,2.9,2.3,2.9c0.9,0,1.8-0.6,2.1-1.7c0-0.2,0.1-0.4,0.1-0.6V418.9z"/>
	<path d="M155.8,421.4c0,0.8,0,1.5,0.1,2.1h-1.2l-0.1-1.3h0c-0.4,0.6-1.2,1.4-2.6,1.4c-1.2,0-2.7-0.7-2.7-3.4v-4.5h1.4v4.3
		c0,1.5,0.4,2.5,1.7,2.5c0.9,0,1.6-0.7,1.9-1.3c0.1-0.2,0.1-0.5,0.1-0.7v-4.8h1.4V421.4z"/>
	<path d="M163.6,423.2c-0.4,0.2-1.2,0.4-2.2,0.4c-2.3,0-3.9-1.6-3.9-4c0-2.4,1.6-4.1,4.2-4.1c0.8,0,1.6,0.2,2,0.4l-0.3,1.1
		c-0.3-0.2-0.9-0.4-1.6-0.4c-1.8,0-2.7,1.3-2.7,2.9c0,1.8,1.2,2.9,2.7,2.9c0.8,0,1.3-0.2,1.7-0.4L163.6,423.2z"/>
	<path d="M167.2,413.5v2.2h2v1.1h-2v4.2c0,1,0.3,1.5,1.1,1.5c0.4,0,0.6,0,0.8-0.1l0.1,1.1c-0.3,0.1-0.7,0.2-1.2,0.2
		c-0.7,0-1.2-0.2-1.5-0.6c-0.4-0.4-0.5-1.1-0.5-2v-4.2h-1.2v-1.1h1.2v-1.9L167.2,413.5z"/>
	<path d="M179.8,418.4h-4.2v3.9h4.7v1.2h-6.1v-10.8h5.8v1.2h-4.4v3.4h4.2V418.4z"/>
	<path d="M182.5,415.8l1.5,4.4c0.3,0.7,0.5,1.3,0.6,2h0c0.2-0.6,0.4-1.3,0.7-2l1.5-4.4h1.5l-3,7.7h-1.3l-2.9-7.7H182.5z"/>
	<path d="M193.9,423.5l-0.1-1h0c-0.4,0.6-1.3,1.2-2.4,1.2c-1.6,0-2.4-1.1-2.4-2.2c0-1.9,1.7-2.9,4.7-2.9v-0.2c0-0.6-0.2-1.8-1.8-1.8
		c-0.7,0-1.5,0.2-2,0.6l-0.3-0.9c0.6-0.4,1.6-0.7,2.5-0.7c2.4,0,2.9,1.6,2.9,3.2v2.9c0,0.7,0,1.3,0.1,1.9H193.9z M193.7,419.5
		c-1.5,0-3.3,0.2-3.3,1.7c0,0.9,0.6,1.3,1.3,1.3c1,0,1.6-0.6,1.9-1.3c0-0.1,0.1-0.3,0.1-0.4V419.5z"/>
	<path d="M197.3,417.8c0-0.8,0-1.5-0.1-2.1h1.2l0.1,1.3h0c0.4-0.7,1.3-1.5,2.6-1.5c1.1,0,2.7,0.6,2.7,3.3v4.6h-1.4V419
		c0-1.2-0.5-2.3-1.8-2.3c-0.9,0-1.6,0.7-1.9,1.4c-0.1,0.2-0.1,0.4-0.1,0.7v4.7h-1.4V417.8z"/>
	<path d="M212.8,415.8c0,0.6-0.1,1.2-0.1,2.1v4.5c0,1.8-0.4,2.9-1.1,3.5c-0.8,0.7-1.8,0.9-2.8,0.9c-0.9,0-2-0.2-2.6-0.6l0.4-1.1
		c0.5,0.3,1.3,0.6,2.3,0.6c1.4,0,2.5-0.8,2.5-2.7v-0.9h0c-0.4,0.7-1.3,1.3-2.5,1.3c-1.9,0-3.3-1.6-3.3-3.8c0-2.6,1.7-4.1,3.5-4.1
		c1.3,0,2.1,0.7,2.4,1.3h0l0.1-1.2H212.8z M211.4,418.8c0-0.2,0-0.4-0.1-0.6c-0.3-0.8-0.9-1.5-2-1.5c-1.3,0-2.3,1.1-2.3,2.9
		c0,1.5,0.8,2.8,2.3,2.8c0.9,0,1.6-0.5,2-1.4c0.1-0.2,0.1-0.5,0.1-0.8V418.8z"/>
	<path d="M215.9,419.9c0,1.9,1.2,2.7,2.7,2.7c1,0,1.6-0.2,2.1-0.4l0.2,1c-0.5,0.2-1.3,0.5-2.6,0.5c-2.4,0-3.8-1.6-3.8-3.9
		s1.4-4.2,3.6-4.2c2.5,0,3.2,2.2,3.2,3.6c0,0.3,0,0.5,0,0.7H215.9z M220,418.9c0-0.9-0.4-2.3-2-2.3c-1.4,0-2,1.3-2.2,2.3H220z"/>
	<path d="M223.1,412.1h1.4v11.4h-1.4V412.1z"/>
	<path d="M228.5,413.6c0,0.5-0.3,0.9-0.9,0.9c-0.5,0-0.8-0.4-0.8-0.9c0-0.5,0.4-0.9,0.9-0.9C228.1,412.7,228.5,413.1,228.5,413.6z
		 M226.9,423.5v-7.7h1.4v7.7H226.9z"/>
	<path d="M230.5,422.1c0.4,0.3,1.2,0.6,1.9,0.6c1,0,1.5-0.5,1.5-1.2c0-0.7-0.4-1-1.4-1.4c-1.4-0.5-2-1.3-2-2.2c0-1.2,1-2.3,2.7-2.3
		c0.8,0,1.5,0.2,1.9,0.5l-0.4,1c-0.3-0.2-0.9-0.4-1.6-0.4c-0.8,0-1.3,0.5-1.3,1.1c0,0.6,0.5,0.9,1.5,1.3c1.3,0.5,2,1.2,2,2.3
		c0,1.4-1.1,2.3-2.9,2.3c-0.8,0-1.6-0.2-2.2-0.5L230.5,422.1z"/>
	<path d="M238.7,413.5v2.2h2v1.1h-2v4.2c0,1,0.3,1.5,1.1,1.5c0.4,0,0.6,0,0.8-0.1l0.1,1.1c-0.3,0.1-0.7,0.2-1.2,0.2
		c-0.7,0-1.2-0.2-1.5-0.6c-0.4-0.4-0.5-1.1-0.5-2v-4.2h-1.2v-1.1h1.2v-1.9L238.7,413.5z"/>
	<path d="M242.1,422.1c0.4,0.3,1.2,0.6,1.9,0.6c1,0,1.5-0.5,1.5-1.2c0-0.7-0.4-1-1.4-1.4c-1.4-0.5-2-1.3-2-2.2c0-1.2,1-2.3,2.7-2.3
		c0.8,0,1.5,0.2,1.9,0.5l-0.4,1c-0.3-0.2-0.9-0.4-1.6-0.4c-0.8,0-1.3,0.5-1.3,1.1c0,0.6,0.5,0.9,1.5,1.3c1.3,0.5,2,1.2,2,2.3
		c0,1.4-1.1,2.3-2.9,2.3c-0.8,0-1.6-0.2-2.2-0.5L242.1,422.1z"/>
</g>
<g>
	<path d="M616.3,130.4H613v-1.2h8v1.2h-3.3v9.6h-1.4V130.4z"/>
	<path d="M621.4,134.7c0-0.9,0-1.7-0.1-2.4h1.2l0,1.5h0.1c0.4-1,1.2-1.7,2.1-1.7c0.2,0,0.3,0,0.4,0v1.3c-0.1,0-0.3,0-0.5,0
		c-1,0-1.7,0.8-1.9,1.8c0,0.2-0.1,0.4-0.1,0.7v4.1h-1.4V134.7z"/>
	<path d="M630.8,140l-0.1-1h0c-0.4,0.6-1.3,1.2-2.4,1.2c-1.6,0-2.4-1.1-2.4-2.2c0-1.9,1.7-2.9,4.7-2.9v-0.2c0-0.6-0.2-1.8-1.8-1.8
		c-0.7,0-1.5,0.2-2,0.6l-0.3-0.9c0.6-0.4,1.6-0.7,2.5-0.7c2.4,0,2.9,1.6,2.9,3.2v2.9c0,0.7,0,1.3,0.1,1.9H630.8z M630.6,136
		c-1.5,0-3.3,0.2-3.3,1.7c0,0.9,0.6,1.3,1.3,1.3c1,0,1.6-0.6,1.9-1.3c0-0.1,0.1-0.3,0.1-0.4V136z"/>
	<path d="M635.8,130.1c0,0.5-0.3,0.9-0.9,0.9c-0.5,0-0.8-0.4-0.8-0.9c0-0.5,0.4-0.9,0.9-0.9C635.5,129.2,635.8,129.6,635.8,130.1z
		 M634.3,140v-7.7h1.4v7.7H634.3z"/>
	<path d="M638,134.3c0-0.8,0-1.5-0.1-2.1h1.2l0.1,1.3h0c0.4-0.7,1.3-1.5,2.6-1.5c1.1,0,2.7,0.6,2.7,3.3v4.6h-1.4v-4.5
		c0-1.2-0.5-2.3-1.8-2.3c-0.9,0-1.6,0.7-1.9,1.4c-0.1,0.2-0.1,0.4-0.1,0.7v4.7H638V134.3z"/>
	<path d="M648.5,130.1c0,0.5-0.3,0.9-0.9,0.9c-0.5,0-0.8-0.4-0.8-0.9c0-0.5,0.4-0.9,0.9-0.9C648.1,129.2,648.5,129.6,648.5,130.1z
		 M646.9,140v-7.7h1.4v7.7H646.9z"/>
	<path d="M650.6,134.3c0-0.8,0-1.5-0.1-2.1h1.2l0.1,1.3h0c0.4-0.7,1.3-1.5,2.6-1.5c1.1,0,2.7,0.6,2.7,3.3v4.6h-1.4v-4.5
		c0-1.2-0.5-2.3-1.8-2.3c-0.9,0-1.6,0.7-1.9,1.4c-0.1,0.2-0.1,0.4-0.1,0.7v4.7h-1.4V134.3z"/>
	<path d="M666.2,132.3c0,0.6-0.1,1.2-0.1,2.1v4.5c0,1.8-0.4,2.9-1.1,3.5c-0.8,0.7-1.8,0.9-2.8,0.9c-0.9,0-2-0.2-2.6-0.6l0.4-1.1
		c0.5,0.3,1.3,0.6,2.3,0.6c1.4,0,2.5-0.8,2.5-2.7v-0.9h0c-0.4,0.7-1.3,1.3-2.5,1.3c-1.9,0-3.3-1.6-3.3-3.8c0-2.6,1.7-4.1,3.5-4.1
		c1.3,0,2.1,0.7,2.4,1.3h0l0.1-1.2H666.2z M664.7,135.3c0-0.2,0-0.4-0.1-0.6c-0.3-0.8-0.9-1.5-2-1.5c-1.3,0-2.3,1.1-2.3,2.9
		c0,1.5,0.8,2.8,2.3,2.8c0.9,0,1.6-0.5,2-1.4c0.1-0.2,0.1-0.5,0.1-0.8V135.3z"/>
</g>
<rect x="189" y="131" fill="#FFFFFF" width="142" height="27"/>
<g>
	<path d="M191,147.3c0.6,0.4,1.5,0.7,2.5,0.7c1.4,0,2.3-0.8,2.3-1.8c0-1-0.6-1.6-2-2.1c-1.8-0.6-2.8-1.5-2.8-3.1
		c0-1.7,1.4-2.9,3.5-2.9c1.1,0,1.9,0.3,2.4,0.5l-0.4,1.1c-0.4-0.2-1.1-0.5-2-0.5c-1.5,0-2,0.9-2,1.6c0,1,0.7,1.5,2.1,2.1
		c1.8,0.7,2.8,1.6,2.8,3.2c0,1.7-1.2,3.1-3.8,3.1c-1,0-2.2-0.3-2.8-0.7L191,147.3z"/>
	<path d="M206.2,145.1c0,2.9-2,4.1-3.9,4.1c-2.1,0-3.7-1.5-3.7-4c0-2.6,1.7-4.1,3.8-4.1C204.7,141.1,206.2,142.7,206.2,145.1z
		 M200,145.1c0,1.7,1,3,2.4,3c1.3,0,2.4-1.3,2.4-3c0-1.3-0.7-3-2.3-3C200.7,142.1,200,143.7,200,145.1z"/>
	<path d="M207.9,137.6h1.4V149h-1.4V137.6z"/>
	<path d="M218.2,146.9c0,0.8,0,1.5,0.1,2.1H217l-0.1-1.3h0c-0.4,0.6-1.2,1.4-2.6,1.4c-1.2,0-2.7-0.7-2.7-3.4v-4.5h1.4v4.3
		c0,1.5,0.4,2.5,1.7,2.5c0.9,0,1.6-0.7,1.9-1.3c0.1-0.2,0.1-0.5,0.1-0.7v-4.8h1.4V146.9z"/>
	<path d="M222.2,139v2.2h2v1.1h-2v4.2c0,1,0.3,1.5,1.1,1.5c0.4,0,0.6,0,0.8-0.1l0.1,1.1c-0.3,0.1-0.7,0.2-1.2,0.2
		c-0.7,0-1.2-0.2-1.5-0.6c-0.4-0.4-0.5-1.1-0.5-2v-4.2h-1.2v-1.1h1.2v-1.9L222.2,139z"/>
	<path d="M227.4,139.1c0,0.5-0.3,0.9-0.9,0.9c-0.5,0-0.8-0.4-0.8-0.9c0-0.5,0.4-0.9,0.9-0.9C227.1,138.2,227.4,138.6,227.4,139.1z
		 M225.8,149v-7.7h1.4v7.7H225.8z"/>
	<path d="M236.6,145.1c0,2.9-2,4.1-3.9,4.1c-2.1,0-3.7-1.5-3.7-4c0-2.6,1.7-4.1,3.8-4.1C235.1,141.1,236.6,142.7,236.6,145.1z
		 M230.4,145.1c0,1.7,1,3,2.4,3c1.3,0,2.4-1.3,2.4-3c0-1.3-0.7-3-2.3-3C231.2,142.1,230.4,143.7,230.4,145.1z"/>
	<path d="M238.4,143.3c0-0.8,0-1.5-0.1-2.1h1.2l0.1,1.3h0c0.4-0.7,1.3-1.5,2.6-1.5c1.1,0,2.7,0.6,2.7,3.3v4.6h-1.4v-4.5
		c0-1.2-0.5-2.3-1.8-2.3c-0.9,0-1.6,0.7-1.9,1.4c-0.1,0.2-0.1,0.4-0.1,0.7v4.7h-1.4V143.3z"/>
	<path d="M247,147.6c0.4,0.3,1.2,0.6,1.9,0.6c1,0,1.5-0.5,1.5-1.2c0-0.7-0.4-1-1.4-1.4c-1.4-0.5-2-1.3-2-2.2c0-1.2,1-2.3,2.7-2.3
		c0.8,0,1.5,0.2,1.9,0.5l-0.4,1c-0.3-0.2-0.9-0.4-1.6-0.4c-0.8,0-1.3,0.5-1.3,1.1c0,0.6,0.5,0.9,1.5,1.3c1.3,0.5,2,1.2,2,2.3
		c0,1.4-1.1,2.3-2.9,2.3c-0.8,0-1.6-0.2-2.2-0.5L247,147.6z"/>
	<path d="M258.8,145.6l-1.1,3.4h-1.4l3.7-10.8h1.7l3.7,10.8h-1.5l-1.2-3.4H258.8z M262.3,144.5l-1.1-3.1c-0.2-0.7-0.4-1.3-0.6-2h0
		c-0.2,0.6-0.3,1.3-0.5,2l-1.1,3.1H262.3z"/>
	<path d="M266.7,143.7c0-0.9,0-1.7-0.1-2.4h1.2l0,1.5h0.1c0.4-1,1.2-1.7,2.1-1.7c0.2,0,0.3,0,0.4,0v1.3c-0.1,0-0.3,0-0.5,0
		c-1,0-1.7,0.8-1.9,1.8c0,0.2-0.1,0.4-0.1,0.7v4.1h-1.4V143.7z"/>
	<path d="M277.3,148.7c-0.4,0.2-1.2,0.4-2.2,0.4c-2.3,0-3.9-1.6-3.9-4c0-2.4,1.6-4.1,4.2-4.1c0.8,0,1.6,0.2,2,0.4l-0.3,1.1
		c-0.3-0.2-0.9-0.4-1.6-0.4c-1.8,0-2.7,1.3-2.7,2.9c0,1.8,1.2,2.9,2.7,2.9c0.8,0,1.3-0.2,1.7-0.4L277.3,148.7z"/>
	<path d="M278.9,137.6h1.4v4.8h0c0.2-0.4,0.6-0.8,1-1c0.4-0.2,0.9-0.4,1.4-0.4c1,0,2.7,0.6,2.7,3.3v4.6h-1.4v-4.4
		c0-1.2-0.5-2.3-1.8-2.3c-0.9,0-1.6,0.6-1.9,1.4c-0.1,0.2-0.1,0.4-0.1,0.7v4.7h-1.4V137.6z"/>
	<path d="M289.4,139.1c0,0.5-0.3,0.9-0.9,0.9c-0.5,0-0.8-0.4-0.8-0.9c0-0.5,0.4-0.9,0.9-0.9C289.1,138.2,289.4,138.6,289.4,139.1z
		 M287.8,149v-7.7h1.4v7.7H287.8z"/>
	<path d="M293.3,139v2.2h2v1.1h-2v4.2c0,1,0.3,1.5,1.1,1.5c0.4,0,0.6,0,0.8-0.1l0.1,1.1c-0.3,0.1-0.7,0.2-1.2,0.2
		c-0.7,0-1.2-0.2-1.5-0.6c-0.4-0.4-0.5-1.1-0.5-2v-4.2h-1.2v-1.1h1.2v-1.9L293.3,139z"/>
	<path d="M297.6,145.4c0,1.9,1.2,2.7,2.7,2.7c1,0,1.6-0.2,2.1-0.4l0.2,1c-0.5,0.2-1.3,0.5-2.6,0.5c-2.4,0-3.8-1.6-3.8-3.9
		s1.4-4.2,3.6-4.2c2.5,0,3.2,2.2,3.2,3.6c0,0.3,0,0.5,0,0.7H297.6z M301.7,144.4c0-0.9-0.4-2.3-2-2.3c-1.4,0-2,1.3-2.2,2.3H301.7z"
		/>
	<path d="M310.3,148.7c-0.4,0.2-1.2,0.4-2.2,0.4c-2.3,0-3.9-1.6-3.9-4c0-2.4,1.6-4.1,4.2-4.1c0.8,0,1.6,0.2,2,0.4l-0.3,1.1
		c-0.3-0.2-0.9-0.4-1.6-0.4c-1.8,0-2.7,1.3-2.7,2.9c0,1.8,1.2,2.9,2.7,2.9c0.8,0,1.3-0.2,1.7-0.4L310.3,148.7z"/>
	<path d="M313.9,139v2.2h2v1.1h-2v4.2c0,1,0.3,1.5,1.1,1.5c0.4,0,0.6,0,0.8-0.1l0.1,1.1c-0.3,0.1-0.7,0.2-1.2,0.2
		c-0.7,0-1.2-0.2-1.5-0.6c-0.4-0.4-0.5-1.1-0.5-2v-4.2h-1.2v-1.1h1.2v-1.9L313.9,139z"/>
	<path d="M317.3,147.6c0.4,0.3,1.2,0.6,1.9,0.6c1,0,1.5-0.5,1.5-1.2c0-0.7-0.4-1-1.4-1.4c-1.4-0.5-2-1.3-2-2.2c0-1.2,1-2.3,2.7-2.3
		c0.8,0,1.5,0.2,1.9,0.5l-0.4,1c-0.3-0.2-0.9-0.4-1.6-0.4c-0.8,0-1.3,0.5-1.3,1.1c0,0.6,0.5,0.9,1.5,1.3c1.3,0.5,2,1.2,2,2.3
		c0,1.4-1.1,2.3-2.9,2.3c-0.8,0-1.6-0.2-2.2-0.5L317.3,147.6z"/>
</g>
<path fill="none" stroke="#ADADAD" stroke-width="3" stroke-miterlimit="10" stroke-dasharray="25.835" d="M921,483
	c-8.2,1.4-704-52-956-426"/>
<rect x="272" y="546" fill="#FFFFFF" width="142" height="27"/>
<g>
	<path d="M319.8,558.9h-4.2v3.9h4.7v1.2h-6.1v-10.8h5.8v1.2h-4.4v3.4h4.2V558.9z"/>
	<path d="M322,558.3c0-0.8,0-1.5-0.1-2.1h1.2l0.1,1.3h0c0.4-0.7,1.3-1.5,2.6-1.5c1.1,0,2.7,0.6,2.7,3.3v4.6h-1.4v-4.5
		c0-1.2-0.5-2.3-1.8-2.3c-0.9,0-1.6,0.7-1.9,1.4c-0.1,0.2-0.1,0.4-0.1,0.7v4.7H322V558.3z"/>
	<path d="M337.6,552.6v9.4c0,0.7,0,1.5,0.1,2h-1.3l-0.1-1.3h0c-0.4,0.9-1.4,1.5-2.6,1.5c-1.9,0-3.3-1.6-3.3-3.9
		c0-2.6,1.6-4.2,3.5-4.2c1.2,0,2,0.6,2.3,1.2h0v-4.6H337.6z M336.2,559.4c0-0.2,0-0.4-0.1-0.6c-0.2-0.9-1-1.6-2-1.6
		c-1.5,0-2.3,1.3-2.3,3c0,1.6,0.8,2.9,2.3,2.9c0.9,0,1.8-0.6,2.1-1.7c0-0.2,0.1-0.4,0.1-0.6V559.4z"/>
	<path d="M349.8,561.9c0,0.8,0,1.5,0.1,2.1h-1.2l-0.1-1.3h0c-0.4,0.6-1.2,1.4-2.6,1.4c-1.2,0-2.7-0.7-2.7-3.4v-4.5h1.4v4.3
		c0,1.5,0.4,2.5,1.7,2.5c0.9,0,1.6-0.7,1.9-1.3c0.1-0.2,0.1-0.5,0.1-0.7v-4.8h1.4V561.9z"/>
	<path d="M352,562.6c0.4,0.3,1.2,0.6,1.9,0.6c1,0,1.5-0.5,1.5-1.2c0-0.7-0.4-1-1.4-1.4c-1.4-0.5-2-1.3-2-2.2c0-1.2,1-2.3,2.7-2.3
		c0.8,0,1.5,0.2,1.9,0.5l-0.4,1c-0.3-0.2-0.9-0.4-1.6-0.4c-0.8,0-1.3,0.5-1.3,1.1c0,0.6,0.5,0.9,1.5,1.3c1.3,0.5,2,1.2,2,2.3
		c0,1.4-1.1,2.3-2.9,2.3c-0.8,0-1.6-0.2-2.2-0.5L352,562.6z"/>
	<path d="M359.3,560.4c0,1.9,1.2,2.7,2.7,2.7c1,0,1.6-0.2,2.1-0.4l0.2,1c-0.5,0.2-1.3,0.5-2.6,0.5c-2.4,0-3.8-1.6-3.8-3.9
		c0-2.3,1.4-4.2,3.6-4.2c2.5,0,3.2,2.2,3.2,3.7c0,0.3,0,0.5,0,0.7H359.3z M363.4,559.4c0-0.9-0.4-2.3-2-2.3c-1.4,0-2,1.3-2.2,2.3
		H363.4z"/>
	<path d="M366.5,558.7c0-0.9,0-1.7-0.1-2.4h1.2l0,1.5h0.1c0.4-1,1.2-1.7,2.1-1.7c0.2,0,0.3,0,0.4,0v1.3c-0.1,0-0.3,0-0.5,0
		c-1,0-1.7,0.8-1.9,1.8c0,0.2-0.1,0.4-0.1,0.7v4.1h-1.4V558.7z"/>
	<path d="M371.5,562.6c0.4,0.3,1.2,0.6,1.9,0.6c1,0,1.5-0.5,1.5-1.2c0-0.7-0.4-1-1.4-1.4c-1.4-0.5-2-1.3-2-2.2c0-1.2,1-2.3,2.7-2.3
		c0.8,0,1.5,0.2,1.9,0.5l-0.4,1c-0.3-0.2-0.9-0.4-1.6-0.4c-0.8,0-1.3,0.5-1.3,1.1c0,0.6,0.5,0.9,1.5,1.3c1.3,0.5,2,1.2,2,2.3
		c0,1.4-1.1,2.3-2.9,2.3c-0.8,0-1.6-0.2-2.2-0.5L371.5,562.6z"/>
</g>
<path fill="none" stroke="#ADADAD" stroke-width="3" stroke-miterlimit="10" stroke-dasharray="25.835" d="M280,593
	c0,0,194-358,660-315"/>
<g>
	<path fill="#706F6F" d="M562,400c0,5.5-4.5,10-10,10H409c-5.5,0-10-4.5-10-10v-69c0-5.5,4.5-10,10-10h143c5.5,0,10,4.5,10,10V400z"
		/>
	<path fill="none" stroke="#FCFAFA" stroke-miterlimit="10" d="M562.5,399.5c0,5.5-4.5,10-10,10h-143c-5.5,0-10-4.5-10-10v-69
		c0-5.5,4.5-10,10-10h143c5.5,0,10,4.5,10,10V399.5z"/>
</g>
<rect x="646" y="274" fill="#FFFFFF" width="100" height="23"/>
<g>
	<path fill="#FCFCFC" d="M414.8,356.7c1.1-0.2,2.6-0.3,4.1-0.3c2.6,0,4.2,0.5,5.5,1.4c1.4,1,2.3,2.7,2.3,5.1c0,2.6-0.9,4.4-2.2,5.5
		c-1.4,1.2-3.6,1.7-6.2,1.7c-1.6,0-2.7-0.1-3.5-0.2V356.7z M417.9,367.7c0.3,0.1,0.7,0.1,1.1,0.1c2.8,0,4.6-1.5,4.6-4.7
		c0-2.8-1.6-4.3-4.2-4.3c-0.7,0-1.1,0.1-1.4,0.1V367.7z"/>
	<path fill="#FCFCFC" d="M438.3,365c0,3.6-2.5,5.2-5.2,5.2c-2.9,0-5.1-1.9-5.1-5c0-3.2,2.1-5.2,5.2-5.2
		C436.3,360,438.3,362.1,438.3,365z M431.2,365.1c0,1.7,0.7,2.9,2,2.9c1.2,0,1.9-1.2,1.9-2.9c0-1.5-0.6-2.9-1.9-2.9
		C431.8,362.2,431.2,363.7,431.2,365.1z"/>
	<path fill="#FCFCFC" d="M447.6,369.8c-0.5,0.2-1.6,0.4-2.7,0.4c-3.2,0-5.2-1.9-5.2-5c0-2.9,2-5.2,5.6-5.2c0.8,0,1.7,0.1,2.3,0.4
		l-0.5,2.3c-0.4-0.2-0.9-0.3-1.7-0.3c-1.6,0-2.6,1.1-2.6,2.7c0,1.8,1.2,2.7,2.7,2.7c0.7,0,1.3-0.1,1.7-0.3L447.6,369.8z"/>
	<path fill="#FCFCFC" d="M458.5,366.9c0,1.3,0,2.3,0.1,3.1h-2.6l-0.1-1.4h-0.1c-0.4,0.6-1.3,1.6-3.1,1.6c-2,0-3.4-1.2-3.4-4.3v-5.7
		h3.1v5.3c0,1.4,0.5,2.3,1.5,2.3c0.8,0,1.3-0.6,1.5-1.1c0.1-0.2,0.1-0.4,0.1-0.7v-5.8h3.1V366.9z"/>
	<path fill="#FCFCFC" d="M460.9,363.3c0-1.2,0-2.3-0.1-3.1h2.6l0.1,1.3h0.1c0.4-0.6,1.3-1.5,3-1.5c1.3,0,2.3,0.6,2.7,1.7h0
		c0.4-0.5,0.8-0.9,1.3-1.2c0.5-0.3,1.1-0.5,1.9-0.5c1.9,0,3.3,1.3,3.3,4.2v5.8h-3v-5.3c0-1.4-0.5-2.2-1.4-2.2
		c-0.7,0-1.2,0.5-1.4,1.1c-0.1,0.2-0.1,0.5-0.1,0.8v5.7h-3v-5.5c0-1.2-0.4-2.1-1.4-2.1c-0.8,0-1.2,0.6-1.4,1.1
		c-0.1,0.2-0.1,0.5-0.1,0.8v5.7h-3V363.3z"/>
	<path fill="#FCFCFC" d="M480.5,366.1c0.1,1.3,1.3,1.9,2.8,1.9c1,0,1.9-0.1,2.7-0.4l0.4,2.1c-1,0.4-2.2,0.6-3.5,0.6
		c-3.3,0-5.2-1.9-5.2-5c0-2.5,1.5-5.2,4.9-5.2c3.2,0,4.4,2.5,4.4,4.9c0,0.5-0.1,1-0.1,1.2H480.5z M484,364c0-0.7-0.3-2-1.7-2
		c-1.3,0-1.8,1.2-1.9,2H484z"/>
	<path fill="#FCFCFC" d="M488.7,363.3c0-1.2,0-2.3-0.1-3.1h2.6l0.1,1.3h0.1c0.4-0.6,1.4-1.6,3-1.6c2,0,3.5,1.3,3.5,4.2v5.8h-3v-5.4
		c0-1.3-0.4-2.1-1.5-2.1c-0.8,0-1.3,0.6-1.5,1.1c-0.1,0.2-0.1,0.5-0.1,0.8v5.6h-3V363.3z"/>
	<path fill="#FCFCFC" d="M503.7,357.4v2.8h2.2v2.2h-2.2v3.5c0,1.2,0.3,1.7,1.2,1.7c0.4,0,0.7,0,0.9-0.1l0,2.3
		c-0.4,0.2-1.1,0.3-2,0.3c-1,0-1.8-0.3-2.3-0.8c-0.6-0.6-0.8-1.5-0.8-2.9v-4h-1.3v-2.2h1.3v-2.1L503.7,357.4z"/>
	<path fill="#FCFCFC" d="M513.2,370l-0.2-1h-0.1c-0.6,0.8-1.6,1.2-2.8,1.2c-2,0-3.2-1.4-3.2-3c0-2.5,2.3-3.8,5.7-3.7v-0.1
		c0-0.5-0.3-1.3-1.8-1.3c-1,0-2.1,0.3-2.7,0.7l-0.6-2c0.7-0.4,2-0.9,3.8-0.9c3.3,0,4.3,1.9,4.3,4.2v3.4c0,0.9,0,1.8,0.1,2.4H513.2z
		 M512.8,365.4c-1.6,0-2.8,0.4-2.8,1.5c0,0.8,0.5,1.2,1.2,1.2c0.8,0,1.4-0.5,1.6-1.1c0-0.2,0.1-0.3,0.1-0.5V365.4z"/>
	<path fill="#FCFCFC" d="M521.4,357.4v2.8h2.2v2.2h-2.2v3.5c0,1.2,0.3,1.7,1.2,1.7c0.4,0,0.7,0,0.9-0.1l0,2.3
		c-0.4,0.2-1.1,0.3-2,0.3c-1,0-1.8-0.3-2.3-0.8c-0.6-0.6-0.8-1.5-0.8-2.9v-4h-1.3v-2.2h1.3v-2.1L521.4,357.4z"/>
	<path fill="#FCFCFC" d="M528.5,357.5c0,0.8-0.6,1.5-1.6,1.5c-1,0-1.6-0.7-1.6-1.5c0-0.9,0.6-1.5,1.6-1.5
		C527.9,356,528.5,356.6,528.5,357.5z M525.4,370v-9.8h3v9.8H525.4z"/>
	<path fill="#FCFCFC" d="M540.5,365c0,3.6-2.5,5.2-5.2,5.2c-2.9,0-5.1-1.9-5.1-5c0-3.2,2.1-5.2,5.2-5.2
		C538.5,360,540.5,362.1,540.5,365z M533.4,365.1c0,1.7,0.7,2.9,2,2.9c1.2,0,1.9-1.2,1.9-2.9c0-1.5-0.6-2.9-1.9-2.9
		C534,362.2,533.4,363.7,533.4,365.1z"/>
	<path fill="#FCFCFC" d="M542.4,363.3c0-1.2,0-2.3-0.1-3.1h2.6l0.1,1.3h0.1c0.4-0.6,1.4-1.6,3-1.6c2,0,3.5,1.3,3.5,4.2v5.8h-3v-5.4
		c0-1.3-0.4-2.1-1.5-2.1c-0.8,0-1.3,0.6-1.5,1.1c-0.1,0.2-0.1,0.5-0.1,0.8v5.6h-3V363.3z"/>
</g>
<rect x="627" y="448" fill="#FFFFFF" width="142" height="27"/>
<g>
	<path d="M644.6,455.2V466h-1.4v-10.8H644.6z"/>
	<path d="M647.2,460.3c0-0.8,0-1.5-0.1-2.1h1.2l0.1,1.3h0c0.4-0.7,1.3-1.5,2.6-1.5c1.1,0,2.7,0.6,2.7,3.3v4.6h-1.4v-4.5
		c0-1.2-0.5-2.3-1.8-2.3c-0.9,0-1.6,0.7-1.9,1.4c-0.1,0.2-0.1,0.4-0.1,0.7v4.7h-1.4V460.3z"/>
	<path d="M657.7,456v2.2h2v1.1h-2v4.2c0,1,0.3,1.5,1.1,1.5c0.4,0,0.6,0,0.8-0.1l0.1,1.1c-0.3,0.1-0.7,0.2-1.2,0.2
		c-0.7,0-1.2-0.2-1.5-0.6c-0.4-0.4-0.5-1.1-0.5-2v-4.2h-1.2v-1.1h1.2v-1.9L657.7,456z"/>
	<path d="M662,462.4c0,1.9,1.2,2.7,2.7,2.7c1,0,1.6-0.2,2.1-0.4l0.2,1c-0.5,0.2-1.3,0.5-2.6,0.5c-2.4,0-3.8-1.6-3.8-3.9
		c0-2.3,1.4-4.2,3.6-4.2c2.5,0,3.2,2.2,3.2,3.7c0,0.3,0,0.5,0,0.7H662z M666.1,461.4c0-0.9-0.4-2.3-2-2.3c-1.4,0-2,1.3-2.2,2.3
		H666.1z"/>
	<path d="M669.2,460.7c0-0.9,0-1.7-0.1-2.4h1.2l0,1.5h0.1c0.4-1,1.2-1.7,2.1-1.7c0.2,0,0.3,0,0.4,0v1.3c-0.1,0-0.3,0-0.5,0
		c-1,0-1.7,0.8-1.9,1.8c0,0.2-0.1,0.4-0.1,0.7v4.1h-1.4V460.7z"/>
	<path d="M674.5,460.3c0-0.8,0-1.5-0.1-2.1h1.2l0.1,1.3h0c0.4-0.7,1.3-1.5,2.6-1.5c1.1,0,2.7,0.6,2.7,3.3v4.6h-1.4v-4.5
		c0-1.2-0.5-2.3-1.8-2.3c-0.9,0-1.6,0.7-1.9,1.4c-0.1,0.2-0.1,0.4-0.1,0.7v4.7h-1.4V460.3z"/>
	<path d="M687.6,466l-0.1-1h0c-0.4,0.6-1.3,1.2-2.4,1.2c-1.6,0-2.4-1.1-2.4-2.2c0-1.9,1.7-2.9,4.7-2.9v-0.2c0-0.6-0.2-1.8-1.8-1.8
		c-0.7,0-1.5,0.2-2,0.6l-0.3-0.9c0.6-0.4,1.6-0.7,2.5-0.7c2.4,0,2.9,1.6,2.9,3.2v2.9c0,0.7,0,1.3,0.1,1.9H687.6z M687.4,462
		c-1.5,0-3.3,0.2-3.3,1.7c0,0.9,0.6,1.3,1.3,1.3c1,0,1.6-0.6,1.9-1.3c0-0.1,0.1-0.3,0.1-0.4V462z"/>
	<path d="M691.1,454.6h1.4V466h-1.4V454.6z"/>
	<path d="M699,462.4c0,1.9,1.2,2.7,2.7,2.7c1,0,1.6-0.2,2.1-0.4l0.2,1c-0.5,0.2-1.3,0.5-2.6,0.5c-2.4,0-3.8-1.6-3.8-3.9
		c0-2.3,1.4-4.2,3.6-4.2c2.5,0,3.2,2.2,3.2,3.7c0,0.3,0,0.5,0,0.7H699z M703.2,461.4c0-0.9-0.4-2.3-2-2.3c-1.4,0-2,1.3-2.2,2.3
		H703.2z"/>
	<path d="M706.3,460.3c0-0.8,0-1.5-0.1-2.1h1.2l0.1,1.3h0c0.4-0.7,1.3-1.5,2.6-1.5c1.1,0,2.7,0.6,2.7,3.3v4.6h-1.4v-4.5
		c0-1.2-0.5-2.3-1.8-2.3c-0.9,0-1.6,0.7-1.9,1.4c-0.1,0.2-0.1,0.4-0.1,0.7v4.7h-1.4V460.3z"/>
	<path d="M721.8,458.3c0,0.6-0.1,1.2-0.1,2.1v4.5c0,1.8-0.4,2.9-1.1,3.5c-0.8,0.7-1.8,0.9-2.8,0.9c-0.9,0-2-0.2-2.6-0.6l0.4-1.1
		c0.5,0.3,1.3,0.6,2.3,0.6c1.4,0,2.5-0.8,2.5-2.7v-0.9h0c-0.4,0.7-1.3,1.3-2.5,1.3c-1.9,0-3.3-1.6-3.3-3.8c0-2.6,1.7-4.1,3.5-4.1
		c1.3,0,2.1,0.7,2.4,1.3h0l0.1-1.2H721.8z M720.4,461.3c0-0.2,0-0.4-0.1-0.6c-0.3-0.8-0.9-1.5-2-1.5c-1.3,0-2.3,1.1-2.3,2.9
		c0,1.5,0.8,2.8,2.3,2.8c0.9,0,1.6-0.5,2-1.4c0.1-0.2,0.1-0.5,0.1-0.8V461.3z"/>
	<path d="M725.6,456.1c0,0.5-0.3,0.9-0.9,0.9c-0.5,0-0.8-0.4-0.8-0.9c0-0.5,0.4-0.9,0.9-0.9C725.2,455.2,725.6,455.6,725.6,456.1z
		 M724,466v-7.7h1.4v7.7H724z"/>
	<path d="M727.7,460.3c0-0.8,0-1.5-0.1-2.1h1.2l0.1,1.3h0c0.4-0.7,1.3-1.5,2.6-1.5c1.1,0,2.7,0.6,2.7,3.3v4.6h-1.4v-4.5
		c0-1.2-0.5-2.3-1.8-2.3c-0.9,0-1.6,0.7-1.9,1.4c-0.1,0.2-0.1,0.4-0.1,0.7v4.7h-1.4V460.3z"/>
	<path d="M737.4,462.4c0,1.9,1.2,2.7,2.7,2.7c1,0,1.6-0.2,2.1-0.4l0.2,1c-0.5,0.2-1.3,0.5-2.6,0.5c-2.4,0-3.8-1.6-3.8-3.9
		c0-2.3,1.4-4.2,3.6-4.2c2.5,0,3.2,2.2,3.2,3.7c0,0.3,0,0.5,0,0.7H737.4z M741.5,461.4c0-0.9-0.4-2.3-2-2.3c-1.4,0-2,1.3-2.2,2.3
		H741.5z"/>
	<path d="M745.4,462.4c0,1.9,1.2,2.7,2.7,2.7c1,0,1.6-0.2,2.1-0.4l0.2,1c-0.5,0.2-1.3,0.5-2.6,0.5c-2.4,0-3.8-1.6-3.8-3.9
		c0-2.3,1.4-4.2,3.6-4.2c2.5,0,3.2,2.2,3.2,3.7c0,0.3,0,0.5,0,0.7H745.4z M749.5,461.4c0-0.9-0.4-2.3-2-2.3c-1.4,0-2,1.3-2.2,2.3
		H749.5z"/>
	<path d="M752.6,460.7c0-0.9,0-1.7-0.1-2.4h1.2l0,1.5h0.1c0.4-1,1.2-1.7,2.1-1.7c0.2,0,0.3,0,0.4,0v1.3c-0.1,0-0.3,0-0.5,0
		c-1,0-1.7,0.8-1.9,1.8c0,0.2-0.1,0.4-0.1,0.7v4.1h-1.4V460.7z"/>
	<path d="M757.7,464.6c0.4,0.3,1.2,0.6,1.9,0.6c1,0,1.5-0.5,1.5-1.2c0-0.7-0.4-1-1.4-1.4c-1.4-0.5-2-1.3-2-2.2c0-1.2,1-2.3,2.7-2.3
		c0.8,0,1.5,0.2,1.9,0.5l-0.4,1c-0.3-0.2-0.9-0.4-1.6-0.4c-0.8,0-1.3,0.5-1.3,1.1c0,0.6,0.5,0.9,1.5,1.3c1.3,0.5,2,1.2,2,2.3
		c0,1.4-1.1,2.3-2.9,2.3c-0.8,0-1.6-0.2-2.2-0.5L757.7,464.6z"/>
</g>
<g>
	<path d="M672.6,279v7.1c0,2.7,1.1,3.8,2.5,3.8c1.6,0,2.6-1.2,2.6-3.8V279h1.4v7c0,3.7-1.7,5.2-4.1,5.2c-2.2,0-3.9-1.4-3.9-5.1V279
		H672.6z"/>
	<path d="M687.5,291l-1.4-2.7c-0.6-1-0.9-1.7-1.2-2.4h0c-0.3,0.7-0.6,1.3-1.2,2.4l-1.3,2.6h-1.6l3.3-6.1l-3.2-5.9h1.6l1.4,2.8
		c0.4,0.8,0.7,1.4,1,2h0c0.3-0.7,0.6-1.3,1-2l1.5-2.8h1.6l-3.3,5.9l3.4,6.2H687.5z"/>
	<path d="M700.7,278.3v10.4c0,0.8,0,1.6,0.1,2.2h-1.3l-0.1-1.5h0c-0.4,1-1.4,1.7-2.6,1.7c-1.9,0-3.3-1.8-3.3-4.4
		c0-2.9,1.6-4.6,3.5-4.6c1.2,0,2,0.6,2.3,1.3h0v-5.2H700.7z M699.3,285.9c0-0.2,0-0.5-0.1-0.7c-0.2-1-1-1.8-2-1.8
		c-1.5,0-2.3,1.4-2.3,3.3c0,1.7,0.8,3.2,2.3,3.2c0.9,0,1.8-0.7,2.1-1.9c0-0.2,0.1-0.4,0.1-0.7V285.9z"/>
	<path d="M703.9,287c0,2.1,1.2,3,2.7,3c1,0,1.6-0.2,2.1-0.4l0.2,1.1c-0.5,0.2-1.3,0.5-2.6,0.5c-2.4,0-3.8-1.7-3.8-4.4
		c0-2.6,1.4-4.7,3.6-4.7c2.5,0,3.2,2.5,3.2,4.1c0,0.3,0,0.6,0,0.7H703.9z M708,285.8c0-1-0.4-2.6-2-2.6c-1.4,0-2,1.5-2.2,2.6H708z"
		/>
	<path d="M710.9,289.4c0.4,0.3,1.2,0.6,1.9,0.6c1,0,1.5-0.6,1.5-1.3c0-0.7-0.4-1.2-1.4-1.6c-1.4-0.6-2-1.4-2-2.4
		c0-1.4,1-2.5,2.7-2.5c0.8,0,1.5,0.2,1.9,0.5l-0.4,1.1c-0.3-0.2-0.9-0.5-1.6-0.5c-0.8,0-1.3,0.5-1.3,1.2c0,0.7,0.5,1,1.5,1.5
		c1.3,0.6,2,1.3,2,2.6c0,1.5-1.1,2.6-2.9,2.6c-0.8,0-1.6-0.2-2.2-0.6L710.9,289.4z"/>
	<path d="M719,279.9c0,0.5-0.3,1-0.9,1c-0.5,0-0.8-0.4-0.8-1c0-0.6,0.4-1,0.9-1C718.7,279,719,279.4,719,279.9z M717.4,291v-8.6h1.4
		v8.6H717.4z"/>
	<path d="M727.8,282.4c0,0.6-0.1,1.3-0.1,2.4v5c0,2-0.4,3.2-1.1,3.9c-0.8,0.8-1.8,1-2.8,1c-0.9,0-2-0.2-2.6-0.7l0.4-1.2
		c0.5,0.4,1.3,0.7,2.3,0.7c1.4,0,2.5-0.8,2.5-3v-1h0c-0.4,0.8-1.3,1.4-2.5,1.4c-1.9,0-3.3-1.8-3.3-4.2c0-2.9,1.7-4.6,3.5-4.6
		c1.3,0,2.1,0.8,2.4,1.5h0l0.1-1.3H727.8z M726.4,285.8c0-0.3,0-0.5-0.1-0.7c-0.3-0.9-0.9-1.7-2-1.7c-1.3,0-2.3,1.3-2.3,3.3
		c0,1.7,0.8,3.1,2.3,3.1c0.9,0,1.6-0.6,2-1.6c0.1-0.3,0.1-0.6,0.1-0.8V285.8z"/>
	<path d="M730,284.7c0-0.9,0-1.6-0.1-2.3h1.2l0.1,1.4h0c0.4-0.8,1.3-1.6,2.6-1.6c1.1,0,2.7,0.7,2.7,3.7v5.2h-1.4v-5
		c0-1.4-0.5-2.6-1.8-2.6c-0.9,0-1.6,0.7-1.9,1.6c-0.1,0.2-0.1,0.5-0.1,0.7v5.2H730V284.7z"/>
</g>
</svg>
