<?xml version="1.0" encoding="utf-8"?>
<!-- Generator: Adobe Illustrator 17.1.0, SVG Export Plug-In . SVG Version: 6.00 Build 0)  -->
<!DOCTYPE svg PUBLIC "-//W3C//DTD SVG 1.1//EN" "http://www.w3.org/Graphics/SVG/1.1/DTD/svg11.dtd">
<svg version="1.1" id="Layer_1" xmlns="http://www.w3.org/2000/svg" xmlns:xlink="http://www.w3.org/1999/xlink" x="0px" y="0px"
	 viewBox="0 0 818 330" enable-background="new 0 0 818 330" xml:space="preserve">
<rect x="0" y="-1" fill="#FFFFFF" width="818" height="330"/>
<path fill="#FFB000" d="M255.8,151.4c0-10.9-2.5-19.7-7.4-26.2c-0.9,0.4-1.9,0.7-2.8,1.2c-5.8,2.8-10.9,7.2-15.3,13.2
	c2.1,1.9,3.9,4.2,5.2,6.9c3.5,7.4,4.8,16.1,6,23.7c0.8,5.1,1.5,9.4,2.5,13C250.5,177.1,255.8,167.2,255.8,151.4L255.8,151.4z
	 M281.7,175.1c-1,0.6-2.3,0.2-2.8-1l-3.5-7.6c0.7,7.5,0.9,19.4-4.3,26.8c-3,4.3-7.4,6.5-13,6.5h-0.2c-8.2-0.1-12.9-3.9-15.7-9.6
	c-11.1,7.6-23.3,7.9-23.5,7.9h0c-1.1,0-2.1-1-2.1-2.3c0-1.3,0.9-2.4,2.1-2.4c0.8,0,12-0.3,21.8-7.4c-1.5-4.6-2.3-9.9-3.1-15.1
	c-1.2-7.7-2.4-15.6-5.6-22.3c-1-2.1-2.4-3.8-4.1-5.3c-2.2,3.6-4.2,7.5-6,12l5.6-6c0.8-0.9,2.2-0.9,2.9,0.1c0.8,0.9,0.7,2.4-0.1,3.3
	l-13.4,14.3c-0.4,0.4-0.9,0.6-1.4,0.6c-0.3,0-0.6-0.1-0.9-0.2c-0.8-0.4-1.2-1.3-1.2-2.3l1.5-20.4c0.1-1.3,1.1-2.3,2.2-2.2
	c1.1,0.1,2,1.2,1.9,2.5l-0.5,7c1.7-4.2,3.7-8,5.8-11.4c-9.7-5.8-24.7-6.2-33.9-5.7l6.8,2c1.1,0.3,1.8,1.6,1.5,2.9
	c-0.2,1.1-1.1,1.8-2,1.8c-0.2,0-0.3,0-0.5-0.1l-17.8-5.1c-0.8-0.2-1.5-1-1.6-2c-0.1-1,0.3-1.9,1.1-2.4l16-9.5c1-0.6,2.3-0.2,2.8,1
	c0.5,1.2,0.1,2.6-0.9,3.2l-6,3.6c9.7-0.5,26.1-0.1,37,6.7c4.9-6.8,10.6-11.8,17.2-15c0.4-0.2,0.8-0.3,1.1-0.5
	c-10.8-10.2-26.1-9.3-26.3-9.3c-1.1,0.1-2.1-0.9-2.2-2.2c-0.1-1.3,0.8-2.4,2-2.5c0.8,0,18.6-1.1,30.7,11.9c0.1,0.1,0.2,0.3,0.4,0.4
	c15.5-4.6,29,2.1,29.6,2.4c1,0.5,1.5,1.9,1.1,3.1c-0.5,1.2-1.7,1.7-2.7,1.2c-0.1-0.1-11.5-5.7-24.8-2.7c4.8,7.2,7.2,16.4,7.2,27.5
	c0,18.3-6.5,29.5-14.3,36.2c2.3,4.8,5.8,7.5,12.3,7.5c4.4,0,7.6-1.5,9.9-4.7c3.9-5.6,4.1-14.9,3.6-21.6l-1.5,6.9
	c-0.2,1.1-1.1,1.8-2,1.8c-0.2,0-0.3,0-0.5-0.1c-1.1-0.3-1.8-1.6-1.5-2.9l4.5-20.2c0.2-0.9,0.9-1.6,1.8-1.8c0.9-0.1,1.7,0.4,2.1,1.2
	l8.4,18.1C283.1,173.1,282.7,174.5,281.7,175.1L281.7,175.1z"/>
<path d="M665.4,124.9l-1.8-6.4c-0.3-0.9-1.1-1.4-1.9-1.1c-0.8,0.3-1.2,1.3-1,2.2l1.8,6.4c0.3,0.9,1.1,1.4,1.9,1.1
	C665.3,126.8,665.7,125.8,665.4,124.9z"/>
<path d="M679.6,117.4c-0.8-0.3-1.7,0.2-1.9,1.1l-1.8,6.4c-0.3,0.9,0.2,1.9,1,2.2c0.8,0.3,1.7-0.2,1.9-1.1l1.8-6.4
	C680.8,118.6,680.4,117.6,679.6,117.4z"/>
<path d="M699.6,148.6c0-1-0.7-1.7-1.5-1.7h-6c-0.8,0-1.5,0.8-1.5,1.7c0,1,0.7,1.7,1.5,1.7h6C698.9,150.3,699.6,149.6,699.6,148.6z"
	/>
<path d="M687.1,164.3l4.8,4c0.7,0.6,1.6,0.4,2.1-0.4s0.3-1.9-0.3-2.4l-4.8-4c-0.7-0.6-1.6-0.4-2.1,0.4
	C686.2,162.7,686.4,163.8,687.1,164.3z"/>
<path d="M686.7,135.3c0.5,0.8,1.4,0.9,2.1,0.4l4.8-4c0.7-0.6,0.8-1.6,0.3-2.4c-0.5-0.8-1.5-0.9-2.1-0.4l-4.8,4
	C686.4,133.5,686.2,134.5,686.7,135.3z"/>
<path d="M666.8,179.8L666.8,179.8C666.8,179.9,666.8,179.9,666.8,179.8c0.1,0.9,0.7,1.6,1.4,1.6h4.8c0.8,0,1.4-0.7,1.4-1.6
	c0,0,0,0,0-0.1h0.1c0.8,0,1.4-0.7,1.4-1.6c0-0.9-0.6-1.6-1.4-1.6h-7.7c-0.8,0-1.4,0.7-1.4,1.6C665.4,179.1,666,179.8,666.8,179.8
	L666.8,179.8z"/>
<path d="M665.5,175.6h10.3c0.8,0,1.4-0.7,1.4-1.6c0-0.9-0.6-1.6-1.4-1.6h-10.3c-0.8,0-1.4,0.7-1.4,1.6
	C664.1,174.9,664.7,175.6,665.5,175.6z"/>
<path d="M654.2,132.9l-4.8-4c-0.7-0.6-1.6-0.4-2.1,0.4c-0.5,0.8-0.3,1.9,0.3,2.4l4.8,4c0.7,0.6,1.6,0.4,2.1-0.4
	C655,134.5,654.8,133.5,654.2,132.9z"/>
<path d="M647.2,167.9c0.5,0.8,1.5,0.9,2.1,0.4l4.8-4c0.7-0.6,0.8-1.6,0.3-2.4c-0.5-0.8-1.5-0.9-2.1-0.4l-4.8,4
	C646.8,166.1,646.7,167.1,647.2,167.9L647.2,167.9z"/>
<path d="M643.2,150.3h6c0.8,0,1.5-0.8,1.5-1.7c0-1-0.7-1.7-1.5-1.7h-6c-0.8,0-1.5,0.8-1.5,1.7C641.7,149.6,642.3,150.3,643.2,150.3z
	"/>
<path d="M623.6,170.6c0.3,0.7,1.7,1.2,2.7,1.6c1.6,0.7,3.9,1.6,3.9,4.1c0,2.2-0.9,3.5-1.6,4.4c-0.3,0.5-0.5,0.8-0.6,1
	c0.4,0.1,1.1,0.2,1.5,0.3c1.4,0.2,3.9,0.6,3.9,3.2c-0.1,2.4-2.2,2.8-3.2,3.1c-0.1,0-0.3,0.1-0.4,0.1c0.2,0.2,0.5,0.3,0.7,0.4
	c1.1,0.6,3.1,1.7,3.1,4.1c0,1.1-0.5,2.2-1.1,3.6c-1.8,4-2.1,5.7,0.3,7.2c1.6,1,4.4,1.2,8.4,0.7c5.7-0.8,7.7-1,7.7-1
	c2-0.2,3.9,0.5,5.1,2c1.2,1.5,1.7,3.7,1.3,6c-0.5,3-0.7,6.2-0.4,7.8l43.1,0c0.6,0,0.9-0.2,1-0.3c0.1-0.1,0.1-0.5-0.2-1.1
	c0-0.1-1.1-2.5-3.9-9.8c-2.2-6-3-12.2-3-15.7c0-4.6,2.8-8.2,6.1-12.3c3-3.9,6.5-8.2,8.4-14.4c4.8-14.6,3.9-27.8-2.4-38.1
	c-6.8-11.1-19.5-17.8-33.8-17.8c-16.8,0-28.3,5.6-35.4,17c-2.2,3.6-3.3,8.3-3.3,14.1c0,1.9,0.3,3.3,0.7,4.6c0.4,1.5,0.8,3,0.8,5.2
	c0,5.5-2.8,9.1-5.6,12.6c-1.5,1.8-2.8,3.6-3.8,5.6C623.2,169.5,623.5,170.3,623.6,170.6L623.6,170.6z M620.3,166.9
	c1.1-2.4,2.7-4.4,4.2-6.4c2.5-3.2,4.7-6,4.7-9.9c0-1.6-0.3-2.7-0.6-4c-0.4-1.5-0.9-3.3-0.9-5.8c0-6.6,1.3-12.2,4-16.4
	c7.8-12.7,20.3-18.8,38.4-18.8c15.6,0,29.4,7.3,36.9,19.6c4.9,8,9.4,21.8,2.8,41.9c-2.1,6.9-6,11.9-9.1,15.8
	c-2.9,3.6-5.1,6.5-5.1,9.5c0,3.4,0.8,9,2.7,14.1c2.6,7.1,3.7,9.5,3.7,9.5c0.8,1.8,0.9,3.7,0.1,5.2c-0.8,1.5-2.3,2.3-4.1,2.3h-43.7
	c-0.1,0-0.2,0-0.3,0c-0.1,0-0.2,0-0.3,0c-0.5,0-1.1-0.3-1.4-0.8c-2.1-3-1-10-0.6-12c0.2-1,0-1.8-0.4-2.4c-0.4-0.5-1.2-0.8-2-0.7
	c0,0-2,0.2-7.7,1c-4.9,0.7-8.3,0.3-10.6-1.2c-5.9-3.7-3.1-9.8-1.8-12.8c0.2-0.5,0.5-1.2,0.7-1.5c-0.2-0.2-0.6-0.4-0.9-0.6
	c-1.2-0.7-3.2-1.8-3.2-4.4c0-1.2,0.4-2,0.9-2.6c-1.2-0.5-2.3-1.4-2.3-3.4c0-2,0.9-3.2,1.5-4.1c0.4-0.6,0.7-1,0.7-1.4
	c-0.4-0.2-1-0.4-1.4-0.6c-1.7-0.7-3.8-1.5-4.7-3.7C619.5,170.6,619.5,168.5,620.3,166.9L620.3,166.9z"/>
<path fill-rule="evenodd" clip-rule="evenodd" d="M469.4,205.7c-3.8-1.5-7.6-0.4-11.3,0.4c-10.8,2.6-21.6,5.6-32.5,8
	c-10,2.1-19.8,5-29.8,7.4c-4.2,1-8.6,1.6-13.1,2.4c-0.1-0.9-0.3-1.5-0.3-2.2c-0.1-4.3,0.2-8.6-0.7-12.9c-0.4-1.9-0.2-4-0.1-6
	c0.2-4.5-0.6-8.9-1.3-13.3c-0.5-3.6-1.1-7.1-1.1-10.7c0.1-8.1-1-16.1-2-24.1c-0.9-7.1-2.1-14.2-3.1-21.3c-0.3-2.4-0.4-4.9-0.7-7.3
	c-0.2-1.6,0.3-2.8,1.4-4c6.3-0.8,13-0.7,19.2-4.1c-0.5-3.3-0.8-6.6-1.5-9.7c-0.5-2.1-0.2-4,0.4-5.9c0.3-1.1,1.1-1.6,2-1.9
	c0.5-0.1,1-0.2,1.6-0.3c3.5-0.3,7.1-0.6,10.6-1c1.8-0.2,3.6-0.8,5.4-1.2c2.3-0.5,4.7-0.9,7-1.3c4-0.8,8.1-1.5,12.1-2.4
	c2.3-0.5,4.6-1,7.1-1c2.6-0.1,5.3-0.3,7.8-1c2.2-0.6,4.4-0.6,6.7-0.7c1.3-0.1,2.6-0.3,4-0.4c1.1,1.6,1.2,3.5,1.4,5.3
	c0.3,2.4,0.5,4.9,0.8,7.3c0.8,7.3,1.6,14.6,2.4,21.9c1.6,13.9,2.9,27.8,5,41.6c1.1,7.2,1.5,14.6,2.3,21.9c0.6,5.4,1.3,10.8,2,16.7
	C470.4,205.7,469.9,205.9,469.4,205.7L469.4,205.7z M453.1,213.7c-5.9,1.5-11.7,3.2-17.4,5.9c-3,1.4-6.2,2.3-9.4,3.5
	c-2.4,0.9-4.8,1.7-7.1,2.7c-3.4,1.6-6.7,3.4-10.1,4.9c-1.7,0.8-3.5,1.3-5.2,1.9c-1.7,0.7-3.5,1.3-5.2,2c-1.1,0.5-2.2,1-3.4,1.6
	c-1.9-3-3.3-6.1-3.9-9.6c0.4-0.3,0.6-0.6,0.8-0.6c6.3-0.9,12.3-3.2,18.5-4.7c4.4-1.1,8.8-2,13.2-3c5.8-1.4,11.6-3,17.4-4.4
	c5.9-1.4,11.9-2.6,17.9-3.8c0.9-0.2,1.8,0,2.7,0.2C458.9,211.3,456.2,212.9,453.1,213.7L453.1,213.7z M375.2,175.7
	c-1.4-2-1.7-3.6-2.2-5.2c-4-11.6-6.9-23.5-9.6-35.6c-0.7-3.4-1.6-6.7-2.5-10c-0.6-2.1-1-4.1-0.6-6.3c3.5-2.1,13.9-6.2,16.5-6.5
	c-1.5,2.4-2.4,4.9-4.3,6.8c-1.9,2-2.8,4.2-2.3,7.3c1.2,8.4,2.2,16.8,3.1,25.2c0.8,7,1.4,14,2,21
	C375.4,173.5,375.3,174.3,375.2,175.7L375.2,175.7z M377.5,116.9c2.8-4.5,5.6-9.1,8.4-13.6c0.7-1.1,1.4-2.1,3.1-2.1
	c1,5,2,9.7,3,14.5c-4.9,1.9-9.8,2.6-15,3C377.1,117.9,377.2,117.3,377.5,116.9L377.5,116.9z M475.2,204c-1.3-5.6-1.4-11.4-2-17.1
	c-0.8-7.1-1.4-14.3-2.7-21.3c-1.3-6.8-2.1-13.6-3-20.5c-1-8-1.8-16-2.8-24c-1-8.3-2.1-16.5-3.2-24.8c-0.2-1.7-0.5-3.4-0.9-5.1
	c-0.6-2.5-1.6-3.2-4-3.3c-5.4-0.2-10.8,0-16.1,1.4c-5.1,1.4-10.3,2.3-15.5,3.3c-3.8,0.7-7.6,1-11.3,1.9c-7.3,1.7-14.7,2-22.1,1.9
	c-2.2,0-3.8,0.6-5.2,2.3c-1.4,1.7-2.8,3.5-4,5.3c-1,1.6-2.2,2.7-3.9,3.4c-5.2,2.1-10.4,4.4-15.5,6.6c-1.5,0.6-3,1.2-4.4,2
	c-1.4,0.8-2.7,1.7-3.1,3.4c0.6,1.2,1.3,2.1,1.6,3.1c1.7,7.7,3.3,15.4,5,23.1c2.9,13.2,6.8,26,11.9,38.4c1.9,4.5,3,9.2,3.6,14.1
	c0.8,6.4,1.2,12.9,1.8,19.3c0.3,3.6,0.7,7.1,1,11c2.3-0.4,4.4-0.9,6.7-1.3c0.5,0.9,0.9,1.6,1.2,2.4c1.2,3.2,2.3,6.4,3.5,9.6
	c0.5,1.4,1.5,2,2.8,1.8c0.5-0.1,1.1-0.2,1.5-0.5c3.8-2.4,8-3.8,12.2-5c0.6-0.2,1.2-0.5,1.8-0.8c3.4-1.6,6.7-3.4,10.1-4.9
	c2.3-1.1,4.7-1.9,7.1-2.8c3.2-1.2,6.6-2.1,9.8-3.6c5.1-2.4,10.5-3.8,15.9-5.5c1.8-0.5,3.6-1,5.3-1.7c1.8-0.7,3.5-1.3,5.4-1
	c1.6,0.2,3.1,0,4.8-0.8c0.4-1.5,0.8-3,1.2-4.4c1.9-0.4,3.7-0.7,5.4-1C475.7,207.1,475.6,205.5,475.2,204L475.2,204z"/>
<path fill-rule="evenodd" clip-rule="evenodd" d="M451.5,181.4c0.4,0,0.8,0.1,1.2-0.1c0.4-0.2,1-0.6,1.1-1s-0.2-1.2-0.6-1.4
	c-1.7-1.1-3.4-1.1-5.3-0.6c-4.7,1.1-9.5,2.3-14.3,2.6c-5.4,0.4-10.6,2.3-16,2.3c-0.6,0-1.3,0.4-1.9,0.7c-2.7,1.1-5.5,1.4-8.2,0.7
	c-2.5-0.6-4.3,0.1-6.1,1.8c-1.6,1.6-3.5,2.5-6.5,1.8c0.3,1.3,0.3,2.1,0.7,2.5c1,1,2.1,1.1,3.2,0c1-0.9,1.8-2.1,2.8-3.1
	c1.1-1.2,2.5-1.9,3.9-1.1c1.5,0.9,3.1,0.7,4.6,0.8c2.7,0.2,5.2-0.8,7.8-1.4c2.7-0.7,5.5-0.6,8.2-0.9c0.3,0,0.5-0.1,0.8-0.2
	c2.2-0.7,4.4-0.9,6.6-0.9c1.6,0,3.3,0.1,4.7-0.6c3.8-1.8,8.1-0.5,12-2.3C450.3,181,451,181.4,451.5,181.4L451.5,181.4z"/>
<path fill-rule="evenodd" clip-rule="evenodd" d="M396.8,128.3c1.9-1.2,3.9-1.6,6.1-1.4c1.7,0.1,3.4-0.2,5-0.8
	c1.5-0.6,3-1.2,4.5-1.5c1.4-0.3,3-0.6,4.3-0.1c2.1,0.8,3.9,0.4,5.7-0.5c1.5-0.7,3.1-1,4.6-0.3c2.1,1,3.9,0.6,5.6-0.6
	c1.8-1.3,3.7-1.5,5.6-0.4c1.5,0.9,3.1,1,4.6,0.6c1.8-0.5,3.5-1.3,5.2-2c0.3-0.1,0.5-0.7,0.5-1c0-0.3-0.5-0.9-0.7-0.9
	c-1,0-2.2-0.2-3,0.3c-2.2,1.3-4.2,1.4-6.4,0.3c-0.1-0.1-0.3,0-0.4-0.1c-2-0.9-3.9-0.5-5.7,0.5c-0.5,0.3-0.9,0.6-1.4,0.7
	c-0.7,0.2-1.6,0.5-2.3,0.2c-2.6-0.9-5-0.4-7.3,0.7c-1,0.4-2,0.8-3,0.3c-2.2-0.9-4.4-0.5-6.6,0.1c-2.7,0.8-5.4,1.6-8.1,1.7
	c-2.8,0.2-5.5,0.6-8.1,1.7c-2.5,1.1-2.5,1-5.4-0.5c-1.5,2.7-1.1,3.9,1.1,4.1C393,129.8,395,129.4,396.8,128.3L396.8,128.3z"/>
<path fill-rule="evenodd" clip-rule="evenodd" d="M394.9,157.8c1-0.4,1.9-1,2.8-1.5c1.6-0.9,3.2-1,5-0.5c1.8,0.5,3.7,0.8,5.5,0.4
	c4.2-1,8.7-1.1,12.7-3.2c1.4-0.8,3.1-1.3,4.6-0.3c2,1.3,3.9,0.7,5.7,0.1c2.2-0.7,4.3-1.4,6.6-1.1c0.9,0.1,1.9-0.1,2.7-0.6
	c1.6-1,3-0.8,4.4,0.3c0.9,0.7,1.8,0.4,2.6-0.8c-1-1-2-1.5-3-1.4c-3.5,0.3-7.1,0.6-10.6,1.2c-2.6,0.5-5.1,1.3-7.8,0.5
	c-0.7-0.2-1.6,0-2.3,0.2c-4.6,0.9-9.2,1.2-13.7,2.3c-2,0.5-4.3,0.7-6.3,0.1c-2.4-0.7-4.4-0.3-6.6,0.5c-1,0.4-1.9,0.9-2.8,1.3
	c-0.7-0.7-1.2-1.2-1.8-1.8c-1.1,2-1.2,2.8-0.6,3.6C392.6,157.9,393.7,158.3,394.9,157.8L394.9,157.8z"/>
<path fill-rule="evenodd" clip-rule="evenodd" d="M397.1,174.4c1.6-1.2,3.1-2.6,5.1-4.1c1.8,2.1,3.6,2.9,5.7,2.3
	c3.2-0.9,6.4-1.8,9.7-1.7c0.1,0,0.3,0,0.4-0.1c3-1.4,6.1-1.6,9.3-1.5c2.2,0.1,3.7-1,5.1-3.2c-1.1,0.2-2,0.5-2.8,0.5
	c-4.5-0.2-9-0.2-13.3,1.6c-2.7,0-5.2,0.8-7.7,1.6c-1.1,0.4-2.4,0.6-3.5-0.2c-2.1-1.4-3.7-0.6-5.4,0.9c-1,0.9-2,1.8-3.6,1.7
	c-0.3-0.3-0.5-0.6-0.8-0.8c-0.4-0.3-0.9-0.7-1.3-0.6c-0.7,0.2-0.9,1-0.7,1.8C393.7,174.9,395.4,175.7,397.1,174.4L397.1,174.4z"/>
<path d="M398.5,139.1c0,0-0.1,0-0.1,0C398.4,139,398.4,139.1,398.5,139.1L398.5,139.1C398.5,139.1,398.5,139.1,398.5,139.1z"/>
<path d="M408.2,140.9c6.4-1,12.7-2.6,19.3-2.1c1.3,0.1,2.6-0.4,3.6-1.4c0.3-0.3,0.4-0.9,0.8-2c-3.5,1.4-6.7,1.1-9.8,1.3
	c-2.8,0.2-5.5,0.6-8.2,1.1c-4.2,0.7-8.4,2.6-12.8,0.4c-0.7-0.4-2.1-0.4-2.6,0.9c0.8,0.1,1.7,0,2.1,0.5
	C403,141.6,405.5,141.3,408.2,140.9L408.2,140.9z"/>
<path fill-rule="evenodd" clip-rule="evenodd" d="M445,164.3c-2.6,0.7-5.1,0.9-7.9,0.6c-0.1,1.7,0.7,2.2,1.4,2.2
	c1.4,0.2,2.8,0.1,4.3,0.1c1.2,0,2.4-0.5,3.5-0.2c1.8,0.4,3-0.4,4.3-1.4c0.3-0.2,0.3-0.9,0.5-1.4C448.9,164.2,446.9,163.8,445,164.3
	L445,164.3z"/>
<path fill-rule="evenodd" clip-rule="evenodd" d="M446,194.7c-1.1,0.5-2.3,0.5-3.5,0.6c-0.8,0.1-1.6,0-2.3,0.2
	c-0.4,0.1-0.7,0.7-1,1.1c0.4,0.4,0.7,1,1.1,1.1c1,0.1,2.2,0.4,3.1,0c2.5-1.1,5-1.8,7.7-1.7c1,0,2-0.5,2.7-2
	C450.9,193.4,448.5,193.6,446,194.7L446,194.7z"/>
<path fill-rule="evenodd" clip-rule="evenodd" d="M430.3,197.3c-0.5-0.1-1.2-0.1-1.5,0.1c-1.3,1.1-2.7,0.4-4,0.6
	c-0.3,1,0,1.8,0.7,1.6c1.9-0.4,3.5-0.2,5.3,0.6c1.6,0.7,3-0.1,4.3-1.3c-0.1-0.3-0.1-0.7-0.2-0.7
	C433.3,197.8,431.8,197.5,430.3,197.3z"/>
<path fill-rule="evenodd" clip-rule="evenodd" d="M439.1,134.7c-0.1-0.1-0.5,0-0.9,0c-0.1,0.5-0.4,1.1-0.3,1.5
	c0.2,0.6,0.5,1.3,1,1.8c0.8,0.9,1.8,1.1,2.8,0.4c1.9-1.3,3.8-2.5,5.8-3.5c-0.9,0-1.8,0.1-2.6,0.4
	C442.9,136.1,440.9,136.5,439.1,134.7L439.1,134.7z"/>
<path d="M396.6,139.9c0,0,0.1,0,0.1,0c0,0-0.1-0.1-0.1-0.1C396.6,139.8,396.6,139.8,396.6,139.9z"/>
<path d="M394.3,140c-0.7-0.1-1.3-0.5-2.5-1c0.3,1.3,0.2,2.2,0.6,2.8c0.4,0.6,1.3,0.4,1.8-0.1c0.8-0.7,1.9-0.7,2.4-1.8
	C395.8,140,395.1,140.1,394.3,140L394.3,140z"/>
<path d="M396.7,139.9C396.7,139.8,396.7,139.8,396.7,139.9C396.7,139.8,396.7,139.8,396.7,139.9
	C396.6,139.8,396.7,139.9,396.7,139.9z"/>
<path d="M396.7,139.8c0.7,0.1,1.3,0.1,1.6-0.7C397.7,139,397.1,139,396.7,139.8z"/>
<path d="M398.4,139C398.4,139.1,398.4,139.1,398.4,139C398.4,139.1,398.5,139.1,398.4,139C398.5,139.1,398.5,139.1,398.4,139
	C398.4,139.1,398.4,139.1,398.4,139z"/>
<path fill="#FFB000" d="M113.8,118.9c0-10.9,2.5-19.7,7.5-26.2c0.9,0.4,1.9,0.7,2.8,1.2c5.8,2.8,10.9,7.2,15.4,13.2
	c-2.2,1.9-3.9,4.2-5.2,6.9c-3.5,7.4-4.9,16.1-6,23.7c-0.8,5.1-1.5,9.4-2.5,13C119.1,144.6,113.8,134.8,113.8,118.9L113.8,118.9z
	 M87.8,142.7c1,0.6,2.3,0.2,2.8-1l3.5-7.6c-0.7,7.5-0.9,19.4,4.3,26.8c3,4.3,7.4,6.5,13,6.5h0.2c8.3-0.1,12.9-3.9,15.7-9.6
	c11.1,7.6,23.3,7.9,23.6,7.9h0c1.1,0,2.1-1,2.1-2.3c0-1.3-0.9-2.4-2.1-2.4c-0.8,0-12-0.3-21.9-7.4c1.5-4.6,2.3-9.9,3.1-15.1
	c1.2-7.7,2.4-15.6,5.6-22.3c1-2.1,2.4-3.8,4.1-5.3c2.2,3.6,4.2,7.5,6,12l-5.6-6c-0.8-0.9-2.2-0.9-3,0.1c-0.8,0.9-0.8,2.4,0.1,3.3
	l13.4,14.3c0.4,0.4,0.9,0.6,1.4,0.6c0.3,0,0.6-0.1,0.9-0.2c0.8-0.4,1.2-1.3,1.2-2.3l-1.5-20.4c-0.1-1.3-1.1-2.3-2.3-2.2
	c-1.1,0.1-2,1.2-1.9,2.5l0.5,7c-1.8-4.2-3.7-8-5.8-11.4c9.7-5.8,24.8-6.2,34-5.7l-6.8,2c-1.1,0.3-1.8,1.6-1.5,2.9
	c0.2,1.1,1.1,1.8,2,1.8c0.2,0,0.3,0,0.5-0.1l17.9-5.1c0.8-0.2,1.5-1,1.6-2c0.1-1-0.3-1.9-1.1-2.4l-16-9.5c-1-0.6-2.3-0.2-2.8,1
	c-0.5,1.2-0.1,2.6,0.9,3.2l6,3.6c-9.7-0.5-26.2-0.1-37.2,6.7c-4.9-6.8-10.7-11.8-17.3-15c-0.4-0.2-0.8-0.3-1.1-0.5
	c10.8-10.2,26.2-9.3,26.4-9.3c1.1,0.1,2.1-0.9,2.2-2.2c0.1-1.3-0.8-2.4-2-2.5c-0.8,0-18.6-1.1-30.8,11.9c-0.1,0.1-0.2,0.3-0.4,0.4
	c-15.5-4.6-29.1,2.1-29.7,2.4c-1.1,0.5-1.5,1.9-1.1,3.1c0.5,1.2,1.7,1.7,2.8,1.2c0.1-0.1,11.6-5.7,24.9-2.7
	c-4.8,7.2-7.2,16.4-7.2,27.5c0,18.3,6.5,29.5,14.4,36.2c-2.3,4.8-5.9,7.5-12.3,7.5c-4.4,0-7.7-1.5-9.9-4.7
	c-3.9-5.6-4.1-14.9-3.6-21.6l1.5,6.9c0.2,1.1,1.1,1.8,2,1.8c0.2,0,0.3,0,0.5-0.1c1.1-0.3,1.8-1.6,1.5-2.9l-4.5-20.2
	c-0.2-0.9-0.9-1.6-1.8-1.8c-0.9-0.1-1.7,0.4-2.1,1.2L87,139.5C86.4,140.6,86.8,142.1,87.8,142.7L87.8,142.7z"/>
<path fill="#FFB000" d="M175.1,195.3c0,11.5-2.4,20.7-7.1,27.6c-0.9-0.4-1.8-0.8-2.7-1.3c-5.5-2.9-10.4-7.6-14.6-13.9
	c2-2,3.7-4.4,5-7.2c3.3-7.8,4.6-16.9,5.7-25c0.7-5.3,1.4-9.9,2.4-13.7C170.1,168.2,175.1,178.6,175.1,195.3L175.1,195.3z
	 M199.7,170.3c-1-0.6-2.2-0.2-2.7,1l-3.3,8c0.7-7.8,0.8-20.5-4.1-28.3c-2.9-4.5-7-6.8-12.4-6.8h-0.2c-7.8,0.1-12.2,4.1-14.9,10.1
	c-10.5-8-22.1-8.4-22.3-8.4h0c-1.1,0-2,1.1-2,2.5c0,1.4,0.9,2.5,2,2.5c0.8,0,11.4,0.3,20.8,7.8c-1.4,4.8-2.2,10.4-3,15.9
	c-1.1,8.1-2.3,16.4-5.3,23.5c-0.9,2.2-2.3,4-3.9,5.6c-2.1-3.7-4-7.9-5.7-12.6l5.3,6.3c0.8,0.9,2,0.9,2.8-0.1c0.8-1,0.7-2.6-0.1-3.5
	L138,178.8c-0.4-0.4-0.9-0.7-1.4-0.7c-0.3,0-0.6,0.1-0.9,0.2c-0.7,0.4-1.2,1.4-1.1,2.4l1.4,21.5c0.1,1.4,1.1,2.4,2.1,2.3
	c1.1-0.1,1.9-1.3,1.8-2.7l-0.5-7.4c1.7,4.4,3.5,8.4,5.5,12c-9.2,6.1-23.5,6.5-32.2,6l6.5-2.1c1.1-0.3,1.7-1.7,1.4-3
	c-0.2-1.1-1-1.9-1.9-1.9c-0.2,0-0.3,0-0.5,0.1l-16.9,5.4c-0.8,0.3-1.4,1.1-1.5,2.1c-0.1,1,0.3,2,1,2.5l15.2,10c1,0.6,2.2,0.2,2.7-1
	c0.5-1.2,0.1-2.7-0.8-3.4l-5.7-3.8c9.2,0.5,24.9,0.2,35.2-7c4.7,7.2,10.1,12.5,16.3,15.8c0.4,0.2,0.7,0.4,1.1,0.5
	c-10.3,10.7-24.8,9.8-25,9.8c-1.1-0.1-2,1-2.1,2.3c-0.1,1.4,0.8,2.5,1.9,2.6c0.7,0,17.7,1.1,29.2-12.6c0.1-0.1,0.2-0.3,0.4-0.4
	c14.7,4.8,27.6-2.2,28.2-2.5c1-0.6,1.4-2,1-3.3c-0.4-1.3-1.6-1.8-2.6-1.3c-0.1,0.1-11,6-23.6,2.8c4.5-7.5,6.8-17.2,6.8-28.9
	c0-19.3-6.2-31-13.6-38.2c2.2-5.1,5.5-7.9,11.7-7.9c4.2,0,7.3,1.6,9.4,5c3.7,5.9,3.9,15.7,3.4,22.7l-1.5-7.3c-0.2-1.1-1-1.9-1.9-1.9
	c-0.2,0-0.3,0-0.5,0.1c-1.1,0.3-1.7,1.7-1.4,3l4.3,21.3c0.2,1,0.9,1.7,1.7,1.9s1.6-0.4,2-1.3l8-19.1
	C201.1,172.4,200.7,170.9,199.7,170.3L199.7,170.3z"/>
<line fill="none" stroke="#000000" stroke-width="0.946" stroke-miterlimit="10" x1="348.4" y1="169.1" x2="212.5" y2="38.9"/>
<line fill="none" stroke="#000000" stroke-width="0.946" stroke-miterlimit="10" x1="348.4" y1="169.1" x2="212.5" y2="299.9"/>
<path stroke="#F7F5F5" stroke-width="1.9306" stroke-miterlimit="10" d="M473.7,179l-15.4-1.3l-0.4,0.5c-1.9,2-8,5.7-9.6,6.6
	c-1.8-0.2-3.4-0.8-3.6-1.3c0.8-2.3,9.8-9,12.8-9.9c7.6-2.3,17.4-4.1,22.4-2.6c0,0,0,0,0.1,0c1.1,0.3,3,2.5,5,5.1L473.7,179z
	 M463.3,185.5c-0.2-0.1-0.6-0.2-1.2-0.4l11.2-3c0.1,0.6,0,1.5-0.3,2.7C472.7,186,467.4,186.1,463.3,185.5L463.3,185.5z M456,183.7
	c-0.1,0-0.3,0-0.4,0c1.6-1.1,3.1-2.2,4.2-3.1l6.1,0.5L456,183.7z M487.5,179.5c4.7,6.1,9.6,12.5,14.4,14l1.5,0.5
	c1.8,0.6,2.7,0.9,4.1,1.3l0.7-2.6c-1.4-0.4-2.3-0.7-4.1-1.3l-1.5-0.5c-3.7-1.2-8.7-7.6-12.6-12.8c-0.1-0.1-0.2-0.2-0.3-0.4l13.3-3.5
	l-1.2-2.6l-14,3.7c-3-3.8-5.2-6.2-7.3-6.9c-7-2.1-19.4,1.1-24.4,2.5c-3.5,1-13.3,8.2-14.4,11.4c-0.3,0.9-0.2,1.9,0.5,2.7
	c0.6,0.8,1.5,1.3,2.5,1.7l-6,1.6l1.2,2.6l7.4-2c0,0.1,0.1,0.2,0.1,0.3c1.1,2.8,5.3,5.9,12.3,6.5c5.4,0.5,7,1.6,8.7,2.7
	c1,0.7,2.2,1.5,4.1,2.1c0.6,0.2,1.2,0.4,1.8,0.6c0.7,0.3,1.5,0.5,2.3,0.8c3.3,1,7.7,2,15.9,1.9c1.1,0,2.3,0.5,4.5,1.3
	c1.7,0.6,4.1,1.5,7.3,2.5l0.7-2.6c-3.1-1-5.3-1.8-7.1-2.4c-2.4-0.9-4-1.5-5.7-1.5c-9.7,0-13.4-1.3-17.1-2.5
	c-0.6-0.2-1.2-0.4-1.8-0.6c-1.4-0.4-2.2-1-3.1-1.6c-1.9-1.3-4.1-2.8-10.5-3.4c-5.8-0.5-8.8-2.9-9.4-4.4c-0.3-0.7-0.1-1.3,0.7-1.8
	c2.5-1.6,9.4,0.3,11.9,1.2c2.8,0.4,12.1,1.6,13.2-2.4c0.5-1.9,0.4-3.4,0.2-4.4l10.6-2.8C487.1,178.8,487.3,179.2,487.5,179.5
	L487.5,179.5z"/>
<polygon fill-rule="evenodd" clip-rule="evenodd" fill="#FFFFFF" points="467,172 471.9,171.2 472.9,178.1 467.7,177.8 "/>
<polygon fill-rule="evenodd" clip-rule="evenodd" fill="#FFFFFF" points="469.2,189.3 473.8,188.9 474.2,197.8 469.5,195.8 "/>
<polygon fill-rule="evenodd" clip-rule="evenodd" fill="#F9F9F9" points="451.1,178.2 455.4,179.3 449.3,182.8 446.5,182.2 "/>
<line fill="none" stroke="#000000" stroke-width="0.946" stroke-miterlimit="10" x1="600.6" y1="170.1" x2="464.7" y2="39.9"/>
<line fill="none" stroke="#000000" stroke-width="0.946" stroke-miterlimit="10" x1="600.6" y1="170.1" x2="464.7" y2="301"/>
<path fill="none" stroke="#FFB000" stroke-width="1.892" stroke-miterlimit="10" d="M656.6,140.7c-0.9,0-1.7,0.9-1.7,1.9
	c0,1.1,0.7,1.9,1.7,1.9c0.9,0,1.7-0.8,1.7-1.9S657.5,140.7,656.6,140.7z M670.6,132.4c8.5-0.2,16.1,7.1,16.7,16.9
	c0.1,1.1,0,2.3-0.1,3.4c-0.9,7.7-6.4,14.2-13.5,14.7c-7.2,0.5-13.9-5.7-14.3-14.1c-0.3-7.3,4.6-14.1,11.2-14.4
	c5.7-0.3,10.9,4.7,11.1,11.3c0.1,5.6-3.7,10.7-8.7,10.8c-4.1,0.1-7.9-3.6-7.9-8.5c0-3.8,2.8-7.3,6.3-7.1l0,0c0.1,0,0.3,0.1,0.4,0.2
	c0.1,0.1,0.1,0.3,0.1,0.4c0,0.2-0.1,0.3-0.2,0.4c-0.1,0.1-0.2,0.2-0.4,0.2c-2.9-0.2-5.1,2.8-5.2,5.9c-0.1,4.1,3.3,7.3,6.8,7.3
	c4.4-0.1,7.8-4.6,7.7-9.5c-0.1-5.9-4.9-10.4-10-10.1c-6,0.3-10.5,6.5-10.2,13.2c0.4,7.7,6.5,13.4,13.2,13
	c7.5-0.5,13.2-8.4,12.7-16.8c-0.5-9.4-8.2-16.5-16.4-15.8c-4.4,0.4-8.6,2.9-11.4,6.7c0.5,0.6,0.8,1.4,0.8,2.2c0,1.7-1.2,3.1-2.7,3.1
	c-1.5,0-2.7-1.4-2.7-3.1s1.2-3.1,2.7-3.1c0.4,0,0.7,0.1,1,0.2c3-4.2,7.4-6.9,12.2-7.3C670.1,132.4,670.4,132.4,670.6,132.4
	L670.6,132.4z"/>
<path fill="#FFB000" d="M675.8,147.1c0.3,0,0.5,0.3,0.5,0.6c0,0.3-0.3,0.6-0.6,0.6c-0.2,0-0.5,0-0.7,0c-0.4,0-0.7,0.3-0.9,0.7h1.7
	c0.3,0,0.5,0.3,0.5,0.6c0,0.3-0.3,0.6-0.6,0.6h-1.6c0.2,0.4,0.5,0.7,0.8,0.7c0.3,0,0.6,0,0.8,0c0.3,0,0.5,0.3,0.5,0.6
	c0,0.3-0.3,0.6-0.6,0.6h-0.4l-1.4,3.5c-0.1,0.3-0.4,0.4-0.7,0.3s-0.4-0.5-0.3-0.8l1.2-3.1c-0.6-0.3-1-0.9-1.2-1.7h-0.3
	c-0.3,0-0.5-0.3-0.5-0.6s0.3-0.6,0.5-0.6h0.3c0-0.2,0.1-0.5,0.2-0.7h-0.5c-0.3,0-0.5-0.3-0.5-0.6s0.3-0.6,0.5-0.6
	C675.8,147.1,674.8,147.1,675.8,147.1L675.8,147.1z"/>
<path fill="#A4A4A4" d="M667.8,90.2h2.9v0.5c0,0.8-0.6,1.5-1.4,1.5s-1.4-0.7-1.4-1.5V90.2z M664.5,86.2h9.5v1.5
	c0,0.9-0.7,1.5-1.4,1.5h-6.7c-0.7,0-1.4-0.6-1.4-1.5V86.2z M664.5,82.1h9.5v3h-9.5V82.1z M684.5,64.9c-0.3,0-0.5,0.2-0.5,0.5
	c0,0.3,0.2,0.5,0.5,0.5h3.8c0.3,0,0.5-0.2,0.5-0.5c0-0.3-0.2-0.5-0.5-0.5H684.5z M650.2,64.9c-0.3,0-0.5,0.2-0.5,0.5
	c0,0.3,0.2,0.5,0.5,0.5h3.8c0.3,0,0.5-0.2,0.5-0.5c0-0.3-0.2-0.5-0.5-0.5H650.2z M669.3,53.8c5.6,0,10.9,4.6,10.9,11.1
	c0,4.3-1.5,6.8-3,9.1c-1.5,2.2-3,4.2-3.2,7.2h-9.5c-0.2-3-1.7-5-3.2-7.2c-1.5-2.3-3-4.8-3-9.1C658.3,58.4,663.7,53.8,669.3,53.8
	L669.3,53.8z M669.3,52.8c-6.1,0-11.9,5-11.9,12.1c0,4.5,1.6,7.3,3.2,9.7c1.6,2.3,3,4.2,3,7.1v6.1c0,1.4,1.1,2.5,2.4,2.5h1v0.5
	c0,1.4,1.1,2.5,2.4,2.5s2.4-1.1,2.4-2.5v-0.5h1c1.3,0,2.4-1.1,2.4-2.5v-6.1c0-2.9,1.4-4.8,3-7.1c1.6-2.3,3.2-5.1,3.2-9.7
	C681.2,57.8,675.3,52.8,669.3,52.8z M682.7,50.6c-0.1,0-0.2,0-0.3,0.1l-2.7,2.9c-0.2,0.2-0.2,0.5,0,0.7c0.2,0.2,0.5,0.2,0.7,0
	l2.7-2.9c0.2-0.2,0.2-0.5,0-0.7C683,50.6,682.9,50.6,682.7,50.6z M655.8,50.6c-0.1,0-0.2,0-0.3,0.1c-0.2,0.2-0.2,0.5,0,0.7l2.7,2.9
	c0.2,0.2,0.5,0.2,0.7,0c0.2-0.2,0.2-0.5,0-0.7l-2.7-2.9C656.1,50.6,655.9,50.6,655.8,50.6z M669.3,44.7c-0.3,0-0.5,0.2-0.5,0.5v4
	c0,0.3,0.2,0.5,0.5,0.5c0.3,0,0.5-0.2,0.5-0.5v-4C669.8,44.9,669.5,44.7,669.3,44.7z"/>
</svg>
