<?xml version="1.0" encoding="utf-8"?>
<!-- Generator: Adobe Illustrator 17.1.0, SVG Export Plug-In . SVG Version: 6.00 Build 0)  -->
<!DOCTYPE svg PUBLIC "-//W3C//DTD SVG 1.1//EN" "http://www.w3.org/Graphics/SVG/1.1/DTD/svg11.dtd">
<svg version="1.1" id="Layer_1" xmlns="http://www.w3.org/2000/svg" xmlns:xlink="http://www.w3.org/1999/xlink" x="0px" y="0px"
	 viewBox="0 0 818 330" enable-background="new 0 0 818 330" xml:space="preserve">
<rect x="0" y="0" fill="#FFFFFF" width="818" height="330"/>
<path fill="#FFB000" d="M595.3,136.5c0-10.8,2.8-19.5,8.4-26c1,0.3,2.1,0.7,3.2,1.2c6.5,2.8,12.3,7.1,17.2,13.1
	c-2.4,1.9-4.4,4.1-5.9,6.8c-4,7.4-5.5,16-6.8,23.6c-0.9,5-1.7,9.4-2.8,12.9C601.2,162,595.3,152.2,595.3,136.5L595.3,136.5z
	 M566.2,160.1c1.1,0.6,2.6,0.2,3.2-1l4-7.5c-0.8,7.4-1,19.3,4.9,26.6c3.4,4.3,8.3,6.4,14.6,6.4h0.2c9.3-0.1,14.5-3.9,17.7-9.5
	c12.5,7.6,26.2,7.9,26.4,7.9h0c1.3,0,2.3-1,2.3-2.3c0-1.3-1-2.3-2.3-2.4c-0.9,0-13.5-0.3-24.6-7.3c1.7-4.6,2.6-9.8,3.5-15
	c1.3-7.6,2.7-15.5,6.3-22.1c1.1-2.1,2.7-3.8,4.6-5.3c2.5,3.5,4.7,7.5,6.8,11.9l-6.3-6c-0.9-0.9-2.4-0.8-3.3,0.1
	c-0.9,0.9-0.8,2.4,0.1,3.3l15,14.2c0.4,0.4,1,0.6,1.6,0.6c0.3,0,0.7-0.1,1-0.2c0.9-0.4,1.4-1.3,1.3-2.3l-1.7-20.2
	c-0.1-1.3-1.3-2.2-2.5-2.1c-1.3,0.1-2.2,1.2-2.1,2.5l0.6,7c-2-4.1-4.1-7.9-6.5-11.3c10.9-5.7,27.8-6.1,38.1-5.7l-7.6,1.9
	c-1.3,0.3-2,1.6-1.7,2.8c0.3,1.1,1.2,1.8,2.3,1.8c0.2,0,0.4,0,0.6-0.1l20.1-5.1c0.9-0.2,1.6-1,1.7-2c0.1-1-0.4-1.9-1.2-2.3l-18-9.4
	c-1.1-0.6-2.6-0.2-3.2,1c-0.6,1.1-0.2,2.6,1,3.2l6.8,3.6c-10.9-0.5-29.4-0.1-41.7,6.6c-5.5-6.8-12-11.8-19.4-14.9
	c-0.4-0.2-0.8-0.3-1.3-0.5c12.1-10.1,29.4-9.3,29.6-9.3c1.3,0.1,2.4-0.9,2.5-2.2c0.1-1.3-0.9-2.4-2.2-2.5c-0.9,0-20.9-1-34.6,11.8
	c-0.1,0.1-0.3,0.3-0.4,0.4c-17.4-4.5-32.6,2-33.4,2.4c-1.2,0.5-1.7,1.9-1.2,3.1c0.5,1.2,1.9,1.7,3.1,1.2c0.2-0.1,13-5.6,27.9-2.6
	c-5.4,7.1-8.1,16.2-8.1,27.3c0,18.2,7.3,29.2,16.2,36c-2.6,4.8-6.6,7.4-13.8,7.5c-5,0-8.6-1.5-11.1-4.7c-4.4-5.5-4.6-14.8-4-21.4
	l1.7,6.8c0.3,1.1,1.2,1.8,2.3,1.8c0.2,0,0.4,0,0.6-0.1c1.3-0.3,2-1.6,1.7-2.8l-5.1-20.1c-0.2-0.9-1-1.6-2-1.7s-1.9,0.4-2.3,1.2
	l-9.4,18C564.6,158.1,565,159.5,566.2,160.1L566.2,160.1z"/>
<path d="M134,110.3l2.1-6.4c0.3-0.9,1.3-1.4,2.2-1.1c0.9,0.3,1.4,1.3,1.1,2.2l-2.1,6.4c-0.3,0.9-1.3,1.4-2.2,1.1
	C134.2,112.2,133.7,111.2,134,110.3z"/>
<path d="M118.1,102.8c0.9-0.3,1.9,0.2,2.2,1.1l2.1,6.4c0.3,0.9-0.2,1.9-1.1,2.2c-0.9,0.3-1.9-0.2-2.2-1.1L117,105
	C116.7,104.1,117.2,103.1,118.1,102.8z"/>
<path d="M95.5,133.8c0-0.9,0.8-1.7,1.7-1.7h6.7c0.9,0,1.7,0.8,1.7,1.7s-0.8,1.7-1.7,1.7h-6.7C96.3,135.5,95.5,134.8,95.5,133.8z"/>
<path d="M109.6,149.4l-5.4,4c-0.8,0.6-1.8,0.4-2.4-0.4c-0.6-0.8-0.4-1.8,0.4-2.4l5.4-4c0.8-0.6,1.8-0.4,2.4,0.4
	C110.5,147.8,110.4,148.8,109.6,149.4z"/>
<path d="M110,120.6c-0.6,0.8-1.6,0.9-2.4,0.4l-5.4-4c-0.8-0.6-0.9-1.6-0.4-2.4c0.6-0.8,1.6-0.9,2.4-0.4l5.4,4
	C110.4,118.8,110.5,119.8,110,120.6z"/>
<path d="M132.5,164.8L132.5,164.8C132.4,164.8,132.4,164.8,132.5,164.8c-0.1,0.9-0.8,1.6-1.6,1.6h-5.4c-0.9,0-1.5-0.7-1.5-1.5
	c0,0,0,0,0-0.1h-0.1c-0.9,0-1.5-0.7-1.5-1.5c0-0.9,0.7-1.5,1.5-1.5h8.6c0.9,0,1.5,0.7,1.5,1.5C134,164.1,133.3,164.8,132.5,164.8
	L132.5,164.8z"/>
<path d="M133.9,160.6h-11.6c-0.9,0-1.5-0.7-1.5-1.5s0.7-1.5,1.5-1.5h11.6c0.9,0,1.5,0.7,1.5,1.5
	C135.5,159.9,134.8,160.6,133.9,160.6z"/>
<path d="M146.7,118.2l5.4-4c0.8-0.6,1.8-0.4,2.4,0.4c0.6,0.8,0.4,1.8-0.4,2.4l-5.4,4c-0.8,0.6-1.8,0.4-2.4-0.4
	C145.7,119.8,145.9,118.8,146.7,118.2z"/>
<path d="M154.5,153c-0.6,0.8-1.6,0.9-2.4,0.4l-5.4-4c-0.8-0.6-0.9-1.6-0.4-2.4c0.6-0.8,1.6-0.9,2.4-0.4l5.4,4
	C154.9,151.1,155.1,152.2,154.5,153L154.5,153z"/>
<path d="M159,135.5h-6.7c-0.9,0-1.7-0.8-1.7-1.7s0.8-1.7,1.7-1.7h6.7c0.9,0,1.7,0.8,1.7,1.7C160.7,134.8,160,135.5,159,135.5z"/>
<path d="M181,155.6c-0.3,0.7-1.9,1.2-3,1.6c-1.8,0.7-4.4,1.5-4.4,4.1c0,2.2,1,3.5,1.8,4.4c0.4,0.5,0.6,0.8,0.7,1
	c-0.5,0.1-1.2,0.2-1.7,0.3c-1.5,0.2-4.4,0.6-4.3,3.2c0.1,2.4,2.4,2.8,3.6,3c0.1,0,0.3,0.1,0.5,0.1c-0.3,0.2-0.6,0.3-0.8,0.4
	c-1.3,0.6-3.4,1.7-3.4,4.1c0,1.1,0.6,2.2,1.3,3.6c2.1,4,2.3,5.7-0.3,7.1c-1.8,1-4.9,1.2-9.5,0.7c-6.4-0.8-8.7-1-8.7-1
	c-2.3-0.2-4.4,0.5-5.8,2c-1.4,1.5-1.9,3.7-1.4,6c0.6,2.9,0.8,6.2,0.4,7.7l-48.5,0c-0.7,0-1-0.2-1.1-0.3c-0.1-0.1-0.1-0.5,0.2-1.1
	c0.1-0.1,1.3-2.5,4.4-9.7c2.5-5.9,3.4-12.1,3.4-15.6c0-4.6-3.2-8.1-6.8-12.2c-3.4-3.8-7.3-8.2-9.5-14.3c-5.4-14.5-4.4-27.5,2.7-37.8
	c7.7-11,21.9-17.6,38.1-17.6c18.9,0,31.9,5.5,39.8,16.9c2.5,3.5,3.7,8.2,3.7,13.9c0,1.9-0.4,3.2-0.8,4.6c-0.4,1.5-0.9,3-0.9,5.1
	c0,5.5,3.2,9.1,6.3,12.5c1.6,1.8,3.2,3.6,4.2,5.5C181.5,154.5,181.2,155.3,181,155.6L181,155.6z M184.8,151.9
	c-1.3-2.4-3.1-4.4-4.8-6.3c-2.8-3.2-5.3-5.9-5.3-9.8c0-1.5,0.3-2.7,0.7-3.9c0.5-1.5,1-3.3,1-5.8c0-6.6-1.5-12.1-4.5-16.3
	c-8.8-12.6-22.9-18.7-43.2-18.7c-17.5,0-33.1,7.3-41.5,19.4c-5.5,8-10.6,21.7-3.2,41.6c2.4,6.9,6.8,11.8,10.3,15.7
	c3.2,3.6,5.8,6.5,5.8,9.4c0,3.3-1,8.9-3.1,14c-3,7-4.2,9.4-4.2,9.4c-0.9,1.8-1,3.7-0.1,5.2c0.9,1.5,2.6,2.3,4.6,2.3h49.2
	c0.1,0,0.2,0,0.3,0c0.1,0,0.2,0,0.3,0c0.6,0,1.2-0.3,1.6-0.8c2.4-2.9,1.1-9.9,0.7-11.9c-0.2-1,0-1.8,0.4-2.3
	c0.5-0.5,1.3-0.8,2.3-0.7c0,0,2.2,0.2,8.6,1c5.6,0.6,9.4,0.3,12-1.2c6.6-3.7,3.5-9.7,2-12.7c-0.3-0.5-0.6-1.2-0.8-1.5
	c0.3-0.2,0.7-0.4,1.1-0.6c1.4-0.7,3.6-1.8,3.6-4.4c0-1.2-0.4-2-1-2.5c1.4-0.5,2.6-1.4,2.6-3.3c0-2-1-3.2-1.7-4.1
	c-0.5-0.6-0.7-1-0.8-1.4c0.4-0.2,1.1-0.4,1.6-0.6c1.9-0.7,4.2-1.5,5.3-3.7C185.7,155.6,185.7,153.6,184.8,151.9L184.8,151.9z"/>
<path fill-rule="evenodd" clip-rule="evenodd" d="M436.3,192.5c-4.1-1.5-8.2-0.4-12.3,0.4c-11.7,2.6-23.4,5.6-35.1,7.9
	c-10.8,2.1-21.4,5-32.2,7.4c-4.6,1-9.3,1.6-14.1,2.4c-0.1-0.9-0.3-1.5-0.3-2.2c-0.1-4.3,0.2-8.6-0.8-12.8c-0.4-1.9-0.2-4-0.1-6
	c0.2-4.5-0.7-8.8-1.4-13.2c-0.6-3.5-1.2-7-1.2-10.6c0.1-8-1.1-16-2.2-23.9c-1-7.1-2.3-14.1-3.3-21.2c-0.4-2.4-0.4-4.8-0.8-7.3
	c-0.2-1.6,0.3-2.8,1.6-4c6.8-0.8,14.1-0.7,20.8-4.1c-0.5-3.3-0.9-6.5-1.7-9.7c-0.6-2.1-0.2-3.9,0.5-5.8c0.4-1.1,1.2-1.6,2.2-1.9
	c0.5-0.1,1.1-0.2,1.7-0.3c3.8-0.3,7.7-0.6,11.5-1c2-0.2,3.9-0.8,5.9-1.2c2.5-0.5,5-0.9,7.6-1.3c4.4-0.8,8.7-1.5,13-2.4
	c2.5-0.5,5-0.9,7.6-1c2.8-0.1,5.7-0.3,8.5-0.9c2.4-0.6,4.8-0.6,7.2-0.7c1.4-0.1,2.8-0.3,4.3-0.4c1.2,1.6,1.3,3.4,1.5,5.2
	c0.3,2.4,0.6,4.8,0.9,7.2c0.9,7.2,1.7,14.5,2.6,21.7c1.7,13.8,3.1,27.6,5.5,41.3c1.2,7.2,1.6,14.5,2.5,21.7
	c0.6,5.4,1.4,10.8,2.1,16.5C437.4,192.4,436.8,192.7,436.3,192.5L436.3,192.5z M418.7,200.3c-6.4,1.5-12.7,3.2-18.8,5.8
	c-3.3,1.4-6.7,2.3-10.1,3.4c-2.6,0.9-5.2,1.7-7.6,2.7c-3.7,1.5-7.3,3.3-10.9,4.9c-1.8,0.8-3.8,1.3-5.7,1.9c-1.9,0.6-3.8,1.3-5.6,2
	c-1.2,0.4-2.3,1-3.7,1.6c-2-3-3.6-6.1-4.2-9.5c0.4-0.3,0.6-0.6,0.8-0.6c6.8-0.9,13.3-3.2,20-4.6c4.7-1,9.5-1.9,14.2-3
	c6.3-1.4,12.5-3,18.8-4.4c6.4-1.4,12.9-2.6,19.3-3.8c0.9-0.2,1.9,0,3,0.2C425,198,422,199.6,418.7,200.3L418.7,200.3z M334.4,162.7
	c-1.5-2-1.9-3.6-2.4-5.2c-4.3-11.5-7.5-23.4-10.4-35.3c-0.8-3.3-1.7-6.6-2.7-9.9c-0.6-2.1-1.1-4.1-0.6-6.2c3.8-2,15-6.1,17.9-6.4
	c-1.6,2.4-2.6,4.9-4.6,6.8c-2.1,2-3,4.2-2.5,7.3c1.3,8.3,2.3,16.7,3.3,25c0.8,6.9,1.5,13.9,2.2,20.9
	C334.7,160.5,334.5,161.2,334.4,162.7L334.4,162.7z M336.9,104.3c3-4.5,6-9,9.1-13.5c0.7-1,1.5-2.1,3.3-2c1.1,4.9,2.1,9.6,3.2,14.4
	c-5.3,1.8-10.5,2.6-16.2,2.9C336.5,105.3,336.6,104.8,336.9,104.3L336.9,104.3z M442.6,190.7c-1.4-5.6-1.5-11.3-2.2-17
	c-0.9-7.1-1.5-14.2-2.9-21.2c-1.4-6.7-2.3-13.5-3.2-20.3c-1.1-7.9-1.9-15.9-3-23.8c-1.1-8.2-2.3-16.4-3.5-24.6
	c-0.2-1.7-0.5-3.4-0.9-5.1c-0.6-2.4-1.7-3.2-4.3-3.3c-5.9-0.2-11.7,0-17.5,1.4c-5.5,1.4-11.2,2.3-16.8,3.3c-4.1,0.7-8.2,1-12.3,1.9
	c-7.9,1.7-15.9,2-23.9,1.9c-2.4,0-4.1,0.6-5.6,2.3c-1.5,1.7-3,3.4-4.3,5.3c-1.1,1.6-2.4,2.7-4.2,3.4c-5.6,2.1-11.2,4.3-16.8,6.5
	c-1.6,0.6-3.2,1.2-4.8,1.9c-1.5,0.7-3,1.7-3.4,3.3c0.7,1.2,1.4,2.1,1.7,3.1c1.8,7.6,3.6,15.3,5.4,23c3.1,13.1,7.4,25.8,12.9,38.1
	c2,4.5,3.3,9.2,3.9,14c0.8,6.4,1.3,12.8,1.9,19.2c0.3,3.5,0.7,7.1,1.1,10.9c2.5-0.4,4.8-0.9,7.2-1.3c0.5,0.9,1,1.6,1.3,2.4
	c1.3,3.2,2.5,6.3,3.8,9.5c0.5,1.4,1.7,2,3,1.8c0.6-0.1,1.2-0.2,1.6-0.5c4.1-2.4,8.6-3.7,13.2-5c0.7-0.2,1.3-0.5,2-0.8
	c3.7-1.6,7.3-3.3,11-4.9c2.5-1,5.1-1.9,7.6-2.8c3.5-1.2,7.2-2.1,10.5-3.5c5.6-2.4,11.4-3.8,17.1-5.4c1.9-0.5,3.9-1,5.7-1.7
	c1.9-0.7,3.8-1.2,5.9-1c1.7,0.2,3.4,0,5.1-0.8c0.4-1.5,0.9-2.9,1.3-4.3c2.1-0.4,4-0.7,5.8-1C443.2,193.8,443,192.2,442.6,190.7
	L442.6,190.7z"/>
<path fill-rule="evenodd" clip-rule="evenodd" d="M416.9,168.4c0.4,0,0.9,0.1,1.3-0.1c0.5-0.2,1.1-0.6,1.2-1
	c0.1-0.4-0.3-1.2-0.6-1.4c-1.8-1.1-3.6-1-5.7-0.6c-5.1,1.1-10.3,2.3-15.5,2.6c-5.9,0.4-11.5,2.3-17.4,2.3c-0.7,0-1.4,0.4-2,0.7
	c-2.9,1.1-6,1.4-8.9,0.7c-2.8-0.6-4.7,0.1-6.6,1.8c-1.8,1.6-3.8,2.5-7.1,1.8c0.4,1.3,0.3,2.1,0.7,2.5c1.1,1,2.3,1,3.5,0
	c1.1-0.9,2-2.1,3-3.1c1.2-1.2,2.7-1.9,4.2-1.1c1.6,0.8,3.3,0.7,5,0.8c2.9,0.2,5.6-0.8,8.4-1.4c2.9-0.7,5.9-0.6,8.9-0.9
	c0.3,0,0.6-0.1,0.8-0.2c2.3-0.7,4.7-0.9,7.2-0.9c1.7,0,3.5,0.1,5-0.6c4.2-1.8,8.8-0.5,12.9-2.3C415.7,168,416.4,168.3,416.9,168.4
	L416.9,168.4z"/>
<path fill-rule="evenodd" clip-rule="evenodd" d="M357.7,115.7c2.1-1.2,4.3-1.6,6.6-1.4c1.9,0.1,3.7-0.2,5.5-0.8
	c1.6-0.6,3.2-1.2,4.9-1.5c1.5-0.3,3.3-0.6,4.6-0.1c2.3,0.8,4.2,0.4,6.2-0.5c1.6-0.7,3.4-1,5-0.3c2.2,1,4.2,0.6,6.1-0.6
	c2-1.3,4-1.5,6-0.4c1.6,0.9,3.3,1,5,0.6c1.9-0.5,3.8-1.2,5.6-2c0.3-0.1,0.6-0.7,0.5-1c-0.1-0.3-0.5-0.9-0.8-0.9
	c-1.1,0-2.4-0.2-3.3,0.3c-2.3,1.3-4.6,1.4-7,0.3c-0.1-0.1-0.3,0-0.4-0.1c-2.1-0.9-4.2-0.5-6.2,0.5c-0.5,0.3-1,0.6-1.6,0.7
	c-0.8,0.2-1.7,0.5-2.5,0.2c-2.8-0.9-5.4-0.4-7.9,0.7c-1.1,0.4-2.1,0.8-3.3,0.3c-2.4-0.9-4.7-0.5-7.1,0.1c-2.9,0.8-5.8,1.6-8.8,1.7
	c-3,0.2-5.9,0.6-8.7,1.7c-2.7,1.1-2.7,1-5.8-0.4c-1.6,2.7-1.2,3.9,1.2,4.1C353.7,117.1,355.8,116.8,357.7,115.7L357.7,115.7z"/>
<path fill-rule="evenodd" clip-rule="evenodd" d="M355.7,144.9c1.1-0.4,2.1-1,3.1-1.5c1.7-0.9,3.4-1,5.4-0.5c1.9,0.5,4,0.8,5.9,0.4
	c4.6-1,9.4-1.1,13.7-3.2c1.6-0.8,3.4-1.3,5-0.3c2.1,1.3,4.2,0.7,6.2,0.1c2.3-0.7,4.6-1.4,7.1-1.1c0.9,0.1,2.1-0.1,2.9-0.6
	c1.7-0.9,3.2-0.8,4.8,0.3c0.9,0.6,1.9,0.4,2.9-0.8c-1.1-1-2.1-1.5-3.3-1.4c-3.8,0.3-7.7,0.6-11.5,1.2c-2.8,0.5-5.5,1.3-8.5,0.5
	c-0.8-0.2-1.7,0-2.5,0.2c-4.9,0.9-9.9,1.2-14.8,2.3c-2.2,0.5-4.7,0.7-6.8,0.1c-2.6-0.7-4.8-0.3-7.1,0.5c-1.1,0.4-2.1,0.9-3,1.3
	c-0.7-0.7-1.3-1.2-1.9-1.8c-1.2,2-1.3,2.7-0.6,3.6C353.2,145,354.5,145.4,355.7,144.9L355.7,144.9z"/>
<path fill-rule="evenodd" clip-rule="evenodd" d="M358.1,161.4c1.7-1.2,3.4-2.5,5.5-4.1c1.9,2.1,3.9,2.9,6.1,2.3
	c3.5-0.9,6.9-1.8,10.5-1.7c0.1,0,0.3,0,0.4-0.1c3.2-1.4,6.6-1.6,10.1-1.5c2.3,0.1,4-1,5.5-3.1c-1.2,0.2-2.2,0.5-3.1,0.5
	c-4.9-0.2-9.7-0.2-14.4,1.6c-2.9,0-5.6,0.7-8.4,1.6c-1.2,0.4-2.6,0.6-3.7-0.2c-2.2-1.4-4-0.6-5.9,0.9c-1.1,0.9-2.2,1.8-3.8,1.7
	c-0.3-0.3-0.6-0.6-0.9-0.8c-0.4-0.3-1-0.7-1.4-0.6c-0.8,0.2-1,1-0.8,1.8C354.5,161.9,356.3,162.6,358.1,161.4L358.1,161.4z"/>
<path d="M359.7,126.3c0,0-0.1,0-0.1,0C359.5,126.3,359.5,126.3,359.7,126.3L359.7,126.3C359.6,126.4,359.6,126.4,359.7,126.3z"/>
<path d="M370.1,128.1c6.9-1,13.8-2.6,20.8-2.1c1.5,0.1,2.8-0.4,3.9-1.4c0.3-0.3,0.4-0.9,0.9-2c-3.8,1.4-7.2,1-10.6,1.3
	c-3,0.2-6,0.6-8.9,1c-4.6,0.7-9.1,2.6-13.8,0.4c-0.8-0.4-2.2-0.4-2.8,0.9c0.8,0.1,1.8,0,2.3,0.4
	C364.5,128.8,367.2,128.6,370.1,128.1L370.1,128.1z"/>
<path fill-rule="evenodd" clip-rule="evenodd" d="M410,151.3c-2.8,0.7-5.5,0.9-8.5,0.6c-0.1,1.7,0.8,2.1,1.6,2.2
	c1.5,0.2,3.1,0.1,4.6,0.1c1.3,0,2.6-0.5,3.7-0.2c1.9,0.4,3.3-0.4,4.7-1.4c0.3-0.2,0.3-0.9,0.5-1.3
	C414.1,151.2,411.9,150.8,410,151.3L410,151.3z"/>
<path fill-rule="evenodd" clip-rule="evenodd" d="M411,181.5c-1.2,0.4-2.5,0.5-3.7,0.6c-0.8,0.1-1.7,0-2.5,0.2
	c-0.4,0.1-0.7,0.7-1.1,1.1c0.4,0.4,0.8,1,1.2,1c1.1,0.1,2.4,0.4,3.4,0c2.7-1.1,5.4-1.8,8.3-1.7c1.1,0,2.2-0.5,2.9-2
	C416.3,180.2,413.6,180.5,411,181.5L411,181.5z"/>
<path fill-rule="evenodd" clip-rule="evenodd" d="M394,184.1c-0.5-0.1-1.3-0.1-1.6,0.1c-1.4,1.1-2.9,0.4-4.3,0.6
	c-0.3,1,0,1.8,0.8,1.6c2-0.4,3.8-0.2,5.7,0.6c1.7,0.7,3.3-0.1,4.6-1.3c-0.1-0.3-0.1-0.7-0.2-0.7C397.3,184.6,395.6,184.3,394,184.1z
	"/>
<path fill-rule="evenodd" clip-rule="evenodd" d="M403.5,122c-0.2-0.1-0.5,0-1,0c-0.1,0.5-0.4,1.1-0.3,1.5c0.2,0.6,0.6,1.3,1.1,1.7
	c0.9,0.9,2,1.1,3.1,0.4c2-1.3,4.1-2.5,6.3-3.5c-1,0-2,0.1-2.9,0.4C407.6,123.4,405.5,123.8,403.5,122L403.5,122z"/>
<path d="M357.5,127.1c0,0,0.1,0,0.1,0c0,0-0.1-0.1-0.1-0.1C357.6,127.1,357.5,127.1,357.5,127.1z"/>
<path d="M355.1,127.3c-0.7-0.1-1.5-0.5-2.7-1c0.3,1.3,0.2,2.2,0.6,2.7c0.5,0.6,1.4,0.4,1.9-0.1c0.8-0.7,2.1-0.7,2.6-1.8
	C356.7,127.2,355.9,127.4,355.1,127.3L355.1,127.3z"/>
<path d="M357.7,127.1C357.7,127.1,357.7,127.1,357.7,127.1C357.7,127,357.6,127,357.7,127.1C357.6,127,357.7,127.1,357.7,127.1z"/>
<path d="M357.7,127c0.7,0.1,1.4,0.1,1.8-0.7C358.8,126.3,358.1,126.3,357.7,127z"/>
<path d="M359.5,126.3C359.5,126.3,359.5,126.4,359.5,126.3C359.5,126.4,359.6,126.4,359.5,126.3
	C359.6,126.4,359.6,126.4,359.5,126.3C359.5,126.3,359.5,126.3,359.5,126.3z"/>
<path fill="#FFB000" d="M755.2,104.3c0-10.8-2.8-19.5-8.4-26c-1.1,0.3-2.1,0.7-3.2,1.2c-6.5,2.8-12.3,7.1-17.3,13.1
	c2.4,1.9,4.4,4.1,5.9,6.8c4,7.4,5.5,16,6.8,23.6c0.9,5,1.7,9.4,2.9,12.9C749.2,129.9,755.2,120.1,755.2,104.3L755.2,104.3z
	 M784.4,127.9c-1.1,0.6-2.6,0.2-3.2-1l-4-7.5c0.8,7.4,1,19.3-4.9,26.6c-3.4,4.3-8.4,6.4-14.7,6.4h-0.2c-9.3-0.1-14.5-3.9-17.7-9.5
	c-12.5,7.6-26.3,7.9-26.5,7.9h0c-1.3,0-2.3-1-2.4-2.3c0-1.3,1-2.3,2.3-2.4c0.9,0,13.5-0.3,24.7-7.3c-1.7-4.6-2.6-9.8-3.5-15
	c-1.3-7.6-2.7-15.5-6.3-22.1c-1.1-2.1-2.7-3.8-4.6-5.3c-2.5,3.5-4.8,7.5-6.8,11.9l6.4-6c0.9-0.9,2.4-0.8,3.3,0.1
	c0.9,0.9,0.8,2.4-0.1,3.3l-15.1,14.2c-0.4,0.4-1,0.6-1.6,0.6c-0.3,0-0.7-0.1-1-0.2c-0.9-0.4-1.4-1.3-1.3-2.3l1.7-20.2
	c0.1-1.3,1.3-2.2,2.5-2.1c1.3,0.1,2.3,1.2,2.2,2.5l-0.6,7c2-4.1,4.1-7.9,6.5-11.3c-10.9-5.7-27.9-6.1-38.3-5.7l7.7,1.9
	c1.3,0.3,2,1.6,1.7,2.8c-0.3,1.1-1.2,1.8-2.3,1.8c-0.2,0-0.4,0-0.6-0.1l-20.1-5.1c-0.9-0.2-1.6-1-1.8-2c-0.1-1,0.4-1.9,1.2-2.3
	l18-9.4c1.1-0.6,2.6-0.2,3.2,1c0.6,1.1,0.2,2.6-1,3.2l-6.8,3.6c10.9-0.5,29.5-0.1,41.8,6.6c5.5-6.8,12-11.8,19.4-14.9
	c0.4-0.2,0.9-0.3,1.3-0.5c-12.2-10.1-29.5-9.3-29.7-9.3c-1.3,0.1-2.4-0.9-2.5-2.2c-0.1-1.3,0.9-2.4,2.2-2.5c0.9,0,21-1,34.7,11.8
	c0.1,0.1,0.3,0.3,0.4,0.4c17.5-4.5,32.8,2,33.5,2.4c1.2,0.5,1.7,1.9,1.2,3.1c-0.5,1.2-1.9,1.7-3.1,1.2c-0.2-0.1-13.1-5.6-28-2.6
	c5.4,7.1,8.1,16.2,8.1,27.3c0,18.2-7.4,29.2-16.2,36c2.6,4.8,6.6,7.4,13.9,7.5c5,0,8.6-1.5,11.2-4.7c4.4-5.5,4.6-14.8,4.1-21.4
	l-1.7,6.8c-0.3,1.1-1.2,1.8-2.3,1.8c-0.2,0-0.4,0-0.6-0.1c-1.3-0.3-2-1.6-1.7-2.8l5.1-20.1c0.2-0.9,1-1.6,2-1.7s1.9,0.4,2.4,1.2
	l9.5,18C786,125.9,785.6,127.3,784.4,127.9L784.4,127.9z"/>
<path fill="#FFB000" d="M686.2,180.1c0,11.4,2.7,20.6,8,27.4c1-0.4,2-0.8,3-1.2c6.2-2.9,11.7-7.5,16.4-13.8c-2.3-2-4.2-4.3-5.6-7.2
	c-3.8-7.7-5.2-16.8-6.4-24.8c-0.8-5.3-1.6-9.9-2.7-13.6C691.8,153.3,686.2,163.6,686.2,180.1L686.2,180.1z M658.4,155.3
	c1.1-0.6,2.4-0.2,3,1l3.8,7.9c-0.8-7.8-1-20.3,4.6-28c3.3-4.5,7.9-6.8,13.9-6.8h0.2c8.8,0.1,13.8,4.1,16.8,10
	c11.9-8,24.9-8.3,25.2-8.3h0c1.2,0,2.2,1.1,2.2,2.4c0,1.4-1,2.5-2.2,2.5c-0.9,0-12.8,0.3-23.4,7.7c1.6,4.8,2.5,10.3,3.3,15.8
	c1.3,8,2.5,16.3,6,23.3c1.1,2.2,2.6,4,4.4,5.6c2.4-3.7,4.5-7.9,6.4-12.5l-6,6.3c-0.9,0.9-2.3,0.9-3.1-0.1c-0.8-1-0.8-2.6,0.1-3.5
	l14.3-15c0.4-0.4,1-0.7,1.5-0.7c0.3,0,0.7,0.1,1,0.2c0.8,0.4,1.3,1.4,1.3,2.4l-1.6,21.3c-0.1,1.4-1.2,2.4-2.4,2.3
	c-1.2-0.1-2.1-1.3-2-2.7l0.5-7.3c-1.9,4.4-3.9,8.3-6.2,11.9c10.4,6,26.5,6.4,36.3,6l-7.3-2c-1.2-0.3-1.9-1.7-1.6-3
	c0.3-1.1,1.2-1.9,2.2-1.9c0.2,0,0.4,0,0.5,0.1l19.1,5.4c0.9,0.3,1.6,1.1,1.7,2.1s-0.4,2-1.2,2.5l-17.1,9.9c-1.1,0.6-2.4,0.2-3-1
	c-0.6-1.2-0.2-2.7,0.9-3.3l6.4-3.7c-10.4,0.5-28,0.2-39.7-7c-5.2,7.1-11.4,12.4-18.4,15.7c-0.4,0.2-0.8,0.4-1.2,0.5
	c11.6,10.6,28,9.7,28.1,9.7c1.2-0.1,2.3,1,2.3,2.3c0.1,1.4-0.9,2.5-2.1,2.6c-0.8,0-19.9,1.1-32.9-12.5c-0.1-0.1-0.3-0.3-0.4-0.4
	c-16.6,4.8-31.1-2.1-31.7-2.5c-1.1-0.6-1.6-2-1.1-3.3c0.5-1.2,1.8-1.8,2.9-1.3c0.1,0.1,12.4,5.9,26.6,2.8
	c-5.1-7.5-7.7-17.1-7.7-28.7c0-19.1,7-30.8,15.4-37.9c-2.4-5.1-6.2-7.8-13.2-7.9c-4.7,0-8.2,1.6-10.6,4.9
	c-4.2,5.8-4.4,15.6-3.8,22.6l1.6-7.2c0.3-1.1,1.2-1.9,2.2-1.9c0.2,0,0.4,0,0.5,0.1c1.2,0.3,1.9,1.7,1.6,3l-4.8,21.1
	c-0.2,1-1,1.7-1.9,1.8c-0.9,0.1-1.8-0.4-2.2-1.3l-9-18.9C656.9,157.5,657.3,156,658.4,155.3L658.4,155.3z"/>
<line fill="none" stroke="#000000" stroke-miterlimit="10" x1="491" y1="154.1" x2="644" y2="25"/>
<line fill="none" stroke="#000000" stroke-miterlimit="10" x1="491" y1="154.1" x2="644" y2="284"/>
<path stroke="#F7F5F5" stroke-width="2" stroke-miterlimit="10" d="M440.9,166l-16.6-1.3l-0.5,0.5c-2.1,1.9-8.6,5.6-10.4,6.6
	c-1.9-0.2-3.7-0.8-3.9-1.3c0.9-2.2,10.6-8.9,13.8-9.8c8.2-2.2,18.9-4.1,24.2-2.6c0,0,0,0,0.1,0c1.2,0.3,3.3,2.5,5.4,5L440.9,166z
	 M429.7,172.4c-0.2-0.1-0.6-0.2-1.3-0.4l12.1-2.9c0.1,0.6,0,1.5-0.3,2.6C439.9,172.9,434.2,173,429.7,172.4L429.7,172.4z
	 M421.9,170.6c-0.2,0-0.3,0-0.5,0c1.7-1.1,3.4-2.2,4.5-3.1l6.6,0.5L421.9,170.6z M455.9,166.4c5.1,6.1,10.4,12.4,15.6,13.9l1.6,0.5
	c1.9,0.6,2.9,0.8,4.5,1.3l0.7-2.6c-1.5-0.4-2.5-0.7-4.4-1.3l-1.6-0.5c-4-1.2-9.4-7.5-13.7-12.7c-0.1-0.1-0.2-0.2-0.3-0.4l14.4-3.5
	l-1.3-2.6l-15.2,3.7c-3.3-3.8-5.6-6.2-7.8-6.8c-7.5-2.1-20.9,1-26.4,2.5c-3.7,1-14.4,8.1-15.6,11.3c-0.4,0.9-0.2,1.9,0.5,2.7
	c0.6,0.7,1.7,1.3,2.7,1.6l-6.5,1.6l1.3,2.6l8-1.9c0,0.1,0.1,0.2,0.1,0.3c1.2,2.8,5.8,5.9,13.3,6.4c5.9,0.4,7.6,1.5,9.4,2.7
	c1.1,0.7,2.4,1.5,4.4,2.1c0.6,0.2,1.3,0.4,1.9,0.6c0.8,0.2,1.6,0.5,2.5,0.8c3.6,1,8.3,1.9,17.2,1.9c1.2,0,2.5,0.5,4.9,1.3
	c1.9,0.6,4.4,1.5,7.9,2.5l0.7-2.6c-3.4-1-5.8-1.8-7.7-2.4c-2.6-0.9-4.3-1.5-6.2-1.5c-10.4,0-14.5-1.3-18.5-2.5
	c-0.7-0.2-1.3-0.4-2-0.6c-1.5-0.4-2.4-1-3.4-1.6c-2.1-1.3-4.4-2.8-11.3-3.3c-6.3-0.5-9.5-2.9-10.1-4.4c-0.3-0.7-0.1-1.3,0.7-1.7
	c2.8-1.6,10.1,0.3,12.8,1.1c3.1,0.4,13.1,1.6,14.3-2.4c0.5-1.9,0.4-3.3,0.2-4.3l11.5-2.8C455.4,165.8,455.7,166.1,455.9,166.4
	L455.9,166.4z"/>
<polygon fill-rule="evenodd" clip-rule="evenodd" fill="#FFFFFF" points="433.7,159 439,158.2 440.1,165 434.5,164.7 "/>
<polygon fill-rule="evenodd" clip-rule="evenodd" fill="#FFFFFF" points="436.1,176.2 441.1,175.8 441.5,184.6 436.4,182.6 "/>
<polygon fill-rule="evenodd" clip-rule="evenodd" fill="#F9F9F9" points="416.5,165.1 421.1,166.2 414.6,169.7 411.5,169.1 "/>
<line fill="none" stroke="#000000" stroke-miterlimit="10" x1="207" y1="155.1" x2="360" y2="26"/>
<line fill="none" stroke="#000000" stroke-miterlimit="10" x1="207" y1="155.1" x2="360" y2="285"/>
<path fill="none" stroke="#FFB000" stroke-width="2" stroke-miterlimit="10" d="M143.9,126c1.1,0,1.9,0.9,1.9,1.9
	c0,1.1-0.8,1.9-1.9,1.9s-1.9-0.8-1.9-1.9C142,126.8,142.9,126,143.9,126z M128.1,117.7c-9.5-0.2-18.1,7.1-18.8,16.8
	c-0.1,1.1,0,2.3,0.1,3.4c1,7.6,7.2,14.1,15.3,14.6c8.1,0.5,15.7-5.7,16.1-14c0.4-7.3-5.2-14-12.6-14.3c-6.4-0.3-12.3,4.6-12.5,11.2
	c-0.2,5.5,4.1,10.6,9.8,10.7c4.6,0.1,8.9-3.6,8.9-8.4c-0.1-3.8-3.1-7.3-7.1-7.1l0,0c-0.2,0-0.3,0.1-0.4,0.2
	c-0.1,0.1-0.2,0.3-0.2,0.4c0,0.2,0.1,0.3,0.2,0.4c0.1,0.1,0.3,0.2,0.4,0.1c3.2-0.2,5.8,2.7,5.8,5.9c0.1,4.1-3.7,7.3-7.7,7.2
	c-5-0.1-8.8-4.6-8.7-9.5c0.2-5.9,5.5-10.3,11.3-10c6.7,0.3,11.8,6.4,11.5,13c-0.4,7.6-7.4,13.3-14.9,12.9
	c-8.5-0.5-14.8-8.3-14.3-16.7c0.6-9.4,9.2-16.3,18.5-15.7c5,0.4,9.7,2.8,12.8,6.7c-0.6,0.6-0.9,1.4-0.9,2.2c0,1.7,1.4,3.1,3.1,3.1
	s3.1-1.4,3.1-3.1c0-1.7-1.4-3.1-3.1-3.1c-0.4,0-0.8,0.1-1.2,0.2c-3.4-4.1-8.3-6.8-13.7-7.2C128.7,117.8,128.4,117.7,128.1,117.7
	L128.1,117.7z"/>
<path fill="#FFB000" d="M122.3,132.3c-0.3,0-0.6,0.3-0.6,0.6c0,0.3,0.3,0.6,0.6,0.6c0.3,0,0.5,0,0.8,0c0.4,0,0.8,0.3,1,0.7h-1.9
	c-0.3,0-0.6,0.3-0.6,0.6c0,0.3,0.3,0.6,0.6,0.6h1.8c-0.2,0.4-0.5,0.7-0.9,0.7c-0.3,0-0.6,0-0.9,0c-0.3,0-0.6,0.3-0.6,0.6
	c0,0.3,0.3,0.6,0.6,0.6h0.4l1.5,3.5c0.1,0.3,0.5,0.4,0.8,0.3c0.3-0.1,0.4-0.5,0.3-0.8L124,137c0.7-0.3,1.2-0.9,1.3-1.7h0.3
	c0.3,0,0.6-0.3,0.6-0.6s-0.3-0.6-0.6-0.6h-0.3c-0.1-0.2-0.1-0.5-0.2-0.7h0.6c0.3,0,0.6-0.3,0.6-0.6s-0.3-0.6-0.6-0.6
	C122.3,132.3,123.4,132.3,122.3,132.3L122.3,132.3z"/>
</svg>
