<?xml version="1.0" encoding="utf-8"?>
<!-- Generator: Adobe Illustrator 17.1.0, SVG Export Plug-In . SVG Version: 6.00 Build 0)  -->
<!DOCTYPE svg PUBLIC "-//W3C//DTD SVG 1.1//EN" "http://www.w3.org/Graphics/SVG/1.1/DTD/svg11.dtd">
<svg version="1.1" id="Layer_1" xmlns="http://www.w3.org/2000/svg" xmlns:xlink="http://www.w3.org/1999/xlink" x="0px" y="0px"
	 viewBox="0 0 800 600" enable-background="new 0 0 800 600" xml:space="preserve">
<g>
	<g>
		<path fill="none" stroke="#588DDB" stroke-width="8.2445" stroke-miterlimit="10" d="M346.9,575.1
			c11.9-154.1,138.9-227.8,420.4-265.5"/>
		<g>
			<path fill="#588DDB" d="M346,600c4.9-11.5,12.9-25.7,21.1-34.3l-19.9,6.2l-19.3-8C335.4,573.3,342.2,588.1,346,600z"/>
		</g>
		<g>
			<path fill="#588DDB" d="M792,306.5c-11,5.9-24.4,15.2-32.3,24.2l4.4-20.4l-9.7-18.5C764.4,298.4,779.8,303.8,792,306.5z"/>
		</g>
	</g>
</g>
<g>
	<g>
		<path fill="none" stroke="#588DDB" stroke-width="9.6776" stroke-miterlimit="10" stroke-dasharray="40,40" d="M556.3,516.8
			c-4.7-106.3-50.5-463.6-515.6-402.3"/>
		<g>
			<path fill="#588DDB" d="M557,546c4.7-13.9,12.9-31.2,21.8-42l-22.8,9l-23.2-7.6C542.3,515.6,551.5,532.4,557,546z"/>
		</g>
		<g>
			<path fill="#588DDB" d="M11.8,118.7c12.9-7,28.5-18.1,37.6-28.7l-5,24L56,135.6C44.3,128,26.1,121.8,11.8,118.7z"/>
		</g>
	</g>
</g>
<g>
	<g>
		<path fill="none" stroke="#588DDB" stroke-width="6.1158" stroke-miterlimit="10" stroke-dasharray="18.3475,18.3475" d="
			M28.1,37.4C70.8,114,314,407.5,769.5,423"/>
		<g>
			<path fill="#588DDB" d="M21.3,20.2c0.3,9.3-0.6,21.3-3.5,29.7l11.4-10.4l15.4-0.7C36.7,34.9,27.5,27,21.3,20.2z"/>
		</g>
		<g>
			<path fill="#588DDB" d="M788,423.5c-8.8,3-19.7,8.2-26.5,13.8l5.7-14.4l-4.8-14.7C768.8,414.2,779.4,420,788,423.5z"/>
		</g>
	</g>
</g>
<g>
	<g>
		<path fill="none" stroke="#588DDB" stroke-width="8.2445" stroke-miterlimit="10" stroke-dasharray="40,40" d="M645.7,74.6
			c-1.7,107.4-60,358.7-551.5,442.7"/>
		<g>
			<path fill="#588DDB" d="M642,25c-7.2,23.9-20.1,53.9-34.6,72.9l38.2-16.7l40,11.6C668.8,75.8,652.2,47.8,642,25z"/>
		</g>
		<g>
			<path fill="#588DDB" d="M45,525c21.8-12.2,48.2-31.4,63.5-49.7l-7.9,40.9l20.1,36.5C100.5,540,69.5,529.9,45,525z"/>
		</g>
	</g>
</g>
<g>
	<g>
		<path fill="none" stroke="#588DDB" stroke-width="9.8484" stroke-miterlimit="10" stroke-dasharray="15,15" d="M530.5,42
			c-42,94.6-165.6,411.7,5.6,526.4"/>
		<g>
			<path fill="#588DDB" d="M543,15c-10.6,10.5-25.8,22.6-38.9,28.5l24.8,2.1L546.7,63C542.7,49.3,541.9,29.9,543,15z"/>
		</g>
		<g>
			<path fill="#588DDB" d="M562,583c-14.7-2.5-34.2-3.5-48.2-0.8l19.1-16l4.4-24.5C541.9,555.2,552.5,571.5,562,583z"/>
		</g>
	</g>
</g>
<g>
	<g>
		<path fill="none" stroke="#588DDB" stroke-width="5.0087" stroke-miterlimit="10" stroke-dasharray="8,8" d="M56.9,458.3
			c78.3-37,323.8-133,691.1-91.9"/>
		<g>
			<path fill="#588DDB" d="M30,472c15.1-1.7,34.9-1.7,49,1.9l-18.4-17.4l-3.1-25.1C52,444.9,40.3,460.9,30,472z"/>
		</g>
		<g>
			<path fill="#588DDB" d="M778,370c-14.7,3.6-33.3,10.5-45.3,18.7L744,366l-5.8-24.7C748,352.1,764.5,363.1,778,370z"/>
		</g>
	</g>
</g>
<rect x="561" y="122" fill="#FFFFFF" width="142" height="27"/>
<rect x="209" y="222" fill="#FFFFFF" width="142" height="27"/>
<g>
	<path d="M237,238.3c0.6,0.4,1.5,0.7,2.5,0.7c1.4,0,2.3-0.8,2.3-1.8c0-1-0.6-1.6-2-2.1c-1.8-0.6-2.8-1.5-2.8-3.1
		c0-1.7,1.4-2.9,3.5-2.9c1.1,0,1.9,0.3,2.4,0.5l-0.4,1.1c-0.4-0.2-1.1-0.5-2-0.5c-1.5,0-2,0.9-2,1.6c0,1,0.7,1.5,2.1,2.1
		c1.8,0.7,2.8,1.6,2.8,3.2c0,1.7-1.2,3.1-3.8,3.1c-1,0-2.2-0.3-2.8-0.7L237,238.3z"/>
	<path d="M251.5,237.9c0,0.8,0,1.5,0.1,2.1h-1.2l-0.1-1.3h0c-0.4,0.6-1.2,1.4-2.6,1.4c-1.2,0-2.7-0.7-2.7-3.4v-4.5h1.4v4.3
		c0,1.5,0.4,2.5,1.7,2.5c0.9,0,1.6-0.7,1.9-1.3c0.1-0.2,0.1-0.5,0.1-0.7v-4.8h1.4V237.9z"/>
	<path d="M253.9,234.8c0-1,0-1.8-0.1-2.5h1.3l0.1,1.3h0c0.6-0.9,1.5-1.5,2.8-1.5c1.9,0,3.3,1.6,3.3,3.9c0,2.8-1.7,4.2-3.5,4.2
		c-1,0-1.9-0.4-2.4-1.2h0v4.2h-1.4V234.8z M255.3,236.8c0,0.2,0,0.4,0.1,0.6c0.3,1,1.1,1.6,2.1,1.6c1.5,0,2.4-1.2,2.4-3
		c0-1.6-0.8-2.9-2.3-2.9c-1,0-1.9,0.7-2.1,1.7c0,0.2-0.1,0.4-0.1,0.6V236.8z"/>
	<path d="M263,234.8c0-1,0-1.8-0.1-2.5h1.3l0.1,1.3h0c0.6-0.9,1.5-1.5,2.8-1.5c1.9,0,3.3,1.6,3.3,3.9c0,2.8-1.7,4.2-3.5,4.2
		c-1,0-1.9-0.4-2.4-1.2h0v4.2H263V234.8z M264.4,236.8c0,0.2,0,0.4,0.1,0.6c0.3,1,1.1,1.6,2.1,1.6c1.5,0,2.4-1.2,2.4-3
		c0-1.6-0.8-2.9-2.3-2.9c-1,0-1.9,0.7-2.1,1.7c0,0.2-0.1,0.4-0.1,0.6V236.8z"/>
	<path d="M279.1,236.1c0,2.9-2,4.1-3.9,4.1c-2.1,0-3.7-1.5-3.7-4c0-2.6,1.7-4.1,3.8-4.1C277.6,232.1,279.1,233.7,279.1,236.1z
		 M272.9,236.1c0,1.7,1,3,2.4,3c1.3,0,2.4-1.3,2.4-3c0-1.3-0.7-3-2.3-3S272.9,234.7,272.9,236.1z"/>
	<path d="M280.9,234.7c0-0.9,0-1.7-0.1-2.4h1.2l0,1.5h0.1c0.4-1,1.2-1.7,2.1-1.7c0.2,0,0.3,0,0.4,0v1.3c-0.1,0-0.3,0-0.5,0
		c-1,0-1.7,0.8-1.9,1.8c0,0.2-0.1,0.4-0.1,0.7v4.1h-1.4V234.7z"/>
	<path d="M288.2,230v2.2h2v1.1h-2v4.2c0,1,0.3,1.5,1.1,1.5c0.4,0,0.6,0,0.8-0.1l0.1,1.1c-0.3,0.1-0.7,0.2-1.2,0.2
		c-0.7,0-1.2-0.2-1.5-0.6c-0.4-0.4-0.5-1.1-0.5-2v-4.2h-1.2v-1.1h1.2v-1.9L288.2,230z"/>
</g>
<rect x="82" y="406" fill="#FFFFFF" width="178" height="25"/>
<rect x="427" y="95" fill="#FFFFFF" width="142" height="27"/>
<g>
	<path d="M480.3,103.8c-0.1-1.5-0.2-3.3-0.2-4.7h0c-0.4,1.3-0.8,2.6-1.4,4.1l-1.9,5.2h-1.1l-1.7-5.1c-0.5-1.5-0.9-2.9-1.2-4.2h0
		c0,1.3-0.1,3.2-0.2,4.8l-0.3,4.6h-1.3l0.8-10.8h1.8l1.8,5.2c0.4,1.3,0.8,2.5,1.1,3.6h0c0.3-1.1,0.7-2.3,1.1-3.6l1.9-5.2h1.8
		l0.7,10.8h-1.4L480.3,103.8z"/>
	<path d="M488.4,108.5l-0.1-1h0c-0.4,0.6-1.3,1.2-2.4,1.2c-1.6,0-2.4-1.1-2.4-2.2c0-1.9,1.7-2.9,4.7-2.9v-0.2c0-0.6-0.2-1.8-1.8-1.8
		c-0.7,0-1.5,0.2-2,0.6l-0.3-0.9c0.6-0.4,1.6-0.7,2.5-0.7c2.4,0,2.9,1.6,2.9,3.2v2.9c0,0.7,0,1.3,0.1,1.9H488.4z M488.2,104.5
		c-1.5,0-3.3,0.2-3.3,1.7c0,0.9,0.6,1.3,1.3,1.3c1,0,1.6-0.6,1.9-1.3c0-0.1,0.1-0.3,0.1-0.4V104.5z"/>
	<path d="M491.8,103.2c0-0.9,0-1.7-0.1-2.4h1.2l0,1.5h0.1c0.4-1,1.2-1.7,2.1-1.7c0.2,0,0.3,0,0.4,0v1.3c-0.1,0-0.3,0-0.5,0
		c-1,0-1.7,0.8-1.9,1.8c0,0.2-0.1,0.4-0.1,0.7v4.1h-1.4V103.2z"/>
	<path d="M498.5,104.3L498.5,104.3c0.2-0.3,0.5-0.6,0.7-0.9l2.3-2.7h1.7l-3,3.2l3.4,4.6h-1.7l-2.7-3.7l-0.7,0.8v2.9h-1.4V97.1h1.4
		V104.3z"/>
	<path d="M505.4,104.9c0,1.9,1.2,2.7,2.7,2.7c1,0,1.6-0.2,2.1-0.4l0.2,1c-0.5,0.2-1.3,0.5-2.6,0.5c-2.4,0-3.8-1.6-3.8-3.9
		s1.4-4.2,3.6-4.2c2.5,0,3.2,2.2,3.2,3.6c0,0.3,0,0.5,0,0.7H505.4z M509.6,103.9c0-0.9-0.4-2.3-2-2.3c-1.4,0-2,1.3-2.2,2.3H509.6z"
		/>
	<path d="M514.4,98.5v2.2h2v1.1h-2v4.2c0,1,0.3,1.5,1.1,1.5c0.4,0,0.6,0,0.8-0.1l0.1,1.1c-0.3,0.1-0.7,0.2-1.2,0.2
		c-0.7,0-1.2-0.2-1.5-0.6c-0.4-0.4-0.5-1.1-0.5-2v-4.2h-1.2v-1.1h1.2v-1.9L514.4,98.5z"/>
	<path d="M519.5,98.6c0,0.5-0.3,0.9-0.9,0.9c-0.5,0-0.8-0.4-0.8-0.9c0-0.5,0.4-0.9,0.9-0.9C519.2,97.7,519.5,98.1,519.5,98.6z
		 M518,108.5v-7.7h1.4v7.7H518z"/>
	<path d="M521.7,102.8c0-0.8,0-1.5-0.1-2.1h1.2l0.1,1.3h0c0.4-0.7,1.3-1.5,2.6-1.5c1.1,0,2.7,0.6,2.7,3.3v4.6h-1.4V104
		c0-1.2-0.5-2.3-1.8-2.3c-0.9,0-1.6,0.7-1.9,1.4c-0.1,0.2-0.1,0.4-0.1,0.7v4.7h-1.4V102.8z"/>
	<path d="M537.2,100.8c0,0.6-0.1,1.2-0.1,2.1v4.5c0,1.8-0.4,2.9-1.1,3.5c-0.8,0.7-1.8,0.9-2.8,0.9c-0.9,0-2-0.2-2.6-0.6l0.4-1.1
		c0.5,0.3,1.3,0.6,2.3,0.6c1.4,0,2.5-0.8,2.5-2.7v-0.9h0c-0.4,0.7-1.3,1.3-2.5,1.3c-1.9,0-3.3-1.6-3.3-3.8c0-2.6,1.7-4.1,3.5-4.1
		c1.3,0,2.1,0.7,2.4,1.3h0l0.1-1.2H537.2z M535.8,103.8c0-0.2,0-0.4-0.1-0.6c-0.3-0.8-0.9-1.5-2-1.5c-1.3,0-2.3,1.1-2.3,2.9
		c0,1.5,0.8,2.8,2.3,2.8c0.9,0,1.6-0.5,2-1.4c0.1-0.2,0.1-0.5,0.1-0.8V103.8z"/>
</g>
<g>
	<path d="M118.2,412.8c0.7-0.1,1.6-0.2,2.7-0.2c1.4,0,2.4,0.3,3,0.9c0.6,0.5,0.9,1.3,0.9,2.3c0,1-0.3,1.7-0.8,2.3
		c-0.7,0.8-1.9,1.2-3.3,1.2c-0.4,0-0.8,0-1.1-0.1v4.3h-1.4V412.8z M119.6,418c0.3,0.1,0.7,0.1,1.2,0.1c1.7,0,2.7-0.8,2.7-2.3
		c0-1.4-1-2.1-2.5-2.1c-0.6,0-1.1,0-1.3,0.1V418z"/>
	<path d="M126.4,418.2c0-0.9,0-1.7-0.1-2.4h1.2l0,1.5h0.1c0.4-1,1.2-1.7,2.1-1.7c0.2,0,0.3,0,0.4,0v1.3c-0.1,0-0.3,0-0.5,0
		c-1,0-1.7,0.8-1.9,1.8c0,0.2-0.1,0.4-0.1,0.7v4.1h-1.4V418.2z"/>
	<path d="M138.5,419.6c0,2.9-2,4.1-3.9,4.1c-2.1,0-3.7-1.5-3.7-4c0-2.6,1.7-4.1,3.8-4.1C137,415.6,138.5,417.2,138.5,419.6z
		 M132.4,419.6c0,1.7,1,3,2.4,3c1.3,0,2.4-1.3,2.4-3c0-1.3-0.7-3-2.3-3C133.1,416.6,132.4,418.2,132.4,419.6z"/>
	<path d="M147,412.1v9.4c0,0.7,0,1.5,0.1,2h-1.3l-0.1-1.3h0c-0.4,0.9-1.4,1.5-2.6,1.5c-1.9,0-3.3-1.6-3.3-3.9c0-2.6,1.6-4.2,3.5-4.2
		c1.2,0,2,0.6,2.3,1.2h0v-4.6H147z M145.6,418.9c0-0.2,0-0.4-0.1-0.6c-0.2-0.9-1-1.6-2-1.6c-1.5,0-2.3,1.3-2.3,3
		c0,1.6,0.8,2.9,2.3,2.9c0.9,0,1.8-0.6,2.1-1.7c0-0.2,0.1-0.4,0.1-0.6V418.9z"/>
	<path d="M155.8,421.4c0,0.8,0,1.5,0.1,2.1h-1.2l-0.1-1.3h0c-0.4,0.6-1.2,1.4-2.6,1.4c-1.2,0-2.7-0.7-2.7-3.4v-4.5h1.4v4.3
		c0,1.5,0.4,2.5,1.7,2.5c0.9,0,1.6-0.7,1.9-1.3c0.1-0.2,0.1-0.5,0.1-0.7v-4.8h1.4V421.4z"/>
	<path d="M163.6,423.2c-0.4,0.2-1.2,0.4-2.2,0.4c-2.3,0-3.9-1.6-3.9-4c0-2.4,1.6-4.1,4.2-4.1c0.8,0,1.6,0.2,2,0.4l-0.3,1.1
		c-0.3-0.2-0.9-0.4-1.6-0.4c-1.8,0-2.7,1.3-2.7,2.9c0,1.8,1.2,2.9,2.7,2.9c0.8,0,1.3-0.2,1.7-0.4L163.6,423.2z"/>
	<path d="M167.2,413.5v2.2h2v1.1h-2v4.2c0,1,0.3,1.5,1.1,1.5c0.4,0,0.6,0,0.8-0.1l0.1,1.1c-0.3,0.1-0.7,0.2-1.2,0.2
		c-0.7,0-1.2-0.2-1.5-0.6c-0.4-0.4-0.5-1.1-0.5-2v-4.2h-1.2v-1.1h1.2v-1.9L167.2,413.5z"/>
	<path d="M179.8,418.4h-4.2v3.9h4.7v1.2h-6.1v-10.8h5.8v1.2h-4.4v3.4h4.2V418.4z"/>
	<path d="M182.5,415.8l1.5,4.4c0.3,0.7,0.5,1.3,0.6,2h0c0.2-0.6,0.4-1.3,0.7-2l1.5-4.4h1.5l-3,7.7h-1.3l-2.9-7.7H182.5z"/>
	<path d="M193.9,423.5l-0.1-1h0c-0.4,0.6-1.3,1.2-2.4,1.2c-1.6,0-2.4-1.1-2.4-2.2c0-1.9,1.7-2.9,4.7-2.9v-0.2c0-0.6-0.2-1.8-1.8-1.8
		c-0.7,0-1.5,0.2-2,0.6l-0.3-0.9c0.6-0.4,1.6-0.7,2.5-0.7c2.4,0,2.9,1.6,2.9,3.2v2.9c0,0.7,0,1.3,0.1,1.9H193.9z M193.7,419.5
		c-1.5,0-3.3,0.2-3.3,1.7c0,0.9,0.6,1.3,1.3,1.3c1,0,1.6-0.6,1.9-1.3c0-0.1,0.1-0.3,0.1-0.4V419.5z"/>
	<path d="M197.3,417.8c0-0.8,0-1.5-0.1-2.1h1.2l0.1,1.3h0c0.4-0.7,1.3-1.5,2.6-1.5c1.1,0,2.7,0.6,2.7,3.3v4.6h-1.4V419
		c0-1.2-0.5-2.3-1.8-2.3c-0.9,0-1.6,0.7-1.9,1.4c-0.1,0.2-0.1,0.4-0.1,0.7v4.7h-1.4V417.8z"/>
	<path d="M212.8,415.8c0,0.6-0.1,1.2-0.1,2.1v4.5c0,1.8-0.4,2.9-1.1,3.5c-0.8,0.7-1.8,0.9-2.8,0.9c-0.9,0-2-0.2-2.6-0.6l0.4-1.1
		c0.5,0.3,1.3,0.6,2.3,0.6c1.4,0,2.5-0.8,2.5-2.7v-0.9h0c-0.4,0.7-1.3,1.3-2.5,1.3c-1.9,0-3.3-1.6-3.3-3.8c0-2.6,1.7-4.1,3.5-4.1
		c1.3,0,2.1,0.7,2.4,1.3h0l0.1-1.2H212.8z M211.4,418.8c0-0.2,0-0.4-0.1-0.6c-0.3-0.8-0.9-1.5-2-1.5c-1.3,0-2.3,1.1-2.3,2.9
		c0,1.5,0.8,2.8,2.3,2.8c0.9,0,1.6-0.5,2-1.4c0.1-0.2,0.1-0.5,0.1-0.8V418.8z"/>
	<path d="M215.9,419.9c0,1.9,1.2,2.7,2.7,2.7c1,0,1.6-0.2,2.1-0.4l0.2,1c-0.5,0.2-1.3,0.5-2.6,0.5c-2.4,0-3.8-1.6-3.8-3.9
		s1.4-4.2,3.6-4.2c2.5,0,3.2,2.2,3.2,3.6c0,0.3,0,0.5,0,0.7H215.9z M220,418.9c0-0.9-0.4-2.3-2-2.3c-1.4,0-2,1.3-2.2,2.3H220z"/>
	<path d="M223.1,412.1h1.4v11.4h-1.4V412.1z"/>
	<path d="M228.5,413.6c0,0.5-0.3,0.9-0.9,0.9c-0.5,0-0.8-0.4-0.8-0.9c0-0.5,0.4-0.9,0.9-0.9C228.1,412.7,228.5,413.1,228.5,413.6z
		 M226.9,423.5v-7.7h1.4v7.7H226.9z"/>
	<path d="M230.5,422.1c0.4,0.3,1.2,0.6,1.9,0.6c1,0,1.5-0.5,1.5-1.2c0-0.7-0.4-1-1.4-1.4c-1.4-0.5-2-1.3-2-2.2c0-1.2,1-2.3,2.7-2.3
		c0.8,0,1.5,0.2,1.9,0.5l-0.4,1c-0.3-0.2-0.9-0.4-1.6-0.4c-0.8,0-1.3,0.5-1.3,1.1c0,0.6,0.5,0.9,1.5,1.3c1.3,0.5,2,1.2,2,2.3
		c0,1.4-1.1,2.3-2.9,2.3c-0.8,0-1.6-0.2-2.2-0.5L230.5,422.1z"/>
	<path d="M238.7,413.5v2.2h2v1.1h-2v4.2c0,1,0.3,1.5,1.1,1.5c0.4,0,0.6,0,0.8-0.1l0.1,1.1c-0.3,0.1-0.7,0.2-1.2,0.2
		c-0.7,0-1.2-0.2-1.5-0.6c-0.4-0.4-0.5-1.1-0.5-2v-4.2h-1.2v-1.1h1.2v-1.9L238.7,413.5z"/>
	<path d="M242.1,422.1c0.4,0.3,1.2,0.6,1.9,0.6c1,0,1.5-0.5,1.5-1.2c0-0.7-0.4-1-1.4-1.4c-1.4-0.5-2-1.3-2-2.2c0-1.2,1-2.3,2.7-2.3
		c0.8,0,1.5,0.2,1.9,0.5l-0.4,1c-0.3-0.2-0.9-0.4-1.6-0.4c-0.8,0-1.3,0.5-1.3,1.1c0,0.6,0.5,0.9,1.5,1.3c1.3,0.5,2,1.2,2,2.3
		c0,1.4-1.1,2.3-2.9,2.3c-0.8,0-1.6-0.2-2.2-0.5L242.1,422.1z"/>
</g>
<g>
	<path d="M616.3,130.4H613v-1.2h8v1.2h-3.3v9.6h-1.4V130.4z"/>
	<path d="M621.4,134.7c0-0.9,0-1.7-0.1-2.4h1.2l0,1.5h0.1c0.4-1,1.2-1.7,2.1-1.7c0.2,0,0.3,0,0.4,0v1.3c-0.1,0-0.3,0-0.5,0
		c-1,0-1.7,0.8-1.9,1.8c0,0.2-0.1,0.4-0.1,0.7v4.1h-1.4V134.7z"/>
	<path d="M630.8,140l-0.1-1h0c-0.4,0.6-1.3,1.2-2.4,1.2c-1.6,0-2.4-1.1-2.4-2.2c0-1.9,1.7-2.9,4.7-2.9v-0.2c0-0.6-0.2-1.8-1.8-1.8
		c-0.7,0-1.5,0.2-2,0.6l-0.3-0.9c0.6-0.4,1.6-0.7,2.5-0.7c2.4,0,2.9,1.6,2.9,3.2v2.9c0,0.7,0,1.3,0.1,1.9H630.8z M630.6,136
		c-1.5,0-3.3,0.2-3.3,1.7c0,0.9,0.6,1.3,1.3,1.3c1,0,1.6-0.6,1.9-1.3c0-0.1,0.1-0.3,0.1-0.4V136z"/>
	<path d="M635.8,130.1c0,0.5-0.3,0.9-0.9,0.9c-0.5,0-0.8-0.4-0.8-0.9c0-0.5,0.4-0.9,0.9-0.9C635.5,129.2,635.8,129.6,635.8,130.1z
		 M634.3,140v-7.7h1.4v7.7H634.3z"/>
	<path d="M638,134.3c0-0.8,0-1.5-0.1-2.1h1.2l0.1,1.3h0c0.4-0.7,1.3-1.5,2.6-1.5c1.1,0,2.7,0.6,2.7,3.3v4.6h-1.4v-4.5
		c0-1.2-0.5-2.3-1.8-2.3c-0.9,0-1.6,0.7-1.9,1.4c-0.1,0.2-0.1,0.4-0.1,0.7v4.7H638V134.3z"/>
	<path d="M648.5,130.1c0,0.5-0.3,0.9-0.9,0.9c-0.5,0-0.8-0.4-0.8-0.9c0-0.5,0.4-0.9,0.9-0.9C648.1,129.2,648.5,129.6,648.5,130.1z
		 M646.9,140v-7.7h1.4v7.7H646.9z"/>
	<path d="M650.6,134.3c0-0.8,0-1.5-0.1-2.1h1.2l0.1,1.3h0c0.4-0.7,1.3-1.5,2.6-1.5c1.1,0,2.7,0.6,2.7,3.3v4.6h-1.4v-4.5
		c0-1.2-0.5-2.3-1.8-2.3c-0.9,0-1.6,0.7-1.9,1.4c-0.1,0.2-0.1,0.4-0.1,0.7v4.7h-1.4V134.3z"/>
	<path d="M666.2,132.3c0,0.6-0.1,1.2-0.1,2.1v4.5c0,1.8-0.4,2.9-1.1,3.5c-0.8,0.7-1.8,0.9-2.8,0.9c-0.9,0-2-0.2-2.6-0.6l0.4-1.1
		c0.5,0.3,1.3,0.6,2.3,0.6c1.4,0,2.5-0.8,2.5-2.7v-0.9h0c-0.4,0.7-1.3,1.3-2.5,1.3c-1.9,0-3.3-1.6-3.3-3.8c0-2.6,1.7-4.1,3.5-4.1
		c1.3,0,2.1,0.7,2.4,1.3h0l0.1-1.2H666.2z M664.7,135.3c0-0.2,0-0.4-0.1-0.6c-0.3-0.8-0.9-1.5-2-1.5c-1.3,0-2.3,1.1-2.3,2.9
		c0,1.5,0.8,2.8,2.3,2.8c0.9,0,1.6-0.5,2-1.4c0.1-0.2,0.1-0.5,0.1-0.8V135.3z"/>
</g>
<rect x="221" y="119" fill="#FFFFFF" width="142" height="30"/>
<g>
	<path d="M237,138.3c0.6,0.4,1.5,0.7,2.5,0.7c1.4,0,2.3-0.8,2.3-1.8c0-1-0.6-1.6-2-2.1c-1.8-0.6-2.8-1.5-2.8-3.1
		c0-1.7,1.4-2.9,3.5-2.9c1.1,0,1.9,0.3,2.4,0.5l-0.4,1.1c-0.4-0.2-1.1-0.5-2-0.5c-1.5,0-2,0.9-2,1.6c0,1,0.7,1.5,2.1,2.1
		c1.8,0.7,2.8,1.6,2.8,3.2c0,1.7-1.2,3.1-3.8,3.1c-1,0-2.2-0.3-2.8-0.7L237,138.3z"/>
	<path d="M252.2,136.1c0,2.9-2,4.1-3.9,4.1c-2.1,0-3.7-1.5-3.7-4c0-2.6,1.7-4.1,3.8-4.1C250.7,132.1,252.2,133.7,252.2,136.1z
		 M246,136.1c0,1.7,1,3,2.4,3c1.3,0,2.4-1.3,2.4-3c0-1.3-0.7-3-2.3-3S246,134.7,246,136.1z"/>
	<path d="M253.9,128.6h1.4V140h-1.4V128.6z"/>
	<path d="M264.2,137.9c0,0.8,0,1.5,0.1,2.1H263l-0.1-1.3h0c-0.4,0.6-1.2,1.4-2.6,1.4c-1.2,0-2.7-0.7-2.7-3.4v-4.5h1.4v4.3
		c0,1.5,0.4,2.5,1.7,2.5c0.9,0,1.6-0.7,1.9-1.3c0.1-0.2,0.1-0.5,0.1-0.7v-4.8h1.4V137.9z"/>
	<path d="M268.2,130v2.2h2v1.1h-2v4.2c0,1,0.3,1.5,1.1,1.5c0.4,0,0.6,0,0.8-0.1l0.1,1.1c-0.3,0.1-0.7,0.2-1.2,0.2
		c-0.7,0-1.2-0.2-1.5-0.6c-0.4-0.4-0.5-1.1-0.5-2v-4.2h-1.2v-1.1h1.2v-1.9L268.2,130z"/>
	<path d="M273.4,130.1c0,0.5-0.3,0.9-0.9,0.9c-0.5,0-0.8-0.4-0.8-0.9c0-0.5,0.4-0.9,0.9-0.9C273.1,129.2,273.4,129.6,273.4,130.1z
		 M271.8,140v-7.7h1.4v7.7H271.8z"/>
	<path d="M282.6,136.1c0,2.9-2,4.1-3.9,4.1c-2.1,0-3.7-1.5-3.7-4c0-2.6,1.7-4.1,3.8-4.1C281.1,132.1,282.6,133.7,282.6,136.1z
		 M276.4,136.1c0,1.7,1,3,2.4,3c1.3,0,2.4-1.3,2.4-3c0-1.3-0.7-3-2.3-3S276.4,134.7,276.4,136.1z"/>
	<path d="M284.4,134.3c0-0.8,0-1.5-0.1-2.1h1.2l0.1,1.3h0c0.4-0.7,1.3-1.5,2.6-1.5c1.1,0,2.7,0.6,2.7,3.3v4.6h-1.4v-4.5
		c0-1.2-0.5-2.3-1.8-2.3c-0.9,0-1.6,0.7-1.9,1.4c-0.1,0.2-0.1,0.4-0.1,0.7v4.7h-1.4V134.3z"/>
	<path d="M293,138.6c0.4,0.3,1.2,0.6,1.9,0.6c1,0,1.5-0.5,1.5-1.2c0-0.7-0.4-1-1.4-1.4c-1.4-0.5-2-1.3-2-2.2c0-1.2,1-2.3,2.7-2.3
		c0.8,0,1.5,0.2,1.9,0.5l-0.4,1c-0.3-0.2-0.9-0.4-1.6-0.4c-0.8,0-1.3,0.5-1.3,1.1c0,0.6,0.5,0.9,1.5,1.3c1.3,0.5,2,1.2,2,2.3
		c0,1.4-1.1,2.3-2.9,2.3c-0.8,0-1.6-0.2-2.2-0.5L293,138.6z"/>
	<path d="M304.8,136.6l-1.1,3.4h-1.4l3.7-10.8h1.7l3.7,10.8h-1.5l-1.2-3.4H304.8z M308.3,135.5l-1.1-3.1c-0.2-0.7-0.4-1.3-0.6-2h0
		c-0.2,0.6-0.3,1.3-0.5,2l-1.1,3.1H308.3z"/>
	<path d="M312.7,134.7c0-0.9,0-1.7-0.1-2.4h1.2l0,1.5h0.1c0.4-1,1.2-1.7,2.1-1.7c0.2,0,0.3,0,0.4,0v1.3c-0.1,0-0.3,0-0.5,0
		c-1,0-1.7,0.8-1.9,1.8c0,0.2-0.1,0.4-0.1,0.7v4.1h-1.4V134.7z"/>
	<path d="M323.3,139.7c-0.4,0.2-1.2,0.4-2.2,0.4c-2.3,0-3.9-1.6-3.9-4c0-2.4,1.6-4.1,4.2-4.1c0.8,0,1.6,0.2,2,0.4l-0.3,1.1
		c-0.3-0.2-0.9-0.4-1.6-0.4c-1.8,0-2.7,1.3-2.7,2.9c0,1.8,1.2,2.9,2.7,2.9c0.8,0,1.3-0.2,1.7-0.4L323.3,139.7z"/>
	<path d="M324.9,128.6h1.4v4.8h0c0.2-0.4,0.6-0.8,1-1c0.4-0.2,0.9-0.4,1.4-0.4c1,0,2.7,0.6,2.7,3.3v4.6h-1.4v-4.4
		c0-1.2-0.5-2.3-1.8-2.3c-0.9,0-1.6,0.6-1.9,1.4c-0.1,0.2-0.1,0.4-0.1,0.7v4.7h-1.4V128.6z"/>
	<path d="M335.4,130.1c0,0.5-0.3,0.9-0.9,0.9c-0.5,0-0.8-0.4-0.8-0.9c0-0.5,0.4-0.9,0.9-0.9C335.1,129.2,335.4,129.6,335.4,130.1z
		 M333.8,140v-7.7h1.4v7.7H333.8z"/>
	<path d="M339.3,130v2.2h2v1.1h-2v4.2c0,1,0.3,1.5,1.1,1.5c0.4,0,0.6,0,0.8-0.1l0.1,1.1c-0.3,0.1-0.7,0.2-1.2,0.2
		c-0.7,0-1.2-0.2-1.5-0.6c-0.4-0.4-0.5-1.1-0.5-2v-4.2h-1.2v-1.1h1.2v-1.9L339.3,130z"/>
	<path d="M343.6,136.4c0,1.9,1.2,2.7,2.7,2.7c1,0,1.6-0.2,2.1-0.4l0.2,1c-0.5,0.2-1.3,0.5-2.6,0.5c-2.4,0-3.8-1.6-3.8-3.9
		s1.4-4.2,3.6-4.2c2.5,0,3.2,2.2,3.2,3.6c0,0.3,0,0.5,0,0.7H343.6z M347.7,135.4c0-0.9-0.4-2.3-2-2.3c-1.4,0-2,1.3-2.2,2.3H347.7z"
		/>
	<path d="M356.3,139.7c-0.4,0.2-1.2,0.4-2.2,0.4c-2.3,0-3.9-1.6-3.9-4c0-2.4,1.6-4.1,4.2-4.1c0.8,0,1.6,0.2,2,0.4l-0.3,1.1
		c-0.3-0.2-0.9-0.4-1.6-0.4c-1.8,0-2.7,1.3-2.7,2.9c0,1.8,1.2,2.9,2.7,2.9c0.8,0,1.3-0.2,1.7-0.4L356.3,139.7z"/>
	<path d="M359.9,130v2.2h2v1.1h-2v4.2c0,1,0.3,1.5,1.1,1.5c0.4,0,0.6,0,0.8-0.1l0.1,1.1c-0.3,0.1-0.7,0.2-1.2,0.2
		c-0.7,0-1.2-0.2-1.5-0.6c-0.4-0.4-0.5-1.1-0.5-2v-4.2h-1.2v-1.1h1.2v-1.9L359.9,130z"/>
	<path d="M363.3,138.6c0.4,0.3,1.2,0.6,1.9,0.6c1,0,1.5-0.5,1.5-1.2c0-0.7-0.4-1-1.4-1.4c-1.4-0.5-2-1.3-2-2.2c0-1.2,1-2.3,2.7-2.3
		c0.8,0,1.5,0.2,1.9,0.5l-0.4,1c-0.3-0.2-0.9-0.4-1.6-0.4c-0.8,0-1.3,0.5-1.3,1.1c0,0.6,0.5,0.9,1.5,1.3c1.3,0.5,2,1.2,2,2.3
		c0,1.4-1.1,2.3-2.9,2.3c-0.8,0-1.6-0.2-2.2-0.5L363.3,138.6z"/>
</g>
<g>
	<g>
		<path fill="none" stroke="#588DDB" stroke-width="3" stroke-miterlimit="10" stroke-dasharray="25.835,25.835" d="M769.9,456.5
			c-88.1-6.1-477.1-52.7-745.4-318.1"/>
		<g>
			<path fill="#588DDB" d="M788,457.2c-8.4-3.5-18.7-9.4-25-15.4l4.5,14.5l-5.8,14C768.5,464.9,779.3,460,788,457.2z"/>
		</g>
		<g>
			<path fill="#588DDB" d="M11.8,125.5c8.2,3.8,19.5,7.5,28.2,8.1L26.2,140l-6.5,13.7C19.2,145.1,15.6,133.8,11.8,125.5z"/>
		</g>
	</g>
</g>
<rect x="272" y="546" fill="#FFFFFF" width="142" height="27"/>
<g>
	<path d="M319.8,558.9h-4.2v3.9h4.7v1.2h-6.1v-10.8h5.8v1.2h-4.4v3.4h4.2V558.9z"/>
	<path d="M322,558.3c0-0.8,0-1.5-0.1-2.1h1.2l0.1,1.3h0c0.4-0.7,1.3-1.5,2.6-1.5c1.1,0,2.7,0.6,2.7,3.3v4.6h-1.4v-4.5
		c0-1.2-0.5-2.3-1.8-2.3c-0.9,0-1.6,0.7-1.9,1.4c-0.1,0.2-0.1,0.4-0.1,0.7v4.7H322V558.3z"/>
	<path d="M337.6,552.6v9.4c0,0.7,0,1.5,0.1,2h-1.3l-0.1-1.3h0c-0.4,0.9-1.4,1.5-2.6,1.5c-1.9,0-3.3-1.6-3.3-3.9
		c0-2.6,1.6-4.2,3.5-4.2c1.2,0,2,0.6,2.3,1.2h0v-4.6H337.6z M336.2,559.4c0-0.2,0-0.4-0.1-0.6c-0.2-0.9-1-1.6-2-1.6
		c-1.5,0-2.3,1.3-2.3,3c0,1.6,0.8,2.9,2.3,2.9c0.9,0,1.8-0.6,2.1-1.7c0-0.2,0.1-0.4,0.1-0.6V559.4z"/>
	<path d="M349.8,561.9c0,0.8,0,1.5,0.1,2.1h-1.2l-0.1-1.3h0c-0.4,0.6-1.2,1.4-2.6,1.4c-1.2,0-2.7-0.7-2.7-3.4v-4.5h1.4v4.3
		c0,1.5,0.4,2.5,1.7,2.5c0.9,0,1.6-0.7,1.9-1.3c0.1-0.2,0.1-0.5,0.1-0.7v-4.8h1.4V561.9z"/>
	<path d="M352,562.6c0.4,0.3,1.2,0.6,1.9,0.6c1,0,1.5-0.5,1.5-1.2c0-0.7-0.4-1-1.4-1.4c-1.4-0.5-2-1.3-2-2.2c0-1.2,1-2.3,2.7-2.3
		c0.8,0,1.5,0.2,1.9,0.5l-0.4,1c-0.3-0.2-0.9-0.4-1.6-0.4c-0.8,0-1.3,0.5-1.3,1.1c0,0.6,0.5,0.9,1.5,1.3c1.3,0.5,2,1.2,2,2.3
		c0,1.4-1.1,2.3-2.9,2.3c-0.8,0-1.6-0.2-2.2-0.5L352,562.6z"/>
	<path d="M359.3,560.4c0,1.9,1.2,2.7,2.7,2.7c1,0,1.6-0.2,2.1-0.4l0.2,1c-0.5,0.2-1.3,0.5-2.6,0.5c-2.4,0-3.8-1.6-3.8-3.9
		c0-2.3,1.4-4.2,3.6-4.2c2.5,0,3.2,2.2,3.2,3.7c0,0.3,0,0.5,0,0.7H359.3z M363.4,559.4c0-0.9-0.4-2.3-2-2.3c-1.4,0-2,1.3-2.2,2.3
		H363.4z"/>
	<path d="M366.5,558.7c0-0.9,0-1.7-0.1-2.4h1.2l0,1.5h0.1c0.4-1,1.2-1.7,2.1-1.7c0.2,0,0.3,0,0.4,0v1.3c-0.1,0-0.3,0-0.5,0
		c-1,0-1.7,0.8-1.9,1.8c0,0.2-0.1,0.4-0.1,0.7v4.1h-1.4V558.7z"/>
	<path d="M371.5,562.6c0.4,0.3,1.2,0.6,1.9,0.6c1,0,1.5-0.5,1.5-1.2c0-0.7-0.4-1-1.4-1.4c-1.4-0.5-2-1.3-2-2.2c0-1.2,1-2.3,2.7-2.3
		c0.8,0,1.5,0.2,1.9,0.5l-0.4,1c-0.3-0.2-0.9-0.4-1.6-0.4c-0.8,0-1.3,0.5-1.3,1.1c0,0.6,0.5,0.9,1.5,1.3c1.3,0.5,2,1.2,2,2.3
		c0,1.4-1.1,2.3-2.9,2.3c-0.8,0-1.6-0.2-2.2-0.5L371.5,562.6z"/>
</g>
<g>
	<g>
		<path fill="none" stroke="#588DDB" stroke-width="2.6805" stroke-miterlimit="10" stroke-dasharray="23.0835,23.0835" d="
			M287.2,578.5c31.6-60,171.1-286.1,484.7-299"/>
		<g>
			<path fill="#588DDB" d="M280,593c5.9-5.5,14.5-11.8,21.6-14.8l-13.5-1.6l-9.3-9.8C280.8,574.3,280.9,584.9,280,593z"/>
		</g>
		<g>
			<path fill="#588DDB" d="M788,279c-7.5,3.1-16.8,8.2-22.5,13.4l4.2-12.9l-5-12.6C770.7,271.9,780.3,276.4,788,279z"/>
		</g>
	</g>
</g>
<g>
	<path fill="#706F6F" d="M562,400c0,5.5-4.5,10-10,10H409c-5.5,0-10-4.5-10-10v-69c0-5.5,4.5-10,10-10h143c5.5,0,10,4.5,10,10V400z"
		/>
	<path fill="none" stroke="#FCFAFA" stroke-miterlimit="10" d="M562.5,399.5c0,5.5-4.5,10-10,10h-143c-5.5,0-10-4.5-10-10v-69
		c0-5.5,4.5-10,10-10h143c5.5,0,10,4.5,10,10V399.5z"/>
</g>
<rect x="646" y="274" fill="#FFFFFF" width="100" height="23"/>
<g>
	<path fill="#FCFCFC" d="M414.8,356.7c1.1-0.2,2.6-0.3,4.1-0.3c2.6,0,4.2,0.5,5.5,1.4c1.4,1,2.3,2.7,2.3,5.1c0,2.6-0.9,4.4-2.2,5.5
		c-1.4,1.2-3.6,1.7-6.2,1.7c-1.6,0-2.7-0.1-3.5-0.2V356.7z M417.9,367.7c0.3,0.1,0.7,0.1,1.1,0.1c2.8,0,4.6-1.5,4.6-4.7
		c0-2.8-1.6-4.3-4.2-4.3c-0.7,0-1.1,0.1-1.4,0.1V367.7z"/>
	<path fill="#FCFCFC" d="M438.3,365c0,3.6-2.5,5.2-5.2,5.2c-2.9,0-5.1-1.9-5.1-5c0-3.2,2.1-5.2,5.2-5.2
		C436.3,360,438.3,362.1,438.3,365z M431.2,365.1c0,1.7,0.7,2.9,2,2.9c1.2,0,1.9-1.2,1.9-2.9c0-1.5-0.6-2.9-1.9-2.9
		C431.8,362.2,431.2,363.7,431.2,365.1z"/>
	<path fill="#FCFCFC" d="M447.6,369.8c-0.5,0.2-1.6,0.4-2.7,0.4c-3.2,0-5.2-1.9-5.2-5c0-2.9,2-5.2,5.6-5.2c0.8,0,1.7,0.1,2.3,0.4
		l-0.5,2.3c-0.4-0.2-0.9-0.3-1.7-0.3c-1.6,0-2.6,1.1-2.6,2.7c0,1.8,1.2,2.7,2.7,2.7c0.7,0,1.3-0.1,1.7-0.3L447.6,369.8z"/>
	<path fill="#FCFCFC" d="M458.5,366.9c0,1.3,0,2.3,0.1,3.1h-2.6l-0.1-1.4h-0.1c-0.4,0.6-1.3,1.6-3.1,1.6c-2,0-3.4-1.2-3.4-4.3v-5.7
		h3.1v5.3c0,1.4,0.5,2.3,1.5,2.3c0.8,0,1.3-0.6,1.5-1.1c0.1-0.2,0.1-0.4,0.1-0.7v-5.8h3.1V366.9z"/>
	<path fill="#FCFCFC" d="M460.9,363.3c0-1.2,0-2.3-0.1-3.1h2.6l0.1,1.3h0.1c0.4-0.6,1.3-1.5,3-1.5c1.3,0,2.3,0.6,2.7,1.7h0
		c0.4-0.5,0.8-0.9,1.3-1.2c0.5-0.3,1.1-0.5,1.9-0.5c1.9,0,3.3,1.3,3.3,4.2v5.8h-3v-5.3c0-1.4-0.5-2.2-1.4-2.2
		c-0.7,0-1.2,0.5-1.4,1.1c-0.1,0.2-0.1,0.5-0.1,0.8v5.7h-3v-5.5c0-1.2-0.4-2.1-1.4-2.1c-0.8,0-1.2,0.6-1.4,1.1
		c-0.1,0.2-0.1,0.5-0.1,0.8v5.7h-3V363.3z"/>
	<path fill="#FCFCFC" d="M480.5,366.1c0.1,1.3,1.3,1.9,2.8,1.9c1,0,1.9-0.1,2.7-0.4l0.4,2.1c-1,0.4-2.2,0.6-3.5,0.6
		c-3.3,0-5.2-1.9-5.2-5c0-2.5,1.5-5.2,4.9-5.2c3.2,0,4.4,2.5,4.4,4.9c0,0.5-0.1,1-0.1,1.2H480.5z M484,364c0-0.7-0.3-2-1.7-2
		c-1.3,0-1.8,1.2-1.9,2H484z"/>
	<path fill="#FCFCFC" d="M488.7,363.3c0-1.2,0-2.3-0.1-3.1h2.6l0.1,1.3h0.1c0.4-0.6,1.4-1.6,3-1.6c2,0,3.5,1.3,3.5,4.2v5.8h-3v-5.4
		c0-1.3-0.4-2.1-1.5-2.1c-0.8,0-1.3,0.6-1.5,1.1c-0.1,0.2-0.1,0.5-0.1,0.8v5.6h-3V363.3z"/>
	<path fill="#FCFCFC" d="M503.7,357.4v2.8h2.2v2.2h-2.2v3.5c0,1.2,0.3,1.7,1.2,1.7c0.4,0,0.7,0,0.9-0.1l0,2.3
		c-0.4,0.2-1.1,0.3-2,0.3c-1,0-1.8-0.3-2.3-0.8c-0.6-0.6-0.8-1.5-0.8-2.9v-4h-1.3v-2.2h1.3v-2.1L503.7,357.4z"/>
	<path fill="#FCFCFC" d="M513.2,370l-0.2-1h-0.1c-0.6,0.8-1.6,1.2-2.8,1.2c-2,0-3.2-1.4-3.2-3c0-2.5,2.3-3.8,5.7-3.7v-0.1
		c0-0.5-0.3-1.3-1.8-1.3c-1,0-2.1,0.3-2.7,0.7l-0.6-2c0.7-0.4,2-0.9,3.8-0.9c3.3,0,4.3,1.9,4.3,4.2v3.4c0,0.9,0,1.8,0.1,2.4H513.2z
		 M512.8,365.4c-1.6,0-2.8,0.4-2.8,1.5c0,0.8,0.5,1.2,1.2,1.2c0.8,0,1.4-0.5,1.6-1.1c0-0.2,0.1-0.3,0.1-0.5V365.4z"/>
	<path fill="#FCFCFC" d="M521.4,357.4v2.8h2.2v2.2h-2.2v3.5c0,1.2,0.3,1.7,1.2,1.7c0.4,0,0.7,0,0.9-0.1l0,2.3
		c-0.4,0.2-1.1,0.3-2,0.3c-1,0-1.8-0.3-2.3-0.8c-0.6-0.6-0.8-1.5-0.8-2.9v-4h-1.3v-2.2h1.3v-2.1L521.4,357.4z"/>
	<path fill="#FCFCFC" d="M528.5,357.5c0,0.8-0.6,1.5-1.6,1.5c-1,0-1.6-0.7-1.6-1.5c0-0.9,0.6-1.5,1.6-1.5
		C527.9,356,528.5,356.6,528.5,357.5z M525.4,370v-9.8h3v9.8H525.4z"/>
	<path fill="#FCFCFC" d="M540.5,365c0,3.6-2.5,5.2-5.2,5.2c-2.9,0-5.1-1.9-5.1-5c0-3.2,2.1-5.2,5.2-5.2
		C538.5,360,540.5,362.1,540.5,365z M533.4,365.1c0,1.7,0.7,2.9,2,2.9c1.2,0,1.9-1.2,1.9-2.9c0-1.5-0.6-2.9-1.9-2.9
		C534,362.2,533.4,363.7,533.4,365.1z"/>
	<path fill="#FCFCFC" d="M542.4,363.3c0-1.2,0-2.3-0.1-3.1h2.6l0.1,1.3h0.1c0.4-0.6,1.4-1.6,3-1.6c2,0,3.5,1.3,3.5,4.2v5.8h-3v-5.4
		c0-1.3-0.4-2.1-1.5-2.1c-0.8,0-1.3,0.6-1.5,1.1c-0.1,0.2-0.1,0.5-0.1,0.8v5.6h-3V363.3z"/>
</g>
<rect x="604" y="440" fill="#FFFFFF" width="142" height="27"/>
<g>
	<path d="M615.6,446.2V457h-1.4v-10.8H615.6z"/>
	<path d="M618.2,451.3c0-0.8,0-1.5-0.1-2.1h1.2l0.1,1.3h0c0.4-0.7,1.3-1.5,2.6-1.5c1.1,0,2.7,0.6,2.7,3.3v4.6h-1.4v-4.5
		c0-1.2-0.5-2.3-1.8-2.3c-0.9,0-1.6,0.7-1.9,1.4c-0.1,0.2-0.1,0.4-0.1,0.7v4.7h-1.4V451.3z"/>
	<path d="M628.7,447v2.2h2v1.1h-2v4.2c0,1,0.3,1.5,1.1,1.5c0.4,0,0.6,0,0.8-0.1l0.1,1.1c-0.3,0.1-0.7,0.2-1.2,0.2
		c-0.7,0-1.2-0.2-1.5-0.6c-0.4-0.4-0.5-1.1-0.5-2v-4.2h-1.2v-1.1h1.2v-1.9L628.7,447z"/>
	<path d="M633,453.4c0,1.9,1.2,2.7,2.7,2.7c1,0,1.6-0.2,2.1-0.4l0.2,1c-0.5,0.2-1.3,0.5-2.6,0.5c-2.4,0-3.8-1.6-3.8-3.9
		c0-2.3,1.4-4.2,3.6-4.2c2.5,0,3.2,2.2,3.2,3.7c0,0.3,0,0.5,0,0.7H633z M637.1,452.4c0-0.9-0.4-2.3-2-2.3c-1.4,0-2,1.3-2.2,2.3
		H637.1z"/>
	<path d="M640.2,451.7c0-0.9,0-1.7-0.1-2.4h1.2l0,1.5h0.1c0.4-1,1.2-1.7,2.1-1.7c0.2,0,0.3,0,0.4,0v1.3c-0.1,0-0.3,0-0.5,0
		c-1,0-1.7,0.8-1.9,1.8c0,0.2-0.1,0.4-0.1,0.7v4.1h-1.4V451.7z"/>
	<path d="M645.5,451.3c0-0.8,0-1.5-0.1-2.1h1.2l0.1,1.3h0c0.4-0.7,1.3-1.5,2.6-1.5c1.1,0,2.7,0.6,2.7,3.3v4.6h-1.4v-4.5
		c0-1.2-0.5-2.3-1.8-2.3c-0.9,0-1.6,0.7-1.9,1.4c-0.1,0.2-0.1,0.4-0.1,0.7v4.7h-1.4V451.3z"/>
	<path d="M658.6,457l-0.1-1h0c-0.4,0.6-1.3,1.2-2.4,1.2c-1.6,0-2.4-1.1-2.4-2.2c0-1.9,1.7-2.9,4.7-2.9v-0.2c0-0.6-0.2-1.8-1.8-1.8
		c-0.7,0-1.5,0.2-2,0.6l-0.3-0.9c0.6-0.4,1.6-0.7,2.5-0.7c2.4,0,2.9,1.6,2.9,3.2v2.9c0,0.7,0,1.3,0.1,1.9H658.6z M658.4,453
		c-1.5,0-3.3,0.2-3.3,1.7c0,0.9,0.6,1.3,1.3,1.3c1,0,1.6-0.6,1.9-1.3c0-0.1,0.1-0.3,0.1-0.4V453z"/>
	<path d="M662.1,445.6h1.4V457h-1.4V445.6z"/>
	<path d="M670,453.4c0,1.9,1.2,2.7,2.7,2.7c1,0,1.6-0.2,2.1-0.4l0.2,1c-0.5,0.2-1.3,0.5-2.6,0.5c-2.4,0-3.8-1.6-3.8-3.9
		c0-2.3,1.4-4.2,3.6-4.2c2.5,0,3.2,2.2,3.2,3.7c0,0.3,0,0.5,0,0.7H670z M674.2,452.4c0-0.9-0.4-2.3-2-2.3c-1.4,0-2,1.3-2.2,2.3
		H674.2z"/>
	<path d="M677.3,451.3c0-0.8,0-1.5-0.1-2.1h1.2l0.1,1.3h0c0.4-0.7,1.3-1.5,2.6-1.5c1.1,0,2.7,0.6,2.7,3.3v4.6h-1.4v-4.5
		c0-1.2-0.5-2.3-1.8-2.3c-0.9,0-1.6,0.7-1.9,1.4c-0.1,0.2-0.1,0.4-0.1,0.7v4.7h-1.4V451.3z"/>
	<path d="M692.8,449.3c0,0.6-0.1,1.2-0.1,2.1v4.5c0,1.8-0.4,2.9-1.1,3.5c-0.8,0.7-1.8,0.9-2.8,0.9c-0.9,0-2-0.2-2.6-0.6l0.4-1.1
		c0.5,0.3,1.3,0.6,2.3,0.6c1.4,0,2.5-0.8,2.5-2.7v-0.9h0c-0.4,0.7-1.3,1.3-2.5,1.3c-1.9,0-3.3-1.6-3.3-3.8c0-2.6,1.7-4.1,3.5-4.1
		c1.3,0,2.1,0.7,2.4,1.3h0l0.1-1.2H692.8z M691.4,452.3c0-0.2,0-0.4-0.1-0.6c-0.3-0.8-0.9-1.5-2-1.5c-1.3,0-2.3,1.1-2.3,2.9
		c0,1.5,0.8,2.8,2.3,2.8c0.9,0,1.6-0.5,2-1.4c0.1-0.2,0.1-0.5,0.1-0.8V452.3z"/>
	<path d="M696.6,447.1c0,0.5-0.3,0.9-0.9,0.9c-0.5,0-0.8-0.4-0.8-0.9c0-0.5,0.4-0.9,0.9-0.9C696.2,446.2,696.6,446.6,696.6,447.1z
		 M695,457v-7.7h1.4v7.7H695z"/>
	<path d="M698.7,451.3c0-0.8,0-1.5-0.1-2.1h1.2l0.1,1.3h0c0.4-0.7,1.3-1.5,2.6-1.5c1.1,0,2.7,0.6,2.7,3.3v4.6h-1.4v-4.5
		c0-1.2-0.5-2.3-1.8-2.3c-0.9,0-1.6,0.7-1.9,1.4c-0.1,0.2-0.1,0.4-0.1,0.7v4.7h-1.4V451.3z"/>
	<path d="M708.4,453.4c0,1.9,1.2,2.7,2.7,2.7c1,0,1.6-0.2,2.1-0.4l0.2,1c-0.5,0.2-1.3,0.5-2.6,0.5c-2.4,0-3.8-1.6-3.8-3.9
		c0-2.3,1.4-4.2,3.6-4.2c2.5,0,3.2,2.2,3.2,3.7c0,0.3,0,0.5,0,0.7H708.4z M712.5,452.4c0-0.9-0.4-2.3-2-2.3c-1.4,0-2,1.3-2.2,2.3
		H712.5z"/>
	<path d="M716.4,453.4c0,1.9,1.2,2.7,2.7,2.7c1,0,1.6-0.2,2.1-0.4l0.2,1c-0.5,0.2-1.3,0.5-2.6,0.5c-2.4,0-3.8-1.6-3.8-3.9
		c0-2.3,1.4-4.2,3.6-4.2c2.5,0,3.2,2.2,3.2,3.7c0,0.3,0,0.5,0,0.7H716.4z M720.5,452.4c0-0.9-0.4-2.3-2-2.3c-1.4,0-2,1.3-2.2,2.3
		H720.5z"/>
	<path d="M723.6,451.7c0-0.9,0-1.7-0.1-2.4h1.2l0,1.5h0.1c0.4-1,1.2-1.7,2.1-1.7c0.2,0,0.3,0,0.4,0v1.3c-0.1,0-0.3,0-0.5,0
		c-1,0-1.7,0.8-1.9,1.8c0,0.2-0.1,0.4-0.1,0.7v4.1h-1.4V451.7z"/>
	<path d="M728.7,455.6c0.4,0.3,1.2,0.6,1.9,0.6c1,0,1.5-0.5,1.5-1.2c0-0.7-0.4-1-1.4-1.4c-1.4-0.5-2-1.3-2-2.2c0-1.2,1-2.3,2.7-2.3
		c0.8,0,1.5,0.2,1.9,0.5l-0.4,1c-0.3-0.2-0.9-0.4-1.6-0.4c-0.8,0-1.3,0.5-1.3,1.1c0,0.6,0.5,0.9,1.5,1.3c1.3,0.5,2,1.2,2,2.3
		c0,1.4-1.1,2.3-2.9,2.3c-0.8,0-1.6-0.2-2.2-0.5L728.7,455.6z"/>
</g>
<g>
	<path d="M672.6,279v7.1c0,2.7,1.1,3.8,2.5,3.8c1.6,0,2.6-1.2,2.6-3.8V279h1.4v7c0,3.7-1.7,5.2-4.1,5.2c-2.2,0-3.9-1.4-3.9-5.1V279
		H672.6z"/>
	<path d="M687.5,291l-1.4-2.7c-0.6-1-0.9-1.7-1.2-2.4h0c-0.3,0.7-0.6,1.3-1.2,2.4l-1.3,2.6h-1.6l3.3-6.1l-3.2-5.9h1.6l1.4,2.8
		c0.4,0.8,0.7,1.4,1,2h0c0.3-0.7,0.6-1.3,1-2l1.5-2.8h1.6l-3.3,5.9l3.4,6.2H687.5z"/>
	<path d="M700.7,278.3v10.4c0,0.8,0,1.6,0.1,2.2h-1.3l-0.1-1.5h0c-0.4,1-1.4,1.7-2.6,1.7c-1.9,0-3.3-1.8-3.3-4.4
		c0-2.9,1.6-4.6,3.5-4.6c1.2,0,2,0.6,2.3,1.3h0v-5.2H700.7z M699.3,285.9c0-0.2,0-0.5-0.1-0.7c-0.2-1-1-1.8-2-1.8
		c-1.5,0-2.3,1.4-2.3,3.3c0,1.7,0.8,3.2,2.3,3.2c0.9,0,1.8-0.7,2.1-1.9c0-0.2,0.1-0.4,0.1-0.7V285.9z"/>
	<path d="M703.9,287c0,2.1,1.2,3,2.7,3c1,0,1.6-0.2,2.1-0.4l0.2,1.1c-0.5,0.2-1.3,0.5-2.6,0.5c-2.4,0-3.8-1.7-3.8-4.4
		c0-2.6,1.4-4.7,3.6-4.7c2.5,0,3.2,2.5,3.2,4.1c0,0.3,0,0.6,0,0.7H703.9z M708,285.8c0-1-0.4-2.6-2-2.6c-1.4,0-2,1.5-2.2,2.6H708z"
		/>
	<path d="M710.9,289.4c0.4,0.3,1.2,0.6,1.9,0.6c1,0,1.5-0.6,1.5-1.3c0-0.7-0.4-1.2-1.4-1.6c-1.4-0.6-2-1.4-2-2.4
		c0-1.4,1-2.5,2.7-2.5c0.8,0,1.5,0.2,1.9,0.5l-0.4,1.1c-0.3-0.2-0.9-0.5-1.6-0.5c-0.8,0-1.3,0.5-1.3,1.2c0,0.7,0.5,1,1.5,1.5
		c1.3,0.6,2,1.3,2,2.6c0,1.5-1.1,2.6-2.9,2.6c-0.8,0-1.6-0.2-2.2-0.6L710.9,289.4z"/>
	<path d="M719,279.9c0,0.5-0.3,1-0.9,1c-0.5,0-0.8-0.4-0.8-1c0-0.6,0.4-1,0.9-1C718.7,279,719,279.4,719,279.9z M717.4,291v-8.6h1.4
		v8.6H717.4z"/>
	<path d="M727.8,282.4c0,0.6-0.1,1.3-0.1,2.4v5c0,2-0.4,3.2-1.1,3.9c-0.8,0.8-1.8,1-2.8,1c-0.9,0-2-0.2-2.6-0.7l0.4-1.2
		c0.5,0.4,1.3,0.7,2.3,0.7c1.4,0,2.5-0.8,2.5-3v-1h0c-0.4,0.8-1.3,1.4-2.5,1.4c-1.9,0-3.3-1.8-3.3-4.2c0-2.9,1.7-4.6,3.5-4.6
		c1.3,0,2.1,0.8,2.4,1.5h0l0.1-1.3H727.8z M726.4,285.8c0-0.3,0-0.5-0.1-0.7c-0.3-0.9-0.9-1.7-2-1.7c-1.3,0-2.3,1.3-2.3,3.3
		c0,1.7,0.8,3.1,2.3,3.1c0.9,0,1.6-0.6,2-1.6c0.1-0.3,0.1-0.6,0.1-0.8V285.8z"/>
	<path d="M730,284.7c0-0.9,0-1.6-0.1-2.3h1.2l0.1,1.4h0c0.4-0.8,1.3-1.6,2.6-1.6c1.1,0,2.7,0.7,2.7,3.7v5.2h-1.4v-5
		c0-1.4-0.5-2.6-1.8-2.6c-0.9,0-1.6,0.7-1.9,1.6c-0.1,0.2-0.1,0.5-0.1,0.7v5.2H730V284.7z"/>
</g>
<line fill="none" stroke="#588DDB" stroke-width="18" stroke-miterlimit="10" x1="675" y1="564" x2="761" y2="564"/>
<g>
	<line fill="none" x1="683.5" y1="568" x2="770.5" y2="568"/>
	<path fill="#FCFCFC" d="M692.1,559.9v8.1h-1.8v-8.1H692.1z"/>
	<path fill="#FCFCFC" d="M693.7,564c0-0.7,0-1.4,0-1.9h1.6l0.1,0.8h0c0.2-0.4,0.8-0.9,1.8-0.9c1.2,0,2.1,0.8,2.1,2.5v3.5h-1.8v-3.2
		c0-0.8-0.3-1.3-0.9-1.3c-0.5,0-0.8,0.3-0.9,0.7c0,0.1-0.1,0.3-0.1,0.5v3.4h-1.8V564z"/>
	<path fill="#FCFCFC" d="M700.9,568v-4.5h-0.8v-1.3h0.8v-0.2c0-0.7,0.2-1.5,0.7-2c0.5-0.4,1.1-0.6,1.6-0.6c0.4,0,0.7,0,1,0.1
		l-0.1,1.4c-0.2,0-0.3-0.1-0.6-0.1c-0.6,0-0.9,0.5-0.9,1v0.3h1.2v1.3h-1.2v4.5H700.9z"/>
	<path fill="#FCFCFC" d="M710.5,565c0,2.1-1.5,3.1-3.1,3.1c-1.7,0-3-1.1-3-3c0-1.9,1.2-3.1,3.1-3.1C709.3,562,710.5,563.2,710.5,565
		z M706.3,565.1c0,1,0.4,1.8,1.2,1.8c0.7,0,1.2-0.7,1.2-1.8c0-0.9-0.3-1.8-1.2-1.8C706.6,563.3,706.3,564.2,706.3,565.1z"/>
	<path fill="#FCFCFC" d="M711.6,564.1c0-0.9,0-1.4,0-1.9h1.6l0.1,1.1h0c0.3-0.9,1-1.2,1.6-1.2c0.2,0,0.3,0,0.4,0v1.7
		c-0.1,0-0.3,0-0.5,0c-0.7,0-1.1,0.4-1.2,0.9c0,0.1,0,0.3,0,0.4v3h-1.8V564.1z"/>
	<path fill="#FCFCFC" d="M716.2,564c0-0.7,0-1.4,0-1.9h1.5l0.1,0.8h0c0.3-0.4,0.8-0.9,1.8-0.9c0.8,0,1.4,0.4,1.6,1h0
		c0.2-0.3,0.5-0.5,0.8-0.7c0.3-0.2,0.7-0.3,1.1-0.3c1.1,0,2,0.8,2,2.5v3.5h-1.8v-3.2c0-0.9-0.3-1.3-0.9-1.3c-0.4,0-0.7,0.3-0.8,0.6
		c0,0.1-0.1,0.3-0.1,0.5v3.4h-1.8v-3.3c0-0.7-0.3-1.2-0.8-1.2c-0.5,0-0.7,0.4-0.9,0.7c-0.1,0.1-0.1,0.3-0.1,0.5v3.4h-1.8V564z"/>
	<path fill="#FCFCFC" d="M729.9,568l-0.1-0.6h0c-0.4,0.5-1,0.7-1.7,0.7c-1.2,0-1.9-0.9-1.9-1.8c0-1.5,1.4-2.3,3.4-2.2V564
		c0-0.3-0.2-0.8-1.1-0.8c-0.6,0-1.2,0.2-1.6,0.4l-0.3-1.2c0.4-0.2,1.2-0.5,2.3-0.5c2,0,2.6,1.2,2.6,2.5v2c0,0.6,0,1.1,0.1,1.4H729.9
		z M729.6,565.2c-1,0-1.7,0.2-1.7,0.9c0,0.5,0.3,0.7,0.7,0.7c0.5,0,0.8-0.3,0.9-0.7c0-0.1,0-0.2,0-0.3V565.2z"/>
	<path fill="#FCFCFC" d="M734.8,560.5v1.7h1.3v1.3h-1.3v2.1c0,0.7,0.2,1,0.7,1c0.2,0,0.4,0,0.5,0l0,1.4c-0.2,0.1-0.7,0.2-1.2,0.2
		c-0.6,0-1.1-0.2-1.4-0.5c-0.3-0.3-0.5-0.9-0.5-1.7v-2.4h-0.8v-1.3h0.8v-1.3L734.8,560.5z"/>
	<path fill="#FCFCFC" d="M739,560.5c0,0.5-0.4,0.9-1,0.9c-0.6,0-1-0.4-0.9-0.9c0-0.5,0.4-0.9,1-0.9C738.7,559.6,739,560,739,560.5z
		 M737.2,568v-5.9h1.8v5.9H737.2z"/>
	<path fill="#FCFCFC" d="M746.2,565c0,2.1-1.5,3.1-3.1,3.1c-1.7,0-3-1.1-3-3c0-1.9,1.2-3.1,3.1-3.1C745,562,746.2,563.2,746.2,565z
		 M742,565.1c0,1,0.4,1.8,1.2,1.8c0.7,0,1.2-0.7,1.2-1.8c0-0.9-0.3-1.8-1.2-1.8C742.3,563.3,742,564.2,742,565.1z"/>
	<path fill="#FCFCFC" d="M747.4,564c0-0.7,0-1.4,0-1.9h1.6l0.1,0.8h0c0.2-0.4,0.8-0.9,1.8-0.9c1.2,0,2.1,0.8,2.1,2.5v3.5h-1.8v-3.2
		c0-0.8-0.3-1.3-0.9-1.3c-0.5,0-0.8,0.3-0.9,0.7c0,0.1-0.1,0.3-0.1,0.5v3.4h-1.8V564z"/>
</g>
</svg>
