<?xml version="1.0" encoding="utf-8"?>
<!-- Generator: Adobe Illustrator 17.1.0, SVG Export Plug-In . SVG Version: 6.00 Build 0)  -->
<!DOCTYPE svg PUBLIC "-//W3C//DTD SVG 1.1//EN" "http://www.w3.org/Graphics/SVG/1.1/DTD/svg11.dtd">
<svg version="1.1" id="Layer_1" xmlns="http://www.w3.org/2000/svg" xmlns:xlink="http://www.w3.org/1999/xlink" x="0px" y="0px"
	 viewBox="0 0 800 490" enable-background="new 0 0 800 490" xml:space="preserve">
<rect y="-8" fill="#FFFFFF" width="800" height="503"/>
<g>
	<path fill="none" stroke="#0C0C0C" stroke-width="1.7726" stroke-miterlimit="10" d="M68.7,335.1c0,8.5-12.7,8.5-12.7,0
		C56,326.6,68.7,326.6,68.7,335.1"/>
	<path fill="none" stroke="#0C0C0C" stroke-width="1.7726" stroke-miterlimit="10" d="M75.9,366c0,1.1-0.7,2.2-1.5,2.6l-0.2-0.9
		l-1.5,0.4l0.2,0.7c-0.7,0-1.1-0.4-1.5-0.7l-6.6-6.6l-0.7-1.3l-2.9-5l-1.8,9.2l-0.2,1.1l5.3,11.4l0.7,1.5l0.2,0.2l0.4,0.9l3.1,9
		l2.2,6.4v0.4c0,1.8-1.5,3.3-3.3,3.3c-1.8,0-2.9-1.5-2.9-1.5l-0.2-0.9l-5-14.7L54,369.3V369v0.2l-0.9,11l-0.2,1.8l-0.9,1.3L43,396
		l-0.2,0.4c-0.7,0.7-1.5,1.1-2.4,1.1c-1.8,0-3.3-1.5-3.3-3.3c0-0.4,0-0.9,0.2-1.1l1.1-1.3l8.3-11.6l0.9-17.3l0.4-2l2-7.7l-4.4,4.4
		l-2.6,9.9c-0.2,1.3-1.3,2.2-2.9,2.2c-1.5,0-2.9-1.3-2.9-2.9c0-0.4,0-0.7,0.2-1.1l2.9-11.4l11-11c0.9-0.9,2.2-1.3,3.5-1.3
		c0.9,0,1.5,0.2,2.2,0.4l2.6,0.9h0.4c1.5,0.4,2.6,1.5,3.3,2.9l4.8,10.3v0.2l6.8,6.8C75.7,364.7,75.9,365.3,75.9,366L75.9,366z"/>
	<path fill="none" stroke="#0C0C0C" stroke-width="1.7726" stroke-miterlimit="10" d="M74.2,368.4c-0.4,0.2-0.9,0.2-1.1,0.2h-0.4
		l-0.2-0.7l1.5-0.4L74.2,368.4z"/>
	<line fill="none" stroke="#0C0C0C" stroke-width="1.7726" stroke-miterlimit="10" x1="64.9" y1="378.5" x2="64.9" y2="378.3"/>
	<polyline fill="none" stroke="#0C0C0C" stroke-width="1.7726" stroke-miterlimit="10" points="68.5,388.8 84.7,388.8 85.8,378.3 	
		"/>
	<polygon fill="none" stroke="#0C0C0C" stroke-width="1.7726" stroke-miterlimit="10" points="75.2,378.3 64.7,378.3 64.1,376.7 
		74.8,376.7 	"/>
	<polygon fill="none" stroke="#0C0C0C" stroke-width="1.7726" stroke-miterlimit="10" points="87.5,376.7 87.5,378.3 76.8,378.3 
		76.6,376.7 	"/>
	<polygon fill="none" stroke="#0C0C0C" stroke-width="1.7726" stroke-miterlimit="10" points="76.8,378.3 75.5,378.7 75.2,378.3 
		74.8,376.7 73.9,373.6 73.9,373 72.6,368.8 72.6,368 73.9,367.5 74.2,368.4 75.2,372.6 75.7,373.4 76.6,376.7 	"/>
	<line fill="none" stroke="#0C0C0C" stroke-width="1.7726" stroke-miterlimit="10" x1="69.1" y1="380.9" x2="69.1" y2="385.3"/>
	<line fill="none" stroke="#0C0C0C" stroke-width="1.7726" stroke-miterlimit="10" x1="72.4" y1="380.9" x2="72.4" y2="385.3"/>
	<line fill="none" stroke="#0C0C0C" stroke-width="1.7726" stroke-miterlimit="10" x1="75.9" y1="380.9" x2="75.9" y2="385.3"/>
	<line fill="none" stroke="#0C0C0C" stroke-width="1.7726" stroke-miterlimit="10" x1="79.2" y1="380.9" x2="79.2" y2="385.3"/>
</g>
<g>
	<path d="M405.8,353.8l-5.5-5.5l2.1-2.1l3.4,3.4l8.5-8.5l2.1,2.1L405.8,353.8z M330.9,395.7l-5.5-5.5l2.1-2.1l3.4,3.4l8.5-8.5
		l2.1,2.1L330.9,395.7z M244.1,353.2l-5.5-5.5l2.1-2.1l3.4,3.4l8.5-8.5l2.1,2.1L244.1,353.2z M164.2,317.1l-0.3-0.3l-0.3,0.3
		l-5.5-5.5l2.1-2.1l0.3,0.3l0.3-0.3l3.1,3l8.2-8.2l0.3,0.3l0.3-0.3l2.1,2.1L164.2,317.1z M99.5,354.5L94,349l2.1-2.1l3.4,3.4
		l8.5-8.5l2.1,2.1L99.5,354.5z M418.7,336.3c-6.3-6.3-16.6-6.3-22.9,0c-5.5,5.5-6.2,14.1-2,20.4c-16.9,14.9-32.2,23.5-46.2,27.5
		c-0.8-2.2-2-4.4-3.8-6.2c-6.3-6.3-16.6-6.3-22.9,0c-2.2,2.2-3.6,4.9-4.3,7.7c-20.3-3.7-38.4-16.3-56.6-30.6
		c3.6-6.2,2.8-14.2-2.5-19.5c-6.2-6.2-16.2-6.3-22.5-0.3c-16.7-12.7-34.1-23.6-53.5-26.5c-0.4-3.4-1.9-6.7-4.5-9.3
		c-6.3-6.3-16.6-6.3-22.9,0c-3.4,3.4-4.9,7.8-4.7,12.2c-12.1,4-25,11.5-38.9,23.5c-6.3-4.7-15.3-4.2-21,1.5
		c-6.3,6.3-6.3,16.6,0,22.9c6.3,6.3,16.6,6.3,22.9,0c5.6-5.6,6.2-14.3,1.9-20.6c13-11.2,25-18.2,36.3-22c0.8,1.9,2,3.8,3.5,5.3
		c6.3,6.3,16.6,6.3,22.9,0c2.3-2.3,3.7-5.1,4.4-8.1c18,2.8,34.3,13.1,50.4,25.4c-3.2,6.1-2.3,13.7,2.9,18.9c6,6,15.6,6.2,22,0.7
		c18.6,14.6,37.9,28,59.7,31.9c0.4,3.6,1.8,7,4.6,9.8c6.3,6.3,16.6,6.3,22.9,0c3.2-3.2,4.7-7.3,4.7-11.4c14.9-4.1,31.1-13.2,49-28.9
		c6.3,4.8,15.4,4.4,21.2-1.4C425,352.9,425,342.6,418.7,336.3L418.7,336.3z"/>
	<path d="M712.3,353.8l-5.5-5.5l2.1-2.1l3.4,3.4l8.5-8.5l2.1,2.1L712.3,353.8z M637.4,395.7l-5.5-5.5l2.1-2.1l3.4,3.4l8.5-8.5
		l2.1,2.1L637.4,395.7z M550.6,353.2l-5.5-5.5l2.1-2.1l3.4,3.4l8.5-8.5l2.1,2.1L550.6,353.2z M470.7,317.1l-0.3-0.3l-0.3,0.3
		l-5.5-5.5l2.1-2.1l0.3,0.3l0.3-0.3l3.1,3l8.2-8.2l0.3,0.3l0.3-0.3l2.1,2.1L470.7,317.1z M406,354.5l-5.5-5.5l2.1-2.1l3.4,3.4
		l8.5-8.5l2.1,2.1L406,354.5z M725.2,336.3c-6.3-6.3-16.6-6.3-22.9,0c-5.5,5.5-6.2,14.1-2,20.4c-16.9,14.9-32.2,23.5-46.2,27.5
		c-0.8-2.2-2-4.4-3.8-6.2c-6.3-6.3-16.6-6.3-22.9,0c-2.2,2.2-3.6,4.9-4.3,7.7c-20.3-3.7-38.4-16.3-56.6-30.6
		c3.6-6.2,2.8-14.2-2.5-19.5c-6.2-6.2-16.2-6.3-22.5-0.3c-16.7-12.7-34.1-23.6-53.5-26.5c-0.4-3.4-1.9-6.7-4.5-9.3
		c-6.3-6.3-16.6-6.3-22.9,0c-3.4,3.4-4.9,7.8-4.7,12.2c-12.1,4-25,11.5-38.9,23.5c-6.3-4.7-15.3-4.2-21,1.5
		c-6.3,6.3-6.3,16.6,0,22.9c6.3,6.3,16.6,6.3,22.9,0c5.6-5.6,6.2-14.3,1.9-20.6c13-11.2,25-18.2,36.3-22c0.8,1.9,2,3.8,3.5,5.3
		c6.3,6.3,16.6,6.3,22.9,0c2.3-2.3,3.7-5.1,4.4-8.1c18,2.8,34.3,13.1,50.4,25.4c-3.2,6.1-2.3,13.7,2.9,18.9c6,6,15.6,6.2,22,0.7
		c18.6,14.6,37.9,28,59.7,31.9c0.4,3.6,1.8,7,4.6,9.8c6.3,6.3,16.6,6.3,22.9,0c3.2-3.2,4.7-7.3,4.7-11.4c14.9-4.1,31.1-13.2,49-28.9
		c6.3,4.8,15.4,4.4,21.2-1.4C731.5,352.9,731.5,342.6,725.2,336.3L725.2,336.3z"/>
</g>
<line fill="none" stroke="#0C0C0C" stroke-width="2" stroke-miterlimit="10" x1="99" y1="332" x2="99" y2="273"/>
<line fill="none" stroke="#0C0C0C" stroke-width="2" stroke-miterlimit="10" x1="164" y1="302" x2="164" y2="192"/>
<line fill="none" stroke="#0C0C0C" stroke-width="2" stroke-miterlimit="10" x1="243" y1="239" x2="243" y2="334"/>
<line fill="none" stroke="#0C0C0C" stroke-width="2" stroke-miterlimit="10" x1="408" y1="238" x2="408" y2="342"/>
<line fill="none" stroke="#0C0C0C" stroke-width="2" stroke-miterlimit="10" x1="333" y1="384" x2="333" y2="301"/>
<line fill="none" stroke="#0C0C0C" stroke-width="2" stroke-miterlimit="10" x1="472" y1="295" x2="472" y2="153"/>
<line fill="none" stroke="#0C0C0C" stroke-width="2" stroke-miterlimit="10" x1="553" y1="255" x2="553" y2="335"/>
<line fill="none" stroke="#0C0C0C" stroke-width="2" stroke-miterlimit="10" x1="638" y1="271" x2="638" y2="383"/>
<line fill="none" stroke="#0C0C0C" stroke-width="2" stroke-miterlimit="10" x1="715" y1="335" x2="715" y2="228"/>
<g>
	<path d="M64.3,245l1.2,4.6c0.3,1,0.5,2,0.7,2.9h0.1c0.2-0.9,0.5-1.9,0.8-2.9l1.5-4.7H70l1.4,4.6c0.3,1.1,0.6,2.1,0.8,3h0.1
		c0.2-0.9,0.4-1.9,0.7-3l1.3-4.6h1.6l-2.9,9.1h-1.5l-1.4-4.4c-0.3-1-0.6-1.9-0.8-3h0c-0.2,1.1-0.5,2-0.8,3l-1.5,4.3h-1.5l-2.8-9.1
		H64.3z"/>
	<path d="M78.3,249.9c0,2.2,1.5,3.2,3.1,3.2c1.2,0,1.9-0.2,2.5-0.5l0.3,1.2c-0.6,0.3-1.6,0.6-3,0.6c-2.8,0-4.5-1.8-4.5-4.6
		c0-2.8,1.6-4.9,4.3-4.9c3,0,3.8,2.6,3.8,4.3c0,0.3,0,0.6-0.1,0.8H78.3z M83.2,248.7c0-1.1-0.4-2.7-2.3-2.7c-1.7,0-2.4,1.5-2.5,2.7
		H83.2z"/>
	<path d="M86.7,254.1c0-0.6,0.1-1.5,0.1-2.4v-11h1.6v5.7h0c0.6-1,1.6-1.7,3.1-1.7c2.3,0,3.9,1.9,3.8,4.7c0,3.3-2.1,4.9-4.1,4.9
		c-1.3,0-2.4-0.5-3.1-1.7h-0.1l-0.1,1.5H86.7z M88.4,250.5c0,0.2,0,0.4,0.1,0.6c0.3,1.1,1.3,1.9,2.5,1.9c1.7,0,2.8-1.4,2.8-3.5
		c0-1.8-0.9-3.4-2.7-3.4c-1.1,0-2.2,0.8-2.5,2c0,0.2-0.1,0.4-0.1,0.7V250.5z"/>
	<path d="M101.3,252.4c0.5,0.3,1.4,0.7,2.2,0.7c1.2,0,1.8-0.6,1.8-1.4c0-0.8-0.5-1.2-1.7-1.7c-1.6-0.6-2.4-1.5-2.4-2.6
		c0-1.5,1.2-2.7,3.1-2.7c0.9,0,1.7,0.3,2.2,0.6l-0.4,1.2c-0.4-0.2-1-0.5-1.9-0.5c-1,0-1.5,0.6-1.5,1.2c0,0.8,0.5,1.1,1.7,1.5
		c1.6,0.6,2.4,1.4,2.4,2.8c0,1.6-1.2,2.7-3.4,2.7c-1,0-1.9-0.2-2.6-0.6L101.3,252.4z"/>
	<path d="M109.9,249.9c0,2.2,1.5,3.2,3.1,3.2c1.2,0,1.9-0.2,2.5-0.5l0.3,1.2c-0.6,0.3-1.6,0.6-3,0.6c-2.8,0-4.5-1.8-4.5-4.6
		c0-2.8,1.6-4.9,4.3-4.9c3,0,3.8,2.6,3.8,4.3c0,0.3,0,0.6-0.1,0.8H109.9z M114.8,248.7c0-1.1-0.4-2.7-2.3-2.7
		c-1.7,0-2.4,1.5-2.5,2.7H114.8z"/>
	<path d="M123.5,254.1l-0.1-1.1h-0.1c-0.5,0.7-1.5,1.4-2.8,1.4c-1.8,0-2.8-1.3-2.8-2.6c0-2.2,2-3.4,5.5-3.4v-0.2
		c0-0.8-0.2-2.1-2.1-2.1c-0.8,0-1.7,0.3-2.4,0.7l-0.4-1.1c0.8-0.5,1.8-0.8,3-0.8c2.8,0,3.5,1.9,3.5,3.7v3.4c0,0.8,0,1.6,0.2,2.2
		H123.5z M123.2,249.5c-1.8,0-3.9,0.3-3.9,2.1c0,1.1,0.7,1.6,1.6,1.6c1.2,0,1.9-0.8,2.2-1.5c0.1-0.2,0.1-0.4,0.1-0.5V249.5z"/>
	<path d="M127.5,247.9c0-1.1,0-2-0.1-2.8h1.5l0.1,1.8h0.1c0.4-1.2,1.4-2,2.5-2c0.2,0,0.3,0,0.5,0.1v1.6c-0.2,0-0.3-0.1-0.6-0.1
		c-1.2,0-2,0.9-2.2,2.1c0,0.2-0.1,0.5-0.1,0.8v4.9h-1.6V247.9z"/>
	<path d="M140,253.8c-0.4,0.2-1.4,0.5-2.6,0.5c-2.8,0-4.5-1.9-4.5-4.7c0-2.8,1.9-4.8,4.9-4.8c1,0,1.8,0.2,2.3,0.5l-0.4,1.3
		c-0.4-0.2-1-0.4-1.9-0.4c-2.1,0-3.2,1.5-3.2,3.4c0,2.1,1.4,3.4,3.2,3.4c0.9,0,1.6-0.2,2-0.5L140,253.8z"/>
	<path d="M141.9,240.8h1.7v5.7h0c0.3-0.5,0.7-0.9,1.2-1.2c0.5-0.3,1.1-0.5,1.7-0.5c1.2,0,3.2,0.8,3.2,3.9v5.4H148v-5.2
		c0-1.5-0.5-2.7-2.1-2.7c-1.1,0-1.9,0.8-2.2,1.7c-0.1,0.2-0.1,0.5-0.1,0.8v5.5h-1.7V240.8z"/>
</g>
<g>
	<path d="M114.3,169.8c0-0.9,0-1.7-0.1-2.5h1.5l0.1,1.5h0.1c0.5-0.9,1.4-1.7,2.9-1.7c1.2,0,2.2,0.8,2.6,1.8h0c0.3-0.5,0.6-0.9,1-1.2
		c0.5-0.4,1.1-0.6,2-0.6c1.2,0,3,0.8,3,4v5.4h-1.6v-5.2c0-1.8-0.6-2.8-2-2.8c-0.9,0-1.7,0.7-2,1.5c-0.1,0.2-0.1,0.5-0.1,0.8v5.6H120
		v-5.5c0-1.5-0.6-2.5-1.9-2.5c-1,0-1.8,0.8-2.1,1.7c-0.1,0.2-0.1,0.5-0.1,0.8v5.5h-1.6V169.8z"/>
	<path d="M135.1,176.4l-0.1-1.1h-0.1c-0.5,0.7-1.5,1.4-2.8,1.4c-1.8,0-2.8-1.3-2.8-2.6c0-2.2,2-3.4,5.5-3.4v-0.2
		c0-0.8-0.2-2.1-2.1-2.1c-0.8,0-1.7,0.3-2.4,0.7l-0.4-1.1c0.8-0.5,1.8-0.8,3-0.8c2.8,0,3.5,1.9,3.5,3.7v3.4c0,0.8,0,1.6,0.2,2.2
		H135.1z M134.9,171.7c-1.8,0-3.9,0.3-3.9,2.1c0,1.1,0.7,1.6,1.6,1.6c1.2,0,1.9-0.8,2.2-1.5c0.1-0.2,0.1-0.4,0.1-0.5V171.7z"/>
	<path d="M139.1,170.1c0-1.1,0-2-0.1-2.8h1.5l0.1,1.8h0.1c0.4-1.2,1.4-2,2.5-2c0.2,0,0.3,0,0.5,0.1v1.6c-0.2,0-0.3-0.1-0.6-0.1
		c-1.2,0-2,0.9-2.2,2.1c0,0.2-0.1,0.5-0.1,0.8v4.9h-1.6V170.1z"/>
	<path d="M147,171.5L147,171.5c0.3-0.3,0.6-0.7,0.8-1l2.7-3.1h2L149,171l4,5.4h-2l-3.1-4.4L147,173v3.4h-1.6V163h1.6V171.5z"/>
	<path d="M155.1,172.1c0,2.2,1.5,3.2,3.1,3.2c1.2,0,1.9-0.2,2.5-0.5l0.3,1.2c-0.6,0.3-1.6,0.6-3,0.6c-2.8,0-4.5-1.8-4.5-4.6
		c0-2.8,1.6-4.9,4.3-4.9c3,0,3.8,2.6,3.8,4.3c0,0.3,0,0.6-0.1,0.8H155.1z M160,171c0-1.1-0.4-2.7-2.3-2.7c-1.7,0-2.4,1.5-2.5,2.7
		H160z"/>
	<path d="M165.6,164.7v2.6h2.4v1.3h-2.4v4.9c0,1.1,0.3,1.8,1.2,1.8c0.4,0,0.8-0.1,1-0.1l0.1,1.2c-0.3,0.1-0.8,0.2-1.5,0.2
		c-0.8,0-1.4-0.2-1.8-0.7c-0.5-0.5-0.6-1.3-0.6-2.4v-5h-1.4v-1.3h1.4v-2.2L165.6,164.7z"/>
	<path d="M171.7,164.7c0,0.6-0.4,1-1.1,1c-0.6,0-1-0.5-1-1c0-0.6,0.4-1,1-1C171.3,163.7,171.7,164.1,171.7,164.7z M169.9,176.4v-9.1
		h1.7v9.1H169.9z"/>
	<path d="M174.3,169.8c0-0.9,0-1.7-0.1-2.5h1.5l0.1,1.5h0c0.5-0.9,1.5-1.7,3-1.7c1.3,0,3.2,0.8,3.2,3.9v5.4h-1.7v-5.3
		c0-1.5-0.5-2.7-2.1-2.7c-1.1,0-1.9,0.8-2.2,1.7c-0.1,0.2-0.1,0.5-0.1,0.8v5.5h-1.7V169.8z"/>
	<path d="M192.6,167.3c0,0.7-0.1,1.4-0.1,2.5v5.3c0,2.1-0.4,3.4-1.3,4.2c-0.9,0.8-2.2,1.1-3.3,1.1c-1.1,0-2.3-0.3-3-0.8l0.4-1.3
		c0.6,0.4,1.5,0.7,2.7,0.7c1.7,0,2.9-0.9,2.9-3.2v-1h0c-0.5,0.8-1.5,1.5-2.9,1.5c-2.3,0-3.9-1.9-3.9-4.4c0-3.1,2-4.8,4.1-4.8
		c1.6,0,2.4,0.8,2.8,1.6h0l0.1-1.4H192.6z M190.9,170.9c0-0.3,0-0.5-0.1-0.8c-0.3-1-1.1-1.8-2.3-1.8c-1.6,0-2.7,1.3-2.7,3.4
		c0,1.8,0.9,3.3,2.7,3.3c1,0,1.9-0.6,2.3-1.7c0.1-0.3,0.1-0.6,0.1-0.9V170.9z"/>
	<path d="M199.3,170.3c0-1.2,0-2.1-0.1-3h1.5l0.1,1.6h0c0.7-1.1,1.8-1.8,3.2-1.8c2.2,0,3.9,1.9,3.9,4.6c0,3.3-2,4.9-4.1,4.9
		c-1.2,0-2.3-0.5-2.8-1.4h0v5h-1.6V170.3z M200.9,172.7c0,0.2,0,0.5,0.1,0.7c0.3,1.1,1.3,1.9,2.5,1.9c1.8,0,2.8-1.4,2.8-3.5
		c0-1.8-1-3.4-2.7-3.4c-1.1,0-2.2,0.8-2.5,2.1c-0.1,0.2-0.1,0.5-0.1,0.7V172.7z"/>
	<path d="M215,176.4l-0.1-1.1h-0.1c-0.5,0.7-1.5,1.4-2.8,1.4c-1.8,0-2.8-1.3-2.8-2.6c0-2.2,2-3.4,5.5-3.4v-0.2
		c0-0.8-0.2-2.1-2.1-2.1c-0.8,0-1.7,0.3-2.4,0.7l-0.4-1.1c0.8-0.5,1.8-0.8,3-0.8c2.8,0,3.5,1.9,3.5,3.7v3.4c0,0.8,0,1.6,0.2,2.2H215
		z M214.8,171.7c-1.8,0-3.9,0.3-3.9,2.1c0,1.1,0.7,1.6,1.6,1.6c1.2,0,1.9-0.8,2.2-1.5c0.1-0.2,0.1-0.4,0.1-0.5V171.7z"/>
	<path d="M226.9,167.3c0,0.7-0.1,1.4-0.1,2.5v5.3c0,2.1-0.4,3.4-1.3,4.2c-0.9,0.8-2.2,1.1-3.3,1.1c-1.1,0-2.3-0.3-3-0.8l0.4-1.3
		c0.6,0.4,1.5,0.7,2.7,0.7c1.7,0,2.9-0.9,2.9-3.2v-1h0c-0.5,0.8-1.5,1.5-2.9,1.5c-2.3,0-3.9-1.9-3.9-4.4c0-3.1,2-4.8,4.1-4.8
		c1.6,0,2.4,0.8,2.8,1.6h0l0.1-1.4H226.9z M225.2,170.9c0-0.3,0-0.5-0.1-0.8c-0.3-1-1.1-1.8-2.3-1.8c-1.6,0-2.7,1.3-2.7,3.4
		c0,1.8,0.9,3.3,2.7,3.3c1,0,1.9-0.6,2.3-1.7c0.1-0.3,0.1-0.6,0.1-0.9V170.9z"/>
	<path d="M230.5,172.1c0,2.2,1.5,3.2,3.1,3.2c1.2,0,1.9-0.2,2.5-0.5l0.3,1.2c-0.6,0.3-1.6,0.6-3,0.6c-2.8,0-4.5-1.8-4.5-4.6
		c0-2.8,1.6-4.9,4.3-4.9c3,0,3.8,2.6,3.8,4.3c0,0.3,0,0.6-0.1,0.8H230.5z M235.4,171c0-1.1-0.4-2.7-2.3-2.7c-1.7,0-2.4,1.5-2.5,2.7
		H235.4z"/>
	<path d="M238.8,174.7c0.5,0.3,1.4,0.7,2.2,0.7c1.2,0,1.8-0.6,1.8-1.4c0-0.8-0.5-1.2-1.7-1.7c-1.6-0.6-2.4-1.5-2.4-2.6
		c0-1.5,1.2-2.7,3.1-2.7c0.9,0,1.7,0.3,2.2,0.6l-0.4,1.2c-0.4-0.2-1-0.5-1.9-0.5c-1,0-1.5,0.6-1.5,1.2c0,0.8,0.5,1.1,1.7,1.5
		c1.6,0.6,2.4,1.4,2.4,2.8c0,1.6-1.2,2.7-3.4,2.7c-1,0-1.9-0.2-2.6-0.6L238.8,174.7z"/>
</g>
<g>
	<path d="M368.9,214.8v11c0,0.8,0,1.7,0.1,2.4h-1.5l-0.1-1.6h0c-0.5,1-1.6,1.8-3.1,1.8c-2.2,0-3.9-1.9-3.9-4.6c0-3,1.9-4.9,4.1-4.9
		c1.4,0,2.3,0.7,2.8,1.4h0v-5.4H368.9z M367.3,222.8c0-0.2,0-0.5-0.1-0.7c-0.2-1.1-1.1-1.9-2.4-1.9c-1.7,0-2.7,1.5-2.7,3.5
		c0,1.8,0.9,3.4,2.7,3.4c1.1,0,2.1-0.7,2.4-2c0.1-0.2,0.1-0.5,0.1-0.7V222.8z"/>
	<path d="M372.6,224c0,2.2,1.5,3.2,3.1,3.2c1.2,0,1.9-0.2,2.5-0.5l0.3,1.2c-0.6,0.3-1.6,0.6-3,0.6c-2.8,0-4.5-1.8-4.5-4.6
		c0-2.8,1.6-4.9,4.3-4.9c3,0,3.8,2.6,3.8,4.3c0,0.3,0,0.6-0.1,0.8H372.6z M377.5,222.8c0-1.1-0.4-2.7-2.3-2.7
		c-1.7,0-2.4,1.5-2.5,2.7H377.5z"/>
	<path d="M381.8,219.1l1.8,5.1c0.3,0.8,0.5,1.6,0.7,2.3h0.1c0.2-0.8,0.5-1.5,0.8-2.3l1.8-5.1h1.7l-3.6,9.1h-1.6l-3.5-9.1H381.8z"/>
	<path d="M390.9,224c0,2.2,1.5,3.2,3.1,3.2c1.2,0,1.9-0.2,2.5-0.5l0.3,1.2c-0.6,0.3-1.6,0.6-3,0.6c-2.8,0-4.5-1.8-4.5-4.6
		c0-2.8,1.6-4.9,4.3-4.9c3,0,3.8,2.6,3.8,4.3c0,0.3,0,0.6-0.1,0.8H390.9z M395.8,222.8c0-1.1-0.4-2.7-2.3-2.7
		c-1.7,0-2.4,1.5-2.5,2.7H395.8z"/>
	<path d="M399.4,214.8h1.7v13.4h-1.7V214.8z"/>
	<path d="M412.1,223.6c0,3.4-2.3,4.8-4.5,4.8c-2.5,0-4.4-1.8-4.4-4.7c0-3.1,2-4.8,4.5-4.8C410.4,218.9,412.1,220.8,412.1,223.6z
		 M404.9,223.7c0,2,1.1,3.5,2.8,3.5c1.6,0,2.8-1.5,2.8-3.5c0-1.5-0.8-3.5-2.7-3.5S404.9,221.9,404.9,223.7z"/>
	<path d="M414.2,222.1c0-1.2,0-2.1-0.1-3h1.5l0.1,1.6h0c0.7-1.1,1.8-1.8,3.2-1.8c2.2,0,3.9,1.9,3.9,4.6c0,3.3-2,4.9-4.1,4.9
		c-1.2,0-2.3-0.5-2.8-1.4h0v5h-1.6V222.1z M415.9,224.5c0,0.2,0,0.5,0.1,0.7c0.3,1.1,1.3,1.9,2.5,1.9c1.8,0,2.8-1.4,2.8-3.5
		c0-1.8-1-3.4-2.7-3.4c-1.1,0-2.2,0.8-2.5,2.1c-0.1,0.2-0.1,0.5-0.1,0.7V224.5z"/>
	<path d="M425,221.6c0-0.9,0-1.7-0.1-2.5h1.5l0.1,1.5h0.1c0.5-0.9,1.4-1.7,2.9-1.7c1.2,0,2.2,0.8,2.6,1.8h0c0.3-0.5,0.6-0.9,1-1.2
		c0.5-0.4,1.1-0.6,2-0.6c1.2,0,3,0.8,3,4v5.4h-1.6v-5.2c0-1.8-0.6-2.8-2-2.8c-0.9,0-1.7,0.7-2,1.5c-0.1,0.2-0.1,0.5-0.1,0.8v5.6
		h-1.6v-5.5c0-1.5-0.6-2.5-1.9-2.5c-1,0-1.8,0.8-2.1,1.7c-0.1,0.2-0.1,0.5-0.1,0.8v5.5H425V221.6z"/>
	<path d="M441.6,224c0,2.2,1.5,3.2,3.1,3.2c1.2,0,1.9-0.2,2.5-0.5l0.3,1.2c-0.6,0.3-1.6,0.6-3,0.6c-2.8,0-4.5-1.8-4.5-4.6
		c0-2.8,1.6-4.9,4.3-4.9c3,0,3.8,2.6,3.8,4.3c0,0.3,0,0.6-0.1,0.8H441.6z M446.5,222.8c0-1.1-0.4-2.7-2.3-2.7
		c-1.7,0-2.4,1.5-2.5,2.7H446.5z"/>
	<path d="M450.1,221.6c0-0.9,0-1.7-0.1-2.5h1.5l0.1,1.5h0c0.5-0.9,1.5-1.7,3-1.7c1.3,0,3.2,0.8,3.2,3.9v5.4h-1.7V223
		c0-1.5-0.5-2.7-2.1-2.7c-1.1,0-1.9,0.8-2.2,1.7c-0.1,0.2-0.1,0.5-0.1,0.8v5.5h-1.7V221.6z"/>
	<path d="M462.5,216.5v2.6h2.4v1.3h-2.4v4.9c0,1.1,0.3,1.8,1.2,1.8c0.4,0,0.8-0.1,1-0.1l0.1,1.2c-0.3,0.1-0.8,0.2-1.5,0.2
		c-0.8,0-1.4-0.2-1.8-0.7c-0.5-0.5-0.6-1.3-0.6-2.4v-5h-1.4v-1.3h1.4v-2.2L462.5,216.5z"/>
</g>
<g>
	<path d="M199,228.2c0-0.6,0.1-1.5,0.1-2.4v-11h1.6v5.7h0c0.6-1,1.6-1.7,3.1-1.7c2.3,0,3.9,1.9,3.8,4.7c0,3.3-2.1,4.9-4.1,4.9
		c-1.3,0-2.4-0.5-3.1-1.7h-0.1l-0.1,1.5H199z M200.8,224.6c0,0.2,0,0.4,0.1,0.6c0.3,1.1,1.3,1.9,2.5,1.9c1.7,0,2.8-1.4,2.8-3.5
		c0-1.8-0.9-3.4-2.7-3.4c-1.1,0-2.2,0.8-2.5,2c0,0.2-0.1,0.4-0.1,0.7V224.6z"/>
	<path d="M211.7,216.5c0,0.6-0.4,1-1.1,1c-0.6,0-1-0.5-1-1c0-0.6,0.4-1,1-1C211.3,215.5,211.7,216,211.7,216.5z M209.8,228.2v-9.1
		h1.7v9.1H209.8z"/>
	<path d="M213.2,227.3l4.1-5.4c0.4-0.5,0.8-0.9,1.2-1.4v0h-4.9v-1.3h7l0,1l-4.1,5.3c-0.4,0.5-0.8,1-1.2,1.4v0h5.3v1.3h-7.4V227.3z"
		/>
	<path d="M234.2,214.8v11c0,0.8,0,1.7,0.1,2.4h-1.5l-0.1-1.6h0c-0.5,1-1.6,1.8-3.1,1.8c-2.2,0-3.9-1.9-3.9-4.6c0-3,1.9-4.9,4.1-4.9
		c1.4,0,2.3,0.7,2.8,1.4h0v-5.4H234.2z M232.5,222.8c0-0.2,0-0.5-0.1-0.7c-0.2-1.1-1.1-1.9-2.4-1.9c-1.7,0-2.7,1.5-2.7,3.5
		c0,1.8,0.9,3.4,2.7,3.4c1.1,0,2.1-0.7,2.4-2c0.1-0.2,0.1-0.5,0.1-0.7V222.8z"/>
	<path d="M237.9,224c0,2.2,1.5,3.2,3.1,3.2c1.2,0,1.9-0.2,2.5-0.5l0.3,1.2c-0.6,0.3-1.6,0.6-3,0.6c-2.8,0-4.5-1.8-4.5-4.6
		c0-2.8,1.6-4.9,4.3-4.9c3,0,3.8,2.6,3.8,4.3c0,0.3,0,0.6-0.1,0.8H237.9z M242.7,222.8c0-1.1-0.4-2.7-2.3-2.7
		c-1.7,0-2.4,1.5-2.5,2.7H242.7z"/>
	<path d="M247,219.1l1.8,5.1c0.3,0.8,0.5,1.6,0.7,2.3h0.1c0.2-0.8,0.5-1.5,0.8-2.3l1.8-5.1h1.7l-3.6,9.1h-1.6l-3.5-9.1H247z"/>
	<path d="M265.9,227.9c-0.4,0.2-1.4,0.5-2.6,0.5c-2.8,0-4.5-1.9-4.5-4.7c0-2.8,1.9-4.8,4.9-4.8c1,0,1.8,0.2,2.3,0.5l-0.4,1.3
		c-0.4-0.2-1-0.4-1.9-0.4c-2.1,0-3.2,1.5-3.2,3.4c0,2.1,1.4,3.4,3.2,3.4c0.9,0,1.6-0.2,2-0.5L265.9,227.9z"/>
	<path d="M272.9,228.2l-0.1-1.1h-0.1c-0.5,0.7-1.5,1.4-2.8,1.4c-1.8,0-2.8-1.3-2.8-2.6c0-2.2,2-3.4,5.5-3.4v-0.2
		c0-0.8-0.2-2.1-2.1-2.1c-0.8,0-1.7,0.3-2.4,0.7l-0.4-1.1c0.8-0.5,1.8-0.8,3-0.8c2.8,0,3.5,1.9,3.5,3.7v3.4c0,0.8,0,1.6,0.2,2.2
		H272.9z M272.7,223.6c-1.8,0-3.9,0.3-3.9,2.1c0,1.1,0.7,1.6,1.6,1.6c1.2,0,1.9-0.8,2.2-1.5c0.1-0.2,0.1-0.4,0.1-0.5V223.6z"/>
	<path d="M277,214.8h1.7v13.4H277V214.8z"/>
	<path d="M281.4,214.8h1.7v13.4h-1.7V214.8z"/>
	<path d="M285.6,226.5c0.5,0.3,1.4,0.7,2.2,0.7c1.2,0,1.8-0.6,1.8-1.4c0-0.8-0.5-1.2-1.7-1.7c-1.6-0.6-2.4-1.5-2.4-2.6
		c0-1.5,1.2-2.7,3.1-2.7c0.9,0,1.7,0.3,2.2,0.6l-0.4,1.2c-0.4-0.2-1-0.5-1.9-0.5c-1,0-1.5,0.6-1.5,1.2c0,0.8,0.5,1.1,1.7,1.5
		c1.6,0.6,2.4,1.4,2.4,2.8c0,1.6-1.2,2.7-3.4,2.7c-1,0-1.9-0.2-2.6-0.6L285.6,226.5z"/>
</g>
<g>
	<path d="M283.5,290.6v-7.9h-1.3v-1.3h1.3V281c0-2.4,1.4-4,4-4c0.8,0,1.8,0.3,2.3,0.6l-0.5,1.3c-0.4-0.3-1.1-0.5-1.9-0.5
		c-1.8,0-2.3,1.2-2.3,2.7v0.5h5.3v9.1h-1.6v-7.9h-3.7v7.9H283.5z"/>
	<path d="M294.1,286.4c0,2.2,1.5,3.2,3.1,3.2c1.2,0,1.9-0.2,2.5-0.5l0.3,1.2c-0.6,0.3-1.6,0.6-3,0.6c-2.8,0-4.5-1.8-4.5-4.6
		c0-2.8,1.6-4.9,4.3-4.9c3,0,3.8,2.6,3.8,4.3c0,0.3,0,0.6-0.1,0.8H294.1z M299,285.2c0-1.1-0.4-2.7-2.3-2.7c-1.7,0-2.4,1.5-2.5,2.7
		H299z"/>
	<path d="M302.6,277.3h1.7v13.4h-1.7V277.3z"/>
	<path d="M314.9,277.3v11c0,0.8,0,1.7,0.1,2.4h-1.5l-0.1-1.6h0c-0.5,1-1.6,1.8-3.1,1.8c-2.2,0-3.9-1.9-3.9-4.6c0-3,1.9-4.9,4.1-4.9
		c1.4,0,2.3,0.7,2.8,1.4h0v-5.4H314.9z M313.3,285.2c0-0.2,0-0.5-0.1-0.7c-0.2-1.1-1.1-1.9-2.4-1.9c-1.7,0-2.7,1.5-2.7,3.5
		c0,1.8,0.9,3.4,2.7,3.4c1.1,0,2.1-0.7,2.4-2c0.1-0.2,0.1-0.5,0.1-0.7V285.2z"/>
	<path d="M322.6,286.4c0,2.2,1.5,3.2,3.1,3.2c1.2,0,1.9-0.2,2.5-0.5l0.3,1.2c-0.6,0.3-1.6,0.6-3,0.6c-2.8,0-4.5-1.8-4.5-4.6
		c0-2.8,1.6-4.9,4.3-4.9c3,0,3.8,2.6,3.8,4.3c0,0.3,0,0.6-0.1,0.8H322.6z M327.5,285.2c0-1.1-0.4-2.7-2.3-2.7
		c-1.7,0-2.4,1.5-2.5,2.7H327.5z"/>
	<path d="M331.1,284c0-0.9,0-1.7-0.1-2.5h1.5l0.1,1.5h0c0.5-0.9,1.5-1.7,3-1.7c1.3,0,3.2,0.8,3.2,3.9v5.4h-1.7v-5.3
		c0-1.5-0.5-2.7-2.1-2.7c-1.1,0-1.9,0.8-2.2,1.7c-0.1,0.2-0.1,0.5-0.1,0.8v5.5h-1.7V284z"/>
	<path d="M349.4,281.5c0,0.7-0.1,1.4-0.1,2.5v5.3c0,2.1-0.4,3.4-1.3,4.2c-0.9,0.8-2.2,1.1-3.3,1.1c-1.1,0-2.3-0.3-3-0.8l0.4-1.3
		c0.6,0.4,1.5,0.7,2.7,0.7c1.7,0,2.9-0.9,2.9-3.2v-1h0c-0.5,0.8-1.5,1.5-2.9,1.5c-2.3,0-3.9-1.9-3.9-4.4c0-3.1,2-4.8,4.1-4.8
		c1.6,0,2.5,0.8,2.8,1.6h0l0.1-1.4H349.4z M347.7,285.1c0-0.3,0-0.5-0.1-0.8c-0.3-1-1.1-1.8-2.3-1.8c-1.6,0-2.7,1.3-2.7,3.4
		c0,1.8,0.9,3.3,2.7,3.3c1,0,1.9-0.6,2.3-1.7c0.1-0.3,0.1-0.6,0.1-0.9V285.1z"/>
	<path d="M353.9,279c0,0.6-0.4,1-1.1,1c-0.6,0-1-0.5-1-1c0-0.6,0.4-1,1-1C353.5,277.9,353.9,278.4,353.9,279z M352,290.6v-9.1h1.7
		v9.1H352z"/>
	<path d="M356.4,284c0-0.9,0-1.7-0.1-2.5h1.5l0.1,1.5h0c0.5-0.9,1.5-1.7,3-1.7c1.3,0,3.2,0.8,3.2,3.9v5.4h-1.7v-5.3
		c0-1.5-0.5-2.7-2.1-2.7c-1.1,0-1.9,0.8-2.2,1.7c-0.1,0.2-0.1,0.5-0.1,0.8v5.5h-1.7V284z"/>
	<path d="M367.8,286.4c0,2.2,1.5,3.2,3.1,3.2c1.2,0,1.9-0.2,2.5-0.5l0.3,1.2c-0.6,0.3-1.6,0.6-3,0.6c-2.8,0-4.5-1.8-4.5-4.6
		c0-2.8,1.6-4.9,4.3-4.9c3,0,3.8,2.6,3.8,4.3c0,0.3,0,0.6-0.1,0.8H367.8z M372.7,285.2c0-1.1-0.4-2.7-2.3-2.7
		c-1.7,0-2.4,1.5-2.5,2.7H372.7z"/>
	<path d="M377.2,286.4c0,2.2,1.5,3.2,3.1,3.2c1.2,0,1.9-0.2,2.5-0.5l0.3,1.2c-0.6,0.3-1.6,0.6-3,0.6c-2.8,0-4.5-1.8-4.5-4.6
		c0-2.8,1.6-4.9,4.3-4.9c3,0,3.8,2.6,3.8,4.3c0,0.3,0,0.6-0.1,0.8H377.2z M382.1,285.2c0-1.1-0.4-2.7-2.3-2.7
		c-1.7,0-2.4,1.5-2.5,2.7H382.1z"/>
	<path d="M385.8,284.4c0-1.1,0-2-0.1-2.8h1.5l0.1,1.8h0.1c0.4-1.2,1.4-2,2.5-2c0.2,0,0.3,0,0.5,0.1v1.6c-0.2,0-0.3-0.1-0.6-0.1
		c-1.2,0-2,0.9-2.2,2.1c0,0.2-0.1,0.5-0.1,0.8v4.9h-1.6V284.4z"/>
	<path d="M391.7,288.9c0.5,0.3,1.4,0.7,2.2,0.7c1.2,0,1.8-0.6,1.8-1.4c0-0.8-0.5-1.2-1.7-1.7c-1.6-0.6-2.4-1.5-2.4-2.6
		c0-1.5,1.2-2.7,3.1-2.7c0.9,0,1.7,0.3,2.2,0.6l-0.4,1.2c-0.4-0.2-1-0.5-1.9-0.5c-1,0-1.5,0.6-1.5,1.2c0,0.8,0.5,1.1,1.7,1.5
		c1.6,0.6,2.4,1.4,2.4,2.8c0,1.6-1.2,2.7-3.4,2.7c-1,0-1.9-0.2-2.6-0.6L391.7,288.9z"/>
</g>
<g>
	<path d="M441.3,143.4v-7.9H440v-1.3h1.3v-0.4c0-1.3,0.3-2.4,1.1-3.2c0.6-0.6,1.5-0.8,2.2-0.8c0.6,0,1.1,0.1,1.4,0.3l-0.2,1.3
		c-0.2-0.1-0.6-0.2-1.1-0.2c-1.4,0-1.8,1.2-1.8,2.6v0.5h2.2v1.3H443v7.9H441.3z"/>
	<path d="M454.7,138.8c0,3.4-2.3,4.8-4.5,4.8c-2.5,0-4.4-1.8-4.4-4.7c0-3.1,2-4.8,4.5-4.8C452.9,134.1,454.7,136,454.7,138.8z
		 M447.4,138.9c0,2,1.1,3.5,2.8,3.5c1.6,0,2.8-1.5,2.8-3.5c0-1.5-0.8-3.5-2.7-3.5S447.4,137.2,447.4,138.9z"/>
	<path d="M456.7,137.2c0-1.1,0-2-0.1-2.8h1.5l0.1,1.8h0.1c0.4-1.2,1.4-2,2.5-2c0.2,0,0.3,0,0.5,0.1v1.6c-0.2,0-0.3-0.1-0.6-0.1
		c-1.2,0-2,0.9-2.2,2.1c0,0.2-0.1,0.5-0.1,0.8v4.9h-1.6V137.2z"/>
	<path d="M470.5,140.9c0,0.9,0,1.8,0.1,2.5h-1.5l-0.1-1.5h0c-0.4,0.7-1.4,1.7-3,1.7c-1.4,0-3.1-0.8-3.1-4v-5.3h1.7v5.1
		c0,1.7,0.5,2.9,2,2.9c1.1,0,1.9-0.8,2.2-1.5c0.1-0.2,0.2-0.5,0.2-0.8v-5.6h1.7V140.9z"/>
	<path d="M473.3,136.8c0-0.9,0-1.7-0.1-2.5h1.5l0.1,1.5h0.1c0.5-0.9,1.4-1.7,2.9-1.7c1.2,0,2.2,0.8,2.6,1.8h0c0.3-0.5,0.6-0.9,1-1.2
		c0.5-0.4,1.1-0.6,2-0.6c1.2,0,3,0.8,3,4v5.4h-1.6v-5.2c0-1.8-0.6-2.8-2-2.8c-0.9,0-1.7,0.7-2,1.5c-0.1,0.2-0.1,0.5-0.1,0.8v5.6H479
		V138c0-1.5-0.6-2.5-1.9-2.5c-1,0-1.8,0.8-2.1,1.7c-0.1,0.2-0.1,0.5-0.1,0.8v5.5h-1.6V136.8z"/>
	<path d="M488.8,141.7c0.5,0.3,1.4,0.7,2.2,0.7c1.2,0,1.8-0.6,1.8-1.4c0-0.8-0.5-1.2-1.7-1.7c-1.6-0.6-2.4-1.5-2.4-2.6
		c0-1.5,1.2-2.7,3.1-2.7c0.9,0,1.7,0.3,2.2,0.6l-0.4,1.2c-0.4-0.2-1-0.5-1.9-0.5c-1,0-1.5,0.6-1.5,1.2c0,0.8,0.5,1.1,1.7,1.5
		c1.6,0.6,2.4,1.4,2.4,2.8c0,1.6-1.2,2.7-3.4,2.7c-1,0-1.9-0.2-2.6-0.6L488.8,141.7z"/>
</g>
<g>
	<path d="M527.9,235.3v2.6h2.4v1.3h-2.4v4.9c0,1.1,0.3,1.8,1.2,1.8c0.4,0,0.8-0.1,1-0.1l0.1,1.2c-0.3,0.1-0.8,0.2-1.5,0.2
		c-0.8,0-1.4-0.2-1.8-0.7c-0.5-0.5-0.6-1.3-0.6-2.4v-5h-1.4v-1.3h1.4v-2.2L527.9,235.3z"/>
	<path d="M533,242.8c0,2.2,1.5,3.2,3.1,3.2c1.2,0,1.9-0.2,2.5-0.5l0.3,1.2c-0.6,0.3-1.6,0.6-3,0.6c-2.8,0-4.5-1.8-4.5-4.6
		c0-2.8,1.6-4.9,4.3-4.9c3,0,3.8,2.6,3.8,4.3c0,0.3,0,0.6-0.1,0.8H533z M537.8,241.6c0-1.1-0.4-2.7-2.3-2.7c-1.7,0-2.4,1.5-2.5,2.7
		H537.8z"/>
	<path d="M541.3,245.4c0.5,0.3,1.4,0.7,2.2,0.7c1.2,0,1.8-0.6,1.8-1.4c0-0.8-0.5-1.2-1.7-1.7c-1.6-0.6-2.4-1.5-2.4-2.6
		c0-1.5,1.2-2.7,3.1-2.7c0.9,0,1.7,0.3,2.2,0.6l-0.4,1.2c-0.4-0.2-1-0.5-1.9-0.5c-1,0-1.5,0.6-1.5,1.2c0,0.8,0.5,1.1,1.7,1.5
		c1.6,0.6,2.4,1.4,2.4,2.8c0,1.6-1.2,2.7-3.4,2.7c-1,0-1.9-0.2-2.6-0.6L541.3,245.4z"/>
	<path d="M551,235.3v2.6h2.4v1.3H551v4.9c0,1.1,0.3,1.8,1.2,1.8c0.4,0,0.8-0.1,1-0.1l0.1,1.2c-0.3,0.1-0.8,0.2-1.5,0.2
		c-0.8,0-1.4-0.2-1.8-0.7c-0.5-0.5-0.6-1.3-0.6-2.4v-5h-1.4v-1.3h1.4v-2.2L551,235.3z"/>
	<path d="M557,235.4c0,0.6-0.4,1-1.1,1c-0.6,0-1-0.5-1-1c0-0.6,0.4-1,1-1C556.7,234.3,557,234.8,557,235.4z M555.2,247.1v-9.1h1.7
		v9.1H555.2z"/>
	<path d="M559.6,240.4c0-0.9,0-1.7-0.1-2.5h1.5l0.1,1.5h0c0.5-0.9,1.5-1.7,3-1.7c1.3,0,3.2,0.8,3.2,3.9v5.4h-1.7v-5.3
		c0-1.5-0.5-2.7-2.1-2.7c-1.1,0-1.9,0.8-2.2,1.7c-0.1,0.2-0.1,0.5-0.1,0.8v5.5h-1.7V240.4z"/>
	<path d="M577.9,237.9c0,0.7-0.1,1.4-0.1,2.5v5.3c0,2.1-0.4,3.4-1.3,4.2c-0.9,0.8-2.2,1.1-3.3,1.1c-1.1,0-2.3-0.3-3-0.8l0.4-1.3
		c0.6,0.4,1.5,0.7,2.7,0.7c1.7,0,2.9-0.9,2.9-3.2v-1h0c-0.5,0.8-1.5,1.5-2.9,1.5c-2.3,0-3.9-1.9-3.9-4.4c0-3.1,2-4.8,4.1-4.8
		c1.6,0,2.5,0.8,2.8,1.6h0l0.1-1.4H577.9z M576.2,241.5c0-0.3,0-0.5-0.1-0.8c-0.3-1-1.1-1.8-2.3-1.8c-1.6,0-2.7,1.3-2.7,3.4
		c0,1.8,0.9,3.3,2.7,3.3c1,0,1.9-0.6,2.3-1.7c0.1-0.3,0.1-0.6,0.1-0.9V241.5z"/>
</g>
<g>
	<path d="M604.6,252.4c0.5,0.3,1.4,0.7,2.2,0.7c1.2,0,1.8-0.6,1.8-1.4c0-0.8-0.5-1.2-1.7-1.7c-1.6-0.6-2.4-1.5-2.4-2.6
		c0-1.5,1.2-2.7,3.1-2.7c0.9,0,1.7,0.3,2.2,0.6l-0.4,1.2c-0.4-0.2-1-0.5-1.9-0.5c-1,0-1.5,0.6-1.5,1.2c0,0.8,0.5,1.1,1.7,1.5
		c1.6,0.6,2.4,1.4,2.4,2.8c0,1.6-1.2,2.7-3.4,2.7c-1,0-1.9-0.2-2.6-0.6L604.6,252.4z"/>
	<path d="M619.9,251.6c0,0.9,0,1.8,0.1,2.5h-1.5l-0.1-1.5h0c-0.4,0.7-1.4,1.7-3,1.7c-1.4,0-3.1-0.8-3.1-4V245h1.7v5.1
		c0,1.7,0.5,2.9,2,2.9c1.1,0,1.9-0.8,2.2-1.5c0.1-0.2,0.2-0.5,0.2-0.8V245h1.7V251.6z"/>
	<path d="M622.6,254.1c0-0.6,0.1-1.5,0.1-2.4v-11h1.6v5.7h0c0.6-1,1.6-1.7,3.1-1.7c2.3,0,3.9,1.9,3.8,4.7c0,3.3-2.1,4.9-4.1,4.9
		c-1.3,0-2.4-0.5-3.1-1.7h-0.1l-0.1,1.5H622.6z M624.3,250.5c0,0.2,0,0.4,0.1,0.6c0.3,1.1,1.3,1.9,2.5,1.9c1.7,0,2.8-1.4,2.8-3.5
		c0-1.8-0.9-3.4-2.7-3.4c-1.1,0-2.2,0.8-2.5,2c0,0.2-0.1,0.4-0.1,0.7V250.5z"/>
	<path d="M633.4,247.5c0-0.9,0-1.7-0.1-2.5h1.5l0.1,1.5h0.1c0.5-0.9,1.4-1.7,2.9-1.7c1.2,0,2.2,0.8,2.6,1.8h0c0.3-0.5,0.6-0.9,1-1.2
		c0.5-0.4,1.1-0.6,2-0.6c1.2,0,3,0.8,3,4v5.4h-1.6V249c0-1.8-0.6-2.8-2-2.8c-0.9,0-1.7,0.7-2,1.5c-0.1,0.2-0.1,0.5-0.1,0.8v5.6h-1.6
		v-5.5c0-1.5-0.6-2.5-1.9-2.5c-1,0-1.8,0.8-2.1,1.7c-0.1,0.2-0.1,0.5-0.1,0.8v5.5h-1.6V247.5z"/>
	<path d="M651,242.4c0,0.6-0.4,1-1.1,1c-0.6,0-1-0.5-1-1c0-0.6,0.4-1,1-1C650.6,241.4,651,241.9,651,242.4z M649.1,254.1V245h1.7
		v9.1H649.1z"/>
	<path d="M653.3,252.4c0.5,0.3,1.4,0.7,2.2,0.7c1.2,0,1.8-0.6,1.8-1.4c0-0.8-0.5-1.2-1.7-1.7c-1.6-0.6-2.4-1.5-2.4-2.6
		c0-1.5,1.2-2.7,3.1-2.7c0.9,0,1.7,0.3,2.2,0.6l-0.4,1.2c-0.4-0.2-1-0.5-1.9-0.5c-1,0-1.5,0.6-1.5,1.2c0,0.8,0.5,1.1,1.7,1.5
		c1.6,0.6,2.4,1.4,2.4,2.8c0,1.6-1.2,2.7-3.4,2.7c-1,0-1.9-0.2-2.6-0.6L653.3,252.4z"/>
	<path d="M660.8,252.4c0.5,0.3,1.4,0.7,2.2,0.7c1.2,0,1.8-0.6,1.8-1.4c0-0.8-0.5-1.2-1.7-1.7c-1.6-0.6-2.4-1.5-2.4-2.6
		c0-1.5,1.2-2.7,3.1-2.7c0.9,0,1.7,0.3,2.2,0.6l-0.4,1.2c-0.4-0.2-1-0.5-1.9-0.5c-1,0-1.5,0.6-1.5,1.2c0,0.8,0.5,1.1,1.7,1.5
		c1.6,0.6,2.4,1.4,2.4,2.8c0,1.6-1.2,2.7-3.4,2.7c-1,0-1.9-0.2-2.6-0.6L660.8,252.4z"/>
	<path d="M670.3,242.4c0,0.6-0.4,1-1.1,1c-0.6,0-1-0.5-1-1c0-0.6,0.4-1,1-1C669.9,241.4,670.3,241.9,670.3,242.4z M668.5,254.1V245
		h1.7v9.1H668.5z"/>
	<path d="M681.1,249.5c0,3.4-2.3,4.8-4.5,4.8c-2.5,0-4.4-1.8-4.4-4.7c0-3.1,2-4.8,4.5-4.8C679.4,244.8,681.1,246.7,681.1,249.5z
		 M673.9,249.6c0,2,1.1,3.5,2.8,3.5c1.6,0,2.8-1.5,2.8-3.5c0-1.5-0.8-3.5-2.7-3.5S673.9,247.9,673.9,249.6z"/>
	<path d="M683.2,247.5c0-0.9,0-1.7-0.1-2.5h1.5l0.1,1.5h0c0.5-0.9,1.5-1.7,3-1.7c1.3,0,3.2,0.8,3.2,3.9v5.4h-1.7v-5.3
		c0-1.5-0.5-2.7-2.1-2.7c-1.1,0-1.9,0.8-2.2,1.7c-0.1,0.2-0.1,0.5-0.1,0.8v5.5h-1.7V247.5z"/>
</g>
<g>
	<path d="M691.4,214c0,0.9,0,1.8,0.1,2.5H690l-0.1-1.5h0c-0.4,0.7-1.4,1.7-3,1.7c-1.4,0-3.1-0.8-3.1-4v-5.3h1.7v5.1
		c0,1.7,0.5,2.9,2,2.9c1.1,0,1.9-0.8,2.2-1.5c0.1-0.2,0.2-0.5,0.2-0.8v-5.6h1.7V214z"/>
	<path d="M694.1,210.3c0-1.2,0-2.1-0.1-3h1.5l0.1,1.6h0c0.7-1.1,1.8-1.8,3.2-1.8c2.2,0,3.9,1.9,3.9,4.6c0,3.3-2,4.9-4.1,4.9
		c-1.2,0-2.3-0.5-2.8-1.4h0v5h-1.6V210.3z M695.8,212.7c0,0.2,0,0.5,0.1,0.7c0.3,1.1,1.3,1.9,2.5,1.9c1.8,0,2.8-1.4,2.8-3.5
		c0-1.8-1-3.4-2.7-3.4c-1.1,0-2.2,0.8-2.5,2.1c-0.1,0.2-0.1,0.5-0.1,0.7V212.7z"/>
	<path d="M712.7,203.1v11c0,0.8,0,1.7,0.1,2.4h-1.5l-0.1-1.6h0c-0.5,1-1.6,1.8-3.1,1.8c-2.2,0-3.9-1.9-3.9-4.6c0-3,1.9-4.9,4.1-4.9
		c1.4,0,2.3,0.7,2.8,1.4h0v-5.4H712.7z M711.1,211c0-0.2,0-0.5-0.1-0.7c-0.2-1.1-1.1-1.9-2.4-1.9c-1.7,0-2.7,1.5-2.7,3.5
		c0,1.8,0.9,3.4,2.7,3.4c1.1,0,2.1-0.7,2.4-2c0.1-0.2,0.1-0.5,0.1-0.7V211z"/>
	<path d="M720.5,216.4l-0.1-1.1h-0.1c-0.5,0.7-1.5,1.4-2.8,1.4c-1.8,0-2.8-1.3-2.8-2.6c0-2.2,2-3.4,5.5-3.4v-0.2
		c0-0.8-0.2-2.1-2.1-2.1c-0.8,0-1.7,0.3-2.4,0.7l-0.4-1.1c0.8-0.5,1.8-0.8,3-0.8c2.8,0,3.5,1.9,3.5,3.7v3.4c0,0.8,0,1.6,0.2,2.2
		H720.5z M720.3,211.8c-1.8,0-3.9,0.3-3.9,2.1c0,1.1,0.7,1.6,1.6,1.6c1.2,0,1.9-0.8,2.2-1.5c0.1-0.2,0.1-0.4,0.1-0.5V211.8z"/>
	<path d="M726.5,204.7v2.6h2.4v1.3h-2.4v4.9c0,1.1,0.3,1.8,1.2,1.8c0.4,0,0.8-0.1,1-0.1l0.1,1.2c-0.3,0.1-0.8,0.2-1.5,0.2
		c-0.8,0-1.4-0.2-1.8-0.7c-0.5-0.5-0.6-1.3-0.6-2.4v-5h-1.4v-1.3h1.4v-2.2L726.5,204.7z"/>
	<path d="M731.5,212.2c0,2.2,1.5,3.2,3.1,3.2c1.2,0,1.9-0.2,2.5-0.5l0.3,1.2c-0.6,0.3-1.6,0.6-3,0.6c-2.8,0-4.5-1.8-4.5-4.6
		c0-2.8,1.6-4.9,4.3-4.9c3,0,3.8,2.6,3.8,4.3c0,0.3,0,0.6-0.1,0.8H731.5z M736.4,211c0-1.1-0.4-2.7-2.3-2.7c-1.7,0-2.4,1.5-2.5,2.7
		H736.4z"/>
	<path d="M739.8,214.7c0.5,0.3,1.4,0.7,2.2,0.7c1.2,0,1.8-0.6,1.8-1.4c0-0.8-0.5-1.2-1.7-1.7c-1.6-0.6-2.4-1.5-2.4-2.6
		c0-1.5,1.2-2.7,3.1-2.7c0.9,0,1.7,0.3,2.2,0.6l-0.4,1.2c-0.4-0.2-1-0.5-1.9-0.5c-1,0-1.5,0.6-1.5,1.2c0,0.8,0.5,1.1,1.7,1.5
		c1.6,0.6,2.4,1.4,2.4,2.8c0,1.6-1.2,2.7-3.4,2.7c-1,0-1.9-0.2-2.6-0.6L739.8,214.7z"/>
</g>
<g>
	<path d="M296.1,60.2c-1.1,0.6-3.4,1.1-6.2,1.1c-6.7,0-11.7-4.2-11.7-11.9c0-7.4,5-12.4,12.3-12.4c2.9,0,4.8,0.6,5.6,1l-0.7,2.5
		c-1.2-0.6-2.8-1-4.8-1c-5.5,0-9.2,3.5-9.2,9.7c0,5.8,3.3,9.5,9.1,9.5c1.9,0,3.7-0.4,5-1L296.1,60.2z"/>
	<path d="M313.6,56.4c0,1.8,0,3.3,0.1,4.6H311l-0.2-2.8h-0.1c-0.8,1.4-2.6,3.2-5.6,3.2c-2.7,0-5.8-1.5-5.8-7.4v-9.9h3.1v9.4
		c0,3.2,1,5.4,3.8,5.4c2.1,0,3.5-1.4,4.1-2.8c0.2-0.5,0.3-1,0.3-1.6V44.1h3.1V56.4z"/>
	<path d="M318.3,57.8c0.9,0.6,2.5,1.2,4.1,1.2c2.2,0,3.3-1.1,3.3-2.5c0-1.5-0.9-2.3-3.2-3.1c-3-1.1-4.5-2.8-4.5-4.8
		c0-2.7,2.2-5,5.8-5c1.7,0,3.2,0.5,4.2,1.1l-0.8,2.2c-0.7-0.4-1.9-1-3.5-1c-1.8,0-2.8,1-2.8,2.3c0,1.4,1,2,3.2,2.9
		c2.9,1.1,4.4,2.6,4.4,5.1c0,3-2.3,5.1-6.3,5.1c-1.9,0-3.6-0.5-4.8-1.2L318.3,57.8z"/>
	<path d="M336.3,39.2v4.9h4.4v2.3h-4.4v9.1c0,2.1,0.6,3.3,2.3,3.3c0.8,0,1.4-0.1,1.8-0.2l0.1,2.3c-0.6,0.2-1.5,0.4-2.7,0.4
		c-1.4,0-2.6-0.5-3.3-1.3c-0.9-0.9-1.2-2.4-1.2-4.4v-9.2h-2.6v-2.3h2.6V40L336.3,39.2z"/>
	<path d="M359.3,52.4c0,6.3-4.3,9-8.4,9c-4.6,0-8.1-3.4-8.1-8.7c0-5.7,3.7-9,8.4-9C356,43.7,359.3,47.2,359.3,52.4z M345.8,52.6
		c0,3.7,2.1,6.5,5.1,6.5c2.9,0,5.1-2.8,5.1-6.6c0-2.9-1.4-6.5-5.1-6.5C347.4,46,345.8,49.3,345.8,52.6z"/>
	<path d="M363.2,48.6c0-1.8,0-3.2-0.1-4.6h2.7l0.1,2.7h0.1c0.9-1.6,2.5-3.1,5.3-3.1c2.3,0,4.1,1.4,4.8,3.4h0.1
		c0.5-0.9,1.2-1.7,1.9-2.2c1-0.8,2.1-1.2,3.7-1.2c2.2,0,5.6,1.5,5.6,7.4v10h-3v-9.6c0-3.3-1.2-5.2-3.7-5.2c-1.8,0-3.1,1.3-3.6,2.8
		c-0.1,0.4-0.2,1-0.2,1.5V61h-3V50.8c0-2.7-1.2-4.7-3.5-4.7c-1.9,0-3.3,1.5-3.8,3.1c-0.2,0.5-0.2,1-0.2,1.5V61h-3V48.6z"/>
	<path d="M394.1,53.1c0.1,4.2,2.7,5.9,5.8,5.9c2.2,0,3.5-0.4,4.7-0.9l0.5,2.2c-1.1,0.5-2.9,1-5.6,1c-5.2,0-8.3-3.4-8.3-8.5
		c0-5.1,3-9.1,7.9-9.1c5.5,0,7,4.9,7,8c0,0.6-0.1,1.1-0.1,1.4H394.1z M403.1,50.9c0-2-0.8-5-4.3-5c-3.1,0-4.5,2.9-4.7,5H403.1z"/>
	<path d="M409.9,49.3c0-2,0-3.7-0.1-5.3h2.7l0.1,3.3h0.1c0.8-2.3,2.6-3.7,4.7-3.7c0.3,0,0.6,0,0.9,0.1v2.9c-0.3-0.1-0.6-0.1-1-0.1
		c-2.2,0-3.7,1.6-4.1,4c-0.1,0.4-0.1,0.9-0.1,1.4v9h-3V49.3z"/>
	<path d="M433.7,37.4h3v15.8c0,6.3-3.1,8.2-7.1,8.2c-1.1,0-2.5-0.2-3.3-0.6l0.5-2.5c0.6,0.2,1.5,0.5,2.6,0.5c2.7,0,4.3-1.2,4.3-5.8
		V37.4z"/>
	<path d="M457,52.4c0,6.3-4.3,9-8.4,9c-4.6,0-8.1-3.4-8.1-8.7c0-5.7,3.7-9,8.4-9C453.8,43.7,457,47.2,457,52.4z M443.6,52.6
		c0,3.7,2.1,6.5,5.1,6.5c2.9,0,5.1-2.8,5.1-6.6c0-2.9-1.4-6.5-5.1-6.5S443.6,49.3,443.6,52.6z"/>
	<path d="M475.1,56.4c0,1.8,0,3.3,0.1,4.6h-2.7l-0.2-2.8h-0.1c-0.8,1.4-2.6,3.2-5.6,3.2c-2.7,0-5.8-1.5-5.8-7.4v-9.9h3.1v9.4
		c0,3.2,1,5.4,3.8,5.4c2.1,0,3.5-1.4,4.1-2.8c0.2-0.5,0.3-1,0.3-1.6V44.1h3.1V56.4z"/>
	<path d="M480.2,49.3c0-2,0-3.7-0.1-5.3h2.7l0.1,3.3h0.1c0.8-2.3,2.6-3.7,4.7-3.7c0.4,0,0.6,0,0.9,0.1v2.9c-0.3-0.1-0.6-0.1-1-0.1
		c-2.2,0-3.7,1.6-4.1,4c-0.1,0.4-0.1,0.9-0.1,1.4v9h-3V49.3z"/>
	<path d="M491.8,48.6c0-1.8,0-3.2-0.1-4.6h2.7l0.2,2.8h0.1c0.8-1.6,2.8-3.2,5.6-3.2c2.3,0,6,1.4,6,7.2V61h-3.1v-9.8c0-2.7-1-5-3.9-5
		c-2,0-3.6,1.4-4.1,3.2c-0.1,0.4-0.2,0.9-0.2,1.4V61h-3.1V48.6z"/>
	<path d="M512.9,53.1c0.1,4.2,2.7,5.9,5.8,5.9c2.2,0,3.5-0.4,4.7-0.9l0.5,2.2c-1.1,0.5-2.9,1-5.6,1c-5.2,0-8.3-3.4-8.3-8.5
		c0-5.1,3-9.1,7.9-9.1c5.5,0,7,4.9,7,8c0,0.6-0.1,1.1-0.1,1.4H512.9z M522,50.9c0-2-0.8-5-4.3-5c-3.1,0-4.5,2.9-4.7,5H522z"/>
	<path d="M529.9,44.1l3.7,10c0.4,1.1,0.8,2.5,1.1,3.5h0.1c0.3-1,0.7-2.3,1.1-3.5l3.4-9.9h3.3l-4.6,12.1c-2.2,5.8-3.7,8.8-5.8,10.6
		c-1.5,1.3-3,1.9-3.8,2l-0.8-2.6c0.8-0.2,1.8-0.7,2.7-1.5c0.8-0.7,1.9-1.9,2.6-3.4c0.1-0.3,0.2-0.6,0.2-0.7c0-0.2-0.1-0.4-0.2-0.8
		l-6.3-15.6H529.9z"/>
</g>
</svg>
