<?xml version="1.0" encoding="utf-8"?>
<!-- Generator: Adobe Illustrator 17.1.0, SVG Export Plug-In . SVG Version: 6.00 Build 0)  -->
<!DOCTYPE svg PUBLIC "-//W3C//DTD SVG 1.1//EN" "http://www.w3.org/Graphics/SVG/1.1/DTD/svg11.dtd">
<svg version="1.1" id="Layer_1" xmlns="http://www.w3.org/2000/svg" xmlns:xlink="http://www.w3.org/1999/xlink" x="0px" y="0px"
	 viewBox="0 0 903 474" enable-background="new 0 0 903 474" xml:space="preserve">
<rect x="0" y="-2" fill="#FFFFFF" width="903" height="476"/>
<path d="M559.8,386.9c34.4-3.7,68-19.9,92.9-44.7c23.7-23.7,39.2-54.4,44.5-88.3c1.7-10.6,1.7-34.8,0-45.5
	c-7-44.9-31.4-83.1-68.9-108.2c-8.5-5.7-25.6-14.2-34.9-17.3c-34.2-11.5-68.8-11.5-102.8,0c-6.3,2.2-21.8,9-21.8,9.7
	c0,0.2,2.9,2.5,6.4,5.2c8.4,6.3,21.3,19,28,27.3c16.5,20.4,28.2,44.5,33.7,69c3.1,13.7,3.9,22.2,3.9,37.4c0,34-8.9,64.1-27.1,91.9
	c-10.1,15.4-24,30.6-37.7,41.1c-3.4,2.6-6.3,5-6.4,5.3c-0.3,0.8,13.2,6.9,20.9,9.5C513.6,387.1,535.6,389.5,559.8,386.9L559.8,386.9
	z M382.9,387.6c15.7-1.1,27.7-3.5,41.8-8.3c6.4-2.2,20.4-8.3,20.4-9c0-0.2-2.9-2.5-6.4-5.2c-8.4-6.3-21.3-19-28-27.3
	c-19.9-24.7-31.8-52.2-36.5-84.3c-1.6-10.9-1.6-33.3,0-44.2c4.7-32.1,16.6-59.7,36.5-84.3c6.9-8.5,20.6-21.8,28.7-27.7
	c3.5-2.5,6.4-4.8,6.4-5c0.1-0.7-14-7-21-9.4c-33.9-11.5-68.5-11.5-102.8,0c-9.3,3.1-26.4,11.6-34.9,17.3c-32.9,22-55.9,54.3-65.6,92
	c-3.7,14.5-4.6,21.8-4.6,38.9c0,17,0.9,24.4,4.6,38.9c7,27.2,21.3,52.3,41.2,72.2c12.4,12.4,25.5,21.7,41.9,29.7
	c21.4,10.5,40.7,15.2,67.2,16.3C372.8,388.2,377.8,388,382.9,387.6L382.9,387.6z M361.1,399.7c-54.1-4.5-100.5-31.8-129.6-76.3
	c-18.3-27.9-27.1-57.9-27.1-91.9c0-34,8.9-64.1,27.1-91.9c21.3-32.6,52.1-56.2,89.2-68.4c16.8-5.5,32.4-7.9,51.9-7.9
	c28.4,0,52.3,5.7,77.3,18.5l7.1,3.6l7.1-3.6c17.6-9,34.7-14.4,55.2-17.3c10.9-1.6,33.3-1.6,44.2,0c38.7,5.6,71.8,22.2,98.2,49.3
	c25.9,26.5,41.4,58.2,46.8,95.8c1.6,10.9,1.6,33.3,0,44.2c-7.2,50-33.7,91.9-75.2,119.1c-27.9,18.3-57.9,27.1-91.9,27.1
	c-28.4,0-52.3-5.7-77.3-18.5l-7.1-3.6l-7.1,3.6c-23.6,12.1-47.1,18-73.6,18.5C369.8,399.9,363,399.9,361.1,399.7L361.1,399.7z"/>
<line fill="#070707" stroke="#000000" stroke-width="4" stroke-miterlimit="10" x1="301" y1="163" x2="130" y2="163"/>
<line fill="#070707" stroke="#000000" stroke-width="4" stroke-miterlimit="10" x1="779" y1="163" x2="608" y2="163"/>
<g>
	<path d="M44.9,165.2c-0.6,0.3-1.9,0.6-3.6,0.6c-3.8,0-6.7-2.4-6.7-6.8c0-4.2,2.9-7.1,7-7.1c1.7,0,2.7,0.4,3.2,0.6l-0.4,1.4
		c-0.7-0.3-1.6-0.6-2.7-0.6c-3.2,0-5.3,2-5.3,5.6c0,3.3,1.9,5.4,5.2,5.4c1.1,0,2.1-0.2,2.8-0.6L44.9,165.2z"/>
	<path d="M54.9,163c0,1,0,1.9,0.1,2.6h-1.6l-0.1-1.6h0c-0.5,0.8-1.5,1.8-3.2,1.8c-1.5,0-3.3-0.8-3.3-4.2v-5.7h1.8v5.4
		c0,1.8,0.6,3.1,2.2,3.1c1.2,0,2-0.8,2.3-1.6c0.1-0.3,0.2-0.6,0.2-0.9v-5.9h1.8V163z"/>
	<path d="M57.5,163.8c0.5,0.3,1.4,0.7,2.3,0.7c1.3,0,1.9-0.6,1.9-1.4c0-0.8-0.5-1.3-1.8-1.8c-1.7-0.6-2.6-1.6-2.6-2.7
		c0-1.6,1.3-2.8,3.3-2.8c1,0,1.8,0.3,2.4,0.6l-0.4,1.3c-0.4-0.2-1.1-0.6-2-0.6c-1,0-1.6,0.6-1.6,1.3c0,0.8,0.6,1.2,1.8,1.6
		c1.7,0.6,2.5,1.5,2.5,2.9c0,1.7-1.3,2.9-3.6,2.9c-1.1,0-2-0.3-2.7-0.7L57.5,163.8z"/>
	<path d="M67.8,153.2v2.8h2.5v1.3h-2.5v5.2c0,1.2,0.3,1.9,1.3,1.9c0.5,0,0.8-0.1,1-0.1l0.1,1.3c-0.3,0.1-0.9,0.2-1.6,0.2
		c-0.8,0-1.5-0.3-1.9-0.7c-0.5-0.5-0.7-1.4-0.7-2.5v-5.3h-1.5v-1.3h1.5v-2.3L67.8,153.2z"/>
	<path d="M81,160.7c0,3.6-2.5,5.1-4.8,5.1c-2.6,0-4.6-1.9-4.6-5c0-3.2,2.1-5.1,4.8-5.1C79.1,155.7,81,157.7,81,160.7z M73.3,160.8
		c0,2.1,1.2,3.7,2.9,3.7c1.7,0,2.9-1.6,2.9-3.8c0-1.6-0.8-3.7-2.9-3.7C74.2,157,73.3,159,73.3,160.8z"/>
	<path d="M83.2,158.6c0-1,0-1.8-0.1-2.6h1.5l0.1,1.6h0.1c0.5-0.9,1.4-1.8,3-1.8c1.3,0,2.3,0.8,2.7,1.9h0c0.3-0.5,0.7-1,1.1-1.3
		c0.6-0.4,1.2-0.7,2.1-0.7c1.3,0,3.2,0.8,3.2,4.2v5.7h-1.7v-5.5c0-1.9-0.7-3-2.1-3c-1,0-1.8,0.7-2.1,1.6c-0.1,0.2-0.1,0.6-0.1,0.9v6
		h-1.7v-5.8c0-1.5-0.7-2.7-2-2.7c-1.1,0-1.9,0.9-2.2,1.8c-0.1,0.3-0.1,0.6-0.1,0.9v5.8h-1.7V158.6z"/>
	<path d="M100.8,161.1c0,2.4,1.6,3.4,3.3,3.4c1.3,0,2-0.2,2.7-0.5l0.3,1.3c-0.6,0.3-1.7,0.6-3.2,0.6c-3,0-4.8-2-4.8-4.9
		c0-2.9,1.7-5.2,4.5-5.2c3.2,0,4,2.8,4,4.6c0,0.4,0,0.6-0.1,0.8H100.8z M106,159.8c0-1.1-0.5-2.9-2.4-2.9c-1.8,0-2.6,1.6-2.7,2.9
		H106z"/>
	<path d="M109.9,159c0-1.1,0-2.1-0.1-3h1.5l0.1,1.9h0.1c0.4-1.3,1.5-2.1,2.7-2.1c0.2,0,0.3,0,0.5,0.1v1.7c-0.2,0-0.4-0.1-0.6-0.1
		c-1.2,0-2.1,0.9-2.4,2.3c0,0.2-0.1,0.5-0.1,0.8v5.2h-1.7V159z"/>
</g>
<g>
	<path d="M803.4,168.3c-0.6,0.3-1.9,0.6-3.6,0.6c-3.8,0-6.7-2.4-6.7-6.8c0-4.2,2.9-7.1,7-7.1c1.7,0,2.7,0.4,3.2,0.6l-0.4,1.4
		c-0.7-0.3-1.6-0.6-2.7-0.6c-3.2,0-5.3,2-5.3,5.6c0,3.3,1.9,5.4,5.2,5.4c1.1,0,2.1-0.2,2.8-0.6L803.4,168.3z"/>
	<path d="M814,163.8c0,3.6-2.5,5.1-4.8,5.1c-2.6,0-4.6-1.9-4.6-5c0-3.2,2.1-5.1,4.8-5.1C812.2,158.9,814,160.9,814,163.8z
		 M806.4,163.9c0,2.1,1.2,3.7,2.9,3.7c1.7,0,2.9-1.6,2.9-3.8c0-1.6-0.8-3.7-2.9-3.7C807.3,160.2,806.4,162.1,806.4,163.9z"/>
	<path d="M816.3,161.7c0-1,0-1.8-0.1-2.6h1.6l0.1,1.6h0c0.5-0.9,1.6-1.8,3.2-1.8c1.3,0,3.4,0.8,3.4,4.1v5.8h-1.8v-5.6
		c0-1.6-0.6-2.9-2.2-2.9c-1.2,0-2.1,0.8-2.4,1.8c-0.1,0.2-0.1,0.5-0.1,0.8v5.8h-1.8V161.7z"/>
	<path d="M829.4,156.3v2.8h2.5v1.3h-2.5v5.2c0,1.2,0.3,1.9,1.3,1.9c0.5,0,0.8-0.1,1-0.1l0.1,1.3c-0.3,0.1-0.9,0.2-1.6,0.2
		c-0.8,0-1.5-0.3-1.9-0.7c-0.5-0.5-0.7-1.4-0.7-2.5v-5.3h-1.5v-1.3h1.5v-2.3L829.4,156.3z"/>
	<path d="M834.8,164.2c0,2.4,1.6,3.4,3.3,3.4c1.3,0,2-0.2,2.7-0.5l0.3,1.3c-0.6,0.3-1.7,0.6-3.2,0.6c-3,0-4.8-2-4.8-4.9
		c0-2.9,1.7-5.2,4.5-5.2c3.2,0,4,2.8,4,4.6c0,0.4,0,0.6-0.1,0.8H834.8z M839.9,163c0-1.1-0.5-2.9-2.4-2.9c-1.8,0-2.6,1.6-2.7,2.9
		H839.9z"/>
	<path d="M843.8,161.7c0-1,0-1.8-0.1-2.6h1.6l0.1,1.6h0c0.5-0.9,1.6-1.8,3.2-1.8c1.3,0,3.4,0.8,3.4,4.1v5.8h-1.8v-5.6
		c0-1.6-0.6-2.9-2.2-2.9c-1.2,0-2.1,0.8-2.4,1.8c-0.1,0.2-0.1,0.5-0.1,0.8v5.8h-1.8V161.7z"/>
	<path d="M856.9,156.3v2.8h2.5v1.3h-2.5v5.2c0,1.2,0.3,1.9,1.3,1.9c0.5,0,0.8-0.1,1-0.1l0.1,1.3c-0.3,0.1-0.9,0.2-1.6,0.2
		c-0.8,0-1.5-0.3-1.9-0.7c-0.5-0.5-0.7-1.4-0.7-2.5v-5.3h-1.5v-1.3h1.5v-2.3L856.9,156.3z"/>
</g>
<path fill="#E89F1F" d="M458.9,94.8c0,0-168.8,112.2-0.6,272.8"/>
<path fill="#E89F1F" d="M458.9,94.8c0,0,152.5,112.2-0.6,272.8"/>
<polygon fill="#E89F1F" points="460.8,358.7 451,349 458.3,97.1 460.3,98.3 "/>
<g>
	<path fill="#FFFFFF" d="M424.6,210.6c-0.6,0.3-1.8,0.6-3.5,0.6c-4.7,0-7.1-2.9-7.1-6.7c0-4.6,3.3-7.2,7.4-7.2
		c1.6,0,2.8,0.3,3.3,0.6l-0.6,2.4c-0.6-0.3-1.5-0.5-2.6-0.5c-2.4,0-4.3,1.5-4.3,4.5c0,2.7,1.6,4.4,4.3,4.4c0.9,0,1.9-0.2,2.5-0.4
		L424.6,210.6z"/>
	<path fill="#FFFFFF" d="M438.3,204.1c0,4.4-2.7,7.1-6.6,7.1c-4,0-6.3-3-6.3-6.9c0-4,2.6-7.1,6.6-7.1
		C436.1,197.3,438.3,200.4,438.3,204.1z M428.6,204.3c0,2.6,1.2,4.5,3.3,4.5c2.1,0,3.2-2,3.2-4.6c0-2.4-1.2-4.5-3.3-4.5
		C429.8,199.7,428.6,201.7,428.6,204.3z"/>
	<path fill="#FFFFFF" d="M440.3,211v-13.5h3.6l2.8,4.9c0.8,1.4,1.6,3.1,2.2,4.6h0.1c-0.2-1.8-0.3-3.6-0.3-5.6v-3.9h2.8V211h-3.2
		l-2.9-5.2c-0.8-1.4-1.7-3.2-2.3-4.8l-0.1,0c0.1,1.8,0.1,3.7,0.1,5.9v4.1H440.3z"/>
	<path fill="#FFFFFF" d="M456.7,200.1h-3.6v-2.6h10.4v2.6h-3.7V211h-3.1V200.1z"/>
	<path fill="#FFFFFF" d="M473.1,205.3h-5v3.2h5.5v2.5h-8.6v-13.5h8.3v2.5h-5.3v2.8h5V205.3z"/>
	<path fill="#FFFFFF" d="M475.8,211v-13.5h3.6l2.8,4.9c0.8,1.4,1.6,3.1,2.2,4.6h0.1c-0.2-1.8-0.3-3.6-0.3-5.6v-3.9h2.8V211h-3.2
		l-2.9-5.2c-0.8-1.4-1.7-3.2-2.3-4.8l-0.1,0c0.1,1.8,0.1,3.7,0.1,5.9v4.1H475.8z"/>
	<path fill="#FFFFFF" d="M492.2,200.1h-3.6v-2.6h10.4v2.6h-3.7V211h-3.1V200.1z"/>
	<path fill="#FFFFFF" d="M412.7,229.3h-5v3.2h5.5v2.5h-8.6v-13.5h8.3v2.5h-5.3v2.8h5V229.3z"/>
	<path fill="#FFFFFF" d="M422.5,235l-1.2-2.4c-0.5-0.9-0.8-1.6-1.2-2.4h0c-0.3,0.8-0.6,1.5-1,2.4l-1.1,2.4h-3.5l3.9-6.8l-3.8-6.7
		h3.5l1.2,2.5c0.4,0.8,0.7,1.5,1,2.2h0c0.3-0.9,0.6-1.5,0.9-2.2l1.1-2.5h3.5l-3.8,6.6l4,6.9H422.5z"/>
	<path fill="#FFFFFF" d="M427.6,221.7c0.9-0.2,2.3-0.3,4.1-0.3c1.9,0,3.2,0.4,4.1,1.1c0.9,0.7,1.4,1.8,1.4,3.1s-0.4,2.4-1.2,3.2
		c-1,1-2.6,1.4-4.4,1.4c-0.4,0-0.8,0-1-0.1v4.8h-3V221.7z M430.7,227.8c0.3,0.1,0.6,0.1,1,0.1c1.6,0,2.6-0.8,2.6-2.2
		c0-1.2-0.9-2-2.4-2c-0.6,0-1,0.1-1.3,0.1V227.8z"/>
	<path fill="#FFFFFF" d="M447.3,229.3h-5v3.2h5.5v2.5h-8.6v-13.5h8.3v2.5h-5.3v2.8h5V229.3z"/>
	<path fill="#FFFFFF" d="M449.9,221.7c1-0.2,2.4-0.3,4.1-0.3c2,0,3.4,0.3,4.4,1.1c0.8,0.6,1.2,1.6,1.2,2.8c0,1.7-1.2,2.9-2.4,3.3
		v0.1c0.9,0.4,1.5,1.3,1.8,2.5c0.4,1.5,0.8,3.3,1.1,3.8H457c-0.2-0.4-0.5-1.5-0.9-3.1c-0.4-1.7-0.9-2.1-2.2-2.2H453v5.3h-3V221.7z
		 M453,227.5h1.2c1.5,0,2.4-0.8,2.4-1.9c0-1.2-0.8-1.9-2.2-1.9c-0.7,0-1.2,0.1-1.4,0.1V227.5z"/>
	<path fill="#FFFFFF" d="M464.9,221.5V235h-3.1v-13.5H464.9z"/>
	<path fill="#FFFFFF" d="M475.5,229.3h-5v3.2h5.5v2.5h-8.6v-13.5h8.3v2.5h-5.3v2.8h5V229.3z"/>
	<path fill="#FFFFFF" d="M478.2,235v-13.5h3.6l2.8,4.9c0.8,1.4,1.6,3.1,2.2,4.6h0.1c-0.2-1.8-0.3-3.6-0.3-5.6v-3.9h2.8V235h-3.2
		l-2.9-5.2c-0.8-1.4-1.7-3.2-2.3-4.8l-0.1,0c0.1,1.8,0.1,3.7,0.1,5.9v4.1H478.2z"/>
	<path fill="#FFFFFF" d="M501.9,234.6c-0.6,0.3-1.8,0.6-3.5,0.6c-4.7,0-7.1-2.9-7.1-6.7c0-4.6,3.3-7.2,7.4-7.2
		c1.6,0,2.8,0.3,3.3,0.6l-0.6,2.4c-0.6-0.3-1.5-0.5-2.6-0.5c-2.4,0-4.3,1.5-4.3,4.5c0,2.7,1.6,4.4,4.3,4.4c0.9,0,1.9-0.2,2.5-0.4
		L501.9,234.6z"/>
	<path fill="#FFFFFF" d="M511.9,229.3h-5v3.2h5.5v2.5h-8.6v-13.5h8.3v2.5h-5.3v2.8h5V229.3z"/>
</g>
</svg>
