<?xml version="1.0" encoding="utf-8"?>
<!-- Generator: Adobe Illustrator 17.1.0, SVG Export Plug-In . SVG Version: 6.00 Build 0)  -->
<!DOCTYPE svg PUBLIC "-//W3C//DTD SVG 1.1//EN" "http://www.w3.org/Graphics/SVG/1.1/DTD/svg11.dtd">
<svg version="1.1" id="Layer_1" xmlns="http://www.w3.org/2000/svg" xmlns:xlink="http://www.w3.org/1999/xlink" x="0px" y="0px"
	 viewBox="0 0 600 310.7" enable-background="new 0 0 600 310.7" xml:space="preserve">
<rect y="0" fill="#FFFFFF" width="600" height="311"/>
<g>
	<path d="M125.4,116.6c-0.6,0-2.3-0.2-4-0.3c-17.7-1.5-33.9-7.8-42-16.5c-16-17,1.1-37.3,35.7-42.7c6.1-0.9,8.9-1.1,16.2-1.1
		c7.4,0,10.2,0.2,16.2,1.1c22.6,3.5,38.9,13.7,41.4,25.9c3,14.4-14.1,28-40.6,32.3c-5.3,0.9-9,1.2-15.6,1.2
		C129.4,116.7,126,116.7,125.4,116.6L125.4,116.6z"/>
	<path d="M127,160.9c-0.6,0-2.5-0.2-4.4-0.3c-7.2-0.5-15.4-2.1-22-4.3c-8.6-2.8-15.6-6.8-20.3-11.5c-1.6-1.6-3.7-4.2-4.5-5.6
		c-0.2-0.4-0.8-1.5-1.3-2.4l-0.9-1.6l-0.1-16.8c0-9.2,0-16.8,0.1-16.8c0.1,0,0.4,0.5,0.6,1.1c2.2,5.5,4.8,8.7,10.4,12.6
		c1.1,0.7,2.2,1.5,2.6,1.7c0.3,0.2,1,0.6,1.5,0.9c0.5,0.3,1.9,1.1,3.2,1.7c3,1.4,3.3,1.6,5.2,2.3c0.9,0.3,1.9,0.7,2.4,0.9
		c5,1.9,14.5,3.9,22.1,4.6c3.2,0.3,16.5,0.3,19.7,0c7.5-0.7,17.1-2.7,22.1-4.6c0.4-0.2,1.5-0.6,2.4-0.9c1.9-0.7,2.2-0.8,5.4-2.4
		c1.3-0.6,2.8-1.4,3.2-1.7c0.4-0.3,0.9-0.5,0.9-0.5c0.2,0,4.8-3.2,5.6-3.8c1.4-1.2,4.2-4.1,5-5.4c0.9-1.4,2-3.5,2.7-5.3
		c0.2-0.6,0.5-1.1,0.6-1.1c0.1,0,0.2,5.4,0.2,11.9v11.9l-3.7,0.3c-12.4,0.9-23.3,5.9-32,14.7c-5,5-9.1,11.5-11.6,18.2l-0.7,1.9
		l-2,0.1C136.8,160.9,128.3,161.1,127,160.9L127,160.9z"/>
	<path d="M222.6,186.8l3.7-3.7l-12.4-12.4c-6.8-6.8-12.4-12.5-12.4-12.6s2.1-0.2,4.8-0.2h4.8V147h-28l0,1.5c0,2,0,25.8,0,26.4
		c0,0.4,0.4,0.4,5.4,0.3l5.4-0.1l0.2-9.4l12.3,12.3c6.8,6.8,12.4,12.3,12.6,12.3S220.6,188.8,222.6,186.8L222.6,186.8z"/>
	<path d="M200,195.4l-0.1-14.1h-10.6l-0.1,4.7c0,2.6-0.1,4.7-0.2,4.7c-0.1,0-5.7-5.6-12.5-12.4l-12.4-12.4l-7.6,7.6l12.4,12.4
		c6.8,6.8,12.4,12.5,12.4,12.5c0,0.1-2.1,0.2-4.7,0.2l-4.7,0.1l-0.1,5.1c0,2.8,0,5.2,0,5.4c0.1,0.2,3,0.3,14.1,0.3h14L200,195.4z"/>
	<path fill="none" stroke="#000000" stroke-width="1.9778" stroke-miterlimit="10" d="M185.1,221.3c-14.7-2.4-26.5-11-32.8-24
		c-1.7-3.5-2.8-6.7-3.7-10.6c-0.6-2.8-0.6-3.3-0.6-8.5c0-5.2,0-5.7,0.6-8.5c2.9-13.6,11.3-24.6,23.6-30.5c3.5-1.7,6.7-2.8,10.6-3.7
		c2.8-0.6,3.3-0.6,8.5-0.6c5.2,0,5.7,0,8.5,0.6c13.6,2.9,24.6,11.3,30.5,23.6c1.7,3.5,2.8,6.7,3.7,10.6c0.6,2.8,0.6,3.3,0.6,8.5
		c0,5.2,0,5.7-0.6,8.5c-0.8,3.9-1.9,7.1-3.7,10.6c-6,12.2-16.9,20.7-30.4,23.5c-2.5,0.5-3.5,0.6-7.8,0.7
		C188.5,221.6,186.5,221.6,185.1,221.3L185.1,221.3z"/>
	<path d="M128.1,253.5c-4-0.9-7.8-3.9-9.7-7.5c-0.5-1-1-2-1-2.2c0-0.3-3.4-0.3-22.1-0.3H73.4V235l44,0l1-2.1
		c1.3-2.8,3.6-5.1,6.3-6.5c1-0.5,2-1,2.2-1c0.3,0,0.3-1.7,0.3-10.3V205l-0.5-0.1c-0.3-0.1-1.2-0.1-2.1-0.1c-1.8,0-8.4-0.7-11.1-1.2
		c-3.8-0.7-4.6-0.9-7.5-1.6c-12.5-3.2-22.7-8.9-27.9-15.5c-0.6-0.8-1.3-1.6-1.5-1.7c-0.5-0.4-2-2.8-2.7-4.2l-0.6-1.2v-16.9
		c0-9.3,0.1-16.9,0.2-16.9c0.1,0,0.6,1,1.1,2.2c0.5,1.2,1.1,2.5,1.2,2.8c0.2,0.3,0.4,0.7,0.6,0.9c2.1,3.5,5.5,6.4,10.7,9.5
		c0.9,0.5,1.7,1,1.7,1.1c0.1,0.2,5.4,2.7,7.9,3.7c3,1.2,5.2,1.9,8.4,2.8c2.8,0.8,4.2,1.1,8.6,1.8c5.9,1.1,12.6,1.5,19.7,1.4l5.3-0.1
		l0,5.3c0,5.6,0.2,7.7,1.3,12.3c1,4.2,3,9.5,5.3,13.7c0.3,0.5,0.5,1,0.4,1c-0.1,0.1-6.7,0.8-8.6,0.8c-0.8,0-1.6,0.1-1.6,0.2
		c-0.1,0.1-0.1,4.7-0.1,10.3l0,10.2l1.3,0.5c1.9,0.7,3.2,1.6,5,3.4c1.3,1.3,1.8,2.1,2.6,3.7l1,2l44,0v8.4l-44,0l-0.5,1.3
		c-0.7,1.9-1.6,3.2-3.4,5C137.9,253.1,132.9,254.5,128.1,253.5L128.1,253.5z"/>
	<rect x="115" y="204" fill="#FFFFFF" width="33" height="61"/>
	<rect x="63" y="231" fill="#FFFFFF" width="137" height="23"/>
</g>
<g>
	<path d="M336.8,59.6c-0.1,0-0.5,0-0.9-0.1c-4-0.3-7.6-1.8-9.5-3.7c-3.6-3.8,0.2-8.4,8-9.6c1.4-0.2,2-0.3,3.7-0.3
		c1.7,0,2.3,0,3.7,0.3c5.1,0.8,8.8,3.1,9.3,5.8c0.7,3.2-3.2,6.3-9.1,7.3c-1.2,0.2-2,0.3-3.5,0.3C337.7,59.6,336.9,59.6,336.8,59.6
		L336.8,59.6z"/>
	<path d="M337.1,69.6c-0.1,0-0.6,0-1-0.1c-1.6-0.1-3.5-0.5-5-1c-1.9-0.6-3.5-1.5-4.6-2.6c-0.4-0.4-0.8-1-1-1.3
		c-0.1-0.1-0.2-0.3-0.3-0.5l-0.2-0.4l0-3.8c0-2.1,0-3.8,0-3.8c0,0,0.1,0.1,0.1,0.2c0.5,1.2,1.1,2,2.3,2.8c0.2,0.2,0.5,0.3,0.6,0.4
		c0.1,0,0.2,0.1,0.3,0.2c0.1,0.1,0.4,0.2,0.7,0.4c0.7,0.3,0.8,0.4,1.2,0.5c0.2,0.1,0.4,0.2,0.5,0.2c1.1,0.4,3.3,0.9,5,1
		c0.7,0.1,3.7,0.1,4.4,0c1.7-0.2,3.8-0.6,5-1c0.1,0,0.3-0.1,0.5-0.2c0.4-0.2,0.5-0.2,1.2-0.5c0.3-0.1,0.6-0.3,0.7-0.4
		s0.2-0.1,0.2-0.1c0,0,1.1-0.7,1.3-0.9c0.3-0.3,0.9-0.9,1.1-1.2c0.2-0.3,0.4-0.8,0.6-1.2c0.1-0.1,0.1-0.2,0.1-0.2c0,0,0,1.2,0,2.7
		v2.7l-0.8,0.1c-2.8,0.2-5.2,1.3-7.2,3.3c-1.1,1.1-2.1,2.6-2.6,4.1l-0.2,0.4l-0.4,0C339.3,69.6,337.4,69.6,337.1,69.6L337.1,69.6z"
		/>
	<path d="M358.7,75.4l0.8-0.8l-2.8-2.8c-1.5-1.5-2.8-2.8-2.8-2.8c0,0,0.5,0,1.1,0h1.1v-2.4h-6.3l0,0.3c0,0.5,0,5.8,0,5.9
		c0,0.1,0.1,0.1,1.2,0.1l1.2,0l0.1-2.1l2.8,2.8c1.5,1.5,2.8,2.8,2.8,2.8C357.8,76.2,358.2,75.8,358.7,75.4L358.7,75.4z"/>
	<path d="M353.6,77.3l0-3.2h-2.4l0,1.1c0,0.6,0,1.1-0.1,1.1s-1.3-1.3-2.8-2.8l-2.8-2.8l-1.7,1.7l2.8,2.8c1.5,1.5,2.8,2.8,2.8,2.8
		c0,0-0.5,0-1.1,0.1l-1.1,0l0,1.1c0,0.6,0,1.2,0,1.2c0,0.1,0.7,0.1,3.2,0.1h3.2L353.6,77.3z"/>
	<path fill="none" stroke="#000000" stroke-width="0.445" stroke-miterlimit="10" d="M350.2,83.2c-3.3-0.5-6-2.5-7.4-5.4
		c-0.4-0.8-0.6-1.5-0.8-2.4c-0.1-0.6-0.1-0.7-0.1-1.9c0-1.2,0-1.3,0.1-1.9c0.7-3.1,2.5-5.5,5.3-6.9c0.8-0.4,1.5-0.6,2.4-0.8
		c0.6-0.1,0.7-0.1,1.9-0.1c1.2,0,1.3,0,1.9,0.1c3.1,0.7,5.5,2.5,6.9,5.3c0.4,0.8,0.6,1.5,0.8,2.4c0.1,0.6,0.1,0.7,0.1,1.9
		c0,1.2,0,1.3-0.1,1.9c-0.2,0.9-0.4,1.6-0.8,2.4c-1.3,2.7-3.8,4.7-6.8,5.3c-0.6,0.1-0.8,0.1-1.8,0.2C351,83.2,350.5,83.2,350.2,83.2
		L350.2,83.2z"/>
	<path d="M337.4,90.4c-0.9-0.2-1.8-0.9-2.2-1.7c-0.1-0.2-0.2-0.5-0.2-0.5c0-0.1-0.8-0.1-5-0.1h-5v-1.9l9.9,0l0.2-0.5
		c0.3-0.6,0.8-1.1,1.4-1.5c0.2-0.1,0.5-0.2,0.5-0.2c0.1,0,0.1-0.4,0.1-2.3v-2.3l-0.1,0c-0.1,0-0.3,0-0.5,0c-0.4,0-1.9-0.2-2.5-0.3
		c-0.9-0.2-1-0.2-1.7-0.4c-2.8-0.7-5.1-2-6.3-3.5c-0.1-0.2-0.3-0.4-0.3-0.4c-0.1-0.1-0.5-0.6-0.6-1l-0.1-0.3v-3.8c0-2.1,0-3.8,0-3.8
		c0,0,0.1,0.2,0.2,0.5c0.1,0.3,0.2,0.6,0.3,0.6c0,0.1,0.1,0.2,0.1,0.2c0.5,0.8,1.2,1.4,2.4,2.1c0.2,0.1,0.4,0.2,0.4,0.2
		c0,0.1,1.2,0.6,1.8,0.8c0.7,0.3,1.2,0.4,1.9,0.6c0.6,0.2,0.9,0.2,1.9,0.4c1.3,0.2,2.8,0.3,4.4,0.3l1.2,0l0,1.2
		c0,1.3,0.1,1.7,0.3,2.8c0.2,0.9,0.7,2.1,1.2,3.1c0.1,0.1,0.1,0.2,0.1,0.2c0,0-1.5,0.2-1.9,0.2c-0.2,0-0.4,0-0.4,0c0,0,0,1.1,0,2.3
		l0,2.3l0.3,0.1c0.4,0.2,0.7,0.4,1.1,0.8c0.3,0.3,0.4,0.5,0.6,0.8l0.2,0.5l9.9,0v1.9l-9.9,0l-0.1,0.3c-0.2,0.4-0.4,0.7-0.8,1.1
		C339.6,90.3,338.5,90.6,337.4,90.4L337.4,90.4z"/>
	<rect x="334" y="79" fill="#FFFFFF" width="8" height="14"/>
	<rect x="323" y="85" fill="#FFFFFF" width="30" height="5"/>
</g>
<g>
	<path d="M398.8,59.6c-0.1,0-0.5,0-0.9-0.1c-4-0.3-7.6-1.8-9.5-3.7c-3.6-3.8,0.2-8.4,8-9.6c1.4-0.2,2-0.3,3.7-0.3
		c1.7,0,2.3,0,3.7,0.3c5.1,0.8,8.8,3.1,9.3,5.8c0.7,3.2-3.2,6.3-9.1,7.3c-1.2,0.2-2,0.3-3.5,0.3C399.7,59.6,398.9,59.6,398.8,59.6
		L398.8,59.6z"/>
	<path d="M399.1,69.6c-0.1,0-0.6,0-1-0.1c-1.6-0.1-3.5-0.5-5-1c-1.9-0.6-3.5-1.5-4.6-2.6c-0.4-0.4-0.8-1-1-1.3
		c-0.1-0.1-0.2-0.3-0.3-0.5l-0.2-0.4l0-3.8c0-2.1,0-3.8,0-3.8c0,0,0.1,0.1,0.1,0.2c0.5,1.2,1.1,2,2.3,2.8c0.2,0.2,0.5,0.3,0.6,0.4
		c0.1,0,0.2,0.1,0.3,0.2c0.1,0.1,0.4,0.2,0.7,0.4c0.7,0.3,0.8,0.4,1.2,0.5c0.2,0.1,0.4,0.2,0.5,0.2c1.1,0.4,3.3,0.9,5,1
		c0.7,0.1,3.7,0.1,4.4,0c1.7-0.2,3.8-0.6,5-1c0.1,0,0.3-0.1,0.5-0.2c0.4-0.2,0.5-0.2,1.2-0.5c0.3-0.1,0.6-0.3,0.7-0.4
		s0.2-0.1,0.2-0.1c0,0,1.1-0.7,1.3-0.9c0.3-0.3,0.9-0.9,1.1-1.2c0.2-0.3,0.4-0.8,0.6-1.2c0.1-0.1,0.1-0.2,0.1-0.2c0,0,0,1.2,0,2.7
		v2.7l-0.8,0.1c-2.8,0.2-5.2,1.3-7.2,3.3c-1.1,1.1-2.1,2.6-2.6,4.1l-0.2,0.4l-0.4,0C401.3,69.6,399.4,69.6,399.1,69.6L399.1,69.6z"
		/>
	<path d="M420.7,75.4l0.8-0.8l-2.8-2.8c-1.5-1.5-2.8-2.8-2.8-2.8c0,0,0.5,0,1.1,0h1.1v-2.4h-6.3l0,0.3c0,0.5,0,5.8,0,5.9
		c0,0.1,0.1,0.1,1.2,0.1l1.2,0l0.1-2.1l2.8,2.8c1.5,1.5,2.8,2.8,2.8,2.8C419.8,76.2,420.2,75.8,420.7,75.4L420.7,75.4z"/>
	<path d="M415.6,77.3l0-3.2h-2.4l0,1.1c0,0.6,0,1.1-0.1,1.1s-1.3-1.3-2.8-2.8l-2.8-2.8l-1.7,1.7l2.8,2.8c1.5,1.5,2.8,2.8,2.8,2.8
		c0,0-0.5,0-1.1,0.1l-1.1,0l0,1.1c0,0.6,0,1.2,0,1.2c0,0.1,0.7,0.1,3.2,0.1h3.2L415.6,77.3z"/>
	<path fill="none" stroke="#000000" stroke-width="0.445" stroke-miterlimit="10" d="M412.2,83.2c-3.3-0.5-6-2.5-7.4-5.4
		c-0.4-0.8-0.6-1.5-0.8-2.4c-0.1-0.6-0.1-0.7-0.1-1.9c0-1.2,0-1.3,0.1-1.9c0.7-3.1,2.5-5.5,5.3-6.9c0.8-0.4,1.5-0.6,2.4-0.8
		c0.6-0.1,0.7-0.1,1.9-0.1c1.2,0,1.3,0,1.9,0.1c3.1,0.7,5.5,2.5,6.9,5.3c0.4,0.8,0.6,1.5,0.8,2.4c0.1,0.6,0.1,0.7,0.1,1.9
		c0,1.2,0,1.3-0.1,1.9c-0.2,0.9-0.4,1.6-0.8,2.4c-1.3,2.7-3.8,4.7-6.8,5.3c-0.6,0.1-0.8,0.1-1.8,0.2C413,83.2,412.5,83.2,412.2,83.2
		L412.2,83.2z"/>
	<path d="M399.4,90.4c-0.9-0.2-1.8-0.9-2.2-1.7c-0.1-0.2-0.2-0.5-0.2-0.5c0-0.1-0.8-0.1-5-0.1h-5v-1.9l9.9,0l0.2-0.5
		c0.3-0.6,0.8-1.1,1.4-1.5c0.2-0.1,0.5-0.2,0.5-0.2c0.1,0,0.1-0.4,0.1-2.3v-2.3l-0.1,0c-0.1,0-0.3,0-0.5,0c-0.4,0-1.9-0.2-2.5-0.3
		c-0.9-0.2-1-0.2-1.7-0.4c-2.8-0.7-5.1-2-6.3-3.5c-0.1-0.2-0.3-0.4-0.3-0.4c-0.1-0.1-0.5-0.6-0.6-1l-0.1-0.3v-3.8c0-2.1,0-3.8,0-3.8
		c0,0,0.1,0.2,0.2,0.5c0.1,0.3,0.2,0.6,0.3,0.6c0,0.1,0.1,0.2,0.1,0.2c0.5,0.8,1.2,1.4,2.4,2.1c0.2,0.1,0.4,0.2,0.4,0.2
		c0,0.1,1.2,0.6,1.8,0.8c0.7,0.3,1.2,0.4,1.9,0.6c0.6,0.2,0.9,0.2,1.9,0.4c1.3,0.2,2.8,0.3,4.4,0.3l1.2,0l0,1.2
		c0,1.3,0.1,1.7,0.3,2.8c0.2,0.9,0.7,2.1,1.2,3.1c0.1,0.1,0.1,0.2,0.1,0.2c0,0-1.5,0.2-1.9,0.2c-0.2,0-0.4,0-0.4,0c0,0,0,1.1,0,2.3
		l0,2.3l0.3,0.1c0.4,0.2,0.7,0.4,1.1,0.8c0.3,0.3,0.4,0.5,0.6,0.8l0.2,0.5l9.9,0v1.9l-9.9,0l-0.1,0.3c-0.2,0.4-0.4,0.7-0.8,1.1
		C401.6,90.3,400.5,90.6,399.4,90.4L399.4,90.4z"/>
	<rect x="396" y="79" fill="#FFFFFF" width="8" height="14"/>
	<rect x="385" y="85" fill="#FFFFFF" width="30" height="5"/>
</g>
<g>
	<path d="M336.8,117.6c-0.1,0-0.5,0-0.9-0.1c-4-0.3-7.6-1.8-9.5-3.7c-3.6-3.8,0.2-8.4,8-9.6c1.4-0.2,2-0.3,3.7-0.3
		c1.7,0,2.3,0,3.7,0.3c5.1,0.8,8.8,3.1,9.3,5.8c0.7,3.2-3.2,6.3-9.1,7.3c-1.2,0.2-2,0.3-3.5,0.3
		C337.7,117.6,336.9,117.6,336.8,117.6L336.8,117.6z"/>
	<path d="M337.1,127.6c-0.1,0-0.6,0-1-0.1c-1.6-0.1-3.5-0.5-5-1c-1.9-0.6-3.5-1.5-4.6-2.6c-0.4-0.4-0.8-1-1-1.3
		c-0.1-0.1-0.2-0.3-0.3-0.5l-0.2-0.4l0-3.8c0-2.1,0-3.8,0-3.8c0,0,0.1,0.1,0.1,0.2c0.5,1.2,1.1,2,2.3,2.8c0.2,0.2,0.5,0.3,0.6,0.4
		s0.2,0.1,0.3,0.2c0.1,0.1,0.4,0.2,0.7,0.4c0.7,0.3,0.8,0.4,1.2,0.5c0.2,0.1,0.4,0.2,0.5,0.2c1.1,0.4,3.3,0.9,5,1
		c0.7,0.1,3.7,0.1,4.4,0c1.7-0.2,3.8-0.6,5-1c0.1,0,0.3-0.1,0.5-0.2c0.4-0.2,0.5-0.2,1.2-0.5c0.3-0.1,0.6-0.3,0.7-0.4
		s0.2-0.1,0.2-0.1c0,0,1.1-0.7,1.3-0.9c0.3-0.3,0.9-0.9,1.1-1.2c0.2-0.3,0.4-0.8,0.6-1.2c0.1-0.1,0.1-0.2,0.1-0.2c0,0,0,1.2,0,2.7
		v2.7l-0.8,0.1c-2.8,0.2-5.2,1.3-7.2,3.3c-1.1,1.1-2.1,2.6-2.6,4.1l-0.2,0.4l-0.4,0C339.3,127.6,337.4,127.6,337.1,127.6
		L337.1,127.6z"/>
	<path d="M358.7,133.4l0.8-0.8l-2.8-2.8c-1.5-1.5-2.8-2.8-2.8-2.8c0,0,0.5,0,1.1,0h1.1v-2.4h-6.3l0,0.3c0,0.5,0,5.8,0,5.9
		c0,0.1,0.1,0.1,1.2,0.1l1.2,0l0.1-2.1l2.8,2.8c1.5,1.5,2.8,2.8,2.8,2.8C357.8,134.2,358.2,133.8,358.7,133.4L358.7,133.4z"/>
	<path d="M353.6,135.3l0-3.2h-2.4l0,1.1c0,0.6,0,1.1-0.1,1.1s-1.3-1.3-2.8-2.8l-2.8-2.8l-1.7,1.7l2.8,2.8c1.5,1.5,2.8,2.8,2.8,2.8
		c0,0-0.5,0-1.1,0.1l-1.1,0l0,1.1c0,0.6,0,1.2,0,1.2c0,0.1,0.7,0.1,3.2,0.1h3.2L353.6,135.3z"/>
	<path fill="none" stroke="#000000" stroke-width="0.445" stroke-miterlimit="10" d="M350.2,141.2c-3.3-0.5-6-2.5-7.4-5.4
		c-0.4-0.8-0.6-1.5-0.8-2.4c-0.1-0.6-0.1-0.7-0.1-1.9c0-1.2,0-1.3,0.1-1.9c0.7-3.1,2.5-5.5,5.3-6.9c0.8-0.4,1.5-0.6,2.4-0.8
		c0.6-0.1,0.7-0.1,1.9-0.1c1.2,0,1.3,0,1.9,0.1c3.1,0.7,5.5,2.5,6.9,5.3c0.4,0.8,0.6,1.5,0.8,2.4c0.1,0.6,0.1,0.7,0.1,1.9
		c0,1.2,0,1.3-0.1,1.9c-0.2,0.9-0.4,1.6-0.8,2.4c-1.3,2.7-3.8,4.7-6.8,5.3c-0.6,0.1-0.8,0.1-1.8,0.2
		C351,141.2,350.5,141.2,350.2,141.2L350.2,141.2z"/>
	<path d="M337.4,148.4c-0.9-0.2-1.8-0.9-2.2-1.7c-0.1-0.2-0.2-0.5-0.2-0.5c0-0.1-0.8-0.1-5-0.1h-5v-1.9l9.9,0l0.2-0.5
		c0.3-0.6,0.8-1.1,1.4-1.5c0.2-0.1,0.5-0.2,0.5-0.2c0.1,0,0.1-0.4,0.1-2.3v-2.3l-0.1,0c-0.1,0-0.3,0-0.5,0c-0.4,0-1.9-0.2-2.5-0.3
		c-0.9-0.2-1-0.2-1.7-0.4c-2.8-0.7-5.1-2-6.3-3.5c-0.1-0.2-0.3-0.4-0.3-0.4c-0.1-0.1-0.5-0.6-0.6-1l-0.1-0.3v-3.8c0-2.1,0-3.8,0-3.8
		c0,0,0.1,0.2,0.2,0.5c0.1,0.3,0.2,0.6,0.3,0.6c0,0.1,0.1,0.2,0.1,0.2c0.5,0.8,1.2,1.4,2.4,2.1c0.2,0.1,0.4,0.2,0.4,0.2
		c0,0.1,1.2,0.6,1.8,0.8c0.7,0.3,1.2,0.4,1.9,0.6c0.6,0.2,0.9,0.2,1.9,0.4c1.3,0.2,2.8,0.3,4.4,0.3l1.2,0l0,1.2
		c0,1.3,0.1,1.7,0.3,2.8c0.2,0.9,0.7,2.1,1.2,3.1c0.1,0.1,0.1,0.2,0.1,0.2c0,0-1.5,0.2-1.9,0.2c-0.2,0-0.4,0-0.4,0c0,0,0,1.1,0,2.3
		l0,2.3l0.3,0.1c0.4,0.2,0.7,0.4,1.1,0.8c0.3,0.3,0.4,0.5,0.6,0.8l0.2,0.5l9.9,0v1.9l-9.9,0l-0.1,0.3c-0.2,0.4-0.4,0.7-0.8,1.1
		C339.6,148.3,338.5,148.6,337.4,148.4L337.4,148.4z"/>
	<rect x="334" y="137" fill="#FFFFFF" width="8" height="14"/>
	<rect x="323" y="143" fill="#FFFFFF" width="30" height="5"/>
</g>
<g>
	<path d="M398.8,117.6c-0.1,0-0.5,0-0.9-0.1c-4-0.3-7.6-1.8-9.5-3.7c-3.6-3.8,0.2-8.4,8-9.6c1.4-0.2,2-0.3,3.7-0.3
		c1.7,0,2.3,0,3.7,0.3c5.1,0.8,8.8,3.1,9.3,5.8c0.7,3.2-3.2,6.3-9.1,7.3c-1.2,0.2-2,0.3-3.5,0.3
		C399.7,117.6,398.9,117.6,398.8,117.6L398.8,117.6z"/>
	<path d="M399.1,127.6c-0.1,0-0.6,0-1-0.1c-1.6-0.1-3.5-0.5-5-1c-1.9-0.6-3.5-1.5-4.6-2.6c-0.4-0.4-0.8-1-1-1.3
		c-0.1-0.1-0.2-0.3-0.3-0.5l-0.2-0.4l0-3.8c0-2.1,0-3.8,0-3.8c0,0,0.1,0.1,0.1,0.2c0.5,1.2,1.1,2,2.3,2.8c0.2,0.2,0.5,0.3,0.6,0.4
		s0.2,0.1,0.3,0.2c0.1,0.1,0.4,0.2,0.7,0.4c0.7,0.3,0.8,0.4,1.2,0.5c0.2,0.1,0.4,0.2,0.5,0.2c1.1,0.4,3.3,0.9,5,1
		c0.7,0.1,3.7,0.1,4.4,0c1.7-0.2,3.8-0.6,5-1c0.1,0,0.3-0.1,0.5-0.2c0.4-0.2,0.5-0.2,1.2-0.5c0.3-0.1,0.6-0.3,0.7-0.4
		s0.2-0.1,0.2-0.1c0,0,1.1-0.7,1.3-0.9c0.3-0.3,0.9-0.9,1.1-1.2c0.2-0.3,0.4-0.8,0.6-1.2c0.1-0.1,0.1-0.2,0.1-0.2c0,0,0,1.2,0,2.7
		v2.7l-0.8,0.1c-2.8,0.2-5.2,1.3-7.2,3.3c-1.1,1.1-2.1,2.6-2.6,4.1l-0.2,0.4l-0.4,0C401.3,127.6,399.4,127.6,399.1,127.6
		L399.1,127.6z"/>
	<path d="M420.7,133.4l0.8-0.8l-2.8-2.8c-1.5-1.5-2.8-2.8-2.8-2.8c0,0,0.5,0,1.1,0h1.1v-2.4h-6.3l0,0.3c0,0.5,0,5.8,0,5.9
		c0,0.1,0.1,0.1,1.2,0.1l1.2,0l0.1-2.1l2.8,2.8c1.5,1.5,2.8,2.8,2.8,2.8C419.8,134.2,420.2,133.8,420.7,133.4L420.7,133.4z"/>
	<path d="M415.6,135.3l0-3.2h-2.4l0,1.1c0,0.6,0,1.1-0.1,1.1s-1.3-1.3-2.8-2.8l-2.8-2.8l-1.7,1.7l2.8,2.8c1.5,1.5,2.8,2.8,2.8,2.8
		c0,0-0.5,0-1.1,0.1l-1.1,0l0,1.1c0,0.6,0,1.2,0,1.2c0,0.1,0.7,0.1,3.2,0.1h3.2L415.6,135.3z"/>
	<path fill="none" stroke="#000000" stroke-width="0.445" stroke-miterlimit="10" d="M412.2,141.2c-3.3-0.5-6-2.5-7.4-5.4
		c-0.4-0.8-0.6-1.5-0.8-2.4c-0.1-0.6-0.1-0.7-0.1-1.9c0-1.2,0-1.3,0.1-1.9c0.7-3.1,2.5-5.5,5.3-6.9c0.8-0.4,1.5-0.6,2.4-0.8
		c0.6-0.1,0.7-0.1,1.9-0.1c1.2,0,1.3,0,1.9,0.1c3.1,0.7,5.5,2.5,6.9,5.3c0.4,0.8,0.6,1.5,0.8,2.4c0.1,0.6,0.1,0.7,0.1,1.9
		c0,1.2,0,1.3-0.1,1.9c-0.2,0.9-0.4,1.6-0.8,2.4c-1.3,2.7-3.8,4.7-6.8,5.3c-0.6,0.1-0.8,0.1-1.8,0.2
		C413,141.2,412.5,141.2,412.2,141.2L412.2,141.2z"/>
	<path d="M399.4,148.4c-0.9-0.2-1.8-0.9-2.2-1.7c-0.1-0.2-0.2-0.5-0.2-0.5c0-0.1-0.8-0.1-5-0.1h-5v-1.9l9.9,0l0.2-0.5
		c0.3-0.6,0.8-1.1,1.4-1.5c0.2-0.1,0.5-0.2,0.5-0.2c0.1,0,0.1-0.4,0.1-2.3v-2.3l-0.1,0c-0.1,0-0.3,0-0.5,0c-0.4,0-1.9-0.2-2.5-0.3
		c-0.9-0.2-1-0.2-1.7-0.4c-2.8-0.7-5.1-2-6.3-3.5c-0.1-0.2-0.3-0.4-0.3-0.4c-0.1-0.1-0.5-0.6-0.6-1l-0.1-0.3v-3.8c0-2.1,0-3.8,0-3.8
		c0,0,0.1,0.2,0.2,0.5c0.1,0.3,0.2,0.6,0.3,0.6c0,0.1,0.1,0.2,0.1,0.2c0.5,0.8,1.2,1.4,2.4,2.1c0.2,0.1,0.4,0.2,0.4,0.2
		c0,0.1,1.2,0.6,1.8,0.8c0.7,0.3,1.2,0.4,1.9,0.6c0.6,0.2,0.9,0.2,1.9,0.4c1.3,0.2,2.8,0.3,4.4,0.3l1.2,0l0,1.2
		c0,1.3,0.1,1.7,0.3,2.8c0.2,0.9,0.7,2.1,1.2,3.1c0.1,0.1,0.1,0.2,0.1,0.2c0,0-1.5,0.2-1.9,0.2c-0.2,0-0.4,0-0.4,0c0,0,0,1.1,0,2.3
		l0,2.3l0.3,0.1c0.4,0.2,0.7,0.4,1.1,0.8c0.3,0.3,0.4,0.5,0.6,0.8l0.2,0.5l9.9,0v1.9l-9.9,0l-0.1,0.3c-0.2,0.4-0.4,0.7-0.8,1.1
		C401.6,148.3,400.5,148.6,399.4,148.4L399.4,148.4z"/>
	<rect x="396" y="137" fill="#FFFFFF" width="8" height="14"/>
	<rect x="385" y="143" fill="#FFFFFF" width="30" height="5"/>
</g>
<g>
	<path d="M336.8,178.6c-0.1,0-0.5,0-0.9-0.1c-4-0.3-7.6-1.8-9.5-3.7c-3.6-3.8,0.2-8.4,8-9.6c1.4-0.2,2-0.3,3.7-0.3
		c1.7,0,2.3,0,3.7,0.3c5.1,0.8,8.8,3.1,9.3,5.8c0.7,3.2-3.2,6.3-9.1,7.3c-1.2,0.2-2,0.3-3.5,0.3
		C337.7,178.6,336.9,178.6,336.8,178.6L336.8,178.6z"/>
	<path d="M337.1,188.6c-0.1,0-0.6,0-1-0.1c-1.6-0.1-3.5-0.5-5-1c-1.9-0.6-3.5-1.5-4.6-2.6c-0.4-0.4-0.8-1-1-1.3
		c-0.1-0.1-0.2-0.3-0.3-0.5l-0.2-0.4l0-3.8c0-2.1,0-3.8,0-3.8c0,0,0.1,0.1,0.1,0.2c0.5,1.2,1.1,2,2.3,2.8c0.2,0.2,0.5,0.3,0.6,0.4
		s0.2,0.1,0.3,0.2c0.1,0.1,0.4,0.2,0.7,0.4c0.7,0.3,0.8,0.4,1.2,0.5c0.2,0.1,0.4,0.2,0.5,0.2c1.1,0.4,3.3,0.9,5,1
		c0.7,0.1,3.7,0.1,4.4,0c1.7-0.2,3.8-0.6,5-1c0.1,0,0.3-0.1,0.5-0.2c0.4-0.2,0.5-0.2,1.2-0.5c0.3-0.1,0.6-0.3,0.7-0.4
		s0.2-0.1,0.2-0.1c0,0,1.1-0.7,1.3-0.9c0.3-0.3,0.9-0.9,1.1-1.2c0.2-0.3,0.4-0.8,0.6-1.2c0.1-0.1,0.1-0.2,0.1-0.2c0,0,0,1.2,0,2.7
		v2.7l-0.8,0.1c-2.8,0.2-5.2,1.3-7.2,3.3c-1.1,1.1-2.1,2.6-2.6,4.1l-0.2,0.4l-0.4,0C339.3,188.6,337.4,188.6,337.1,188.6
		L337.1,188.6z"/>
	<path d="M358.7,194.4l0.8-0.8l-2.8-2.8c-1.5-1.5-2.8-2.8-2.8-2.8c0,0,0.5,0,1.1,0h1.1v-2.4h-6.3l0,0.3c0,0.5,0,5.8,0,5.9
		c0,0.1,0.1,0.1,1.2,0.1l1.2,0l0.1-2.1l2.8,2.8c1.5,1.5,2.8,2.8,2.8,2.8C357.8,195.2,358.2,194.8,358.7,194.4L358.7,194.4z"/>
	<path d="M353.6,196.3l0-3.2h-2.4l0,1.1c0,0.6,0,1.1-0.1,1.1s-1.3-1.3-2.8-2.8l-2.8-2.8l-1.7,1.7l2.8,2.8c1.5,1.5,2.8,2.8,2.8,2.8
		c0,0-0.5,0-1.1,0.1l-1.1,0l0,1.1c0,0.6,0,1.2,0,1.2c0,0.1,0.7,0.1,3.2,0.1h3.2L353.6,196.3z"/>
	<path fill="none" stroke="#000000" stroke-width="0.445" stroke-miterlimit="10" d="M350.2,202.2c-3.3-0.5-6-2.5-7.4-5.4
		c-0.4-0.8-0.6-1.5-0.8-2.4c-0.1-0.6-0.1-0.7-0.1-1.9c0-1.2,0-1.3,0.1-1.9c0.7-3.1,2.5-5.5,5.3-6.9c0.8-0.4,1.5-0.6,2.4-0.8
		c0.6-0.1,0.7-0.1,1.9-0.1c1.2,0,1.3,0,1.9,0.1c3.1,0.7,5.5,2.5,6.9,5.3c0.4,0.8,0.6,1.5,0.8,2.4c0.1,0.6,0.1,0.7,0.1,1.9
		c0,1.2,0,1.3-0.1,1.9c-0.2,0.9-0.4,1.6-0.8,2.4c-1.3,2.7-3.8,4.7-6.8,5.3c-0.6,0.1-0.8,0.1-1.8,0.2
		C351,202.2,350.5,202.2,350.2,202.2L350.2,202.2z"/>
	<path d="M337.4,209.4c-0.9-0.2-1.8-0.9-2.2-1.7c-0.1-0.2-0.2-0.5-0.2-0.5c0-0.1-0.8-0.1-5-0.1h-5v-1.9l9.9,0l0.2-0.5
		c0.3-0.6,0.8-1.1,1.4-1.5c0.2-0.1,0.5-0.2,0.5-0.2c0.1,0,0.1-0.4,0.1-2.3v-2.3l-0.1,0c-0.1,0-0.3,0-0.5,0c-0.4,0-1.9-0.2-2.5-0.3
		c-0.9-0.2-1-0.2-1.7-0.4c-2.8-0.7-5.1-2-6.3-3.5c-0.1-0.2-0.3-0.4-0.3-0.4c-0.1-0.1-0.5-0.6-0.6-1l-0.1-0.3v-3.8c0-2.1,0-3.8,0-3.8
		c0,0,0.1,0.2,0.2,0.5c0.1,0.3,0.2,0.6,0.3,0.6c0,0.1,0.1,0.2,0.1,0.2c0.5,0.8,1.2,1.4,2.4,2.1c0.2,0.1,0.4,0.2,0.4,0.2
		c0,0.1,1.2,0.6,1.8,0.8c0.7,0.3,1.2,0.4,1.9,0.6c0.6,0.2,0.9,0.2,1.9,0.4c1.3,0.2,2.8,0.3,4.4,0.3l1.2,0l0,1.2
		c0,1.3,0.1,1.7,0.3,2.8c0.2,0.9,0.7,2.1,1.2,3.1c0.1,0.1,0.1,0.2,0.1,0.2c0,0-1.5,0.2-1.9,0.2c-0.2,0-0.4,0-0.4,0c0,0,0,1.1,0,2.3
		l0,2.3l0.3,0.1c0.4,0.2,0.7,0.4,1.1,0.8c0.3,0.3,0.4,0.5,0.6,0.8l0.2,0.5l9.9,0v1.9l-9.9,0l-0.1,0.3c-0.2,0.4-0.4,0.7-0.8,1.1
		C339.6,209.3,338.5,209.6,337.4,209.4L337.4,209.4z"/>
	<rect x="334" y="198" fill="#FFFFFF" width="8" height="14"/>
	<rect x="323" y="204" fill="#FFFFFF" width="30" height="5"/>
</g>
<g>
	<path d="M398.8,178.6c-0.1,0-0.5,0-0.9-0.1c-4-0.3-7.6-1.8-9.5-3.7c-3.6-3.8,0.2-8.4,8-9.6c1.4-0.2,2-0.3,3.7-0.3
		c1.7,0,2.3,0,3.7,0.3c5.1,0.8,8.8,3.1,9.3,5.8c0.7,3.2-3.2,6.3-9.1,7.3c-1.2,0.2-2,0.3-3.5,0.3
		C399.7,178.6,398.9,178.6,398.8,178.6L398.8,178.6z"/>
	<path d="M399.1,188.6c-0.1,0-0.6,0-1-0.1c-1.6-0.1-3.5-0.5-5-1c-1.9-0.6-3.5-1.5-4.6-2.6c-0.4-0.4-0.8-1-1-1.3
		c-0.1-0.1-0.2-0.3-0.3-0.5l-0.2-0.4l0-3.8c0-2.1,0-3.8,0-3.8c0,0,0.1,0.1,0.1,0.2c0.5,1.2,1.1,2,2.3,2.8c0.2,0.2,0.5,0.3,0.6,0.4
		s0.2,0.1,0.3,0.2c0.1,0.1,0.4,0.2,0.7,0.4c0.7,0.3,0.8,0.4,1.2,0.5c0.2,0.1,0.4,0.2,0.5,0.2c1.1,0.4,3.3,0.9,5,1
		c0.7,0.1,3.7,0.1,4.4,0c1.7-0.2,3.8-0.6,5-1c0.1,0,0.3-0.1,0.5-0.2c0.4-0.2,0.5-0.2,1.2-0.5c0.3-0.1,0.6-0.3,0.7-0.4
		s0.2-0.1,0.2-0.1c0,0,1.1-0.7,1.3-0.9c0.3-0.3,0.9-0.9,1.1-1.2c0.2-0.3,0.4-0.8,0.6-1.2c0.1-0.1,0.1-0.2,0.1-0.2c0,0,0,1.2,0,2.7
		v2.7l-0.8,0.1c-2.8,0.2-5.2,1.3-7.2,3.3c-1.1,1.1-2.1,2.6-2.6,4.1l-0.2,0.4l-0.4,0C401.3,188.6,399.4,188.6,399.1,188.6
		L399.1,188.6z"/>
	<path d="M420.7,194.4l0.8-0.8l-2.8-2.8c-1.5-1.5-2.8-2.8-2.8-2.8c0,0,0.5,0,1.1,0h1.1v-2.4h-6.3l0,0.3c0,0.5,0,5.8,0,5.9
		c0,0.1,0.1,0.1,1.2,0.1l1.2,0l0.1-2.1l2.8,2.8c1.5,1.5,2.8,2.8,2.8,2.8C419.8,195.2,420.2,194.8,420.7,194.4L420.7,194.4z"/>
	<path d="M415.6,196.3l0-3.2h-2.4l0,1.1c0,0.6,0,1.1-0.1,1.1s-1.3-1.3-2.8-2.8l-2.8-2.8l-1.7,1.7l2.8,2.8c1.5,1.5,2.8,2.8,2.8,2.8
		c0,0-0.5,0-1.1,0.1l-1.1,0l0,1.1c0,0.6,0,1.2,0,1.2c0,0.1,0.7,0.1,3.2,0.1h3.2L415.6,196.3z"/>
	<path fill="none" stroke="#000000" stroke-width="0.445" stroke-miterlimit="10" d="M412.2,202.2c-3.3-0.5-6-2.5-7.4-5.4
		c-0.4-0.8-0.6-1.5-0.8-2.4c-0.1-0.6-0.1-0.7-0.1-1.9c0-1.2,0-1.3,0.1-1.9c0.7-3.1,2.5-5.5,5.3-6.9c0.8-0.4,1.5-0.6,2.4-0.8
		c0.6-0.1,0.7-0.1,1.9-0.1c1.2,0,1.3,0,1.9,0.1c3.1,0.7,5.5,2.5,6.9,5.3c0.4,0.8,0.6,1.5,0.8,2.4c0.1,0.6,0.1,0.7,0.1,1.9
		c0,1.2,0,1.3-0.1,1.9c-0.2,0.9-0.4,1.6-0.8,2.4c-1.3,2.7-3.8,4.7-6.8,5.3c-0.6,0.1-0.8,0.1-1.8,0.2
		C413,202.2,412.5,202.2,412.2,202.2L412.2,202.2z"/>
	<path d="M399.4,209.4c-0.9-0.2-1.8-0.9-2.2-1.7c-0.1-0.2-0.2-0.5-0.2-0.5c0-0.1-0.8-0.1-5-0.1h-5v-1.9l9.9,0l0.2-0.5
		c0.3-0.6,0.8-1.1,1.4-1.5c0.2-0.1,0.5-0.2,0.5-0.2c0.1,0,0.1-0.4,0.1-2.3v-2.3l-0.1,0c-0.1,0-0.3,0-0.5,0c-0.4,0-1.9-0.2-2.5-0.3
		c-0.9-0.2-1-0.2-1.7-0.4c-2.8-0.7-5.1-2-6.3-3.5c-0.1-0.2-0.3-0.4-0.3-0.4c-0.1-0.1-0.5-0.6-0.6-1l-0.1-0.3v-3.8c0-2.1,0-3.8,0-3.8
		c0,0,0.1,0.2,0.2,0.5c0.1,0.3,0.2,0.6,0.3,0.6c0,0.1,0.1,0.2,0.1,0.2c0.5,0.8,1.2,1.4,2.4,2.1c0.2,0.1,0.4,0.2,0.4,0.2
		c0,0.1,1.2,0.6,1.8,0.8c0.7,0.3,1.2,0.4,1.9,0.6c0.6,0.2,0.9,0.2,1.9,0.4c1.3,0.2,2.8,0.3,4.4,0.3l1.2,0l0,1.2
		c0,1.3,0.1,1.7,0.3,2.8c0.2,0.9,0.7,2.1,1.2,3.1c0.1,0.1,0.1,0.2,0.1,0.2c0,0-1.5,0.2-1.9,0.2c-0.2,0-0.4,0-0.4,0c0,0,0,1.1,0,2.3
		l0,2.3l0.3,0.1c0.4,0.2,0.7,0.4,1.1,0.8c0.3,0.3,0.4,0.5,0.6,0.8l0.2,0.5l9.9,0v1.9l-9.9,0l-0.1,0.3c-0.2,0.4-0.4,0.7-0.8,1.1
		C401.6,209.3,400.5,209.6,399.4,209.4L399.4,209.4z"/>
	<rect x="396" y="198" fill="#FFFFFF" width="8" height="14"/>
	<rect x="385" y="204" fill="#FFFFFF" width="30" height="5"/>
</g>
<g>
	<path d="M336.8,234.6c-0.1,0-0.5,0-0.9-0.1c-4-0.3-7.6-1.8-9.5-3.7c-3.6-3.8,0.2-8.4,8-9.6c1.4-0.2,2-0.3,3.7-0.3
		c1.7,0,2.3,0,3.7,0.3c5.1,0.8,8.8,3.1,9.3,5.8c0.7,3.2-3.2,6.3-9.1,7.3c-1.2,0.2-2,0.3-3.5,0.3
		C337.7,234.6,336.9,234.6,336.8,234.6L336.8,234.6z"/>
	<path d="M337.1,244.6c-0.1,0-0.6,0-1-0.1c-1.6-0.1-3.5-0.5-5-1c-1.9-0.6-3.5-1.5-4.6-2.6c-0.4-0.4-0.8-1-1-1.3
		c-0.1-0.1-0.2-0.3-0.3-0.5l-0.2-0.4l0-3.8c0-2.1,0-3.8,0-3.8c0,0,0.1,0.1,0.1,0.2c0.5,1.2,1.1,2,2.3,2.8c0.2,0.2,0.5,0.3,0.6,0.4
		s0.2,0.1,0.3,0.2c0.1,0.1,0.4,0.2,0.7,0.4c0.7,0.3,0.8,0.4,1.2,0.5c0.2,0.1,0.4,0.2,0.5,0.2c1.1,0.4,3.3,0.9,5,1
		c0.7,0.1,3.7,0.1,4.4,0c1.7-0.2,3.8-0.6,5-1c0.1,0,0.3-0.1,0.5-0.2c0.4-0.2,0.5-0.2,1.2-0.5c0.3-0.1,0.6-0.3,0.7-0.4
		s0.2-0.1,0.2-0.1c0,0,1.1-0.7,1.3-0.9c0.3-0.3,0.9-0.9,1.1-1.2c0.2-0.3,0.4-0.8,0.6-1.2c0.1-0.1,0.1-0.2,0.1-0.2c0,0,0,1.2,0,2.7
		v2.7l-0.8,0.1c-2.8,0.2-5.2,1.3-7.2,3.3c-1.1,1.1-2.1,2.6-2.6,4.1l-0.2,0.4l-0.4,0C339.3,244.6,337.4,244.6,337.1,244.6
		L337.1,244.6z"/>
	<path d="M358.7,250.4l0.8-0.8l-2.8-2.8c-1.5-1.5-2.8-2.8-2.8-2.8c0,0,0.5,0,1.1,0h1.1v-2.4h-6.3l0,0.3c0,0.5,0,5.8,0,5.9
		c0,0.1,0.1,0.1,1.2,0.1l1.2,0l0.1-2.1l2.8,2.8c1.5,1.5,2.8,2.8,2.8,2.8C357.8,251.2,358.2,250.8,358.7,250.4L358.7,250.4z"/>
	<path d="M353.6,252.3l0-3.2h-2.4l0,1.1c0,0.6,0,1.1-0.1,1.1s-1.3-1.3-2.8-2.8l-2.8-2.8l-1.7,1.7l2.8,2.8c1.5,1.5,2.8,2.8,2.8,2.8
		c0,0-0.5,0-1.1,0.1l-1.1,0l0,1.1c0,0.6,0,1.2,0,1.2c0,0.1,0.7,0.1,3.2,0.1h3.2L353.6,252.3z"/>
	<path fill="none" stroke="#000000" stroke-width="0.445" stroke-miterlimit="10" d="M350.2,258.2c-3.3-0.5-6-2.5-7.4-5.4
		c-0.4-0.8-0.6-1.5-0.8-2.4c-0.1-0.6-0.1-0.7-0.1-1.9c0-1.2,0-1.3,0.1-1.9c0.7-3.1,2.5-5.5,5.3-6.9c0.8-0.4,1.5-0.6,2.4-0.8
		c0.6-0.1,0.7-0.1,1.9-0.1c1.2,0,1.3,0,1.9,0.1c3.1,0.7,5.5,2.5,6.9,5.3c0.4,0.8,0.6,1.5,0.8,2.4c0.1,0.6,0.1,0.7,0.1,1.9
		c0,1.2,0,1.3-0.1,1.9c-0.2,0.9-0.4,1.6-0.8,2.4c-1.3,2.7-3.8,4.7-6.8,5.3c-0.6,0.1-0.8,0.1-1.8,0.2
		C351,258.2,350.5,258.2,350.2,258.2L350.2,258.2z"/>
	<path d="M337.4,265.4c-0.9-0.2-1.8-0.9-2.2-1.7c-0.1-0.2-0.2-0.5-0.2-0.5c0-0.1-0.8-0.1-5-0.1h-5v-1.9l9.9,0l0.2-0.5
		c0.3-0.6,0.8-1.1,1.4-1.5c0.2-0.1,0.5-0.2,0.5-0.2c0.1,0,0.1-0.4,0.1-2.3v-2.3l-0.1,0c-0.1,0-0.3,0-0.5,0c-0.4,0-1.9-0.2-2.5-0.3
		c-0.9-0.2-1-0.2-1.7-0.4c-2.8-0.7-5.1-2-6.3-3.5c-0.1-0.2-0.3-0.4-0.3-0.4c-0.1-0.1-0.5-0.6-0.6-1l-0.1-0.3v-3.8c0-2.1,0-3.8,0-3.8
		c0,0,0.1,0.2,0.2,0.5c0.1,0.3,0.2,0.6,0.3,0.6c0,0.1,0.1,0.2,0.1,0.2c0.5,0.8,1.2,1.4,2.4,2.1c0.2,0.1,0.4,0.2,0.4,0.2
		c0,0.1,1.2,0.6,1.8,0.8c0.7,0.3,1.2,0.4,1.9,0.6c0.6,0.2,0.9,0.2,1.9,0.4c1.3,0.2,2.8,0.3,4.4,0.3l1.2,0l0,1.2
		c0,1.3,0.1,1.7,0.3,2.8c0.2,0.9,0.7,2.1,1.2,3.1c0.1,0.1,0.1,0.2,0.1,0.2c0,0-1.5,0.2-1.9,0.2c-0.2,0-0.4,0-0.4,0c0,0,0,1.1,0,2.3
		l0,2.3l0.3,0.1c0.4,0.2,0.7,0.4,1.1,0.8c0.3,0.3,0.4,0.5,0.6,0.8l0.2,0.5l9.9,0v1.9l-9.9,0l-0.1,0.3c-0.2,0.4-0.4,0.7-0.8,1.1
		C339.6,265.3,338.5,265.6,337.4,265.4L337.4,265.4z"/>
	<rect x="334" y="254" fill="#FFFFFF" width="8" height="14"/>
	<rect x="323" y="260" fill="#FFFFFF" width="30" height="5"/>
</g>
<g>
	<path d="M398.8,234.6c-0.1,0-0.5,0-0.9-0.1c-4-0.3-7.6-1.8-9.5-3.7c-3.6-3.8,0.2-8.4,8-9.6c1.4-0.2,2-0.3,3.7-0.3
		c1.7,0,2.3,0,3.7,0.3c5.1,0.8,8.8,3.1,9.3,5.8c0.7,3.2-3.2,6.3-9.1,7.3c-1.2,0.2-2,0.3-3.5,0.3
		C399.7,234.6,398.9,234.6,398.8,234.6L398.8,234.6z"/>
	<path d="M399.1,244.6c-0.1,0-0.6,0-1-0.1c-1.6-0.1-3.5-0.5-5-1c-1.9-0.6-3.5-1.5-4.6-2.6c-0.4-0.4-0.8-1-1-1.3
		c-0.1-0.1-0.2-0.3-0.3-0.5l-0.2-0.4l0-3.8c0-2.1,0-3.8,0-3.8c0,0,0.1,0.1,0.1,0.2c0.5,1.2,1.1,2,2.3,2.8c0.2,0.2,0.5,0.3,0.6,0.4
		s0.2,0.1,0.3,0.2c0.1,0.1,0.4,0.2,0.7,0.4c0.7,0.3,0.8,0.4,1.2,0.5c0.2,0.1,0.4,0.2,0.5,0.2c1.1,0.4,3.3,0.9,5,1
		c0.7,0.1,3.7,0.1,4.4,0c1.7-0.2,3.8-0.6,5-1c0.1,0,0.3-0.1,0.5-0.2c0.4-0.2,0.5-0.2,1.2-0.5c0.3-0.1,0.6-0.3,0.7-0.4
		s0.2-0.1,0.2-0.1c0,0,1.1-0.7,1.3-0.9c0.3-0.3,0.9-0.9,1.1-1.2c0.2-0.3,0.4-0.8,0.6-1.2c0.1-0.1,0.1-0.2,0.1-0.2c0,0,0,1.2,0,2.7
		v2.7l-0.8,0.1c-2.8,0.2-5.2,1.3-7.2,3.3c-1.1,1.1-2.1,2.6-2.6,4.1l-0.2,0.4l-0.4,0C401.3,244.6,399.4,244.6,399.1,244.6
		L399.1,244.6z"/>
	<path d="M420.7,250.4l0.8-0.8l-2.8-2.8c-1.5-1.5-2.8-2.8-2.8-2.8c0,0,0.5,0,1.1,0h1.1v-2.4h-6.3l0,0.3c0,0.5,0,5.8,0,5.9
		c0,0.1,0.1,0.1,1.2,0.1l1.2,0l0.1-2.1l2.8,2.8c1.5,1.5,2.8,2.8,2.8,2.8C419.8,251.2,420.2,250.8,420.7,250.4L420.7,250.4z"/>
	<path d="M415.6,252.3l0-3.2h-2.4l0,1.1c0,0.6,0,1.1-0.1,1.1s-1.3-1.3-2.8-2.8l-2.8-2.8l-1.7,1.7l2.8,2.8c1.5,1.5,2.8,2.8,2.8,2.8
		c0,0-0.5,0-1.1,0.1l-1.1,0l0,1.1c0,0.6,0,1.2,0,1.2c0,0.1,0.7,0.1,3.2,0.1h3.2L415.6,252.3z"/>
	<path fill="none" stroke="#000000" stroke-width="0.445" stroke-miterlimit="10" d="M412.2,258.2c-3.3-0.5-6-2.5-7.4-5.4
		c-0.4-0.8-0.6-1.5-0.8-2.4c-0.1-0.6-0.1-0.7-0.1-1.9c0-1.2,0-1.3,0.1-1.9c0.7-3.1,2.5-5.5,5.3-6.9c0.8-0.4,1.5-0.6,2.4-0.8
		c0.6-0.1,0.7-0.1,1.9-0.1c1.2,0,1.3,0,1.9,0.1c3.1,0.7,5.5,2.5,6.9,5.3c0.4,0.8,0.6,1.5,0.8,2.4c0.1,0.6,0.1,0.7,0.1,1.9
		c0,1.2,0,1.3-0.1,1.9c-0.2,0.9-0.4,1.6-0.8,2.4c-1.3,2.7-3.8,4.7-6.8,5.3c-0.6,0.1-0.8,0.1-1.8,0.2
		C413,258.2,412.5,258.2,412.2,258.2L412.2,258.2z"/>
	<path d="M399.4,265.4c-0.9-0.2-1.8-0.9-2.2-1.7c-0.1-0.2-0.2-0.5-0.2-0.5c0-0.1-0.8-0.1-5-0.1h-5v-1.9l9.9,0l0.2-0.5
		c0.3-0.6,0.8-1.1,1.4-1.5c0.2-0.1,0.5-0.2,0.5-0.2c0.1,0,0.1-0.4,0.1-2.3v-2.3l-0.1,0c-0.1,0-0.3,0-0.5,0c-0.4,0-1.9-0.2-2.5-0.3
		c-0.9-0.2-1-0.2-1.7-0.4c-2.8-0.7-5.1-2-6.3-3.5c-0.1-0.2-0.3-0.4-0.3-0.4c-0.1-0.1-0.5-0.6-0.6-1l-0.1-0.3v-3.8c0-2.1,0-3.8,0-3.8
		c0,0,0.1,0.2,0.2,0.5c0.1,0.3,0.2,0.6,0.3,0.6c0,0.1,0.1,0.2,0.1,0.2c0.5,0.8,1.2,1.4,2.4,2.1c0.2,0.1,0.4,0.2,0.4,0.2
		c0,0.1,1.2,0.6,1.8,0.8c0.7,0.3,1.2,0.4,1.9,0.6c0.6,0.2,0.9,0.2,1.9,0.4c1.3,0.2,2.8,0.3,4.4,0.3l1.2,0l0,1.2
		c0,1.3,0.1,1.7,0.3,2.8c0.2,0.9,0.7,2.1,1.2,3.1c0.1,0.1,0.1,0.2,0.1,0.2c0,0-1.5,0.2-1.9,0.2c-0.2,0-0.4,0-0.4,0c0,0,0,1.1,0,2.3
		l0,2.3l0.3,0.1c0.4,0.2,0.7,0.4,1.1,0.8c0.3,0.3,0.4,0.5,0.6,0.8l0.2,0.5l9.9,0v1.9l-9.9,0l-0.1,0.3c-0.2,0.4-0.4,0.7-0.8,1.1
		C401.6,265.3,400.5,265.6,399.4,265.4L399.4,265.4z"/>
	<rect x="396" y="254" fill="#FFFFFF" width="8" height="14"/>
	<rect x="385" y="260" fill="#FFFFFF" width="30" height="5"/>
</g>
<g>
	<path d="M466.8,59.6c-0.1,0-0.5,0-0.9-0.1c-4-0.3-7.6-1.8-9.5-3.7c-3.6-3.8,0.2-8.4,8-9.6c1.4-0.2,2-0.3,3.7-0.3
		c1.7,0,2.3,0,3.7,0.3c5.1,0.8,8.8,3.1,9.3,5.8c0.7,3.2-3.2,6.3-9.1,7.3c-1.2,0.2-2,0.3-3.5,0.3C467.7,59.6,466.9,59.6,466.8,59.6
		L466.8,59.6z"/>
	<path d="M467.1,69.6c-0.1,0-0.6,0-1-0.1c-1.6-0.1-3.5-0.5-5-1c-1.9-0.6-3.5-1.5-4.6-2.6c-0.4-0.4-0.8-1-1-1.3
		c-0.1-0.1-0.2-0.3-0.3-0.5l-0.2-0.4l0-3.8c0-2.1,0-3.8,0-3.8c0,0,0.1,0.1,0.1,0.2c0.5,1.2,1.1,2,2.3,2.8c0.2,0.2,0.5,0.3,0.6,0.4
		c0.1,0,0.2,0.1,0.3,0.2c0.1,0.1,0.4,0.2,0.7,0.4c0.7,0.3,0.8,0.4,1.2,0.5c0.2,0.1,0.4,0.2,0.5,0.2c1.1,0.4,3.3,0.9,5,1
		c0.7,0.1,3.7,0.1,4.4,0c1.7-0.2,3.8-0.6,5-1c0.1,0,0.3-0.1,0.5-0.2c0.4-0.2,0.5-0.2,1.2-0.5c0.3-0.1,0.6-0.3,0.7-0.4
		s0.2-0.1,0.2-0.1c0,0,1.1-0.7,1.3-0.9c0.3-0.3,0.9-0.9,1.1-1.2c0.2-0.3,0.4-0.8,0.6-1.2c0.1-0.1,0.1-0.2,0.1-0.2c0,0,0,1.2,0,2.7
		v2.7l-0.8,0.1c-2.8,0.2-5.2,1.3-7.2,3.3c-1.1,1.1-2.1,2.6-2.6,4.1l-0.2,0.4l-0.4,0C469.3,69.6,467.4,69.6,467.1,69.6L467.1,69.6z"
		/>
	<path d="M488.7,75.4l0.8-0.8l-2.8-2.8c-1.5-1.5-2.8-2.8-2.8-2.8c0,0,0.5,0,1.1,0h1.1v-2.4h-6.3l0,0.3c0,0.5,0,5.8,0,5.9
		c0,0.1,0.1,0.1,1.2,0.1l1.2,0l0.1-2.1l2.8,2.8c1.5,1.5,2.8,2.8,2.8,2.8C487.8,76.2,488.2,75.8,488.7,75.4L488.7,75.4z"/>
	<path d="M483.6,77.3l0-3.2h-2.4l0,1.1c0,0.6,0,1.1-0.1,1.1s-1.3-1.3-2.8-2.8l-2.8-2.8l-1.7,1.7l2.8,2.8c1.5,1.5,2.8,2.8,2.8,2.8
		c0,0-0.5,0-1.1,0.1l-1.1,0l0,1.1c0,0.6,0,1.2,0,1.2c0,0.1,0.7,0.1,3.2,0.1h3.2L483.6,77.3z"/>
	<path fill="none" stroke="#000000" stroke-width="0.445" stroke-miterlimit="10" d="M480.2,83.2c-3.3-0.5-6-2.5-7.4-5.4
		c-0.4-0.8-0.6-1.5-0.8-2.4c-0.1-0.6-0.1-0.7-0.1-1.9c0-1.2,0-1.3,0.1-1.9c0.7-3.1,2.5-5.5,5.3-6.9c0.8-0.4,1.5-0.6,2.4-0.8
		c0.6-0.1,0.7-0.1,1.9-0.1c1.2,0,1.3,0,1.9,0.1c3.1,0.7,5.5,2.5,6.9,5.3c0.4,0.8,0.6,1.5,0.8,2.4c0.1,0.6,0.1,0.7,0.1,1.9
		c0,1.2,0,1.3-0.1,1.9c-0.2,0.9-0.4,1.6-0.8,2.4c-1.3,2.7-3.8,4.7-6.8,5.3c-0.6,0.1-0.8,0.1-1.8,0.2C481,83.2,480.5,83.2,480.2,83.2
		L480.2,83.2z"/>
	<path d="M467.4,90.4c-0.9-0.2-1.8-0.9-2.2-1.7c-0.1-0.2-0.2-0.5-0.2-0.5c0-0.1-0.8-0.1-5-0.1h-5v-1.9l9.9,0l0.2-0.5
		c0.3-0.6,0.8-1.1,1.4-1.5c0.2-0.1,0.5-0.2,0.5-0.2c0.1,0,0.1-0.4,0.1-2.3v-2.3l-0.1,0c-0.1,0-0.3,0-0.5,0c-0.4,0-1.9-0.2-2.5-0.3
		c-0.9-0.2-1-0.2-1.7-0.4c-2.8-0.7-5.1-2-6.3-3.5c-0.1-0.2-0.3-0.4-0.3-0.4c-0.1-0.1-0.5-0.6-0.6-1l-0.1-0.3v-3.8c0-2.1,0-3.8,0-3.8
		c0,0,0.1,0.2,0.2,0.5c0.1,0.3,0.2,0.6,0.3,0.6c0,0.1,0.1,0.2,0.1,0.2c0.5,0.8,1.2,1.4,2.4,2.1c0.2,0.1,0.4,0.2,0.4,0.2
		c0,0.1,1.2,0.6,1.8,0.8c0.7,0.3,1.2,0.4,1.9,0.6c0.6,0.2,0.9,0.2,1.9,0.4c1.3,0.2,2.8,0.3,4.4,0.3l1.2,0l0,1.2
		c0,1.3,0.1,1.7,0.3,2.8c0.2,0.9,0.7,2.1,1.2,3.1c0.1,0.1,0.1,0.2,0.1,0.2c0,0-1.5,0.2-1.9,0.2c-0.2,0-0.4,0-0.4,0c0,0,0,1.1,0,2.3
		l0,2.3l0.3,0.1c0.4,0.2,0.7,0.4,1.1,0.8c0.3,0.3,0.4,0.5,0.6,0.8l0.2,0.5l9.9,0v1.9l-9.9,0l-0.1,0.3c-0.2,0.4-0.4,0.7-0.8,1.1
		C469.6,90.3,468.5,90.6,467.4,90.4L467.4,90.4z"/>
	<rect x="464" y="79" fill="#FFFFFF" width="8" height="14"/>
	<rect x="453" y="85" fill="#FFFFFF" width="30" height="5"/>
</g>
<g>
	<path d="M528.8,59.6c-0.1,0-0.5,0-0.9-0.1c-4-0.3-7.6-1.8-9.5-3.7c-3.6-3.8,0.2-8.4,8-9.6c1.4-0.2,2-0.3,3.7-0.3
		c1.7,0,2.3,0,3.7,0.3c5.1,0.8,8.8,3.1,9.3,5.8c0.7,3.2-3.2,6.3-9.1,7.3c-1.2,0.2-2,0.3-3.5,0.3C529.7,59.6,528.9,59.6,528.8,59.6
		L528.8,59.6z"/>
	<path d="M529.1,69.6c-0.1,0-0.6,0-1-0.1c-1.6-0.1-3.5-0.5-5-1c-1.9-0.6-3.5-1.5-4.6-2.6c-0.4-0.4-0.8-1-1-1.3
		c-0.1-0.1-0.2-0.3-0.3-0.5l-0.2-0.4l0-3.8c0-2.1,0-3.8,0-3.8c0,0,0.1,0.1,0.1,0.2c0.5,1.2,1.1,2,2.3,2.8c0.2,0.2,0.5,0.3,0.6,0.4
		c0.1,0,0.2,0.1,0.3,0.2c0.1,0.1,0.4,0.2,0.7,0.4c0.7,0.3,0.8,0.4,1.2,0.5c0.2,0.1,0.4,0.2,0.5,0.2c1.1,0.4,3.3,0.9,5,1
		c0.7,0.1,3.7,0.1,4.4,0c1.7-0.2,3.8-0.6,5-1c0.1,0,0.3-0.1,0.5-0.2c0.4-0.2,0.5-0.2,1.2-0.5c0.3-0.1,0.6-0.3,0.7-0.4
		c0.1-0.1,0.2-0.1,0.2-0.1c0,0,1.1-0.7,1.3-0.9c0.3-0.3,0.9-0.9,1.1-1.2c0.2-0.3,0.4-0.8,0.6-1.2c0.1-0.1,0.1-0.2,0.1-0.2
		c0,0,0,1.2,0,2.7v2.7l-0.8,0.1c-2.8,0.2-5.2,1.3-7.2,3.3c-1.1,1.1-2.1,2.6-2.6,4.1l-0.2,0.4l-0.4,0
		C531.3,69.6,529.4,69.6,529.1,69.6L529.1,69.6z"/>
	<path d="M550.7,75.4l0.8-0.8l-2.8-2.8c-1.5-1.5-2.8-2.8-2.8-2.8c0,0,0.5,0,1.1,0h1.1v-2.4h-6.3l0,0.3c0,0.5,0,5.8,0,5.9
		c0,0.1,0.1,0.1,1.2,0.1l1.2,0l0.1-2.1l2.8,2.8c1.5,1.5,2.8,2.8,2.8,2.8C549.8,76.2,550.2,75.8,550.7,75.4L550.7,75.4z"/>
	<path d="M545.6,77.3l0-3.2h-2.4l0,1.1c0,0.6,0,1.1-0.1,1.1c0,0-1.3-1.3-2.8-2.8l-2.8-2.8l-1.7,1.7l2.8,2.8c1.5,1.5,2.8,2.8,2.8,2.8
		c0,0-0.5,0-1.1,0.1l-1.1,0l0,1.1c0,0.6,0,1.2,0,1.2c0,0.1,0.7,0.1,3.2,0.1h3.2L545.6,77.3z"/>
	<path fill="none" stroke="#000000" stroke-width="0.445" stroke-miterlimit="10" d="M542.2,83.2c-3.3-0.5-6-2.5-7.4-5.4
		c-0.4-0.8-0.6-1.5-0.8-2.4c-0.1-0.6-0.1-0.7-0.1-1.9c0-1.2,0-1.3,0.1-1.9c0.7-3.1,2.5-5.5,5.3-6.9c0.8-0.4,1.5-0.6,2.4-0.8
		c0.6-0.1,0.7-0.1,1.9-0.1c1.2,0,1.3,0,1.9,0.1c3.1,0.7,5.5,2.5,6.9,5.3c0.4,0.8,0.6,1.5,0.8,2.4c0.1,0.6,0.1,0.7,0.1,1.9
		c0,1.2,0,1.3-0.1,1.9c-0.2,0.9-0.4,1.6-0.8,2.4c-1.3,2.7-3.8,4.7-6.8,5.3c-0.6,0.1-0.8,0.1-1.8,0.2C543,83.2,542.5,83.2,542.2,83.2
		L542.2,83.2z"/>
	<path d="M529.4,90.4c-0.9-0.2-1.8-0.9-2.2-1.7c-0.1-0.2-0.2-0.5-0.2-0.5c0-0.1-0.8-0.1-5-0.1h-5v-1.9l9.9,0l0.2-0.5
		c0.3-0.6,0.8-1.1,1.4-1.5c0.2-0.1,0.5-0.2,0.5-0.2c0.1,0,0.1-0.4,0.1-2.3v-2.3l-0.1,0c-0.1,0-0.3,0-0.5,0c-0.4,0-1.9-0.2-2.5-0.3
		c-0.9-0.2-1-0.2-1.7-0.4c-2.8-0.7-5.1-2-6.3-3.5c-0.1-0.2-0.3-0.4-0.3-0.4c-0.1-0.1-0.5-0.6-0.6-1l-0.1-0.3v-3.8c0-2.1,0-3.8,0-3.8
		s0.1,0.2,0.2,0.5c0.1,0.3,0.2,0.6,0.3,0.6c0,0.1,0.1,0.2,0.1,0.2c0.5,0.8,1.2,1.4,2.4,2.1c0.2,0.1,0.4,0.2,0.4,0.2
		c0,0.1,1.2,0.6,1.8,0.8c0.7,0.3,1.2,0.4,1.9,0.6c0.6,0.2,0.9,0.2,1.9,0.4c1.3,0.2,2.8,0.3,4.4,0.3l1.2,0l0,1.2
		c0,1.3,0.1,1.7,0.3,2.8c0.2,0.9,0.7,2.1,1.2,3.1c0.1,0.1,0.1,0.2,0.1,0.2c0,0-1.5,0.2-1.9,0.2c-0.2,0-0.4,0-0.4,0c0,0,0,1.1,0,2.3
		l0,2.3l0.3,0.1c0.4,0.2,0.7,0.4,1.1,0.8c0.3,0.3,0.4,0.5,0.6,0.8l0.2,0.5l9.9,0v1.9l-9.9,0l-0.1,0.3c-0.2,0.4-0.4,0.7-0.8,1.1
		C531.6,90.3,530.5,90.6,529.4,90.4L529.4,90.4z"/>
	<rect x="526" y="79" fill="#FFFFFF" width="8" height="14"/>
	<rect x="515" y="85" fill="#FFFFFF" width="30" height="5"/>
</g>
<g>
	<path d="M466.8,117.6c-0.1,0-0.5,0-0.9-0.1c-4-0.3-7.6-1.8-9.5-3.7c-3.6-3.8,0.2-8.4,8-9.6c1.4-0.2,2-0.3,3.7-0.3
		c1.7,0,2.3,0,3.7,0.3c5.1,0.8,8.8,3.1,9.3,5.8c0.7,3.2-3.2,6.3-9.1,7.3c-1.2,0.2-2,0.3-3.5,0.3
		C467.7,117.6,466.9,117.6,466.8,117.6L466.8,117.6z"/>
	<path d="M467.1,127.6c-0.1,0-0.6,0-1-0.1c-1.6-0.1-3.5-0.5-5-1c-1.9-0.6-3.5-1.5-4.6-2.6c-0.4-0.4-0.8-1-1-1.3
		c-0.1-0.1-0.2-0.3-0.3-0.5l-0.2-0.4l0-3.8c0-2.1,0-3.8,0-3.8c0,0,0.1,0.1,0.1,0.2c0.5,1.2,1.1,2,2.3,2.8c0.2,0.2,0.5,0.3,0.6,0.4
		s0.2,0.1,0.3,0.2c0.1,0.1,0.4,0.2,0.7,0.4c0.7,0.3,0.8,0.4,1.2,0.5c0.2,0.1,0.4,0.2,0.5,0.2c1.1,0.4,3.3,0.9,5,1
		c0.7,0.1,3.7,0.1,4.4,0c1.7-0.2,3.8-0.6,5-1c0.1,0,0.3-0.1,0.5-0.2c0.4-0.2,0.5-0.2,1.2-0.5c0.3-0.1,0.6-0.3,0.7-0.4
		s0.2-0.1,0.2-0.1c0,0,1.1-0.7,1.3-0.9c0.3-0.3,0.9-0.9,1.1-1.2c0.2-0.3,0.4-0.8,0.6-1.2c0.1-0.1,0.1-0.2,0.1-0.2c0,0,0,1.2,0,2.7
		v2.7l-0.8,0.1c-2.8,0.2-5.2,1.3-7.2,3.3c-1.1,1.1-2.1,2.6-2.6,4.1l-0.2,0.4l-0.4,0C469.3,127.6,467.4,127.6,467.1,127.6
		L467.1,127.6z"/>
	<path d="M488.7,133.4l0.8-0.8l-2.8-2.8c-1.5-1.5-2.8-2.8-2.8-2.8c0,0,0.5,0,1.1,0h1.1v-2.4h-6.3l0,0.3c0,0.5,0,5.8,0,5.9
		c0,0.1,0.1,0.1,1.2,0.1l1.2,0l0.1-2.1l2.8,2.8c1.5,1.5,2.8,2.8,2.8,2.8C487.8,134.2,488.2,133.8,488.7,133.4L488.7,133.4z"/>
	<path d="M483.6,135.3l0-3.2h-2.4l0,1.1c0,0.6,0,1.1-0.1,1.1s-1.3-1.3-2.8-2.8l-2.8-2.8l-1.7,1.7l2.8,2.8c1.5,1.5,2.8,2.8,2.8,2.8
		c0,0-0.5,0-1.1,0.1l-1.1,0l0,1.1c0,0.6,0,1.2,0,1.2c0,0.1,0.7,0.1,3.2,0.1h3.2L483.6,135.3z"/>
	<path fill="none" stroke="#000000" stroke-width="0.445" stroke-miterlimit="10" d="M480.2,141.2c-3.3-0.5-6-2.5-7.4-5.4
		c-0.4-0.8-0.6-1.5-0.8-2.4c-0.1-0.6-0.1-0.7-0.1-1.9c0-1.2,0-1.3,0.1-1.9c0.7-3.1,2.5-5.5,5.3-6.9c0.8-0.4,1.5-0.6,2.4-0.8
		c0.6-0.1,0.7-0.1,1.9-0.1c1.2,0,1.3,0,1.9,0.1c3.1,0.7,5.5,2.5,6.9,5.3c0.4,0.8,0.6,1.5,0.8,2.4c0.1,0.6,0.1,0.7,0.1,1.9
		c0,1.2,0,1.3-0.1,1.9c-0.2,0.9-0.4,1.6-0.8,2.4c-1.3,2.7-3.8,4.7-6.8,5.3c-0.6,0.1-0.8,0.1-1.8,0.2
		C481,141.2,480.5,141.2,480.2,141.2L480.2,141.2z"/>
	<path d="M467.4,148.4c-0.9-0.2-1.8-0.9-2.2-1.7c-0.1-0.2-0.2-0.5-0.2-0.5c0-0.1-0.8-0.1-5-0.1h-5v-1.9l9.9,0l0.2-0.5
		c0.3-0.6,0.8-1.1,1.4-1.5c0.2-0.1,0.5-0.2,0.5-0.2c0.1,0,0.1-0.4,0.1-2.3v-2.3l-0.1,0c-0.1,0-0.3,0-0.5,0c-0.4,0-1.9-0.2-2.5-0.3
		c-0.9-0.2-1-0.2-1.7-0.4c-2.8-0.7-5.1-2-6.3-3.5c-0.1-0.2-0.3-0.4-0.3-0.4c-0.1-0.1-0.5-0.6-0.6-1l-0.1-0.3v-3.8c0-2.1,0-3.8,0-3.8
		c0,0,0.1,0.2,0.2,0.5c0.1,0.3,0.2,0.6,0.3,0.6c0,0.1,0.1,0.2,0.1,0.2c0.5,0.8,1.2,1.4,2.4,2.1c0.2,0.1,0.4,0.2,0.4,0.2
		c0,0.1,1.2,0.6,1.8,0.8c0.7,0.3,1.2,0.4,1.9,0.6c0.6,0.2,0.9,0.2,1.9,0.4c1.3,0.2,2.8,0.3,4.4,0.3l1.2,0l0,1.2
		c0,1.3,0.1,1.7,0.3,2.8c0.2,0.9,0.7,2.1,1.2,3.1c0.1,0.1,0.1,0.2,0.1,0.2c0,0-1.5,0.2-1.9,0.2c-0.2,0-0.4,0-0.4,0c0,0,0,1.1,0,2.3
		l0,2.3l0.3,0.1c0.4,0.2,0.7,0.4,1.1,0.8c0.3,0.3,0.4,0.5,0.6,0.8l0.2,0.5l9.9,0v1.9l-9.9,0l-0.1,0.3c-0.2,0.4-0.4,0.7-0.8,1.1
		C469.6,148.3,468.5,148.6,467.4,148.4L467.4,148.4z"/>
	<rect x="464" y="137" fill="#FFFFFF" width="8" height="14"/>
	<rect x="453" y="143" fill="#FFFFFF" width="30" height="5"/>
</g>
<g>
	<path d="M528.8,117.6c-0.1,0-0.5,0-0.9-0.1c-4-0.3-7.6-1.8-9.5-3.7c-3.6-3.8,0.2-8.4,8-9.6c1.4-0.2,2-0.3,3.7-0.3
		c1.7,0,2.3,0,3.7,0.3c5.1,0.8,8.8,3.1,9.3,5.8c0.7,3.2-3.2,6.3-9.1,7.3c-1.2,0.2-2,0.3-3.5,0.3
		C529.7,117.6,528.9,117.6,528.8,117.6L528.8,117.6z"/>
	<path d="M529.1,127.6c-0.1,0-0.6,0-1-0.1c-1.6-0.1-3.5-0.5-5-1c-1.9-0.6-3.5-1.5-4.6-2.6c-0.4-0.4-0.8-1-1-1.3
		c-0.1-0.1-0.2-0.3-0.3-0.5l-0.2-0.4l0-3.8c0-2.1,0-3.8,0-3.8c0,0,0.1,0.1,0.1,0.2c0.5,1.2,1.1,2,2.3,2.8c0.2,0.2,0.5,0.3,0.6,0.4
		s0.2,0.1,0.3,0.2c0.1,0.1,0.4,0.2,0.7,0.4c0.7,0.3,0.8,0.4,1.2,0.5c0.2,0.1,0.4,0.2,0.5,0.2c1.1,0.4,3.3,0.9,5,1
		c0.7,0.1,3.7,0.1,4.4,0c1.7-0.2,3.8-0.6,5-1c0.1,0,0.3-0.1,0.5-0.2c0.4-0.2,0.5-0.2,1.2-0.5c0.3-0.1,0.6-0.3,0.7-0.4
		c0.1-0.1,0.2-0.1,0.2-0.1c0,0,1.1-0.7,1.3-0.9c0.3-0.3,0.9-0.9,1.1-1.2c0.2-0.3,0.4-0.8,0.6-1.2c0.1-0.1,0.1-0.2,0.1-0.2
		c0,0,0,1.2,0,2.7v2.7l-0.8,0.1c-2.8,0.2-5.2,1.3-7.2,3.3c-1.1,1.1-2.1,2.6-2.6,4.1l-0.2,0.4l-0.4,0
		C531.3,127.6,529.4,127.6,529.1,127.6L529.1,127.6z"/>
	<path d="M550.7,133.4l0.8-0.8l-2.8-2.8c-1.5-1.5-2.8-2.8-2.8-2.8c0,0,0.5,0,1.1,0h1.1v-2.4h-6.3l0,0.3c0,0.5,0,5.8,0,5.9
		c0,0.1,0.1,0.1,1.2,0.1l1.2,0l0.1-2.1l2.8,2.8c1.5,1.5,2.8,2.8,2.8,2.8C549.8,134.2,550.2,133.8,550.7,133.4L550.7,133.4z"/>
	<path d="M545.6,135.3l0-3.2h-2.4l0,1.1c0,0.6,0,1.1-0.1,1.1c0,0-1.3-1.3-2.8-2.8l-2.8-2.8l-1.7,1.7l2.8,2.8
		c1.5,1.5,2.8,2.8,2.8,2.8c0,0-0.5,0-1.1,0.1l-1.1,0l0,1.1c0,0.6,0,1.2,0,1.2c0,0.1,0.7,0.1,3.2,0.1h3.2L545.6,135.3z"/>
	<path fill="none" stroke="#000000" stroke-width="0.445" stroke-miterlimit="10" d="M542.2,141.2c-3.3-0.5-6-2.5-7.4-5.4
		c-0.4-0.8-0.6-1.5-0.8-2.4c-0.1-0.6-0.1-0.7-0.1-1.9c0-1.2,0-1.3,0.1-1.9c0.7-3.1,2.5-5.5,5.3-6.9c0.8-0.4,1.5-0.6,2.4-0.8
		c0.6-0.1,0.7-0.1,1.9-0.1c1.2,0,1.3,0,1.9,0.1c3.1,0.7,5.5,2.5,6.9,5.3c0.4,0.8,0.6,1.5,0.8,2.4c0.1,0.6,0.1,0.7,0.1,1.9
		c0,1.2,0,1.3-0.1,1.9c-0.2,0.9-0.4,1.6-0.8,2.4c-1.3,2.7-3.8,4.7-6.8,5.3c-0.6,0.1-0.8,0.1-1.8,0.2
		C543,141.2,542.5,141.2,542.2,141.2L542.2,141.2z"/>
	<path d="M529.4,148.4c-0.9-0.2-1.8-0.9-2.2-1.7c-0.1-0.2-0.2-0.5-0.2-0.5c0-0.1-0.8-0.1-5-0.1h-5v-1.9l9.9,0l0.2-0.5
		c0.3-0.6,0.8-1.1,1.4-1.5c0.2-0.1,0.5-0.2,0.5-0.2c0.1,0,0.1-0.4,0.1-2.3v-2.3l-0.1,0c-0.1,0-0.3,0-0.5,0c-0.4,0-1.9-0.2-2.5-0.3
		c-0.9-0.2-1-0.2-1.7-0.4c-2.8-0.7-5.1-2-6.3-3.5c-0.1-0.2-0.3-0.4-0.3-0.4c-0.1-0.1-0.5-0.6-0.6-1l-0.1-0.3v-3.8c0-2.1,0-3.8,0-3.8
		s0.1,0.2,0.2,0.5c0.1,0.3,0.2,0.6,0.3,0.6c0,0.1,0.1,0.2,0.1,0.2c0.5,0.8,1.2,1.4,2.4,2.1c0.2,0.1,0.4,0.2,0.4,0.2
		c0,0.1,1.2,0.6,1.8,0.8c0.7,0.3,1.2,0.4,1.9,0.6c0.6,0.2,0.9,0.2,1.9,0.4c1.3,0.2,2.8,0.3,4.4,0.3l1.2,0l0,1.2
		c0,1.3,0.1,1.7,0.3,2.8c0.2,0.9,0.7,2.1,1.2,3.1c0.1,0.1,0.1,0.2,0.1,0.2c0,0-1.5,0.2-1.9,0.2c-0.2,0-0.4,0-0.4,0c0,0,0,1.1,0,2.3
		l0,2.3l0.3,0.1c0.4,0.2,0.7,0.4,1.1,0.8c0.3,0.3,0.4,0.5,0.6,0.8l0.2,0.5l9.9,0v1.9l-9.9,0l-0.1,0.3c-0.2,0.4-0.4,0.7-0.8,1.1
		C531.6,148.3,530.5,148.6,529.4,148.4L529.4,148.4z"/>
	<rect x="526" y="137" fill="#FFFFFF" width="8" height="14"/>
	<rect x="515" y="143" fill="#FFFFFF" width="30" height="5"/>
</g>
<g>
	<path d="M466.8,178.6c-0.1,0-0.5,0-0.9-0.1c-4-0.3-7.6-1.8-9.5-3.7c-3.6-3.8,0.2-8.4,8-9.6c1.4-0.2,2-0.3,3.7-0.3
		c1.7,0,2.3,0,3.7,0.3c5.1,0.8,8.8,3.1,9.3,5.8c0.7,3.2-3.2,6.3-9.1,7.3c-1.2,0.2-2,0.3-3.5,0.3
		C467.7,178.6,466.9,178.6,466.8,178.6L466.8,178.6z"/>
	<path d="M467.1,188.6c-0.1,0-0.6,0-1-0.1c-1.6-0.1-3.5-0.5-5-1c-1.9-0.6-3.5-1.5-4.6-2.6c-0.4-0.4-0.8-1-1-1.3
		c-0.1-0.1-0.2-0.3-0.3-0.5l-0.2-0.4l0-3.8c0-2.1,0-3.8,0-3.8c0,0,0.1,0.1,0.1,0.2c0.5,1.2,1.1,2,2.3,2.8c0.2,0.2,0.5,0.3,0.6,0.4
		s0.2,0.1,0.3,0.2c0.1,0.1,0.4,0.2,0.7,0.4c0.7,0.3,0.8,0.4,1.2,0.5c0.2,0.1,0.4,0.2,0.5,0.2c1.1,0.4,3.3,0.9,5,1
		c0.7,0.1,3.7,0.1,4.4,0c1.7-0.2,3.8-0.6,5-1c0.1,0,0.3-0.1,0.5-0.2c0.4-0.2,0.5-0.2,1.2-0.5c0.3-0.1,0.6-0.3,0.7-0.4
		s0.2-0.1,0.2-0.1c0,0,1.1-0.7,1.3-0.9c0.3-0.3,0.9-0.9,1.1-1.2c0.2-0.3,0.4-0.8,0.6-1.2c0.1-0.1,0.1-0.2,0.1-0.2c0,0,0,1.2,0,2.7
		v2.7l-0.8,0.1c-2.8,0.2-5.2,1.3-7.2,3.3c-1.1,1.1-2.1,2.6-2.6,4.1l-0.2,0.4l-0.4,0C469.3,188.6,467.4,188.6,467.1,188.6
		L467.1,188.6z"/>
	<path d="M488.7,194.4l0.8-0.8l-2.8-2.8c-1.5-1.5-2.8-2.8-2.8-2.8c0,0,0.5,0,1.1,0h1.1v-2.4h-6.3l0,0.3c0,0.5,0,5.8,0,5.9
		c0,0.1,0.1,0.1,1.2,0.1l1.2,0l0.1-2.1l2.8,2.8c1.5,1.5,2.8,2.8,2.8,2.8C487.8,195.2,488.2,194.8,488.7,194.4L488.7,194.4z"/>
	<path d="M483.6,196.3l0-3.2h-2.4l0,1.1c0,0.6,0,1.1-0.1,1.1s-1.3-1.3-2.8-2.8l-2.8-2.8l-1.7,1.7l2.8,2.8c1.5,1.5,2.8,2.8,2.8,2.8
		c0,0-0.5,0-1.1,0.1l-1.1,0l0,1.1c0,0.6,0,1.2,0,1.2c0,0.1,0.7,0.1,3.2,0.1h3.2L483.6,196.3z"/>
	<path fill="none" stroke="#000000" stroke-width="0.445" stroke-miterlimit="10" d="M480.2,202.2c-3.3-0.5-6-2.5-7.4-5.4
		c-0.4-0.8-0.6-1.5-0.8-2.4c-0.1-0.6-0.1-0.7-0.1-1.9c0-1.2,0-1.3,0.1-1.9c0.7-3.1,2.5-5.5,5.3-6.9c0.8-0.4,1.5-0.6,2.4-0.8
		c0.6-0.1,0.7-0.1,1.9-0.1c1.2,0,1.3,0,1.9,0.1c3.1,0.7,5.5,2.5,6.9,5.3c0.4,0.8,0.6,1.5,0.8,2.4c0.1,0.6,0.1,0.7,0.1,1.9
		c0,1.2,0,1.3-0.1,1.9c-0.2,0.9-0.4,1.6-0.8,2.4c-1.3,2.7-3.8,4.7-6.8,5.3c-0.6,0.1-0.8,0.1-1.8,0.2
		C481,202.2,480.5,202.2,480.2,202.2L480.2,202.2z"/>
	<path d="M467.4,209.4c-0.9-0.2-1.8-0.9-2.2-1.7c-0.1-0.2-0.2-0.5-0.2-0.5c0-0.1-0.8-0.1-5-0.1h-5v-1.9l9.9,0l0.2-0.5
		c0.3-0.6,0.8-1.1,1.4-1.5c0.2-0.1,0.5-0.2,0.5-0.2c0.1,0,0.1-0.4,0.1-2.3v-2.3l-0.1,0c-0.1,0-0.3,0-0.5,0c-0.4,0-1.9-0.2-2.5-0.3
		c-0.9-0.2-1-0.2-1.7-0.4c-2.8-0.7-5.1-2-6.3-3.5c-0.1-0.2-0.3-0.4-0.3-0.4c-0.1-0.1-0.5-0.6-0.6-1l-0.1-0.3v-3.8c0-2.1,0-3.8,0-3.8
		c0,0,0.1,0.2,0.2,0.5c0.1,0.3,0.2,0.6,0.3,0.6c0,0.1,0.1,0.2,0.1,0.2c0.5,0.8,1.2,1.4,2.4,2.1c0.2,0.1,0.4,0.2,0.4,0.2
		c0,0.1,1.2,0.6,1.8,0.8c0.7,0.3,1.2,0.4,1.9,0.6c0.6,0.2,0.9,0.2,1.9,0.4c1.3,0.2,2.8,0.3,4.4,0.3l1.2,0l0,1.2
		c0,1.3,0.1,1.7,0.3,2.8c0.2,0.9,0.7,2.1,1.2,3.1c0.1,0.1,0.1,0.2,0.1,0.2c0,0-1.5,0.2-1.9,0.2c-0.2,0-0.4,0-0.4,0c0,0,0,1.1,0,2.3
		l0,2.3l0.3,0.1c0.4,0.2,0.7,0.4,1.1,0.8c0.3,0.3,0.4,0.5,0.6,0.8l0.2,0.5l9.9,0v1.9l-9.9,0l-0.1,0.3c-0.2,0.4-0.4,0.7-0.8,1.1
		C469.6,209.3,468.5,209.6,467.4,209.4L467.4,209.4z"/>
	<rect x="464" y="198" fill="#FFFFFF" width="8" height="14"/>
	<rect x="453" y="204" fill="#FFFFFF" width="30" height="5"/>
</g>
<g>
	<path d="M528.8,178.6c-0.1,0-0.5,0-0.9-0.1c-4-0.3-7.6-1.8-9.5-3.7c-3.6-3.8,0.2-8.4,8-9.6c1.4-0.2,2-0.3,3.7-0.3
		c1.7,0,2.3,0,3.7,0.3c5.1,0.8,8.8,3.1,9.3,5.8c0.7,3.2-3.2,6.3-9.1,7.3c-1.2,0.2-2,0.3-3.5,0.3
		C529.7,178.6,528.9,178.6,528.8,178.6L528.8,178.6z"/>
	<path d="M529.1,188.6c-0.1,0-0.6,0-1-0.1c-1.6-0.1-3.5-0.5-5-1c-1.9-0.6-3.5-1.5-4.6-2.6c-0.4-0.4-0.8-1-1-1.3
		c-0.1-0.1-0.2-0.3-0.3-0.5l-0.2-0.4l0-3.8c0-2.1,0-3.8,0-3.8c0,0,0.1,0.1,0.1,0.2c0.5,1.2,1.1,2,2.3,2.8c0.2,0.2,0.5,0.3,0.6,0.4
		s0.2,0.1,0.3,0.2c0.1,0.1,0.4,0.2,0.7,0.4c0.7,0.3,0.8,0.4,1.2,0.5c0.2,0.1,0.4,0.2,0.5,0.2c1.1,0.4,3.3,0.9,5,1
		c0.7,0.1,3.7,0.1,4.4,0c1.7-0.2,3.8-0.6,5-1c0.1,0,0.3-0.1,0.5-0.2c0.4-0.2,0.5-0.2,1.2-0.5c0.3-0.1,0.6-0.3,0.7-0.4
		c0.1-0.1,0.2-0.1,0.2-0.1c0,0,1.1-0.7,1.3-0.9c0.3-0.3,0.9-0.9,1.1-1.2c0.2-0.3,0.4-0.8,0.6-1.2c0.1-0.1,0.1-0.2,0.1-0.2
		c0,0,0,1.2,0,2.7v2.7l-0.8,0.1c-2.8,0.2-5.2,1.3-7.2,3.3c-1.1,1.1-2.1,2.6-2.6,4.1l-0.2,0.4l-0.4,0
		C531.3,188.6,529.4,188.6,529.1,188.6L529.1,188.6z"/>
	<path d="M550.7,194.4l0.8-0.8l-2.8-2.8c-1.5-1.5-2.8-2.8-2.8-2.8c0,0,0.5,0,1.1,0h1.1v-2.4h-6.3l0,0.3c0,0.5,0,5.8,0,5.9
		c0,0.1,0.1,0.1,1.2,0.1l1.2,0l0.1-2.1l2.8,2.8c1.5,1.5,2.8,2.8,2.8,2.8C549.8,195.2,550.2,194.8,550.7,194.4L550.7,194.4z"/>
	<path d="M545.6,196.3l0-3.2h-2.4l0,1.1c0,0.6,0,1.1-0.1,1.1c0,0-1.3-1.3-2.8-2.8l-2.8-2.8l-1.7,1.7l2.8,2.8
		c1.5,1.5,2.8,2.8,2.8,2.8c0,0-0.5,0-1.1,0.1l-1.1,0l0,1.1c0,0.6,0,1.2,0,1.2c0,0.1,0.7,0.1,3.2,0.1h3.2L545.6,196.3z"/>
	<path fill="none" stroke="#000000" stroke-width="0.445" stroke-miterlimit="10" d="M542.2,202.2c-3.3-0.5-6-2.5-7.4-5.4
		c-0.4-0.8-0.6-1.5-0.8-2.4c-0.1-0.6-0.1-0.7-0.1-1.9c0-1.2,0-1.3,0.1-1.9c0.7-3.1,2.5-5.5,5.3-6.9c0.8-0.4,1.5-0.6,2.4-0.8
		c0.6-0.1,0.7-0.1,1.9-0.1c1.2,0,1.3,0,1.9,0.1c3.1,0.7,5.5,2.5,6.9,5.3c0.4,0.8,0.6,1.5,0.8,2.4c0.1,0.6,0.1,0.7,0.1,1.9
		c0,1.2,0,1.3-0.1,1.9c-0.2,0.9-0.4,1.6-0.8,2.4c-1.3,2.7-3.8,4.7-6.8,5.3c-0.6,0.1-0.8,0.1-1.8,0.2
		C543,202.2,542.5,202.2,542.2,202.2L542.2,202.2z"/>
	<path d="M529.4,209.4c-0.9-0.2-1.8-0.9-2.2-1.7c-0.1-0.2-0.2-0.5-0.2-0.5c0-0.1-0.8-0.1-5-0.1h-5v-1.9l9.9,0l0.2-0.5
		c0.3-0.6,0.8-1.1,1.4-1.5c0.2-0.1,0.5-0.2,0.5-0.2c0.1,0,0.1-0.4,0.1-2.3v-2.3l-0.1,0c-0.1,0-0.3,0-0.5,0c-0.4,0-1.9-0.2-2.5-0.3
		c-0.9-0.2-1-0.2-1.7-0.4c-2.8-0.7-5.1-2-6.3-3.5c-0.1-0.2-0.3-0.4-0.3-0.4c-0.1-0.1-0.5-0.6-0.6-1l-0.1-0.3v-3.8c0-2.1,0-3.8,0-3.8
		s0.1,0.2,0.2,0.5c0.1,0.3,0.2,0.6,0.3,0.6c0,0.1,0.1,0.2,0.1,0.2c0.5,0.8,1.2,1.4,2.4,2.1c0.2,0.1,0.4,0.2,0.4,0.2
		c0,0.1,1.2,0.6,1.8,0.8c0.7,0.3,1.2,0.4,1.9,0.6c0.6,0.2,0.9,0.2,1.9,0.4c1.3,0.2,2.8,0.3,4.4,0.3l1.2,0l0,1.2
		c0,1.3,0.1,1.7,0.3,2.8c0.2,0.9,0.7,2.1,1.2,3.1c0.1,0.1,0.1,0.2,0.1,0.2c0,0-1.5,0.2-1.9,0.2c-0.2,0-0.4,0-0.4,0c0,0,0,1.1,0,2.3
		l0,2.3l0.3,0.1c0.4,0.2,0.7,0.4,1.1,0.8c0.3,0.3,0.4,0.5,0.6,0.8l0.2,0.5l9.9,0v1.9l-9.9,0l-0.1,0.3c-0.2,0.4-0.4,0.7-0.8,1.1
		C531.6,209.3,530.5,209.6,529.4,209.4L529.4,209.4z"/>
	<rect x="526" y="198" fill="#FFFFFF" width="8" height="14"/>
	<rect x="515" y="204" fill="#FFFFFF" width="30" height="5"/>
</g>
<g>
	<path d="M466.8,234.6c-0.1,0-0.5,0-0.9-0.1c-4-0.3-7.6-1.8-9.5-3.7c-3.6-3.8,0.2-8.4,8-9.6c1.4-0.2,2-0.3,3.7-0.3
		c1.7,0,2.3,0,3.7,0.3c5.1,0.8,8.8,3.1,9.3,5.8c0.7,3.2-3.2,6.3-9.1,7.3c-1.2,0.2-2,0.3-3.5,0.3
		C467.7,234.6,466.9,234.6,466.8,234.6L466.8,234.6z"/>
	<path d="M467.1,244.6c-0.1,0-0.6,0-1-0.1c-1.6-0.1-3.5-0.5-5-1c-1.9-0.6-3.5-1.5-4.6-2.6c-0.4-0.4-0.8-1-1-1.3
		c-0.1-0.1-0.2-0.3-0.3-0.5l-0.2-0.4l0-3.8c0-2.1,0-3.8,0-3.8c0,0,0.1,0.1,0.1,0.2c0.5,1.2,1.1,2,2.3,2.8c0.2,0.2,0.5,0.3,0.6,0.4
		s0.2,0.1,0.3,0.2c0.1,0.1,0.4,0.2,0.7,0.4c0.7,0.3,0.8,0.4,1.2,0.5c0.2,0.1,0.4,0.2,0.5,0.2c1.1,0.4,3.3,0.9,5,1
		c0.7,0.1,3.7,0.1,4.4,0c1.7-0.2,3.8-0.6,5-1c0.1,0,0.3-0.1,0.5-0.2c0.4-0.2,0.5-0.2,1.2-0.5c0.3-0.1,0.6-0.3,0.7-0.4
		s0.2-0.1,0.2-0.1c0,0,1.1-0.7,1.3-0.9c0.3-0.3,0.9-0.9,1.1-1.2c0.2-0.3,0.4-0.8,0.6-1.2c0.1-0.1,0.1-0.2,0.1-0.2c0,0,0,1.2,0,2.7
		v2.7l-0.8,0.1c-2.8,0.2-5.2,1.3-7.2,3.3c-1.1,1.1-2.1,2.6-2.6,4.1l-0.2,0.4l-0.4,0C469.3,244.6,467.4,244.6,467.1,244.6
		L467.1,244.6z"/>
	<path d="M488.7,250.4l0.8-0.8l-2.8-2.8c-1.5-1.5-2.8-2.8-2.8-2.8c0,0,0.5,0,1.1,0h1.1v-2.4h-6.3l0,0.3c0,0.5,0,5.8,0,5.9
		c0,0.1,0.1,0.1,1.2,0.1l1.2,0l0.1-2.1l2.8,2.8c1.5,1.5,2.8,2.8,2.8,2.8C487.8,251.2,488.2,250.8,488.7,250.4L488.7,250.4z"/>
	<path d="M483.6,252.3l0-3.2h-2.4l0,1.1c0,0.6,0,1.1-0.1,1.1s-1.3-1.3-2.8-2.8l-2.8-2.8l-1.7,1.7l2.8,2.8c1.5,1.5,2.8,2.8,2.8,2.8
		c0,0-0.5,0-1.1,0.1l-1.1,0l0,1.1c0,0.6,0,1.2,0,1.2c0,0.1,0.7,0.1,3.2,0.1h3.2L483.6,252.3z"/>
	<path fill="none" stroke="#000000" stroke-width="0.445" stroke-miterlimit="10" d="M480.2,258.2c-3.3-0.5-6-2.5-7.4-5.4
		c-0.4-0.8-0.6-1.5-0.8-2.4c-0.1-0.6-0.1-0.7-0.1-1.9c0-1.2,0-1.3,0.1-1.9c0.7-3.1,2.5-5.5,5.3-6.9c0.8-0.4,1.5-0.6,2.4-0.8
		c0.6-0.1,0.7-0.1,1.9-0.1c1.2,0,1.3,0,1.9,0.1c3.1,0.7,5.5,2.5,6.9,5.3c0.4,0.8,0.6,1.5,0.8,2.4c0.1,0.6,0.1,0.7,0.1,1.9
		c0,1.2,0,1.3-0.1,1.9c-0.2,0.9-0.4,1.6-0.8,2.4c-1.3,2.7-3.8,4.7-6.8,5.3c-0.6,0.1-0.8,0.1-1.8,0.2
		C481,258.2,480.5,258.2,480.2,258.2L480.2,258.2z"/>
	<path d="M467.4,265.4c-0.9-0.2-1.8-0.9-2.2-1.7c-0.1-0.2-0.2-0.5-0.2-0.5c0-0.1-0.8-0.1-5-0.1h-5v-1.9l9.9,0l0.2-0.5
		c0.3-0.6,0.8-1.1,1.4-1.5c0.2-0.1,0.5-0.2,0.5-0.2c0.1,0,0.1-0.4,0.1-2.3v-2.3l-0.1,0c-0.1,0-0.3,0-0.5,0c-0.4,0-1.9-0.2-2.5-0.3
		c-0.9-0.2-1-0.2-1.7-0.4c-2.8-0.7-5.1-2-6.3-3.5c-0.1-0.2-0.3-0.4-0.3-0.4c-0.1-0.1-0.5-0.6-0.6-1l-0.1-0.3v-3.8c0-2.1,0-3.8,0-3.8
		c0,0,0.1,0.2,0.2,0.5c0.1,0.3,0.2,0.6,0.3,0.6c0,0.1,0.1,0.2,0.1,0.2c0.5,0.8,1.2,1.4,2.4,2.1c0.2,0.1,0.4,0.2,0.4,0.2
		c0,0.1,1.2,0.6,1.8,0.8c0.7,0.3,1.2,0.4,1.9,0.6c0.6,0.2,0.9,0.2,1.9,0.4c1.3,0.2,2.8,0.3,4.4,0.3l1.2,0l0,1.2
		c0,1.3,0.1,1.7,0.3,2.8c0.2,0.9,0.7,2.1,1.2,3.1c0.1,0.1,0.1,0.2,0.1,0.2c0,0-1.5,0.2-1.9,0.2c-0.2,0-0.4,0-0.4,0c0,0,0,1.1,0,2.3
		l0,2.3l0.3,0.1c0.4,0.2,0.7,0.4,1.1,0.8c0.3,0.3,0.4,0.5,0.6,0.8l0.2,0.5l9.9,0v1.9l-9.9,0l-0.1,0.3c-0.2,0.4-0.4,0.7-0.8,1.1
		C469.6,265.3,468.5,265.6,467.4,265.4L467.4,265.4z"/>
	<rect x="464" y="254" fill="#FFFFFF" width="8" height="14"/>
	<rect x="453" y="260" fill="#FFFFFF" width="30" height="5"/>
</g>
<g>
	<path d="M528.8,234.6c-0.1,0-0.5,0-0.9-0.1c-4-0.3-7.6-1.8-9.5-3.7c-3.6-3.8,0.2-8.4,8-9.6c1.4-0.2,2-0.3,3.7-0.3
		c1.7,0,2.3,0,3.7,0.3c5.1,0.8,8.8,3.1,9.3,5.8c0.7,3.2-3.2,6.3-9.1,7.3c-1.2,0.2-2,0.3-3.5,0.3
		C529.7,234.6,528.9,234.6,528.8,234.6L528.8,234.6z"/>
	<path d="M529.1,244.6c-0.1,0-0.6,0-1-0.1c-1.6-0.1-3.5-0.5-5-1c-1.9-0.6-3.5-1.5-4.6-2.6c-0.4-0.4-0.8-1-1-1.3
		c-0.1-0.1-0.2-0.3-0.3-0.5l-0.2-0.4l0-3.8c0-2.1,0-3.8,0-3.8c0,0,0.1,0.1,0.1,0.2c0.5,1.2,1.1,2,2.3,2.8c0.2,0.2,0.5,0.3,0.6,0.4
		s0.2,0.1,0.3,0.2c0.1,0.1,0.4,0.2,0.7,0.4c0.7,0.3,0.8,0.4,1.2,0.5c0.2,0.1,0.4,0.2,0.5,0.2c1.1,0.4,3.3,0.9,5,1
		c0.7,0.1,3.7,0.1,4.4,0c1.7-0.2,3.8-0.6,5-1c0.1,0,0.3-0.1,0.5-0.2c0.4-0.2,0.5-0.2,1.2-0.5c0.3-0.1,0.6-0.3,0.7-0.4
		c0.1-0.1,0.2-0.1,0.2-0.1c0,0,1.1-0.7,1.3-0.9c0.3-0.3,0.9-0.9,1.1-1.2c0.2-0.3,0.4-0.8,0.6-1.2c0.1-0.1,0.1-0.2,0.1-0.2
		c0,0,0,1.2,0,2.7v2.7l-0.8,0.1c-2.8,0.2-5.2,1.3-7.2,3.3c-1.1,1.1-2.1,2.6-2.6,4.1l-0.2,0.4l-0.4,0
		C531.3,244.6,529.4,244.6,529.1,244.6L529.1,244.6z"/>
	<path d="M550.7,250.4l0.8-0.8l-2.8-2.8c-1.5-1.5-2.8-2.8-2.8-2.8c0,0,0.5,0,1.1,0h1.1v-2.4h-6.3l0,0.3c0,0.5,0,5.8,0,5.9
		c0,0.1,0.1,0.1,1.2,0.1l1.2,0l0.1-2.1l2.8,2.8c1.5,1.5,2.8,2.8,2.8,2.8C549.8,251.2,550.2,250.8,550.7,250.4L550.7,250.4z"/>
	<path d="M545.6,252.3l0-3.2h-2.4l0,1.1c0,0.6,0,1.1-0.1,1.1c0,0-1.3-1.3-2.8-2.8l-2.8-2.8l-1.7,1.7l2.8,2.8
		c1.5,1.5,2.8,2.8,2.8,2.8c0,0-0.5,0-1.1,0.1l-1.1,0l0,1.1c0,0.6,0,1.2,0,1.2c0,0.1,0.7,0.1,3.2,0.1h3.2L545.6,252.3z"/>
	<path fill="none" stroke="#000000" stroke-width="0.445" stroke-miterlimit="10" d="M542.2,258.2c-3.3-0.5-6-2.5-7.4-5.4
		c-0.4-0.8-0.6-1.5-0.8-2.4c-0.1-0.6-0.1-0.7-0.1-1.9c0-1.2,0-1.3,0.1-1.9c0.7-3.1,2.5-5.5,5.3-6.9c0.8-0.4,1.5-0.6,2.4-0.8
		c0.6-0.1,0.7-0.1,1.9-0.1c1.2,0,1.3,0,1.9,0.1c3.1,0.7,5.5,2.5,6.9,5.3c0.4,0.8,0.6,1.5,0.8,2.4c0.1,0.6,0.1,0.7,0.1,1.9
		c0,1.2,0,1.3-0.1,1.9c-0.2,0.9-0.4,1.6-0.8,2.4c-1.3,2.7-3.8,4.7-6.8,5.3c-0.6,0.1-0.8,0.1-1.8,0.2
		C543,258.2,542.5,258.2,542.2,258.2L542.2,258.2z"/>
	<path d="M529.4,265.4c-0.9-0.2-1.8-0.9-2.2-1.7c-0.1-0.2-0.2-0.5-0.2-0.5c0-0.1-0.8-0.1-5-0.1h-5v-1.9l9.9,0l0.2-0.5
		c0.3-0.6,0.8-1.1,1.4-1.5c0.2-0.1,0.5-0.2,0.5-0.2c0.1,0,0.1-0.4,0.1-2.3v-2.3l-0.1,0c-0.1,0-0.3,0-0.5,0c-0.4,0-1.9-0.2-2.5-0.3
		c-0.9-0.2-1-0.2-1.7-0.4c-2.8-0.7-5.1-2-6.3-3.5c-0.1-0.2-0.3-0.4-0.3-0.4c-0.1-0.1-0.5-0.6-0.6-1l-0.1-0.3v-3.8c0-2.1,0-3.8,0-3.8
		s0.1,0.2,0.2,0.5c0.1,0.3,0.2,0.6,0.3,0.6c0,0.1,0.1,0.2,0.1,0.2c0.5,0.8,1.2,1.4,2.4,2.1c0.2,0.1,0.4,0.2,0.4,0.2
		c0,0.1,1.2,0.6,1.8,0.8c0.7,0.3,1.2,0.4,1.9,0.6c0.6,0.2,0.9,0.2,1.9,0.4c1.3,0.2,2.8,0.3,4.4,0.3l1.2,0l0,1.2
		c0,1.3,0.1,1.7,0.3,2.8c0.2,0.9,0.7,2.1,1.2,3.1c0.1,0.1,0.1,0.2,0.1,0.2c0,0-1.5,0.2-1.9,0.2c-0.2,0-0.4,0-0.4,0c0,0,0,1.1,0,2.3
		l0,2.3l0.3,0.1c0.4,0.2,0.7,0.4,1.1,0.8c0.3,0.3,0.4,0.5,0.6,0.8l0.2,0.5l9.9,0v1.9l-9.9,0l-0.1,0.3c-0.2,0.4-0.4,0.7-0.8,1.1
		C531.6,265.3,530.5,265.6,529.4,265.4L529.4,265.4z"/>
	<rect x="526" y="254" fill="#FFFFFF" width="8" height="14"/>
	<rect x="515" y="260" fill="#FFFFFF" width="30" height="5"/>
</g>
<line fill="none" stroke="#555555" stroke-width="2" stroke-miterlimit="10" x1="278" y1="18" x2="278" y2="285"/>
<text transform="matrix(1 0 0 1 73.3777 294.6029)" font-family="'MyriadPro-Regular'" font-size="18">one giant repo</text>
<text transform="matrix(1 0 0 1 374.641 294.6029)" font-family="'MyriadPro-Regular'" font-size="18">lots of little repos</text>
</svg>
