<?xml version="1.0" encoding="utf-8"?>
<!-- Generator: Adobe Illustrator 17.1.0, SVG Export Plug-In . SVG Version: 6.00 Build 0)  -->
<!DOCTYPE svg PUBLIC "-//W3C//DTD SVG 1.1//EN" "http://www.w3.org/Graphics/SVG/1.1/DTD/svg11.dtd">
<svg version="1.1" id="Layer_1" xmlns="http://www.w3.org/2000/svg" xmlns:xlink="http://www.w3.org/1999/xlink" x="0px" y="0px"
	 viewBox="0 0 974.4 646.8" enable-background="new 0 0 974.4 646.8" xml:space="preserve">
<g>
	<path d="M180.3,271.6c-0.9,5.6,2.3,10.9,7.1,11.9c4.8,1,9.4-2.7,10.3-8.2c0.9-5.6-2.3-10.9-7.1-11.9
		C185.8,262.4,181.2,266,180.3,271.6"/>
	<path d="M190.8,335.4c-1,6.6-3.7,14.6-9.8,22.5c-1.8,2.4-4.9,2.6-6.9,0.5c-2-2.1-2.2-5.7-0.4-8c6.6-8.7,7.8-16.4,7.9-21.5
		c0-1-0.1-2-0.1-2.8c-1.9-0.9-3.5-2.9-4.3-6.8c-1.4-10-1.1-16,1.2-25.3c1.7-6.8,6.5-9.1,9.9-8.3c3.4,0.8,5.1,6.1,4.1,10.7
		c-0.2,1.8-0.5,3.8-0.8,5.9c-1.2-0.8-1.7-1.6-2-2.6c-0.2-0.6-0.3-1.3-0.3-2.1c0-1.2,0.3-2.3,0.3-2.4c0-0.1,0-0.1,0-0.2
		c0.7-2.3-0.3-4.9-2.3-5.8c-0.4-0.2-0.9-0.3-1.4-0.3c-1.6,0-3.1,1.2-3.7,2.9l0,0.1c-0.5,1.7-0.8,3.7-0.8,5.7c0,1.9,0.3,3.6,0.8,5.2
		c0.7,2.1,1.8,3.9,3.2,5.4c1.5,1.5,3.2,2.7,5.3,3.5c-0.1,2.2,0,4.4,0.2,6.5c1.2,1,2.5,2.4,3.9,4.1c1.7,2.2,3.5,4.9,4.9,8.2
		c1.4,3.4,2.3,7.4,2.3,11.9c0,4.4-0.9,9.3-3,14.4c-0.8,2.1-2.6,3.3-4.4,3.3c-0.7,0-1.4-0.2-2.1-0.5c-2.5-1.3-3.5-4.7-2.4-7.6
		c1.5-3.8,2-6.9,2-9.5C192.1,339.7,191.6,337.4,190.8,335.4C190.8,335.4,190.8,335.4,190.8,335.4L190.8,335.4z"/>
	<path d="M188.7,294.6 M182.8,302.5c-0.6-1.8-0.7-3.5-0.7-4.9c0-3.1,0.7-5.2,0.8-5.5c0.6-1.9,2.4-2.8,4.1-2.1
		c1.6,0.7,2.4,2.8,1.8,4.7c0,0,0,0,0,0c0,0,0,0.1-0.1,0.2c-0.1,0.4-0.3,1.5-0.3,2.7c0,0.8,0.1,1.6,0.3,2.4c0.4,1.1,1,2.2,2.6,3.2
		c0,0,0,0,0,0c0.9,0.6,2.1,1.1,3.8,1.4c1.4,0.3,3,0.5,5,0.5c0.3,0,0.5,0,0.8,0c1.7,0,3.2,1.6,3.2,3.6c0,2-1.4,3.7-3.1,3.7
		c-0.3,0-0.6,0-0.9,0h0c-2,0-3.8-0.2-5.4-0.4c-1.5-0.3-2.9-0.7-4.1-1.2c-2-0.8-3.6-1.9-4.8-3.2C184.3,306,183.4,304.2,182.8,302.5
		L182.8,302.5z"/>
</g>
<path d="M259.3,262c1.3,5-1.1,10.3-5.5,11.8c-4.4,1.5-9-1.3-10.4-6.3c-1.3-5,1.1-10.3,5.5-11.8C253.3,254.2,257.9,257,259.3,262"/>
<path d="M266.2,346.5c2.1-1.7,2.6-5,1.1-7.3c-4.7-7.5-5.7-13.6-5.8-18.2c0-2.7,0.4-4.8,0.8-6.2c0.2-0.7,0.4-1.2,0.5-1.5
	c0.1-0.2,0.1-0.3,0.1-0.3c0,0,0,0,0,0c0.1-0.3,0.2-0.5,0.3-0.8c1.7-1.1,3.2-3.1,3.6-6.8c0.4-9.4-0.4-14.8-3.4-23.1
	c-2.2-6-6.9-7.6-10-6.5c-3,1.1-4.1,5.8-3,9.8c0.1-0.1,0.1-0.2,0.2-0.2c1.5-1.8,2.1-3.9,2.1-3.9c0.5-1.8,1.9-3.1,3.6-3.1
	c0.3,0,0.7,0.1,1,0.2c2,0.6,3.1,3,2.5,5.2c0,0.2-0.1,0.4-0.2,0.6c-0.3,0.8-0.7,2.2-1.6,3.7c-1,1.9-2.8,4.4-5.6,6.3
	c-0.3,0.2-0.6,0.4-1,0.6c-2.4,1.4-5,2.1-7.9,2.1h0c-0.3,0-0.5,0-0.8,0c-1,0.2-2.2,0.3-3.5,0.3c-0.5,0-1.1,0-1.7-0.1
	c-1.6-0.1-3,1.3-3.1,3.2c-0.1,1.9,1.1,3.4,2.8,3.6c0.7,0.1,1.4,0.1,2.1,0.1h0c4.4,0,8-1.1,10.9-2.8c1.2-0.7,2.2-1.5,3.1-2.4
	c0.4,2.8,0.6,5.7,0.5,8.5c-1.3,0.8-2.9,1.9-4.5,3.3c-2,1.9-4.2,4.3-5.8,7.6c-1.6,3.3-2.7,7.4-2.7,12c0,4.3,0.9,9,2.9,14.2
	c0.8,2,2.5,3.2,4.2,3.2c0.6,0,1.2-0.1,1.8-0.4c2.3-1.2,3.4-4.2,2.4-6.9c-1.6-4.1-2.1-7.4-2.1-10c0-2.9,0.6-5,1.5-6.9
	c0.3-0.5,0.6-1,0.9-1.5c0.1,6.4,2,14.6,7.5,23.3C261.2,347.7,264.1,348.2,266.2,346.5L266.2,346.5z"/>
<path d="M252.2,293.6c2.5-1.7,4.1-4,5.1-5.9c1.2-2.2,1.6-3.9,1.7-4.1c0-0.1,0-0.2,0.1-0.3c0.3-1.7-0.6-3.4-2.1-3.9
	c-1.6-0.5-3.2,0.5-3.6,2.3v0c-0.1,0.3-0.7,2.4-2.2,4.2c-0.2,0.2-0.3,0.4-0.5,0.6c-1.5,1.6-3.6,3-7.1,3c-1.7,0-3.8-0.4-6.3-1.3
	c-1.5-0.6-3.2,0.4-3.7,2.1c-0.5,1.8,0.3,3.7,1.9,4.2c3,1.1,5.7,1.6,8.2,1.6h0c0.9,0,1.7-0.1,2.5-0.2c1.9-0.3,3.6-0.9,5.1-1.8
	C251.5,294.1,251.8,293.8,252.2,293.6L252.2,293.6z"/>
<path d="M465.9,50.8h-97.8c-4.1,0-7.4,3.3-7.4,7.4v62.4c0,4.1,3.3,7.4,7.4,7.4h27.3v-4.9h-27.3c-1.4,0-2.5-1.1-2.5-2.5V58.2
	c0-1.4,1.1-2.5,2.5-2.5h97.8c1.4,0,2.5,1.1,2.5,2.5v62.4c0,1.4-1.1,2.5-2.5,2.5h-27.5v4.9h27.5c4.1,0,7.4-3.3,7.4-7.4V58.2
	C473.3,54.1,470,50.8,465.9,50.8z"/>
<path d="M430.4,121.2c-0.6,0.1-1.7,0.2-3,0.4l0.7-3.9h3.1L430.4,121.2z M427.6,134.5c-0.6,0.1-1.5,0.2-2.5,0.3l0.8-4.5
	c1-0.1,1.9-0.2,2.7-0.3L427.6,134.5z M423.7,142.6l1-5.7c0.9-0.1,1.8-0.2,2.5-0.3l-1.3,6L423.7,142.6z M406.8,136.6
	c0.7,0.1,1.5,0.2,2.5,0.3l1,5.7H408L406.8,136.6z M408.1,130.4l0.8,4.5c-1-0.1-1.9-0.2-2.5-0.3l-0.9-4.5
	C406.1,130.2,407.1,130.3,408.1,130.4L408.1,130.4z M405.9,117.7l0.7,3.9c-1.3-0.1-2.4-0.3-3-0.4l-0.7-3.5L405.9,117.7z
	 M393.4,109.8V89.6c0-2,1.6-3.7,3.7-3.7h39.8c2,0,3.7,1.6,3.7,3.7v20.2c0,2-1.6,3.7-3.7,3.7h-0.8c-0.5-1-1.5-1.7-2.7-1.7h-32.9
	c-1.2,0-2.2,0.7-2.7,1.7h-0.8C395,113.5,393.4,111.8,393.4,109.8L393.4,109.8z M425.4,121.7c-1.3,0.1-2.8,0.3-4.3,0.4l0.3-4.4h4.7
	L425.4,121.7z M424.2,128.5c-1.1,0.1-2.3,0.2-3.5,0.3l0.3-4.7c1.4-0.1,2.7-0.2,4-0.3L424.2,128.5z M427.1,123.6
	c1.2-0.1,2.2-0.2,2.9-0.3l-1,4.8c-0.7,0.1-1.7,0.2-2.8,0.3L427.1,123.6z M423.1,135c-0.9,0.1-1.8,0.2-2.7,0.2l0.3-4.4
	c1.1-0.1,2.2-0.2,3.3-0.2L423.1,135z M420.2,137.2c0.8,0,1.7-0.1,2.5-0.2l-1,5.6h-1.9L420.2,137.2z M415.8,137.3c0.4,0,0.8,0,1.2,0
	c0.4,0,0.8,0,1.2,0l-0.3,5.3h-1.8L415.8,137.3z M413.8,137.2l0.3,5.4h-1.9l-1-5.6C412.1,137.1,412.9,137.2,413.8,137.2L413.8,137.2z
	 M413.4,130.8l0.3,4.4c-0.9-0.1-1.9-0.1-2.7-0.2l-0.8-4.5C411.2,130.6,412.3,130.7,413.4,130.8L413.4,130.8z M407.7,128.3
	c-1.1-0.1-2-0.2-2.8-0.3l-1-4.8c0.7,0.1,1.8,0.2,2.9,0.3L407.7,128.3z M412.9,124.1l0.3,4.7c-1.2-0.1-2.4-0.2-3.5-0.3l-0.8-4.8
	C410.2,123.9,411.6,124,412.9,124.1L412.9,124.1z M412.5,117.7l0.3,4.4c-1.4-0.1-2.9-0.2-4.3-0.4l-0.7-4.1L412.5,117.7z M417,122.3
	c-0.7,0-1.4,0-2.2,0l-0.3-4.5h4.9l-0.3,4.5C418.4,122.2,417.7,122.3,417,122.3L417,122.3z M418.6,130.9l-0.3,4.4c-0.5,0-0.9,0-1.4,0
	c-0.4,0-0.9,0-1.4,0l-0.3-4.4c0.6,0,1.1,0,1.6,0C417.5,130.9,418,130.9,418.6,130.9z M417,129c-0.6,0-1.1,0-1.8,0l-0.3-4.7
	c0.7,0,1.4,0,2.1,0s1.3,0,2.1,0l-0.3,4.7C418.1,128.9,417.5,129,417,129L417,129z M433.4,117.7c1.2,0,2.2-0.7,2.7-1.7h0.8
	c3.4,0,6.1-2.8,6.1-6.1V89.6c0-3.4-2.8-6.1-6.1-6.1h-39.8c-3.4,0-6.1,2.8-6.1,6.1v20.2c0,3.4,2.8,6.1,6.1,6.1h0.8
	c0.5,1,1.5,1.7,2.7,1.7h0.3l2.6,12.1v0l3.1,14.7h21.1l0.2-0.8l2.9-14v0l2.6-12.1L433.4,117.7z"/>
<path d="M438.2,244.8h-18.1v-96.6h-6.4v96.6h-18.1c-1.1,0-2,0.9-2,2v6.6c0,1.1,0.9,2,2,2h42.5c1.1,0,2-0.9,2-2v-6.6
	C440.2,245.6,439.3,244.8,438.2,244.8z"/>
<path d="M576.3,288.6c2.9,0.6,4.6,3.5,4.6,6.5c0,0,0,0,0,0c-1.8-1.2-2.9-2.5-2.9-2.5c-0.8-1-2.1-1.6-3.4-1.6c-1,0-1.9,0.3-2.6,0.9
	c-1.9,1.4-2.2,4-0.8,5.9c0.4,0.5,2,2.3,4.6,4.1c0.9,0.6,2,1.3,3.4,1.9c-1.1,4.6-2,9.8-1.4,14.4c1.3,3,3.2,8.7,3.2,16.1
	c0,5.1-0.9,11.1-3.7,17.4c-0.8,1.9-2.7,3-4.7,3c-0.7,0-1.3-0.1-2-0.4c-2.6-1-3.8-3.9-2.7-6.4c2.2-5,2.9-9.6,2.9-13.6
	c0-4.1-0.8-7.5-1.5-10c-3.4-0.3-6.7-1.8-7.7-6.8c-1-8.8-0.3-14,3-22C566.8,289.7,572.4,287.8,576.3,288.6L576.3,288.6z"/>
<path d="M571.9,297.2c-1.1-1.4-0.9-3.4,0.6-4.5c1.4-1.1,3.5-0.8,4.6,0.6c0,0,1.2,1.4,3.1,2.7c2,1.3,4.6,2.5,7.9,2.5
	c2.4,0,5.3-0.6,8.7-2.7c1.6-0.9,3.6-0.5,4.6,1c1,1.5,0.5,3.5-1.1,4.4c-4.3,2.6-8.4,3.6-12.1,3.6h0c-5.1,0-9.2-1.9-11.9-3.8
	C573.6,299.2,572.1,297.3,571.9,297.2L571.9,297.2z"/>
<path d="M565.6,275.1c0,13.9,21.6,13.9,21.6,0C587.2,261.2,565.6,261.2,565.6,275.1"/>
<rect x="336.2" y="266.2" fill="#B2B2B2" width="173.7" height="189.2"/>
<path fill="none" stroke="#B2B2B2" stroke-miterlimit="10" d="M339.1,458.1c0,0,22.8,74.7,77.9,75.1s90-69.8,90-75.1"/>
<path fill="none" stroke="#B2B2B2" stroke-width="2.5211" stroke-miterlimit="10" d="M235.9,348.8c0,0,52.3,206.9,178.8,208.1
	c126.5,1.2,206.6-193.4,206.6-208.1"/>
<path d="M329.3,413c1.3,5-1.1,10.3-5.5,11.8c-4.4,1.5-9-1.3-10.4-6.3c-1.3-5,1.1-10.3,5.5-11.8C323.3,405.2,327.9,408,329.3,413"/>
<path d="M336.2,497.5c2.1-1.7,2.6-5,1.1-7.3c-4.7-7.5-5.7-13.6-5.8-18.2c0-2.7,0.4-4.8,0.8-6.2c0.2-0.7,0.4-1.2,0.5-1.5
	c0.1-0.2,0.1-0.3,0.1-0.3c0,0,0,0,0,0c0.1-0.3,0.2-0.5,0.3-0.8c1.7-1.1,3.2-3.1,3.6-6.8c0.4-9.4-0.4-14.8-3.4-23.1
	c-2.2-6-6.9-7.6-10-6.5c-3,1.1-4.1,5.8-3,9.8c0.1-0.1,0.1-0.2,0.2-0.2c1.5-1.8,2.1-3.9,2.1-3.9c0.5-1.8,1.9-3.1,3.6-3.1
	c0.3,0,0.7,0.1,1,0.2c2,0.6,3.1,3,2.5,5.2c0,0.2-0.1,0.4-0.2,0.6c-0.3,0.8-0.7,2.2-1.6,3.7c-1,1.9-2.8,4.4-5.6,6.3
	c-0.3,0.2-0.6,0.4-1,0.6c-2.4,1.4-5,2.1-7.9,2.1h0c-0.3,0-0.5,0-0.8,0c-1,0.2-2.2,0.3-3.5,0.3c-0.5,0-1.1,0-1.7-0.1
	c-1.6-0.1-3,1.3-3.1,3.2c-0.1,1.9,1.1,3.4,2.8,3.6c0.7,0.1,1.4,0.1,2.1,0.1h0c4.4,0,8-1.1,10.9-2.8c1.2-0.7,2.2-1.5,3.1-2.4
	c0.4,2.8,0.6,5.7,0.5,8.5c-1.3,0.8-2.9,1.9-4.5,3.3c-2,1.9-4.2,4.3-5.8,7.6c-1.6,3.3-2.7,7.4-2.7,12c0,4.3,0.9,9,2.9,14.2
	c0.8,2,2.5,3.2,4.2,3.2c0.6,0,1.2-0.1,1.8-0.4c2.3-1.2,3.4-4.2,2.4-6.9c-1.6-4.1-2.1-7.4-2.1-10c0-2.9,0.6-5,1.5-6.9
	c0.3-0.5,0.6-1,0.9-1.5c0.1,6.4,2,14.6,7.5,23.3C331.2,498.7,334.1,499.2,336.2,497.5L336.2,497.5z"/>
<path d="M322.2,444.6c2.5-1.7,4.1-4,5.1-5.9c1.2-2.2,1.6-3.9,1.7-4.1c0-0.1,0-0.2,0.1-0.3c0.3-1.7-0.6-3.4-2.1-3.9
	c-1.6-0.5-3.2,0.5-3.6,2.3v0c-0.1,0.3-0.7,2.4-2.2,4.2c-0.2,0.2-0.3,0.4-0.5,0.6c-1.5,1.6-3.6,3-7.1,3c-1.7,0-3.8-0.4-6.3-1.3
	c-1.5-0.6-3.2,0.4-3.7,2.1c-0.5,1.8,0.3,3.7,1.9,4.2c3,1.1,5.7,1.6,8.2,1.6h0c0.9,0,1.7-0.1,2.5-0.2c1.9-0.3,3.6-0.9,5.1-1.8
	C321.4,445.1,321.8,444.8,322.2,444.6L322.2,444.6z"/>
<path d="M531.1,385.1c-1.3,5,1.1,10.3,5.3,11.8c4.2,1.5,8.7-1.3,9.9-6.3c1.3-5-1.1-10.3-5.3-11.8
	C536.8,377.3,532.3,380.2,531.1,385.1"/>
<path d="M524.4,469.6c-2-1.7-2.5-5-1-7.3c4.5-7.5,5.5-13.6,5.5-18.2c0-2.7-0.4-4.8-0.7-6.2c-0.2-0.7-0.4-1.2-0.5-1.5
	c-0.1-0.2-0.1-0.3-0.1-0.3c0,0,0,0,0,0c-0.1-0.3-0.2-0.5-0.3-0.8c-1.7-1.1-3-3.1-3.4-6.8c-0.4-9.4,0.4-14.8,3.3-23.1
	c2.1-6,6.6-7.6,9.6-6.5c2.8,1.1,3.9,5.8,2.9,9.8c-0.1-0.1-0.1-0.2-0.2-0.2c-1.4-1.8-2-3.9-2-3.9c-0.4-1.8-1.8-3.1-3.4-3.1
	c-0.3,0-0.6,0.1-1,0.2c-1.9,0.6-3,3-2.4,5.2c0,0.2,0.1,0.4,0.2,0.6c0.2,0.8,0.7,2.2,1.5,3.7c1,1.9,2.7,4.4,5.3,6.3
	c0.3,0.2,0.6,0.4,0.9,0.6c2.3,1.4,4.8,2.1,7.6,2.1h0c0.3,0,0.5,0,0.8,0c1,0.2,2.1,0.3,3.4,0.3c0.5,0,1.1,0,1.7-0.1
	c1.6-0.1,2.9,1.3,3,3.2c0.1,1.9-1.1,3.4-2.7,3.6c-0.7,0.1-1.3,0.1-2,0.1h0c-4.2,0-7.7-1.1-10.5-2.8c-1.1-0.7-2.1-1.5-3-2.4
	c-0.4,2.8-0.6,5.7-0.5,8.5c1.3,0.8,2.8,1.9,4.3,3.3c2,1.9,4,4.3,5.6,7.6c1.6,3.3,2.6,7.4,2.6,12c0,4.3-0.9,9-2.7,14.2
	c-0.7,2-2.4,3.2-4.1,3.2c-0.6,0-1.2-0.1-1.8-0.4c-2.2-1.2-3.3-4.2-2.3-6.9c1.5-4.1,2-7.4,2-10c0-2.9-0.6-5-1.5-6.9
	c-0.2-0.5-0.5-1-0.8-1.5c-0.1,6.4-1.9,14.6-7.2,23.3C529.2,470.8,526.4,471.3,524.4,469.6L524.4,469.6z"/>
<path d="M537.8,416.7c-2.4-1.7-3.9-4-4.9-5.9c-1.1-2.2-1.6-3.9-1.6-4.1c0-0.1,0-0.2,0-0.3c-0.3-1.7,0.6-3.4,2-3.9
	c1.5-0.5,3.1,0.5,3.5,2.3v0c0.1,0.3,0.7,2.4,2.1,4.2c0.2,0.2,0.3,0.4,0.5,0.6c1.4,1.6,3.4,3,6.8,3c1.7,0,3.7-0.4,6.1-1.3
	c1.5-0.6,3.1,0.4,3.6,2.1c0.5,1.8-0.3,3.7-1.8,4.2c-2.9,1.1-5.5,1.6-7.8,1.6h0c-0.8,0-1.6-0.1-2.4-0.2c-1.9-0.3-3.5-0.9-4.9-1.8
	C538.6,417.2,538.2,416.9,537.8,416.7L537.8,416.7z"/>
<g>
	<path d="M270.4,446.9c-0.9,5.6,2.3,10.9,7.1,11.9c4.8,1,9.4-2.7,10.3-8.2c0.9-5.6-2.3-10.9-7.1-11.9
		C275.8,437.6,271.2,441.3,270.4,446.9"/>
	<path d="M280.8,510.7c-1,6.6-3.7,14.6-9.8,22.5c-1.8,2.4-4.9,2.6-6.9,0.5c-2-2.1-2.2-5.7-0.4-8c6.6-8.7,7.8-16.4,7.9-21.5
		c0-1-0.1-2-0.1-2.8c-1.9-0.9-3.5-2.9-4.3-6.8c-1.4-10-1.1-16,1.2-25.3c1.7-6.8,6.5-9.1,9.9-8.3c3.4,0.8,5.1,6.1,4.1,10.7
		c-0.2,1.8-0.5,3.8-0.8,5.9c-1.2-0.8-1.7-1.6-2-2.6c-0.2-0.6-0.3-1.3-0.3-2.1c0-1.2,0.3-2.3,0.3-2.4c0-0.1,0-0.1,0-0.2
		c0.7-2.3-0.3-4.9-2.3-5.8c-0.4-0.2-0.9-0.3-1.4-0.3c-1.6,0-3.1,1.2-3.7,2.9l0,0.1c-0.5,1.7-0.8,3.7-0.8,5.7c0,1.9,0.3,3.6,0.8,5.2
		c0.7,2.1,1.8,3.9,3.2,5.4c1.5,1.5,3.2,2.7,5.3,3.5c-0.1,2.2,0,4.4,0.2,6.5c1.2,1,2.5,2.4,3.9,4.1c1.7,2.2,3.5,4.9,4.9,8.2
		c1.4,3.4,2.3,7.4,2.3,11.9c0,4.4-0.9,9.3-3,14.4c-0.8,2.1-2.6,3.3-4.4,3.3c-0.7,0-1.4-0.2-2.1-0.5c-2.5-1.3-3.5-4.7-2.4-7.6
		c1.5-3.8,2-6.9,2-9.5C282.2,515,281.7,512.7,280.8,510.7C280.8,510.7,280.8,510.7,280.8,510.7L280.8,510.7z"/>
	<path d="M278.8,469.9 M272.9,477.7c-0.6-1.8-0.7-3.5-0.7-4.9c0-3.1,0.7-5.2,0.8-5.5c0.6-1.9,2.4-2.8,4.1-2.1
		c1.6,0.7,2.4,2.8,1.8,4.7c0,0,0,0,0,0c0,0,0,0.1-0.1,0.2c-0.1,0.4-0.3,1.5-0.3,2.7c0,0.8,0.1,1.6,0.3,2.4c0.4,1.1,1,2.2,2.6,3.2
		c0,0,0,0,0,0c0.9,0.6,2.1,1.1,3.8,1.4c1.4,0.3,3,0.5,5,0.5c0.3,0,0.5,0,0.8,0c1.7,0,3.2,1.6,3.2,3.6c0,2-1.4,3.7-3.1,3.7
		c-0.3,0-0.6,0-0.9,0h0c-2,0-3.8-0.2-5.4-0.4c-1.5-0.3-2.9-0.7-4.1-1.2c-2-0.8-3.6-1.9-4.8-3.2C274.4,481.3,273.4,479.5,272.9,477.7
		L272.9,477.7z"/>
</g>
<g>
	<path d="M590.3,391c0.8,5.5-2.1,10.8-6.4,11.8c-4.3,1-8.5-2.6-9.3-8.2c-0.8-5.5,2.1-10.8,6.4-11.8
		C585.3,381.8,589.5,385.5,590.3,391"/>
	<path d="M580.8,454.5c0.9,6.6,3.4,14.5,8.9,22.4c1.6,2.3,4.4,2.6,6.3,0.5c1.8-2.1,2-5.6,0.4-8c-6-8.7-7.1-16.3-7.1-21.4
		c0-1,0.1-2,0.1-2.8c1.7-0.9,3.2-2.9,3.9-6.7c1.3-10,1-15.9-1.1-25.2c-1.5-6.7-5.8-9.1-8.9-8.3s-4.6,6.1-3.7,10.6
		c0.2,1.8,0.5,3.7,0.7,5.8c1.1-0.8,1.5-1.6,1.8-2.6c0.2-0.6,0.3-1.3,0.3-2.1c0-1.2-0.2-2.3-0.3-2.4c0-0.1,0-0.1,0-0.2
		c-0.7-2.3,0.2-4.9,2.1-5.8c0.4-0.2,0.8-0.3,1.3-0.3c1.5,0,2.8,1.2,3.3,2.9l0,0.1c0.5,1.7,0.7,3.7,0.7,5.7c0,1.8-0.2,3.6-0.7,5.2
		c-0.6,2.1-1.6,3.9-2.9,5.4c-1.3,1.5-2.9,2.7-4.8,3.5c0.1,2.2,0,4.4-0.2,6.5c-1,1-2.3,2.4-3.5,4.1c-1.6,2.1-3.2,4.9-4.4,8.2
		c-1.2,3.3-2.1,7.3-2.1,11.8c0,4.4,0.8,9.3,2.7,14.3c0.8,2,2.3,3.3,4,3.3c0.6,0,1.3-0.2,1.9-0.5c2.2-1.3,3.2-4.7,2.1-7.5
		c-1.4-3.7-1.8-6.8-1.8-9.5C579.6,458.8,580.1,456.5,580.8,454.5C580.8,454.5,580.8,454.5,580.8,454.5L580.8,454.5z"/>
	<path d="M582.6,414 M588,421.7c0.5-1.7,0.7-3.4,0.7-4.9c0-3.1-0.7-5.2-0.7-5.4c-0.6-1.9-2.2-2.8-3.7-2.1c-1.5,0.7-2.2,2.8-1.6,4.6
		c0,0,0,0,0,0c0,0,0,0.1,0,0.2c0.1,0.4,0.3,1.5,0.3,2.7c0,0.8-0.1,1.6-0.3,2.4c-0.4,1.1-0.9,2.2-2.3,3.2c0,0,0,0,0,0
		c-0.8,0.6-1.9,1.1-3.5,1.4c-1.2,0.3-2.7,0.5-4.5,0.5c-0.2,0-0.5,0-0.7,0c-1.6,0-2.9,1.6-2.9,3.6c0,2,1.2,3.6,2.8,3.7
		c0.3,0,0.5,0,0.8,0h0c1.8,0,3.4-0.2,4.9-0.4c1.4-0.3,2.6-0.7,3.7-1.2c1.8-0.8,3.2-1.9,4.4-3.2C586.6,425.3,587.5,423.5,588,421.7
		L588,421.7z"/>
</g>
<path d="M612.4,270.5c5,0,9,4.3,9,9.5c0,5.2-4,9.5-9,9.5c-5,0-9-4.2-9-9.5C603.4,274.7,607.4,270.5,612.4,270.5z M629.4,240.5
	c-5,0-9-4.3-9-9.5c0-5.2,4-9.5,9-9.5c5,0,9,4.3,9,9.5C638.3,236.2,634.3,240.5,629.4,240.5z M614.2,264.8L627,260
	c0.4-0.2,0.8-0.4,1.2-0.7l6.5-6.3c0.8,0.9,1.8,1.9,2.8,2.9l-7.4,9c-1.2,1.5-1.1,3.8,0.3,5.1c0.6,0.6,1.4,0.9,2.2,0.9
	c1,0,1.9-0.4,2.6-1.2l7.1-8.6c1.2,1.3,2.1,2.2,2.1,2.2l-14.7,21.3h4.1l-0.3,0.5c-0.3,0.7-0.5,1.4-0.5,2.2l0.7,18.2
	c0.1,2.4,1.9,4.2,4.2,4.2c0.1,0,0.1,0,0.2,0c2.3-0.1,4.1-2.1,4-4.6l-0.6-17l1.8-3.6h2.2l5.7-12.3l-0.5,12.3h1.9l-0.3,6.5
	c-0.1,1.5,0.6,2.9,1.7,3.8l18.1,13.6c0.7,0.6,1.6,0.8,2.4,0.8c1.3,0,2.6-0.6,3.4-1.9c1.3-2,0.9-4.7-1-6.2L660.7,289l0.2-4.5h2.7
	l0.8-28.4v0c0-0.8-0.3-1.9-1.5-3.2c-2.2-2.3-16.7-17.7-16.7-17.7s-2.2-2.1-4.5,0.4c-2.3,2.5-8.8,9.3-8.8,9.3s-0.2,0.2-0.4,0.5
	l-8.4,8.1L612,258c-1.8,0.7-2.7,2.7-2.1,4.6c0.5,1.5,1.8,2.4,3.2,2.4C613.5,265,613.9,264.9,614.2,264.8L614.2,264.8z"/>
<g>
	<path fill="#F7941E" stroke="#3D3B39" stroke-miterlimit="10" d="M437.9,317.8l-4.1,8.5l-18.6,3.6c-2.5,0.5-4.1,2.9-3.6,5.3
		c0.5,2.5,2.8,4,5.3,3.5l20.6-4c1.4-0.2,2.7-1.1,3.4-2.5l5.3-11.1L437.9,317.8z"/>
	<path fill="#F7941E" stroke="#3D3B39" stroke-miterlimit="10" d="M435.7,281.7c-0.7,0.1-1.3,0.4-1.7,0.8l-11.6,10.6
		c-3.5,3.2,0.7,7.9,4.3,4.7l10.8-9.8l9.1,0.2l-7.3,17.8c-1.6,4.7-2.2,8.8,1.7,10.4l19.8,7.9l-6.4,21.2c-0.7,2.4,0.7,4.9,3.1,5.6
		c2.4,0.7,4.9-0.7,5.6-3.1l7.5-25l0-0.1c0.8-2.3-0.4-4.7-2.6-5.6l-14.1-5.6l6.6-16.2l5,7.1c1,1.5,2.4,1.9,3.6,1.6l14.7-2.9
		c4.7-0.9,3.5-7.2-1.2-6.3l-12.9,2.5l-5.3-7.4c-1-1.3-1.7-1.8-3-2.5l-10.5-5c-1.6-0.7-2.4-0.8-4.1-0.9l-10.1-0.2
		C436.4,281.6,436,281.6,435.7,281.7L435.7,281.7z"/>
	<path fill="#F7941E" stroke="#3D3B39" stroke-miterlimit="10" d="M459.4,268c-4.4,0.9-7.2,5.1-6.4,9.5c0.9,4.4,5.1,7.2,9.5,6.4
		c4.4-0.9,7.2-5.1,6.4-9.5C468,270.1,463.8,267.2,459.4,268z"/>
</g>
<g>
	<path d="M197.1,375.7c-0.9,5.6,2.3,10.9,7.1,11.9c4.8,1,9.4-2.7,10.3-8.2c0.9-5.6-2.3-10.9-7.1-11.9
		C202.6,366.5,197.9,370.2,197.1,375.7"/>
	<path d="M207.5,439.5c-1,6.6-3.7,14.6-9.8,22.5c-1.8,2.4-4.9,2.6-6.9,0.5c-2-2.1-2.2-5.7-0.4-8c6.6-8.7,7.8-16.4,7.9-21.5
		c0-1-0.1-2-0.1-2.8c-1.9-0.9-3.5-2.9-4.3-6.8c-1.4-10-1.1-16,1.2-25.3c1.7-6.8,6.5-9.1,9.9-8.3c3.4,0.8,5.1,6.1,4.1,10.7
		c-0.2,1.8-0.5,3.8-0.8,5.9c-1.2-0.8-1.7-1.6-2-2.6c-0.2-0.6-0.3-1.3-0.3-2.1c0-1.2,0.3-2.3,0.3-2.4c0-0.1,0-0.1,0-0.2
		c0.7-2.3-0.3-4.9-2.3-5.8c-0.4-0.2-0.9-0.3-1.4-0.3c-1.6,0-3.1,1.2-3.7,2.9l0,0.1c-0.5,1.7-0.8,3.7-0.8,5.7c0,1.9,0.3,3.6,0.8,5.2
		c0.7,2.1,1.8,3.9,3.2,5.4c1.5,1.5,3.2,2.7,5.3,3.5c-0.1,2.2,0,4.4,0.2,6.5c1.2,1,2.5,2.4,3.9,4.1c1.7,2.2,3.5,4.9,4.9,8.2
		c1.4,3.4,2.3,7.4,2.3,11.9c0,4.4-0.9,9.3-3,14.4c-0.8,2.1-2.6,3.3-4.4,3.3c-0.7,0-1.4-0.2-2.1-0.5c-2.5-1.3-3.5-4.7-2.4-7.6
		c1.5-3.8,2-6.9,2-9.5C208.9,443.8,208.4,441.6,207.5,439.5C207.5,439.5,207.5,439.5,207.5,439.5L207.5,439.5z"/>
	<path d="M205.5,398.8 M199.6,406.6c-0.6-1.8-0.7-3.5-0.7-4.9c0-3.1,0.7-5.2,0.8-5.5c0.6-1.9,2.4-2.8,4.1-2.1
		c1.6,0.7,2.4,2.8,1.8,4.7c0,0,0,0,0,0c0,0,0,0.1-0.1,0.2c-0.1,0.4-0.3,1.5-0.3,2.7c0,0.8,0.1,1.6,0.3,2.4c0.4,1.1,1,2.2,2.6,3.2
		c0,0,0,0,0,0c0.9,0.6,2.1,1.1,3.8,1.4c1.4,0.3,3,0.5,5,0.5c0.3,0,0.5,0,0.8,0c1.7,0,3.2,1.6,3.2,3.6c0,2-1.4,3.7-3.1,3.7
		c-0.3,0-0.6,0-0.9,0h0c-2,0-3.8-0.2-5.4-0.4c-1.5-0.3-2.9-0.7-4.1-1.2c-2-0.8-3.6-1.9-4.8-3.2C201.1,410.1,200.1,408.3,199.6,406.6
		L199.6,406.6z"/>
</g>
<line fill="none" stroke="#5B5A5A" stroke-miterlimit="10" x1="148.8" y1="487.6" x2="187.1" y2="407.8"/>
<text transform="matrix(1 0 0 1 59.799 516.2787)"><tspan x="0" y="0" font-family="'MyriadPro-Regular'" font-size="24">worst player - not </tspan><tspan x="0" y="28.8" font-family="'MyriadPro-Regular'" font-size="24">worth guarding</tspan></text>
<line fill="none" stroke="#5B5A5A" stroke-miterlimit="10" x1="753.5" y1="255.3" x2="669.8" y2="250"/>
<text transform="matrix(1 0 0 1 753.488 263.2019)"><tspan x="0" y="0" font-family="'MyriadPro-Regular'" font-size="24">offense drives to</tspan><tspan x="0" y="28.8" font-family="'MyriadPro-Regular'" font-size="24">the basket</tspan></text>
<path fill="none" stroke="#8D8D8D" stroke-miterlimit="10" stroke-dasharray="12" d="M405.8,287.1c-12,5.9-24.5,10.9-37.3,14.9"/>
<path fill="none" stroke="#8D8D8D" stroke-miterlimit="10" stroke-dasharray="12" d="M404.7,308.1c-11.6-0.5-23.3,2-33.6,7.2"/>
<path fill="none" stroke="#8D8D8D" stroke-miterlimit="10" stroke-dasharray="12" d="M403.5,325.2c-14.6,0.6-29.1,4.7-42,11.7"/>
<path fill="none" stroke="#8D8D8D" stroke-miterlimit="10" stroke-dasharray="12" d="M439.4,348c-23.5,4.6-47.1,8.8-70.7,12.7"/>
<path fill="none" stroke="#8D8D8D" stroke-miterlimit="10" stroke-dasharray="12" d="M439.5,359.2c-11.7,11.1-25.6,19.9-40.6,25.8"
	/>
<line fill="none" stroke="#5B5A5A" stroke-miterlimit="10" x1="473.3" y1="336.9" x2="678.7" y2="385"/>
<text transform="matrix(1 0 0 1 685.5578 385.0023)"><tspan x="0" y="0" font-family="'MyriadPro-Regular'" font-size="24">rover leaves his man</tspan><tspan x="0" y="28.8" font-family="'MyriadPro-Regular'" font-size="24">and doubles on </tspan><tspan x="0" y="57.6" font-family="'MyriadPro-Regular'" font-size="24">driving offense</tspan></text>
</svg>
