<?xml version="1.0" encoding="utf-8"?>
<!-- Generator: Adobe Illustrator 19.0.1, SVG Export Plug-In . SVG Version: 6.00 Build 0)  -->
<svg version="1.1" xmlns="http://www.w3.org/2000/svg" xmlns:xlink="http://www.w3.org/1999/xlink" x="0px" y="0px"
	 viewBox="0 0 699.7 500" enable-background="new 0 0 699.7 500" xml:space="preserve">
<g id="color_x5F_palette">
</g>
<g id="fulldi">
	<g>
		<rect x="166.2" y="376.7" width="2.1" height="1.6"/>
		<rect x="170.4" y="376.7" width="2.1" height="1.6"/>
		<rect x="174.5" y="376.7" width="2.1" height="1.6"/>
		<path d="M170.4,400.6h14.5v-11.2h-14.5V400.6z M172.4,391h10.3v8h-10.3V391z"/>
		<path d="M191.1,400.6h14.5v-11.2h-14.5V400.6z M193.1,391h10.3v8h-10.3V391z"/>
		<path d="M191.1,416.5h14.5v-11.2h-14.5V416.5z M193.1,407h10.3v8h-10.3V407z"/>
		<path d="M211.7,416.5h14.5v-11.2h-14.5V416.5z M213.8,407h10.3v8h-10.3V407z"/>
		<path d="M184.4,373.5h-0.6h-21.7v6.4v4v39h72.4v-39v-4v-6.4H184.4z M164.2,375.1h19l3.1,4.8h-22.1V375.1z M232.4,421.3h-68.3
			v-37.4v-2.4h68.3v2.4V421.3z M188.6,379.9l-3.1-4.8h47v4.8H188.6z"/>
		<rect x="212.8" y="389.4" width="12.4" height="1.6"/>
		<rect x="212.8" y="392.6" width="12.4" height="1.6"/>
		<rect x="212.8" y="395.8" width="12.4" height="1.6"/>
		<rect x="212.8" y="399" width="8.3" height="1.6"/>
		<rect x="171.4" y="405.4" width="12.4" height="1.6"/>
		<rect x="171.4" y="408.6" width="12.4" height="1.6"/>
		<rect x="171.4" y="411.7" width="12.4" height="1.6"/>
		<rect x="171.4" y="414.9" width="8.3" height="1.6"/>
	</g>
	<g>
		<g>
			
				<line fill="none" stroke="#EC1B52" stroke-width="3" stroke-miterlimit="10" stroke-dasharray="6,6" x1="100.2" y1="178" x2="165.1" y2="346.1"/>
			<g>
				<path fill="#EC1B52" d="M168.3,354.6c-3-3.4-7.4-7.4-11.3-9.4l7.6-0.2l5.7-5C168.9,344.1,168.3,350,168.3,354.6z"/>
			</g>
		</g>
	</g>
	<g>
		<path fill="none" d="M340.6,64.9l-0.7-0.4l0-0.8c-0.4-17.8-16-32.4-34.8-32.4c-12.1,0-23.2,5.9-29.6,15.7l-0.6,0.9l-1-0.3
			c-2.3-0.6-4.6-1-7-1c-10.2,0-19.5,6.1-23.1,15.2l-0.3,0.7l-0.7,0.2c-9.8,2.6-16.7,11.1-16.7,20.8c0,11.9,10.2,21.6,22.7,21.6h80.4
			c12.5,0,22.7-9.7,22.7-21.6C352,75.9,347.6,68.7,340.6,64.9z"/>
		<path d="M342.7,62.9c-0.9-19-17.5-34.3-37.6-34.3c-12.8,0-24.4,6-31.4,16.1c-2.2-0.5-4.5-0.8-6.8-0.8c-11.2,0-21.4,6.5-25.5,16.4
			c-10.7,3.1-18.1,12.6-18.1,23.3c0,13.4,11.5,24.3,25.6,24.3h80.4c14.1,0,25.6-10.9,25.6-24.3C354.8,75.2,350.2,67.3,342.7,62.9z
			 M329.3,105.2h-80.4c-12.5,0-22.7-9.7-22.7-21.6c0-9.7,6.9-18.3,16.7-20.8l0.7-0.2l0.3-0.7c3.6-9.1,12.9-15.2,23.1-15.2
			c2.4,0,4.7,0.3,7,1l1,0.3l0.6-0.9c6.4-9.8,17.4-15.7,29.6-15.7c18.8,0,34.3,14.5,34.8,32.4l0,0.8l0.7,0.4c7,3.9,11.4,11,11.4,18.7
			C352,95.5,341.8,105.2,329.3,105.2z"/>
	</g>
	<g>
		<path d="M574.6,197.8v23.5h82.2v-23.5H574.6z M577.6,220.3c-1.1,0-2.1-0.9-2.1-2s0.9-2,2.1-2c1.1,0,2.1,0.9,2.1,2
			S578.8,220.3,577.6,220.3z M577.6,202.7c-1.1,0-2.1-0.9-2.1-2s0.9-2,2.1-2c1.1,0,2.1,0.9,2.1,2S578.8,202.7,577.6,202.7z
			 M587.9,216.9c0,0.8-0.7,1.5-1.5,1.5c-0.9,0-1.5-0.7-1.5-1.5v-14.7c0-0.8,0.7-1.5,1.5-1.5c0.9,0,1.5,0.7,1.5,1.5V216.9z
			 M593.1,216.9c0,0.8-0.7,1.5-1.5,1.5c-0.9,0-1.5-0.7-1.5-1.5v-14.7c0-0.8,0.7-1.5,1.5-1.5c0.9,0,1.5,0.7,1.5,1.5V216.9z
			 M598.2,216.9c0,0.8-0.7,1.5-1.5,1.5c-0.9,0-1.5-0.7-1.5-1.5v-14.7c0-0.8,0.7-1.5,1.5-1.5c0.9,0,1.5,0.7,1.5,1.5V216.9z
			 M603.3,216.9c0,0.8-0.7,1.5-1.5,1.5c-0.9,0-1.5-0.7-1.5-1.5v-14.7c0-0.8,0.7-1.5,1.5-1.5c0.9,0,1.5,0.7,1.5,1.5V216.9z
			 M608.5,216.9c0,0.8-0.7,1.5-1.5,1.5c-0.9,0-1.5-0.7-1.5-1.5v-14.7c0-0.8,0.7-1.5,1.5-1.5c0.9,0,1.5,0.7,1.5,1.5V216.9z
			 M613.6,216.9c0,0.8-0.7,1.5-1.5,1.5c-0.9,0-1.5-0.7-1.5-1.5v-14.7c0-0.8,0.7-1.5,1.5-1.5c0.9,0,1.5,0.7,1.5,1.5V216.9z
			 M618.7,216.9c0,0.8-0.7,1.5-1.5,1.5c-0.9,0-1.5-0.7-1.5-1.5v-14.7c0-0.8,0.7-1.5,1.5-1.5c0.9,0,1.5,0.7,1.5,1.5V216.9z
			 M623.9,216.9c0,0.8-0.7,1.5-1.5,1.5c-0.9,0-1.5-0.7-1.5-1.5v-14.7c0-0.8,0.7-1.5,1.5-1.5c0.9,0,1.5,0.7,1.5,1.5V216.9z
			 M629,216.9c0,0.8-0.7,1.5-1.5,1.5c-0.9,0-1.5-0.7-1.5-1.5v-14.7c0-0.8,0.7-1.5,1.5-1.5c0.9,0,1.5,0.7,1.5,1.5V216.9z
			 M634.2,216.9c0,0.8-0.7,1.5-1.5,1.5c-0.9,0-1.5-0.7-1.5-1.5v-14.7c0-0.8,0.7-1.5,1.5-1.5c0.9,0,1.5,0.7,1.5,1.5V216.9z
			 M639.3,216.9c0,0.8-0.7,1.5-1.5,1.5s-1.5-0.7-1.5-1.5v-14.7c0-0.8,0.7-1.5,1.5-1.5s1.5,0.7,1.5,1.5V216.9z M650.6,210.5
			c0,0.5-0.5,1-1,1h-7.2c-0.6,0-1-0.4-1-1v-1c0-0.5,0.5-1,1-1h7.2c0.6,0,1,0.4,1,1V210.5z M650.6,206.6c0,0.5-0.5,1-1,1h-7.2
			c-0.6,0-1-0.4-1-1v-4.9c0-0.5,0.5-1,1-1h7.2c0.6,0,1,0.4,1,1V206.6z M653.7,220.3c-1.1,0-2.1-0.9-2.1-2s0.9-2,2.1-2
			c1.1,0,2.1,0.9,2.1,2S654.8,220.3,653.7,220.3z M653.7,202.7c-1.1,0-2.1-0.9-2.1-2s0.9-2,2.1-2c1.1,0,2.1,0.9,2.1,2
			S654.8,202.7,653.7,202.7z"/>
		<path d="M574.6,225.2v23.5h82.2v-23.5H574.6z M577.6,247.7c-1.1,0-2.1-0.9-2.1-2s0.9-2,2.1-2c1.1,0,2.1,0.9,2.1,2
			S578.8,247.7,577.6,247.7z M577.6,230.1c-1.1,0-2.1-0.9-2.1-2s0.9-2,2.1-2c1.1,0,2.1,0.9,2.1,2S578.8,230.1,577.6,230.1z
			 M587.9,244.3c0,0.8-0.7,1.5-1.5,1.5c-0.9,0-1.5-0.7-1.5-1.5v-14.7c0-0.8,0.7-1.5,1.5-1.5c0.9,0,1.5,0.7,1.5,1.5V244.3z
			 M593.1,244.3c0,0.8-0.7,1.5-1.5,1.5c-0.9,0-1.5-0.7-1.5-1.5v-14.7c0-0.8,0.7-1.5,1.5-1.5c0.9,0,1.5,0.7,1.5,1.5V244.3z
			 M598.2,244.3c0,0.8-0.7,1.5-1.5,1.5c-0.9,0-1.5-0.7-1.5-1.5v-14.7c0-0.8,0.7-1.5,1.5-1.5c0.9,0,1.5,0.7,1.5,1.5V244.3z
			 M603.3,244.3c0,0.8-0.7,1.5-1.5,1.5c-0.9,0-1.5-0.7-1.5-1.5v-14.7c0-0.8,0.7-1.5,1.5-1.5c0.9,0,1.5,0.7,1.5,1.5V244.3z
			 M608.5,244.3c0,0.8-0.7,1.5-1.5,1.5c-0.9,0-1.5-0.7-1.5-1.5v-14.7c0-0.8,0.7-1.5,1.5-1.5c0.9,0,1.5,0.7,1.5,1.5V244.3z
			 M613.6,244.3c0,0.8-0.7,1.5-1.5,1.5c-0.9,0-1.5-0.7-1.5-1.5v-14.7c0-0.8,0.7-1.5,1.5-1.5c0.9,0,1.5,0.7,1.5,1.5V244.3z
			 M618.7,244.3c0,0.8-0.7,1.5-1.5,1.5c-0.9,0-1.5-0.7-1.5-1.5v-14.7c0-0.8,0.7-1.5,1.5-1.5c0.9,0,1.5,0.7,1.5,1.5V244.3z
			 M623.9,244.3c0,0.8-0.7,1.5-1.5,1.5c-0.9,0-1.5-0.7-1.5-1.5v-14.7c0-0.8,0.7-1.5,1.5-1.5c0.9,0,1.5,0.7,1.5,1.5V244.3z
			 M629,244.3c0,0.8-0.7,1.5-1.5,1.5c-0.9,0-1.5-0.7-1.5-1.5v-14.7c0-0.8,0.7-1.5,1.5-1.5c0.9,0,1.5,0.7,1.5,1.5V244.3z
			 M634.2,244.3c0,0.8-0.7,1.5-1.5,1.5c-0.9,0-1.5-0.7-1.5-1.5v-14.7c0-0.8,0.7-1.5,1.5-1.5c0.9,0,1.5,0.7,1.5,1.5V244.3z
			 M639.3,244.3c0,0.8-0.7,1.5-1.5,1.5s-1.5-0.7-1.5-1.5v-14.7c0-0.8,0.7-1.5,1.5-1.5s1.5,0.7,1.5,1.5V244.3z M650.6,237.9
			c0,0.5-0.5,1-1,1h-7.2c-0.6,0-1-0.4-1-1v-1c0-0.5,0.5-1,1-1h7.2c0.6,0,1,0.4,1,1V237.9z M650.6,234c0,0.5-0.5,1-1,1h-7.2
			c-0.6,0-1-0.4-1-1v-4.9c0-0.5,0.5-1,1-1h7.2c0.6,0,1,0.4,1,1V234z M653.7,247.7c-1.1,0-2.1-0.9-2.1-2s0.9-2,2.1-2
			c1.1,0,2.1,0.9,2.1,2S654.8,247.7,653.7,247.7z M653.7,230.1c-1.1,0-2.1-0.9-2.1-2s0.9-2,2.1-2c1.1,0,2.1,0.9,2.1,2
			S654.8,230.1,653.7,230.1z"/>
		<path d="M574.6,252.6v23.5h82.2v-23.5H574.6z M577.6,275.1c-1.1,0-2.1-0.9-2.1-2c0-1.1,0.9-2,2.1-2c1.1,0,2.1,0.9,2.1,2
			C579.7,274.2,578.8,275.1,577.6,275.1z M577.6,257.5c-1.1,0-2.1-0.9-2.1-2s0.9-2,2.1-2c1.1,0,2.1,0.9,2.1,2
			S578.8,257.5,577.6,257.5z M587.9,271.7c0,0.8-0.7,1.5-1.5,1.5c-0.9,0-1.5-0.7-1.5-1.5V257c0-0.8,0.7-1.5,1.5-1.5
			c0.9,0,1.5,0.7,1.5,1.5V271.7z M593.1,271.7c0,0.8-0.7,1.5-1.5,1.5c-0.9,0-1.5-0.7-1.5-1.5V257c0-0.8,0.7-1.5,1.5-1.5
			c0.9,0,1.5,0.7,1.5,1.5V271.7z M598.2,271.7c0,0.8-0.7,1.5-1.5,1.5c-0.9,0-1.5-0.7-1.5-1.5V257c0-0.8,0.7-1.5,1.5-1.5
			c0.9,0,1.5,0.7,1.5,1.5V271.7z M603.3,271.7c0,0.8-0.7,1.5-1.5,1.5c-0.9,0-1.5-0.7-1.5-1.5V257c0-0.8,0.7-1.5,1.5-1.5
			c0.9,0,1.5,0.7,1.5,1.5V271.7z M608.5,271.7c0,0.8-0.7,1.5-1.5,1.5c-0.9,0-1.5-0.7-1.5-1.5V257c0-0.8,0.7-1.5,1.5-1.5
			c0.9,0,1.5,0.7,1.5,1.5V271.7z M613.6,271.7c0,0.8-0.7,1.5-1.5,1.5c-0.9,0-1.5-0.7-1.5-1.5V257c0-0.8,0.7-1.5,1.5-1.5
			c0.9,0,1.5,0.7,1.5,1.5V271.7z M618.7,271.7c0,0.8-0.7,1.5-1.5,1.5c-0.9,0-1.5-0.7-1.5-1.5V257c0-0.8,0.7-1.5,1.5-1.5
			c0.9,0,1.5,0.7,1.5,1.5V271.7z M623.9,271.7c0,0.8-0.7,1.5-1.5,1.5c-0.9,0-1.5-0.7-1.5-1.5V257c0-0.8,0.7-1.5,1.5-1.5
			c0.9,0,1.5,0.7,1.5,1.5V271.7z M629,271.7c0,0.8-0.7,1.5-1.5,1.5c-0.9,0-1.5-0.7-1.5-1.5V257c0-0.8,0.7-1.5,1.5-1.5
			c0.9,0,1.5,0.7,1.5,1.5V271.7z M634.2,271.7c0,0.8-0.7,1.5-1.5,1.5c-0.9,0-1.5-0.7-1.5-1.5V257c0-0.8,0.7-1.5,1.5-1.5
			c0.9,0,1.5,0.7,1.5,1.5V271.7z M639.3,271.7c0,0.8-0.7,1.5-1.5,1.5s-1.5-0.7-1.5-1.5V257c0-0.8,0.7-1.5,1.5-1.5s1.5,0.7,1.5,1.5
			V271.7z M650.6,265.3c0,0.5-0.5,1-1,1h-7.2c-0.6,0-1-0.4-1-1v-1c0-0.5,0.5-1,1-1h7.2c0.6,0,1,0.4,1,1V265.3z M650.6,261.4
			c0,0.5-0.5,1-1,1h-7.2c-0.6,0-1-0.4-1-1v-4.9c0-0.5,0.5-1,1-1h7.2c0.6,0,1,0.4,1,1V261.4z M653.7,275.1c-1.1,0-2.1-0.9-2.1-2
			c0-1.1,0.9-2,2.1-2c1.1,0,2.1,0.9,2.1,2C655.7,274.2,654.8,275.1,653.7,275.1z M653.7,257.5c-1.1,0-2.1-0.9-2.1-2s0.9-2,2.1-2
			c1.1,0,2.1,0.9,2.1,2S654.8,257.5,653.7,257.5z"/>
	</g>
	<g>
		<path d="M256.5,369.2c-0.1-1.3-1.3-2.4-2.7-2.4H150.8c-1.4,0-2.6,1.1-2.7,2.4l0,66c0,1.4,1.2,2.6,2.7,2.6h102.9
			c1.5,0,2.7-1.2,2.7-2.6L256.5,369.2z M252.1,425.5h-99.7v-54.5h99.7V425.5z"/>
		<path d="M219.6,450.1c-4.3-1-5.4-4.1-5.4-8.2v-1h-11.9h-11.9v1c0,4.1-1.1,7.2-5.4,8.2c-1.1,0.2-1.1,2.1,0,2.1h17.3h17.3
			C220.7,452.2,220.7,450.4,219.6,450.1z"/>
	</g>
	<g>
		<g>
			<path d="M249.6,124.9l2.4,0.7c-0.4,1.2-1,2.2-1.8,2.8c-0.8,0.6-1.9,0.9-3.2,0.9c-1.6,0-2.9-0.5-3.9-1.6c-1-1-1.5-2.5-1.5-4.3
				c0-1.9,0.5-3.4,1.6-4.4s2.4-1.6,4.1-1.6c1.5,0,2.7,0.4,3.6,1.2c0.5,0.5,1,1.2,1.2,2.1l-2.4,0.5c-0.1-0.6-0.4-1.1-0.9-1.4
				s-1-0.5-1.6-0.5c-0.9,0-1.6,0.3-2.2,0.9c-0.6,0.6-0.8,1.6-0.8,3c0,1.4,0.3,2.5,0.8,3.1c0.5,0.6,1.3,0.9,2.1,0.9
				c0.6,0,1.2-0.2,1.7-0.6C249.1,126.4,249.4,125.8,249.6,124.9z"/>
			<path d="M254,129.1v-11.5h2.3v11.5H254z"/>
			<path d="M258.2,124.9c0-0.7,0.2-1.4,0.6-2.1c0.4-0.7,0.9-1.2,1.6-1.6c0.7-0.4,1.5-0.5,2.3-0.5c1.3,0,2.4,0.4,3.2,1.2
				c0.8,0.8,1.3,1.8,1.3,3.1c0,1.3-0.4,2.3-1.3,3.1c-0.9,0.8-1.9,1.2-3.2,1.2c-0.8,0-1.6-0.2-2.3-0.5s-1.3-0.8-1.7-1.5
				C258.3,126.6,258.2,125.8,258.2,124.9z M260.5,125c0,0.8,0.2,1.5,0.6,1.9c0.4,0.4,0.9,0.7,1.5,0.7c0.6,0,1.1-0.2,1.5-0.7
				c0.4-0.4,0.6-1.1,0.6-1.9c0-0.8-0.2-1.4-0.6-1.9c-0.4-0.4-0.9-0.7-1.5-0.7c-0.6,0-1.1,0.2-1.5,0.7
				C260.7,123.5,260.5,124.2,260.5,125z"/>
			<path d="M274.7,129.1v-1.2c-0.3,0.4-0.7,0.8-1.3,1c-0.5,0.3-1.1,0.4-1.6,0.4c-0.6,0-1.1-0.1-1.6-0.4c-0.5-0.2-0.8-0.6-1-1
				c-0.2-0.4-0.3-1.1-0.3-1.8v-5.2h2.3v3.8c0,1.2,0,1.9,0.1,2.1c0.1,0.3,0.2,0.5,0.5,0.6c0.2,0.2,0.5,0.2,0.9,0.2
				c0.4,0,0.7-0.1,1.1-0.3c0.3-0.2,0.5-0.5,0.6-0.8c0.1-0.3,0.2-1.1,0.2-2.2v-3.5h2.3v8.3H274.7z"/>
			<path d="M287.2,129.1h-2.1v-1.2c-0.4,0.5-0.8,0.8-1.3,1.1s-1,0.3-1.5,0.3c-1,0-1.9-0.4-2.6-1.2c-0.7-0.8-1.1-1.8-1.1-3.2
				c0-1.4,0.3-2.5,1-3.2c0.7-0.7,1.6-1.1,2.6-1.1c1,0,1.8,0.4,2.5,1.2v-4.1h2.3V129.1z M281.1,124.8c0,0.9,0.1,1.5,0.4,1.9
				c0.4,0.6,0.9,0.9,1.6,0.9c0.5,0,1-0.2,1.4-0.6s0.6-1.1,0.6-1.9c0-1-0.2-1.6-0.5-2.1c-0.4-0.4-0.8-0.6-1.4-0.6
				c-0.5,0-1,0.2-1.4,0.6C281.2,123.4,281.1,124,281.1,124.8z"/>
			<path d="M293.6,125.4l2.4-0.2c0.1,0.8,0.4,1.3,0.9,1.7c0.4,0.4,1,0.5,1.8,0.5c0.8,0,1.4-0.2,1.8-0.5c0.4-0.3,0.6-0.7,0.6-1.1
				c0-0.3-0.1-0.5-0.2-0.7c-0.2-0.2-0.5-0.4-0.9-0.5c-0.3-0.1-0.9-0.3-1.9-0.5c-1.3-0.3-2.2-0.7-2.7-1.1c-0.7-0.6-1.1-1.4-1.1-2.3
				c0-0.6,0.2-1.1,0.5-1.6c0.3-0.5,0.8-0.9,1.5-1.2c0.7-0.3,1.4-0.4,2.4-0.4c1.5,0,2.6,0.3,3.4,0.9c0.8,0.6,1.2,1.5,1.2,2.5
				l-2.4,0.1c-0.1-0.6-0.3-1-0.7-1.3s-0.9-0.4-1.5-0.4c-0.7,0-1.3,0.1-1.7,0.4c-0.3,0.2-0.4,0.4-0.4,0.7c0,0.3,0.1,0.5,0.4,0.7
				c0.3,0.2,1.1,0.5,2.2,0.8c1.2,0.3,2.1,0.5,2.6,0.8c0.6,0.3,1,0.7,1.3,1.2s0.5,1.1,0.5,1.8c0,0.7-0.2,1.3-0.6,1.8
				c-0.4,0.6-0.9,1-1.6,1.3s-1.6,0.4-2.6,0.4c-1.5,0-2.7-0.3-3.5-1C294.2,127.7,293.7,126.7,293.6,125.4z"/>
			<path d="M310.4,126.5l2.3,0.4c-0.3,0.8-0.8,1.4-1.4,1.8c-0.6,0.4-1.4,0.6-2.4,0.6c-1.5,0-2.6-0.5-3.4-1.4
				c-0.6-0.8-0.9-1.7-0.9-2.9c0-1.4,0.4-2.5,1.1-3.2c0.8-0.8,1.7-1.2,2.9-1.2c1.3,0,2.3,0.4,3.1,1.2c0.8,0.8,1.1,2.1,1.1,3.7h-5.8
				c0,0.7,0.2,1.2,0.6,1.5c0.4,0.4,0.8,0.5,1.3,0.5c0.4,0,0.7-0.1,0.9-0.3S310.3,126.9,310.4,126.5z M310.6,124.3
				c0-0.6-0.2-1.1-0.5-1.4c-0.3-0.3-0.7-0.5-1.2-0.5c-0.5,0-0.9,0.2-1.2,0.5c-0.3,0.3-0.5,0.8-0.5,1.4H310.6z"/>
			<path d="M316.9,129.1h-2.3v-8.3h2.1v1.2c0.4-0.6,0.7-0.9,1-1.1c0.3-0.2,0.6-0.3,1-0.3c0.5,0,1,0.1,1.5,0.4l-0.7,1.9
				c-0.4-0.2-0.8-0.4-1.1-0.4c-0.3,0-0.6,0.1-0.8,0.3c-0.2,0.2-0.4,0.5-0.5,0.9c-0.1,0.4-0.2,1.4-0.2,2.8V129.1z"/>
			<path d="M323.7,129.1l-3.5-8.3h2.4l1.6,4.2l0.5,1.4c0.1-0.4,0.2-0.6,0.2-0.7c0.1-0.2,0.2-0.5,0.2-0.7l1.7-4.2h2.4l-3.5,8.3H323.7
				z"/>
			<path d="M330.6,119.7v-2h2.3v2H330.6z M330.6,129.1v-8.3h2.3v8.3H330.6z"/>
			<path d="M342.9,123.3l-2.3,0.4c-0.1-0.4-0.2-0.8-0.5-1s-0.6-0.3-1.1-0.3c-0.6,0-1,0.2-1.4,0.6c-0.3,0.4-0.5,1-0.5,1.9
				c0,1,0.2,1.7,0.5,2.1s0.8,0.6,1.4,0.6c0.4,0,0.8-0.1,1.1-0.4c0.3-0.2,0.5-0.6,0.6-1.2l2.3,0.4c-0.2,1-0.7,1.7-1.4,2.2
				c-0.7,0.5-1.6,0.8-2.7,0.8c-1.3,0-2.3-0.4-3-1.1s-1.1-1.8-1.1-3.2c0-1.4,0.4-2.4,1.1-3.2c0.8-0.8,1.8-1.1,3.1-1.1
				c1.1,0,1.9,0.2,2.5,0.7C342.2,121.7,342.6,122.4,342.9,123.3z"/>
			<path d="M349.7,126.5l2.3,0.4c-0.3,0.8-0.8,1.4-1.4,1.8c-0.6,0.4-1.4,0.6-2.4,0.6c-1.5,0-2.6-0.5-3.4-1.4
				c-0.6-0.8-0.9-1.7-0.9-2.9c0-1.4,0.4-2.5,1.1-3.2c0.8-0.8,1.7-1.2,2.9-1.2c1.3,0,2.3,0.4,3.1,1.2c0.7,0.8,1.1,2.1,1.1,3.7h-5.8
				c0,0.7,0.2,1.2,0.6,1.5c0.4,0.4,0.8,0.5,1.3,0.5c0.4,0,0.7-0.1,0.9-0.3C349.4,127.2,349.6,126.9,349.7,126.5z M349.8,124.3
				c0-0.6-0.2-1.1-0.5-1.4c-0.3-0.3-0.7-0.5-1.2-0.5c-0.5,0-0.9,0.2-1.2,0.5c-0.3,0.3-0.5,0.8-0.5,1.4H349.8z"/>
		</g>
	</g>
	<g>
		<g>
			<path d="M574.8,303.5l4.1-6l-3.7-5.5h2.8l2.4,3.7l2.4-3.7h2.8l-3.7,5.6l4.1,5.9h-2.9l-2.7-4l-2.7,4H574.8z"/>
			<path d="M590.4,303.5v-4.8L586,292h2.8l2.8,4.5l2.8-4.5h2.8l-4.4,6.6v4.8H590.4z"/>
			<path d="M597.4,303.5v-2.1l6.3-7.4h-5.6V292h8.8v1.8l-6.6,7.7h6.8v1.9H597.4z"/>
			<path d="M612.6,301.1l2.3-0.3c0.1,0.4,0.3,0.8,0.6,1c0.3,0.2,0.7,0.3,1.3,0.3c0.6,0,1-0.1,1.3-0.3c0.2-0.1,0.3-0.3,0.3-0.6
				c0-0.2-0.1-0.3-0.2-0.4c-0.1-0.1-0.4-0.2-0.8-0.3c-1.9-0.4-3-0.7-3.5-1.1c-0.7-0.4-1-1.1-1-1.9c0-0.7,0.3-1.3,0.9-1.8
				c0.6-0.5,1.5-0.7,2.8-0.7c1.2,0,2.1,0.2,2.7,0.6c0.6,0.4,1,0.9,1.2,1.6l-2.2,0.4c-0.1-0.3-0.3-0.6-0.5-0.7
				c-0.3-0.2-0.6-0.3-1.1-0.3c-0.6,0-1,0.1-1.3,0.2c-0.2,0.1-0.3,0.3-0.3,0.4c0,0.2,0.1,0.3,0.2,0.4c0.2,0.1,0.9,0.4,2.2,0.6
				s2.1,0.6,2.6,1c0.5,0.4,0.7,0.9,0.7,1.6c0,0.8-0.3,1.4-1,2s-1.7,0.8-3,0.8c-1.2,0-2.1-0.2-2.8-0.7
				C613.2,302.5,612.8,301.9,612.6,301.1z"/>
			<path d="M627.8,300.8l2.3,0.4c-0.3,0.8-0.8,1.4-1.4,1.8c-0.6,0.4-1.4,0.6-2.4,0.6c-1.5,0-2.6-0.5-3.4-1.4
				c-0.6-0.8-0.9-1.7-0.9-2.9c0-1.4,0.4-2.5,1.1-3.2c0.8-0.8,1.7-1.2,2.9-1.2c1.3,0,2.3,0.4,3.1,1.2c0.7,0.8,1.1,2.1,1.1,3.7h-5.8
				c0,0.7,0.2,1.2,0.6,1.5c0.4,0.4,0.8,0.5,1.3,0.5c0.4,0,0.7-0.1,0.9-0.3C627.5,301.5,627.7,301.2,627.8,300.8z M627.9,298.6
				c0-0.6-0.2-1.1-0.5-1.4c-0.3-0.3-0.7-0.5-1.2-0.5c-0.5,0-0.9,0.2-1.2,0.5c-0.3,0.3-0.5,0.8-0.5,1.4H627.9z"/>
			<path d="M634.3,303.5H632v-8.3h2.1v1.2c0.4-0.6,0.7-0.9,1-1.1c0.3-0.2,0.6-0.3,1-0.3c0.5,0,1,0.1,1.5,0.4l-0.7,1.9
				c-0.4-0.2-0.7-0.4-1.1-0.4c-0.3,0-0.6,0.1-0.8,0.3c-0.2,0.2-0.4,0.5-0.5,0.9c-0.1,0.4-0.2,1.4-0.2,2.8V303.5z"/>
			<path d="M641,303.5l-3.5-8.3h2.4l1.6,4.2l0.5,1.4c0.1-0.4,0.2-0.6,0.2-0.7c0.1-0.2,0.2-0.5,0.2-0.7l1.7-4.2h2.4l-3.5,8.3H641z"/>
			<path d="M653,300.8l2.3,0.4c-0.3,0.8-0.8,1.4-1.4,1.8c-0.6,0.4-1.4,0.6-2.4,0.6c-1.5,0-2.6-0.5-3.4-1.4c-0.6-0.8-0.9-1.7-0.9-2.9
				c0-1.4,0.4-2.5,1.1-3.2c0.8-0.8,1.7-1.2,2.9-1.2c1.3,0,2.3,0.4,3.1,1.2c0.7,0.8,1.1,2.1,1.1,3.7h-5.8c0,0.7,0.2,1.2,0.6,1.5
				c0.4,0.4,0.8,0.5,1.3,0.5c0.4,0,0.7-0.1,0.9-0.3C652.7,301.5,652.9,301.2,653,300.8z M653.2,298.6c0-0.6-0.2-1.1-0.5-1.4
				c-0.3-0.3-0.7-0.5-1.2-0.5c-0.5,0-0.9,0.2-1.2,0.5c-0.3,0.3-0.5,0.8-0.5,1.4H653.2z"/>
			<path d="M659.5,303.5h-2.3v-8.3h2.1v1.2c0.4-0.6,0.7-0.9,1-1.1c0.3-0.2,0.6-0.3,1-0.3c0.5,0,1,0.1,1.5,0.4l-0.7,1.9
				c-0.4-0.2-0.7-0.4-1.1-0.4c-0.3,0-0.6,0.1-0.8,0.3c-0.2,0.2-0.4,0.5-0.5,0.9c-0.1,0.4-0.2,1.4-0.2,2.8V303.5z"/>
		</g>
	</g>
	<g>
		<path d="M45.7,124.9l2.4,0.7c-0.4,1.2-1,2.2-1.8,2.8c-0.8,0.6-1.9,0.9-3.2,0.9c-1.6,0-2.9-0.5-3.9-1.6s-1.5-2.5-1.5-4.3
			c0-1.9,0.5-3.4,1.6-4.4c1-1.1,2.4-1.6,4.1-1.6c1.5,0,2.7,0.4,3.6,1.2c0.5,0.5,1,1.2,1.2,2.1l-2.4,0.5c-0.1-0.6-0.4-1.1-0.9-1.4
			c-0.5-0.3-1-0.5-1.6-0.5c-0.9,0-1.6,0.3-2.2,0.9c-0.6,0.6-0.8,1.6-0.8,3c0,1.4,0.3,2.5,0.8,3.1c0.5,0.6,1.3,0.9,2.1,0.9
			c0.6,0,1.2-0.2,1.7-0.6C45.2,126.4,45.5,125.8,45.7,124.9z"/>
		<path d="M50.2,129.1v-11.5h2.3v11.5H50.2z"/>
		<path d="M54.3,124.9c0-0.7,0.2-1.4,0.6-2.1c0.4-0.7,0.9-1.2,1.6-1.6s1.5-0.5,2.3-0.5c1.3,0,2.4,0.4,3.2,1.2
			c0.8,0.8,1.3,1.8,1.3,3.1c0,1.3-0.4,2.3-1.3,3.1c-0.9,0.8-1.9,1.2-3.2,1.2c-0.8,0-1.6-0.2-2.3-0.5c-0.7-0.3-1.3-0.8-1.7-1.5
			C54.5,126.6,54.3,125.8,54.3,124.9z M56.7,125c0,0.8,0.2,1.5,0.6,1.9c0.4,0.4,0.9,0.7,1.5,0.7s1.1-0.2,1.5-0.7s0.6-1.1,0.6-1.9
			c0-0.8-0.2-1.4-0.6-1.9s-0.9-0.7-1.5-0.7s-1.1,0.2-1.5,0.7C56.9,123.5,56.7,124.2,56.7,125z"/>
		<path d="M70.8,129.1v-1.2c-0.3,0.4-0.7,0.8-1.3,1s-1.1,0.4-1.6,0.4c-0.6,0-1.1-0.1-1.6-0.4c-0.5-0.2-0.8-0.6-1-1
			c-0.2-0.4-0.3-1.1-0.3-1.8v-5.2h2.3v3.8c0,1.2,0,1.9,0.1,2.1c0.1,0.3,0.2,0.5,0.5,0.6c0.2,0.2,0.5,0.2,0.9,0.2
			c0.4,0,0.7-0.1,1.1-0.3c0.3-0.2,0.5-0.5,0.6-0.8c0.1-0.3,0.2-1.1,0.2-2.2v-3.5H73v8.3H70.8z"/>
		<path d="M83.4,129.1h-2.1v-1.2c-0.4,0.5-0.8,0.8-1.3,1.1c-0.5,0.2-1,0.3-1.5,0.3c-1,0-1.9-0.4-2.6-1.2c-0.7-0.8-1.1-1.8-1.1-3.2
			c0-1.4,0.3-2.5,1-3.2c0.7-0.7,1.6-1.1,2.6-1.1c1,0,1.8,0.4,2.5,1.2v-4.1h2.3V129.1z M77.2,124.8c0,0.9,0.1,1.5,0.4,1.9
			c0.4,0.6,0.9,0.9,1.6,0.9c0.5,0,1-0.2,1.4-0.6c0.4-0.4,0.6-1.1,0.6-1.9c0-1-0.2-1.6-0.5-2.1c-0.4-0.4-0.8-0.6-1.4-0.6
			c-0.5,0-1,0.2-1.4,0.6S77.2,124,77.2,124.8z"/>
		<path d="M89.7,125.4l2.4-0.2c0.1,0.8,0.4,1.3,0.9,1.7c0.4,0.4,1,0.5,1.8,0.5c0.8,0,1.4-0.2,1.8-0.5c0.4-0.3,0.6-0.7,0.6-1.1
			c0-0.3-0.1-0.5-0.2-0.7c-0.2-0.2-0.5-0.4-0.9-0.5c-0.3-0.1-0.9-0.3-1.9-0.5c-1.3-0.3-2.2-0.7-2.7-1.1c-0.7-0.6-1.1-1.4-1.1-2.3
			c0-0.6,0.2-1.1,0.5-1.6s0.8-0.9,1.5-1.2s1.4-0.4,2.4-0.4c1.5,0,2.6,0.3,3.4,0.9c0.8,0.6,1.2,1.5,1.2,2.5l-2.4,0.1
			c-0.1-0.6-0.3-1-0.7-1.3s-0.9-0.4-1.5-0.4c-0.7,0-1.3,0.1-1.7,0.4c-0.3,0.2-0.4,0.4-0.4,0.7c0,0.3,0.1,0.5,0.4,0.7
			c0.3,0.2,1,0.5,2.2,0.8s2.1,0.5,2.6,0.8c0.6,0.3,1,0.7,1.3,1.2s0.5,1.1,0.5,1.8c0,0.7-0.2,1.3-0.6,1.8c-0.4,0.6-0.9,1-1.6,1.3
			c-0.7,0.3-1.6,0.4-2.6,0.4c-1.5,0-2.7-0.3-3.5-1C90.4,127.7,89.9,126.7,89.7,125.4z"/>
		<path d="M106.6,126.5l2.3,0.4c-0.3,0.8-0.8,1.4-1.4,1.8c-0.6,0.4-1.4,0.6-2.4,0.6c-1.5,0-2.6-0.5-3.4-1.4
			c-0.6-0.8-0.9-1.7-0.9-2.9c0-1.4,0.4-2.5,1.1-3.2c0.8-0.8,1.7-1.2,2.9-1.2c1.3,0,2.3,0.4,3.1,1.2c0.7,0.8,1.1,2.1,1.1,3.7h-5.8
			c0,0.7,0.2,1.2,0.6,1.5c0.4,0.4,0.8,0.5,1.3,0.5c0.4,0,0.7-0.1,0.9-0.3C106.3,127.2,106.4,126.9,106.6,126.5z M106.7,124.3
			c0-0.6-0.2-1.1-0.5-1.4c-0.3-0.3-0.7-0.5-1.2-0.5c-0.5,0-0.9,0.2-1.2,0.5c-0.3,0.3-0.5,0.8-0.5,1.4H106.7z"/>
		<path d="M113.1,129.1h-2.3v-8.3h2.1v1.2c0.4-0.6,0.7-0.9,1-1.1c0.3-0.2,0.6-0.3,1-0.3c0.5,0,1,0.1,1.5,0.4l-0.7,1.9
			c-0.4-0.2-0.8-0.4-1.1-0.4c-0.3,0-0.6,0.1-0.8,0.3c-0.2,0.2-0.4,0.5-0.5,0.9c-0.1,0.4-0.2,1.4-0.2,2.8V129.1z"/>
		<path d="M119.8,129.1l-3.5-8.3h2.4l1.6,4.2l0.5,1.4c0.1-0.4,0.2-0.6,0.2-0.7c0.1-0.2,0.2-0.5,0.2-0.7l1.7-4.2h2.4l-3.5,8.3H119.8z
			"/>
		<path d="M126.8,119.7v-2h2.3v2H126.8z M126.8,129.1v-8.3h2.3v8.3H126.8z"/>
		<path d="M139,123.3l-2.3,0.4c-0.1-0.4-0.3-0.8-0.5-1c-0.3-0.2-0.6-0.3-1.1-0.3c-0.6,0-1,0.2-1.4,0.6c-0.3,0.4-0.5,1-0.5,1.9
			c0,1,0.2,1.7,0.5,2.1s0.8,0.6,1.4,0.6c0.4,0,0.8-0.1,1.1-0.4c0.3-0.2,0.5-0.6,0.6-1.2l2.3,0.4c-0.2,1-0.7,1.7-1.4,2.2
			c-0.7,0.5-1.6,0.8-2.7,0.8c-1.3,0-2.3-0.4-3.1-1.1c-0.8-0.8-1.1-1.8-1.1-3.2c0-1.4,0.4-2.4,1.1-3.2c0.8-0.8,1.8-1.1,3.1-1.1
			c1.1,0,1.9,0.2,2.5,0.7C138.3,121.7,138.8,122.4,139,123.3z"/>
		<path d="M145.8,126.5l2.3,0.4c-0.3,0.8-0.8,1.4-1.4,1.8c-0.6,0.4-1.4,0.6-2.4,0.6c-1.5,0-2.6-0.5-3.4-1.4
			c-0.6-0.8-0.9-1.7-0.9-2.9c0-1.4,0.4-2.5,1.1-3.2c0.8-0.8,1.7-1.2,2.9-1.2c1.3,0,2.3,0.4,3.1,1.2c0.8,0.8,1.1,2.1,1.1,3.7h-5.8
			c0,0.7,0.2,1.2,0.6,1.5c0.4,0.4,0.8,0.5,1.3,0.5c0.4,0,0.7-0.1,0.9-0.3S145.7,126.9,145.8,126.5z M146,124.3
			c0-0.6-0.2-1.1-0.5-1.4c-0.3-0.3-0.7-0.5-1.2-0.5c-0.5,0-0.9,0.2-1.2,0.5c-0.3,0.3-0.5,0.8-0.5,1.4H146z"/>
	</g>
	<g>
		<g>
			
				<line fill="none" stroke="#EC1B52" stroke-width="3" stroke-miterlimit="10" stroke-dasharray="6,6" x1="221.2" y1="343.7" x2="263.6" y2="181"/>
			<g>
				<path fill="#EC1B52" d="M265.9,172.3c0.5,4.5,1.7,10.3,3.7,14.2l-6.3-4.3l-7.6,0.7C259.3,180.4,263.3,176,265.9,172.3z"/>
			</g>
		</g>
	</g>
	<path d="M301.7,406.6c-1.9-0.8-7-2.2-7-2.2l-0.4-0.1c0,0-5-1.4-7.1-1.7c-3.6-0.5-6.3-1.3-8.3,5.9c-0.7,2.4-10.7,38.8-11.7,42.4
		c-1,3.6,1.2,6.7,5,7.8s6.6,1.8,6.6,1.8l0.4,0.1c0,0,2.9,0.8,6.6,1.8c3.8,1,7.3-0.5,8.3-4.1c1-3.6,11-39.9,11.7-42.4
		C307.8,408.7,305.1,408.1,301.7,406.6z M291.4,405.4l5.1,1.4c0.2,0,0.3,0.2,0.2,0.4c-0.1,0.2-0.2,0.3-0.4,0.3l-5.1-1.4
		c-0.2-0.1-0.3-0.2-0.2-0.4C291.1,405.4,291.3,405.3,291.4,405.4z M282.7,459c-0.1,0.3-0.4,0.5-0.6,0.4l-5-1.4
		c-0.3-0.1-0.4-0.4-0.4-0.7l0.2-0.8c0.1-0.3,0.4-0.5,0.7-0.4l5,1.4c0.3,0.1,0.4,0.4,0.4,0.7L282.7,459z M292.5,456.1l-22.9-6.3
		l11.7-42.4l22.9,6.3L292.5,456.1z"/>
	<g>
		<g>
			<path d="M174.3,477.8l-2.8-8.3h2.2l1.6,5.4l1.5-5.4h2.2l1.5,5.4l1.7-5.4h2.3l-2.8,8.3h-2.2l-1.5-5.3l-1.5,5.3H174.3z"/>
			<path d="M190.8,475.1l2.3,0.4c-0.3,0.8-0.8,1.4-1.4,1.8c-0.6,0.4-1.4,0.6-2.4,0.6c-1.5,0-2.6-0.5-3.4-1.4
				c-0.6-0.8-0.9-1.7-0.9-2.9c0-1.4,0.4-2.5,1.1-3.2c0.8-0.8,1.7-1.2,2.9-1.2c1.3,0,2.3,0.4,3.1,1.2c0.8,0.8,1.1,2.1,1.1,3.7h-5.8
				c0,0.7,0.2,1.2,0.6,1.5c0.4,0.4,0.8,0.5,1.3,0.5c0.4,0,0.7-0.1,0.9-0.3S190.7,475.5,190.8,475.1z M190.9,472.9
				c0-0.6-0.2-1.1-0.5-1.4c-0.3-0.3-0.7-0.5-1.2-0.5c-0.5,0-0.9,0.2-1.2,0.5c-0.3,0.3-0.5,0.8-0.5,1.4H190.9z"/>
			<path d="M195,477.8v-11.5h2.3v4.1c0.7-0.8,1.6-1.2,2.5-1.2c1.1,0,1.9,0.4,2.6,1.1c0.7,0.7,1,1.8,1,3.2c0,1.4-0.4,2.5-1.1,3.3
				c-0.7,0.8-1.6,1.1-2.6,1.1c-0.5,0-1-0.1-1.5-0.4s-0.9-0.6-1.3-1.1v1.2H195z M197.3,473.4c0,0.9,0.1,1.5,0.4,1.9
				c0.4,0.6,0.9,0.9,1.6,0.9c0.5,0,0.9-0.2,1.3-0.6c0.4-0.4,0.5-1.1,0.5-2c0-0.9-0.2-1.6-0.5-2.1c-0.4-0.4-0.8-0.6-1.4-0.6
				c-0.6,0-1,0.2-1.4,0.6C197.5,472,197.3,472.6,197.3,473.4z"/>
			<path d="M204.6,475.4l2.3-0.3c0.1,0.4,0.3,0.8,0.6,1c0.3,0.2,0.7,0.3,1.3,0.3c0.6,0,1-0.1,1.3-0.3c0.2-0.1,0.3-0.3,0.3-0.6
				c0-0.2-0.1-0.3-0.2-0.4c-0.1-0.1-0.4-0.2-0.8-0.3c-1.9-0.4-3-0.7-3.5-1.1c-0.7-0.4-1-1.1-1-1.9c0-0.7,0.3-1.3,0.9-1.8
				c0.6-0.5,1.5-0.7,2.8-0.7c1.2,0,2.1,0.2,2.7,0.6c0.6,0.4,1,0.9,1.2,1.6l-2.2,0.4c-0.1-0.3-0.3-0.6-0.5-0.7s-0.6-0.3-1.1-0.3
				c-0.6,0-1,0.1-1.3,0.2c-0.2,0.1-0.3,0.3-0.3,0.4c0,0.2,0.1,0.3,0.2,0.4c0.2,0.1,0.9,0.4,2.2,0.6s2.1,0.6,2.6,1
				c0.5,0.4,0.7,0.9,0.7,1.6c0,0.8-0.3,1.4-1,2s-1.7,0.8-3,0.8c-1.2,0-2.1-0.2-2.8-0.7C205.2,476.8,204.8,476.2,204.6,475.4z"/>
			<path d="M214.7,468.3v-2h2.3v2H214.7z M214.7,477.8v-8.3h2.3v8.3H214.7z"/>
			<path d="M223.4,469.5v1.8h-1.6v3.3c0,0.7,0,1.1,0,1.2c0,0.1,0.1,0.2,0.2,0.3c0.1,0.1,0.2,0.1,0.4,0.1c0.2,0,0.5-0.1,0.9-0.2
				l0.2,1.7c-0.5,0.2-1.1,0.3-1.8,0.3c-0.4,0-0.8-0.1-1.1-0.2s-0.6-0.3-0.7-0.5s-0.3-0.5-0.3-0.9c0-0.3-0.1-0.8-0.1-1.5v-3.6h-1.1
				v-1.8h1.1v-1.6l2.3-1.3v2.9H223.4z"/>
			<path d="M230,475.1l2.3,0.4c-0.3,0.8-0.8,1.4-1.4,1.8c-0.6,0.4-1.4,0.6-2.4,0.6c-1.5,0-2.6-0.5-3.4-1.4c-0.6-0.8-0.9-1.7-0.9-2.9
				c0-1.4,0.4-2.5,1.1-3.2c0.8-0.8,1.7-1.2,2.9-1.2c1.3,0,2.3,0.4,3.1,1.2c0.8,0.8,1.1,2.1,1.1,3.7h-5.8c0,0.7,0.2,1.2,0.6,1.5
				c0.4,0.4,0.8,0.5,1.3,0.5c0.4,0,0.7-0.1,0.9-0.3S229.9,475.5,230,475.1z M230.2,472.9c0-0.6-0.2-1.1-0.5-1.4
				c-0.3-0.3-0.7-0.5-1.2-0.5c-0.5,0-0.9,0.2-1.2,0.5c-0.3,0.3-0.5,0.8-0.5,1.4H230.2z"/>
		</g>
	</g>
	<g>
		<g>
			<path d="M135.5,245.5l-0.8,0.5c-0.2-0.3-0.3-0.5-0.4-0.7c-0.1-0.4-0.2-0.7-0.2-0.9c0-0.3,0.1-0.5,0.3-0.6s0.5-0.4,1.1-0.6
				l3.3-1.3l-0.3-0.8l0.8-0.3l0.3,0.8l1.4-0.6l1,0.8l-2,0.8l0.4,1l-0.8,0.3l-0.4-1l-3.4,1.3c-0.3,0.1-0.5,0.2-0.5,0.3
				c-0.1,0.1-0.1,0.2-0.1,0.3c0,0.1,0,0.2,0.1,0.4C135.3,245.2,135.4,245.4,135.5,245.5z"/>
			<path d="M138.5,250.3l0.3,1.1c-0.7,0.1-1.2-0.1-1.7-0.4c-0.5-0.3-0.9-0.8-1.2-1.5c-0.4-0.9-0.4-1.7-0.1-2.4
				c0.3-0.7,0.9-1.3,1.9-1.6c1-0.4,1.8-0.4,2.6-0.1c0.7,0.3,1.3,0.9,1.6,1.7c0.3,0.8,0.3,1.6,0,2.3c-0.3,0.7-1,1.3-1.9,1.6
				c-0.1,0-0.1,0.1-0.3,0.1l-1.8-4.5c-0.6,0.3-1,0.7-1.2,1.1c-0.2,0.5-0.2,1,0,1.5c0.1,0.4,0.4,0.7,0.7,0.9
				C137.7,250.2,138.1,250.3,138.5,250.3z M138.8,246.3l1.3,3.4c0.5-0.2,0.8-0.5,0.9-0.8c0.2-0.5,0.3-1,0.1-1.5
				c-0.2-0.5-0.5-0.8-0.9-1C139.8,246.2,139.3,246.2,138.8,246.3z"/>
			<path d="M137.3,252.7l3.9,1l2-3.2l0.5,1.3l-1,1.5c-0.2,0.3-0.3,0.5-0.5,0.7c0.3,0.1,0.6,0.1,0.8,0.2l1.8,0.5l0.5,1.2l-3.6-1
				l-2.2,3.5l-0.5-1.3l1.3-2l0.4-0.5l-2.9-0.7L137.3,252.7z"/>
			<path d="M141.7,261.2l-0.8,0.5c-0.2-0.3-0.3-0.5-0.4-0.7c-0.1-0.4-0.2-0.7-0.2-0.9c0-0.3,0.1-0.5,0.3-0.6s0.5-0.4,1.1-0.6
				l3.3-1.3l-0.3-0.8l0.8-0.3l0.3,0.8l1.4-0.6l1,0.8l-2,0.8l0.4,1l-0.8,0.3l-0.4-1l-3.4,1.3c-0.3,0.1-0.5,0.2-0.5,0.3
				c-0.1,0.1-0.1,0.2-0.1,0.3c0,0.1,0,0.2,0.1,0.4C141.5,260.9,141.6,261,141.7,261.2z"/>
			<path d="M142.5,265.8l8-3.1l0.4,1l-2.9,1.1c0.7,0.3,1.2,0.8,1.5,1.5c0.2,0.5,0.2,0.9,0.2,1.3s-0.2,0.7-0.4,1
				c-0.2,0.3-0.6,0.5-1.2,0.7l-3.7,1.4l-0.4-1l3.7-1.4c0.5-0.2,0.8-0.4,0.9-0.8s0.1-0.7,0-1.1c-0.1-0.3-0.3-0.6-0.6-0.8
				s-0.5-0.3-0.8-0.3c-0.3,0-0.7,0.1-1.1,0.2l-3.2,1.2L142.5,265.8z"/>
			<path d="M148.6,275.8l0.3,1.1c-0.7,0.1-1.2-0.1-1.7-0.4c-0.5-0.3-0.9-0.8-1.2-1.5c-0.4-0.9-0.4-1.7-0.1-2.4
				c0.3-0.7,0.9-1.3,1.9-1.6c1-0.4,1.8-0.4,2.6-0.1c0.7,0.3,1.3,0.9,1.6,1.7c0.3,0.8,0.3,1.6,0,2.3c-0.3,0.7-1,1.3-1.9,1.6
				c-0.1,0-0.1,0.1-0.3,0.1L148,272c-0.6,0.3-1,0.7-1.2,1.1c-0.2,0.5-0.2,1,0,1.5c0.1,0.4,0.4,0.7,0.7,0.9
				C147.7,275.7,148.1,275.8,148.6,275.8z M148.8,271.8l1.3,3.4c0.5-0.2,0.8-0.5,0.9-0.8c0.2-0.5,0.3-1,0.1-1.5
				c-0.2-0.5-0.5-0.8-0.9-1C149.8,271.6,149.3,271.6,148.8,271.8z"/>
			<path d="M147.6,278.9l5.8-2.3l0.4,0.9l-0.9,0.3c0.5,0.1,0.9,0.2,1.1,0.3s0.4,0.3,0.5,0.6c0.1,0.3,0.2,0.7,0.1,1.2l-1.1,0
				c0-0.3,0-0.6-0.1-0.8c-0.1-0.2-0.2-0.4-0.4-0.5c-0.2-0.1-0.4-0.2-0.7-0.2c-0.4,0-0.8,0.1-1.2,0.3l-3,1.2L147.6,278.9z"/>
			<path d="M152.7,286.2l0.3,1.1c-0.7,0.1-1.2-0.1-1.7-0.4c-0.5-0.3-0.9-0.8-1.2-1.5c-0.4-0.9-0.4-1.7-0.1-2.4
				c0.3-0.7,0.9-1.3,1.9-1.6c1-0.4,1.8-0.4,2.6-0.1c0.7,0.3,1.3,0.9,1.6,1.7c0.3,0.8,0.3,1.6,0,2.3c-0.3,0.7-1,1.3-1.9,1.6
				c-0.1,0-0.1,0.1-0.3,0.1l-1.8-4.5c-0.6,0.3-1,0.7-1.2,1.1c-0.2,0.5-0.2,1,0,1.5c0.1,0.4,0.4,0.7,0.7,0.9
				C151.8,286.1,152.2,286.2,152.7,286.2z M152.9,282.2l1.3,3.4c0.5-0.2,0.8-0.5,0.9-0.8c0.2-0.5,0.3-1,0.1-1.5
				c-0.2-0.5-0.5-0.8-0.9-1C153.9,282,153.4,282,152.9,282.2z"/>
		</g>
	</g>
	<g>
		<g>
			<path d="M220.5,308.9l0.1-1.1c0.4,0,0.8,0,1.1-0.3c0.3-0.2,0.5-0.6,0.6-1.1c0.1-0.5,0.1-0.9,0-1.2c-0.1-0.3-0.3-0.5-0.6-0.5
				c-0.2-0.1-0.4,0-0.6,0.2c-0.1,0.1-0.3,0.5-0.6,1c-0.4,0.7-0.7,1.2-0.9,1.5s-0.5,0.4-0.8,0.5c-0.3,0.1-0.6,0.1-0.9,0
				c-0.3-0.1-0.5-0.2-0.7-0.4c-0.2-0.2-0.3-0.4-0.4-0.7c-0.1-0.2-0.1-0.5-0.1-0.8c0-0.3,0-0.6,0.1-1c0.1-0.5,0.3-0.9,0.5-1.3
				c0.2-0.3,0.5-0.6,0.8-0.7c0.3-0.1,0.6-0.2,1-0.1l-0.1,1.1c-0.3,0-0.6,0-0.8,0.2c-0.2,0.2-0.4,0.5-0.5,0.9c-0.1,0.5-0.1,0.9,0,1.1
				c0.1,0.3,0.3,0.4,0.5,0.5c0.1,0,0.3,0,0.4,0c0.1-0.1,0.3-0.2,0.4-0.3c0.1-0.1,0.2-0.4,0.5-0.9c0.4-0.7,0.7-1.2,0.9-1.5
				c0.2-0.3,0.4-0.5,0.7-0.6s0.6-0.1,0.9,0c0.3,0.1,0.6,0.3,0.9,0.6c0.2,0.3,0.4,0.6,0.5,1.1s0,0.9-0.1,1.4c-0.2,0.8-0.5,1.4-1,1.8
				C221.7,308.8,221.2,308.9,220.5,308.9z"/>
			<path d="M220.9,302.4c-1.1-0.3-1.9-0.8-2.2-1.6c-0.3-0.7-0.4-1.4-0.1-2.2c0.2-0.9,0.7-1.5,1.4-1.9c0.7-0.4,1.5-0.5,2.5-0.2
				c0.8,0.2,1.4,0.5,1.7,0.8c0.4,0.4,0.6,0.8,0.8,1.3c0.1,0.5,0.1,1.1,0,1.6c-0.2,0.9-0.7,1.5-1.4,1.9
				C222.8,302.6,221.9,302.7,220.9,302.4z M221.2,301.3c0.8,0.2,1.4,0.2,1.9-0.1c0.5-0.3,0.8-0.6,0.9-1.2c0.1-0.5,0.1-1-0.2-1.5
				c-0.3-0.5-0.8-0.8-1.6-1c-0.7-0.2-1.4-0.2-1.8,0.1c-0.5,0.3-0.8,0.6-0.9,1.2c-0.1,0.5-0.1,1,0.2,1.5
				C219.9,300.8,220.4,301.1,221.2,301.3z"/>
			<path d="M225.8,296l-6-1.6l0.3-1l0.8,0.2c-0.2-0.3-0.4-0.6-0.5-1c-0.1-0.4-0.1-0.8,0-1.2c0.1-0.5,0.3-0.8,0.6-1.1
				c0.3-0.3,0.6-0.4,0.9-0.4c-0.6-0.7-0.8-1.4-0.5-2.2c0.2-0.6,0.5-1.1,0.9-1.3c0.4-0.2,1-0.3,1.7-0.1l4.1,1.1l-0.3,1.1l-3.8-1
				c-0.4-0.1-0.7-0.1-0.9-0.1c-0.2,0-0.4,0.1-0.5,0.3c-0.2,0.2-0.3,0.4-0.3,0.6c-0.1,0.4-0.1,0.9,0.1,1.2s0.6,0.6,1.2,0.8l3.5,0.9
				l-0.3,1.1l-3.9-1c-0.5-0.1-0.8-0.1-1.1,0s-0.5,0.4-0.6,0.8c-0.1,0.3-0.1,0.6,0,0.9c0.1,0.3,0.3,0.5,0.5,0.7
				c0.3,0.2,0.7,0.4,1.2,0.5l3.1,0.8L225.8,296z"/>
			<path d="M227.7,281l0.4-1.1c0.6,0.3,1,0.8,1.2,1.3c0.2,0.6,0.2,1.2,0,1.9c-0.2,0.9-0.7,1.6-1.4,2c-0.7,0.4-1.5,0.5-2.5,0.2
				c-1-0.3-1.7-0.7-2.1-1.4c-0.4-0.7-0.5-1.5-0.3-2.4c0.2-0.8,0.7-1.5,1.4-1.9c0.7-0.4,1.5-0.5,2.5-0.2c0.1,0,0.2,0,0.3,0.1
				l-1.2,4.7c0.7,0.1,1.2,0.1,1.7-0.2c0.4-0.3,0.7-0.7,0.9-1.2c0.1-0.4,0.1-0.8,0-1.1S228.1,281.3,227.7,281z M225.1,284.1l0.9-3.5
				c-0.5-0.1-0.9-0.1-1.2,0.1c-0.5,0.2-0.8,0.6-0.9,1.2c-0.1,0.5-0.1,0.9,0.1,1.4C224.2,283.6,224.6,283.9,225.1,284.1z"/>
			<path d="M231.2,275.7l-6-1.6l0.3-1l0.8,0.2c-0.2-0.3-0.4-0.6-0.5-1c-0.1-0.4-0.1-0.8,0-1.2c0.1-0.5,0.3-0.8,0.6-1.1
				c0.3-0.3,0.6-0.4,0.9-0.4c-0.6-0.7-0.8-1.4-0.5-2.2c0.2-0.6,0.5-1.1,0.9-1.3c0.4-0.2,1-0.3,1.7-0.1l4.1,1.1l-0.3,1.1l-3.8-1
				c-0.4-0.1-0.7-0.1-0.9-0.1c-0.2,0-0.4,0.1-0.5,0.3c-0.2,0.2-0.3,0.4-0.3,0.6c-0.1,0.4-0.1,0.9,0.1,1.2s0.6,0.6,1.2,0.8l3.5,0.9
				l-0.3,1.1l-3.9-1c-0.5-0.1-0.8-0.1-1.1,0s-0.5,0.4-0.6,0.8c-0.1,0.3-0.1,0.6,0,0.9c0.1,0.3,0.3,0.5,0.5,0.7
				c0.3,0.2,0.7,0.4,1.2,0.5l3.1,0.8L231.2,275.7z"/>
			<path d="M230.7,265.2c-1.1-0.3-1.9-0.8-2.2-1.6c-0.3-0.7-0.4-1.4-0.1-2.2c0.2-0.9,0.7-1.5,1.4-1.9s1.5-0.5,2.5-0.2
				c0.8,0.2,1.4,0.5,1.7,0.8c0.4,0.4,0.6,0.8,0.8,1.3c0.1,0.5,0.1,1.1,0,1.6c-0.2,0.9-0.7,1.5-1.4,1.9
				C232.6,265.4,231.7,265.4,230.7,265.2z M231,264.1c0.8,0.2,1.4,0.2,1.9-0.1c0.5-0.3,0.8-0.6,0.9-1.2c0.1-0.5,0.1-1-0.2-1.5
				c-0.3-0.5-0.8-0.8-1.6-1c-0.7-0.2-1.4-0.2-1.8,0.1c-0.5,0.3-0.8,0.6-0.9,1.2c-0.1,0.5-0.1,1,0.2,1.5
				C229.7,263.5,230.2,263.9,231,264.1z"/>
			<path d="M235.6,258.8l-6-1.6l0.3-1l0.9,0.2c-0.4-0.4-0.6-0.7-0.7-0.9s-0.1-0.5,0-0.7c0.1-0.4,0.3-0.7,0.6-1l0.8,0.6
				c-0.2,0.2-0.4,0.5-0.4,0.7c-0.1,0.2-0.1,0.5,0,0.7c0.1,0.2,0.2,0.4,0.5,0.5c0.3,0.2,0.7,0.4,1.1,0.5l3.2,0.8L235.6,258.8z"/>
			<path d="M235.9,249.9l0.4-1.1c0.6,0.3,1,0.8,1.2,1.3c0.2,0.6,0.2,1.2,0,1.9c-0.2,0.9-0.7,1.6-1.4,2c-0.7,0.4-1.5,0.5-2.5,0.2
				c-1-0.3-1.7-0.7-2.1-1.4c-0.4-0.7-0.5-1.5-0.3-2.4c0.2-0.8,0.7-1.5,1.4-1.9c0.7-0.4,1.5-0.5,2.5-0.2c0.1,0,0.2,0,0.3,0.1
				l-1.2,4.7c0.7,0.1,1.2,0.1,1.7-0.2c0.4-0.3,0.7-0.7,0.9-1.2c0.1-0.4,0.1-0.8,0-1.1S236.3,250.1,235.9,249.9z M233.3,252.9
				l0.9-3.5c-0.5-0.1-0.9-0.1-1.2,0.1c-0.5,0.2-0.8,0.6-0.9,1.2c-0.1,0.5-0.1,0.9,0.1,1.4C232.4,252.5,232.8,252.8,233.3,252.9z"/>
			<path d="M237.5,244.5l0.1-1.1c0.4,0,0.8,0,1.1-0.3c0.3-0.2,0.5-0.6,0.6-1.1c0.1-0.5,0.1-0.9,0-1.2c-0.1-0.3-0.3-0.5-0.6-0.5
				c-0.2-0.1-0.4,0-0.6,0.2c-0.1,0.1-0.3,0.5-0.6,1c-0.4,0.7-0.7,1.2-0.9,1.5s-0.5,0.4-0.8,0.5c-0.3,0.1-0.6,0.1-0.9,0
				c-0.3-0.1-0.5-0.2-0.7-0.4c-0.2-0.2-0.3-0.4-0.4-0.7c-0.1-0.2-0.1-0.5-0.1-0.8c0-0.3,0-0.6,0.1-1c0.1-0.5,0.3-0.9,0.5-1.3
				c0.2-0.3,0.5-0.6,0.8-0.7c0.3-0.1,0.6-0.2,1-0.1l-0.1,1.1c-0.3,0-0.6,0-0.8,0.2c-0.2,0.2-0.4,0.5-0.5,0.9c-0.1,0.5-0.1,0.9,0,1.1
				c0.1,0.3,0.3,0.4,0.5,0.5c0.1,0,0.3,0,0.4,0c0.1-0.1,0.3-0.2,0.4-0.3c0.1-0.1,0.2-0.4,0.5-0.9c0.4-0.7,0.7-1.2,0.9-1.5
				c0.2-0.3,0.4-0.5,0.7-0.6s0.6-0.1,0.9,0c0.3,0.1,0.6,0.3,0.9,0.6c0.2,0.3,0.4,0.6,0.5,1.1s0,0.9-0.1,1.4c-0.2,0.8-0.5,1.4-1,1.8
				C238.7,244.4,238.1,244.5,237.5,244.5z"/>
			<path d="M240.7,235.9l0.9,0.1c0,0.3-0.1,0.6-0.1,0.8c-0.1,0.4-0.2,0.7-0.4,0.9s-0.4,0.3-0.6,0.3s-0.6,0-1.2-0.2l-3.5-0.9
				l-0.2,0.8l-0.8-0.2l0.2-0.8l-1.5-0.4l-0.3-1.2l2.1,0.6l0.3-1.1l0.8,0.2l-0.3,1.1l3.5,0.9c0.3,0.1,0.5,0.1,0.6,0.1
				c0.1,0,0.2-0.1,0.2-0.1c0.1-0.1,0.1-0.2,0.2-0.3C240.6,236.2,240.7,236.1,240.7,235.9z"/>
			<path d="M243,230.9l-0.9-0.2c0.6,0.7,0.7,1.4,0.5,2.3c-0.1,0.4-0.3,0.7-0.5,1c-0.2,0.3-0.5,0.5-0.7,0.6c-0.2,0.1-0.5,0.1-0.8,0.1
				c-0.2,0-0.5-0.1-1-0.2l-3.7-1l0.3-1.1l3.3,0.9c0.5,0.1,0.9,0.2,1.1,0.2c0.3,0,0.5-0.1,0.7-0.3c0.2-0.2,0.4-0.4,0.4-0.7
				c0.1-0.3,0.1-0.6,0-1c-0.1-0.3-0.2-0.6-0.5-0.8c-0.2-0.2-0.6-0.4-1.1-0.5l-3.2-0.9l0.3-1.1l6,1.6L243,230.9z"/>
			<path d="M243.7,228l-5.2-1.4l-0.2,0.9l-0.8-0.2l0.2-0.9l-0.6-0.2c-0.4-0.1-0.7-0.2-0.9-0.4c-0.2-0.2-0.4-0.4-0.5-0.7
				s-0.1-0.7,0-1.2c0.1-0.3,0.2-0.6,0.4-1l0.8,0.4c-0.1,0.2-0.2,0.4-0.2,0.6c-0.1,0.3-0.1,0.6,0,0.7c0.1,0.2,0.3,0.3,0.7,0.4
				l0.6,0.1l0.3-1.2l0.8,0.2l-0.3,1.2l5.2,1.4L243.7,228z"/>
			<path d="M244.6,224.8l-5.2-1.4l-0.2,0.9l-0.8-0.2l0.2-0.9l-0.6-0.2c-0.4-0.1-0.7-0.2-0.9-0.4c-0.2-0.2-0.4-0.4-0.5-0.7
				c-0.1-0.3-0.1-0.7,0-1.2c0.1-0.3,0.2-0.6,0.4-1l0.8,0.4c-0.1,0.2-0.2,0.4-0.2,0.6c-0.1,0.3-0.1,0.6,0,0.7
				c0.1,0.2,0.3,0.3,0.7,0.4l0.6,0.1l0.3-1.2l0.8,0.2l-0.3,1.2l5.2,1.4L244.6,224.8z"/>
		</g>
	</g>
	<g>
		<g>
			
				<line fill="none" stroke="#EC1B52" stroke-width="3" stroke-miterlimit="10" stroke-dasharray="6,6" x1="551.8" y1="294.5" x2="295.7" y2="382.8"/>
			<g>
				<path fill="#EC1B52" d="M287.2,385.7c3.5-2.9,7.6-7.2,9.8-10.9l-0.1,7.6l4.8,5.9C297.6,386.7,291.7,385.8,287.2,385.7z"/>
			</g>
		</g>
	</g>
	<g>
		<g>
			<path d="M377.9,345.1c-0.3,0.4-0.6,0.8-0.9,1s-0.7,0.4-1.1,0.6c-0.7,0.2-1.3,0.2-1.7,0.1c-0.5-0.2-0.8-0.5-1-1
				c-0.1-0.3-0.1-0.6-0.1-0.9c0.1-0.3,0.2-0.5,0.4-0.8c0.2-0.2,0.4-0.4,0.6-0.6c0.2-0.1,0.5-0.3,0.9-0.5c0.8-0.4,1.4-0.7,1.8-1
				c0-0.1-0.1-0.2-0.1-0.3c-0.1-0.4-0.3-0.7-0.6-0.8c-0.3-0.1-0.8-0.1-1.3,0.1c-0.5,0.2-0.8,0.4-1,0.6c-0.2,0.2-0.3,0.6-0.2,1.1
				l-1.1,0.2c0-0.4,0-0.8,0.1-1.2s0.4-0.6,0.7-0.9c0.4-0.3,0.8-0.5,1.3-0.7c0.5-0.2,1-0.3,1.3-0.3c0.4,0,0.7,0.1,0.9,0.2
				c0.2,0.1,0.4,0.3,0.6,0.6c0.1,0.2,0.2,0.5,0.4,0.9l0.4,1.3c0.3,0.9,0.5,1.5,0.7,1.7c0.1,0.2,0.3,0.4,0.5,0.6l-1.1,0.4
				C378.1,345.6,378,345.4,377.9,345.1z M377,342.9c-0.3,0.3-0.9,0.6-1.6,1c-0.4,0.2-0.7,0.4-0.8,0.5s-0.3,0.3-0.3,0.5
				c0,0.2,0,0.4,0,0.5c0.1,0.3,0.3,0.5,0.5,0.6c0.3,0.1,0.6,0.1,1,0c0.4-0.1,0.7-0.3,1-0.6c0.3-0.3,0.4-0.6,0.5-0.9
				c0-0.3,0-0.6-0.2-1.1L377,342.9z"/>
			<path d="M380.7,345l-2-5.9l0.9-0.3l0.3,0.8c0.2-0.8,0.8-1.3,1.6-1.6c0.4-0.1,0.7-0.2,1.1-0.2c0.4,0,0.6,0.1,0.9,0.3
				c0.2,0.2,0.4,0.4,0.6,0.6c0.1,0.2,0.2,0.5,0.4,1l1.2,3.6l-1.1,0.4l-1.2-3.6c-0.1-0.4-0.3-0.7-0.4-0.9c-0.2-0.2-0.3-0.3-0.6-0.3
				c-0.2-0.1-0.5,0-0.8,0.1c-0.4,0.1-0.8,0.4-1,0.8s-0.2,0.9,0,1.7l1.1,3.2L380.7,345z"/>
			<path d="M391.4,341.4l-0.2-0.7c-0.2,0.7-0.7,1.2-1.4,1.5c-0.5,0.2-1,0.2-1.5,0.1c-0.5-0.1-0.9-0.4-1.3-0.8
				c-0.4-0.4-0.7-0.9-0.9-1.5c-0.2-0.6-0.3-1.2-0.2-1.7s0.2-1,0.6-1.4c0.3-0.4,0.7-0.7,1.3-0.8c0.4-0.1,0.7-0.2,1.1-0.1
				c0.3,0.1,0.6,0.2,0.9,0.3l-1-2.9l1-0.4l2.7,8.1L391.4,341.4z M387.1,339.5c0.3,0.8,0.6,1.3,1.1,1.5c0.5,0.3,0.9,0.3,1.4,0.2
				c0.5-0.2,0.8-0.5,1-0.9c0.2-0.5,0.2-1.1-0.1-1.8c-0.3-0.8-0.6-1.3-1.1-1.6s-0.9-0.3-1.4-0.2c-0.5,0.2-0.8,0.5-1,0.9
				C386.8,338.1,386.8,338.8,387.1,339.5z"/>
			<path d="M399.3,337.7l0.4,0.8c-0.3,0.2-0.5,0.3-0.8,0.4c-0.4,0.1-0.7,0.2-0.9,0.1s-0.4-0.1-0.6-0.3c-0.1-0.2-0.3-0.5-0.5-1.1
				l-1.1-3.4l-0.8,0.3l-0.3-0.8l0.8-0.3l-0.5-1.5l0.8-1l0.7,2.1l1.1-0.4l0.3,0.8l-1.1,0.4l1.2,3.4c0.1,0.3,0.2,0.5,0.2,0.5
				c0.1,0.1,0.1,0.1,0.2,0.1c0.1,0,0.2,0,0.4,0C399,337.9,399.2,337.8,399.3,337.7z"/>
			<path d="M400.7,338.3l-2.7-8.1l1.1-0.4l1,2.9c0.3-0.7,0.8-1.2,1.6-1.4c0.5-0.2,0.9-0.2,1.3-0.1c0.4,0.1,0.7,0.2,1,0.5
				c0.2,0.3,0.5,0.7,0.7,1.2l1.3,3.7l-1.1,0.4l-1.3-3.7c-0.2-0.5-0.4-0.8-0.7-1s-0.7-0.2-1.1,0c-0.3,0.1-0.6,0.3-0.8,0.5
				s-0.3,0.5-0.4,0.8c0,0.3,0,0.7,0.2,1.1l1.1,3.2L400.7,338.3z"/>
			<path d="M405,329l-0.4-1.1l1.1-0.4l0.4,1.1L405,329z M407.3,336l-2-5.9l1.1-0.4l2,5.9L407.3,336z"/>
			<path d="M409,333.5l1-0.5c0.2,0.4,0.5,0.6,0.8,0.7c0.3,0.1,0.7,0.1,1.2-0.1c0.5-0.2,0.8-0.4,1-0.6c0.2-0.3,0.2-0.5,0.1-0.8
				c-0.1-0.2-0.2-0.4-0.5-0.4c-0.2,0-0.6,0-1.2,0c-0.8,0.1-1.4,0.1-1.8,0.1c-0.3,0-0.6-0.1-0.9-0.3c-0.2-0.2-0.4-0.4-0.5-0.7
				c-0.1-0.3-0.1-0.5-0.1-0.8c0.1-0.3,0.2-0.5,0.3-0.7c0.1-0.2,0.3-0.3,0.6-0.5s0.5-0.3,0.9-0.4c0.5-0.2,0.9-0.2,1.3-0.2
				c0.4,0,0.7,0.1,1,0.3c0.3,0.2,0.5,0.4,0.7,0.8l-1,0.5c-0.1-0.3-0.4-0.5-0.6-0.6c-0.3-0.1-0.6-0.1-1,0.1c-0.5,0.2-0.8,0.4-1,0.6
				c-0.2,0.2-0.2,0.4-0.1,0.6c0,0.1,0.1,0.2,0.2,0.3c0.1,0.1,0.3,0.1,0.5,0.1c0.1,0,0.5,0,1-0.1c0.8-0.1,1.4-0.1,1.7-0.1
				c0.3,0,0.6,0.1,0.9,0.3c0.2,0.2,0.4,0.4,0.5,0.8c0.1,0.3,0.1,0.7,0,1c-0.1,0.4-0.3,0.7-0.7,1c-0.3,0.3-0.7,0.5-1.2,0.7
				c-0.8,0.3-1.5,0.3-2,0.1S409.3,334.1,409,333.5z"/>
			<path d="M419.2,332.6l1.1-0.2c0.1,0.3,0.3,0.5,0.6,0.5c0.3,0.1,0.7,0.1,1.2-0.1c0.5-0.2,0.8-0.4,1-0.7c0.2-0.3,0.3-0.6,0.3-1
				c0-0.2-0.1-0.7-0.4-1.3c-0.3,0.7-0.8,1.1-1.5,1.3c-0.9,0.3-1.6,0.2-2.3-0.2c-0.7-0.4-1.1-1.1-1.4-1.9c-0.2-0.6-0.3-1.1-0.2-1.7
				c0.1-0.5,0.2-1,0.6-1.4c0.3-0.4,0.8-0.7,1.3-0.9c0.7-0.2,1.4-0.2,2.1,0.2l-0.2-0.7l1-0.3l1.7,5.1c0.3,0.9,0.4,1.6,0.4,2.1
				s-0.3,0.9-0.6,1.2c-0.4,0.4-0.8,0.7-1.5,0.9c-0.7,0.2-1.4,0.3-2,0.1C419.8,333.6,419.4,333.2,419.2,332.6z M418.9,328.7
				c0.3,0.8,0.6,1.3,1.1,1.5c0.4,0.2,0.9,0.3,1.4,0.1c0.5-0.2,0.8-0.5,1-0.9c0.2-0.5,0.2-1.1-0.1-1.8c-0.2-0.7-0.6-1.2-1.1-1.5
				c-0.5-0.3-0.9-0.3-1.4-0.1c-0.5,0.2-0.8,0.5-1,0.9C418.7,327.4,418.7,328,418.9,328.7z"/>
			<path d="M424.6,327c-0.4-1.1-0.3-2,0.1-2.7c0.4-0.6,1-1.1,1.7-1.3c0.9-0.3,1.6-0.3,2.4,0.1c0.7,0.4,1.2,1,1.5,1.9
				c0.3,0.8,0.3,1.4,0.2,1.9c-0.1,0.5-0.3,1-0.7,1.4s-0.8,0.7-1.4,0.9c-0.9,0.3-1.7,0.3-2.4-0.1S424.9,328,424.6,327z M425.6,326.6
				c0.3,0.8,0.6,1.3,1.1,1.5s1,0.3,1.5,0.1c0.5-0.2,0.9-0.5,1.1-1c0.2-0.5,0.2-1.1-0.1-1.9c-0.2-0.7-0.6-1.2-1.1-1.5s-1-0.3-1.5-0.1
				c-0.5,0.2-0.9,0.5-1.1,1C425.4,325.2,425.4,325.9,425.6,326.6z"/>
			<path d="M436.2,324.2l1.1-0.2c0,0.7-0.1,1.2-0.5,1.7c-0.4,0.5-0.9,0.9-1.6,1.1c-0.9,0.3-1.7,0.3-2.4-0.1c-0.7-0.4-1.2-1-1.5-2
				c-0.3-1-0.3-1.9,0-2.6c0.4-0.7,1-1.2,1.8-1.5c0.8-0.3,1.6-0.2,2.3,0.1c0.7,0.4,1.2,1,1.5,2c0,0.1,0,0.1,0.1,0.3l-4.6,1.6
				c0.3,0.6,0.6,1.1,1.1,1.3c0.5,0.2,1,0.3,1.5,0.1c0.4-0.1,0.7-0.3,0.9-0.6C436.1,325.1,436.2,324.7,436.2,324.2z M432.2,323.8
				l3.5-1.2c-0.2-0.5-0.5-0.8-0.8-1c-0.5-0.3-1-0.3-1.5-0.1c-0.5,0.2-0.8,0.5-1.1,0.9C432.1,322.8,432.1,323.3,432.2,323.8z"/>
			<path d="M438.2,323.7l1-0.5c0.2,0.4,0.5,0.6,0.8,0.7c0.3,0.1,0.7,0.1,1.2-0.1c0.5-0.2,0.8-0.4,1-0.6c0.2-0.3,0.2-0.5,0.1-0.8
				c-0.1-0.2-0.2-0.4-0.5-0.4c-0.2,0-0.6,0-1.2,0c-0.8,0.1-1.4,0.1-1.8,0.1s-0.6-0.1-0.9-0.3c-0.2-0.2-0.4-0.4-0.5-0.7
				c-0.1-0.3-0.1-0.5-0.1-0.8c0.1-0.3,0.2-0.5,0.3-0.7c0.1-0.2,0.3-0.3,0.6-0.5c0.3-0.2,0.5-0.3,0.9-0.4c0.5-0.2,0.9-0.2,1.3-0.2
				c0.4,0,0.7,0.1,1,0.3s0.5,0.4,0.7,0.8l-1,0.5c-0.1-0.3-0.4-0.5-0.6-0.6c-0.3-0.1-0.6-0.1-1,0.1c-0.5,0.2-0.8,0.4-1,0.6
				c-0.2,0.2-0.2,0.4-0.1,0.6c0,0.1,0.1,0.2,0.2,0.3c0.1,0.1,0.3,0.1,0.5,0.1c0.1,0,0.5,0,1-0.1c0.8-0.1,1.4-0.1,1.7-0.1
				c0.3,0,0.6,0.1,0.9,0.3c0.2,0.2,0.4,0.4,0.5,0.8c0.1,0.3,0.1,0.7,0,1c-0.1,0.4-0.3,0.7-0.7,1c-0.3,0.3-0.7,0.5-1.2,0.7
				c-0.8,0.3-1.5,0.3-2,0.1S438.5,324.3,438.2,323.7z"/>
			<path d="M452.6,320.9l-0.2-0.7c-0.2,0.7-0.7,1.2-1.4,1.5c-0.5,0.2-1,0.2-1.5,0.1s-0.9-0.4-1.3-0.8c-0.4-0.4-0.7-0.9-0.9-1.5
				c-0.2-0.6-0.3-1.2-0.2-1.7c0-0.5,0.2-1,0.6-1.4c0.3-0.4,0.7-0.7,1.3-0.8c0.4-0.1,0.7-0.2,1.1-0.1c0.3,0.1,0.6,0.2,0.9,0.3l-1-2.9
				l1-0.4l2.7,8.1L452.6,320.9z M448.2,319c0.3,0.8,0.6,1.3,1.1,1.5c0.5,0.3,0.9,0.3,1.4,0.2c0.5-0.2,0.8-0.5,1-0.9
				c0.2-0.5,0.2-1.1-0.1-1.8c-0.3-0.8-0.6-1.3-1.1-1.6c-0.5-0.3-0.9-0.3-1.4-0.2c-0.5,0.2-0.8,0.5-1,0.9
				C447.9,317.6,448,318.3,448.2,319z"/>
			<path d="M453.8,317.2c-0.4-1.1-0.3-2,0.1-2.7c0.4-0.6,1-1.1,1.7-1.3c0.9-0.3,1.6-0.3,2.4,0.1c0.7,0.4,1.2,1,1.6,1.9
				c0.3,0.8,0.3,1.4,0.2,1.9c-0.1,0.5-0.3,1-0.7,1.4c-0.4,0.4-0.8,0.7-1.4,0.9c-0.9,0.3-1.7,0.3-2.4-0.1S454.1,318.2,453.8,317.2z
				 M454.9,316.8c0.3,0.8,0.6,1.3,1.1,1.5s1,0.3,1.5,0.1c0.5-0.2,0.9-0.5,1.1-1c0.2-0.5,0.2-1.1-0.1-1.9c-0.2-0.7-0.6-1.2-1.1-1.5
				s-1-0.3-1.5-0.1c-0.5,0.2-0.9,0.5-1.1,1C454.6,315.4,454.6,316,454.9,316.8z"/>
			<path d="M463,317.4l-3.9-5.3l1.1-0.4l2.1,3.1l0.8,1.1c0-0.1,0-0.5-0.1-1.3l-0.2-3.8l1.1-0.4l2.1,3.1l0.7,1l0-1.3l-0.1-3.8l1-0.3
				l0,6.5l-1.1,0.4l-2.2-3.2l-0.6-0.9l0.3,5L463,317.4z"/>
			<path d="M470.5,314.9l-2-5.9l0.9-0.3l0.3,0.8c0.2-0.8,0.8-1.3,1.6-1.6c0.4-0.1,0.7-0.2,1.1-0.2c0.4,0,0.6,0.1,0.9,0.3
				c0.2,0.2,0.4,0.4,0.6,0.6c0.1,0.2,0.2,0.5,0.4,1l1.2,3.6l-1.1,0.4l-1.2-3.6c-0.1-0.4-0.3-0.7-0.4-0.9c-0.2-0.2-0.3-0.3-0.6-0.3
				c-0.2-0.1-0.5,0-0.8,0.1c-0.4,0.1-0.8,0.4-1,0.8s-0.2,0.9,0,1.7l1.1,3.2L470.5,314.9z"/>
		</g>
	</g>
	<g>
		<path fill="none" d="M144.4,65.1l-0.7-0.4l0-0.8c-0.4-17.8-16-32.4-34.8-32.4c-12.1,0-23.2,5.9-29.6,15.7l-0.6,0.9l-1-0.3
			c-2.3-0.6-4.6-1-7-1c-10.2,0-19.5,6.1-23.1,15.2l-0.3,0.7L46.7,63C36.8,65.6,30,74.1,30,83.8c0,11.9,10.2,21.6,22.7,21.6h80.4
			c12.5,0,22.7-9.7,22.7-21.6C155.8,76.2,151.4,69,144.4,65.1z"/>
		<path d="M146.5,63.2c-0.9-19-17.5-34.3-37.6-34.3c-12.8,0-24.4,6-31.4,16.1c-2.2-0.5-4.5-0.8-6.8-0.8c-11.2,0-21.4,6.5-25.5,16.4
			c-10.7,3.1-18.1,12.6-18.1,23.3c0,13.4,11.5,24.3,25.6,24.3h80.4c14.1,0,25.6-10.9,25.6-24.3C158.6,75.5,154,67.6,146.5,63.2z
			 M133.1,105.4H52.7c-12.5,0-22.7-9.7-22.7-21.6c0-9.7,6.9-18.3,16.7-20.8l0.7-0.2l0.3-0.7c3.6-9.1,12.9-15.2,23.1-15.2
			c2.4,0,4.7,0.3,7,1l1,0.3l0.6-0.9c6.4-9.8,17.4-15.7,29.6-15.7c18.8,0,34.3,14.5,34.8,32.4l0,0.8l0.7,0.4c7,3.9,11.4,11,11.4,18.7
			C155.8,95.8,145.6,105.4,133.1,105.4z"/>
	</g>
	<g>
		<g>
			
				<line fill="none" stroke="#EC1B52" stroke-width="3" stroke-miterlimit="10" stroke-dasharray="6,6" x1="282.2" y1="354.7" x2="538.2" y2="266.5"/>
			<g>
				<path fill="#EC1B52" d="M546.8,263.5c-3.5,2.9-7.6,7.2-9.8,10.9l0.1-7.6l-4.8-5.9C536.4,262.6,542.2,263.4,546.8,263.5z"/>
			</g>
		</g>
	</g>
	<g>
		<g>
			
				<line fill="none" stroke="#EC1B52" stroke-width="3" stroke-miterlimit="10" stroke-dasharray="6,6" x1="298.9" y1="182.3" x2="256.5" y2="344.9"/>
			<g>
				<path fill="#EC1B52" d="M254.2,353.7c-0.5-4.5-1.7-10.3-3.7-14.2l6.3,4.3l7.6-0.7C260.7,345.5,256.8,350,254.2,353.7z"/>
			</g>
		</g>
	</g>
	<g>
		<g>
			<path d="M257.6,308l0.9,0.1c0,0.3-0.1,0.6-0.1,0.8c-0.1,0.4-0.2,0.7-0.4,0.9s-0.4,0.3-0.6,0.3s-0.6,0-1.2-0.2l-3.5-0.9l-0.2,0.8
				l-0.8-0.2l0.2-0.8l-1.5-0.4l-0.3-1.2l2.1,0.6l0.3-1.1l0.8,0.2l-0.3,1.1l3.5,0.9c0.3,0.1,0.5,0.1,0.6,0.1c0.1,0,0.2-0.1,0.2-0.1
				c0.1-0.1,0.1-0.2,0.2-0.3C257.6,308.3,257.6,308.2,257.6,308z"/>
			<path d="M258.8,307.1l-8.3-2.2l0.3-1.1l3,0.8c-0.4-0.6-0.5-1.3-0.3-2.1c0.1-0.5,0.3-0.9,0.6-1.2s0.6-0.5,0.9-0.5
				c0.3-0.1,0.8,0,1.4,0.1l3.8,1l-0.3,1.1l-3.8-1c-0.5-0.1-0.9-0.1-1.2,0.1c-0.3,0.2-0.5,0.5-0.6,0.9c-0.1,0.3-0.1,0.6,0,1
				c0.1,0.3,0.2,0.6,0.5,0.8c0.2,0.2,0.6,0.3,1.1,0.5l3.3,0.9L258.8,307.1z"/>
			<path d="M253.5,298.5l-1.2-0.3l0.3-1.1l1.2,0.3L253.5,298.5z M260.6,300.4l-6-1.6l0.3-1.1l6,1.6L260.6,300.4z"/>
			<path d="M259.4,297.6l0.1-1.1c0.4,0,0.8,0,1.1-0.3c0.3-0.2,0.5-0.6,0.6-1.1c0.1-0.5,0.1-0.9,0-1.2c-0.1-0.3-0.3-0.5-0.6-0.5
				c-0.2-0.1-0.4,0-0.6,0.2c-0.1,0.1-0.3,0.5-0.6,1c-0.4,0.7-0.7,1.2-0.9,1.5s-0.5,0.4-0.8,0.5c-0.3,0.1-0.6,0.1-0.9,0
				c-0.3-0.1-0.5-0.2-0.7-0.4c-0.2-0.2-0.3-0.4-0.4-0.7c-0.1-0.2-0.1-0.5-0.1-0.8c0-0.3,0-0.6,0.1-1c0.1-0.5,0.3-0.9,0.5-1.3
				c0.2-0.3,0.5-0.6,0.8-0.7c0.3-0.1,0.6-0.2,1-0.1l-0.1,1.1c-0.3,0-0.6,0-0.8,0.2c-0.2,0.2-0.4,0.5-0.5,0.9c-0.1,0.5-0.1,0.9,0,1.1
				c0.1,0.3,0.3,0.4,0.5,0.5c0.1,0,0.3,0,0.4,0c0.1-0.1,0.3-0.2,0.4-0.3c0.1-0.1,0.2-0.4,0.5-0.9c0.4-0.7,0.7-1.2,0.9-1.5
				c0.2-0.3,0.4-0.5,0.7-0.6s0.6-0.1,0.9,0c0.3,0.1,0.6,0.3,0.9,0.6c0.2,0.3,0.4,0.6,0.5,1.1s0,0.9-0.1,1.4c-0.2,0.8-0.5,1.4-1,1.8
				C260.6,297.5,260.1,297.7,259.4,297.6z"/>
			<path d="M263.9,287.9l-5.2-1.4l-0.2,0.9l-0.8-0.2l0.2-0.9l-0.6-0.2c-0.4-0.1-0.7-0.2-0.9-0.4c-0.2-0.2-0.4-0.4-0.5-0.7
				c-0.1-0.3-0.1-0.7,0-1.2c0.1-0.3,0.2-0.6,0.4-1l0.8,0.4c-0.1,0.2-0.2,0.4-0.2,0.6c-0.1,0.3-0.1,0.6,0,0.7
				c0.1,0.2,0.3,0.3,0.7,0.4l0.6,0.1l0.3-1.2l0.8,0.2l-0.3,1.2l5.2,1.4L263.9,287.9z"/>
			<path d="M264.7,284.8l-8.3-2.2l0.3-1.1l8.3,2.2L264.7,284.8z"/>
			<path d="M262.3,281.7c-1.1-0.3-1.9-0.8-2.2-1.6c-0.3-0.7-0.4-1.4-0.1-2.2c0.2-0.9,0.7-1.5,1.4-1.9c0.7-0.4,1.5-0.5,2.5-0.2
				c0.8,0.2,1.4,0.5,1.7,0.8c0.4,0.4,0.6,0.8,0.8,1.3c0.1,0.5,0.1,1.1,0,1.6c-0.2,0.9-0.7,1.5-1.4,1.9
				C264.2,281.9,263.3,281.9,262.3,281.7z M262.6,280.6c0.8,0.2,1.4,0.2,1.9-0.1c0.5-0.3,0.8-0.6,0.9-1.2c0.1-0.5,0.1-1-0.2-1.5
				c-0.3-0.5-0.8-0.8-1.6-1c-0.7-0.2-1.4-0.2-1.8,0.1c-0.5,0.3-0.8,0.6-0.9,1.2c-0.1,0.5-0.1,1,0.2,1.5
				C261.3,280,261.8,280.4,262.6,280.6z"/>
			<path d="M267.5,274.1l-6.5,0.3l0.3-1.1l3.7-0.1l1.4,0c-0.1,0-0.4-0.3-1.2-0.7l-3.3-1.9l0.3-1.1l3.7,0l1.2,0l-1.1-0.7l-3.2-2
				l0.3-1l5.5,3.6l-0.3,1.1l-3.9,0.1l-1.1,0l4.3,2.5L267.5,274.1z"/>
			<path d="M267.6,266.4l0.1-1.1c0.4,0,0.8,0,1.1-0.3c0.3-0.2,0.5-0.6,0.6-1.1c0.1-0.5,0.1-0.9,0-1.2c-0.1-0.3-0.3-0.5-0.6-0.5
				c-0.2-0.1-0.4,0-0.6,0.2c-0.1,0.1-0.3,0.5-0.6,1c-0.4,0.7-0.7,1.2-0.9,1.5s-0.5,0.4-0.8,0.5c-0.3,0.1-0.6,0.1-0.9,0
				c-0.3-0.1-0.5-0.2-0.7-0.4c-0.2-0.2-0.3-0.4-0.4-0.7c-0.1-0.2-0.1-0.5-0.1-0.8c0-0.3,0-0.6,0.1-1c0.1-0.5,0.3-0.9,0.5-1.3
				c0.2-0.3,0.5-0.6,0.8-0.7c0.3-0.1,0.6-0.2,1-0.1l-0.1,1.1c-0.3,0-0.6,0-0.8,0.2c-0.2,0.2-0.4,0.5-0.5,0.9c-0.1,0.5-0.1,0.9,0,1.1
				c0.1,0.3,0.3,0.4,0.5,0.5c0.1,0,0.3,0,0.4,0c0.1-0.1,0.3-0.2,0.4-0.3c0.1-0.1,0.2-0.4,0.5-0.9c0.4-0.7,0.7-1.2,0.9-1.5
				c0.2-0.3,0.4-0.5,0.7-0.6s0.6-0.1,0.9,0c0.3,0.1,0.6,0.3,0.9,0.6c0.2,0.3,0.4,0.6,0.5,1.1s0,0.9-0.1,1.4c-0.2,0.8-0.5,1.4-1,1.8
				C268.9,266.3,268.3,266.5,267.6,266.4z"/>
			<path d="M273.1,252.9l-0.8-0.2c0.5,0.6,0.6,1.2,0.4,2c-0.1,0.5-0.4,0.9-0.8,1.3s-0.8,0.6-1.4,0.7c-0.5,0.1-1.1,0.1-1.7-0.1
				c-0.6-0.2-1.1-0.4-1.6-0.7s-0.7-0.8-0.9-1.2c-0.2-0.5-0.2-1,0-1.5c0.1-0.4,0.3-0.7,0.5-1s0.5-0.4,0.8-0.6l-3-0.8l0.3-1.1l8.3,2.2
				L273.1,252.9z M269.2,255.5c0.8,0.2,1.4,0.2,1.9-0.1c0.5-0.2,0.8-0.6,0.9-1.1c0.1-0.5,0-0.9-0.2-1.3c-0.3-0.4-0.8-0.7-1.5-0.9
				c-0.8-0.2-1.5-0.2-1.9,0c-0.5,0.2-0.8,0.6-0.9,1.1c-0.1,0.5,0,0.9,0.2,1.3C267.9,255,268.4,255.3,269.2,255.5z"/>
			<path d="M270.7,249.8c-1.1-0.3-1.9-0.8-2.2-1.6c-0.3-0.7-0.4-1.4-0.1-2.2c0.2-0.9,0.7-1.5,1.4-1.9c0.7-0.4,1.5-0.5,2.5-0.2
				c0.8,0.2,1.4,0.5,1.7,0.8c0.4,0.4,0.6,0.8,0.8,1.3c0.1,0.5,0.1,1.1,0,1.6c-0.2,0.9-0.7,1.5-1.4,1.9
				C272.6,250,271.7,250.1,270.7,249.8z M271,248.7c0.8,0.2,1.4,0.2,1.9-0.1c0.5-0.3,0.8-0.6,0.9-1.2c0.1-0.5,0.1-1-0.2-1.5
				c-0.3-0.5-0.8-0.8-1.6-1c-0.7-0.2-1.4-0.2-1.8,0.1c-0.5,0.3-0.8,0.6-0.9,1.2c-0.1,0.5-0.1,1,0.2,1.5
				C269.7,248.2,270.2,248.5,271,248.7z"/>
			<path d="M275.9,242.3l-6.5,0.3l0.3-1.1l3.7-0.1l1.4,0c-0.1,0-0.4-0.3-1.2-0.7l-3.3-1.9l0.3-1.1l3.7,0l1.2,0l-1.1-0.7l-3.2-2
				l0.3-1l5.5,3.6l-0.3,1.1l-3.9,0.1l-1.1,0l4.3,2.5L275.9,242.3z"/>
			<path d="M277.9,234.6l-6-1.6l0.3-1l0.9,0.2c-0.5-0.6-0.7-1.4-0.5-2.3c0.1-0.4,0.3-0.7,0.5-1c0.2-0.3,0.4-0.5,0.7-0.6
				c0.3-0.1,0.5-0.1,0.8-0.1c0.2,0,0.5,0.1,1,0.2l3.7,1l-0.3,1.1l-3.7-1c-0.4-0.1-0.7-0.1-1-0.1c-0.2,0-0.4,0.1-0.6,0.3
				c-0.2,0.2-0.3,0.4-0.4,0.7c-0.1,0.5-0.1,0.9,0.1,1.3c0.2,0.4,0.7,0.7,1.4,0.9l3.3,0.9L277.9,234.6z"/>
		</g>
	</g>
	<g>
		<g>
			<path d="M345.5,322.5l0.5,0.8c-0.3,0.2-0.5,0.3-0.8,0.4c-0.4,0.1-0.7,0.2-0.9,0.1s-0.4-0.1-0.6-0.3c-0.1-0.2-0.3-0.5-0.5-1.1
				L342,319l-0.8,0.3l-0.3-0.8l0.8-0.3l-0.5-1.5l0.8-1l0.7,2.1l1.1-0.4l0.3,0.8l-1.1,0.4l1.2,3.4c0.1,0.3,0.2,0.5,0.2,0.5
				c0.1,0.1,0.1,0.1,0.2,0.1c0.1,0,0.2,0,0.4,0C345.2,322.7,345.3,322.6,345.5,322.5z"/>
			<path d="M346.8,323.1l-2.8-8.1l1-0.4l1,2.9c0.3-0.7,0.8-1.2,1.6-1.4c0.5-0.2,0.9-0.2,1.3-0.1c0.4,0.1,0.7,0.2,1,0.5
				s0.5,0.7,0.7,1.2l1.3,3.7l-1,0.4l-1.3-3.7c-0.2-0.5-0.4-0.8-0.7-1c-0.3-0.1-0.7-0.2-1.1,0c-0.3,0.1-0.6,0.3-0.8,0.5
				c-0.2,0.2-0.3,0.5-0.4,0.8c0,0.3,0,0.7,0.2,1.1l1.1,3.2L346.8,323.1z"/>
			<path d="M351.1,313.8l-0.4-1.1l1-0.4l0.4,1.1L351.1,313.8z M353.5,320.8l-2-5.9l1-0.4l2,5.9L353.5,320.8z"/>
			<path d="M355.1,318.3l1-0.5c0.2,0.4,0.5,0.6,0.8,0.7s0.7,0.1,1.2-0.1c0.5-0.2,0.8-0.4,1-0.6c0.2-0.3,0.2-0.5,0.1-0.8
				c-0.1-0.2-0.2-0.4-0.5-0.4c-0.2,0-0.6,0-1.2,0c-0.8,0.1-1.4,0.1-1.8,0.1s-0.6-0.1-0.9-0.3c-0.2-0.2-0.4-0.4-0.5-0.7
				c-0.1-0.3-0.1-0.5-0.1-0.8c0-0.3,0.2-0.5,0.3-0.7c0.1-0.2,0.3-0.3,0.6-0.5s0.5-0.3,0.9-0.4c0.5-0.2,0.9-0.2,1.3-0.2
				c0.4,0,0.7,0.1,1,0.3c0.3,0.2,0.5,0.4,0.7,0.8l-1,0.5c-0.2-0.3-0.4-0.5-0.6-0.6s-0.6-0.1-1,0.1c-0.5,0.2-0.8,0.4-1,0.6
				c-0.2,0.2-0.2,0.4-0.1,0.6c0,0.1,0.1,0.2,0.2,0.3c0.1,0.1,0.3,0.1,0.5,0.1c0.1,0,0.5,0,1-0.1c0.8-0.1,1.4-0.1,1.7-0.1
				c0.3,0,0.6,0.1,0.9,0.3c0.2,0.2,0.4,0.4,0.5,0.8c0.1,0.3,0.1,0.7,0,1c-0.1,0.4-0.3,0.7-0.7,1c-0.3,0.3-0.7,0.5-1.2,0.7
				c-0.8,0.3-1.5,0.3-2,0.2C355.9,319.3,355.4,318.9,355.1,318.3z"/>
			<path d="M365.4,317.3l1.1-0.2c0.1,0.3,0.3,0.5,0.6,0.5c0.3,0.1,0.7,0.1,1.2-0.1c0.5-0.2,0.8-0.4,1-0.7s0.3-0.6,0.3-1
				c0-0.2-0.1-0.7-0.4-1.3c-0.3,0.7-0.8,1.1-1.5,1.4c-0.9,0.3-1.6,0.2-2.3-0.2c-0.7-0.4-1.1-1-1.4-1.9c-0.2-0.6-0.3-1.1-0.2-1.7
				c0.1-0.5,0.2-1,0.6-1.4c0.3-0.4,0.8-0.7,1.3-0.9c0.7-0.2,1.4-0.2,2.1,0.2l-0.2-0.7l1-0.3l1.7,5.1c0.3,0.9,0.4,1.6,0.4,2
				c-0.1,0.4-0.3,0.9-0.6,1.2s-0.8,0.7-1.5,0.9c-0.7,0.3-1.4,0.3-2,0.1C365.9,318.3,365.6,317.9,365.4,317.3z M365,313.5
				c0.3,0.8,0.6,1.3,1.1,1.5c0.4,0.2,0.9,0.3,1.4,0.1c0.5-0.2,0.8-0.5,1-0.9s0.2-1.1-0.1-1.8c-0.2-0.7-0.6-1.2-1.1-1.5
				s-0.9-0.3-1.4-0.1c-0.5,0.2-0.8,0.5-1,0.9C364.8,312.2,364.8,312.7,365,313.5z"/>
			<path d="M370.6,311.7c-0.4-1.1-0.3-2,0.1-2.7c0.4-0.6,1-1.1,1.7-1.3c0.9-0.3,1.6-0.3,2.4,0.1c0.7,0.3,1.2,1,1.6,1.9
				c0.3,0.8,0.3,1.4,0.3,1.9c-0.1,0.5-0.3,1-0.7,1.4s-0.8,0.7-1.4,0.9c-0.9,0.3-1.7,0.3-2.4-0.1C371.5,313.3,371,312.6,370.6,311.7z
				 M371.7,311.3c0.3,0.8,0.6,1.3,1.1,1.5c0.5,0.3,1,0.3,1.5,0.1c0.5-0.2,0.9-0.5,1.1-1c0.2-0.5,0.2-1.1-0.1-1.9
				c-0.2-0.7-0.6-1.2-1.1-1.5c-0.5-0.3-1-0.3-1.5-0.1c-0.5,0.2-0.9,0.5-1.1,1C371.4,309.9,371.5,310.5,371.7,311.3z"/>
			<path d="M382.3,308.9l1.1-0.2c0,0.7-0.1,1.2-0.5,1.7c-0.3,0.5-0.9,0.9-1.6,1.1c-0.9,0.3-1.7,0.3-2.4-0.1c-0.7-0.3-1.2-1-1.6-2
				c-0.3-1-0.3-1.9,0-2.6s1-1.2,1.8-1.5c0.8-0.3,1.6-0.2,2.3,0.1c0.7,0.4,1.2,1,1.6,2c0,0.1,0,0.1,0.1,0.3l-4.6,1.6
				c0.3,0.6,0.6,1.1,1.1,1.3c0.5,0.2,1,0.3,1.5,0.1c0.4-0.1,0.7-0.3,0.9-0.6C382.1,309.7,382.3,309.3,382.3,308.9z M378.3,308.4
				l3.5-1.2c-0.2-0.5-0.5-0.8-0.8-1c-0.5-0.3-1-0.3-1.5-0.1c-0.5,0.2-0.8,0.5-1.1,0.9C378.2,307.4,378.1,307.9,378.3,308.4z"/>
			<path d="M384.3,308.3l1-0.5c0.2,0.4,0.5,0.6,0.8,0.7s0.7,0.1,1.2-0.1c0.5-0.2,0.8-0.4,1-0.6c0.2-0.3,0.2-0.5,0.1-0.8
				c-0.1-0.2-0.2-0.4-0.5-0.4c-0.2,0-0.6,0-1.2,0c-0.8,0.1-1.4,0.1-1.8,0.1s-0.6-0.1-0.9-0.3c-0.2-0.2-0.4-0.4-0.5-0.7
				c-0.1-0.3-0.1-0.5-0.1-0.8c0-0.3,0.2-0.5,0.3-0.7c0.1-0.2,0.3-0.3,0.6-0.5s0.5-0.3,0.9-0.4c0.5-0.2,0.9-0.2,1.3-0.2
				c0.4,0,0.7,0.1,1,0.3c0.3,0.2,0.5,0.4,0.7,0.8l-1,0.5c-0.2-0.3-0.4-0.5-0.6-0.6s-0.6-0.1-1,0.1c-0.5,0.2-0.8,0.4-1,0.6
				c-0.2,0.2-0.2,0.4-0.1,0.6c0,0.1,0.1,0.2,0.2,0.3c0.1,0.1,0.3,0.1,0.5,0.1c0.1,0,0.5,0,1-0.1c0.8-0.1,1.4-0.1,1.7-0.1
				c0.3,0,0.6,0.1,0.9,0.3c0.2,0.2,0.4,0.4,0.5,0.8c0.1,0.3,0.1,0.7,0,1s-0.3,0.7-0.7,1c-0.3,0.3-0.7,0.5-1.2,0.7
				c-0.8,0.3-1.5,0.3-2,0.2C385.1,309.3,384.6,308.9,384.3,308.3z"/>
			<path d="M393.2,304c-0.4-1.1-0.3-2,0.1-2.7c0.4-0.6,1-1.1,1.7-1.3c0.9-0.3,1.6-0.3,2.4,0.1c0.7,0.3,1.2,1,1.6,1.9
				c0.3,0.8,0.3,1.4,0.3,1.9c-0.1,0.5-0.3,1-0.7,1.4s-0.8,0.7-1.4,0.9c-0.9,0.3-1.7,0.3-2.4-0.1C394.1,305.6,393.5,305,393.2,304z
				 M394.3,303.6c0.3,0.8,0.6,1.3,1.1,1.5c0.5,0.3,1,0.3,1.5,0.1c0.5-0.2,0.9-0.5,1.1-1c0.2-0.5,0.2-1.1-0.1-1.9
				c-0.2-0.7-0.6-1.2-1.1-1.5c-0.5-0.3-1-0.3-1.5-0.1c-0.5,0.2-0.9,0.5-1.1,1C394,302.2,394,302.8,394.3,303.6z"/>
			<path d="M403,303.9l-4.4-5.1l1.1-0.4l2.5,3.1c0.3,0.3,0.5,0.7,0.8,1.1c0-0.3,0-0.8,0-1.3l0.1-4.1l1.1-0.4l-0.3,6.7L403,303.9z"/>
			<path d="M410.8,299.1l1.1-0.2c0,0.7-0.1,1.2-0.5,1.7c-0.3,0.5-0.9,0.9-1.6,1.1c-0.9,0.3-1.7,0.3-2.4-0.1c-0.7-0.3-1.2-1-1.6-2
				c-0.3-1-0.3-1.9,0-2.6s1-1.2,1.8-1.5c0.8-0.3,1.6-0.2,2.3,0.1c0.7,0.4,1.2,1,1.6,2c0,0.1,0,0.1,0.1,0.3l-4.6,1.6
				c0.3,0.6,0.6,1.1,1.1,1.3c0.5,0.2,1,0.3,1.5,0.1c0.4-0.1,0.7-0.3,0.9-0.6C410.7,300,410.8,299.6,410.8,299.1z M406.8,298.7
				l3.5-1.2c-0.2-0.5-0.5-0.8-0.8-1c-0.5-0.3-1-0.3-1.5-0.1c-0.5,0.2-0.8,0.5-1.1,0.9C406.7,297.7,406.7,298.2,406.8,298.7z"/>
			<path d="M413.8,300.2l-2-5.9l0.9-0.3l0.3,0.9c0.1-0.5,0.2-0.9,0.4-1.1c0.2-0.2,0.4-0.3,0.6-0.4c0.4-0.1,0.7-0.1,1.2,0l0,1
				c-0.3-0.1-0.6,0-0.8,0c-0.2,0.1-0.4,0.2-0.6,0.4c-0.1,0.2-0.2,0.4-0.2,0.7c0,0.4,0.1,0.8,0.2,1.2l1.1,3.1L413.8,300.2z"/>
			<path d="M423.1,296l0.5,0.8c-0.3,0.2-0.5,0.3-0.8,0.4c-0.4,0.1-0.7,0.2-0.9,0.1s-0.4-0.1-0.6-0.3c-0.1-0.2-0.3-0.5-0.5-1.1
				l-1.2-3.4l-0.8,0.3l-0.3-0.8l0.8-0.3l-0.5-1.5l0.8-1l0.7,2.1l1.1-0.4l0.3,0.8l-1.1,0.4l1.2,3.4c0.1,0.3,0.2,0.5,0.2,0.5
				c0.1,0.1,0.1,0.1,0.2,0.1c0.1,0,0.2,0,0.4,0C422.8,296.2,422.9,296.1,423.1,296z"/>
			<path d="M423,293.8c-0.4-1.1-0.3-2,0.1-2.7c0.4-0.6,1-1.1,1.7-1.3c0.9-0.3,1.6-0.3,2.4,0.1c0.7,0.3,1.2,1,1.6,1.9
				c0.3,0.8,0.3,1.4,0.3,1.9c-0.1,0.5-0.3,1-0.7,1.4s-0.8,0.7-1.4,0.9c-0.9,0.3-1.7,0.3-2.4-0.1C423.9,295.4,423.4,294.8,423,293.8z
				 M424.1,293.4c0.3,0.8,0.6,1.3,1.1,1.5c0.5,0.3,1,0.3,1.5,0.1c0.5-0.2,0.9-0.5,1.1-1c0.2-0.5,0.2-1.1-0.1-1.9
				c-0.2-0.7-0.6-1.2-1.1-1.5c-0.5-0.3-1-0.3-1.5-0.1c-0.5,0.2-0.9,0.5-1.1,1C423.9,292,423.9,292.6,424.1,293.4z"/>
			<path d="M436.4,291.5l0.5,0.8c-0.3,0.2-0.5,0.3-0.8,0.4c-0.4,0.1-0.7,0.2-0.9,0.1s-0.4-0.1-0.6-0.3c-0.1-0.2-0.3-0.5-0.5-1.1
				l-1.2-3.4l-0.8,0.3l-0.3-0.8l0.8-0.3l-0.5-1.5l0.8-1l0.7,2.1l1.1-0.4l0.3,0.8l-1.1,0.4l1.2,3.4c0.1,0.3,0.2,0.5,0.2,0.5
				c0.1,0.1,0.1,0.1,0.2,0.1c0.1,0,0.2,0,0.4,0C436.1,291.7,436.2,291.6,436.4,291.5z"/>
			<path d="M437.7,292.1l-2.8-8.1l1-0.4l1,2.9c0.3-0.7,0.8-1.2,1.6-1.4c0.5-0.2,0.9-0.2,1.3-0.1c0.4,0.1,0.7,0.2,1,0.5
				s0.5,0.7,0.7,1.2l1.3,3.7l-1,0.4l-1.3-3.7c-0.2-0.5-0.4-0.8-0.7-1c-0.3-0.1-0.7-0.2-1.1,0c-0.3,0.1-0.6,0.3-0.8,0.5
				c-0.2,0.2-0.3,0.5-0.4,0.8c0,0.3,0,0.7,0.2,1.1l1.1,3.2L437.7,292.1z"/>
			<path d="M442,282.8l-0.4-1.1l1-0.4l0.4,1.1L442,282.8z M444.4,289.8l-2-5.9l1-0.4l2,5.9L444.4,289.8z"/>
			<path d="M446,287.3l1-0.5c0.2,0.4,0.5,0.6,0.8,0.7s0.7,0.1,1.2-0.1c0.5-0.2,0.8-0.4,1-0.6c0.2-0.3,0.2-0.5,0.1-0.8
				c-0.1-0.2-0.2-0.4-0.5-0.4c-0.2,0-0.6,0-1.2,0c-0.8,0.1-1.4,0.1-1.8,0.1s-0.6-0.1-0.9-0.3c-0.2-0.2-0.4-0.4-0.5-0.7
				c-0.1-0.3-0.1-0.5-0.1-0.8c0-0.3,0.2-0.5,0.3-0.7c0.1-0.2,0.3-0.3,0.6-0.5s0.5-0.3,0.9-0.4c0.5-0.2,0.9-0.2,1.3-0.2
				c0.4,0,0.7,0.1,1,0.3c0.3,0.2,0.5,0.4,0.7,0.8l-1,0.5c-0.2-0.3-0.4-0.5-0.6-0.6s-0.6-0.1-1,0.1c-0.5,0.2-0.8,0.4-1,0.6
				c-0.2,0.2-0.2,0.4-0.1,0.6c0,0.1,0.1,0.2,0.2,0.3c0.1,0.1,0.3,0.1,0.5,0.1c0.1,0,0.5,0,1-0.1c0.8-0.1,1.4-0.1,1.7-0.1
				c0.3,0,0.6,0.1,0.9,0.3c0.2,0.2,0.4,0.4,0.5,0.8c0.1,0.3,0.1,0.7,0,1s-0.3,0.7-0.7,1c-0.3,0.3-0.7,0.5-1.2,0.7
				c-0.8,0.3-1.5,0.3-2,0.2C446.7,288.2,446.3,287.9,446,287.3z"/>
			<path d="M455.3,284.1l1-0.5c0.2,0.4,0.5,0.6,0.8,0.7s0.7,0.1,1.2-0.1c0.5-0.2,0.8-0.4,1-0.6c0.2-0.3,0.2-0.5,0.1-0.8
				c-0.1-0.2-0.2-0.4-0.5-0.4c-0.2,0-0.6,0-1.2,0c-0.8,0.1-1.4,0.1-1.8,0.1s-0.6-0.1-0.9-0.3c-0.2-0.2-0.4-0.4-0.5-0.7
				c-0.1-0.3-0.1-0.5-0.1-0.8c0-0.3,0.2-0.5,0.3-0.7c0.1-0.2,0.3-0.3,0.6-0.5s0.5-0.3,0.9-0.4c0.5-0.2,0.9-0.2,1.3-0.2
				c0.4,0,0.7,0.1,1,0.3c0.3,0.2,0.5,0.4,0.7,0.8l-1,0.5c-0.2-0.3-0.4-0.5-0.6-0.6s-0.6-0.1-1,0.1c-0.5,0.2-0.8,0.4-1,0.6
				c-0.2,0.2-0.2,0.4-0.1,0.6c0,0.1,0.1,0.2,0.2,0.3c0.1,0.1,0.3,0.1,0.5,0.1c0.1,0,0.5,0,1-0.1c0.8-0.1,1.4-0.1,1.7-0.1
				c0.3,0,0.6,0.1,0.9,0.3c0.2,0.2,0.4,0.4,0.5,0.8c0.1,0.3,0.1,0.7,0,1c-0.1,0.4-0.3,0.7-0.7,1c-0.3,0.3-0.7,0.5-1.2,0.7
				c-0.8,0.3-1.5,0.3-2,0.2C456,285.1,455.6,284.7,455.3,284.1z"/>
			<path d="M465.9,280.3l1.1-0.2c0,0.7-0.1,1.2-0.5,1.7c-0.3,0.5-0.9,0.9-1.6,1.1c-0.9,0.3-1.7,0.3-2.4-0.1c-0.7-0.3-1.2-1-1.6-2
				c-0.3-1-0.3-1.9,0-2.6s1-1.2,1.8-1.5c0.8-0.3,1.6-0.2,2.3,0.1c0.7,0.4,1.2,1,1.6,2c0,0.1,0,0.1,0.1,0.3l-4.6,1.6
				c0.3,0.6,0.6,1.1,1.1,1.3c0.5,0.2,1,0.3,1.5,0.1c0.4-0.1,0.7-0.3,0.9-0.6C465.7,281.2,465.8,280.8,465.9,280.3z M461.9,279.9
				l3.5-1.2c-0.2-0.5-0.5-0.8-0.8-1c-0.5-0.3-1-0.3-1.5-0.1c-0.5,0.2-0.8,0.5-1.1,0.9C461.8,278.9,461.7,279.4,461.9,279.9z"/>
			<path d="M468.9,281.4l-2-5.9l0.9-0.3l0.3,0.9c0.1-0.5,0.2-0.9,0.4-1.1c0.2-0.2,0.4-0.3,0.6-0.4c0.4-0.1,0.7-0.1,1.2,0l0,1
				c-0.3-0.1-0.6,0-0.8,0c-0.2,0.1-0.4,0.2-0.6,0.4c-0.1,0.2-0.2,0.4-0.2,0.7c0,0.4,0.1,0.8,0.2,1.2l1.1,3.1L468.9,281.4z"/>
			<path d="M474.6,279.5l-4.4-5.1l1.1-0.4l2.5,3.1c0.3,0.3,0.5,0.7,0.8,1.1c0-0.3,0-0.8,0-1.3l0.1-4.1l1.1-0.4l-0.3,6.7L474.6,279.5
				z"/>
			<path d="M482.4,274.7l1.1-0.2c0,0.7-0.1,1.2-0.5,1.7c-0.3,0.5-0.9,0.9-1.6,1.1c-0.9,0.3-1.7,0.3-2.4-0.1c-0.7-0.3-1.2-1-1.6-2
				c-0.3-1-0.3-1.9,0-2.6s1-1.2,1.8-1.5c0.8-0.3,1.6-0.2,2.3,0.1c0.7,0.4,1.2,1,1.6,2c0,0.1,0,0.1,0.1,0.3l-4.6,1.6
				c0.3,0.6,0.6,1.1,1.1,1.3c0.5,0.2,1,0.3,1.5,0.1c0.4-0.1,0.7-0.3,0.9-0.6C482.3,275.5,482.4,275.1,482.4,274.7z M478.4,274.2
				l3.5-1.2c-0.2-0.5-0.5-0.8-0.8-1c-0.5-0.3-1-0.3-1.5-0.1c-0.5,0.2-0.8,0.5-1.1,0.9C478.3,273.2,478.3,273.7,478.4,274.2z"/>
			<path d="M485.5,275.8l-2-5.9l0.9-0.3l0.3,0.9c0.1-0.5,0.2-0.9,0.4-1.1c0.2-0.2,0.4-0.3,0.6-0.4c0.4-0.1,0.7-0.1,1.2,0l0,1
				c-0.3-0.1-0.6,0-0.8,0c-0.2,0.1-0.4,0.2-0.6,0.4c-0.1,0.2-0.2,0.4-0.2,0.7c0,0.4,0.1,0.8,0.2,1.2l1.1,3.1L485.5,275.8z"/>
		</g>
	</g>
	<g>
		<ellipse fill="#F4F4F4" stroke="#EC1B52" stroke-miterlimit="10" cx="221" cy="338.4" rx="14.5" ry="13.8"/>
		<g>
			<path fill="#ED174F" d="M217.4,344.1v-0.9l1.2-1.1c2.9-2.7,4.3-4.1,4.3-5.7c0-1.1-0.6-2.1-2.3-2.1c-1,0-1.9,0.5-2.4,0.9l-0.5-1
				c0.8-0.6,1.9-1.1,3.2-1.1c2.5,0,3.5,1.6,3.5,3.2c0,2-1.5,3.6-4,5.9l-0.9,0.8v0h5.2v1.2H217.4z"/>
		</g>
	</g>
	<g>
		<ellipse fill="#F4F4F4" stroke="#EC1B52" stroke-miterlimit="10" cx="101.4" cy="175.3" rx="14.5" ry="13.8"/>
		<g>
			<path fill="#ED174F" d="M101.3,171.4L101.3,171.4l-2,1l-0.3-1.1l2.5-1.3h1.3v10.9h-1.5V171.4z"/>
		</g>
	</g>
	<g>
		<ellipse fill="#F4F4F4" stroke="#EC1B52" stroke-miterlimit="10" cx="298.5" cy="176.6" rx="14.5" ry="13.8"/>
		<g>
			<path fill="#ED174F" d="M295.3,180.5c0.4,0.3,1.5,0.7,2.5,0.7c2,0,2.6-1.2,2.6-2.1c0-1.5-1.5-2.2-3-2.2h-0.9v-1.1h0.9
				c1.1,0,2.6-0.6,2.6-1.8c0-0.9-0.6-1.6-2-1.6c-0.9,0-1.8,0.4-2.3,0.7l-0.4-1.1c0.6-0.4,1.8-0.8,3-0.8c2.3,0,3.3,1.3,3.3,2.6
				c0,1.1-0.7,2.1-2.1,2.6v0c1.4,0.3,2.6,1.3,2.6,2.8c0,1.7-1.4,3.3-4.2,3.3c-1.3,0-2.4-0.4-3-0.7L295.3,180.5z"/>
		</g>
	</g>
	<g>
		<ellipse fill="#F4F4F4" stroke="#EC1B52" stroke-miterlimit="10" cx="287.4" cy="350.5" rx="14.5" ry="13.8"/>
		<g>
			<path fill="#ED174F" d="M288.7,356.1v-3h-5.3v-1l5.1-7h1.7v6.8h1.6v1.2h-1.6v3H288.7z M288.7,352v-3.6c0-0.6,0-1.1,0.1-1.7h-0.1
				c-0.4,0.6-0.6,1.1-1,1.6l-2.8,3.7v0H288.7z"/>
		</g>
	</g>
	<g>
		<ellipse fill="#F4F4F4" stroke="#EC1B52" stroke-miterlimit="10" cx="553.1" cy="292.3" rx="14.5" ry="13.8"/>
		<g>
			<path fill="#ED174F" d="M556.4,288.3H552l-0.4,2.8c0.3,0,0.5-0.1,0.9-0.1c0.9,0,1.8,0.2,2.5,0.6c0.9,0.5,1.6,1.4,1.6,2.8
				c0,2.1-1.8,3.7-4.3,3.7c-1.3,0-2.3-0.3-2.9-0.7l0.4-1.1c0.5,0.3,1.4,0.6,2.5,0.6c1.5,0,2.7-0.9,2.7-2.4c0-1.4-1-2.4-3.3-2.4
				c-0.7,0-1.2,0.1-1.6,0.1l0.7-5.2h5.5V288.3z"/>
		</g>
	</g>
</g>
<g id="architecture">
	<g>
		<path d="M320.4,65.3c0.9,0,1.9-0.5,1.9-1.5v-4.7c0-1-0.9-1.5-1.9-1.5h-0.2v-0.7c0-1.1-0.9-2-2-2h-27.8c-1.1,0-2,0.9-2,2v0.7H288
			c-0.9,0-1.9,0.5-1.9,1.5v4.7c0,1,0.9,1.5,1.9,1.5h0.4v1H288c-0.9,0-1.9,0.5-1.9,1.5v4.7c0,1,0.9,1.9,1.9,1.9h0.4v0.7H288
			c-1,0-1.9,0.9-1.9,1.9v4.4c0,1,0.9,1.9,1.9,1.9h0.4v7.3c0,1.1,0.9,2,2,2h27.8c1.1,0,2-0.9,2-2v-7.3h0.2c1,0,1.9-0.9,1.9-1.9v-4.4
			c0-1-0.9-1.9-1.9-1.9h-0.2v-0.7h0.2c1,0,1.9-0.9,1.9-1.9v-4.7c0-1-0.9-1.5-1.9-1.5h-0.2v-1L320.4,65.3L320.4,65.3z M321.4,76.9
			v4.4c0,0.5-0.6,1.1-1.1,1.1H288c-0.5,0-1.1-0.6-1.1-1.1v-4.4c0-0.5,0.6-1.1,1.1-1.1h32.4C320.9,75.9,321.4,76.4,321.4,76.9z
			 M321.4,67.8v4.7c0,0.5-0.6,1.1-1.1,1.1H288c-0.5,0-1.1-0.6-1.1-1.1v-4.7c0-0.5,0.7-0.7,1.1-0.7h32.4
			C320.7,67.2,321.4,67.3,321.4,67.8z M286.9,63.8v-4.7c0-0.5,0.7-0.7,1.1-0.7h32.4c0.4,0,1.1,0.1,1.1,0.7v4.7
			c0,0.6-0.7,0.7-1.1,0.7H288C287.6,64.5,286.9,64.4,286.9,63.8z"/>
		<circle cx="291.3" cy="61.5" r="1.4"/>
		<circle cx="309.7" cy="61.5" r="1.4"/>
		<circle cx="313.5" cy="61.5" r="1.4"/>
		<circle cx="317.2" cy="61.5" r="1.4"/>
		<circle cx="291.3" cy="70.3" r="1.4"/>
		<circle cx="309.7" cy="70.3" r="1.4"/>
		<circle cx="313.5" cy="70.3" r="1.4"/>
		<circle cx="317.2" cy="70.3" r="1.4"/>
		<circle cx="291.3" cy="79.1" r="1.4"/>
		<circle cx="309.7" cy="79.1" r="1.4"/>
		<circle cx="313.5" cy="79.1" r="1.4"/>
		<circle cx="317.2" cy="79.1" r="1.4"/>
		<path d="M307.2,61.4c0,0.7-0.6,1.3-1.3,1.3h-10.6c-0.7,0-1.3-0.6-1.3-1.3c0-0.7,0.6-1.3,1.3-1.3h10.6
			C306.6,60.1,307.2,60.7,307.2,61.4z"/>
		<path d="M307.2,70.2c0,0.7-0.6,1.3-1.3,1.3h-10.6c-0.7,0-1.3-0.6-1.3-1.3c0-0.7,0.6-1.3,1.3-1.3h10.6
			C306.6,69,307.2,69.5,307.2,70.2z"/>
		<path d="M307.2,79.1c0,0.7-0.6,1.3-1.3,1.3h-10.6c-0.7,0-1.3-0.6-1.3-1.3c0-0.7,0.6-1.3,1.3-1.3h10.6
			C306.6,77.8,307.2,78.4,307.2,79.1z"/>
	</g>
	<g>
		<path d="M116.9,58.2H97.5c-0.7,0-2.3,0.2-2.3,0.8v30.5c0,0.7,1.6,1.9,2.3,1.9h4.8l0-2.2h-4.9V60.5h17.8V65c0,0.7,1.3,2.1,1.9,2.1
			h4.7v6v0.3v15.9h-4.4l0,2.2h5.6c0.7,0,1-1.3,1-1.9V71.8v-0.4v-6.2L116.9,58.2z M117.4,64.9v-3.7l3.8,3.7H117.4z"/>
		<path d="M109.7,90.9l7.4-7.7l-6,0l0-2.7l0-1.6l0-3.1c0-0.5-0.2-0.9-0.5-1.2c-0.3-0.3-0.7-0.5-1.2-0.5c-0.9,0-1.7,0.8-1.7,1.7
			l0,3.1l0,1.6l0,2.7l-5.6,0L109.7,90.9z"/>
	</g>
</g>
<g id="jschostingonly">
</g>
</svg>
