<?xml version="1.0" encoding="utf-8"?>
<!-- Generator: Adobe Illustrator 17.1.0, SVG Export Plug-In . SVG Version: 6.00 Build 0)  -->
<!DOCTYPE svg PUBLIC "-//W3C//DTD SVG 1.1//EN" "http://www.w3.org/Graphics/SVG/1.1/DTD/svg11.dtd">
<svg version="1.1" id="Layer_1" xmlns="http://www.w3.org/2000/svg" xmlns:xlink="http://www.w3.org/1999/xlink" x="0px" y="0px"
	 viewBox="0 0 611 541" enable-background="new 0 0 611 541" xml:space="preserve">
<rect fill-rule="evenodd" clip-rule="evenodd" fill="#FFFFFF" width="611" height="541"/>
<g>
	<polygon points="244.6,31.9 243,35.2 244.6,38.4 246.2,35.2 	"/>
	<polygon points="245.2,39.6 247,42.9 248.6,39.6 247,36.4 	"/>
	<polygon points="245.2,30.6 247,33.8 248.6,30.6 247,27.3 	"/>
	<polygon points="240.6,39.6 242.2,42.9 244,39.6 242.2,36.4 	"/>
	<path d="M250.5,34.3l-1.3-2.4l-1.6,3.3l1.6,3.2l0.7-1.3l-0.9,4.1l-1.5,3l0.7,1.2l-0.3,1h-0.6l-0.4-0.9l-0.4,0.9h-1.3l1-2.2
		l-1.6-3.2l-1.6,3.2l1,2.2h-1.3l-0.4-0.9l-0.4,0.9h-1.3l1.2-2.2l-1.6-3.2l-1.8,3.2l1.2,2.2h-1.3l-0.4-0.9l-0.4,0.9h-0.3l-0.3-1.5
		l0.3-0.7l-1-2.2l-1.2-4.6l0.6,1l1.6-3.2l-1.6-3.3l-1.2,2.4l-0.4-1.8l1-1.9l-1.9-3.7h1.3l1.2,2.4l1.2-2.4h2.2l1.3,2.4l1.2-2.4h2.2
		l1.2,2.4l1.2-2.4h2.2l1.2,2.4l1.3-2.4h1.3l-1.9,3.7l0.9,1.8L250.5,34.3z M232.3,25.7h-1.6l5.2,21.9H249l4.4-21.9H232.3z"/>
	<polygon points="244,30.6 242.2,27.3 240.6,30.6 242.2,33.8 	"/>
	<polygon points="235.9,39.6 237.7,42.9 239.3,39.6 237.7,36.4 	"/>
	<polygon points="240,31.9 238.3,35.2 240,38.4 241.7,35.2 	"/>
	<polygon points="239.3,30.6 237.7,27.3 235.9,30.6 237.7,33.8 	"/>
</g>
<g>
	<path d="M43.3,98.1c-0.4,0.3-0.9,0.6-1.3,0.7c-0.4,0.1-0.6,0-0.9-0.2c-0.1-0.1-0.2-0.2-0.4-0.2c-0.8-0.4-1.8-0.9-2.7-1.6
		c-0.2-0.2-0.4-0.4-0.7-0.6c-0.2-0.2-0.4-0.3-0.6-0.5c-0.1-0.1-0.2-0.1-0.3-0.2c-0.2-0.1-0.3-0.2-0.5-0.4c-0.1-0.1-0.3-0.2-0.4-0.3
		c-0.1-0.1-0.4-0.4-0.5-0.6c0,0,0,0,0,0c-0.4-0.6-0.4-0.9-0.6-1.5c-0.1-0.4-0.2-0.7-0.4-1c0-0.1-0.1-0.1-0.1-0.2
		c-0.1-0.2-0.2-0.4-0.4-0.7c0,0-0.1-0.1-0.1-0.1c-0.1-0.1-0.4-0.3-0.6-0.3c-0.1,0-0.2,0.1-0.2,0.2c0,0.1,0.1,0.2,0.2,0.2
		c0.1,0,0.2,0.1,0.3,0.2c0,0,0.1,0.1,0.1,0.1c0.2,0.2,0.3,0.4,0.3,0.5c0,0.1,0.1,0.1,0.1,0.2c0.1,0.2,0.3,0.5,0.3,0.9
		c0.2,0.6,0.4,1.2,0.8,1.8c-0.2,0.2-0.4,0.4-0.6,0.5c-0.3,0.3-0.7,0.6-1.1,0.9c-0.3,0.2-1.2,0.8-2.1,0.8c-0.1,0-0.1,0-0.2,0
		l-0.6-0.1c-0.6-0.3-1.2-1-1.4-1.8c-0.2-0.8-0.2-1.4-0.1-2.2c0-0.3,0.1-0.5,0.1-0.8c0-0.8,0.2-2.3,0.9-3.5c0.3-0.6,1.2-1.9,2.2-2.7
		c0.8-0.6,1.7-0.9,2.7-0.9c1.3,0,2.4,0.5,3.2,1.3c0.7,0.7,1.1,2,1,2.9l0,0.2c0,0.3,0,0.5,0.3,0.7c0.1,0,0.1,0.1,0.2,0.1
		c0.1,0.1,0.3,0.2,0.4,0.3c0.1,0.1,0.2,0.2,0.3,0.3c0.3,0.3,0.7,0.6,0.9,1c0,0.1,0.1,0.1,0.1,0.2c0.1,0.2,0.1,0.5,0.4,0.6
		c0.3,0.1,0.6,0,0.8-0.1c0,0,0.1,0,0.1-0.1c0.5-0.2,1-0.4,1.4-0.8c0.6-0.5,1.1-1,1.6-1.6c0.2-0.2,0.4-0.4,0.6-0.6l0.2-0.2
		c0.2-0.2,0.3-0.4,0.5-0.5c0,0,0,0,0.1-0.1c0.5-0.5,0.9-0.9,1.3-1.4c0.2-0.3,0.4-0.6,0.6-0.9c0.1-0.2,0.2-0.4,0.3-0.5
		c0.4-0.6,0.3-0.9,0.1-1.3c0-0.1-0.1-0.3-0.1-0.4c-0.2-0.7-0.2-1.4-0.3-2.1c0-0.5-0.1-1-0.1-1.5c-0.1-0.7,0-1.4,0.1-1.8
		c0-0.1,0-0.2,0.1-0.4c0.1-0.4,0.1-0.9,0.4-1.1c0,0,0,0,0.1,0c0,0.2-0.1,0.4-0.2,0.6c-0.1,0.1-0.1,0.2,0,0.3c0.1,0.1,0.2,0.1,0.3,0
		c0.1-0.1,0.2-0.1,0.2-0.2c0,0,0,0,0,0.1c0,0.1,0,0.2-0.2,0.4c-0.1,0.1-0.2,0.2-0.2,0.3c-0.2,0.4-0.1,1.1,0,1.6c0,0.2,0,0.3,0.1,0.5
		c0,0.1,0,0.1,0.1,0.2c0.1,0,0.1,0,0.2,0c0.2-0.1,0.3-0.2,0.4-0.3c0.1-0.1,0.2-0.2,0.2-0.2c0.1-0.1,0.2,0,0.2,0c0,0,0,0.1,0,0.2
		c0,0.2-0.2,0.4-0.3,0.6c-0.2,0.3-0.5,0.7-0.4,1.1c0,0.1,0.1,0.2,0.2,0.2c0.4,0.1,0.8,0.7,1.1,1l0.1,0.1c0.2,0.2,0.7,0.9,0.7,1.4
		c0,0.3-0.1,0.6-0.3,1c-0.1,0.2-0.2,0.4-0.2,0.6c-0.1,0.3-0.2,0.7-0.4,1c-0.1,0.2-0.2,0.3-0.2,0.5c-0.3,0.8-0.8,1.6-1.2,2.4
		l-0.3,0.4C49,90.9,49,91,48.9,91.2c-0.1,0.2-0.2,0.4-0.4,0.7c0,0-0.1,0.3-0.3,0.8c-0.2,0.4-0.4,0.8-0.6,1.1
		C46.7,95.4,45.2,96.8,43.3,98.1L43.3,98.1z M39,134.9c0,0,0.1,0.1,0,0.2c0,0.1-0.2,0.3-0.4,0.5c-0.1,0.1-0.2,0.2-0.3,0.2
		c-0.3,0.3-0.5,0.7-0.7,1.1c-0.2,0.4-0.5,0.9-0.7,1.3c-0.2,0.4-0.5,0.8-0.7,1.3c-0.3,0.4-0.5,0.9-0.7,1.4c-0.1,0.2-0.2,0.4-0.2,0.5
		c-0.3,0.6-0.6,1.2-0.9,1.8c-0.2,0.3-0.3,0.7-0.5,1.1c-0.1,0.1-0.2,0.3-0.2,0.4c-0.2,0.3-0.4,0.6-0.5,0.9c-0.1,0.3-0.2,0.6-0.3,0.9
		c-0.1,0.2-0.1,0.5-0.2,0.7c-0.1,0.3-0.2,0.5-0.3,0.8c-0.3,0.8-0.7,1.9-0.9,2.6c-0.2,0.8-0.4,1-1.4,1.1c0,0-0.8-0.1-1.4-0.4
		c-0.5-0.2-0.5-0.2-0.3-0.8l0-0.1c0.4-1.3,0.5-2.6,0.6-4l0.1-0.7c0-0.5,0.1-1,0.1-1.5c0.1-1.3,0.2-2.7,0.5-4
		c0.2-0.9,0.5-1.7,0.9-2.4c0.2-0.3,0.3-0.6,0.5-0.9c0.3-0.6,0.5-1,1.1-1.4c0.8-0.6,1.1-0.7,1.9-0.9c0.3-0.1,0.7-0.1,1.1-0.1
		c0.8,0,1.7,0.1,2.3,0.2c0.2,0,0.4,0,0.6,0C38.3,134.8,38.8,134.8,39,134.9L39,134.9z M39.4,135.6c0.2,0,0.5,0,0.9-0.1
		c0.4,0,0.9-0.1,1.2-0.1c0.4,0,0.6,0.1,0.6,0.1c0,0.1,0,0.4-0.6,1.4l-0.1,0.1c-0.3,0.5-0.6,1-0.9,1.6c-0.4,0.8-0.7,1.7-1,2.6
		c-0.1,0.3-0.2,0.6-0.3,0.9c-0.5,1.5-0.7,2.1-1.3,3.1l-0.2,0.4c-0.2,0.3-0.4,0.7-0.6,1c-0.1,0.2-0.2,0.3-0.2,0.5
		c-0.2,0.4-0.3,0.7-0.6,1.1c-0.3,0.4-0.4,0.8-0.6,1.2c0,0.1-0.1,0.2-0.1,0.4c0,0.1-0.1,0.2-0.1,0.3c-0.1,0.3-0.3,0.8-0.5,0.8
		c-0.7,0.2-1.5-0.1-2.1-0.4c-0.3-0.1-0.5-0.2-0.8-0.3c0.2-0.9,0.6-1.8,0.9-2.6l0-0.1c0,0,0-0.1,0-0.1c0-0.1,0.1-0.2,0.1-0.3
		c0.1-0.4,0.3-0.8,0.5-1.2c0.2-0.5,0.4-0.9,0.7-1.4c0-0.1,0.1-0.2,0.1-0.3c0.4-0.8,0.9-1.7,1.3-2.6c0-0.1,0.1-0.1,0.1-0.2
		c0.3-0.6,0.6-1.1,0.9-1.7c0.2-0.4,0.4-0.7,0.7-1.1c0.1-0.2,0.3-0.4,0.4-0.6c0.2-0.4,0.4-0.7,0.6-1.1l0.2-0.4
		c0.1-0.3,0.3-0.5,0.5-0.6l0.1-0.1C39.2,135.8,39.2,135.7,39.4,135.6L39.4,135.6z M34.2,80.1c-0.7-0.8-1.1-2.7-0.9-3.8
		c0.5-2.6,3.2-3.1,4.9-3.2c1.2,0,2.3,0.5,2.9,1.3c0.1,0.1,0.2,0.2,0.2,0.3c0.2,0.3,0.5,0.6,0.5,0.9c0,0.1,0,0.2,0,0.3
		c0,0.2,0,0.4,0,0.7c0,0.1,0.1,0.2,0.1,0.3c0,0.1,0.1,0.3,0.1,0.4c0.2,0.8,0.2,1.6,0.2,2.4c0,0.4,0,0.8,0,1.2l0,0.2
		c0,0.5,0.1,0.7-0.2,1.1c-0.1,0.1-0.3,0.2-0.4,0.3c-0.3,0.2-0.6,0.4-0.7,0.8c0,0.2,0,0.4,0,0.6c0,0.2,0.1,0.3,0,0.5
		c0,0.1-0.1,0.2-0.1,0.3c-0.1,0.2-0.2,0.5-0.2,0.8c0,0,0,0,0,0s0,0,0,0c-0.1,0.9-0.4,1.5-0.2,2.3c-0.4-0.4-0.9-0.9-1.5-1.1
		c-0.2-0.4-0.4-0.7-0.7-1c-0.4-0.5-1-0.8-1.6-1.1c-0.2-0.2-0.5-0.3-0.7-0.4c-0.3-0.2-0.6-0.5-1-0.7C35.2,82.9,35.1,81.3,34.2,80.1
		L34.2,80.1z M41.7,85.8c0.2,0,0.4,0,0.7,0c0.5,0,1,0,1.6,0.3c0.8,0.3,1.3,0.8,2,1.4c0.2,0.2,0.4,0.3,0.5,0.4
		c0.1,0.1,0.2,0.2,0.2,0.2c0,0,0,0-0.1,0.1c0,0-0.1,0.1-0.1,0.1c-0.1,0.1-0.2,0.2-0.3,0.3c-0.1,0.1-0.1,0.1-0.2,0.2
		c-0.2,0.2-0.4,0.4-0.5,0.5c-0.2,0.2-0.4,0.3-0.7,0.7c-0.1,0.1-0.4,0.4-0.4,0.4c-0.1-0.1-0.2-0.5-0.3-1c-0.1-0.4-0.2-0.8-0.5-1.2
		c-0.1-0.1-0.2-0.3-0.4-0.5c0,0,0-0.1-0.1-0.1c-0.1-0.1-0.1-0.2-0.2-0.3c-0.4-0.4-0.8-0.9-1.2-1.2c0,0-0.1-0.1-0.1-0.1
		c-0.1-0.1-0.1-0.1-0.2-0.2l-0.1-0.1C41.4,85.8,41.6,85.8,41.7,85.8L41.7,85.8z M61.1,79c0,0-0.1,0-0.1,0c0-0.5-0.1-1.1-0.2-1.7
		c-0.6,0-1.1,0.1-1.6,0.3c-0.3,0.1-0.5,0.1-0.8,0.2c-0.3,0.1-0.6,0.1-0.9,0.2c-0.6,0.2-1,0.3-1.5,0.5c0.1,0.2,0.2,0.4,0.3,0.6
		c0.4,0.5,1,0.9,1.9,1.4c0.3,0.2,0.9,0.4,1.2,0.6c0.1,0,0.2,0.1,0.3,0.1c0.2,0.1,0.4,0.2,0.6,0.2c0.1,0,0.1,0,0.1,0.1
		c0.2-0.6,0.3-1.1,0.5-1.7c0,0,0-0.1,0-0.2c0,0,0.1,0,0.1,0.1c0.1,0.1,0.2,0.1,0.2,0.4c0.1,0.5-0.2,1.2-0.4,1.9
		c-0.2,0.4-0.4,0.8-0.6,1.2c-0.2,0.4-0.4,0.8-0.6,1.2c-0.1,0.2-0.2,0.4-0.3,0.6c-0.2,0.3-0.3,0.7-0.4,1c-0.1,0.4-0.1,0.8-0.1,1.1
		c0,0.2,0,0.5-0.1,0.7c-0.1,0.8-0.2,1.6-0.3,2.4c-0.1,0.5-0.2,1-0.2,1.5c-0.2,1.2-0.7,2.4-1.3,3.3c-0.1,0.1-0.2,0.3-0.3,0.4
		c-0.2,0.4-0.5,0.8-0.7,0.9c-0.1,0.1-0.3,0.1-0.6,0.1c-0.4,0-0.8-0.1-1.1-0.1c-1.3-0.2-2-0.3-2.8-0.5c-0.6-0.2-1.2-0.3-1.8-0.3
		c-0.1,0-0.2,0-0.4,0c-0.3,0-1.3-0.4-1.5-0.5c0.4-0.6,0.8-1.4,1-1.9c0.1-0.1,0.1-0.2,0.1-0.3c0.2-0.3,0.3-0.7,0.5-1
		c0.1-0.1,0.2-0.3,0.3-0.4c0.3-0.4,0.5-0.8,0.7-1.3c0.7,0,1.1,0.5,1.7,1.1c0.2,0.3,0.5,0.5,0.7,0.7c0,0,0.1,0.1,0.2,0
		c0.1,0,0.1,0,0.2-0.1c0.2-0.3,0.3-0.4,0.6-0.6c1.8-1.4,3-3.8,2.8-5.9c0,0,0-0.1,0-0.1c0.2,0,0.4-0.1,0.6-0.1c0,0,0,0,0,0
		c-0.5-0.7-0.9-1.5-1.2-2.3c-0.1-0.2-0.1-0.3-0.2-0.4c-0.1-0.2-0.2-0.4-0.3-0.7c-0.1-0.3-0.2-0.6-0.4-1l-0.3-0.8
		c-0.1-0.2-0.1-0.4-0.2-0.6c-0.1,0-0.1,0-0.2,0.1c-0.2,0.1-0.5,0.2-0.7,0.3c0.1,0.4,0.2,0.9,0.2,1.3c0,0.5-0.1,1-0.2,1.4
		c-0.1,0.7-0.4,1.3-0.6,1.9c-0.1,0.2-0.2,0.4-0.2,0.6c0,0,0,0,0,0c0.2,0.1,0.4,0.1,0.6,0.2c0.5,0.1,1,0.1,1.4,0.1c0.6,0,0.8,0,1.3,0
		c0.2,2-0.9,4.3-2.6,5.6c-0.2,0.1-0.4,0.3-0.5,0.5c-0.2-0.2-0.3-0.3-0.5-0.5c-0.5-0.5-1-1.1-1.8-1.2c0.2-0.4,0.4-0.8,0.6-1.2
		c0.1-0.2,0.1-0.3,0.2-0.5c0.2-0.3,0.3-0.7,0.4-1c0-0.2,0.1-0.3,0.2-0.5c0.1-0.4,0.3-0.7,0.3-1.1c0-0.1,0-0.3-0.1-0.4h0
		c0.1-0.2,0.2-0.4,0.2-0.6c0.2-0.6,0.5-1.2,0.6-1.9c0.1-0.4,0.2-0.9,0.2-1.3c0-0.4,0-0.8-0.1-1.2c-0.1,0.1-0.2,0.1-0.3,0.1
		c-0.6,0.3-1.1,0.5-1.7,0.7c0-0.2,0-0.3-0.1-0.5c0.5-0.2,1.1-0.4,1.6-0.7c0.1-0.1,0.2-0.1,0.4-0.2c-0.2-0.5-0.6-1-1-1.3
		c-0.7-0.6-1.5-0.9-2-1c0,0,0,0,0,0.1c0-0.1-0.1-0.2-0.1-0.3c0-0.1-0.1-0.1-0.2-0.1c-0.2,0-0.3,0.1-0.5,0.2
		c-0.4,0.3-0.5,0.9-0.5,1.3c0,0.1,0,0.2-0.1,0.3c-0.1,0.5-0.2,1.2-0.1,2c0.1,0.5,0.1,1,0.1,1.5c0.1,0.7,0.1,1.5,0.3,2.2
		c0,0.2,0.1,0.4,0.2,0.5c0.1,0.4,0.2,0.5-0.1,0.9c-0.1,0.2-0.2,0.4-0.4,0.6c-0.2,0.3-0.3,0.6-0.6,0.8c-0.3,0.3-0.6,0.7-0.9,1
		c-0.1-0.1-0.2-0.2-0.3-0.2c-0.1-0.1-0.3-0.2-0.5-0.4c-0.7-0.7-1.3-1.2-2.1-1.5c-0.7-0.3-1.3-0.3-1.8-0.3c-0.2,0-0.4,0-0.7,0
		c-0.2,0-0.4,0-0.6,0c0-0.1,0.1-0.2,0.1-0.4c0.1-0.1,0.1-0.3,0.2-0.4c0.1-0.2,0-0.5,0-0.7c0-0.1-0.1-0.3,0-0.4
		c0-0.2,0.3-0.3,0.5-0.5c0.2-0.1,0.4-0.3,0.5-0.5c0.4-0.5,0.3-0.9,0.3-1.4l0-0.2c0-0.4,0-0.8,0-1.2c0-0.8,0-1.7-0.2-2.5
		c0-0.1-0.1-0.3-0.1-0.4c0-0.1-0.1-0.2-0.1-0.3c0-0.2,0-0.3,0-0.5c0-0.1,0-0.2,0-0.3c0-0.5-0.3-0.9-0.6-1.2
		c-0.1-0.1-0.2-0.2-0.2-0.3c-0.7-1-1.9-1.5-3.3-1.5c-1.8,0.1-4.8,0.6-5.3,3.6c-0.2,1.3,0.2,3.3,1,4.2c0.8,0.9,0.9,2.3,0.9,3.1
		c-0.3,0-0.5,0.3-0.8,0.4c-0.4,0.2-0.8,0.5-1.2,0.7c-0.4,0.3-0.8,0.6-1.1,0.9c-0.7,0.6-1.3,1.4-1.7,2c-0.2,0.3-0.4,0.6-0.6,0.9
		c0,0,0,0,0,0c-0.3,0.7-0.5,1.5-0.6,2.2c-0.5,1.3-0.8,3.2-1.1,4.7c-0.3,1.7-0.8,3.4-0.9,5.2c-0.2,1.7-0.3,3.2-1.2,4.7
		c-0.2,0.3-0.5,0.5-0.6,0.8c-0.2,0.5,0,0.7-0.1,1c-0.1,0.7-0.5,1.2-0.8,1.9c-1.2,3.1-0.8,7.4-0.6,10.7c0.2,3.7-0.5,7.9,0,11.5
		c0.2,1.2,0.1,3.4,0.3,3.5c0.2,0.1,2.5-0.4,4.1,0c-0.1,0.2-0.1,0.5,0,0.6c0.1,0.1,2.6,0.3,3.6,0c-0.5,0.5-0.8,0.9-1,1.4
		c-0.1,0.3-0.3,0.6-0.4,0.8c-0.4,0.7-0.8,1.5-1,2.5c-0.3,1.3-0.4,2.7-0.5,4c0,0.5-0.1,1-0.1,1.5l-0.1,0.7c-0.1,1.3-0.2,2.6-0.6,3.9
		l0,0.1c-0.1,0.3-0.2,0.6-0.1,0.8c0-0.1-0.1-0.1-0.2-0.1c-0.2,0.1-0.2,0.2-0.2,0.4c-0.3,0.9-0.6,1.7-0.8,2.4
		c-0.2,0.4-0.5,1.4-0.7,1.9c-0.2,0.5-0.7-0.1-1,0.3c-0.5,0.5-0.7,2.2-1,2.9c-0.3,0.8-0.9,1.6-0.4,2.3l0,0c0,0,0,0,0,0
		c0,0,0.1,0.1,0.1,0.1c0.7,1,2.6,0.5,3.7,0.6c1.3,0.1,2.6,0.2,3.9,0.4c1.7,0.2,3.6,0.6,5.4,0.2c0.8-0.2,1.3-1,2.1-1.2
		c0.8-0.2,1.5,0.2,2.4-0.5c2.3-1.8-1.2-2-2.3-2.6c-1.6-0.8-1.9-2.6-2.8-2.8c-0.1,0-0.8,0.1-0.9,0c-0.2-0.1-0.1-1.3-0.1-1.4
		c0.1-1.2,0.2-1.8,0.8-2.7c0.1-0.1,0.1-0.2,0.1-0.3c0,0,0,0-0.1,0c0.2-0.2,0.3-0.5,0.3-0.7c0-0.1,0.1-0.2,0.1-0.3
		c0.1-0.1,0.1-0.2,0.1-0.4c0.2-0.4,0.3-0.8,0.6-1.1c0.3-0.4,0.4-0.7,0.6-1.1c0.1-0.1,0.1-0.3,0.2-0.5c0.2-0.3,0.4-0.7,0.6-1l0.2-0.4
		c0.6-1.1,0.8-1.7,1.3-3.2c0.1-0.3,0.2-0.6,0.3-0.9c0.3-0.9,0.5-1.8,0.9-2.6c0.2-0.5,0.5-1,0.8-1.5l0.1-0.1c0.4-0.6,0.7-1.2,0.7-1.6
		c0.4,0,0.5-0.1,0.6-1.1c0.1-0.9,0-1.6-0.1-2.5c-0.2-0.9,0-1.9-0.1-2.8c-0.3-3.7-1.2-7.1-2.1-10.6c-0.3-1.2-0.7-2.5-1-3.7
		c-0.2-0.7-0.2-1.4-0.5-2.1c-0.2-0.6-0.7-1.2-0.8-1.8c1.3,0.3,2.7-4.3,3.1-5.5c0.6-2,1.2-4.5,1.3-6.6c0.2-0.1,0.4-0.3,0.6-0.4
		c1.6-1,2.9-2.2,3.8-3.5c0.2,0.2,1.1,0.6,1.8,0.6c0.1,0,0.2,0,0.3,0c0.6,0,1.1,0.1,1.7,0.3c0.9,0.2,1.6,0.3,2.9,0.5
		c0.3,0.1,0.7,0.1,1.2,0.1c0.3,0,0.6-0.1,0.8-0.2c0.4-0.2,0.6-0.7,0.9-1.1c0.1-0.2,0.2-0.3,0.3-0.4c0.7-1,1.2-2.2,1.4-3.5
		c0.1-0.5,0.1-1,0.2-1.5c0.1-0.8,0.2-1.6,0.4-2.4c0-0.2,0-0.5,0.1-0.7c0-0.4,0-0.7,0.1-1c0.1-0.3,0.2-0.6,0.4-0.9
		c0.1-0.2,0.2-0.4,0.3-0.6c0.2-0.4,0.4-0.8,0.6-1.2c0.2-0.4,0.4-0.8,0.6-1.2C61.4,81.4,62.1,79.5,61.1,79L61.1,79z"/>
	<path d="M53.3,79c0.2-0.1,0.5-0.2,0.7-0.3c0.1,0,0.1,0,0.2-0.1c-0.5-1.3-0.9-2.6-1.2-3.9c-0.1-0.3-0.1-0.6-0.2-0.9
		c-1.2,0.5-2.4,1.5-2.8,2.7c0.8,0.1,1.8,0.7,2.1,1C52.6,77.8,53,78.4,53.3,79L53.3,79z"/>
	<path d="M53.4,74.6c0.3,1.3,0.7,2.6,1.2,3.9c0.1,0,0.1-0.1,0.2-0.1c0.2-0.1,0.4-0.2,0.6-0.3c-0.1-0.5-0.2-1-0.1-1.4
		c0.1-0.9,0.8-1.8,1.3-2.4c0.2-0.2,0.4-0.5,0.6-0.7c-1.2-0.4-2.6-0.5-3.9-0.1c0,0-0.1,0-0.1,0.1c0,0,0,0,0,0
		C53.3,73.9,53.4,74.3,53.4,74.6L53.4,74.6z"/>
	<path d="M55.8,76.8c-0.1,0.4,0,0.8,0.1,1.2c0.5-0.2,0.9-0.3,1.5-0.5c0.3-0.1,0.6-0.2,0.9-0.2c0.2-0.1,0.5-0.1,0.7-0.2
		c0.5-0.1,1.1-0.3,1.6-0.3c0,0,0,0,0-0.1c-0.2-0.8-0.9-1.8-1.8-2.4c-0.3-0.2-0.7-0.4-1.1-0.6c0,0,0,0,0,0c-0.3,0.2-0.5,0.5-0.7,0.8
		C56.5,75.2,55.9,76,55.8,76.8L55.8,76.8z"/>
	<path d="M55,78.8c-0.1,0-0.1,0.1-0.2,0.1c0.1,0.2,0.1,0.4,0.2,0.6l0.3,0.8c0.1,0.3,0.2,0.7,0.3,0.9c0.1,0.2,0.2,0.4,0.3,0.6
		c0.1,0.1,0.1,0.3,0.2,0.4c0.3,0.8,0.8,1.5,1.2,2.2c0,0,0.1,0.1,0.1,0.1c0.4-0.2,0.8-0.4,1.1-0.6c0.3-0.3,0.6-0.6,1-0.9
		c0.3-0.3,0.6-0.9,0.8-1.3c0-0.1,0-0.1,0.1-0.1c-0.3,0-0.5-0.1-0.7-0.2c-0.1,0-0.2-0.1-0.3-0.1C59,81.2,58.5,81,58,80.8
		c-0.9-0.5-1.6-1-2-1.5c-0.2-0.2-0.3-0.4-0.4-0.7C55.4,78.6,55.2,78.7,55,78.8L55,78.8z"/>
</g>
<line fill="none" x1="420" y1="32" x2="425" y2="32"/>
<line fill="none" stroke="#000000" stroke-width="2" stroke-miterlimit="10" x1="257" y1="26" x2="257" y2="165"/>
<g>
	<polygon points="543.6,31.9 542,35.2 543.6,38.4 545.2,35.2 	"/>
	<polygon points="544.2,39.6 546,42.9 547.6,39.6 546,36.4 	"/>
	<polygon points="544.2,30.6 546,33.8 547.6,30.6 546,27.3 	"/>
	<polygon points="539.6,39.6 541.2,42.9 543,39.6 541.2,36.4 	"/>
	<path d="M549.5,34.3l-1.3-2.4l-1.6,3.3l1.6,3.2l0.7-1.3l-0.9,4.1l-1.5,3l0.7,1.2l-0.3,1h-0.6l-0.4-0.9l-0.4,0.9h-1.3l1-2.2
		l-1.6-3.2l-1.6,3.2l1,2.2h-1.3l-0.4-0.9l-0.4,0.9h-1.3l1.2-2.2l-1.6-3.2l-1.8,3.2l1.2,2.2h-1.3l-0.4-0.9l-0.4,0.9h-0.3l-0.3-1.5
		l0.3-0.7l-1-2.2l-1.2-4.6l0.6,1l1.6-3.2l-1.6-3.3l-1.2,2.4l-0.4-1.8l1-1.9l-1.9-3.7h1.3l1.2,2.4l1.2-2.4h2.2l1.3,2.4l1.2-2.4h2.2
		l1.2,2.4l1.2-2.4h2.2l1.2,2.4l1.3-2.4h1.3l-1.9,3.7l0.9,1.8L549.5,34.3z M531.3,25.7h-1.6l5.2,21.9H548l4.4-21.9H531.3z"/>
	<polygon points="543,30.6 541.2,27.3 539.6,30.6 541.2,33.8 	"/>
	<polygon points="534.9,39.6 536.7,42.9 538.3,39.6 536.7,36.4 	"/>
	<polygon points="539,31.9 537.3,35.2 539,38.4 540.7,35.2 	"/>
	<polygon points="538.3,30.6 536.7,27.3 534.9,30.6 536.7,33.8 	"/>
</g>
<g>
	<path d="M348.3,98.1c-0.4,0.3-0.9,0.6-1.3,0.7c-0.4,0.1-0.6,0-0.9-0.2c-0.1-0.1-0.2-0.2-0.4-0.2c-0.8-0.4-1.8-0.9-2.7-1.6
		c-0.2-0.2-0.4-0.4-0.7-0.6c-0.2-0.2-0.4-0.3-0.6-0.5c-0.1-0.1-0.2-0.1-0.3-0.2c-0.2-0.1-0.3-0.2-0.5-0.4c-0.1-0.1-0.3-0.2-0.4-0.3
		c-0.1-0.1-0.4-0.4-0.5-0.6c0,0,0,0,0,0c-0.4-0.6-0.4-0.9-0.6-1.5c-0.1-0.4-0.2-0.7-0.4-1c0-0.1-0.1-0.1-0.1-0.2
		c-0.1-0.2-0.2-0.4-0.4-0.7c0,0-0.1-0.1-0.1-0.1c-0.1-0.1-0.4-0.3-0.6-0.3c-0.1,0-0.2,0.1-0.2,0.2c0,0.1,0.1,0.2,0.2,0.2
		c0.1,0,0.2,0.1,0.3,0.2c0,0,0.1,0.1,0.1,0.1c0.2,0.2,0.3,0.4,0.3,0.5c0,0.1,0.1,0.1,0.1,0.2c0.1,0.2,0.3,0.5,0.3,0.9
		c0.2,0.6,0.4,1.2,0.8,1.8c-0.2,0.2-0.4,0.4-0.6,0.5c-0.3,0.3-0.7,0.6-1.1,0.9c-0.3,0.2-1.2,0.8-2.1,0.8c-0.1,0-0.1,0-0.2,0
		l-0.6-0.1c-0.6-0.3-1.2-1-1.4-1.8c-0.2-0.8-0.2-1.4-0.1-2.2c0-0.3,0.1-0.5,0.1-0.8c0-0.8,0.2-2.3,0.9-3.5c0.3-0.6,1.2-1.9,2.2-2.7
		c0.8-0.6,1.7-0.9,2.7-0.9c1.3,0,2.4,0.5,3.2,1.3c0.7,0.7,1.1,2,1,2.9l0,0.2c0,0.3,0,0.5,0.3,0.7c0.1,0,0.1,0.1,0.2,0.1
		c0.1,0.1,0.3,0.2,0.4,0.3c0.1,0.1,0.2,0.2,0.3,0.3c0.3,0.3,0.7,0.6,0.9,1c0,0.1,0.1,0.1,0.1,0.2c0.1,0.2,0.1,0.5,0.4,0.6
		c0.3,0.1,0.6,0,0.8-0.1c0,0,0.1,0,0.1-0.1c0.5-0.2,1-0.4,1.4-0.8c0.6-0.5,1.1-1,1.6-1.6c0.2-0.2,0.4-0.4,0.6-0.6l0.2-0.2
		c0.2-0.2,0.3-0.4,0.5-0.5c0,0,0,0,0.1-0.1c0.5-0.5,0.9-0.9,1.3-1.4c0.2-0.3,0.4-0.6,0.6-0.9c0.1-0.2,0.2-0.4,0.3-0.5
		c0.4-0.6,0.3-0.9,0.1-1.3c0-0.1-0.1-0.3-0.1-0.4c-0.2-0.7-0.2-1.4-0.3-2.1c0-0.5-0.1-1-0.1-1.5c-0.1-0.7,0-1.4,0.1-1.8
		c0-0.1,0-0.2,0.1-0.4c0.1-0.4,0.1-0.9,0.4-1.1c0,0,0,0,0.1,0c0,0.2-0.1,0.4-0.2,0.6c-0.1,0.1-0.1,0.2,0,0.3s0.2,0.1,0.3,0
		c0.1-0.1,0.2-0.1,0.2-0.2c0,0,0,0,0,0.1c0,0.1,0,0.2-0.2,0.4c-0.1,0.1-0.2,0.2-0.2,0.3c-0.2,0.4-0.1,1.1,0,1.6c0,0.2,0,0.3,0.1,0.5
		c0,0.1,0,0.1,0.1,0.2c0.1,0,0.1,0,0.2,0c0.2-0.1,0.3-0.2,0.4-0.3c0.1-0.1,0.2-0.2,0.2-0.2c0.1-0.1,0.2,0,0.2,0c0,0,0,0.1,0,0.2
		c0,0.2-0.2,0.4-0.3,0.6c-0.2,0.3-0.5,0.7-0.4,1.1c0,0.1,0.1,0.2,0.2,0.2c0.4,0.1,0.8,0.7,1.1,1l0.1,0.1c0.2,0.2,0.7,0.9,0.7,1.4
		c0,0.3-0.1,0.6-0.3,1c-0.1,0.2-0.2,0.4-0.2,0.6c-0.1,0.3-0.2,0.7-0.4,1c-0.1,0.2-0.2,0.3-0.2,0.5c-0.3,0.8-0.8,1.6-1.2,2.4
		l-0.3,0.4c-0.1,0.1-0.2,0.3-0.2,0.5c-0.1,0.2-0.2,0.4-0.4,0.7c0,0-0.1,0.3-0.3,0.8c-0.2,0.4-0.4,0.8-0.6,1.1
		C351.7,95.4,350.2,96.8,348.3,98.1L348.3,98.1z M344,134.9c0,0,0.1,0.1,0,0.2c0,0.1-0.2,0.3-0.4,0.5c-0.1,0.1-0.2,0.2-0.3,0.2
		c-0.3,0.3-0.5,0.7-0.7,1.1c-0.2,0.4-0.5,0.9-0.7,1.3c-0.2,0.4-0.5,0.8-0.7,1.3c-0.3,0.4-0.5,0.9-0.7,1.4c-0.1,0.2-0.2,0.4-0.2,0.5
		c-0.3,0.6-0.6,1.2-0.9,1.8c-0.2,0.3-0.3,0.7-0.5,1.1c-0.1,0.1-0.2,0.3-0.2,0.4c-0.2,0.3-0.4,0.6-0.5,0.9c-0.1,0.3-0.2,0.6-0.3,0.9
		c-0.1,0.2-0.1,0.5-0.2,0.7c-0.1,0.3-0.2,0.5-0.3,0.8c-0.3,0.8-0.7,1.9-0.9,2.6c-0.2,0.8-0.4,1-1.4,1.1c0,0-0.8-0.1-1.4-0.4
		c-0.5-0.2-0.5-0.2-0.3-0.8l0-0.1c0.4-1.3,0.5-2.6,0.6-4l0.1-0.7c0-0.5,0.1-1,0.1-1.5c0.1-1.3,0.2-2.7,0.5-4
		c0.2-0.9,0.5-1.7,0.9-2.4c0.2-0.3,0.3-0.6,0.5-0.9c0.3-0.6,0.5-1,1.1-1.4c0.8-0.6,1.1-0.7,1.9-0.9c0.3-0.1,0.7-0.1,1.1-0.1
		c0.8,0,1.7,0.1,2.3,0.2c0.2,0,0.4,0,0.6,0C343.3,134.8,343.8,134.8,344,134.9L344,134.9z M344.4,135.6c0.2,0,0.5,0,0.9-0.1
		c0.4,0,0.9-0.1,1.2-0.1c0.4,0,0.6,0.1,0.6,0.1c0,0.1,0,0.4-0.6,1.4l-0.1,0.1c-0.3,0.5-0.6,1-0.9,1.6c-0.4,0.8-0.7,1.7-1,2.6
		c-0.1,0.3-0.2,0.6-0.3,0.9c-0.5,1.5-0.7,2.1-1.3,3.1l-0.2,0.4c-0.2,0.3-0.4,0.7-0.6,1c-0.1,0.2-0.2,0.3-0.2,0.5
		c-0.2,0.4-0.3,0.7-0.6,1.1c-0.3,0.4-0.4,0.8-0.6,1.2c0,0.1-0.1,0.2-0.1,0.4c0,0.1-0.1,0.2-0.1,0.3c-0.1,0.3-0.3,0.8-0.5,0.8
		c-0.7,0.2-1.5-0.1-2.1-0.4c-0.3-0.1-0.5-0.2-0.8-0.3c0.2-0.9,0.6-1.8,0.9-2.6l0-0.1c0,0,0-0.1,0-0.1c0-0.1,0.1-0.2,0.1-0.3
		c0.1-0.4,0.3-0.8,0.5-1.2c0.2-0.5,0.4-0.9,0.7-1.4c0-0.1,0.1-0.2,0.1-0.3c0.4-0.8,0.9-1.7,1.3-2.6c0-0.1,0.1-0.1,0.1-0.2
		c0.3-0.6,0.6-1.1,0.9-1.7c0.2-0.4,0.4-0.7,0.7-1.1c0.1-0.2,0.3-0.4,0.4-0.6c0.2-0.4,0.4-0.7,0.6-1.1l0.2-0.4
		c0.1-0.3,0.3-0.5,0.5-0.6l0.1-0.1C344.2,135.8,344.2,135.7,344.4,135.6L344.4,135.6z M339.2,80.1c-0.7-0.8-1.1-2.7-0.9-3.8
		c0.5-2.6,3.2-3.1,4.9-3.2c1.2,0,2.3,0.5,2.9,1.3c0.1,0.1,0.2,0.2,0.2,0.3c0.2,0.3,0.5,0.6,0.5,0.9c0,0.1,0,0.2,0,0.3
		c0,0.2,0,0.4,0,0.7c0,0.1,0.1,0.2,0.1,0.3c0,0.1,0.1,0.3,0.1,0.4c0.2,0.8,0.2,1.6,0.2,2.4c0,0.4,0,0.8,0,1.2l0,0.2
		c0,0.5,0.1,0.7-0.2,1.1c-0.1,0.1-0.3,0.2-0.4,0.3c-0.3,0.2-0.6,0.4-0.7,0.8c0,0.2,0,0.4,0,0.6c0,0.2,0.1,0.3,0,0.5
		c0,0.1-0.1,0.2-0.1,0.3c-0.1,0.2-0.2,0.5-0.2,0.8c0,0,0,0,0,0s0,0,0,0c-0.1,0.9-0.4,1.5-0.2,2.3c-0.4-0.4-0.9-0.9-1.5-1.1
		c-0.2-0.4-0.4-0.7-0.7-1c-0.4-0.5-1-0.8-1.6-1.1c-0.2-0.2-0.5-0.3-0.7-0.4c-0.3-0.2-0.6-0.5-1-0.7
		C340.2,82.9,340.1,81.3,339.2,80.1L339.2,80.1z M346.7,85.8c0.2,0,0.4,0,0.7,0c0.5,0,1,0,1.6,0.3c0.8,0.3,1.3,0.8,2,1.4
		c0.2,0.2,0.4,0.3,0.5,0.4c0.1,0.1,0.2,0.2,0.2,0.2c0,0,0,0-0.1,0.1c0,0-0.1,0.1-0.1,0.1c-0.1,0.1-0.2,0.2-0.3,0.3
		c-0.1,0.1-0.1,0.1-0.2,0.2c-0.2,0.2-0.4,0.4-0.5,0.5c-0.2,0.2-0.4,0.3-0.7,0.7c-0.1,0.1-0.4,0.4-0.4,0.4c-0.1-0.1-0.2-0.5-0.3-1
		c-0.1-0.4-0.2-0.8-0.5-1.2c-0.1-0.1-0.2-0.3-0.4-0.5c0,0,0-0.1-0.1-0.1c-0.1-0.1-0.1-0.2-0.2-0.3c-0.4-0.4-0.8-0.9-1.2-1.2
		c0,0-0.1-0.1-0.1-0.1c-0.1-0.1-0.1-0.1-0.2-0.2l-0.1-0.1C346.4,85.8,346.6,85.8,346.7,85.8L346.7,85.8z M366.1,79c0,0-0.1,0-0.1,0
		c0-0.5-0.1-1.1-0.2-1.7c-0.6,0-1.1,0.1-1.6,0.3c-0.3,0.1-0.5,0.1-0.8,0.2c-0.3,0.1-0.6,0.1-0.9,0.2c-0.6,0.2-1,0.3-1.5,0.5
		c0.1,0.2,0.2,0.4,0.3,0.6c0.4,0.5,1,0.9,1.9,1.4c0.3,0.2,0.9,0.4,1.2,0.6c0.1,0,0.2,0.1,0.3,0.1c0.2,0.1,0.4,0.2,0.6,0.2
		c0.1,0,0.1,0,0.1,0.1c0.2-0.6,0.3-1.1,0.5-1.7c0,0,0-0.1,0-0.2c0,0,0.1,0,0.1,0.1c0.1,0.1,0.2,0.1,0.2,0.4c0.1,0.5-0.2,1.2-0.4,1.9
		c-0.2,0.4-0.4,0.8-0.6,1.2c-0.2,0.4-0.4,0.8-0.6,1.2c-0.1,0.2-0.2,0.4-0.3,0.6c-0.2,0.3-0.3,0.7-0.4,1c-0.1,0.4-0.1,0.8-0.1,1.1
		c0,0.2,0,0.5-0.1,0.7c-0.1,0.8-0.2,1.6-0.3,2.4c-0.1,0.5-0.2,1-0.2,1.5c-0.2,1.2-0.7,2.4-1.3,3.3c-0.1,0.1-0.2,0.3-0.3,0.4
		c-0.2,0.4-0.5,0.8-0.7,0.9c-0.1,0.1-0.3,0.1-0.6,0.1c-0.4,0-0.8-0.1-1.1-0.1c-1.3-0.2-2-0.3-2.8-0.5c-0.6-0.2-1.2-0.3-1.8-0.3
		c-0.1,0-0.2,0-0.4,0c-0.3,0-1.3-0.4-1.5-0.5c0.4-0.6,0.8-1.4,1-1.9c0.1-0.1,0.1-0.2,0.1-0.3c0.2-0.3,0.3-0.7,0.5-1
		c0.1-0.1,0.2-0.3,0.3-0.4c0.3-0.4,0.5-0.8,0.7-1.3c0.7,0,1.1,0.5,1.7,1.1c0.2,0.3,0.5,0.5,0.7,0.7c0,0,0.1,0.1,0.2,0
		c0.1,0,0.1,0,0.2-0.1c0.2-0.3,0.3-0.4,0.6-0.6c1.8-1.4,3-3.8,2.8-5.9c0,0,0-0.1,0-0.1c0.2,0,0.4-0.1,0.6-0.1c0,0,0,0,0,0
		c-0.5-0.7-0.9-1.5-1.2-2.3c-0.1-0.2-0.1-0.3-0.2-0.4c-0.1-0.2-0.2-0.4-0.3-0.7c-0.1-0.3-0.2-0.6-0.4-1l-0.3-0.8
		c-0.1-0.2-0.1-0.4-0.2-0.6c-0.1,0-0.1,0-0.2,0.1c-0.2,0.1-0.5,0.2-0.7,0.3c0.1,0.4,0.2,0.9,0.2,1.3c0,0.5-0.1,1-0.2,1.4
		c-0.1,0.7-0.4,1.3-0.6,1.9c-0.1,0.2-0.2,0.4-0.2,0.6c0,0,0,0,0,0c0.2,0.1,0.4,0.1,0.6,0.2c0.5,0.1,1,0.1,1.4,0.1c0.6,0,0.8,0,1.3,0
		c0.2,2-0.9,4.3-2.6,5.6c-0.2,0.1-0.4,0.3-0.5,0.5c-0.2-0.2-0.3-0.3-0.5-0.5c-0.5-0.5-1-1.1-1.8-1.2c0.2-0.4,0.4-0.8,0.6-1.2
		c0.1-0.2,0.1-0.3,0.2-0.5c0.2-0.3,0.3-0.7,0.4-1c0-0.2,0.1-0.3,0.2-0.5c0.1-0.4,0.3-0.7,0.3-1.1c0-0.1,0-0.3-0.1-0.4h0
		c0.1-0.2,0.2-0.4,0.2-0.6c0.2-0.6,0.5-1.2,0.6-1.9c0.1-0.4,0.2-0.9,0.2-1.3c0-0.4,0-0.8-0.1-1.2c-0.1,0.1-0.2,0.1-0.3,0.1
		c-0.6,0.3-1.1,0.5-1.7,0.7c0-0.2,0-0.3-0.1-0.5c0.5-0.2,1.1-0.4,1.6-0.7c0.1-0.1,0.2-0.1,0.4-0.2c-0.2-0.5-0.6-1-1-1.3
		c-0.7-0.6-1.5-0.9-2-1c0,0,0,0,0,0.1c0-0.1-0.1-0.2-0.1-0.3c0-0.1-0.1-0.1-0.2-0.1c-0.2,0-0.3,0.1-0.5,0.2
		c-0.4,0.3-0.5,0.9-0.5,1.3c0,0.1,0,0.2-0.1,0.3c-0.1,0.5-0.2,1.2-0.1,2c0.1,0.5,0.1,1,0.1,1.5c0.1,0.7,0.1,1.5,0.3,2.2
		c0,0.2,0.1,0.4,0.2,0.5c0.1,0.4,0.2,0.5-0.1,0.9c-0.1,0.2-0.2,0.4-0.4,0.6c-0.2,0.3-0.3,0.6-0.6,0.8c-0.3,0.3-0.6,0.7-0.9,1
		c-0.1-0.1-0.2-0.2-0.3-0.2c-0.1-0.1-0.3-0.2-0.5-0.4c-0.7-0.7-1.3-1.2-2.1-1.5c-0.7-0.3-1.3-0.3-1.8-0.3c-0.2,0-0.4,0-0.7,0
		c-0.2,0-0.4,0-0.6,0c0-0.1,0.1-0.2,0.1-0.4c0.1-0.1,0.1-0.3,0.2-0.4c0.1-0.2,0-0.5,0-0.7c0-0.1-0.1-0.3,0-0.4
		c0-0.2,0.3-0.3,0.5-0.5c0.2-0.1,0.4-0.3,0.5-0.5c0.4-0.5,0.3-0.9,0.3-1.4l0-0.2c0-0.4,0-0.8,0-1.2c0-0.8,0-1.7-0.2-2.5
		c0-0.1-0.1-0.3-0.1-0.4c0-0.1-0.1-0.2-0.1-0.3c0-0.2,0-0.3,0-0.5c0-0.1,0-0.2,0-0.3c0-0.5-0.3-0.9-0.6-1.2
		c-0.1-0.1-0.2-0.2-0.2-0.3c-0.7-1-1.9-1.5-3.3-1.5c-1.8,0.1-4.8,0.6-5.3,3.6c-0.2,1.3,0.2,3.3,1,4.2c0.8,0.9,0.9,2.3,0.9,3.1
		c-0.3,0-0.5,0.3-0.8,0.4c-0.4,0.2-0.8,0.5-1.2,0.7c-0.4,0.3-0.8,0.6-1.1,0.9c-0.7,0.6-1.3,1.4-1.7,2c-0.2,0.3-0.4,0.6-0.6,0.9
		c0,0,0,0,0,0c-0.3,0.7-0.5,1.5-0.6,2.2c-0.5,1.3-0.8,3.2-1.1,4.7c-0.3,1.7-0.8,3.4-0.9,5.2c-0.2,1.7-0.3,3.2-1.2,4.7
		c-0.2,0.3-0.5,0.5-0.6,0.8c-0.2,0.5,0,0.7-0.1,1c-0.1,0.7-0.5,1.2-0.8,1.9c-1.2,3.1-0.8,7.4-0.6,10.7c0.2,3.7-0.5,7.9,0,11.5
		c0.2,1.2,0.1,3.4,0.3,3.5c0.2,0.1,2.5-0.4,4.1,0c-0.1,0.2-0.1,0.5,0,0.6c0.1,0.1,2.6,0.3,3.6,0c-0.5,0.5-0.8,0.9-1,1.4
		c-0.1,0.3-0.3,0.6-0.4,0.8c-0.4,0.7-0.8,1.5-1,2.5c-0.3,1.3-0.4,2.7-0.5,4c0,0.5-0.1,1-0.1,1.5l-0.1,0.7c-0.1,1.3-0.2,2.6-0.6,3.9
		l0,0.1c-0.1,0.3-0.2,0.6-0.1,0.8c0-0.1-0.1-0.1-0.2-0.1c-0.2,0.1-0.2,0.2-0.2,0.4c-0.3,0.9-0.6,1.7-0.8,2.4
		c-0.2,0.4-0.5,1.4-0.7,1.9c-0.2,0.5-0.7-0.1-1,0.3c-0.5,0.5-0.7,2.2-1,2.9c-0.3,0.8-0.9,1.6-0.4,2.3l0,0c0,0,0,0,0,0
		c0,0,0.1,0.1,0.1,0.1c0.7,1,2.6,0.5,3.7,0.6c1.3,0.1,2.6,0.2,3.9,0.4c1.7,0.2,3.6,0.6,5.4,0.2c0.8-0.2,1.3-1,2.1-1.2
		c0.8-0.2,1.5,0.2,2.4-0.5c2.3-1.8-1.2-2-2.3-2.6c-1.6-0.8-1.9-2.6-2.8-2.8c-0.1,0-0.8,0.1-0.9,0c-0.2-0.1-0.1-1.3-0.1-1.4
		c0.1-1.2,0.2-1.8,0.8-2.7c0.1-0.1,0.1-0.2,0.1-0.3c0,0,0,0-0.1,0c0.2-0.2,0.3-0.5,0.3-0.7c0-0.1,0.1-0.2,0.1-0.3
		c0.1-0.1,0.1-0.2,0.1-0.4c0.2-0.4,0.3-0.8,0.6-1.1c0.3-0.4,0.4-0.7,0.6-1.1c0.1-0.1,0.1-0.3,0.2-0.5c0.2-0.3,0.4-0.7,0.6-1l0.2-0.4
		c0.6-1.1,0.8-1.7,1.3-3.2c0.1-0.3,0.2-0.6,0.3-0.9c0.3-0.9,0.5-1.8,0.9-2.6c0.2-0.5,0.5-1,0.8-1.5l0.1-0.1c0.4-0.6,0.7-1.2,0.7-1.6
		c0.4,0,0.5-0.1,0.6-1.1c0.1-0.9,0-1.6-0.1-2.5c-0.2-0.9,0-1.9-0.1-2.8c-0.3-3.7-1.2-7.1-2.1-10.6c-0.3-1.2-0.7-2.5-1-3.7
		c-0.2-0.7-0.2-1.4-0.5-2.1c-0.2-0.6-0.7-1.2-0.8-1.8c1.3,0.3,2.7-4.3,3.1-5.5c0.6-2,1.2-4.5,1.3-6.6c0.2-0.1,0.4-0.3,0.6-0.4
		c1.6-1,2.9-2.2,3.8-3.5c0.2,0.2,1.1,0.6,1.8,0.6c0.1,0,0.2,0,0.3,0c0.6,0,1.1,0.1,1.7,0.3c0.9,0.2,1.6,0.3,2.9,0.5
		c0.3,0.1,0.7,0.1,1.2,0.1c0.3,0,0.6-0.1,0.8-0.2c0.4-0.2,0.6-0.7,0.9-1.1c0.1-0.2,0.2-0.3,0.3-0.4c0.7-1,1.2-2.2,1.4-3.5
		c0.1-0.5,0.1-1,0.2-1.5c0.1-0.8,0.2-1.6,0.4-2.4c0-0.2,0-0.5,0.1-0.7c0-0.4,0-0.7,0.1-1c0.1-0.3,0.2-0.6,0.4-0.9
		c0.1-0.2,0.2-0.4,0.3-0.6c0.2-0.4,0.4-0.8,0.6-1.2c0.2-0.4,0.4-0.8,0.6-1.2C366.4,81.4,367.1,79.5,366.1,79L366.1,79z"/>
	<path d="M358.3,79c0.2-0.1,0.5-0.2,0.7-0.3c0.1,0,0.1,0,0.2-0.1c-0.5-1.3-0.9-2.6-1.2-3.9c-0.1-0.3-0.1-0.6-0.2-0.9
		c-1.2,0.5-2.4,1.5-2.8,2.7c0.8,0.1,1.8,0.7,2.1,1C357.6,77.8,358,78.4,358.3,79L358.3,79z"/>
	<path d="M358.4,74.6c0.3,1.3,0.7,2.6,1.2,3.9c0.1,0,0.1-0.1,0.2-0.1c0.2-0.1,0.4-0.2,0.6-0.3c-0.1-0.5-0.2-1-0.1-1.4
		c0.1-0.9,0.8-1.8,1.3-2.4c0.2-0.2,0.4-0.5,0.6-0.7c-1.2-0.4-2.6-0.5-3.9-0.1c0,0-0.1,0-0.1,0.1c0,0,0,0,0,0
		C358.3,73.9,358.4,74.3,358.4,74.6L358.4,74.6z"/>
	<path d="M360.8,76.8c-0.1,0.4,0,0.8,0.1,1.2c0.5-0.2,0.9-0.3,1.5-0.5c0.3-0.1,0.6-0.2,0.9-0.2c0.2-0.1,0.5-0.1,0.7-0.2
		c0.5-0.1,1.1-0.3,1.6-0.3c0,0,0,0,0-0.1c-0.2-0.8-0.9-1.8-1.8-2.4c-0.3-0.2-0.7-0.4-1.1-0.6c0,0,0,0,0,0c-0.3,0.2-0.5,0.5-0.7,0.8
		C361.5,75.2,360.9,76,360.8,76.8L360.8,76.8z"/>
	<path d="M360,78.8c-0.1,0-0.1,0.1-0.2,0.1c0.1,0.2,0.1,0.4,0.2,0.6l0.3,0.8c0.1,0.3,0.2,0.7,0.3,0.9c0.1,0.2,0.2,0.4,0.3,0.6
		c0.1,0.1,0.1,0.3,0.2,0.4c0.3,0.8,0.8,1.5,1.2,2.2c0,0,0.1,0.1,0.1,0.1c0.4-0.2,0.8-0.4,1.1-0.6c0.3-0.3,0.6-0.6,1-0.9
		c0.3-0.3,0.6-0.9,0.8-1.3c0-0.1,0-0.1,0.1-0.1c-0.3,0-0.5-0.1-0.7-0.2c-0.1,0-0.2-0.1-0.3-0.1c-0.4-0.1-0.8-0.4-1.3-0.6
		c-0.9-0.5-1.6-1-2-1.5c-0.2-0.2-0.3-0.4-0.4-0.7C360.4,78.6,360.2,78.7,360,78.8L360,78.8z"/>
</g>
<g>
	<path d="M397.7,36c-1.8,1.7-3.4,3.5-4.9,5.2c1.1,1,2.6,1.7,4.3,1.8c0.1-0.3,0.1-0.9,0.1-1.4c0.1-1.5,0.2-3.5,1.3-4.8
		C398.2,36.5,398,36.2,397.7,36L397.7,36z"/>
	<path d="M392.9,32.2c-1.1,1-1.9,2.3-2,3.8c2.6-0.3,4.2-0.9,5.1-1.6C395,33.7,394,32.9,392.9,32.2L392.9,32.2z"/>
	<path d="M397.7,35c1.3-1.1,2.7-2.2,4.2-3.1c-1-0.8-2.3-1.3-3.6-1.4c0,0.2-0.1,0.5-0.1,0.8c-0.1,1-0.2,2.1-1.1,3.2
		C397.2,34.6,397.5,34.8,397.7,35L397.7,35z"/>
	<path d="M397.4,31.2c0-0.3,0.1-0.5,0.1-0.7c-1.5,0-2.9,0.5-4,1.3c1,0.7,2,1.4,3,2.2C397.2,33.1,397.3,32.1,397.4,31.2L397.4,31.2z"
		/>
	<path d="M397.9,41.5c0,0.5,0,1-0.1,1.4c1.7-0.1,3.2-0.7,4.4-1.8c-0.9-1.3-2-2.7-3.2-3.9C398.1,38.4,398,40.2,397.9,41.5L397.9,41.5
		z"/>
	<path d="M404.2,36.6c-2.1-0.6-3.6-0.6-4.6,0.1c0,0-0.1,0.1-0.1,0.1c1.2,1.2,2.3,2.6,3.2,3.9C403.6,39.6,404.2,38.2,404.2,36.6
		C404.2,36.7,404.2,36.7,404.2,36.6L404.2,36.6z"/>
	<path d="M397.2,35.5c-0.2-0.2-0.5-0.4-0.7-0.6c-1,0.8-2.8,1.5-5.7,1.8v0c0,1.5,0.6,2.8,1.5,3.9C393.8,38.9,395.4,37.2,397.2,35.5
		L397.2,35.5z"/>
	<path d="M399,36.3c0.1,0,0.1-0.1,0.2-0.1c1.2-0.7,2.8-0.8,5-0.2c-0.2-1.4-0.8-2.6-1.8-3.6c-1.5,0.9-2.9,2-4.2,3.1
		C398.5,35.8,398.8,36,399,36.3L399,36.3z"/>
	<path d="M384.6,44.5c0.1,0,0.2,0,0.3-0.1l5.6-5.1c0.1-0.1,0.1-0.3,0-0.5c-0.1-0.1-0.4-0.1-0.5,0l-5.6,5.1c-0.1,0.1-0.1,0.3,0,0.5
		C384.4,44.4,384.5,44.5,384.6,44.5L384.6,44.5z"/>
	<path d="M391.1,42.5c-0.1-0.1-0.4-0.1-0.5,0l-7,6.4c-0.1,0.1-0.1,0.3,0,0.5c0.1,0.1,0.2,0.1,0.3,0.1s0.2,0,0.3-0.1l7-6.4
		C391.2,42.8,391.2,42.6,391.1,42.5L391.1,42.5z"/>
	<path d="M394.2,43.4l-7,6.4c-0.1,0.1-0.1,0.3,0,0.5c0.1,0.1,0.2,0.1,0.3,0.1s0.2,0,0.3-0.1l7-6.4c0.1-0.1,0.1-0.3,0-0.5
		C394.5,43.3,394.3,43.3,394.2,43.4L394.2,43.4z"/>
</g>
<line fill="none" x1="552" y1="26" x2="557" y2="26"/>
<line fill="none" stroke="#000000" stroke-width="2" stroke-miterlimit="10" x1="556" y1="26" x2="556" y2="165"/>
<line fill="none" stroke="#000000" stroke-width="2" stroke-miterlimit="10" x1="556" y1="27" x2="552" y2="27"/>
<path d="M102.2,43.1c-1.8,1.7-3.4,3.5-4.9,5.2c1.1,1,2.6,1.7,4.3,1.8c0.1-0.3,0.1-0.9,0.1-1.4c0.1-1.5,0.2-3.5,1.3-4.8
	C102.8,43.7,102.5,43.4,102.2,43.1L102.2,43.1z"/>
<path d="M97.4,39.4c-1.1,1-1.9,2.3-2,3.8c2.6-0.3,4.2-0.9,5.1-1.6C99.5,40.8,98.5,40.1,97.4,39.4L97.4,39.4z"/>
<path d="M102.2,42.2c1.3-1.1,2.7-2.2,4.2-3.1c-1-0.8-2.3-1.3-3.6-1.4c0,0.2-0.1,0.5-0.1,0.8c-0.1,1-0.2,2.1-1.1,3.2
	C101.7,41.8,102,42,102.2,42.2L102.2,42.2z"/>
<path d="M101.9,38.3c0-0.3,0.1-0.5,0.1-0.7c-1.5,0-2.9,0.5-4,1.3c1,0.7,2,1.4,3,2.2C101.7,40.2,101.8,39.2,101.9,38.3L101.9,38.3z"
	/>
<path d="M102.5,48.7c0,0.5,0,1-0.1,1.4c1.7-0.1,3.2-0.7,4.4-1.8c-0.9-1.3-2-2.7-3.2-3.9C102.6,45.5,102.5,47.3,102.5,48.7
	L102.5,48.7z"/>
<path d="M108.7,43.8c-2.1-0.6-3.6-0.6-4.6,0.1c0,0-0.1,0.1-0.1,0.1c1.2,1.2,2.3,2.6,3.2,3.9C108.2,46.7,108.7,45.4,108.7,43.8
	C108.7,43.8,108.7,43.8,108.7,43.8L108.7,43.8z"/>
<path d="M101.7,42.7c-0.2-0.2-0.5-0.4-0.7-0.6c-1,0.8-2.8,1.5-5.7,1.8v0c0,1.5,0.6,2.8,1.5,3.9C98.3,46.1,99.9,44.3,101.7,42.7
	L101.7,42.7z"/>
<path d="M103.5,43.5c0.1,0,0.1-0.1,0.2-0.1c1.2-0.7,2.8-0.8,5-0.2c-0.2-1.4-0.8-2.6-1.8-3.6c-1.5,0.9-2.9,2-4.2,3.1
	C103,42.9,103.3,43.2,103.5,43.5L103.5,43.5z"/>
<path d="M89.1,51.6c0.1,0,0.2,0,0.3-0.1l5.6-5.1c0.1-0.1,0.1-0.3,0-0.5c-0.1-0.1-0.4-0.1-0.5,0l-5.6,5.1c-0.1,0.1-0.1,0.3,0,0.5
	C88.9,51.6,89,51.6,89.1,51.6L89.1,51.6z"/>
<path d="M95.6,49.7c-0.1-0.1-0.4-0.1-0.5,0l-7,6.4c-0.1,0.1-0.1,0.3,0,0.5c0.1,0.1,0.2,0.1,0.3,0.1c0.1,0,0.2,0,0.3-0.1l7-6.4
	C95.7,50,95.7,49.8,95.6,49.7L95.6,49.7z"/>
<path d="M98.7,50.6l-7,6.4c-0.1,0.1-0.1,0.3,0,0.5c0.1,0.1,0.2,0.1,0.3,0.1c0.1,0,0.2,0,0.3-0.1l7-6.4c0.1-0.1,0.1-0.3,0-0.5
	C99,50.5,98.8,50.5,98.7,50.6L98.7,50.6z"/>
<g>
	<path fill="#F7931E" d="M416.1,49.6c-1.8,1.7-3.4,3.5-4.9,5.2c1.1,1,2.6,1.7,4.3,1.8c0.1-0.3,0.1-0.9,0.1-1.4
		c0.1-1.5,0.2-3.5,1.3-4.8C416.7,50.1,416.4,49.8,416.1,49.6L416.1,49.6z"/>
	<path fill="#F7931E" d="M411.3,45.8c-1.1,1-1.9,2.3-2,3.8c2.6-0.3,4.2-0.9,5.1-1.6C413.4,47.2,412.4,46.5,411.3,45.8L411.3,45.8z"
		/>
	<path fill="#F7931E" d="M416.1,48.6c1.3-1.1,2.7-2.2,4.2-3.1c-1-0.8-2.3-1.3-3.6-1.4c0,0.2-0.1,0.5-0.1,0.8c-0.1,1-0.2,2.1-1.1,3.2
		C415.6,48.2,415.9,48.4,416.1,48.6L416.1,48.6z"/>
	<path fill="#F7931E" d="M415.8,44.8c0-0.3,0.1-0.5,0.1-0.7c-1.5,0-2.9,0.5-4,1.3c1,0.7,2,1.4,3,2.2
		C415.6,46.7,415.7,45.7,415.8,44.8L415.8,44.8z"/>
	<path fill="#F7931E" d="M416.3,55.1c0,0.5,0,1-0.1,1.4c1.7-0.1,3.2-0.7,4.4-1.8c-0.9-1.3-2-2.7-3.2-3.9
		C416.5,52,416.4,53.8,416.3,55.1L416.3,55.1z"/>
	<path fill="#F7931E" d="M422.6,50.2c-2.1-0.6-3.6-0.6-4.6,0.1c0,0-0.1,0.1-0.1,0.1c1.2,1.2,2.3,2.6,3.2,3.9
		C422.1,53.2,422.6,51.8,422.6,50.2C422.6,50.3,422.6,50.3,422.6,50.2L422.6,50.2z"/>
	<path fill="#F7931E" d="M415.6,49.1c-0.2-0.2-0.5-0.4-0.7-0.6c-1,0.8-2.8,1.5-5.7,1.8v0c0,1.5,0.6,2.8,1.5,3.9
		C412.2,52.5,413.8,50.8,415.6,49.1L415.6,49.1z"/>
	<path fill="#F7931E" d="M417.4,49.9c0.1,0,0.1-0.1,0.2-0.1c1.2-0.7,2.8-0.8,5-0.2c-0.2-1.4-0.8-2.6-1.8-3.6c-1.5,0.9-2.9,2-4.2,3.1
		C416.9,49.4,417.2,49.6,417.4,49.9L417.4,49.9z"/>
	<path fill="#F7931E" d="M403,58.1c0.1,0,0.2,0,0.3-0.1l5.6-5.1c0.1-0.1,0.1-0.3,0-0.5c-0.1-0.1-0.4-0.1-0.5,0l-5.6,5.1
		c-0.1,0.1-0.1,0.3,0,0.5C402.8,58,402.9,58.1,403,58.1L403,58.1z"/>
	<path fill="#F7931E" d="M409.5,56.1c-0.1-0.1-0.4-0.1-0.5,0l-7,6.4c-0.1,0.1-0.1,0.3,0,0.5c0.1,0.1,0.2,0.1,0.3,0.1s0.2,0,0.3-0.1
		l7-6.4C409.6,56.4,409.6,56.2,409.5,56.1L409.5,56.1z"/>
	<path fill="#F7931E" d="M412.6,57l-7,6.4c-0.1,0.1-0.1,0.3,0,0.5c0.1,0.1,0.2,0.1,0.3,0.1s0.2,0,0.3-0.1l7-6.4
		c0.1-0.1,0.1-0.3,0-0.5C412.9,56.9,412.7,56.9,412.6,57L412.6,57z"/>
</g>
<g>
	<path fill="#F7931E" d="M377.4,26c-1.8,1.7-3.4,3.5-4.9,5.2c1.1,1,2.6,1.7,4.3,1.8c0.1-0.3,0.1-0.9,0.1-1.4
		c0.1-1.5,0.2-3.5,1.3-4.8C378,26.5,377.7,26.3,377.4,26L377.4,26z"/>
	<path fill="#F7931E" d="M372.7,22.2c-1.1,1-1.9,2.3-2,3.8c2.6-0.3,4.2-0.9,5.1-1.6C374.7,23.7,373.7,22.9,372.7,22.2L372.7,22.2z"
		/>
	<path fill="#F7931E" d="M377.4,25.1c1.3-1.1,2.7-2.2,4.2-3.1c-1-0.8-2.3-1.3-3.6-1.4c0,0.2-0.1,0.5-0.1,0.8c-0.1,1-0.2,2.1-1.1,3.2
		C377,24.7,377.2,24.9,377.4,25.1L377.4,25.1z"/>
	<path fill="#F7931E" d="M377.2,21.2c0-0.3,0.1-0.5,0.1-0.7c-1.5,0-2.9,0.5-4,1.3c1,0.7,2,1.4,3,2.2C377,23.1,377.1,22.1,377.2,21.2
		L377.2,21.2z"/>
	<path fill="#F7931E" d="M377.7,31.6c0,0.5,0,1-0.1,1.4c1.7-0.1,3.2-0.7,4.4-1.8c-0.9-1.3-2-2.7-3.2-3.9
		C377.8,28.4,377.8,30.2,377.7,31.6L377.7,31.6z"/>
	<path fill="#F7931E" d="M384,26.7c-2.1-0.6-3.6-0.6-4.6,0.1c0,0-0.1,0.1-0.1,0.1c1.2,1.2,2.3,2.6,3.2,3.9
		C383.4,29.6,384,28.2,384,26.7C384,26.7,384,26.7,384,26.7L384,26.7z"/>
	<path fill="#F7931E" d="M376.9,25.5c-0.2-0.2-0.5-0.4-0.7-0.6c-1,0.8-2.8,1.5-5.7,1.8v0c0,1.5,0.6,2.8,1.5,3.9
		C373.5,29,375.1,27.2,376.9,25.5L376.9,25.5z"/>
	<path fill="#F7931E" d="M378.8,26.3c0.1,0,0.1-0.1,0.2-0.1c1.2-0.7,2.8-0.8,5-0.2c-0.2-1.4-0.8-2.6-1.8-3.6c-1.5,0.9-2.9,2-4.2,3.1
		C378.2,25.8,378.5,26.1,378.8,26.3L378.8,26.3z"/>
	<path fill="#F7931E" d="M364.3,34.5c0.1,0,0.2,0,0.3-0.1l5.6-5.1c0.1-0.1,0.1-0.3,0-0.5c-0.1-0.1-0.4-0.1-0.5,0l-5.6,5.1
		c-0.1,0.1-0.1,0.3,0,0.5C364.2,34.5,364.2,34.5,364.3,34.5L364.3,34.5z"/>
	<path fill="#F7931E" d="M370.9,32.5c-0.1-0.1-0.4-0.1-0.5,0l-7,6.4c-0.1,0.1-0.1,0.3,0,0.5c0.1,0.1,0.2,0.1,0.3,0.1s0.2,0,0.3-0.1
		l7-6.4C371,32.9,371,32.7,370.9,32.5L370.9,32.5z"/>
	<path fill="#F7931E" d="M373.9,33.5l-7,6.4c-0.1,0.1-0.1,0.3,0,0.5c0.1,0.1,0.2,0.1,0.3,0.1s0.2,0,0.3-0.1l7-6.4
		c0.1-0.1,0.1-0.3,0-0.5C374.3,33.3,374.1,33.3,373.9,33.5L373.9,33.5z"/>
</g>
<text transform="matrix(1 0 0 1 14.5939 199.9998)"><tspan x="0" y="0" font-family="'MyriadPro-Regular'" font-size="16">If you only take one shot, you have </tspan><tspan x="0" y="19.2" font-family="'MyriadPro-Regular'" font-size="16">about a 33% chance of making it.</tspan></text>
<g>
	<text transform="matrix(1 0 0 1 299.6668 199.9998)"><tspan x="0" y="0" font-family="'MyriadPro-Regular'" font-size="16">If you can take several shots, you have a </tspan><tspan x="0" y="19.2" font-family="'MyriadPro-Regular'" font-size="16">much higher chance that at least one goes </tspan><tspan x="0" y="38.4" font-family="'MyriadPro-Regular'" font-size="16">in. Rebounds give you these second-chance</tspan><tspan x="0" y="57.6" font-family="'MyriadPro-Regular'" font-size="16"> point attempts.</tspan></text>
</g>
<path fill-rule="evenodd" clip-rule="evenodd" d="M122.8,314.3h9.7v12.5h-9.7V314.3z M118.6,312.9h9.7v0.6h-6c-0.1,0-0.2,0-0.3,0.1
	c-0.1,0.1-0.1,0.2-0.1,0.3v11.5h-3.4L118.6,312.9z M122.5,311.2h7.7l1.9,2.3h-2.9v-1c0-0.2-0.2-0.4-0.4-0.4h-6.3V311.2z
	 M122.1,310.5C122,310.5,122,310.5,122.1,310.5c-0.1,0-0.1,0-0.1,0c0,0,0,0,0,0c0,0,0,0,0,0c0,0,0,0,0,0c0,0,0,0,0,0c0,0,0,0,0,0
	c0,0.1-0.1,0.1-0.1,0.2v0v0v1.2h-3.5c-0.1,0-0.2,0-0.3,0.1c-0.1,0.1-0.1,0.2-0.1,0.3v13.3c0,0.1,0,0.2,0.1,0.3
	c0.1,0.1,0.2,0.1,0.3,0.1h3.8v1c0,0.1,0,0.2,0.1,0.3c0.1,0.1,0.2,0.1,0.3,0.1h10.5c0.2,0,0.4-0.2,0.4-0.4V314c0,0,0-0.1,0-0.1v0
	c0,0,0,0,0,0v0c0,0,0,0,0,0v0c0,0,0,0,0,0c0,0,0,0,0,0v0c0,0,0,0,0,0c0,0,0,0,0,0c0,0,0,0,0,0c0,0,0,0,0,0l-2.6-3
	c-0.1-0.1-0.2-0.1-0.3-0.1h-8.1C122.2,310.5,122.1,310.5,122.1,310.5C122.1,310.5,122.1,310.5,122.1,310.5L122.1,310.5z"/>
<path fill-rule="evenodd" clip-rule="evenodd" d="M119.6,314.9c-0.2,0-0.4,0.2-0.3,0.4c0,0.2,0.2,0.4,0.4,0.4h1.8
	c0.1,0,0.2,0,0.3-0.1c0.1-0.1,0.1-0.2,0.1-0.3c0-0.1,0-0.2-0.1-0.3c-0.1-0.1-0.2-0.1-0.3-0.1H119.6
	C119.6,314.9,119.6,314.9,119.6,314.9L119.6,314.9z"/>
<path fill-rule="evenodd" clip-rule="evenodd" d="M123.5,316.5c-0.2,0-0.4,0.2-0.4,0.4c0,0.2,0.2,0.4,0.4,0.4h7.3
	c0.1,0,0.2,0,0.3-0.1c0.1-0.1,0.1-0.2,0.1-0.3s0-0.2-0.1-0.3s-0.2-0.1-0.3-0.1H123.5C123.5,316.5,123.5,316.5,123.5,316.5
	L123.5,316.5z"/>
<path fill-rule="evenodd" clip-rule="evenodd" d="M119.6,316.7c-0.1,0-0.2,0-0.3,0.1c-0.1,0.1-0.1,0.2-0.1,0.3c0,0.1,0,0.2,0.1,0.3
	c0.1,0.1,0.2,0.1,0.3,0.1h1.8c0.2,0,0.4-0.2,0.4-0.4s-0.2-0.4-0.4-0.4L119.6,316.7z"/>
<path fill-rule="evenodd" clip-rule="evenodd" d="M123.5,318.3c-0.2,0-0.4,0.2-0.4,0.4s0.2,0.4,0.4,0.4h8.1c0.2,0,0.4-0.2,0.4-0.4
	s-0.2-0.4-0.4-0.4H123.5C123.6,318.3,123.6,318.3,123.5,318.3L123.5,318.3z"/>
<path fill-rule="evenodd" clip-rule="evenodd" d="M121,318.4c-0.2,0-0.4,0.2-0.3,0.4c0,0.2,0.2,0.4,0.4,0.4h0.1c0.1,0,0.2,0,0.3-0.1
	c0.1-0.1,0.1-0.2,0.1-0.3c0-0.1,0-0.2-0.1-0.3C121.3,318.4,121.2,318.4,121,318.4L121,318.4C121,318.4,121,318.4,121,318.4
	L121,318.4z"/>
<path fill-rule="evenodd" clip-rule="evenodd" d="M125,320c-0.2,0-0.4,0.2-0.4,0.4c0,0.2,0.2,0.4,0.4,0.4h5.3c0.2,0,0.4-0.2,0.4-0.4
	s-0.2-0.4-0.4-0.4H125C125,320,125,320,125,320L125,320z"/>
<path fill-rule="evenodd" clip-rule="evenodd" d="M119.6,320.1c-0.2,0-0.4,0.2-0.3,0.4c0,0.2,0.2,0.4,0.4,0.4h1.8
	c0.1,0,0.2,0,0.3-0.1c0.1-0.1,0.1-0.2,0.1-0.3c0-0.1,0-0.2-0.1-0.3c-0.1-0.1-0.2-0.1-0.3-0.1H119.6
	C119.6,320.1,119.6,320.1,119.6,320.1L119.6,320.1z"/>
<path fill-rule="evenodd" clip-rule="evenodd" d="M123.6,321.6c-0.2,0-0.4,0.2-0.4,0.4s0.2,0.4,0.4,0.4h8.1c0.2,0,0.4-0.2,0.4-0.4
	s-0.2-0.4-0.4-0.4H123.6z"/>
<path fill-rule="evenodd" clip-rule="evenodd" d="M243.4,319.4c0-2.8,2.3-5.1,5.1-5.1c2.8,0,5.1,2.3,5.1,5.1c0,2.8-2.3,5.1-5.1,5.1
	C245.7,324.4,243.4,322.2,243.4,319.4 M248.5,310.1c0.6,0,1.1-0.5,1.1-1.1v-6c0-0.6-0.5-1.1-1.1-1.1c-0.6,0-1.1,0.5-1.1,1.1v6
	C247.4,309.6,247.9,310.1,248.5,310.1 M248.5,326.3c-3.5,0-6.7,1.7-8.7,4.5c-0.1,0.1-0.1,0.2-0.1,0.2c-0.2,0.7,0.3,1.3,1,1.3h15.6
	c0.7,0,1.2-0.7,1-1.3c0-0.1-0.1-0.2-0.1-0.2C255.2,328,252,326.3,248.5,326.3 M232.9,319.4L232.9,319.4c0.6,0.2,1.2-0.1,1.4-0.6
	c1.6-3.8,4.6-6.8,8.4-8.4c0.5-0.2,0.8-0.8,0.6-1.4l0,0c-0.2-0.6-0.9-0.9-1.4-0.7c-4.4,1.8-7.8,5.3-9.6,9.6
	C232,318.5,232.3,319.2,232.9,319.4 M254.3,310.4c3.8,1.6,6.8,4.6,8.4,8.4c0.2,0.5,0.8,0.8,1.4,0.6l0,0c0.6-0.2,0.9-0.9,0.7-1.4
	c-1.8-4.4-5.3-7.8-9.6-9.6c-0.6-0.2-1.2,0.1-1.4,0.7l0,0C253.5,309.6,253.8,310.2,254.3,310.4 M264.1,329.8L264.1,329.8
	c-0.6-0.2-1.2,0.1-1.4,0.6c-1.6,3.8-4.6,6.8-8.4,8.4c-0.5,0.2-0.8,0.8-0.6,1.4l0,0c0.2,0.6,0.9,0.9,1.4,0.7c4.4-1.8,7.8-5.3,9.6-9.6
	C265,330.7,264.7,330,264.1,329.8 M248.5,339.1c-0.6,0-1.1,0.5-1.1,1.1v6c0,0.6,0.5,1.1,1.1,1.1s1.1-0.5,1.1-1.1v-6
	C249.6,339.6,249.1,339.1,248.5,339.1 M270.1,323.5h-6c-0.6,0-1.1,0.5-1.1,1.1c0,0.6,0.5,1.1,1.1,1.1h6c0.6,0,1.1-0.5,1.1-1.1
	C271.2,324,270.7,323.5,270.1,323.5 M242.7,338.9c-3.8-1.6-6.8-4.6-8.4-8.4c-0.2-0.5-0.8-0.8-1.4-0.6l0,0c-0.6,0.2-0.9,0.9-0.7,1.4
	c1.8,4.4,5.3,7.8,9.6,9.6c0.6,0.2,1.2-0.1,1.4-0.7l0,0C243.5,339.7,243.2,339.1,242.7,338.9 M234,324.6c0-0.6-0.5-1.1-1.1-1.1h-6
	c-0.6,0-1.1,0.5-1.1,1.1c0,0.6,0.5,1.1,1.1,1.1h6C233.5,325.7,234,325.2,234,324.6"/>
<path d="M42.9,349.7c0,3.1,2.5,5.6,5.5,5.6s5.5-2.5,5.5-5.6s-2.5-5.6-5.5-5.6S42.9,346.6,42.9,349.7"/>
<path d="M33.8,397.3h16v-4.4h-16V397.3z M33.9,361.1c1.8,0,3.3,1.6,3.3,3.5v21.9l15.7,0V406h-3.2v-6.6h-16v6.6h-3.2v-41.4
	C30.6,362.7,32.1,361.1,33.9,361.1L33.9,361.1z"/>
<path d="M63.4,364c1,0.2,1.6,1.2,1.3,2.3c-0.2,1.1-1.2,1.7-2.2,1.5l-18.1-4c-1-0.2-0.1-1.2,0.1-2.3s-0.3-1.7,0.7-1.5L63.4,364z"/>
<path d="M42.9,364.6"/>
<path d="M45.3,357.5L45.3,357.5c1.6-0.8,3.5,0.7,4.2,3.5l-1,17.2l12.7-1.4c0,0,0,0,0,0c0,0,0,0,0,0c1.3,0,2.4,2,2.4,4.4v20.5
	c0,2.4-1.1,4.4-2.4,4.4s-2.4-2-2.4-4.4l0-17.8H51c-0.3,0-9.2-0.2-9.5-0.3c-0.9-0.5-0.7-0.6-1-3.2v-3.7l4.5-17.9
	c1.5-1.2,1.7,0.5,0.7,0.5c-0.9,0-1.7,1.1-1.7,2.4"/>
<path d="M74.4,376.6v-1.1c-0.6,0-1,0.5-1,1.1H74.4z M74.5,376.6h1c0-0.6-0.4-1-1-1.1V376.6z M74.3,375.3v-7.1h-0.4v-0.4H75v0.4h-0.4
	v7.1c0.7,0.1,1.2,0.8,1.2,1.6c0,0.9-0.6,1.6-1.3,1.6c-0.7,0-1.3-0.7-1.3-1.6C73.1,376.1,73.6,375.4,74.3,375.3L74.3,375.3z"/>
<path d="M73.8,368.4h1.3v-0.7h-1.3V368.4z M77.6,367.3l4.7-13.9l1.2,0.4l-5.1,15.1l0,0v0H60.5v-1.6L77.6,367.3z"/>
<polygon points="92.8,371.8 92.8,406 87.2,406 87.2,374.4 74.7,374.4 74.7,369.3 92.8,369.3 "/>
<rect x="56.7" y="369.3" width="17.5" height="5.2"/>
<path d="M42.9,364.6c-0.7,3.4,1.3,6.1,3,6.4c1.2,0.2,2.3-3.1,2.3-6.9c0-3.8-1-6.9-2.3-6.9S43.6,360.9,42.9,364.6z"/>
<path d="M44.1,357.1l-3.7,21.4l7.8,3.1l1.3-20.7C49.4,361,47.3,353.9,44.1,357.1z"/>
<path d="M107.7,327.5c0.1,0,0.2,0,0.3-0.1l5.6-5.1c0.1-0.1,0.1-0.3,0-0.5c-0.1-0.1-0.4-0.1-0.5,0l-5.6,5.1c-0.1,0.1-0.1,0.3,0,0.5
	C107.5,327.4,107.6,327.5,107.7,327.5L107.7,327.5z"/>
<path d="M114.2,325.5c-0.1-0.1-0.4-0.1-0.5,0l-7,6.4c-0.1,0.1-0.1,0.3,0,0.5c0.1,0.1,0.2,0.1,0.3,0.1c0.1,0,0.2,0,0.3-0.1l7-6.4
	C114.3,325.9,114.3,325.7,114.2,325.5L114.2,325.5z"/>
<path d="M117.3,326.4l-7,6.4c-0.1,0.1-0.1,0.3,0,0.5c0.1,0.1,0.2,0.1,0.3,0.1c0.1,0,0.2,0,0.3-0.1l7-6.4c0.1-0.1,0.1-0.3,0-0.5
	C117.6,326.3,117.4,326.3,117.3,326.4L117.3,326.4z"/>
<path fill-rule="evenodd" clip-rule="evenodd" d="M542.4,321.4c0-2.8,2.3-5.1,5.1-5.1s5.1,2.3,5.1,5.1c0,2.8-2.3,5.1-5.1,5.1
	S542.4,324.2,542.4,321.4 M547.5,312.1c0.6,0,1.1-0.5,1.1-1.1v-6c0-0.6-0.5-1.1-1.1-1.1c-0.6,0-1.1,0.5-1.1,1.1v6
	C546.4,311.6,546.9,312.1,547.5,312.1 M547.5,328.3c-3.5,0-6.7,1.7-8.7,4.5c-0.1,0.1-0.1,0.2-0.1,0.2c-0.2,0.7,0.3,1.3,1,1.3h15.6
	c0.7,0,1.2-0.7,1-1.3c0-0.1-0.1-0.2-0.1-0.2C554.2,330,551,328.3,547.5,328.3 M531.9,321.4L531.9,321.4c0.6,0.2,1.2-0.1,1.4-0.6
	c1.6-3.8,4.6-6.8,8.4-8.4c0.5-0.2,0.8-0.8,0.6-1.4l0,0c-0.2-0.6-0.9-0.9-1.4-0.7c-4.4,1.8-7.8,5.3-9.6,9.6
	C531,320.5,531.3,321.2,531.9,321.4 M553.3,312.4c3.8,1.6,6.8,4.6,8.4,8.4c0.2,0.5,0.8,0.8,1.4,0.6l0,0c0.6-0.2,0.9-0.9,0.7-1.4
	c-1.8-4.4-5.3-7.8-9.6-9.6c-0.6-0.2-1.2,0.1-1.4,0.7l0,0C552.5,311.6,552.8,312.2,553.3,312.4 M563.1,331.8L563.1,331.8
	c-0.6-0.2-1.2,0.1-1.4,0.6c-1.6,3.8-4.6,6.8-8.4,8.4c-0.5,0.2-0.8,0.8-0.6,1.4l0,0c0.2,0.6,0.9,0.9,1.4,0.7c4.4-1.8,7.8-5.3,9.6-9.6
	C564,332.7,563.7,332,563.1,331.8 M547.5,341.1c-0.6,0-1.1,0.5-1.1,1.1v6c0,0.6,0.5,1.1,1.1,1.1c0.6,0,1.1-0.5,1.1-1.1v-6
	C548.6,341.6,548.1,341.1,547.5,341.1 M569.1,325.5h-6c-0.6,0-1.1,0.5-1.1,1.1c0,0.6,0.5,1.1,1.1,1.1h6c0.6,0,1.1-0.5,1.1-1.1
	C570.2,326,569.7,325.5,569.1,325.5 M541.7,340.9c-3.8-1.6-6.8-4.6-8.4-8.4c-0.2-0.5-0.8-0.8-1.4-0.6l0,0c-0.6,0.2-0.9,0.9-0.7,1.4
	c1.8,4.4,5.3,7.8,9.6,9.6c0.6,0.2,1.2-0.1,1.4-0.7l0,0C542.5,341.7,542.2,341.1,541.7,340.9 M533,326.6c0-0.6-0.5-1.1-1.1-1.1h-6
	c-0.6,0-1.1,0.5-1.1,1.1c0,0.6,0.5,1.1,1.1,1.1h6C532.5,327.7,533,327.2,533,326.6"/>
<path d="M331.9,351.7c0,3.1,2.5,5.6,5.5,5.6s5.5-2.5,5.5-5.6s-2.5-5.6-5.5-5.6S331.9,348.6,331.9,351.7"/>
<path d="M322.8,399.3h16v-4.4h-16V399.3z M322.9,363.1c1.8,0,3.3,1.6,3.3,3.5v21.9l15.7,0V408h-3.2v-6.6h-16v6.6h-3.2v-41.4
	C319.6,364.7,321.1,363.1,322.9,363.1L322.9,363.1z"/>
<path d="M352.4,366c1,0.2,1.6,1.2,1.3,2.3c-0.2,1.1-1.2,1.7-2.2,1.5l-18.1-4c-1-0.2-0.1-1.2,0.1-2.3c0.2-1.1-0.3-1.7,0.7-1.5
	L352.4,366z"/>
<path d="M331.9,366.6"/>
<path d="M334.3,359.5L334.3,359.5c1.6-0.8,3.5,0.7,4.2,3.5l-1,17.2l12.7-1.4c0,0,0,0,0,0c0,0,0,0,0,0c1.3,0,2.4,2,2.4,4.4v20.5
	c0,2.4-1.1,4.4-2.4,4.4c-1.3,0-2.4-2-2.4-4.4l0-17.8H340c-0.3,0-9.2-0.2-9.5-0.3c-0.9-0.5-0.7-0.6-1-3.2v-3.7l4.5-17.9
	c1.5-1.2,1.7,0.5,0.7,0.5c-0.9,0-1.7,1.1-1.7,2.4"/>
<path d="M363.4,378.6v-1.1c-0.6,0-1,0.5-1,1.1H363.4z M363.5,378.6h1c0-0.6-0.4-1-1-1.1V378.6z M363.3,377.3v-7.1h-0.4v-0.4h1.1v0.4
	h-0.4v7.1c0.7,0.1,1.2,0.8,1.2,1.6c0,0.9-0.6,1.6-1.3,1.6c-0.7,0-1.3-0.7-1.3-1.6C362.1,378.1,362.6,377.4,363.3,377.3L363.3,377.3z
	"/>
<path d="M362.8,370.4h1.3v-0.7h-1.3V370.4z M366.6,369.3l4.7-13.9l1.2,0.4l-5.1,15.1l0,0v0h-17.9v-1.6L366.6,369.3z"/>
<polygon points="381.8,373.8 381.8,408 376.2,408 376.2,376.4 363.7,376.4 363.7,371.3 381.8,371.3 "/>
<rect x="345.7" y="371.3" width="17.5" height="5.2"/>
<path d="M331.9,366.6c-0.7,3.4,1.3,6.1,3,6.4c1.2,0.2,2.3-3.1,2.3-6.9c0-3.8-1-6.9-2.3-6.9S332.6,362.9,331.9,366.6z"/>
<path d="M333.1,359.1l-3.7,21.4l7.8,3.1l1.3-20.7C338.4,363,336.3,355.9,333.1,359.1z"/>
<g>
	<path fill-rule="evenodd" clip-rule="evenodd" d="M377.4,319.8h9.7v12.5h-9.7V319.8z M373.3,318.4h9.7v0.6h-6c-0.1,0-0.2,0-0.3,0.1
		c-0.1,0.1-0.1,0.2-0.1,0.3v11.5h-3.4L373.3,318.4z M377.1,316.8h7.7l1.9,2.3h-2.9v-1c0-0.2-0.2-0.4-0.4-0.4h-6.3V316.8z M376.7,316
		C376.7,316,376.7,316,376.7,316c-0.1,0-0.1,0-0.1,0c0,0,0,0,0,0c0,0,0,0,0,0c0,0,0,0,0,0c0,0,0,0,0,0c0,0,0,0,0,0
		c0,0.1-0.1,0.1-0.1,0.2v0v0v1.2h-3.5c-0.1,0-0.2,0-0.3,0.1c-0.1,0.1-0.1,0.2-0.1,0.3v13.3c0,0.1,0,0.2,0.1,0.3
		c0.1,0.1,0.2,0.1,0.3,0.1h3.8v1c0,0.1,0,0.2,0.1,0.3c0.1,0.1,0.2,0.1,0.3,0.1h10.5c0.2,0,0.4-0.2,0.4-0.4v-13.3c0,0,0-0.1,0-0.1v0
		c0,0,0,0,0,0v0c0,0,0,0,0,0v0c0,0,0,0,0,0c0,0,0,0,0,0v0c0,0,0,0,0,0c0,0,0,0,0,0c0,0,0,0,0,0c0,0,0,0,0,0l-2.6-3
		c-0.1-0.1-0.2-0.1-0.3-0.1h-8.1C376.8,316,376.8,316,376.7,316C376.7,316,376.7,316,376.7,316L376.7,316z"/>
	<path fill-rule="evenodd" clip-rule="evenodd" d="M374.2,320.5c-0.2,0-0.4,0.2-0.3,0.4c0,0.2,0.2,0.4,0.4,0.4h1.8
		c0.1,0,0.2,0,0.3-0.1c0.1-0.1,0.1-0.2,0.1-0.3s0-0.2-0.1-0.3c-0.1-0.1-0.2-0.1-0.3-0.1H374.2C374.2,320.5,374.2,320.5,374.2,320.5
		L374.2,320.5z"/>
	<path fill-rule="evenodd" clip-rule="evenodd" d="M378.1,322c-0.2,0-0.4,0.2-0.4,0.4c0,0.2,0.2,0.4,0.4,0.4h7.3
		c0.1,0,0.2,0,0.3-0.1s0.1-0.2,0.1-0.3s0-0.2-0.1-0.3s-0.2-0.1-0.3-0.1L378.1,322C378.2,322,378.1,322,378.1,322L378.1,322z"/>
	<path fill-rule="evenodd" clip-rule="evenodd" d="M374.3,322.2c-0.1,0-0.2,0-0.3,0.1s-0.1,0.2-0.1,0.3s0,0.2,0.1,0.3
		s0.2,0.1,0.3,0.1h1.8c0.2,0,0.4-0.2,0.4-0.4s-0.2-0.4-0.4-0.4H374.3z"/>
	<path fill-rule="evenodd" clip-rule="evenodd" d="M378.2,323.9c-0.2,0-0.4,0.2-0.4,0.4c0,0.2,0.2,0.4,0.4,0.4h8.1
		c0.2,0,0.4-0.2,0.4-0.4s-0.2-0.4-0.4-0.4L378.2,323.9C378.2,323.9,378.2,323.9,378.2,323.9L378.2,323.9z"/>
	<path fill-rule="evenodd" clip-rule="evenodd" d="M375.6,323.9c-0.2,0-0.4,0.2-0.3,0.4c0,0.2,0.2,0.4,0.4,0.4h0.1
		c0.1,0,0.2,0,0.3-0.1c0.1-0.1,0.1-0.2,0.1-0.3s0-0.2-0.1-0.3C375.9,324,375.8,323.9,375.6,323.9L375.6,323.9
		C375.7,323.9,375.6,323.9,375.6,323.9L375.6,323.9z"/>
	<path fill-rule="evenodd" clip-rule="evenodd" d="M379.6,325.6c-0.2,0-0.4,0.2-0.4,0.4c0,0.2,0.2,0.4,0.4,0.4h5.3
		c0.2,0,0.4-0.2,0.4-0.4s-0.2-0.4-0.4-0.4L379.6,325.6C379.6,325.6,379.6,325.6,379.6,325.6L379.6,325.6z"/>
	<path fill-rule="evenodd" clip-rule="evenodd" d="M374.2,325.7c-0.2,0-0.4,0.2-0.3,0.4c0,0.2,0.2,0.4,0.4,0.4h1.8
		c0.1,0,0.2,0,0.3-0.1c0.1-0.1,0.1-0.2,0.1-0.3s0-0.2-0.1-0.3c-0.1-0.1-0.2-0.1-0.3-0.1L374.2,325.7
		C374.2,325.7,374.2,325.7,374.2,325.7L374.2,325.7z"/>
	<path fill-rule="evenodd" clip-rule="evenodd" d="M378.2,327.1c-0.2,0-0.4,0.2-0.4,0.4s0.2,0.4,0.4,0.4h8.1c0.2,0,0.4-0.2,0.4-0.4
		s-0.2-0.4-0.4-0.4H378.2z"/>
	<path d="M362.3,333c0.1,0,0.2,0,0.3-0.1l5.6-5.1c0.1-0.1,0.1-0.3,0-0.5c-0.1-0.1-0.4-0.1-0.5,0l-5.6,5.1c-0.1,0.1-0.1,0.3,0,0.5
		C362.1,333,362.2,333,362.3,333L362.3,333z"/>
	<path d="M368.8,331.1c-0.1-0.1-0.4-0.1-0.5,0l-7,6.4c-0.1,0.1-0.1,0.3,0,0.5c0.1,0.1,0.2,0.1,0.3,0.1s0.2,0,0.3-0.1l7-6.4
		C369,331.4,369,331.2,368.8,331.1L368.8,331.1z"/>
	<path d="M371.9,332l-7,6.4c-0.1,0.1-0.1,0.3,0,0.5c0.1,0.1,0.2,0.1,0.3,0.1s0.2,0,0.3-0.1l7-6.4c0.1-0.1,0.1-0.3,0-0.5
		C372.3,331.9,372,331.9,371.9,332L371.9,332z"/>
</g>
<g>
	<text transform="matrix(1 0 0 1 15.5939 448.5)"><tspan x="0" y="0" font-family="'MyriadPro-Regular'" font-size="16">If you only write a topic just once </tspan><tspan x="0" y="19.2" font-family="'MyriadPro-Regular'" font-size="16">and send it out, you have about a </tspan><tspan x="0" y="38.4" font-family="'MyriadPro-Regular'" font-size="16">33% chance of connecting</tspan><tspan x="0" y="57.6" font-family="'MyriadPro-Regular'" font-size="16">successfully with the user.</tspan></text>
</g>
<g>
	<text transform="matrix(1 0 0 1 309.9998 445.9998)"><tspan x="0" y="0" font-family="'MyriadPro-Regular'" font-size="16">If you write several versions, each version </tspan><tspan x="0" y="19.2" font-family="'MyriadPro-Regular'" font-size="16">being commented on and enhanced </tspan><tspan x="0" y="38.4" font-family="'MyriadPro-Regular'" font-size="16">through the review process, you have a </tspan><tspan x="0" y="57.6" font-family="'MyriadPro-Regular'" font-size="16">much higher chance of finally connecting</tspan><tspan x="0" y="76.8" font-family="'MyriadPro-Regular'" font-size="16">with the user.</tspan></text>
</g>
<g>
	<path fill-rule="evenodd" clip-rule="evenodd" fill="#F7931E" d="M500.4,293.9l7.1,6.7l-8.6,9.1l-7.1-6.7L500.4,293.9z M498.3,290
		l7.1,6.7l-0.4,0.5l-4.3-4.1c-0.1-0.1-0.2-0.1-0.3-0.1c-0.1,0-0.2,0-0.3,0.1l-7.9,8.4l-2.4-2.3L498.3,290z M502.2,291.5l5.6,5.3
		l-0.2,3l-2.1-2l0.7-0.7c0.1-0.2,0.1-0.4,0-0.5l-4.5-4.3L502.2,291.5z M502.5,290.7C502.4,290.6,502.4,290.6,502.5,290.7
		c-0.1,0-0.1,0-0.1,0c0,0,0,0,0,0c0,0,0,0,0,0c0,0,0,0,0,0c0,0,0,0,0,0c0,0,0,0,0,0c-0.1,0-0.1,0-0.2,0.1l0,0l0,0l-0.8,0.9l-2.5-2.4
		c-0.1-0.1-0.2-0.1-0.3-0.1c-0.1,0-0.2,0-0.3,0.1l-9.2,9.7c-0.1,0.1-0.1,0.2-0.1,0.3c0,0.1,0,0.2,0.1,0.3l2.7,2.6l-0.7,0.7
		c-0.1,0.1-0.1,0.2-0.1,0.3c0,0.1,0,0.2,0.1,0.3l7.6,7.2c0.2,0.1,0.4,0.1,0.5,0l9.1-9.6c0,0,0,0,0.1-0.1l0,0c0,0,0,0,0,0l0,0
		c0,0,0,0,0,0l0,0c0,0,0,0,0,0c0,0,0,0,0,0l0,0c0,0,0,0,0,0c0,0,0,0,0,0c0,0,0,0,0,0c0,0,0,0,0,0l0.2-4c0-0.1,0-0.2-0.1-0.3
		L502.5,290.7C502.5,290.7,502.5,290.7,502.5,290.7C502.5,290.7,502.5,290.7,502.5,290.7L502.5,290.7z"/>
	<path fill-rule="evenodd" clip-rule="evenodd" fill="#F7931E" d="M497.6,292.2c-0.2-0.1-0.4-0.1-0.5,0.1c-0.1,0.2-0.1,0.4,0,0.5
		l1.3,1.2c0.1,0.1,0.2,0.1,0.3,0.1c0.1,0,0.2,0,0.3-0.1c0.1-0.1,0.1-0.2,0.1-0.3c0-0.1-0.1-0.2-0.1-0.3L497.6,292.2
		C497.6,292.2,497.6,292.2,497.6,292.2L497.6,292.2z"/>
	<path fill-rule="evenodd" clip-rule="evenodd" fill="#F7931E" d="M499.4,296c-0.2-0.2-0.4-0.1-0.6,0c-0.2,0.2-0.1,0.4,0,0.6l5.3,5
		c0.1,0.1,0.2,0.1,0.3,0.1s0.2,0,0.3-0.1c0.1-0.1,0.1-0.2,0.1-0.3c0-0.1-0.1-0.2-0.1-0.3L499.4,296C499.4,296,499.4,296,499.4,296
		L499.4,296z"/>
	<path fill-rule="evenodd" clip-rule="evenodd" fill="#F7931E" d="M496.4,293.5c-0.1-0.1-0.2-0.1-0.3-0.1s-0.2,0-0.3,0.1
		s-0.1,0.2-0.1,0.3c0,0.1,0,0.2,0.1,0.3l1.3,1.2c0.2,0.1,0.4,0.1,0.5,0c0.1-0.2,0.1-0.4,0-0.5L496.4,293.5z"/>
	<path fill-rule="evenodd" clip-rule="evenodd" fill="#F7931E" d="M498.1,297.4c-0.2-0.1-0.4-0.1-0.5,0c-0.1,0.2-0.1,0.4,0,0.5
		l5.9,5.6c0.2,0.1,0.4,0.1,0.5,0c0.1-0.2,0.1-0.4,0-0.5L498.1,297.4C498.1,297.4,498.1,297.4,498.1,297.4L498.1,297.4z"/>
	<path fill-rule="evenodd" clip-rule="evenodd" fill="#F7931E" d="M496.2,295.7c-0.2-0.1-0.4-0.1-0.5,0.1c-0.1,0.2-0.1,0.4,0,0.5
		l0,0c0.1,0.1,0.2,0.1,0.3,0.1c0.1,0,0.2,0,0.3-0.1c0.1-0.1,0.1-0.2,0.1-0.3C496.4,295.9,496.4,295.8,496.2,295.7L496.2,295.7
		C496.2,295.7,496.2,295.7,496.2,295.7L496.2,295.7z"/>
	<path fill-rule="evenodd" clip-rule="evenodd" fill="#F7931E" d="M498,299.6c-0.2-0.1-0.4-0.1-0.5,0c-0.1,0.2-0.1,0.4,0,0.5
		l3.8,3.6c0.2,0.1,0.4,0.1,0.5,0c0.1-0.2,0.1-0.4,0-0.5L498,299.6C498,299.6,498,299.6,498,299.6L498,299.6z"/>
	<path fill-rule="evenodd" clip-rule="evenodd" fill="#F7931E" d="M494,296c-0.2-0.1-0.4-0.1-0.5,0.1c-0.1,0.2-0.1,0.4,0,0.5
		l1.3,1.2c0.1,0.1,0.2,0.1,0.3,0.1c0.1,0,0.2,0,0.3-0.1c0.1-0.1,0.1-0.2,0.1-0.3c0-0.1-0.1-0.2-0.1-0.3L494,296
		C494,296,494,296,494,296L494,296z"/>
	<path fill-rule="evenodd" clip-rule="evenodd" fill="#F7931E" d="M495.9,299.8c-0.2-0.2-0.4-0.2-0.6,0c-0.2,0.2-0.2,0.4,0,0.6
		l5.9,5.6c0.2,0.2,0.4,0.2,0.6,0c0.2-0.2,0.2-0.4,0-0.6L495.9,299.8z"/>
	<path fill="#F7931E" d="M480.3,293.1c0.1,0.1,0.2,0.1,0.3,0.1l7.5,0.1c0.2,0,0.3-0.1,0.3-0.3s-0.2-0.3-0.4-0.4l-7.5-0.1
		c-0.2,0-0.3,0.1-0.3,0.3C480.2,293,480.2,293,480.3,293.1L480.3,293.1z"/>
	<path fill="#F7931E" d="M486.4,296.2c0-0.2-0.2-0.3-0.4-0.4l-9.5-0.2c-0.2,0-0.3,0.1-0.3,0.3c0,0.1,0.1,0.2,0.1,0.2
		s0.2,0.1,0.3,0.1l9.5,0.2C486.3,296.5,486.4,296.4,486.4,296.2L486.4,296.2z"/>
	<path fill="#F7931E" d="M488,298.9l-9.5-0.2c-0.2,0-0.3,0.1-0.3,0.3c0,0.1,0.1,0.2,0.1,0.2c0.1,0.1,0.2,0.1,0.3,0.1l9.5,0.2
		c0.2,0,0.3-0.1,0.3-0.3C488.3,299.1,488.2,299,488,298.9L488,298.9z"/>
</g>
<g>
	<path fill-rule="evenodd" clip-rule="evenodd" fill="#F7931E" d="M438,292.6l9.5,2l-2.5,12.3l-9.5-2L438,292.6z M434.2,290.3l9.5,2
		l-0.1,0.6l-5.8-1.2c-0.1,0-0.2,0-0.3,0.1c-0.1,0.1-0.1,0.1-0.2,0.2l-2.3,11.3l-3.3-0.7L434.2,290.3z M438.3,289.5l7.5,1.5l1.4,2.6
		l-2.9-0.6l0.2-1c0-0.2-0.1-0.4-0.3-0.5l-6.1-1.3L438.3,289.5z M438.1,288.7C438.1,288.7,438,288.7,438.1,288.7c-0.1,0-0.1,0-0.1,0
		c0,0,0,0,0,0c0,0,0,0,0,0c0,0,0,0,0,0c0,0,0,0,0,0c0,0,0,0,0,0c-0.1,0.1-0.1,0.1-0.1,0.2l0,0l0,0l-0.2,1.2l-3.4-0.7
		c-0.1,0-0.2,0-0.3,0.1c-0.1,0.1-0.1,0.1-0.2,0.2l-2.7,13c0,0.1,0,0.2,0.1,0.3c0.1,0.1,0.1,0.1,0.2,0.2l3.7,0.8l-0.2,1
		c0,0.1,0,0.2,0.1,0.3c0.1,0.1,0.1,0.1,0.2,0.2l10.3,2.1c0.2,0,0.4-0.1,0.5-0.3l2.7-13c0,0,0-0.1,0-0.1l0,0c0,0,0,0,0,0l0,0
		c0,0,0,0,0,0l0,0c0,0,0,0,0,0c0,0,0,0,0,0l0,0c0,0,0,0,0,0c0,0,0,0,0,0c0,0,0,0,0,0c0,0,0,0,0,0l-1.9-3.5c-0.1-0.1-0.2-0.2-0.3-0.2
		l-8-1.6C438.2,288.7,438.1,288.7,438.1,288.7C438.1,288.7,438.1,288.7,438.1,288.7L438.1,288.7z"/>
	<path fill-rule="evenodd" clip-rule="evenodd" fill="#F7931E" d="M434.7,292.6c-0.2,0-0.4,0.1-0.4,0.3c0,0.2,0.1,0.4,0.3,0.4
		l1.8,0.4c0.1,0,0.2,0,0.3,0c0.1-0.1,0.2-0.1,0.2-0.3c0-0.1,0-0.2-0.1-0.3c-0.1-0.1-0.2-0.1-0.3-0.2L434.7,292.6
		C434.8,292.6,434.8,292.6,434.7,292.6L434.7,292.6z"/>
	<path fill-rule="evenodd" clip-rule="evenodd" fill="#F7931E" d="M438.3,294.8c-0.2,0-0.4,0.1-0.5,0.4c0,0.2,0.1,0.4,0.4,0.5
		l7.2,1.5c0.1,0,0.2,0,0.3-0.1c0.1-0.1,0.2-0.2,0.2-0.3s0-0.2-0.1-0.3s-0.2-0.2-0.3-0.2L438.3,294.8
		C438.3,294.8,438.3,294.8,438.3,294.8L438.3,294.8z"/>
	<path fill-rule="evenodd" clip-rule="evenodd" fill="#F7931E" d="M434.4,294.3c-0.1,0-0.2,0-0.3,0.1c-0.1,0.1-0.1,0.1-0.2,0.2
		c0,0.1,0,0.2,0.1,0.3c0.1,0.1,0.1,0.1,0.2,0.2l1.7,0.4c0.2,0,0.4-0.1,0.5-0.3c0-0.2-0.1-0.4-0.3-0.5L434.4,294.3z"/>
	<path fill-rule="evenodd" clip-rule="evenodd" fill="#F7931E" d="M437.9,296.7c-0.2,0-0.4,0.1-0.4,0.3c0,0.2,0.1,0.4,0.3,0.4
		l7.9,1.6c0.2,0,0.4-0.1,0.4-0.3c0-0.2-0.1-0.4-0.3-0.5L437.9,296.7C438,296.7,438,296.7,437.9,296.7L437.9,296.7z"/>
	<path fill-rule="evenodd" clip-rule="evenodd" fill="#F7931E" d="M435.4,296.2c-0.2,0-0.4,0.1-0.4,0.3c0,0.2,0.1,0.4,0.3,0.4l0.1,0
		c0.1,0,0.2,0,0.3,0c0.1-0.1,0.2-0.1,0.2-0.3s0-0.2-0.1-0.3C435.7,296.3,435.6,296.3,435.4,296.2L435.4,296.2
		C435.5,296.3,435.4,296.2,435.4,296.2L435.4,296.2z"/>
	<path fill-rule="evenodd" clip-rule="evenodd" fill="#F7931E" d="M439,298.6c-0.2,0-0.4,0.1-0.4,0.3c0,0.2,0.1,0.4,0.3,0.4l5.2,1.1
		c0.2,0,0.4-0.1,0.5-0.3c0-0.2-0.1-0.4-0.3-0.5L439,298.6C439,298.6,439,298.6,439,298.6L439,298.6z"/>
	<path fill-rule="evenodd" clip-rule="evenodd" fill="#F7931E" d="M433.7,297.7c-0.2,0-0.4,0.1-0.4,0.3c0,0.2,0.1,0.4,0.3,0.4
		l1.8,0.4c0.1,0,0.2,0,0.3,0c0.1-0.1,0.2-0.1,0.2-0.3c0-0.1,0-0.2-0.1-0.3c-0.1-0.1-0.2-0.1-0.3-0.2L433.7,297.7
		C433.7,297.7,433.7,297.7,433.7,297.7L433.7,297.7z"/>
	<path fill-rule="evenodd" clip-rule="evenodd" fill="#F7931E" d="M437.3,299.9c-0.2,0-0.4,0.1-0.5,0.3c0,0.2,0.1,0.4,0.3,0.5
		l7.9,1.6c0.2,0,0.4-0.1,0.5-0.3c0-0.2-0.1-0.4-0.3-0.5L437.3,299.9z"/>
	<path fill="#F7931E" d="M420.5,302.4c0.1,0,0.2,0,0.3,0l6.5-3.8c0.2-0.1,0.2-0.3,0.1-0.5c-0.1-0.2-0.3-0.2-0.5-0.1l-6.5,3.8
		c-0.2,0.1-0.2,0.3-0.1,0.5C420.4,302.4,420.5,302.4,420.5,302.4L420.5,302.4z"/>
	<path fill="#F7931E" d="M427.3,301.9c-0.1-0.2-0.3-0.2-0.5-0.1l-8.2,4.9c-0.2,0.1-0.2,0.3-0.1,0.5c0.1,0.1,0.1,0.1,0.2,0.1
		c0.1,0,0.2,0,0.3,0l8.2-4.9C427.4,302.2,427.4,302,427.3,301.9L427.3,301.9z"/>
	<path fill="#F7931E" d="M430.1,303.4l-8.2,4.9c-0.2,0.1-0.2,0.3-0.1,0.5c0.1,0.1,0.1,0.1,0.2,0.1c0.1,0,0.2,0,0.3,0l8.2-4.9
		c0.2-0.1,0.2-0.3,0.1-0.5C430.5,303.3,430.3,303.3,430.1,303.4L430.1,303.4z"/>
</g>
</svg>
