<?xml version="1.0" encoding="utf-8"?>
<!-- Generator: Adobe Illustrator 19.2.0, SVG Export Plug-In . SVG Version: 6.00 Build 0)  -->
<svg version="1.1" id="Layer_1" xmlns="http://www.w3.org/2000/svg" xmlns:xlink="http://www.w3.org/1999/xlink" x="0px" y="0px"
	 viewBox="0 0 700 305.2" enable-background="new 0 0 700 305.2" xml:space="preserve">
<g>
	<path d="M248.5,84.3h167V30.5h-167V84.3z M427.2,97.7H236.9V17h190.3V97.7z"/>
	<path d="M248.5,178.4h167v-53.8h-167V178.4z M427.2,191.8H236.9v-80.7h190.3V191.8z"/>
	<rect x="318.4" y="182.9" width="27.2" height="40.3"/>
	<rect x="287.4" y="223.2" width="89.3" height="17.9"/>
	<rect x="248.5" y="223.2" width="23.3" height="17.9"/>
	<rect x="392.2" y="223.2" width="23.3" height="17.9"/>
	<path d="M284.6,58.2c0,16.3-21.2,16.3-21.2,0C263.4,41.9,284.6,41.9,284.6,58.2"/>
	<path d="M318.2,58.2c0,16.3-21.2,16.3-21.2,0C297,41.9,318.2,41.9,318.2,58.2"/>
	<rect x="368.9" y="48.4" width="19.4" height="22.4"/>
	<path d="M284.6,151.2c0,16.3-21.2,16.3-21.2,0C263.4,134.9,284.6,134.9,284.6,151.2"/>
	<path d="M318.2,151.2c0,16.3-21.2,16.3-21.2,0C297,134.9,318.2,134.9,318.2,151.2"/>
	<rect x="368.9" y="142.5" width="19.4" height="17.9"/>
</g>
<path d="M153.3,129.4v-23.9c0-0.1,0-0.6,0.3-0.6l20.7,0c0,0.1-0.1,0.2-0.1,0.3v7.7h8.4c0.1,0,0.2,0,0.3,0c0,0,0,0,0,0v16.6H153.3z
	 M153.7,140.7c-0.1,0-0.1,0-0.1,0c-0.1,0-0.2-0.2-0.2-0.3v-9.6h29.6v9.6c0,0.1-0.1,0.2-0.2,0.3c0,0-0.1,0-0.1,0H153.7z M181.8,111.5
	h-6.1v-5.6L181.8,111.5z M184,111.6l-7.8-7.2l-0.6-0.5c-0.3-0.2-0.6-0.4-1-0.4h-21c-0.9,0-1.8,0.6-1.8,1.9v35.2
	c0,0.6,0.6,1.1,1.3,1.3c0,0,0.1,0,0.1,0c0.1,0,0.2,0,0.3,0h28.9c0.1,0,0.2,0,0.3,0c0,0,0.1,0,0.1,0c0.7-0.2,1.3-0.7,1.3-1.3v-27.9
	C184.4,112.3,184.3,111.9,184,111.6z"/>
<path d="M164,115c-0.3-0.3-0.7-0.3-1,0l-4.3,4c-0.3,0.3-0.3,0.7,0,0.9l4.3,4c0.1,0.1,0.3,0.2,0.5,0.2c0.2,0,0.4-0.1,0.5-0.2
	c0.3-0.3,0.3-0.7,0-0.9l-3.8-3.5l3.8-3.5C164.2,115.7,164.2,115.3,164,115z"/>
<path d="M172.6,115c-0.3-0.3-0.7-0.3-1,0c-0.3,0.3-0.3,0.7,0,0.9l3.8,3.5l-3.8,3.5c-0.3,0.3-0.3,0.7,0,0.9c0.1,0.1,0.3,0.2,0.5,0.2
	c0.2,0,0.4-0.1,0.5-0.2l4.3-4c0.3-0.3,0.3-0.7,0-0.9L172.6,115z"/>
<path d="M170.2,112.9c-0.4-0.1-0.8,0.1-0.9,0.4l-4.3,11.3c-0.1,0.3,0.1,0.7,0.4,0.8c0.1,0,0.2,0,0.2,0c0.3,0,0.6-0.2,0.7-0.4
	l4.3-11.3C170.8,113.4,170.6,113,170.2,112.9z"/>
<g>
	<path d="M552.3,160.9L552.3,160.9c0-0.5,0.4-1,0.9-1C552.7,159.9,552.3,160.3,552.3,160.9z"/>
	<path d="M564.4,159.9c0.5,0,0.9,0.4,0.9,1C565.3,160.3,564.9,159.9,564.4,159.9z"/>
	<path d="M565.3,160.9c0,0.5-0.4,1-0.9,1h-11.3c-0.5,0-0.9-0.4-0.9-1c0-0.5,0.4-1,0.9-1h11.3C564.9,159.9,565.3,160.3,565.3,160.9z
		 M558.8,98.4c0.5,0,0.9,0.4,0.9,1c0,0.5-0.4,1-0.9,1c-0.5,0-0.9-0.4-0.9-1C557.9,98.8,558.3,98.4,558.8,98.4z M518.2,149.1h1.4v1.7
		h-1.4V149.1z M518.2,106.8v-1.7h1.4v1.7H518.2z M518.2,109.7V108h1.4v1.7H518.2z M518.2,112.7v-1.7h1.4v1.7H518.2z M518.2,115.6
		v-1.7h1.4v1.7H518.2z M518.2,118.5v-1.7h1.4v1.7H518.2z M518.2,121.5v-1.7h1.4v1.7H518.2z M518.2,124.4v-1.7h1.4v1.7H518.2z
		 M518.2,127.3v-1.7h1.4v1.7H518.2z M518.2,130.3v-1.7h1.4v1.7H518.2z M518.2,133.2v-1.7h1.4v1.7H518.2z M518.2,136.1v-1.7h1.4v1.7
		H518.2z M518.2,139.1v-1.7h1.4v1.7H518.2z M518.2,142v-1.7h1.4v1.7H518.2z M519.6,146.1v1.7h-1.4v-1.7H519.6z M518.2,144.9v-1.7
		h1.4v1.7H518.2z M526.3,133.2v-1.7h36.3v1.7H526.3z M525.2,131.5v1.7h-4.6v-1.7H525.2z M525.2,128.5v1.7h-4.6v-1.7H525.2z
		 M525.2,125.7v1.7h-4.6v-1.7H525.2z M528.3,122.7v1.7h-7.6v-1.7H528.3z M525.2,119.7v1.7h-4.6v-1.7H525.2z M532,116.8v1.7h-11.4
		v-1.7H532z M532,113.9v1.7h-11.4v-1.7H532z M552.3,128.5v1.7h-26v-1.7H552.3z M542.9,127.4h-16.6v-1.7h16.6V127.4z M535.8,110.9
		v1.7h-15.2v-1.7H535.8z M520.7,106.8v-1.7h4.6v1.7H520.7z M532,108v1.7h-11.4V108H532z M520.7,136.1v-1.7H557v1.7H520.7z
		 M526.3,139.1v-1.7H557v1.7H526.3z M520.7,139.1v-1.7h4.6v1.7H520.7z M520.7,142v-1.7h22.3v1.7H520.7z M520.7,144.9v-1.7h18.7v1.7
		H520.7z M528.3,149.1v1.7h-7.6v-1.7H528.3z M520.7,147.9v-1.7h9.3v1.7H520.7z M568.4,131.5v1.7h-4.6v-1.7H568.4z M571.7,101.5h31.7
		v52.1h-31.9v-52.1H571.7z M606.8,157.7c0.1-0.3,0.2-0.7,0.2-1.1V99.3c0-1.4-1-2.5-2.3-2.5h-91.9c-1.2,0-2.3,1.1-2.3,2.5v57.3
		c0,0.4,0.1,0.7,0.2,1.1h-11v4c0,1.4,1,2.5,2.3,2.5h113.3c1.2,0,2.3-1.1,2.3-2.5v-4L606.8,157.7L606.8,157.7z"/>
	<rect x="573.5" y="105.1" width="27.4" height="5.9"/>
	<rect x="573.5" y="113.4" width="12.6" height="17.5"/>
	<rect x="588.3" y="113.4" width="12.6" height="17.5"/>
	<rect x="573.5" y="133.2" width="12.6" height="17.5"/>
	<rect x="588.3" y="133.2" width="12.6" height="17.5"/>
</g>
<path d="M120.8,172.7v-23.9c0-0.1,0-0.6,0.3-0.6l20.7,0c0,0.1-0.1,0.2-0.1,0.3v7.7h8.4c0.1,0,0.2,0,0.3,0c0,0,0,0,0,0v16.6H120.8z
	 M121.2,184c-0.1,0-0.1,0-0.1,0c-0.1,0-0.2-0.2-0.2-0.3v-9.6h29.6v9.6c0,0.1-0.1,0.2-0.2,0.3c0,0-0.1,0-0.1,0H121.2z M149.3,154.8
	h-6.1v-5.6L149.3,154.8z M151.5,155l-7.8-7.2l-0.6-0.5c-0.3-0.2-0.6-0.4-1-0.4h-21c-0.9,0-1.8,0.6-1.8,1.9V184
	c0,0.6,0.6,1.1,1.3,1.3c0,0,0.1,0,0.1,0c0.1,0,0.2,0,0.3,0h28.9c0.1,0,0.2,0,0.3,0c0,0,0.1,0,0.1,0c0.7-0.2,1.3-0.7,1.3-1.3v-27.9
	C151.9,155.6,151.8,155.3,151.5,155z"/>
<path d="M131.5,158.3c-0.3-0.3-0.7-0.3-1,0l-4.3,4c-0.3,0.3-0.3,0.7,0,0.9l4.3,4c0.1,0.1,0.3,0.2,0.5,0.2c0.2,0,0.4-0.1,0.5-0.2
	c0.3-0.3,0.3-0.7,0-0.9l-3.8-3.5l3.8-3.5C131.8,159,131.8,158.6,131.5,158.3z"/>
<path d="M140.1,158.3c-0.3-0.3-0.7-0.3-1,0c-0.3,0.3-0.3,0.7,0,0.9l3.8,3.5l-3.8,3.5c-0.3,0.3-0.3,0.7,0,0.9
	c0.1,0.1,0.3,0.2,0.5,0.2c0.2,0,0.4-0.1,0.5-0.2l4.3-4c0.3-0.3,0.3-0.7,0-0.9L140.1,158.3z"/>
<path d="M137.7,156.2c-0.4-0.1-0.8,0.1-0.9,0.4l-4.3,11.3c-0.1,0.3,0.1,0.7,0.4,0.8c0.1,0,0.2,0,0.2,0c0.3,0,0.6-0.2,0.7-0.4
	l4.3-11.3C138.3,156.7,138.1,156.3,137.7,156.2z"/>
<path d="M120.8,172.7v-23.9c0-0.1,0-0.6,0.3-0.6l20.7,0c0,0.1-0.1,0.2-0.1,0.3v7.7h8.4c0.1,0,0.2,0,0.3,0c0,0,0,0,0,0v16.6H120.8z
	 M121.2,184c-0.1,0-0.1,0-0.1,0c-0.1,0-0.2-0.2-0.2-0.3v-9.6h29.6v9.6c0,0.1-0.1,0.2-0.2,0.3c0,0-0.1,0-0.1,0H121.2z M149.3,154.8
	h-6.1v-5.6L149.3,154.8z M151.5,155l-7.8-7.2l-0.6-0.5c-0.3-0.2-0.6-0.4-1-0.4h-21c-0.9,0-1.8,0.6-1.8,1.9V184
	c0,0.6,0.6,1.1,1.3,1.3c0,0,0.1,0,0.1,0c0.1,0,0.2,0,0.3,0h28.9c0.1,0,0.2,0,0.3,0c0,0,0.1,0,0.1,0c0.7-0.2,1.3-0.7,1.3-1.3v-27.9
	C151.9,155.6,151.8,155.3,151.5,155z"/>
<path d="M131.5,158.3c-0.3-0.3-0.7-0.3-1,0l-4.3,4c-0.3,0.3-0.3,0.7,0,0.9l4.3,4c0.1,0.1,0.3,0.2,0.5,0.2c0.2,0,0.4-0.1,0.5-0.2
	c0.3-0.3,0.3-0.7,0-0.9l-3.8-3.5l3.8-3.5C131.8,159,131.8,158.6,131.5,158.3z"/>
<path d="M140.1,158.3c-0.3-0.3-0.7-0.3-1,0c-0.3,0.3-0.3,0.7,0,0.9l3.8,3.5l-3.8,3.5c-0.3,0.3-0.3,0.7,0,0.9
	c0.1,0.1,0.3,0.2,0.5,0.2c0.2,0,0.4-0.1,0.5-0.2l4.3-4c0.3-0.3,0.3-0.7,0-0.9L140.1,158.3z"/>
<path d="M137.7,156.2c-0.4-0.1-0.8,0.1-0.9,0.4l-4.3,11.3c-0.1,0.3,0.1,0.7,0.4,0.8c0.1,0,0.2,0,0.2,0c0.3,0,0.6-0.2,0.7-0.4
	l4.3-11.3C138.3,156.7,138.1,156.3,137.7,156.2z"/>
<path d="M78.8,132.7v-23.9c0-0.1,0-0.6,0.3-0.6l20.7,0c0,0.1-0.1,0.2-0.1,0.3v7.7h8.4c0.1,0,0.2,0,0.3,0c0,0,0,0,0,0v16.6H78.8z
	 M79.2,144c-0.1,0-0.1,0-0.1,0c-0.1,0-0.2-0.2-0.2-0.3v-9.6h29.6v9.6c0,0.1-0.1,0.2-0.2,0.3c0,0-0.1,0-0.1,0H79.2z M107.3,114.8
	h-6.1v-5.6L107.3,114.8z M109.5,115l-7.8-7.2l-0.6-0.5c-0.3-0.2-0.6-0.4-1-0.4h-21c-0.9,0-1.8,0.6-1.8,1.9V144
	c0,0.6,0.6,1.1,1.3,1.3c0,0,0.1,0,0.1,0c0.1,0,0.2,0,0.3,0h28.9c0.1,0,0.2,0,0.3,0c0,0,0.1,0,0.1,0c0.7-0.2,1.3-0.7,1.3-1.3v-27.9
	C109.9,115.6,109.8,115.3,109.5,115z"/>
<path d="M89.5,118.3c-0.3-0.3-0.7-0.3-1,0l-4.3,4c-0.3,0.3-0.3,0.7,0,0.9l4.3,4c0.1,0.1,0.3,0.2,0.5,0.2s0.4-0.1,0.5-0.2
	c0.3-0.3,0.3-0.7,0-0.9l-3.8-3.5l3.8-3.5C89.8,119,89.8,118.6,89.5,118.3z"/>
<path d="M98.1,118.3c-0.3-0.3-0.7-0.3-1,0c-0.3,0.3-0.3,0.7,0,0.9l3.8,3.5l-3.8,3.5c-0.3,0.3-0.3,0.7,0,0.9c0.1,0.1,0.3,0.2,0.5,0.2
	s0.4-0.1,0.5-0.2l4.3-4c0.3-0.3,0.3-0.7,0-0.9L98.1,118.3z"/>
<g>
	<path fill="none" d="M95.7,116.2c-0.4-0.1-0.8,0.1-0.9,0.4l-4.3,11.3c-0.1,0.3,0.1,0.7,0.4,0.8c0.1,0,0.2,0,0.2,0
		c0.3,0,0.6-0.2,0.7-0.4l4.3-11.3C96.3,116.7,96.1,116.3,95.7,116.2z"/>
</g>
<g>
	<path d="M83,135.7h2.1c0.5,0,0.8,0,1.1,0.1c0.3,0.1,0.6,0.3,0.9,0.5s0.4,0.6,0.5,0.9s0.2,0.8,0.2,1.4c0,0.5-0.1,0.9-0.2,1.2
		c-0.1,0.4-0.3,0.8-0.6,1c-0.2,0.2-0.5,0.3-0.8,0.5c-0.3,0.1-0.6,0.1-1,0.1H83V135.7z M84.2,136.7v3.8H85c0.3,0,0.6,0,0.7-0.1
		c0.2,0,0.3-0.1,0.5-0.2s0.2-0.3,0.3-0.6s0.1-0.6,0.1-1s0-0.8-0.1-1s-0.2-0.4-0.3-0.6s-0.3-0.2-0.5-0.3c-0.2,0-0.5-0.1-0.9-0.1H84.2
		z"/>
	<path d="M88.7,141.4v-5.7h1.2v5.7H88.7z"/>
	<path d="M92.3,141.4v-4.8h-1.7v-1h4.6v1h-1.7v4.8H92.3z"/>
	<path d="M100.5,141.4h-1.3l-0.5-1.3h-2.3l-0.5,1.3h-1.2l2.2-5.7h1.2L100.5,141.4z M98.3,139.2l-0.8-2.1l-0.8,2.1H98.3z"/>
</g>
<g>
	<path d="M126.9,181.7l2-3l-1.8-2.7h1.4l1.1,1.8l1.1-1.8h1.3l-1.8,2.8l2,2.9h-1.4l-1.3-2l-1.3,2H126.9z"/>
	<path d="M132.8,181.7v-5.7h1.7l1,3.9l1-3.9h1.7v5.7h-1.1v-4.5l-1.1,4.5H135l-1.1-4.5v4.5H132.8z"/>
	<path d="M139.5,181.7V176h1.2v4.7h2.9v1H139.5z"/>
</g>
<g>
	<path d="M158,132.7h2.1c0.5,0,0.8,0,1.1,0.1c0.3,0.1,0.6,0.3,0.9,0.5s0.4,0.6,0.5,0.9s0.2,0.8,0.2,1.4c0,0.5-0.1,0.9-0.2,1.2
		c-0.1,0.4-0.3,0.8-0.6,1c-0.2,0.2-0.5,0.3-0.8,0.5c-0.3,0.1-0.6,0.1-1,0.1H158V132.7z M159.2,133.7v3.8h0.9c0.3,0,0.6,0,0.7-0.1
		c0.2,0,0.3-0.1,0.5-0.2s0.2-0.3,0.3-0.6s0.1-0.6,0.1-1s0-0.8-0.1-1s-0.2-0.4-0.3-0.6s-0.3-0.2-0.5-0.3c-0.2,0-0.5-0.1-0.9-0.1
		H159.2z"/>
	<path d="M163.7,138.4v-5.7h1.2v5.7H163.7z"/>
	<path d="M167.3,138.4v-4.8h-1.7v-1h4.6v1h-1.7v4.8H167.3z"/>
	<path d="M175.5,138.4h-1.3l-0.5-1.3h-2.3l-0.5,1.3h-1.2l2.2-5.7h1.2L175.5,138.4z M173.3,136.2l-0.8-2.1l-0.8,2.1H173.3z"/>
</g>
<g>
	<path d="M66,215.6l1.5,0.4c-0.3,1.2-0.9,2.2-1.7,2.8c-0.8,0.7-1.8,1-3,1c-1.2,0-2.2-0.3-3-0.8s-1.4-1.2-1.8-2.2
		c-0.4-1-0.6-2-0.6-3.1c0-1.2,0.2-2.2,0.7-3.1c0.5-0.9,1.1-1.6,1.9-2c0.8-0.5,1.8-0.7,2.8-0.7c1.1,0,2.1,0.3,2.9,0.9
		s1.3,1.4,1.6,2.5l-1.5,0.4c-0.3-0.8-0.7-1.4-1.2-1.8c-0.5-0.4-1.1-0.6-1.9-0.6c-0.9,0-1.6,0.2-2.2,0.6c-0.6,0.4-1,1-1.2,1.7
		c-0.2,0.7-0.4,1.4-0.4,2.2c0,1,0.1,1.8,0.4,2.6c0.3,0.7,0.7,1.3,1.3,1.6c0.6,0.4,1.2,0.5,1.9,0.5c0.8,0,1.6-0.2,2.2-0.7
		C65.3,217.3,65.7,216.6,66,215.6z"/>
	<path d="M68.6,215.5c0-1.5,0.4-2.7,1.3-3.4c0.7-0.6,1.6-0.9,2.6-0.9c1.1,0,2.1,0.4,2.8,1.1c0.7,0.7,1.1,1.8,1.1,3.1
		c0,1.1-0.2,1.9-0.5,2.5s-0.8,1.1-1.4,1.4c-0.6,0.3-1.3,0.5-2,0.5c-1.2,0-2.1-0.4-2.8-1.1C69,217.9,68.6,216.9,68.6,215.5z
		 M70.1,215.5c0,1.1,0.2,1.9,0.7,2.4c0.5,0.5,1,0.8,1.8,0.8c0.7,0,1.3-0.3,1.7-0.8c0.5-0.5,0.7-1.3,0.7-2.4c0-1-0.2-1.8-0.7-2.3
		c-0.5-0.5-1-0.8-1.7-0.8c-0.7,0-1.3,0.3-1.8,0.8C70.3,213.6,70.1,214.4,70.1,215.5z"/>
	<path d="M78.1,219.6v-8.3h1.3v1.2c0.6-0.9,1.5-1.4,2.6-1.4c0.5,0,1,0.1,1.4,0.3c0.4,0.2,0.7,0.4,0.9,0.7c0.2,0.3,0.4,0.6,0.4,1
		c0.1,0.3,0.1,0.7,0.1,1.4v5.1h-1.4v-5c0-0.6-0.1-1-0.2-1.3s-0.3-0.5-0.6-0.7c-0.3-0.2-0.6-0.3-1-0.3c-0.6,0-1.1,0.2-1.6,0.6
		c-0.4,0.4-0.7,1.1-0.7,2.2v4.5H78.1z"/>
	<path d="M90,218.4l0.2,1.2c-0.4,0.1-0.8,0.1-1.1,0.1c-0.5,0-0.9-0.1-1.2-0.2s-0.5-0.4-0.6-0.6c-0.1-0.3-0.2-0.8-0.2-1.7v-4.8h-1
		v-1.1h1v-2.1l1.4-0.8v2.9H90v1.1h-1.4v4.9c0,0.4,0,0.7,0.1,0.8c0,0.1,0.1,0.2,0.2,0.3c0.1,0.1,0.3,0.1,0.5,0.1
		C89.6,218.4,89.8,218.4,90,218.4z"/>
	<path d="M97.1,216.9l1.5,0.2c-0.2,0.8-0.7,1.5-1.3,2c-0.6,0.5-1.4,0.7-2.4,0.7c-1.2,0-2.2-0.4-2.9-1.1s-1.1-1.8-1.1-3.1
		c0-1.4,0.4-2.5,1.1-3.2s1.7-1.2,2.8-1.2c1.1,0,2,0.4,2.7,1.1s1.1,1.8,1.1,3.2c0,0.1,0,0.2,0,0.4h-6.2c0.1,0.9,0.3,1.6,0.8,2.1
		c0.5,0.5,1,0.7,1.7,0.7c0.5,0,1-0.1,1.3-0.4C96.6,218,96.9,217.5,97.1,216.9z M92.5,214.7h4.6c-0.1-0.7-0.2-1.2-0.5-1.6
		c-0.4-0.5-1-0.8-1.7-0.8c-0.6,0-1.2,0.2-1.6,0.6C92.8,213.4,92.5,213.9,92.5,214.7z"/>
	<path d="M100.3,219.6v-8.3h1.3v1.2c0.6-0.9,1.5-1.4,2.6-1.4c0.5,0,1,0.1,1.4,0.3c0.4,0.2,0.7,0.4,0.9,0.7c0.2,0.3,0.4,0.6,0.4,1
		c0.1,0.3,0.1,0.7,0.1,1.4v5.1h-1.4v-5c0-0.6-0.1-1-0.2-1.3s-0.3-0.5-0.6-0.7c-0.3-0.2-0.6-0.3-1-0.3c-0.6,0-1.1,0.2-1.6,0.6
		c-0.4,0.4-0.7,1.1-0.7,2.2v4.5H100.3z"/>
	<path d="M112.3,218.4l0.2,1.2c-0.4,0.1-0.8,0.1-1.1,0.1c-0.5,0-0.9-0.1-1.2-0.2s-0.5-0.4-0.6-0.6c-0.1-0.3-0.2-0.8-0.2-1.7v-4.8h-1
		v-1.1h1v-2.1l1.4-0.8v2.9h1.4v1.1h-1.4v4.9c0,0.4,0,0.7,0.1,0.8c0,0.1,0.1,0.2,0.2,0.3c0.1,0.1,0.3,0.1,0.5,0.1
		C111.8,218.4,112,218.4,112.3,218.4z"/>
	<path d="M118.1,219.6v-8.3h1.3v1.2c0.3-0.4,0.6-0.7,1-1c0.4-0.2,0.9-0.4,1.5-0.4c0.6,0,1.1,0.1,1.5,0.4c0.4,0.3,0.7,0.6,0.8,1.1
		c0.7-1,1.5-1.5,2.6-1.5c0.8,0,1.5,0.2,1.9,0.7c0.4,0.5,0.7,1.2,0.7,2.1v5.7h-1.4v-5.2c0-0.6,0-1-0.1-1.2c-0.1-0.2-0.3-0.4-0.5-0.6
		c-0.2-0.2-0.5-0.2-0.8-0.2c-0.6,0-1.1,0.2-1.5,0.6c-0.4,0.4-0.6,1-0.6,1.9v4.8H123v-5.4c0-0.6-0.1-1.1-0.3-1.4
		c-0.2-0.3-0.6-0.5-1.1-0.5c-0.4,0-0.8,0.1-1.1,0.3s-0.6,0.5-0.7,0.9c-0.2,0.4-0.2,1-0.2,1.7v4.3H118.1z"/>
	<path d="M136.9,219.6v-1.2c-0.6,0.9-1.5,1.4-2.6,1.4c-0.5,0-0.9-0.1-1.4-0.3c-0.4-0.2-0.7-0.4-0.9-0.7c-0.2-0.3-0.4-0.6-0.4-1
		c-0.1-0.3-0.1-0.7-0.1-1.3v-5.1h1.4v4.6c0,0.7,0,1.2,0.1,1.5c0.1,0.4,0.3,0.7,0.6,0.9c0.3,0.2,0.6,0.3,1.1,0.3s0.8-0.1,1.2-0.3
		c0.4-0.2,0.6-0.5,0.8-0.9c0.2-0.4,0.2-0.9,0.2-1.6v-4.4h1.4v8.3H136.9z"/>
	<path d="M139.8,217.1l1.4-0.2c0.1,0.6,0.3,1,0.7,1.3c0.4,0.3,0.9,0.4,1.5,0.4c0.6,0,1.1-0.1,1.4-0.4s0.5-0.6,0.5-0.9
		c0-0.3-0.1-0.6-0.4-0.8c-0.2-0.1-0.7-0.3-1.4-0.5c-1-0.3-1.7-0.5-2.1-0.7s-0.7-0.5-0.9-0.8c-0.2-0.3-0.3-0.7-0.3-1.1
		c0-0.4,0.1-0.7,0.3-1c0.2-0.3,0.4-0.6,0.7-0.8c0.2-0.2,0.5-0.3,0.9-0.4c0.4-0.1,0.8-0.2,1.2-0.2c0.7,0,1.2,0.1,1.7,0.3
		s0.9,0.4,1.1,0.8s0.4,0.7,0.5,1.3l-1.4,0.2c-0.1-0.4-0.2-0.8-0.5-1c-0.3-0.2-0.7-0.4-1.3-0.4c-0.6,0-1.1,0.1-1.4,0.3
		c-0.3,0.2-0.4,0.5-0.4,0.8c0,0.2,0.1,0.3,0.2,0.5c0.1,0.2,0.3,0.3,0.5,0.4c0.1,0.1,0.6,0.2,1.2,0.4c1,0.3,1.7,0.5,2.1,0.7
		c0.4,0.2,0.7,0.4,0.9,0.7c0.2,0.3,0.3,0.7,0.3,1.2c0,0.5-0.1,0.9-0.4,1.3s-0.7,0.7-1.2,1s-1.1,0.3-1.8,0.3c-1.1,0-1.9-0.2-2.5-0.7
		C140.3,218.7,139.9,218,139.8,217.1z"/>
	<path d="M151.4,218.4l0.2,1.2c-0.4,0.1-0.8,0.1-1.1,0.1c-0.5,0-0.9-0.1-1.2-0.2s-0.5-0.4-0.6-0.6c-0.1-0.3-0.2-0.8-0.2-1.7v-4.8h-1
		v-1.1h1v-2.1l1.4-0.8v2.9h1.4v1.1H150v4.9c0,0.4,0,0.7,0.1,0.8c0,0.1,0.1,0.2,0.2,0.3c0.1,0.1,0.3,0.1,0.5,0.1
		C150.9,218.4,151.1,218.4,151.4,218.4z"/>
	<path d="M158.5,219.6h-1.3v-11.5h1.4v4.1c0.6-0.7,1.4-1.1,2.3-1.1c0.5,0,1,0.1,1.4,0.3c0.5,0.2,0.8,0.5,1.1,0.9
		c0.3,0.4,0.5,0.8,0.7,1.3c0.2,0.5,0.2,1.1,0.2,1.7c0,1.4-0.4,2.5-1.1,3.3s-1.5,1.2-2.5,1.2c-1,0-1.7-0.4-2.3-1.2V219.6z
		 M158.5,215.4c0,1,0.1,1.7,0.4,2.2c0.4,0.7,1,1.1,1.8,1.1c0.6,0,1.1-0.3,1.6-0.8c0.4-0.5,0.7-1.3,0.7-2.4c0-1.1-0.2-1.9-0.6-2.4
		s-0.9-0.8-1.6-0.8c-0.6,0-1.1,0.3-1.6,0.8C158.7,213.6,158.5,214.4,158.5,215.4z"/>
	<path d="M171.8,216.9l1.5,0.2c-0.2,0.8-0.7,1.5-1.3,2c-0.6,0.5-1.4,0.7-2.4,0.7c-1.2,0-2.2-0.4-2.9-1.1s-1.1-1.8-1.1-3.1
		c0-1.4,0.4-2.5,1.1-3.2s1.7-1.2,2.8-1.2c1.1,0,2,0.4,2.7,1.1s1.1,1.8,1.1,3.2c0,0.1,0,0.2,0,0.4h-6.2c0.1,0.9,0.3,1.6,0.8,2.1
		c0.5,0.5,1,0.7,1.7,0.7c0.5,0,1-0.1,1.3-0.4C171.3,218,171.6,217.5,171.8,216.9z M167.2,214.7h4.6c-0.1-0.7-0.2-1.2-0.5-1.6
		c-0.4-0.5-1-0.8-1.7-0.8c-0.6,0-1.2,0.2-1.6,0.6C167.5,213.4,167.2,213.9,167.2,214.7z"/>
	<path d="M57.6,229v-1.6H59v1.6H57.6z M57.6,238.8v-8.3H59v8.3H57.6z"/>
	<path d="M61.2,238.8v-8.3h1.3v1.2c0.6-0.9,1.5-1.4,2.6-1.4c0.5,0,1,0.1,1.4,0.3c0.4,0.2,0.7,0.4,0.9,0.7c0.2,0.3,0.4,0.6,0.4,1
		c0.1,0.3,0.1,0.7,0.1,1.4v5.1h-1.4v-5c0-0.6-0.1-1-0.2-1.3s-0.3-0.5-0.6-0.7c-0.3-0.2-0.6-0.3-1-0.3c-0.6,0-1.1,0.2-1.6,0.6
		c-0.4,0.4-0.7,1.1-0.7,2.2v4.5H61.2z"/>
	<path d="M74.7,238.8v-11.5h3.9c0.9,0,1.6,0.1,2,0.2c0.7,0.2,1.2,0.4,1.7,0.8c0.6,0.5,1.1,1.2,1.4,2c0.3,0.8,0.4,1.7,0.4,2.7
		c0,0.9-0.1,1.6-0.3,2.3s-0.5,1.2-0.8,1.7c-0.3,0.4-0.7,0.8-1,1c-0.4,0.3-0.8,0.4-1.4,0.6c-0.5,0.1-1.1,0.2-1.8,0.2H74.7z
		 M76.2,237.5h2.4c0.8,0,1.3-0.1,1.8-0.2s0.8-0.3,1-0.6c0.4-0.4,0.6-0.8,0.8-1.4c0.2-0.6,0.3-1.3,0.3-2.2c0-1.2-0.2-2.1-0.6-2.8
		c-0.4-0.6-0.9-1.1-1.4-1.3c-0.4-0.2-1.1-0.2-2-0.2h-2.4V237.5z"/>
	<path d="M86.5,238.8v-11.5H88v11.5H86.5z"/>
	<path d="M93.6,238.8v-10.1h-3.8v-1.4h9.1v1.4h-3.8v10.1H93.6z"/>
	<path d="M98,238.8l4.4-11.5h1.6l4.7,11.5H107l-1.3-3.5h-4.8l-1.3,3.5H98z M101.3,234.1h3.9l-1.2-3.2c-0.4-1-0.6-1.8-0.8-2.4
		c-0.1,0.7-0.4,1.5-0.6,2.2L101.3,234.1z"/>
	<path d="M112.8,234.7c0-1.5,0.4-2.7,1.3-3.4c0.7-0.6,1.6-0.9,2.6-0.9c1.1,0,2.1,0.4,2.8,1.1c0.7,0.7,1.1,1.8,1.1,3.1
		c0,1.1-0.2,1.9-0.5,2.5s-0.8,1.1-1.4,1.4c-0.6,0.3-1.3,0.5-2,0.5c-1.2,0-2.1-0.4-2.8-1.1C113.2,237.1,112.8,236.1,112.8,234.7z
		 M114.2,234.7c0,1.1,0.2,1.9,0.7,2.4c0.5,0.5,1,0.8,1.8,0.8c0.7,0,1.3-0.3,1.7-0.8c0.5-0.5,0.7-1.3,0.7-2.4c0-1-0.2-1.8-0.7-2.3
		c-0.5-0.5-1-0.8-1.7-0.8c-0.7,0-1.3,0.3-1.8,0.8C114.5,232.8,114.2,233.6,114.2,234.7z"/>
	<path d="M122.2,238.8v-8.3h1.3v1.3c0.3-0.6,0.6-1,0.9-1.2s0.6-0.3,0.9-0.3c0.5,0,1,0.2,1.4,0.5l-0.5,1.3c-0.3-0.2-0.7-0.3-1-0.3
		c-0.3,0-0.6,0.1-0.8,0.3c-0.2,0.2-0.4,0.4-0.5,0.8c-0.2,0.5-0.2,1-0.2,1.6v4.3H122.2z"/>
	<path d="M131.5,234.7c0-1.5,0.4-2.7,1.3-3.4c0.7-0.6,1.6-0.9,2.6-0.9c1.1,0,2.1,0.4,2.8,1.1c0.7,0.7,1.1,1.8,1.1,3.1
		c0,1.1-0.2,1.9-0.5,2.5s-0.8,1.1-1.4,1.4c-0.6,0.3-1.3,0.5-2,0.5c-1.2,0-2.1-0.4-2.8-1.1C131.8,237.1,131.5,236.1,131.5,234.7z
		 M132.9,234.7c0,1.1,0.2,1.9,0.7,2.4c0.5,0.5,1,0.8,1.8,0.8c0.7,0,1.3-0.3,1.7-0.8c0.5-0.5,0.7-1.3,0.7-2.4c0-1-0.2-1.8-0.7-2.3
		c-0.5-0.5-1-0.8-1.7-0.8c-0.7,0-1.3,0.3-1.8,0.8C133.1,232.8,132.9,233.6,132.9,234.7z"/>
	<path d="M144,237.6l0.2,1.2c-0.4,0.1-0.8,0.1-1.1,0.1c-0.5,0-0.9-0.1-1.2-0.2s-0.5-0.4-0.6-0.6c-0.1-0.3-0.2-0.8-0.2-1.7v-4.8h-1
		v-1.1h1v-2.1l1.4-0.8v2.9h1.4v1.1h-1.4v4.9c0,0.4,0,0.7,0.1,0.8c0,0.1,0.1,0.2,0.2,0.3c0.1,0.1,0.3,0.1,0.5,0.1
		C143.5,237.6,143.7,237.6,144,237.6z"/>
	<path d="M145.3,238.8v-11.5h1.4v4.1c0.7-0.8,1.5-1.1,2.5-1.1c0.6,0,1.1,0.1,1.6,0.4s0.8,0.6,1,1s0.3,1,0.3,1.9v5.3h-1.4v-5.3
		c0-0.7-0.2-1.2-0.5-1.5s-0.7-0.5-1.3-0.5c-0.4,0-0.8,0.1-1.2,0.3s-0.6,0.5-0.8,0.9s-0.2,0.9-0.2,1.5v4.5H145.3z"/>
	<path d="M159.9,236.1l1.5,0.2c-0.2,0.8-0.7,1.5-1.3,2c-0.6,0.5-1.4,0.7-2.4,0.7c-1.2,0-2.2-0.4-2.9-1.1s-1.1-1.8-1.1-3.1
		c0-1.4,0.4-2.5,1.1-3.2s1.7-1.2,2.8-1.2c1.1,0,2,0.4,2.7,1.1s1.1,1.8,1.1,3.2c0,0.1,0,0.2,0,0.4h-6.2c0.1,0.9,0.3,1.6,0.8,2.1
		c0.5,0.5,1,0.7,1.7,0.7c0.5,0,1-0.1,1.3-0.4C159.4,237.2,159.7,236.7,159.9,236.1z M155.3,233.9h4.6c-0.1-0.7-0.2-1.2-0.5-1.6
		c-0.4-0.5-1-0.8-1.7-0.8c-0.6,0-1.2,0.2-1.6,0.6C155.6,232.6,155.3,233.1,155.3,233.9z"/>
	<path d="M163.1,238.8v-8.3h1.3v1.3c0.3-0.6,0.6-1,0.9-1.2s0.6-0.3,0.9-0.3c0.5,0,1,0.2,1.4,0.5l-0.5,1.3c-0.3-0.2-0.7-0.3-1-0.3
		c-0.3,0-0.6,0.1-0.8,0.3c-0.2,0.2-0.4,0.4-0.5,0.8c-0.2,0.5-0.2,1-0.2,1.6v4.3H163.1z"/>
	<path d="M171.9,238.8l4.4-6l-3.9-5.5h1.8l2.1,2.9c0.4,0.6,0.7,1.1,0.9,1.4c0.3-0.4,0.6-0.9,0.9-1.3l2.3-3h1.6l-4,5.4l4.3,6.1h-1.9
		l-2.9-4.1c-0.2-0.2-0.3-0.5-0.5-0.8c-0.3,0.4-0.4,0.7-0.5,0.9l-2.9,4H171.9z"/>
	<path d="M183.7,238.8v-11.5h2.3l2.7,8.1c0.2,0.8,0.4,1.3,0.5,1.7c0.1-0.4,0.3-1,0.6-1.8l2.7-8h2v11.5h-1.5v-9.6l-3.3,9.6h-1.4
		l-3.3-9.8v9.8H183.7z"/>
	<path d="M197,238.8v-11.5h1.5v10.1h5.6v1.4H197z"/>
	<path d="M206.2,238.8v-1.6h1.6v1.6H206.2z"/>
	<path d="M210.6,238.8v-1.6h1.6v1.6H210.6z"/>
	<path d="M215.1,238.8v-1.6h1.6v1.6H215.1z"/>
</g>
<g>
	<path d="M224.1,273.5v-1.6h1.6v1.6H224.1z"/>
	<path d="M228.5,273.5v-1.6h1.6v1.6H228.5z"/>
	<path d="M233,273.5v-1.6h1.6v1.6H233z"/>
	<path d="M236.5,271l1.4-0.2c0.1,0.6,0.3,1,0.7,1.3c0.4,0.3,0.9,0.4,1.5,0.4c0.6,0,1.1-0.1,1.4-0.4s0.5-0.6,0.5-0.9
		c0-0.3-0.1-0.6-0.4-0.8c-0.2-0.1-0.7-0.3-1.4-0.5c-1-0.3-1.7-0.5-2.1-0.7s-0.7-0.5-0.9-0.8c-0.2-0.3-0.3-0.7-0.3-1.1
		c0-0.4,0.1-0.7,0.3-1c0.2-0.3,0.4-0.6,0.7-0.8c0.2-0.2,0.5-0.3,0.9-0.4c0.4-0.1,0.8-0.2,1.2-0.2c0.7,0,1.2,0.1,1.7,0.3
		s0.9,0.4,1.1,0.8s0.4,0.7,0.5,1.3l-1.4,0.2c-0.1-0.4-0.2-0.8-0.5-1c-0.3-0.2-0.7-0.4-1.3-0.4c-0.6,0-1.1,0.1-1.4,0.3
		c-0.3,0.2-0.4,0.5-0.4,0.8c0,0.2,0.1,0.3,0.2,0.5c0.1,0.2,0.3,0.3,0.5,0.4c0.1,0.1,0.6,0.2,1.2,0.4c1,0.3,1.7,0.5,2.1,0.7
		c0.4,0.2,0.7,0.4,0.9,0.7c0.2,0.3,0.3,0.7,0.3,1.2c0,0.5-0.1,0.9-0.4,1.3s-0.7,0.7-1.2,1s-1.1,0.3-1.8,0.3c-1.1,0-1.9-0.2-2.5-0.7
		C237,272.6,236.6,271.9,236.5,271z"/>
	<path d="M244.5,269.4c0-1.5,0.4-2.7,1.3-3.4c0.7-0.6,1.6-0.9,2.6-0.9c1.1,0,2.1,0.4,2.8,1.1c0.7,0.7,1.1,1.8,1.1,3.1
		c0,1.1-0.2,1.9-0.5,2.5s-0.8,1.1-1.4,1.4c-0.6,0.3-1.3,0.5-2,0.5c-1.2,0-2.1-0.4-2.8-1.1C244.9,271.8,244.5,270.8,244.5,269.4z
		 M246,269.4c0,1.1,0.2,1.9,0.7,2.4c0.5,0.5,1,0.8,1.8,0.8c0.7,0,1.3-0.3,1.7-0.8c0.5-0.5,0.7-1.3,0.7-2.4c0-1-0.2-1.8-0.7-2.3
		c-0.5-0.5-1-0.8-1.7-0.8c-0.7,0-1.3,0.3-1.8,0.8C246.2,267.5,246,268.3,246,269.4z"/>
	<path d="M261.5,272.3l0.2,1.2c-0.4,0.1-0.8,0.1-1.1,0.1c-0.5,0-0.9-0.1-1.2-0.2s-0.5-0.4-0.6-0.6c-0.1-0.3-0.2-0.8-0.2-1.7v-4.8h-1
		v-1.1h1v-2.1l1.4-0.8v2.9h1.4v1.1H260v4.9c0,0.4,0,0.7,0.1,0.8c0,0.1,0.1,0.2,0.2,0.3c0.1,0.1,0.3,0.1,0.5,0.1
		C261,272.3,261.2,272.3,261.5,272.3z"/>
	<path d="M262.8,273.5v-11.5h1.4v4.1c0.7-0.8,1.5-1.1,2.5-1.1c0.6,0,1.1,0.1,1.6,0.4s0.8,0.6,1,1s0.3,1,0.3,1.9v5.3h-1.4v-5.3
		c0-0.7-0.2-1.2-0.5-1.5s-0.7-0.5-1.3-0.5c-0.4,0-0.8,0.1-1.2,0.3s-0.6,0.5-0.8,0.9s-0.2,0.9-0.2,1.5v4.5H262.8z"/>
	<path d="M277.1,272.5c-0.5,0.4-1,0.8-1.5,0.9c-0.5,0.2-1,0.3-1.6,0.3c-0.9,0-1.6-0.2-2.1-0.7c-0.5-0.4-0.7-1-0.7-1.7
		c0-0.4,0.1-0.8,0.3-1.1c0.2-0.3,0.4-0.6,0.7-0.8c0.3-0.2,0.6-0.4,1-0.5c0.3-0.1,0.7-0.1,1.2-0.2c1.1-0.1,2-0.3,2.5-0.5
		c0-0.2,0-0.3,0-0.4c0-0.6-0.1-1-0.4-1.2c-0.4-0.3-0.9-0.5-1.6-0.5c-0.7,0-1.1,0.1-1.5,0.3c-0.3,0.2-0.5,0.6-0.7,1.2l-1.4-0.2
		c0.1-0.6,0.3-1.1,0.6-1.4c0.3-0.4,0.7-0.6,1.2-0.8c0.5-0.2,1.2-0.3,1.9-0.3c0.7,0,1.3,0.1,1.7,0.2c0.4,0.2,0.8,0.4,1,0.6
		c0.2,0.3,0.4,0.6,0.4,1c0,0.2,0.1,0.7,0.1,1.3v1.9c0,1.3,0,2.1,0.1,2.5c0.1,0.3,0.2,0.7,0.4,1h-1.5
		C277.3,273.2,277.2,272.9,277.1,272.5z M277,269.4c-0.5,0.2-1.3,0.4-2.3,0.5c-0.6,0.1-1,0.2-1.2,0.3c-0.2,0.1-0.4,0.3-0.6,0.5
		c-0.1,0.2-0.2,0.4-0.2,0.7c0,0.4,0.1,0.7,0.4,0.9c0.3,0.2,0.7,0.4,1.2,0.4c0.5,0,1-0.1,1.4-0.4s0.7-0.6,0.9-1
		c0.2-0.3,0.2-0.8,0.2-1.4V269.4z"/>
	<path d="M283.7,272.3l0.2,1.2c-0.4,0.1-0.8,0.1-1.1,0.1c-0.5,0-0.9-0.1-1.2-0.2s-0.5-0.4-0.6-0.6c-0.1-0.3-0.2-0.8-0.2-1.7v-4.8h-1
		v-1.1h1v-2.1l1.4-0.8v2.9h1.4v1.1h-1.4v4.9c0,0.4,0,0.7,0.1,0.8c0,0.1,0.1,0.2,0.2,0.3c0.1,0.1,0.3,0.1,0.5,0.1
		C283.2,272.3,283.4,272.3,283.7,272.3z"/>
	<path d="M289.5,273.5v-8.3h1.3v1.3c0.3-0.6,0.6-1,0.9-1.2s0.6-0.3,0.9-0.3c0.5,0,1,0.2,1.4,0.5l-0.5,1.3c-0.3-0.2-0.7-0.3-1-0.3
		c-0.3,0-0.6,0.1-0.8,0.3c-0.2,0.2-0.4,0.4-0.5,0.8c-0.2,0.5-0.2,1-0.2,1.6v4.3H289.5z"/>
	<path d="M294.3,269.4c0-1.5,0.4-2.7,1.3-3.4c0.7-0.6,1.6-0.9,2.6-0.9c1.1,0,2.1,0.4,2.8,1.1c0.7,0.7,1.1,1.8,1.1,3.1
		c0,1.1-0.2,1.9-0.5,2.5s-0.8,1.1-1.4,1.4c-0.6,0.3-1.3,0.5-2,0.5c-1.2,0-2.1-0.4-2.8-1.1C294.7,271.8,294.3,270.8,294.3,269.4z
		 M295.8,269.4c0,1.1,0.2,1.9,0.7,2.4c0.5,0.5,1,0.8,1.8,0.8c0.7,0,1.3-0.3,1.7-0.8c0.5-0.5,0.7-1.3,0.7-2.4c0-1-0.2-1.8-0.7-2.3
		c-0.5-0.5-1-0.8-1.7-0.8c-0.7,0-1.3,0.3-1.8,0.8C296,267.5,295.8,268.3,295.8,269.4z"/>
	<path d="M305,273.5h-1.3v-11.5h1.4v4.1c0.6-0.7,1.4-1.1,2.3-1.1c0.5,0,1,0.1,1.4,0.3c0.5,0.2,0.8,0.5,1.1,0.9
		c0.3,0.4,0.5,0.8,0.7,1.3c0.2,0.5,0.2,1.1,0.2,1.7c0,1.4-0.4,2.5-1.1,3.3s-1.5,1.2-2.5,1.2c-1,0-1.7-0.4-2.3-1.2V273.5z M305,269.3
		c0,1,0.1,1.7,0.4,2.2c0.4,0.7,1,1.1,1.8,1.1c0.6,0,1.1-0.3,1.6-0.8c0.4-0.5,0.7-1.3,0.7-2.4c0-1.1-0.2-1.9-0.6-2.4
		s-0.9-0.8-1.6-0.8c-0.6,0-1.1,0.3-1.6,0.8C305.2,267.5,305,268.3,305,269.3z"/>
	<path d="M318.1,273.5v-1.2c-0.6,0.9-1.5,1.4-2.6,1.4c-0.5,0-0.9-0.1-1.4-0.3c-0.4-0.2-0.7-0.4-0.9-0.7c-0.2-0.3-0.4-0.6-0.4-1
		c-0.1-0.3-0.1-0.7-0.1-1.3v-5.1h1.4v4.6c0,0.7,0,1.2,0.1,1.5c0.1,0.4,0.3,0.7,0.6,0.9c0.3,0.2,0.6,0.3,1.1,0.3s0.8-0.1,1.2-0.3
		c0.4-0.2,0.6-0.5,0.8-0.9c0.2-0.4,0.2-0.9,0.2-1.6v-4.4h1.4v8.3H318.1z"/>
	<path d="M321,271l1.4-0.2c0.1,0.6,0.3,1,0.7,1.3c0.4,0.3,0.9,0.4,1.5,0.4c0.6,0,1.1-0.1,1.4-0.4s0.5-0.6,0.5-0.9
		c0-0.3-0.1-0.6-0.4-0.8c-0.2-0.1-0.7-0.3-1.4-0.5c-1-0.3-1.7-0.5-2.1-0.7s-0.7-0.5-0.9-0.8c-0.2-0.3-0.3-0.7-0.3-1.1
		c0-0.4,0.1-0.7,0.3-1c0.2-0.3,0.4-0.6,0.7-0.8c0.2-0.2,0.5-0.3,0.9-0.4c0.4-0.1,0.8-0.2,1.2-0.2c0.7,0,1.2,0.1,1.7,0.3
		s0.9,0.4,1.1,0.8s0.4,0.7,0.5,1.3l-1.4,0.2c-0.1-0.4-0.2-0.8-0.5-1c-0.3-0.2-0.7-0.4-1.3-0.4c-0.6,0-1.1,0.1-1.4,0.3
		c-0.3,0.2-0.4,0.5-0.4,0.8c0,0.2,0.1,0.3,0.2,0.5c0.1,0.2,0.3,0.3,0.5,0.4c0.1,0.1,0.6,0.2,1.2,0.4c1,0.3,1.7,0.5,2.1,0.7
		c0.4,0.2,0.7,0.4,0.9,0.7c0.2,0.3,0.3,0.7,0.3,1.2c0,0.5-0.1,0.9-0.4,1.3s-0.7,0.7-1.2,1s-1.1,0.3-1.8,0.3c-1.1,0-1.9-0.2-2.5-0.7
		C321.5,272.6,321.1,271.9,321,271z"/>
	<path d="M332.6,272.3l0.2,1.2c-0.4,0.1-0.8,0.1-1.1,0.1c-0.5,0-0.9-0.1-1.2-0.2s-0.5-0.4-0.6-0.6c-0.1-0.3-0.2-0.8-0.2-1.7v-4.8h-1
		v-1.1h1v-2.1l1.4-0.8v2.9h1.4v1.1h-1.4v4.9c0,0.4,0,0.7,0.1,0.8c0,0.1,0.1,0.2,0.2,0.3c0.1,0.1,0.3,0.1,0.5,0.1
		C332.1,272.3,332.4,272.3,332.6,272.3z"/>
	<path d="M346.8,269.5l1.5,0.4c-0.3,1.2-0.9,2.2-1.7,2.8c-0.8,0.7-1.8,1-3,1c-1.2,0-2.2-0.3-3-0.8s-1.4-1.2-1.8-2.2
		c-0.4-1-0.6-2-0.6-3.1c0-1.2,0.2-2.2,0.7-3.1c0.5-0.9,1.1-1.6,1.9-2c0.8-0.5,1.8-0.7,2.8-0.7c1.1,0,2.1,0.3,2.9,0.9
		s1.3,1.4,1.6,2.5l-1.5,0.4c-0.3-0.8-0.7-1.4-1.2-1.8c-0.5-0.4-1.1-0.6-1.9-0.6c-0.9,0-1.6,0.2-2.2,0.6c-0.6,0.4-1,1-1.2,1.7
		c-0.2,0.7-0.4,1.4-0.4,2.2c0,1,0.1,1.8,0.4,2.6c0.3,0.7,0.7,1.3,1.3,1.6c0.6,0.4,1.2,0.5,1.9,0.5c0.8,0,1.6-0.2,2.2-0.7
		C346.2,271.2,346.6,270.5,346.8,269.5z"/>
	<path d="M358.3,269.5l1.5,0.4c-0.3,1.2-0.9,2.2-1.7,2.8c-0.8,0.7-1.8,1-3,1c-1.2,0-2.2-0.3-3-0.8s-1.4-1.2-1.8-2.2
		c-0.4-1-0.6-2-0.6-3.1c0-1.2,0.2-2.2,0.7-3.1c0.5-0.9,1.1-1.6,1.9-2c0.8-0.5,1.8-0.7,2.8-0.7c1.1,0,2.1,0.3,2.9,0.9
		s1.3,1.4,1.6,2.5l-1.5,0.4c-0.3-0.8-0.7-1.4-1.2-1.8c-0.5-0.4-1.1-0.6-1.9-0.6c-0.9,0-1.6,0.2-2.2,0.6c-0.6,0.4-1,1-1.2,1.7
		c-0.2,0.7-0.4,1.4-0.4,2.2c0,1,0.1,1.8,0.4,2.6c0.3,0.7,0.7,1.3,1.3,1.6c0.6,0.4,1.2,0.5,1.9,0.5c0.8,0,1.6-0.2,2.2-0.7
		C357.7,271.2,358.1,270.5,358.3,269.5z"/>
	<path d="M361.7,273.5v-11.5h2.3l2.7,8.1c0.2,0.8,0.4,1.3,0.5,1.7c0.1-0.4,0.3-1,0.6-1.8l2.7-8h2v11.5h-1.5v-9.6l-3.3,9.6h-1.4
		l-3.3-9.8v9.8H361.7z"/>
	<path d="M374.5,269.8l1.4-0.1c0.1,0.6,0.2,1,0.5,1.4c0.2,0.4,0.6,0.7,1.2,0.9c0.5,0.2,1.1,0.3,1.8,0.3c0.6,0,1.1-0.1,1.5-0.3
		c0.4-0.2,0.8-0.4,1-0.7c0.2-0.3,0.3-0.6,0.3-1c0-0.4-0.1-0.7-0.3-0.9c-0.2-0.3-0.6-0.5-1-0.7c-0.3-0.1-1-0.3-2-0.6
		c-1.1-0.3-1.8-0.5-2.2-0.7c-0.5-0.3-1-0.6-1.2-1.1c-0.3-0.4-0.4-0.9-0.4-1.4c0-0.6,0.2-1.1,0.5-1.6s0.8-0.9,1.4-1.1
		c0.6-0.3,1.3-0.4,2.1-0.4c0.8,0,1.6,0.1,2.2,0.4s1.1,0.7,1.5,1.2c0.3,0.5,0.5,1.1,0.6,1.8l-1.5,0.1c-0.1-0.7-0.3-1.3-0.8-1.6
		c-0.5-0.4-1.1-0.6-2-0.6c-0.9,0-1.6,0.2-2,0.5c-0.4,0.3-0.6,0.7-0.6,1.2c0,0.4,0.1,0.8,0.4,1c0.3,0.3,1.1,0.5,2.3,0.8
		c1.2,0.3,2.1,0.5,2.5,0.7c0.7,0.3,1.2,0.7,1.5,1.2c0.3,0.5,0.5,1,0.5,1.6c0,0.6-0.2,1.2-0.5,1.7c-0.3,0.5-0.9,1-1.5,1.3
		c-0.7,0.3-1.4,0.4-2.2,0.4c-1,0-1.9-0.2-2.6-0.5c-0.7-0.3-1.2-0.8-1.6-1.4S374.5,270.6,374.5,269.8z"/>
	<path d="M389.4,271l1.4-0.2c0.1,0.6,0.3,1,0.7,1.3c0.4,0.3,0.9,0.4,1.5,0.4c0.6,0,1.1-0.1,1.4-0.4s0.5-0.6,0.5-0.9
		c0-0.3-0.1-0.6-0.4-0.8c-0.2-0.1-0.7-0.3-1.4-0.5c-1-0.3-1.7-0.5-2.1-0.7s-0.7-0.5-0.9-0.8c-0.2-0.3-0.3-0.7-0.3-1.1
		c0-0.4,0.1-0.7,0.3-1c0.2-0.3,0.4-0.6,0.7-0.8c0.2-0.2,0.5-0.3,0.9-0.4c0.4-0.1,0.8-0.2,1.2-0.2c0.7,0,1.2,0.1,1.7,0.3
		s0.9,0.4,1.1,0.8s0.4,0.7,0.5,1.3l-1.4,0.2c-0.1-0.4-0.2-0.8-0.5-1c-0.3-0.2-0.7-0.4-1.3-0.4c-0.6,0-1.1,0.1-1.4,0.3
		c-0.3,0.2-0.4,0.5-0.4,0.8c0,0.2,0.1,0.3,0.2,0.5c0.1,0.2,0.3,0.3,0.5,0.4c0.1,0.1,0.6,0.2,1.2,0.4c1,0.3,1.7,0.5,2.1,0.7
		c0.4,0.2,0.7,0.4,0.9,0.7c0.2,0.3,0.3,0.7,0.3,1.2c0,0.5-0.1,0.9-0.4,1.3s-0.7,0.7-1.2,1s-1.1,0.3-1.8,0.3c-1.1,0-1.9-0.2-2.5-0.7
		C389.9,272.6,389.6,271.9,389.4,271z"/>
	<path d="M397.9,276.7l-0.2-1.3c0.3,0.1,0.6,0.1,0.8,0.1c0.3,0,0.6-0.1,0.8-0.2s0.3-0.2,0.5-0.4c0.1-0.1,0.2-0.5,0.4-1
		c0-0.1,0.1-0.2,0.1-0.3l-3.1-8.3h1.5l1.7,4.8c0.2,0.6,0.4,1.2,0.6,1.9c0.2-0.6,0.4-1.3,0.6-1.9l1.8-4.8h1.4l-3.2,8.4
		c-0.3,0.9-0.6,1.5-0.8,1.9c-0.2,0.5-0.5,0.8-0.9,1c-0.3,0.2-0.7,0.3-1.2,0.3C398.6,276.9,398.3,276.8,397.9,276.7z"/>
	<path d="M405.4,271l1.4-0.2c0.1,0.6,0.3,1,0.7,1.3c0.4,0.3,0.9,0.4,1.5,0.4c0.6,0,1.1-0.1,1.4-0.4s0.5-0.6,0.5-0.9
		c0-0.3-0.1-0.6-0.4-0.8c-0.2-0.1-0.7-0.3-1.4-0.5c-1-0.3-1.7-0.5-2.1-0.7s-0.7-0.5-0.9-0.8c-0.2-0.3-0.3-0.7-0.3-1.1
		c0-0.4,0.1-0.7,0.3-1c0.2-0.3,0.4-0.6,0.7-0.8c0.2-0.2,0.5-0.3,0.9-0.4c0.4-0.1,0.8-0.2,1.2-0.2c0.7,0,1.2,0.1,1.7,0.3
		s0.9,0.4,1.1,0.8s0.4,0.7,0.5,1.3l-1.4,0.2c-0.1-0.4-0.2-0.8-0.5-1c-0.3-0.2-0.7-0.4-1.3-0.4c-0.6,0-1.1,0.1-1.4,0.3
		c-0.3,0.2-0.4,0.5-0.4,0.8c0,0.2,0.1,0.3,0.2,0.5c0.1,0.2,0.3,0.3,0.5,0.4c0.1,0.1,0.6,0.2,1.2,0.4c1,0.3,1.7,0.5,2.1,0.7
		c0.4,0.2,0.7,0.4,0.9,0.7c0.2,0.3,0.3,0.7,0.3,1.2c0,0.5-0.1,0.9-0.4,1.3s-0.7,0.7-1.2,1s-1.1,0.3-1.8,0.3c-1.1,0-1.9-0.2-2.5-0.7
		C405.9,272.6,405.6,271.9,405.4,271z"/>
	<path d="M417.1,272.3l0.2,1.2c-0.4,0.1-0.8,0.1-1.1,0.1c-0.5,0-0.9-0.1-1.2-0.2s-0.5-0.4-0.6-0.6c-0.1-0.3-0.2-0.8-0.2-1.7v-4.8h-1
		v-1.1h1v-2.1l1.4-0.8v2.9h1.4v1.1h-1.4v4.9c0,0.4,0,0.7,0.1,0.8c0,0.1,0.1,0.2,0.2,0.3c0.1,0.1,0.3,0.1,0.5,0.1
		C416.6,272.3,416.8,272.3,417.1,272.3z"/>
	<path d="M424.1,270.8l1.5,0.2c-0.2,0.8-0.7,1.5-1.3,2c-0.6,0.5-1.4,0.7-2.4,0.7c-1.2,0-2.2-0.4-2.9-1.1s-1.1-1.8-1.1-3.1
		c0-1.4,0.4-2.5,1.1-3.2s1.7-1.2,2.8-1.2c1.1,0,2,0.4,2.7,1.1s1.1,1.8,1.1,3.2c0,0.1,0,0.2,0,0.4h-6.2c0.1,0.9,0.3,1.6,0.8,2.1
		c0.5,0.5,1,0.7,1.7,0.7c0.5,0,1-0.1,1.3-0.4C423.6,271.9,423.9,271.4,424.1,270.8z M419.5,268.6h4.6c-0.1-0.7-0.2-1.2-0.5-1.6
		c-0.4-0.5-1-0.8-1.7-0.8c-0.6,0-1.2,0.2-1.6,0.6C419.8,267.3,419.5,267.8,419.5,268.6z"/>
	<path d="M427.3,273.5v-8.3h1.3v1.2c0.3-0.4,0.6-0.7,1-1c0.4-0.2,0.9-0.4,1.5-0.4c0.6,0,1.1,0.1,1.5,0.4c0.4,0.3,0.7,0.6,0.8,1.1
		c0.7-1,1.5-1.5,2.6-1.5c0.8,0,1.5,0.2,1.9,0.7c0.4,0.5,0.7,1.2,0.7,2.1v5.7h-1.4v-5.2c0-0.6,0-1-0.1-1.2c-0.1-0.2-0.3-0.4-0.5-0.6
		c-0.2-0.2-0.5-0.2-0.8-0.2c-0.6,0-1.1,0.2-1.5,0.6c-0.4,0.4-0.6,1-0.6,1.9v4.8h-1.4v-5.4c0-0.6-0.1-1.1-0.3-1.4
		c-0.2-0.3-0.6-0.5-1.1-0.5c-0.4,0-0.8,0.1-1.1,0.3s-0.6,0.5-0.7,0.9c-0.2,0.4-0.2,1-0.2,1.7v4.3H427.3z"/>
	<path d="M440.1,271l1.4-0.2c0.1,0.6,0.3,1,0.7,1.3c0.4,0.3,0.9,0.4,1.5,0.4c0.6,0,1.1-0.1,1.4-0.4s0.5-0.6,0.5-0.9
		c0-0.3-0.1-0.6-0.4-0.8c-0.2-0.1-0.7-0.3-1.4-0.5c-1-0.3-1.7-0.5-2.1-0.7s-0.7-0.5-0.9-0.8c-0.2-0.3-0.3-0.7-0.3-1.1
		c0-0.4,0.1-0.7,0.3-1c0.2-0.3,0.4-0.6,0.7-0.8c0.2-0.2,0.5-0.3,0.9-0.4c0.4-0.1,0.8-0.2,1.2-0.2c0.7,0,1.2,0.1,1.7,0.3
		s0.9,0.4,1.1,0.8s0.4,0.7,0.5,1.3l-1.4,0.2c-0.1-0.4-0.2-0.8-0.5-1c-0.3-0.2-0.7-0.4-1.3-0.4c-0.6,0-1.1,0.1-1.4,0.3
		c-0.3,0.2-0.4,0.5-0.4,0.8c0,0.2,0.1,0.3,0.2,0.5c0.1,0.2,0.3,0.3,0.5,0.4c0.1,0.1,0.6,0.2,1.2,0.4c1,0.3,1.7,0.5,2.1,0.7
		c0.4,0.2,0.7,0.4,0.9,0.7c0.2,0.3,0.3,0.7,0.3,1.2c0,0.5-0.1,0.9-0.4,1.3s-0.7,0.7-1.2,1s-1.1,0.3-1.8,0.3c-1.1,0-1.9-0.2-2.5-0.7
		C440.6,272.6,440.2,271.9,440.1,271z"/>
	<path d="M229.1,289.7l1.4,0.2c-0.2,1-0.5,1.7-1.2,2.2c-0.6,0.5-1.4,0.8-2.3,0.8c-1.1,0-2-0.4-2.7-1.1c-0.7-0.7-1-1.8-1-3.2
		c0-0.9,0.1-1.7,0.4-2.4s0.7-1.2,1.4-1.5c0.6-0.3,1.3-0.5,2-0.5c0.9,0,1.6,0.2,2.2,0.7c0.6,0.5,0.9,1.1,1.1,1.9l-1.4,0.2
		c-0.1-0.6-0.4-1-0.7-1.3c-0.3-0.3-0.7-0.4-1.2-0.4c-0.7,0-1.3,0.3-1.7,0.8c-0.4,0.5-0.7,1.3-0.7,2.4c0,1.1,0.2,1.9,0.6,2.4
		c0.4,0.5,1,0.8,1.7,0.8c0.6,0,1-0.2,1.4-0.5C228.8,290.9,229,290.4,229.1,289.7z"/>
	<path d="M237.1,291.7c-0.5,0.4-1,0.8-1.5,0.9c-0.5,0.2-1,0.3-1.6,0.3c-0.9,0-1.6-0.2-2.1-0.7c-0.5-0.4-0.7-1-0.7-1.7
		c0-0.4,0.1-0.8,0.3-1.1c0.2-0.3,0.4-0.6,0.7-0.8c0.3-0.2,0.6-0.4,1-0.5c0.3-0.1,0.7-0.1,1.2-0.2c1.1-0.1,2-0.3,2.5-0.5
		c0-0.2,0-0.3,0-0.4c0-0.6-0.1-1-0.4-1.2c-0.4-0.3-0.9-0.5-1.6-0.5c-0.7,0-1.1,0.1-1.5,0.3c-0.3,0.2-0.5,0.6-0.7,1.2l-1.4-0.2
		c0.1-0.6,0.3-1.1,0.6-1.4c0.3-0.4,0.7-0.6,1.2-0.8c0.5-0.2,1.2-0.3,1.9-0.3c0.7,0,1.3,0.1,1.7,0.2c0.4,0.2,0.8,0.4,1,0.6
		c0.2,0.3,0.4,0.6,0.4,1c0,0.2,0.1,0.7,0.1,1.3v1.9c0,1.3,0,2.1,0.1,2.5c0.1,0.3,0.2,0.7,0.4,1h-1.5
		C237.2,292.4,237.2,292.1,237.1,291.7z M237,288.6c-0.5,0.2-1.3,0.4-2.3,0.5c-0.6,0.1-1,0.2-1.2,0.3c-0.2,0.1-0.4,0.3-0.6,0.5
		c-0.1,0.2-0.2,0.4-0.2,0.7c0,0.4,0.1,0.7,0.4,0.9c0.3,0.2,0.7,0.4,1.2,0.4c0.5,0,1-0.1,1.4-0.4s0.7-0.6,0.9-1
		c0.2-0.3,0.2-0.8,0.2-1.4V288.6z"/>
	<path d="M240.6,292.7v-8.3h1.3v1.2c0.6-0.9,1.5-1.4,2.6-1.4c0.5,0,1,0.1,1.4,0.3c0.4,0.2,0.7,0.4,0.9,0.7c0.2,0.3,0.4,0.6,0.4,1
		c0.1,0.3,0.1,0.7,0.1,1.4v5.1h-1.4v-5c0-0.6-0.1-1-0.2-1.3s-0.3-0.5-0.6-0.7c-0.3-0.2-0.6-0.3-1-0.3c-0.6,0-1.1,0.2-1.6,0.6
		c-0.4,0.4-0.7,1.1-0.7,2.2v4.5H240.6z"/>
	<path d="M253.9,295.9v-11.5h1.3v1.1c0.3-0.4,0.6-0.7,1-0.9c0.4-0.2,0.8-0.3,1.4-0.3c0.7,0,1.3,0.2,1.9,0.5c0.5,0.4,1,0.9,1.2,1.5
		c0.3,0.7,0.4,1.4,0.4,2.2c0,0.8-0.2,1.6-0.5,2.3s-0.7,1.2-1.3,1.6c-0.6,0.4-1.2,0.5-1.8,0.5c-0.5,0-0.9-0.1-1.3-0.3
		c-0.4-0.2-0.7-0.4-0.9-0.8v4H253.9z M255.2,288.6c0,1.1,0.2,1.9,0.6,2.4c0.4,0.5,1,0.8,1.6,0.8c0.6,0,1.2-0.3,1.6-0.8
		s0.7-1.3,0.7-2.5c0-1.1-0.2-1.8-0.7-2.4c-0.4-0.5-1-0.8-1.6-0.8c-0.6,0-1.1,0.3-1.6,0.8S255.2,287.5,255.2,288.6z"/>
	<path d="M268.3,291.7c-0.5,0.4-1,0.8-1.5,0.9c-0.5,0.2-1,0.3-1.6,0.3c-0.9,0-1.6-0.2-2.1-0.7c-0.5-0.4-0.7-1-0.7-1.7
		c0-0.4,0.1-0.8,0.3-1.1c0.2-0.3,0.4-0.6,0.7-0.8c0.3-0.2,0.6-0.4,1-0.5c0.3-0.1,0.7-0.1,1.2-0.2c1.1-0.1,2-0.3,2.5-0.5
		c0-0.2,0-0.3,0-0.4c0-0.6-0.1-1-0.4-1.2c-0.4-0.3-0.9-0.5-1.6-0.5c-0.7,0-1.1,0.1-1.5,0.3c-0.3,0.2-0.5,0.6-0.7,1.2l-1.4-0.2
		c0.1-0.6,0.3-1.1,0.6-1.4c0.3-0.4,0.7-0.6,1.2-0.8c0.5-0.2,1.2-0.3,1.9-0.3c0.7,0,1.3,0.1,1.7,0.2c0.4,0.2,0.8,0.4,1,0.6
		c0.2,0.3,0.4,0.6,0.4,1c0,0.2,0.1,0.7,0.1,1.3v1.9c0,1.3,0,2.1,0.1,2.5c0.1,0.3,0.2,0.7,0.4,1h-1.5
		C268.4,292.4,268.3,292.1,268.3,291.7z M268.1,288.6c-0.5,0.2-1.3,0.4-2.3,0.5c-0.6,0.1-1,0.2-1.2,0.3c-0.2,0.1-0.4,0.3-0.6,0.5
		c-0.1,0.2-0.2,0.4-0.2,0.7c0,0.4,0.1,0.7,0.4,0.9c0.3,0.2,0.7,0.4,1.2,0.4c0.5,0,1-0.1,1.4-0.4s0.7-0.6,0.9-1
		c0.2-0.3,0.2-0.8,0.2-1.4V288.6z"/>
	<path d="M271.7,292.7v-8.3h1.3v1.3c0.3-0.6,0.6-1,0.9-1.2s0.6-0.3,0.9-0.3c0.5,0,1,0.2,1.4,0.5l-0.5,1.3c-0.3-0.2-0.7-0.3-1-0.3
		c-0.3,0-0.6,0.1-0.8,0.3c-0.2,0.2-0.4,0.4-0.5,0.8c-0.2,0.5-0.2,1-0.2,1.6v4.3H271.7z"/>
	<path d="M276.5,290.2l1.4-0.2c0.1,0.6,0.3,1,0.7,1.3c0.4,0.3,0.9,0.4,1.5,0.4c0.6,0,1.1-0.1,1.4-0.4s0.5-0.6,0.5-0.9
		c0-0.3-0.1-0.6-0.4-0.8c-0.2-0.1-0.7-0.3-1.4-0.5c-1-0.3-1.7-0.5-2.1-0.7s-0.7-0.5-0.9-0.8c-0.2-0.3-0.3-0.7-0.3-1.1
		c0-0.4,0.1-0.7,0.3-1c0.2-0.3,0.4-0.6,0.7-0.8c0.2-0.2,0.5-0.3,0.9-0.4c0.4-0.1,0.8-0.2,1.2-0.2c0.7,0,1.2,0.1,1.7,0.3
		s0.9,0.4,1.1,0.8s0.4,0.7,0.5,1.3l-1.4,0.2c-0.1-0.4-0.2-0.8-0.5-1c-0.3-0.2-0.7-0.4-1.3-0.4c-0.6,0-1.1,0.1-1.4,0.3
		c-0.3,0.2-0.4,0.5-0.4,0.8c0,0.2,0.1,0.3,0.2,0.5c0.1,0.2,0.3,0.3,0.5,0.4c0.1,0.1,0.6,0.2,1.2,0.4c1,0.3,1.7,0.5,2.1,0.7
		c0.4,0.2,0.7,0.4,0.9,0.7c0.2,0.3,0.3,0.7,0.3,1.2c0,0.5-0.1,0.9-0.4,1.3s-0.7,0.7-1.2,1s-1.1,0.3-1.8,0.3c-1.1,0-1.9-0.2-2.5-0.7
		C277,291.8,276.7,291.1,276.5,290.2z"/>
	<path d="M290.7,290l1.5,0.2c-0.2,0.8-0.7,1.5-1.3,2c-0.6,0.5-1.4,0.7-2.4,0.7c-1.2,0-2.2-0.4-2.9-1.1s-1.1-1.8-1.1-3.1
		c0-1.4,0.4-2.5,1.1-3.2s1.7-1.2,2.8-1.2c1.1,0,2,0.4,2.7,1.1s1.1,1.8,1.1,3.2c0,0.1,0,0.2,0,0.4h-6.2c0.1,0.9,0.3,1.6,0.8,2.1
		c0.5,0.5,1,0.7,1.7,0.7c0.5,0,1-0.1,1.3-0.4C290.2,291.1,290.5,290.6,290.7,290z M286.1,287.8h4.6c-0.1-0.7-0.2-1.2-0.5-1.6
		c-0.4-0.5-1-0.8-1.7-0.8c-0.6,0-1.2,0.2-1.6,0.6C286.4,286.5,286.2,287,286.1,287.8z"/>
	<path d="M303.8,291.7c-0.5,0.4-1,0.8-1.5,0.9c-0.5,0.2-1,0.3-1.6,0.3c-0.9,0-1.6-0.2-2.1-0.7c-0.5-0.4-0.7-1-0.7-1.7
		c0-0.4,0.1-0.8,0.3-1.1c0.2-0.3,0.4-0.6,0.7-0.8c0.3-0.2,0.6-0.4,1-0.5c0.3-0.1,0.7-0.1,1.2-0.2c1.1-0.1,2-0.3,2.5-0.5
		c0-0.2,0-0.3,0-0.4c0-0.6-0.1-1-0.4-1.2c-0.4-0.3-0.9-0.5-1.6-0.5c-0.7,0-1.1,0.1-1.5,0.3c-0.3,0.2-0.5,0.6-0.7,1.2l-1.4-0.2
		c0.1-0.6,0.3-1.1,0.6-1.4c0.3-0.4,0.7-0.6,1.2-0.8c0.5-0.2,1.2-0.3,1.9-0.3c0.7,0,1.3,0.1,1.7,0.2c0.4,0.2,0.8,0.4,1,0.6
		c0.2,0.3,0.4,0.6,0.4,1c0,0.2,0.1,0.7,0.1,1.3v1.9c0,1.3,0,2.1,0.1,2.5c0.1,0.3,0.2,0.7,0.4,1h-1.5
		C304,292.4,303.9,292.1,303.8,291.7z M303.7,288.6c-0.5,0.2-1.3,0.4-2.3,0.5c-0.6,0.1-1,0.2-1.2,0.3c-0.2,0.1-0.4,0.3-0.6,0.5
		c-0.1,0.2-0.2,0.4-0.2,0.7c0,0.4,0.1,0.7,0.4,0.9c0.3,0.2,0.7,0.4,1.2,0.4c0.5,0,1-0.1,1.4-0.4s0.7-0.6,0.9-1
		c0.2-0.3,0.2-0.8,0.2-1.4V288.6z"/>
	<path d="M307.3,292.7v-8.3h1.3v1.2c0.6-0.9,1.5-1.4,2.6-1.4c0.5,0,1,0.1,1.4,0.3c0.4,0.2,0.7,0.4,0.9,0.7c0.2,0.3,0.4,0.6,0.4,1
		c0.1,0.3,0.1,0.7,0.1,1.4v5.1h-1.4v-5c0-0.6-0.1-1-0.2-1.3s-0.3-0.5-0.6-0.7c-0.3-0.2-0.6-0.3-1-0.3c-0.6,0-1.1,0.2-1.6,0.6
		c-0.4,0.4-0.7,1.1-0.7,2.2v4.5H307.3z"/>
	<path d="M321.6,292.7v-1c-0.5,0.8-1.3,1.2-2.3,1.2c-0.7,0-1.3-0.2-1.8-0.5s-1-0.9-1.3-1.5s-0.5-1.4-0.5-2.3c0-0.8,0.1-1.6,0.4-2.3
		c0.3-0.7,0.7-1.2,1.2-1.6c0.6-0.4,1.2-0.5,1.9-0.5c0.5,0,0.9,0.1,1.3,0.3s0.7,0.5,1,0.8v-4.1h1.4v11.5H321.6z M317.1,288.6
		c0,1.1,0.2,1.9,0.7,2.4c0.4,0.5,1,0.8,1.6,0.8c0.6,0,1.1-0.3,1.6-0.8s0.6-1.3,0.6-2.3c0-1.1-0.2-2-0.7-2.5s-1-0.8-1.6-0.8
		c-0.6,0-1.1,0.3-1.6,0.8C317.4,286.7,317.1,287.5,317.1,288.6z"/>
	<path d="M329.6,292.7v-8.3h1.3v1.2c0.3-0.4,0.6-0.7,1-1c0.4-0.2,0.9-0.4,1.5-0.4c0.6,0,1.1,0.1,1.5,0.4c0.4,0.3,0.7,0.6,0.8,1.1
		c0.7-1,1.5-1.5,2.6-1.5c0.8,0,1.5,0.2,1.9,0.7c0.4,0.5,0.7,1.2,0.7,2.1v5.7h-1.4v-5.2c0-0.6,0-1-0.1-1.2c-0.1-0.2-0.3-0.4-0.5-0.6
		c-0.2-0.2-0.5-0.2-0.8-0.2c-0.6,0-1.1,0.2-1.5,0.6c-0.4,0.4-0.6,1-0.6,1.9v4.8h-1.4v-5.4c0-0.6-0.1-1.1-0.3-1.4
		c-0.2-0.3-0.6-0.5-1.1-0.5c-0.4,0-0.8,0.1-1.1,0.3s-0.6,0.5-0.7,0.9c-0.2,0.4-0.2,1-0.2,1.7v4.3H329.6z"/>
	<path d="M348.3,291.7c-0.5,0.4-1,0.8-1.5,0.9c-0.5,0.2-1,0.3-1.6,0.3c-0.9,0-1.6-0.2-2.1-0.7c-0.5-0.4-0.7-1-0.7-1.7
		c0-0.4,0.1-0.8,0.3-1.1c0.2-0.3,0.4-0.6,0.7-0.8c0.3-0.2,0.6-0.4,1-0.5c0.3-0.1,0.7-0.1,1.2-0.2c1.1-0.1,2-0.3,2.5-0.5
		c0-0.2,0-0.3,0-0.4c0-0.6-0.1-1-0.4-1.2c-0.4-0.3-0.9-0.5-1.6-0.5c-0.7,0-1.1,0.1-1.5,0.3c-0.3,0.2-0.5,0.6-0.7,1.2l-1.4-0.2
		c0.1-0.6,0.3-1.1,0.6-1.4c0.3-0.4,0.7-0.6,1.2-0.8c0.5-0.2,1.2-0.3,1.9-0.3c0.7,0,1.3,0.1,1.7,0.2c0.4,0.2,0.8,0.4,1,0.6
		c0.2,0.3,0.4,0.6,0.4,1c0,0.2,0.1,0.7,0.1,1.3v1.9c0,1.3,0,2.1,0.1,2.5c0.1,0.3,0.2,0.7,0.4,1h-1.5
		C348.4,292.4,348.3,292.1,348.3,291.7z M348.2,288.6c-0.5,0.2-1.3,0.4-2.3,0.5c-0.6,0.1-1,0.2-1.2,0.3c-0.2,0.1-0.4,0.3-0.6,0.5
		c-0.1,0.2-0.2,0.4-0.2,0.7c0,0.4,0.1,0.7,0.4,0.9c0.3,0.2,0.7,0.4,1.2,0.4c0.5,0,1-0.1,1.4-0.4s0.7-0.6,0.9-1
		c0.2-0.3,0.2-0.8,0.2-1.4V288.6z"/>
	<path d="M351.8,292.7v-8.3h1.3v1.2c0.6-0.9,1.5-1.4,2.6-1.4c0.5,0,1,0.1,1.4,0.3c0.4,0.2,0.7,0.4,0.9,0.7c0.2,0.3,0.4,0.6,0.4,1
		c0.1,0.3,0.1,0.7,0.1,1.4v5.1h-1.4v-5c0-0.6-0.1-1-0.2-1.3s-0.3-0.5-0.6-0.7c-0.3-0.2-0.6-0.3-1-0.3c-0.6,0-1.1,0.2-1.6,0.6
		c-0.4,0.4-0.7,1.1-0.7,2.2v4.5H351.8z"/>
	<path d="M366.1,291.7c-0.5,0.4-1,0.8-1.5,0.9c-0.5,0.2-1,0.3-1.6,0.3c-0.9,0-1.6-0.2-2.1-0.7c-0.5-0.4-0.7-1-0.7-1.7
		c0-0.4,0.1-0.8,0.3-1.1c0.2-0.3,0.4-0.6,0.7-0.8c0.3-0.2,0.6-0.4,1-0.5c0.3-0.1,0.7-0.1,1.2-0.2c1.1-0.1,2-0.3,2.5-0.5
		c0-0.2,0-0.3,0-0.4c0-0.6-0.1-1-0.4-1.2c-0.4-0.3-0.9-0.5-1.6-0.5c-0.7,0-1.2,0.1-1.5,0.3c-0.3,0.2-0.5,0.6-0.7,1.2l-1.4-0.2
		c0.1-0.6,0.3-1.1,0.6-1.4c0.3-0.4,0.7-0.6,1.2-0.8c0.5-0.2,1.2-0.3,1.9-0.3c0.7,0,1.3,0.1,1.7,0.2c0.4,0.2,0.8,0.4,1,0.6
		c0.2,0.3,0.4,0.6,0.4,1c0,0.2,0.1,0.7,0.1,1.3v1.9c0,1.3,0,2.1,0.1,2.5c0.1,0.3,0.2,0.7,0.4,1h-1.5
		C366.2,292.4,366.1,292.1,366.1,291.7z M366,288.6c-0.5,0.2-1.3,0.4-2.3,0.5c-0.6,0.1-1,0.2-1.2,0.3c-0.2,0.1-0.4,0.3-0.6,0.5
		c-0.1,0.2-0.2,0.4-0.2,0.7c0,0.4,0.1,0.7,0.4,0.9c0.3,0.2,0.7,0.4,1.2,0.4c0.5,0,1-0.1,1.4-0.4s0.7-0.6,0.9-1
		c0.2-0.3,0.2-0.8,0.2-1.4V288.6z"/>
	<path d="M369.3,293.4l1.4,0.2c0.1,0.4,0.2,0.7,0.5,0.9c0.3,0.3,0.8,0.4,1.4,0.4c0.7,0,1.2-0.1,1.5-0.4c0.4-0.3,0.6-0.6,0.7-1.1
		c0.1-0.3,0.1-0.9,0.1-1.8c-0.6,0.7-1.4,1.1-2.3,1.1c-1.1,0-2-0.4-2.6-1.2s-0.9-1.8-0.9-3c0-0.8,0.1-1.5,0.4-2.2
		c0.3-0.7,0.7-1.2,1.2-1.6c0.5-0.4,1.2-0.5,1.9-0.5c1,0,1.8,0.4,2.4,1.2v-1h1.3v7.2c0,1.3-0.1,2.2-0.4,2.7c-0.3,0.5-0.7,1-1.2,1.3
		s-1.3,0.5-2.1,0.5c-1,0-1.8-0.2-2.4-0.7S369.3,294.3,369.3,293.4z M370.5,288.4c0,1.1,0.2,1.9,0.6,2.4c0.4,0.5,1,0.8,1.6,0.8
		c0.6,0,1.2-0.2,1.6-0.7s0.7-1.3,0.7-2.3c0-1-0.2-1.8-0.7-2.3c-0.5-0.5-1-0.8-1.6-0.8c-0.6,0-1.2,0.3-1.6,0.8
		S370.5,287.4,370.5,288.4z"/>
	<path d="M384.2,290l1.5,0.2c-0.2,0.8-0.7,1.5-1.3,2c-0.6,0.5-1.4,0.7-2.4,0.7c-1.2,0-2.2-0.4-2.9-1.1s-1.1-1.8-1.1-3.1
		c0-1.4,0.4-2.5,1.1-3.2s1.7-1.2,2.8-1.2c1.1,0,2,0.4,2.7,1.1s1.1,1.8,1.1,3.2c0,0.1,0,0.2,0,0.4h-6.2c0.1,0.9,0.3,1.6,0.8,2.1
		c0.5,0.5,1,0.7,1.7,0.7c0.5,0,1-0.1,1.3-0.4C383.7,291.1,383.9,290.6,384.2,290z M379.5,287.8h4.6c-0.1-0.7-0.2-1.2-0.5-1.6
		c-0.4-0.5-1-0.8-1.7-0.8c-0.6,0-1.2,0.2-1.6,0.6C379.8,286.5,379.6,287,379.5,287.8z"/>
	<path d="M394.9,291.5l0.2,1.2c-0.4,0.1-0.8,0.1-1.1,0.1c-0.5,0-0.9-0.1-1.2-0.2s-0.5-0.4-0.6-0.6c-0.1-0.3-0.2-0.8-0.2-1.7v-4.8h-1
		v-1.1h1v-2.1l1.4-0.8v2.9h1.4v1.1h-1.4v4.9c0,0.4,0,0.7,0.1,0.8c0,0.1,0.1,0.2,0.2,0.3c0.1,0.1,0.3,0.1,0.5,0.1
		C394.4,291.5,394.6,291.5,394.9,291.5z"/>
	<path d="M396.3,292.7v-11.5h1.4v4.1c0.7-0.8,1.5-1.1,2.5-1.1c0.6,0,1.1,0.1,1.6,0.4s0.8,0.6,1,1s0.3,1,0.3,1.9v5.3h-1.4v-5.3
		c0-0.7-0.2-1.2-0.5-1.5s-0.7-0.5-1.3-0.5c-0.4,0-0.8,0.1-1.2,0.3s-0.6,0.5-0.8,0.9s-0.2,0.9-0.2,1.5v4.5H396.3z"/>
	<path d="M410.8,290l1.5,0.2c-0.2,0.8-0.7,1.5-1.3,2c-0.6,0.5-1.4,0.7-2.4,0.7c-1.2,0-2.2-0.4-2.9-1.1s-1.1-1.8-1.1-3.1
		c0-1.4,0.4-2.5,1.1-3.2s1.7-1.2,2.8-1.2c1.1,0,2,0.4,2.7,1.1s1.1,1.8,1.1,3.2c0,0.1,0,0.2,0,0.4h-6.2c0.1,0.9,0.3,1.6,0.8,2.1
		c0.5,0.5,1,0.7,1.7,0.7c0.5,0,1-0.1,1.3-0.4C410.3,291.1,410.6,290.6,410.8,290z M406.2,287.8h4.6c-0.1-0.7-0.2-1.2-0.5-1.6
		c-0.4-0.5-1-0.8-1.7-0.8c-0.6,0-1.2,0.2-1.6,0.6C406.5,286.5,406.3,287,406.2,287.8z"/>
	<path d="M423.9,289.7l1.4,0.2c-0.2,1-0.5,1.7-1.2,2.2c-0.6,0.5-1.4,0.8-2.3,0.8c-1.1,0-2-0.4-2.7-1.1c-0.7-0.7-1-1.8-1-3.2
		c0-0.9,0.1-1.7,0.4-2.4s0.7-1.2,1.4-1.5c0.6-0.3,1.3-0.5,2-0.5c0.9,0,1.6,0.2,2.2,0.7c0.6,0.5,0.9,1.1,1.1,1.9l-1.4,0.2
		c-0.1-0.6-0.4-1-0.7-1.3c-0.3-0.3-0.7-0.4-1.2-0.4c-0.7,0-1.3,0.3-1.7,0.8c-0.4,0.5-0.7,1.3-0.7,2.4c0,1.1,0.2,1.9,0.6,2.4
		c0.4,0.5,1,0.8,1.7,0.8c0.6,0,1-0.2,1.4-0.5C423.6,290.9,423.8,290.4,423.9,289.7z"/>
	<path d="M426,288.6c0-1.5,0.4-2.7,1.3-3.4c0.7-0.6,1.6-0.9,2.6-0.9c1.1,0,2.1,0.4,2.8,1.1c0.7,0.7,1.1,1.8,1.1,3.1
		c0,1.1-0.2,1.9-0.5,2.5s-0.8,1.1-1.4,1.4c-0.6,0.3-1.3,0.5-2,0.5c-1.2,0-2.1-0.4-2.8-1.1C426.3,291,426,290,426,288.6z
		 M427.4,288.6c0,1.1,0.2,1.9,0.7,2.4c0.5,0.5,1,0.8,1.8,0.8c0.7,0,1.3-0.3,1.7-0.8c0.5-0.5,0.7-1.3,0.7-2.4c0-1-0.2-1.8-0.7-2.3
		c-0.5-0.5-1-0.8-1.7-0.8c-0.7,0-1.3,0.3-1.8,0.8C427.7,286.7,427.4,287.5,427.4,288.6z"/>
	<path d="M435.4,292.7v-8.3h1.3v1.2c0.6-0.9,1.5-1.4,2.6-1.4c0.5,0,1,0.1,1.4,0.3c0.4,0.2,0.7,0.4,0.9,0.7c0.2,0.3,0.4,0.6,0.4,1
		c0.1,0.3,0.1,0.7,0.1,1.4v5.1h-1.4v-5c0-0.6-0.1-1-0.2-1.3s-0.3-0.5-0.6-0.7c-0.3-0.2-0.6-0.3-1-0.3c-0.6,0-1.1,0.2-1.6,0.6
		c-0.4,0.4-0.7,1.1-0.7,2.2v4.5H435.4z"/>
	<path d="M447.4,291.5l0.2,1.2c-0.4,0.1-0.8,0.1-1.1,0.1c-0.5,0-0.9-0.1-1.2-0.2s-0.5-0.4-0.6-0.6c-0.1-0.3-0.2-0.8-0.2-1.7v-4.8h-1
		v-1.1h1v-2.1l1.4-0.8v2.9h1.4v1.1H446v4.9c0,0.4,0,0.7,0.1,0.8c0,0.1,0.1,0.2,0.2,0.3c0.1,0.1,0.3,0.1,0.5,0.1
		C446.9,291.5,447.1,291.5,447.4,291.5z"/>
	<path d="M454.4,290l1.5,0.2c-0.2,0.8-0.7,1.5-1.3,2c-0.6,0.5-1.4,0.7-2.4,0.7c-1.2,0-2.2-0.4-2.9-1.1s-1.1-1.8-1.1-3.1
		c0-1.4,0.4-2.5,1.1-3.2s1.7-1.2,2.8-1.2c1.1,0,2,0.4,2.7,1.1s1.1,1.8,1.1,3.2c0,0.1,0,0.2,0,0.4h-6.2c0.1,0.9,0.3,1.6,0.8,2.1
		c0.5,0.5,1,0.7,1.7,0.7c0.5,0,1-0.1,1.3-0.4C453.9,291.1,454.2,290.6,454.4,290z M449.8,287.8h4.6c-0.1-0.7-0.2-1.2-0.5-1.6
		c-0.4-0.5-1-0.8-1.7-0.8c-0.6,0-1.2,0.2-1.6,0.6C450.1,286.5,449.9,287,449.8,287.8z"/>
	<path d="M457.6,292.7v-8.3h1.3v1.2c0.6-0.9,1.5-1.4,2.6-1.4c0.5,0,1,0.1,1.4,0.3c0.4,0.2,0.7,0.4,0.9,0.7c0.2,0.3,0.4,0.6,0.4,1
		c0.1,0.3,0.1,0.7,0.1,1.4v5.1H463v-5c0-0.6-0.1-1-0.2-1.3s-0.3-0.5-0.6-0.7c-0.3-0.2-0.6-0.3-1-0.3c-0.6,0-1.1,0.2-1.6,0.6
		c-0.4,0.4-0.7,1.1-0.7,2.2v4.5H457.6z"/>
	<path d="M469.6,291.5l0.2,1.2c-0.4,0.1-0.8,0.1-1.1,0.1c-0.5,0-0.9-0.1-1.2-0.2s-0.5-0.4-0.6-0.6c-0.1-0.3-0.2-0.8-0.2-1.7v-4.8h-1
		v-1.1h1v-2.1l1.4-0.8v2.9h1.4v1.1h-1.4v4.9c0,0.4,0,0.7,0.1,0.8c0,0.1,0.1,0.2,0.2,0.3c0.1,0.1,0.3,0.1,0.5,0.1
		C469.2,291.5,469.4,291.5,469.6,291.5z"/>
</g>
<g>
	<path d="M497,190.6V189h1.6v1.6H497z"/>
	<path d="M501.4,190.6V189h1.6v1.6H501.4z"/>
	<path d="M505.9,190.6V189h1.6v1.6H505.9z"/>
	<path d="M515.4,189.6c-0.5,0.4-1,0.8-1.5,0.9c-0.5,0.2-1,0.3-1.6,0.3c-0.9,0-1.6-0.2-2.1-0.7c-0.5-0.4-0.7-1-0.7-1.7
		c0-0.4,0.1-0.8,0.3-1.1c0.2-0.3,0.4-0.6,0.7-0.8c0.3-0.2,0.6-0.4,1-0.5c0.3-0.1,0.7-0.1,1.2-0.2c1.1-0.1,2-0.3,2.5-0.5
		c0-0.2,0-0.3,0-0.4c0-0.6-0.1-1-0.4-1.2c-0.4-0.3-0.9-0.5-1.6-0.5c-0.7,0-1.2,0.1-1.5,0.3c-0.3,0.2-0.5,0.6-0.7,1.2l-1.4-0.2
		c0.1-0.6,0.3-1.1,0.6-1.4c0.3-0.4,0.7-0.6,1.2-0.8c0.5-0.2,1.2-0.3,1.9-0.3c0.7,0,1.3,0.1,1.7,0.2c0.4,0.2,0.8,0.4,1,0.6
		c0.2,0.3,0.4,0.6,0.4,1c0,0.2,0.1,0.7,0.1,1.3v1.9c0,1.3,0,2.1,0.1,2.5c0.1,0.3,0.2,0.7,0.4,1h-1.5
		C515.5,190.3,515.4,190,515.4,189.6z M515.2,186.4c-0.5,0.2-1.3,0.4-2.3,0.5c-0.6,0.1-1,0.2-1.2,0.3c-0.2,0.1-0.4,0.3-0.6,0.5
		c-0.1,0.2-0.2,0.4-0.2,0.7c0,0.4,0.1,0.7,0.4,0.9c0.3,0.2,0.7,0.4,1.2,0.4c0.5,0,1-0.1,1.4-0.4s0.7-0.6,0.9-1
		c0.2-0.3,0.2-0.8,0.2-1.4V186.4z"/>
	<path d="M518.8,190.6v-8.3h1.3v1.2c0.6-0.9,1.5-1.4,2.6-1.4c0.5,0,1,0.1,1.4,0.3c0.4,0.2,0.7,0.4,0.9,0.7c0.2,0.3,0.4,0.6,0.4,1
		c0.1,0.3,0.1,0.7,0.1,1.4v5.1h-1.4v-5c0-0.6-0.1-1-0.2-1.3s-0.3-0.5-0.6-0.7c-0.3-0.2-0.6-0.3-1-0.3c-0.6,0-1.1,0.2-1.6,0.6
		c-0.4,0.4-0.7,1.1-0.7,2.2v4.5H518.8z"/>
	<path d="M533.1,190.6v-1c-0.5,0.8-1.3,1.2-2.3,1.2c-0.7,0-1.3-0.2-1.8-0.5s-1-0.9-1.3-1.5s-0.5-1.4-0.5-2.3c0-0.8,0.1-1.6,0.4-2.3
		c0.3-0.7,0.7-1.2,1.2-1.6c0.6-0.4,1.2-0.5,1.9-0.5c0.5,0,0.9,0.1,1.3,0.3s0.7,0.5,1,0.8v-4.1h1.4v11.5H533.1z M528.7,186.5
		c0,1.1,0.2,1.9,0.7,2.4c0.4,0.5,1,0.8,1.6,0.8c0.6,0,1.1-0.3,1.6-0.8s0.6-1.3,0.6-2.3c0-1.1-0.2-2-0.7-2.5s-1-0.8-1.6-0.8
		c-0.6,0-1.1,0.3-1.6,0.8C528.9,184.6,528.7,185.4,528.7,186.5z"/>
	<path d="M541,193.8l-0.2-1.3c0.3,0.1,0.6,0.1,0.8,0.1c0.3,0,0.6-0.1,0.8-0.2s0.3-0.2,0.5-0.4c0.1-0.1,0.2-0.5,0.4-1
		c0-0.1,0.1-0.2,0.1-0.3l-3.1-8.3h1.5l1.7,4.8c0.2,0.6,0.4,1.2,0.6,1.9c0.2-0.6,0.4-1.3,0.6-1.9l1.8-4.8h1.4l-3.2,8.4
		c-0.3,0.9-0.6,1.5-0.8,1.9c-0.2,0.5-0.5,0.8-0.9,1c-0.3,0.2-0.7,0.3-1.2,0.3C541.7,194,541.4,193.9,541,193.8z"/>
	<path d="M548.6,186.5c0-1.5,0.4-2.7,1.3-3.4c0.7-0.6,1.6-0.9,2.6-0.9c1.1,0,2.1,0.4,2.8,1.1c0.7,0.7,1.1,1.8,1.1,3.1
		c0,1.1-0.2,1.9-0.5,2.5s-0.8,1.1-1.4,1.4c-0.6,0.3-1.3,0.5-2,0.5c-1.2,0-2.1-0.4-2.8-1.1C548.9,188.9,548.6,187.9,548.6,186.5z
		 M550,186.5c0,1.1,0.2,1.9,0.7,2.4c0.5,0.5,1,0.8,1.8,0.8c0.7,0,1.3-0.3,1.7-0.8c0.5-0.5,0.7-1.3,0.7-2.4c0-1-0.2-1.8-0.7-2.3
		c-0.5-0.5-1-0.8-1.7-0.8c-0.7,0-1.3,0.3-1.8,0.8C550.2,184.6,550,185.4,550,186.5z"/>
	<path d="M563.4,190.6v-1.2c-0.6,0.9-1.5,1.4-2.6,1.4c-0.5,0-0.9-0.1-1.4-0.3c-0.4-0.2-0.7-0.4-0.9-0.7c-0.2-0.3-0.4-0.6-0.4-1
		c-0.1-0.3-0.1-0.7-0.1-1.3v-5.1h1.4v4.6c0,0.7,0,1.2,0.1,1.5c0.1,0.4,0.3,0.7,0.6,0.9c0.3,0.2,0.6,0.3,1.1,0.3s0.8-0.1,1.2-0.3
		c0.4-0.2,0.6-0.5,0.8-0.9c0.2-0.4,0.2-0.9,0.2-1.6v-4.4h1.4v8.3H563.4z"/>
	<path d="M566.9,190.6v-8.3h1.3v1.3c0.3-0.6,0.6-1,0.9-1.2s0.6-0.3,0.9-0.3c0.5,0,1,0.2,1.4,0.5l-0.5,1.3c-0.3-0.2-0.7-0.3-1-0.3
		c-0.3,0-0.6,0.1-0.8,0.3c-0.2,0.2-0.4,0.4-0.5,0.8c-0.2,0.5-0.2,1-0.2,1.6v4.3H566.9z"/>
	<path d="M576.1,186.5c0-1.5,0.4-2.7,1.3-3.4c0.7-0.6,1.6-0.9,2.6-0.9c1.1,0,2.1,0.4,2.8,1.1c0.7,0.7,1.1,1.8,1.1,3.1
		c0,1.1-0.2,1.9-0.5,2.5s-0.8,1.1-1.4,1.4c-0.6,0.3-1.3,0.5-2,0.5c-1.2,0-2.1-0.4-2.8-1.1C576.5,188.9,576.1,187.9,576.1,186.5z
		 M577.6,186.5c0,1.1,0.2,1.9,0.7,2.4c0.5,0.5,1,0.8,1.8,0.8c0.7,0,1.3-0.3,1.7-0.8c0.5-0.5,0.7-1.3,0.7-2.4c0-1-0.2-1.8-0.7-2.3
		c-0.5-0.5-1-0.8-1.7-0.8c-0.7,0-1.3,0.3-1.8,0.8C577.8,184.6,577.6,185.4,577.6,186.5z"/>
	<path d="M591,190.6v-1.2c-0.6,0.9-1.5,1.4-2.6,1.4c-0.5,0-0.9-0.1-1.4-0.3c-0.4-0.2-0.7-0.4-0.9-0.7c-0.2-0.3-0.4-0.6-0.4-1
		c-0.1-0.3-0.1-0.7-0.1-1.3v-5.1h1.4v4.6c0,0.7,0,1.2,0.1,1.5c0.1,0.4,0.3,0.7,0.6,0.9c0.3,0.2,0.6,0.3,1.1,0.3s0.8-0.1,1.2-0.3
		c0.4-0.2,0.6-0.5,0.8-0.9c0.2-0.4,0.2-0.9,0.2-1.6v-4.4h1.4v8.3H591z"/>
	<path d="M597.5,189.4l0.2,1.2c-0.4,0.1-0.8,0.1-1.1,0.1c-0.5,0-0.9-0.1-1.2-0.2s-0.5-0.4-0.6-0.6c-0.1-0.3-0.2-0.8-0.2-1.7v-4.8h-1
		v-1.1h1v-2.1l1.4-0.8v2.9h1.4v1.1h-1.4v4.9c0,0.4,0,0.7,0.1,0.8c0,0.1,0.1,0.2,0.2,0.3c0.1,0.1,0.3,0.1,0.5,0.1
		C597.1,189.4,597.3,189.4,597.5,189.4z"/>
	<path d="M598.9,193.8v-11.5h1.3v1.1c0.3-0.4,0.6-0.7,1-0.9c0.4-0.2,0.8-0.3,1.4-0.3c0.7,0,1.3,0.2,1.9,0.5c0.5,0.4,1,0.9,1.2,1.5
		c0.3,0.7,0.4,1.4,0.4,2.2c0,0.8-0.2,1.6-0.5,2.3s-0.7,1.2-1.3,1.6c-0.6,0.4-1.2,0.5-1.8,0.5c-0.5,0-0.9-0.1-1.3-0.3
		c-0.4-0.2-0.7-0.4-0.9-0.8v4H598.9z M600.2,186.5c0,1.1,0.2,1.9,0.6,2.4c0.4,0.5,1,0.8,1.6,0.8c0.6,0,1.2-0.3,1.6-0.8
		s0.7-1.3,0.7-2.5c0-1.1-0.2-1.8-0.7-2.4c-0.4-0.5-1-0.8-1.6-0.8c-0.6,0-1.1,0.3-1.6,0.8S600.2,185.4,600.2,186.5z"/>
	<path d="M613.2,190.6v-1.2c-0.6,0.9-1.5,1.4-2.6,1.4c-0.5,0-0.9-0.1-1.4-0.3c-0.4-0.2-0.7-0.4-0.9-0.7c-0.2-0.3-0.4-0.6-0.4-1
		c-0.1-0.3-0.1-0.7-0.1-1.3v-5.1h1.4v4.6c0,0.7,0,1.2,0.1,1.5c0.1,0.4,0.3,0.7,0.6,0.9c0.3,0.2,0.6,0.3,1.1,0.3s0.8-0.1,1.2-0.3
		c0.4-0.2,0.6-0.5,0.8-0.9c0.2-0.4,0.2-0.9,0.2-1.6v-4.4h1.4v8.3H613.2z"/>
	<path d="M619.8,189.4l0.2,1.2c-0.4,0.1-0.8,0.1-1.1,0.1c-0.5,0-0.9-0.1-1.2-0.2s-0.5-0.4-0.6-0.6c-0.1-0.3-0.2-0.8-0.2-1.7v-4.8h-1
		v-1.1h1v-2.1l1.4-0.8v2.9h1.4v1.1h-1.4v4.9c0,0.4,0,0.7,0.1,0.8c0,0.1,0.1,0.2,0.2,0.3c0.1,0.1,0.3,0.1,0.5,0.1
		C619.3,189.4,619.5,189.4,619.8,189.4z"/>
	<path d="M631,187.6l1.4,0.2c-0.2,1-0.5,1.7-1.2,2.2c-0.6,0.5-1.4,0.8-2.3,0.8c-1.1,0-2-0.4-2.7-1.1c-0.7-0.7-1-1.8-1-3.2
		c0-0.9,0.1-1.7,0.4-2.4s0.7-1.2,1.4-1.5c0.6-0.3,1.3-0.5,2-0.5c0.9,0,1.6,0.2,2.2,0.7c0.6,0.5,0.9,1.1,1.1,1.9l-1.4,0.2
		c-0.1-0.6-0.4-1-0.7-1.3c-0.3-0.3-0.7-0.4-1.2-0.4c-0.7,0-1.3,0.3-1.7,0.8c-0.4,0.5-0.7,1.3-0.7,2.4c0,1.1,0.2,1.9,0.6,2.4
		c0.4,0.5,1,0.8,1.7,0.8c0.6,0,1-0.2,1.4-0.5C630.7,188.8,630.9,188.3,631,187.6z"/>
	<path d="M639,189.6c-0.5,0.4-1,0.8-1.5,0.9c-0.5,0.2-1,0.3-1.6,0.3c-0.9,0-1.6-0.2-2.1-0.7c-0.5-0.4-0.7-1-0.7-1.7
		c0-0.4,0.1-0.8,0.3-1.1c0.2-0.3,0.4-0.6,0.7-0.8c0.3-0.2,0.6-0.4,1-0.5c0.3-0.1,0.7-0.1,1.2-0.2c1.1-0.1,2-0.3,2.5-0.5
		c0-0.2,0-0.3,0-0.4c0-0.6-0.1-1-0.4-1.2c-0.4-0.3-0.9-0.5-1.6-0.5c-0.7,0-1.2,0.1-1.5,0.3c-0.3,0.2-0.5,0.6-0.7,1.2l-1.4-0.2
		c0.1-0.6,0.3-1.1,0.6-1.4c0.3-0.4,0.7-0.6,1.2-0.8c0.5-0.2,1.2-0.3,1.9-0.3c0.7,0,1.3,0.1,1.7,0.2c0.4,0.2,0.8,0.4,1,0.6
		c0.2,0.3,0.4,0.6,0.4,1c0,0.2,0.1,0.7,0.1,1.3v1.9c0,1.3,0,2.1,0.1,2.5c0.1,0.3,0.2,0.7,0.4,1h-1.5C639.1,190.3,639,190,639,189.6z
		 M638.9,186.4c-0.5,0.2-1.3,0.4-2.3,0.5c-0.6,0.1-1,0.2-1.2,0.3c-0.2,0.1-0.4,0.3-0.6,0.5c-0.1,0.2-0.2,0.4-0.2,0.7
		c0,0.4,0.1,0.7,0.4,0.9c0.3,0.2,0.7,0.4,1.2,0.4c0.5,0,1-0.1,1.4-0.4s0.7-0.6,0.9-1c0.2-0.3,0.2-0.8,0.2-1.4V186.4z"/>
	<path d="M642.5,190.6v-8.3h1.3v1.2c0.6-0.9,1.5-1.4,2.6-1.4c0.5,0,1,0.1,1.4,0.3c0.4,0.2,0.7,0.4,0.9,0.7c0.2,0.3,0.4,0.6,0.4,1
		c0.1,0.3,0.1,0.7,0.1,1.4v5.1h-1.4v-5c0-0.6-0.1-1-0.2-1.3s-0.3-0.5-0.6-0.7c-0.3-0.2-0.6-0.3-1-0.3c-0.6,0-1.1,0.2-1.6,0.6
		c-0.4,0.4-0.7,1.1-0.7,2.2v4.5H642.5z"/>
	<path d="M497.9,209.8h-1.3v-11.5h1.4v4.1c0.6-0.7,1.4-1.1,2.3-1.1c0.5,0,1,0.1,1.4,0.3c0.5,0.2,0.8,0.5,1.1,0.9
		c0.3,0.4,0.5,0.8,0.7,1.3c0.2,0.5,0.2,1.1,0.2,1.7c0,1.4-0.4,2.5-1.1,3.3s-1.5,1.2-2.5,1.2c-1,0-1.7-0.4-2.3-1.2V209.8z
		 M497.9,205.6c0,1,0.1,1.7,0.4,2.2c0.4,0.7,1,1.1,1.8,1.1c0.6,0,1.1-0.3,1.6-0.8c0.4-0.5,0.7-1.3,0.7-2.4c0-1.1-0.2-1.9-0.6-2.4
		s-0.9-0.8-1.6-0.8c-0.6,0-1.1,0.3-1.6,0.8C498.1,203.8,497.9,204.6,497.9,205.6z"/>
	<path d="M511.2,207.1l1.5,0.2c-0.2,0.8-0.7,1.5-1.3,2c-0.6,0.5-1.4,0.7-2.4,0.7c-1.2,0-2.2-0.4-2.9-1.1s-1.1-1.8-1.1-3.1
		c0-1.4,0.4-2.5,1.1-3.2s1.7-1.2,2.8-1.2c1.1,0,2,0.4,2.7,1.1s1.1,1.8,1.1,3.2c0,0.1,0,0.2,0,0.4h-6.2c0.1,0.9,0.3,1.6,0.8,2.1
		c0.5,0.5,1,0.7,1.7,0.7c0.5,0,1-0.1,1.3-0.4C510.7,208.2,511,207.7,511.2,207.1z M506.6,204.9h4.6c-0.1-0.7-0.2-1.2-0.5-1.6
		c-0.4-0.5-1-0.8-1.7-0.8c-0.6,0-1.2,0.2-1.6,0.6C506.9,203.6,506.6,204.1,506.6,204.9z"/>
	<path d="M514.4,209.8v-8.3h1.3v1.2c0.6-0.9,1.5-1.4,2.6-1.4c0.5,0,1,0.1,1.4,0.3c0.4,0.2,0.7,0.4,0.9,0.7c0.2,0.3,0.4,0.6,0.4,1
		c0.1,0.3,0.1,0.7,0.1,1.4v5.1h-1.4v-5c0-0.6-0.1-1-0.2-1.3s-0.3-0.5-0.6-0.7c-0.3-0.2-0.6-0.3-1-0.3c-0.6,0-1.1,0.2-1.6,0.6
		c-0.4,0.4-0.7,1.1-0.7,2.2v4.5H514.4z"/>
	<path d="M529,207.1l1.5,0.2c-0.2,0.8-0.7,1.5-1.3,2c-0.6,0.5-1.4,0.7-2.4,0.7c-1.2,0-2.2-0.4-2.9-1.1s-1.1-1.8-1.1-3.1
		c0-1.4,0.4-2.5,1.1-3.2s1.7-1.2,2.8-1.2c1.1,0,2,0.4,2.7,1.1s1.1,1.8,1.1,3.2c0,0.1,0,0.2,0,0.4h-6.2c0.1,0.9,0.3,1.6,0.8,2.1
		c0.5,0.5,1,0.7,1.7,0.7c0.5,0,1-0.1,1.3-0.4C528.5,208.2,528.8,207.7,529,207.1z M524.4,204.9h4.6c-0.1-0.7-0.2-1.2-0.5-1.6
		c-0.4-0.5-1-0.8-1.7-0.8c-0.6,0-1.2,0.2-1.6,0.6C524.7,203.6,524.4,204.1,524.4,204.9z"/>
	<path d="M532.5,209.8v-7.2h-1.2v-1.1h1.2v-0.9c0-0.6,0-1,0.1-1.2c0.1-0.4,0.4-0.7,0.7-0.9c0.3-0.2,0.8-0.3,1.4-0.3
		c0.4,0,0.8,0,1.3,0.1l-0.2,1.2c-0.3-0.1-0.6-0.1-0.8-0.1c-0.4,0-0.7,0.1-0.9,0.3c-0.2,0.2-0.3,0.5-0.3,1v0.8h1.6v1.1h-1.6v7.2
		H532.5z"/>
	<path d="M536.7,200v-1.6h1.4v1.6H536.7z M536.7,209.8v-8.3h1.4v8.3H536.7z"/>
	<path d="M543.3,208.6l0.2,1.2c-0.4,0.1-0.8,0.1-1.1,0.1c-0.5,0-0.9-0.1-1.2-0.2s-0.5-0.4-0.6-0.6c-0.1-0.3-0.2-0.8-0.2-1.7v-4.8h-1
		v-1.1h1v-2.1l1.4-0.8v2.9h1.4v1.1h-1.4v4.9c0,0.4,0,0.7,0.1,0.8c0,0.1,0.1,0.2,0.2,0.3c0.1,0.1,0.3,0.1,0.5,0.1
		C542.8,208.6,543,208.6,543.3,208.6z"/>
	<path d="M549.4,209.8v-7.2h-1.2v-1.1h1.2v-0.9c0-0.6,0-1,0.1-1.2c0.1-0.4,0.4-0.7,0.7-0.9c0.3-0.2,0.8-0.3,1.4-0.3
		c0.4,0,0.8,0,1.3,0.1l-0.2,1.2c-0.3-0.1-0.6-0.1-0.8-0.1c-0.4,0-0.7,0.1-0.9,0.3c-0.2,0.2-0.3,0.5-0.3,1v0.8h1.6v1.1h-1.6v7.2
		H549.4z"/>
	<path d="M553.5,209.8v-8.3h1.3v1.3c0.3-0.6,0.6-1,0.9-1.2s0.6-0.3,0.9-0.3c0.5,0,1,0.2,1.4,0.5l-0.5,1.3c-0.3-0.2-0.7-0.3-1-0.3
		c-0.3,0-0.6,0.1-0.8,0.3c-0.2,0.2-0.4,0.4-0.5,0.8c-0.2,0.5-0.2,1-0.2,1.6v4.3H553.5z"/>
	<path d="M558.3,205.7c0-1.5,0.4-2.7,1.3-3.4c0.7-0.6,1.6-0.9,2.6-0.9c1.1,0,2.1,0.4,2.8,1.1c0.7,0.7,1.1,1.8,1.1,3.1
		c0,1.1-0.2,1.9-0.5,2.5s-0.8,1.1-1.4,1.4c-0.6,0.3-1.3,0.5-2,0.5c-1.2,0-2.1-0.4-2.8-1.1C558.7,208.1,558.3,207.1,558.3,205.7z
		 M559.8,205.7c0,1.1,0.2,1.9,0.7,2.4c0.5,0.5,1,0.8,1.8,0.8c0.7,0,1.3-0.3,1.7-0.8c0.5-0.5,0.7-1.3,0.7-2.4c0-1-0.2-1.8-0.7-2.3
		c-0.5-0.5-1-0.8-1.7-0.8c-0.7,0-1.3,0.3-1.8,0.8C560,203.8,559.8,204.6,559.8,205.7z"/>
	<path d="M567.8,209.8v-8.3h1.3v1.2c0.3-0.4,0.6-0.7,1-1c0.4-0.2,0.9-0.4,1.5-0.4c0.6,0,1.1,0.1,1.5,0.4c0.4,0.3,0.7,0.6,0.8,1.1
		c0.7-1,1.5-1.5,2.6-1.5c0.8,0,1.5,0.2,1.9,0.7c0.4,0.5,0.7,1.2,0.7,2.1v5.7h-1.4v-5.2c0-0.6,0-1-0.1-1.2c-0.1-0.2-0.3-0.4-0.5-0.6
		c-0.2-0.2-0.5-0.2-0.8-0.2c-0.6,0-1.1,0.2-1.5,0.6c-0.4,0.4-0.6,1-0.6,1.9v4.8h-1.4v-5.4c0-0.6-0.1-1.1-0.3-1.4
		c-0.2-0.3-0.6-0.5-1.1-0.5c-0.4,0-0.8,0.1-1.1,0.3s-0.6,0.5-0.7,0.9c-0.2,0.4-0.2,1-0.2,1.7v4.3H567.8z"/>
	<path d="M585.5,209.8v-8.3h1.3v1.3c0.3-0.6,0.6-1,0.9-1.2s0.6-0.3,0.9-0.3c0.5,0,1,0.2,1.4,0.5l-0.5,1.3c-0.3-0.2-0.7-0.3-1-0.3
		c-0.3,0-0.6,0.1-0.8,0.3c-0.2,0.2-0.4,0.4-0.5,0.8c-0.2,0.5-0.2,1-0.2,1.6v4.3H585.5z"/>
	<path d="M596.5,207.1l1.5,0.2c-0.2,0.8-0.7,1.5-1.3,2c-0.6,0.5-1.4,0.7-2.4,0.7c-1.2,0-2.2-0.4-2.9-1.1s-1.1-1.8-1.1-3.1
		c0-1.4,0.4-2.5,1.1-3.2s1.7-1.2,2.8-1.2c1.1,0,2,0.4,2.7,1.1s1.1,1.8,1.1,3.2c0,0.1,0,0.2,0,0.4h-6.2c0.1,0.9,0.3,1.6,0.8,2.1
		c0.5,0.5,1,0.7,1.7,0.7c0.5,0,1-0.1,1.3-0.4C596,208.2,596.3,207.7,596.5,207.1z M591.9,204.9h4.6c-0.1-0.7-0.2-1.2-0.5-1.6
		c-0.4-0.5-1-0.8-1.7-0.8c-0.6,0-1.2,0.2-1.6,0.6C592.2,203.6,592,204.1,591.9,204.9z"/>
	<path d="M599.2,206.4V205h4.3v1.4H599.2z"/>
	<path d="M610.5,209.8v-1.2c-0.6,0.9-1.5,1.4-2.6,1.4c-0.5,0-0.9-0.1-1.4-0.3c-0.4-0.2-0.7-0.4-0.9-0.7c-0.2-0.3-0.4-0.6-0.4-1
		c-0.1-0.3-0.1-0.7-0.1-1.3v-5.1h1.4v4.6c0,0.7,0,1.2,0.1,1.5c0.1,0.4,0.3,0.7,0.6,0.9c0.3,0.2,0.6,0.3,1.1,0.3s0.8-0.1,1.2-0.3
		c0.4-0.2,0.6-0.5,0.8-0.9c0.2-0.4,0.2-0.9,0.2-1.6v-4.4h1.4v8.3H610.5z"/>
	<path d="M613.4,207.3l1.4-0.2c0.1,0.6,0.3,1,0.7,1.3c0.4,0.3,0.9,0.4,1.5,0.4c0.6,0,1.1-0.1,1.4-0.4s0.5-0.6,0.5-0.9
		c0-0.3-0.1-0.6-0.4-0.8c-0.2-0.1-0.7-0.3-1.4-0.5c-1-0.3-1.7-0.5-2.1-0.7s-0.7-0.5-0.9-0.8c-0.2-0.3-0.3-0.7-0.3-1.1
		c0-0.4,0.1-0.7,0.3-1c0.2-0.3,0.4-0.6,0.7-0.8c0.2-0.2,0.5-0.3,0.9-0.4c0.4-0.1,0.8-0.2,1.2-0.2c0.7,0,1.2,0.1,1.7,0.3
		s0.9,0.4,1.1,0.8s0.4,0.7,0.5,1.3l-1.4,0.2c-0.1-0.4-0.2-0.8-0.5-1c-0.3-0.2-0.7-0.4-1.3-0.4c-0.6,0-1.1,0.1-1.4,0.3
		c-0.3,0.2-0.4,0.5-0.4,0.8c0,0.2,0.1,0.3,0.2,0.5c0.1,0.2,0.3,0.3,0.5,0.4c0.1,0.1,0.6,0.2,1.2,0.4c1,0.3,1.7,0.5,2.1,0.7
		c0.4,0.2,0.7,0.4,0.9,0.7c0.2,0.3,0.3,0.7,0.3,1.2c0,0.5-0.1,0.9-0.4,1.3s-0.7,0.7-1.2,1s-1.1,0.3-1.8,0.3c-1.1,0-1.9-0.2-2.5-0.7
		C613.9,208.9,613.6,208.2,613.4,207.3z"/>
	<path d="M627.7,207.1l1.5,0.2c-0.2,0.8-0.7,1.5-1.3,2c-0.6,0.5-1.4,0.7-2.4,0.7c-1.2,0-2.2-0.4-2.9-1.1s-1.1-1.8-1.1-3.1
		c0-1.4,0.4-2.5,1.1-3.2s1.7-1.2,2.8-1.2c1.1,0,2,0.4,2.7,1.1s1.1,1.8,1.1,3.2c0,0.1,0,0.2,0,0.4H623c0.1,0.9,0.3,1.6,0.8,2.1
		c0.5,0.5,1,0.7,1.7,0.7c0.5,0,1-0.1,1.3-0.4C627.2,208.2,627.5,207.7,627.7,207.1z M623,204.9h4.6c-0.1-0.7-0.2-1.2-0.5-1.6
		c-0.4-0.5-1-0.8-1.7-0.8c-0.6,0-1.2,0.2-1.6,0.6C623.3,203.6,623.1,204.1,623,204.9z"/>
	<path d="M631.3,209.8v-1.6h1.6v1.6c0,0.6-0.1,1.1-0.3,1.4c-0.2,0.4-0.5,0.6-1,0.8l-0.4-0.6c0.3-0.1,0.5-0.3,0.7-0.6
		s0.2-0.6,0.2-1.1H631.3z"/>
	<path d="M502,229v-1c-0.5,0.8-1.3,1.2-2.3,1.2c-0.7,0-1.3-0.2-1.8-0.5s-1-0.9-1.3-1.5s-0.5-1.4-0.5-2.3c0-0.8,0.1-1.6,0.4-2.3
		c0.3-0.7,0.7-1.2,1.2-1.6c0.6-0.4,1.2-0.5,1.9-0.5c0.5,0,0.9,0.1,1.3,0.3s0.7,0.5,1,0.8v-4.1h1.4V229H502z M497.5,224.9
		c0,1.1,0.2,1.9,0.7,2.4c0.4,0.5,1,0.8,1.6,0.8c0.6,0,1.1-0.3,1.6-0.8s0.6-1.3,0.6-2.3c0-1.1-0.2-2-0.7-2.5s-1-0.8-1.6-0.8
		c-0.6,0-1.1,0.3-1.6,0.8C497.8,223,497.5,223.8,497.5,224.9z"/>
	<path d="M505.5,219.2v-1.6h1.4v1.6H505.5z M505.5,229v-8.3h1.4v8.3H505.5z"/>
	<path d="M508.5,226.5l1.4-0.2c0.1,0.6,0.3,1,0.7,1.3c0.4,0.3,0.9,0.4,1.5,0.4c0.6,0,1.1-0.1,1.4-0.4s0.5-0.6,0.5-0.9
		c0-0.3-0.1-0.6-0.4-0.8c-0.2-0.1-0.7-0.3-1.4-0.5c-1-0.3-1.7-0.5-2.1-0.7s-0.7-0.5-0.9-0.8c-0.2-0.3-0.3-0.7-0.3-1.1
		c0-0.4,0.1-0.7,0.3-1c0.2-0.3,0.4-0.6,0.7-0.8c0.2-0.2,0.5-0.3,0.9-0.4c0.4-0.1,0.8-0.2,1.2-0.2c0.7,0,1.2,0.1,1.7,0.3
		s0.9,0.4,1.1,0.8s0.4,0.7,0.5,1.3l-1.4,0.2c-0.1-0.4-0.2-0.8-0.5-1c-0.3-0.2-0.7-0.4-1.3-0.4c-0.6,0-1.1,0.1-1.4,0.3
		c-0.3,0.2-0.4,0.5-0.4,0.8c0,0.2,0.1,0.3,0.2,0.5c0.1,0.2,0.3,0.3,0.5,0.4c0.1,0.1,0.6,0.2,1.2,0.4c1,0.3,1.7,0.5,2.1,0.7
		c0.4,0.2,0.7,0.4,0.9,0.7c0.2,0.3,0.3,0.7,0.3,1.2c0,0.5-0.1,0.9-0.4,1.3s-0.7,0.7-1.2,1s-1.1,0.3-1.8,0.3c-1.1,0-1.9-0.2-2.5-0.7
		C509,228.1,508.7,227.4,508.5,226.5z"/>
	<path d="M522.5,226l1.4,0.2c-0.2,1-0.5,1.7-1.2,2.2c-0.6,0.5-1.4,0.8-2.3,0.8c-1.1,0-2-0.4-2.7-1.1c-0.7-0.7-1-1.8-1-3.2
		c0-0.9,0.1-1.7,0.4-2.4s0.7-1.2,1.4-1.5c0.6-0.3,1.3-0.5,2-0.5c0.9,0,1.6,0.2,2.2,0.7c0.6,0.5,0.9,1.1,1.1,1.9l-1.4,0.2
		c-0.1-0.6-0.4-1-0.7-1.3c-0.3-0.3-0.7-0.4-1.2-0.4c-0.7,0-1.3,0.3-1.7,0.8c-0.4,0.5-0.7,1.3-0.7,2.4c0,1.1,0.2,1.9,0.6,2.4
		c0.4,0.5,1,0.8,1.7,0.8c0.6,0,1-0.2,1.4-0.5C522.1,227.2,522.4,226.7,522.5,226z"/>
	<path d="M524.5,224.9c0-1.5,0.4-2.7,1.3-3.4c0.7-0.6,1.6-0.9,2.6-0.9c1.1,0,2.1,0.4,2.8,1.1c0.7,0.7,1.1,1.8,1.1,3.1
		c0,1.1-0.2,1.9-0.5,2.5s-0.8,1.1-1.4,1.4c-0.6,0.3-1.3,0.5-2,0.5c-1.2,0-2.1-0.4-2.8-1.1C524.9,227.3,524.5,226.3,524.5,224.9z
		 M526,224.9c0,1.1,0.2,1.9,0.7,2.4c0.5,0.5,1,0.8,1.8,0.8c0.7,0,1.3-0.3,1.7-0.8c0.5-0.5,0.7-1.3,0.7-2.4c0-1-0.2-1.8-0.7-2.3
		c-0.5-0.5-1-0.8-1.7-0.8c-0.7,0-1.3,0.3-1.8,0.8C526.2,223,526,223.8,526,224.9z"/>
	<path d="M536.3,229l-3.2-8.3h1.5l1.8,5c0.2,0.5,0.4,1.1,0.5,1.7c0.1-0.4,0.3-1,0.5-1.6l1.8-5.1h1.4l-3.1,8.3H536.3z"/>
	<path d="M547.6,226.3l1.5,0.2c-0.2,0.8-0.7,1.5-1.3,2c-0.6,0.5-1.4,0.7-2.4,0.7c-1.2,0-2.2-0.4-2.9-1.1s-1.1-1.8-1.1-3.1
		c0-1.4,0.4-2.5,1.1-3.2s1.7-1.2,2.8-1.2c1.1,0,2,0.4,2.7,1.1s1.1,1.8,1.1,3.2c0,0.1,0,0.2,0,0.4h-6.2c0.1,0.9,0.3,1.6,0.8,2.1
		c0.5,0.5,1,0.7,1.7,0.7c0.5,0,1-0.1,1.3-0.4C547.1,227.4,547.4,226.9,547.6,226.3z M543,224.1h4.6c-0.1-0.7-0.2-1.2-0.5-1.6
		c-0.4-0.5-1-0.8-1.7-0.8c-0.6,0-1.2,0.2-1.6,0.6C543.3,222.8,543.1,223.3,543,224.1z"/>
	<path d="M550.8,229v-8.3h1.3v1.3c0.3-0.6,0.6-1,0.9-1.2s0.6-0.3,0.9-0.3c0.5,0,1,0.2,1.4,0.5l-0.5,1.3c-0.3-0.2-0.7-0.3-1-0.3
		c-0.3,0-0.6,0.1-0.8,0.3c-0.2,0.2-0.4,0.4-0.5,0.8c-0.2,0.5-0.2,1-0.2,1.6v4.3H550.8z"/>
	<path d="M556.1,232.2l-0.2-1.3c0.3,0.1,0.6,0.1,0.8,0.1c0.3,0,0.6-0.1,0.8-0.2s0.3-0.2,0.5-0.4c0.1-0.1,0.2-0.5,0.4-1
		c0-0.1,0.1-0.2,0.1-0.3l-3.1-8.3h1.5l1.7,4.8c0.2,0.6,0.4,1.2,0.6,1.9c0.2-0.6,0.4-1.3,0.6-1.9l1.8-4.8h1.4l-3.2,8.4
		c-0.3,0.9-0.6,1.5-0.8,1.9c-0.2,0.5-0.5,0.8-0.9,1c-0.3,0.2-0.7,0.3-1.2,0.3C556.8,232.4,556.5,232.3,556.1,232.2z"/>
	<path d="M563.4,229v-1.6h1.6v1.6c0,0.6-0.1,1.1-0.3,1.4c-0.2,0.4-0.5,0.6-1,0.8l-0.4-0.6c0.3-0.1,0.5-0.3,0.7-0.6s0.2-0.6,0.2-1.1
		H563.4z"/>
	<path d="M571.3,226.5l1.4-0.2c0.1,0.6,0.3,1,0.7,1.3c0.4,0.3,0.9,0.4,1.5,0.4c0.6,0,1.1-0.1,1.4-0.4s0.5-0.6,0.5-0.9
		c0-0.3-0.1-0.6-0.4-0.8c-0.2-0.1-0.7-0.3-1.4-0.5c-1-0.3-1.7-0.5-2.1-0.7s-0.7-0.5-0.9-0.8c-0.2-0.3-0.3-0.7-0.3-1.1
		c0-0.4,0.1-0.7,0.3-1c0.2-0.3,0.4-0.6,0.7-0.8c0.2-0.2,0.5-0.3,0.9-0.4c0.4-0.1,0.8-0.2,1.2-0.2c0.7,0,1.2,0.1,1.7,0.3
		s0.9,0.4,1.1,0.8s0.4,0.7,0.5,1.3l-1.4,0.2c-0.1-0.4-0.2-0.8-0.5-1c-0.3-0.2-0.7-0.4-1.3-0.4c-0.6,0-1.1,0.1-1.4,0.3
		c-0.3,0.2-0.4,0.5-0.4,0.8c0,0.2,0.1,0.3,0.2,0.5c0.1,0.2,0.3,0.3,0.5,0.4c0.1,0.1,0.6,0.2,1.2,0.4c1,0.3,1.7,0.5,2.1,0.7
		c0.4,0.2,0.7,0.4,0.9,0.7c0.2,0.3,0.3,0.7,0.3,1.2c0,0.5-0.1,0.9-0.4,1.3s-0.7,0.7-1.2,1s-1.1,0.3-1.8,0.3c-1.1,0-1.9-0.2-2.5-0.7
		C571.8,228.1,571.5,227.4,571.3,226.5z"/>
	<path d="M585.6,226.3l1.5,0.2c-0.2,0.8-0.7,1.5-1.3,2c-0.6,0.5-1.4,0.7-2.4,0.7c-1.2,0-2.2-0.4-2.9-1.1s-1.1-1.8-1.1-3.1
		c0-1.4,0.4-2.5,1.1-3.2s1.7-1.2,2.8-1.2c1.1,0,2,0.4,2.7,1.1s1.1,1.8,1.1,3.2c0,0.1,0,0.2,0,0.4h-6.2c0.1,0.9,0.3,1.6,0.8,2.1
		c0.5,0.5,1,0.7,1.7,0.7c0.5,0,1-0.1,1.3-0.4C585.1,227.4,585.4,226.9,585.6,226.3z M580.9,224.1h4.6c-0.1-0.7-0.2-1.2-0.5-1.6
		c-0.4-0.5-1-0.8-1.7-0.8c-0.6,0-1.2,0.2-1.6,0.6C581.2,222.8,581,223.3,580.9,224.1z"/>
	<path d="M594.2,228c-0.5,0.4-1,0.8-1.5,0.9c-0.5,0.2-1,0.3-1.6,0.3c-0.9,0-1.6-0.2-2.1-0.7c-0.5-0.4-0.7-1-0.7-1.7
		c0-0.4,0.1-0.8,0.3-1.1c0.2-0.3,0.4-0.6,0.7-0.8c0.3-0.2,0.6-0.4,1-0.5c0.3-0.1,0.7-0.1,1.2-0.2c1.1-0.1,2-0.3,2.5-0.5
		c0-0.2,0-0.3,0-0.4c0-0.6-0.1-1-0.4-1.2c-0.4-0.3-0.9-0.5-1.6-0.5c-0.7,0-1.2,0.1-1.5,0.3c-0.3,0.2-0.5,0.6-0.7,1.2l-1.4-0.2
		c0.1-0.6,0.3-1.1,0.6-1.4c0.3-0.4,0.7-0.6,1.2-0.8c0.5-0.2,1.2-0.3,1.9-0.3c0.7,0,1.3,0.1,1.7,0.2c0.4,0.2,0.8,0.4,1,0.6
		c0.2,0.3,0.4,0.6,0.4,1c0,0.2,0.1,0.7,0.1,1.3v1.9c0,1.3,0,2.1,0.1,2.5c0.1,0.3,0.2,0.7,0.4,1h-1.5
		C594.3,228.7,594.2,228.4,594.2,228z M594.1,224.8c-0.5,0.2-1.3,0.4-2.3,0.5c-0.6,0.1-1,0.2-1.2,0.3c-0.2,0.1-0.4,0.3-0.6,0.5
		c-0.1,0.2-0.2,0.4-0.2,0.7c0,0.4,0.1,0.7,0.4,0.9c0.3,0.2,0.7,0.4,1.2,0.4c0.5,0,1-0.1,1.4-0.4s0.7-0.6,0.9-1
		c0.2-0.3,0.2-0.8,0.2-1.4V224.8z"/>
	<path d="M597.7,229v-8.3h1.3v1.3c0.3-0.6,0.6-1,0.9-1.2s0.6-0.3,0.9-0.3c0.5,0,1,0.2,1.4,0.5l-0.5,1.3c-0.3-0.2-0.7-0.3-1-0.3
		c-0.3,0-0.6,0.1-0.8,0.3c-0.2,0.2-0.4,0.4-0.5,0.8c-0.2,0.5-0.2,1-0.2,1.6v4.3H597.7z"/>
	<path d="M608.4,226l1.4,0.2c-0.2,1-0.5,1.7-1.2,2.2c-0.6,0.5-1.4,0.8-2.3,0.8c-1.1,0-2-0.4-2.7-1.1c-0.7-0.7-1-1.8-1-3.2
		c0-0.9,0.1-1.7,0.4-2.4s0.7-1.2,1.4-1.5c0.6-0.3,1.3-0.5,2-0.5c0.9,0,1.6,0.2,2.2,0.7c0.6,0.5,0.9,1.1,1.1,1.9l-1.4,0.2
		c-0.1-0.6-0.4-1-0.7-1.3c-0.3-0.3-0.7-0.4-1.2-0.4c-0.7,0-1.3,0.3-1.7,0.8c-0.4,0.5-0.7,1.3-0.7,2.4c0,1.1,0.2,1.9,0.6,2.4
		c0.4,0.5,1,0.8,1.7,0.8c0.6,0,1-0.2,1.4-0.5C608.1,227.2,608.3,226.7,608.4,226z"/>
	<path d="M611,229v-11.5h1.4v4.1c0.7-0.8,1.5-1.1,2.5-1.1c0.6,0,1.1,0.1,1.6,0.4s0.8,0.6,1,1s0.3,1,0.3,1.9v5.3h-1.4v-5.3
		c0-0.7-0.2-1.2-0.5-1.5s-0.7-0.5-1.3-0.5c-0.4,0-0.8,0.1-1.2,0.3s-0.6,0.5-0.8,0.9s-0.2,0.9-0.2,1.5v4.5H611z"/>
	<path d="M620.3,229v-1.6h1.6v1.6c0,0.6-0.1,1.1-0.3,1.4c-0.2,0.4-0.5,0.6-1,0.8l-0.4-0.6c0.3-0.1,0.5-0.3,0.7-0.6s0.2-0.6,0.2-1.1
		H620.3z"/>
	<path d="M629.1,229v-7.2h-1.2v-1.1h1.2v-0.9c0-0.6,0-1,0.1-1.2c0.1-0.4,0.4-0.7,0.7-0.9c0.3-0.2,0.8-0.3,1.4-0.3
		c0.4,0,0.8,0,1.3,0.1l-0.2,1.2c-0.3-0.1-0.6-0.1-0.8-0.1c-0.4,0-0.7,0.1-0.9,0.3c-0.2,0.2-0.3,0.5-0.3,1v0.8h1.6v1.1h-1.6v7.2
		H629.1z"/>
	<path d="M638.7,228c-0.5,0.4-1,0.8-1.5,0.9c-0.5,0.2-1,0.3-1.6,0.3c-0.9,0-1.6-0.2-2.1-0.7c-0.5-0.4-0.7-1-0.7-1.7
		c0-0.4,0.1-0.8,0.3-1.1c0.2-0.3,0.4-0.6,0.7-0.8c0.3-0.2,0.6-0.4,1-0.5c0.3-0.1,0.7-0.1,1.2-0.2c1.1-0.1,2-0.3,2.5-0.5
		c0-0.2,0-0.3,0-0.4c0-0.6-0.1-1-0.4-1.2c-0.4-0.3-0.9-0.5-1.6-0.5c-0.7,0-1.2,0.1-1.5,0.3c-0.3,0.2-0.5,0.6-0.7,1.2l-1.4-0.2
		c0.1-0.6,0.3-1.1,0.6-1.4c0.3-0.4,0.7-0.6,1.2-0.8c0.5-0.2,1.2-0.3,1.9-0.3c0.7,0,1.3,0.1,1.7,0.2c0.4,0.2,0.8,0.4,1,0.6
		c0.2,0.3,0.4,0.6,0.4,1c0,0.2,0.1,0.7,0.1,1.3v1.9c0,1.3,0,2.1,0.1,2.5c0.1,0.3,0.2,0.7,0.4,1h-1.5
		C638.8,228.7,638.7,228.4,638.7,228z M638.5,224.8c-0.5,0.2-1.3,0.4-2.3,0.5c-0.6,0.1-1,0.2-1.2,0.3c-0.2,0.1-0.4,0.3-0.6,0.5
		c-0.1,0.2-0.2,0.4-0.2,0.7c0,0.4,0.1,0.7,0.4,0.9c0.3,0.2,0.7,0.4,1.2,0.4c0.5,0,1-0.1,1.4-0.4s0.7-0.6,0.9-1
		c0.2-0.3,0.2-0.8,0.2-1.4V224.8z"/>
	<path d="M647.6,226l1.4,0.2c-0.2,1-0.5,1.7-1.2,2.2c-0.6,0.5-1.4,0.8-2.3,0.8c-1.1,0-2-0.4-2.7-1.1c-0.7-0.7-1-1.8-1-3.2
		c0-0.9,0.1-1.7,0.4-2.4s0.7-1.2,1.4-1.5c0.6-0.3,1.3-0.5,2-0.5c0.9,0,1.6,0.2,2.2,0.7c0.6,0.5,0.9,1.1,1.1,1.9l-1.4,0.2
		c-0.1-0.6-0.4-1-0.7-1.3c-0.3-0.3-0.7-0.4-1.2-0.4c-0.7,0-1.3,0.3-1.7,0.8c-0.4,0.5-0.7,1.3-0.7,2.4c0,1.1,0.2,1.9,0.6,2.4
		c0.4,0.5,1,0.8,1.7,0.8c0.6,0,1-0.2,1.4-0.5C647.2,227.2,647.5,226.7,647.6,226z"/>
	<path d="M655.8,226.3l1.5,0.2c-0.2,0.8-0.7,1.5-1.3,2c-0.6,0.5-1.4,0.7-2.4,0.7c-1.2,0-2.2-0.4-2.9-1.1s-1.1-1.8-1.1-3.1
		c0-1.4,0.4-2.5,1.1-3.2s1.7-1.2,2.8-1.2c1.1,0,2,0.4,2.7,1.1s1.1,1.8,1.1,3.2c0,0.1,0,0.2,0,0.4h-6.2c0.1,0.9,0.3,1.6,0.8,2.1
		c0.5,0.5,1,0.7,1.7,0.7c0.5,0,1-0.1,1.3-0.4C655.3,227.4,655.6,226.9,655.8,226.3z M651.2,224.1h4.6c-0.1-0.7-0.2-1.2-0.5-1.6
		c-0.4-0.5-1-0.8-1.7-0.8c-0.6,0-1.2,0.2-1.6,0.6C651.5,222.8,651.3,223.3,651.2,224.1z"/>
	<path d="M662.1,227.8l0.2,1.2c-0.4,0.1-0.8,0.1-1.1,0.1c-0.5,0-0.9-0.1-1.2-0.2s-0.5-0.4-0.6-0.6c-0.1-0.3-0.2-0.8-0.2-1.7v-4.8h-1
		v-1.1h1v-2.1l1.4-0.8v2.9h1.4v1.1h-1.4v4.9c0,0.4,0,0.7,0.1,0.8c0,0.1,0.1,0.2,0.2,0.3c0.1,0.1,0.3,0.1,0.5,0.1
		C661.7,227.8,661.9,227.8,662.1,227.8z"/>
	<path d="M662.9,226.5l1.4-0.2c0.1,0.6,0.3,1,0.7,1.3c0.4,0.3,0.9,0.4,1.5,0.4c0.6,0,1.1-0.1,1.4-0.4s0.5-0.6,0.5-0.9
		c0-0.3-0.1-0.6-0.4-0.8c-0.2-0.1-0.7-0.3-1.4-0.5c-1-0.3-1.7-0.5-2.1-0.7s-0.7-0.5-0.9-0.8c-0.2-0.3-0.3-0.7-0.3-1.1
		c0-0.4,0.1-0.7,0.3-1c0.2-0.3,0.4-0.6,0.7-0.8c0.2-0.2,0.5-0.3,0.9-0.4c0.4-0.1,0.8-0.2,1.2-0.2c0.7,0,1.2,0.1,1.7,0.3
		s0.9,0.4,1.1,0.8s0.4,0.7,0.5,1.3l-1.4,0.2c-0.1-0.4-0.2-0.8-0.5-1c-0.3-0.2-0.7-0.4-1.3-0.4c-0.6,0-1.1,0.1-1.4,0.3
		c-0.3,0.2-0.4,0.5-0.4,0.8c0,0.2,0.1,0.3,0.2,0.5c0.1,0.2,0.3,0.3,0.5,0.4c0.1,0.1,0.6,0.2,1.2,0.4c1,0.3,1.7,0.5,2.1,0.7
		c0.4,0.2,0.7,0.4,0.9,0.7c0.2,0.3,0.3,0.7,0.3,1.2c0,0.5-0.1,0.9-0.4,1.3s-0.7,0.7-1.2,1s-1.1,0.3-1.8,0.3c-1.1,0-1.9-0.2-2.5-0.7
		C663.4,228.1,663.1,227.4,662.9,226.5z"/>
	<path d="M671.9,229v-1.6h1.6v1.6c0,0.6-0.1,1.1-0.3,1.4c-0.2,0.4-0.5,0.6-1,0.8l-0.4-0.6c0.3-0.1,0.5-0.3,0.7-0.6s0.2-0.6,0.2-1.1
		H671.9z"/>
	<path d="M498.9,248.2l-3.2-8.3h1.5l1.8,5c0.2,0.5,0.4,1.1,0.5,1.7c0.1-0.4,0.3-1,0.5-1.6l1.8-5.1h1.4l-3.1,8.3H498.9z"/>
	<path d="M510,247.2c-0.5,0.4-1,0.8-1.5,0.9c-0.5,0.2-1,0.3-1.6,0.3c-0.9,0-1.6-0.2-2.1-0.7c-0.5-0.4-0.7-1-0.7-1.7
		c0-0.4,0.1-0.8,0.3-1.1c0.2-0.3,0.4-0.6,0.7-0.8c0.3-0.2,0.6-0.4,1-0.5c0.3-0.1,0.7-0.1,1.2-0.2c1.1-0.1,2-0.3,2.5-0.5
		c0-0.2,0-0.3,0-0.4c0-0.6-0.1-1-0.4-1.2c-0.4-0.3-0.9-0.5-1.6-0.5c-0.7,0-1.2,0.1-1.5,0.3c-0.3,0.2-0.5,0.6-0.7,1.2l-1.4-0.2
		c0.1-0.6,0.3-1.1,0.6-1.4c0.3-0.4,0.7-0.6,1.2-0.8c0.5-0.2,1.2-0.3,1.9-0.3c0.7,0,1.3,0.1,1.7,0.2c0.4,0.2,0.8,0.4,1,0.6
		c0.2,0.3,0.4,0.6,0.4,1c0,0.2,0.1,0.7,0.1,1.3v1.9c0,1.3,0,2.1,0.1,2.5c0.1,0.3,0.2,0.7,0.4,1h-1.5
		C510.2,247.9,510.1,247.6,510,247.2z M509.9,244c-0.5,0.2-1.3,0.4-2.3,0.5c-0.6,0.1-1,0.2-1.2,0.3c-0.2,0.1-0.4,0.3-0.6,0.5
		c-0.1,0.2-0.2,0.4-0.2,0.7c0,0.4,0.1,0.7,0.4,0.9c0.3,0.2,0.7,0.4,1.2,0.4c0.5,0,1-0.1,1.4-0.4s0.7-0.6,0.9-1
		c0.2-0.3,0.2-0.8,0.2-1.4V244z"/>
	<path d="M513.5,248.2v-11.5h1.4v11.5H513.5z"/>
	<path d="M517.1,238.4v-1.6h1.4v1.6H517.1z M517.1,248.2v-8.3h1.4v8.3H517.1z"/>
	<path d="M526,248.2v-1c-0.5,0.8-1.3,1.2-2.3,1.2c-0.7,0-1.3-0.2-1.8-0.5s-1-0.9-1.3-1.5s-0.5-1.4-0.5-2.3c0-0.8,0.1-1.6,0.4-2.3
		c0.3-0.7,0.7-1.2,1.2-1.6c0.6-0.4,1.2-0.5,1.9-0.5c0.5,0,0.9,0.1,1.3,0.3s0.7,0.5,1,0.8v-4.1h1.4v11.5H526z M521.5,244.1
		c0,1.1,0.2,1.9,0.7,2.4c0.4,0.5,1,0.8,1.6,0.8c0.6,0,1.1-0.3,1.6-0.8s0.6-1.3,0.6-2.3c0-1.1-0.2-2-0.7-2.5s-1-0.8-1.6-0.8
		c-0.6,0-1.1,0.3-1.6,0.8C521.8,242.2,521.5,243,521.5,244.1z"/>
	<path d="M533.9,248.2v-11.5h1.4v11.5H533.9z"/>
	<path d="M537.5,238.4v-1.6h1.4v1.6H537.5z M537.5,248.2v-8.3h1.4v8.3H537.5z"/>
	<path d="M541.1,248.2v-8.3h1.3v1.2c0.6-0.9,1.5-1.4,2.6-1.4c0.5,0,1,0.1,1.4,0.3c0.4,0.2,0.7,0.4,0.9,0.7c0.2,0.3,0.4,0.6,0.4,1
		c0.1,0.3,0.1,0.7,0.1,1.4v5.1h-1.4v-5c0-0.6-0.1-1-0.2-1.3s-0.3-0.5-0.6-0.7c-0.3-0.2-0.6-0.3-1-0.3c-0.6,0-1.1,0.2-1.6,0.6
		c-0.4,0.4-0.7,1.1-0.7,2.2v4.5H541.1z"/>
	<path d="M550,248.2v-11.5h1.4v6.5l3.3-3.4h1.8l-3.2,3.1l3.5,5.2h-1.7l-2.7-4.2l-1,1v3.3H550z"/>
	<path d="M557.4,245.7l1.4-0.2c0.1,0.6,0.3,1,0.7,1.3c0.4,0.3,0.9,0.4,1.5,0.4c0.6,0,1.1-0.1,1.4-0.4s0.5-0.6,0.5-0.9
		c0-0.3-0.1-0.6-0.4-0.8c-0.2-0.1-0.7-0.3-1.4-0.5c-1-0.3-1.7-0.5-2.1-0.7s-0.7-0.5-0.9-0.8c-0.2-0.3-0.3-0.7-0.3-1.1
		c0-0.4,0.1-0.7,0.3-1c0.2-0.3,0.4-0.6,0.7-0.8c0.2-0.2,0.5-0.3,0.9-0.4c0.4-0.1,0.8-0.2,1.2-0.2c0.7,0,1.2,0.1,1.7,0.3
		s0.9,0.4,1.1,0.8s0.4,0.7,0.5,1.3l-1.4,0.2c-0.1-0.4-0.2-0.8-0.5-1c-0.3-0.2-0.7-0.4-1.3-0.4c-0.6,0-1.1,0.1-1.4,0.3
		c-0.3,0.2-0.4,0.5-0.4,0.8c0,0.2,0.1,0.3,0.2,0.5c0.1,0.2,0.3,0.3,0.5,0.4c0.1,0.1,0.6,0.2,1.2,0.4c1,0.3,1.7,0.5,2.1,0.7
		c0.4,0.2,0.7,0.4,0.9,0.7c0.2,0.3,0.3,0.7,0.3,1.2c0,0.5-0.1,0.9-0.4,1.3s-0.7,0.7-1.2,1s-1.1,0.3-1.8,0.3c-1.1,0-1.9-0.2-2.5-0.7
		C557.9,247.3,557.6,246.6,557.4,245.7z"/>
	<path d="M566.3,248.2v-1.6h1.6v1.6c0,0.6-0.1,1.1-0.3,1.4c-0.2,0.4-0.5,0.6-1,0.8l-0.4-0.6c0.3-0.1,0.5-0.3,0.7-0.6
		s0.2-0.6,0.2-1.1H566.3z"/>
	<path d="M574.8,248.2v-8.3h1.3v1.3c0.3-0.6,0.6-1,0.9-1.2s0.6-0.3,0.9-0.3c0.5,0,1,0.2,1.4,0.5l-0.5,1.3c-0.3-0.2-0.7-0.3-1-0.3
		c-0.3,0-0.6,0.1-0.8,0.3c-0.2,0.2-0.4,0.4-0.5,0.8c-0.2,0.5-0.2,1-0.2,1.6v4.3H574.8z"/>
	<path d="M585.9,245.5l1.5,0.2c-0.2,0.8-0.7,1.5-1.3,2c-0.6,0.5-1.4,0.7-2.4,0.7c-1.2,0-2.2-0.4-2.9-1.1s-1.1-1.8-1.1-3.1
		c0-1.4,0.4-2.5,1.1-3.2s1.7-1.2,2.8-1.2c1.1,0,2,0.4,2.7,1.1s1.1,1.8,1.1,3.2c0,0.1,0,0.2,0,0.4h-6.2c0.1,0.9,0.3,1.6,0.8,2.1
		c0.5,0.5,1,0.7,1.7,0.7c0.5,0,1-0.1,1.3-0.4C585.4,246.6,585.6,246.1,585.9,245.5z M581.2,243.3h4.6c-0.1-0.7-0.2-1.2-0.5-1.6
		c-0.4-0.5-1-0.8-1.7-0.8c-0.6,0-1.2,0.2-1.6,0.6C581.5,242,581.3,242.5,581.2,243.3z"/>
	<path d="M589,248.2v-11.5h1.4v11.5H589z"/>
	<path d="M598,247.2c-0.5,0.4-1,0.8-1.5,0.9c-0.5,0.2-1,0.3-1.6,0.3c-0.9,0-1.6-0.2-2.1-0.7c-0.5-0.4-0.7-1-0.7-1.7
		c0-0.4,0.1-0.8,0.3-1.1c0.2-0.3,0.4-0.6,0.7-0.8c0.3-0.2,0.6-0.4,1-0.5c0.3-0.1,0.7-0.1,1.2-0.2c1.1-0.1,2-0.3,2.5-0.5
		c0-0.2,0-0.3,0-0.4c0-0.6-0.1-1-0.4-1.2c-0.4-0.3-0.9-0.5-1.6-0.5c-0.7,0-1.2,0.1-1.5,0.3c-0.3,0.2-0.5,0.6-0.7,1.2l-1.4-0.2
		c0.1-0.6,0.3-1.1,0.6-1.4c0.3-0.4,0.7-0.6,1.2-0.8c0.5-0.2,1.2-0.3,1.9-0.3c0.7,0,1.3,0.1,1.7,0.2c0.4,0.2,0.8,0.4,1,0.6
		c0.2,0.3,0.4,0.6,0.4,1c0,0.2,0.1,0.7,0.1,1.3v1.9c0,1.3,0,2.1,0.1,2.5c0.1,0.3,0.2,0.7,0.4,1h-1.5
		C598.2,247.9,598.1,247.6,598,247.2z M597.9,244c-0.5,0.2-1.3,0.4-2.3,0.5c-0.6,0.1-1,0.2-1.2,0.3c-0.2,0.1-0.4,0.3-0.6,0.5
		c-0.1,0.2-0.2,0.4-0.2,0.7c0,0.4,0.1,0.7,0.4,0.9c0.3,0.2,0.7,0.4,1.2,0.4c0.5,0,1-0.1,1.4-0.4s0.7-0.6,0.9-1
		c0.2-0.3,0.2-0.8,0.2-1.4V244z"/>
	<path d="M604.6,247l0.2,1.2c-0.4,0.1-0.8,0.1-1.1,0.1c-0.5,0-0.9-0.1-1.2-0.2s-0.5-0.4-0.6-0.6c-0.1-0.3-0.2-0.8-0.2-1.7V241h-1
		v-1.1h1v-2.1l1.4-0.8v2.9h1.4v1.1h-1.4v4.9c0,0.4,0,0.7,0.1,0.8c0,0.1,0.1,0.2,0.2,0.3c0.1,0.1,0.3,0.1,0.5,0.1
		C604.1,247,604.3,247,604.6,247z"/>
	<path d="M611.7,245.5l1.5,0.2c-0.2,0.8-0.7,1.5-1.3,2c-0.6,0.5-1.4,0.7-2.4,0.7c-1.2,0-2.2-0.4-2.9-1.1s-1.1-1.8-1.1-3.1
		c0-1.4,0.4-2.5,1.1-3.2s1.7-1.2,2.8-1.2c1.1,0,2,0.4,2.7,1.1s1.1,1.8,1.1,3.2c0,0.1,0,0.2,0,0.4H607c0.1,0.9,0.3,1.6,0.8,2.1
		c0.5,0.5,1,0.7,1.7,0.7c0.5,0,1-0.1,1.3-0.4C611.2,246.6,611.4,246.1,611.7,245.5z M607,243.3h4.6c-0.1-0.7-0.2-1.2-0.5-1.6
		c-0.4-0.5-1-0.8-1.7-0.8c-0.6,0-1.2,0.2-1.6,0.6C607.3,242,607.1,242.5,607,243.3z"/>
	<path d="M620.3,248.2v-1c-0.5,0.8-1.3,1.2-2.3,1.2c-0.7,0-1.3-0.2-1.8-0.5s-1-0.9-1.3-1.5s-0.5-1.4-0.5-2.3c0-0.8,0.1-1.6,0.4-2.3
		c0.3-0.7,0.7-1.2,1.2-1.6c0.6-0.4,1.2-0.5,1.9-0.5c0.5,0,0.9,0.1,1.3,0.3s0.7,0.5,1,0.8v-4.1h1.4v11.5H620.3z M615.8,244.1
		c0,1.1,0.2,1.9,0.7,2.4c0.4,0.5,1,0.8,1.6,0.8c0.6,0,1.1-0.3,1.6-0.8s0.6-1.3,0.6-2.3c0-1.1-0.2-2-0.7-2.5s-1-0.8-1.6-0.8
		c-0.6,0-1.1,0.3-1.6,0.8C616,242.2,615.8,243,615.8,244.1z"/>
	<path d="M633.6,245.2l1.4,0.2c-0.2,1-0.5,1.7-1.2,2.2c-0.6,0.5-1.4,0.8-2.3,0.8c-1.1,0-2-0.4-2.7-1.1c-0.7-0.7-1-1.8-1-3.2
		c0-0.9,0.1-1.7,0.4-2.4s0.7-1.2,1.4-1.5c0.6-0.3,1.3-0.5,2-0.5c0.9,0,1.6,0.2,2.2,0.7c0.6,0.5,0.9,1.1,1.1,1.9l-1.4,0.2
		c-0.1-0.6-0.4-1-0.7-1.3c-0.3-0.3-0.7-0.4-1.2-0.4c-0.7,0-1.3,0.3-1.7,0.8c-0.4,0.5-0.7,1.3-0.7,2.4c0,1.1,0.2,1.9,0.6,2.4
		c0.4,0.5,1,0.8,1.7,0.8c0.6,0,1-0.2,1.4-0.5C633.3,246.4,633.5,245.9,633.6,245.2z"/>
	<path d="M635.7,244.1c0-1.5,0.4-2.7,1.3-3.4c0.7-0.6,1.6-0.9,2.6-0.9c1.1,0,2.1,0.4,2.8,1.1c0.7,0.7,1.1,1.8,1.1,3.1
		c0,1.1-0.2,1.9-0.5,2.5s-0.8,1.1-1.4,1.4c-0.6,0.3-1.3,0.5-2,0.5c-1.2,0-2.1-0.4-2.8-1.1C636.1,246.5,635.7,245.5,635.7,244.1z
		 M637.1,244.1c0,1.1,0.2,1.9,0.7,2.4c0.5,0.5,1,0.8,1.8,0.8c0.7,0,1.3-0.3,1.7-0.8c0.5-0.5,0.7-1.3,0.7-2.4c0-1-0.2-1.8-0.7-2.3
		c-0.5-0.5-1-0.8-1.7-0.8c-0.7,0-1.3,0.3-1.8,0.8C637.4,242.2,637.1,243,637.1,244.1z"/>
	<path d="M645.1,248.2v-8.3h1.3v1.2c0.6-0.9,1.5-1.4,2.6-1.4c0.5,0,1,0.1,1.4,0.3c0.4,0.2,0.7,0.4,0.9,0.7c0.2,0.3,0.4,0.6,0.4,1
		c0.1,0.3,0.1,0.7,0.1,1.4v5.1h-1.4v-5c0-0.6-0.1-1-0.2-1.3s-0.3-0.5-0.6-0.7c-0.3-0.2-0.6-0.3-1-0.3c-0.6,0-1.1,0.2-1.6,0.6
		c-0.4,0.4-0.7,1.1-0.7,2.2v4.5H645.1z"/>
	<path d="M657.1,247l0.2,1.2c-0.4,0.1-0.8,0.1-1.1,0.1c-0.5,0-0.9-0.1-1.2-0.2s-0.5-0.4-0.6-0.6c-0.1-0.3-0.2-0.8-0.2-1.7V241h-1
		v-1.1h1v-2.1l1.4-0.8v2.9h1.4v1.1h-1.4v4.9c0,0.4,0,0.7,0.1,0.8c0,0.1,0.1,0.2,0.2,0.3c0.1,0.1,0.3,0.1,0.5,0.1
		C656.6,247,656.8,247,657.1,247z"/>
	<path d="M664.1,245.5l1.5,0.2c-0.2,0.8-0.7,1.5-1.3,2c-0.6,0.5-1.4,0.7-2.4,0.7c-1.2,0-2.2-0.4-2.9-1.1s-1.1-1.8-1.1-3.1
		c0-1.4,0.4-2.5,1.1-3.2s1.7-1.2,2.8-1.2c1.1,0,2,0.4,2.7,1.1s1.1,1.8,1.1,3.2c0,0.1,0,0.2,0,0.4h-6.2c0.1,0.9,0.3,1.6,0.8,2.1
		c0.5,0.5,1,0.7,1.7,0.7c0.5,0,1-0.1,1.3-0.4C663.6,246.6,663.9,246.1,664.1,245.5z M659.5,243.3h4.6c-0.1-0.7-0.2-1.2-0.5-1.6
		c-0.4-0.5-1-0.8-1.7-0.8c-0.6,0-1.2,0.2-1.6,0.6C659.8,242,659.6,242.5,659.5,243.3z"/>
	<path d="M667.4,248.2v-8.3h1.3v1.2c0.6-0.9,1.5-1.4,2.6-1.4c0.5,0,1,0.1,1.4,0.3c0.4,0.2,0.7,0.4,0.9,0.7c0.2,0.3,0.4,0.6,0.4,1
		c0.1,0.3,0.1,0.7,0.1,1.4v5.1h-1.4v-5c0-0.6-0.1-1-0.2-1.3s-0.3-0.5-0.6-0.7c-0.3-0.2-0.6-0.3-1-0.3c-0.6,0-1.1,0.2-1.6,0.6
		c-0.4,0.4-0.7,1.1-0.7,2.2v4.5H667.4z"/>
	<path d="M679.3,247l0.2,1.2c-0.4,0.1-0.8,0.1-1.1,0.1c-0.5,0-0.9-0.1-1.2-0.2s-0.5-0.4-0.6-0.6c-0.1-0.3-0.2-0.8-0.2-1.7V241h-1
		v-1.1h1v-2.1l1.4-0.8v2.9h1.4v1.1h-1.4v4.9c0,0.4,0,0.7,0.1,0.8c0,0.1,0.1,0.2,0.2,0.3c0.1,0.1,0.3,0.1,0.5,0.1
		C678.9,247,679.1,247,679.3,247z"/>
	<path d="M681.1,248.2v-1.6h1.6v1.6c0,0.6-0.1,1.1-0.3,1.4c-0.2,0.4-0.5,0.6-1,0.8l-0.4-0.6c0.3-0.1,0.5-0.3,0.7-0.6
		s0.2-0.6,0.2-1.1H681.1z"/>
	<path d="M502,266.4c-0.5,0.4-1,0.8-1.5,0.9c-0.5,0.2-1,0.3-1.6,0.3c-0.9,0-1.6-0.2-2.1-0.7c-0.5-0.4-0.7-1-0.7-1.7
		c0-0.4,0.1-0.8,0.3-1.1c0.2-0.3,0.4-0.6,0.7-0.8c0.3-0.2,0.6-0.4,1-0.5c0.3-0.1,0.7-0.1,1.2-0.2c1.1-0.1,2-0.3,2.5-0.5
		c0-0.2,0-0.3,0-0.4c0-0.6-0.1-1-0.4-1.2c-0.4-0.3-0.9-0.5-1.6-0.5c-0.7,0-1.2,0.1-1.5,0.3c-0.3,0.2-0.5,0.6-0.7,1.2l-1.4-0.2
		c0.1-0.6,0.3-1.1,0.6-1.4c0.3-0.4,0.7-0.6,1.2-0.8c0.5-0.2,1.2-0.3,1.9-0.3c0.7,0,1.3,0.1,1.7,0.2c0.4,0.2,0.8,0.4,1,0.6
		c0.2,0.3,0.4,0.6,0.4,1c0,0.2,0.1,0.7,0.1,1.3v1.9c0,1.3,0,2.1,0.1,2.5c0.1,0.3,0.2,0.7,0.4,1h-1.5
		C502.2,267.1,502.1,266.8,502,266.4z M501.9,263.2c-0.5,0.2-1.3,0.4-2.3,0.5c-0.6,0.1-1,0.2-1.2,0.3c-0.2,0.1-0.4,0.3-0.6,0.5
		c-0.1,0.2-0.2,0.4-0.2,0.7c0,0.4,0.1,0.7,0.4,0.9c0.3,0.2,0.7,0.4,1.2,0.4c0.5,0,1-0.1,1.4-0.4s0.7-0.6,0.9-1
		c0.2-0.3,0.2-0.8,0.2-1.4V263.2z"/>
	<path d="M505.5,267.4v-8.3h1.3v1.2c0.6-0.9,1.5-1.4,2.6-1.4c0.5,0,1,0.1,1.4,0.3c0.4,0.2,0.7,0.4,0.9,0.7c0.2,0.3,0.4,0.6,0.4,1
		c0.1,0.3,0.1,0.7,0.1,1.4v5.1h-1.4v-5c0-0.6-0.1-1-0.2-1.3s-0.3-0.5-0.6-0.7c-0.3-0.2-0.6-0.3-1-0.3c-0.6,0-1.1,0.2-1.6,0.6
		c-0.4,0.4-0.7,1.1-0.7,2.2v4.5H505.5z"/>
	<path d="M519.8,267.4v-1c-0.5,0.8-1.3,1.2-2.3,1.2c-0.7,0-1.3-0.2-1.8-0.5s-1-0.9-1.3-1.5s-0.5-1.4-0.5-2.3c0-0.8,0.1-1.6,0.4-2.3
		c0.3-0.7,0.7-1.2,1.2-1.6c0.6-0.4,1.2-0.5,1.9-0.5c0.5,0,0.9,0.1,1.3,0.3s0.7,0.5,1,0.8V256h1.4v11.5H519.8z M515.3,263.3
		c0,1.1,0.2,1.9,0.7,2.4c0.4,0.5,1,0.8,1.6,0.8c0.6,0,1.1-0.3,1.6-0.8s0.6-1.3,0.6-2.3c0-1.1-0.2-2-0.7-2.5s-1-0.8-1.6-0.8
		c-0.6,0-1.1,0.3-1.6,0.8C515.5,261.4,515.3,262.2,515.3,263.3z"/>
	<path d="M527.7,267.4v-8.3h1.3v1.2c0.3-0.4,0.6-0.7,1-1c0.4-0.2,0.9-0.4,1.5-0.4c0.6,0,1.1,0.1,1.5,0.4c0.4,0.3,0.7,0.6,0.8,1.1
		c0.7-1,1.5-1.5,2.6-1.5c0.8,0,1.5,0.2,1.9,0.7c0.4,0.5,0.7,1.2,0.7,2.1v5.7h-1.4v-5.2c0-0.6,0-1-0.1-1.2c-0.1-0.2-0.3-0.4-0.5-0.6
		c-0.2-0.2-0.5-0.2-0.8-0.2c-0.6,0-1.1,0.2-1.5,0.6c-0.4,0.4-0.6,1-0.6,1.9v4.8h-1.4V262c0-0.6-0.1-1.1-0.3-1.4
		c-0.2-0.3-0.6-0.5-1.1-0.5c-0.4,0-0.8,0.1-1.1,0.3s-0.6,0.5-0.7,0.9c-0.2,0.4-0.2,1-0.2,1.7v4.3H527.7z"/>
	<path d="M540.5,263.3c0-1.5,0.4-2.7,1.3-3.4c0.7-0.6,1.6-0.9,2.6-0.9c1.1,0,2.1,0.4,2.8,1.1c0.7,0.7,1.1,1.8,1.1,3.1
		c0,1.1-0.2,1.9-0.5,2.5s-0.8,1.1-1.4,1.4c-0.6,0.3-1.3,0.5-2,0.5c-1.2,0-2.1-0.4-2.8-1.1C540.9,265.7,540.5,264.7,540.5,263.3z
		 M542,263.3c0,1.1,0.2,1.9,0.7,2.4c0.5,0.5,1,0.8,1.8,0.8c0.7,0,1.3-0.3,1.7-0.8c0.5-0.5,0.7-1.3,0.7-2.4c0-1-0.2-1.8-0.7-2.3
		c-0.5-0.5-1-0.8-1.7-0.8c-0.7,0-1.3,0.3-1.8,0.8C542.2,261.4,542,262.2,542,263.3z"/>
	<path d="M550,267.4v-8.3h1.3v1.3c0.3-0.6,0.6-1,0.9-1.2s0.6-0.3,0.9-0.3c0.5,0,1,0.2,1.4,0.5l-0.5,1.3c-0.3-0.2-0.7-0.3-1-0.3
		c-0.3,0-0.6,0.1-0.8,0.3c-0.2,0.2-0.4,0.4-0.5,0.8c-0.2,0.5-0.2,1-0.2,1.6v4.3H550z"/>
	<path d="M561,264.7l1.5,0.2c-0.2,0.8-0.7,1.5-1.3,2c-0.6,0.5-1.4,0.7-2.4,0.7c-1.2,0-2.2-0.4-2.9-1.1s-1.1-1.8-1.1-3.1
		c0-1.4,0.4-2.5,1.1-3.2s1.7-1.2,2.8-1.2c1.1,0,2,0.4,2.7,1.1s1.1,1.8,1.1,3.2c0,0.1,0,0.2,0,0.4h-6.2c0.1,0.9,0.3,1.6,0.8,2.1
		c0.5,0.5,1,0.7,1.7,0.7c0.5,0,1-0.1,1.3-0.4C560.5,265.8,560.8,265.3,561,264.7z M556.4,262.5h4.6c-0.1-0.7-0.2-1.2-0.5-1.6
		c-0.4-0.5-1-0.8-1.7-0.8c-0.6,0-1.2,0.2-1.6,0.6C556.7,261.2,556.4,261.7,556.4,262.5z"/>
	<path d="M564.6,267.4v-1.6h1.6v1.6H564.6z"/>
</g>
</svg>
