<?xml version="1.0" encoding="utf-8"?>
<!-- Generator: Adobe Illustrator 19.2.0, SVG Export Plug-In . SVG Version: 6.00 Build 0)  -->
<svg version="1.1" id="Layer_1" xmlns="http://www.w3.org/2000/svg" xmlns:xlink="http://www.w3.org/1999/xlink" x="0px" y="0px"
	 viewBox="0 0 700 262.8" enable-background="new 0 0 700 262.8" xml:space="preserve">
<g>
	<path d="M650.8,72.3H513.3v103.2h137.6V72.3z M648.1,75.1v97.7H516V75.1H648.1"/>
	<path d="M621.3,101.3c-3.6,0-6.6-3-6.6-6.6c0-3.6,3-6.6,6.6-6.6c3.6,0,6.6,3,6.6,6.6C627.9,98.3,624.9,101.3,621.3,101.3z
		 M603.2,98.7l-3.5-3.5l1.3-1.3l2.2,2.2l5.3-5.3l1.3,1.3L603.2,98.7z M621.7,86.1h-20.5c-4.7,0-8.5,3.8-8.5,8.5v0.2
		c0,4.7,3.8,8.5,8.5,8.5h20.5c4.7,0,8.5-3.8,8.5-8.5v-0.2C630.2,89.9,626.4,86.1,621.7,86.1z"/>
	<rect x="533.9" y="89.5" width="31" height="2.8"/>
	<rect x="533.9" y="96.4" width="48.1" height="2.8"/>
	<rect x="533.9" y="117" width="48.1" height="2.8"/>
	<rect x="533.9" y="123.9" width="41.3" height="2.8"/>
	<path d="M621.3,128.8c-3.6,0-6.6-3-6.6-6.6c0-3.6,3-6.6,6.6-6.6c3.6,0,6.6,3,6.6,6.6C627.9,125.8,624.9,128.8,621.3,128.8z
		 M603.2,126.2l-3.5-3.5l1.3-1.3l2.2,2.2l5.3-5.3l1.3,1.3L603.2,126.2z M621.7,113.6h-20.5c-4.7,0-8.5,3.8-8.5,8.5v0.2
		c0,4.7,3.8,8.5,8.5,8.5h20.5c4.7,0,8.5-3.8,8.5-8.5v-0.2C630.2,117.4,626.4,113.6,621.7,113.6z"/>
	<rect x="533.9" y="144.5" width="41.3" height="2.8"/>
	<rect x="533.9" y="151.4" width="48.1" height="2.8"/>
	<path d="M620.8,153.7l-2.7-2.7l-2.7,2.7l-1.4-1.4l2.7-2.7l-2.7-2.7l1.4-1.4l2.7,2.7l2.7-2.7l1.4,1.4l-2.7,2.7l2.7,2.7L620.8,153.7z
		 M601.5,156.3c-3.6,0-6.6-3-6.6-6.6c0-3.6,3-6.6,6.6-6.6c3.6,0,6.6,3,6.6,6.6C608.1,153.3,605.2,156.3,601.5,156.3z M621.7,141.1
		h-20.5c-4.7,0-8.5,3.8-8.5,8.5v0.2c0,4.7,3.8,8.5,8.5,8.5h20.5c4.7,0,8.5-3.8,8.5-8.5v-0.2C630.2,144.9,626.4,141.1,621.7,141.1z"
		/>
</g>
<g>
	<path d="M48.8,164.2h53.2c1.1,0,2.1-0.9,2.1-2.1c0-1.1-0.9-2.1-2.1-2.1H48.8c-1.2,0-2.1,0.9-2.1,2.1
		C46.7,163.3,47.6,164.2,48.8,164.2z"/>
	<path d="M48.8,172.8h53.2c1.1,0,2.1-0.9,2.1-2.1c0-1.2-0.9-2.1-2.1-2.1H48.8c-1.2,0-2.1,0.9-2.1,2.1
		C46.7,171.9,47.6,172.8,48.8,172.8z"/>
	<rect x="110.9" y="129.5" width="25.9" height="26.3"/>
	<rect x="46.7" y="129.5" width="57.3" height="18"/>
	<path d="M48.8,155.6h53.2c1.1,0,2.1-0.9,2.1-2.1c0-1.2-0.9-2.1-2.1-2.1H48.8c-1.2,0-2.1,0.9-2.1,2.1
		C46.7,154.7,47.6,155.6,48.8,155.6z"/>
	<path d="M113,172.8h21.3c1.1,0,2.1-0.9,2.1-2.1c0-1.2-0.9-2.1-2.1-2.1H113c-1.2,0-2.1,0.9-2.1,2.1
		C110.9,171.9,111.8,172.8,113,172.8z"/>
	<path d="M113,164.2h21.3c1.1,0,2.1-0.9,2.1-2.1c0-1.1-0.9-2.1-2.1-2.1H113c-1.2,0-2.1,0.9-2.1,2.1
		C110.9,163.3,111.8,164.2,113,164.2z"/>
	<path d="M143.3,122.5v55.1h-103v-40.8h0V123h103L143.3,122.5L143.3,122.5L143.3,122.5z M143.3,92H40.2c-4.7,0-8.6,3.8-8.6,8.6v77.1
		c0,4.7,3.8,8.6,8.6,8.6h103.1c4.7,0,8.6-3.8,8.6-8.6v-77.1C151.8,95.9,148,92,143.3,92z"/>
	<path d="M161.4,76.8h-103c-4.7,0-8.6,3.8-8.6,8.6v3.9h93.5c6.3,0,11.4,5.1,11.4,11.4v7.2h6.8v54.7h-6.8v8.6h6.8
		c4.7,0,8.6-3.8,8.6-8.6V85.4C170,80.6,166.2,76.8,161.4,76.8z"/>
	<path d="M179.6,61.6h-103c-4.7,0-8.6,3.8-8.6,8.6V74h93.5c6.3,0,11.4,5.1,11.4,11.4v7.2h6.8v54.7h-6.8v8.6h6.8
		c4.7,0,8.6-3.8,8.6-8.6V70.1C188.2,65.4,184.4,61.6,179.6,61.6z"/>
</g>
<g>
	<path d="M344.8,99.2c-13.6,0-24.7,11.1-24.7,24.7c0,13.6,11.1,24.7,24.7,24.7c13.6,0,24.7-11.1,24.7-24.7
		C369.5,110.3,358.4,99.2,344.8,99.2z M344.8,154.1c-16.6,0-30.2-13.5-30.2-30.2s13.5-30.2,30.2-30.2c16.6,0,30.2,13.5,30.2,30.2
		S361.4,154.1,344.8,154.1z"/>
	<path d="M366.8,142.4c-2.2-6.4-7-11.3-12.9-13.8c2.8-2.5,4.6-6.1,4.6-10.2c0-7.6-6.2-13.7-13.7-13.7c-7.6,0-13.7,6.2-13.7,13.7
		c0,4.1,1.8,7.7,4.6,10.2c-5.9,2.5-10.7,7.4-12.9,13.8c-0.3,1-0.1,2.1,0.7,2.8c5.7,5.7,13.3,8.8,21.3,8.8c8.1,0,15.6-3.1,21.3-8.8
		C366.8,144.5,367.1,143.4,366.8,142.4z"/>
	<path d="M295.4,66.3c-4.5,0-8.2,3.7-8.2,8.2v98.8c0,4.5,3.7,8.2,8.2,8.2h98.8c4.5,0,8.2-3.7,8.2-8.2V74.5c0-4.5-3.7-8.2-8.2-8.2
		H295.4z M394.2,187h-98.8c-7.6,0-13.7-6.2-13.7-13.7V74.5c0-7.6,6.2-13.7,13.7-13.7h98.8c7.6,0,13.7,6.2,13.7,13.7v98.8
		C407.9,180.9,401.7,187,394.2,187z"/>
	<path d="M405.1,88.2H284.4c-1.5,0-2.7-1.2-2.7-2.7c0-1.5,1.2-2.7,2.7-2.7h120.7c1.5,0,2.7,1.2,2.7,2.7
		C407.9,87,406.7,88.2,405.1,88.2z"/>
	<path d="M339.3,159.6h-27.4c-1.5,0-2.7,1.2-2.7,2.7v11c0,1.5,1.2,2.7,2.7,2.7h27.4c1.5,0,2.7-1.2,2.7-2.7v-11
		C342,160.8,340.8,159.6,339.3,159.6z"/>
	<path d="M377.7,159.6h-27.4c-1.5,0-2.7,1.2-2.7,2.7v11c0,1.5,1.2,2.7,2.7,2.7h27.4c1.5,0,2.7-1.2,2.7-2.7v-11
		C380.4,160.8,379.2,159.6,377.7,159.6z"/>
	<path d="M317.3,77.3c-1.5,0-2.7-1.2-2.7-2.7c0-1.5,1.2-2.7,2.7-2.7s2.7,1.2,2.7,2.7C320.1,76,318.9,77.3,317.3,77.3z M306.4,77.3
		c-1.5,0-2.7-1.2-2.7-2.7c0-1.5,1.2-2.7,2.7-2.7s2.7,1.2,2.7,2.7C309.1,76,307.9,77.3,306.4,77.3z M295.4,77.3
		c-1.5,0-2.7-1.2-2.7-2.7c0-1.5,1.2-2.7,2.7-2.7s2.7,1.2,2.7,2.7C298.1,76,296.9,77.3,295.4,77.3z M394.2,60.8h-98.8
		c-7.6,0-13.7,6.2-13.7,13.7v11c0,1.5,1.2,2.7,2.7,2.7h120.7c1.5,0,2.7-1.2,2.7-2.7v-11C407.9,67,401.7,60.8,394.2,60.8z"/>
</g>
<g>
	<path d="M256.1,219.6v-11.5h2.3l2.7,8.1c0.2,0.8,0.4,1.3,0.5,1.7c0.1-0.4,0.3-1,0.6-1.8l2.7-8h2v11.5h-1.5V210l-3.3,9.6h-1.4
		l-3.3-9.8v9.8H256.1z"/>
	<path d="M268.8,215.4c0-1.5,0.4-2.7,1.3-3.4c0.7-0.6,1.6-0.9,2.6-0.9c1.1,0,2.1,0.4,2.8,1.1c0.7,0.7,1.1,1.8,1.1,3.1
		c0,1.1-0.2,1.9-0.5,2.5s-0.8,1.1-1.4,1.4c-0.6,0.3-1.3,0.5-2,0.5c-1.2,0-2.1-0.4-2.8-1.1C269.1,217.9,268.8,216.8,268.8,215.4z
		 M270.2,215.4c0,1.1,0.2,1.9,0.7,2.4c0.5,0.5,1,0.8,1.8,0.8c0.7,0,1.3-0.3,1.7-0.8c0.5-0.5,0.7-1.3,0.7-2.4c0-1-0.2-1.8-0.7-2.3
		c-0.5-0.5-1-0.8-1.7-0.8c-0.7,0-1.3,0.3-1.8,0.8C270.4,213.6,270.2,214.4,270.2,215.4z"/>
	<path d="M283.6,219.6v-1c-0.5,0.8-1.3,1.2-2.3,1.2c-0.7,0-1.3-0.2-1.8-0.5s-1-0.9-1.3-1.5s-0.5-1.4-0.5-2.3c0-0.8,0.1-1.6,0.4-2.3
		c0.3-0.7,0.7-1.2,1.2-1.6c0.6-0.4,1.2-0.5,1.9-0.5c0.5,0,0.9,0.1,1.3,0.3s0.7,0.5,1,0.8v-4.1h1.4v11.5H283.6z M279.1,215.5
		c0,1.1,0.2,1.9,0.7,2.4c0.4,0.5,1,0.8,1.6,0.8c0.6,0,1.1-0.3,1.6-0.8s0.6-1.3,0.6-2.3c0-1.1-0.2-2-0.7-2.5s-1-0.8-1.6-0.8
		c-0.6,0-1.1,0.3-1.6,0.8C279.3,213.6,279.1,214.4,279.1,215.5z"/>
	<path d="M292.8,216.9l1.5,0.2c-0.2,0.8-0.7,1.5-1.3,2c-0.6,0.5-1.4,0.7-2.4,0.7c-1.2,0-2.2-0.4-2.9-1.1s-1.1-1.8-1.1-3.1
		c0-1.4,0.4-2.5,1.1-3.2s1.7-1.2,2.8-1.2c1.1,0,2,0.4,2.7,1.1s1.1,1.8,1.1,3.2c0,0.1,0,0.2,0,0.4h-6.2c0.1,0.9,0.3,1.6,0.8,2.1
		c0.5,0.5,1,0.7,1.7,0.7c0.5,0,1-0.1,1.3-0.4C292.2,218,292.5,217.5,292.8,216.9z M288.1,214.7h4.6c-0.1-0.7-0.2-1.2-0.5-1.6
		c-0.4-0.5-1-0.8-1.7-0.8c-0.6,0-1.2,0.2-1.6,0.6C288.4,213.3,288.2,213.9,288.1,214.7z"/>
	<path d="M295.9,219.6v-11.5h1.4v11.5H295.9z"/>
	<path d="M311,218.2v1.4h-7.6c0-0.3,0-0.7,0.2-1c0.2-0.5,0.5-1,0.9-1.5c0.4-0.5,1-1.1,1.8-1.7c1.2-1,2.1-1.8,2.5-2.4
		s0.7-1.2,0.7-1.7c0-0.6-0.2-1-0.6-1.4s-0.9-0.6-1.6-0.6c-0.7,0-1.2,0.2-1.6,0.6s-0.6,1-0.6,1.7l-1.4-0.1c0.1-1.1,0.5-1.9,1.1-2.5
		c0.6-0.6,1.5-0.8,2.6-0.8c1.1,0,2,0.3,2.6,0.9s1,1.4,1,2.3c0,0.5-0.1,0.9-0.3,1.4s-0.5,0.9-0.9,1.4c-0.4,0.5-1.2,1.2-2.2,2
		c-0.8,0.7-1.4,1.2-1.6,1.4c-0.2,0.3-0.4,0.5-0.6,0.8H311z"/>
	<path d="M313.3,212.9v-1.6h1.6v1.6H313.3z M313.3,219.6V218h1.6v1.6H313.3z"/>
	<path d="M322,219.6v-11.5h5.1c1,0,1.8,0.1,2.3,0.3s1,0.6,1.3,1.1c0.3,0.5,0.5,1.1,0.5,1.7c0,0.8-0.3,1.5-0.8,2.1
		c-0.5,0.6-1.3,0.9-2.4,1.1c0.4,0.2,0.7,0.4,0.9,0.6c0.4,0.4,0.9,0.9,1.3,1.5l2,3.1h-1.9l-1.5-2.4c-0.4-0.7-0.8-1.2-1.1-1.6
		c-0.3-0.4-0.5-0.6-0.8-0.8s-0.5-0.2-0.7-0.3c-0.2,0-0.5-0.1-0.8-0.1h-1.8v5.1H322z M323.5,213.2h3.3c0.7,0,1.2-0.1,1.6-0.2
		s0.7-0.4,0.9-0.7s0.3-0.7,0.3-1c0-0.5-0.2-1-0.6-1.3c-0.4-0.3-1-0.5-1.9-0.5h-3.6V213.2z"/>
	<path d="M333.3,209.8v-1.6h1.4v1.6H333.3z M333.3,219.6v-8.3h1.4v8.3H333.3z"/>
	<path d="M336.6,220.3l1.4,0.2c0.1,0.4,0.2,0.7,0.5,0.9c0.3,0.3,0.8,0.4,1.4,0.4c0.7,0,1.2-0.1,1.5-0.4c0.4-0.3,0.6-0.6,0.7-1.1
		c0.1-0.3,0.1-0.9,0.1-1.8c-0.6,0.7-1.4,1.1-2.3,1.1c-1.1,0-2-0.4-2.6-1.2s-0.9-1.8-0.9-3c0-0.8,0.1-1.5,0.4-2.2
		c0.3-0.7,0.7-1.2,1.2-1.6c0.5-0.4,1.2-0.5,1.9-0.5c1,0,1.8,0.4,2.4,1.2v-1h1.3v7.2c0,1.3-0.1,2.2-0.4,2.7c-0.3,0.5-0.7,1-1.2,1.3
		s-1.3,0.5-2.1,0.5c-1,0-1.8-0.2-2.4-0.7S336.6,221.2,336.6,220.3z M337.8,215.3c0,1.1,0.2,1.9,0.6,2.4c0.4,0.5,1,0.8,1.6,0.8
		c0.6,0,1.2-0.2,1.6-0.7s0.7-1.3,0.7-2.3c0-1-0.2-1.8-0.7-2.3c-0.5-0.5-1-0.8-1.6-0.8c-0.6,0-1.2,0.3-1.6,0.8
		S337.8,214.3,337.8,215.3z"/>
	<path d="M345.8,219.6v-11.5h1.4v4.1c0.7-0.8,1.5-1.1,2.5-1.1c0.6,0,1.1,0.1,1.6,0.4c0.5,0.2,0.8,0.6,1,1s0.3,1,0.3,1.9v5.3h-1.4
		v-5.3c0-0.7-0.2-1.2-0.5-1.5s-0.7-0.5-1.3-0.5c-0.4,0-0.8,0.1-1.2,0.3s-0.6,0.5-0.8,0.9s-0.2,0.9-0.2,1.5v4.5H345.8z"/>
	<path d="M357.7,218.3l0.2,1.2c-0.4,0.1-0.8,0.1-1.1,0.1c-0.5,0-0.9-0.1-1.2-0.2s-0.5-0.4-0.6-0.6s-0.2-0.8-0.2-1.7v-4.8h-1v-1.1h1
		v-2.1l1.4-0.8v2.9h1.4v1.1h-1.4v4.9c0,0.4,0,0.7,0.1,0.8s0.1,0.2,0.2,0.3s0.3,0.1,0.5,0.1C357.3,218.4,357.5,218.4,357.7,218.3z"/>
	<path d="M358.5,217.1l1.4-0.2c0.1,0.6,0.3,1,0.7,1.3s0.9,0.4,1.5,0.4c0.6,0,1.1-0.1,1.4-0.4s0.5-0.6,0.5-0.9c0-0.3-0.1-0.6-0.4-0.8
		c-0.2-0.1-0.7-0.3-1.4-0.5c-1-0.3-1.7-0.5-2.1-0.7s-0.7-0.5-0.9-0.8s-0.3-0.7-0.3-1.1c0-0.4,0.1-0.7,0.3-1s0.4-0.6,0.7-0.8
		c0.2-0.2,0.5-0.3,0.9-0.4s0.8-0.2,1.2-0.2c0.7,0,1.2,0.1,1.7,0.3s0.9,0.4,1.1,0.8s0.4,0.7,0.5,1.3l-1.4,0.2c-0.1-0.4-0.2-0.8-0.5-1
		s-0.7-0.4-1.3-0.4c-0.6,0-1.1,0.1-1.4,0.3s-0.4,0.5-0.4,0.8c0,0.2,0.1,0.3,0.2,0.5c0.1,0.2,0.3,0.3,0.5,0.4
		c0.1,0.1,0.6,0.2,1.2,0.4c1,0.3,1.7,0.5,2.1,0.7s0.7,0.4,0.9,0.7s0.3,0.7,0.3,1.2c0,0.5-0.1,0.9-0.4,1.3s-0.7,0.7-1.2,1
		s-1.1,0.3-1.8,0.3c-1.1,0-1.9-0.2-2.5-0.7S358.7,218,358.5,217.1z"/>
	<path d="M366.6,216.2v-1.4h4.3v1.4H366.6z"/>
	<path d="M373.7,219.6h-1.3v-11.5h1.4v4.1c0.6-0.7,1.4-1.1,2.3-1.1c0.5,0,1,0.1,1.4,0.3s0.8,0.5,1.1,0.9s0.5,0.8,0.7,1.3
		s0.2,1.1,0.2,1.7c0,1.4-0.4,2.5-1.1,3.3s-1.5,1.2-2.5,1.2c-1,0-1.7-0.4-2.3-1.2V219.6z M373.7,215.4c0,1,0.1,1.7,0.4,2.2
		c0.4,0.7,1,1.1,1.8,1.1c0.6,0,1.1-0.3,1.6-0.8s0.7-1.3,0.7-2.4c0-1.1-0.2-1.9-0.6-2.4s-0.9-0.8-1.6-0.8c-0.6,0-1.1,0.3-1.6,0.8
		S373.7,214.4,373.7,215.4z"/>
	<path d="M386.8,218.6c-0.5,0.4-1,0.8-1.5,0.9s-1,0.3-1.6,0.3c-0.9,0-1.6-0.2-2.1-0.7s-0.7-1-0.7-1.7c0-0.4,0.1-0.8,0.3-1.1
		s0.4-0.6,0.7-0.8s0.6-0.4,1-0.5c0.3-0.1,0.7-0.1,1.2-0.2c1.1-0.1,2-0.3,2.5-0.5c0-0.2,0-0.3,0-0.4c0-0.6-0.1-1-0.4-1.2
		c-0.4-0.3-0.9-0.5-1.6-0.5c-0.7,0-1.1,0.1-1.5,0.3s-0.5,0.6-0.7,1.2l-1.4-0.2c0.1-0.6,0.3-1.1,0.6-1.4s0.7-0.6,1.2-0.8
		s1.2-0.3,1.9-0.3c0.7,0,1.3,0.1,1.7,0.2s0.8,0.4,1,0.6s0.4,0.6,0.4,1c0,0.2,0.1,0.7,0.1,1.3v1.9c0,1.3,0,2.1,0.1,2.5s0.2,0.7,0.4,1
		H387C386.9,219.3,386.8,219,386.8,218.6z M386.6,215.4c-0.5,0.2-1.3,0.4-2.3,0.5c-0.6,0.1-1,0.2-1.2,0.3s-0.4,0.3-0.6,0.5
		s-0.2,0.4-0.2,0.7c0,0.4,0.1,0.7,0.4,0.9s0.7,0.4,1.2,0.4c0.5,0,1-0.1,1.4-0.4s0.7-0.6,0.9-1c0.2-0.3,0.2-0.8,0.2-1.4V215.4z"/>
	<path d="M389.7,217.1l1.4-0.2c0.1,0.6,0.3,1,0.7,1.3s0.9,0.4,1.5,0.4c0.6,0,1.1-0.1,1.4-0.4s0.5-0.6,0.5-0.9c0-0.3-0.1-0.6-0.4-0.8
		c-0.2-0.1-0.7-0.3-1.4-0.5c-1-0.3-1.7-0.5-2.1-0.7s-0.7-0.5-0.9-0.8s-0.3-0.7-0.3-1.1c0-0.4,0.1-0.7,0.3-1s0.4-0.6,0.7-0.8
		c0.2-0.2,0.5-0.3,0.9-0.4s0.8-0.2,1.2-0.2c0.7,0,1.2,0.1,1.7,0.3s0.9,0.4,1.1,0.8s0.4,0.7,0.5,1.3l-1.4,0.2c-0.1-0.4-0.2-0.8-0.5-1
		s-0.7-0.4-1.3-0.4c-0.6,0-1.1,0.1-1.4,0.3s-0.4,0.5-0.4,0.8c0,0.2,0.1,0.3,0.2,0.5c0.1,0.2,0.3,0.3,0.5,0.4
		c0.1,0.1,0.6,0.2,1.2,0.4c1,0.3,1.7,0.5,2.1,0.7s0.7,0.4,0.9,0.7s0.3,0.7,0.3,1.2c0,0.5-0.1,0.9-0.4,1.3s-0.7,0.7-1.2,1
		s-1.1,0.3-1.8,0.3c-1.1,0-1.9-0.2-2.5-0.7S389.8,218,389.7,217.1z"/>
	<path d="M403.9,216.9l1.5,0.2c-0.2,0.8-0.7,1.5-1.3,2s-1.4,0.7-2.4,0.7c-1.2,0-2.2-0.4-2.9-1.1s-1.1-1.8-1.1-3.1
		c0-1.4,0.4-2.5,1.1-3.2s1.7-1.2,2.8-1.2c1.1,0,2,0.4,2.7,1.1s1.1,1.8,1.1,3.2c0,0.1,0,0.2,0,0.4h-6.2c0.1,0.9,0.3,1.6,0.8,2.1
		s1,0.7,1.7,0.7c0.5,0,1-0.1,1.3-0.4S403.7,217.5,403.9,216.9z M399.3,214.7h4.6c-0.1-0.7-0.2-1.2-0.5-1.6c-0.4-0.5-1-0.8-1.7-0.8
		c-0.6,0-1.2,0.2-1.6,0.6S399.3,213.9,399.3,214.7z"/>
	<path d="M412.5,219.6v-1c-0.5,0.8-1.3,1.2-2.3,1.2c-0.7,0-1.3-0.2-1.8-0.5s-1-0.9-1.3-1.5s-0.5-1.4-0.5-2.3c0-0.8,0.1-1.6,0.4-2.3
		s0.7-1.2,1.2-1.6s1.2-0.5,1.9-0.5c0.5,0,0.9,0.1,1.3,0.3s0.7,0.5,1,0.8v-4.1h1.4v11.5H412.5z M408.1,215.5c0,1.1,0.2,1.9,0.7,2.4
		s1,0.8,1.6,0.8c0.6,0,1.1-0.3,1.6-0.8s0.6-1.3,0.6-2.3c0-1.1-0.2-2-0.7-2.5s-1-0.8-1.6-0.8c-0.6,0-1.1,0.3-1.6,0.8
		S408.1,214.4,408.1,215.5z"/>
	<path d="M420.4,219.6v-11.5h1.4v11.5H420.4z"/>
	<path d="M423.5,215.4c0-1.5,0.4-2.7,1.3-3.4c0.7-0.6,1.6-0.9,2.6-0.9c1.1,0,2.1,0.4,2.8,1.1s1.1,1.8,1.1,3.1c0,1.1-0.2,1.9-0.5,2.5
		s-0.8,1.1-1.4,1.4s-1.3,0.5-2,0.5c-1.2,0-2.1-0.4-2.8-1.1S423.5,216.8,423.5,215.4z M425,215.4c0,1.1,0.2,1.9,0.7,2.4
		s1,0.8,1.8,0.8c0.7,0,1.3-0.3,1.7-0.8s0.7-1.3,0.7-2.4c0-1-0.2-1.8-0.7-2.3s-1-0.8-1.7-0.8c-0.7,0-1.3,0.3-1.8,0.8
		S425,214.4,425,215.4z"/>
	<path d="M432.7,220.3l1.4,0.2c0.1,0.4,0.2,0.7,0.5,0.9c0.3,0.3,0.8,0.4,1.4,0.4c0.7,0,1.2-0.1,1.5-0.4s0.6-0.6,0.7-1.1
		c0.1-0.3,0.1-0.9,0.1-1.8c-0.6,0.7-1.4,1.1-2.3,1.1c-1.1,0-2-0.4-2.6-1.2s-0.9-1.8-0.9-3c0-0.8,0.1-1.5,0.4-2.2s0.7-1.2,1.2-1.6
		s1.2-0.5,1.9-0.5c1,0,1.8,0.4,2.4,1.2v-1h1.3v7.2c0,1.3-0.1,2.2-0.4,2.7s-0.7,1-1.2,1.3s-1.3,0.5-2.1,0.5c-1,0-1.8-0.2-2.4-0.7
		S432.7,221.2,432.7,220.3z M433.8,215.3c0,1.1,0.2,1.9,0.6,2.4s1,0.8,1.6,0.8c0.6,0,1.2-0.2,1.6-0.7s0.7-1.3,0.7-2.3
		c0-1-0.2-1.8-0.7-2.3s-1-0.8-1.6-0.8c-0.6,0-1.2,0.3-1.6,0.8S433.8,214.3,433.8,215.3z"/>
	<path d="M441.8,209.8v-1.6h1.4v1.6H441.8z M441.8,219.6v-8.3h1.4v8.3H441.8z"/>
	<path d="M445.4,219.6v-8.3h1.3v1.2c0.6-0.9,1.5-1.4,2.6-1.4c0.5,0,1,0.1,1.4,0.3s0.7,0.4,0.9,0.7s0.4,0.6,0.4,1
		c0.1,0.3,0.1,0.7,0.1,1.4v5.1h-1.4v-5c0-0.6-0.1-1-0.2-1.3s-0.3-0.5-0.6-0.7s-0.6-0.3-1-0.3c-0.6,0-1.1,0.2-1.6,0.6
		s-0.7,1.1-0.7,2.2v4.5H445.4z"/>
</g>
<g>
	<path d="M20.4,219.6v-11.5h2.3l2.7,8.1c0.2,0.8,0.4,1.3,0.5,1.7c0.1-0.4,0.3-1,0.6-1.8l2.7-8h2v11.5h-1.5V210l-3.3,9.6h-1.4
		l-3.3-9.8v9.8H20.4z"/>
	<path d="M33.1,215.4c0-1.5,0.4-2.7,1.3-3.4c0.7-0.6,1.6-0.9,2.6-0.9c1.1,0,2.1,0.4,2.8,1.1c0.7,0.7,1.1,1.8,1.1,3.1
		c0,1.1-0.2,1.9-0.5,2.5s-0.8,1.1-1.4,1.4c-0.6,0.3-1.3,0.5-2,0.5c-1.2,0-2.1-0.4-2.8-1.1C33.4,217.9,33.1,216.8,33.1,215.4z
		 M34.5,215.4c0,1.1,0.2,1.9,0.7,2.4c0.5,0.5,1,0.8,1.8,0.8c0.7,0,1.3-0.3,1.7-0.8c0.5-0.5,0.7-1.3,0.7-2.4c0-1-0.2-1.8-0.7-2.3
		c-0.5-0.5-1-0.8-1.7-0.8c-0.7,0-1.3,0.3-1.8,0.8C34.8,213.6,34.5,214.4,34.5,215.4z"/>
	<path d="M47.9,219.6v-1c-0.5,0.8-1.3,1.2-2.3,1.2c-0.7,0-1.3-0.2-1.8-0.5s-1-0.9-1.3-1.5s-0.5-1.4-0.5-2.3c0-0.8,0.1-1.6,0.4-2.3
		c0.3-0.7,0.7-1.2,1.2-1.6c0.6-0.4,1.2-0.5,1.9-0.5c0.5,0,0.9,0.1,1.3,0.3s0.7,0.5,1,0.8v-4.1h1.4v11.5H47.9z M43.4,215.5
		c0,1.1,0.2,1.9,0.7,2.4c0.4,0.5,1,0.8,1.6,0.8c0.6,0,1.1-0.3,1.6-0.8s0.6-1.3,0.6-2.3c0-1.1-0.2-2-0.7-2.5s-1-0.8-1.6-0.8
		c-0.6,0-1.1,0.3-1.6,0.8C43.6,213.6,43.4,214.4,43.4,215.5z"/>
	<path d="M57.1,216.9l1.5,0.2c-0.2,0.8-0.7,1.5-1.3,2c-0.6,0.5-1.4,0.7-2.4,0.7c-1.2,0-2.2-0.4-2.9-1.1s-1.1-1.8-1.1-3.1
		c0-1.4,0.4-2.5,1.1-3.2s1.7-1.2,2.8-1.2c1.1,0,2,0.4,2.7,1.1s1.1,1.8,1.1,3.2c0,0.1,0,0.2,0,0.4h-6.2c0.1,0.9,0.3,1.6,0.8,2.1
		c0.5,0.5,1,0.7,1.7,0.7c0.5,0,1-0.1,1.3-0.4C56.6,217.9,56.9,217.5,57.1,216.9z M52.5,214.6h4.6c-0.1-0.7-0.2-1.2-0.5-1.6
		c-0.4-0.5-1-0.8-1.7-0.8c-0.6,0-1.2,0.2-1.6,0.6C52.7,213.3,52.5,213.9,52.5,214.6z"/>
	<path d="M60.3,219.6v-11.5h1.4v11.5H60.3z"/>
	<path d="M73.2,219.6h-1.4v-9c-0.3,0.3-0.8,0.6-1.3,1c-0.5,0.3-1,0.6-1.5,0.7V211c0.8-0.4,1.5-0.8,2.1-1.3c0.6-0.5,1-1,1.2-1.5h0.9
		V219.6z"/>
	<path d="M77.6,212.9v-1.6h1.6v1.6H77.6z M77.6,219.6V218h1.6v1.6H77.6z"/>
	<path d="M85.7,215.9l1.4-0.1c0.1,0.6,0.2,1,0.5,1.4c0.2,0.4,0.6,0.7,1.2,0.9c0.5,0.2,1.1,0.3,1.8,0.3c0.6,0,1.1-0.1,1.5-0.3
		c0.4-0.2,0.8-0.4,1-0.7c0.2-0.3,0.3-0.6,0.3-1c0-0.4-0.1-0.7-0.3-0.9c-0.2-0.3-0.6-0.5-1-0.7c-0.3-0.1-1-0.3-2-0.6
		c-1.1-0.3-1.8-0.5-2.2-0.7c-0.5-0.3-1-0.6-1.2-1.1c-0.3-0.4-0.4-0.9-0.4-1.4c0-0.6,0.2-1.1,0.5-1.6s0.8-0.9,1.4-1.1
		c0.6-0.3,1.3-0.4,2.1-0.4c0.8,0,1.6,0.1,2.2,0.4s1.1,0.7,1.5,1.2c0.3,0.5,0.5,1.1,0.6,1.8l-1.5,0.1c-0.1-0.7-0.3-1.3-0.8-1.6
		c-0.5-0.4-1.1-0.6-2-0.6c-0.9,0-1.6,0.2-2,0.5c-0.4,0.3-0.6,0.7-0.6,1.2c0,0.4,0.1,0.8,0.4,1c0.3,0.3,1.1,0.5,2.3,0.8
		c1.2,0.3,2.1,0.5,2.5,0.7c0.7,0.3,1.2,0.7,1.5,1.2c0.3,0.5,0.5,1,0.5,1.6c0,0.6-0.2,1.2-0.5,1.7c-0.3,0.5-0.9,1-1.5,1.3
		c-0.7,0.3-1.4,0.4-2.2,0.4c-1,0-1.9-0.2-2.6-0.5c-0.7-0.3-1.2-0.8-1.6-1.4S85.8,216.7,85.7,215.9z"/>
	<path d="M102.4,216.9l1.5,0.2c-0.2,0.8-0.7,1.5-1.3,2c-0.6,0.5-1.4,0.7-2.4,0.7c-1.2,0-2.2-0.4-2.9-1.1s-1.1-1.8-1.1-3.1
		c0-1.4,0.4-2.5,1.1-3.2s1.7-1.2,2.8-1.2c1.1,0,2,0.4,2.7,1.1s1.1,1.8,1.1,3.2c0,0.1,0,0.2,0,0.4h-6.2c0.1,0.9,0.3,1.6,0.8,2.1
		c0.5,0.5,1,0.7,1.7,0.7c0.5,0,1-0.1,1.3-0.4C101.9,217.9,102.2,217.5,102.4,216.9z M97.8,214.6h4.6c-0.1-0.7-0.2-1.2-0.5-1.6
		c-0.4-0.5-1-0.8-1.7-0.8c-0.6,0-1.2,0.2-1.6,0.6C98.1,213.3,97.9,213.9,97.8,214.6z"/>
	<path d="M105.7,222.8v-11.5h1.3v1.1c0.3-0.4,0.6-0.7,1-0.9c0.4-0.2,0.8-0.3,1.4-0.3c0.7,0,1.3,0.2,1.9,0.5c0.5,0.4,1,0.9,1.2,1.5
		c0.3,0.7,0.4,1.4,0.4,2.2c0,0.8-0.2,1.6-0.5,2.3s-0.7,1.2-1.3,1.6c-0.6,0.4-1.2,0.5-1.8,0.5c-0.5,0-0.9-0.1-1.3-0.3
		c-0.4-0.2-0.7-0.4-0.9-0.8v4H105.7z M106.9,215.5c0,1.1,0.2,1.9,0.6,2.4c0.4,0.5,1,0.8,1.6,0.8c0.6,0,1.2-0.3,1.6-0.8
		s0.7-1.3,0.7-2.5c0-1.1-0.2-1.8-0.7-2.4c-0.4-0.5-1-0.8-1.6-0.8c-0.6,0-1.1,0.3-1.6,0.8S106.9,214.4,106.9,215.5z"/>
	<path d="M120,218.6c-0.5,0.4-1,0.8-1.5,0.9c-0.5,0.2-1,0.3-1.6,0.3c-0.9,0-1.6-0.2-2.1-0.7c-0.5-0.4-0.7-1-0.7-1.7
		c0-0.4,0.1-0.8,0.3-1.1c0.2-0.3,0.4-0.6,0.7-0.8c0.3-0.2,0.6-0.4,1-0.5c0.3-0.1,0.7-0.1,1.2-0.2c1.1-0.1,2-0.3,2.5-0.5
		c0-0.2,0-0.3,0-0.4c0-0.6-0.1-1-0.4-1.2c-0.4-0.3-0.9-0.5-1.6-0.5c-0.7,0-1.1,0.1-1.5,0.3c-0.3,0.2-0.5,0.6-0.7,1.2l-1.4-0.2
		c0.1-0.6,0.3-1.1,0.6-1.4c0.3-0.4,0.7-0.6,1.2-0.8c0.5-0.2,1.2-0.3,1.9-0.3c0.7,0,1.3,0.1,1.7,0.2c0.4,0.2,0.8,0.4,1,0.6
		c0.2,0.3,0.4,0.6,0.4,1c0,0.2,0.1,0.7,0.1,1.3v1.9c0,1.3,0,2.1,0.1,2.5c0.1,0.3,0.2,0.7,0.4,1h-1.5C120.1,219.3,120,219,120,218.6z
		 M119.8,215.4c-0.5,0.2-1.3,0.4-2.3,0.5c-0.6,0.1-1,0.2-1.2,0.3c-0.2,0.1-0.4,0.3-0.6,0.5c-0.1,0.2-0.2,0.4-0.2,0.7
		c0,0.4,0.1,0.7,0.4,0.9c0.3,0.2,0.7,0.4,1.2,0.4c0.5,0,1-0.1,1.4-0.4s0.7-0.6,0.9-1c0.2-0.3,0.2-0.8,0.2-1.4V215.4z"/>
	<path d="M123.4,219.6v-8.3h1.3v1.3c0.3-0.6,0.6-1,0.9-1.2s0.6-0.3,0.9-0.3c0.5,0,1,0.2,1.4,0.5l-0.5,1.3c-0.3-0.2-0.7-0.3-1-0.3
		c-0.3,0-0.6,0.1-0.8,0.3c-0.2,0.2-0.4,0.4-0.5,0.8c-0.2,0.5-0.2,1-0.2,1.6v4.3H123.4z"/>
	<path d="M134.2,218.6c-0.5,0.4-1,0.8-1.5,0.9c-0.5,0.2-1,0.3-1.6,0.3c-0.9,0-1.6-0.2-2.1-0.7c-0.5-0.4-0.7-1-0.7-1.7
		c0-0.4,0.1-0.8,0.3-1.1c0.2-0.3,0.4-0.6,0.7-0.8c0.3-0.2,0.6-0.4,1-0.5c0.3-0.1,0.7-0.1,1.2-0.2c1.1-0.1,2-0.3,2.5-0.5
		c0-0.2,0-0.3,0-0.4c0-0.6-0.1-1-0.4-1.2c-0.4-0.3-0.9-0.5-1.6-0.5c-0.7,0-1.1,0.1-1.5,0.3c-0.3,0.2-0.5,0.6-0.7,1.2l-1.4-0.2
		c0.1-0.6,0.3-1.1,0.6-1.4c0.3-0.4,0.7-0.6,1.2-0.8c0.5-0.2,1.2-0.3,1.9-0.3c0.7,0,1.3,0.1,1.7,0.2c0.4,0.2,0.8,0.4,1,0.6
		c0.2,0.3,0.4,0.6,0.4,1c0,0.2,0.1,0.7,0.1,1.3v1.9c0,1.3,0,2.1,0.1,2.5c0.1,0.3,0.2,0.7,0.4,1h-1.5
		C134.3,219.3,134.2,219,134.2,218.6z M134.1,215.4c-0.5,0.2-1.3,0.4-2.3,0.5c-0.6,0.1-1,0.2-1.2,0.3c-0.2,0.1-0.4,0.3-0.6,0.5
		c-0.1,0.2-0.2,0.4-0.2,0.7c0,0.4,0.1,0.7,0.4,0.9c0.3,0.2,0.7,0.4,1.2,0.4c0.5,0,1-0.1,1.4-0.4s0.7-0.6,0.9-1
		c0.2-0.3,0.2-0.8,0.2-1.4V215.4z"/>
	<path d="M140.7,218.3l0.2,1.2c-0.4,0.1-0.8,0.1-1.1,0.1c-0.5,0-0.9-0.1-1.2-0.2s-0.5-0.4-0.6-0.6c-0.1-0.3-0.2-0.8-0.2-1.7v-4.8h-1
		v-1.1h1v-2.1l1.4-0.8v2.9h1.4v1.1h-1.4v4.9c0,0.4,0,0.7,0.1,0.8c0,0.1,0.1,0.2,0.2,0.3c0.1,0.1,0.3,0.1,0.5,0.1
		C140.3,218.4,140.5,218.4,140.7,218.3z"/>
	<path d="M147.8,216.9l1.5,0.2c-0.2,0.8-0.7,1.5-1.3,2c-0.6,0.5-1.4,0.7-2.4,0.7c-1.2,0-2.2-0.4-2.9-1.1s-1.1-1.8-1.1-3.1
		c0-1.4,0.4-2.5,1.1-3.2s1.7-1.2,2.8-1.2c1.1,0,2,0.4,2.7,1.1s1.1,1.8,1.1,3.2c0,0.1,0,0.2,0,0.4h-6.2c0.1,0.9,0.3,1.6,0.8,2.1
		c0.5,0.5,1,0.7,1.7,0.7c0.5,0,1-0.1,1.3-0.4C147.3,217.9,147.6,217.5,147.8,216.9z M143.2,214.6h4.6c-0.1-0.7-0.2-1.2-0.5-1.6
		c-0.4-0.5-1-0.8-1.7-0.8c-0.6,0-1.2,0.2-1.6,0.6C143.5,213.3,143.2,213.9,143.2,214.6z"/>
	<path d="M154.9,215.4c0-1.5,0.4-2.7,1.3-3.4c0.7-0.6,1.6-0.9,2.6-0.9c1.1,0,2.1,0.4,2.8,1.1c0.7,0.7,1.1,1.8,1.1,3.1
		c0,1.1-0.2,1.9-0.5,2.5s-0.8,1.1-1.4,1.4c-0.6,0.3-1.3,0.5-2,0.5c-1.2,0-2.1-0.4-2.8-1.1C155.3,217.9,154.9,216.8,154.9,215.4z
		 M156.4,215.4c0,1.1,0.2,1.9,0.7,2.4c0.5,0.5,1,0.8,1.8,0.8c0.7,0,1.3-0.3,1.7-0.8c0.5-0.5,0.7-1.3,0.7-2.4c0-1-0.2-1.8-0.7-2.3
		c-0.5-0.5-1-0.8-1.7-0.8c-0.7,0-1.3,0.3-1.8,0.8C156.6,213.6,156.4,214.4,156.4,215.4z"/>
	<path d="M169.8,219.6v-1.2c-0.6,0.9-1.5,1.4-2.6,1.4c-0.5,0-0.9-0.1-1.4-0.3c-0.4-0.2-0.7-0.4-0.9-0.7c-0.2-0.3-0.4-0.6-0.4-1
		c-0.1-0.3-0.1-0.7-0.1-1.3v-5.1h1.4v4.6c0,0.7,0,1.2,0.1,1.5c0.1,0.4,0.3,0.7,0.6,0.9c0.3,0.2,0.6,0.3,1.1,0.3s0.8-0.1,1.2-0.3
		c0.4-0.2,0.6-0.5,0.8-0.9c0.2-0.4,0.2-0.9,0.2-1.6v-4.4h1.4v8.3H169.8z"/>
	<path d="M176.3,218.3l0.2,1.2c-0.4,0.1-0.8,0.1-1.1,0.1c-0.5,0-0.9-0.1-1.2-0.2s-0.5-0.4-0.6-0.6c-0.1-0.3-0.2-0.8-0.2-1.7v-4.8h-1
		v-1.1h1v-2.1l1.4-0.8v2.9h1.4v1.1h-1.4v4.9c0,0.4,0,0.7,0.1,0.8c0,0.1,0.1,0.2,0.2,0.3c0.1,0.1,0.3,0.1,0.5,0.1
		C175.9,218.4,176.1,218.4,176.3,218.3z"/>
	<path d="M177.7,222.8v-11.5h1.3v1.1c0.3-0.4,0.6-0.7,1-0.9c0.4-0.2,0.8-0.3,1.4-0.3c0.7,0,1.3,0.2,1.9,0.5c0.5,0.4,1,0.9,1.2,1.5
		c0.3,0.7,0.4,1.4,0.4,2.2c0,0.8-0.2,1.6-0.5,2.3s-0.7,1.2-1.3,1.6c-0.6,0.4-1.2,0.5-1.8,0.5c-0.5,0-0.9-0.1-1.3-0.3
		c-0.4-0.2-0.7-0.4-0.9-0.8v4H177.7z M179,215.5c0,1.1,0.2,1.9,0.6,2.4c0.4,0.5,1,0.8,1.6,0.8c0.6,0,1.2-0.3,1.6-0.8
		s0.7-1.3,0.7-2.5c0-1.1-0.2-1.8-0.7-2.4c-0.4-0.5-1-0.8-1.6-0.8c-0.6,0-1.1,0.3-1.6,0.8S179,214.4,179,215.5z"/>
	<path d="M192,219.6v-1.2c-0.6,0.9-1.5,1.4-2.6,1.4c-0.5,0-0.9-0.1-1.4-0.3c-0.4-0.2-0.7-0.4-0.9-0.7c-0.2-0.3-0.4-0.6-0.4-1
		c-0.1-0.3-0.1-0.7-0.1-1.3v-5.1h1.4v4.6c0,0.7,0,1.2,0.1,1.5c0.1,0.4,0.3,0.7,0.6,0.9c0.3,0.2,0.6,0.3,1.1,0.3s0.8-0.1,1.2-0.3
		c0.4-0.2,0.6-0.5,0.8-0.9c0.2-0.4,0.2-0.9,0.2-1.6v-4.4h1.4v8.3H192z"/>
	<path d="M198.6,218.3l0.2,1.2c-0.4,0.1-0.8,0.1-1.1,0.1c-0.5,0-0.9-0.1-1.2-0.2s-0.5-0.4-0.6-0.6c-0.1-0.3-0.2-0.8-0.2-1.7v-4.8h-1
		v-1.1h1v-2.1l1.4-0.8v2.9h1.4v1.1h-1.4v4.9c0,0.4,0,0.7,0.1,0.8c0,0.1,0.1,0.2,0.2,0.3c0.1,0.1,0.3,0.1,0.5,0.1
		C198.1,218.4,198.3,218.4,198.6,218.3z"/>
	<path d="M199.4,217.1l1.4-0.2c0.1,0.6,0.3,1,0.7,1.3c0.4,0.3,0.9,0.4,1.5,0.4c0.6,0,1.1-0.1,1.4-0.4s0.5-0.6,0.5-0.9
		c0-0.3-0.1-0.6-0.4-0.8c-0.2-0.1-0.7-0.3-1.4-0.5c-1-0.3-1.7-0.5-2.1-0.7s-0.7-0.5-0.9-0.8c-0.2-0.3-0.3-0.7-0.3-1.1
		c0-0.4,0.1-0.7,0.3-1c0.2-0.3,0.4-0.6,0.7-0.8c0.2-0.2,0.5-0.3,0.9-0.4c0.4-0.1,0.8-0.2,1.2-0.2c0.7,0,1.2,0.1,1.7,0.3
		s0.9,0.4,1.1,0.8s0.4,0.7,0.5,1.3l-1.4,0.2c-0.1-0.4-0.2-0.8-0.5-1c-0.3-0.2-0.7-0.4-1.3-0.4c-0.6,0-1.1,0.1-1.4,0.3
		c-0.3,0.2-0.4,0.5-0.4,0.8c0,0.2,0.1,0.3,0.2,0.5c0.1,0.2,0.3,0.3,0.5,0.4c0.1,0.1,0.6,0.2,1.2,0.4c1,0.3,1.7,0.5,2.1,0.7
		c0.4,0.2,0.7,0.4,0.9,0.7c0.2,0.3,0.3,0.7,0.3,1.2c0,0.5-0.1,0.9-0.4,1.3s-0.7,0.7-1.2,1s-1.1,0.3-1.8,0.3c-1.1,0-1.9-0.2-2.5-0.7
		C199.9,218.7,199.5,218,199.4,217.1z"/>
</g>
<g>
	<path d="M497.8,219.6v-11.5h2.3l2.7,8.1c0.2,0.8,0.4,1.3,0.5,1.7c0.1-0.4,0.3-1,0.6-1.8l2.7-8h2v11.5h-1.5V210l-3.3,9.6h-1.4
		l-3.3-9.8v9.8H497.8z"/>
	<path d="M510.5,215.4c0-1.5,0.4-2.7,1.3-3.4c0.7-0.6,1.6-0.9,2.6-0.9c1.1,0,2.1,0.4,2.8,1.1s1.1,1.8,1.1,3.1c0,1.1-0.2,1.9-0.5,2.5
		s-0.8,1.1-1.4,1.4s-1.3,0.5-2,0.5c-1.2,0-2.1-0.4-2.8-1.1S510.5,216.8,510.5,215.4z M512,215.4c0,1.1,0.2,1.9,0.7,2.4
		s1,0.8,1.8,0.8c0.7,0,1.3-0.3,1.7-0.8s0.7-1.3,0.7-2.4c0-1-0.2-1.8-0.7-2.3s-1-0.8-1.7-0.8c-0.7,0-1.3,0.3-1.8,0.8
		S512,214.4,512,215.4z"/>
	<path d="M525.3,219.6v-1c-0.5,0.8-1.3,1.2-2.3,1.2c-0.7,0-1.3-0.2-1.8-0.5s-1-0.9-1.3-1.5s-0.5-1.4-0.5-2.3c0-0.8,0.1-1.6,0.4-2.3
		s0.7-1.2,1.2-1.6s1.2-0.5,1.9-0.5c0.5,0,0.9,0.1,1.3,0.3s0.7,0.5,1,0.8v-4.1h1.4v11.5H525.3z M520.9,215.5c0,1.1,0.2,1.9,0.7,2.4
		s1,0.8,1.6,0.8c0.6,0,1.1-0.3,1.6-0.8s0.6-1.3,0.6-2.3c0-1.1-0.2-2-0.7-2.5s-1-0.8-1.6-0.8c-0.6,0-1.1,0.3-1.6,0.8
		S520.9,214.4,520.9,215.5z"/>
	<path d="M534.5,216.9l1.5,0.2c-0.2,0.8-0.7,1.5-1.3,2s-1.4,0.7-2.4,0.7c-1.2,0-2.2-0.4-2.9-1.1s-1.1-1.8-1.1-3.1
		c0-1.4,0.4-2.5,1.1-3.2s1.7-1.2,2.8-1.2c1.1,0,2,0.4,2.7,1.1s1.1,1.8,1.1,3.2c0,0.1,0,0.2,0,0.4h-6.2c0.1,0.9,0.3,1.6,0.8,2.1
		s1,0.7,1.7,0.7c0.5,0,1-0.1,1.3-0.4S534.3,217.5,534.5,216.9z M529.9,214.7h4.6c-0.1-0.7-0.2-1.2-0.5-1.6c-0.4-0.5-1-0.8-1.7-0.8
		c-0.6,0-1.2,0.2-1.6,0.6S529.9,213.9,529.9,214.7z"/>
	<path d="M537.7,219.6v-11.5h1.4v11.5H537.7z"/>
	<path d="M545.3,216.6l1.4-0.2c0.2,0.8,0.4,1.4,0.8,1.7s0.9,0.5,1.4,0.5c0.7,0,1.2-0.2,1.7-0.7s0.7-1,0.7-1.7c0-0.6-0.2-1.2-0.6-1.6
		s-1-0.6-1.6-0.6c-0.3,0-0.6,0.1-1,0.2l0.2-1.2c0.1,0,0.2,0,0.2,0c0.6,0,1.1-0.2,1.6-0.5s0.7-0.8,0.7-1.4c0-0.5-0.2-0.9-0.5-1.3
		s-0.8-0.5-1.4-0.5c-0.5,0-1,0.2-1.4,0.5s-0.6,0.9-0.7,1.5l-1.4-0.2c0.2-0.9,0.6-1.7,1.2-2.2s1.4-0.8,2.3-0.8c0.6,0,1.2,0.1,1.7,0.4
		s0.9,0.6,1.2,1.1s0.4,1,0.4,1.5c0,0.5-0.1,0.9-0.4,1.4s-0.7,0.7-1.2,1c0.7,0.2,1.2,0.5,1.6,1s0.6,1.1,0.6,1.8c0,1-0.4,1.8-1.1,2.5
		s-1.7,1-2.8,1c-1,0-1.8-0.3-2.5-0.9S545.4,217.5,545.3,216.6z"/>
	<path d="M555,212.9v-1.6h1.6v1.6H555z M555,219.6V218h1.6v1.6H555z"/>
	<path d="M563.7,219.6v-11.5h3.9c0.9,0,1.6,0.1,2,0.2c0.7,0.2,1.2,0.4,1.7,0.8c0.6,0.5,1.1,1.2,1.4,2s0.4,1.7,0.4,2.7
		c0,0.9-0.1,1.6-0.3,2.3s-0.5,1.2-0.8,1.7s-0.7,0.8-1,1s-0.8,0.4-1.4,0.6s-1.1,0.2-1.8,0.2H563.7z M565.2,218.2h2.4
		c0.8,0,1.3-0.1,1.8-0.2s0.8-0.3,1-0.6c0.4-0.4,0.6-0.8,0.8-1.4s0.3-1.3,0.3-2.2c0-1.2-0.2-2.1-0.6-2.8s-0.9-1.1-1.4-1.3
		c-0.4-0.2-1.1-0.2-2-0.2h-2.4V218.2z"/>
	<path d="M575,222.8l-0.2-1.3c0.3,0.1,0.6,0.1,0.8,0.1c0.3,0,0.6-0.1,0.8-0.2s0.3-0.2,0.5-0.4c0.1-0.1,0.2-0.5,0.4-1
		c0-0.1,0.1-0.2,0.1-0.3l-3.1-8.3h1.5l1.7,4.8c0.2,0.6,0.4,1.2,0.6,1.9c0.2-0.6,0.4-1.3,0.6-1.9l1.8-4.8h1.4l-3.2,8.4
		c-0.3,0.9-0.6,1.5-0.8,1.9c-0.2,0.5-0.5,0.8-0.9,1s-0.7,0.3-1.2,0.3C575.6,223,575.3,222.9,575,222.8z"/>
	<path d="M583.1,219.6v-8.3h1.3v1.2c0.6-0.9,1.5-1.4,2.6-1.4c0.5,0,1,0.1,1.4,0.3s0.7,0.4,0.9,0.7s0.4,0.6,0.4,1
		c0.1,0.3,0.1,0.7,0.1,1.4v5.1h-1.4v-5c0-0.6-0.1-1-0.2-1.3s-0.3-0.5-0.6-0.7s-0.6-0.3-1-0.3c-0.6,0-1.1,0.2-1.6,0.6
		s-0.7,1.1-0.7,2.2v4.5H583.1z"/>
	<path d="M597.4,218.6c-0.5,0.4-1,0.8-1.5,0.9s-1,0.3-1.6,0.3c-0.9,0-1.6-0.2-2.1-0.7s-0.7-1-0.7-1.7c0-0.4,0.1-0.8,0.3-1.1
		s0.4-0.6,0.7-0.8s0.6-0.4,1-0.5c0.3-0.1,0.7-0.1,1.2-0.2c1.1-0.1,2-0.3,2.5-0.5c0-0.2,0-0.3,0-0.4c0-0.6-0.1-1-0.4-1.2
		c-0.4-0.3-0.9-0.5-1.6-0.5c-0.7,0-1.1,0.1-1.5,0.3s-0.5,0.6-0.7,1.2l-1.4-0.2c0.1-0.6,0.3-1.1,0.6-1.4s0.7-0.6,1.2-0.8
		s1.2-0.3,1.9-0.3c0.7,0,1.3,0.1,1.7,0.2s0.8,0.4,1,0.6s0.4,0.6,0.4,1c0,0.2,0.1,0.7,0.1,1.3v1.9c0,1.3,0,2.1,0.1,2.5s0.2,0.7,0.4,1
		h-1.5C597.5,219.3,597.4,219,597.4,218.6z M597.3,215.4c-0.5,0.2-1.3,0.4-2.3,0.5c-0.6,0.1-1,0.2-1.2,0.3s-0.4,0.3-0.6,0.5
		s-0.2,0.4-0.2,0.7c0,0.4,0.1,0.7,0.4,0.9s0.7,0.4,1.2,0.4c0.5,0,1-0.1,1.4-0.4s0.7-0.6,0.9-1c0.2-0.3,0.2-0.8,0.2-1.4V215.4z"/>
	<path d="M600.9,219.6v-8.3h1.3v1.2c0.3-0.4,0.6-0.7,1-1s0.9-0.4,1.5-0.4c0.6,0,1.1,0.1,1.5,0.4s0.7,0.6,0.8,1.1
		c0.7-1,1.5-1.5,2.6-1.5c0.8,0,1.5,0.2,1.9,0.7s0.7,1.2,0.7,2.1v5.7h-1.4v-5.2c0-0.6,0-1-0.1-1.2s-0.3-0.4-0.5-0.6s-0.5-0.2-0.8-0.2
		c-0.6,0-1.1,0.2-1.5,0.6s-0.6,1-0.6,1.9v4.8h-1.4v-5.4c0-0.6-0.1-1.1-0.3-1.4s-0.6-0.5-1.1-0.5c-0.4,0-0.8,0.1-1.1,0.3
		s-0.6,0.5-0.7,0.9s-0.2,1-0.2,1.7v4.3H600.9z"/>
	<path d="M614.2,209.8v-1.6h1.4v1.6H614.2z M614.2,219.6v-8.3h1.4v8.3H614.2z"/>
	<path d="M623.2,216.6l1.4,0.2c-0.2,1-0.5,1.7-1.2,2.2s-1.4,0.8-2.3,0.8c-1.1,0-2-0.4-2.7-1.1s-1-1.8-1-3.2c0-0.9,0.1-1.7,0.4-2.4
		s0.7-1.2,1.4-1.5s1.3-0.5,2-0.5c0.9,0,1.6,0.2,2.2,0.7s0.9,1.1,1.1,1.9l-1.4,0.2c-0.1-0.6-0.4-1-0.7-1.3s-0.7-0.4-1.2-0.4
		c-0.7,0-1.3,0.3-1.7,0.8s-0.7,1.3-0.7,2.4c0,1.1,0.2,1.9,0.6,2.4s1,0.8,1.7,0.8c0.6,0,1-0.2,1.4-0.5S623.1,217.3,623.2,216.6z"/>
	<path d="M630.5,219.6v-7.2h-1.2v-1.1h1.2v-0.9c0-0.6,0-1,0.1-1.2c0.1-0.4,0.4-0.7,0.7-0.9s0.8-0.3,1.4-0.3c0.4,0,0.8,0,1.3,0.1
		l-0.2,1.2c-0.3-0.1-0.6-0.1-0.8-0.1c-0.4,0-0.7,0.1-0.9,0.3s-0.3,0.5-0.3,1v0.8h1.6v1.1h-1.6v7.2H630.5z"/>
	<path d="M634.6,209.8v-1.6h1.4v1.6H634.6z M634.6,219.6v-8.3h1.4v8.3H634.6z"/>
	<path d="M638.2,219.6v-11.5h1.4v11.5H638.2z"/>
	<path d="M644.8,218.3l0.2,1.2c-0.4,0.1-0.8,0.1-1.1,0.1c-0.5,0-0.9-0.1-1.2-0.2s-0.5-0.4-0.6-0.6s-0.2-0.8-0.2-1.7v-4.8h-1v-1.1h1
		v-2.1l1.4-0.8v2.9h1.4v1.1h-1.4v4.9c0,0.4,0,0.7,0.1,0.8s0.1,0.2,0.2,0.3s0.3,0.1,0.5,0.1C644.4,218.4,644.6,218.4,644.8,218.3z"/>
	<path d="M651.9,216.9l1.5,0.2c-0.2,0.8-0.7,1.5-1.3,2s-1.4,0.7-2.4,0.7c-1.2,0-2.2-0.4-2.9-1.1s-1.1-1.8-1.1-3.1
		c0-1.4,0.4-2.5,1.1-3.2s1.7-1.2,2.8-1.2c1.1,0,2,0.4,2.7,1.1s1.1,1.8,1.1,3.2c0,0.1,0,0.2,0,0.4h-6.2c0.1,0.9,0.3,1.6,0.8,2.1
		s1,0.7,1.7,0.7c0.5,0,1-0.1,1.3-0.4S651.7,217.5,651.9,216.9z M647.3,214.7h4.6c-0.1-0.7-0.2-1.2-0.5-1.6c-0.4-0.5-1-0.8-1.7-0.8
		c-0.6,0-1.2,0.2-1.6,0.6S647.3,213.9,647.3,214.7z"/>
	<path d="M655.1,219.6v-8.3h1.3v1.3c0.3-0.6,0.6-1,0.9-1.2s0.6-0.3,0.9-0.3c0.5,0,1,0.2,1.4,0.5l-0.5,1.3c-0.3-0.2-0.7-0.3-1-0.3
		c-0.3,0-0.6,0.1-0.8,0.3s-0.4,0.4-0.5,0.8c-0.2,0.5-0.2,1-0.2,1.6v4.3H655.1z"/>
	<path d="M660.4,209.8v-1.6h1.4v1.6H660.4z M660.4,219.6v-8.3h1.4v8.3H660.4z"/>
	<path d="M664,219.6v-8.3h1.3v1.2c0.6-0.9,1.5-1.4,2.6-1.4c0.5,0,1,0.1,1.4,0.3s0.7,0.4,0.9,0.7s0.4,0.6,0.4,1
		c0.1,0.3,0.1,0.7,0.1,1.4v5.1h-1.4v-5c0-0.6-0.1-1-0.2-1.3s-0.3-0.5-0.6-0.7s-0.6-0.3-1-0.3c-0.6,0-1.1,0.2-1.6,0.6
		s-0.7,1.1-0.7,2.2v4.5H664z"/>
	<path d="M672.6,220.3l1.4,0.2c0.1,0.4,0.2,0.7,0.5,0.9c0.3,0.3,0.8,0.4,1.4,0.4c0.7,0,1.2-0.1,1.5-0.4s0.6-0.6,0.7-1.1
		c0.1-0.3,0.1-0.9,0.1-1.8c-0.6,0.7-1.4,1.1-2.3,1.1c-1.1,0-2-0.4-2.6-1.2s-0.9-1.8-0.9-3c0-0.8,0.1-1.5,0.4-2.2s0.7-1.2,1.2-1.6
		s1.2-0.5,1.9-0.5c1,0,1.8,0.4,2.4,1.2v-1h1.3v7.2c0,1.3-0.1,2.2-0.4,2.7s-0.7,1-1.2,1.3s-1.3,0.5-2.1,0.5c-1,0-1.8-0.2-2.4-0.7
		S672.6,221.2,672.6,220.3z M673.8,215.3c0,1.1,0.2,1.9,0.6,2.4s1,0.8,1.6,0.8c0.6,0,1.2-0.2,1.6-0.7s0.7-1.3,0.7-2.3
		c0-1-0.2-1.8-0.7-2.3s-1-0.8-1.6-0.8c-0.6,0-1.2,0.3-1.6,0.8S673.8,214.3,673.8,215.3z"/>
</g>
</svg>
