<?xml version="1.0" encoding="UTF-8" standalone="no"?>
<!DOCTYPE svg PUBLIC "-//W3C//DTD SVG 1.0//EN" "http://www.w3.org/TR/2001/REC-SVG-20010904/DTD/svg10.dtd">
<!-- Generated by Microsoft Visio 11.0, SVG Export, v1.0 text translation workflow.svg Page-1 -->
<svg xmlns="http://www.w3.org/2000/svg" xmlns:xlink="http://www.w3.org/1999/xlink" xmlns:ev="http://www.w3.org/2001/xml-events"
		xmlns:v="http://schemas.microsoft.com/visio/2003/SVGExtensions/" width="7.698in" height="0.621636in"
		viewBox="0 0 554.256 44.7578" xml:space="preserve" color-interpolation-filters="sRGB" class="st8">
	<v:documentProperties v:langID="2057" v:metric="true" v:viewMarkup="false">
		<v:userDefs>
			<v:ud v:nameU="msvNoAutoConnect" v:val="VT0(1):26"/>
		</v:userDefs>
	</v:documentProperties>

	<style type="text/css">
	<![CDATA[
		.st1 {fill:#ffffff;stroke:#000000;stroke-linecap:round;stroke-linejoin:round;stroke-width:0.75}
		.st2 {fill:#000000;font-family:Arial;font-size:1.00001em}
		.st3 {fill:#000000;stroke:none;stroke-linecap:butt;stroke-width:6.12}
		.st4 {fill:#000000;stroke:none;stroke-linecap:butt;stroke-width:6.8}
		.st5 {fill:#000000;stroke:none;stroke-linecap:butt;stroke-width:6.79982}
		.st6 {marker-end:url(#mrkr13-55);stroke:#000000;stroke-linecap:round;stroke-linejoin:round;stroke-width:0.75}
		.st7 {fill:#000000;fill-opacity:1;stroke:#000000;stroke-opacity:1;stroke-width:0.22935779816514}
		.st8 {fill:none;fill-rule:evenodd;font-size:12px;overflow:visible;stroke-linecap:square;stroke-miterlimit:3}
	]]>
	</style>

	<defs id="Markers">
		<g id="lend13">
			<path d="M 3 1 L 0 0 L 3 -1 L 3 1 " style="stroke:none"/>
		</g>
		<marker id="mrkr13-55" class="st7" v:arrowType="13" v:arrowSize="2" v:setback="13.08" refX="-13.08" orient="auto"
				markerUnits="strokeWidth" overflow="visible">
			<use xlink:href="#lend13" transform="scale(-4.36,-4.36) "/>
		</marker>
	</defs>
	<g v:mID="0" v:index="1" v:groupContext="foregroundPage">
		<title>Page-1</title>
		<v:pageProperties v:drawingScale="0.0393701" v:pageScale="0.0393701" v:drawingUnits="24" v:shadowOffsetX="8.50394"
				v:shadowOffsetY="-8.50394"/>
		<g id="shape2-1" v:mID="2" v:groupContext="shape" transform="translate(114.136,-1.48811)">
			<title>Sheet.2</title>
			<desc>Extract</desc>
			<v:textBlock v:margins="rect(4,4,4,10)" v:tabSpace="42.5197"/>
			<v:textRect cx="42.5197" cy="23.4979" width="85.04" height="42.5197"/>
			<rect x="0" y="2.23811" width="85.0394" height="42.5197" class="st1"/>
			<text x="43.7" y="27.1" class="st2" v:langID="1030"><v:paragraph v:horizAlign="2"/><v:tabList/>Extract</text>		</g>
		<g id="shape3-4" v:mID="3" v:groupContext="shape" transform="translate(227.522,-1.48811)">
			<title>Sheet.3</title>
			<desc>Translate</desc>
			<v:textBlock v:margins="rect(4,4,4,10)" v:tabSpace="42.5197"/>
			<v:textRect cx="49.6063" cy="23.4979" width="99.22" height="42.5197"/>
			<rect x="0" y="2.23811" width="99.2126" height="42.5197" class="st1"/>
			<text x="45.19" y="27.1" class="st2" v:langID="1030"><v:paragraph v:horizAlign="2"/><v:tabList/>Translate</text>		</g>
		<g id="shape4-7" v:mID="4" v:groupContext="shape" transform="translate(355.081,-1.48811)">
			<title>Sheet.4</title>
			<desc>Merge</desc>
			<v:textBlock v:margins="rect(4,4,4,4)" v:tabSpace="42.5197"/>
			<v:textRect cx="42.5197" cy="23.4979" width="85.04" height="42.5197"/>
			<rect x="0" y="2.23811" width="85.0394" height="42.5197" class="st1"/>
			<text x="47.03" y="27.1" class="st2" v:langID="1030"><v:paragraph v:horizAlign="2"/><v:tabList/>Merge</text>		</g>
		<g id="shape5-10" v:mID="5" v:groupContext="shape" transform="translate(468.467,-1.48811)">
			<title>Sheet.5</title>
			<desc>Publish</desc>
			<v:textBlock v:margins="rect(4,4,4,4)" v:tabSpace="42.5197"/>
			<v:textRect cx="42.5197" cy="23.4979" width="85.04" height="42.5197"/>
			<rect x="0" y="2.23811" width="85.0394" height="42.5197" class="st1"/>
			<text x="41.68" y="27.1" class="st2" v:langID="1030"><v:paragraph v:horizAlign="2"/><v:tabList/>Publish</text>		</g>
		<g id="group13-13" transform="translate(406.925,9.9626) rotate(90)" v:mID="13" v:groupContext="group">
			<title>Sheet.13</title>
			<g id="shape14-14" v:mID="14" v:groupContext="shape">
				<title>Sheet.14</title>
				<path d="M12.05 23.02 L6.93 28.75 L9.34 28.75 L9.34 30.41 C9.34 31.63 9.35 31.15 9.34 31.59 C9.3 32.81 7.85 33.68
							 6.75 34.29 C5.22 35.13 3.42 36.14 2.1 37.78 C0.78 39.42 0 41.61 0.02 44.76 L4.25 44.75 C4.23 41.9 4.93
							 40.2 5.86 39.04 C6.79 37.88 8 37.19 9.49 36.37 C10.3 35.93 11.18 35.45 12.05 34.86 C12.91 35.45 13.8
							 35.93 14.6 36.37 C16.09 37.19 17.3 37.88 18.24 39.04 C19.17 40.2 19.87 41.9 19.85 44.75 L24.08 44.76
							 C24.09 41.61 23.31 39.42 22 37.78 C20.68 36.14 18.87 35.13 17.35 34.29 C16.24 33.68 14.8 32.81 14.76
							 31.59 C14.74 31.15 14.76 31.63 14.76 30.41 L14.76 28.75 L17.16 28.75 L12.05 23.02 Z" class="st3"/>
			</g>
		</g>
		<g id="group15-16" transform="translate(168.043,9.17109) rotate(90)" v:mID="15" v:groupContext="group">
			<title>Sheet.15</title>
			<g id="shape16-17" v:mID="16" v:groupContext="shape">
				<title>Sheet.16</title>
				<path d="M4.36 25.56 L0 30.31 L2.56 30.31 C2.57 32.82 3.24 34.58 4.34 35.91 C5.46 37.26 6.98 38.11 8.28 38.81 C9.22
							 39.31 10.45 40.03 10.49 41.04 C10.5 41.4 10.49 41 10.49 42.01 L10.49 44.76 L15.11 44.76 L15.11 42.01
							 C15.11 41 15.1 41.4 15.11 41.04 C15.14 40.03 16.37 39.31 17.31 38.81 C18.61 38.11 20.14 37.26 21.26
							 35.91 C22.35 34.58 23.01 32.82 23.03 30.31 L25.59 30.31 L21.24 25.56 L16.88 30.31 L19.43 30.31 C19.42
							 32.56 18.84 33.93 18.07 34.87 C17.27 35.83 16.25 36.4 14.98 37.08 C14.29 37.45 13.53 37.84 12.8 38.33
							 C12.06 37.84 11.3 37.45 10.61 37.08 C9.35 36.4 8.32 35.83 7.53 34.87 C6.75 33.93 6.17 32.56 6.16 30.31
							 L8.72 30.31 L4.36 25.56 Z" class="st3"/>
			</g>
		</g>
		<g id="group11-19" transform="translate(233.9,-9.99204)" v:mID="11" v:groupContext="group">
			<title>Sheet.11</title>
			<g id="group12-20" v:mID="12" v:groupContext="group">
				<title>Sheet.12</title>
				<g id="shape17-21" v:mID="17" v:groupContext="shape" transform="translate(1.4988E-013,-7.39992)">
					<title>Sheet.17</title>
					<path d="M5.83 42.56 L5.83 40.05 L3.21 40.05 C2.2 40.05 1.37 39.17 1.37 38.1 L1.37 32.45 C1.37 31.37 2.2 30.49
								 3.21 30.49 L14.92 30.49 C15.93 30.49 16.76 31.37 16.76 32.45 L16.76 38.1 C16.76 39.17 15.93 40.05
								 14.92 40.05 L14.92 41.42 C16.69 41.42 18.13 39.93 18.13 38.1 L18.13 32.45 C18.13 30.61 16.69 29.12
								 14.92 29.12 L3.21 29.12 C1.44 29.12 0 30.61 0 32.45 L0 38.1 C0 39.93 1.44 41.42 3.21 41.42 L4.46
								 41.42 L4.46 43.86 C4.46 44.23 4.7 44.57 5.06 44.7 C5.16 44.74 5.26 44.76 5.37 44.76 C5.62 44.76
								 5.86 44.65 6.03 44.45 L8.58 41.42 L11.13 41.42 L11.13 40.05 L7.95 40.05 L5.83 42.56 Z" class="st3"/>
				</g>
				<g id="shape18-23" v:mID="18" v:groupContext="shape" transform="translate(12.34,7.10543E-015)">
					<title>Sheet.18</title>
					<path d="M14.92 29.12 L6.99 29.12 L6.99 30.49 L14.92 30.49 C15.93 30.49 16.76 31.37 16.76 32.45 L16.76 38.09
								 C16.76 39.17 15.93 40.05 14.92 40.05 L12.3 40.05 L12.3 42.56 L10.19 40.05 L3.21 40.05 C2.2 40.05
								 1.37 39.17 1.37 38.1 L1.37 32.45 C1.37 31.37 2.2 30.49 3.21 30.49 L3.21 29.12 C1.44 29.12 0 30.61
								 0 32.45 L0 38.1 C0 39.93 1.44 41.42 3.21 41.42 L9.55 41.42 L12.11 44.45 C12.27 44.65 12.52 44.76
								 12.77 44.76 C12.87 44.76 12.97 44.74 13.08 44.7 C13.43 44.57 13.68 44.23 13.68 43.86 L13.68 41.42
								 L14.92 41.42 C16.69 41.42 18.13 39.93 18.13 38.09 L18.13 32.45 C18.13 30.61 16.69 29.12 14.92 29.12
								 Z" class="st3"/>
				</g>
				<g id="shape19-25" v:mID="19" v:groupContext="shape" transform="translate(5.64125,-14.3702)">
					<title>Sheet.19</title>
					<path d="M2.43 38.36 L0 44.76 L1.42 44.76 L1.93 43.33 L4.32 43.33 L4.8 44.76 L6.26 44.76 L3.87 38.36 L2.43 38.36
								 ZM2.29 42.28 L3.13 39.94 L3.15 39.94 L3.95 42.28 L2.29 42.28 Z" class="st3"/>
				</g>
				<g id="shape20-27" v:mID="20" v:groupContext="shape" transform="translate(18.3266,-6.37568)">
					<title>Sheet.20</title>
					<path d="M0 43.09 C0 43.79 0.45 44.25 1.18 44.25 C2.06 44.23 2.93 43.67 3.21 43.42 C3.49 43.17 4.25 42.29 4.59
								 41.6 C5.02 41.8 5.22 42.14 5.22 42.51 C5.22 43.32 4.44 43.78 3.2 43.93 L3.8 44.76 C5.74 44.5 6.4
								 43.69 6.4 42.5 C6.4 41.49 5.77 40.88 4.96 40.61 C4.97 40.53 5 40.46 5.01 40.38 L3.91 40.19 C3.9
								 40.3 3.88 40.32 3.86 40.43 C3.46 40.41 3.02 40.47 2.88 40.5 C2.88 40.29 2.89 39.76 2.9 39.56 C3.81
								 39.53 4.72 39.45 5.55 39.32 L5.46 38.24 C4.6 38.41 3.77 38.5 2.96 38.54 C2.98 38.32 3.01 37.71 3.01
								 37.71 L1.84 37.62 C1.83 37.92 1.82 38.27 1.81 38.58 C1.29 38.59 0.68 38.59 0.36 38.58 L0.41 39.63
								 L0.54 39.63 C0.84 39.63 1.34 39.61 1.79 39.6 C1.79 39.89 1.8 40.52 1.81 40.8 C0.75 41.24 0 42.06
								 0 43.09 ZM3.51 41.41 C3.35 41.72 3.16 42 2.96 42.24 C2.92 41.99 2.91 41.74 2.9 41.47 C2.98 41.46
								 3.31 41.41 3.51 41.41 ZM1.87 41.84 C1.9 42.26 1.95 42.66 2.01 43.03 C1.82 43.12 1.63 43.18 1.46
								 43.19 C1.09 43.2 1.09 42.97 1.09 42.86 C1.09 42.47 1.4 42.1 1.87 41.84 Z" class="st3"/>
				</g>
			</g>
		</g>
		<g id="group21-29" transform="translate(472.719,-6.12)" v:mID="21" v:groupContext="group">
			<title>Sheet.21</title>
			<g id="group22-30" v:mID="22" v:groupContext="group">
				<title>Sheet.22</title>
				<g id="shape23-31" v:mID="23" v:groupContext="shape">
					<title>Sheet.23</title>
					<path d="M20.11 14.34 L3.98 14.34 C1.78 14.34 -0 16.12 0 18.32 L0 40.78 C0 42.97 1.79 44.76 3.98 44.76 L20.11
								 44.76 C22.31 44.76 24.09 42.97 24.09 40.78 L24.09 18.32 C24.09 16.12 22.31 14.34 20.11 14.34 ZM22.38
								 18.32 L22.38 34.53 C22.38 35.78 21.36 36.8 20.11 36.8 L4.84 36.8 L4.84 16.05 L20.11 16.05 C21.36
								 16.05 22.38 17.07 22.38 18.32 ZM3.12 16.22 L3.12 36.89 C2.61 37.01 2.13 37.22 1.71 37.51 L1.71 18.32
								 C1.71 17.37 2.3 16.56 3.12 16.22 ZM20.11 43.04 L3.98 43.04 C2.73 43.04 1.71 42.03 1.71 40.78 C1.71
								 39.53 2.73 38.51 3.98 38.51 L20.11 38.51 C20.95 38.51 21.72 38.25 22.36 37.81 C22.28 38.99 21.31
								 39.92 20.11 39.92 L3.98 39.92 C3.51 39.92 3.12 40.3 3.12 40.78 C3.12 41.25 3.51 41.63 3.98 41.63
								 L20.11 41.63 C20.95 41.63 21.72 41.38 22.36 40.93 C22.28 42.11 21.31 43.04 20.11 43.04 Z"
							class="st3"/>
				</g>
				<g id="shape24-33" v:mID="24" v:groupContext="shape" transform="translate(7.4035,-21.3287)">
					<title>Sheet.24</title>
					<path d="M0.86 44.76 L11.55 44.76 C12.03 44.76 12.41 44.37 12.41 43.9 C12.41 43.43 12.03 43.04 11.55 43.04 L0.86
								 43.04 C0.38 43.04 -0 43.43 0 43.9 C-0 44.37 0.38 44.76 0.86 44.76 Z" class="st3"/>
				</g>
				<g id="shape25-35" v:mID="25" v:groupContext="shape" transform="translate(7.4035,-18.0758)">
					<title>Sheet.25</title>
					<path d="M11.55 43.04 L0.86 43.04 C0.38 43.04 -0 43.43 0 43.9 C0 44.37 0.38 44.76 0.86 44.76 L11.55 44.76 C12.03
								 44.76 12.41 44.37 12.41 43.9 C12.41 43.43 12.03 43.04 11.55 43.04 Z" class="st3"/>
				</g>
				<g id="shape26-37" v:mID="26" v:groupContext="shape" transform="translate(9.53899,-14.8224)">
					<title>Sheet.26</title>
					<path d="M7.28 43.04 L0.86 43.04 C0.38 43.04 0 43.43 0 43.9 C0 44.37 0.38 44.76 0.86 44.76 L7.28 44.76 C7.76
								 44.76 8.14 44.37 8.14 43.9 C8.14 43.43 7.76 43.04 7.28 43.04 Z" class="st3"/>
				</g>
			</g>
		</g>
		<g id="shape1-39" v:mID="1" v:groupContext="shape" transform="translate(0.75,-1.48811)">
			<title>Sheet.1</title>
			<desc>Create</desc>
			<v:textBlock v:margins="rect(4,4,4,10)" v:tabSpace="42.5197"/>
			<v:textRect cx="42.5197" cy="23.4979" width="85.04" height="42.5197"/>
			<rect x="0" y="2.23811" width="85.0394" height="42.5197" class="st1"/>
			<text x="45.02" y="27.1" class="st2" v:langID="1030"><v:paragraph v:horizAlign="2"/><v:tabList/>Create</text>		</g>
		<g id="group6-42" transform="translate(9.41331,-1.48811)" v:mID="6" v:groupContext="group">
			<title>Sheet.6</title>
			<g id="group7-43" transform="translate(0,-12.4384)" v:mID="7" v:groupContext="group">
				<title>Sheet.7</title>
				<g id="shape8-44" v:mID="8" v:groupContext="shape">
					<title>Sheet.8</title>
					<path d="M0 44.76 L4.63 43.8 L14.27 32.36 L9.86 28.61 L0.17 40.04 L0 44.76 ZM2.66 39.04 L5.24 41.22 L3.97 42.71
								 L1.31 43.27 L1.44 40.57 L2.66 39.04 Z" class="st4"/>
				</g>
				<g id="shape9-46" v:mID="9" v:groupContext="shape" transform="translate(10.7363,-13.3985)">
					<title>Sheet.9</title>
					<path d="M4.36 44.76 L6.42 42.36 C6.98 41.66 6.9 40.66 6.24 40.09 L4.28 38.43 C3.58 37.86 2.57 37.95 2.01 38.6
								 L0 41 L4.36 44.76 Z" class="st4"/>
				</g>
				<g id="shape10-48" v:mID="10" v:groupContext="shape" transform="translate(6.59646,85.9912) rotate(175.223)">
					<title>Sheet.10</title>
					<rect x="0" y="42.8812" width="1.87661" height="1.87661" class="st5"/>
				</g>
			</g>
		</g>
		<g id="shape44-50" v:mID="44" v:groupContext="shape" transform="translate(85.7894,-22.4645)">
			<title>Sheet.44</title>
			<path d="M0 44.76 L18.54 44.76" class="st6"/>
		</g>
		<g id="shape48-56" v:mID="48" v:groupContext="shape" transform="translate(199.175,-22.4645)">
			<title>Sheet.48</title>
			<path d="M0 44.76 L18.54 44.76" class="st6"/>
		</g>
		<g id="shape50-61" v:mID="50" v:groupContext="shape" transform="translate(440.12,-22.4645)">
			<title>Sheet.50</title>
			<path d="M0 44.76 L18.54 44.76" class="st6"/>
		</g>
		<g id="shape51-66" v:mID="51" v:groupContext="shape" transform="translate(326.734,-22.4645)">
			<title>Sheet.51</title>
			<path d="M0 44.76 L18.54 44.76" class="st6"/>
		</g>
	</g>
</svg>
