<?xml version="1.0" encoding="utf-8"?>
<!-- Generator: Adobe Illustrator 17.1.0, SVG Export Plug-In . SVG Version: 6.00 Build 0)  -->
<!DOCTYPE svg PUBLIC "-//W3C//DTD SVG 1.1//EN" "http://www.w3.org/Graphics/SVG/1.1/DTD/svg11.dtd">
<svg version="1.1" id="Layer_1" xmlns="http://www.w3.org/2000/svg" xmlns:xlink="http://www.w3.org/1999/xlink" x="0px" y="0px"
	 viewBox="0 150 600 314" enable-background="new 0 150 600 314" xml:space="preserve">
<path d="M114.7,235.6h36.8v27.2h-17.8c0.7,1,1.2,2.1,1.7,3.2h19.3v-33.6h-43.2v21.8c1-0.3,2.1-0.5,3.2-0.6V235.6z"/>
<path d="M162.7,290.3v-3.2h36.8v27.2h-30c-0.9,1.2-1.8,2.2-2.7,3.2h35.9V284h-43.2v12.7c0.5-1.1,1-2.3,1.5-3.6
	C161.4,292.1,162,291.1,162.7,290.3L162.7,290.3z"/>
<path d="M137,274.5h2.9v-6.1h-3.7c0.5,1.8,0.8,3.7,0.8,5.6C137,274.1,137,274.3,137,274.5L137,274.5z"/>
<path d="M157.4,300.8V294h-6.1v13.6c0.6-0.2,1.3-0.7,2.4-1.7C154.5,305.1,155.8,303.6,157.4,300.8L157.4,300.8z"/>
<path d="M162,347.7h36.8v27.2H162V347.7z M158.8,378.1H202v-33.6h-43.2V378.1z"/>
<path d="M215.7,325.3h36.8v27.2h-36.8V325.3z M212.5,355.7h43.2v-33.6h-43.2V355.7z"/>
<polygon points="173.9,336.2 173.9,342.3 187.5,342.3 187.5,336.2 182.3,336.2 182.3,326.5 187.5,326.5 187.5,320.3 173.9,320.3 
	173.9,326.5 179.1,326.5 179.1,336.2 "/>
<rect x="227.3" y="313.3" width="13.6" height="6.1"/>
<path d="M303.7,320.8h-36.8v-27.2h36.8V320.8z M306.9,290.4h-43.2V324h43.2V290.4z"/>
<path d="M140.9,302.2h8.5V299h-11.2c0.4,0.6,1.1,1.4,2,2.4C140.4,301.7,140.7,302,140.9,302.2L140.9,302.2z"/>
<path d="M131.5,294.2c1.1,0.2,2.2,0.6,3.2,1.1v-12c-0.9,1.6-1.9,3.2-3.2,4.5V294.2z"/>
<polygon points="292.1,274.5 292.1,268.3 278.5,268.3 278.5,274.5 283.8,274.5 283.8,281.6 278.5,281.6 278.5,287.7 292.1,287.7 
	292.1,281.6 286.9,281.6 286.9,274.5 "/>
<polygon points="235.1,250.2 244.2,250.2 244.2,275.5 232.5,275.5 232.5,299.3 210.7,299.3 210.7,294 204.6,294 204.6,307.6 
	210.7,307.6 210.7,302.5 232.5,302.5 232.5,310.9 235.7,310.9 235.7,302.5 255.5,302.5 255.5,307.6 261.7,307.6 261.7,294 
	255.5,294 255.5,299.3 235.7,299.3 235.7,278.7 247.4,278.7 247.4,250.2 255.5,250.2 255.5,256 261.6,256 261.6,242.4 255.5,242.4 
	255.5,247 235.1,247 235.1,241.7 228.9,241.7 228.9,255.3 235.1,255.3 "/>
<path d="M223.6,262.8h-36.8v-27.2h36.8V262.8z M226.8,232.4h-43.2V266h43.2V232.4z"/>
<rect x="175.4" y="242.4" width="6.1" height="13.6"/>
<path d="M303.7,262.8h-36.8v-27.2h36.8V262.8z M306.9,232.4h-43.2V266h43.2V232.4z"/>
<rect x="157.5" y="247.8" width="16.4" height="3.2"/>
<path d="M138.4,243.5c0,6.8-10.2,6.8-10.2,0S138.4,236.7,138.4,243.5"/>
<path d="M126.8,256.3c0.1-0.3,0.2-0.6,0.4-0.8v1.1c1.8,1.1,3.4,2.4,4.8,4h7.5v-5.1c0.1,0.3,0.3,0.6,0.4,1c0.4,1,0.7,2.3,0.9,4.1h3.7
	c-0.4-3.8-1.3-6.2-2.3-7.8c-0.7-1.1-1.6-1.9-2.4-2.3c-0.5-0.3-1-0.4-1.4-0.4c-0.2-0.1-0.4-0.1-0.5-0.1h-8.8c-0.2,0-0.4,0-0.5,0.1
	c-0.4,0.1-0.9,0.2-1.4,0.4c-1.2,0.6-2.5,1.9-3.5,4.3l0,0C124.6,255.1,125.7,255.7,126.8,256.3L126.8,256.3z"/>
<path d="M177.2,292.7c0.9,2,1,4.2,0.3,6.2c0.9,0.9,2.2,1.4,3.5,1.4c2.8,0,5.1-2.3,5.1-5.1s-2.3-5.1-5.1-5.1c-1.7,0-3.2,0.8-4.1,2.1
	C177.1,292.4,177.2,292.5,177.2,292.7L177.2,292.7z"/>
<path d="M185.5,301.6h-8.8c-0.1,0-0.1,0-0.2,0c-1.7,4.1-3.5,7.6-5.5,10.6h2.6c0.3-2.4,0.8-4,1.3-5.1v5.1h12.3v-5.1
	c0.1,0.3,0.3,0.6,0.4,1c0.4,1,0.7,2.3,0.9,4.1h3.7c-0.4-3.8-1.3-6.2-2.3-7.8c-0.7-1.1-1.6-1.9-2.4-2.3c-0.5-0.3-1-0.4-1.4-0.4
	C185.9,301.7,185.7,301.6,185.5,301.6L185.5,301.6z"/>
<path d="M186.2,355.5c0,6.8-10.2,6.8-10.2,0S186.2,348.7,186.2,355.5"/>
<path d="M187.4,362.4c-0.5-0.3-1-0.4-1.4-0.4c-0.2-0.1-0.4-0.1-0.5-0.1h-8.8c-0.2,0-0.4,0-0.5,0.1c-0.4,0.1-0.9,0.2-1.4,0.4
	c-1.2,0.6-2.5,1.9-3.5,4.3c-0.6,1.5-1,3.3-1.3,5.8h3.7c0.3-2.4,0.8-4,1.3-5.1v5.1h12.3v-5.1c0.1,0.3,0.3,0.6,0.4,1
	c0.4,1,0.7,2.3,0.9,4.1h3.7c-0.4-3.8-1.3-6.2-2.3-7.8C189.1,363.6,188.2,362.8,187.4,362.4L187.4,362.4z"/>
<path d="M79.9,373.1c0.1,0,0.3,0,0.4,0c3.5-0.2,6.2-3.2,6-6.8c-0.3-5.3-0.5-10.2-0.5-14.6c0-19.4,2.8-30.3,5.6-35.9v120
	c0,5.5,4.4,9.9,9.9,9.9s9.9-4.4,9.9-9.9v-72.2h3.7v72.2c0,5.5,4.4,9.9,9.9,9.9s9.9-4.4,9.9-9.9V317c1.4,1.1,2.9,2.2,4.6,3.1
	c3,1.6,6.6,2.9,10.7,2.9h0.2c4.8,0,9.9-2.1,14-6.2c4.2-4.1,7.8-10,11-18.3c1.3-3.3-0.4-7-3.7-8.3s-7,0.4-8.3,3.7
	c-2.8,7.2-5.6,11.5-8,13.7s-3.8,2.5-5.3,2.6c-1.3,0-2.8-0.4-4.5-1.4c-2.5-1.4-5.2-3.8-7-5.9c-0.9-1-1.7-2-2.2-2.6
	c-0.2-0.3-0.4-0.6-0.5-0.8c-0.1-0.1-0.1-0.1-0.1-0.2l0,0l0,0c-1.4-2.1-3.8-3.1-6.1-2.8c-0.3,0-0.6-0.1-1-0.1H97.6
	c-0.1,0-0.3,0-0.4,0c-1.5,0-3.8,0.4-6.5,1.7c-4.3,2.1-8.9,6.8-12.2,15.1c-3.3,8.3-5.5,20.3-5.5,38.4c0,4.7,0.2,9.8,0.5,15.3
	C73.7,370.5,76.5,373.1,79.9,373.1L79.9,373.1z"/>
<path d="M134.6,273.9c0,9.9-8.1,18-18,18s-18-8.1-18-18s8.1-18,18-18S134.6,264,134.6,273.9"/>
<path d="M236.8,337.6v-7.3c-3.6,2.2-7.3-2.1-10.9-0.7v-0.2c0-0.3-0.2-0.5-0.5-0.5s-0.5,0.2-0.5,0.5V350h1.1v-12.4
	C229.6,336,233.2,340.1,236.8,337.6L236.8,337.6z"/>
<rect x="217.5" y="345.4" width="6.2" height="0.9"/>
<rect x="227.3" y="345.4" width="22.4" height="0.9"/>
<path d="M277,242.5c2,0,3.6,1.6,3.6,3.6s-1.6,3.6-3.6,3.6s-3.6-1.6-3.6-3.6S275,242.5,277,242.5z M270.3,247.5
	c0.2,0.8,0.5,1.5,0.9,2.2l-1.1,1.1c0.6,0.8,1.3,1.5,2.1,2.1l1.1-1.1c0.7,0.4,1.4,0.7,2.2,0.9v1.5c0.5,0.1,1,0.1,1.5,0.1
	s1-0.1,1.5-0.1v-1.5c0.8-0.2,1.5-0.5,2.2-0.9l1.1,1.1c0.8-0.6,1.5-1.3,2.1-2.1l-1.1-1.1c0.4-0.7,0.7-1.4,0.9-2.2h1.5
	c0.1-0.5,0.1-1,0.1-1.5s-0.1-1-0.1-1.5h-1.5c-0.2-0.8-0.5-1.5-0.9-2.2l1.1-1.1c-0.6-0.8-1.3-1.5-2.1-2.1l-1.1,1.1
	c-0.7-0.4-1.4-0.7-2.2-0.9v-1.5c-0.5-0.1-1-0.1-1.5-0.1s-1,0.1-1.5,0.1v1.5c-0.8,0.2-1.5,0.5-2.2,0.9l-1.1-1.1
	c-0.8,0.6-1.5,1.3-2.1,2.1l1.1,1.1c-0.4,0.7-0.7,1.4-0.9,2.2h-1.5c-0.1,0.5-0.1,1-0.1,1.5s0.1,1,0.1,1.5H270.3z"/>
<path d="M278.7,246c0,2.3-3.5,2.3-3.5,0S278.7,243.7,278.7,246"/>
<path d="M293.6,249.1c2,0,3.6,1.6,3.6,3.6s-1.6,3.6-3.6,3.6s-3.6-1.6-3.6-3.6C290,250.7,291.6,249.1,293.6,249.1z M287,254.2
	c0.2,0.8,0.5,1.5,0.9,2.2l-1.1,1.1c0.6,0.8,1.3,1.5,2.1,2.1l1.1-1.1c0.7,0.4,1.4,0.7,2.2,0.9v1.5c0.5,0.1,1,0.1,1.5,0.1
	s1-0.1,1.5-0.1v-1.5c0.8-0.2,1.5-0.5,2.2-0.9l1.1,1.1c0.8-0.6,1.5-1.3,2.1-2.1l-1.1-1.1c0.4-0.7,0.7-1.4,0.9-2.2h1.5
	c0.1-0.5,0.1-1,0.1-1.5s-0.1-1-0.1-1.5h-1.5c-0.2-0.8-0.5-1.5-0.9-2.2l1.1-1.1c-0.6-0.8-1.3-1.5-2.1-2.1l-1.1,1.1
	c-0.7-0.4-1.4-0.7-2.2-0.9v-1.5c-0.5-0.1-1-0.1-1.5-0.1s-1,0.1-1.5,0.1v1.5c-0.8,0.2-1.5,0.5-2.2,0.9l-1.1-1.1
	c-0.8,0.6-1.5,1.3-2.1,2.1l1.1,1.1c-0.4,0.7-0.7,1.4-0.9,2.2h-1.5c-0.1,0.5-0.1,1-0.1,1.5s0.1,1,0.1,1.5H287z"/>
<path d="M295.4,252.7c0,2.3-3.5,2.3-3.5,0S295.4,250.4,295.4,252.7"/>
<path d="M294.6,307.3l-1.4,1.1l-2.3-1.3l-3,2.4l-1.8-2.1l4.3-7.5L294.6,307.3z M290.6,317.6l0.4,0.6h11.4l-12-20.8l-5.7,9.9
	L290.6,317.6z"/>
<path d="M283,309l-1.2,1l-2-1.1l-2.5,2l-1.6-1.7l3.6-6.3L283,309z M279.4,300.7l-10.1,17.5h20.2L279.4,300.7z"/>
<path d="M201.8,248.2c1.3,0,2.3,1,2.3,2.3s-1,2.3-2.3,2.3s-2.3-1-2.3-2.3S200.5,248.2,201.8,248.2z M208.6,255.6v1.3h-6.7v-1.3
	L208.6,255.6L208.6,255.6z M208.7,248.2c1.3,0,2.3,1,2.3,2.3s-1,2.3-2.3,2.3s-2.3-1-2.3-2.3S207.4,248.2,208.7,248.2z M197.2,259.7
	h16v-5h2.8v-6.1h-2.8v-4.8h-7.1v-1.5c0.8-0.3,1.3-1.1,1.3-2c0-1.2-1-2.2-2.2-2.2s-2.2,1-2.2,2.2c0,0.9,0.5,1.6,1.3,2v1.5h-7.1v4.8
	h-2.8v6.1h2.8V259.7z"/>
<path d="M395.4,244.9c-0.2,0.2-0.4,0.4-0.7,0.5c-0.6,0.1-1.3-0.3-1.4-0.9c-0.5-2.4-0.7-4.8-0.6-7.3c0-0.7,0.6-1.2,1.2-1.1
	c0.7,0,1.2,0.6,1.1,1.2c-0.1,2.2,0.1,4.5,0.5,6.7C395.7,244.3,395.6,244.6,395.4,244.9L395.4,244.9z"/>
<text transform="matrix(1 0 0 1 178.0926 276.3418)" font-family="'MyriadPro-Regular'" font-size="10">Blockbuster</text>
<text transform="matrix(1 0 0 1 157.5618 388.3934)" font-family="'MyriadPro-Regular'" font-size="10">Blackberry</text>
<text transform="matrix(0.9995 -3.024258e-02 3.024258e-02 0.9995 209.2355 366.8722)" font-family="'MyriadPro-Regular'" font-size="9.9992">Radio Shack</text>
<text transform="matrix(1 0 0 1 268.4667 334.3418)" font-family="'MyriadPro-Regular'" font-size="10">Borders</text>
<path d="M449.2,382.6c0,6.5-9.8,6.5-9.8,0C439.4,376.1,449.2,376.1,449.2,382.6"/>
<path d="M496.5,425.4c1.5-0.5,4.5-0.7,1.1-2.1c-3.5-1.4-6.5-4.1-5.1-4c1.3,0.2,1.7,2.9,2.7,0s-2.4-14.6-6.2-15.6
	c-3.8-1-4.8-3.1-6-4.6s-2.8,2.2-4,1.2s-1-4-3.4-2.2s-2.2,5.4-4,3.6c-1.7-1.8-2.4-1.6-2.9-0.8c-0.5,0.9-1.2,1.7-2.1,1.9
	s-5.7,0.4-2.4,1.9c3.3,1.5,14.1,7.2,16,10.3c1.9,3.1,5.5,12.2,5.5,12.2c1.4,4,14.3,4.1,11.5,0c-0.6-1-1.1-1.5-1.4-1.9
	C496,425.5,496.2,425.5,496.5,425.4L496.5,425.4z"/>
<path d="M482.4,422.1v5.7c0,0.6,0.5,1.1,1.1,1.1h2c-0.3-0.4-0.6-0.8-0.8-1.2C484.7,427.6,483.6,425,482.4,422.1L482.4,422.1z"/>
<path d="M431.2,403.8c0.2-0.2,0.3-0.5,0.4-0.8c1.1-6.3-6.6,1.8-15.5-6.9c-0.6-0.6-1-0.3-1.2,0.5v6.4c0.4,0.1,1.7,0.4,3.3,0.7
	L431.2,403.8z"/>
<path d="M438.9,396.1v3.9l-1.1-1.2L438.9,396.1z M449.8,394.8l1.7,4l-1.7,1.8V394.8z M463.7,405.8c-0.3-0.2-1-0.5-1.4-0.9h-5.8h-2.1
	l0.2-1c0.1-0.8-0.2-1.7-0.7-2.4c0.7-0.8,0.6-1.6,0.5-1.9l-1.9-9.7c-0.7-1.8-2.2-2.1-2.9-1.9l-1.5,0.4c0,0,0,0-0.1,0
	c-1,0-2.3,0.3-3.7,0.3c-1.2,0-2.2-0.2-3.1-0.3c0,0-0.1,0-0.1-0.1l-1.5-0.4c-0.7-0.2-2.2,0.1-2.9,1.9l-1.9,9.7
	c-0.1,0.3-0.1,0.9,0.3,1.5c-0.7,0.8-1.1,1.9-1,2.8l0.2,1h-1.9h-18.5v-16.7c0-0.6-0.5-1.1-1.1-1.1h-2.4c-0.6,0-1.1,0.5-1.1,1.1v39.6
	c0,0.6,0.5,1.1,1.1,1.1h2.4c0.6,0,1.1-0.5,1.1-1.1v-17.2c0-0.6,0.5-1.1,1.1-1.1h20l2.7,16.6c0.2,1.4,0.8,3.5,2.2,3.3
	c1.4-0.2,1.6-1.6,1.4-3l-0.5-16.9h7.4l-0.5,16.9c-0.2,1.4,0,2.8,1.4,3s2-1.9,2.2-3.3l2.7-16.6h17.2
	C468.1,407.9,465.4,406.5,463.7,405.8L463.7,405.8z"/>
<path fill="#EAEAEA" d="M543,333.2h-78.2c-6.6,0-12,5.4-12,12v0.1c0,4,2,7.5,4.9,9.7c-1.8,10-8.2,23.9-8.2,23.9
	c3.1-7.6,12.6-9.9,22.1-19.8c0.6-0.6,1.2-1.3,1.8-1.9H543c6.6,0,12-5.4,12-12v-0.1C555,338.6,549.6,333.2,543,333.2z"/>
<text transform="matrix(1 0 0 1 458.1717 349.0728)" font-family="'MyriadPro-Regular'" font-size="12">“what happened?”</text>
<g>
	<path d="M434.9,213c0,0.1-0.1,0.2-0.1,0.2c-0.3,0.4-0.9,0.6-1.4,0.4c-2.1-0.9-4.2-1.5-6.5-1.9c-0.6-0.1-1.1-0.7-1-1.4
		c0.1-0.6,0.7-1.1,1.4-1c2.4,0.4,4.8,1.1,7,2C434.8,211.7,435.1,212.4,434.9,213L434.9,213z"/>
	<path d="M412.8,210.6c2.3-0.8,4.7-1.3,7.2-1.5c0.7-0.1,1.2,0.4,1.3,1.1c0,0.3-0.1,0.6-0.2,0.8c-0.2,0.3-0.5,0.4-0.9,0.5
		c-2.2,0.2-4.5,0.6-6.6,1.3c-0.6,0.2-1.3-0.1-1.5-0.8C411.8,211.4,412.1,210.8,412.8,210.6L412.8,210.6z"/>
	<path d="M401.7,256.2c0.4,0.4,0.3,1,0,1.5c-0.1,0.1-0.1,0.1-0.2,0.2c-0.5,0.4-1.3,0.3-1.7-0.2c-1.5-1.9-2.9-4-3.9-6.2
		c-0.3-0.6,0-1.3,0.6-1.6s1.3,0,1.6,0.6C399.1,252.6,400.3,254.5,401.7,256.2L401.7,256.2z"/>
	<path d="M401.5,220c-0.5-0.5-0.5-1.2,0-1.7c1.7-1.8,3.6-3.3,5.7-4.6c0.6-0.3,1.3-0.2,1.6,0.4c0.3,0.4,0.2,1-0.1,1.3
		c-0.1,0.1-0.2,0.2-0.3,0.3c-1.9,1.2-3.7,2.6-5.2,4.3C402.8,220.4,402,220.4,401.5,220L401.5,220z"/>
	<path d="M399.2,224.6c-1.1,1.9-2,4-2.6,6.2c0,0.1-0.1,0.3-0.2,0.4c-0.3,0.4-0.8,0.6-1.3,0.4c-0.6-0.2-1-0.8-0.8-1.5
		c0.7-2.3,1.6-4.6,2.9-6.7c0.3-0.6,1.1-0.8,1.6-0.4C399.3,223.3,399.5,224.1,399.2,224.6L399.2,224.6z"/>
	<path d="M440.1,217c-0.5-0.4-0.6-1.1-0.2-1.7l0,0c0.4-0.5,1.1-0.6,1.6-0.2c1.2,0.9,2.3,1.9,3.3,2.9l3.7-5l0.4,10.1l-9,1.3l3.4-4.6
		C442.4,218.9,441.3,217.9,440.1,217L440.1,217z"/>
	<path d="M417.6,267.2c0.1-0.6,0.7-1.1,1.4-1c2.2,0.4,4.5,0.4,6.7,0.3c0.7-0.1,1.2,0.4,1.3,1.1c0,0.3-0.1,0.6-0.2,0.8
		c-0.2,0.3-0.5,0.4-0.9,0.5c-2.4,0.2-4.9,0.1-7.3-0.3C417.9,268.4,417.5,267.8,417.6,267.2L417.6,267.2z"/>
	<path d="M443.7,258c0.8-0.8,1.7-1.6,2.3-2.5l0,0c0.7-0.9,1.1-1.9,1.7-2.9c0.3-0.6,0.9-0.9,1.5-0.5c0.6,0.3,0.8,1.1,0.5,1.6
		c-0.6,1-1.2,2.1-2,3.1l0,0c-0.7,1-1.5,1.9-2.4,2.8c-0.5,0.5-1.2,0.5-1.7,0C443.2,259.2,443.2,258.5,443.7,258L443.7,258z"/>
	<path d="M405.6,262.3l-0.1-0.1c-0.5-0.4-0.7-1-0.3-1.6c0.4-0.5,1.1-0.5,1.6-0.1l0.1,0.1c1.8,1.4,3.6,2.7,5.7,3.5
		c0.6,0.3,0.8,1.1,0.5,1.7c0,0.1-0.1,0.2-0.1,0.3c-0.3,0.4-0.7,0.3-1.2,0.1C409.5,265.3,407.6,263.8,405.6,262.3L405.6,262.3z"/>
	<path d="M432.3,265.1c2.1-0.7,4.2-1.7,6.1-2.9c0.6-0.4,1.3-0.2,1.6,0.4c0.3,0.4,0.2,1-0.1,1.3c-0.1,0.1-0.2,0.2-0.3,0.3
		c-2.1,1.3-4.3,2.4-6.6,3.1c-0.6,0.2-1.3-0.1-1.5-0.7C431.3,266,431.6,265.3,432.3,265.1L432.3,265.1z"/>
	<path d="M424.1,233v-10.8c0-0.7-0.4-1.2-1-1.2c-0.7,0-1,0.5-1,1.2v10.9c0-0.1,0.8-0.2,1.2-0.2C423.5,232.9,423.4,232.9,424.1,233
		L424.1,233z"/>
	<path d="M443.6,236.2h-16.2c0.1,0.7,0.1,0.9,0.1,1.2c0,0.5-0.1,0.9-0.2,1.6h16.3c0.7,0,1.2-0.7,1.2-1.4
		C444.8,237,444.2,236.2,443.6,236.2L443.6,236.2z"/>
	<path d="M425.6,236.4c-0.3-0.7-0.9-1.3-1.6-1.6c-0.3-0.1-0.6-0.2-1-0.2c-0.5,0-1,0.1-1.4,0.4c-0.8,0.5-1.4,1.4-1.4,2.4
		c0,1.5,1.2,2.8,2.8,2.8c1,0,1.9-0.6,2.4-1.4c0.2-0.4,0.4-0.9,0.4-1.4C425.8,237.1,425.7,236.7,425.6,236.4L425.6,236.4z"/>
	<text transform="matrix(1 0 0 1 398.9085 290.4137)" font-family="'MyriadPro-Regular'" font-size="12">tomorrow’s </text>
	<text transform="matrix(1 0 0 1 398.9085 304.8137)" font-family="'MyriadPro-Regular'" font-size="12">market</text>
</g>
<rect x="1" y="169.1" fill="none" width="600" height="45.9"/>
<text transform="matrix(1 0 0 1 183.2393 189.9814)" font-family="'MyriadPro-Regular'" font-size="25">Why trends intrigue me</text>
<path d="M504.1,209.2c0-1.9,1.6-3.5,3.6-3.5s3.6,1.6,3.6,3.5s-1.6,3.5-3.6,3.5S504.1,211.1,504.1,209.2z M512.8,209.2
	c0-2.8-2.3-5.2-5.2-5.2s-5.2,2.3-5.2,5.2c0,2.8,2.3,5.2,5.2,5.2S512.8,212,512.8,209.2z"/>
<path d="M485.6,217.2c0-0.9,0.4-1.8,1-2.5c0.7-0.7,1.6-1,2.5-1l0,0c0.9,0,1.8,0.4,2.5,1c0.7,0.7,1,1.6,1,2.5s-0.4,1.8-1,2.5
	c-0.7,0.7-1.6,1-2.5,1l0,0c-0.9,0-1.8-0.4-2.5-1C486,219,485.6,218.1,485.6,217.2z M489.2,222.3c1.4,0,2.7-0.5,3.7-1.5
	s1.5-2.3,1.5-3.7s-0.5-2.7-1.5-3.6c-1-1-2.3-1.5-3.6-1.5l0,0c-1.4,0-2.7,0.5-3.7,1.5s-1.5,2.3-1.5,3.7s0.5,2.7,1.5,3.6
	C486.5,221.8,487.8,222.3,489.2,222.3L489.2,222.3z"/>
<path d="M481.2,233c1.9,0,3.5,1.6,3.5,3.6s-1.6,3.6-3.5,3.6s-3.5-1.6-3.5-3.6C477.6,234.6,479.2,233,481.2,233z M481.2,241.7
	c2.8,0,5.2-2.3,5.2-5.2s-2.3-5.2-5.2-5.2c-2.8,0-5.2,2.3-5.2,5.2S478.3,241.7,481.2,241.7z"/>
<path d="M486.7,253.4c0.7-0.7,1.5-1,2.5-1l0,0c0.9,0,1.8,0.4,2.5,1c0.7,0.7,1,1.6,1,2.5s-0.4,1.8-1,2.5c-0.7,0.7-1.5,1-2.5,1l0,0
	c-0.9,0-1.8-0.4-2.5-1c-0.7-0.7-1-1.6-1-2.5C485.6,254.9,486,254,486.7,253.4z M484,255.9c0,1.4,0.5,2.7,1.5,3.7s2.3,1.5,3.7,1.5
	l0,0c1.4,0,2.7-0.5,3.6-1.5c1-1,1.5-2.3,1.5-3.6c0-1.4-0.5-2.7-1.5-3.7s-2.3-1.5-3.7-1.5l0,0c-1.4,0-2.7,0.5-3.6,1.5
	C484.5,253.2,484,254.5,484,255.9z"/>
<path d="M508.5,267.4c-2,0-3.6-1.6-3.6-3.5s1.6-3.5,3.6-3.5s3.6,1.6,3.6,3.5S510.5,267.4,508.5,267.4z M508.5,258.7
	c-2.9,0-5.2,2.3-5.2,5.2c0,2.8,2.3,5.2,5.2,5.2s5.2-2.3,5.2-5.2S511.4,258.7,508.5,258.7z"/>
<path d="M531.4,255.9c0,0.9-0.4,1.8-1,2.5c-0.7,0.7-1.6,1-2.5,1l0,0c-0.9,0-1.8-0.4-2.5-1c-0.7-0.7-1-1.6-1-2.5s0.4-1.8,1-2.5
	c0.7-0.7,1.6-1,2.5-1l0,0c0.9,0,1.8,0.4,2.5,1C531,254,531.4,254.9,531.4,255.9z M527.9,250.7c-1.4,0-2.7,0.5-3.7,1.5
	s-1.5,2.3-1.5,3.7s0.5,2.7,1.5,3.6c1,1,2.3,1.5,3.6,1.5l0,0c1.4,0,2.7-0.5,3.7-1.5s1.5-2.3,1.5-3.7c0-1.4-0.5-2.7-1.5-3.6
	C530.6,251.2,529.3,250.7,527.9,250.7L527.9,250.7z"/>
<path d="M537.7,240.1c-1.9,0-3.5-1.6-3.5-3.6s1.6-3.6,3.5-3.6s3.5,1.6,3.5,3.6S539.6,240.1,537.7,240.1z M537.7,231.3
	c-2.8,0-5.2,2.3-5.2,5.2s2.3,5.2,5.2,5.2s5.2-2.3,5.2-5.2C542.8,233.7,540.5,231.3,537.7,231.3z"/>
<path d="M530.4,219.7c-0.7,0.7-1.5,1-2.5,1l0,0c-0.9,0-1.8-0.4-2.5-1c-0.7-0.7-1-1.6-1-2.5s0.4-1.8,1-2.5c0.7-0.7,1.5-1,2.5-1l0,0
	c0.9,0,1.8,0.4,2.5,1c0.7,0.7,1,1.6,1,2.5S531,219,530.4,219.7z M533,217.2c0-1.4-0.5-2.7-1.5-3.7s-2.3-1.5-3.7-1.5l0,0
	c-1.4,0-2.7,0.5-3.6,1.5c-1,1-1.5,2.3-1.5,3.6c0,1.4,0.5,2.7,1.5,3.7s2.3,1.5,3.7,1.5l0,0c1.4,0,2.7-0.5,3.6-1.5
	C532.5,219.9,533,218.6,533,217.2z"/>
<path d="M521.7,213c0.2-0.4,0.1-0.9-0.3-1.1c-1.8-1-3.7-1.8-5.7-2.4c-0.4-0.1-0.9,0.1-1,0.5s0.1,0.9,0.5,1c1.8,0.6,3.6,1.3,5.3,2.2
	c0.1,0.1,0.3,0.1,0.4,0.1C521.2,213.4,521.5,213.3,521.7,213L521.7,213z"/>
<path d="M500,209.4c-2,0.6-3.9,1.3-5.7,2.3c-0.4,0.2-0.5,0.7-0.3,1.1c0.1,0.3,0.4,0.4,0.7,0.4c0.1,0,0.3,0,0.4-0.1
	c1.7-0.9,3.5-1.7,5.4-2.2c0.4-0.1,0.7-0.6,0.6-1S500.4,209.3,500,209.4L500,209.4z"/>
<path d="M485.1,222.4c-0.4-0.2-0.9-0.1-1.1,0.3c-1,1.8-1.8,3.7-2.4,5.7c-0.1,0.4,0.1,0.9,0.5,1c0.1,0,0.2,0,0.2,0
	c0.3,0,0.7-0.2,0.8-0.6c0.6-1.8,1.3-3.6,2.2-5.3C485.6,223.1,485.5,222.6,485.1,222.4L485.1,222.4z"/>
<path d="M483,243.6c-0.1-0.4-0.6-0.7-1-0.6s-0.7,0.6-0.6,1c0.6,2,1.3,3.9,2.3,5.7c0.1,0.3,0.4,0.4,0.7,0.4c0.1,0,0.3,0,0.4-0.1
	c0.4-0.2,0.5-0.7,0.3-1.1C484.3,247.3,483.6,245.5,483,243.6L483,243.6z"/>
<path d="M494.5,259.8c-0.2,0.4-0.1,0.9,0.3,1.1c1.8,1,3.7,1.8,5.7,2.4c0.1,0,0.2,0,0.2,0c0.3,0,0.7-0.2,0.8-0.6
	c0.1-0.4-0.1-0.9-0.5-1c-1.8-0.6-3.6-1.3-5.3-2.2C495.2,259.3,494.7,259.4,494.5,259.8L494.5,259.8z"/>
<path d="M521.1,259.7c-1.7,0.9-3.5,1.7-5.4,2.2c-0.4,0.1-0.7,0.6-0.6,1c0.1,0.4,0.4,0.6,0.8,0.6c0.1,0,0.1,0,0.2,0
	c2-0.6,3.9-1.3,5.7-2.3c0.4-0.2,0.5-0.7,0.3-1.1C522,259.6,521.5,259.5,521.1,259.7L521.1,259.7z"/>
<path d="M536.7,243.5c-0.4-0.1-0.9,0.1-1,0.5c-0.6,1.8-1.3,3.6-2.2,5.3c-0.2,0.4-0.1,0.9,0.3,1.1c0.1,0.1,0.3,0.1,0.4,0.1
	c0.3,0,0.6-0.1,0.7-0.4c1-1.8,1.8-3.7,2.4-5.7C537.3,244,537.1,243.6,536.7,243.5L536.7,243.5z"/>
<path d="M535.8,229.2c0.1,0.4,0.4,0.6,0.8,0.6c0.1,0,0.1,0,0.2,0c0.4-0.1,0.7-0.6,0.6-1c-0.6-2-1.3-3.9-2.3-5.7
	c-0.2-0.4-0.7-0.5-1.1-0.3c-0.4,0.2-0.5,0.7-0.3,1.1C534.5,225.6,535.3,227.4,535.8,229.2L535.8,229.2z"/>
<path d="M508,222.5c2.3-0.1,4.6,0.7,6.2,2.2c1.7,1.6,2.6,3.8,2.6,6.1c0,2.1-0.8,4.1-2.2,5.7c-1.5,1.6-2.3,3.6-2.5,5.8h-7.2
	c-0.2-2.2-1-4.3-2.5-5.8c-1.5-1.6-2.3-3.8-2.2-6C500.3,226.3,503.8,222.8,508,222.5L508,222.5z M510.1,250.7H507
	c-0.6,0-1.1-0.5-1.1-1.1v-0.8h5.2v0.8C511.2,250.2,510.7,250.7,510.1,250.7L510.1,250.7z M512.7,244v2.9c0,0.1-0.1,0.2-0.2,0.2h-7.8
	c-0.1,0-0.2-0.1-0.2-0.2V244H512.7z M498.6,230.4c-0.1,2.7,0.9,5.2,2.7,7.2c1.2,1.3,1.9,2.9,2.1,4.8c-0.3,0.1-0.6,0.4-0.6,0.8v3.7
	c0,0.9,0.7,1.7,1.6,1.8v0.9c0,1.5,1.2,2.7,2.7,2.7h3.1c1.5,0,2.7-1.2,2.7-2.7v-0.9c0.8-0.2,1.5-0.9,1.5-1.8v-3.7
	c0-0.4-0.2-0.7-0.6-0.8c0.2-1.8,0.9-3.5,2.1-4.8c1.7-1.8,2.7-4.3,2.7-6.8c0-2.7-1.1-5.4-3.1-7.3c-2-1.9-4.7-2.9-7.5-2.7
	C502.9,221.2,498.8,225.4,498.6,230.4L498.6,230.4z"/>
<text transform="matrix(1 0 0 1 482.2455 289.4138)" font-family="'MyriadPro-Regular'" font-size="12">continuous</text>
<text transform="matrix(1 0 0 1 482.2455 303.8138)" font-family="'MyriadPro-Regular'" font-size="12">innovation</text>
<g>
	<path fill="none" stroke="#000000" stroke-width="0.8794" stroke-miterlimit="10" d="M367.9,207.9c-4.6,0.2-7.5,4.9-8.9,9.3
		c-4,12.5-1.9,26.3-4.9,39.1c-1.5,6.6-5.6,13.9-12.3,14.5"/>
	<path fill="none" stroke="#000000" stroke-width="0.9337" stroke-miterlimit="10" d="M367.9,341.9c-4.6-0.2-7.5-5.6-8.9-10.5
		c-4-14.1-1.9-29.6-4.9-44.1c-1.5-7.5-5.6-15.7-12.3-16.4"/>
</g>
</svg>
