<?xml version="1.0" encoding="utf-8"?>
<!-- Generator: Adobe Illustrator 17.1.0, SVG Export Plug-In . SVG Version: 6.00 Build 0)  -->
<!DOCTYPE svg PUBLIC "-//W3C//DTD SVG 1.1//EN" "http://www.w3.org/Graphics/SVG/1.1/DTD/svg11.dtd">
<svg version="1.1" id="Layer_1" xmlns="http://www.w3.org/2000/svg" xmlns:xlink="http://www.w3.org/1999/xlink" x="0px" y="0px"
	 viewBox="0 134 600 330" enable-background="new 0 134 600 330" xml:space="preserve">
<path d="M66.5,334.7l0.4,1.3c0.1,0,0.2-0.1,0.3-0.1c0.1,0,0.1,0,0.2-0.1c0.2-0.1,0.4-0.2,0.5-0.2s0.1,0,0.2,0s0.2,0,0.3,0h0.8
	c0.1,0,0.2,0,0.3,0c0.1,0,0.1,0,0.1,0c0.1,0,0.1,0,0.2,0s0.2,0,0.3,0c0.2,0,0.2,0,0.3,0.1c0.1,0,0.1,0,0.2,0c0,0,1.1,0,3.3,0
	c0.1,0,0.2,0,0.3,0c0.1,0,0.1,0,0.2,0s0.2,0,0.4,0c0.2,0,0.2,0,0.3,0h0.2h0.2c0.2,0,0.2,0,0.3,0h0.3c0.1,0,0.3,0,0.4,0.1
	c0.1,0,0.2,0,0.3,0c0.1,0,0.3,0,0.4,0.1c0.1,0,0.2,0,0.4,0.1c0.1,0,0.2,0,0.4,0c0.2,0,0.2,0,0.4,0c0.2,0,0.2,0,0.4,0
	c0.1,0,0.3,0,0.4,0c0.2,0,0.2,0,0.4,0c0.1,0,0.3,0,0.4,0h2.8c0.2,0,0.4,0,0.5,0c0.2,0,0.3,0,0.5,0s0.4,0,0.6,0s0.4,0,0.5,0
	c0.2,0,0.4,0,0.6,0s0.4,0,0.5,0c0.2,0,0.4,0,0.6,0.1c0.3,0,0.3,0,0.5,0.1c0.2,0,0.4,0,0.5,0.1c0.2,0,0.4,0,0.6,0.1
	c0.2,0,0.3,0,0.5,0.1c0.2,0,0.4,0,0.5,0c0.2,0,0.4,0,0.6,0h3.1c0.2,0,0.4,0,0.6,0s0.4,0,0.7,0c0.2,0,0.4,0,0.6,0c0.3,0,0.3,0,0.6,0
	c0.3,0,0.3,0,0.7,0c0.3,0,0.3,0,0.6,0c0.2,0,0.4,0,0.6,0c0.3,0,0.5,0,0.7,0c0.3,0,0.3,0,0.6,0c0.3,0,0.3,0,0.6,0c0.2,0,0.4,0,0.6,0
	c0.3,0,0.3,0,0.6,0c0.3,0,0.3,0,0.6,0c0.2,0,0.4,0,0.5,0c0.2,0,0.4,0,0.6-0.1c0.2,0,0.4,0,0.5,0c0.2,0,0.4,0,0.6,0s0.4,0,0.6,0
	s0.4,0,0.6,0h5.1c0.2,0,0.3,0,0.4,0s0.2,0,0.4,0c0.2,0,0.3,0,0.5,0c0.1,0,0.2,0,0.3,0c0.2,0,0.2,0,0.4,0c0.1,0,0.3,0,0.4,0
	c0.2,0,0.2,0,0.3,0c0.2,0,0.2,0,0.3,0c0.1,0,0.2,0,0.4,0c0.1,0,0.2,0,0.2,0c0.2,0,0.2,0,0.3,0c0.2,0,0.2,0,0.3,0c0.1,0,0.1,0,0.2,0
	s0.2,0,0.3,0c0.1,0,0.1,0,0.2,0h0.8V336c0-0.3,0-0.3,0-0.4c0-0.1,0-0.1,0-0.2s0-0.1,0-0.3c0-0.1,0-0.1,0-0.3c0-0.1,0-0.1,0-0.3
	c0-0.2,0-0.2,0-0.3s0-0.2,0-0.3c0-0.1,0-0.3,0-0.4c0-0.1,0-0.2,0-0.3c0-0.2,0-0.2,0-0.4c0-0.1,0-0.3,0-0.4c0-0.2,0-0.3-0.1-0.5
	c0-0.1,0-0.3,0-0.4c0-0.2,0-0.3-0.1-0.5c0-0.2,0-0.2-0.1-0.5l-0.1-0.5c0-0.3,0-0.3-0.1-0.6c0-0.2,0-0.4-0.1-0.6
	c0-0.2-0.1-0.4-0.1-0.6c0-0.2,0-0.4-0.1-0.6c0-0.2,0-0.4-0.1-0.7c0-0.2-0.1-0.4-0.1-0.6c0-0.3,0-0.3-0.1-0.7s-0.1-0.4-0.1-0.8
	c0-0.3,0-0.3-0.1-0.7c0-0.2-0.1-0.4-0.1-0.7c0-0.2-0.1-0.5-0.1-0.8c-0.1-0.4-0.1-0.4-0.1-0.7c0-0.2-0.1-0.4-0.1-0.7s0-0.3-0.1-0.7
	c0-0.2-0.1-0.4-0.1-0.7c0-0.2-0.1-0.5-0.1-0.7c0-0.2-0.1-0.5-0.1-0.7s-0.1-0.5-0.1-0.6c0-0.2-0.1-0.4-0.1-0.7c0-0.4,0-0.4-0.1-0.7
	c0-0.3,0-0.3-0.1-0.7c0-0.2-0.1-0.4-0.1-0.6c0-0.3,0-0.3-0.1-0.7s-0.1-0.4-0.1-0.7c0-0.3,0-0.3-0.1-0.7s-0.1-0.4-0.1-0.7
	c0-0.3-0.1-0.5-0.1-0.8s-0.1-0.5-0.1-0.8c-0.1-0.4-0.1-0.4-0.1-0.8c0-0.3-0.1-0.5-0.1-0.8c0-0.3-0.1-0.5-0.1-0.8s-0.1-0.5-0.1-0.8
	c0-0.3-0.1-0.5-0.1-0.8s-0.1-0.6-0.1-0.8c0-0.3-0.1-0.5-0.1-0.8c-0.1-0.3-0.1-0.6-0.1-0.8c0-0.3-0.1-0.5-0.1-0.8s-0.1-0.5-0.1-0.8
	c0-0.3-0.1-0.5-0.1-0.8s-0.1-0.5-0.1-0.8c0-0.2-0.1-0.5-0.1-0.8c-0.1-0.4-0.1-0.4-0.1-0.8c0-0.3-0.1-0.5-0.1-0.9
	c0-0.3-0.1-0.6-0.1-0.9s-0.1-0.5-0.1-0.8c-0.1-0.3-0.1-0.5-0.2-0.8c-0.1-0.4-0.1-0.4-0.2-0.8c-0.1-0.3-0.1-0.5-0.2-0.7
	c-0.1-0.3-0.1-0.3-0.2-0.7c-0.1-0.2-0.1-0.5-0.2-0.7c-0.1-0.2-0.1-0.5-0.2-0.7s-0.1-0.4-0.2-0.6c0-0.2-0.1-0.4-0.2-0.6
	c-0.1-0.4-0.1-0.4-0.2-0.6s-0.1-0.4-0.2-0.7c-0.1-0.2-0.1-0.4-0.2-0.6s-0.1-0.4-0.2-0.6c-0.1-0.2-0.1-0.4-0.2-0.6s-0.1-0.4-0.2-0.6
	c-0.1-0.2-0.1-0.4-0.2-0.6s-0.1-0.4-0.2-0.6c-0.1-0.2-0.2-0.4-0.2-0.6c-0.1-0.2-0.2-0.4-0.2-0.6c-0.1-0.3-0.1-0.3-0.3-0.6
	c-0.1-0.2-0.2-0.4-0.3-0.6c-0.1-0.2-0.2-0.3-0.3-0.5c-0.1-0.3-0.1-0.3-0.3-0.6c-0.1-0.2-0.2-0.4-0.3-0.5c-0.1-0.2-0.2-0.3-0.3-0.5
	c-0.1-0.2-0.2-0.3-0.3-0.5c-0.1-0.1-0.2-0.3-0.3-0.4c-0.1-0.2-0.3-0.3-0.4-0.5c-0.1-0.1-0.2-0.3-0.3-0.4c-0.1-0.1-0.2-0.3-0.4-0.4
	c-0.2-0.2-0.2-0.2-0.4-0.4c-0.1-0.1-0.3-0.3-0.4-0.4c-0.2-0.2-0.2-0.2-0.4-0.4c-0.1-0.1-0.3-0.3-0.4-0.4c-0.1-0.1-0.3-0.3-0.4-0.4
	c-0.2-0.2-0.2-0.2-0.4-0.4c-0.1-0.1-0.3-0.2-0.4-0.4c-0.1-0.1-0.3-0.2-0.4-0.4c-0.1-0.1-0.3-0.2-0.4-0.4c-0.1-0.1-0.3-0.2-0.4-0.3
	s-0.3-0.2-0.4-0.3c-0.1-0.1-0.3-0.2-0.4-0.3s-0.2-0.2-0.4-0.3c-0.2-0.1-0.3-0.2-0.4-0.3s-0.2-0.1-0.4-0.2c-0.1-0.1-0.3-0.2-0.4-0.2
	c-0.1-0.1-0.2-0.1-0.4-0.2c-0.2-0.1-0.3-0.1-0.4-0.2c-0.2-0.1-0.2-0.1-0.4-0.2c-0.1-0.1-0.2-0.1-0.3-0.1c-0.1,0-0.2-0.1-0.4-0.1
	c-0.1,0-0.2,0-0.3-0.1c-0.1,0-0.2,0-0.4,0H93c-0.1,0-0.2,0-0.4,0c-0.2,0-0.2,0-0.4,0c-0.2,0-0.2,0-0.4,0c-0.1,0-0.2,0-0.3,0
	c-0.2,0-0.2,0-0.4,0c-0.1,0-0.2,0-0.4,0c-0.1,0-0.2,0-0.3,0.1c-0.1,0-0.3,0.1-0.4,0.1s-0.2,0-0.3,0.1c-0.1,0-0.2,0.1-0.3,0.1
	c-0.2,0.1-0.2,0.1-0.4,0.1c-0.1,0-0.3,0.1-0.4,0.1s-0.2,0.1-0.3,0.1c-0.2,0.1-0.2,0.1-0.4,0.1c-0.1,0-0.2,0.1-0.3,0.1
	c-0.1,0.1-0.2,0.1-0.3,0.2c-0.1,0.1-0.2,0.1-0.3,0.2c-0.2,0.1-0.2,0.1-0.4,0.2c-0.1,0.1-0.2,0.1-0.4,0.2c-0.1,0.1-0.3,0.2-0.4,0.3
	s-0.2,0.2-0.3,0.3c-0.1,0.1-0.3,0.2-0.4,0.4c-0.1,0.1-0.3,0.2-0.4,0.3c-0.2,0.2-0.2,0.2-0.4,0.4c-0.1,0.1-0.3,0.3-0.4,0.4
	c-0.2,0.2-0.3,0.3-0.4,0.4s-0.3,0.3-0.4,0.5c-0.2,0.2-0.3,0.4-0.4,0.5c-0.1,0.2-0.3,0.3-0.4,0.5c-0.2,0.3-0.2,0.3-0.4,0.5
	c-0.1,0.1-0.3,0.3-0.4,0.5c-0.2,0.3-0.2,0.3-0.4,0.5c-0.1,0.1-0.2,0.3-0.4,0.5c-0.2,0.2-0.3,0.4-0.5,0.6c-0.1,0.2-0.3,0.4-0.4,0.5
	c-0.1,0.2-0.3,0.4-0.4,0.5c-0.1,0.2-0.2,0.3-0.4,0.5c-0.1,0.2-0.3,0.4-0.4,0.6c-0.1,0.2-0.3,0.4-0.4,0.6s-0.3,0.4-0.4,0.6
	c-0.1,0.2-0.3,0.4-0.4,0.6s-0.2,0.4-0.3,0.6c-0.1,0.2-0.2,0.4-0.4,0.6c-0.1,0.2-0.2,0.4-0.3,0.6c-0.2,0.3-0.2,0.3-0.3,0.7l-0.2,0.4
	l-0.2,0.4c-0.1,0.2-0.2,0.5-0.3,0.7c-0.1,0.2-0.2,0.4-0.3,0.7c-0.1,0.2-0.2,0.4-0.3,0.7c-0.2,0.4-0.2,0.4-0.3,0.8
	c-0.2,0.4-0.2,0.4-0.3,0.8c-0.1,0.3-0.2,0.5-0.3,0.8c-0.1,0.3-0.2,0.6-0.3,0.9c-0.1,0.3-0.2,0.6-0.3,0.9c-0.1,0.3-0.2,0.6-0.4,0.9
	c-0.1,0.4-0.2,0.7-0.3,1c-0.1,0.3-0.2,0.6-0.3,0.9c-0.1,0.4-0.2,0.7-0.4,1c-0.1,0.3-0.2,0.6-0.3,0.9c-0.1,0.3-0.2,0.6-0.3,0.9
	c-0.1,0.3-0.2,0.6-0.3,0.9c-0.1,0.4-0.2,0.7-0.3,1c-0.1,0.3-0.2,0.6-0.3,0.9c-0.2,0.5-0.2,0.5-0.3,1c-0.1,0.4-0.2,0.7-0.3,1
	c-0.1,0.5-0.1,0.5-0.3,1c-0.1,0.4-0.2,0.7-0.3,1.1c-0.1,0.4-0.2,0.7-0.3,1c-0.1,0.5-0.1,0.5-0.3,1.1c-0.1,0.4-0.2,0.7-0.3,1.1
	c-0.1,0.5-0.1,0.5-0.3,1.1c-0.1,0.4-0.2,0.8-0.3,1.1c-0.1,0.3-0.2,0.7-0.3,1.1c-0.1,0.4-0.2,0.8-0.3,1.2c-0.1,0.6-0.1,0.6-0.2,1.2
	c-0.1,0.4-0.1,0.8-0.2,1.2s-0.1,0.8-0.2,1.3c-0.1,0.4-0.1,0.8-0.2,1.2s-0.1,0.8-0.2,1.2c-0.1,0.4-0.1,0.8-0.1,1.1
	c0,0.3-0.1,0.7-0.1,1.1c0,0.4-0.1,0.7-0.1,1.1c0,0.3-0.1,0.6-0.1,0.9c0,0.3-0.1,0.6-0.1,0.9c0,0.4,0,0.4-0.1,0.8
	c0,0.3,0,0.5-0.1,0.8c0,0.3,0,0.5,0,0.7v0.7c0,0.2,0,0.4,0,0.7c0,0.2,0,0.4,0,0.6v3.3c0,0.1,0,0.2,0,0.2
	C65.9,334.2,66.4,334.3,66.5,334.7L66.5,334.7z M65.7,335.2L65.7,335.2L65.7,335.2L65.7,335.2z M65.3,334.7
	C65.2,334.8,65.2,334.8,65.3,334.7c-0.1,0.1-0.1,0.1-0.1,0.2l0,0l0,0l0,0l0,0l0,0C65.3,334.8,65.3,334.7,65.3,334.7z"/>
<path d="M94,266.4c-0.1,0.1-0.1,0.1-0.3,0.1c-0.1,0.1-0.3,0.1-0.4,0.2c-0.2,0.1-0.3,0.1-0.5,0.1s-0.3,0.1-0.5,0.1s-0.3,0-0.5,0h-0.9
	c-0.2,0-0.4,0-0.7-0.1c-0.2,0-0.3-0.1-0.4-0.1s-0.3-0.1-0.4-0.1c-0.2-0.1-0.3-0.1-0.5-0.2s-0.2-0.1-0.4-0.2
	c-0.2-0.1-0.2-0.1-0.4-0.2c-0.2-0.1-0.2-0.1-0.4-0.2c-0.2-0.1-0.2-0.1-0.4-0.2c-0.2-0.1-0.2-0.1-0.5-0.2c-0.2-0.1-0.3-0.1-0.5-0.2
	c-0.2-0.1-0.3-0.2-0.5-0.2c-0.2-0.1-0.3-0.2-0.5-0.3s-0.3-0.2-0.5-0.3c-0.2-0.1-0.3-0.2-0.5-0.3s-0.3-0.2-0.5-0.4
	c-0.2-0.1-0.4-0.3-0.6-0.5s-0.3-0.3-0.5-0.5s-0.4-0.3-0.5-0.5c-0.2-0.2-0.4-0.4-0.5-0.5c-0.2-0.2-0.3-0.4-0.5-0.5
	c-0.1-0.2-0.3-0.3-0.5-0.5s-0.3-0.4-0.5-0.7c-0.2-0.2-0.3-0.4-0.5-0.6c-0.1-0.2-0.3-0.4-0.4-0.6c-0.2-0.3-0.2-0.3-0.4-0.6
	c-0.2-0.3-0.3-0.5-0.4-0.7s-0.2-0.4-0.3-0.6c-0.1-0.2-0.3-0.5-0.4-0.7c-0.1-0.2-0.2-0.5-0.4-0.7c-0.1-0.2-0.2-0.5-0.4-0.8l-0.3-0.7
	c-0.1-0.3-0.2-0.5-0.3-0.7c-0.1-0.3-0.2-0.5-0.3-0.8c-0.1-0.2-0.2-0.5-0.2-0.8c-0.1-0.3-0.2-0.5-0.2-0.8c-0.1-0.3-0.1-0.5-0.2-0.7
	c-0.1-0.3-0.1-0.3-0.2-0.7c-0.1-0.3-0.1-0.6-0.2-0.8c-0.1-0.3-0.1-0.3-0.1-0.7c0-0.2-0.1-0.5-0.1-0.8s-0.1-0.5-0.1-0.8
	s-0.1-0.6-0.1-0.9c0-0.3,0-0.6-0.1-0.9c0-0.3,0-0.6,0-0.8c0-0.3,0-0.5,0-0.8v-1.6c0-0.3,0-0.5,0-0.7c0-0.3,0-0.6,0.1-0.9
	c0-0.3,0.1-0.6,0.1-0.8c0.1-0.3,0.1-0.3,0.1-0.7c0-0.3,0.1-0.5,0.2-0.8c0.1-0.4,0.1-0.4,0.2-0.7c0.1-0.2,0.1-0.5,0.2-0.7
	s0.2-0.5,0.2-0.7c0.1-0.3,0.2-0.5,0.3-0.7c0.1-0.3,0.1-0.3,0.3-0.6c0.1-0.2,0.2-0.4,0.3-0.6c0.1-0.3,0.2-0.5,0.4-0.8
	c0.1-0.2,0.2-0.4,0.3-0.5c0.1-0.2,0.2-0.5,0.4-0.7c0.1-0.2,0.3-0.4,0.4-0.6c0.2-0.3,0.2-0.3,0.4-0.6c0.1-0.2,0.3-0.5,0.5-0.7
	c0.1-0.2,0.3-0.4,0.4-0.6c0.2-0.2,0.3-0.4,0.5-0.6c0.2-0.3,0.2-0.3,0.5-0.5c0.2-0.2,0.3-0.4,0.5-0.5c0.1-0.2,0.3-0.3,0.5-0.5
	s0.3-0.3,0.5-0.5s0.4-0.3,0.6-0.5s0.4-0.3,0.5-0.5c0.2-0.1,0.4-0.3,0.6-0.5s0.5-0.3,0.7-0.5c0.2-0.1,0.4-0.3,0.6-0.4
	c0.2-0.1,0.4-0.2,0.6-0.4c0.2-0.2,0.5-0.3,0.7-0.4c0.2-0.1,0.4-0.2,0.6-0.3c0.2-0.1,0.4-0.2,0.6-0.3c0.3-0.1,0.3-0.1,0.6-0.3
	c0.2-0.1,0.4-0.2,0.7-0.3c0.2-0.1,0.4-0.2,0.6-0.2c0.2-0.1,0.5-0.2,0.7-0.2c0.2-0.1,0.4-0.1,0.6-0.2c0.2,0,0.4-0.1,0.7-0.2
	c0.3-0.1,0.5-0.1,0.7-0.1s0.4,0,0.6-0.1c0.2,0,0.4,0,0.7-0.1c0.2,0,0.4,0,0.6,0s0.4,0,0.6,0h1.1c0.2,0,0.4,0,0.6,0
	c0.3,0,0.5,0,0.7,0.1c0.2,0,0.4,0.1,0.6,0.1s0.4,0.1,0.6,0.1s0.4,0.1,0.7,0.2c0.2,0.1,0.4,0.1,0.6,0.2c0.2,0.1,0.4,0.1,0.6,0.2
	c0.3,0.1,0.3,0.1,0.6,0.2c0.3,0.1,0.3,0.1,0.6,0.2c0.2,0.1,0.4,0.1,0.6,0.2c0.2,0.1,0.4,0.1,0.6,0.2c0.2,0.1,0.4,0.2,0.6,0.2
	c0.3,0.1,0.3,0.1,0.5,0.2c0.2,0.1,0.4,0.2,0.5,0.2c0.2,0.1,0.4,0.2,0.5,0.3c0.2,0.1,0.4,0.2,0.6,0.3c0.1,0.1,0.3,0.2,0.5,0.3
	c0.3,0.1,0.3,0.1,0.5,0.3c0.2,0.1,0.4,0.2,0.5,0.3c0.2,0.2,0.2,0.2,0.5,0.3c0.2,0.1,0.3,0.2,0.5,0.3s0.3,0.2,0.5,0.4
	c0.1,0.1,0.3,0.2,0.4,0.4c0.2,0.1,0.3,0.3,0.4,0.4c0.1,0.2,0.1,0.2,0.3,0.3c0.1,0.1,0.3,0.3,0.4,0.4c0.1,0.2,0.3,0.3,0.4,0.5
	c0.2,0.2,0.2,0.2,0.3,0.4c0.1,0.1,0.2,0.3,0.3,0.4c0.1,0.2,0.2,0.3,0.3,0.5c0.1,0.1,0.2,0.3,0.3,0.4c0.1,0.1,0.1,0.2,0.2,0.4
	c0.1,0.1,0.2,0.3,0.3,0.5c0.1,0.2,0.2,0.4,0.3,0.5c0.1,0.2,0.1,0.2,0.2,0.4c0.1,0.2,0.1,0.2,0.2,0.4c0.1,0.2,0.1,0.2,0.2,0.4
	s0.2,0.4,0.2,0.5c0.1,0.2,0.1,0.3,0.2,0.5s0.1,0.2,0.2,0.4c0,0.1,0.1,0.3,0.2,0.5c0.1,0.2,0.1,0.2,0.1,0.4c0,0.1,0.1,0.3,0.1,0.5
	c0.1,0.2,0.1,0.2,0.1,0.5c0,0.2,0.1,0.3,0.1,0.5c0,0.1,0,0.2,0.1,0.3c0,0.2,0.1,0.4,0.1,0.6c0,0.2,0,0.2,0,0.4s0,0.3,0,0.5
	c0,0.1,0,0.3,0,0.4c0,0.2,0,0.4,0,0.6s0,0.3,0,0.4c0,0.2,0,0.2,0,0.5c0,0.2,0,0.3,0,0.4c0,0.2,0,0.3,0,0.5v2.9c0,0.2,0,0.4,0,0.6
	s0,0.2,0,0.4c0,0.1,0,0.3-0.1,0.5c0,0.1,0,0.3-0.1,0.4c0,0.2,0,0.3-0.1,0.5c0,0.1,0,0.2,0,0.3c0,0.2,0,0.3-0.1,0.5
	c0,0.2,0,0.2-0.1,0.4c0,0.1,0,0.2-0.1,0.3c0,0.1-0.1,0.3-0.1,0.4c0,0.2,0,0.2-0.1,0.3c0,0.2-0.1,0.3-0.1,0.5c0,0.1,0,0.2-0.1,0.3
	c0,0.2-0.1,0.3-0.1,0.5c0,0.1,0,0.1-0.1,0.3c0,0.1-0.1,0.3-0.1,0.4c0,0.1-0.1,0.2-0.1,0.3c0,0.2-0.1,0.3-0.2,0.5
	c-0.1,0.2-0.1,0.2-0.1,0.4c-0.1,0.1-0.1,0.3-0.2,0.4c0,0.1-0.1,0.2-0.1,0.3c-0.1,0.1-0.1,0.3-0.2,0.4c-0.1,0.2-0.1,0.2-0.2,0.4
	c-0.1,0.2-0.1,0.2-0.2,0.4c-0.1,0.2-0.1,0.2-0.2,0.3c0,0.1-0.1,0.2-0.1,0.3c-0.1,0.1-0.1,0.3-0.2,0.5c-0.1,0.1-0.1,0.3-0.2,0.4
	c-0.1,0.2-0.1,0.2-0.2,0.3s-0.1,0.3-0.2,0.4c0,0.1-0.1,0.2-0.1,0.3c-0.1,0.1-0.1,0.3-0.2,0.4c-0.1,0.1-0.2,0.3-0.2,0.4
	c-0.1,0.1-0.1,0.1-0.2,0.2c-0.1,0.1-0.1,0.2-0.2,0.3c0,0.1-0.1,0.1-0.1,0.2c-0.1,0.1-0.2,0.3-0.3,0.4l-0.2,0.2
	c-0.1,0.1-0.1,0.1-0.2,0.2c-0.1,0.1-0.2,0.2-0.3,0.4l-0.1,0.1c-0.1,0.1-0.1,0.2-0.2,0.3s-0.2,0.2-0.3,0.3c-0.1,0.1-0.1,0.1-0.2,0.2
	c-0.1,0.1-0.2,0.2-0.3,0.3c-0.1,0.1-0.1,0.1-0.3,0.3c-0.1,0.1-0.2,0.3-0.3,0.3c-0.1,0.1-0.1,0.1-0.2,0.2s-0.2,0.2-0.3,0.3
	c-0.1,0.1-0.3,0.3-0.4,0.4c-0.1,0.1-0.3,0.2-0.4,0.3s-0.2,0.2-0.4,0.3c-0.1,0.1-0.2,0.2-0.3,0.3c-0.1,0.1-0.2,0.2-0.3,0.3
	c-0.1,0.1-0.3,0.2-0.4,0.3s-0.2,0.2-0.3,0.3c-0.2,0.1-0.2,0.1-0.4,0.3c-0.2,0.2-0.2,0.2-0.4,0.3c-0.1,0.1-0.3,0.2-0.4,0.3
	s-0.3,0.2-0.4,0.3c-0.2,0.1-0.2,0.1-0.4,0.2c-0.1,0.1-0.3,0.2-0.4,0.2c-0.1,0.1-0.3,0.1-0.4,0.2c-0.1,0.1-0.3,0.1-0.4,0.2
	c-0.1,0.1-0.1,0.1-0.3,0.1c-0.1,0.1-0.3,0.1-0.4,0.2c-0.2,0.1-0.2,0.1-0.3,0.1c-0.2,0.1-0.2,0.1-0.3,0.1c-0.1,0-0.2,0.1-0.3,0.1
	c-0.2,0.1-0.2,0.1-0.3,0.1c-0.1,0-0.2,0.1-0.2,0.1c-0.2,0.1-0.2,0.1-0.4,0.2c-0.1,0-0.2,0.1-0.3,0.1c-0.1,0.1-0.2,0.1-0.3,0.2
	c-0.1,0.1-0.1,0.1-0.2,0.1c-0.1,0.1-0.3,0.1-0.4,0.2c-0.2,0.1-0.4,0.1-0.5,0.2c-0.2,0-0.2,0-0.4,0.1c-0.2,0-0.2,0-0.4,0.1
	c-0.2,0-0.2,0-0.4,0.1c-0.2,0-0.2,0-0.3,0c-0.1,0-0.1,0-0.3,0C94.2,266.3,94.1,266.4,94,266.4L94,266.4z M93,263.8
	c0.4-0.5,1.1-0.6,1.6-0.3c0.1,0,0.1,0,0.2,0s0.1,0,0.3-0.1c0.2,0,0.2,0,0.3-0.1c0.1,0,0.1,0,0.2-0.1c0.1,0,0.1-0.1,0.2-0.1
	c0.1-0.1,0.1-0.1,0.3-0.1c0.1,0,0.2-0.1,0.2-0.1c0.1-0.1,0.2-0.1,0.4-0.2c0.1-0.1,0.1-0.1,0.3-0.1c0.1-0.1,0.3-0.1,0.4-0.2
	c0.2-0.1,0.2-0.1,0.3-0.1c0.1-0.1,0.3-0.1,0.4-0.1c0.2,0,0.2,0,0.3-0.1c0.2-0.1,0.2-0.1,0.3-0.1c0.1,0,0.1-0.1,0.2-0.1
	c0.2-0.1,0.2-0.1,0.3-0.1c0.1,0,0.2-0.1,0.3-0.1c0.1,0,0.2-0.1,0.2-0.1c0.1,0,0.2-0.1,0.2-0.1c0.2-0.1,0.2-0.1,0.3-0.2
	c0.1-0.1,0.2-0.1,0.3-0.2c0.1-0.1,0.2-0.2,0.3-0.2c0.2-0.1,0.2-0.1,0.4-0.3c0.2-0.2,0.2-0.2,0.4-0.3c0.1-0.1,0.3-0.2,0.4-0.3
	s0.2-0.2,0.3-0.2c0.1-0.1,0.3-0.2,0.4-0.3s0.2-0.2,0.4-0.3c0.1-0.1,0.2-0.2,0.3-0.2c0.1-0.1,0.2-0.2,0.3-0.2
	c0.1-0.1,0.2-0.2,0.3-0.2c0.1-0.1,0.2-0.2,0.2-0.2c0.1-0.1,0.1-0.1,0.2-0.2s0.1-0.1,0.2-0.3c0.2-0.2,0.2-0.2,0.3-0.3
	c0.1-0.1,0.1-0.1,0.2-0.2c0.1-0.1,0.2-0.2,0.3-0.3c0.1-0.1,0.1-0.1,0.2-0.2c0.1-0.1,0.1-0.1,0.1-0.2c0.1-0.1,0.2-0.2,0.3-0.4
	l0.1-0.1c0.1-0.1,0.2-0.2,0.2-0.3l0.1-0.1c0-0.1,0-0.1,0.1-0.1l0.1-0.1c0.1-0.1,0.1-0.2,0.2-0.3c0-0.1,0.1-0.1,0.1-0.2
	c0.1-0.1,0.1-0.1,0.2-0.3c0-0.1,0.1-0.1,0.1-0.2c0-0.1,0.1-0.2,0.1-0.3c0.1-0.1,0.1-0.3,0.2-0.4c0-0.1,0.1-0.2,0.2-0.3
	c0.1-0.2,0.1-0.2,0.2-0.3s0.1-0.2,0.2-0.3c0.1-0.1,0.1-0.2,0.1-0.3c0.1-0.1,0.1-0.3,0.2-0.4c0.1-0.2,0.1-0.2,0.2-0.4
	s0.1-0.2,0.2-0.3c0.1-0.2,0.1-0.2,0.2-0.3c0-0.1,0.1-0.2,0.1-0.3c0.1-0.1,0.1-0.3,0.2-0.4c0-0.1,0.1-0.2,0.1-0.3
	c0.1-0.2,0.1-0.2,0.1-0.4c0-0.1,0.1-0.1,0.1-0.2c0-0.2,0.1-0.3,0.1-0.5c0-0.1,0.1-0.2,0.1-0.3c0.1-0.2,0.1-0.2,0.1-0.3
	c0-0.1,0-0.2,0.1-0.2c0-0.2,0.1-0.3,0.1-0.5c0-0.1,0-0.2,0.1-0.3c0-0.2,0-0.2,0.1-0.4c0-0.1,0-0.2,0.1-0.3c0-0.2,0.1-0.3,0.1-0.4
	c0-0.2,0-0.2,0.1-0.4c0-0.1,0-0.2,0-0.3c0-0.2,0-0.3,0.1-0.5c0-0.1,0-0.2,0-0.3c0-0.1,0-0.3,0.1-0.5c0-0.1,0-0.3,0-0.4
	c0-0.2,0-0.2,0-0.4c0-0.1,0-0.2,0-0.3v-2.9c0-0.1,0-0.2,0-0.3c0-0.1,0-0.3,0-0.5s0-0.2,0-0.4c0-0.1,0-0.3,0-0.4s0-0.3,0-0.4
	c0-0.1,0-0.3-0.1-0.5c0-0.1,0-0.3,0-0.4c0-0.2,0-0.2,0-0.4c0-0.1,0-0.2,0-0.3c0-0.2-0.1-0.3-0.1-0.5c0-0.1,0-0.2-0.1-0.3
	c0-0.2,0-0.2-0.1-0.4c0-0.1-0.1-0.2-0.1-0.3c-0.1-0.2-0.1-0.2-0.1-0.4c0-0.1-0.1-0.3-0.1-0.4c-0.1-0.2-0.1-0.2-0.1-0.4
	c-0.1-0.1-0.1-0.3-0.2-0.4c0-0.1-0.1-0.2-0.1-0.3c-0.1-0.2-0.1-0.2-0.2-0.4c-0.1-0.2-0.1-0.2-0.2-0.4s-0.1-0.2-0.2-0.4
	c-0.1-0.1-0.1-0.2-0.2-0.4c-0.1-0.1-0.2-0.3-0.2-0.4c-0.1-0.1-0.2-0.3-0.3-0.4c-0.1-0.1-0.1-0.2-0.2-0.4c-0.1-0.1-0.2-0.3-0.3-0.4
	c-0.1-0.1-0.2-0.3-0.2-0.3c-0.1-0.2-0.1-0.2-0.3-0.4c-0.1-0.1-0.2-0.2-0.3-0.3c-0.1-0.1-0.2-0.2-0.3-0.4c-0.2-0.2-0.2-0.2-0.3-0.3
	c-0.1-0.1-0.2-0.2-0.3-0.3c-0.1-0.1-0.2-0.2-0.4-0.3c-0.1-0.1-0.2-0.2-0.4-0.3c-0.1-0.1-0.2-0.2-0.4-0.3c-0.2-0.1-0.2-0.1-0.4-0.3
	c-0.1-0.1-0.3-0.2-0.4-0.2c-0.2-0.1-0.2-0.1-0.5-0.3c-0.2-0.1-0.3-0.2-0.5-0.3c-0.1-0.1-0.3-0.1-0.4-0.2c-0.2-0.1-0.3-0.2-0.5-0.2
	c-0.2-0.1-0.3-0.1-0.5-0.2c-0.3-0.1-0.3-0.1-0.5-0.2s-0.3-0.1-0.5-0.2s-0.3-0.1-0.5-0.2s-0.3-0.1-0.5-0.2c-0.3-0.1-0.3-0.1-0.6-0.2
	c-0.3-0.1-0.3-0.1-0.6-0.2c-0.2-0.1-0.4-0.1-0.5-0.2c-0.2,0-0.4-0.1-0.5-0.1c-0.2-0.1-0.4-0.1-0.5-0.1c-0.2,0-0.4-0.1-0.6-0.1
	s-0.3-0.1-0.5-0.1c-0.1,0-0.3,0-0.4,0c-0.2,0-0.4,0-0.5,0H94c-0.2,0-0.3,0-0.5,0s-0.4,0-0.6,0s-0.4,0-0.6,0.1c-0.2,0-0.4,0-0.5,0.1
	c-0.1,0-0.3,0.1-0.5,0.1s-0.4,0.1-0.5,0.1c-0.2,0-0.4,0.1-0.6,0.2s-0.4,0.1-0.5,0.2c-0.2,0.1-0.4,0.1-0.6,0.2s-0.3,0.1-0.5,0.2
	c-0.3,0.1-0.3,0.1-0.6,0.3c-0.2,0.1-0.4,0.2-0.5,0.3c-0.2,0.1-0.4,0.2-0.5,0.3c-0.2,0.1-0.3,0.2-0.5,0.3s-0.4,0.3-0.6,0.4
	c-0.2,0.1-0.3,0.2-0.5,0.3c-0.2,0.1-0.4,0.2-0.5,0.4c-0.2,0.2-0.4,0.3-0.5,0.4c-0.1,0.1-0.3,0.3-0.5,0.4c-0.2,0.2-0.3,0.3-0.5,0.4
	c-0.2,0.1-0.3,0.3-0.5,0.5c-0.1,0.1-0.3,0.3-0.4,0.4s-0.2,0.3-0.4,0.4c-0.2,0.3-0.2,0.3-0.5,0.5c-0.1,0.1-0.2,0.3-0.4,0.5
	c-0.1,0.2-0.3,0.4-0.4,0.6s-0.2,0.4-0.4,0.5c-0.2,0.3-0.2,0.3-0.4,0.6c-0.1,0.2-0.2,0.4-0.4,0.6c-0.1,0.2-0.2,0.4-0.3,0.5
	c-0.1,0.2-0.2,0.4-0.4,0.7c-0.1,0.2-0.2,0.4-0.3,0.5c-0.1,0.2-0.2,0.4-0.3,0.6c-0.1,0.3-0.1,0.3-0.3,0.6c-0.1,0.2-0.1,0.3-0.2,0.5
	s-0.2,0.5-0.2,0.7c-0.1,0.2-0.1,0.4-0.2,0.6c-0.1,0.3-0.1,0.3-0.2,0.7c-0.1,0.2-0.1,0.4-0.1,0.6c-0.1,0.3-0.1,0.3-0.1,0.7
	c0,0.2-0.1,0.5-0.1,0.7s-0.1,0.4-0.1,0.6c0,0.2,0,0.4,0,0.6v1.6c0,0.2,0,0.5,0,0.7c0,0.3,0,0.5,0,0.8c0,0.3,0,0.5,0.1,0.8
	c0,0.2,0,0.5,0.1,0.7c0,0.3,0.1,0.5,0.1,0.8c0,0.2,0.1,0.5,0.1,0.6c0.1,0.3,0.1,0.3,0.1,0.7c0,0.2,0.1,0.4,0.1,0.7
	c0.1,0.4,0.1,0.4,0.2,0.7c0,0.2,0.1,0.4,0.2,0.6c0.1,0.2,0.1,0.5,0.2,0.7c0.1,0.3,0.2,0.5,0.2,0.7c0.1,0.2,0.1,0.4,0.2,0.6
	s0.2,0.4,0.3,0.7c0.2,0.4,0.2,0.4,0.3,0.7c0.1,0.2,0.2,0.4,0.3,0.6c0.1,0.2,0.2,0.4,0.3,0.6c0.1,0.2,0.2,0.4,0.3,0.6
	c0.1,0.2,0.2,0.4,0.3,0.6c0.1,0.2,0.2,0.3,0.4,0.5c0.2,0.3,0.2,0.3,0.4,0.6c0.1,0.2,0.2,0.3,0.4,0.5c0.1,0.2,0.3,0.4,0.5,0.6
	c0.1,0.2,0.3,0.4,0.4,0.6c0.2,0.2,0.3,0.4,0.4,0.5c0.1,0.1,0.3,0.3,0.4,0.5c0.2,0.2,0.3,0.3,0.5,0.5c0.2,0.2,0.3,0.3,0.4,0.4
	c0.2,0.1,0.3,0.3,0.5,0.4c0.1,0.1,0.3,0.2,0.4,0.3c0.2,0.1,0.3,0.2,0.4,0.3c0.1,0.1,0.3,0.2,0.4,0.3s0.3,0.2,0.4,0.2
	c0.1,0.1,0.3,0.1,0.4,0.2s0.3,0.1,0.4,0.2c0.2,0.1,0.3,0.1,0.4,0.2c0.2,0.1,0.2,0.1,0.4,0.2c0.2,0.1,0.2,0.1,0.4,0.2
	c0.2,0.1,0.2,0.1,0.4,0.2c0.2,0.1,0.2,0.1,0.4,0.2c0.2,0.1,0.2,0.1,0.4,0.2c0.1,0,0.2,0.1,0.4,0.1c0.1,0,0.2,0.1,0.3,0.1
	c0.1,0,0.2,0.1,0.3,0.1c0,0,0.3,0,0.9,0c0,0,0.1,0,0.2,0s0.2,0,0.3,0c0.1,0,0.2,0,0.2-0.1C92.7,264,92.8,263.9,93,263.8L93,263.8z
	 M93,263.9L93,263.9L93,263.9z"/>
<path d="M142.6,370L142.6,370L142.6,370L142.6,370z M138.4,337.3L138.4,337.3L138.4,337.3z M114.3,333.5c0.2,0.1,0.3,0.3,0.4,0.4
	h4.8c0.2,0,0.5,0,0.7,0s0.5,0,0.7,0s0.4,0,0.6-0.1c0.2,0,0.5-0.1,0.8-0.1c0.4,0,0.4,0,0.8-0.1c0.4,0,0.4,0,0.8-0.1
	c0.3,0,0.6-0.1,0.8-0.1c0.3,0,0.5,0,0.8-0.1c0.3,0,0.5,0,0.8-0.1c0.3,0,0.6,0,0.8-0.1c0.4,0,0.4,0,0.7,0c0.3,0,0.3,0,0.6,0
	c0.2,0,0.5,0,0.7,0s0.4,0,0.6,0c0.2,0,0.5,0,0.6,0c0.2,0,0.4,0,0.6,0c0.2,0,0.4,0,0.5,0c0.3,0,0.3,0,0.6,0c0.2,0,0.4,0,0.6,0h2.3
	c0.2,0,0.4,0,0.6,0c0.2,0,0.3,0,0.5,0.1c0.1,0,0.3,0.1,0.4,0.1c0.1,0,0.3,0.1,0.4,0.1c0.2,0.1,0.3,0.1,0.5,0.2
	c0.1,0.1,0.1,0.1,0.3,0.1c0.1,0,0.2,0.1,0.3,0.2c0.1,0.1,0.2,0.1,0.4,0.2c0.2,0.1,0.2,0.1,0.4,0.2s0.4,0.2,0.5,0.3
	c0.1,0.1,0.1,0.1,0.3,0.2s0.3,0.3,0.5,0.4c0.1,0.1,0.2,0.2,0.3,0.3c0.2,0.2,0.3,0.4,0.4,0.6c0.1,0.2,0.1,0.4,0.2,0.5
	c0,0.2,0,0.2,0.1,0.4c0,0.1,0,0.3,0,0.4c0,0.2,0,0.2,0,0.3s0,0.2,0,0.3c0,0.2,0,0.2,0,0.4c0,0.2,0,0.2,0,0.4c0,0.2,0,0.2,0,0.4
	c0,0.2,0,0.4,0.1,0.5c0,0.2,0,0.3,0,0.5c0,0.1,0,0.3,0,0.4c0,0.2,0,0.4,0,0.7c0,0.2,0,0.4,0,0.6c0,0.3,0,0.5,0,0.8
	c0,0.3,0,0.5,0,0.8c0,0.4,0,0.4,0,0.9s0,0.5,0,1.1c0,0.4,0,0.7,0,1.1s0,0.7,0,1.1c0,0.4,0,0.7,0,1.2c0,0.4,0,0.8,0,1.2s0,0.8,0,1.3
	c0,0.4,0,0.8,0.1,1.2c0,0.4,0.1,0.8,0.1,1.3s0.1,0.9,0.1,1.3c0,0.4,0.1,0.7,0.1,1.2c0,0.4,0.1,0.8,0.1,1.1c0,0.3,0,0.7,0,1
	c0,0.4,0,0.7,0,1c0,0.3,0,0.7,0,1c0,0.3,0,0.6,0,0.8c0,0.3,0,0.5,0,0.8c0,0.4,0,0.4,0,0.7c0,0.2,0,0.4,0,0.6s0,0.5,0,0.7
	c0,0.3,0,0.3,0,0.6c0,0.3,0,0.3,0,0.6c0,0.2,0,0.4,0,0.6s0,0.3,0,0.4c0,0.2,0,0.4,0,0.6c0,0.1,0,0.3,0,0.4c0,0.2,0,0.4,0,0.5v0.4
	c0,0.1,0,0.2,0,0.3c0,0.2,0,0.3,0,0.4v0.2c0.1,0,0.2,0,0.3,0s0.3,0,0.4,0c0.2,0,0.2-0.1,0.3-0.1l0.1-0.1c0.7-0.3,1.5,0,1.8,0.7
	s0,1.5-0.7,1.8l-0.1,0.1c-0.2,0.1-0.3,0.1-0.5,0.2c-0.3,0.1-0.6,0.1-0.9,0.1c-0.2,0-0.4,0-0.5,0c-0.2,0-0.4,0-0.5-0.1
	c-0.2,0-0.4-0.1-0.5-0.1c-0.2,0-0.3-0.1-0.4-0.1l-0.3-0.1c-0.6-0.2-1.1-0.8-1.1-1.5c0-0.1,0-0.1,0-0.2c0-0.1,0-0.3,0-0.5V369
	c0-0.1,0-0.2,0-0.3c0-0.2,0-0.3,0-0.5v-0.4c0-0.1,0-0.2,0-0.4c0-0.2,0-0.4,0-0.6c0-0.2,0-0.3,0-0.4c0-0.2,0-0.4,0-0.6
	c0-0.2,0-0.4,0-0.5c0-0.3,0-0.3,0-0.6c0-0.3,0-0.3,0-0.6c0-0.2,0-0.4,0-0.6s0-0.5,0-0.7c0-0.3,0-0.3,0-0.7c0-0.3,0-0.5,0-0.8
	s0-0.6,0-0.9c0-0.3,0-0.6,0-0.9s0-0.7,0-1c0-0.4,0-0.7,0-1s0-0.6-0.1-1c0-0.4-0.1-0.8-0.1-1.1c0-0.4-0.1-0.8-0.1-1.3s-0.1-1-0.1-1.4
	c0-0.4,0-0.8-0.1-1.3c0-0.4,0-0.8,0-1.2c0-0.4,0-0.8,0-1.3c0-0.4,0-0.8,0-1.2c0-0.4,0-0.7,0-1.1c0-0.4,0-0.7,0-1.1
	c0-0.5,0-0.5,0-1.1c0-0.5,0-0.5,0-0.9c0-0.3,0-0.5,0-0.8s0-0.5,0-0.7c0-0.3,0-0.5,0-0.7s0-0.4,0-0.5c0-0.2,0-0.4,0-0.5s0-0.2,0-0.3
	c0-0.1,0-0.3-0.1-0.5c0-0.3,0-0.3,0-0.5c0-0.2,0-0.2,0-0.4c0-0.2,0-0.2,0-0.4c0-0.1,0-0.3,0-0.4c0-0.2,0-0.2,0-0.3s0-0.1,0-0.2
	c0-0.1,0-0.1,0-0.2c0,0-0.1-0.1-0.1-0.2l-0.1-0.1c-0.1-0.1-0.1-0.1-0.3-0.2c-0.1,0-0.1-0.1-0.2-0.1c-0.2-0.1-0.2-0.1-0.4-0.2
	c-0.1-0.1-0.2-0.1-0.3-0.2c-0.1,0-0.1-0.1-0.2-0.1c-0.1-0.1-0.1-0.1-0.3-0.1c-0.1,0-0.1-0.1-0.2-0.1c-0.1,0-0.2-0.1-0.3-0.1
	s-0.2-0.1-0.3-0.1s-0.2,0-0.3,0s-0.1,0-0.2,0H133c-0.2,0-0.3,0-0.5,0c-0.3,0-0.3,0-0.5,0s-0.4,0-0.7,0c-0.2,0-0.4,0-0.5,0
	c-0.2,0-0.4,0-0.6,0c-0.2,0-0.5,0-0.7,0s-0.4,0-0.6,0c-0.3,0-0.3,0-0.7,0.1c-0.3,0-0.3,0-0.7,0c-0.2,0-0.5,0-0.7,0
	c-0.3,0-0.5,0.1-0.8,0.1s-0.5,0-0.8,0.1c-0.3,0-0.5,0.1-0.8,0.1c-0.4,0-0.4,0-0.8,0.1c-0.4,0-0.4,0-0.8,0.1c-0.3,0-0.5,0.1-0.8,0.1
	s-0.6,0.1-0.8,0.1c-0.3,0-0.5,0-0.8,0s-0.5,0-0.8,0h-5c-0.2,0-0.3,0-0.5,0s-0.2,0-0.5,0c-0.4,0-0.7-0.1-1.1-0.3
	c-0.8-0.5-1.1-1.7-0.2-2.4C112.8,333.2,113.7,333,114.3,333.5L114.3,333.5z"/>
<path d="M100.8,374.3L100.8,374.3L100.8,374.3L100.8,374.3z M98.6,357.3L98.6,357.3L98.6,357.3z M98.5,357.4L98.5,357.4L98.5,357.4z
	 M65.3,335c0.6-0.5,1.5-0.4,1.9,0.2c0.2,0.3,0.3,0.7,0.3,1c0.1,0.1,0.2,0.1,0.3,0.2c0.1,0.1,0.3,0.2,0.4,0.3
	c0.2,0.2,0.2,0.2,0.5,0.4c0.2,0.1,0.4,0.3,0.6,0.4c0.2,0.2,0.4,0.3,0.6,0.5c0.2,0.1,0.4,0.3,0.7,0.5c0.3,0.2,0.6,0.4,0.8,0.6
	s0.5,0.4,0.9,0.6c0.3,0.2,0.6,0.5,1,0.7c0.3,0.2,0.6,0.4,1,0.6c0.3,0.2,0.7,0.4,1,0.7c0.4,0.2,0.7,0.5,1.2,0.7
	c0.4,0.3,0.8,0.5,1.2,0.7c0.4,0.2,0.8,0.4,1.2,0.7c0.5,0.2,0.9,0.5,1.4,0.8c0.5,0.3,0.9,0.5,1.3,0.7s0.8,0.5,1.2,0.7
	c0.4,0.2,0.8,0.4,1.3,0.7s0.9,0.5,1.3,0.7c0.4,0.2,0.7,0.4,1.1,0.6c0.4,0.2,0.8,0.4,1.2,0.6c0.4,0.2,0.7,0.4,1.1,0.5
	c0.3,0.2,0.6,0.3,1,0.4c0.5,0.2,0.5,0.2,1,0.4c0.3,0.1,0.6,0.3,0.9,0.4c0.3,0.1,0.5,0.2,0.8,0.4c0.3,0.1,0.6,0.3,0.9,0.4
	c0.3,0.1,0.5,0.2,0.8,0.3s0.5,0.2,0.7,0.3c0.2,0.1,0.4,0.2,0.6,0.3c0.3,0.1,0.3,0.1,0.6,0.2c0.2,0.1,0.4,0.1,0.5,0.2
	c0.1,0.1,0.3,0.1,0.5,0.2c0.2,0.1,0.3,0.1,0.5,0.2s0.2,0.1,0.4,0.2c0.2,0.1,0.3,0.1,0.4,0.2c0.1,0.1,0.3,0.1,0.4,0.2
	c0.1,0.1,0.3,0.1,0.4,0.2s0.3,0.2,0.4,0.2c0.1,0.1,0.3,0.2,0.4,0.3s0.3,0.2,0.4,0.4c0.2,0.2,0.3,0.3,0.4,0.5s0.2,0.4,0.3,0.5
	c0.1,0.2,0.2,0.4,0.2,0.6c0,0.2,0,0.2,0.1,0.3c0,0.2,0.1,0.4,0.1,0.6c0,0.1,0,0.3,0,0.4c0,0.3-0.1,0.5-0.2,0.8
	c0,0.1-0.1,0.2-0.1,0.2c-0.1,0.1-0.1,0.1-0.1,0.3c0,0.1,0,0.1-0.1,0.2c0,0.1,0,0.1-0.1,0.2c0,0.1,0,0.2-0.1,0.3c0,0.1,0,0.2,0,0.4
	c0,0.2,0,0.3-0.1,0.5c0,0.1,0,0.1,0,0.2c0,0.2,0,0.2,0,0.4s0,0.2,0,0.5c0,0.1,0,0.2,0,0.4c0,0.3,0,0.3,0,0.5s0,0.3,0,0.5
	c0,0.3,0,0.3,0,0.6c0,0.2,0,0.4,0,0.6s0,0.4,0,0.7c0,0.2,0,0.4,0,0.6v0.6c0,0.2,0,0.5,0,0.7s0,0.3,0,0.5v4.4c0,0.1,0,0.2,0,0.2
	c0,0.2,0,0.2,0,0.4c0,0.1,0,0.2,0,0.3c0,0.2,0.1,0.3,0.1,0.4c0,0,0,0.1,0,0.2c0.2,0.1,0.3,0.1,0.4,0c0.2,0,0.3,0,0.5-0.1
	c0.2,0,0.2,0,0.4,0c0.1,0,0.3,0,0.4,0h0.8c0.2,0,0.4,0,0.6,0c0.3,0,0.5,0.1,0.7,0.1c0.1,0,0.3,0.1,0.4,0.1c0.2,0.1,0.3,0.1,0.4,0.1
	c0.2,0.1,0.3,0.1,0.5,0.1s0.3,0.1,0.5,0.2c0.1,0,0.3,0.1,0.4,0.1c0.2,0.1,0.2,0.1,0.4,0.1c0.2,0.1,0.2,0.1,0.4,0.1
	c0.1,0,0.2,0,0.3,0.1c0.1,0,0.2,0,0.3,0.1c0.2,0,0.2,0,0.3,0.1c0.1,0,0.1,0,0.2,0h0.2c0.8,0,1.3,0.7,1.3,1.4
	c-0.1,0.8-0.7,1.3-1.5,1.3h-0.2c-0.2,0-0.3,0-0.5,0s-0.2,0-0.3-0.1c-0.1,0-0.3,0-0.4-0.1c-0.2,0-0.3-0.1-0.5-0.1
	c-0.2-0.1-0.2-0.1-0.5-0.1c-0.2-0.1-0.2-0.1-0.4-0.1c-0.1,0-0.3-0.1-0.5-0.1c-0.1,0-0.3-0.1-0.4-0.1c-0.2,0-0.2-0.1-0.4-0.1
	c-0.1,0-0.3-0.1-0.5-0.1c-0.2-0.1-0.4-0.1-0.5-0.1c0,0-0.1,0-0.2,0s-0.2,0-0.3,0h-0.8c-0.1,0-0.2,0-0.3,0c-0.2,0-0.2,0-0.4,0
	c-0.1,0-0.1,0-0.2,0s-0.2,0-0.3,0.1c-0.2,0-0.4,0.1-0.5,0.1c-0.2,0-0.4,0.1-0.6,0.1h-0.3c-0.6,0-1.1-0.3-1.4-0.8
	c-0.2-0.3-0.2-0.6-0.2-0.9v-0.1c0-0.1-0.1-0.2-0.1-0.3c-0.1-0.2-0.1-0.3-0.1-0.5c0-0.1,0-0.2-0.1-0.3c0-0.2-0.1-0.4-0.1-0.6
	s0-0.2,0-0.4c0-0.1,0-0.3,0-0.4v-4.4c0-0.2,0-0.4,0-0.6s0-0.3,0-0.5v-0.6c0-0.2,0-0.4,0-0.7c0-0.2,0-0.4,0-0.6c0-0.2,0-0.4,0-0.7
	s0-0.3,0-0.6c0-0.2,0-0.4,0-0.6c0-0.3,0-0.3,0-0.5s0-0.4,0-0.5c0-0.2,0-0.2,0-0.4s0-0.2,0-0.4s0-0.3,0-0.4c0-0.1,0-0.2,0-0.4
	s0-0.4,0.1-0.6c0-0.2,0-0.3,0.1-0.4c0-0.1,0-0.3,0.1-0.4c0-0.2,0.1-0.3,0.1-0.5c0.1-0.2,0.1-0.2,0.1-0.3c0-0.1,0.1-0.2,0.1-0.3
	c0-0.3,0-0.3-0.1-0.4c-0.1-0.1-0.2-0.2-0.2-0.3c-0.1-0.1-0.1-0.1-0.2-0.2c0,0-0.1-0.1-0.2-0.1c-0.1-0.1-0.1-0.1-0.2-0.2
	c-0.1-0.1-0.2-0.1-0.3-0.2c-0.1-0.1-0.2-0.1-0.3-0.2c-0.1-0.1-0.2-0.1-0.3-0.1c-0.2-0.1-0.2-0.1-0.4-0.2c-0.1-0.1-0.3-0.1-0.4-0.2
	c-0.2-0.1-0.4-0.1-0.6-0.2s-0.3-0.1-0.5-0.2c-0.3-0.1-0.3-0.1-0.6-0.3c-0.3-0.1-0.5-0.2-0.7-0.3c-0.2-0.1-0.4-0.2-0.7-0.3
	c-0.3-0.1-0.5-0.2-0.8-0.3c-0.3-0.1-0.5-0.2-0.8-0.4c-0.3-0.1-0.6-0.3-0.9-0.4c-0.3-0.1-0.5-0.2-0.9-0.4c-0.5-0.2-0.5-0.2-1-0.4
	c-0.3-0.2-0.7-0.3-1-0.5c-0.3-0.2-0.7-0.3-1.1-0.5c-0.4-0.2-0.8-0.4-1.2-0.6c-0.4-0.2-0.8-0.4-1.2-0.6c-0.4-0.2-0.8-0.4-1.3-0.7
	s-0.9-0.5-1.3-0.7c-0.4-0.2-0.8-0.4-1.2-0.7c-0.4-0.2-0.9-0.5-1.4-0.8c-0.5-0.3-0.9-0.5-1.4-0.8c-0.5-0.2-0.9-0.5-1.2-0.7
	c-0.4-0.2-0.8-0.4-1.2-0.7c-0.5-0.3-0.9-0.5-1.2-0.8c-0.4-0.2-0.7-0.5-1.1-0.7c-0.3-0.2-0.7-0.5-1-0.7c-0.4-0.2-0.7-0.5-1-0.7
	s-0.6-0.4-0.9-0.6c-0.3-0.2-0.6-0.4-0.9-0.6s-0.6-0.4-0.8-0.6c-0.2-0.2-0.4-0.3-0.6-0.5s-0.4-0.3-0.6-0.4c-0.2-0.2-0.2-0.2-0.5-0.4
	c-0.2-0.1-0.3-0.2-0.4-0.3c-0.1-0.1-0.2-0.1-0.3-0.2c-0.1-0.1-0.2-0.2-0.4-0.2c-0.1,0-0.1-0.1-0.2-0.2c-0.4-0.2-0.6-0.5-0.8-0.9
	c-0.3-0.7-0.1-1.6,0.7-2C65.2,335.1,65.2,335.1,65.3,335L65.3,335z"/>
<path d="M130.2,300.8c0.7-0.2,1.5,0.2,1.7,0.9l0.1,0.2c0.3,0.8,0,1.7-1.1,1.9c-0.2,0-0.3,0.1-0.4,0.1c-0.2,0.1-0.3,0.1-0.4,0.2
	c-0.1,0-0.1,0-0.3,0.1c-0.2,0.1-0.2,0.1-0.4,0.2c-0.1,0-0.2,0.1-0.3,0.1c-0.1,0.1-0.3,0.1-0.5,0.2c-0.1,0.1-0.3,0.1-0.5,0.2
	s-0.4,0.2-0.6,0.3c-0.2,0.1-0.4,0.2-0.6,0.3c-0.3,0.1-0.3,0.1-0.7,0.3c-0.2,0.1-0.5,0.2-0.7,0.3s-0.5,0.2-0.8,0.3
	c-0.3,0.1-0.6,0.2-0.9,0.3s-0.6,0.2-0.9,0.3c-0.3,0.1-0.7,0.2-1,0.3c-0.4,0.1-0.8,0.2-1.2,0.3c-0.4,0.1-0.8,0.2-1.2,0.3
	c-0.4,0.1-0.8,0.2-1.3,0.2c-0.4,0.1-0.9,0.2-1.3,0.2c-0.5,0.1-0.9,0.1-1.4,0.2c-0.5,0.1-0.9,0.1-1.5,0.2c-0.8,0.1-0.8,0.1-1.5,0.2
	c-0.5,0.1-1,0.1-1.5,0.2s-1.1,0.1-1.6,0.2c-0.6,0.1-1.1,0.2-1.6,0.2c-0.5,0.1-1.1,0.2-1.7,0.2c-0.6,0.1-1.2,0.2-1.7,0.3
	c-0.6,0.1-1.2,0.2-1.8,0.3c-0.6,0.1-1.2,0.2-1.7,0.2c-0.5,0.1-1.1,0.1-1.8,0.2c-0.7,0.1-1.4,0.1-1.9,0.2c-0.6,0.1-1.2,0.1-1.8,0.1
	c-0.6,0-1.2,0-1.8,0c-0.6,0-1.2,0-1.9,0c-0.6,0-1.2,0-1.7,0c-0.6,0-1.2,0-1.8-0.1c-0.6,0-1.2-0.1-1.7-0.1s-1.1-0.1-1.6-0.2
	c-0.6-0.1-1.1-0.1-1.7-0.2s-1.1-0.2-1.6-0.3c-0.5-0.1-1-0.2-1.4-0.3s-0.9-0.2-1.4-0.3c-0.6-0.1-1.1-0.3-1.5-0.4
	c-0.5-0.1-0.9-0.3-1.3-0.4c-0.4-0.1-0.9-0.3-1.3-0.5c-0.5-0.2-0.9-0.4-1.3-0.6c-0.4-0.2-0.8-0.4-1.1-0.5c-0.4-0.2-0.7-0.4-1.2-0.6
	c-0.4-0.3-0.8-0.5-1.1-0.7c-0.3-0.2-0.7-0.5-1-0.7c-0.3-0.2-0.6-0.5-0.9-0.8s-0.6-0.6-0.9-0.9c-0.3-0.3-0.5-0.6-0.7-0.8
	c-0.2-0.2-0.4-0.5-0.6-0.8s-0.4-0.6-0.6-0.9c-0.2-0.3-0.3-0.6-0.4-0.8c-0.1-0.3-0.2-0.6-0.4-0.9c-0.1-0.4-0.2-0.7-0.3-1
	c0-0.3-0.1-0.6-0.1-0.9v-0.8c0-0.3,0-0.6,0-0.8c0-0.2,0-0.5,0.1-0.8c0-0.3,0.1-0.6,0.1-0.8c0.1-0.3,0.1-0.5,0.2-0.8s0.2-0.6,0.3-0.9
	c0.1-0.3,0.2-0.6,0.4-0.9c0.1-0.3,0.3-0.6,0.4-0.8c0.1-0.3,0.3-0.5,0.4-0.8c0.2-0.3,0.3-0.6,0.5-0.9s0.4-0.6,0.6-0.8
	c0.2-0.3,0.4-0.5,0.6-0.8s0.4-0.6,0.7-0.9c0.3-0.3,0.5-0.6,0.7-0.9c0.2-0.3,0.5-0.6,0.8-0.9s0.5-0.6,0.8-0.9
	c0.3-0.3,0.6-0.6,0.8-0.8c0.3-0.3,0.5-0.5,0.8-0.7c0.2-0.2,0.5-0.4,0.7-0.6c0.3-0.3,0.6-0.5,0.8-0.7c0.4-0.3,0.4-0.3,0.7-0.5
	c0.3-0.2,0.5-0.4,0.8-0.6s0.6-0.4,0.8-0.5c0.3-0.2,0.5-0.3,0.8-0.4c0.2-0.1,0.5-0.3,0.8-0.4c0.3-0.2,0.6-0.3,0.8-0.4
	c0.2-0.1,0.5-0.2,0.7-0.4c0.3-0.1,0.5-0.3,0.7-0.4c0.2-0.1,0.4-0.2,0.6-0.3c0.3-0.2,0.5-0.3,0.7-0.4s0.3-0.2,0.6-0.3
	c0.2-0.1,0.5-0.3,0.7-0.4c0.3-0.2,0.3-0.2,0.6-0.3c0.3-0.1,0.3-0.1,0.6-0.3c0.2-0.1,0.4-0.2,0.5-0.3c0.2-0.1,0.4-0.2,0.5-0.3
	c0.2-0.1,0.3-0.2,0.5-0.2c0.2-0.1,0.3-0.2,0.5-0.2c0.1-0.1,0.3-0.1,0.4-0.2c0.2-0.1,0.4-0.1,0.7-0.2c0.1,0,0.3,0,0.5,0s0.4,0,0.6,0
	s0.5,0.1,0.7,0.2c0.7,0.2,1.1,1,0.9,1.7c-0.2,0.7-1,1.1-1.7,0.9c-0.1,0-0.2,0-0.2-0.1c-0.1,0-0.2,0-0.2,0c-0.2,0-0.3,0.1-0.4,0.1
	s-0.2,0.1-0.4,0.2c-0.2,0.1-0.3,0.1-0.4,0.2c-0.1,0.1-0.3,0.2-0.4,0.2c-0.2,0.1-0.4,0.2-0.6,0.3c-0.3,0.2-0.3,0.2-0.5,0.3
	c-0.3,0.2-0.3,0.2-0.6,0.3c-0.2,0.1-0.4,0.2-0.6,0.3c-0.3,0.1-0.5,0.3-0.7,0.4s-0.4,0.2-0.6,0.3c-0.3,0.2-0.5,0.3-0.8,0.4
	c-0.2,0.1-0.5,0.2-0.7,0.3s-0.5,0.3-0.7,0.4c-0.2,0.1-0.5,0.3-0.7,0.4c-0.3,0.2-0.5,0.3-0.8,0.4c-0.2,0.1-0.4,0.3-0.7,0.4
	c-0.2,0.1-0.5,0.3-0.7,0.5s-0.5,0.3-0.7,0.5c-0.4,0.3-0.4,0.3-0.7,0.5c-0.2,0.2-0.5,0.3-0.7,0.6c-0.3,0.2-0.5,0.4-0.7,0.6
	c-0.2,0.2-0.4,0.4-0.6,0.6c-0.3,0.3-0.5,0.5-0.8,0.8c-0.3,0.3-0.5,0.5-0.8,0.8c-0.2,0.3-0.5,0.5-0.7,0.8c-0.2,0.3-0.5,0.6-0.7,0.9
	c-0.2,0.3-0.5,0.6-0.6,0.8c-0.2,0.3-0.4,0.5-0.6,0.8c-0.2,0.3-0.4,0.5-0.5,0.8c-0.2,0.3-0.3,0.5-0.5,0.7c-0.1,0.2-0.3,0.5-0.4,0.7
	s-0.2,0.5-0.3,0.7c-0.1,0.2-0.2,0.5-0.3,0.7c-0.1,0.2-0.1,0.4-0.2,0.7c-0.1,0.2-0.1,0.5-0.2,0.7c0,0.2-0.1,0.4-0.1,0.7
	c0,0.2-0.1,0.4-0.1,0.6c0,0.2,0,0.4,0,0.6v0.8c0,0.2,0,0.3,0,0.5c0,0.1,0.1,0.3,0.1,0.5c0.1,0.3,0.2,0.5,0.3,0.7
	c0.1,0.2,0.2,0.4,0.3,0.6c0.1,0.2,0.3,0.4,0.4,0.7c0.2,0.3,0.4,0.5,0.5,0.7c0.1,0.2,0.3,0.4,0.5,0.6c0.2,0.2,0.5,0.5,0.7,0.7
	c0.3,0.2,0.5,0.5,0.8,0.7c0.3,0.2,0.5,0.4,0.8,0.6c0.3,0.2,0.6,0.4,1,0.6s0.7,0.4,1,0.6c0.3,0.2,0.7,0.3,1,0.5
	c0.4,0.2,0.7,0.3,1.1,0.5c0.4,0.2,0.8,0.3,1.2,0.4c0.4,0.1,0.8,0.3,1.2,0.4c0.4,0.1,0.9,0.2,1.4,0.4c0.5,0.1,1,0.2,1.4,0.3
	s0.8,0.2,1.3,0.3c0.5,0.1,1,0.2,1.5,0.3s1,0.1,1.6,0.2c0.5,0.1,1,0.1,1.5,0.2c0.5,0,1,0.1,1.6,0.1s1.1,0.1,1.7,0.1
	c0.5,0,1.1,0,1.7,0s1.2,0,1.8,0c0.6,0,1.2,0,1.8,0c0.5,0,1.1,0,1.6-0.1c0.6,0,1.2-0.1,1.9-0.2c0.7-0.1,1.3-0.1,1.8-0.2
	s1-0.1,1.6-0.2c0.6-0.1,1.2-0.2,1.8-0.3c0.6-0.1,1.2-0.2,1.7-0.3c0.6-0.1,1.2-0.2,1.7-0.2c0.5-0.1,1.1-0.2,1.7-0.2
	c0.6-0.1,1.1-0.2,1.6-0.2c0.5-0.1,1-0.1,1.5-0.2c0.7-0.1,0.7-0.1,1.5-0.2c0.5-0.1,1-0.1,1.4-0.2c0.5-0.1,0.9-0.1,1.3-0.2
	c0.4-0.1,0.9-0.1,1.3-0.2c0.4-0.1,0.8-0.2,1.2-0.2c0.4-0.1,0.8-0.2,1.1-0.2c0.4-0.1,0.7-0.2,1.1-0.3c0.3-0.1,0.7-0.2,1-0.3
	c0.3-0.1,0.6-0.2,0.9-0.3c0.2-0.1,0.5-0.2,0.8-0.3c0.3-0.1,0.5-0.2,0.8-0.3c0.2-0.1,0.5-0.2,0.6-0.3c0.3-0.1,0.3-0.1,0.7-0.3
	c0.2-0.1,0.5-0.2,0.6-0.3c0.2-0.1,0.3-0.1,0.5-0.2c0.2-0.1,0.4-0.2,0.5-0.3c0.2-0.1,0.3-0.1,0.4-0.2c0.1-0.1,0.3-0.1,0.5-0.2
	c0.2-0.1,0.2-0.1,0.3-0.1c0.2-0.1,0.2-0.1,0.3-0.1c0,0,0.1,0,0.2-0.1C129.5,301.2,129.8,300.9,130.2,300.8L130.2,300.8z
	 M130.2,301.2c0.1,0,0.1,0,0.2,0C130.3,301.2,130.3,301.2,130.2,301.2L130.2,301.2z"/>
<path d="M95.4,278.4C95.4,278.5,95.5,278.5,95.4,278.4C95.5,278.5,95.5,278.5,95.4,278.4L95.4,278.4z M139.7,293.4L139.7,293.4
	L139.7,293.4L139.7,293.4z M137.9,293.7L137.9,293.7C137.8,293.7,137.9,293.7,137.9,293.7z M137.3,294.5L137.3,294.5L137.3,294.5z
	 M98,277.5c0.2,0.7-0.2,1.5-0.9,1.7c-0.7,0.2-1.5-0.1-1.7-0.9c-0.1-0.1-0.3-0.4-0.4-0.6c-0.1-0.3-0.1-0.5-0.1-0.8v-0.4
	c0-0.4,0.1-0.7,0.3-1c0.1-0.2,0.3-0.4,0.5-0.6c0.2-0.2,0.4-0.4,0.6-0.5s0.4-0.3,0.7-0.3c0.1,0,0.3-0.1,0.4-0.1
	c0.2,0,0.3-0.1,0.5-0.1s0.4-0.1,0.6-0.1s0.4,0,0.6,0h0.6c0.3,0,0.6,0,0.8,0c0.3,0,0.6,0.1,1,0.2c0.3,0.1,0.6,0.2,0.9,0.3
	c0.3,0.1,0.7,0.2,1,0.4c0.4,0.1,0.7,0.3,1,0.4c0.3,0.1,0.7,0.3,1.1,0.5c0.4,0.2,0.8,0.3,1.2,0.5c0.4,0.2,0.8,0.3,1.2,0.5
	c0.5,0.2,0.9,0.4,1.4,0.6s0.9,0.4,1.4,0.6c0.5,0.2,1,0.4,1.4,0.6c0.5,0.2,1,0.4,1.5,0.6c0.5,0.2,1,0.4,1.5,0.6s1,0.4,1.5,0.6
	c0.5,0.2,1,0.4,1.5,0.6s1,0.4,1.5,0.6c0.7,0.3,0.7,0.3,1.4,0.6c0.5,0.2,0.9,0.4,1.4,0.6c0.5,0.2,0.9,0.4,1.3,0.5
	c0.4,0.2,0.8,0.3,1.2,0.5c0.4,0.2,0.8,0.4,1.2,0.6c0.4,0.2,0.8,0.4,1.1,0.5c0.3,0.2,0.7,0.3,1,0.5c0.3,0.2,0.7,0.4,1,0.6
	c0.3,0.2,0.6,0.4,0.9,0.5c0.2,0.2,0.5,0.3,0.8,0.5c0.3,0.2,0.6,0.4,0.9,0.6c0.3,0.2,0.5,0.4,0.8,0.6c0.2,0.2,0.5,0.4,0.7,0.5
	c0.2,0.2,0.5,0.4,0.7,0.5c0.2,0.2,0.4,0.3,0.6,0.4c0.3,0.2,0.3,0.2,0.5,0.4c0.2,0.1,0.3,0.2,0.5,0.3s0.3,0.2,0.5,0.3
	c0.2,0.1,0.3,0.2,0.5,0.3c0.1,0.1,0.2,0.1,0.3,0.2c0.2,0.1,0.2,0.1,0.3,0.2c0.1,0.1,0.2,0.1,0.4,0.2c0.2,0.1,0.2,0.1,0.4,0.2
	s0.2,0.1,0.4,0.2c0.1,0,0.1,0.1,0.2,0.1c0.2-0.1,0.4-0.2,0.7-0.2c0.8,0,1.4,0.6,1.4,1.4v0.2c0,0.2,0,0.3,0,0.4c0,0.2,0,0.3-0.1,0.5
	c-0.1,0.2-0.2,0.5-0.3,0.7c-0.4,0.6-1.2,0.9-1.9,0.6c-0.3-0.1-0.6-0.4-0.8-0.6c-0.1-0.1-0.2-0.2-0.2-0.4c0-0.1-0.1-0.1-0.1-0.2
	c0,0-0.1,0-0.1-0.1c0,0-0.1-0.1-0.2-0.1c-0.2-0.1-0.2-0.1-0.4-0.3c-0.2-0.1-0.2-0.1-0.4-0.2c-0.1-0.1-0.2-0.1-0.2-0.2
	c-0.2-0.1-0.2-0.1-0.4-0.2c-0.2-0.1-0.3-0.2-0.5-0.3c-0.1-0.1-0.2-0.2-0.4-0.3c-0.1-0.1-0.3-0.2-0.5-0.3s-0.4-0.3-0.6-0.4
	c-0.3-0.2-0.3-0.2-0.5-0.4c-0.2-0.1-0.4-0.3-0.7-0.5c-0.2-0.2-0.4-0.3-0.6-0.5c-0.2-0.2-0.5-0.4-0.7-0.5c-0.2-0.2-0.5-0.4-0.7-0.5
	c-0.2-0.2-0.5-0.3-0.7-0.5c-0.3-0.2-0.6-0.4-0.8-0.5s-0.5-0.3-0.8-0.5s-0.6-0.3-0.9-0.5s-0.6-0.3-1-0.5c-0.3-0.2-0.7-0.3-1.1-0.5
	s-0.8-0.4-1.2-0.5c-0.4-0.2-0.8-0.4-1.1-0.5c-0.4-0.2-0.8-0.3-1.3-0.5s-0.9-0.4-1.4-0.6c-0.7-0.3-0.7-0.3-1.4-0.6
	c-0.5-0.2-1-0.4-1.5-0.6c-0.5-0.2-1-0.4-1.5-0.6s-1-0.4-1.5-0.6c-0.5-0.2-1-0.4-1.5-0.6s-1-0.4-1.5-0.6c-0.5-0.2-1-0.4-1.5-0.6
	s-1-0.4-1.5-0.6c-0.5-0.2-0.9-0.4-1.3-0.6s-0.8-0.4-1.2-0.5c-0.4-0.1-0.8-0.3-1.2-0.5c-0.4-0.2-0.8-0.3-1.1-0.4
	c-0.3-0.1-0.6-0.2-1-0.4c-0.3-0.1-0.6-0.2-0.9-0.3c-0.3-0.1-0.5-0.2-0.8-0.2c-0.2-0.1-0.4-0.1-0.6-0.1s-0.4,0-0.6,0H99
	c-0.2,0-0.3,0-0.5,0c-0.1,0-0.2,0-0.3,0c-0.1,0-0.2,0-0.3,0.1c-0.1,0-0.2,0-0.2,0.1c0,0,0,0-0.1,0.1l-0.1,0.1
	C97.7,277,97.9,277.2,98,277.5L98,277.5z"/>
<path d="M140.5,310.5L140.5,310.5L140.5,310.5z M140.6,306.4c-0.1,0-0.1,0-0.2-0.1c-0.1,0-0.1,0-0.2,0c-0.1,0-0.1,0-0.2,0
	c-0.1,0-0.1,0-0.2,0h-0.3h-0.1c0,0-0.1,0-0.1,0.1c-0.1,0-0.2,0.1-0.2,0.1c-0.1,0-0.1,0.1-0.2,0.1l0,0c0,0.1,0,0.3,0,0.4v0.1
	c0,0,0,0.1,0.1,0.2c0,0.1,0,0.1,0.1,0.3c0,0.1,0,0.1,0.1,0.2c0,0.1,0,0.1,0.1,0.2c0,0.1,0.1,0.1,0.1,0.2c0,0.1,0.1,0.1,0.1,0.2
	s0.1,0.1,0.2,0.2c0.1,0.1,0.2,0.3,0.3,0.4c0.1,0.1,0.1,0.2,0.1,0.2c0-0.1,0.1-0.2,0.1-0.3c0-0.1,0.1-0.3,0.1-0.4
	c0.1-0.3,0.1-0.3,0.1-0.5c0-0.2,0.1-0.3,0.1-0.5c0.1-0.3,0.1-0.3,0.1-0.6c0-0.1,0.1-0.2,0.1-0.3
	C140.7,306.5,140.7,306.4,140.6,306.4z M137.2,304.5c-0.3-0.2-0.5-0.5-0.7-0.9c-0.1-0.2-0.2-0.4-0.2-0.7c0-0.2-0.1-0.4-0.1-0.5
	c0-0.2,0-0.2-0.1-0.4c0-0.2,0-0.2-0.1-0.5c0-0.3,0-0.3-0.1-0.5c0-0.2-0.1-0.4-0.1-0.6c0-0.3,0-0.3-0.1-0.6c0-0.2-0.1-0.5-0.1-0.8
	s0-0.5-0.1-0.8c0-0.4,0-0.4-0.1-0.9c0-0.4,0-0.7-0.1-1.1c0-0.3,0-0.7,0-1.1c0-0.4,0-0.8,0-1.2s0-0.8,0-1.3s0-0.9,0-1.2v-6.9
	c0-0.3,0-0.6,0-1c0-0.3,0-0.6,0-0.9v-2.4c0-0.3,0-0.5,0-0.7c0-0.3,0-0.5,0.1-0.8c0-0.2,0.1-0.4,0.1-0.6c0-0.2,0.1-0.4,0.1-0.6
	c0.1-0.2,0.1-0.3,0.1-0.5c0.1-0.2,0.1-0.4,0.2-0.5c0.1-0.2,0.2-0.4,0.4-0.5c0.2-0.3,0.5-0.5,0.9-0.6c0.2-0.1,0.5-0.1,0.7-0.1
	c0.4,0,0.8,0.2,1.1,0.5c0.2,0.2,0.3,0.3,0.5,0.5c0.1,0.1,0.2,0.3,0.3,0.4c0.1,0.2,0.2,0.3,0.3,0.5s0.1,0.4,0.2,0.6
	c0.1,0.2,0.1,0.4,0.2,0.7c0,0.2,0.1,0.4,0.1,0.7s0.1,0.5,0.1,0.7c0,0.2,0.1,0.5,0.1,0.8s0.1,0.6,0.1,0.9s0,0.6,0,0.9
	c0,0.4,0,0.4,0,0.8c0,0.4,0,0.4,0,0.9s0,0.5,0,0.9c0,0.3,0,0.6,0,0.9c0,0.3,0,0.7,0.1,1c0,0.3,0,0.7,0.1,1.1c0,0.4,0.1,0.7,0.1,1
	c0,0.3,0.1,0.7,0.1,1.1c0,0.4,0.1,0.7,0.1,1c0,0.3,0.1,0.7,0.1,1c0,0.4,0.1,0.7,0.1,1c0,0.3,0.1,0.7,0.1,1c0.1,0.5,0.1,0.5,0.1,0.9
	c0,0.2,0.1,0.5,0.1,0.8s0.1,0.5,0.1,0.8c0,0.2,0.1,0.5,0.1,0.7s0.1,0.3,0.1,0.7c0,0.2,0.1,0.4,0.1,0.6c0.1,0.3,0.1,0.3,0.1,0.6
	c0,0.2,0.1,0.4,0.1,0.6s0.1,0.3,0.1,0.4c0,0.2,0,0.2,0.1,0.4c0,0.2,0,0.2,0.1,0.4c0,0.2,0,0.2,0.1,0.4c0.3,0.2,0.5,0.7,0.5,1.1v0.1
	c0,0.1,0,0.3,0,0.4c0,0.2,0,0.4,0,0.5v0.3c0,0.2,0,0.2-0.1,0.4c0,0.1,0,0.3-0.1,0.4c0,0.1-0.1,0.3-0.1,0.5c-0.1,0.2-0.1,0.2-0.1,0.5
	c0,0.2-0.1,0.4-0.1,0.5c0,0.2-0.1,0.4-0.1,0.6c0,0.2-0.1,0.3-0.1,0.5c-0.1,0.3-0.1,0.3-0.1,0.6c0,0.2-0.1,0.4-0.2,0.6
	c-0.1,0.3-0.1,0.3-0.2,0.5c-0.1,0.2-0.1,0.4-0.2,0.5c-0.1,0.2-0.1,0.3-0.2,0.5c0,0.1-0.1,0.3-0.1,0.4c-0.1,0.2-0.1,0.3-0.2,0.4
	c-0.1,0.1-0.1,0.3-0.2,0.4c-0.1,0.2-0.3,0.4-0.4,0.5c-0.2,0.2-0.4,0.4-0.6,0.5c-0.3,0.2-0.6,0.2-0.9,0.2c-0.2,0-0.4,0-0.6-0.1
	c-0.3-0.1-0.6-0.3-0.9-0.6c-0.2-0.2-0.3-0.5-0.4-0.8c0-0.1-0.1-0.3-0.1-0.4c0-0.1,0-0.2-0.1-0.2c0,0,0,0,0-0.1c0,0,0-0.1-0.1-0.1
	c-0.1-0.1-0.2-0.2-0.3-0.3s-0.2-0.2-0.3-0.4c-0.1-0.1-0.2-0.3-0.3-0.4c-0.1-0.1-0.1-0.3-0.2-0.4c-0.1-0.1-0.1-0.3-0.2-0.4
	c0-0.2,0-0.2-0.1-0.3c0-0.1,0-0.1-0.1-0.3c-0.1-0.3-0.2-0.7-0.1-1.1c0-0.1,0-0.1,0-0.2c0-0.1,0-0.1,0-0.2c0-0.2,0-0.3,0.1-0.5
	c0-0.2,0.1-0.4,0.2-0.6c0.1-0.2,0.2-0.4,0.4-0.5C137.1,304.7,137.2,304.6,137.2,304.5C137.3,304.5,137.3,304.5,137.2,304.5
	L137.2,304.5z M140.7,304.2L140.7,304.2L140.7,304.2z M139.3,303.6c0.1,0,0.1,0,0.2,0h0.3c0.1,0,0.3,0,0.4,0c0.2,0,0.2,0,0.3,0
	s0.3,0,0.4,0.1l0,0v-0.2c0-0.1,0-0.2,0-0.3c0-0.2,0-0.2,0-0.4c0-0.1,0-0.2,0-0.3c0-0.2,0-0.2,0-0.3s0-0.1,0-0.3c0-0.2,0-0.2-0.1-0.4
	c0-0.2,0-0.2-0.1-0.4c0-0.2,0-0.2-0.1-0.4c0-0.1-0.1-0.3-0.1-0.5c0-0.2-0.1-0.3-0.1-0.5c-0.1-0.3-0.1-0.3-0.1-0.5
	c0-0.2-0.1-0.4-0.1-0.7c-0.1-0.3-0.1-0.4-0.1-0.7c0-0.2-0.1-0.5-0.1-0.7c0-0.3-0.1-0.5-0.1-0.8c0-0.3-0.1-0.6-0.1-0.8
	c-0.1-0.4-0.1-0.4-0.1-0.9c0-0.3-0.1-0.7-0.1-1s-0.1-0.7-0.1-1.1c-0.1-0.4-0.1-0.7-0.1-1.1c0-0.3-0.1-0.7-0.1-1.1s-0.1-0.7-0.1-1.1
	c0-0.4-0.1-0.7-0.1-1.1s-0.1-0.7-0.1-1.1c0-0.4,0-0.7-0.1-1c0-0.3,0-0.7,0-0.9c0-0.4,0-0.4,0-0.9s0-0.5,0-1c0-0.4,0-0.4,0-0.9
	c0-0.3,0-0.5,0-0.8c0-0.2,0-0.5-0.1-0.8c0-0.3-0.1-0.5-0.1-0.6c0-0.2-0.1-0.3-0.1-0.5s-0.1-0.4-0.1-0.6c0-0.1,0-0.2-0.1-0.2
	c0,0.1,0,0.1,0,0.2c0,0.2,0,0.3,0,0.4c0,0.2,0,0.4,0,0.6v2.4c0,0.3,0,0.5,0,0.9c0,0.3,0,0.7,0,1v6.9c0,0.3,0,0.7,0,1.2s0,0.9,0,1.3
	s0,0.8,0,1.2c0,0.4,0,0.7,0,1.1c0,0.3,0,0.6,0,1c0,0.5,0,0.5,0.1,0.9c0,0.3,0,0.5,0.1,0.8c0,0.2,0,0.5,0.1,0.7c0,0.3,0,0.3,0.1,0.6
	c0,0.2,0,0.4,0.1,0.5c0,0.2,0,0.2,0.1,0.5c0,0.2,0,0.2,0.1,0.4c0,0.2,0,0.2,0.1,0.4c0,0.1,0,0.2,0.1,0.4v0.1
	C139.2,302.7,139.4,303.1,139.3,303.6L139.3,303.6z M138.9,302.4C138.9,302.5,138.9,302.5,138.9,302.4L138.9,302.4L138.9,302.4z"/>
<path d="M133.4,300L133.4,300L133.4,300z M129.5,310L129.5,310L129.5,310z M137,311.7L137,311.7L137,311.7z M133.3,300.2
	c0,0.1-0.1,0.1-0.1,0.2c-0.1,0.1-0.1,0.1-0.1,0.2c-0.1,0.2-0.1,0.2-0.1,0.4c-0.1,0.1-0.1,0.3-0.2,0.4c-0.1,0.3-0.1,0.3-0.2,0.5
	c-0.1,0.2-0.1,0.4-0.2,0.6c-0.1,0.2-0.1,0.4-0.2,0.6c-0.1,0.3-0.1,0.3-0.2,0.6c-0.1,0.2-0.1,0.4-0.2,0.7c-0.1,0.2-0.2,0.5-0.2,0.6
	c-0.1,0.3-0.1,0.3-0.2,0.6c-0.1,0.2-0.2,0.4-0.2,0.6c-0.1,0.2-0.1,0.4-0.2,0.6c-0.1,0.2-0.1,0.4-0.2,0.6c-0.1,0.2-0.1,0.2-0.2,0.5
	c-0.1,0.2-0.1,0.2-0.2,0.4c0,0.1,0,0.1-0.1,0.1c0.1,0,0.2,0.1,0.4,0.1c0.2,0.1,0.2,0.1,0.3,0.1c0.2,0.1,0.3,0.1,0.5,0.2
	c0.1,0.1,0.2,0.1,0.3,0.2s0.3,0.1,0.5,0.2c0.2,0.1,0.2,0.1,0.4,0.3c0.1,0.1,0.3,0.2,0.4,0.2c0.2,0.1,0.3,0.2,0.4,0.2
	c0.1,0.1,0.2,0.1,0.4,0.2c0.2,0.1,0.3,0.2,0.5,0.3c0.1,0.1,0.2,0.1,0.3,0.2c0.2,0.1,0.2,0.1,0.4,0.2c0.1,0.1,0.3,0.1,0.4,0.2
	c0.1,0,0.1,0.1,0.2,0.1c0.1,0.1,0.3,0.1,0.4,0.2c0.2,0.1,0.2,0.1,0.4,0.2l0,0c0-0.1,0.1-0.2,0.1-0.2c0.1-0.2,0.1-0.2,0.1-0.4
	c0.1-0.2,0.1-0.2,0.1-0.4c0-0.1,0.1-0.2,0.1-0.3c0-0.2,0.1-0.3,0.1-0.5c0.1-0.2,0.1-0.2,0.1-0.4c0.1-0.2,0.1-0.2,0.1-0.4
	c0.1-0.2,0.1-0.2,0.1-0.4c0-0.1,0.1-0.3,0.1-0.5c0-0.2,0.1-0.3,0.1-0.5c0-0.2,0.1-0.3,0.1-0.5c0-0.1,0.1-0.3,0.1-0.5
	c0.1-0.3,0.1-0.3,0.1-0.5c0.1-0.3,0.1-0.3,0.1-0.5c0.1-0.3,0.1-0.3,0.1-0.5c0-0.2,0.1-0.3,0.1-0.5c0.1-0.3,0.1-0.3,0.1-0.5
	c0.1-0.3,0.1-0.3,0.1-0.5c0-0.2,0.1-0.4,0.2-0.5c0.1-0.3,0.1-0.3,0.1-0.5c0-0.1,0.1-0.2,0.1-0.4c0.1-0.2,0.1-0.2,0.1-0.4
	c0.1-0.2,0.1-0.2,0.1-0.3c0,0,0-0.1,0-0.2c0-0.2,0-0.2,0.1-0.4c0-0.1,0-0.2,0-0.2l0,0c-0.1,0-0.1,0-0.2-0.1c-0.2,0-0.3-0.1-0.4-0.1
	c-0.1,0-0.2,0-0.3,0s-0.2,0-0.3,0c-0.2,0-0.2,0-0.3,0s-0.2,0-0.3,0s-0.2,0-0.3,0H136c-0.1,0-0.2,0-0.2,0h-0.1c-0.1,0-0.2,0-0.3,0.1
	c-0.1,0-0.2,0.1-0.3,0.1l-0.2,0.1c-0.5,0.1-1,0-1.3-0.4C133.4,300.1,133.4,300.1,133.3,300.2L133.3,300.2z M129.2,310.9
	c-0.1,0-0.1,0-0.2,0c-0.3,0.1-0.6,0-0.9,0c-0.9-0.2-1.4-1.2-1-2.1c0.1-0.1,0.1-0.1,0.2-0.3c0.1-0.2,0.1-0.2,0.2-0.4
	c0-0.1,0.1-0.1,0.1-0.2c0.1-0.1,0.1-0.1,0.2-0.3c0.1-0.2,0.1-0.2,0.2-0.4c0.1-0.2,0.1-0.2,0.2-0.4c0.1-0.2,0.1-0.2,0.2-0.5
	c0.1-0.1,0.1-0.3,0.2-0.5c0.1-0.2,0.1-0.4,0.2-0.6c0.1-0.2,0.1-0.4,0.2-0.6c0.1-0.3,0.1-0.3,0.2-0.6c0.1-0.2,0.1-0.4,0.2-0.6
	s0.1-0.4,0.2-0.6c0.1-0.3,0.1-0.3,0.2-0.6c0.1-0.2,0.1-0.4,0.2-0.6c0.1-0.2,0.1-0.4,0.2-0.6c0.1-0.3,0.1-0.3,0.2-0.5
	c0.1-0.2,0.1-0.3,0.2-0.5c0.1-0.2,0.1-0.2,0.2-0.4c0.1-0.2,0.1-0.2,0.1-0.3c0.1-0.1,0.1-0.3,0.2-0.5c0.1-0.2,0.2-0.4,0.4-0.5
	c0.2-0.2,0.4-0.4,0.6-0.5c0.3-0.2,0.7-0.2,1.1-0.2c0.4,0,0.7,0.2,1,0.5h0.1c0.1,0,0.3-0.1,0.5-0.1s0.3-0.1,0.4-0.1
	c0.2,0,0.3,0,0.4-0.1c0.1,0,0.2,0,0.4,0h1.4c0.1,0,0.3,0,0.4,0c0.1,0,0.3,0,0.4,0c0.2,0,0.2,0,0.4,0c0.1,0,0.3,0,0.4,0
	c0.1,0,0.3,0,0.4,0c0.1,0,0.3,0.1,0.5,0.1c0.3,0.1,0.5,0.1,0.7,0.2s0.4,0.2,0.6,0.3c0.2,0.2,0.4,0.3,0.6,0.5c0.2,0.3,0.4,0.6,0.4,1
	c0,0.2,0,0.4,0,0.6s0,0.3,0,0.5c0,0.2-0.1,0.4-0.1,0.6c-0.1,0.2-0.1,0.2-0.1,0.3s-0.1,0.3-0.1,0.4c-0.1,0.1-0.1,0.1-0.1,0.3
	c-0.1,0.2-0.1,0.2-0.1,0.3c0,0.2-0.1,0.3-0.1,0.5c-0.1,0.2-0.1,0.2-0.1,0.4s-0.1,0.3-0.1,0.4c-0.1,0.2-0.1,0.2-0.1,0.5
	c-0.1,0.3-0.1,0.3-0.1,0.5c-0.1,0.2-0.1,0.4-0.2,0.5c-0.1,0.3-0.1,0.3-0.1,0.5c-0.1,0.3-0.1,0.3-0.1,0.5c-0.1,0.3-0.1,0.3-0.1,0.5
	c-0.1,0.2-0.1,0.4-0.1,0.5s-0.1,0.3-0.1,0.4c0,0.2-0.1,0.3-0.1,0.5s-0.1,0.3-0.1,0.5c-0.1,0.2-0.1,0.2-0.1,0.4
	c-0.1,0.2-0.1,0.2-0.1,0.5c-0.1,0.2-0.1,0.2-0.1,0.4c0,0.1-0.1,0.2-0.1,0.4s-0.1,0.4-0.1,0.5c-0.1,0.2-0.1,0.2-0.1,0.4
	c-0.1,0.2-0.1,0.2-0.1,0.4c-0.1,0.2-0.1,0.3-0.2,0.5c-0.1,0.2-0.2,0.5-0.3,0.6c-0.2,0.3-0.3,0.5-0.6,0.7c-0.3,0.2-0.7,0.4-1.1,0.4
	c-0.2,0-0.3,0-0.5,0s-0.4-0.1-0.6-0.1c-0.2-0.1-0.3-0.1-0.5-0.2s-0.2-0.1-0.4-0.2c-0.1,0-0.2-0.1-0.3-0.1c-0.1-0.1-0.3-0.1-0.4-0.2
	c-0.1-0.1-0.2-0.1-0.3-0.2c-0.2-0.1-0.2-0.1-0.4-0.2c-0.1-0.1-0.3-0.2-0.5-0.2c-0.1-0.1-0.3-0.2-0.4-0.2c-0.2-0.1-0.3-0.2-0.5-0.3
	c-0.1-0.1-0.2-0.1-0.4-0.2s-0.3-0.2-0.5-0.3c-0.2-0.1-0.2-0.1-0.4-0.3c-0.1-0.1-0.2-0.1-0.3-0.2c-0.1-0.1-0.3-0.1-0.4-0.2
	c-0.1-0.1-0.2-0.1-0.3-0.1c-0.2-0.1-0.2-0.1-0.3-0.1s-0.1-0.1-0.2-0.1L129.2,310.9L129.2,310.9z"/>
<path d="M165.8,291.7L165.8,291.7L165.8,291.7z M165.5,293.2L165.5,293.2L165.5,293.2z M166.9,294.2c-0.1,0.2-0.1,0.2-0.2,0.4
	c0,0.1-0.1,0.1-0.1,0.3c-0.1,0.2-0.1,0.2-0.2,0.4c0,0.1-0.1,0.2-0.1,0.3c0,0.1-0.1,0.3-0.2,0.4c-0.1,0.2-0.1,0.3-0.2,0.4
	c-0.1,0.2-0.1,0.3-0.2,0.5c-0.1,0.2-0.1,0.3-0.1,0.4c-0.1,0.2-0.1,0.2-0.2,0.5c-0.1,0.2-0.1,0.3-0.2,0.5c-0.1,0.2-0.1,0.2-0.2,0.4
	c-0.1,0.2-0.1,0.2-0.1,0.3c-0.1,0.2-0.1,0.2-0.1,0.4c0,0.1-0.1,0.2-0.1,0.3c-0.1,0.2-0.1,0.2-0.1,0.4c-0.1,0.2-0.1,0.3-0.1,0.5
	c0,0.1,0,0.2-0.1,0.3c0,0.1,0,0.2,0,0.4s0,0.3-0.1,0.5c0,0.2-0.1,0.4-0.1,0.5c-0.1,0.2-0.2,0.4-0.3,0.6s-0.3,0.4-0.5,0.5
	s-0.3,0.3-0.5,0.3c-0.1,0.1-0.1,0.1-0.3,0.1c-0.1,0.1-0.3,0.1-0.4,0.2c-0.1,0-0.3,0.1-0.4,0.1c-0.2,0-0.3,0.1-0.5,0.1
	s-0.4,0.1-0.6,0.1c-0.2,0-0.3,0-0.5,0h-0.4c-0.1,0-0.3,0-0.5,0s-0.4,0-0.5,0c-0.2,0-0.2,0-0.4-0.1c-0.2,0-0.4,0-0.6-0.1
	c-0.2,0-0.4-0.1-0.6-0.1c-0.2,0-0.4-0.1-0.5-0.1c-0.2,0-0.4-0.1-0.5-0.2c-0.2-0.1-0.4-0.1-0.5-0.2c-0.2-0.1-0.2-0.1-0.5-0.2
	c-0.2-0.1-0.3-0.1-0.5-0.2c-0.2-0.1-0.2-0.1-0.4-0.2c-0.2-0.1-0.2-0.1-0.3-0.1l-0.3-0.1c-0.1,0-0.1,0-0.2-0.1c-0.1,0-0.2,0-0.4,0
	c-0.1,0-0.2,0-0.3,0s-0.1,0-0.2,0.1c-0.2,0.1-0.5,0.2-0.8,0.2c-0.7,0-1.4-0.6-1.4-1.3c0-0.1,0-0.3,0-0.5c0-0.1,0-0.3,0.1-0.4
	c0-0.2,0.1-0.3,0.1-0.5c0-0.1,0-0.1,0.1-0.2c0-0.1,0.1-0.3,0.1-0.4c0-0.2,0-0.2,0.1-0.3c0-0.2,0-0.2,0.1-0.4c0-0.1,0.1-0.3,0.1-0.4
	c0-0.1,0.1-0.3,0.1-0.4c0-0.2,0.1-0.3,0.1-0.5c0-0.2,0.1-0.4,0.1-0.6c0.1-0.3,0.1-0.3,0.1-0.6c0-0.2,0.1-0.4,0.1-0.6
	c0.1-0.3,0.1-0.3,0.1-0.6c0-0.2,0.1-0.3,0.1-0.6c0-0.2,0.1-0.4,0.1-0.5c0-0.2,0.1-0.4,0.1-0.5c0-0.2,0.1-0.3,0.1-0.5
	c0-0.2,0-0.2,0.1-0.4c0-0.1,0.1-0.3,0.1-0.4c0-0.2,0.1-0.3,0.1-0.4c0.1-0.3,0.3-0.5,0.5-0.7s0.4-0.3,0.7-0.5
	c0.6-0.4,1.3-0.3,1.7,0.3c0.4,0.6,0.2,1.4-0.3,1.8c-0.1,0.1-0.2,0.2-0.3,0.2c0,0.1,0,0.2-0.1,0.3c0,0.2,0,0.2-0.1,0.4
	c0,0.1,0,0.2-0.1,0.4c0,0.1,0,0.3-0.1,0.4c0,0.2-0.1,0.4-0.1,0.6s-0.1,0.4-0.1,0.6c-0.1,0.3-0.1,0.3-0.1,0.6c0,0.2-0.1,0.5-0.1,0.6
	c-0.1,0.3-0.1,0.3-0.1,0.6c0,0.2-0.1,0.4-0.1,0.6c0,0.2-0.1,0.4-0.1,0.6s-0.1,0.3-0.1,0.5c0,0.1-0.1,0.3-0.1,0.5
	c-0.1,0.2-0.1,0.2-0.1,0.4c0,0.1,0,0.2-0.1,0.2h0.3c0.2,0,0.4,0,0.5,0.1c0.1,0,0.3,0.1,0.4,0.1c0.2,0.1,0.2,0.1,0.4,0.1
	c0.2,0.1,0.2,0.1,0.4,0.2s0.2,0.1,0.4,0.2c0.1,0.1,0.3,0.1,0.4,0.2c0.2,0.1,0.2,0.1,0.4,0.2c0.1,0.1,0.3,0.1,0.4,0.2
	c0.1,0,0.3,0.1,0.4,0.1c0.1,0,0.3,0.1,0.5,0.1s0.3,0.1,0.4,0.1c0.1,0,0.3,0,0.4,0.1c0.2,0,0.2,0,0.4,0c0.1,0,0.2,0,0.4,0
	s0.3,0,0.4,0h0.4c0.1,0,0.3,0,0.4,0c0.1,0,0.1,0,0.2,0c0.1,0,0.1,0,0.2-0.1c0.1,0,0.2,0,0.2-0.1c0.1,0,0.1,0,0.2-0.1
	c0.1,0,0.1,0,0.2-0.1c0,0,0,0,0.1-0.1c0,0,0,0,0-0.1s0-0.2,0-0.3c0-0.2,0-0.3,0.1-0.5c0-0.2,0.1-0.4,0.1-0.6s0.1-0.4,0.2-0.6
	c0.1-0.3,0.1-0.3,0.1-0.4c0-0.1,0.1-0.2,0.1-0.4c0.1-0.2,0.1-0.2,0.1-0.3c0.1-0.2,0.1-0.2,0.1-0.4c0.1-0.2,0.1-0.2,0.2-0.4
	c0-0.1,0.1-0.3,0.1-0.4c0.1-0.2,0.1-0.2,0.1-0.4c0.1-0.2,0.1-0.3,0.2-0.5c0.1-0.2,0.1-0.3,0.2-0.5c0.1-0.2,0.1-0.2,0.2-0.5
	c0.1-0.1,0.1-0.3,0.1-0.4s0.1-0.3,0.2-0.4c0.1-0.2,0.1-0.2,0.1-0.4c0.1-0.1,0.1-0.3,0.1-0.4c0.1-0.2,0.1-0.2,0.2-0.4
	c0.1-0.1,0.1-0.3,0.2-0.4c-0.1,0-0.1,0-0.2-0.1c-0.1,0-0.1-0.1-0.2-0.1c-0.1-0.1-0.3-0.1-0.4-0.2c-0.2-0.1-0.2-0.1-0.3-0.1
	s-0.2-0.1-0.3-0.1s-0.2-0.1-0.3-0.1s-0.3-0.1-0.4-0.1c-0.1,0-0.2-0.1-0.4-0.1c-0.1,0-0.3-0.1-0.4-0.1c-0.1,0-0.2-0.1-0.4-0.1
	c-0.1,0-0.3-0.1-0.4-0.1c-0.1,0-0.2,0-0.3,0s-0.2,0-0.4,0s-0.2,0-0.4,0s-0.2,0-0.4,0c-0.1,0-0.2,0-0.2,0c-0.1,0-0.1,0-0.2,0h-1.5
	c-0.7,0-1.3-0.6-1.3-1.3s0.6-1.3,1.3-1.3h1.5c0.1,0,0.2,0,0.3,0s0.3,0,0.4,0c0.2,0,0.2,0,0.3,0c0.2,0,0.2,0,0.4,0c0.1,0,0.3,0,0.4,0
	c0.2,0,0.3,0,0.5,0.1c0.2,0,0.3,0,0.5,0.1c0.2,0,0.3,0.1,0.5,0.1c0.1,0,0.3,0.1,0.5,0.1s0.3,0.1,0.5,0.1c0.1,0,0.2,0.1,0.4,0.1
	s0.3,0.1,0.5,0.2c0.1,0.1,0.3,0.1,0.4,0.2c0.2,0.1,0.2,0.1,0.4,0.2c0.1,0,0.2,0.1,0.3,0.1c0.1,0.1,0.3,0.1,0.4,0.2
	c0.1,0,0.1,0.1,0.2,0.1c0.2,0.1,0.2,0.1,0.3,0.1s0.2,0.1,0.4,0.2c0.2,0.1,0.4,0.2,0.5,0.4c0.3,0.2,0.5,0.6,0.6,0.9
	c0.1,0.4,0.1,0.8-0.1,1.2c-0.1,0.3-0.3,0.5-0.5,0.6C166.9,294,166.9,294.1,166.9,294.2L166.9,294.2z M167,293.8
	C167.1,293.8,167.1,293.8,167,293.8C167.1,293.8,167.1,293.8,167,293.8z"/>
<path d="M158.1,322L158.1,322L158.1,322L158.1,322z M153.3,310.6c-0.2,0.2-0.3,0.3-0.3,0.3c0,0.1-0.1,0.1-0.1,0.2s-0.1,0.1-0.1,0.2
	c-0.1,0.2-0.1,0.2-0.2,0.4c0,0.1-0.1,0.2-0.1,0.3c-0.1,0.2-0.1,0.3-0.2,0.5c-0.1,0.1-0.1,0.3-0.1,0.4c-0.1,0.2-0.1,0.2-0.2,0.5
	c-0.1,0.3-0.1,0.3-0.2,0.6c-0.1,0.2-0.1,0.4-0.2,0.6c-0.1,0.2-0.1,0.4-0.2,0.5c-0.1,0.2-0.1,0.4-0.2,0.5c-0.1,0.2-0.1,0.2-0.2,0.5
	c-0.1,0.2-0.1,0.2-0.2,0.5c-0.1,0.2-0.1,0.3-0.1,0.4c-0.1,0.2-0.1,0.2-0.1,0.4c0,0.1-0.1,0.3-0.1,0.4c-0.1,0.2-0.1,0.2-0.1,0.4
	s-0.1,0.3-0.1,0.4c0,0.2,0,0.2-0.1,0.4c0,0.2,0,0.2-0.1,0.4c0,0.1,0,0.1,0,0.1c0.2,0,0.3,0,0.5,0h0.7c0.2,0,0.4,0,0.7,0.1
	c0.2,0,0.3,0.1,0.5,0.1c0.2,0.1,0.3,0.1,0.5,0.2c0.2,0.1,0.2,0.1,0.4,0.2c0.2,0.1,0.3,0.1,0.5,0.2c0.2,0.1,0.2,0.1,0.4,0.2
	c0.1,0.1,0.3,0.1,0.4,0.2c0.2,0.1,0.2,0.1,0.5,0.2c0.1,0.1,0.3,0.1,0.4,0.2c0.2,0.1,0.2,0.1,0.4,0.2c0.1,0.1,0.2,0.1,0.3,0.2
	c0.2,0.1,0.2,0.1,0.3,0.1l0.3,0.1c0.1,0,0.1,0,0.2,0.1c0.1,0,0.1,0,0.2,0.1c0,0,0.1,0,0.2,0h0.1c0.1-0.1,0.1-0.3,0.2-0.4
	c0.1-0.2,0.1-0.2,0.2-0.3c0.1-0.1,0.1-0.1,0.2-0.3c0.1-0.1,0.1-0.2,0.1-0.3c0.1-0.1,0.1-0.3,0.2-0.4c0.1-0.1,0.1-0.2,0.2-0.3
	c0.1-0.2,0.2-0.3,0.2-0.5c0.1-0.1,0.1-0.2,0.2-0.4c0.1-0.2,0.1-0.2,0.2-0.5c0.1-0.2,0.1-0.2,0.3-0.5c0.1-0.2,0.2-0.4,0.2-0.5
	c0.1-0.1,0.1-0.3,0.2-0.5c0.1-0.3,0.1-0.3,0.2-0.5c0.1-0.2,0.1-0.3,0.2-0.5c0.1-0.2,0.2-0.4,0.2-0.5c0.1-0.2,0.1-0.3,0.2-0.5
	c0.1-0.2,0.1-0.3,0.2-0.5c0.1-0.2,0.1-0.2,0.2-0.5c0.1-0.1,0.1-0.3,0.1-0.4c0-0.1,0.1-0.2,0.1-0.3c0.1-0.2,0.1-0.2,0.1-0.3
	c0-0.1,0-0.1,0-0.2c0-0.1,0-0.1,0-0.3v-0.1v-0.1c-0.1,0-0.2-0.1-0.3-0.1c-0.2-0.1-0.2-0.1-0.3-0.1s-0.1,0-0.3-0.1
	c-0.2,0-0.2,0-0.3-0.1c-0.1,0-0.2-0.1-0.3-0.1c-0.2,0-0.2,0-0.4-0.1c-0.1,0-0.3-0.1-0.4-0.1c-0.2,0-0.2,0-0.4-0.1
	c-0.2,0-0.2,0-0.5-0.1c-0.2,0-0.3,0-0.5-0.1c-0.2,0-0.4-0.1-0.5-0.1s-0.3,0-0.4-0.1c-0.2,0-0.3,0-0.4,0c-0.2,0-0.3,0-0.5-0.1
	c-0.2,0-0.2,0-0.4-0.1c-0.2,0-0.2,0-0.4-0.1c-0.2,0-0.3-0.1-0.4-0.1c-0.1,0-0.3-0.1-0.4-0.1c-0.1,0-0.3-0.1-0.4-0.1l-0.3-0.1
	c-0.2-0.1-0.3-0.1-0.5-0.2l0,0C153.4,310.6,153.4,310.6,153.3,310.6z M154.9,308.4c0.1,0,0.1,0,0.1,0c0.1,0,0.1,0,0.2,0.1
	c0.1,0,0.2,0,0.3,0.1c0.1,0,0.2,0,0.3,0.1c0.2,0,0.2,0,0.4,0.1c0.2,0,0.2,0,0.5,0.1c0.1,0,0.3,0,0.4,0c0.1,0,0.3,0,0.5,0
	s0.4,0,0.5,0.1c0.1,0,0.3,0,0.5,0.1c0.2,0,0.4,0.1,0.5,0.1c0.2,0,0.2,0,0.5,0.1c0.2,0,0.2,0,0.4,0.1c0.2,0,0.3,0.1,0.5,0.1
	c0.2,0.1,0.2,0.1,0.4,0.1c0.1,0,0.3,0.1,0.4,0.1c0.2,0.1,0.2,0.1,0.4,0.1c0.2,0.1,0.2,0.1,0.3,0.1c0.2,0.1,0.2,0.1,0.4,0.1
	c0.1,0,0.3,0.1,0.4,0.1c0.2,0.1,0.3,0.1,0.5,0.2c0.2,0.1,0.4,0.3,0.6,0.5c0.3,0.3,0.4,0.7,0.4,1.1v0.4c0,0.2,0,0.2,0,0.3
	s0,0.3,0,0.4s0,0.1,0,0.3c0,0.1-0.1,0.3-0.1,0.5c-0.1,0.2-0.1,0.2-0.1,0.4c0,0.1-0.1,0.3-0.1,0.4c0,0.1-0.1,0.3-0.1,0.4
	c-0.1,0.2-0.1,0.2-0.2,0.5c-0.1,0.2-0.1,0.4-0.2,0.5c-0.1,0.2-0.1,0.4-0.2,0.5c-0.1,0.2-0.1,0.3-0.2,0.5c-0.1,0.2-0.2,0.4-0.3,0.6
	c-0.1,0.3-0.1,0.3-0.2,0.5c-0.1,0.2-0.2,0.4-0.2,0.5c-0.1,0.2-0.2,0.3-0.3,0.5c-0.1,0.3-0.1,0.3-0.2,0.5c-0.1,0.2-0.1,0.2-0.2,0.5
	c-0.1,0.2-0.2,0.3-0.3,0.5c-0.1,0.1-0.1,0.2-0.2,0.4c-0.1,0.2-0.2,0.3-0.2,0.4c-0.1,0.1-0.1,0.2-0.1,0.3c-0.1,0.1-0.1,0.2-0.2,0.3
	c-0.1,0.2-0.1,0.2-0.1,0.3c-0.1,0.2-0.1,0.2-0.2,0.4c-0.1,0.1-0.1,0.3-0.2,0.4c-0.1,0.1-0.1,0.3-0.2,0.4c-0.1,0.2-0.3,0.4-0.5,0.6
	c-0.3,0.3-0.7,0.4-1.1,0.4c-0.2,0-0.2,0-0.4,0c-0.1,0-0.3,0-0.5,0s-0.4-0.1-0.5-0.1s-0.1,0-0.3-0.1c-0.1,0-0.3-0.1-0.4-0.1
	c-0.2-0.1-0.2-0.1-0.4-0.2c-0.2-0.1-0.2-0.1-0.4-0.1c-0.1-0.1-0.3-0.1-0.4-0.2c-0.2-0.1-0.2-0.1-0.5-0.2c-0.2-0.1-0.3-0.2-0.5-0.2
	c-0.2-0.1-0.2-0.1-0.4-0.2c-0.2-0.1-0.3-0.2-0.5-0.3s-0.2-0.1-0.4-0.2c-0.1-0.1-0.2-0.1-0.4-0.2s-0.2-0.1-0.4-0.2
	c-0.1,0-0.2-0.1-0.2-0.1c-0.1,0-0.2,0-0.3-0.1c-0.1,0-0.1,0-0.1,0h-0.7c-0.1,0-0.2,0-0.3,0c-0.2,0-0.3,0-0.5,0.1c-0.2,0-0.4,0-0.6,0
	c-0.2,0-0.3,0-0.5,0c-0.6-0.1-1.2-0.5-1.3-1.3c0-0.2,0-0.3,0-0.5s0-0.3,0.1-0.5c0-0.2,0.1-0.3,0.1-0.4s0-0.2,0-0.2
	c0-0.1,0-0.2,0.1-0.4c0-0.2,0-0.2,0.1-0.4c0.1-0.2,0.1-0.2,0.1-0.4c0-0.1,0.1-0.3,0.1-0.5c0.1-0.2,0.1-0.2,0.1-0.5
	c0-0.2,0.1-0.3,0.1-0.5c0.1-0.2,0.1-0.2,0.1-0.4c0-0.1,0.1-0.3,0.2-0.5l0.3-1c0.1-0.2,0.1-0.3,0.2-0.5c0.1-0.2,0.1-0.4,0.2-0.6
	c0.1-0.2,0.1-0.4,0.2-0.5c0.1-0.3,0.1-0.3,0.2-0.6c0.1-0.3,0.1-0.3,0.2-0.5c0.1-0.2,0.1-0.3,0.2-0.5c0.1-0.1,0.1-0.3,0.2-0.4
	c0.1-0.2,0.1-0.3,0.2-0.5c0.1-0.2,0.1-0.2,0.2-0.4c0.1-0.1,0.1-0.3,0.2-0.4c0.1-0.1,0.2-0.3,0.2-0.4c0.1-0.2,0.4-0.4,0.7-0.8
	c0.2-0.2,0.5-0.3,0.8-0.3c0.1-0.4,0.5-0.7,0.9-0.8c0.6-0.1,1.2,0.2,1.4,0.7V308.4z"/>
<path d="M154.5,292.7c-0.1,0.2-0.3,0.5-0.5,0.7c-0.4,0.4-0.9,0.6-1.5,0.7c-0.9,0.1-1.7-0.6-1.8-1.5c-0.1-0.7,0.3-1.4,1-1.7
	c0-0.1,0.1-0.1,0.1-0.3c0.1-0.3,0.3-0.6,0.5-0.8c0.3-0.3,0.6-0.5,1-0.7c0.3-0.1,0.6-0.1,0.9-0.1c0.2,0,0.4,0,0.6,0
	c0.2,0,0.5,0.1,0.7,0.2s0.3,0.1,0.5,0.2c0.2,0.1,0.2,0.1,0.4,0.2l0.2,0.1c0.8,0.4,1.1,1.4,0.6,2.2c-0.5,0.8-1.4,1.1-2.2,0.6
	l-0.2-0.1c-0.1-0.1-0.2-0.1-0.2-0.1C154.6,292.5,154.6,292.6,154.5,292.7L154.5,292.7z"/>
<path d="M153.3,269.4c-0.1-0.1-0.1-0.1-0.3-0.3c-0.3-0.4-0.3-0.4-0.2-1.4c0.6-0.6,0.6-0.6,1-0.7c0.2,0,0.2,0,0.4,0
	c0.1,0,0.3,0,0.4,0c0.2,0,0.3,0,0.5,0s0.4,0,0.5,0s0.1,0,0.3,0s0.2,0,0.4,0s0.2,0,0.4,0s0.2,0,0.5,0c0.2,0,0.2,0,0.4,0
	c0.1,0,0.3,0,0.5,0c0.3,0,0.3,0,0.6,0c0.2,0,0.3,0,0.5,0s0.4,0,0.5,0h4.2h0.6c0.2,0,0.3,0,0.5,0s0.2,0,0.5,0c0.1,0,0.3,0,0.5,0.1
	c0.2,0,0.4,0.1,0.6,0.1c0.3,0.1,0.3,0.1,0.5,0.1s0.4,0.1,0.5,0.1c0.2,0.1,0.2,0.1,0.4,0.1c0.1,0,0.3,0.1,0.4,0.1
	c0.5,0.2,0.9,0.5,1,1c0.1,0.3,0.1,0.6,0,1c0,0.2-0.1,0.3-0.2,0.5c-0.1,0.2-0.1,0.3-0.2,0.4c0,0.1,0,0.1-0.1,0.3
	c-0.1,0.1-0.1,0.1-0.1,0.3c-0.1,0.2-0.1,0.2-0.1,0.3c-0.1,0.1-0.1,0.2-0.2,0.4c-0.1,0.1-0.1,0.3-0.2,0.4c-0.1,0.2-0.1,0.2-0.2,0.4
	c-0.1,0.1-0.1,0.3-0.2,0.5c-0.1,0.3-0.1,0.3-0.2,0.5c-0.1,0.2-0.1,0.4-0.2,0.5c-0.1,0.2-0.1,0.4-0.2,0.6c-0.1,0.2-0.1,0.3-0.2,0.5
	c0,0.1-0.1,0.3-0.1,0.4c-0.1,0.2-0.1,0.4-0.2,0.5c-0.1,0.2-0.1,0.2-0.1,0.5c-0.1,0.2-0.1,0.2-0.1,0.4c-0.1,0.2-0.1,0.2-0.1,0.4
	c0,0.1-0.1,0.3-0.1,0.4c-0.1,0.2-0.1,0.2-0.1,0.3c-0.1,0.2-0.1,0.2-0.1,0.3c-0.1,0.1-0.1,0.3-0.2,0.5c-0.1,0.2-0.2,0.4-0.3,0.6
	s-0.2,0.4-0.3,0.5c-0.1,0.2-0.2,0.3-0.3,0.5c-0.1,0.1-0.2,0.2-0.2,0.3c-0.1,0.2-0.2,0.3-0.3,0.4c-0.1,0.2-0.1,0.2-0.2,0.3
	c-0.1,0.1-0.1,0.1-0.1,0.2c0,0-0.1,0.1-0.1,0.2c-0.1,0.3-0.3,0.5-0.6,0.7c-0.2,0.1-0.3,0.2-0.5,0.3c-0.2,0.1-0.4,0.2-0.6,0.2
	c-0.2,0.1-0.4,0.1-0.5,0.1s-0.3,0.1-0.4,0.1c-0.1,0-0.3,0-0.4,0.1c-0.2,0-0.2,0-0.4,0s-0.2,0-0.4,0.1c-0.2,0-0.3,0-0.5,0
	s-0.4,0-0.6,0c-0.3,0-0.3,0-0.6,0s-0.3,0-0.6,0c-0.2,0-0.4,0-0.7,0c-0.2,0-0.5,0-0.7,0h-3.1c-0.2,0-0.5,0-0.6,0c-0.3,0-0.3,0-0.5,0
	s-0.4,0-0.5,0c-0.2,0-0.4,0-0.6-0.1c-0.3,0-0.5-0.1-0.7-0.1c-0.7-0.2-1.3-0.7-1.2-1.5c0-0.4,0.2-0.8,0.5-1.1c0,0,0-0.1,0.1-0.1
	c0,0,0,0,0.1-0.1v-0.1c0-0.1,0-0.2,0.1-0.3c0-0.1,0-0.2,0-0.3s0-0.1,0-0.2c0-0.2,0-0.2,0-0.4c0-0.2,0-0.2,0-0.3c0-0.2,0-0.2,0-0.4
	s0-0.3,0-0.5s0-0.2,0-0.5c0-0.2,0-0.3,0.1-0.5c0-0.2,0-0.4,0.1-0.6c0-0.2,0.1-0.4,0.1-0.6s0.1-0.4,0.1-0.6c0.1-0.3,0.1-0.3,0.1-0.5
	s0.1-0.4,0.1-0.6c0.1-0.3,0.1-0.3,0.1-0.6c0.1-0.3,0.1-0.3,0.1-0.6c0-0.2,0.1-0.4,0.1-0.6c0-0.2,0.1-0.3,0.1-0.5l0.1-0.5
	c0-0.2,0-0.2,0.1-0.4c0-0.2,0-0.2,0.1-0.4c0.1-0.5,0.4-1,0.9-1.3c0.4-0.2,0.8-0.3,1.2-0.2C153.4,269.4,153.4,269.4,153.3,269.4
	L153.3,269.4z M151.6,282.8L151.6,282.8L151.6,282.8z M167.3,270.3L167.3,270.3L167.3,270.3z M154.1,270c0.4,0.5,0.3,1.2-0.2,1.6
	v0.1c0,0.2,0,0.2-0.1,0.4c0,0.2,0,0.2-0.1,0.5c0,0.2-0.1,0.4-0.1,0.6s-0.1,0.4-0.1,0.6c-0.1,0.3-0.1,0.3-0.1,0.6
	c-0.1,0.3-0.1,0.3-0.1,0.7c-0.1,0.2-0.1,0.4-0.1,0.6c-0.1,0.3-0.1,0.3-0.1,0.5c0,0.2-0.1,0.4-0.1,0.5c0,0.2-0.1,0.3-0.1,0.5
	c0,0.2-0.1,0.3-0.1,0.5c0,0.2,0,0.3,0,0.4c0,0.2,0,0.2,0,0.5c0,0.1,0,0.3,0,0.4c0,0.2,0,0.2,0,0.4c0,0.2,0,0.2,0,0.4
	c0,0.2,0,0.2,0,0.3s0,0.3,0,0.4c0,0.1,0,0.3-0.1,0.4c0,0.1,0,0.3-0.1,0.4c0.1,0,0.1,0,0.3,0s0.3,0,0.5,0h3.1c0.2,0,0.4,0,0.6,0
	c0.2,0,0.4,0,0.6,0c0.3,0,0.3,0,0.6,0s0.3,0,0.6,0c0.2,0,0.4,0,0.5,0c0.2,0,0.3,0,0.4,0c0.2,0,0.2,0,0.4,0s0.2,0,0.4,0
	c0.1,0,0.2,0,0.3,0s0.2,0,0.3-0.1c0,0,0.1,0,0.3-0.1c0.1,0,0.1,0,0.2-0.1c0-0.1,0.1-0.2,0.1-0.2c0.1-0.1,0.1-0.1,0.2-0.3
	c0.1-0.2,0.1-0.2,0.3-0.4c0.1-0.1,0.1-0.2,0.2-0.3c0.1-0.1,0.2-0.3,0.3-0.4c0.1-0.1,0.2-0.2,0.3-0.4c0.1-0.1,0.2-0.3,0.2-0.4
	c0.1-0.1,0.2-0.3,0.2-0.4c0.1-0.1,0.1-0.2,0.1-0.3c0.1-0.1,0.1-0.1,0.1-0.3c0.1-0.2,0.1-0.2,0.1-0.3s0.1-0.2,0.1-0.3
	c0.1-0.2,0.1-0.2,0.1-0.3c0.1-0.2,0.1-0.2,0.1-0.4c0.1-0.2,0.1-0.2,0.1-0.4c0-0.1,0.1-0.3,0.1-0.5c0.1-0.2,0.1-0.3,0.2-0.5
	c0-0.2,0.1-0.3,0.2-0.5c0.1-0.2,0.1-0.3,0.2-0.5c0.1-0.2,0.1-0.4,0.2-0.6l0.2-0.6c0.1-0.2,0.1-0.4,0.2-0.5c0.1-0.2,0.1-0.2,0.2-0.4
	c0.1-0.1,0.1-0.3,0.2-0.4c0.1-0.2,0.1-0.3,0.2-0.4c0.1-0.2,0.1-0.2,0.1-0.3c0.1-0.2,0.1-0.2,0.1-0.3c-0.1,0-0.2,0-0.3-0.1
	c-0.2,0-0.3-0.1-0.5-0.1s-0.3,0-0.4-0.1c-0.2,0-0.2,0-0.4,0c-0.1,0-0.3,0-0.4,0h-0.5h-4.2c-0.2,0-0.4,0-0.6,0c-0.2,0-0.5,0-0.7,0
	c-0.3,0-0.3,0-0.5,0s-0.3,0-0.5,0s-0.2,0-0.5,0c-0.2,0-0.2,0-0.4,0s-0.2,0-0.4,0s-0.2,0-0.4,0s-0.2,0-0.4,0c-0.1,0-0.2,0-0.4,0
	c0,0,0,0-0.1,0c-0.3,0.2-0.7,0.2-1.1,0.1C153.9,269.7,154,269.8,154.1,270L154.1,270z M153.8,269.6c-0.1,0-0.2-0.1-0.4-0.2
	C153.5,269.5,153.7,269.5,153.8,269.6z"/>
<path d="M181.7,292.4c0.2,0,0.3,0,0.5,0h1.6c0.2,0,0.4,0,0.6,0c0.2,0,0.4,0,0.5,0c0.2,0,0.4,0,0.5,0c0.2,0,0.4,0,0.6,0.1
	c0.2,0,0.4,0.1,0.6,0.1c0.2,0,0.3,0,0.5,0.1c0.2,0,0.4,0.1,0.6,0.1c0.3,0.1,0.3,0.1,0.6,0.1c0.3,0.1,0.3,0.1,0.6,0.1s0.3,0,0.6,0.1
	c0.2,0,0.4,0.1,0.6,0.1c0.3,0.1,0.3,0.1,0.5,0.1c0.2,0.1,0.4,0.1,0.6,0.2c0.2,0,0.3,0.1,0.5,0.2s0.2,0.1,0.4,0.2
	c0.2,0.1,0.4,0.2,0.6,0.3c0.3,0.1,0.4,0.2,0.6,0.3c0.1,0.1,0.3,0.2,0.4,0.3c0.2,0.2,0.3,0.3,0.5,0.5c0.2,0.3,0.4,0.6,0.5,1
	c0,0.2,0,0.4,0,0.7c0,0.3-0.1,0.5-0.1,0.7c-0.1,0.2-0.1,0.4-0.2,0.5c-0.1,0.1-0.2,0.3-0.2,0.4c-0.1,0.1-0.1,0.2-0.2,0.3
	c0,0.1-0.1,0.1-0.1,0.2c-0.1,0.1-0.1,0.3-0.2,0.4c-0.1,0.1-0.1,0.2-0.2,0.3c-0.1,0.1-0.1,0.3-0.2,0.4c-0.1,0.2-0.1,0.2-0.2,0.5
	c-0.1,0.2-0.2,0.3-0.2,0.5c-0.1,0.2-0.2,0.3-0.2,0.5c-0.1,0.2-0.2,0.4-0.3,0.6c-0.1,0.2-0.2,0.4-0.3,0.6s-0.2,0.4-0.3,0.7
	c-0.1,0.2-0.2,0.4-0.3,0.6c-0.1,0.2-0.2,0.4-0.3,0.7c-0.1,0.2-0.2,0.5-0.3,0.6c-0.1,0.3-0.1,0.3-0.3,0.6c-0.1,0.2-0.2,0.5-0.3,0.6
	c-0.1,0.3-0.1,0.3-0.3,0.6c-0.1,0.2-0.2,0.4-0.2,0.5c-0.1,0.2-0.2,0.4-0.3,0.6c-0.1,0.2-0.1,0.3-0.2,0.4c-0.1,0.1-0.1,0.3-0.2,0.4
	c-0.1,0.2-0.1,0.2-0.2,0.4c0,0.1-0.1,0.3-0.2,0.5c-0.1,0.2-0.1,0.4-0.2,0.5c0,0.1-0.1,0.2-0.1,0.3c-0.1,0.4-0.2,0.7-0.4,1
	c-0.4,0.5-1.1,0.7-1.7,0.6c-0.2,0-0.3-0.1-0.5-0.1c-0.2-0.1-0.2-0.1-0.4-0.1s-0.3-0.1-0.4-0.1c-0.1,0-0.2-0.1-0.4-0.1
	c-0.1-0.1-0.3-0.1-0.4-0.2c-0.2-0.1-0.3-0.1-0.5-0.2s-0.2-0.1-0.5-0.2c-0.2-0.1-0.4-0.2-0.6-0.3c-0.2-0.1-0.3-0.2-0.5-0.3
	c-0.2-0.1-0.4-0.2-0.5-0.3c-0.2-0.1-0.3-0.2-0.5-0.3c-0.2-0.1-0.4-0.2-0.6-0.3c-0.2-0.1-0.3-0.2-0.5-0.2c-0.2-0.1-0.3-0.1-0.5-0.2
	c-0.2-0.1-0.3-0.1-0.5-0.1c-0.2-0.1-0.3-0.1-0.5-0.1c-0.1,0-0.3-0.1-0.4-0.1c-0.2,0-0.3,0-0.4-0.1c-0.1,0-0.2,0-0.3,0
	c-0.2,0-0.2,0-0.3,0h-0.8c-0.3,0-0.5,0-0.8-0.1c-0.7-0.2-1.2-0.8-1.2-1.6c0-0.2,0-0.3,0-0.5s0-0.3,0.1-0.5c0-0.2,0-0.2,0.1-0.4
	c0-0.1,0.1-0.3,0.1-0.4c0-0.2,0-0.2,0.1-0.3c0-0.2,0.1-0.3,0.2-0.6c0.1-0.2,0.1-0.4,0.2-0.6c0.1-0.3,0.1-0.3,0.2-0.6
	c0.1-0.2,0.1-0.4,0.2-0.7c0.1-0.3,0.1-0.3,0.2-0.7c0.1-0.2,0.2-0.5,0.3-0.7c0.1-0.3,0.2-0.5,0.3-0.8c0.1-0.3,0.2-0.5,0.3-0.8
	s0.2-0.6,0.3-0.8c0.1-0.3,0.2-0.5,0.3-0.8s0.2-0.6,0.3-0.9c0.1-0.3,0.2-0.5,0.3-0.7c0.1-0.2,0.2-0.5,0.3-0.8s0.2-0.5,0.3-0.7
	c0.1-0.3,0.1-0.3,0.2-0.5c0.1-0.2,0.1-0.2,0.2-0.5c0.1-0.1,0.1-0.3,0.2-0.4c0.1-0.2,0.2-0.4,0.3-0.5c0.3-0.4,0.6-0.6,1-0.9
	c0.3-0.1,0.6-0.2,0.8-0.2C181.5,292.4,181.6,292.4,181.7,292.4L181.7,292.4z M177.4,307.6L177.4,307.6L177.4,307.6L177.4,307.6z
	 M186.9,309.8C187,309.8,187,309.8,186.9,309.8L186.9,309.8L186.9,309.8z M185.7,310.6L185.7,310.6L185.7,310.6L185.7,310.6z
	 M191.9,296.7L191.9,296.7L191.9,296.7z M192.1,297.1L192.1,297.1L192.1,297.1L192.1,297.1z M182.1,295.2L182.1,295.2L182.1,295.2z
	 M181.7,295.5c-0.1,0.2-0.1,0.2-0.2,0.4c-0.1,0.2-0.1,0.2-0.2,0.5c-0.1,0.2-0.2,0.4-0.3,0.6c-0.1,0.3-0.2,0.5-0.3,0.7
	c-0.1,0.3-0.2,0.5-0.3,0.8s-0.2,0.5-0.3,0.8c-0.1,0.3-0.2,0.6-0.3,0.8s-0.2,0.5-0.3,0.8c-0.1,0.3-0.2,0.6-0.3,0.8
	c-0.1,0.3-0.2,0.5-0.3,0.8c-0.1,0.2-0.2,0.5-0.2,0.7c-0.1,0.3-0.1,0.3-0.2,0.7c-0.1,0.2-0.2,0.4-0.2,0.7c-0.1,0.3-0.1,0.3-0.2,0.5
	c0,0.1-0.1,0.3-0.2,0.5c0,0.2-0.1,0.3-0.1,0.4c-0.1,0.2-0.1,0.2-0.1,0.4c0,0,0.1,0,0.2,0c0.2,0,0.3,0,0.5,0s0.3,0,0.5,0.1
	c0.2,0,0.4,0.1,0.6,0.1c0.2,0,0.4,0.1,0.6,0.2c0.2,0.1,0.4,0.1,0.7,0.2c0.2,0.1,0.4,0.2,0.6,0.2c0.2,0.1,0.4,0.2,0.6,0.3
	c0.2,0.1,0.4,0.2,0.6,0.3c0.2,0.1,0.4,0.2,0.6,0.3c0.2,0.1,0.4,0.2,0.6,0.3c0.2,0.1,0.4,0.2,0.6,0.3c0.1,0.1,0.3,0.2,0.4,0.2
	c0.2,0.1,0.2,0.1,0.5,0.2c0.1,0.1,0.2,0.1,0.3,0.2c0.1,0.1,0.3,0.1,0.4,0.2h0.1c0-0.1,0.1-0.2,0.1-0.3c0.1-0.2,0.2-0.4,0.2-0.6
	c0.1-0.2,0.1-0.2,0.2-0.4c0.1-0.2,0.1-0.3,0.2-0.5c0.1-0.2,0.1-0.3,0.2-0.5c0.1-0.2,0.2-0.4,0.2-0.5c0.1-0.2,0.2-0.4,0.3-0.6
	c0.1-0.3,0.1-0.3,0.3-0.6c0.1-0.2,0.2-0.4,0.3-0.7c0.2-0.3,0.2-0.3,0.3-0.6c0.1-0.2,0.2-0.4,0.3-0.7c0.1-0.2,0.2-0.4,0.3-0.6
	c0.1-0.2,0.2-0.4,0.3-0.6s0.2-0.4,0.3-0.6c0.1-0.2,0.2-0.4,0.3-0.7c0.1-0.2,0.2-0.4,0.2-0.5c0.1-0.2,0.2-0.4,0.3-0.6
	s0.2-0.4,0.3-0.5c0.1-0.2,0.1-0.2,0.2-0.4c0.1-0.1,0.1-0.3,0.2-0.4c0.1-0.2,0.2-0.3,0.2-0.5c0.1-0.1,0.1-0.2,0.1-0.3
	c0.1-0.1,0.1-0.2,0.2-0.4c0.1-0.1,0.1-0.3,0.2-0.4c0.1-0.1,0.1-0.2,0.2-0.3c-0.1,0-0.1-0.1-0.1-0.1s-0.1-0.1-0.3-0.2
	c-0.2-0.1-0.3-0.1-0.3-0.2c-0.2-0.1-0.2-0.1-0.4-0.1c-0.1,0-0.2-0.1-0.3-0.1s-0.2-0.1-0.4-0.1c-0.3-0.1-0.3-0.1-0.5-0.1
	c-0.1,0-0.3-0.1-0.5-0.1c-0.3,0-0.3,0-0.5-0.1c-0.3,0-0.3,0-0.6-0.1s-0.3-0.1-0.6-0.1c-0.2,0-0.3-0.1-0.5-0.1s-0.4-0.1-0.6-0.1
	c-0.2,0-0.3-0.1-0.5-0.1s-0.3,0-0.5-0.1c-0.2,0-0.3,0-0.5,0s-0.3,0-0.5,0c-0.1,0-0.3,0-0.5,0h-1.6c-0.1,0-0.2,0-0.3,0h-0.1
	c0,0-0.1,0-0.1,0.1C181.7,295.4,181.7,295.5,181.7,295.5L181.7,295.5z"/>
<path d="M169.8,320.7L169.8,320.7L169.8,320.7z M167,331.5L167,331.5L167,331.5z M182.3,322.5L182.3,322.5L182.3,322.5z
	 M170.1,320.5c-0.1,0-0.2,0.1-0.2,0.1c-0.1,0.1-0.1,0.1-0.1,0c0,0.1-0.1,0.1-0.1,0.2c0,0.1-0.1,0.2-0.1,0.4c0,0.1-0.1,0.3-0.1,0.5
	c0,0.2-0.1,0.4-0.1,0.5c-0.1,0.3-0.1,0.3-0.2,0.7c-0.1,0.2-0.1,0.5-0.2,0.7c-0.1,0.3-0.1,0.3-0.2,0.8c-0.1,0.3-0.2,0.6-0.2,0.9
	c-0.1,0.3-0.1,0.6-0.2,0.8c-0.1,0.2-0.1,0.5-0.2,0.7c-0.1,0.3-0.1,0.3-0.2,0.7c-0.1,0.3-0.1,0.5-0.2,0.7c-0.1,0.3-0.1,0.3-0.1,0.5
	c-0.1,0.3-0.1,0.3-0.2,0.6c-0.1,0.3-0.1,0.3-0.2,0.5c-0.1,0.2-0.1,0.2-0.1,0.4c0,0.1,0,0.1-0.1,0.2c0.2,0,0.3,0,0.4,0
	c0.2,0,0.2,0,0.4,0c0.1,0,0.3,0,0.5,0h0.5c0.2,0,0.4,0,0.6,0c0.2,0,0.5,0.1,0.7,0.1s0.4,0.1,0.6,0.1c0.2,0,0.4,0.1,0.6,0.2
	c0.2,0.1,0.4,0.1,0.6,0.2c0.2,0.1,0.5,0.2,0.7,0.2c0.2,0.1,0.4,0.2,0.6,0.2c0.2,0.1,0.4,0.2,0.6,0.2c0.2,0.1,0.4,0.2,0.6,0.2
	c0.2,0.1,0.4,0.2,0.6,0.2c0.2,0.1,0.3,0.2,0.5,0.2c0.2,0.1,0.2,0.1,0.4,0.2c0.2,0.1,0.2,0.1,0.4,0.2c0.2,0.1,0.2,0.1,0.3,0.2
	c0.2,0.1,0.2,0.1,0.3,0.2c0.1,0,0.1,0.1,0.2,0.1V333c0.1-0.2,0.1-0.3,0.2-0.5l0.1-0.4c0.1-0.2,0.1-0.2,0.2-0.4
	c0.1-0.2,0.1-0.2,0.2-0.5c0.1-0.3,0.1-0.3,0.2-0.6c0.1-0.3,0.1-0.3,0.2-0.6c0.1-0.3,0.1-0.3,0.3-0.7c0.1-0.4,0.1-0.4,0.3-0.7
	c0.1-0.2,0.2-0.4,0.2-0.6c0.1-0.2,0.2-0.5,0.3-0.7s0.2-0.4,0.3-0.6c0.1-0.3,0.1-0.3,0.3-0.6c0.1-0.2,0.2-0.4,0.3-0.6
	c0.1-0.3,0.1-0.3,0.3-0.5c0.1-0.3,0.1-0.3,0.2-0.5c0.1-0.1,0.1-0.3,0.2-0.4c0.1-0.2,0.2-0.4,0.2-0.5c0.1-0.2,0.1-0.2,0.2-0.4
	c0-0.1,0.1-0.2,0.1-0.3c0.1-0.2,0.1-0.2,0.1-0.3c0.1-0.2,0.1-0.2,0.1-0.3c-0.1-0.1-0.1-0.1-0.3-0.2c-0.1-0.1-0.2-0.2-0.4-0.3
	c-0.2-0.1-0.2-0.1-0.3-0.2s-0.1-0.1-0.4-0.3c-0.2-0.1-0.3-0.2-0.3-0.2c-0.1-0.1-0.2-0.1-0.3-0.2c-0.2-0.1-0.2-0.1-0.4-0.2
	c-0.1-0.1-0.2-0.1-0.4-0.2c-0.1-0.1-0.3-0.1-0.4-0.2c-0.1-0.1-0.3-0.1-0.5-0.2c-0.3-0.1-0.3-0.1-0.6-0.2c-0.2-0.1-0.4-0.1-0.6-0.2
	c-0.2,0-0.4-0.1-0.5-0.1c-0.2,0-0.4-0.1-0.6-0.1c-0.2,0-0.4-0.1-0.5-0.1c-0.3-0.1-0.3-0.1-0.6-0.1c-0.2,0-0.4-0.1-0.5-0.1
	c-0.3,0-0.3,0-0.5-0.1c-0.2,0-0.4,0-0.5-0.1c-0.1,0-0.3,0-0.4,0c-0.2,0-0.2,0-0.5,0c-0.1,0-0.3,0-0.4,0h-1
	C170.9,319.7,170.6,320.3,170.1,320.5L170.1,320.5z M168.2,317.6c0-0.8,0.6-1.5,1.4-1.5h2.3c0.2,0,0.3,0,0.5,0s0.2,0,0.5,0
	c0.2,0,0.4,0,0.6,0c0.2,0,0.4,0,0.5,0.1c0.3,0,0.3,0,0.6,0.1c0.2,0,0.4,0.1,0.7,0.1c0.3,0.1,0.3,0.1,0.6,0.1c0.2,0,0.4,0.1,0.6,0.1
	c0.2,0,0.4,0.1,0.6,0.1c0.2,0,0.5,0.1,0.7,0.2c0.2,0.1,0.4,0.1,0.6,0.2c0.3,0.1,0.3,0.1,0.6,0.2c0.2,0.1,0.4,0.1,0.6,0.2
	c0.2,0.1,0.4,0.1,0.6,0.2c0.2,0.1,0.4,0.2,0.6,0.3c0.2,0.1,0.2,0.1,0.4,0.2c0.1,0.1,0.3,0.1,0.4,0.2c0.1,0.1,0.3,0.2,0.5,0.3
	c0.3,0.2,0.3,0.2,0.4,0.3l0.3,0.2c0.1,0.1,0.2,0.2,0.3,0.2c0.1,0.1,0.1,0.1,0.3,0.2c0.1,0.1,0.1,0.1,0.3,0.2s0.3,0.2,0.5,0.4
	c0.4,0.3,0.6,0.8,0.6,1.3c0,0.2,0,0.4,0,0.6c0,0.2-0.1,0.4-0.1,0.6s-0.1,0.3-0.1,0.5c-0.1,0.1-0.1,0.1-0.1,0.3
	c-0.1,0.2-0.1,0.2-0.1,0.3c-0.1,0.2-0.1,0.3-0.2,0.5c-0.1,0.2-0.1,0.2-0.2,0.5c-0.1,0.1-0.1,0.3-0.2,0.4c-0.1,0.2-0.2,0.4-0.2,0.5
	c-0.1,0.2-0.1,0.2-0.2,0.5c-0.1,0.3-0.1,0.3-0.2,0.5c-0.1,0.2-0.2,0.4-0.3,0.6c-0.1,0.3-0.1,0.3-0.3,0.6c-0.1,0.2-0.2,0.4-0.3,0.7
	c-0.1,0.2-0.2,0.4-0.3,0.6c-0.1,0.2-0.2,0.5-0.3,0.7c-0.1,0.3-0.1,0.3-0.3,0.7c-0.1,0.4-0.1,0.4-0.3,0.6c-0.1,0.3-0.1,0.3-0.2,0.6
	s-0.1,0.3-0.2,0.5c-0.1,0.3-0.1,0.3-0.2,0.5c-0.1,0.2-0.1,0.2-0.2,0.4c-0.1,0.2-0.1,0.2-0.1,0.4c0,0.1-0.1,0.3-0.2,0.4
	c-0.1,0.1-0.1,0.3-0.1,0.4c-0.1,0.2-0.1,0.2-0.1,0.4c-0.1,0.3-0.2,0.6-0.4,0.8c-0.3,0.5-0.8,0.7-1.4,0.7c-0.2,0-0.4,0-0.6-0.1
	c-0.2-0.1-0.4-0.1-0.5-0.2c-0.1-0.1-0.3-0.1-0.5-0.2l-0.4-0.2c-0.1-0.1-0.1-0.1-0.3-0.1c-0.1-0.1-0.1-0.1-0.3-0.1
	c-0.2-0.1-0.2-0.1-0.4-0.2c-0.2-0.1-0.2-0.1-0.4-0.2c-0.1-0.1-0.3-0.1-0.4-0.2c-0.2-0.1-0.3-0.1-0.5-0.2c-0.2-0.1-0.4-0.2-0.6-0.2
	c-0.2-0.1-0.4-0.1-0.5-0.2c-0.2-0.1-0.4-0.1-0.6-0.2c-0.2-0.1-0.4-0.1-0.6-0.2c-0.2-0.1-0.4-0.1-0.6-0.2c-0.2-0.1-0.3-0.1-0.5-0.1
	s-0.4-0.1-0.5-0.1s-0.3,0-0.4-0.1c-0.2,0-0.3,0-0.4,0h-0.5c-0.1,0-0.3,0-0.4,0c-0.2,0-0.2,0-0.4,0c-0.1,0-0.2,0-0.4,0
	s-0.4,0.1-0.6,0.1h-0.3c-0.2,0-0.3,0-0.4,0c-0.5,0-0.9-0.2-1.2-0.6s-0.5-0.8-0.5-1.3c0-0.2,0-0.3,0-0.5c0-0.2,0.1-0.4,0.1-0.7
	c0-0.2,0.1-0.4,0.1-0.6c0-0.1,0.1-0.3,0.1-0.4c0.1-0.2,0.1-0.2,0.1-0.4c0.1-0.2,0.1-0.2,0.1-0.5c0.1-0.3,0.1-0.3,0.1-0.5
	c0.1-0.3,0.1-0.3,0.2-0.5c0-0.2,0.1-0.4,0.2-0.7c0.1-0.4,0.1-0.4,0.2-0.7c0.1-0.2,0.1-0.4,0.2-0.6c0.1-0.2,0.1-0.5,0.2-0.8
	c0.1-0.3,0.1-0.6,0.2-0.9c0.1-0.4,0.1-0.4,0.2-0.8c0.1-0.2,0.1-0.5,0.2-0.7c0.1-0.4,0.1-0.4,0.2-0.6c0.1-0.2,0.1-0.4,0.2-0.6
	c0.1-0.2,0.1-0.4,0.2-0.6c0.1-0.2,0.1-0.4,0.2-0.5c0.1-0.2,0.1-0.4,0.2-0.5c0.1-0.3,0.3-0.5,0.5-0.7c0.1-0.1,0.2-0.2,0.3-0.3
	C168.2,318.1,168.2,317.8,168.2,317.6L168.2,317.6z"/>
<path d="M173.9,282.9L173.9,282.9L173.9,282.9L173.9,282.9z M191.4,274.2L191.4,274.2L191.4,274.2L191.4,274.2z M179.4,270.2
	c-0.1,0.1-0.1,0.2-0.2,0.4c-0.1,0.1-0.2,0.3-0.3,0.5c-0.1,0.2-0.2,0.4-0.3,0.6c-0.1,0.2-0.2,0.4-0.3,0.6s-0.2,0.5-0.4,0.7
	c-0.1,0.3-0.3,0.5-0.4,0.8c-0.2,0.4-0.2,0.4-0.4,0.7c-0.1,0.3-0.2,0.5-0.4,0.8c-0.2,0.4-0.2,0.4-0.4,0.8s-0.2,0.4-0.4,0.8
	c-0.1,0.3-0.2,0.5-0.3,0.7c-0.2,0.4-0.2,0.4-0.3,0.8c-0.1,0.2-0.2,0.4-0.3,0.6c-0.1,0.3-0.1,0.3-0.3,0.7c-0.1,0.4-0.1,0.4-0.2,0.6
	c-0.1,0.2-0.1,0.3-0.2,0.5c-0.1,0.1-0.1,0.3-0.2,0.4v0.1c0.2,0,0.3-0.1,0.5-0.1s0.3-0.1,0.5-0.1s0.3,0,0.6-0.1c0.3,0,0.3,0,0.5,0
	s0.4,0,0.6,0h0.6c0.2,0,0.4,0,0.7,0s0.5,0,0.8,0.1c0.2,0,0.5,0.1,0.8,0.2c0.2,0.1,0.5,0.1,0.7,0.2c0.2,0.1,0.4,0.1,0.6,0.2
	c0.2,0.1,0.5,0.2,0.7,0.3s0.4,0.2,0.6,0.3c0.2,0.1,0.4,0.2,0.6,0.3c0.3,0.1,0.3,0.1,0.6,0.3c0.2,0.1,0.4,0.2,0.6,0.3
	c0.2,0.1,0.2,0.1,0.4,0.2c0.2,0.1,0.3,0.2,0.5,0.3c0.1,0.1,0.3,0.1,0.4,0.2c0.2,0.1,0.2,0.1,0.4,0.2c0.1,0.1,0.2,0.1,0.3,0.2
	c0.2,0.1,0.2,0.1,0.3,0.2c0,0,0,0,0.1,0c0-0.1,0-0.1,0.1-0.3c0.1-0.2,0.1-0.2,0.1-0.4c0.1-0.2,0.1-0.3,0.2-0.5
	c0.1-0.2,0.1-0.2,0.2-0.5c0.1-0.2,0.1-0.4,0.2-0.6c0.1-0.2,0.1-0.3,0.2-0.5c0.1-0.2,0.1-0.4,0.2-0.6c0.1-0.3,0.1-0.3,0.2-0.7
	c0.1-0.4,0.1-0.4,0.3-0.7c0.1-0.3,0.1-0.3,0.2-0.7c0.1-0.2,0.2-0.5,0.3-0.7c0.1-0.2,0.2-0.5,0.3-0.7c0.1-0.3,0.2-0.5,0.3-0.8
	c0.1-0.2,0.2-0.5,0.3-0.7s0.2-0.4,0.2-0.6c0.1-0.2,0.1-0.3,0.2-0.4c0.1-0.2,0.1-0.2,0.2-0.5c0-0.1,0.1-0.2,0.1-0.3
	c-0.1,0-0.1-0.1-0.2-0.1c-0.2-0.1-0.4-0.1-0.5-0.2c-0.2-0.1-0.2-0.1-0.3-0.2c-0.1,0-0.2-0.1-0.4-0.2s-0.2-0.1-0.3-0.2
	c-0.2-0.1-0.2-0.1-0.3-0.2c-0.2-0.1-0.2-0.1-0.4-0.2c-0.2-0.1-0.2-0.1-0.4-0.2s-0.2-0.1-0.4-0.2c-0.2-0.1-0.2-0.1-0.5-0.2
	c-0.2-0.1-0.3-0.1-0.4-0.2c-0.2-0.1-0.3-0.1-0.5-0.2s-0.2-0.1-0.5-0.2c-0.2-0.1-0.4-0.2-0.6-0.3c-0.1-0.1-0.3-0.1-0.4-0.2
	c-0.1-0.1-0.3-0.1-0.4-0.2c-0.2-0.1-0.4-0.1-0.5-0.2c-0.1,0-0.3-0.1-0.4-0.1c-0.2,0-0.4-0.1-0.5-0.1c-0.2,0-0.3-0.1-0.5-0.1
	c-0.1,0-0.3-0.1-0.4-0.1c-0.2,0-0.2,0-0.5-0.1c-0.2,0-0.3,0-0.4,0c-0.2,0-0.3,0-0.5,0c-0.1,0-0.2,0-0.3,0
	C179.5,270.2,179.5,270.2,179.4,270.2L179.4,270.2L179.4,270.2z M176.8,268.4c0.1-0.8,0.8-1.3,1.6-1.2h0.1c0.5-0.4,1.3-0.3,1.8,0.2
	c0.1,0.1,0.2,0.1,0.3,0.1s0.3,0,0.5,0c0.3,0,0.3,0,0.5,0.1c0.2,0,0.4,0.1,0.6,0.1c0.2,0,0.4,0.1,0.6,0.1c0.2,0,0.4,0.1,0.6,0.1
	c0.2,0.1,0.4,0.1,0.6,0.2c0.2,0.1,0.3,0.1,0.5,0.2s0.4,0.1,0.6,0.2c0.2,0.1,0.4,0.2,0.6,0.3c0.2,0.1,0.3,0.2,0.5,0.2
	c0.2,0.1,0.2,0.1,0.5,0.2c0.1,0.1,0.3,0.1,0.4,0.2c0.2,0.1,0.4,0.2,0.5,0.2c0.2,0.1,0.2,0.1,0.4,0.2c0.2,0.1,0.2,0.1,0.4,0.2
	c0.2,0.1,0.2,0.1,0.4,0.2c0.2,0.1,0.2,0.1,0.4,0.2s0.2,0.1,0.4,0.2c0.1,0.1,0.1,0.1,0.3,0.2c0.1,0,0.2,0.1,0.3,0.1
	c0.2,0.1,0.2,0.1,0.4,0.2c0.1,0.1,0.2,0.1,0.3,0.1s0.2,0.1,0.4,0.1c0.1,0,0.2,0,0.2,0c0.5,0,0.9,0.2,1.3,0.6
	c0.4,0.4,0.5,0.9,0.4,1.5c0,0.2,0,0.2-0.1,0.4c0,0.1-0.1,0.3-0.1,0.5c-0.1,0.2-0.1,0.2-0.1,0.4c0,0.2-0.1,0.3-0.1,0.5
	c-0.1,0.2-0.1,0.2-0.2,0.4c-0.1,0.2-0.1,0.3-0.2,0.5c-0.1,0.2-0.1,0.4-0.2,0.6c-0.1,0.2-0.2,0.4-0.2,0.7c-0.1,0.2-0.2,0.5-0.3,0.7
	c-0.1,0.3-0.2,0.5-0.3,0.8s-0.2,0.5-0.3,0.7c-0.1,0.3-0.1,0.3-0.2,0.7c-0.1,0.3-0.1,0.3-0.3,0.7c-0.1,0.4-0.1,0.4-0.2,0.7
	c-0.1,0.2-0.1,0.4-0.2,0.6c-0.1,0.2-0.1,0.4-0.2,0.6c-0.1,0.2-0.1,0.3-0.2,0.5c-0.1,0.3-0.1,0.3-0.2,0.5c0,0.1-0.1,0.2-0.1,0.4
	c-0.1,0.2-0.1,0.2-0.1,0.4c-0.1,0.2-0.1,0.2-0.1,0.3c0,0.2,0,0.2-0.1,0.3c0,0.1-0.1,0.3-0.2,0.4c-0.1,0.2-0.2,0.5-0.3,0.7
	c-0.3,0.5-0.9,0.8-1.5,0.7c-0.2,0-0.4,0-0.5-0.1c-0.2,0-0.4-0.1-0.6-0.2c-0.2-0.1-0.3-0.1-0.4-0.2c-0.2-0.1-0.2-0.1-0.3-0.1
	c-0.1-0.1-0.1-0.1-0.3-0.1c-0.1-0.1-0.3-0.1-0.4-0.2c-0.2-0.1-0.2-0.1-0.4-0.2c-0.1-0.1-0.3-0.2-0.4-0.2c-0.1-0.1-0.2-0.1-0.4-0.2
	c-0.2-0.1-0.2-0.1-0.5-0.2c-0.1-0.1-0.3-0.1-0.5-0.2c-0.3-0.1-0.3-0.1-0.6-0.3c-0.2-0.1-0.4-0.2-0.5-0.2c-0.2-0.1-0.4-0.2-0.6-0.2
	c-0.2-0.1-0.4-0.1-0.6-0.2c-0.2-0.1-0.4-0.1-0.5-0.2c-0.2,0-0.4-0.1-0.6-0.2c-0.2,0-0.4-0.1-0.5-0.1c-0.2,0-0.3,0-0.5,0
	s-0.4,0-0.5,0H177c-0.2,0-0.3,0-0.4,0c-0.2,0-0.2,0-0.5,0c-0.2,0-0.3,0-0.4,0c-0.1,0-0.2,0-0.4,0.1c-0.1,0-0.2,0-0.3,0.1
	c-0.2,0-0.2,0-0.3,0.1c-0.1,0-0.1,0-0.2,0.1c-0.1,0-0.1,0-0.2,0.1c-0.1,0.1-0.3,0.1-0.4,0.2c-0.2,0.1-0.5,0.1-0.7,0.2
	c-0.3,0-0.6,0-0.8-0.1c-0.7-0.2-1.2-0.8-1.2-1.6c0-0.1,0-0.3,0-0.5s0.1-0.4,0.1-0.6c0-0.2,0.1-0.3,0.1-0.5c0.1-0.2,0.1-0.2,0.1-0.3
	c0.1-0.2,0.1-0.2,0.1-0.4c0.1-0.2,0.1-0.2,0.2-0.4c0.1-0.2,0.1-0.3,0.2-0.5c0.1-0.2,0.1-0.3,0.2-0.5c0.1-0.3,0.1-0.3,0.2-0.6
	c0.1-0.4,0.1-0.4,0.3-0.6c0.1-0.2,0.2-0.4,0.3-0.7c0.2-0.4,0.2-0.4,0.3-0.7c0.1-0.3,0.2-0.5,0.4-0.8c0.2-0.4,0.2-0.4,0.4-0.8
	c0.2-0.4,0.2-0.4,0.4-0.8c0.1-0.3,0.3-0.5,0.4-0.8c0.2-0.4,0.2-0.4,0.4-0.8c0.1-0.2,0.2-0.5,0.4-0.8c0.1-0.3,0.3-0.5,0.4-0.8
	c0.1-0.2,0.2-0.5,0.4-0.7c0.1-0.2,0.2-0.4,0.3-0.6s0.2-0.4,0.3-0.6c0,0,0-0.1,0.1-0.1C176.8,268.8,176.8,268.6,176.8,268.4
	L176.8,268.4z"/>
<path d="M178.6,357.9c0.7-0.5,1.6-0.8,2.5-0.9c1.4,0,2.8,0.7,3.6,1.8v0.1l3.4,21.1c-1.4-1.2-3.2-1.9-5.1-1.7
	c-1.9,0.2-3.6,1.1-4.7,2.5c0-5.7-0.5-15.1-1.8-20.7C177,359.3,177.7,358.5,178.6,357.9L178.6,357.9z M182.1,379.8
	c0.5-0.1,1-0.2,1.5-0.2c2.5,0,4.6,1.6,5.1,3.8c-0.4,2.1-2.9,3.5-5.1,3.7L182.1,379.8z M196.4,359.1c-2.1,1.3-4.1,2.6-4.2,2.7
	c-0.2,0.2-0.3,0.4-0.2,0.7c0,0.2,0.2,0.4,0.5,0.5c0.3,0,6.3,1.1,8.8,1.1h0.3c0.2,0,0.3,0,0.5-0.1h0.2l24.8-5h13.8l7.5,25.8
	l-31.1,5.5h-30.6c-4.8,0-7.7-2.8-8.3-5.6c0-0.3,0-0.6,0-0.9c0,0,0,0,0-0.1c0.4-1.5,1.3-2.7,2.7-3.4l1.5,7.5c0.1,0.3,0.3,0.5,0.6,0.5
	c2.9,0,6.3-1.8,6.8-4.7c0-0.1,0-0.3,0-0.4l-3.8-23.9L196.4,359.1z M200.5,358.2c0.5-0.2,1.1-0.1,1.6,0.2c0.6,0.4,1,1,1.2,1.7
	c0.1,0.7,0,1.4-0.5,2c-0.3,0.5-0.8,0.8-1.4,0.8c-1.6,0.1-5.3-0.5-7.4-0.9C195.8,360.8,199.1,358.8,200.5,358.2L200.5,358.2z
	 M232.3,351.9c1.2-0.2,2.4,0.5,2.6,1.7l0.1,0.3c0.1,0.6,0,1.2-0.3,1.7s-0.8,0.8-1.4,1l-29.3,5.9c0.3-0.6,0.5-1.2,0.5-1.9l21.5-4.3
	c0.3-0.1,0.5-0.4,0.5-0.7c0-0.3-0.4-0.5-0.7-0.5l-21.4,4.3c-0.2-0.6-0.6-1.2-1.1-1.6L232.3,351.9z M250.1,392l-58,10.3l-1.4-6.1
	l3.4-0.6l0.7,3.3c0.1,0.3,0.3,0.5,0.6,0.5h0.1c0.3-0.1,0.5-0.4,0.5-0.7l-0.7-3.2l3.5-0.6l0.7,3.3c0.1,0.3,0.3,0.5,0.6,0.5h0.1
	c0.3-0.1,0.5-0.4,0.5-0.7l-0.7-3.2l3.5-0.6l0.7,3.3c0.1,0.3,0.3,0.5,0.6,0.5h0.1c0.3-0.1,0.5-0.4,0.5-0.7l-0.8-3.3l3.5-0.6l0.7,3.3
	c0.1,0.3,0.3,0.5,0.6,0.5h0.1c0.2,0,0.3-0.1,0.4-0.3c0.1-0.2,0.1-0.3,0-0.5l-0.7-3.2l3.5-0.6l0.7,3.3c0.1,0.3,0.3,0.5,0.6,0.5h0.1
	c0.3-0.1,0.5-0.4,0.5-0.7l-0.7-3.2l3.5-0.6l0.7,3.3c0.1,0.3,0.3,0.5,0.6,0.5h0.1c0.3-0.1,0.5-0.4,0.5-0.7l-0.7-3.2l3.5-0.6l0.7,3.3
	c0.1,0.3,0.3,0.5,0.6,0.5h0.1c0.3-0.1,0.5-0.4,0.5-0.7l-0.7-3.2l3.5-0.6l0.7,3.3c0.1,0.3,0.3,0.5,0.6,0.5h0.1
	c0.3-0.1,0.5-0.4,0.5-0.7l-0.8-3.4l3.5-0.6l0.7,3.3c0.1,0.3,0.3,0.5,0.6,0.5h0.1c0.3-0.1,0.5-0.4,0.5-0.7l-0.7-3.3l3.5-0.6l0.7,3.3
	c0.1,0.3,0.3,0.5,0.6,0.5h0.1c0.3-0.1,0.5-0.4,0.5-0.7l-0.7-3.2l3.5-0.6l0.7,3.2c0.1,0.3,0.3,0.5,0.6,0.5h0.1
	c0.3-0.1,0.5-0.4,0.5-0.7l-0.7-3.2l3.9-0.7l0.7,3.2c0.1,0.3,0.3,0.5,0.6,0.5h0.1c0.3-0.1,0.5-0.4,0.5-0.7l-0.7-3.1l1.9-0.3
	L250.1,392z M177.1,382.9v0.1c-0.1,0.6-0.1,1.3,0,1.9c0.8,3.3,4.1,6.5,9.5,6.5h23.9l-20.6,3.7c-0.2,0-0.3,0.1-0.4,0.3
	c-0.1,0.1-0.1,0.3-0.1,0.5l1.6,7.2c0.1,0.3,0.3,0.5,0.6,0.5h0.1l59.2-10.5c0.2,0,0.3-0.1,0.4-0.3c0.1-0.1,0.1-0.3,0.1-0.5l-1.6-7.3
	c0-0.1-0.1-0.2-0.2-0.3v-0.1l-7.7-26.5c-0.1-0.3-0.3-0.4-0.6-0.4H233l0.6-0.1c0.9-0.2,1.7-0.7,2.2-1.4c0.5-0.8,0.7-1.7,0.5-2.6
	l-0.1-0.3c-0.4-1.8-2.2-3-4-2.7l-30.8,6.2c-0.4,0-0.8,0-1.1,0.2c-0.5,0.2-1.1,0.5-1.6,0.8l-12.9,0.2c-1.1-1.4-2.8-2.2-4.5-2.1
	c-1.2,0-2.3,0.4-3.2,1.1c-1.4,1-2.6,2.7-2.6,3.2v0.1C176.8,366.5,177.2,377.7,177.1,382.9L177.1,382.9z"/>
<path d="M202.8,373h1.7c0.8,0,1.7-0.8,2.6-1.6c0.3-0.3,0.4-0.7,0.4-1.1c-0.1-0.5-0.4-0.9-0.9-1.1l-1.3-0.7h-0.1h0.1l0.6-0.3
	c0.5-0.2,1-0.2,1.5,0l1.3,0.7c0.8,0.4,1.7,0.5,2.6,0.3l1.7-0.4c1-0.2,1.7-1,1.7-2v-0.2c0-0.3,0.3-0.6,0.6-0.6h1.4
	c0.2,0,0.3,0.1,0.4,0.2c0.1,0.1,0.2,0.3,0.2,0.4v0.2c0,1,0.7,1.8,1.6,2l1.7,0.4c0.9,0.2,1.8,0.1,2.6-0.3l1.3-0.7
	c0.5-0.2,1-0.2,1.5,0l0.6,0.3h0.1h-0.1l-1.3,0.7c-0.3,0.1-0.4,0.4-0.5,0.6c-0.2,0.8,0.3,1.8,0.5,2.1c0.5,0.7,1.3,1,2.1,1h2.2
	c0.4,0,0.6,0.2,0.6,0.4c0,0.2-0.2,0.4-0.6,0.4h-2.2c-0.8,0-1.7,0.8-2.6,1.6c-0.3,0.3-0.4,0.7-0.4,1.1c0.1,0.5,0.4,0.9,0.9,1.1
	l1.3,0.7h0.1h-0.1l-0.6,0.3c-0.5,0.2-1,0.2-1.5,0l-1.3-0.7c-0.8-0.4-1.7-0.5-2.6-0.3l-1.7,0.4c-1,0.2-1.7,1-1.7,2v0.2
	c0,0.2-0.1,0.3-0.2,0.4c-0.1,0.1-0.3,0.2-0.4,0.2h-1.4c-0.3,0-0.6-0.3-0.6-0.6V380c0-1-0.7-1.8-1.6-2l-1.7-0.4
	c-0.3-0.1-0.6-0.1-0.9-0.1c-0.6,0-1.2,0.1-1.7,0.4l-1.3,0.7c-0.5,0.2-1,0.2-1.5,0l-0.6-0.3l-0.1-0.1h0.1l1.3-0.7
	c0.3-0.1,0.4-0.4,0.5-0.6c0.2-0.8-0.3-1.8-0.5-2.1c-0.5-0.7-1.3-1.1-2.1-1.1h-1.7c-0.4,0-0.6-0.2-0.6-0.4
	C202.2,373.2,202.4,372.9,202.8,373L202.8,373z M202.8,375h1.7c0.4,0,0.8,0.2,1.1,0.5c0.2,0.4,0.4,0.8,0.4,1.2l-1.2,0.6
	c-0.4,0.2-0.7,0.6-0.7,1.1s0.3,0.9,0.7,1.1l0.6,0.3c0.8,0.4,1.8,0.4,2.7,0l1.3-0.7c0.6-0.2,1.2-0.3,1.8-0.2l1.8,0.4
	c0.4,0.1,0.7,0.4,0.7,0.8v0.2c0,1,0.8,1.8,1.8,1.8h1.4c1,0,1.8-0.8,1.8-1.8V380c0-0.4,0.3-0.7,0.7-0.8l1.8-0.4
	c0.6-0.1,1.2-0.1,1.7,0.2l1.3,0.7c0.8,0.4,1.8,0.4,2.7,0l0.6-0.3c0.4-0.2,0.7-0.6,0.7-1.1s-0.3-0.9-0.7-1.1l-1.3-0.7
	c-0.2-0.1-0.2-0.2-0.2-0.2s0,0,0-0.1c1.3-1.2,1.7-1.3,1.7-1.3h2.2c0.5,0.1,0.9-0.1,1.3-0.4c0.3-0.3,0.5-0.7,0.5-1.2
	s-0.2-0.9-0.5-1.2c-0.3-0.3-0.8-0.4-1.3-0.4h-2.2c-0.4,0-0.8-0.2-1.1-0.5c-0.2-0.4-0.4-0.8-0.4-1.2l1.2-0.6c0.4-0.2,0.7-0.6,0.7-1.1
	s-0.3-0.9-0.7-1.1l-0.6-0.3c-0.8-0.4-1.8-0.4-2.7,0l-1.2,0.7c-0.6,0.2-1.2,0.3-1.8,0.2l-1.8-0.4c-0.4-0.1-0.7-0.4-0.7-0.8v-0.2
	c0-1-0.8-1.8-1.8-1.8h-1.4c-1,0-1.8,0.8-1.8,1.8v0.2c0,0.4-0.3,0.7-0.7,0.8l-1.8,0.4c-0.6,0.1-1.2,0.1-1.7-0.2L208,367
	c-0.8-0.4-1.8-0.4-2.7,0l-0.6,0.3c-0.4,0.2-0.7,0.6-0.7,1.1s0.3,0.9,0.7,1.1l1.3,0.7c0.2,0.1,0.2,0.2,0.2,0.2s0,0,0,0.1
	c-1.3,1.2-1.7,1.3-1.7,1.3h-1.7c-0.5-0.1-0.9,0.1-1.3,0.4c-0.3,0.3-0.5,0.7-0.5,1.2s0.2,0.9,0.5,1.2
	C201.9,374.9,202.3,375,202.8,375L202.8,375z"/>
<path d="M216.2,371.6c2.1,0,3.6,0.9,3.6,1.7c0,0.8-1.5,1.7-3.6,1.7s-3.6-0.9-3.6-1.7C212.6,372.5,214.1,371.6,216.2,371.6z
	 M216.2,376.3c2.7,0,4.8-1.3,4.8-2.9c0-1.6-2.1-2.9-4.8-2.9s-4.8,1.3-4.8,2.9C211.4,375,213.5,376.3,216.2,376.3z"/>
<path d="M285.7,258c0.1,0.7,0.3,0.8,1.2,0.8c0.8,0,1.7-0.5,1.7-1.2s-1.2-0.8-1.8-0.7C286.2,257,285.6,257.4,285.7,258L285.7,258z
	 M284.5,266.4c-1.7,0-3.3,1.3-4,2.8l-0.2,0.4c0.1,0.1,0.5,0,0.5,0c2.6-0.3,5.1-0.7,7.7-1.1c0.1,0,0.2-0.1,0.2-0.1
	c0-0.1-0.1-0.2-0.1-0.3C287.6,266.9,286.2,266.3,284.5,266.4L284.5,266.4z M280.8,270.2c-1.3,0.5-1-0.2-0.7-0.9
	c0.6-2,2.1-2.9,3.9-3.4c0.2-0.1,0.5-0.3,0.6-0.5c0.6-1.5,2-4.9,2.1-5.3c0-0.2-0.1-0.6-0.3-0.7c-0.9-0.4-1.1-1-0.9-2
	c0.3-1.5,3.1-0.7,3.3-0.2c0.3,0.9-0.2,1.5-0.9,2.1c-0.5,0.4-0.8,1-1,1.6c-0.6,1.4-1.1,2.8-1.6,4.2c0,0.1,0.2,0.4,0.4,0.5
	c1.1,0.7,1.9,0.8,2.7,1.5c0.8,0.7,1.7,1.6,1.8,1.8C290,268.9,281,270.1,280.8,270.2L280.8,270.2z"/>
<path d="M367.2,251.6L367.2,251.6L367.2,251.6z"/>
<path d="M259.1,243L259.1,243L259.1,243z"/>
<path d="M259.1,243L259.1,243L259.1,243z"/>
<path d="M302.8,280c0,0.2-2.1,0.3-2.3,0.3c-3.4,0.2-79.6,6.1-83.1,6.3c-0.3-3.6-2.1-19.8-3.7-33.9c2.4-0.1,82.3-5.9,88.1-6.3
	C302.4,260.8,302.9,278.2,302.8,280L302.8,280z M224.6,230.9c0.2,0.2,9,8.2,9,9c0.1,0.6-2.7,7.7-3.6,9.5c-0.2,0.4-1.4,1.6-1.8,1.7
	c-2.3,0.3-13.3,1-14.6,1.1c-1.1-10.1-2.1-18.9-2.3-20.9C212.5,231.1,224.5,230.8,224.6,230.9L224.6,230.9z M244.3,229.6
	c0.5,0,1.1,0.2,1.6,0.5c0.4,0.3,5.3,6,7.3,8.4c0.1,0.1-3.7,8.2-4.6,9.6c-0.1,0.2-1.4,1.6-1.6,1.6c-2.9,0.2-17.2,1.2-17.1,1.1
	c0.5-1,1.4-3,1.9-4c0.8-1.6,3.2-7.1,2.9-7.5c-1.3-1.8-7.7-6.8-8.9-8.1c-0.1-0.1-0.6-0.5-0.6-0.6
	C225.3,230.5,242.4,229.6,244.3,229.6L244.3,229.6z M246.6,229.5c3.5-0.1,18.4-1,18.8-0.8c0.7,0.3,1.1,0.6,1.6,1.1
	c2,2.1,6.2,7,6.3,7c0,0-3.7,9.9-4.2,11.1c-0.1,0.2-21.1,2.1-20.8,1.6c1.1-1.8,5.3-9.8,5.4-10c0.3-0.3,0.3-1.2,0-1.5
	c-0.4-0.3-5.2-5.7-7.3-8c-0.1-0.1-0.1-0.2-0.2-0.4C246.4,229.6,246.5,229.5,246.6,229.5L246.6,229.5z M285.5,227.9
	c0.5,0.1,1.1,0.9,1.4,1.5c1.1,1.8,2.5,4.2,3.6,6c0.6,1-3.3,9.4-4.2,11.4c-0.1,0.3-16.5,1.3-16.5,1.1c0.7-1.9,2-5.9,2.7-7.8
	c0.3-0.7,1-2.7,1.2-3.4c0,0-6.9-8.1-7.1-8.4C267.1,228.4,284.2,227.7,285.5,227.9L285.5,227.9z M286.5,227.9c0-0.1,0.2-0.2,0.3-0.2
	c0.6,0,12.5-0.4,14.6-0.4c0,3,0.5,10.7,0.4,18.6c-2.4,0.1-14.3,0.6-14.3,0.5c0.9-2.1,4.1-10.2,4-10.6c-1-2.7-3-5.4-4.8-7.7
	C286.6,228.1,286.5,227.9,286.5,227.9L286.5,227.9z M302,226.5c0,0-89.3,3.6-91.3,3.9c-0.1,0,6.1,56.6,6.2,57
	c0,0.1,81.2-6.5,83.8-6.6c0.3,0,2.6-0.1,2.7-0.2C303.5,277.8,302,226.5,302,226.5L302,226.5z"/>
<path d="M231.6,254.9c0-0.1,0.3-0.1,0.3,0c0.1,0.6,3,26.6,3,27.9c0,0.1-0.3,0.1-0.3,0C234.6,282.5,231.7,256.1,231.6,254.9
	L231.6,254.9z"/>
<path d="M249.2,253.7c0-0.1,0.3-0.1,0.3,0c0.1,0.6,3,26.6,3,27.9c0,0.1-0.3,0.1-0.3,0C252.2,281.4,249.3,255,249.2,253.7
	L249.2,253.7z"/>
<path d="M268.8,251.7c0-0.1,0.3-0.1,0.3,0c0.1,0.6,3,26.6,3,27.9c0,0.1-0.3,0.1-0.3,0C271.8,279.4,268.9,253,268.8,251.7
	L268.8,251.7z"/>
<path d="M275.7,250.4c0-0.1,0.3-0.1,0.3,0c0.1,0.6,3,26.6,3,27.9c0,0.1-0.3,0.1-0.3,0C278.7,278.1,275.9,251.7,275.7,250.4
	L275.7,250.4z"/>
<path d="M272,262.5c0,0.1-0.4,0.2-0.6,0.3c0-0.2-0.1-0.3-0.1-0.5c0-0.2-0.1-0.6-0.1-0.6c-0.7,0-1.2,0-1.4,1l-1.6,8.3
	c-0.4,1.5-2.6,0.2-2.5,0c0.3-1.1,2.1-7.2,2.4-9.2c0-0.2,0.3-0.4-0.3-0.6c-0.6-0.2-3,1.7-2.9,0.9c0.2-2.1,4.1-2.1,5.6-1.6
	c0,0-0.1,0.4,0.1,0.4c0.3,0.1,0.7,0,0.7,0s0-1,0.1-1.1c0.3,0.3,1.2,0.1,1.2,0.4C272.6,260.8,272.2,261.9,272,262.5L272,262.5z
	 M271.5,259.3c-0.1,0-0.5,0-0.5,0.1c-0.1,0.3,0,0.9-0.1,1.2h-0.2c-0.1-0.1,0-0.5-0.1-0.5c-1.1-0.1-2.5-0.3-3.6-0.1
	c-1.2,0.1-3.7,1.8-2.6,2.9c1,0.9,1.9-0.7,2.5-1.1c0.1-0.1,0.8-0.1,0.7,0c-0.1,0.7-0.4,1.5-0.5,2.1c-0.6,2.3-1.3,4.6-1.9,6.9
	c-0.1,0.2,0,0.6,0.2,0.7c0.7,0.3,1.4,0.6,2.1,0.8c0.2,0,0.6-0.2,0.6-0.4c0.5-2,1-3.9,1.4-5.9c0.3-1.1,0.5-3.8,1-3.8
	c0.1,0,0.4,0,0.4,0c-0.3,0.8,0.3,1.2,0.3,1.1c0.2,0,1.2,0,1.2-0.1c0.3-0.9,0.2-1.8,0.4-2.4C273.1,259.5,272.2,259.5,271.5,259.3
	L271.5,259.3z"/>
<path d="M258.3,272.4l-0.3-6.8l0.8-0.1c0,0,2.1,4.8,2.3,4.9c0.2,0.1,2.5-5.4,2.5-5.4l1.2-0.1l0.4,7L258.3,272.4z M262.9,265.1
	c0,0-1.7,4.4-1.9,4.3c-0.2,0-1.7-3.9-1.7-3.9L262.9,265.1z M265.1,264.4l-1.3,0.1c0,0,1.6-2.9,1.5-3.5c-0.1-0.5-0.3-0.5-0.5-0.2
	c-0.2,0.3-1.6,3.8-1.6,3.8l-4,0.4c0,0-0.5-1.3-0.7-1.6s-0.5-0.1-0.5,0.2c0,0.4,0.6,1.5,0.6,1.5l-1.1,0.1l0.4,7.8l7.8-0.7
	L265.1,264.4z"/>
<path d="M217.3,265.4c0,0,4.4,11.6,3.4,12.4s9.9-3.3,9.9-3.3s0.1-12.2-2.9-11.9C224.6,262.8,217.3,265.4,217.3,265.4L217.3,265.4z
	 M220.4,278c0.9-0.7-3.3-12.7-3.3-12.7h0.1c0,0,7.6-2.7,10.6-2.9c3-0.2,3.3,12.2,3.3,12.2H231C231,274.6,219.5,278.7,220.4,278
	L220.4,278z"/>
<path d="M226.1,271.7c-0.2-0.9-0.5-1.8-0.8-2.8c0.8-0.3,1.5-0.5,2.2-0.7c0.3,0.9,0.5,1.8,0.8,2.7
	C227.6,271.1,226.8,271.4,226.1,271.7L226.1,271.7z M221.2,267.3c0.9-0.3,2-0.7,3.1-1l0.6,2.4c-1.1,0.4-2.2,0.8-3.1,1.1L221.2,267.3
	z M229.9,270.2c-0.1,0-0.7,0.3-1.5,0.6c-0.2-0.8-0.4-1.8-0.7-2.7c1.2-0.4,2-0.7,2.1-0.7V267c-0.1,0-1,0.3-2.1,0.7
	c-0.2-0.8-0.5-1.7-0.7-2.3c1.1-0.4,1.8-0.6,1.9-0.6v-0.4c-0.1,0-0.9,0.3-1.9,0.7c-0.3-0.8-0.5-1.3-0.6-1.3s0,0.6,0.3,1.4
	c-0.7,0.2-1.4,0.5-2.2,0.8c-0.2-0.7-0.2-1.3-0.4-1.2c-0.2,0,0.3,1.3,0.3,1.3c-1.1,0.4-2.1,0.8-3.1,1.1l-0.4-1.5
	c-0.2,0.1-0.2,0.7-0.1,1.6c-1.2,0.4-2,0.7-2,0.7v0.2c0.1,0,0.9-0.3,2.1-0.6c0.1,0.7,0.4,1.6,0.6,2.4c-1,0.3-1.7,0.6-1.7,0.6v0.2
	c0.1,0,0.8-0.2,1.7-0.5c0.3,1,0.6,2.1,0.9,2.9c-0.8,0.3-1.4,0.6-1.4,0.6v0.2c0.1,0,0.7-0.2,1.5-0.5c0.4,1,0.6,1.8,0.7,1.9l-0.5-2
	c0.9-0.3,2-0.7,3.1-1.2l0.6,2.3c0.3-0.1,0.2-1.1-0.1-2.4c0.8-0.3,1.5-0.6,2.1-0.8c0.3,1.2,0.4,2.2,0.1,2.3l0.3,0.1
	c0.2-0.1,0.1-1.1-0.2-2.5c0.8-0.3,1.4-0.5,1.5-0.6C229.9,270.5,229.9,270.2,229.9,270.2L229.9,270.2z"/>
<path d="M239,272.9c-0.1,0-0.6,0.3-0.8,0.2c-0.2-0.1-0.2-0.3-0.2-0.6c0-0.3,0.3-0.7,0.7-1.6l0.2,0.8l1.1-0.2
	C239.7,271.9,239.3,272.4,239,272.9L239,272.9z M243.6,261.2c0-0.1,0.4,0,0.8,0.1l-5.3,9.5l-0.1-0.3
	C240.5,267.4,243.4,261.6,243.6,261.2L243.6,261.2z M239.1,271l5.4-9.6c0.3,0.1,0.6,0.2,0.9,0.3l-6,9.6l-0.3,0.1L239.1,271z
	 M240.2,271.1l-0.6,0.1l5.9-9.5c0.5,0.2,1,0.3,1,0.3S242.8,267.3,240.2,271.1L240.2,271.1z M243.3,260.9c-0.8,1.4-4.4,8.8-5.2,10.1
	c-0.4,0.8-0.9,2.9-0.8,3.6c0.9-0.5,1.8-1,2.3-2c0.6-1.3,7-9.9,7.5-10.9C245.8,261.4,244.7,260.5,243.3,260.9L243.3,260.9z"/>
<path d="M515.4,263.6h-26.6c6.3-1.8,12.9-2.8,19.5-2.8c0.9,0,1.7-0.8,1.7-1.7v-36.2h5.4V263.6z M442.5,223h5.4v36.2
	c0,0.9,0.8,1.7,1.7,1.7c6.7,0,13.2,1,19.5,2.8h-26.6V223z M451.2,217c9,0.2,17.7,2.1,26.1,5.5v40.3c-8.4-3.3-17.1-5.1-26.1-5.3V217
	L451.2,217z M480.6,262.8v-40.3c8.4-3.4,17.1-5.3,26.1-5.5v40.6C497.6,257.7,489,259.6,480.6,262.8L480.6,262.8z M516.9,219.7h-7
	v-4.3c0-0.9-0.8-1.7-1.7-1.7c-10.1,0-20,2-29.4,5.8c-9.4-3.9-19.2-5.8-29.4-5.8c-0.9,0-1.7,0.8-1.7,1.7v4.3h-6.9
	c-0.9,0-1.7,0.8-1.7,1.7v43.9c0,0.9,0.8,1.7,1.7,1.7H517c0.9,0,1.7-0.8,1.7-1.7v-44C518.6,220.5,517.9,219.7,516.9,219.7
	L516.9,219.7z"/>
<path d="M457.3,227.4c4.4,0.5,8.9,1.3,13.1,2.7c0.2,0.1,0.3,0.1,0.5,0.1c0.7,0,1.3-0.5,1.6-1.2c0.3-0.8-0.3-1.8-1.1-2
	c-4.5-1.3-9.1-2.3-13.7-2.8c-0.9-0.1-1.7,0.6-1.8,1.4C455.8,226.5,456.5,227.3,457.3,227.4L457.3,227.4z"/>
<path d="M471.4,234.9c-4.5-1.3-9.1-2.3-13.7-2.8c-0.9-0.1-1.7,0.6-1.8,1.4c-0.1,0.9,0.6,1.7,1.4,1.8c4.4,0.5,8.9,1.3,13.1,2.7
	c0.2,0.1,0.3,0.1,0.5,0.1c0.7,0,1.3-0.4,1.6-1.2C472.8,236,472.2,235.1,471.4,234.9L471.4,234.9z"/>
<path d="M471.4,242.8c-4.5-1.3-9.1-2.3-13.7-2.8c-0.9-0.1-1.7,0.6-1.8,1.4c-0.1,0.9,0.6,1.7,1.4,1.8c4.4,0.5,8.9,1.3,13.1,2.7
	c0.2,0.1,0.3,0.1,0.5,0.1c0.7,0,1.3-0.4,1.6-1.2C472.8,244,472.2,243,471.4,242.8L471.4,242.8z"/>
<path d="M471.4,250.6c-4.5-1.3-9.1-2.3-13.7-2.8c-0.9-0.1-1.7,0.6-1.8,1.4c-0.1,0.9,0.6,1.7,1.4,1.8c4.4,0.5,8.9,1.3,13.1,2.7
	c0.2,0.1,0.3,0.1,0.5,0.1c0.7,0,1.3-0.4,1.6-1.2C472.8,251.8,472.2,250.9,471.4,250.6L471.4,250.6z"/>
<path d="M500.1,224.2c-4.6,0.5-9.2,1.4-13.7,2.8c-0.8,0.3-1.3,1.2-1.1,2c0.3,0.7,0.8,1.2,1.6,1.2c0.2,0,0.3,0,0.5-0.1
	c4.3-1.3,8.8-2.2,13.1-2.7c0.9-0.1,1.6-0.9,1.4-1.8C501.9,224.7,501.1,224.1,500.1,224.2L500.1,224.2z"/>
<path d="M500.1,232.1c-4.6,0.5-9.3,1.4-13.7,2.8c-0.8,0.3-1.3,1.2-1.1,2c0.3,0.7,0.8,1.2,1.6,1.2c0.2,0,0.3,0,0.5-0.1
	c4.3-1.3,8.7-2.2,13.1-2.7c0.9-0.1,1.6-0.9,1.4-1.8C501.9,232.6,501.1,231.9,500.1,232.1L500.1,232.1z"/>
<path d="M500.1,239.9c-4.6,0.5-9.3,1.5-13.7,2.8c-0.8,0.3-1.3,1.2-1.1,2c0.3,0.7,0.8,1.2,1.6,1.2c0.2,0,0.3,0,0.5-0.1
	c4.3-1.3,8.7-2.2,13.1-2.7c0.9-0.1,1.6-0.9,1.4-1.8C501.9,240.5,501.1,239.9,500.1,239.9L500.1,239.9z"/>
<path d="M500.1,247.9c-4.6,0.5-9.3,1.4-13.7,2.8c-0.8,0.3-1.3,1.2-1.1,2c0.3,0.7,0.8,1.2,1.6,1.2c0.2,0,0.3,0,0.5-0.1
	c4.3-1.3,8.7-2.2,13.1-2.7c0.9-0.1,1.6-0.9,1.4-1.8C501.9,248.5,501.1,247.8,500.1,247.9L500.1,247.9z"/>
<text transform="matrix(1 0 0 1 64.3183 403.5387)" font-family="'MyriadPro-Regular'" font-size="18">UX designer</text>
<text transform="matrix(1 0 0 1 423.1142 288.9613)" font-family="'MyriadPro-Regular'" font-size="18">Documentation</text>
<text transform="matrix(1 0 0 1 439.2562 408.3229)" font-family="'MyriadPro-Regular'" font-size="18">TWs and </text>
<text transform="matrix(1 0 0 1 439.2562 429.9229)" font-family="'MyriadPro-Regular'" font-size="18">UX writing</text>
<rect y="169" fill="none" width="600" height="45.9"/>
<text transform="matrix(1 0 0 1 94.5035 189.9596)" font-family="'MyriadPro-Regular'" font-size="25">The impact of UX and the need for docs</text>
<g>
	<path fill="none" d="M36.4,312.8c0,0-19.8-65.9,44.9-124.8"/>
	<text transform="matrix(-0.208 -0.9781 0.9781 -0.208 35.9264 311.2077)" font-family="'MyriadPro-Regular'" font-size="9"></text>
	<text transform="matrix(-0.1629 -0.9866 0.9866 -0.1629 35.2681 308.1736)" font-family="'MyriadPro-Regular'" font-size="8.9996">S</text>
	<text transform="matrix(-0.1162 -0.9932 0.9932 -0.1162 34.5533 303.8756)" font-family="'MyriadPro-Regular'" font-size="9">o</text>
	
		<text transform="matrix(-8.162018e-02 -0.9967 0.9967 -8.162018e-02 34.0047 299.0226)" font-family="'MyriadPro-Regular'" font-size="9.0003">f</text>
	
		<text transform="matrix(-5.700137e-02 -0.9984 0.9984 -5.700137e-02 33.7915 296.4468)" font-family="'MyriadPro-Regular'" font-size="9">t</text>
	
		<text transform="matrix(-1.599973e-02 -0.9999 0.9999 -1.599973e-02 33.5874 293.5358)" font-family="'MyriadPro-Regular'" font-size="9">w</text>
	
		<text transform="matrix(2.966087e-02 -0.9996 0.9996 2.966087e-02 33.5062 286.9701)" font-family="'MyriadPro-Regular'" font-size="9.0004">a</text>
	
		<text transform="matrix(5.946587e-02 -0.9982 0.9982 5.946587e-02 33.6446 282.6751)" font-family="'MyriadPro-Regular'" font-size="9">r</text>
	
		<text transform="matrix(8.952677e-02 -0.996 0.996 8.952677e-02 33.8034 279.7943)" font-family="'MyriadPro-Regular'" font-size="9">e</text>
	<text transform="matrix(0.1152 -0.9933 0.9933 0.1152 34.2195 275.3512)" font-family="'MyriadPro-Regular'" font-size="8.9996"> </text>
	<text transform="matrix(0.1347 -0.9909 0.9909 0.1347 34.4303 273.4847)" font-family="'MyriadPro-Regular'" font-size="9">t</text>
	<text transform="matrix(0.1645 -0.9864 0.9864 0.1645 34.8152 270.5639)" font-family="'MyriadPro-Regular'" font-size="9">e</text>
	<text transform="matrix(0.198 -0.9802 0.9802 0.198 35.5512 266.1737)" font-family="'MyriadPro-Regular'" font-size="9">c</text>
	<text transform="matrix(0.2329 -0.9725 0.9725 0.2329 36.3246 262.2911)" font-family="'MyriadPro-Regular'" font-size="9">h</text>
	<text transform="matrix(0.2711 -0.9625 0.9625 0.2711 37.4738 257.4877)" font-family="'MyriadPro-Regular'" font-size="8.9996">n</text>
	<text transform="matrix(0.2978 -0.9546 0.9546 0.2978 38.8337 252.7332)" font-family="'MyriadPro-Regular'" font-size="9">i</text>
	<text transform="matrix(0.3206 -0.9472 0.9472 0.3206 39.438 250.7553)" font-family="'MyriadPro-Regular'" font-size="9">c</text>
	<text transform="matrix(0.3512 -0.9363 0.9363 0.3512 40.7121 246.9802)" font-family="'MyriadPro-Regular'" font-size="9">a</text>
	<text transform="matrix(0.3744 -0.9273 0.9273 0.3744 42.236 242.9551)" font-family="'MyriadPro-Regular'" font-size="9">l</text>
	<text transform="matrix(0.3885 -0.9214 0.9214 0.3885 43.0156 241.0276)" font-family="'MyriadPro-Regular'" font-size="8.9996"> </text>
	<text transform="matrix(0.4181 -0.9084 0.9084 0.4181 43.7045 239.2942)" font-family="'MyriadPro-Regular'" font-size="9">w</text>
	<text transform="matrix(0.4504 -0.8928 0.8928 0.4504 46.482 233.3369)" font-family="'MyriadPro-Regular'" font-size="9">r</text>
	<text transform="matrix(0.4669 -0.8843 0.8843 0.4669 47.794 230.7438)" font-family="'MyriadPro-Regular'" font-size="9">i</text>
	<text transform="matrix(0.4833 -0.8754 0.8754 0.4833 48.7657 228.8967)" font-family="'MyriadPro-Regular'" font-size="8.9996">t</text>
	<text transform="matrix(0.4994 -0.8664 0.8664 0.4994 50.1933 226.3169)" font-family="'MyriadPro-Regular'" font-size="9">i</text>
	<text transform="matrix(0.5211 -0.8535 0.8535 0.5211 51.2061 224.5221)" font-family="'MyriadPro-Regular'" font-size="9">n</text>
	<text transform="matrix(0.5507 -0.8347 0.8347 0.5507 53.7727 220.3158)" font-family="'MyriadPro-Regular'" font-size="9">g</text>
	<text transform="matrix(0.5706 -0.8212 0.8212 0.5706 56.5545 216.1342)" font-family="'MyriadPro-Regular'" font-size="9"> </text>
	<path fill="none" d="M50.2,312.5c0,0-19.8-65.9,44.9-124.8"/>
	<text transform="matrix(-0.2156 -0.9765 0.9765 -0.2156 49.6601 310.8272)" font-family="'MyriadPro-Regular'" font-size="9">i</text>
	<text transform="matrix(-0.1795 -0.9838 0.9838 -0.1795 49.2055 308.8257)" font-family="'MyriadPro-Regular'" font-size="8.9995">s</text>
	<text transform="matrix(-0.1502 -0.9887 0.9887 -0.1502 48.5895 305.3858)" font-family="'MyriadPro-Regular'" font-size="8.9995"> </text>
	<text transform="matrix(-0.1195 -0.9928 0.9928 -0.1195 48.2914 303.5422)" font-family="'MyriadPro-Regular'" font-size="8.9997">a</text>
	
		<text transform="matrix(-9.059428e-02 -0.9959 0.9959 -9.059428e-02 47.7947 299.2788)" font-family="'MyriadPro-Regular'" font-size="9"> </text>
	
		<text transform="matrix(-5.968453e-02 -0.9982 0.9982 -5.968453e-02 47.6021 297.4329)" font-family="'MyriadPro-Regular'" font-size="9">d</text>
	
		<text transform="matrix(-1.982177e-02 -0.9998 0.9998 -1.982177e-02 47.3101 292.4246)" font-family="'MyriadPro-Regular'" font-size="9">y</text>
	<text transform="matrix(6.588262e-03 -1 1 6.588262e-03 47.2411 288.2434)" font-family="'MyriadPro-Regular'" font-size="9">i</text>
	
		<text transform="matrix(3.604117e-02 -0.9994 0.9994 3.604117e-02 47.2326 286.1654)" font-family="'MyriadPro-Regular'" font-size="8.9995">n</text>
	
		<text transform="matrix(7.678620e-02 -0.997 0.997 7.678620e-02 47.4088 281.2455)" font-family="'MyriadPro-Regular'" font-size="8.9996">g</text>
	<text transform="matrix(0.1047 -0.9945 0.9945 0.1047 47.8122 276.2832)" font-family="'MyriadPro-Regular'" font-size="9"> </text>
	<text transform="matrix(0.1285 -0.9917 0.9917 0.1285 47.9965 274.4102)" font-family="'MyriadPro-Regular'" font-size="9">c</text>
	<text transform="matrix(0.1616 -0.9869 0.9869 0.1616 48.5014 270.4761)" font-family="'MyriadPro-Regular'" font-size="9.0004">a</text>
	<text transform="matrix(0.1902 -0.9817 0.9817 0.1902 49.2052 266.2409)" font-family="'MyriadPro-Regular'" font-size="8.9996">r</text>
	<text transform="matrix(0.2193 -0.9757 0.9757 0.2193 49.7465 263.388)" font-family="'MyriadPro-Regular'" font-size="9.0004">e</text>
	<text transform="matrix(0.254 -0.9672 0.9672 0.254 50.721 259.0416)" font-family="'MyriadPro-Regular'" font-size="9">e</text>
	<text transform="matrix(0.2822 -0.9594 0.9594 0.2822 51.8637 254.7344)" font-family="'MyriadPro-Regular'" font-size="8.9995">r</text>
	<text transform="matrix(0.3005 -0.9538 0.9538 0.3005 52.6926 251.9338)" font-family="'MyriadPro-Regular'" font-size="9"> </text>
	<text transform="matrix(0.3144 -0.9493 0.9493 0.3144 53.2547 250.1478)" font-family="'MyriadPro-Regular'" font-size="9">.</text>
	<text transform="matrix(0.3282 -0.9446 0.9446 0.3282 53.8372 248.391)" font-family="'MyriadPro-Regular'" font-size="9">.</text>
	<text transform="matrix(0.3418 -0.9398 0.9398 0.3418 54.4371 246.6619)" font-family="'MyriadPro-Regular'" font-size="9">.</text>
	<text transform="matrix(0.36 -0.933 0.933 0.36 55.0557 244.9436)" font-family="'MyriadPro-Regular'" font-size="9.0004"></text>
	<text transform="matrix(0.3782 -0.9257 0.9257 0.3782 56.2002 241.9913)" font-family="'MyriadPro-Regular'" font-size="9"> </text>
	<text transform="matrix(0.3978 -0.9175 0.9175 0.3978 56.9012 240.2524)" font-family="'MyriadPro-Regular'" font-size="9">?</text>
	<text transform="matrix(0.4229 -0.9062 0.9062 0.4229 58.3336 236.9445)" font-family="'MyriadPro-Regular'" font-size="8.9994">?</text>
	<text transform="matrix(0.4475 -0.8943 0.8943 0.4475 59.861 233.6728)" font-family="'MyriadPro-Regular'" font-size="9">?</text>
</g>
<path d="M468.8,383.5v-25l-8.4,7.5v17.5c0,2.3,1.9,4.2,4.2,4.2C466.9,387.7,468.8,385.8,468.8,383.5L468.8,383.5z"/>
<path d="M477,315.9c1,4.1-1.6,8.2-5.7,9.2s-8.2-1.6-9.2-5.7s1.6-8.2,5.7-9.2C472,309.2,476.1,311.8,477,315.9"/>
<path d="M506.9,332.8v-5.7c0-2.1-1.7-3.8-3.8-3.8h-11.4c-2.1,0-3.8,1.7-3.8,3.8v3.4v2.3H506.9z"/>
<polygon points="493.6,368 501.2,368 501.2,333.9 493.6,333.9 493.6,341.3 "/>
<polygon points="492.2,368 492.2,341.1 492.2,333.9 487.8,333.9 487.8,368 "/>
<polygon points="502.5,368 506.9,368 506.9,333.9 502.5,333.9 "/>
<path d="M495.7,386.1c0.9,1.9,2.5,1.9,3.4,0l7.8-17h-19.1L495.7,386.1z"/>
<path d="M469.6,356.9c0.3-0.3,0.5-0.6,0.5-0.9c0.1-0.5,0-1-0.4-1.5l-0.9-1l-5.7-6.4c-0.6-0.7-1.7-0.8-2.4-0.1l-0.3,0.2l-1.7,1.5
	c0.5,1,1,2.1,1.7,3.2c0.3,0.6,0.7,1.1,1.1,1.7c0.4,0.7,0.6,1.4,0.5,2.1c-0.1,1-0.6,2-1.5,2.6c0,0-0.1,0-0.1,0.1
	c-0.5,0.3-1.1,0.5-1.7,0.5c-1.1,0-2.2-0.6-2.8-1.5c-0.9-1.3-1.7-2.7-2.3-4l-3.4,3.1c-0.7,0.6-0.8,1.7-0.1,2.4l6.6,7.4
	c0.6,0.7,1.7,0.8,2.4,0.1l1.4-1.3l8.4-7.5L469.6,356.9z"/>
<path d="M454,352.9c0.7,1.3,1.5,2.6,2.4,4c0.5,0.8,1.4,1.2,2.3,1.2c0.5,0,1-0.1,1.5-0.5c0.1-0.1,0.2-0.1,0.2-0.2
	c0.7-0.6,1-1.4,1-2.2c0-0.5-0.2-0.9-0.4-1.4c-0.2-0.3-0.3-0.5-0.5-0.8c-0.9-1.4-1.6-2.8-2.2-4c-0.1-0.2-0.2-0.4-0.3-0.6
	c-0.6-1.3-0.9-2.5-1.2-3.6c-0.2-1-0.3-2-0.3-2.8c0-1.8,0.4-3.2,1-4.3c0.8-1.4,1.9-2.5,2.9-3.3v11.8c0,0,0,0,0.1,0
	c0.4-0.3,0.9-0.4,1.4-0.4c0.7,0,1.3,0.3,1.8,0.8l5.2,5.8l1.4,1.6c0.1,0.1,0.1,0.2,0.2,0.2c0.3,0.4,0.4,0.9,0.4,1.5
	c0,0.1,0,0.1,0,0.2c-0.1,0.4-0.2,0.7-0.4,1v26.5c0,2.3,1.9,4.2,4.2,4.2c2.3,0,4.2-1.9,4.2-4.2v-36.6c0-0.2,0-0.4,0-0.6v-10.4
	c0.4,0.2,0.8,0.5,1.2,0.7c1.9,1.2,4.3,2.4,7.2,3.3V334c-1.7-0.7-3.2-1.4-4.4-2.2c-1.5-0.9-2.6-1.8-3.4-2.4c-0.4-0.3-0.7-0.6-0.8-0.7
	c-0.1-0.1-0.2-0.1-0.2-0.2l0,0c0,0,0,0-0.1-0.1c-0.5-0.6-1.2-1-2.1-1h-13.1c-0.2,0-0.4,0-0.6,0.1c-0.3,0-0.5,0-0.8,0.1
	c-0.2,0.1-2.7,0.9-5.3,3.1c-1.3,1.1-2.6,2.5-3.7,4.4c-1,1.9-1.7,4.2-1.7,6.9c0,1.6,0.2,3.3,0.8,5.2c0.4,1.6,1.1,3.2,1.9,5
	C453.8,352.5,453.9,352.7,454,352.9L454,352.9z"/>
<path fill="none" stroke="#9A9A9A" stroke-width="1.573" stroke-miterlimit="10" d="M293.5,320.4c21.8-2.2,40.7-15.5,58.5-28.4
	c14-10.2,28.6-21,36-36.7"/>
<path fill="none" stroke="#9A9A9A" stroke-width="1.3464" stroke-miterlimit="10" d="M293.5,343.9c21.8,1.6,40.7,11.3,58.5,20.8
	c14,7.5,28.6,15.4,36,26.9"/>
<path fill="none" d="M290.2,315.3c21.8-2.2,40.7-15.5,58.5-28.4c14-10.2,28.6-21,36-36.7"/>
<text transform="matrix(0.9119 -0.4103 0.4103 0.9119 312.3585 309.3624)" font-family="'MyriadPro-Regular'" font-size="12.9994">I</text>
<text transform="matrix(0.9119 -0.4103 0.4103 0.9119 315.5916 308.0177)" font-family="'MyriadPro-Regular'" font-size="12.9994">m</text>
<text transform="matrix(0.9119 -0.4103 0.4103 0.9119 325.3853 302.7331)" font-family="'MyriadPro-Regular'" font-size="12.9994">p</text>
<text transform="matrix(0.9119 -0.4103 0.4103 0.9119 331.8141 298.7441)" font-family="'MyriadPro-Regular'" font-size="12.9994">a</text>
<text transform="matrix(0.9119 -0.4103 0.4103 0.9119 336.9667 295.3291)" font-family="'MyriadPro-Regular'" font-size="12.9994">c</text>
<text transform="matrix(0.9119 -0.4103 0.4103 0.9119 341.7128 291.9879)" font-family="'MyriadPro-Regular'" font-size="12.9994">t</text>
<path fill="none" d="M292.5,358.3c21.8,1.6,40.7,11.3,58.5,20.8c14,7.5,28.6,15.4,36,26.9"/>
<text transform="matrix(0.9269 0.3753 -0.3753 0.9269 323.057 365.596)" font-family="'MyriadPro-Regular'" font-size="13">I</text>
<text transform="matrix(0.9269 0.3753 -0.3753 0.9269 325.8752 366.6294)" font-family="'MyriadPro-Regular'" font-size="13">m</text>
<text transform="matrix(0.9269 0.3753 -0.3753 0.9269 335.6979 371.146)" font-family="'MyriadPro-Regular'" font-size="13">p</text>
<text transform="matrix(0.9269 0.3753 -0.3753 0.9269 342.2394 374.4419)" font-family="'MyriadPro-Regular'" font-size="13">a</text>
<text transform="matrix(0.9269 0.3753 -0.3753 0.9269 347.7609 377.3247)" font-family="'MyriadPro-Regular'" font-size="13">c</text>
<text transform="matrix(0.9269 0.3753 -0.3753 0.9269 352.9118 380.0576)" font-family="'MyriadPro-Regular'" font-size="13">t</text>
<path fill="none" d="M368.1,259.8c6.7-2,13.3-4,20-5.9c0.3,5.1-0.5,12.9-2.1,17.7"/>
<path fill="none" d="M386.5,372.4c0.9,6,1.7,12,2.6,18.1c-7.3-0.4-16.7,4.2-24.1,3.8"/>
<path fill="none" stroke="#9A9A9A" stroke-width="1.573" stroke-miterlimit="10" d="M374,256.5c6-0.1,11.9-1.8,17-4.9
	c-1,5.6-2,11.3-3,16.9c-0.1,0.7-0.4,1.5-1.1,1.5s-0.4-1.4,0.1-0.9"/>
<path fill="none" stroke="#9A9A9A" stroke-width="1.573" stroke-miterlimit="10" d="M388.9,379.6c0.2,6,2,11.9,5.1,16.9
	c-5.7-0.9-11.3-1.8-17-2.8c-0.7-0.1-1.5-0.4-1.5-1.1s1.4-0.4,0.9,0.1"/>
</svg>
