<?xml version="1.0" encoding="utf-8"?>
<!-- Generator: Adobe Illustrator 17.1.0, SVG Export Plug-In . SVG Version: 6.00 Build 0)  -->
<!DOCTYPE svg PUBLIC "-//W3C//DTD SVG 1.1//EN" "http://www.w3.org/Graphics/SVG/1.1/DTD/svg11.dtd">
<svg version="1.1" id="Layer_1" xmlns="http://www.w3.org/2000/svg" xmlns:xlink="http://www.w3.org/1999/xlink" x="0px" y="0px"
	 viewBox="0 0 359 365" enable-background="new 0 0 359 365" xml:space="preserve">
<circle fill="#4B5411" stroke="#000000" stroke-width="0.9462" stroke-miterlimit="10" cx="183" cy="187" r="168"/>
<path fill="#66315D" stroke="#000000" stroke-width="0.9462" stroke-miterlimit="10" d="M224,24.2l-41.2,163.5L17.5,216.3
	C31.4,295.1,100.2,355,183,355c92.8,0,168-75.2,168-168C350.9,108.5,296.9,42.5,224,24.2z"/>
<path fill="#6896B3" stroke="#000000" stroke-width="0.9462" stroke-miterlimit="10" d="M183,187.1l-0.1,0.2L17,213
	c12.5,80.4,82,142,166,142c46,0,87.6-18.5,117.9-48.4L183,187.1z"/>
<path fill="none" d="M69.2,145.7c0,0,26.7-86.1,119-78.3"/>
<text transform="matrix(0.4682 -0.8836 0.8836 0.4682 68.5384 144.1911)"><tspan x="0" y="0" fill="#FFFFFF" font-family="'MyriadPro-Regular'" font-size="40">W</tspan><tspan x="32.7" y="0.8" fill="#FFFFFF" font-family="'MyriadPro-Regular'" font-size="40" rotate="9.6">r</tspan><tspan x="45" y="2.9" fill="#FFFFFF" font-family="'MyriadPro-Regular'" font-size="40" rotate="14.5">i</tspan><tspan x="53.6" y="5" fill="#FFFFFF" font-family="'MyriadPro-Regular'" font-size="40" rotate="19.8">t</tspan><tspan x="65.4" y="9.3" fill="#FFFFFF" font-family="'MyriadPro-Regular'" font-size="40" rotate="25.3">i</tspan><tspan x="73.3" y="12.4" fill="#FFFFFF" font-family="'MyriadPro-Regular'" font-size="40" rotate="33.4">n</tspan><tspan x="90.9" y="23.9" fill="#FFFFFF" font-family="'MyriadPro-Regular'" font-size="40" rotate="45">g</tspan></text>
<path fill="none" d="M265.6,106c0,0,69.7,67.2,13.2,140.7"/>
<text transform="matrix(0.6266 0.7794 -0.7794 0.6266 267.0421 106.9243)"><tspan x="0" y="0" fill="#F9F9F9" font-family="'MyriadPro-Regular'" font-size="40">E</tspan><tspan x="18.8" y="-0.2" fill="#F9F9F9" font-family="'MyriadPro-Regular'" font-size="40" rotate="8.2">d</tspan><tspan x="40.3" y="3.3" fill="#F9F9F9" font-family="'MyriadPro-Regular'" font-size="40" rotate="14.9">i</tspan><tspan x="48.8" y="5.4" fill="#F9F9F9" font-family="'MyriadPro-Regular'" font-size="40" rotate="20.2">t</tspan><tspan x="60.6" y="9.8" fill="#F9F9F9" font-family="'MyriadPro-Regular'" font-size="40" rotate="25.9">i</tspan><tspan x="68.4" y="13" fill="#F9F9F9" font-family="'MyriadPro-Regular'" font-size="40" rotate="34.6">n</tspan><tspan x="85.7" y="24.6" fill="#F9F9F9" font-family="'MyriadPro-Regular'" font-size="40" rotate="47.8">g</tspan></text>
<path fill="none" d="M217,282c0,0-99.9,34-136.4-51.2"/>
<text transform="matrix(-0.9763 0.2164 -0.2164 -0.9763 215.2153 282.8869)"><tspan x="0" y="0" fill="#FCFCFA" font-family="'MyriadPro-Regular'" font-size="40">L</tspan><tspan x="18.1" y="-0.1" fill="#FCFCFA" font-family="'MyriadPro-Regular'" font-size="40" rotate="6.6">e</tspan><tspan x="37.2" y="2.1" fill="#FCFCFA" font-family="'MyriadPro-Regular'" font-size="40" rotate="13.9">a</tspan><tspan x="55.2" y="6.6" fill="#FCFCFA" font-family="'MyriadPro-Regular'" font-size="40" rotate="20.9">r</tspan><tspan x="66.6" y="10.5" fill="#FCFCFA" font-family="'MyriadPro-Regular'" font-size="40" rotate="29.8">n</tspan><tspan x="84.8" y="21.4" fill="#FCFCFA" font-family="'MyriadPro-Regular'" font-size="40" rotate="38.9">i</tspan><tspan x="91.7" y="26.1" fill="#FCFCFA" font-family="'MyriadPro-Regular'" font-size="40" rotate="48.8">n</tspan><tspan x="105.4" y="41.6" fill="#FCFCFA" font-family="'MyriadPro-Regular'" font-size="40" rotate="62.6">g</tspan></text>
<path fill="#FFFFFF" d="M101.9,106.3"/>
<path fill="#ECECEC" d="M194.3,232c1.5-1.9,0.2-8.1,0.2-8.1c-0.6-2.7,1.2-4.7,4-4.4c0,0,1.8,0.2,6.9,0.8c3.3,0.4,6.5,0.4,8.6-0.7
	c5.3-2.9,0.1-8.2,0.1-10c0-1.8,3.8-1.8,3.8-3.8s-3.5-1.1-3.6-2.4c0-1.3,4.9-0.3,4.9-2.3c0-2-2-2.4-2-4.7c0-1.7,4.6-1.6,5.7-3.8
	c0.3-0.7,0.7-1.8,0.1-2.9c-2.6-4.8-8.2-7.8-8.2-13.6c0-3,1.4-4.3,1.4-7.8c0-3.4-0.5-8.1-3.3-12.1c-4.3-6.2-12.9-14.2-33.1-14.2
	c-24.3,0-44.6,18.2-34.1,46.4c3.6,10.3,12.9,14.5,12.9,20.6c0,2.6-0.7,7.3-2.6,11.8c-2.4,5.8-3.4,7.6-3.4,7.6
	c-1,1.9-0.1,3.5,2.1,3.5h39.2"/>
<path fill="#66315D" d="M189.6,157.3v-1.8c-7.8,0-14.1,6.3-14.1,14.1h1.8C177.3,162.9,182.8,157.3,189.6,157.3z"/>
<path fill="#4B5411" d="M175.1,173.5l0.9-1.5c-5.9-3.4-7.9-11-4.5-16.9l-1.5-0.9C166.1,160.9,168.4,169.6,175.1,173.5L175.1,173.5z"
	/>
<path fill="#4B5411" d="M171.2,177.6c2.4,0,4.9-0.6,7-1.9l-0.9-1.5c-2.9,1.6-6.2,2.1-9.4,1.2c-3.2-0.9-5.8-2.9-7.5-5.8l-1.5,0.9
	c1.9,3.3,4.9,5.6,8.6,6.6C168.7,177.4,170,177.6,171.2,177.6L171.2,177.6z"/>
<path fill="#66315D" d="M167.6,186.4v1.8c7.8,0,14.1-6.3,14.1-14.1h-1.8C179.9,180.9,174.4,186.4,167.6,186.4z"/>
<path fill="#4B5411" d="M187.2,189.6c3.9-6.7,1.6-15.4-5.2-19.3l-0.9,1.5c5.9,3.4,7.9,11,4.5,16.9L187.2,189.6z"/>
<path fill="#6896B3" d="M189.6,166.7c-3.6-1-7.4-0.5-10.7,1.4l0.9,1.5c2.9-1.6,6.2-2.1,9.4-1.2c3.2,0.9,5.8,2.9,7.5,5.8l1.5-0.9
	C196.3,170,193.3,167.7,189.6,166.7L189.6,166.7z"/>
</svg>
