<?xml version="1.0" encoding="utf-8"?>
<!-- Generator: Adobe Illustrator 17.1.0, SVG Export Plug-In . SVG Version: 6.00 Build 0)  -->
<!DOCTYPE svg PUBLIC "-//W3C//DTD SVG 1.1//EN" "http://www.w3.org/Graphics/SVG/1.1/DTD/svg11.dtd">
<svg version="1.1" id="Layer_1" xmlns="http://www.w3.org/2000/svg" xmlns:xlink="http://www.w3.org/1999/xlink" x="0px" y="0px"
	 viewBox="0 0 650 400" enable-background="new 0 0 650 400" xml:space="preserve">
<circle fill="#4B5411" stroke="#000000" stroke-width="0.9462" stroke-miterlimit="10" cx="299" cy="187" r="168"/>
<path fill="#66315D" stroke="#000000" stroke-width="0.9462" stroke-miterlimit="10" d="M340,24.2l-41.2,163.5l-165.2,28.7
	C147.4,295.1,216.2,355,299,355c92.8,0,168-75.2,168-168C466.9,108.5,412.9,42.5,340,24.2z"/>
<path fill="#6896B3" stroke="#000000" stroke-width="0.9462" stroke-miterlimit="10" d="M299,187.1l-0.1,0.2L133,213
	c12.5,80.4,82,142,166,142c46,0,87.6-18.5,117.9-48.4L299,187.1z"/>
<g>
	<path fill="none" d="M185.2,145.7c0,0,26.7-86.1,119-78.3"/>
	<path fill="#FFFFFF" d="M188,137.6l-27-6.6l1.7-3.3l13.6,3.6c3.3,0.9,6.6,1.8,9.2,2.6l0-0.1c-2.2-1.6-4.6-3.9-7.2-6.3l-10.3-9.5
		l1.7-3.2l13.6,3.5c3.2,0.8,6.3,1.7,9,2.7l0-0.1c-2.4-1.9-4.6-4-7.2-6.3l-10.4-9.5l1.7-3.1l20.2,19.4l-1.7,3.2l-14-3.6
		c-3.4-0.9-6-1.6-8.6-2.6l0,0.1c2.1,1.7,4.2,3.4,6.8,6l10.6,10L188,137.6z"/>
	<path fill="#FFFFFF" d="M191.3,105.7c-1.8-1.4-3.4-2.5-4.9-3.5l1.9-2.5l3.1,2.2l0.1-0.1c-1.5-2.3-1.6-5-0.1-6.8
		c0.2-0.3,0.4-0.5,0.7-0.7l2.6,2c-0.3,0.2-0.5,0.5-0.8,0.9c-1.5,2-1.1,4.5,0.7,6.5c0.3,0.4,0.7,0.8,1.2,1.1l8.2,6.2l-2.1,2.8
		L191.3,105.7z"/>
	<path fill="#FFFFFF" d="M194.1,84.3c0.9,0.8,1,2.1,0.1,3.1c-0.8,0.9-2.1,0.9-3,0.1c-0.9-0.8-1-2.2-0.2-3.1
		C191.9,83.5,193.2,83.5,194.1,84.3z M209.8,103.9l-14.3-13l2.4-2.6l14.3,13L209.8,103.9z"/>
	<path fill="#FFFFFF" d="M202.1,76.3l3.8,4.1l3.7-3.4l1.8,2l-3.7,3.4l7.1,7.7c1.6,1.8,3,2.3,4.5,1c0.7-0.6,1.1-1.2,1.3-1.6l1.9,1.8
		c-0.3,0.7-1,1.5-2,2.5c-1.2,1.1-2.5,1.6-3.8,1.5c-1.4-0.1-2.9-1.1-4.4-2.8l-7.1-7.8l-2.2,2l-1.8-2l2.2-2l-3.1-3.4L202.1,76.3z"/>
	<path fill="#FFFFFF" d="M213.5,67.1c0.8,0.9,0.6,2.2-0.5,3.1c-1,0.7-2.3,0.5-3-0.4c-0.7-1-0.6-2.3,0.4-3.1
		C211.5,65.8,212.8,66.1,213.5,67.1z M225.3,89.3l-11.7-15.5l2.8-2.1l11.7,15.5L225.3,89.3z"/>
	<path fill="#FFFFFF" d="M225.2,71.7c-1-1.8-1.8-3.2-2.7-4.5l2.7-1.5l1.7,2.7l0.1,0c0-2.1,1-4.7,3.8-6.3c2.3-1.3,6.8-1.9,10,3.9
		l5.6,10.1l-3.1,1.7L238,68c-1.5-2.7-3.8-4.4-6.7-2.8c-2,1.1-2.8,3.4-2.4,5.4c0.1,0.5,0.3,1,0.6,1.6l5.6,10.2l-3.1,1.7L225.2,71.7z"
		/>
	<path fill="#FFFFFF" d="M260.7,50.9c0.3,1.4,0.7,2.9,1.4,5.1l3.3,10.7c1.3,4.2,1.3,7.1,0,9.3c-1.3,2.2-3.7,3.6-6,4.3
		c-2.2,0.7-4.8,0.9-6.6,0.4l0-2.8c1.5,0.4,3.6,0.5,5.9-0.2c3.4-1.1,5.4-3.7,3.9-8.3l-0.6-2.1l-0.1,0c-0.5,2-2.1,4-4.9,4.9
		c-4.6,1.4-9.1-1.4-10.7-6.6c-2-6.3,1-11.1,5.3-12.4c3.2-1,5.5,0.1,6.8,1.4l0.1,0l-0.7-2.8L260.7,50.9z M259.5,59.3
		c-0.2-0.6-0.4-1.1-0.7-1.5c-1.2-1.8-3.4-2.9-5.8-2.1c-3.2,1-4.7,4.4-3.3,8.7c1.1,3.6,3.9,6.1,7.5,4.9c2.1-0.6,3.5-2.5,3.6-4.9
		c0-0.6-0.1-1.3-0.3-1.9L259.5,59.3z"/>
</g>
<g>
	<path fill="none" d="M381.6,106c0,0,69.7,67.2,13.2,140.7"/>
	<path fill="#F9F9F9" d="M403.6,112.2L397,104l-7.6,6.1l7.3,9.1l-2.3,1.8l-9.5-11.8l21-16.9l9.1,11.3l-2.3,1.8l-6.9-8.6l-6.6,5.3
		l6.6,8.2L403.6,112.2z"/>
	<path fill="#F9F9F9" d="M429.3,123.7l-20.1,11.9c-1.5,0.9-3.1,1.9-4.2,2.7l-1.6-2.7l2.8-1.8l0-0.1c-2.4,0.2-5-1-6.6-3.7
		c-2.4-4-0.8-9.1,4.2-12.1c5.5-3.3,11-1.9,13.4,2.2c1.5,2.5,1.3,5,0.4,6.5l0,0.1l9.9-5.9L429.3,123.7z M413,129.3
		c0.4-0.2,0.9-0.6,1.2-0.9c1.7-1.6,2.3-4.2,0.9-6.4c-1.9-3.1-5.7-3.4-9.4-1.2c-3.4,2-5.2,5.3-3.2,8.6c1.2,2,3.6,3.1,6.2,2.3
		c0.5-0.1,0.9-0.4,1.4-0.6L413,129.3z"/>
	<path fill="#F9F9F9" d="M406.9,142.9l17.7-7.9l1.4,3.2l-17.7,7.9L406.9,142.9z M431.1,136.4c-1.1,0.5-2.3,0.1-2.9-1.2
		c-0.5-1.1,0-2.3,1.1-2.8c1.1-0.5,2.4-0.1,2.9,1.1C432.8,134.7,432.3,135.9,431.1,136.4z"/>
	<path fill="#F9F9F9" d="M435.3,147l-5.3,1.8l1.6,4.8l-2.5,0.9l-1.6-4.8l-9.9,3.3c-2.3,0.8-3.3,1.9-2.7,3.7c0.3,0.9,0.6,1.5,0.9,1.9
		l-2.4,1c-0.5-0.6-1-1.5-1.5-2.8c-0.5-1.6-0.5-3,0.2-4.1c0.7-1.3,2.2-2.2,4.3-2.9l10-3.4l-1-2.8l2.5-0.9l1,2.8l4.4-1.5L435.3,147z"
		/>
	<path fill="#F9F9F9" d="M414,162.9l18.9-4.4l0.8,3.4l-18.9,4.4L414,162.9z M439.1,161.2c-1.2,0.3-2.3-0.3-2.6-1.7
		c-0.3-1.2,0.5-2.3,1.6-2.6c1.2-0.3,2.4,0.4,2.6,1.6C441,159.9,440.3,160.9,439.1,161.2z"/>
	<path fill="#F9F9F9" d="M430.1,170.1c2-0.1,3.6-0.3,5.2-0.6l0.2,3.1l-3.2,0.4l0,0.1c1.9,0.8,3.9,2.9,4.1,6.1
		c0.2,2.7-1.1,6.9-7.7,7.4l-11.5,0.9L417,184l11.1-0.8c3.1-0.2,5.6-1.6,5.4-4.9c-0.2-2.3-1.9-4-3.9-4.4c-0.5-0.1-1.1-0.2-1.7-0.1
		l-11.6,0.9l-0.3-3.5L430.1,170.1z"/>
	<path fill="#F9F9F9" d="M433.7,211.3c-1.4-0.3-2.9-0.6-5.2-1l-11.1-1.7c-4.4-0.7-6.9-2-8.3-4.1c-1.4-2.1-1.6-4.9-1.2-7.3
		c0.4-2.3,1.3-4.7,2.6-6.1l2.5,1.3c-1,1.1-2,3-2.4,5.4c-0.6,3.6,0.9,6.5,5.7,7.2l2.1,0.3l0-0.1c-1.6-1.3-2.7-3.6-2.2-6.6
		c0.7-4.7,5.3-7.5,10.6-6.7c6.5,1,9.5,5.8,8.8,10.2c-0.5,3.3-2.5,4.9-4.3,5.4l0,0.1l2.9,0.6L433.7,211.3z M426.7,206.5
		c0.6,0.1,1.1,0.1,1.6,0c2.1-0.3,4-1.8,4.4-4.3c0.5-3.3-1.9-6.1-6.3-6.8c-3.8-0.6-7.2,0.8-7.8,4.6c-0.3,2.1,0.7,4.3,2.8,5.4
		c0.6,0.3,1.2,0.5,1.8,0.6L426.7,206.5z"/>
</g>
<path fill="#FFFFFF" d="M217.9,106.3"/>
<path fill="#ECECEC" d="M310.3,232c1.5-1.9,0.2-8.1,0.2-8.1c-0.6-2.7,1.2-4.7,4-4.4c0,0,1.8,0.2,6.9,0.8c3.3,0.4,6.5,0.4,8.6-0.7
	c5.3-2.9,0.1-8.2,0.1-10c0-1.8,3.8-1.8,3.8-3.8s-3.5-1.1-3.6-2.4c0-1.3,4.9-0.3,4.9-2.3c0-2-2-2.4-2-4.7c0-1.7,4.6-1.6,5.7-3.8
	c0.3-0.7,0.7-1.8,0.1-2.9c-2.6-4.8-8.2-7.8-8.2-13.6c0-3,1.4-4.3,1.4-7.8c0-3.4-0.5-8.1-3.3-12.1c-4.3-6.2-12.9-14.2-33.1-14.2
	c-24.3,0-44.6,18.2-34.1,46.4c3.6,10.3,12.9,14.5,12.9,20.6c0,2.6-0.7,7.3-2.6,11.8c-2.4,5.8-3.4,7.6-3.4,7.6
	c-1,1.9-0.1,3.5,2.1,3.5h39.2"/>
<path fill="#66315D" d="M305.6,157.3v-1.8c-7.8,0-14.1,6.3-14.1,14.1h1.8C293.3,162.9,298.8,157.3,305.6,157.3z"/>
<path fill="#4B5411" d="M291.1,173.5l0.9-1.5c-5.9-3.4-7.9-11-4.5-16.9l-1.5-0.9C282.1,160.9,284.4,169.6,291.1,173.5L291.1,173.5z"
	/>
<path fill="#4B5411" d="M287.2,177.6c2.4,0,4.9-0.6,7-1.9l-0.9-1.5c-2.9,1.6-6.2,2.1-9.4,1.2c-3.2-0.9-5.8-2.9-7.5-5.8l-1.5,0.9
	c1.9,3.3,4.9,5.6,8.6,6.6C284.7,177.4,286,177.6,287.2,177.6L287.2,177.6z"/>
<path fill="#66315D" d="M283.6,186.4v1.8c7.8,0,14.1-6.3,14.1-14.1h-1.8C295.9,180.9,290.4,186.4,283.6,186.4z"/>
<path fill="#4B5411" d="M303.2,189.6c3.9-6.7,1.6-15.4-5.2-19.3l-0.9,1.5c5.9,3.4,7.9,11,4.5,16.9L303.2,189.6z"/>
<path fill="#6896B3" d="M305.6,166.7c-3.6-1-7.4-0.5-10.7,1.4l0.9,1.5c2.9-1.6,6.2-2.1,9.4-1.2c3.2,0.9,5.8,2.9,7.5,5.8l1.5-0.9
	C312.3,170,309.3,167.7,305.6,166.7L305.6,166.7z"/>
<g>
	<path fill="none" d="M175.9,259.2c0,0,31.3,96.9,169.1,73.8"/>
	<path fill="#FFFFFF" d="M204.1,257.1l1.9,3.1L185.7,273l6.4,10.3l-2.5,1.6l-8.4-13.4L204.1,257.1z"/>
	<path fill="#FFFFFF" d="M201.9,285.3c-3.4,3.3-2.7,7-0.1,9.7c1.8,1.9,3.2,2.8,4.6,3.4l-1.4,2.2c-1.3-0.6-3.3-1.8-5.5-4.1
		c-4.3-4.6-4-10,0.3-14c4.3-4,10.1-4.5,14.1-0.2c4.6,4.8,1.7,9.9-0.9,12.4c-0.5,0.5-1,0.8-1.3,1L201.9,285.3z M211.2,291.5
		c1.7-1.5,3.5-4.6,0.7-7.7c-2.6-2.7-6.1-1.7-8.1-0.2L211.2,291.5z"/>
	<path fill="#FFFFFF" d="M220.5,313.6l1.2-2.2l-0.1-0.1c-1.8,0.6-4.4,0.4-6.7-1.3c-3.4-2.4-3.5-5.9-1.8-8.1
		c2.7-3.8,7.8-3.4,14.1,1.2l0.2-0.3c0.9-1.3,2.2-3.9-1.2-6.3c-1.5-1.1-3.5-1.8-5.2-1.9l0.7-2.4c2,0.1,4.4,1,6.4,2.5
		c5.1,3.6,4,7.8,1.7,10.9l-4.2,5.9c-1,1.4-1.9,2.8-2.4,4L220.5,313.6z M225.8,305.3c-3.2-2.4-7.4-4.5-9.6-1.5
		c-1.3,1.9-0.6,3.7,0.9,4.8c2.2,1.5,4.5,1.2,5.9,0.2c0.3-0.2,0.6-0.5,0.8-0.8L225.8,305.3z"/>
	<path fill="#FFFFFF" d="M236.5,307.7c1-2,1.9-3.8,2.5-5.5l2.9,1.4l-1.6,3.5l0.2,0.1c2-1.9,4.7-2.4,6.9-1.3c0.4,0.2,0.6,0.4,0.9,0.6
		l-1.5,3c-0.3-0.2-0.6-0.4-1.1-0.7c-2.3-1.2-4.8-0.3-6.5,1.8c-0.3,0.4-0.6,0.9-0.9,1.4l-4.6,9.2l-3.3-1.6L236.5,307.7z"/>
	<path fill="#FFFFFF" d="M249.8,313.2c0.6-1.9,1-3.5,1.4-5.1l3.1,1l-0.8,3.1l0.1,0c1.5-1.5,4.3-2.5,7.5-1.5c2.7,0.8,6.4,3.7,4.4,10
		l-3.5,11l-3.5-1.1l3.3-10.6c0.9-3,0.5-5.8-2.8-6.9c-2.3-0.7-4.6,0.3-5.8,2c-0.3,0.4-0.6,0.9-0.7,1.5l-3.5,11.1l-3.5-1.1
		L249.8,313.2z"/>
	<path fill="#FFFFFF" d="M270.1,333.4l3.5-19l3.6,0.7l-3.5,19L270.1,333.4z M278.6,309.7c-0.2,1.2-1.3,2-2.7,1.7
		c-1.3-0.2-2-1.3-1.8-2.5c0.2-1.2,1.3-2,2.7-1.8C278.1,307.4,278.8,308.5,278.6,309.7z"/>
	<path fill="#FFFFFF" d="M282.6,321.3c0.1-2,0.2-3.6,0.2-5.2l3.3,0.2l0,3.2l0.1,0c1.1-1.8,3.6-3.4,7-3.1c2.8,0.2,7.1,2.1,6.6,8.7
		l-0.9,11.5l-3.7-0.3l0.8-11.1c0.2-3.1-0.8-5.8-4.3-6.1c-2.4-0.2-4.4,1.3-5.2,3.2c-0.2,0.4-0.3,1-0.4,1.6l-0.9,11.6l-3.7-0.3
		L282.6,321.3z"/>
	<path fill="#FFFFFF" d="M323.5,316.5c0,1.4,0,3,0.1,5.3l0.6,11.2c0.2,4.4-0.6,7.2-2.5,9c-1.9,1.9-4.7,2.6-7.3,2.7
		c-2.4,0.1-5.2-0.3-6.8-1.3l0.8-2.7c1.4,0.7,3.5,1.3,6,1.2c3.8-0.2,6.5-2.2,6.2-7.1l-0.1-2.2l-0.1,0c-1,1.9-3.2,3.4-6.3,3.6
		c-5,0.3-8.9-3.6-9.1-9c-0.3-6.6,4-10.5,8.6-10.7c3.5-0.2,5.6,1.5,6.5,3l0.1,0l0-2.9L323.5,316.5z M320,324.3c0-0.6-0.1-1.1-0.3-1.6
		c-0.8-2-2.7-3.6-5.4-3.5c-3.5,0.2-5.9,3.1-5.7,7.6c0.2,3.8,2.4,6.9,6.4,6.6c2.3-0.1,4.3-1.6,4.9-3.9c0.2-0.6,0.2-1.3,0.2-1.9
		L320,324.3z"/>
</g>
</svg>
