<?xml version="1.0" encoding="utf-8"?>
<!-- Generator: Adobe Illustrator 17.1.0, SVG Export Plug-In . SVG Version: 6.00 Build 0)  -->
<!DOCTYPE svg PUBLIC "-//W3C//DTD SVG 1.1//EN" "http://www.w3.org/Graphics/SVG/1.1/DTD/svg11.dtd">
<svg version="1.1" id="Layer_1" xmlns="http://www.w3.org/2000/svg" xmlns:xlink="http://www.w3.org/1999/xlink" x="0px" y="0px"
	 viewBox="0 0 289.4 261" enable-background="new 0 0 289.4 261" xml:space="preserve">
<rect x="144.7" fill="#D6CCDB" width="144.7" height="261"/>
<rect fill="#EFF7F0" width="144.7" height="261"/>
<path d="M65.4,100.4c1.2-0.5,1.7-1.9,1.2-3c-0.5-1.2-1.9-1.7-3-1.2c-13.2,5.6-21.7,18.5-21.7,32.8c0,9.5,3.7,18.5,10.4,25.2
	c0.4,0.5,1,0.7,1.6,0.7c0.6,0,1.2-0.2,1.6-0.7c0.9-0.9,0.9-2.4,0-3.3c-5.9-5.9-9.1-13.7-9.1-22C46.4,116.5,53.9,105.3,65.4,100.4
	L65.4,100.4z"/>
<path d="M114.7,173.1c0.5,0.4,1,0.7,1.6,0.7c0.6,0,1.2-0.2,1.6-0.7l9-9c0.9-0.9,0.9-2.4,0-3.3l-9-9c-0.9-0.9-2.4-0.9-3.3,0
	c-0.9,0.9-0.9,2.4,0,3.3l4.9,4.9l-16.5,0c-1.3,0-2.3,1-2.3,2.3s1,2.3,2.3,2.3h16.8l-5.1,5.1C113.8,170.7,113.8,172.2,114.7,173.1
	L114.7,173.1z"/>
<path d="M32.7,157.1h10.5v10.5l-10.5,0V157.1z M30.4,172.2h15.1c1.3,0,2.3-1,2.3-2.3v-5.2h29.7c16,0,29.9-10.6,34.3-25.8
	c5-0.6,9.1-4.2,10.4-9.3c0.3-1.2-0.5-2.5-1.7-2.8c-1.2-0.3-2.5,0.5-2.8,1.7c-0.8,3.4-3.9,5.9-7.5,5.9c-4.2,0-7.7-3.4-7.7-7.7
	c0-4.2,3.4-7.7,7.7-7.7c2,0,3.9,0.8,5.3,2.1l-3.7,3.7l-0.9-1.2c-0.7-1-2.2-1.3-3.2-0.5c-1,0.7-1.3,2.2-0.5,3.2l2.5,3.5
	c0.4,0.6,1,0.9,1.7,1c0.1,0,0.1,0,0.2,0c0.6,0,1.2-0.2,1.6-0.7l11.6-11.5c0.9-0.9,0.9-2.4,0-3.3c-0.9-0.9-2.4-0.9-3.3,0l-2.6,2.6
	c-2.3-2.2-5.3-3.5-8.5-3.5c0,0-0.1,0-0.1,0c-5.6-12.5-17.8-20.6-31.5-21l5-5c0.9-0.9,0.9-2.4,0-3.3c-0.9-0.9-2.4-0.9-3.3,0l-9,9
	c-0.9,0.9-0.9,2.4,0,3.3l9,9c0.5,0.4,1,0.7,1.6,0.7c0.6,0,1.2-0.2,1.6-0.7c0.9-0.9,0.9-2.4,0-3.3l-5-5c11.5,0.4,21.7,7.1,26.7,17.4
	c-4.4,1.9-7.5,6.2-7.5,11.3c0,5.7,3.9,10.5,9.1,11.9c-4.1,12.7-16,21.5-29.5,21.5l-29.7,0v-5.2c0-1.3-1-2.3-2.3-2.3H30.4
	c-1.3,0-2.3,1-2.3,2.3v15.1C28.1,171.2,29.1,172.2,30.4,172.2L30.4,172.2z"/>
<path d="M198.1,103.5c1.2-0.5,1.7-1.9,1.2-3c-0.5-1.2-1.9-1.7-3-1.2c-13.2,5.6-21.7,18.5-21.7,32.8c0,9.5,3.7,18.5,10.4,25.2
	c0.4,0.5,1,0.7,1.6,0.7c0.6,0,1.2-0.2,1.6-0.7c0.9-0.9,0.9-2.4,0-3.3c-5.9-5.9-9.1-13.7-9.1-22C179.1,119.6,186.6,108.4,198.1,103.5
	L198.1,103.5z"/>
<path d="M247.4,176.2c0.5,0.4,1,0.7,1.6,0.7c0.6,0,1.2-0.2,1.6-0.7l9-9c0.9-0.9,0.9-2.4,0-3.3l-9-9c-0.9-0.9-2.4-0.9-3.3,0
	c-0.9,0.9-0.9,2.4,0,3.3l4.9,4.9l-16.5,0c-1.3,0-2.3,1-2.3,2.3c0,1.3,1,2.3,2.3,2.3h16.8l-5.1,5.1
	C246.5,173.8,246.5,175.3,247.4,176.2L247.4,176.2z"/>
<path d="M165.4,160.2h10.5v10.5l-10.5,0V160.2z M163.1,175.3h15.1c1.3,0,2.3-1,2.3-2.3v-5.2h29.7c16,0,29.9-10.6,34.3-25.8
	c5-0.6,9.1-4.2,10.4-9.3c0.3-1.2-0.5-2.5-1.7-2.8c-1.2-0.3-2.5,0.5-2.8,1.7c-0.8,3.4-3.9,5.9-7.5,5.9c-4.2,0-7.7-3.4-7.7-7.7
	c0-4.2,3.4-7.7,7.7-7.7c2,0,3.9,0.8,5.3,2.1l-3.7,3.7l-0.9-1.2c-0.7-1-2.2-1.3-3.2-0.5c-1,0.7-1.3,2.2-0.5,3.2l2.5,3.5
	c0.4,0.6,1,0.9,1.7,1c0.1,0,0.1,0,0.2,0c0.6,0,1.2-0.2,1.6-0.7l11.6-11.5c0.9-0.9,0.9-2.4,0-3.3c-0.9-0.9-2.4-0.9-3.3,0l-2.6,2.6
	c-2.3-2.2-5.3-3.5-8.5-3.5c0,0-0.1,0-0.1,0c-5.6-12.5-17.8-20.6-31.5-21l5-5c0.9-0.9,0.9-2.4,0-3.3c-0.9-0.9-2.4-0.9-3.3,0l-9,9
	c-0.9,0.9-0.9,2.4,0,3.3l9,9c0.5,0.4,1,0.7,1.6,0.7c0.6,0,1.2-0.2,1.6-0.7c0.9-0.9,0.9-2.4,0-3.3l-5-5c11.5,0.4,21.7,7.1,26.7,17.4
	c-4.4,1.9-7.5,6.2-7.5,11.3c0,5.7,3.9,10.5,9.1,11.9c-4.1,12.7-16,21.5-29.5,21.5l-29.7,0v-5.2c0-1.3-1-2.3-2.3-2.3h-15.1
	c-1.3,0-2.3,1-2.3,2.3V173C160.8,174.3,161.8,175.3,163.1,175.3L163.1,175.3z"/>
<text transform="matrix(1 0 0 1 41.8117 204.5485)"><tspan x="0" y="0" font-family="'MyriadPro-Regular'" font-size="16">Software </tspan><tspan x="0" y="19.2" font-family="'MyriadPro-Regular'" font-size="16">development</tspan></text>
<g>
	<text transform="matrix(1 0 0 1 169.3225 204.1614)"><tspan x="0" y="0" font-family="'MyriadPro-Regular'" font-size="16">Documentation </tspan><tspan x="0" y="19.2" font-family="'MyriadPro-Regular'" font-size="16">development</tspan></text>
</g>
</svg>
