<?xml version="1.0" encoding="utf-8"?>
<!-- Generator: Adobe Illustrator 17.1.0, SVG Export Plug-In . SVG Version: 6.00 Build 0)  -->
<!DOCTYPE svg PUBLIC "-//W3C//DTD SVG 1.1//EN" "http://www.w3.org/Graphics/SVG/1.1/DTD/svg11.dtd">
<svg version="1.1" id="Layer_1" xmlns="http://www.w3.org/2000/svg" xmlns:xlink="http://www.w3.org/1999/xlink" x="0px" y="0px"
	 viewBox="0 0 708 465" enable-background="new 0 0 708 465" xml:space="preserve">
<text transform="matrix(1 0 0 1 99.4938 247.2914)"><tspan x="0" y="0" font-family="'ArialMT'" font-size="20">addition of </tspan><tspan x="0" y="24" font-family="'ArialMT'" font-size="20">new information</tspan><tspan x="0" y="48" font-family="'ArialMT'" font-size="20">into a larger whole</tspan></text>
<path d="M328.1,358.9l-70.7,70.7c-3,3-7.8,3-10.8,0c-3-3-3-7.8,0-10.8l70.7-70.7h-27.3c-4.2,0-7.6-3.4-7.6-7.6
	c0-4.2,3.4-7.6,7.6-7.6h45.6c4.2,0,7.6,3.4,7.6,7.6v45.6c0,4.2-3.4,7.6-7.6,7.6c-4.2,0-7.6-3.4-7.6-7.6L328.1,358.9z"/>
<g>
	<path d="M623.8,166.6c0-4.2,3.4-7.6,7.6-7.6s7.6,3.4,7.6,7.6v114.1c0,8.4-6.8,15.2-15.2,15.2H395.6c-8.4,0-15.2-6.8-15.2-15.2V52.6
		c0-8.4,6.8-15.2,15.2-15.2h114.1c4.2,0,7.6,3.4,7.6,7.6s-3.4,7.6-7.6,7.6l-114.1,0c0,0,0,228.1,0,228.1c0,0,228.1,0,228.1,0
		L623.8,166.6z"/>
	<path d="M623.8,166.9c0,4.2,3.4,7.6,7.6,7.6s7.6-3.4,7.6-7.6V52.6c0-8.4-6.8-15.3-15.2-15.3H395.6c-8.4,0-15.2,6.9-15.2,15.3v228.6
		c0,8.4,6.8,15.3,15.2,15.3h114.1c4.2,0,7.6-3.4,7.6-7.6s-3.4-7.6-7.6-7.6l-114.1,0c0,0,0-228.6,0-228.6c0,0,228.1,0,228.1,0
		L623.8,166.9z"/>
</g>
<rect x="348" y="228.5" fill="#FFFFFF" stroke="#F7941E" stroke-width="11.4474" stroke-linejoin="round" stroke-miterlimit="10" width="95.9" height="84"/>
<line fill="none" stroke="#000000" stroke-miterlimit="10" x1="334.4" y1="266.9" x2="253.4" y2="266.9"/>
</svg>
