<?xml version="1.0" encoding="utf-8"?>
<!-- Generator: Adobe Illustrator 17.1.0, SVG Export Plug-In . SVG Version: 6.00 Build 0)  -->
<!DOCTYPE svg PUBLIC "-//W3C//DTD SVG 1.1//EN" "http://www.w3.org/Graphics/SVG/1.1/DTD/svg11.dtd">
<svg version="1.1" id="Layer_1" xmlns="http://www.w3.org/2000/svg" xmlns:xlink="http://www.w3.org/1999/xlink" x="0px" y="0px"
	 viewBox="0 0 693 411.9" enable-background="new 0 0 693 411.9" xml:space="preserve">
<path d="M282.1,245.4L211.4,316c-3,3-7.8,3-10.8,0c-3-3-3-7.8,0-10.8l70.7-70.7H244c-4.2,0-7.6-3.4-7.6-7.6c0-4.2,3.4-7.6,7.6-7.6
	h45.6c4.2,0,7.6,3.4,7.6,7.6v45.6c0,4.2-3.4,7.6-7.6,7.6c-4.2,0-7.6-3.4-7.6-7.6L282.1,245.4z"/>
<circle fill="#F7941E" cx="320.1" cy="135.7" r="7.6"/>
<circle fill="#F7941E" cx="320.1" cy="105.3" r="7.6"/>
<path fill="#F7941E" d="M320.1,173.8c-4.2,0-7.6-3.4-7.6-7.6c0-4.2,3.4-7.6,7.6-7.6c4.2,0,7.6,3.4,7.6,7.6
	C327.7,170.4,324.3,173.8,320.1,173.8z"/>
<circle fill="#F7941E" cx="320.1" cy="196.6" r="7.6"/>
<circle fill="#F7941E" cx="411.4" cy="135.7" r="7.6"/>
<circle fill="#F7941E" cx="411.4" cy="105.3" r="7.6"/>
<path fill="#F7941E" d="M411.4,173.8c-4.2,0-7.6-3.4-7.6-7.6c0-4.2,3.4-7.6,7.6-7.6c4.2,0,7.6,3.4,7.6,7.6
	C419,170.4,415.6,173.8,411.4,173.8z"/>
<circle fill="#F7941E" cx="411.4" cy="196.6" r="7.6"/>
<circle fill="#F7941E" cx="380.9" cy="105.3" r="7.6"/>
<path fill="#F7941E" d="M350.5,112.9c-4.2,0-7.6-3.4-7.6-7.6s3.4-7.6,7.6-7.6c4.2,0,7.6,3.4,7.6,7.6S354.7,112.9,350.5,112.9z"/>
<circle fill="#F7941E" cx="380.9" cy="196.6" r="7.6"/>
<path fill="#F7941E" d="M350.5,204.2c-4.2,0-7.6-3.4-7.6-7.6c0-4.2,3.4-7.6,7.6-7.6c4.2,0,7.6,3.4,7.6,7.6
	C358.1,200.8,354.7,204.2,350.5,204.2z"/>
<path d="M403.8,227c0-4.2,3.4-7.6,7.6-7.6s7.6,3.4,7.6,7.6v114.1c0,8.4-6.8,15.2-15.2,15.2H175.6c-8.4,0-15.2-6.8-15.2-15.2V112.9
	c0-8.4,6.8-15.2,15.2-15.2h114.1c4.2,0,7.6,3.4,7.6,7.6s-3.4,7.6-7.6,7.6l-114.1,0c0,0,0,228.1,0,228.1c0,0,228.1,0,228.1,0
	L403.8,227z"/>
<line fill="none" stroke="#000000" stroke-miterlimit="10" x1="516" y1="116.6" x2="435" y2="116.6"/>
<text transform="matrix(1 0 0 1 529.9735 89.5983)"><tspan x="0" y="0" font-family="'ArialMT'" font-size="20">distillation</tspan><tspan x="0" y="24" font-family="'ArialMT'" font-size="20">of information</tspan><tspan x="0" y="48" font-family="'ArialMT'" font-size="20">from a larger</tspan><tspan x="0" y="72" font-family="'ArialMT'" font-size="20">whole</tspan></text>
</svg>
