<?xml version="1.0" encoding="utf-8"?>
<!-- Generator: Adobe Illustrator 17.1.0, SVG Export Plug-In . SVG Version: 6.00 Build 0)  -->
<!DOCTYPE svg PUBLIC "-//W3C//DTD SVG 1.1//EN" "http://www.w3.org/Graphics/SVG/1.1/DTD/svg11.dtd">
<svg version="1.1" id="Layer_1" xmlns="http://www.w3.org/2000/svg" xmlns:xlink="http://www.w3.org/1999/xlink" x="0px" y="0px"
	 viewBox="0 0 600 400" enable-background="new 0 0 600 400" xml:space="preserve">
<rect x="134.3" y="281.7" width="336.8" height="67.6"/>
<rect x="470.8" y="83.4" width="129.2" height="266"/>
<rect x="0" y="83.4" width="146.9" height="266"/>
<polygon points="328.1,83.6 353.4,137.8 378.9,126.2 471,281.8 471,83.6 "/>
<polygon points="334.9,281.8 297,128.4 320.4,146.5 384.2,281.8 "/>
<polygon points="363.3,157.9 389.2,213.9 385.4,168.7 "/>
<polygon fill="#FBB040" points="327.8,83.6 297.5,18.2 278.3,52.9 260.4,45.7 242.5,83.6 "/>
<polygon points="290.6,181.4 269.5,192.5 256.7,112.3 223.2,225.3 248.5,281.7 313.2,281.7 "/>
<polygon points="242.5,83.6 145,83.6 145,281.8 196.7,281.8 182,206.5 "/>
<path fill="#FFFFFF" stroke="#000000" stroke-miterlimit="10" d="M543.9,332.8l-1.1-1.1l5.5-5.5l-5.5-5.5l1.1-1.1l6.6,6.6
	L543.9,332.8z M538.1,332.5l-1.5-0.5l3.8-12.2l1.5,0.5L538.1,332.5z M535.6,331.7l-1.1,1.1l-6.6-6.6l6.6-6.6l1.1,1.1l-5.5,5.5
	L535.6,331.7z M562.2,335.3h-1.6v-19.5c0-0.7-0.6-1.2-1.2-1.2l-40.3,0c-0.7,0-1.2,0.6-1.2,1.2v19.5l-20.5,0v2.4h83.8v-2.4H562.2z"/>
<path fill="#FFFFFF" stroke="#000000" stroke-miterlimit="10" d="M524,313h30.7c-0.6-7.3-10-7.6-10.4-7.6l-0.5,0l-2.1-4.4
	c-0.7,0.2-1.5,0.3-2.3,0.3c-0.8,0-1.6-0.1-2.3-0.3l-2.1,4.4l-0.5,0C534,305.4,524.6,305.8,524,313L524,313z"/>
<path fill="#FFFFFF" stroke="#000000" stroke-miterlimit="10" d="M539.4,299.8c3.4,0,6.1-2.4,6.8-5.6c0.1-0.4,0.1-0.9,0.1-1.3
	c0-0.1,0-0.1,0-0.2c-0.1-3.7-3.2-6.7-6.9-6.7c-3.7,0-6.8,3-6.9,6.7c0,0.1,0,0.1,0,0.2c0,0.5,0,0.9,0.1,1.3
	C533.2,297.4,536,299.8,539.4,299.8L539.4,299.8z"/>
<polygon fill="#FFFFFF" stroke="#000000" stroke-miterlimit="10" points="497.1,277.4 511.1,263.4 497.1,249.4 496,250.5 
	508.9,263.4 496,276.3 "/>
<rect x="518.6" y="255.8" fill="#FFFFFF" stroke="#000000" stroke-miterlimit="10" width="12.1" height="1.6"/>
<rect x="538.2" y="255.8" fill="#FFFFFF" stroke="#000000" stroke-miterlimit="10" width="18" height="1.6"/>
<rect x="565.9" y="255.8" fill="#FFFFFF" stroke="#000000" stroke-miterlimit="10" width="3.2" height="1.6"/>
<rect x="584.8" y="247.6" fill="#FFFFFF" stroke="#000000" stroke-miterlimit="10" width="3.9" height="1.6"/>
<rect x="569.8" y="262.6" fill="#FFFFFF" stroke="#000000" stroke-miterlimit="10" width="12.1" height="1.6"/>
<rect x="544.3" y="262.6" fill="#FFFFFF" stroke="#000000" stroke-miterlimit="10" width="18" height="1.6"/>
<rect x="531.4" y="262.6" fill="#FFFFFF" stroke="#000000" stroke-miterlimit="10" width="3.2" height="1.6"/>
<rect x="518.6" y="262.6" fill="#FFFFFF" stroke="#000000" stroke-miterlimit="10" width="3.9" height="1.6"/>
<rect x="518.6" y="269.5" fill="#FFFFFF" stroke="#000000" stroke-miterlimit="10" width="12.1" height="1.6"/>
<rect x="538.2" y="269.5" fill="#FFFFFF" stroke="#000000" stroke-miterlimit="10" width="18" height="1.6"/>
<rect x="565.9" y="269.5" fill="#FFFFFF" stroke="#000000" stroke-miterlimit="10" width="3.2" height="1.6"/>
<rect x="584.8" y="261.3" fill="#FFFFFF" stroke="#000000" stroke-miterlimit="10" width="3.9" height="1.6"/>
<rect x="496.5" y="283.4" fill="#FFFFFF" stroke="#000000" stroke-miterlimit="10" width="16.3" height="1.6"/>
<rect x="560.3" y="283.4" fill="#FFFFFF" stroke="#000000" stroke-miterlimit="10" width="4.3" height="1.6"/>
<rect x="583.4" y="275.2" fill="#FFFFFF" stroke="#000000" stroke-miterlimit="10" width="5.3" height="1.6"/>
<rect x="565.6" y="292.7" fill="#FFFFFF" stroke="#000000" stroke-miterlimit="10" width="16.3" height="1.6"/>
<rect x="513.9" y="292.7" fill="#FFFFFF" stroke="#000000" stroke-miterlimit="10" width="4.3" height="1.6"/>
<rect x="496.5" y="292.7" fill="#FFFFFF" stroke="#000000" stroke-miterlimit="10" width="5.3" height="1.6"/>
<rect x="496.5" y="301.9" fill="#FFFFFF" stroke="#000000" stroke-miterlimit="10" width="16.3" height="1.6"/>
<rect x="560.3" y="301.9" fill="#FFFFFF" stroke="#000000" stroke-miterlimit="10" width="4.3" height="1.6"/>
<rect x="583.4" y="293.7" fill="#FFFFFF" stroke="#000000" stroke-miterlimit="10" width="5.3" height="1.6"/>
<path fill="#FFFFFF" stroke="#000000" stroke-miterlimit="10" d="M75.1,327.5l-1.1-1.1l5.5-5.5l-5.5-5.5l1.1-1.1l6.6,6.6L75.1,327.5
	z M69.2,327.2l-1.5-0.5l3.8-12.2L73,315L69.2,327.2z M66.8,326.4l-1.1,1.1l-6.6-6.6l6.6-6.6l1.1,1.1l-5.5,5.5L66.8,326.4z M93.3,330
	h-1.6v-19.5c0-0.7-0.6-1.2-1.2-1.2l-40.3,0c-0.7,0-1.2,0.6-1.2,1.2V330l-20.5,0v2.4h83.8V330H93.3z"/>
<path fill="#FFFFFF" stroke="#000000" stroke-miterlimit="10" d="M55.1,307.7h30.7c-0.6-7.3-10-7.6-10.4-7.6l-0.5,0l-2.1-4.4
	c-0.7,0.2-1.5,0.3-2.3,0.3c-0.8,0-1.6-0.1-2.3-0.3l-2.1,4.4l-0.5,0C65.2,300.2,55.8,300.5,55.1,307.7L55.1,307.7z"/>
<path fill="#FFFFFF" stroke="#000000" stroke-miterlimit="10" d="M70.5,294.5c3.4,0,6.1-2.4,6.8-5.6c0.1-0.4,0.1-0.9,0.1-1.3
	c0-0.1,0-0.1,0-0.2c-0.1-3.7-3.2-6.7-6.9-6.7c-3.7,0-6.8,3-6.9,6.7c0,0.1,0,0.1,0,0.2c0,0.5,0,0.9,0.1,1.3
	C64.3,292.2,67.1,294.5,70.5,294.5L70.5,294.5z"/>
<polygon fill="#FFFFFF" stroke="#000000" stroke-miterlimit="10" points="28.2,272.2 42.2,258.2 28.2,244.2 27.1,245.3 40,258.2 
	27.1,271.1 "/>
<rect x="49.7" y="250.5" fill="#FFFFFF" stroke="#000000" stroke-miterlimit="10" width="12.1" height="1.6"/>
<rect x="69.3" y="250.5" fill="#FFFFFF" stroke="#000000" stroke-miterlimit="10" width="18" height="1.6"/>
<rect x="97" y="250.5" fill="#FFFFFF" stroke="#000000" stroke-miterlimit="10" width="3.2" height="1.6"/>
<rect x="109.1" y="250.5" fill="#FFFFFF" stroke="#000000" stroke-miterlimit="10" width="3.9" height="1.6"/>
<rect x="101" y="257.4" fill="#FFFFFF" stroke="#000000" stroke-miterlimit="10" width="12.1" height="1.6"/>
<rect x="75.4" y="257.4" fill="#FFFFFF" stroke="#000000" stroke-miterlimit="10" width="18" height="1.6"/>
<rect x="62.6" y="257.4" fill="#FFFFFF" stroke="#000000" stroke-miterlimit="10" width="3.2" height="1.6"/>
<rect x="49.7" y="257.4" fill="#FFFFFF" stroke="#000000" stroke-miterlimit="10" width="3.9" height="1.6"/>
<rect x="49.7" y="264.2" fill="#FFFFFF" stroke="#000000" stroke-miterlimit="10" width="12.1" height="1.6"/>
<rect x="69.3" y="264.2" fill="#FFFFFF" stroke="#000000" stroke-miterlimit="10" width="18" height="1.6"/>
<rect x="97" y="264.2" fill="#FFFFFF" stroke="#000000" stroke-miterlimit="10" width="3.2" height="1.6"/>
<rect x="109.1" y="264.2" fill="#FFFFFF" stroke="#000000" stroke-miterlimit="10" width="3.9" height="1.6"/>
<rect x="27.7" y="278.2" fill="#FFFFFF" stroke="#000000" stroke-miterlimit="10" width="16.3" height="1.6"/>
<rect x="91.4" y="278.2" fill="#FFFFFF" stroke="#000000" stroke-miterlimit="10" width="4.3" height="1.6"/>
<rect x="107.8" y="278.2" fill="#FFFFFF" stroke="#000000" stroke-miterlimit="10" width="5.3" height="1.6"/>
<rect x="96.8" y="287.4" fill="#FFFFFF" stroke="#000000" stroke-miterlimit="10" width="16.3" height="1.6"/>
<rect x="45" y="287.4" fill="#FFFFFF" stroke="#000000" stroke-miterlimit="10" width="4.3" height="1.6"/>
<rect x="27.7" y="287.4" fill="#FFFFFF" stroke="#000000" stroke-miterlimit="10" width="5.3" height="1.6"/>
<rect x="27.7" y="296.6" fill="#FFFFFF" stroke="#000000" stroke-miterlimit="10" width="16.3" height="1.6"/>
<rect x="91.4" y="296.6" fill="#FFFFFF" stroke="#000000" stroke-miterlimit="10" width="4.3" height="1.6"/>
<rect x="107.8" y="296.6" fill="#FFFFFF" stroke="#000000" stroke-miterlimit="10" width="5.3" height="1.6"/>
<g>
	<rect x="180.6" y="335.5" fill="#FFFFFF" stroke="#000000" stroke-miterlimit="10" width="8.4" height="2.2"/>
	<rect x="197.4" y="335.5" fill="#FFFFFF" stroke="#000000" stroke-miterlimit="10" width="8.4" height="2.2"/>
	<rect x="146.9" y="335.5" fill="#FFFFFF" stroke="#000000" stroke-miterlimit="10" width="25.2" height="2.2"/>
	<rect x="163.7" y="330.2" fill="#FFFFFF" stroke="#000000" stroke-miterlimit="10" width="16.8" height="2.2"/>
	<rect x="189" y="330.2" fill="#FFFFFF" stroke="#000000" stroke-miterlimit="10" width="8.4" height="2.2"/>
	<rect x="146.9" y="324.9" fill="#FFFFFF" stroke="#000000" stroke-miterlimit="10" width="8.4" height="2.2"/>
	<rect x="163.7" y="324.9" fill="#FFFFFF" stroke="#000000" stroke-miterlimit="10" width="8.4" height="2.2"/>
	<rect x="180.6" y="324.9" fill="#FFFFFF" stroke="#000000" stroke-miterlimit="10" width="8.4" height="2.2"/>
	<rect x="197.4" y="324.9" fill="#FFFFFF" stroke="#000000" stroke-miterlimit="10" width="8.4" height="2.2"/>
	<polygon fill="#FFFFFF" stroke="#000000" stroke-miterlimit="10" points="151.6,305.5 168,297.1 168,299.5 154.2,306.5 
		154.2,306.5 168,313.4 168,315.9 151.6,307.4 151.6,305.5 	"/>
	<polygon fill="#FFFFFF" stroke="#000000" stroke-miterlimit="10" points="170.3,317.3 180.1,291.7 182.5,291.7 172.6,317.3 	"/>
	<polygon fill="#FFFFFF" stroke="#000000" stroke-miterlimit="10" points="201.1,307.5 184.7,315.9 184.7,313.4 198.6,306.5 
		198.6,306.5 184.7,299.6 184.7,297.1 201.1,305.5 	"/>
</g>
<g>
	<rect x="264.9" y="335.5" fill="#FFFFFF" stroke="#000000" stroke-miterlimit="10" width="8.4" height="2.2"/>
	<rect x="281.7" y="335.5" fill="#FFFFFF" stroke="#000000" stroke-miterlimit="10" width="8.4" height="2.2"/>
	<rect x="231.3" y="335.5" fill="#FFFFFF" stroke="#000000" stroke-miterlimit="10" width="25.2" height="2.2"/>
	<rect x="248.1" y="330.2" fill="#FFFFFF" stroke="#000000" stroke-miterlimit="10" width="16.8" height="2.2"/>
	<rect x="273.3" y="330.2" fill="#FFFFFF" stroke="#000000" stroke-miterlimit="10" width="8.4" height="2.2"/>
	<rect x="231.3" y="324.9" fill="#FFFFFF" stroke="#000000" stroke-miterlimit="10" width="8.4" height="2.2"/>
	<rect x="248.1" y="324.9" fill="#FFFFFF" stroke="#000000" stroke-miterlimit="10" width="8.4" height="2.2"/>
	<rect x="264.9" y="324.9" fill="#FFFFFF" stroke="#000000" stroke-miterlimit="10" width="8.4" height="2.2"/>
	<rect x="281.7" y="324.9" fill="#FFFFFF" stroke="#000000" stroke-miterlimit="10" width="8.4" height="2.2"/>
	<polygon fill="#FFFFFF" stroke="#000000" stroke-miterlimit="10" points="236,305.5 252.4,297.1 252.4,299.5 238.6,306.5 
		238.6,306.5 252.4,313.4 252.4,315.9 236,307.4 236,305.5 	"/>
	<polygon fill="#FFFFFF" stroke="#000000" stroke-miterlimit="10" points="254.7,317.3 264.5,291.7 266.9,291.7 257,317.3 	"/>
	<polygon fill="#FFFFFF" stroke="#000000" stroke-miterlimit="10" points="285.4,307.5 269.1,315.9 269.1,313.4 283,306.5 
		283,306.5 269.1,299.6 269.1,297.1 285.4,305.5 	"/>
</g>
<g>
	<rect x="349.3" y="335.5" fill="#FFFFFF" stroke="#000000" stroke-miterlimit="10" width="8.4" height="2.2"/>
	<rect x="366.1" y="335.5" fill="#FFFFFF" stroke="#000000" stroke-miterlimit="10" width="8.4" height="2.2"/>
	<rect x="315.7" y="335.5" fill="#FFFFFF" stroke="#000000" stroke-miterlimit="10" width="25.2" height="2.2"/>
	<rect x="332.5" y="330.2" fill="#FFFFFF" stroke="#000000" stroke-miterlimit="10" width="16.8" height="2.2"/>
	<rect x="357.7" y="330.2" fill="#FFFFFF" stroke="#000000" stroke-miterlimit="10" width="8.4" height="2.2"/>
	<rect x="315.7" y="324.9" fill="#FFFFFF" stroke="#000000" stroke-miterlimit="10" width="8.4" height="2.2"/>
	<rect x="332.5" y="324.9" fill="#FFFFFF" stroke="#000000" stroke-miterlimit="10" width="8.4" height="2.2"/>
	<rect x="349.3" y="324.9" fill="#FFFFFF" stroke="#000000" stroke-miterlimit="10" width="8.4" height="2.2"/>
	<rect x="366.1" y="324.9" fill="#FFFFFF" stroke="#000000" stroke-miterlimit="10" width="8.4" height="2.2"/>
	<polygon fill="#FFFFFF" stroke="#000000" stroke-miterlimit="10" points="320.4,305.5 336.7,297.1 336.7,299.5 323,306.5 
		323,306.5 336.7,313.4 336.7,315.9 320.4,307.4 320.4,305.5 	"/>
	<polygon fill="#FFFFFF" stroke="#000000" stroke-miterlimit="10" points="339,317.3 348.9,291.7 351.3,291.7 341.4,317.3 	"/>
	<polygon fill="#FFFFFF" stroke="#000000" stroke-miterlimit="10" points="369.8,307.5 353.5,315.9 353.5,313.4 367.4,306.5 
		367.4,306.5 353.5,299.6 353.5,297.1 369.8,305.5 	"/>
</g>
<g>
	<rect x="433.7" y="335.5" fill="#FFFFFF" stroke="#000000" stroke-miterlimit="10" width="8.4" height="2.2"/>
	<rect x="450.5" y="335.5" fill="#FFFFFF" stroke="#000000" stroke-miterlimit="10" width="8.4" height="2.2"/>
	<rect x="400" y="335.5" fill="#FFFFFF" stroke="#000000" stroke-miterlimit="10" width="25.2" height="2.2"/>
	<rect x="416.9" y="330.2" fill="#FFFFFF" stroke="#000000" stroke-miterlimit="10" width="16.8" height="2.2"/>
	<rect x="442.1" y="330.2" fill="#FFFFFF" stroke="#000000" stroke-miterlimit="10" width="8.4" height="2.2"/>
	<rect x="400" y="324.9" fill="#FFFFFF" stroke="#000000" stroke-miterlimit="10" width="8.4" height="2.2"/>
	<rect x="416.9" y="324.9" fill="#FFFFFF" stroke="#000000" stroke-miterlimit="10" width="8.4" height="2.2"/>
	<rect x="433.7" y="324.9" fill="#FFFFFF" stroke="#000000" stroke-miterlimit="10" width="8.4" height="2.2"/>
	<rect x="450.5" y="324.9" fill="#FFFFFF" stroke="#000000" stroke-miterlimit="10" width="8.4" height="2.2"/>
	<polygon fill="#FFFFFF" stroke="#000000" stroke-miterlimit="10" points="404.8,305.5 421.1,297.1 421.1,299.5 407.3,306.5 
		407.3,306.5 421.1,313.4 421.1,315.9 404.8,307.4 404.8,305.5 	"/>
	<polygon fill="#FFFFFF" stroke="#000000" stroke-miterlimit="10" points="423.4,317.3 433.2,291.7 435.6,291.7 425.8,317.3 	"/>
	<polygon fill="#FFFFFF" stroke="#000000" stroke-miterlimit="10" points="454.2,307.5 437.8,315.9 437.8,313.4 451.7,306.5 
		451.7,306.5 437.8,299.6 437.8,297.1 454.2,305.5 	"/>
</g>
<path fill="#FFFFFF" stroke="#000000" stroke-miterlimit="10" d="M545.9,212.7l-1.1-1.1l5.5-5.5l-5.5-5.5l1.1-1.1l6.6,6.6
	L545.9,212.7z M540.1,212.4l-1.5-0.5l3.8-12.2l1.5,0.5L540.1,212.4z M537.6,211.6l-1.1,1.1l-6.6-6.6l6.6-6.6l1.1,1.1l-5.5,5.5
	L537.6,211.6z M564.2,215.2h-1.6v-19.5c0-0.7-0.6-1.2-1.2-1.2l-40.3,0c-0.7,0-1.2,0.6-1.2,1.2v19.5l-20.5,0v2.4h83.8v-2.4H564.2z"/>
<path fill="#FFFFFF" stroke="#000000" stroke-miterlimit="10" d="M526,192.9h30.7c-0.6-7.3-10-7.6-10.4-7.6l-0.5,0l-2.1-4.4
	c-0.7,0.2-1.5,0.3-2.3,0.3c-0.8,0-1.6-0.1-2.3-0.3l-2.1,4.4l-0.5,0C536,185.3,526.6,185.7,526,192.9L526,192.9z"/>
<path fill="#FFFFFF" stroke="#000000" stroke-miterlimit="10" d="M541.3,179.7c3.4,0,6.1-2.4,6.8-5.6c0.1-0.4,0.1-0.9,0.1-1.3
	c0-0.1,0-0.1,0-0.2c-0.1-3.7-3.2-6.7-6.9-6.7c-3.7,0-6.8,3-6.9,6.7c0,0.1,0,0.1,0,0.2c0,0.5,0,0.9,0.1,1.3
	C535.2,177.3,538,179.7,541.3,179.7L541.3,179.7z"/>
<polygon fill="#FFFFFF" stroke="#000000" stroke-miterlimit="10" points="499.1,157.4 513.1,143.3 499.1,129.3 498,130.4 
	510.9,143.3 498,156.3 "/>
<rect x="520.5" y="135.7" fill="#FFFFFF" stroke="#000000" stroke-miterlimit="10" width="12.1" height="1.6"/>
<rect x="540.1" y="135.7" fill="#FFFFFF" stroke="#000000" stroke-miterlimit="10" width="18" height="1.6"/>
<rect x="567.8" y="135.7" fill="#FFFFFF" stroke="#000000" stroke-miterlimit="10" width="3.2" height="1.6"/>
<rect x="586.7" y="177.5" fill="#FFFFFF" stroke="#000000" stroke-miterlimit="10" width="3.9" height="1.6"/>
<rect x="571.8" y="142.6" fill="#FFFFFF" stroke="#000000" stroke-miterlimit="10" width="12.1" height="1.6"/>
<rect x="546.3" y="142.6" fill="#FFFFFF" stroke="#000000" stroke-miterlimit="10" width="18" height="1.6"/>
<rect x="533.4" y="142.6" fill="#FFFFFF" stroke="#000000" stroke-miterlimit="10" width="3.2" height="1.6"/>
<rect x="520.5" y="142.6" fill="#FFFFFF" stroke="#000000" stroke-miterlimit="10" width="3.9" height="1.6"/>
<rect x="520.5" y="149.4" fill="#FFFFFF" stroke="#000000" stroke-miterlimit="10" width="12.1" height="1.6"/>
<rect x="540.1" y="149.4" fill="#FFFFFF" stroke="#000000" stroke-miterlimit="10" width="18" height="1.6"/>
<rect x="567.8" y="149.4" fill="#FFFFFF" stroke="#000000" stroke-miterlimit="10" width="3.2" height="1.6"/>
<rect x="586.7" y="191.2" fill="#FFFFFF" stroke="#000000" stroke-miterlimit="10" width="3.9" height="1.6"/>
<rect x="498.5" y="163.4" fill="#FFFFFF" stroke="#000000" stroke-miterlimit="10" width="16.3" height="1.6"/>
<rect x="562.3" y="163.4" fill="#FFFFFF" stroke="#000000" stroke-miterlimit="10" width="4.3" height="1.6"/>
<rect x="585.4" y="155.1" fill="#FFFFFF" stroke="#000000" stroke-miterlimit="10" width="5.3" height="1.6"/>
<rect x="567.6" y="172.6" fill="#FFFFFF" stroke="#000000" stroke-miterlimit="10" width="16.3" height="1.6"/>
<rect x="515.9" y="172.6" fill="#FFFFFF" stroke="#000000" stroke-miterlimit="10" width="4.3" height="1.6"/>
<rect x="498.5" y="172.6" fill="#FFFFFF" stroke="#000000" stroke-miterlimit="10" width="5.3" height="1.6"/>
<rect x="498.5" y="181.8" fill="#FFFFFF" stroke="#000000" stroke-miterlimit="10" width="16.3" height="1.6"/>
<rect x="562.3" y="181.8" fill="#FFFFFF" stroke="#000000" stroke-miterlimit="10" width="4.3" height="1.6"/>
<rect x="585.4" y="173.6" fill="#FFFFFF" stroke="#000000" stroke-miterlimit="10" width="5.3" height="1.6"/>
<path fill="#FFFFFF" stroke="#000000" stroke-miterlimit="10" d="M67.3,200.8l-1.1-1.1l5.5-5.5l-5.5-5.5l1.1-1.1l6.6,6.6L67.3,200.8
	z M61.5,200.5L60,200l3.8-12.2l1.5,0.5L61.5,200.5z M59,199.7l-1.1,1.1l-6.6-6.6l6.6-6.6l1.1,1.1l-5.5,5.5L59,199.7z M85.6,203.3H84
	v-19.5c0-0.7-0.6-1.2-1.2-1.2l-40.3,0c-0.7,0-1.2,0.6-1.2,1.2v19.5l-20.5,0v2.4h83.8v-2.4H85.6z"/>
<path fill="#FFFFFF" stroke="#000000" stroke-miterlimit="10" d="M47.4,181h30.7c-0.6-7.3-10-7.6-10.4-7.6l-0.5,0l-2.1-4.4
	c-0.7,0.2-1.5,0.3-2.3,0.3c-0.8,0-1.6-0.1-2.3-0.3l-2.1,4.4l-0.5,0C57.4,173.5,48,173.8,47.4,181L47.4,181z"/>
<path fill="#FFFFFF" stroke="#000000" stroke-miterlimit="10" d="M62.8,167.8c3.4,0,6.1-2.4,6.8-5.6c0.1-0.4,0.1-0.9,0.1-1.3
	c0-0.1,0-0.1,0-0.2c-0.1-3.7-3.2-6.7-6.9-6.7c-3.7,0-6.8,3-6.9,6.7c0,0.1,0,0.1,0,0.2c0,0.5,0,0.9,0.1,1.3
	C56.6,165.4,59.4,167.8,62.8,167.8L62.8,167.8z"/>
<polygon fill="#FFFFFF" stroke="#000000" stroke-miterlimit="10" points="20.5,145.5 34.5,131.5 20.5,117.4 19.4,118.6 32.3,131.5 
	19.4,144.4 "/>
<rect x="42" y="123.8" fill="#FFFFFF" stroke="#000000" stroke-miterlimit="10" width="12.1" height="1.6"/>
<rect x="61.6" y="123.8" fill="#FFFFFF" stroke="#000000" stroke-miterlimit="10" width="18" height="1.6"/>
<rect x="89.3" y="123.8" fill="#FFFFFF" stroke="#000000" stroke-miterlimit="10" width="3.2" height="1.6"/>
<rect x="108.2" y="115.6" fill="#FFFFFF" stroke="#000000" stroke-miterlimit="10" width="3.9" height="1.6"/>
<rect x="93.2" y="130.7" fill="#FFFFFF" stroke="#000000" stroke-miterlimit="10" width="12.1" height="1.6"/>
<rect x="67.7" y="130.7" fill="#FFFFFF" stroke="#000000" stroke-miterlimit="10" width="18" height="1.6"/>
<rect x="54.8" y="130.7" fill="#FFFFFF" stroke="#000000" stroke-miterlimit="10" width="3.2" height="1.6"/>
<rect x="42" y="130.7" fill="#FFFFFF" stroke="#000000" stroke-miterlimit="10" width="3.9" height="1.6"/>
<rect x="42" y="137.5" fill="#FFFFFF" stroke="#000000" stroke-miterlimit="10" width="12.1" height="1.6"/>
<rect x="61.6" y="137.5" fill="#FFFFFF" stroke="#000000" stroke-miterlimit="10" width="18" height="1.6"/>
<rect x="89.3" y="137.5" fill="#FFFFFF" stroke="#000000" stroke-miterlimit="10" width="3.2" height="1.6"/>
<rect x="108.2" y="129.3" fill="#FFFFFF" stroke="#000000" stroke-miterlimit="10" width="3.9" height="1.6"/>
<rect x="19.9" y="151.5" fill="#FFFFFF" stroke="#000000" stroke-miterlimit="10" width="16.3" height="1.6"/>
<rect x="83.7" y="151.5" fill="#FFFFFF" stroke="#000000" stroke-miterlimit="10" width="4.3" height="1.6"/>
<rect x="106.8" y="143.2" fill="#FFFFFF" stroke="#000000" stroke-miterlimit="10" width="5.3" height="1.6"/>
<rect x="89" y="160.7" fill="#FFFFFF" stroke="#000000" stroke-miterlimit="10" width="16.3" height="1.6"/>
<rect x="37.3" y="160.7" fill="#FFFFFF" stroke="#000000" stroke-miterlimit="10" width="4.3" height="1.6"/>
<rect x="19.9" y="160.7" fill="#FFFFFF" stroke="#000000" stroke-miterlimit="10" width="5.3" height="1.6"/>
<rect x="19.9" y="169.9" fill="#FFFFFF" stroke="#000000" stroke-miterlimit="10" width="16.3" height="1.6"/>
<rect x="83.7" y="169.9" fill="#FFFFFF" stroke="#000000" stroke-miterlimit="10" width="4.3" height="1.6"/>
<rect x="106.8" y="161.7" fill="#FFFFFF" stroke="#000000" stroke-miterlimit="10" width="5.3" height="1.6"/>
<text transform="matrix(1 0 0 1 404.7537 26.4698)"><tspan x="0" y="0" font-family="'MyriadPro-Regular'" font-size="18">Simple on the surface</tspan><tspan x="0" y="21.6" font-family="'MyriadPro-Regular'" font-size="18">to end-users</tspan></text>
<text transform="matrix(1 0 0 1 85.7008 382.9158)" font-family="'MyriadPro-Regular'" font-size="18">Complex underneath with lots of development work and code</text>
<line fill="none" stroke="#000000" stroke-miterlimit="10" x1="308.6" y1="33.7" x2="396.3" y2="33.7"/>
<rect x="437.2" y="152.6" fill="#FDFDFE" stroke="#000000" stroke-width="0.4925" stroke-miterlimit="10" width="7" height="1.8"/>
<rect x="451.3" y="152.6" fill="#FDFDFE" stroke="#000000" stroke-width="0.4925" stroke-miterlimit="10" width="7" height="1.8"/>
<rect x="409" y="152.6" fill="#FDFDFE" stroke="#000000" stroke-width="0.4925" stroke-miterlimit="10" width="21.1" height="1.8"/>
<rect x="423.1" y="148.2" fill="#FDFDFE" stroke="#000000" stroke-width="0.4925" stroke-miterlimit="10" width="14.1" height="1.8"/>
<rect x="444.2" y="148.2" fill="#FDFDFE" stroke="#000000" stroke-width="0.4925" stroke-miterlimit="10" width="7" height="1.8"/>
<rect x="409" y="143.8" fill="#FDFDFE" stroke="#000000" stroke-width="0.4925" stroke-miterlimit="10" width="7" height="1.8"/>
<rect x="423.1" y="143.8" fill="#FDFDFE" stroke="#000000" stroke-width="0.4925" stroke-miterlimit="10" width="7" height="1.8"/>
<rect x="446.8" y="143.7" fill="#FDFDFE" stroke="#000000" stroke-width="0.664" stroke-miterlimit="10" width="9.5" height="2.4"/>
<rect x="451.3" y="143.8" fill="#FDFDFE" stroke="#000000" stroke-width="0.4925" stroke-miterlimit="10" width="7" height="1.8"/>
<polygon fill="#FDFDFE" stroke="#000000" stroke-width="0.4925" stroke-miterlimit="10" points="413,127.6 426.7,120.6 426.7,122.6 
	415.1,128.4 415.1,128.4 426.7,134.2 426.7,136.3 413,129.2 413,127.6 "/>
<polygon fill="#FDFDFE" stroke="#000000" stroke-width="0.4925" stroke-miterlimit="10" points="428.6,137.4 436.8,116.1 
	438.8,116.1 430.6,137.4 "/>
<polygon fill="#FDFDFE" stroke="#000000" stroke-width="0.4925" stroke-miterlimit="10" points="454.4,129.2 440.7,136.3 
	440.7,134.2 452.3,128.4 452.3,128.4 440.7,122.6 440.7,120.6 454.4,127.6 "/>
<rect x="183.3" y="152.4" fill="#FDFDFE" stroke="#000000" stroke-width="0.5156" stroke-miterlimit="10" width="7.4" height="1.9"/>
<rect x="198" y="152.4" fill="#FDFDFE" stroke="#000000" stroke-width="0.5156" stroke-miterlimit="10" width="7.4" height="1.9"/>
<rect x="153.8" y="152.4" fill="#FDFDFE" stroke="#000000" stroke-width="0.5156" stroke-miterlimit="10" width="22.1" height="1.9"/>
<rect x="168.5" y="147.8" fill="#FDFDFE" stroke="#000000" stroke-width="0.5156" stroke-miterlimit="10" width="14.7" height="1.9"/>
<rect x="190.6" y="147.8" fill="#FDFDFE" stroke="#000000" stroke-width="0.5156" stroke-miterlimit="10" width="7.4" height="1.9"/>
<rect x="153.8" y="143.1" fill="#FDFDFE" stroke="#000000" stroke-width="0.5156" stroke-miterlimit="10" width="7.4" height="1.9"/>
<rect x="168.5" y="143.1" fill="#FDFDFE" stroke="#000000" stroke-width="0.5156" stroke-miterlimit="10" width="7.4" height="1.9"/>
<rect x="183.3" y="143.1" fill="#FDFDFE" stroke="#000000" stroke-width="0.5156" stroke-miterlimit="10" width="7.4" height="1.9"/>
<rect x="198" y="143.1" fill="#FDFDFE" stroke="#000000" stroke-width="0.5156" stroke-miterlimit="10" width="7.4" height="1.9"/>
<polygon fill="#FDFDFE" stroke="#000000" stroke-width="0.5156" stroke-miterlimit="10" points="157.9,126.2 172.2,118.8 172.2,121 
	160.2,127 160.2,127.1 172.2,133.1 172.2,135.3 157.9,127.9 157.9,126.2 "/>
<polygon fill="#FDFDFE" stroke="#000000" stroke-width="0.5156" stroke-miterlimit="10" points="174.2,136.5 182.9,114.1 185,114.1 
	176.3,136.5 "/>
<polygon fill="#FDFDFE" stroke="#000000" stroke-width="0.5156" stroke-miterlimit="10" points="201.2,127.9 186.9,135.3 
	186.9,133.1 199.1,127.1 199.1,127 186.9,121 186.9,118.8 201.2,126.2 "/>
<path fill="#F7F5F5" stroke="#000000" stroke-width="0.5945" stroke-miterlimit="10" d="M127.9,206.2l-11.3,11.4l11.3,11.4
	c1,1,2.7,1,3.7,0c1-1,1-2.7,0-3.8l-7.1-7.2l-2.2,1.4l9.3-9.4c0.5-0.5,0.8-1.2,0.8-1.9c0-0.7-0.3-1.4-0.8-1.9
	C130.6,205.2,129,205.2,127.9,206.2L127.9,206.2z"/>
<path fill="#F7F5F5" stroke="#000000" stroke-width="0.5945" stroke-miterlimit="10" d="M158.9,206.2l11.3,11.4l-11.3,11.4
	c-1,1-2.7,1-3.7,0c-1-1-1-2.7,0-3.8l7.1-7.2l2.2,1.4l-9.3-9.4c-0.5-0.5-0.8-1.2-0.8-1.9c0-0.7,0.3-1.4,0.8-1.9
	C156.2,205.2,157.9,205.2,158.9,206.2L158.9,206.2z"/>
<path fill="#F7F5F5" stroke="#000000" stroke-width="0.5945" stroke-miterlimit="10" d="M149.9,207.2c-0.2-0.6-0.7-1.2-1.4-1.5
	c-1.3-0.6-2.9,0-3.5,1.4l-8.2,19.1c-0.3,0.7-0.3,1.4,0,2c0.2,0.6,0.7,1.2,1.4,1.5c1.3,0.6,2.9,0,3.5-1.4l8.2-19.1
	C150.2,208.5,150.2,207.8,149.9,207.2z"/>
<path fill="#F7F5F5" stroke="#000000" stroke-width="0.5945" stroke-miterlimit="10" d="M441.1,176.8l-11.3,11.4l11.3,11.4
	c1,1,2.7,1,3.7,0c1-1,1-2.7,0-3.8l-7.1-7.2l-2.2,1.4l9.3-9.4c0.5-0.5,0.8-1.2,0.8-1.9c0-0.7-0.3-1.4-0.8-1.9
	C443.8,175.7,442.1,175.7,441.1,176.8L441.1,176.8z"/>
<path fill="#F7F5F5" stroke="#000000" stroke-width="0.5945" stroke-miterlimit="10" d="M472.1,176.8l11.3,11.4l-11.3,11.4
	c-1,1-2.7,1-3.7,0c-1-1-1-2.7,0-3.8l7.1-7.2l2.2,1.4l-9.3-9.4c-0.5-0.5-0.8-1.2-0.8-1.9c0-0.7,0.3-1.4,0.8-1.9
	C469.4,175.7,471.1,175.7,472.1,176.8L472.1,176.8z"/>
<path fill="#F7F5F5" stroke="#000000" stroke-width="0.5945" stroke-miterlimit="10" d="M463.1,177.7c-0.2-0.6-0.7-1.2-1.4-1.5
	c-1.3-0.6-2.9,0-3.5,1.4l-8.2,19.1c-0.3,0.7-0.3,1.4,0,2c0.2,0.6,0.7,1.2,1.4,1.5c1.3,0.6,2.9,0,3.5-1.4l8.2-19.1
	C463.3,179,463.3,178.3,463.1,177.7z"/>
<path fill="#F7F5F5" stroke="#000000" stroke-width="0.5945" stroke-miterlimit="10" d="M249.4,216.9l-11.3,11.4l11.3,11.4
	c1,1,2.7,1,3.7,0c1-1,1-2.7,0-3.8l-7.1-7.2l-2.2,1.4l9.3-9.4c0.5-0.5,0.8-1.2,0.8-1.9c0-0.7-0.3-1.4-0.8-1.9
	C252.1,215.9,250.5,215.9,249.4,216.9L249.4,216.9z"/>
<path fill="#F7F5F5" stroke="#000000" stroke-width="0.5945" stroke-miterlimit="10" d="M280.4,216.9l11.3,11.4l-11.3,11.4
	c-1,1-2.7,1-3.7,0c-1-1-1-2.7,0-3.8l7.1-7.2l2.2,1.4l-9.3-9.4c-0.5-0.5-0.8-1.2-0.8-1.9c0-0.7,0.3-1.4,0.8-1.9
	C277.7,215.9,279.4,215.9,280.4,216.9L280.4,216.9z"/>
<path fill="#F7F5F5" stroke="#000000" stroke-width="0.5945" stroke-miterlimit="10" d="M271.4,217.8c-0.2-0.6-0.7-1.2-1.4-1.5
	c-1.3-0.6-2.9,0-3.5,1.4l-8.2,19.1c-0.3,0.7-0.3,1.4,0,2c0.2,0.6,0.7,1.2,1.4,1.5c1.3,0.6,2.9,0,3.5-1.4l8.2-19.1
	C271.7,219.2,271.7,218.5,271.4,217.8z"/>
<path fill="#F7F5F5" stroke="#000000" stroke-width="0.5945" stroke-miterlimit="10" d="M532.7,94l-11.3,11.4l11.3,11.4
	c1,1,2.7,1,3.7,0c1-1,1-2.7,0-3.8l-7.1-7.2l-2.2,1.4l9.3-9.4c0.5-0.5,0.8-1.2,0.8-1.9c0-0.7-0.3-1.4-0.8-1.9
	C535.4,93,533.8,93,532.7,94L532.7,94z"/>
<path fill="#F7F5F5" stroke="#000000" stroke-width="0.5945" stroke-miterlimit="10" d="M563.7,94l11.3,11.4l-11.3,11.4
	c-1,1-2.7,1-3.7,0c-1-1-1-2.7,0-3.8l7.1-7.2l2.2,1.4l-9.3-9.4c-0.5-0.5-0.8-1.2-0.8-1.9c0-0.7,0.3-1.4,0.8-1.9
	C561,93,562.7,93,563.7,94L563.7,94z"/>
<path fill="#F7F5F5" stroke="#000000" stroke-width="0.5945" stroke-miterlimit="10" d="M554.7,94.9c-0.2-0.6-0.7-1.2-1.4-1.5
	c-1.3-0.6-2.9,0-3.5,1.4l-8.2,19.1c-0.3,0.7-0.3,1.4,0,2c0.2,0.6,0.7,1.2,1.4,1.5c1.3,0.6,2.9,0,3.5-1.4l8.2-19.1
	C555,96.3,555,95.5,554.7,94.9z"/>
</svg>
