<?xml version="1.0" encoding="utf-8"?>
<!-- Generator: Adobe Illustrator 17.1.0, SVG Export Plug-In . SVG Version: 6.00 Build 0)  -->
<!DOCTYPE svg PUBLIC "-//W3C//DTD SVG 1.1//EN" "http://www.w3.org/Graphics/SVG/1.1/DTD/svg11.dtd">
<svg version="1.1" id="Layer_1" xmlns="http://www.w3.org/2000/svg" xmlns:xlink="http://www.w3.org/1999/xlink" x="0px" y="0px"
	 viewBox="0 0 600 400" enable-background="new 0 0 600 400" xml:space="preserve">
<rect x="112.8" y="337.3" fill="none" width="418" height="55.2"/>
<text transform="matrix(1 0 0 1 112.7742 352.4088)" display="none"><tspan x="0" y="0" display="inline" font-family="'MyriadPro-Regular'" font-size="18">Rather than writing lengthy documentation, design </tspan><tspan x="0" y="21.6" display="inline" font-family="'MyriadPro-Regular'" font-size="18">more intuitive products from the start.</tspan></text>
<path d="M45.4,227.6l0.6,1.7c0.1-0.1,0.3-0.1,0.4-0.1c0.1,0,0.1-0.1,0.2-0.1c0.3-0.1,0.5-0.2,0.6-0.2c0.1,0,0.1,0,0.3-0.1
	c0.1,0,0.2,0,0.4,0H49c0.1,0,0.2,0,0.4,0c0.1,0,0.1,0,0.2,0c0.1,0,0.1,0,0.2,0c0.1,0,0.2,0,0.4,0.1c0.3,0.1,0.3,0.1,0.4,0.1
	c0.1,0,0.1,0,0.2,0c0,0,1.5,0,4.4,0c0.2,0,0.3,0,0.4,0c0.1,0,0.2,0,0.3,0c0.2,0,0.3,0,0.5,0c0.2,0,0.2,0,0.4,0l0.2,0l0.2,0
	c0.2,0,0.2,0,0.4,0.1l0.4,0.1c0.2,0,0.3,0.1,0.5,0.1c0.1,0,0.3,0,0.4,0.1c0.2,0,0.4,0,0.5,0.1c0.2,0,0.3,0.1,0.5,0.1
	c0.2,0,0.3,0,0.5,0.1c0.3,0,0.3,0,0.6,0.1c0.3,0,0.3,0,0.6,0.1c0.2,0,0.3,0,0.5,0c0.3,0,0.3,0,0.6,0c0.2,0,0.4,0,0.5,0h3.7
	c0.2,0,0.5,0,0.7,0c0.2,0,0.4,0,0.6,0c0.2,0,0.5,0,0.8,0c0.2,0,0.5,0,0.7,0c0.2,0,0.5,0,0.7,0c0.2,0,0.5,0,0.7,0
	c0.3,0,0.5,0,0.8,0.1c0.4,0,0.4,0,0.7,0.1c0.2,0,0.5,0,0.7,0.1c0.3,0,0.5,0,0.8,0.1c0.2,0,0.5,0.1,0.7,0.1c0.2,0,0.5,0,0.7,0
	c0.2,0,0.5,0,0.7,0h4.1c0.3,0,0.5,0,0.8,0c0.3,0,0.6,0,0.9,0c0.3,0,0.5,0,0.8,0c0.4,0,0.4,0,0.8,0c0.4,0,0.4,0,0.9,0
	c0.4,0,0.4,0,0.8,0c0.2,0,0.5,0,0.9,0c0.3,0,0.6,0,0.9,0c0.4,0,0.4,0,0.8,0c0.4,0,0.4,0,0.8-0.1c0.3,0,0.6,0,0.9-0.1
	c0.4,0,0.4,0,0.8-0.1c0.4,0,0.4,0,0.8-0.1c0.3,0,0.5,0,0.7-0.1c0.3,0,0.5-0.1,0.8-0.1c0.2,0,0.5,0,0.7,0c0.2,0,0.5,0,0.7-0.1
	c0.3,0,0.5,0,0.8-0.1c0.3,0,0.5,0,0.8,0h6.7c0.2,0,0.4,0,0.6,0c0.2,0,0.3,0,0.5,0c0.2,0,0.5,0,0.7,0c0.1,0,0.3,0,0.4,0
	c0.2,0,0.2,0,0.5,0c0.2,0,0.4,0,0.6,0c0.2,0,0.2,0,0.4,0c0.2,0,0.2,0,0.4,0c0.2,0,0.3,0,0.5,0.1c0.1,0,0.2,0,0.3,0
	c0.2,0,0.2,0,0.4,0c0.2,0,0.2,0,0.4,0c0.1,0,0.2,0,0.3,0c0.1,0,0.2,0,0.4,0c0.1,0,0.1,0,0.2,0h1v-0.5c0-0.4,0-0.4,0-0.6
	c0-0.2,0-0.2,0-0.3c0-0.2,0-0.2,0-0.4c0-0.2,0-0.2,0-0.4c0-0.2,0-0.2,0-0.4c0-0.2,0-0.2,0-0.4c0-0.1,0-0.2,0-0.4c0-0.2,0-0.3,0-0.5
	c0-0.1,0-0.3,0-0.4c0-0.3,0-0.3-0.1-0.5c0-0.1,0-0.3-0.1-0.5c0-0.2-0.1-0.5-0.1-0.7c0-0.2,0-0.3-0.1-0.5c0-0.2-0.1-0.4-0.1-0.7
	c0-0.3,0-0.3-0.1-0.7l-0.1-0.7c0-0.4,0-0.4-0.1-0.8c0-0.3-0.1-0.5-0.1-0.7c0-0.3-0.1-0.5-0.1-0.8c0-0.3-0.1-0.6-0.1-0.9
	c0-0.3-0.1-0.6-0.1-0.9c0-0.3-0.1-0.6-0.1-0.8c-0.1-0.4-0.1-0.4-0.1-1c-0.1-0.5-0.1-0.5-0.1-1c-0.1-0.5-0.1-0.5-0.1-0.9
	c0-0.3-0.1-0.6-0.1-0.9c-0.1-0.3-0.1-0.7-0.1-1c-0.1-0.5-0.1-0.5-0.1-0.9c0-0.3-0.1-0.6-0.1-0.9c-0.1-0.5-0.1-0.5-0.1-0.9
	c0-0.3-0.1-0.6-0.1-0.9c-0.1-0.3-0.1-0.6-0.2-0.9c-0.1-0.3-0.1-0.7-0.2-1c-0.1-0.3-0.1-0.6-0.1-0.8c-0.1-0.3-0.1-0.6-0.1-0.9
	c-0.1-0.5-0.1-0.5-0.1-0.9c-0.1-0.4-0.1-0.4-0.1-0.9c0-0.3-0.1-0.6-0.1-0.8c-0.1-0.4-0.1-0.4-0.1-0.9c-0.1-0.5-0.1-0.5-0.1-0.9
	c-0.1-0.4-0.1-0.4-0.1-0.9c-0.1-0.5-0.1-0.5-0.1-1c0-0.3-0.1-0.7-0.1-1c0-0.4-0.1-0.7-0.1-1c-0.1-0.5-0.1-0.5-0.1-1
	c0-0.4-0.1-0.7-0.1-1c-0.1-0.3-0.1-0.7-0.2-1.1c0-0.4-0.1-0.7-0.2-1c-0.1-0.3-0.1-0.7-0.2-1.1c-0.1-0.4-0.1-0.7-0.2-1.1
	c0-0.3-0.1-0.7-0.2-1.1c-0.1-0.4-0.1-0.8-0.2-1.1c0-0.3-0.1-0.7-0.1-1.1c-0.1-0.4-0.1-0.7-0.1-1.1c-0.1-0.3-0.1-0.7-0.1-1.1
	c-0.1-0.4-0.1-0.7-0.1-1.1c0-0.3-0.1-0.7-0.1-1c-0.1-0.6-0.1-0.6-0.2-1.1c-0.1-0.3-0.1-0.7-0.2-1.2c-0.1-0.5-0.1-0.8-0.2-1.2
	c-0.1-0.3-0.1-0.7-0.2-1c-0.1-0.4-0.1-0.7-0.2-1c-0.1-0.5-0.1-0.5-0.2-1.1c-0.1-0.4-0.1-0.7-0.2-0.9c-0.1-0.4-0.1-0.4-0.2-0.9
	c-0.1-0.3-0.1-0.6-0.2-1c-0.1-0.3-0.1-0.6-0.2-0.9c-0.1-0.3-0.2-0.6-0.2-0.8c-0.1-0.2-0.1-0.5-0.2-0.8c-0.1-0.5-0.1-0.5-0.3-0.9
	c-0.1-0.3-0.2-0.5-0.3-0.9c-0.1-0.3-0.2-0.6-0.3-0.8c-0.1-0.3-0.2-0.5-0.3-0.8c-0.1-0.3-0.2-0.5-0.3-0.8c-0.1-0.2-0.2-0.5-0.3-0.8
	c-0.1-0.3-0.2-0.6-0.3-0.8c-0.1-0.2-0.2-0.5-0.3-0.8c-0.1-0.3-0.2-0.6-0.3-0.8c-0.1-0.3-0.2-0.5-0.3-0.8c-0.2-0.4-0.2-0.4-0.4-0.8
	c-0.1-0.2-0.2-0.5-0.3-0.7c-0.1-0.2-0.2-0.5-0.3-0.7c-0.2-0.3-0.2-0.3-0.4-0.7c-0.1-0.3-0.3-0.5-0.4-0.7c-0.1-0.2-0.3-0.4-0.4-0.7
	c-0.1-0.2-0.3-0.4-0.4-0.6c-0.1-0.2-0.3-0.4-0.4-0.6c-0.2-0.2-0.3-0.4-0.5-0.6c-0.1-0.2-0.3-0.4-0.4-0.6c-0.2-0.2-0.3-0.4-0.5-0.6
	c-0.3-0.3-0.3-0.3-0.5-0.6c-0.2-0.2-0.3-0.4-0.5-0.5c-0.3-0.3-0.3-0.3-0.5-0.5c-0.2-0.2-0.3-0.4-0.5-0.5c-0.2-0.2-0.3-0.3-0.5-0.5
	c-0.3-0.3-0.3-0.3-0.5-0.5c-0.2-0.2-0.3-0.3-0.5-0.5c-0.2-0.1-0.3-0.3-0.5-0.5c-0.2-0.2-0.3-0.3-0.5-0.5c-0.2-0.2-0.3-0.3-0.5-0.4
	c-0.2-0.1-0.3-0.3-0.5-0.4c-0.2-0.1-0.3-0.3-0.5-0.4c-0.1-0.1-0.3-0.2-0.5-0.3c-0.2-0.1-0.4-0.3-0.5-0.4c-0.1-0.1-0.3-0.2-0.5-0.3
	c-0.2-0.1-0.3-0.2-0.5-0.3c-0.1-0.1-0.3-0.2-0.5-0.3c-0.2-0.1-0.4-0.2-0.6-0.2c-0.3-0.1-0.3-0.1-0.5-0.2c-0.1-0.1-0.3-0.1-0.4-0.2
	c-0.1,0-0.3-0.1-0.5-0.1c-0.2,0-0.3-0.1-0.4-0.1c-0.2,0-0.3,0-0.5,0h-1.6c-0.2,0-0.3,0-0.5,0c-0.3,0-0.3,0-0.5,0c-0.3,0-0.3,0-0.6,0
	c-0.2,0-0.3,0-0.4,0c-0.2,0-0.2,0-0.5,0.1c-0.2,0-0.3,0-0.5,0.1c-0.1,0-0.3,0.1-0.4,0.1c-0.2,0-0.4,0.1-0.5,0.1
	c-0.1,0-0.3,0.1-0.4,0.1c-0.1,0-0.3,0.1-0.4,0.1c-0.2,0.1-0.2,0.1-0.5,0.1c-0.2,0.1-0.3,0.1-0.5,0.1c-0.1,0-0.2,0.1-0.3,0.1
	c-0.2,0.1-0.2,0.1-0.5,0.2c-0.1,0-0.3,0.1-0.4,0.2c-0.1,0.1-0.3,0.1-0.4,0.2c-0.1,0.1-0.3,0.2-0.4,0.2c-0.2,0.1-0.2,0.1-0.5,0.3
	c-0.1,0.1-0.3,0.2-0.5,0.3c-0.2,0.1-0.3,0.2-0.5,0.3c-0.1,0.1-0.3,0.2-0.5,0.4c-0.2,0.2-0.4,0.3-0.6,0.5c-0.2,0.1-0.3,0.3-0.5,0.5
	c-0.3,0.3-0.3,0.3-0.6,0.5c-0.2,0.2-0.4,0.3-0.5,0.5c-0.2,0.2-0.4,0.4-0.5,0.6c-0.2,0.2-0.3,0.4-0.6,0.6c-0.2,0.2-0.4,0.5-0.6,0.7
	c-0.2,0.2-0.3,0.4-0.5,0.6c-0.3,0.3-0.3,0.3-0.5,0.7c-0.1,0.2-0.3,0.4-0.5,0.7c-0.3,0.4-0.3,0.4-0.5,0.7c-0.1,0.2-0.3,0.4-0.5,0.7
	c-0.2,0.3-0.4,0.6-0.6,0.8c-0.2,0.2-0.3,0.5-0.5,0.7c-0.2,0.3-0.4,0.5-0.5,0.7c-0.1,0.2-0.3,0.5-0.5,0.7c-0.2,0.3-0.4,0.5-0.6,0.8
	c-0.2,0.3-0.3,0.5-0.5,0.8c-0.2,0.3-0.3,0.5-0.5,0.8c-0.2,0.3-0.3,0.5-0.5,0.8c-0.1,0.3-0.3,0.5-0.4,0.8c-0.1,0.3-0.3,0.6-0.5,0.9
	c-0.1,0.3-0.3,0.6-0.4,0.8c-0.2,0.4-0.2,0.4-0.4,0.9l-0.2,0.5l-0.2,0.5c-0.1,0.3-0.3,0.6-0.4,0.9c-0.1,0.3-0.3,0.6-0.4,0.9
	c-0.1,0.3-0.3,0.6-0.4,0.9c-0.2,0.5-0.2,0.5-0.4,1c-0.2,0.5-0.2,0.5-0.4,1c-0.1,0.3-0.3,0.7-0.5,1.1c-0.2,0.4-0.3,0.8-0.5,1.2
	c-0.2,0.4-0.3,0.8-0.4,1.2c-0.1,0.4-0.3,0.8-0.5,1.2c-0.2,0.5-0.3,0.9-0.5,1.3c-0.1,0.3-0.3,0.8-0.4,1.2c-0.2,0.5-0.3,0.9-0.5,1.3
	c-0.2,0.4-0.3,0.8-0.5,1.2c-0.1,0.4-0.3,0.8-0.4,1.2c-0.1,0.3-0.3,0.7-0.4,1.2c-0.2,0.5-0.3,0.9-0.5,1.3c-0.1,0.4-0.3,0.8-0.4,1.2
	c-0.2,0.6-0.2,0.6-0.4,1.3c-0.1,0.5-0.3,0.9-0.4,1.3c-0.2,0.6-0.2,0.6-0.4,1.3c-0.1,0.5-0.3,0.9-0.4,1.4c-0.1,0.5-0.3,0.9-0.4,1.4
	c-0.2,0.7-0.2,0.7-0.4,1.4c-0.1,0.5-0.3,1-0.4,1.4c-0.2,0.7-0.2,0.7-0.4,1.5c-0.1,0.5-0.3,1-0.4,1.5c-0.1,0.5-0.2,0.9-0.4,1.5
	c-0.1,0.5-0.2,1-0.3,1.5c-0.2,0.8-0.2,0.8-0.3,1.5c-0.1,0.5-0.2,1-0.3,1.6c-0.1,0.6-0.2,1.1-0.3,1.7c-0.1,0.5-0.2,1.1-0.3,1.6
	c-0.1,0.5-0.1,1-0.2,1.5c-0.1,0.5-0.1,1-0.2,1.4c-0.1,0.4-0.1,0.9-0.2,1.4c0,0.5-0.1,1-0.1,1.4c0,0.4-0.1,0.8-0.1,1.2
	c0,0.4-0.1,0.8-0.1,1.1c0,0.5,0,0.5-0.1,1c0,0.4-0.1,0.7-0.1,1c0,0.3,0,0.7-0.1,1l-0.1,0.9c0,0.3,0,0.6,0,0.9c0,0.3,0,0.5,0,0.8v4.4
	c0,0.1,0,0.2,0,0.3C44.7,227,45.2,227.1,45.4,227.6L45.4,227.6z M44.4,228.3C44.4,228.3,44.4,228.3,44.4,228.3L44.4,228.3
	L44.4,228.3z M43.9,227.7c-0.1,0.1-0.1,0.1-0.1,0.1c0,0,0,0.1,0,0.1h-0.1c0,0,0,0,0,0c0,0,0,0,0,0l0,0c0,0,0,0,0,0
	C43.8,227.8,43.9,227.7,43.9,227.7z"/>
<path d="M81.6,137.9c-0.2,0.1-0.2,0.1-0.3,0.1c-0.2,0.1-0.4,0.2-0.6,0.2c-0.2,0.1-0.4,0.1-0.7,0.2c-0.2,0-0.4,0.1-0.7,0.1
	c-0.2,0-0.4,0-0.6,0h-1.2c-0.3,0-0.6,0-0.9-0.1c-0.2-0.1-0.4-0.1-0.6-0.2c-0.2-0.1-0.4-0.1-0.5-0.2c-0.2-0.1-0.4-0.2-0.6-0.2
	c-0.3-0.1-0.3-0.1-0.5-0.2c-0.3-0.1-0.3-0.1-0.6-0.2c-0.3-0.1-0.3-0.1-0.6-0.2c-0.3-0.1-0.3-0.1-0.5-0.2c-0.3-0.1-0.3-0.1-0.6-0.3
	c-0.2-0.1-0.4-0.2-0.6-0.3c-0.2-0.1-0.4-0.2-0.7-0.3c-0.2-0.1-0.5-0.2-0.7-0.3c-0.2-0.1-0.5-0.3-0.7-0.4c-0.2-0.1-0.5-0.3-0.7-0.4
	c-0.2-0.1-0.5-0.3-0.7-0.5c-0.3-0.2-0.5-0.4-0.8-0.6c-0.2-0.2-0.5-0.4-0.7-0.6c-0.2-0.2-0.5-0.5-0.7-0.7c-0.2-0.2-0.5-0.5-0.7-0.7
	c-0.2-0.2-0.4-0.5-0.6-0.7c-0.2-0.2-0.4-0.4-0.6-0.7c-0.2-0.3-0.4-0.6-0.7-0.9c-0.2-0.3-0.4-0.6-0.6-0.8c-0.2-0.3-0.4-0.5-0.5-0.8
	c-0.3-0.4-0.3-0.4-0.5-0.8c-0.2-0.3-0.4-0.6-0.6-0.9c-0.1-0.2-0.3-0.5-0.5-0.8c-0.2-0.3-0.3-0.6-0.5-0.9c-0.2-0.3-0.3-0.6-0.5-0.9
	c-0.2-0.3-0.3-0.6-0.5-1l-0.4-1c-0.1-0.3-0.3-0.7-0.4-0.9c-0.1-0.3-0.3-0.7-0.4-1c-0.1-0.3-0.2-0.7-0.3-1c-0.1-0.3-0.2-0.7-0.3-1
	c-0.1-0.4-0.2-0.7-0.3-1c-0.1-0.4-0.1-0.4-0.2-0.9c-0.1-0.4-0.2-0.8-0.2-1.1c-0.1-0.5-0.1-0.5-0.2-0.9c-0.1-0.3-0.1-0.7-0.2-1
	c0-0.3-0.1-0.7-0.1-1c-0.1-0.4-0.1-0.8-0.1-1.1c0-0.4-0.1-0.7-0.1-1.1c0-0.4,0-0.8,0-1.1c0-0.4,0-0.7,0-1v-2.1c0-0.3,0-0.7,0-1
	c0-0.3,0.1-0.7,0.1-1.2c0.1-0.4,0.1-0.7,0.2-1.1c0.1-0.5,0.1-0.5,0.2-0.9c0.1-0.3,0.1-0.7,0.2-1c0.1-0.5,0.1-0.5,0.2-0.9
	c0.1-0.3,0.2-0.6,0.3-0.9c0.1-0.3,0.2-0.6,0.3-1c0.1-0.3,0.2-0.7,0.3-0.9C58,96,58,96,58.2,95.6c0.1-0.3,0.3-0.6,0.4-0.8
	c0.1-0.3,0.3-0.7,0.5-1c0.1-0.3,0.3-0.5,0.4-0.7c0.1-0.3,0.3-0.6,0.5-0.9c0.2-0.3,0.4-0.6,0.5-0.8c0.2-0.3,0.2-0.3,0.5-0.7
	c0.2-0.3,0.4-0.6,0.6-0.9c0.2-0.3,0.4-0.5,0.5-0.7c0.2-0.3,0.4-0.5,0.6-0.8c0.3-0.3,0.3-0.3,0.6-0.7c0.2-0.3,0.4-0.5,0.6-0.7
	c0.2-0.2,0.4-0.4,0.6-0.7c0.2-0.2,0.4-0.4,0.7-0.7c0.2-0.2,0.5-0.4,0.8-0.7c0.3-0.2,0.5-0.4,0.7-0.6c0.2-0.2,0.5-0.4,0.8-0.6
	c0.3-0.2,0.6-0.4,0.9-0.6c0.3-0.2,0.5-0.4,0.8-0.5c0.2-0.1,0.5-0.3,0.7-0.5c0.3-0.2,0.6-0.4,0.9-0.5c0.3-0.2,0.5-0.3,0.8-0.4
	c0.3-0.1,0.5-0.3,0.8-0.4c0.4-0.2,0.4-0.2,0.7-0.4c0.3-0.1,0.6-0.3,0.9-0.4c0.3-0.1,0.6-0.2,0.8-0.3c0.3-0.1,0.6-0.2,0.9-0.3
	c0.3-0.1,0.6-0.2,0.8-0.2c0.2-0.1,0.5-0.1,0.9-0.2c0.3-0.1,0.7-0.1,1-0.2c0.2,0,0.5-0.1,0.8-0.1c0.3,0,0.6-0.1,0.9-0.1
	c0.3,0,0.6,0,0.8,0c0.3,0,0.5,0,0.8,0h1.5c0.3,0,0.5,0,0.8,0c0.3,0,0.6,0,0.9,0.1c0.3,0,0.5,0.1,0.8,0.2c0.3,0.1,0.5,0.1,0.7,0.2
	c0.3,0.1,0.5,0.1,0.9,0.2c0.3,0.1,0.6,0.1,0.8,0.2c0.2,0.1,0.5,0.1,0.7,0.2c0.4,0.1,0.4,0.1,0.8,0.2c0.4,0.1,0.4,0.1,0.8,0.2
	c0.3,0.1,0.5,0.2,0.8,0.3c0.2,0.1,0.5,0.2,0.7,0.3c0.3,0.1,0.5,0.2,0.7,0.3c0.3,0.1,0.3,0.1,0.7,0.3c0.3,0.1,0.5,0.2,0.7,0.3
	c0.2,0.1,0.5,0.2,0.7,0.3c0.3,0.1,0.5,0.3,0.7,0.4c0.2,0.1,0.4,0.2,0.6,0.3c0.3,0.2,0.3,0.2,0.6,0.4c0.2,0.1,0.5,0.3,0.7,0.4
	c0.3,0.2,0.3,0.2,0.6,0.4c0.2,0.1,0.4,0.3,0.6,0.4c0.2,0.2,0.4,0.3,0.6,0.5c0.2,0.2,0.4,0.3,0.6,0.5c0.2,0.2,0.4,0.3,0.6,0.5
	c0.2,0.2,0.2,0.2,0.4,0.4c0.2,0.2,0.3,0.4,0.5,0.5c0.2,0.2,0.4,0.4,0.5,0.6c0.2,0.3,0.2,0.3,0.4,0.5c0.1,0.2,0.3,0.4,0.4,0.6
	c0.1,0.2,0.3,0.4,0.4,0.6c0.1,0.2,0.3,0.4,0.4,0.6c0.1,0.1,0.2,0.3,0.3,0.5c0.1,0.2,0.3,0.4,0.4,0.6c0.1,0.2,0.2,0.5,0.3,0.7
	c0.1,0.3,0.1,0.3,0.3,0.6c0.1,0.3,0.1,0.3,0.3,0.5c0.1,0.2,0.1,0.2,0.2,0.5c0.1,0.2,0.2,0.5,0.3,0.7c0.1,0.2,0.2,0.4,0.2,0.6
	c0.1,0.3,0.1,0.3,0.2,0.6c0.1,0.2,0.1,0.4,0.2,0.7c0.1,0.3,0.1,0.3,0.2,0.5c0.1,0.2,0.1,0.4,0.2,0.6c0.1,0.3,0.1,0.3,0.1,0.6
	c0,0.2,0.1,0.4,0.1,0.6c0,0.2,0.1,0.3,0.1,0.5c0.1,0.3,0.1,0.5,0.1,0.7c0,0.3,0,0.3,0.1,0.5c0,0.2,0,0.4,0.1,0.6
	c0,0.2,0,0.4,0.1,0.5c0,0.2,0,0.5,0.1,0.7c0,0.2,0,0.4,0,0.5c0,0.3,0,0.3,0,0.6c0,0.2,0,0.4,0,0.5c0,0.2,0,0.4,0,0.7v3.8
	c0,0.2,0,0.5,0,0.8c0,0.3,0,0.3-0.1,0.5c0,0.2,0,0.4-0.1,0.6c0,0.2-0.1,0.4-0.1,0.5c0,0.2-0.1,0.4-0.1,0.6c0,0.1,0,0.3-0.1,0.4
	c0,0.2-0.1,0.4-0.1,0.7c-0.1,0.3-0.1,0.3-0.1,0.6c0,0.1-0.1,0.2-0.1,0.4c0,0.2-0.1,0.4-0.1,0.6c-0.1,0.2-0.1,0.2-0.1,0.4
	c0,0.2-0.1,0.4-0.2,0.6c0,0.1-0.1,0.2-0.1,0.4c-0.1,0.2-0.1,0.4-0.2,0.6c-0.1,0.2-0.1,0.2-0.1,0.4c-0.1,0.2-0.1,0.4-0.2,0.5
	c0,0.1-0.1,0.2-0.1,0.4c-0.1,0.2-0.1,0.4-0.2,0.6c-0.1,0.2-0.1,0.2-0.2,0.5c-0.1,0.2-0.1,0.4-0.2,0.5c0,0.1-0.1,0.2-0.1,0.4
	c-0.1,0.2-0.1,0.4-0.2,0.5c-0.1,0.2-0.1,0.2-0.2,0.5c-0.1,0.2-0.1,0.2-0.2,0.5c-0.1,0.2-0.1,0.2-0.2,0.4c-0.1,0.1-0.1,0.3-0.2,0.4
	c-0.1,0.2-0.2,0.4-0.3,0.6c-0.1,0.2-0.2,0.4-0.3,0.5c-0.1,0.2-0.1,0.2-0.2,0.4c-0.1,0.2-0.2,0.3-0.3,0.5c-0.1,0.1-0.1,0.2-0.2,0.4
	c-0.1,0.2-0.2,0.3-0.3,0.5c-0.1,0.2-0.2,0.3-0.3,0.5c-0.1,0.2-0.1,0.2-0.2,0.3c-0.1,0.1-0.2,0.3-0.3,0.4c-0.1,0.1-0.1,0.2-0.1,0.2
	c-0.1,0.2-0.2,0.3-0.4,0.5l-0.2,0.3c-0.1,0.1-0.1,0.2-0.2,0.3c-0.1,0.2-0.2,0.3-0.4,0.5c0,0.1-0.1,0.1-0.1,0.1
	c-0.1,0.1-0.2,0.3-0.3,0.4c-0.1,0.1-0.2,0.3-0.3,0.4c-0.1,0.1-0.1,0.2-0.2,0.2c-0.1,0.1-0.2,0.3-0.3,0.4c-0.2,0.2-0.2,0.2-0.4,0.4
	c-0.2,0.2-0.3,0.3-0.4,0.4c-0.1,0.1-0.1,0.1-0.2,0.2c-0.1,0.1-0.3,0.3-0.4,0.4c-0.2,0.2-0.4,0.3-0.6,0.5c-0.2,0.1-0.3,0.3-0.5,0.4
	c-0.2,0.1-0.3,0.2-0.5,0.4c-0.1,0.1-0.3,0.2-0.4,0.3c-0.1,0.1-0.3,0.2-0.4,0.3c-0.2,0.1-0.4,0.3-0.5,0.4c-0.1,0.1-0.3,0.2-0.4,0.3
	c-0.2,0.2-0.2,0.2-0.5,0.4c-0.3,0.2-0.3,0.2-0.5,0.4c-0.2,0.1-0.4,0.3-0.5,0.4c-0.2,0.1-0.3,0.2-0.5,0.4c-0.2,0.2-0.2,0.2-0.5,0.3
	c-0.2,0.1-0.4,0.2-0.5,0.3c-0.2,0.1-0.3,0.2-0.5,0.3c-0.2,0.1-0.3,0.2-0.5,0.2c-0.2,0.1-0.2,0.1-0.4,0.2c-0.2,0.1-0.4,0.1-0.6,0.2
	c-0.2,0.1-0.2,0.1-0.4,0.1c-0.2,0.1-0.2,0.1-0.5,0.2c-0.1,0-0.2,0.1-0.3,0.1c-0.2,0.1-0.2,0.1-0.4,0.2c-0.1,0-0.2,0.1-0.3,0.1
	c-0.2,0.1-0.2,0.1-0.5,0.2c-0.1,0.1-0.2,0.1-0.3,0.2c-0.1,0.1-0.3,0.1-0.5,0.2c-0.2,0.1-0.2,0.1-0.3,0.1c-0.2,0.1-0.4,0.2-0.6,0.2
	c-0.2,0.1-0.5,0.2-0.7,0.2c-0.2,0.1-0.2,0.1-0.5,0.1c-0.2,0.1-0.2,0.1-0.5,0.1c-0.2,0-0.2,0-0.5,0.1c-0.2,0-0.2,0-0.4,0.1
	c-0.2,0-0.2,0-0.3,0.1C81.8,137.8,81.7,137.8,81.6,137.9L81.6,137.9z M80.3,134.5c0.5-0.6,1.4-0.8,2.1-0.4c0.1,0,0.1,0,0.3,0
	c0.2,0,0.2,0,0.4-0.1c0.2,0,0.2,0,0.4-0.1c0.1,0,0.2,0,0.2-0.1c0.1,0,0.2-0.1,0.3-0.1c0.2-0.1,0.2-0.1,0.4-0.2
	c0.1-0.1,0.2-0.1,0.3-0.1c0.2-0.1,0.3-0.2,0.5-0.2c0.2-0.1,0.2-0.1,0.4-0.2c0.2-0.1,0.3-0.2,0.5-0.2c0.2-0.1,0.2-0.1,0.5-0.2
	c0.2-0.1,0.3-0.1,0.5-0.2c0.2-0.1,0.2-0.1,0.4-0.1c0.2-0.1,0.2-0.1,0.4-0.1c0.1,0,0.2-0.1,0.3-0.1c0.2-0.1,0.2-0.1,0.4-0.2
	c0.1,0,0.2-0.1,0.4-0.2c0.1-0.1,0.2-0.1,0.3-0.2c0.1-0.1,0.2-0.1,0.3-0.2c0.2-0.1,0.2-0.1,0.4-0.3c0.1-0.1,0.3-0.2,0.4-0.3
	c0.1-0.1,0.3-0.2,0.4-0.3c0.2-0.2,0.2-0.2,0.5-0.4c0.3-0.2,0.3-0.2,0.5-0.4c0.2-0.1,0.4-0.3,0.5-0.4c0.1-0.1,0.3-0.2,0.4-0.3
	c0.2-0.1,0.4-0.3,0.5-0.4c0.2-0.1,0.3-0.2,0.5-0.4c0.1-0.1,0.3-0.2,0.4-0.3c0.1-0.1,0.3-0.2,0.4-0.3c0.1-0.1,0.2-0.2,0.4-0.3
	c0.1-0.1,0.2-0.2,0.3-0.3c0.1-0.1,0.1-0.1,0.3-0.3c0.1-0.1,0.2-0.2,0.3-0.3c0.2-0.3,0.2-0.3,0.4-0.4c0.1-0.1,0.1-0.2,0.2-0.2
	c0.1-0.1,0.2-0.3,0.3-0.4c0.1-0.1,0.1-0.2,0.2-0.2c0.1-0.1,0.1-0.2,0.2-0.3c0.1-0.2,0.2-0.3,0.4-0.5c0.1-0.1,0.1-0.1,0.1-0.2
	c0.1-0.1,0.2-0.3,0.3-0.4l0.1-0.2c0.1-0.1,0.1-0.1,0.1-0.1c0-0.1,0.1-0.1,0.1-0.2c0.1-0.2,0.2-0.3,0.3-0.4c0.1-0.1,0.1-0.2,0.2-0.3
	c0.1-0.2,0.1-0.2,0.3-0.4c0.1-0.1,0.1-0.2,0.2-0.3c0.1-0.1,0.1-0.2,0.2-0.3c0.1-0.2,0.2-0.3,0.3-0.5c0.1-0.1,0.1-0.2,0.2-0.4
	c0.1-0.2,0.1-0.2,0.2-0.4c0.1-0.1,0.1-0.3,0.2-0.4c0.1-0.1,0.1-0.3,0.2-0.4c0.1-0.2,0.1-0.3,0.2-0.5c0.1-0.3,0.1-0.3,0.2-0.5
	c0.1-0.2,0.1-0.2,0.2-0.4c0.1-0.2,0.1-0.2,0.2-0.4c0.1-0.1,0.1-0.2,0.2-0.4c0.1-0.2,0.2-0.4,0.2-0.5c0.1-0.1,0.1-0.2,0.2-0.3
	c0.1-0.2,0.1-0.2,0.2-0.5c0-0.1,0.1-0.2,0.1-0.3c0.1-0.2,0.1-0.4,0.2-0.6c0-0.1,0.1-0.2,0.1-0.4c0.1-0.2,0.1-0.2,0.1-0.5
	c0-0.1,0.1-0.2,0.1-0.3c0.1-0.2,0.1-0.4,0.2-0.6c0-0.1,0.1-0.2,0.1-0.4c0.1-0.3,0.1-0.3,0.1-0.5c0-0.1,0.1-0.3,0.1-0.4
	c0-0.2,0.1-0.4,0.1-0.6c0.1-0.2,0.1-0.2,0.1-0.5c0-0.1,0-0.3,0.1-0.4c0-0.2,0.1-0.4,0.1-0.7c0-0.1,0.1-0.3,0.1-0.4
	c0-0.2,0-0.4,0.1-0.6c0-0.2,0-0.3,0.1-0.5c0-0.2,0-0.2,0.1-0.5c0-0.1,0-0.3,0-0.4v-3.8c0-0.1,0-0.3,0-0.4c0-0.2,0-0.4,0-0.6
	c0-0.3,0-0.3,0-0.5c0-0.2,0-0.4,0-0.6c0-0.2,0-0.3,0-0.5c0-0.2,0-0.4-0.1-0.6c0-0.2,0-0.3,0-0.5c0-0.3,0-0.3-0.1-0.6
	c0-0.1,0-0.2-0.1-0.3c0-0.2-0.1-0.4-0.1-0.6c0-0.2-0.1-0.3-0.1-0.4c-0.1-0.3-0.1-0.3-0.1-0.5c0-0.1-0.1-0.3-0.1-0.4
	c-0.1-0.3-0.1-0.3-0.2-0.5c-0.1-0.2-0.1-0.4-0.2-0.5c-0.1-0.3-0.1-0.3-0.2-0.5c-0.1-0.2-0.1-0.4-0.2-0.5c-0.1-0.1-0.1-0.3-0.2-0.4
	c-0.1-0.3-0.1-0.3-0.2-0.5c-0.1-0.2-0.1-0.2-0.2-0.5c-0.1-0.3-0.1-0.3-0.3-0.5c-0.1-0.2-0.2-0.3-0.3-0.5c-0.1-0.2-0.2-0.3-0.3-0.5
	c-0.1-0.2-0.2-0.4-0.3-0.5c-0.1-0.1-0.2-0.3-0.3-0.5c-0.1-0.2-0.2-0.3-0.4-0.5c-0.1-0.2-0.2-0.3-0.3-0.5c-0.2-0.2-0.2-0.2-0.4-0.5
	c-0.1-0.1-0.2-0.3-0.4-0.4c-0.1-0.2-0.3-0.3-0.4-0.5c-0.2-0.3-0.2-0.3-0.4-0.5c-0.1-0.1-0.2-0.2-0.3-0.3c-0.2-0.1-0.3-0.3-0.5-0.4
	c-0.2-0.1-0.3-0.3-0.5-0.4c-0.2-0.1-0.3-0.2-0.5-0.3c-0.3-0.2-0.3-0.2-0.6-0.4c-0.2-0.1-0.3-0.2-0.5-0.3c-0.3-0.2-0.3-0.2-0.6-0.3
	c-0.2-0.1-0.4-0.3-0.6-0.4c-0.2-0.1-0.3-0.2-0.5-0.3c-0.2-0.1-0.4-0.2-0.6-0.3c-0.2-0.1-0.4-0.2-0.7-0.3c-0.3-0.2-0.3-0.2-0.7-0.3
	c-0.2-0.1-0.4-0.2-0.6-0.3c-0.2-0.1-0.4-0.2-0.7-0.3c-0.2-0.1-0.4-0.1-0.6-0.2c-0.4-0.1-0.4-0.1-0.7-0.2c-0.4-0.1-0.4-0.1-0.8-0.2
	c-0.2-0.1-0.5-0.1-0.7-0.2c-0.2-0.1-0.5-0.1-0.7-0.2c-0.3-0.1-0.5-0.1-0.7-0.2c-0.2-0.1-0.5-0.1-0.8-0.2c-0.2,0-0.5-0.1-0.7-0.1
	c-0.2,0-0.3,0-0.5-0.1c-0.2,0-0.5,0-0.7,0h-1.5c-0.2,0-0.4,0-0.7,0c-0.2,0-0.5,0-0.7,0c-0.2,0-0.5,0-0.7,0.1c-0.3,0-0.5,0.1-0.7,0.1
	c-0.2,0-0.4,0.1-0.7,0.1c-0.3,0.1-0.5,0.1-0.7,0.2c-0.2,0.1-0.5,0.1-0.8,0.2c-0.3,0.1-0.5,0.1-0.7,0.2c-0.2,0.1-0.5,0.2-0.7,0.3
	c-0.2,0.1-0.4,0.2-0.6,0.3c-0.4,0.2-0.4,0.2-0.7,0.3c-0.2,0.1-0.5,0.2-0.7,0.4c-0.2,0.1-0.5,0.2-0.7,0.4c-0.2,0.1-0.4,0.3-0.7,0.4
	c-0.3,0.2-0.6,0.4-0.8,0.5c-0.2,0.1-0.4,0.3-0.7,0.4c-0.2,0.1-0.5,0.3-0.7,0.5c-0.3,0.2-0.5,0.4-0.7,0.5c-0.2,0.1-0.4,0.3-0.6,0.5
	c-0.2,0.2-0.4,0.4-0.6,0.6c-0.2,0.2-0.4,0.4-0.6,0.6c-0.2,0.2-0.4,0.4-0.5,0.5c-0.1,0.2-0.3,0.4-0.5,0.6c-0.3,0.4-0.3,0.4-0.6,0.7
	c-0.2,0.2-0.3,0.4-0.5,0.6c-0.2,0.2-0.3,0.5-0.5,0.7c-0.2,0.2-0.3,0.5-0.5,0.7c-0.3,0.4-0.3,0.4-0.5,0.8c-0.1,0.2-0.3,0.5-0.5,0.7
	c-0.2,0.3-0.3,0.5-0.4,0.7c-0.1,0.3-0.3,0.6-0.5,0.9c-0.1,0.2-0.3,0.5-0.3,0.7c-0.1,0.3-0.2,0.5-0.4,0.8c-0.2,0.4-0.2,0.4-0.3,0.8
	c-0.1,0.2-0.2,0.4-0.3,0.7c-0.1,0.3-0.2,0.6-0.3,0.9c-0.1,0.3-0.2,0.5-0.2,0.8c-0.1,0.4-0.1,0.4-0.2,0.9c-0.1,0.3-0.1,0.5-0.2,0.8
	c-0.1,0.4-0.1,0.4-0.2,0.9c-0.1,0.3-0.1,0.6-0.2,0.9c0,0.3-0.1,0.6-0.1,0.8c0,0.2,0,0.5,0,0.8v2.1c0,0.3,0,0.6,0,0.9
	c0,0.3,0,0.7,0,1c0,0.4,0,0.7,0.1,1c0,0.3,0.1,0.6,0.1,1c0,0.4,0.1,0.7,0.1,1c0,0.3,0.1,0.6,0.1,0.9c0.1,0.5,0.1,0.5,0.2,0.9
	c0.1,0.3,0.1,0.6,0.2,0.9c0.1,0.5,0.1,0.5,0.2,0.9c0.1,0.2,0.1,0.5,0.2,0.8c0.1,0.3,0.2,0.6,0.3,1c0.1,0.3,0.2,0.6,0.3,0.9
	c0.1,0.3,0.2,0.5,0.3,0.8c0.1,0.3,0.2,0.6,0.4,0.9c0.2,0.5,0.2,0.5,0.4,1c0.1,0.3,0.3,0.6,0.4,0.8c0.1,0.3,0.3,0.5,0.4,0.8
	c0.1,0.3,0.3,0.5,0.5,0.8c0.2,0.3,0.3,0.5,0.4,0.8c0.1,0.2,0.3,0.4,0.5,0.7c0.3,0.4,0.3,0.4,0.5,0.8c0.1,0.2,0.3,0.4,0.5,0.7
	c0.2,0.3,0.4,0.5,0.6,0.8c0.2,0.3,0.4,0.5,0.6,0.7c0.2,0.2,0.4,0.5,0.5,0.6c0.2,0.2,0.3,0.4,0.5,0.6c0.2,0.2,0.4,0.4,0.6,0.7
	c0.2,0.2,0.4,0.4,0.6,0.6c0.2,0.2,0.4,0.4,0.6,0.5c0.2,0.2,0.4,0.3,0.5,0.4c0.2,0.1,0.4,0.3,0.6,0.4c0.2,0.1,0.4,0.2,0.6,0.4
	c0.2,0.1,0.4,0.2,0.5,0.3c0.2,0.1,0.4,0.2,0.6,0.3c0.2,0.1,0.4,0.2,0.6,0.3c0.2,0.1,0.4,0.2,0.6,0.3c0.3,0.1,0.3,0.1,0.5,0.2
	c0.2,0.1,0.2,0.1,0.5,0.2c0.3,0.1,0.3,0.1,0.6,0.2c0.3,0.1,0.3,0.1,0.6,0.2c0.2,0.1,0.2,0.1,0.5,0.2c0.2,0.1,0.3,0.1,0.5,0.2
	c0.2,0.1,0.3,0.1,0.4,0.1c0.1,0,0.2,0.1,0.4,0.1c0,0,0.4,0,1.2,0c0,0,0.1,0,0.2,0c0.1,0,0.3,0,0.4-0.1c0.1,0,0.2-0.1,0.3-0.1
	C79.8,134.7,80.1,134.5,80.3,134.5L80.3,134.5z M80.2,134.6C80.2,134.6,80.2,134.6,80.2,134.6C80.2,134.6,80.2,134.6,80.2,134.6z"/>
<path d="M145.5,274.1v0.1V274.1L145.5,274.1z M140,231.1C140,231.1,140,231.1,140,231.1C140,231.1,140,231.1,140,231.1z
	 M108.3,226.1c0.2,0.1,0.4,0.3,0.5,0.5h6.4c0.3,0,0.6,0,0.9,0c0.3,0,0.6,0,1,0c0.3,0,0.6,0,0.9-0.1c0.3,0,0.7-0.1,1.1-0.1
	c0.6-0.1,0.6-0.1,1.1-0.1c0.5-0.1,0.5-0.1,1.1-0.1c0.4,0,0.7-0.1,1.1-0.1c0.4,0,0.7-0.1,1-0.1c0.3,0,0.7-0.1,1.1-0.1
	c0.4,0,0.7-0.1,1.1-0.1c0.5,0,0.5,0,0.9-0.1c0.4,0,0.4,0,0.9-0.1c0.3,0,0.6,0,0.9-0.1c0.3,0,0.5,0,0.8,0c0.3,0,0.6,0,0.8,0
	c0.3,0,0.6,0,0.8,0c0.2,0,0.5,0,0.7,0c0.4,0,0.4,0,0.7,0c0.3,0,0.5,0,0.8,0h3c0.3,0,0.5,0,0.8,0.1c0.2,0,0.4,0.1,0.6,0.1
	c0.2,0,0.4,0.1,0.5,0.1c0.2,0.1,0.3,0.1,0.5,0.2c0.2,0.1,0.4,0.1,0.6,0.2c0.2,0.1,0.2,0.1,0.4,0.2c0.1,0.1,0.3,0.1,0.4,0.2
	c0.1,0.1,0.3,0.2,0.5,0.3c0.3,0.2,0.3,0.2,0.6,0.3c0.2,0.1,0.5,0.3,0.7,0.5c0.2,0.1,0.2,0.1,0.3,0.3c0.2,0.2,0.4,0.3,0.6,0.5
	c0.1,0.1,0.3,0.3,0.4,0.4c0.2,0.2,0.4,0.5,0.5,0.8c0.1,0.2,0.2,0.5,0.2,0.7c0,0.2,0,0.2,0.1,0.5c0,0.2,0,0.3,0.1,0.5
	c0,0.2,0,0.2,0,0.4c0,0.1,0,0.2,0,0.4c0,0.3,0,0.3,0.1,0.6c0,0.3,0,0.3,0,0.5c0,0.2,0,0.2,0.1,0.6c0,0.3,0.1,0.5,0.1,0.6
	c0,0.2,0,0.4,0,0.6c0,0.2,0,0.4,0,0.6c0,0.3,0,0.6,0.1,0.9c0,0.3,0,0.5,0,0.9c0,0.3,0,0.7,0,1.1c0,0.3,0,0.7,0,1.1
	c0,0.5,0,0.5,0,1.2c0,0.7,0,0.7,0,1.4c0,0.5,0,1,0,1.4c0,0.5,0,1,0,1.4c0,0.5,0,1,0,1.5c0,0.5,0,1.1,0,1.6c0,0.5,0,1.1,0.1,1.7
	c0,0.6,0,1.1,0.1,1.6c0,0.5,0.1,1.1,0.1,1.7c0,0.6,0.1,1.2,0.1,1.7c0,0.5,0.1,1,0.1,1.5c0,0.5,0.1,1,0.1,1.4c0,0.4,0,0.9,0.1,1.3
	c0,0.5,0,0.9,0.1,1.3c0,0.4,0,0.9,0.1,1.3c0,0.4,0,0.7,0,1c0,0.3,0,0.7,0,1.1c0,0.5,0,0.5,0,0.9c0,0.3,0,0.6,0,0.8
	c0,0.3,0,0.6,0,0.9c0,0.4,0,0.4,0,0.9c0,0.4,0,0.4,0,0.8c0,0.3,0,0.5,0,0.8c0,0.2,0,0.4,0,0.6c0,0.2,0,0.5,0,0.7c0,0.2,0,0.4,0,0.5
	c0,0.2,0,0.5,0,0.7v0.5c0,0.1,0,0.3,0,0.4c0,0.2,0,0.4,0,0.5v0.3c0.2,0,0.3,0,0.4,0c0.2,0,0.3,0,0.5,0c0.2-0.1,0.3-0.1,0.4-0.1
	l0.2-0.1c0.9-0.4,2,0,2.4,0.9c0.4,0.9,0,2-0.9,2.4l-0.2,0.1c-0.2,0.1-0.4,0.2-0.7,0.3c-0.4,0.1-0.8,0.2-1.2,0.2c-0.2,0-0.5,0-0.7,0
	c-0.3,0-0.5,0-0.7-0.1c-0.2,0-0.5-0.1-0.7-0.1c-0.2-0.1-0.4-0.1-0.6-0.2l-0.4-0.1c-0.8-0.3-1.5-1-1.5-2c0-0.1,0-0.2,0-0.3
	c0-0.2,0-0.4,0-0.6v-0.5c0-0.1,0-0.2,0-0.3c0-0.2,0-0.4,0-0.6v-0.5c0-0.2,0-0.3,0-0.5c0-0.2,0-0.5,0-0.7c0-0.2,0-0.4,0-0.6
	c0-0.2,0-0.5,0-0.7c0-0.2,0-0.5,0-0.7c0-0.4,0-0.4,0-0.8c0-0.4,0-0.4,0-0.8c0-0.3,0-0.5,0-0.9c0-0.3,0-0.6,0-0.9c0-0.4,0-0.4,0-1
	c0-0.3,0-0.7,0-1c0-0.3,0-0.7,0-1.1c0-0.4,0-0.8,0-1.2c0-0.4,0-0.9-0.1-1.4c0-0.5,0-0.9-0.1-1.3c0-0.4-0.1-0.9-0.1-1.4
	c0-0.5-0.1-1-0.1-1.5c0-0.5-0.1-1.1-0.1-1.7c0-0.7-0.1-1.3-0.1-1.8c0-0.5-0.1-1.1-0.1-1.7c0-0.6,0-1.1-0.1-1.6c0-0.5,0-1.1-0.1-1.7
	c0-0.5,0-1.1,0-1.5c0-0.5,0-0.9,0-1.4c0-0.5,0-1,0-1.5c0-0.7,0-0.7,0-1.4c0-0.6,0-0.6,0-1.2c0-0.3,0-0.7,0-1c0-0.3,0-0.7,0-1
	c0-0.3,0-0.7,0-0.9c0-0.2,0-0.5,0-0.7c0-0.3,0-0.5-0.1-0.7c0-0.2,0-0.3,0-0.4c0-0.2-0.1-0.4-0.1-0.7c0-0.4,0-0.4-0.1-0.6
	c0-0.2,0-0.2,0-0.5c0-0.3,0-0.3-0.1-0.5c0-0.2,0-0.4-0.1-0.6c0-0.2,0-0.2,0-0.4c0-0.1,0-0.2,0-0.2c0-0.1,0-0.2-0.1-0.3
	c-0.1-0.1-0.1-0.1-0.2-0.2c0,0-0.1-0.1-0.1-0.1c-0.2-0.1-0.2-0.1-0.4-0.3c-0.1-0.1-0.1-0.1-0.3-0.2c-0.2-0.1-0.2-0.1-0.5-0.3
	c-0.2-0.1-0.3-0.2-0.4-0.2c-0.1,0-0.2-0.1-0.2-0.1c-0.2-0.1-0.2-0.1-0.4-0.2c-0.1,0-0.2-0.1-0.3-0.1c-0.1,0-0.2-0.1-0.3-0.1
	c-0.1,0-0.3-0.1-0.4-0.1c-0.1,0-0.3,0-0.3-0.1c-0.1,0-0.2,0-0.3,0h-3c-0.2,0-0.4,0-0.6,0c-0.3,0-0.3,0-0.7,0c-0.3,0-0.6,0-0.9,0
	c-0.2,0-0.5,0-0.7,0c-0.2,0-0.5,0-0.7,0c-0.3,0-0.6,0-0.9,0c-0.3,0-0.5,0-0.8,0c-0.4,0-0.4,0-0.9,0.1c-0.4,0-0.4,0-0.9,0.1
	c-0.3,0-0.7,0-1,0.1c-0.4,0-0.7,0.1-1.1,0.1c-0.3,0-0.7,0.1-1,0.1c-0.3,0-0.7,0.1-1.1,0.1c-0.6,0.1-0.6,0.1-1.1,0.1
	c-0.5,0.1-0.5,0.1-1.1,0.1c-0.4,0-0.7,0.1-1,0.1c-0.4,0-0.7,0.1-1.1,0.1c-0.4,0-0.7,0-1.1,0c-0.4,0-0.7,0-1,0h-6.6
	c-0.2,0-0.4,0-0.6,0c-0.3,0-0.3,0-0.6,0c-0.5,0-1-0.2-1.4-0.4c-1.1-0.7-1.5-2.3-0.2-3.2C106.4,225.7,107.5,225.5,108.3,226.1
	L108.3,226.1z"/>
<path d="M90.6,279.7c0,0,0,0.1,0,0.1C90.6,279.8,90.6,279.8,90.6,279.7L90.6,279.7z M87.6,257.4C87.6,257.4,87.6,257.4,87.6,257.4
	C87.6,257.4,87.6,257.4,87.6,257.4z M87.6,257.5C87.6,257.5,87.6,257.6,87.6,257.5C87.6,257.6,87.6,257.6,87.6,257.5z M43.8,228.1
	c0.8-0.6,1.9-0.5,2.5,0.3c0.3,0.4,0.4,0.9,0.4,1.4c0.1,0.1,0.3,0.2,0.4,0.3c0.2,0.1,0.3,0.3,0.6,0.4c0.3,0.2,0.3,0.2,0.6,0.5
	c0.2,0.2,0.5,0.4,0.8,0.6c0.3,0.2,0.6,0.5,0.9,0.7c0.2,0.2,0.5,0.4,0.9,0.7c0.4,0.3,0.7,0.6,1.1,0.8c0.3,0.3,0.7,0.5,1.1,0.8
	c0.4,0.3,0.8,0.6,1.3,0.9c0.4,0.3,0.9,0.6,1.3,0.8c0.4,0.3,0.9,0.6,1.4,0.9c0.5,0.3,1,0.6,1.6,1c0.6,0.3,1.1,0.6,1.5,0.9
	c0.5,0.3,1,0.5,1.6,0.9c0.6,0.3,1.2,0.7,1.8,1c0.6,0.3,1.2,0.7,1.8,1c0.6,0.3,1.1,0.6,1.6,0.9c0.5,0.3,1,0.6,1.7,0.9
	c0.6,0.4,1.2,0.7,1.7,0.9c0.5,0.3,1,0.5,1.5,0.8c0.5,0.3,1.1,0.5,1.6,0.8c0.5,0.3,1,0.5,1.4,0.7c0.4,0.2,0.9,0.4,1.3,0.6
	c0.6,0.3,0.6,0.3,1.3,0.6c0.4,0.2,0.8,0.4,1.2,0.5c0.3,0.1,0.7,0.3,1.1,0.5c0.4,0.2,0.8,0.3,1.1,0.5c0.3,0.1,0.7,0.3,1,0.4
	c0.3,0.1,0.6,0.3,0.9,0.4c0.2,0.1,0.5,0.2,0.8,0.4c0.4,0.2,0.4,0.2,0.8,0.3c0.2,0.1,0.5,0.2,0.7,0.3c0.2,0.1,0.4,0.2,0.6,0.2
	c0.2,0.1,0.4,0.2,0.7,0.3c0.3,0.1,0.3,0.1,0.6,0.2c0.2,0.1,0.4,0.2,0.6,0.3c0.2,0.1,0.4,0.2,0.5,0.3c0.2,0.1,0.3,0.2,0.5,0.3
	c0.2,0.1,0.3,0.2,0.5,0.3c0.2,0.1,0.3,0.2,0.5,0.4c0.2,0.1,0.3,0.3,0.5,0.5c0.2,0.2,0.4,0.4,0.6,0.7c0.2,0.2,0.3,0.5,0.4,0.7
	c0.1,0.3,0.2,0.5,0.3,0.8c0,0.2,0,0.2,0.1,0.4c0.1,0.3,0.1,0.5,0.1,0.8c0,0.2,0,0.4,0,0.5c0,0.3-0.1,0.7-0.3,1
	c0,0.1-0.1,0.2-0.1,0.3c-0.1,0.2-0.1,0.2-0.1,0.4c0,0.1-0.1,0.2-0.1,0.2c0,0.1,0,0.2-0.1,0.3c0,0.1,0,0.3-0.1,0.4
	c0,0.1,0,0.3-0.1,0.5c0,0.3,0,0.5-0.1,0.6c0,0.1,0,0.2,0,0.3c0,0.2,0,0.2,0,0.5c0,0.3,0,0.3-0.1,0.6c0,0.1,0,0.3,0,0.5
	c0,0.4,0,0.4,0,0.7c0,0.2,0,0.5,0,0.7c0,0.4,0,0.4,0,0.8c0,0.3,0,0.5,0,0.8c0,0.3,0,0.6,0,0.9c0,0.3,0,0.5,0,0.7v0.8
	c0,0.3,0,0.6,0,0.9c0,0.2,0,0.4,0,0.6v5.8c0,0.1,0,0.2,0,0.3c0,0.2,0,0.2,0,0.5c0,0.2,0,0.3,0.1,0.4c0,0.2,0.1,0.4,0.1,0.6
	c0,0.1,0,0.1,0,0.2c0.2,0.1,0.4,0.1,0.5,0.1c0.2,0,0.4-0.1,0.6-0.1c0.2,0,0.2,0,0.5,0c0.2,0,0.4,0,0.6,0h1.1c0.3,0,0.5,0,0.8,0.1
	c0.3,0,0.6,0.1,0.9,0.2c0.1,0,0.3,0.1,0.6,0.2c0.2,0.1,0.4,0.1,0.6,0.2c0.3,0.1,0.4,0.1,0.6,0.2c0.2,0.1,0.5,0.1,0.7,0.2
	c0.2,0.1,0.4,0.1,0.5,0.2c0.2,0.1,0.2,0.1,0.5,0.1c0.3,0.1,0.3,0.1,0.5,0.1c0.1,0,0.3,0.1,0.4,0.1c0.1,0,0.3,0.1,0.4,0.1
	c0.2,0,0.2,0,0.4,0.1c0.1,0,0.2,0,0.3,0l0.2,0c1,0.1,1.8,0.9,1.7,1.9c-0.1,1-0.9,1.7-1.9,1.7l-0.2,0c-0.2,0-0.4,0-0.6-0.1
	c-0.2,0-0.2,0-0.4-0.1c-0.2,0-0.4-0.1-0.5-0.1c-0.2,0-0.4-0.1-0.6-0.1c-0.3-0.1-0.3-0.1-0.6-0.1c-0.3-0.1-0.3-0.1-0.5-0.2
	c-0.2-0.1-0.4-0.1-0.6-0.2c-0.2-0.1-0.4-0.1-0.6-0.2c-0.2-0.1-0.3-0.1-0.5-0.1c-0.2,0-0.4-0.1-0.7-0.2c-0.2-0.1-0.5-0.1-0.6-0.2
	c-0.1,0-0.1,0-0.3,0c-0.2,0-0.3,0-0.4,0h-1.1c-0.1,0-0.2,0-0.4,0c-0.2,0-0.2,0-0.5,0c-0.1,0-0.1,0-0.2,0c-0.1,0-0.2,0-0.4,0.1
	c-0.2,0.1-0.5,0.1-0.7,0.1c-0.3,0-0.5,0.1-0.7,0.1h-0.4c-0.8,0-1.5-0.4-1.9-1.1c-0.2-0.4-0.3-0.8-0.3-1.2c0-0.1,0-0.1,0-0.2
	c-0.1-0.1-0.1-0.3-0.1-0.4c-0.1-0.2-0.1-0.4-0.1-0.7c0-0.1,0-0.2-0.1-0.4c-0.1-0.3-0.1-0.5-0.1-0.8c0-0.3,0-0.3,0-0.5
	c0-0.2,0-0.4,0-0.6v-5.8c0-0.3,0-0.5,0-0.8c0-0.2,0-0.5,0-0.7v-0.8c0-0.3,0-0.6,0-0.9c0-0.3,0-0.5,0-0.8c0-0.3,0-0.6,0-0.9
	c0-0.4,0-0.4,0-0.8c0-0.3,0-0.5,0-0.7c0-0.3,0-0.3,0-0.7c0-0.3,0-0.5,0-0.7c0-0.3,0-0.3,0-0.5c0-0.3,0-0.3,0-0.5
	c0-0.2,0-0.4,0.1-0.5c0-0.1,0-0.3,0.1-0.5c0-0.3,0.1-0.5,0.1-0.7c0-0.2,0.1-0.4,0.1-0.5c0-0.2,0.1-0.4,0.1-0.5
	c0-0.2,0.1-0.4,0.2-0.6c0.1-0.2,0.1-0.2,0.2-0.4c0.1-0.1,0.1-0.3,0.2-0.4c0-0.3,0-0.3-0.1-0.5c-0.1-0.2-0.2-0.3-0.3-0.4
	c-0.1-0.1-0.2-0.2-0.3-0.2c-0.1-0.1-0.1-0.1-0.2-0.2c-0.1-0.1-0.2-0.1-0.3-0.2c-0.1-0.1-0.2-0.1-0.4-0.2c-0.1-0.1-0.3-0.1-0.4-0.2
	c-0.1-0.1-0.3-0.1-0.4-0.2c-0.3-0.1-0.3-0.1-0.5-0.2c-0.2-0.1-0.4-0.1-0.6-0.2c-0.3-0.1-0.5-0.2-0.7-0.3c-0.2-0.1-0.4-0.2-0.6-0.3
	c-0.4-0.1-0.4-0.1-0.8-0.3c-0.3-0.1-0.6-0.3-0.9-0.4c-0.3-0.1-0.5-0.2-0.9-0.4c-0.3-0.1-0.7-0.3-1-0.5c-0.3-0.1-0.7-0.3-1.1-0.5
	c-0.4-0.2-0.8-0.3-1.1-0.5c-0.3-0.1-0.7-0.3-1.1-0.5c-0.6-0.3-0.6-0.3-1.3-0.6c-0.4-0.2-0.9-0.4-1.3-0.6c-0.4-0.2-0.9-0.5-1.5-0.7
	c-0.5-0.3-1.1-0.5-1.6-0.8c-0.5-0.3-1.1-0.6-1.6-0.8c-0.5-0.3-1.1-0.6-1.7-0.9c-0.6-0.3-1.2-0.7-1.7-0.9c-0.5-0.3-1-0.5-1.6-0.9
	c-0.6-0.3-1.2-0.7-1.8-1c-0.6-0.3-1.2-0.7-1.8-1c-0.6-0.3-1.1-0.6-1.6-0.9c-0.5-0.3-1-0.6-1.6-0.9c-0.6-0.4-1.1-0.7-1.6-1
	c-0.5-0.3-0.9-0.6-1.4-0.9c-0.5-0.3-0.9-0.6-1.4-0.9c-0.5-0.3-0.9-0.6-1.3-0.9c-0.4-0.3-0.8-0.6-1.2-0.8c-0.4-0.3-0.7-0.5-1.1-0.8
	c-0.4-0.3-0.7-0.6-1-0.8c-0.2-0.2-0.5-0.4-0.8-0.6c-0.3-0.2-0.5-0.4-0.7-0.6c-0.3-0.3-0.3-0.3-0.6-0.5c-0.2-0.2-0.4-0.3-0.5-0.4
	c-0.1-0.1-0.3-0.2-0.4-0.3c-0.2-0.1-0.3-0.2-0.5-0.3c-0.1-0.1-0.2-0.1-0.3-0.2c-0.5-0.3-0.9-0.7-1.1-1.2c-0.4-1-0.2-2.2,0.9-2.7
	C43.7,228.2,43.7,228.2,43.8,228.1L43.8,228.1z"/>
<path d="M129.3,183.1c0.9-0.3,2,0.2,2.3,1.1l0.1,0.3c0.3,1-0.1,2.2-1.4,2.5c-0.2,0.1-0.3,0.1-0.5,0.2c-0.2,0.1-0.4,0.2-0.5,0.2
	c-0.2,0.1-0.2,0.1-0.3,0.1c-0.2,0.1-0.2,0.1-0.5,0.2c-0.1,0-0.2,0.1-0.3,0.1c-0.2,0.1-0.4,0.2-0.6,0.3c-0.2,0.1-0.4,0.2-0.6,0.3
	c-0.3,0.1-0.5,0.3-0.8,0.4c-0.2,0.1-0.5,0.2-0.8,0.3c-0.4,0.2-0.4,0.2-0.9,0.4c-0.3,0.1-0.6,0.3-1,0.4c-0.3,0.1-0.7,0.3-1.1,0.4
	c-0.4,0.2-0.8,0.3-1.2,0.4c-0.4,0.1-0.8,0.2-1.2,0.4c-0.4,0.1-0.9,0.3-1.4,0.4c-0.5,0.1-1,0.3-1.6,0.4c-0.5,0.1-1.1,0.2-1.6,0.3
	c-0.5,0.1-1.1,0.2-1.7,0.3c-0.6,0.1-1.2,0.2-1.8,0.3c-0.6,0.1-1.2,0.2-1.8,0.3c-0.6,0.1-1.2,0.2-1.9,0.3c-1,0.1-1,0.1-2,0.3
	c-0.6,0.1-1.3,0.2-2,0.3c-0.7,0.1-1.4,0.2-2.1,0.3c-0.7,0.1-1.5,0.2-2.2,0.3c-0.7,0.1-1.4,0.2-2.2,0.3c-0.8,0.1-1.5,0.2-2.3,0.3
	c-0.7,0.1-1.5,0.2-2.4,0.3c-0.8,0.1-1.6,0.2-2.3,0.3c-0.7,0.1-1.4,0.2-2.4,0.3c-0.9,0.1-1.8,0.2-2.6,0.2c-0.8,0.1-1.6,0.1-2.4,0.1
	c-0.8,0-1.6,0-2.4,0c-0.8,0-1.6,0-2.4,0c-0.8,0-1.6,0-2.3,0c-0.8,0-1.5-0.1-2.3-0.1c-0.8-0.1-1.5-0.1-2.2-0.2
	c-0.7-0.1-1.4-0.1-2.1-0.2c-0.7-0.1-1.5-0.2-2.2-0.3c-0.7-0.1-1.4-0.2-2.1-0.4c-0.7-0.1-1.3-0.2-1.8-0.4c-0.5-0.1-1.1-0.3-1.8-0.4
	c-0.7-0.2-1.4-0.3-2-0.5c-0.6-0.2-1.2-0.3-1.7-0.5c-0.6-0.2-1.1-0.4-1.7-0.6c-0.6-0.2-1.2-0.5-1.8-0.7c-0.5-0.3-1-0.5-1.5-0.7
	c-0.5-0.2-1-0.5-1.5-0.9c-0.6-0.3-1.1-0.7-1.5-1c-0.4-0.3-0.9-0.6-1.3-1c-0.4-0.3-0.8-0.7-1.2-1.1c-0.4-0.4-0.8-0.8-1.1-1.1
	c-0.3-0.4-0.6-0.7-0.9-1c-0.2-0.3-0.5-0.7-0.8-1.1c-0.3-0.4-0.5-0.8-0.7-1.2c-0.2-0.4-0.4-0.7-0.6-1.1c-0.2-0.4-0.3-0.7-0.5-1.2
	c-0.2-0.5-0.3-0.9-0.3-1.3c-0.1-0.4-0.1-0.8-0.1-1.2v-1c0-0.4,0-0.8,0-1.1c0-0.3,0.1-0.7,0.1-1c0.1-0.4,0.1-0.7,0.2-1.1
	c0.1-0.4,0.2-0.7,0.3-1.1c0.1-0.4,0.2-0.8,0.4-1.1c0.1-0.4,0.3-0.7,0.5-1.1c0.2-0.4,0.4-0.8,0.5-1.1c0.2-0.3,0.4-0.7,0.6-1
	c0.2-0.4,0.4-0.7,0.7-1.1c0.3-0.4,0.5-0.8,0.8-1.1c0.2-0.3,0.5-0.7,0.8-1.1c0.3-0.4,0.6-0.8,0.9-1.2c0.3-0.4,0.7-0.8,0.9-1.2
	c0.3-0.4,0.6-0.8,1-1.2c0.3-0.4,0.7-0.8,1.1-1.2c0.4-0.4,0.7-0.7,1.1-1.1c0.4-0.4,0.7-0.7,1-0.9c0.3-0.2,0.6-0.5,1-0.8
	c0.4-0.3,0.8-0.6,1.1-0.9c0.5-0.3,0.5-0.3,0.9-0.7c0.3-0.3,0.7-0.5,1.1-0.7c0.4-0.2,0.7-0.5,1.1-0.7c0.4-0.2,0.7-0.4,1-0.6
	c0.3-0.2,0.6-0.4,1-0.6c0.4-0.2,0.8-0.4,1.1-0.6c0.3-0.2,0.6-0.3,1-0.5c0.3-0.2,0.7-0.3,1-0.5c0.3-0.1,0.6-0.3,0.9-0.5
	c0.4-0.2,0.7-0.4,0.9-0.5c0.2-0.1,0.5-0.2,0.7-0.4c0.3-0.2,0.6-0.3,0.9-0.5c0.4-0.2,0.4-0.2,0.7-0.4c0.4-0.2,0.4-0.2,0.7-0.4
	c0.2-0.1,0.5-0.2,0.7-0.4c0.3-0.1,0.5-0.3,0.7-0.4c0.2-0.1,0.4-0.2,0.6-0.3c0.2-0.1,0.4-0.2,0.6-0.3c0.2-0.1,0.3-0.1,0.5-0.2
	c0.3-0.1,0.6-0.2,0.9-0.2c0.2,0,0.4,0,0.6,0c0.3,0,0.5,0,0.8,0c0.3,0,0.6,0.1,0.9,0.2c0.9,0.3,1.5,1.3,1.2,2.2
	c-0.3,0.9-1.3,1.4-2.3,1.1c-0.1,0-0.2-0.1-0.3-0.1c-0.1,0-0.2,0-0.3,0c-0.3,0.1-0.4,0.1-0.5,0.1c-0.1,0.1-0.3,0.1-0.5,0.2
	c-0.2,0.1-0.4,0.2-0.6,0.3c-0.2,0.1-0.4,0.2-0.6,0.3c-0.2,0.1-0.5,0.3-0.7,0.4c-0.4,0.2-0.4,0.2-0.7,0.4c-0.4,0.2-0.4,0.2-0.7,0.4
	c-0.2,0.1-0.5,0.3-0.8,0.5c-0.3,0.2-0.6,0.4-0.9,0.5c-0.2,0.1-0.5,0.2-0.8,0.4c-0.4,0.2-0.7,0.4-1,0.6c-0.3,0.1-0.6,0.3-0.9,0.5
	c-0.3,0.2-0.6,0.3-0.9,0.5c-0.3,0.1-0.6,0.3-1,0.5c-0.4,0.2-0.7,0.4-1,0.6c-0.3,0.2-0.6,0.3-0.9,0.5c-0.3,0.2-0.6,0.4-1,0.6
	c-0.3,0.2-0.6,0.4-0.9,0.6c-0.5,0.3-0.5,0.3-0.9,0.7c-0.3,0.2-0.6,0.5-0.9,0.7c-0.4,0.3-0.7,0.6-0.9,0.8c-0.3,0.2-0.5,0.5-0.9,0.8
	c-0.3,0.3-0.7,0.7-1,1c-0.3,0.4-0.7,0.7-1,1.1c-0.3,0.4-0.6,0.7-0.9,1.1c-0.3,0.3-0.6,0.7-0.9,1.1c-0.3,0.4-0.6,0.8-0.8,1.1
	c-0.3,0.4-0.5,0.7-0.7,1.1c-0.2,0.3-0.5,0.7-0.7,1c-0.2,0.4-0.4,0.7-0.6,1c-0.2,0.3-0.3,0.6-0.5,0.9c-0.2,0.3-0.3,0.6-0.5,0.9
	c-0.1,0.3-0.3,0.6-0.4,0.9c-0.1,0.3-0.2,0.6-0.3,0.9c-0.1,0.3-0.2,0.6-0.2,0.9c-0.1,0.3-0.1,0.6-0.2,0.9c0,0.3-0.1,0.6-0.1,0.8
	c0,0.2,0,0.5,0,0.8v1c0,0.2,0,0.5,0.1,0.7c0,0.2,0.1,0.4,0.2,0.7c0.1,0.3,0.2,0.6,0.4,0.9c0.1,0.3,0.3,0.5,0.4,0.8
	c0.1,0.3,0.3,0.6,0.6,0.9c0.2,0.4,0.5,0.7,0.7,0.9c0.2,0.2,0.4,0.5,0.7,0.8c0.3,0.3,0.6,0.6,0.9,0.9c0.3,0.3,0.7,0.6,1,0.9
	c0.4,0.3,0.7,0.6,1.1,0.8c0.4,0.3,0.8,0.5,1.3,0.8c0.5,0.3,0.9,0.5,1.3,0.7c0.4,0.2,0.9,0.4,1.4,0.7c0.5,0.2,1,0.4,1.5,0.6
	c0.5,0.2,1.1,0.4,1.6,0.5c0.5,0.2,1.1,0.3,1.6,0.5c0.5,0.2,1.1,0.3,1.8,0.5c0.7,0.2,1.3,0.3,1.8,0.4c0.5,0.1,1.1,0.2,1.7,0.3
	c0.6,0.1,1.3,0.2,2,0.3c0.7,0.1,1.4,0.2,2.1,0.3c0.7,0.1,1.4,0.1,2,0.2c0.7,0.1,1.4,0.1,2.1,0.1c0.7,0,1.5,0.1,2.2,0.1
	c0.7,0,1.5,0,2.3,0c0.8,0,1.6,0,2.4,0c0.8,0,1.6,0,2.3,0c0.7,0,1.4-0.1,2.2-0.1c0.8-0.1,1.6-0.1,2.5-0.2c0.9-0.1,1.7-0.2,2.3-0.3
	c0.6-0.1,1.4-0.2,2.2-0.3c0.8-0.1,1.6-0.2,2.3-0.3c0.7-0.1,1.5-0.2,2.3-0.3c0.8-0.1,1.5-0.2,2.2-0.3c0.7-0.1,1.4-0.2,2.2-0.3
	c0.7-0.1,1.5-0.2,2.1-0.3c0.7-0.1,1.3-0.2,2-0.3c0.9-0.1,0.9-0.1,2-0.3c0.7-0.1,1.3-0.2,1.9-0.3c0.6-0.1,1.2-0.2,1.7-0.3
	c0.6-0.1,1.1-0.2,1.7-0.3c0.6-0.1,1.1-0.2,1.6-0.3c0.5-0.1,1-0.2,1.5-0.3c0.5-0.1,1-0.2,1.4-0.4c0.4-0.1,0.9-0.3,1.3-0.4
	c0.4-0.1,0.8-0.2,1.1-0.3c0.3-0.1,0.6-0.2,1-0.4c0.4-0.1,0.7-0.3,1-0.4c0.3-0.1,0.6-0.2,0.9-0.4c0.4-0.2,0.4-0.2,0.9-0.4
	c0.3-0.1,0.6-0.3,0.9-0.4c0.2-0.1,0.4-0.2,0.6-0.3c0.2-0.1,0.5-0.2,0.7-0.3c0.2-0.1,0.4-0.2,0.5-0.2c0.2-0.1,0.4-0.2,0.6-0.3
	c0.2-0.1,0.2-0.1,0.4-0.2c0.2-0.1,0.2-0.1,0.4-0.2c0.1,0,0.1-0.1,0.3-0.1C128.3,183.6,128.7,183.3,129.3,183.1L129.3,183.1z
	 M129.2,183.7c0.1,0,0.1,0,0.2,0C129.3,183.7,129.3,183.7,129.2,183.7L129.2,183.7z"/>
<path d="M83.4,153.7c0,0,0.1,0.1,0.1,0.1C83.5,153.8,83.5,153.8,83.4,153.7L83.4,153.7z M141.7,173.3
	C141.7,173.3,141.7,173.3,141.7,173.3C141.7,173.3,141.7,173.3,141.7,173.3L141.7,173.3z M139.3,173.8
	C139.3,173.8,139.3,173.8,139.3,173.8C139.3,173.8,139.3,173.8,139.3,173.8z M138.5,174.8L138.5,174.8L138.5,174.8z M86.8,152.5
	c0.3,0.9-0.2,2-1.1,2.3c-0.9,0.3-2-0.2-2.3-1.1c-0.2-0.2-0.4-0.5-0.5-0.8c-0.1-0.3-0.2-0.7-0.2-1.1v-0.5c0-0.5,0.1-0.9,0.3-1.4
	c0.2-0.3,0.4-0.6,0.6-0.8c0.2-0.3,0.5-0.5,0.9-0.7c0.3-0.2,0.6-0.3,0.9-0.5c0.2-0.1,0.4-0.1,0.5-0.2c0.2-0.1,0.4-0.1,0.7-0.1
	c0.3,0,0.5-0.1,0.8-0.1c0.3,0,0.5,0,0.8,0H89c0.4,0,0.7,0,1.1,0.1c0.4,0,0.8,0.1,1.3,0.2c0.4,0.1,0.8,0.2,1.2,0.3
	c0.4,0.1,0.9,0.3,1.4,0.5c0.5,0.2,0.9,0.3,1.4,0.5c0.4,0.2,0.9,0.4,1.5,0.6c0.6,0.2,1.1,0.4,1.5,0.6c0.5,0.2,1,0.4,1.6,0.7
	c0.6,0.3,1.2,0.5,1.9,0.8c0.6,0.3,1.2,0.6,1.9,0.8c0.6,0.3,1.3,0.6,1.9,0.8c0.6,0.3,1.3,0.5,2,0.8c0.7,0.3,1.3,0.5,2,0.8
	c0.6,0.3,1.3,0.5,2,0.8c0.7,0.3,1.4,0.5,2,0.8c0.6,0.3,1.3,0.5,2,0.8c1,0.4,1,0.4,1.9,0.8c0.6,0.2,1.2,0.5,1.9,0.8
	c0.6,0.3,1.2,0.5,1.7,0.7c0.5,0.2,1,0.5,1.6,0.7c0.5,0.3,1.1,0.5,1.6,0.8c0.5,0.2,1,0.5,1.5,0.7c0.4,0.2,0.9,0.4,1.3,0.7
	c0.4,0.2,0.9,0.5,1.3,0.7c0.4,0.3,0.8,0.5,1.2,0.7c0.3,0.2,0.7,0.4,1.1,0.7c0.4,0.3,0.8,0.5,1.2,0.8c0.3,0.2,0.7,0.5,1,0.8
	c0.3,0.2,0.6,0.5,0.9,0.7c0.3,0.2,0.6,0.5,0.9,0.7c0.3,0.2,0.5,0.4,0.8,0.6c0.4,0.3,0.4,0.3,0.7,0.5c0.2,0.2,0.4,0.3,0.6,0.4
	c0.2,0.1,0.4,0.3,0.6,0.4c0.2,0.1,0.4,0.3,0.6,0.4c0.1,0.1,0.3,0.2,0.4,0.3c0.2,0.1,0.2,0.1,0.4,0.2c0.2,0.1,0.3,0.2,0.5,0.3
	c0.2,0.1,0.2,0.1,0.5,0.3c0.3,0.2,0.3,0.2,0.5,0.3c0.1,0,0.1,0.1,0.2,0.1c0.3-0.2,0.6-0.3,0.9-0.3c1,0,1.8,0.8,1.8,1.8v0.3
	c0,0.2,0,0.4,0,0.6c0,0.2,0,0.4-0.1,0.7c-0.1,0.3-0.2,0.6-0.4,0.9c-0.5,0.9-1.5,1.2-2.5,0.8c-0.4-0.2-0.8-0.5-1.1-0.9
	c-0.1-0.2-0.2-0.3-0.3-0.5c-0.1-0.1-0.1-0.1-0.1-0.2c0,0-0.1-0.1-0.2-0.1c-0.1,0-0.1-0.1-0.2-0.2c-0.2-0.2-0.2-0.2-0.5-0.3
	c-0.3-0.2-0.3-0.2-0.5-0.3c-0.1-0.1-0.2-0.1-0.3-0.2c-0.2-0.1-0.2-0.1-0.5-0.3c-0.2-0.1-0.4-0.3-0.6-0.4c-0.1-0.1-0.3-0.2-0.5-0.3
	c-0.2-0.1-0.4-0.3-0.6-0.4c-0.2-0.2-0.5-0.3-0.8-0.6c-0.4-0.3-0.4-0.3-0.7-0.5c-0.3-0.2-0.5-0.4-0.9-0.7c-0.3-0.2-0.6-0.4-0.8-0.6
	c-0.3-0.2-0.6-0.5-1-0.7c-0.3-0.2-0.6-0.5-0.9-0.7c-0.3-0.2-0.6-0.4-1-0.7c-0.4-0.2-0.7-0.5-1-0.7c-0.3-0.2-0.7-0.4-1.1-0.6
	c-0.4-0.2-0.8-0.5-1.2-0.7c-0.4-0.2-0.8-0.4-1.3-0.7c-0.4-0.2-0.9-0.4-1.4-0.7c-0.5-0.2-1-0.5-1.5-0.7c-0.5-0.2-1-0.5-1.5-0.7
	c-0.5-0.2-1-0.5-1.7-0.7c-0.6-0.3-1.2-0.5-1.8-0.7c-0.9-0.4-0.9-0.4-1.9-0.8c-0.7-0.3-1.3-0.5-2-0.8c-0.6-0.3-1.3-0.5-2-0.8
	c-0.7-0.3-1.4-0.5-2-0.8c-0.7-0.3-1.3-0.5-2-0.8c-0.7-0.3-1.3-0.6-2-0.8c-0.6-0.3-1.3-0.5-2-0.8c-0.7-0.3-1.3-0.6-1.9-0.8
	c-0.6-0.3-1.2-0.5-1.8-0.8c-0.6-0.2-1.1-0.5-1.6-0.7c-0.5-0.2-1-0.4-1.5-0.6c-0.5-0.2-1-0.4-1.4-0.6c-0.4-0.2-0.8-0.3-1.3-0.5
	c-0.4-0.2-0.8-0.3-1.2-0.4c-0.3-0.1-0.7-0.2-1-0.3c-0.3-0.1-0.5-0.1-0.7-0.1c-0.2,0-0.5,0-0.7,0h-0.8c-0.2,0-0.4,0-0.6,0
	c-0.2,0-0.3,0-0.4,0c-0.1,0-0.2,0-0.3,0.1c-0.1,0-0.2,0.1-0.2,0.1c0,0,0,0-0.1,0.1c-0.1,0-0.1,0.1-0.1,0.1
	C86.5,151.8,86.7,152.1,86.8,152.5L86.8,152.5z"/>
<path d="M142.7,175.8C142.7,175.8,142.7,175.8,142.7,175.8C142.7,175.8,142.7,175.8,142.7,175.8z M142.9,170.5c-0.2,0-0.2,0-0.3-0.1
	c-0.1,0-0.1,0-0.2,0c-0.2,0-0.2,0-0.3,0c-0.1,0-0.1,0-0.2,0h-0.4c0,0-0.1,0-0.1,0c0,0-0.1,0.1-0.2,0.1c-0.1,0.1-0.2,0.1-0.3,0.2
	c-0.1,0.1-0.1,0.1-0.2,0.1c0,0,0,0,0,0c0,0.2,0,0.3-0.1,0.6c0,0,0,0.1,0,0.1c0,0.1,0,0.1,0.1,0.2c0.1,0.2,0.1,0.2,0.1,0.4
	c0,0.1,0.1,0.1,0.1,0.2c0,0.1,0.1,0.1,0.1,0.2c0,0.1,0.1,0.1,0.1,0.2c0.1,0.1,0.1,0.2,0.2,0.2c0.1,0.1,0.1,0.1,0.2,0.2
	c0.2,0.2,0.3,0.3,0.4,0.5c0.1,0.1,0.1,0.2,0.2,0.3c0-0.1,0.1-0.2,0.1-0.3c0.1-0.2,0.1-0.4,0.2-0.6c0.1-0.3,0.1-0.3,0.2-0.7
	c0.1-0.2,0.1-0.4,0.2-0.7c0.1-0.4,0.1-0.4,0.2-0.7c0-0.1,0.1-0.3,0.1-0.4C143,170.5,142.9,170.5,142.9,170.5z M138.5,167.9
	c-0.4-0.3-0.7-0.7-0.9-1.1c-0.1-0.3-0.2-0.6-0.3-0.9c-0.1-0.3-0.1-0.5-0.1-0.6c-0.1-0.2-0.1-0.2-0.1-0.5c0-0.3,0-0.3-0.1-0.6
	c0-0.3,0-0.3-0.1-0.7c0-0.2-0.1-0.5-0.1-0.8c-0.1-0.4-0.1-0.4-0.1-0.8c0-0.3-0.1-0.6-0.1-1c0-0.3-0.1-0.7-0.1-1.1
	c0-0.6,0-0.6-0.1-1.2c0-0.5-0.1-0.9-0.1-1.4c0-0.4,0-0.9-0.1-1.5c0-0.5,0-1,0-1.5c0-0.5,0-1.1,0-1.7c0-0.6,0-1.1,0-1.6v-9.1
	c0-0.4,0-0.9,0-1.3c0-0.5,0-0.9,0-1.2V136c0-0.3,0-0.7,0-0.9c0-0.3,0-0.7,0.1-1c0-0.3,0.1-0.5,0.1-0.8c0.1-0.3,0.1-0.5,0.2-0.8
	c0.1-0.2,0.1-0.4,0.2-0.6c0.1-0.2,0.2-0.5,0.3-0.6c0.1-0.2,0.3-0.5,0.5-0.7c0.3-0.4,0.7-0.7,1.2-0.8c0.3-0.1,0.6-0.1,1-0.1
	c0.6,0,1.1,0.3,1.5,0.7c0.2,0.2,0.5,0.4,0.6,0.7c0.1,0.2,0.3,0.4,0.4,0.6c0.1,0.2,0.2,0.5,0.3,0.7c0.1,0.2,0.2,0.5,0.3,0.7
	c0.1,0.3,0.2,0.6,0.3,0.9c0.1,0.3,0.1,0.5,0.2,0.9c0.1,0.3,0.1,0.6,0.2,0.9c0,0.3,0.1,0.6,0.1,1c0,0.4,0.1,0.8,0.1,1.1
	s0,0.7,0.1,1.1c0,0.6,0,0.6,0,1.1c0,0.6,0,0.6,0,1.2c0,0.7,0,0.7,0.1,1.2c0,0.3,0,0.7,0.1,1.2c0,0.4,0.1,0.9,0.1,1.3
	c0,0.5,0.1,0.9,0.1,1.4c0,0.5,0.1,0.9,0.1,1.4c0,0.4,0.1,0.9,0.1,1.4c0,0.5,0.1,0.9,0.1,1.4c0.1,0.4,0.1,0.9,0.2,1.4
	c0.1,0.5,0.1,0.9,0.2,1.4c0.1,0.4,0.1,0.9,0.2,1.3c0.1,0.6,0.1,0.6,0.2,1.1c0,0.3,0.1,0.7,0.2,1.1c0.1,0.4,0.1,0.7,0.2,1
	c0.1,0.3,0.1,0.6,0.2,0.9c0.1,0.3,0.1,0.4,0.2,0.9c0.1,0.3,0.1,0.5,0.2,0.8c0.1,0.4,0.1,0.4,0.2,0.7c0,0.2,0.1,0.5,0.1,0.7
	c0,0.2,0.1,0.4,0.1,0.6c0.1,0.3,0.1,0.3,0.1,0.6c0.1,0.3,0.1,0.3,0.1,0.6c0,0.2,0,0.2,0.1,0.5c0.4,0.3,0.7,0.9,0.7,1.5v0.2
	c0,0.1,0,0.3,0,0.6c0,0.3,0,0.5,0,0.7l-0.1,0.4c0,0.3,0,0.3-0.1,0.6c0,0.2-0.1,0.4-0.1,0.6c0,0.2-0.1,0.4-0.1,0.6
	c-0.1,0.3-0.1,0.3-0.1,0.6c-0.1,0.2-0.1,0.5-0.2,0.7c-0.1,0.3-0.1,0.5-0.2,0.8c-0.1,0.2-0.1,0.4-0.2,0.7c-0.1,0.4-0.1,0.4-0.2,0.7
	c-0.1,0.3-0.1,0.5-0.2,0.7c-0.1,0.4-0.1,0.4-0.2,0.7c-0.1,0.2-0.1,0.5-0.2,0.7c-0.1,0.2-0.1,0.4-0.2,0.6c-0.1,0.2-0.1,0.4-0.2,0.5
	c-0.1,0.2-0.2,0.4-0.2,0.6c-0.1,0.2-0.2,0.3-0.3,0.6c-0.2,0.3-0.3,0.5-0.5,0.7c-0.2,0.3-0.5,0.5-0.8,0.7c-0.4,0.2-0.8,0.3-1.2,0.3
	c-0.3,0-0.5,0-0.8-0.1c-0.5-0.1-0.9-0.4-1.2-0.8c-0.2-0.3-0.4-0.6-0.5-1c0-0.2-0.1-0.3-0.1-0.6c0-0.1,0-0.2-0.1-0.3c0,0,0-0.1,0-0.1
	c0-0.1-0.1-0.1-0.1-0.1c-0.1-0.1-0.3-0.3-0.4-0.4c-0.1-0.2-0.3-0.3-0.4-0.5c-0.1-0.2-0.2-0.4-0.3-0.5c-0.1-0.2-0.2-0.4-0.3-0.5
	c-0.1-0.2-0.1-0.4-0.2-0.5c-0.1-0.2-0.1-0.2-0.1-0.4c-0.1-0.2-0.1-0.2-0.1-0.4c-0.2-0.5-0.2-0.9-0.1-1.4c0-0.2,0-0.2,0.1-0.3
	c0-0.1,0-0.1,0-0.2c0-0.2,0-0.4,0.1-0.6c0.1-0.3,0.1-0.6,0.3-0.9c0.1-0.2,0.3-0.5,0.5-0.7C138.2,168.3,138.4,168.1,138.5,167.9
	C138.5,168,138.5,167.9,138.5,167.9L138.5,167.9z M143.1,167.6L143.1,167.6C143.1,167.6,143.1,167.6,143.1,167.6z M141.2,166.8
	c0.1,0,0.2,0,0.3,0h0.4c0.2,0,0.4,0,0.6,0c0.2,0,0.2,0,0.4,0.1c0.2,0,0.4,0.1,0.6,0.1c0,0,0,0,0.1,0v-0.2c0-0.1,0-0.2,0-0.4
	c0-0.3,0-0.3,0-0.6c0-0.2,0-0.3,0-0.4c0-0.2,0-0.2,0-0.4c0-0.2,0-0.2-0.1-0.4c0-0.3,0-0.3-0.1-0.5c0-0.2,0-0.2-0.1-0.5
	c-0.1-0.3-0.1-0.3-0.1-0.5c0-0.2-0.1-0.4-0.1-0.6c0-0.2-0.1-0.4-0.1-0.7c-0.1-0.3-0.1-0.3-0.1-0.7c-0.1-0.3-0.1-0.6-0.2-0.9
	c-0.1-0.4-0.1-0.6-0.2-0.9c-0.1-0.3-0.1-0.6-0.2-1c-0.1-0.3-0.1-0.7-0.2-1.1c-0.1-0.4-0.1-0.8-0.2-1.1c-0.1-0.5-0.1-0.5-0.2-1.2
	c-0.1-0.4-0.1-0.9-0.2-1.3c-0.1-0.5-0.1-0.9-0.2-1.4c-0.1-0.5-0.1-1-0.2-1.4c-0.1-0.5-0.1-0.9-0.1-1.4c-0.1-0.5-0.1-1-0.1-1.4
	c0-0.5-0.1-0.9-0.1-1.4c0-0.5-0.1-1-0.1-1.4c0-0.5-0.1-0.9-0.1-1.4c0-0.5,0-0.9-0.1-1.2c0-0.6,0-0.6,0-1.2c0-0.7,0-0.7-0.1-1.3
	c0-0.5,0-0.5,0-1.1c0-0.3,0-0.7,0-1c0-0.3-0.1-0.7-0.1-1c0-0.3-0.1-0.6-0.1-0.9c0-0.2-0.1-0.5-0.1-0.7c-0.1-0.3-0.1-0.5-0.2-0.7
	c0-0.1-0.1-0.2-0.1-0.3c0,0.1,0,0.2,0,0.2c0,0.2,0,0.4-0.1,0.6c0,0.2,0,0.5,0,0.8v3.2c0,0.3,0,0.7,0,1.1c0,0.5,0,0.9,0,1.3v9.1
	c0,0.4,0,1,0,1.6c0,0.6,0,1.2,0,1.7c0,0.5,0,1,0,1.5c0,0.5,0,1,0.1,1.4c0,0.4,0,0.8,0.1,1.3c0,0.7,0,0.7,0.1,1.2c0,0.3,0,0.7,0.1,1
	c0,0.3,0.1,0.6,0.1,0.9c0,0.4,0,0.4,0.1,0.8c0,0.2,0.1,0.5,0.1,0.7c0.1,0.3,0.1,0.3,0.1,0.7c0,0.3,0,0.3,0.1,0.5
	c0,0.2,0,0.2,0.1,0.5c0,0.1,0.1,0.3,0.1,0.5c0,0.1,0,0.1,0,0.2C141.1,165.6,141.3,166.2,141.2,166.8L141.2,166.8z M140.7,165.3
	C140.7,165.3,140.7,165.3,140.7,165.3L140.7,165.3L140.7,165.3z"/>
<path d="M133.4,182.1C133.4,182.1,133.4,182.1,133.4,182.1C133.4,182,133.4,182.1,133.4,182.1z M128.3,195.2
	C128.3,195.2,128.3,195.2,128.3,195.2C128.3,195.2,128.3,195.2,128.3,195.2z M138.2,197.4L138.2,197.4L138.2,197.4z M133.3,182.3
	c-0.1,0.1-0.1,0.2-0.1,0.2c-0.1,0.2-0.1,0.2-0.1,0.3c-0.1,0.2-0.1,0.2-0.2,0.5c-0.1,0.2-0.1,0.4-0.2,0.6c-0.1,0.3-0.1,0.3-0.2,0.7
	c-0.1,0.2-0.2,0.5-0.2,0.7c-0.1,0.3-0.2,0.6-0.3,0.8c-0.1,0.4-0.1,0.4-0.3,0.8c-0.1,0.3-0.2,0.6-0.3,0.9c-0.1,0.3-0.2,0.6-0.3,0.8
	c-0.1,0.4-0.1,0.4-0.3,0.8c-0.1,0.3-0.2,0.6-0.3,0.8c-0.1,0.3-0.2,0.5-0.3,0.7c-0.1,0.3-0.2,0.5-0.3,0.7c-0.1,0.3-0.1,0.3-0.3,0.6
	c-0.1,0.3-0.1,0.3-0.2,0.6c0,0.1-0.1,0.1-0.1,0.2c0.1,0.1,0.3,0.1,0.5,0.2c0.2,0.1,0.2,0.1,0.4,0.2c0.2,0.1,0.4,0.2,0.6,0.3
	c0.2,0.1,0.3,0.2,0.5,0.2c0.2,0.1,0.4,0.2,0.6,0.3c0.3,0.2,0.3,0.2,0.6,0.3c0.2,0.1,0.4,0.2,0.6,0.3c0.2,0.1,0.4,0.2,0.6,0.3
	c0.1,0.1,0.3,0.2,0.5,0.3c0.2,0.1,0.5,0.2,0.7,0.4c0.2,0.1,0.3,0.2,0.4,0.2c0.3,0.1,0.3,0.1,0.5,0.3c0.2,0.1,0.4,0.2,0.6,0.3
	c0.1,0.1,0.2,0.1,0.3,0.1c0.2,0.1,0.3,0.1,0.5,0.2c0.2,0.1,0.2,0.1,0.5,0.2c0,0,0,0,0,0c0.1-0.1,0.1-0.2,0.1-0.3
	c0.1-0.2,0.1-0.2,0.1-0.5c0.1-0.2,0.1-0.2,0.2-0.5c0-0.1,0.1-0.3,0.1-0.4c0.1-0.2,0.1-0.4,0.2-0.6c0.1-0.3,0.1-0.3,0.1-0.5
	c0.1-0.3,0.1-0.3,0.2-0.6c0.1-0.3,0.1-0.3,0.2-0.6c0.1-0.2,0.1-0.4,0.2-0.6c0.1-0.2,0.1-0.4,0.2-0.6c0.1-0.2,0.1-0.4,0.2-0.6
	c0.1-0.2,0.1-0.4,0.2-0.6c0.1-0.4,0.1-0.4,0.2-0.7c0.1-0.3,0.1-0.3,0.2-0.7c0.1-0.3,0.1-0.3,0.2-0.7c0.1-0.2,0.1-0.4,0.2-0.7
	c0.1-0.4,0.1-0.4,0.2-0.7c0.1-0.3,0.1-0.3,0.2-0.6c0.1-0.2,0.1-0.5,0.2-0.7c0.1-0.3,0.1-0.3,0.2-0.6c0.1-0.2,0.1-0.3,0.1-0.5
	c0.1-0.3,0.1-0.3,0.2-0.5c0.1-0.2,0.1-0.2,0.1-0.4c0-0.1,0-0.1,0.1-0.2c0.1-0.2,0.1-0.2,0.1-0.5c0-0.1,0.1-0.2,0.1-0.3v0
	c-0.1,0-0.2-0.1-0.3-0.1c-0.2-0.1-0.4-0.1-0.5-0.1c-0.1,0-0.3,0-0.4-0.1c-0.1,0-0.3,0-0.5,0c-0.2,0-0.2,0-0.4,0c-0.1,0-0.3,0-0.4,0
	c-0.1,0-0.3,0-0.4,0h-1.8c-0.1,0-0.2,0-0.3,0c-0.1,0-0.1,0-0.2,0c-0.1,0-0.3,0.1-0.4,0.1c-0.2,0-0.3,0.1-0.4,0.1l-0.2,0.1
	c-0.7,0.2-1.3,0-1.8-0.5C133.5,182.2,133.4,182.3,133.3,182.3L133.3,182.3z M127.9,196.4c-0.1,0-0.2,0-0.2,0c-0.4,0.1-0.8,0.1-1.2,0
	c-1.2-0.3-1.9-1.6-1.3-2.8c0.1-0.2,0.1-0.2,0.2-0.5c0.1-0.3,0.1-0.3,0.2-0.5c0.1-0.1,0.1-0.2,0.1-0.3c0.1-0.2,0.1-0.2,0.2-0.4
	c0.1-0.2,0.1-0.2,0.2-0.5c0.1-0.3,0.1-0.3,0.2-0.6c0.1-0.3,0.1-0.3,0.3-0.6c0.1-0.2,0.2-0.4,0.3-0.6c0.1-0.2,0.2-0.5,0.3-0.7
	c0.1-0.2,0.2-0.5,0.3-0.7c0.1-0.4,0.1-0.4,0.3-0.8c0.1-0.2,0.2-0.5,0.3-0.8c0.1-0.3,0.2-0.6,0.3-0.8c0.1-0.4,0.1-0.4,0.3-0.8
	c0.1-0.2,0.2-0.5,0.2-0.8c0.1-0.3,0.2-0.6,0.3-0.8c0.1-0.3,0.1-0.3,0.2-0.7c0.1-0.2,0.2-0.5,0.3-0.7c0.1-0.3,0.1-0.3,0.2-0.5
	c0.1-0.2,0.1-0.2,0.2-0.5c0.1-0.2,0.2-0.4,0.3-0.6c0.1-0.3,0.3-0.5,0.5-0.7c0.2-0.3,0.5-0.5,0.8-0.7c0.4-0.2,0.9-0.3,1.5-0.3
	c0.5,0,1,0.2,1.3,0.6l0.1,0c0.2-0.1,0.4-0.1,0.6-0.2c0.2-0.1,0.4-0.1,0.6-0.1c0.2,0,0.4-0.1,0.6-0.1c0.1,0,0.3,0,0.5,0h1.8
	c0.2,0,0.4,0,0.6,0c0.2,0,0.4,0,0.5,0c0.3,0,0.3,0,0.5,0c0.2,0,0.4,0,0.5,0.1c0.2,0,0.3,0,0.5,0.1c0.2,0,0.4,0.1,0.7,0.1
	c0.3,0.1,0.7,0.1,0.9,0.3c0.3,0.1,0.6,0.3,0.8,0.4c0.3,0.2,0.6,0.4,0.8,0.7c0.3,0.4,0.5,0.8,0.5,1.3c0,0.3,0,0.5,0,0.7
	c0,0.2,0,0.4-0.1,0.6c0,0.3-0.1,0.5-0.1,0.8c-0.1,0.3-0.1,0.3-0.1,0.5c0,0.2-0.1,0.4-0.1,0.5c-0.1,0.2-0.1,0.2-0.1,0.4
	c-0.1,0.2-0.1,0.2-0.1,0.4c-0.1,0.2-0.1,0.4-0.2,0.6c-0.1,0.3-0.1,0.3-0.2,0.6c-0.1,0.2-0.1,0.4-0.2,0.6c-0.1,0.3-0.1,0.3-0.2,0.6
	c-0.1,0.3-0.1,0.3-0.2,0.7c-0.1,0.3-0.1,0.5-0.2,0.7c-0.1,0.3-0.1,0.3-0.2,0.7c-0.1,0.3-0.1,0.3-0.2,0.7c-0.1,0.3-0.1,0.3-0.2,0.7
	c-0.1,0.3-0.1,0.5-0.2,0.7c0,0.2-0.1,0.3-0.1,0.5c-0.1,0.2-0.1,0.5-0.2,0.7c-0.1,0.2-0.1,0.4-0.2,0.6c-0.1,0.3-0.1,0.3-0.2,0.6
	c-0.1,0.3-0.1,0.3-0.2,0.6c-0.1,0.3-0.1,0.3-0.2,0.6c0,0.1-0.1,0.3-0.1,0.5c-0.1,0.2-0.1,0.5-0.2,0.6c-0.1,0.2-0.1,0.2-0.1,0.5
	c-0.1,0.2-0.1,0.2-0.1,0.5c-0.1,0.2-0.2,0.5-0.3,0.7c-0.1,0.3-0.3,0.6-0.4,0.8c-0.2,0.4-0.4,0.7-0.7,0.9c-0.4,0.3-0.9,0.5-1.4,0.5
	c-0.2,0-0.4,0-0.6-0.1c-0.3,0-0.5-0.1-0.7-0.2c-0.2-0.1-0.5-0.2-0.7-0.3c-0.3-0.1-0.3-0.1-0.5-0.2c-0.1-0.1-0.2-0.1-0.4-0.2
	c-0.2-0.1-0.4-0.2-0.5-0.3c-0.1-0.1-0.3-0.1-0.4-0.2c-0.2-0.1-0.2-0.1-0.5-0.2c-0.2-0.1-0.4-0.2-0.6-0.3c-0.2-0.1-0.3-0.2-0.6-0.3
	c-0.2-0.1-0.4-0.2-0.6-0.3c-0.1-0.1-0.3-0.2-0.5-0.3c-0.2-0.1-0.4-0.2-0.6-0.4c-0.3-0.2-0.3-0.2-0.6-0.3c-0.1-0.1-0.3-0.2-0.4-0.2
	c-0.2-0.1-0.3-0.2-0.6-0.3c-0.1-0.1-0.3-0.1-0.4-0.2c-0.2-0.1-0.2-0.1-0.4-0.2c-0.1,0-0.2-0.1-0.2-0.1H127.9L127.9,196.4z"/>
<path d="M176,171.2C176,171.2,176,171.2,176,171.2C176,171.2,176,171.2,176,171.2z M175.6,173.1
	C175.6,173.1,175.6,173.1,175.6,173.1C175.6,173.1,175.6,173.1,175.6,173.1z M177.4,174.5c-0.1,0.3-0.1,0.3-0.2,0.5
	c0,0.1-0.1,0.2-0.1,0.3c-0.1,0.2-0.1,0.2-0.2,0.5c-0.1,0.1-0.1,0.3-0.1,0.4c-0.1,0.2-0.1,0.4-0.2,0.6c-0.1,0.3-0.1,0.4-0.2,0.6
	c-0.1,0.2-0.1,0.4-0.2,0.6c-0.1,0.2-0.1,0.4-0.2,0.6c-0.1,0.3-0.1,0.3-0.2,0.6c-0.1,0.2-0.2,0.4-0.2,0.6c-0.1,0.3-0.1,0.3-0.2,0.5
	c-0.1,0.2-0.1,0.2-0.2,0.4c-0.1,0.3-0.1,0.3-0.2,0.5c0,0.1-0.1,0.2-0.1,0.3c-0.1,0.2-0.1,0.2-0.2,0.6c-0.1,0.2-0.1,0.4-0.2,0.6
	c0,0.1-0.1,0.3-0.1,0.4c0,0.1,0,0.3-0.1,0.5c0,0.2,0,0.4-0.1,0.6c0,0.2-0.1,0.5-0.2,0.7c-0.1,0.3-0.2,0.5-0.4,0.8
	c-0.2,0.3-0.4,0.5-0.7,0.7c-0.2,0.2-0.4,0.3-0.6,0.4c-0.2,0.1-0.2,0.1-0.3,0.2c-0.2,0.1-0.3,0.1-0.5,0.2c-0.2,0.1-0.3,0.1-0.5,0.2
	c-0.2,0.1-0.4,0.1-0.6,0.1c-0.2,0.1-0.5,0.1-0.7,0.1c-0.2,0-0.4,0-0.6,0h-0.5c-0.2,0-0.4,0-0.6,0c-0.3,0-0.5,0-0.7,0
	c-0.3,0-0.3,0-0.6-0.1c-0.3,0-0.5-0.1-0.8-0.1c-0.2-0.1-0.5-0.1-0.7-0.2c-0.2-0.1-0.5-0.1-0.7-0.2c-0.2-0.1-0.5-0.1-0.7-0.2
	c-0.2-0.1-0.5-0.2-0.7-0.2c-0.3-0.1-0.3-0.1-0.6-0.2c-0.2-0.1-0.4-0.2-0.6-0.3c-0.3-0.1-0.3-0.1-0.5-0.2c-0.2-0.1-0.2-0.1-0.4-0.2
	l-0.4-0.2c-0.1,0-0.2-0.1-0.2-0.1c-0.1,0-0.3,0-0.5,0c-0.1,0-0.3,0-0.3,0c-0.1,0-0.2,0.1-0.3,0.1c-0.3,0.1-0.7,0.2-1,0.2
	c-1,0-1.8-0.7-1.8-1.8c0-0.2,0-0.4,0-0.6c0-0.2,0-0.4,0.1-0.6c0-0.2,0.1-0.4,0.1-0.6c0-0.2,0-0.2,0.1-0.3c0-0.2,0.1-0.3,0.1-0.5
	c0.1-0.2,0.1-0.2,0.1-0.4c0.1-0.2,0.1-0.2,0.1-0.5c0-0.2,0.1-0.4,0.1-0.5c0-0.2,0.1-0.4,0.1-0.6c0.1-0.2,0.1-0.4,0.1-0.7
	c0-0.3,0.1-0.5,0.1-0.8c0.1-0.4,0.1-0.4,0.2-0.8c0-0.2,0.1-0.5,0.1-0.8c0.1-0.4,0.1-0.4,0.1-0.8c0-0.2,0.1-0.4,0.1-0.7
	c0-0.3,0.1-0.5,0.1-0.7c0-0.2,0.1-0.5,0.1-0.7c0-0.2,0.1-0.4,0.1-0.6c0.1-0.3,0.1-0.3,0.1-0.5c0-0.2,0.1-0.4,0.1-0.5
	c0.1-0.2,0.1-0.4,0.2-0.6c0.1-0.4,0.4-0.7,0.7-1c0.2-0.2,0.5-0.4,0.9-0.7c0.7-0.5,1.8-0.3,2.3,0.4c0.5,0.8,0.3,1.8-0.4,2.3
	c-0.2,0.1-0.3,0.2-0.4,0.3c0,0.1-0.1,0.3-0.1,0.4c-0.1,0.2-0.1,0.2-0.1,0.5c0,0.1-0.1,0.3-0.1,0.5c0,0.2-0.1,0.4-0.1,0.6
	c0,0.2-0.1,0.5-0.1,0.8c-0.1,0.3-0.1,0.6-0.1,0.8c-0.1,0.4-0.1,0.4-0.1,0.8c-0.1,0.3-0.1,0.6-0.2,0.8c-0.1,0.4-0.1,0.4-0.1,0.8
	c-0.1,0.3-0.1,0.6-0.2,0.8c-0.1,0.3-0.1,0.5-0.2,0.8c0,0.2-0.1,0.4-0.1,0.6c0,0.2-0.1,0.4-0.1,0.6c-0.1,0.3-0.1,0.3-0.1,0.5
	c0,0.2-0.1,0.2-0.1,0.3h0.4c0.2,0,0.5,0.1,0.7,0.1c0.2,0.1,0.4,0.1,0.6,0.2c0.2,0.1,0.2,0.1,0.5,0.2c0.2,0.1,0.2,0.1,0.5,0.2
	c0.3,0.1,0.3,0.1,0.5,0.2c0.2,0.1,0.3,0.1,0.5,0.2c0.3,0.1,0.3,0.1,0.6,0.2c0.2,0.1,0.4,0.1,0.6,0.2c0.2,0.1,0.4,0.1,0.5,0.2
	c0.2,0.1,0.4,0.1,0.6,0.2c0.2,0,0.4,0.1,0.6,0.1c0.2,0,0.3,0.1,0.5,0.1c0.3,0,0.3,0,0.6,0.1c0.1,0,0.3,0,0.5,0c0.2,0,0.4,0,0.5,0
	h0.5c0.2,0,0.3,0,0.5,0c0.1,0,0.2,0,0.3,0c0.1,0,0.2,0,0.3-0.1c0.1,0,0.2-0.1,0.3-0.1c0.1,0,0.1-0.1,0.2-0.1
	c0.1-0.1,0.1-0.1,0.3-0.1c0,0,0,0,0.1-0.1c0,0,0-0.1,0.1-0.1c0-0.1,0-0.2,0-0.4c0-0.2,0-0.4,0.1-0.6c0-0.3,0.1-0.5,0.1-0.8
	c0.1-0.2,0.1-0.5,0.2-0.8c0.1-0.3,0.1-0.3,0.2-0.6c0-0.1,0.1-0.3,0.2-0.5c0.1-0.2,0.1-0.2,0.2-0.4c0.1-0.3,0.1-0.3,0.2-0.5
	c0.1-0.3,0.1-0.3,0.2-0.6c0.1-0.2,0.1-0.4,0.2-0.5c0.1-0.3,0.1-0.3,0.2-0.6c0.1-0.2,0.1-0.4,0.2-0.6c0.1-0.2,0.1-0.4,0.2-0.6
	c0.1-0.2,0.1-0.3,0.2-0.6c0.1-0.2,0.1-0.3,0.2-0.5c0.1-0.2,0.1-0.4,0.2-0.6c0.1-0.3,0.1-0.3,0.2-0.5c0.1-0.2,0.1-0.3,0.2-0.5
	c0.1-0.2,0.1-0.2,0.2-0.5c0.1-0.2,0.2-0.3,0.2-0.5c-0.1,0-0.1-0.1-0.2-0.1c-0.1,0-0.2-0.1-0.3-0.1c-0.2-0.1-0.4-0.1-0.5-0.2
	c-0.2-0.1-0.2-0.1-0.4-0.2c-0.1-0.1-0.3-0.1-0.5-0.2c-0.1-0.1-0.3-0.1-0.4-0.1c-0.2-0.1-0.4-0.1-0.5-0.2c-0.1-0.1-0.3-0.1-0.5-0.1
	c-0.2-0.1-0.3-0.1-0.5-0.1c-0.1,0-0.3-0.1-0.5-0.1c-0.2,0-0.4-0.1-0.5-0.1c-0.1,0-0.3-0.1-0.5-0.1c-0.2,0-0.3,0-0.5,0
	c-0.2,0-0.2,0-0.5,0c-0.3,0-0.3,0-0.5,0c-0.1,0-0.2,0-0.3,0c-0.1,0-0.2,0-0.3,0h-2c-0.9,0-1.6-0.8-1.6-1.7c0-0.9,0.7-1.7,1.6-1.7h2
	c0.2,0,0.3,0,0.4,0c0.2,0,0.3,0,0.5,0c0.2,0,0.2,0,0.4,0c0.3,0,0.3,0,0.5,0c0.2,0,0.4,0,0.6,0.1c0.2,0,0.4,0.1,0.6,0.1
	c0.2,0,0.4,0.1,0.6,0.1c0.2,0,0.4,0.1,0.6,0.1c0.2,0,0.4,0.1,0.6,0.1c0.2,0.1,0.4,0.1,0.7,0.2c0.1,0,0.3,0.1,0.5,0.1
	c0.2,0.1,0.4,0.1,0.6,0.2c0.2,0.1,0.4,0.1,0.5,0.2c0.2,0.1,0.2,0.1,0.5,0.2c0.1,0.1,0.2,0.1,0.3,0.1c0.2,0.1,0.3,0.1,0.5,0.2
	c0.1,0,0.2,0.1,0.3,0.1c0.2,0.1,0.2,0.1,0.4,0.2c0.1,0.1,0.3,0.1,0.5,0.2c0.3,0.1,0.5,0.3,0.7,0.5c0.4,0.3,0.7,0.8,0.8,1.2
	c0.1,0.5,0.1,1.1-0.2,1.6c-0.2,0.3-0.4,0.6-0.7,0.8C177.5,174.2,177.5,174.3,177.4,174.5L177.4,174.5z M177.7,174
	C177.7,174,177.7,173.9,177.7,174C177.7,173.9,177.7,174,177.7,174z"/>
<path d="M165.9,211L165.9,211L165.9,211L165.9,211z M159.6,196.1c-0.3,0.2-0.4,0.4-0.4,0.4c0,0.1-0.1,0.1-0.2,0.3
	c-0.1,0.1-0.1,0.2-0.1,0.3c-0.1,0.2-0.1,0.2-0.2,0.5c-0.1,0.1-0.1,0.3-0.2,0.4c-0.1,0.2-0.1,0.4-0.2,0.6c-0.1,0.2-0.1,0.4-0.2,0.5
	c-0.1,0.3-0.1,0.3-0.2,0.7c-0.1,0.4-0.1,0.4-0.2,0.7c-0.1,0.2-0.2,0.5-0.3,0.8c-0.1,0.2-0.2,0.5-0.3,0.7c-0.1,0.3-0.2,0.5-0.3,0.7
	c-0.1,0.3-0.1,0.3-0.2,0.6c-0.1,0.3-0.1,0.3-0.2,0.6c-0.1,0.2-0.1,0.4-0.2,0.5c-0.1,0.2-0.1,0.2-0.2,0.5c-0.1,0.2-0.1,0.4-0.2,0.5
	c-0.1,0.3-0.1,0.3-0.2,0.6c-0.1,0.2-0.1,0.4-0.1,0.5c-0.1,0.2-0.1,0.2-0.1,0.5c-0.1,0.3-0.1,0.3-0.1,0.5c0,0.1,0,0.1,0,0.2
	c0.2,0,0.5,0,0.6,0h0.9c0.3,0,0.6,0,0.9,0.1c0.2,0.1,0.5,0.1,0.7,0.2c0.2,0.1,0.4,0.2,0.7,0.3c0.3,0.1,0.3,0.1,0.5,0.3
	c0.2,0.1,0.4,0.2,0.6,0.3c0.3,0.1,0.3,0.1,0.6,0.3c0.2,0.1,0.4,0.2,0.6,0.3c0.3,0.1,0.3,0.1,0.6,0.3c0.2,0.1,0.3,0.2,0.5,0.3
	c0.3,0.1,0.3,0.1,0.6,0.3c0.2,0.1,0.3,0.1,0.5,0.2c0.2,0.1,0.2,0.1,0.5,0.2l0.4,0.2c0.1,0,0.2,0.1,0.3,0.1c0.2,0,0.2,0,0.3,0.1
	c0.1,0,0.2,0,0.3,0.1c0,0,0.1,0,0.1,0c0.1-0.2,0.2-0.3,0.3-0.5c0.1-0.2,0.1-0.2,0.2-0.4c0.1-0.2,0.1-0.2,0.2-0.4
	c0.1-0.1,0.1-0.3,0.2-0.4c0.1-0.2,0.2-0.3,0.3-0.5c0.1-0.1,0.1-0.3,0.2-0.4c0.1-0.2,0.2-0.4,0.3-0.6c0.1-0.1,0.2-0.3,0.3-0.5
	c0.1-0.3,0.1-0.3,0.3-0.6c0.2-0.3,0.2-0.3,0.3-0.7c0.1-0.3,0.2-0.5,0.3-0.7c0.1-0.2,0.2-0.4,0.3-0.6c0.2-0.4,0.2-0.4,0.3-0.7
	c0.1-0.2,0.2-0.4,0.3-0.6c0.1-0.3,0.2-0.5,0.3-0.7c0.1-0.2,0.2-0.4,0.3-0.6c0.1-0.2,0.2-0.4,0.2-0.6c0.1-0.3,0.1-0.3,0.2-0.6
	c0.1-0.2,0.1-0.4,0.2-0.5c0-0.1,0.1-0.3,0.1-0.4c0.1-0.3,0.1-0.3,0.1-0.4c0-0.1,0-0.2,0.1-0.3c0-0.2,0-0.2,0.1-0.4
	c0-0.1,0-0.1,0-0.2v-0.1c-0.1,0-0.2-0.1-0.3-0.1c-0.3-0.1-0.3-0.1-0.4-0.1c-0.2-0.1-0.2-0.1-0.3-0.1c-0.2-0.1-0.2-0.1-0.4-0.1
	c-0.1,0-0.3-0.1-0.4-0.1c-0.2-0.1-0.2-0.1-0.5-0.1c-0.2,0-0.3-0.1-0.5-0.1c-0.3,0-0.3,0-0.6-0.1c-0.3-0.1-0.3-0.1-0.6-0.1
	c-0.2,0-0.4-0.1-0.6-0.1c-0.2,0-0.5-0.1-0.7-0.1c-0.2,0-0.4-0.1-0.6-0.1c-0.2,0-0.4,0-0.5-0.1c-0.2,0-0.4-0.1-0.6-0.1
	c-0.3,0-0.3,0-0.6-0.1c-0.3,0-0.3,0-0.6-0.1c-0.2,0-0.4-0.1-0.6-0.1c-0.2,0-0.4-0.1-0.5-0.1c-0.2,0-0.3-0.1-0.5-0.1l-0.3-0.1
	c-0.2-0.1-0.4-0.2-0.7-0.3c0,0,0,0,0,0C159.7,195.9,159.7,196,159.6,196.1z M161.7,193.1c0.1,0,0.1,0,0.2,0.1c0.1,0,0.2,0.1,0.3,0.1
	c0.1,0,0.2,0.1,0.4,0.1c0.1,0,0.3,0.1,0.5,0.1c0.3,0,0.3,0,0.5,0.1c0.3,0,0.3,0,0.6,0.1c0.2,0,0.3,0,0.5,0.1c0.2,0,0.4,0,0.6,0.1
	c0.2,0,0.5,0.1,0.7,0.1c0.2,0,0.4,0.1,0.6,0.1c0.2,0,0.5,0.1,0.7,0.1c0.3,0.1,0.3,0.1,0.6,0.1c0.3,0,0.3,0,0.6,0.1
	c0.2,0,0.4,0.1,0.7,0.1c0.3,0.1,0.3,0.1,0.5,0.1c0.2,0,0.3,0.1,0.5,0.1c0.2,0.1,0.2,0.1,0.5,0.1c0.2,0.1,0.2,0.1,0.5,0.1
	c0.2,0.1,0.2,0.1,0.5,0.2c0.2,0.1,0.3,0.1,0.5,0.2c0.2,0.1,0.5,0.2,0.6,0.3c0.3,0.2,0.6,0.4,0.8,0.6c0.3,0.4,0.5,0.9,0.6,1.4v0.6
	c0,0.3,0,0.3,0,0.4c0,0.2,0,0.4-0.1,0.5c0,0.2,0,0.2-0.1,0.4c0,0.2-0.1,0.4-0.1,0.6c-0.1,0.2-0.1,0.2-0.1,0.5
	c-0.1,0.2-0.1,0.4-0.2,0.5c-0.1,0.2-0.1,0.4-0.2,0.6c-0.1,0.3-0.1,0.3-0.2,0.6c-0.1,0.2-0.2,0.5-0.3,0.7s-0.2,0.5-0.3,0.7
	c-0.1,0.2-0.2,0.4-0.3,0.7c-0.1,0.3-0.2,0.5-0.3,0.8c-0.1,0.3-0.1,0.3-0.3,0.7c-0.1,0.3-0.2,0.5-0.3,0.7c-0.1,0.2-0.2,0.5-0.3,0.7
	c-0.2,0.4-0.2,0.4-0.3,0.7c-0.1,0.3-0.1,0.3-0.3,0.6c-0.1,0.2-0.2,0.5-0.3,0.6c-0.1,0.2-0.2,0.3-0.3,0.5c-0.1,0.2-0.2,0.4-0.3,0.6
	c-0.1,0.1-0.1,0.2-0.2,0.4c-0.1,0.2-0.2,0.3-0.2,0.5c-0.1,0.2-0.1,0.2-0.2,0.4c-0.1,0.2-0.1,0.2-0.2,0.5c-0.1,0.2-0.2,0.3-0.2,0.5
	c-0.1,0.2-0.2,0.4-0.3,0.5c-0.2,0.3-0.4,0.6-0.6,0.8c-0.4,0.4-0.9,0.5-1.5,0.5c-0.2,0-0.2,0-0.5,0c-0.2,0-0.4,0-0.6-0.1
	c-0.3,0-0.5-0.1-0.7-0.1c-0.2,0-0.2,0-0.4-0.1c-0.2,0-0.4-0.1-0.6-0.2c-0.3-0.1-0.3-0.1-0.5-0.2c-0.2-0.1-0.2-0.1-0.5-0.2
	c-0.2-0.1-0.4-0.2-0.6-0.2c-0.3-0.1-0.3-0.1-0.6-0.3c-0.2-0.1-0.4-0.2-0.6-0.3c-0.3-0.1-0.3-0.1-0.5-0.3c-0.2-0.1-0.4-0.2-0.6-0.3
	c-0.3-0.1-0.3-0.1-0.6-0.3c-0.1-0.1-0.3-0.1-0.5-0.2c-0.3-0.1-0.3-0.1-0.5-0.2c-0.1-0.1-0.2-0.1-0.3-0.1c-0.1,0-0.2-0.1-0.3-0.1
	c-0.1,0-0.1,0-0.1,0H156c-0.1,0-0.2,0-0.4,0c-0.2,0-0.4,0.1-0.7,0.1c-0.3,0-0.5,0-0.7,0c-0.2,0-0.4,0-0.7,0
	c-0.9-0.1-1.6-0.7-1.7-1.7c0-0.2,0-0.5,0-0.7c0-0.2,0-0.4,0.1-0.7c0-0.2,0.1-0.4,0.1-0.6c0-0.1,0-0.2,0.1-0.3c0-0.1,0.1-0.3,0.1-0.5
	c0.1-0.2,0.1-0.2,0.1-0.5c0.1-0.3,0.1-0.3,0.1-0.5c0-0.2,0.1-0.4,0.2-0.6c0.1-0.3,0.1-0.3,0.2-0.6c0.1-0.2,0.1-0.4,0.2-0.6
	c0.1-0.3,0.1-0.3,0.2-0.6c0.1-0.2,0.1-0.4,0.2-0.6l0.5-1.3c0.1-0.2,0.1-0.4,0.2-0.6c0.1-0.3,0.2-0.5,0.3-0.8
	c0.1-0.2,0.2-0.5,0.2-0.7c0.1-0.3,0.1-0.3,0.3-0.8c0.1-0.4,0.1-0.4,0.2-0.7c0.1-0.2,0.2-0.5,0.2-0.7c0.1-0.2,0.1-0.4,0.2-0.5
	c0.1-0.2,0.2-0.4,0.3-0.6c0.1-0.3,0.1-0.3,0.2-0.5c0.1-0.2,0.2-0.4,0.3-0.6c0.1-0.2,0.2-0.3,0.3-0.5c0.2-0.3,0.5-0.6,1-1
	c0.3-0.3,0.7-0.4,1.1-0.4c0.2-0.5,0.6-0.9,1.2-1c0.8-0.2,1.6,0.2,1.9,0.9L161.7,193.1z"/>
<path d="M161.2,172.4c-0.2,0.3-0.4,0.6-0.6,0.9c-0.5,0.6-1.2,0.8-2,0.9c-1.2,0.1-2.2-0.7-2.4-1.9c-0.1-1,0.4-1.8,1.3-2.2
	c0.1-0.2,0.1-0.2,0.1-0.4c0.2-0.4,0.4-0.8,0.7-1.1c0.4-0.4,0.9-0.7,1.3-0.9c0.4-0.1,0.8-0.2,1.2-0.2c0.3,0,0.5,0,0.8,0
	c0.3,0,0.6,0.1,0.9,0.2c0.2,0.1,0.4,0.2,0.7,0.3c0.3,0.1,0.3,0.1,0.5,0.3l0.2,0.1c1,0.6,1.4,1.9,0.8,2.9c-0.6,1-1.9,1.4-2.9,0.8
	l-0.2-0.1c-0.2-0.1-0.2-0.1-0.3-0.2C161.3,172.2,161.3,172.3,161.2,172.4L161.2,172.4z"/>
<path d="M159.5,141.8c-0.2-0.1-0.2-0.1-0.4-0.4c-0.4-0.5-0.4-0.5-0.2-1.8c0.8-0.8,0.8-0.8,1.3-0.9c0.3-0.1,0.3-0.1,0.5-0.1
	c0.2,0,0.4,0,0.5,0c0.2,0,0.4,0,0.7,0c0.3,0,0.5,0,0.7,0c0.2,0,0.2,0,0.4,0c0.2,0,0.2,0,0.5,0c0.3,0,0.3,0,0.5,0
	c0.3,0,0.3,0,0.6,0.1c0.3,0,0.3,0,0.6,0c0.2,0,0.4,0,0.6,0c0.3,0,0.3,0,0.7,0.1c0.2,0,0.5,0,0.7,0c0.3,0,0.5,0,0.7,0h5.6h0.7
	c0.2,0,0.4,0,0.7,0c0.3,0,0.3,0,0.6,0.1c0.2,0,0.4,0,0.7,0.1c0.3,0,0.6,0.1,0.8,0.1c0.4,0.1,0.4,0.1,0.7,0.1c0.2,0,0.5,0.1,0.7,0.2
	c0.3,0.1,0.3,0.1,0.5,0.1c0.2,0.1,0.4,0.1,0.5,0.2c0.7,0.2,1.2,0.7,1.4,1.3c0.1,0.4,0.1,0.9,0,1.3c-0.1,0.2-0.1,0.4-0.2,0.6
	c-0.1,0.2-0.1,0.4-0.2,0.5c-0.1,0.2-0.1,0.2-0.1,0.3c-0.1,0.2-0.1,0.2-0.2,0.4c-0.1,0.2-0.1,0.2-0.2,0.5c-0.1,0.1-0.1,0.3-0.2,0.5
	c-0.1,0.2-0.1,0.3-0.2,0.5c-0.1,0.3-0.1,0.3-0.2,0.6c-0.1,0.2-0.2,0.4-0.3,0.6c-0.1,0.4-0.1,0.4-0.3,0.7c-0.1,0.2-0.2,0.5-0.2,0.7
	c-0.1,0.2-0.2,0.5-0.3,0.7c-0.1,0.2-0.1,0.4-0.2,0.6c-0.1,0.2-0.1,0.4-0.2,0.6c-0.1,0.2-0.1,0.5-0.2,0.7c-0.1,0.3-0.1,0.3-0.2,0.6
	c-0.1,0.3-0.1,0.3-0.1,0.5c-0.1,0.2-0.1,0.2-0.2,0.5c-0.1,0.2-0.1,0.4-0.2,0.5c-0.1,0.2-0.1,0.2-0.2,0.5c-0.1,0.2-0.1,0.2-0.2,0.4
	c-0.1,0.2-0.2,0.4-0.3,0.6c-0.1,0.2-0.3,0.5-0.4,0.7c-0.1,0.3-0.3,0.5-0.4,0.7c-0.1,0.2-0.3,0.4-0.4,0.6c-0.1,0.1-0.2,0.3-0.3,0.4
	c-0.1,0.2-0.3,0.4-0.4,0.6c-0.2,0.2-0.2,0.2-0.3,0.4c-0.1,0.2-0.1,0.2-0.2,0.3c0,0.1-0.1,0.1-0.1,0.2c-0.2,0.3-0.4,0.6-0.7,0.9
	c-0.2,0.2-0.5,0.3-0.7,0.4c-0.2,0.1-0.5,0.2-0.8,0.3c-0.3,0.1-0.5,0.2-0.7,0.2c-0.2,0-0.3,0.1-0.5,0.1c-0.2,0-0.4,0.1-0.6,0.1
	c-0.3,0-0.3,0-0.5,0.1c-0.3,0-0.3,0-0.6,0.1c-0.2,0-0.4,0-0.7,0.1c-0.2,0-0.5,0-0.8,0.1c-0.4,0-0.4,0-0.8,0s-0.4,0-0.7,0
	c-0.3,0-0.6,0-0.9,0c-0.3,0-0.6,0-0.9,0h-4.1c-0.3,0-0.6,0-0.8,0c-0.3,0-0.3,0-0.7,0c-0.3,0-0.5,0-0.7,0c-0.2,0-0.5,0-0.8-0.1
	c-0.3,0-0.6-0.1-0.9-0.1c-0.9-0.2-1.7-0.9-1.6-2c0-0.5,0.3-1,0.6-1.4c0,0,0.1-0.1,0.1-0.1c0,0,0-0.1,0.1-0.1c0,0,0-0.1,0.1-0.2
	c0-0.1,0.1-0.2,0.1-0.4c0-0.2,0-0.3,0.1-0.4c0-0.1,0-0.2,0-0.3c0-0.2,0-0.2,0-0.5c0-0.2,0-0.2,0-0.4c0-0.3,0-0.3,0-0.6
	c0-0.2,0-0.4,0.1-0.6c0-0.3,0-0.3,0.1-0.6c0-0.2,0-0.5,0.1-0.7c0-0.2,0.1-0.5,0.1-0.7c0-0.3,0.1-0.5,0.1-0.8c0-0.3,0.1-0.5,0.2-0.8
	c0.1-0.4,0.1-0.4,0.2-0.7c0.1-0.2,0.1-0.5,0.2-0.8c0.1-0.4,0.1-0.4,0.2-0.8c0.1-0.4,0.1-0.4,0.2-0.8c0.1-0.3,0.1-0.5,0.1-0.7
	c0-0.2,0.1-0.4,0.1-0.7l0.1-0.7c0.1-0.3,0.1-0.3,0.1-0.5c0-0.3,0-0.3,0.1-0.6c0.1-0.7,0.6-1.3,1.2-1.7c0.5-0.3,1.1-0.4,1.6-0.2
	C159.7,141.9,159.7,141.8,159.5,141.8L159.5,141.8z M157.3,159.5L157.3,159.5L157.3,159.5z M178,143C178,143,178,143,178,143
	C178,143,178,143,178,143z M160.7,142.5c0.5,0.7,0.4,1.6-0.2,2.2c0,0,0,0.1,0,0.2c-0.1,0.3-0.1,0.3-0.1,0.5
	c-0.1,0.3-0.1,0.3-0.1,0.6c0,0.2-0.1,0.5-0.1,0.7c0,0.2-0.1,0.5-0.2,0.8c-0.1,0.4-0.1,0.4-0.2,0.8c-0.1,0.4-0.1,0.4-0.2,0.9
	c-0.1,0.3-0.1,0.5-0.2,0.7c-0.1,0.3-0.1,0.3-0.2,0.7c-0.1,0.2-0.1,0.5-0.1,0.7c0,0.2-0.1,0.5-0.1,0.7c0,0.2-0.1,0.4-0.1,0.6
	c0,0.2,0,0.4-0.1,0.6c0,0.3,0,0.3-0.1,0.6c0,0.2,0,0.4,0,0.5c0,0.3,0,0.3,0,0.5c0,0.3,0,0.3,0,0.5c0,0.2,0,0.2,0,0.4
	c0,0.2,0,0.3,0,0.5c0,0.2,0,0.4-0.1,0.6c0,0.2-0.1,0.3-0.1,0.5c0.1,0,0.2,0,0.4,0c0.2,0,0.4,0,0.7,0h4.1c0.3,0,0.5,0,0.9,0
	c0.3,0,0.5,0,0.7,0c0.4,0,0.4,0,0.8,0c0.4,0,0.4,0,0.8-0.1c0.2,0,0.5,0,0.7,0c0.2,0,0.4,0,0.6-0.1c0.3,0,0.3,0,0.5-0.1
	c0.3,0,0.3,0,0.5-0.1c0.1,0,0.2,0,0.4-0.1c0.1,0,0.2,0,0.4-0.1c0.1,0,0.2,0,0.3-0.1c0.1,0,0.2-0.1,0.2-0.1c0.1-0.1,0.1-0.2,0.2-0.3
	c0.1-0.2,0.1-0.2,0.2-0.4c0.1-0.2,0.1-0.2,0.3-0.5c0.1-0.1,0.2-0.3,0.3-0.4c0.1-0.2,0.3-0.4,0.4-0.6c0.1-0.1,0.2-0.3,0.3-0.5
	c0.1-0.2,0.2-0.3,0.3-0.5c0.1-0.2,0.2-0.4,0.3-0.6c0.1-0.2,0.2-0.3,0.2-0.4c0.1-0.2,0.1-0.2,0.1-0.3c0.1-0.2,0.1-0.2,0.2-0.4
	c0-0.1,0.1-0.2,0.1-0.4c0.1-0.2,0.1-0.2,0.1-0.4c0.1-0.3,0.1-0.3,0.2-0.5c0.1-0.3,0.1-0.3,0.2-0.6c0.1-0.2,0.1-0.4,0.2-0.6
	c0.1-0.2,0.1-0.4,0.2-0.7c0.1-0.2,0.1-0.4,0.2-0.7c0.1-0.2,0.2-0.5,0.2-0.7c0.1-0.2,0.2-0.5,0.3-0.7l0.3-0.7
	c0.1-0.3,0.2-0.5,0.3-0.7c0.1-0.3,0.1-0.3,0.2-0.5c0.1-0.2,0.2-0.4,0.2-0.6c0.1-0.2,0.2-0.4,0.2-0.6c0.1-0.2,0.1-0.2,0.2-0.4
	c0.1-0.2,0.1-0.2,0.2-0.4c-0.1,0-0.2,0-0.4-0.1c-0.2,0-0.4-0.1-0.7-0.1c-0.2,0-0.4-0.1-0.6-0.1c-0.2,0-0.2,0-0.5,0
	c-0.2,0-0.3,0-0.5,0h-0.6h-5.6c-0.3,0-0.5,0-0.8,0c-0.3,0-0.6,0-0.9,0c-0.4,0-0.4,0-0.7,0c-0.2,0-0.5,0-0.7,0c-0.3,0-0.3,0-0.6-0.1
	c-0.3,0-0.3,0-0.6,0c-0.3,0-0.3,0-0.5,0c-0.3,0-0.3,0-0.5,0c-0.3,0-0.3,0-0.5,0c-0.1,0-0.3,0-0.5,0c0,0,0,0-0.1,0
	c-0.4,0.2-0.9,0.3-1.4,0.1C160.4,142.2,160.5,142.4,160.7,142.5L160.7,142.5z M160.2,142.1c-0.2,0-0.3-0.1-0.5-0.2
	C159.9,141.9,160.1,142,160.2,142.1z"/>
<path d="M197,172c0.2,0,0.4,0,0.6,0h2.1c0.3,0,0.5,0,0.8,0c0.2,0,0.5,0,0.7,0c0.2,0,0.5,0,0.7,0.1c0.3,0,0.6,0.1,0.8,0.1
	c0.3,0,0.5,0.1,0.8,0.1c0.2,0,0.5,0.1,0.7,0.1c0.3,0,0.6,0.1,0.8,0.1c0.4,0.1,0.4,0.1,0.8,0.1c0.4,0.1,0.4,0.1,0.8,0.1
	c0.4,0.1,0.4,0.1,0.7,0.1c0.3,0.1,0.5,0.1,0.8,0.2c0.3,0.1,0.3,0.1,0.7,0.2c0.3,0.1,0.5,0.1,0.7,0.2c0.2,0.1,0.4,0.1,0.6,0.2
	c0.3,0.1,0.3,0.1,0.5,0.2c0.2,0.1,0.5,0.2,0.8,0.4c0.3,0.2,0.6,0.3,0.7,0.4c0.2,0.1,0.4,0.3,0.6,0.5c0.2,0.2,0.4,0.4,0.6,0.6
	c0.3,0.4,0.5,0.8,0.6,1.3c0,0.3,0,0.6,0,0.9c0,0.3-0.1,0.7-0.2,1c-0.1,0.2-0.2,0.5-0.3,0.7c-0.1,0.2-0.2,0.4-0.3,0.6
	c-0.1,0.2-0.2,0.3-0.2,0.4c-0.1,0.1-0.1,0.2-0.1,0.3c-0.1,0.2-0.2,0.3-0.3,0.5c-0.1,0.1-0.1,0.3-0.2,0.4c-0.1,0.2-0.2,0.4-0.3,0.6
	c-0.1,0.3-0.1,0.3-0.3,0.6c-0.1,0.2-0.2,0.4-0.3,0.7c-0.1,0.2-0.2,0.5-0.3,0.6c-0.1,0.3-0.2,0.5-0.4,0.8c-0.1,0.3-0.2,0.5-0.4,0.8
	c-0.1,0.3-0.3,0.6-0.4,0.9c-0.1,0.3-0.3,0.5-0.4,0.8c-0.1,0.3-0.3,0.6-0.4,0.9c-0.2,0.3-0.3,0.6-0.4,0.8c-0.2,0.4-0.2,0.4-0.4,0.8
	c-0.1,0.3-0.3,0.6-0.4,0.8c-0.2,0.4-0.2,0.4-0.4,0.8c-0.1,0.3-0.2,0.5-0.3,0.7c-0.1,0.3-0.2,0.5-0.4,0.8c-0.1,0.2-0.2,0.4-0.3,0.6
	c-0.1,0.2-0.1,0.3-0.2,0.5c-0.1,0.3-0.1,0.3-0.2,0.6c-0.1,0.1-0.1,0.3-0.2,0.6c-0.1,0.2-0.2,0.5-0.2,0.7c0,0.2-0.1,0.3-0.1,0.4
	c-0.1,0.5-0.3,0.9-0.5,1.3c-0.5,0.7-1.4,1-2.2,0.8c-0.2,0-0.4-0.1-0.7-0.1c-0.3-0.1-0.3-0.1-0.5-0.1c-0.2-0.1-0.4-0.1-0.6-0.2
	c-0.2-0.1-0.3-0.1-0.5-0.2c-0.2-0.1-0.4-0.1-0.6-0.2c-0.2-0.1-0.4-0.2-0.6-0.3c-0.3-0.1-0.3-0.1-0.6-0.3c-0.3-0.1-0.5-0.3-0.8-0.4
	c-0.2-0.1-0.4-0.3-0.6-0.4c-0.2-0.1-0.5-0.2-0.7-0.3c-0.2-0.1-0.4-0.2-0.7-0.3c-0.3-0.1-0.5-0.2-0.7-0.3c-0.2-0.1-0.5-0.2-0.7-0.3
	c-0.2-0.1-0.4-0.2-0.6-0.2c-0.2-0.1-0.4-0.1-0.7-0.2c-0.2-0.1-0.4-0.1-0.7-0.2c-0.2,0-0.4-0.1-0.5-0.1c-0.2,0-0.4-0.1-0.6-0.1
	c-0.1,0-0.2,0-0.3,0c-0.2,0-0.2,0-0.4,0h-1.1c-0.4,0-0.7-0.1-1.1-0.2c-0.9-0.3-1.6-1-1.6-2.1c0-0.2,0-0.5,0-0.7
	c0-0.2,0.1-0.4,0.1-0.7c0.1-0.3,0.1-0.3,0.1-0.5c0-0.2,0.1-0.4,0.1-0.6c0.1-0.2,0.1-0.2,0.1-0.4c0.1-0.2,0.1-0.5,0.2-0.7
	c0.1-0.3,0.2-0.5,0.2-0.7c0.1-0.3,0.1-0.3,0.3-0.7c0.1-0.3,0.2-0.6,0.3-0.9c0.1-0.5,0.1-0.5,0.3-0.9c0.1-0.3,0.2-0.7,0.3-1
	c0.1-0.3,0.3-0.7,0.4-1.1c0.1-0.4,0.3-0.7,0.4-1.1c0.1-0.4,0.3-0.7,0.4-1.1c0.1-0.3,0.3-0.7,0.4-1c0.1-0.4,0.3-0.8,0.4-1.1
	c0.1-0.3,0.3-0.7,0.4-1c0.1-0.3,0.3-0.7,0.4-1c0.1-0.3,0.3-0.6,0.4-0.9c0.1-0.3,0.1-0.3,0.3-0.7c0.1-0.3,0.1-0.3,0.3-0.6
	c0.1-0.2,0.2-0.4,0.3-0.5c0.1-0.2,0.3-0.5,0.4-0.7c0.3-0.5,0.8-0.8,1.4-1.1c0.3-0.2,0.7-0.3,1.1-0.2C196.7,172,196.8,172,197,172
	L197,172z M191.3,192.1L191.3,192.1L191.3,192.1L191.3,192.1z M203.8,195C203.8,195,203.9,195,203.8,195L203.8,195L203.8,195z
	 M202.2,196C202.2,196,202.2,196,202.2,196C202.2,196,202.2,196,202.2,196L202.2,196z M210.4,177.7
	C210.4,177.7,210.4,177.8,210.4,177.7C210.4,177.7,210.4,177.7,210.4,177.7z M210.6,178.2C210.6,178.2,210.6,178.2,210.6,178.2
	C210.6,178.2,210.6,178.2,210.6,178.2L210.6,178.2z M197.4,175.7L197.4,175.7L197.4,175.7z M196.9,176.2c-0.1,0.2-0.1,0.2-0.2,0.5
	c-0.1,0.3-0.1,0.3-0.3,0.6c-0.1,0.2-0.2,0.5-0.3,0.8c-0.1,0.3-0.3,0.7-0.4,1c-0.1,0.3-0.3,0.7-0.4,1c-0.1,0.3-0.3,0.7-0.4,1.1
	c-0.1,0.4-0.3,0.8-0.4,1.1c-0.1,0.3-0.3,0.7-0.4,1c-0.1,0.4-0.3,0.7-0.4,1.1c-0.1,0.3-0.3,0.7-0.4,1c-0.1,0.3-0.2,0.6-0.3,0.9
	c-0.1,0.5-0.1,0.5-0.3,0.9c-0.1,0.3-0.2,0.6-0.3,0.9c-0.1,0.4-0.1,0.4-0.2,0.7c-0.1,0.2-0.1,0.4-0.2,0.7c-0.1,0.2-0.1,0.4-0.1,0.6
	c-0.1,0.3-0.1,0.3-0.1,0.5c0.1,0,0.1,0,0.2,0c0.2,0,0.4,0,0.7,0.1c0.2,0,0.4,0.1,0.7,0.1c0.3,0.1,0.6,0.1,0.8,0.2
	c0.2,0.1,0.5,0.1,0.8,0.2c0.3,0.1,0.6,0.2,0.9,0.3c0.3,0.1,0.6,0.2,0.8,0.3c0.3,0.1,0.5,0.2,0.8,0.3c0.3,0.1,0.5,0.2,0.8,0.4
	c0.3,0.1,0.5,0.3,0.8,0.4c0.2,0.1,0.5,0.2,0.8,0.4c0.3,0.1,0.5,0.3,0.7,0.4c0.2,0.1,0.4,0.2,0.5,0.3c0.3,0.1,0.3,0.1,0.6,0.3
	c0.1,0.1,0.3,0.1,0.4,0.2c0.2,0.1,0.3,0.1,0.5,0.2c0,0,0.1,0,0.1,0.1c0-0.1,0.1-0.2,0.1-0.3c0.1-0.3,0.2-0.6,0.3-0.8
	c0.1-0.2,0.1-0.2,0.2-0.5c0.1-0.2,0.2-0.4,0.3-0.6c0.1-0.2,0.2-0.4,0.3-0.7c0.1-0.2,0.2-0.5,0.3-0.7c0.1-0.3,0.2-0.5,0.4-0.8
	c0.2-0.4,0.2-0.4,0.3-0.7c0.1-0.3,0.3-0.5,0.4-0.9c0.2-0.5,0.2-0.5,0.4-0.8c0.1-0.3,0.3-0.5,0.4-0.9c0.1-0.3,0.3-0.6,0.4-0.8
	c0.1-0.3,0.2-0.5,0.4-0.8c0.1-0.3,0.3-0.6,0.4-0.8c0.1-0.3,0.3-0.6,0.4-0.9c0.1-0.2,0.2-0.5,0.3-0.7c0.1-0.2,0.2-0.5,0.3-0.7
	c0.1-0.3,0.2-0.5,0.3-0.7c0.1-0.3,0.1-0.3,0.3-0.6c0.1-0.2,0.2-0.3,0.2-0.5c0.1-0.2,0.2-0.4,0.3-0.6c0.1-0.1,0.1-0.2,0.2-0.3
	c0.1-0.2,0.2-0.3,0.2-0.5c0.1-0.2,0.2-0.3,0.3-0.6c0.1-0.1,0.1-0.3,0.2-0.4c-0.1-0.1-0.1-0.1-0.2-0.1c0,0-0.2-0.1-0.4-0.2
	c-0.2-0.1-0.4-0.2-0.4-0.2c-0.2-0.1-0.2-0.1-0.5-0.2c-0.1-0.1-0.3-0.1-0.4-0.1c-0.1,0-0.3-0.1-0.5-0.1c-0.3-0.1-0.3-0.1-0.7-0.2
	c-0.2,0-0.4-0.1-0.6-0.1c-0.4-0.1-0.4-0.1-0.7-0.1c-0.3-0.1-0.3-0.1-0.7-0.1c-0.4-0.1-0.4-0.1-0.8-0.1c-0.2,0-0.4-0.1-0.7-0.1
	c-0.3,0-0.5-0.1-0.8-0.1c-0.2,0-0.4-0.1-0.7-0.1c-0.2,0-0.4-0.1-0.7-0.1c-0.2,0-0.4,0-0.7-0.1c-0.2,0-0.4,0-0.6,0
	c-0.2,0-0.4,0-0.6,0h-2.1c-0.1,0-0.2,0-0.3,0l-0.1,0c-0.1,0-0.1,0.1-0.2,0.1C197,176,196.9,176.1,196.9,176.2L196.9,176.2z"/>
<path d="M181.3,209.3C181.3,209.3,181.3,209.3,181.3,209.3C181.3,209.3,181.3,209.3,181.3,209.3z M177.6,223.4L177.6,223.4
	L177.6,223.4z M197.7,211.6C197.7,211.6,197.7,211.6,197.7,211.6C197.7,211.6,197.7,211.6,197.7,211.6z M181.6,209.1
	c-0.1,0.1-0.2,0.1-0.2,0.2c-0.1,0.1-0.1,0.1-0.1,0.1c0,0.1-0.1,0.2-0.1,0.3c-0.1,0.1-0.1,0.3-0.2,0.5c-0.1,0.2-0.1,0.4-0.2,0.6
	c-0.1,0.2-0.1,0.5-0.2,0.7c-0.1,0.4-0.1,0.4-0.2,0.9c-0.1,0.3-0.2,0.6-0.2,0.9c-0.1,0.5-0.1,0.5-0.2,1c-0.1,0.4-0.2,0.8-0.3,1.2
	c-0.1,0.4-0.2,0.7-0.3,1c-0.1,0.3-0.2,0.6-0.2,0.9c-0.1,0.4-0.1,0.4-0.3,0.9c-0.1,0.4-0.2,0.7-0.3,0.9c-0.1,0.3-0.1,0.3-0.2,0.7
	c-0.1,0.4-0.1,0.4-0.2,0.7c-0.1,0.4-0.1,0.4-0.2,0.7c-0.1,0.3-0.1,0.3-0.1,0.5c0,0.1-0.1,0.2-0.1,0.3c0.2,0,0.4,0,0.6,0
	c0.2,0,0.2,0,0.5,0c0.2,0,0.4,0,0.6,0h0.6c0.3,0,0.5,0,0.8,0c0.3,0,0.6,0.1,0.9,0.1c0.3,0.1,0.5,0.1,0.8,0.2
	c0.3,0.1,0.6,0.1,0.8,0.2c0.3,0.1,0.5,0.2,0.8,0.2c0.3,0.1,0.6,0.2,0.9,0.3c0.3,0.1,0.6,0.2,0.8,0.3c0.3,0.1,0.5,0.2,0.8,0.3
	c0.3,0.1,0.5,0.2,0.8,0.3c0.3,0.1,0.5,0.2,0.7,0.3c0.2,0.1,0.4,0.2,0.7,0.3c0.3,0.1,0.3,0.1,0.5,0.3c0.3,0.1,0.3,0.1,0.5,0.3
	c0.2,0.1,0.2,0.1,0.4,0.2c0.2,0.1,0.2,0.1,0.4,0.2c0.1,0.1,0.2,0.1,0.2,0.1c0-0.1,0-0.1,0.1-0.2c0.1-0.2,0.2-0.5,0.2-0.6l0.2-0.5
	c0.1-0.3,0.1-0.3,0.2-0.6c0.1-0.3,0.1-0.3,0.3-0.7c0.1-0.4,0.1-0.4,0.3-0.7c0.1-0.4,0.1-0.4,0.3-0.7c0.2-0.4,0.2-0.4,0.4-0.9
	c0.2-0.5,0.2-0.5,0.4-0.9c0.1-0.2,0.2-0.5,0.3-0.8c0.1-0.3,0.3-0.7,0.4-1c0.1-0.3,0.3-0.6,0.4-0.8c0.2-0.4,0.2-0.4,0.3-0.8
	c0.1-0.3,0.2-0.6,0.4-0.8c0.2-0.4,0.2-0.4,0.3-0.7s0.1-0.3,0.3-0.7c0.1-0.2,0.2-0.4,0.2-0.6c0.1-0.3,0.2-0.5,0.3-0.7
	c0.1-0.3,0.1-0.3,0.2-0.5c0.1-0.1,0.1-0.3,0.2-0.4c0.1-0.2,0.1-0.2,0.1-0.4c0.1-0.2,0.1-0.2,0.1-0.4c-0.2-0.1-0.2-0.1-0.4-0.2
	c-0.1-0.1-0.3-0.2-0.5-0.3c-0.2-0.2-0.2-0.2-0.4-0.3c-0.2-0.1-0.2-0.1-0.5-0.3c-0.2-0.1-0.4-0.2-0.5-0.3c-0.1-0.1-0.3-0.2-0.4-0.2
	c-0.3-0.1-0.3-0.1-0.5-0.3c-0.1-0.1-0.3-0.1-0.5-0.2c-0.2-0.1-0.4-0.1-0.6-0.2c-0.2-0.1-0.4-0.1-0.6-0.2c-0.4-0.1-0.4-0.1-0.7-0.2
	c-0.2-0.1-0.5-0.1-0.7-0.2c-0.3-0.1-0.5-0.1-0.7-0.2c-0.3-0.1-0.5-0.1-0.8-0.2c-0.3-0.1-0.5-0.1-0.7-0.2c-0.4-0.1-0.4-0.1-0.8-0.2
	c-0.3-0.1-0.5-0.1-0.7-0.1c-0.3,0-0.3,0-0.7-0.1c-0.2,0-0.5-0.1-0.7-0.1c-0.2,0-0.3,0-0.5,0c-0.3,0-0.3,0-0.6,0c-0.2,0-0.4,0-0.6,0
	h-1.3C182.7,207.9,182.3,208.7,181.6,209.1L181.6,209.1z M179.1,205.2c0-1.1,0.8-2,1.8-2h3.1c0.2,0,0.4,0,0.7,0c0.3,0,0.3,0,0.6,0
	c0.3,0,0.5,0,0.8,0.1c0.2,0,0.5,0.1,0.7,0.1c0.4,0,0.4,0,0.7,0.1c0.3,0,0.6,0.1,0.9,0.1c0.4,0.1,0.4,0.1,0.8,0.2
	c0.3,0.1,0.6,0.1,0.9,0.2c0.3,0.1,0.5,0.1,0.7,0.2c0.3,0.1,0.6,0.1,0.9,0.2c0.3,0.1,0.6,0.2,0.8,0.2c0.4,0.1,0.4,0.1,0.8,0.2
	c0.3,0.1,0.5,0.2,0.8,0.3c0.3,0.1,0.5,0.2,0.7,0.3c0.3,0.1,0.5,0.2,0.8,0.3c0.3,0.2,0.3,0.2,0.6,0.3c0.2,0.1,0.4,0.2,0.5,0.3
	c0.2,0.1,0.4,0.3,0.7,0.4c0.3,0.2,0.3,0.2,0.6,0.4l0.4,0.3c0.1,0.1,0.3,0.2,0.4,0.3c0.2,0.1,0.2,0.1,0.4,0.3
	c0.2,0.1,0.2,0.1,0.3,0.2c0.2,0.1,0.4,0.3,0.6,0.5c0.5,0.4,0.8,1,0.8,1.7c0,0.3,0,0.5,0,0.8c0,0.2-0.1,0.5-0.1,0.8
	c-0.1,0.2-0.1,0.4-0.2,0.7c-0.1,0.2-0.1,0.2-0.1,0.4c-0.1,0.2-0.1,0.2-0.2,0.4c-0.1,0.2-0.2,0.4-0.3,0.6c-0.1,0.3-0.1,0.3-0.3,0.6
	c-0.1,0.2-0.1,0.3-0.2,0.5c-0.1,0.2-0.2,0.5-0.3,0.7c-0.1,0.3-0.1,0.3-0.3,0.7c-0.1,0.3-0.1,0.3-0.3,0.7c-0.1,0.3-0.2,0.5-0.3,0.7
	c-0.2,0.4-0.2,0.4-0.3,0.8c-0.1,0.3-0.2,0.6-0.4,0.9c-0.1,0.3-0.2,0.6-0.3,0.8c-0.1,0.3-0.2,0.6-0.4,0.9c-0.2,0.4-0.2,0.4-0.4,0.9
	c-0.2,0.5-0.2,0.5-0.3,0.9c-0.2,0.4-0.2,0.4-0.3,0.8c-0.1,0.4-0.1,0.4-0.3,0.7c-0.1,0.4-0.1,0.4-0.3,0.7c-0.1,0.3-0.1,0.3-0.2,0.5
	c-0.1,0.2-0.1,0.2-0.2,0.5c-0.1,0.1-0.1,0.3-0.2,0.6c-0.1,0.2-0.1,0.3-0.2,0.5c-0.1,0.3-0.1,0.3-0.1,0.5c-0.1,0.4-0.3,0.8-0.5,1.1
	c-0.4,0.6-1.1,1-1.8,0.9c-0.3,0-0.5-0.1-0.8-0.1c-0.2-0.1-0.5-0.1-0.7-0.2c-0.2-0.1-0.4-0.2-0.6-0.3l-0.5-0.3
	c-0.2-0.1-0.2-0.1-0.3-0.2c-0.2-0.1-0.2-0.1-0.3-0.2c-0.2-0.1-0.2-0.1-0.5-0.2c-0.3-0.1-0.3-0.1-0.5-0.3c-0.2-0.1-0.3-0.2-0.5-0.3
	c-0.2-0.1-0.4-0.2-0.7-0.3c-0.3-0.1-0.5-0.2-0.7-0.3c-0.2-0.1-0.5-0.2-0.7-0.3c-0.2-0.1-0.5-0.2-0.8-0.3c-0.3-0.1-0.5-0.2-0.8-0.3
	c-0.3-0.1-0.5-0.2-0.8-0.2c-0.2-0.1-0.5-0.1-0.7-0.2c-0.2-0.1-0.5-0.1-0.7-0.2c-0.2,0-0.4-0.1-0.5-0.1c-0.2,0-0.4,0-0.6,0h-0.6
	c-0.2,0-0.3,0-0.5,0c-0.2,0-0.2,0-0.5,0c-0.1,0-0.2,0-0.5,0c-0.3,0-0.6,0.1-0.8,0.1h-0.5c-0.2,0-0.4,0-0.5,0c-0.6,0-1.2-0.3-1.6-0.7
	c-0.4-0.5-0.7-1.1-0.7-1.7c0-0.2,0-0.5,0-0.7c0-0.3,0.1-0.6,0.1-0.9c0.1-0.3,0.1-0.5,0.1-0.7c0-0.2,0.1-0.4,0.2-0.6
	c0.1-0.3,0.1-0.3,0.2-0.6c0.1-0.3,0.1-0.3,0.2-0.6c0.1-0.3,0.1-0.3,0.2-0.7c0.1-0.4,0.1-0.4,0.2-0.7c0.1-0.2,0.1-0.5,0.2-0.9
	c0.1-0.5,0.1-0.5,0.3-1c0.1-0.3,0.1-0.5,0.2-0.8c0.1-0.3,0.2-0.6,0.3-1c0.1-0.4,0.2-0.7,0.3-1.1c0.1-0.6,0.1-0.6,0.2-1
	c0.1-0.3,0.1-0.6,0.2-0.9c0.1-0.5,0.1-0.5,0.2-0.8c0.1-0.3,0.1-0.6,0.2-0.9c0.1-0.3,0.1-0.5,0.2-0.7c0.1-0.2,0.2-0.5,0.2-0.7
	c0.1-0.2,0.2-0.5,0.3-0.7c0.2-0.3,0.4-0.6,0.7-1c0.1-0.1,0.3-0.3,0.4-0.4C179.2,205.8,179.1,205.5,179.1,205.2L179.1,205.2z"/>
<path d="M186.6,159.6L186.6,159.6L186.6,159.6L186.6,159.6z M209.6,148.1c0,0,0.1,0,0.1,0L209.6,148.1L209.6,148.1z M193.9,142.9
	c-0.1,0.2-0.2,0.3-0.3,0.5c-0.1,0.2-0.2,0.4-0.4,0.7c-0.1,0.3-0.3,0.5-0.4,0.8c-0.1,0.3-0.3,0.5-0.4,0.8c-0.1,0.3-0.3,0.6-0.5,0.9
	c-0.2,0.4-0.3,0.7-0.5,1c-0.2,0.5-0.2,0.5-0.5,1c-0.2,0.3-0.3,0.7-0.5,1c-0.2,0.5-0.2,0.5-0.5,1c-0.2,0.5-0.2,0.5-0.5,1
	c-0.2,0.3-0.3,0.7-0.4,1c-0.2,0.5-0.2,0.5-0.4,1c-0.1,0.3-0.2,0.6-0.3,0.8c-0.1,0.4-0.1,0.4-0.3,0.9c-0.2,0.5-0.2,0.5-0.3,0.8
	c-0.1,0.2-0.2,0.4-0.2,0.6c-0.1,0.2-0.1,0.4-0.2,0.6c0,0,0,0.1,0,0.1c0.2-0.1,0.4-0.1,0.7-0.1c0.2,0,0.4-0.1,0.6-0.1
	c0.2,0,0.5-0.1,0.7-0.1c0.3,0,0.3,0,0.7-0.1c0.2,0,0.5,0,0.8,0h0.8c0.3,0,0.6,0,0.9,0c0.3,0,0.7,0.1,1,0.1c0.3,0,0.7,0.1,1,0.2
	c0.3,0.1,0.6,0.2,0.9,0.2c0.3,0.1,0.5,0.2,0.8,0.3c0.3,0.1,0.6,0.2,0.9,0.3c0.3,0.1,0.6,0.2,0.8,0.3c0.3,0.1,0.5,0.2,0.8,0.3
	c0.4,0.2,0.4,0.2,0.8,0.3c0.3,0.1,0.5,0.3,0.8,0.4c0.3,0.2,0.3,0.2,0.6,0.3c0.2,0.1,0.5,0.2,0.7,0.3c0.2,0.1,0.3,0.2,0.5,0.3
	c0.3,0.1,0.3,0.1,0.5,0.3c0.1,0.1,0.3,0.1,0.4,0.2c0.2,0.1,0.2,0.1,0.4,0.2c0,0,0.1,0,0.1,0c0-0.1,0.1-0.2,0.1-0.4
	c0.1-0.3,0.1-0.3,0.2-0.6c0.1-0.2,0.1-0.5,0.2-0.7c0.1-0.3,0.1-0.3,0.2-0.6c0.1-0.3,0.2-0.5,0.3-0.8c0.1-0.2,0.2-0.5,0.2-0.7
	c0.1-0.3,0.2-0.5,0.3-0.8c0.1-0.4,0.1-0.4,0.3-0.9c0.2-0.5,0.2-0.5,0.3-0.9c0.2-0.4,0.2-0.4,0.3-0.9c0.1-0.3,0.2-0.6,0.3-1
	c0.1-0.3,0.2-0.7,0.3-1c0.1-0.4,0.2-0.7,0.3-1c0.1-0.3,0.2-0.6,0.3-0.9c0.1-0.3,0.2-0.5,0.3-0.7c0.1-0.2,0.1-0.4,0.2-0.6
	c0.1-0.3,0.1-0.3,0.2-0.6c0.1-0.1,0.1-0.3,0.1-0.4c-0.1,0-0.2-0.1-0.3-0.1c-0.2-0.1-0.5-0.2-0.7-0.3c-0.3-0.1-0.3-0.1-0.4-0.2
	c-0.1-0.1-0.3-0.1-0.5-0.2c-0.2-0.1-0.2-0.1-0.4-0.2c-0.2-0.1-0.2-0.1-0.5-0.2c-0.3-0.1-0.3-0.1-0.5-0.2c-0.3-0.1-0.3-0.1-0.5-0.3
	c-0.3-0.1-0.3-0.1-0.5-0.2c-0.3-0.1-0.3-0.1-0.6-0.3c-0.2-0.1-0.4-0.2-0.6-0.3c-0.2-0.1-0.4-0.2-0.6-0.3c-0.3-0.1-0.3-0.1-0.6-0.3
	c-0.3-0.1-0.5-0.2-0.7-0.3c-0.2-0.1-0.4-0.2-0.6-0.2c-0.2-0.1-0.4-0.1-0.6-0.2c-0.3-0.1-0.5-0.2-0.7-0.2c-0.2-0.1-0.4-0.1-0.6-0.2
	c-0.2-0.1-0.5-0.1-0.7-0.2c-0.2-0.1-0.4-0.1-0.7-0.1c-0.2,0-0.4-0.1-0.5-0.1c-0.3,0-0.3,0-0.6-0.1c-0.2,0-0.4,0-0.5-0.1
	c-0.2,0-0.4,0-0.6-0.1c-0.2,0-0.3,0-0.4,0C194,142.8,194,142.8,193.9,142.9C193.9,142.9,193.9,142.9,193.9,142.9L193.9,142.9z
	 M190.5,140.4c0.1-1,1.1-1.7,2.1-1.6l0.1,0c0.7-0.5,1.7-0.4,2.4,0.2c0.2,0.1,0.3,0.1,0.4,0.1c0.2,0,0.4,0,0.7,0.1
	c0.4,0,0.4,0,0.7,0.1c0.2,0,0.5,0.1,0.8,0.1c0.3,0.1,0.5,0.1,0.8,0.2c0.2,0.1,0.5,0.1,0.7,0.2c0.3,0.1,0.6,0.2,0.8,0.3
	c0.2,0.1,0.4,0.1,0.6,0.2c0.3,0.1,0.5,0.2,0.8,0.3c0.3,0.1,0.5,0.2,0.8,0.3c0.2,0.1,0.4,0.2,0.6,0.3c0.3,0.1,0.3,0.1,0.6,0.3
	c0.2,0.1,0.4,0.2,0.6,0.2c0.2,0.1,0.5,0.2,0.7,0.3c0.3,0.1,0.3,0.1,0.6,0.3c0.3,0.1,0.3,0.1,0.6,0.3c0.3,0.1,0.3,0.1,0.5,0.3
	c0.2,0.1,0.2,0.1,0.5,0.2c0.2,0.1,0.2,0.1,0.5,0.2c0.2,0.1,0.2,0.1,0.4,0.2c0.1,0.1,0.2,0.1,0.4,0.2c0.2,0.1,0.2,0.1,0.5,0.3
	c0.1,0.1,0.3,0.1,0.4,0.2c0.1,0,0.3,0.1,0.5,0.2c0.2,0,0.2,0,0.3,0c0.6,0,1.2,0.3,1.7,0.8c0.5,0.5,0.7,1.2,0.5,1.9
	c0,0.2,0,0.2-0.1,0.5c0,0.2-0.1,0.4-0.2,0.7c-0.1,0.3-0.1,0.3-0.2,0.6c-0.1,0.2-0.1,0.4-0.2,0.6c-0.1,0.3-0.1,0.3-0.2,0.6
	c-0.1,0.2-0.1,0.4-0.2,0.6c-0.1,0.2-0.2,0.5-0.3,0.8c-0.1,0.3-0.2,0.6-0.3,0.9c-0.1,0.3-0.2,0.6-0.3,1c-0.1,0.4-0.2,0.7-0.4,1.1
	c-0.1,0.3-0.2,0.6-0.3,0.9c-0.2,0.4-0.2,0.4-0.3,0.9c-0.2,0.4-0.2,0.4-0.3,0.9c-0.2,0.5-0.2,0.5-0.3,0.9c-0.1,0.2-0.2,0.5-0.3,0.7
	c-0.1,0.3-0.2,0.5-0.3,0.8c-0.1,0.2-0.2,0.4-0.2,0.7c-0.1,0.4-0.1,0.4-0.2,0.7c-0.1,0.1-0.1,0.3-0.2,0.5c-0.1,0.3-0.1,0.3-0.2,0.6
	c-0.1,0.2-0.1,0.2-0.1,0.5c-0.1,0.2-0.1,0.2-0.1,0.4c-0.1,0.2-0.1,0.4-0.2,0.6c-0.1,0.3-0.3,0.6-0.4,0.9c-0.5,0.6-1.2,1-1.9,1
	c-0.2,0-0.5,0-0.7-0.1c-0.2-0.1-0.5-0.1-0.8-0.2c-0.2-0.1-0.4-0.2-0.6-0.2c-0.2-0.1-0.2-0.1-0.4-0.2c-0.2-0.1-0.2-0.1-0.4-0.2
	c-0.2-0.1-0.3-0.2-0.5-0.3c-0.2-0.1-0.2-0.1-0.5-0.3c-0.2-0.1-0.4-0.2-0.6-0.3c-0.2-0.1-0.3-0.2-0.5-0.3c-0.3-0.1-0.3-0.1-0.6-0.3
	c-0.2-0.1-0.4-0.2-0.6-0.3c-0.4-0.2-0.4-0.2-0.8-0.3c-0.2-0.1-0.5-0.2-0.7-0.3c-0.2-0.1-0.5-0.2-0.7-0.3c-0.3-0.1-0.5-0.2-0.8-0.3
	c-0.3-0.1-0.5-0.2-0.7-0.2c-0.2-0.1-0.5-0.1-0.8-0.2c-0.3-0.1-0.5-0.1-0.7-0.1c-0.2,0-0.4-0.1-0.6-0.1c-0.3,0-0.5,0-0.7,0h-0.8
	c-0.2,0-0.4,0-0.6,0c-0.3,0-0.3,0-0.6,0c-0.2,0-0.4,0-0.5,0.1c-0.2,0-0.3,0.1-0.5,0.1c-0.1,0-0.3,0.1-0.4,0.1
	c-0.2,0.1-0.2,0.1-0.4,0.1c-0.1,0-0.2,0.1-0.3,0.1c-0.1,0-0.1,0.1-0.2,0.1c-0.2,0.1-0.4,0.1-0.6,0.2c-0.3,0.1-0.7,0.2-1,0.2
	c-0.4,0-0.7,0-1.1-0.1c-0.9-0.2-1.6-1-1.6-2.1c0-0.2,0-0.4,0-0.6c0-0.3,0.1-0.5,0.1-0.8c0.1-0.2,0.1-0.4,0.2-0.6
	c0.1-0.2,0.1-0.2,0.1-0.5c0.1-0.2,0.1-0.2,0.2-0.5c0.1-0.3,0.1-0.3,0.2-0.6c0.1-0.2,0.1-0.4,0.2-0.6c0.1-0.2,0.2-0.4,0.2-0.7
	c0.1-0.4,0.1-0.4,0.3-0.8c0.2-0.5,0.2-0.5,0.3-0.9c0.1-0.3,0.2-0.6,0.4-0.9c0.2-0.5,0.2-0.5,0.4-1c0.1-0.3,0.3-0.7,0.5-1.1
	c0.2-0.5,0.2-0.5,0.5-1c0.2-0.5,0.2-0.5,0.5-1c0.2-0.4,0.3-0.7,0.5-1.1c0.2-0.5,0.2-0.5,0.5-1c0.2-0.3,0.3-0.7,0.5-1
	c0.2-0.4,0.4-0.7,0.5-1c0.2-0.3,0.3-0.6,0.5-0.9c0.1-0.3,0.3-0.6,0.4-0.8c0.2-0.3,0.3-0.5,0.4-0.7c0-0.1,0.1-0.1,0.1-0.2
	C190.5,141.1,190.4,140.8,190.5,140.4L190.5,140.4z"/>
<path d="M192.8,258.2c1-0.7,2.1-1.1,3.3-1.1c1.9,0,3.6,0.9,4.8,2.3c0,0.1,0,0.1,0,0.2l4.5,27.7c-1.8-1.6-4.2-2.4-6.7-2.2
	c-2.4,0.2-4.7,1.4-6.2,3.3c0-7.5-0.6-19.9-2.3-27.2C190.8,260,191.7,259,192.8,258.2L192.8,258.2z M197.4,286.9
	c0.6-0.2,1.3-0.3,2-0.3c3.2,0,6.1,2.1,6.7,4.9c-0.5,2.8-3.8,4.6-6.7,4.9L197.4,286.9z M216.3,259.7c-2.7,1.6-5.4,3.4-5.6,3.5
	c-0.3,0.2-0.4,0.5-0.3,0.9c0.1,0.3,0.3,0.5,0.6,0.6c0.4,0.1,8.3,1.5,11.5,1.5h0.4c0.2,0,0.4,0,0.6-0.1h0.2l32.7-6.5h18.1l9.9,33.9
	l-40.9,7.3h-40.2c-6.3,0-10.1-3.7-11-7.4c0-0.4,0-0.8,0-1.2c0,0,0-0.1,0-0.1c0.5-1.9,1.8-3.6,3.5-4.5l2,9.9c0.1,0.4,0.4,0.6,0.8,0.6
	c3.8,0,8.2-2.3,8.9-6.2c0-0.2,0-0.4,0-0.6l-5.1-31.4L216.3,259.7z M221.7,258.6c0.7-0.2,1.4-0.2,2,0.2c0.8,0.5,1.4,1.3,1.6,2.2
	c0.2,0.9-0.1,1.9-0.6,2.7c-0.4,0.6-1.1,1-1.8,1c-2,0.1-7-0.7-9.7-1.1C215.5,262,219.8,259.3,221.7,258.6L221.7,258.6z M263.5,250.3
	c1.6-0.3,3.1,0.7,3.5,2.3l0.1,0.3c0.2,0.8,0,1.5-0.4,2.2c-0.4,0.7-1.1,1.1-1.9,1.3l-38.6,7.7c0.4-0.8,0.6-1.6,0.6-2.5l28.2-5.6
	c0.4-0.1,0.7-0.5,0.6-0.9c-0.1-0.4-0.5-0.7-0.9-0.6l-28.2,5.7c-0.3-0.8-0.8-1.5-1.4-2.1L263.5,250.3z M286.8,303l-76.3,13.6l-1.8-8
	l4.5-0.8l1,4.3c0.1,0.4,0.4,0.6,0.8,0.6h0.2c0.4-0.1,0.7-0.5,0.6-0.9l-1-4.3l4.6-0.8l1,4.3c0.1,0.4,0.4,0.6,0.8,0.6h0.2
	c0.4-0.1,0.7-0.5,0.6-0.9l-1-4.3l4.6-0.8l1,4.3c0.1,0.4,0.4,0.6,0.8,0.6h0.2c0.4-0.1,0.7-0.5,0.6-0.9l-1-4.4l4.6-0.8l1,4.3
	c0.1,0.4,0.4,0.6,0.8,0.6h0.2c0.2,0,0.4-0.2,0.5-0.4c0.1-0.2,0.1-0.4,0-0.7l-1-4.3l4.6-0.8l1,4.3c0.1,0.4,0.4,0.6,0.8,0.6h0.2
	c0.4-0.1,0.7-0.5,0.6-0.9l-1-4.3l4.6-0.8l1,4.3c0.1,0.4,0.4,0.6,0.8,0.6h0.2c0.4-0.1,0.7-0.5,0.6-0.9l-1-4.3l4.6-0.8l1,4.3
	c0.1,0.4,0.4,0.6,0.8,0.6h0.2c0.4-0.1,0.7-0.5,0.6-0.9l-1-4.3l4.6-0.8l1,4.3c0.1,0.4,0.4,0.6,0.8,0.6h0.2c0.4-0.1,0.7-0.5,0.6-0.9
	l-1-4.4l4.6-0.8l1,4.3c0.1,0.4,0.4,0.6,0.8,0.6h0.2c0.4-0.1,0.7-0.5,0.6-0.9l-1-4.3l4.6-0.8l1,4.3c0.1,0.4,0.4,0.6,0.8,0.6h0.2
	c0.4-0.1,0.7-0.5,0.6-0.9l-1-4.3l4.6-0.8l1,4.3c0.1,0.4,0.4,0.6,0.8,0.6h0.2c0.4-0.1,0.7-0.5,0.6-0.9l-1-4.3l5.2-0.9l0.9,4.2
	c0.1,0.4,0.4,0.6,0.8,0.6h0.2c0.4-0.1,0.7-0.5,0.6-0.9l-0.9-4.1l2.5-0.4L286.8,303z M190.9,291.1c0,0,0,0.1,0,0.1
	c-0.1,0.8-0.1,1.7,0,2.5c1.1,4.3,5.3,8.6,12.5,8.6h31.4l-27.1,4.8c-0.2,0-0.4,0.2-0.5,0.3s-0.2,0.4-0.1,0.6l2.1,9.5
	c0.1,0.4,0.4,0.6,0.8,0.6h0.1l77.8-13.8c0.2,0,0.4-0.2,0.5-0.3c0.1-0.2,0.2-0.4,0.1-0.6l-2.1-9.5c0-0.2-0.1-0.3-0.3-0.4v-0.1
	L276,258.6c-0.1-0.3-0.4-0.6-0.8-0.6h-10.9l0.8-0.2c1.2-0.2,2.2-0.9,2.9-1.9c0.7-1,0.9-2.2,0.7-3.4l-0.1-0.3c-0.5-2.4-2.9-4-5.3-3.5
	l-40.6,8.1c-0.5,0-1,0.1-1.5,0.2c-0.7,0.3-1.4,0.6-2.1,1l-17,0.2c-1.4-1.8-3.6-2.8-5.9-2.8c-1.5,0-3,0.5-4.2,1.4
	c-1.9,1.3-3.4,3.6-3.4,4.3c0,0,0,0.1,0,0.1C190.5,269.5,191,284.2,190.9,291.1L190.9,291.1z"/>
<path d="M224.7,278h2.2c1,0,2.3-1.1,3.4-2.2c0.4-0.4,0.6-0.9,0.5-1.4c-0.1-0.6-0.5-1.2-1.1-1.5l-1.7-0.9l-0.1,0l0.1,0l0.7-0.4
	c0.6-0.3,1.4-0.3,2,0l1.7,0.9c1.1,0.5,2.3,0.6,3.4,0.4l2.2-0.5c1.3-0.2,2.2-1.3,2.2-2.6v-0.2c0-0.4,0.4-0.8,0.8-0.8h1.8
	c0.2,0,0.4,0.1,0.6,0.2c0.1,0.1,0.2,0.3,0.2,0.6v0.2c0,1.3,0.9,2.3,2.2,2.6l2.2,0.5c1.2,0.3,2.4,0.2,3.5-0.4l1.7-0.9
	c0.6-0.3,1.4-0.3,2,0l0.7,0.4l0.1,0l-0.1,0l-1.7,0.9c-0.3,0.2-0.6,0.5-0.7,0.8c-0.3,1,0.4,2.4,0.6,2.8c0.7,0.9,1.7,1.4,2.8,1.3h2.9
	c0.5,0,0.8,0.3,0.8,0.5s-0.3,0.5-0.8,0.5H257c-1,0-2.3,1.1-3.4,2.2c-0.4,0.4-0.6,0.9-0.5,1.4c0.1,0.6,0.5,1.2,1.1,1.5l1.7,0.9l0.1,0
	l-0.1,0l-0.7,0.4c-0.6,0.3-1.4,0.3-2,0l-1.7-0.9c-1.1-0.5-2.3-0.7-3.4-0.4l-2.2,0.5c-1.3,0.2-2.2,1.3-2.2,2.6v0.2
	c0,0.2-0.1,0.4-0.2,0.6c-0.1,0.1-0.3,0.2-0.6,0.2h-1.8c-0.4,0-0.8-0.4-0.8-0.8v-0.2c0-1.3-0.9-2.3-2.2-2.6l-2.2-0.5
	c-0.4-0.1-0.8-0.2-1.2-0.1c-0.8,0-1.6,0.2-2.3,0.5l-1.7,0.9c-0.6,0.3-1.4,0.3-2,0l-0.7-0.4l-0.1-0.1l0.1,0l1.7-0.9
	c0.3-0.2,0.6-0.5,0.7-0.8c0.3-1-0.4-2.4-0.6-2.8c-0.6-0.9-1.7-1.4-2.8-1.4h-2.2c-0.5,0-0.8-0.3-0.8-0.5S224.2,278,224.7,278
	L224.7,278z M224.7,280.6h2.2c0.5,0,1.1,0.2,1.4,0.6c0.3,0.5,0.5,1,0.5,1.6l-1.6,0.8c-0.6,0.2-1,0.8-1,1.4c0,0.6,0.4,1.2,1,1.4
	l0.7,0.4c1.1,0.5,2.4,0.5,3.5,0l1.7-0.9c0.7-0.3,1.6-0.4,2.3-0.2l2.3,0.5c0.5,0.1,0.9,0.5,0.9,1v0.2c0,1.3,1.1,2.3,2.3,2.3h1.8
	c1.3,0,2.3-1.1,2.3-2.3v-0.2c0-0.5,0.4-0.9,0.9-1l2.3-0.5c0.8-0.2,1.6-0.1,2.3,0.2l1.7,0.9c1.1,0.5,2.4,0.5,3.5,0l0.7-0.4
	c0.6-0.2,1-0.8,1-1.4c0-0.6-0.4-1.2-1-1.4l-1.7-0.9c-0.2-0.1-0.3-0.2-0.3-0.3c0-0.1,0,0,0.1-0.1c1.7-1.6,2.2-1.7,2.3-1.7h2.9
	c0.6,0.1,1.2-0.1,1.7-0.5c0.5-0.4,0.7-1,0.7-1.6c0-0.6-0.3-1.2-0.7-1.6c-0.4-0.4-1.1-0.6-1.7-0.5H257c-0.5,0-1.1-0.2-1.4-0.6
	c-0.3-0.5-0.5-1-0.5-1.6l1.6-0.8c0.6-0.2,1-0.8,1-1.4s-0.4-1.2-1-1.4l-0.7-0.4c-1.1-0.5-2.4-0.5-3.5,0l-1.6,0.9
	c-0.7,0.3-1.6,0.4-2.3,0.2l-2.3-0.5c-0.5-0.1-0.9-0.5-0.9-1v-0.2c0-1.3-1.1-2.3-2.3-2.3h-1.8c-1.3,0-2.3,1.1-2.3,2.3v0.2
	c0,0.5-0.4,0.9-0.9,1l-2.3,0.5c-0.8,0.2-1.6,0.1-2.3-0.2l-1.7-0.9c-1.1-0.5-2.4-0.5-3.5,0l-0.7,0.4c-0.6,0.2-1,0.8-1,1.4
	c0,0.6,0.4,1.2,1,1.4l1.7,0.9c0.2,0.1,0.3,0.2,0.3,0.3c0,0.1,0,0-0.1,0.1c-1.7,1.6-2.2,1.7-2.3,1.7h-2.2c-0.6-0.1-1.2,0.1-1.7,0.5
	c-0.5,0.4-0.7,1-0.7,1.6s0.3,1.2,0.7,1.6C223.5,280.5,224.1,280.7,224.7,280.6L224.7,280.6z"/>
<path d="M242.3,276.2c2.8,0,4.7,1.2,4.7,2.3c0,1.1-1.9,2.3-4.7,2.3s-4.7-1.2-4.7-2.3C237.6,277.5,239.5,276.2,242.3,276.2z
	 M242.3,282.4c3.5,0,6.2-1.7,6.2-3.8c0-2.1-2.8-3.8-6.2-3.8s-6.2,1.7-6.2,3.8C236,280.7,238.8,282.4,242.3,282.4z"/>
<path fill-rule="evenodd" clip-rule="evenodd" d="M283.5,68.4c0.2,0.9,0.4,1.1,1.5,1.1c1.1,0,2.2-0.6,2.3-1.5c0-0.9-1.5-1-2.3-1
	C284.2,67,283.3,67.5,283.5,68.4L283.5,68.4z M282,79.3c-2.2,0-4.3,1.7-5.3,3.7c0,0-0.3,0.5-0.2,0.6c0.1,0.1,0.6-0.1,0.7-0.1
	c3.4-0.4,6.8-0.9,10.2-1.4c0.1,0,0.3-0.1,0.3-0.2c0-0.1-0.1-0.3-0.2-0.4C286,80,284.1,79.3,282,79.3L282,79.3z M277.1,84.4
	c-1.7,0.6-1.3-0.2-0.9-1.2c0.8-2.6,2.7-3.8,5.2-4.5c0.3-0.1,0.6-0.4,0.7-0.7c0.7-1.9,2.7-6.5,2.8-6.9c0.1-0.3-0.1-0.8-0.4-0.9
	c-1.2-0.5-1.4-1.4-1.1-2.7c0.4-2,4.1-0.9,4.3-0.3c0.4,1.2-0.2,2-1.1,2.7c-0.6,0.5-1,1.4-1.3,2.2c-0.8,1.8-1.4,3.6-2.1,5.5
	c-0.1,0.2,0.3,0.6,0.5,0.7c1.5,1,2.5,1,3.5,1.9c1,0.9,2.2,2.1,2.4,2.3C289.1,82.7,277.3,84.3,277.1,84.4L277.1,84.4z"/>
<path fill-rule="evenodd" clip-rule="evenodd" d="M292.1,30.3L292.1,30.3L292.1,30.3z"/>
<polygon fill-rule="evenodd" clip-rule="evenodd" points="248.5,28.7 248.5,28.7 248.5,28.7 "/>
<polygon fill-rule="evenodd" clip-rule="evenodd" points="248.5,28.7 248.5,28.7 248.5,28.7 "/>
<path fill-rule="evenodd" clip-rule="evenodd" d="M292.8,97.3c0,0.3-2.8,0.4-3.1,0.4c-4.4,0.2-104.7,8-109.2,8.3
	c-0.5-4.8-2.8-26.1-4.8-44.5c3.2-0.2,108.3-7.8,115.8-8.2C292.3,72.1,292.9,94.9,292.8,97.3L292.8,97.3z M190,32.7
	c0.3,0.3,11.8,10.8,11.9,11.8c0.1,0.8-3.5,10.2-4.7,12.5c-0.3,0.5-1.8,2.1-2.3,2.2c-3.1,0.4-17.5,1.3-19.2,1.4
	c-1.5-13.3-2.8-24.9-3.1-27.5C174.1,33,189.9,32.5,190,32.7L190,32.7z M215.9,31c0.7,0,1.5,0.3,2.1,0.7c0.6,0.4,6.9,7.9,9.6,11
	c0.1,0.2-4.9,10.8-6,12.6c-0.1,0.2-1.8,2.1-2.1,2.1c-3.8,0.3-22.6,1.6-22.5,1.5c0.7-1.4,1.9-4,2.6-5.3c1.1-2.1,4.2-9.4,3.9-9.9
	c-1.7-2.4-10.1-8.9-11.8-10.7c-0.1-0.1-0.7-0.7-0.8-0.8C190.9,32.2,213.4,31,215.9,31L215.9,31z M219,30.8
	c4.6-0.1,24.1-1.3,24.7-1.1c0.9,0.3,1.5,0.8,2.1,1.5c2.6,2.7,8.1,9.2,8.3,9.2c0,0-4.8,13-5.5,14.6c-0.1,0.3-27.8,2.8-27.4,2
	c1.4-2.4,6.9-12.9,7.1-13.1c0.4-0.4,0.4-1.6-0.1-2c-0.5-0.4-6.8-7.5-9.5-10.6c-0.1-0.1-0.2-0.3-0.3-0.5
	C218.7,30.9,218.8,30.8,219,30.8L219,30.8z M270.1,28.8c0.7,0.1,1.4,1.2,1.9,2c1.5,2.3,3.3,5.6,4.8,7.9c0.8,1.3-4.3,12.4-5.5,15
	c-0.2,0.4-21.7,1.6-21.7,1.5c0.9-2.5,2.6-7.8,3.5-10.3c0.3-0.9,1.3-3.5,1.6-4.4c0,0-9.1-10.7-9.3-11
	C245.8,29.4,268.4,28.5,270.1,28.8L270.1,28.8z M271.5,28.7c0.1-0.1,0.2-0.2,0.4-0.2c0.8,0,16.5-0.5,19.2-0.6c0,3.9,0.6,14,0.5,24.4
	c-3.1,0.1-18.8,0.8-18.8,0.7c1.1-2.8,5.4-13.5,5.2-13.9c-1.3-3.6-4-7.1-6.3-10.1C271.5,29,271.4,28.8,271.5,28.7L271.5,28.7z
	 M291.8,26.9c0,0-117.4,4.7-120.1,5.1c-0.1,0,8.1,74.4,8.2,75c0,0.2,106.7-8.5,110.1-8.7c0.4,0,3.5-0.1,3.5-0.3
	C293.8,94.4,291.8,26.9,291.8,26.9L291.8,26.9z"/>
<path fill-rule="evenodd" clip-rule="evenodd" d="M199.2,64.2c0-0.2,0.3-0.1,0.3,0c0.1,0.7,3.9,35,4,36.6c0,0.1-0.3,0.1-0.4,0.1
	C203.2,100.6,199.4,65.9,199.2,64.2L199.2,64.2z"/>
<path fill-rule="evenodd" clip-rule="evenodd" d="M222.4,62.7c0-0.2,0.3-0.1,0.3,0c0.1,0.7,3.9,35,4,36.6c0,0.1-0.3,0.1-0.4,0.1
	C226.3,99.1,222.6,64.4,222.4,62.7L222.4,62.7z"/>
<path fill-rule="evenodd" clip-rule="evenodd" d="M248.1,60.1c0-0.2,0.3-0.1,0.3,0c0.1,0.7,3.9,35,4,36.6c0,0.1-0.3,0.1-0.4,0.1
	C252.1,96.5,248.3,61.8,248.1,60.1L248.1,60.1z"/>
<path fill-rule="evenodd" clip-rule="evenodd" d="M270.4,58.4c0-0.2,0.3-0.1,0.3,0c0.1,0.7,3.9,35,4,36.6c0,0.1-0.3,0.1-0.4,0.1
	C274.3,94.8,270.6,60,270.4,58.4L270.4,58.4z"/>
<path fill-rule="evenodd" clip-rule="evenodd" d="M265.5,74.3c-0.1,0.2-0.5,0.3-0.7,0.4c-0.1-0.2-0.1-0.4-0.1-0.6
	c-0.1-0.3-0.1-0.8-0.1-0.8c-0.9,0-1.6,0-1.9,1.3l-2.2,10.9c-0.5,2-3.4,0.2-3.3,0c0.5-1.4,2.8-9.5,3.2-12.1c0-0.2,0.4-0.6-0.5-0.8
	c-0.8-0.2-3.9,2.2-3.8,1.2c0.3-2.8,5.4-2.7,7.4-2.1c0,0-0.1,0.5,0.2,0.6c0.4,0.1,1-0.1,1-0.1c0.1,0,0-1.3,0.1-1.5
	c0.4,0.3,1.6,0.1,1.6,0.5C266.2,72.1,265.7,73.5,265.5,74.3L265.5,74.3z M264.9,70.1c-0.2-0.1-0.6,0.1-0.6,0.2
	c-0.1,0.4-0.1,1.1-0.1,1.6l-0.3,0c-0.1-0.2,0-0.7-0.1-0.7c-1.4-0.1-3.3-0.3-4.7-0.2c-1.6,0.2-4.9,2.3-3.4,3.8c1.3,1.2,2.5-1,3.3-1.5
	c0.2-0.1,1-0.1,1,0c-0.1,0.9-0.5,2-0.7,2.8c-0.8,3-1.7,6.1-2.5,9.1c-0.1,0.3,0,0.8,0.2,0.9c0.9,0.4,1.8,0.8,2.8,1.1
	c0.2,0.1,0.8-0.3,0.8-0.5c0.7-2.6,1.3-5.2,1.9-7.8c0.3-1.5,0.7-5,1.3-5.1c0.1,0,0.5,0,0.5,0.1c-0.4,1,0.3,1.5,0.5,1.5
	c0.2-0.1,1.6,0,1.6-0.1c0.4-1.1,0.3-2.4,0.5-3.1C266.9,70.4,265.7,70.4,264.9,70.1L264.9,70.1z"/>
<path d="M234.3,87.3l-0.4-8.9l1.1-0.1c0,0,2.7,6.4,3,6.4c0.3,0,3.3-7.1,3.3-7.1l1.5-0.2l0.5,9.2L234.3,87.3z M240.4,77.7
	c0,0-2.2,5.7-2.5,5.7c-0.3-0.1-2.2-5.2-2.2-5.2L240.4,77.7z M243.2,76.8l-1.7,0.2c0,0,2.1-3.9,2-4.6c-0.1-0.7-0.4-0.7-0.7-0.3
	c-0.3,0.4-2.2,4.9-2.2,4.9l-5.3,0.5c0,0-0.7-1.7-0.9-2.2c-0.3-0.4-0.6-0.2-0.7,0.3c0,0.5,0.8,1.9,0.8,1.9l-1.5,0.1l0.5,10.2l10.3-1
	L243.2,76.8z"/>
<path d="M180.4,78c0,0,5.8,15.2,4.5,16.2c-1.3,1,13-4.3,13-4.3s0.2-16-3.9-15.7C190,74.7,180.4,78,180.4,78L180.4,78z M184.5,94.6
	c1.2-0.9-4.3-16.7-4.3-16.7l0.1,0c0,0,10-3.5,14-3.8c3.9-0.3,4.4,16.1,4.4,16.1l-0.1,0C198.5,90.2,183.3,95.6,184.5,94.6L184.5,94.6
	z"/>
<path fill-rule="evenodd" clip-rule="evenodd" d="M191.9,86.3c-0.3-1.1-0.7-2.4-1-3.6c1-0.3,2-0.7,2.9-1c0.4,1.2,0.7,2.4,1,3.5
	C193.9,85.5,192.9,85.9,191.9,86.3L191.9,86.3z M185.5,80.6c1.2-0.4,2.7-0.9,4.1-1.4l0.8,3.1c-1.4,0.5-2.9,1-4,1.4L185.5,80.6z
	 M196.9,84.4c-0.1,0-0.9,0.3-2,0.8c-0.2-1.1-0.6-2.3-0.9-3.5c1.6-0.5,2.7-0.9,2.7-0.9c0,0,0-0.5,0-0.5c-0.2,0-1.3,0.4-2.8,1
	c-0.3-1.1-0.6-2.2-0.9-3.1c1.4-0.5,2.4-0.8,2.4-0.8c0,0,0-0.5,0-0.5c-0.1,0-1.1,0.4-2.5,0.9c-0.4-1-0.6-1.7-0.8-1.7
	c-0.2,0,0,0.8,0.4,1.9c-0.9,0.3-1.8,0.6-2.9,1c-0.3-0.9-0.3-1.7-0.6-1.6c-0.2,0.1,0.4,1.7,0.4,1.7c-1.4,0.5-2.8,1-4,1.4l-0.5-1.9
	c-0.3,0.2-0.3,1-0.1,2.1c-1.5,0.5-2.6,0.9-2.6,0.9c0,0,0,0.3,0,0.3c0.2,0,1.2-0.4,2.7-0.9c0.2,0.9,0.5,2,0.8,3.2
	c-1.3,0.5-2.2,0.8-2.2,0.8c0,0,0,0.3,0,0.3c0.1,0,1-0.3,2.3-0.7c0.4,1.3,0.8,2.7,1.2,3.9c-1.1,0.4-1.8,0.7-1.9,0.7c0,0,0,0.3,0,0.3
	c0.1,0,0.9-0.3,2-0.7c0.5,1.4,0.8,2.4,0.9,2.5l-0.6-2.6c1.1-0.4,2.6-1,4-1.5l0.7,3c0.4-0.2,0.2-1.5-0.2-3.2c1-0.4,2-0.8,2.8-1.1
	c0.4,1.6,0.5,2.8,0.1,3c0,0,0.3,0.1,0.4,0.1c0.3-0.1,0.1-1.5-0.3-3.2c1.1-0.4,1.9-0.7,1.9-0.7C197,84.8,197,84.3,196.9,84.4
	L196.9,84.4z"/>
<path d="M209,87.9c-0.1,0-0.8,0.4-1.1,0.2c-0.3-0.1-0.3-0.4-0.2-0.8c0.1-0.4,0.4-0.9,1-2.1l0.2,1l1.4-0.2
	C209.8,86.7,209.4,87.3,209,87.9L209,87.9z M215,72.6c0.1-0.1,0.5,0,1,0.1l-7,12.5l-0.2-0.4C210.9,80.6,214.7,73,215,72.6L215,72.6z
	 M209.1,85.4l7.1-12.7c0.4,0.1,0.8,0.2,1.2,0.3l-7.9,12.6l-0.4,0.1L209.1,85.4z M210.6,85.5l-0.8,0.1l7.8-12.5
	c0.7,0.2,1.3,0.4,1.3,0.4S213.9,80.6,210.6,85.5L210.6,85.5z M214.6,72.2c-1,1.8-5.8,11.5-6.8,13.2c-0.6,1-1.2,3.8-1.1,4.8
	c1.2-0.7,2.3-1.3,3-2.6c0.8-1.7,9.2-13,9.9-14.3C217.8,72.8,216.4,71.7,214.6,72.2L214.6,72.2z"/>
<path d="M531.6,203.7h-43.3c10.3-2.9,20.9-4.5,31.8-4.5c1.5,0,2.7-1.2,2.7-2.7l0-58.8h8.8L531.6,203.7z M413.2,137.6h8.8v59
	c0,1.5,1.2,2.7,2.7,2.7c10.9,0,21.5,1.6,31.8,4.5h-43.3V137.6z M427.3,127.9c14.7,0.4,28.8,3.4,42.4,9v65.6
	c-13.6-5.3-27.8-8.3-42.5-8.6v-66L427.3,127.9z M475.1,202.4v-65.6c13.6-5.6,27.8-8.6,42.5-9v66
	C502.8,194.1,488.7,197.1,475.1,202.4L475.1,202.4z M534.2,132.3h-11.4v-7.1c0-1.5-1.2-2.7-2.7-2.7c-16.4,0-32.6,3.3-47.8,9.5
	c-15.2-6.4-31.2-9.5-47.8-9.5c-1.5,0-2.7,1.2-2.7,2.7v7.1h-11.1c-1.5,0-2.7,1.2-2.7,2.7v71.3c0,1.5,1.2,2.7,2.7,2.7h123.8
	c1.5,0,2.7-1.2,2.7-2.7v-71.4C536.9,133.6,535.7,132.3,534.2,132.3L534.2,132.3z"/>
<path d="M437.2,144.8c7.2,0.8,14.4,2.2,21.3,4.3c0.3,0.1,0.5,0.1,0.8,0.1c1.1,0,2.2-0.8,2.6-1.9c0.4-1.4-0.4-2.9-1.8-3.3
	c-7.3-2.2-14.8-3.7-22.3-4.5c-1.5-0.1-2.7,0.9-3,2.3C434.8,143.3,435.9,144.7,437.2,144.8L437.2,144.8z"/>
<path d="M460.2,156.9c-7.3-2.2-14.8-3.7-22.3-4.5c-1.5-0.1-2.7,0.9-3,2.3c-0.1,1.5,0.9,2.7,2.3,3c7.2,0.8,14.4,2.2,21.3,4.3
	c0.3,0.1,0.5,0.1,0.8,0.1c1.1,0,2.2-0.7,2.6-1.9C462.4,158.8,461.5,157.3,460.2,156.9L460.2,156.9z"/>
<path d="M460.2,169.8c-7.3-2.2-14.8-3.7-22.3-4.5c-1.5-0.1-2.7,0.9-3,2.3c-0.1,1.5,0.9,2.7,2.3,3c7.2,0.8,14.4,2.2,21.3,4.3
	c0.3,0.1,0.5,0.1,0.8,0.1c1.1,0,2.2-0.7,2.6-1.9C462.4,171.7,461.5,170.2,460.2,169.8L460.2,169.8z"/>
<path d="M460.2,182.6c-7.3-2.2-14.8-3.7-22.3-4.5c-1.5-0.1-2.7,0.9-3,2.3c-0.1,1.5,0.9,2.7,2.3,3c7.2,0.8,14.4,2.2,21.3,4.3
	c0.3,0.1,0.5,0.1,0.8,0.1c1.1,0,2.2-0.7,2.6-1.9C462.4,184.5,461.5,183,460.2,182.6L460.2,182.6z"/>
<path d="M506.9,139.5c-7.5,0.8-14.9,2.3-22.3,4.5c-1.4,0.4-2.2,1.9-1.8,3.3c0.4,1.1,1.4,1.9,2.6,1.9c0.3,0,0.5,0,0.8-0.1
	c7.1-2,14.3-3.5,21.3-4.3c1.5-0.1,2.6-1.5,2.3-3C509.8,140.5,508.4,139.4,506.9,139.5L506.9,139.5z"/>
<path d="M506.9,152.4c-7.5,0.8-15.1,2.3-22.3,4.5c-1.4,0.4-2.2,1.9-1.8,3.3c0.4,1.1,1.4,1.9,2.6,1.9c0.3,0,0.5,0,0.8-0.1
	c6.9-2,14.1-3.5,21.3-4.3c1.5-0.1,2.6-1.5,2.3-3C509.8,153.3,508.4,152.2,506.9,152.4L506.9,152.4z"/>
<path d="M506.9,165.2c-7.5,0.8-15.1,2.4-22.3,4.6c-1.4,0.4-2.2,1.9-1.8,3.3c0.4,1.1,1.4,1.9,2.6,1.9c0.3,0,0.5,0,0.8-0.1
	c6.9-2,14.1-3.5,21.3-4.3c1.5-0.1,2.6-1.5,2.3-3C509.8,166.2,508.4,165.1,506.9,165.2L506.9,165.2z"/>
<path d="M506.9,178.1c-7.5,0.8-15.1,2.3-22.3,4.5c-1.4,0.4-2.2,1.9-1.8,3.3c0.4,1.1,1.4,1.9,2.6,1.9c0.3,0,0.5,0,0.8-0.1
	c6.9-2,14.1-3.5,21.3-4.3c1.5-0.1,2.6-1.5,2.3-3C509.8,179.1,508.4,178,506.9,178.1L506.9,178.1z"/>
<g>
	<circle fill="none" stroke="#ED1C24" stroke-width="6.0492" stroke-miterlimit="10" cx="472.5" cy="172" r="101.3"/>
	<line fill="none" stroke="#ED1C24" stroke-width="6.0492" stroke-miterlimit="10" x1="407.7" y1="94.1" x2="537.3" y2="249.8"/>
</g>
<text transform="matrix(1 0 0 1 48 311.5226)" font-family="'MyriadPro-Regular'" font-size="18">UX designer</text>
<text transform="matrix(1 0 0 1 434.9109 234.6073)"><tspan x="0" y="0" font-family="'MyriadPro-Regular'" font-size="18">Docs for </tspan><tspan x="0" y="21.6" font-family="'MyriadPro-Regular'" font-size="18">end-users</tspan></text>
</svg>
