<?xml version="1.0" encoding="utf-8"?>
<!-- Generator: Adobe Illustrator 17.1.0, SVG Export Plug-In . SVG Version: 6.00 Build 0)  -->
<!DOCTYPE svg PUBLIC "-//W3C//DTD SVG 1.1//EN" "http://www.w3.org/Graphics/SVG/1.1/DTD/svg11.dtd">
<svg version="1.1" id="Layer_1" xmlns="http://www.w3.org/2000/svg" xmlns:xlink="http://www.w3.org/1999/xlink" x="0px" y="0px"
	 viewBox="0 0 600 350" enable-background="new 0 0 600 350" xml:space="preserve">
<path fill="#FFFFFF" stroke="#010101" stroke-width="1.8363" stroke-miterlimit="10" d="M276.2,135.8c0,2.8-2.3,5.2-5.1,5.3
	l-149.4,0.7c-2.8,0-5-2.4-5-5.2l-0.5-104.2c0-2.8,2.2-5.1,5-5.1l149.4-0.7c2.8,0,5.1,2.3,5.1,5.1L276.2,135.8z"/>
<path fill="#161616" d="M245.6,202.6c0.1,10.4-20.5,18.9-45.8,19c-25.4,0.1-46-8.2-46-18.6c-0.1-10.4,20.5-18.9,45.8-19
	S245.5,192.2,245.6,202.6z"/>
<path fill="none" stroke="#111111" stroke-width="0.6121" stroke-miterlimit="10" d="M172.3,131.5"/>
<path fill="#010101" stroke="#FFFFFF" stroke-width="0.204" stroke-miterlimit="10" d="M190.2,140.7l31-0.2c0,0-14.8,23.9-11.2,44.7
	c2.5,14,23.2,22.9,23.2,22.9l-63.1,0.3c0,0,17.4-13.9,18-29.7s-18.4-37.9-18.4-37.9l18.8-0.1"/>
<g>
	<path fill="none" stroke="#4D54A4" stroke-width="0.6121" stroke-miterlimit="10" d="M256.7,116.2c-1.3,0.8-1.9,2.3-1.5,3.6"/>
	<path fill="none" stroke="#4D54A4" stroke-width="0.6121" stroke-miterlimit="10" d="M258.9,116.3c0.3-0.1,0.7,0.1,0.9,0.3
		c1.1,0.9,1.7,2.1,1.6,3.3"/>
	<path fill="none" stroke="#4D54A4" stroke-width="0.6121" stroke-miterlimit="10" d="M254.9,119.6c2,0,4,0.1,6,0.1"/>
	<path fill="none" stroke="#4D54A4" stroke-width="0.6121" stroke-miterlimit="10" d="M255.6,114.3c-2.4,0.1-4.7,0.3-7,0.8"/>
	<path fill="none" stroke="#4D54A4" stroke-width="0.6121" stroke-miterlimit="10" d="M242.8,117.4c-1.2,0.1-2.5,0.2-3.8,0.2
		c-0.3-1.7-0.7-3.5-1-5.2c2.7-0.1,5.4-0.1,8.1-0.2c0.5,1.5,0.8,3.1,1,4.6c-1,0.2-3.7,0.2-4.2,0.8c-0.2,0.2-0.1,1.2-0.2,1.5
		c-0.2,0.5-0.6,0.9-1.2,1.3"/>
	<path fill="none" stroke="#4D54A4" stroke-width="0.6121" stroke-miterlimit="10" d="M244.8,117.2c-0.6,1.3,0.5,2.9,2.2,3.3"/>
	<path fill="none" stroke="#4D54A4" stroke-width="0.6121" stroke-miterlimit="10" d="M241.6,111.9c-0.3-5.2-0.5-10.3-0.8-15.5
		c-0.3-6.7-0.7-13.4-2.8-19.9"/>
	<path fill="none" stroke="#4D54A4" stroke-width="0.6121" stroke-miterlimit="10" d="M255.9,73.5c0,0.3,0,0.7-0.2,1
		c-0.2,0.2-0.6,0.4-0.9,0.5c-1.4,0.4-2.9,0.6-4.4,0.4c0.5,0.4,0.3,1-0.2,1.4c-0.5,0.3-1.2,0.4-1.9,0.5c-1.5,0.2-3,0.3-4.5,0.2
		c-1.5-0.1-3-0.6-3.9-1.5c-1.9,0.7-4,1.2-6.1,1.1c-2.1-0.1-4.2-0.8-5.5-2.1c-1.4,0.7-3.1,1.1-4.8,1.1c-1.2-1.3-0.7-3.3,0.6-4.5
		c1.4-1.2,3.4-1.9,5.4-2.3c-1.2-0.3-1.5-1.7-0.7-2.5c0.8-0.8,2.1-1.1,3.4-1.4c2.3-0.5,4.9-0.9,7.1-0.1c-0.4-0.6,0.5-1.2,1.3-1.4
		c1.4-0.4,2.9-0.5,4.4-0.5c0.4,0,0.8,0.1,1.2,0.3c0.2,0.1,0.4,0.4,0.6,0.6c1.7,1.7,5.9,0.3,7.6,1.9c0.6,0.6,0.7,1.5,0.1,2.2
		s-1.6,1-2.6,0.8C253.8,70,255.6,71.6,255.9,73.5z"/>
	<path fill="none" stroke="#4D54A4" stroke-width="0.6121" stroke-miterlimit="10" d="M233.8,71c0.1-1.4,0.6-2.8,1.5-4
		c0.6,0.3,1,0.8,1.3,1.3c0.4,0.7,0.6,1.6,1.3,2.2"/>
	<path fill="none" stroke="#4D54A4" stroke-width="0.6121" stroke-miterlimit="10" d="M234.2,69"/>
	<path fill="none" stroke="#4D54A4" stroke-width="0.6121" stroke-miterlimit="10" d="M234.1,69.3c0.8,0.1,1.7,0,2.5-0.2"/>
	<path fill="none" stroke="#4D54A4" stroke-miterlimit="10" d="M238.5,70.5v-3.3c1,0,1.2-0.5,1.7-0.4c0.5,0.1,1,0.3,1.2,0.6
		c0.2,0.5-0.2,1-0.7,1.2s-1.4,0.1-2,0.1"/>
	<path fill="none" stroke="#4D54A4" stroke-width="0.6121" stroke-miterlimit="10" d="M242.9,66.7c0.1,1.2,0.1,2.4,0.2,3.7"/>
	<path fill="none" stroke="#4D54A4" stroke-width="0.6121" stroke-miterlimit="10" d="M226.1,69.6c-6.5,0-13,0.2-19.5,0.8"/>
	<path fill="none" stroke="#4D54A4" stroke-width="0.6121" stroke-miterlimit="10" d="M205,71.6c-1.1,1.4-2.3,2.7-3.9,3.7
		c-0.6,0.4-1.4,0.7-2.2,0.7c-1.7,0.1-3.3-1-4-2.3c-1.1-2-0.8-4.5,0.8-6.3c1.6-1.8,4.3-2.9,7.1-3.1c0.4,0,0.8,0,1.1,0.1
		c0.6,0.2,1,0.8,1.1,1.3c0.3,1.1,0.1,2.3-0.6,3.3"/>
	<path fill="none" stroke="#4D54A4" stroke-width="0.6121" stroke-miterlimit="10" d="M202.7,67c0.2,0.8,1.3,1.4,1.6,2.2
		c1.1-0.3,2.4-0.7,3.3-1.2"/>
	<path fill="none" stroke="#4D54A4" stroke-width="0.6121" stroke-miterlimit="10" d="M242.8,113.6c-0.4,0.8-0.8,1.6-1.1,2.5"/>
	<path fill="none" stroke="#4D54A4" stroke-width="0.6121" stroke-miterlimit="10" d="M243.3,113.9c0.8,0,1.5,0.3,2.1,0.8
		c-0.7,0.7-1.4,1.3-2.3,1.8"/>
	<path fill="none" stroke="#4D54A4" stroke-width="0.6121" stroke-miterlimit="10" d="M241.3,113.9c-0.6,0-1.3,0.3-1.7,0.8
		c0.6,0.7,1.2,1.3,1.9,1.8"/>
	<path fill="none" stroke="#4D54A4" stroke-width="0.6121" stroke-miterlimit="10" d="M196.3,70.7c2.1-0.1,4.2,0,6.3,0.1"/>
	<path fill="none" stroke="#4D54A4" stroke-width="0.6121" stroke-miterlimit="10" d="M197.3,69.6c0.2-0.1,0.4,0.2,0.4,0.4
		c-0.1,0-0.2,0-0.3,0s-0.1-0.2,0-0.2"/>
	<path fill="none" stroke="#4D54A4" stroke-width="0.5985" stroke-miterlimit="10" d="M199.1,69.5c0,0,0.3,0,0.5,0
		c0,0.3,0,0.4,0,0.6c-0.5,0-1.1-0.3-1-0.6C198.8,69.4,198.9,69.4,199.1,69.5"/>
	<path fill="none" stroke="#4D54A4" stroke-width="0.6121" stroke-miterlimit="10" d="M201.4,69.7c-0.1,0-0.3,0-0.4,0
		c-0.2,0.2,0.3,0.5,0.7,0.4c0.1-0.2,0-0.5-0.2-0.7"/>
	<path fill="none" stroke="#4D54A4" stroke-width="0.6121" stroke-miterlimit="10" d="M238,77.2c-0.4,0.9-0.8,1.8-1.4,2.7"/>
	<path fill="none" stroke="#4D54A4" stroke-width="0.6121" stroke-miterlimit="10" d="M238.3,77c1.2,1,2.4,2,3.6,3"/>
	<path fill="none" stroke="#4D54A4" stroke-width="0.6121" stroke-miterlimit="10" d="M203.6,74.9c6.1,12,14.5,23.4,24.9,33.4
		c2,2,4.3,4,7.4,4.7"/>
	<path fill="none" stroke="#4D54A4" stroke-width="0.6121" stroke-miterlimit="10" d="M235.2,110.4c0.3,0.9,0.5,1.8,0.6,2.8
		c-1.2,0-2.8,0.2-4,0.2"/>
	<path fill="none" stroke="#4D54A4" stroke-width="0.6121" stroke-miterlimit="10" d="M245,110.9c3.9-4.5,7.8-9.1,11.7-13.6"/>
	<path fill="none" stroke="#4D54A4" stroke-width="0.6121" stroke-miterlimit="10" d="M257.6,95.3c0,0.4,0.3,0.8,0.7,1
		c0.6,0.3,1.3,0.3,2,0.3c0.8,0,1.6,0,2.4,0c0.7,0,1.6,0,2.1-0.5c0.7-0.6,0.2-1.6-0.7-2.1c-0.9-0.4-2-0.4-3-0.4c-0.6,0-1.2,0-1.8,0
		c-0.3,0-0.6,0-0.8,0.2c-2.4,1.9-1.2,6.4-1.2,8.8c2.2,0.6,4.6,0.5,7,0.4c0.3,0,0.8-0.2,0.7-0.4"/>
	<path fill="none" stroke="#4D54A4" stroke-width="0.6121" stroke-miterlimit="10" d="M264.9,96.1c-0.1,2.3,0,4.6,0.3,6.9"/>
	<path fill="none" stroke="#4D54A4" stroke-width="0.6121" stroke-miterlimit="10" d="M255.7,97.3c-3.4-3.1-7.2-6-11.3-8.6
		c-1.5-1-3.1-1.9-3.9-3.3"/>
	<path fill="none" stroke="#4D54A4" stroke-width="0.6121" stroke-miterlimit="10" d="M249,88.8c0.9,0,1.8,0,2.7-0.1
		c0.1,0.5,0.1,0.9,0.2,1.4c0,0,0,0,0,0c0,0,0,0-0.1,0c-0.3,0.4-0.7,0.7-1,1.1c-0.5-0.3-1-0.6-1.5-0.9c0,0-0.1-0.1-0.1-0.1
		c0-0.1,0-0.1,0-0.2C249.2,89.6,249.1,89.2,249,88.8z"/>
	<g>
		<path fill="none" stroke="#4D54A4" stroke-width="0.4081" stroke-miterlimit="10" d="M217.6,110c0.4,0,0.8,0,1.2,0
			c0.4,0,0.8,0,1.1-0.2"/>
		<path fill="none" stroke="#4D54A4" stroke-width="0.4081" stroke-miterlimit="10" d="M218.9,110.1c0.1,0.4,0.2,0.9,0.4,1.3
			c-0.2,0.1-0.4,0.3-0.6,0.3s-0.5-0.2-0.4-0.4"/>
		<path fill="none" stroke="#4D54A4" stroke-width="0.4081" stroke-miterlimit="10" d="M221.2,109.8c-0.2-0.1-0.5-0.1-0.6,0.1
			s-0.1,0.4,0,0.5c0.3,0.1,0.6,0.1,0.9,0.3s0.3,0.5,0.1,0.7c-0.2,0.1-0.4,0.1-0.7,0.1c-0.2,0-0.5,0-0.6-0.2"/>
		<path fill="none" stroke="#4D54A4" stroke-width="0.4081" stroke-miterlimit="10" d="M223.3,109.8c-0.1,0-0.2-0.1-0.3-0.1
			c-0.2,0-0.5,0-0.7-0.1c-0.1,0.4-0.1,0.8,0.1,1.2c0.2,0.4,0.6,0.7,1.1,0.6c0.2-0.4,0.2-0.8,0.1-1.3
			C223.5,110.1,223.5,109.9,223.3,109.8z"/>
		<line fill="none" stroke="#4D54A4" stroke-miterlimit="10" x1="224.5" y1="109.5" x2="224.5" y2="111.5"/>
		<path fill="none" stroke="#4D54A4" stroke-width="0.4081" stroke-miterlimit="10" d="M224.7,109.7c0.5,0.6,1,1.2,1.5,1.8"/>
		<path fill="none" stroke="#4D54A4" stroke-width="0.4081" stroke-miterlimit="10" d="M226.1,111.4c0-0.7,0.1-1.3,0.1-2"/>
	</g>
	<line fill="none" stroke="#4D54A4" stroke-miterlimit="10" x1="260.5" y1="98.5" x2="260.5" y2="100.5"/>
	<path fill="none" stroke="#4D54A4" stroke-width="0.4081" stroke-miterlimit="10" d="M260.6,98.6c0.6-0.3,1.4,0,1.7,0.5
		c0.3,0.5,0.2,1,0,1.5c-0.4,0-0.8,0-1.3,0.1"/>
	<path fill="none" stroke="#4D54A4" stroke-width="0.4081" stroke-miterlimit="10" d="M259.4,98.3c0.1,1,0.1,1.9,0.2,2.9"/>
	<path fill="none" stroke="#4D54A4" stroke-width="0.4081" stroke-miterlimit="10" d="M253.1,86.9c0,0.5,0,1.1,0,1.6"/>
	<path fill="none" stroke="#4D54A4" stroke-width="0.4081" stroke-miterlimit="10" d="M254.4,88.1c0,0.1,0,0.1,0,0.2
		c0,0.1,0.1,0.1,0.2,0.1c0.2,0.1,0.4,0.2,0.6,0.1c0.1,0,0.2-0.2,0.3-0.3c0-0.1,0-0.2,0-0.4c0-0.2,0-0.4-0.1-0.6
		c-0.1-0.2-0.3-0.4-0.5-0.4c0,0-0.1,0-0.1,0c0,0,0,0,0,0.1c-0.1,0.2-0.3,0.4-0.3,0.6C254.4,87.8,254.4,88,254.4,88.1z"/>
	<path fill="none" stroke="#4D54A4" stroke-width="0.4081" stroke-miterlimit="10" d="M256.2,86.9c0,0.6,0,1.1,0,1.7"/>
	<path fill="none" stroke="#4D54A4" stroke-width="0.4081" stroke-miterlimit="10" d="M256.4,87.7c0.2-0.3,0.5-0.5,0.7-0.8"/>
	<path fill="none" stroke="#4D54A4" stroke-width="0.4081" stroke-miterlimit="10" d="M257.2,88.5c-0.1,0-0.2-0.1-0.3-0.2
		c-0.1-0.1-0.3-0.2-0.4-0.3c-0.1,0-0.1-0.1-0.2-0.1"/>
	<path fill="none" stroke="#4D54A4" stroke-width="0.4081" stroke-miterlimit="10" d="M258.4,87.1c-0.3,0-0.6,0-0.9,0"/>
	<line fill="none" stroke="#4D54A4" stroke-miterlimit="10" x1="258" y1="87" x2="258" y2="87"/>
	<line fill="none" stroke="#4D54A4" stroke-miterlimit="10" x1="258" y1="89" x2="258" y2="89"/>
	<path fill="none" stroke="#4D54A4" stroke-width="0.4081" stroke-miterlimit="10" d="M257.5,86.9c0,0.5,0,1.1-0.1,1.6"/>
	<path fill="none" stroke="#4D54A4" stroke-width="0.4081" stroke-miterlimit="10" d="M258.8,86.9c0,0.4,0,0.8,0,1.2
		c0,0.2,0,0.3,0,0.5"/>
	<path fill="none" stroke="#4D54A4" stroke-width="0.4081" stroke-miterlimit="10" d="M258.9,86.9c0.1,0.1,0.2,0.2,0.3,0.3
		c0.2,0.3,0.4,0.5,0.6,0.8c0.1,0.1,0.2,0.3,0.3,0.4"/>
	<path fill="none" stroke="#4D54A4" stroke-width="0.4081" stroke-miterlimit="10" d="M260,88.4c0-0.5,0-1,0-1.5"/>
	<path fill="none" stroke="#4D54A4" stroke-width="0.4081" stroke-miterlimit="10" d="M254.3,86.9c-0.5,0-0.9,0-1.4,0
		c-0.1,0-0.2,0-0.3,0c-0.2,0-0.4,0.1-0.7,0.1"/>
	<path fill="none" stroke="#4D54A4" stroke-width="0.6121" stroke-miterlimit="10" d="M258,117.3c0.1,0,0.2,0,0.4,0
		c1-0.1,0.9-1.3,0.8-1.9c-0.2-1-0.7-1.9-2.2-1.9c-0.5,0-0.7,1.4-0.7,1.6c0,0.8,0.2,1.4,1,1.9C257.5,117.1,257.7,117.2,258,117.3z"/>
</g>
<path fill="#FFFFFF" stroke="#010101" stroke-width="0.6121" stroke-miterlimit="10" d="M147.9,212.8c0.8,0.6,2.4,1,3.4,0.9
	l120.4-13.6c1-0.1,1.2-0.7,0.4-1.3L254,185.3c-0.8-0.6-2.3-1-3.3-0.9L130.2,198c-1,0.1-1.2,0.7-0.4,1.3L147.9,212.8z"/>
<rect x="129" y="64.5" fill="#010101" width="56" height="36"/>
<text transform="matrix(0.9406 0 0 1 135.9439 93.1027)" fill="#F9F9FA" font-family="'MyriadPro-Regular'" font-size="28.2138">&lt;/&gt;</text>
<line fill="none" stroke="#454545" stroke-miterlimit="10" x1="130" y1="49" x2="264" y2="49"/>
<line fill="none" stroke="#454545" stroke-miterlimit="10" x1="127" y1="127" x2="261" y2="127"/>
<line fill="none" stroke="#454545" stroke-miterlimit="10" x1="127" y1="133" x2="261" y2="133"/>
<line fill="none" stroke="#454545" stroke-miterlimit="10" x1="127" y1="120" x2="188" y2="120"/>
<line fill="none" stroke="#454545" stroke-miterlimit="10" x1="127" y1="113" x2="188" y2="113"/>
<line fill="none" stroke="#454545" stroke-miterlimit="10" x1="130" y1="55" x2="265" y2="55"/>
<path fill="none" stroke="#010101" stroke-width="1.0202" stroke-miterlimit="10" d="M130.5,201.9c-6.5,0.2-11.8-7.5-9.2-13.5
	c3.3-7.7,15.2-9,17.8-17c9.6-2.6,19.2-5.2,28.8-7.8"/>
<line fill="none" stroke="#010101" stroke-width="0.204" stroke-miterlimit="10" x1="138" y1="202.8" x2="257.2" y2="190.4"/>
<line fill="none" stroke="#010101" stroke-width="0.204" stroke-miterlimit="10" x1="142.1" y1="208.1" x2="261.3" y2="195.7"/>
<path d="M379.6,163.6c0,10.8-8.8,19.6-19.6,19.6c-10.8,0-19.6-8.8-19.6-19.6c0-10.8,8.8-19.6,19.6-19.6
	C370.8,144.1,379.6,152.8,379.6,163.6"/>
<polygon points="192.9,320.5 212.3,320.5 212.3,253.1 275.3,253.1 275.3,320.5 294.7,320.5 294.7,233 192.9,233 "/>
<polygon points="388.8,218.7 379.9,218.7 379.9,275.1 328.1,275.1 328.1,290.2 395,290.2 395,218.7 "/>
<path d="M370.6,269.3h2.2c2.1,0,3.8-4.4,3.8-9.9l0-68.3h-24.9l-6.8,4.8l-16.7,10.1l-28.5,0l2.7,0l-7.8,0.6l-2.2,9l3.6-0.5l-3.6,0.5
	c1.1,2.3,3.6,4,6.5,4H329l4-0.2l11.9-7.2v37l-34.2,0v0.2c-4.5,0.7-7.9,4.8-7.9,9.7v52.2c0,5.5,4.2,9.9,9.3,9.9
	c5.1,0,9.3-4.4,9.3-9.9l0-42L370.6,269.3z"/>
<path d="M255.9,232.2h31.3c2.7,0,5-1.8,5-4c0-2.2-2.2-4-5-4h-31.3c-2.7,0-5,1.8-5,4C250.9,230.4,253.1,232.2,255.9,232.2z"/>
<path d="M301.2,214.2c0,3.6-2.9,6.6-6.6,6.6l0,0c-3.6,0-6.6-2.9-6.6-6.6v-0.9c0-3.6,2.9-6.6,6.6-6.6l0,0c3.6,0,6.6,2.9,6.6,6.6
	V214.2z"/>
<text transform="matrix(1 0 0 1 324.1351 335.2249)" font-family="'MyriadPro-Regular'" font-size="18">Developer</text>
<text transform="matrix(1 0 0 1 132.1757 43.8742)" font-family="'MyriadPro-Regular'" font-size="15">Documentation</text>
</svg>
