<?xml version="1.0" encoding="utf-8"?>
<!-- Generator: Adobe Illustrator 17.1.0, SVG Export Plug-In . SVG Version: 6.00 Build 0)  -->
<!DOCTYPE svg PUBLIC "-//W3C//DTD SVG 1.1//EN" "http://www.w3.org/Graphics/SVG/1.1/DTD/svg11.dtd">
<svg version="1.1" id="Layer_1" xmlns="http://www.w3.org/2000/svg" xmlns:xlink="http://www.w3.org/1999/xlink" x="0px" y="0px"
	 viewBox="0 0 353 54.7" enable-background="new 0 0 353 54.7" xml:space="preserve">
<text transform="matrix(1 0 0 1 39.764 28.821)" font-family="'SourceSansPro-Bold'" font-size="30">Simplifying Complexity</text>
<text transform="matrix(1 0 0 1 42.4962 46.9998)" fill="#444444" font-family="'MyriadPro-Regular'" font-size="13.0277">a guide for making complex systems easy to understand</text>
<path fill="#FFA636" d="M26.9,18.6l-3.9,2.9h3.7c0.1-0.3,0.3-0.5,0.6-0.6v-2.1C27.1,18.7,27,18.7,26.9,18.6L26.9,18.6z"/>
<path fill="#FFA636" stroke="#FFFFFF" stroke-miterlimit="10" d="M10.6,21.8c0-0.3,0.2-0.5,0.5-0.5c0.3,0,0.5,0.2,0.5,0.5
	s-0.2,0.5-0.5,0.5C10.8,22.3,10.6,22,10.6,21.8z M17,26c0,0.3-0.2,0.5-0.5,0.5s-0.5-0.2-0.5-0.5s0.2-0.5,0.5-0.5S17,25.7,17,26z
	 M28.5,21.8c0,0.5-0.4,0.9-0.9,0.9c-0.4,0-0.8-0.3-0.9-0.6h-3.7c-0.1,0.4-0.5,0.6-0.9,0.6s-0.8-0.3-0.9-0.6h-4.3
	c-0.1,0.1-0.2,0.2-0.3,0.2h-0.1L12,25.6c0,0.1,0.1,0.2,0.1,0.3c0,0.1,0,0.2-0.1,0.3l4.1,3.1c0.1-0.1,0.3-0.2,0.5-0.2
	c0.5,0,0.9,0.4,0.9,0.9c0,0.5-0.4,0.9-0.9,0.9c-0.5,0-0.9-0.4-0.9-0.9c0-0.1,0-0.2,0.1-0.3l-4.1-3.1c-0.1,0.1-0.3,0.2-0.5,0.2
	c-0.5,0-0.9-0.4-0.9-0.9c0-0.5,0.4-0.9,0.9-0.9c0.2,0,0.4,0.1,0.5,0.2l4.4-3.4l-4.4-3.2c-0.2,0.1-0.3,0.2-0.6,0.2
	c-0.5,0-0.9-0.4-0.9-0.9c0-0.5,0.4-0.9,0.9-0.9c0.5,0,0.9,0.4,0.9,0.9c0,0.1,0,0.2-0.1,0.3l4.5,3.2c0,0,0.1,0,0.1,0
	c0.1,0,0.3,0.1,0.3,0.2h4.3c0.1-0.4,0.5-0.6,0.9-0.6c0.2,0,0.4,0.1,0.5,0.2l4.1-3c0-0.1,0-0.1,0-0.2c0-0.5,0.4-0.9,0.9-0.9
	s0.9,0.4,0.9,0.9c0,0.4-0.3,0.8-0.6,0.9v2.1C28.2,21,28.5,21.4,28.5,21.8L28.5,21.8z M27.1,26c0-0.3,0.2-0.5,0.5-0.5
	c0.3,0,0.5,0.2,0.5,0.5s-0.2,0.5-0.5,0.5C27.3,26.4,27.1,26.2,27.1,26z M27.5,31c-0.5,0-0.9-0.4-0.9-0.9s0.4-0.9,0.9-0.9
	c0.5,0,0.9,0.4,0.9,0.9S28,31,27.5,31z M22,26.7c-0.4,0-0.8-0.3-0.8-0.8c0-0.5,0.3-0.8,0.8-0.8c0.5,0,0.8,0.3,0.8,0.8
	C22.8,26.4,22.5,26.7,22,26.7z M22,30.6c-0.3,0-0.5-0.2-0.5-0.5c0-0.3,0.2-0.5,0.5-0.5s0.5,0.2,0.5,0.5C22.5,30.4,22.3,30.6,22,30.6
	z M11.1,30.6c-0.3,0-0.5-0.2-0.5-0.5c0-0.3,0.2-0.5,0.5-0.5c0.3,0,0.5,0.2,0.5,0.5C11.5,30.4,11.3,30.6,11.1,30.6z M16.6,17.4
	c0.3,0,0.5,0.2,0.5,0.5c0,0.3-0.2,0.5-0.5,0.5c-0.3,0-0.5-0.2-0.5-0.5C16.1,17.6,16.3,17.4,16.6,17.4z M22,17.4
	c0.3,0,0.5,0.2,0.5,0.5c0,0.3-0.2,0.5-0.5,0.5c-0.3,0-0.5-0.2-0.5-0.5C21.6,17.6,21.8,17.4,22,17.4z M19.3,7.9c-8.8,0-16,7.2-16,16
	s7.2,16,16,16s16-7.2,16-16S28.2,7.9,19.3,7.9z"/>
</svg>
