<?xml version="1.0" encoding="utf-8"?>
<!-- Generator: Adobe Illustrator 17.1.0, SVG Export Plug-In . SVG Version: 6.00 Build 0)  -->
<!DOCTYPE svg PUBLIC "-//W3C//DTD SVG 1.1//EN" "http://www.w3.org/Graphics/SVG/1.1/DTD/svg11.dtd">
<svg version="1.1" id="Layer_1" xmlns="http://www.w3.org/2000/svg" xmlns:xlink="http://www.w3.org/1999/xlink" x="0px" y="0px"
	 viewBox="0 0 353 58.2" enable-background="new 0 0 353 58.2" xml:space="preserve">
<text transform="matrix(1 0 0 1 49.764 23.8209)"><tspan x="0" y="0" font-family="'SourceSansPro-Bold'" font-size="30">Simplifying </tspan><tspan x="0" y="27" font-family="'SourceSansPro-Bold'" font-size="30">Complexity</tspan></text>
<text transform="matrix(1 0 0 1 219.1303 17.0429)"><tspan x="0" y="0" fill="#666666" font-family="'SourceSansPro-Regular'" font-size="14">how to make </tspan><tspan x="0" y="15" fill="#666666" font-family="'SourceSansPro-Regular'" font-size="14">complex systems </tspan><tspan x="0" y="30" fill="#666666" font-family="'SourceSansPro-Regular'" font-size="14">easy to understand</tspan></text>
<path fill="#FFB355" d="M34.8,19.1l-5.2,3.9h4.9c0.1-0.4,0.4-0.7,0.8-0.8v-2.8C35.1,19.2,34.9,19.2,34.8,19.1L34.8,19.1z"/>
<path fill="#FFB355" d="M13.2,23.3c0-0.3,0.3-0.6,0.6-0.6c0.3,0,0.6,0.3,0.6,0.6c0,0.3-0.3,0.6-0.6,0.6C13.5,24,13.2,23.7,13.2,23.3
	z M21.7,28.8c0,0.3-0.3,0.6-0.6,0.6s-0.6-0.3-0.6-0.6c0-0.3,0.3-0.6,0.6-0.6S21.7,28.5,21.7,28.8z M36.9,23.3c0,0.7-0.6,1.2-1.2,1.2
	c-0.6,0-1-0.4-1.2-0.9h-4.9c-0.1,0.5-0.6,0.9-1.2,0.9c-0.5,0-1-0.4-1.2-0.9h-5.7c-0.1,0.1-0.3,0.2-0.4,0.2H21l-6,4.5
	c0,0.1,0.1,0.3,0.1,0.4s0,0.3-0.1,0.4l5.4,4.1c0.2-0.1,0.4-0.2,0.7-0.2c0.7,0,1.2,0.6,1.2,1.2s-0.6,1.2-1.2,1.2s-1.2-0.6-1.2-1.2
	c0-0.1,0-0.3,0.1-0.4l-5.4-4.1c-0.2,0.1-0.4,0.2-0.7,0.2c-0.7,0-1.2-0.6-1.2-1.2s0.6-1.2,1.2-1.2c0.3,0,0.5,0.1,0.7,0.2l5.9-4.5
	l-5.9-4.3c-0.2,0.1-0.4,0.3-0.7,0.3c-0.7,0-1.2-0.6-1.2-1.2c0-0.7,0.6-1.2,1.2-1.2c0.7,0,1.2,0.6,1.2,1.2c0,0.1,0,0.3-0.1,0.4
	l5.9,4.3c0,0,0.1,0,0.1,0c0.2,0,0.3,0.1,0.4,0.2h5.6c0.1-0.5,0.6-0.9,1.2-0.9c0.3,0,0.5,0.1,0.7,0.2l5.4-4c0-0.1,0-0.1,0-0.3
	c0-0.7,0.6-1.2,1.2-1.2c0.7,0,1.2,0.6,1.2,1.2c0,0.6-0.4,1-0.9,1.2v2.8C36.5,22.3,36.9,22.8,36.9,23.3L36.9,23.3z M35,28.8
	c0-0.3,0.3-0.6,0.6-0.6c0.3,0,0.6,0.3,0.6,0.6c0,0.3-0.3,0.6-0.6,0.6C35.3,29.4,35,29.2,35,28.8z M35.6,35.6c-0.7,0-1.2-0.6-1.2-1.2
	c0-0.7,0.6-1.2,1.2-1.2c0.7,0,1.2,0.6,1.2,1.2C36.9,35,36.3,35.6,35.6,35.6z M28.4,29.9c-0.6,0-1-0.4-1-1s0.4-1,1-1s1,0.4,1,1
	S29,29.9,28.4,29.9z M28.4,35c-0.3,0-0.6-0.3-0.6-0.6s0.3-0.6,0.6-0.6c0.3,0,0.6,0.3,0.6,0.6S28.7,35,28.4,35z M13.8,35
	c-0.3,0-0.6-0.3-0.6-0.6s0.3-0.6,0.6-0.6c0.3,0,0.6,0.3,0.6,0.6S14.2,35,13.8,35z M21.1,17.5c0.3,0,0.6,0.3,0.6,0.6
	c0,0.3-0.3,0.6-0.6,0.6s-0.6-0.3-0.6-0.6C20.5,17.8,20.8,17.5,21.1,17.5z M28.4,17.5c0.3,0,0.6,0.3,0.6,0.6c0,0.3-0.3,0.6-0.6,0.6
	c-0.3,0-0.6-0.3-0.6-0.6C27.8,17.8,28,17.5,28.4,17.5z M24.7,4.9C13,4.9,3.4,14.5,3.4,26.2S13,47.5,24.7,47.5S46,38,46,26.2
	S36.5,4.9,24.7,4.9z"/>
</svg>
