<?xml version="1.0" encoding="utf-8"?>
<!-- Generator: Adobe Illustrator 17.1.0, SVG Export Plug-In . SVG Version: 6.00 Build 0)  -->
<!DOCTYPE svg PUBLIC "-//W3C//DTD SVG 1.1//EN" "http://www.w3.org/Graphics/SVG/1.1/DTD/svg11.dtd">
<svg version="1.1" id="Layer_1" xmlns="http://www.w3.org/2000/svg" xmlns:xlink="http://www.w3.org/1999/xlink" x="0px" y="0px"
	 viewBox="0 0 724 166" enable-background="new 0 0 724 166" xml:space="preserve">
<g>
	<path fill="#E6E6E6" d="M140,119c0,1.7-1.3,3-3,3H40c-1.7,0-3-1.3-3-3V48c0-1.7,1.3-3,3-3h97c1.7,0,3,1.3,3,3V119z"/>
	<path fill="none" stroke="#000000" stroke-miterlimit="10" d="M140.5,118.5c0,1.7-1.4,3-3,3h-97c-1.7,0-3-1.3-3-3v-71
		c0-1.7,1.3-3,3-3h97c1.6,0,3,1.3,3,3V118.5z"/>
</g>
<g>
	<path fill="#E6E6E6" d="M680,119c0,1.7-1.3,3-3,3h-97c-1.7,0-3-1.3-3-3V48c0-1.7,1.3-3,3-3h97c1.7,0,3,1.3,3,3V119z"/>
	<path fill="none" stroke="#000000" stroke-miterlimit="10" d="M680.5,118.5c0,1.7-1.3,3-3,3h-97c-1.7,0-3-1.3-3-3v-71
		c0-1.7,1.3-3,3-3h97c1.7,0,3,1.3,3,3V118.5z"/>
</g>
<g>
	<path fill="#E6E6E6" d="M500,119c0,1.7-1.3,3-3,3h-97c-1.7,0-3-1.3-3-3V48c0-1.7,1.3-3,3-3h97c1.7,0,3,1.3,3,3V119z"/>
	<path fill="none" stroke="#000000" stroke-miterlimit="10" d="M500.5,118.5c0,1.7-1.4,3-3,3h-97c-1.6,0-3-1.3-3-3v-71
		c0-1.7,1.4-3,3-3h97c1.6,0,3,1.3,3,3V118.5z"/>
</g>
<g>
	<path fill="#E6E6E6" d="M320,119c0,1.7-1.3,3-3,3h-97c-1.7,0-3-1.3-3-3V48c0-1.7,1.3-3,3-3h97c1.7,0,3,1.3,3,3V119z"/>
	<path fill="none" stroke="#000000" stroke-miterlimit="10" d="M320.5,118.5c0,1.7-1.4,3-3,3h-97c-1.6,0-3-1.3-3-3v-71
		c0-1.7,1.4-3,3-3h97c1.6,0,3,1.3,3,3V118.5z"/>
</g>
<g>
	<g>
		<line fill="none" stroke="#000000" stroke-width="2" stroke-miterlimit="10" x1="156" y1="83" x2="201" y2="83"/>
		<g>
			<polygon points="199,87.5 207.6,82.5 199,77.5 			"/>
		</g>
	</g>
</g>
<g>
	<g>
		<line fill="none" stroke="#000000" stroke-width="2" stroke-miterlimit="10" x1="512" y1="83" x2="557" y2="83"/>
		<g>
			<polygon points="555,87.5 563.6,82.5 555,77.5 			"/>
		</g>
	</g>
</g>
<g>
	<g>
		<line fill="none" stroke="#000000" stroke-width="2" stroke-miterlimit="10" x1="331" y1="83" x2="376" y2="83"/>
		<g>
			<polygon points="374,87.5 382.6,82.5 374,77.5 			"/>
		</g>
	</g>
</g>
<text transform="matrix(1 0 0 1 51 75)"><tspan x="0" y="0" font-family="'ArialMT'" font-size="16">Attach the </tspan><tspan x="0" y="19.2" font-family="'ArialMT'" font-size="16">cranks</tspan></text>
<text transform="matrix(1 0 0 1 593 75)"><tspan x="0" y="0" font-family="'ArialMT'" font-size="16">Put on the </tspan><tspan x="0" y="19.2" font-family="'ArialMT'" font-size="16">wheels</tspan></text>
<text transform="matrix(1 0 0 1 411 75)"><tspan x="0" y="0" font-family="'ArialMT'" font-size="16">Assemble </tspan><tspan x="0" y="19.2" font-family="'ArialMT'" font-size="16">the brakes</tspan></text>
<text transform="matrix(1 0 0 1 237 75)"><tspan x="0" y="0" font-family="'ArialMT'" font-size="16">Set up the </tspan><tspan x="0" y="19.2" font-family="'ArialMT'" font-size="16">drivetrain</tspan></text>
</svg>
