<?xml version="1.0" encoding="utf-8"?>
<!-- Generator: Adobe Illustrator 17.1.0, SVG Export Plug-In . SVG Version: 6.00 Build 0)  -->
<!DOCTYPE svg PUBLIC "-//W3C//DTD SVG 1.1//EN" "http://www.w3.org/Graphics/SVG/1.1/DTD/svg11.dtd">
<svg version="1.1" xmlns="http://www.w3.org/2000/svg" xmlns:xlink="http://www.w3.org/1999/xlink" x="0px" y="0px"
	 viewBox="0 0 523 278" enable-background="new 0 0 523 278" xml:space="preserve">
<g id="Layer_2">
	<g>
		<path d="M75.7,89.7C55,89.6,34.6,88.5,14,86.4c0-0.2,0-0.3,0-0.5c47.1,5,95,5,141.1-3.3c46.5-8.4,91.9-25,133.9-48.1
			c0.1,0.2,0.1,0.3,0.2,0.5C247.1,58,201.7,74.7,155.1,83.1C129.2,87.7,102.4,89.2,75.7,89.7C75.7,89.7,75.7,89.7,75.7,89.7z"/>
		<path d="M93.9,107.6c-7.3,1-14.9,1.8-23.4,2.2c-0.5-0.3-0.7-0.5-1.2-0.8c18.2-1.2,35.9-4.1,53.9-6.3c21.4-2.6,41.8,0.2,63.1-0.8
			c48.8-2.2,92-37.4,133.8-58.7c0.2,0.2,0.4,0.4,0.6,0.6c-40.5,20.5-85.1,58.5-130.9,58.9C157.7,103,126.8,102.8,93.9,107.6
			C93.9,107.6,93.9,107.6,93.9,107.6z"/>
		<path d="M102.9,132.5c0.4-0.8,0.6-1.2,0.9-2c18.3-4.1,36.9-11,55.7-12.7c22.6-2,37,14.5,58.2,15.7c26.9,1.6,50.8-25,68.6-41.5
			c19.9-18.4,40.8-40.8,67.9-48.1c0.4,0.1,0.7,0.1,1.1,0.2c-27.5,7.3-48.6,31.1-68.4,50c-17.6,16.8-41.5,43.9-68.7,41.6
			c-21.5-1.8-35.5-18.1-58.7-16C140.3,121.4,121.6,128.5,102.9,132.5C102.9,132.5,102.9,132.5,102.9,132.5z"/>
		<path d="M110.6,168.7c0.5-1.3,0.7-1.9,1.2-3.2c23.3-3.9,47-11.1,70.7-10.6c21.3,0.5,43.1,14.4,64,11.7c32-4.1,58.1-46.5,76-69.2
			c15.2-19.2,37.5-58.3,67-55.3c0.6,0,1,0,1.6,0c-29.6-3-53,39.5-67.9,58.7c-17.9,22.9-43.6,64.1-76,67.6
			c-21.3,2.3-43.3-10.7-65.2-10.6C158,157.9,134.2,165,110.6,168.7C110.6,168.7,110.6,168.7,110.6,168.7z"/>
		<path d="M141.6,196.6c-0.1-0.9-0.2-1.3-0.3-2.2c25.2-4,49.9-11.2,75.1-15.1c22.3-3.4,46-0.1,67.5-7.8
			c30.5-10.9,51.3-39.1,70.2-63.9c17.2-22.6,36.7-64,70-61.2c0.6,0.3,0.9,0.4,1.5,0.7c-32.9-2.6-53.9,42-70.8,63.9
			c-18.7,24.3-39.7,50.8-69.9,61c-21.6,7.3-45.7,4.8-68,8.8C191.6,185.6,167,192.6,141.6,196.6C141.6,196.6,141.6,196.6,141.6,196.6
			z"/>
		<path d="M179.2,223c-0.2-1.5-0.4-2.3-0.6-3.9c27.3-3.9,50.7-12.7,75.5-24.5c22.4-10.7,47.1-15,69.3-26
			c25.7-12.8,48.9-33.8,67.4-55.5c21.7-25.5,35.9-45.5,66.8-58.1c0.9,0.8,1.3,1.2,2.1,2c-31,13-45.8,36.3-67.8,61.1
			c-18.3,20.6-42.2,40-67,52.1c-22.7,11-47.2,17.1-69.9,28.7C230.4,211.4,206.8,219.7,179.2,223C179.2,223,179.2,223,179.2,223z"/>
		<path d="M218.7,253.7c-0.3-1.4-0.5-2.1-0.8-3.6c27.9-2.5,49.2-17.5,71.1-33.6c24-17.6,49.8-30.9,74.9-46.6
			c25.5-16,49.4-33.3,69.4-55.9c18.4-20.7,40.6-35.5,59.6-55.1c0.9,0.9,1.3,1.4,2.1,2.3c-19.2,20.1-41.3,36.2-60.2,57
			C415,140,390.5,157,365.5,172.5c-25.6,15.9-51.2,30.3-75.3,48.5C268.2,237.5,246.9,252.1,218.7,253.7
			C218.7,253.7,218.7,253.7,218.7,253.7z"/>
		<path d="M449.5,73.4c-25.4-11.9-49.6-25.1-76.7-23.4c-23.7,1.5-49.9,10.9-75.2,9.7c-24.4-1.1-45.7-13.5-66.7-24.8
			c0.1-0.2,0.1-0.3,0.2-0.5c21,11.3,42.3,23.7,66.6,24.9c25.2,1.2,51.4-8.2,75.1-9.7c45.7-3,84.6,37.1,133,36.5c0,0.2,0,0.3,0.1,0.5
			C485.1,86.9,468.3,81.5,449.5,73.4C449.5,73.3,449.5,73.4,449.5,73.4z"/>
		<path d="M450.9,113.5c-43.7-6.9-84.8-19.1-129.1-23.4c-46.6-4.5-82.2-19.5-121.8-43.9c0.2-0.4,0.3-0.6,0.5-1
			c19.6,12,39.9,24.6,61.4,32.8c21.1,8.1,45.3,8.8,67.5,10.6c50.6,4.1,97.7,22.3,148.2,26c0,0.5,0,0.8,0,1.3
			C468.6,115.6,459.7,114.7,450.9,113.5C450.9,113.5,450.9,113.5,450.9,113.5z"/>
		<path d="M446.7,146c-27.3-0.8-54.6-5.8-81.8-5.9c-22.8-0.1-45.6,4.1-68.2-1.4c-29.4-7.1-47.2-29.7-70.9-46.5
			C207,79,186.4,68.3,167.6,55c0.3-0.5,0.5-0.8,0.8-1.4c18.8,13.2,39.1,23.9,58.1,36.7c23.8,16.1,41.9,38.1,70.9,45.4
			c22.4,5.6,45.1,2.4,67.8,2.6c27.2,0.2,54.3,5.2,81.6,6C446.7,145,446.7,145.3,446.7,146z"/>
		<path d="M413.4,172.6c-26.8-2.6-53.4-7.7-80.5-7c-23.8,0.6-55.5,10.8-78.1,0c-26.9-12.8-38.3-48.7-63.3-65.7
			c-19.4-13.3-39.3-24-57.9-38.7c0.5-0.7,0.7-1.1,1.2-1.8C153.3,74,172.7,85.2,192,98.2c25.3,17,37.1,51.4,63.6,65.2
			c22.4,11.7,53.8,1.6,77.7,0.7c27-1.1,53.5,3.8,80.3,6.4C413.5,171.3,413.5,171.8,413.4,172.6z"/>
		<path d="M378.1,196.6c-26.2-4.4-51.8-11.6-78-15.9c-23.2-3.8-52.1,0.9-72.1-13.4c-24.3-17.3-28.7-49.9-57.4-63.9
			c-14.9-7.3-32.2-7.7-46.2-17.1c-9.2-6.2-17.5-14.6-25.8-22c0.5-0.7,0.8-1,1.3-1.7c8.3,7.4,16.6,15.5,25.7,21.9
			c13.7,9.8,30.2,10.8,45,18c29.2,14,33.9,46.1,58.1,64c20.1,14.9,48.4,9.6,71.9,12.8c26.1,3.5,51.8,10.7,77.8,15.1
			C378.3,195.3,378.2,195.7,378.1,196.6z"/>
		<path d="M340.5,222.9c-32-3.9-57.5-15.5-86.2-29.5c-22.5-11-47.6-14.7-62.8-36.4c-9-12.8-12.7-30.4-24.1-41.5
			c-8.6-8.3-20.8-10.7-32-13c-32.2-6.8-49.9-14.3-73.2-37.7c0.8-1,1.2-1.4,2-2.4c22.7,22.7,39.3,32.7,71.1,38.9
			c11.6,2.3,23.9,4.1,33.3,12c12.4,10.5,16.3,27.8,25,41c15.2,22.8,38.3,25.3,61.7,35.4c28.9,12.4,54.2,24.8,85.7,29.3
			C340.9,220.6,340.8,221.4,340.5,222.9z"/>
		<path d="M301,253.6c-32.6-2-56-21.5-81.1-40.2c-23.7-17.6-51.2-28.6-67.3-54.3c-7.1-11.3-10.6-26-19.2-36.3
			c-9.5-11.4-21.2-14.1-35.2-17.7c-32.8-8.3-51-18.2-73.1-43.5c0.9-0.9,1.3-1.4,2.2-2.3c21.3,24.4,38.2,36.5,70.2,44.3
			c13.7,3.3,27.6,5.4,37.9,15.8c9.4,9.4,13.6,24.2,20.3,35.4c15.9,26.8,40.8,36.8,65.4,54.3c25.2,18.1,48.6,37.8,80.7,40.8
			C301.5,251.5,301.3,252.2,301,253.6z"/>
	</g>
	<g>
		<g>
			<g enable-background="new    ">
				<g enable-background="new    ">
					<defs>
						<path id="SVGID_1_" enable-background="new    " d="M217.1,137.8c0-1.1,0-4.9,1.2-9.4c0.2-0.8,0.6-2,0.9-2.8
							c0.3-0.9,0.8-2.1,1.2-3c0.4-0.9,1-2.1,1.5-3c0.9-1.4,2.1-3.3,3.1-4.7c0.6-0.8,1.5-1.9,2.2-2.6c2.6-2.5,2.6-2.5,4.8-4.3
							c1.4-1.1,2.7-1.8,4.2-2.7c1.1-0.6,2.6-1.4,3.8-1.8c1.6-0.6,2.7-1.1,5.3-1.7c1.9-0.5,5.1-1.1,9-1.1c4.7,0,8.2,1,9.8,1.4
							c0.4,0.1,2.1,0.6,4.4,1.5c1.2,0.5,2.7,1.3,3.8,1.9c9.1,5.1,15,15.3,15,27.8c0,19.7-15,37.6-33.4,40.1
							c18.4-2.5,33.3-20.4,33.4-40.1c0-12.5-5.9-22.6-15-27.8c0.9,0.5,2.1,1.2,2.9,1.8c0.6,0.5,1.5,1,2,1.5c0.7,0.6,1.7,1.4,2.4,2.1
							c0.6,0.6,1.4,1.3,1.9,2c0.6,0.7,1.5,1.7,2,2.4c1.8,2.4,2.9,4.4,3.2,5c0.6,1.1,1.5,2.9,2.4,5.5c0.6,1.7,1.1,4,1.4,5.7
							c0.5,2.5,0.7,6.9,0.3,9.9c-0.1,0.9-0.3,2.1-0.4,2.9c-0.2,1-0.5,2.2-0.7,3.2c-0.6,2.1-0.6,2.1-2.1,5.7c-0.7,1.6-1.4,2.7-3,5.3
							c-0.6,0.9-1.4,2-2.1,2.8c-3.2,3.8-6,5.9-8.8,7.7c-1.3,0.8-4.8,2.9-9.7,4.3c-5.4,1.5-11,1.8-16.5,0.8c-4-0.7-7-2-8-2.4
							c-3.4-1.4-6.3-3.4-7.1-4c-0.8-0.6-1.9-1.4-2.6-2c-0.6-0.5-1.4-1.3-2-1.8c-0.7-0.7-1.5-1.6-2.2-2.3c-1.8-2.1-3.4-4.6-4.8-7.3
							c-0.4-0.8-1-2-1.3-2.9c-0.6-1.6-1.3-3.9-1.7-5.6c-0.4-1.6-0.6-3.7-0.8-5.3C217.1,140,217.1,138.8,217.1,137.8z"/>
					</defs>
					<clipPath id="SVGID_2_">
						<use xlink:href="#SVGID_1_"  overflow="visible"/>
					</clipPath>
					<g clip-path="url(#SVGID_2_)" enable-background="new    ">
						<path fill="#AF680F" d="M217.1,137.8c0.4,23.4,18.1,32.4,23.6,34.6c11.4,4.6,28.2,3.7,40.2-8.8c16.8-17.5,12.7-45.7-8.4-58
							c9.1,5.1,15,15.3,15,27.8c0,19.7-15,37.6-33.4,40.1c18.4-2.5,33.3-20.4,33.4-40.1c0-12.5-5.9-22.6-15-27.8
							c-17.8-9.4-32.2-2.5-36.2-0.2C217.7,116.2,217.1,134.3,217.1,137.8"/>
						<path fill="#AF680F" d="M287.5,133.4c0,19.7-15,37.6-33.4,40.1c0,0-0.1,0-0.1,0c-32.3,1.6-44.5-33.2-30.2-49.6
							c15.6-17.8,48.5-3,50.3,22.7c1.4,19.7-13,24.5-19.9,26.9C272.5,171.1,287.5,153.1,287.5,133.4c0-12.5-5.9-22.6-15-27.8
							c-0.6-0.3-1.3-0.7-1.9-1c-0.9-0.4-2-0.9-2.9-1.3l-1.6-0.6c-0.6-0.2-1.3-0.4-1.8-0.6l-1.3-0.3c-0.4-0.1-0.9-0.2-1.3-0.3
							l-1.1-0.2c-0.3-0.1-0.7-0.1-1.1-0.2l-0.9-0.1c-0.3,0-0.6-0.1-0.9-0.1l-0.8-0.1c-0.3,0-0.6,0-0.8-0.1l-0.8,0
							c-0.2,0-0.6,0-0.8,0l-0.8,0c-0.2,0-0.6,0-0.8,0l-0.8,0c-0.3,0-0.6,0-0.9,0.1l-0.9,0.1c-0.3,0-0.7,0.1-1,0.1l-1.2,0.2
							c-3.5,0.7-5.2,1.2-7.9,2.3l-1.9,0.9c-2.5,1.3-2.6,1.4-4.1,2.3l-2.1,1.4c-0.9,0.7-2.1,1.7-2.9,2.4l-1.9,1.9
							c-0.7,0.8-1.6,1.8-2.2,2.6l-1.6,2.3c-0.5,0.8-1.2,1.9-1.7,2.8l-1.3,2.6c-0.4,0.9-0.9,2.1-1.2,3l-0.9,2.8
							c-0.2,0.9-0.5,2.2-0.7,3.2l-0.4,3c0,1-0.1,2.3-0.2,3.3l0.1,3c0.2,1.6,0.5,3.7,0.8,5.3l0.8,2.8c0.3,0.9,0.7,2.1,1.1,3l1.2,2.6
							c0.5,0.8,1.1,2,1.6,2.8l1.6,2.3c0.6,0.8,1.4,1.8,2,2.6l1.9,2c0.8,0.7,1.8,1.6,2.6,2.3l2,1.5c1,0.6,2.3,1.5,3.3,2.1l1.9,1
							c0.9,0.4,2,0.9,2.9,1.3l1.6,0.6c0.6,0.2,1.3,0.4,1.8,0.6l1.3,0.3c0.4,0.1,0.9,0.2,1.3,0.3l1.1,0.2c0.3,0.1,0.7,0.1,1.1,0.2
							l0.9,0.1c0.3,0,0.6,0.1,0.9,0.1l0.8,0.1c0.3,0,0.6,0,0.8,0.1l0.8,0c0.2,0,0.6,0,0.8,0l0.8,0c0.2,0,0.6,0,0.8,0l0.8,0
							c0.3,0,0.6,0,0.9-0.1l0.9-0.1c0.3,0,0.7-0.1,1-0.1l1.2-0.2c2.8-0.5,4.5-0.9,7.5-2.1l1.9-0.8c2.4-1.2,2.6-1.3,4.2-2.3l2.1-1.4
							c0.9-0.7,2.1-1.7,3-2.4l1.9-1.9c0.7-0.8,1.6-1.8,2.3-2.6l1.7-2.2c0.5-0.8,1.2-1.9,1.7-2.8l1.3-2.5c0.4-0.9,0.9-2.1,1.2-3
							l0.9-2.8c0.2-0.9,0.5-2.2,0.7-3.2l0.4-2.9c0.1-1.1,0.2-2.6,0.2-3.7l-0.1-3c-0.1-1-0.2-2.3-0.4-3.2l-0.6-2.9
							c-0.3-0.9-0.6-2.2-0.9-3.1l-1-2.7c-0.4-0.9-0.9-2-1.4-2.9l-1.4-2.4c-0.6-0.8-1.3-1.9-1.9-2.6l-1.8-2.1
							c-0.7-0.7-1.6-1.7-2.4-2.4l-2-1.7c-2.6-1.9-2.9-2.1-4.9-3.3C281.6,110.8,287.5,120.9,287.5,133.4"/>
						<path fill="#AB650D" d="M287.5,133.4c0,16.3-10.3,31.5-24.3,37.6c-0.5,0.3-1.1,0.6-1.6,0.8c-24.6,10.4-52-17.6-41.9-42.7
							c8.1-20.1,41.8-19.3,53.1,6.9c6,13.9,1.9,28.6-9.6,35C277.2,164.9,287.5,149.8,287.5,133.4c0-12.5-5.9-22.6-15-27.8
							c-0.6-0.3-1.3-0.7-1.9-1c-0.9-0.4-2-0.9-2.9-1.3l-1.6-0.6c-0.6-0.2-1.3-0.4-1.8-0.6l-1.3-0.3c-0.4-0.1-0.9-0.2-1.3-0.3
							l-1.1-0.2c-0.3-0.1-0.7-0.1-1.1-0.2l-0.9-0.1c-0.3,0-0.6-0.1-0.9-0.1l-0.8-0.1c-0.3,0-0.6,0-0.8-0.1l-0.8,0
							c-0.2,0-0.6,0-0.8,0l-0.8,0c-0.2,0-0.6,0-0.8,0l-0.8,0c-0.3,0-0.6,0-0.9,0.1l-0.9,0.1c-0.3,0-0.7,0.1-1,0.1l-1.2,0.2
							c-3.5,0.7-5.2,1.2-7.9,2.3l-1.9,0.9c-2.5,1.3-2.6,1.4-4.1,2.3l-2.1,1.4c-0.9,0.7-2.1,1.7-2.9,2.4l-1.9,1.9
							c-0.7,0.8-1.6,1.8-2.2,2.6l-1.6,2.3c-0.5,0.8-1.2,1.9-1.7,2.8l-1.3,2.6c-0.4,0.9-0.9,2.1-1.2,3l-0.9,2.8
							c-0.2,0.9-0.5,2.2-0.7,3.2l-0.4,3c0,1-0.1,2.3-0.2,3.3l0.1,3c0.2,1.6,0.5,3.7,0.8,5.3l0.8,2.8c0.3,0.9,0.7,2.1,1.1,3l1.2,2.6
							c0.5,0.8,1.1,2,1.6,2.8l1.6,2.3c0.6,0.8,1.4,1.8,2,2.6l1.9,2c0.8,0.7,1.8,1.6,2.6,2.3l2,1.5c1,0.6,2.3,1.5,3.3,2.1l1.9,1
							c0.9,0.4,2,0.9,2.9,1.3l1.6,0.6c0.6,0.2,1.3,0.4,1.8,0.6l1.3,0.3c0.4,0.1,0.9,0.2,1.3,0.3l1.1,0.2c0.3,0.1,0.7,0.1,1.1,0.2
							l0.9,0.1c0.3,0,0.6,0.1,0.9,0.1l0.8,0.1c0.3,0,0.6,0,0.8,0.1l0.8,0c0.2,0,0.6,0,0.8,0l0.8,0c0.2,0,0.6,0,0.8,0l0.8,0
							c0.3,0,0.6,0,0.9-0.1l0.9-0.1c0.3,0,0.7-0.1,1-0.1l1.2-0.2c2.8-0.5,4.5-0.9,7.5-2.1l1.9-0.8c2.4-1.2,2.6-1.3,4.2-2.3l2.1-1.4
							c0.9-0.7,2.1-1.7,3-2.4l1.9-1.9c0.7-0.8,1.6-1.8,2.3-2.6l1.7-2.2c0.5-0.8,1.2-1.9,1.7-2.8l1.3-2.5c0.4-0.9,0.9-2.1,1.2-3
							l0.9-2.8c0.2-0.9,0.5-2.2,0.7-3.2l0.4-2.9c0.1-1.1,0.2-2.6,0.2-3.7l-0.1-3c-0.1-1-0.2-2.3-0.4-3.2l-0.6-2.9
							c-0.3-0.9-0.6-2.2-0.9-3.1l-1-2.7c-0.4-0.9-0.9-2-1.4-2.9l-1.4-2.4c-0.6-0.8-1.3-1.9-1.9-2.6l-1.8-2.1
							c-0.7-0.7-1.6-1.7-2.4-2.4l-2-1.7c-2.6-1.9-2.9-2.1-4.9-3.3C281.6,110.8,287.5,120.9,287.5,133.4"/>
						<g>
							<path fill="#A7630B" d="M218.6,148.5c-7.2-25.8,16.5-43.7,40.2-30.4c17.5,9.7,25.3,35.7,9.7,50c11.2-7.3,18.9-20.5,19-34.7
								c0-12.5-5.9-22.6-15-27.8c-0.6-0.3-1.3-0.7-1.9-1c-0.9-0.4-2-0.9-2.9-1.3l-1.6-0.6c-0.6-0.2-1.3-0.4-1.8-0.6l-1.3-0.3
								c-0.4-0.1-0.9-0.2-1.3-0.3l-1.1-0.2c-0.3-0.1-0.7-0.1-1.1-0.2l-0.9-0.1c-0.3,0-0.6-0.1-0.9-0.1l-0.8-0.1
								c-0.3,0-0.6,0-0.8-0.1l-0.8,0c-0.2,0-0.6,0-0.8,0l-0.8,0c-0.2,0-0.6,0-0.8,0l-0.8,0c-0.3,0-0.6,0-0.9,0.1l-0.9,0.1
								c-0.3,0-0.7,0.1-1,0.1l-1.2,0.2c-3.5,0.7-5.2,1.2-7.9,2.3l-1.9,0.9c-2.5,1.3-2.6,1.4-4.1,2.3l-2.1,1.4
								c-0.9,0.7-2.1,1.7-2.9,2.4l-1.9,1.9c-0.7,0.8-1.6,1.8-2.2,2.6l-1.6,2.3c-0.5,0.8-1.2,1.9-1.7,2.8l-1.3,2.6
								c-0.4,0.9-0.9,2.1-1.2,3l-0.9,2.8c-0.2,0.9-0.5,2.2-0.7,3.2l-0.4,3c0,1-0.1,2.3-0.2,3.3l0.1,3c0.2,1.6,0.5,3.7,0.8,5.3
								l0.8,2.8l0.8,2.3l-0.9-2.7C218.7,148.6,218.7,148.5,218.6,148.5"/>
							<path fill="#A7630B" d="M287.5,133.4c0,14.2-7.8,27.4-19,34.7c-0.4,0.4-1,0.9-1.5,1.3c-4.3,3.2-16,9.6-32.5,0
								c0.9,0.6,2.2,1.3,3.2,1.8c0.9,0.4,2,0.9,2.9,1.3l1.6,0.6c0.6,0.2,1.3,0.4,1.8,0.6l1.3,0.3c0.4,0.1,0.9,0.2,1.3,0.3l1.1,0.2
								c0.3,0.1,0.7,0.1,1.1,0.2l0.9,0.1c0.3,0,0.6,0.1,0.9,0.1l0.8,0.1c0.3,0,0.6,0,0.8,0.1l0.8,0c0.2,0,0.6,0,0.8,0l0.8,0
								c0.2,0,0.6,0,0.8,0l0.8,0c0.3,0,0.6,0,0.9-0.1l0.9-0.1c0.3,0,0.7-0.1,1-0.1l1.2-0.2c2.8-0.5,4.5-0.9,7.5-2.1l1.9-0.8
								c2.4-1.2,2.6-1.3,4.2-2.3l2.1-1.4c0.9-0.7,2.1-1.7,3-2.4l1.9-1.9c0.7-0.8,1.6-1.8,2.3-2.6l1.7-2.2c0.5-0.8,1.2-1.9,1.7-2.8
								l1.3-2.5c0.4-0.9,0.9-2.1,1.2-3l0.9-2.8c0.2-0.9,0.5-2.2,0.7-3.2l0.4-2.9c0.1-1.1,0.2-2.6,0.2-3.7l-0.1-3
								c-0.1-1-0.2-2.3-0.4-3.2l-0.6-2.9c-0.3-0.9-0.6-2.2-0.9-3.1l-1-2.7c-0.4-0.9-0.9-2-1.4-2.9l-1.4-2.4
								c-0.6-0.8-1.3-1.9-1.9-2.6l-1.8-2.1c-0.7-0.7-1.6-1.7-2.4-2.4l-2-1.7c-2.6-1.9-2.9-2.1-4.9-3.3
								C281.6,110.8,287.5,120.9,287.5,133.4"/>
						</g>
						<g>
							<path fill="#A3600A" d="M217.6,143.7c-3.5-29.6,26.7-40.1,47.2-23.4c10.5,8.6,20,28.2,7.9,44.8c8.9-7.6,14.9-19.3,14.9-31.6
								c0-12.5-5.9-22.6-15-27.8c-0.6-0.3-1.3-0.7-1.9-1c-0.9-0.4-2-0.9-2.9-1.3l-1.6-0.6c-0.6-0.2-1.3-0.4-1.8-0.6l-1.3-0.3
								c-0.4-0.1-0.9-0.2-1.3-0.3l-1.1-0.2c-0.3-0.1-0.7-0.1-1.1-0.2l-0.9-0.1c-0.3,0-0.6-0.1-0.9-0.1l-0.8-0.1
								c-0.3,0-0.6,0-0.8-0.1l-0.8,0c-0.2,0-0.6,0-0.8,0l-0.8,0c-0.2,0-0.6,0-0.8,0l-0.8,0c-0.3,0-0.6,0-0.9,0.1l-0.9,0.1
								c-0.3,0-0.7,0.1-1,0.1l-1.2,0.2c-3.5,0.7-5.2,1.2-7.9,2.3l-1.9,0.9c-2.5,1.3-2.6,1.4-4.1,2.3l-2.1,1.4
								c-0.9,0.7-2.1,1.7-2.9,2.4l-1.9,1.9c-0.7,0.8-1.6,1.8-2.2,2.6l-1.6,2.3c-0.5,0.8-1.2,1.9-1.7,2.8l-1.3,2.6
								c-0.4,0.9-0.9,2.1-1.2,3l-0.9,2.8c-0.2,0.9-0.5,2.2-0.7,3.2l-0.4,3c0,1-0.1,2.3-0.2,3.3l0.1,3c0.1,1,0.3,2.4,0.4,3.4
								L217.6,143.7"/>
							<path fill="#A3600A" d="M287.5,133.4c0,12.4-5.9,24-14.9,31.6c-0.2,0.2-0.4,0.6-0.6,0.8c-10.8,12.2-24.8,8.9-30.4,7l1.5,0.5
								l0.9,0.3l1.3,0.3c0.4,0.1,0.9,0.2,1.3,0.3l1.1,0.2c0.3,0.1,0.7,0.1,1.1,0.2l0.9,0.1c0.3,0,0.6,0.1,0.9,0.1l0.8,0.1
								c0.3,0,0.6,0,0.8,0.1l0.8,0c0.2,0,0.6,0,0.8,0l0.8,0c0.2,0,0.6,0,0.8,0l0.8,0c0.3,0,0.6,0,0.9-0.1l0.9-0.1
								c0.3,0,0.7-0.1,1-0.1l1.2-0.2c2.8-0.5,4.5-0.9,7.5-2.1l1.9-0.8c2.4-1.2,2.6-1.3,4.2-2.3l2.1-1.4c0.9-0.7,2.1-1.7,3-2.4
								l1.9-1.9c0.7-0.8,1.6-1.8,2.3-2.6l1.7-2.2c0.5-0.8,1.2-1.9,1.7-2.8l1.3-2.5c0.4-0.9,0.9-2.1,1.2-3l0.9-2.8
								c0.2-0.9,0.5-2.2,0.7-3.2l0.4-2.9c0.1-1.1,0.2-2.6,0.2-3.7l-0.1-3c-0.1-1-0.2-2.3-0.4-3.2l-0.6-2.9c-0.3-0.9-0.6-2.2-0.9-3.1
								l-1-2.7c-0.4-0.9-0.9-2-1.4-2.9l-1.4-2.4c-0.6-0.8-1.3-1.9-1.9-2.6l-1.8-2.1c-0.7-0.7-1.6-1.7-2.4-2.4l-2-1.7
								c-2.6-1.9-2.9-2.1-4.9-3.3C281.6,110.8,287.5,120.9,287.5,133.4"/>
						</g>
						<g>
							<path fill="#9F5E08" d="M217.1,137.8c1.5-31.6,35.7-33.4,52.3-15.3c10.7,11.6,13.4,27.4,6.7,39.3c7-7.5,11.4-17.7,11.4-28.3
								c0-12.5-5.9-22.6-15-27.8c-0.6-0.3-1.3-0.7-1.9-1c-0.9-0.4-2-0.9-2.9-1.3l-1.6-0.6c-0.6-0.2-1.3-0.4-1.8-0.6l-1.3-0.3
								c-0.4-0.1-0.9-0.2-1.3-0.3l-1.1-0.2c-0.3-0.1-0.7-0.1-1.1-0.2l-0.9-0.1c-0.3,0-0.6-0.1-0.9-0.1l-0.8-0.1
								c-0.3,0-0.6,0-0.8-0.1l-0.8,0c-0.2,0-0.6,0-0.8,0l-0.8,0c-0.2,0-0.6,0-0.8,0l-0.8,0c-0.3,0-0.6,0-0.9,0.1l-0.9,0.1
								c-0.3,0-0.7,0.1-1,0.1l-1.2,0.2c-3.5,0.7-5.2,1.2-7.9,2.3l-1.9,0.9c-2.5,1.3-2.6,1.4-4.1,2.3l-2.1,1.4
								c-0.9,0.7-2.1,1.7-2.9,2.4l-1.9,1.9c-0.7,0.8-1.6,1.8-2.2,2.6l-1.6,2.3c-0.5,0.8-1.2,1.9-1.7,2.8l-1.3,2.6
								c-0.4,0.9-0.9,2.1-1.2,3l-0.9,2.8c-0.2,0.9-0.5,2.2-0.7,3.2l-0.4,3C217.2,135.5,217.1,136.9,217.1,137.8L217.1,137.8"/>
							<path fill="#9F5E08" d="M287.5,133.4c0,10.7-4.4,20.9-11.4,28.3c-0.3,0.6-0.7,1.3-1.1,1.9c-8.4,11.5-19.6,12.2-27.5,10.8
								l1,0.2l0.3,0l0.9,0.1c0.3,0,0.6,0.1,0.9,0.1l0.8,0.1c0.3,0,0.6,0,0.8,0.1l0.8,0c0.2,0,0.6,0,0.8,0l0.8,0c0.2,0,0.6,0,0.8,0
								l0.8,0c0.3,0,0.6,0,0.9-0.1l0.9-0.1c0.3,0,0.7-0.1,1-0.1l1.2-0.2c2.8-0.5,4.5-0.9,7.5-2.1l1.9-0.8c2.4-1.2,2.6-1.3,4.2-2.3
								l2.1-1.4c0.9-0.7,2.1-1.7,3-2.4l1.9-1.9c0.7-0.8,1.6-1.8,2.3-2.6l1.7-2.2c0.5-0.8,1.2-1.9,1.7-2.8l1.3-2.5
								c0.4-0.9,0.9-2.1,1.2-3l0.9-2.8c0.2-0.9,0.5-2.2,0.7-3.2l0.4-2.9c0.1-1.1,0.2-2.6,0.2-3.7l-0.1-3c-0.1-1-0.2-2.3-0.4-3.2
								l-0.6-2.9c-0.3-0.9-0.6-2.2-0.9-3.1l-1-2.7c-0.4-0.9-0.9-2-1.4-2.9l-1.4-2.4c-0.6-0.8-1.3-1.9-1.9-2.6l-1.8-2.1
								c-0.7-0.7-1.6-1.7-2.4-2.4l-2-1.7c-2.6-1.9-2.9-2.1-4.9-3.3C281.6,110.8,287.5,120.9,287.5,133.4"/>
						</g>
						<g>
							<path fill="#9B5B06" d="M217.9,130.2c6.3-27,42.2-28,58.2-1.7c5.7,9.3,6.8,20.7,3,29.6c5.2-7,8.3-15.6,8.3-24.7
								c0-12.5-5.9-22.6-15-27.8c-0.6-0.3-1.3-0.7-1.9-1c-0.9-0.4-2-0.9-2.9-1.3l-1.6-0.6c-0.6-0.2-1.3-0.4-1.8-0.6l-1.3-0.3
								c-0.4-0.1-0.9-0.2-1.3-0.3l-1.1-0.2c-0.3-0.1-0.7-0.1-1.1-0.2l-0.9-0.1c-0.3,0-0.6-0.1-0.9-0.1l-0.8-0.1
								c-0.3,0-0.6,0-0.8-0.1l-0.8,0c-0.2,0-0.6,0-0.8,0l-0.8,0c-0.2,0-0.6,0-0.8,0l-0.8,0c-0.3,0-0.6,0-0.9,0.1l-0.9,0.1
								c-0.3,0-0.7,0.1-1,0.1l-1.2,0.2c-3.5,0.7-5.2,1.2-7.9,2.3l-1.9,0.9c-2.5,1.3-2.6,1.4-4.1,2.3l-2.1,1.4
								c-0.9,0.7-2.1,1.7-2.9,2.4l-1.9,1.9c-0.7,0.8-1.6,1.8-2.2,2.6l-1.6,2.3c-0.5,0.8-1.2,1.9-1.7,2.8l-1.3,2.6
								c-0.4,0.9-0.9,2.1-1.2,3l-0.9,2.8c-0.2,0.9-0.5,2.2-0.7,3.2c0,0.3-0.1,0.7-0.2,1C217.6,131.8,217.8,130.9,217.9,130.2"/>
							<path fill="#9B5B06" d="M287.5,133.4c0,9-3.2,17.7-8.3,24.7c-0.1,0.2-0.2,0.5-0.2,0.7c-4.5,10.5-13.9,16.5-25.7,16.3
								c0.4,0,1,0,1.5,0c0.2,0,0.6,0,0.8,0l0.8,0c0.3,0,0.6,0,0.9-0.1l0.9-0.1c0.3,0,0.7-0.1,1-0.1l1.2-0.2c2.8-0.5,4.5-0.9,7.5-2.1
								l1.9-0.8c2.4-1.2,2.6-1.3,4.2-2.3l2.1-1.4c0.9-0.7,2.1-1.7,3-2.4l1.9-1.9c0.7-0.8,1.6-1.8,2.3-2.6l1.7-2.2
								c0.5-0.8,1.2-1.9,1.7-2.8l1.3-2.5c0.4-0.9,0.9-2.1,1.2-3l0.9-2.8c0.2-0.9,0.5-2.2,0.7-3.2l0.4-2.9c0.1-1.1,0.2-2.6,0.2-3.7
								l-0.1-3c-0.1-1-0.2-2.3-0.4-3.2l-0.6-2.9c-0.3-0.9-0.6-2.2-0.9-3.1l-1-2.7c-0.4-0.9-0.9-2-1.4-2.9l-1.4-2.4
								c-0.6-0.8-1.3-1.9-1.9-2.6l-1.8-2.1c-0.7-0.7-1.6-1.7-2.4-2.4l-2-1.7c-2.6-1.9-2.9-2.1-4.9-3.3
								C281.6,110.8,287.5,120.9,287.5,133.4"/>
						</g>
						<g>
							<path fill="#975904" d="M218.9,126.4c10.9-28.8,47.9-22.2,60.5,4c2.6,5.4,5.1,13.8,2.6,23.4c3.5-6.1,5.5-13.1,5.5-20.4
								c0-12.5-5.9-22.6-15-27.8c-0.6-0.3-1.3-0.7-1.9-1c-0.9-0.4-2-0.9-2.9-1.3l-1.6-0.6c-0.6-0.2-1.3-0.4-1.8-0.6l-1.3-0.3
								c-0.4-0.1-0.9-0.2-1.3-0.3l-1.1-0.2c-0.3-0.1-0.7-0.1-1.1-0.2l-0.9-0.1c-0.3,0-0.6-0.1-0.9-0.1l-0.8-0.1
								c-0.3,0-0.6,0-0.8-0.1l-0.8,0c-0.2,0-0.6,0-0.8,0l-0.8,0c-0.2,0-0.6,0-0.8,0l-0.8,0c-0.3,0-0.6,0-0.9,0.1l-0.9,0.1
								c-0.3,0-0.7,0.1-1,0.1l-1.2,0.2c-3.5,0.7-5.2,1.2-7.9,2.3l-1.9,0.9c-2.5,1.3-2.6,1.4-4.1,2.3l-2.1,1.4
								c-0.9,0.7-2.1,1.7-2.9,2.4l-1.9,1.9c-0.7,0.8-1.6,1.8-2.2,2.6l-1.6,2.3c-0.5,0.8-1.2,1.9-1.7,2.8l-1.3,2.6
								c-0.4,0.9-0.9,2.1-1.2,3c-0.1,0.3-0.3,0.8-0.4,1.2C218.8,126.7,218.9,126.5,218.9,126.4"/>
							<path fill="#975904" d="M287.5,133.4c0,7.2-2,14.3-5.5,20.4c-0.1,0.7-0.3,1.6-0.5,2.3c-4.9,13.4-14.7,17.5-22.1,18.6l1.2-0.2
								c1.8-0.4,3.9-0.8,7.3-2.1l1.9-0.8c2.4-1.2,2.6-1.3,4.2-2.3l2.1-1.4c0.9-0.7,2.1-1.7,3-2.4l1.9-1.9c0.7-0.8,1.6-1.8,2.3-2.6
								l1.7-2.2c0.5-0.8,1.2-1.9,1.7-2.8l1.3-2.5c0.4-0.9,0.9-2.1,1.2-3l0.9-2.8c0.2-0.9,0.5-2.2,0.7-3.2l0.4-2.9
								c0.1-1.1,0.2-2.6,0.2-3.7l-0.1-3c-0.1-1-0.2-2.3-0.4-3.2l-0.6-2.9c-0.3-0.9-0.6-2.2-0.9-3.1l-1-2.7c-0.4-0.9-0.9-2-1.4-2.9
								l-1.4-2.4c-0.6-0.8-1.3-1.9-1.9-2.6l-1.8-2.1c-0.7-0.7-1.6-1.7-2.4-2.4l-2-1.7c-2.6-1.9-2.9-2.1-4.9-3.3
								C281.6,110.8,287.5,120.9,287.5,133.4"/>
						</g>
						<g>
							<path fill="#935603" d="M223.1,117.8c17.6-25.1,56.2-7.8,61.2,20.3c0.7,3.9,0.9,5.2,0.4,10.2c1.8-4.7,2.9-9.7,2.9-14.8
								c0-12.5-5.9-22.6-15-27.8c-0.6-0.3-1.3-0.7-1.9-1c-0.9-0.4-2-0.9-2.9-1.3l-1.6-0.6c-0.6-0.2-1.3-0.4-1.8-0.6l-1.3-0.3
								c-0.4-0.1-0.9-0.2-1.3-0.3l-1.1-0.2c-0.3-0.1-0.7-0.1-1.1-0.2l-0.9-0.1c-0.3,0-0.6-0.1-0.9-0.1l-0.8-0.1
								c-0.3,0-0.6,0-0.8-0.1l-0.8,0c-0.2,0-0.6,0-0.8,0l-0.8,0c-0.2,0-0.6,0-0.8,0l-0.8,0c-0.3,0-0.6,0-0.9,0.1l-0.9,0.1
								c-0.3,0-0.7,0.1-1,0.1l-1.2,0.2c-3.5,0.7-5.2,1.2-7.9,2.3l-1.9,0.9c-2.5,1.3-2.6,1.4-4.1,2.3l-2.1,1.4
								c-0.9,0.7-2.1,1.7-2.9,2.4l-1.9,1.9c-0.7,0.8-1.6,1.8-2.2,2.6l-1.6,2.3c-0.5,0.8-1.2,1.9-1.7,2.8l1-1.7
								C222.8,118.2,223,118,223.1,117.8"/>
							<path fill="#935603" d="M287.5,133.4c0,5.1-1,10.2-2.9,14.8c0,0.6,0,1.5,0,2.2c-2.7,15.5-13.3,21-19.4,22.9l1.4-0.4l1.3-0.5
								l1.9-0.8c2.4-1.2,2.6-1.3,4.2-2.3l2.1-1.4c0.9-0.7,2.1-1.7,3-2.4l1.9-1.9c0.7-0.8,1.6-1.8,2.3-2.6l1.7-2.2
								c0.5-0.8,1.2-1.9,1.7-2.8l1.3-2.5c0.4-0.9,0.9-2.1,1.2-3l0.9-2.8c0.2-0.9,0.5-2.2,0.7-3.2l0.4-2.9c0.1-1.1,0.2-2.6,0.2-3.7
								l-0.1-3c-0.1-1-0.2-2.3-0.4-3.2l-0.6-2.9c-0.3-0.9-0.6-2.2-0.9-3.1l-1-2.7c-0.4-0.9-0.9-2-1.4-2.9l-1.4-2.4
								c-0.6-0.8-1.3-1.9-1.9-2.6l-1.8-2.1c-0.7-0.7-1.6-1.7-2.4-2.4l-2-1.7c-2.6-1.9-2.9-2.1-4.9-3.3
								C281.6,110.8,287.5,120.9,287.5,133.4"/>
						</g>
						<path fill="#B36A10" d="M244,172.7c23.2,4.6,37.3-20.3,23.2-40.9c-14.6-21.3-45.1-17.8-48.7,5.5
							C216.1,152.7,228.2,169.6,244,172.7"/>
						<path fill="#B76D11" d="M240.6,171.4c24.2,7.5,38.1-16.6,27.2-36.1c-13.3-23.7-43-20.7-48.2-0.6
							C215.2,151.4,226.9,167.2,240.6,171.4"/>
						<path fill="#BB6F13" d="M235.9,169.1c20.9,10.8,38.8-7.5,33.2-26.7c-7.4-25.5-37.9-29.4-47.5-11.3
							C214.9,143.9,221.6,161.7,235.9,169.1"/>
						<path fill="#BF7214" d="M234.5,167.9c19.5,11,39.1-4.1,33.3-25.7c-5.2-19.5-33.4-29.8-44.9-11.5
							C214.8,143.7,222.3,161,234.5,167.9"/>
						<path fill="#C47415" d="M232.3,166c17.8,12.1,37.8,0.5,35-20.4c-2.8-21.3-31-31.3-43-15.3C215.6,141.7,221.4,158.6,232.3,166"
							/>
						<path fill="#C87716" d="M232,165.2c18.4,13.2,37.3-1.1,34.2-19.8c-3.7-22.2-32.5-28.2-41.9-13.5
							C216.7,143.7,222.4,158.4,232,165.2"/>
						<path fill="#CC7917" d="M232.3,164.8c18.9,13.4,35.8-3.2,32.7-19.5c-4.2-22-31.3-26.7-40.7-11.5
							C218.3,143.5,221.8,157.1,232.3,164.8"/>
						<path fill="#D07C18" d="M230.1,162.3c16.5,14.9,34.4,2.1,34.1-13.7c-0.5-21.7-26.1-27.8-36.7-17
							C218.7,140.5,221.7,154.7,230.1,162.3"/>
						<path fill="#D47E18" d="M230.6,161.8c15.6,14.1,34.6,1.1,32.5-16.7c-2.1-17.3-26.7-24.5-36.5-10.6
							C219.9,143.8,223.6,155.6,230.6,161.8"/>
						<path fill="#D88019" d="M231.2,161.4c15.9,13.9,33.1-1.2,31-16.3c-2.2-16.3-24.9-22.9-34.6-10.1
							C220.3,144.6,225.3,156.2,231.2,161.4"/>
						<path fill="#DC831A" d="M229.6,158.5c12.9,15,31.1,4.1,32-10.2c1-16.5-20.2-24.5-30.6-15C220.8,142.6,225.6,153.9,229.6,158.5
							"/>
						<path fill="#E0851B" d="M230.5,158.1c12,13.7,29.4,3.4,30.3-9.8c1-14.1-16.9-25-29.3-13.9
							C223.1,141.9,225.8,152.8,230.5,158.1"/>
						<path fill="#E4871B" d="M231.5,157.6c11.1,12.4,27.5,2.7,28.5-9.4c1.1-12.6-15.3-24.6-28.5-12.4
							C226.5,140.5,225.2,150.6,231.5,157.6"/>
						<path fill="#E8891C" d="M232.7,157.2c10,10.2,25.3,3.1,26.5-9c1.4-13.8-14.9-22-25.7-12.9
							C226.3,141.5,227.2,151.6,232.7,157.2"/>
						<path fill="#EC8C1C" d="M231.8,154.1c5.3,7.9,13.9,6.6,14,6.6c2.9-0.6,11.6-2.6,12.9-12.5c1.5-11.9-12.5-20.2-22.9-13.6
							C229.5,138.4,227.6,147.7,231.8,154.1"/>
						<path fill="#F18E1D" d="M233.1,153.7c7.1,10.4,23.3,6.8,25.1-5.5c0.8-5.6-2.1-10.7-7.8-14c-1.6-0.9-7.2-3.4-14.5,1.3
							C231.5,138.3,228.1,146.4,233.1,153.7"/>
						<path fill="#F7921E" d="M234.1,153.4c7.2,9.1,21.7,5.8,23.5-5.3c0.4-2.5,0.5-8.8-7.3-13.4c-2.3-1.4-7.2-3.1-13.7,1
							C231,139.4,229.8,147.9,234.1,153.4"/>
						<path fill="#F99D38" d="M235.2,153.1c7.4,8.8,20.1,4.4,21.8-5c1.8-9.9-10.1-17.8-18.8-12.6C229.2,141,232.9,150.4,235.2,153.1
							"/>
						<path fill="#F9A243" d="M235.3,151.6c2,3.1,5.8,6.5,12.7,5.4c3.3-0.5,7.6-4.2,8.5-8.8c0.9-4.3-1-8.3-5.6-11.8
							c-2.5-1.9-8.4-2.4-11-0.9c-5.1,3-5.3,3.9-6.5,8C233.2,143.9,232.5,147.2,235.3,151.6"/>
						<path fill="#FAA64C" d="M237,152.8c3.2,3.3,9.1,4.3,10.9,3.5c4.4-1.8,4.5-1.9,6.8-5c1-1.3,1.8-4,1.4-6.5
							c-0.5-3.6-2.9-6.1-3.7-6.8c-1.9-1.8-1.9-1.8-7-3.1c-3.2-0.8-8.8,3-9.7,4.5C231.1,146.6,236.7,152.5,237,152.8"/>
						<path fill="#FAA953" d="M235.7,149.7c1.3,2.5,4.6,6.6,12.1,6c2.2-0.2,6.8-3.7,7.6-7.6c1.3-6-3.4-9.9-3.6-10.1
							c-2.5-2-6.2-2.6-6.3-2.7c-1.4-0.2-3.5,0.2-4.8,0.8c-1.4,0.6-3,2-4,3.1c-0.4,0.4-1.9,3.8-1.9,3.8
							C234.7,143.1,234,146.6,235.7,149.7"/>
						<path fill="#FAAC5A" d="M236.3,149.6c0.8,1.4,4,6.1,11.4,5.5l3.5-1.5c1.8-1.8,3-2.9,3.7-5.5c1.1-4.3-1.2-8-3.8-10
							c-1.7-1.4-5.6-2.2-5.6-2.2c-1.4-0.2-3.5,0.3-4.8,0.9c-0.6,0.3-3.8,1.9-5.3,6.3C235.1,143.6,234.8,147,236.3,149.6"/>
						<path fill="#FBAF5F" d="M236.9,149.5c0,0,2.3,2.6,2.6,2.8c1.2,0.8,3,1.5,4.3,2.1c1,0.5,2.6,0.1,3.8,0.1
							c1.2-0.1,2.7-0.7,3.6-1.5c2.2-2,2.9-3.9,3.2-4.9c0.5-1.7,1-6.1-3.9-10c-1.2-1-3.4-1.6-4.9-1.8c-1.5-0.1-3.4,0.3-4.8,0.9
							C237.7,138.6,233.7,144.1,236.9,149.5"/>
						<path fill="#FBB164" d="M237.6,149.4c1.2,1.9,4,5.1,9.9,4.6c1.2-0.1,2.8-0.8,3.6-1.7c1.7-1.6,2.7-4.2,2.7-4.2
							c1-3.3-0.3-7-3.4-9.4c-0.4-0.4-4.3-1.8-4.9-1.9c-1.4-0.1-3.4,0.4-4.7,1C240.7,137.8,233.5,142.6,237.6,149.4"/>
						<path fill="#FBB469" d="M238.2,149.3c1.3,2.2,4.2,3.5,5.2,3.9c1.1,0.5,2.8,0.4,4,0.3c1.2-0.1,2.8-1,3.7-1.8
							c0.8-0.7,2.2-3.6,2.3-3.6c1.1-3.4-0.6-7-2.8-8.7c-1.3-1-3.3-1.9-5-2.1c-1.4-0.2-3.4,0.5-4.7,1.1
							C240.7,138.4,234.4,143,238.2,149.3"/>
						<path fill="#FBB66D" d="M238.9,149.2c0,0,2,2.3,4.4,3.4c1.1,0.5,2.8,0.4,4,0.3c0,0,3.4-1.6,3.7-1.9c0.8-0.7,1.4-2,1.8-2.9
							c1.4-4.2-1.5-7.5-2.3-8.2c-0.7-0.5-4.3-2.1-4.9-2.2c-0.2,0-4.5,1-4.7,1.2c-1.1,0.8-2.6,2.3-2.9,3.6
							C237.6,144.4,237.2,146.8,238.9,149.2"/>
						<path fill="#FCB871" d="M239.5,149.1c0,0,3.2,2.7,3.7,2.9c1.1,0.5,2.8,0.5,4,0.4c0.3,0,3-1.6,3.8-2.2c0.6-0.5,1.1-1.4,1.3-2.2
							c1.6-4.6-1.8-7.5-1.8-7.6c0,0-4.6-2.3-4.9-2.4c-0.2,0-4.5,1.2-4.6,1.4C238.5,141.2,236.9,145.7,239.5,149.1"/>
						<path fill="#FCBA75" d="M240.1,149c0.7,0.9,1.9,1.9,2.9,2.3c1.2,0.5,2.9,0.7,4.1,0.6c0.4,0,3.8-2.4,3.8-2.4
							c0.4-0.3,0.7-0.9,0.8-1.4c1.2-3.5-0.8-6.6-1.3-6.9c-1.3-1-3.3-2.3-4.9-2.4c-1.4-0.1-3.4,0.6-4.6,1.5
							C239,141.6,237.6,145.8,240.1,149"/>
						<path fill="#FCBC78" d="M240.7,148.9c0.5,0.6,1.3,1.4,2.1,1.7c1.2,0.5,3,1.1,4.2,0.8c1.4-0.3,2.7-1.8,3.8-2.6
							c0.2-0.1,0.3-0.4,0.4-0.6c1.3-4.1-0.4-6-1.2-6.6c-1.1-1-2.9-2.1-4.4-2.2c-1.4-0.1-3.2,1-4.6,1.6c-1.6,0.6-1.8,4.9-1.8,4.9
							C239.4,146.8,240.1,148.1,240.7,148.9"/>
						<path fill="#FCBE7C" d="M241.4,148.8c0.3,0.4,0.8,0.9,1.3,1c1.2,0.4,3,1.2,4.3,0.9c1.3-0.3,2.6-1.8,3.7-2.7
							c0.1-0.1,0.1-0.4,0.2-0.5c0.2-0.8,0.6-1.9,0.4-2.7c-0.3-1.1-1.1-2.6-2.1-3.3c-0.9-0.7-2.3-1.7-3.4-1.7c-1.4-0.1-3.2,1-4.5,1.7
							c-0.3,0.1-0.5,0.5-0.6,0.7C239,145.5,240.8,148,241.4,148.8"/>
						<path fill="#FCBF7F" d="M242,148.7c0.1,0.1,0.3,0.3,0.5,0.4c1.3,0.4,3,1.3,4.4,1.1c1-0.2,2.2-1.2,2.8-2c0.6-0.8,0.9-2.1,1.1-3
							c0-0.1,0.1-0.3,0-0.4c-0.7-1-1.5-2.4-2.5-3.1c-0.6-0.5-1.6-1.2-2.5-1.2c-1.4-0.1-3.5,0.6-4.5,1.7c-0.7,0.8-0.9,2.4-0.8,3.5
							C240.6,146.6,241.4,147.9,242,148.7"/>
						<path fill="#FDC182" d="M242.2,147.9c0.2,0.3,0.5,0.6,0.9,0.7c1.1,0.4,2.6,1.2,3.7,1c0.7-0.1,1.5-0.8,1.9-1.4
							c0.6-0.9,1.4-2.3,1.2-3.3c-0.2-1.2-1.7-2.4-2.6-3.2c-0.4-0.3-1-0.7-1.5-0.7C244.5,140.8,238.6,143.3,242.2,147.9"/>
						<path fill="#FDC385" d="M241.9,145.9c0.7,0.9,1.9,1.9,2.9,2.5c0.5,0.3,1.3,0.6,1.9,0.5c0.4-0.1,0.8-0.4,1-0.7
							c0.5-0.9,1.5-2.3,1.3-3.4c0,0-2.4-3.4-3.1-3.5c-0.5,0-0.9,0-4.1,3.6C241.5,145.3,241.7,145.7,241.9,145.9"/>
						<path fill="#FDC488" d="M246.5,148.3c0,0,0.1,0,0.1,0c0.2,0,1.5-3.4,1.5-3.4c-0.1-1-1.1-2.5-2.1-2.6c-1.3-0.1-3,1.7-3,3
							C243,146.7,245.2,147.7,246.5,148.3"/>
						<path fill="#FDC68B" d="M246.4,146.8c0.6-0.1,0.9-1.2,0.8-1.8c-0.1-0.5-0.6-1.3-1.1-1.3c-0.7,0-1.6,0.9-1.5,1.5
							C244.5,145.9,245.6,147,246.4,146.8"/>
						<path fill="#FDC78E" d="M246.2,145.2c0,0,0.1-0.1,0.1-0.1c0,0,0-0.1-0.1-0.1c0,0-0.1,0.1-0.1,0.1
							C246,145.1,246.1,145.2,246.2,145.2"/>
					</g>
				</g>
				<g enable-background="new    ">
					<defs>
						<path id="SVGID_3_" enable-background="new    " d="M235.9,170.2c-0.6-0.4-1.5-0.9-2.1-1.3c-1-0.7-2.3-1.6-3.2-2.3
							c-1.3-1-2.8-2.6-3.9-3.7c-0.7-0.8-1.7-1.9-2.3-2.7c-2.1-3-2.1-3-3.2-5.2c-2.3-4.4-3.2-8.7-3.2-8.7c-0.3-1.8-0.7-4.1-0.8-5.9
							c-0.1-1.6-0.1-3.8,0.1-5.5c0.1-1,0.2-2.3,0.4-3.2c0.2-0.9,0.4-2,0.6-2.9c0.2-0.9,0.6-2.2,0.9-3.1c0.3-0.8,0.7-1.9,1.1-2.7
							c0.4-0.9,1-2,1.4-2.9c1.6-2.9,3.3-5,3.3-5.1c1-1.3,2.5-2.9,3.7-4c0.2-0.2,2.4-2.3,4.5-3.6c1.8-1.2,5.4-3.6,11.1-5.2
							c4.8-1.3,9.6-1.7,14.5-1.1c7.1,0.9,11.8,3.5,13.8,4.6c-5.2-3-11.5-4.3-18.2-3.4c6.7-0.9,13,0.4,18.2,3.4
							c1.3,0.8,3,1.8,4.2,2.8c1.1,0.9,2.9,2.3,4.6,4.2c1.2,1.3,2.3,2.5,3.8,4.9c0.5,0.8,1.2,1.9,1.7,2.8c0.4,0.8,0.9,1.8,1.3,2.6
							c0.4,0.9,0.9,2.1,1.2,3c0.3,0.8,0.6,2,0.8,2.8c0.3,0.9,0.6,2.2,0.7,3.2c0.1,0.9,0.3,2.1,0.4,3c0.1,1,0.1,2.3,0.1,3.3
							c0,1.8-0.2,4.2-0.5,6c-0.2,1.1-0.4,2.5-0.8,3.5c-0.8,2.8-1.2,4.1-2,5.7c-1.4,2.9-1.6,3.3-2.9,5.2c-1.4,2.1-2.8,3.7-3.7,4.7
							c-1.3,1.4-2.5,2.6-4.4,4c-2,1.6-3.1,2.2-5,3.3c-1.4,0.8-3.8,1.8-4.2,2c-1.1,0.4-2.8,1.1-5.4,1.7c-4.5,1-9.1,1.2-13.7,0.5
							C242.7,173.7,238.1,171.5,235.9,170.2z"/>
					</defs>
					<clipPath id="SVGID_4_">
						<use xlink:href="#SVGID_3_"  overflow="visible"/>
					</clipPath>
					<g clip-path="url(#SVGID_4_)" enable-background="new    ">
						<path fill="#AF680F" d="M235.9,170.2c-17-9.9-19.6-27.4-18.7-35.4c0.4-3,1.5-12.2,7.8-19.8c2.2-2.7,8.1-9.8,19.2-12.9
							c6.6-1.9,16.9-2.8,28.3,3.5c-5.2-3-11.5-4.3-18.2-3.4c6.7-0.9,13,0.4,18.2,3.4c5.1,3.1,10.9,7.3,15.6,17.1
							c1.7,3.5,4.2,10.9,2.7,21.2c-1.7,11.8-11.3,26.2-28.3,30.1C249.7,177,239.6,172.3,235.9,170.2"/>
						<path fill="#AF680F" d="M272.5,105.6c2.4,1.4,4.3,2.7,6.9,5l1.9,1.9c0.7,0.8,1.6,1.8,2.2,2.6l1.6,2.3c0.5,0.8,1.2,1.9,1.7,2.8
							l1.3,2.6c0.4,0.9,0.9,2.1,1.2,3l0.8,2.8c0.2,0.9,0.5,2.2,0.7,3.2l0.4,3c0,1,0.1,2.3,0.1,3.3l-0.1,3c-0.1,1.1-0.3,2.5-0.5,3.6
							l-0.6,2.9c-0.3,0.9-0.6,2.1-1,3.1l-1.1,2.7c-0.4,0.9-1,2-1.4,2.9l-1.5,2.4c-0.6,0.8-1.3,1.9-1.9,2.6l-1.8,2.1
							c-0.7,0.7-1.7,1.7-2.4,2.4l-2,1.6c-0.9,0.7-2.1,1.6-3.1,2.2l-1.9,1.1c-2.4,1.3-2.6,1.3-4.2,2l-1.3,0.5
							c-1.9,0.6-3.8,1.3-7.4,1.8l-1,0.1c-0.3,0-0.7,0.1-0.9,0.1l-0.9,0.1c-0.3,0-0.6,0-0.8,0l-0.8,0c-0.2,0-0.6,0-0.8,0l-0.8,0
							c-0.2,0-0.6,0-0.8,0l-0.8-0.1c-0.3,0-0.6,0-0.8-0.1l-0.9-0.1c-0.3,0-0.7-0.1-0.9-0.1l-1-0.2c-0.3-0.1-0.8-0.1-1.1-0.2
							l-1.2-0.3c-0.4-0.1-1-0.2-1.4-0.4l-1.5-0.5c-0.6-0.2-1.3-0.5-1.9-0.7l-1.9-0.8c-0.9-0.4-2-1-2.9-1.5l-2.1-1.3
							c-1-0.7-2.2-1.6-3.2-2.3l-2-1.8c-0.7-0.7-1.7-1.7-2.4-2.5l-1.7-2.2c-0.6-0.8-1.3-1.9-1.8-2.7l-1.4-2.5c-0.4-0.9-1-2-1.3-2.9
							l-1-2.7c-0.3-0.9-0.6-2.2-0.8-3.1l-0.5-2.9c-0.2-1.6-0.3-3.8-0.4-5.4l0.1-3c0.1-1,0.2-2.3,0.4-3.2l0.6-2.9
							c0.3-0.9,0.6-2.2,0.9-3.1l1.1-2.7c0.4-0.9,1-2,1.4-2.9l1.4-2.4c0.6-0.8,1.3-1.9,1.9-2.6l1.8-2.1c0.7-0.7,1.7-1.7,2.4-2.4
							l2-1.7c0.9-0.7,2.1-1.6,3-2.2l1.9-1.1c2.5-1.3,2.6-1.4,4.1-2l1.4-0.5c2.4-0.8,4.2-1.4,7.8-1.9l1-0.1c0.3,0,0.7-0.1,0.9-0.1
							l0.9-0.1c0.3,0,0.6,0,0.8,0l0.8,0c0.2,0,0.6,0,0.8,0l0.8,0c0.2,0,0.6,0,0.8,0l0.8,0.1c0.3,0,0.6,0,0.8,0.1l0.9,0.1
							c0.3,0,0.7,0.1,0.9,0.1l1,0.2c0.3,0.1,0.8,0.1,1.1,0.2l1.2,0.3c0.4,0.1,1,0.2,1.4,0.4l1.5,0.5c0.6,0.2,1.3,0.5,1.9,0.7
							l1.9,0.8C270.5,104.6,271.7,105.1,272.5,105.6c-5.2-3-11.5-4.3-18.2-3.4c0,0,0,0,0,0c-32,9.1-20.6,44.5-1.1,54.1
							c22.5,11.1,43.3-6.7,35.9-30.7c-2.7-8.8-10.9-23.6-34.8-23.4C261,101.4,267.3,102.7,272.5,105.6"/>
						<path fill="#AB650D" d="M272.5,105.6c2.4,1.4,4.3,2.7,6.9,5l1.9,1.9c0.7,0.8,1.6,1.8,2.2,2.6l1.6,2.3c0.5,0.8,1.2,1.9,1.7,2.8
							l1.3,2.6c0.4,0.9,0.9,2.1,1.2,3l0.8,2.8c0.2,0.9,0.5,2.2,0.7,3.2l0.4,3c0,1,0.1,2.3,0.1,3.3l-0.1,3c-0.1,1.1-0.3,2.5-0.5,3.6
							l-0.6,2.9c-0.3,0.9-0.6,2.1-1,3.1l-1.1,2.7c-0.4,0.9-1,2-1.4,2.9l-1.5,2.4c-0.6,0.8-1.3,1.9-1.9,2.6l-1.8,2.1
							c-0.7,0.7-1.7,1.7-2.4,2.4l-2,1.6c-0.9,0.7-2.1,1.6-3.1,2.2l-1.9,1.1c-2.4,1.3-2.6,1.3-4.2,2l-1.3,0.5
							c-1.9,0.6-3.8,1.3-7.4,1.8l-1,0.1c-0.3,0-0.7,0.1-0.9,0.1l-0.9,0.1c-0.3,0-0.6,0-0.8,0l-0.8,0c-0.2,0-0.6,0-0.8,0l-0.8,0
							c-0.2,0-0.6,0-0.8,0l-0.8-0.1c-0.3,0-0.6,0-0.8-0.1l-0.9-0.1c-0.3,0-0.7-0.1-0.9-0.1l-1-0.2c-0.3-0.1-0.8-0.1-1.1-0.2
							l-1.2-0.3c-0.4-0.1-1-0.2-1.4-0.4l-1.5-0.5c-0.6-0.2-1.3-0.5-1.9-0.7l-1.9-0.8c-0.9-0.4-2-1-2.9-1.5l-2.1-1.3
							c-1-0.7-2.2-1.6-3.2-2.3l-2-1.8c-0.7-0.7-1.7-1.7-2.4-2.5l-1.7-2.2c-0.6-0.8-1.3-1.9-1.8-2.7l-1.4-2.5c-0.4-0.9-1-2-1.3-2.9
							l-1-2.7c-0.3-0.9-0.6-2.2-0.8-3.1l-0.5-2.9c-0.2-1.6-0.3-3.8-0.4-5.4l0.1-3c0.1-1,0.2-2.3,0.4-3.2l0.6-2.9
							c0.3-0.9,0.6-2.2,0.9-3.1l1.1-2.7c0.4-0.9,1-2,1.4-2.9l1.4-2.4c0.6-0.8,1.3-1.9,1.9-2.6l1.8-2.1c0.7-0.7,1.7-1.7,2.4-2.4
							l2-1.7c0.9-0.7,2.1-1.6,3-2.2l1.9-1.1c2.5-1.3,2.6-1.4,4.1-2l1.4-0.5c2.4-0.8,4.2-1.4,7.8-1.9l1-0.1c0.3,0,0.7-0.1,0.9-0.1
							l0.9-0.1c0.3,0,0.6,0,0.8,0l0.8,0c0.2,0,0.6,0,0.8,0l0.8,0c0.2,0,0.6,0,0.8,0l0.8,0.1c0.3,0,0.6,0,0.8,0.1l0.9,0.1
							c0.3,0,0.7,0.1,0.9,0.1l1,0.2c0.3,0.1,0.8,0.1,1.1,0.2l1.2,0.3c0.4,0.1,1,0.2,1.4,0.4l1.5,0.5c0.6,0.2,1.3,0.5,1.9,0.7
							l1.9,0.8C270.5,104.6,271.7,105.1,272.5,105.6c-1.8-1-3.8-1.9-5.8-2.5c-0.1,0-0.2-0.1-0.2-0.1c-27.2-7.6-41.6,19-28.9,40.5
							c14.2,24.2,47.2,23,52.7-1.8c3.4-15.5-7.4-33.2-23.6-38.6C268.8,103.8,270.7,104.6,272.5,105.6"/>
						<g>
							<path fill="#A7630B" d="M289.3,125.8c0.4,1.2,1,3,1.5,5.9l0.4,3c0,1,0.1,2.3,0.1,3.3l-0.1,3c-0.1,1.1-0.3,2.5-0.5,3.6
								l-0.6,2.9c-0.3,0.9-0.6,2.1-1,3.1l-1.1,2.7c-0.4,0.9-1,2-1.4,2.9l-1.5,2.4c-0.6,0.8-1.3,1.9-1.9,2.6l-1.8,2.1
								c-0.7,0.7-1.7,1.7-2.4,2.4l-2,1.6c-0.9,0.7-2.1,1.6-3.1,2.2l-1.9,1.1c-2.4,1.3-2.6,1.3-4.2,2l-1.3,0.5
								c-1.9,0.6-3.8,1.3-7.4,1.8l-1,0.1c-0.3,0-0.7,0.1-0.9,0.1l-0.9,0.1c-0.3,0-0.6,0-0.8,0l-0.8,0c-0.2,0-0.6,0-0.8,0l-0.8,0
								c-0.2,0-0.6,0-0.8,0l-0.8-0.1c-0.3,0-0.6,0-0.8-0.1l-0.9-0.1c-0.3,0-0.7-0.1-0.9-0.1l-1-0.2c-0.3-0.1-0.8-0.1-1.1-0.2
								l-1.2-0.3c-0.4-0.1-1-0.2-1.4-0.4l-1.5-0.5c-0.6-0.2-1.3-0.5-1.9-0.7l-1.9-0.8c-0.9-0.4-2-1-2.9-1.5l-2.1-1.3
								c-1-0.7-2.2-1.6-3.2-2.3l-2-1.8c-0.7-0.7-1.7-1.7-2.4-2.5l-1.7-2.2c-0.6-0.8-1.3-1.9-1.8-2.7l-1.4-2.5c-0.4-0.9-1-2-1.3-2.9
								l-1-2.7c-0.3-0.9-0.6-2.2-0.8-3.1l-0.5-2.9c-0.2-1.6-0.3-3.8-0.4-5.4l0.1-3c0.1-1,0.2-2.3,0.4-3.2l0.6-2.9
								c0.3-0.9,0.6-2.2,0.9-3.1l1.1-2.7c0.4-0.9,1-2,1.4-2.9l1.4-2.4c0.6-0.8,1.3-1.9,1.9-2.6l1.8-2.1c0.7-0.7,1.7-1.7,2.4-2.4
								l2-1.7c0.9-0.7,2.1-1.6,3-2.2l1.9-1.1c2.5-1.3,2.6-1.4,4.1-2l1.4-0.5c2.4-0.8,4.2-1.4,7.8-1.9l1-0.1c0.3,0,0.7-0.1,0.9-0.1
								l0.9-0.1c0.3,0,0.6,0,0.8,0l0.8,0c0.2,0,0.6,0,0.8,0l0.8,0c0.2,0,0.6,0,0.8,0l0.8,0.1c0.3,0,0.6,0,0.8,0.1l0.9,0.1
								c0.3,0,0.7,0.1,0.9,0.1l1,0.2c0.3,0.1,0.8,0.1,1.1,0.2l1.2,0.3c0.4,0.1,1,0.2,1.4,0.4l1.5,0.5c0.6,0.2,1.3,0.5,1.9,0.7
								l1.9,0.8c0.9,0.4,2,1,2.9,1.5c-0.2-0.1-0.4-0.2-0.6-0.4c-0.7-0.3-1.6-0.8-2.2-1.1c-26.4-11.5-45.2,12.4-35.8,35.3
								c11.4,27.8,45.7,29.4,54.8,8.5c4.2-9.7,1.9-18.9,0.1-23.5C289,124.9,289.2,125.4,289.3,125.8"/>
							<path fill="#A7630B" d="M272.5,105.6c0.6,0.3,1.3,0.8,1.9,1.1c-0.7-0.4-1.6-0.9-2.2-1.3c-0.1,0-0.2-0.1-0.3-0.1
								C272.1,105.4,272.3,105.5,272.5,105.6"/>
						</g>
						<path fill="#A3600A" d="M290.8,131.7c0.3,1.8,0.5,3.4,0.5,6.3l-0.1,3c-0.1,1.1-0.3,2.5-0.5,3.6l-0.6,2.9
							c-0.3,0.9-0.6,2.1-1,3.1l-1.1,2.7c-0.4,0.9-1,2-1.4,2.9l-1.5,2.4c-0.6,0.8-1.3,1.9-1.9,2.6l-1.8,2.1c-0.7,0.7-1.7,1.7-2.4,2.4
							l-2,1.6c-0.9,0.7-2.1,1.6-3.1,2.2l-1.9,1.1c-2.4,1.3-2.6,1.3-4.2,2l-1.3,0.5c-1.9,0.6-3.8,1.3-7.4,1.8l-1,0.1
							c-0.3,0-0.7,0.1-0.9,0.1l-0.9,0.1c-0.3,0-0.6,0-0.8,0l-0.8,0c-0.2,0-0.6,0-0.8,0l-0.8,0c-0.2,0-0.6,0-0.8,0l-0.8-0.1
							c-0.3,0-0.6,0-0.8-0.1l-0.9-0.1c-0.3,0-0.7-0.1-0.9-0.1l-1-0.2c-0.3-0.1-0.8-0.1-1.1-0.2l-1.2-0.3c-0.4-0.1-1-0.2-1.4-0.4
							l-1.5-0.5c-0.6-0.2-1.3-0.5-1.9-0.7l-1.9-0.8c-0.9-0.4-2-1-2.9-1.5l-2.1-1.3c-1-0.7-2.2-1.6-3.2-2.3l-2-1.8
							c-0.7-0.7-1.7-1.7-2.4-2.5l-1.7-2.2c-0.6-0.8-1.3-1.9-1.8-2.7l-1.4-2.5c-0.4-0.9-1-2-1.3-2.9l-1-2.7c-0.3-0.9-0.6-2.2-0.8-3.1
							l-0.5-2.9c-0.2-1.6-0.3-3.8-0.4-5.4l0.1-3c0.1-1,0.2-2.3,0.4-3.2l0.6-2.9c0.3-0.9,0.6-2.2,0.9-3.1l1.1-2.7
							c0.4-0.9,1-2,1.4-2.9l1.4-2.4c0.6-0.8,1.3-1.9,1.9-2.6l1.8-2.1c0.7-0.7,1.7-1.7,2.4-2.4l2-1.7c0.9-0.7,2.1-1.6,3-2.2l1.9-1.1
							c2.5-1.3,2.6-1.4,4.1-2l1.4-0.5c2.4-0.8,4.2-1.4,7.8-1.9l1-0.1c0.3,0,0.7-0.1,0.9-0.1l0.9-0.1c0.3,0,0.6,0,0.8,0l0.8,0
							c0.2,0,0.6,0,0.8,0l0.8,0c0.2,0,0.6,0,0.8,0l0.8,0.1c0.3,0,0.6,0,0.8,0.1l0.9,0.1c0.3,0,0.7,0.1,0.9,0.1l1,0.2
							c0.3,0.1,0.8,0.1,1.1,0.2l1.2,0.3c0.4,0.1,1,0.2,1.4,0.4l1.5,0.5l0.9,0.3l-1.9-0.6c-27.5-7.8-42.8,19.6-30.4,41.9
							c14.7,26.4,48.4,24.1,55.4,2.2c2-6.4,1.5-11.5,1-14.8C290.8,131.6,290.8,131.7,290.8,131.7"/>
						<path fill="#9F5E08" d="M291.3,138c0,1.9-0.1,3.6-0.6,6.6l-0.6,2.9c-0.3,0.9-0.6,2.1-1,3.1l-1.1,2.7c-0.4,0.9-1,2-1.4,2.9
							l-1.5,2.4c-0.6,0.8-1.3,1.9-1.9,2.6l-1.8,2.1c-0.7,0.7-1.7,1.7-2.4,2.4l-2,1.6c-0.9,0.7-2.1,1.6-3.1,2.2l-1.9,1.1
							c-2.4,1.3-2.6,1.3-4.2,2l-1.3,0.5c-1.9,0.6-3.8,1.3-7.4,1.8l-1,0.1c-0.3,0-0.7,0.1-0.9,0.1l-0.9,0.1c-0.3,0-0.6,0-0.8,0
							l-0.8,0c-0.2,0-0.6,0-0.8,0l-0.8,0c-0.2,0-0.6,0-0.8,0l-0.8-0.1c-0.3,0-0.6,0-0.8-0.1l-0.9-0.1c-0.3,0-0.7-0.1-0.9-0.1l-1-0.2
							c-0.3-0.1-0.8-0.1-1.1-0.2l-1.2-0.3c-0.4-0.1-1-0.2-1.4-0.4l-1.5-0.5c-0.6-0.2-1.3-0.5-1.9-0.7l-1.9-0.8c-0.9-0.4-2-1-2.9-1.5
							l-2.1-1.3c-1-0.7-2.2-1.6-3.2-2.3l-2-1.8c-0.7-0.7-1.7-1.7-2.4-2.5l-1.7-2.2c-0.6-0.8-1.3-1.9-1.8-2.7l-1.4-2.5
							c-0.4-0.9-1-2-1.3-2.9l-1-2.7c-0.3-0.9-0.6-2.2-0.8-3.1l-0.5-2.9c-0.2-1.6-0.3-3.8-0.4-5.4l0.1-3c0.1-1,0.2-2.3,0.4-3.2
							l0.6-2.9c0.3-0.9,0.6-2.2,0.9-3.1l1.1-2.7c0.4-0.9,1-2,1.4-2.9l1.4-2.4c0.6-0.8,1.3-1.9,1.9-2.6l1.8-2.1
							c0.7-0.7,1.7-1.7,2.4-2.4l2-1.7c0.9-0.7,2.1-1.6,3-2.2l1.9-1.1c2.5-1.3,2.6-1.4,4.1-2l1.4-0.5c2.4-0.8,4.2-1.4,7.8-1.9l1-0.1
							c0.3,0,0.7-0.1,0.9-0.1l0.9-0.1c0.3,0,0.6,0,0.8,0l0.8,0c0.2,0,0.6,0,0.8,0l0.8,0c0.2,0,0.6,0,0.8,0l0.8,0.1
							c0.3,0,0.6,0,0.8,0.1l0.9,0.1c0.3,0,0.7,0.1,0.9,0.1l1,0.2l0.3,0.1l-0.3-0.1c-29.3-4.6-40.8,27.7-24.3,48.9
							c17.7,22.8,51.5,17.8,54.7-8c0.3-2.4,0.3-3.6,0.3-4.5C291.3,137.8,291.3,137.9,291.3,138"/>
						<path fill="#9B5B06" d="M290.7,144.6c-0.2,1.3-0.6,3.2-1.6,5.9l-1.1,2.7c-0.4,0.9-1,2-1.4,2.9l-1.5,2.4
							c-0.6,0.8-1.3,1.9-1.9,2.6l-1.8,2.1c-0.7,0.7-1.7,1.7-2.4,2.4l-2,1.6c-0.9,0.7-2.1,1.6-3.1,2.2l-1.9,1.1
							c-2.4,1.3-2.6,1.3-4.2,2l-1.3,0.5c-1.9,0.6-3.8,1.3-7.4,1.8l-1,0.1c-0.3,0-0.7,0.1-0.9,0.1l-0.9,0.1c-0.3,0-0.6,0-0.8,0
							l-0.8,0c-0.2,0-0.6,0-0.8,0l-0.8,0c-0.2,0-0.6,0-0.8,0l-0.8-0.1c-0.3,0-0.6,0-0.8-0.1l-0.9-0.1c-0.3,0-0.7-0.1-0.9-0.1l-1-0.2
							c-0.3-0.1-0.8-0.1-1.1-0.2l-1.2-0.3c-0.4-0.1-1-0.2-1.4-0.4l-1.5-0.5c-0.6-0.2-1.3-0.5-1.9-0.7l-1.9-0.8c-0.9-0.4-2-1-2.9-1.5
							l-2.1-1.3c-1-0.7-2.2-1.6-3.2-2.3l-2-1.8c-0.7-0.7-1.7-1.7-2.4-2.5l-1.7-2.2c-0.6-0.8-1.3-1.9-1.8-2.7l-1.4-2.5
							c-0.4-0.9-1-2-1.3-2.9l-1-2.7c-0.3-0.9-0.6-2.2-0.8-3.1l-0.5-2.9c-0.2-1.6-0.3-3.8-0.4-5.4l0.1-3c0.1-1,0.2-2.3,0.4-3.2
							l0.6-2.9c0.3-0.9,0.6-2.2,0.9-3.1l1.1-2.7c0.4-0.9,1-2,1.4-2.9l1.4-2.4c0.6-0.8,1.3-1.9,1.9-2.6l1.8-2.1
							c0.7-0.7,1.7-1.7,2.4-2.4l2-1.7c0.9-0.7,2.1-1.6,3-2.2l1.9-1.1c2.5-1.3,2.6-1.4,4.1-2l1.4-0.5c2.4-0.8,4.2-1.4,7.8-1.9l1-0.1
							c0.3,0,0.7-0.1,0.9-0.1l0.9-0.1c0.3,0,0.6,0,0.8,0l0.8,0c0.2,0,0.6,0,0.8,0c0.2,0,0.5,0,0.7,0c-0.2,0-0.4,0-0.6,0
							c-27.6,0.1-37.2,33.4-15.8,54.8c17.5,17.5,47,14.5,52.2-12.3C290.9,143.7,290.8,144.2,290.7,144.6"/>
						<path fill="#975904" d="M289.1,150.5c-0.4,1.1-1.1,2.9-2.5,5.5l-1.5,2.4c-0.6,0.8-1.3,1.9-1.9,2.6l-1.8,2.1
							c-0.7,0.7-1.7,1.7-2.4,2.4l-2,1.6c-0.9,0.7-2.1,1.6-3.1,2.2l-1.9,1.1c-2.4,1.3-2.6,1.3-4.2,2l-1.3,0.5
							c-1.9,0.6-3.8,1.3-7.4,1.8l-1,0.1c-0.3,0-0.7,0.1-0.9,0.1l-0.9,0.1c-0.3,0-0.6,0-0.8,0l-0.8,0c-0.2,0-0.6,0-0.8,0l-0.8,0
							c-0.2,0-0.6,0-0.8,0l-0.8-0.1c-0.3,0-0.6,0-0.8-0.1l-0.9-0.1c-0.3,0-0.7-0.1-0.9-0.1l-1-0.2c-0.3-0.1-0.8-0.1-1.1-0.2
							l-1.2-0.3c-0.4-0.1-1-0.2-1.4-0.4l-1.5-0.5c-0.6-0.2-1.3-0.5-1.9-0.7l-1.9-0.8c-0.9-0.4-2-1-2.9-1.5l-2.1-1.3
							c-1-0.7-2.2-1.6-3.2-2.3l-2-1.8c-0.7-0.7-1.7-1.7-2.4-2.5l-1.7-2.2c-0.6-0.8-1.3-1.9-1.8-2.7l-1.4-2.5c-0.4-0.9-1-2-1.3-2.9
							l-1-2.7c-0.3-0.9-0.6-2.2-0.8-3.1l-0.5-2.9c-0.2-1.6-0.3-3.8-0.4-5.4l0.1-3c0.1-1,0.2-2.3,0.4-3.2l0.6-2.9
							c0.3-0.9,0.6-2.2,0.9-3.1l1.1-2.7c0.4-0.9,1-2,1.4-2.9l1.4-2.4c0.6-0.8,1.3-1.9,1.9-2.6l1.8-2.1c0.7-0.7,1.7-1.7,2.4-2.4
							l2-1.7c0.9-0.7,2.1-1.6,3-2.2l1.9-1.1c2.5-1.3,2.6-1.4,4.1-2l1.4-0.5c2-0.7,3.9-1.3,7.6-1.9l-0.6,0.1
							c-28.3,4.9-31.8,42-5.6,60.1c18.3,12.7,40.6,6.8,46.8-12.4C289.5,149.5,289.3,150.1,289.1,150.5"/>
						<path fill="#935603" d="M286.6,156c-0.8,1.3-1.6,2.8-3.4,5l-1.8,2.1c-0.7,0.7-1.7,1.7-2.4,2.4l-2,1.6
							c-0.9,0.7-2.1,1.6-3.1,2.2l-1.9,1.1c-2.4,1.3-2.6,1.3-4.2,2l-1.3,0.5c-1.9,0.6-3.8,1.3-7.4,1.8l-1,0.1c-0.3,0-0.7,0.1-0.9,0.1
							l-0.9,0.1c-0.3,0-0.6,0-0.8,0l-0.8,0c-0.2,0-0.6,0-0.8,0l-0.8,0c-0.2,0-0.6,0-0.8,0l-0.8-0.1c-0.3,0-0.6,0-0.8-0.1l-0.9-0.1
							c-0.3,0-0.7-0.1-0.9-0.1l-1-0.2c-0.3-0.1-0.8-0.1-1.1-0.2l-1.2-0.3c-0.4-0.1-1-0.2-1.4-0.4l-1.5-0.5c-0.6-0.2-1.3-0.5-1.9-0.7
							l-1.9-0.8c-0.9-0.4-2-1-2.9-1.5l-2.1-1.3c-1-0.7-2.2-1.6-3.2-2.3l-2-1.8c-0.7-0.7-1.7-1.7-2.4-2.5l-1.7-2.2
							c-0.6-0.8-1.3-1.9-1.8-2.7l-1.4-2.5c-0.4-0.9-1-2-1.3-2.9l-1-2.7c-0.3-0.9-0.6-2.2-0.8-3.1l-0.5-2.9c-0.2-1.6-0.3-3.8-0.4-5.4
							l0.1-3c0.1-1,0.2-2.3,0.4-3.2l0.6-2.9c0.3-0.9,0.6-2.2,0.9-3.1l1.1-2.7c0.4-0.9,1-2,1.4-2.9l1.4-2.4c0.6-0.8,1.3-1.9,1.9-2.6
							l1.8-2.1c0.7-0.7,1.7-1.7,2.4-2.4l2-1.7c0.9-0.7,2.1-1.6,3-2.2l1.9-1.1c2.5-1.3,2.6-1.4,4.1-2l1.4-0.5
							c0.6-0.2,1.3-0.5,1.9-0.6l0,0c-27.8,8.8-26.7,48.2,1.7,62.9c19.4,10,35.3,1.9,41.9-9.9C286.8,155.6,286.7,155.9,286.6,156"/>
						<path fill="#B36A10" d="M270.6,105.1c23.3,11,26.7,43.3,5.4,51.7c-22.3,8.7-47.9-17.8-38.6-40.1
							C243.4,102.5,259,99.7,270.6,105.1"/>
						<path fill="#B76D11" d="M273.8,107.1c22.4,13.7,21.3,45.2-1.7,49.6c-24.3,4.7-44.9-25.5-30.6-44.9
							C249.7,100.8,264,101.1,273.8,107.1"/>
						<path fill="#BB6F13" d="M276.7,109.3c20.2,15.6,14.6,42.4-4.4,46.1c-21.1,4.1-43.5-22.1-29.9-43
							C248.5,103.2,263.7,99.7,276.7,109.3"/>
						<path fill="#BF7214" d="M279.3,111.9c18.4,17.6,8.3,42.7-11.4,42.7c-23.2,0-37.6-29.1-22-44.5
							C255.5,100.6,270.7,103.6,279.3,111.9"/>
						<path fill="#C47415" d="M279.2,112.3c16.6,15.6,9.7,40.9-11.3,41c-22.6,0.1-36-27.6-20.7-43
							C255.1,102.3,269.4,103.2,279.2,112.3"/>
						<path fill="#C87716" d="M281.3,115.1c13.6,16.7,4,38.6-16,36.6c-23.3-2.3-30.5-30.8-15.5-42.3
							C260,101.7,274.1,106.3,281.3,115.1"/>
						<path fill="#CC7917" d="M281,115.6c13.5,16.7,2.4,38.6-17.8,34.9c-21.8-4-26.2-30.7-11.3-41
							C260.4,103.4,273.4,106.2,281,115.6"/>
						<path fill="#D07C18" d="M282.6,118.7c10.7,17.6-2.9,33.8-19.4,30.6c-22-4.2-23.7-29.6-11.2-38.6
							C263.7,102.3,277.3,109.9,282.6,118.7"/>
						<path fill="#D47E18" d="M282.1,119.1c9.9,16.6-3.2,32-18.9,29.1c-20.5-3.8-23.5-26.8-9.4-37.3
							C261.3,105.3,275.3,107.7,282.1,119.1"/>
						<path fill="#D88019" d="M281.5,119.6c8.9,15.3-3.5,29.9-18.3,27.8c-18.6-2.6-22.2-25.4-9.5-34.9
							C264.4,104.6,276.9,111.6,281.5,119.6"/>
						<path fill="#DC831A" d="M282.2,123c6,16-10.4,28-24.1,22c-16.2-7.1-13.7-28.3,0.3-33.9C267.3,107.6,278.6,113.3,282.2,123"/>
						<path fill="#E0851B" d="M281.3,123.5c5,14.4-9.1,27-23.2,20.8c-15.3-6.7-12.7-26.4,0.6-31.9
							C268.2,108.6,278.4,115.1,281.3,123.5"/>
						<path fill="#E4871B" d="M280.3,123.9c4.8,14.2-10.3,25-22.2,19.7c-14.4-6.4-11.7-25.2,1-30.1
							C268.4,110,277.7,116.2,280.3,123.9"/>
						<path fill="#E8891C" d="M279.2,124.3c4.5,13.5-9.8,23.6-21.1,18.6c-12.8-5.6-11.9-23.1,1.3-28.3
							C266.4,112,276.3,115.5,279.2,124.3"/>
						<path fill="#EC8C1C" d="M278.8,128c0.7,10.1-6.3,13.3-8.6,14.4c-8,3.7-13.9-1.4-15.9-3c-9.2-7.9-4.1-22.6,8.4-24.2
							C271.3,114,278.3,121,278.8,128"/>
						<path fill="#F18E1D" d="M277.7,128.3c0.9,7.3-5.1,12-5.1,12c-3.9,2.5-4,2.5-9.5,2.8c0,0-4.4-1-5.7-1.9
							c-13.9-10.1-4.9-22.4,2.5-24.6C267.2,114.4,276.5,119,277.7,128.3"/>
						<path fill="#F7921E" d="M276.9,128.6c1.1,9.6-10.3,19.2-21,10.7c-10.9-8.6-2.6-22.3,7.4-22.3C267.6,117,276,120.4,276.9,128.6
							"/>
						<path fill="#F99D38" d="M276,128.8c0.3,3.3-0.3,9.4-8,12.6c-2.3,1-8.5,1.3-13.3-3.6c-6.8-7.1-2.6-20.1,8.9-19.9
							C270.7,118.1,275.6,124.4,276,128.8"/>
						<path fill="#F9A243" d="M275.1,129c1.2,12.6-13.3,15.5-19.7,8.8c-7.9-8.2-1.1-19.9,8.5-19.1C271.5,119.3,274.8,126,275.1,129"
							/>
						<path fill="#FAA64C" d="M274.4,129.2c0.9,6.4-3,8.9-6.5,11c0,0-4.4,2-9.8-0.8c-0.7-0.4-6.6-3.7-5.6-11.7c0.2-1.9,3-7,8.1-8.2
							C264.8,118.5,273.2,121.5,274.4,129.2"/>
						<path fill="#FAA953" d="M273.8,132.7c0,0-1.5,3.3-1.9,3.8c-1,1.2-2.8,2.2-4,3.1c-1.2,0.9-3.4,0.7-4.8,0.8
							c-0.4,0-6.3-0.9-9-6.1c-3.4-6.5,1.8-15.5,10.3-14.3C270.2,120.9,275.1,127.4,273.8,132.7"/>
						<path fill="#FAAC5A" d="M273.1,132.8c-1.7,6.4-7.8,6.9-10.1,7.1c-1.6,0.1-3.6-0.8-4.9-1.7c-1.4-0.9-3.5-3.9-3.6-3.9
							c-3.2-5.8,1-15,10-13.6c0.4,0.1,4.3,1.9,4.4,1.9c0.8,0.6,1.5,1.1,3.3,3.6C273.8,128.6,273.1,132.8,273.1,132.8"/>
						<path fill="#FBAF5F" d="M272.4,133c-0.8,2.9-3.4,4.7-4.7,5.6c-1.2,0.8-3.3,0.8-4.8,0.9c-1.6,0.1-3.6-0.9-4.9-1.8
							c-1.1-0.7-2.3-2.2-3-3.4c-0.9-1.5-2.5-5.5,0.7-9.8c2.7-3.7,7.4-3.5,8.9-3.2c1.4,0.3,3.1,1.3,4.3,2.1c0.3,0.2,2.5,2.8,2.6,2.8
							C273.4,129.2,272.5,132.6,272.4,133"/>
						<path fill="#FBB164" d="M271.7,133.1c0,0-1,2.9-4,4.9c-1.2,0.8-3.3,0.9-4.7,1c0,0-3.6-1.1-4.9-1.9c-0.9-0.6-1.9-1.8-2.5-2.8
							c-2.9-4.9-0.1-8.6,0.8-9.8c1.2-1.6,3.8-2.5,4.6-2.7c1.1-0.3,2.7-0.1,3.8,0.2C264.9,122,274.1,125,271.7,133.1"/>
						<path fill="#FBB469" d="M271.3,131.4c-0.1,0.5,0.1,1.3-0.2,1.8c-0.7,1.3-1.7,2.9-2.8,3.8c-0.6,0.5-0.7,0.6-5.3,1.5
							c0,0-4.7-0.7-6.8-4.2c-2.9-4.8-0.2-8.4,0.9-9.9c0.7-0.9,4-2.2,4.1-2.2c1.1-0.3,2.8,0,3.9,0.2c2.6,0.7,5.2,3.9,5.2,4
							C271.6,128.5,271.4,130,271.3,131.4"/>
						<path fill="#FBB66D" d="M270.5,133.3c-0.5,1.3-1.7,2.9-2.9,3.6c-0.2,0.1-4.2,1.1-4.7,1.2c0,0-4.6-1-6.3-3.7
							c-2.9-4.7-0.2-8.2,0.8-9.6c0.1-0.1,3.5-1.9,3.7-1.9c1.2-0.2,2.8,0,4,0.3C267.5,123.8,272.5,128.4,270.5,133.3"/>
						<path fill="#FCB871" d="M269.8,133.4c-0.4,1-1.4,2.3-2.3,2.9c-0.2,0.1-4.5,1.4-4.6,1.4c-0.3,0-4.9-2.3-4.9-2.4
							c-0.9-0.8-1.4-2.4-1.9-3.6c-1-2.4,0.6-5.4,1.4-6.1c0.7-0.6,3.2-2.1,3.8-2.2c1.2-0.3,2.9,0.1,4,0.4c0.4,0.1,3.7,2.9,3.7,2.9
							c0.4,0.9,1.2,2.1,1.3,3.2C270.4,130.9,270.2,132.4,269.8,133.4"/>
						<path fill="#FCBA75" d="M269.2,133.5c-0.3,0.7-1,1.7-1.7,2.1c-1.3,0.7-3.2,1.8-4.6,1.5c-1.6-0.3-3.7-1.3-4.9-2.4
							c-0.8-0.7-1.6-3.6-1.7-3.7c0,0,0-3.8,1.2-4.7c1-0.7,3.3-2.3,3.8-2.4c1.2-0.3,3,0.1,4.1,0.6c1,0.5,2.2,1.4,2.9,2.3
							c0.6,0.8,1,2.2,1.4,3.1C270.1,130.9,269.6,132.5,269.2,133.5"/>
						<path fill="#FCBC78" d="M268.5,133.5c-0.2,0.5-0.7,1.2-1.2,1.4c-1.3,0.7-3.2,1.9-4.6,1.6c-1.5-0.3-3.3-1.2-4.4-2.2
							c-0.9-0.8-1.6-3.3-1.6-3.3c0,0,0-2.8,0.8-3.9c0.8-1.1,2.5-2.4,3.8-2.6c1.3-0.3,3,0.3,4.2,0.8c0.7,0.3,1.6,1.1,2.1,1.7
							c0.6,0.8,1.3,2.1,1.4,3.1C269.3,131.1,269,132.6,268.5,133.5"/>
						<path fill="#FCBE7C" d="M267.9,133.6c-0.1,0.3-0.3,0.6-0.6,0.7c-1.3,0.6-3.1,1.7-4.5,1.7c-1.2-0.1-2.5-1-3.4-1.7
							c-0.6-0.4-1.1-1.3-1.5-1.9c-1.3-2.3,0-4.7,0-4.7c0.8-1.1,2.4-2.4,3.7-2.7c1.3-0.3,3,0.5,4.3,0.9c0.5,0.2,1,0.6,1.3,1
							c0.6,0.8,1.4,2.1,1.5,3.1C268.7,131.2,268.3,132.7,267.9,133.6"/>
						<path fill="#FCBF7F" d="M267.2,133.7c-0.9,1.1-3.1,1.8-4.5,1.8c-0.8,0-1.8-0.7-2.5-1.2c-0.9-0.8-1.9-2.1-2.5-3.1
							c-0.2-0.5,1-3.5,1-3.5c0.6-0.8,1.8-1.8,2.8-2c1.3-0.3,3.1,0.7,4.4,1.1c0.2,0.1,0.4,0.2,0.5,0.4c0.6,0.9,1.4,2.1,1.5,3.1
							C268.1,131.3,267.7,132.7,267.2,133.7"/>
						<path fill="#FDC182" d="M267,132.2c-1.2,2.2-4.3,2.7-4.3,2.7c-0.5,0-1.1-0.4-1.5-0.7c-0.9-0.9-2.4-2-2.6-3.2
							c-0.2-1.1,0.6-2.4,1.2-3.3c0.4-0.6,1.2-1.2,1.9-1.4c1.1-0.2,2.6,0.6,3.7,1c0.3,0.1,0.6,0.5,0.9,0.7
							C267.1,128.9,267.6,131.1,267,132.2"/>
						<path fill="#FDC385" d="M266.7,130.7c-0.6,1.2-2.2,2.4-3.2,3.3c-0.2,0.2-0.6,0.4-0.9,0.3c-0.7,0-3.1-3.4-3.1-3.5
							c-0.2-1.1,0.8-2.4,1.3-3.4c0.2-0.3,0.6-0.6,1-0.7c0.6-0.1,1.4,0.1,1.9,0.5c0.9,0.7,2.1,1.7,2.9,2.5
							C266.8,130.1,266.8,130.5,266.7,130.7"/>
						<path fill="#FDC488" d="M262.5,133.4c-1-0.1-2-1.6-2.1-2.6c0,0,1.4-3.4,1.5-3.4c0,0,0.1,0,0.1,0c1.1,0.9,3.5,1.6,3.5,3
							C265.6,131.7,263.8,133.5,262.5,133.4"/>
						<path fill="#FDC68B" d="M262.4,132.1c-0.5,0-1-0.8-1.1-1.3c-0.1-0.6,0.2-1.7,0.8-1.8c0.7-0.2,1.9,0.9,1.9,1.6
							C264,131.3,263.1,132.2,262.4,132.1"/>
						<path fill="#FDC78E" d="M262.3,130.9c0,0-0.1-0.1-0.1-0.1c0,0,0-0.1,0.1-0.1c0.1,0,0.1,0.1,0.1,0.1
							C262.4,130.8,262.3,130.9,262.3,130.9"/>
					</g>
				</g>
			</g>
		</g>
	</g>
</g>
<g id="Layer_3">
	<path fill="none" d="M218.8,147.4c11.3,4.2,39.6,24,87.1,0"/>
	<text transform="matrix(1.7197 0.7801 -0.4131 0.9107 218.6522 147.2979)" font-family="'ArialMT'" font-size="17.0838">s</text>
	<text transform="matrix(1.8022 0.5637 -0.2985 0.9544 234.2509 154.1904)" font-family="'ArialMT'" font-size="17.0838">t</text>
	<text transform="matrix(1.8766 0.21 -0.1112 0.9938 244.1898 157.6201)" font-family="'ArialMT'" font-size="17.0838">o</text>
	<text transform="matrix(1.8801 -0.1763 9.337171e-02 0.9956 263.6371 159.2393)" font-family="'ArialMT'" font-size="17.0838">r</text>
	<text transform="matrix(1.8254 -0.4835 0.256 0.9667 275.6327 158.1944)" font-family="'ArialMT'" font-size="17.0838">y</text>
</g>
</svg>
