<?xml version="1.0" encoding="utf-8"?>
<!-- Generator: Adobe Illustrator 19.0.1, SVG Export Plug-In . SVG Version: 6.00 Build 0)  -->
<svg version="1.1" id="www_1_" xmlns="http://www.w3.org/2000/svg" xmlns:xlink="http://www.w3.org/1999/xlink" x="0px" y="0px"
	 viewBox="0 0 600 400" enable-background="new 0 0 600 400" xml:space="preserve">
<path d="M159.9,302.7c0.2-0.2,0.3-0.3,0.5-0.4C160.3,302.4,160.1,302.5,159.9,302.7z M160.6,302.2c0.2-0.1,0.4-0.2,0.5-0.3
	C160.9,302,160.7,302.1,160.6,302.2z M164.2,301.2c0.3,0,0.5,0,0.8,0.1C164.7,301.3,164.5,301.3,164.2,301.2z M162.1,301.5
	c0.3-0.1,0.6-0.2,0.9-0.2C162.6,301.4,162.3,301.4,162.1,301.5z M165.4,301.3c0.4,0.1,0.8,0.1,1.2,0.2
	C166.2,301.5,165.8,301.4,165.4,301.3z M163,301.3c0.3,0,0.6-0.1,0.9-0.1C163.6,301.3,163.3,301.3,163,301.3z M174.9,304.6
	C174.9,304.6,174.9,304.6,174.9,304.6C174.9,304.6,174.9,304.6,174.9,304.6C174.9,304.6,174.9,304.6,174.9,304.6z M161.9,301.6
	c-0.2,0.1-0.4,0.1-0.6,0.2C161.5,301.7,161.7,301.6,161.9,301.6z M158.4,304.9c0,0.1,0,0.1-0.1,0.2C158.4,305,158.4,305,158.4,304.9
	z M158.5,304.7c0-0.1,0.1-0.2,0.1-0.3C158.6,304.5,158.5,304.6,158.5,304.7z M159.5,303.1c0.1-0.1,0.2-0.2,0.3-0.4
	C159.7,302.9,159.6,303,159.5,303.1z M175.4,305.6L175.4,305.6z M159.4,303.3c-0.1,0.1-0.2,0.2-0.3,0.4
	C159.2,303.5,159.3,303.4,159.4,303.3z M159,303.8c-0.1,0.2-0.2,0.3-0.3,0.5C158.8,304.1,158.9,303.9,159,303.8z M158.3,305.3
	c-0.2,0.5-0.2,0.9-0.2,0.9S158.1,305.9,158.3,305.3z M174.9,304.6c0.2,0.3,0.4,0.6,0.5,0.9C175.2,305.3,175,305,174.9,304.6z
	 M175.8,306.3c-0.1-0.2-0.2-0.5-0.4-0.8C175.5,305.8,175.6,306.1,175.8,306.3z M158.1,306.2c0.1,0.3,0.2,0.7,0.3,1
	C158.2,306.9,158.1,306.6,158.1,306.2z M174.9,304.6c-0.3-0.6-0.7-1.2-1.1-1.9C174.2,303.4,174.5,304.1,174.9,304.6z M159.4,303.3
	c0-0.1,0.1-0.1,0.1-0.1C159.4,303.2,159.4,303.2,159.4,303.3z M159.8,302.8c0,0,0.1-0.1,0.1-0.1
	C159.9,302.7,159.9,302.7,159.8,302.8z M161.1,301.9c0.1,0,0.1-0.1,0.2-0.1C161.2,301.8,161.1,301.9,161.1,301.9z M160.5,302.2
	C160.5,302.2,160.5,302.2,160.5,302.2C160.5,302.2,160.5,302.2,160.5,302.2z M158.3,305.3L158.3,305.3c0-0.1,0.1-0.2,0.1-0.3
	C158.3,305.2,158.3,305.3,158.3,305.3z M158.5,304.7c0,0.1-0.1,0.2-0.1,0.2C158.4,304.8,158.5,304.8,158.5,304.7z M158.6,304.4
	c0-0.1,0.1-0.1,0.1-0.2C158.7,304.3,158.7,304.4,158.6,304.4z M159,303.8c0,0,0.1-0.1,0.1-0.1C159.1,303.7,159,303.7,159,303.8z
	 M163.9,301.2c0.1,0,0.2,0,0.3,0C164.1,301.2,164,301.2,163.9,301.2z M165,301.3c0.1,0,0.2,0,0.3,0
	C165.2,301.3,165.1,301.3,165,301.3z M162.9,301.3C162.9,301.3,163,301.3,162.9,301.3C163,301.3,162.9,301.3,162.9,301.3z
	 M162.1,301.5c-0.1,0-0.1,0-0.2,0.1C161.9,301.5,162,301.5,162.1,301.5z M191,363c-5.3,2.8-25.9,10.9-30.9,5L145.6,351
	c0,0-1.6-3-1.4-6.1c0.2-3.1,1.1-7.9,1.1-7.9s0.6-5.4,5.1-4c0,0-1.7-8.9,5.3-8.9c0,0-4.3-12.9,5.4-12.1c0,0,0,0-0.1-0.1
	c0,0-0.1-0.1-0.1-0.1c0-0.1-0.1-0.1-0.1-0.2c-0.1-0.1-0.1-0.2-0.2-0.3c0-0.1-0.1-0.1-0.2-0.2c-0.1-0.1-0.2-0.2-0.3-0.4
	c0-0.1-0.1-0.2-0.2-0.2c-0.1-0.2-0.2-0.3-0.3-0.5c-0.1-0.1-0.1-0.2-0.2-0.3c-0.1-0.2-0.2-0.4-0.3-0.6c-0.1-0.1-0.1-0.2-0.2-0.3
	c-0.1-0.2-0.2-0.4-0.3-0.6c-0.1-0.1-0.1-0.2-0.1-0.3c-0.2-0.5-0.4-1.1-0.6-1.7c0,0,0.1-0.7,0.5-1.5c0,0,0,0,0,0c0,0,0-0.1,0-0.1
	c0.1-0.3,0.3-0.6,0.5-0.9l0,0c0,0,0.1-0.1,0.1-0.1c0.2-0.3,0.4-0.6,0.7-0.8c0.1-0.1,0.2-0.2,0.3-0.3c0.3-0.2,0.5-0.4,0.8-0.5l0,0
	c0.1,0,0.1-0.1,0.2-0.1h0c0.2-0.1,0.4-0.2,0.6-0.2c0,0,0,0,0,0c0.1,0,0.1,0,0.2-0.1l0,0c0.2,0,0.3-0.1,0.5-0.1
	c0.5-0.1,1-0.2,1.6-0.1c0.3,0,0.5,0,0.8,0.1l0,0c0.1,0,0.2,0,0.3,0c0,0,0,0,0,0c0.4,0.1,0.8,0.1,1.2,0.2c0,0,3.1-5.9,7.2,1.1
	c0.4,0.8,0.8,1.4,1.1,1.9l0,0v0c0.6,1,0.9,1.7,1.2,2.2c0,0,0,0,0,0.1c0.3,0.7,0.5,1.1,0.6,1.4c0,0.1,0.1,0.1,0.1,0.2
	c0,0,0,0.1,0,0.1c0,0.1,0.1,0.1,0.1,0.2c0,0,0,0.1,0,0.1c0.1,0.1,0.1,0.2,0.2,0.3c4.6,4,7.6,6.4,8.2,7.4c0.6,1.1,2.8,5.6,3.6,7.3
	c0.8,1.7,4.3,8.7,4.7,9.2c0.3,0.5,4.4,6.5,4.8,8.1c0.5,1.6,0.9,8.5,0.9,10C199.2,352.4,196.3,360.2,191,363z M200.1,340.5
	c-0.5-1.6-3.4-6.1-5-8.6c-0.4-0.6-3.8-7.2-4.5-8.9c-0.8-1.7-3-6.3-3.6-7.5c-0.5-1-1.9-2.1-5.1-4.9c-0.9-0.8-2-1.7-3.2-2.8
	c-0.1-0.2-0.2-0.4-0.3-0.6c-0.3-0.8-0.8-1.9-2.9-5.6c-1.7-2.9-3.5-4.3-5.6-4.3c-1.9,0-3.2,1.2-4,2.1c-0.6-0.1-1.2-0.1-1.8-0.1
	c-5.5,0-7.5,4.3-7.8,6.6l0,0.3l0.1,0.3c0.3,1.4,0.9,2.7,1.6,3.8c-1.7,0.5-2.8,1.5-3.4,2.4c-2.1,2.9-1.6,7.2-1,9.8
	c-1.5,0.4-2.5,1.3-3.1,2c-1.6,1.9-1.9,4.4-1.8,6.3c-3.3,0.4-4.7,3.9-4.9,5.8c-0.1,0.6-1,5.1-1.1,8.1c-0.2,3.6,1.5,6.9,1.6,7l0.1,0.2
	l14.6,17.1c1.6,1.8,4.2,2.8,7.8,2.8l0,0c8.8,0,21.7-5.4,25.4-7.3c5.9-3.1,9.2-11.5,9.2-13.6C201.1,349.9,200.7,342.4,200.1,340.5z
	 M167.9,303c0,0,0.7,0,1.6,0.3c0.4,0.2,1,0.4,1.5,0.6c0.2,0.2,0.5,0.3,0.8,0.5c0.2,0.2,0.5,0.4,0.7,0.5c0.5,0.4,1,0.8,1.3,1.3
	c0.4,0.5,0.7,0.9,0.9,1.3c0.5,0.8,0.7,1.5,0.7,1.5l-0.1,0.1c0,0-0.4-0.4-1.1-1c-0.3-0.3-0.7-0.7-1.1-1c-0.4-0.4-0.9-0.7-1.4-1.1
	c-0.5-0.4-0.9-0.8-1.4-1.1c-0.4-0.3-0.9-0.6-1.2-0.9c-0.7-0.5-1.2-0.9-1.2-0.9L167.9,303z M217.9,219.7l-0.3-0.5l-0.5-0.2
	c-0.1,0-1.1-0.4-2.2-0.5c0.1-5,0.1-16.3-1.7-20.8c-2.2-5.6-6.2-12.3-8.6-15.6c-2.6-3.5-13.9-14.6-18.3-17
	c-4.2-2.2-13.7-4.9-17.5-4.9c-0.2,0-0.4,0-0.6,0c-0.3,0-0.7,0-1.1,0.1c-3.5,0.2-10,0.4-22.4,7.3c-0.4,0.2-9.4,5.3-14.9,12.7
	c-1.7,2.4-7.3,10.5-8,12.2c-0.7,1.8-1.7,4.3-2,22.4v1.7c-0.7,0.2-1.5,0.6-2.2,1.4c-1.3,1.4-1.9,3.3-1.7,5.9
	c0.3,5.9,1.6,16.8,2.1,18.9l0.1,0.2l0.1,0.2c0,0,1.7,3.2,2.4,8c0,0.2,0.4,2.2,2.1,4.7c1.2,2.1,2.4,3.6,3.7,4.4
	c0.2,2.6,1,9.3,3.9,14.5c1.9,3.4,3.5,6.9,5.1,10.4c1.2,2.6,2.3,5.1,3.5,7.2c2.8,5.2,14.3,12.8,17,14c0.2,0.1,0.3,0.1,0.5,0.2
	l-0.1-0.3l0-0.3c0.1-0.4,0.2-0.8,0.3-1.3c-2.5-1.2-13.7-8.5-16.2-13.2c-2.5-4.7-5.1-11.3-8.5-17.6c-3.4-6.2-3.7-14.8-3.7-14.8
	c-1.5-0.7-2.9-2.5-3.9-4.3c-1.6-2.3-1.9-4.1-1.9-4.1c-0.8-5.1-2.6-8.6-2.6-8.6c-0.5-1.9-1.7-12.6-2-18.5c-0.3-5.9,3.9-5.6,3.9-5.6
	v-3.3c0.3-17.4,1.2-20.1,1.9-21.8c0.6-1.7,7.8-11.8,7.8-11.8c5.3-7.2,14.3-12.1,14.3-12.1c13.4-7.5,19.4-6.9,22.7-7.2
	c3.3-0.2,13.1,2.5,17.1,4.7c4,2.2,15.2,13.2,17.7,16.5c2.5,3.3,6.2,9.9,8.4,15.2c2.2,5.3,1.6,22.4,1.6,22.4c1.2-0.9,3.4,0,3.4,0
	c2.5,3.7,1.6,6.2,1.6,6.2c-2.2,6.8-1.6,11.2-1.6,11.2c-1.2,9.9-3.4,16.2-3.4,16.2c-2.5,6.2-4,3.4-4,3.4c-0.3,13.7-4.8,22.4-4.8,22.4
	c-9.4,21.2-24.8,22.9-27.4,23.9c0.4,0.7,0.7,1.2,0.9,1.7c0.2-0.1,0.6-0.2,0.9-0.2c4.6-1.2,18.6-4.9,27.3-24.5
	c0.2-0.3,4.2-8.2,4.9-20.8c1.9-0.5,3.1-3,4-5.2c0.1-0.3,2.3-6.5,3.5-16.5l0-0.2l0-0.2c0,0-0.5-4.1,1.5-10.3
	C219.8,227.3,220.8,224.1,217.9,219.7z M153.2,277.5c0,0,7.5,1.8,17.4,1.1c9.9-0.6,15.2-4.5,17.4-5.9c0,0-4.5,6.4-16.9,7.5
	C160.2,281.1,153.2,277.5,153.2,277.5z M160.2,261.7c0.1,0.3,0.5,0.6,0.6,0.6c0,0,0.2,0.1,0.3,0.1l0.1,0c0,0,0.1,0-0.1,0h0l0,0
	l0.3,0.1c0.3,0.1,0.6,0.1,0.8,0.2c1.1,0.4,2.1,1,3.1,1.8c0.5,0.4,1,0.8,1.5,1.3c0.2,0.2,0.4,0.5,0.7,0.7c0.1,0.1,0.3,0.2,0.5,0.3
	c0.9,0.4,2.2,0.4,3.5,0.3c0.6-0.1,1.3-0.2,1.9-0.3c0.5-0.1,1-0.5,1.5-0.9c0.5-0.4,1.1-0.9,1.6-1.3c0.6-0.4,1.1-0.9,1.7-1.4l0.9-0.6
	c0,0,0.2-0.2,0.3-0.5c0.2-0.5,0.3-1.2,0.3-1.7c0.1-1.2-0.3-2.4-1-3.1c-0.4-0.4-1-0.8-1.3-1.2c-0.3-0.5-0.6-1-0.9-1.4
	c-1-1.9-1.4-3.6-1.7-4.8c-0.3-1.2-0.5-1.9-0.5-1.9l0.2,0c0,0,0.2,0.7,0.6,1.8c0.4,1.1,1,2.8,2,4.6c0.3,0.4,0.6,0.9,0.9,1.3
	c0.3,0.4,0.8,0.7,1.3,1c1.1,1,1.5,2.4,1.5,3.8c0,0.7-0.1,1.4-0.3,2.2c-0.2,0.4-0.2,0.8-0.8,1.2l-0.8,0.6c-0.5,0.4-1,0.9-1.5,1.3
	c-0.5,0.5-1,0.9-1.6,1.4c-0.6,0.4-1.1,1-2,1.3c-0.7,0.3-1.4,0.4-2.2,0.5c-1.4,0.2-2.9,0.3-4.5-0.2c-0.4-0.2-0.8-0.4-1.2-0.7
	c-0.3-0.3-0.4-0.5-0.7-0.7c-0.4-0.4-0.8-0.8-1.2-1.2c-0.8-0.8-1.7-1.4-2.5-1.8c-0.2-0.1-0.4-0.2-0.6-0.3l-0.4-0.2
	c-0.1-0.1-0.2-0.1-0.4-0.2c-0.7-0.4-0.9-0.9-1.1-1.4c-0.3-0.9-0.3-1.7-0.2-2.4c0.1-0.6,0.3-1.1,0.5-1.4c0.2-0.3,0.3-0.4,0.3-0.4
	l0.1,0.1c0,0-0.1,0.1-0.2,0.4c-0.1,0.3-0.1,0.8-0.1,1.3C159.8,260.3,159.9,261,160.2,261.7z M196.8,248.5c-1.8,2.2-4.7,3.4-8.4,3.6
	c-0.1,0-4.6,0.4-8-2.5c-2.2-1.8-3.4-4.7-3.7-8.2V239c0.3-1.1,2.7-8.8,11.8-8.7c9.4,0.1,10.8,7.7,10.9,8.1
	C199.4,238.6,200.1,244.5,196.8,248.5z M150.8,252.1C150.8,252.1,150.8,252.1,150.8,252.1c-9.7,0-11.4-7.9-11.7-11.4
	c0.2-1.1,1.9-10.4,12-10.4c0,0,0.1,0,0.1,0c10,0.1,11.3,8.2,11.4,9C162.5,240.4,161.4,252,150.8,252.1z M210.6,224.3l-9.1,12.3
	c-1-2.8-4-8.7-13-8.8c-0.1,0-0.2,0-0.3,0c-8.1,0-11.8,5.4-13.2,8.6c-1.1-1.1-2.8-2.1-5.2-2c-2.3,0.1-4.1,1.2-5.4,2.3
	c-1.1-3.3-4.3-8.9-13.2-8.9c-10.1-0.1-13.3,7.8-14.3,11.2l-13.2-18.6l-0.6,0.4l12.8,21.1h0.9c0.5,4.1,3,12.7,14.1,12.7h0
	c12.1,0,14-12.5,14.2-14.9c0.5-0.7,2.4-2.7,4.9-2.8c2.4-0.1,3.9,1.7,4.3,2.4l0,2.2c0.4,4.4,1.9,7.8,4.7,10.1
	c3.3,2.8,7.3,3.1,8.9,3.1c0.4,0,0.7,0,0.8,0c4.4-0.2,7.8-1.7,10.1-4.4c2.9-3.5,3.3-8.1,3.3-10.5l0.6,0.1l8.6-15.2L210.6,224.3z"/>
<path fill="none" stroke="#000000" stroke-miterlimit="10" d="M437.5,49.5H193c-6.6,0-12.5,5.4-12.5,12v72c0,6.6,5.9,12,12.5,12h96
	l-45.5,61.9c0,0,7-5.4,79.5-51.4l14-10.5h100.5c6.6,0,12-5.4,12-12v-72C449.5,54.9,444.1,49.5,437.5,49.5z"/>
<g>
	<path d="M198,80.5V69h1.5v11.5H198z"/>
	<path d="M211.9,79.5c-0.5,0.4-1,0.8-1.5,0.9c-0.5,0.2-1,0.3-1.6,0.3c-0.9,0-1.6-0.2-2.1-0.7c-0.5-0.4-0.7-1-0.7-1.7
		c0-0.4,0.1-0.8,0.3-1.1c0.2-0.3,0.4-0.6,0.7-0.8c0.3-0.2,0.6-0.4,1-0.5c0.3-0.1,0.7-0.1,1.2-0.2c1.1-0.1,2-0.3,2.5-0.5
		c0-0.2,0-0.3,0-0.4c0-0.6-0.1-1-0.4-1.2c-0.4-0.3-0.9-0.5-1.6-0.5c-0.7,0-1.1,0.1-1.5,0.3c-0.3,0.2-0.5,0.6-0.7,1.2l-1.4-0.2
		c0.1-0.6,0.3-1.1,0.6-1.4c0.3-0.4,0.7-0.6,1.2-0.8c0.5-0.2,1.2-0.3,1.9-0.3c0.7,0,1.3,0.1,1.7,0.2c0.4,0.2,0.8,0.4,1,0.6
		c0.2,0.3,0.4,0.6,0.4,1c0,0.2,0.1,0.7,0.1,1.3V77c0,1.3,0,2.1,0.1,2.5c0.1,0.3,0.2,0.7,0.4,1h-1.5C212,80.2,211.9,79.9,211.9,79.5z
		 M211.7,76.3c-0.5,0.2-1.3,0.4-2.3,0.5c-0.6,0.1-1,0.2-1.2,0.3c-0.2,0.1-0.4,0.3-0.6,0.5c-0.1,0.2-0.2,0.4-0.2,0.7
		c0,0.4,0.1,0.7,0.4,0.9c0.3,0.2,0.7,0.4,1.2,0.4c0.5,0,1-0.1,1.4-0.4s0.7-0.6,0.9-1c0.2-0.3,0.2-0.8,0.2-1.4V76.3z"/>
	<path d="M215.3,80.5V69h1.4v11.5H215.3z"/>
	<path d="M218.9,80.5v-8.3h1.3v1.3c0.3-0.6,0.6-1,0.9-1.2s0.6-0.3,0.9-0.3c0.5,0,1,0.2,1.4,0.5l-0.5,1.3c-0.3-0.2-0.7-0.3-1-0.3
		c-0.3,0-0.6,0.1-0.8,0.3c-0.2,0.2-0.4,0.4-0.5,0.8c-0.2,0.5-0.2,1-0.2,1.6v4.3H218.9z"/>
	<path d="M229.9,77.8l1.5,0.2c-0.2,0.8-0.7,1.5-1.3,2c-0.6,0.5-1.4,0.7-2.4,0.7c-1.2,0-2.2-0.4-2.9-1.1s-1.1-1.8-1.1-3.1
		c0-1.4,0.4-2.5,1.1-3.2s1.7-1.2,2.8-1.2c1.1,0,2,0.4,2.7,1.1s1.1,1.8,1.1,3.2c0,0.1,0,0.2,0,0.4h-6.2c0.1,0.9,0.3,1.6,0.8,2.1
		c0.5,0.5,1,0.7,1.7,0.7c0.5,0,1-0.1,1.3-0.4C229.4,78.9,229.7,78.4,229.9,77.8z M225.3,75.6h4.6c-0.1-0.7-0.2-1.2-0.5-1.6
		c-0.4-0.5-1-0.8-1.7-0.8c-0.6,0-1.2,0.2-1.6,0.6C225.6,74.3,225.3,74.8,225.3,75.6z"/>
	<path d="M238.5,79.5c-0.5,0.4-1,0.8-1.5,0.9c-0.5,0.2-1,0.3-1.6,0.3c-0.9,0-1.6-0.2-2.1-0.7c-0.5-0.4-0.7-1-0.7-1.7
		c0-0.4,0.1-0.8,0.3-1.1c0.2-0.3,0.4-0.6,0.7-0.8c0.3-0.2,0.6-0.4,1-0.5c0.3-0.1,0.7-0.1,1.2-0.2c1.1-0.1,2-0.3,2.5-0.5
		c0-0.2,0-0.3,0-0.4c0-0.6-0.1-1-0.4-1.2c-0.4-0.3-0.9-0.5-1.6-0.5c-0.7,0-1.1,0.1-1.5,0.3c-0.3,0.2-0.5,0.6-0.7,1.2l-1.4-0.2
		c0.1-0.6,0.3-1.1,0.6-1.4c0.3-0.4,0.7-0.6,1.2-0.8c0.5-0.2,1.2-0.3,1.9-0.3c0.7,0,1.3,0.1,1.7,0.2c0.4,0.2,0.8,0.4,1,0.6
		c0.2,0.3,0.4,0.6,0.4,1c0,0.2,0.1,0.7,0.1,1.3V77c0,1.3,0,2.1,0.1,2.5c0.1,0.3,0.2,0.7,0.4,1h-1.5
		C238.7,80.2,238.6,79.9,238.5,79.5z M238.4,76.3c-0.5,0.2-1.3,0.4-2.3,0.5c-0.6,0.1-1,0.2-1.2,0.3c-0.2,0.1-0.4,0.3-0.6,0.5
		c-0.1,0.2-0.2,0.4-0.2,0.7c0,0.4,0.1,0.7,0.4,0.9c0.3,0.2,0.7,0.4,1.2,0.4c0.5,0,1-0.1,1.4-0.4s0.7-0.6,0.9-1
		c0.2-0.3,0.2-0.8,0.2-1.4V76.3z"/>
	<path d="M247.4,80.5v-1c-0.5,0.8-1.3,1.2-2.3,1.2c-0.7,0-1.3-0.2-1.8-0.5s-1-0.9-1.3-1.5s-0.5-1.4-0.5-2.3c0-0.8,0.1-1.6,0.4-2.3
		c0.3-0.7,0.7-1.2,1.2-1.6c0.6-0.4,1.2-0.5,1.9-0.5c0.5,0,0.9,0.1,1.3,0.3s0.7,0.5,1,0.8V69h1.4v11.5H247.4z M243,76.4
		c0,1.1,0.2,1.9,0.7,2.4c0.4,0.5,1,0.8,1.6,0.8c0.6,0,1.1-0.3,1.6-0.8s0.6-1.3,0.6-2.3c0-1.1-0.2-2-0.7-2.5s-1-0.8-1.6-0.8
		c-0.6,0-1.1,0.3-1.6,0.8C243.2,74.5,243,75.3,243,76.4z"/>
	<path d="M250.9,83.7l-0.2-1.3c0.3,0.1,0.6,0.1,0.8,0.1c0.3,0,0.6-0.1,0.8-0.2s0.3-0.2,0.5-0.4c0.1-0.1,0.2-0.5,0.4-1
		c0-0.1,0.1-0.2,0.1-0.3l-3.1-8.3h1.5l1.7,4.8c0.2,0.6,0.4,1.2,0.6,1.9c0.2-0.6,0.4-1.3,0.6-1.9l1.8-4.8h1.4l-3.2,8.4
		c-0.3,0.9-0.6,1.5-0.8,1.9c-0.2,0.5-0.5,0.8-0.9,1c-0.3,0.2-0.7,0.3-1.2,0.3C251.5,83.9,251.2,83.8,250.9,83.7z"/>
	<path d="M263.4,80.5V69h1.4v6.5l3.3-3.4h1.8l-3.2,3.1l3.5,5.2h-1.7l-2.7-4.2l-1,1v3.3H263.4z"/>
	<path d="M271.4,80.5v-8.3h1.3v1.2c0.6-0.9,1.5-1.4,2.6-1.4c0.5,0,1,0.1,1.4,0.3c0.4,0.2,0.7,0.4,0.9,0.7c0.2,0.3,0.4,0.6,0.4,1
		c0.1,0.3,0.1,0.7,0.1,1.4v5.1h-1.4v-5c0-0.6-0.1-1-0.2-1.3s-0.3-0.5-0.6-0.7c-0.3-0.2-0.6-0.3-1-0.3c-0.6,0-1.1,0.2-1.6,0.6
		c-0.4,0.4-0.7,1.1-0.7,2.2v4.5H271.4z"/>
	<path d="M279.7,76.4c0-1.5,0.4-2.7,1.3-3.4c0.7-0.6,1.6-0.9,2.6-0.9c1.1,0,2.1,0.4,2.8,1.1c0.7,0.7,1.1,1.8,1.1,3.1
		c0,1.1-0.2,1.9-0.5,2.5s-0.8,1.1-1.4,1.4c-0.6,0.3-1.3,0.5-2,0.5c-1.2,0-2.1-0.4-2.8-1.1C280.1,78.8,279.7,77.8,279.7,76.4z
		 M281.2,76.4c0,1.1,0.2,1.9,0.7,2.4c0.5,0.5,1,0.8,1.8,0.8c0.7,0,1.3-0.3,1.7-0.8c0.5-0.5,0.7-1.3,0.7-2.4c0-1-0.2-1.8-0.7-2.3
		c-0.5-0.5-1-0.8-1.7-0.8c-0.7,0-1.3,0.3-1.8,0.8C281.4,74.5,281.2,75.3,281.2,76.4z"/>
	<path d="M290.7,80.5l-2.5-8.3h1.5l1.3,4.8l0.5,1.8c0-0.1,0.2-0.7,0.4-1.7l1.3-4.9h1.4l1.2,4.8l0.4,1.6l0.5-1.6l1.4-4.8h1.4
		l-2.6,8.3h-1.5l-1.3-5l-0.3-1.4l-1.7,6.4H290.7z"/>
	<path d="M306.7,80.5l-2.5-8.3h1.5l1.3,4.8l0.5,1.8c0-0.1,0.2-0.7,0.4-1.7l1.3-4.9h1.4l1.2,4.8l0.4,1.6l0.5-1.6l1.4-4.8h1.4
		l-2.6,8.3h-1.5l-1.3-5l-0.3-1.4l-1.7,6.4H306.7z"/>
	<path d="M316.7,80.5V69h1.4v4.1c0.7-0.8,1.5-1.1,2.5-1.1c0.6,0,1.1,0.1,1.6,0.4s0.8,0.6,1,1s0.3,1,0.3,1.9v5.3h-1.4v-5.3
		c0-0.7-0.2-1.2-0.5-1.5s-0.7-0.5-1.3-0.5c-0.4,0-0.8,0.1-1.2,0.3s-0.6,0.5-0.8,0.9s-0.2,0.9-0.2,1.5v4.5H316.7z"/>
	<path d="M331,79.5c-0.5,0.4-1,0.8-1.5,0.9c-0.5,0.2-1,0.3-1.6,0.3c-0.9,0-1.6-0.2-2.1-0.7c-0.5-0.4-0.7-1-0.7-1.7
		c0-0.4,0.1-0.8,0.3-1.1c0.2-0.3,0.4-0.6,0.7-0.8c0.3-0.2,0.6-0.4,1-0.5c0.3-0.1,0.7-0.1,1.2-0.2c1.1-0.1,2-0.3,2.5-0.5
		c0-0.2,0-0.3,0-0.4c0-0.6-0.1-1-0.4-1.2c-0.4-0.3-0.9-0.5-1.6-0.5c-0.7,0-1.1,0.1-1.5,0.3c-0.3,0.2-0.5,0.6-0.7,1.2l-1.4-0.2
		c0.1-0.6,0.3-1.1,0.6-1.4c0.3-0.4,0.7-0.6,1.2-0.8c0.5-0.2,1.2-0.3,1.9-0.3c0.7,0,1.3,0.1,1.7,0.2c0.4,0.2,0.8,0.4,1,0.6
		c0.2,0.3,0.4,0.6,0.4,1c0,0.2,0.1,0.7,0.1,1.3V77c0,1.3,0,2.1,0.1,2.5c0.1,0.3,0.2,0.7,0.4,1h-1.5C331.2,80.2,331.1,79.9,331,79.5z
		 M330.9,76.3c-0.5,0.2-1.3,0.4-2.3,0.5c-0.6,0.1-1,0.2-1.2,0.3c-0.2,0.1-0.4,0.3-0.6,0.5c-0.1,0.2-0.2,0.4-0.2,0.7
		c0,0.4,0.1,0.7,0.4,0.9c0.3,0.2,0.7,0.4,1.2,0.4c0.5,0,1-0.1,1.4-0.4s0.7-0.6,0.9-1c0.2-0.3,0.2-0.8,0.2-1.4V76.3z"/>
	<path d="M337.6,79.2l0.2,1.2c-0.4,0.1-0.8,0.1-1.1,0.1c-0.5,0-0.9-0.1-1.2-0.2s-0.5-0.4-0.6-0.6c-0.1-0.3-0.2-0.8-0.2-1.7v-4.8h-1
		v-1.1h1v-2.1l1.4-0.8v2.9h1.4v1.1h-1.4v4.9c0,0.4,0,0.7,0.1,0.8c0,0.1,0.1,0.2,0.2,0.3c0.1,0.1,0.3,0.1,0.5,0.1
		C337.1,79.3,337.3,79.3,337.6,79.2z"/>
	<path d="M346.5,79.2l0.2,1.2c-0.4,0.1-0.8,0.1-1.1,0.1c-0.5,0-0.9-0.1-1.2-0.2s-0.5-0.4-0.6-0.6c-0.1-0.3-0.2-0.8-0.2-1.7v-4.8h-1
		v-1.1h1v-2.1l1.4-0.8v2.9h1.4v1.1h-1.4v4.9c0,0.4,0,0.7,0.1,0.8c0,0.1,0.1,0.2,0.2,0.3c0.1,0.1,0.3,0.1,0.5,0.1
		C346,79.3,346.2,79.3,346.5,79.2z"/>
	<path d="M347.9,80.5V69h1.4v4.1c0.7-0.8,1.5-1.1,2.5-1.1c0.6,0,1.1,0.1,1.6,0.4s0.8,0.6,1,1s0.3,1,0.3,1.9v5.3h-1.4v-5.3
		c0-0.7-0.2-1.2-0.5-1.5s-0.7-0.5-1.3-0.5c-0.4,0-0.8,0.1-1.2,0.3s-0.6,0.5-0.8,0.9s-0.2,0.9-0.2,1.5v4.5H347.9z"/>
	<path d="M362.4,77.8l1.5,0.2c-0.2,0.8-0.7,1.5-1.3,2c-0.6,0.5-1.4,0.7-2.4,0.7c-1.2,0-2.2-0.4-2.9-1.1s-1.1-1.8-1.1-3.1
		c0-1.4,0.4-2.5,1.1-3.2s1.7-1.2,2.8-1.2c1.1,0,2,0.4,2.7,1.1s1.1,1.8,1.1,3.2c0,0.1,0,0.2,0,0.4h-6.2c0.1,0.9,0.3,1.6,0.8,2.1
		c0.5,0.5,1,0.7,1.7,0.7c0.5,0,1-0.1,1.3-0.4C361.9,78.9,362.2,78.4,362.4,77.8z M357.8,75.6h4.6c-0.1-0.7-0.2-1.2-0.5-1.6
		c-0.4-0.5-1-0.8-1.7-0.8c-0.6,0-1.2,0.2-1.6,0.6C358.1,74.3,357.9,74.8,357.8,75.6z"/>
	<path d="M370.4,80.5v-7.2h-1.2v-1.1h1.2v-0.9c0-0.6,0-1,0.1-1.2c0.1-0.4,0.4-0.7,0.7-0.9c0.3-0.2,0.8-0.3,1.4-0.3
		c0.4,0,0.8,0,1.3,0.1l-0.2,1.2c-0.3-0.1-0.6-0.1-0.8-0.1c-0.4,0-0.7,0.1-0.9,0.3c-0.2,0.2-0.3,0.5-0.3,1v0.8h1.6v1.1h-1.6v7.2
		H370.4z"/>
	<path d="M380,80.5v-1.2c-0.6,0.9-1.5,1.4-2.6,1.4c-0.5,0-0.9-0.1-1.4-0.3c-0.4-0.2-0.7-0.4-0.9-0.7c-0.2-0.3-0.4-0.6-0.4-1
		c-0.1-0.3-0.1-0.7-0.1-1.3v-5.1h1.4v4.6c0,0.7,0,1.2,0.1,1.5c0.1,0.4,0.3,0.7,0.6,0.9c0.3,0.2,0.6,0.3,1.1,0.3s0.8-0.1,1.2-0.3
		c0.4-0.2,0.6-0.5,0.8-0.9c0.2-0.4,0.2-0.9,0.2-1.6v-4.4h1.4v8.3H380z"/>
	<path d="M383.4,80.5v-8.3h1.3v1.2c0.6-0.9,1.5-1.4,2.6-1.4c0.5,0,1,0.1,1.4,0.3c0.4,0.2,0.7,0.4,0.9,0.7c0.2,0.3,0.4,0.6,0.4,1
		c0.1,0.3,0.1,0.7,0.1,1.4v5.1h-1.4v-5c0-0.6-0.1-1-0.2-1.3s-0.3-0.5-0.6-0.7c-0.3-0.2-0.6-0.3-1-0.3c-0.6,0-1.1,0.2-1.6,0.6
		c-0.4,0.4-0.7,1.1-0.7,2.2v4.5H383.4z"/>
	<path d="M397.8,77.5l1.4,0.2c-0.2,1-0.5,1.7-1.2,2.2c-0.6,0.5-1.4,0.8-2.3,0.8c-1.1,0-2-0.4-2.7-1.1c-0.7-0.7-1-1.8-1-3.2
		c0-0.9,0.1-1.7,0.4-2.4s0.7-1.2,1.4-1.5c0.6-0.3,1.3-0.5,2-0.5c0.9,0,1.6,0.2,2.2,0.7c0.6,0.5,0.9,1.1,1.1,1.9l-1.4,0.2
		c-0.1-0.6-0.4-1-0.7-1.3c-0.3-0.3-0.7-0.4-1.2-0.4c-0.7,0-1.3,0.3-1.7,0.8c-0.4,0.5-0.7,1.3-0.7,2.4c0,1.1,0.2,1.9,0.6,2.4
		c0.4,0.5,1,0.8,1.7,0.8c0.6,0,1-0.2,1.4-0.5C397.4,78.7,397.7,78.2,397.8,77.5z"/>
	<path d="M403.4,79.2l0.2,1.2c-0.4,0.1-0.8,0.1-1.1,0.1c-0.5,0-0.9-0.1-1.2-0.2s-0.5-0.4-0.6-0.6c-0.1-0.3-0.2-0.8-0.2-1.7v-4.8h-1
		v-1.1h1v-2.1l1.4-0.8v2.9h1.4v1.1H402v4.9c0,0.4,0,0.7,0.1,0.8c0,0.1,0.1,0.2,0.2,0.3c0.1,0.1,0.3,0.1,0.5,0.1
		C402.9,79.3,403.2,79.3,403.4,79.2z"/>
	<path d="M404.8,70.7V69h1.4v1.6H404.8z M404.8,80.5v-8.3h1.4v8.3H404.8z"/>
	<path d="M407.8,76.4c0-1.5,0.4-2.7,1.3-3.4c0.7-0.6,1.6-0.9,2.6-0.9c1.1,0,2.1,0.4,2.8,1.1c0.7,0.7,1.1,1.8,1.1,3.1
		c0,1.1-0.2,1.9-0.5,2.5s-0.8,1.1-1.4,1.4c-0.6,0.3-1.3,0.5-2,0.5c-1.2,0-2.1-0.4-2.8-1.1C408.2,78.8,407.8,77.8,407.8,76.4z
		 M409.3,76.4c0,1.1,0.2,1.9,0.7,2.4c0.5,0.5,1,0.8,1.8,0.8c0.7,0,1.3-0.3,1.7-0.8c0.5-0.5,0.7-1.3,0.7-2.4c0-1-0.2-1.8-0.7-2.3
		c-0.5-0.5-1-0.8-1.7-0.8c-0.7,0-1.3,0.3-1.8,0.8C409.5,74.5,409.3,75.3,409.3,76.4z"/>
	<path d="M417.2,80.5v-8.3h1.3v1.2c0.6-0.9,1.5-1.4,2.6-1.4c0.5,0,1,0.1,1.4,0.3c0.4,0.2,0.7,0.4,0.9,0.7c0.2,0.3,0.4,0.6,0.4,1
		c0.1,0.3,0.1,0.7,0.1,1.4v5.1h-1.4v-5c0-0.6-0.1-1-0.2-1.3s-0.3-0.5-0.6-0.7c-0.3-0.2-0.6-0.3-1-0.3c-0.6,0-1.1,0.2-1.6,0.6
		c-0.4,0.4-0.7,1.1-0.7,2.2v4.5H417.2z"/>
	<path d="M425.6,78l1.4-0.2c0.1,0.6,0.3,1,0.7,1.3c0.4,0.3,0.9,0.4,1.5,0.4c0.6,0,1.1-0.1,1.4-0.4s0.5-0.6,0.5-0.9
		c0-0.3-0.1-0.6-0.4-0.8c-0.2-0.1-0.7-0.3-1.4-0.5c-1-0.3-1.7-0.5-2.1-0.7s-0.7-0.5-0.9-0.8c-0.2-0.3-0.3-0.7-0.3-1.1
		c0-0.4,0.1-0.7,0.3-1c0.2-0.3,0.4-0.6,0.7-0.8c0.2-0.2,0.5-0.3,0.9-0.4c0.4-0.1,0.8-0.2,1.2-0.2c0.7,0,1.2,0.1,1.7,0.3
		s0.9,0.4,1.1,0.8s0.4,0.7,0.5,1.3l-1.4,0.2c-0.1-0.4-0.2-0.8-0.5-1c-0.3-0.2-0.7-0.4-1.3-0.4c-0.6,0-1.1,0.1-1.4,0.3
		c-0.3,0.2-0.4,0.5-0.4,0.8c0,0.2,0.1,0.3,0.2,0.5c0.1,0.2,0.3,0.3,0.5,0.4c0.1,0.1,0.6,0.2,1.2,0.4c1,0.3,1.7,0.5,2.1,0.7
		c0.4,0.2,0.7,0.4,0.9,0.7c0.2,0.3,0.3,0.7,0.3,1.2c0,0.5-0.1,0.9-0.4,1.3s-0.7,0.7-1.2,1s-1.1,0.3-1.8,0.3c-1.1,0-1.9-0.2-2.5-0.7
		C426.1,79.6,425.7,78.9,425.6,78z"/>
	<path d="M202.9,99.7v-1c-0.5,0.8-1.3,1.2-2.3,1.2c-0.7,0-1.3-0.2-1.8-0.5s-1-0.9-1.3-1.5s-0.5-1.4-0.5-2.3c0-0.8,0.1-1.6,0.4-2.3
		c0.3-0.7,0.7-1.2,1.2-1.6c0.6-0.4,1.2-0.5,1.9-0.5c0.5,0,0.9,0.1,1.3,0.3s0.7,0.5,1,0.8v-4.1h1.4v11.5H202.9z M198.5,95.6
		c0,1.1,0.2,1.9,0.7,2.4c0.4,0.5,1,0.8,1.6,0.8c0.6,0,1.1-0.3,1.6-0.8s0.6-1.3,0.6-2.3c0-1.1-0.2-2-0.7-2.5s-1-0.8-1.6-0.8
		c-0.6,0-1.1,0.3-1.6,0.8C198.7,93.7,198.5,94.5,198.5,95.6z"/>
	<path d="M205.9,95.6c0-1.5,0.4-2.7,1.3-3.4c0.7-0.6,1.6-0.9,2.6-0.9c1.1,0,2.1,0.4,2.8,1.1c0.7,0.7,1.1,1.8,1.1,3.1
		c0,1.1-0.2,1.9-0.5,2.5s-0.8,1.1-1.4,1.4c-0.6,0.3-1.3,0.5-2,0.5c-1.2,0-2.1-0.4-2.8-1.1C206.3,98,205.9,97,205.9,95.6z
		 M207.4,95.6c0,1.1,0.2,1.9,0.7,2.4c0.5,0.5,1,0.8,1.8,0.8c0.7,0,1.3-0.3,1.7-0.8c0.5-0.5,0.7-1.3,0.7-2.4c0-1-0.2-1.8-0.7-2.3
		c-0.5-0.5-1-0.8-1.7-0.8c-0.7,0-1.3,0.3-1.8,0.8C207.6,93.7,207.4,94.5,207.4,95.6z"/>
	<path d="M215.7,99.7v-1.6h1.6v1.6c0,0.6-0.1,1.1-0.3,1.4c-0.2,0.4-0.5,0.6-1,0.8l-0.4-0.6c0.3-0.1,0.5-0.3,0.7-0.6s0.2-0.6,0.2-1.1
		H215.7z"/>
	<path d="M225.5,99.7h-1.3V88.2h1.4v4.1c0.6-0.7,1.4-1.1,2.3-1.1c0.5,0,1,0.1,1.4,0.3c0.5,0.2,0.8,0.5,1.1,0.9
		c0.3,0.4,0.5,0.8,0.7,1.3c0.2,0.5,0.2,1.1,0.2,1.7c0,1.4-0.4,2.5-1.1,3.3s-1.5,1.2-2.5,1.2c-1,0-1.7-0.4-2.3-1.2V99.7z M225.5,95.5
		c0,1,0.1,1.7,0.4,2.2c0.4,0.7,1,1.1,1.8,1.1c0.6,0,1.1-0.3,1.6-0.8c0.4-0.5,0.7-1.3,0.7-2.4c0-1.1-0.2-1.9-0.6-2.4
		s-0.9-0.8-1.6-0.8c-0.6,0-1.1,0.3-1.6,0.8C225.7,93.7,225.5,94.5,225.5,95.5z"/>
	<path d="M238.6,99.7v-1.2c-0.6,0.9-1.5,1.4-2.6,1.4c-0.5,0-0.9-0.1-1.4-0.3c-0.4-0.2-0.7-0.4-0.9-0.7c-0.2-0.3-0.4-0.6-0.4-1
		c-0.1-0.3-0.1-0.7-0.1-1.3v-5.1h1.4V96c0,0.7,0,1.2,0.1,1.5c0.1,0.4,0.3,0.7,0.6,0.9c0.3,0.2,0.6,0.3,1.1,0.3s0.8-0.1,1.2-0.3
		c0.4-0.2,0.6-0.5,0.8-0.9c0.2-0.4,0.2-0.9,0.2-1.6v-4.4h1.4v8.3H238.6z"/>
	<path d="M245.1,98.4l0.2,1.2c-0.4,0.1-0.8,0.1-1.1,0.1c-0.5,0-0.9-0.1-1.2-0.2s-0.5-0.4-0.6-0.6c-0.1-0.3-0.2-0.8-0.2-1.7v-4.8h-1
		v-1.1h1v-2.1l1.4-0.8v2.9h1.4v1.1h-1.4v4.9c0,0.4,0,0.7,0.1,0.8c0,0.1,0.1,0.2,0.2,0.3c0.1,0.1,0.3,0.1,0.5,0.1
		C244.6,98.5,244.9,98.5,245.1,98.4z"/>
	<path d="M252.5,99.7l-2.5-8.3h1.5l1.3,4.8l0.5,1.8c0-0.1,0.2-0.7,0.4-1.7l1.3-4.9h1.4l1.2,4.8l0.4,1.6l0.5-1.6l1.4-4.8h1.4
		l-2.6,8.3h-1.5l-1.3-5l-0.3-1.4l-1.7,6.4H252.5z"/>
	<path d="M262.5,99.7V88.2h1.4v4.1c0.7-0.8,1.5-1.1,2.5-1.1c0.6,0,1.1,0.1,1.6,0.4s0.8,0.6,1,1s0.3,1,0.3,1.9v5.3h-1.4v-5.3
		c0-0.7-0.2-1.2-0.5-1.5s-0.7-0.5-1.3-0.5c-0.4,0-0.8,0.1-1.2,0.3s-0.6,0.5-0.8,0.9s-0.2,0.9-0.2,1.5v4.5H262.5z"/>
	<path d="M271.3,102.9l-0.2-1.3c0.3,0.1,0.6,0.1,0.8,0.1c0.3,0,0.6-0.1,0.8-0.2s0.3-0.2,0.5-0.4c0.1-0.1,0.2-0.5,0.4-1
		c0-0.1,0.1-0.2,0.1-0.3l-3.1-8.3h1.5l1.7,4.8c0.2,0.6,0.4,1.2,0.6,1.9c0.2-0.6,0.4-1.3,0.6-1.9l1.8-4.8h1.4l-3.2,8.4
		c-0.3,0.9-0.6,1.5-0.8,1.9c-0.2,0.5-0.5,0.8-0.9,1c-0.3,0.2-0.7,0.3-1.2,0.3C272,103.1,271.7,103,271.3,102.9z"/>
	<path d="M289.2,98.7c-0.5,0.4-1,0.8-1.5,0.9c-0.5,0.2-1,0.3-1.6,0.3c-0.9,0-1.6-0.2-2.1-0.7c-0.5-0.4-0.7-1-0.7-1.7
		c0-0.4,0.1-0.8,0.3-1.1c0.2-0.3,0.4-0.6,0.7-0.8c0.3-0.2,0.6-0.4,1-0.5c0.3-0.1,0.7-0.1,1.2-0.2c1.1-0.1,2-0.3,2.5-0.5
		c0-0.2,0-0.3,0-0.4c0-0.6-0.1-1-0.4-1.2c-0.4-0.3-0.9-0.5-1.6-0.5c-0.7,0-1.1,0.1-1.5,0.3c-0.3,0.2-0.5,0.6-0.7,1.2l-1.4-0.2
		c0.1-0.6,0.3-1.1,0.6-1.4c0.3-0.4,0.7-0.6,1.2-0.8c0.5-0.2,1.2-0.3,1.9-0.3c0.7,0,1.3,0.1,1.7,0.2c0.4,0.2,0.8,0.4,1,0.6
		c0.2,0.3,0.4,0.6,0.4,1c0,0.2,0.1,0.7,0.1,1.3v1.9c0,1.3,0,2.1,0.1,2.5c0.1,0.3,0.2,0.7,0.4,1h-1.5
		C289.4,99.4,289.3,99.1,289.2,98.7z M289.1,95.5c-0.5,0.2-1.3,0.4-2.3,0.5c-0.6,0.1-1,0.2-1.2,0.3c-0.2,0.1-0.4,0.3-0.6,0.5
		c-0.1,0.2-0.2,0.4-0.2,0.7c0,0.4,0.1,0.7,0.4,0.9c0.3,0.2,0.7,0.4,1.2,0.4c0.5,0,1-0.1,1.4-0.4s0.7-0.6,0.9-1
		c0.2-0.3,0.2-0.8,0.2-1.4V95.5z"/>
	<path d="M292.7,99.7v-8.3h1.3v1.3c0.3-0.6,0.6-1,0.9-1.2s0.6-0.3,0.9-0.3c0.5,0,1,0.2,1.4,0.5l-0.5,1.3c-0.3-0.2-0.7-0.3-1-0.3
		c-0.3,0-0.6,0.1-0.8,0.3c-0.2,0.2-0.4,0.4-0.5,0.8c-0.2,0.5-0.2,1-0.2,1.6v4.3H292.7z"/>
	<path d="M303.7,97l1.5,0.2c-0.2,0.8-0.7,1.5-1.3,2c-0.6,0.5-1.4,0.7-2.4,0.7c-1.2,0-2.2-0.4-2.9-1.1s-1.1-1.8-1.1-3.1
		c0-1.4,0.4-2.5,1.1-3.2s1.7-1.2,2.8-1.2c1.1,0,2,0.4,2.7,1.1s1.1,1.8,1.1,3.2c0,0.1,0,0.2,0,0.4H299c0.1,0.9,0.3,1.6,0.8,2.1
		c0.5,0.5,1,0.7,1.7,0.7c0.5,0,1-0.1,1.3-0.4C303.2,98.1,303.5,97.6,303.7,97z M299.1,94.8h4.6c-0.1-0.7-0.2-1.2-0.5-1.6
		c-0.4-0.5-1-0.8-1.7-0.8c-0.6,0-1.2,0.2-1.6,0.6C299.4,93.5,299.2,94,299.1,94.8z"/>
	<path d="M311.3,102.9l-0.2-1.3c0.3,0.1,0.6,0.1,0.8,0.1c0.3,0,0.6-0.1,0.8-0.2s0.3-0.2,0.5-0.4c0.1-0.1,0.2-0.5,0.4-1
		c0-0.1,0.1-0.2,0.1-0.3l-3.1-8.3h1.5l1.7,4.8c0.2,0.6,0.4,1.2,0.6,1.9c0.2-0.6,0.4-1.3,0.6-1.9l1.8-4.8h1.4l-3.2,8.4
		c-0.3,0.9-0.6,1.5-0.8,1.9c-0.2,0.5-0.5,0.8-0.9,1c-0.3,0.2-0.7,0.3-1.2,0.3C312,103.1,311.7,103,311.3,102.9z"/>
	<path d="M318.9,95.6c0-1.5,0.4-2.7,1.3-3.4c0.7-0.6,1.6-0.9,2.6-0.9c1.1,0,2.1,0.4,2.8,1.1c0.7,0.7,1.1,1.8,1.1,3.1
		c0,1.1-0.2,1.9-0.5,2.5s-0.8,1.1-1.4,1.4c-0.6,0.3-1.3,0.5-2,0.5c-1.2,0-2.1-0.4-2.8-1.1C319.2,98,318.9,97,318.9,95.6z
		 M320.3,95.6c0,1.1,0.2,1.9,0.7,2.4c0.5,0.5,1,0.8,1.8,0.8c0.7,0,1.3-0.3,1.7-0.8c0.5-0.5,0.7-1.3,0.7-2.4c0-1-0.2-1.8-0.7-2.3
		c-0.5-0.5-1-0.8-1.7-0.8c-0.7,0-1.3,0.3-1.8,0.8C320.6,93.7,320.3,94.5,320.3,95.6z"/>
	<path d="M333.7,99.7v-1.2c-0.6,0.9-1.5,1.4-2.6,1.4c-0.5,0-0.9-0.1-1.4-0.3c-0.4-0.2-0.7-0.4-0.9-0.7c-0.2-0.3-0.4-0.6-0.4-1
		c-0.1-0.3-0.1-0.7-0.1-1.3v-5.1h1.4V96c0,0.7,0,1.2,0.1,1.5c0.1,0.4,0.3,0.7,0.6,0.9c0.3,0.2,0.6,0.3,1.1,0.3s0.8-0.1,1.2-0.3
		c0.4-0.2,0.6-0.5,0.8-0.9c0.2-0.4,0.2-0.9,0.2-1.6v-4.4h1.4v8.3H333.7z"/>
	<path d="M343.2,99.7l-2.5-8.3h1.5l1.3,4.8l0.5,1.8c0-0.1,0.2-0.7,0.4-1.7l1.3-4.9h1.4l1.2,4.8l0.4,1.6l0.5-1.6l1.4-4.8h1.4
		l-2.6,8.3H348l-1.3-5l-0.3-1.4l-1.7,6.4H343.2z"/>
	<path d="M353.2,99.7v-8.3h1.3v1.3c0.3-0.6,0.6-1,0.9-1.2s0.6-0.3,0.9-0.3c0.5,0,1,0.2,1.4,0.5l-0.5,1.3c-0.3-0.2-0.7-0.3-1-0.3
		c-0.3,0-0.6,0.1-0.8,0.3c-0.2,0.2-0.4,0.4-0.5,0.8c-0.2,0.5-0.2,1-0.2,1.6v4.3H353.2z"/>
	<path d="M358.5,89.9v-1.6h1.4v1.6H358.5z M358.5,99.7v-8.3h1.4v8.3H358.5z"/>
	<path d="M365.1,98.4l0.2,1.2c-0.4,0.1-0.8,0.1-1.1,0.1c-0.5,0-0.9-0.1-1.2-0.2s-0.5-0.4-0.6-0.6c-0.1-0.3-0.2-0.8-0.2-1.7v-4.8h-1
		v-1.1h1v-2.1l1.4-0.8v2.9h1.4v1.1h-1.4v4.9c0,0.4,0,0.7,0.1,0.8c0,0.1,0.1,0.2,0.2,0.3c0.1,0.1,0.3,0.1,0.5,0.1
		C364.7,98.5,364.9,98.5,365.1,98.4z"/>
	<path d="M366.5,89.9v-1.6h1.4v1.6H366.5z M366.5,99.7v-8.3h1.4v8.3H366.5z"/>
	<path d="M370.1,99.7v-8.3h1.3v1.2c0.6-0.9,1.5-1.4,2.6-1.4c0.5,0,1,0.1,1.4,0.3c0.4,0.2,0.7,0.4,0.9,0.7c0.2,0.3,0.4,0.6,0.4,1
		c0.1,0.3,0.1,0.7,0.1,1.4v5.1h-1.4v-5c0-0.6-0.1-1-0.2-1.3s-0.3-0.5-0.6-0.7c-0.3-0.2-0.6-0.3-1-0.3c-0.6,0-1.1,0.2-1.6,0.6
		c-0.4,0.4-0.7,1.1-0.7,2.2v4.5H370.1z"/>
	<path d="M378.7,100.4l1.4,0.2c0.1,0.4,0.2,0.7,0.5,0.9c0.3,0.3,0.8,0.4,1.4,0.4c0.7,0,1.2-0.1,1.5-0.4c0.4-0.3,0.6-0.6,0.7-1.1
		c0.1-0.3,0.1-0.9,0.1-1.8c-0.6,0.7-1.4,1.1-2.3,1.1c-1.1,0-2-0.4-2.6-1.2s-0.9-1.8-0.9-3c0-0.8,0.1-1.5,0.4-2.2
		c0.3-0.7,0.7-1.2,1.2-1.6c0.5-0.4,1.2-0.5,1.9-0.5c1,0,1.8,0.4,2.4,1.2v-1h1.3v7.2c0,1.3-0.1,2.2-0.4,2.7c-0.3,0.5-0.7,1-1.2,1.3
		s-1.3,0.5-2.1,0.5c-1,0-1.8-0.2-2.4-0.7S378.7,101.3,378.7,100.4z M379.9,95.4c0,1.1,0.2,1.9,0.6,2.4c0.4,0.5,1,0.8,1.6,0.8
		c0.6,0,1.2-0.2,1.6-0.7s0.7-1.3,0.7-2.3c0-1-0.2-1.8-0.7-2.3c-0.5-0.5-1-0.8-1.6-0.8c-0.6,0-1.2,0.3-1.6,0.8S379.9,94.4,379.9,95.4
		z"/>
	<path d="M200.6,117.6l0.2,1.2c-0.4,0.1-0.8,0.1-1.1,0.1c-0.5,0-0.9-0.1-1.2-0.2s-0.5-0.4-0.6-0.6c-0.1-0.3-0.2-0.8-0.2-1.7v-4.8h-1
		v-1.1h1v-2.1l1.4-0.8v2.9h1.4v1.1h-1.4v4.9c0,0.4,0,0.7,0.1,0.8c0,0.1,0.1,0.2,0.2,0.3c0.1,0.1,0.3,0.1,0.5,0.1
		C200.2,117.7,200.4,117.7,200.6,117.6z"/>
	<path d="M202,118.9v-11.5h1.4v4.1c0.7-0.8,1.5-1.1,2.5-1.1c0.6,0,1.1,0.1,1.6,0.4s0.8,0.6,1,1s0.3,1,0.3,1.9v5.3h-1.4v-5.3
		c0-0.7-0.2-1.2-0.5-1.5s-0.7-0.5-1.3-0.5c-0.4,0-0.8,0.1-1.2,0.3s-0.6,0.5-0.8,0.9s-0.2,0.9-0.2,1.5v4.5H202z"/>
	<path d="M216.6,116.2l1.5,0.2c-0.2,0.8-0.7,1.5-1.3,2c-0.6,0.5-1.4,0.7-2.4,0.7c-1.2,0-2.2-0.4-2.9-1.1s-1.1-1.8-1.1-3.1
		c0-1.4,0.4-2.5,1.1-3.2s1.7-1.2,2.8-1.2c1.1,0,2,0.4,2.7,1.1s1.1,1.8,1.1,3.2c0,0.1,0,0.2,0,0.4h-6.2c0.1,0.9,0.3,1.6,0.8,2.1
		c0.5,0.5,1,0.7,1.7,0.7c0.5,0,1-0.1,1.3-0.4C216.1,117.3,216.4,116.8,216.6,116.2z M212,114h4.6c-0.1-0.7-0.2-1.2-0.5-1.6
		c-0.4-0.5-1-0.8-1.7-0.8c-0.6,0-1.2,0.2-1.6,0.6C212.3,112.7,212,113.2,212,114z"/>
	<path d="M219.8,118.9v-8.3h1.3v1.2c0.3-0.4,0.6-0.7,1-1c0.4-0.2,0.9-0.4,1.5-0.4c0.6,0,1.1,0.1,1.5,0.4c0.4,0.3,0.7,0.6,0.8,1.1
		c0.7-1,1.5-1.5,2.6-1.5c0.8,0,1.5,0.2,1.9,0.7c0.4,0.5,0.7,1.2,0.7,2.1v5.7h-1.4v-5.2c0-0.6,0-1-0.1-1.2c-0.1-0.2-0.3-0.4-0.5-0.6
		c-0.2-0.2-0.5-0.2-0.8-0.2c-0.6,0-1.1,0.2-1.5,0.6c-0.4,0.4-0.6,1-0.6,1.9v4.8h-1.4v-5.4c0-0.6-0.1-1.1-0.3-1.4
		c-0.2-0.3-0.6-0.5-1.1-0.5c-0.4,0-0.8,0.1-1.1,0.3s-0.6,0.5-0.7,0.9c-0.2,0.4-0.2,1-0.2,1.7v4.3H219.8z"/>
	<path d="M237.5,118.9v-11.5h1.4v11.5H237.5z"/>
	<path d="M241.1,109.1v-1.6h1.4v1.6H241.1z M241.1,118.9v-8.3h1.4v8.3H241.1z"/>
	<path d="M244.7,118.9v-11.5h1.4v6.5l3.3-3.4h1.8l-3.2,3.1l3.5,5.2h-1.7l-2.7-4.2l-1,1v3.3H244.7z"/>
	<path d="M258.4,116.2l1.5,0.2c-0.2,0.8-0.7,1.5-1.3,2c-0.6,0.5-1.4,0.7-2.4,0.7c-1.2,0-2.2-0.4-2.9-1.1s-1.1-1.8-1.1-3.1
		c0-1.4,0.4-2.5,1.1-3.2s1.7-1.2,2.8-1.2c1.1,0,2,0.4,2.7,1.1s1.1,1.8,1.1,3.2c0,0.1,0,0.2,0,0.4h-6.2c0.1,0.9,0.3,1.6,0.8,2.1
		c0.5,0.5,1,0.7,1.7,0.7c0.5,0,1-0.1,1.3-0.4C257.9,117.3,258.1,116.8,258.4,116.2z M253.7,114h4.6c-0.1-0.7-0.2-1.2-0.5-1.6
		c-0.4-0.5-1-0.8-1.7-0.8c-0.6,0-1.2,0.2-1.6,0.6C254,112.7,253.8,113.2,253.7,114z"/>
	<path d="M269.1,117.6l0.2,1.2c-0.4,0.1-0.8,0.1-1.1,0.1c-0.5,0-0.9-0.1-1.2-0.2s-0.5-0.4-0.6-0.6c-0.1-0.3-0.2-0.8-0.2-1.7v-4.8h-1
		v-1.1h1v-2.1l1.4-0.8v2.9h1.4v1.1h-1.4v4.9c0,0.4,0,0.7,0.1,0.8c0,0.1,0.1,0.2,0.2,0.3c0.1,0.1,0.3,0.1,0.5,0.1
		C268.6,117.7,268.8,117.7,269.1,117.6z"/>
	<path d="M270.5,118.9v-11.5h1.4v4.1c0.7-0.8,1.5-1.1,2.5-1.1c0.6,0,1.1,0.1,1.6,0.4s0.8,0.6,1,1s0.3,1,0.3,1.9v5.3h-1.4v-5.3
		c0-0.7-0.2-1.2-0.5-1.5s-0.7-0.5-1.3-0.5c-0.4,0-0.8,0.1-1.2,0.3s-0.6,0.5-0.8,0.9s-0.2,0.9-0.2,1.5v4.5H270.5z"/>
	<path d="M279.4,109.1v-1.6h1.4v1.6H279.4z M279.4,118.9v-8.3h1.4v8.3H279.4z"/>
	<path d="M282.4,116.4l1.4-0.2c0.1,0.6,0.3,1,0.7,1.3c0.4,0.3,0.9,0.4,1.5,0.4c0.6,0,1.1-0.1,1.4-0.4s0.5-0.6,0.5-0.9
		c0-0.3-0.1-0.6-0.4-0.8c-0.2-0.1-0.7-0.3-1.4-0.5c-1-0.3-1.7-0.5-2.1-0.7s-0.7-0.5-0.9-0.8c-0.2-0.3-0.3-0.7-0.3-1.1
		c0-0.4,0.1-0.7,0.3-1c0.2-0.3,0.4-0.6,0.7-0.8c0.2-0.2,0.5-0.3,0.9-0.4c0.4-0.1,0.8-0.2,1.2-0.2c0.7,0,1.2,0.1,1.7,0.3
		s0.9,0.4,1.1,0.8s0.4,0.7,0.5,1.3l-1.4,0.2c-0.1-0.4-0.2-0.8-0.5-1c-0.3-0.2-0.7-0.4-1.3-0.4c-0.6,0-1.1,0.1-1.4,0.3
		c-0.3,0.2-0.4,0.5-0.4,0.8c0,0.2,0.1,0.3,0.2,0.5c0.1,0.2,0.3,0.3,0.5,0.4c0.1,0.1,0.6,0.2,1.2,0.4c1,0.3,1.7,0.5,2.1,0.7
		c0.4,0.2,0.7,0.4,0.9,0.7c0.2,0.3,0.3,0.7,0.3,1.2c0,0.5-0.1,0.9-0.4,1.3s-0.7,0.7-1.2,1s-1.1,0.3-1.8,0.3c-1.1,0-1.9-0.2-2.5-0.7
		C282.9,118,282.5,117.3,282.4,116.4z"/>
	<path d="M293.6,116.1c0-0.2,0-0.3,0-0.4c0-0.6,0.1-1,0.2-1.4c0.1-0.3,0.3-0.6,0.6-0.9c0.2-0.2,0.5-0.6,1-1c0.5-0.4,0.8-0.8,0.9-1
		c0.1-0.3,0.2-0.5,0.2-0.8c0-0.5-0.2-1-0.6-1.4c-0.4-0.4-1-0.6-1.6-0.6c-0.6,0-1.1,0.2-1.5,0.6c-0.4,0.4-0.7,1-0.8,1.8l-1.4-0.2
		c0.1-1.1,0.5-1.9,1.2-2.5c0.6-0.6,1.5-0.9,2.6-0.9c1.1,0,2,0.3,2.7,0.9c0.7,0.6,1,1.3,1,2.2c0,0.5-0.1,1-0.4,1.4s-0.7,0.9-1.4,1.5
		c-0.5,0.4-0.8,0.7-0.9,0.9s-0.2,0.4-0.3,0.7c-0.1,0.2-0.1,0.7-0.1,1.2H293.6z M293.5,118.9v-1.6h1.6v1.6H293.5z"/>
</g>
</svg>
