<?xml version="1.0" encoding="utf-8"?>
<!-- Generator: Adobe Illustrator 19.0.1, SVG Export Plug-In . SVG Version: 6.00 Build 0)  -->
<svg version="1.1" id="www_1_" xmlns="http://www.w3.org/2000/svg" xmlns:xlink="http://www.w3.org/1999/xlink" x="0px" y="0px"
	 viewBox="0 0 600 400" enable-background="new 0 0 600 400" xml:space="preserve">
<rect fill="#FFFFFF" width="600" height="400"/>
<path d="M455.7,293.4l-59.6,33.1v-18.6c0-2.9-2.4-5.3-5.3-5.3c-2.9,0-5.3,2.4-5.3,5.3v18.6l-59.6-33.1v-75
	c6.3,1.1,11.9,4.1,16.2,8.4l10.6,11.8c-1.8,2.3-4,5.4-4.7,7.8c-1.4,5.4-0.6,10.9,2,15.4l35.1-20.4c-2.6-4.5-6.9-8-12.3-9.4
	c-3.1-0.8-8-0.3-11,0.3l-0.8,0.5l-11.9-13.1c-4.5-4.5-10.1-7.9-16.2-9.9l57.8-27.8l58.7,28.2l-38.2,21.2c-2.5,1.4-3.5,4.6-2.1,7.2
	c1,1.7,2.8,2.7,4.6,2.7c0.9,0,1.7-0.2,2.6-0.7l39.3-21.8v31.5h-0.3c0,17.3-14.1,31.4-31.4,31.4c-6.2,0-11.9-1.8-16.7-4.9
	c0.7-1.7,1-3.6,1-5.6c0-4.3-1.8-8.2-4.6-11.1l-4,4l-7.8-7.8l0,0c-1-1-2.7-1-3.7,0c-1,1-1,2.7,0,3.7l7.8,7.8l-6.8,6.8l-8-8l0,0
	c-1-1-2.7-1-3.7,0c-1,1-1,2.7,0,3.7l8,8l-4,4c2.8,2.8,6.8,4.6,11.1,4.6c2.8,0,5.5-0.8,7.8-2.1c6.7,4.6,14.8,7.3,23.6,7.3
	c12.7,0,24-5.7,31.7-14.6L455.7,293.4L455.7,293.4z M466.2,209.1c0,0,0-0.1,0-0.1c0-0.2-0.1-0.4-0.1-0.6c0,0,0-0.1,0-0.1
	c-0.1-0.2-0.1-0.4-0.2-0.6c0,0,0-0.1-0.1-0.1c0-0.1-0.1-0.2-0.2-0.3c0-0.1-0.1-0.1-0.1-0.2c0-0.1-0.1-0.1-0.1-0.2
	c-0.1-0.2-0.2-0.3-0.3-0.5c0,0,0,0,0,0c-0.2-0.2-0.3-0.3-0.5-0.5c0,0-0.1-0.1-0.1-0.1c-0.2-0.1-0.3-0.2-0.5-0.4c0,0-0.1,0-0.1-0.1
	c-0.2-0.1-0.4-0.2-0.6-0.3c0,0,0,0,0,0l-70.2-33.7c-1.4-0.7-3.1-0.7-4.6,0L318.4,205c-1.8,0.9-3,2.7-3,4.8v86.7c0,1.9,1,3.7,2.7,4.6
	l70.2,38.9h0c0.2,0.1,0.4,0.2,0.6,0.3c0,0,0.1,0,0.1,0c0.2,0.1,0.3,0.1,0.5,0.2c0.1,0,0.1,0,0.2,0c0.1,0,0.3,0.1,0.5,0.1
	c0.1,0,0.1,0,0.2,0c0.2,0,0.4,0,0.6,0c0.2,0,0.4,0,0.6,0c0.1,0,0.1,0,0.2,0c0.2,0,0.3-0.1,0.5-0.1c0.1,0,0.1,0,0.2,0
	c0.2,0,0.3-0.1,0.5-0.2c0,0,0.1,0,0.1,0c0.2-0.1,0.4-0.2,0.6-0.3h0l70.2-38.9c1.7-0.9,2.7-2.7,2.7-4.6v-86.7v0
	C466.3,209.5,466.2,209.3,466.2,209.1z"/>
<path d="M129.5,24.6c-9.2,0-17.9,2.4-25.4,6.5c-2.6-1-5.4-1.6-8.4-1.6c-11.9,0-21.6,8.8-23.3,20.1c-10.9,4.9-18.6,15.9-18.6,28.7
	c0,17.4,14.1,31.5,31.5,31.5c2.4,0,4.7-0.3,6.9-0.8c9.4,9.5,22.6,15.5,37.2,15.5c16.5,0,31.2-7.6,40.6-19.3c1,0.1,2,0.3,3,0.3
	c13.1,0,23.7-10.6,23.7-23.7c0-11.3-7.9-20.7-18.5-23.1C171.5,38.9,152.2,24.6,129.5,24.6z M129.5,29.4c20.2,0,38,12.4,44.4,31
	l0.9,2.5l2.6,0.6c8.7,2,14.8,9.5,14.8,18.4c0,10.4-8.5,18.9-18.9,18.9c-0.5,0-1.1-0.1-1.7-0.2l-0.7-0.1l-2.6-0.3l-1.7,2.1
	c-9,11.1-22.4,17.5-36.9,17.5c-12.9,0-24.9-5-33.9-14.1l-1.9-1.9l-2.6,0.6c-2,0.4-4,0.7-5.9,0.7c-14.7,0-26.7-12-26.7-26.7
	c0-10.5,6.2-20,15.8-24.3l2.4-1.1l0.4-2.6c1.4-9.3,9.3-16.1,18.6-16.1c2.2,0,4.4,0.4,6.7,1.3l2.1,0.8l1.9-1.1
	C113.4,31.4,121.4,29.4,129.5,29.4"/>
<g>
	<g>
		<path d="M319,205.6c-36.4-3.1-72.9,2.3-109.4-0.1c-18-1.2-36.5-4.4-52.9-12.2c-7.4-3.5-14.8-8.2-19.2-15.3
			c-4.7-7.7-5.2-17-5.7-25.8c-0.6-10.2,0.8-17.8,0.2-28.5c-0.3-5.8-9.3-5.8-9,0c0.2,4.4,0.6,10,0,13.2c-0.7,3.9-0.6,7.8-0.4,11.7
			c0.4,9.5,0.8,19.5,4.4,28.4c3,7.5,8.4,13.5,15,18.1c14.9,10.7,34.4,15.4,52.3,17.8c19.2,2.6,38.6,2.3,57.8,1.7
			c22.3-0.8,44.6-2,66.9,0C324.8,215.1,324.7,206.1,319,205.6L319,205.6z"/>
	</g>
</g>
<g>
	<path d="M98,86l6.6-17.2h2.4l7,17.2h-2.6l-2-5.2h-7.2l-1.9,5.2H98z M102.9,78.9h5.8l-1.8-4.8c-0.5-1.4-1-2.6-1.2-3.6
		c-0.2,1.1-0.5,2.2-0.9,3.3L102.9,78.9z"/>
	<path d="M115.9,86V68.8h6.5c1.1,0,2,0.1,2.6,0.2c0.8,0.1,1.6,0.4,2.1,0.8s1,0.9,1.4,1.7s0.5,1.5,0.5,2.3c0,1.5-0.5,2.7-1.4,3.7
		s-2.6,1.5-5,1.5h-4.4v7H115.9z M118.1,77h4.4c1.5,0,2.5-0.3,3.1-0.8s0.9-1.3,0.9-2.3c0-0.7-0.2-1.3-0.5-1.8s-0.8-0.8-1.4-1
		c-0.4-0.1-1.1-0.2-2.1-0.2h-4.4V77z"/>
	<path d="M132.3,86V68.8h2.3V86H132.3z"/>
</g>
<g>
	<path d="M180.7,240.3v-1.6c-0.8,1.2-1.9,1.9-3.5,1.9c-1,0-1.9-0.3-2.7-0.8s-1.5-1.3-1.9-2.3s-0.7-2.1-0.7-3.4
		c0-1.2,0.2-2.4,0.6-3.4s1-1.8,1.9-2.3s1.8-0.8,2.8-0.8c0.8,0,1.4,0.2,2,0.5s1.1,0.7,1.4,1.2v-6.2h2.1v17.2H180.7z M174,234
		c0,1.6,0.3,2.8,1,3.6s1.5,1.2,2.4,1.2c0.9,0,1.7-0.4,2.3-1.1s1-1.9,1-3.5c0-1.7-0.3-3-1-3.8s-1.5-1.2-2.4-1.2
		c-0.9,0-1.7,0.4-2.3,1.1S174,232.4,174,234z"/>
	<path d="M194.1,238.7c-0.8,0.7-1.5,1.1-2.3,1.4s-1.5,0.4-2.3,0.4c-1.4,0-2.4-0.3-3.2-1s-1.1-1.5-1.1-2.6c0-0.6,0.1-1.2,0.4-1.7
		s0.6-0.9,1.1-1.2s1-0.5,1.5-0.7c0.4-0.1,1-0.2,1.9-0.3c1.7-0.2,3-0.4,3.8-0.7c0-0.3,0-0.5,0-0.6c0-0.9-0.2-1.5-0.6-1.8
		c-0.5-0.5-1.3-0.7-2.4-0.7c-1,0-1.7,0.2-2.2,0.5s-0.8,1-1,1.8l-2.1-0.3c0.2-0.9,0.5-1.6,0.9-2.1s1.1-1,1.9-1.3s1.8-0.4,2.8-0.4
		c1.1,0,1.9,0.1,2.6,0.4s1.2,0.6,1.5,0.9s0.5,0.9,0.7,1.4c0.1,0.4,0.1,1,0.1,1.9v2.8c0,2,0,3.2,0.1,3.7s0.3,1,0.5,1.5h-2.2
		C194.3,239.8,194.1,239.3,194.1,238.7z M193.9,234c-0.8,0.3-1.9,0.6-3.4,0.8c-0.9,0.1-1.5,0.3-1.8,0.4s-0.6,0.4-0.8,0.7
		s-0.3,0.6-0.3,1c0,0.6,0.2,1,0.6,1.4s1,0.6,1.9,0.6c0.8,0,1.5-0.2,2.2-0.5s1.1-0.8,1.4-1.5c0.2-0.5,0.3-1.2,0.3-2.1V234z"/>
	<path d="M203.9,238.4l0.3,1.9c-0.6,0.1-1.1,0.2-1.6,0.2c-0.8,0-1.4-0.1-1.8-0.4s-0.7-0.6-0.9-1s-0.3-1.2-0.3-2.5v-7.2h-1.5v-1.6
		h1.5v-3.1l2.1-1.3v4.3h2.1v1.6h-2.1v7.3c0,0.6,0,1,0.1,1.2s0.2,0.3,0.4,0.4s0.4,0.2,0.7,0.2C203.2,238.5,203.5,238.4,203.9,238.4z"
		/>
	<path d="M214.1,238.7c-0.8,0.7-1.5,1.1-2.3,1.4s-1.5,0.4-2.3,0.4c-1.4,0-2.4-0.3-3.2-1s-1.1-1.5-1.1-2.6c0-0.6,0.1-1.2,0.4-1.7
		s0.6-0.9,1.1-1.2s1-0.5,1.5-0.7c0.4-0.1,1-0.2,1.9-0.3c1.7-0.2,3-0.4,3.8-0.7c0-0.3,0-0.5,0-0.6c0-0.9-0.2-1.5-0.6-1.8
		c-0.5-0.5-1.3-0.7-2.4-0.7c-1,0-1.7,0.2-2.2,0.5s-0.8,1-1,1.8l-2.1-0.3c0.2-0.9,0.5-1.6,0.9-2.1s1.1-1,1.9-1.3s1.8-0.4,2.8-0.4
		c1.1,0,1.9,0.1,2.6,0.4s1.2,0.6,1.5,0.9s0.5,0.9,0.7,1.4c0.1,0.4,0.1,1,0.1,1.9v2.8c0,2,0,3.2,0.1,3.7s0.3,1,0.5,1.5h-2.2
		C214.3,239.8,214.1,239.3,214.1,238.7z M213.9,234c-0.8,0.3-1.9,0.6-3.4,0.8c-0.9,0.1-1.5,0.3-1.8,0.4s-0.6,0.4-0.8,0.7
		s-0.3,0.6-0.3,1c0,0.6,0.2,1,0.6,1.4s1,0.6,1.9,0.6c0.8,0,1.5-0.2,2.2-0.5s1.1-0.8,1.4-1.5c0.2-0.5,0.3-1.2,0.3-2.1V234z"/>
</g>
<g>
	<path d="M335.6,366.3c-0.8,0.7-1.5,1.1-2.3,1.4s-1.5,0.4-2.3,0.4c-1.4,0-2.4-0.3-3.2-1s-1.1-1.5-1.1-2.6c0-0.6,0.1-1.2,0.4-1.7
		s0.6-0.9,1.1-1.2s1-0.5,1.5-0.7c0.4-0.1,1-0.2,1.9-0.3c1.7-0.2,3-0.4,3.8-0.7c0-0.3,0-0.5,0-0.6c0-0.9-0.2-1.5-0.6-1.8
		c-0.5-0.5-1.3-0.7-2.4-0.7c-1,0-1.7,0.2-2.2,0.5s-0.8,1-1,1.8l-2.1-0.3c0.2-0.9,0.5-1.6,0.9-2.1s1.1-1,1.9-1.3s1.8-0.4,2.8-0.4
		c1.1,0,1.9,0.1,2.6,0.4s1.2,0.6,1.5,0.9s0.5,0.9,0.7,1.4c0.1,0.4,0.1,1,0.1,1.9v2.8c0,2,0,3.2,0.1,3.7s0.3,1,0.5,1.5H336
		C335.8,367.4,335.7,366.9,335.6,366.3z M335.4,361.6c-0.8,0.3-1.9,0.6-3.4,0.8c-0.9,0.1-1.5,0.3-1.8,0.4s-0.6,0.4-0.8,0.7
		s-0.3,0.6-0.3,1c0,0.6,0.2,1,0.6,1.4s1,0.6,1.9,0.6c0.8,0,1.5-0.2,2.2-0.5s1.1-0.8,1.4-1.5c0.2-0.5,0.3-1.2,0.3-2.1V361.6z"/>
	<path d="M340.9,372.6v-17.2h1.9v1.6c0.5-0.6,1-1.1,1.5-1.4s1.3-0.5,2.1-0.5c1.1,0,2,0.3,2.8,0.8s1.4,1.3,1.8,2.3s0.6,2.1,0.6,3.3
		c0,1.3-0.2,2.4-0.7,3.4s-1.1,1.8-2,2.3s-1.8,0.8-2.7,0.8c-0.7,0-1.3-0.1-1.9-0.4s-1-0.7-1.4-1.1v6.1H340.9z M342.8,361.7
		c0,1.6,0.3,2.8,1,3.6s1.4,1.1,2.4,1.1c0.9,0,1.7-0.4,2.4-1.2s1-2,1-3.7c0-1.6-0.3-2.8-1-3.6s-1.4-1.2-2.3-1.2
		c-0.9,0-1.7,0.4-2.4,1.3S342.8,360.1,342.8,361.7z"/>
	<path d="M354.2,372.6v-17.2h1.9v1.6c0.5-0.6,1-1.1,1.5-1.4s1.3-0.5,2.1-0.5c1.1,0,2,0.3,2.8,0.8s1.4,1.3,1.8,2.3s0.6,2.1,0.6,3.3
		c0,1.3-0.2,2.4-0.7,3.4s-1.1,1.8-2,2.3s-1.8,0.8-2.7,0.8c-0.7,0-1.3-0.1-1.9-0.4s-1-0.7-1.4-1.1v6.1H354.2z M356.1,361.7
		c0,1.6,0.3,2.8,1,3.6s1.4,1.1,2.4,1.1c0.9,0,1.7-0.4,2.4-1.2s1-2,1-3.7c0-1.6-0.3-2.8-1-3.6s-1.4-1.2-2.3-1.2
		c-0.9,0-1.7,0.4-2.4,1.3S356.1,360.1,356.1,361.7z"/>
	<path d="M367.5,367.9v-17.2h2.1v17.2H367.5z"/>
	<path d="M372.9,353.1v-2.4h2.1v2.4H372.9z M372.9,367.9v-12.4h2.1v12.4H372.9z"/>
	<path d="M386.3,363.3l2.1,0.3c-0.2,1.4-0.8,2.5-1.7,3.4s-2.1,1.2-3.4,1.2c-1.7,0-3.1-0.6-4.1-1.7s-1.6-2.7-1.6-4.8
		c0-1.3,0.2-2.5,0.7-3.5s1.1-1.8,2-2.3s1.9-0.8,3-0.8c1.4,0,2.5,0.3,3.3,1s1.4,1.7,1.7,2.9l-2.1,0.3c-0.2-0.8-0.5-1.5-1-1.9
		s-1.1-0.6-1.8-0.6c-1.1,0-1.9,0.4-2.6,1.1s-1,2-1,3.6c0,1.7,0.3,2.9,1,3.6s1.5,1.1,2.5,1.1c0.8,0,1.5-0.3,2.1-0.8
		S386.2,364.4,386.3,363.3z"/>
	<path d="M398.3,366.3c-0.8,0.7-1.5,1.1-2.3,1.4s-1.5,0.4-2.3,0.4c-1.4,0-2.4-0.3-3.2-1s-1.1-1.5-1.1-2.6c0-0.6,0.1-1.2,0.4-1.7
		s0.6-0.9,1.1-1.2s1-0.5,1.5-0.7c0.4-0.1,1-0.2,1.9-0.3c1.7-0.2,3-0.4,3.8-0.7c0-0.3,0-0.5,0-0.6c0-0.9-0.2-1.5-0.6-1.8
		c-0.5-0.5-1.3-0.7-2.4-0.7c-1,0-1.7,0.2-2.2,0.5s-0.8,1-1,1.8l-2.1-0.3c0.2-0.9,0.5-1.6,0.9-2.1s1.1-1,1.9-1.3s1.8-0.4,2.8-0.4
		c1.1,0,1.9,0.1,2.6,0.4s1.2,0.6,1.5,0.9s0.5,0.9,0.7,1.4c0.1,0.4,0.1,1,0.1,1.9v2.8c0,2,0,3.2,0.1,3.7s0.3,1,0.5,1.5h-2.2
		C398.5,367.4,398.4,366.9,398.3,366.3z M398.2,361.6c-0.8,0.3-1.9,0.6-3.4,0.8c-0.9,0.1-1.5,0.3-1.8,0.4s-0.6,0.4-0.8,0.7
		s-0.3,0.6-0.3,1c0,0.6,0.2,1,0.6,1.4s1,0.6,1.9,0.6c0.8,0,1.5-0.2,2.2-0.5s1.1-0.8,1.4-1.5c0.2-0.5,0.3-1.2,0.3-2.1V361.6z"/>
	<path d="M408.2,366l0.3,1.9c-0.6,0.1-1.1,0.2-1.6,0.2c-0.8,0-1.4-0.1-1.8-0.4s-0.7-0.6-0.9-1s-0.3-1.2-0.3-2.5v-7.2h-1.5v-1.6h1.5
		v-3.1l2.1-1.3v4.3h2.1v1.6H406v7.3c0,0.6,0,1,0.1,1.2s0.2,0.3,0.4,0.4s0.4,0.2,0.7,0.2C407.5,366.1,407.8,366,408.2,366z"/>
	<path d="M410.2,353.1v-2.4h2.1v2.4H410.2z M410.2,367.9v-12.4h2.1v12.4H410.2z"/>
	<path d="M414.8,361.7c0-2.3,0.6-4,1.9-5.1c1.1-0.9,2.4-1.4,3.9-1.4c1.7,0,3.1,0.6,4.2,1.7s1.6,2.7,1.6,4.6c0,1.6-0.2,2.9-0.7,3.8
		s-1.2,1.6-2.1,2.1s-1.9,0.8-3,0.8c-1.7,0-3.2-0.6-4.2-1.7S414.8,363.8,414.8,361.7z M416.9,361.7c0,1.6,0.3,2.8,1,3.6
		s1.6,1.2,2.6,1.2c1,0,1.9-0.4,2.6-1.2s1-2,1-3.6c0-1.5-0.3-2.7-1-3.5s-1.6-1.2-2.6-1.2c-1.1,0-1.9,0.4-2.6,1.2
		S416.9,360.1,416.9,361.7z"/>
	<path d="M428.9,367.9v-12.4h1.9v1.8c0.9-1.4,2.2-2.1,4-2.1c0.8,0,1.4,0.1,2.1,0.4s1.1,0.6,1.4,1.1s0.5,1,0.7,1.6
		c0.1,0.4,0.1,1.1,0.1,2.1v7.7h-2.1v-7.6c0-0.9-0.1-1.5-0.2-1.9s-0.5-0.8-0.9-1s-0.9-0.4-1.5-0.4c-0.9,0-1.7,0.3-2.3,0.9
		s-1,1.7-1,3.2v6.8H428.9z"/>
</g>
</svg>
