<?xml version="1.0" encoding="utf-8"?>
<!-- Generator: Adobe Illustrator 18.1.1, SVG Export Plug-In . SVG Version: 6.00 Build 0)  -->
<svg version="1.1" xmlns="http://www.w3.org/2000/svg" xmlns:xlink="http://www.w3.org/1999/xlink" x="0px" y="0px"
	 viewBox="0 0 767 505.7" enable-background="new 0 0 767 505.7" xml:space="preserve">
<g id="turning_x5F_point">
</g>
<g id="user_x5F_centered_x5F_doc">
</g>
<g id="building_x5F_blocks">
	<rect y="0" fill="#FFFFFF" stroke="#000000" stroke-miterlimit="10" width="767" height="505.7"/>
	<g>
		<polygon fill="#9F7D56" points="408.2,349.1 388.9,361.2 388.9,388.3 408.2,376.2 		"/>
		<polygon fill="#876840" points="350.3,337.1 388.9,361.2 388.9,388.3 350.3,364.1 		"/>
		<polygon fill="#967348" points="369.6,325 350.3,337.1 388.9,361.2 408.2,349.1 		"/>
		<path fill="#876840" d="M388.9,349.8c-4.4,0-7.9-1.9-7.9-4.3v4.2c0,2.4,3.6,4.3,7.9,4.3c4.4,0,7.9-1.9,7.9-4.3v-4.2
			C396.8,347.9,393.3,349.8,388.9,349.8z M369.6,337.7c-4.4,0-7.9-1.9-7.9-4.3v4.2c0,2.4,3.6,4.3,7.9,4.3c4.4,0,7.9-1.9,7.9-4.3
			v-4.2C377.5,335.8,374,337.7,369.6,337.7z"/>
		<path fill="#9F7D56" d="M388.9,341.3c-4.4,0-7.9,1.9-7.9,4.3c0,2.4,3.6,4.3,7.9,4.3c4.4,0,7.9-1.9,7.9-4.3
			C396.8,343.2,393.3,341.3,388.9,341.3z M369.6,329.2c-4.4,0-7.9,1.9-7.9,4.3c0,2.4,3.6,4.3,7.9,4.3c4.4,0,7.9-1.9,7.9-4.3
			C377.5,331.1,374,329.2,369.6,329.2z"/>
	</g>
	<g>
		<polygon fill="#0067AB" points="244.3,397.4 263.6,409.5 263.6,436.5 244.3,424.5 		"/>
		<polygon fill="#007AC0" points="340.7,361.2 263.6,409.5 263.6,436.5 340.7,388.3 		"/>
		<polygon fill="#0071BB" points="321.4,349.1 340.7,361.2 263.6,409.5 244.3,397.4 		"/>
		<path fill="#0067AB" d="M282.9,386c-4.4,0-7.9-1.9-7.9-4.3v4.2c0,2.4,3.6,4.3,7.9,4.3c4.4,0,7.9-1.9,7.9-4.3v-4.2
			C290.8,384.1,287.3,386,282.9,386z M263.6,398.1c-4.4,0-7.9-1.9-7.9-4.3v4.2c0,2.4,3.6,4.3,7.9,4.3c4.4,0,7.9-1.9,7.9-4.3v-4.2
			C271.5,396.2,268,398.1,263.6,398.1z M321.4,361.9c-4.4,0-7.9-1.9-7.9-4.3v4.2c0,2.4,3.6,4.3,7.9,4.3c4.4,0,7.9-1.9,7.9-4.3v-4.2
			C329.4,360,325.8,361.9,321.4,361.9z M302.1,373.9c-4.4,0-7.9-1.9-7.9-4.3v4.2c0,2.4,3.6,4.3,7.9,4.3c4.4,0,7.9-1.9,7.9-4.3v-4.2
			C310.1,372,306.5,373.9,302.1,373.9z"/>
		<path fill="#007AC0" d="M282.9,377.5c-4.4,0-7.9,1.9-7.9,4.3c0,2.4,3.6,4.3,7.9,4.3c4.4,0,7.9-1.9,7.9-4.3
			C290.8,379.4,287.3,377.5,282.9,377.5z M263.6,389.5c-4.4,0-7.9,1.9-7.9,4.3c0,2.4,3.6,4.3,7.9,4.3c4.4,0,7.9-1.9,7.9-4.3
			C271.5,391.5,268,389.5,263.6,389.5z M321.4,353.3c-4.4,0-7.9,1.9-7.9,4.3c0,2.4,3.6,4.3,7.9,4.3c4.4,0,7.9-1.9,7.9-4.3
			C329.4,355.2,325.8,353.3,321.4,353.3z M302.1,365.4c-4.4,0-7.9,1.9-7.9,4.3c0,2.4,3.6,4.3,7.9,4.3c4.4,0,7.9-1.9,7.9-4.3
			C310.1,367.3,306.5,365.4,302.1,365.4z"/>
	</g>
	<g>
		<polygon fill="#EC1C24" points="388.9,240.5 408.2,252.6 254,349.1 234.7,337.1 		"/>
		<polygon fill="#D71921" points="234.7,337.1 254,349.1 254,376.2 234.7,364.1 		"/>
		<polygon fill="#EE4130" points="408.2,252.6 254,349.1 254,376.2 408.2,279.7 		"/>
		<path fill="#D71921" d="M292.5,313.6c-4.4,0-7.9-1.9-7.9-4.3v4.2c0,2.4,3.6,4.3,7.9,4.3c4.4,0,7.9-1.9,7.9-4.3v-4.2
			C300.4,311.7,296.9,313.6,292.5,313.6z M273.2,325.7c-4.4,0-7.9-1.9-7.9-4.3v4.2c0,2.4,3.6,4.3,7.9,4.3s7.9-1.9,7.9-4.3v-4.2
			C281.2,323.8,277.6,325.7,273.2,325.7z M311.8,301.5c-4.4,0-7.9-1.9-7.9-4.3v4.2c0,2.4,3.6,4.3,7.9,4.3c4.4,0,7.9-1.9,7.9-4.3
			v-4.2C319.7,299.6,316.2,301.5,311.8,301.5z M254,337.7c-4.4,0-7.9-1.9-7.9-4.3v4.2c0,2.4,3.6,4.3,7.9,4.3c4.4,0,7.9-1.9,7.9-4.3
			v-4.2C261.9,335.8,258.3,337.7,254,337.7z M388.9,253.3c-4.4,0-7.9-1.9-7.9-4.3v4.2c0,2.4,3.6,4.3,7.9,4.3c4.4,0,7.9-1.9,7.9-4.3
			V249C396.8,251.4,393.3,253.3,388.9,253.3z M331.1,289.5c-4.4,0-7.9-1.9-7.9-4.3v4.2c0,2.4,3.6,4.3,7.9,4.3c4.4,0,7.9-1.9,7.9-4.3
			v-4.2C339,287.6,335.4,289.5,331.1,289.5z M369.6,265.3c-4.4,0-7.9-1.9-7.9-4.3v4.2c0,2.4,3.6,4.3,7.9,4.3c4.4,0,7.9-1.9,7.9-4.3
			v-4.2C377.5,263.4,374,265.3,369.6,265.3z M350.3,277.4c-4.4,0-7.9-1.9-7.9-4.3v4.2c0,2.4,3.6,4.3,7.9,4.3s7.9-1.9,7.9-4.3v-4.2
			C358.3,275.5,354.7,277.4,350.3,277.4z"/>
		<path fill="#EE4130" d="M273.2,317.1c-4.4,0-7.9,1.9-7.9,4.3c0,2.4,3.6,4.3,7.9,4.3s7.9-1.9,7.9-4.3
			C281.2,319,277.6,317.1,273.2,317.1z M292.5,305.1c-4.4,0-7.9,1.9-7.9,4.3c0,2.4,3.6,4.3,7.9,4.3c4.4,0,7.9-1.9,7.9-4.3
			C300.4,307,296.9,305.1,292.5,305.1z M311.8,293c-4.4,0-7.9,1.9-7.9,4.3c0,2.4,3.6,4.3,7.9,4.3c4.4,0,7.9-1.9,7.9-4.3
			C319.7,294.9,316.2,293,311.8,293z M254,329.2c-4.4,0-7.9,1.9-7.9,4.3c0,2.4,3.6,4.3,7.9,4.3c4.4,0,7.9-1.9,7.9-4.3
			C261.9,331.1,258.3,329.2,254,329.2z M331.1,280.9c-4.4,0-7.9,1.9-7.9,4.3c0,2.4,3.6,4.3,7.9,4.3c4.4,0,7.9-1.9,7.9-4.3
			C339,282.8,335.4,280.9,331.1,280.9z M388.9,244.7c-4.4,0-7.9,1.9-7.9,4.3c0,2.4,3.6,4.3,7.9,4.3c4.4,0,7.9-1.9,7.9-4.3
			C396.8,246.6,393.3,244.7,388.9,244.7z M369.6,256.8c-4.4,0-7.9,1.9-7.9,4.3c0,2.4,3.6,4.3,7.9,4.3c4.4,0,7.9-1.9,7.9-4.3
			C377.5,258.7,374,256.8,369.6,256.8z M350.3,268.9c-4.4,0-7.9,1.9-7.9,4.3c0,2.4,3.6,4.3,7.9,4.3s7.9-1.9,7.9-4.3
			C358.3,270.8,354.7,268.9,350.3,268.9z"/>
	</g>
	<g>
		<g>
			<polygon fill="#98CA4F" points="350.3,234.8 196.1,331.2 196.1,340 350.3,243.6 			"/>
			<polygon fill="#82B93B" points="41.9,234.7 196.1,331.2 196.1,340 41.9,243.5 			"/>
			<polygon fill="#8BC53F" points="196.1,138.3 41.9,234.7 196.1,331.2 350.3,234.8 			"/>
		</g>
		<path fill="#82B93B" d="M157.6,175.1c-4.4,0-7.9-1.9-7.9-4.3v4.2c0,2.4,3.6,4.3,7.9,4.3c4.4,0,7.9-1.9,7.9-4.3v-4.2
			C165.5,173.2,162,175.1,157.6,175.1z M176.9,283.6c-4.4,0-7.9-1.9-7.9-4.3v4.2c0,2.4,3.6,4.3,7.9,4.3c4.4,0,7.9-1.9,7.9-4.3v-4.2
			C184.8,281.7,181.2,283.6,176.9,283.6z M176.9,307.7c-4.4,0-7.9-1.9-7.9-4.3v4.2c0,2.4,3.6,4.3,7.9,4.3s7.9-1.9,7.9-4.3v-4.2
			C184.8,305.8,181.2,307.7,176.9,307.7z M157.6,271.6c-4.4,0-7.9-1.9-7.9-4.3v4.2c0,2.4,3.6,4.3,7.9,4.3c4.4,0,7.9-1.9,7.9-4.3
			v-4.2C165.5,269.7,162,271.6,157.6,271.6z M176.9,259.5c-4.4,0-7.9-1.9-7.9-4.3v4.2c0,2.4,3.6,4.3,7.9,4.3s7.9-1.9,7.9-4.3v-4.2
			C184.8,257.6,181.2,259.5,176.9,259.5z M157.6,247.5c-4.4,0-7.9-1.9-7.9-4.3v4.2c0,2.4,3.6,4.3,7.9,4.3c4.4,0,7.9-1.9,7.9-4.3
			v-4.2C165.5,245.5,162,247.5,157.6,247.5z M157.6,199.2c-4.4,0-7.9-1.9-7.9-4.3v4.2c0,2.4,3.6,4.3,7.9,4.3c4.4,0,7.9-1.9,7.9-4.3
			V195C165.5,197.3,162,199.2,157.6,199.2z M157.6,223.3c-4.4,0-7.9-1.9-7.9-4.3v4.2c0,2.4,3.6,4.3,7.9,4.3c4.4,0,7.9-1.9,7.9-4.3
			v-4.2C165.5,221.4,162,223.3,157.6,223.3z M176.9,163.1c-4.4,0-7.9-1.9-7.9-4.3v4.2c0,2.4,3.6,4.3,7.9,4.3s7.9-1.9,7.9-4.3v-4.2
			C184.8,161.2,181.2,163.1,176.9,163.1z M196.1,295.7c-4.4,0-7.9-1.9-7.9-4.3v4.2c0,2.4,3.6,4.3,7.9,4.3c4.4,0,7.9-1.9,7.9-4.3
			v-4.2C204.1,293.8,200.5,295.7,196.1,295.7z M196.1,319.8c-4.4,0-7.9-1.9-7.9-4.3v4.2c0,2.4,3.6,4.3,7.9,4.3
			c4.4,0,7.9-1.9,7.9-4.3v-4.2C204.1,317.9,200.5,319.8,196.1,319.8z M196.1,271.6c-4.4,0-7.9-1.9-7.9-4.3v4.2
			c0,2.4,3.6,4.3,7.9,4.3c4.4,0,7.9-1.9,7.9-4.3v-4.2C204.1,269.7,200.5,271.6,196.1,271.6z M176.9,235.4c-4.4,0-7.9-1.9-7.9-4.3
			v4.2c0,2.4,3.6,4.3,7.9,4.3c4.4,0,7.9-1.9,7.9-4.3v-4.2C184.8,233.5,181.2,235.4,176.9,235.4z M176.9,211.3
			c-4.4,0-7.9-1.9-7.9-4.3v4.2c0,2.4,3.6,4.3,7.9,4.3s7.9-1.9,7.9-4.3V207C184.8,209.4,181.2,211.3,176.9,211.3z M176.9,187.2
			c-4.4,0-7.9-1.9-7.9-4.3v4.2c0,2.4,3.6,4.3,7.9,4.3c4.4,0,7.9-1.9,7.9-4.3v-4.2C184.8,185.3,181.2,187.2,176.9,187.2z
			 M157.6,295.7c-4.4,0-7.9-1.9-7.9-4.3v4.2c0,2.4,3.6,4.3,7.9,4.3c4.4,0,7.9-1.9,7.9-4.3v-4.2C165.5,293.8,162,295.7,157.6,295.7z
			 M99.7,235.4c-4.4,0-7.9-1.9-7.9-4.3v4.2c0,2.4,3.6,4.3,7.9,4.3c4.4,0,7.9-1.9,7.9-4.3v-4.2C107.7,233.5,104.1,235.4,99.7,235.4z
			 M196.1,247.5c-4.4,0-7.9-1.9-7.9-4.3v4.2c0,2.4,3.6,4.3,7.9,4.3c4.4,0,7.9-1.9,7.9-4.3v-4.2C204.1,245.6,200.5,247.5,196.1,247.5
			z M99.7,259.5c-4.4,0-7.9-1.9-7.9-4.3v4.2c0,2.4,3.6,4.3,7.9,4.3s7.9-1.9,7.9-4.3v-4.2C107.7,257.6,104.1,259.5,99.7,259.5z
			 M119,271.5c-4.4,0-7.9-1.9-7.9-4.3v4.2c0,2.4,3.6,4.3,7.9,4.3c4.4,0,7.9-1.9,7.9-4.3v-4.2C127,269.6,123.4,271.5,119,271.5z
			 M99.7,211.2c-4.4,0-7.9-1.9-7.9-4.3v4.2c0,2.4,3.6,4.3,7.9,4.3s7.9-1.9,7.9-4.3V207C107.7,209.3,104.1,211.2,99.7,211.2z
			 M61.2,235.3c-4.4,0-7.9-1.9-7.9-4.3v4.2c0,2.4,3.6,4.3,7.9,4.3c4.4,0,7.9-1.9,7.9-4.3v-4.2C69.1,233.4,65.6,235.3,61.2,235.3z
			 M80.5,223.3c-4.4,0-7.9-1.9-7.9-4.3v4.2c0,2.4,3.6,4.3,7.9,4.3c4.4,0,7.9-1.9,7.9-4.3V219C88.4,221.4,84.9,223.3,80.5,223.3z
			 M80.5,247.4c-4.4,0-7.9-1.9-7.9-4.3v4.2c0,2.4,3.6,4.3,7.9,4.3c4.4,0,7.9-1.9,7.9-4.3v-4.2C88.4,245.5,84.9,247.4,80.5,247.4z
			 M119,223.3c-4.4,0-7.9-1.9-7.9-4.3v4.2c0,2.4,3.6,4.3,7.9,4.3c4.4,0,7.9-1.9,7.9-4.3V219C127,221.4,123.4,223.3,119,223.3z
			 M138.3,235.4c-4.4,0-7.9-1.9-7.9-4.3v4.2c0,2.4,3.6,4.3,7.9,4.3c4.4,0,7.9-1.9,7.9-4.3v-4.2C146.2,233.5,142.7,235.4,138.3,235.4
			z M138.3,259.5c-4.4,0-7.9-1.9-7.9-4.3v4.2c0,2.4,3.6,4.3,7.9,4.3c4.4,0,7.9-1.9,7.9-4.3v-4.2
			C146.2,257.6,142.7,259.5,138.3,259.5z M138.3,211.3c-4.4,0-7.9-1.9-7.9-4.3v4.2c0,2.4,3.6,4.3,7.9,4.3c4.4,0,7.9-1.9,7.9-4.3V207
			C146.2,209.4,142.7,211.3,138.3,211.3z M138.3,187.2c-4.4,0-7.9-1.9-7.9-4.3v4.2c0,2.4,3.6,4.3,7.9,4.3c4.4,0,7.9-1.9,7.9-4.3
			v-4.2C146.2,185.2,142.7,187.2,138.3,187.2z M119,247.4c-4.4,0-7.9-1.9-7.9-4.3v4.2c0,2.4,3.6,4.3,7.9,4.3c4.4,0,7.9-1.9,7.9-4.3
			v-4.2C127,245.5,123.4,247.4,119,247.4z M138.3,283.6c-4.4,0-7.9-1.9-7.9-4.3v4.2c0,2.4,3.6,4.3,7.9,4.3c4.4,0,7.9-1.9,7.9-4.3
			v-4.2C146.2,281.7,142.7,283.6,138.3,283.6z M119,199.2c-4.4,0-7.9-1.9-7.9-4.3v4.2c0,2.4,3.6,4.3,7.9,4.3c4.4,0,7.9-1.9,7.9-4.3
			v-4.2C127,197.3,123.4,199.2,119,199.2z M292.5,235.5c-4.4,0-7.9-1.9-7.9-4.3v4.2c0,2.4,3.6,4.3,7.9,4.3s7.9-1.9,7.9-4.3v-4.2
			C300.4,233.6,296.9,235.5,292.5,235.5z M196.1,223.4c-4.4,0-7.9-1.9-7.9-4.3v4.2c0,2.4,3.6,4.3,7.9,4.3c4.4,0,7.9-1.9,7.9-4.3
			v-4.2C204.1,221.5,200.5,223.4,196.1,223.4z M273.2,223.4c-4.4,0-7.9-1.9-7.9-4.3v4.2c0,2.4,3.6,4.3,7.9,4.3
			c4.4,0,7.9-1.9,7.9-4.3v-4.2C281.2,221.5,277.6,223.4,273.2,223.4z M254,187.2c-4.4,0-7.9-1.9-7.9-4.3v4.2c0,2.4,3.6,4.3,7.9,4.3
			c4.4,0,7.9-1.9,7.9-4.3V183C261.9,185.3,258.3,187.2,254,187.2z M273.2,247.5c-4.4,0-7.9-1.9-7.9-4.3v4.2c0,2.4,3.6,4.3,7.9,4.3
			s7.9-1.9,7.9-4.3v-4.2C281.2,245.6,277.6,247.5,273.2,247.5z M234.7,175.2c-4.4,0-7.9-1.9-7.9-4.3v4.2c0,2.4,3.6,4.3,7.9,4.3
			s7.9-1.9,7.9-4.3v-4.2C242.6,173.3,239.1,175.2,234.7,175.2z M254,283.7c-4.4,0-7.9-1.9-7.9-4.3v4.2c0,2.4,3.6,4.3,7.9,4.3
			c4.4,0,7.9-1.9,7.9-4.3v-4.2C261.9,281.8,258.3,283.7,254,283.7z M254,259.6c-4.4,0-7.9-1.9-7.9-4.3v4.2c0,2.4,3.6,4.3,7.9,4.3
			c4.4,0,7.9-1.9,7.9-4.3v-4.2C261.9,257.7,258.3,259.6,254,259.6z M254,235.5c-4.4,0-7.9-1.9-7.9-4.3v4.2c0,2.4,3.6,4.3,7.9,4.3
			c4.4,0,7.9-1.9,7.9-4.3v-4.2C261.9,233.5,258.3,235.5,254,235.5z M254,211.3c-4.4,0-7.9-1.9-7.9-4.3v4.2c0,2.4,3.6,4.3,7.9,4.3
			c4.4,0,7.9-1.9,7.9-4.3v-4.2C261.9,209.4,258.3,211.3,254,211.3z M331.1,235.5c-4.4,0-7.9-1.9-7.9-4.3v4.2c0,2.4,3.6,4.3,7.9,4.3
			c4.4,0,7.9-1.9,7.9-4.3v-4.2C339,233.6,335.4,235.5,331.1,235.5z M273.2,199.3c-4.4,0-7.9-1.9-7.9-4.3v4.2c0,2.4,3.6,4.3,7.9,4.3
			s7.9-1.9,7.9-4.3V195C281.2,197.4,277.6,199.3,273.2,199.3z M311.8,223.4c-4.4,0-7.9-1.9-7.9-4.3v4.2c0,2.4,3.6,4.3,7.9,4.3
			c4.4,0,7.9-1.9,7.9-4.3v-4.2C319.7,221.5,316.2,223.4,311.8,223.4z M292.5,259.6c-4.4,0-7.9-1.9-7.9-4.3v4.2
			c0,2.4,3.6,4.3,7.9,4.3c4.4,0,7.9-1.9,7.9-4.3v-4.2C300.4,257.7,296.9,259.6,292.5,259.6z M292.5,211.4c-4.4,0-7.9-1.9-7.9-4.3
			v4.2c0,2.4,3.6,4.3,7.9,4.3c4.4,0,7.9-1.9,7.9-4.3v-4.2C300.4,209.5,296.9,211.4,292.5,211.4z M311.8,247.5
			c-4.4,0-7.9-1.9-7.9-4.3v4.2c0,2.4,3.6,4.3,7.9,4.3c4.4,0,7.9-1.9,7.9-4.3v-4.2C319.7,245.6,316.2,247.5,311.8,247.5z
			 M273.2,271.6c-4.4,0-7.9-1.9-7.9-4.3v4.2c0,2.4,3.6,4.3,7.9,4.3c4.4,0,7.9-1.9,7.9-4.3v-4.2C281.2,269.7,277.6,271.6,273.2,271.6
			z M215.4,307.8c-4.4,0-7.9-1.9-7.9-4.3v4.2c0,2.4,3.6,4.3,7.9,4.3c4.4,0,7.9-1.9,7.9-4.3v-4.2
			C223.3,305.9,219.8,307.8,215.4,307.8z M234.7,199.3c-4.4,0-7.9-1.9-7.9-4.3v4.2c0,2.4,3.6,4.3,7.9,4.3s7.9-1.9,7.9-4.3V195
			C242.6,197.4,239.1,199.3,234.7,199.3z M215.4,259.6c-4.4,0-7.9-1.9-7.9-4.3v4.2c0,2.4,3.6,4.3,7.9,4.3c4.4,0,7.9-1.9,7.9-4.3
			v-4.2C223.3,257.6,219.8,259.6,215.4,259.6z M215.4,235.4c-4.4,0-7.9-1.9-7.9-4.3v4.2c0,2.4,3.6,4.3,7.9,4.3
			c4.4,0,7.9-1.9,7.9-4.3v-4.2C223.3,233.5,219.8,235.4,215.4,235.4z M196.1,199.3c-4.4,0-7.9-1.9-7.9-4.3v4.2
			c0,2.4,3.6,4.3,7.9,4.3c4.4,0,7.9-1.9,7.9-4.3V195C204.1,197.3,200.5,199.3,196.1,199.3z M196.1,151c-4.4,0-7.9-1.9-7.9-4.3v4.2
			c0,2.4,3.6,4.3,7.9,4.3c4.4,0,7.9-1.9,7.9-4.3v-4.2C204.1,149.1,200.5,151,196.1,151z M196.1,175.1c-4.4,0-7.9-1.9-7.9-4.3v4.2
			c0,2.4,3.6,4.3,7.9,4.3c4.4,0,7.9-1.9,7.9-4.3v-4.2C204.1,173.2,200.5,175.1,196.1,175.1z M215.4,283.7c-4.4,0-7.9-1.9-7.9-4.3
			v4.2c0,2.4,3.6,4.3,7.9,4.3c4.4,0,7.9-1.9,7.9-4.3v-4.2C223.3,281.7,219.8,283.7,215.4,283.7z M234.7,247.5
			c-4.4,0-7.9-1.9-7.9-4.3v4.2c0,2.4,3.6,4.3,7.9,4.3s7.9-1.9,7.9-4.3v-4.2C242.6,245.6,239.1,247.5,234.7,247.5z M234.7,223.4
			c-4.4,0-7.9-1.9-7.9-4.3v4.2c0,2.4,3.6,4.3,7.9,4.3s7.9-1.9,7.9-4.3v-4.2C242.6,221.5,239.1,223.4,234.7,223.4z M215.4,211.3
			c-4.4,0-7.9-1.9-7.9-4.3v4.2c0,2.4,3.6,4.3,7.9,4.3c4.4,0,7.9-1.9,7.9-4.3v-4.2C223.3,209.4,219.8,211.3,215.4,211.3z
			 M234.7,271.6c-4.4,0-7.9-1.9-7.9-4.3v4.2c0,2.4,3.6,4.3,7.9,4.3s7.9-1.9,7.9-4.3v-4.2C242.6,269.7,239.1,271.6,234.7,271.6z
			 M215.4,187.2c-4.4,0-7.9-1.9-7.9-4.3v4.2c0,2.4,3.6,4.3,7.9,4.3c4.4,0,7.9-1.9,7.9-4.3v-4.2C223.3,185.3,219.8,187.2,215.4,187.2
			z M215.4,163.1c-4.4,0-7.9-1.9-7.9-4.3v4.2c0,2.4,3.6,4.3,7.9,4.3c4.4,0,7.9-1.9,7.9-4.3v-4.2
			C223.3,161.2,219.8,163.1,215.4,163.1z M234.7,295.7c-4.4,0-7.9-1.9-7.9-4.3v4.2c0,2.4,3.6,4.3,7.9,4.3s7.9-1.9,7.9-4.3v-4.2
			C242.6,293.8,239.1,295.7,234.7,295.7z"/>
		<path fill="#98CA4F" d="M157.6,166.6c-4.4,0-7.9,1.9-7.9,4.3c0,2.4,3.6,4.3,7.9,4.3c4.4,0,7.9-1.9,7.9-4.3
			C165.5,168.5,162,166.6,157.6,166.6z M176.9,299.2c-4.4,0-7.9,1.9-7.9,4.3c0,2.4,3.6,4.3,7.9,4.3s7.9-1.9,7.9-4.3
			C184.8,301.1,181.2,299.2,176.9,299.2z M157.6,190.7c-4.4,0-7.9,1.9-7.9,4.3c0,2.4,3.6,4.3,7.9,4.3c4.4,0,7.9-1.9,7.9-4.3
			C165.5,192.6,162,190.7,157.6,190.7z M176.9,275.1c-4.4,0-7.9,1.9-7.9,4.3c0,2.4,3.6,4.3,7.9,4.3c4.4,0,7.9-1.9,7.9-4.3
			C184.8,277,181.2,275.1,176.9,275.1z M157.6,263c-4.4,0-7.9,1.9-7.9,4.3c0,2.4,3.6,4.3,7.9,4.3c4.4,0,7.9-1.9,7.9-4.3
			C165.5,264.9,162,263,157.6,263z M157.6,214.8c-4.4,0-7.9,1.9-7.9,4.3c0,2.4,3.6,4.3,7.9,4.3c4.4,0,7.9-1.9,7.9-4.3
			C165.5,216.7,162,214.8,157.6,214.8z M157.6,238.9c-4.4,0-7.9,1.9-7.9,4.3c0,2.4,3.6,4.3,7.9,4.3c4.4,0,7.9-1.9,7.9-4.3
			C165.5,240.8,162,238.9,157.6,238.9z M176.9,178.6c-4.4,0-7.9,1.9-7.9,4.3c0,2.4,3.6,4.3,7.9,4.3c4.4,0,7.9-1.9,7.9-4.3
			C184.8,180.6,181.2,178.6,176.9,178.6z M196.1,311.3c-4.4,0-7.9,1.9-7.9,4.3c0,2.4,3.6,4.3,7.9,4.3c4.4,0,7.9-1.9,7.9-4.3
			C204.1,313.2,200.5,311.3,196.1,311.3z M176.9,251c-4.4,0-7.9,1.9-7.9,4.3c0,2.4,3.6,4.3,7.9,4.3s7.9-1.9,7.9-4.3
			C184.8,252.9,181.2,251,176.9,251z M196.1,263c-4.4,0-7.9,1.9-7.9,4.3c0,2.4,3.6,4.3,7.9,4.3c4.4,0,7.9-1.9,7.9-4.3
			C204.1,265,200.5,263,196.1,263z M196.1,287.2c-4.4,0-7.9,1.9-7.9,4.3c0,2.4,3.6,4.3,7.9,4.3c4.4,0,7.9-1.9,7.9-4.3
			C204.1,289.1,200.5,287.2,196.1,287.2z M176.9,226.9c-4.4,0-7.9,1.9-7.9,4.3c0,2.4,3.6,4.3,7.9,4.3c4.4,0,7.9-1.9,7.9-4.3
			C184.8,228.8,181.2,226.9,176.9,226.9z M176.9,202.7c-4.4,0-7.9,1.9-7.9,4.3c0,2.4,3.6,4.3,7.9,4.3s7.9-1.9,7.9-4.3
			C184.8,204.7,181.2,202.7,176.9,202.7z M176.9,154.5c-4.4,0-7.9,1.9-7.9,4.3c0,2.4,3.6,4.3,7.9,4.3s7.9-1.9,7.9-4.3
			C184.8,156.4,181.2,154.5,176.9,154.5z M157.6,287.1c-4.4,0-7.9,1.9-7.9,4.3c0,2.4,3.6,4.3,7.9,4.3c4.4,0,7.9-1.9,7.9-4.3
			C165.5,289,162,287.1,157.6,287.1z M99.7,226.8c-4.4,0-7.9,1.9-7.9,4.3c0,2.4,3.6,4.3,7.9,4.3c4.4,0,7.9-1.9,7.9-4.3
			C107.7,228.7,104.1,226.8,99.7,226.8z M99.7,202.7c-4.4,0-7.9,1.9-7.9,4.3c0,2.4,3.6,4.3,7.9,4.3s7.9-1.9,7.9-4.3
			C107.7,204.6,104.1,202.7,99.7,202.7z M99.7,250.9c-4.4,0-7.9,1.9-7.9,4.3c0,2.4,3.6,4.3,7.9,4.3s7.9-1.9,7.9-4.3
			C107.7,252.8,104.1,250.9,99.7,250.9z M119,263c-4.4,0-7.9,1.9-7.9,4.3c0,2.4,3.6,4.3,7.9,4.3c4.4,0,7.9-1.9,7.9-4.3
			C127,264.9,123.4,263,119,263z M119,238.9c-4.4,0-7.9,1.9-7.9,4.3s3.6,4.3,7.9,4.3c4.4,0,7.9-1.9,7.9-4.3S123.4,238.9,119,238.9z
			 M61.2,226.8c-4.4,0-7.9,1.9-7.9,4.3c0,2.4,3.6,4.3,7.9,4.3c4.4,0,7.9-1.9,7.9-4.3C69.1,228.7,65.6,226.8,61.2,226.8z M80.5,238.9
			c-4.4,0-7.9,1.9-7.9,4.3c0,2.4,3.6,4.3,7.9,4.3c4.4,0,7.9-1.9,7.9-4.3C88.4,240.8,84.9,238.9,80.5,238.9z M80.5,214.8
			c-4.4,0-7.9,1.9-7.9,4.3c0,2.4,3.6,4.3,7.9,4.3c4.4,0,7.9-1.9,7.9-4.3C88.4,216.7,84.9,214.8,80.5,214.8z M138.3,178.6
			c-4.4,0-7.9,1.9-7.9,4.3c0,2.4,3.6,4.3,7.9,4.3c4.4,0,7.9-1.9,7.9-4.3C146.2,180.5,142.7,178.6,138.3,178.6z M138.3,202.7
			c-4.4,0-7.9,1.9-7.9,4.3c0,2.4,3.6,4.3,7.9,4.3c4.4,0,7.9-1.9,7.9-4.3C146.2,204.6,142.7,202.7,138.3,202.7z M196.1,238.9
			c-4.4,0-7.9,1.9-7.9,4.3c0,2.4,3.6,4.3,7.9,4.3c4.4,0,7.9-1.9,7.9-4.3C204.1,240.8,200.5,238.9,196.1,238.9z M138.3,226.8
			c-4.4,0-7.9,1.9-7.9,4.3c0,2.4,3.6,4.3,7.9,4.3c4.4,0,7.9-1.9,7.9-4.3C146.2,228.8,142.7,226.8,138.3,226.8z M119,214.8
			c-4.4,0-7.9,1.9-7.9,4.3c0,2.4,3.6,4.3,7.9,4.3c4.4,0,7.9-1.9,7.9-4.3C127,216.7,123.4,214.8,119,214.8z M119,190.7
			c-4.4,0-7.9,1.9-7.9,4.3c0,2.4,3.6,4.3,7.9,4.3c4.4,0,7.9-1.9,7.9-4.3C127,192.6,123.4,190.7,119,190.7z M138.3,251
			c-4.4,0-7.9,1.9-7.9,4.3c0,2.4,3.6,4.3,7.9,4.3c4.4,0,7.9-1.9,7.9-4.3C146.2,252.9,142.7,251,138.3,251z M138.3,275.1
			c-4.4,0-7.9,1.9-7.9,4.3c0,2.4,3.6,4.3,7.9,4.3c4.4,0,7.9-1.9,7.9-4.3C146.2,277,142.7,275.1,138.3,275.1z M234.7,190.7
			c-4.4,0-7.9,1.9-7.9,4.3c0,2.4,3.6,4.3,7.9,4.3s7.9-1.9,7.9-4.3C242.6,192.6,239.1,190.7,234.7,190.7z M273.2,263.1
			c-4.4,0-7.9,1.9-7.9,4.3c0,2.4,3.6,4.3,7.9,4.3c4.4,0,7.9-1.9,7.9-4.3C281.2,265,277.6,263.1,273.2,263.1z M273.2,239
			c-4.4,0-7.9,1.9-7.9,4.3c0,2.4,3.6,4.3,7.9,4.3s7.9-1.9,7.9-4.3C281.2,240.9,277.6,239,273.2,239z M254,178.7
			c-4.4,0-7.9,1.9-7.9,4.3c0,2.4,3.6,4.3,7.9,4.3c4.4,0,7.9-1.9,7.9-4.3C261.9,180.6,258.3,178.7,254,178.7z M254,202.8
			c-4.4,0-7.9,1.9-7.9,4.3c0,2.4,3.6,4.3,7.9,4.3c4.4,0,7.9-1.9,7.9-4.3C261.9,204.7,258.3,202.8,254,202.8z M254,275.1
			c-4.4,0-7.9,1.9-7.9,4.3c0,2.4,3.6,4.3,7.9,4.3c4.4,0,7.9-1.9,7.9-4.3C261.9,277.1,258.3,275.1,254,275.1z M254,226.9
			c-4.4,0-7.9,1.9-7.9,4.3c0,2.4,3.6,4.3,7.9,4.3c4.4,0,7.9-1.9,7.9-4.3C261.9,228.8,258.3,226.9,254,226.9z M273.2,214.9
			c-4.4,0-7.9,1.9-7.9,4.3c0,2.4,3.6,4.3,7.9,4.3c4.4,0,7.9-1.9,7.9-4.3C281.2,216.8,277.6,214.9,273.2,214.9z M254,251
			c-4.4,0-7.9,1.9-7.9,4.3c0,2.4,3.6,4.3,7.9,4.3c4.4,0,7.9-1.9,7.9-4.3C261.9,252.9,258.3,251,254,251z M311.8,239
			c-4.4,0-7.9,1.9-7.9,4.3c0,2.4,3.6,4.3,7.9,4.3c4.4,0,7.9-1.9,7.9-4.3C319.7,240.9,316.2,239,311.8,239z M311.8,214.9
			c-4.4,0-7.9,1.9-7.9,4.3c0,2.4,3.6,4.3,7.9,4.3c4.4,0,7.9-1.9,7.9-4.3C319.7,216.8,316.2,214.9,311.8,214.9z M273.2,190.8
			c-4.4,0-7.9,1.9-7.9,4.3c0,2.4,3.6,4.3,7.9,4.3s7.9-1.9,7.9-4.3C281.2,192.7,277.6,190.8,273.2,190.8z M331.1,227
			c-4.4,0-7.9,1.9-7.9,4.3c0,2.4,3.6,4.3,7.9,4.3c4.4,0,7.9-1.9,7.9-4.3C339,228.9,335.4,227,331.1,227z M292.5,202.8
			c-4.4,0-7.9,1.9-7.9,4.3c0,2.4,3.6,4.3,7.9,4.3c4.4,0,7.9-1.9,7.9-4.3C300.4,204.7,296.9,202.8,292.5,202.8z M292.5,251.1
			c-4.4,0-7.9,1.9-7.9,4.3c0,2.4,3.6,4.3,7.9,4.3c4.4,0,7.9-1.9,7.9-4.3C300.4,253,296.9,251.1,292.5,251.1z M292.5,226.9
			c-4.4,0-7.9,1.9-7.9,4.3c0,2.4,3.6,4.3,7.9,4.3s7.9-1.9,7.9-4.3C300.4,228.8,296.9,226.9,292.5,226.9z M196.1,142.5
			c-4.4,0-7.9,1.9-7.9,4.3c0,2.4,3.6,4.3,7.9,4.3c4.4,0,7.9-1.9,7.9-4.3C204.1,144.4,200.5,142.5,196.1,142.5z M215.4,226.9
			c-4.4,0-7.9,1.9-7.9,4.3c0,2.4,3.6,4.3,7.9,4.3c4.4,0,7.9-1.9,7.9-4.3C223.3,228.8,219.8,226.9,215.4,226.9z M215.4,251
			c-4.4,0-7.9,1.9-7.9,4.3c0,2.4,3.6,4.3,7.9,4.3c4.4,0,7.9-1.9,7.9-4.3C223.3,252.9,219.8,251,215.4,251z M215.4,299.2
			c-4.4,0-7.9,1.9-7.9,4.3c0,2.4,3.6,4.3,7.9,4.3c4.4,0,7.9-1.9,7.9-4.3C223.3,301.1,219.8,299.2,215.4,299.2z M215.4,275.1
			c-4.4,0-7.9,1.9-7.9,4.3c0,2.4,3.6,4.3,7.9,4.3c4.4,0,7.9-1.9,7.9-4.3C223.3,277,219.8,275.1,215.4,275.1z M196.1,214.8
			c-4.4,0-7.9,1.9-7.9,4.3c0,2.4,3.6,4.3,7.9,4.3c4.4,0,7.9-1.9,7.9-4.3C204.1,216.7,200.5,214.8,196.1,214.8z M196.1,190.7
			c-4.4,0-7.9,1.9-7.9,4.3c0,2.4,3.6,4.3,7.9,4.3c4.4,0,7.9-1.9,7.9-4.3C204.1,192.6,200.5,190.7,196.1,190.7z M196.1,166.6
			c-4.4,0-7.9,1.9-7.9,4.3c0,2.4,3.6,4.3,7.9,4.3c4.4,0,7.9-1.9,7.9-4.3C204.1,168.5,200.5,166.6,196.1,166.6z M215.4,202.8
			c-4.4,0-7.9,1.9-7.9,4.3c0,2.4,3.6,4.3,7.9,4.3c4.4,0,7.9-1.9,7.9-4.3C223.3,204.7,219.8,202.8,215.4,202.8z M234.7,239
			c-4.4,0-7.9,1.9-7.9,4.3c0,2.4,3.6,4.3,7.9,4.3s7.9-1.9,7.9-4.3C242.6,240.9,239.1,239,234.7,239z M234.7,263.1
			c-4.4,0-7.9,1.9-7.9,4.3c0,2.4,3.6,4.3,7.9,4.3s7.9-1.9,7.9-4.3C242.6,265,239.1,263.1,234.7,263.1z M234.7,214.8
			c-4.4,0-7.9,1.9-7.9,4.3c0,2.4,3.6,4.3,7.9,4.3s7.9-1.9,7.9-4.3C242.6,216.8,239.1,214.8,234.7,214.8z M215.4,154.6
			c-4.4,0-7.9,1.9-7.9,4.3c0,2.4,3.6,4.3,7.9,4.3c4.4,0,7.9-1.9,7.9-4.3C223.3,156.5,219.8,154.6,215.4,154.6z M234.7,287.2
			c-4.4,0-7.9,1.9-7.9,4.3c0,2.4,3.6,4.3,7.9,4.3s7.9-1.9,7.9-4.3C242.6,289.1,239.1,287.2,234.7,287.2z M215.4,178.7
			c-4.4,0-7.9,1.9-7.9,4.3c0,2.4,3.6,4.3,7.9,4.3c4.4,0,7.9-1.9,7.9-4.3C223.3,180.6,219.8,178.7,215.4,178.7z M234.7,166.6
			c-4.4,0-7.9,1.9-7.9,4.3c0,2.4,3.6,4.3,7.9,4.3s7.9-1.9,7.9-4.3C242.6,168.5,239.1,166.6,234.7,166.6z"/>
	</g>
	<g>
		<polygon fill="#76B78E" points="254,36 331.1,84.3 331.1,111.4 254,63.1 		"/>
		<polygon fill="#9AD2AD" points="369.6,60.2 331.1,84.3 331.1,111.4 369.6,87.2 		"/>
		<polygon fill="#80C99B" points="292.5,11.9 369.6,60.2 331.1,84.3 254,36 		"/>
		<path fill="#76B78E" d="M323.1,68.6v4.2c0,2.4,3.6,4.3,7.9,4.3c4.4,0,7.9-1.9,7.9-4.3v-4.2c0,2.4-3.6,4.3-7.9,4.3
			C326.7,72.9,323.1,71,323.1,68.6z M303.9,56.6v4.2c0,2.4,3.6,4.3,7.9,4.3c4.4,0,7.9-1.9,7.9-4.3v-4.2c0,2.4-3.6,4.3-7.9,4.3
			C307.4,60.8,303.9,58.9,303.9,56.6z M323.1,44.5v4.2c0,2.4,3.6,4.3,7.9,4.3c4.4,0,7.9-1.9,7.9-4.3v-4.2c0,2.4-3.6,4.3-7.9,4.3
			C326.7,48.8,323.1,46.9,323.1,44.5z M342.4,56.6v4.2c0,2.4,3.6,4.3,7.9,4.3c4.4,0,7.9-1.9,7.9-4.3v-4.2c0,2.4-3.6,4.3-7.9,4.3
			C346,60.8,342.4,58.9,342.4,56.6z M265.3,32.4v4.2c0,2.4,3.6,4.3,7.9,4.3c4.4,0,7.9-1.9,7.9-4.3v-4.2c0,2.4-3.6,4.3-7.9,4.3
			C268.9,36.7,265.3,34.8,265.3,32.4z M303.9,32.4v4.2c0,2.4,3.6,4.3,7.9,4.3c4.4,0,7.9-1.9,7.9-4.3v-4.2c0,2.4-3.6,4.3-7.9,4.3
			C307.4,36.7,303.9,34.8,303.9,32.4z M284.6,20.4v4.2c0,2.4,3.6,4.3,7.9,4.3c4.4,0,7.9-1.9,7.9-4.3v-4.2c0,2.4-3.6,4.3-7.9,4.3
			C288.1,24.6,284.6,22.7,284.6,20.4z M284.6,44.5v4.2c0,2.4,3.6,4.3,7.9,4.3c4.4,0,7.9-1.9,7.9-4.3v-4.2c0,2.4-3.6,4.3-7.9,4.3
			C288.1,48.8,284.6,46.9,284.6,44.5z"/>
		<path fill="#9AD2AD" d="M342.4,56.6c0,2.4,3.6,4.3,7.9,4.3c4.4,0,7.9-1.9,7.9-4.3c0-2.4-3.6-4.3-7.9-4.3
			C346,52.3,342.4,54.2,342.4,56.6z M323.1,44.5c0,2.4,3.6,4.3,7.9,4.3c4.4,0,7.9-1.9,7.9-4.3c0-2.4-3.6-4.3-7.9-4.3
			C326.7,40.2,323.1,42.1,323.1,44.5z M303.9,56.6c0,2.4,3.6,4.3,7.9,4.3c4.4,0,7.9-1.9,7.9-4.3c0-2.4-3.6-4.3-7.9-4.3
			C307.4,52.3,303.9,54.2,303.9,56.6z M323.1,68.6c0,2.4,3.6,4.3,7.9,4.3c4.4,0,7.9-1.9,7.9-4.3c0-2.4-3.6-4.3-7.9-4.3
			C326.7,64.4,323.1,66.3,323.1,68.6z M303.9,32.4c0,2.4,3.6,4.3,7.9,4.3c4.4,0,7.9-1.9,7.9-4.3c0-2.4-3.6-4.3-7.9-4.3
			C307.4,28.2,303.9,30.1,303.9,32.4z M265.3,32.4c0,2.4,3.6,4.3,7.9,4.3c4.4,0,7.9-1.9,7.9-4.3c0-2.4-3.6-4.3-7.9-4.3
			C268.9,28.2,265.3,30.1,265.3,32.4z M284.6,20.4c0,2.4,3.6,4.3,7.9,4.3c4.4,0,7.9-1.9,7.9-4.3c0-2.4-3.6-4.3-7.9-4.3
			C288.1,16.1,284.6,18,284.6,20.4z M284.6,44.5c0,2.4,3.6,4.3,7.9,4.3c4.4,0,7.9-1.9,7.9-4.3c0-2.4-3.6-4.3-7.9-4.3
			C288.1,40.2,284.6,42.1,284.6,44.5z"/>
	</g>
	<g>
		<polygon fill="#60C8DD" points="203.7,85.8 126.6,134 126.6,161.1 203.7,112.8 		"/>
		<polygon fill="#03ADC4" points="88,109.9 126.6,134 126.6,161.1 88,137 		"/>
		<polygon fill="#00BDD6" points="165.1,61.6 88,109.9 126.6,134 203.7,85.8 		"/>
		<path fill="#03ADC4" d="M126.6,122.6c-4.4,0-7.9-1.9-7.9-4.3v4.2c0,2.4,3.6,4.3,7.9,4.3c4.4,0,7.9-1.9,7.9-4.3v-4.2
			C134.5,120.7,131,122.6,126.6,122.6z M145.9,110.6c-4.4,0-7.9-1.9-7.9-4.3v4.2c0,2.4,3.6,4.3,7.9,4.3c4.4,0,7.9-1.9,7.9-4.3v-4.2
			C153.8,108.7,150.2,110.6,145.9,110.6z M126.6,98.5c-4.4,0-7.9-1.9-7.9-4.3v4.2c0,2.4,3.6,4.3,7.9,4.3c4.4,0,7.9-1.9,7.9-4.3v-4.2
			C134.5,96.6,131,98.5,126.6,98.5z M107.3,110.6c-4.4,0-7.9-1.9-7.9-4.3v4.2c0,2.4,3.6,4.3,7.9,4.3c4.4,0,7.9-1.9,7.9-4.3v-4.2
			C115.2,108.6,111.7,110.6,107.3,110.6z M184.4,86.4c-4.4,0-7.9-1.9-7.9-4.3v4.2c0,2.4,3.6,4.3,7.9,4.3c4.4,0,7.9-1.9,7.9-4.3v-4.2
			C192.3,84.5,188.8,86.4,184.4,86.4z M145.9,86.4c-4.4,0-7.9-1.9-7.9-4.3v4.2c0,2.4,3.6,4.3,7.9,4.3c4.4,0,7.9-1.9,7.9-4.3v-4.2
			C153.8,84.5,150.2,86.4,145.9,86.4z M165.1,74.4c-4.4,0-7.9-1.9-7.9-4.3v4.2c0,2.4,3.6,4.3,7.9,4.3c4.4,0,7.9-1.9,7.9-4.3v-4.2
			C173.1,72.5,169.5,74.4,165.1,74.4z M165.1,98.5c-4.4,0-7.9-1.9-7.9-4.3v4.2c0,2.4,3.6,4.3,7.9,4.3c4.4,0,7.9-1.9,7.9-4.3v-4.2
			C173.1,96.6,169.5,98.5,165.1,98.5z"/>
		<path fill="#60C8DD" d="M107.3,102c-4.4,0-7.9,1.9-7.9,4.3c0,2.4,3.6,4.3,7.9,4.3c4.4,0,7.9-1.9,7.9-4.3
			C115.2,103.9,111.7,102,107.3,102z M126.6,90c-4.4,0-7.9,1.9-7.9,4.3c0,2.4,3.6,4.3,7.9,4.3c4.4,0,7.9-1.9,7.9-4.3
			C134.5,91.9,131,90,126.6,90z M145.9,102c-4.4,0-7.9,1.9-7.9,4.3c0,2.4,3.6,4.3,7.9,4.3c4.4,0,7.9-1.9,7.9-4.3
			C153.8,103.9,150.2,102,145.9,102z M126.6,114.1c-4.4,0-7.9,1.9-7.9,4.3c0,2.4,3.6,4.3,7.9,4.3c4.4,0,7.9-1.9,7.9-4.3
			C134.5,116,131,114.1,126.6,114.1z M145.9,77.9c-4.4,0-7.9,1.9-7.9,4.3c0,2.4,3.6,4.3,7.9,4.3c4.4,0,7.9-1.9,7.9-4.3
			C153.8,79.8,150.2,77.9,145.9,77.9z M184.4,77.9c-4.4,0-7.9,1.9-7.9,4.3c0,2.4,3.6,4.3,7.9,4.3c4.4,0,7.9-1.9,7.9-4.3
			C192.3,79.8,188.8,77.9,184.4,77.9z M165.1,65.8c-4.4,0-7.9,1.9-7.9,4.3c0,2.4,3.6,4.3,7.9,4.3c4.4,0,7.9-1.9,7.9-4.3
			C173.1,67.7,169.5,65.8,165.1,65.8z M165.1,90c-4.4,0-7.9,1.9-7.9,4.3c0,2.4,3.6,4.3,7.9,4.3c4.4,0,7.9-1.9,7.9-4.3
			C173.1,91.9,169.5,90,165.1,90z"/>
	</g>
	<g>
		<polygon fill="#90278E" points="253.9,83.8 234.7,95.9 388.9,192.5 408.2,180.4 		"/>
		<polygon fill="#993F97" points="408.2,180.4 388.9,192.5 388.9,219.5 408.2,207.5 		"/>
		<polygon fill="#841F82" points="234.7,95.9 388.9,192.5 388.9,219.5 234.7,123 		"/>
		<path fill="#841F82" d="M342.4,152.7v4.2c0,2.4,3.6,4.3,7.9,4.3c4.4,0,7.9-1.9,7.9-4.3v-4.2c0,2.4-3.6,4.3-7.9,4.3
			C345.9,156.9,342.4,155,342.4,152.7z M361.7,164.7v4.2c0,2.4,3.6,4.3,7.9,4.3c4.4,0,7.9-1.9,7.9-4.3v-4.2c0,2.4-3.6,4.3-7.9,4.3
			C365.2,169,361.7,167.1,361.7,164.7z M323.1,140.6v4.2c0,2.4,3.6,4.3,7.9,4.3s7.9-1.9,7.9-4.3v-4.2c0,2.4-3.6,4.3-7.9,4.3
			S323.1,142.9,323.1,140.6z M380.9,176.8v4.2c0,2.4,3.6,4.3,7.9,4.3c4.4,0,7.9-1.9,7.9-4.3v-4.2c0,2.4-3.6,4.3-7.9,4.3
			C384.5,181.1,380.9,179.1,380.9,176.8z M246,92.3v4.2c0,2.4,3.6,4.3,7.9,4.3s7.9-1.9,7.9-4.3v-4.2c0,2.4-3.6,4.3-7.9,4.3
			S246,94.7,246,92.3z M303.8,128.5v4.2c0,2.4,3.6,4.3,7.9,4.3c4.4,0,7.9-1.9,7.9-4.3v-4.2c0,2.4-3.6,4.3-7.9,4.3
			C307.4,132.8,303.8,130.9,303.8,128.5z M265.3,104.4v4.2c0,2.4,3.6,4.3,7.9,4.3c4.4,0,7.9-1.9,7.9-4.3v-4.2c0,2.4-3.6,4.3-7.9,4.3
			C268.8,108.7,265.3,106.7,265.3,104.4z M284.6,116.4v4.2c0,2.4,3.6,4.3,7.9,4.3c4.4,0,7.9-1.9,7.9-4.3v-4.2c0,2.4-3.6,4.3-7.9,4.3
			C288.1,120.7,284.6,118.8,284.6,116.4z"/>
		<path fill="#993F97" d="M361.7,164.7c0,2.4,3.6,4.3,7.9,4.3c4.4,0,7.9-1.9,7.9-4.3c0-2.4-3.6-4.3-7.9-4.3
			C365.2,160.4,361.7,162.4,361.7,164.7z M342.4,152.7c0,2.4,3.6,4.3,7.9,4.3c4.4,0,7.9-1.9,7.9-4.3c0-2.4-3.6-4.3-7.9-4.3
			C345.9,148.4,342.4,150.3,342.4,152.7z M323.1,140.6c0,2.4,3.6,4.3,7.9,4.3s7.9-1.9,7.9-4.3c0-2.4-3.6-4.3-7.9-4.3
			S323.1,138.2,323.1,140.6z M380.9,176.8c0,2.4,3.6,4.3,7.9,4.3c4.4,0,7.9-1.9,7.9-4.3c0-2.4-3.6-4.3-7.9-4.3
			C384.5,172.5,380.9,174.4,380.9,176.8z M303.8,128.5c0,2.4,3.6,4.3,7.9,4.3c4.4,0,7.9-1.9,7.9-4.3c0-2.4-3.6-4.3-7.9-4.3
			C307.4,124.2,303.8,126.2,303.8,128.5z M246,92.3c0,2.4,3.6,4.3,7.9,4.3s7.9-1.9,7.9-4.3c0-2.4-3.6-4.3-7.9-4.3S246,90,246,92.3z
			 M265.3,104.4c0,2.4,3.6,4.3,7.9,4.3c4.4,0,7.9-1.9,7.9-4.3c0-2.4-3.6-4.3-7.9-4.3C268.8,100.1,265.3,102,265.3,104.4z
			 M284.6,116.4c0,2.4,3.6,4.3,7.9,4.3c4.4,0,7.9-1.9,7.9-4.3c0-2.4-3.6-4.3-7.9-4.3C288.1,112.2,284.6,114.1,284.6,116.4z"/>
	</g>
	<g>
		<polygon fill="#F37532" points="203.7,380.8 184.4,392.8 184.4,419.9 203.7,407.8 		"/>
		<polygon fill="#DB5C1E" points="107.3,344.6 184.4,392.8 184.4,419.9 107.3,371.6 		"/>
		<polygon fill="#F16522" points="126.6,332.5 107.3,344.6 184.4,392.8 203.7,380.8 		"/>
		<path fill="#DB5C1E" d="M157.2,365.1v4.2c0,2.4,3.6,4.3,7.9,4.3c4.4,0,7.9-1.9,7.9-4.3v-4.2c0,2.4-3.6,4.3-7.9,4.3
			C160.7,369.4,157.2,367.5,157.2,365.1z M176.5,377.2v4.2c0,2.4,3.6,4.3,7.9,4.3c4.4,0,7.9-1.9,7.9-4.3v-4.2c0,2.4-3.6,4.3-7.9,4.3
			C180,381.5,176.5,379.5,176.5,377.2z M118.6,341v4.2c0,2.4,3.6,4.3,7.9,4.3c4.4,0,7.9-1.9,7.9-4.3V341c0,2.4-3.6,4.3-7.9,4.3
			C122.2,345.2,118.6,343.3,118.6,341z M137.9,353v4.2c0,2.4,3.6,4.3,7.9,4.3c4.4,0,7.9-1.9,7.9-4.3V353c0,2.4-3.6,4.3-7.9,4.3
			C141.5,357.3,137.9,355.4,137.9,353z"/>
		<path fill="#F37532" d="M157.2,365.1c0,2.4,3.6,4.3,7.9,4.3c4.4,0,7.9-1.9,7.9-4.3c0-2.4-3.6-4.3-7.9-4.3
			C160.7,360.8,157.2,362.7,157.2,365.1z M176.5,377.2c0,2.4,3.6,4.3,7.9,4.3c4.4,0,7.9-1.9,7.9-4.3c0-2.4-3.6-4.3-7.9-4.3
			C180,372.9,176.5,374.8,176.5,377.2z M118.6,341c0,2.4,3.6,4.3,7.9,4.3c4.4,0,7.9-1.9,7.9-4.3c0-2.4-3.6-4.3-7.9-4.3
			C122.2,336.7,118.6,338.6,118.6,341z M137.9,353c0,2.4,3.6,4.3,7.9,4.3c4.4,0,7.9-1.9,7.9-4.3c0-2.4-3.6-4.3-7.9-4.3
			C141.5,348.8,137.9,350.7,137.9,353z"/>
	</g>
	<g>
		<polygon fill="#C5C7C9" points="408.2,300.8 427.4,312.9 427.4,340 408.2,327.9 		"/>
		<polygon fill="#DBDCDD" points="466,288.8 427.4,312.9 427.4,340 466,315.8 		"/>
		<polygon fill="#D0D2D3" points="446.7,276.7 466,288.8 427.4,312.9 408.2,300.8 		"/>
		<path fill="#C5C7C9" d="M419.5,297.2v4.2c0,2.4,3.6,4.3,7.9,4.3c4.4,0,7.9-1.9,7.9-4.3v-4.2c0,2.4-3.6,4.3-7.9,4.3
			C423,301.5,419.5,299.6,419.5,297.2z M438.8,285.2v4.2c0,2.4,3.6,4.3,7.9,4.3c4.4,0,7.9-1.9,7.9-4.3v-4.2c0,2.4-3.6,4.3-7.9,4.3
			C442.3,289.4,438.8,287.5,438.8,285.2z"/>
		<path fill="#DBDCDD" d="M419.5,297.2c0,2.4,3.6,4.3,7.9,4.3c4.4,0,7.9-1.9,7.9-4.3c0-2.4-3.6-4.3-7.9-4.3
			C423,293,419.5,294.9,419.5,297.2z M438.8,285.2c0,2.4,3.6,4.3,7.9,4.3c4.4,0,7.9-1.9,7.9-4.3c0-2.4-3.6-4.3-7.9-4.3
			C442.3,280.9,438.8,282.8,438.8,285.2z"/>
	</g>
	<g>
		<polygon fill="#FDBE33" points="106,305 67.4,329.2 67.4,356.2 106,332.1 		"/>
		<polygon fill="#E5A812" points="28.9,305 67.4,329.2 67.4,356.2 28.9,332.1 		"/>
		<polygon fill="#FCB813" points="67.4,280.9 28.9,305 67.4,329.2 106,305 		"/>
		<path fill="#E5A812" d="M67.4,317.8c-4.4,0-7.9-1.9-7.9-4.3v4.2c0,2.4,3.6,4.3,7.9,4.3c4.4,0,7.9-1.9,7.9-4.3v-4.2
			C75.4,315.9,71.8,317.8,67.4,317.8z M48.1,305.7c-4.4,0-7.9-1.9-7.9-4.3v4.2c0,2.4,3.6,4.3,7.9,4.3c4.4,0,7.9-1.9,7.9-4.3v-4.2
			C56.1,303.8,52.5,305.7,48.1,305.7z M86.7,305.7c-4.4,0-7.9-1.9-7.9-4.3v4.2c0,2.4,3.6,4.3,7.9,4.3c4.4,0,7.9-1.9,7.9-4.3v-4.2
			C94.6,303.8,91.1,305.7,86.7,305.7z M67.4,293.6c-4.4,0-7.9-1.9-7.9-4.3v4.2c0,2.4,3.6,4.3,7.9,4.3c4.4,0,7.9-1.9,7.9-4.3v-4.2
			C75.4,291.7,71.8,293.6,67.4,293.6z"/>
		<path fill="#FDBE33" d="M67.4,309.2c-4.4,0-7.9,1.9-7.9,4.3c0,2.4,3.6,4.3,7.9,4.3c4.4,0,7.9-1.9,7.9-4.3
			C75.4,311.1,71.8,309.2,67.4,309.2z M48.1,297.2c-4.4,0-7.9,1.9-7.9,4.3c0,2.4,3.6,4.3,7.9,4.3c4.4,0,7.9-1.9,7.9-4.3
			C56.1,299.1,52.5,297.2,48.1,297.2z M67.4,285.1c-4.4,0-7.9,1.9-7.9,4.3c0,2.4,3.6,4.3,7.9,4.3c4.4,0,7.9-1.9,7.9-4.3
			C75.4,287,71.8,285.1,67.4,285.1z M86.7,297.2c-4.4,0-7.9,1.9-7.9,4.3c0,2.4,3.6,4.3,7.9,4.3c4.4,0,7.9-1.9,7.9-4.3
			C94.6,299.1,91.1,297.2,86.7,297.2z"/>
	</g>
	<g>
		<g>
			<polygon fill="#626366" points="80.5,144.2 61.2,156.2 61.2,183.3 80.5,171.2 			"/>
			<polygon fill="#404041" points="41.9,144.2 61.2,156.2 61.2,183.3 41.9,171.2 			"/>
			<polygon fill="#58595B" points="61.2,132.1 41.9,144.2 61.2,156.2 80.5,144.2 			"/>
		</g>
		<g>
			<path fill="#404041" d="M69.1,144.7c0,2.4-3.6,4.3-7.9,4.3c-4.4,0-7.9-1.9-7.9-4.3v-4.2c0,2.4,3.6,4.3,7.9,4.3
				c4.4,0,7.9-1.9,7.9-4.3V144.7z"/>
			<ellipse fill="#626366" cx="61.2" cy="140.6" rx="7.9" ry="4.3"/>
		</g>
	</g>
	<g>
		<g>
			<polygon fill="#76B78E" points="583.9,318.2 661,366.5 661,393.5 583.9,345.3 			"/>
			<polygon fill="#9AD2AD" points="699.6,342.3 661,366.5 661,393.5 699.6,369.4 			"/>
			<polygon fill="#80C99B" points="622.5,294.1 699.6,342.3 661,366.5 583.9,318.2 			"/>
			<path fill="#76B78E" d="M653.1,350.8v4.2c0,2.4,3.6,4.3,7.9,4.3c4.4,0,7.9-1.9,7.9-4.3v-4.2c0,2.4-3.6,4.3-7.9,4.3
				C656.6,355.1,653.1,353.1,653.1,350.8z M633.8,338.7v4.2c0,2.4,3.6,4.3,7.9,4.3c4.4,0,7.9-1.9,7.9-4.3v-4.2
				c0,2.4-3.6,4.3-7.9,4.3C637.4,343,633.8,341.1,633.8,338.7z M653.1,326.7v4.2c0,2.4,3.6,4.3,7.9,4.3c4.4,0,7.9-1.9,7.9-4.3v-4.2
				c0,2.4-3.6,4.3-7.9,4.3C656.6,330.9,653.1,329,653.1,326.7z M672.4,338.7v4.2c0,2.4,3.6,4.3,7.9,4.3c4.4,0,7.9-1.9,7.9-4.3v-4.2
				c0,2.4-3.6,4.3-7.9,4.3C675.9,343,672.4,341.1,672.4,338.7z M595.3,314.6v4.2c0,2.4,3.6,4.3,7.9,4.3c4.4,0,7.9-1.9,7.9-4.3v-4.2
				c0,2.4-3.6,4.3-7.9,4.3C598.8,318.9,595.3,317,595.3,314.6z M633.8,314.6v4.2c0,2.4,3.6,4.3,7.9,4.3c4.4,0,7.9-1.9,7.9-4.3v-4.2
				c0,2.4-3.6,4.3-7.9,4.3C637.4,318.9,633.8,317,633.8,314.6z M614.5,302.5v4.2c0,2.4,3.6,4.3,7.9,4.3c4.4,0,7.9-1.9,7.9-4.3v-4.2
				c0,2.4-3.6,4.3-7.9,4.3C618.1,306.8,614.5,304.9,614.5,302.5z M614.5,326.7v4.2c0,2.4,3.6,4.3,7.9,4.3c4.4,0,7.9-1.9,7.9-4.3
				v-4.2c0,2.4-3.6,4.3-7.9,4.3C618.1,330.9,614.5,329,614.5,326.7z"/>
			<path fill="#9AD2AD" d="M672.4,338.7c0,2.4,3.6,4.3,7.9,4.3c4.4,0,7.9-1.9,7.9-4.3c0-2.4-3.6-4.3-7.9-4.3
				C675.9,334.4,672.4,336.4,672.4,338.7z M653.1,326.7c0,2.4,3.6,4.3,7.9,4.3c4.4,0,7.9-1.9,7.9-4.3c0-2.4-3.6-4.3-7.9-4.3
				C656.6,322.4,653.1,324.3,653.1,326.7z M633.8,338.7c0,2.4,3.6,4.3,7.9,4.3c4.4,0,7.9-1.9,7.9-4.3c0-2.4-3.6-4.3-7.9-4.3
				C637.4,334.5,633.8,336.4,633.8,338.7z M653.1,350.8c0,2.4,3.6,4.3,7.9,4.3c4.4,0,7.9-1.9,7.9-4.3c0-2.4-3.6-4.3-7.9-4.3
				C656.6,346.5,653.1,348.4,653.1,350.8z M633.8,314.6c0,2.4,3.6,4.3,7.9,4.3c4.4,0,7.9-1.9,7.9-4.3c0-2.4-3.6-4.3-7.9-4.3
				C637.4,310.3,633.8,312.2,633.8,314.6z M595.3,314.6c0,2.4,3.6,4.3,7.9,4.3c4.4,0,7.9-1.9,7.9-4.3c0-2.4-3.6-4.3-7.9-4.3
				C598.8,310.3,595.3,312.2,595.3,314.6z M614.5,302.5c0,2.4,3.6,4.3,7.9,4.3c4.4,0,7.9-1.9,7.9-4.3c0-2.4-3.6-4.3-7.9-4.3
				C618.1,298.3,614.5,300.2,614.5,302.5z M614.5,326.7c0,2.4,3.6,4.3,7.9,4.3c4.4,0,7.9-1.9,7.9-4.3c0-2.4-3.6-4.3-7.9-4.3
				C618.1,322.4,614.5,324.3,614.5,326.7z"/>
		</g>
		<g>
			<polygon fill="#FDBE33" points="661,291.1 622.5,315.2 622.5,342.3 661,318.2 			"/>
			<polygon fill="#E5A812" points="583.9,291.1 622.5,315.2 622.5,342.3 583.9,318.2 			"/>
			<polygon fill="#FCB813" points="622.5,267 583.9,291.1 622.5,315.2 661,291.1 			"/>
			<path fill="#E5A812" d="M622.5,303.8c-4.4,0-7.9-1.9-7.9-4.3v4.2c0,2.4,3.6,4.3,7.9,4.3c4.4,0,7.9-1.9,7.9-4.3v-4.2
				C630.4,301.9,626.9,303.8,622.5,303.8z M603.2,291.8c-4.4,0-7.9-1.9-7.9-4.3v4.2c0,2.4,3.6,4.3,7.9,4.3c4.4,0,7.9-1.9,7.9-4.3
				v-4.2C611.1,289.9,607.6,291.8,603.2,291.8z M641.7,291.8c-4.4,0-7.9-1.9-7.9-4.3v4.2c0,2.4,3.6,4.3,7.9,4.3
				c4.4,0,7.9-1.9,7.9-4.3v-4.2C649.7,289.9,646.1,291.8,641.7,291.8z M622.5,279.7c-4.4,0-7.9-1.9-7.9-4.3v4.2
				c0,2.4,3.6,4.3,7.9,4.3c4.4,0,7.9-1.9,7.9-4.3v-4.2C630.4,277.8,626.9,279.7,622.5,279.7z"/>
			<path fill="#FDBE33" d="M622.5,295.3c-4.4,0-7.9,1.9-7.9,4.3c0,2.4,3.6,4.3,7.9,4.3c4.4,0,7.9-1.9,7.9-4.3
				C630.4,297.2,626.9,295.3,622.5,295.3z M603.2,283.2c-4.4,0-7.9,1.9-7.9,4.3c0,2.4,3.6,4.3,7.9,4.3c4.4,0,7.9-1.9,7.9-4.3
				C611.1,285.1,607.6,283.2,603.2,283.2z M622.5,271.2c-4.4,0-7.9,1.9-7.9,4.3c0,2.4,3.6,4.3,7.9,4.3c4.4,0,7.9-1.9,7.9-4.3
				C630.4,273.1,626.9,271.2,622.5,271.2z M641.7,283.2c-4.4,0-7.9,1.9-7.9,4.3c0,2.4,3.6,4.3,7.9,4.3c4.4,0,7.9-1.9,7.9-4.3
				C649.7,285.2,646.1,283.2,641.7,283.2z"/>
		</g>
		<g>
			<polygon fill="#60C8DD" points="661,263.9 583.9,312.2 583.9,339.2 661,291 			"/>
			<polygon fill="#03ADC4" points="545.4,288 583.9,312.2 583.9,339.2 545.4,315.1 			"/>
			<polygon fill="#00BDD6" points="622.5,239.8 545.4,288 583.9,312.2 661,263.9 			"/>
			<path fill="#03ADC4" d="M583.9,300.8c-4.4,0-7.9-1.9-7.9-4.3v4.2c0,2.4,3.6,4.3,7.9,4.3c4.4,0,7.9-1.9,7.9-4.3v-4.2
				C591.9,298.9,588.3,300.8,583.9,300.8z M603.2,288.7c-4.4,0-7.9-1.9-7.9-4.3v4.2c0,2.4,3.6,4.3,7.9,4.3c4.4,0,7.9-1.9,7.9-4.3
				v-4.2C611.1,286.8,607.6,288.7,603.2,288.7z M583.9,276.7c-4.4,0-7.9-1.9-7.9-4.3v4.2c0,2.4,3.6,4.3,7.9,4.3
				c4.4,0,7.9-1.9,7.9-4.3v-4.2C591.9,274.7,588.3,276.7,583.9,276.7z M564.6,288.7c-4.4,0-7.9-1.9-7.9-4.3v4.2
				c0,2.4,3.6,4.3,7.9,4.3c4.4,0,7.9-1.9,7.9-4.3v-4.2C572.6,286.8,569,288.7,564.6,288.7z M641.7,264.6c-4.4,0-7.9-1.9-7.9-4.3v4.2
				c0,2.4,3.6,4.3,7.9,4.3c4.4,0,7.9-1.9,7.9-4.3v-4.2C649.7,262.7,646.1,264.6,641.7,264.6z M603.2,264.6c-4.4,0-7.9-1.9-7.9-4.3
				v4.2c0,2.4,3.6,4.3,7.9,4.3c4.4,0,7.9-1.9,7.9-4.3v-4.2C611.1,262.7,607.6,264.6,603.2,264.6z M622.5,252.5
				c-4.4,0-7.9-1.9-7.9-4.3v4.2c0,2.4,3.6,4.3,7.9,4.3c4.4,0,7.9-1.9,7.9-4.3v-4.2C630.4,250.6,626.9,252.5,622.5,252.5z
				 M622.5,276.7c-4.4,0-7.9-1.9-7.9-4.3v4.2c0,2.4,3.6,4.3,7.9,4.3c4.4,0,7.9-1.9,7.9-4.3v-4.2
				C630.4,274.7,626.9,276.7,622.5,276.7z"/>
			<path fill="#60C8DD" d="M564.6,280.2c-4.4,0-7.9,1.9-7.9,4.3c0,2.4,3.6,4.3,7.9,4.3c4.4,0,7.9-1.9,7.9-4.3
				C572.6,282.1,569,280.2,564.6,280.2z M583.9,268.1c-4.4,0-7.9,1.9-7.9,4.3c0,2.4,3.6,4.3,7.9,4.3c4.4,0,7.9-1.9,7.9-4.3
				C591.9,270,588.3,268.1,583.9,268.1z M603.2,280.2c-4.4,0-7.9,1.9-7.9,4.3c0,2.4,3.6,4.3,7.9,4.3c4.4,0,7.9-1.9,7.9-4.3
				C611.1,282.1,607.6,280.2,603.2,280.2z M583.9,292.2c-4.4,0-7.9,1.9-7.9,4.3c0,2.4,3.6,4.3,7.9,4.3c4.4,0,7.9-1.9,7.9-4.3
				C591.9,294.1,588.3,292.2,583.9,292.2z M603.2,256c-4.4,0-7.9,1.9-7.9,4.3c0,2.4,3.6,4.3,7.9,4.3c4.4,0,7.9-1.9,7.9-4.3
				C611.1,258,607.6,256,603.2,256z M641.7,256c-4.4,0-7.9,1.9-7.9,4.3c0,2.4,3.6,4.3,7.9,4.3c4.4,0,7.9-1.9,7.9-4.3
				C649.7,258,646.1,256,641.7,256z M622.5,244c-4.4,0-7.9,1.9-7.9,4.3c0,2.4,3.6,4.3,7.9,4.3c4.4,0,7.9-1.9,7.9-4.3
				C630.4,245.9,626.9,244,622.5,244z M622.5,268.1c-4.4,0-7.9,1.9-7.9,4.3c0,2.4,3.6,4.3,7.9,4.3c4.4,0,7.9-1.9,7.9-4.3
				C630.4,270,626.9,268.1,622.5,268.1z"/>
		</g>
		<g>
			<polygon fill="#FDBE33" points="661,236.8 622.5,260.9 622.5,288 661,263.9 			"/>
			<polygon fill="#E5A812" points="583.9,236.8 622.5,260.9 622.5,288 583.9,263.9 			"/>
			<polygon fill="#FCB813" points="622.5,212.7 583.9,236.8 622.5,260.9 661,236.8 			"/>
			<path fill="#E5A812" d="M622.5,249.5c-4.4,0-7.9-1.9-7.9-4.3v4.2c0,2.4,3.6,4.3,7.9,4.3c4.4,0,7.9-1.9,7.9-4.3v-4.2
				C630.4,247.6,626.9,249.5,622.5,249.5z M603.2,237.5c-4.4,0-7.9-1.9-7.9-4.3v4.2c0,2.4,3.6,4.3,7.9,4.3c4.4,0,7.9-1.9,7.9-4.3
				v-4.2C611.1,235.6,607.6,237.5,603.2,237.5z M641.7,237.5c-4.4,0-7.9-1.9-7.9-4.3v4.2c0,2.4,3.6,4.3,7.9,4.3
				c4.4,0,7.9-1.9,7.9-4.3v-4.2C649.7,235.6,646.1,237.5,641.7,237.5z M622.5,225.4c-4.4,0-7.9-1.9-7.9-4.3v4.2
				c0,2.4,3.6,4.3,7.9,4.3c4.4,0,7.9-1.9,7.9-4.3v-4.2C630.4,223.5,626.9,225.4,622.5,225.4z"/>
			<path fill="#FDBE33" d="M622.5,241c-4.4,0-7.9,1.9-7.9,4.3c0,2.4,3.6,4.3,7.9,4.3c4.4,0,7.9-1.9,7.9-4.3
				C630.4,242.9,626.9,241,622.5,241z M603.2,228.9c-4.4,0-7.9,1.9-7.9,4.3c0,2.4,3.6,4.3,7.9,4.3c4.4,0,7.9-1.9,7.9-4.3
				C611.1,230.8,607.6,228.9,603.2,228.9z M622.5,216.9c-4.4,0-7.9,1.9-7.9,4.3c0,2.4,3.6,4.3,7.9,4.3c4.4,0,7.9-1.9,7.9-4.3
				C630.4,218.8,626.9,216.9,622.5,216.9z M641.7,228.9c-4.4,0-7.9,1.9-7.9,4.3c0,2.4,3.6,4.3,7.9,4.3c4.4,0,7.9-1.9,7.9-4.3
				C649.7,230.8,646.1,228.9,641.7,228.9z"/>
		</g>
		<g>
			<polygon fill="#76B78E" points="545.4,185.6 622.5,233.9 622.5,260.9 545.4,212.7 			"/>
			<polygon fill="#9AD2AD" points="661,209.7 622.5,233.9 622.5,260.9 661,236.8 			"/>
			<polygon fill="#80C99B" points="583.9,161.5 661,209.7 622.5,233.9 545.4,185.6 			"/>
			<path fill="#76B78E" d="M614.5,218.2v4.2c0,2.4,3.6,4.3,7.9,4.3c4.4,0,7.9-1.9,7.9-4.3v-4.2c0,2.4-3.6,4.3-7.9,4.3
				C618.1,222.5,614.5,220.6,614.5,218.2z M595.3,206.1v4.2c0,2.4,3.6,4.3,7.9,4.3c4.4,0,7.9-1.9,7.9-4.3v-4.2
				c0,2.4-3.6,4.3-7.9,4.3C598.8,210.4,595.3,208.5,595.3,206.1z M614.5,194.1v4.2c0,2.4,3.6,4.3,7.9,4.3c4.4,0,7.9-1.9,7.9-4.3
				v-4.2c0,2.4-3.6,4.3-7.9,4.3C618.1,198.3,614.5,196.4,614.5,194.1z M633.8,206.1v4.2c0,2.4,3.6,4.3,7.9,4.3
				c4.4,0,7.9-1.9,7.9-4.3v-4.2c0,2.4-3.6,4.3-7.9,4.3C637.4,210.4,633.8,208.5,633.8,206.1z M556.7,182v4.2c0,2.4,3.6,4.3,7.9,4.3
				c4.4,0,7.9-1.9,7.9-4.3V182c0,2.4-3.6,4.3-7.9,4.3C560.3,186.3,556.7,184.4,556.7,182z M595.3,182v4.2c0,2.4,3.6,4.3,7.9,4.3
				c4.4,0,7.9-1.9,7.9-4.3V182c0,2.4-3.6,4.3-7.9,4.3C598.8,186.3,595.3,184.4,595.3,182z M576,169.9v4.2c0,2.4,3.6,4.3,7.9,4.3
				c4.4,0,7.9-1.9,7.9-4.3v-4.2c0,2.4-3.6,4.3-7.9,4.3C579.5,174.2,576,172.3,576,169.9z M576,194.1v4.2c0,2.4,3.6,4.3,7.9,4.3
				c4.4,0,7.9-1.9,7.9-4.3v-4.2c0,2.4-3.6,4.3-7.9,4.3C579.5,198.3,576,196.4,576,194.1z"/>
			<path fill="#9AD2AD" d="M633.8,206.1c0,2.4,3.6,4.3,7.9,4.3c4.4,0,7.9-1.9,7.9-4.3c0-2.4-3.6-4.3-7.9-4.3
				C637.4,201.9,633.8,203.8,633.8,206.1z M614.5,194.1c0,2.4,3.6,4.3,7.9,4.3c4.4,0,7.9-1.9,7.9-4.3c0-2.4-3.6-4.3-7.9-4.3
				C618.1,189.8,614.5,191.7,614.5,194.1z M595.3,206.1c0,2.4,3.6,4.3,7.9,4.3c4.4,0,7.9-1.9,7.9-4.3c0-2.4-3.6-4.3-7.9-4.3
				C598.8,201.9,595.3,203.8,595.3,206.1z M614.5,218.2c0,2.4,3.6,4.3,7.9,4.3c4.4,0,7.9-1.9,7.9-4.3c0-2.4-3.6-4.3-7.9-4.3
				C618.1,213.9,614.5,215.8,614.5,218.2z M595.3,182c0,2.4,3.6,4.3,7.9,4.3c4.4,0,7.9-1.9,7.9-4.3c0-2.4-3.6-4.3-7.9-4.3
				C598.8,177.7,595.3,179.6,595.3,182z M556.7,182c0,2.4,3.6,4.3,7.9,4.3c4.4,0,7.9-1.9,7.9-4.3c0-2.4-3.6-4.3-7.9-4.3
				C560.3,177.7,556.7,179.6,556.7,182z M576,169.9c0,2.4,3.6,4.3,7.9,4.3c4.4,0,7.9-1.9,7.9-4.3c0-2.4-3.6-4.3-7.9-4.3
				C579.5,165.7,576,167.6,576,169.9z M576,194.1c0,2.4,3.6,4.3,7.9,4.3c4.4,0,7.9-1.9,7.9-4.3c0-2.4-3.6-4.3-7.9-4.3
				C579.5,189.8,576,191.7,576,194.1z"/>
		</g>
		<g>
			<polygon fill="#FDBE33" points="661,182.7 622.5,206.8 622.5,233.9 661,209.7 			"/>
			<polygon fill="#E5A812" points="583.9,182.7 622.5,206.8 622.5,233.9 583.9,209.7 			"/>
			<polygon fill="#FCB813" points="622.5,158.5 583.9,182.7 622.5,206.8 661,182.7 			"/>
			<path fill="#E5A812" d="M622.5,195.4c-4.4,0-7.9-1.9-7.9-4.3v4.2c0,2.4,3.6,4.3,7.9,4.3c4.4,0,7.9-1.9,7.9-4.3v-4.2
				C630.4,193.5,626.9,195.4,622.5,195.4z M603.2,183.3c-4.4,0-7.9-1.9-7.9-4.3v4.2c0,2.4,3.6,4.3,7.9,4.3c4.4,0,7.9-1.9,7.9-4.3
				v-4.2C611.1,181.4,607.6,183.3,603.2,183.3z M641.7,183.4c-4.4,0-7.9-1.9-7.9-4.3v4.2c0,2.4,3.6,4.3,7.9,4.3
				c4.4,0,7.9-1.9,7.9-4.3v-4.2C649.7,181.4,646.1,183.4,641.7,183.4z M622.5,171.3c-4.4,0-7.9-1.9-7.9-4.3v4.2
				c0,2.4,3.6,4.3,7.9,4.3c4.4,0,7.9-1.9,7.9-4.3V167C630.4,169.4,626.9,171.3,622.5,171.3z"/>
			<path fill="#FDBE33" d="M622.5,186.9c-4.4,0-7.9,1.9-7.9,4.3c0,2.4,3.6,4.3,7.9,4.3c4.4,0,7.9-1.9,7.9-4.3
				C630.4,188.8,626.9,186.9,622.5,186.9z M603.2,174.8c-4.4,0-7.9,1.9-7.9,4.3c0,2.4,3.6,4.3,7.9,4.3c4.4,0,7.9-1.9,7.9-4.3
				C611.1,176.7,607.6,174.8,603.2,174.8z M622.5,162.7c-4.4,0-7.9,1.9-7.9,4.3c0,2.4,3.6,4.3,7.9,4.3c4.4,0,7.9-1.9,7.9-4.3
				C630.4,164.7,626.9,162.7,622.5,162.7z M641.7,174.8c-4.4,0-7.9,1.9-7.9,4.3c0,2.4,3.6,4.3,7.9,4.3c4.4,0,7.9-1.9,7.9-4.3
				C649.7,176.7,646.1,174.8,641.7,174.8z"/>
		</g>
		<g>
			<polygon fill="#9F7D56" points="661,155.7 641.7,167.7 641.7,194.8 661,182.7 			"/>
			<polygon fill="#876840" points="603.2,143.6 641.7,167.7 641.7,194.8 603.2,170.7 			"/>
			<polygon fill="#967348" points="622.5,131.5 603.2,143.6 641.7,167.7 661,155.7 			"/>
			<path fill="#876840" d="M641.7,156.3c-4.4,0-7.9-1.9-7.9-4.3v4.2c0,2.4,3.6,4.3,7.9,4.3c4.4,0,7.9-1.9,7.9-4.3v-4.2
				C649.7,154.4,646.1,156.3,641.7,156.3z M622.5,144.3c-4.4,0-7.9-1.9-7.9-4.3v4.2c0,2.4,3.6,4.3,7.9,4.3c4.4,0,7.9-1.9,7.9-4.3
				V140C630.4,142.4,626.9,144.3,622.5,144.3z"/>
			<path fill="#9F7D56" d="M641.7,147.8c-4.4,0-7.9,1.9-7.9,4.3c0,2.4,3.6,4.3,7.9,4.3c4.4,0,7.9-1.9,7.9-4.3
				C649.7,149.7,646.1,147.8,641.7,147.8z M622.5,135.7c-4.4,0-7.9,1.9-7.9,4.3c0,2.4,3.6,4.3,7.9,4.3c4.4,0,7.9-1.9,7.9-4.3
				C630.4,137.6,626.9,135.7,622.5,135.7z"/>
		</g>
		<g>
			<g>
				<polygon fill="#626366" points="641.7,116.5 622.5,128.6 622.5,155.7 641.7,143.6 				"/>
				<polygon fill="#404041" points="603.2,116.5 622.5,128.6 622.5,155.7 603.2,143.6 				"/>
				<polygon fill="#58595B" points="622.5,104.5 603.2,116.5 622.5,128.6 641.7,116.5 				"/>
			</g>
			<g>
				<path fill="#404041" d="M630.4,117.1c0,2.4-3.6,4.3-7.9,4.3s-7.9-1.9-7.9-4.3v-4.2c0,2.4,3.6,4.3,7.9,4.3s7.9-1.9,7.9-4.3V117.1
					z"/>
				<ellipse fill="#626366" cx="622.5" cy="112.9" rx="7.9" ry="4.3"/>
			</g>
		</g>
	</g>
	<text transform="matrix(1 0 0 1 155.4892 472.569)" font-family="'Calibri'" font-size="25">Building blocks</text>
	<text transform="matrix(1 0 0 1 556.3716 472.5685)" font-family="'Calibri'" font-size="25">Presentation</text>
</g>
<g id="bookstoweb">
</g>
<g id="visualsengage">
</g>
</svg>
