<?xml version="1.0" encoding="utf-8"?>
<!-- Generator: Adobe Illustrator 18.1.1, SVG Export Plug-In . SVG Version: 6.00 Build 0)  -->
<svg version="1.1" xmlns="http://www.w3.org/2000/svg" xmlns:xlink="http://www.w3.org/1999/xlink" x="0px" y="0px"
	 viewBox="0 0 767 505.7" enable-background="new 0 0 767 505.7" xml:space="preserve">
<g id="turning_x5F_point">
</g>
<g id="user_x5F_centered_x5F_doc">
	<rect y="0.7" fill="#FFFFFF" width="767" height="506.7"/>
	<g>
		<g>
			<g>
				<g>
					<path fill="#FDB913" stroke="#000000" stroke-width="0.5" stroke-miterlimit="10" d="M180.9,263.2L31.9,214.8
						c21.4-65.8,79.7-108.2,148.9-108.2V263.2z"/>
				</g>
			</g>
			<g>
				<g>
					<path fill="#FFF200" stroke="#000000" stroke-width="0.5" stroke-miterlimit="10" d="M180.9,263.2l-92,126.7
						c-56-40.7-78.3-109.3-56.9-175.1L180.9,263.2z"/>
				</g>
			</g>
			<g>
				<g>
					<path fill="#00A651" stroke="#000000" stroke-width="0.5" stroke-miterlimit="10" d="M180.9,263.2l92,126.7
						c-56,40.7-128.1,40.7-184.1,0L180.9,263.2z"/>
				</g>
			</g>
			<g>
				<g>
					<path fill="#AC70E0" stroke="#000000" stroke-width="0.5" stroke-miterlimit="10" d="M180.9,263.2l148.9-48.4
						c21.4,65.8-0.9,134.4-56.9,175.1L180.9,263.2z"/>
				</g>
			</g>
			<g>
				<g>
					<path fill="#6DCFF6" stroke="#000000" stroke-width="0.5" stroke-miterlimit="10" d="M180.9,263.2V106.6
						c69.2,0,127.5,42.4,148.9,108.2L180.9,263.2z"/>
				</g>
			</g>
		</g>
		<g>
			<g>
			</g>
			<g>
			</g>
			<g>
			</g>
			<g>
			</g>
			<g>
			</g>
		</g>
	</g>
	<circle fill="#FFFFFF" stroke="#000000" stroke-width="0.5" stroke-miterlimit="10" cx="179.7" cy="262.3" r="117.8"/>
	
		<radialGradient id="SVGID_1_" cx="-2277.6233" cy="148.5784" r="79.8727" gradientTransform="matrix(-1.1754 0 0 1.112 -2452.293 46.8296)" gradientUnits="userSpaceOnUse">
		<stop  offset="5.222240e-03" style="stop-color:#929497"/>
		<stop  offset="7.321282e-02" style="stop-color:#ABADAF"/>
		<stop  offset="0.1546" style="stop-color:#C1C2C4"/>
		<stop  offset="0.2508" style="stop-color:#D2D3D4"/>
		<stop  offset="0.3698" style="stop-color:#DDDEE0"/>
		<stop  offset="0.5366" style="stop-color:#E4E5E6"/>
		<stop  offset="1" style="stop-color:#E6E7E8"/>
	</radialGradient>
	<ellipse fill="url(#SVGID_1_)" cx="189.1" cy="191.5" rx="15.9" ry="19.2"/>
	<g>
		<g>
			<path fill="#444444" d="M165.4,279.1c-0.1,19.9-4.6,39.6-3.6,59.5c0.2,3.2,5.2,3.2,5,0c-1-19.9,3.4-39.6,3.6-59.5
				C170.5,275.9,165.5,275.9,165.4,279.1L165.4,279.1z"/>
		</g>
	</g>
	
		<radialGradient id="SVGID_2_" cx="-1389.2458" cy="541.0579" r="25.0962" gradientTransform="matrix(-2.1457 0.4123 0.1474 0.7674 -2880.4878 500.691)" gradientUnits="userSpaceOnUse">
		<stop  offset="5.222240e-03" style="stop-color:#929497"/>
		<stop  offset="0.1523" style="stop-color:#AAACAE"/>
		<stop  offset="0.352" style="stop-color:#C4C6C8"/>
		<stop  offset="0.5574" style="stop-color:#D7D8DA"/>
		<stop  offset="0.7698" style="stop-color:#E2E3E4"/>
		<stop  offset="1" style="stop-color:#E6E7E8"/>
	</radialGradient>
	<path fill="url(#SVGID_2_)" d="M149.6,344.4c0.4,2.3,4.9,3.4,9.9,2.4c5.1-1,8.8-3.6,8.3-5.9c-0.4-2.3-4.9-3.4-9.9-2.4
		C152.9,339.4,149.2,342.1,149.6,344.4z"/>
	<g>
		<g>
			<path fill="#444444" d="M192.2,283.5c7.3,18.8,13.8,37.9,19.3,57.3c0.9,3.1,5.7,1.8,4.8-1.3c-5.5-19.4-12-38.5-19.3-57.3
				C195.9,279.2,191,280.5,192.2,283.5L192.2,283.5z"/>
		</g>
	</g>
	
		<radialGradient id="SVGID_3_" cx="-1471.824" cy="-1402.7937" r="25.0962" gradientTransform="matrix(0.3386 2.1301 0.7701 -0.1978 1794.8834 3183.2529)" gradientUnits="userSpaceOnUse">
		<stop  offset="5.222240e-03" style="stop-color:#929497"/>
		<stop  offset="0.1523" style="stop-color:#AAACAE"/>
		<stop  offset="0.352" style="stop-color:#C4C6C8"/>
		<stop  offset="0.5574" style="stop-color:#D7D8DA"/>
		<stop  offset="0.7698" style="stop-color:#E2E3E4"/>
		<stop  offset="1" style="stop-color:#E6E7E8"/>
	</radialGradient>
	<path fill="url(#SVGID_3_)" d="M216.5,356.1c2.3-0.6,3.5-5.1,2.7-10.2c-0.8-5-3.3-8.6-5.6-8c-2.3,0.6-3.5,5.1-2.7,10.2
		C211.6,353.1,214.1,356.7,216.5,356.1z"/>
	<g>
		<g>
			<path fill="#444444" d="M159.7,229.1c-2.7,15-5.9,29.8-9.7,44.6c-0.8,3.1,4,4.4,4.8,1.3c3.8-14.7,7-29.6,9.7-44.6
				C165.1,227.3,160.3,226,159.7,229.1L159.7,229.1z"/>
		</g>
	</g>
	
		<radialGradient id="SVGID_4_" cx="-2278.0693" cy="265.8251" r="72.8602" gradientTransform="matrix(-1.173 1.516249e-03 -1.704603e-03 0.982 -2445.7522 -12.7436)" gradientUnits="userSpaceOnUse">
		<stop  offset="5.222240e-03" style="stop-color:#F7931E"/>
		<stop  offset="0.3211" style="stop-color:#FC931E"/>
		<stop  offset="1" style="stop-color:#FF931E"/>
	</radialGradient>
	<path fill="url(#SVGID_4_)" d="M190.8,215.8c0,0,19.4-1.6,15.3,21.9c-4.5,25.8-9.9,49.7-22,50.7c-2.2,0.2-8.8,0-10.6-1.8
		c-8.3-8.1-11.6-35.8-11.7-47.6C161.7,216.9,166,214.2,190.8,215.8z"/>
	<g>
		<g>
			<path fill="#444444" d="M201.7,235.9c2.9,15,6.5,29.9,10.7,44.6c0.9,3.1,5.7,1.8,4.8-1.3c-4.2-14.7-7.7-29.6-10.7-44.6
				C205.9,231.5,201.1,232.8,201.7,235.9L201.7,235.9z"/>
		</g>
	</g>
	
		<radialGradient id="SVGID_5_" cx="-1430.4664" cy="534.3803" r="25.0962" gradientTransform="matrix(-1.0698 -1.2739 -0.5984 0.5025 -988.1212 -1795.8801)" gradientUnits="userSpaceOnUse">
		<stop  offset="5.222240e-03" style="stop-color:#929497"/>
		<stop  offset="0.1523" style="stop-color:#AAACAE"/>
		<stop  offset="0.352" style="stop-color:#C4C6C8"/>
		<stop  offset="0.5574" style="stop-color:#D7D8DA"/>
		<stop  offset="0.7698" style="stop-color:#E2E3E4"/>
		<stop  offset="1" style="stop-color:#E6E7E8"/>
	</radialGradient>
	<path fill="url(#SVGID_5_)" d="M211.2,274.4c-1.8,1.5-1.2,5.2,1.3,8.2c2.5,3,6,4.2,7.8,2.7c1.8-1.5,1.2-5.2-1.3-8.2
		C216.4,274.1,212.9,272.9,211.2,274.4z"/>
	
		<radialGradient id="SVGID_6_" cx="-1522.1307" cy="291.111" r="25.0962" gradientTransform="matrix(0.9744 -1.2739 0.545 0.5025 1469.9226 -1795.8801)" gradientUnits="userSpaceOnUse">
		<stop  offset="5.222240e-03" style="stop-color:#929497"/>
		<stop  offset="0.1523" style="stop-color:#AAACAE"/>
		<stop  offset="0.352" style="stop-color:#C4C6C8"/>
		<stop  offset="0.5574" style="stop-color:#D7D8DA"/>
		<stop  offset="0.7698" style="stop-color:#E2E3E4"/>
		<stop  offset="1" style="stop-color:#E6E7E8"/>
	</radialGradient>
	<path fill="url(#SVGID_6_)" d="M155.7,268.9c1.6,1.5,1.1,5.2-1.2,8.2c-2.3,3-5.5,4.2-7.1,2.7c-1.6-1.5-1.1-5.2,1.2-8.2
		C150.9,268.6,154.1,267.4,155.7,268.9z"/>
	<path fill="#FFFFFF" stroke="#000000" stroke-width="0.5" stroke-miterlimit="10" d="M84,387.8"/>
	<path id="SVGID_x5F_7_x5F_" fill="none" d="M92.5,363.4c0,0-49.9-57-44.7-118.6"/>
	<text>	<textPath  xlink:href="#SVGID_x5F_7_x5F_" startOffset="10.352%">
<tspan  font-family="'MyriadPro-Regular'" font-size="25">    Content</tspan>	</textPath>
</text>
	<path id="SVGID_x5F_8_x5F_" fill="none" d="M309.8,235.1c0,0,4.8,75.6-37,121.2"/>
	<text>	<textPath  xlink:href="#SVGID_x5F_8_x5F_" startOffset="10.352%">
<tspan  font-family="'MyriadPro-Regular'" font-size="25"> Complexity</tspan>	</textPath>
</text>
	<path id="SVGID_x5F_9_x5F_" fill="none" d="M59.1,208.1c0,0,40.3-64.1,100.8-76.7"/>
	<text>	<textPath  xlink:href="#SVGID_x5F_9_x5F_" startOffset="10.352%">
<tspan  font-family="'MyriadPro-Regular'" font-size="25">  Language</tspan>	</textPath>
</text>
	<path id="SVGID_x5F_10_x5F_" fill="none" d="M209.7,136.3c0,0,70.5,27.8,94,85"/>
	<text>	<textPath  xlink:href="#SVGID_x5F_10_x5F_" startOffset="10.352%">
<tspan  font-family="'MyriadPro-Regular'" font-size="25">Navigation</tspan>	</textPath>
</text>
	<path id="SVGID_x5F_11_x5F_" fill="none" d="M249.3,380.8c0,0-80.7,24.6-137-1"/>
	<text>	<textPath  xlink:href="#SVGID_x5F_11_x5F_" startOffset="10.352%">
<tspan  font-family="'MyriadPro-Regular'" font-size="25">Organization</tspan>	</textPath>
</text>
	<g>
		<g>
			<g>
				<g>
					<path fill="#FDB913" stroke="#000000" stroke-width="0.5" stroke-miterlimit="10" d="M563.9,255.6l-148.9-48.4
						C436.3,141.4,494.7,99,563.9,99V255.6z"/>
				</g>
			</g>
			<g>
				<g>
					<path fill="#FFF200" stroke="#000000" stroke-width="0.5" stroke-miterlimit="10" d="M563.9,255.6l-92,126.7
						c-56-40.7-78.3-109.3-56.9-175.1L563.9,255.6z"/>
				</g>
			</g>
			<g>
				<g>
					<path fill="#00A651" stroke="#000000" stroke-width="0.5" stroke-miterlimit="10" d="M563.9,255.6l92,126.7
						c-56,40.7-128.1,40.7-184.1,0L563.9,255.6z"/>
				</g>
			</g>
			<g>
				<g>
					<path fill="#AC70E0" stroke="#000000" stroke-width="0.5" stroke-miterlimit="10" d="M563.9,255.6l148.9-48.4
						c21.4,65.8-0.9,134.4-56.9,175.1L563.9,255.6z"/>
				</g>
			</g>
			<g>
				<g>
					<path fill="#6DCFF6" stroke="#000000" stroke-width="0.5" stroke-miterlimit="10" d="M563.9,255.6V99
						c69.2,0,127.5,42.4,148.9,108.2L563.9,255.6z"/>
				</g>
			</g>
		</g>
		<g>
			<g>
			</g>
			<g>
			</g>
			<g>
			</g>
			<g>
			</g>
			<g>
			</g>
		</g>
	</g>
	<circle fill="#FFFFFF" stroke="#000000" stroke-width="0.5" stroke-miterlimit="10" cx="562.7" cy="254.6" r="117.8"/>
	<path fill="#FFFFFF" stroke="#000000" stroke-width="0.5" stroke-miterlimit="10" d="M474,380.8"/>
	<path id="SVGID_x5F_12_x5F_" fill="none" d="M479.5,356.4c0,0-49.9-57-44.7-118.6"/>
	<text>	<textPath  xlink:href="#SVGID_x5F_12_x5F_" startOffset="10.352%">
<tspan  font-family="'MyriadPro-Regular'" font-size="25">    Content</tspan>	</textPath>
</text>
	<path id="SVGID_x5F_13_x5F_" fill="none" d="M696.8,228.1c0,0,4.8,75.6-37,121.2"/>
	<text>	<textPath  xlink:href="#SVGID_x5F_13_x5F_" startOffset="10.352%">
<tspan  font-family="'MyriadPro-Regular'" font-size="25"> Complexity</tspan>	</textPath>
</text>
	<path id="SVGID_x5F_14_x5F_" fill="none" d="M639.3,373.8c0,0-80.7,24.6-137-1"/>
	<text>	<textPath  xlink:href="#SVGID_x5F_14_x5F_" startOffset="10.352%">
<tspan  font-family="'MyriadPro-Regular'" font-size="25">Organization</tspan>	</textPath>
</text>
	<g>
		<linearGradient id="SVGID_15_" gradientUnits="userSpaceOnUse" x1="615.5258" y1="354.9049" x2="585.4815" y2="302.8667">
			<stop  offset="0.2692" style="stop-color:#FFFFFF"/>
			<stop  offset="1" style="stop-color:#C7AB86"/>
		</linearGradient>
		<polygon fill="url(#SVGID_15_)" points="628.9,281.4 625.1,349.4 569.6,372.1 569.8,311.9 		"/>
		<linearGradient id="SVGID_16_" gradientUnits="userSpaceOnUse" x1="529.7004" y1="195.2172" x2="552.0011" y2="268.1594">
			<stop  offset="0" style="stop-color:#CF8F52"/>
			<stop  offset="1" style="stop-color:#57250C"/>
		</linearGradient>
		<polygon fill="url(#SVGID_16_)" points="570.6,183.8 507.5,202 511.5,280.6 569.9,252.5 		"/>
		<linearGradient id="SVGID_17_" gradientUnits="userSpaceOnUse" x1="612.5184" y1="195.5204" x2="587.8337" y2="267.2099">
			<stop  offset="0" style="stop-color:#CF8F52"/>
			<stop  offset="1" style="stop-color:#57250C"/>
		</linearGradient>
		<polygon fill="url(#SVGID_17_)" points="570.6,183.8 633.4,202.7 628.9,281.4 569.9,252.5 		"/>
		<polygon fill="#B16B37" points="569.8,311.9 570.1,225.3 633.4,202.7 628.9,281.4 		"/>
		<linearGradient id="SVGID_18_" gradientUnits="userSpaceOnUse" x1="531.0513" y1="197.8454" x2="551.7274" y2="315.1058">
			<stop  offset="0" style="stop-color:#DC9A5C"/>
			<stop  offset="1" style="stop-color:#C8864D"/>
		</linearGradient>
		<polygon fill="url(#SVGID_18_)" points="511.5,280.6 507.5,202 570.1,225.3 569.8,311.9 		"/>
		<linearGradient id="SVGID_19_" gradientUnits="userSpaceOnUse" x1="539.2239" y1="213.4471" x2="538.4764" y2="215.3941">
			<stop  offset="0" style="stop-color:#78451D"/>
			<stop  offset="0.544" style="stop-color:#D6955C"/>
		</linearGradient>
		<polygon fill="url(#SVGID_19_)" points="507.6,203.6 507.5,202 570.1,225.3 570.1,227.1 		"/>
		<linearGradient id="SVGID_20_" gradientUnits="userSpaceOnUse" x1="523.4769" y1="353.5915" x2="555.2136" y2="302.802">
			<stop  offset="0.2747" style="stop-color:#FFFFFF"/>
			<stop  offset="1" style="stop-color:#E3C8A0"/>
		</linearGradient>
		<polygon fill="url(#SVGID_20_)" points="569.8,311.9 569.6,372.1 514.8,348.2 511.5,280.6 		"/>
		<g>
			<path fill="#432A1C" d="M602.1,232c-1.7,0.7-24.4,9.6-25.4,10c-1.7,0.7-2.2,1.9-2.2,3.5c0,1.7-0.1,15.1-0.1,15.8
				c0,1.2,0.8,1.7,1.8,1.2c0.7-0.3,24.6-10.6,25.6-11c1.1-0.5,1.6-1.4,1.7-2.7c0-0.8,0.5-15.2,0.5-15.7
				C604,232.7,603.8,231.3,602.1,232z M602.8,248.8c0,0.9-0.4,1.6-1.3,1.9c-0.7,0.3-24.3,10.4-24.9,10.7c-1,0.5-1.4,0-1.4-0.8
				c0-0.3,0.1-13.4,0.1-14.6c0-1.4,0.3-2.3,1.4-2.8c1-0.4,25-10,25.3-10.1c0.6-0.3,1.1,0,1.1,0.7
				C603.2,234.4,602.8,247.8,602.8,248.8z"/>
			<path fill="#432A1C" d="M579.5,247c0,0,2.3-0.9,2.6-1c0.1,2.2-0.7,6.8-2.1,7.6c0,0.4,0,4.2,0,4.3c0.7-0.1,1.2-0.1,1.5,0
				c0.2,0,0.4,0.2,0.1,0.3c-0.3,0.1-3.5,1.5-3.7,1.6c-0.2,0.1-0.3,0-0.2-0.2c0.2-0.3,1.3-1.2,1.8-1.5c0-0.1,0-3.8,0-4.3
				c-1.6-0.2-1.9-2.9-1.9-6c0.3-0.1,1.6-0.6,1.6-0.6l-0.4,1.6l0.5,0.2l-0.7,2.2l1.2-2.3l-0.5-0.4L579.5,247z"/>
			<path fill="#432A1C" d="M586.2,244.7c0-0.5,0-1.4,0-1.4s-0.5,0.7-0.7,1.1c-0.3,0.5-0.1,0.8,0.1,0.9
				C585.8,245.4,586.2,245.3,586.2,244.7z"/>
			<path fill="#432A1C" d="M588.7,242.9c0-0.5,0-1.4,0-1.4s-0.5,0.7-0.7,1.1c-0.3,0.5-0.1,0.8,0.1,0.9
				C588.3,243.5,588.7,243.4,588.7,242.9z"/>
			<path fill="#432A1C" d="M587.9,241c0-0.5,0-1.4,0-1.4s-0.5,0.7-0.7,1.1c-0.3,0.5-0.1,0.8,0.1,0.9
				C587.4,241.7,587.8,241.6,587.9,241z"/>
			<path fill="#432A1C" d="M590.5,239.9c0-0.5,0-1.4,0-1.4s-0.5,0.7-0.7,1.1c-0.3,0.5-0.1,0.8,0.1,0.9
				C590,240.6,590.4,240.5,590.5,239.9z"/>
			<path fill="#432A1C" d="M591.2,241.7c0-0.5,0-1.4,0-1.4s-0.5,0.7-0.7,1.1c-0.3,0.5-0.1,0.8,0.1,0.9
				C590.8,242.4,591.2,242.3,591.2,241.7z"/>
			<path fill="#432A1C" d="M593,242c0-0.5,0-1.4,0-1.4s-0.5,0.6-0.7,1.1c-0.3,0.5-0.1,0.8,0.1,0.9C592.6,242.7,593,242.6,593,242z"
				/>
			<path fill="#432A1C" d="M592.8,239c0-0.5,0-1.4,0-1.4s-0.5,0.6-0.7,1.1c-0.3,0.5-0.1,0.8,0.1,0.9
				C592.4,239.7,592.8,239.6,592.8,239z"/>
			<path fill="#432A1C" d="M588.9,243.9c0-0.1,0-0.3,0-0.6c0-0.3,0.5-0.3,0.4-0.1c0,0.2,0,0.4,0,0.5c2.3-0.7,3.9,0.6,4.4,2.4
				c-1-0.5-1.9,0.2-2.3,1.3c-0.7-1-1.6-0.5-2.2,0.5c0,0.3-0.1,5.1-0.1,5.5c0,1.4-0.9,2.1-1.7,2.1c-0.8,0-1-0.8-1-1.3
				c0-0.4,0.5-0.5,0.5,0c0,1.2,1.5,0.6,1.6-0.7c0-0.7,0.1-5,0.1-5.4c-0.7-0.7-2,0.3-2.2,1.3c-0.8-1-1.5-0.6-2.4,0.6
				C585.2,246.8,587.3,244.7,588.9,243.9z"/>
			<polygon fill="#432A1C" points="595.9,242.8 595,243.1 596.6,239.9 598,241.9 597.2,242.2 597,249.5 595.7,250.1 			"/>
			<polygon fill="#432A1C" points="599.2,241.5 598.4,241.7 599.9,238.6 601.3,240.6 600.5,240.9 600.3,248.2 599,248.7 			"/>
			<polygon fill="#432A1C" points="594.8,251.1 601,248.5 601,249.8 594.8,252.5 			"/>
		</g>
		<linearGradient id="SVGID_21_" gradientUnits="userSpaceOnUse" x1="507.5498" y1="204.5551" x2="633.4014" y2="204.5551">
			<stop  offset="0.4286" style="stop-color:#EEBF8F"/>
			<stop  offset="1" style="stop-color:#DA985B"/>
		</linearGradient>
		<polygon fill="url(#SVGID_21_)" points="570.1,225.3 633.4,202.7 570.6,183.8 507.5,202 		"/>
		<polygon fill="#9C6F43" points="534.2,194.3 543.7,191.6 607.6,211.9 596.5,215.9 		"/>
		<polygon fill="#9C6F43" points="533.6,211.7 597.5,191.9 607.2,194.8 544,215.6 		"/>
		<polygon fill="#9C6F43" points="544,215.6 544.1,230.7 543.1,229.6 542.2,229.9 541.5,228.9 540.6,229.1 539.8,228.2 538.9,228.4 
			537.9,227.4 537,227.6 536.3,226.7 535.5,226.9 534.6,226 533.8,226.2 533.6,211.7 		"/>
		<linearGradient id="SVGID_22_" gradientUnits="userSpaceOnUse" x1="538.6201" y1="203.367" x2="602.2788" y2="203.367">
			<stop  offset="8.791210e-02" style="stop-color:#9A7044"/>
			<stop  offset="1" style="stop-color:#7B5332"/>
		</linearGradient>
		<polygon fill="url(#SVGID_22_)" points="538.6,213.6 601.4,193.1 602.3,193.4 538.8,213.7 		"/>
		<polygon fill="#814C29" points="596.5,215.9 596.3,230.9 597.3,229.9 598.2,230.1 599,229.2 599.9,229.4 600.8,228.5 601.8,228.6 
			602.6,227.7 603.4,228 604.2,227.1 605.1,227.3 606,226.4 606.9,226.6 607.6,211.9 		"/>
	</g>
	<path id="SVGID_x5F_23_x5F_" fill="none" d="M594.3,128.5c0,0,70.5,27.8,94,85"/>
	<text>	<textPath  xlink:href="#SVGID_x5F_23_x5F_" startOffset="10.352%">
<tspan  font-family="'MyriadPro-Regular'" font-size="25">Navigation</tspan>	</textPath>
</text>
	<path id="SVGID_x5F_25_x5F_" fill="none" d="M440.8,206.4c0,0,37.8-65.6,97.8-80.5"/>
	<text>	<textPath  xlink:href="#SVGID_x5F_25_x5F_" startOffset="12.158%">
<tspan  font-family="'MyriadPro-Regular'" font-size="25">    Language</tspan>	</textPath>
</text>
	<text transform="matrix(1 0 0 1 26.0635 82.4681)" font-family="'Calibri'" font-size="25">User-Centered Documentation</text>
	<text transform="matrix(1 0 0 1 389.8011 82.4681)" font-family="'Calibri'" font-size="25">Product-Centered Documentation</text>
</g>
<g id="building_x5F_blocks">
</g>
<g id="bookstoweb">
</g>
<g id="visualsengage">
</g>
</svg>
