<?xml version="1.0" encoding="utf-8"?>
<!-- Generator: Adobe Illustrator 23.0.3, SVG Export Plug-In . SVG Version: 6.00 Build 0)  -->
<svg version="1.1" id="Layer_1" xmlns="http://www.w3.org/2000/svg" xmlns:xlink="http://www.w3.org/1999/xlink" x="0px" y="0px"
	 viewBox="0 0 600 350" enable-background="new 0 0 600 350" xml:space="preserve">
<path opacity="0.13" fill="#4A4B4D" d="M187.2,176.8H75.5c-6.6,0-12-5.4-12-12V73.3c0-6.6,5.4-12,12-12h111.7c6.6,0,12,5.4,12,12
	v91.5C199.2,171.4,193.8,176.8,187.2,176.8z"/>
<path d="M122.7,100h-3.4c-3.5,0-6.3,3.2-6.3,7.2c0,4.6,3.2,11.5,8,11.5c4.8,0,8-7,8-11.7C129.1,103.2,126.2,100,122.7,100z"/>
<path d="M98.9,146.8c-1.3,0.4-2.5,1-3.4,2c-1,1-1.7,2.1-2,3.4l-0.7,5.1l-0.7,5.2c-0.1,0.6,0.1,1.1,0.6,1.5c0.4,0.4,1,0.7,1.5,0.7
	h22.2c0.6,0,1.1-0.3,1.5-0.7s0.6-1,0.6-1.5l-1.4-10.1c-0.4-1.3-1.1-2.5-2-3.4c-1-1-2.1-1.5-3.4-2H98.9L98.9,146.8z"/>
<path d="M94.8,152.4l-1.3,10.1c0,0.3,0.1,0.4,0.1,0.4c0.1,0.1,0.3,0.3,0.6,0.3h22.3c0.3,0,0.4-0.1,0.6-0.3c0.1-0.1,0.1-0.3,0.1-0.4
	l-1.4-10.1c-0.3-1-0.8-2-1.5-2.7c-0.7-0.7-1.7-1.3-2.7-1.5H99.1c-1,0.3-1.8,0.8-2.7,1.5C95.6,150.6,95.1,151.4,94.8,152.4
	L94.8,152.4z M116.4,166H94.1c-1,0-2-0.4-2.5-1.1c-0.7-0.7-1-1.7-0.8-2.7l1.4-10.4c0.4-1.5,1.3-2.9,2.4-4.1c1.1-1.1,2.5-1.8,4.1-2.2
	h13.8c1.5,0.4,2.9,1.3,4.1,2.2c1.1,1.1,2,2.5,2.4,4.1v0.1l1.4,10.1c0.1,1-0.1,2-0.8,2.7C118.4,165.6,117.4,166,116.4,166L116.4,166z
	"/>
<path d="M107,126.7h-3.4c-2.7,0-4.9,2.5-4.9,5.8c0,4.4,2.9,10.1,6.6,10.1c3.7,0,6.6-5.8,6.6-10.1C111.8,129.2,109.7,126.7,107,126.7
	z"/>
<path d="M103.6,128.1c-2,0-3.5,2-3.5,4.4c0,3.8,2.5,8.8,5.2,8.8c2.7,0,5.2-5.1,5.2-8.7c0-2.4-1.5-4.4-3.5-4.4l-3.4,0V128.1z
	 M105.3,144.1c-4.8,0-8-7-8-11.5c0-3.9,2.8-7.2,6.3-7.2h3.4c3.5,0,6.3,3.2,6.3,7C113.3,137.1,110.1,144.1,105.3,144.1z"/>
<path d="M122.4,124.7v-2c0-0.8-0.6-1.4-1.4-1.4s-1.4,0.6-1.4,1.4v2H122.4z"/>
<path d="M135.6,136.8l-1.4-10.1v-0.1c-0.4-1.5-1.3-2.9-2.4-4.1s-2.5-1.8-4.1-2.2l-0.8-0.3l-4.6,4.9v8.8c0,0.8-0.6,1.4-1.4,1.4
	s-1.4-0.6-1.4-1.4v-8.8l-4.6-4.9l-0.8,0.3c-1.5,0.4-2.9,1.3-4.1,2.2l-0.6,0.6c3.7,1.3,6.3,5.1,6.3,9.4c0,2.7-0.7,5.6-2.1,8.3h18.3
	c1,0,2-0.4,2.5-1.1C135.5,138.8,135.8,137.8,135.6,136.8L135.6,136.8z"/>
<path d="M89.4,151.1c0.6-2,1.5-3.8,3.1-5.3c1.4-1.4,3.2-2.5,5.2-2.9h0.1c-0.8-1.1-1.5-2.5-2.1-3.9L80.6,152c-0.4,0.4-0.6,1-0.4,1.5
	c0.1,0.6,0.7,0.8,1.3,0.8h7.3L89.4,151.1z"/>
<path d="M146,138.8c-0.1-0.6-0.7-0.8-1.3-0.8h-6.3c-0.1,1.3-0.7,2.5-1.5,3.5c-1.1,1.3-2.9,2.1-4.6,2.1h-17.4
	c1.3,0.6,2.4,1.3,3.2,2.2c1.5,1.4,2.5,3.4,3.1,5.3l0.1,0.4l0.4,2.9h7.3c0.3,0,0.7-0.1,1-0.3l15.9-13.8
	C146.2,139.9,146.3,139.3,146,138.8L146,138.8z"/>
<path d="M184,104h-27V70.6h17.4v8.7c0,0.3,0.2,0.5,0.5,0.5l9,0L184,104z M175.5,71.3l7.7,7.4l-7.7,0V71.3z M185,79
	c-0.1-0.1-0.1-0.1-0.1-0.2l-9.5-9.2c-0.1-0.1-0.1-0.1-0.2-0.1H175h-18.5c-0.3,0-0.5,0.2-0.5,0.5v34.5c0,0.3,0.2,0.5,0.5,0.5h28
	c0.3,0,0.5-0.2,0.5-0.5v-2.2l0-23.1C185.1,79.2,185.1,79,185,79L185,79z"/>
<path d="M75.9,153.7l-1-3.2l1.9,0L75.9,153.7z M75.6,139l0.5,0c0.5,0,0.9,0.5,0.9,1l0,1.1l-2.2,0l0-1.1
	C74.8,139.4,75.2,139,75.6,139L75.6,139z M74.8,141.9l2.2,0l0,7.8l-2.2,0L74.8,141.9z M77.8,150.1l0-8.5l0-1.6c0-1-0.7-1.7-1.6-1.8
	l-0.5,0c-0.9,0-1.6,0.8-1.6,1.8l0,10.1l0,0.1l1.5,4.9c0,0.2,0.2,0.3,0.4,0.3c0.2,0,0.3-0.1,0.4-0.3l1.4-4.9L77.8,150.1L77.8,150.1z"
	/>
<path d="M180.2,87.1h-4.4v-4h4.4L180.2,87.1z M180.6,82.4h-5.2c-0.2,0-0.4,0.1-0.4,0.4v4.7c0,0.2,0.1,0.4,0.4,0.4h5.2
	c0.2,0,0.4-0.1,0.4-0.4l0-4.7C180.9,82.5,180.8,82.4,180.6,82.4L180.6,82.4z"/>
<path d="M177.1,86.3c0.1,0.1,0.1,0.1,0.3,0.1h0c0.1,0,0.2,0,0.3-0.1l2.2-1.9c0.1-0.1,0.1-0.4,0-0.5c-0.1-0.1-0.4-0.1-0.5,0l-1.8,1.6
	l-0.5-0.8c-0.1-0.2-0.3-0.2-0.5-0.1s-0.2,0.3-0.1,0.5L177.1,86.3z"/>
<path d="M180.2,93.5h-4.4v-4h4.4L180.2,93.5z M180.6,88.7h-5.2c-0.2,0-0.4,0.1-0.4,0.4v4.7c0,0.2,0.1,0.4,0.4,0.4h5.2
	c0.2,0,0.4-0.1,0.4-0.4l0-4.7C181,88.9,180.8,88.7,180.6,88.7L180.6,88.7z"/>
<path d="M177.1,92.2c0.1,0.1,0.1,0.1,0.3,0.1h0c0.1,0,0.2,0,0.3-0.1l2.2-1.9c0.1-0.1,0.1-0.4,0-0.5c-0.1-0.1-0.4-0.1-0.5,0l-1.8,1.6
	l-0.5-0.8c-0.1-0.2-0.3-0.2-0.5-0.1c-0.2,0.1-0.2,0.3-0.1,0.5L177.1,92.2z"/>
<path d="M180.2,100.1h-4.4v-4h4.4L180.2,100.1z M180.6,95.3h-5.2c-0.2,0-0.4,0.1-0.4,0.4v4.7c0,0.2,0.1,0.4,0.4,0.4h5.2
	c0.2,0,0.4-0.1,0.4-0.4l0-4.7C181,95.5,180.8,95.3,180.6,95.3L180.6,95.3z"/>
<path d="M177,99.1c0.1,0.1,0.1,0.1,0.3,0.1h0c0.1,0,0.2,0,0.3-0.1l2.2-1.9c0.1-0.1,0.1-0.4,0-0.5c-0.1-0.1-0.4-0.1-0.5,0l-1.8,1.6
	l-0.5-0.8c-0.1-0.2-0.3-0.2-0.5-0.1s-0.2,0.3-0.1,0.5L177,99.1z"/>
<path d="M161.3,81.6c0-1.5,1.2-2.7,2.7-2.7h3.8c1.5,0,2.7,1.2,2.7,2.7v1.1h-9.2L161.3,81.6z M165.9,72.7c1.2,0,2.3,1,2.3,2.3
	s-1,2.3-2.3,2.3c-1.2,0-2.3-1-2.3-2.3C163.7,73.7,164.7,72.7,165.9,72.7z M160.7,83.8H171c0.3,0,0.5-0.2,0.5-0.5v-1.7
	c0-2.1-1.7-3.8-3.8-3.8h-0.1c0.9-0.6,1.6-1.6,1.6-2.8c0-1.8-1.5-3.3-3.3-3.3c-1.8,0-3.3,1.5-3.3,3.3c0,1.2,0.6,2.2,1.6,2.8H164
	c-2.1,0-3.8,1.7-3.8,3.8v1.7C160.2,83.5,160.5,83.8,160.7,83.8L160.7,83.8z"/>
<path d="M160,85.9c-0.3,0-0.5,0.2-0.5,0.5c0,0.3,0.2,0.5,0.5,0.5l10.5,0c0.3,0,0.5-0.2,0.5-0.5c0-0.3-0.2-0.5-0.5-0.5L160,85.9z"/>
<path d="M170.5,89.6H160c-0.3,0-0.5,0.2-0.5,0.5c0,0.3,0.2,0.5,0.5,0.5l10.5,0c0.3,0,0.5-0.2,0.5-0.5
	C171,89.9,170.8,89.6,170.5,89.6L170.5,89.6z"/>
<path d="M170.9,93.3h-11.1c-0.2,0-0.3,0.2-0.3,0.5c0,0.3,0.1,0.5,0.3,0.5l11.1,0c0.2,0,0.3-0.2,0.3-0.5
	C171.2,93.5,171.1,93.3,170.9,93.3L170.9,93.3z"/>
<path d="M170.9,97h-11.1c-0.2,0-0.3,0.2-0.3,0.5c0,0.3,0.1,0.5,0.3,0.5l11.1,0c0.2,0,0.3-0.2,0.3-0.5C171.2,97.2,171.1,97,170.9,97
	L170.9,97z"/>
<path d="M170.9,100.7h-11.1c-0.2,0-0.3,0.2-0.3,0.5c0,0.3,0.1,0.5,0.3,0.5l11.1,0c0.2,0,0.3-0.2,0.3-0.5
	C171.2,100.9,171.1,100.7,170.9,100.7z"/>
<line fill="none" stroke="#282726" stroke-width="0.3838" stroke-miterlimit="10" x1="142.9" y1="131.4" x2="159.3" y2="110.2"/>
<g>
	<path d="M82.2,212.1h-9.3v-11.5h6v3c0,0.1,0.1,0.2,0.2,0.2l3.1,0L82.2,212.1z M79.3,200.8l2.6,2.5l-2.6,0V200.8z M82.5,203.5
		C82.5,203.4,82.5,203.4,82.5,203.5l-3.3-3.2c0,0,0,0-0.1,0h-0.1h-6.4c-0.1,0-0.2,0.1-0.2,0.2v11.9c0,0.1,0.1,0.2,0.2,0.2h9.6
		c0.1,0,0.2-0.1,0.2-0.2v-0.8L82.5,203.5C82.5,203.5,82.5,203.5,82.5,203.5L82.5,203.5z"/>
	<path d="M80.9,206.2h-1.5v-1.4h1.5L80.9,206.2z M81,204.6h-1.8c-0.1,0-0.1,0-0.1,0.1v1.6c0,0.1,0,0.1,0.1,0.1H81
		c0.1,0,0.1,0,0.1-0.1l0-1.6C81.1,204.7,81.1,204.6,81,204.6L81,204.6z"/>
	<path d="M79.8,206C79.8,206,79.8,206,79.8,206L79.8,206c0.1,0,0.2,0,0.2,0l0.7-0.7c0,0,0-0.1,0-0.2c0,0-0.1,0-0.2,0l-0.6,0.6
		l-0.2-0.3c0-0.1-0.1-0.1-0.2,0c-0.1,0-0.1,0.1,0,0.2L79.8,206z"/>
	<path d="M80.9,208.4h-1.5v-1.4h1.5L80.9,208.4z M81,206.8h-1.8c-0.1,0-0.1,0-0.1,0.1v1.6c0,0.1,0,0.1,0.1,0.1H81
		c0.1,0,0.1,0,0.1-0.1l0-1.6C81.1,206.9,81.1,206.8,81,206.8L81,206.8z"/>
	<path d="M79.8,208C79.8,208,79.8,208.1,79.8,208L79.8,208c0.1,0,0.2,0,0.2,0l0.7-0.7c0,0,0-0.1,0-0.2c0,0-0.1,0-0.2,0l-0.6,0.6
		l-0.2-0.3c0-0.1-0.1-0.1-0.2,0c-0.1,0-0.1,0.1,0,0.2L79.8,208z"/>
	<path d="M80.9,210.7h-1.5v-1.4h1.5L80.9,210.7z M81,209.1h-1.8c-0.1,0-0.1,0-0.1,0.1v1.6c0,0.1,0,0.1,0.1,0.1H81
		c0.1,0,0.1,0,0.1-0.1l0-1.6C81.1,209.1,81.1,209.1,81,209.1L81,209.1z"/>
	<path d="M79.7,210.4C79.8,210.4,79.8,210.4,79.7,210.4L79.7,210.4c0.1,0,0.2,0,0.2,0l0.7-0.7c0,0,0-0.1,0-0.2c0,0-0.1,0-0.2,0
		l-0.6,0.6l-0.2-0.3c0-0.1-0.1-0.1-0.2,0c-0.1,0-0.1,0.1,0,0.2L79.7,210.4z"/>
	<path d="M74.1,204.3c0-0.5,0.4-0.9,0.9-0.9h1.3c0.5,0,0.9,0.4,0.9,0.9v0.4h-3.2L74.1,204.3z M75.7,201.3c0.4,0,0.8,0.4,0.8,0.8
		s-0.4,0.8-0.8,0.8s-0.8-0.4-0.8-0.8C74.9,201.7,75.2,201.3,75.7,201.3z M73.9,205.1h3.5c0.1,0,0.2-0.1,0.2-0.2v-0.6
		c0-0.7-0.6-1.3-1.3-1.3h0c0.3-0.2,0.5-0.6,0.5-1c0-0.6-0.5-1.2-1.2-1.2s-1.2,0.5-1.2,1.2c0,0.4,0.2,0.8,0.5,1H75
		c-0.7,0-1.3,0.6-1.3,1.3v0.6C73.7,205,73.8,205.1,73.9,205.1L73.9,205.1z"/>
	<path d="M73.9,205.8c-0.1,0-0.2,0.1-0.2,0.2c0,0.1,0.1,0.2,0.2,0.2l3.6,0c0.1,0,0.2-0.1,0.2-0.2c0-0.1-0.1-0.2-0.2-0.2L73.9,205.8z
		"/>
	<path d="M77.5,207.1h-3.6c-0.1,0-0.2,0.1-0.2,0.2c0,0.1,0.1,0.2,0.2,0.2l3.6,0c0.1,0,0.2-0.1,0.2-0.2
		C77.7,207.2,77.6,207.1,77.5,207.1L77.5,207.1z"/>
	<path d="M77.7,208.4h-3.8c-0.1,0-0.1,0.1-0.1,0.2c0,0.1,0,0.2,0.1,0.2l3.8,0c0.1,0,0.1-0.1,0.1-0.2
		C77.8,208.5,77.7,208.4,77.7,208.4L77.7,208.4z"/>
	<path d="M77.7,209.6h-3.8c-0.1,0-0.1,0.1-0.1,0.2c0,0.1,0,0.2,0.1,0.2l3.8,0c0.1,0,0.1-0.1,0.1-0.2
		C77.8,209.7,77.7,209.6,77.7,209.6L77.7,209.6z"/>
	<path d="M77.7,210.9h-3.8c-0.1,0-0.1,0.1-0.1,0.2c0,0.1,0,0.2,0.1,0.2l3.8,0c0.1,0,0.1-0.1,0.1-0.2C77.8,211,77.7,210.9,77.7,210.9
		z"/>
</g>
<g>
	<path d="M96.9,212.1h-9.3v-11.5h6v3c0,0.1,0.1,0.2,0.2,0.2l3.1,0L96.9,212.1z M93.9,200.8l2.6,2.5l-2.6,0V200.8z M97.2,203.5
		C97.2,203.4,97.2,203.4,97.2,203.5l-3.3-3.2c0,0,0,0-0.1,0h-0.1h-6.4c-0.1,0-0.2,0.1-0.2,0.2v11.9c0,0.1,0.1,0.2,0.2,0.2H97
		c0.1,0,0.2-0.1,0.2-0.2v-0.8L97.2,203.5C97.2,203.5,97.2,203.5,97.2,203.5L97.2,203.5z"/>
	<path d="M95.6,206.2H94v-1.4h1.5L95.6,206.2z M95.7,204.6h-1.8c-0.1,0-0.1,0-0.1,0.1v1.6c0,0.1,0,0.1,0.1,0.1h1.8
		c0.1,0,0.1,0,0.1-0.1l0-1.6C95.8,204.7,95.7,204.6,95.7,204.6L95.7,204.6z"/>
	<path d="M94.5,206C94.5,206,94.5,206,94.5,206L94.5,206c0.1,0,0.2,0,0.2,0l0.7-0.7c0,0,0-0.1,0-0.2c0,0-0.1,0-0.2,0l-0.6,0.6
		l-0.2-0.3c0-0.1-0.1-0.1-0.2,0c-0.1,0-0.1,0.1,0,0.2L94.5,206z"/>
	<path d="M95.6,208.4H94v-1.4h1.5L95.6,208.4z M95.7,206.8h-1.8c-0.1,0-0.1,0-0.1,0.1v1.6c0,0.1,0,0.1,0.1,0.1h1.8
		c0.1,0,0.1,0,0.1-0.1l0-1.6C95.8,206.9,95.8,206.8,95.7,206.8L95.7,206.8z"/>
	<path d="M94.5,208C94.5,208,94.5,208.1,94.5,208L94.5,208c0.1,0,0.2,0,0.2,0l0.7-0.7c0,0,0-0.1,0-0.2c0,0-0.1,0-0.2,0l-0.6,0.6
		l-0.2-0.3c0-0.1-0.1-0.1-0.2,0c-0.1,0-0.1,0.1,0,0.2L94.5,208z"/>
	<path d="M95.6,210.7H94v-1.4h1.5L95.6,210.7z M95.7,209.1h-1.8c-0.1,0-0.1,0-0.1,0.1v1.6c0,0.1,0,0.1,0.1,0.1h1.8
		c0.1,0,0.1,0,0.1-0.1l0-1.6C95.8,209.1,95.8,209.1,95.7,209.1L95.7,209.1z"/>
	<path d="M94.4,210.4C94.5,210.4,94.5,210.4,94.4,210.4L94.4,210.4c0.1,0,0.2,0,0.2,0l0.7-0.7c0,0,0-0.1,0-0.2c0,0-0.1,0-0.2,0
		l-0.6,0.6l-0.2-0.3c0-0.1-0.1-0.1-0.2,0c-0.1,0-0.1,0.1,0,0.2L94.4,210.4z"/>
	<path d="M88.7,204.3c0-0.5,0.4-0.9,0.9-0.9H91c0.5,0,0.9,0.4,0.9,0.9v0.4h-3.2L88.7,204.3z M90.3,201.3c0.4,0,0.8,0.4,0.8,0.8
		s-0.4,0.8-0.8,0.8s-0.8-0.4-0.8-0.8C89.6,201.7,89.9,201.3,90.3,201.3z M88.6,205.1h3.5c0.1,0,0.2-0.1,0.2-0.2v-0.6
		c0-0.7-0.6-1.3-1.3-1.3h0c0.3-0.2,0.5-0.6,0.5-1c0-0.6-0.5-1.2-1.2-1.2s-1.2,0.5-1.2,1.2c0,0.4,0.2,0.8,0.5,1h-0.1
		c-0.7,0-1.3,0.6-1.3,1.3v0.6C88.4,205,88.5,205.1,88.6,205.1L88.6,205.1z"/>
	<path d="M88.6,205.8c-0.1,0-0.2,0.1-0.2,0.2c0,0.1,0.1,0.2,0.2,0.2l3.6,0c0.1,0,0.2-0.1,0.2-0.2c0-0.1-0.1-0.2-0.2-0.2L88.6,205.8z
		"/>
	<path d="M92.2,207.1h-3.6c-0.1,0-0.2,0.1-0.2,0.2c0,0.1,0.1,0.2,0.2,0.2l3.6,0c0.1,0,0.2-0.1,0.2-0.2
		C92.4,207.2,92.3,207.1,92.2,207.1L92.2,207.1z"/>
	<path d="M92.4,208.4h-3.8c-0.1,0-0.1,0.1-0.1,0.2c0,0.1,0,0.2,0.1,0.2l3.8,0c0.1,0,0.1-0.1,0.1-0.2
		C92.5,208.5,92.4,208.4,92.4,208.4L92.4,208.4z"/>
	<path d="M92.4,209.6h-3.8c-0.1,0-0.1,0.1-0.1,0.2c0,0.1,0,0.2,0.1,0.2l3.8,0c0.1,0,0.1-0.1,0.1-0.2
		C92.5,209.7,92.4,209.6,92.4,209.6L92.4,209.6z"/>
	<path d="M92.4,210.9h-3.8c-0.1,0-0.1,0.1-0.1,0.2c0,0.1,0,0.2,0.1,0.2l3.8,0c0.1,0,0.1-0.1,0.1-0.2C92.5,211,92.4,210.9,92.4,210.9
		z"/>
</g>
<path d="M111.5,212.1h-9.3v-11.5h6v3c0,0.1,0.1,0.2,0.2,0.2l3.1,0L111.5,212.1z M108.6,200.8l2.6,2.5l-2.6,0V200.8z M111.9,203.5
	C111.9,203.4,111.9,203.4,111.9,203.5l-3.3-3.2c0,0,0,0-0.1,0h-0.1h-6.4c-0.1,0-0.2,0.1-0.2,0.2v11.9c0,0.1,0.1,0.2,0.2,0.2h9.6
	c0.1,0,0.2-0.1,0.2-0.2v-0.8L111.9,203.5C111.9,203.5,111.9,203.5,111.9,203.5L111.9,203.5z"/>
<path d="M110.2,206.2h-1.5v-1.4h1.5L110.2,206.2z M110.4,204.6h-1.8c-0.1,0-0.1,0-0.1,0.1v1.6c0,0.1,0,0.1,0.1,0.1h1.8
	c0.1,0,0.1,0,0.1-0.1l0-1.6C110.5,204.7,110.4,204.6,110.4,204.6L110.4,204.6z"/>
<path d="M109.2,206C109.2,206,109.2,206,109.2,206L109.2,206c0.1,0,0.2,0,0.2,0l0.7-0.7c0,0,0-0.1,0-0.2c0,0-0.1,0-0.2,0l-0.6,0.6
	l-0.2-0.3c0-0.1-0.1-0.1-0.2,0c-0.1,0-0.1,0.1,0,0.2L109.2,206z"/>
<path d="M110.3,208.4h-1.5v-1.4h1.5L110.3,208.4z M110.4,206.8h-1.8c-0.1,0-0.1,0-0.1,0.1v1.6c0,0.1,0,0.1,0.1,0.1h1.8
	c0.1,0,0.1,0,0.1-0.1l0-1.6C110.5,206.9,110.5,206.8,110.4,206.8L110.4,206.8z"/>
<path d="M109.2,208C109.2,208,109.2,208.1,109.2,208L109.2,208c0.1,0,0.2,0,0.2,0l0.7-0.7c0,0,0-0.1,0-0.2c0,0-0.1,0-0.2,0l-0.6,0.6
	l-0.2-0.3c0-0.1-0.1-0.1-0.2,0c-0.1,0-0.1,0.1,0,0.2L109.2,208z"/>
<path d="M110.3,210.7h-1.5v-1.4h1.5L110.3,210.7z M110.4,209.1h-1.8c-0.1,0-0.1,0-0.1,0.1v1.6c0,0.1,0,0.1,0.1,0.1h1.8
	c0.1,0,0.1,0,0.1-0.1l0-1.6C110.5,209.1,110.5,209.1,110.4,209.1L110.4,209.1z"/>
<path d="M109.1,210.4C109.2,210.4,109.2,210.4,109.1,210.4L109.1,210.4c0.1,0,0.2,0,0.2,0l0.7-0.7c0,0,0-0.1,0-0.2c0,0-0.1,0-0.2,0
	l-0.6,0.6l-0.2-0.3c0-0.1-0.1-0.1-0.2,0c-0.1,0-0.1,0.1,0,0.2L109.1,210.4z"/>
<path d="M111.6,205.4c0-0.7,0.5-1.2,1.2-1.2h1.6c0.7,0,1.2,0.5,1.2,1.2v0.5h-4L111.6,205.4z M113.6,201.6c0.5,0,1,0.4,1,1
	c0,0.5-0.4,1-1,1c-0.5,0-1-0.4-1-1C112.6,202,113.1,201.6,113.6,201.6z M111.4,206.4h4.5c0.1,0,0.2-0.1,0.2-0.2v-0.7
	c0-0.9-0.8-1.6-1.6-1.6h0c0.4-0.3,0.7-0.7,0.7-1.2c0-0.8-0.7-1.5-1.5-1.5s-1.5,0.7-1.5,1.5c0,0.5,0.3,1,0.7,1.2h-0.1
	c-0.9,0-1.6,0.8-1.6,1.6v0.7C111.1,206.3,111.2,206.4,111.4,206.4L111.4,206.4z"/>
<path d="M103.3,205.8c-0.1,0-0.2,0.1-0.2,0.2c0,0.1,0.1,0.2,0.2,0.2l3.6,0c0.1,0,0.2-0.1,0.2-0.2c0-0.1-0.1-0.2-0.2-0.2L103.3,205.8
	z"/>
<path d="M106.9,207.1h-3.6c-0.1,0-0.2,0.1-0.2,0.2c0,0.1,0.1,0.2,0.2,0.2l3.6,0c0.1,0,0.2-0.1,0.2-0.2
	C107.1,207.2,107,207.1,106.9,207.1L106.9,207.1z"/>
<path d="M107,208.4h-3.8c-0.1,0-0.1,0.1-0.1,0.2c0,0.1,0,0.2,0.1,0.2l3.8,0c0.1,0,0.1-0.1,0.1-0.2
	C107.1,208.5,107.1,208.4,107,208.4L107,208.4z"/>
<path d="M107,209.6h-3.8c-0.1,0-0.1,0.1-0.1,0.2c0,0.1,0,0.2,0.1,0.2l3.8,0c0.1,0,0.1-0.1,0.1-0.2
	C107.1,209.7,107.1,209.6,107,209.6L107,209.6z"/>
<path d="M107,210.9h-3.8c-0.1,0-0.1,0.1-0.1,0.2c0,0.1,0,0.2,0.1,0.2l3.8,0c0.1,0,0.1-0.1,0.1-0.2C107.1,211,107.1,210.9,107,210.9z
	"/>
<g>
	<path d="M82.4,225.8h-9.3v-11.5h6v3c0,0.1,0.1,0.2,0.2,0.2l3.1,0L82.4,225.8z M79.5,214.5l2.6,2.5l-2.6,0V214.5z M82.8,217.2
		C82.7,217.2,82.7,217.1,82.8,217.2l-3.3-3.2c0,0,0,0-0.1,0h-0.1h-6.4c-0.1,0-0.2,0.1-0.2,0.2V226c0,0.1,0.1,0.2,0.2,0.2h9.6
		c0.1,0,0.2-0.1,0.2-0.2v-0.8L82.8,217.2C82.8,217.3,82.8,217.2,82.8,217.2L82.8,217.2z"/>
	<path d="M81.1,220h-1.5v-1.4h1.5L81.1,220z M81.2,218.4h-1.8c-0.1,0-0.1,0-0.1,0.1v1.6c0,0.1,0,0.1,0.1,0.1h1.8
		c0.1,0,0.1,0,0.1-0.1l0-1.6C81.4,218.4,81.3,218.4,81.2,218.4L81.2,218.4z"/>
	<path d="M80,219.7C80,219.7,80.1,219.7,80,219.7L80,219.7c0.1,0,0.2,0,0.2,0l0.7-0.7c0,0,0-0.1,0-0.2c0,0-0.1,0-0.2,0l-0.6,0.6
		l-0.2-0.3c0-0.1-0.1-0.1-0.2,0c-0.1,0-0.1,0.1,0,0.2L80,219.7z"/>
	<path d="M81.1,222.2h-1.5v-1.4h1.5L81.1,222.2z M81.2,220.5h-1.8c-0.1,0-0.1,0-0.1,0.1v1.6c0,0.1,0,0.1,0.1,0.1h1.8
		c0.1,0,0.1,0,0.1-0.1l0-1.6C81.4,220.6,81.3,220.5,81.2,220.5L81.2,220.5z"/>
	<path d="M80,221.8C80,221.8,80.1,221.8,80,221.8L80,221.8c0.1,0,0.2,0,0.2,0l0.7-0.7c0,0,0-0.1,0-0.2c0,0-0.1,0-0.2,0l-0.6,0.6
		l-0.2-0.3c0-0.1-0.1-0.1-0.2,0c-0.1,0-0.1,0.1,0,0.2L80,221.8z"/>
	<path d="M81.1,224.4h-1.5v-1.4h1.5L81.1,224.4z M81.2,222.8h-1.8c-0.1,0-0.1,0-0.1,0.1v1.6c0,0.1,0,0.1,0.1,0.1h1.8
		c0.1,0,0.1,0,0.1-0.1l0-1.6C81.4,222.9,81.3,222.8,81.2,222.8L81.2,222.8z"/>
	<path d="M80,224.1C80,224.1,80,224.1,80,224.1L80,224.1c0.1,0,0.2,0,0.2,0l0.7-0.7c0,0,0-0.1,0-0.2c0,0-0.1,0-0.2,0l-0.6,0.6
		l-0.2-0.3c0-0.1-0.1-0.1-0.2,0c-0.1,0-0.1,0.1,0,0.2L80,224.1z"/>
	<path d="M74.3,218.1c0-0.5,0.4-0.9,0.9-0.9h1.3c0.5,0,0.9,0.4,0.9,0.9v0.4h-3.2L74.3,218.1z M75.9,215c0.4,0,0.8,0.4,0.8,0.8
		s-0.4,0.8-0.8,0.8s-0.8-0.4-0.8-0.8C75.1,215.4,75.5,215,75.9,215z M74.1,218.8h3.5c0.1,0,0.2-0.1,0.2-0.2v-0.6
		c0-0.7-0.6-1.3-1.3-1.3h0c0.3-0.2,0.5-0.6,0.5-1c0-0.6-0.5-1.2-1.2-1.2s-1.2,0.5-1.2,1.2c0,0.4,0.2,0.8,0.5,1h-0.1
		c-0.7,0-1.3,0.6-1.3,1.3v0.6C73.9,218.7,74,218.8,74.1,218.8L74.1,218.8z"/>
	<path d="M74.2,219.6c-0.1,0-0.2,0.1-0.2,0.2c0,0.1,0.1,0.2,0.2,0.2l3.6,0c0.1,0,0.2-0.1,0.2-0.2c0-0.1-0.1-0.2-0.2-0.2L74.2,219.6z
		"/>
	<path d="M77.8,220.8h-3.6c-0.1,0-0.2,0.1-0.2,0.2c0,0.1,0.1,0.2,0.2,0.2l3.6,0c0.1,0,0.2-0.1,0.2-0.2
		C78,220.9,77.9,220.8,77.8,220.8L77.8,220.8z"/>
	<path d="M77.9,222.1h-3.8c-0.1,0-0.1,0.1-0.1,0.2c0,0.1,0,0.2,0.1,0.2l3.8,0c0.1,0,0.1-0.1,0.1-0.2C78,222.2,78,222.1,77.9,222.1
		L77.9,222.1z"/>
	<path d="M77.9,223.4h-3.8c-0.1,0-0.1,0.1-0.1,0.2c0,0.1,0,0.2,0.1,0.2l3.8,0c0.1,0,0.1-0.1,0.1-0.2C78,223.5,78,223.4,77.9,223.4
		L77.9,223.4z"/>
	<path d="M77.9,224.7h-3.8c-0.1,0-0.1,0.1-0.1,0.2c0,0.1,0,0.2,0.1,0.2l3.8,0c0.1,0,0.1-0.1,0.1-0.2C78,224.7,78,224.7,77.9,224.7z"
		/>
</g>
<g>
	<path d="M97.1,225.8h-9.3v-11.5h6v3c0,0.1,0.1,0.2,0.2,0.2l3.1,0L97.1,225.8z M94.2,214.5l2.6,2.5l-2.6,0V214.5z M97.4,217.2
		C97.4,217.2,97.4,217.1,97.4,217.2l-3.3-3.2c0,0,0,0-0.1,0H94h-6.4c-0.1,0-0.2,0.1-0.2,0.2V226c0,0.1,0.1,0.2,0.2,0.2h9.6
		c0.1,0,0.2-0.1,0.2-0.2v-0.8L97.4,217.2C97.5,217.3,97.5,217.2,97.4,217.2L97.4,217.2z"/>
	<path d="M95.8,220h-1.5v-1.4h1.5L95.8,220z M95.9,218.4h-1.8c-0.1,0-0.1,0-0.1,0.1v1.6c0,0.1,0,0.1,0.1,0.1h1.8
		c0.1,0,0.1,0,0.1-0.1l0-1.6C96,218.4,96,218.4,95.9,218.4L95.9,218.4z"/>
	<path d="M94.7,219.7C94.7,219.7,94.8,219.7,94.7,219.7L94.7,219.7c0.1,0,0.2,0,0.2,0l0.7-0.7c0,0,0-0.1,0-0.2c0,0-0.1,0-0.2,0
		l-0.6,0.6l-0.2-0.3c0-0.1-0.1-0.1-0.2,0c-0.1,0-0.1,0.1,0,0.2L94.7,219.7z"/>
	<path d="M95.8,222.2h-1.5v-1.4h1.5L95.8,222.2z M95.9,220.5h-1.8c-0.1,0-0.1,0-0.1,0.1v1.6c0,0.1,0,0.1,0.1,0.1h1.8
		c0.1,0,0.1,0,0.1-0.1l0-1.6C96.1,220.6,96,220.5,95.9,220.5L95.9,220.5z"/>
	<path d="M94.7,221.8C94.7,221.8,94.8,221.8,94.7,221.8L94.7,221.8c0.1,0,0.2,0,0.2,0l0.7-0.7c0,0,0-0.1,0-0.2c0,0-0.1,0-0.2,0
		l-0.6,0.6l-0.2-0.3c0-0.1-0.1-0.1-0.2,0c-0.1,0-0.1,0.1,0,0.2L94.7,221.8z"/>
	<path d="M95.8,224.4h-1.5v-1.4h1.5L95.8,224.4z M95.9,222.8h-1.8c-0.1,0-0.1,0-0.1,0.1v1.6c0,0.1,0,0.1,0.1,0.1h1.8
		c0.1,0,0.1,0,0.1-0.1l0-1.6C96.1,222.9,96,222.8,95.9,222.8L95.9,222.8z"/>
	<path d="M94.7,224.1C94.7,224.1,94.7,224.1,94.7,224.1L94.7,224.1c0.1,0,0.2,0,0.2,0l0.7-0.7c0,0,0-0.1,0-0.2c0,0-0.1,0-0.2,0
		l-0.6,0.6l-0.2-0.3c0-0.1-0.1-0.1-0.2,0c-0.1,0-0.1,0.1,0,0.2L94.7,224.1z"/>
	<path d="M89,218.1c0-0.5,0.4-0.9,0.9-0.9h1.3c0.5,0,0.9,0.4,0.9,0.9v0.4H89L89,218.1z M90.6,215c0.4,0,0.8,0.4,0.8,0.8
		s-0.4,0.8-0.8,0.8s-0.8-0.4-0.8-0.8C89.8,215.4,90.2,215,90.6,215z M88.8,218.8h3.5c0.1,0,0.2-0.1,0.2-0.2v-0.6
		c0-0.7-0.6-1.3-1.3-1.3h0c0.3-0.2,0.5-0.6,0.5-1c0-0.6-0.5-1.2-1.2-1.2s-1.2,0.5-1.2,1.2c0,0.4,0.2,0.8,0.5,1h-0.1
		c-0.7,0-1.3,0.6-1.3,1.3v0.6C88.6,218.7,88.7,218.8,88.8,218.8L88.8,218.8z"/>
	<path d="M88.9,219.6c-0.1,0-0.2,0.1-0.2,0.2c0,0.1,0.1,0.2,0.2,0.2l3.6,0c0.1,0,0.2-0.1,0.2-0.2c0-0.1-0.1-0.2-0.2-0.2L88.9,219.6z
		"/>
	<path d="M92.5,220.8h-3.6c-0.1,0-0.2,0.1-0.2,0.2c0,0.1,0.1,0.2,0.2,0.2l3.6,0c0.1,0,0.2-0.1,0.2-0.2
		C92.6,220.9,92.6,220.8,92.5,220.8L92.5,220.8z"/>
	<path d="M92.6,222.1h-3.8c-0.1,0-0.1,0.1-0.1,0.2c0,0.1,0,0.2,0.1,0.2l3.8,0c0.1,0,0.1-0.1,0.1-0.2
		C92.7,222.2,92.7,222.1,92.6,222.1L92.6,222.1z"/>
	<path d="M92.6,223.4h-3.8c-0.1,0-0.1,0.1-0.1,0.2c0,0.1,0,0.2,0.1,0.2l3.8,0c0.1,0,0.1-0.1,0.1-0.2
		C92.7,223.5,92.7,223.4,92.6,223.4L92.6,223.4z"/>
	<path d="M92.6,224.7h-3.8c-0.1,0-0.1,0.1-0.1,0.2c0,0.1,0,0.2,0.1,0.2l3.8,0c0.1,0,0.1-0.1,0.1-0.2
		C92.7,224.7,92.7,224.7,92.6,224.7z"/>
</g>
<g>
	<path d="M111.8,225.8h-9.3v-11.5h6v3c0,0.1,0.1,0.2,0.2,0.2l3.1,0L111.8,225.8z M108.9,214.5l2.6,2.5l-2.6,0V214.5z M112.1,217.2
		C112.1,217.2,112.1,217.1,112.1,217.2l-3.3-3.2c0,0,0,0-0.1,0h-0.1h-6.4c-0.1,0-0.2,0.1-0.2,0.2V226c0,0.1,0.1,0.2,0.2,0.2h9.6
		c0.1,0,0.2-0.1,0.2-0.2v-0.8L112.1,217.2C112.2,217.3,112.2,217.2,112.1,217.2L112.1,217.2z"/>
	<path d="M110.5,220H109v-1.4h1.5L110.5,220z M110.6,218.4h-1.8c-0.1,0-0.1,0-0.1,0.1v1.6c0,0.1,0,0.1,0.1,0.1h1.8
		c0.1,0,0.1,0,0.1-0.1l0-1.6C110.7,218.4,110.7,218.4,110.6,218.4L110.6,218.4z"/>
	<path d="M109.4,219.7C109.4,219.7,109.4,219.7,109.4,219.7L109.4,219.7c0.1,0,0.2,0,0.2,0l0.7-0.7c0,0,0-0.1,0-0.2c0,0-0.1,0-0.2,0
		l-0.6,0.6l-0.2-0.3c0-0.1-0.1-0.1-0.2,0c-0.1,0-0.1,0.1,0,0.2L109.4,219.7z"/>
	<path d="M110.5,222.2H109v-1.4h1.5L110.5,222.2z M110.6,220.5h-1.8c-0.1,0-0.1,0-0.1,0.1v1.6c0,0.1,0,0.1,0.1,0.1h1.8
		c0.1,0,0.1,0,0.1-0.1l0-1.6C110.7,220.6,110.7,220.5,110.6,220.5L110.6,220.5z"/>
	<path d="M109.4,221.8C109.4,221.8,109.4,221.8,109.4,221.8L109.4,221.8c0.1,0,0.2,0,0.2,0l0.7-0.7c0,0,0-0.1,0-0.2c0,0-0.1,0-0.2,0
		l-0.6,0.6l-0.2-0.3c0-0.1-0.1-0.1-0.2,0c-0.1,0-0.1,0.1,0,0.2L109.4,221.8z"/>
	<path d="M110.5,224.4H109v-1.4h1.5L110.5,224.4z M110.6,222.8h-1.8c-0.1,0-0.1,0-0.1,0.1v1.6c0,0.1,0,0.1,0.1,0.1h1.8
		c0.1,0,0.1,0,0.1-0.1l0-1.6C110.7,222.9,110.7,222.8,110.6,222.8L110.6,222.8z"/>
	<path d="M109.4,224.1C109.4,224.1,109.4,224.1,109.4,224.1L109.4,224.1c0.1,0,0.2,0,0.2,0l0.7-0.7c0,0,0-0.1,0-0.2c0,0-0.1,0-0.2,0
		l-0.6,0.6l-0.2-0.3c0-0.1-0.1-0.1-0.2,0c-0.1,0-0.1,0.1,0,0.2L109.4,224.1z"/>
	<path d="M103.7,218.1c0-0.5,0.4-0.9,0.9-0.9h1.3c0.5,0,0.9,0.4,0.9,0.9v0.4h-3.2L103.7,218.1z M105.3,215c0.4,0,0.8,0.4,0.8,0.8
		s-0.4,0.8-0.8,0.8s-0.8-0.4-0.8-0.8C104.5,215.4,104.8,215,105.3,215z M103.5,218.8h3.5c0.1,0,0.2-0.1,0.2-0.2v-0.6
		c0-0.7-0.6-1.3-1.3-1.3h0c0.3-0.2,0.5-0.6,0.5-1c0-0.6-0.5-1.2-1.2-1.2s-1.2,0.5-1.2,1.2c0,0.4,0.2,0.8,0.5,1h-0.1
		c-0.7,0-1.3,0.6-1.3,1.3v0.6C103.3,218.7,103.4,218.8,103.5,218.8L103.5,218.8z"/>
	<path d="M103.5,219.6c-0.1,0-0.2,0.1-0.2,0.2c0,0.1,0.1,0.2,0.2,0.2l3.6,0c0.1,0,0.2-0.1,0.2-0.2c0-0.1-0.1-0.2-0.2-0.2
		L103.5,219.6z"/>
	<path d="M107.1,220.8h-3.6c-0.1,0-0.2,0.1-0.2,0.2c0,0.1,0.1,0.2,0.2,0.2l3.6,0c0.1,0,0.2-0.1,0.2-0.2
		C107.3,220.9,107.3,220.8,107.1,220.8L107.1,220.8z"/>
	<path d="M107.3,222.1h-3.8c-0.1,0-0.1,0.1-0.1,0.2c0,0.1,0,0.2,0.1,0.2l3.8,0c0.1,0,0.1-0.1,0.1-0.2
		C107.4,222.2,107.3,222.1,107.3,222.1L107.3,222.1z"/>
	<path d="M107.3,223.4h-3.8c-0.1,0-0.1,0.1-0.1,0.2c0,0.1,0,0.2,0.1,0.2l3.8,0c0.1,0,0.1-0.1,0.1-0.2
		C107.4,223.5,107.3,223.4,107.3,223.4L107.3,223.4z"/>
	<path d="M107.3,224.7h-3.8c-0.1,0-0.1,0.1-0.1,0.2c0,0.1,0,0.2,0.1,0.2l3.8,0c0.1,0,0.1-0.1,0.1-0.2
		C107.4,224.7,107.3,224.7,107.3,224.7z"/>
</g>
<g>
	<path d="M82.5,239.4h-9.3v-11.5h6v3c0,0.1,0.1,0.2,0.2,0.2l3.1,0L82.5,239.4z M79.5,228.1l2.6,2.5l-2.6,0V228.1z M82.8,230.7
		C82.8,230.7,82.8,230.7,82.8,230.7l-3.3-3.2c0,0,0,0-0.1,0h-0.1H73c-0.1,0-0.2,0.1-0.2,0.2v11.9c0,0.1,0.1,0.2,0.2,0.2h9.6
		c0.1,0,0.2-0.1,0.2-0.2v-0.8L82.8,230.7C82.8,230.8,82.8,230.8,82.8,230.7L82.8,230.7z"/>
	<path d="M81.2,233.5h-1.5v-1.4h1.5L81.2,233.5z M81.3,231.9h-1.8c-0.1,0-0.1,0-0.1,0.1v1.6c0,0.1,0,0.1,0.1,0.1h1.8
		c0.1,0,0.1,0,0.1-0.1l0-1.6C81.4,232,81.4,231.9,81.3,231.9L81.3,231.9z"/>
	<path d="M80.1,233.3C80.1,233.3,80.1,233.3,80.1,233.3L80.1,233.3c0.1,0,0.2,0,0.2,0l0.7-0.7c0,0,0-0.1,0-0.2c0,0-0.1,0-0.2,0
		l-0.6,0.6l-0.2-0.3c0-0.1-0.1-0.1-0.2,0c-0.1,0-0.1,0.1,0,0.2L80.1,233.3z"/>
	<path d="M81.2,235.7h-1.5v-1.4h1.5L81.2,235.7z M81.3,234.1h-1.8c-0.1,0-0.1,0-0.1,0.1v1.6c0,0.1,0,0.1,0.1,0.1h1.8
		c0.1,0,0.1,0,0.1-0.1l0-1.6C81.4,234.2,81.4,234.1,81.3,234.1L81.3,234.1z"/>
	<path d="M80.1,235.3C80.1,235.3,80.1,235.4,80.1,235.3L80.1,235.3c0.1,0,0.2,0,0.2,0l0.7-0.7c0,0,0-0.1,0-0.2c0,0-0.1,0-0.2,0
		l-0.6,0.6l-0.2-0.3c0-0.1-0.1-0.1-0.2,0c-0.1,0-0.1,0.1,0,0.2L80.1,235.3z"/>
	<path d="M81.2,238h-1.5v-1.4h1.5L81.2,238z M81.3,236.4h-1.8c-0.1,0-0.1,0-0.1,0.1v1.6c0,0.1,0,0.1,0.1,0.1h1.8
		c0.1,0,0.1,0,0.1-0.1l0-1.6C81.4,236.4,81.4,236.4,81.3,236.4L81.3,236.4z"/>
	<path d="M80,237.7C80.1,237.7,80.1,237.7,80,237.7L80,237.7c0.1,0,0.2,0,0.2,0L81,237c0,0,0-0.1,0-0.2c0,0-0.1,0-0.2,0l-0.6,0.6
		l-0.2-0.3c0-0.1-0.1-0.1-0.2,0c-0.1,0-0.1,0.1,0,0.2L80,237.7z"/>
	<path d="M74.4,231.6c0-0.5,0.4-0.9,0.9-0.9h1.3c0.5,0,0.9,0.4,0.9,0.9v0.4h-3.2L74.4,231.6z M76,228.6c0.4,0,0.8,0.4,0.8,0.8
		s-0.4,0.8-0.8,0.8c-0.4,0-0.8-0.4-0.8-0.8C75.2,228.9,75.5,228.6,76,228.6z M74.2,232.4h3.5c0.1,0,0.2-0.1,0.2-0.2v-0.6
		c0-0.7-0.6-1.3-1.3-1.3h0c0.3-0.2,0.5-0.6,0.5-1c0-0.6-0.5-1.2-1.2-1.2c-0.6,0-1.2,0.5-1.2,1.2c0,0.4,0.2,0.8,0.5,1h-0.1
		c-0.7,0-1.3,0.6-1.3,1.3v0.6C74,232.3,74.1,232.4,74.2,232.4L74.2,232.4z"/>
	<path d="M74.2,233.1c-0.1,0-0.2,0.1-0.2,0.2c0,0.1,0.1,0.2,0.2,0.2l3.6,0c0.1,0,0.2-0.1,0.2-0.2c0-0.1-0.1-0.2-0.2-0.2L74.2,233.1z
		"/>
	<path d="M77.8,234.4h-3.6c-0.1,0-0.2,0.1-0.2,0.2c0,0.1,0.1,0.2,0.2,0.2l3.6,0c0.1,0,0.2-0.1,0.2-0.2
		C78,234.5,77.9,234.4,77.8,234.4L77.8,234.4z"/>
	<path d="M78,235.7h-3.8c-0.1,0-0.1,0.1-0.1,0.2c0,0.1,0,0.2,0.1,0.2l3.8,0c0.1,0,0.1-0.1,0.1-0.2C78.1,235.8,78,235.7,78,235.7
		L78,235.7z"/>
	<path d="M78,236.9h-3.8c-0.1,0-0.1,0.1-0.1,0.2c0,0.1,0,0.2,0.1,0.2l3.8,0c0.1,0,0.1-0.1,0.1-0.2C78.1,237,78,236.9,78,236.9
		L78,236.9z"/>
	<path d="M78,238.2h-3.8c-0.1,0-0.1,0.1-0.1,0.2c0,0.1,0,0.2,0.1,0.2l3.8,0c0.1,0,0.1-0.1,0.1-0.2C78.1,238.3,78,238.2,78,238.2z"/>
</g>
<g>
	<path d="M97.2,239.4h-9.3v-11.5h6v3c0,0.1,0.1,0.2,0.2,0.2l3.1,0L97.2,239.4z M94.2,228.1l2.6,2.5l-2.6,0V228.1z M97.5,230.7
		C97.5,230.7,97.5,230.7,97.5,230.7l-3.3-3.2c0,0,0,0-0.1,0h-0.1h-6.4c-0.1,0-0.2,0.1-0.2,0.2v11.9c0,0.1,0.1,0.2,0.2,0.2h9.6
		c0.1,0,0.2-0.1,0.2-0.2v-0.8L97.5,230.7C97.5,230.8,97.5,230.8,97.5,230.7L97.5,230.7z"/>
	<path d="M95.8,233.5h-1.5v-1.4h1.5L95.8,233.5z M96,231.9h-1.8c-0.1,0-0.1,0-0.1,0.1v1.6c0,0.1,0,0.1,0.1,0.1H96
		c0.1,0,0.1,0,0.1-0.1l0-1.6C96.1,232,96,231.9,96,231.9L96,231.9z"/>
	<path d="M94.8,233.3C94.8,233.3,94.8,233.3,94.8,233.3L94.8,233.3c0.1,0,0.2,0,0.2,0l0.7-0.7c0,0,0-0.1,0-0.2c0,0-0.1,0-0.2,0
		l-0.6,0.6l-0.2-0.3c0-0.1-0.1-0.1-0.2,0c-0.1,0-0.1,0.1,0,0.2L94.8,233.3z"/>
	<path d="M95.9,235.7h-1.5v-1.4h1.5L95.9,235.7z M96,234.1h-1.8c-0.1,0-0.1,0-0.1,0.1v1.6c0,0.1,0,0.1,0.1,0.1H96
		c0.1,0,0.1,0,0.1-0.1l0-1.6C96.1,234.2,96.1,234.1,96,234.1L96,234.1z"/>
	<path d="M94.8,235.3C94.8,235.3,94.8,235.4,94.8,235.3L94.8,235.3c0.1,0,0.2,0,0.2,0l0.7-0.7c0,0,0-0.1,0-0.2c0,0-0.1,0-0.2,0
		l-0.6,0.6l-0.2-0.3c0-0.1-0.1-0.1-0.2,0c-0.1,0-0.1,0.1,0,0.2L94.8,235.3z"/>
	<path d="M95.9,238h-1.5v-1.4h1.5L95.9,238z M96,236.4h-1.8c-0.1,0-0.1,0-0.1,0.1v1.6c0,0.1,0,0.1,0.1,0.1H96c0.1,0,0.1,0,0.1-0.1
		l0-1.6C96.1,236.4,96.1,236.4,96,236.4L96,236.4z"/>
	<path d="M94.7,237.7C94.8,237.7,94.8,237.7,94.7,237.7L94.7,237.7c0.1,0,0.2,0,0.2,0l0.7-0.7c0,0,0-0.1,0-0.2c0,0-0.1,0-0.2,0
		l-0.6,0.6l-0.2-0.3c0-0.1-0.1-0.1-0.2,0c-0.1,0-0.1,0.1,0,0.2L94.7,237.7z"/>
	<path d="M89,231.6c0-0.5,0.4-0.9,0.9-0.9h1.3c0.5,0,0.9,0.4,0.9,0.9v0.4H89L89,231.6z M90.6,228.6c0.4,0,0.8,0.4,0.8,0.8
		s-0.4,0.8-0.8,0.8s-0.8-0.4-0.8-0.8C89.9,228.9,90.2,228.6,90.6,228.6z M88.9,232.4h3.5c0.1,0,0.2-0.1,0.2-0.2v-0.6
		c0-0.7-0.6-1.3-1.3-1.3h0c0.3-0.2,0.5-0.6,0.5-1c0-0.6-0.5-1.2-1.2-1.2s-1.2,0.5-1.2,1.2c0,0.4,0.2,0.8,0.5,1H90
		c-0.7,0-1.3,0.6-1.3,1.3v0.6C88.7,232.3,88.8,232.4,88.9,232.4L88.9,232.4z"/>
	<path d="M88.9,233.1c-0.1,0-0.2,0.1-0.2,0.2c0,0.1,0.1,0.2,0.2,0.2l3.6,0c0.1,0,0.2-0.1,0.2-0.2c0-0.1-0.1-0.2-0.2-0.2L88.9,233.1z
		"/>
	<path d="M92.5,234.4h-3.6c-0.1,0-0.2,0.1-0.2,0.2c0,0.1,0.1,0.2,0.2,0.2l3.6,0c0.1,0,0.2-0.1,0.2-0.2
		C92.7,234.5,92.6,234.4,92.5,234.4L92.5,234.4z"/>
	<path d="M92.7,235.7h-3.8c-0.1,0-0.1,0.1-0.1,0.2c0,0.1,0,0.2,0.1,0.2l3.8,0c0.1,0,0.1-0.1,0.1-0.2
		C92.8,235.8,92.7,235.7,92.7,235.7L92.7,235.7z"/>
	<path d="M92.7,236.9h-3.8c-0.1,0-0.1,0.1-0.1,0.2c0,0.1,0,0.2,0.1,0.2l3.8,0c0.1,0,0.1-0.1,0.1-0.2C92.8,237,92.7,236.9,92.7,236.9
		L92.7,236.9z"/>
	<path d="M92.7,238.2h-3.8c-0.1,0-0.1,0.1-0.1,0.2c0,0.1,0,0.2,0.1,0.2l3.8,0c0.1,0,0.1-0.1,0.1-0.2
		C92.8,238.3,92.7,238.2,92.7,238.2z"/>
</g>
<g>
	<path d="M111.8,239.4h-9.3v-11.5h6v3c0,0.1,0.1,0.2,0.2,0.2l3.1,0L111.8,239.4z M108.9,228.1l2.6,2.5l-2.6,0V228.1z M112.2,230.7
		C112.2,230.7,112.2,230.7,112.2,230.7l-3.3-3.2c0,0,0,0-0.1,0h-0.1h-6.4c-0.1,0-0.2,0.1-0.2,0.2v11.9c0,0.1,0.1,0.2,0.2,0.2h9.6
		c0.1,0,0.2-0.1,0.2-0.2v-0.8L112.2,230.7C112.2,230.8,112.2,230.8,112.2,230.7L112.2,230.7z"/>
	<path d="M110.5,233.5H109v-1.4h1.5L110.5,233.5z M110.7,231.9h-1.8c-0.1,0-0.1,0-0.1,0.1v1.6c0,0.1,0,0.1,0.1,0.1h1.8
		c0.1,0,0.1,0,0.1-0.1l0-1.6C110.8,232,110.7,231.9,110.7,231.9L110.7,231.9z"/>
	<path d="M109.5,233.3C109.5,233.3,109.5,233.3,109.5,233.3L109.5,233.3c0.1,0,0.2,0,0.2,0l0.7-0.7c0,0,0-0.1,0-0.2c0,0-0.1,0-0.2,0
		l-0.6,0.6l-0.2-0.3c0-0.1-0.1-0.1-0.2,0c-0.1,0-0.1,0.1,0,0.2L109.5,233.3z"/>
	<path d="M110.6,235.7H109v-1.4h1.5L110.6,235.7z M110.7,234.1h-1.8c-0.1,0-0.1,0-0.1,0.1v1.6c0,0.1,0,0.1,0.1,0.1h1.8
		c0.1,0,0.1,0,0.1-0.1l0-1.6C110.8,234.2,110.7,234.1,110.7,234.1L110.7,234.1z"/>
	<path d="M109.5,235.3C109.5,235.3,109.5,235.4,109.5,235.3L109.5,235.3c0.1,0,0.2,0,0.2,0l0.7-0.7c0,0,0-0.1,0-0.2c0,0-0.1,0-0.2,0
		l-0.6,0.6l-0.2-0.3c0-0.1-0.1-0.1-0.2,0c-0.1,0-0.1,0.1,0,0.2L109.5,235.3z"/>
	<path d="M110.6,238H109v-1.4h1.5L110.6,238z M110.7,236.4h-1.8c-0.1,0-0.1,0-0.1,0.1v1.6c0,0.1,0,0.1,0.1,0.1h1.8
		c0.1,0,0.1,0,0.1-0.1l0-1.6C110.8,236.4,110.7,236.4,110.7,236.4L110.7,236.4z"/>
	<path d="M109.4,237.7C109.4,237.7,109.5,237.7,109.4,237.7L109.4,237.7c0.1,0,0.2,0,0.2,0l0.7-0.7c0,0,0-0.1,0-0.2c0,0-0.1,0-0.2,0
		l-0.6,0.6l-0.2-0.3c0-0.1-0.1-0.1-0.2,0c-0.1,0-0.1,0.1,0,0.2L109.4,237.7z"/>
	<path d="M103.7,231.6c0-0.5,0.4-0.9,0.9-0.9h1.3c0.5,0,0.9,0.4,0.9,0.9v0.4h-3.2L103.7,231.6z M105.3,228.6c0.4,0,0.8,0.4,0.8,0.8
		s-0.4,0.8-0.8,0.8s-0.8-0.4-0.8-0.8C104.5,228.9,104.9,228.6,105.3,228.6z M103.5,232.4h3.5c0.1,0,0.2-0.1,0.2-0.2v-0.6
		c0-0.7-0.6-1.3-1.3-1.3h0c0.3-0.2,0.5-0.6,0.5-1c0-0.6-0.5-1.2-1.2-1.2s-1.2,0.5-1.2,1.2c0,0.4,0.2,0.8,0.5,1h-0.1
		c-0.7,0-1.3,0.6-1.3,1.3v0.6C103.4,232.3,103.5,232.4,103.5,232.4L103.5,232.4z"/>
	<path d="M103.6,233.1c-0.1,0-0.2,0.1-0.2,0.2c0,0.1,0.1,0.2,0.2,0.2l3.6,0c0.1,0,0.2-0.1,0.2-0.2c0-0.1-0.1-0.2-0.2-0.2
		L103.6,233.1z"/>
	<path d="M107.2,234.4h-3.6c-0.1,0-0.2,0.1-0.2,0.2c0,0.1,0.1,0.2,0.2,0.2l3.6,0c0.1,0,0.2-0.1,0.2-0.2
		C107.4,234.5,107.3,234.4,107.2,234.4L107.2,234.4z"/>
	<path d="M107.3,235.7h-3.8c-0.1,0-0.1,0.1-0.1,0.2c0,0.1,0,0.2,0.1,0.2l3.8,0c0.1,0,0.1-0.1,0.1-0.2
		C107.4,235.8,107.4,235.7,107.3,235.7L107.3,235.7z"/>
	<path d="M107.3,236.9h-3.8c-0.1,0-0.1,0.1-0.1,0.2c0,0.1,0,0.2,0.1,0.2l3.8,0c0.1,0,0.1-0.1,0.1-0.2
		C107.4,237,107.4,236.9,107.3,236.9L107.3,236.9z"/>
	<path d="M107.3,238.2h-3.8c-0.1,0-0.1,0.1-0.1,0.2c0,0.1,0,0.2,0.1,0.2l3.8,0c0.1,0,0.1-0.1,0.1-0.2
		C107.4,238.3,107.4,238.2,107.3,238.2z"/>
</g>
<g>
	<path d="M175.8,218.9L175.8,218.9c-1.4,0-2.7,0.5-3.6,1.5c-1.3,1.3-1.8,3.2-1.3,5c0.5,1.8,1.9,3.2,3.6,3.7c1.8,0.5,3.6,0,4.9-1.3
		c1-1,1.5-2.3,1.5-3.7c0-1.4-0.5-2.7-1.5-3.7C178.5,219.5,177.2,218.9,175.8,218.9L175.8,218.9z M175.8,230.2
		c-1.1,0-2.2-0.3-3.2-0.9c-1.5-1-2.5-2.6-2.7-4.4c-0.2-1.8,0.4-3.6,1.7-4.9c1.1-1.1,2.6-1.8,4.2-1.8c1.6,0,3.1,0.6,4.2,1.8
		c1.1,1.1,1.7,2.7,1.7,4.3c0,1.6-0.6,3.1-1.7,4.3C178.9,229.5,177.4,230.2,175.8,230.2L175.8,230.2z"/>
	<path d="M177.1,220.7c-0.5-0.2-1.1-0.2-1.6-0.1l-0.1-0.8c0.6-0.1,1.3-0.1,1.9,0.1L177.1,220.7z"/>
	<path d="M171.1,227.8l-5.2,5.3c-0.1,0.1-0.1,0.2,0,0.3l0.8,0.8c0.1,0.1,0.2,0.1,0.3,0l5.2-5.3C171.8,228.6,171.5,228.2,171.1,227.8
		L171.1,227.8z M166.9,235.1c-0.3,0-0.5-0.1-0.7-0.3l-0.8-0.8c-0.4-0.4-0.4-1.1,0-1.5l5.5-5.6c0.1-0.1,0.2-0.1,0.3-0.1
		c0.1,0,0.2,0.1,0.3,0.2c0.4,0.7,0.9,1.2,1.6,1.6c0.1,0.1,0.2,0.2,0.2,0.3c0,0.1,0,0.2-0.1,0.3l-5.5,5.6
		C167.4,235,167.2,235.1,166.9,235.1L166.9,235.1z"/>
	<path d="M183.5,216.8h3.6l-3.6-3.7V216.8z M188,217.6h-4.9c-0.1,0-0.2,0-0.3-0.1c-0.1-0.1-0.1-0.2-0.1-0.3v-5
		c0-0.2,0.1-0.3,0.2-0.4c0.1-0.1,0.3,0,0.4,0.1l4.9,5c0.1,0.1,0.1,0.3,0.1,0.4C188.3,217.5,188.2,217.6,188,217.6L188,217.6z"/>
	<path d="M188,235.3h-16.6c-0.1,0-0.2,0-0.3-0.1c-0.1-0.1-0.1-0.2-0.1-0.3v-2.3h0.8v1.9h15.9l0-17.1l-4.7-4.8h-11.2v5.8H171l0-6.2
		c0-0.2,0.2-0.4,0.4-0.4h11.7c0.1,0,0.2,0,0.3,0.1l4.9,5c0.1,0.1,0.1,0.2,0.1,0.3v17.7c0,0.1,0,0.2-0.1,0.3
		C188.2,235.3,188.1,235.3,188,235.3L188,235.3z"/>
	<rect x="173.5" y="223" width="0.8" height="3.2"/>
	<rect x="175.3" y="223.9" width="0.8" height="2.3"/>
	<rect x="177.2" y="222.1" width="0.8" height="4.1"/>
	<rect x="179.1" y="231.2" width="3.6" height="0.8"/>
	<rect x="179.1" y="233.6" width="3.6" height="0.8"/>
	<rect x="172.5" y="233.5" width="5.5" height="0.8"/>
	<rect x="172.7" y="231.1" width="5.4" height="0.8"/>
	<path d="M173.7,216.4c0-0.5,0.4-1,1-1h1.3c0.5,0,1,0.4,1,1v0.4h-3.2L173.7,216.4z M175.3,213.2c0.4,0,0.8,0.4,0.8,0.8
		s-0.4,0.8-0.8,0.8s-0.8-0.4-0.8-0.8C174.5,213.6,174.9,213.2,175.3,213.2z M173.5,217.2h3.6c0.1,0,0.2-0.1,0.2-0.2v-0.6
		c0-0.8-0.6-1.4-1.3-1.4h0c0.3-0.2,0.6-0.6,0.6-1c0-0.7-0.5-1.2-1.2-1.2s-1.2,0.5-1.2,1.2c0,0.4,0.2,0.8,0.6,1h-0.1
		c-0.7,0-1.3,0.6-1.3,1.4v0.6C173.3,217.1,173.4,217.2,173.5,217.2L173.5,217.2z"/>
	<path d="M185.5,222.4h-2.4v-2.2h2.4L185.5,222.4z M185.7,219.8h-2.8c-0.1,0-0.2,0.1-0.2,0.2v2.6c0,0.1,0.1,0.2,0.2,0.2h2.8
		c0.1,0,0.2-0.1,0.2-0.2l0-2.6C185.9,219.9,185.8,219.8,185.7,219.8L185.7,219.8z"/>
	<path d="M183.8,222c0,0,0.1,0.1,0.1,0.1h0c0,0,0.1,0,0.1-0.1l1.2-1.1c0.1-0.1,0.1-0.2,0-0.3c-0.1-0.1-0.2-0.1-0.3,0l-1,0.9
		l-0.3-0.4c-0.1-0.1-0.2-0.1-0.3-0.1s-0.1,0.2-0.1,0.3L183.8,222z"/>
	<path d="M185.5,225.9h-2.4v-2.2h2.4L185.5,225.9z M185.7,223.3h-2.8c-0.1,0-0.2,0.1-0.2,0.2v2.6c0,0.1,0.1,0.2,0.2,0.2h2.8
		c0.1,0,0.2-0.1,0.2-0.2l0-2.6C185.9,223.4,185.8,223.3,185.7,223.3L185.7,223.3z"/>
	<path d="M183.8,225.2c0,0,0.1,0.1,0.1,0.1h0c0,0,0.1,0,0.1-0.1l1.2-1.1c0.1-0.1,0.1-0.2,0-0.3c-0.1-0.1-0.2-0.1-0.3,0l-1,0.9
		l-0.3-0.4c-0.1-0.1-0.2-0.1-0.3-0.1s-0.1,0.2-0.1,0.3L183.8,225.2z"/>
	<path d="M185.5,229.5h-2.4v-2.2h2.4L185.5,229.5z M185.7,226.9h-2.8c-0.1,0-0.2,0.1-0.2,0.2v2.6c0,0.1,0.1,0.2,0.2,0.2h2.8
		c0.1,0,0.2-0.1,0.2-0.2l0-2.6C185.9,227,185.8,226.9,185.7,226.9L185.7,226.9z"/>
	<path d="M183.8,229c0,0,0.1,0.1,0.1,0.1h0c0,0,0.1,0,0.1-0.1l1.2-1.1c0.1-0.1,0.1-0.2,0-0.3c-0.1-0.1-0.2-0.1-0.3,0l-1,0.9
		l-0.3-0.4c-0.1-0.1-0.2-0.1-0.3-0.1s-0.1,0.2-0.1,0.3L183.8,229z"/>
</g>
<rect x="371.9" y="128.9" fill="none" width="193.1" height="147.3"/>
<text transform="matrix(1 0 0 1 371.9398 140.0716)"><tspan x="0" y="0" font-family="'ArialMT'" font-size="13px">75% Written communication</tspan><tspan x="0" y="15.6" font-family="'ArialMT'" font-size="13px">51% Editing</tspan><tspan x="0" y="31.2" font-family="'Arial-BoldMT'" font-size="13px">49% Project planning/mgmt</tspan><tspan x="0" y="46.8" font-family="'ArialMT'" font-size="13px">49% Visual communication</tspan><tspan x="0" y="62.4" font-family="'Arial-BoldMT'" font-size="13px">45% Subject-matter familiarity</tspan><tspan x="185.7" y="62.4" font-family="'ArialMT'" font-size="13px"> </tspan><tspan x="0" y="78" font-family="'Arial-BoldMT'" font-size="13px">41% Working with SMEs</tspan><tspan x="0" y="93.6" font-family="'ArialMT'" font-size="13px">40% Style guides/standards</tspan></text>
<text transform="matrix(1 0 0 1 371.9398 89.3397)"><tspan x="0" y="0" font-family="'ArialMT'" font-size="18px">Desired professional </tspan><tspan x="0" y="21.6" font-family="'ArialMT'" font-size="18px">competencies (tw/e)</tspan></text>
<text transform="matrix(1 0 0 1 207.9394 93.0943)" font-family="'ArialMT'" font-size="18px">TC job categories</text>
<rect x="207.9" y="113.2" fill="none" width="152.5" height="114.5"/>
<text transform="matrix(1 0 0 1 207.9386 124.3629)"><tspan x="0" y="0" font-family="'ArialMT'" font-size="13px">22% Content Dev/Mgr.</tspan><tspan x="0" y="15.6" font-family="'ArialMT'" font-size="13px">10% Grant/Propos. Writer</tspan><tspan x="0" y="31.2" font-family="'ArialMT'" font-size="13px"> 4%  Medical Writer</tspan><tspan x="0" y="46.8" font-family="'ArialMT'" font-size="13px">11% Social Media Mgr</tspan><tspan x="0" y="62.4" font-family="'ArialMT'" font-size="13px">52% Tech writer/editor</tspan></text>
<g>
	<path d="M127.4,212.6h-9.3v-11.5h6v3c0,0.1,0.1,0.2,0.2,0.2l3.1,0L127.4,212.6z M124.5,201.4l2.6,2.5l-2.6,0V201.4z M127.8,204
		C127.7,204,127.7,204,127.8,204l-3.3-3.2c0,0,0,0-0.1,0h-0.1H118c-0.1,0-0.2,0.1-0.2,0.2v11.9c0,0.1,0.1,0.2,0.2,0.2h9.6
		c0.1,0,0.2-0.1,0.2-0.2v-0.8L127.8,204C127.8,204.1,127.8,204.1,127.8,204L127.8,204z"/>
	<path d="M126.1,206.8h-1.5v-1.4h1.5L126.1,206.8z M126.2,205.2h-1.8c-0.1,0-0.1,0-0.1,0.1v1.6c0,0.1,0,0.1,0.1,0.1h1.8
		c0.1,0,0.1,0,0.1-0.1l0-1.6C126.4,205.3,126.3,205.2,126.2,205.2L126.2,205.2z"/>
	<path d="M125,206.6C125.1,206.6,125.1,206.6,125,206.6L125,206.6c0.1,0,0.2,0,0.2,0l0.7-0.7c0,0,0-0.1,0-0.2c0,0-0.1,0-0.2,0
		l-0.6,0.6L125,206c0-0.1-0.1-0.1-0.2,0c-0.1,0-0.1,0.1,0,0.2L125,206.6z"/>
	<path d="M126.1,209h-1.5v-1.4h1.5L126.1,209z M126.3,207.4h-1.8c-0.1,0-0.1,0-0.1,0.1v1.6c0,0.1,0,0.1,0.1,0.1h1.8
		c0.1,0,0.1,0,0.1-0.1l0-1.6C126.4,207.5,126.3,207.4,126.3,207.4L126.3,207.4z"/>
	<path d="M125,208.6C125.1,208.6,125.1,208.7,125,208.6L125,208.6c0.1,0,0.2,0,0.2,0l0.7-0.7c0,0,0-0.1,0-0.2c0,0-0.1,0-0.2,0
		l-0.6,0.6l-0.2-0.3c0-0.1-0.1-0.1-0.2,0c-0.1,0-0.1,0.1,0,0.2L125,208.6z"/>
	<path d="M126.1,211.3h-1.5v-1.4h1.5L126.1,211.3z M126.3,209.7h-1.8c-0.1,0-0.1,0-0.1,0.1v1.6c0,0.1,0,0.1,0.1,0.1h1.8
		c0.1,0,0.1,0,0.1-0.1l0-1.6C126.4,209.7,126.3,209.7,126.3,209.7L126.3,209.7z"/>
	<path d="M125,211C125,211,125,211,125,211L125,211c0.1,0,0.2,0,0.2,0l0.7-0.7c0,0,0-0.1,0-0.2c0,0-0.1,0-0.2,0l-0.6,0.6l-0.2-0.3
		c0-0.1-0.1-0.1-0.2,0c-0.1,0-0.1,0.1,0,0.2L125,211z"/>
	<path d="M119.3,204.9c0-0.5,0.4-0.9,0.9-0.9h1.3c0.5,0,0.9,0.4,0.9,0.9v0.4h-3.2L119.3,204.9z M120.9,201.9c0.4,0,0.8,0.4,0.8,0.8
		s-0.4,0.8-0.8,0.8s-0.8-0.4-0.8-0.8C120.1,202.2,120.5,201.9,120.9,201.9z M119.1,205.7h3.5c0.1,0,0.2-0.1,0.2-0.2v-0.6
		c0-0.7-0.6-1.3-1.3-1.3h0c0.3-0.2,0.5-0.6,0.5-1c0-0.6-0.5-1.2-1.2-1.2s-1.2,0.5-1.2,1.2c0,0.4,0.2,0.8,0.5,1h-0.1
		c-0.7,0-1.3,0.6-1.3,1.3v0.6C118.9,205.6,119,205.7,119.1,205.7L119.1,205.7z"/>
	<path d="M119.2,206.4c-0.1,0-0.2,0.1-0.2,0.2c0,0.1,0.1,0.2,0.2,0.2l3.6,0c0.1,0,0.2-0.1,0.2-0.2c0-0.1-0.1-0.2-0.2-0.2
		L119.2,206.4z"/>
	<path d="M122.8,207.7h-3.6c-0.1,0-0.2,0.1-0.2,0.2c0,0.1,0.1,0.2,0.2,0.2l3.6,0c0.1,0,0.2-0.1,0.2-0.2
		C123,207.8,122.9,207.7,122.8,207.7L122.8,207.7z"/>
	<path d="M122.9,209h-3.8c-0.1,0-0.1,0.1-0.1,0.2c0,0.1,0,0.2,0.1,0.2l3.8,0c0.1,0,0.1-0.1,0.1-0.2C123,209,123,209,122.9,209
		L122.9,209z"/>
	<path d="M122.9,210.2h-3.8c-0.1,0-0.1,0.1-0.1,0.2c0,0.1,0,0.2,0.1,0.2l3.8,0c0.1,0,0.1-0.1,0.1-0.2
		C123,210.3,123,210.2,122.9,210.2L122.9,210.2z"/>
	<path d="M122.9,211.5h-3.8c-0.1,0-0.1,0.1-0.1,0.2c0,0.1,0,0.2,0.1,0.2l3.8,0c0.1,0,0.1-0.1,0.1-0.2
		C123,211.6,123,211.5,122.9,211.5z"/>
</g>
<g>
	<path d="M142.1,212.6h-9.3v-11.5h6v3c0,0.1,0.1,0.2,0.2,0.2l3.1,0L142.1,212.6z M139.2,201.4l2.6,2.5l-2.6,0V201.4z M142.5,204
		C142.4,204,142.4,204,142.5,204l-3.3-3.2c0,0,0,0-0.1,0H139h-6.4c-0.1,0-0.2,0.1-0.2,0.2v11.9c0,0.1,0.1,0.2,0.2,0.2h9.6
		c0.1,0,0.2-0.1,0.2-0.2v-0.8L142.5,204C142.5,204.1,142.5,204.1,142.5,204L142.5,204z"/>
	<path d="M140.8,206.8h-1.5v-1.4h1.5L140.8,206.8z M140.9,205.2h-1.8c-0.1,0-0.1,0-0.1,0.1v1.6c0,0.1,0,0.1,0.1,0.1h1.8
		c0.1,0,0.1,0,0.1-0.1l0-1.6C141,205.3,141,205.2,140.9,205.2L140.9,205.2z"/>
	<path d="M139.7,206.6C139.7,206.6,139.8,206.6,139.7,206.6L139.7,206.6c0.1,0,0.2,0,0.2,0l0.7-0.7c0,0,0-0.1,0-0.2c0,0-0.1,0-0.2,0
		l-0.6,0.6l-0.2-0.3c0-0.1-0.1-0.1-0.2,0c-0.1,0-0.1,0.1,0,0.2L139.7,206.6z"/>
	<path d="M140.8,209h-1.5v-1.4h1.5L140.8,209z M140.9,207.4h-1.8c-0.1,0-0.1,0-0.1,0.1v1.6c0,0.1,0,0.1,0.1,0.1h1.8
		c0.1,0,0.1,0,0.1-0.1l0-1.6C141.1,207.5,141,207.4,140.9,207.4L140.9,207.4z"/>
	<path d="M139.7,208.6C139.7,208.6,139.8,208.7,139.7,208.6L139.7,208.6c0.1,0,0.2,0,0.2,0l0.7-0.7c0,0,0-0.1,0-0.2c0,0-0.1,0-0.2,0
		l-0.6,0.6l-0.2-0.3c0-0.1-0.1-0.1-0.2,0c-0.1,0-0.1,0.1,0,0.2L139.7,208.6z"/>
	<path d="M140.8,211.3h-1.5v-1.4h1.5L140.8,211.3z M140.9,209.7h-1.8c-0.1,0-0.1,0-0.1,0.1v1.6c0,0.1,0,0.1,0.1,0.1h1.8
		c0.1,0,0.1,0,0.1-0.1l0-1.6C141.1,209.7,141,209.7,140.9,209.7L140.9,209.7z"/>
	<path d="M139.7,211C139.7,211,139.7,211,139.7,211L139.7,211c0.1,0,0.2,0,0.2,0l0.7-0.7c0,0,0-0.1,0-0.2c0,0-0.1,0-0.2,0l-0.6,0.6
		l-0.2-0.3c0-0.1-0.1-0.1-0.2,0c-0.1,0-0.1,0.1,0,0.2L139.7,211z"/>
	<path d="M134,204.9c0-0.5,0.4-0.9,0.9-0.9h1.3c0.5,0,0.9,0.4,0.9,0.9v0.4H134L134,204.9z M135.6,201.9c0.4,0,0.8,0.4,0.8,0.8
		s-0.4,0.8-0.8,0.8s-0.8-0.4-0.8-0.8C134.8,202.2,135.2,201.9,135.6,201.9z M133.8,205.7h3.5c0.1,0,0.2-0.1,0.2-0.2v-0.6
		c0-0.7-0.6-1.3-1.3-1.3h0c0.3-0.2,0.5-0.6,0.5-1c0-0.6-0.5-1.2-1.2-1.2c-0.6,0-1.2,0.5-1.2,1.2c0,0.4,0.2,0.8,0.5,1h-0.1
		c-0.7,0-1.3,0.6-1.3,1.3v0.6C133.6,205.6,133.7,205.7,133.8,205.7L133.8,205.7z"/>
	<path d="M133.9,206.4c-0.1,0-0.2,0.1-0.2,0.2c0,0.1,0.1,0.2,0.2,0.2l3.6,0c0.1,0,0.2-0.1,0.2-0.2c0-0.1-0.1-0.2-0.2-0.2
		L133.9,206.4z"/>
	<path d="M137.5,207.7h-3.6c-0.1,0-0.2,0.1-0.2,0.2c0,0.1,0.1,0.2,0.2,0.2l3.6,0c0.1,0,0.2-0.1,0.2-0.2
		C137.7,207.8,137.6,207.7,137.5,207.7L137.5,207.7z"/>
	<path d="M137.6,209h-3.8c-0.1,0-0.1,0.1-0.1,0.2c0,0.1,0,0.2,0.1,0.2l3.8,0c0.1,0,0.1-0.1,0.1-0.2C137.7,209,137.7,209,137.6,209
		L137.6,209z"/>
	<path d="M137.6,210.2h-3.8c-0.1,0-0.1,0.1-0.1,0.2c0,0.1,0,0.2,0.1,0.2l3.8,0c0.1,0,0.1-0.1,0.1-0.2
		C137.7,210.3,137.7,210.2,137.6,210.2L137.6,210.2z"/>
	<path d="M137.6,211.5h-3.8c-0.1,0-0.1,0.1-0.1,0.2c0,0.1,0,0.2,0.1,0.2l3.8,0c0.1,0,0.1-0.1,0.1-0.2
		C137.7,211.6,137.7,211.5,137.6,211.5z"/>
</g>
<path d="M156.8,212.6h-9.3v-11.5h6v3c0,0.1,0.1,0.2,0.2,0.2l3.1,0L156.8,212.6z M153.9,201.4l2.6,2.5l-2.6,0V201.4z M157.1,204
	C157.1,204,157.1,204,157.1,204l-3.3-3.2c0,0,0,0-0.1,0h-0.1h-6.4c-0.1,0-0.2,0.1-0.2,0.2v11.9c0,0.1,0.1,0.2,0.2,0.2h9.6
	c0.1,0,0.2-0.1,0.2-0.2v-0.8L157.1,204C157.2,204.1,157.2,204.1,157.1,204L157.1,204z"/>
<path d="M155.5,206.8H154v-1.4h1.5L155.5,206.8z M155.6,205.2h-1.8c-0.1,0-0.1,0-0.1,0.1v1.6c0,0.1,0,0.1,0.1,0.1h1.8
	c0.1,0,0.1,0,0.1-0.1l0-1.6C155.7,205.3,155.7,205.2,155.6,205.2L155.6,205.2z"/>
<path d="M154.4,206.6C154.4,206.6,154.5,206.6,154.4,206.6L154.4,206.6c0.1,0,0.2,0,0.2,0l0.7-0.7c0,0,0-0.1,0-0.2c0,0-0.1,0-0.2,0
	l-0.6,0.6l-0.2-0.3c0-0.1-0.1-0.1-0.2,0c-0.1,0-0.1,0.1,0,0.2L154.4,206.6z"/>
<path d="M155.5,209H154v-1.4h1.5L155.5,209z M155.6,207.4h-1.8c-0.1,0-0.1,0-0.1,0.1v1.6c0,0.1,0,0.1,0.1,0.1h1.8
	c0.1,0,0.1,0,0.1-0.1l0-1.6C155.8,207.5,155.7,207.4,155.6,207.4L155.6,207.4z"/>
<path d="M154.4,208.6C154.4,208.6,154.5,208.7,154.4,208.6L154.4,208.6c0.1,0,0.2,0,0.2,0l0.7-0.7c0,0,0-0.1,0-0.2c0,0-0.1,0-0.2,0
	l-0.6,0.6l-0.2-0.3c0-0.1-0.1-0.1-0.2,0c-0.1,0-0.1,0.1,0,0.2L154.4,208.6z"/>
<path d="M155.5,211.3H154v-1.4h1.5L155.5,211.3z M155.6,209.7h-1.8c-0.1,0-0.1,0-0.1,0.1v1.6c0,0.1,0,0.1,0.1,0.1h1.8
	c0.1,0,0.1,0,0.1-0.1l0-1.6C155.8,209.7,155.7,209.7,155.6,209.7L155.6,209.7z"/>
<path d="M154.4,211C154.4,211,154.4,211,154.4,211L154.4,211c0.1,0,0.2,0,0.2,0l0.7-0.7c0,0,0-0.1,0-0.2c0,0-0.1,0-0.2,0l-0.6,0.6
	l-0.2-0.3c0-0.1-0.1-0.1-0.2,0c-0.1,0-0.1,0.1,0,0.2L154.4,211z"/>
<path d="M148.7,204.9c0-0.5,0.4-0.9,0.9-0.9h1.3c0.5,0,0.9,0.4,0.9,0.9v0.4h-3.2L148.7,204.9z M150.3,201.9c0.4,0,0.8,0.4,0.8,0.8
	s-0.4,0.8-0.8,0.8s-0.8-0.4-0.8-0.8C149.5,202.2,149.9,201.9,150.3,201.9z M148.5,205.7h3.5c0.1,0,0.2-0.1,0.2-0.2v-0.6
	c0-0.7-0.6-1.3-1.3-1.3h0c0.3-0.2,0.5-0.6,0.5-1c0-0.6-0.5-1.2-1.2-1.2c-0.6,0-1.2,0.5-1.2,1.2c0,0.4,0.2,0.8,0.5,1h-0.1
	c-0.7,0-1.3,0.6-1.3,1.3v0.6C148.3,205.6,148.4,205.7,148.5,205.7L148.5,205.7z"/>
<path d="M148.6,206.4c-0.1,0-0.2,0.1-0.2,0.2c0,0.1,0.1,0.2,0.2,0.2l3.6,0c0.1,0,0.2-0.1,0.2-0.2c0-0.1-0.1-0.2-0.2-0.2L148.6,206.4
	z"/>
<path d="M152.2,207.7h-3.6c-0.1,0-0.2,0.1-0.2,0.2c0,0.1,0.1,0.2,0.2,0.2l3.6,0c0.1,0,0.2-0.1,0.2-0.2
	C152.3,207.8,152.3,207.7,152.2,207.7L152.2,207.7z"/>
<path d="M152.3,209h-3.8c-0.1,0-0.1,0.1-0.1,0.2c0,0.1,0,0.2,0.1,0.2l3.8,0c0.1,0,0.1-0.1,0.1-0.2C152.4,209,152.4,209,152.3,209
	L152.3,209z"/>
<path d="M152.3,210.2h-3.8c-0.1,0-0.1,0.1-0.1,0.2c0,0.1,0,0.2,0.1,0.2l3.8,0c0.1,0,0.1-0.1,0.1-0.2
	C152.4,210.3,152.4,210.2,152.3,210.2L152.3,210.2z"/>
<path d="M152.3,211.5h-3.8c-0.1,0-0.1,0.1-0.1,0.2c0,0.1,0,0.2,0.1,0.2l3.8,0c0.1,0,0.1-0.1,0.1-0.2
	C152.4,211.6,152.4,211.5,152.3,211.5z"/>
<g>
	<path d="M127.7,226.4h-9.3v-11.5h6v3c0,0.1,0.1,0.2,0.2,0.2l3.1,0L127.7,226.4z M124.7,215.1l2.6,2.5l-2.6,0V215.1z M128,217.8
		C128,217.8,128,217.7,128,217.8l-3.3-3.2c0,0,0,0-0.1,0h-0.1h-6.4c-0.1,0-0.2,0.1-0.2,0.2v11.9c0,0.1,0.1,0.2,0.2,0.2h9.6
		c0.1,0,0.2-0.1,0.2-0.2v-0.8L128,217.8C128,217.8,128,217.8,128,217.8L128,217.8z"/>
	<path d="M126.4,220.6h-1.5v-1.4h1.5L126.4,220.6z M126.5,218.9h-1.8c-0.1,0-0.1,0-0.1,0.1v1.6c0,0.1,0,0.1,0.1,0.1h1.8
		c0.1,0,0.1,0,0.1-0.1l0-1.6C126.6,219,126.6,218.9,126.5,218.9L126.5,218.9z"/>
	<path d="M125.3,220.3C125.3,220.3,125.3,220.3,125.3,220.3L125.3,220.3c0.1,0,0.2,0,0.2,0l0.7-0.7c0,0,0-0.1,0-0.2c0,0-0.1,0-0.2,0
		l-0.6,0.6l-0.2-0.3c0-0.1-0.1-0.1-0.2,0c-0.1,0-0.1,0.1,0,0.2L125.3,220.3z"/>
	<path d="M126.4,222.8h-1.5v-1.4h1.5L126.4,222.8z M126.5,221.1h-1.8c-0.1,0-0.1,0-0.1,0.1v1.6c0,0.1,0,0.1,0.1,0.1h1.8
		c0.1,0,0.1,0,0.1-0.1l0-1.6C126.6,221.2,126.6,221.1,126.5,221.1L126.5,221.1z"/>
	<path d="M125.3,222.3C125.3,222.4,125.3,222.4,125.3,222.3L125.3,222.3c0.1,0,0.2,0,0.2,0l0.7-0.7c0,0,0-0.1,0-0.2c0,0-0.1,0-0.2,0
		l-0.6,0.6l-0.2-0.3c0-0.1-0.1-0.1-0.2,0c-0.1,0-0.1,0.1,0,0.2L125.3,222.3z"/>
	<path d="M126.4,225h-1.5v-1.4h1.5L126.4,225z M126.5,223.4h-1.8c-0.1,0-0.1,0-0.1,0.1v1.6c0,0.1,0,0.1,0.1,0.1h1.8
		c0.1,0,0.1,0,0.1-0.1l0-1.6C126.6,223.5,126.6,223.4,126.5,223.4L126.5,223.4z"/>
	<path d="M125.2,224.7C125.3,224.7,125.3,224.7,125.2,224.7L125.2,224.7c0.1,0,0.2,0,0.2,0l0.7-0.7c0,0,0-0.1,0-0.2c0,0-0.1,0-0.2,0
		l-0.6,0.6l-0.2-0.3c0-0.1-0.1-0.1-0.2,0c-0.1,0-0.1,0.1,0,0.2L125.2,224.7z"/>
	<path d="M119.5,218.7c0-0.5,0.4-0.9,0.9-0.9h1.3c0.5,0,0.9,0.4,0.9,0.9v0.4h-3.2L119.5,218.7z M121.1,215.6c0.4,0,0.8,0.4,0.8,0.8
		s-0.4,0.8-0.8,0.8s-0.8-0.4-0.8-0.8C120.4,216,120.7,215.6,121.1,215.6z M119.4,219.4h3.5c0.1,0,0.2-0.1,0.2-0.2v-0.6
		c0-0.7-0.6-1.3-1.3-1.3h0c0.3-0.2,0.5-0.6,0.5-1c0-0.6-0.5-1.2-1.2-1.2s-1.2,0.5-1.2,1.2c0,0.4,0.2,0.8,0.5,1h-0.1
		c-0.7,0-1.3,0.6-1.3,1.3v0.6C119.2,219.3,119.3,219.4,119.4,219.4L119.4,219.4z"/>
	<path d="M119.4,220.2c-0.1,0-0.2,0.1-0.2,0.2c0,0.1,0.1,0.2,0.2,0.2l3.6,0c0.1,0,0.2-0.1,0.2-0.2c0-0.1-0.1-0.2-0.2-0.2
		L119.4,220.2z"/>
	<path d="M123,221.4h-3.6c-0.1,0-0.2,0.1-0.2,0.2c0,0.1,0.1,0.2,0.2,0.2l3.6,0c0.1,0,0.2-0.1,0.2-0.2
		C123.2,221.5,123.1,221.4,123,221.4L123,221.4z"/>
	<path d="M123.2,222.7h-3.8c-0.1,0-0.1,0.1-0.1,0.2c0,0.1,0,0.2,0.1,0.2l3.8,0c0.1,0,0.1-0.1,0.1-0.2
		C123.3,222.8,123.2,222.7,123.2,222.7L123.2,222.7z"/>
	<path d="M123.2,224h-3.8c-0.1,0-0.1,0.1-0.1,0.2c0,0.1,0,0.2,0.1,0.2l3.8,0c0.1,0,0.1-0.1,0.1-0.2C123.3,224.1,123.2,224,123.2,224
		L123.2,224z"/>
	<path d="M123.2,225.2h-3.8c-0.1,0-0.1,0.1-0.1,0.2c0,0.1,0,0.2,0.1,0.2l3.8,0c0.1,0,0.1-0.1,0.1-0.2
		C123.3,225.3,123.2,225.2,123.2,225.2z"/>
</g>
<g>
	<path d="M142.3,226.4h-9.3v-11.5h6v3c0,0.1,0.1,0.2,0.2,0.2l3.1,0L142.3,226.4z M139.4,215.1l2.6,2.5l-2.6,0V215.1z M142.7,217.8
		C142.7,217.8,142.7,217.7,142.7,217.8l-3.3-3.2c0,0,0,0-0.1,0h-0.1h-6.4c-0.1,0-0.2,0.1-0.2,0.2v11.9c0,0.1,0.1,0.2,0.2,0.2h9.6
		c0.1,0,0.2-0.1,0.2-0.2v-0.8L142.7,217.8C142.7,217.8,142.7,217.8,142.7,217.8L142.7,217.8z"/>
	<path d="M141,220.6h-1.5v-1.4h1.5L141,220.6z M141.2,218.9h-1.8c-0.1,0-0.1,0-0.1,0.1v1.6c0,0.1,0,0.1,0.1,0.1h1.8
		c0.1,0,0.1,0,0.1-0.1l0-1.6C141.3,219,141.2,218.9,141.2,218.9L141.2,218.9z"/>
	<path d="M140,220.3C140,220.3,140,220.3,140,220.3L140,220.3c0.1,0,0.2,0,0.2,0l0.7-0.7c0,0,0-0.1,0-0.2c0,0-0.1,0-0.2,0l-0.6,0.6
		l-0.2-0.3c0-0.1-0.1-0.1-0.2,0c-0.1,0-0.1,0.1,0,0.2L140,220.3z"/>
	<path d="M141.1,222.8h-1.5v-1.4h1.5L141.1,222.8z M141.2,221.1h-1.8c-0.1,0-0.1,0-0.1,0.1v1.6c0,0.1,0,0.1,0.1,0.1h1.8
		c0.1,0,0.1,0,0.1-0.1l0-1.6C141.3,221.2,141.3,221.1,141.2,221.1L141.2,221.1z"/>
	<path d="M140,222.3C140,222.4,140,222.4,140,222.3L140,222.3c0.1,0,0.2,0,0.2,0l0.7-0.7c0,0,0-0.1,0-0.2c0,0-0.1,0-0.2,0l-0.6,0.6
		l-0.2-0.3c0-0.1-0.1-0.1-0.2,0c-0.1,0-0.1,0.1,0,0.2L140,222.3z"/>
	<path d="M141.1,225h-1.5v-1.4h1.5L141.1,225z M141.2,223.4h-1.8c-0.1,0-0.1,0-0.1,0.1v1.6c0,0.1,0,0.1,0.1,0.1h1.8
		c0.1,0,0.1,0,0.1-0.1l0-1.6C141.3,223.5,141.3,223.4,141.2,223.4L141.2,223.4z"/>
	<path d="M139.9,224.7C140,224.7,140,224.7,139.9,224.7L139.9,224.7c0.1,0,0.2,0,0.2,0l0.7-0.7c0,0,0-0.1,0-0.2c0,0-0.1,0-0.2,0
		l-0.6,0.6l-0.2-0.3c0-0.1-0.1-0.1-0.2,0c-0.1,0-0.1,0.1,0,0.2L139.9,224.7z"/>
	<path d="M134.2,218.7c0-0.5,0.4-0.9,0.9-0.9h1.3c0.5,0,0.9,0.4,0.9,0.9v0.4h-3.2L134.2,218.7z M135.8,215.6c0.4,0,0.8,0.4,0.8,0.8
		s-0.4,0.8-0.8,0.8s-0.8-0.4-0.8-0.8C135.1,216,135.4,215.6,135.8,215.6z M134.1,219.4h3.5c0.1,0,0.2-0.1,0.2-0.2v-0.6
		c0-0.7-0.6-1.3-1.3-1.3h0c0.3-0.2,0.5-0.6,0.5-1c0-0.6-0.5-1.2-1.2-1.2c-0.6,0-1.2,0.5-1.2,1.2c0,0.4,0.2,0.8,0.5,1h-0.1
		c-0.7,0-1.3,0.6-1.3,1.3v0.6C133.9,219.3,134,219.4,134.1,219.4L134.1,219.4z"/>
	<path d="M134.1,220.2c-0.1,0-0.2,0.1-0.2,0.2c0,0.1,0.1,0.2,0.2,0.2l3.6,0c0.1,0,0.2-0.1,0.2-0.2c0-0.1-0.1-0.2-0.2-0.2
		L134.1,220.2z"/>
	<path d="M137.7,221.4h-3.6c-0.1,0-0.2,0.1-0.2,0.2c0,0.1,0.1,0.2,0.2,0.2l3.6,0c0.1,0,0.2-0.1,0.2-0.2
		C137.9,221.5,137.8,221.4,137.7,221.4L137.7,221.4z"/>
	<path d="M137.8,222.7H134c-0.1,0-0.1,0.1-0.1,0.2c0,0.1,0,0.2,0.1,0.2l3.8,0c0.1,0,0.1-0.1,0.1-0.2
		C137.9,222.8,137.9,222.7,137.8,222.7L137.8,222.7z"/>
	<path d="M137.8,224H134c-0.1,0-0.1,0.1-0.1,0.2c0,0.1,0,0.2,0.1,0.2l3.8,0c0.1,0,0.1-0.1,0.1-0.2C137.9,224.1,137.9,224,137.8,224
		L137.8,224z"/>
	<path d="M137.8,225.2H134c-0.1,0-0.1,0.1-0.1,0.2c0,0.1,0,0.2,0.1,0.2l3.8,0c0.1,0,0.1-0.1,0.1-0.2
		C137.9,225.3,137.9,225.2,137.8,225.2z"/>
</g>
<g>
	<path d="M157,226.4h-9.3v-11.5h6v3c0,0.1,0.1,0.2,0.2,0.2l3.1,0L157,226.4z M154.1,215.1l2.6,2.5l-2.6,0V215.1z M157.4,217.8
		C157.4,217.8,157.4,217.7,157.4,217.8l-3.3-3.2c0,0,0,0-0.1,0h-0.1h-6.4c-0.1,0-0.2,0.1-0.2,0.2v11.9c0,0.1,0.1,0.2,0.2,0.2h9.6
		c0.1,0,0.2-0.1,0.2-0.2v-0.8L157.4,217.8C157.4,217.8,157.4,217.8,157.4,217.8L157.4,217.8z"/>
	<path d="M155.7,220.6h-1.5v-1.4h1.5L155.7,220.6z M155.9,218.9h-1.8c-0.1,0-0.1,0-0.1,0.1v1.6c0,0.1,0,0.1,0.1,0.1h1.8
		c0.1,0,0.1,0,0.1-0.1l0-1.6C156,219,155.9,218.9,155.9,218.9L155.9,218.9z"/>
	<path d="M154.6,220.3C154.7,220.3,154.7,220.3,154.6,220.3L154.6,220.3c0.1,0,0.2,0,0.2,0l0.7-0.7c0,0,0-0.1,0-0.2c0,0-0.1,0-0.2,0
		l-0.6,0.6l-0.2-0.3c0-0.1-0.1-0.1-0.2,0c-0.1,0-0.1,0.1,0,0.2L154.6,220.3z"/>
	<path d="M155.7,222.8h-1.5v-1.4h1.5L155.7,222.8z M155.9,221.1h-1.8c-0.1,0-0.1,0-0.1,0.1v1.6c0,0.1,0,0.1,0.1,0.1h1.8
		c0.1,0,0.1,0,0.1-0.1l0-1.6C156,221.2,155.9,221.1,155.9,221.1L155.9,221.1z"/>
	<path d="M154.6,222.3C154.7,222.4,154.7,222.4,154.6,222.3L154.6,222.3c0.1,0,0.2,0,0.2,0l0.7-0.7c0,0,0-0.1,0-0.2c0,0-0.1,0-0.2,0
		l-0.6,0.6l-0.2-0.3c0-0.1-0.1-0.1-0.2,0c-0.1,0-0.1,0.1,0,0.2L154.6,222.3z"/>
	<path d="M155.7,225h-1.5v-1.4h1.5L155.7,225z M155.9,223.4h-1.8c-0.1,0-0.1,0-0.1,0.1v1.6c0,0.1,0,0.1,0.1,0.1h1.8
		c0.1,0,0.1,0,0.1-0.1l0-1.6C156,223.5,155.9,223.4,155.9,223.4L155.9,223.4z"/>
	<path d="M154.6,224.7C154.6,224.7,154.7,224.7,154.6,224.7L154.6,224.7c0.1,0,0.2,0,0.2,0l0.7-0.7c0,0,0-0.1,0-0.2c0,0-0.1,0-0.2,0
		l-0.6,0.6l-0.2-0.3c0-0.1-0.1-0.1-0.2,0c-0.1,0-0.1,0.1,0,0.2L154.6,224.7z"/>
	<path d="M148.9,218.7c0-0.5,0.4-0.9,0.9-0.9h1.3c0.5,0,0.9,0.4,0.9,0.9v0.4h-3.2L148.9,218.7z M150.5,215.6c0.4,0,0.8,0.4,0.8,0.8
		s-0.4,0.8-0.8,0.8s-0.8-0.4-0.8-0.8C149.7,216,150.1,215.6,150.5,215.6z M148.7,219.4h3.5c0.1,0,0.2-0.1,0.2-0.2v-0.6
		c0-0.7-0.6-1.3-1.3-1.3h0c0.3-0.2,0.5-0.6,0.5-1c0-0.6-0.5-1.2-1.2-1.2c-0.6,0-1.2,0.5-1.2,1.2c0,0.4,0.2,0.8,0.5,1h-0.1
		c-0.7,0-1.3,0.6-1.3,1.3v0.6C148.6,219.3,148.6,219.4,148.7,219.4L148.7,219.4z"/>
	<path d="M148.8,220.2c-0.1,0-0.2,0.1-0.2,0.2c0,0.1,0.1,0.2,0.2,0.2l3.6,0c0.1,0,0.2-0.1,0.2-0.2c0-0.1-0.1-0.2-0.2-0.2
		L148.8,220.2z"/>
	<path d="M152.4,221.4h-3.6c-0.1,0-0.2,0.1-0.2,0.2c0,0.1,0.1,0.2,0.2,0.2l3.6,0c0.1,0,0.2-0.1,0.2-0.2
		C152.6,221.5,152.5,221.4,152.4,221.4L152.4,221.4z"/>
	<path d="M152.5,222.7h-3.8c-0.1,0-0.1,0.1-0.1,0.2c0,0.1,0,0.2,0.1,0.2l3.8,0c0.1,0,0.1-0.1,0.1-0.2
		C152.6,222.8,152.6,222.7,152.5,222.7L152.5,222.7z"/>
	<path d="M152.5,224h-3.8c-0.1,0-0.1,0.1-0.1,0.2c0,0.1,0,0.2,0.1,0.2l3.8,0c0.1,0,0.1-0.1,0.1-0.2C152.6,224.1,152.6,224,152.5,224
		L152.5,224z"/>
	<path d="M152.5,225.2h-3.8c-0.1,0-0.1,0.1-0.1,0.2c0,0.1,0,0.2,0.1,0.2l3.8,0c0.1,0,0.1-0.1,0.1-0.2
		C152.6,225.3,152.6,225.2,152.5,225.2z"/>
</g>
<g>
	<path d="M127.7,239.9h-9.3v-11.5h6v3c0,0.1,0.1,0.2,0.2,0.2l3.1,0L127.7,239.9z M124.8,228.7l2.6,2.5l-2.6,0V228.7z M128.1,231.3
		C128,231.3,128,231.3,128.1,231.3l-3.3-3.2c0,0,0,0-0.1,0h-0.1h-6.4c-0.1,0-0.2,0.1-0.2,0.2v11.9c0,0.1,0.1,0.2,0.2,0.2h9.6
		c0.1,0,0.2-0.1,0.2-0.2v-0.8L128.1,231.3C128.1,231.4,128.1,231.4,128.1,231.3L128.1,231.3z"/>
	<path d="M126.4,234.1h-1.5v-1.4h1.5L126.4,234.1z M126.5,232.5h-1.8c-0.1,0-0.1,0-0.1,0.1v1.6c0,0.1,0,0.1,0.1,0.1h1.8
		c0.1,0,0.1,0,0.1-0.1l0-1.6C126.7,232.6,126.6,232.5,126.5,232.5L126.5,232.5z"/>
	<path d="M125.3,233.8C125.4,233.9,125.4,233.9,125.3,233.8L125.3,233.8c0.1,0,0.2,0,0.2,0l0.7-0.7c0,0,0-0.1,0-0.2c0,0-0.1,0-0.2,0
		l-0.6,0.6l-0.2-0.3c0-0.1-0.1-0.1-0.2,0c-0.1,0-0.1,0.1,0,0.2L125.3,233.8z"/>
	<path d="M126.4,236.3h-1.5v-1.4h1.5L126.4,236.3z M126.5,234.7h-1.8c-0.1,0-0.1,0-0.1,0.1v1.6c0,0.1,0,0.1,0.1,0.1h1.8
		c0.1,0,0.1,0,0.1-0.1l0-1.6C126.7,234.8,126.6,234.7,126.5,234.7L126.5,234.7z"/>
	<path d="M125.3,235.9C125.4,235.9,125.4,235.9,125.3,235.9L125.3,235.9c0.1,0,0.2,0,0.2,0l0.7-0.7c0,0,0-0.1,0-0.2c0,0-0.1,0-0.2,0
		l-0.6,0.6l-0.2-0.3c0-0.1-0.1-0.1-0.2,0c-0.1,0-0.1,0.1,0,0.2L125.3,235.9z"/>
	<path d="M126.4,238.6h-1.5v-1.4h1.5L126.4,238.6z M126.5,237h-1.8c-0.1,0-0.1,0-0.1,0.1v1.6c0,0.1,0,0.1,0.1,0.1h1.8
		c0.1,0,0.1,0,0.1-0.1l0-1.6C126.7,237,126.6,237,126.5,237L126.5,237z"/>
	<path d="M125.3,238.2C125.3,238.3,125.3,238.3,125.3,238.2L125.3,238.2c0.1,0,0.2,0,0.2,0l0.7-0.7c0,0,0-0.1,0-0.2c0,0-0.1,0-0.2,0
		l-0.6,0.6l-0.2-0.3c0-0.1-0.1-0.1-0.2,0c-0.1,0-0.1,0.1,0,0.2L125.3,238.2z"/>
	<path d="M119.6,232.2c0-0.5,0.4-0.9,0.9-0.9h1.3c0.5,0,0.9,0.4,0.9,0.9v0.4h-3.2L119.6,232.2z M121.2,229.2c0.4,0,0.8,0.4,0.8,0.8
		s-0.4,0.8-0.8,0.8s-0.8-0.4-0.8-0.8C120.4,229.5,120.8,229.2,121.2,229.2z M119.4,233h3.5c0.1,0,0.2-0.1,0.2-0.2v-0.6
		c0-0.7-0.6-1.3-1.3-1.3h0c0.3-0.2,0.5-0.6,0.5-1c0-0.6-0.5-1.2-1.2-1.2s-1.2,0.5-1.2,1.2c0,0.4,0.2,0.8,0.5,1h-0.1
		c-0.7,0-1.3,0.6-1.3,1.3v0.6C119.2,232.9,119.3,233,119.4,233L119.4,233z"/>
	<path d="M119.5,233.7c-0.1,0-0.2,0.1-0.2,0.2c0,0.1,0.1,0.2,0.2,0.2l3.6,0c0.1,0,0.2-0.1,0.2-0.2c0-0.1-0.1-0.2-0.2-0.2
		L119.5,233.7z"/>
	<path d="M123.1,235h-3.6c-0.1,0-0.2,0.1-0.2,0.2c0,0.1,0.1,0.2,0.2,0.2l3.6,0c0.1,0,0.2-0.1,0.2-0.2
		C123.3,235.1,123.2,235,123.1,235L123.1,235z"/>
	<path d="M123.2,236.3h-3.8c-0.1,0-0.1,0.1-0.1,0.2c0,0.1,0,0.2,0.1,0.2l3.8,0c0.1,0,0.1-0.1,0.1-0.2
		C123.3,236.3,123.3,236.3,123.2,236.3L123.2,236.3z"/>
	<path d="M123.2,237.5h-3.8c-0.1,0-0.1,0.1-0.1,0.2c0,0.1,0,0.2,0.1,0.2l3.8,0c0.1,0,0.1-0.1,0.1-0.2
		C123.3,237.6,123.3,237.5,123.2,237.5L123.2,237.5z"/>
	<path d="M123.2,238.8h-3.8c-0.1,0-0.1,0.1-0.1,0.2c0,0.1,0,0.2,0.1,0.2l3.8,0c0.1,0,0.1-0.1,0.1-0.2
		C123.3,238.9,123.3,238.8,123.2,238.8z"/>
</g>
<g>
	<path d="M142.4,239.9h-9.3v-11.5h6v3c0,0.1,0.1,0.2,0.2,0.2l3.1,0L142.4,239.9z M139.5,228.7l2.6,2.5l-2.6,0V228.7z M142.8,231.3
		C142.7,231.3,142.7,231.3,142.8,231.3l-3.3-3.2c0,0,0,0-0.1,0h-0.1h-6.4c-0.1,0-0.2,0.1-0.2,0.2v11.9c0,0.1,0.1,0.2,0.2,0.2h9.6
		c0.1,0,0.2-0.1,0.2-0.2v-0.8L142.8,231.3C142.8,231.4,142.8,231.4,142.8,231.3L142.8,231.3z"/>
	<path d="M141.1,234.1h-1.5v-1.4h1.5L141.1,234.1z M141.2,232.5h-1.8c-0.1,0-0.1,0-0.1,0.1v1.6c0,0.1,0,0.1,0.1,0.1h1.8
		c0.1,0,0.1,0,0.1-0.1l0-1.6C141.3,232.6,141.3,232.5,141.2,232.5L141.2,232.5z"/>
	<path d="M140,233.8C140,233.9,140.1,233.9,140,233.8L140,233.8c0.1,0,0.2,0,0.2,0l0.7-0.7c0,0,0-0.1,0-0.2c0,0-0.1,0-0.2,0
		l-0.6,0.6l-0.2-0.3c0-0.1-0.1-0.1-0.2,0c-0.1,0-0.1,0.1,0,0.2L140,233.8z"/>
	<path d="M141.1,236.3h-1.5v-1.4h1.5L141.1,236.3z M141.2,234.7h-1.8c-0.1,0-0.1,0-0.1,0.1v1.6c0,0.1,0,0.1,0.1,0.1h1.8
		c0.1,0,0.1,0,0.1-0.1l0-1.6C141.4,234.8,141.3,234.7,141.2,234.7L141.2,234.7z"/>
	<path d="M140,235.9C140,235.9,140.1,235.9,140,235.9L140,235.9c0.1,0,0.2,0,0.2,0l0.7-0.7c0,0,0-0.1,0-0.2c0,0-0.1,0-0.2,0
		l-0.6,0.6l-0.2-0.3c0-0.1-0.1-0.1-0.2,0c-0.1,0-0.1,0.1,0,0.2L140,235.9z"/>
	<path d="M141.1,238.6h-1.5v-1.4h1.5L141.1,238.6z M141.2,237h-1.8c-0.1,0-0.1,0-0.1,0.1v1.6c0,0.1,0,0.1,0.1,0.1h1.8
		c0.1,0,0.1,0,0.1-0.1l0-1.6C141.4,237,141.3,237,141.2,237L141.2,237z"/>
	<path d="M140,238.2C140,238.3,140,238.3,140,238.2L140,238.2c0.1,0,0.2,0,0.2,0l0.7-0.7c0,0,0-0.1,0-0.2c0,0-0.1,0-0.2,0l-0.6,0.6
		l-0.2-0.3c0-0.1-0.1-0.1-0.2,0c-0.1,0-0.1,0.1,0,0.2L140,238.2z"/>
	<path d="M134.3,232.2c0-0.5,0.4-0.9,0.9-0.9h1.3c0.5,0,0.9,0.4,0.9,0.9v0.4h-3.2L134.3,232.2z M135.9,229.2c0.4,0,0.8,0.4,0.8,0.8
		s-0.4,0.8-0.8,0.8s-0.8-0.4-0.8-0.8C135.1,229.5,135.5,229.2,135.9,229.2z M134.1,233h3.5c0.1,0,0.2-0.1,0.2-0.2v-0.6
		c0-0.7-0.6-1.3-1.3-1.3h0c0.3-0.2,0.5-0.6,0.5-1c0-0.6-0.5-1.2-1.2-1.2c-0.6,0-1.2,0.5-1.2,1.2c0,0.4,0.2,0.8,0.5,1h-0.1
		c-0.7,0-1.3,0.6-1.3,1.3v0.6C133.9,232.9,134,233,134.1,233L134.1,233z"/>
	<path d="M134.2,233.7c-0.1,0-0.2,0.1-0.2,0.2c0,0.1,0.1,0.2,0.2,0.2l3.6,0c0.1,0,0.2-0.1,0.2-0.2c0-0.1-0.1-0.2-0.2-0.2
		L134.2,233.7z"/>
	<path d="M137.8,235h-3.6c-0.1,0-0.2,0.1-0.2,0.2c0,0.1,0.1,0.2,0.2,0.2l3.6,0c0.1,0,0.2-0.1,0.2-0.2
		C137.9,235.1,137.9,235,137.8,235L137.8,235z"/>
	<path d="M137.9,236.3h-3.8c-0.1,0-0.1,0.1-0.1,0.2c0,0.1,0,0.2,0.1,0.2l3.8,0c0.1,0,0.1-0.1,0.1-0.2
		C138,236.3,138,236.3,137.9,236.3L137.9,236.3z"/>
	<path d="M137.9,237.5h-3.8c-0.1,0-0.1,0.1-0.1,0.2c0,0.1,0,0.2,0.1,0.2l3.8,0c0.1,0,0.1-0.1,0.1-0.2
		C138,237.6,138,237.5,137.9,237.5L137.9,237.5z"/>
	<path d="M137.9,238.8h-3.8c-0.1,0-0.1,0.1-0.1,0.2c0,0.1,0,0.2,0.1,0.2l3.8,0c0.1,0,0.1-0.1,0.1-0.2
		C138,238.9,138,238.8,137.9,238.8z"/>
</g>
<g>
	<path d="M157.1,239.9h-9.3v-11.5h6v3c0,0.1,0.1,0.2,0.2,0.2l3.1,0L157.1,239.9z M154.2,228.7l2.6,2.5l-2.6,0V228.7z M157.4,231.3
		C157.4,231.3,157.4,231.3,157.4,231.3l-3.3-3.2c0,0,0,0-0.1,0H154h-6.4c-0.1,0-0.2,0.1-0.2,0.2v11.9c0,0.1,0.1,0.2,0.2,0.2h9.6
		c0.1,0,0.2-0.1,0.2-0.2v-0.8L157.4,231.3C157.5,231.4,157.5,231.4,157.4,231.3L157.4,231.3z"/>
	<path d="M155.8,234.1h-1.5v-1.4h1.5L155.8,234.1z M155.9,232.5h-1.8c-0.1,0-0.1,0-0.1,0.1v1.6c0,0.1,0,0.1,0.1,0.1h1.8
		c0.1,0,0.1,0,0.1-0.1l0-1.6C156,232.6,156,232.5,155.9,232.5L155.9,232.5z"/>
	<path d="M154.7,233.8C154.7,233.9,154.8,233.9,154.7,233.8L154.7,233.8c0.1,0,0.2,0,0.2,0l0.7-0.7c0,0,0-0.1,0-0.2c0,0-0.1,0-0.2,0
		l-0.6,0.6l-0.2-0.3c0-0.1-0.1-0.1-0.2,0c-0.1,0-0.1,0.1,0,0.2L154.7,233.8z"/>
	<path d="M155.8,236.3h-1.5v-1.4h1.5L155.8,236.3z M155.9,234.7h-1.8c-0.1,0-0.1,0-0.1,0.1v1.6c0,0.1,0,0.1,0.1,0.1h1.8
		c0.1,0,0.1,0,0.1-0.1l0-1.6C156,234.8,156,234.7,155.9,234.7L155.9,234.7z"/>
	<path d="M154.7,235.9C154.7,235.9,154.8,235.9,154.7,235.9L154.7,235.9c0.1,0,0.2,0,0.2,0l0.7-0.7c0,0,0-0.1,0-0.2c0,0-0.1,0-0.2,0
		l-0.6,0.6l-0.2-0.3c0-0.1-0.1-0.1-0.2,0c-0.1,0-0.1,0.1,0,0.2L154.7,235.9z"/>
	<path d="M155.8,238.6h-1.5v-1.4h1.5L155.8,238.6z M155.9,237h-1.8c-0.1,0-0.1,0-0.1,0.1v1.6c0,0.1,0,0.1,0.1,0.1h1.8
		c0.1,0,0.1,0,0.1-0.1l0-1.6C156,237,156,237,155.9,237L155.9,237z"/>
	<path d="M154.7,238.2C154.7,238.3,154.7,238.3,154.7,238.2L154.7,238.2c0.1,0,0.2,0,0.2,0l0.7-0.7c0,0,0-0.1,0-0.2c0,0-0.1,0-0.2,0
		l-0.6,0.6l-0.2-0.3c0-0.1-0.1-0.1-0.2,0c-0.1,0-0.1,0.1,0,0.2L154.7,238.2z"/>
	<path d="M149,232.2c0-0.5,0.4-0.9,0.9-0.9h1.3c0.5,0,0.9,0.4,0.9,0.9v0.4H149L149,232.2z M150.6,229.2c0.4,0,0.8,0.4,0.8,0.8
		s-0.4,0.8-0.8,0.8s-0.8-0.4-0.8-0.8C149.8,229.5,150.2,229.2,150.6,229.2z M148.8,233h3.5c0.1,0,0.2-0.1,0.2-0.2v-0.6
		c0-0.7-0.6-1.3-1.3-1.3h0c0.3-0.2,0.5-0.6,0.5-1c0-0.6-0.5-1.2-1.2-1.2c-0.6,0-1.2,0.5-1.2,1.2c0,0.4,0.2,0.8,0.5,1h-0.1
		c-0.7,0-1.3,0.6-1.3,1.3v0.6C148.6,232.9,148.7,233,148.8,233L148.8,233z"/>
	<path d="M148.9,233.7c-0.1,0-0.2,0.1-0.2,0.2c0,0.1,0.1,0.2,0.2,0.2l3.6,0c0.1,0,0.2-0.1,0.2-0.2c0-0.1-0.1-0.2-0.2-0.2
		L148.9,233.7z"/>
	<path d="M152.5,235h-3.6c-0.1,0-0.2,0.1-0.2,0.2c0,0.1,0.1,0.2,0.2,0.2l3.6,0c0.1,0,0.2-0.1,0.2-0.2
		C152.6,235.1,152.6,235,152.5,235L152.5,235z"/>
	<path d="M152.6,236.3h-3.8c-0.1,0-0.1,0.1-0.1,0.2c0,0.1,0,0.2,0.1,0.2l3.8,0c0.1,0,0.1-0.1,0.1-0.2
		C152.7,236.3,152.7,236.3,152.6,236.3L152.6,236.3z"/>
	<path d="M152.6,237.5h-3.8c-0.1,0-0.1,0.1-0.1,0.2c0,0.1,0,0.2,0.1,0.2l3.8,0c0.1,0,0.1-0.1,0.1-0.2
		C152.7,237.6,152.7,237.5,152.6,237.5L152.6,237.5z"/>
	<path d="M152.6,238.8h-3.8c-0.1,0-0.1,0.1-0.1,0.2c0,0.1,0,0.2,0.1,0.2l3.8,0c0.1,0,0.1-0.1,0.1-0.2
		C152.7,238.9,152.7,238.8,152.6,238.8z"/>
</g>
<text transform="matrix(1 0 0 1 72.5181 194.609)" font-family="'ArialMT'" font-size="10.3259px">2013</text>
<line fill="none" stroke="#7C787A" stroke-miterlimit="10" x1="363.4" y1="73.5" x2="363.4" y2="253"/>
<text transform="matrix(1 0 0 1 71.7251 253.0944)" font-family="'ArialMT'" font-size="9.4654px">Brumberger and Lauer</text>
</svg>
