<?xml version="1.0" encoding="utf-8"?>
<!-- Generator: Adobe Illustrator 23.0.3, SVG Export Plug-In . SVG Version: 6.00 Build 0)  -->
<svg version="1.1" id="Layer_1" xmlns="http://www.w3.org/2000/svg" xmlns:xlink="http://www.w3.org/1999/xlink" x="0px" y="0px"
	 viewBox="0 0 600 350" enable-background="new 0 0 600 350" xml:space="preserve">
<path d="M114.7,104.6h36.8v27.2h-17.8c0.7,1,1.2,2.1,1.7,3.2h19.3v-33.6h-43.2v21.8c1-0.3,2.1-0.5,3.2-0.6L114.7,104.6z"/>
<path d="M162.7,159.3v-3.2h36.8v27.2h-30c-0.9,1.2-1.8,2.2-2.7,3.2h35.9V153h-43.2v12.7c0.5-1.1,1-2.3,1.5-3.6
	C161.4,161.1,162,160.1,162.7,159.3L162.7,159.3z"/>
<path d="M137,143.5h2.9v-6.1h-3.7c0.5,1.8,0.8,3.7,0.8,5.6C137,143.1,137,143.3,137,143.5L137,143.5z"/>
<path d="M157.4,169.8V163h-6.1v13.6c0.6-0.2,1.3-0.7,2.4-1.7C154.5,174.1,155.8,172.6,157.4,169.8L157.4,169.8z"/>
<path d="M162,216.7h36.8v27.2H162V216.7z M158.8,247.1H202v-33.6h-43.2V247.1z"/>
<path d="M215.7,194.3h36.8v27.2h-36.8V194.3z M212.5,224.7h43.2v-33.6h-43.2V224.7z"/>
<polygon points="173.9,205.2 173.9,211.3 187.5,211.3 187.5,205.2 182.3,205.2 182.3,195.5 187.5,195.5 187.5,189.3 173.9,189.3 
	173.9,195.5 179.1,195.5 179.1,205.2 "/>
<rect x="227.3" y="182.3" width="13.6" height="6.1"/>
<path d="M303.7,189.8h-36.8v-27.2h36.8V189.8z M306.9,159.4h-43.2V193h43.2V159.4z"/>
<path d="M140.9,171.2h8.5V168h-11.2c0.4,0.6,1.1,1.4,2,2.4C140.4,170.7,140.7,171,140.9,171.2L140.9,171.2z"/>
<path d="M131.5,163.2c1.1,0.2,2.2,0.6,3.2,1.1v-12c-0.9,1.6-1.9,3.2-3.2,4.5V163.2z"/>
<polygon points="292.1,143.5 292.1,137.3 278.5,137.3 278.5,143.5 283.8,143.5 283.8,150.6 278.5,150.6 278.5,156.7 292.1,156.7 
	292.1,150.6 286.9,150.6 286.9,143.5 "/>
<polygon points="235.1,119.2 244.2,119.2 244.2,144.5 232.5,144.5 232.5,168.3 210.7,168.3 210.7,163 204.6,163 204.6,176.6 
	210.7,176.6 210.7,171.5 232.5,171.5 232.5,179.9 235.7,179.9 235.7,171.5 255.5,171.5 255.5,176.6 261.7,176.6 261.7,163 
	255.5,163 255.5,168.3 235.7,168.3 235.7,147.7 247.4,147.7 247.4,119.2 255.5,119.2 255.5,125 261.6,125 261.6,111.4 255.5,111.4 
	255.5,116 235.1,116 235.1,110.7 228.9,110.7 228.9,124.3 235.1,124.3 "/>
<path d="M223.6,131.8h-36.8v-27.2h36.8V131.8z M226.8,101.4h-43.2V135h43.2V101.4z"/>
<rect x="175.4" y="111.4" width="6.1" height="13.6"/>
<path d="M303.7,131.8h-36.8v-27.2h36.8V131.8z M306.9,101.4h-43.2V135h43.2V101.4z"/>
<rect x="157.5" y="116.8" width="16.4" height="3.2"/>
<path d="M138.4,112.5c0,6.8-10.2,6.8-10.2,0C128.2,105.7,138.4,105.7,138.4,112.5"/>
<path d="M126.8,125.3c0.1-0.3,0.2-0.6,0.4-0.8v1.1c1.8,1.1,3.4,2.4,4.8,4h7.5v-5.1c0.1,0.3,0.3,0.6,0.4,1c0.4,1,0.7,2.3,0.9,4.1h3.7
	c-0.4-3.8-1.3-6.2-2.3-7.8c-0.7-1.1-1.6-1.9-2.4-2.3c-0.5-0.3-1-0.4-1.4-0.4c-0.2-0.1-0.4-0.1-0.5-0.1l-8.8,0c-0.2,0-0.4,0-0.5,0.1
	c-0.4,0.1-0.9,0.2-1.4,0.4c-1.2,0.6-2.5,1.9-3.5,4.3c0,0,0,0,0,0C124.6,124.1,125.7,124.7,126.8,125.3L126.8,125.3z"/>
<path d="M177.2,161.7c0.9,2,1,4.2,0.3,6.2c0.9,0.9,2.2,1.4,3.5,1.4c2.8,0,5.1-2.3,5.1-5.1s-2.3-5.1-5.1-5.1c-1.7,0-3.2,0.8-4.1,2.1
	C177.1,161.4,177.2,161.5,177.2,161.7L177.2,161.7z"/>
<path d="M185.5,170.6h-8.8c-0.1,0-0.1,0-0.2,0c-1.7,4.1-3.5,7.6-5.5,10.6h2.6c0.3-2.4,0.8-4,1.3-5.1v5.1h12.3v-5.1
	c0.1,0.3,0.3,0.6,0.4,1c0.4,1,0.7,2.3,0.9,4.1h3.7c-0.4-3.8-1.3-6.2-2.3-7.8c-0.7-1.1-1.6-1.9-2.4-2.3c-0.5-0.3-1-0.4-1.4-0.4
	C185.9,170.7,185.7,170.6,185.5,170.6L185.5,170.6z"/>
<path d="M186.2,224.5c0,6.8-10.2,6.8-10.2,0C176,217.7,186.2,217.7,186.2,224.5"/>
<path d="M187.4,231.4c-0.5-0.3-1-0.4-1.4-0.4c-0.2-0.1-0.4-0.1-0.5-0.1h-8.8c-0.2,0-0.4,0-0.5,0.1c-0.4,0.1-0.9,0.2-1.4,0.4
	c-1.2,0.6-2.5,1.9-3.5,4.3c-0.6,1.5-1,3.3-1.3,5.8h3.7c0.3-2.4,0.8-4,1.3-5.1v5.1h12.3v-5.1c0.1,0.3,0.3,0.6,0.4,1
	c0.4,1,0.7,2.3,0.9,4.1h3.7c-0.4-3.8-1.3-6.2-2.3-7.8C189.1,232.6,188.2,231.8,187.4,231.4L187.4,231.4z"/>
<path d="M79.9,242.1c0.1,0,0.3,0,0.4,0c3.5-0.2,6.2-3.2,6-6.8c-0.3-5.3-0.5-10.2-0.5-14.6c0-19.4,2.8-30.3,5.6-35.9v120
	c0,5.5,4.4,9.9,9.9,9.9c5.5,0,9.9-4.4,9.9-9.9v-72.2h3.7v72.2c0,5.5,4.4,9.9,9.9,9.9c5.5,0,9.9-4.4,9.9-9.9V186
	c1.4,1.1,2.9,2.2,4.6,3.1c3,1.6,6.6,2.9,10.7,2.9h0.2c4.8,0,9.9-2.1,14-6.2c4.2-4.1,7.8-10,11-18.3c1.3-3.3-0.4-7-3.7-8.3
	c-3.3-1.3-7,0.4-8.3,3.7c-2.8,7.2-5.6,11.5-8,13.7c-2.4,2.2-3.8,2.5-5.3,2.6c-1.3,0-2.8-0.4-4.5-1.4c-2.5-1.4-5.2-3.8-7-5.9
	c-0.9-1-1.7-2-2.2-2.6c-0.2-0.3-0.4-0.6-0.5-0.8c-0.1-0.1-0.1-0.1-0.1-0.2c0,0,0,0,0,0c0,0,0,0,0,0c-1.4-2.1-3.8-3.1-6.1-2.8
	c-0.3,0-0.6-0.1-1-0.1H97.6c-0.1,0-0.3,0-0.4,0c-1.5,0-3.8,0.4-6.5,1.7c-4.3,2.1-8.9,6.8-12.2,15.1c-3.3,8.3-5.5,20.3-5.5,38.4
	c0,4.7,0.2,9.8,0.5,15.3C73.7,239.5,76.5,242.1,79.9,242.1L79.9,242.1z"/>
<path d="M134.6,142.9c0,9.9-8.1,18-18,18s-18-8.1-18-18c0-9.9,8.1-18,18-18S134.6,133,134.6,142.9"/>
<path d="M236.8,206.6v-7.3c-3.6,2.2-7.3-2.1-10.9-0.7v-0.2c0-0.3-0.2-0.5-0.5-0.5c-0.3,0-0.5,0.2-0.5,0.5V219h1.1v-12.4
	C229.6,205,233.2,209.1,236.8,206.6L236.8,206.6z"/>
<rect x="217.5" y="214.4" width="6.2" height="0.9"/>
<rect x="227.3" y="214.4" width="22.4" height="0.9"/>
<path d="M277,111.5c2,0,3.6,1.6,3.6,3.6c0,2-1.6,3.6-3.6,3.6c-2,0-3.6-1.6-3.6-3.6C273.4,113.1,275,111.5,277,111.5z M270.3,116.5
	c0.2,0.8,0.5,1.5,0.9,2.2l-1.1,1.1c0.6,0.8,1.3,1.5,2.1,2.1l1.1-1.1c0.7,0.4,1.4,0.7,2.2,0.9v1.5c0.5,0.1,1,0.1,1.5,0.1
	c0.5,0,1-0.1,1.5-0.1v-1.5c0.8-0.2,1.5-0.5,2.2-0.9l1.1,1.1c0.8-0.6,1.5-1.3,2.1-2.1l-1.1-1.1c0.4-0.7,0.7-1.4,0.9-2.2h1.5
	c0.1-0.5,0.1-1,0.1-1.5c0-0.5-0.1-1-0.1-1.5h-1.5c-0.2-0.8-0.5-1.5-0.9-2.2l1.1-1.1c-0.6-0.8-1.3-1.5-2.1-2.1l-1.1,1.1
	c-0.7-0.4-1.4-0.7-2.2-0.9l0-1.5c-0.5-0.1-1-0.1-1.5-0.1c-0.5,0-1,0.1-1.5,0.1v1.5c-0.8,0.2-1.5,0.5-2.2,0.9l-1.1-1.1
	c-0.8,0.6-1.5,1.3-2.1,2.1l1.1,1.1c-0.4,0.7-0.7,1.4-0.9,2.2h-1.5c-0.1,0.5-0.1,1-0.1,1.5c0,0.5,0.1,1,0.1,1.5L270.3,116.5z"/>
<path d="M278.7,115c0,2.3-3.5,2.3-3.5,0C275.2,112.7,278.7,112.7,278.7,115"/>
<path d="M293.6,118.1c2,0,3.6,1.6,3.6,3.6c0,2-1.6,3.6-3.6,3.6s-3.6-1.6-3.6-3.6C290,119.7,291.6,118.1,293.6,118.1z M287,123.2
	c0.2,0.8,0.5,1.5,0.9,2.2l-1.1,1.1c0.6,0.8,1.3,1.5,2.1,2.1l1.1-1.1c0.7,0.4,1.4,0.7,2.2,0.9v1.5c0.5,0.1,1,0.1,1.5,0.1
	c0.5,0,1-0.1,1.5-0.1v-1.5c0.8-0.2,1.5-0.5,2.2-0.9l1.1,1.1c0.8-0.6,1.5-1.3,2.1-2.1l-1.1-1.1c0.4-0.7,0.7-1.4,0.9-2.2h1.5
	c0.1-0.5,0.1-1,0.1-1.5c0-0.5-0.1-1-0.1-1.5h-1.5c-0.2-0.8-0.5-1.5-0.9-2.2l1.1-1.1c-0.6-0.8-1.3-1.5-2.1-2.1l-1.1,1.1
	c-0.7-0.4-1.4-0.7-2.2-0.9l0-1.5c-0.5-0.1-1-0.1-1.5-0.1c-0.5,0-1,0.1-1.5,0.1v1.5c-0.8,0.2-1.5,0.5-2.2,0.9l-1.1-1.1
	c-0.8,0.6-1.5,1.3-2.1,2.1l1.1,1.1c-0.4,0.7-0.7,1.4-0.9,2.2h-1.5c-0.1,0.5-0.1,1-0.1,1.5c0,0.5,0.1,1,0.1,1.5L287,123.2z"/>
<path d="M295.4,121.7c0,2.3-3.5,2.3-3.5,0C291.9,119.4,295.4,119.4,295.4,121.7"/>
<path d="M294.6,176.3l-1.4,1.1l-2.3-1.3l-3,2.4l-1.8-2.1l4.3-7.5L294.6,176.3z M290.6,186.6l0.4,0.6h11.4l-12-20.8l-5.7,9.9
	L290.6,186.6z"/>
<path d="M283,178l-1.2,1l-2-1.1l-2.5,2l-1.6-1.7l3.6-6.3L283,178z M279.4,169.7l-10.1,17.5h20.2L279.4,169.7z"/>
<path d="M201.8,117.2c1.3,0,2.3,1,2.3,2.3s-1,2.3-2.3,2.3c-1.3,0-2.3-1-2.3-2.3S200.5,117.2,201.8,117.2z M208.6,124.6v1.3h-6.7
	v-1.3H208.6z M208.7,117.2c1.3,0,2.3,1,2.3,2.3s-1,2.3-2.3,2.3s-2.3-1-2.3-2.3S207.4,117.2,208.7,117.2z M197.2,128.7h16v-5h2.8
	v-6.1h-2.8v-4.8h-7.1v-1.5c0.8-0.3,1.3-1.1,1.3-2c0-1.2-1-2.2-2.2-2.2s-2.2,1-2.2,2.2c0,0.9,0.5,1.6,1.3,2v1.5h-7.1v4.8h-2.8v6.1
	h2.8L197.2,128.7z"/>
<path d="M385.4,124.9c-0.2,0.2-0.4,0.4-0.7,0.5c-0.6,0.1-1.3-0.3-1.4-0.9c-0.5-2.4-0.7-4.8-0.6-7.3c0-0.7,0.6-1.2,1.2-1.1
	c0.7,0,1.2,0.6,1.1,1.2c-0.1,2.2,0.1,4.5,0.5,6.7C385.7,124.3,385.6,124.6,385.4,124.9L385.4,124.9z"/>
<text transform="matrix(1 0 0 1 176.5643 145.3422)" font-family="'ArialMT'" font-size="10px">Blockbuster</text>
<text transform="matrix(1 0 0 1 155.8035 257.3937)" font-family="'ArialMT'" font-size="10px">Blackberry</text>
<text transform="matrix(0.9995 -3.024000e-02 3.024000e-02 0.9995 206.0172 235.9696)" font-family="'ArialMT'" font-size="10px">Radio Shack</text>
<text transform="matrix(1 0 0 1 266.9892 203.3422)" font-family="'ArialMT'" font-size="10px">Borders</text>
<path d="M439.2,262.6c0,6.5-9.8,6.5-9.8,0C429.4,256.1,439.2,256.1,439.2,262.6"/>
<path d="M486.5,305.4c1.5-0.5,4.5-0.7,1.1-2.1c-3.5-1.4-6.5-4.1-5.1-4c1.3,0.2,1.7,2.9,2.7,0c1-2.9-2.4-14.6-6.2-15.6
	c-3.8-1-4.8-3.1-6-4.6c-1.2-1.5-2.8,2.2-4,1.2c-1.2-1-1-4-3.4-2.2c-2.4,1.8-2.2,5.4-4,3.6c-1.7-1.8-2.4-1.6-2.9-0.8
	c-0.5,0.9-1.2,1.7-2.1,1.9s-5.7,0.4-2.4,1.9c3.3,1.5,14.1,7.2,16,10.3c1.9,3.1,5.5,12.2,5.5,12.2c1.4,4,14.3,4.1,11.5,0
	c-0.6-1-1.1-1.5-1.4-1.9C486,305.5,486.2,305.5,486.5,305.4L486.5,305.4z"/>
<path d="M472.4,302.1v5.7c0,0.6,0.5,1.1,1.1,1.1h2c-0.3-0.4-0.6-0.8-0.8-1.2C474.7,307.6,473.6,305,472.4,302.1L472.4,302.1z"/>
<path d="M421.2,283.8c0.2-0.2,0.3-0.5,0.4-0.8c1.1-6.3-6.6,1.8-15.5-6.9c-0.6-0.6-1-0.3-1.2,0.5v6.4c0.4,0.1,1.7,0.4,3.3,0.7
	L421.2,283.8z"/>
<path d="M428.9,276.1v3.9l-1.1-1.2L428.9,276.1z M439.8,274.8l1.7,4l-1.7,1.8V274.8z M453.7,285.8c-0.3-0.2-1-0.5-1.4-0.9l-5.8,0
	h-2.1l0.2-1c0.1-0.8-0.2-1.7-0.7-2.4c0.7-0.8,0.6-1.6,0.5-1.9l-1.9-9.7c-0.7-1.8-2.2-2.1-2.9-1.9l-1.5,0.4c0,0,0,0-0.1,0
	c-1,0-2.3,0.3-3.7,0.3c-1.2,0-2.2-0.2-3.1-0.3c0,0-0.1,0-0.1-0.1l-1.5-0.4c-0.7-0.2-2.2,0.1-2.9,1.9l-1.9,9.7
	c-0.1,0.3-0.1,0.9,0.3,1.5c-0.7,0.8-1.1,1.9-1,2.8l0.2,1h-1.9l-18.5,0l0-16.7c0-0.6-0.5-1.1-1.1-1.1h-2.4c-0.6,0-1.1,0.5-1.1,1.1
	v39.6c0,0.6,0.5,1.1,1.1,1.1h2.4c0.6,0,1.1-0.5,1.1-1.1v-17.2c0-0.6,0.5-1.1,1.1-1.1h20l2.7,16.6c0.2,1.4,0.8,3.5,2.2,3.3
	c1.4-0.2,1.6-1.6,1.4-3l-0.5-16.9h7.4l-0.5,16.9c-0.2,1.4,0,2.8,1.4,3c1.4,0.2,2-1.9,2.2-3.3l2.7-16.6h17.2
	C458.1,287.9,455.4,286.5,453.7,285.8L453.7,285.8z"/>
<path fill="#EAEAEA" d="M533,213.2h-78.2c-6.6,0-12,5.4-12,12v0.1c0,4,2,7.5,4.9,9.7c-1.8,10-8.2,23.9-8.2,23.9
	c3.1-7.6,12.6-9.9,22.1-19.8c0.6-0.6,1.2-1.3,1.8-1.9H533c6.6,0,12-5.4,12-12v-0.1C545,218.6,539.6,213.2,533,213.2z"/>
<text transform="matrix(1 0 0 1 448.1717 229.0733)" font-family="'ArialMT'" font-size="11px">“what happened?”</text>
<path d="M424.9,93c0,0.1-0.1,0.2-0.1,0.2c-0.3,0.4-0.9,0.6-1.4,0.4c-2.1-0.9-4.2-1.5-6.5-1.9c-0.6-0.1-1.1-0.7-1-1.4
	c0.1-0.6,0.7-1.1,1.4-1c2.4,0.4,4.8,1.1,7,2C424.8,91.7,425.1,92.4,424.9,93L424.9,93z"/>
<path d="M402.8,90.6c2.3-0.8,4.7-1.3,7.2-1.5c0.7-0.1,1.2,0.4,1.3,1.1c0,0.3-0.1,0.6-0.2,0.8c-0.2,0.3-0.5,0.4-0.9,0.5
	c-2.2,0.2-4.5,0.6-6.6,1.3c-0.6,0.2-1.3-0.1-1.5-0.8C401.8,91.4,402.1,90.8,402.8,90.6L402.8,90.6z"/>
<path d="M391.7,136.2c0.4,0.4,0.3,1,0,1.5c-0.1,0.1-0.1,0.1-0.2,0.2c-0.5,0.4-1.3,0.3-1.7-0.2c-1.5-1.9-2.9-4-3.9-6.2
	c-0.3-0.6,0-1.3,0.6-1.6c0.6-0.3,1.3,0,1.6,0.6C389.1,132.6,390.3,134.5,391.7,136.2L391.7,136.2z"/>
<path d="M391.5,100c-0.5-0.5-0.5-1.2,0-1.7c1.7-1.8,3.6-3.3,5.7-4.6c0.6-0.3,1.3-0.2,1.6,0.4c0.3,0.4,0.2,1-0.1,1.3
	c-0.1,0.1-0.2,0.2-0.3,0.3c-1.9,1.2-3.7,2.6-5.2,4.3C392.8,100.4,392,100.4,391.5,100L391.5,100z"/>
<path d="M389.2,104.6c-1.1,1.9-2,4-2.6,6.2c0,0.1-0.1,0.3-0.2,0.4c-0.3,0.4-0.8,0.6-1.3,0.4c-0.6-0.2-1-0.8-0.8-1.5
	c0.7-2.3,1.6-4.6,2.9-6.7c0.3-0.6,1.1-0.8,1.6-0.4C389.3,103.3,389.5,104.1,389.2,104.6L389.2,104.6z"/>
<path d="M430.1,97c-0.5-0.4-0.6-1.1-0.2-1.7l0,0c0.4-0.5,1.1-0.6,1.6-0.2c1.2,0.9,2.3,1.9,3.3,2.9l3.7-5l0.4,10.1l-9,1.3l3.4-4.6
	C432.4,98.9,431.3,97.9,430.1,97L430.1,97z"/>
<path d="M407.6,147.2c0.1-0.6,0.7-1.1,1.4-1c2.2,0.4,4.5,0.4,6.7,0.3c0.7-0.1,1.2,0.4,1.3,1.1c0,0.3-0.1,0.6-0.2,0.8
	c-0.2,0.3-0.5,0.4-0.9,0.5c-2.4,0.2-4.9,0.1-7.3-0.3C407.9,148.4,407.5,147.8,407.6,147.2L407.6,147.2z"/>
<path d="M433.7,138c0.8-0.8,1.7-1.6,2.3-2.5c0,0,0,0,0,0c0.7-0.9,1.1-1.9,1.7-2.9c0.3-0.6,0.9-0.9,1.5-0.5c0.6,0.3,0.8,1.1,0.5,1.6
	c-0.6,1-1.2,2.1-2,3.1c0,0,0,0,0,0c-0.7,1-1.5,1.9-2.4,2.8c-0.5,0.5-1.2,0.5-1.7,0C433.2,139.2,433.2,138.5,433.7,138L433.7,138z"/>
<path d="M395.6,142.3l-0.1-0.1c-0.5-0.4-0.7-1-0.3-1.6c0.4-0.5,1.1-0.5,1.6-0.1l0.1,0.1c1.8,1.4,3.6,2.7,5.7,3.5
	c0.6,0.3,0.8,1.1,0.5,1.7c0,0.1-0.1,0.2-0.1,0.3c-0.3,0.4-0.7,0.3-1.2,0.1C399.5,145.3,397.6,143.8,395.6,142.3L395.6,142.3z"/>
<path d="M422.3,145.1c2.1-0.7,4.2-1.7,6.1-2.9c0.6-0.4,1.3-0.2,1.6,0.4c0.3,0.4,0.2,1-0.1,1.3c-0.1,0.1-0.2,0.2-0.3,0.3
	c-2.1,1.3-4.3,2.4-6.6,3.1c-0.6,0.2-1.3-0.1-1.5-0.7C421.3,146,421.6,145.3,422.3,145.1L422.3,145.1z"/>
<path d="M414.1,113v-10.8c0-0.7-0.4-1.2-1-1.2c-0.7,0-1,0.5-1,1.2v10.9c0-0.1,0.8-0.2,1.2-0.2C413.5,112.9,413.4,112.9,414.1,113
	L414.1,113z"/>
<path d="M433.6,116.2h-16.2c0.1,0.7,0.1,0.9,0.1,1.2c0,0.5-0.1,0.9-0.2,1.6h16.3c0.7,0,1.2-0.7,1.2-1.4
	C434.8,117,434.2,116.2,433.6,116.2L433.6,116.2z"/>
<path d="M415.6,116.4c-0.3-0.7-0.9-1.3-1.6-1.6c-0.3-0.1-0.6-0.2-1-0.2c-0.5,0-1,0.1-1.4,0.4c-0.8,0.5-1.4,1.4-1.4,2.4
	c0,1.5,1.2,2.8,2.8,2.8c1,0,1.9-0.6,2.4-1.4c0.2-0.4,0.4-0.9,0.4-1.4C415.8,117.1,415.7,116.7,415.6,116.4L415.6,116.4z"/>
<text transform="matrix(1 0 0 1 388.9085 170.4142)"><tspan x="0" y="0" font-family="'ArialMT'" font-size="12px">tomorrow’s </tspan><tspan x="0" y="14.4" font-family="'ArialMT'" font-size="12px">market</tspan></text>
<path d="M504.1,84.2c0-1.9,1.6-3.5,3.6-3.5c2,0,3.6,1.6,3.6,3.5s-1.6,3.5-3.6,3.5C505.7,87.7,504.1,86.1,504.1,84.2z M512.8,84.2
	c0-2.8-2.3-5.2-5.2-5.2s-5.2,2.3-5.2,5.2c0,2.8,2.3,5.2,5.2,5.2S512.8,87,512.8,84.2z"/>
<path d="M485.6,92.2c0-0.9,0.4-1.8,1-2.5c0.7-0.7,1.6-1,2.5-1h0c0.9,0,1.8,0.4,2.5,1c0.7,0.7,1,1.6,1,2.5c0,0.9-0.4,1.8-1,2.5
	c-0.7,0.7-1.6,1-2.5,1h0c-0.9,0-1.8-0.4-2.5-1C486,94,485.6,93.1,485.6,92.2z M489.2,97.3c1.4,0,2.7-0.5,3.7-1.5s1.5-2.3,1.5-3.7
	c0-1.4-0.5-2.7-1.5-3.6c-1-1-2.3-1.5-3.6-1.5h0c-1.4,0-2.7,0.5-3.7,1.5c-1,1-1.5,2.3-1.5,3.7c0,1.4,0.5,2.7,1.5,3.6
	C486.5,96.8,487.8,97.3,489.2,97.3L489.2,97.3z"/>
<path d="M471.2,113c1.9,0,3.5,1.6,3.5,3.6c0,2-1.6,3.6-3.5,3.6c-1.9,0-3.5-1.6-3.5-3.6C467.6,114.6,469.2,113,471.2,113z
	 M471.2,121.7c2.8,0,5.2-2.3,5.2-5.2s-2.3-5.2-5.2-5.2c-2.8,0-5.2,2.3-5.2,5.2S468.3,121.7,471.2,121.7z"/>
<path d="M476.7,133.4c0.7-0.7,1.5-1,2.5-1h0c0.9,0,1.8,0.4,2.5,1c0.7,0.7,1,1.6,1,2.5c0,0.9-0.4,1.8-1,2.5c-0.7,0.7-1.5,1-2.5,1h0
	c-0.9,0-1.8-0.4-2.5-1c-0.7-0.7-1-1.6-1-2.5C475.6,134.9,476,134,476.7,133.4z M474,135.9c0,1.4,0.5,2.7,1.5,3.7
	c1,1,2.3,1.5,3.7,1.5h0c1.4,0,2.7-0.5,3.6-1.5c1-1,1.5-2.3,1.5-3.6c0-1.4-0.5-2.7-1.5-3.7c-1-1-2.3-1.5-3.7-1.5h0
	c-1.4,0-2.7,0.5-3.6,1.5C474.5,133.2,474,134.5,474,135.9z"/>
<path d="M498.5,147.4c-2,0-3.6-1.6-3.6-3.5s1.6-3.5,3.6-3.5s3.6,1.6,3.6,3.5S500.5,147.4,498.5,147.4z M498.5,138.7
	c-2.9,0-5.2,2.3-5.2,5.2c0,2.8,2.3,5.2,5.2,5.2s5.2-2.3,5.2-5.2C503.7,141,501.4,138.7,498.5,138.7z"/>
<path d="M521.4,135.9c0,0.9-0.4,1.8-1,2.5c-0.7,0.7-1.6,1-2.5,1h0c-0.9,0-1.8-0.4-2.5-1c-0.7-0.7-1-1.6-1-2.5c0-0.9,0.4-1.8,1-2.5
	c0.7-0.7,1.6-1,2.5-1h0c0.9,0,1.8,0.4,2.5,1C521,134,521.4,134.9,521.4,135.9z M517.9,130.7c-1.4,0-2.7,0.5-3.7,1.5
	c-1,1-1.5,2.3-1.5,3.7s0.5,2.7,1.5,3.6c1,1,2.3,1.5,3.6,1.5h0c1.4,0,2.7-0.5,3.7-1.5c1-1,1.5-2.3,1.5-3.7c0-1.4-0.5-2.7-1.5-3.6
	C520.6,131.2,519.3,130.7,517.9,130.7L517.9,130.7z"/>
<path d="M527.7,120.1c-1.9,0-3.5-1.6-3.5-3.6s1.6-3.6,3.5-3.6c1.9,0,3.5,1.6,3.5,3.6S529.6,120.1,527.7,120.1z M527.7,111.3
	c-2.8,0-5.2,2.3-5.2,5.2c0,2.9,2.3,5.2,5.2,5.2s5.2-2.3,5.2-5.2C532.8,113.7,530.5,111.3,527.7,111.3z"/>
<path d="M530.4,94.7c-0.7,0.7-1.5,1-2.5,1h0c-0.9,0-1.8-0.4-2.5-1c-0.7-0.7-1-1.6-1-2.5c0-0.9,0.4-1.8,1-2.5c0.7-0.7,1.5-1,2.5-1h0
	c0.9,0,1.8,0.4,2.5,1c0.7,0.7,1,1.6,1,2.5C531.4,93.1,531,94,530.4,94.7z M533,92.2c0-1.4-0.5-2.7-1.5-3.7c-1-1-2.3-1.5-3.7-1.5h0
	c-1.4,0-2.7,0.5-3.6,1.5c-1,1-1.5,2.3-1.5,3.6c0,1.4,0.5,2.7,1.5,3.7c1,1,2.3,1.5,3.7,1.5h0c1.4,0,2.7-0.5,3.6-1.5
	C532.5,94.9,533,93.6,533,92.2z"/>
<path d="M521.7,88c0.2-0.4,0.1-0.9-0.3-1.1c-1.8-1-3.7-1.8-5.7-2.4c-0.4-0.1-0.9,0.1-1,0.5s0.1,0.9,0.5,1c1.8,0.6,3.6,1.3,5.3,2.2
	c0.1,0.1,0.3,0.1,0.4,0.1C521.2,88.4,521.5,88.3,521.7,88L521.7,88z"/>
<path d="M500,84.4c-2,0.6-3.9,1.3-5.7,2.3c-0.4,0.2-0.5,0.7-0.3,1.1c0.1,0.3,0.4,0.4,0.7,0.4c0.1,0,0.3,0,0.4-0.1
	c1.7-0.9,3.5-1.7,5.4-2.2c0.4-0.1,0.7-0.6,0.6-1S500.4,84.3,500,84.4L500,84.4z"/>
<path d="M485.1,97.4c-0.4-0.2-0.9-0.1-1.1,0.3c-1,1.8-1.8,3.7-2.4,5.7c-0.1,0.4,0.1,0.9,0.5,1c0.1,0,0.2,0,0.2,0
	c0.3,0,0.7-0.2,0.8-0.6c0.6-1.8,1.3-3.6,2.2-5.3C485.6,98.1,485.5,97.6,485.1,97.4L485.1,97.4z"/>
<path d="M473,123.6c-0.1-0.4-0.6-0.7-1-0.6c-0.4,0.1-0.7,0.6-0.6,1c0.6,2,1.3,3.9,2.3,5.7c0.1,0.3,0.4,0.4,0.7,0.4
	c0.1,0,0.3,0,0.4-0.1c0.4-0.2,0.5-0.7,0.3-1.1C474.3,127.3,473.6,125.5,473,123.6L473,123.6z"/>
<path d="M484.5,139.8c-0.2,0.4-0.1,0.9,0.3,1.1c1.8,1,3.7,1.8,5.7,2.4c0.1,0,0.2,0,0.2,0c0.3,0,0.7-0.2,0.8-0.6
	c0.1-0.4-0.1-0.9-0.5-1c-1.8-0.6-3.6-1.3-5.3-2.2C485.2,139.3,484.7,139.4,484.5,139.8L484.5,139.8z"/>
<path d="M511.1,139.7c-1.7,0.9-3.5,1.7-5.4,2.2c-0.4,0.1-0.7,0.6-0.6,1c0.1,0.4,0.4,0.6,0.8,0.6c0.1,0,0.1,0,0.2,0
	c2-0.6,3.9-1.3,5.7-2.3c0.4-0.2,0.5-0.7,0.3-1.1C512,139.6,511.5,139.5,511.1,139.7L511.1,139.7z"/>
<path d="M526.7,123.5c-0.4-0.1-0.9,0.1-1,0.5c-0.6,1.8-1.3,3.6-2.2,5.3c-0.2,0.4-0.1,0.9,0.3,1.1c0.1,0.1,0.3,0.1,0.4,0.1
	c0.3,0,0.6-0.1,0.7-0.4c1-1.8,1.8-3.7,2.4-5.7C527.3,124,527.1,123.6,526.7,123.5L526.7,123.5z"/>
<path d="M535.8,104.2c0.1,0.4,0.4,0.6,0.8,0.6c0.1,0,0.1,0,0.2,0c0.4-0.1,0.7-0.6,0.6-1c-0.6-2-1.3-3.9-2.3-5.7
	c-0.2-0.4-0.7-0.5-1.1-0.3c-0.4,0.2-0.5,0.7-0.3,1.1C534.5,100.6,535.3,102.4,535.8,104.2L535.8,104.2z"/>
<path d="M498,102.5c2.3-0.1,4.6,0.7,6.2,2.2c1.7,1.6,2.6,3.8,2.6,6.1c0,2.1-0.8,4.1-2.2,5.7c-1.5,1.6-2.3,3.6-2.5,5.8h-7.2
	c-0.2-2.2-1-4.3-2.5-5.8c-1.5-1.6-2.3-3.8-2.2-6C490.3,106.3,493.8,102.8,498,102.5L498,102.5z M500.1,130.7H497
	c-0.6,0-1.1-0.5-1.1-1.1v-0.8h5.2v0.8C501.2,130.2,500.7,130.7,500.1,130.7L500.1,130.7z M502.7,124v2.9c0,0.1-0.1,0.2-0.2,0.2h-7.8
	c-0.1,0-0.2-0.1-0.2-0.2V124H502.7z M488.6,110.4c-0.1,2.7,0.9,5.2,2.7,7.2c1.2,1.3,1.9,2.9,2.1,4.8c-0.3,0.1-0.6,0.4-0.6,0.8v3.7
	c0,0.9,0.7,1.7,1.6,1.8v0.9c0,1.5,1.2,2.7,2.7,2.7h3.1c1.5,0,2.7-1.2,2.7-2.7v-0.9c0.8-0.2,1.5-0.9,1.5-1.8v-3.7
	c0-0.4-0.2-0.7-0.6-0.8c0.2-1.8,0.9-3.5,2.1-4.8c1.7-1.8,2.7-4.3,2.7-6.8c0-2.7-1.1-5.4-3.1-7.3c-2-1.9-4.7-2.9-7.5-2.7
	C492.9,101.2,488.8,105.4,488.6,110.4L488.6,110.4z"/>
<text transform="matrix(1 0 0 1 472.2455 169.4144)"><tspan x="0" y="0" font-family="'ArialMT'" font-size="12px">continuous</tspan><tspan x="0" y="14.4" font-family="'ArialMT'" font-size="12px">innovation</tspan></text>
<g>
	<path fill="none" stroke="#000000" stroke-width="0.8794" stroke-miterlimit="10" d="M357.9,87.9c-4.6,0.2-7.5,4.9-8.9,9.3
		c-4,12.5-1.9,26.3-4.9,39.1c-1.5,6.6-5.6,13.9-12.3,14.5"/>
	<path fill="none" stroke="#000000" stroke-width="0.9337" stroke-miterlimit="10" d="M357.9,221.9c-4.6-0.2-7.5-5.6-8.9-10.5
		c-4-14.1-1.9-29.6-4.9-44.1c-1.5-7.5-5.6-15.7-12.3-16.4"/>
</g>
<rect x="0.1" y="40.5" fill="none" width="600" height="45.9"/>
<text transform="matrix(1 0 0 1 175.7239 61.9592)" font-family="'ArialMT'" font-size="25px">Why trends intrigue us</text>
</svg>
