<?xml version="1.0" encoding="utf-8"?>
<!-- Generator: Adobe Illustrator 23.0.3, SVG Export Plug-In . SVG Version: 6.00 Build 0)  -->
<svg version="1.1" id="Layer_1" xmlns="http://www.w3.org/2000/svg" xmlns:xlink="http://www.w3.org/1999/xlink" x="0px" y="0px"
	 viewBox="0 0 600 350" enable-background="new 0 0 600 350" xml:space="preserve">
<rect x="0" y="44" fill="none" width="600" height="45.9"/>
<text transform="matrix(1 0 0 1 70.0192 65.4988)" font-family="'ArialMT'" font-size="25px">An “evolution” of roles, but towards what?</text>
<path d="M136.6,292.2c0,6,11.9,10.8,26.5,10.8s26.5-4.8,26.5-10.8s-11.9-10.8-26.5-10.8S136.6,286.2,136.6,292.2"/>
<path d="M388.1,293.6c0,6,11.9,10.8,26.5,10.8s26.5-4.8,26.5-10.8s-11.9-10.8-26.5-10.8S388.1,287.7,388.1,293.6"/>
<path d="M196.9,292.9c0,6,11.9,10.8,26.5,10.8c14.6,0,26.5-4.8,26.5-10.8c0-6-11.9-10.8-26.5-10.8
	C208.8,282.1,196.9,287,196.9,292.9"/>
<path d="M326.2,292.9c0,6,11.9,10.8,26.5,10.8c14.6,0,26.5-4.8,26.5-10.8c0-6-11.9-10.8-26.5-10.8C338,282.1,326.2,287,326.2,292.9"
	/>
<path d="M262.1,292.9c0,6,11.9,10.8,26.5,10.8s26.5-4.8,26.5-10.8c0-6-11.9-10.8-26.5-10.8S262.1,287,262.1,292.9"/>
<path d="M148.9,262.3c0,5.4,10.3,9.7,23.1,9.7c12.7,0,23.1-4.3,23.1-9.7c0-5.4-10.3-9.7-23.1-9.7C159.2,252.6,148.9,257,148.9,262.3
	"/>
<path d="M367.4,263.6c0,5.4,10.3,9.7,23.1,9.7c12.7,0,23.1-4.4,23.1-9.7c0-5.4-10.3-9.7-23.1-9.7
	C377.7,253.9,367.4,258.3,367.4,263.6"/>
<path d="M201.2,263c0,5.4,10.3,9.7,23.1,9.7s23.1-4.4,23.1-9.7s-10.3-9.7-23.1-9.7S201.2,257.6,201.2,263"/>
<path d="M313.6,263c0,5.4,10.3,9.7,23.1,9.7s23.1-4.4,23.1-9.7s-10.3-9.7-23.1-9.7S313.6,257.6,313.6,263"/>
<path d="M257.9,263c0,5.4,10.3,9.7,23.1,9.7c12.7,0,23.1-4.4,23.1-9.7s-10.3-9.7-23.1-9.7C268.2,253.3,257.9,257.6,257.9,263"/>
<path d="M163.2,238.5c0,3.5,8.7,6.4,19.5,6.4c10.8,0,19.6-2.9,19.6-6.4c0-3.5-8.8-6.4-19.6-6.4C172,232.1,163.2,235,163.2,238.5"/>
<path d="M348.6,239.3c0,3.5,8.8,6.4,19.6,6.4c10.8,0,19.5-2.9,19.5-6.4c0-3.5-8.7-6.4-19.5-6.4S348.6,235.8,348.6,239.3"/>
<path d="M207.6,238.9c0,3.5,8.7,6.4,19.6,6.4c10.8,0,19.5-2.9,19.5-6.4c0-3.5-8.7-6.4-19.5-6.4C216.4,232.5,207.6,235.4,207.6,238.9
	"/>
<path d="M303,238.9c0,3.5,8.7,6.4,19.5,6.4c10.8,0,19.6-2.9,19.6-6.4c0-3.5-8.7-6.4-19.6-6.4C311.7,232.5,303,235.4,303,238.9"/>
<path d="M255.7,238.9c0,3.5,8.8,6.4,19.6,6.4c10.8,0,19.5-2.9,19.5-6.4c0-3.5-8.7-6.4-19.5-6.4S255.7,235.4,255.7,238.9"/>
<path d="M172.6,221.7c0,6.5,34.1,6.5,34.1,0C206.7,215.2,172.6,215.2,172.6,221.7"/>
<path d="M334.1,222.3c0,6.5,34.1,6.5,34.1,0C368.2,215.9,334.1,215.9,334.1,222.3"/>
<path d="M211.3,222c0,6.4,34.1,6.4,34.1,0C245.4,215.5,211.3,215.5,211.3,222"/>
<path d="M294.4,222c0,6.4,34.1,6.4,34.1,0C328.4,215.5,294.4,215.5,294.4,222"/>
<path d="M253.2,222c0,6.4,34.1,6.4,34.1,0C287.2,215.5,253.2,215.5,253.2,222"/>
<path d="M184.7,206.9c0,6.4,28.1,6.4,28.1,0C212.8,200.5,184.7,200.5,184.7,206.9"/>
<path d="M317.9,207.5c0,6.4,28.1,6.4,28.1,0C346.1,201.1,317.9,201.1,317.9,207.5"/>
<path d="M216.6,207.2c0,6.5,28.1,6.5,28.1,0C244.7,200.8,216.6,200.8,216.6,207.2"/>
<path d="M285.2,207.2c0,6.5,28.1,6.5,28.1,0C313.3,200.8,285.2,200.8,285.2,207.2"/>
<path d="M251.2,207.2c0,6.5,28.1,6.5,28.1,0C279.3,200.8,251.2,200.8,251.2,207.2"/>
<path d="M195.8,193c0,4.7,24.1,4.7,24.1,0C219.9,188.3,195.8,188.3,195.8,193"/>
<path d="M309.9,193.5c0,4.7,24.1,4.7,24.1,0C334,188.8,309.9,188.8,309.9,193.5"/>
<path d="M223.1,193.3c0,4.7,24.1,4.7,24.1,0C247.2,188.6,223.1,188.6,223.1,193.3"/>
<path d="M281.8,193.3c0,4.7,24.1,4.7,24.1,0C305.9,188.6,281.8,188.6,281.8,193.3"/>
<path d="M252.7,193.3c0,4.7,24.1,4.7,24.1,0C276.8,188.6,252.7,188.6,252.7,193.3"/>
<path d="M208,181.8c0,4.2,21,4.2,21,0C228.9,177.6,208,177.6,208,181.8"/>
<path d="M307.3,182.2c0,4.2,21,4.2,21,0C328.3,178.1,307.3,178.1,307.3,182.2"/>
<path d="M231.8,182c0,4.2,21,4.2,21,0C252.7,177.9,231.8,177.9,231.8,182"/>
<path d="M282.9,182c0,4.2,21,4.2,21,0C303.8,177.9,282.9,177.9,282.9,182"/>
<path d="M257.5,182c0,4.2,21,4.2,21,0C278.5,177.9,257.5,177.9,257.5,182"/>
<path d="M223.5,173.1c0,3.1,18,3.1,18,0C241.5,170,223.5,170,223.5,173.1"/>
<path d="M309,173.4c0,3.1,18,3.1,18,0S309,170.3,309,173.4"/>
<path d="M244,173.3c0,3.1,18,3.1,18,0C262,170.2,244,170.2,244,173.3"/>
<path d="M287.9,173.3c0,3.1,18.1,3.1,18.1,0C306,170.2,287.9,170.2,287.9,173.3"/>
<path d="M266.1,173.3c0,3.1,18,3.1,18,0C284.2,170.2,266.1,170.2,266.1,173.3"/>
<path d="M244.4,165.5c0,3.1,15.6,3.1,15.6,0C260,162.4,244.4,162.4,244.4,165.5"/>
<path d="M318.3,165.8c0,3.1,15.6,3.1,15.6,0C333.8,162.7,318.3,162.7,318.3,165.8"/>
<path d="M262.1,165.7c0,3.1,15.6,3.1,15.6,0C277.7,162.6,262.1,162.6,262.1,165.7"/>
<path d="M300.1,165.7c0,3.1,15.6,3.1,15.6,0C315.7,162.6,300.1,162.6,300.1,165.7"/>
<path d="M281.3,165.7c0,3.1,15.6,3.1,15.6,0C296.8,162.6,281.3,162.6,281.3,165.7"/>
<path d="M259,158.9c0,2.1,13.7,2.1,13.7,0C272.6,156.8,259,156.8,259,158.9"/>
<path d="M323.7,159.1c0,2.1,13.7,2.1,13.7,0S323.7,157,323.7,159.1"/>
<path d="M274.5,159c0,2.1,13.7,2.1,13.7,0S274.5,156.9,274.5,159"/>
<path d="M307.8,159c0,2.1,13.7,2.1,13.7,0S307.8,156.9,307.8,159"/>
<path d="M291.3,159c0,2.1,13.7,2.1,13.7,0S291.3,156.9,291.3,159"/>
<path d="M273.3,154.3c0,1.4,12,1.4,12,0C285.3,152.9,273.3,152.9,273.3,154.3"/>
<path d="M330.1,154.5c0,1.4,12,1.4,12,0C342.1,153.1,330.1,153.1,330.1,154.5"/>
<path d="M286.9,154.4c0,1.4,12,1.4,12,0C298.9,153,286.9,153,286.9,154.4"/>
<path d="M316.1,154.4c0,1.4,12,1.4,12,0C328.1,153,316.1,153,316.1,154.4"/>
<path d="M301.7,154.4c0,1.4,12,1.4,12,0C313.6,153,301.7,153,301.7,154.4"/>
<path d="M287.3,150.6c0,1.4,10.3,1.4,10.3,0C297.6,149.2,287.3,149.2,287.3,150.6"/>
<path d="M335.9,150.7c0,1.4,10.3,1.4,10.3,0C346.2,149.3,335.9,149.3,335.9,150.7"/>
<path d="M299,150.7c0,1.4,10.3,1.4,10.3,0C309.2,149.3,299,149.3,299,150.7"/>
<path d="M324,150.7c0,1.4,10.3,1.4,10.3,0C334.2,149.3,324,149.3,324,150.7"/>
<path d="M311.6,150.7c0,1.4,10.3,1.4,10.3,0C321.8,149.3,311.6,149.3,311.6,150.7"/>
<path d="M301.5,147c0,1,8.2,1,8.2,0C309.7,146,301.5,146,301.5,147"/>
<path d="M340.2,147.1c0,1,8.2,1,8.2,0C348.4,146.1,340.2,146.1,340.2,147.1"/>
<path d="M310.8,147c0,1,8.2,1,8.2,0C319,146,310.8,146,310.8,147"/>
<path d="M330.7,147c0,1,8.2,1,8.2,0C338.9,146,330.7,146,330.7,147"/>
<path d="M320.8,147c0,1,8.2,1,8.2,0C329,146,320.8,146,320.8,147"/>
<path d="M312.8,144c0,1,7.1,1,7.1,0C319.9,143,312.8,143,312.8,144"/>
<path d="M346.4,144.1c0,1,7.1,1,7.1,0C353.4,143.1,346.4,143.1,346.4,144.1"/>
<path d="M320.8,144.1c0,1,7.1,1,7.1,0C327.9,143,320.8,143,320.8,144.1"/>
<path d="M338.1,144.1c0,1,7.1,1,7.1,0C345.2,143,338.1,143,338.1,144.1"/>
<path d="M329.5,144.1c0,1,7.1,1,7.1,0C336.6,143,329.5,143,329.5,144.1"/>
<path d="M327.6,141.5c0,0.6,6.3,0.6,6.3,0C333.9,140.9,327.6,140.9,327.6,141.5"/>
<path d="M334.8,141.5c0,0.6,6.3,0.6,6.3,0C341.1,140.9,334.8,140.9,334.8,141.5"/>
<path d="M350.2,141.5c0,0.6,6.3,0.6,6.3,0C356.6,140.9,350.2,140.9,350.2,141.5"/>
<path d="M342.6,141.5c0,0.6,6.3,0.6,6.3,0C348.9,140.9,342.6,140.9,342.6,141.5"/>
<path d="M335,139.3c0,0.6,5.5,0.6,5.5,0C340.5,138.7,335,138.7,335,139.3"/>
<path d="M341.2,139.3c0,0.6,5.5,0.6,5.5,0C346.7,138.8,341.2,138.8,341.2,139.3"/>
<path d="M354.6,139.3c0,0.6,5.5,0.6,5.5,0C360.1,138.8,354.6,138.8,354.6,139.3"/>
<path d="M348,139.3c0,0.6,5.5,0.6,5.5,0C353.5,138.8,348,138.8,348,139.3"/>
<path d="M341.2,137.3c0,0.6,4.8,0.6,4.8,0C346,136.7,341.2,136.7,341.2,137.3"/>
<path d="M346.7,137.3c0,0.6,4.8,0.6,4.8,0C351.5,136.7,346.7,136.7,346.7,137.3"/>
<path d="M358.5,137.3c0,0.6,4.8,0.6,4.8,0C363.3,136.7,358.5,136.7,358.5,137.3"/>
<path d="M352.6,137.3c0,0.6,4.8,0.6,4.8,0C357.5,136.7,352.6,136.7,352.6,137.3"/>
<path d="M350.1,135.4c0,0.4,4.4,0.4,4.4,0C354.6,135,350.1,135,350.1,135.4"/>
<path d="M355.1,135.4c0,0.4,4.4,0.4,4.4,0S355.1,135,355.1,135.4"/>
<path d="M360.6,135.4c0,0.4,4.4,0.4,4.4,0S360.6,135,360.6,135.4"/>
<path fill="#898BAB" d="M121.4,272.5c-0.1-0.4-0.5-0.5-0.9-1.1s-0.6-1.7-0.8-1.8c-0.2-0.2-2.1,1.1-4.3,1c-2.9,0-6.3-1.3-6.4-1
	c-0.1,0.3,2.2,4.4,4.2,8.8c2,4.4,3.5,8.8,3.8,8.8C117.6,287.2,121.6,273.4,121.4,272.5L121.4,272.5z M68,261.1
	c-0.3,0-1.2,1.5-1.7,3.1c-0.6,1.9-0.7,3.9-0.4,4c0.3,0.1,0.8-1.1,1.6-2c0.7-0.9,1.7-1.3,1.7-1.5C69.3,264,68.6,261.2,68,261.1
	L68,261.1z M129.4,310c-2.3,0.5-11.8,0-12.2-0.3c-0.4-0.3,0.5-4.2,0.5-5.1c0-0.9-2.1-2.4-2.7-3.9c-0.2,0.1-3.1,9.9-3.4,10.2
	c-0.3,0.3-1.5-0.1-1.5-0.5c0-0.5,3.6-11.8,3.6-11.8l0,0c-0.7-1.4-1.2-2.8-1.7-4.3c-0.3-1.3-6.5-7.8-7.8-13.2
	c-1.4,4.1-3.7,7.8-6.8,10.8c-3.6,3.3-8.6,4.7-9.1,5.4c-0.5,0.7,0.9,5.3,1.5,6.8c1.2,1.7,2.7,3.2,4.6,4.1c0.9,0.4,2,0.5,3,0.3
	c0.3,0.4,0.3,0.9,0,1.3c-2,0.2-4,0.2-5.9-0.1c-1.7-0.2-3.3-0.6-4.9-1.3c-0.3-0.5,0.2-1.5,0.2-2.4c0-0.9-1.2-3.8-2.4-5.5
	c-1.3,1-2.2,2.4-2.5,4c-0.7,3.8,0.7,4.9,0.7,5.2l0,0c0,0.4-0.3,0.7-0.6,0.8c-0.3,0-1.7-1-2.8-3.4c-1.1-2.4-2.1-6.1-1.9-6.8
	c0.2-0.9,1.6-1,3-1.3c0.7-0.2,2.1-2.6,2.1-2.6s-1.4-2.1-2-3.1c-0.6-1-1-3.6-0.6-6c-2.2,0.5-9.7,0.2-12.8-1c-0.3,1.4-0.9,2.7-1.6,3.9
	c-1.2,2.2-5.7,6.2-6.2,11.8c-0.1,2.3,1.4,3.9,2.3,4.9c0.8,1.1,2.5,1.5,2.7,1.8c0.2,0.3,0.3,1.5-0.5,1.4c-3.5-0.3-8.8-4.1-8.8-5
	s1.1-2.5,1.8-5.3c0.4-1.8,0.7-7.5,1-9.2c0.3-1.8,3.8-6.6,4.1-7.6c0.3-1,0.7-3.1,0.5-3.2c-0.2-0.1-2.3,1.6-2.5,1.6h0
	c-0.7-1.1-1.2-2.3-1.4-3.6c0.1-0.6,1.2-0.8,1.2-1.4c0-0.6-1.8-4.9-1.4-5.4c0.3-0.5,1.7-0.8,3.3-1.2c0.4-4.4,3.5-12.2,4.8-14.8
	c1.2-2.6,4.3-6.2,5.1-9.3c-4.1,0.1-8-3.1-8.3-5.3l0,0c0-0.1,0.1-0.1,0.1-0.1c0.7,0.7,1.8,1.1,2.8,0.9c0,0,0-0.1,0-0.1
	c-0.8-0.5-1.6-1.1-2.3-1.8c-0.6-0.6-1-1.4-1.1-2.3c0.1-0.1,0.6,0.4,1.2,0.6c0.6,0.3,1,0.5,1.6,0.3c0,0,0-0.1,0-0.1
	c-0.4-0.4-3-1.9-2.9-2.9c0,0,0-0.1,0.1-0.1c0.3,0,1.3,0.8,2.1,0.9c0.1-0.2-0.5-1.4-0.6-2.3h0c0-0.1,0.1-0.1,0.1-0.1
	c1,0.6,2,1,3.1,1.3c1.9,0.3,3.8,0.4,5.7,0.2c2-0.3,4,0.4,5.5,1.9c1.1,1.1,1.2,3.5,1.2,5.3c0.1,1.5,0.2,2.5,0.1,2.6
	c-0.1,0.1-1,0-1.2,0.3s0.6,1.9-0.3,2.4c-0.9,0.5-1.9-0.4-2.2-0.3c-0.3,0.1-0.3,0.8-0.6,1.3c-0.3,0.5-1,1.5-1.1,1.7
	c0.5,1,1.1,1.9,1.9,2.7c1.6,1.6,3.7,3.4,3.8,4c-0.3,1.1-1.1,1.9-2.1,2.4c0,1.3-0.2,3.9-0.3,6.9c2,3,6.7,15.7,7.6,18.6
	c0.9,2.8,1.4,6.3,1.8,6.4c0.4,0.1,2.1-1.9,3-3.2c0.9-1.3,2-4.9,2.4-6.1c0.4-1.2,2-3.6,2-4.1c0.1-0.5-1.6-1.5-2.4-3.3
	c-0.8-1.8,0-5-0.4-5.1c-1.1-0.5-4-0.6-4.3-1c-0.3-0.4,0.8-4.6,1.8-6.6c0.2-0.4-1.7-1.3-1.8-1.9v0c0.5-2,1.3-3.8,2.2-5.6
	c0.3-0.3,2.7-0.2,3.2-0.5c1.6-1.6,3-3.3,4.2-5.1c0.2-0.6-0.9-3-0.8-4.7c0-0.5-3.4,0.2-3.6-0.2c-0.2-0.4,2-2,2.3-2.6
	c0.3-0.6,0.2-5.5,1.2-6.4c0.4-0.4,1.5-0.1,2.6-0.5c1.1-0.4,2.6-1.2,3.2-1c0.6,0.2,2.6,3.5,3,4c0.4,0.5,2.8,2.2,2.7,2.5
	c-0.1,0.3-2.1,0.5-2.4,0.8s1.2,3.1,1,3.4c-0.2,0.2-0.9,0.1-1.1,0.3c-0.2,0.2,0.5,2.9,0,3.3c-0.5,0.4-1.5-0.4-2-0.2s-0.9,1.8-0.9,2.2
	c0,0.4,1.4,1.2,2,2.3c0.6,1.1,1.1,6.1,2.2,10.1c1.5,1,12.2,4.9,14.1,5.3c1.9,0.4,4.2,0.2,4.8,0.8c0.8,0.8,1.4,1.9,1.6,3
	c-0.1,0.5-2.9,1.8-3.1,2c-0.2,0.2-5.5,16.6-5.5,16.8c0,0.3,1,2.5,1.8,4.8c0.8,2.2,1.2,9.4,2.9,11.6c2.2,2.7,6,2.4,6.3,2.6
	C129.6,309.1,129.8,309.9,129.4,310L129.4,310z"/>
<text transform="matrix(1 0 0 1 63.9866 100.7394)"><tspan x="0" y="0" font-family="'ArialMT'" font-size="12px">Pratt: “I think there is a truth </tspan><tspan x="0" y="14.4" font-family="'ArialMT'" font-size="12px">in saying that the role of the </tspan><tspan x="0" y="28.8" font-family="'ArialMT'" font-size="12px">technical author is changing, </tspan><tspan x="0" y="43.2" font-family="'ArialMT'" font-size="12px">and the requirements and the </tspan><tspan x="0" y="57.6" font-family="'ArialMT'" font-size="12px">skills that they need are </tspan><tspan x="0" y="72" font-family="'ArialMT'" font-size="12px">changing as well.”</tspan></text>
<text transform="matrix(1 0 0 1 440.5584 221.8089)"><tspan x="0" y="0" font-family="'ArialMT'" font-size="19px">92% agree </tspan><tspan x="0" y="22.8" font-family="'ArialMT'" font-size="19px">the profession</tspan><tspan x="0" y="45.6" font-family="'ArialMT'" font-size="19px">is changing</tspan></text>
<path d="M482.2,201.1c5.3-1.6,10.2-4.9,13.6-9.6c2.1-2.8,3.8-5.9,4.9-9.1c0.2-0.8-0.2-1.6-1.1-1.9c-0.9-0.2-1.8,0.1-2.1,0.8
	c-1.1,2.9-2.6,5.8-4.4,8.2c-3.1,4.1-6.8,7.8-11.3,10.8C481.6,200.5,481.9,201.2,482.2,201.1L482.2,201.1z"/>
<path d="M512.1,183.6c-1.4,0.2-2.7,0.5-4,0.6c-0.6,0.1-1.3,0.1-1.9,0.1h-0.9l-0.8-0.1c-1-0.2-1.8-0.8-2.1-1.4
	c-0.4-0.7-0.4-1.6,0-2.4c0.4-0.6,0.9-1.1,1.7-1.4l0.4-0.2c3.4-0.1,6.4-0.6,9.5-1.1c0.2-0.1,0.5-0.1,0.7-0.2c0.4,0.1,0.8,0.2,1.1,0.5
	c0.7,0.4,1.3,1.2,1.6,2.1c0.3,0.9,0.3,1.8-0.1,2.6C517,183.5,513.4,183.3,512.1,183.6L512.1,183.6z M498.7,154.4
	c0.2-0.8,1-1.6,1.9-2.1c0.2-0.1,0.4-0.2,0.7-0.3c0.3-0.1,0.6-0.2,0.9-0.2c0.6-0.1,1.3-0.3,1.9-0.4c2.6-0.4,5.4-0.6,8.3-1
	c0.7-0.1,1.4-0.2,2.1-0.3c0.7-0.1,1.4-0.2,1.9-0.2c0.6,0,1.1,0.1,1.6,0.3s0.9,0.6,1.2,1c0.6,0.9,0.9,2.1,0.5,3.2
	c-0.4,1.1-4.4,1.6-6.1,1.8l-10.2,1.2c-0.9,0.1-1.6,0.1-2.4,0.1c-0.7-0.1-1.1-0.2-1.6-0.4c-0.2-0.1-0.4-0.4-0.6-0.6l-0.2-0.4
	c-0.1-0.1-0.1-0.2-0.1-0.4C498.6,155.3,498.5,154.8,498.7,154.4L498.7,154.4z M513.7,165.3c-3.2,0.4-6.4,0.9-9.6,1.1
	c-1.2,0.1-2.4-0.3-3.3-1.1c-0.4-0.4-0.7-0.9-0.9-1.3c-0.1-0.4-0.1-0.9,0-1.3c0.2-0.6,0.9-1.2,1.9-1.6c0.2-0.1,0.4-0.1,0.6-0.2
	c0.5-0.1,0.9-0.1,1.4-0.1l10.4-1.2c0.6-0.1,1.2-0.2,1.7-0.6h0.9c0.5,0.1,1,0.2,1.4,0.4s0.8,0.6,1,1.1c0.6,0.9,0.6,2.1,0.2,3.1
	C519.1,164.7,515.2,165,513.7,165.3L513.7,165.3z M519.1,172.9c-0.4,1-1.2,1.8-2.4,2.2c-0.3,0.1-1.8-1-3.3-0.8
	c-3.1,0.5-6.1,1.1-9,1.1c-1.2,0-2.2-0.4-2.9-1.1c-0.3-0.4-0.5-0.8-0.6-1.2s0-0.9,0.1-1.3c0.3-0.7,0.9-1.2,1.9-1.6
	c0.2-0.1,0.4-0.2,0.6-0.2h0.6c3.4-0.2,6.6-0.7,9.9-1.1c0.6-0.1,1.1-0.2,1.4-0.5c0.6,0,1.1,0,1.4,0.1c0.4,0.1,0.9,0.2,1.2,0.6
	c0.4,0.3,0.6,0.7,0.9,1.1C519.6,170.8,519.6,172,519.1,172.9L519.1,172.9z M520.8,164.3c0.8-1.4,0.9-3.1,0.2-4.6
	c-0.3-0.8-0.8-1.4-1.4-2c-0.2-0.1-0.4-0.3-0.6-0.4c0.9-0.5,1.8-1.4,2.2-2.4c0.7-1.4,0.7-3.4-0.2-4.9c-0.4-0.8-1.1-1.4-1.8-1.9
	c-0.6-0.4-1.3-0.6-1.9-0.7c-1.4-0.7-2.9-1.4-4.5-2.1c-1.9-0.7-3.9-1.2-6.1-1.2c-0.4,0-0.9,0-1.3,0.1l-0.6,0.1l-0.6,0.1l-2.3,0.3
	c-1.5,0.2-3.1,0.4-4.6,0.8c-2.6,0.4-5.1,1-7.7,1.6l-0.6-1.6c-0.5-1.2-0.8-2.4-0.9-3.7c-0.3-2.6,0-5.3,0.2-8.1
	c0.1-1.4,0.2-2.9,0.2-4.4c0-1.5-0.1-3-0.4-4.6c-0.1-0.8-0.4-1.6-0.8-2.4c-0.4-0.8-0.8-1.5-1.4-2.2c-0.6-0.7-1.2-1.2-1.9-1.7
	c-0.7-0.4-1.4-0.9-2.1-1.1c-0.3-0.1-0.6-0.2-0.9-0.4c-0.3-0.1-0.6-0.2-1-0.3l-0.5-0.1l-0.6-0.1c-0.2-0.1-0.4-0.1-0.6-0.1
	s-0.4,0-0.7,0.1c-0.2,0.1-0.5,0.1-0.8,0.2c-0.2,0.1-0.5,0.2-0.8,0.4c-0.2,0.1-0.4,0.4-0.6,0.6c-0.2,0.2-0.3,0.4-0.4,0.6
	c-0.4,0.8-0.6,1.6-0.8,2.2c-0.2,1.4-0.2,2.6-0.2,3.7s-0.1,2.2-0.1,3.4c-0.1,2.2-0.5,4.4-1.1,6.4c-0.6,2.1-1.5,4.1-2.6,6
	c-1.1,1.9-2.4,3.9-3.4,6.1c-0.6,1.1-1.1,2.1-1.4,3.3c-0.4,1.1-0.7,2.2-1.1,3.3c-0.4,1.1-0.8,1.9-1.4,2.7c-0.6,0.7-1.6,1.1-2.6,1.4
	c-2.1,0.5-4.4,0.4-6.8,0.6c-1.2,0.1-1.2,0.9,0,0.9c2.3,0.1,4.6,0.3,7-0.1c1.2-0.1,2.5-0.7,3.5-1.6c0.9-0.9,1.6-2.1,2.1-3.2
	c0.5-1.1,0.9-2.2,1.3-3.2c0.4-1,0.9-1.9,1.5-2.9c1.1-1.9,2.4-3.8,3.7-5.8c1.2-1.9,2.4-4.2,3.1-6.5s1.2-4.7,1.4-7.1
	c0.1-1.2,0.2-2.4,0.2-3.6c0.1-1.1,0.1-2.3,0.2-3.2c0.1-0.4,0.2-0.9,0.3-1.1c0.1,0,0.1-0.1,0.1-0.1l0.1-0.1h0.1h0.1h0.2h0.2l0.2,0.1
	l0.3,0.1c0.2,0.1,0.4,0.1,0.6,0.2c0.2,0.1,0.4,0.1,0.7,0.3c1.2,0.5,2.1,1.1,2.8,1.9c0.4,0.4,0.6,0.9,0.9,1.4
	c0.2,0.5,0.4,1.1,0.5,1.6c0.2,1.2,0.3,2.5,0.3,3.9c0,1.4-0.1,2.7-0.2,4.1c-0.2,2.8-0.6,5.7-0.2,8.8c0.1,1.5,0.5,3.1,1.1,4.5l1.4,4
	c0.9,2.5,2.3,4.3,3.2,4c0.9-0.3,0.9-2.6,0-5.1l-0.4-1.2c2.6,0.1,5.1,0,7.6-0.1c1.6-0.1,3.1-0.1,4.6-0.2c0,0,2.9-0.1,1.4,0.1
	c-0.8,0.1-1.4,0.2-2.2,0.4c-0.4,0.1-0.8,0.2-1.1,0.3c-0.4,0.1-0.9,0.3-1.2,0.5c-1.6,0.8-3.1,2.1-3.6,4.1c-0.4,1.1-0.3,2.6,0.1,3.6
	c0.1,0.3,0.2,0.6,0.4,0.8c0.1,0.2,0.3,0.5,0.4,0.7c0.4,0.4,0.8,0.9,1.2,1.3c0.1,0,0.1,0.1,0.1,0.1l-0.4,0.4
	c-0.3,0.4-0.5,0.9-0.7,1.3c-0.4,1.1-0.4,2.4,0,3.5c0.4,1.1,1.1,2,1.8,2.8c0.2,0.2,0.6,0.4,0.9,0.6c-0.6,0.5-1,1.1-1.3,1.9
	c-0.4,1-0.6,2.1-0.4,3.3c0.2,1.1,0.7,2.1,1.4,2.9c0.4,0.4,0.8,0.8,1.2,1.1c-0.4,0.4-0.6,0.8-0.9,1.2c-0.9,1.6-0.9,3.9,0,5.6
	c0.9,1.7,2.7,2.9,4.4,3.1c0.4,0.1,0.9,0.1,1.3,0.1c0.4,0.1,0.8,0.1,1.1,0c0.8,0,1.5-0.1,2.2-0.1c0.4-0.1,0.9-0.1,1.3-0.2
	c-0.4,0.2-0.9,0.4-1.4,0.4c-0.4,0.1-0.9,0.2-1.4,0.2l-1.5,0.2c-3.9,0.6-7.9,1.4-11.8,1.8c-1.6,0.1-3.1,0.2-4.8,0.2s-3.1-0.1-4.6-0.4
	c-3.1-0.6-6.2-1.6-9.4-2.4c-1.6-0.4-3.3-0.7-5-0.9c-1.7-0.1-3.4-0.1-5.1,0.1c-3.4,0.4-6.5,1.4-9.6,2c-0.9,0.1-0.8,0.9,0.1,0.9
	c3.3-0.2,6.6-0.8,9.7-0.9c3.1-0.1,6.1,0.6,9.2,1.5c3.1,0.9,6.1,2.1,9.6,2.9c1.6,0.4,3.4,0.6,5.1,0.6c1.7,0.1,3.4,0,5.1-0.1
	c4.1-0.4,8.1-1.1,12-1.8l1.4-0.2c0.6-0.1,1.1-0.2,1.6-0.4c1.1-0.2,2.2-0.6,3.2-1.2c1.1-0.6,2-1.4,2.8-2.2c0.8-0.9,1.4-1.8,1.9-2.6
	c0.1-0.1,0.1-0.3,0.2-0.4c0.5-0.2,0.9-0.6,1.3-1.1c0.9-1.1,1.1-2.6,0.8-3.9c-0.2-1.4-1-2.6-2.1-3.5c-0.1-0.1-0.1-0.1-0.2-0.1
	c1.4-0.2,2.6-1.1,3.3-2.3c0.8-1.2,1.1-2.9,0.6-4.4c-0.2-0.7-0.6-1.4-1.1-2.1c-0.3-0.4-0.7-0.6-1.1-0.9
	C519.6,165.9,520.3,165.2,520.8,164.3L520.8,164.3z"/>
<text transform="matrix(1 0 0 1 356.555 129.7551)" fill="#AAAAC1" font-family="'ArialMT'" font-size="28px">?</text>
</svg>
