<?xml version="1.0" encoding="utf-8"?>
<!-- Generator: Adobe Illustrator 23.0.3, SVG Export Plug-In . SVG Version: 6.00 Build 0)  -->
<svg version="1.1" id="Layer_1" xmlns="http://www.w3.org/2000/svg" xmlns:xlink="http://www.w3.org/1999/xlink" x="0px" y="0px"
	 viewBox="0 0 600 350" enable-background="new 0 0 600 350" xml:space="preserve">
<path d="M136.6,242.2c0,6,11.9,10.8,26.5,10.8s26.5-4.8,26.5-10.8c0-6-11.9-10.8-26.5-10.8S136.6,236.2,136.6,242.2"/>
<path d="M388.1,243.6c0,6,11.9,10.8,26.5,10.8s26.5-4.8,26.5-10.8c0-6-11.9-10.8-26.5-10.8S388.1,237.7,388.1,243.6"/>
<path d="M196.9,242.9c0,6,11.9,10.8,26.5,10.8c14.6,0,26.5-4.8,26.5-10.8c0-6-11.9-10.8-26.5-10.8
	C208.8,232.1,196.9,237,196.9,242.9"/>
<path d="M326.2,242.9c0,6,11.9,10.8,26.5,10.8c14.6,0,26.5-4.8,26.5-10.8c0-6-11.9-10.8-26.5-10.8C338,232.1,326.2,237,326.2,242.9"
	/>
<path d="M262.1,242.9c0,6,11.9,10.8,26.5,10.8s26.5-4.8,26.5-10.8c0-6-11.9-10.8-26.5-10.8S262.1,237,262.1,242.9"/>
<path d="M148.9,212.3c0,5.4,10.3,9.7,23.1,9.7c12.7,0,23.1-4.3,23.1-9.7c0-5.4-10.3-9.7-23.1-9.7C159.2,202.6,148.9,207,148.9,212.3
	"/>
<path d="M367.4,213.6c0,5.4,10.3,9.7,23.1,9.7c12.7,0,23.1-4.4,23.1-9.7c0-5.4-10.3-9.7-23.1-9.7
	C377.7,203.9,367.4,208.3,367.4,213.6"/>
<path d="M201.2,213c0,5.4,10.3,9.7,23.1,9.7s23.1-4.4,23.1-9.7c0-5.4-10.3-9.7-23.1-9.7S201.2,207.6,201.2,213"/>
<path d="M313.6,213c0,5.4,10.3,9.7,23.1,9.7s23.1-4.4,23.1-9.7c0-5.4-10.3-9.7-23.1-9.7S313.6,207.6,313.6,213"/>
<path d="M257.9,213c0,5.4,10.3,9.7,23.1,9.7c12.7,0,23.1-4.4,23.1-9.7c0-5.4-10.3-9.7-23.1-9.7C268.2,203.3,257.9,207.6,257.9,213"
	/>
<path d="M163.2,188.5c0,3.5,8.7,6.4,19.5,6.4c10.8,0,19.6-2.9,19.6-6.4c0-3.5-8.8-6.4-19.6-6.4C172,182.1,163.2,185,163.2,188.5"/>
<path d="M348.6,189.3c0,3.5,8.8,6.4,19.6,6.4c10.8,0,19.5-2.9,19.5-6.4c0-3.5-8.7-6.4-19.5-6.4S348.6,185.8,348.6,189.3"/>
<path d="M207.6,188.9c0,3.5,8.7,6.4,19.6,6.4c10.8,0,19.5-2.9,19.5-6.4c0-3.5-8.7-6.4-19.5-6.4C216.4,182.5,207.6,185.4,207.6,188.9
	"/>
<path d="M303,188.9c0,3.5,8.7,6.4,19.5,6.4c10.8,0,19.6-2.9,19.6-6.4c0-3.5-8.7-6.4-19.6-6.4C311.7,182.5,303,185.4,303,188.9"/>
<path d="M255.7,188.9c0,3.5,8.8,6.4,19.6,6.4c10.8,0,19.5-2.9,19.5-6.4c0-3.5-8.7-6.4-19.5-6.4S255.7,185.4,255.7,188.9"/>
<path d="M172.6,171.7c0,6.5,34.1,6.5,34.1,0C206.7,165.2,172.6,165.2,172.6,171.7"/>
<path d="M334.1,172.3c0,6.5,34.1,6.5,34.1,0C368.2,165.9,334.1,165.9,334.1,172.3"/>
<path d="M211.3,172c0,6.4,34.1,6.4,34.1,0C245.4,165.5,211.3,165.5,211.3,172"/>
<path d="M294.4,172c0,6.4,34.1,6.4,34.1,0C328.4,165.5,294.4,165.5,294.4,172"/>
<path d="M253.2,172c0,6.4,34.1,6.4,34.1,0C287.2,165.5,253.2,165.5,253.2,172"/>
<path d="M184.7,156.9c0,6.4,28.1,6.4,28.1,0C212.8,150.5,184.7,150.5,184.7,156.9"/>
<path d="M317.9,157.5c0,6.4,28.1,6.4,28.1,0C346.1,151.1,317.9,151.1,317.9,157.5"/>
<path d="M216.6,157.2c0,6.5,28.1,6.5,28.1,0C244.7,150.8,216.6,150.8,216.6,157.2"/>
<path d="M285.2,157.2c0,6.5,28.1,6.5,28.1,0C313.3,150.8,285.2,150.8,285.2,157.2"/>
<path d="M251.2,157.2c0,6.5,28.1,6.5,28.1,0C279.3,150.8,251.2,150.8,251.2,157.2"/>
<path d="M195.8,143c0,4.7,24.1,4.7,24.1,0C219.9,138.3,195.8,138.3,195.8,143"/>
<path d="M309.9,143.5c0,4.7,24.1,4.7,24.1,0C334,138.8,309.9,138.8,309.9,143.5"/>
<path d="M223.1,143.3c0,4.7,24.1,4.7,24.1,0C247.2,138.6,223.1,138.6,223.1,143.3"/>
<path d="M281.8,143.3c0,4.7,24.1,4.7,24.1,0C305.9,138.6,281.8,138.6,281.8,143.3"/>
<path d="M252.7,143.3c0,4.7,24.1,4.7,24.1,0C276.8,138.6,252.7,138.6,252.7,143.3"/>
<path d="M208,131.8c0,4.2,21,4.2,21,0C228.9,127.6,208,127.6,208,131.8"/>
<path d="M307.3,132.2c0,4.2,21,4.2,21,0C328.3,128.1,307.3,128.1,307.3,132.2"/>
<path d="M231.8,132c0,4.2,21,4.2,21,0C252.7,127.9,231.8,127.9,231.8,132"/>
<path d="M282.9,132c0,4.2,21,4.2,21,0C303.8,127.9,282.9,127.9,282.9,132"/>
<path d="M257.5,132c0,4.2,21,4.2,21,0C278.5,127.9,257.5,127.9,257.5,132"/>
<path d="M223.5,123.1c0,3.1,18,3.1,18,0C241.5,120,223.5,120,223.5,123.1"/>
<path d="M309,123.4c0,3.1,18,3.1,18,0C327,120.3,309,120.3,309,123.4"/>
<path d="M244,123.3c0,3.1,18,3.1,18,0C262,120.2,244,120.2,244,123.3"/>
<path d="M287.9,123.3c0,3.1,18.1,3.1,18.1,0C306,120.2,287.9,120.2,287.9,123.3"/>
<path d="M266.1,123.3c0,3.1,18,3.1,18,0C284.2,120.2,266.1,120.2,266.1,123.3"/>
<path d="M244.4,115.5c0,3.1,15.6,3.1,15.6,0C260,112.4,244.4,112.4,244.4,115.5"/>
<path d="M318.3,115.8c0,3.1,15.6,3.1,15.6,0C333.8,112.7,318.3,112.7,318.3,115.8"/>
<path d="M262.1,115.7c0,3.1,15.6,3.1,15.6,0C277.7,112.6,262.1,112.6,262.1,115.7"/>
<path d="M300.1,115.7c0,3.1,15.6,3.1,15.6,0C315.7,112.6,300.1,112.6,300.1,115.7"/>
<path d="M281.3,115.7c0,3.1,15.6,3.1,15.6,0C296.8,112.6,281.3,112.6,281.3,115.7"/>
<path d="M259,108.9c0,2.1,13.7,2.1,13.7,0C272.6,106.8,259,106.8,259,108.9"/>
<path d="M323.7,109.1c0,2.1,13.7,2.1,13.7,0C337.4,107,323.7,107,323.7,109.1"/>
<path d="M274.5,109c0,2.1,13.7,2.1,13.7,0S274.5,106.9,274.5,109"/>
<path d="M307.8,109c0,2.1,13.7,2.1,13.7,0S307.8,106.9,307.8,109"/>
<path d="M291.3,109c0,2.1,13.7,2.1,13.7,0S291.3,106.9,291.3,109"/>
<path d="M273.3,104.3c0,1.4,12,1.4,12,0S273.3,102.9,273.3,104.3"/>
<path d="M330.1,104.5c0,1.4,12,1.4,12,0C342.1,103.1,330.1,103.1,330.1,104.5"/>
<path d="M286.9,104.4c0,1.4,12,1.4,12,0C298.9,103,286.9,103,286.9,104.4"/>
<path d="M316.1,104.4c0,1.4,12,1.4,12,0C328.1,103,316.1,103,316.1,104.4"/>
<path d="M301.7,104.4c0,1.4,12,1.4,12,0C313.6,103,301.7,103,301.7,104.4"/>
<path d="M287.3,100.6c0,1.4,10.3,1.4,10.3,0C297.6,99.2,287.3,99.2,287.3,100.6"/>
<path d="M335.9,100.7c0,1.4,10.3,1.4,10.3,0C346.2,99.3,335.9,99.3,335.9,100.7"/>
<path d="M299,100.7c0,1.4,10.3,1.4,10.3,0C309.2,99.3,299,99.3,299,100.7"/>
<path d="M324,100.7c0,1.4,10.3,1.4,10.3,0C334.2,99.3,324,99.3,324,100.7"/>
<path d="M311.6,100.7c0,1.4,10.3,1.4,10.3,0C321.8,99.3,311.6,99.3,311.6,100.7"/>
<path d="M301.5,97c0,1,8.2,1,8.2,0C309.7,96,301.5,96,301.5,97"/>
<path d="M340.2,97.1c0,1,8.2,1,8.2,0C348.4,96.1,340.2,96.1,340.2,97.1"/>
<path d="M310.8,97c0,1,8.2,1,8.2,0C319,96,310.8,96,310.8,97"/>
<path d="M330.7,97c0,1,8.2,1,8.2,0C338.9,96,330.7,96,330.7,97"/>
<path d="M320.8,97c0,1,8.2,1,8.2,0C329,96,320.8,96,320.8,97"/>
<path d="M312.8,94c0,1,7.1,1,7.1,0C319.9,93,312.8,93,312.8,94"/>
<path d="M346.4,94.1c0,1,7.1,1,7.1,0C353.4,93.1,346.4,93.1,346.4,94.1"/>
<path d="M320.8,94.1c0,1,7.1,1,7.1,0C327.9,93,320.8,93,320.8,94.1"/>
<path d="M338.1,94.1c0,1,7.1,1,7.1,0C345.2,93,338.1,93,338.1,94.1"/>
<path d="M329.5,94.1c0,1,7.1,1,7.1,0C336.6,93,329.5,93,329.5,94.1"/>
<path d="M327.6,91.5c0,0.6,6.3,0.6,6.3,0C333.9,90.9,327.6,90.9,327.6,91.5"/>
<path d="M334.8,91.5c0,0.6,6.3,0.6,6.3,0C341.1,90.9,334.8,90.9,334.8,91.5"/>
<path d="M350.2,91.5c0,0.6,6.3,0.6,6.3,0C356.6,90.9,350.2,90.9,350.2,91.5"/>
<path d="M342.6,91.5c0,0.6,6.3,0.6,6.3,0C348.9,90.9,342.6,90.9,342.6,91.5"/>
<path d="M335,89.3c0,0.6,5.5,0.6,5.5,0C340.5,88.7,335,88.7,335,89.3"/>
<path d="M341.2,89.3c0,0.6,5.5,0.6,5.5,0C346.7,88.8,341.2,88.8,341.2,89.3"/>
<path d="M354.6,89.3c0,0.6,5.5,0.6,5.5,0C360.1,88.8,354.6,88.8,354.6,89.3"/>
<path d="M348,89.3c0,0.6,5.5,0.6,5.5,0C353.5,88.8,348,88.8,348,89.3"/>
<path d="M341.2,87.3c0,0.6,4.8,0.6,4.8,0C346,86.7,341.2,86.7,341.2,87.3"/>
<path d="M346.7,87.3c0,0.6,4.8,0.6,4.8,0C351.5,86.7,346.7,86.7,346.7,87.3"/>
<path d="M358.5,87.3c0,0.6,4.8,0.6,4.8,0C363.3,86.7,358.5,86.7,358.5,87.3"/>
<path d="M352.6,87.3c0,0.6,4.8,0.6,4.8,0C357.5,86.7,352.6,86.7,352.6,87.3"/>
<path d="M350.1,85.4c0,0.4,4.4,0.4,4.4,0C354.6,85,350.1,85,350.1,85.4"/>
<path d="M355.1,85.4c0,0.4,4.4,0.4,4.4,0C359.6,85,355.1,85,355.1,85.4"/>
<path d="M360.6,85.4c0,0.4,4.4,0.4,4.4,0C365,85,360.6,85,360.6,85.4"/>
<path fill="#898BAB" d="M121.4,222.5c-0.1-0.4-0.5-0.5-0.9-1.1c-0.4-0.6-0.6-1.7-0.8-1.8c-0.2-0.2-2.1,1.1-4.3,1
	c-2.9,0-6.3-1.3-6.4-1c-0.1,0.3,2.2,4.4,4.2,8.8c2,4.4,3.5,8.8,3.8,8.8C117.6,237.2,121.6,223.4,121.4,222.5L121.4,222.5z M68,211.1
	c-0.3,0-1.2,1.5-1.7,3.1c-0.6,1.9-0.7,3.9-0.4,4c0.3,0.1,0.8-1.1,1.6-2c0.7-0.9,1.7-1.3,1.7-1.5C69.3,214,68.6,211.2,68,211.1
	L68,211.1z M129.4,260c-2.3,0.5-11.8,0-12.2-0.3c-0.4-0.3,0.5-4.2,0.5-5.1c0-0.9-2.1-2.4-2.7-3.9c-0.2,0.1-3.1,9.9-3.4,10.2
	c-0.3,0.3-1.5-0.1-1.5-0.5c0-0.5,3.6-11.8,3.6-11.8l0,0c-0.7-1.4-1.2-2.8-1.7-4.3c-0.3-1.3-6.5-7.8-7.8-13.2
	c-1.4,4.1-3.7,7.8-6.8,10.8c-3.6,3.3-8.6,4.7-9.1,5.4c-0.5,0.7,0.9,5.3,1.5,6.8c1.2,1.7,2.7,3.2,4.6,4.1c0.9,0.4,2,0.5,3,0.3
	c0.3,0.4,0.3,0.9,0,1.3c-2,0.2-4,0.2-5.9-0.1c-1.7-0.2-3.3-0.6-4.9-1.3c-0.3-0.5,0.2-1.5,0.2-2.4c0-0.9-1.2-3.8-2.4-5.5
	c-1.3,1-2.2,2.4-2.5,4c-0.7,3.8,0.7,4.9,0.7,5.2l0,0c0,0.4-0.3,0.7-0.6,0.8c-0.3,0-1.7-1-2.8-3.4c-1.1-2.4-2.1-6.1-1.9-6.8
	c0.2-0.9,1.6-1,3-1.3c0.7-0.2,2.1-2.6,2.1-2.6s-1.4-2.1-2-3.1c-0.6-1-1-3.6-0.6-6c-2.2,0.5-9.7,0.2-12.8-1c-0.3,1.4-0.9,2.7-1.6,3.9
	c-1.2,2.2-5.7,6.2-6.2,11.8c-0.1,2.3,1.4,3.9,2.3,4.9c0.8,1.1,2.5,1.5,2.7,1.8c0.2,0.3,0.3,1.5-0.5,1.4c-3.5-0.3-8.8-4.1-8.8-5
	c0-0.9,1.1-2.5,1.8-5.3c0.4-1.8,0.7-7.5,1-9.2c0.3-1.8,3.8-6.6,4.1-7.6c0.3-1,0.7-3.1,0.5-3.2c-0.2-0.1-2.3,1.6-2.5,1.6h0
	c-0.7-1.1-1.2-2.3-1.4-3.6c0.1-0.6,1.2-0.8,1.2-1.4s-1.8-4.9-1.4-5.4c0.3-0.5,1.7-0.8,3.3-1.2c0.4-4.4,3.5-12.2,4.8-14.8
	c1.2-2.6,4.3-6.2,5.1-9.3c-4.1,0.1-8-3.1-8.3-5.3l0,0c0-0.1,0.1-0.1,0.1-0.1c0.7,0.7,1.8,1.1,2.8,0.9c0,0,0-0.1,0-0.1
	c-0.8-0.5-1.6-1.1-2.3-1.8c-0.6-0.6-1-1.4-1.1-2.3c0.1-0.1,0.6,0.4,1.2,0.6c0.6,0.3,1,0.5,1.6,0.3c0,0,0-0.1,0-0.1
	c-0.4-0.4-3-1.9-2.9-2.9c0,0,0-0.1,0.1-0.1c0.3,0,1.3,0.8,2.1,0.9c0.1-0.2-0.5-1.4-0.6-2.3h0c0-0.1,0.1-0.1,0.1-0.1
	c1,0.6,2,1,3.1,1.3c1.9,0.3,3.8,0.4,5.7,0.2c2-0.3,4,0.4,5.5,1.9c1.1,1.1,1.2,3.5,1.2,5.3c0.1,1.5,0.2,2.5,0.1,2.6
	c-0.1,0.1-1,0-1.2,0.3s0.6,1.9-0.3,2.4c-0.9,0.5-1.9-0.4-2.2-0.3c-0.3,0.1-0.3,0.8-0.6,1.3c-0.3,0.5-1,1.5-1.1,1.7
	c0.5,1,1.1,1.9,1.9,2.7c1.6,1.6,3.7,3.4,3.8,4c-0.3,1.1-1.1,1.9-2.1,2.4c0,1.3-0.2,3.9-0.3,6.9c2,3,6.7,15.7,7.6,18.6
	c0.9,2.8,1.4,6.3,1.8,6.4c0.4,0.1,2.1-1.9,3-3.2c0.9-1.3,2-4.9,2.4-6.1c0.4-1.2,2-3.6,2-4.1c0.1-0.5-1.6-1.5-2.4-3.3
	c-0.8-1.8,0-5-0.4-5.1c-1.1-0.5-4-0.6-4.3-1c-0.3-0.4,0.8-4.6,1.8-6.6c0.2-0.4-1.7-1.3-1.8-1.9v0c0.5-2,1.3-3.8,2.2-5.6
	c0.3-0.3,2.7-0.2,3.2-0.5c1.6-1.6,3-3.3,4.2-5.1c0.2-0.6-0.9-3-0.8-4.7c0-0.5-3.4,0.2-3.6-0.2c-0.2-0.4,2-2,2.3-2.6
	c0.3-0.6,0.2-5.5,1.2-6.4c0.4-0.4,1.5-0.1,2.6-0.5c1.1-0.4,2.6-1.2,3.2-1c0.6,0.2,2.6,3.5,3,4c0.4,0.5,2.8,2.2,2.7,2.5
	c-0.1,0.3-2.1,0.5-2.4,0.8s1.2,3.1,1,3.4c-0.2,0.2-0.9,0.1-1.1,0.3c-0.2,0.2,0.5,2.9,0,3.3c-0.5,0.4-1.5-0.4-2-0.2s-0.9,1.8-0.9,2.2
	c0,0.4,1.4,1.2,2,2.3c0.6,1.1,1.1,6.1,2.2,10.1c1.5,1,12.2,4.9,14.1,5.3c1.9,0.4,4.2,0.2,4.8,0.8c0.8,0.8,1.4,1.9,1.6,3
	c-0.1,0.5-2.9,1.8-3.1,2c-0.2,0.2-5.5,16.6-5.5,16.8c0,0.3,1,2.5,1.8,4.8c0.8,2.2,1.2,9.4,2.9,11.6c2.2,2.7,6,2.4,6.3,2.6
	C129.6,259.1,129.8,259.9,129.4,260L129.4,260z"/>
<text transform="matrix(1 0 0 1 63.9868 50.7395)"><tspan x="0" y="0" font-family="'ArialMT'" font-size="12px">Pratt: “I think there is a truth </tspan><tspan x="0" y="14.4" font-family="'ArialMT'" font-size="12px">in saying that the role of the </tspan><tspan x="0" y="28.8" font-family="'ArialMT'" font-size="12px">technical author is changing, </tspan><tspan x="0" y="43.2" font-family="'ArialMT'" font-size="12px">and the requirements and the </tspan><tspan x="0" y="57.6" font-family="'ArialMT'" font-size="12px">skills that they need are </tspan><tspan x="0" y="72" font-family="'ArialMT'" font-size="12px">changing as well.”</tspan></text>
<text transform="matrix(1 0 0 1 440.5583 171.809)"><tspan x="0" y="0" font-family="'ArialMT'" font-size="19px">92% agree </tspan><tspan x="0" y="22.8" font-family="'ArialMT'" font-size="19px">the profession</tspan><tspan x="0" y="45.6" font-family="'ArialMT'" font-size="19px">is changing</tspan></text>
<text transform="matrix(1 0 0 1 356.555 79.7551)" fill="#AAAAC1" font-family="'ArialMT'" font-size="28px">?</text>
<path fill="#9B9FB8" d="M503.8,124.5h-0.1h-9.2c-0.6,0-1-0.4-1-1v-8.7c0-3.9-4.1-4.1-6.1-4c-0.6,0.1-1,0.5-0.9,1.1
	c0.6,11.2-5.1,14.8-8,15.9c-1,0.4-1.7,1.3-1.7,2.4v14c0,5.1,5.1,5.1,5.1,5.1h18c2.6,0,5.1-1.9,4.7-3.7c-0.1-0.5,0-1,0.2-1.5l0.8-1.4
	c0.3-0.6,0.4-1.3,0-2c-0.3-0.6-0.3-1.4,0.1-2.1l1-1.7c0.3-0.4,0.4-1,0.3-1.5l-0.4-1.7c-0.2-0.7,0.1-1.4,0.5-1.9l0.6-0.6
	c0.3-0.3,0.5-0.8,0.6-1.2C508.9,125.4,504.4,124.6,503.8,124.5L503.8,124.5z"/>
<path fill="#9B9FB8" d="M471,147c-0.9,0-1.6-0.7-1.6-1.6s0.7-1.6,1.6-1.6s1.6,0.7,1.6,1.6S471.9,147,471,147z M473.3,127.1h-4.4
	c-1.3,0-2.2,1-2.2,2.2v17.9c0,1.3,1,2.2,2.2,2.2h4.4c1.3,0,2.2-1,2.2-2.2v-17.9C475.5,128.1,474.5,127.1,473.3,127.1z"/>
</svg>
