<?xml version="1.0" encoding="utf-8"?>
<!-- Generator: Adobe Illustrator 23.0.3, SVG Export Plug-In . SVG Version: 6.00 Build 0)  -->
<svg version="1.1" id="Layer_1" xmlns="http://www.w3.org/2000/svg" xmlns:xlink="http://www.w3.org/1999/xlink" x="0px" y="0px"
	 viewBox="0 0 600 350" enable-background="new 0 0 600 350" xml:space="preserve">
<rect x="-0.8" y="44" fill="none" width="600" height="45.9"/>
<text transform="matrix(1 0 0 1 195.6833 65.4882)" font-family="'ArialMT'" font-size="25px">Trends trajectories</text>
<path d="M119.3,240.3c3.4,0,6.2,2.8,6.2,6.2s-2.8,6.2-6.2,6.2s-6.2-2.8-6.2-6.2S115.9,240.3,119.3,240.3z M202.1,207.2
	c3.4,0,6.2,2.8,6.2,6.2s-2.8,6.2-6.2,6.2s-6.2-2.8-6.2-6.2S198.6,207.2,202.1,207.2z M160.7,182.4c3.4,0,6.2,2.8,6.2,6.2
	s-2.8,6.2-6.2,6.2s-6.2-2.8-6.2-6.2S157.2,182.4,160.7,182.4z M243.4,145.1c3.4,0,6.2,2.8,6.2,6.2c0,3.4-2.8,6.2-6.2,6.2
	s-6.2-2.8-6.2-6.2C237.2,147.9,240,145.1,243.4,145.1z M243.4,141c-5.7,0-10.3,4.7-10.3,10.3c0,2.8,1.1,5.4,3,7.2l-30.2,45.2
	c-1.2-0.5-2.5-0.8-3.8-0.8c-2.9,0-5.5,1.2-7.4,3.1l-24.4-13.9c0.4-1.1,0.7-2.4,0.7-3.7c0-5.7-4.7-10.3-10.3-10.3
	s-10.3,4.7-10.3,10.3c0,2.8,1.1,5.3,2.9,7.2L123.3,237h-0.1c-1.2-0.5-2.5-0.8-3.9-0.8c-5.7,0-10.3,4.7-10.3,10.3
	c0,5.7,4.7,10.3,10.3,10.3s10.3-4.7,10.3-10.3c0-2.8-1.2-5.3-3-7.2l29.9-41.2c1.3,0.5,2.6,0.8,4.1,0.8c2.9,0,5.5-1.2,7.4-3.2
	l24.4,13.9c-0.5,1.2-0.8,2.4-0.8,3.7c0,5.7,4.7,10.3,10.3,10.3c5.7,0,10.3-4.7,10.3-10.3c0-2.8-1.2-5.4-3-7.3l30.1-45.2
	c1.2,0.5,2.5,0.8,3.9,0.8c5.7,0,10.3-4.7,10.3-10.3C253.8,145.7,249.1,141,243.4,141L243.4,141z"/>
<path d="M247,146.4c2.7,2.1,3.1,6,1,8.7c-2.1,2.7-6,3.1-8.7,1c-2.7-2.1-3.1-6-1-8.7C240.4,144.7,244.3,144.2,247,146.4z
	 M332.4,171.8c2.7,2.1,3.1,6,1,8.7c-2.1,2.7-6,3.1-8.7,1c-2.7-2.1-3.1-6-1-8.7C325.8,170.1,329.7,169.7,332.4,171.8z M315.4,126.7
	c2.7,2.1,3.1,6,1,8.7c-2.1,2.7-6,3.1-8.7,1c-2.7-2.1-3.1-6-1-8.7C308.8,125,312.7,124.6,315.4,126.7z M403.3,148.9
	c2.7,2.1,3.1,6,1,8.7c-2.1,2.7-6,3.1-8.7,1c-2.7-2.1-3.1-6-1-8.7C396.8,147.2,400.6,146.8,403.3,148.9z M405.9,145.7
	c-4.5-3.5-11-2.8-14.5,1.7c-1.7,2.2-2.4,4.9-2.2,7.5l-51.8,16.7c-0.6-1.1-1.4-2.1-2.5-3c-2.3-1.8-5-2.5-7.7-2.1l-10.5-26
	c1-0.6,2.1-1.4,2.8-2.4c3.5-4.5,2.8-11-1.7-14.5c-4.5-3.5-11-2.8-14.5,1.7c-1.7,2.2-2.4,4.8-2.2,7.4l-49.1,13.7l-0.1,0
	c-0.6-1.2-1.5-2.2-2.6-3.1c-4.5-3.5-11-2.8-14.5,1.7c-3.5,4.5-2.8,11,1.7,14.5c4.5,3.5,11,2.8,14.5-1.7c1.7-2.2,2.4-4.9,2.1-7.5
	l49-13.7c0.6,1.2,1.6,2.2,2.7,3.1c2.3,1.8,5.1,2.5,7.8,2.1l10.5,26c-1.1,0.6-2.1,1.4-2.9,2.5c-3.5,4.5-2.8,11,1.7,14.5
	c4.5,3.5,11,2.8,14.5-1.7c1.8-2.2,2.5-5,2.2-7.6l51.7-16.7c0.6,1.2,1.5,2.2,2.6,3.1c4.5,3.5,11,2.8,14.5-1.7
	C411.1,155.8,410.4,149.2,405.9,145.7L405.9,145.7z"/>
<path d="M405.8,154.5c-0.2,3.4-3.1,6.1-6.5,5.9c-3.4-0.2-6.1-3.1-5.9-6.5c0.2-3.4,3.1-6.1,6.5-5.9
	C403.4,148.2,406,151.1,405.8,154.5z M434.6,238.8c-0.2,3.4-3.1,6.1-6.5,5.9c-3.4-0.2-6.1-3.1-5.9-6.5c0.2-3.4,3.1-6.1,6.5-5.9
	C432.2,232.5,434.8,235.4,434.6,238.8z M461.5,198.8c-0.2,3.4-3.1,6.1-6.5,5.9c-3.4-0.2-6.1-3.1-5.9-6.5c0.2-3.4,3.1-6.1,6.5-5.9
	S461.7,195.3,461.5,198.8z M494.4,283.3c-0.2,3.4-3.1,6.1-6.5,5.9c-3.4-0.2-6.1-3.1-5.9-6.5c0.2-3.4,3.1-6.1,6.5-5.9
	C492,277,494.6,279.9,494.4,283.3z M498.6,283.5c0.3-5.7-4.1-10.6-9.8-10.9c-2.8-0.1-5.4,0.9-7.4,2.6l-43.6-32.5
	c0.5-1.2,0.9-2.4,1-3.8c0.1-2.9-0.9-5.5-2.7-7.5l15.1-23.6c1.1,0.5,2.4,0.8,3.6,0.9c5.7,0.3,10.6-4.1,10.9-9.8
	c0.3-5.7-4.1-10.6-9.8-10.9c-2.8-0.1-5.4,0.8-7.3,2.5l-39.6-32l0-0.1c0.6-1.2,1-2.5,1-3.9c0.3-5.7-4.1-10.6-9.8-10.9
	c-5.7-0.3-10.6,4.1-10.9,9.8c-0.3,5.7,4.1,10.6,9.8,10.9c2.8,0.1,5.4-0.9,7.3-2.6l39.6,32c-0.6,1.2-0.9,2.6-1,4
	c-0.1,2.9,0.9,5.6,2.8,7.6l-15.1,23.6c-1.1-0.5-2.4-0.9-3.7-1c-5.7-0.3-10.6,4.1-10.9,9.8c-0.3,5.7,4.1,10.6,9.8,10.9
	c2.8,0.1,5.5-0.9,7.4-2.7l43.6,32.4c-0.6,1.2-0.9,2.5-1,3.9c-0.3,5.7,4.1,10.6,9.8,10.9C493.4,293.6,498.3,289.2,498.6,283.5
	L498.6,283.5z"/>
<text transform="matrix(1 0 0 1 191.2189 236.4834)" font-family="'ArialMT'" font-size="12px">wikis </text>
<text transform="matrix(1 0 0 1 244.6142 176.7054)"><tspan x="0" y="0" font-family="'ArialMT'" font-size="12px">social </tspan><tspan x="0.7" y="14.4" font-family="'ArialMT'" font-size="12px">media</tspan></text>
<text transform="matrix(1 0 0 1 376.9238 137.781)" font-family="'ArialMT'" font-size="12px">chatbots</text>
<text transform="matrix(1 0 0 1 296.4045 99.5446)"><tspan x="0" y="0" font-family="'ArialMT'" font-size="12px">content </tspan><tspan x="0" y="14.4" font-family="'ArialMT'" font-size="12px">strategy</tspan></text>
<text transform="matrix(1 0 0 1 115.3505 152.4253)"><tspan x="0" y="0" font-family="'ArialMT'" font-size="12px">XML &amp; semantic </tspan><tspan x="34.3" y="14.4" font-family="'ArialMT'" font-size="12px">web</tspan></text>
<text transform="matrix(1 0 0 1 91.6574 268.5098)" font-family="'ArialMT'" font-size="12px">pdf     web</text>
<text transform="matrix(1 0 0 1 376.4373 232.2898)"><tspan x="0" y="0" font-family="'ArialMT'" font-size="12px">docs as</tspan><tspan x="7.7" y="14.4" font-family="'ArialMT'" font-size="12px">code</tspan></text>
<text transform="matrix(1 0 0 1 302.51 201.4741)"><tspan x="0" y="0" font-family="'ArialMT'" font-size="12px">YouTube </tspan><tspan x="0" y="14.4" font-family="'ArialMT'" font-size="12px">and video</tspan></text>
<text transform="matrix(1 0 0 1 498.3642 298.397)" font-family="'ArialMT'" font-size="12px">AI</text>
<text transform="matrix(1 0 0 1 465.7694 188.5627)"><tspan x="0" y="0" font-family="'ArialMT'" font-size="12px">Internet of </tspan><tspan x="10.7" y="14.4" font-family="'ArialMT'" font-size="12px">Things</tspan></text>
<g>
	<g>
		<line fill="none" stroke="#171717" stroke-miterlimit="10" x1="110.8" y1="265.4" x2="121" y2="265.4"/>
		<g>
			<polygon fill="#171717" points="117.7,269.5 117,268.8 120.6,265.4 117,262.1 117.7,261.3 122.1,265.4 			"/>
		</g>
	</g>
</g>
<path d="M310.3,275.6c4,0.5,8.2,0.9,11.2,3.6c3,2.7,4.6,18.5,5.8,18.3c1.2-0.2,7.8-12.2,9.2-13c1.7-0.9,11.6-1.4,11.6-0.5
	c0,0.9-0.1,2.1-0.9,2.4c-1.4,0.4-6.3,1.2-7.3,1.9c-2.1,1.4-10.1,16.7-12.5,17.4c-1.5,0.5-3.4,0.2-4.5-1.4
	c-1.1-1.7-5.2-17.3-5.2-17.3v26.6h-29.4v-26.5c0,0-4.1,15.6-5.2,17.3c-1.1,1.7-3,1.9-4.5,1.4c-2.4-0.8-10.4-16.1-12.5-17.6
	c-1-0.7-6-1.5-7.3-1.9c-0.8-0.2-1-1.4-1-2.3s9.9-0.5,11.6,0.5c1.4,0.8,8,12.8,9.2,13c1.2,0.2,2.8-15.6,5.8-18.3
	c3-2.7,7.2-3.1,11.2-3.6c0,0,2.2,3.1,7.5,3.1C308.3,278.7,310.3,275.6,310.3,275.6L310.3,275.6z"/>
<path d="M309.3,252.4c4.4,4.1,3.1,12.1,2.5,14.7c-0.9,3.9-4.1,9.8-8.8,9.8c-4.7,0-7.9-6-8.7-9.8c-0.5-2.2-2.2-10.2,2.2-14.5
	C299.9,249.2,306.6,249.9,309.3,252.4L309.3,252.4z"/>
<text transform="matrix(1 0 0 1 249.3011 272.7729)" font-family="'ArialMT'" font-size="21px">?</text>
<text transform="matrix(1 0 0 1 295.1838 241.5137)" font-family="'ArialMT'" font-size="21px">?</text>
<text transform="matrix(1 0 0 1 336.1566 272.7731)" font-family="'ArialMT'" font-size="21px">?</text>
<g>
	<path d="M64.8,110c0,2.1,3.9,3.8,8.7,3.8c4.8,0,8.7-1.7,8.7-3.8s-3.9-3.8-8.7-3.8C68.7,106.2,64.8,107.9,64.8,110"/>
	<path d="M147,110.5c0,2.1,3.9,3.8,8.7,3.8s8.7-1.7,8.7-3.8s-3.9-3.8-8.7-3.8S147,108.4,147,110.5"/>
	<path d="M84.5,110.2c0,2.1,3.9,3.8,8.7,3.8s8.7-1.7,8.7-3.8c0-2.1-3.9-3.8-8.7-3.8S84.5,108.2,84.5,110.2"/>
	<path d="M126.8,110.2c0,2.1,3.9,3.8,8.7,3.8c4.8,0,8.7-1.7,8.7-3.8c0-2.1-3.9-3.8-8.7-3.8C130.6,106.5,126.8,108.2,126.8,110.2"/>
	<path d="M105.8,110.2c0,2.1,3.9,3.8,8.7,3.8c4.8,0,8.7-1.7,8.7-3.8c0-2.1-3.9-3.8-8.7-3.8C109.7,106.5,105.8,108.2,105.8,110.2"/>
	<path d="M68.8,99.5c0,1.9,3.4,3.4,7.5,3.4c4.2,0,7.5-1.5,7.5-3.4c0-1.9-3.4-3.4-7.5-3.4C72.2,96.1,68.8,97.7,68.8,99.5"/>
	<path d="M140.2,100c0,1.9,3.4,3.4,7.5,3.4c4.2,0,7.5-1.5,7.5-3.4c0-1.9-3.4-3.4-7.5-3.4C143.6,96.6,140.2,98.1,140.2,100"/>
	<path d="M85.9,99.8c0,1.9,3.4,3.4,7.5,3.4c4.2,0,7.5-1.5,7.5-3.4s-3.4-3.4-7.5-3.4C89.3,96.4,85.9,97.9,85.9,99.8"/>
	<path d="M122.7,99.8c0,1.9,3.4,3.4,7.5,3.4c4.2,0,7.5-1.5,7.5-3.4s-3.4-3.4-7.5-3.4C126,96.4,122.7,97.9,122.7,99.8"/>
	<path d="M104.4,99.8c0,1.9,3.4,3.4,7.5,3.4c4.2,0,7.5-1.5,7.5-3.4s-3.4-3.4-7.5-3.4C107.8,96.4,104.4,97.9,104.4,99.8"/>
	<path d="M73.5,91.2c0,1.2,2.9,2.2,6.4,2.2c3.5,0,6.4-1,6.4-2.2c0-1.2-2.9-2.2-6.4-2.2C76.4,89,73.5,90,73.5,91.2"/>
	<path d="M134.1,91.5c0,1.2,2.9,2.2,6.4,2.2c3.5,0,6.4-1,6.4-2.2c0-1.2-2.9-2.2-6.4-2.2C137,89.3,134.1,90.3,134.1,91.5"/>
	<path d="M88,91.4c0,1.2,2.9,2.2,6.4,2.2c3.5,0,6.4-1,6.4-2.2c0-1.2-2.9-2.2-6.4-2.2C90.9,89.1,88,90.1,88,91.4"/>
	<path d="M119.2,91.4c0,1.2,2.9,2.2,6.4,2.2c3.5,0,6.4-1,6.4-2.2c0-1.2-2.9-2.2-6.4-2.2C122,89.1,119.2,90.1,119.2,91.4"/>
	<path d="M103.7,91.4c0,1.2,2.9,2.2,6.4,2.2c3.5,0,6.4-1,6.4-2.2c0-1.2-2.9-2.2-6.4-2.2S103.7,90.1,103.7,91.4"/>
	<path d="M76.6,85.3c0,2.3,11.1,2.3,11.1,0C87.7,83.1,76.6,83.1,76.6,85.3"/>
	<path d="M129.4,85.5c0,2.3,11.1,2.3,11.1,0C140.5,83.3,129.4,83.3,129.4,85.5"/>
	<path d="M89.2,85.4c0,2.3,11.1,2.3,11.1,0C100.4,83.2,89.2,83.2,89.2,85.4"/>
	<path d="M116.4,85.4c0,2.3,11.1,2.3,11.1,0C127.5,83.2,116.4,83.2,116.4,85.4"/>
	<path d="M102.9,85.4c0,2.3,11.1,2.3,11.1,0C114,83.2,102.9,83.2,102.9,85.4"/>
	<path d="M80.5,80.2c0,2.3,9.2,2.3,9.2,0C89.7,77.9,80.5,77.9,80.5,80.2"/>
	<path d="M124.1,80.4c0,2.3,9.2,2.3,9.2,0C133.3,78.1,124.1,78.1,124.1,80.4"/>
	<path d="M91,80.3c0,2.3,9.2,2.3,9.2,0C100.1,78,91,78,91,80.3"/>
	<path d="M113.4,80.3c0,2.3,9.2,2.3,9.2,0C122.5,78,113.4,78,113.4,80.3"/>
	<path d="M102.2,80.3c0,2.3,9.2,2.3,9.2,0C111.4,78,102.2,78,102.2,80.3"/>
	<path d="M84.1,75.3c0,1.7,7.9,1.7,7.9,0C92,73.6,84.1,73.6,84.1,75.3"/>
	<path d="M121.5,75.5c0,1.7,7.9,1.7,7.9,0C129.3,73.8,121.5,73.8,121.5,75.5"/>
	<path d="M93.1,75.4c0,1.7,7.9,1.7,7.9,0C100.9,73.7,93.1,73.7,93.1,75.4"/>
	<path d="M112.3,75.4c0,1.7,7.9,1.7,7.9,0C120.1,73.7,112.3,73.7,112.3,75.4"/>
	<path d="M102.7,75.4c0,1.7,7.9,1.7,7.9,0C110.6,73.7,102.7,73.7,102.7,75.4"/>
	<path d="M88.1,71.4c0,1.5,6.8,1.5,6.8,0C95,69.9,88.1,69.9,88.1,71.4"/>
	<path d="M120.6,71.5c0,1.5,6.8,1.5,6.8,0C127.4,70.1,120.6,70.1,120.6,71.5"/>
	<path d="M95.9,71.5c0,1.5,6.8,1.5,6.8,0C102.8,70,95.9,70,95.9,71.5"/>
	<path d="M112.6,71.5c0,1.5,6.8,1.5,6.8,0C119.5,70,112.6,70,112.6,71.5"/>
	<path d="M104.3,71.5c0,1.5,6.9,1.5,6.9,0C111.2,70,104.3,70,104.3,71.5"/>
	<path d="M93.2,68.3c0,1.1,5.9,1.1,5.9,0C99.1,67.2,93.2,67.2,93.2,68.3"/>
	<path d="M121.1,68.4c0,1.1,5.9,1.1,5.9,0S121.1,67.4,121.1,68.4"/>
	<path d="M99.9,68.4c0,1.1,5.9,1.1,5.9,0C105.8,67.3,99.9,67.3,99.9,68.4"/>
	<path d="M114.3,68.4c0,1.1,5.9,1.1,5.9,0C120.2,67.3,114.3,67.3,114.3,68.4"/>
	<path d="M107.1,68.4c0,1.1,5.9,1.1,5.9,0C113,67.3,107.1,67.3,107.1,68.4"/>
	<path d="M100,65.7c0,1.1,5.1,1.1,5.1,0C105.1,64.6,100,64.6,100,65.7"/>
	<path d="M124.2,65.8c0,1.1,5.1,1.1,5.1,0C129.3,64.7,124.2,64.7,124.2,65.8"/>
	<path d="M105.8,65.7c0,1.1,5.1,1.1,5.1,0C110.9,64.6,105.8,64.6,105.8,65.7"/>
	<path d="M118.2,65.7c0,1.1,5.1,1.1,5.1,0C123.3,64.6,118.2,64.6,118.2,65.7"/>
	<path d="M112.1,65.7c0,1.1,5.1,1.1,5.1,0C117.2,64.6,112.1,64.6,112.1,65.7"/>
	<path d="M104.8,63.4c0,0.7,4.5,0.7,4.5,0C109.3,62.6,104.8,62.6,104.8,63.4"/>
	<path d="M126,63.4c0,0.7,4.5,0.7,4.5,0S126,62.7,126,63.4"/>
	<path d="M109.9,63.4c0,0.7,4.5,0.7,4.5,0C114.3,62.7,109.9,62.7,109.9,63.4"/>
	<path d="M120.8,63.4c0,0.7,4.5,0.7,4.5,0C125.2,62.7,120.8,62.7,120.8,63.4"/>
	<path d="M115.4,63.4c0,0.7,4.5,0.7,4.5,0C119.8,62.7,115.4,62.7,115.4,63.4"/>
	<path d="M109.5,61.8c0,0.5,3.9,0.5,3.9,0C113.4,61.3,109.5,61.3,109.5,61.8"/>
	<path d="M128.1,61.8c0,0.5,3.9,0.5,3.9,0C132,61.3,128.1,61.3,128.1,61.8"/>
	<path d="M113.9,61.8c0,0.5,3.9,0.5,3.9,0C117.9,61.3,113.9,61.3,113.9,61.8"/>
	<path d="M123.5,61.8c0,0.5,3.9,0.5,3.9,0C127.4,61.3,123.5,61.3,123.5,61.8"/>
	<path d="M118.7,61.8c0,0.5,3.9,0.5,3.9,0C122.7,61.3,118.7,61.3,118.7,61.8"/>
	<path d="M114.1,60.5c0,0.5,3.4,0.5,3.4,0C117.4,60,114.1,60,114.1,60.5"/>
	<path d="M130,60.5c0,0.5,3.4,0.5,3.4,0C133.3,60,130,60,130,60.5"/>
	<path d="M117.9,60.5c0,0.5,3.4,0.5,3.4,0C121.2,60,117.9,60,117.9,60.5"/>
	<path d="M126,60.5c0,0.5,3.4,0.5,3.4,0C129.4,60,126,60,126,60.5"/>
	<path d="M122,60.5c0,0.5,3.4,0.5,3.4,0C125.3,60,122,60,122,60.5"/>
	<path d="M118.7,59.2c0,0.4,2.7,0.4,2.7,0C121.4,58.8,118.7,58.8,118.7,59.2"/>
	<path d="M131.4,59.2c0,0.4,2.7,0.4,2.7,0C134,58.9,131.4,58.9,131.4,59.2"/>
	<path d="M121.7,59.2c0,0.4,2.7,0.4,2.7,0C124.4,58.8,121.7,58.8,121.7,59.2"/>
	<path d="M128.2,59.2c0,0.4,2.7,0.4,2.7,0C130.9,58.8,128.2,58.8,128.2,59.2"/>
	<path d="M125,59.2c0,0.4,2.7,0.4,2.7,0C127.7,58.8,125,58.8,125,59.2"/>
	<path d="M122.4,58.2c0,0.4,2.3,0.4,2.3,0C124.7,57.8,122.4,57.8,122.4,58.2"/>
	<path d="M133.4,58.2c0,0.4,2.3,0.4,2.3,0C135.7,57.8,133.4,57.8,133.4,58.2"/>
	<path d="M125,58.2c0,0.4,2.3,0.4,2.3,0C127.3,57.8,125,57.8,125,58.2"/>
	<path d="M130.7,58.2c0,0.4,2.3,0.4,2.3,0C133,57.8,130.7,57.8,130.7,58.2"/>
	<path d="M127.9,58.2c0,0.4,2.3,0.4,2.3,0C130.2,57.8,127.9,57.8,127.9,58.2"/>
	<path d="M127.2,57.3c0,0.2,2.1,0.2,2.1,0C129.3,57.1,127.2,57.1,127.2,57.3"/>
	<path d="M129.6,57.3c0,0.2,2.1,0.2,2.1,0C131.7,57.1,129.6,57.1,129.6,57.3"/>
	<path d="M134.6,57.3c0,0.2,2.1,0.2,2.1,0C136.7,57.1,134.6,57.1,134.6,57.3"/>
	<path d="M132.1,57.3c0,0.2,2.1,0.2,2.1,0C134.2,57.1,132.1,57.1,132.1,57.3"/>
	<path d="M129.7,56.5c0,0.2,1.8,0.2,1.8,0C131.4,56.3,129.7,56.3,129.7,56.5"/>
	<path d="M131.7,56.5c0,0.2,1.8,0.2,1.8,0C133.5,56.3,131.7,56.3,131.7,56.5"/>
	<path d="M136.1,56.5c0,0.2,1.8,0.2,1.8,0C137.9,56.3,136.1,56.3,136.1,56.5"/>
	<path d="M133.9,56.5c0,0.2,1.8,0.2,1.8,0C135.7,56.3,133.9,56.3,133.9,56.5"/>
	<path d="M131.7,55.8c0,0.2,1.6,0.2,1.6,0C133.3,55.6,131.7,55.6,131.7,55.8"/>
	<path d="M133.5,55.8c0,0.2,1.6,0.2,1.6,0C135.1,55.6,133.5,55.6,133.5,55.8"/>
	<path d="M137.3,55.8c0,0.2,1.6,0.2,1.6,0C138.9,55.6,137.3,55.6,137.3,55.8"/>
	<path d="M135.4,55.8c0,0.2,1.6,0.2,1.6,0C137,55.6,135.4,55.6,135.4,55.8"/>
	<path d="M134.6,55.1c0,0.1,1.4,0.1,1.4,0C136,55,134.6,55,134.6,55.1"/>
	<path d="M136.2,55.1c0,0.1,1.4,0.1,1.4,0S136.2,55,136.2,55.1"/>
	<path d="M138,55.1c0,0.1,1.4,0.1,1.4,0S138,55,138,55.1"/>
	<path fill="#898BAB" d="M59.8,103.1c0-0.1-0.2-0.2-0.3-0.4c-0.1-0.2-0.2-0.6-0.3-0.6c-0.1-0.1-0.7,0.4-1.4,0.3
		c-0.9,0-2.1-0.5-2.1-0.3c0,0.1,0.7,1.5,1.4,3.1s1.2,3.1,1.2,3.1C58.6,108.2,59.9,103.4,59.8,103.1L59.8,103.1z M42.4,99.1
		c-0.1,0-0.4,0.5-0.5,1.1c-0.2,0.7-0.2,1.4-0.1,1.4c0.1,0,0.3-0.4,0.5-0.7c0.2-0.3,0.5-0.4,0.6-0.5C42.8,100.1,42.6,99.2,42.4,99.1
		L42.4,99.1z M62.4,116.2c-0.8,0.2-3.9,0-4-0.1c-0.1-0.1,0.1-1.5,0.2-1.8c0-0.3-0.7-0.8-0.9-1.4c-0.1,0-1,3.5-1.1,3.6
		c-0.1,0.1-0.5,0-0.5-0.2c0-0.2,1.2-4.1,1.2-4.1l0,0c-0.2-0.5-0.4-1-0.6-1.5c-0.1-0.5-2.1-2.7-2.5-4.6c-0.5,1.4-1.2,2.7-2.2,3.8
		c-1.2,1.2-2.8,1.7-3,1.9c-0.1,0.2,0.3,1.9,0.5,2.4c0.4,0.6,0.9,1.1,1.5,1.4c0.3,0.1,0.6,0.2,1,0.1c0.1,0.1,0.1,0.3,0,0.5
		c-0.6,0.1-1.3,0.1-1.9,0c-0.5-0.1-1.1-0.2-1.6-0.5c-0.1-0.2,0.1-0.5,0.1-0.8c0-0.3-0.4-1.3-0.8-1.9c-0.4,0.3-0.7,0.8-0.8,1.4
		c-0.2,1.3,0.2,1.7,0.2,1.8l0,0c0,0.1-0.1,0.3-0.2,0.3c-0.1,0-0.5-0.3-0.9-1.2c-0.4-0.8-0.7-2.1-0.6-2.4c0.1-0.3,0.5-0.3,1-0.5
		c0.2-0.1,0.7-0.9,0.7-0.9s-0.4-0.7-0.6-1.1c-0.2-0.3-0.3-1.2-0.2-2.1c-0.7,0.2-3.2,0.1-4.2-0.3c-0.1,0.5-0.3,0.9-0.5,1.4
		c-0.4,0.8-1.8,2.2-2,4.1c0,0.8,0.5,1.4,0.7,1.7c0.3,0.4,0.8,0.5,0.9,0.6c0.1,0.1,0.1,0.5-0.2,0.5c-1.1-0.1-2.9-1.5-2.9-1.7
		c0-0.3,0.4-0.9,0.6-1.9c0.1-0.6,0.2-2.6,0.3-3.2c0.1-0.6,1.2-2.3,1.4-2.7c0.1-0.3,0.2-1.1,0.1-1.1c-0.1,0-0.7,0.5-0.8,0.5h0
		c-0.2-0.4-0.4-0.8-0.5-1.2c0-0.2,0.4-0.3,0.4-0.5c0-0.2-0.6-1.7-0.5-1.9c0.1-0.2,0.6-0.3,1.1-0.4c0.1-1.5,1.2-4.3,1.6-5.2
		c0.4-0.9,1.4-2.2,1.7-3.2c-1.3,0-2.6-1.1-2.7-1.9l0,0c0,0,0,0,0,0c0.2,0.3,0.6,0.4,0.9,0.3c0,0,0,0,0,0c-0.3-0.2-0.5-0.4-0.8-0.6
		c-0.2-0.2-0.3-0.5-0.3-0.8c0,0,0.2,0.1,0.4,0.2c0.2,0.1,0.3,0.2,0.5,0.1c0,0,0,0,0,0c-0.1-0.2-1-0.7-0.9-1c0,0,0,0,0,0
		c0.1,0,0.4,0.3,0.7,0.3c0-0.1-0.2-0.5-0.2-0.8h0c0,0,0,0,0,0c0.3,0.2,0.7,0.3,1,0.5C42.7,90,43.3,90,44,90c0.7-0.1,1.3,0.2,1.8,0.7
		c0.4,0.4,0.4,1.2,0.4,1.9c0,0.5,0.1,0.9,0,0.9c0,0-0.3,0-0.4,0.1c-0.1,0.1,0.2,0.7-0.1,0.8c-0.3,0.2-0.6-0.1-0.7-0.1
		c-0.1,0-0.1,0.3-0.2,0.5c-0.1,0.2-0.3,0.5-0.4,0.6c0.2,0.3,0.4,0.7,0.6,0.9c0.5,0.6,1.2,1.2,1.2,1.4c-0.1,0.4-0.4,0.7-0.7,0.8
		c0,0.4-0.1,1.4-0.1,2.4c0.6,1,2.2,5.5,2.5,6.5c0.3,1,0.5,2.2,0.6,2.2c0.1,0,0.7-0.7,1-1.1c0.3-0.4,0.6-1.7,0.8-2.1
		c0.1-0.4,0.6-1.3,0.7-1.4c0-0.2-0.5-0.5-0.8-1.1c-0.3-0.6,0-1.7-0.1-1.8c-0.3-0.2-1.3-0.2-1.4-0.3s0.3-1.6,0.6-2.3
		c0.1-0.1-0.6-0.5-0.6-0.7v0c0.2-0.7,0.4-1.3,0.7-2c0.1-0.1,0.9-0.1,1-0.2c0.5-0.5,1-1.1,1.4-1.8c0.1-0.2-0.3-1-0.3-1.6
		c0-0.2-1.1,0.1-1.2-0.1c-0.1-0.1,0.6-0.7,0.8-0.9c0.1-0.2,0.1-1.9,0.4-2.2c0.1-0.1,0.5,0,0.8-0.2c0.3-0.1,0.8-0.4,1-0.3
		c0.2,0.1,0.8,1.2,1,1.4c0.1,0.2,0.9,0.8,0.9,0.9c0,0.1-0.7,0.2-0.8,0.3c-0.1,0.1,0.4,1.1,0.3,1.2c-0.1,0.1-0.3,0-0.3,0.1
		c-0.1,0.1,0.1,1,0,1.2c-0.1,0.1-0.5-0.1-0.6-0.1c-0.2,0.1-0.3,0.6-0.3,0.8c0,0.1,0.5,0.4,0.6,0.8c0.2,0.4,0.4,2.1,0.7,3.5
		c0.5,0.4,4,1.7,4.6,1.8c0.6,0.1,1.4,0.1,1.6,0.3c0.3,0.3,0.5,0.7,0.5,1.1c0,0.2-1,0.6-1,0.7c-0.1,0.1-1.8,5.8-1.8,5.9
		c0,0.1,0.3,0.9,0.6,1.7c0.3,0.8,0.4,3.3,1,4.1c0.7,1,2,0.8,2.1,0.9C62.5,115.9,62.6,116.2,62.4,116.2L62.4,116.2z"/>
	<text transform="matrix(0.9345 0 0 1 136.6946 53.166)" fill="#AAAAC1" font-family="'ArialMT'" font-size="9.7947px">?</text>
</g>
<line stroke="#000000" stroke-width="4" stroke-miterlimit="10" x1="406.5" y1="147.9" x2="488.8" y2="127.6"/>
<circle fill="#F8F8F8" stroke="#000000" stroke-width="3.5584" stroke-miterlimit="10" cx="494.5" cy="124.2" r="8.2"/>
<text transform="matrix(1 0 0 1 477.7775 94.2509)"><tspan x="0" y="0" font-family="'ArialMT'" font-size="12px">augmented </tspan><tspan x="0" y="14.4" font-family="'ArialMT'" font-size="12px">reality</tspan></text>
<line stroke="#000000" stroke-width="4" stroke-miterlimit="10" x1="212.4" y1="108.3" x2="236.7" y2="142.4"/>
<circle fill="#F8F8F8" stroke="#000000" stroke-width="3.5584" stroke-miterlimit="10" cx="208.3" cy="102.5" r="8.2"/>
<text transform="matrix(1 0 0 1 183.901 86.5448)" font-family="'ArialMT'" font-size="12px">DITA</text>
</svg>
