<?xml version="1.0" encoding="utf-8"?>
<!-- Generator: Adobe Illustrator 23.0.3, SVG Export Plug-In . SVG Version: 6.00 Build 0)  -->
<svg version="1.1" id="Layer_1" xmlns="http://www.w3.org/2000/svg" xmlns:xlink="http://www.w3.org/1999/xlink" x="0px" y="0px"
	 viewBox="0 0 600 350" enable-background="new 0 0 600 350" xml:space="preserve">
<g>
	<path fill="#FFFFFF" d="M298,238.5c-72.1,0-144.1,0-216.2,0.1c-2.6,0-3.1-0.6-3.1-3.1c0.1-65.1,0.1-130.2,0-195.3
		c0-2.4,0.3-3.1,3-3.1c144.1,0.1,288.3,0.1,432.4,0c2.4,0,2.9,0.5,2.9,2.9c-0.1,65.1-0.1,130.2,0,195.3c0,2.6-0.4,3.3-3.2,3.3
		C441.9,238.5,370,238.5,298,238.5z"/>
	<path fill="#050505" d="M122.6,59.1c5.5,0.2,12.4,1.2,19.1,3.7c14.6,5.4,21.6,17.9,18.5,33.4c-0.5,2.4-0.1,4.1,1,6
		c1.5,2.5,3.2,5,4.6,7.5c2.3,4,1.7,5.6-2.6,6.4c-2.9,0.5-3.5,1.5-2.3,4.1c1.2,2.6,0,5.5-0.8,7.8c-0.7,2.1-1,4-1,6
		c-0.1,3.9-2,5.9-6,5.7c-2-0.1-4-0.4-5.9-0.9c-3.5-1.1-5.6,0.3-7.1,3.4c-1.8,4-2.9,8.2-3.1,12.6c-0.1,2.5-0.9,3.3-3.6,3.3
		c-11.9,0-23.8,0.3-35.8,0.3c-5.1,0-5.7-1.3-3.7-5.9c5.4-12.8,7-25.5-0.6-38.1c-6.3-10.5-6.7-21.9-3.6-33.5
		C93.7,66.7,105,59,122.6,59.1z"/>
	<path fill="#050505" d="M332.1,89.7c-0.2,2.9,0,5.3-0.8,7.6c-0.6,1.9-0.1,3.7,0.9,5.4c1.8,2.9,3.7,5.8,5.2,8.8c1.6,3,1,4.5-2.4,5
		c-3.5,0.6-4.5,2-2.9,5.1c1.1,2.3-0.1,5-0.8,6.4c-1.1,2.3-0.8,4.2-0.9,6.3c-0.2,3.8-2,5.7-5.8,5.6c-2.2,0-4.6-0.2-6.6-0.9
		c-3.3-1.2-4.9,0.4-6.2,2.9c-2.1,4-3.1,8.4-3.3,12.9c-0.1,2.5-0.9,3.3-3.6,3.3c-11.8,0-23.6,0.3-35.4,0.3c-5.1,0-5.9-1.2-3.6-5.6
		c4.5-8.3,4.3-17.2,4.1-26.2c-0.1-4.2-2.6-7.7-4.6-11.3c-6.9-12.6-7.3-25.6-1.6-38.6c4.4-9.9,12.8-15,23.3-16
		c10.4-1,20.7,0.4,30.2,5.3C327.2,71.1,332.1,79.2,332.1,89.7z"/>
	<path fill="#040505" d="M468.9,59.1c5.9,0.3,13.2,1.3,20.1,4.2c13.7,5.8,20.1,17.6,17.1,32.2c-0.5,2.6-0.2,4.6,1.1,6.7
		c1.5,2.5,3.2,4.9,4.6,7.5c1.9,3.6,1.2,5.4-2.7,5.9c-3,0.4-3.5,1.5-2.5,3.9c1.3,2.9-0.3,5.6-0.9,8.2c-0.4,1.6-0.8,3-0.7,4.6
		c0.1,4.8-1.8,6.7-6.6,6.4c-1.9-0.1-3.7-0.4-5.6-0.9c-3-0.7-5,0.1-6.4,2.9c-2.2,4.3-3.1,8.9-3.4,13.6c-0.1,1.9-0.5,2.7-2.6,2.7
		c-12.2,0.1-24.3,0.4-36.5,0.5c-4.9,0.1-5.5-1.4-3.6-5.8c5.5-12.9,6.9-25.7-0.7-38.5c-6.3-10.5-6.5-21.8-3.2-33.1
		C440.5,66.3,451.5,59,468.9,59.1z"/>
	<path fill="#050505" d="M419.3,90.3c-0.2,2.9,0,5.3-0.7,7.6c-0.6,1.8,0,3.5,0.9,5.1c1.6,2.7,3.4,5.4,4.9,8.2
		c1.9,3.5,1.4,4.7-2.4,5.4c-2.8,0.6-4.2,1.5-2.6,4.4c1.4,2.5-0.2,5.1-0.8,7.1c-0.5,2-0.8,4-0.9,6c-0.2,3.5-1.7,5.1-5.2,5.3
		c-2.5,0.1-5-0.3-7.3-0.9c-2.7-0.7-4.3,0.4-5.5,2.6c-2.1,3.8-2.9,7.9-3.3,12.1c-0.2,2.6-0.8,4-4.1,4c-11.3-0.1-22.6,0.3-34,0.5
		c-4.8,0.1-5.6-1.4-3.7-5.8c5.3-12.4,6.6-24.7-0.6-37.1c-6.8-11.7-6.8-24-1.7-36.3c4-9.6,11.7-15,21.9-16.3
		c10.1-1.3,20.1-0.2,29.4,4.2C413.8,71.2,419.5,79.2,419.3,90.3z"/>
	<path fill="#050505" d="M245.7,92.3c-0.2,1.9-0.2,3.8-0.7,5.6c-0.7,2.6-0.3,4.8,1.2,7c1.5,2.4,3,4.8,4.4,7.2
		c1.8,3.3,1.2,5.1-2.3,5.5c-3.4,0.5-3.8,1.8-2.6,4.5c1.1,2.5-0.2,5-0.9,7.2c-0.5,1.6-0.8,3-0.7,4.5c0.2,5-2.3,7.2-7.2,6.5
		c-1.3-0.2-2.6-0.3-3.8-0.6c-4.8-0.9-6-0.4-7.8,4.1c-1.5,3.7-2.2,7.7-2.6,11.6c-0.2,1.7-0.7,2.6-2.8,2.6c-11.7,0-23.4,0.3-35,0.4
		c-4.8,0-5.8-1.5-3.5-5.8c4.5-8.3,4.3-17.3,3.8-26.2c-0.3-4.5-3.3-8.2-5.3-12.2c-5.4-10.5-5.6-21.3-1.9-32.2
		c4.2-12.7,15.6-20,29.6-19.4c9,0.4,17.8,1.7,25.7,6.5C241.4,74.5,245.7,82.3,245.7,92.3z"/>
	<path fill="#FEFEFE" d="M146.9,68.4c6.7,3,9.7,8.8,11.3,15.6c1,4.3,0.7,8.7-0.5,12.9c-0.5,1.9,0,3.5,0.9,5.1
		c1.7,3.1,3.5,6.1,5.4,9.1c1.2,1.9,0.6,2.7-1.4,3.1c-0.9,0.2-1.9,0.3-2.8,0.5c-1.9,0.5-2.8,1.5-1.9,3.6c1.5,3.6,0.3,7-1,10.4
		c-0.7,1.7,0,3.2,0,4.8c0.1,3.2-1.5,4.3-4.3,4c-1.9-0.2-3.7-0.6-5.6-0.9c-4.3-0.8-6.7,0.3-8.7,4.2c-2.1,4-3,8.4-3.5,12.8
		c-0.2,1.8-0.8,2.4-2.6,2.4c-11.6,0.1-23.1,0.2-34.7,0.4c-2.2,0-3.1-0.3-1.8-2.7c5.1-9.2,4.8-19.3,4.1-29.3c-0.3-3.6-2.3-6.9-4.2-10
		c-4.9-8.2-6.6-17-5.2-26.4c1.6,1.2,1.5,3.1,1.9,4.8c-0.8,3.4,2,3.6,3.9,4.5c10.3,11.9,23,14.9,37.8,10.4c1.7-0.5,3.5-0.5,5.2-1
		c2.1-0.2,4-0.8,5.6-2c0.9-0.7,1.9-1.4,2.9-2.1c3.6-2.2,5.8-5.2,5.1-9.6c-0.1-0.7,0.1-1.4,0.3-2.1c0.8-1.6,1.4-3.2,0.7-5
		c-1-5.4-3-10.4-6.3-14.9C147.3,70.2,146.6,69.5,146.9,68.4z"/>
	<path fill="#8D623F" d="M146.9,68.4c4,5.2,7.3,10.8,7.7,17.6c-2,0.9-2.3-0.9-2.5-1.9c-0.7-3.3-1.8-6.5-3.1-9.3
		c1.2,2.8,2.5,5.8,3,9.2c0.2,1.3,0.9,2.9-0.7,3.3c-1.9,0.5-2.1-1.5-2.3-2.8c-1-5.3-3.1-10.1-6.4-14.4c-0.3-0.3-0.4-0.8-0.8-0.9
		c4,4.4,6.2,9.8,7.2,15.7c0.2,1.3,0.8,2.9-1.3,3.4c-1.7-2.5-2.4-5.4-3.4-8.2c-1.5-5.5-5.1-9.5-9.4-13c-0.6-2.1-3-2.9-3.5-5
		C137.2,62.4,142,65.6,146.9,68.4z"/>
	<path fill="#F4F6F6" d="M99.4,69c7.3-7.1,16.3-8.3,25.9-7.4c-4.1,4.1-9.1,6.8-14.2,9.2c-2.9,1.4-6.2,2.4-9.5,0.8
		C100.7,70.8,99.2,70.6,99.4,69z"/>
	<path fill="#DCDADD" d="M99.4,69c0.5,1,2.2,0.6,2.2,2.1c0.9,1.7,2.5,1.5,4,1.3c2.6-0.4,5-1.2,7.5-2.1c0.6-0.3,1.4-0.4,1.9,0.3
		c0.4,0.6-0.1,1.2-0.5,1.5c-3.4,2.3-7,4.2-11.3,3.6c2.2,0.5,3.7,0.3,7-1c1.3-0.5,2.5-1.5,4-0.9c0.1,1.1,1.1,1.6,1.5,2.6
		c0.4,1.7,0.2,3.4-1.1,4.7c-1,0.6-2.1,0.2-3.2,0.3c-2.3-0.2-2.6,1.2-2.7,3c0,0.9,0,2.2-1.1,2.3c-1.2,0.1-1.2-1.2-1.3-2.1
		c-0.2-1-0.4-2.1-1.5-2.6c-0.9-0.4-1.8-0.9-2.1-1.9c-0.2-2.1-2.1-1.8-3.4-2.2c-1.4-0.6-2.7-1.5-4.2-0.2c-0.7,0-1.2-0.3-1.4-1.1
		C95.2,73.8,96.7,71,99.4,69z"/>
	<path fill="#254799" d="M114.4,74c-2.3,0.8-4.6,1.7-6.9,2.5c-2.3,0.8-4.4,0.1-6.5-0.7c-0.4-0.1-0.9-0.4-0.7-1
		c0.2-0.9,0.8-0.6,1.4-0.4c5.3,2.2,9.2-1.1,13.2-3.7c-2.5,0.8-4.9,1.6-7.4,2.3c-1.7,0.5-3.5,0.5-5.3,0.1c-1.3-0.3-1.6-0.9-0.5-1.9
		c5.1,1.1,9.4-0.7,13.6-3.3c3.4-2.1,6.5-4.6,10.1-6.2c0.6-0.1,1.2-0.1,1.8-0.2c1.1,0.3,1.9,0.9,2,2.2c-0.1,1.9-1.8,1.9-3,2.4
		c-3.5,1.1-6,3.6-8.4,6.3C116.7,73.2,116,74.5,114.4,74z"/>
	<path fill="#DDDBDC" d="M128.4,63.5c-0.5-0.7-1-1.4-1.4-2.1c1.6-0.9,2.9-0.1,4.2,0.7c1.2,1.6,3.8,2.1,3.8,4.7
		c-1.1,1.2,1.1,3.2-1.1,4.1c-2.4,0.7-4.7,1.8-7,2.8c-2.4,0-3.5-1.4-4-3.6c0.3-2.4,2.4-2.9,4.1-3.6C128.5,65.8,129.5,65.2,128.4,63.5
		z"/>
	<path fill="#8E5CA1" d="M93.8,76.7c0.4,0.3,0.9,0.5,1.3,0.8c1.2,1.8,0,3.4-0.5,5.1c-1.1,2.9-1.5,5.8-0.4,8.7
		c0.1,0.3,0.1,0.7,0.2,1.1c-0.1,0.8-0.2,1.6-1.2,1.8c-0.8,0.2-1.2-0.4-1.5-1.1c-0.4-1.7-0.7-3.4-1.1-5.1
		C91.3,84.1,91.4,80.1,93.8,76.7z"/>
	<path fill="#FDFEFE" d="M317.8,69.1c7.5,3.6,10.9,10,11.9,17.9c0.4,3.1,0.4,6.3-0.5,9.5c-0.7,2.6-0.4,5.1,1.1,7.4
		c1,1.6,2,3.2,3,4.8c3.1,4.9,3.1,4.9-2.3,6.5c-2.2,0.6-2.4,2.1-1.8,3.8c1.5,3.7,0.1,6.9-1.2,10.1c-0.5,1.3,0.1,2.3,0.2,3.4
		c0.6,4.1-1,5.7-5.2,5.2c-1.5-0.2-3-0.5-4.5-0.8c-4.6-0.9-6.7,0-8.8,4.3c-1.9,3.8-2.9,7.9-3.3,12.2c-0.2,2-0.9,2.5-2.8,2.6
		c-11.2,0.1-22.4,0.2-33.6,0.5c-2.8,0.1-3-0.6-2-3.1c5.2-12.9,7.1-25.8-0.4-38.6c-5.4-9.2-6.5-19-4.4-29.3c2.6,1.2,1.9,3.9,2.5,5.9
		c0.5,1.8,1,2.8,3,1.6c7.6-1.4,15.2-1,22.7,0.9c1.2,0.4,2.5,0.6,3.8,0.5c2.9-0.1,4.5,1,4.2,4.1c-0.2,2.5-1.4,4.4-3.9,5.3
		c-4,0.8-8,0.5-11.8-0.9c-3.3-2.4-7-3.9-10.8-5.4c-0.9-0.4-1.7-0.8-2.6-0.9c-0.9-0.1-1.6,0.3-1.8,1.2c-0.7,2.9,2.3,7,5.3,7.2
		c0.2,0,0.5,0.1,0.7,0.1c12.5,7.8,25.6,6.5,39,2.8c6.7-1.8,11.5-6.6,11.1-14.4c0-0.7,0.1-1.4,0.2-2.1c0.4-1.4,0.5-2.8,0.4-4.2
		c-0.9-5.8-2.9-11.3-6.7-15.9C318,70.7,317.5,70,317.8,69.1z"/>
	<path fill="#F6F7F7" d="M264.5,81.6c0.1-1.3,0.5-2.4,1.4-3.4c1.8-0.7,3.4,0.6,5.2,0.6c8,3.2,13.9-0.6,19.6-5.6c1.2-1,2.1-2.6,4-2.5
		c1.7,0.5,2.6,2.1,4.3,2.7c5.2,3.2,9.3,7.5,12.7,12.4c1,1.4,1.9,3,1.7,4.9c-0.1,1.2-0.1,2.3,1.5,2.5c1,0.1,1.8,0.5,1.9,1.6
		c-1.5,4.4-6.4,7.6-10.5,7c-0.6-0.8-0.4-1.8-0.2-2.7c0.7-4.4-0.3-8.3-3.6-11.4c-1.8-3.1-3.1-0.4-4.6,0.3c-2.7,0.1-5.1-0.9-7.5-1.7
		c-6.1-2-12.3-3-18.7-1c-1.1,0.3-2.3,0.4-3.5,0.2C266.4,84.7,264,84.5,264.5,81.6z"/>
	<path fill="#8D613F" d="M317.8,69.1c4.6,5,7.2,10.9,8.4,17.5c-1.8,2.3-2.5,0.9-2.7-0.9c-0.5-3.6-1.6-6.9-3.3-10
		c1.7,3.2,3,6.5,3.2,10.2c0.1,1.1,0.3,2.3-1.2,2.5c-1.5,0.2-1.5-1.1-1.7-2.1c-1.3-6-3.4-11.7-7.8-16.3c4.4,4.6,6.4,10.3,7.7,16.3
		c0.2,1.1,0.5,2.4-1.2,2.8c-2.1-2.1-2.2-5.1-3.5-7.5c-1.9-5.5-5-10.3-10-13.6c-0.2-2-2.7-2.5-2.8-4.5
		C308.5,63.6,313.1,66.5,317.8,69.1z"/>
	<path fill="#F4F5F6" d="M271.7,69.8c7.1-6.7,15.8-7.8,25-7c-6.3,5.1-12.3,10.8-21.3,10.3C273.8,72.5,271.8,72.2,271.7,69.8z"/>
	<path fill="#224598" d="M275.2,72.4c4.8,0.6,8.7-1.6,12.5-4c3-1.9,6-3.7,9-5.6c0.6,0,1.3-0.1,1.9-0.1c0.9,0.5,1.9,1,1.8,2.3
		c-0.5,1.8-2.2,1.8-3.6,2.4c-2.5,1.1-4.5,2.8-6.2,5c-0.8,0.9-1.6,1.7-2.6,2.3c-2.1,0.8-4,1.9-6,3c-2.6,1.1-5.3,1.1-7.9,0.5
		c-1.2-0.3-2.3-1-2-2.4c0.3-1.7,1.6-0.9,2.5-0.8c2.9,0.5,5.6,0,8.2-1.1c0.9-0.4,1.7-1,2.7-1.3c-1.4,0.4-2.4,1.2-3.6,1.6
		c-2.3,1-4.7,1.2-7.2,0.7c-0.9-0.2-2.1-0.4-1.8-1.6C273.2,71.8,274.3,72.3,275.2,72.4z"/>
	<path fill="#DBDADF" d="M283.7,73.9c-3.2,1.5-6.3,3.2-10,1.6c-0.4-0.2-1.1-0.6-1.4,0.3c-0.2,0.8,0.4,0.9,1,1.2
		c3,1.2,5.9,0.7,8.9-0.2c0.8-0.3,1,0.2,1,0.9c-2.4,2.8-5.6,2.3-8.7,2.2c-1.1,0-2.2-1.1-3.3-0.2c-1.9,0.2-3.6-0.7-5.3-1.4
		c1.2-3.3,3.1-6.1,5.9-8.4c1,1.1,2.2,1.9,3.5,2.6c-0.7,0.3-1.9-0.4-2.1,0.7c-0.2,1.3,1.1,0.9,1.8,1c2.7,0.3,5.3-0.2,7.9-1
		C283.7,72.9,283.8,73.3,283.7,73.9z"/>
	<path fill="#DCDBDB" d="M300.1,64.7c-0.5-0.7-0.9-1.3-1.4-2c1.6-1.2,2.9-0.1,4.3,0.7c0.6,1.6,3.9,1.3,3,4.1
		c-0.2,1.4,1.6,2.9-0.3,4.2c-2.2,1.1-4.4,2.1-7,2.3c-2-0.2-2.9-1.6-3.7-3.2c0.5-2.2,2.6-2.6,4.2-3.2
		C301.1,66.9,300.5,65.9,300.1,64.7z"/>
	<path fill="#DAD6DB" d="M264.5,81.6c0.5,2,2.4,2.3,3.8,3.1c0.3,1.1,1.4,0.8,2.1,1.1c0.4,0.3,0.7,0.6,0.8,1.1
		c-0.3,1.5-2.1,1-2.7,2.1c-0.1,0.4,0,0.8,0.4,1.1c0.5,0.3,1.1,0.4,1.5,0.8c0.1,0.3,0.1,0.6,0,0.9c-0.7,0.6-1.6,1-2.2,1.8
		c-1.2,2.1-2.2,2-2.8-0.3c-0.7-2.7-0.6-5.5-2-8C263.7,84.1,263.6,82.7,264.5,81.6z"/>
	<path fill="#FFFFFF" d="M504.4,102.1c1.8,2.8,3.5,5.6,5.3,8.3c1.5,2.2,0.6,3.1-1.6,3.4c-0.7,0.1-1.4,0.4-2.1,0.5
		c-2.3,0.3-2.9,1.5-2.1,3.7c1.3,3.6,0.3,7-1.2,10.3c-0.7,1.5,0.2,3,0.2,4.4c0.1,3.1-1.2,4.4-4.2,4.1c-1.9-0.2-3.7-0.5-5.6-0.9
		c-4.4-0.8-6.8,0.3-8.9,4.4c-2,3.9-2.8,8.2-3.3,12.5c-0.2,1.7-0.7,2.1-2.3,2.2c-11.2,0.1-22.4,0.4-33.6,0.6c-3.9,0.1-4-0.1-2.3-3.6
		c4.5-9.4,4.7-19.3,3.3-29.3c-0.5-3.8-3.1-6.8-4.4-10.3c1.6-1.4,3.2-0.8,4.5,0.2c7.8,5.4,16.6,4.8,25.3,4.2c4.3-0.3,8.7-0.5,13-1.2
		c7.1-1.1,12.6-4.4,16.5-10.4C502,103.8,502.7,102.5,504.4,102.1z"/>
	<path fill="#F2F1F2" d="M504.4,102.1c-4.2,7-9.3,12.9-17.9,14.1c-10.4,1.4-20.9,2.8-31.5,1.1c-3.1-0.5-5.8-1.8-8.4-3.5
		c-1.5-1-3.1-1.7-4.9-1.4c-5.7-8.9-5.8-18.5-3.9-28.4c2.7,1.1,1.9,3.8,2.4,5.8c0.6,2.4,1.6,3.3,3.9,1.9c4.3,0.1,8.5-1,12.8-0.4
		c1.4,1.1,1.7,2.4,0.9,4c-3.8,1.3-7.6-0.3-11.3,0.1c-3.2,0-3.5,0.4-2.9,3.3c1.1,5.4,1.1,5.4,7.5,3.6c3.8-0.5,7.5-0.1,11.2,1.2
		c1.4,1,2.6,2.3,4.1,3.2c1.7,1.5,3.1,1.3,4.2-0.7c0.2-0.4,0.5-0.8,0.7-1.2c2.7-4.5,2.5-4.8-2.6-5.3c-0.9-0.1-1.7-0.5-2.4-1.2
		c-1.1-1.6-2.6-3.1-1.8-5.4c0.4-0.3,0.8-0.5,1.3-0.5c4.8-0.1,4.8-0.1,5.6-4.7c-0.6-1.6-2.2-1.4-3.4-1.9c-1.3-0.5-2.6-0.9-3.5-2.1
		c-0.2-1.5,0.3-2.8,1.4-3.8c2.7-1.9,2.7-2.4-0.1-3.7c-0.8-0.4-1.8-0.5-2.1-1.6c0.3-2.3,1.8-3.5,3.9-4.1c1.2,0,2.2,0.3,3,1.2
		c0.5,0.7,0.7,1.5,0.7,2.3c0,4.6,1.4,8.5,4.9,11.6c0.5,0.5,0.8,1.1,0.9,1.9c0,0.4-0.1,0.7-0.2,1c-2.3,3.6-2.9,7.1,0.3,10.8
		c1.9,2.2,3.1,4.9,5.2,7c1.9,2.2,4.2,1.5,6.5,0.9c3.5-1.1,6.4-3.5,9.7-5c3.1-1.4,3-4.9,2.8-7.8c-0.2-3-1.4-5.5-4.9-6.1
		c-0.7,0-1.4-0.1-2.1-0.1c-1.7-0.2-3.4-0.5-4.2-2.4c0.7-2.2,2.9-1.2,4.2-2c2.9-1,4-3.3,4.3-6.2c0.1-1.4-0.4-3.1,1.5-3.9
		c4.7,6.7,5.7,14.2,3.9,22C503.3,98.1,503.9,100,504.4,102.1z"/>
	<path fill="#8C603E" d="M499.9,73.8c-1.1,1-0.3,2.2-0.3,3.3c-0.2,3.6-1.3,6.6-5.2,7.7c-0.6,0.2-1.2,0.2-1.8,0.1
		c-0.9-0.1-1.9-0.3-1.7-1.3c0.3-1.2,1.4-0.7,2.2-0.6c-3.8-0.5-4.3-1.3-2.3-4.3c1.2-0.8,2.2-1.8,1.6-3.4c-0.5-1.6-1.7-2.4-3.4-2.5
		c-0.8-0.1-1.6-0.1-2.4-0.3c-1.6-1.1-1.9-2,0.5-2.4c1.4-0.3,2.9-0.5,4.3,0c1.7,0.7,2.8,2,3.9,4.1c-0.9-1.9-1.8-2.9-3.1-3.7
		c-1.7-1-3.5-0.7-5.3-0.4c-2.2-0.3-2.2-0.3-1.8-2.1c0-0.1,0.4,0,0.3-0.1c-1.3-0.2-2.5-0.5-1.4-2.2c0.8-1.2,2.2-0.4,3.3-0.9
		c0.6,0.3,1.2,1,1.8,1C494.6,66,497.6,69.4,499.9,73.8z"/>
	<path fill="#DCDBDD" d="M463.7,74.5c0.6,1.2,1.8,0.9,2.8,1.2c1.5,0.5,2.5,1.1,2.3,2.9c-0.2,2-1.6,1.7-2.8,1.8
		c-1.9,0.1-1.6,2.5-3.1,3.1c-0.3,0-0.6-0.1-0.8-0.4c0.1-2.7-1.3-3.9-3.9-4.1c-0.3-0.1-0.6-0.3-0.8-0.5c-0.5-0.6-1.1-0.8-1.9-0.5
		c-2.4,1-4.9,1.3-7.4,0.3c-1.2-0.5-1.6,0.6-2.3,1.1c-2.4,0.3-4.2-0.5-5.5-2.6c1.2-3.1,2.9-5.8,5.6-7.8c1.6-0.5,2.1,0.7,2.8,1.8
		c0.7,2,2.4,1.7,3.9,1.4c2.1-0.4,4.1-1,6.1-1.8c0.7-0.3,1.7-0.7,2.2,0.3c0.5,0.9-0.4,1.5-1.1,2c-3.3,2-6.6,3.7-10.7,2.8
		c-0.5,0,0,0.7-0.1,0.2c0-0.1,0.1-0.1,0.3-0.1c2.9,0.5,5.6,0,8.2-1.4c1.1-0.6,2.3-1.3,3.6-1.2C461.7,73.9,462.9,74,463.7,74.5z"/>
	<path fill="#F4F5F6" d="M448.3,71c-0.6-0.9-1.3-1.7-2.3-2.1c7.1-7.2,16.1-8.2,25.5-7.4c-5.6,5.1-11.7,9.2-19.3,10.5
		C450.8,72.2,449.3,72.4,448.3,71z"/>
	<path fill="#28489A" d="M448.3,71c4.6,1,8.6-0.6,12.4-2.8c3.6-2.2,6.9-5,10.8-6.6c0.6,0,1.1-0.1,1.7-0.1c2.1,0.8,4.2,2.4,4.1,4.4
		c-0.1,1.9-3,1.8-4.7,2.5c-0.8,0.3-1.6,0.5-2.4,0.4c-2.1-0.2-1.2-1.2-0.5-2c-0.9,0.5-1.3,1.6-2.2,2.2c-1.7,1.1-2.9,2.6-4.4,3.9
		c-0.4,0.3-0.8,0.6-1.3,0.6c-2.1,0-3.6,1.5-5.5,2.2c-2.8,1.1-5.5,1.3-8.2,0.3c-0.6-0.2-1.6-0.3-1.3-1.2c0.3-1,1.1-0.5,1.7-0.3
		c4.9,1.5,8.7-0.9,12.3-3.6c-3.6,1.3-7.2,2.7-11.2,2.3C447.9,72.9,447.8,72.6,448.3,71z"/>
	<path fill="#DDDCDD" d="M466.7,68.4c1.3-1.3,2.9-2.3,4.9-3c-0.6,1.3-2.2,1.3-2.6,2.6c2.8,0,5.1-1.3,7.9-2c-1.4-1.7-2.7-3.2-3.9-4.7
		c2.8-1.5,4.7,1.4,7.2,1.5c2.4,0.1,4.7,1.3,7,1.9c-0.7,1.4-2.5,0.4-3.5,1.7c2.1,0.1,0.6,3.7,3.4,3.1c0.2,0.2,0.3,0.3,0.2,0.4
		c-0.1,0.1-0.2,0.2-0.3,0.2c-0.5,0.1-1.2,0-1.3,0.7c-0.1,1,0.8,0.9,1.4,1c-0.2,2.3-2,2.3-3.5,2.5c-1.5,0.2-2.2-1-2.7-2.3
		c-0.5-1.3-0.9-2.6-1.9-4.3c0,1.5,0.2,2.6-1.1,3.1c-1.6,0.5-3.3,0.9-4.9,1c-0.8,0-1.6,0-2.4-0.1c-0.2,0-0.3,0-0.5-0.1
		c-1,0.1-1.9-0.2-2.7-0.7c-0.6-0.6-0.6-1.4-1-2C466.4,68.8,466.5,68.6,466.7,68.4z"/>
	<path fill="#F3F3F5" d="M440.3,76.8c2,0.7,3.6,2.4,5.9,2.1c0.4-0.3,0.9-0.6,1.3-0.5c3.4,1.5,6.7-0.5,10-0.1c0.2,0,0.4,0,0.6,0
		c1.1,1.7,0.4,3.2-0.7,4.5c-1,0.7-2.2,0.7-3.4,0.6c-3.9-0.3-7.6,0.5-11.3,1.2c-1.7-0.3-2.9-1.5-4.4-2.1
		C438.4,80.4,439.2,78.5,440.3,76.8z"/>
	<path fill="#DEDADE" d="M438.3,82.5c1.7-0.8,2.8-0.3,3.4,1.4c1.3,1.3,2.7,0.3,3.9,0c3.9-0.9,7.8-1.1,11.7-0.2
		c0.4,0.5,0.5,1,0.2,1.6c-1.3,1.3-3,0.9-4.6,1c-2.5,0.1-5.1-0.1-7.6,0.5c-1.5,0.4-2.2,1.1-2,2.7c0,0.3,0,0.7,0,1
		c0.1,0.7-0.1,1.4-0.2,2.1c-1.7,2-2.8,1.7-3.6-0.8c-0.8-2.6-0.3-5.4-1.9-7.8C438,83.5,438.1,83,438.3,82.5z"/>
	<path fill="#FEFEFF" d="M412.6,76.1c4.4,5.9,5.4,12.6,4.2,19.5c-0.7,4.1-0.3,7.4,2.1,10.6c1.2,1.6,2,3.4,3.2,5.1
		c1.7,2.3,0.6,3.2-1.7,3.6c-0.5,0.1-0.9,0.2-1.4,0.2c-2.5,0.3-3.3,1.7-2.4,3.9c1.5,3.5-0.1,6.5-1.2,9.6c-0.4,1-0.2,1.8,0,2.7
		c0.9,4.9-0.3,6.2-5.3,5.8c-1.5-0.1-3-0.4-4.5-0.8c-3.7-0.9-6.1,0.7-7.8,3.8c-2,3.8-3,7.9-3.4,12.1c-0.2,1.8-0.6,2.7-2.7,2.7
		c-10.9,0.1-21.7,0.3-32.6,0.6c-3,0.1-3.3-0.5-2.2-3.3c5-12.5,6.8-25.2-0.5-37.6c-5-8.5-6.5-17.6-4.5-27.2c2.6-0.6,2.2,1.6,2.4,2.8
		c0.5,2.8,1.5,4.1,4.6,3.4c2.6-0.5,5.4,0.2,8-0.6c5.8-0.9,11.3,1.4,17,1.3c1.4,0.3,2.7,0.9,3.6,2.1c1.1,3.9-1.3,5.9-4.1,7.8
		c-3.6,0.8-6.9-0.1-10.3-1.1c-4.2-2.6-8.7-4.6-13.4-5.9c-1.8-0.6-2.7-0.3-2.3,1.9c0.7,4.4,1.5,5.6,4.5,5.8c1.5,0.2,2.6,1.1,3.9,1.7
		c13,6.2,25.9,4.6,38.8-0.2c4.8-1.8,7-5.8,7.2-10.8c0-1.2,0-2.4,0.2-3.5c0.8-2.5,0.1-3.5-2.6-2.8c-1.3,0.4-2.7,0.6-4.1,0.2
		c-7.5-3.2-11.8-9.1-14.4-16.6c0.1-1.2-0.4-1.9-1.3-2.6c-0.6-0.4-1.6-0.8-0.9-1.8c0.4-0.3,0.9-0.5,1.4-0.6c1.8-0.3,3.5-0.9,4.4,1.8
		c1.7,5.2,1.8,5.1,6.9,3.5c2.4-0.4,4.1,0.7,5.1,2.8c1,2,0.9,3.8-1,5.4c-2.1,1.7,0.5,2.2,0.9,3.3c0.5,1.7,1.5,0.5,2.1,0.2
		c2-1.2,2.5-3.2,2.7-5.4C411.3,78.3,410.8,76.7,412.6,76.1z"/>
	<path fill="#F5F6F7" d="M353.1,83c0.2-1.5,0.6-2.9,1.6-4c2.2-0.6,3.8,1.5,5.9,1.2c6.9,2.1,12.2-1,17.1-5.4c1.1-1,2.1-2.2,3.9-2.1
		c1,0.1,1.8,0.6,2.4,1.4c0.7,4.1,1.4,8.3,3.1,12.2c-0.2,1.6-1.3,1.9-2.6,2.1c-3.9-0.2-7.4-2.1-11.2-2.8c-4.3-0.8-8.4-0.5-12.6,0.3
		c-1.3,0.3-2.5,0.5-3.8,0.3C355.2,85.6,353.2,85.3,353.1,83z"/>
	<path fill="#8C603E" d="M412.6,76.1c-0.9,1.8,0,3.6-0.5,5.5c-0.8,3.3-3.5,5.6-6.5,5.3c-0.6,0-1.3,0.1-1.4-0.7
		c0-0.2,0.2-0.8,0.4-0.8c1.2-0.3,1.8-0.2,0-0.6c-1.8-0.4-2.5-2.5-0.9-3.1c2.4-1,3.2-2.1,2.5-4.4c-0.7-2.3-2.3-3.4-4.8-3
		c-0.7,0.3-1.4,0.2-2.1,0.2c-0.7-0.1-1-0.5-0.9-1.2c0.1-0.5,0.5-0.8,1-0.8c1.1-0.1,2.3-0.1,3.5,0c-0.7-0.2-1.4-0.2-1.9-0.1
		c-3.1,1.1-3.7-1.9-3.8-3.2c-0.2-2.3,2.3-1,3.6-1.4c1.2,0.3,2.5,0.6,3.7,0.8C408.7,69.4,410.8,72.6,412.6,76.1z"/>
	<path fill="#234699" d="M390,69c-0.4,0.1-0.9,0.1-1.3,0.2c-1.7,1.6-3.6,2.2-5.9,1.8c-0.6,0.3-0.3-2.4-1.4-0.4
		c-0.4,0.7-1,1.3-1.5,1.9c-1.8,2.4-4.3,3.9-7,5.2c-3.3,1.1-6.6,2.7-10.2,1.4c-1.1-0.4-2.6-0.6-2.3-2.1c0.3-1.5,1.7-1.2,2.9-1
		c3.8,0.8,7-0.8,10.1-2.5c0.3-0.4-0.5-0.4-0.1-0.2c0.2,0.1,0.2,0.2-0.1,0.3c-2.7,1.4-5.5,2.7-8.7,2.4c-1.6-0.1-3.5-0.2-3.1-2.8
		c0.7-0.8,1.6-0.9,2.6-0.9c4.7,0.2,8.6-1.8,12.3-4.3c2.5-1.7,5-3.4,8.1-3.9c0.7,0,1.5-0.1,2.2-0.1C388.8,65,390.7,66.2,390,69z"/>
	<path fill="#F4F5F6" d="M384.5,64.2c-2.8,1.7-5.6,3.3-8.3,5.2c-4.4,3-9.1,4.7-14.5,4c-0.9-0.5-1.9-0.9-1.5-2.3c5.2-5.3,11.8-7,19-7
		C381,64,382.8,64.1,384.5,64.2z"/>
	<path fill="#D8D8DE" d="M360.3,71c0.4,0.8,1.6,1.1,1.5,2.3c-0.3,2.8,2,1.9,3.2,2c3.5,0.1,6.8-1.3,10-2.5c-3.7,2.8-7.4,5-12.3,3.5
		c-0.7-0.2-1.5-0.5-1.8,0.4c-0.3,1,0.7,1.1,1.3,1.3c2.5,0.9,5,0.8,7.6-0.2c1.1-0.4,2.1-1.2,3.3-1c-1.1,2.9-5.4,4.7-9.3,4
		c-1-0.2-2.1-1.3-3.2,0.1c-2.3,0.5-4-1.2-5.9-1.9C355.7,75.7,357.6,73.1,360.3,71z"/>
	<path fill="#DCDADA" d="M390,69c-0.1-2.4-2.5-3.1-3.3-5c0.5-0.6,1.4-0.9,1.9-0.6c3.7,2.4,8.4,2.1,12.1,4.2c-1.2,0.3-2.4,0.6-3.6,1
		c3.2,3,3.2,3,7.3,3.7c-1.8,0.1-3.6,0.2-5.5,0.4c0.3,1.9,1.7,1,2.5,1.4c-0.3,0.2-0.6,0.4-0.9,0.6c-5,1.9-5.7,1.8-6.6-3.4
		C393.4,68.1,391.9,68.8,390,69z"/>
	<path fill="#DAD3DC" d="M353.1,83c1.3,0.8,2.6,1.6,3.8,2.5c0.2,0.8,0.9,1.1,1.5,1.5c0.3,0.2,0.5,0.4,0.6,0.7
		c-0.1,1.2-1.5,1.1-1.9,2c-0.1,0.8,0.4,1.1,1,1.1c3.5-0.7,7-0.7,10.5-0.6c0.8,0,1.7,0,2.5,0.2c1.2,0.3,3.1,0.4,3.1,1.8
		c-0.1,1.7-2.1,1.2-3.2,1c-3.3-0.5-6.5,0.5-9.8,0c1.9,0.5,3.9-0.6,5.4,0.9c-3.6,1.4-7.4-0.1-11,1.1c-1.2,0.4-1.4-1-1.8-2.1
		c-0.7-1.8,0.3-4.3-2-5.5C351.9,85.9,352.3,84.4,353.1,83z"/>
	<path fill="#FEFEFE" d="M243.2,88.9c0.3,3.1,0.4,6.1-0.5,9.1c-0.8,2.8-0.2,5.3,1.4,7.7c1.5,2.3,2.7,4.7,4.2,6.9
		c1.3,2,0.7,2.7-1.5,3.2c-4.8,1-4.9,1.1-3.5,5.6c0.8,2.6-0.9,4.7-1,7.2c0,1.4-0.7,3.2-0.6,5.1c0.4,3.6-1.2,4.9-4.8,4.4
		c-1.2-0.2-2.3-0.3-3.5-0.5c-6.3-1.2-8.4,0-10.7,6.1c-1.1,3.1-2,6.3-2.2,9.6c-0.1,1.9-0.9,2.6-2.9,2.6c-10.9,0.1-21.7,0.2-32.6,0.4
		c-2.8,0.1-3-0.5-1.9-3.1c5-12.3,6.9-24.6-0.1-36.9c-4.1-7.3-6.6-15-5.3-23.6c1.8,0.3,1.9,1.8,2.3,3.1c0,2,1.1,3.2,2.9,3.9
		c1.9,1.1,3.5,2.4,5,3.9c6.3,6.2,13.9,8.8,22.7,7.7c6.3-0.8,12.6-1.8,18.5-4.5c5.2-2.4,9.4-5.6,9.2-12.1
		C239.4,92.3,239.6,89.2,243.2,88.9z"/>
	<path fill="#F9EB28" d="M215.4,64.8c8.3,1.8,16,4.8,22.1,11c1.7,3,3.5,6.1,4.4,9.5c0.4,1.7,0.5,3.1-1.8,3.2
		c-1.2-0.4-1.4-1.5-1.8-2.4c-2.9-8.2-2.9-8.2-9.2-13.8c1.2,1.6,2.9,2.6,4.1,4.1c1.8,3.7,3.6,7.4,4.3,11.5c0,1.2-0.3,2.1-1.7,2.1
		c-1.1,0-1.6-0.8-2-1.7c-0.9-1.9-1.1-4-2.4-5.7c-1.5-1.6-1.6-3.9-2.8-5.7c-1.1-1.6-2.4-3.2-3.8-4.7c-0.3-0.4-0.5,0.4-0.2,0.1
		c0-0.1,0.1,0,0.2,0.1c4.8,5.1,7.5,11,7,18.2c-0.3,0.9-0.8,1.5-1.9,1.3c-1.3-0.7-0.9-2.1-1.1-3.2c-1-5.1-3-9.8-6.4-13.8
		c2.4,4.4,5.6,8.4,6.3,13.6c0.2,1.3,0.5,2.5-0.2,3.8c-0.3,0.2-0.6,0.3-1,0.3c-2.7-3.7-4.4-8-6.4-12c-1.4-3.4-4-6.2-4.3-10.1
		C217.3,68.4,213.7,67.3,215.4,64.8z"/>
	<path fill="#234699" d="M215.4,64.8c0.4,0.9,0.1,2.1,1.5,2.7c1,0.5,2.2,1.9,0.7,3.3c-2.3,3.5-5.8,3.3-9.3,3.4
		c-1.5,0.1-3,0.5-4.4,1.1c-4.1,1.3-7.5,4.1-11.6,5.4c-2.4-0.8-2-2.1-0.3-3.2c1.7-1.2,3.7-1.9,5.5-2.8c-2.3,1.1-4.6,2.3-6.9,3.4
		c-4,1.9-5.9,0.2-5.4-4.3l-0.1,0.1c2.3-1.4,3.8-3.8,6.4-4.9c4.2-3.4,9.4-3.8,14.5-4.3C209.1,64.5,212.3,64.8,215.4,64.8z"/>
	<path fill="#DDDBDD" d="M185.2,73.9c-0.6,1.2,1.1,2.1,0.4,3.5c-0.3,0.6,0.5,0.5,1.1,0.5c3.1,0.2,5.5-1.8,8.2-2.8
		c1.3-0.5,2.6-0.9,4-1.1c-2,1.8-4.2,3.2-6.7,4.3c-2.1,0.9-1,1.5,0.4,2c2.5,1.1,4.7,2.4,5.6,5.2c-3.2,4.6-3.7,4.7-7.9,1.6
		c-1.5-1.1-3-2.3-4.5-3.3c-1.1-0.9-2.5-1.5-2.4-3.4c0-0.5-0.7,0.1-1,0.1c-0.8,0.1-1.1-0.4-1.3-1C182.2,77.5,183.1,75.3,185.2,73.9z"
		/>
	<path fill="#DEDADA" d="M231.5,81.7c2.4,1.4,2.2,4.1,3.2,6.2c0.3,0.7,0.1,1.8,1.4,1.6c1.2-0.2,0.7-1.3,0.8-2
		c-0.4-0.7-0.4-1.3,0.4-1.7c1.2,0.2,1.2,2,2.5,1.9c2.1,0.5,2.2-0.4,1.6-2c-1.3-3.3-2.5-6.7-3.8-10c3.3,3.7,5.3,8.1,5.6,13.1
		c-2.1,1.4-2.9,3.7-4.2,5.7c-3-0.5-4.7,0.8-5.3,3.7c-0.6,0.8-1.3,1.5-2.5,1.3c-1.3-1.2,0.7-2.6-0.2-3.8c-1.3,0-2.5,2.4-3.9,0.2
		c-0.4-1.3-0.5-2.6,0.7-3.6c0.2,0,0.4,0,0.5-0.1c0.5-0.3,0.7-1.2,1.6-0.7c1,0.1,1.4-0.4,1.5-1.3c1.6-1.2,0.7-2.7,0.6-4.2
		C231.9,84.7,230.8,83.3,231.5,81.7z"/>
	<path fill="#874F9C" d="M181.2,79.5c0.4,0.3,0.5,1,1.2,0.9c1.1,2,0,3.8-0.6,5.6c-1.1,2.6-0.5,5.2-0.4,7.9c0,1.3,0.3,2.7-1.9,2.2
		c-0.8-1-0.5-2.5-1.6-3.4C178.5,88.2,178.3,83.5,181.2,79.5z"/>
	<path fill="#DDDBDD" d="M191.5,69.1c-2.1,1.6-3.7,4-6.4,4.9C186.7,71.7,188.5,69.6,191.5,69.1z"/>
	<path fill="#224497" d="M139.4,107.4c-8,2-16.1,4.3-24.5,2.8c-3.6-0.6-6.9-2.2-9.9-4.3c-3.4-2.5-6.5-5.3-9.3-8.4
		c-0.6-1.8,0.6-2,1.9-2.1c5.1,3,10.6,4.9,16.6,5.6c0.8,0.1,1.5,0.4,2.2,0.5c4,0.9,8.2,0.4,12,2.2c0.5,1.4-0.7,1.2-1.4,1.2
		c-6.2,0.4-12.3,0-16.7-1.5c5.7,1.3,13,3.1,20.4,0.3c2.5-0.4,4.9-1.1,7.3-1.7c2.5-0.6,4.8-1.8,7-3.1c1.6-1,3-2.2,2.8-4.4
		c-0.2-1.5-0.7-3.3,1.3-3.7c1.6-0.3,3.6-2.5,5,0.4c0,0.1-0.1,0.2-0.1,0.3c1.3,7-3.1,10.7-8.3,13.8
		C143.6,105.9,141.6,106.9,139.4,107.4z"/>
	<path fill="#E1DDDC" d="M154.1,91c-3.5-1.4-5.9,0.2-5.7,3.8c-0.4,1.1-0.8,2.2-2.4,2c-1-1.1,0.5-2.4-0.3-3.5
		c-1.1-0.1-1.8,1.2-2.9,0.8c-2-0.7-3.6-1.6-2.2-4.2c1.2-0.6,1.3-1.7,1.5-2.9c0.1-1,1.4-1.5,1.6-0.5c0.5,3.3,2.9,0.7,4,1.6
		c1.2-1.1,0.4-2.4,0.2-3.6c-1.3-6.5-4-12.4-8.4-17.4c6.9,4.9,9.6,12.2,11.4,20.1c1.1-5.3-1.4-9.7-3.2-14.3c2.8,3,3.9,6.7,4.9,10.6
		c0.3,1.1-0.2,2.9,2,2.6C156.3,87.9,154.7,89.4,154.1,91z"/>
	<path fill="#DFDADB" d="M98,95.7c-1,0.2-2.2,0.2-2.3,1.7c-3.1,0.1-5-0.8-4-4.4c2,1.7,2,0.1,2-1.3c1.3-1,2.1-3.4,4.4-1.6
		c0.3-0.1,0.6-0.1,0.9-0.2c0.9-0.1,1.7-0.3,2.6-0.6c3.2,0.3,3.7,1.1,2.6,4.5c-1,1-0.1,1.3,0.6,1.7c1.4,0.8,3.2,0.8,4.1,2.5
		c0,0.4-0.1,0.7-0.3,0.9c-2.9,0.7-5.4-0.7-7.8-2C99.8,96.6,99.2,95.7,98,95.7z"/>
	<path fill="#C6695E" d="M139.4,107.4c2-1,4-2.2,6.4-2.2C143.9,106.6,141.9,107.7,139.4,107.4z"/>
	<path fill="#F3EB3C" d="M147.7,88.1c-2.4,1.4-4.2,1.5-4.5-2.2c-1.3,1.5,1.5,4.1-1.9,4.4c-3.3-6.4-7.8-11.9-13.8-16.1
		c-0.3-0.2-0.4-0.6-0.5-0.9c2-1.9,4.4-2.7,7.1-2.9c5,1.5,8,5.2,10.6,9.5C146,82.5,147.4,85.1,147.7,88.1z"/>
	<path fill="#F4F4F0" d="M144.7,79.8c-3.2-3.6-6.6-6.9-10.6-9.5c1-1.6-0.6-2.5-1-3.6c0.7-0.7,1.3,0.3,1.9,0.1
		C140.3,69.6,143,74.3,144.7,79.8z"/>
	<path fill="#F6F7F8" d="M127.1,73.2c6.4,4.3,12.3,9,14.3,17c-2,2.7,1.4,2.5,2,3.7c-1,4.3-4.8,4.9-8.1,5.5
		c-4.1,0.8-8.4,0.9-12.5-0.1c-1.3-0.6-0.9-1.3-0.1-2c2.5-2.4,2.5-2.4-0.6-4.2c-3.6-2-5.9-5.2-7.7-8.8c-0.5-1-1.1-2.1-0.2-3.3
		c0.6-1.7,1-3.4,0.8-5.2c2.5-2.6,4.5-5.8,8.4-6.4C123.8,71.6,125,72.9,127.1,73.2z"/>
	<path fill="#ED2A2C" d="M105.1,81.1c3.2,0.5,1.4,3.4,2.4,5c1.1-2-1.2-6.5,3.9-5.6c0.8,0.7,0.9,1.8,1.4,2.7c1.2,3.8,3.4,6.9,6.2,9.6
		c0.6,0.6,1.5,1.4,0.8,2.4c-0.6,0.9-1.6,0.8-2.5,0.2c-3.7-2.5-5.9-6.1-7.3-10.3c1.1,4.4,3.4,7.9,7.3,10.3c0,2.5-2.3,2.3-3.7,3.1
		c-1.5,0.2-2.5-0.7-3.5-1.6c-3.6-3.6-5-8.1-5.8-13C104.2,83,104.2,81.9,105.1,81.1z"/>
	<path fill="#F4F3F5" d="M105.1,81.1c0,5.9,1.8,11.1,5.6,15.6c-3.1,0.9-5.3-0.5-7.1-2.9c0.7-3.4,0.2-4-2.8-3.5c-3-3-3.9-8.4-2-12.1
		c1.7-0.2,3.1,0.3,4.1,1.7C103.4,80.7,104.1,81.1,105.1,81.1z"/>
	<path fill="#814199" d="M99.2,78.2c-1.2,4.3,0.1,8.2,1.6,12.1c-0.7,0.6-1.4,0.6-2.1,0.1c-1.1-2.5-1.6-5.1-1.8-7.8
		c0.3,2.7,0.6,5.4,1.9,7.8c-1.2,1.2-1.2,1.2-2.9-0.7c-1,0.4,1.6,4.8-2.1,2.1c0,0,0,0,0,0c-0.9-3-0.5-6-0.1-9.1
		c0.9-1.6,1.1-3.5,1.4-5.2c1.4-3.2,2.8-1.3,4.1,0c0.2,0.2,0.3,0.3,0.2,0.5C99.4,78.2,99.3,78.2,99.2,78.2z"/>
	<path fill="#2A4B9C" d="M123.5,69.6c-3.2,1.6-5.2,4.9-8.4,6.4c0.1-0.8-1.7-1-0.7-2c0.9-0.7,1.8-1.4,2.8-2.1
		c2.6-2.4,5.5-4.6,8.5-6.6c0.7-1,2.7,0.1,2.8-1.8c0.8,0.7,1.6,1.3,2.7,2.2C128.3,67.3,125.3,67.4,123.5,69.6z"/>
	<path fill="#ED2F30" d="M112,83.2c-0.9-0.7-0.5-1.8-0.6-2.7c1.1-0.5,2-0.3,2.7,0.7c1.4,4.8,4,8.8,8.4,11.4c-0.1,2-0.9,2.4-2.8,1.2
		c-2.8-1.9-4.7-4.6-6.1-7.6C113.2,85.2,113.1,83.9,112,83.2z"/>
	<path fill="#3552A0" d="M99.2,78.2c0-0.3,0-0.5,0-0.8c1.8-1,3.3,0.3,4.6,0.9c1.4,0.7,0,1.2-0.9,1.4
		C101.6,79.5,100.2,79.3,99.2,78.2z"/>
	<path fill="#9EAAD1" d="M125.6,65.3c-2.5,2.6-5.4,4.7-8.5,6.6C119.4,68.9,121.9,66.4,125.6,65.3z"/>
	<path fill="#E3DAE8" d="M93.6,82.7c0,3,0.1,6,0.1,9.1C91.7,88.7,93,85.7,93.6,82.7z"/>
	<path fill="#234598" d="M306.5,101.6c4.3-0.9,7.9-2.9,10-7c0.2-1.5,0.8-2.5,2.6-1.9c0.9,3.6-1.5,5.7-3.8,7.6
		c-2.6,2.3-5.8,3.5-9.8,4.5c7.8-0.6,13-3.6,14.2-11.3c0.5-1.1,1.2-2,2.6-1.2c1.3,4.8-0.5,9.2-4.9,12.1c-5.1,3.2-10.9,3.5-16.6,4.2
		c-2.4-0.3-4.6,0.8-7,0.7c-2.1,0-4.1-0.4-6.1-0.7c-2.1-0.6-4.3-1-6.4-1.8c2.1,0.8,4.3,1.3,6.5,1.8c1,0.3,2.1,0.3,3.1,0.5
		c2.8,0.7,5.5-0.1,8.2-0.5c4.1-0.1,8.2-0.5,12.1-1.6c7.9-2.3,12.2-5.8,11.9-15.2c0.6-0.8,1.1-1.6,2.3-0.8c1,9.1-1.9,14.5-10.4,17.2
		c-12,3.8-24.1,5.5-36.1,0c-1.8-0.8-3.2-2.2-4.9-3.1c-2.3-1.2-2.8-3.9-4.3-5.7c-1.2-1.5,0.7-1.9,2.1-2c4.3,0.7,8,2.9,12,4.3
		c3.9,1.3,8,1.7,12.1,1.2c0.8-0.3,1.7-0.4,2.5-0.7c0.5-0.1,1-0.1,1.5-0.1c0.7,0,1.3,0,2,0c0.8,0,1.6-0.3,2.3-0.5
		C304.9,101.5,305.7,101.1,306.5,101.6z"/>
	<path fill="#814299" d="M270.3,91.1c-0.7,0-1.4-0.1-2.1-0.1c-0.7-1.3,0.1-1.5,1.2-1.8c3.5-0.8,6.9-0.9,10.5-0.9
		c4.8,0.1,9.2,2.1,12,2.3c-2.7,0-6.9-2.4-11.5-2.2c-3.2-0.5-6.3,0-9.4,0.4c-1.1,0.1-2.2,0.8-3.3-0.1c0-2.6,2.7-0.5,3.4-2
		c4.9-2.3,9.9-1.5,14.9-0.6c0.8,0.1,1.6,0.3,2.4,0.5c2.3,0.7,4.7,1,7.1,1.6c0.7,0.6,1.7,0.1,2.4,0.8c1,4.9-0.3,6.1-6.2,5.6
		c-7.7-2-15.5-1.5-23.4-1.1c-0.3-1.6,0.6-2.2,2.1-2c4.8-1,9.5-0.7,13.6-0.3C279.8,90.5,275,91.3,270.3,91.1z"/>
	<path fill="#E0DDDC" d="M325.3,91.1c-0.6,0.2-1.1,0.4-1.7,0.6c-0.5,0.2-0.8,1.1-1.6,0.7c-1.5-0.6-1.5,0.9-2.1,1.5
		c-0.4-0.1-0.3-0.8-0.9-0.7c-1.5-0.6-1.9,0.6-2.6,1.4c-0.9-1.7-4.2,0.7-4.1-2.5c0-0.5,0.1-0.9,0.5-1.2c0.3-0.3,0.6-0.6,1-0.8
		c0.6-0.4,1.1-0.9,1.9-1c1.2,0,2.3-0.5,3.6-0.3c1.3-1.3,0.2-2.6-0.1-3.9c-1.3-6.5-3.9-12.3-8.9-16.9c2,0.6,3.6,1.8,5.5,4.5
		c3,4.1,4.8,8.6,5.6,13.6c0.1,0.7-0.3,2,1.1,1.7c0.9-0.2,0.5-1.1,0.5-1.8c-0.3-4.2-2-7.9-3.5-11.7c2.7,3.2,4.1,7,4.7,11
		c0.2,1.5,0.5,2.4,2.1,1.2C326.1,88.1,327,89.9,325.3,91.1z"/>
	<path fill="#E3D8DA" d="M291.6,94.7c5.3-0.3,6.1-1.1,5.8-5.8c0.1-0.7,0.6-1,1.2-1.3c0.2-1.1-0.1-2.6,1.4-2.7c1.3-0.1,2.4,0.6,2.9,2
		c-0.2,1.4,1,2,1.6,2.9c2.8,4,2.7,8.9-0.4,12.4c-0.5,0.3-0.9,0.8-1.5,0.4c-0.6-1.1,0.1-2.1,0.4-3c1.1-2.8,0.8-5.4-1-8.6
		c2.6,5.9,2,8.9-1.9,11.9c-0.5,0-0.9,0-1.4,0.1c0.1-2.9,2.2-5.4,1.6-8.1c0.1-0.8-0.5-0.4-0.1-0.5c0.1,0,0.2,0.1,0.1,0.3
		c-0.7,1.4,0.6,3.4-1.6,4.2c0.3-2.8-0.8-4.2-3.8-3.7C293.8,95.4,292.6,95.6,291.6,94.7z"/>
	<path fill="#DAD7DA" d="M271.5,97.9c-0.8,0.1-2.5,0.6-1.2,1.2c2.8,1.3,2.1,4.2,3.6,6c-3.2,1.6-4.8,0.4-5.1-3
		c-0.1-0.6-0.4-1.1-0.5-1.7c-0.1-1.5-1.9-3-0.1-4.5c1.7-1.4,3.3-0.3,4.8,0.5C272.8,97.3,271.9,97.4,271.5,97.9z"/>
	<path fill="#E63134" d="M271.5,97.9c-0.6-1.8,0.9-1.1,1.6-1.4c3.8,1.3,7.5,2.5,10.6,5.2C279.4,101.3,275.5,99.3,271.5,97.9z"/>
	<path fill="#ED2C2D" d="M298.7,98.9c1.2-1.3-0.1-3.5,1.7-4.8c1,3.3,0.1,6.2-1.8,8.9c-0.9,0-1.9,0-2.8-0.1
		C296.9,101.8,298.6,100.9,298.7,98.9z"/>
	<path fill="#F3EB3E" d="M314.2,91c-0.4,0-0.9,0-1.3,0c-1.4-7.2-7.3-11-12.2-15.6c-0.6-0.6-1.3-0.9-2-1.4c2.2-1.1,4.4-2.4,7-2.7
		c5,1.6,8.2,5.3,10.6,9.8c1.3,2.5,2.4,5.1,3,7.9c-1.2,0.6-2.3,1.6-3.7,0.8c-0.7-0.8-0.8-1.8-1.5-3.1C314.8,88.4,315.1,89.7,314.2,91
		z"/>
	<path fill="#2A4A9B" d="M300.1,64.7c0.8,0.8,1.5,1.7,2.4,2.6c-2.7,0.9-5.5,1.4-7.5,3.5c-2.5,2-4.8,4.1-7.4,6
		c-5,3.6-10.3,5.6-16.5,2.8c0.1-1.7,1-1.4,2.1-1c3.4,1.1,6.6,0.7,9.7-1.1c1.3-1.7,3.4-2.2,5-3.5c0.7-0.7,1.4-1.4,2.1-2.1
		c2-1.9,4.4-3.3,6.4-5.2C297.5,65.7,299.5,66.6,300.1,64.7z"/>
	<path fill="#864B9D" d="M298.5,87.6c-0.3,0.5-0.5,1.1-1.2,1.3c-0.5,0-1.2,0.7-1.6-0.2c-2.2-0.2-4.2-1-6.3-1.4
		c-6.3-2.3-12.7-1.6-19.1-1.1c-0.9,0-2,1-2.8,0.1c-0.5-0.6,0.3-1.1,0.8-1.6C278.8,81.5,288.7,84.3,298.5,87.6z"/>
	<path fill="#EC2C2D" d="M304,102.3c1.9-4.7,2.8-9.3-1.5-13.3c-0.7-0.7-0.6-1.5,0.3-2c5,4,5.1,9.2,3.6,14.7
		C305.7,102.3,304.9,102.4,304,102.3z"/>
	<path fill="#F3F2F0" d="M316.2,81.1c-3-3.8-6.7-7-10.6-9.8c0.6-0.9,0.4-1.6-0.4-2.4c-1.1-1-0.2-1.2,0.7-1.4
		C311.6,70.3,314.4,75.3,316.2,81.1z"/>
	<path fill="#9FABD1" d="M296.5,66.7c-0.7,1.5-3.4,3.7-6.4,5.2C291.6,69.4,293.9,67.8,296.5,66.7z"/>
	<path fill="#A5AFD4" d="M288,74c-1.3,1.6-3.1,2.7-5,3.5c-0.3-0.2-0.5-0.5-0.8-0.7C284,75.6,285.8,74.4,288,74z"/>
	<path fill="#9CA8D0" d="M283.7,73.9c-0.3-0.3-0.5-0.5-0.8-0.8c1.4-0.7,2.7-1.4,4.8-2.5C286.5,72.8,285.1,73.4,283.7,73.9z"/>
	<path fill="#E8E2ED" d="M270.3,86.3c6.6-2,13.2-1.6,19.7,0.6c0,1.2-0.6,1-1.3,0.6c-5.8-1.4-11.7-1.4-17.7-0.8
		C270.8,86.6,270.5,86.4,270.3,86.3z"/>
	<path fill="#E8E1ED" d="M270.3,91.1c5-1.1,10-1.4,14.9,0.5c-5,0-9.9,0-14.9,0C270.3,91.4,270.3,91.3,270.3,91.1z"/>
	<path fill="#AA80B9" d="M267.6,88.7c3.1-0.3,6.2-0.7,9.3-1c1.1-0.1,2.3-0.6,3.2,0.5c0,0.2,0.1,0.3,0.1,0.5c-3.5,0.3-7.1,0-10.5,0.9
		c-0.9,0.2-1.6,0.4-1.6,1.4C267.2,90.4,267.6,89.5,267.6,88.7z"/>
	<path fill="#F3EA3F" d="M472.4,71.2c1.9-0.2,3.7-0.5,5.6-0.7c2.7,2.7,4.1,6.2,6.4,9.1c1.1,1.4,2,2.9,3.6,3.8
		c0.9,0.7,1.7,1.5,2.2,2.5c1.2,0.9,2.5,1.6,4,1.7c0.4,0.2,0.5,0.5,0.2,0.8c-1,0.9-2.1,1.3-3.4,0.9c-4-2.3-7.3-5.3-10.1-9
		c-1.4-1.8-2.2-3.9-3.5-5.8c1.2,2,2.1,4.1,3.6,6c2.2,2.7,4.6,5.2,7.5,7.3c0.6,0.4,2.7,0.7,1.1,2.4c-3.2,1.3-6.5,1.5-9.9,0.4
		c-1.3-0.4-2.7-0.8-3-2.5c-4.9-4.3-7.3-9.6-6.6-16.1c0,0,0.1,0.1,0.1,0.1c2.1-1,1.7,0.9,1.9,1.8c0.7,2.8,0.6,5.8,2,8
		C473,78.5,471.9,75,472.4,71.2z"/>
	<path fill="#9E877A" d="M462.2,104.5c-3.8-1.3-7.8-1.6-11.8-1.4c-1.4,0.4-2.9,0.6-3.6-1.1c-0.6-1.5-0.6-2.9,1.6-2.9
		c2.5,0,5-0.1,7.5,0c-2.7-0.1-5.4-0.1-8.1-0.1c-0.8,0-1.8,0.1-1.9-1c-0.1-1,0.8-1.2,1.7-1.5c1.5-0.5,3-0.2,4.6-0.3
		c-1.6,0-3.2,0.1-4.8,0.2c-1.2,0.1-2.6,0-1.9-1.9c4.1-0.6,8.1,0.1,12.1,0.7c3.6-0.8,6.4,1.2,9.3,2.8c0.7,0.2,1.3,0.5,2,0.7
		c1.6,0.5,2.4,1.4,1.6,3c-0.8,1.6-0.9,3.6-2.9,4.5C465.4,106.5,463.9,105.1,462.2,104.5z"/>
	<path fill="#F16826" d="M466.8,98.1c-3.1-0.9-6.2-1.9-9.3-2.8c-0.1-1.1,0.1-2.4-0.7-3.4c-0.4-0.3-0.6-0.7-0.5-1.2
		c0.9-0.6,0-1.1-0.1-1.7c-0.1-0.4-0.2-0.9-0.1-1.3c0-0.3,0.1-0.6,0.2-0.9c0.2-0.6,0.6-1,0.9-1.5c0-0.5,0.1-0.9,0.1-1.4
		c-0.3-0.5-0.3-1,0-1.6c0.3-1.4,0.5-2.8,0.8-4.1c0.3,0,0.7,0,1,0c3.1,0.3,4.6,1.6,3.2,4.8c-0.6,2.7-0.4,5.5-0.3,8.2
		c0.2,0.5,0.9-0.1,0.4,0.1c-0.2,0.1-0.3,0-0.3-0.1c-0.2-2.7-0.8-5.5,0.8-8.1c1.1-3.3,1.1-3.3,2.9-2.8c-0.4,1.2-0.8,2.3-1.2,3.5
		c0.4,0.7,0.6,1.4,0.5,2.2c-0.9,2.3,0.2,4.9-0.6,7.2C464.8,95.2,466,96.5,466.8,98.1z"/>
	<path fill="#43B64C" d="M496.8,87.6c3.4,0.4,4.6,3,5.3,5.7c0.8,2.9-0.4,5.8-1.3,8.5c-0.2,0.6-0.9,1.4-1.4,1.5
		c-4.2,0.4-6.7,4.2-10.7,4.9c-0.9,0.2-2.5,0.5-2.2-0.7c0.3-1.4,0.1-3.3,1.7-4.2c1.5-0.9,3.3-1.1,5.1-2c-5.4,1.4-5.4,1.4-5.6-1.3
		c1.3-1.8,3.2-1.9,5.2-2.1c1.1-0.1,2.6,0.5,3.3-1.1c0.7-1.7-0.4-4,1.6-5.4c0.9-0.7-0.3-0.7-0.4-1C496.8,89.5,496,88.7,496.8,87.6z"
		/>
	<path fill="#EA262A" d="M481.6,106.7c-4.1-2.8-5.7-7.4-8.1-11.3c-1-1.7,1-4.9,2.1-7.3c2.7,1.5,3.6,4.4,5,6.9c1,2.3,3,3.9,4.2,6.1
		c0.2,0.9,0,2-0.6,2.2c-1.7,0.5-2,0.9-1,2.5C483.6,106.4,482.6,107.3,481.6,106.7z"/>
	<path fill="#244698" d="M480.3,95.6c-1.5-2.5-3.1-5-4.6-7.5c0.4,0,0.8-0.1,1.2-0.1c4.2,2.9,8.8,2.7,13.5,1.3
		c0.2-0.3,0.3-0.6,0.8-0.4c1-0.2,2-0.5,3-0.7c0.7,0.3,0.7,0.8,0.6,1.4c-2.5,2.1-5.4,2.5-7.8,2.5c2.2,1,4.8-1.6,7.6-1.1
		c0.3,0.5,0.3,1.1,0.1,1.6c-2.4,2.1-5.4,1.4-8.4,1.6c3,0.3,5.6-0.6,8.4-0.4c0.6,2.1-0.8,2.6-2.4,3c-1.1,0.2-2.3,0.2-3.4,0.5
		C485.9,96.8,482.8,97.7,480.3,95.6z"/>
	<path fill="#DEDEDB" d="M481.6,106.7c0.9-0.1,1.9-0.3,1-1.5c-0.6-0.8-1.5-1.2-2.3-2.1c2.4,0.9,4.2,1,4.2-2.2
		c0.9-1.6,2.1-1.8,3.5-0.7c0.2,0.7-1.4,3.2,1.4,1.4c0.1-0.1,0.2-0.1,0.3-0.2c1.8-0.9,4.9-2,5.4-0.5c0.7,2.3-2.5,1.3-3.9,2.1
		c-1.6,0.9-3.9,0.7-3.8,3.5c0,1.2-0.4,1.2,1.4,1.7C486.1,108.5,483.2,110.4,481.6,106.7z"/>
	<path fill="#DFDDDD" d="M445.4,94.6c0.1,1.9,1.6,1.3,2.6,1.3c1.5,0,3,0,4.5,0.2c-2,1-4.4,0.2-7.2,2.3c4.4,0,7.9,0,11.4,0
		c0,0.3,0,0.6,0,1c-3.2,0-6.4,0-9.6,0c-0.1,2.5,0.7,4,3.2,3.7c-0.1,0.1-0.2,0.2-0.3,0.2c-2,0.1-4.5,2.6-5.4,1.3
		c-1.6-2.2-2.3-5.4-2.6-8.3C441.9,94.8,443.4,93.6,445.4,94.6z"/>
	<path fill="#86499A" d="M464.7,93.3c-0.8-2.4-1.4-4.8,0-7.3c2.6,0.1,5.2,0.6,7.7,1.4C471.8,93.9,471.5,94,464.7,93.3z"/>
	<path fill="#DDDBDB" d="M467.4,105.9c0.8-1.5,1.4-3.1,2.3-4.6c0.8-1.3-0.1-1.9-0.9-2.5c1.1,0.1,2.2-0.1,3.2,0.2
		c2.1,0.6,3.1,1.7,1.6,3.8c-0.9,1.2-1.7,2.6-2.4,3.9c-1.4,2.7-3.1,2.9-5.1,0.7C466.1,106.6,466.8,106.4,467.4,105.9z"/>
	<path fill="#DBDBD8" d="M494.1,92.5c0-0.5,0-0.9,0-1.4c-0.3-0.5-0.1-1,0-1.5c0-0.5-0.1-1-0.1-1.5c0.1-0.2,0.1-0.4,0.1-0.6
		c0.9,0,1.8,0,2.6,0c0,2,2.3,2.5,2.7,4.2c-4.2,0-1,3.5-2.3,4.8c-2.9,1.5-5.7,1.7-8.6-0.1c1.1-0.2,2.3-0.4,3.4-0.6
		c1.2-0.2,2.4-0.3,2.1-2C493.9,93.5,494,93,494.1,92.5z"/>
	<path fill="#DBD7D4" d="M490.1,85.9c-0.9-0.3-1.7-0.8-2.2-1.8c-0.2-0.3-0.4-0.6-0.6-0.8c-1.4-1.5-2.3-3.2-0.5-4.9
		c1.7-1.5,3.4-0.9,4.9,0.6c-0.6,0.6-1.9,0.5-1.5,2c0.6,2.2,2.5,1.1,3.8,1.7c-0.8,1-2,0.1-2.9,0.9c0.5,1.8,2.1,0.9,3.2,1.2
		C493.1,86.1,491.3,84.7,490.1,85.9z"/>
	<path fill="#804098" d="M456.8,90.4c0,0.5,0,1,0,1.6c-4.5,0.2-9,0.4-13.6,0.6c-0.7-0.3-0.8-0.8-0.6-1.5c2.6-2.1,5.8-0.3,8.6-1.5
		C453.2,89.4,455.2,88.8,456.8,90.4z"/>
	<path fill="#864B9D" d="M472.3,87.5c-2.7,0.5-5.3,0-7.7-1.4c0.1-0.7,0.1-1.5,0.2-2.2c2.1,0.7,4.1,1.4,6.2,2.1
		C471.8,86.2,472.5,86.4,472.3,87.5z"/>
	<path fill="#2A4A9C" d="M466.7,69.4c0.4-0.2,0.8-0.6,1.2-0.1c0.5,0.7-0.1,1.3-0.4,1.9c-1.3,1.1-2.5,2.2-3.8,3.3
		c-0.9,0-2.6,1.4-2-1.1c0.2-0.2,0.5-0.5,0.7-0.7C464.1,71.8,464.8,69.8,466.7,69.4z"/>
	<path fill="#E96D30" d="M467.4,105.9c0.1,1-0.4,1.5-1.4,1.6c-1.4-0.8-3-1.5-3.8-3C464,104.4,465.7,105.3,467.4,105.9z"/>
	<path fill="#F5F6F6" d="M491.7,79.1c-0.6-0.1-1.2-0.1-1.7-0.3c-1-0.3-2-0.9-2.9,0.2c-0.9,1.1-0.6,2.2,0.2,3.2
		c0.5,0.6,0.7,1.2,0.6,1.9c-4.7-3.5-7.5-8.4-9.9-13.6c1.2-0.8,0.2-1.6-0.1-2.4c-0.3-0.8-0.2-1.4,0.6-1.7c0.8-0.3,1.5,0,1.5,0.9
		c0,1.3,1,2.1,1.4,3.1c1.6,4.2,2.2,4.4,5.8,1.6c4.3-0.2,6.1,0.9,6.4,4C493.7,77.5,493.6,78.9,491.7,79.1z"/>
	<path fill="#C0AA99" d="M492.4,70.2c2.9,1.7,3.1,2.1,3.1,6.1c-0.6-2.7-1.8-4.3-3.4-5.7C492.2,70.5,492.3,70.3,492.4,70.2z"/>
	<path fill="#C0AA99" d="M487.2,70.3c0-0.2,0-0.4,0.1-0.6c1.9-1.2,3.5-0.4,5.1,0.5c-0.1,0.1-0.2,0.2-0.3,0.4
		C490.4,70.5,488.8,70.4,487.2,70.3z"/>
	<path fill="#304E9D" d="M457.5,78.3c-3.7,1.8-7.5,1.8-11.3,0.6c-1-1.3-1.1-2.5,1-1.6c3.2,1.3,6.2,0.9,9.2-0.5
		C459.4,75.4,457.4,77.6,457.5,78.3z"/>
	<path fill="#C1676E" d="M463.1,83.2c-1,2.8-0.2,5.8-1.1,9.5c-0.2-3.8-0.9-6.7,0.5-9.5C462.7,83.2,462.9,83.3,463.1,83.2z"/>
	<path fill="#8B99C8" d="M466.7,69.4c-1.3,1.3-2.3,2.8-4.3,3.2c1.2-1.7,2.6-3.1,4.4-4.2C466.7,68.7,466.7,69,466.7,69.4z"/>
	<path fill="#F5F2C0" d="M472.4,71.2c0.8,4.2,0.9,8.6,3.3,12.3c-3.2-2.3-3.3-5.8-3.9-9.1c-0.2-1,0.5-2.6-1.5-2.4
		C470.7,70.9,471.6,71.1,472.4,71.2z"/>
	<path fill="#84469B" d="M457.4,82.4c0,0.5,0,1,0,1.6c-4.3-0.2-8.6-0.3-12.8,1.1c-1,0.3-2.7,1.2-2.7-1.2
		C446.9,82.8,452.1,81.7,457.4,82.4z"/>
	<path fill="#84479B" d="M456.8,87.5c0,0.6,0,1.2,0,1.8c-3.8,0.2-7.5,0.9-11.3,1c-1-0.1-1.9,0.2-2.9,0c-1-2.8-0.7-4.3,2.9-4.6
		c3.9-0.3,7.8-0.4,11.6-0.3c0.1,0.5,0.2,1-0.2,1.5c-2.8,0.5-5.6,0.2-7.7,0.2C451.2,87.6,454.1,86.6,456.8,87.5z"/>
	<path fill="#A87FB8" d="M442.6,90.3c0.7-0.2,1.4-0.8,2.2-0.6c2,1,4.4-0.8,6.3,0.7c-2.8,1.1-5.7,0.2-8.5,0.7
		C442.7,90.8,442.6,90.5,442.6,90.3z"/>
	<path fill="#224498" d="M372.7,102.2c3.5,1,7,1.6,10.7,1.3c1.3,0.1,2.2-0.9,3.4-1c0.3-0.1,0.7-0.1,1-0.2c0.7-0.1,1.3-0.1,2-0.1
		c0.8,0,1.6-0.1,2.3-0.4c0.6-0.2,1.2-0.3,1.8-0.4c3-0.7,5.6-2,7.6-4.4c1.2-1.1,1.9-2.7,3.1-3.8c0.9-0.6,1.6-0.5,2.1,0.6
		c0.3,1.7-0.7,3-1.4,4.5c-2.6,3.6-6.7,4.9-10.7,6.8c5.3-0.6,9.4-2.5,11.4-7.5c0.5-1.3,1-2.7,1-4.2c1.7-2.3,2.4-0.9,2.8,0.8
		c0.8,3.5-1.3,8.1-4.7,10.3c-4.8,3.1-10.2,4-15.7,4.3c-1.7,0.3-3.4,0.2-5.1,0.5c-3.6,0.1-7.3,0.4-10.8-0.8c-1.5-0.4-3-0.8-4.6-1.4
		c1.3,0.7,2.6,0.8,3.8,1.3c1.6,0.2,3.1,0.8,4.7,1c2.9,0.3,5.7-0.1,8.6-0.1c5.3-0.3,10.5-0.9,15.5-2.8c5.3-2,8.5-5.6,8.7-11.5
		c0-1.3-0.6-3.7,2.3-3.1c1.2,9.6-2.5,15-13,17.7c-10.7,2.8-21.5,3.9-32.1-0.7c-0.8-0.4-1.6-0.8-2.5-1.2c-1.1-1.6-2.9-2.3-4.1-3.7
		c-0.8-1.3-1.8-2.5-2.7-3.7c-1.1-1.4-0.6-2.4,1.2-2.6C364.2,98.5,368.3,100.7,372.7,102.2z"/>
	<path fill="#F3EB3C" d="M404.7,93.8c-0.7,1.3-1,3-2.5,3.8c-3.2,0.6-5.1-1.8-7.3-3.2c-1.6-2.2-3-4.4-4.7-6.4
		c-0.6-0.9-1.2-1.7-1.8-2.6c-2.3-3.8-3.5-7.8-2.6-12.3c1.8-0.8,3.6-1.7,5.6-0.4c3,7,6.9,13.2,14.4,16.2c0.4,1.2-0.6,1.7-1.3,2.3
		C403.4,92.2,403.2,93,404.7,93.8z"/>
	<path fill="#814199" d="M366.7,94c-3.3,0-6.5,0-9.8,0c0-0.4,0-0.9,0-1.3c5.6-0.3,11.2-0.8,16.9-0.5c-4.3-1.9-8.7-1.4-13.1-0.8
		c-1.3,0.2-2.5,0.6-3.8,0.3c-0.7-1.3,0.1-1.5,1.1-1.7c4.9-1.1,9.8-1.4,14.8-0.4c2.9,0.9,6,1.2,9,1.9c-2.7-0.5-5.4-1.1-8-1.7
		c-4.8-1.4-9.7-1-14.6-0.2c-1.2,0.2-2.3,0.6-3-0.8c0.4-1.4,2.2-0.1,2.6-1.4c3.5-1.4,7.1-1.8,10.8-1.3c1.5,0.2,3,0.3,4.5,0.5
		c2.1,0.6,4.2,0.8,6.3,1.5c2.1,0.8,4.9,0.3,5.7,3.4c0.1,1.5-0.2,2.8-1.5,3.7C378.4,95.9,372.7,93,366.7,94z"/>
	<path fill="#DFDFE3" d="M404.7,93.8c-0.9-0.3-1.9-0.7-2.8-1c2,0.1,0.6-3,2.7-2.8c0.5,0.1,1-0.4,1.1-1.1c1.7,0.6,3.2-0.2,4.7-0.5
		c0.9-0.2,2-0.5,2.6,0.3c0.8,1,0.7,2.2-0.3,3.1c-1.8-0.2-1.4,1.1-1.4,2.1c-0.3,7.7-3.1,11.4-10.5,13.5c-4.6,1.4-9.3,2.4-14.2,2.5
		c0.1-1.6,1.6-1.1,2.4-1.7c4.3-0.6,8.7-0.8,12.7-2.5c5.5-2.4,8.1-6.4,7.6-11.9c-0.1-0.6,0.1-1.3-0.7-1.3c-0.8,0-0.7,0.7-0.9,1.2
		c-0.4,0.5-0.8,0.6-1.1-0.1C405.8,92.6,405.2,93.1,404.7,93.8z"/>
	<path fill="#E2D7D9" d="M384.4,95.2c0.3-1.1,0.5-2.3,0.8-3.4c0.7-1.6,0.5-3.1-0.8-4.3c1-0.1,2.2,0,2.2-1.5c0.3-0.6,0.7-1,1.4-1.1
		c0.5,0,0.9,0.1,1.2,0.6c0.7,0.9,1.4,1.7,2.1,2.6c-0.8,1.3,0.6,1.8,1.1,2.6c1.7,3.1,3.1,6.3,0.6,9.7c-0.9,0.2-1.2-0.4-1.5-1.1
		c-0.1-2.1,0.1-4.2-1.1-6c1.6,4.8,1,7.3-2.5,10c-0.5,0.1-0.9,0.2-1.4,0.3c0.4-2.8,1.9-5.4,1.7-8.2c-0.5,0.1-0.2,1.3-1.1,1.5
		C386.2,96.2,385.3,95.7,384.4,95.2z"/>
	<path fill="#DDDBDD" d="M359.8,98.1c-1,0.1-2.2,1-0.9,1.5c2.1,0.9,2,2.8,2.9,4.3c0.4,0.6,0.6,1.2,0.1,1.8c-2.6,1.1-4,0.2-4.4-2.5
		c-0.2-1.5-0.7-2.9-1.2-4.4c-0.3-1-0.4-1.9,0.6-2.5c1-0.6,2-0.6,2.7,0.5C360,97.2,360.1,97.6,359.8,98.1z"/>
	<path fill="#DBDADA" d="M391.3,72.7c-1.8,0.2-3.6,0.5-5.4,0.7c-0.5,0.4-1.1,0.7-1.7,0.7c-0.2,0-0.3,0-0.5,0
		c-0.8-0.3-1.6-0.6-2.4-0.9c-0.4-0.6-0.4-1.3-0.1-1.9c0.3-0.5,0.7-0.8,1.2-0.9c2.3,0.7,4.2-1.1,6.3-1.1
		C389.8,70.2,392.6,69.9,391.3,72.7z"/>
	<path fill="#E53939" d="M359.8,98.1c0-0.4-0.1-0.8-0.1-1.2c4.9,0.3,9,2.9,13,5.3C368.2,101.6,363.9,100,359.8,98.1z"/>
	<path fill="#E62C31" d="M387.1,96.7c0.3-0.7,0.7-1.5,1.2-2.6c1.1,3.7,0.4,6.6-1.7,9.3c-1,0.4-2.1,0.3-3.1,0
		C385.7,101.8,387.5,99.8,387.1,96.7z"/>
	<path fill="#CC4251" d="M361.9,105.7c0-0.6-0.1-1.2-0.1-1.8c1.2,1.1,3,1.8,3.4,3.7C364.1,106.9,363,106.3,361.9,105.7z"/>
	<path fill="#864A9D" d="M384.4,87.5c2.6,1,1.7,2.6,0.8,4.3c-0.5-3-3.5-1.5-5-2.7c-1.5-1.4-3.5-1.3-5.3-1.8
		c-5.5-1.2-11-1.1-16.5,0.2c-0.7-0.1-1.7,0-2.1-0.5c-0.6-0.6,0.2-1.1,0.7-1.6C366.3,82.7,375.4,84.4,384.4,87.5z"/>
	<path fill="#26489A" d="M381.5,71.2c-0.1,0.6-0.1,1.3-0.2,1.9c-2.1,1.7-4.2,3.4-6.3,5c-4.3,3.3-9.1,4.8-14.5,2.8
		c-0.2-0.5-1.1-0.7-0.6-1.4c0.6-0.9,1.2-0.2,1.8,0c4.2,1.3,8,0.6,11.2-2.6c2.3-1.5,4.7-2.7,6.4-4.9
		C380.1,71.5,380.6,70.8,381.5,71.2z"/>
	<path fill="#F3EB41" d="M387.8,85.2c-0.4,0.3-0.8,0.5-1.2,0.8c-2.7-3.6-3-7.7-2.9-12l0.1,0.1c1.3-0.9,1.6,0,1.7,1
		C386.1,78.5,386.8,81.9,387.8,85.2z"/>
	<path fill="#9DA9CF" d="M381.5,71.2c-0.7,0.3-1.4,0.5-2.1,0.8c0.9-2.1,2.7-2.9,4.8-4c-0.1,1.6-1.4,1.6-1.9,2.3
		C382.1,70.6,381.8,70.9,381.5,71.2z"/>
	<path fill="#AB82B9" d="M373.2,90.1c-5.1-0.9-10.1-0.9-15.1,0.2c-0.8,0.2-1.2,0.5-1.2,1.3c-1.1-0.7-0.6-1.8-0.7-2.8
		c2.9,1.3,5.7-0.1,8.5-0.4c3.2-0.4,6.2,0.1,9.2,1.1C373.7,89.8,373.5,90,373.2,90.1z"/>
	<path fill="#EDE9F1" d="M358.4,87.5c5.7-2.4,11.6-1.9,17.4-0.6c0,1.4-0.8,0.8-1.5,0.7c-5.2-1-10.4-0.4-15.6-0.2
		C358.7,87.4,358.4,87.5,358.4,87.5z"/>
	<path fill="#234497" d="M233.4,97.7c0.1-0.3,0.2-0.6,0.3-1c0.3-0.9-1.2-2.7,0.1-2.6c1.7,0.2,3.8-2.8,5.2,0.4
		c1.2,6.7-3.2,10.2-8.2,12.4c-8.3,3.8-17.2,5.6-26.4,5.3c-6.3-0.2-11.4-3.2-16.1-7.2c-1.9-1.7-3.9-3.3-5.9-5
		c-0.8-2.3,0.9-2.3,2.3-2.5c2.1,1,3.9,2.3,5.6,3.7c0.7,1,1.6,1.7,2.8,2.2c6.5,3.3,13.4,3.1,20.4,2.8c1.6-0.3,3.1-0.5,4.7-0.9
		c1.6-0.4,3.2-0.6,4.7-1.4c0.8-0.8,2.1,0.2,2.9-0.7C228.7,101.9,231.9,100.9,233.4,97.7z"/>
	<path fill="#DED8DA" d="M185.2,98.1c-1,0.5-3-0.2-2.7,2c-2.4-0.3-3.4-1.6-3-4c0.9,0,1.7-0.2,1.3-1.4c-1.1-3.1-0.6-6.2,0-9.3
		c1.5,1.1,1.2,2.8,1,4.2c-0.5,3.3,1.6,3.2,3.7,3.2c1,0,1.9-0.8,3-0.9c2.8,0.1,3.4,1.8,3,4.1c0,0.7-2.2,1.3,0.1,2
		c1.4,0.4,2.8,1,3.8,2.3c0.1,0.3,0,0.7-0.3,0.9c-2.3,1.1-4.2-0.2-6.2-1.1C187.6,99.4,186.6,98.4,185.2,98.1z"/>
	<path fill="#EC2328" d="M227.8,92.4c0,1.4,0.1,2.8,0.1,4.1c0.6,0.9,0.8,1.8,0.5,2.9c-1.3,3-4.2,3.3-6.9,3.7c-1.1-0.3-3.1,0-1.8-2.3
		c2.9-1.2,6.5-1.7,6-6.2c-0.3-4.4-2.6-8-4.9-11.6c2.5,4.2,5.3,8.3,4.8,13.6c-2.8,4.6-10.1,6-13.5,2.7c1-2.2,3.2-1.3,4.9-1.8
		c3.3-1.2,4.1-2.1,3.9-5.4c0.3,4.4-3.9,6.7-10.2,5.5c-0.6-0.5-1-1-0.7-1.8c1.2-1,2.7-0.7,4-1c3.4-0.8,4.1-2.3,2.4-5.3
		c-2.6-4.5-7-6.2-12.7-5.1c-1.9,0.4-3.6,1.9-5.7,1c-1.8-1.7-3.6-3.4-5.4-5.1c3.4-2.2,7-3.9,10.7-5.6c2.6-0.7,5.4-0.8,8.1-0.8
		c4.9,0.1,8.4,2.5,10.8,6.8C224.1,84.6,226.5,88.3,227.8,92.4z"/>
	<path fill="#92683D" d="M231.5,81.7c0.6,2.3,1.3,4.6,1.8,7c0.3,1.4,0.1,2.7-1.9,1.7c-0.4-7.7-3.1-14.3-8.9-19.5
		C227.6,72.7,229.9,77,231.5,81.7z"/>
	<path fill="#F6F7EF" d="M229.9,91.7c-0.5,0.2-1.1,0.5-1.6,0.7c0.6-4.2-1.2-7.8-3.2-11.2c-1.5-2.7-3.2-5.3-5-8.5
		C225.4,74.8,228.3,80.6,229.9,91.7z"/>
	<path fill="#F6EFEE" d="M222.1,80.8c-2.8-2.9-5.8-5.5-10-6.2c-1.3-0.9-3.2,0.7-4.2-1c3.4-0.3,7-0.2,9.8-2.7c0.3,2.5,1.9,4.4,3,6.5
		C221.2,78.5,222.4,79.3,222.1,80.8z"/>
	<path fill="#976E43" d="M239.8,87.8c-2.9,2.3-1.6-1-2.3-1.7c-1.4-1.9-1.7-4.4-2.8-6.4c-0.5-1.1-0.8-2.2-2-2.8c-2-1.1-3-3.3-5.5-5.3
		c3.8,0.8,5.9,2.5,7.7,4.6C237.7,79.6,238.7,83.7,239.8,87.8z"/>
	<path fill="#D6C8BC" d="M232.7,76.9c2.4,0,2.3,2.3,3,3.6c0.9,1.7,1.2,3.7,1.8,5.6c-0.2,0.5-0.4,1-0.6,1.5
		C235.5,84,234.1,80.4,232.7,76.9z"/>
	<path fill="#DCE0EC" d="M215,69.4c-7.8,0.7-15.6,2.1-23.1,4.6C198.8,68.5,206.8,68.7,215,69.4z"/>
	<path fill="#B8C1DC" d="M196.1,68.8c5.7-2.4,11.4-3.7,17.4-1.6C207.7,67.4,201.9,67.4,196.1,68.8z"/>
	<path fill="#D6A0AE" d="M207.8,73.5c1.3,0.8,3-0.2,4.2,1c-2.9,0.1-5.9,0.1-8.8,0.2C204.6,73.7,206.2,73.8,207.8,73.5z"/>
	<path fill="#F6F7F7" d="M197.9,85.4c2.6-1,5.2-2.1,8.1-2.3c5.3-0.3,10.4,2.9,12.2,7.8c0.8,2.1,0.2,3.4-1.8,4.2
		c-2,0.7-4.1,0.8-6.3,0.9c-1.7,0-2.9,0.2-1.6,2.4c0.6,1,1,2.2-0.4,3c-6,0.9-11.4-1.2-16.6-3.8c-0.4-0.2-0.6-0.7-0.6-1.2
		c0-2.1,0.3-4.3-2.9-4c-2.9-2.3-3.7-5.9-1.9-9.2c2.2,0.7,3.6,2.4,5.4,3.7c1.7,1.3,3.3,2.7,4.9-0.2C196.6,86.2,197.4,85.9,197.9,85.4
		z"/>
	<path fill="#82439A" d="M186,83.2c-0.2,3.3,0.2,6.4,1.9,9.2c-1.4,0.6-2.3,2.6-4.4,0.6c-0.8-0.8,0.3,2-1.7,2
		c-1.8-2.9-0.7-6.4-1.1-9.7c1.5-1.4,0.8-3.4,1.6-5c0-1,0.3-1.6,1.4-1.3c0.8,0.3,1.3,0.5,0.5,1.6C183.4,82.2,185.8,82.1,186,83.2z"/>
	<path fill="#46488F" d="M221.7,102.4c2.3-0.2,4.3-1.1,6.1-2.6c1.1-1.9,2.5-3.5,4-5.1c2.1,2-0.8,3.1-0.9,4.7
		c-0.4,3.2-3.9,2.8-5.4,4.7c-0.7,0.1-1.5,0.2-2.2,0.3c-1.7,0.4-3.4,1-5.2,0.4c-0.5-1.6-0.5-1.6,1.9-2
		C220.7,102.8,221.2,102.6,221.7,102.4z"/>
	<path fill="#DB5B3B" d="M231.8,94.7c-0.6,2.2-2,3.9-4,5.1c0-1.1,0.1-2.2,0.1-3.2C229.5,96.6,230.1,94.4,231.8,94.7z"/>
	<path fill="#D05F47" d="M225.6,104.2c1.2-2.3,4.1-2.6,5.4-4.7c1.2,0,1.6-1.3,2.5-1.7C232.6,102,228.8,102.8,225.6,104.2z"/>
	<path fill="#E1D8D8" d="M112,83.2c0.5,0.5,1.2,0.8,1.4,1.4c1.5,3.4,3.6,6.3,6.6,8.5c1,0.7,2.2,1.9,2.5-0.6c4.9,2.7,4.9,2.7-0.5,6.2
		c-0.3,0.8-1,1.1-1.7,1.5c-0.7,0.4-1.2,0.9-1.9,1.2c-1,0.4-2,0.7-3.1,0.7c-0.3-0.1-0.5-0.3-0.8-0.4c-1.9-1.2-4.7-0.7-6-3
		c0-0.2,0-0.4,0-0.5c1.6-1.7,3.3,1,4.9-0.1c0.5-1.8,3.2-0.5,3.5-2.6c-0.1-0.4,0-0.5,0.4-0.4c0.8,0.2,1.6,0.6,2.4-0.3
		C116.2,91.6,113.2,88,112,83.2z"/>
	<path fill="#E25D38" d="M115.4,102.1c0.9-0.6,1.8-1.3,3-1.3c1.7-1,3.5-0.2,5.2-0.1c2.8,0,5.4,1.1,8.2,0.7c1.8,0.1,3.6-0.1,5.4,0.3
		c0.4,0.1,0.7,0.4,1,0.7c-2.1,1.5-4.7,1.3-7.1,2c-0.9-0.6-2,0.2-2.9-0.4C124,103.3,119.7,102.7,115.4,102.1z"/>
	<path fill="#B4B6D2" d="M128.3,103.9c1,0,2-0.2,2.9,0.4c-8.7,2.1-17.1,2-25.1-2.5C113.4,103.5,120.8,104.8,128.3,103.9z"/>
	<path fill="#D1D4E3" d="M130.1,106.5c3.5-0.9,7-1.8,10.4-2.8c3.5-1.1,6.6-2.9,9.1-5.6c0.6,0.6,0.4,1.2,0.2,1.9
		c-4.8,4.2-10.6,5.9-16.6,7.1C132.2,106.7,131,107.5,130.1,106.5z"/>
	<path fill="#E85D34" d="M108.6,98.7c2.1,0.8,4.5,1.1,6,3c-6-0.8-12-1.3-16.6-6c1.2-1.1,2.1-0.2,3,0.5
		C103.3,97.7,105.8,98.7,108.6,98.7z"/>
	<path fill="#D8D8E5" d="M126.3,108.3c-6,1.2-11.8,0.6-17.4-2.1c4.4,0.1,8.6,1.5,13,1.3C123.3,108.2,125.1,106.9,126.3,108.3z"/>
	<path fill="#DC6647" d="M138.3,102.3l-0.3,0l-0.3,0c2.2-2.7,5.2-4,8.1-5.6c1.5,0.1,1.8-1.2,2.7-1.9
		C147.8,98.7,144.1,101.4,138.3,102.3z"/>
	<path fill="#DE603F" d="M126.3,108.3c-1.4-0.5-3.1,0.1-4.4-0.9c2.7-0.3,5.5-0.6,8.2-0.9c1,0.2,2.1,0.3,3.1,0.5
		C131,107.6,128.7,108.2,126.3,108.3z"/>
	<path fill="#E8633B" d="M149.8,99.8c-0.1-0.6-0.1-1.2-0.2-1.9c0.6-1.4,1.3-2.8,1.9-4.2C152.7,96.4,151.7,98.3,149.8,99.8z"/>
	<path fill="#ED6337" d="M120,99.5c0.7-0.3,1.4-0.6,2.1-0.8c5,0.4,10.1,0.8,15-0.6c2.6-0.7,4.8-1.9,6.3-4.2c1.2-0.2,0.9-3.6,3.2-1.6
		c-0.9,4.8-5.2,8.4-11.2,9.2c-0.6,0.1-1.2,0-1.7,0c-3.2,0.2-6.5-0.3-9.7-0.4C122.5,100.8,120.8,101.3,120,99.5z"/>
	<path fill="#2F4796" d="M134.1,101.1c5.2-1.4,10.2-3.1,12.4-8.7c1,1.2,1,1.2-0.8,4.4c-2.1,2.7-5.2,4.1-8.1,5.6c-2,0-4.1,0-6.1,0
		C131.9,100.8,133.4,101.6,134.1,101.1z"/>
	<path fill="#F16437" d="M113.5,98.1c-1.6,1.6-3.3,0.3-4.9,0.1c-1.9-0.9-3.8-1.7-5.7-2.6c-0.4-0.2-1.3-0.4-1.1-1.1
		c0.3-0.8,1.2-0.5,1.8-0.6c2.1,1.5,4.5,2.5,7.1,2.9C111.7,97,112.3,98.2,113.5,98.1z"/>
	<path fill="#F6F4C5" d="M140.2,82.7c-2.3-2.5-4.7-5-7-7.4C136.4,76.8,138.6,79.4,140.2,82.7z"/>
	<path fill="#F5DEDD" d="M117,95.5c-5.5-2.4-7.9-6.5-6.9-12.4c1.2,4.8,4,8.5,7.3,12C117.2,95.2,117.1,95.3,117,95.5z"/>
	<path fill="#AB82BA" d="M98.7,90.3c-2.1-2.5-2.2-5.4-1.7-8.5C97.6,84.7,98.1,87.5,98.7,90.3C98.7,90.3,98.7,90.3,98.7,90.3z"/>
	<path fill="#E5E6EF" d="M322,92.4c0.5-0.2,1-0.4,1.6-0.7c1.1,7-1.8,12.3-8.4,14.7c-5.1,1.9-10.4,2.9-15.8,3
		c-0.4-1.5,1.1-0.9,1.6-1.4c2.9-0.4,5.8-0.7,8.7-1.3C318.7,104.8,321.3,101.7,322,92.4z"/>
	<path fill="#EEEFF4" d="M319.1,93.3c1.1-0.9,0.6,0.4,0.9,0.7c-0.3,7.8-5.8,11.8-16.1,11.8c0.4-1.8,2-1.7,3.2-2.1
		C312.4,101.7,317.4,99.4,319.1,93.3z"/>
	<path fill="#EB3232" d="M300,102.9c3.4-3.9,3.2-8.3,1.2-12.9c3.8,3.3,4,6.5,1.4,12.6C301.7,103.1,300.9,103.1,300,102.9z"/>
	<path fill="#E3D1D8" d="M289.5,105.9c-3.6,0.5-6.9-0.4-10.1-2.7c3.8-0.5,6.8,1.6,10,2.1c0.2,0.1,0.3,0.2,0.3,0.4
		C289.6,105.8,289.6,105.9,289.5,105.9z"/>
	<path fill="#D0303F" d="M301,108.1c-0.5,0.5-1.1,0.9-1.6,1.4c-2.8,0.6-5.6,0.9-8.4,0.1c0.8-1,2-0.1,2.9-0.7
		C296.2,108.4,298.5,107.6,301,108.1z"/>
	<path fill="#AEACCC" d="M287.1,109.1c-2.7-0.3-5.3-1.1-7.3-3.1c2.5,0.7,5,1.4,7.5,2.1C287.7,108.5,287.7,108.8,287.1,109.1z"/>
	<path fill="#F4A9AB" d="M289.5,105.9c-0.1-0.2-0.1-0.4-0.1-0.6c2.3,0,4.6,0,7.4,0C294.1,107.2,291.8,105.8,289.5,105.9z"/>
	<path fill="#F39599" d="M287.1,109.1c0.1-0.3,0.1-0.7,0.2-1c2.1,1,4.4,0.6,6.7,0.8c-0.8,0.9-1.9,0.6-2.9,0.7
		C289.7,109.4,288.4,109.2,287.1,109.1z"/>
	<path fill="#C2A7CE" d="M280.3,88.7c0-0.2,0-0.3-0.1-0.5c4.9-0.4,9.4,1.6,14.1,2.4C289.4,91.8,285,88.7,280.3,88.7z"/>
	<path fill="#B796C5" d="M288.7,87.5c0.4-0.2,0.9-0.4,1.3-0.6c1.9,0.6,3.8,1.2,5.7,1.9C293.2,89.1,290.9,88.5,288.7,87.5z"/>
	<path fill="#F5F3C3" d="M314.2,91c0.5-2.1-0.6-4-1.1-6c1.4,1.3,2.2,2.8,2.5,4.7C315.1,90.1,314.6,90.5,314.2,91z"/>
	<path fill="#F6F6EB" d="M483.4,87.2c-4-2.7-7.8-5.5-8-10.9C477.7,80.3,480.7,83.6,483.4,87.2z"/>
	<path fill="#F6F4C4" d="M491.1,88.9c-0.3,0.1-0.5,0.3-0.8,0.4c-3.9-2.1-7.1-5-9.6-8.7c-0.1-0.4,0.1-0.5,0.4-0.4
		C484.1,83.5,487.3,86.5,491.1,88.9z"/>
	<path fill="#F6F5CF" d="M480.7,80.6c-2.1-2.1-3.3-4.6-3.5-7.7c1.3,2.4,2.6,4.8,4,7.2C480.9,80.3,480.8,80.4,480.7,80.6z"/>
	<path fill="#DCCFE3" d="M451.2,90.4c-2.1-0.5-4.3,0.6-6.3-0.7c4-0.3,8-1.4,12-0.4c0.3,0.4,0.4,0.7,0,1.1
		C454.9,90.4,453.1,90.4,451.2,90.4z"/>
	<path fill="#BFA2CB" d="M456.8,87.5c-2.9,0-5.8,0-8.7,0c0-0.2,0-0.4,0-0.6c2.9,0,5.9,0,8.8,0C457,87.1,457,87.3,456.8,87.5z"/>
	<path fill="#E28568" d="M460,79.6c0.5,2-1.1,3.3-0.7,4.8C459,83,458.3,81.4,460,79.6z"/>
	<path fill="#EFEFF1" d="M488.6,96.6c2.9,0,5.7,0.1,8.6,0.1c0.4,2.1-1,2.2-2.5,2.1c-2.4-0.2-4.6,0.1-6.6,1.5c-1.2-0.1-2.4,0-3.5,0.7
		c-1.9-1.4-3.3-3.1-4.2-5.3C483,95.9,485.8,96.3,488.6,96.6z"/>
	<path fill="#B5B87C" d="M494.1,89.6c0,0.5,0,1,0,1.5c-2.8,0.8-5.6,1.9-9.1,0.9C488.5,91.6,491.5,91.1,494.1,89.6z"/>
	<path fill="#A6AD7D" d="M494.1,92.5c0,0.5,0,1,0,1.4c-2.8,0.8-5.6,0.7-8.4,0.3C488.5,93.6,491.6,94.2,494.1,92.5z"/>
	<path fill="#EDEEF3" d="M407,97.9c-2,5-8.3,8.7-13.6,8c-0.4-0.1-1,0-1.1-0.6c-0.2-0.9,0.5-0.8,1.1-1c4.4-1.3,8.4-3.1,11.5-6.5
		C405.6,97.5,406.3,97.4,407,97.9z"/>
	<path fill="#F0F2F4" d="M394.9,93.4c2.2,1.7,4.5,3.4,7.3,4.2c-2,2.6-4.9,3.7-7.9,4.6C393.5,99.1,394.3,96.3,394.9,93.4z"/>
	<path fill="#ED2C2C" d="M394.9,93.4c0.4,3,0.1,5.9-0.6,8.8c-0.8,0.2-1.7,0.4-2.5,0.6c-0.4-1.2,0.1-2,1-2.7
		c1.2-3.9,0.8-7.4-2.2-10.4c-0.8-0.8-0.6-0.9,0.7-1.7C393,89.5,394.1,91.3,394.9,93.4z"/>
	<path fill="#ED3031" d="M388,103.2c1.2-2,2.4-4,2.7-6.4c0.3-2.2-2.4-3.8-1.1-6.5c2.3,2.5,2.7,5.3,2.5,8.3c-0.4,1.5-0.1,3.3-1.7,4.3
		C389.6,103,388.8,103.1,388,103.2z"/>
	<path fill="#D3303C" d="M389,108.2c-0.8,0.6-1.6,1.1-2.4,1.7c-3.1,0.4-6.2,0.6-9.2-0.3c2.4-0.6,4.8-0.8,7.2-1
		C386.1,108.2,387.5,107.9,389,108.2z"/>
	<path fill="#DCA3AF" d="M384.6,108.5c-2.3,1.2-4.8,0.7-7.2,1c-1.6-0.3-3.2-0.6-4.8-0.9c-0.3-0.9,0.1-1.1,0.8-0.8
		C377.1,109.2,380.9,108.3,384.6,108.5z"/>
	<path fill="#A5A3C6" d="M376.6,105.3c2.7,1.7,5.4-0.6,8.1,0c0,0.7-0.5,1-1,1.2c-3.1,0.1-6.2,0.5-9.3-0.4
		C374.8,105.1,376,105.9,376.6,105.3z"/>
	<path fill="#E7D9E0" d="M376.6,105.3c-0.6,0.8-1.5,0.5-2.3,0.8c-2,0.1-3.6-0.8-5.4-1.9C371.9,103,374.1,105.2,376.6,105.3z"/>
	<path fill="#C8C665" d="M407,97.9c-0.7,0-1.4,0-2.1,0c0.6-1.4,1.1-2.8,1.7-4.3c0.4,0,0.8,0.1,1.1,0.1C408,95.2,407.6,96.6,407,97.9
		z"/>
	<path fill="#BB2D49" d="M383.6,106.5c0.3-0.4,0.7-0.8,1-1.2c1.1,0,2.2-0.5,3.4,0.6C386.7,107.1,385.1,106.5,383.6,106.5z"/>
	<path fill="#8E9BC9" d="M373.4,107.9c-0.3,0.3-0.6,0.5-0.9,0.8c-1.8-0.5-3.6-1-5.6-3.1C369.7,106.6,371.5,107.3,373.4,107.9z"/>
	<path fill="#F1B5B5" d="M390.4,102.9c0.6-1.4,1.1-2.9,1.7-4.3c0.2,0.5,0.4,1,0.6,1.5c-0.3,0.9-0.7,1.8-1,2.7
		C391.3,102.8,390.9,102.9,390.4,102.9z"/>
	<path fill="#F6F6E4" d="M388.9,78.7c2.1,3.5,4.7,6.7,7.2,9.9C392.3,86.5,389.4,83.5,388.9,78.7z"/>
	<path fill="#F4F1B9" d="M387.8,85.2c-1.6-2.9-2.2-6.1-2.5-9.3c-0.1-1-0.1-1.9-1.5-1.8c0.5-1,1.3-0.8,2.2-0.7c0.6,4.2,1,8.4,3.3,12
		C388.7,85.3,388.3,85.3,387.8,85.2z"/>
	<path fill="#F5F4C2" d="M390.6,75.6c1.7,2.7,3.3,5.5,5,8.2C392.7,81.8,391.2,79,390.6,75.6z"/>
	<path fill="#C2A6CE" d="M373.2,90.1c0.2-0.2,0.4-0.4,0.7-0.6c3,0,5.6,1.1,9.5,1.8C379.1,92.1,376.2,90.7,373.2,90.1z"/>
	<path fill="#CBB5D6" d="M374.3,87.6c0.5-0.2,1-0.5,1.5-0.7c1.5,0.6,3.5,0.2,4.3,2.2C378.2,88.6,376.3,88.1,374.3,87.6z"/>
	<path fill="#E95C31" d="M217.3,104.5c2,0,4,0,6,0.1c-1.5,1.2-3.3,1.2-5,1.6c-3,0.3-6,0.8-9,0.1c-5.4-0.4-10.6-1.1-15.8-2.7
		c-1.2-0.4-2.4-0.8-3.3-1.8c-1.8-1-3.8-1.7-5-3.6c0.8-0.6,1.5-0.9,2.4,0c2.1,2,4.8,2.6,7.5,3c2.3-0.6,4.4,0.6,6.6,0.5
		c0.3,0.1,0.7,0.1,1,0.2c2.3,0.3,4.5,1,6.8,0.9C212.2,103.1,214.9,103.1,217.3,104.5z"/>
	<path fill="#C8CADE" d="M234.9,102c-4.7,4.1-10.3,5.9-16.4,6.9c-0.9,0.1-1.9,0.7-2.6-0.4c3.9-1.1,7.9-1.8,11.7-3.3
		c2.7-1.1,5.1-2.7,7.1-4.9C235.3,100.8,235.1,101.4,234.9,102z"/>
	<path fill="#2E4998" d="M190.1,101.7c6.3,1.8,12.7,2.9,19.2,3.6c-0.5,1.7-2,1.1-3.1,1.3c-5,0.3-9.6-1.1-14.1-2.8
		C190.9,103.7,190.2,103,190.1,101.7z"/>
	<path fill="#D1CEDD" d="M192.2,103.8c4.7,1,9.3,2.5,14.2,2.3c2.2,0.4,4.4-0.4,6.6,0.2c0.5,0.1,1.2,0,1.1,0.9
		C206.5,107.8,199,108.1,192.2,103.8z"/>
	<path fill="#BABFDA" d="M210.3,110.1c-5.6,1.9-10.7,0-15.6-2.6C199.8,109,205.2,108.8,210.3,110.1L210.3,110.1z"/>
	<path fill="#6B669A" d="M214.1,107.1c-2.4-1.3-5.2,0.1-7.7-1c1-0.3,2.2,0.1,3-0.8c3,0.3,6,0.5,9,0.8
		C217.1,107.1,215.5,106.6,214.1,107.1z"/>
	<path fill="#D6573A" d="M210.3,110.1C210.3,110.1,210.3,110.1,210.3,110.1c1.3-2.4,3.8-0.8,5.6-1.6c0.9,0.1,1.7,0.3,2.6,0.4
		C215.9,110,213.2,110.3,210.3,110.1z"/>
	<path fill="#D56148" d="M234.9,102c-0.1-0.6-0.1-1.2-0.2-1.8c0.2-1.5,0.9-2.7,2.3-4.1C237.6,98.9,236.7,100.6,234.9,102z"/>
	<path fill="#F15F31" d="M190.9,96.5c5.5,3,11.4,4.4,17.7,4.5c0.8,0.5,1.4,1,0.3,1.8c-2.2,0.1-4.5,0-6.7-0.5l0.1,0
		c-2.4-0.7-5.1-0.5-7.2-2.1c-2.3-0.7-4.5-1.7-6.6-3.1C189.1,96.1,190,96.4,190.9,96.5z"/>
	<path fill="#F29B80" d="M195.1,100.3c2.4,0.7,4.9,0.9,7.2,2.1c-2.5,0.1-4.9-0.1-7.1-1.3C195.1,100.8,195.1,100.5,195.1,100.3z"/>
	<path fill="#E6D6D4" d="M209.4,102.3c-0.3-0.5-0.6-0.9-0.8-1.4c-0.3-0.9-0.6-1.7-0.9-2.6c-0.4-1.1-1.9-2.3-0.8-3.4
		c1.3-1.2,2.1,0.8,3.2,1.1c0.2,0.4,0.4,0.9,0.6,1.3c0.4,0.7,2,0.2,1.5,1.7c4.1,2.9,10.3,1.4,12.7-3.1c0.5-0.3-0.1-1.7,1.2-1.4
		c0.2,4.5-0.6,5.4-6.3,6.5c-2.8,1.5-5.8,2.1-8.9,1.9C210.4,103,209.8,102.8,209.4,102.3z"/>
	<path fill="#F5D1CE" d="M212.2,99c-0.5-0.6-1-1.1-1.5-1.7c1,0,2.1,0.1,3.1,0c5.2-0.4,6.8-2.3,6.2-7.4c2.9,4.2,1.8,7-3.1,8.1
		C215.4,98.4,213.8,98.7,212.2,99z"/>
	<path fill="#F4BEBF" d="M226.2,94.6c-0.4,0.5-0.8,0.9-1.2,1.4c0.3-6.1-3.7-10.4-6.2-15.4C223,84.3,224.9,89.3,226.2,94.6z"/>
	<path fill="#F15C2E" d="M210.8,102.5c3.1,0,6-1.6,9.1-1.4c-0.7,2.2,1.2,0.8,1.8,1.3c-0.4,0.2-0.8,0.4-1.1,0.6
		c-3.1,1-6.2,0.9-9.4,0.4C210.6,103.2,210.5,102.9,210.8,102.5z"/>
	<path fill="#F39EA0" d="M218.2,87.2c-2.5-2.4-5-4.8-8.7-5.7C213.1,81,216.2,83.1,218.2,87.2z"/>
	<path fill="#F28E8E" d="M205.8,79.1c-2.5,0.8-4.9,1.6-7.7,2.8C200.7,79.2,201.7,78.8,205.8,79.1z"/>
	<path fill="#DCDBE6" d="M210.8,102.9c3.2,0,6.5,0,9.7,0.1c-0.8,1.2-2.4,0.5-3.2,1.4c-2.6-0.3-5.3-0.5-7.9-0.8
		C209.3,102.4,210.1,102.7,210.8,102.9z"/>
	<path fill="#F2AE99" d="M120,99.5c0.8,1.4,2.7,0.3,3.6,1.4c0.2,0.1,0.3,0.2,0.2,0.3c0,0.1-0.1,0.2-0.1,0.2
		c-1.7-0.2-3.4-0.5-5.1-0.7C118.9,100.2,119.2,99.6,120,99.5z"/>
	<path fill="#DDDDE8" d="M123.6,101.5c0-0.2,0-0.4-0.1-0.5c3.5,0,7.1,0.1,10.6,0.1c-0.5,1.1-1.9,0.3-2.5,1.2
		C128.9,102.6,126.3,101.7,123.6,101.5z"/>
	<path fill="#F29B80" d="M210.8,102.9c-0.5,0.2-0.9,0.5-1.4,0.7c-2.5-0.2-5-0.2-7.3-1.3c2.4,0,4.8,0,7.2,0c0.5,0,0.9,0.1,1.4,0.1
		C210.8,102.6,210.8,102.8,210.8,102.9z"/>
</g>
<g>
	<circle fill="none" stroke="#000000" stroke-miterlimit="10" cx="376.7" cy="203.1" r="18.6"/>
	<line fill="none" stroke="#000000" stroke-miterlimit="10" x1="376" y1="187.6" x2="376" y2="202.1"/>
	<line fill="none" stroke="#000000" stroke-miterlimit="10" x1="376.2" y1="201.4" x2="366.2" y2="210.4"/>
	<circle cx="375.5" cy="201.6" r="1.4"/>
</g>
<g>
	<circle fill="none" stroke="#000000" stroke-miterlimit="10" cx="462.5" cy="203.1" r="18.6"/>
	<line fill="none" stroke="#000000" stroke-miterlimit="10" x1="476.5" y1="204.2" x2="462.5" y2="200.2"/>
	<line fill="none" stroke="#000000" stroke-miterlimit="10" x1="462.3" y1="200.9" x2="460.8" y2="214.2"/>
	<circle cx="462.3" cy="200.2" r="1.4"/>
</g>
<g>
	<circle fill="none" stroke="#000000" stroke-miterlimit="10" cx="290.8" cy="203.1" r="18.6"/>
	<line fill="none" stroke="#000000" stroke-miterlimit="10" x1="299" y1="190.8" x2="290.1" y2="202.3"/>
	<line fill="none" stroke="#000000" stroke-miterlimit="10" x1="290.1" y1="202.1" x2="301.1" y2="209.7"/>
	<circle cx="290.2" cy="202.2" r="1.4"/>
</g>
<g>
	<circle fill="none" stroke="#000000" stroke-miterlimit="10" cx="204.9" cy="203.1" r="18.6"/>
	<line fill="none" stroke="#000000" stroke-miterlimit="10" x1="204.2" y1="188.6" x2="204.2" y2="203.1"/>
	<line fill="none" stroke="#000000" stroke-miterlimit="10" x1="204.7" y1="202.8" x2="191.3" y2="203.4"/>
	<circle cx="204.2" cy="202.8" r="1.4"/>
</g>
<g>
	<path d="M119,190.8c-0.3,0-0.6,0.3-0.6,0.6v12.8c0,0.2,0.1,0.3,0.2,0.4l8.2,8.2c0.2,0.2,0.6,0.2,0.8,0c0.2-0.2,0.2-0.6,0-0.8
		l-8.1-8.1v-12.5C119.6,191.1,119.3,190.8,119,190.8L119,190.8z M119,185.6c10.3,0,18.6,8.3,18.6,18.6c0,10.3-8.3,18.6-18.6,18.6
		s-18.6-8.3-18.6-18.6C100.4,193.9,108.7,185.6,119,185.6z M119,184.4c-10.9,0-19.8,8.9-19.8,19.8c0,10.9,8.9,19.8,19.8,19.8
		s19.8-8.9,19.8-19.8C138.8,193.3,129.9,184.4,119,184.4z"/>
	<circle cx="119" cy="204.2" r="1.4"/>
</g>
</svg>
