<?xml version="1.0" encoding="utf-8"?>
<!-- Generator: Adobe Illustrator 23.0.3, SVG Export Plug-In . SVG Version: 6.00 Build 0)  -->
<svg version="1.1" id="Layer_1" xmlns="http://www.w3.org/2000/svg" xmlns:xlink="http://www.w3.org/1999/xlink" x="0px" y="0px"
	 viewBox="0 0 600 350" enable-background="new 0 0 600 350" xml:space="preserve">
<path fill="#D0EBE4" d="M323.4,307.3H56.1c-6.6,0-12-5.4-12-12V266c0-6.6,5.4-12,12-12h267.2c6.6,0,12,5.4,12,12v29.3
	C335.4,301.9,330,307.3,323.4,307.3z"/>
<rect x="-0.8" y="44" fill="none" width="600" height="45.9"/>
<text transform="matrix(1 0 0 1 83.794 65.488)" font-family="'ArialMT'" font-size="25px">BLS data about TW and SD job growth</text>
<text transform="matrix(1 0 0 1 42.7522 102.6349)"><tspan x="0" y="0" font-family="'ArialMT'" font-size="13px">2016-2026 growth </tspan><tspan x="22.8" y="15.6" font-family="'ArialMT'" font-size="13px">projections</tspan></text>
<path fill="#5E5F61" d="M49.6,201.5h19.8v21.2H49.6V201.5z M48.6,224.2h21.7c0.5,0,1-0.3,1-0.8v-22.7c0-0.4-0.4-0.8-1-0.8H48.6
	c-0.5,0-1,0.3-1,0.8v22.7C47.6,223.9,48.1,224.2,48.6,224.2z"/>
<path fill="#5E5F61" d="M78.7,190.7h21l0,31.9h-21L78.7,190.7z M76.7,223.4c0,0.5,0.5,0.8,1,0.8h23c0.6,0,1-0.4,1-0.8l0-33.6
	c0-0.5-0.5-0.8-1-0.8h-23c-0.6,0-1,0.4-1,0.8L76.7,223.4z"/>
<path fill="#5E5F61" d="M129.1,221.7h-21.4v-60.2h21.4V221.7z M130.2,159h-23.4c-0.6,0-1,0.6-1,1.3V223c0,0.7,0.5,1.3,1,1.3h23.4
	c0.6,0,1-0.6,1-1.3v-62.7C131.2,159.6,130.7,159,130.2,159z"/>
<path fill="#5E5F61" d="M68.5,184.2c0,2.3-0.8,4.4-2.2,6.1c-0.5-1.9-1.7-3.6-3.4-4.6c0.9-1,1.5-2.2,1.5-3.6c0-2.9-2.3-5.2-5.2-5.2
	c-2.9,0-5.2,2.3-5.2,5.2c0,1.3,0.5,2.6,1.4,3.5c-1.8,1-3.1,2.7-3.6,4.7c-1.4-1.6-2.2-3.8-2.2-6.1c0-5.2,4.3-9.5,9.5-9.5
	C64.2,174.7,68.5,178.9,68.5,184.2L68.5,184.2z M53.4,191.8c0.1-2.4,1.7-4.4,4-5.1c0.4-0.1,0.6-0.4,0.6-0.8c0-0.4-0.2-0.7-0.5-0.9
	c-1.1-0.6-1.8-1.7-1.8-3c0-1.9,1.5-3.4,3.4-3.4s3.4,1.5,3.4,3.4c0,1.3-0.7,2.4-1.8,3c-0.3,0.2-0.5,0.5-0.5,0.9
	c0,0.4,0.3,0.7,0.6,0.8c2.2,0.7,3.7,2.8,3.9,5.1c-1.6,1.2-3.5,1.9-5.6,1.9S54.9,192.9,53.4,191.8L53.4,191.8z M47.7,184.2
	c0,6.2,5.1,11.3,11.3,11.3s11.3-5.1,11.3-11.3s-5.1-11.3-11.3-11.3C52.8,172.8,47.7,177.9,47.7,184.2z"/>
<path fill="#5E5F61" d="M88.9,165.5c5.2,0,9.5,4.3,9.5,9.5c0,2.3-0.8,4.4-2.2,6.1c-0.5-1.9-1.7-3.6-3.4-4.6c0.9-1,1.5-2.2,1.5-3.6
	c0-2.9-2.3-5.2-5.2-5.2s-5.2,2.3-5.2,5.2c0,1.3,0.5,2.6,1.4,3.5c-1.8,1-3.1,2.7-3.6,4.7c-1.4-1.6-2.2-3.8-2.2-6.1
	C79.5,169.8,83.7,165.5,88.9,165.5L88.9,165.5z M83.3,182.6c0.1-2.4,1.7-4.4,4-5.1c0.4-0.1,0.6-0.4,0.6-0.8c0-0.4-0.2-0.7-0.5-0.9
	c-1.1-0.6-1.8-1.7-1.8-3c0-1.9,1.5-3.4,3.4-3.4c1.9,0,3.4,1.5,3.4,3.4c0,1.3-0.7,2.4-1.8,3c-0.3,0.2-0.5,0.5-0.5,0.9
	c0,0.4,0.3,0.7,0.6,0.8c2.2,0.7,3.7,2.8,3.9,5.1c-1.6,1.2-3.5,1.9-5.6,1.9C86.8,184.5,84.9,183.8,83.3,182.6L83.3,182.6z
	 M88.9,186.3c6.2,0,11.3-5.1,11.3-11.3c0-6.2-5.1-11.3-11.3-11.3c-6.2,0-11.3,5.1-11.3,11.3C77.6,181.2,82.7,186.3,88.9,186.3z"/>
<path fill="#5E5F61" d="M118,135.8c5.2,0,9.5,4.3,9.5,9.5c0,2.3-0.8,4.4-2.2,6.1c-0.5-1.9-1.7-3.6-3.4-4.6c0.9-1,1.5-2.2,1.5-3.6
	c0-2.9-2.3-5.2-5.2-5.2c-2.9,0-5.2,2.3-5.2,5.2c0,1.3,0.5,2.6,1.4,3.5c-1.8,1-3.1,2.7-3.6,4.7c-1.4-1.6-2.2-3.8-2.2-6.1
	C108.5,140,112.7,135.8,118,135.8L118,135.8z M112.3,152.9c0.1-2.4,1.7-4.4,4-5.1c0.4-0.1,0.6-0.4,0.6-0.8c0-0.4-0.2-0.7-0.5-0.9
	c-1.1-0.6-1.8-1.7-1.8-3c0-1.9,1.5-3.4,3.4-3.4c1.9,0,3.4,1.5,3.4,3.4c0,1.3-0.7,2.4-1.8,3c-0.3,0.2-0.5,0.5-0.5,0.9
	c0,0.4,0.3,0.7,0.6,0.8c2.2,0.7,3.7,2.8,3.9,5.1c-1.6,1.2-3.5,1.9-5.6,1.9C115.9,154.8,113.9,154.1,112.3,152.9L112.3,152.9z
	 M118,156.6c6.2,0,11.3-5.1,11.3-11.3c0-6.2-5.1-11.3-11.3-11.3c-6.2,0-11.3,5.1-11.3,11.3S111.7,156.6,118,156.6z"/>
<text transform="matrix(1 0 0 1 48.8939 240.0991)" font-family="'ArialMT'" font-size="11.9287px">Avg</text>
<text transform="matrix(1 0 0 1 79.4574 240.0991)" font-family="'ArialMT'" font-size="11.9287px">TW</text>
<text transform="matrix(1 0 0 1 106.9852 240.0986)" font-family="'ArialMT'" font-size="11.9287px">SD/P</text>
<g>
	<text transform="matrix(1 0 0 1 109.7382 186.3012)" font-family="'ArialMT'" font-size="9.176px">17%</text>
</g>
<g>
	<text transform="matrix(1 0 0 1 52.9335 213.0244)" font-family="'ArialMT'" font-size="9.176px">7%</text>
</g>
<g>
	<text transform="matrix(1 0 0 1 80.3749 206.6015)" font-family="'ArialMT'" font-size="9.176px">11%</text>
</g>
<rect x="61.1" y="262" fill="none" width="263.3" height="48.4"/>
<text transform="matrix(1 0 0 1 61.0594 271.4262)"><tspan x="0" y="0" font-family="'ArialMT'" font-size="11px">“... Job opportunities, especially  for applicants with </tspan><tspan x="0" y="13.2" font-family="'ArialMT'" font-size="11px">technical skills, are expected to be good.” </tspan><tspan x="0" y="26.4" font-family="'ArialMT'" font-size="11px">-- BLS</tspan></text>
<text transform="matrix(1 0 0 1 399.5834 104.5397)" font-family="'ArialMT'" font-size="13px">Perceived workloads</text>
<line fill="none" stroke="#A9A8A9" stroke-miterlimit="10" x1="348.9" y1="85.4" x2="348.9" y2="327.3"/>
<rect x="181.5" y="137.6" fill="none" width="148.7" height="115.1"/>
<text transform="matrix(1 0 0 1 181.4662 146.1577)"><tspan x="0" y="0" font-family="'ArialMT'" font-size="10px">►1 tech writer for every 33 </tspan><tspan x="0" y="12" font-family="'ArialMT'" font-size="10px">software developers and </tspan><tspan x="0" y="24" font-family="'ArialMT'" font-size="10px">programmers in 2016</tspan><tspan x="0" y="48" font-family="'ArialMT'" font-size="10px">► 1 tech writer for every 35 </tspan><tspan x="0" y="60" font-family="'ArialMT'" font-size="10px">software developers and </tspan><tspan x="0" y="72" font-family="'ArialMT'" font-size="10px">programmers in 2026</tspan></text>
<rect x="366" y="113.4" fill="none" width="211.5" height="80.3"/>
<text transform="matrix(1 0 0 1 365.9581 122.0258)"><tspan x="0" y="0" font-family="'ArialMT'" font-size="10px">“The number of engineers I support seems to </tspan><tspan x="0" y="12" font-family="'ArialMT'" font-size="10px">be growing each year, making the ratio of tech </tspan><tspan x="0" y="24" font-family="'ArialMT'" font-size="10px">writers to engineers more lopsided (with fewer </tspan><tspan x="0" y="36" font-family="'ArialMT'" font-size="10px">tech writers and more engineers).”</tspan></text>
<g>
	<g>
		<g>
			<g>
				<path fill="#A4A4A4" stroke="#000000" stroke-width="0.5" stroke-miterlimit="10" d="M461.6,256.6l-9.4-53.2
					c3.2-0.6,6.2-0.8,9.4-0.8V256.6z"/>
			</g>
		</g>
		<g>
			<g>
				<path fill="#A4A4A4" stroke="#000000" stroke-width="0.5" stroke-miterlimit="10" d="M461.6,256.6l-22.8-49
					c4.4-2,8.7-3.4,13.5-4.2L461.6,256.6z"/>
			</g>
		</g>
		<g>
			<g>
				<path fill="#DADADA" stroke="#000000" stroke-width="0.5" stroke-miterlimit="10" d="M461.6,256.6l-54-1.9
					c0.7-20.9,12.2-38.2,31.2-47.1L461.6,256.6z"/>
			</g>
		</g>
		<g>
			<g>
				<path fill="#9CB5A4" stroke="#000000" stroke-width="0.5" stroke-miterlimit="10" d="M461.6,256.6l43.7,31.8
					c-17.5,24.1-51.3,29.5-75.5,12c-15-10.9-22.9-27.1-22.2-45.6L461.6,256.6z"/>
			</g>
		</g>
		<g>
			<g>
				<path fill="#B5DDBE" stroke="#000000" stroke-width="0.5" stroke-miterlimit="10" d="M461.6,256.6v-54c29.8,0,54,24.2,54,54
					c0,12.1-3.2,22-10.3,31.8L461.6,256.6z"/>
			</g>
		</g>
	</g>
	<g>
		<g>
		</g>
		<g>
		</g>
		<g>
		</g>
		<g>
		</g>
		<g>
		</g>
	</g>
</g>
<text transform="matrix(1 0 0 1 385.0458 222.2749)"><tspan x="0" y="0" font-family="'ArialMT'" font-size="6px">Undecided </tspan><tspan x="9.2" y="7.2" font-family="'ArialMT'" font-size="6px">18%</tspan></text>
<text transform="matrix(1 0 0 1 405.2247 187.7014)"><tspan x="0" y="0" font-family="'ArialMT'" font-size="6px">Disagree </tspan><tspan x="8.5" y="7.2" font-family="'ArialMT'" font-size="6px">4%</tspan></text>
<text transform="matrix(1 0 0 1 437.0215 173.7159)"><tspan x="0" y="0" font-family="'ArialMT'" font-size="6px">Strongly </tspan><tspan x="-1" y="7.2" font-family="'ArialMT'" font-size="6px">Disagree </tspan><tspan x="7.5" y="14.4" font-family="'ArialMT'" font-size="6px">3%</tspan></text>
<text transform="matrix(1 0 0 1 505.7448 218.5203)"><tspan x="0" y="0" font-family="'ArialMT'" font-size="6px">Strongly Agree</tspan><tspan x="13.8" y="7.2" font-family="'ArialMT'" font-size="6px">35%</tspan></text>
<text transform="matrix(1 0 0 1 395.5738 307.2589)" font-family="'ArialMT'" font-size="6px">Agree 41%</text>
<line fill="none" stroke="#666666" stroke-width="0.25" stroke-miterlimit="10" x1="444" y1="205.7" x2="424.1" y2="190.4"/>
<line fill="none" stroke="#666666" stroke-width="0.25" stroke-miterlimit="10" x1="453.3" y1="190.3" x2="458" y2="202.2"/>
<g>
	<path fill="none" stroke="#6D6D6D" stroke-width="0.7271" stroke-miterlimit="10" d="M143.5,137.9c4.7,0.1,7.7,3.3,9.2,6.2
		c4.1,8.3,2,17.5,5,26c1.6,4.4,5.7,9.2,12.6,9.7"/>
	<path fill="none" stroke="#6D6D6D" stroke-width="0.7719" stroke-miterlimit="10" d="M143.5,227c4.7-0.2,7.7-3.7,9.2-7
		c4.1-9.4,2-19.7,5-29.3c1.6-5,5.7-10.4,12.6-10.9"/>
</g>
</svg>
