<?xml version="1.0" encoding="utf-8"?>
<!-- Generator: Adobe Illustrator 23.0.3, SVG Export Plug-In . SVG Version: 6.00 Build 0)  -->
<svg version="1.1" id="Layer_1" xmlns="http://www.w3.org/2000/svg" xmlns:xlink="http://www.w3.org/1999/xlink" x="0px" y="0px"
	 viewBox="0 0 600 350" enable-background="new 0 0 600 350" xml:space="preserve">
<path d="M66,91.3c0-1.7,1.3-3,2.9-3H69c1.6,0,2.9,1.3,2.9,3v1.7c0,1.7-1.3,3-2.9,3h-0.1c-1.6,0-2.9-1.3-2.9-3V91.3z M68.9,98.3
	L68.9,98.3c2.9,0,5.1-2.3,5.1-5.2v-1.7c0-2.9-2.3-5.2-5.1-5.2h-0.1c-2.8,0-5.1,2.3-5.1,5.2v1.7C63.9,96,66.1,98.3,68.9,98.3z"/>
<path d="M78,105.7v0.1v12.8c0,0.6-0.5,1.2-1.1,1.2c-0.3,0-0.6-0.1-0.8-0.3c-0.2-0.2-0.3-0.5-0.3-0.8v-2.7l0-0.5h0v-5.3h-2.1v5.8
	l0,0.6h-8.9l0-1.1h0v-5.3h-2.1v8.5c0,0.7-0.5,1.2-1.1,1.3c-0.3,0-0.6-0.1-0.8-0.3c-0.2-0.2-0.3-0.5-0.3-0.8v-12.8v-0.1
	c-0.1-0.9,0.2-1.8,0.8-2.5c0.6-0.7,1.4-1.1,2.3-1.1h1.8l3.2,3.3l0,0c0,0,0.1,0.1,0.1,0.1h0c0,0,0.1,0,0.1,0.1c0,0,0,0,0,0
	c0,0,0.1,0,0.1,0h0c0,0,0.1,0,0.1,0h0c0,0,0.1,0,0.1,0h0h0.1h0c0,0,0.1,0,0.1,0c0,0,0.1,0,0.1,0h0h0c0.1,0,0.2-0.1,0.2-0.2
	c0,0,0,0,0,0c0,0,0,0,0,0l3.4-3.3h1.7c0.9,0,1.7,0.4,2.3,1.1C77.8,103.9,78.1,104.8,78,105.7L78,105.7z M71.5,145.9
	c-0.7,0-1.3-0.6-1.3-1.4v-23H68v23c0,0.8-0.6,1.4-1.3,1.4c-0.7,0-1.3-0.6-1.3-1.3l-0.6-26h8.7l-0.6,26
	C72.8,145.4,72.3,145.9,71.5,145.9L71.5,145.9z M74.9,100h-2.1c-0.3,0-0.5,0.1-0.7,0.3l-2.9,2.8l-2.8-2.8c-0.2-0.2-0.5-0.3-0.8-0.3
	h-2.2c-1.5,0-2.9,0.6-3.9,1.8c-1,1.1-1.5,2.6-1.3,4.1v12.7c0,0.9,0.3,1.8,1,2.4c0.6,0.6,1.4,1,2.3,1h0c0.5,0,0.9-0.1,1.3-0.3l0.6,23
	c0.1,1.9,1.6,3.5,3.5,3.5c0.9,0,1.8-0.4,2.4-1c0.6,0.6,1.5,1,2.4,1c1.9,0,3.4-1.5,3.5-3.5l0.6-23c0.4,0.2,0.8,0.3,1.3,0.3
	c1.8,0,3.3-1.5,3.3-3.4v-12.7c0.1-1.5-0.4-3-1.3-4.1C77.8,100.6,76.4,100,74.9,100L74.9,100z"/>
<path d="M113.5,91.3c0-1.7,1.3-3,2.9-3h0.1c1.6,0,2.9,1.3,2.9,3v1.7c0,1.7-1.3,3-2.9,3h-0.1c-1.6,0-2.9-1.3-2.9-3V91.3z M116.4,98.3
	L116.4,98.3c2.9,0,5.1-2.3,5.1-5.2v-1.7c0-2.9-2.3-5.2-5.1-5.2h-0.1c-2.8,0-5.1,2.3-5.1,5.2v1.7C111.3,96,113.6,98.3,116.4,98.3z"/>
<path d="M125.4,105.7v0.1v12.8c0,0.6-0.5,1.2-1.1,1.2c-0.3,0-0.6-0.1-0.8-0.3c-0.2-0.2-0.3-0.5-0.3-0.8v-2.7l0-0.5h0v-5.3H121v5.8
	l0,0.6h-8.9l0-1.1h0v-5.3h-2.1v8.5c0,0.7-0.5,1.2-1.1,1.3c-0.3,0-0.6-0.1-0.8-0.3c-0.2-0.2-0.3-0.5-0.3-0.8v-12.8v-0.1
	c-0.1-0.9,0.2-1.8,0.8-2.5c0.6-0.7,1.4-1.1,2.3-1.1h1.8l3.2,3.3l0,0c0,0,0.1,0.1,0.1,0.1c0,0,0.1,0,0.1,0.1c0,0,0,0,0,0
	c0,0,0.1,0,0.1,0h0c0,0,0.1,0,0.1,0h0c0,0,0.1,0,0.1,0h0h0.1h0c0,0,0.1,0,0.1,0c0,0,0.1,0,0.1,0h0h0c0.1,0,0.2-0.1,0.2-0.2l0,0
	c0,0,0,0,0,0l3.4-3.3h1.7c0.9,0,1.7,0.4,2.3,1.1C125.2,103.9,125.5,104.8,125.4,105.7L125.4,105.7z M119,145.9
	c-0.7,0-1.3-0.6-1.3-1.4v-23h-2.1v23c0,0.8-0.6,1.4-1.3,1.4c-0.7,0-1.3-0.6-1.3-1.3l-0.6-26h8.7l-0.6,26
	C120.3,145.4,119.7,145.9,119,145.9L119,145.9z M122.3,100h-2.1c-0.3,0-0.5,0.1-0.7,0.3l-2.9,2.8l-2.8-2.8c-0.2-0.2-0.5-0.3-0.8-0.3
	h-2.3c-1.5,0-2.9,0.6-3.9,1.8c-1,1.1-1.5,2.6-1.3,4.1v12.7c0,0.9,0.3,1.8,1,2.4c0.6,0.6,1.4,1,2.3,1h0c0.5,0,0.9-0.1,1.3-0.3l0.6,23
	c0.1,1.9,1.6,3.5,3.5,3.5c0.9,0,1.8-0.4,2.4-1c0.6,0.6,1.5,1,2.4,1c1.9,0,3.4-1.5,3.5-3.5l0.6-23c0.4,0.2,0.8,0.3,1.3,0.3
	c1.8,0,3.3-1.5,3.3-3.4v-12.7c0.1-1.5-0.4-3-1.3-4.1C125.2,100.6,123.8,100,122.3,100L122.3,100z"/>
<path d="M89.7,91.3c0-1.7,1.3-3,2.9-3h0.1c1.6,0,2.9,1.3,2.9,3v1.7c0,1.7-1.3,3-2.9,3h-0.1c-1.6,0-2.9-1.3-2.9-3V91.3z M92.6,98.3
	L92.6,98.3c2.9,0,5.1-2.3,5.1-5.2v-1.7c0-2.9-2.3-5.2-5.1-5.2h-0.1c-2.8,0-5.1,2.3-5.1,5.2v1.7C87.6,96,89.9,98.3,92.6,98.3z"/>
<path d="M101.7,105.7v0.1v12.8c0,0.6-0.5,1.2-1.1,1.2c-0.3,0-0.6-0.1-0.8-0.3c-0.2-0.2-0.3-0.5-0.3-0.8v-2.7l0-0.5h0v-5.3h-2.1v5.8
	l0,0.6h-8.9l0-1.1h0v-5.3h-2.1v8.5c0,0.7-0.5,1.2-1.1,1.3c-0.3,0-0.6-0.1-0.8-0.3c-0.2-0.2-0.3-0.5-0.3-0.8v-12.8v-0.1
	c-0.1-0.9,0.2-1.8,0.8-2.5c0.6-0.7,1.4-1.1,2.3-1.1h1.8l3.2,3.3l0,0c0,0,0.1,0.1,0.1,0.1h0c0,0,0.1,0,0.1,0.1c0,0,0,0,0,0
	c0,0,0.1,0,0.1,0h0c0,0,0.1,0,0.1,0h0c0,0,0.1,0,0.1,0h0h0.1h0c0,0,0.1,0,0.1,0c0,0,0.1,0,0.1,0h0h0c0.1,0,0.2-0.1,0.2-0.2
	c0,0,0,0,0,0c0,0,0,0,0,0l3.4-3.3h1.7c0.9,0,1.7,0.4,2.3,1.1C101.5,103.9,101.8,104.8,101.7,105.7L101.7,105.7z M95.2,145.9
	c-0.7,0-1.3-0.6-1.3-1.4v-23h-2.1v23c0,0.8-0.6,1.4-1.3,1.4c-0.7,0-1.3-0.6-1.3-1.3l-0.6-26h8.7l-0.6,26
	C96.5,145.4,96,145.9,95.2,145.9L95.2,145.9z M98.6,100h-2.1c-0.3,0-0.5,0.1-0.7,0.3l-2.9,2.8l-2.8-2.8c-0.2-0.2-0.5-0.3-0.8-0.3H87
	c-1.5,0-2.9,0.6-3.9,1.8c-1,1.1-1.5,2.6-1.3,4.1v12.7c0,0.9,0.3,1.8,1,2.4c0.6,0.6,1.4,1,2.3,1h0c0.5,0,0.9-0.1,1.3-0.3l0.6,23
	c0.1,1.9,1.6,3.5,3.5,3.5c0.9,0,1.8-0.4,2.4-1c0.6,0.6,1.5,1,2.4,1c1.9,0,3.4-1.5,3.5-3.5l0.6-23c0.4,0.2,0.8,0.3,1.3,0.3
	c1.8,0,3.3-1.5,3.3-3.4v-12.7c0.1-1.5-0.4-3-1.3-4.1C101.5,100.6,100.1,100,98.6,100L98.6,100z"/>
<path d="M83.9,88.5c0,1.7-1.3,3-2.9,3h-0.1c-1.6,0-2.9-1.3-2.9-3v-1.7c0-1.7,1.3-3,2.9-3H81c1.6,0,2.9,1.3,2.9,3V88.5z M86.1,88.5
	v-1.7c0-2.9-2.3-5.2-5.1-5.2h-0.1c-2.8,0-5.1,2.3-5.1,5.2v1.7c0,2.9,2.3,5.2,5.1,5.2H81C83.8,93.8,86.1,91.4,86.1,88.5z"/>
<path d="M107.6,88.5c0,1.7-1.3,3-2.9,3h-0.1c-1.6,0-2.9-1.3-2.9-3v-1.7c0-1.7,1.3-3,2.9-3h0.1c1.6,0,2.9,1.3,2.9,3V88.5z
	 M109.8,88.5v-1.7c0-2.9-2.3-5.2-5.1-5.2h-0.1c-2.8,0-5.1,2.3-5.1,5.2v1.7c0,2.9,2.3,5.2,5.1,5.2h0.1
	C107.5,93.8,109.8,91.4,109.8,88.5z"/>
<path d="M368.9,266.7h73v-10.1c0-10.1-8.2-18.3-18.3-18.3h-4.4c-4.1,4.4-9,6.8-13.8,6.8s-9.7-2.4-13.8-6.8h-4.4
	c-10.1,0-18.3,8.2-18.3,18.3L368.9,266.7z M443.9,270.6h-77c-1.1,0-2-0.9-2-2v-12.1c0-12.3,10-22.3,22.3-22.3h5.3
	c0.6,0,1.1,0.2,1.5,0.7c3.5,3.9,7.5,6.1,11.4,6.1c3.9,0,8-2.2,11.4-6.1c0.4-0.4,0.9-0.7,1.5-0.7h5.3c12.3,0,22.3,10,22.3,22.3v12.1
	C445.9,269.7,445,270.6,443.9,270.6L443.9,270.6z"/>
<path d="M405.4,195.1c-8.6,0.2-15.5,7.7-15.5,16.8c0,9.1,6.9,16.6,15.5,16.8c8.6-0.2,15.5-7.7,15.5-16.8
	C421,202.8,414,195.4,405.4,195.1z M405.9,232.8H405c-0.1,0-0.3,0-0.4,0c-10.4-0.7-18.7-9.7-18.7-20.8c0-11,8.3-20.1,18.7-20.8
	c0.1,0,0.3,0,0.4,0h0.9c0.1,0,0.3,0,0.4,0c10.4,0.7,18.7,9.7,18.7,20.8c0,11-8.3,20.1-18.7,20.8C406.1,232.8,406,232.8,405.9,232.8z
	"/>
<path d="M384.9,269.2L384.9,269.2c-1.2,0-2-1-2-2.1c0.8-21-8.2-23.9-8.3-23.9c-1-0.3-1.7-1.4-1.4-2.4c0.3-1.1,1.3-1.7,2.4-1.4
	c0.5,0.1,12.2,3.3,11.3,27.9C386.8,268.4,385.9,269.2,384.9,269.2L384.9,269.2z"/>
<path d="M427.3,270.6c-1.1,0-1.9-0.8-2-1.9c-0.9-24.6,10.8-27.8,11.3-27.9c1.1-0.3,2.1,0.4,2.4,1.4c0.3,1.1-0.4,2.1-1.4,2.4
	c-0.2,0.1-9.1,3-8.3,23.9C429.4,269.7,428.5,270.6,427.3,270.6L427.3,270.6L427.3,270.6z"/>
<path d="M304.5,241.8c0,3.6-3.2,6.5-7,6.5h-83.9c-3.9,0-7-2.9-7-6.5v-47c0-3.6,3.2-6.5,7-6.5h83.9c3.9,0,7,2.9,7,6.5V241.8z
	 M296.6,181.4h-83.3c-3.7,0-7.3,1.3-10,3.8c-2.7,2.5-4.2,5.8-4.2,9.3v47.8c0,7.3,6.3,14.2,14.2,14.2h37.9v4.6h7.4v-4.6h37.9
	c7.7,0,14.2-7,14.2-14.2v-47.8c0-3.5-1.5-6.8-4.2-9.3C303.9,182.7,300.3,181.4,296.6,181.4L296.6,181.4z"/>
<rect x="225.2" y="262.2" width="59.5" height="6.9"/>
<polygon fill="#FFF200" stroke="#51514F" stroke-width="0.6967" stroke-miterlimit="10" points="226.5,222 228.7,220.9 228.8,220.9 
	231,222 230.6,219.7 232.4,218 229.9,217.7 228.7,215.7 228.7,215.7 227.6,217.7 225.1,218.1 226.9,219.7 "/>
<polygon fill="#FFF200" stroke="#51514F" stroke-width="0.6967" stroke-miterlimit="10" points="234.7,222 236.9,220.9 236.9,220.9 
	239.2,222 238.8,219.7 240.6,218 238.1,217.7 236.9,215.7 236.9,215.7 235.8,217.7 233.2,218.1 235.1,219.7 "/>
<polygon fill="#FFF200" stroke="#51514F" stroke-width="0.6967" stroke-miterlimit="10" points="242.5,222 244.7,220.9 244.8,220.9 
	247,222 246.6,219.7 248.4,218 245.9,217.7 244.7,215.7 244.7,215.7 243.6,217.7 241.1,218.1 242.9,219.7 "/>
<polygon fill="#FFF200" stroke="#51514F" stroke-width="0.6967" stroke-miterlimit="10" points="250.4,222 252.7,220.9 252.7,220.9 
	255,222 254.5,219.7 256.3,218 253.8,217.7 252.7,215.7 252.6,215.7 251.5,217.7 249,218.1 250.8,219.7 "/>
<path d="M258.5,218.5l1.2-0.2l0.4-0.1l0.2-0.3l0.5-1l0.5,0.9l0.2,0.3l0.4,0l1.2,0.1l-0.8,0.8l-0.3,0.2l0.1,0.3l0.2,1l-1-0.5
	l-0.3-0.1l-0.3,0.2l-1,0.5l0.2-1.1l0.1-0.3l-0.3-0.2L258.5,218.5z M258.5,222l2.2-1.1l0,0l2.3,1.1l-0.5-2.3l1.8-1.6l-2.5-0.3l-1.1-2
	l0,0l-1.1,2.1l-2.5,0.4l1.9,1.6L258.5,222z"/>
<path stroke="#DBD9D9" stroke-width="1.3934" stroke-miterlimit="10" d="M298.8,241.8c0,1.4-1.5,2.6-3.2,2.6h-81.3
	c-1.8,0-3.2-1.2-3.2-2.6v-41.3h87.8L298.8,241.8L298.8,241.8z M214.4,194.3c0-0.6,0.6-1.1,1.3-1.1h68.6c0.7,0,1.3,0.5,1.3,1.1v0.4
	c0,0.6-0.6,1.1-1.3,1.1l-68.6,0c-0.7,0-1.3-0.5-1.3-1.1L214.4,194.3z M291,193.2c0.9,0,1.7,0.6,1.7,1.3c0,0.7-0.8,1.3-1.7,1.3
	c-0.9,0-1.7-0.6-1.7-1.3C289.3,193.8,290,193.2,291,193.2z M296,193.2c0.9,0,1.7,0.6,1.7,1.3c0,0.7-0.8,1.3-1.7,1.3
	s-1.7-0.6-1.7-1.3C294.3,193.8,295.1,193.2,296,193.2z M296.4,190.2h-83.1c-2.5,0-4.5,1.6-4.5,3.4v48.2c0,2.4,2.4,4.4,5.4,4.4h81.3
	c3,0,5.4-2,5.4-4.4l0-43h0v-5.2C301,191.7,298.9,190.2,296.4,190.2L296.4,190.2z"/>
<text transform="matrix(1 0 0 1 225.1919 210.5443)" font-family="'MyriadPro-Regular'" font-size="8.6709px">Documentation</text>
<line fill="none" stroke="#A39F9F" stroke-width="2.8903" stroke-miterlimit="10" x1="226.6" y1="227.8" x2="282" y2="227.8"/>
<line fill="none" stroke="#A39F9F" stroke-width="2.8903" stroke-miterlimit="10" x1="226.6" y1="233.8" x2="282" y2="233.8"/>
<line fill="none" stroke="#A39F9F" stroke-width="2.8903" stroke-miterlimit="10" x1="226.6" y1="239.8" x2="282" y2="239.8"/>
<g>
	<g>
		<path fill="none" stroke="#141414" stroke-miterlimit="10" d="M380,220.3c0,0-0.4-0.3-1.3-0.7"/>
		<path fill="none" stroke="#141414" stroke-miterlimit="10" stroke-dasharray="2.8618,2.8618" d="M376.1,218.5
			c-6.6-2.6-22.1-7.1-50.5-7.5c-13.6-0.2-30.2,1.6-44.1,5.5"/>
		<path fill="none" stroke="#141414" stroke-miterlimit="10" d="M280.1,216.9c-0.5,0.1-0.9,0.3-1.4,0.4"/>
		<g>
			<path fill="#141414" d="M273,219.3c2.4-1.9,5.1-4.7,6.6-7.3l-0.1,5.1l3.2,3.9C279.9,219.9,276,219.4,273,219.3z"/>
		</g>
	</g>
</g>
<circle fill="#E1E1E1" cx="431.4" cy="165.5" r="4.8"/>
<circle fill="#E1E1E1" cx="439.8" cy="152" r="5.5"/>
<circle fill="#E1E1E1" cx="425.1" cy="176.8" r="3.2"/>
<circle fill="#E1E1E1" cx="451.9" cy="138.4" r="7.5"/>
<circle fill="#E1E1E1" cx="421" cy="186.6" r="3.2"/>
<path fill="#E1E1E1" d="M543.6,94c0-8.9-8.2-16.1-18.4-16.1c-6.7,0-12.5,3.1-15.7,7.7c-4-0.6-8.3-0.9-12.8-0.9
	c-3.2,0-6.3,0.2-9.2,0.5c-2.5-2.2-6-3.6-9.9-3.6c-7.1,0-13,4.7-13.6,10.7c-4.6,2.9-7.3,6.4-7.3,10.2c0,1.6,0.5,3.1,1.3,4.5
	c-3.7,1.5-6.1,3.9-6.1,6.6c0,4.6,7.1,8.4,16,8.4c5.1,0,9.6-1.3,12.6-3.2c4.2,0.8,8.8,1.3,13.6,1.5c0.8,2.9,5.7,5.1,11.6,5.1
	c6.5,0,11.8-2.6,11.8-5.9c0-0.6-0.2-1.1-0.5-1.6c8.5-2.2,15-5.8,17.9-10.1C540.1,104.8,543.6,99.8,543.6,94z"/>
<text transform="matrix(1 0 0 1 466.4196 109.6303)" font-family="'MyriadPro-Regular'" font-size="13.9337px">?!!##$%^!</text>
<text transform="matrix(1 0 0 1 61.5015 170.3186)" font-family="'ArialMT'" font-size="12px">Product team</text>
<line fill="none" stroke="#020202" stroke-miterlimit="10" x1="189.6" y1="185.9" x2="157.3" y2="75.8"/>
<line fill="none" stroke="#020202" stroke-miterlimit="10" x1="189.4" y1="185.4" x2="66.8" y2="191.2"/>
<text transform="matrix(1 0 0 1 380.0161 289.7097)" font-family="'ArialMT'" font-size="12px">Customer</text>
<text transform="matrix(1 0 0 1 73.4847 64.2044)" font-family="'ArialMT'" font-size="12px">?????</text>
</svg>
