<?xml version="1.0" encoding="utf-8"?>
<!-- Generator: Adobe Illustrator 23.0.3, SVG Export Plug-In . SVG Version: 6.00 Build 0)  -->
<svg version="1.1" id="Layer_1" xmlns="http://www.w3.org/2000/svg" xmlns:xlink="http://www.w3.org/1999/xlink" x="0px" y="0px"
	 viewBox="0 0 600 350" enable-background="new 0 0 600 350" xml:space="preserve">
<g>
	<g>
		<path fill="#FBFBFB" d="M473.5,305.1c0-30.3,0-60.5,0-90.8c0-1,0.2-1.2,1.2-1.2c21.2,0,42.3,0,63.5,0c1,0,1.2,0.2,1.2,1.2
			c0,29.9,0,59.8,0,89.7c0,1.2-0.5,1.2-1.3,1.2C516.5,305.1,495,305.1,473.5,305.1z"/>
		<path fill="#F2F1F1" d="M508.5,215.4c0.3-0.7,0.9-0.6,1.5-0.7c6.6-0.2,13.2,0.3,19.7,0.4c0.9,0,1.7,0.2,2.6,0.5
			c2.5,0.7,3.5,2.3,3.7,5.1c0.3,4.5,0,9,0.4,13.5c0.4,5.7,0.2,11.4,0.2,17.1c0,4.7-0.2,9.3-0.4,14c-0.1,1.9,0,3.9-0.4,5.8
			c-0.7,3-2.3,4.3-5.3,4.5c-14,0.6-28.1,0.4-42.1,0.2c-2.8,0-5.7,0.1-8.6-0.5c-2.4-0.5-3.5-2-3.9-4.2c-0.2-1.6-0.3-3.2-0.4-4.9
			c-0.4-10.4-0.5-20.9-0.2-31.4c0.1-5.1-0.1-10.2,0.6-15.3c0.1-0.7-0.1-1.9,1.2-2c0.6,0.4,0.6,1,0.4,1.6c-0.4,1.5-0.2,3.1-0.2,4.6
			c0,1.5,0.1,3-0.1,4.5c-0.5,1.5,0.1,3.2-0.5,4.7c-0.9,1.8-0.4,3.7-0.5,5.5c0,5.7-0.2,11.5,0.1,17.2c0.3,4.7-0.1,9.5,0.5,14.2
			c0.4,2.8,1.4,3.9,4.2,4.3c3.5,0.5,7.1,0.5,10.6,0.5c9.5,0.2,19.1,0.2,28.6,0c3.6-0.1,7.3-0.1,10.9-0.6c1.9-0.3,3.1-1.4,3.5-3.3
			c0.5-2.3,0.5-4.7,0.5-7c0.1-8.4,0.8-16.8,0.3-25.2c-0.3-5.6,0-11.2-0.6-16.8c-0.2-1.5-0.1-3.2-1.4-4.4c-1.3-1.1-2.9-1.4-4.4-1.4
			c-6.2,0-12.3-0.6-18.5-0.4C509.8,215.9,509.1,216,508.5,215.4z"/>
		<path fill="#E7E6E6" d="M508.5,215.4c2.3,0,4.6,0,6.9,0c4.7,0.1,9.4,0.2,14,0.3c4.2,0.1,5.7,2,6,6.5c0.3,4.5,0,9,0.4,13.5
			c0.4,5.2,0.3,10.5,0.2,15.7c-0.1,4.2,0,8.5-0.3,12.7c-0.2,2.3,0,4.5-0.5,6.8c-0.4,2.1-1.7,3.5-3.9,3.7
			c-13.7,1.2-27.4,0.6-41.1,0.5c-3.1,0-6.3,0-9.4-0.5c-2.3-0.4-3.9-1.7-4.2-4.1c-0.4-3.4-0.2-6.9-0.4-10.4c-0.3-6-0.2-12-0.3-18
			c0-2.8,0-5.6,0-8.4c0-0.4,0.1-0.7,0.6-0.8c0.9,1.1,0.3,2.4,0.5,3.7c0,4.6,0,9.3,0,13.9c0.1,2.8-0.2,5.5,0.2,8.3
			c0.2,1.6,0.1,3.2,0.1,4.8c0.1,1.3-0.2,2.7,0.2,4c0.2,1,0.1,1.9,0.2,2.9c0.7,2.3,1.8,3,4.5,3.2c8.7,0.5,17.3,0.3,26,0.3
			c3.5,0,7.1-0.1,10.6,0c3.8,0.1,7.5-0.4,11.3-0.4c2.8,0,4.1-1.4,4.2-4.1c0.5-10.7,0.9-21.5,0.6-32.2c-0.2-5.5,0-11.1-0.6-16.6
			c-0.2-1.7-0.7-3.1-2.5-3.6c-0.2,0-0.4-0.1-0.6-0.1c-0.3,0-0.5-0.1-0.8-0.2c-0.9-0.3-1.8-0.1-2.7-0.3c-1.7-0.3-3.4-0.1-5.1-0.2
			c-1.2,0-2.4,0.1-3.6-0.1c-3.3-0.4-6.6-0.1-10-0.2c-0.7,0-1.6,0.2-2.1-0.5C507.4,215.3,508,215.4,508.5,215.4z"/>
		<path fill="#3C4390" d="M528,299.9c0-0.2-0.1-0.4,0-0.5c0.3-0.5-0.7-1.6,0.8-1.6c1.4-0.1,2.9-0.6,3,1.6c0,0.9,0.5,2.5-0.4,2.5
			c-1.2,0-0.4-1.5-0.5-2.3c-0.1-0.6-0.2-1.2-1-1.2c-0.8,0-1,0.6-1,1.2c0,0.5,0,1.1,0,1.6c0,0.3,0.1,0.7-0.4,0.7
			c-0.5,0-0.5-0.4-0.5-0.7C528,300.9,528,300.4,528,299.9C528,299.9,528,299.9,528,299.9z"/>
		<path fill="#DEDCDC" d="M506.8,215.6c3.5,0,7,0.1,10.4,0.1c0.6,0,1.2-0.2,1.7,0.3c-0.7,0.7-1.6,0.4-2.4,0.5c-8.3,0-16.6,0-25,0
			c-0.8-0.1-1.7,0.2-2.4-0.5c2.6-0.6,5.2-0.2,7.7-0.3C500.2,215.6,503.5,215.6,506.8,215.6z"/>
		<path fill="#353E8E" d="M479.5,296.7c-1.6-0.1-2.6,0.9-2.6,2.4c0,1.6,1,2.4,2.7,2.2c0.3,0,0.7-0.3,0.8,0.1
			c0.1,0.5-0.4,0.6-0.8,0.6c-1.3,0.2-2.4,0-3.2-1.2c-0.7-1.1-0.7-2.4-0.1-3.6c0.7-1.2,1.8-1.5,3.1-1.4c0.4,0,1,0,0.9,0.6
			C480.4,297.1,479.9,296.7,479.5,296.7z"/>
		<path fill="#353E8E" d="M519.7,282.3c0,1.4-0.8,2.3-2.2,2.3c-1.3,0-2.1-0.9-2.1-2.2c0-1.3,0.9-2.3,2.2-2.3
			C518.9,280,519.7,280.9,519.7,282.3z"/>
		<path fill="#39418F" d="M503.6,299.8c0,0.2,0,0.4,0,0.5c-0.2,0.6,0.6,1.6-0.5,1.7c-2.7,0.3-3.1,0-3.1-1.9c0-0.8-0.5-2.2,0.4-2.3
			c0.9-0.1,0.3,1.3,0.5,2c0.1,0.6,0,1.5,0.9,1.4c0.8,0,0.9-0.7,1-1.4c0.1-0.7-0.5-2.1,0.5-2.1C504.1,297.9,503.4,299.2,503.6,299.8z
			"/>
		<path fill="#333C8D" d="M489.2,278.8c-0.8,0.9-2.3-0.2-2.5,1.1c-0.1,1.1,1.2,1,1.9,1.5c0.9,0.7,1,1.5,0.4,2.4
			c-0.5,0.7-2.4,0.9-3,0.4c-0.1-0.1-0.2-0.3-0.2-0.4c0-0.2,0.2-0.3,0.5-0.3c0.3,0.1,0.5,0.1,0.8,0.2c0.6,0.1,1.1-0.1,1.3-0.7
			c0.2-0.7-0.3-1-0.8-1.3c-0.1-0.1-0.3-0.1-0.5-0.2c-0.9-0.4-1.6-1-1.3-2.1c0.4-1.2,1.4-1.3,2.4-1.1
			C488.6,278.5,488.8,278.6,489.2,278.8z"/>
		<path fill="#333D8D" d="M503.6,284.2c-0.9,0.6-1.9,0.6-2.7,0c-1.2-0.9-0.8-2.1-0.5-3.3c0.3-1,1.2-0.7,1.9-0.8c0.6,0,1.1,0.3,1.4,1
			c0.4,0.9,0.5,1.5-0.9,1.5c-0.6,0-1.7-0.6-1.7,0.4c0,1,1.1,0.9,1.9,0.9C503.3,283.8,503.5,283.8,503.6,284.2z"/>
		<path fill="#39418F" d="M518,302c-0.6,0-1.2-0.2-1.8,0c-0.7,0.2-1.3,0-1.6-0.8c-0.2-0.8,0-1.4,0.8-1.8c0.3-0.1,0.6-0.2,0.9-0.3
			c0.3-0.1,0.7,0.1,0.6-0.5c-0.1-0.3-0.4-0.4-0.8-0.5c-0.4-0.1-0.8,0.5-1.4-0.1c0.6-0.6,1.2-0.7,2-0.5c0.7,0.2,1.1,0.7,1.1,1.4
			C518,300,518,301,518,302z"/>
		<path fill="#454A95" d="M490,287.2c0.2,0,0.4,0,0.7,0c0.5,0.1,1.3-0.3,1.4,0.4c0.1,0.7-0.7,0.4-1.1,0.5c-0.7,0.1-0.6,0.6-0.6,1
			c0,1.2,0,2.4,0,3.6c0,0.3,0,0.7-0.5,0.7c-0.5,0-0.4-0.4-0.4-0.7c0-1.2,0-2.4,0-3.6c0-0.7-0.1-1-0.9-0.9c-0.4,0-0.9,0.1-0.9-0.4
			c0-0.5,0.6-0.4,0.9-0.4C489.2,287.2,489.6,287.2,490,287.2z"/>
		<path fill="#3A4190" d="M514.8,289.5c1.9-1.2,3.1-0.6,3.2,1.3c0,0.2,0,0.4,0,0.7c0,0.6-0.1,1.2-0.1,1.8c-0.8-0.3-1.7,0.3-2.5,0.1
			c-0.5-0.1-0.8-0.5-0.9-1.1c-0.1-0.7,0.3-1.1,0.8-1.5c0.5-0.3,1.2-0.1,1.6-0.6C516.6,289,515.6,289.9,514.8,289.5z"/>
		<path fill="#353E8E" d="M492.5,291.3c0.3,1.7,1.7,1.2,2.8,1.4c-1,0.9-1.9,0.8-2.8,0.3c-1.1-0.7-0.9-1.8-0.8-2.9
			c0.2-1.1,1-1.2,1.8-1.3c0.8-0.1,1.5,0.3,1.8,1.2c0.2,0.8,0.3,1.4-0.9,1.3C493.8,291.2,493.2,291.3,492.5,291.3z"/>
		<path fill="#323C8D" d="M491.9,284.5c-1.4,0-2-0.8-2.1-2.2c0-1.4,0.9-2.3,2.2-2.3c1.2,0,2.1,1,2.1,2.2
			C494.1,283.7,493.3,284.5,491.9,284.5z"/>
		<path fill="#323C8D" d="M525.3,297.6c1.2,0,2.1,1,2,2.3c0,1.3-1,2.3-2.2,2.3c-1.2,0-2-0.9-2-2.3
			C523.1,298.5,524,297.6,525.3,297.6z"/>
		<path fill="#353E8E" d="M509.1,283.2c0.4-1,0.7-1.8,1-2.6c0.1-0.3,0.3-0.4,0.6-0.4c0.3,0,0.4,0.2,0.3,0.4
			c-0.7,1.7-1.1,3.6-2.3,5.2c-0.3,0.4-0.8,0.9-1.2,0.4c-0.5-0.5,0.2-0.7,0.5-0.9c0.6-0.5,0.7-1,0.3-1.7c-0.3-0.7-0.6-1.5-0.9-2.3
			c-0.1-0.3-0.6-0.8,0-1c0.6-0.2,0.6,0.4,0.8,0.8C508.5,281.6,508.8,282.3,509.1,283.2z"/>
		<path fill="#333C8D" d="M483,297.6c1.2,0,2.1,0.9,2.1,2.2c0,1.4-0.9,2.3-2.1,2.3c-1.2,0-2.1-0.9-2.1-2.2
			C480.8,298.5,481.7,297.6,483,297.6z"/>
		<path fill="#302D30" d="M489.2,216c0.8,0,1.5,0.1,2.3,0.1c0.1,0.2,0,0.4-0.2,0.5c-1.2,0.5-2.4,0-3.6,0.5c-1.4,0.2-2.9,0.1-4.3,0.1
			c-1.3,0-2.5-0.1-3.7,0.1c-0.6,0.2-1.2,0.1-1.6,0.7c-0.4,0.7-0.1,1.5-0.2,2.3c0,0.3-0.1,0.6-0.1,1c-0.3,0.7-0.2,1.4-0.3,2.2
			c0,0.2-0.1,0.3-0.2,0.5c-0.1,0.1-0.3,0.2-0.4,0.1c-0.2-2.1,0.1-4.2,0.2-6.2c-0.1-1.4,0.9-1.2,1.8-1.2
			C482.3,216.3,485.7,216.1,489.2,216z"/>
		<path fill="#3E4592" d="M507.3,290c-1.5-0.5-1.7-0.3-1.9,1.2c-0.1,0.7,0.4,1.9-0.5,1.9c-0.8,0-0.2-1.3-0.4-1.9c0-0.1,0-0.3,0-0.5
			c-0.4-1.5,0.5-1.7,1.7-1.8c1.4,0,2,0.6,2,1.9c0,0.7,0,1.3,0,2c0,0.5-0.4,0.5-0.7,0.3C507.1,292.2,507.6,291.1,507.3,290z"/>
		<path fill="#3F4592" d="M496.4,298.5c0,0.9,0,1.8,0,2.7c0,0.5-0.2,0.7-0.7,0.5c-0.4-0.9,0.1-1.9-0.3-2.9c-1.4-1-1.6-0.1-1.7,1
			c-0.1,0.7,0.5,2.1-0.4,2.1c-0.9,0-0.4-1.3-0.4-2.1c0-0.7-0.5-1.9,0.3-2C494.2,297.7,495.5,297.5,496.4,298.5L496.4,298.5z"/>
		<path fill="#3A4290" d="M515.4,280.6c-1.9,0.7-0.6,2.4-1.1,3.6c0,0.1-0.2,0.2-0.4,0.2c-0.2,0-0.5-0.1-0.4-0.4
			c0.3-1.6-0.7-3.3,0.1-4.9c0.3-0.5,0.5-0.9,1.1-1c0.4-0.1,0.8-0.2,0.9,0.3c0.1,0.5-0.4,0.3-0.7,0.5c-0.7,0.4-1.1,0.8,0,1.2
			C515.2,280.2,515.4,280.2,515.4,280.6z"/>
		<path fill="#303A8C" d="M489.2,298.5c0,0.9,0.1,1.7,0.1,2.6c0,0.3,0.1,0.7-0.4,0.7c-0.4-0.1-0.3-0.5-0.3-0.8
			c-0.1-0.6,0-1.2-0.2-1.8c-0.1-0.4-0.2-0.9-0.8-0.8c-0.5,0.1-0.9,0.4-0.9,1c0,0.7,0,1.4,0,2.1c0,0.3,0,0.6-0.4,0.6
			c-0.3,0-0.4-0.3-0.4-0.6c0-1.1-0.4-2.4,0.1-3.2c0.5-0.9,1.8-0.5,2.7-0.2C488.8,298.1,489,298.4,489.2,298.5L489.2,298.5z"/>
		<path fill="#3D4391" d="M520.9,298c-1.4,0.9-1.4,2.7,0,3.8c-1.3,0.5-1.7,0.2-1.9-1c-0.1-0.8,0.4-1.8-0.5-2.6
			c-0.3-0.2,0.4-0.9,0.8-1.3c0.4-0.4,0.6,0,0.7,0.5C520,297.9,520.9,297.5,520.9,298z"/>
		<path fill="#373F8F" d="M513,293.3c-1.5,0-2.3-1-2.2-2.4c0.1-1.4,1.2-2.3,2.6-2.1c0.3,0,0.7,0.1,0.7,0.5c0,0.5-0.5,0.3-0.8,0.2
			c-1.1,0-1.6,0.5-1.6,1.6c0,0.9,0.5,1.4,1.4,1.5c0.3,0,1-0.5,1,0.3C514,293.5,513.3,293.2,513,293.3z"/>
		<path fill="#363F8E" d="M499.3,289.3c-1.1,0.3-2.5,0.1-2.5,1.7c0,1.7,1.4,1.6,2.6,1.7c-1.1,0.8-2.1,0.8-2.9-0.1
			c-0.8-0.9-0.8-1.9-0.1-2.9C497.1,288.7,498.2,288.7,499.3,289.3z"/>
		<path fill="#38408F" d="M497.9,284.1c-1.2,0.6-2.3,0.8-3-0.4c-0.6-1-0.6-2,0.2-2.9c0.8-0.9,1.8-1,3.1-0.2
			c-1.3,0.4-2.9,0.1-2.8,1.9C495.6,284,496.9,283.8,497.9,284.1z"/>
		<path fill="#373F8F" d="M513.1,302.1c-1.4,0-2.3-0.8-2.3-2.2c0-1.4,1-2.4,2.4-2.3c0.4,0,0.9,0,0.9,0.5c0,0.7-0.5,0.2-0.8,0.2
			c-0.9,0.1-1.5,0.6-1.5,1.6c0,1,0.5,1.5,1.5,1.6c0.3,0,0.9-0.5,0.8,0.2C514,302.3,513.4,302.1,513.1,302.1z"/>
		<path fill="#474B95" d="M519.7,290.2c0,0.9,0,1.7,0,2.6c0,0.2-0.1,0.4-0.3,0.5c-0.3,0-0.6-0.1-0.6-0.4c0-1.8,0-3.7,0-5.5
			c0-0.1,0.3-0.4,0.4-0.4c0.3-0.1,0.5,0.2,0.5,0.5C519.7,288.4,519.7,289.3,519.7,290.2C519.7,290.2,519.7,290.2,519.7,290.2z"/>
		<path fill="#404692" d="M520.4,281.9c-0.4-1.2,0-1.9,1.6-1.8c0.2,0,0.4-0.1,0.5,0.2c0.1,0.2,0.1,0.5-0.1,0.6
			c-1.5,0.4-1,1.7-1.1,2.7c0,0.3,0.2,0.9-0.3,0.9c-0.7,0.1-0.5-0.6-0.5-1C520.4,283,520.4,282.6,520.4,281.9z"/>
		<path fill="#444994" d="M496.4,298.5c0-1,0.7-1,1.3-0.9c0.7,0,1.2,0.6,1.2,1.3c0.1,0.9,0,1.7,0,2.6c0,0.3,0,0.6-0.4,0.6
			c-0.3,0-0.5-0.2-0.5-0.5c0-0.5-0.1-1,0-1.5C498.3,298.8,497.8,298.1,496.4,298.5C496.4,298.5,496.4,298.5,496.4,298.5z"/>
		<path fill="#404692" d="M500.9,289.3c1.6-0.9,2.7-0.4,2.7,1.4c0,0.9,0.3,2.5-0.3,2.4c-1.2-0.1-0.4-1.4-0.6-2.2
			c-0.2-0.9-0.5-1.4-1.5-1.2C501.2,289.6,501,289.5,500.9,289.3z"/>
		<path fill="#2E388B" d="M506.7,284.2c-1.6,0.4-1.7,0.2-1.9-1c-0.1-0.8,0.5-1.7-0.5-2.5c-0.4-0.3,0.5-0.9,0.8-1.3
			c0.3-0.4,0.4,0.2,0.6,0.4c0.3,0.5,1.6,0.5,0.1,1.4C505.2,281.6,505.2,283.5,506.7,284.2z"/>
		<path fill="#3B4290" d="M507.2,298.6c-1.5-0.5-1.6,0.4-1.7,1.5c0,0.7,0.5,1.9-0.5,1.9c-0.9,0-0.2-1.3-0.4-1.9c-0.1-0.3,0-0.7,0-1
			c-0.2-1.2,0.3-1.4,1.3-1.2C506.3,298.1,507.2,297.5,507.2,298.6z"/>
		<path fill="#2F3A8C" d="M500.9,289.3c0.1,0.1,0.3,0.2,0.4,0.3c-0.9,0.8-0.5,1.9-0.6,2.9c0,0.3,0,0.6-0.3,0.7
			c-0.5,0.1-0.5-0.3-0.5-0.7c0-1.6,0-3.3,0-4.9c0-0.3-0.1-0.7,0.4-0.7c0.4,0,0.3,0.5,0.4,0.8C500.8,288.3,500.5,288.8,500.9,289.3z"
			/>
		<path fill="#3A4190" d="M510.2,291.1c-0.4,0.8,0.4,2.1-0.6,2.1c-0.9,0-0.4-1.3-0.4-2c0-0.7-0.5-2,0.4-2
			C510.7,289.1,509.7,290.5,510.2,291.1z"/>
		<path fill="#484C96" d="M499.4,282.3c-0.3,0.7,0.4,2-0.5,2c-0.9,0-0.4-1.4-0.4-2.1c0-0.7-0.4-2,0.4-2
			C499.9,280.3,499.1,281.6,499.4,282.3z"/>
		<path fill="#2C378A" d="M510.2,299.8c-0.4,0.7,0.4,2-0.6,2.1c-0.7,0-0.3-1.3-0.3-2c0-0.7-0.6-2,0.5-2
			C510.5,297.9,509.8,299.2,510.2,299.8z"/>
		<path fill="#3A4290" d="M507.2,298.6c-0.2-0.6-1-0.2-1.3-0.7c1.6-0.5,2.3-0.1,2.3,1.4c0,0.9,0.2,1.8-0.3,3
			C507.1,301,507.8,299.6,507.2,298.6z"/>
		<path fill="#343D8D" d="M489.2,298.5c-0.1-1.1,0.8-0.6,1.2-0.7c0.8-0.1,1.2,0.4,1.4,1.1c0.1,0.2,0.1,0.4,0,0.6
			c-0.2,0.7,0.4,2-0.4,2.1c-0.8,0-0.3-1.2-0.3-1.9C491.1,298.3,490.2,298.4,489.2,298.5C489.2,298.5,489.2,298.5,489.2,298.5z"/>
		<path fill="#333D8D" d="M521.9,302c-0.6-1.2-0.3-2.5-0.4-3.8c0-0.2,0.1-0.4,0.3-0.5c0.3,0,0.4,0.1,0.4,0.4
			C522.3,299.4,522.6,300.8,521.9,302z"/>
		<path fill="#6665A4" d="M522,296c0.3,0.1,0.5,0.3,0.5,0.7c0,0.3-0.2,0.5-0.5,0.5c-0.4,0-0.6-0.3-0.5-0.6
			C521.5,296.2,521.6,296,522,296z"/>
		<path fill="#424793" d="M507.3,290c0.5,1,0.1,2.1,0.3,3.2C507.1,292.2,507.5,291.1,507.3,290z"/>
		<path fill="#494D96" d="M510.1,287.7c0,0.3-0.2,0.5-0.4,0.6c-0.3,0.1-0.5-0.1-0.6-0.4c-0.1-0.3,0.1-0.5,0.4-0.6
			C509.9,287.2,510.1,287.4,510.1,287.7z"/>
		<path fill="#434894" d="M495.5,298.9c0.6,0.9,0.2,1.9,0.3,2.9C495.3,300.8,495.7,299.8,495.5,298.9z"/>
		<path fill="#3E4491" d="M510.2,296.6c-0.1,0.4-0.3,0.5-0.6,0.5c-0.3,0-0.5-0.3-0.4-0.6c0-0.3,0.3-0.5,0.5-0.4
			C510,296.1,510.2,296.3,510.2,296.6z"/>
		<path fill="#464B95" d="M499.4,279.1c-0.1,0.3-0.2,0.5-0.5,0.4c-0.3,0-0.5-0.3-0.4-0.5c0-0.3,0.3-0.4,0.6-0.4
			C499.3,278.5,499.4,278.8,499.4,279.1z"/>
		<path fill="#11102B" d="M476.8,223.9c0.1,0,0.2,0,0.3,0c0.5,0.5,0.4,1.1,0.5,1.7c0,1.4,0.1,2.7,0,4.1c-0.1,0.8,0,1.5,0,2.3
			c0,0.3,0,0.6,0,0.8c0,0.6,0,1.3,0,1.9c0,0.5,0,1.1,0,1.6c0,0.5,0,1.1,0,1.6c0,0.5,0,0.9,0,1.4c0,0.4,0,0.7,0,1.1
			c0,0.9,0,1.9,0,2.8c0,0.7,0,1.5,0,2.2c0,0.4,0,0.7,0,1.1c0,0.4,0,0.9,0,1.3c0,0.5,0,1,0,1.6c0,0.3,0,0.7,0,1c0,0.4,0,0.9-0.1,1.3
			c-0.1,0.2-0.2,0.3-0.3,0.4c-0.2,0-0.4,0-0.4-0.3c0-0.5,0-1,0-1.5c0-4.6,0-9.2,0-13.8c0.1-2.8-0.1-5.5,0.1-8.3
			C476.8,226.9,476.8,225.4,476.8,223.9z"/>
		<path fill="#383534" d="M476.7,228.4c0,2.8,0,5.5,0,8.3c-0.1,0.1-0.2,0.2-0.3,0c0-1.2-0.1-2.4-0.1-3.6
			C476.7,231.5,476.2,229.9,476.7,228.4z"/>
		<path fill="#DEDCDC" d="M531.4,216.7c2.5,0.6,3,1.3,3.3,4.5c0.5,4.1,0.1,8.2,0.4,12.2c0.5,6.5,0.3,13.1,0.2,19.6
			c-0.1,4.3-0.2,8.7-0.3,13.1c0,1.4-0.2,2.8-0.3,4.2c-0.2,2.6-1.8,3.9-4.7,4c-13.9,0.6-27.9,0.3-41.9,0.3c-2.5,0-5.1,0-7.6-0.5
			c-2-0.3-3.1-1.4-3.4-3.4c0.2-0.1,0.3-0.1,0.5-0.1c0.3,0.1,0.5,0.3,0.6,0.5c0.9,1.5,2.1,2,3.8,2c12.9,0.6,25.8,0.2,38.7,0.3
			c3,0,6-0.2,9-0.3c2.9-0.1,3.8-1.2,4-4.1c0.5-4.4,0.4-8.8,0.2-13.2c0-0.2,0-0.4,0-0.6c0.1-0.3,0.2-0.5,0.3-0.8
			c0.2-6.2,0.1-12.3,0-18.5c-0.1-0.2-0.1-0.4-0.1-0.6c-0.2-3.6,0-7.2-0.3-10.8c-0.1-0.3-0.1-0.6-0.1-1c0-1.7,0.4-3.4-0.8-4.8
			c-0.5-0.5-1.2-0.7-1.6-1.3C531.1,217.3,531.1,217,531.4,216.7z"/>
		<path fill="#121222" d="M477.3,270.7c-0.1,0-0.2,0-0.2,0c0-0.9,0-1.9,0-2.8c-0.3-1.3,0.1-2.7-0.2-4c0-1.6-0.1-3.2-0.1-4.8
			c-0.2-2.3-0.3-4.6,0-7c0.1,0,0.2,0,0.2,0c0.5,0.3,0.5,0.8,0.5,1.2c0,0.6,0,1.3,0,1.9c0,0.2,0,0.4,0,0.5c0,0.4,0,0.9,0,1.3
			c0,0.6,0,1.2,0,1.9c0,0.2,0,0.4,0,0.5c0,1.5,0.5,2.9,0.3,4.4c0.1,0.9,0,1.8,0,2.8c0,0.4,0,0.9,0,1.3c0,0.6,0.1,1.1,0.4,1.7
			c0.8,0.6,1.8,0.2,2.7,0.4c0.5,0.1,1.4-0.2,1.3,0.9c-0.6,0.4-1.3,0.3-2,0.3C479.3,271.2,478.3,271.2,477.3,270.7z"/>
		<path fill="#262334" d="M516.7,216.1c0.8,0,1.5-0.1,2.3-0.1c1.2,0,2.4,0,3.5,0.1c1.4,0.3,2.8,0,4.2,0.2c0.3,0.1,0.5,0.3,0.6,0.6
			c0,0.2-0.2,0.4-0.4,0.4c-1.5,0.4-3-0.2-4.5-0.1c-2.2,0.1-4.4,0-6.5,0c-0.7,0-1.6,0.1-2.1-0.6C514.6,215.8,515.7,216.5,516.7,216.1
			z"/>
		<path fill="#201D2F" d="M531.4,216.7c0,0.3,0.1,0.6,0.1,0.9c0.1,0.1,0.2,0.3,0.2,0.4c0.1,0.4,0.1,0.8,0.1,1.2c0,0.6,0,1.1,0.2,1.7
			c0,0.2,0.1,0.3,0.1,0.5c0.1,0.6,0,1.2-0.1,1.8c-0.3,0.7-0.2,1.5-0.2,2.3c0,0.6,0.1,1.2-0.2,1.8c-0.1,0.2-0.3,0.2-0.4,0.2
			c-0.2-0.1-0.3-0.2-0.4-0.4c-0.2-0.4-0.2-0.9-0.2-1.3c0-0.3,0-0.7,0-1.1c0-0.5,0-1,0-1.6c0-0.4,0-0.9,0-1.3c0-0.9,0.1-1.9-0.1-2.8
			c0-0.2-0.1-0.3-0.1-0.5c-0.1-0.5-0.1-1,0.1-1.5c0.1-0.2,0.3-0.4,0.6-0.4C531.2,216.7,531.3,216.7,531.4,216.7z"/>
		<path fill="#0A0724" d="M476.5,236.7c0.1,0,0.2,0,0.3,0c0,4.7,0,9.4,0,14.1c-0.1,0.1-0.2,0.1-0.3,0
			C476.5,246.1,476.5,241.4,476.5,236.7z"/>
		<path fill="#292629" d="M476.5,250.7c0.1,0,0.2,0,0.3,0c0,0.4,0,0.9,0,1.3c0,2.3,0,4.6,0,7C476.3,256.3,476.5,253.5,476.5,250.7z"
			/>
		<path fill="#DEDCDC" d="M526.8,216.4c-1.4-0.2-2.9,0.1-4.3-0.4c1.8,0.1,3.6-0.3,5.3,0.3C527.5,216.7,527.2,216.6,526.8,216.4z"/>
		<path fill="#2A2828" d="M476.8,263.8c0.6,1.3,0.2,2.7,0.2,4C476.6,266.5,476.8,265.2,476.8,263.8z"/>
		<path fill="#353231" d="M526.8,216.4c0.3,0,0.7-0.1,1-0.1c0.9,0.3,1.8-0.2,2.6,0.4c-0.4,0.4-0.9,0.4-1.3,0.5
			c-0.7,0-1.4,0.1-1.9-0.4C527.1,216.6,527,216.5,526.8,216.4z"/>
		<path fill="#201E21" d="M529.1,216.8c0.4,0,0.9,0,1.3-0.1c0.2,0,0.4,0.1,0.6,0.1c-0.1,0.1-0.2,0.2-0.4,0.3
			c-0.5,0.4-0.9,0.4-1.5,0.1C529.1,217.1,529.1,217,529.1,216.8z"/>
		<path fill="#0C0A0A" d="M516.7,216.1c-0.9,0.5-2,0.1-2.9,0.3c-0.6,0.6-1.4,0.5-2.2,0.5c-5.6,0-11.1,0-16.7,0
			c-1.1-0.3-2.4,0.4-3.4-0.6c0-0.1,0-0.1,0-0.2C499.9,215.9,508.3,215.9,516.7,216.1z"/>
		<path fill="#F5F4F7" d="M518.8,282.2c-0.1,0.8-0.2,1.6-1.2,1.6c-0.9,0-1.2-0.7-1.2-1.4c0-0.9,0.3-1.6,1.2-1.6
			C518.5,280.8,518.7,281.5,518.8,282.2z"/>
		<path fill="#BDBAD7" d="M502,281.9c-0.3-0.2-1,0.3-1-0.4c0-0.5,0.5-0.8,1-0.8c0.4,0,0.9,0.2,0.9,0.7
			C503,282.1,502.4,281.8,502,281.9z"/>
		<path fill="#E7E5EF" d="M516.4,299.9c0.5-0.1,0.7,0.1,0.7,0.5c0,0.6-0.3,0.9-0.8,1c-0.4,0.1-0.8-0.1-0.8-0.6
			C515.4,300.1,516,300.1,516.4,299.9z"/>
		<path fill="#E4E3EE" d="M516.6,291.1c0.5,0,0.5,0.3,0.5,0.7c-0.1,0.5-0.4,0.9-0.9,0.9c-0.4,0-0.7-0.2-0.7-0.7
			C515.5,291.3,516.1,291.2,516.6,291.1z"/>
		<path fill="#BFBCD8" d="M492.3,290.8c0.4-1,0.7-1.6,1.6-1.3c0.4,0.1,0.7,0.6,0.5,0.8C494,291.1,493.2,290.5,492.3,290.8z"/>
		<path fill="#F0EFF5" d="M493.2,282.4c-0.1,0.7-0.3,1.4-1.3,1.4c-0.9,0-1.1-0.8-1.1-1.5c0-0.8,0.2-1.6,1.2-1.6
			C492.9,280.8,493.2,281.5,493.2,282.4z"/>
		<path fill="#E9E7F0" d="M525.2,298.3c0.9,0.2,1.3,0.9,1.2,1.7c-0.1,0.8-0.4,1.6-1.4,1.5c-0.9-0.1-1.2-0.9-1.1-1.7
			C524,298.9,524.4,298.4,525.2,298.3z"/>
		<path fill="#EBEAF1" d="M484.3,299.8c-0.2,0.8-0.4,1.7-1.4,1.6c-0.9-0.1-1.2-0.9-1.2-1.7c0-0.8,0.4-1.5,1.2-1.5
			C483.9,298.3,484.1,299.1,484.3,299.8z"/>
		<path fill="#33449B" d="M494.8,216.4c6.3,0,12.7,0,19,0c2.7,0.4,5.4,0.2,8.1,0.3c1.8,0.1,3.6,0.1,5.3,0.2c0.7,0,1.3-0.1,2,0.1
			c0.5,0,1.1,0,1.6,0.1c0.2,0.5,0.2,1.1,0.1,1.6c-0.7,0.9-1.8,0.7-2.7,0.7c-9.5-0.3-18.9,0-28.4,0c-5.1,0-10.2-0.2-15.3-0.1
			c-1.8,0-3.6,0-5.4,0c-1.3,0-1.6-0.5-1.3-1.7c0.3-1,1.2-0.2,1.7-0.6c1.3-0.4,2.7,0.1,4-0.3c1.5,0,3,0,4.6-0.1
			C490.2,216.3,492.5,216.8,494.8,216.4z"/>
		<path fill="#31429B" d="M477.7,217.6c-0.2,1.1,0.4,1.3,1.4,1.3c7.5,0,15.1,0,22.6,0c8.3,0,16.6,0,24.9,0c1.4,0,2.8,0.1,4.2-0.2
			c0.1,0.1,0.1,0.2,0,0.2c0.2,1.8,0.1,1.9-1.5,1.9c-9.4,0-18.8-0.2-28.3,0c-6.9,0.1-13.8-0.1-20.8,0.1c-1,0-2,0.1-2.8-0.5
			C477.5,219.4,477.2,218.4,477.7,217.6z"/>
		<path fill="#2F409A" d="M477.5,220.3c8.6,0,17.3,0.1,25.9,0c8.8-0.1,17.6,0,26.4,0.1c1.4,0,0.9-0.9,1-1.5c0.4,1,0.2,2,0.2,3
			c-1.9,0.1-3.7-0.1-5.5-0.1c-13,0-26,0-38.9,0c-3,0-6-0.2-9,0.3c-0.4-0.2-0.3-0.5-0.2-0.8C477.4,221,477.5,220.6,477.5,220.3z"/>
		<path fill="#262335" d="M494.8,216.4c-2.3,0.4-4.6,0.2-6.9,0.3c1.2-0.6,2.4-0.1,3.6-0.4C492.6,216.3,493.7,216.4,494.8,216.4z"/>
		<path fill="#262335" d="M483.4,216.7c-1.3,0.4-2.6,0.3-4,0.3C480.7,216.4,482,216.8,483.4,216.7z"/>
		<path fill="#131134" d="M477.4,221.3c0,0.2,0.1,0.4,0.1,0.7c0.2,0.3,0.3,0.6,0.3,0.9c0,0.3-0.1,0.5-0.2,0.7
			c-0.1,0.1-0.3,0.1-0.4,0C477.2,222.8,476.9,222,477.4,221.3z"/>
		<path fill="#26233D" d="M477.1,223.6c0.1,0,0.1,0,0.2,0c0.5,0.1,0.5,0.5,0.5,0.8c0,0.4,0,0.7-0.2,1c-0.1,0.2-0.3,0.2-0.5,0.2
			c0-0.6-0.1-1.2-0.1-1.7C477.1,223.8,477.1,223.7,477.1,223.6z"/>
		<path fill="#292B76" d="M477.1,243.2c0-1,0-2,0-2.9c0.6-0.5,1.3-0.5,2-0.5c16.6,0,33.3,0,49.9,0c0.9,0,1.8,0,2.5,0.7
			c0.6,1.2,0.6,2.3,0,3.5c-17.1-0.4-34.3-0.1-51.4-0.2C479.1,243.7,478,244,477.1,243.2z"/>
		<path fill="#2B3491" d="M477.2,225.6c0.1-0.1,0.2-0.1,0.2-0.1c0.3,0.2,0.4,0.4,0.5,0.7c0.7,0.7,1.5,0.5,2.3,0.5
			c16,0,31.9,0,47.9,0c1,0,2.1-0.2,3,0.5c0.1,0.1,0.1,0.2,0,0.2c0.9,2.3,0.4,3.2-2,3.2c-16.6,0-33.2,0-49.8,0
			c-0.8,0-1.7,0.1-2.1-0.8C477.2,228.4,477.2,227,477.2,225.6z"/>
		<path fill="#282970" d="M477.1,243.2c17.4,0,34.8,0,52.2,0c0.7,0,1.6-0.2,2,0.6c0.5,0.5,0.4,1,0.1,1.5c-0.6,0.6-1.4,0.6-2.1,0.6
			c-16.8,0-33.6,0-50.4,0c-0.7,0-1.3,0-1.8-0.5C477.1,244.7,477.1,244,477.1,243.2z"/>
		<path fill="#2C328C" d="M477.2,229.8c0.6,0.4,1.4,0.3,2.1,0.3c16.3,0,32.7,0,49,0c2.8,0,2.8,0,2.9-2.7c0.1,0.1,0.2,0.1,0.2,0.2
			c0.8,1.5,0.7,3.1,0.1,4.6c-0.9,0.4-1.9,0.4-2.9,0.4c-16.4,0-32.8,0-49.2,0c-0.8,0-1.5,0.1-2.2-0.5
			C477.2,231.3,477.2,230.6,477.2,229.8z"/>
		<path fill="#2B2F7F" d="M477.1,239.3c0-0.4,0-0.9,0-1.3c0.2-0.7,0.7-1.1,1.4-1.1c0.3,0,0.7,0,1,0c16.4,0,32.9,0,49.3,0
			c1.1,0,2.1,0.1,2.7,1.1c0.3,0.6,0.4,1.3-0.2,1.8c-0.8,0.2-1.6,0.1-2.4,0.1c-16.4,0-32.9,0-49.3,0
			C478.8,239.8,477.8,240,477.1,239.3z"/>
		<path fill="#2C2F84" d="M531.4,238c-0.5-0.4-1-0.7-1.8-0.7c-16.9,0-33.7,0-50.6,0c-0.7,0-1.4,0-1.9,0.7c0-0.5,0-1.1,0-1.6
			c0.4-0.8,1-1.1,1.8-1.1c0.4,0,0.9,0,1.3,0c16.3,0,32.5,0,48.8,0c0.8,0,1.6-0.1,2.4,0.3C532,236.4,532.1,237.2,531.4,238z"/>
		<path fill="#26266B" d="M477.1,247.8c0-0.4,0-0.9,0-1.3c0.6-0.6,1.3-0.5,2-0.5c16.7,0,33.4,0,50.1,0c0.8,0,1.7,0,2.3,0.7
			c0.3,0.5,0.3,1.1-0.1,1.6c-0.7,0.5-1.6,0.4-2.4,0.4c-16.4,0-32.9,0-49.3,0C478.8,248.7,477.8,248.8,477.1,247.8z"/>
		<path fill="#2B3188" d="M477.2,234.7c0-0.7,0-1.3,0-2c0.6-0.3,1.2-0.2,1.8-0.2c16.7,0,33.5,0,50.2,0c0.8,0,1.5-0.1,2.2,0.3
			c0.5,0.5,0.5,1,0.2,1.5c-0.6,0.8-1.5,0.8-2.4,0.8c-16.6,0-33.2,0-49.8,0C478.6,235.2,477.8,235.2,477.2,234.7z"/>
		<path fill="#252468" d="M477.1,247.8c0.6,0.4,1.4,0.3,2.1,0.3c17.4,0,34.8,0,52.2,0c0.4,0.4,0.3,0.8,0.1,1.2
			c-0.6,0.6-1.4,0.6-2.1,0.6c-16.8,0-33.6,0-50.4,0c-0.7,0-1.3,0-1.8-0.5C477.1,248.9,477.1,248.3,477.1,247.8z"/>
		<path fill="#242363" d="M477.1,251.7c0-0.4,0-0.9,0-1.3c0.5-0.5,1.1-0.5,1.7-0.5c17.5,0,35,0,52.5,0c0.6,0.3,0.5,0.8,0.4,1.4
			c-0.3,0.6-0.9,0.8-1.5,0.8c-1.4,0-2.8,0.3-4.2,0.4c-2.3-1.7-4.9-1.4-7.4-1.2c-2.1,0.2-4.1,1-5.8,2.3c-0.5,0.4-1,0.8-1.8,0.4
			c-0.8-0.6-0.2-2-1.3-2.3c-1.2-0.3-2.5-0.2-3.7-0.1c-3.4,0.4-6.7,0.3-10.1,0.1c-2.3-0.1-2.3-0.3-3.1,1.9c-0.1,0.2-0.2,0.4-0.4,0.5
			c-0.1,0-0.2,0-0.3-0.1c-0.6-0.7-0.4-2-1.6-2.3c-1.7-0.4-3.5-0.5-5.2,0c-0.6,0.2-1.2,0.4-1.9,0.4c-1.5,0.1-3.1,0.1-4.6,0
			C478.2,252.2,477.6,252.2,477.1,251.7z"/>
		<path fill="#2C3086" d="M477.2,234.7c0.9-0.3,1.8,0,2.7,0c16.2,0,32.5,0,48.7,0c0.9,0,1.8,0,2.7-0.3c0.5,0.4,0.4,0.9,0,1.3
			c-17.3,0-34.6,0-51.8,0c-0.9,0-1.7,0-2.4,0.7C477.1,235.8,477.1,235.3,477.2,234.7z"/>
		<path fill="#27286E" d="M531.4,246.8c-0.7-0.5-1.5-0.3-2.2-0.3c-17.3,0-34.7,0-52,0c0-0.3,0-0.7,0-1c17.4,0,34.8,0,52.2,0
			c0.7,0,1.4,0.1,2.1-0.3C531.9,245.7,531.9,246.3,531.4,246.8z"/>
		<path fill="#2B2D7B" d="M477.1,239.3c17.3,0,34.7,0,52,0c0.8,0,1.5-0.2,2.2,0.3c0.3,0.3,0.3,0.7,0,1c-0.8-0.3-1.7-0.3-2.6-0.3
			c-17.2,0-34.5,0-51.7,0C477.1,239.9,477.1,239.6,477.1,239.3z"/>
		<path fill="#2C328A" d="M531.4,233.1c-17.4,0-34.8,0-52.1,0c-0.7,0-1.4,0.1-2.1-0.3c0-0.2,0-0.4,0-0.7c17.2,0,34.4,0,51.6,0
			c0.9,0,1.7-0.3,2.6,0C531.7,232.4,531.7,232.7,531.4,233.1z"/>
		<path fill="#242365" d="M531.4,250.1c-0.6,0.4-1.4,0.3-2.1,0.3c-17.4,0-34.8,0-52.2,0c0-0.3,0-0.7,0-1c17.4,0,34.8,0,52.2,0
			c0.7,0,1.4,0.1,2.1-0.3C531.7,249.4,531.7,249.8,531.4,250.1z"/>
		<path fill="#232260" d="M477.1,251.7c2.2,0,4.4,0,6.6,0c0.1,1.3-0.9,1.9-1.6,2.7c-0.9-0.6-1.8-0.8-2.9-0.7c-0.7,0.1-1.4-0.1-2-0.4
			c0-0.4-0.1-0.9-0.1-1.3C477.1,252,477.1,251.8,477.1,251.7z"/>
		<path fill="#C6C4C4" d="M531.5,219.3c0-0.4,0-0.9-0.1-1.3c0.8,0.1,1.3,0.6,1.7,1.2c0.1,0.3,0.2,0.5,0.3,0.8c0.2,0.8,0,1.6,0.3,2.4
			c0,0.6,0,1.1,0,1.7c0.4,3,0.1,5.9,0.2,8.9c0.1,0.9,0.2,1.7,0.1,2.6c0.2,0.6,0.2,1.3,0.2,1.9c0,5.3,0,10.5,0,15.8
			c0,0.7,0,1.4-0.3,2.1c0,0.1,0,0.2,0,0.3c0,5.1,0.2,10.1-0.5,15.2c-0.7,2-2.3,2.4-4.1,2.5c-6.1,0.2-12.3,0.4-18.4,0.3
			c-6.5-0.1-13-0.1-19.4,0c-3.4,0-6.7-0.4-10.1-0.4c-1.3,0-2.6-0.4-2.9-2c0.1-0.4,0.4-0.4,0.7-0.3c1.7,1.3,3.7,1,5.7,1
			c0.6,0,1.1,0,1.7,0.1c1.1,0.4,2.2,0.3,3.3,0.2c0.8,0,1.6,0,2.4,0c8.1,0,16.1,0,24.2,0c1.1-0.1,2.2,0,3.4,0c1.9,0.2,3.7,0,5.5-0.3
			c1.4-0.1,2.8,0,4.2-0.1c1.8-0.1,2.5-0.8,2.6-2.5c0.2-2.5,0.3-5,0.4-7.5c0.1-7.5,0.6-15,0.2-22.5c-0.3-5.8,0-11.7-0.6-17.5
			c-0.1-0.7-0.2-1.4-0.5-2C531.7,219.6,531.6,219.5,531.5,219.3z"/>
		<path fill="#CFCCCC" d="M478.7,271.1c0.5,1.6,1.8,1.8,3.2,1.9c10.5,0.6,21.1,0.2,31.6,0.4c5.3,0.1,10.6-0.3,15.9-0.3
			c1.8,0,3.2-0.6,3.9-2.3c0.4-0.5-0.3-1.4,0.7-1.6c0,3.1-1.2,4.4-4.2,4.6c-13.3,0.6-26.6,0.2-39.9,0.3c-2.9,0-5.8-0.2-8.8-0.3
			c-1.7-0.1-2.8-1.1-3.4-2.6C478.1,270.8,478.4,270.8,478.7,271.1z"/>
		<path fill="#CCCACA" d="M534,269.1c-0.6,0.4,0,1.3-0.7,1.6c0.4-4.8,0.3-9.7,0.4-14.5c0-0.2,0.2-0.4,0.3-0.5
			c0.1,0.3,0.3,0.5,0.3,0.8C534.3,260.6,534.7,264.9,534,269.1z"/>
		<path fill="#CCCACA" d="M534.1,255.3c0-5.9,0-11.8,0-17.7c0-0.9-0.3-1.7,0-2.6c0.3-0.1,0.5,0,0.3,0.3c0,0.1,0,0.2,0,0.3
			c0.3,0.5,0.2,1.1,0.2,1.6c0,5.4,0,10.7,0,16.1c0,0.5,0.1,1.1-0.2,1.6C534.3,255.1,534.2,255.2,534.1,255.3z"/>
		<path fill="#CECCCC" d="M534.4,255c0-6.4,0-12.9,0-19.3c0.4,0.3,0.3,0.8,0.3,1.2c0,5.6,0,11.3,0,16.9
			C534.7,254.2,534.8,254.7,534.4,255z"/>
		<path fill="#CECCCC" d="M534.4,235.4c-0.1-0.1-0.2-0.2-0.3-0.3c-0.2-0.5-0.2-1.1,0-1.6c-0.2-2.9-0.3-5.9,0-8.8
			c0.4,0.3,0.3,0.7,0.3,1C534.4,228.9,534.4,232.1,534.4,235.4z"/>
		<path fill="#CCCACA" d="M534.1,224.6c0,2.9,0,5.9,0,8.8c-0.6-0.8-0.3-1.7-0.3-2.5c-0.1-2.4,0-4.9,0-7.3c0.1-0.2,0.2-0.1,0.3,0
			C534,223.9,534,224.2,534.1,224.6z"/>
		<path fill="#CECCCC" d="M534,223.6c-0.1,0-0.2,0-0.3,0c0-0.4-0.3-0.9,0-1.3c-0.3-0.7,0-1.6-0.3-2.3c-0.3-0.1-0.3-0.4-0.3-0.7
			c-0.2-0.2-0.2-0.4,0-0.7C534.7,220.1,534,221.9,534,223.6z"/>
		<path fill="#2A2828" d="M478.7,271.1c-0.3,0-0.7,0-1,0c-0.1-0.1-0.3-0.2-0.4-0.3c1,0,2,0,3,0c0.1,0.1,0.1,0.2,0.1,0.2
			c0,0.1,0,0.1-0.1,0.1c-0.1,0.1-0.3,0.2-0.4,0.2c-0.2,0-0.4-0.1-0.6-0.2C479.2,271.1,479,271.1,478.7,271.1z"/>
		<path fill="#CCCACA" d="M533.1,218.7c0,0.2,0,0.4,0,0.7c-0.5-0.4-1-0.9-1.6-1.3c0-0.1,0-0.2,0-0.3
			C532.2,217.8,532.6,218.3,533.1,218.7z"/>
		<path fill="#0F1137" d="M477.8,269.7c-0.3-0.5-0.4-1.1-0.3-1.6c0.6-0.5,1.3-0.4,2-0.4c2.7-0.2,5.4,0.1,8.1-0.1
			c3.1,0.1,6.3,0,9.4,0.2c0.8,0.1,0.1-0.2,0.1-0.3c-0.2-0.5,0.1-0.7,0.4-0.9c0.7-0.3,1.5-0.3,2.2,0c0.7,0.6,0.2,0.8-0.2,1.1
			c1-0.2,2,0.1,3.1,0.1c4.2,0.2,8.4-0.1,12.6,0c1.1,0,0.3-1.2,1.2-1.2c3.2,0.4,6.3-0.1,9.4-0.4c0.4,0.1,0.7,0.3,0.7,0.7
			c0,0.4-0.4,0.6-0.7,0.5c-1.3-0.1-2.5,0.8-3.5,0.4c-0.5,0-0.3,0.3-0.4,0.1c0-0.1,0-0.1,0.1-0.1c2.4,0.2,4.9-0.3,7.3-0.1
			c0.6,0.1,0.9-0.3,1.1-0.8c0.2-0.3,0.4-0.7,0.8-0.2c0.4,1,0,2-0.3,3c-0.6,0.7-1.4,0.5-2.1,0.5c-8.7-0.1-17.4,0-26.1,0
			c-7.7,0-15.4,0-23.2-0.1C479,270,478.3,270.2,477.8,269.7z"/>
		<path fill="#0F1133" d="M477.8,269.7c17.7,0,35.3,0,53,0c0.3,1.1-0.5,1.1-1.1,1.1c-2,0-4,0.3-6,0.3c-8.3,0.1-16.6,0.6-24.8,0.3
			c-4.7-0.1-9.5-0.4-14.2-0.3c-0.7,0-1.5,0-2.2-0.4c-1-0.6-2.1-0.2-3.2-0.3C478.6,270.3,477.9,270.6,477.8,269.7z"/>
		<path fill="#151549" d="M477.5,263.8c-0.1-1.5-0.2-3-0.3-4.6c3.1,0.8,6.2,0.8,9.4,0.3c1.9,0.6,3.8,1,4.2,3.4
			c-0.6,1.6-2,1.2-3.2,1.2c-1.4,0-2.8-0.1-4.2,0.4c-0.4-0.1-0.7-0.5-0.9-0.8c-0.3-0.5-0.5-0.4-0.8,0
			C480.3,264.5,478.9,264.5,477.5,263.8z"/>
		<path fill="#0C0B19" d="M482.4,270.7c3.3,0,6.5-0.1,9.8,0.1c6.8,0.3,13.7,0.4,20.5,0.1c4.3-0.2,8.7-0.2,13-0.3
			c1.3,0,2.6-0.1,3.9-0.2c0.5,0,1.2,0.2,1.3-0.7c0-1.1,0.5-2.1,0.3-3.3c-0.2-0.2-0.3-0.5-0.4-0.8c0-0.7-0.1-1.4,0.5-1.9
			c1.2,0.6,0.5,1.7,0.7,2.6c-0.1,1.5,0.3,3-0.7,4.3c-1,0.7-2.1,0.2-3.1,0.6c-1.3,0.2-2.6,0.1-3.9,0.1c-1.8,0.1-3.6-0.2-5.3,0.2
			c-2.6,0.3-5.2,0-7.8,0.1c-4.7,0-9.3,0-14,0c-2.6-0.1-5.2,0.2-7.8-0.1c-1.8-0.5-3.6-0.2-5.4-0.2c-1.2-0.1-2.5,0.4-3.6-0.5
			c0-0.1,0-0.2,0-0.3C481,270.7,481.7,270.7,482.4,270.7z"/>
		<path fill="#0F123C" d="M487.6,267.8c-0.9,0.4-1.8,0.3-2.8,0.3c-2.4-0.1-4.9,0-7.3,0c0-0.4,0-0.9,0-1.3c0.7-1.5,2.7-2,3.9-0.8
			c0.5,0.5,0.9,0.4,1.4,0.3c1.9,0.5,3.8,0.2,5.7,0.6C489.2,268.3,488,267.6,487.6,267.8z"/>
		<path fill="#1A1750" d="M486.6,259.9c-1,0.4-2,0.6-3,0.5c-1.6-0.2-3.2-0.1-4.8-0.1c-0.8,0-1.3-0.3-1.6-1c0-0.1,0-0.2,0-0.3
			c1.9-0.9,4-0.3,5.9-0.5c0.5,0,1,0.1,1.5,0.1C485.4,258.8,486.4,258.8,486.6,259.9z"/>
		<path fill="#1C1953" d="M484.7,258.9c-2.5,0-5,0-7.5,0c0-0.6,0-1.3,0-1.9c1.5-0.4,3,0.1,4.6-0.2c0.2,0,0.3-0.1,0.5-0.1
			c1.1,0.2,1.7,1.1,2.5,1.7C484.8,258.6,484.8,258.7,484.7,258.9z"/>
		<path fill="#111242" d="M482.7,266.6c-0.5,0.8-1,0.5-1.4,0c-1.2-1.2-2.6-1.1-3.8,0.2c0-1,0-2,0-2.9c1.4-0.1,2.8,0.2,4.2-0.3
			C482.7,264.3,482.4,265.5,482.7,266.6z"/>
		<path fill="#211E5C" d="M477.1,253.4c1.3,0,2.7,0.1,4,0c0.9-0.1,0.6,0.7,0.9,1c0.4,0.4,0.4,0.8,0.1,1.3c-1.7-0.1-3.3-0.1-5-0.3
			C477.1,254.7,477.1,254,477.1,253.4z"/>
		<path fill="#1F1D59" d="M477.1,255.3c1.6-0.4,3.3-0.7,4.8,0.3c0.5,0.3,0.7,0.7,0.4,1.3c-0.1,0-0.3,0-0.4,0
			c-1.1-0.1-2.2-0.2-3.3-0.2c-0.8,0-1.4-0.2-1.5-1.1C477.1,255.5,477.1,255.4,477.1,255.3z"/>
		<path fill="#1E1C57" d="M477.1,255.7c0.5,0.8,1.3,0.6,2,0.6c1,0,2-0.1,2.9,0.7c-1.6,0.6-3.2,0.5-4.9,0
			C477.2,256.5,477.1,256.1,477.1,255.7z"/>
		<path fill="#111028" d="M529.1,217c-0.7,0-1.3-0.1-2-0.1c0-0.1,0-0.1,0-0.2c0.6,0,1.3,0,1.9,0C529.1,216.8,529.1,216.9,529.1,217z
			"/>
		<path fill="#2B3C97" d="M477.4,224.6c-0.1-0.3-0.1-0.6-0.2-1c0.1-0.2,0.1-0.4,0.2-0.7c0.6-0.6,1.4-0.5,2.2-0.5
			c16.3,0,32.6,0,48.9,0c0.9,0,1.9-0.2,2.5,0.8c0,0.5,0,1.1,0,1.6c-0.5,0.3-1.1,0.2-1.6,0.2c-16.3,0-32.6,0-48.9,0
			C479.5,225.1,478.4,225.2,477.4,224.6z"/>
		<path fill="#2D3F99" d="M531.1,223.2c-0.7-0.5-1.5-0.3-2.2-0.3c-17.1,0-34.2,0-51.3,0c0-0.3,0-0.7,0-1c0.8-0.6,1.6-0.7,2.6-0.7
			c16.1,0,32.2,0,48.2,0c1,0,1.9,0.1,2.7,0.6C531,222.4,531,222.8,531.1,223.2z"/>
		<path fill="#AEABAB" d="M524.3,271.1c1.3,0,2.5-0.1,3.8-0.1c0.9-0.3,1.8,0,2.7-0.1c0.8-0.5,0.8-1.3,0.9-2.1
			c0.3-9.6,0.7-19.2,0.5-28.8c-0.1-6-0.4-12-0.4-17.9c0-0.3,0-0.5-0.2-0.8c-0.1-0.1-0.1-0.1,0-0.2c-0.2-0.6-0.2-1.2,0-1.8
			c0.8,0.5,0.9,1.3,1,2.1c0.6,4.9,0.1,9.7,0.5,14.6c0.4,6,0.4,12,0.1,17.9c-0.3,5,0.1,10-0.5,14.9c-0.3,2.5-1,3.4-3.5,3.4
			c-1.3,0-2.5,0-3.8,0c-0.8-0.7-1.5,0.2-2.2,0.2c-1.1,0-2.2-0.2-3.3,0.1c-1.1,0-2.2,0-3.3,0c-0.3-0.2-0.7-0.2-1.1-0.2
			c-7.4,0-14.9,0-22.3,0c-0.4,0-0.8-0.1-1.1,0.2c-0.8,0-1.5,0-2.3,0c-1.1-0.2-2.2-0.4-3.3-0.3c-0.5,0-1.1,0-1.6,0
			c-1.1-0.4-2.3,0-3.5-0.3c-0.6-0.2-1.3-0.1-1.4-1c0.1,0,0.2-0.1,0.3-0.1c1.2,0,2.3,0.1,3.5,0.1c1.8,0.4,3.6-0.1,5.3,0.2
			c2.6,0.1,5.2,0.3,7.8,0.1c4.8,0.2,9.5,0.2,14.3,0c2.6,0.2,5.2,0,7.7-0.1C520.8,271,522.6,271.4,524.3,271.1z"/>
		<path fill="#2C3A96" d="M477.4,224.6c0.9,0,1.8,0,2.7,0c16.2,0,32.4,0,48.7,0c0.8,0,1.5-0.1,2.2,0.3c0,0.3,0,0.7,0.1,1
			c-0.7,0.6-1.5,0.5-2.3,0.5c-16.6,0-33.3,0-49.9,0c-0.5,0-1,0-1.4-0.2c0-0.2,0-0.5-0.1-0.7C477.4,225.2,477.4,224.9,477.4,224.6z"
			/>
		<path fill="#2A3895" d="M477.5,226.2c0.7-0.4,1.5-0.3,2.2-0.3c17.1,0,34.3,0,51.4,0c0,0.4,0,0.9,0,1.3c-17.6,0-35.2,0-52.8,0.1
			C477.2,227.2,477.5,226.8,477.5,226.2z"/>
		<path fill="#ADAAAA" d="M531.8,221.3c0.7,1.1,0.6,2.4,0.6,3.6c0.2,9.5,0.6,19,0.3,28.5c-0.1,5.3-0.4,10.6-0.7,15.9
			c0,0.6,0.2,1.6-1,1.7c-0.1,0-0.1-0.1-0.1-0.2c0-0.1,0-0.1,0.1-0.1c0.4-1.4,0.6-2.7,0.4-4.2c0.5-1.6-0.3-3.2-0.2-4.7
			c0.1-1.8-0.1-3.7,0.1-5.5c0.4-1.8,0.3-3.7,0.3-5.5c0.1-6.3,0-12.5,0-18.8c0-0.3,0-0.5-0.1-0.8c-0.1-1.8,0-3.7-0.1-5.5
			c0-0.8-0.1-1.6,0.1-2.4C531.7,222.6,531.7,222,531.8,221.3z"/>
		<path fill="#111027" d="M531.7,225.6c0,1.8,0.1,3.6,0.1,5.4c0.3,1.8,0.1,3.7,0.1,5.5c0,5.4,0,10.8,0,16.2c0,0.2-0.2,0.4-0.4,0.4
			c-0.6-0.5-0.5-1.1-0.1-1.7c0-0.4,0-0.9,0-1.3c0-0.3,0-0.7,0-1c0-0.3,0-0.7,0-1c0-0.4,0-0.9,0-1.3c0-0.5,0-1.1,0-1.6
			c0-0.4,0-0.9,0-1.3c0-1.1,0-2.2,0-3.3c0-0.3,0-0.7,0-1c0-0.5,0-1.1,0-1.6c0-0.8,0-1.5,0-2.3c0-0.4,0-0.9,0-1.3c0-0.4,0-0.9,0-1.3
			c0-0.3,0-0.7,0-1c0-1.5,0-3,0-4.5c0-0.7,0-1.4,0.1-2C531.6,225.4,531.6,225.4,531.7,225.6z"/>
		<path fill="#221F2C" d="M531.7,225.6c-0.1,0-0.2,0-0.3,0c0.1-0.8-0.2-1.5,0.2-2.3C531.7,224,531.7,224.8,531.7,225.6z"/>
		<path fill="#ADAAAA" d="M531.8,219.3c0,0.6,0,1.2,0,1.8c-0.3-0.6-0.1-1.2-0.2-1.8C531.6,219.3,531.7,219.3,531.8,219.3z"/>
		<path fill="#FBE707" d="M500,266.8c-0.9,0-1.7,0-2.6-0.1c-0.3-0.4-0.1-0.6,0.2-0.8c1.2-0.3,2.5-0.7,2.3-2.4c0-1.1,0-2.2,0-3.2
			c0-0.5,0-0.9,0-1.4c0-0.8,0-1.7,0-2.5c0-0.4,0-0.9,0-1.3c0.1-2.7-0.4-3.1-3-2.4c-1.3,0.3-2.4,0.9-3.2,2c-0.5,0.4-1,1.1-1.7,0.3
			c-0.1-0.3-0.1-0.7,0.1-1c0.3-0.1,0.3-0.4,0.3-0.7c0.1-2.5-0.3-2.4,2.7-2.3c4.3,0.2,8.7,0.1,13-0.1c2.4-0.1,2.4-0.2,2.8,2.2
			c0,0.3,0.2,0.5,0.3,0.7c0.7,1,0,1.3-0.8,1.6c-0.4-0.3-0.7-0.6-0.9-1c-1.2-2.2-4.3-2.9-5.9-1.4c-0.4,3.5-0.2,7-0.1,10.6
			c0,1.3,1.1,1.6,2.1,2c0.8,0.7,0.4,1.2-0.4,1.3C503.5,267.3,501.7,267.7,500,266.8z"/>
		<path fill="#FCE806" d="M510.6,255.7c0.2-0.5,0.9-0.8,0.7-1.5c2.2-1.7,4.5-3,7.3-3.2c2.2-0.2,4.3,0.2,6.5,0.3c0.9,0,0.9,0.6,1,1.2
			c0.5,0.3,0.6,0.8,0.7,1.3c0,0.7,0.6,1.8-0.9,1.8c-1-0.5-1.2-1.6-2-2.2c-0.8-0.7-1.8-1-2.9-1.2c-0.5,0-1,0-1.6,0
			c-0.1,0-0.3,0-0.4,0c-0.4,0-0.7,0.1-1,0.2c-0.7,0.2-1.3,0.5-1.9,0.9c-0.7,0.6-1.4,1.2-1.9,2c-0.1,0.2-0.3,0.5-0.4,0.7
			c-0.1,0.3-0.2,0.7-0.3,1c-0.1,0.4-0.2,0.9-0.3,1.3c-0.3,1.1,0.2,2,0.3,3.1c0.3,0.7,0.6,1.4,1.1,2c2.4,3.5,8.6,3.7,11.2-0.1
			c0.5-0.5,0.8-1.2,1.7-0.7c0.5,0.9,0,1.7-0.1,2.6c-0.3,0.5-0.1,1.3-1,1.4c-2.4,0.2-4.7,0.8-7.1,0.6c-1-0.1-2-0.2-3.1-0.3
			c-1.3,0.2-2.3-0.5-3.4-1.2c-0.8-0.7-1.5-1.4-2.1-2.2c-0.7-1.1-1.1-2.3-1.3-3.6c-0.1-0.5-0.1-1-0.1-1.5c0.2-0.7,0.3-1.5,0.6-2.1
			C510,255.9,510.2,255.7,510.6,255.7z"/>
		<path fill="#8A96C0" d="M492.2,254.2c0,0.2,0,0.5,0,0.7c-0.4,0.4-0.7,0.3-1.1,0c-0.3-0.5-0.4-1-0.8-1.5c-1.5-1.7-3.2-1.8-5-0.3
			c-0.3,0.4-0.6,0.9-0.4,1.5c0.1,0.5,0.5,0.8,0.6,1.3c-0.1,0.5,0.1,1-0.1,1.4c-0.2,0.4-0.4,0.9-0.8,1.3c-0.9-0.3-1.5-1.1-2.2-1.7
			c-0.1-0.4-0.3-0.9-0.4-1.3c0-0.4,0-0.9,0-1.3c0.6-0.9,1.1-1.7,1.7-2.6c1.8-0.6,3.5-1,5.4-0.7C492,251.4,491.7,250.7,492.2,254.2z"
			/>
		<path fill="#23225F" d="M526.2,253.7c-0.1-0.4-0.2-0.9-0.3-1.3c1.7-1.2,3.7-0.2,5.4-1c0,0.5,0,1.1,0.1,1.6c0.1,0.2,0,0.4-0.1,0.5
			C529.6,254,527.9,253.9,526.2,253.7z"/>
		<path fill="#B0AEAD" d="M492.2,272.7c0.4-0.5,0.9-0.3,1.4-0.3c7.3,0,14.5,0,21.8,0c0.5,0,1-0.1,1.4,0.3
			C508.5,272.7,500.3,272.7,492.2,272.7z"/>
		<path fill="#B0AEAD" d="M480.1,271.1c0.8,0.9,1.9,0.8,2.9,0.9c0.7,0.1,1.4-0.3,2,0.3c-1,0-2,0-2.9,0c-1.1,0-2-0.3-2.6-1.3
			C479.6,271.1,479.8,271.1,480.1,271.1z"/>
		<path fill="#B0AEAD" d="M520,272.7c1.7-0.6,3.6-0.2,5.3-0.8c0.2-0.1,0.3,0.2,0.3,0.5C523.7,272.7,521.8,272.7,520,272.7z"/>
		<path fill="#B0AEAD" d="M486.6,272.4c1.2-0.9,2.2,0.2,3.3,0.3C488.8,272.6,487.6,272.9,486.6,272.4z"/>
		<path fill="#CCCACA" d="M533.4,220c0.6,0.7,0.2,1.5,0.3,2.3C533.3,221.6,533.2,220.8,533.4,220z"/>
		<path fill="#0F113B" d="M512.8,265.4c1,0.6,2.1,1.1,3.2,1.4c0,0.3,0.2,0.5,0.5,0.6c0.3,0.1,0.5,0.2,0.3,0.6
			c-0.1,0.2-0.3,0.2-0.6,0.2c-3.7-0.1-7.5-0.1-11.2,0c-2.2,0.1-4.3-0.3-6.6-0.4c0.4-0.6,1.4-0.2,1.5-1c1.7,0,3.5,0,5.2,0
			c0.3,0,0.7,0.1,0.7-0.4c0-0.3-0.4-0.3-0.6-0.4c1-1.3,2.5-0.8,3.7-0.6C510.3,265.7,511.5,265.6,512.8,265.4z"/>
		<path fill="#0F113B" d="M497.7,266.1c-0.3,0.1-0.3,0.4-0.3,0.7c-0.1,0.3-0.3,0.6,0.1,0.9c0.7,0.5,0.1,0.6-0.2,0.6
			c-3.1-0.3-6.2-0.2-9.3-0.2c-0.1,0-0.3-0.2-0.4-0.3c0.1-0.6,1,0.2,1-0.6c0.8-0.8,1.9-0.9,2.9-1.3c1.6-0.4,3.2-0.6,4.9-0.5
			C496.8,265.4,497.5,265.2,497.7,266.1z"/>
		<path fill="#10133B" d="M526.2,266.5c0.5-0.3,0.1-1.1,0.6-1.4c1.4,0.4,2.9-0.1,4.3,0.7c0,0.2,0,0.4,0,0.7
			c-0.2,1.5-1.1,1.9-2.5,1.6c-2.3-0.4-4.6,0.3-7-0.4c1.2-0.2,2.5-0.4,3.7-0.6C525.7,267,526.5,267.5,526.2,266.5z"/>
		<path fill="#8995BB" d="M491.4,266.1c-0.9,0.5-1.9,0.9-2.9,1.1c-2-0.2-4,0.2-5.9-0.6c-0.9-0.1-0.6-0.8-0.7-1.3
			c-0.1-0.6-0.2-1.1-0.3-1.7c0.1-0.3-0.2-0.8,0.3-0.9c0.5-0.1,0.5,0.4,0.7,0.7c0.2,0.4,0.5,0.8,0.7,1.2c0.8,0.4,1.4,1,2.2,1.3
			c2.5,0.8,4,0,4.9-2.6c-0.5-2.1-2.4-2.5-4-3.3c-0.6-0.4-1.2-0.8-1.9-1c0-0.1,0-0.2-0.1-0.3c0-0.6,0.1-1.1,0.7-1.3
			c1.2-0.2,2.2,0.3,3.2,0.9c0.4,0.2,0.7,0.6,1.2,0.3c0.7-0.1,1.2,0.3,1.7,0.6c0.7,0.5,1.3,0.9,1.8,1.6c0.5,0.9,0.5,1.8,0.4,2.7
			C493.2,264.6,492.6,265.6,491.4,266.1z"/>
		<path fill="#121343" d="M490.6,263.2c0.4,1.3-0.2,2.2-1.2,2.8c-1.9,1.1-4.7,0.4-5.9-1.5c1.1-1.2,2.5-0.5,3.8-0.6
			C488.3,263.7,489.6,264.2,490.6,263.2z"/>
		<path fill="#111241" d="M531.1,265.8c-0.9,0-1.9,0-2.8,0c-0.6,0-1.2-0.1-1.4-0.7c0.1-0.8,0.2-1.7,0.4-2.5c0.7,1.2,1.9,0.8,2.9,0.9
			c0.3,0,0.6,0.1,0.9,0.2c0.1,0.1,0.1,0.1,0.2,0.2C531.1,264.5,531.1,265.1,531.1,265.8z"/>
		<path fill="#1D1B1E" d="M511.3,271.4c-0.9,0.5-1.9,0.2-2.9,0.2c-3.2,0-6.4,0-9.6,0c-0.6,0-1.2,0.1-1.8-0.2
			C501.7,271.4,506.5,271.4,511.3,271.4z"/>
		<path fill="#1F1D20" d="M531.7,261.9c0,1.6,0.2,3.1-0.2,4.7c-0.2-0.9,0.3-1.9-0.3-2.7c0,0-0.1,0-0.1,0c-0.2-0.3-0.3-0.6-0.2-0.9
			C531,262.5,531,261.9,531.7,261.9z"/>
		<path fill="#1C1A1F" d="M524.3,271.1c-1.8,0.5-3.6,0.3-5.3,0.2C520.8,270.7,522.6,271.1,524.3,271.1z"/>
		<path fill="#1C1A1F" d="M489.2,271.3c-1.8,0-3.6,0.2-5.3-0.2C485.7,271.1,487.5,270.7,489.2,271.3z"/>
		<path fill="#1C1A1F" d="M531,270.7c0,0.1,0,0.2,0,0.3c-1,0-1.9,0-2.9,0C529.1,270.4,530.1,270.8,531,270.7z"/>
		<path fill="#221F2C" d="M531.7,253c0-7.3,0-14.7,0.1-22c0.5,1.6,0.2,3.4,0.3,5c0.1,6.4,0,12.8,0,19.1c0,0.4,0,0.9-0.2,1.3
			C531,255.3,531.2,254.2,531.7,253z"/>
		<path fill="#161521" d="M531.7,253c0,1.1,0.1,2.2,0.1,3.4c0,1.8-0.1,3.7-0.1,5.5c-0.2,0.3-0.4,0.6-0.6,1c-0.3-0.2-0.4-0.6-0.5-1
			c-0.1-0.6,0-1.3,0-1.9c0.3-1,0.3-2.1,0.3-3.2c0-0.3,0-0.5,0-0.8c0-0.4,0-0.7,0-1.1c0-0.6,0-1.1,0.4-1.6c0-0.1,0.1-0.2,0.1-0.3
			C531.6,253,531.6,253,531.7,253z"/>
		<path fill="#1D1B55" d="M491.2,259.2c-0.5-0.2-1.1-0.5-1.6-0.7c-1.1-0.5-2.4-0.7-3.1-1.8c0.1-1.3,1.3-0.8,1.7-0.8
			c3.8-0.1,7.7-0.2,11.5-0.1c0.3,0,0.5,0.2,0.6,0.5c0,0.9,0,1.7,0,2.6c-2.5,0.7-5,0.4-7.5,0.4C492.3,259.3,491.7,259.2,491.2,259.2z
			"/>
		<path fill="#16154A" d="M493.1,263.5c0-1,0.1-1.9-0.4-2.8c-0.2-0.6,0.3-0.7,0.6-0.7c2.3-0.2,4.6-0.6,6.9,0.3c0,1.2,0,2.4,0,3.6
			c-2,0.6-4,0.5-6.1,0.3C493.8,264,493.4,264,493.1,263.5z"/>
		<path fill="#201E5A" d="M500.3,256.3c-4.4,0-8.9-0.1-13.3-0.1c-0.1,0-0.3,0.3-0.4,0.5c-0.7,0.3-1-0.2-1.3-0.7
			c-0.2-0.5-0.8-0.7-0.7-1.3c0.1-0.3,0.3-0.5,0.6-0.5c2,0.1,4-0.3,5.9,0.5c0.2,0.5,0.6,0.3,1,0.3c0.6,0.7,0.9-0.1,1.3-0.3
			c1.9-0.8,3.9-0.5,5.9-0.4c0.4,0,0.8,0.3,1,0.7C500.3,255.4,500.3,255.9,500.3,256.3z"/>
		<path fill="#0F113D" d="M512.8,265.4c-0.5,1.2-2,1.1-2.5,0.9c-1.7-0.9-3.4-0.6-5.1-0.3c-1.7,0-2.2-0.8-2.2-2.5
			c0.1-3.2,0-6.4,0-9.6c0-0.4-0.2-0.9,0.2-1.2c0.5,0.5,0.4,1.2,0.4,1.9c0,0.5,0,1.1,0,1.6c0,0.3,0,0.5,0,0.8c0,0.8,0,1.5,0,2.3
			c-0.1,5-0.1,4,4,4.1c1,0,2.1,0,3.1,0C511.5,264.1,512.2,264.8,512.8,265.4z"/>
		<path fill="#101141" d="M493.1,263.5c1.8,0.5,3.7,0.3,5.6,0.2c0.5,0,1-0.2,1.6,0.1c0,1.8-0.4,2.2-2.6,2.2
			c-1.6-0.5-3.2-0.4-4.7-0.1c-0.5,0.1-1,0.3-1.5,0.1C492.2,265.4,492.8,264.5,493.1,263.5z"/>
		<path fill="#23215D" d="M503.4,254.7c0-0.6,0-1.3-0.1-1.9c1.6-1.7,5.8-0.5,6.5,1.9C507.7,255.2,505.5,255.3,503.4,254.7z"/>
		<path fill="#22205D" d="M500.3,255c-1.6-0.9-3.3-0.4-4.9-0.4c-0.6,0-1.3,0.1-1.9,0.1c1.1-1.8,4.3-3.1,6.2-2.5
			c0.5,0.2,0.8,0.5,0.7,1.1C500.3,253.8,500.3,254.4,500.3,255z"/>
		<path fill="#1A174F" d="M500.3,260.2c-1.9,0-3.7,0-5.6,0c-0.7,0-1.4,0-1.9,0.5c-0.5-0.5-1.1-1-1.6-1.4c0-0.2,0-0.5,0.3-0.5
			c2.9,0.4,5.9,0,8.8,0.1C500.3,259.4,500.3,259.8,500.3,260.2z"/>
		<path fill="#201E5A" d="M503.4,254.7c2.1,0,4.3,0,6.4,0c0.2,0.4,0.7,0.5,0.7,1c-0.1,0.2-0.3,0.4-0.4,0.6c-2.2,0.4-4.5,0.5-6.7,0
			C503.4,255.7,503.4,255.2,503.4,254.7z"/>
		<path fill="#141448" d="M531.1,261.9c0,0.3,0,0.7,0,1c0,0.3,0,0.7-0.1,1c-0.6,0-1.2-0.1-1.8,0c-1.1,0.1-1.8-0.3-2.1-1.3
			c-0.8-0.2-0.9,0.7-1.3,1c-0.1,0.1-0.2,0.1-0.3,0.2c-1.8,1.1-9.8,0.9-11.5-0.2c-0.5-0.5-0.9-1.2-1-2c0.3-0.3,0.7-0.3,1.1-0.3
			c4.9,0.1,9.8,0,14.7,0.1C529.7,261.4,530.5,261.3,531.1,261.9z"/>
		<path fill="#17164C" d="M531.1,261.9c-5.1,0-10.3,0-15.4,0c-0.9,0-1.7-0.1-2.6-0.3c-0.6-1.1-0.6-2.2-0.4-3.3c0.8,0,0.3,0.8,0.7,1
			c0.5,0.6,1.3,0.5,2,0.5c4.8,0,9.6,0,14.4,0c0.4,0,0.9-0.1,1.3,0.2C531.1,260.6,531.1,261.2,531.1,261.9z"/>
		<path fill="#1C1953" d="M513.1,258.9c-0.1-0.2-0.2-0.5-0.3-0.7c0-0.5-0.1-1,0.3-1.4c5.5-0.1,11.1,0,16.6,0c0.5,0,1,0,1.4,0.3
			c0.4,1.8,0.2,2.2-1.4,2.3c-4.9,0.1-9.9,0.1-14.8,0C514.2,259.3,513.6,259.3,513.1,258.9z"/>
		<path fill="#161549" d="M510.8,263.4c-0.1,0.3-0.2,0.5-0.7,0.5c-1.6-0.1-3.2-0.1-4.9,0c-1.3,0.1-2-0.4-1.9-1.8
			c0.1-0.8,0-1.6,0-2.4c2,0.2,4.1,0.2,6.2,0.3C509.8,261.1,510.2,262.3,510.8,263.4z"/>
		<path fill="#121441" d="M514.1,263.5c3.9,0.6,7.8,0.5,11.7,0C523,267.5,517.1,267.5,514.1,263.5z"/>
		<path fill="#1F1D59" d="M531.4,255c0,0.3,0,0.7,0,1c-0.4,0.8-1.1,0.8-1.8,0.8c-5-0.3-9.9,0.3-14.9-0.1c-0.5,0-1.3,0.3-1.3-0.7
			c0-0.2,0-0.5,0.3-0.6c0.5-0.5,1.2-0.8,1.9-0.8c2.8-0.1,5.6,0,8.4,0.1c0.5,0,0.8,0.2,1.1,0.5c0.5,0.5,1,0.4,1.6,0
			C528.3,254.2,529.8,254.3,531.4,255z"/>
		<path fill="#1E1C57" d="M513.4,255.9c0.9,0.7,2.1,0.3,3.1,0.4c4.5,0.1,9,0,13.5,0.1c0.5,0,1-0.1,1.4-0.3c0,0.2,0,0.4,0,0.7
			c-0.2,0.2,0,0.5-0.3,0.6c-5.4,0-10.8,0-16.3,0c-0.6,0-1.3,0.2-1.8-0.4C513.1,256.5,513,256.1,513.4,255.9z"/>
		<path fill="#1B1851" d="M509.5,259.9c-1.2,0.7-5.2,0.5-6.2-0.3c0-0.9,0-1.7,0-2.6c1.5-0.1,2.9-0.2,4.4-0.2c1,0,1.7,0.3,1.8,1.4
			C509.5,258.8,509.5,259.3,509.5,259.9z"/>
		<path fill="#211F5C" d="M525.2,255.3c-0.8-0.6-1.8-0.2-2.7-0.3c-2.9,0-5.9-0.4-8.8,0.2c0.4-1,1.1-1.7,2-2.2c2.7,0.1,5.5,0.2,8.2,0
			c0.8,0.6,1.4,1.3,1.7,2.3C525.5,255.5,525.4,255.5,525.2,255.3z"/>
		<path fill="#23225F" d="M523.9,253c-0.3,0.4-0.6,0.5-1.1,0.5c-2.1,0-4.2,0-6.3,0c-0.4,0-0.6-0.1-0.7-0.4c0.6-0.5,1.2-0.9,2-1
			c0.4,0.2,0.7-0.1,0.9-0.3c0.1,0,0.2,0,0.4,0c0.7,0.4,1.3,0.3,2,0C522.1,251.8,523.1,252.2,523.9,253z"/>
		<path fill="#22205B" d="M525.2,255.3c0.1,0,0.3,0,0.4,0c1.6,0,0.2-1.2,0.6-1.6c1.7-0.7,3.4-0.2,5.1-0.3c0,0.5,0,1.1,0,1.6
			c-1.7,0.1-3.4-0.4-5,0.6C526.1,255.8,525.5,255.7,525.2,255.3z"/>
		<path fill="#1F1E57" d="M509.5,258.3c-0.5-1-1.4-1-2.3-1c-1.3-0.1-2.6,0.4-3.8-0.3c0-0.2,0-0.5,0-0.7c2.2-0.1,4.5-0.1,6.7,0
			C509.9,257,509.7,257.6,509.5,258.3z"/>
		<path fill="#242364" d="M521,251.8c-0.7,0.7-1.3,0.8-2,0C519.7,251.6,520.3,251.7,521,251.8z"/>
		<path fill="#252467" d="M518.6,251.8c-0.2,0.7-0.5,0.7-0.9,0.3C518,251.9,518.3,251.7,518.6,251.8z"/>
		<path fill="#232261" d="M484.9,253c1.8-1.9,4.7-1.7,5.7,0.4c-1.8,1.1-3.7,0.4-5.6,0.3C484.7,253.6,484.8,253.2,484.9,253z"/>
		<path fill="#211F5D" d="M484.9,253c0.1,0.2,0.2,0.5,0.3,0.5c1.8-0.1,3.6,0.3,5.4-0.1c0.6,0.3,0.7,0.8,0.5,1.3
			c-2.2,0.1-4.3-0.4-6.5,0C484.2,254,484.6,253.5,484.9,253z"/>
		<path fill="#8792BD" d="M485.3,256c0.4,0.2,0.9,0.5,1.3,0.7c1,0.6,2,1.2,3,1.8c0,0.3,0.1,0.6,0,0.8c-0.2,0.3-0.5,0.1-0.6-0.1
			c-0.9-1.2-2.2-1.4-3.6-1.5c0,0,0-0.2-0.1-0.3C485.3,256.9,485,256.4,485.3,256z"/>
		<path fill="#1A174F" d="M531.1,257.3c0.1-0.2,0.2-0.4,0.3-0.6c0,1.1,0.2,2.2-0.3,3.3c-0.5,0.3-1.1,0.3-1.7,0.3
			c-5.1,0-10.3,0.1-15.4,0.1c-1,0-1.1-0.6-0.9-1.4c4,0,8,0,12,0c1.4,0,2.8-0.1,4.2,0C530.7,259.1,531.2,258.5,531.1,257.3z"/>
	</g>
</g>
<path fill="none" d="M447.8,45.6c108.9,131.6,130.7,147.1,130.7,147.1"/>
<text transform="matrix(0.6383 0.7698 -0.7698 0.6383 447.7527 45.6215)"><tspan x="0" y="0" font-family="'ArialMT'" font-size="9.2827px">p</tspan><tspan x="5.2" y="0" font-family="'ArialMT'" font-size="9.2827px" rotate="0">l</tspan><tspan x="7.3" y="0" font-family="'ArialMT'" font-size="9.2827px" rotate="0">e</tspan><tspan x="12.4" y="0" font-family="'ArialMT'" font-size="9.2827px" rotate="-0.1">a</tspan><tspan x="17.6" y="0" font-family="'ArialMT'" font-size="9.2827px" rotate="-0.1">s</tspan><tspan x="22.2" y="0" font-family="'ArialMT'" font-size="9.2827px" rotate="-0.2">e</tspan><tspan x="27.4" y="0" font-family="'ArialMT'" font-size="9.2827px" rotate="-0.2"> </tspan><tspan x="30" y="-0.1" font-family="'ArialMT'" font-size="9.2827px" rotate="-0.3">c</tspan><tspan x="34.6" y="-0.1" font-family="'ArialMT'" font-size="9.2827px" rotate="-0.3">o</tspan><tspan x="39.7" y="-0.1" font-family="'ArialMT'" font-size="9.2827px" rotate="-0.4">m</tspan><tspan x="47.5" y="-0.2" font-family="'ArialMT'" font-size="9.2827px" rotate="-0.5">p</tspan><tspan x="52.7" y="-0.2" font-family="'ArialMT'" font-size="9.2827px" rotate="-0.5">l</tspan><tspan x="54.7" y="-0.2" font-family="'ArialMT'" font-size="9.2827px" rotate="-0.6">e</tspan><tspan x="59.9" y="-0.3" font-family="'ArialMT'" font-size="9.2827px" rotate="-0.6">t</tspan><tspan x="62.5" y="-0.3" font-family="'ArialMT'" font-size="9.2827px" rotate="-0.7">e</tspan><tspan x="67.7" y="-0.4" font-family="'ArialMT'" font-size="9.2827px" rotate="-0.8"> </tspan><tspan x="70.2" y="-0.4" font-family="'ArialMT'" font-size="9.2827px" rotate="-0.8">t</tspan><tspan x="72.8" y="-0.4" font-family="'ArialMT'" font-size="9.2827px" rotate="-0.9">h</tspan><tspan x="78" y="-0.5" font-family="'ArialMT'" font-size="9.2827px" rotate="-0.9">e</tspan><tspan x="83.1" y="-0.6" font-family="'ArialMT'" font-size="9.2827px" rotate="-1"> </tspan><tspan x="85.7" y="-0.6" font-family="'ArialMT'" font-size="9.2827px" rotate="-1.1">s</tspan><tspan x="90.3" y="-0.7" font-family="'ArialMT'" font-size="9.2827px" rotate="-1.1">t</tspan><tspan x="92.9" y="-0.8" font-family="'ArialMT'" font-size="9.2827px" rotate="-1.2">c</tspan><tspan x="97.6" y="-0.9" font-family="'ArialMT'" font-size="9.2827px" rotate="-1.3"> </tspan><tspan x="100.1" y="-0.9" font-family="'ArialMT'" font-size="9.2827px" rotate="-1.4">e</tspan><tspan x="105.3" y="-1.1" font-family="'ArialMT'" font-size="9.2827px" rotate="-1.5">v</tspan><tspan x="109.9" y="-1.2" font-family="'ArialMT'" font-size="9.2827px" rotate="-1.6">a</tspan><tspan x="115.1" y="-1.3" font-family="'ArialMT'" font-size="9.2827px" rotate="-1.7">l</tspan><tspan x="117.2" y="-1.4" font-family="'ArialMT'" font-size="9.2827px" rotate="-1.8">u</tspan><tspan x="122.3" y="-1.5" font-family="'ArialMT'" font-size="9.2827px" rotate="-1.9">a</tspan><tspan x="127.5" y="-1.7" font-family="'ArialMT'" font-size="9.2827px" rotate="-2">t</tspan><tspan x="130.1" y="-1.8" font-family="'ArialMT'" font-size="9.2827px" rotate="-2.1">i</tspan><tspan x="132.1" y="-1.9" font-family="'ArialMT'" font-size="9.2827px" rotate="-2.2">o</tspan><tspan x="137.3" y="-2.1" font-family="'ArialMT'" font-size="9.2827px" rotate="-2.4">n</tspan><tspan x="142.5" y="-2.3" font-family="'ArialMT'" font-size="9.2827px" rotate="-2.5"> </tspan><tspan x="145" y="-2.4" font-family="'ArialMT'" font-size="9.2827px" rotate="-2.7">f</tspan><tspan x="147.6" y="-2.5" font-family="'ArialMT'" font-size="9.2827px" rotate="-2.8">o</tspan><tspan x="152.7" y="-2.8" font-family="'ArialMT'" font-size="9.2827px" rotate="-3">r</tspan><tspan x="155.8" y="-2.9" font-family="'ArialMT'" font-size="9.2827px" rotate="-3.3">m</tspan><tspan x="163.6" y="-3.4" font-family="'ArialMT'" font-size="9.2827px" rotate="-3.7">.</tspan><tspan x="166.1" y="-3.6" font-family="'ArialMT'" font-size="9.2827px" rotate="-3.9">.</tspan><tspan x="168.7" y="-3.7" font-family="'ArialMT'" font-size="9.2827px" rotate="-4.1">.</tspan></text>
</svg>
