<?xml version="1.0" encoding="utf-8"?>
<!-- Generator: Adobe Illustrator 23.0.3, SVG Export Plug-In . SVG Version: 6.00 Build 0)  -->
<svg version="1.1" id="Layer_1" xmlns="http://www.w3.org/2000/svg" xmlns:xlink="http://www.w3.org/1999/xlink" x="0px" y="0px"
	 viewBox="0 0 600 350" enable-background="new 0 0 600 350" xml:space="preserve">
<path fill="#858585" d="M114,111.4c-0.1,0.1-0.1,0.1-0.3,0.1c-0.1,0.1-0.3,0.1-0.4,0.2c-0.2,0.1-0.3,0.1-0.5,0.1
	c-0.2,0-0.3,0.1-0.5,0.1c-0.2,0-0.3,0-0.5,0h-0.9c-0.2,0-0.4,0-0.7-0.1c-0.2,0-0.3-0.1-0.4-0.1c-0.1,0-0.3-0.1-0.4-0.1
	c-0.2-0.1-0.3-0.1-0.5-0.2c-0.2-0.1-0.2-0.1-0.4-0.2c-0.2-0.1-0.2-0.1-0.4-0.2c-0.2-0.1-0.2-0.1-0.4-0.2c-0.2-0.1-0.2-0.1-0.4-0.2
	c-0.2-0.1-0.2-0.1-0.5-0.2c-0.2-0.1-0.3-0.1-0.5-0.2c-0.2-0.1-0.3-0.2-0.5-0.2c-0.2-0.1-0.3-0.2-0.5-0.3c-0.2-0.1-0.3-0.2-0.5-0.3
	c-0.2-0.1-0.3-0.2-0.5-0.3c-0.2-0.1-0.3-0.2-0.5-0.4c-0.2-0.1-0.4-0.3-0.6-0.5c-0.2-0.2-0.3-0.3-0.5-0.5c-0.2-0.2-0.4-0.3-0.5-0.5
	c-0.2-0.2-0.4-0.4-0.5-0.5c-0.2-0.2-0.3-0.4-0.5-0.5c-0.1-0.2-0.3-0.3-0.5-0.5c-0.2-0.2-0.3-0.4-0.5-0.7c-0.2-0.2-0.3-0.4-0.5-0.6
	c-0.1-0.2-0.3-0.4-0.4-0.6c-0.2-0.3-0.2-0.3-0.4-0.6c-0.2-0.3-0.3-0.5-0.4-0.7c-0.1-0.2-0.2-0.4-0.3-0.6c-0.1-0.2-0.3-0.5-0.4-0.7
	c-0.1-0.2-0.2-0.5-0.4-0.7c-0.1-0.2-0.2-0.5-0.4-0.8l-0.3-0.7c-0.1-0.3-0.2-0.5-0.3-0.7c-0.1-0.3-0.2-0.5-0.3-0.8
	c-0.1-0.2-0.2-0.5-0.2-0.8c-0.1-0.3-0.2-0.5-0.2-0.8c-0.1-0.3-0.1-0.5-0.2-0.7c-0.1-0.3-0.1-0.3-0.2-0.7c-0.1-0.3-0.1-0.6-0.2-0.8
	c-0.1-0.3-0.1-0.3-0.1-0.7c0-0.2-0.1-0.5-0.1-0.8c0-0.3-0.1-0.5-0.1-0.8c0-0.3-0.1-0.6-0.1-0.9c0-0.3,0-0.6-0.1-0.9
	c0-0.3,0-0.6,0-0.8c0-0.3,0-0.5,0-0.8v-1.6c0-0.3,0-0.5,0-0.7c0-0.3,0-0.6,0.1-0.9c0-0.3,0.1-0.6,0.1-0.8c0.1-0.3,0.1-0.3,0.1-0.7
	c0-0.3,0.1-0.5,0.2-0.8c0.1-0.4,0.1-0.4,0.2-0.7c0.1-0.2,0.1-0.5,0.2-0.7c0.1-0.2,0.2-0.5,0.2-0.7c0.1-0.3,0.2-0.5,0.3-0.7
	c0.1-0.3,0.1-0.3,0.3-0.6c0.1-0.2,0.2-0.4,0.3-0.6c0.1-0.3,0.2-0.5,0.4-0.8c0.1-0.2,0.2-0.4,0.3-0.5c0.1-0.2,0.2-0.5,0.4-0.7
	c0.1-0.2,0.3-0.4,0.4-0.6c0.2-0.3,0.2-0.3,0.4-0.6c0.1-0.2,0.3-0.5,0.5-0.7c0.1-0.2,0.3-0.4,0.4-0.6c0.2-0.2,0.3-0.4,0.5-0.6
	c0.2-0.3,0.2-0.3,0.5-0.5c0.2-0.2,0.3-0.4,0.5-0.5c0.1-0.2,0.3-0.3,0.5-0.5c0.2-0.2,0.3-0.3,0.5-0.5c0.2-0.2,0.4-0.3,0.6-0.5
	c0.2-0.2,0.4-0.3,0.5-0.5c0.2-0.1,0.4-0.3,0.6-0.5c0.2-0.2,0.5-0.3,0.7-0.5c0.2-0.1,0.4-0.3,0.6-0.4c0.2-0.1,0.4-0.2,0.6-0.4
	c0.2-0.2,0.5-0.3,0.7-0.4c0.2-0.1,0.4-0.2,0.6-0.3c0.2-0.1,0.4-0.2,0.6-0.3c0.3-0.1,0.3-0.1,0.6-0.3c0.2-0.1,0.4-0.2,0.7-0.3
	c0.2-0.1,0.4-0.2,0.6-0.2c0.2-0.1,0.5-0.2,0.7-0.2c0.2-0.1,0.4-0.1,0.6-0.2c0.2,0,0.4-0.1,0.7-0.2c0.3-0.1,0.5-0.1,0.7-0.1
	c0.2,0,0.4,0,0.6-0.1c0.2,0,0.4,0,0.7-0.1c0.2,0,0.4,0,0.6,0c0.2,0,0.4,0,0.6,0h1.1c0.2,0,0.4,0,0.6,0c0.3,0,0.5,0,0.7,0.1
	c0.2,0,0.4,0.1,0.6,0.1c0.2,0,0.4,0.1,0.6,0.1c0.2,0,0.4,0.1,0.7,0.2c0.2,0.1,0.4,0.1,0.6,0.2c0.2,0.1,0.4,0.1,0.6,0.2
	c0.3,0.1,0.3,0.1,0.6,0.2c0.3,0.1,0.3,0.1,0.6,0.2c0.2,0.1,0.4,0.1,0.6,0.2c0.2,0.1,0.4,0.1,0.6,0.2c0.2,0.1,0.4,0.2,0.6,0.2
	c0.3,0.1,0.3,0.1,0.5,0.2c0.2,0.1,0.4,0.2,0.5,0.2c0.2,0.1,0.4,0.2,0.5,0.3c0.2,0.1,0.4,0.2,0.6,0.3c0.1,0.1,0.3,0.2,0.5,0.3
	c0.3,0.1,0.3,0.1,0.5,0.3c0.2,0.1,0.4,0.2,0.5,0.3c0.2,0.2,0.2,0.2,0.5,0.3c0.2,0.1,0.3,0.2,0.5,0.3c0.2,0.1,0.3,0.2,0.5,0.4
	c0.1,0.1,0.3,0.2,0.4,0.4c0.2,0.1,0.3,0.3,0.4,0.4c0.1,0.2,0.1,0.2,0.3,0.3c0.1,0.1,0.3,0.3,0.4,0.4c0.1,0.2,0.3,0.3,0.4,0.5
	c0.2,0.2,0.2,0.2,0.3,0.4c0.1,0.1,0.2,0.3,0.3,0.4c0.1,0.2,0.2,0.3,0.3,0.5c0.1,0.1,0.2,0.3,0.3,0.4c0.1,0.1,0.1,0.2,0.2,0.4
	c0.1,0.1,0.2,0.3,0.3,0.5c0.1,0.2,0.2,0.4,0.3,0.5c0.1,0.2,0.1,0.2,0.2,0.4c0.1,0.2,0.1,0.2,0.2,0.4c0.1,0.2,0.1,0.2,0.2,0.4
	c0.1,0.2,0.2,0.4,0.2,0.5c0.1,0.2,0.1,0.3,0.2,0.5c0.1,0.2,0.1,0.2,0.2,0.4c0,0.1,0.1,0.3,0.2,0.5c0.1,0.2,0.1,0.2,0.1,0.4
	c0,0.1,0.1,0.3,0.1,0.5c0.1,0.2,0.1,0.2,0.1,0.5c0,0.2,0.1,0.3,0.1,0.5c0,0.1,0,0.2,0.1,0.3c0,0.2,0.1,0.4,0.1,0.6
	c0,0.2,0,0.2,0,0.4c0,0.2,0,0.3,0,0.5c0,0.1,0,0.3,0,0.4c0,0.2,0,0.4,0,0.6c0,0.2,0,0.3,0,0.4c0,0.2,0,0.2,0,0.5c0,0.2,0,0.3,0,0.4
	c0,0.2,0,0.3,0,0.5v2.9c0,0.2,0,0.4,0,0.6c0,0.2,0,0.2,0,0.4c0,0.1,0,0.3-0.1,0.5c0,0.1,0,0.3-0.1,0.4c0,0.2,0,0.3-0.1,0.5
	c0,0.1,0,0.2,0,0.3c0,0.2,0,0.3-0.1,0.5c0,0.2,0,0.2-0.1,0.4c0,0.1,0,0.2-0.1,0.3c0,0.1-0.1,0.3-0.1,0.4c0,0.2,0,0.2-0.1,0.3
	c0,0.2-0.1,0.3-0.1,0.5c0,0.1,0,0.2-0.1,0.3c0,0.2-0.1,0.3-0.1,0.5c0,0.1,0,0.1-0.1,0.3c0,0.1-0.1,0.3-0.1,0.4
	c0,0.1-0.1,0.2-0.1,0.3c0,0.2-0.1,0.3-0.2,0.5c-0.1,0.2-0.1,0.2-0.1,0.4c-0.1,0.1-0.1,0.3-0.2,0.4c0,0.1-0.1,0.2-0.1,0.3
	c-0.1,0.1-0.1,0.3-0.2,0.4c-0.1,0.2-0.1,0.2-0.2,0.4s-0.1,0.2-0.2,0.4c-0.1,0.2-0.1,0.2-0.2,0.3c0,0.1-0.1,0.2-0.1,0.3
	c-0.1,0.1-0.1,0.3-0.2,0.5c-0.1,0.1-0.1,0.3-0.2,0.4c-0.1,0.2-0.1,0.2-0.2,0.3c-0.1,0.1-0.1,0.3-0.2,0.4c0,0.1-0.1,0.2-0.1,0.3
	c-0.1,0.1-0.1,0.3-0.2,0.4c-0.1,0.1-0.2,0.3-0.2,0.4c-0.1,0.1-0.1,0.1-0.2,0.2c-0.1,0.1-0.1,0.2-0.2,0.3c0,0.1-0.1,0.1-0.1,0.2
	c-0.1,0.1-0.2,0.3-0.3,0.4l-0.2,0.2c-0.1,0.1-0.1,0.1-0.2,0.2c-0.1,0.1-0.2,0.2-0.3,0.4c0,0-0.1,0.1-0.1,0.1
	c-0.1,0.1-0.1,0.2-0.2,0.3c-0.1,0.1-0.2,0.2-0.3,0.3c-0.1,0.1-0.1,0.1-0.2,0.2c-0.1,0.1-0.2,0.2-0.3,0.3c-0.1,0.1-0.1,0.1-0.3,0.3
	c-0.1,0.1-0.2,0.3-0.3,0.3c-0.1,0.1-0.1,0.1-0.2,0.2c-0.1,0.1-0.2,0.2-0.3,0.3c-0.1,0.1-0.3,0.3-0.4,0.4c-0.1,0.1-0.3,0.2-0.4,0.3
	c-0.1,0.1-0.2,0.2-0.4,0.3c-0.1,0.1-0.2,0.2-0.3,0.3c-0.1,0.1-0.2,0.2-0.3,0.3c-0.1,0.1-0.3,0.2-0.4,0.3c-0.1,0.1-0.2,0.2-0.3,0.3
	c-0.2,0.1-0.2,0.1-0.4,0.3c-0.2,0.2-0.2,0.2-0.4,0.3c-0.1,0.1-0.3,0.2-0.4,0.3c-0.1,0.1-0.3,0.2-0.4,0.3c-0.2,0.1-0.2,0.1-0.4,0.2
	c-0.1,0.1-0.3,0.2-0.4,0.2c-0.1,0.1-0.3,0.1-0.4,0.2c-0.1,0.1-0.3,0.1-0.4,0.2c-0.1,0.1-0.1,0.1-0.3,0.1c-0.1,0.1-0.3,0.1-0.4,0.2
	c-0.2,0.1-0.2,0.1-0.3,0.1c-0.2,0.1-0.2,0.1-0.3,0.1c-0.1,0-0.2,0.1-0.3,0.1c-0.2,0.1-0.2,0.1-0.3,0.1c-0.1,0-0.2,0.1-0.2,0.1
	c-0.2,0.1-0.2,0.1-0.4,0.2c-0.1,0-0.2,0.1-0.3,0.1c-0.1,0.1-0.2,0.1-0.3,0.2c-0.1,0.1-0.1,0.1-0.2,0.1c-0.1,0.1-0.3,0.1-0.4,0.2
	c-0.2,0.1-0.4,0.1-0.5,0.2c-0.2,0-0.2,0-0.4,0.1c-0.2,0-0.2,0-0.4,0.1c-0.2,0-0.2,0-0.4,0.1c-0.2,0-0.2,0-0.3,0c-0.1,0-0.1,0-0.3,0
	C114.2,111.3,114.1,111.4,114,111.4L114,111.4z M113,108.8c0.4-0.5,1.1-0.6,1.6-0.3c0.1,0,0.1,0,0.2,0c0.1,0,0.1,0,0.3-0.1
	c0.2,0,0.2,0,0.3-0.1c0.1,0,0.1,0,0.2-0.1c0.1,0,0.1-0.1,0.2-0.1c0.1-0.1,0.1-0.1,0.3-0.1c0.1,0,0.2-0.1,0.2-0.1
	c0.1-0.1,0.2-0.1,0.4-0.2c0.1-0.1,0.1-0.1,0.3-0.1c0.1-0.1,0.3-0.1,0.4-0.2c0.2-0.1,0.2-0.1,0.3-0.1c0.1-0.1,0.3-0.1,0.4-0.1
	c0.2,0,0.2,0,0.3-0.1c0.2-0.1,0.2-0.1,0.3-0.1c0.1,0,0.1-0.1,0.2-0.1c0.2-0.1,0.2-0.1,0.3-0.1c0.1,0,0.2-0.1,0.3-0.1
	c0.1,0,0.2-0.1,0.2-0.1c0.1,0,0.2-0.1,0.2-0.1c0.2-0.1,0.2-0.1,0.3-0.2c0.1-0.1,0.2-0.1,0.3-0.2c0.1-0.1,0.2-0.2,0.3-0.2
	c0.2-0.1,0.2-0.1,0.4-0.3c0.2-0.2,0.2-0.2,0.4-0.3c0.1-0.1,0.3-0.2,0.4-0.3c0.1-0.1,0.2-0.2,0.3-0.2c0.1-0.1,0.3-0.2,0.4-0.3
	c0.1-0.1,0.2-0.2,0.4-0.3c0.1-0.1,0.2-0.2,0.3-0.2c0.1-0.1,0.2-0.2,0.3-0.2c0.1-0.1,0.2-0.2,0.3-0.2c0.1-0.1,0.2-0.2,0.2-0.2
	c0.1-0.1,0.1-0.1,0.2-0.2c0.1-0.1,0.1-0.1,0.2-0.3c0.2-0.2,0.2-0.2,0.3-0.3c0.1-0.1,0.1-0.1,0.2-0.2c0.1-0.1,0.2-0.2,0.3-0.3
	c0.1-0.1,0.1-0.1,0.2-0.2c0.1-0.1,0.1-0.1,0.1-0.2c0.1-0.1,0.2-0.2,0.3-0.4c0,0,0.1-0.1,0.1-0.1c0.1-0.1,0.2-0.2,0.2-0.3l0.1-0.1
	c0-0.1,0-0.1,0.1-0.1c0,0,0.1-0.1,0.1-0.1c0.1-0.1,0.1-0.2,0.2-0.3c0-0.1,0.1-0.1,0.1-0.2c0.1-0.1,0.1-0.1,0.2-0.3
	c0-0.1,0.1-0.1,0.1-0.2c0-0.1,0.1-0.2,0.1-0.3c0.1-0.1,0.1-0.3,0.2-0.4c0-0.1,0.1-0.2,0.2-0.3C128,98,128,98,128,97.9
	c0.1-0.1,0.1-0.2,0.2-0.3c0.1-0.1,0.1-0.2,0.1-0.3c0.1-0.1,0.1-0.3,0.2-0.4c0.1-0.2,0.1-0.2,0.2-0.4c0.1-0.2,0.1-0.2,0.2-0.3
	c0.1-0.2,0.1-0.2,0.2-0.3c0-0.1,0.1-0.2,0.1-0.3c0.1-0.1,0.1-0.3,0.2-0.4c0-0.1,0.1-0.2,0.1-0.3c0.1-0.2,0.1-0.2,0.1-0.4
	c0-0.1,0.1-0.1,0.1-0.2c0-0.2,0.1-0.3,0.1-0.5c0-0.1,0.1-0.2,0.1-0.3c0.1-0.2,0.1-0.2,0.1-0.3c0-0.1,0-0.2,0.1-0.2
	c0-0.2,0.1-0.3,0.1-0.5c0-0.1,0-0.2,0.1-0.3c0-0.2,0-0.2,0.1-0.4c0-0.1,0-0.2,0.1-0.3c0-0.2,0.1-0.3,0.1-0.4c0-0.2,0-0.2,0.1-0.4
	c0-0.1,0-0.2,0-0.3c0-0.2,0-0.3,0.1-0.5c0-0.1,0-0.2,0-0.3c0-0.1,0-0.3,0.1-0.5c0-0.1,0-0.3,0-0.4c0-0.2,0-0.2,0-0.4
	c0-0.1,0-0.2,0-0.3v-2.9c0-0.1,0-0.2,0-0.3c0-0.1,0-0.3,0-0.5c0-0.2,0-0.2,0-0.4c0-0.1,0-0.3,0-0.4c0-0.1,0-0.3,0-0.4
	c0-0.1,0-0.3-0.1-0.5c0-0.1,0-0.3,0-0.4c0-0.2,0-0.2,0-0.4c0-0.1,0-0.2,0-0.3c0-0.2-0.1-0.3-0.1-0.5c0-0.1,0-0.2-0.1-0.3
	c0-0.2,0-0.2-0.1-0.4c0-0.1-0.1-0.2-0.1-0.3c-0.1-0.2-0.1-0.2-0.1-0.4c0-0.1-0.1-0.3-0.1-0.4c-0.1-0.2-0.1-0.2-0.1-0.4
	c-0.1-0.1-0.1-0.3-0.2-0.4c0-0.1-0.1-0.2-0.1-0.3c-0.1-0.2-0.1-0.2-0.2-0.4c-0.1-0.2-0.1-0.2-0.2-0.4c-0.1-0.2-0.1-0.2-0.2-0.4
	c-0.1-0.1-0.1-0.2-0.2-0.4c-0.1-0.1-0.2-0.3-0.2-0.4c-0.1-0.1-0.2-0.3-0.3-0.4c-0.1-0.1-0.1-0.2-0.2-0.4c-0.1-0.1-0.2-0.3-0.3-0.4
	c-0.1-0.1-0.2-0.3-0.2-0.3c-0.1-0.2-0.1-0.2-0.3-0.4c-0.1-0.1-0.2-0.2-0.3-0.3c-0.1-0.1-0.2-0.2-0.3-0.4c-0.2-0.2-0.2-0.2-0.3-0.3
	c-0.1-0.1-0.2-0.2-0.3-0.3c-0.1-0.1-0.2-0.2-0.4-0.3c-0.1-0.1-0.2-0.2-0.4-0.3c-0.1-0.1-0.2-0.2-0.4-0.3c-0.2-0.1-0.2-0.1-0.4-0.3
	c-0.1-0.1-0.3-0.2-0.4-0.2c-0.2-0.1-0.2-0.1-0.5-0.3c-0.2-0.1-0.3-0.2-0.5-0.3c-0.1-0.1-0.3-0.1-0.4-0.2c-0.2-0.1-0.3-0.2-0.5-0.2
	c-0.2-0.1-0.3-0.1-0.5-0.2c-0.3-0.1-0.3-0.1-0.5-0.2c-0.2-0.1-0.3-0.1-0.5-0.2c-0.2-0.1-0.3-0.1-0.5-0.2c-0.2-0.1-0.3-0.1-0.5-0.2
	c-0.3-0.1-0.3-0.1-0.6-0.2c-0.3-0.1-0.3-0.1-0.6-0.2c-0.2-0.1-0.4-0.1-0.5-0.2c-0.2,0-0.4-0.1-0.5-0.1c-0.2-0.1-0.4-0.1-0.5-0.1
	c-0.2,0-0.4-0.1-0.6-0.1c-0.2,0-0.3-0.1-0.5-0.1c-0.1,0-0.3,0-0.4,0c-0.2,0-0.4,0-0.5,0H114c-0.2,0-0.3,0-0.5,0c-0.2,0-0.4,0-0.6,0
	c-0.2,0-0.4,0-0.6,0.1c-0.2,0-0.4,0-0.5,0.1c-0.1,0-0.3,0.1-0.5,0.1c-0.2,0-0.4,0.1-0.5,0.1c-0.2,0-0.4,0.1-0.6,0.2
	c-0.2,0.1-0.4,0.1-0.5,0.2c-0.2,0.1-0.4,0.1-0.6,0.2c-0.2,0.1-0.3,0.1-0.5,0.2c-0.3,0.1-0.3,0.1-0.6,0.3c-0.2,0.1-0.4,0.2-0.5,0.3
	c-0.2,0.1-0.4,0.2-0.5,0.3c-0.2,0.1-0.3,0.2-0.5,0.3c-0.2,0.1-0.4,0.3-0.6,0.4c-0.2,0.1-0.3,0.2-0.5,0.3c-0.2,0.1-0.4,0.2-0.5,0.4
	c-0.2,0.2-0.4,0.3-0.5,0.4c-0.1,0.1-0.3,0.3-0.5,0.4c-0.2,0.2-0.3,0.3-0.5,0.4c-0.2,0.1-0.3,0.3-0.5,0.5c-0.1,0.1-0.3,0.3-0.4,0.4
	c-0.1,0.1-0.2,0.3-0.4,0.4c-0.2,0.3-0.2,0.3-0.5,0.5c-0.1,0.1-0.2,0.3-0.4,0.5c-0.1,0.2-0.3,0.4-0.4,0.6c-0.1,0.2-0.2,0.4-0.4,0.5
	c-0.2,0.3-0.2,0.3-0.4,0.6c-0.1,0.2-0.2,0.4-0.4,0.6c-0.1,0.2-0.2,0.4-0.3,0.5c-0.1,0.2-0.2,0.4-0.4,0.7c-0.1,0.2-0.2,0.4-0.3,0.5
	c-0.1,0.2-0.2,0.4-0.3,0.6c-0.1,0.3-0.1,0.3-0.3,0.6c-0.1,0.2-0.1,0.3-0.2,0.5c-0.1,0.2-0.2,0.5-0.2,0.7c-0.1,0.2-0.1,0.4-0.2,0.6
	c-0.1,0.3-0.1,0.3-0.2,0.7c-0.1,0.2-0.1,0.4-0.1,0.6c-0.1,0.3-0.1,0.3-0.1,0.7c0,0.2-0.1,0.5-0.1,0.7c0,0.2-0.1,0.4-0.1,0.6
	c0,0.2,0,0.4,0,0.6v1.6c0,0.2,0,0.5,0,0.7c0,0.3,0,0.5,0,0.8c0,0.3,0,0.5,0.1,0.8c0,0.2,0,0.5,0.1,0.7c0,0.3,0.1,0.5,0.1,0.8
	c0,0.2,0.1,0.5,0.1,0.6c0.1,0.3,0.1,0.3,0.1,0.7c0,0.2,0.1,0.4,0.1,0.7c0.1,0.4,0.1,0.4,0.2,0.7c0,0.2,0.1,0.4,0.2,0.6
	c0.1,0.2,0.1,0.5,0.2,0.7c0.1,0.3,0.2,0.5,0.2,0.7c0.1,0.2,0.1,0.4,0.2,0.6c0.1,0.2,0.2,0.4,0.3,0.7c0.2,0.4,0.2,0.4,0.3,0.7
	c0.1,0.2,0.2,0.4,0.3,0.6c0.1,0.2,0.2,0.4,0.3,0.6c0.1,0.2,0.2,0.4,0.3,0.6c0.1,0.2,0.2,0.4,0.3,0.6c0.1,0.2,0.2,0.3,0.4,0.5
	c0.2,0.3,0.2,0.3,0.4,0.6c0.1,0.2,0.2,0.3,0.4,0.5c0.1,0.2,0.3,0.4,0.5,0.6c0.1,0.2,0.3,0.4,0.4,0.6c0.2,0.2,0.3,0.4,0.4,0.5
	s0.3,0.3,0.4,0.5c0.2,0.2,0.3,0.3,0.5,0.5c0.2,0.2,0.3,0.3,0.4,0.4c0.2,0.1,0.3,0.3,0.5,0.4c0.1,0.1,0.3,0.2,0.4,0.3
	c0.2,0.1,0.3,0.2,0.4,0.3c0.1,0.1,0.3,0.2,0.4,0.3c0.1,0.1,0.3,0.2,0.4,0.2c0.1,0.1,0.3,0.1,0.4,0.2c0.1,0.1,0.3,0.1,0.4,0.2
	c0.2,0.1,0.3,0.1,0.4,0.2c0.2,0.1,0.2,0.1,0.4,0.2c0.2,0.1,0.2,0.1,0.4,0.2c0.2,0.1,0.2,0.1,0.4,0.2c0.2,0.1,0.2,0.1,0.4,0.2
	c0.2,0.1,0.2,0.1,0.4,0.2c0.1,0,0.2,0.1,0.4,0.1c0.1,0,0.2,0.1,0.3,0.1c0.1,0,0.2,0.1,0.3,0.1c0,0,0.3,0,0.9,0c0,0,0.1,0,0.2,0
	c0.1,0,0.2,0,0.3,0c0.1,0,0.2,0,0.2-0.1C112.7,109,112.8,108.9,113,108.8L113,108.8z M113,108.9C113,108.9,113,108.9,113,108.9
	C113,108.9,113,108.9,113,108.9z"/>
<path fill="#505050" d="M162.6,215L162.6,215L162.6,215L162.6,215z M158.4,182.3C158.4,182.3,158.4,182.3,158.4,182.3
	C158.4,182.3,158.4,182.3,158.4,182.3z M134.3,178.5c0.2,0.1,0.3,0.3,0.4,0.4h4.8c0.2,0,0.5,0,0.7,0c0.2,0,0.5,0,0.7,0
	c0.2,0,0.4,0,0.6-0.1c0.2,0,0.5-0.1,0.8-0.1c0.4,0,0.4,0,0.8-0.1c0.4,0,0.4,0,0.8-0.1c0.3,0,0.6-0.1,0.8-0.1c0.3,0,0.5,0,0.8-0.1
	c0.3,0,0.5,0,0.8-0.1c0.3,0,0.6,0,0.8-0.1c0.4,0,0.4,0,0.7,0c0.3,0,0.3,0,0.6,0c0.2,0,0.5,0,0.7,0c0.2,0,0.4,0,0.6,0
	c0.2,0,0.5,0,0.6,0c0.2,0,0.4,0,0.6,0c0.2,0,0.4,0,0.5,0c0.3,0,0.3,0,0.6,0c0.2,0,0.4,0,0.6,0h2.3c0.2,0,0.4,0,0.6,0
	c0.2,0,0.3,0,0.5,0.1c0.1,0,0.3,0.1,0.4,0.1c0.1,0,0.3,0.1,0.4,0.1c0.2,0.1,0.3,0.1,0.5,0.2c0.1,0.1,0.1,0.1,0.3,0.1
	c0.1,0,0.2,0.1,0.3,0.2c0.1,0.1,0.2,0.1,0.4,0.2c0.2,0.1,0.2,0.1,0.4,0.2c0.2,0.1,0.4,0.2,0.5,0.3c0.1,0.1,0.1,0.1,0.3,0.2
	c0.2,0.1,0.3,0.3,0.5,0.4c0.1,0.1,0.2,0.2,0.3,0.3c0.2,0.2,0.3,0.4,0.4,0.6c0.1,0.2,0.1,0.4,0.2,0.5c0,0.2,0,0.2,0.1,0.4
	c0,0.1,0,0.3,0,0.4c0,0.2,0,0.2,0,0.3c0,0.1,0,0.2,0,0.3c0,0.2,0,0.2,0,0.4c0,0.2,0,0.2,0,0.4c0,0.2,0,0.2,0,0.4
	c0,0.2,0,0.4,0.1,0.5c0,0.2,0,0.3,0,0.5c0,0.1,0,0.3,0,0.4c0,0.2,0,0.4,0,0.7c0,0.2,0,0.4,0,0.6c0,0.3,0,0.5,0,0.8
	c0,0.3,0,0.5,0,0.8c0,0.4,0,0.4,0,0.9c0,0.5,0,0.5,0,1.1c0,0.4,0,0.7,0,1.1c0,0.4,0,0.7,0,1.1c0,0.4,0,0.7,0,1.2c0,0.4,0,0.8,0,1.2
	c0,0.4,0,0.8,0,1.3c0,0.4,0,0.8,0.1,1.2c0,0.4,0.1,0.8,0.1,1.3c0,0.5,0.1,0.9,0.1,1.3c0,0.4,0.1,0.7,0.1,1.2c0,0.4,0.1,0.8,0.1,1.1
	c0,0.3,0,0.7,0,1c0,0.4,0,0.7,0,1c0,0.3,0,0.7,0,1c0,0.3,0,0.6,0,0.8c0,0.3,0,0.5,0,0.8c0,0.4,0,0.4,0,0.7c0,0.2,0,0.4,0,0.6
	c0,0.2,0,0.5,0,0.7c0,0.3,0,0.3,0,0.6c0,0.3,0,0.3,0,0.6c0,0.2,0,0.4,0,0.6c0,0.2,0,0.3,0,0.4c0,0.2,0,0.4,0,0.6c0,0.1,0,0.3,0,0.4
	c0,0.2,0,0.4,0,0.5v0.4c0,0.1,0,0.2,0,0.3c0,0.2,0,0.3,0,0.4v0.2c0.1,0,0.2,0,0.3,0c0.1,0,0.3,0,0.4,0c0.2,0,0.2-0.1,0.3-0.1
	l0.1-0.1c0.7-0.3,1.5,0,1.8,0.7c0.3,0.7,0,1.5-0.7,1.8l-0.1,0.1c-0.2,0.1-0.3,0.1-0.5,0.2c-0.3,0.1-0.6,0.1-0.9,0.1
	c-0.2,0-0.4,0-0.5,0c-0.2,0-0.4,0-0.5-0.1c-0.2,0-0.4-0.1-0.5-0.1c-0.2,0-0.3-0.1-0.4-0.1l-0.3-0.1c-0.6-0.2-1.1-0.8-1.1-1.5
	c0-0.1,0-0.1,0-0.2c0-0.1,0-0.3,0-0.5V214c0-0.1,0-0.2,0-0.3c0-0.2,0-0.3,0-0.5v-0.4c0-0.1,0-0.2,0-0.4c0-0.2,0-0.4,0-0.6
	c0-0.2,0-0.3,0-0.4c0-0.2,0-0.4,0-0.6c0-0.2,0-0.4,0-0.5c0-0.3,0-0.3,0-0.6c0-0.3,0-0.3,0-0.6c0-0.2,0-0.4,0-0.6c0-0.2,0-0.5,0-0.7
	c0-0.3,0-0.3,0-0.7c0-0.3,0-0.5,0-0.8c0-0.3,0-0.6,0-0.9c0-0.3,0-0.6,0-0.9c0-0.3,0-0.7,0-1c0-0.4,0-0.7,0-1c0-0.3,0-0.6-0.1-1
	c0-0.4-0.1-0.8-0.1-1.1c0-0.4-0.1-0.8-0.1-1.3c0-0.5-0.1-1-0.1-1.4c0-0.4,0-0.8-0.1-1.3c0-0.4,0-0.8,0-1.2c0-0.4,0-0.8,0-1.3
	c0-0.4,0-0.8,0-1.2c0-0.4,0-0.7,0-1.1c0-0.4,0-0.7,0-1.1c0-0.5,0-0.5,0-1.1c0-0.5,0-0.5,0-0.9c0-0.3,0-0.5,0-0.8c0-0.3,0-0.5,0-0.7
	c0-0.3,0-0.5,0-0.7c0-0.2,0-0.4,0-0.5c0-0.2,0-0.4,0-0.5c0-0.1,0-0.2,0-0.3c0-0.1,0-0.3-0.1-0.5c0-0.3,0-0.3,0-0.5
	c0-0.2,0-0.2,0-0.4c0-0.2,0-0.2,0-0.4c0-0.1,0-0.3,0-0.4c0-0.2,0-0.2,0-0.3c0-0.1,0-0.1,0-0.2c0-0.1,0-0.1,0-0.2
	c0,0-0.1-0.1-0.1-0.2c0,0-0.1-0.1-0.1-0.1c-0.1-0.1-0.1-0.1-0.3-0.2c-0.1,0-0.1-0.1-0.2-0.1c-0.2-0.1-0.2-0.1-0.4-0.2
	c-0.1-0.1-0.2-0.1-0.3-0.2c-0.1,0-0.1-0.1-0.2-0.1c-0.1-0.1-0.1-0.1-0.3-0.1c-0.1,0-0.1-0.1-0.2-0.1c-0.1,0-0.2-0.1-0.3-0.1
	c-0.1,0-0.2-0.1-0.3-0.1c-0.1,0-0.2,0-0.3,0c-0.1,0-0.1,0-0.2,0H153c-0.2,0-0.3,0-0.5,0c-0.3,0-0.3,0-0.5,0c-0.2,0-0.4,0-0.7,0
	c-0.2,0-0.4,0-0.5,0c-0.2,0-0.4,0-0.6,0c-0.2,0-0.5,0-0.7,0c-0.2,0-0.4,0-0.6,0c-0.3,0-0.3,0-0.7,0.1c-0.3,0-0.3,0-0.7,0
	c-0.2,0-0.5,0-0.7,0c-0.3,0-0.5,0.1-0.8,0.1c-0.3,0-0.5,0-0.8,0.1c-0.3,0-0.5,0.1-0.8,0.1c-0.4,0-0.4,0-0.8,0.1
	c-0.4,0-0.4,0-0.8,0.1c-0.3,0-0.5,0.1-0.8,0.1c-0.3,0-0.6,0.1-0.8,0.1c-0.3,0-0.5,0-0.8,0c-0.3,0-0.5,0-0.8,0h-5c-0.2,0-0.3,0-0.5,0
	c-0.2,0-0.2,0-0.5,0c-0.4,0-0.7-0.1-1.1-0.3c-0.8-0.5-1.1-1.7-0.2-2.4C132.8,178.2,133.7,178,134.3,178.5L134.3,178.5z"/>
<path fill="#505050" d="M120.8,219.3C120.8,219.3,120.8,219.3,120.8,219.3C120.8,219.3,120.8,219.3,120.8,219.3L120.8,219.3z
	 M118.6,202.3C118.6,202.3,118.6,202.3,118.6,202.3C118.6,202.3,118.6,202.3,118.6,202.3z M118.5,202.4
	C118.5,202.4,118.5,202.4,118.5,202.4C118.5,202.4,118.5,202.4,118.5,202.4z M85.3,180c0.6-0.5,1.5-0.4,1.9,0.2
	c0.2,0.3,0.3,0.7,0.3,1c0.1,0.1,0.2,0.1,0.3,0.2c0.1,0.1,0.3,0.2,0.4,0.3c0.2,0.2,0.2,0.2,0.5,0.4c0.2,0.1,0.4,0.3,0.6,0.4
	c0.2,0.2,0.4,0.3,0.6,0.5c0.2,0.1,0.4,0.3,0.7,0.5c0.3,0.2,0.6,0.4,0.8,0.6s0.5,0.4,0.9,0.6c0.3,0.2,0.6,0.5,1,0.7
	c0.3,0.2,0.6,0.4,1,0.6c0.3,0.2,0.7,0.4,1,0.7c0.4,0.2,0.7,0.5,1.2,0.7c0.4,0.3,0.8,0.5,1.2,0.7c0.4,0.2,0.8,0.4,1.2,0.7
	c0.5,0.2,0.9,0.5,1.4,0.8c0.5,0.3,0.9,0.5,1.3,0.7s0.8,0.5,1.2,0.7c0.4,0.2,0.8,0.4,1.3,0.7c0.5,0.3,0.9,0.5,1.3,0.7
	c0.4,0.2,0.7,0.4,1.1,0.6c0.4,0.2,0.8,0.4,1.2,0.6c0.4,0.2,0.7,0.4,1.1,0.5c0.3,0.2,0.6,0.3,1,0.4c0.5,0.2,0.5,0.2,1,0.4
	c0.3,0.1,0.6,0.3,0.9,0.4c0.3,0.1,0.5,0.2,0.8,0.4c0.3,0.1,0.6,0.3,0.9,0.4c0.3,0.1,0.5,0.2,0.8,0.3c0.3,0.1,0.5,0.2,0.7,0.3
	c0.2,0.1,0.4,0.2,0.6,0.3c0.3,0.1,0.3,0.1,0.6,0.2c0.2,0.1,0.4,0.1,0.5,0.2c0.1,0.1,0.3,0.1,0.5,0.2c0.2,0.1,0.3,0.1,0.5,0.2
	c0.2,0.1,0.2,0.1,0.4,0.2c0.2,0.1,0.3,0.1,0.4,0.2c0.1,0.1,0.3,0.1,0.4,0.2c0.1,0.1,0.3,0.1,0.4,0.2c0.1,0.1,0.3,0.2,0.4,0.2
	c0.1,0.1,0.3,0.2,0.4,0.3c0.1,0.1,0.3,0.2,0.4,0.4c0.2,0.2,0.3,0.3,0.4,0.5c0.1,0.2,0.2,0.4,0.3,0.5c0.1,0.2,0.2,0.4,0.2,0.6
	c0,0.2,0,0.2,0.1,0.3c0,0.2,0.1,0.4,0.1,0.6c0,0.1,0,0.3,0,0.4c0,0.3-0.1,0.5-0.2,0.8c0,0.1-0.1,0.2-0.1,0.2
	c-0.1,0.1-0.1,0.1-0.1,0.3c0,0.1,0,0.1-0.1,0.2c0,0.1,0,0.1-0.1,0.2c0,0.1,0,0.2-0.1,0.3c0,0.1,0,0.2,0,0.4c0,0.2,0,0.3-0.1,0.5
	c0,0.1,0,0.1,0,0.2c0,0.2,0,0.2,0,0.4c0,0.2,0,0.2,0,0.5c0,0.1,0,0.2,0,0.4c0,0.3,0,0.3,0,0.5c0,0.2,0,0.3,0,0.5c0,0.3,0,0.3,0,0.6
	c0,0.2,0,0.4,0,0.6c0,0.2,0,0.4,0,0.7c0,0.2,0,0.4,0,0.6v0.6c0,0.2,0,0.5,0,0.7c0,0.2,0,0.3,0,0.5v4.4c0,0.1,0,0.2,0,0.2
	c0,0.2,0,0.2,0,0.4c0,0.1,0,0.2,0,0.3c0,0.2,0.1,0.3,0.1,0.4c0,0,0,0.1,0,0.2c0.2,0.1,0.3,0.1,0.4,0c0.2,0,0.3,0,0.5-0.1
	c0.2,0,0.2,0,0.4,0c0.1,0,0.3,0,0.4,0h0.8c0.2,0,0.4,0,0.6,0c0.3,0,0.5,0.1,0.7,0.1c0.1,0,0.3,0.1,0.4,0.1c0.2,0.1,0.3,0.1,0.4,0.1
	c0.2,0.1,0.3,0.1,0.5,0.1c0.2,0,0.3,0.1,0.5,0.2c0.1,0,0.3,0.1,0.4,0.1c0.2,0.1,0.2,0.1,0.4,0.1c0.2,0.1,0.2,0.1,0.4,0.1
	c0.1,0,0.2,0,0.3,0.1c0.1,0,0.2,0,0.3,0.1c0.2,0,0.2,0,0.3,0.1c0.1,0,0.1,0,0.2,0l0.2,0c0.8,0,1.3,0.7,1.3,1.4
	c-0.1,0.8-0.7,1.3-1.5,1.3l-0.2,0c-0.2,0-0.3,0-0.5,0c-0.2,0-0.2,0-0.3-0.1c-0.1,0-0.3,0-0.4-0.1c-0.2,0-0.3-0.1-0.5-0.1
	c-0.2-0.1-0.2-0.1-0.5-0.1c-0.2-0.1-0.2-0.1-0.4-0.1c-0.1,0-0.3-0.1-0.5-0.1c-0.1,0-0.3-0.1-0.4-0.1c-0.2,0-0.2-0.1-0.4-0.1
	c-0.1,0-0.3-0.1-0.5-0.1c-0.2-0.1-0.4-0.1-0.5-0.1c0,0-0.1,0-0.2,0c-0.1,0-0.2,0-0.3,0h-0.8c-0.1,0-0.2,0-0.3,0c-0.2,0-0.2,0-0.4,0
	c-0.1,0-0.1,0-0.2,0c-0.1,0-0.2,0-0.3,0.1c-0.2,0-0.4,0.1-0.5,0.1c-0.2,0-0.4,0.1-0.6,0.1h-0.3c-0.6,0-1.1-0.3-1.4-0.8
	c-0.2-0.3-0.2-0.6-0.2-0.9c0,0,0-0.1,0-0.1c0-0.1-0.1-0.2-0.1-0.3c-0.1-0.2-0.1-0.3-0.1-0.5c0-0.1,0-0.2-0.1-0.3
	c0-0.2-0.1-0.4-0.1-0.6c0-0.2,0-0.2,0-0.4c0-0.1,0-0.3,0-0.4v-4.4c0-0.2,0-0.4,0-0.6c0-0.2,0-0.3,0-0.5v-0.6c0-0.2,0-0.4,0-0.7
	c0-0.2,0-0.4,0-0.6c0-0.2,0-0.4,0-0.7c0-0.3,0-0.3,0-0.6c0-0.2,0-0.4,0-0.6c0-0.3,0-0.3,0-0.5c0-0.2,0-0.4,0-0.5c0-0.2,0-0.2,0-0.4
	c0-0.2,0-0.2,0-0.4c0-0.2,0-0.3,0-0.4c0-0.1,0-0.2,0-0.4c0-0.2,0-0.4,0.1-0.6c0-0.2,0-0.3,0.1-0.4c0-0.1,0-0.3,0.1-0.4
	c0-0.2,0.1-0.3,0.1-0.5c0.1-0.2,0.1-0.2,0.1-0.3c0-0.1,0.1-0.2,0.1-0.3c0-0.3,0-0.3-0.1-0.4c-0.1-0.1-0.2-0.2-0.2-0.3
	c-0.1-0.1-0.1-0.1-0.2-0.2c0,0-0.1-0.1-0.2-0.1c-0.1-0.1-0.1-0.1-0.2-0.2c-0.1-0.1-0.2-0.1-0.3-0.2c-0.1-0.1-0.2-0.1-0.3-0.2
	c-0.1-0.1-0.2-0.1-0.3-0.1c-0.2-0.1-0.2-0.1-0.4-0.2c-0.1-0.1-0.3-0.1-0.4-0.2c-0.2-0.1-0.4-0.1-0.6-0.2c-0.2-0.1-0.3-0.1-0.5-0.2
	c-0.3-0.1-0.3-0.1-0.6-0.3c-0.3-0.1-0.5-0.2-0.7-0.3c-0.2-0.1-0.4-0.2-0.7-0.3c-0.3-0.1-0.5-0.2-0.8-0.3c-0.3-0.1-0.5-0.2-0.8-0.4
	c-0.3-0.1-0.6-0.3-0.9-0.4c-0.3-0.1-0.5-0.2-0.9-0.4c-0.5-0.2-0.5-0.2-1-0.4c-0.3-0.2-0.7-0.3-1-0.5c-0.3-0.2-0.7-0.3-1.1-0.5
	c-0.4-0.2-0.8-0.4-1.2-0.6c-0.4-0.2-0.8-0.4-1.2-0.6c-0.4-0.2-0.8-0.4-1.3-0.7c-0.5-0.3-0.9-0.5-1.3-0.7c-0.4-0.2-0.8-0.4-1.2-0.7
	c-0.4-0.2-0.9-0.5-1.4-0.8c-0.5-0.3-0.9-0.5-1.4-0.8c-0.5-0.2-0.9-0.5-1.2-0.7c-0.4-0.2-0.8-0.4-1.2-0.7c-0.5-0.3-0.9-0.5-1.2-0.8
	c-0.4-0.2-0.7-0.5-1.1-0.7c-0.3-0.2-0.7-0.5-1-0.7c-0.4-0.2-0.7-0.5-1-0.7c-0.3-0.2-0.6-0.4-0.9-0.6c-0.3-0.2-0.6-0.4-0.9-0.6
	c-0.3-0.2-0.6-0.4-0.8-0.6c-0.2-0.2-0.4-0.3-0.6-0.5c-0.2-0.2-0.4-0.3-0.6-0.4c-0.2-0.2-0.2-0.2-0.5-0.4c-0.2-0.1-0.3-0.2-0.4-0.3
	c-0.1-0.1-0.2-0.1-0.3-0.2c-0.1-0.1-0.2-0.2-0.4-0.2c-0.1,0-0.1-0.1-0.2-0.2c-0.4-0.2-0.6-0.5-0.8-0.9c-0.3-0.7-0.1-1.6,0.7-2
	C85.2,180.1,85.2,180.1,85.3,180L85.3,180z"/>
<path d="M160.5,155.5C160.5,155.5,160.5,155.5,160.5,155.5C160.5,155.5,160.5,155.5,160.5,155.5z M160.6,151.4c-0.1,0-0.1,0-0.2-0.1
	c-0.1,0-0.1,0-0.2,0c-0.1,0-0.1,0-0.2,0c-0.1,0-0.1,0-0.2,0h-0.3c0,0-0.1,0-0.1,0c0,0-0.1,0-0.1,0.1c-0.1,0-0.2,0.1-0.2,0.1
	c-0.1,0-0.1,0.1-0.2,0.1c0,0,0,0,0,0c0,0.1,0,0.3,0,0.4c0,0,0,0.1,0,0.1c0,0,0,0.1,0.1,0.2c0,0.1,0,0.1,0.1,0.3c0,0.1,0,0.1,0.1,0.2
	c0,0.1,0,0.1,0.1,0.2c0,0.1,0.1,0.1,0.1,0.2c0,0.1,0.1,0.1,0.1,0.2c0,0.1,0.1,0.1,0.2,0.2c0.1,0.1,0.2,0.3,0.3,0.4
	c0.1,0.1,0.1,0.2,0.1,0.2c0-0.1,0.1-0.2,0.1-0.3c0-0.1,0.1-0.3,0.1-0.4c0.1-0.3,0.1-0.3,0.1-0.5c0-0.2,0.1-0.3,0.1-0.5
	c0.1-0.3,0.1-0.3,0.1-0.6c0-0.1,0.1-0.2,0.1-0.3C160.7,151.5,160.7,151.4,160.6,151.4z M157.2,149.5c-0.3-0.2-0.5-0.5-0.7-0.9
	c-0.1-0.2-0.2-0.4-0.2-0.7c0-0.2-0.1-0.4-0.1-0.5c0-0.2,0-0.2-0.1-0.4c0-0.2,0-0.2-0.1-0.5c0-0.3,0-0.3-0.1-0.5
	c0-0.2-0.1-0.4-0.1-0.6c0-0.3,0-0.3-0.1-0.6c0-0.2-0.1-0.5-0.1-0.8c0-0.3,0-0.5-0.1-0.8c0-0.4,0-0.4-0.1-0.9c0-0.4,0-0.7-0.1-1.1
	c0-0.3,0-0.7,0-1.1c0-0.4,0-0.8,0-1.2c0-0.4,0-0.8,0-1.3c0-0.5,0-0.9,0-1.2v-6.9c0-0.3,0-0.6,0-1c0-0.3,0-0.6,0-0.9v-2.4
	c0-0.3,0-0.5,0-0.7c0-0.3,0-0.5,0.1-0.8c0-0.2,0.1-0.4,0.1-0.6c0-0.2,0.1-0.4,0.1-0.6c0.1-0.2,0.1-0.3,0.1-0.5
	c0.1-0.2,0.1-0.4,0.2-0.5c0.1-0.2,0.2-0.4,0.4-0.5c0.2-0.3,0.5-0.5,0.9-0.6c0.2-0.1,0.5-0.1,0.7-0.1c0.4,0,0.8,0.2,1.1,0.5
	c0.2,0.2,0.3,0.3,0.5,0.5c0.1,0.1,0.2,0.3,0.3,0.4c0.1,0.2,0.2,0.3,0.3,0.5c0.1,0.2,0.1,0.4,0.2,0.6c0.1,0.2,0.1,0.4,0.2,0.7
	c0,0.2,0.1,0.4,0.1,0.7c0,0.3,0.1,0.5,0.1,0.7c0,0.2,0.1,0.5,0.1,0.8c0,0.3,0.1,0.6,0.1,0.9c0,0.3,0,0.6,0,0.9c0,0.4,0,0.4,0,0.8
	c0,0.4,0,0.4,0,0.9c0,0.5,0,0.5,0,0.9c0,0.3,0,0.6,0,0.9c0,0.3,0,0.7,0.1,1c0,0.3,0,0.7,0.1,1.1c0,0.4,0.1,0.7,0.1,1
	c0,0.3,0.1,0.7,0.1,1.1c0,0.4,0.1,0.7,0.1,1c0,0.3,0.1,0.7,0.1,1c0,0.4,0.1,0.7,0.1,1c0,0.3,0.1,0.7,0.1,1c0.1,0.5,0.1,0.5,0.1,0.9
	c0,0.2,0.1,0.5,0.1,0.8c0,0.3,0.1,0.5,0.1,0.8c0,0.2,0.1,0.5,0.1,0.7c0,0.2,0.1,0.3,0.1,0.7c0,0.2,0.1,0.4,0.1,0.6
	c0.1,0.3,0.1,0.3,0.1,0.6c0,0.2,0.1,0.4,0.1,0.6c0,0.2,0.1,0.3,0.1,0.4c0,0.2,0,0.2,0.1,0.4c0,0.2,0,0.2,0.1,0.4
	c0,0.2,0,0.2,0.1,0.4c0.3,0.2,0.5,0.7,0.5,1.1v0.1c0,0.1,0,0.3,0,0.4c0,0.2,0,0.4,0,0.5l0,0.3c0,0.2,0,0.2-0.1,0.4
	c0,0.1,0,0.3-0.1,0.4c0,0.1-0.1,0.3-0.1,0.5c-0.1,0.2-0.1,0.2-0.1,0.5c0,0.2-0.1,0.4-0.1,0.5c0,0.2-0.1,0.4-0.1,0.6
	c0,0.2-0.1,0.3-0.1,0.5c-0.1,0.3-0.1,0.3-0.1,0.6c0,0.2-0.1,0.4-0.2,0.6c-0.1,0.3-0.1,0.3-0.2,0.5c-0.1,0.2-0.1,0.4-0.2,0.5
	c-0.1,0.2-0.1,0.3-0.2,0.5c0,0.1-0.1,0.3-0.1,0.4c-0.1,0.2-0.1,0.3-0.2,0.4c-0.1,0.1-0.1,0.3-0.2,0.4c-0.1,0.2-0.3,0.4-0.4,0.5
	c-0.2,0.2-0.4,0.4-0.6,0.5c-0.3,0.2-0.6,0.2-0.9,0.2c-0.2,0-0.4,0-0.6-0.1c-0.3-0.1-0.6-0.3-0.9-0.6c-0.2-0.2-0.3-0.5-0.4-0.8
	c0-0.1-0.1-0.3-0.1-0.4c0-0.1,0-0.2-0.1-0.2c0,0,0,0,0-0.1c0,0,0-0.1-0.1-0.1c-0.1-0.1-0.2-0.2-0.3-0.3s-0.2-0.2-0.3-0.4
	c-0.1-0.1-0.2-0.3-0.3-0.4c-0.1-0.1-0.1-0.3-0.2-0.4c-0.1-0.1-0.1-0.3-0.2-0.4c0-0.2,0-0.2-0.1-0.3c0-0.1,0-0.1-0.1-0.3
	c-0.1-0.3-0.2-0.7-0.1-1.1c0-0.1,0-0.1,0-0.2c0-0.1,0-0.1,0-0.2c0-0.2,0-0.3,0.1-0.5c0-0.2,0.1-0.4,0.2-0.6c0.1-0.2,0.2-0.4,0.4-0.5
	C157.1,149.7,157.2,149.6,157.2,149.5C157.3,149.5,157.3,149.5,157.2,149.5L157.2,149.5z M160.7,149.2L160.7,149.2
	C160.7,149.2,160.7,149.2,160.7,149.2z M159.3,148.6c0.1,0,0.1,0,0.2,0h0.3c0.1,0,0.3,0,0.4,0c0.2,0,0.2,0,0.3,0
	c0.1,0,0.3,0,0.4,0.1c0,0,0,0,0,0v-0.2c0-0.1,0-0.2,0-0.3c0-0.2,0-0.2,0-0.4c0-0.1,0-0.2,0-0.3c0-0.2,0-0.2,0-0.3c0-0.1,0-0.1,0-0.3
	c0-0.2,0-0.2-0.1-0.4c0-0.2,0-0.2-0.1-0.4c0-0.2,0-0.2-0.1-0.4c0-0.1-0.1-0.3-0.1-0.5c0-0.2-0.1-0.3-0.1-0.5
	c-0.1-0.3-0.1-0.3-0.1-0.5c0-0.2-0.1-0.4-0.1-0.7c-0.1-0.3-0.1-0.4-0.1-0.7c0-0.2-0.1-0.5-0.1-0.7c0-0.3-0.1-0.5-0.1-0.8
	c0-0.3-0.1-0.6-0.1-0.8c-0.1-0.4-0.1-0.4-0.1-0.9c0-0.3-0.1-0.7-0.1-1c0-0.3-0.1-0.7-0.1-1.1c-0.1-0.4-0.1-0.7-0.1-1.1
	c0-0.3-0.1-0.7-0.1-1.1c0-0.4-0.1-0.7-0.1-1.1c0-0.4-0.1-0.7-0.1-1.1c0-0.4-0.1-0.7-0.1-1.1c0-0.4,0-0.7-0.1-1c0-0.3,0-0.7,0-0.9
	c0-0.4,0-0.4,0-0.9c0-0.5,0-0.5,0-1c0-0.4,0-0.4,0-0.9c0-0.3,0-0.5,0-0.8c0-0.2,0-0.5-0.1-0.8c0-0.3-0.1-0.5-0.1-0.6
	c0-0.2-0.1-0.3-0.1-0.5c0-0.2-0.1-0.4-0.1-0.6c0-0.1,0-0.2-0.1-0.2c0,0.1,0,0.1,0,0.2c0,0.2,0,0.3,0,0.4c0,0.2,0,0.4,0,0.6v2.4
	c0,0.3,0,0.5,0,0.9c0,0.3,0,0.7,0,1v6.9c0,0.3,0,0.7,0,1.2c0,0.5,0,0.9,0,1.3c0,0.4,0,0.8,0,1.2c0,0.4,0,0.7,0,1.1c0,0.3,0,0.6,0,1
	c0,0.5,0,0.5,0.1,0.9c0,0.3,0,0.5,0.1,0.8c0,0.2,0,0.5,0.1,0.7c0,0.3,0,0.3,0.1,0.6c0,0.2,0,0.4,0.1,0.5c0,0.2,0,0.2,0.1,0.5
	c0,0.2,0,0.2,0.1,0.4c0,0.2,0,0.2,0.1,0.4c0,0.1,0,0.2,0.1,0.4c0,0,0,0.1,0,0.1C159.2,147.7,159.4,148.1,159.3,148.6L159.3,148.6z
	 M158.9,147.4C158.9,147.5,158.9,147.5,158.9,147.4L158.9,147.4L158.9,147.4z"/>
<path d="M153.4,145C153.4,145,153.4,145,153.4,145C153.4,145,153.4,145,153.4,145z M149.5,155C149.5,155,149.5,155,149.5,155
	C149.5,155,149.5,155,149.5,155z M157,156.7L157,156.7L157,156.7z M153.3,145.2c0,0.1-0.1,0.1-0.1,0.2c-0.1,0.1-0.1,0.1-0.1,0.2
	c-0.1,0.2-0.1,0.2-0.1,0.4c-0.1,0.1-0.1,0.3-0.2,0.4c-0.1,0.3-0.1,0.3-0.2,0.5c-0.1,0.2-0.1,0.4-0.2,0.6c-0.1,0.2-0.1,0.4-0.2,0.6
	c-0.1,0.3-0.1,0.3-0.2,0.6c-0.1,0.2-0.1,0.4-0.2,0.7c-0.1,0.2-0.2,0.5-0.2,0.6c-0.1,0.3-0.1,0.3-0.2,0.6c-0.1,0.2-0.2,0.4-0.2,0.6
	c-0.1,0.2-0.1,0.4-0.2,0.6c-0.1,0.2-0.1,0.4-0.2,0.6c-0.1,0.2-0.1,0.2-0.2,0.5c-0.1,0.2-0.1,0.2-0.2,0.4c0,0.1,0,0.1-0.1,0.1
	c0.1,0,0.2,0.1,0.4,0.1c0.2,0.1,0.2,0.1,0.3,0.1c0.2,0.1,0.3,0.1,0.5,0.2c0.1,0.1,0.2,0.1,0.3,0.2c0.1,0.1,0.3,0.1,0.5,0.2
	c0.2,0.1,0.2,0.1,0.4,0.3c0.1,0.1,0.3,0.2,0.4,0.2c0.2,0.1,0.3,0.2,0.4,0.2c0.1,0.1,0.2,0.1,0.4,0.2c0.2,0.1,0.3,0.2,0.5,0.3
	c0.1,0.1,0.2,0.1,0.3,0.2c0.2,0.1,0.2,0.1,0.4,0.2c0.1,0.1,0.3,0.1,0.4,0.2c0.1,0,0.1,0.1,0.2,0.1c0.1,0.1,0.3,0.1,0.4,0.2
	c0.2,0.1,0.2,0.1,0.4,0.2c0,0,0,0,0,0c0-0.1,0.1-0.2,0.1-0.2c0.1-0.2,0.1-0.2,0.1-0.4c0.1-0.2,0.1-0.2,0.1-0.4
	c0-0.1,0.1-0.2,0.1-0.3c0-0.2,0.1-0.3,0.1-0.5c0.1-0.2,0.1-0.2,0.1-0.4c0.1-0.2,0.1-0.2,0.1-0.4c0.1-0.2,0.1-0.2,0.1-0.4
	c0-0.1,0.1-0.3,0.1-0.5c0-0.2,0.1-0.3,0.1-0.5c0-0.2,0.1-0.3,0.1-0.5c0-0.1,0.1-0.3,0.1-0.5c0.1-0.3,0.1-0.3,0.1-0.5
	c0.1-0.3,0.1-0.3,0.1-0.5c0.1-0.3,0.1-0.3,0.1-0.5c0-0.2,0.1-0.3,0.1-0.5c0.1-0.3,0.1-0.3,0.1-0.5c0.1-0.3,0.1-0.3,0.1-0.5
	c0-0.2,0.1-0.4,0.2-0.5c0.1-0.3,0.1-0.3,0.1-0.5c0-0.1,0.1-0.2,0.1-0.4c0.1-0.2,0.1-0.2,0.1-0.4c0.1-0.2,0.1-0.2,0.1-0.3
	c0,0,0-0.1,0-0.2c0-0.2,0-0.2,0.1-0.4c0-0.1,0-0.2,0-0.2v0c-0.1,0-0.1,0-0.2-0.1c-0.2,0-0.3-0.1-0.4-0.1c-0.1,0-0.2,0-0.3,0
	c-0.1,0-0.2,0-0.3,0c-0.2,0-0.2,0-0.3,0c-0.1,0-0.2,0-0.3,0c-0.1,0-0.2,0-0.3,0H156c-0.1,0-0.2,0-0.2,0c0,0-0.1,0-0.1,0
	c-0.1,0-0.2,0-0.3,0.1c-0.1,0-0.2,0.1-0.3,0.1l-0.2,0.1c-0.5,0.1-1,0-1.3-0.4C153.4,145.1,153.4,145.1,153.3,145.2L153.3,145.2z
	 M149.2,155.9c-0.1,0-0.1,0-0.2,0c-0.3,0.1-0.6,0-0.9,0c-0.9-0.2-1.4-1.2-1-2.1c0.1-0.1,0.1-0.1,0.2-0.3c0.1-0.2,0.1-0.2,0.2-0.4
	c0-0.1,0.1-0.1,0.1-0.2c0.1-0.1,0.1-0.1,0.2-0.3c0.1-0.2,0.1-0.2,0.2-0.4c0.1-0.2,0.1-0.2,0.2-0.4c0.1-0.2,0.1-0.2,0.2-0.5
	c0.1-0.1,0.1-0.3,0.2-0.5c0.1-0.2,0.1-0.4,0.2-0.6c0.1-0.2,0.1-0.4,0.2-0.6c0.1-0.3,0.1-0.3,0.2-0.6c0.1-0.2,0.1-0.4,0.2-0.6
	s0.1-0.4,0.2-0.6c0.1-0.3,0.1-0.3,0.2-0.6c0.1-0.2,0.1-0.4,0.2-0.6c0.1-0.2,0.1-0.4,0.2-0.6c0.1-0.3,0.1-0.3,0.2-0.5
	c0.1-0.2,0.1-0.3,0.2-0.5c0.1-0.2,0.1-0.2,0.2-0.4c0.1-0.2,0.1-0.2,0.1-0.3c0.1-0.1,0.1-0.3,0.2-0.5c0.1-0.2,0.2-0.4,0.4-0.5
	c0.2-0.2,0.4-0.4,0.6-0.5c0.3-0.2,0.7-0.2,1.1-0.2c0.4,0,0.7,0.2,1,0.5l0.1,0c0.1,0,0.3-0.1,0.5-0.1c0.2,0,0.3-0.1,0.4-0.1
	c0.2,0,0.3,0,0.4-0.1c0.1,0,0.2,0,0.4,0h1.4c0.1,0,0.3,0,0.4,0c0.1,0,0.3,0,0.4,0c0.2,0,0.2,0,0.4,0c0.1,0,0.3,0,0.4,0
	c0.1,0,0.3,0,0.4,0c0.1,0,0.3,0.1,0.5,0.1c0.3,0.1,0.5,0.1,0.7,0.2c0.2,0.1,0.4,0.2,0.6,0.3c0.2,0.2,0.4,0.3,0.6,0.5
	c0.2,0.3,0.4,0.6,0.4,1c0,0.2,0,0.4,0,0.6c0,0.2,0,0.3,0,0.5c0,0.2-0.1,0.4-0.1,0.6c-0.1,0.2-0.1,0.2-0.1,0.3c0,0.1-0.1,0.3-0.1,0.4
	c-0.1,0.1-0.1,0.1-0.1,0.3c-0.1,0.2-0.1,0.2-0.1,0.3c0,0.2-0.1,0.3-0.1,0.5c-0.1,0.2-0.1,0.2-0.1,0.4c0,0.2-0.1,0.3-0.1,0.4
	c-0.1,0.2-0.1,0.2-0.1,0.5c-0.1,0.3-0.1,0.3-0.1,0.5c-0.1,0.2-0.1,0.4-0.2,0.5c-0.1,0.3-0.1,0.3-0.1,0.5c-0.1,0.3-0.1,0.3-0.1,0.5
	c-0.1,0.3-0.1,0.3-0.1,0.5c-0.1,0.2-0.1,0.4-0.1,0.5c0,0.1-0.1,0.3-0.1,0.4c0,0.2-0.1,0.3-0.1,0.5c0,0.2-0.1,0.3-0.1,0.5
	c-0.1,0.2-0.1,0.2-0.1,0.4c-0.1,0.2-0.1,0.2-0.1,0.5c-0.1,0.2-0.1,0.2-0.1,0.4c0,0.1-0.1,0.2-0.1,0.4c0,0.2-0.1,0.4-0.1,0.5
	c-0.1,0.2-0.1,0.2-0.1,0.4c-0.1,0.2-0.1,0.2-0.1,0.4c-0.1,0.2-0.1,0.3-0.2,0.5c-0.1,0.2-0.2,0.5-0.3,0.6c-0.2,0.3-0.3,0.5-0.6,0.7
	c-0.3,0.2-0.7,0.4-1.1,0.4c-0.2,0-0.3,0-0.5,0c-0.2,0-0.4-0.1-0.6-0.1c-0.2-0.1-0.3-0.1-0.5-0.2c-0.2-0.1-0.2-0.1-0.4-0.2
	c-0.1,0-0.2-0.1-0.3-0.1c-0.1-0.1-0.3-0.1-0.4-0.2c-0.1-0.1-0.2-0.1-0.3-0.2c-0.2-0.1-0.2-0.1-0.4-0.2c-0.1-0.1-0.3-0.2-0.5-0.2
	c-0.1-0.1-0.3-0.2-0.4-0.2c-0.2-0.1-0.3-0.2-0.5-0.3c-0.1-0.1-0.2-0.1-0.4-0.2c-0.2-0.1-0.3-0.2-0.5-0.3c-0.2-0.1-0.2-0.1-0.4-0.3
	c-0.1-0.1-0.2-0.1-0.3-0.2c-0.1-0.1-0.3-0.1-0.4-0.2c-0.1-0.1-0.2-0.1-0.3-0.1c-0.2-0.1-0.2-0.1-0.3-0.1c-0.1,0-0.1-0.1-0.2-0.1
	H149.2L149.2,155.9z"/>
<path d="M185.8,136.7C185.8,136.7,185.8,136.7,185.8,136.7C185.8,136.7,185.8,136.7,185.8,136.7z M185.5,138.2
	C185.5,138.2,185.5,138.2,185.5,138.2C185.5,138.2,185.5,138.2,185.5,138.2z M186.9,139.2c-0.1,0.2-0.1,0.2-0.2,0.4
	c0,0.1-0.1,0.1-0.1,0.3c-0.1,0.2-0.1,0.2-0.2,0.4c0,0.1-0.1,0.2-0.1,0.3c0,0.1-0.1,0.3-0.2,0.4c-0.1,0.2-0.1,0.3-0.2,0.4
	c-0.1,0.2-0.1,0.3-0.2,0.5c-0.1,0.2-0.1,0.3-0.1,0.4c-0.1,0.2-0.1,0.2-0.2,0.5c-0.1,0.2-0.1,0.3-0.2,0.5c-0.1,0.2-0.1,0.2-0.2,0.4
	c-0.1,0.2-0.1,0.2-0.1,0.3c-0.1,0.2-0.1,0.2-0.1,0.4c0,0.1-0.1,0.2-0.1,0.3c-0.1,0.2-0.1,0.2-0.1,0.4c-0.1,0.2-0.1,0.3-0.1,0.5
	c0,0.1,0,0.2-0.1,0.3c0,0.1,0,0.2,0,0.4c0,0.2,0,0.3-0.1,0.5c0,0.2-0.1,0.4-0.1,0.5c-0.1,0.2-0.2,0.4-0.3,0.6
	c-0.1,0.2-0.3,0.4-0.5,0.5c-0.2,0.1-0.3,0.3-0.5,0.3c-0.1,0.1-0.1,0.1-0.3,0.1c-0.1,0.1-0.3,0.1-0.4,0.2c-0.1,0-0.3,0.1-0.4,0.1
	c-0.2,0-0.3,0.1-0.5,0.1c-0.2,0-0.4,0.1-0.6,0.1c-0.2,0-0.3,0-0.5,0h-0.4c-0.1,0-0.3,0-0.5,0c-0.2,0-0.4,0-0.5,0
	c-0.2,0-0.2,0-0.4-0.1c-0.2,0-0.4,0-0.6-0.1c-0.2,0-0.4-0.1-0.6-0.1c-0.2,0-0.4-0.1-0.5-0.1c-0.2,0-0.4-0.1-0.5-0.2
	c-0.2-0.1-0.4-0.1-0.5-0.2c-0.2-0.1-0.2-0.1-0.5-0.2c-0.2-0.1-0.3-0.1-0.5-0.2c-0.2-0.1-0.2-0.1-0.4-0.2c-0.2-0.1-0.2-0.1-0.3-0.1
	l-0.3-0.1c-0.1,0-0.1,0-0.2-0.1c-0.1,0-0.2,0-0.4,0c-0.1,0-0.2,0-0.3,0c-0.1,0-0.1,0-0.2,0.1c-0.2,0.1-0.5,0.2-0.8,0.2
	c-0.7,0-1.4-0.6-1.4-1.3c0-0.1,0-0.3,0-0.5c0-0.1,0-0.3,0.1-0.4c0-0.2,0.1-0.3,0.1-0.5c0-0.1,0-0.1,0.1-0.2c0-0.1,0.1-0.3,0.1-0.4
	c0-0.2,0-0.2,0.1-0.3c0-0.2,0-0.2,0.1-0.4c0-0.1,0.1-0.3,0.1-0.4c0-0.1,0.1-0.3,0.1-0.4c0-0.2,0.1-0.3,0.1-0.5
	c0-0.2,0.1-0.4,0.1-0.6c0.1-0.3,0.1-0.3,0.1-0.6c0-0.2,0.1-0.4,0.1-0.6c0.1-0.3,0.1-0.3,0.1-0.6c0-0.2,0.1-0.3,0.1-0.6
	c0-0.2,0.1-0.4,0.1-0.5c0-0.2,0.1-0.4,0.1-0.5c0-0.2,0.1-0.3,0.1-0.5c0-0.2,0-0.2,0.1-0.4c0-0.1,0.1-0.3,0.1-0.4
	c0-0.2,0.1-0.3,0.1-0.4c0.1-0.3,0.3-0.5,0.5-0.7c0.2-0.2,0.4-0.3,0.7-0.5c0.6-0.4,1.3-0.3,1.7,0.3c0.4,0.6,0.2,1.4-0.3,1.8
	c-0.1,0.1-0.2,0.2-0.3,0.2c0,0.1,0,0.2-0.1,0.3c0,0.2,0,0.2-0.1,0.4c0,0.1,0,0.2-0.1,0.4c0,0.1,0,0.3-0.1,0.4c0,0.2-0.1,0.4-0.1,0.6
	c0,0.2-0.1,0.4-0.1,0.6c-0.1,0.3-0.1,0.3-0.1,0.6c0,0.2-0.1,0.5-0.1,0.6c-0.1,0.3-0.1,0.3-0.1,0.6c0,0.2-0.1,0.4-0.1,0.6
	c0,0.2-0.1,0.4-0.1,0.6c0,0.2-0.1,0.3-0.1,0.5c0,0.1-0.1,0.3-0.1,0.5c-0.1,0.2-0.1,0.2-0.1,0.4c0,0.1,0,0.2-0.1,0.2h0.3
	c0.2,0,0.4,0,0.5,0.1c0.1,0,0.3,0.1,0.4,0.1c0.2,0.1,0.2,0.1,0.4,0.1c0.2,0.1,0.2,0.1,0.4,0.2c0.2,0.1,0.2,0.1,0.4,0.2
	c0.1,0.1,0.3,0.1,0.4,0.2c0.2,0.1,0.2,0.1,0.4,0.2c0.1,0.1,0.3,0.1,0.4,0.2c0.1,0,0.3,0.1,0.4,0.1c0.1,0,0.3,0.1,0.5,0.1
	c0.2,0,0.3,0.1,0.4,0.1c0.1,0,0.3,0,0.4,0.1c0.2,0,0.2,0,0.4,0c0.1,0,0.2,0,0.4,0c0.2,0,0.3,0,0.4,0h0.4c0.1,0,0.3,0,0.4,0
	c0.1,0,0.1,0,0.2,0c0.1,0,0.1,0,0.2-0.1c0.1,0,0.2,0,0.2-0.1c0.1,0,0.1,0,0.2-0.1c0.1,0,0.1,0,0.2-0.1c0,0,0,0,0.1-0.1
	c0,0,0,0,0-0.1c0-0.1,0-0.2,0-0.3c0-0.2,0-0.3,0.1-0.5c0-0.2,0.1-0.4,0.1-0.6c0-0.2,0.1-0.4,0.2-0.6c0.1-0.3,0.1-0.3,0.1-0.4
	c0-0.1,0.1-0.2,0.1-0.4c0.1-0.2,0.1-0.2,0.1-0.3c0.1-0.2,0.1-0.2,0.1-0.4c0.1-0.2,0.1-0.2,0.2-0.4c0-0.1,0.1-0.3,0.1-0.4
	c0.1-0.2,0.1-0.2,0.1-0.4c0.1-0.2,0.1-0.3,0.2-0.5c0.1-0.2,0.1-0.3,0.2-0.5c0.1-0.2,0.1-0.2,0.2-0.5c0.1-0.1,0.1-0.3,0.1-0.4
	c0-0.1,0.1-0.3,0.2-0.4c0.1-0.2,0.1-0.2,0.1-0.4c0.1-0.1,0.1-0.3,0.1-0.4c0.1-0.2,0.1-0.2,0.2-0.4c0.1-0.1,0.1-0.3,0.2-0.4
	c-0.1,0-0.1,0-0.2-0.1c-0.1,0-0.1-0.1-0.2-0.1c-0.1-0.1-0.3-0.1-0.4-0.2c-0.2-0.1-0.2-0.1-0.3-0.1c-0.1,0-0.2-0.1-0.3-0.1
	c-0.1,0-0.2-0.1-0.3-0.1c-0.1,0-0.3-0.1-0.4-0.1c-0.1,0-0.2-0.1-0.4-0.1c-0.1,0-0.3-0.1-0.4-0.1c-0.1,0-0.2-0.1-0.4-0.1
	c-0.1,0-0.3-0.1-0.4-0.1c-0.1,0-0.2,0-0.3,0c-0.1,0-0.2,0-0.4,0c-0.2,0-0.2,0-0.4,0c-0.2,0-0.2,0-0.4,0c-0.1,0-0.2,0-0.2,0
	c-0.1,0-0.1,0-0.2,0h-1.5c-0.7,0-1.3-0.6-1.3-1.3c0-0.7,0.6-1.3,1.3-1.3h1.5c0.1,0,0.2,0,0.3,0c0.1,0,0.3,0,0.4,0c0.2,0,0.2,0,0.3,0
	c0.2,0,0.2,0,0.4,0c0.1,0,0.3,0,0.4,0c0.2,0,0.3,0,0.5,0.1c0.2,0,0.3,0,0.5,0.1c0.2,0,0.3,0.1,0.5,0.1c0.1,0,0.3,0.1,0.5,0.1
	c0.2,0,0.3,0.1,0.5,0.1c0.1,0,0.2,0.1,0.4,0.1c0.2,0,0.3,0.1,0.5,0.2c0.1,0.1,0.3,0.1,0.4,0.2c0.2,0.1,0.2,0.1,0.4,0.2
	c0.1,0,0.2,0.1,0.3,0.1c0.1,0.1,0.3,0.1,0.4,0.2c0.1,0,0.1,0.1,0.2,0.1c0.2,0.1,0.2,0.1,0.3,0.1c0.1,0,0.2,0.1,0.4,0.2
	c0.2,0.1,0.4,0.2,0.5,0.4c0.3,0.2,0.5,0.6,0.6,0.9c0.1,0.4,0.1,0.8-0.1,1.2c-0.1,0.3-0.3,0.5-0.5,0.6
	C186.9,139,186.9,139.1,186.9,139.2L186.9,139.2z M187,138.8C187.1,138.8,187.1,138.8,187,138.8C187.1,138.8,187.1,138.8,187,138.8z
	"/>
<path fill="#27B04B" d="M178.1,167L178.1,167L178.1,167L178.1,167z M173.3,155.6c-0.2,0.2-0.3,0.3-0.3,0.3c0,0.1-0.1,0.1-0.1,0.2
	c0,0.1-0.1,0.1-0.1,0.2c-0.1,0.2-0.1,0.2-0.2,0.4c0,0.1-0.1,0.2-0.1,0.3c-0.1,0.2-0.1,0.3-0.2,0.5c-0.1,0.1-0.1,0.3-0.1,0.4
	c-0.1,0.2-0.1,0.2-0.2,0.5c-0.1,0.3-0.1,0.3-0.2,0.6c-0.1,0.2-0.1,0.4-0.2,0.6c-0.1,0.2-0.1,0.4-0.2,0.5c-0.1,0.2-0.1,0.4-0.2,0.5
	c-0.1,0.2-0.1,0.2-0.2,0.5c-0.1,0.2-0.1,0.2-0.2,0.5c-0.1,0.2-0.1,0.3-0.1,0.4c-0.1,0.2-0.1,0.2-0.1,0.4c0,0.1-0.1,0.3-0.1,0.4
	c-0.1,0.2-0.1,0.2-0.1,0.4c0,0.2-0.1,0.3-0.1,0.4c0,0.2,0,0.2-0.1,0.4c0,0.2,0,0.2-0.1,0.4c0,0.1,0,0.1,0,0.1c0.2,0,0.3,0,0.5,0h0.7
	c0.2,0,0.4,0,0.7,0.1c0.2,0,0.3,0.1,0.5,0.1c0.2,0.1,0.3,0.1,0.5,0.2c0.2,0.1,0.2,0.1,0.4,0.2c0.2,0.1,0.3,0.1,0.5,0.2
	c0.2,0.1,0.2,0.1,0.4,0.2c0.1,0.1,0.3,0.1,0.4,0.2c0.2,0.1,0.2,0.1,0.5,0.2c0.1,0.1,0.3,0.1,0.4,0.2c0.2,0.1,0.2,0.1,0.4,0.2
	c0.1,0.1,0.2,0.1,0.3,0.2c0.2,0.1,0.2,0.1,0.3,0.1l0.3,0.1c0.1,0,0.1,0,0.2,0.1c0.1,0,0.1,0,0.2,0.1c0,0,0.1,0,0.2,0
	c0,0,0.1,0,0.1,0c0.1-0.1,0.1-0.3,0.2-0.4c0.1-0.2,0.1-0.2,0.2-0.3c0.1-0.1,0.1-0.1,0.2-0.3c0.1-0.1,0.1-0.2,0.1-0.3
	c0.1-0.1,0.1-0.3,0.2-0.4c0.1-0.1,0.1-0.2,0.2-0.3c0.1-0.2,0.2-0.3,0.2-0.5c0.1-0.1,0.1-0.2,0.2-0.4c0.1-0.2,0.1-0.2,0.2-0.5
	c0.1-0.2,0.1-0.2,0.3-0.5c0.1-0.2,0.2-0.4,0.2-0.5c0.1-0.1,0.1-0.3,0.2-0.5c0.1-0.3,0.1-0.3,0.2-0.5c0.1-0.2,0.1-0.3,0.2-0.5
	c0.1-0.2,0.2-0.4,0.2-0.5c0.1-0.2,0.1-0.3,0.2-0.5c0.1-0.2,0.1-0.3,0.2-0.5c0.1-0.2,0.1-0.2,0.2-0.5c0.1-0.1,0.1-0.3,0.1-0.4
	c0-0.1,0.1-0.2,0.1-0.3c0.1-0.2,0.1-0.2,0.1-0.3c0-0.1,0-0.1,0-0.2c0-0.1,0-0.1,0-0.3c0,0,0-0.1,0-0.1v-0.1c-0.1,0-0.2-0.1-0.3-0.1
	c-0.2-0.1-0.2-0.1-0.3-0.1c-0.1,0-0.1,0-0.3-0.1c-0.2,0-0.2,0-0.3-0.1c-0.1,0-0.2-0.1-0.3-0.1c-0.2,0-0.2,0-0.4-0.1
	c-0.1,0-0.3-0.1-0.4-0.1c-0.2,0-0.2,0-0.4-0.1c-0.2,0-0.2,0-0.5-0.1c-0.2,0-0.3,0-0.5-0.1c-0.2,0-0.4-0.1-0.5-0.1
	c-0.1,0-0.3,0-0.4-0.1c-0.2,0-0.3,0-0.4,0c-0.2,0-0.3,0-0.5-0.1c-0.2,0-0.2,0-0.4-0.1c-0.2,0-0.2,0-0.4-0.1c-0.2,0-0.3-0.1-0.4-0.1
	c-0.1,0-0.3-0.1-0.4-0.1c-0.1,0-0.3-0.1-0.4-0.1l-0.3-0.1c-0.2-0.1-0.3-0.1-0.5-0.2c0,0,0,0,0,0
	C173.4,155.6,173.4,155.6,173.3,155.6z M174.9,153.4c0.1,0,0.1,0,0.1,0c0.1,0,0.1,0,0.2,0.1c0.1,0,0.2,0,0.3,0.1
	c0.1,0,0.2,0,0.3,0.1c0.2,0,0.2,0,0.4,0.1c0.2,0,0.2,0,0.5,0.1c0.1,0,0.3,0,0.4,0c0.1,0,0.3,0,0.5,0c0.2,0,0.4,0,0.5,0.1
	c0.1,0,0.3,0,0.5,0.1c0.2,0,0.4,0.1,0.5,0.1c0.2,0,0.2,0,0.5,0.1c0.2,0,0.2,0,0.4,0.1c0.2,0,0.3,0.1,0.5,0.1
	c0.2,0.1,0.2,0.1,0.4,0.1c0.1,0,0.3,0.1,0.4,0.1c0.2,0.1,0.2,0.1,0.4,0.1c0.2,0.1,0.2,0.1,0.3,0.1c0.2,0.1,0.2,0.1,0.4,0.1
	c0.1,0,0.3,0.1,0.4,0.1c0.2,0.1,0.3,0.1,0.5,0.2c0.2,0.1,0.4,0.3,0.6,0.5c0.3,0.3,0.4,0.7,0.4,1.1v0.4c0,0.2,0,0.2,0,0.3
	c0,0.1,0,0.3,0,0.4c0,0.1,0,0.1,0,0.3c0,0.1-0.1,0.3-0.1,0.5c-0.1,0.2-0.1,0.2-0.1,0.4c0,0.1-0.1,0.3-0.1,0.4c0,0.1-0.1,0.3-0.1,0.4
	c-0.1,0.2-0.1,0.2-0.2,0.5c-0.1,0.2-0.1,0.4-0.2,0.5c-0.1,0.2-0.1,0.4-0.2,0.5c-0.1,0.2-0.1,0.3-0.2,0.5c-0.1,0.2-0.2,0.4-0.3,0.6
	c-0.1,0.3-0.1,0.3-0.2,0.5c-0.1,0.2-0.2,0.4-0.2,0.5c-0.1,0.2-0.2,0.3-0.3,0.5c-0.1,0.3-0.1,0.3-0.2,0.5c-0.1,0.2-0.1,0.2-0.2,0.5
	c-0.1,0.2-0.2,0.3-0.3,0.5c-0.1,0.1-0.1,0.2-0.2,0.4c-0.1,0.2-0.2,0.3-0.2,0.4c-0.1,0.1-0.1,0.2-0.1,0.3c-0.1,0.1-0.1,0.2-0.2,0.3
	c-0.1,0.2-0.1,0.2-0.1,0.3c-0.1,0.2-0.1,0.2-0.2,0.4c-0.1,0.1-0.1,0.3-0.2,0.4c-0.1,0.1-0.1,0.3-0.2,0.4c-0.1,0.2-0.3,0.4-0.5,0.6
	c-0.3,0.3-0.7,0.4-1.1,0.4c-0.2,0-0.2,0-0.4,0c-0.1,0-0.3,0-0.5,0c-0.2,0-0.4-0.1-0.5-0.1c-0.1,0-0.1,0-0.3-0.1
	c-0.1,0-0.3-0.1-0.4-0.1c-0.2-0.1-0.2-0.1-0.4-0.2c-0.2-0.1-0.2-0.1-0.4-0.1c-0.1-0.1-0.3-0.1-0.4-0.2c-0.2-0.1-0.2-0.1-0.5-0.2
	c-0.2-0.1-0.3-0.2-0.5-0.2c-0.2-0.1-0.2-0.1-0.4-0.2c-0.2-0.1-0.3-0.2-0.5-0.3c-0.2-0.1-0.2-0.1-0.4-0.2c-0.1-0.1-0.2-0.1-0.4-0.2
	c-0.2-0.1-0.2-0.1-0.4-0.2c-0.1,0-0.2-0.1-0.2-0.1c-0.1,0-0.2,0-0.3-0.1c-0.1,0-0.1,0-0.1,0h-0.7c-0.1,0-0.2,0-0.3,0
	c-0.2,0-0.3,0-0.5,0.1c-0.2,0-0.4,0-0.6,0c-0.2,0-0.3,0-0.5,0c-0.6-0.1-1.2-0.5-1.3-1.3c0-0.2,0-0.3,0-0.5c0-0.2,0-0.3,0.1-0.5
	c0-0.2,0.1-0.3,0.1-0.4c0-0.1,0-0.2,0-0.2c0-0.1,0-0.2,0.1-0.4c0-0.2,0-0.2,0.1-0.4c0.1-0.2,0.1-0.2,0.1-0.4c0-0.1,0.1-0.3,0.1-0.5
	c0.1-0.2,0.1-0.2,0.1-0.5c0-0.2,0.1-0.3,0.1-0.5c0.1-0.2,0.1-0.2,0.1-0.4c0-0.1,0.1-0.3,0.2-0.5l0.3-1c0.1-0.2,0.1-0.3,0.2-0.5
	c0.1-0.2,0.1-0.4,0.2-0.6c0.1-0.2,0.1-0.4,0.2-0.5c0.1-0.3,0.1-0.3,0.2-0.6c0.1-0.3,0.1-0.3,0.2-0.5c0.1-0.2,0.1-0.3,0.2-0.5
	c0.1-0.1,0.1-0.3,0.2-0.4c0.1-0.2,0.1-0.3,0.2-0.5c0.1-0.2,0.1-0.2,0.2-0.4c0.1-0.1,0.1-0.3,0.2-0.4c0.1-0.1,0.2-0.3,0.2-0.4
	c0.1-0.2,0.4-0.4,0.7-0.8c0.2-0.2,0.5-0.3,0.8-0.3c0.1-0.4,0.5-0.7,0.9-0.8c0.6-0.1,1.2,0.2,1.4,0.7L174.9,153.4z"/>
<path fill="#F04D39" d="M174.5,137.7c-0.1,0.2-0.3,0.5-0.5,0.7c-0.4,0.4-0.9,0.6-1.5,0.7c-0.9,0.1-1.7-0.6-1.8-1.5
	c-0.1-0.7,0.3-1.4,1-1.7c0-0.1,0.1-0.1,0.1-0.3c0.1-0.3,0.3-0.6,0.5-0.8c0.3-0.3,0.6-0.5,1-0.7c0.3-0.1,0.6-0.1,0.9-0.1
	c0.2,0,0.4,0,0.6,0c0.2,0,0.5,0.1,0.7,0.2c0.2,0.1,0.3,0.1,0.5,0.2c0.2,0.1,0.2,0.1,0.4,0.2l0.2,0.1c0.8,0.4,1.1,1.4,0.6,2.2
	s-1.4,1.1-2.2,0.6l-0.2-0.1c-0.1-0.1-0.2-0.1-0.2-0.1C174.6,137.5,174.6,137.6,174.5,137.7L174.5,137.7z"/>
<path fill="#02929D" d="M173.3,114.4c-0.1-0.1-0.1-0.1-0.3-0.3c-0.3-0.4-0.3-0.4-0.2-1.4c0.6-0.6,0.6-0.6,1-0.7c0.2,0,0.2,0,0.4,0
	c0.1,0,0.3,0,0.4,0c0.2,0,0.3,0,0.5,0c0.2,0,0.4,0,0.5,0c0.1,0,0.1,0,0.3,0c0.2,0,0.2,0,0.4,0c0.2,0,0.2,0,0.4,0c0.2,0,0.2,0,0.5,0
	c0.2,0,0.2,0,0.4,0c0.1,0,0.3,0,0.5,0c0.3,0,0.3,0,0.6,0c0.2,0,0.3,0,0.5,0c0.2,0,0.4,0,0.5,0h4.2h0.6c0.2,0,0.3,0,0.5,0
	c0.2,0,0.2,0,0.5,0c0.1,0,0.3,0,0.5,0.1c0.2,0,0.4,0.1,0.6,0.1c0.3,0.1,0.3,0.1,0.5,0.1c0.2,0,0.4,0.1,0.5,0.1
	c0.2,0.1,0.2,0.1,0.4,0.1c0.1,0,0.3,0.1,0.4,0.1c0.5,0.2,0.9,0.5,1,1c0.1,0.3,0.1,0.6,0,1c0,0.2-0.1,0.3-0.2,0.5
	c-0.1,0.2-0.1,0.3-0.2,0.4c0,0.1,0,0.1-0.1,0.3c-0.1,0.1-0.1,0.1-0.1,0.3c-0.1,0.2-0.1,0.2-0.1,0.3c-0.1,0.1-0.1,0.2-0.2,0.4
	c-0.1,0.1-0.1,0.3-0.2,0.4c-0.1,0.2-0.1,0.2-0.2,0.4c-0.1,0.1-0.1,0.3-0.2,0.5c-0.1,0.3-0.1,0.3-0.2,0.5c-0.1,0.2-0.1,0.4-0.2,0.5
	c-0.1,0.2-0.1,0.4-0.2,0.6c-0.1,0.2-0.1,0.3-0.2,0.5c0,0.1-0.1,0.3-0.1,0.4c-0.1,0.2-0.1,0.4-0.2,0.5c-0.1,0.2-0.1,0.2-0.1,0.5
	c-0.1,0.2-0.1,0.2-0.1,0.4c-0.1,0.2-0.1,0.2-0.1,0.4c0,0.1-0.1,0.3-0.1,0.4c-0.1,0.2-0.1,0.2-0.1,0.3c-0.1,0.2-0.1,0.2-0.1,0.3
	c-0.1,0.1-0.1,0.3-0.2,0.5c-0.1,0.2-0.2,0.4-0.3,0.6c-0.1,0.2-0.2,0.4-0.3,0.5c-0.1,0.2-0.2,0.3-0.3,0.5c-0.1,0.1-0.2,0.2-0.2,0.3
	c-0.1,0.2-0.2,0.3-0.3,0.4c-0.1,0.2-0.1,0.2-0.2,0.3c-0.1,0.1-0.1,0.1-0.1,0.2c0,0-0.1,0.1-0.1,0.2c-0.1,0.3-0.3,0.5-0.6,0.7
	c-0.2,0.1-0.3,0.2-0.5,0.3c-0.2,0.1-0.4,0.2-0.6,0.2c-0.2,0.1-0.4,0.1-0.5,0.1c-0.1,0-0.3,0.1-0.4,0.1c-0.1,0-0.3,0-0.4,0.1
	c-0.2,0-0.2,0-0.4,0c-0.2,0-0.2,0-0.4,0.1c-0.2,0-0.3,0-0.5,0c-0.2,0-0.4,0-0.6,0c-0.3,0-0.3,0-0.6,0c-0.3,0-0.3,0-0.6,0
	c-0.2,0-0.4,0-0.7,0c-0.2,0-0.5,0-0.7,0h-3.1c-0.2,0-0.5,0-0.6,0c-0.3,0-0.3,0-0.5,0c-0.2,0-0.4,0-0.5,0c-0.2,0-0.4,0-0.6-0.1
	c-0.3,0-0.5-0.1-0.7-0.1c-0.7-0.2-1.3-0.7-1.2-1.5c0-0.4,0.2-0.8,0.5-1.1c0,0,0-0.1,0.1-0.1c0,0,0,0,0.1-0.1c0,0,0-0.1,0-0.1
	c0-0.1,0-0.2,0.1-0.3c0-0.1,0-0.2,0-0.3c0-0.1,0-0.1,0-0.2c0-0.2,0-0.2,0-0.4c0-0.2,0-0.2,0-0.3c0-0.2,0-0.2,0-0.4
	c0-0.2,0-0.3,0-0.5c0-0.2,0-0.2,0-0.5c0-0.2,0-0.3,0.1-0.5c0-0.2,0-0.4,0.1-0.6c0-0.2,0.1-0.4,0.1-0.6c0-0.2,0.1-0.4,0.1-0.6
	c0.1-0.3,0.1-0.3,0.1-0.5c0-0.2,0.1-0.4,0.1-0.6c0.1-0.3,0.1-0.3,0.1-0.6c0.1-0.3,0.1-0.3,0.1-0.6c0-0.2,0.1-0.4,0.1-0.6
	c0-0.2,0.1-0.3,0.1-0.5l0.1-0.5c0-0.2,0-0.2,0.1-0.4c0-0.2,0-0.2,0.1-0.4c0.1-0.5,0.4-1,0.9-1.3c0.4-0.2,0.8-0.3,1.2-0.2
	C173.4,114.4,173.4,114.4,173.3,114.4L173.3,114.4z M171.6,127.8L171.6,127.8L171.6,127.8z M187.3,115.3
	C187.3,115.3,187.3,115.3,187.3,115.3C187.3,115.3,187.3,115.3,187.3,115.3z M174.1,115c0.4,0.5,0.3,1.2-0.2,1.6c0,0,0,0.1,0,0.1
	c0,0.2,0,0.2-0.1,0.4c0,0.2,0,0.2-0.1,0.5c0,0.2-0.1,0.4-0.1,0.6c0,0.2-0.1,0.4-0.1,0.6c-0.1,0.3-0.1,0.3-0.1,0.6
	c-0.1,0.3-0.1,0.3-0.1,0.7c-0.1,0.2-0.1,0.4-0.1,0.6c-0.1,0.3-0.1,0.3-0.1,0.5c0,0.2-0.1,0.4-0.1,0.5c0,0.2-0.1,0.3-0.1,0.5
	c0,0.2-0.1,0.3-0.1,0.5c0,0.2,0,0.3,0,0.4c0,0.2,0,0.2,0,0.5c0,0.1,0,0.3,0,0.4c0,0.2,0,0.2,0,0.4c0,0.2,0,0.2,0,0.4
	c0,0.2,0,0.2,0,0.3c0,0.1,0,0.3,0,0.4c0,0.1,0,0.3-0.1,0.4c0,0.1,0,0.3-0.1,0.4c0.1,0,0.1,0,0.3,0c0.2,0,0.3,0,0.5,0h3.1
	c0.2,0,0.4,0,0.6,0c0.2,0,0.4,0,0.6,0c0.3,0,0.3,0,0.6,0c0.3,0,0.3,0,0.6,0c0.2,0,0.4,0,0.5,0c0.2,0,0.3,0,0.4,0c0.2,0,0.2,0,0.4,0
	c0.2,0,0.2,0,0.4,0c0.1,0,0.2,0,0.3,0c0.1,0,0.2,0,0.3-0.1c0,0,0.1,0,0.3-0.1c0.1,0,0.1,0,0.2-0.1c0-0.1,0.1-0.2,0.1-0.2
	c0.1-0.1,0.1-0.1,0.2-0.3c0.1-0.2,0.1-0.2,0.3-0.4c0.1-0.1,0.1-0.2,0.2-0.3c0.1-0.1,0.2-0.3,0.3-0.4c0.1-0.1,0.2-0.2,0.3-0.4
	c0.1-0.1,0.2-0.3,0.2-0.4c0.1-0.1,0.2-0.3,0.2-0.4c0.1-0.1,0.1-0.2,0.1-0.3c0.1-0.1,0.1-0.1,0.1-0.3c0.1-0.2,0.1-0.2,0.1-0.3
	c0-0.1,0.1-0.2,0.1-0.3c0.1-0.2,0.1-0.2,0.1-0.3c0.1-0.2,0.1-0.2,0.1-0.4c0.1-0.2,0.1-0.2,0.1-0.4c0-0.1,0.1-0.3,0.1-0.5
	c0.1-0.2,0.1-0.3,0.2-0.5c0-0.2,0.1-0.3,0.2-0.5c0.1-0.2,0.1-0.3,0.2-0.5c0.1-0.2,0.1-0.4,0.2-0.6l0.2-0.6c0.1-0.2,0.1-0.4,0.2-0.5
	c0.1-0.2,0.1-0.2,0.2-0.4c0.1-0.1,0.1-0.3,0.2-0.4c0.1-0.2,0.1-0.3,0.2-0.4c0.1-0.2,0.1-0.2,0.1-0.3c0.1-0.2,0.1-0.2,0.1-0.3
	c-0.1,0-0.2,0-0.3-0.1c-0.2,0-0.3-0.1-0.5-0.1c-0.2,0-0.3,0-0.4-0.1c-0.2,0-0.2,0-0.4,0c-0.1,0-0.3,0-0.4,0h-0.5h-4.2
	c-0.2,0-0.4,0-0.6,0c-0.2,0-0.5,0-0.7,0c-0.3,0-0.3,0-0.5,0c-0.2,0-0.3,0-0.5,0c-0.2,0-0.2,0-0.5,0c-0.2,0-0.2,0-0.4,0
	c-0.2,0-0.2,0-0.4,0c-0.2,0-0.2,0-0.4,0c-0.2,0-0.2,0-0.4,0c-0.1,0-0.2,0-0.4,0c0,0,0,0-0.1,0c-0.3,0.2-0.7,0.2-1.1,0.1
	C173.9,114.7,174,114.8,174.1,115L174.1,115z M173.8,114.6c-0.1,0-0.2-0.1-0.4-0.2C173.5,114.5,173.7,114.5,173.8,114.6z"/>
<path fill="#3C51A3" d="M201.7,137.4c0.2,0,0.3,0,0.5,0h1.6c0.2,0,0.4,0,0.6,0c0.2,0,0.4,0,0.5,0c0.2,0,0.4,0,0.5,0
	c0.2,0,0.4,0,0.6,0.1c0.2,0,0.4,0.1,0.6,0.1c0.2,0,0.3,0,0.5,0.1c0.2,0,0.4,0.1,0.6,0.1c0.3,0.1,0.3,0.1,0.6,0.1
	c0.3,0.1,0.3,0.1,0.6,0.1c0.3,0,0.3,0,0.6,0.1c0.2,0,0.4,0.1,0.6,0.1c0.3,0.1,0.3,0.1,0.5,0.1c0.2,0.1,0.4,0.1,0.6,0.2
	c0.2,0,0.3,0.1,0.5,0.2c0.2,0.1,0.2,0.1,0.4,0.2c0.2,0.1,0.4,0.2,0.6,0.3c0.3,0.1,0.4,0.2,0.6,0.3c0.1,0.1,0.3,0.2,0.4,0.3
	c0.2,0.2,0.3,0.3,0.5,0.5c0.2,0.3,0.4,0.6,0.5,1c0,0.2,0,0.4,0,0.7c0,0.3-0.1,0.5-0.1,0.7c-0.1,0.2-0.1,0.4-0.2,0.5
	c-0.1,0.1-0.2,0.3-0.2,0.4c-0.1,0.1-0.1,0.2-0.2,0.3c0,0.1-0.1,0.1-0.1,0.2c-0.1,0.1-0.1,0.3-0.2,0.4c-0.1,0.1-0.1,0.2-0.2,0.3
	c-0.1,0.1-0.1,0.3-0.2,0.4c-0.1,0.2-0.1,0.2-0.2,0.5c-0.1,0.2-0.2,0.3-0.2,0.5c-0.1,0.2-0.2,0.3-0.2,0.5c-0.1,0.2-0.2,0.4-0.3,0.6
	c-0.1,0.2-0.2,0.4-0.3,0.6c-0.1,0.2-0.2,0.4-0.3,0.7c-0.1,0.2-0.2,0.4-0.3,0.6c-0.1,0.2-0.2,0.4-0.3,0.7c-0.1,0.2-0.2,0.5-0.3,0.6
	c-0.1,0.3-0.1,0.3-0.3,0.6c-0.1,0.2-0.2,0.5-0.3,0.6c-0.1,0.3-0.1,0.3-0.3,0.6c-0.1,0.2-0.2,0.4-0.2,0.5c-0.1,0.2-0.2,0.4-0.3,0.6
	c-0.1,0.2-0.1,0.3-0.2,0.4c-0.1,0.1-0.1,0.3-0.2,0.4c-0.1,0.2-0.1,0.2-0.2,0.4c0,0.1-0.1,0.3-0.2,0.5c-0.1,0.2-0.1,0.4-0.2,0.5
	c0,0.1-0.1,0.2-0.1,0.3c-0.1,0.4-0.2,0.7-0.4,1c-0.4,0.5-1.1,0.7-1.7,0.6c-0.2,0-0.3-0.1-0.5-0.1c-0.2-0.1-0.2-0.1-0.4-0.1
	c-0.2,0-0.3-0.1-0.4-0.1c-0.1,0-0.2-0.1-0.4-0.1c-0.1-0.1-0.3-0.1-0.4-0.2c-0.2-0.1-0.3-0.1-0.5-0.2c-0.2-0.1-0.2-0.1-0.5-0.2
	c-0.2-0.1-0.4-0.2-0.6-0.3c-0.2-0.1-0.3-0.2-0.5-0.3c-0.2-0.1-0.4-0.2-0.5-0.3c-0.2-0.1-0.3-0.2-0.5-0.3c-0.2-0.1-0.4-0.2-0.6-0.3
	c-0.2-0.1-0.3-0.2-0.5-0.2c-0.2-0.1-0.3-0.1-0.5-0.2c-0.2-0.1-0.3-0.1-0.5-0.1c-0.2-0.1-0.3-0.1-0.5-0.1c-0.1,0-0.3-0.1-0.4-0.1
	c-0.2,0-0.3,0-0.4-0.1c-0.1,0-0.2,0-0.3,0c-0.2,0-0.2,0-0.3,0h-0.8c-0.3,0-0.5,0-0.8-0.1c-0.7-0.2-1.2-0.8-1.2-1.6
	c0-0.2,0-0.3,0-0.5c0-0.2,0-0.3,0.1-0.5c0-0.2,0-0.2,0.1-0.4c0-0.1,0.1-0.3,0.1-0.4c0-0.2,0-0.2,0.1-0.3c0-0.2,0.1-0.3,0.2-0.6
	c0.1-0.2,0.1-0.4,0.2-0.6c0.1-0.3,0.1-0.3,0.2-0.6c0.1-0.2,0.1-0.4,0.2-0.7c0.1-0.3,0.1-0.3,0.2-0.7c0.1-0.2,0.2-0.5,0.3-0.7
	c0.1-0.3,0.2-0.5,0.3-0.8c0.1-0.3,0.2-0.5,0.3-0.8c0.1-0.3,0.2-0.6,0.3-0.8c0.1-0.3,0.2-0.5,0.3-0.8c0.1-0.3,0.2-0.6,0.3-0.9
	c0.1-0.3,0.2-0.5,0.3-0.7c0.1-0.2,0.2-0.5,0.3-0.8c0.1-0.3,0.2-0.5,0.3-0.7c0.1-0.3,0.1-0.3,0.2-0.5c0.1-0.2,0.1-0.2,0.2-0.5
	c0.1-0.1,0.1-0.3,0.2-0.4c0.1-0.2,0.2-0.4,0.3-0.5c0.3-0.4,0.6-0.6,1-0.9c0.3-0.1,0.6-0.2,0.8-0.2
	C201.5,137.4,201.6,137.4,201.7,137.4L201.7,137.4z M197.4,152.6L197.4,152.6L197.4,152.6L197.4,152.6z M206.9,154.8
	C207,154.8,207,154.8,206.9,154.8L206.9,154.8L206.9,154.8z M205.7,155.6C205.7,155.6,205.7,155.6,205.7,155.6
	C205.7,155.6,205.7,155.6,205.7,155.6L205.7,155.6z M211.9,141.7C211.9,141.7,211.9,141.7,211.9,141.7
	C211.9,141.7,211.9,141.7,211.9,141.7z M212.1,142.1C212.1,142.1,212.1,142.1,212.1,142.1C212.1,142.1,212.1,142.1,212.1,142.1
	L212.1,142.1z M202.1,140.2L202.1,140.2L202.1,140.2z M201.7,140.5c-0.1,0.2-0.1,0.2-0.2,0.4c-0.1,0.2-0.1,0.2-0.2,0.5
	c-0.1,0.2-0.2,0.4-0.3,0.6c-0.1,0.3-0.2,0.5-0.3,0.7c-0.1,0.3-0.2,0.5-0.3,0.8c-0.1,0.3-0.2,0.5-0.3,0.8c-0.1,0.3-0.2,0.6-0.3,0.8
	c-0.1,0.2-0.2,0.5-0.3,0.8c-0.1,0.3-0.2,0.6-0.3,0.8c-0.1,0.3-0.2,0.5-0.3,0.8c-0.1,0.2-0.2,0.5-0.2,0.7c-0.1,0.3-0.1,0.3-0.2,0.7
	c-0.1,0.2-0.2,0.4-0.2,0.7c-0.1,0.3-0.1,0.3-0.2,0.5c0,0.1-0.1,0.3-0.2,0.5c0,0.2-0.1,0.3-0.1,0.4c-0.1,0.2-0.1,0.2-0.1,0.4
	c0,0,0.1,0,0.2,0c0.2,0,0.3,0,0.5,0c0.2,0,0.3,0,0.5,0.1c0.2,0,0.4,0.1,0.6,0.1c0.2,0,0.4,0.1,0.6,0.2c0.2,0.1,0.4,0.1,0.7,0.2
	c0.2,0.1,0.4,0.2,0.6,0.2c0.2,0.1,0.4,0.2,0.6,0.3c0.2,0.1,0.4,0.2,0.6,0.3c0.2,0.1,0.4,0.2,0.6,0.3c0.2,0.1,0.4,0.2,0.6,0.3
	c0.2,0.1,0.4,0.2,0.6,0.3c0.1,0.1,0.3,0.2,0.4,0.2c0.2,0.1,0.2,0.1,0.5,0.2c0.1,0.1,0.2,0.1,0.3,0.2c0.1,0.1,0.3,0.1,0.4,0.2
	c0,0,0.1,0,0.1,0c0-0.1,0.1-0.2,0.1-0.3c0.1-0.2,0.2-0.4,0.2-0.6c0.1-0.2,0.1-0.2,0.2-0.4c0.1-0.2,0.1-0.3,0.2-0.5
	c0.1-0.2,0.1-0.3,0.2-0.5c0.1-0.2,0.2-0.4,0.2-0.5c0.1-0.2,0.2-0.4,0.3-0.6c0.1-0.3,0.1-0.3,0.3-0.6c0.1-0.2,0.2-0.4,0.3-0.7
	c0.2-0.3,0.2-0.3,0.3-0.6c0.1-0.2,0.2-0.4,0.3-0.7c0.1-0.2,0.2-0.4,0.3-0.6c0.1-0.2,0.2-0.4,0.3-0.6c0.1-0.2,0.2-0.4,0.3-0.6
	c0.1-0.2,0.2-0.4,0.3-0.7c0.1-0.2,0.2-0.4,0.2-0.5c0.1-0.2,0.2-0.4,0.3-0.6c0.1-0.2,0.2-0.4,0.3-0.5c0.1-0.2,0.1-0.2,0.2-0.4
	c0.1-0.1,0.1-0.3,0.2-0.4c0.1-0.2,0.2-0.3,0.2-0.5c0.1-0.1,0.1-0.2,0.1-0.3c0.1-0.1,0.1-0.2,0.2-0.4c0.1-0.1,0.1-0.3,0.2-0.4
	c0.1-0.1,0.1-0.2,0.2-0.3c-0.1,0-0.1-0.1-0.1-0.1c0,0-0.1-0.1-0.3-0.2c-0.2-0.1-0.3-0.1-0.3-0.2c-0.2-0.1-0.2-0.1-0.4-0.1
	c-0.1,0-0.2-0.1-0.3-0.1c-0.1,0-0.2-0.1-0.4-0.1c-0.3-0.1-0.3-0.1-0.5-0.1c-0.1,0-0.3-0.1-0.5-0.1c-0.3,0-0.3,0-0.5-0.1
	c-0.3,0-0.3,0-0.6-0.1c-0.3-0.1-0.3-0.1-0.6-0.1c-0.2,0-0.3-0.1-0.5-0.1c-0.2,0-0.4-0.1-0.6-0.1c-0.2,0-0.3-0.1-0.5-0.1
	c-0.2,0-0.3,0-0.5-0.1c-0.2,0-0.3,0-0.5,0c-0.2,0-0.3,0-0.5,0c-0.1,0-0.3,0-0.5,0h-1.6c-0.1,0-0.2,0-0.3,0l-0.1,0c0,0-0.1,0-0.1,0.1
	C201.7,140.4,201.7,140.5,201.7,140.5L201.7,140.5z"/>
<path fill="#CE57A0" d="M189.8,165.7C189.8,165.7,189.8,165.7,189.8,165.7C189.8,165.7,189.8,165.7,189.8,165.7z M187,176.5
	L187,176.5L187,176.5z M202.3,167.5C202.3,167.5,202.3,167.5,202.3,167.5C202.3,167.5,202.3,167.5,202.3,167.5z M190.1,165.5
	c-0.1,0-0.2,0.1-0.2,0.1c-0.1,0.1-0.1,0.1-0.1,0c0,0.1-0.1,0.1-0.1,0.2c0,0.1-0.1,0.2-0.1,0.4c0,0.1-0.1,0.3-0.1,0.5
	c0,0.2-0.1,0.4-0.1,0.5c-0.1,0.3-0.1,0.3-0.2,0.7c-0.1,0.2-0.1,0.5-0.2,0.7c-0.1,0.3-0.1,0.3-0.2,0.8c-0.1,0.3-0.2,0.6-0.2,0.9
	c-0.1,0.3-0.1,0.6-0.2,0.8c-0.1,0.2-0.1,0.5-0.2,0.7c-0.1,0.3-0.1,0.3-0.2,0.7c-0.1,0.3-0.1,0.5-0.2,0.7c-0.1,0.3-0.1,0.3-0.1,0.5
	c-0.1,0.3-0.1,0.3-0.2,0.6c-0.1,0.3-0.1,0.3-0.2,0.5c-0.1,0.2-0.1,0.2-0.1,0.4c0,0.1,0,0.1-0.1,0.2c0.2,0,0.3,0,0.4,0
	c0.2,0,0.2,0,0.4,0c0.1,0,0.3,0,0.5,0h0.5c0.2,0,0.4,0,0.6,0c0.2,0,0.5,0.1,0.7,0.1c0.2,0,0.4,0.1,0.6,0.1c0.2,0,0.4,0.1,0.6,0.2
	c0.2,0.1,0.4,0.1,0.6,0.2c0.2,0.1,0.5,0.2,0.7,0.2c0.2,0.1,0.4,0.2,0.6,0.2c0.2,0.1,0.4,0.2,0.6,0.2c0.2,0.1,0.4,0.2,0.6,0.2
	c0.2,0.1,0.4,0.2,0.6,0.2c0.2,0.1,0.3,0.2,0.5,0.2c0.2,0.1,0.2,0.1,0.4,0.2c0.2,0.1,0.2,0.1,0.4,0.2c0.2,0.1,0.2,0.1,0.3,0.2
	c0.2,0.1,0.2,0.1,0.3,0.2c0.1,0,0.1,0.1,0.2,0.1c0,0,0-0.1,0-0.1c0.1-0.2,0.1-0.3,0.2-0.5l0.1-0.4c0.1-0.2,0.1-0.2,0.2-0.4
	c0.1-0.2,0.1-0.2,0.2-0.5c0.1-0.3,0.1-0.3,0.2-0.6c0.1-0.3,0.1-0.3,0.2-0.6c0.1-0.3,0.1-0.3,0.3-0.7c0.1-0.4,0.1-0.4,0.3-0.7
	c0.1-0.2,0.2-0.4,0.2-0.6c0.1-0.2,0.2-0.5,0.3-0.7c0.1-0.2,0.2-0.4,0.3-0.6c0.1-0.3,0.1-0.3,0.3-0.6c0.1-0.2,0.2-0.4,0.3-0.6
	c0.1-0.3,0.1-0.3,0.3-0.5c0.1-0.3,0.1-0.3,0.2-0.5c0.1-0.1,0.1-0.3,0.2-0.4c0.1-0.2,0.2-0.4,0.2-0.5c0.1-0.2,0.1-0.2,0.2-0.4
	c0-0.1,0.1-0.2,0.1-0.3c0.1-0.2,0.1-0.2,0.1-0.3c0.1-0.2,0.1-0.2,0.1-0.3c-0.1-0.1-0.1-0.1-0.3-0.2c-0.1-0.1-0.2-0.2-0.4-0.3
	c-0.2-0.1-0.2-0.1-0.3-0.2c-0.1-0.1-0.1-0.1-0.4-0.3c-0.2-0.1-0.3-0.2-0.3-0.2c-0.1-0.1-0.2-0.1-0.3-0.2c-0.2-0.1-0.2-0.1-0.4-0.2
	c-0.1-0.1-0.2-0.1-0.4-0.2c-0.1-0.1-0.3-0.1-0.4-0.2c-0.1-0.1-0.3-0.1-0.5-0.2c-0.3-0.1-0.3-0.1-0.6-0.2c-0.2-0.1-0.4-0.1-0.6-0.2
	c-0.2,0-0.4-0.1-0.5-0.1c-0.2,0-0.4-0.1-0.6-0.1c-0.2,0-0.4-0.1-0.5-0.1c-0.3-0.1-0.3-0.1-0.6-0.1c-0.2,0-0.4-0.1-0.5-0.1
	c-0.3,0-0.3,0-0.5-0.1c-0.2,0-0.4,0-0.5-0.1c-0.1,0-0.3,0-0.4,0c-0.2,0-0.2,0-0.5,0c-0.1,0-0.3,0-0.4,0h-1
	C190.9,164.7,190.6,165.3,190.1,165.5L190.1,165.5z M188.2,162.6c0-0.8,0.6-1.5,1.4-1.5h2.3c0.2,0,0.3,0,0.5,0c0.2,0,0.2,0,0.5,0
	c0.2,0,0.4,0,0.6,0c0.2,0,0.4,0,0.5,0.1c0.3,0,0.3,0,0.6,0.1c0.2,0,0.4,0.1,0.7,0.1c0.3,0.1,0.3,0.1,0.6,0.1c0.2,0,0.4,0.1,0.6,0.1
	c0.2,0,0.4,0.1,0.6,0.1c0.2,0,0.5,0.1,0.7,0.2c0.2,0.1,0.4,0.1,0.6,0.2c0.3,0.1,0.3,0.1,0.6,0.2c0.2,0.1,0.4,0.1,0.6,0.2
	c0.2,0.1,0.4,0.1,0.6,0.2c0.2,0.1,0.4,0.2,0.6,0.3c0.2,0.1,0.2,0.1,0.4,0.2c0.1,0.1,0.3,0.1,0.4,0.2c0.1,0.1,0.3,0.2,0.5,0.3
	c0.3,0.2,0.3,0.2,0.4,0.3l0.3,0.2c0.1,0.1,0.2,0.2,0.3,0.2c0.1,0.1,0.1,0.1,0.3,0.2c0.1,0.1,0.1,0.1,0.3,0.2
	c0.2,0.1,0.3,0.2,0.5,0.4c0.4,0.3,0.6,0.8,0.6,1.3c0,0.2,0,0.4,0,0.6c0,0.2-0.1,0.4-0.1,0.6c0,0.2-0.1,0.3-0.1,0.5
	c-0.1,0.1-0.1,0.1-0.1,0.3c-0.1,0.2-0.1,0.2-0.1,0.3c-0.1,0.2-0.1,0.3-0.2,0.5c-0.1,0.2-0.1,0.2-0.2,0.5c-0.1,0.1-0.1,0.3-0.2,0.4
	c-0.1,0.2-0.2,0.4-0.2,0.5c-0.1,0.2-0.1,0.2-0.2,0.5c-0.1,0.3-0.1,0.3-0.2,0.5c-0.1,0.2-0.2,0.4-0.3,0.6c-0.1,0.3-0.1,0.3-0.3,0.6
	c-0.1,0.2-0.2,0.4-0.3,0.7c-0.1,0.2-0.2,0.4-0.3,0.6c-0.1,0.2-0.2,0.5-0.3,0.7c-0.1,0.3-0.1,0.3-0.3,0.7c-0.1,0.4-0.1,0.4-0.3,0.6
	c-0.1,0.3-0.1,0.3-0.2,0.6s-0.1,0.3-0.2,0.5c-0.1,0.3-0.1,0.3-0.2,0.5c-0.1,0.2-0.1,0.2-0.2,0.4c-0.1,0.2-0.1,0.2-0.1,0.4
	c0,0.1-0.1,0.3-0.2,0.4c-0.1,0.1-0.1,0.3-0.1,0.4c-0.1,0.2-0.1,0.2-0.1,0.4c-0.1,0.3-0.2,0.6-0.4,0.8c-0.3,0.5-0.8,0.7-1.4,0.7
	c-0.2,0-0.4,0-0.6-0.1c-0.2-0.1-0.4-0.1-0.5-0.2c-0.1-0.1-0.3-0.1-0.5-0.2l-0.4-0.2c-0.1-0.1-0.1-0.1-0.3-0.1
	c-0.1-0.1-0.1-0.1-0.3-0.1c-0.2-0.1-0.2-0.1-0.4-0.2c-0.2-0.1-0.2-0.1-0.4-0.2c-0.1-0.1-0.3-0.1-0.4-0.2c-0.2-0.1-0.3-0.1-0.5-0.2
	c-0.2-0.1-0.4-0.2-0.6-0.2c-0.2-0.1-0.4-0.1-0.5-0.2c-0.2-0.1-0.4-0.1-0.6-0.2c-0.2-0.1-0.4-0.1-0.6-0.2c-0.2-0.1-0.4-0.1-0.6-0.2
	c-0.2-0.1-0.3-0.1-0.5-0.1c-0.2,0-0.4-0.1-0.5-0.1c-0.1,0-0.3,0-0.4-0.1c-0.2,0-0.3,0-0.4,0h-0.5c-0.1,0-0.3,0-0.4,0
	c-0.2,0-0.2,0-0.4,0c-0.1,0-0.2,0-0.4,0c-0.2,0-0.4,0.1-0.6,0.1h-0.3c-0.2,0-0.3,0-0.4,0c-0.5,0-0.9-0.2-1.2-0.6
	c-0.3-0.4-0.5-0.8-0.5-1.3c0-0.2,0-0.3,0-0.5c0-0.2,0.1-0.4,0.1-0.7c0-0.2,0.1-0.4,0.1-0.6c0-0.1,0.1-0.3,0.1-0.4
	c0.1-0.2,0.1-0.2,0.1-0.4c0.1-0.2,0.1-0.2,0.1-0.5c0.1-0.3,0.1-0.3,0.1-0.5c0.1-0.3,0.1-0.3,0.2-0.5c0-0.2,0.1-0.4,0.2-0.7
	c0.1-0.4,0.1-0.4,0.2-0.7c0.1-0.2,0.1-0.4,0.2-0.6c0.1-0.2,0.1-0.5,0.2-0.8c0.1-0.3,0.1-0.6,0.2-0.9c0.1-0.4,0.1-0.4,0.2-0.8
	c0.1-0.2,0.1-0.5,0.2-0.7c0.1-0.4,0.1-0.4,0.2-0.6c0.1-0.2,0.1-0.4,0.2-0.6c0.1-0.2,0.1-0.4,0.2-0.6c0.1-0.2,0.1-0.4,0.2-0.5
	c0.1-0.2,0.1-0.4,0.2-0.5c0.1-0.3,0.3-0.5,0.5-0.7c0.1-0.1,0.2-0.2,0.3-0.3C188.2,163.1,188.2,162.8,188.2,162.6L188.2,162.6z"/>
<path fill="#EE314C" d="M193.9,127.9L193.9,127.9L193.9,127.9L193.9,127.9z M211.4,119.2C211.4,119.2,211.4,119.2,211.4,119.2
	L211.4,119.2L211.4,119.2z M199.4,115.2c-0.1,0.1-0.1,0.2-0.2,0.4c-0.1,0.1-0.2,0.3-0.3,0.5s-0.2,0.4-0.3,0.6
	c-0.1,0.2-0.2,0.4-0.3,0.6c-0.1,0.2-0.2,0.5-0.4,0.7c-0.1,0.3-0.3,0.5-0.4,0.8c-0.2,0.4-0.2,0.4-0.4,0.7c-0.1,0.3-0.2,0.5-0.4,0.8
	c-0.2,0.4-0.2,0.4-0.4,0.8c-0.2,0.4-0.2,0.4-0.4,0.8c-0.1,0.3-0.2,0.5-0.3,0.7c-0.2,0.4-0.2,0.4-0.3,0.8c-0.1,0.2-0.2,0.4-0.3,0.6
	c-0.1,0.3-0.1,0.3-0.3,0.7c-0.1,0.4-0.1,0.4-0.2,0.6c-0.1,0.2-0.1,0.3-0.2,0.5c-0.1,0.1-0.1,0.3-0.2,0.4c0,0,0,0.1,0,0.1
	c0.2,0,0.3-0.1,0.5-0.1c0.2,0,0.3-0.1,0.5-0.1c0.2,0,0.3,0,0.6-0.1c0.3,0,0.3,0,0.5,0c0.2,0,0.4,0,0.6,0h0.6c0.2,0,0.4,0,0.7,0
	c0.3,0,0.5,0,0.8,0.1c0.2,0,0.5,0.1,0.8,0.2c0.2,0.1,0.5,0.1,0.7,0.2c0.2,0.1,0.4,0.1,0.6,0.2c0.2,0.1,0.5,0.2,0.7,0.3
	c0.2,0.1,0.4,0.2,0.6,0.3c0.2,0.1,0.4,0.2,0.6,0.3c0.3,0.1,0.3,0.1,0.6,0.3c0.2,0.1,0.4,0.2,0.6,0.3c0.2,0.1,0.2,0.1,0.4,0.2
	c0.2,0.1,0.3,0.2,0.5,0.3c0.1,0.1,0.3,0.1,0.4,0.2c0.2,0.1,0.2,0.1,0.4,0.2c0.1,0.1,0.2,0.1,0.3,0.2c0.2,0.1,0.2,0.1,0.3,0.2
	c0,0,0,0,0.1,0c0-0.1,0-0.1,0.1-0.3c0.1-0.2,0.1-0.2,0.1-0.4c0.1-0.2,0.1-0.3,0.2-0.5c0.1-0.2,0.1-0.2,0.2-0.5
	c0.1-0.2,0.1-0.4,0.2-0.6c0.1-0.2,0.1-0.3,0.2-0.5c0.1-0.2,0.1-0.4,0.2-0.6c0.1-0.3,0.1-0.3,0.2-0.7c0.1-0.4,0.1-0.4,0.3-0.7
	c0.1-0.3,0.1-0.3,0.2-0.7c0.1-0.2,0.2-0.5,0.3-0.7c0.1-0.2,0.2-0.5,0.3-0.7c0.1-0.3,0.2-0.5,0.3-0.8c0.1-0.2,0.2-0.5,0.3-0.7
	c0.1-0.2,0.2-0.4,0.2-0.6c0.1-0.2,0.1-0.3,0.2-0.4c0.1-0.2,0.1-0.2,0.2-0.5c0-0.1,0.1-0.2,0.1-0.3c-0.1,0-0.1-0.1-0.2-0.1
	c-0.2-0.1-0.4-0.1-0.5-0.2c-0.2-0.1-0.2-0.1-0.3-0.2c-0.1,0-0.2-0.1-0.4-0.2c-0.2-0.1-0.2-0.1-0.3-0.2c-0.2-0.1-0.2-0.1-0.3-0.2
	c-0.2-0.1-0.2-0.1-0.4-0.2c-0.2-0.1-0.2-0.1-0.4-0.2c-0.2-0.1-0.2-0.1-0.4-0.2c-0.2-0.1-0.2-0.1-0.5-0.2c-0.2-0.1-0.3-0.1-0.4-0.2
	c-0.2-0.1-0.3-0.1-0.5-0.2c-0.2-0.1-0.2-0.1-0.5-0.2c-0.2-0.1-0.4-0.2-0.6-0.3c-0.1-0.1-0.3-0.1-0.4-0.2c-0.1-0.1-0.3-0.1-0.4-0.2
	c-0.2-0.1-0.4-0.1-0.5-0.2c-0.1,0-0.3-0.1-0.4-0.1c-0.2,0-0.4-0.1-0.5-0.1c-0.2,0-0.3-0.1-0.5-0.1c-0.1,0-0.3-0.1-0.4-0.1
	c-0.2,0-0.2,0-0.5-0.1c-0.2,0-0.3,0-0.4,0c-0.2,0-0.3,0-0.5,0c-0.1,0-0.2,0-0.3,0C199.5,115.2,199.5,115.2,199.4,115.2
	C199.4,115.2,199.4,115.2,199.4,115.2L199.4,115.2z M196.8,113.4c0.1-0.8,0.8-1.3,1.6-1.2l0.1,0c0.5-0.4,1.3-0.3,1.8,0.2
	c0.1,0.1,0.2,0.1,0.3,0.1c0.1,0,0.3,0,0.5,0c0.3,0,0.3,0,0.5,0.1c0.2,0,0.4,0.1,0.6,0.1c0.2,0,0.4,0.1,0.6,0.1
	c0.2,0,0.4,0.1,0.6,0.1c0.2,0.1,0.4,0.1,0.6,0.2c0.2,0.1,0.3,0.1,0.5,0.2c0.2,0.1,0.4,0.1,0.6,0.2c0.2,0.1,0.4,0.2,0.6,0.3
	c0.2,0.1,0.3,0.2,0.5,0.2c0.2,0.1,0.2,0.1,0.5,0.2c0.1,0.1,0.3,0.1,0.4,0.2c0.2,0.1,0.4,0.2,0.5,0.2c0.2,0.1,0.2,0.1,0.4,0.2
	c0.2,0.1,0.2,0.1,0.4,0.2c0.2,0.1,0.2,0.1,0.4,0.2c0.2,0.1,0.2,0.1,0.4,0.2c0.2,0.1,0.2,0.1,0.4,0.2c0.1,0.1,0.1,0.1,0.3,0.2
	c0.1,0,0.2,0.1,0.3,0.1c0.2,0.1,0.2,0.1,0.4,0.2c0.1,0.1,0.2,0.1,0.3,0.1c0.1,0,0.2,0.1,0.4,0.1c0.1,0,0.2,0,0.2,0
	c0.5,0,0.9,0.2,1.3,0.6c0.4,0.4,0.5,0.9,0.4,1.5c0,0.2,0,0.2-0.1,0.4c0,0.1-0.1,0.3-0.1,0.5c-0.1,0.2-0.1,0.2-0.1,0.4
	c0,0.2-0.1,0.3-0.1,0.5c-0.1,0.2-0.1,0.2-0.2,0.4c-0.1,0.2-0.1,0.3-0.2,0.5c-0.1,0.2-0.1,0.4-0.2,0.6c-0.1,0.2-0.2,0.4-0.2,0.7
	c-0.1,0.2-0.2,0.5-0.3,0.7c-0.1,0.3-0.2,0.5-0.3,0.8c-0.1,0.3-0.2,0.5-0.3,0.7c-0.1,0.3-0.1,0.3-0.2,0.7c-0.1,0.3-0.1,0.3-0.3,0.7
	c-0.1,0.4-0.1,0.4-0.2,0.7c-0.1,0.2-0.1,0.4-0.2,0.6c-0.1,0.2-0.1,0.4-0.2,0.6c-0.1,0.2-0.1,0.3-0.2,0.5c-0.1,0.3-0.1,0.3-0.2,0.5
	c0,0.1-0.1,0.2-0.1,0.4c-0.1,0.2-0.1,0.2-0.1,0.4c-0.1,0.2-0.1,0.2-0.1,0.3c0,0.2,0,0.2-0.1,0.3c0,0.1-0.1,0.3-0.2,0.4
	c-0.1,0.2-0.2,0.5-0.3,0.7c-0.3,0.5-0.9,0.8-1.5,0.7c-0.2,0-0.4,0-0.5-0.1c-0.2,0-0.4-0.1-0.6-0.2c-0.2-0.1-0.3-0.1-0.4-0.2
	c-0.2-0.1-0.2-0.1-0.3-0.1c-0.1-0.1-0.1-0.1-0.3-0.1c-0.1-0.1-0.3-0.1-0.4-0.2c-0.2-0.1-0.2-0.1-0.4-0.2c-0.1-0.1-0.3-0.2-0.4-0.2
	c-0.1-0.1-0.2-0.1-0.4-0.2c-0.2-0.1-0.2-0.1-0.5-0.2c-0.1-0.1-0.3-0.1-0.5-0.2c-0.3-0.1-0.3-0.1-0.6-0.3c-0.2-0.1-0.4-0.2-0.5-0.2
	c-0.2-0.1-0.4-0.2-0.6-0.2c-0.2-0.1-0.4-0.1-0.6-0.2c-0.2-0.1-0.4-0.1-0.5-0.2c-0.2,0-0.4-0.1-0.6-0.2c-0.2,0-0.4-0.1-0.5-0.1
	c-0.2,0-0.3,0-0.5,0c-0.2,0-0.4,0-0.5,0H197c-0.2,0-0.3,0-0.4,0c-0.2,0-0.2,0-0.5,0c-0.2,0-0.3,0-0.4,0c-0.1,0-0.2,0-0.4,0.1
	c-0.1,0-0.2,0-0.3,0.1c-0.2,0-0.2,0-0.3,0.1c-0.1,0-0.1,0-0.2,0.1c-0.1,0-0.1,0-0.2,0.1c-0.1,0.1-0.3,0.1-0.4,0.2
	c-0.2,0.1-0.5,0.1-0.7,0.2c-0.3,0-0.6,0-0.8-0.1c-0.7-0.2-1.2-0.8-1.2-1.6c0-0.1,0-0.3,0-0.5c0-0.2,0.1-0.4,0.1-0.6
	c0-0.2,0.1-0.3,0.1-0.5c0.1-0.2,0.1-0.2,0.1-0.3c0.1-0.2,0.1-0.2,0.1-0.4c0.1-0.2,0.1-0.2,0.2-0.4c0.1-0.2,0.1-0.3,0.2-0.5
	c0.1-0.2,0.1-0.3,0.2-0.5c0.1-0.3,0.1-0.3,0.2-0.6c0.1-0.4,0.1-0.4,0.3-0.6c0.1-0.2,0.2-0.4,0.3-0.7c0.2-0.4,0.2-0.4,0.3-0.7
	c0.1-0.3,0.2-0.5,0.4-0.8c0.2-0.4,0.2-0.4,0.4-0.8c0.2-0.4,0.2-0.4,0.4-0.8c0.1-0.3,0.3-0.5,0.4-0.8c0.2-0.4,0.2-0.4,0.4-0.8
	c0.1-0.2,0.2-0.5,0.4-0.8c0.1-0.3,0.3-0.5,0.4-0.8c0.1-0.2,0.2-0.5,0.4-0.7c0.1-0.2,0.2-0.4,0.3-0.6c0.1-0.2,0.2-0.4,0.3-0.6
	c0,0,0-0.1,0.1-0.1C196.8,113.8,196.8,113.6,196.8,113.4L196.8,113.4z"/>
<path d="M198.6,202.9c0.7-0.5,1.6-0.8,2.5-0.9c1.4,0,2.8,0.7,3.6,1.8c0,0,0,0.1,0,0.1l3.4,21.1c-1.4-1.2-3.2-1.9-5.1-1.7
	c-1.9,0.2-3.6,1.1-4.7,2.5c0-5.7-0.5-15.1-1.8-20.7C197,204.3,197.7,203.5,198.6,202.9L198.6,202.9z M202.1,224.8
	c0.5-0.1,1-0.2,1.5-0.2c2.5,0,4.6,1.6,5.1,3.8c-0.4,2.1-2.9,3.5-5.1,3.7L202.1,224.8z M216.4,204.1c-2.1,1.3-4.1,2.6-4.2,2.7
	c-0.2,0.2-0.3,0.4-0.2,0.7c0,0.2,0.2,0.4,0.5,0.5c0.3,0,6.3,1.1,8.8,1.1h0.3c0.2,0,0.3,0,0.5-0.1h0.2l24.8-5h13.8l7.5,25.8
	l-31.1,5.5h-30.6c-4.8,0-7.7-2.8-8.3-5.6c0-0.3,0-0.6,0-0.9c0,0,0,0,0-0.1c0.4-1.5,1.3-2.7,2.7-3.4l1.5,7.5c0.1,0.3,0.3,0.5,0.6,0.5
	c2.9,0,6.3-1.8,6.8-4.7c0-0.1,0-0.3,0-0.4l-3.8-23.9L216.4,204.1z M220.5,203.2c0.5-0.2,1.1-0.1,1.6,0.2c0.6,0.4,1,1,1.2,1.7
	c0.1,0.7,0,1.4-0.5,2c-0.3,0.5-0.8,0.8-1.4,0.8c-1.6,0.1-5.3-0.5-7.4-0.9C215.8,205.8,219.1,203.8,220.5,203.2L220.5,203.2z
	 M252.3,196.9c1.2-0.2,2.4,0.5,2.6,1.7l0.1,0.3c0.1,0.6,0,1.2-0.3,1.7c-0.3,0.5-0.8,0.8-1.4,1l-29.3,5.9c0.3-0.6,0.5-1.2,0.5-1.9
	l21.5-4.3c0.3-0.1,0.5-0.4,0.5-0.7s-0.4-0.5-0.7-0.5l-21.4,4.3c-0.2-0.6-0.6-1.2-1.1-1.6L252.3,196.9z M270.1,237l-58,10.3l-1.4-6.1
	l3.4-0.6l0.7,3.3c0.1,0.3,0.3,0.5,0.6,0.5h0.1c0.3-0.1,0.5-0.4,0.5-0.7l-0.7-3.2l3.5-0.6l0.7,3.3c0.1,0.3,0.3,0.5,0.6,0.5h0.1
	c0.3-0.1,0.5-0.4,0.5-0.7l-0.7-3.2l3.5-0.6l0.7,3.3c0.1,0.3,0.3,0.5,0.6,0.5h0.1c0.3-0.1,0.5-0.4,0.5-0.7l-0.8-3.3l3.5-0.6l0.7,3.3
	c0.1,0.3,0.3,0.5,0.6,0.5h0.1c0.2,0,0.3-0.1,0.4-0.3c0.1-0.2,0.1-0.3,0-0.5l-0.7-3.2l3.5-0.6l0.7,3.3c0.1,0.3,0.3,0.5,0.6,0.5h0.1
	c0.3-0.1,0.5-0.4,0.5-0.7l-0.7-3.2l3.5-0.6l0.7,3.3c0.1,0.3,0.3,0.5,0.6,0.5h0.1c0.3-0.1,0.5-0.4,0.5-0.7l-0.7-3.2l3.5-0.6l0.7,3.3
	c0.1,0.3,0.3,0.5,0.6,0.5h0.1c0.3-0.1,0.5-0.4,0.5-0.7l-0.7-3.2l3.5-0.6l0.7,3.3c0.1,0.3,0.3,0.5,0.6,0.5h0.1
	c0.3-0.1,0.5-0.4,0.5-0.7l-0.8-3.4l3.5-0.6l0.7,3.3c0.1,0.3,0.3,0.5,0.6,0.5h0.1c0.3-0.1,0.5-0.4,0.5-0.7l-0.7-3.3l3.5-0.6l0.7,3.3
	c0.1,0.3,0.3,0.5,0.6,0.5h0.1c0.3-0.1,0.5-0.4,0.5-0.7l-0.7-3.2l3.5-0.6l0.7,3.2c0.1,0.3,0.3,0.5,0.6,0.5h0.1
	c0.3-0.1,0.5-0.4,0.5-0.7l-0.7-3.2l3.9-0.7l0.7,3.2c0.1,0.3,0.3,0.5,0.6,0.5h0.1c0.3-0.1,0.5-0.4,0.5-0.7l-0.7-3.1l1.9-0.3
	L270.1,237z M197.1,227.9c0,0,0,0.1,0,0.1c-0.1,0.6-0.1,1.3,0,1.9c0.8,3.3,4.1,6.5,9.5,6.5h23.9l-20.6,3.7c-0.2,0-0.3,0.1-0.4,0.3
	c-0.1,0.1-0.1,0.3-0.1,0.5l1.6,7.2c0.1,0.3,0.3,0.5,0.6,0.5h0.1l59.2-10.5c0.2,0,0.3-0.1,0.4-0.3c0.1-0.1,0.1-0.3,0.1-0.5l-1.6-7.3
	c0-0.1-0.1-0.2-0.2-0.3v-0.1l-7.7-26.5c-0.1-0.3-0.3-0.4-0.6-0.4h-8.3l0.6-0.1c0.9-0.2,1.7-0.7,2.2-1.4c0.5-0.8,0.7-1.7,0.5-2.6
	l-0.1-0.3c-0.4-1.8-2.2-3-4-2.7l-30.8,6.2c-0.4,0-0.8,0-1.1,0.2c-0.5,0.2-1.1,0.5-1.6,0.8l-12.9,0.2c-1.1-1.4-2.8-2.2-4.5-2.1
	c-1.2,0-2.3,0.4-3.2,1.1c-1.4,1-2.6,2.7-2.6,3.2c0,0,0,0.1,0,0.1C196.8,211.5,197.2,222.7,197.1,227.9L197.1,227.9z"/>
<path d="M222.8,218h1.7c0.8,0,1.7-0.8,2.6-1.6c0.3-0.3,0.4-0.7,0.4-1.1c-0.1-0.5-0.4-0.9-0.9-1.1l-1.3-0.7l-0.1,0l0.1,0l0.6-0.3
	c0.5-0.2,1-0.2,1.5,0l1.3,0.7c0.8,0.4,1.7,0.5,2.6,0.3l1.7-0.4c1-0.2,1.7-1,1.7-2v-0.2c0-0.3,0.3-0.6,0.6-0.6h1.4
	c0.2,0,0.3,0.1,0.4,0.2c0.1,0.1,0.2,0.3,0.2,0.4v0.2c0,1,0.7,1.8,1.6,2l1.7,0.4c0.9,0.2,1.8,0.1,2.6-0.3l1.3-0.7
	c0.5-0.2,1-0.2,1.5,0l0.6,0.3l0.1,0l-0.1,0l-1.3,0.7c-0.3,0.1-0.4,0.4-0.5,0.6c-0.2,0.8,0.3,1.8,0.5,2.1c0.5,0.7,1.3,1,2.1,1h2.2
	c0.4,0,0.6,0.2,0.6,0.4c0,0.2-0.2,0.4-0.6,0.4h-2.2c-0.8,0-1.7,0.8-2.6,1.6c-0.3,0.3-0.4,0.7-0.4,1.1c0.1,0.5,0.4,0.9,0.9,1.1
	l1.3,0.7l0.1,0l-0.1,0l-0.6,0.3c-0.5,0.2-1,0.2-1.5,0l-1.3-0.7c-0.8-0.4-1.7-0.5-2.6-0.3l-1.7,0.4c-1,0.2-1.7,1-1.7,2v0.2
	c0,0.2-0.1,0.3-0.2,0.4c-0.1,0.1-0.3,0.2-0.4,0.2h-1.4c-0.3,0-0.6-0.3-0.6-0.6V225c0-1-0.7-1.8-1.6-2l-1.7-0.4
	c-0.3-0.1-0.6-0.1-0.9-0.1c-0.6,0-1.2,0.1-1.7,0.4l-1.3,0.7c-0.5,0.2-1,0.2-1.5,0l-0.6-0.3l-0.1-0.1l0.1,0l1.3-0.7
	c0.3-0.1,0.4-0.4,0.5-0.6c0.2-0.8-0.3-1.8-0.5-2.1c-0.5-0.7-1.3-1.1-2.1-1.1h-1.7c-0.4,0-0.6-0.2-0.6-0.4
	C222.2,218.2,222.4,217.9,222.8,218L222.8,218z M222.8,220h1.7c0.4,0,0.8,0.2,1.1,0.5c0.2,0.4,0.4,0.8,0.4,1.2l-1.2,0.6
	c-0.4,0.2-0.7,0.6-0.7,1.1c0,0.5,0.3,0.9,0.7,1.1l0.6,0.3c0.8,0.4,1.8,0.4,2.7,0l1.3-0.7c0.6-0.2,1.2-0.3,1.8-0.2l1.8,0.4
	c0.4,0.1,0.7,0.4,0.7,0.8v0.2c0,1,0.8,1.8,1.8,1.8h1.4c1,0,1.8-0.8,1.8-1.8V225c0-0.4,0.3-0.7,0.7-0.8l1.8-0.4
	c0.6-0.1,1.2-0.1,1.7,0.2l1.3,0.7c0.8,0.4,1.8,0.4,2.7,0l0.6-0.3c0.4-0.2,0.7-0.6,0.7-1.1c0-0.5-0.3-0.9-0.7-1.1l-1.3-0.7
	c-0.2-0.1-0.2-0.2-0.2-0.2s0,0,0-0.1c1.3-1.2,1.7-1.3,1.7-1.3h2.2c0.5,0.1,0.9-0.1,1.3-0.4c0.3-0.3,0.5-0.7,0.5-1.2
	c0-0.5-0.2-0.9-0.5-1.2c-0.3-0.3-0.8-0.4-1.3-0.4h-2.2c-0.4,0-0.8-0.2-1.1-0.5c-0.2-0.4-0.4-0.8-0.4-1.2l1.2-0.6
	c0.4-0.2,0.7-0.6,0.7-1.1c0-0.5-0.3-0.9-0.7-1.1l-0.6-0.3c-0.8-0.4-1.8-0.4-2.7,0l-1.2,0.7c-0.6,0.2-1.2,0.3-1.8,0.2l-1.8-0.4
	c-0.4-0.1-0.7-0.4-0.7-0.8v-0.2c0-1-0.8-1.8-1.8-1.8h-1.4c-1,0-1.8,0.8-1.8,1.8v0.2c0,0.4-0.3,0.7-0.7,0.8l-1.8,0.4
	c-0.6,0.1-1.2,0.1-1.7-0.2L228,212c-0.8-0.4-1.8-0.4-2.7,0l-0.6,0.3c-0.4,0.2-0.7,0.6-0.7,1.1c0,0.5,0.3,0.9,0.7,1.1l1.3,0.7
	c0.2,0.1,0.2,0.2,0.2,0.2c0,0,0,0,0,0.1c-1.3,1.2-1.7,1.3-1.7,1.3h-1.7c-0.5-0.1-0.9,0.1-1.3,0.4c-0.3,0.3-0.5,0.7-0.5,1.2
	c0,0.5,0.2,0.9,0.5,1.2C221.9,219.9,222.3,220,222.8,220L222.8,220z"/>
<path d="M236.2,216.6c2.1,0,3.6,0.9,3.6,1.7s-1.5,1.7-3.6,1.7c-2.1,0-3.6-0.9-3.6-1.7S234.1,216.6,236.2,216.6z M236.2,221.3
	c2.7,0,4.8-1.3,4.8-2.9s-2.1-2.9-4.8-2.9c-2.7,0-4.8,1.3-4.8,2.9S233.5,221.3,236.2,221.3z"/>
<path fill-rule="evenodd" clip-rule="evenodd" d="M285.7,103c0.1,0.7,0.3,0.8,1.2,0.8c0.8,0,1.7-0.5,1.7-1.2c0-0.7-1.2-0.8-1.8-0.7
	C286.2,102,285.6,102.4,285.7,103L285.7,103z M284.5,111.4c-1.7,0-3.3,1.3-4,2.8c0,0-0.2,0.4-0.2,0.4c0.1,0.1,0.5,0,0.5,0
	c2.6-0.3,5.1-0.7,7.7-1.1c0.1,0,0.2-0.1,0.2-0.1c0-0.1-0.1-0.2-0.1-0.3C287.6,111.9,286.2,111.3,284.5,111.4L284.5,111.4z
	 M280.8,115.2c-1.3,0.5-1-0.2-0.7-0.9c0.6-2,2.1-2.9,3.9-3.4c0.2-0.1,0.5-0.3,0.6-0.5c0.6-1.5,2-4.9,2.1-5.3c0-0.2-0.1-0.6-0.3-0.7
	c-0.9-0.4-1.1-1-0.9-2c0.3-1.5,3.1-0.7,3.3-0.2c0.3,0.9-0.2,1.5-0.9,2.1c-0.5,0.4-0.8,1-1,1.6c-0.6,1.4-1.1,2.8-1.6,4.2
	c0,0.1,0.2,0.4,0.4,0.5c1.1,0.7,1.9,0.8,2.7,1.5c0.8,0.7,1.7,1.6,1.8,1.8C290,113.9,281,115.1,280.8,115.2L280.8,115.2z"/>
<path fill-rule="evenodd" clip-rule="evenodd" d="M367.2,96.6L367.2,96.6L367.2,96.6z"/>
<polygon fill-rule="evenodd" clip-rule="evenodd" points="279.1,88 279.1,88 279.1,88 "/>
<polygon fill-rule="evenodd" clip-rule="evenodd" points="279.1,88 279.1,88 279.1,88 "/>
<path fill-rule="evenodd" clip-rule="evenodd" d="M322.8,125c0,0.2-2.1,0.3-2.3,0.3c-3.4,0.2-79.6,6.1-83.1,6.3
	c-0.3-3.6-2.1-19.8-3.7-33.9c2.4-0.1,82.3-5.9,88.1-6.3C322.4,105.8,322.9,123.2,322.8,125L322.8,125z M244.6,75.9
	c0.2,0.2,9,8.2,9,9c0.1,0.6-2.7,7.7-3.6,9.5c-0.2,0.4-1.4,1.6-1.8,1.7c-2.3,0.3-13.3,1-14.6,1.1c-1.1-10.1-2.1-18.9-2.3-20.9
	C232.5,76.1,244.5,75.8,244.6,75.9L244.6,75.9z M264.3,74.6c0.5,0,1.1,0.2,1.6,0.5c0.4,0.3,5.3,6,7.3,8.4c0.1,0.1-3.7,8.2-4.6,9.6
	c-0.1,0.2-1.4,1.6-1.6,1.6c-2.9,0.2-17.2,1.2-17.1,1.1c0.5-1,1.4-3,1.9-4c0.8-1.6,3.2-7.1,2.9-7.5c-1.3-1.8-7.7-6.8-8.9-8.1
	c-0.1-0.1-0.6-0.5-0.6-0.6C245.3,75.5,262.4,74.6,264.3,74.6L264.3,74.6z M266.6,74.5c3.5-0.1,18.4-1,18.8-0.8
	c0.7,0.3,1.1,0.6,1.6,1.1c2,2.1,6.2,7,6.3,7c0,0-3.7,9.9-4.2,11.1c-0.1,0.2-21.1,2.1-20.8,1.6c1.1-1.8,5.3-9.8,5.4-10
	c0.3-0.3,0.3-1.2,0-1.5c-0.4-0.3-5.2-5.7-7.3-8c-0.1-0.1-0.1-0.2-0.2-0.4C266.4,74.6,266.5,74.5,266.6,74.5L266.6,74.5z M305.5,72.9
	c0.5,0.1,1.1,0.9,1.4,1.5c1.1,1.8,2.5,4.2,3.6,6c0.6,1-3.3,9.4-4.2,11.4c-0.1,0.3-16.5,1.3-16.5,1.1c0.7-1.9,2-5.9,2.7-7.8
	c0.3-0.7,1-2.7,1.2-3.4c0,0-6.9-8.1-7.1-8.4C287.1,73.4,304.2,72.7,305.5,72.9L305.5,72.9z M306.5,72.9c0-0.1,0.2-0.2,0.3-0.2
	c0.6,0,12.5-0.4,14.6-0.4c0,3,0.5,10.7,0.4,18.6c-2.4,0.1-14.3,0.6-14.3,0.5c0.9-2.1,4.1-10.2,4-10.6c-1-2.7-3-5.4-4.8-7.7
	C306.6,73.1,306.5,72.9,306.5,72.9L306.5,72.9z M322,71.5c0,0-89.3,3.6-91.3,3.9c-0.1,0,6.1,56.6,6.2,57c0,0.1,81.2-6.5,83.8-6.6
	c0.3,0,2.6-0.1,2.7-0.2C323.5,122.8,322,71.5,322,71.5L322,71.5z"/>
<path fill-rule="evenodd" clip-rule="evenodd" d="M251.6,99.9c0-0.1,0.3-0.1,0.3,0c0.1,0.6,3,26.6,3,27.9c0,0.1-0.3,0.1-0.3,0
	C254.6,127.5,251.7,101.1,251.6,99.9L251.6,99.9z"/>
<path fill-rule="evenodd" clip-rule="evenodd" d="M269.2,98.7c0-0.1,0.3-0.1,0.3,0c0.1,0.6,3,26.6,3,27.9c0,0.1-0.3,0.1-0.3,0
	C272.2,126.4,269.3,100,269.2,98.7L269.2,98.7z"/>
<path fill-rule="evenodd" clip-rule="evenodd" d="M288.8,96.7c0-0.1,0.3-0.1,0.3,0c0.1,0.6,3,26.6,3,27.9c0,0.1-0.3,0.1-0.3,0
	C291.8,124.4,288.9,98,288.8,96.7L288.8,96.7z"/>
<path fill-rule="evenodd" clip-rule="evenodd" d="M275.7,95.4c0-0.1,0.3-0.1,0.3,0c0.1,0.6,3,26.6,3,27.9c0,0.1-0.3,0.1-0.3,0
	C278.7,123.1,275.9,96.7,275.7,95.4L275.7,95.4z"/>
<path fill-rule="evenodd" clip-rule="evenodd" d="M292,107.5c0,0.1-0.4,0.2-0.6,0.3c0-0.2-0.1-0.3-0.1-0.5c0-0.2-0.1-0.6-0.1-0.6
	c-0.7,0-1.2,0-1.4,1l-1.6,8.3c-0.4,1.5-2.6,0.2-2.5,0c0.3-1.1,2.1-7.2,2.4-9.2c0-0.2,0.3-0.4-0.3-0.6c-0.6-0.2-3,1.7-2.9,0.9
	c0.2-2.1,4.1-2.1,5.6-1.6c0,0-0.1,0.4,0.1,0.4c0.3,0.1,0.7,0,0.7,0c0,0,0-1,0.1-1.1c0.3,0.3,1.2,0.1,1.2,0.4
	C292.6,105.8,292.2,106.9,292,107.5L292,107.5z M291.5,104.3c-0.1,0-0.5,0-0.5,0.1c-0.1,0.3,0,0.9-0.1,1.2l-0.2,0
	c-0.1-0.1,0-0.5-0.1-0.5c-1.1-0.1-2.5-0.3-3.6-0.1c-1.2,0.1-3.7,1.8-2.6,2.9c1,0.9,1.9-0.7,2.5-1.1c0.1-0.1,0.8-0.1,0.7,0
	c-0.1,0.7-0.4,1.5-0.5,2.1c-0.6,2.3-1.3,4.6-1.9,6.9c-0.1,0.2,0,0.6,0.2,0.7c0.7,0.3,1.4,0.6,2.1,0.8c0.2,0,0.6-0.2,0.6-0.4
	c0.5-2,1-3.9,1.4-5.9c0.3-1.1,0.5-3.8,1-3.8c0.1,0,0.4,0,0.4,0c-0.3,0.8,0.3,1.2,0.3,1.1c0.2,0,1.2,0,1.2-0.1
	c0.3-0.9,0.2-1.8,0.4-2.4C293.1,104.5,292.2,104.5,291.5,104.3L291.5,104.3z"/>
<path d="M278.3,117.4l-0.3-6.8l0.8-0.1c0,0,2.1,4.8,2.3,4.9s2.5-5.4,2.5-5.4l1.2-0.1l0.4,7L278.3,117.4z M282.9,110.1
	c0,0-1.7,4.4-1.9,4.3c-0.2,0-1.7-3.9-1.7-3.9L282.9,110.1z M285.1,109.4l-1.3,0.1c0,0,1.6-2.9,1.5-3.5c-0.1-0.5-0.3-0.5-0.5-0.2
	c-0.2,0.3-1.6,3.8-1.6,3.8l-4,0.4c0,0-0.5-1.3-0.7-1.6c-0.2-0.3-0.5-0.1-0.5,0.2c0,0.4,0.6,1.5,0.6,1.5l-1.1,0.1l0.4,7.8l7.8-0.7
	L285.1,109.4z"/>
<path d="M237.3,110.4c0,0,4.4,11.6,3.4,12.4c-1,0.8,9.9-3.3,9.9-3.3s0.1-12.2-2.9-11.9C244.6,107.8,237.3,110.4,237.3,110.4
	L237.3,110.4z M240.4,123c0.9-0.7-3.3-12.7-3.3-12.7l0.1,0c0,0,7.6-2.7,10.6-2.9c3-0.2,3.3,12.2,3.3,12.2l-0.1,0
	C251,119.6,239.5,123.7,240.4,123L240.4,123z"/>
<path fill-rule="evenodd" clip-rule="evenodd" d="M246.1,116.7c-0.2-0.9-0.5-1.8-0.8-2.8c0.8-0.3,1.5-0.5,2.2-0.7
	c0.3,0.9,0.5,1.8,0.8,2.7C247.6,116.1,246.8,116.4,246.1,116.7L246.1,116.7z M241.2,112.3c0.9-0.3,2-0.7,3.1-1l0.6,2.4
	c-1.1,0.4-2.2,0.8-3.1,1.1L241.2,112.3z M249.9,115.2c-0.1,0-0.7,0.3-1.5,0.6c-0.2-0.8-0.4-1.8-0.7-2.7c1.2-0.4,2-0.7,2.1-0.7
	c0,0,0-0.4,0-0.4c-0.1,0-1,0.3-2.1,0.7c-0.2-0.8-0.5-1.7-0.7-2.3c1.1-0.4,1.8-0.6,1.9-0.6c0,0,0-0.4,0-0.4c-0.1,0-0.9,0.3-1.9,0.7
	c-0.3-0.8-0.5-1.3-0.6-1.3c-0.1,0,0,0.6,0.3,1.4c-0.7,0.2-1.4,0.5-2.2,0.8c-0.2-0.7-0.2-1.3-0.4-1.2c-0.2,0,0.3,1.3,0.3,1.3
	c-1.1,0.4-2.1,0.8-3.1,1.1l-0.4-1.5c-0.2,0.1-0.2,0.7-0.1,1.6c-1.2,0.4-2,0.7-2,0.7c0,0,0,0.2,0,0.2c0.1,0,0.9-0.3,2.1-0.6
	c0.1,0.7,0.4,1.6,0.6,2.4c-1,0.3-1.7,0.6-1.7,0.6c0,0,0,0.2,0,0.2c0.1,0,0.8-0.2,1.7-0.5c0.3,1,0.6,2.1,0.9,2.9
	c-0.8,0.3-1.4,0.6-1.4,0.6c0,0,0,0.2,0,0.2c0.1,0,0.7-0.2,1.5-0.5c0.4,1,0.6,1.8,0.7,1.9l-0.5-2c0.9-0.3,2-0.7,3.1-1.2l0.6,2.3
	c0.3-0.1,0.2-1.1-0.1-2.4c0.8-0.3,1.5-0.6,2.1-0.8c0.3,1.2,0.4,2.2,0.1,2.3c0,0,0.3,0.1,0.3,0.1c0.2-0.1,0.1-1.1-0.2-2.5
	c0.8-0.3,1.4-0.5,1.5-0.6C249.9,115.5,249.9,115.2,249.9,115.2L249.9,115.2z"/>
<path d="M259,117.9c-0.1,0-0.6,0.3-0.8,0.2c-0.2-0.1-0.2-0.3-0.2-0.6c0-0.3,0.3-0.7,0.7-1.6l0.2,0.8l1.1-0.2
	C259.7,116.9,259.3,117.4,259,117.9L259,117.9z M263.6,106.2c0-0.1,0.4,0,0.8,0.1l-5.3,9.5l-0.1-0.3
	C260.5,112.4,263.4,106.6,263.6,106.2L263.6,106.2z M259.1,116l5.4-9.6c0.3,0.1,0.6,0.2,0.9,0.3l-6,9.6l-0.3,0.1L259.1,116z
	 M260.2,116.1l-0.6,0.1l5.9-9.5c0.5,0.2,1,0.3,1,0.3S262.8,112.3,260.2,116.1L260.2,116.1z M263.3,105.9c-0.8,1.4-4.4,8.8-5.2,10.1
	c-0.4,0.8-0.9,2.9-0.8,3.6c0.9-0.5,1.8-1,2.3-2c0.6-1.3,7-9.9,7.5-10.9C265.8,106.4,264.7,105.5,263.3,105.9L263.3,105.9z"/>
<path d="M515.4,108.6h-26.6c6.3-1.8,12.9-2.8,19.5-2.8c0.9,0,1.7-0.8,1.7-1.7l0-36.2h5.4L515.4,108.6z M442.5,68h5.4v36.2
	c0,0.9,0.8,1.7,1.7,1.7c6.7,0,13.2,1,19.5,2.8h-26.6V68z M451.2,62c9,0.2,17.7,2.1,26.1,5.5v40.3c-8.4-3.3-17.1-5.1-26.1-5.3
	L451.2,62L451.2,62z M480.6,107.8V67.5c8.4-3.4,17.1-5.3,26.1-5.5v40.6C497.6,102.7,489,104.6,480.6,107.8L480.6,107.8z M516.9,64.7
	h-7v-4.3c0-0.9-0.8-1.7-1.7-1.7c-10.1,0-20,2-29.4,5.8c-9.4-3.9-19.2-5.8-29.4-5.8c-0.9,0-1.7,0.8-1.7,1.7v4.3h-6.9
	c-0.9,0-1.7,0.8-1.7,1.7v43.9c0,0.9,0.8,1.7,1.7,1.7H517c0.9,0,1.7-0.8,1.7-1.7V66.3C518.6,65.5,517.9,64.7,516.9,64.7L516.9,64.7z"
	/>
<path d="M457.3,72.4c4.4,0.5,8.9,1.3,13.1,2.7c0.2,0.1,0.3,0.1,0.5,0.1c0.7,0,1.3-0.5,1.6-1.2c0.3-0.8-0.3-1.8-1.1-2
	c-4.5-1.3-9.1-2.3-13.7-2.8c-0.9-0.1-1.7,0.6-1.8,1.4C455.8,71.5,456.5,72.3,457.3,72.4L457.3,72.4z"/>
<path d="M471.4,79.9c-4.5-1.3-9.1-2.3-13.7-2.8c-0.9-0.1-1.7,0.6-1.8,1.4c-0.1,0.9,0.6,1.7,1.4,1.8c4.4,0.5,8.9,1.3,13.1,2.7
	c0.2,0.1,0.3,0.1,0.5,0.1c0.7,0,1.3-0.4,1.6-1.2C472.8,81,472.2,80.1,471.4,79.9L471.4,79.9z"/>
<path d="M471.4,87.8c-4.5-1.3-9.1-2.3-13.7-2.8c-0.9-0.1-1.7,0.6-1.8,1.4c-0.1,0.9,0.6,1.7,1.4,1.8c4.4,0.5,8.9,1.3,13.1,2.7
	c0.2,0.1,0.3,0.1,0.5,0.1c0.7,0,1.3-0.4,1.6-1.2C472.8,89,472.2,88,471.4,87.8L471.4,87.8z"/>
<path d="M471.4,95.6c-4.5-1.3-9.1-2.3-13.7-2.8c-0.9-0.1-1.7,0.6-1.8,1.4c-0.1,0.9,0.6,1.7,1.4,1.8c4.4,0.5,8.9,1.3,13.1,2.7
	c0.2,0.1,0.3,0.1,0.5,0.1c0.7,0,1.3-0.4,1.6-1.2C472.8,96.8,472.2,95.9,471.4,95.6L471.4,95.6z"/>
<path d="M500.1,69.2c-4.6,0.5-9.2,1.4-13.7,2.8c-0.8,0.3-1.3,1.2-1.1,2c0.3,0.7,0.8,1.2,1.6,1.2c0.2,0,0.3,0,0.5-0.1
	c4.3-1.3,8.8-2.2,13.1-2.7c0.9-0.1,1.6-0.9,1.4-1.8C501.9,69.7,501.1,69.1,500.1,69.2L500.1,69.2z"/>
<path d="M500.1,77.1c-4.6,0.5-9.3,1.4-13.7,2.8c-0.8,0.3-1.3,1.2-1.1,2c0.3,0.7,0.8,1.2,1.6,1.2c0.2,0,0.3,0,0.5-0.1
	c4.3-1.3,8.7-2.2,13.1-2.7c0.9-0.1,1.6-0.9,1.4-1.8C501.9,77.6,501.1,76.9,500.1,77.1L500.1,77.1z"/>
<path d="M500.1,84.9c-4.6,0.5-9.3,1.5-13.7,2.8c-0.8,0.3-1.3,1.2-1.1,2c0.3,0.7,0.8,1.2,1.6,1.2c0.2,0,0.3,0,0.5-0.1
	c4.3-1.3,8.7-2.2,13.1-2.7c0.9-0.1,1.6-0.9,1.4-1.8C501.9,85.5,501.1,84.9,500.1,84.9L500.1,84.9z"/>
<path d="M500.1,92.9c-4.6,0.5-9.3,1.4-13.7,2.8c-0.8,0.3-1.3,1.2-1.1,2c0.3,0.7,0.8,1.2,1.6,1.2c0.2,0,0.3,0,0.5-0.1
	c4.3-1.3,8.7-2.2,13.1-2.7c0.9-0.1,1.6-0.9,1.4-1.8C501.9,93.5,501.1,92.8,500.1,92.9L500.1,92.9z"/>
<text transform="matrix(1 0 0 1 84.3186 248.5385)" font-family="'ArialMT'" font-size="18px">UX designer</text>
<text transform="matrix(1 0 0 1 423.1147 133.9611)" font-family="'ArialMT'" font-size="18px">Documentation</text>
<text transform="matrix(1 0 0 1 439.2566 253.3227)"><tspan x="0" y="0" font-family="'ArialMT'" font-size="18px">TWs and </tspan><tspan x="0" y="21.6" font-family="'ArialMT'" font-size="18px">UX writing</tspan></text>
<g>
	<path fill="none" d="M56.4,157.8c0,0-19.8-65.9,44.9-124.8"/>
	<text transform="matrix(-0.2093 -0.9778 0.9778 -0.2093 55.9293 156.2079)" font-family="'ArialMT'" font-size="9px"></text>
	<text transform="matrix(-0.1566 -0.9877 0.9877 -0.1566 55.2847 153.3719)" font-family="'ArialMT'" font-size="9px">S</text>
	<text transform="matrix(-0.1032 -0.9947 0.9947 -0.1032 54.373 147.5361)" font-family="'ArialMT'" font-size="9px">o</text>
	<text transform="matrix(-6.945117e-02 -0.9976 0.9976 -6.945117e-02 53.8833 142.6087)" font-family="'ArialMT'" font-size="9px">f</text>
	<text transform="matrix(-4.752361e-02 -0.9989 0.9989 -4.752361e-02 53.7099 140.1276)" font-family="'ArialMT'" font-size="9px">t</text>
	<text transform="matrix(-9.501412e-03 -0.9999 0.9999 -9.501412e-03 53.5561 137.7117)" font-family="'ArialMT'" font-size="9px">w</text>
	<text transform="matrix(3.810610e-02 -0.9993 0.9993 3.810610e-02 53.5114 131.2889)" font-family="'ArialMT'" font-size="9px">a</text>
	<text transform="matrix(7.089450e-02 -0.9975 0.9975 7.089450e-02 53.7172 126.3157)" font-family="'ArialMT'" font-size="9px">r</text>
	<text transform="matrix(0.103 -0.9947 0.9947 0.103 53.908 123.3943)" font-family="'ArialMT'" font-size="9px">e</text>
	<text transform="matrix(0.133 -0.9911 0.9911 0.133 54.4378 118.4588)" font-family="'ArialMT'" font-size="9px"> </text>
	<text transform="matrix(0.1529 -0.9882 0.9882 0.1529 54.7652 116.0142)" font-family="'ArialMT'" font-size="9px">t</text>
	<text transform="matrix(0.1825 -0.9832 0.9832 0.1825 55.1218 113.5808)" font-family="'ArialMT'" font-size="9px">e</text>
	<text transform="matrix(0.2194 -0.9756 0.9756 0.2194 56.0254 108.7309)" font-family="'ArialMT'" font-size="9px">c</text>
	<text transform="matrix(0.256 -0.9667 0.9667 0.256 56.995 104.3954)" font-family="'ArialMT'" font-size="9px">h</text>
	<text transform="matrix(0.2939 -0.9558 0.9558 0.2939 58.2584 99.6183)" font-family="'ArialMT'" font-size="9px">n</text>
	<text transform="matrix(0.32 -0.9474 0.9474 0.32 59.7383 94.8741)" font-family="'ArialMT'" font-size="9px">i</text>
	<text transform="matrix(0.3437 -0.9391 0.9391 0.3437 60.3458 93.0225)" font-family="'ArialMT'" font-size="9px">c</text>
	<text transform="matrix(0.3779 -0.9258 0.9258 0.3779 61.8735 88.8338)" font-family="'ArialMT'" font-size="9px">a</text>
	<text transform="matrix(0.4025 -0.9154 0.9154 0.4025 63.7646 84.2533)" font-family="'ArialMT'" font-size="9px">l</text>
	<text transform="matrix(0.418 -0.9084 0.9084 0.418 64.5575 82.4432)" font-family="'ArialMT'" font-size="9px"> </text>
	<text transform="matrix(0.4483 -0.8939 0.8939 0.4483 65.5498 80.2041)" font-family="'ArialMT'" font-size="9px">w</text>
	<text transform="matrix(0.4792 -0.8777 0.8777 0.4792 68.4627 74.4636)" font-family="'ArialMT'" font-size="9px">r</text>
	<text transform="matrix(0.4951 -0.8688 0.8688 0.4951 69.8925 71.8543)" font-family="'ArialMT'" font-size="9px">i</text>
	<text transform="matrix(0.509 -0.8607 0.8607 0.509 70.8616 70.1488)" font-family="'ArialMT'" font-size="9px">t</text>
	<text transform="matrix(0.5228 -0.8524 0.8524 0.5228 72.1311 68.0068)" font-family="'ArialMT'" font-size="9px">i</text>
	<text transform="matrix(0.5436 -0.8394 0.8394 0.5436 73.1336 66.3363)" font-family="'ArialMT'" font-size="9px">n</text>
	<text transform="matrix(0.5721 -0.8202 0.8202 0.5721 75.82 62.187)" font-family="'ArialMT'" font-size="9px">g</text>
	<text transform="matrix(0.5926 -0.8055 0.8055 0.5926 78.6783 58.1153)" font-family="'ArialMT'" font-size="9px"> </text>
	<path fill="none" d="M70.2,157.5c0,0-19.8-65.9,44.9-124.8"/>
	<text transform="matrix(-0.2162 -0.9763 0.9763 -0.2162 69.6596 155.8194)" font-family="'ArialMT'" font-size="9px">i</text>
	<text transform="matrix(-0.1756 -0.9845 0.9845 -0.1756 69.2211 153.955)" font-family="'ArialMT'" font-size="9px">s</text>
	<text transform="matrix(-0.1388 -0.9903 0.9903 -0.1388 68.4593 149.5734)" font-family="'ArialMT'" font-size="9px"> </text>
	<text transform="matrix(-0.1032 -0.9947 0.9947 -0.1032 68.0988 147.1706)" font-family="'ArialMT'" font-size="9px">a</text>
	<text transform="matrix(-6.945117e-02 -0.9976 0.9976 -6.945117e-02 67.6093 142.2428)" font-family="'ArialMT'" font-size="9px"> </text>
	<text transform="matrix(-3.694521e-02 -0.9993 0.9993 -3.694521e-02 67.4181 139.7987)" font-family="'ArialMT'" font-size="9px">d</text>
	<text transform="matrix(3.147206e-03 -1 1 3.147206e-03 67.2394 134.8503)" font-family="'ArialMT'" font-size="9px">y</text>
	<text transform="matrix(2.990749e-02 -0.9995 0.9995 2.990749e-02 67.2696 130.4064)" font-family="'ArialMT'" font-size="9px">i</text>
	<text transform="matrix(5.866887e-02 -0.9983 0.9983 5.866887e-02 67.3067 128.4361)" font-family="'ArialMT'" font-size="9px">n</text>
	<text transform="matrix(9.913523e-02 -0.9951 0.9951 9.913523e-02 67.595 123.5025)" font-family="'ArialMT'" font-size="9px">g</text>
	<text transform="matrix(0.1291 -0.9916 0.9916 0.1291 68.1034 118.5831)" font-family="'ArialMT'" font-size="9px"> </text>
	<text transform="matrix(0.1569 -0.9876 0.9876 0.1569 68.4073 116.1337)" font-family="'ArialMT'" font-size="9px">c</text>
	<text transform="matrix(0.1943 -0.9809 0.9809 0.1943 69.0974 111.7514)" font-family="'ArialMT'" font-size="9px">a</text>
	<text transform="matrix(0.2252 -0.9743 0.9743 0.2252 70.0716 106.9099)" font-family="'ArialMT'" font-size="9px">r</text>
	<text transform="matrix(0.256 -0.9667 0.9667 0.256 70.721 104.0296)" font-family="'ArialMT'" font-size="9px">e</text>
	<text transform="matrix(0.2939 -0.9558 0.9558 0.2939 71.9845 99.2524)" font-family="'ArialMT'" font-size="9px">e</text>
	<text transform="matrix(0.3236 -0.9462 0.9462 0.3236 73.4572 94.5158)" font-family="'ArialMT'" font-size="9px">r</text>
	<text transform="matrix(0.3437 -0.9391 0.9391 0.3437 74.4154 91.7177)" font-family="'ArialMT'" font-size="9px"> </text>
	<text transform="matrix(0.3619 -0.9322 0.9322 0.3619 75.2726 89.3771)" font-family="'ArialMT'" font-size="9px">.</text>
	<text transform="matrix(0.3795 -0.9252 0.9252 0.3795 76.1551 87.1013)" font-family="'ArialMT'" font-size="9px">.</text>
	<text transform="matrix(0.3972 -0.9177 0.9177 0.3972 77.0958 84.8078)" font-family="'ArialMT'" font-size="9px">.</text>
	<text transform="matrix(0.4162 -0.9093 0.9093 0.4162 78.0762 82.5356)" font-family="'ArialMT'" font-size="9px"></text>
	<text transform="matrix(0.4349 -0.9005 0.9005 0.4349 79.3149 79.8367)" font-family="'ArialMT'" font-size="9px"> </text>
	<text transform="matrix(0.4598 -0.888 0.888 0.4598 80.3615 77.6273)" font-family="'ArialMT'" font-size="9px">?</text>
	<text transform="matrix(0.492 -0.8706 0.8706 0.492 82.6388 73.2272)" font-family="'ArialMT'" font-size="9px">?</text>
	<text transform="matrix(0.5228 -0.8524 0.8524 0.5228 85.0713 68.922)" font-family="'ArialMT'" font-size="9px">?</text>
</g>
<path fill="#212121" d="M468.8,228.5v-25l-8.4,7.5v17.5c0,2.3,1.9,4.2,4.2,4.2C466.9,232.7,468.8,230.8,468.8,228.5L468.8,228.5z"/>
<path fill="#212121" d="M477,160.9c1,4.1-1.6,8.2-5.7,9.2c-4.1,1-8.2-1.6-9.2-5.7c-1-4.1,1.6-8.2,5.7-9.2
	C472,154.2,476.1,156.8,477,160.9"/>
<path fill="#212121" d="M506.9,177.8v-5.7c0-2.1-1.7-3.8-3.8-3.8l-11.4,0c-2.1,0-3.8,1.7-3.8,3.8l0,3.4v2.3L506.9,177.8z"/>
<polygon fill="#212121" points="493.6,213 501.2,213 501.2,178.9 493.6,178.9 493.6,186.3 "/>
<polygon fill="#212121" points="492.2,213 492.2,186.1 492.2,178.9 487.8,178.9 487.8,213 "/>
<rect x="502.5" y="178.9" fill="#212121" width="4.4" height="34.1"/>
<path fill="#212121" d="M495.7,231.1c0.9,1.9,2.5,1.9,3.4,0l7.8-17h-19.1L495.7,231.1z"/>
<path fill="#212121" d="M469.6,201.9c0.3-0.3,0.5-0.6,0.5-0.9c0.1-0.5,0-1-0.4-1.5l-0.9-1l-5.7-6.4c-0.6-0.7-1.7-0.8-2.4-0.1
	l-0.3,0.2l-1.7,1.5c0.5,1,1,2.1,1.7,3.2c0.3,0.6,0.7,1.1,1.1,1.7c0.4,0.7,0.6,1.4,0.5,2.1c-0.1,1-0.6,2-1.5,2.6c0,0-0.1,0-0.1,0.1
	c-0.5,0.3-1.1,0.5-1.7,0.5c-1.1,0-2.2-0.6-2.8-1.5c-0.9-1.3-1.7-2.7-2.3-4l-3.4,3.1c-0.7,0.6-0.8,1.7-0.1,2.4l6.6,7.4
	c0.6,0.7,1.7,0.8,2.4,0.1l1.4-1.3l8.4-7.5L469.6,201.9z"/>
<path fill="#212121" d="M454,197.9c0.7,1.3,1.5,2.6,2.4,4c0.5,0.8,1.4,1.2,2.3,1.2c0.5,0,1-0.1,1.5-0.5c0.1-0.1,0.2-0.1,0.2-0.2
	c0.7-0.6,1-1.4,1-2.2c0-0.5-0.2-0.9-0.4-1.4c-0.2-0.3-0.3-0.5-0.5-0.8c-0.9-1.4-1.6-2.8-2.2-4c-0.1-0.2-0.2-0.4-0.3-0.6
	c-0.6-1.3-0.9-2.5-1.2-3.6c-0.2-1-0.3-2-0.3-2.8c0-1.8,0.4-3.2,1-4.3c0.8-1.4,1.9-2.5,2.9-3.3v11.8c0,0,0,0,0.1,0
	c0.4-0.3,0.9-0.4,1.4-0.4c0.7,0,1.3,0.3,1.8,0.8l5.2,5.8l1.4,1.6c0.1,0.1,0.1,0.2,0.2,0.2c0.3,0.4,0.4,0.9,0.4,1.5
	c0,0.1,0,0.1,0,0.2c-0.1,0.4-0.2,0.7-0.4,1v26.5c0,2.3,1.9,4.2,4.2,4.2c2.3,0,4.2-1.9,4.2-4.2l0-36.6c0-0.2,0-0.4,0-0.6v-10.4
	c0.4,0.2,0.8,0.5,1.2,0.7c1.9,1.2,4.3,2.4,7.2,3.3v-5.8c-1.7-0.7-3.2-1.4-4.4-2.2c-1.5-0.9-2.6-1.8-3.4-2.4
	c-0.4-0.3-0.7-0.6-0.8-0.7c-0.1-0.1-0.2-0.1-0.2-0.2c0,0,0,0,0,0c0,0,0,0-0.1-0.1c-0.5-0.6-1.2-1-2.1-1l-13.1,0
	c-0.2,0-0.4,0-0.6,0.1c-0.3,0-0.5,0-0.8,0.1c-0.2,0.1-2.7,0.9-5.3,3.1c-1.3,1.1-2.6,2.5-3.7,4.4c-1,1.9-1.7,4.2-1.7,6.9
	c0,1.6,0.2,3.3,0.8,5.2c0.4,1.6,1.1,3.2,1.9,5C453.8,197.5,453.9,197.7,454,197.9L454,197.9z"/>
<path fill-rule="evenodd" clip-rule="evenodd" fill="none" stroke="#9A9A9A" stroke-width="1.573" stroke-miterlimit="10" d="
	M313.5,165.4c21.8-2.2,40.7-15.5,58.5-28.4c14-10.2,28.6-21,36-36.7"/>
<path fill-rule="evenodd" clip-rule="evenodd" fill="none" stroke="#9A9A9A" stroke-width="1.3464" stroke-miterlimit="10" d="
	M313.5,188.9c21.8,1.6,40.7,11.3,58.5,20.8c14,7.5,28.6,15.4,36,26.9"/>
<path fill-rule="evenodd" clip-rule="evenodd" fill="none" d="M310.2,160.3c21.8-2.2,40.7-15.5,58.5-28.4c14-10.2,28.6-21,36-36.7"
	/>
<text transform="matrix(0.9109 -0.4126 0.4126 0.9109 332.3634 154.366)"><tspan x="0" y="0" font-family="'ArialMT'" font-size="13px">I</tspan><tspan x="4" y="0.1" font-family="'ArialMT'" font-size="13px" rotate="-3.9">m</tspan><tspan x="15.1" y="-0.7" font-family="'ArialMT'" font-size="13px" rotate="-7.5">p</tspan><tspan x="22.4" y="-1.7" font-family="'ArialMT'" font-size="13px" rotate="-9.5">a</tspan><tspan x="29.5" y="-2.9" font-family="'ArialMT'" font-size="13px" rotate="-10.8">c</tspan><tspan x="35.9" y="-4.1" font-family="'ArialMT'" font-size="13px" rotate="-11.3">t</tspan></text>
<path fill-rule="evenodd" clip-rule="evenodd" fill="none" d="M312.5,203.3c21.8,1.6,40.7,11.3,58.5,20.8c14,7.5,28.6,15.4,36,26.9"
	/>
<text transform="matrix(0.9263 0.3768 -0.3768 0.9263 343.0495 210.5896)"><tspan x="0" y="0" font-family="'ArialMT'" font-size="13px">I</tspan><tspan x="3.5" y="-0.1" font-family="'ArialMT'" font-size="13px" rotate="2.4">m</tspan><tspan x="14.3" y="0.4" font-family="'ArialMT'" font-size="13px" rotate="4.5">p</tspan><tspan x="21.4" y="1" font-family="'ArialMT'" font-size="13px" rotate="5.5">a</tspan><tspan x="28.6" y="1.7" font-family="'ArialMT'" font-size="13px" rotate="5.9">c</tspan><tspan x="35.1" y="2.4" font-family="'ArialMT'" font-size="13px" rotate="6.4">t</tspan></text>
<path fill-rule="evenodd" clip-rule="evenodd" fill="none" d="M368.1,104.8c6.7-2,13.3-4,20-5.9c0.3,5.1-0.5,12.9-2.1,17.7"/>
<path fill-rule="evenodd" clip-rule="evenodd" fill="none" d="M406.5,217.4c0.9,6,1.7,12,2.6,18.1c-7.3-0.4-16.7,4.2-24.1,3.8"/>
<path fill="none" stroke="#9A9A9A" stroke-width="1.573" stroke-miterlimit="10" d="M396.7,97.1c6-0.1,11.9-1.8,17-4.9
	c-1,5.6-2,11.3-3,16.9c-0.1,0.7-0.4,1.5-1.1,1.5c-0.7,0-0.4-1.4,0.1-0.9"/>
<path fill="none" stroke="#9A9A9A" stroke-width="1.573" stroke-miterlimit="10" d="M408.9,224.6c0.2,6,2,11.9,5.1,16.9
	c-5.7-0.9-11.3-1.8-17-2.8c-0.7-0.1-1.5-0.4-1.5-1.1c0-0.7,1.4-0.4,0.9,0.1"/>
<path fill="#505050" d="M115.4,123.4C115.4,123.5,115.5,123.5,115.4,123.4C115.5,123.5,115.5,123.5,115.4,123.4L115.4,123.4z
	 M159.7,138.4C159.7,138.4,159.7,138.4,159.7,138.4C159.7,138.4,159.7,138.4,159.7,138.4L159.7,138.4z M157.9,138.7
	C157.9,138.7,157.9,138.7,157.9,138.7C157.8,138.7,157.9,138.7,157.9,138.7z M157.3,139.5L157.3,139.5L157.3,139.5z M118,122.5
	c0.2,0.7-0.2,1.5-0.9,1.7c-0.7,0.2-1.5-0.1-1.7-0.9c-0.1-0.1-0.3-0.4-0.4-0.6c-0.1-0.3-0.1-0.5-0.1-0.8v-0.4c0-0.4,0.1-0.7,0.3-1
	c0.1-0.2,0.3-0.4,0.5-0.6c0.2-0.2,0.4-0.4,0.6-0.5c0.2-0.1,0.4-0.3,0.7-0.3c0.1,0,0.3-0.1,0.4-0.1c0.2,0,0.3-0.1,0.5-0.1
	c0.2,0,0.4-0.1,0.6-0.1c0.2,0,0.4,0,0.6,0h0.6c0.3,0,0.6,0,0.8,0c0.3,0,0.6,0.1,1,0.2c0.3,0.1,0.6,0.2,0.9,0.3
	c0.3,0.1,0.7,0.2,1,0.4c0.4,0.1,0.7,0.3,1,0.4c0.3,0.1,0.7,0.3,1.1,0.5c0.4,0.2,0.8,0.3,1.2,0.5c0.4,0.2,0.8,0.3,1.2,0.5
	c0.5,0.2,0.9,0.4,1.4,0.6c0.5,0.2,0.9,0.4,1.4,0.6c0.5,0.2,1,0.4,1.4,0.6c0.5,0.2,1,0.4,1.5,0.6c0.5,0.2,1,0.4,1.5,0.6
	c0.5,0.2,1,0.4,1.5,0.6c0.5,0.2,1,0.4,1.5,0.6c0.5,0.2,1,0.4,1.5,0.6c0.7,0.3,0.7,0.3,1.4,0.6c0.5,0.2,0.9,0.4,1.4,0.6
	c0.5,0.2,0.9,0.4,1.3,0.5c0.4,0.2,0.8,0.3,1.2,0.5c0.4,0.2,0.8,0.4,1.2,0.6c0.4,0.2,0.8,0.4,1.1,0.5c0.3,0.2,0.7,0.3,1,0.5
	c0.3,0.2,0.7,0.4,1,0.6c0.3,0.2,0.6,0.4,0.9,0.5c0.2,0.2,0.5,0.3,0.8,0.5c0.3,0.2,0.6,0.4,0.9,0.6c0.3,0.2,0.5,0.4,0.8,0.6
	c0.2,0.2,0.5,0.4,0.7,0.5c0.2,0.2,0.5,0.4,0.7,0.5c0.2,0.2,0.4,0.3,0.6,0.4c0.3,0.2,0.3,0.2,0.5,0.4c0.2,0.1,0.3,0.2,0.5,0.3
	c0.2,0.1,0.3,0.2,0.5,0.3c0.2,0.1,0.3,0.2,0.5,0.3c0.1,0.1,0.2,0.1,0.3,0.2c0.2,0.1,0.2,0.1,0.3,0.2c0.1,0.1,0.2,0.1,0.4,0.2
	c0.2,0.1,0.2,0.1,0.4,0.2c0.2,0.1,0.2,0.1,0.4,0.2c0.1,0,0.1,0.1,0.2,0.1c0.2-0.1,0.4-0.2,0.7-0.2c0.8,0,1.4,0.6,1.4,1.4v0.2
	c0,0.2,0,0.3,0,0.4c0,0.2,0,0.3-0.1,0.5c-0.1,0.2-0.2,0.5-0.3,0.7c-0.4,0.6-1.2,0.9-1.9,0.6c-0.3-0.1-0.6-0.4-0.8-0.6
	c-0.1-0.1-0.2-0.2-0.2-0.4c0-0.1-0.1-0.1-0.1-0.2c0,0-0.1,0-0.1-0.1c0,0-0.1-0.1-0.2-0.1c-0.2-0.1-0.2-0.1-0.4-0.3
	c-0.2-0.1-0.2-0.1-0.4-0.2c-0.1-0.1-0.2-0.1-0.2-0.2c-0.2-0.1-0.2-0.1-0.4-0.2c-0.2-0.1-0.3-0.2-0.5-0.3c-0.1-0.1-0.2-0.2-0.4-0.3
	c-0.1-0.1-0.3-0.2-0.5-0.3c-0.2-0.1-0.4-0.3-0.6-0.4c-0.3-0.2-0.3-0.2-0.5-0.4c-0.2-0.1-0.4-0.3-0.7-0.5c-0.2-0.2-0.4-0.3-0.6-0.5
	c-0.2-0.2-0.5-0.4-0.7-0.5c-0.2-0.2-0.5-0.4-0.7-0.5c-0.2-0.2-0.5-0.3-0.7-0.5c-0.3-0.2-0.6-0.4-0.8-0.5c-0.2-0.1-0.5-0.3-0.8-0.5
	c-0.3-0.2-0.6-0.3-0.9-0.5c-0.3-0.2-0.6-0.3-1-0.5c-0.3-0.2-0.7-0.3-1.1-0.5c-0.4-0.2-0.8-0.4-1.2-0.5c-0.4-0.2-0.8-0.4-1.1-0.5
	c-0.4-0.2-0.8-0.3-1.3-0.5c-0.5-0.2-0.9-0.4-1.4-0.6c-0.7-0.3-0.7-0.3-1.4-0.6c-0.5-0.2-1-0.4-1.5-0.6c-0.5-0.2-1-0.4-1.5-0.6
	c-0.5-0.2-1-0.4-1.5-0.6c-0.5-0.2-1-0.4-1.5-0.6c-0.5-0.2-1-0.4-1.5-0.6c-0.5-0.2-1-0.4-1.5-0.6c-0.5-0.2-1-0.4-1.5-0.6
	c-0.5-0.2-0.9-0.4-1.3-0.6c-0.4-0.2-0.8-0.4-1.2-0.5c-0.4-0.1-0.8-0.3-1.2-0.5c-0.4-0.2-0.8-0.3-1.1-0.4c-0.3-0.1-0.6-0.2-1-0.4
	c-0.3-0.1-0.6-0.2-0.9-0.3c-0.3-0.1-0.5-0.2-0.8-0.2c-0.2-0.1-0.4-0.1-0.6-0.1c-0.2,0-0.4,0-0.6,0H119c-0.2,0-0.3,0-0.5,0
	c-0.1,0-0.2,0-0.3,0c-0.1,0-0.2,0-0.3,0.1c-0.1,0-0.2,0-0.2,0.1c0,0,0,0-0.1,0.1c0,0-0.1,0.1-0.1,0.1
	C117.7,122,117.9,122.2,118,122.5L118,122.5z"/>
<path fill="#212020" d="M86.5,179.7l0.4,1.3c0.1,0,0.2-0.1,0.3-0.1c0.1,0,0.1,0,0.2-0.1c0.2-0.1,0.4-0.2,0.5-0.2c0.1,0,0.1,0,0.2,0
	c0.1,0,0.2,0,0.3,0h0.8c0.1,0,0.2,0,0.3,0c0.1,0,0.1,0,0.1,0c0.1,0,0.1,0,0.2,0c0.1,0,0.2,0,0.3,0c0.2,0,0.2,0,0.3,0.1
	c0.1,0,0.1,0,0.2,0c0,0,1.1,0,3.3,0c0.1,0,0.2,0,0.3,0c0.1,0,0.1,0,0.2,0c0.1,0,0.2,0,0.4,0c0.2,0,0.2,0,0.3,0l0.2,0l0.2,0
	c0.2,0,0.2,0,0.3,0l0.3,0c0.1,0,0.3,0,0.4,0.1c0.1,0,0.2,0,0.3,0c0.1,0,0.3,0,0.4,0.1c0.1,0,0.2,0,0.4,0.1c0.1,0,0.2,0,0.4,0
	c0.2,0,0.2,0,0.4,0c0.2,0,0.2,0,0.4,0c0.1,0,0.3,0,0.4,0c0.2,0,0.2,0,0.4,0c0.1,0,0.3,0,0.4,0h2.8c0.2,0,0.4,0,0.5,0
	c0.2,0,0.3,0,0.5,0c0.2,0,0.4,0,0.6,0c0.2,0,0.4,0,0.5,0c0.2,0,0.4,0,0.6,0c0.2,0,0.4,0,0.5,0c0.2,0,0.4,0,0.6,0.1
	c0.3,0,0.3,0,0.5,0.1c0.2,0,0.4,0,0.5,0.1c0.2,0,0.4,0,0.6,0.1c0.2,0,0.3,0,0.5,0.1c0.2,0,0.4,0,0.5,0c0.2,0,0.4,0,0.6,0h3.1
	c0.2,0,0.4,0,0.6,0c0.2,0,0.4,0,0.7,0c0.2,0,0.4,0,0.6,0c0.3,0,0.3,0,0.6,0c0.3,0,0.3,0,0.7,0c0.3,0,0.3,0,0.6,0c0.2,0,0.4,0,0.6,0
	c0.3,0,0.5,0,0.7,0c0.3,0,0.3,0,0.6,0c0.3,0,0.3,0,0.6,0c0.2,0,0.4,0,0.6,0c0.3,0,0.3,0,0.6,0c0.3,0,0.3,0,0.6,0c0.2,0,0.4,0,0.5,0
	c0.2,0,0.4,0,0.6-0.1c0.2,0,0.4,0,0.5,0c0.2,0,0.4,0,0.6,0c0.2,0,0.4,0,0.6,0c0.2,0,0.4,0,0.6,0h5.1c0.2,0,0.3,0,0.4,0
	c0.1,0,0.2,0,0.4,0c0.2,0,0.3,0,0.5,0c0.1,0,0.2,0,0.3,0c0.2,0,0.2,0,0.4,0c0.1,0,0.3,0,0.4,0c0.2,0,0.2,0,0.3,0c0.2,0,0.2,0,0.3,0
	c0.1,0,0.2,0,0.4,0c0.1,0,0.2,0,0.2,0c0.2,0,0.2,0,0.3,0c0.2,0,0.2,0,0.3,0c0.1,0,0.1,0,0.2,0c0.1,0,0.2,0,0.3,0c0.1,0,0.1,0,0.2,0
	h0.8v-0.4c0-0.3,0-0.3,0-0.4c0-0.1,0-0.1,0-0.2c0-0.1,0-0.1,0-0.3c0-0.1,0-0.1,0-0.3c0-0.1,0-0.1,0-0.3c0-0.2,0-0.2,0-0.3
	c0-0.1,0-0.2,0-0.3c0-0.1,0-0.3,0-0.4c0-0.1,0-0.2,0-0.3c0-0.2,0-0.2,0-0.4c0-0.1,0-0.3,0-0.4c0-0.2,0-0.3-0.1-0.5
	c0-0.1,0-0.3,0-0.4c0-0.2,0-0.3-0.1-0.5c0-0.2,0-0.2-0.1-0.5l-0.1-0.5c0-0.3,0-0.3-0.1-0.6c0-0.2,0-0.4-0.1-0.6
	c0-0.2-0.1-0.4-0.1-0.6c0-0.2,0-0.4-0.1-0.6c0-0.2,0-0.4-0.1-0.7c0-0.2-0.1-0.4-0.1-0.6c0-0.3,0-0.3-0.1-0.7
	c-0.1-0.4-0.1-0.4-0.1-0.8c0-0.3,0-0.3-0.1-0.7c0-0.2-0.1-0.4-0.1-0.7c0-0.2-0.1-0.5-0.1-0.8c-0.1-0.4-0.1-0.4-0.1-0.7
	c0-0.2-0.1-0.4-0.1-0.7c0-0.3,0-0.3-0.1-0.7c0-0.2-0.1-0.4-0.1-0.7c0-0.2-0.1-0.5-0.1-0.7c0-0.2-0.1-0.5-0.1-0.7
	c0-0.2-0.1-0.5-0.1-0.6c0-0.2-0.1-0.4-0.1-0.7c0-0.4,0-0.4-0.1-0.7c0-0.3,0-0.3-0.1-0.7c0-0.2-0.1-0.4-0.1-0.6c0-0.3,0-0.3-0.1-0.7
	s-0.1-0.4-0.1-0.7c0-0.3,0-0.3-0.1-0.7c-0.1-0.4-0.1-0.4-0.1-0.7c0-0.3-0.1-0.5-0.1-0.8c0-0.3-0.1-0.5-0.1-0.8
	c-0.1-0.4-0.1-0.4-0.1-0.8c0-0.3-0.1-0.5-0.1-0.8c0-0.3-0.1-0.5-0.1-0.8c0-0.3-0.1-0.5-0.1-0.8c0-0.3-0.1-0.5-0.1-0.8
	c0-0.3-0.1-0.6-0.1-0.8c0-0.3-0.1-0.5-0.1-0.8c-0.1-0.3-0.1-0.6-0.1-0.8c0-0.3-0.1-0.5-0.1-0.8c0-0.3-0.1-0.5-0.1-0.8
	c0-0.3-0.1-0.5-0.1-0.8c0-0.3-0.1-0.5-0.1-0.8c0-0.2-0.1-0.5-0.1-0.8c-0.1-0.4-0.1-0.4-0.1-0.8c0-0.3-0.1-0.5-0.1-0.9
	c0-0.3-0.1-0.6-0.1-0.9c0-0.3-0.1-0.5-0.1-0.8c-0.1-0.3-0.1-0.5-0.2-0.8c-0.1-0.4-0.1-0.4-0.2-0.8c-0.1-0.3-0.1-0.5-0.2-0.7
	c-0.1-0.3-0.1-0.3-0.2-0.7c-0.1-0.2-0.1-0.5-0.2-0.7c-0.1-0.2-0.1-0.5-0.2-0.7c-0.1-0.2-0.1-0.4-0.2-0.6c0-0.2-0.1-0.4-0.2-0.6
	c-0.1-0.4-0.1-0.4-0.2-0.6c-0.1-0.2-0.1-0.4-0.2-0.7c-0.1-0.2-0.1-0.4-0.2-0.6c-0.1-0.2-0.1-0.4-0.2-0.6c-0.1-0.2-0.1-0.4-0.2-0.6
	c-0.1-0.2-0.1-0.4-0.2-0.6c-0.1-0.2-0.1-0.4-0.2-0.6c-0.1-0.2-0.1-0.4-0.2-0.6c-0.1-0.2-0.2-0.4-0.2-0.6c-0.1-0.2-0.2-0.4-0.2-0.6
	c-0.1-0.3-0.1-0.3-0.3-0.6c-0.1-0.2-0.2-0.4-0.3-0.6c-0.1-0.2-0.2-0.3-0.3-0.5c-0.1-0.3-0.1-0.3-0.3-0.6c-0.1-0.2-0.2-0.4-0.3-0.5
	c-0.1-0.2-0.2-0.3-0.3-0.5c-0.1-0.2-0.2-0.3-0.3-0.5c-0.1-0.1-0.2-0.3-0.3-0.4c-0.1-0.2-0.3-0.3-0.4-0.5c-0.1-0.1-0.2-0.3-0.3-0.4
	c-0.1-0.1-0.2-0.3-0.4-0.4c-0.2-0.2-0.2-0.2-0.4-0.4c-0.1-0.1-0.3-0.3-0.4-0.4c-0.2-0.2-0.2-0.2-0.4-0.4c-0.1-0.1-0.3-0.3-0.4-0.4
	c-0.1-0.1-0.3-0.3-0.4-0.4c-0.2-0.2-0.2-0.2-0.4-0.4c-0.1-0.1-0.3-0.2-0.4-0.4c-0.1-0.1-0.3-0.2-0.4-0.4c-0.1-0.1-0.3-0.2-0.4-0.4
	c-0.1-0.1-0.3-0.2-0.4-0.3c-0.1-0.1-0.3-0.2-0.4-0.3c-0.1-0.1-0.3-0.2-0.4-0.3c-0.1-0.1-0.2-0.2-0.4-0.3c-0.2-0.1-0.3-0.2-0.4-0.3
	c-0.1-0.1-0.2-0.1-0.4-0.2c-0.1-0.1-0.3-0.2-0.4-0.2c-0.1-0.1-0.2-0.1-0.4-0.2c-0.2-0.1-0.3-0.1-0.4-0.2c-0.2-0.1-0.2-0.1-0.4-0.2
	c-0.1-0.1-0.2-0.1-0.3-0.1c-0.1,0-0.2-0.1-0.4-0.1c-0.1,0-0.2,0-0.3-0.1c-0.1,0-0.2,0-0.4,0h-1.2c-0.1,0-0.2,0-0.4,0
	c-0.2,0-0.2,0-0.4,0c-0.2,0-0.2,0-0.4,0c-0.1,0-0.2,0-0.3,0c-0.2,0-0.2,0-0.4,0c-0.1,0-0.2,0-0.4,0c-0.1,0-0.2,0-0.3,0.1
	c-0.1,0-0.3,0.1-0.4,0.1c-0.1,0-0.2,0-0.3,0.1c-0.1,0-0.2,0.1-0.3,0.1c-0.2,0.1-0.2,0.1-0.4,0.1c-0.1,0-0.3,0.1-0.4,0.1
	c-0.1,0-0.2,0.1-0.3,0.1c-0.2,0.1-0.2,0.1-0.4,0.1c-0.1,0-0.2,0.1-0.3,0.1c-0.1,0.1-0.2,0.1-0.3,0.2c-0.1,0.1-0.2,0.1-0.3,0.2
	c-0.2,0.1-0.2,0.1-0.4,0.2c-0.1,0.1-0.2,0.1-0.4,0.2c-0.1,0.1-0.3,0.2-0.4,0.3c-0.1,0.1-0.2,0.2-0.3,0.3c-0.1,0.1-0.3,0.2-0.4,0.4
	c-0.1,0.1-0.3,0.2-0.4,0.3c-0.2,0.2-0.2,0.2-0.4,0.4c-0.1,0.1-0.3,0.3-0.4,0.4c-0.2,0.2-0.3,0.3-0.4,0.4c-0.1,0.1-0.3,0.3-0.4,0.5
	c-0.2,0.2-0.3,0.4-0.4,0.5c-0.1,0.2-0.3,0.3-0.4,0.5c-0.2,0.3-0.2,0.3-0.4,0.5c-0.1,0.1-0.3,0.3-0.4,0.5c-0.2,0.3-0.2,0.3-0.4,0.5
	c-0.1,0.1-0.2,0.3-0.4,0.5c-0.2,0.2-0.3,0.4-0.5,0.6c-0.1,0.2-0.3,0.4-0.4,0.5c-0.1,0.2-0.3,0.4-0.4,0.5c-0.1,0.2-0.2,0.3-0.4,0.5
	c-0.1,0.2-0.3,0.4-0.4,0.6c-0.1,0.2-0.3,0.4-0.4,0.6c-0.1,0.2-0.3,0.4-0.4,0.6c-0.1,0.2-0.3,0.4-0.4,0.6c-0.1,0.2-0.2,0.4-0.3,0.6
	c-0.1,0.2-0.2,0.4-0.4,0.6c-0.1,0.2-0.2,0.4-0.3,0.6c-0.2,0.3-0.2,0.3-0.3,0.7l-0.2,0.4l-0.2,0.4c-0.1,0.2-0.2,0.5-0.3,0.7
	c-0.1,0.2-0.2,0.4-0.3,0.7c-0.1,0.2-0.2,0.4-0.3,0.7c-0.2,0.4-0.2,0.4-0.3,0.8c-0.2,0.4-0.2,0.4-0.3,0.8c-0.1,0.3-0.2,0.5-0.3,0.8
	s-0.2,0.6-0.3,0.9c-0.1,0.3-0.2,0.6-0.3,0.9c-0.1,0.3-0.2,0.6-0.4,0.9c-0.1,0.4-0.2,0.7-0.3,1c-0.1,0.3-0.2,0.6-0.3,0.9
	c-0.1,0.4-0.2,0.7-0.4,1c-0.1,0.3-0.2,0.6-0.3,0.9c-0.1,0.3-0.2,0.6-0.3,0.9c-0.1,0.3-0.2,0.6-0.3,0.9c-0.1,0.4-0.2,0.7-0.3,1
	c-0.1,0.3-0.2,0.6-0.3,0.9c-0.2,0.5-0.2,0.5-0.3,1c-0.1,0.4-0.2,0.7-0.3,1c-0.1,0.5-0.1,0.5-0.3,1c-0.1,0.4-0.2,0.7-0.3,1.1
	c-0.1,0.4-0.2,0.7-0.3,1c-0.1,0.5-0.1,0.5-0.3,1.1c-0.1,0.4-0.2,0.7-0.3,1.1c-0.1,0.5-0.1,0.5-0.3,1.1c-0.1,0.4-0.2,0.8-0.3,1.1
	c-0.1,0.3-0.2,0.7-0.3,1.1c-0.1,0.4-0.2,0.8-0.3,1.2c-0.1,0.6-0.1,0.6-0.2,1.2c-0.1,0.4-0.1,0.8-0.2,1.2c-0.1,0.4-0.1,0.8-0.2,1.3
	c-0.1,0.4-0.1,0.8-0.2,1.2c-0.1,0.4-0.1,0.8-0.2,1.2c-0.1,0.4-0.1,0.8-0.1,1.1c0,0.3-0.1,0.7-0.1,1.1c0,0.4-0.1,0.7-0.1,1.1
	c0,0.3-0.1,0.6-0.1,0.9c0,0.3-0.1,0.6-0.1,0.9c0,0.4,0,0.4-0.1,0.8c0,0.3,0,0.5-0.1,0.8c0,0.3,0,0.5,0,0.7l0,0.7c0,0.2,0,0.4,0,0.7
	c0,0.2,0,0.4,0,0.6v3.3c0,0.1,0,0.2,0,0.2C85.9,179.2,86.4,179.3,86.5,179.7L86.5,179.7z M85.7,180.2
	C85.7,180.2,85.7,180.2,85.7,180.2L85.7,180.2L85.7,180.2z M85.3,179.7c-0.1,0.1-0.1,0.1-0.1,0.1c0,0,0,0,0,0.1h0c0,0,0,0,0,0
	c0,0,0,0,0,0l0,0c0,0,0,0,0,0C85.3,179.8,85.3,179.7,85.3,179.7z"/>
<path fill="#505050" d="M150.2,145.8c0.7-0.2,1.5,0.2,1.7,0.9l0.1,0.2c0.3,0.8,0,1.7-1.1,1.9c-0.2,0-0.3,0.1-0.4,0.1
	c-0.2,0.1-0.3,0.1-0.4,0.2c-0.1,0-0.1,0-0.3,0.1c-0.2,0.1-0.2,0.1-0.4,0.2c-0.1,0-0.2,0.1-0.3,0.1c-0.1,0.1-0.3,0.1-0.5,0.2
	c-0.1,0.1-0.3,0.1-0.5,0.2c-0.2,0.1-0.4,0.2-0.6,0.3c-0.2,0.1-0.4,0.2-0.6,0.3c-0.3,0.1-0.3,0.1-0.7,0.3c-0.2,0.1-0.5,0.2-0.7,0.3
	c-0.2,0.1-0.5,0.2-0.8,0.3c-0.3,0.1-0.6,0.2-0.9,0.3c-0.3,0.1-0.6,0.2-0.9,0.3c-0.3,0.1-0.7,0.2-1,0.3c-0.4,0.1-0.8,0.2-1.2,0.3
	c-0.4,0.1-0.8,0.2-1.2,0.3c-0.4,0.1-0.8,0.2-1.3,0.2c-0.4,0.1-0.9,0.2-1.3,0.2s-0.9,0.1-1.4,0.2c-0.5,0.1-0.9,0.1-1.5,0.2
	c-0.8,0.1-0.8,0.1-1.5,0.2c-0.5,0.1-1,0.1-1.5,0.2c-0.5,0.1-1.1,0.1-1.6,0.2c-0.6,0.1-1.1,0.2-1.6,0.2c-0.5,0.1-1.1,0.2-1.7,0.2
	c-0.6,0.1-1.2,0.2-1.7,0.3c-0.6,0.1-1.2,0.2-1.8,0.3c-0.6,0.1-1.2,0.2-1.7,0.2c-0.5,0.1-1.1,0.1-1.8,0.2c-0.7,0.1-1.4,0.1-1.9,0.2
	c-0.6,0.1-1.2,0.1-1.8,0.1c-0.6,0-1.2,0-1.8,0c-0.6,0-1.2,0-1.9,0c-0.6,0-1.2,0-1.7,0c-0.6,0-1.2,0-1.8-0.1c-0.6,0-1.2-0.1-1.7-0.1
	c-0.5,0-1.1-0.1-1.6-0.2c-0.6-0.1-1.1-0.1-1.7-0.2c-0.6-0.1-1.1-0.2-1.6-0.3c-0.5-0.1-1-0.2-1.4-0.3c-0.4-0.1-0.9-0.2-1.4-0.3
	c-0.6-0.1-1.1-0.3-1.5-0.4c-0.5-0.1-0.9-0.3-1.3-0.4c-0.4-0.1-0.9-0.3-1.3-0.5c-0.5-0.2-0.9-0.4-1.3-0.6c-0.4-0.2-0.8-0.4-1.1-0.5
	c-0.4-0.2-0.7-0.4-1.2-0.6c-0.4-0.3-0.8-0.5-1.1-0.7c-0.3-0.2-0.7-0.5-1-0.7s-0.6-0.5-0.9-0.8c-0.3-0.3-0.6-0.6-0.9-0.9
	c-0.3-0.3-0.5-0.6-0.7-0.8c-0.2-0.2-0.4-0.5-0.6-0.8c-0.2-0.3-0.4-0.6-0.6-0.9c-0.2-0.3-0.3-0.6-0.4-0.8c-0.1-0.3-0.2-0.6-0.4-0.9
	c-0.1-0.4-0.2-0.7-0.3-1c0-0.3-0.1-0.6-0.1-0.9v-0.8c0-0.3,0-0.6,0-0.8c0-0.2,0-0.5,0.1-0.8c0-0.3,0.1-0.6,0.1-0.8
	c0.1-0.3,0.1-0.5,0.2-0.8c0.1-0.3,0.2-0.6,0.3-0.9c0.1-0.3,0.2-0.6,0.4-0.9c0.1-0.3,0.3-0.6,0.4-0.8c0.1-0.3,0.3-0.5,0.4-0.8
	c0.2-0.3,0.3-0.6,0.5-0.9c0.2-0.3,0.4-0.6,0.6-0.8c0.2-0.3,0.4-0.5,0.6-0.8c0.2-0.3,0.4-0.6,0.7-0.9c0.3-0.3,0.5-0.6,0.7-0.9
	c0.2-0.3,0.5-0.6,0.8-0.9c0.3-0.3,0.5-0.6,0.8-0.9c0.3-0.3,0.6-0.6,0.8-0.8c0.3-0.3,0.5-0.5,0.8-0.7c0.2-0.2,0.5-0.4,0.7-0.6
	c0.3-0.3,0.6-0.5,0.8-0.7c0.4-0.3,0.4-0.3,0.7-0.5c0.3-0.2,0.5-0.4,0.8-0.6c0.3-0.2,0.6-0.4,0.8-0.5c0.3-0.2,0.5-0.3,0.8-0.4
	c0.2-0.1,0.5-0.3,0.8-0.4c0.3-0.2,0.6-0.3,0.8-0.4c0.2-0.1,0.5-0.2,0.7-0.4c0.3-0.1,0.5-0.3,0.7-0.4c0.2-0.1,0.4-0.2,0.6-0.3
	c0.3-0.2,0.5-0.3,0.7-0.4c0.2-0.1,0.3-0.2,0.6-0.3c0.2-0.1,0.5-0.3,0.7-0.4c0.3-0.2,0.3-0.2,0.6-0.3c0.3-0.1,0.3-0.1,0.6-0.3
	c0.2-0.1,0.4-0.2,0.5-0.3c0.2-0.1,0.4-0.2,0.5-0.3c0.2-0.1,0.3-0.2,0.5-0.2c0.2-0.1,0.3-0.2,0.5-0.2c0.1-0.1,0.3-0.1,0.4-0.2
	c0.2-0.1,0.4-0.1,0.7-0.2c0.1,0,0.3,0,0.5,0c0.2,0,0.4,0,0.6,0c0.2,0,0.5,0.1,0.7,0.2c0.7,0.2,1.1,1,0.9,1.7c-0.2,0.7-1,1.1-1.7,0.9
	c-0.1,0-0.2,0-0.2-0.1c-0.1,0-0.2,0-0.2,0c-0.2,0-0.3,0.1-0.4,0.1c-0.1,0-0.2,0.1-0.4,0.2c-0.2,0.1-0.3,0.1-0.4,0.2
	c-0.1,0.1-0.3,0.2-0.4,0.2c-0.2,0.1-0.4,0.2-0.6,0.3c-0.3,0.2-0.3,0.2-0.5,0.3c-0.3,0.2-0.3,0.2-0.6,0.3c-0.2,0.1-0.4,0.2-0.6,0.3
	c-0.3,0.1-0.5,0.3-0.7,0.4c-0.2,0.1-0.4,0.2-0.6,0.3c-0.3,0.2-0.5,0.3-0.8,0.4c-0.2,0.1-0.5,0.2-0.7,0.3c-0.2,0.1-0.5,0.3-0.7,0.4
	c-0.2,0.1-0.5,0.3-0.7,0.4c-0.3,0.2-0.5,0.3-0.8,0.4c-0.2,0.1-0.4,0.3-0.7,0.4c-0.2,0.1-0.5,0.3-0.7,0.5c-0.2,0.2-0.5,0.3-0.7,0.5
	c-0.4,0.3-0.4,0.3-0.7,0.5c-0.2,0.2-0.5,0.3-0.7,0.6c-0.3,0.2-0.5,0.4-0.7,0.6c-0.2,0.2-0.4,0.4-0.6,0.6c-0.3,0.3-0.5,0.5-0.8,0.8
	c-0.3,0.3-0.5,0.5-0.8,0.8c-0.2,0.3-0.5,0.5-0.7,0.8c-0.2,0.3-0.5,0.6-0.7,0.9c-0.2,0.3-0.5,0.6-0.6,0.8c-0.2,0.3-0.4,0.5-0.6,0.8
	c-0.2,0.3-0.4,0.5-0.5,0.8c-0.2,0.3-0.3,0.5-0.5,0.7c-0.1,0.2-0.3,0.5-0.4,0.7c-0.1,0.2-0.2,0.5-0.3,0.7c-0.1,0.2-0.2,0.5-0.3,0.7
	c-0.1,0.2-0.1,0.4-0.2,0.7c-0.1,0.2-0.1,0.5-0.2,0.7c0,0.2-0.1,0.4-0.1,0.7c0,0.2-0.1,0.4-0.1,0.6c0,0.2,0,0.4,0,0.6v0.8
	c0,0.2,0,0.3,0,0.5c0,0.1,0.1,0.3,0.1,0.5c0.1,0.3,0.2,0.5,0.3,0.7c0.1,0.2,0.2,0.4,0.3,0.6c0.1,0.2,0.3,0.4,0.4,0.7
	c0.2,0.3,0.4,0.5,0.5,0.7c0.1,0.2,0.3,0.4,0.5,0.6c0.2,0.2,0.5,0.5,0.7,0.7c0.3,0.2,0.5,0.5,0.8,0.7c0.3,0.2,0.5,0.4,0.8,0.6
	c0.3,0.2,0.6,0.4,1,0.6c0.4,0.2,0.7,0.4,1,0.6c0.3,0.2,0.7,0.3,1,0.5c0.4,0.2,0.7,0.3,1.1,0.5c0.4,0.2,0.8,0.3,1.2,0.4
	c0.4,0.1,0.8,0.3,1.2,0.4c0.4,0.1,0.9,0.2,1.4,0.4c0.5,0.1,1,0.2,1.4,0.3c0.4,0.1,0.8,0.2,1.3,0.3c0.5,0.1,1,0.2,1.5,0.3
	c0.5,0.1,1,0.1,1.6,0.2c0.5,0.1,1,0.1,1.5,0.2c0.5,0,1,0.1,1.6,0.1c0.6,0,1.1,0.1,1.7,0.1c0.5,0,1.1,0,1.7,0c0.6,0,1.2,0,1.8,0
	c0.6,0,1.2,0,1.8,0c0.5,0,1.1,0,1.6-0.1c0.6,0,1.2-0.1,1.9-0.2c0.7-0.1,1.3-0.1,1.8-0.2s1-0.1,1.6-0.2c0.6-0.1,1.2-0.2,1.8-0.3
	c0.6-0.1,1.2-0.2,1.7-0.3c0.6-0.1,1.2-0.2,1.7-0.2c0.5-0.1,1.1-0.2,1.7-0.2c0.6-0.1,1.1-0.2,1.6-0.2c0.5-0.1,1-0.1,1.5-0.2
	c0.7-0.1,0.7-0.1,1.5-0.2c0.5-0.1,1-0.1,1.4-0.2c0.5-0.1,0.9-0.1,1.3-0.2c0.4-0.1,0.9-0.1,1.3-0.2c0.4-0.1,0.8-0.2,1.2-0.2
	c0.4-0.1,0.8-0.2,1.1-0.2c0.4-0.1,0.7-0.2,1.1-0.3c0.3-0.1,0.7-0.2,1-0.3c0.3-0.1,0.6-0.2,0.9-0.3c0.2-0.1,0.5-0.2,0.8-0.3
	c0.3-0.1,0.5-0.2,0.8-0.3c0.2-0.1,0.5-0.2,0.6-0.3c0.3-0.1,0.3-0.1,0.7-0.3c0.2-0.1,0.5-0.2,0.6-0.3c0.2-0.1,0.3-0.1,0.5-0.2
	c0.2-0.1,0.4-0.2,0.5-0.3c0.2-0.1,0.3-0.1,0.4-0.2c0.1-0.1,0.3-0.1,0.5-0.2c0.2-0.1,0.2-0.1,0.3-0.1c0.2-0.1,0.2-0.1,0.3-0.1
	c0,0,0.1,0,0.2-0.1C149.5,146.2,149.8,145.9,150.2,145.8L150.2,145.8z M150.2,146.2c0.1,0,0.1,0,0.2,0
	C150.3,146.2,150.3,146.2,150.2,146.2L150.2,146.2z"/>
</svg>
