<?xml version="1.0" encoding="utf-8"?>
<!-- Generator: Adobe Illustrator 23.0.3, SVG Export Plug-In . SVG Version: 6.00 Build 0)  -->
<svg version="1.1" id="Layer_1" xmlns="http://www.w3.org/2000/svg" xmlns:xlink="http://www.w3.org/1999/xlink" x="0px" y="0px"
	 viewBox="0 0 600 350" enable-background="new 0 0 600 350" xml:space="preserve">
<path opacity="0.41" fill="#662D91" d="M517.3,175H69.9c-6.6,0-12-5.4-12-12V96.5c0-6.6,5.4-12,12-12h447.4c6.6,0,12,5.4,12,12V163
	C529.3,169.6,523.9,175,517.3,175z"/>
<rect x="5" y="38.6" fill="none" width="600" height="45.9"/>
<text transform="matrix(1 0 0 1 48.5791 60.016)" font-family="'ArialMT'" font-size="25px">Companies don’t always know what they need</text>
<g>
	<rect x="71.5" y="95.1" fill="none" width="450.6" height="93.4"/>
	<text transform="matrix(1 0 0 1 71.5492 106.2736)"><tspan x="0" y="0" font-family="'ArialMT'" font-size="13px">There’s a disconnect between what companies say they want and what they </tspan><tspan x="0" y="15.6" font-family="'ArialMT'" font-size="13px">actually need. They say they want technical technical writers, but what they </tspan><tspan x="0" y="31.2" font-family="'ArialMT'" font-size="13px">really want is to improve the customer  experience. The “technical technical” </tspan><tspan x="0" y="46.8" font-family="'ArialMT'" font-size="13px">writer isn’t necessarily going to do that. -- Paul Gustovson, Expert Support</tspan></text>
</g>
<path d="M223.1,231.9l0.7-0.5l-1.6-1.5c-0.3,0.2-0.6,0.5-0.9,0.7l-1.3,3c0.1,0.1,0.2,0.1,0.3,0.2L223.1,231.9z"/>
<path d="M220.3,233.5C220.3,233.5,220.3,233.5,220.3,233.5l2.7-1.8l0.5-0.3l-1.3-1.2c-0.2,0.2-0.5,0.4-0.7,0.5L220.3,233.5z
	 M220.3,234.1l-0.1-0.1c-0.1-0.1-0.2-0.1-0.2-0.2l-0.2-0.1l1.4-3.2l0.1,0c0.3-0.2,0.6-0.4,0.9-0.6l0.2-0.1l2,1.8L220.3,234.1z"/>
<path d="M218.9,237.4c-0.2,0-0.4,0-0.6-0.1l-0.6,7c0.4,0,0.8,0,1.2,0c0.4,0,0.8,0,1.2,0l-0.6-7C219.2,237.4,219,237.4,218.9,237.4
	L218.9,237.4z"/>
<path d="M217.9,244.1c0.7,0,1.2,0,1.9,0l-0.6-6.5c-0.2,0-0.4,0-0.7,0L217.9,244.1z M218.8,244.6c-0.4,0-0.7,0-1.2,0l-0.2,0l0.7-7.5
	l0.3,0.1c0.4,0.1,0.6,0.1,1,0l0.3-0.1l0.7,7.5l-0.2,0C219.6,244.6,219.2,244.6,218.8,244.6L218.8,244.6z"/>
<path d="M237.7,238.3c-0.9,1.3-1.9,2.6-3,3.8c-1.2,1.2-2.4,2.2-3.8,3l2.8,2.8l6.8-6.8L237.7,238.3z"/>
<path d="M231.3,245.1l2.4,2.4l6.5-6.5l-2.4-2.4c-0.8,1.3-1.8,2.5-2.9,3.6C233.8,243.3,232.6,244.3,231.3,245.1z M233.7,248.2
	l-3.1-3.1l0.2-0.2c1.4-0.9,2.6-1.9,3.7-3c1.1-1.1,2.1-2.4,3-3.7l0.2-0.2l3.1,3.1L233.7,248.2z"/>
<path d="M251.7,259.1c-0.5,0.5-1.3,0.8-2,0.8s-1.4-0.3-2-0.8c-1.1-1.1-1.1-2.9,0-4c1.1-1.1,2.9-1.1,4,0
	C252.8,256.2,252.8,258,251.7,259.1L251.7,259.1z M253.2,254.2c-0.1-0.1-0.2-0.2-0.3-0.3l-13-11l-4.4,4.4l11,13c0.8,1,2,1.5,3.3,1.6
	c1.3,0,2.5-0.4,3.4-1.3C254.9,258.8,254.9,255.9,253.2,254.2L253.2,254.2z"/>
<path d="M249.7,254.5c-0.7,0-1.3,0.3-1.8,0.8c-1,1-1,2.6,0,3.7c0.5,0.5,1.1,0.8,1.8,0.8s1.3-0.3,1.8-0.8c1-1,1-2.6,0-3.7
	C251.1,254.8,250.4,254.5,249.7,254.5z M249.7,260.2c-0.8,0-1.6-0.3-2.1-0.9c-0.6-0.6-0.9-1.3-0.9-2.1s0.3-1.6,0.9-2.1
	c1.2-1.2,3.1-1.2,4.3,0c1.2,1.2,1.2,3.1,0,4.3C251.3,259.8,250.6,260.2,249.7,260.2z M235.8,247.3l10.9,12.9
	c0.8,0.9,1.9,1.5,3.1,1.5c1.2,0.1,2.4-0.4,3.2-1.3c0.8-0.8,1.3-1.9,1.3-3c0-1.1-0.4-2.2-1.3-3c-0.1-0.1-0.2-0.2-0.3-0.2l-12.9-10.9
	L235.8,247.3z M250,262.1c-0.1,0-0.1,0-0.2,0c-1.3-0.1-2.6-0.6-3.4-1.7l-11.1-13.2l4.7-4.7l13.2,11.1c0.1,0.1,0.2,0.2,0.3,0.3h0
	c0.9,0.9,1.4,2.1,1.4,3.4c0,1.3-0.5,2.5-1.4,3.4C252.4,261.6,251.3,262.1,250,262.1L250,262.1z"/>
<path d="M231.3,240.6C231.3,240.6,231.3,240.6,231.3,240.6c-1.2,1-2.4,1.9-3.8,2.6c0,0,0,0,0,0c-2.2,1.1-4.5,1.8-7,2c0,0,0,0,0,0
	c0,0,0,0,0,0h0c-0.5,0-1.1,0.1-1.7,0.1c-3.1,0-6-0.7-8.7-2.1c0,0,0,0,0,0c-1.3-0.7-2.6-1.5-3.7-2.5c0,0,0,0-0.1-0.1
	c-0.3-0.3-0.7-0.6-1-0.9c-7.4-7.4-7.4-19.5,0-27c3.6-3.6,8.4-5.6,13.5-5.6c5.1,0,9.9,2,13.5,5.6c7.4,7.4,7.4,19.5,0,27
	C232,240,231.7,240.3,231.3,240.6L231.3,240.6z M234,211c-4.1-4.1-9.5-6.3-15.2-6.3c-5.7,0-11.1,2.2-15.2,6.3
	c-8.4,8.4-8.4,22,0,30.4c4.2,4.2,9.7,6.3,15.2,6.3c5.5,0,11-2.1,15.2-6.3C242.4,233,242.4,219.4,234,211L234,211z"/>
<path d="M218.8,207.4c-5,0-9.8,2-13.3,5.5c-7.3,7.3-7.3,19.3,0,26.6c0.3,0.3,0.6,0.6,1,0.9l0,0c1.1,1,2.4,1.8,3.7,2.5l0,0
	c2.7,1.4,5.6,2.1,8.6,2.1c0.5,0,1.1,0,1.6-0.1l0,0l0,0c2.5-0.2,4.8-0.9,6.9-2l0,0c1.3-0.7,2.5-1.5,3.7-2.5l0,0
	c0.4-0.3,0.7-0.6,1-0.9c3.6-3.6,5.5-8.3,5.5-13.3c0-5-2-9.8-5.5-13.3C228.6,209.3,223.9,207.4,218.8,207.4L218.8,207.4z
	 M218.8,245.5c-3.1,0-6.1-0.7-8.8-2.1l0,0c-1.3-0.7-2.6-1.5-3.8-2.5c0,0-0.1,0-0.1-0.1c-0.4-0.3-0.7-0.6-1-0.9
	c-7.5-7.5-7.5-19.8,0-27.3c3.6-3.6,8.5-5.6,13.6-5.6c5.2,0,10,2,13.6,5.6c3.6,3.6,5.6,8.5,5.6,13.6c0,5.2-2,10-5.6,13.6
	c-0.3,0.3-0.6,0.6-1,0.9c0,0,0,0-0.1,0c-1.2,1-2.4,1.9-3.8,2.6l-0.1,0c-2.2,1.1-4.5,1.8-7,2l0,0c0,0,0,0-0.1,0h0
	C219.9,245.5,219.4,245.5,218.8,245.5L218.8,245.5z M218.8,204.9c-5.7,0-11,2.2-15,6.2c-8.3,8.3-8.3,21.8,0,30.1c4,4,9.4,6.2,15,6.2
	h0c5.7,0,11-2.2,15-6.2c4-4,6.2-9.4,6.2-15s-2.2-11-6.2-15C229.9,207.1,224.5,204.9,218.8,204.9L218.8,204.9z M218.8,247.9
	L218.8,247.9c-5.8,0-11.3-2.3-15.4-6.4c-8.5-8.5-8.5-22.3,0-30.7c4.1-4.1,9.6-6.4,15.4-6.4c5.8,0,11.3,2.3,15.4,6.4
	c4.1,4.1,6.4,9.6,6.4,15.4c0,5.8-2.3,11.3-6.4,15.4C230.1,245.7,224.6,247.9,218.8,247.9L218.8,247.9z"/>
<path d="M216.9,234.6l-3.7-2.5L213,232l-2.1,0.6c-2.2,0.6-3.7,2.6-3.7,4.8v2.7c0.9,0.7,1.8,1.4,2.7,1.9v-4.8c0-0.3,0.2-0.5,0.5-0.5
	c0.3,0,0.5,0.2,0.5,0.5v5.3c1.9,0.9,3.9,1.5,6,1.8l0.7-7.4c-0.4-0.4-0.7-0.9-0.7-1.5C216.7,235,216.8,234.8,216.9,234.6L216.9,234.6
	z"/>
<path d="M211,242.3c1.7,0.9,3.6,1.4,5.6,1.7l0.6-7c-0.4-0.4-0.7-1-0.7-1.6c0-0.2,0-0.4,0.1-0.7l-3.7-2.4l-2.1,0.5
	c-2.1,0.6-3.6,2.4-3.6,4.6v2.6c0.7,0.6,1.5,1.1,2.3,1.6v-4.4c0-0.4,0.3-0.7,0.7-0.7s0.7,0.3,0.7,0.7L211,242.3z M216.9,244.5l-0.2,0
	c-2.1-0.2-4.2-0.8-6.1-1.8l-0.1-0.1v-5.5c0-0.1-0.1-0.2-0.2-0.2s-0.2,0.1-0.2,0.2v5.2l-0.3-0.2c-1-0.6-1.9-1.2-2.8-1.9l-0.1-0.1
	v-2.8c0-2.4,1.6-4.4,3.9-5l2.2-0.6l4.1,2.7l-0.1,0.2c-0.1,0.2-0.1,0.4-0.1,0.7c0,0.5,0.2,1,0.6,1.4l0.1,0.1L216.9,244.5z"/>
<path d="M215.4,229.9l-1.6,1.5l0.6,0.4l3,2c0.1-0.1,0.2-0.1,0.3-0.2l-1.3-3C216,230.4,215.7,230.2,215.4,229.9L215.4,229.9z"/>
<path d="M214.2,231.4l3.2,2.1c0,0,0,0,0,0l-1.2-2.7c-0.3-0.2-0.5-0.3-0.8-0.5L214.2,231.4z M217.4,234.1l-4-2.6l2-1.8l0.2,0.1
	c0.3,0.3,0.6,0.5,0.9,0.6l0.1,0l1.4,3.2l-0.1,0.1c-0.1,0.1-0.2,0.1-0.2,0.2L217.4,234.1z"/>
<path d="M220.2,218.2C220.2,218.2,220.2,218.2,220.2,218.2c0.8,1.4,2.3,2.7,4.8,3.7c-0.1-3.2-2.5-5.7-5.6-6
	C219.5,216.6,219.7,217.4,220.2,218.2C220.2,218.2,220.2,218.2,220.2,218.2L220.2,218.2z"/>
<path d="M220.4,218.2c0.9,1.5,2.3,2.6,4.3,3.4c-0.2-2.8-2.3-5-5.1-5.4c0.1,0.7,0.4,1.3,0.7,1.9L220.4,218.2z M225.2,222.2l-0.3-0.1
	c-2.3-0.8-3.9-2.1-4.9-3.7l0,0c-0.4-0.8-0.7-1.6-0.9-2.4l0-0.3l0.3,0c3.2,0.3,5.7,3,5.8,6.2L225.2,222.2z"/>
<path d="M218.5,215.8c-2.7,0.2-4.9,2-5.6,4.5c1.4-0.2,3.8-0.6,6.3-2.1C218.8,217.4,218.6,216.6,218.5,215.8L218.5,215.8z"/>
<path d="M218.3,216.1c-2.3,0.2-4.3,1.8-5.1,4c1.4-0.2,3.5-0.7,5.7-1.9C218.6,217.5,218.4,216.8,218.3,216.1z M212.6,220.6l0.1-0.3
	c0.7-2.6,3.1-4.5,5.8-4.7l0.2,0l0,0.2c0.1,0.8,0.4,1.6,0.7,2.4l0.1,0.2l-0.2,0.1c-2.6,1.4-4.9,1.9-6.4,2.1L212.6,220.6z"/>
<path d="M218.8,230.4c3.1,0,5.7-4.3,6.1-7.6c-2.7-0.9-4.3-2.3-5.3-3.7c-2.9,1.6-5.4,2.1-6.9,2.2c0,0.2,0,0.5,0,0.7
	C212.7,225.3,215.4,230.4,218.8,230.4L218.8,230.4z"/>
<path d="M212.9,221.5c0,0.2,0,0.4,0,0.5c0,3.2,2.7,8.2,5.9,8.2c3,0,5.4-4.2,5.9-7.2c-2.3-0.8-4-2-5.1-3.6
	C216.9,220.8,214.5,221.3,212.9,221.5L212.9,221.5z M218.8,230.6c-3.5,0-6.4-5.2-6.4-8.6c0-0.2,0-0.5,0-0.8l0-0.2l0.2,0
	c1.6-0.1,4.1-0.6,6.9-2.2l0.2-0.1l0.1,0.2c1.1,1.6,2.8,2.8,5.2,3.7l0.2,0.1l0,0.2C224.8,226.1,222.2,230.6,218.8,230.6L218.8,230.6z
	"/>
<path d="M226.8,232.5l-2.2-0.6l-1.4,1l-2.4,1.6c0.1,0.2,0.2,0.5,0.2,0.8c0,0.6-0.3,1.2-0.8,1.6l0.7,7.3c2.1-0.2,4.1-0.8,6-1.8l0-5.3
	c0-0.3,0.2-0.5,0.5-0.5c0.3,0,0.5,0.2,0.5,0.5v4.8c1-0.5,1.9-1.2,2.7-1.9v-2.7C230.5,235.1,229,233.1,226.8,232.5L226.8,232.5z"/>
<path d="M220.5,237l0.6,7c1.9-0.2,3.8-0.8,5.6-1.7v-5.2c0-0.4,0.3-0.7,0.7-0.7c0.4,0,0.7,0.3,0.7,0.7v4.4c0.8-0.5,1.6-1,2.3-1.6
	v-2.6c0-2.2-1.5-4.1-3.6-4.6l-2.1-0.5l-3.6,2.4c0.1,0.2,0.1,0.5,0.1,0.7C221.2,236,220.9,236.6,220.5,237L220.5,237z M220.7,244.5
	l-0.7-7.7l0.1-0.1c0.4-0.4,0.7-0.9,0.7-1.4c0-0.2,0-0.5-0.1-0.7l-0.1-0.2l4.1-2.7l2.3,0.6c2.3,0.6,3.9,2.7,3.9,5l0,2.8l-0.1,0.1
	c-0.9,0.7-1.8,1.4-2.8,1.9l-0.3,0.2v-5.2c0-0.1-0.1-0.2-0.2-0.2s-0.2,0.1-0.2,0.2v5.5l-0.1,0.1c-1.9,1-4,1.6-6.1,1.8L220.7,244.5z"
	/>
<path d="M217.6,231.1l0.9,2.1c0.1,0,0.3,0,0.4,0c0.1,0,0.2,0,0.3,0l0.9-2.1c-0.4,0.1-0.8,0.2-1.3,0.2
	C218.4,231.3,218,231.2,217.6,231.1L217.6,231.1z"/>
<path d="M218,231.4l0.7,1.5c0.2,0,0.3,0,0.5,0l0.7-1.6C219.1,231.5,218.6,231.5,218,231.4L218,231.4z M218.3,233.5l-1.1-2.7l0.5,0.1
	c0.8,0.2,1.6,0.2,2.4,0l0.5-0.1l-1.2,2.7l-0.2,0c-0.2,0-0.4,0-0.7,0L218.3,233.5z"/>
<path d="M218.9,234.1c-0.4,0-0.8,0.2-1,0.5c0,0,0,0,0,0c0,0,0,0,0,0c0,0,0,0,0,0c-0.1,0.2-0.2,0.4-0.2,0.6c0,0.7,0.5,1.2,1.2,1.2
	c0.7,0,1.2-0.5,1.2-1.2C220.1,234.6,219.5,234.1,218.9,234.1L218.9,234.1z"/>
<path d="M218,234.8c-0.1,0.2-0.1,0.3-0.1,0.5c0,0.5,0.4,1,1,1s1-0.4,1-1s-0.4-1-1-1C218.5,234.3,218.2,234.5,218,234.8L218,234.8z
	 M218.9,236.8c-0.8,0-1.4-0.6-1.4-1.4c0-0.3,0.1-0.5,0.2-0.8l0,0c0,0,0,0,0,0c0.3-0.4,0.7-0.6,1.2-0.6c0.8,0,1.4,0.6,1.4,1.4
	C220.3,236.1,219.7,236.8,218.9,236.8L218.9,236.8z"/>
<path d="M119.6,235c-2.1,0-3.8-1.7-3.8-3.8c0-2.1,1.7-3.8,3.8-3.8c2.1,0,3.8,1.7,3.8,3.8C123.3,233.3,121.6,235,119.6,235z
	 M119.6,223.6c5.7,0,10.3,4.6,10.3,10.3c0,3-1.3,5.7-3.3,7.5c-0.3-3-2.4-5.4-5.2-6.2c1.5-0.7,2.6-2.2,2.6-4c0-2.4-2-4.4-4.4-4.4
	s-4.4,2-4.4,4.4c0,1.8,1.1,3.3,2.6,4c-2.8,0.7-4.9,3.2-5.2,6.2c-2-1.9-3.3-4.6-3.3-7.5C109.3,228.2,113.9,223.6,119.6,223.6
	L119.6,223.6z M124.5,242.9C124.4,242.9,124.4,242.9,124.5,242.9c-0.2,0.1-0.3,0.2-0.4,0.2c-0.1,0-0.1,0.1-0.2,0.1
	c-0.1,0-0.1,0.1-0.2,0.1c-0.1,0-0.2,0.1-0.3,0.1c0,0-0.1,0-0.1,0c-0.1,0-0.2,0.1-0.3,0.1c0,0,0,0,0,0c-0.5,0.2-1,0.3-1.6,0.4
	c0,0-0.1,0-0.1,0c-0.1,0-0.2,0-0.3,0c-0.1,0-0.1,0-0.2,0c-0.1,0-0.2,0-0.3,0c-0.1,0-0.2,0-0.3,0c-0.1,0-0.1,0-0.2,0
	c-0.2,0-0.3,0-0.5,0h0c-0.2,0-0.3,0-0.5,0c-0.1,0-0.1,0-0.2,0c-0.1,0-0.2,0-0.3,0c-0.1,0-0.2,0-0.3,0c-0.1,0-0.1,0-0.2,0
	c-0.1,0-0.2,0-0.3,0c0,0-0.1,0-0.1,0c-0.5-0.1-1.1-0.2-1.6-0.4c0,0,0,0,0,0c-0.1,0-0.2-0.1-0.3-0.1c0,0-0.1,0-0.1,0
	c-0.1,0-0.2-0.1-0.3-0.1c-0.1,0-0.1-0.1-0.2-0.1c-0.1,0-0.1-0.1-0.2-0.1c-0.1-0.1-0.2-0.1-0.3-0.2c0,0-0.1,0-0.1,0
	c-0.5-0.3-1-0.6-1.5-1c0.1-3.5,2.9-6.3,6.4-6.3c3.5,0,6.3,2.8,6.4,6.3C125.5,242.3,125,242.6,124.5,242.9L124.5,242.9z M112.7,242.3
	C112.7,242.3,112.7,242.3,112.7,242.3c0.4,0.3,0.8,0.6,1.2,0.9c0,0,0,0,0,0c0.1,0.1,0.3,0.2,0.4,0.2c0,0,0.1,0,0.1,0.1
	c0.1,0,0.2,0.1,0.3,0.1c0.1,0,0.1,0.1,0.2,0.1c0.1,0,0.1,0.1,0.2,0.1c0.1,0,0.2,0.1,0.3,0.1c0,0,0.1,0,0.1,0
	c0.7,0.3,1.4,0.5,2.1,0.6c0,0,0.1,0,0.1,0c0.1,0,0.2,0,0.3,0c0.1,0,0.1,0,0.2,0c0.1,0,0.2,0,0.3,0c0.1,0,0.2,0,0.3,0
	c0.1,0,0.1,0,0.2,0c0.2,0,0.3,0,0.5,0c0.2,0,0.3,0,0.5,0c0.1,0,0.1,0,0.2,0c0.1,0,0.2,0,0.3,0c0.1,0,0.2,0,0.3,0c0.1,0,0.1,0,0.2,0
	c0.1,0,0.2,0,0.3,0c0,0,0.1,0,0.1,0c0.7-0.1,1.4-0.3,2.1-0.6c0,0,0.1,0,0.1,0c0.1,0,0.2-0.1,0.3-0.1c0.1,0,0.1-0.1,0.2-0.1
	c0.1,0,0.1-0.1,0.2-0.1c0.1,0,0.2-0.1,0.3-0.1c0,0,0.1,0,0.1-0.1c0.1-0.1,0.3-0.1,0.4-0.2c0,0,0,0,0,0c0.4-0.3,0.8-0.5,1.2-0.9
	c0,0,0,0,0,0c2.4-2,4-5,4-8.4c0-6-4.9-10.9-10.9-10.9c-6,0-10.9,4.9-10.9,10.9C108.7,237.3,110.2,240.3,112.7,242.3L112.7,242.3z"/>
<path d="M145.5,235c-2.1,0-3.8-1.7-3.8-3.8c0-2.1,1.7-3.8,3.8-3.8c2.1,0,3.8,1.7,3.8,3.8C149.3,233.3,147.6,235,145.5,235z
	 M145.5,223.6c5.7,0,10.3,4.6,10.3,10.3c0,3-1.3,5.7-3.3,7.5c-0.3-3-2.4-5.4-5.2-6.2c1.5-0.7,2.6-2.2,2.6-4c0-2.4-2-4.4-4.4-4.4
	s-4.4,2-4.4,4.4c0,1.8,1.1,3.3,2.6,4c-2.8,0.7-4.9,3.2-5.2,6.2c-2-1.9-3.3-4.6-3.3-7.5C135.3,228.2,139.9,223.6,145.5,223.6
	L145.5,223.6z M150.4,242.9C150.4,242.9,150.4,242.9,150.4,242.9c-0.2,0.1-0.3,0.2-0.4,0.2c-0.1,0-0.1,0.1-0.2,0.1
	c-0.1,0-0.1,0.1-0.2,0.1c-0.1,0-0.2,0.1-0.3,0.1c0,0-0.1,0-0.1,0c-0.1,0-0.2,0.1-0.3,0.1c0,0,0,0,0,0c-0.5,0.2-1,0.3-1.6,0.4
	c0,0-0.1,0-0.1,0c-0.1,0-0.2,0-0.3,0c-0.1,0-0.1,0-0.2,0c-0.1,0-0.2,0-0.3,0c-0.1,0-0.2,0-0.3,0c-0.1,0-0.1,0-0.2,0
	c-0.2,0-0.3,0-0.5,0h0c-0.2,0-0.3,0-0.5,0c-0.1,0-0.1,0-0.2,0c-0.1,0-0.2,0-0.3,0c-0.1,0-0.2,0-0.3,0c-0.1,0-0.1,0-0.2,0
	c-0.1,0-0.2,0-0.3,0c0,0-0.1,0-0.1,0c-0.5-0.1-1.1-0.2-1.6-0.4c0,0,0,0,0,0c-0.1,0-0.2-0.1-0.3-0.1c0,0-0.1,0-0.1,0
	c-0.1,0-0.2-0.1-0.3-0.1c-0.1,0-0.1-0.1-0.2-0.1c-0.1,0-0.1-0.1-0.2-0.1c-0.1-0.1-0.2-0.1-0.3-0.2c0,0-0.1,0-0.1,0
	c-0.5-0.3-1-0.6-1.5-1c0.1-3.5,2.9-6.3,6.4-6.3c3.5,0,6.3,2.8,6.4,6.3C151.5,242.3,151,242.6,150.4,242.9L150.4,242.9z M138.7,242.3
	C138.7,242.3,138.7,242.3,138.7,242.3c0.4,0.3,0.8,0.6,1.2,0.9c0,0,0,0,0,0c0.1,0.1,0.3,0.2,0.4,0.2c0,0,0.1,0,0.1,0.1
	c0.1,0,0.2,0.1,0.3,0.1c0.1,0,0.1,0.1,0.2,0.1c0.1,0,0.1,0.1,0.2,0.1c0.1,0,0.2,0.1,0.3,0.1c0,0,0.1,0,0.1,0
	c0.7,0.3,1.4,0.5,2.1,0.6c0,0,0.1,0,0.1,0c0.1,0,0.2,0,0.3,0c0.1,0,0.1,0,0.2,0c0.1,0,0.2,0,0.3,0c0.1,0,0.2,0,0.3,0
	c0.1,0,0.1,0,0.2,0c0.2,0,0.3,0,0.5,0c0.2,0,0.3,0,0.5,0c0.1,0,0.1,0,0.2,0c0.1,0,0.2,0,0.3,0c0.1,0,0.2,0,0.3,0c0.1,0,0.1,0,0.2,0
	c0.1,0,0.2,0,0.3,0c0,0,0.1,0,0.1,0c0.7-0.1,1.4-0.3,2.1-0.6c0,0,0.1,0,0.1,0c0.1,0,0.2-0.1,0.3-0.1c0.1,0,0.1-0.1,0.2-0.1
	c0.1,0,0.1-0.1,0.2-0.1c0.1,0,0.2-0.1,0.3-0.1c0,0,0.1,0,0.1-0.1c0.1-0.1,0.3-0.1,0.4-0.2c0,0,0,0,0,0c0.4-0.3,0.8-0.5,1.2-0.9
	c0,0,0,0,0,0c2.4-2,4-5,4-8.4c0-6-4.9-10.9-10.9-10.9c-6,0-10.9,4.9-10.9,10.9C134.7,237.3,136.2,240.3,138.7,242.3L138.7,242.3z"/>
<path d="M170.7,235c-2.1,0-3.8-1.7-3.8-3.8c0-2.1,1.7-3.8,3.8-3.8c2.1,0,3.8,1.7,3.8,3.8C174.4,233.3,172.7,235,170.7,235z
	 M170.7,223.6c5.7,0,10.3,4.6,10.3,10.3c0,3-1.3,5.7-3.3,7.5c-0.3-3-2.4-5.4-5.2-6.2c1.5-0.7,2.6-2.2,2.6-4c0-2.4-2-4.4-4.4-4.4
	c-2.4,0-4.4,2-4.4,4.4c0,1.8,1.1,3.3,2.6,4c-2.8,0.7-4.9,3.2-5.2,6.2c-2-1.9-3.3-4.6-3.3-7.5C160.4,228.2,165,223.6,170.7,223.6
	L170.7,223.6z M175.6,242.9C175.5,242.9,175.5,242.9,175.6,242.9c-0.2,0.1-0.3,0.2-0.4,0.2c-0.1,0-0.1,0.1-0.2,0.1
	c-0.1,0-0.1,0.1-0.2,0.1c-0.1,0-0.2,0.1-0.3,0.1c0,0-0.1,0-0.1,0c-0.1,0-0.2,0.1-0.3,0.1c0,0,0,0,0,0c-0.5,0.2-1,0.3-1.6,0.4
	c0,0-0.1,0-0.1,0c-0.1,0-0.2,0-0.3,0c-0.1,0-0.1,0-0.2,0c-0.1,0-0.2,0-0.3,0c-0.1,0-0.2,0-0.3,0c-0.1,0-0.1,0-0.2,0
	c-0.2,0-0.3,0-0.5,0h0c-0.2,0-0.3,0-0.5,0c-0.1,0-0.1,0-0.2,0c-0.1,0-0.2,0-0.3,0c-0.1,0-0.2,0-0.3,0c-0.1,0-0.1,0-0.2,0
	c-0.1,0-0.2,0-0.3,0c0,0-0.1,0-0.1,0c-0.5-0.1-1.1-0.2-1.6-0.4c0,0,0,0,0,0c-0.1,0-0.2-0.1-0.3-0.1c0,0-0.1,0-0.1,0
	c-0.1,0-0.2-0.1-0.3-0.1c-0.1,0-0.1-0.1-0.2-0.1c-0.1,0-0.1-0.1-0.2-0.1c-0.1-0.1-0.2-0.1-0.3-0.2c0,0-0.1,0-0.1,0
	c-0.5-0.3-1-0.6-1.5-1c0.1-3.5,2.9-6.3,6.4-6.3c3.5,0,6.3,2.8,6.4,6.3C176.6,242.3,176.1,242.6,175.6,242.9L175.6,242.9z
	 M163.8,242.3C163.8,242.3,163.8,242.3,163.8,242.3c0.4,0.3,0.8,0.6,1.2,0.9c0,0,0,0,0,0c0.1,0.1,0.3,0.2,0.4,0.2c0,0,0.1,0,0.1,0.1
	c0.1,0,0.2,0.1,0.3,0.1c0.1,0,0.1,0.1,0.2,0.1c0.1,0,0.1,0.1,0.2,0.1c0.1,0,0.2,0.1,0.3,0.1c0,0,0.1,0,0.1,0
	c0.7,0.3,1.4,0.5,2.1,0.6c0,0,0.1,0,0.1,0c0.1,0,0.2,0,0.3,0c0.1,0,0.1,0,0.2,0c0.1,0,0.2,0,0.3,0c0.1,0,0.2,0,0.3,0
	c0.1,0,0.1,0,0.2,0c0.2,0,0.3,0,0.5,0c0.2,0,0.3,0,0.5,0c0.1,0,0.1,0,0.2,0c0.1,0,0.2,0,0.3,0c0.1,0,0.2,0,0.3,0c0.1,0,0.1,0,0.2,0
	c0.1,0,0.2,0,0.3,0c0,0,0.1,0,0.1,0c0.7-0.1,1.4-0.3,2.1-0.6c0,0,0.1,0,0.1,0c0.1,0,0.2-0.1,0.3-0.1c0.1,0,0.1-0.1,0.2-0.1
	c0.1,0,0.1-0.1,0.2-0.1c0.1,0,0.2-0.1,0.3-0.1c0,0,0.1,0,0.1-0.1c0.1-0.1,0.3-0.1,0.4-0.2c0,0,0,0,0,0c0.4-0.3,0.8-0.5,1.2-0.9
	c0,0,0,0,0,0c2.4-2,4-5,4-8.4c0-6-4.9-10.9-10.9-10.9s-10.9,4.9-10.9,10.9C159.8,237.3,161.3,240.3,163.8,242.3L163.8,242.3z"/>
<path d="M120,262c-2.1,0-3.8-1.7-3.8-3.8c0-2.1,1.7-3.8,3.8-3.8c2.1,0,3.8,1.7,3.8,3.8C123.7,260.3,122.1,262,120,262z M120,250.6
	c5.7,0,10.3,4.6,10.3,10.3c0,3-1.3,5.7-3.3,7.5c-0.3-3-2.4-5.4-5.2-6.2c1.5-0.7,2.6-2.2,2.6-4c0-2.4-2-4.4-4.4-4.4s-4.4,2-4.4,4.4
	c0,1.8,1.1,3.3,2.6,4c-2.8,0.7-4.9,3.2-5.2,6.2c-2-1.9-3.3-4.6-3.3-7.5C109.7,255.2,114.3,250.6,120,250.6L120,250.6z M124.9,269.9
	C124.9,269.9,124.8,269.9,124.9,269.9c-0.2,0.1-0.3,0.2-0.4,0.2c-0.1,0-0.1,0.1-0.2,0.1c-0.1,0-0.1,0.1-0.2,0.1
	c-0.1,0-0.2,0.1-0.3,0.1c0,0-0.1,0-0.1,0c-0.1,0-0.2,0.1-0.3,0.1c0,0,0,0,0,0c-0.5,0.2-1,0.3-1.6,0.4c0,0-0.1,0-0.1,0
	c-0.1,0-0.2,0-0.3,0c-0.1,0-0.1,0-0.2,0c-0.1,0-0.2,0-0.3,0c-0.1,0-0.2,0-0.3,0c-0.1,0-0.1,0-0.2,0c-0.2,0-0.3,0-0.5,0h0
	c-0.2,0-0.3,0-0.5,0c-0.1,0-0.1,0-0.2,0c-0.1,0-0.2,0-0.3,0c-0.1,0-0.2,0-0.3,0c-0.1,0-0.1,0-0.2,0c-0.1,0-0.2,0-0.3,0
	c0,0-0.1,0-0.1,0c-0.5-0.1-1.1-0.2-1.6-0.4c0,0,0,0,0,0c-0.1,0-0.2-0.1-0.3-0.1c0,0-0.1,0-0.1,0c-0.1,0-0.2-0.1-0.3-0.1
	c-0.1,0-0.1-0.1-0.2-0.1c-0.1,0-0.1-0.1-0.2-0.1c-0.1-0.1-0.2-0.1-0.3-0.2c0,0-0.1,0-0.1,0c-0.5-0.3-1-0.6-1.5-1
	c0.1-3.5,2.9-6.3,6.4-6.3c3.5,0,6.3,2.8,6.4,6.3C125.9,269.3,125.4,269.6,124.9,269.9L124.9,269.9z M113.1,269.3
	C113.1,269.3,113.1,269.3,113.1,269.3c0.4,0.3,0.8,0.6,1.2,0.9c0,0,0,0,0,0c0.1,0.1,0.3,0.2,0.4,0.2c0,0,0.1,0,0.1,0.1
	c0.1,0,0.2,0.1,0.3,0.1c0.1,0,0.1,0.1,0.2,0.1c0.1,0,0.1,0.1,0.2,0.1c0.1,0,0.2,0.1,0.3,0.1c0,0,0.1,0,0.1,0
	c0.7,0.3,1.4,0.5,2.1,0.6c0,0,0.1,0,0.1,0c0.1,0,0.2,0,0.3,0c0.1,0,0.1,0,0.2,0c0.1,0,0.2,0,0.3,0c0.1,0,0.2,0,0.3,0
	c0.1,0,0.1,0,0.2,0c0.2,0,0.3,0,0.5,0c0.2,0,0.3,0,0.5,0c0.1,0,0.1,0,0.2,0c0.1,0,0.2,0,0.3,0c0.1,0,0.2,0,0.3,0c0.1,0,0.1,0,0.2,0
	c0.1,0,0.2,0,0.3,0c0,0,0.1,0,0.1,0c0.7-0.1,1.4-0.3,2.1-0.6c0,0,0.1,0,0.1,0c0.1,0,0.2-0.1,0.3-0.1c0.1,0,0.1-0.1,0.2-0.1
	c0.1,0,0.1-0.1,0.2-0.1c0.1,0,0.2-0.1,0.3-0.1c0,0,0.1,0,0.1-0.1c0.1-0.1,0.3-0.1,0.4-0.2c0,0,0,0,0,0c0.4-0.3,0.8-0.5,1.2-0.9
	c0,0,0,0,0,0c2.4-2,4-5,4-8.4c0-6-4.9-10.9-10.9-10.9c-6,0-10.9,4.9-10.9,10.9C109.1,264.2,110.7,267.3,113.1,269.3L113.1,269.3z"/>
<path d="M147.7,263.7l-2.5,2.5l-0.8-0.8c-0.1-0.1-0.3-0.1-0.4,0s-0.1,0.3,0,0.4l1,1c0.1,0.1,0.1,0.1,0.2,0.1s0.2,0,0.2-0.1l2.7-2.7
	c0.1-0.1,0.1-0.3,0-0.4C148,263.5,147.8,263.5,147.7,263.7L147.7,263.7z"/>
<path d="M146,262c-2.1,0-3.8-1.7-3.8-3.8c0-2.1,1.7-3.8,3.8-3.8c2.1,0,3.8,1.7,3.8,3.8C149.7,260.3,148,262,146,262z M146,250.6
	c5.7,0,10.3,4.6,10.3,10.3c0,3-1.3,5.7-3.3,7.5c-0.3-3-2.4-5.4-5.2-6.2c1.5-0.7,2.6-2.2,2.6-4c0-2.4-2-4.4-4.4-4.4s-4.4,2-4.4,4.4
	c0,1.8,1.1,3.3,2.6,4c-2.8,0.7-4.9,3.2-5.2,6.2c-2-1.9-3.3-4.6-3.3-7.5C135.7,255.2,140.3,250.6,146,250.6L146,250.6z M150.9,269.9
	C150.8,269.9,150.8,269.9,150.9,269.9c-0.2,0.1-0.3,0.2-0.4,0.2c-0.1,0-0.1,0.1-0.2,0.1c-0.1,0-0.1,0.1-0.2,0.1
	c-0.1,0-0.2,0.1-0.3,0.1c0,0-0.1,0-0.1,0c-0.1,0-0.2,0.1-0.3,0.1c0,0,0,0,0,0c-0.5,0.2-1,0.3-1.6,0.4c0,0-0.1,0-0.1,0
	c-0.1,0-0.2,0-0.3,0c-0.1,0-0.1,0-0.2,0c-0.1,0-0.2,0-0.3,0c-0.1,0-0.2,0-0.3,0c-0.1,0-0.1,0-0.2,0c-0.2,0-0.3,0-0.5,0h0
	c-0.2,0-0.3,0-0.5,0c-0.1,0-0.1,0-0.2,0c-0.1,0-0.2,0-0.3,0c-0.1,0-0.2,0-0.3,0c-0.1,0-0.1,0-0.2,0c-0.1,0-0.2,0-0.3,0
	c0,0-0.1,0-0.1,0c-0.5-0.1-1.1-0.2-1.6-0.4c0,0,0,0,0,0c-0.1,0-0.2-0.1-0.3-0.1c0,0-0.1,0-0.1,0c-0.1,0-0.2-0.1-0.3-0.1
	c-0.1,0-0.1-0.1-0.2-0.1c-0.1,0-0.1-0.1-0.2-0.1c-0.1-0.1-0.2-0.1-0.3-0.2c0,0-0.1,0-0.1,0c-0.5-0.3-1-0.6-1.5-1
	c0.1-3.5,2.9-6.3,6.4-6.3c3.5,0,6.3,2.8,6.4,6.3C151.9,269.3,151.4,269.6,150.9,269.9L150.9,269.9z M139.1,269.3
	C139.1,269.3,139.1,269.3,139.1,269.3c0.4,0.3,0.8,0.6,1.2,0.9c0,0,0,0,0,0c0.1,0.1,0.3,0.2,0.4,0.2c0,0,0.1,0,0.1,0.1
	c0.1,0,0.2,0.1,0.3,0.1c0.1,0,0.1,0.1,0.2,0.1c0.1,0,0.1,0.1,0.2,0.1c0.1,0,0.2,0.1,0.3,0.1c0,0,0.1,0,0.1,0
	c0.7,0.3,1.4,0.5,2.1,0.6c0,0,0.1,0,0.1,0c0.1,0,0.2,0,0.3,0c0.1,0,0.1,0,0.2,0c0.1,0,0.2,0,0.3,0c0.1,0,0.2,0,0.3,0
	c0.1,0,0.1,0,0.2,0c0.2,0,0.3,0,0.5,0c0.2,0,0.3,0,0.5,0c0.1,0,0.1,0,0.2,0c0.1,0,0.2,0,0.3,0c0.1,0,0.2,0,0.3,0c0.1,0,0.1,0,0.2,0
	c0.1,0,0.2,0,0.3,0c0,0,0.1,0,0.1,0c0.7-0.1,1.4-0.3,2.1-0.6c0,0,0.1,0,0.1,0c0.1,0,0.2-0.1,0.3-0.1c0.1,0,0.1-0.1,0.2-0.1
	c0.1,0,0.1-0.1,0.2-0.1c0.1,0,0.2-0.1,0.3-0.1c0,0,0.1,0,0.1-0.1c0.1-0.1,0.3-0.1,0.4-0.2c0,0,0,0,0,0c0.4-0.3,0.8-0.5,1.2-0.9
	c0,0,0,0,0,0c2.4-2,4-5,4-8.4c0-6-4.9-10.9-10.9-10.9c-6,0-10.9,4.9-10.9,10.9C135.1,264.2,136.6,267.3,139.1,269.3L139.1,269.3z"/>
<path d="M172.9,237.1l-2.5,2.5l-0.8-0.8c-0.1-0.1-0.3-0.1-0.4,0c-0.1,0.1-0.1,0.3,0,0.4l1,1c0.1,0.1,0.1,0.1,0.2,0.1
	c0.1,0,0.2,0,0.2-0.1l2.7-2.7c0.1-0.1,0.1-0.3,0-0.4C173.2,237,173,237,172.9,237.1L172.9,237.1z"/>
<path d="M171.1,262c-2.1,0-3.8-1.7-3.8-3.8c0-2.1,1.7-3.8,3.8-3.8c2.1,0,3.8,1.7,3.8,3.8C174.8,260.3,173.2,262,171.1,262z
	 M171.1,250.6c5.7,0,10.3,4.6,10.3,10.3c0,3-1.3,5.7-3.3,7.5c-0.3-3-2.4-5.4-5.2-6.2c1.5-0.7,2.6-2.2,2.6-4c0-2.4-2-4.4-4.4-4.4
	c-2.4,0-4.4,2-4.4,4.4c0,1.8,1.1,3.3,2.6,4c-2.8,0.7-4.9,3.2-5.2,6.2c-2-1.9-3.3-4.6-3.3-7.5C160.8,255.2,165.4,250.6,171.1,250.6
	L171.1,250.6z M176,269.9C176,269.9,175.9,269.9,176,269.9c-0.2,0.1-0.3,0.2-0.4,0.2c-0.1,0-0.1,0.1-0.2,0.1c-0.1,0-0.1,0.1-0.2,0.1
	c-0.1,0-0.2,0.1-0.3,0.1c0,0-0.1,0-0.1,0c-0.1,0-0.2,0.1-0.3,0.1c0,0,0,0,0,0c-0.5,0.2-1,0.3-1.6,0.4c0,0-0.1,0-0.1,0
	c-0.1,0-0.2,0-0.3,0c-0.1,0-0.1,0-0.2,0c-0.1,0-0.2,0-0.3,0c-0.1,0-0.2,0-0.3,0c-0.1,0-0.1,0-0.2,0c-0.2,0-0.3,0-0.5,0h0
	c-0.2,0-0.3,0-0.5,0c-0.1,0-0.1,0-0.2,0c-0.1,0-0.2,0-0.3,0c-0.1,0-0.2,0-0.3,0c-0.1,0-0.1,0-0.2,0c-0.1,0-0.2,0-0.3,0
	c0,0-0.1,0-0.1,0c-0.5-0.1-1.1-0.2-1.6-0.4c0,0,0,0,0,0c-0.1,0-0.2-0.1-0.3-0.1c0,0-0.1,0-0.1,0c-0.1,0-0.2-0.1-0.3-0.1
	c-0.1,0-0.1-0.1-0.2-0.1c-0.1,0-0.1-0.1-0.2-0.1c-0.1-0.1-0.2-0.1-0.3-0.2c0,0-0.1,0-0.1,0c-0.5-0.3-1-0.6-1.5-1
	c0.1-3.5,2.9-6.3,6.4-6.3c3.5,0,6.3,2.8,6.4,6.3C177,269.3,176.5,269.6,176,269.9L176,269.9z M164.2,269.3
	C164.2,269.3,164.2,269.3,164.2,269.3c0.4,0.3,0.8,0.6,1.2,0.9c0,0,0,0,0,0c0.1,0.1,0.3,0.2,0.4,0.2c0,0,0.1,0,0.1,0.1
	c0.1,0,0.2,0.1,0.3,0.1c0.1,0,0.1,0.1,0.2,0.1c0.1,0,0.1,0.1,0.2,0.1c0.1,0,0.2,0.1,0.3,0.1c0,0,0.1,0,0.1,0
	c0.7,0.3,1.4,0.5,2.1,0.6c0,0,0.1,0,0.1,0c0.1,0,0.2,0,0.3,0c0.1,0,0.1,0,0.2,0c0.1,0,0.2,0,0.3,0c0.1,0,0.2,0,0.3,0
	c0.1,0,0.1,0,0.2,0c0.2,0,0.3,0,0.5,0c0.2,0,0.3,0,0.5,0c0.1,0,0.1,0,0.2,0c0.1,0,0.2,0,0.3,0c0.1,0,0.2,0,0.3,0c0.1,0,0.1,0,0.2,0
	c0.1,0,0.2,0,0.3,0c0,0,0.1,0,0.1,0c0.7-0.1,1.4-0.3,2.1-0.6c0,0,0.1,0,0.1,0c0.1,0,0.2-0.1,0.3-0.1c0.1,0,0.1-0.1,0.2-0.1
	c0.1,0,0.1-0.1,0.2-0.1c0.1,0,0.2-0.1,0.3-0.1c0,0,0.1,0,0.1-0.1c0.1-0.1,0.3-0.1,0.4-0.2c0,0,0,0,0,0c0.4-0.3,0.8-0.5,1.2-0.9
	c0,0,0,0,0,0c2.4-2,4-5,4-8.4c0-6-4.9-10.9-10.9-10.9s-10.9,4.9-10.9,10.9C160.2,264.2,161.8,267.3,164.2,269.3L164.2,269.3z"/>
<path d="M122.1,210l-2.9,2.9l-0.9-0.9c-0.1-0.1-0.4-0.1-0.5,0c-0.1,0.1-0.1,0.4,0,0.5l1.2,1.2c0.1,0.1,0.2,0.1,0.3,0.1
	c0.1,0,0.2,0,0.3-0.1l3.2-3.2c0.1-0.1,0.1-0.4,0-0.5C122.5,209.9,122.2,209.9,122.1,210L122.1,210z"/>
<path d="M120,208.1c-2.1,0-3.8-1.7-3.8-3.8c0-2.1,1.7-3.8,3.8-3.8c2.1,0,3.8,1.7,3.8,3.8C123.7,206.4,122.1,208.1,120,208.1z
	 M120,196.6c5.7,0,10.3,4.6,10.3,10.3c0,3-1.3,5.7-3.3,7.5c-0.3-3-2.4-5.4-5.2-6.2c1.5-0.7,2.6-2.2,2.6-4c0-2.4-2-4.4-4.4-4.4
	s-4.4,2-4.4,4.4c0,1.8,1.1,3.3,2.6,4c-2.8,0.7-4.9,3.2-5.2,6.2c-2-1.9-3.3-4.6-3.3-7.5C109.7,201.2,114.3,196.6,120,196.6L120,196.6
	z M124.9,215.9C124.9,215.9,124.8,216,124.9,215.9c-0.2,0.1-0.3,0.2-0.4,0.2c-0.1,0-0.1,0.1-0.2,0.1c-0.1,0-0.1,0.1-0.2,0.1
	c-0.1,0-0.2,0.1-0.3,0.1c0,0-0.1,0-0.1,0c-0.1,0-0.2,0.1-0.3,0.1c0,0,0,0,0,0c-0.5,0.2-1,0.3-1.6,0.4c0,0-0.1,0-0.1,0
	c-0.1,0-0.2,0-0.3,0c-0.1,0-0.1,0-0.2,0c-0.1,0-0.2,0-0.3,0c-0.1,0-0.2,0-0.3,0c-0.1,0-0.1,0-0.2,0c-0.2,0-0.3,0-0.5,0h0
	c-0.2,0-0.3,0-0.5,0c-0.1,0-0.1,0-0.2,0c-0.1,0-0.2,0-0.3,0c-0.1,0-0.2,0-0.3,0c-0.1,0-0.1,0-0.2,0c-0.1,0-0.2,0-0.3,0
	c0,0-0.1,0-0.1,0c-0.5-0.1-1.1-0.2-1.6-0.4c0,0,0,0,0,0c-0.1,0-0.2-0.1-0.3-0.1c0,0-0.1,0-0.1,0c-0.1,0-0.2-0.1-0.3-0.1
	c-0.1,0-0.1-0.1-0.2-0.1c-0.1,0-0.1-0.1-0.2-0.1c-0.1-0.1-0.2-0.1-0.3-0.2c0,0-0.1,0-0.1,0c-0.5-0.3-1-0.6-1.5-1
	c0.1-3.5,2.9-6.3,6.4-6.3c3.5,0,6.3,2.8,6.4,6.3C125.9,215.3,125.4,215.6,124.9,215.9L124.9,215.9z M113.1,215.3
	C113.1,215.3,113.1,215.3,113.1,215.3c0.4,0.3,0.8,0.6,1.2,0.9c0,0,0,0,0,0c0.1,0.1,0.3,0.2,0.4,0.2c0,0,0.1,0,0.1,0.1
	c0.1,0,0.2,0.1,0.3,0.1c0.1,0,0.1,0.1,0.2,0.1c0.1,0,0.1,0.1,0.2,0.1c0.1,0,0.2,0.1,0.3,0.1c0,0,0.1,0,0.1,0
	c0.7,0.3,1.4,0.5,2.1,0.6c0,0,0.1,0,0.1,0c0.1,0,0.2,0,0.3,0c0.1,0,0.1,0,0.2,0c0.1,0,0.2,0,0.3,0c0.1,0,0.2,0,0.3,0
	c0.1,0,0.1,0,0.2,0c0.2,0,0.3,0,0.5,0c0.2,0,0.3,0,0.5,0c0.1,0,0.1,0,0.2,0c0.1,0,0.2,0,0.3,0c0.1,0,0.2,0,0.3,0c0.1,0,0.1,0,0.2,0
	c0.1,0,0.2,0,0.3,0c0,0,0.1,0,0.1,0c0.7-0.1,1.4-0.3,2.1-0.6c0,0,0.1,0,0.1,0c0.1,0,0.2-0.1,0.3-0.1c0.1,0,0.1-0.1,0.2-0.1
	c0.1,0,0.1-0.1,0.2-0.1c0.1,0,0.2-0.1,0.3-0.1c0,0,0.1,0,0.1-0.1c0.1-0.1,0.3-0.1,0.4-0.2c0,0,0,0,0,0c0.4-0.3,0.8-0.5,1.2-0.9
	c0,0,0,0,0,0c2.4-2,4-5,4-8.4c0-6-4.9-10.9-10.9-10.9c-6,0-10.9,4.9-10.9,10.9C109.1,210.3,110.7,213.3,113.1,215.3L113.1,215.3z"/>
<path d="M146,208.1c-2.1,0-3.8-1.7-3.8-3.8c0-2.1,1.7-3.8,3.8-3.8c2.1,0,3.8,1.7,3.8,3.8C149.7,206.4,148,208.1,146,208.1z
	 M146,196.6c5.7,0,10.3,4.6,10.3,10.3c0,3-1.3,5.7-3.3,7.5c-0.3-3-2.4-5.4-5.2-6.2c1.5-0.7,2.6-2.2,2.6-4c0-2.4-2-4.4-4.4-4.4
	s-4.4,2-4.4,4.4c0,1.8,1.1,3.3,2.6,4c-2.8,0.7-4.9,3.2-5.2,6.2c-2-1.9-3.3-4.6-3.3-7.5C135.7,201.2,140.3,196.6,146,196.6L146,196.6
	z M150.9,215.9C150.8,215.9,150.8,216,150.9,215.9c-0.2,0.1-0.3,0.2-0.4,0.2c-0.1,0-0.1,0.1-0.2,0.1c-0.1,0-0.1,0.1-0.2,0.1
	c-0.1,0-0.2,0.1-0.3,0.1c0,0-0.1,0-0.1,0c-0.1,0-0.2,0.1-0.3,0.1c0,0,0,0,0,0c-0.5,0.2-1,0.3-1.6,0.4c0,0-0.1,0-0.1,0
	c-0.1,0-0.2,0-0.3,0c-0.1,0-0.1,0-0.2,0c-0.1,0-0.2,0-0.3,0c-0.1,0-0.2,0-0.3,0c-0.1,0-0.1,0-0.2,0c-0.2,0-0.3,0-0.5,0h0
	c-0.2,0-0.3,0-0.5,0c-0.1,0-0.1,0-0.2,0c-0.1,0-0.2,0-0.3,0c-0.1,0-0.2,0-0.3,0c-0.1,0-0.1,0-0.2,0c-0.1,0-0.2,0-0.3,0
	c0,0-0.1,0-0.1,0c-0.5-0.1-1.1-0.2-1.6-0.4c0,0,0,0,0,0c-0.1,0-0.2-0.1-0.3-0.1c0,0-0.1,0-0.1,0c-0.1,0-0.2-0.1-0.3-0.1
	c-0.1,0-0.1-0.1-0.2-0.1c-0.1,0-0.1-0.1-0.2-0.1c-0.1-0.1-0.2-0.1-0.3-0.2c0,0-0.1,0-0.1,0c-0.5-0.3-1-0.6-1.5-1
	c0.1-3.5,2.9-6.3,6.4-6.3c3.5,0,6.3,2.8,6.4,6.3C151.9,215.3,151.4,215.6,150.9,215.9L150.9,215.9z M139.1,215.3
	C139.1,215.3,139.1,215.3,139.1,215.3c0.4,0.3,0.8,0.6,1.2,0.9c0,0,0,0,0,0c0.1,0.1,0.3,0.2,0.4,0.2c0,0,0.1,0,0.1,0.1
	c0.1,0,0.2,0.1,0.3,0.1c0.1,0,0.1,0.1,0.2,0.1c0.1,0,0.1,0.1,0.2,0.1c0.1,0,0.2,0.1,0.3,0.1c0,0,0.1,0,0.1,0
	c0.7,0.3,1.4,0.5,2.1,0.6c0,0,0.1,0,0.1,0c0.1,0,0.2,0,0.3,0c0.1,0,0.1,0,0.2,0c0.1,0,0.2,0,0.3,0c0.1,0,0.2,0,0.3,0
	c0.1,0,0.1,0,0.2,0c0.2,0,0.3,0,0.5,0c0.2,0,0.3,0,0.5,0c0.1,0,0.1,0,0.2,0c0.1,0,0.2,0,0.3,0c0.1,0,0.2,0,0.3,0c0.1,0,0.1,0,0.2,0
	c0.1,0,0.2,0,0.3,0c0,0,0.1,0,0.1,0c0.7-0.1,1.4-0.3,2.1-0.6c0,0,0.1,0,0.1,0c0.1,0,0.2-0.1,0.3-0.1c0.1,0,0.1-0.1,0.2-0.1
	c0.1,0,0.1-0.1,0.2-0.1c0.1,0,0.2-0.1,0.3-0.1c0,0,0.1,0,0.1-0.1c0.1-0.1,0.3-0.1,0.4-0.2c0,0,0,0,0,0c0.4-0.3,0.8-0.5,1.2-0.9
	c0,0,0,0,0,0c2.4-2,4-5,4-8.4c0-6-4.9-10.9-10.9-10.9c-6,0-10.9,4.9-10.9,10.9C135.1,210.3,136.6,213.3,139.1,215.3L139.1,215.3z"/>
<path d="M171.1,208.1c-2.1,0-3.8-1.7-3.8-3.8c0-2.1,1.7-3.8,3.8-3.8c2.1,0,3.8,1.7,3.8,3.8C174.8,206.4,173.2,208.1,171.1,208.1z
	 M171.1,196.6c5.7,0,10.3,4.6,10.3,10.3c0,3-1.3,5.7-3.3,7.5c-0.3-3-2.4-5.4-5.2-6.2c1.5-0.7,2.6-2.2,2.6-4c0-2.4-2-4.4-4.4-4.4
	c-2.4,0-4.4,2-4.4,4.4c0,1.8,1.1,3.3,2.6,4c-2.8,0.7-4.9,3.2-5.2,6.2c-2-1.9-3.3-4.6-3.3-7.5C160.8,201.2,165.4,196.6,171.1,196.6
	L171.1,196.6z M176,215.9C176,215.9,175.9,216,176,215.9c-0.2,0.1-0.3,0.2-0.4,0.2c-0.1,0-0.1,0.1-0.2,0.1c-0.1,0-0.1,0.1-0.2,0.1
	c-0.1,0-0.2,0.1-0.3,0.1c0,0-0.1,0-0.1,0c-0.1,0-0.2,0.1-0.3,0.1c0,0,0,0,0,0c-0.5,0.2-1,0.3-1.6,0.4c0,0-0.1,0-0.1,0
	c-0.1,0-0.2,0-0.3,0c-0.1,0-0.1,0-0.2,0c-0.1,0-0.2,0-0.3,0c-0.1,0-0.2,0-0.3,0c-0.1,0-0.1,0-0.2,0c-0.2,0-0.3,0-0.5,0h0
	c-0.2,0-0.3,0-0.5,0c-0.1,0-0.1,0-0.2,0c-0.1,0-0.2,0-0.3,0c-0.1,0-0.2,0-0.3,0c-0.1,0-0.1,0-0.2,0c-0.1,0-0.2,0-0.3,0
	c0,0-0.1,0-0.1,0c-0.5-0.1-1.1-0.2-1.6-0.4c0,0,0,0,0,0c-0.1,0-0.2-0.1-0.3-0.1c0,0-0.1,0-0.1,0c-0.1,0-0.2-0.1-0.3-0.1
	c-0.1,0-0.1-0.1-0.2-0.1c-0.1,0-0.1-0.1-0.2-0.1c-0.1-0.1-0.2-0.1-0.3-0.2c0,0-0.1,0-0.1,0c-0.5-0.3-1-0.6-1.5-1
	c0.1-3.5,2.9-6.3,6.4-6.3c3.5,0,6.3,2.8,6.4,6.3C177,215.3,176.5,215.6,176,215.9L176,215.9z M164.2,215.3
	C164.2,215.3,164.2,215.3,164.2,215.3c0.4,0.3,0.8,0.6,1.2,0.9c0,0,0,0,0,0c0.1,0.1,0.3,0.2,0.4,0.2c0,0,0.1,0,0.1,0.1
	c0.1,0,0.2,0.1,0.3,0.1c0.1,0,0.1,0.1,0.2,0.1c0.1,0,0.1,0.1,0.2,0.1c0.1,0,0.2,0.1,0.3,0.1c0,0,0.1,0,0.1,0
	c0.7,0.3,1.4,0.5,2.1,0.6c0,0,0.1,0,0.1,0c0.1,0,0.2,0,0.3,0c0.1,0,0.1,0,0.2,0c0.1,0,0.2,0,0.3,0c0.1,0,0.2,0,0.3,0
	c0.1,0,0.1,0,0.2,0c0.2,0,0.3,0,0.5,0c0.2,0,0.3,0,0.5,0c0.1,0,0.1,0,0.2,0c0.1,0,0.2,0,0.3,0c0.1,0,0.2,0,0.3,0c0.1,0,0.1,0,0.2,0
	c0.1,0,0.2,0,0.3,0c0,0,0.1,0,0.1,0c0.7-0.1,1.4-0.3,2.1-0.6c0,0,0.1,0,0.1,0c0.1,0,0.2-0.1,0.3-0.1c0.1,0,0.1-0.1,0.2-0.1
	c0.1,0,0.1-0.1,0.2-0.1c0.1,0,0.2-0.1,0.3-0.1c0,0,0.1,0,0.1-0.1c0.1-0.1,0.3-0.1,0.4-0.2c0,0,0,0,0,0c0.4-0.3,0.8-0.5,1.2-0.9
	c0,0,0,0,0,0c2.4-2,4-5,4-8.4c0-6-4.9-10.9-10.9-10.9s-10.9,4.9-10.9,10.9C160.2,210.3,161.8,213.3,164.2,215.3L164.2,215.3z"/>
<path d="M389.6,220.6l-3,3l-3.2-3.2c-0.1-0.1-0.3-0.2-0.5-0.2c-0.2,0-0.4,0.1-0.5,0.2l-3.2,3.2l-3.2-3.2c-0.3-0.3-0.8-0.3-1.1,0
	l-3.2,3.2l-2.7-2.7l3.2-3.2c0.3-0.3,0.3-0.8,0-1.1l-3.2-3.2l3.2-3.2c0.3-0.3,0.3-0.8,0-1.1l-3.2-3.2l3-3h15.3c1.2,0,2.2,1,2.2,2.2
	V220.6z M391.1,205.4c0-2-1.7-3.7-3.7-3.7h-15.6c-0.2,0-0.4,0.1-0.5,0.2l-3.7,3.7c-0.3,0.3-0.3,0.8,0,1.1l3.2,3.2l-3.2,3.2
	c-0.3,0.3-0.3,0.8,0,1.1l3.2,3.2l-3.2,3.2c-0.3,0.3-0.3,0.8,0,1.1l3.7,3.7c0.3,0.3,0.8,0.3,1.1,0l3.2-3.2l3.2,3.2
	c0.3,0.3,0.8,0.3,1.1,0l3.2-3.2l3.2,3.2c0.1,0.1,0.3,0.2,0.5,0.2c0.2,0,0.4-0.1,0.5-0.2l3.7-3.7c0.1-0.1,0.2-0.3,0.2-0.5
	L391.1,205.4z"/>
<path d="M350.2,209.1H364l-2.4,2.4c-0.3,0.3-0.3,0.8,0,1.1l3.2,3.2l-3.2,3.2c-0.3,0.3-0.3,0.8,0,1.1l3.2,3.2l-6.4,6.4l-3.2-3.2
	c-0.3-0.3-0.8-0.3-1.1,0l-3.2,3.2l-3-3v-15.3C348,210.1,349,209.1,350.2,209.1L350.2,209.1z M364.7,230.6l-3.2,3.2
	c-0.3,0.3-0.3,0.8,0,1.1l3.2,3.2l-3.2,3.2c-0.3,0.3-0.3,0.8,0,1.1l2.4,2.4h-13.8c-1.2,0-2.2-1-2.2-2.2v-13.8l2.4,2.4
	c0.3,0.3,0.8,0.3,1.1,0l3.2-3.2l3.2,3.2c0.1,0.1,0.3,0.2,0.5,0.2c0.2,0,0.4-0.1,0.5-0.2l3.2-3.2L364.7,230.6z M369.5,227.9l3.2,3.2
	c0.3,0.3,0.8,0.3,1.1,0l3.2-3.2l3.2,3.2c0.3,0.3,0.8,0.3,1.1,0l2.4-2.4v13.8c0,1.2-1,2.2-2.2,2.2h-15.3l-3-3l3.2-3.2
	c0.3-0.3,0.3-0.8,0-1.1l-3.2-3.2L369.5,227.9z M350.2,246.2h31.2c2,0,3.7-1.7,3.7-3.7v-15.6c0-0.3-0.2-0.6-0.5-0.7
	c-0.3-0.1-0.6-0.1-0.8,0.2l-3.2,3.2l-3.2-3.2c-0.3-0.3-0.8-0.3-1.1,0l-3.2,3.2l-3.2-3.2c-0.3-0.3-0.8-0.3-1.1,0l-3.2,3.2l-2.7-2.7
	l3.2-3.2c0.3-0.3,0.3-0.8,0-1.1l-3.2-3.2l3.2-3.2c0.3-0.3,0.3-0.8,0-1.1l-3.2-3.2l3.2-3.2c0.2-0.2,0.3-0.5,0.2-0.8
	c-0.1-0.3-0.4-0.5-0.7-0.5h-15.6c-2,0-3.7,1.7-3.7,3.7v31.2C346.5,244.5,348.2,246.2,350.2,246.2L350.2,246.2z"/>
<path d="M380.7,205.4c-2,0-3.7,1.7-3.7,3.7v1.5h1.5v-1.5c0-1.2,1-2.2,2.2-2.2s2.2,1,2.2,2.2v1.2l-2.8,2.8c-0.1,0.1-0.2,0.3-0.2,0.5
	v2.2h1.5v-1.9l2.8-2.8c0.1-0.1,0.2-0.3,0.2-0.5v-1.5C384.4,207,382.7,205.4,380.7,205.4z"/>
<rect x="379.9" y="217.2" width="1.5" height="1.5"/>
<rect x="379.9" y="241.7" width="1.5" height="1.5"/>
<rect x="376.9" y="241.7" width="1.5" height="1.5"/>
<rect x="374" y="241.7" width="1.5" height="1.5"/>
<text transform="matrix(1 0 0 1 400.1476 213.367)"><tspan x="0" y="0" font-family="'Arial-ItalicMT'" font-size="10px">problem: </tspan><tspan x="0" y="12" font-family="'Arial-ItalicMT'" font-size="10px">customers hate docs</tspan></text>
<g>
	<g>
		<path d="M357.4,257.7c-11.4,12.3-30.8,11.2-46.2,12.2c-9.2,0.6-18.4,1.4-27.7,1.7c-7.7,0.2-15.9-0.4-21.4-6.5c-1.8-2-4.8,1-3,3
			c5.1,5.8,12.6,7.5,20,7.8c10.6,0.3,21.4-1,32-1.7c16.6-1.1,36.9-0.2,49.2-13.5C362.3,258.7,359.3,255.7,357.4,257.7L357.4,257.7z"
			/>
	</g>
</g>
<text transform="matrix(1 0 0 1 109.709 289.4615)"><tspan x="0" y="0" font-family="'Arial-ItalicMT'" font-size="10px">solution: </tspan><tspan x="0" y="12" font-family="'Arial-ItalicMT'" font-size="10px">a more technical candidate?</tspan></text>
<polygon points="320.3,288 320.3,285.6 315.8,285.6 318.3,281.3 316.9,281.3 314.3,285.6 306,285.6 306,288 312.9,288 311.5,290.4 
	306,290.4 306,292.9 310,292.9 307.2,297.7 308.7,297.7 311.5,292.9 320.3,292.9 320.3,290.4 312.9,290.4 314.3,288 "/>
</svg>
