<?xml version="1.0" encoding="utf-8"?>
<!-- Generator: Adobe Illustrator 23.0.3, SVG Export Plug-In . SVG Version: 6.00 Build 0)  -->
<svg version="1.1" id="Layer_1" xmlns="http://www.w3.org/2000/svg" xmlns:xlink="http://www.w3.org/1999/xlink" x="0px" y="0px"
	 viewBox="0 0 600 350" enable-background="new 0 0 600 350" xml:space="preserve">
<text transform="matrix(1 0 0 1 108.044 67.112)" font-family="'ArialMT'" font-size="25px">Agree or disagree? Let’s find out</text>
<text transform="matrix(1 0 0 1 145.4365 133.5479)"><tspan x="0" y="0" fill="#070808" font-family="'ArialMT'" font-size="20px">Survey (3 questions): </tspan><tspan x="0" y="24" fill="#3F5AA9" font-family="'Arial-BoldMT'" font-size="20px">idratherbewriting.site/tsurvey</tspan></text>
<text transform="matrix(1 0 0 1 144.3857 203.6044)"><tspan x="0" y="0" fill="#070808" font-family="'ArialMT'" font-size="20px">Ongoing results: </tspan><tspan x="0" y="24" fill="#3F5AA9" font-family="'Arial-BoldMT'" font-size="20px">idratherbewriting.site/tresults</tspan></text>
<path fill="#2D428B" d="M103.6,189h21l-21,18.7V189z M74.9,120.7h29.9v0.6h0c0,2.8-2.3,5.2-5.2,5.2H80.1c-2.8,0-5.2-2.3-5.2-5.2
	L74.9,120.7z M57.5,120.7h15.1v0.6c0,4.1,3.4,7.5,7.5,7.5h19.6c2,0,3.9-0.8,5.3-2.2c1.4-1.4,2.2-3.3,2.2-5.3v-0.6h15.1
	c1.3,0,2.3,1,2.3,2.3v63.6l-23.3,0v21.1H57.5c-0.6,0-1.2-0.2-1.6-0.7s-0.7-1-0.7-1.6v-82.4C55.2,121.8,56.2,120.7,57.5,120.7
	L57.5,120.7z M57.5,118.4c-2.6,0-4.7,2.1-4.7,4.7v82.4c0,2.6,2.1,4.7,4.7,4.7h64.8c1.2,0,2.4-0.5,3.3-1.4c0.9-0.9,1.4-2.1,1.4-3.3
	v-82.4c0-1.2-0.5-2.4-1.4-3.3c-0.9-0.9-2.1-1.4-3.3-1.4L57.5,118.4z"/>
<path fill="#2D428B" d="M88.9,144.5c1.3,0,2.3-1,2.3-2.3c0-1.3-1-2.3-2.3-2.3H64.8c-1.3,0-2.3,1-2.3,2.3c0,1.3,1,2.3,2.3,2.3H88.9z"
	/>
<path fill="#2D428B" d="M97.9,141.7l3.7,3.6h0c0.7,0.7,1.9,0.7,2.6,0l7.2-7.1v0c0.8-0.9,0.8-2.2,0-3c-0.8-0.8-2.2-0.9-3-0.1
	l-5.5,5.4l-2-1.9h0c-0.9-0.8-2.3-0.8-3.1,0.1C97,139.4,97.1,140.8,97.9,141.7L97.9,141.7z"/>
<path fill="#2D428B" d="M97.8,155.2l2.8,2.8l-2.8,2.8c-0.8,0.9-0.8,2.2,0,3.1c0.8,0.9,2.2,0.9,3.1,0l2.8-2.8l2.8,2.8v0
	c0.9,0.8,2.2,0.8,3,0c0.8-0.8,0.9-2.2,0.1-3l-2.8-2.8l2.8-2.8c0.9-0.9,0.9-2.2,0-3.1c-0.9-0.9-2.2-0.9-3.1,0l-2.8,2.8l-2.8-2.8v0
	c-0.9-0.8-2.2-0.8-3,0C97.1,153,97,154.4,97.8,155.2L97.8,155.2z"/>
<path fill="#2D428B" d="M88.9,161c1.3,0,2.3-1,2.3-2.3c0-1.3-1-2.3-2.3-2.3H64.8c-1.3,0-2.3,1-2.3,2.3c0,1.3,1,2.3,2.3,2.3H88.9z"/>
<path fill="#2D428B" d="M88.9,177.6c1.3,0,2.3-1,2.3-2.3c0-1.3-1-2.3-2.3-2.3H64.8c-1.3,0-2.3,1-2.3,2.3c0,1.3,1,2.3,2.3,2.3H88.9z"
	/>
<path fill="#2D428B" d="M97.9,174.9l3.7,3.6h0c0.7,0.7,1.9,0.7,2.6,0l7.2-7.1v0c0.8-0.9,0.8-2.2,0-3c-0.8-0.8-2.2-0.9-3-0.1
	l-5.5,5.4l-2-1.9h0c-0.9-0.8-2.3-0.8-3.1,0.1C97,172.7,97.1,174.1,97.9,174.9L97.9,174.9z"/>
</svg>
