<?xml version="1.0" encoding="utf-8"?>
<!-- Generator: Adobe Illustrator 23.0.3, SVG Export Plug-In . SVG Version: 6.00 Build 0)  -->
<svg version="1.1" id="Layer_1" xmlns="http://www.w3.org/2000/svg" xmlns:xlink="http://www.w3.org/1999/xlink" x="0px" y="0px"
	 viewBox="0 0 600 350" enable-background="new 0 0 600 350" xml:space="preserve">
<text transform="matrix(1 0 0 1 93.2684 100.9002)" font-family="'ArialMT'" font-size="33px">The End</text>
<text transform="matrix(1 0 0 1 93.2684 148.7938)"><tspan x="0" y="0" font-family="'ArialMT'" font-size="15px">Tom Johnson</tspan><tspan x="0" y="18" font-family="'ArialMT'" font-size="15px">idratherbewriting.com</tspan></text>
<g>
	<g>
		<path fill="#FBFBFB" d="M473.4,305.2c0-30.2,0-60.4,0-90.7c0-1.1,0.2-1.3,1.3-1.3c21.1,0,42.1,0,63.2,0c1.1,0,1.3,0.2,1.3,1.3
			c0,29.8,0,59.6,0,89.3c0,1.1-0.2,1.3-1.3,1.3C516.4,305.2,494.9,305.2,473.4,305.2z"/>
		<path fill="#F2F1F1" d="M508.7,215.5c0.3-0.7,0.9-0.6,1.5-0.7c6.6-0.2,13.2,0.3,19.7,0.4c0.9,0,1.7,0.2,2.6,0.5
			c2.5,0.7,3.5,2.3,3.7,5.1c0.3,4.5,0,9,0.4,13.5c0.4,5.7,0.2,11.4,0.2,17.1c0,4.7-0.2,9.3-0.4,14c-0.1,1.9,0,3.9-0.4,5.8
			c-0.7,3-2.3,4.3-5.3,4.5c-14,0.6-28.1,0.4-42.1,0.2c-2.8,0-5.7,0.1-8.6-0.5c-2.4-0.5-3.5-2-3.9-4.2c-0.2-1.6-0.3-3.2-0.4-4.9
			c-0.4-10.4-0.5-20.9-0.2-31.4c0.1-5.1-0.1-10.2,0.6-15.3c0.1-0.7-0.1-1.9,1.2-2c0.6,0.4,0.6,1,0.4,1.6c-0.4,1.5-0.2,3.1-0.2,4.6
			c0,1.5,0.1,3-0.1,4.5c-0.5,1.5,0.1,3.2-0.5,4.7c-0.9,1.8-0.4,3.7-0.5,5.5c0,5.7-0.2,11.5,0.1,17.2c0.3,4.7-0.1,9.5,0.5,14.2
			c0.4,2.8,1.4,3.9,4.2,4.3c3.5,0.5,7.1,0.5,10.6,0.5c9.5,0.2,19.1,0.2,28.6,0c3.6-0.1,7.3-0.1,10.9-0.6c1.9-0.3,3.1-1.4,3.5-3.3
			c0.5-2.3,0.5-4.7,0.5-7c0.1-8.4,0.8-16.8,0.3-25.2c-0.3-5.6,0-11.2-0.6-16.8c-0.2-1.5-0.1-3.2-1.4-4.4c-1.3-1.1-2.9-1.4-4.4-1.4
			c-6.2,0-12.3-0.6-18.5-0.4C510.1,216,509.3,216.1,508.7,215.5z"/>
		<path fill="#E7E6E6" d="M508.7,215.5c2.3,0,4.6,0,6.9,0c4.7,0.1,9.4,0.2,14,0.3c4.2,0.1,5.7,2,6,6.5c0.3,4.5,0,9,0.4,13.5
			c0.4,5.2,0.3,10.5,0.2,15.7c-0.1,4.2,0,8.5-0.3,12.7c-0.2,2.3,0,4.5-0.5,6.8c-0.4,2.1-1.7,3.5-3.9,3.7
			c-13.7,1.2-27.4,0.6-41.1,0.5c-3.1,0-6.3,0-9.4-0.5c-2.3-0.4-3.9-1.7-4.2-4.1c-0.4-3.4-0.2-6.9-0.4-10.4c-0.3-6-0.2-12-0.3-18
			c0-2.8,0-5.6,0-8.4c0-0.4,0.1-0.7,0.6-0.8c0.9,1.1,0.3,2.4,0.5,3.7c0,4.6,0,9.3,0,13.9c0.1,2.8-0.2,5.5,0.2,8.3
			c0.2,1.6,0.1,3.2,0.1,4.8c0.1,1.3-0.2,2.7,0.2,4c0.2,1,0.1,1.9,0.2,2.9c0.7,2.3,1.8,3,4.5,3.2c8.7,0.5,17.3,0.3,26,0.3
			c3.5,0,7.1-0.1,10.6,0c3.8,0.1,7.5-0.4,11.3-0.4c2.8,0,4.1-1.4,4.2-4.1c0.5-10.7,0.9-21.5,0.6-32.2c-0.2-5.5,0-11.1-0.6-16.6
			c-0.2-1.6-0.6-3.1-2.5-3.6c-0.2,0-0.4-0.1-0.6-0.1c-0.3,0-0.5-0.1-0.8-0.2c-0.9-0.3-1.8-0.1-2.7-0.3c-1.7-0.3-3.4-0.1-5.1-0.2
			c-1.2,0-2.4,0.1-3.6-0.1c-3.3-0.4-6.6-0.1-10-0.2c-0.7,0-1.6,0.2-2.1-0.5C507.6,215.4,508.2,215.6,508.7,215.5z"/>
		<path fill="#3C4390" d="M528.2,300.1c0-2.3,0.1-2.5,2.2-2.4c1.5,0.1,1.7,1.2,1.5,2.4c-0.1,0.7,0.5,2-0.5,2c-0.9,0-0.3-1.3-0.4-1.9
			c-0.1-0.7,0.2-1.6-0.9-1.6c-1,0-0.9,0.8-1.1,1.5c-0.1,0.7,0.5,2-0.5,2C527.7,302,528.5,300.6,528.2,300.1z"/>
		<path fill="#353E8E" d="M479.7,296.8c-1.5,0-2.5,0.9-2.5,2.4c0,1.6,1,2.5,2.6,2.4c0.3,0,0.8-0.5,0.9,0.2c0.1,0.5-0.5,0.5-0.8,0.6
			c-1.2,0.1-2.3,0-3.1-1.1c-0.8-1.1-0.8-2.4-0.2-3.6c0.6-1.2,1.7-1.6,3-1.5c0.4,0,1.1,0,1,0.5C480.7,297.3,480.1,296.7,479.7,296.8z
			"/>
		<path fill="#DEDCDC" d="M507.1,215.8c3.5,0,7,0.1,10.4,0.1c0.6,0,1.2-0.2,1.7,0.3c-0.7,0.7-1.6,0.4-2.4,0.5c-8.3,0-16.6,0-25,0
			c-0.8-0.1-1.7,0.2-2.4-0.5c2.6-0.6,5.2-0.2,7.7-0.3C500.5,215.7,503.8,215.8,507.1,215.8z"/>
		<path fill="#353E8E" d="M519.9,282.3c0,1.6-0.8,2.4-2.2,2.4c-1.2,0-2.1-0.9-2-2.2c0-1.3,1-2.3,2.3-2.2
			C519.3,280.3,519.9,281.1,519.9,282.3z"/>
		<path fill="#39418F" d="M503.9,299.8c0,0.2,0,0.4,0,0.5c-0.2,0.6,0.6,1.7-0.5,1.8c-2.9,0.2-3.1,0-3.1-2c0-0.7-0.5-2,0.4-2.1
			c0.9,0,0.3,1.2,0.4,1.9c0.1,0.7-0.1,1.6,0.9,1.6c0.9,0,0.9-0.9,1-1.6c0.1-0.7-0.5-1.9,0.5-1.9C504.3,298,503.6,299.3,503.9,299.8z
			"/>
		<path fill="#333C8D" d="M489.4,279c-0.8,0.7-2.1-0.3-2.4,0.9c-0.2,1.2,1.1,1.1,1.8,1.6c0.6,0.4,0.9,0.9,0.8,1.7
			c-0.1,0.7-0.5,1.2-1.2,1.4c-0.7,0.2-1.5,0.3-2.2-0.2c-0.1-0.1-0.1-0.3-0.1-0.4c0.1-0.2,0.3-0.3,0.5-0.2c0.4,0.1,0.7,0.2,1.1,0.2
			c0.5,0,0.8-0.3,1-0.7c0.2-0.5-0.2-0.8-0.6-1.1c-0.2-0.1-0.4-0.2-0.6-0.3c-1.1-0.4-1.8-1.1-1.3-2.4
			C486.6,278.5,487.9,278.3,489.4,279z"/>
		<path fill="#333D8D" d="M501.2,282.6c0.2,1.9,1.7,1,2.8,1.5c-1.1,0.7-2.1,0.7-3,0.1c-1.1-0.8-0.8-2-0.5-3.1
			c0.3-1.1,1.2-0.9,1.8-0.9c0.8-0.1,1.4,0.4,1.7,1.3c0.2,0.8,0.2,1.3-0.8,1.2C502.6,282.6,501.9,282.6,501.2,282.6z"/>
		<path fill="#454A95" d="M490.3,287.3c0.3,0,0.6,0,0.8,0c0.4,0.1,1.2-0.3,1.2,0.4c0,0.6-0.7,0.4-1,0.4c-0.8,0-0.7,0.6-0.7,1
			c0,1.2,0,2.4,0,3.6c0,0.3-0.1,0.7-0.5,0.6c-0.4,0-0.3-0.4-0.3-0.6c0-1,0-2,0-2.9c0-0.9,0.3-2-1.3-1.7c-0.2,0-0.4-0.1-0.5-0.3
			c0-0.3,0.2-0.5,0.5-0.5C489.1,287.3,489.7,287.3,490.3,287.3C490.3,287.3,490.3,287.3,490.3,287.3z"/>
		<path fill="#3A4190" d="M518.2,293.5c-1.1-0.7-3,1-3.4-1.1c-0.3-1.7,1.4-1.5,2.4-2c-0.3-1.4-1.5-0.3-2.1-0.8
			c1.7-1.1,2.9-0.7,3.1,1.1C518.3,291.6,518.2,292.4,518.2,293.5z"/>
		<path fill="#39418F" d="M515,298.4c2-1.2,3.1-0.6,3.2,1.3c0,0.2,0,0.4,0,0.7c0,0.6-0.1,1.2-0.1,1.8c-0.8-0.3-1.6,0.2-2.3,0.1
			c-0.6-0.1-0.9-0.6-1-1.1c-0.1-0.7,0.3-1.1,0.8-1.5c0.5-0.4,1.6,0.1,1.5-0.7C517,297.9,515.8,298.8,515,298.4z"/>
		<path fill="#353E8E" d="M495.4,293c-0.9,0.7-1.8,0.6-2.6,0.1c-1.1-0.7-0.9-1.8-0.7-2.9c0.2-1.1,1-1.1,1.6-1.2
			c0.7-0.1,1.3,0.2,1.7,0.7c0.3,0.4,0.4,0.9,0.3,1.4c-0.2,0.6-0.8,0.2-1.1,0.3c-0.6,0.2-1.6-0.4-1.6,0.4c0,0.9,0.9,1,1.8,1
			C494.9,292.7,495.2,292.6,495.4,293z"/>
		<path fill="#323C8D" d="M492.3,280.2c1.2,0,2.1,1,2.1,2.2c0,1.4-0.9,2.2-2.2,2.2c-1.4,0-2-0.9-2-2.2
			C490.1,281,491,280.1,492.3,280.2z"/>
		<path fill="#323C8D" d="M525.4,302.2c-1.2,0-2.1-0.9-2.1-2.2c0-1.4,0.9-2.3,2.1-2.3c1.2,0,2.1,0.9,2.1,2.2
			C527.6,301.2,526.7,302.2,525.4,302.2z"/>
		<path fill="#353E8E" d="M509.3,283.3c0.4-1.1,0.7-1.8,0.9-2.5c0.1-0.4,0.3-0.8,0.8-0.6c0.5,0.2,0.1,0.6,0,0.8
			c-0.5,1.4-1.1,2.8-1.7,4.2c-0.2,0.5-0.6,0.9-1.2,1.1c-0.1,0-0.3,0-0.4,0c-0.2-0.1-0.2-0.4,0-0.6c1.9-1.2,0.6-2.5,0.2-3.8
			c-0.1-0.4-0.3-0.7-0.4-1.1c-0.1-0.2-0.2-0.5,0.2-0.7c0.3-0.1,0.6,0,0.7,0.3C508.6,281.4,508.9,282.2,509.3,283.3z"/>
		<path fill="#333C8D" d="M483.1,302.3c-1.2,0-2-1-2-2.3c0-1.4,0.9-2.3,2.2-2.3c1.2,0,2,0.9,2,2.3
			C485.3,301.4,484.4,302.3,483.1,302.3z"/>
		<path fill="#323C8D" d="M487.1,298.2c0.2-0.4,0.6-0.6,0.9-0.5c0.9,0.4,1.7,0.3,2.7,0c0.6-0.2,1.2,0.3,1.3,0.9
			c0.2,1.1,0.3,2.3-0.1,3.6c-0.9-0.7-0.4-1.6-0.5-2.3c-0.1-0.7,0-1.5-0.9-1.5c-0.9,0-1,0.8-1,1.5c0,0.7,0.2,1.5-0.4,2.4
			c-0.6-1-0.3-1.8-0.4-2.6c-0.1-1-0.5-1.6-1.6-1.1C487,298.5,487,298.4,487.1,298.2z"/>
		<path fill="#3F4592" d="M495.7,299c-1.4-1-1.6-0.1-1.7,1c-0.1,0.7,0.5,2.1-0.4,2.1c-0.9,0-0.4-1.3-0.4-2.1c0-0.7-0.5-1.9,0.3-2
			c1-0.2,2.3-0.4,3.2,0.7l0,0c0,0.9,0,1.8,0,2.7c0,0.5-0.2,0.7-0.7,0.5C495.6,300.9,496.1,299.9,495.7,299z"/>
		<path fill="#3E4592" d="M507.5,290.2c-1.5-0.5-1.7-0.3-1.9,1.2c-0.1,0.7,0.4,1.9-0.5,1.9c-0.8,0-0.2-1.3-0.4-1.9
			c0-0.1,0-0.3,0-0.5c-0.4-1.5,0.5-1.7,1.7-1.8c1.4,0,2,0.6,2,1.9c0,0.7,0,1.3,0,2c0,0.5-0.4,0.5-0.7,0.3
			C507.4,292.3,507.8,291.2,507.5,290.2z"/>
		<path fill="#3A4290" d="M514.1,284.6c-0.4,0-0.4-0.3-0.4-0.6c-0.2-1.1,0.5-2.3-0.6-3.3c0.8-0.6,0.4-2.1,1.7-2.5
			c0.4-0.1,0.9-0.2,1,0.2c0.3,0.6-0.4,0.4-0.7,0.6c-0.7,0.4-1.1,0.9,0,1.2c0.3,0.1,0.5,0.5,0.3,0.5c-1.9,0.5-0.6,2-0.9,2.9
			C514.5,284.1,514.7,284.5,514.1,284.6z"/>
		<path fill="#3D4391" d="M521.1,302c-1.3,0.4-1.6,0.2-1.9-1c-0.2-0.9,0.5-2-0.5-2.7c0,0,0.5-1,0.9-1.3c0.5-0.4,0.6,0.1,0.7,0.5
			c0.1,0.5,0.7,0.1,0.9,0.5C519.8,299.3,519.8,300.8,521.1,302z"/>
		<path fill="#373F8F" d="M513.2,293.5c-1,0-1.7-0.4-2-1.2c-0.4-0.9-0.3-1.8,0.4-2.6c0.6-0.7,1.4-0.8,2.2-0.7c0.3,0,0.6,0.1,0.5,0.5
			c-0.1,0.4-0.4,0.3-0.6,0.2c-1.2-0.1-1.8,0.4-1.7,1.6c0,1.1,0.7,1.5,1.7,1.4c0.2,0,0.6-0.2,0.6,0.2
			C514.2,293.7,513.5,293.3,513.2,293.5z"/>
		<path fill="#363F8E" d="M499.5,289.5c-1.1,0.2-2.4,0.1-2.5,1.6c-0.1,1.7,1.2,1.7,2.6,1.8c-1.1,0.8-2.1,0.8-2.9,0
			c-0.8-0.9-0.9-2-0.1-3C497.4,288.8,498.4,288.7,499.5,289.5z"/>
		<path fill="#38408F" d="M498.1,284.3c-1.1,0.5-2.3,0.7-3-0.5c-0.7-1-0.5-2.2,0.3-3c0.8-0.7,1.7-0.9,3-0.1c-1.2,0.4-2.8,0-2.7,1.8
			C495.7,284.2,497.2,283.8,498.1,284.3z"/>
		<path fill="#373F8F" d="M513.2,302.3c-1.4,0-2.2-0.9-2.2-2.3c0.1-1.4,1.2-2.3,2.5-2.2c0.4,0,0.9,0,0.8,0.6
			c-0.1,0.6-0.5,0.1-0.8,0.1c-1,0-1.5,0.5-1.6,1.5c0,1,0.4,1.5,1.4,1.6c0.3,0,0.9-0.5,0.9,0.2C514.3,302.4,513.6,302.2,513.2,302.3z
			"/>
		<path fill="#474B95" d="M520,290.3c0,0.8,0,1.6,0,2.4c0,0.3,0,0.7-0.5,0.7c-0.3,0-0.4-0.3-0.4-0.6c0-1.7,0-3.5,0-5.2
			c0-0.3,0.1-0.6,0.4-0.6c0.5,0,0.5,0.3,0.5,0.7C520,288.6,520,289.4,520,290.3z"/>
		<path fill="#262335" d="M481.9,216.5c1.4,0,2.7-0.3,4.1-0.1c1.9-0.3,3.8-0.1,5.7-0.1c1.1,0.1,2.3-0.2,3.4,0.1
			c-0.3,1-1.2,0.8-1.9,0.8c-2.2,0.1-4.4,0.1-6.7,0c-1.6,0-3.2,0.3-4.9,0.3c-0.6,0-1.2,0-1.8-0.2c-0.2-0.1-0.3-0.2-0.4-0.4
			C480.2,216.2,481.2,217,481.9,216.5z"/>
		<path fill="#404692" d="M520.7,282.1c0-0.1,0-0.4,0-0.8c0-0.4-0.2-1,0.2-1c0.7,0.1,1.3-0.3,1.9-0.2c0.2,0,0.3,0.6,0,0.7
			c-1.5,0.4-1.1,1.7-1.2,2.7c0,0.4,0.3,1-0.5,1c-0.5,0-0.4-0.6-0.4-0.9C520.6,283.2,520.7,282.8,520.7,282.1z"/>
		<path fill="#444994" d="M496.7,298.6c0-1,0.7-1,1.3-0.9c0.7,0,1.2,0.6,1.2,1.3c0.1,0.9,0,1.7,0,2.6c0,0.3,0,0.6-0.4,0.6
			c-0.3,0-0.5-0.2-0.5-0.5c0-0.5-0.1-1,0-1.5C498.5,298.9,498,298.2,496.7,298.6C496.6,298.6,496.7,298.6,496.7,298.6z"/>
		<path fill="#404692" d="M501.2,289.4c1.6-0.9,2.7-0.4,2.7,1.4c0,0.9,0.3,2.5-0.3,2.4c-1.2-0.1-0.4-1.4-0.6-2.2
			c-0.2-0.9-0.5-1.4-1.5-1.2C501.4,289.7,501.2,289.7,501.2,289.4z"/>
		<path fill="#2E388B" d="M506.9,280.6c-1.4,0.8-1.5,2.6-0.1,3.7c-1.3,0.5-1.6,0.3-1.7-0.9c-0.1-0.9,0.5-1.9-0.5-2.7
			c-0.3-0.2,0.5-0.8,0.8-1.2c0.4-0.5,0.5,0.1,0.6,0.4C506.1,280.4,506.8,280.1,506.9,280.6z"/>
		<path fill="#3B4290" d="M507.4,298.7c-1.5-0.5-1.6,0.4-1.7,1.5c0,0.7,0.5,1.9-0.5,1.9c-0.9,0-0.2-1.3-0.4-1.9c-0.1-0.3,0-0.7,0-1
			c-0.2-1.2,0.3-1.4,1.3-1.2C506.6,298.2,507.4,297.6,507.4,298.7z"/>
		<path fill="#2F3A8C" d="M501.2,289.4c0.1,0.1,0.3,0.2,0.4,0.3c-0.9,0.8-0.5,1.9-0.6,2.9c0,0.3,0,0.6-0.3,0.7
			c-0.5,0.1-0.5-0.3-0.5-0.7c0-1.6,0-3.3,0-4.9c0-0.3-0.1-0.7,0.4-0.7c0.4,0,0.3,0.5,0.4,0.8C501,288.4,500.8,289,501.2,289.4z"/>
		<path fill="#303A8C" d="M487.1,298.2c0,0.2,0,0.3,0.1,0.5c-0.5,0.9-0.2,1.9-0.3,2.9c0,0.3,0,0.6-0.4,0.6c-0.4,0-0.5-0.3-0.5-0.5
			c0-1,0-2.1,0-3.1C486,297.4,486.7,298.1,487.1,298.2z"/>
		<path fill="#2C378A" d="M510.4,299.9c-0.4,0.8,0.4,2.1-0.6,2.1c-0.8,0-0.4-1.3-0.3-2c0-0.7-0.5-2,0.4-2
			C510.8,298,510,299.3,510.4,299.9z"/>
		<path fill="#484C96" d="M499.7,282.6c-0.4,0.6,0.5,1.9-0.5,1.9c-0.9,0-0.4-1.3-0.4-1.9c0-0.7-0.4-2.2,0.4-2.1
			C500.2,280.5,499.3,281.8,499.7,282.6z"/>
		<path fill="#3A4190" d="M509.3,291.1c0.4-0.6-0.5-1.9,0.5-1.9c1,0,0.5,1.2,0.5,1.9c0,0.8,0.5,2.2-0.4,2.2
			C508.8,293.3,509.7,291.9,509.3,291.1z"/>
		<path fill="#3A4290" d="M507.4,298.7c-0.2-0.6-1-0.2-1.3-0.7c1.6-0.5,2.3-0.1,2.3,1.4c0,0.8,0,1.5,0,2.3c0,0.1-0.1,0.3-0.3,0.7
			C507.3,301.2,508.1,299.8,507.4,298.7z"/>
		<path fill="#302D30" d="M479.6,216.9c0,0.1,0,0.2,0,0.3c-0.3,0.5-1.1,0.4-1.3,1c-0.3,0.7-0.1,1.5-0.2,2.3c0,0.3-0.1,0.6-0.1,1
			c-0.3,0.7-0.2,1.4-0.3,2.2c0,0.2-0.1,0.3-0.2,0.5c-0.1,0.1-0.3,0.2-0.4,0.1c-0.2-2.1,0.1-4.2,0.2-6.2c0.1-0.5-0.1-1.3,0.9-1
			C478.6,216.7,479.1,216.5,479.6,216.9z"/>
		<path fill="#333D8D" d="M522.1,302.2c-0.5-1.3-0.3-2.6-0.3-3.8c0-0.2,0.1-0.4,0.4-0.4c0.3,0,0.4,0.2,0.4,0.4
			C522.5,299.6,522.8,300.9,522.1,302.2z"/>
		<path fill="#353231" d="M491.8,216.4c-1.9,0-3.9,0-5.8,0c1.1-0.5,2.3-0.1,3.5-0.3c0.8,0,1.5,0.1,2.3,0.1
			C491.7,216.3,491.8,216.4,491.8,216.4z"/>
		<path fill="#6665A4" d="M522.7,296.7c-0.1,0.3-0.2,0.5-0.5,0.5c-0.4,0-0.6-0.3-0.5-0.6c0-0.3,0.2-0.5,0.5-0.5
			C522.5,296.1,522.7,296.4,522.7,296.7z"/>
		<path fill="#353231" d="M479.6,216.9c-0.5,0-1,0-1.5-0.1c1.2-0.4,2.5-0.3,3.8-0.3C481.2,217.1,480.4,216.7,479.6,216.9z"/>
		<path fill="#424793" d="M507.5,290.2c0.5,1,0.1,2.1,0.3,3.2C507.3,292.3,507.7,291.2,507.5,290.2z"/>
		<path fill="#494D96" d="M509.8,288.4c-0.3-0.1-0.5-0.2-0.5-0.6c0-0.3,0.2-0.5,0.5-0.5c0.3,0,0.5,0.2,0.5,0.5
			C510.4,288.2,510.1,288.4,509.8,288.4z"/>
		<path fill="#434894" d="M495.7,299c0.6,0.9,0.2,1.9,0.3,2.9C495.5,300.9,495.9,299.9,495.7,299z"/>
		<path fill="#3E4491" d="M509.9,296.1c0.3,0.1,0.5,0.2,0.5,0.5c0,0.3-0.2,0.5-0.5,0.5c-0.3,0-0.5-0.1-0.5-0.5
			C509.4,296.3,509.6,296.2,509.9,296.1z"/>
		<path fill="#464B95" d="M499.7,279.2c-0.1,0.3-0.2,0.5-0.5,0.4c-0.3,0-0.5-0.3-0.4-0.5c0-0.3,0.3-0.4,0.6-0.4
			C499.6,278.7,499.7,278.9,499.7,279.2z"/>
		<path fill="#11102B" d="M477,224c0.1,0,0.2,0,0.3,0c0.5,0.5,0.4,1.1,0.5,1.7c0,1.4,0.1,2.7,0,4.1c-0.1,0.8,0,1.5,0,2.3
			c0,0.3,0,0.6,0,0.8c0,0.6,0,1.3,0,1.9c0,0.5,0,1.1,0,1.6c0,0.5,0,1.1,0,1.6c0,0.5,0,0.9,0,1.4c0,0.4,0,0.7,0,1.1
			c0,0.9,0,1.9,0,2.8c0,0.7,0,1.5,0,2.2c0,0.4,0,0.7,0,1.1c0,0.4,0,0.9,0,1.3c0,0.5,0,1,0,1.6c0,0.3,0,0.7,0,1c0,0.4,0,0.9-0.1,1.3
			c-0.1,0.2-0.2,0.3-0.3,0.4c-0.2,0-0.4,0-0.4-0.3c0-0.5,0-1,0-1.5c0-4.6,0-9.2,0-13.8c0.1-2.8-0.1-5.5,0.1-8.3
			C477,227,477,225.5,477,224z"/>
		<path fill="#383534" d="M477,228.5c0,2.8,0,5.5,0,8.3c-0.1,0.1-0.2,0.2-0.3,0c0-1.2-0.1-2.4-0.1-3.6
			C476.9,231.6,476.4,230,477,228.5z"/>
		<path fill="#DEDCDC" d="M531.6,216.9c2.5,0.6,3,1.3,3.3,4.5c0.5,4.1,0.1,8.2,0.4,12.2c0.5,6.5,0.3,13.1,0.2,19.6
			c-0.1,4.3-0.2,8.7-0.3,13.1c0,1.4-0.2,2.8-0.3,4.2c-0.2,2.6-1.8,3.9-4.7,4c-13.9,0.6-27.9,0.3-41.9,0.3c-2.5,0-5.1,0-7.6-0.5
			c-2-0.3-3.1-1.4-3.4-3.4c0.2-0.1,0.3-0.1,0.5-0.1c0.3,0.1,0.5,0.3,0.6,0.5c0.9,1.5,2.1,2,3.8,2c12.9,0.6,25.8,0.2,38.7,0.3
			c3,0,6-0.2,9-0.3c2.8-0.1,3.8-1.2,3.9-4.1c0.2-1.7,0.3-3.5,0.3-5.2c0-8.5,0.6-17,0.3-25.5c-0.2-5.3-0.3-10.6-0.5-15.8
			c-0.1-2.1-0.6-3.8-2.4-5C531.4,217.4,531.4,217.1,531.6,216.9z"/>
		<path fill="#121222" d="M477.6,270.9c-0.1,0-0.2,0-0.2,0c0-0.9,0-1.9,0-2.8c-0.3-1.3,0.1-2.7-0.2-4c0-1.6-0.1-3.2-0.1-4.8
			c-0.2-2.3-0.3-4.6,0-7c0.1,0,0.2,0,0.2,0c0.5,0.3,0.5,0.8,0.5,1.2c0,0.6,0,1.2,0,1.9c0,0.2,0,0.4,0,0.5c0,0.4,0,0.9,0,1.3
			c0,0.6,0,1.2,0,1.8c0,0.2,0,0.4,0,0.5c-0.1,1,0.3,1.9,0.3,2.9c0,0.5,0,1.1,0,1.6c0.1,0.9,0,1.8,0,2.7c0,0.4,0,0.9,0,1.3
			c0,0.6,0.1,1.1,0.4,1.7c0.8,0.6,1.8,0.2,2.7,0.4c0.5,0.1,1.4-0.2,1.3,0.9c-0.6,0.4-1.3,0.3-2,0.3
			C479.5,271.3,478.5,271.3,477.6,270.9z"/>
		<path fill="#201D2F" d="M531.6,216.9c0,0.2,0.1,0.4,0.1,0.6c0.1,0.2,0.2,0.5,0.3,0.7c0.1,0.4,0.1,0.9,0.1,1.3c0,0.7,0,1.4,0.2,2
			c0.1,0.6,0.1,1.2,0,1.8c-0.3,0.8-0.2,1.5-0.2,2.3c0,0.6,0.1,1.3-0.2,1.8c-0.1,0.2-0.3,0.2-0.4,0.2c-0.2-0.1-0.3-0.2-0.4-0.4
			c-0.2-0.4-0.2-0.9-0.2-1.3c0-0.3,0-0.7,0-1.1c0-0.5,0-1,0-1.6c0-0.4,0-0.9,0-1.3c0-0.9,0.1-1.9-0.1-2.8c0-0.2-0.1-0.3-0.1-0.5
			c-0.1-0.5-0.1-1,0.1-1.5c0.1-0.2,0.3-0.4,0.6-0.4C531.4,216.9,531.5,216.9,531.6,216.9z"/>
		<path fill="#0A0724" d="M476.7,236.8c0.1,0,0.2,0,0.3,0c0,4.7,0,9.4,0,14.1c-0.1,0.1-0.2,0.1-0.3,0
			C476.7,246.2,476.7,241.5,476.7,236.8z"/>
		<path fill="#292629" d="M476.7,250.9c0.1,0,0.2,0,0.3,0c0,0.4,0,0.9,0,1.3c0,2.3,0,4.6,0,7C476.5,256.4,476.7,253.6,476.7,250.9z"
			/>
		<path fill="#353231" d="M516.9,216.2c0.8,0,1.5-0.1,2.3-0.1c1.2,0,2.4,0,3.5,0.1c0.1,0.2,0.1,0.4-0.1,0.5c-1.8,0.4-3.7,0.4-5.6,0
			C516.9,216.6,516.9,216.4,516.9,216.2z"/>
		<path fill="#DEDCDC" d="M522.9,216.5c-0.1-0.1-0.1-0.2-0.2-0.3c1.8,0.1,3.5-0.3,5.3,0.3c-0.3,0.4-0.7,0.4-1.1,0.5
			C525.6,216.8,524.2,217.4,522.9,216.5z"/>
		<path fill="#2A2828" d="M477.1,264c0.6,1.3,0.2,2.7,0.2,4C476.9,266.7,477,265.3,477.1,264z"/>
		<path fill="#353231" d="M527.1,216.5c0.3,0,0.7-0.1,1-0.1c0.9,0.3,1.8-0.2,2.6,0.4c-0.3,0.4-0.8,0.4-1.3,0.4
			c-0.6,0-1.3,0.1-1.9-0.1C527.3,217,527,216.9,527.1,216.5z"/>
		<path fill="#201E21" d="M529.4,216.9c0.4,0,0.9,0,1.3-0.1c0.2,0,0.4,0.1,0.6,0.1c-0.1,0.1-0.2,0.2-0.4,0.3
			c-0.5,0.4-0.9,0.4-1.5,0.1C529.3,217.2,529.3,217.1,529.4,216.9z"/>
		<path fill="#0C0A0A" d="M516.9,216.2c0,0.1,0,0.1,0,0.2c-0.9,0.9-2,0.3-3,0.6c-5.5,0-11,0-16.6,0c-0.8,0-1.6,0.1-2.3-0.5
			c-1.1,0-2.2-0.1-3.2-0.1c0-0.1,0-0.1,0-0.2C500.1,216,508.5,216,516.9,216.2z"/>
		<path fill="#F5F4F7" d="M519,282.4c-0.1,0.8-0.2,1.5-1.2,1.5c-1,0-1.2-0.7-1.2-1.6c0-0.8,0.3-1.4,1.2-1.5
			C518.8,280.9,519,281.7,519,282.4z"/>
		<path fill="#BDBAD7" d="M501.2,281.9c0.4-1,0.9-1.3,1.7-1c0.3,0.1,0.6,0.5,0.4,0.8C502.7,282.3,502,281.9,501.2,281.9z"/>
		<path fill="#E4E3EE" d="M517.3,291.8c-0.1,0.6-0.3,1-1,1c-0.4,0-0.6-0.2-0.7-0.6c0-0.7,0.5-0.8,1.1-1
			C517.1,291.1,517.3,291.3,517.3,291.8z"/>
		<path fill="#E7E5EF" d="M515.6,301c0.1-0.7,0.6-0.9,1.1-1c0.5-0.1,0.5,0.2,0.5,0.6c0,0.6-0.3,0.9-0.8,1
			C516,301.6,515.8,301.4,515.6,301z"/>
		<path fill="#BFBCD8" d="M492.8,290.5c0.2-0.5,0.5-0.9,1.1-0.9c0.5,0,1,0.3,1,0.9c0,0.7-0.6,0.4-1,0.4
			C493.4,290.8,492.9,291.1,492.8,290.5z"/>
		<path fill="#F0EFF5" d="M493.4,282.6c-0.1,0.7-0.3,1.4-1.3,1.4c-0.9,0-1.1-0.8-1.1-1.5c0-0.8,0.2-1.6,1.2-1.6
			C493.1,280.9,493.4,281.6,493.4,282.6z"/>
		<path fill="#E9E7F0" d="M525.5,298.4c0.9,0.2,1.3,0.9,1.2,1.7c-0.1,0.8-0.4,1.6-1.4,1.5c-0.9-0.1-1.2-0.9-1.1-1.7
			C524.3,299.1,524.6,298.5,525.5,298.4z"/>
		<path fill="#EBEAF1" d="M484.5,300c-0.2,0.7-0.3,1.6-1.3,1.6c-1,0-1.2-0.8-1.2-1.6c0-0.8,0.4-1.5,1.2-1.5
			C484.1,298.4,484.3,299.2,484.5,300z"/>
		<path fill="#33449B" d="M495,216.5c6.3,0,12.7,0,19,0c3.1,0.3,6.3,0.1,9.4,0.1c1.3,0,2.6,0.1,3.9,0.3c0.7,0.1,1.4-0.1,2.1,0.1
			c0.5,0,1.1,0,1.6,0.1c0.2,0.5,0.2,1.1,0.1,1.6c-0.7,0.9-1.8,0.7-2.7,0.7c-9.5-0.3-18.9,0-28.4,0c-5.1,0-10.2-0.2-15.3-0.1
			c-1.8,0-3.6,0-5.4,0c-1.3,0-1.6-0.5-1.3-1.7c0.3-1,1.2-0.3,1.7-0.6c5-0.1,10-0.3,14.9-0.4C494.7,216.7,494.9,216.6,495,216.5z"/>
		<path fill="#31429B" d="M477.9,217.7c-0.2,1.1,0.4,1.3,1.4,1.3c7.5,0,15.1,0,22.6,0c8.3,0,16.6,0,24.9,0c1.4,0,2.8,0.1,4.2-0.2
			c0.1,0.1,0.1,0.2,0,0.2c0.2,1.8,0.1,1.9-1.6,1.9c-12.4-0.2-24.7-0.1-37.1,0c-4,0-8.1,0-12.1,0.1c-0.9,0-1.8,0.1-2.5-0.5
			C477.7,219.5,477.5,218.6,477.9,217.7z"/>
		<path fill="#2F409A" d="M477.7,220.4c4,0,8,0,12.1,0c9.7,0,19.4-0.2,29.1,0c3.7,0,7.4-0.2,11.1,0.1c1.4,0.1,0.9-0.9,1-1.5
			c0.4,1,0.2,2,0.2,3c-1.9,0.1-3.7-0.1-5.5-0.1c-13,0-26,0-38.9,0c-3,0-6-0.2-9,0.3c-0.4-0.2-0.3-0.5-0.2-0.8
			C477.7,221.1,477.7,220.7,477.7,220.4z"/>
		<path fill="#131134" d="M477.6,221.4c0,0.2,0.1,0.4,0.1,0.7c0.2,0.3,0.3,0.6,0.3,0.9c0,0.3-0.1,0.5-0.2,0.7
			c-0.1,0.1-0.3,0.1-0.4,0C477.4,222.9,477.1,222.1,477.6,221.4z"/>
		<path fill="#26233D" d="M477.3,223.7c0.1,0,0.1,0,0.2,0c0.5,0.1,0.5,0.5,0.5,0.8c0,0.4,0,0.7-0.2,1c-0.1,0.2-0.3,0.2-0.5,0.2
			c0-0.6-0.1-1.2-0.1-1.7C477.3,223.9,477.3,223.8,477.3,223.7z"/>
		<path fill="#2A2B76" d="M477.3,243.3c0-1,0-2,0-2.9c0.6-0.5,1.3-0.5,2-0.5c16.6,0,33.3,0,49.9,0c0.9,0,1.8,0,2.5,0.7
			c0.6,1.2,0.6,2.3,0,3.5c-17.1-0.4-34.3-0.1-51.4-0.2C479.3,243.9,478.2,244.1,477.3,243.3z"/>
		<path fill="#2B3491" d="M477.4,225.7c0.1-0.1,0.2-0.1,0.2-0.1c0.3,0.2,0.4,0.4,0.5,0.7c0.7,0.7,1.5,0.5,2.3,0.5
			c16,0,31.9,0,47.9,0c1,0,2.1-0.2,3,0.5c0.1,0.1,0.1,0.2,0,0.2c0.9,2.3,0.4,3.2-2,3.2c-16.6,0-33.2,0-49.8,0
			c-0.8,0-1.7,0.1-2.1-0.8C477.4,228.5,477.4,227.1,477.4,225.7z"/>
		<path fill="#282970" d="M477.3,243.3c17.4,0,34.8,0,52.2,0c0.7,0,1.6-0.2,2,0.6c0.5,0.5,0.4,1,0.1,1.5c-0.6,0.6-1.4,0.6-2.1,0.6
			c-16.8,0-33.6,0-50.4,0c-0.7,0-1.3,0-1.8-0.5C477.3,244.9,477.3,244.1,477.3,243.3z"/>
		<path fill="#2C328C" d="M477.4,229.9c0.6,0.4,1.4,0.3,2.1,0.3c16.3,0,32.7,0,49,0c2.8,0,2.8,0,2.9-2.7c0.1,0.1,0.2,0.1,0.2,0.2
			c0.8,1.5,0.7,3.1,0.1,4.6c-0.9,0.4-1.9,0.4-2.9,0.4c-16.4,0-32.8,0-49.2,0c-0.8,0-1.5,0.1-2.2-0.5
			C477.4,231.4,477.4,230.7,477.4,229.9z"/>
		<path fill="#2B2F7F" d="M477.3,239.4c0-0.4,0-0.9,0-1.3c0.2-0.7,0.7-1.1,1.4-1.1c0.3,0,0.7,0,1,0c16.4,0,32.9,0,49.3,0
			c1.1,0,2.1,0.1,2.7,1.1c0.3,0.6,0.4,1.3-0.2,1.8c-0.8,0.2-1.6,0.1-2.4,0.1c-16.4,0-32.9,0-49.3,0
			C479,239.9,478.1,240.1,477.3,239.4z"/>
		<path fill="#2C2F84" d="M531.6,238.1c-0.5-0.4-1-0.7-1.8-0.7c-16.9,0-33.7,0-50.6,0c-0.7,0-1.4,0-1.9,0.7c0-0.5,0-1.1,0-1.6
			c0.4-0.8,1-1.1,1.8-1.1c0.4,0,0.9,0,1.3,0c16.3,0,32.5,0,48.8,0c0.8,0,1.6-0.1,2.4,0.3C532.2,236.5,532.3,237.3,531.6,238.1z"/>
		<path fill="#2B3188" d="M477.4,234.8c0-0.7,0-1.3,0-2c0.6-0.3,1.2-0.2,1.8-0.2c16.7,0,33.5,0,50.2,0c0.8,0,1.5-0.1,2.2,0.3
			c0.5,0.5,0.5,1,0.2,1.5c-0.6,0.8-1.5,0.8-2.4,0.8c-16.6,0-33.2,0-49.8,0C478.8,235.3,478,235.3,477.4,234.8z"/>
		<path fill="#26266B" d="M477.3,247.9c0-0.4,0-0.9,0-1.3c0.6-0.6,1.3-0.5,2-0.5c16.7,0,33.4,0,50.1,0c0.8,0,1.7,0,2.3,0.7
			c0.3,0.5,0.3,1.1-0.1,1.6c-0.7,0.5-1.6,0.4-2.4,0.4c-16.4,0-32.9,0-49.3,0C479,248.8,478,249,477.3,247.9z"/>
		<path fill="#252468" d="M477.3,247.9c0.6,0.4,1.4,0.3,2.1,0.3c17.4,0,34.8,0,52.2,0c0.4,0.4,0.3,0.8,0.1,1.2
			c-0.6,0.6-1.4,0.6-2.1,0.6c-16.8,0-33.6,0-50.4,0c-0.7,0-1.3,0-1.8-0.5C477.4,249,477.3,248.5,477.3,247.9z"/>
		<path fill="#242363" d="M477.3,251.8c0-0.4,0-0.9,0-1.3c0.5-0.5,1.1-0.5,1.7-0.5c17.5,0,35,0,52.5,0c0.6,0.3,0.5,0.8,0.4,1.4
			c-0.3,0.6-0.9,0.8-1.5,0.8c-1.4,0-2.8,0.3-4.2,0.4c-2.3-1.7-4.9-1.4-7.4-1.2c-2.1,0.2-4.1,1-5.8,2.3c-0.5,0.4-1,0.8-1.8,0.4
			c-0.8-0.6-0.2-2-1.3-2.3c-1.2-0.3-2.5-0.2-3.7-0.1c-3.4,0.4-6.7,0.3-10.1,0.1c-2.3-0.1-2.3-0.3-3.1,1.9c-0.1,0.2-0.2,0.4-0.4,0.5
			c-0.1,0-0.2,0-0.3-0.1c-0.6-0.7-0.4-2-1.6-2.3c-1.7-0.4-3.5-0.5-5.2,0c-0.6,0.2-1.2,0.4-1.9,0.4c-1.5,0.1-3.1,0.1-4.6,0
			C478.4,252.3,477.8,252.3,477.3,251.8z"/>
		<path fill="#2C3086" d="M477.4,234.8c0.9-0.3,1.8,0,2.7,0c16.2,0,32.5,0,48.7,0c0.9,0,1.8,0,2.7-0.3c0.5,0.4,0.4,0.9,0,1.3
			c-17.3,0-34.6,0-51.8,0c-0.9,0-1.7,0-2.4,0.7C477.4,235.9,477.4,235.4,477.4,234.8z"/>
		<path fill="#27286E" d="M531.6,246.9c-0.7-0.5-1.5-0.3-2.2-0.3c-17.3,0-34.7,0-52,0c0-0.3,0-0.7,0-1c17.4,0,34.8,0,52.2,0
			c0.7,0,1.4,0.1,2.1-0.3C532.1,245.8,532.1,246.4,531.6,246.9z"/>
		<path fill="#2B2D7B" d="M477.3,239.4c17.3,0,34.7,0,52,0c0.8,0,1.5-0.2,2.2,0.3c0.1,0.1,0.2,0.2,0.3,0.4c0,0.2,0,0.5-0.3,0.6
			c-0.8-0.3-1.7-0.3-2.6-0.3c-17.2,0-34.5,0-51.7,0C477.3,240.1,477.3,239.7,477.3,239.4z"/>
		<path fill="#242365" d="M531.6,250.2c-0.6,0.4-1.4,0.3-2.1,0.3c-17.4,0-34.8,0-52.2,0c0-0.3,0-0.7,0-1c17.4,0,34.8,0,52.2,0
			c0.7,0,1.4,0.1,2.1-0.3C531.9,249.6,531.9,249.9,531.6,250.2z"/>
		<path fill="#2C328A" d="M531.6,233.2c-17.4,0-34.8,0-52.1,0c-0.7,0-1.4,0.1-2.1-0.3c0-0.2,0-0.4,0-0.7c17.2,0,34.4,0,51.6,0
			c0.9,0,1.7-0.3,2.6,0C531.9,232.5,531.9,232.9,531.6,233.2z"/>
		<path fill="#232260" d="M477.3,251.8c2.2,0,4.4,0,6.6,0c0.1,1.3-0.9,1.9-1.6,2.7c-0.9-0.6-1.8-0.8-2.9-0.7c-0.7,0.1-1.4-0.1-2-0.4
			c0-0.4-0.1-0.9-0.1-1.3C477.3,252.1,477.3,252,477.3,251.8z"/>
		<path fill="#CFCCCC" d="M534.3,269.2c0,3.1-1.2,4.4-4.2,4.6c-13.3,0.6-26.6,0.2-39.9,0.3c-2.9,0-5.8-0.2-8.8-0.3
			c-1.7-0.1-2.8-1.1-3.4-2.6c0.4-0.2,0.7-0.2,1.1,0c0.9,1,2,1.5,3.4,1.5c12.8,0.6,25.7,0.2,38.5,0.3c2.9,0,5.9-0.5,8.8-0.4
			c1.4,0,2.6-0.5,3.2-1.9C533.7,270.4,533.3,269.3,534.3,269.2z"/>
		<path fill="#CCCACA" d="M534.3,269.2c-0.6,0.4,0,1.3-0.7,1.6c-0.9-0.6-0.3-1.5-0.4-2.2c0-0.6,0.1-1.2,0.1-1.8
			c0-0.2,0.1-0.3,0.1-0.5c0-10.7,0.8-21.3,0.2-32c-0.2-3-0.1-6.1-0.1-9.1c-0.1-2.5-0.1-5-1.8-7.1c0-0.2,0-0.4,0-0.7
			c1.7,0.9,2.5,2.1,2.6,4.1c0.5,10.7,0.9,21.5,0.5,32.2C534.6,258.9,535.1,264.1,534.3,269.2z"/>
		<path fill="#2A2828" d="M479,271.2c-0.3,0-0.7,0-1,0c-0.1-0.1-0.3-0.2-0.4-0.3c1,0,2,0,3,0c0.1,0.1,0.1,0.2,0.1,0.3
			c0,0.1,0,0.1-0.1,0.1c-0.1,0.1-0.3,0.2-0.4,0.2c-0.2,0.1-0.4,0.1-0.7,0C479.3,271.5,479.1,271.3,479,271.2z"/>
		<path fill="#0F1137" d="M478,269.8c-0.3-0.5-0.4-1.1-0.3-1.6c0.6-0.5,1.3-0.4,2-0.4c2.7-0.2,5.4,0.1,8.1-0.1
			c3.1,0.1,6.3,0,9.4,0.2c0.8,0.1,0.1-0.2,0.1-0.3c-0.2-0.5,0.1-0.7,0.4-0.9c0.7-0.3,1.5-0.3,2.2,0c0.8,0.7,0,0.8-0.2,1.1
			c0.8-0.2,1.9,0.1,2.9,0.1c4.3,0.2,8.5-0.1,12.8,0c1.1,0,0.3-1.2,1.2-1.2c3.2,0.4,6.3-0.1,9.4-0.4c0.4,0.1,0.7,0.3,0.7,0.7
			c0,0.4-0.4,0.6-0.7,0.5c-1.3-0.1-2.5,0.8-3.5,0.4c-0.5,0-0.3,0.3-0.4,0.1c0-0.1,0-0.1,0.1-0.1c2.4,0.2,4.9-0.3,7.3-0.1
			c0.6,0.1,0.9-0.3,1.1-0.8c0.2-0.3,0.4-0.7,0.8-0.2c0.4,1,0,2-0.3,3c-0.5,0.6-1.3,0.5-2,0.5c-8.3-0.1-16.5,0-24.8,0
			c-6.4-0.1-12.8,0-19.2,0.1c-2,0-4-0.2-6-0.1C478.8,270.2,478.3,270.2,478,269.8z"/>
		<path fill="#0F1133" d="M478,269.8c17.7,0,35.3,0,53,0c0.3,1.1-0.5,1.1-1.1,1.1c-2,0-4,0.3-6,0.3c-8.3,0.1-16.6,0.6-24.8,0.3
			c-4.7-0.1-9.5-0.4-14.2-0.3c-0.7,0-1.5,0-2.2-0.4c-1-0.6-2.1-0.2-3.2-0.3C478.9,270.4,478.1,270.8,478,269.8z"/>
		<path fill="#141448" d="M477.7,264c0-0.5,0-1.1,0-1.6c0.2-0.6,0.5-0.8,1.2-0.8c2.8,0.2,5.7-0.2,8.5,0.3c0.8,0.1,1.1-0.9,1.9-0.8
			c1.7,0.7,2.2,1.6,1.8,3.2c-0.5,0.3-0.9,0.4-1.5,0.3c-2-0.4-4-0.4-6,0.1c-0.2,0-0.3-0.1-0.4-0.2c-0.5-1.1-1-0.6-1.5,0
			C480.4,264.1,478.9,264.8,477.7,264z"/>
		<path fill="#0C0B19" d="M482.6,270.8c3.3,0,6.5-0.1,9.8,0.1c6.8,0.3,13.7,0.4,20.5,0.1c4.3-0.2,8.7-0.2,13-0.3
			c1.3,0,2.6-0.1,3.9-0.2c0.5,0,1.2,0.2,1.3-0.7c0-1.1,0.5-2.1,0.3-3.3c-0.2-0.2-0.3-0.4-0.4-0.7c-0.1-0.6-0.1-1.3-0.1-1.9
			c0-0.5,0.1-1,0.4-1.3c0.2-0.1,0.4,0,0.5,0.2c0.5,1.2,0.2,2.5,0.3,3.8c-0.1,1.5,0.3,3-0.7,4.3c-1,0.7-2.1,0.2-3.1,0.6
			c-1.3,0.2-2.6,0.1-3.9,0.1c-1.8,0.1-3.6-0.2-5.3,0.2c-2.6,0.3-5.2,0-7.8,0.1c-4.7,0-9.3,0-14,0c-2.6-0.1-5.2,0.2-7.8-0.1
			c-1.8-0.5-3.6-0.2-5.4-0.2c-1.2-0.1-2.5,0.4-3.6-0.5c0-0.1,0-0.2,0-0.3C481.3,270.8,481.9,270.8,482.6,270.8z"/>
		<path fill="#17164C" d="M489.2,261.3c-0.8,0.7-1.4,0.9-2.6,0.8c-2.7-0.4-5.5-0.2-8.2-0.2c-0.2,0-0.4,0.3-0.6,0.4
			c-0.1-1-0.5-1.9-0.3-2.9c3.1,0.8,6.2,0.8,9.4,0.3C487.8,259.9,488.9,260,489.2,261.3z"/>
		<path fill="#0F123C" d="M487.8,267.9c-0.9,0.4-1.8,0.3-2.8,0.3c-2.4-0.1-4.9,0-7.3,0c0-0.4,0-0.9,0-1.3c0.7-1.5,2.7-2,3.9-0.8
			c0.5,0.5,0.9,0.4,1.4,0.3c1.9,0.5,3.8,0.2,5.7,0.6C489.4,268.4,488.2,267.7,487.8,267.9z"/>
		<path fill="#1A1750" d="M486.9,260c-0.9,0.4-1.8,0.6-2.7,0.5c-1.7-0.2-3.4-0.1-5.1-0.1c-0.8,0-1.3-0.3-1.6-1c0-0.1,0-0.2,0-0.4
			c1.9-0.9,3.9-0.3,5.9-0.5c0.5,0,1,0.1,1.5,0.1C485.6,258.9,486.6,258.9,486.9,260z"/>
		<path fill="#111242" d="M482.9,266.7c-0.5,0.8-1,0.5-1.4,0c-1.2-1.2-2.6-1.1-3.8,0.2c0-1,0-2,0-2.9c1.4,0.2,2.9-0.3,4.3,0.3
			C483.1,264.8,482.6,265.9,482.9,266.7z"/>
		<path fill="#1C1953" d="M484.9,259c-2.5,0-5,0-7.5,0c0-0.6,0-1.3,0-1.9c2-0.3,4-0.4,6,0.5c0.6,0.2,1.1,0.4,1.5,0.9
			C485,258.7,485,258.8,484.9,259z"/>
		<path fill="#211E5C" d="M477.4,253.5c1.3,0,2.7,0.1,4,0c0.9-0.1,0.6,0.7,0.9,1c0.4,0.4,0.4,0.8,0.1,1.3c-1.7-0.1-3.3-0.1-5-0.3
			C477.4,254.8,477.4,254.1,477.4,253.5z"/>
		<path fill="#1F1D59" d="M477.4,255.4c1.6-0.4,3.3-0.7,4.8,0.3c0.5,0.4,0.8,0.8,0.3,1.4c-1.2-0.2-2.4-0.4-3.6-0.3
			c-0.8,0-1.4-0.2-1.5-1.1C477.4,255.7,477.4,255.5,477.4,255.4z"/>
		<path fill="#1E1C57" d="M477.4,255.8c0.4,0.4,0.8,0.7,1.4,0.7c1.3-0.1,2.7,0,3.9,0.6c0.7,0,1,0.3,0.9,1c-1.9-1.2-4.2-0.2-6.2-1
			C477.4,256.7,477.4,256.2,477.4,255.8z"/>
		<path fill="#2B3C97" d="M477.7,224.7c-0.1-0.3-0.1-0.6-0.2-1c0.1-0.2,0.1-0.4,0.2-0.7c0.6-0.6,1.4-0.5,2.2-0.5
			c16.3,0,32.6,0,48.9,0c0.9,0,1.9-0.2,2.5,0.8c0,0.5,0,1.1,0,1.6c-0.5,0.3-1.1,0.2-1.6,0.2c-16.3,0-32.6,0-48.9,0
			C479.8,225.2,478.6,225.3,477.7,224.7z"/>
		<path fill="#2D3F99" d="M531.3,223.4c-0.7-0.5-1.5-0.3-2.2-0.3c-17.1,0-34.2,0-51.3,0c0-0.3,0-0.7,0-1c0.8-0.6,1.6-0.7,2.6-0.7
			c16.1,0,32.2,0,48.2,0c1,0,1.9,0.1,2.7,0.6C531.3,222.5,531.3,222.9,531.3,223.4z"/>
		<path fill="#2C3A96" d="M477.7,224.7c0.9,0,1.8,0,2.7,0c16.2,0,32.4,0,48.7,0c0.8,0,1.5-0.1,2.2,0.3c0,0.3,0,0.7,0.1,1
			c-0.7,0.6-1.5,0.5-2.3,0.5c-16.6,0-33.3,0-49.9,0c-0.5,0-1,0-1.4-0.2c0-0.2,0-0.5-0.1-0.7C477.6,225.3,477.6,225,477.7,224.7z"/>
		<path fill="#2A3895" d="M477.7,226.3c0.7-0.4,1.5-0.3,2.2-0.3c17.1,0,34.3,0,51.4,0c0,0.4,0,0.9,0,1.3c-17.6,0-35.2,0-52.8,0.1
			C477.5,227.4,477.7,226.9,477.7,226.3z"/>
		<path fill="#BFBDBD" d="M531.7,218.1c2.4,1.3,2.1,3.8,2.2,5.9c0.2,9.9,0.7,19.8,0.3,29.7c-0.2,4-0.2,8-0.3,12.1
			c0,0.5-0.1,1-0.3,1.4c-0.2,0.1-0.4,0.1-0.6,0c-0.1-0.1-0.2-0.2-0.2-0.3c0.1-4.1-0.3-8.1,0.2-12.2c0.2-1.2,0.1-2.5,0.1-3.7
			c0-3.9-0.1-7.8,0-11.7c0-1.5-0.5-2.9-0.3-4.4c-0.1-4.4,0.2-8.8-0.3-13.1c-0.1-0.5,0-1.1-0.5-1.5c-0.2-0.3-0.2-0.6-0.3-0.9
			C531.8,219,531.7,218.6,531.7,218.1z"/>
		<path fill="#111027" d="M531.6,233.2c0-0.3,0-0.7,0-1c0-1.5,0-3,0-4.5c0-0.7,0-1.4,0.1-2c0.2-0.1,0.3-0.1,0.5,0.1
			c0.1,0.2,0.2,0.5,0.3,0.8c0,0.2,0,0.4,0,0.6c0,1.4,0,2.9,0,4.3c-0.1,2.8,0.3,5.7-0.2,8.5c-0.1,0.2-0.3,0.3-0.5,0.2
			c0-0.1-0.1-0.2-0.1-0.3c0-0.5,0-1.1,0-1.6c0-0.8,0-1.5,0-2.3c0-0.4,0-0.9,0-1.3C531.6,234.1,531.6,233.6,531.6,233.2z"/>
		<path fill="#A19E9E" d="M531.9,223.4c0-0.7,0-1.3,0.1-2c0.1,0,0.1-0.1,0.2-0.1c0.8,0.7,0.6,1.6,0.4,2.4c-0.1,0.2-0.3,0.4-0.6,0.3
			C531.8,223.9,531.8,223.6,531.9,223.4z"/>
		<path fill="#221F2C" d="M531.9,223.4c0,0.2,0.1,0.4,0.1,0.6c0.1,0.1,0.2,0.3,0.3,0.5c0.1,0.5,0.1,0.9-0.4,1.2c-0.1,0-0.2,0-0.2,0
			C531.7,224.9,531.4,224.1,531.9,223.4z"/>
		<path fill="#A19E9E" d="M531.8,219.4c0.1,0.2,0.2,0.4,0.3,0.6c0.3,0.4,0.3,0.9,0,1.3c0,0-0.1,0.1-0.1,0.1
			C531.6,220.8,531.8,220.1,531.8,219.4z"/>
		<path fill="#262334" d="M527.4,217c-4.5-0.3-9,0-13.4-0.5c1,0,2-0.1,2.9-0.1c2,0,4,0,6,0c1.4,0,2.8,0.1,4.1,0.1
			c0.1,0.1,0.2,0.2,0.3,0.3C527.4,216.9,527.4,217,527.4,217z"/>
		<path fill="#111028" d="M527.4,217c0-0.1,0-0.1,0-0.2c0.6,0,1.3,0,1.9,0c0,0.1,0,0.2,0,0.2C528.7,217.1,528.1,217,527.4,217z"/>
		<path fill="#101023" d="M531.7,240.1c0.1,0,0.2,0,0.3,0c0.6,0.6,0.5,1.4,0.5,2.2c0,4.7,0,9.4,0,14c-0.1,1.8,0.1,3.6-0.1,5.4
			c-0.1,0.4-0.3,0.7-0.7,1c-0.1,0-0.2,0-0.3,0c-0.2-0.2-0.3-0.4-0.4-0.7c-0.1-0.6-0.1-1.2,0-1.8c0-0.5,0.2-0.9,0.2-1.4
			c0.1-0.7,0.1-1.4,0.1-2.1c0-0.2,0-0.5,0-0.7c0-0.3,0-0.7,0-1c0-0.5,0-1.1,0-1.6c0-0.7,0-1.3,0.4-1.9c0-0.4,0-0.9,0-1.3
			c0-0.3,0-0.7,0-1c0-0.3,0-0.7,0-1c0-0.4,0-0.9,0-1.3c0-0.5,0-1.1,0-1.6c0-0.4,0-0.9,0-1.3c0-1.1,0-2.2,0-3.3
			C531.6,240.5,531.7,240.3,531.7,240.1z"/>
		<path fill="#FBE707" d="M500.2,267c-0.9,0-1.7,0-2.6-0.1c-0.3-0.3-0.1-0.6,0.2-0.8c1.1-0.4,2.5-0.5,2.3-2.3c0-0.4,0-0.8,0-1.3
			c0-0.7,0-1.4,0-2.2c0-0.5,0-0.9,0-1.4c0-0.8,0-1.6,0-2.5c0-0.4,0-0.9,0-1.3c0.1-2.7-0.4-3.1-3-2.4c-1.3,0.3-2.4,0.9-3.2,2
			c-0.5,0.4-1,1.1-1.7,0.3c-0.1-0.3-0.1-0.7,0.1-1c0.3-0.1,0.3-0.4,0.3-0.7c0.1-2.5-0.3-2.4,2.7-2.3c4.3,0.2,8.7,0.1,13-0.1
			c2.4-0.1,2.4-0.2,2.8,2.2c0,0.3,0.2,0.5,0.3,0.7c0.7,1,0,1.3-0.8,1.6c-0.4-0.3-0.7-0.6-0.9-1c-1.2-2.2-4.3-2.9-5.9-1.4
			c-0.4,3.5-0.2,7-0.1,10.6c0,1.3,1.1,1.6,2.1,2c0.8,0.7,0.4,1.2-0.4,1.3C503.7,267.4,501.9,267.8,500.2,267z"/>
		<path fill="#FCE805" d="M510.8,255.8c0.2-0.5,0.9-0.8,0.7-1.5c2.2-1.7,4.5-3,7.3-3.2c2.2-0.2,4.3,0.2,6.5,0.3c0.9,0,0.9,0.6,1,1.2
			c0.5,0.3,0.6,0.8,0.7,1.3c0,0.7,0.6,1.8-0.9,1.8c-1-0.5-1.2-1.6-2-2.2c-0.8-0.7-1.8-1-2.9-1.2c-0.5,0-1,0-1.6,0
			c-0.1,0-0.3,0-0.4,0c-0.4,0-0.7,0.1-1,0.2c-0.7,0.2-1.3,0.5-1.9,0.9c-0.7,0.6-1.4,1.2-1.9,2c-0.1,0.2-0.3,0.5-0.4,0.7
			c-0.1,0.3-0.2,0.7-0.3,1c-0.1,0.4-0.2,0.9-0.3,1.3c-0.3,1.1,0.2,2,0.3,3.1c0.3,0.7,0.6,1.4,1.1,2c2.4,3.5,8.6,3.7,11.2-0.1
			c0.5-0.5,0.8-1.2,1.7-0.7c0.5,0.9,0,1.7-0.1,2.6c-0.3,0.5-0.1,1.3-1,1.4c-2.4,0.2-4.7,0.8-7.1,0.6c-1-0.1-2-0.2-3.1-0.3
			c-1.3,0.2-2.3-0.5-3.3-1.2c-0.8-0.6-1.5-1.3-2.1-2.1c-0.4-0.8-0.8-1.5-1.1-2.3c-0.1-0.5-0.2-0.9-0.3-1.4c-0.1-0.5-0.1-1-0.1-1.5
			c0.2-0.7,0.3-1.4,0.6-2.1C510.2,256.1,510.4,255.8,510.8,255.8z"/>
		<path fill="#8A96C0" d="M492.4,254.3c0,0.2,0,0.5,0,0.7c-0.4,0.4-0.7,0.3-1.1,0c-0.3-0.5-0.4-1-0.8-1.5c-1.5-1.7-3.2-1.8-5-0.3
			c-0.3,0.4-0.6,0.9-0.4,1.5c0.1,0.5,0.5,0.8,0.6,1.3c-0.1,0.5,0.1,1-0.1,1.4c-0.2,0.4-0.4,0.9-0.8,1.3c-0.4-0.2-0.8-0.5-1.3-0.7
			c-0.3-0.3-0.6-0.7-0.9-1c-0.1-0.4-0.3-0.9-0.4-1.3c0-0.4,0-0.9,0-1.3c0.6-0.9,1.1-1.7,1.7-2.6c1.8-0.6,3.5-1,5.4-0.7
			C492.3,251.6,491.9,250.8,492.4,254.3z"/>
		<path fill="#23225F" d="M526.5,253.8c-0.1-0.4-0.2-0.9-0.3-1.3c1.7-1.2,3.7-0.2,5.4-1c0,0.7,0,1.3,0,2
			C529.9,254.3,528.2,254,526.5,253.8z"/>
		<path fill="#C6C4C4" d="M533.3,267.2c0.1,0,0.2,0,0.3,0c0.3,1.2-0.3,2.4,0,3.6c-0.8,1.8-2.4,2.2-4.3,2.3
			c-12.4,0.6-24.8,0.2-37.1,0.3c-3.5,0-6.9-0.4-10.4-0.4c-1.3,0-2.5-0.4-2.9-1.9c0.2,0,0.4,0,0.7,0c1.7,1.1,3.7,0.8,5.6,0.8
			c0.5,0,1.1,0,1.6,0.1c1.1,0.4,2.2,0.2,3.3,0.2c0.8,0,1.6,0,2.4,0c8.1,0,16.1,0,24.2,0c1.1-0.1,2.2,0,3.3,0
			c1.7,0.1,3.4,0.2,5.1-0.2c1.5-0.1,3,0.1,4.5,0c2-0.1,2.7-0.8,2.8-2.8C532.6,268.5,532.4,267.6,533.3,267.2z"/>
		<path fill="#AEABAB" d="M533.3,267.2c-0.3,0.5-0.3,1.1-0.3,1.7c-0.1,2.6-0.9,3.5-3.6,3.5c-1.3,0-2.6,0-3.9,0
			c-1.7,0.3-3.5,0-5.2,0.3c-1.1,0-2.2,0-3.3,0c-0.3-0.2-0.7-0.2-1.1-0.2c-7.4,0-14.9,0-22.3,0c-0.4,0-0.8-0.1-1.1,0.2
			c-0.8,0-1.5,0-2.3,0c-1.1-0.2-2.2-0.4-3.3-0.3c-0.5,0-1.1,0-1.6,0c-1.1-0.4-2.3,0-3.5-0.3c-0.6-0.2-1.3-0.1-1.4-1
			c0.1,0,0.2-0.1,0.3-0.1c1.2,0,2.3,0.1,3.5,0.1c1.8,0.4,3.6-0.1,5.3,0.2c2.6,0.1,5.2,0.3,7.8,0.1c4.8,0.2,9.5,0.2,14.3,0
			c2.6,0.2,5.2,0,7.7-0.1c1.8-0.3,3.6,0.1,5.3-0.2c1.3,0,2.5-0.1,3.8-0.1c0.9-0.2,1.8-0.1,2.6-0.1c1-0.3,0.9-1.1,0.9-1.8
			c0.3-6,0.5-12,0.5-18c-0.2-4.3-0.3-8.5,0-12.8c0.3-1.3-0.5-2.7,0.3-4c0.2,0,0.3,0,0.5,0.1c0.6,5.7,0.5,11.4,0.2,17.1
			c-0.2,5.1,0,10.3-0.4,15.4C533.1,267.1,533.2,267.1,533.3,267.2z"/>
		<path fill="#B0AEAD" d="M480.3,271.2c0.8,0.9,1.9,0.8,2.9,0.9c0.7,0.1,1.4-0.3,2,0.3c-1,0-2,0-2.9,0c-1.1,0-2-0.3-2.6-1.3
			C479.8,271.2,480.1,271.2,480.3,271.2z"/>
		<path fill="#0F113B" d="M513.1,265.6c1,0.6,2.1,1.1,3.2,1.4c0,0.3,0.2,0.5,0.5,0.6c0.3,0.1,0.5,0.2,0.3,0.6
			c-0.1,0.2-0.3,0.2-0.6,0.2c-3.7-0.1-7.5-0.1-11.2,0c-2.2,0.1-4.3-0.3-6.6-0.4c0.4-0.6,1.4-0.2,1.5-1c1.7,0,3.5,0,5.2,0
			c0.3,0,0.7,0.1,0.7-0.4c0-0.3-0.4-0.3-0.6-0.4c1-1.3,2.5-0.8,3.7-0.6C510.5,265.8,511.8,265.8,513.1,265.6z"/>
		<path fill="#0F113B" d="M497.9,266.2c-0.3,0.1-0.3,0.4-0.3,0.7c-0.1,0.3-0.3,0.6,0.1,0.9c0.7,0.5,0.1,0.6-0.2,0.6
			c-3.1-0.3-6.2-0.2-9.3-0.2c-0.1,0-0.3-0.2-0.4-0.3c0.1-0.6,1,0.2,1-0.6c0.8-0.8,1.9-0.9,2.9-1.3c1.6-0.4,3.2-0.6,4.9-0.5
			C497,265.6,497.8,265.3,497.9,266.2z"/>
		<path fill="#10133B" d="M526.4,266.6c0.5-0.3,0.1-1.1,0.6-1.4c1.4,0.4,2.9-0.1,4.3,0.7c0,0.2,0,0.4,0,0.7
			c-0.2,1.5-1.1,1.8-2.5,1.6c-2.3-0.4-4.6,0.3-7-0.4c1.2-0.2,2.5-0.4,3.7-0.6C525.9,267.2,526.7,267.7,526.4,266.6z"/>
		<path fill="#8995BB" d="M491.7,266.2c-0.9,0.5-1.9,0.9-2.9,1.1c-2-0.2-4,0.2-5.9-0.6c-1.3-0.4-0.3-1.7-1-2.4c0-0.3,0-0.5,0-0.8
			c0-0.3-0.2-0.7,0.3-0.8c0.4-0.1,0.5,0.2,0.7,0.5c0.2,0.5,0.5,0.9,0.8,1.4c0.6,0.2,1,0.7,1.5,1c2,1.1,3.8,0.7,5.6-1.2
			c0.5-1.6-0.3-2.4-1.6-3.1c-0.6-0.7-1.5-1-2.3-1.3c-0.6-0.4-1.2-0.8-1.9-1c0-0.1,0-0.2-0.1-0.3c0-0.6,0.1-1.1,0.7-1.3
			c1.2-0.2,2.2,0.3,3.2,0.9c0.4,0.2,0.7,0.6,1.2,0.3c0.7-0.2,1.2,0.2,1.7,0.6c0.7,0.4,1.3,0.9,1.7,1.6c0.3,0.5,0.4,1.1,0.5,1.6
			c0,0.4,0,0.8-0.1,1.2C493.4,264.7,492.8,265.7,491.7,266.2z"/>
		<path fill="#111243" d="M490.8,264.4c-0.2,1.5-1.3,2-2.6,2.2c-1.8,0.2-3.6,0-4.5-1.9c0.3-0.6,0.9-0.6,1.5-0.7
			C487.1,263.9,489,263.9,490.8,264.4z"/>
		<path fill="#141448" d="M527.4,262.7c-0.8-0.2-0.9,0.7-1.3,1c-0.1,0.1-0.2,0.1-0.3,0.2c-1.8,1.1-9.8,0.9-11.5-0.2
			c-0.5-0.5-0.9-1.2-1-2c0.3-0.3,0.7-0.3,1.1-0.3c4.9,0.1,9.8,0,14.7,0.1c0.8,0,1.5-0.1,2.2,0.5c0,0.2,0,0.4,0,0.7
			c0,0.4,0,0.9,0,1.3c-0.9,0.7-1.9,0.4-2.9,0.3C527.3,264.1,527.8,263.2,527.4,262.7z"/>
		<path fill="#A9A7A6" d="M533,250.9c-0.2,6.2-0.4,12.4-0.7,18.5c0,0.6,0.2,1.6-1,1.7c-0.1,0-0.1-0.1-0.1-0.2c0-0.1,0-0.1,0.1-0.1
			c0.4-1.4,0.6-2.7,0.4-4.2c0.4-1.5-0.1-3.1,0.2-4.7c0-1.8,0.1-3.6,0.1-5.5c0.3-1.5,0.1-3,0.1-4.4
			C532.4,251.6,532.1,250.9,533,250.9z"/>
		<path fill="#111241" d="M527.4,262.7c0.8,2,2.5,1.1,3.9,1.3c0,0.7,0,1.3,0,2c-0.9,0-1.9,0-2.8,0c-0.6,0-1.2-0.1-1.4-0.7
			C527.2,264.3,527.3,263.5,527.4,262.7z"/>
		<path fill="#1D1B1D" d="M511.5,271.5c-0.9,0.5-1.9,0.2-2.9,0.2c-3.2,0-6.4,0-9.6,0c-0.6,0-1.2,0.1-1.8-0.2
			C502,271.5,506.7,271.5,511.5,271.5z"/>
		<path fill="#1D1B20" d="M489.4,271.4c-1.8,0-3.6,0.2-5.3-0.2C485.9,271.2,487.7,270.9,489.4,271.4z"/>
		<path fill="#1C1A20" d="M524.6,271.2c-1.8,0.5-3.6,0.3-5.3,0.2C521,270.9,522.8,271.3,524.6,271.2z"/>
		<path fill="#211F22" d="M531.9,262c0,1.6,0.2,3.1-0.2,4.7c0-1.3,0-2.7,0-4C531.7,262.4,531.8,262.2,531.9,262z"/>
		<path fill="#1C1A20" d="M531.3,270.8c0,0.1,0,0.2,0,0.3c-1,0-1.9,0-2.9,0C529.3,270.5,530.3,271,531.3,270.8z"/>
		<path fill="#B3B0B0" d="M533.3,234.5c-0.1,0-0.2,0-0.3,0c-0.9-0.4-0.6-1.2-0.6-1.9c0-3,0-6,0-9c0.2-0.8,0.1-1.6-0.3-2.3
			c0-0.4,0-0.9,0-1.3c1.1-0.1,0.8,0.8,0.9,1.3C533.5,225.7,533.3,230.1,533.3,234.5z"/>
		<path fill="#221F2C" d="M532.4,251.8c-0.3,1.5,0.2,3.2-0.3,4.7c0-5.5,0-11,0-16.5c0-3,0-5.9,0-8.9c0.2,0,0.4,0.1,0.4,0.3
			c0.1,1.4-0.1,2.8,0.2,4.2C532.4,241,532.7,246.4,532.4,251.8z"/>
		<path fill="#A9A7A6" d="M532.3,235.5c0-1.4,0-2.8-0.1-4.2c-0.3-1.5,0.1-3.1-0.2-4.7c0-0.1,0-0.2,0-0.3c0.2-0.6,0.2-1.3,0-1.9
			c0-0.1,0-0.2,0-0.3c0.1-0.1,0.2-0.2,0.3-0.3c0.5,0.8,0.5,1.7,0.4,2.6c-0.1,2.4-0.1,4.8-0.1,7.3c0,0.3,0.2,0.6,0.3,0.9
			c0,1.4,0,2.8,0,4.3c-0.7,0-0.4-0.6-0.5-0.9C532.4,237.1,532.7,236.3,532.3,235.5z"/>
		<path fill="#A19E9E" d="M532,226.7c0.5,1.5,0.2,3.1,0.2,4.7c-0.1,0-0.2-0.1-0.2-0.2C532,229.7,532,228.2,532,226.7z"/>
		<path fill="#A19E9E" d="M532,224.4c0.4,0.6,0.4,1.3,0,1.9c0-0.2-0.1-0.4-0.1-0.6C532,225.2,532,224.8,532,224.4z"/>
		<path fill="#17164C" d="M531.3,262c-5.1,0-10.3,0-15.4,0c-0.9,0-1.7-0.1-2.5-0.3c-0.6-1.1-0.6-2.2-0.4-3.3c0.8,0,0.3,0.8,0.7,1
			c0.5,0.6,1.2,0.5,1.8,0.5c4.8,0,9.6,0,14.4,0c0.5,0,1-0.1,1.4,0.2C531.3,260.7,531.3,261.3,531.3,262z"/>
		<path fill="#1C1953" d="M513.3,259c-0.1-0.2-0.2-0.5-0.3-0.7c0-0.5-0.1-1,0.3-1.4c5-0.1,10,0,15,0c1.1,0,2.3,0,3.4-0.2
			c0,0.8,0.1,1.5-0.2,2.3c-0.5,0.5-1.2,0.5-1.8,0.5c-4.6,0-9.1,0-13.7,0C515,259.5,514.1,259.5,513.3,259z"/>
		<path fill="#1A174F" d="M513.3,259c3.7,0,7.5,0,11.2,0c2.3,0,4.6,0,6.8,0c0.3,0.3-0.1,0.7,0,1c-0.5,0.3-1.1,0.3-1.7,0.3
			c-5.1,0-10.3,0.1-15.4,0.1C513.2,260.4,513.1,259.8,513.3,259z"/>
		<path fill="#1F1D59" d="M513.6,256c0-0.2,0-0.5,0.3-0.6c0.5-0.5,1.2-0.8,1.9-0.8c2.8-0.1,5.6,0,8.4,0.1c0.5,0,0.8,0.2,1.1,0.5
			c0.5,0.5,1,0.4,1.6,0c1.5-1,3-0.9,4.6-0.2c0,0.3,0,0.7,0,1c-0.5,0.9-1.4,0.8-2.2,0.8c-4.9-0.2-9.8,0.1-14.6,0
			C514.2,256.9,513.6,256.9,513.6,256z"/>
		<path fill="#1E1C57" d="M513.6,256c0.6,1.1,1.5,0.3,2.2,0.3c4.8,0.1,9.6,0.1,14.4,0.1c0.5,0,1-0.1,1.4-0.3c0,0.2,0,0.4,0,0.7
			c-0.4,0.5-0.9,0.7-1.6,0.6c-5.1,0-10.2,0-15.3,0c-0.5,0-1.1,0.1-1.5-0.4C513.3,256.6,513.2,256.2,513.6,256z"/>
		<path fill="#22205B" d="M531.6,255.1c-1.7,0.1-3.4-0.4-5,0.6c-0.3,0.2-0.9,0.1-1.2-0.3c0.1-0.1,0.3-0.1,0.4,0
			c1.6,0,0.2-1.2,0.6-1.6c1.7-0.7,3.4-0.2,5.1-0.3C531.6,254,531.6,254.6,531.6,255.1z"/>
		<path fill="#1D1B55" d="M491.4,259.4c-0.5-0.2-1.1-0.5-1.6-0.7c-1.1-0.5-2.4-0.7-3.1-1.8c0.1-1.3,1.3-0.8,1.7-0.8
			c3.8-0.1,7.7-0.2,11.5-0.1c0.3,0,0.5,0.2,0.6,0.5c0,0.9,0,1.7,0,2.6c-2.5,0.7-5,0.4-7.5,0.4C492.5,259.4,492,259.3,491.4,259.4z"
			/>
		<path fill="#201E5A" d="M500.5,256.4c-4.4,0-8.9-0.1-13.3-0.1c-0.1,0-0.3,0.3-0.4,0.5c-0.7,0.3-1-0.2-1.3-0.7
			c-0.2-0.5-0.8-0.7-0.7-1.3c0.1-0.3,0.3-0.5,0.6-0.5c2,0.1,4-0.3,5.9,0.5c0.2,0.5,0.6,0.3,1,0.3c0.6,0.7,0.9-0.1,1.3-0.3
			c1.9-0.8,3.9-0.5,5.9-0.4c0.4,0,0.8,0.3,1,0.7C500.5,255.6,500.5,256,500.5,256.4z"/>
		<path fill="#0F113D" d="M513.1,265.6c-0.5,1.2-2,1.1-2.5,0.9c-1.7-0.9-3.4-0.6-5.1-0.3c-1.7,0-2.2-0.8-2.2-2.5
			c0.1-3.2,0-6.4,0-9.6c0-0.4-0.2-0.9,0.2-1.2c0.5,0.5,0.4,1.2,0.4,1.9c0,0.5,0,1.1,0,1.6c0,0.3,0,0.5,0,0.8c0,0.8,0,1.6,0,2.4
			c0,0.4,0,0.8,0,1.2c0,2.8,0,2.8,2.8,2.7c1.5,0,2.9-0.1,4.4,0C511.7,264.2,512.4,264.9,513.1,265.6z"/>
		<path fill="#101241" d="M491.7,266.2c0.8-0.7,1.3-1.6,1.7-2.6c2.4-0.1,4.8-0.5,7.1,0.3c0,1.8-0.4,2.1-2.6,2.2
			c-1.6-0.5-3.2-0.4-4.7-0.1C492.7,266.2,492.2,266.4,491.7,266.2z"/>
		<path fill="#23215D" d="M503.6,254.8c0-0.6,0-1.3-0.1-1.9c1.6-1.7,5.8-0.5,6.5,1.9C507.9,255.3,505.8,255.5,503.6,254.8z"/>
		<path fill="#141448" d="M500.5,264c-0.6,0.9-1.1-0.2-1.9-0.1c-1.7,0.3-3.5,0.3-5.3-0.2c0-0.4,0-0.9,0.1-1.3c1-1.1,6-1.1,6.9-0.1
			c0.1,0.1,0.2,0.3,0.2,0.4C500.5,263.1,500.5,263.5,500.5,264z"/>
		<path fill="#22205D" d="M500.5,255.1c-1.6-0.9-3.3-0.4-4.9-0.4c-0.6,0-1.3,0.1-1.9,0.1c1.1-1.8,4.3-3.1,6.2-2.5
			c0.5,0.2,0.8,0.5,0.7,1.1C500.5,253.9,500.5,254.5,500.5,255.1z"/>
		<path fill="#1A174F" d="M491.4,259.4c0-0.2,0-0.5,0.3-0.5c2.9,0.4,5.9,0,8.8,0.1c0,0.4,0,0.9,0,1.3c-0.2,0.4-0.5,0.5-0.9,0.5
			c-2.2-0.1-4.4,0-6.6,0C492.5,260.3,491.9,259.8,491.4,259.4z"/>
		<path fill="#17164C" d="M493,260.8c2.2-0.9,4.4-0.3,6.6-0.4c0.3,0,0.6,0.1,0.9-0.1c0,0.8,0,1.5,0,2.3c-0.6-0.6-1.2-0.9-2.1-0.7
			c-1.6,0.3-3.4-0.4-5,0.3C493.3,261.8,493.1,261.3,493,260.8z"/>
		<path fill="#201E5A" d="M503.6,254.8c2.1,0,4.3,0,6.4,0c0.2,0.4,0.7,0.5,0.7,1c-0.1,0.2-0.3,0.4-0.4,0.6c-2.2,0.4-4.5,0.5-6.7,0
			C503.6,255.9,503.6,255.3,503.6,254.8z"/>
		<path fill="#121441" d="M514.3,263.6c3.9,0.6,7.8,0.5,11.7,0C523.2,267.6,517.4,267.6,514.3,263.6z"/>
		<path fill="#1B1851" d="M503.6,259.7c0-0.9,0-1.7,0-2.6c1.5-0.1,2.9-0.2,4.4-0.2c1,0,1.7,0.3,1.8,1.4c0,0.5,0,1.1,0,1.6
			c-0.1,0.3-0.2,0.6-0.4,0.6c-1.8,0.3-3.5,0.4-5.2-0.1C503.7,260.5,503.7,260,503.6,259.7z"/>
		<path fill="#211F5C" d="M525.8,255.4c-0.1,0-0.3,0-0.4,0c-0.8-0.6-1.8-0.2-2.7-0.3c-2.9,0-5.9-0.4-8.8,0.2c0.4-1,1.1-1.7,2-2.2
			c2.7,0.1,5.5,0.2,8.2,0C524.9,253.7,525.5,254.5,525.8,255.4z"/>
		<path fill="#151548" d="M511.1,263.6c-0.1,0.3-0.2,0.5-0.7,0.5c-1.3-0.1-2.7,0-4-0.1c-2.8,0-2.8,0-2.8-2.9
			c2.1,0.9,4.3,0.5,6.4,0.3C510.4,262.1,510.7,262.8,511.1,263.6z"/>
		<path fill="#18174C" d="M510,261.3c-0.4,0.3-0.5,0.9-1.4,0.6c-1-0.3-2.1-0.1-3.2,0.1c-0.9,0.1-1.5-0.2-1.9-1c0-0.4,0-0.9,0-1.3
			c0.2,0.2,0.5,0.6,0.7,0.6c1.8-0.1,3.7,0.5,5.4-0.3C509.8,260.4,509.9,260.9,510,261.3z"/>
		<path fill="#23225F" d="M524.1,253.1c-0.3,0.4-0.6,0.5-1.1,0.5c-2.1,0-4.2,0-6.3,0c-0.4,0-0.6-0.1-0.7-0.4c0.6-0.5,1.2-0.9,2-1
			c0.4,0.2,0.7-0.1,0.9-0.3c0.1,0,0.2,0,0.4,0c0.7,0.4,1.3,0.3,2,0C522.3,252,523.3,252.3,524.1,253.1z"/>
		<path fill="#1F1E57" d="M509.8,258.4c-0.5-1-1.4-1-2.3-1c-1.3-0.1-2.6,0.4-3.8-0.3c0-0.2,0-0.5,0-0.7c2.2-0.1,4.5-0.1,6.7,0
			C510.1,257.1,509.9,257.7,509.8,258.4z"/>
		<path fill="#242364" d="M521.2,251.9c-0.7,0.7-1.3,0.8-2,0C519.9,251.8,520.5,251.8,521.2,251.9z"/>
		<path fill="#252467" d="M518.9,251.9c-0.2,0.7-0.5,0.7-0.9,0.3C518.2,252,518.5,251.8,518.9,251.9z"/>
		<path fill="#232261" d="M485.2,253.1c1.8-1.9,4.7-1.7,5.7,0.4c-1.8,1.1-3.7,0.4-5.6,0.3C484.9,253.8,485,253.3,485.2,253.1z"/>
		<path fill="#211F5D" d="M485.2,253.1c0.1,0.2,0.2,0.5,0.3,0.5c1.8-0.1,3.6,0.3,5.4-0.1c0.6,0.3,0.7,0.8,0.5,1.3
			c-2.2,0.1-4.3-0.4-6.5,0C484.4,254.1,484.9,253.6,485.2,253.1z"/>
		<path fill="#8792BD" d="M485.5,256.1c0.4,0.2,0.9,0.5,1.3,0.7c1,0.6,2,1.2,3,1.8c0,0.3,0.1,0.6,0,0.8c-0.2,0.3-0.5,0.1-0.6-0.1
			c-0.9-1.2-2.2-1.4-3.6-1.5c0,0,0-0.2-0.1-0.3C485.5,257,485.2,256.5,485.5,256.1z"/>
		<path fill="#B0AEAD" d="M492.4,272.8c0.4-0.5,0.9-0.3,1.4-0.3c7.3,0,14.5,0,21.8,0c0.5,0,1-0.1,1.4,0.3
			C508.7,272.8,500.6,272.8,492.4,272.8z"/>
		<path fill="#B0AEAD" d="M520.2,272.8c1.7-0.4,3.5-0.7,5.2-0.3C523.7,272.9,522,272.8,520.2,272.8z"/>
		<path fill="#B0AEAD" d="M486.8,272.5c1.2-0.9,2.2,0.2,3.3,0.3C489,272.7,487.9,273,486.8,272.5z"/>
		<path fill="#A19E9E" d="M532.3,235.5c0.8,1-0.2,2.3,0.6,3.3c-0.6,2.6-0.2,5.1-0.2,7.7c0,1.5-0.4,3,0.2,4.4c-0.2,0.3-0.4,0.6-0.6,1
			C532.4,246.4,532.3,240.9,532.3,235.5z"/>
	</g>
</g>
<text transform="matrix(1 0 0 1 93.2686 293.3377)" font-family="'ArialMT'" font-size="12px">@tomjohnson #stc19 #techcomm</text>
<path fill="none" d="M447.8,45.6c108.9,131.6,130.7,147.1,130.7,147.1"/>
<text transform="matrix(0.6383 0.7698 -0.7698 0.6383 447.7527 45.6214)"><tspan x="0" y="0" font-family="'ArialMT'" font-size="9.2827px">p</tspan><tspan x="5.2" y="0" font-family="'ArialMT'" font-size="9.2827px" rotate="0">l</tspan><tspan x="7.3" y="0" font-family="'ArialMT'" font-size="9.2827px" rotate="0">e</tspan><tspan x="12.4" y="0" font-family="'ArialMT'" font-size="9.2827px" rotate="-0.1">a</tspan><tspan x="17.6" y="0" font-family="'ArialMT'" font-size="9.2827px" rotate="-0.1">s</tspan><tspan x="22.2" y="0" font-family="'ArialMT'" font-size="9.2827px" rotate="-0.2">e</tspan><tspan x="27.4" y="0" font-family="'ArialMT'" font-size="9.2827px" rotate="-0.2"> </tspan><tspan x="30" y="-0.1" font-family="'ArialMT'" font-size="9.2827px" rotate="-0.3">c</tspan><tspan x="34.6" y="-0.1" font-family="'ArialMT'" font-size="9.2827px" rotate="-0.3">o</tspan><tspan x="39.7" y="-0.1" font-family="'ArialMT'" font-size="9.2827px" rotate="-0.4">m</tspan><tspan x="47.5" y="-0.2" font-family="'ArialMT'" font-size="9.2827px" rotate="-0.5">p</tspan><tspan x="52.7" y="-0.2" font-family="'ArialMT'" font-size="9.2827px" rotate="-0.5">l</tspan><tspan x="54.7" y="-0.2" font-family="'ArialMT'" font-size="9.2827px" rotate="-0.6">e</tspan><tspan x="59.9" y="-0.3" font-family="'ArialMT'" font-size="9.2827px" rotate="-0.6">t</tspan><tspan x="62.5" y="-0.3" font-family="'ArialMT'" font-size="9.2827px" rotate="-0.7">e</tspan><tspan x="67.7" y="-0.4" font-family="'ArialMT'" font-size="9.2827px" rotate="-0.8"> </tspan><tspan x="70.2" y="-0.4" font-family="'ArialMT'" font-size="9.2827px" rotate="-0.8">t</tspan><tspan x="72.8" y="-0.4" font-family="'ArialMT'" font-size="9.2827px" rotate="-0.9">h</tspan><tspan x="78" y="-0.5" font-family="'ArialMT'" font-size="9.2827px" rotate="-0.9">e</tspan><tspan x="83.1" y="-0.6" font-family="'ArialMT'" font-size="9.2827px" rotate="-1"> </tspan><tspan x="85.7" y="-0.6" font-family="'ArialMT'" font-size="9.2827px" rotate="-1.1">s</tspan><tspan x="90.3" y="-0.7" font-family="'ArialMT'" font-size="9.2827px" rotate="-1.1">t</tspan><tspan x="92.9" y="-0.8" font-family="'ArialMT'" font-size="9.2827px" rotate="-1.2">c</tspan><tspan x="97.6" y="-0.9" font-family="'ArialMT'" font-size="9.2827px" rotate="-1.3"> </tspan><tspan x="100.1" y="-0.9" font-family="'ArialMT'" font-size="9.2827px" rotate="-1.4">e</tspan><tspan x="105.3" y="-1.1" font-family="'ArialMT'" font-size="9.2827px" rotate="-1.5">v</tspan><tspan x="109.9" y="-1.2" font-family="'ArialMT'" font-size="9.2827px" rotate="-1.6">a</tspan><tspan x="115.1" y="-1.3" font-family="'ArialMT'" font-size="9.2827px" rotate="-1.7">l</tspan><tspan x="117.2" y="-1.4" font-family="'ArialMT'" font-size="9.2827px" rotate="-1.8">u</tspan><tspan x="122.3" y="-1.5" font-family="'ArialMT'" font-size="9.2827px" rotate="-1.9">a</tspan><tspan x="127.5" y="-1.7" font-family="'ArialMT'" font-size="9.2827px" rotate="-2">t</tspan><tspan x="130.1" y="-1.8" font-family="'ArialMT'" font-size="9.2827px" rotate="-2.1">i</tspan><tspan x="132.1" y="-1.9" font-family="'ArialMT'" font-size="9.2827px" rotate="-2.2">o</tspan><tspan x="137.3" y="-2.1" font-family="'ArialMT'" font-size="9.2827px" rotate="-2.4">n</tspan><tspan x="142.5" y="-2.3" font-family="'ArialMT'" font-size="9.2827px" rotate="-2.5"> </tspan><tspan x="145" y="-2.4" font-family="'ArialMT'" font-size="9.2827px" rotate="-2.7">f</tspan><tspan x="147.6" y="-2.5" font-family="'ArialMT'" font-size="9.2827px" rotate="-2.8">o</tspan><tspan x="152.7" y="-2.8" font-family="'ArialMT'" font-size="9.2827px" rotate="-3">r</tspan><tspan x="155.8" y="-2.9" font-family="'ArialMT'" font-size="9.2827px" rotate="-3.3">m</tspan><tspan x="163.6" y="-3.4" font-family="'ArialMT'" font-size="9.2827px" rotate="-3.7">.</tspan><tspan x="166.1" y="-3.6" font-family="'ArialMT'" font-size="9.2827px" rotate="-3.9">.</tspan><tspan x="168.7" y="-3.7" font-family="'ArialMT'" font-size="9.2827px" rotate="-4.1">.</tspan></text>
<text transform="matrix(1 0 0 1 93.2682 219.0585)"><tspan x="0" y="0" fill="#070808" font-family="'ArialMT'" font-size="15px">Long-form version of this presentation:</tspan><tspan x="0" y="18" fill="#4060AC" font-family="'Arial-BoldMT'" font-size="15px">idratherbewriting.site/trends</tspan></text>
</svg>
