<?xml version="1.0" encoding="utf-8"?>
<!-- Generator: Adobe Illustrator 23.0.3, SVG Export Plug-In . SVG Version: 6.00 Build 0)  -->
<svg version="1.1" id="Layer_1" xmlns="http://www.w3.org/2000/svg" xmlns:xlink="http://www.w3.org/1999/xlink" x="0px" y="0px"
	 viewBox="0 0 600 350" enable-background="new 0 0 600 350" xml:space="preserve">
<rect x="5" y="38.6" fill="none" width="600" height="45.9"/>
<text transform="matrix(1 0 0 1 82.6367 60.0139)" font-family="'ArialMT'" font-size="25px">Constant learning creates a plastic mind</text>
<g>
	<g>
		<path fill="#FFFFFF" d="M287.6,288.9c-72.1,0-144.1,0-216.2,0.1c-2.6,0-3-0.6-3-3.1c0.1-65.1,0.1-130.2,0-195.3
			c0-2.5,0.4-3.1,3-3.1c144.1,0.1,288.3,0.1,432.4,0c2.5,0,2.9,0.6,2.9,2.9c-0.1,65.2-0.1,130.4,0,195.6c0,2.4-0.4,2.9-2.9,2.9
			C431.8,288.9,359.7,288.9,287.6,288.9z"/>
		<path fill="#050505" d="M105.5,208.1c-6.1,0-12.3,0.1-18.4,0c-4-0.1-5-1.6-3.1-5c4.7-8.4,4.5-17.6,4.4-26.8
			c-0.1-4.7-2.7-8.4-4.9-12.3c-6.7-12.4-7-25.2-1.6-38.1c4-9.3,11.5-14.6,21.4-16.4c9.9-1.7,19.5-0.3,28.8,3.1
			c14.7,5.3,21.6,18.1,18.3,33.5c-0.4,2.1-0.2,3.7,0.8,5.3c1.7,2.9,3.6,5.8,5.2,8.8c1.8,3.4,1.3,4.8-2.4,5.4c-3.3,0.6-4,1.7-2.8,4.9
			c1,2.5-0.1,5.3-0.9,7.4c-0.8,2-0.9,3.7-0.9,5.7c-0.1,4.3-2.2,6.2-6.5,5.8c-1.9-0.2-3.8-0.4-5.6-0.9c-3.3-0.9-5.4,0.3-6.8,3.3
			c-1.9,4.1-3,8.4-3.2,12.9c-0.1,2.4-0.9,3.2-3.4,3.2c-6.1-0.2-12.3-0.1-18.4-0.1C105.5,207.9,105.5,208,105.5,208.1z"/>
		<path fill="#050505" d="M322.4,140.2c-0.1,1.9,0,4.3-0.7,6.6c-0.6,1.9-0.2,3.7,0.9,5.4c1.7,2.8,3.5,5.6,5.1,8.4
			c1.8,3.4,1.3,4.7-2.4,5.5c-2.8,0.6-4.5,1.5-2.8,4.6c1.3,2.5-0.2,5.1-0.8,7.1c-0.6,1.9-0.9,3.6-0.8,5.6c0,4.1-1.9,6.2-6,6
			c-2.2-0.1-4.5-0.2-6.6-0.9c-2.9-1-4.5,0.3-5.8,2.6c-2.3,4-3.2,8.3-3.5,12.8c-0.2,2.7-0.8,3.8-3.9,3.8c-11.7-0.1-23.4,0.2-35,0.3
			c-5.2,0-6.1-1.3-3.6-5.9c4.5-8.3,4.3-17.2,4-26.2c-0.1-4-2.5-7.5-4.5-11c-5.9-10.3-6.8-21.1-3.9-32.4c3.4-13.1,12.1-21,25.5-22.3
			c10.4-1.1,20.7,0.4,30.2,5.3C317.5,120.7,322.4,128.9,322.4,140.2z"/>
		<path fill="#050505" d="M459.2,108.8c5.9,0.3,13.3,1.3,20.4,4.3c13.6,5.8,20,17.9,16.9,32.4c-0.5,2.5-0.1,4.4,1.1,6.3
			c1.5,2.5,3.2,4.9,4.6,7.5c2,3.7,1.3,5.6-2.9,6.1c-2.9,0.4-3.4,1.4-2.3,3.8c1.3,2.9-0.1,5.7-0.8,8.2c-0.5,1.8-0.8,3.5-0.8,5.3
			c0,4.1-1.7,5.9-5.8,5.9c-2.2,0-4.5-0.3-6.6-0.9c-2.8-0.8-4.8,0.2-6.1,2.7c-2.2,4.4-3.2,9.1-3.5,13.9c-0.1,1.8-0.6,2.4-2.5,2.5
			c-12.3,0.1-24.5,0.4-36.8,0.5c-4.6,0-5.3-1.5-3.5-5.6c5.6-13,6.9-25.9-0.7-38.8c-6.6-11.2-6.5-23.2-2.3-35.1
			C431.9,115.2,442.6,108.7,459.2,108.8z"/>
		<path fill="#040505" d="M370.5,111.5c9.2,0,17.1,1.3,24.5,5.2c13,6.8,16.1,17.4,14.2,29.8c-0.4,2.7-0.3,4.8,1.1,7
			c1.5,2.4,3,4.8,4.4,7.2c2,3.7,1.6,4.7-2.5,5.6c-2.6,0.6-4,1.5-2.5,4.2c1.4,2.5,0,5.1-0.7,7.1c-0.7,2.2-0.8,4.2-0.9,6.3
			c-0.2,3.4-1.7,4.9-5,5.1c-2.1,0.1-4.2-0.2-6.3-0.6c-4.4-1-5.4-0.4-7.4,3.8c-1.6,3.3-2.4,6.9-2.6,10.5c-0.2,2.9-1,4.1-4.4,4.1
			c-11.2-0.1-22.4,0.3-33.6,0.5c-5,0.1-5.8-1.4-3.8-6c5.3-12.3,6.7-24.6-0.6-36.8c-5.5-9.2-6.3-19.2-4.1-29.4
			C343.5,120,354.5,110.8,370.5,111.5z"/>
		<path fill="#050505" d="M188.2,208.1c-4.7,0-9.4,0.1-14.2,0c-3.7-0.1-4.6-1.5-2.9-5c1.8-3.7,3-7.5,3.8-11.6
			c1.9-10.6-0.7-19.9-5.6-29.4c-6.1-11.7-4.9-24,1.1-35.6c3.8-7.3,10.2-11.6,18.3-13.1c12.1-2.2,23.7-0.6,34.4,5.5
			c10.1,5.8,14.8,16.7,12.3,28.1c-0.7,3-0.3,5.5,1.3,8c1.4,2.1,2.7,4.2,3.9,6.3c2.1,3.8,1.6,5.4-2.7,6.1c-2.3,0.4-3.2,0.9-2.3,3.5
			c1.1,3.1,0.3,6.2-1.3,9c-0.8,1.4,0,2.5,0,3.7c0,4.8-2.4,7-7.1,6.3c-1.3-0.2-2.6-0.3-3.8-0.6c-5-0.9-6.2-0.4-8,4.2
			c-1.5,3.6-2.2,7.4-2.5,11.3c-0.2,1.9-0.8,2.8-3,2.8c-7.2-0.2-14.4-0.1-21.6-0.1C188.2,207.9,188.2,208,188.2,208.1z"/>
		<path fill="#FDFEFE" d="M137.2,118.1c6.7,3,9.7,8.8,11.3,15.6c1,4.3,0.7,8.7-0.5,12.9c-0.5,1.9,0,3.5,0.9,5.1
			c1.7,3.1,3.5,6.1,5.4,9.1c1.2,1.9,0.6,2.7-1.4,3.1c-0.9,0.2-1.9,0.3-2.8,0.5c-1.9,0.5-2.8,1.5-1.9,3.6c1.5,3.6,0.3,7-1,10.4
			c-0.7,1.7,0,3.2,0,4.8c0.1,3.2-1.5,4.3-4.3,4c-1.9-0.2-3.7-0.6-5.6-0.9c-4.3-0.8-6.7,0.3-8.7,4.2c-2.1,4-3,8.4-3.5,12.8
			c-0.2,1.8-0.8,2.4-2.6,2.4c-11.6,0.1-23.1,0.2-34.7,0.4c-2.2,0-3.1-0.3-1.8-2.7c5.1-9.2,4.8-19.3,4.1-29.3
			c-0.3-3.6-2.3-6.9-4.2-10c-4.9-8.2-6.6-17-5.2-26.4c1.6,1.2,1.5,3.1,1.9,4.8c-0.8,3.4,2,3.6,3.9,4.5c10.3,11.9,23,14.9,37.8,10.4
			c1.7-0.5,3.5-0.5,5.2-1c2.1-0.2,4-0.8,5.6-2c0.9-0.7,1.9-1.4,2.9-2.1c3.6-2.2,5.8-5.2,5.1-9.6c-0.1-0.7,0.1-1.4,0.3-2.1
			c0.8-1.6,1.4-3.2,0.7-5c-1-5.4-3-10.4-6.3-14.9C137.6,119.9,136.9,119.1,137.2,118.1z"/>
		<path fill="#8D623F" d="M137.2,118.1c4,5.2,7.3,10.8,7.7,17.6c-2,0.9-2.3-0.9-2.5-1.9c-0.6-3.4-1.9-6.5-3.2-9.6
			c1.3,3.1,2.6,6.1,3.1,9.5c0.2,1.3,0.9,2.9-0.7,3.3c-1.9,0.5-2.1-1.5-2.3-2.8c-1-5.3-3.1-10.1-6.4-14.4c-0.3-0.3-0.5-0.8-0.9-0.9
			c4,4.5,6.2,9.8,7.2,15.7c0.2,1.3,0.8,2.9-1.3,3.4c-1.7-2.5-2.4-5.4-3.4-8.2c-1.5-5.5-5.1-9.5-9.4-13c-0.6-2.1-3-2.9-3.5-5
			C127.5,112.1,132.3,115.3,137.2,118.1z"/>
		<path fill="#F4F6F6" d="M89.7,118.6c7.3-7.1,16.3-8.3,25.9-7.4c-4.1,4.1-9.1,6.8-14.2,9.2c-2.9,1.4-6.2,2.4-9.5,0.8
			C91.1,120.4,89.5,120.3,89.7,118.6z"/>
		<path fill="#DCDADD" d="M89.7,118.6c0.5,1,2.2,0.6,2.2,2.1c0.9,1.7,2.5,1.5,4,1.3c2.6-0.4,5-1.2,7.5-2.1c0.6-0.3,1.4-0.4,1.9,0.3
			c0.4,0.6-0.1,1.2-0.5,1.5c-3.4,2.3-7,4.3-11.3,3.6c2.2,0.6,3.7,0.4,7-1c1.3-0.5,2.5-1.5,4-0.9c0.1,1.1,1.1,1.6,1.5,2.6
			c0.4,1.7,0.2,3.4-1.1,4.7c-1,0.6-2.1,0.2-3.2,0.3c-2.3-0.2-2.6,1.2-2.7,3c0,0.9,0,2.2-1.1,2.3c-1.2,0.1-1.2-1.2-1.3-2.1
			c-0.2-1-0.4-2.1-1.5-2.6c-0.9-0.4-1.8-0.9-2.1-1.9c-0.2-2.1-2.1-1.8-3.4-2.2c-1.4-0.6-2.7-1.5-4.2-0.2c-0.7,0-1.2-0.3-1.4-1.1
			C85.5,123.5,87,120.6,89.7,118.6z"/>
		<path fill="#254799" d="M104.7,123.6c-2.3,0.8-4.6,1.7-6.9,2.5c-2.3,0.8-4.4,0.1-6.5-0.7c-0.4-0.1-0.9-0.4-0.7-1
			c0.2-0.9,0.8-0.6,1.4-0.4c5.3,2.1,9.2-0.9,13.2-3.7c-2.5,0.8-4.9,1.6-7.4,2.3c-1.7,0.5-3.5,0.5-5.3,0.1c-1.3-0.3-1.6-0.9-0.5-1.9
			c5.1,1.1,9.4-0.7,13.6-3.3c3.4-2.1,6.5-4.6,10.1-6.2c0.6-0.1,1.2-0.1,1.8-0.2c1.1,0.3,1.9,0.9,2,2.2c-0.1,1.9-1.8,1.9-3,2.4
			c-3.5,1.1-6,3.6-8.4,6.3C107,122.9,106.3,124.2,104.7,123.6z"/>
		<path fill="#DDDBDC" d="M118.7,113.2c-0.5-0.7-1-1.4-1.4-2.1c1.6-0.9,2.9-0.1,4.2,0.7c1.2,1.6,3.8,2.1,3.8,4.7
			c-1.1,1.2,1.1,3.2-1.1,4.1c-2.4,0.7-4.7,1.8-7,2.8c-2.4,0-3.5-1.4-4-3.6c0.3-2.4,2.4-2.9,4.1-3.6
			C118.8,115.5,119.8,114.9,118.7,113.2z"/>
		<path fill="#8E5CA1" d="M84.1,126.3c0.4,0.3,0.9,0.5,1.3,0.8c1.2,1.8,0,3.4-0.5,5.1c-1.1,2.9-1.5,5.8-0.4,8.7
			c0.1,0.3,0.1,0.7,0.2,1.1c-0.1,0.8-0.2,1.6-1.2,1.8c-0.8,0.2-1.2-0.4-1.5-1.1c-0.4-1.7-0.7-3.4-1.1-5.1
			C81.7,133.8,81.7,129.7,84.1,126.3z"/>
		<path fill="#FDFDFE" d="M308.1,118.8c7.5,3.6,10.9,10,11.9,17.9c0.4,3.1,0.4,6.3-0.5,9.5c-0.7,2.6-0.4,5.1,1.1,7.4
			c1,1.6,2,3.2,3,4.8c3.1,4.9,3.1,4.9-2.3,6.5c-2.2,0.6-2.4,2.1-1.8,3.8c1.5,3.7,0.1,6.9-1.2,10.1c-0.5,1.3,0.1,2.3,0.2,3.4
			c0.6,4.1-1,5.7-5.2,5.2c-1.5-0.2-3-0.5-4.5-0.8c-4.6-0.9-6.7,0-8.8,4.3c-1.9,3.8-2.9,7.9-3.3,12.2c-0.2,2-0.9,2.5-2.8,2.6
			c-11.2,0.1-22.4,0.2-33.6,0.5c-2.8,0.1-3-0.6-2-3.1c5.2-12.9,7.1-25.8-0.4-38.6c-5.4-9.2-6.5-19-4.4-29.3c2.6,1.2,1.9,3.9,2.5,5.9
			c0.5,1.8,1,2.8,3,1.6c7.6-1.4,15.2-1,22.7,0.9c1.2,0.4,2.5,0.6,3.8,0.5c2.9-0.1,4.5,1,4.2,4.1c-0.2,2.5-1.4,4.4-3.9,5.3
			c-4,0.8-8,0.5-11.8-0.9c-3.3-2.4-7-3.9-10.8-5.4c-0.9-0.4-1.7-0.8-2.6-0.9c-0.9-0.1-1.6,0.3-1.8,1.2c-0.7,2.9,2.3,7,5.3,7.2
			c0.2,0,0.5,0.1,0.7,0.1c12.5,7.8,25.6,6.5,39,2.8c6.7-1.8,11.5-6.7,11.1-14.4c0-0.7,0.1-1.4,0.2-2.1c0.4-1.4,0.5-2.8,0.4-4.2
			c-0.9-5.8-2.9-11.3-6.7-15.9C308.3,120.4,307.8,119.7,308.1,118.8z"/>
		<path fill="#F6F7F7" d="M254.8,131.3c0-1.3,0.5-2.4,1.4-3.4c1.8-0.7,3.4,0.6,5.2,0.6c8,3.2,13.9-0.6,19.6-5.6c1.2-1,2.1-2.6,4-2.5
			c1.7,0.5,2.6,2.1,4.3,2.7c5.2,3.2,9.3,7.5,12.7,12.4c1,1.4,1.9,3,1.7,4.9c-0.1,1.2-0.1,2.3,1.5,2.5c1,0.1,1.8,0.5,1.9,1.6
			c-1.5,4.4-6.4,7.6-10.5,7c-0.6-0.8-0.4-1.8-0.2-2.7c0.7-4.4-0.3-8.3-3.6-11.4c-1.8-3.1-3.1-0.4-4.6,0.3c-2.7,0.1-5.1-0.9-7.5-1.7
			c-6.1-2-12.3-3-18.7-1c-1.1,0.3-2.3,0.4-3.5,0.2C256.7,134.3,254.3,134.2,254.8,131.3z"/>
		<path fill="#8D613F" d="M308.1,118.8c4.6,5,7.2,10.9,8.4,17.5c-1.8,2.3-2.5,0.9-2.7-0.9c-0.4-3.6-1.6-6.9-3.3-10
			c1.7,3.3,3,6.7,3.3,10.5c0.1,1.1,0,2-1.2,2.2c-1.3,0.2-1.5-0.8-1.7-1.8c-1.3-6.2-3.4-12-7.9-16.6c4.4,4.6,6.4,10.2,7.7,16.3
			c0.2,1.1,0.5,2.4-1.2,2.8c-2.1-2.1-2.2-5.1-3.5-7.5c-1.9-5.5-5-10.3-10-13.6c-0.2-2-2.7-2.5-2.8-4.5
			C298.8,113.3,303.4,116.2,308.1,118.8z"/>
		<path fill="#F4F5F6" d="M262,119.5c7.1-6.7,15.8-7.8,25-7c-6.3,5.1-12.3,10.8-21.3,10.3C264.1,122.2,262.2,121.8,262,119.5z"/>
		<path fill="#224598" d="M265.5,122.1c4.8,0.6,8.7-1.6,12.5-4c3-1.9,6-3.7,9-5.6c0.6,0,1.3-0.1,1.9-0.1c0.9,0.5,1.9,1,1.8,2.3
			c-0.5,1.8-2.2,1.8-3.6,2.4c-2.5,1.1-4.5,2.8-6.2,5c-0.8,0.9-1.6,1.7-2.6,2.3c-2.1,0.8-4,1.9-6,3c-2.6,1.1-5.3,1.1-7.9,0.5
			c-1.2-0.3-2.3-1-2-2.4c0.3-1.7,1.6-0.9,2.5-0.8c2.9,0.5,5.6,0,8.2-1.1c0.9-0.4,1.7-1,2.7-1.3c-1.4,0.4-2.4,1.2-3.6,1.6
			c-2.3,1-4.7,1.2-7.2,0.8c-0.9-0.2-2.1-0.4-1.8-1.6C263.5,121.5,264.6,122,265.5,122.1z"/>
		<path fill="#DBDADF" d="M274,123.6c-3.2,1.5-6.3,3.2-10,1.6c-0.4-0.2-1.1-0.6-1.4,0.3c-0.2,0.8,0.4,0.9,1,1.2
			c3,1.2,5.9,0.7,8.9-0.2c0.8-0.3,1,0.2,1,0.9c-2.4,2.8-5.6,2.3-8.7,2.2c-1.1,0-2.2-1.1-3.3-0.2c-1.9,0.2-3.6-0.7-5.3-1.4
			c1.2-3.3,3.1-6.1,5.9-8.4c1,1.1,2.2,1.9,3.5,2.6c-0.7,0.3-1.9-0.4-2.1,0.7c-0.2,1.3,1.1,0.9,1.8,1c2.7,0.3,5.3-0.2,7.9-1
			C274,122.5,274.1,122.9,274,123.6z"/>
		<path fill="#DED9DF" d="M254.8,131.3c0.5,2,2.4,2.3,3.8,3.1c1.2,1.3,2.5,0.5,3.8,0.2c5.1-1.2,10.1-1,15.2,0.3
			c1.1,0.3,2.3,0.5,3,1.6c-0.1,1-0.8,1.2-1.5,1.4c-2.5,0.3-4.8-0.5-7.2-0.8c-4.3-0.5-8.5,0-12.6,1.3c-0.4,0.5-0.5,0.9,0,1.4
			c0.5,0.3,1.1,0.4,1.5,0.9c0.1,0.3,0.1,0.6,0,0.9c-0.7,0.6-1.6,1-2.2,1.8c-1.2,2.1-2.2,2-2.8-0.3c-0.7-2.7-0.6-5.5-2-8
			C254,133.8,253.9,132.4,254.8,131.3z"/>
		<path fill="#DCDBDB" d="M290.4,114.4c-0.5-0.7-0.9-1.3-1.4-2c1.6-1.2,2.9-0.1,4.3,0.7c0.6,1.6,3.9,1.3,3,4.1
			c-0.2,1.4,1.6,2.9-0.3,4.2c-2.2,1.1-4.4,2.1-7,2.3c-2-0.2-2.9-1.6-3.7-3.2c0.5-2.2,2.6-2.6,4.2-3.2
			C291.4,116.6,290.9,115.6,290.4,114.4z"/>
		<path fill="#FEFEFE" d="M490.2,123.5c4.8,6.8,5.7,14.3,3.9,22.2c-0.6,2.5,0.1,4.7,1.3,6.7c1.5,2.5,3,5,4.7,7.5
			c1.5,2.2,0.7,3.1-1.6,3.4c-0.7,0.1-1.4,0.4-2.1,0.5c-2.3,0.3-3,1.5-2.1,3.7c1.3,3.6,0.3,7-1.2,10.3c-0.7,1.5,0.2,3,0.2,4.5
			c0.1,3.1-1.2,4.4-4.2,4.1c-1.9-0.2-3.7-0.5-5.6-0.9c-4.4-0.8-6.8,0.3-8.9,4.4c-2,3.9-2.8,8.2-3.3,12.5c-0.2,1.7-0.7,2.1-2.3,2.1
			c-11.3,0.1-22.7,0.3-34,0.6c-3.2,0.1-3.1-0.8-2.1-3.4c5.3-13,7-26-0.6-38.9c-5.5-9.2-6.3-19-4.2-29.3c2.7,1.1,1.9,3.8,2.4,5.8
			c0.5,2.5,1.5,3.3,3.8,1.9c4.3,0.1,8.5-1,12.8-0.4c1.4,1.1,1.7,2.4,0.9,4c-3.8,1.3-7.6-0.3-11.3,0.1c-3.2,0-3.5,0.3-2.9,3.3
			c1.1,5.4,1.1,5.4,7.5,3.7c3.9-0.5,7.6-0.1,11.2,1.4c1.1,0.7,2,1.6,2.7,2.7c0.7,1.7,1,3.8,3.4,4c2.3,0.2,3.3-1.5,4.4-3.1
			c0.5-0.8,0.9-1.7,1.5-2.4c1.9-2.5,2.5-2.3,4.3,0.3c2.6,3.7,4.6,6.6,8.5,3.2c0.5-0.4,1.1-0.7,1.7-1.1c3.6-1.2,6.5-3.7,10-5.2
			c3-1.4,2.6-5.1,2.4-8c-0.2-2.8-1.5-5.2-4.8-5.7c-0.7-0.1-1.4-0.1-2.1-0.1c-1.7-0.2-3.4-0.5-4.2-2.4c0.7-2.2,2.9-1.2,4.2-2
			c2.9-1,4-3.3,4.3-6.2C488.8,126,488.3,124.3,490.2,123.5z"/>
		<path fill="#8C603E" d="M490.2,123.5c-1.1,1.2-0.1,2.7-0.3,4c-0.4,3.3-1.6,6.1-5.2,7c-0.6,0.2-1.1,0.2-1.7,0.1
			c-0.9,0-1.9-0.3-1.7-1.2c0.2-1.4,1.4-0.7,2.9-0.8c-1.8-0.1-3.3,0.3-4-1.2c-0.6-1.3,0-2.2,1-3c1.2-0.8,2.2-1.8,1.6-3.4
			c-0.5-1.6-1.7-2.4-3.4-2.5c-0.8-0.1-1.6-0.1-2.4-0.3c-1.6-1.1-1.9-2,0.5-2.4c1.4-0.3,2.9-0.5,4.3,0c1.7,0.7,2.8,2,3.9,4.1
			c-0.9-1.9-1.8-2.9-3.1-3.7c-1.7-1-3.5-0.7-5.3-0.4c-2.2-0.3-2.2-0.3-1.8-2.1c0-0.1,0.4,0,0.3-0.1c-1.3-0.2-2.5-0.5-1.4-2.2
			c0.8-1.2,2.2-0.4,3.3-0.9c0.6,0.3,1.2,1,1.8,1C485,115.7,488,119,490.2,123.5z"/>
		<path fill="#DCDBDD" d="M430.6,126.4c1.2-3.1,2.9-5.8,5.6-7.8c1.6-0.5,2.1,0.7,2.8,1.8c0.7,2,2.4,1.7,3.9,1.4
			c2.1-0.4,4.1-1,6.1-1.8c0.7-0.3,1.7-0.7,2.2,0.3c0.5,0.9-0.4,1.5-1.1,2c-3.3,2.2-6.9,3.7-11,2.7c3.2,0.8,6.2,0.2,9.1-1.4
			c1.1-0.6,2.3-1.4,3.7-0.9c0.5,1.5,1.9,0.8,2.9,1.2c1,0.3,2.1,0.5,3,0.9c1.5,0.6,2.2,1.6,2.2,3.2c-0.1,1.6-0.8,2.7-2.5,2.7
			c-2.3-0.8-2.8,1.4-4,2.4c-0.3,0-0.6-0.1-0.9-0.3c0-2.6-1.3-4-3.9-4.2c-0.3-0.1-0.6-0.3-0.9-0.5c-0.5-0.6-1.1-0.8-1.9-0.5
			c-2.4,1-4.9,1.3-7.4,0.3c-1.2-0.5-1.6,0.6-2.3,1.1C433.7,129.4,431.9,128.5,430.6,126.4z"/>
		<path fill="#F4F5F6" d="M438.6,120.7c-0.6-0.9-1.3-1.7-2.3-2.1c7.1-7.2,16.1-8.2,25.5-7.4c-5.6,5.1-11.7,9.2-19.3,10.5
			C441.1,121.9,439.6,122,438.6,120.7z"/>
		<path fill="#28489A" d="M438.6,120.7c4.6,1,8.6-0.6,12.4-2.8c3.6-2.2,6.9-5,10.8-6.6c0.6,0,1.1-0.1,1.7-0.1
			c2.1,0.8,4.2,2.4,4.1,4.4c-0.1,1.9-3,1.8-4.7,2.5c-0.8,0.3-1.6,0.5-2.4,0.4c-2.1-0.2-1.2-1.2-0.5-2c-0.9,0.5-1.3,1.6-2.2,2.2
			c-1.7,1.1-2.9,2.6-4.4,3.9c-0.4,0.3-0.8,0.6-1.3,0.6c-2.1,0-3.6,1.5-5.5,2.2c-2.8,1.1-5.5,1.3-8.2,0.3c-0.6-0.2-1.6-0.3-1.3-1.2
			c0.3-1,1.1-0.5,1.7-0.3c4.9,1.5,8.7-0.9,12.3-3.6c-3.6,1.3-7.2,2.7-11.2,2.3C438.2,122.6,438.1,122.3,438.6,120.7z"/>
		<path fill="#DDDCDD" d="M457.1,118.1c1.3-1.3,2.8-2.4,4.9-2.9c-0.6,1.2-2.2,1.2-2.5,2.5c2.7,0,5.1-1.3,7.9-2
			c-1.4-1.7-2.7-3.2-3.9-4.7c2.8-1.5,4.7,1.4,7.2,1.5c2.4,0.1,4.7,1.3,7,1.9c-0.7,1.4-2.5,0.3-3.5,1.7c2,0.1,0.5,3.7,3.4,3.1
			c0.2,0.2,0.3,0.3,0.2,0.4c-0.1,0.1-0.2,0.2-0.3,0.2c-0.5,0.1-1.2,0-1.3,0.7c-0.1,1,0.8,0.9,1.4,1c-0.2,2.3-2,2.3-3.5,2.5
			c-1.5,0.2-2.2-1-2.7-2.3c-0.5-1.3-0.9-2.6-1.9-4.3c0,1.5,0.2,2.7-1.1,3.1c-1.6,0.5-3.3,0.9-5,1c-0.8,0-1.6,0-2.4,0.3
			c-0.3,0.1-0.6,0.2-0.9,0.2c-1,0.1-1.9-0.2-2.5-1.1c-0.3-0.7-0.4-1.5-0.8-2.2C456.7,118.5,456.8,118.3,457.1,118.1z"/>
		<path fill="#F3F3F5" d="M430.6,126.4c2,0.7,3.6,2.4,5.9,2.1c0.4-0.3,0.9-0.6,1.3-0.5c3.4,1.5,6.7-0.5,10-0.1c0.2,0,0.4,0,0.6,0
			c1.1,1.7,0.4,3.2-0.7,4.5c-1,0.7-2.2,0.7-3.4,0.6c-3.9-0.3-7.6,0.5-11.3,1.2c-1.7-0.3-2.9-1.5-4.4-2.1
			C428.7,130.1,429.5,128.2,430.6,126.4z"/>
		<path fill="#DEDADE" d="M428.7,132.2c1.7-0.8,2.8-0.3,3.4,1.4c1.3,1.3,2.7,0.3,3.9,0c3.9-0.9,7.8-1.1,11.7-0.2
			c0.4,0.5,0.5,1,0.2,1.6c-1.4,1.4-3.3,0.9-5,1c-2.4,0.1-4.9-0.1-7.3,0.5c-1.5,0.4-2.2,1.1-2,2.7c0,0.3,0,0.7,0,1
			c0.1,0.7-0.1,1.4-0.2,2.1c-2,2.1-3.1,1.9-3.7-1.2c-0.5-2.5-0.2-5.2-1.8-7.4C428.3,133.1,428.5,132.7,428.7,132.2z"/>
		<path fill="#FEFEFE" d="M402.9,125.7c4.4,5.9,5.4,12.6,4.2,19.5c-0.7,4.1-0.3,7.4,2.1,10.6c1.2,1.6,2,3.4,3.2,5.1
			c1.7,2.3,0.6,3.2-1.7,3.6c-0.5,0.1-0.9,0.2-1.4,0.2c-2.5,0.3-3.3,1.7-2.4,3.9c1.5,3.5-0.1,6.5-1.2,9.6c-0.4,1-0.2,1.8,0,2.7
			c0.9,4.9-0.3,6.2-5.3,5.8c-1.5-0.1-3-0.4-4.5-0.8c-3.7-0.9-6.1,0.7-7.8,3.8c-2,3.8-3,7.9-3.4,12.1c-0.2,1.8-0.6,2.7-2.7,2.7
			c-10.9,0.1-21.7,0.3-32.6,0.6c-3,0.1-3.3-0.5-2.2-3.3c5-12.5,6.8-25.2-0.5-37.6c-5-8.5-6.5-17.6-4.5-27.2c2.6-0.6,2.2,1.6,2.4,2.8
			c0.5,2.8,1.5,4.1,4.6,3.4c2.6-0.5,5.4,0.2,8-0.6c5.8-0.9,11.3,1.4,17,1.3c1.4,0.3,2.7,0.9,3.6,2.1c1.1,3.9-1.3,5.9-4.1,7.8
			c-3.6,0.8-6.9-0.1-10.3-1.1c-4.2-2.6-8.7-4.6-13.4-5.9c-1.8-0.6-2.7-0.3-2.3,1.9c0.7,4.4,1.5,5.6,4.5,5.8c1.5,0.2,2.6,1.1,3.9,1.7
			c13,6.2,25.9,4.6,38.8-0.2c4.8-1.8,7-5.8,7.2-10.8c0-1.2,0-2.4,0.2-3.5c0.8-2.5,0.1-3.5-2.6-2.8c-1.3,0.4-2.7,0.6-4.1,0.2
			c-7.5-3.2-11.8-9.1-14.4-16.6c0.1-1.2-0.4-1.9-1.3-2.6c-0.6-0.4-1.6-0.8-0.9-1.8c0.4-0.3,0.9-0.5,1.4-0.6c1.8-0.3,3.5-0.9,4.4,1.8
			c1.7,5.2,1.8,5.1,6.9,3.5c2.4-0.4,4.1,0.7,5.1,2.8c1,2,0.9,3.8-1,5.4c-2.1,1.7,0.5,2.2,0.9,3.3c0.5,1.7,1.5,0.5,2.1,0.2
			c2-1.2,2.5-3.2,2.7-5.4C401.6,128,401.1,126.4,402.9,125.7z"/>
		<path fill="#F5F6F7" d="M343.4,132.7c0.2-1.5,0.6-2.9,1.6-4c2.2-0.6,3.8,1.5,5.9,1.2c6.9,2.1,12.2-1,17.1-5.4
			c1.1-1,2.1-2.2,3.9-2.1c1,0.1,1.8,0.6,2.4,1.4c0.7,4.1,1.4,8.3,3.1,12.2c-0.2,1.6-1.3,1.9-2.6,2.1c-3.9-0.2-7.4-2.1-11.2-2.8
			c-4.3-0.8-8.4-0.5-12.6,0.3c-1.3,0.3-2.5,0.5-3.8,0.3C345.5,135.2,343.6,135,343.4,132.7z"/>
		<path fill="#8C603E" d="M402.9,125.7c-0.9,1.8,0,3.6-0.5,5.5c-0.8,3.3-3.5,5.6-6.5,5.3c-0.6,0-1.3,0.1-1.4-0.7
			c0-0.2,0.2-0.8,0.4-0.8c1.2-0.3,1.8-0.2,0-0.6c-1.8-0.4-2.5-2.5-0.9-3.1c2.4-1,3.2-2.1,2.5-4.4c-0.7-2.3-2.3-3.4-4.8-3
			c-0.7,0.3-1.4,0.2-2.1,0.2c-0.7-0.1-1-0.5-0.9-1.2c0.1-0.5,0.5-0.8,1-0.8c1.1-0.1,2.3-0.1,3.5,0c-0.7-0.2-1.4-0.2-1.9-0.1
			c-3.1,1.1-3.7-1.9-3.8-3.2c-0.2-2.3,2.3-1,3.6-1.4c1.2,0.3,2.5,0.6,3.7,0.8C399,119.1,401.1,122.3,402.9,125.7z"/>
		<path fill="#234699" d="M380.4,118.7c-0.4,0.1-0.9,0.1-1.3,0.2c-1.7,1.6-3.6,2.2-5.9,1.8c-0.6,0.3-0.3-2.4-1.4-0.4
			c-0.4,0.7-1,1.3-1.5,1.9c-1.8,2.4-4.3,3.9-7,5.2c-3.3,1.1-6.6,2.7-10.2,1.4c-1.1-0.4-2.6-0.6-2.3-2.1c0.3-1.5,1.7-1.2,2.9-1
			c3.8,0.8,7-0.9,10.1-2.4c0.3-0.5-0.5-0.4-0.1-0.2c0.2,0.1,0.2,0.2-0.1,0.3c-2.7,1.4-5.5,2.7-8.7,2.4c-1.6-0.1-3.5-0.2-3.1-2.8
			c0.7-0.8,1.6-0.9,2.6-0.9c4.7,0.2,8.6-1.8,12.3-4.3c2.5-1.7,5-3.4,8.1-3.9c0.7,0,1.5-0.1,2.2-0.1
			C379.1,114.7,381,115.8,380.4,118.7z"/>
		<path fill="#F4F5F6" d="M374.8,113.8c-2.8,1.7-5.6,3.3-8.3,5.2c-4.4,3-9.1,4.7-14.5,4c-0.9-0.5-1.9-0.9-1.5-2.3
			c5.2-5.3,11.8-7,19-7C371.3,113.7,373.1,113.8,374.8,113.8z"/>
		<path fill="#D8D8DE" d="M350.6,120.7c0.4,0.8,1.6,1.1,1.5,2.3c-0.3,2.8,2,1.9,3.2,2c3.5,0.1,6.7-1.5,10-2.4
			c-3.7,2.7-7.5,4.9-12.3,3.5c-0.7-0.2-1.5-0.5-1.8,0.4c-0.3,1,0.7,1.1,1.3,1.3c2.5,0.9,5,0.8,7.6-0.2c1.1-0.4,2.1-1.2,3.3-1
			c-1.1,2.9-5.4,4.7-9.3,4c-1-0.2-2.1-1.3-3.2,0.1c-2.3,0.5-4-1.2-5.9-1.9C346,125.4,348,122.8,350.6,120.7z"/>
		<path fill="#DCDADA" d="M380.4,118.7c-0.1-2.4-2.5-3.1-3.3-5c0.5-0.6,1.4-0.9,1.9-0.6c3.7,2.4,8.4,2.1,12.1,4.2
			c-1.2,0.3-2.4,0.6-3.6,1c3.2,3,3.2,3,7.3,3.7c-1.8,0.1-3.6,0.2-5.5,0.4c0.3,1.9,1.7,1,2.5,1.4c-0.3,0.2-0.6,0.4-0.9,0.6
			c-5,1.9-5.7,1.8-6.6-3.4C383.7,117.8,382.2,118.4,380.4,118.7z"/>
		<path fill="#DAD3DC" d="M343.4,132.7c1.3,0.8,2.6,1.6,3.8,2.5c0.2,0.8,0.9,1.1,1.5,1.5c0.3,0.2,0.5,0.4,0.6,0.7
			c-0.1,1.2-1.5,1.1-1.9,2c-0.1,0.8,0.4,1.1,1,1.1c3.5-0.7,7-0.7,10.5-0.6c0.8,0,1.7,0,2.5,0.2c1.2,0.3,3.1,0.4,3.1,1.8
			c-0.1,1.7-2.1,1.2-3.2,1c-3.3-0.5-6.5,0.5-9.8,0c1.9,0.5,3.9-0.6,5.4,0.9c-3.6,1.4-7.4-0.1-11,1.1c-1.2,0.4-1.4-1-1.8-2.1
			c-0.7-1.8,0.3-4.3-2-5.5C342.3,135.6,342.6,134.1,343.4,132.7z"/>
		<path fill="#FEFEFE" d="M233.5,138.6c0.3,3.1,0.4,6.1-0.5,9.1c-0.8,2.8-0.2,5.3,1.4,7.7c1.5,2.3,2.7,4.7,4.2,6.9
			c1.3,2,0.7,2.7-1.5,3.2c-4.8,1-4.9,1.1-3.5,5.6c0.8,2.6-0.9,4.7-1,7.2c0,1.4-0.7,3.2-0.6,5.1c0.4,3.6-1.2,4.9-4.8,4.4
			c-1.2-0.2-2.3-0.3-3.5-0.5c-6.3-1.2-8.4,0-10.7,6.1c-1.1,3.1-2,6.3-2.2,9.6c-0.1,1.9-0.9,2.6-2.9,2.6c-10.9,0.1-21.7,0.2-32.6,0.4
			c-2.8,0.1-3-0.5-1.9-3.1c5-12.3,6.9-24.6-0.1-36.9c-4.1-7.3-6.6-15-5.3-23.6c1.8,0.3,1.9,1.8,2.3,3.1c0,2,1.1,3.2,2.9,3.9
			c1.9,1.1,3.5,2.4,5,3.9c6.3,6.2,13.9,8.8,22.7,7.7c6.3-0.8,12.6-1.8,18.5-4.5c5.2-2.4,9.4-5.6,9.2-12.1
			C229.8,141.9,229.9,138.8,233.5,138.6z"/>
		<path fill="#F9EA28" d="M205.7,114.4c8.3,1.8,16,4.8,22.1,11c1.7,3,3.5,6.1,4.4,9.5c0.4,1.7,0.5,3.1-1.8,3.2
			c-1.2-0.4-1.5-1.4-1.8-2.4c-1.4-5.6-3.9-10.6-8.9-13.3c0.9,1.1,2.5,2.2,3.7,3.6c1.8,3.7,3.6,7.4,4.3,11.5c0,1.2-0.3,2.1-1.7,2.1
			c-1.1,0-1.6-0.8-2-1.7c-0.9-1.9-1.1-4-2.4-5.7c-2-3.6-3.3-7.6-6.1-9.8c-0.8-0.9-1-0.1-0.7-0.5c0-0.1,0.1,0,0.2,0.1
			c4.8,5.1,7.5,11,7,18.2c-0.3,0.9-0.8,1.5-1.9,1.3c-1.3-0.7-0.9-2.1-1.1-3.2c-1-5.1-3-9.8-6.4-13.8c2.4,4.4,5.6,8.4,6.3,13.6
			c0.2,1.3,0.5,2.5-0.2,3.8c-0.3,0.2-0.6,0.3-1,0.3c-2.7-3.7-4.4-8-6.4-12c-1.4-3.4-4-6.2-4.3-10.1
			C207.7,118.1,204.1,117,205.7,114.4z"/>
		<path fill="#234699" d="M205.7,114.4c0.4,0.9,0.1,2.1,1.5,2.7c1,0.5,2.2,1.9,0.7,3.3c-2.3,3.5-5.8,3.3-9.3,3.4
			c-1.5,0.1-3,0.5-4.4,1.1c-4.1,1.3-7.5,4.1-11.6,5.4c-2.4-0.8-2-2.1-0.3-3.2c1.7-1.2,3.6-1.9,5.5-2.8c-2.4,1.1-4.6,2.3-6.9,3.4
			c-4,1.9-5.9,0.2-5.4-4.3l-0.1,0.1c2.3-1.4,3.8-3.8,6.4-4.9c4.2-3.4,9.4-3.8,14.5-4.3C199.4,114.2,202.6,114.4,205.7,114.4z"/>
		<path fill="#DDDBDD" d="M175.5,123.6c-0.6,1.2,1.1,2.1,0.4,3.5c-0.3,0.6,0.5,0.5,1.1,0.5c3.1,0.2,5.5-1.8,8.2-2.8
			c1.3-0.5,2.6-0.9,4.1-1.1c-2,1.8-4.2,3.2-6.7,4.3c-2.1,0.9-1,1.5,0.4,2c2.5,1.1,4.7,2.4,5.6,5.2c-3.2,4.6-3.7,4.7-7.9,1.6
			c-1.5-1.1-3-2.3-4.5-3.3c-1.1-0.9-2.5-1.5-2.4-3.4c0-0.5-0.7,0.1-1,0.1c-0.8,0.1-1.1-0.4-1.3-1C172.6,127.1,173.4,125,175.5,123.6
			z"/>
		<path fill="#DEDBDA" d="M230.1,137.5c2.1,0.5,2.2-0.4,1.6-2c-1.3-3.3-2.5-6.7-3.8-10c3.3,3.7,5.3,8.1,5.6,13.1
			c-2.1,1.4-2.9,3.7-4.2,5.7c-3-0.5-4.7,0.8-5.3,3.7c-0.6,0.8-1.3,1.5-2.5,1.3c-1.3-1.2,0.7-2.6-0.2-3.8c-1.3,0-2.5,2.4-3.9,0.2
			c-0.4-1.3-0.5-2.6,0.7-3.6c0.2,0,0.4,0,0.5-0.1c0.5-0.3,0.7-1.2,1.6-0.7c1,0.1,1.4-0.4,1.5-1.3c1.6-1.2,0.7-2.7,0.6-4.2
			c-0.1-1.5-1.2-2.9-0.5-4.4c2.4,1.4,2.2,4.1,3.2,6.2c0.3,0.7,0.1,1.8,1.4,1.6c1.2-0.2,0.7-1.3,0.8-2c-0.4-0.7-0.4-1.3,0.4-1.7
			C228.8,135.7,228.7,137.5,230.1,137.5z"/>
		<path fill="#874F9C" d="M171.5,129.2c0.4,0.3,0.5,1,1.2,0.9c1.1,2,0,3.8-0.6,5.6c-1.1,2.6-0.5,5.2-0.4,7.9c0,1.3,0.3,2.7-1.9,2.2
			c-0.8-1-0.5-2.5-1.6-3.4C168.8,137.9,168.6,133.2,171.5,129.2z"/>
		<path fill="#DDDBDD" d="M181.8,118.8c-2.1,1.6-3.7,4-6.4,4.9C177.1,121.4,178.8,119.3,181.8,118.8z"/>
		<path fill="#224497" d="M129.7,157c-8,2-16.1,4.3-24.5,2.8c-3.6-0.6-6.9-2.2-9.9-4.3c-3.4-2.5-6.5-5.3-9.3-8.4
			c-0.6-1.8,0.6-2,1.9-2.1c5.1,3,10.6,4.9,16.6,5.6c0.8,0.1,1.5,0.4,2.2,0.5c4,0.9,8.2,0.4,12,2.2c0.5,1.4-0.7,1.2-1.4,1.2
			c-6.2,0.5-12.3,0-16.8-1.5c5.8,1.3,13.1,3.2,20.5,0.3c2.5-0.4,4.9-1.1,7.3-1.7c2.5-0.6,4.8-1.8,7-3.1c1.6-1,3-2.2,2.8-4.4
			c-0.2-1.5-0.7-3.3,1.3-3.7c1.6-0.3,3.6-2.5,5,0.4c0,0.1-0.1,0.2-0.1,0.3c1.3,7-3.1,10.7-8.3,13.8C134,155.5,132,156.6,129.7,157z"
			/>
		<path fill="#E1DDDC" d="M144.5,140.7c-3.5-1.4-5.9,0.2-5.7,3.8c-0.4,1.1-0.8,2.2-2.4,2c-1-1.1,0.5-2.4-0.3-3.5
			c-1.1-0.1-1.8,1.2-2.9,0.8c-2-0.7-3.6-1.6-2.2-4.2c1.2-0.6,1.3-1.7,1.5-2.9c0.1-1,1.4-1.5,1.6-0.5c0.5,3.3,2.9,0.7,4,1.6
			c1.2-1.1,0.4-2.4,0.2-3.6c-1.3-6.5-3.9-12.4-8.4-17.4c6.9,4.9,9.6,12.2,11.4,20.1c1-5.2-1.4-9.7-3.2-14.3c2.8,3,3.9,6.7,4.9,10.6
			c0.3,1.1-0.2,2.9,2,2.6C146.7,137.5,145,139,144.5,140.7z"/>
		<path fill="#DFDADB" d="M88.3,145.4c-1,0.2-2.2,0.2-2.3,1.7c-3.1,0.1-5-0.8-4-4.4c2,1.7,2,0.1,2-1.3c1.3-1,2.1-3.4,4.4-1.6
			c0.3-0.1,0.6-0.1,0.9-0.2c0.9-0.1,1.7-0.3,2.6-0.6c3.2,0.3,3.7,1.1,2.6,4.5c-1,1-0.1,1.3,0.6,1.7c1.4,0.8,3.2,0.8,4.1,2.5
			c0,0.4-0.1,0.7-0.3,0.9c-2.9,0.7-5.4-0.7-7.8-2C90.1,146.3,89.5,145.3,88.3,145.4z"/>
		<path fill="#C6695E" d="M129.7,157c2-1,4-2.2,6.4-2.2C134.2,156.2,132.2,157.4,129.7,157z"/>
		<path fill="#F3EB3C" d="M138.1,137.8c-2.4,1.6-4.1,1.1-4.7-2c-1.2,1.4,1.6,3.9-1.7,4.2c-3.3-6.4-7.8-11.9-13.8-16.1
			c-0.3-0.2-0.4-0.6-0.5-0.9c2-1.9,4.4-2.7,7.1-2.9c5,1.5,8,5.2,10.6,9.5C136.3,132.1,137.7,134.8,138.1,137.8z"/>
		<path fill="#F4F4F0" d="M135,129.5c-3.2-3.6-6.6-6.9-10.6-9.5c1-1.6-0.6-2.5-1-3.6c0.7-0.7,1.3,0.3,1.9,0.1
			C130.6,119.3,133.4,124,135,129.5z"/>
		<path fill="#F6F7F8" d="M117.4,122.9c6.4,4.3,12.3,9,14.3,17c-2,2.7,1.4,2.5,2,3.7c-1,4.3-4.8,4.9-8.1,5.5
			c-4.1,0.8-8.4,0.9-12.5-0.1c-1.3-0.6-0.9-1.3-0.1-2c2.5-2.4,2.5-2.4-0.6-4.2c-3.6-2-5.9-5.2-7.7-8.8c-0.5-1-1.1-2.1-0.2-3.3
			c0.6-1.7,1-3.4,0.8-5.2c2.5-2.6,4.5-5.8,8.4-6.4C114.1,121.3,115.3,122.6,117.4,122.9z"/>
		<path fill="#ED2A2C" d="M95.4,130.8c3.2,0.5,1.2,3.5,2.5,4.8c1-1.8-1.3-6.3,3.8-5.4c0.8,0.7,0.9,1.8,1.4,2.7
			c1.2,3.8,3.4,6.9,6.2,9.6c0.6,0.6,1.5,1.4,0.8,2.4c-0.6,0.9-1.6,0.8-2.5,0.2c-3.9-3-5.4-5.1-7.3-10.5c1.1,4.6,3.5,8.1,7.3,10.5
			c0,2.5-2.3,2.3-3.7,3.1c-1.5,0.2-2.5-0.7-3.5-1.6c-3.6-3.6-5-8.1-5.8-13C94.5,132.6,94.6,131.6,95.4,130.8z"/>
		<path fill="#F4F3F5" d="M95.4,130.8c0,5.9,1.8,11.1,5.6,15.6c-3.1,0.9-5.3-0.5-7.1-2.9c0.7-3.4,0.2-4-2.8-3.5c-3-3-3.9-8.4-2-12.1
			c1.7-0.2,3.1,0.3,4.1,1.7C93.7,130.3,94.4,130.8,95.4,130.8z"/>
		<path fill="#814199" d="M89.5,127.9c-1.2,4.3,0.1,8.2,1.6,12.1c-0.7,0.6-1.4,0.6-2.1,0.1c-1.1-2.5-1.6-5.1-1.8-7.8
			c0.3,2.7,0.6,5.4,1.9,7.8c-1.2,1.2-1.2,1.2-2.9-0.7c-1,0.4,1.6,4.8-2.1,2.1c0,0,0,0,0,0c-0.9-3-0.5-6-0.1-9.1
			c0.9-1.6,1.1-3.5,1.4-5.3c1.4-3.2,2.8-1.3,4.1,0c0.2,0.2,0.3,0.3,0.2,0.5C89.7,127.8,89.6,127.9,89.5,127.9z"/>
		<path fill="#2A4B9C" d="M113.8,119.2c-3.2,1.6-5.2,4.9-8.4,6.4c0.1-0.8-1.7-1-0.7-2c0.9-0.7,1.8-1.4,2.8-2.1
			c2.6-2.4,5.5-4.6,8.5-6.6c0.7-1,2.7,0.1,2.8-1.8c0.7,0.8,1.3,1.6,2.1,2.5C118.6,117,115.6,117,113.8,119.2z"/>
		<path fill="#ED2F30" d="M102.3,132.9c-0.9-0.7-0.5-1.8-0.6-2.7c1.1-0.5,2-0.3,2.7,0.7c1.4,4.8,4,8.8,8.4,11.4
			c-0.1,2-0.9,2.4-2.8,1.2c-2.8-1.9-4.7-4.6-6.1-7.6C103.5,134.8,103.4,133.6,102.3,132.9z"/>
		<path fill="#3552A0" d="M89.5,127.9c0-0.3,0-0.5,0-0.8c1.8-1,3.3,0.3,4.6,0.9c1.4,0.7,0,1.2-0.9,1.4
			C91.9,129.1,90.5,129,89.5,127.9z"/>
		<path fill="#9EAAD1" d="M115.9,115c-2.5,2.6-5.4,4.7-8.5,6.6C109.7,118.6,112.2,116,115.9,115z"/>
		<path fill="#E3DAE8" d="M83.9,132.4c0,3,0.1,6,0.1,9.1C82,138.4,83.4,135.4,83.9,132.4z"/>
		<path fill="#234598" d="M296.8,151.3c4.3-0.9,7.9-2.9,10-7c0.2-1.5,0.8-2.5,2.6-1.9c0.9,3.6-1.5,5.7-3.8,7.6
			c-2.6,2.3-5.8,3.5-9.8,4.5c7.8-0.6,13-3.6,14.2-11.3c0.5-1.1,1.2-2,2.6-1.2c1.3,4.8-0.5,9.2-4.9,12.1c-5.1,3.2-10.9,3.5-16.6,4.2
			c-2.4-0.3-4.6,0.8-7,0.7c-2.1,0-4.1-0.4-6.1-0.7c-2.1-0.6-4.3-1-6.4-1.8c2.1,0.8,4.3,1.3,6.5,1.8c1,0.3,2.1,0.3,3.1,0.5
			c2.8,0.7,5.5-0.1,8.2-0.5c4.1-0.1,8.2-0.5,12.1-1.6c7.9-2.3,12.2-5.8,11.9-15.2c0.6-0.8,1.2-1.6,2.3-0.7c1,9.1-1.9,14.5-10.4,17.2
			c-12,3.7-24.1,5.5-36.1,0c-1.8-0.8-3.2-2.2-4.9-3.1c-2.3-1.2-2.8-3.9-4.3-5.7c-1.2-1.5,0.7-1.9,2.1-2c4.3,0.7,8,2.9,12,4.3
			c3.9,1.3,8,1.7,12.1,1.2c0.8-0.3,1.7-0.4,2.5-0.7c0.5-0.1,1-0.1,1.5-0.1c0.7,0,1.3,0,2,0c0.8,0,1.6-0.3,2.3-0.5
			C295.2,151.2,296,150.8,296.8,151.3z"/>
		<path fill="#814299" d="M260.6,140.8c-0.7,0-1.4-0.1-2.1-0.1c-0.6-1.3,0.1-1.5,1.2-1.8c3.5-0.8,6.9-0.9,10.5-0.9
			c4.8,0,9.2,2.1,12.1,2.3c-2.7,0-6.9-2.4-11.5-2.2c-3.2-0.5-6.3,0-9.4,0.4c-1.1,0.1-2.2,0.8-3.3-0.1c-0.4-1.3,0.6-1.2,1.4-1.4
			c6.5-1.5,13.1-1.2,19.6,0.2c2.3,0.1,4.6,0,6.7,0.8c0.7,0.6,1.7,0.1,2.4,0.8c0.9,4.9-0.4,6.1-6.2,5.6c-7.7-2-15.5-1.5-23.4-1.1
			c-0.3-1.7,0.6-2.2,2.1-2.1c4.8-0.9,9.5-0.7,13.9-0.3C270.1,140.2,265.4,140.9,260.6,140.8z"/>
		<path fill="#E0DDDC" d="M312.4,142.1c-1.5-0.6-1.5,0.9-2.1,1.5c-0.4-0.1-0.3-0.8-0.9-0.7c-1.5-0.6-1.9,0.6-2.6,1.4
			c-0.9-1.7-4.2,0.7-4.1-2.5c0-0.5,0.1-0.9,0.5-1.2c0.3-0.3,0.6-0.6,1-0.8c0.6-0.4,1.1-0.9,1.9-1c1.2,0,2.3-0.5,3.6-0.3
			c1.3-1.3,0.2-2.6-0.1-3.9c-1.3-6.5-3.9-12.3-8.9-16.9c2,0.6,3.6,1.8,5.5,4.5c3,4.1,4.8,8.6,5.6,13.6c0.1,0.7-0.3,2,1.1,1.7
			c0.9-0.2,0.5-1.1,0.5-1.8c-0.3-4.2-2-7.9-3.5-11.7c2.7,3.2,4.1,7,4.7,11c0.2,1.5,0.5,2.4,2.1,1.2c-0.1,1.5,0.8,3.3-0.9,4.5
			c-0.6,0.2-1.2,0.4-1.7,0.6C313.4,141.7,313.2,142.6,312.4,142.1z"/>
		<path fill="#E3D8DA" d="M281.9,144.4c5.3-0.3,6.1-1.1,5.8-5.8c0.1-0.7,0.6-1,1.2-1.2c0.2-1.1-0.1-2.6,1.4-2.7
			c1.3-0.1,2.4,0.6,2.9,2c-0.2,1.4,1,2,1.6,2.9c2.8,4,2.7,8.9-0.4,12.4c-0.5,0.3-0.9,0.8-1.5,0.4c-0.6-1.1,0.1-2.1,0.4-3
			c1.1-2.8,0.8-5.4-1-8.6c2.6,5.9,2,8.9-1.9,11.9c-0.5,0-0.9,0-1.4,0.1c0.1-2.9,2.2-5.4,1.6-8.1c0.1-0.8-0.5-0.4-0.1-0.5
			c0.1,0,0.2,0.1,0.1,0.3c-0.7,1.4,0.6,3.4-1.6,4.2c0.3-2.8-0.8-4.2-3.8-3.7C284.2,145.1,282.9,145.3,281.9,144.4z"/>
		<path fill="#DAD7DA" d="M261.8,147.6c-0.8,0.1-2.5,0.6-1.2,1.2c2.8,1.3,2.1,4.2,3.6,6c-3.2,1.6-4.8,0.4-5.1-3
			c-0.1-0.6-0.4-1.1-0.5-1.7c-0.1-1.5-1.9-3-0.1-4.5c1.7-1.4,3.3-0.3,4.8,0.5C263.1,147,262.2,147,261.8,147.6z"/>
		<path fill="#E63134" d="M261.8,147.6c-0.6-1.8,0.9-1.1,1.6-1.4c3.8,1.3,7.5,2.5,10.6,5.2C269.7,151,265.8,149,261.8,147.6z"/>
		<path fill="#ED2C2D" d="M289,148.6c1.3-1.3-0.2-3.6,1.8-4.7c1,3.2,0.1,6.1-1.8,8.8c-0.9,0-1.9,0-2.8-0.1
			C287.3,151.4,288.9,150.6,289,148.6z"/>
		<path fill="#F3EB3E" d="M309.6,138.6c-1.2,0.6-2.3,1.6-3.7,0.8c-0.7-0.8-0.8-1.8-1.5-3c0.8,1.7,1,3,0.1,4.2c-0.4,0-0.9,0-1.3,0
			c-1.4-7.2-7.3-11-12.2-15.6c-0.6-0.6-1.3-0.9-2-1.4c2.2-1.1,4.4-2.4,7-2.7c5,1.6,8.2,5.3,10.6,9.8
			C307.9,133.2,309,135.8,309.6,138.6z"/>
		<path fill="#2A4A9B" d="M290.4,114.4c0.8,0.8,1.5,1.7,2.4,2.6c-2.7,0.9-5.5,1.4-7.5,3.5c-2.5,2-4.8,4.1-7.4,6
			c-5,3.6-10.3,5.6-16.5,2.8c0.1-1.7,1-1.4,2.1-1c3.4,1.1,6.6,0.7,9.7-1.1c1.3-1.7,3.4-2.2,5-3.5c0.7-0.7,1.4-1.4,2.1-2.1
			c2-1.9,4.4-3.3,6.4-5.2C287.8,115.4,289.8,116.2,290.4,114.4z"/>
		<path fill="#864A9D" d="M288.9,137.3c-0.3,0.5-0.5,1.1-1.2,1.2c-0.5,0-1.1,0.7-1.6-0.1c-2-0.4-4.1-0.4-5.7-1.9
			c-6.8-2.3-13.6-2.5-20.4-0.5c-0.8,0.2-1.6,0.8-2.1-0.3c-0.3-0.7,0.4-1,0.8-1.4c5.8-1.1,11.6-2.3,17.4-0.8
			C280.4,134.7,284.6,136.1,288.9,137.3z"/>
		<path fill="#EC2C2D" d="M294.3,151.9c1.9-4.7,2.8-9.3-1.5-13.3c-0.7-0.7-0.6-1.5,0.3-2c5,4,5.1,9.2,3.6,14.7
			C296.1,151.9,295.3,152.1,294.3,151.9z"/>
		<path fill="#F3F2F0" d="M306.6,130.7c-3-3.8-6.7-7-10.6-9.8c0.6-0.9,0.4-1.6-0.4-2.4c-1.1-1-0.2-1.2,0.7-1.4
			C301.9,120,304.7,125,306.6,130.7z"/>
		<path fill="#9FABD1" d="M286.8,116.4c-0.7,1.5-3.4,3.7-6.4,5.2C282,119.1,284.2,117.5,286.8,116.4z"/>
		<path fill="#A5AFD4" d="M278.3,123.7c-1.3,1.6-3.1,2.7-5,3.5c-0.3-0.2-0.5-0.5-0.8-0.7C274.3,125.3,276.1,124.1,278.3,123.7z"/>
		<path fill="#9CA8D0" d="M274,123.6c-0.3-0.3-0.5-0.5-0.8-0.8c1.4-0.7,2.8-1.5,4.8-2.5C276.8,122.5,275.4,123.1,274,123.6z"/>
		<path fill="#E8E1ED" d="M260.6,140.8c5-1.1,9.9-1.3,14.9,0.5c-5,0-9.9,0-14.9,0C260.6,141.1,260.6,141,260.6,140.8z"/>
		<path fill="#AA80B9" d="M270.6,138.4c-3.5,0.3-7.1,0-10.5,0.9c-0.9,0.2-1.6,0.4-1.6,1.4c-0.9-0.6-0.5-1.5-0.5-2.3
			c3.1-0.3,6.2-0.7,9.3-1c1.1-0.1,2.3-0.6,3.2,0.5C270.5,138.1,270.6,138.2,270.6,138.4z"/>
		<path fill="#B796C5" d="M280.3,136.5c1.9,0.6,3.8,1.3,5.7,1.9c-2.5,0.4-4.8-0.3-7.1-1.2C279.4,137,279.9,136.8,280.3,136.5z"/>
		<path fill="#F2F1F2" d="M457.8,120.8c0.8,0.5,1.7,0.8,2.7,0.7c0.1,0.1,0.2,0.2,0.2,0.2c0.5,5.9,2.5,11.1,6.4,15.5
			c0,0.3-0.1,0.7-0.2,1c-2.3,3.7-3,7.1,0.3,10.8c1.9,2.2,3.1,4.9,5.2,7c1.2,2,3.8,0.7,5.1,2.4c-2.1,2.6-5,3-6.6,0.6
			c-1.2-1.8-4.4-2.5-3.2-6c-3.1,1.1-3.5,3.8-4.8,5.7c-1.4,1.8-3,2.9-5.1,2.3c-2.1-0.6-3.3-2.2-3-4.6c0.6-0.8,1.2-0.2,1.8,0
			c1.1,0.7,2.4,1.6,3.4,0.2c1.3-1.9,3.5-3.7,3-6.1c-0.4-1.7-2.6-1.1-4.1-1.4c-0.9-0.1-1.7-0.5-2.4-1.2c-1.1-1.6-2.6-3.1-1.8-5.4
			c0.4-0.3,0.8-0.5,1.3-0.5c4.8-0.1,4.8-0.1,5.6-4.7c-0.6-1.6-2.2-1.4-3.4-1.9c-1.3-0.5-2.6-0.9-3.5-2c-0.2-1.5,0-2.9,1.7-3.6
			c1.2-0.1,2.6,0.3,2.8-1.8c0.1-1.9-0.8-2.5-2.3-2.9c-1-0.3-2.2,0-2.8-1.2C454.6,122.2,455.4,120.6,457.8,120.8z"/>
		<path fill="#F3EA3F" d="M467.1,137.7c-4.9-4.3-7.3-9.6-6.6-16.1c0,0,0.1,0.1,0.1,0.1c2.1-1,1.7,0.9,1.9,1.8c0.7,2.8,0.6,5.8,2,8
			c-1.2-3.1-2.3-6.7-1.8-10.5c1.9-0.2,3.7-0.5,5.6-0.7c2.7,2.7,4.1,6.2,6.4,9.1c1.1,1.4,2,2.9,3.6,3.8c0.9,0.7,1.7,1.5,2.2,2.5
			c1.2,0.9,2.5,1.6,4,1.7c0.4,0.2,0.5,0.5,0.2,0.8c-1,0.9-2.1,1.3-3.4,0.9c-4-2.3-7.3-5.3-10.1-9c-1.4-1.8-2.2-3.9-3.5-5.8
			c1.2,2,2.1,4.1,3.6,6c2.2,2.7,4.6,5.2,7.5,7.3c0.6,0.4,2.7,0.7,1.1,2.4c-3.2,1.3-6.5,1.5-9.9,0.4
			C468.8,139.8,467.3,139.4,467.1,137.7z"/>
		<path fill="#9E877A" d="M457.1,147.8c0.7,0.2,1.3,0.5,2,0.7c1.6,0.5,2.4,1.4,1.6,3c-0.8,1.6-0.9,3.6-2.9,4.5
			c-2,0.2-3.5-1.2-5.3-1.8c-3.8-1.2-7.8-1.6-11.8-1.4c-0.7,0.3-1.4,0.3-2.1,0.2c-1.5-0.2-1.8-1.4-1.8-2.6c-0.1-1.5,1.1-1.6,2.2-1.6
			c2.4,0,4.8,0,7.2,0c-2.6,0-5.3,0-7.9,0c-0.8,0-1.8,0.3-2-0.9c-0.2-1.3,0.9-1.4,1.8-1.7c1.3-0.4,2.6-0.2,3.8-0.3
			c0.5,0,0.1-0.6,0.2-0.2c0,0.1-0.1,0.1-0.3,0.1c-1.4,0-2.8,0.1-4.2,0.2c-1.2,0.1-2.5-0.1-1.9-1.9c4.1-0.6,8.1,0.1,12.1,0.7
			C451.4,144.2,454.2,146.1,457.1,147.8z"/>
		<path fill="#F16826" d="M457.1,147.8c-3.1-0.9-6.2-1.9-9.3-2.8c-0.1-1.1,0.1-2.3-0.7-3.3c-0.4-0.3-0.6-0.7-0.5-1.2
			c0.9-0.6,0-1.1-0.1-1.7c-0.1-0.4-0.2-0.9-0.1-1.3c0-0.3,0.1-0.6,0.2-0.9c0.2-0.6,0.6-1,0.9-1.5c0-0.5,0.1-0.9,0.1-1.4
			c-0.3-0.5-0.3-1,0-1.6c0.3-1.4,0.5-2.8,0.8-4.1c0.3,0,0.7,0,1,0c3.1,0.3,4.6,1.6,3.2,4.8c-0.6,2.7-0.4,5.5-0.3,8.2
			c0.2,0.5,0.9-0.1,0.4,0.1c-0.2,0.1-0.3,0-0.3-0.1c-0.2-2.7-0.8-5.5,0.8-8.1c1.1-3.3,1.1-3.3,2.9-2.8c-0.4,1.2-0.8,2.3-1.2,3.5
			c0.4,0.7,0.6,1.4,0.5,2.2c-0.9,2.3,0.2,4.9-0.6,7.2C455.1,144.8,456.4,146.2,457.1,147.8z"/>
		<path fill="#43B64C" d="M487.1,137.3c3.4,0.4,4.6,3,5.3,5.7c0.8,2.9-0.3,5.8-1.3,8.5c-0.2,0.6-0.9,1.4-1.4,1.5
			c-4.2,0.4-6.7,4.2-10.7,4.9c-0.9,0.1-2.5,0.5-2.2-0.7c0.3-1.5,0-3.5,2-4.4c1.5-0.6,3-1.1,4.5-1.7c-5.2,1.2-5.2,1.2-5.3-1.4
			c1.3-1.8,3.2-1.9,5.2-2.1c1.1-0.1,2.6,0.5,3.3-1.1c0.7-1.7-0.4-4,1.6-5.4c0.9-0.7-0.3-0.7-0.4-1
			C487.1,139.2,486.3,138.4,487.1,137.3z"/>
		<path fill="#DEDEDB" d="M478.3,149.9c0.2,0.7-1.3,3.2,1.4,1.4c0.1-0.1,0.2-0.1,0.3-0.2c1.8-0.8,4.9-2,5.4-0.5
			c0.7,2.3-2.5,1.3-3.9,2.1c-1.6,0.9-3.9,0.7-3.8,3.5c0,1.2-0.4,1.2,1.4,1.7c-0.5,0.2-0.9,0.4-1.4,0.6c-1.9-0.7-4.8,1.4-5.7-2.2
			c0.2-0.8-0.2-1.3-0.7-1.8c-1-1.1-1.2-2.1,0.7-2.3c1.5-0.1,2-1.4,2.9-2.2C475.9,149.2,477.1,148.8,478.3,149.9z"/>
		<path fill="#DFDDDD" d="M435.7,144.3c0.1,1.9,1.6,1.3,2.6,1.4c1.5,0,3,0,4.5,0.2c-2,1-4.4,0.1-7,2.3c4.2,0,7.7,0,11.2,0
			c0,0.3,0,0.6,0,1c-3.2,0-6.4,0-9.6,0c-0.1,2.6,0.7,3.9,3.2,3.7c-0.1,0.1-0.2,0.2-0.3,0.2c-2,0-4.4,2.7-5.6,1.1
			c-1.6-2.2-2.1-5.4-2.4-8.2C432.2,144.4,433.8,143.3,435.7,144.3z"/>
		<path fill="#DBDBD8" d="M487.1,137.3c0.1,1.9,2.3,2.5,2.7,4.3c-4.1,0-1,3.5-2.3,4.8c-2.5,1.6-5.2,1.1-7.8,0.6
			c-1.7-1.2-0.4-1.6,0.6-2c1.1-0.5,2.6,0.1,3.3-1.4c0.1-0.5,0.2-1,0.2-1.4c0-0.5,0-1,0-1.5c0-0.5,0-1,0.1-1.5c0.1-0.5,0.3-1,0.5-1.4
			c0.1-0.2,0.1-0.4,0.1-0.6C485.3,137.2,486.2,137.3,487.1,137.3z"/>
		<path fill="#DBD7D4" d="M480.4,135.6c-1-0.3-1.7-0.8-2.2-1.8c-0.2-0.3-0.4-0.6-0.6-0.8c-1.4-1.5-2.3-3.2-0.5-4.9
			c1.7-1.5,3.4-0.9,4.9,0.6c-0.6,0.6-1.9,0.5-1.5,2c0.6,2.3,2.5,1.1,3.8,1.7c-0.8,0.9-2,0.2-2.9,0.9c0.5,1.8,2.1,0.9,3.2,1.2
			C483.5,135.8,481.6,134.4,480.4,135.6z"/>
		<path fill="#804098" d="M447.2,140c0,0.5,0,1.1,0,1.6c-4.5,0.2-9,0.4-13.5,0.6c-0.7-0.3-0.8-0.8-0.6-1.5c2.6-2.1,5.8-0.3,8.6-1.5
			C443.5,139.1,445.5,138.5,447.2,140z"/>
		<path fill="#E96D30" d="M452.5,154.2c1.9-0.1,3.5,0.7,5.2,1.4c0.6,1.5,0,1.8-1.4,1.6c-0.5-0.2-1-0.4-1.5-0.7
			C454.1,155.8,453.3,155,452.5,154.2z"/>
		<path fill="#F5F6F6" d="M482,128.7c-0.6-0.1-1.2-0.1-1.7-0.3c-1-0.3-2-0.9-2.9,0.2c-0.9,1.1-0.6,2.2,0.2,3.2
			c0.5,0.6,0.7,1.2,0.6,1.9c-4.7-3.5-7.5-8.4-9.9-13.6c1.2-0.8,0.2-1.6-0.1-2.4c-0.3-0.8-0.2-1.4,0.6-1.7c0.8-0.3,1.5,0,1.5,0.9
			c0,1.3,1,2.1,1.4,3.1c1.6,4.2,2.2,4.4,5.8,1.6c4.3-0.2,6.1,0.9,6.4,4C484,127.1,483.9,128.5,482,128.7z"/>
		<path fill="#C0AA99" d="M482.7,119.9c2.6,1,3.3,2.9,3.1,5.5c-0.6-2-1.8-3.7-3.4-5.1C482.5,120.1,482.6,120,482.7,119.9z"/>
		<path fill="#C0AA99" d="M477.5,120c0-0.2,0-0.4,0.1-0.6c1.9-1.2,3.5-0.4,5.1,0.5c-0.1,0.1-0.2,0.2-0.3,0.4
			C480.8,120.2,479.1,120.1,477.5,120z"/>
		<path fill="#304E9D" d="M447.9,127.9c-3.7,1.8-7.5,1.8-11.3,0.6c-1-1.3-1.1-2.5,1-1.6c3.2,1.3,6.2,0.9,9.2-0.5
			C449.7,125.1,447.7,127.3,447.9,127.9z"/>
		<path fill="#2A4A9C" d="M457.8,120.8c-1.3,1.1-2.5,2.2-3.8,3.3c-0.9,0-2.6,1.4-2-1.1c0.2-0.2,0.5-0.5,0.7-0.7
			c1.7-0.7,2.4-2.7,4.3-3.2c0.4-0.2,0.8-0.6,1.2-0.1C458.7,119.7,458.1,120.2,457.8,120.8z"/>
		<path fill="#C1676E" d="M453.4,132.9c-0.9,2.8-0.4,5.7-1,8.6c-0.4-2.9-1-5.8,0.4-8.6C453,132.9,453.2,132.9,453.4,132.9z"/>
		<path fill="#8B99C8" d="M457,119c-1.3,1.3-2.3,2.8-4.3,3.2c1.2-1.7,2.6-3.1,4.4-4.2C457,118.4,457,118.7,457,119z"/>
		<path fill="#F5F2C0" d="M462.7,120.9c0.8,4.2,1,8.5,3.2,12.3c-3.2-2.3-3.2-5.8-3.8-9.1c-0.2-1,0.5-2.6-1.5-2.4
			C461,120.6,461.9,120.8,462.7,120.9z"/>
		<path fill="#84469B" d="M447.7,132.1c0,0.5,0,1,0,1.6c-4.3-0.2-8.6-0.3-12.8,1.1c-1,0.3-2.7,1.2-2.7-1.2
			C437.2,132.4,442.4,131.4,447.7,132.1z"/>
		<path fill="#84479B" d="M447.5,135c0.1,0.5,0.2,1-0.2,1.5c-2.8,0.5-5.6,0.2-7.7,0.2c2,0.5,4.9-0.5,7.6,0.4c0,0.6,0,1.2,0,1.8
			c-3.8,0.2-7.5,0.9-11.3,1c-1-0.1-1.9,0.2-2.9,0c-1-2.8-0.7-4.3,2.9-4.6C439.8,135,443.6,135,447.5,135z"/>
		<path fill="#A87FB8" d="M432.9,139.9c0.7-0.2,1.4-0.8,2.2-0.6c2,1,4.4-0.8,6.3,0.7c-2.8,1.1-5.7,0.2-8.5,0.7
			C433,140.5,433,140.2,432.9,139.9z"/>
		<path fill="#224498" d="M363,151.9c3.5,1,7,1.6,10.7,1.3c1.3,0.1,2.2-0.9,3.4-1c0.3-0.1,0.7-0.1,1-0.2c0.7-0.1,1.3-0.1,2-0.1
			c0.8,0,1.6-0.1,2.3-0.4c0.6-0.2,1.2-0.3,1.8-0.4c3-0.7,5.6-2,7.6-4.4c1.2-1.1,1.9-2.7,3-3.8c0.6-0.5,1.3-0.6,1.9,0
			c1,2-0.4,3.4-1.1,5c-2.6,3.6-6.6,5-10.9,6.9c5.6-0.8,9.7-2.6,11.6-7.8c1.1-1.5,0.3-3.7,1.6-5.1c2.2-0.2,2.2,1.5,2.2,2.8
			c0,4-1.4,7.3-5,9.5c-4.8,2.9-10.1,3.8-15.5,4.2c-1.7,0.3-3.4,0.2-5.1,0.5c-3.6,0.1-7.3,0.4-10.8-0.8c-1.5-0.4-3-0.8-4.6-1.4
			c1.3,0.7,2.6,0.8,3.8,1.3c1.6,0.2,3.1,0.8,4.7,1c2.9,0.3,5.7-0.1,8.6-0.1c5.3-0.3,10.5-0.9,15.5-2.8c5.3-2,8.5-5.6,8.7-11.5
			c0-1.3-0.6-3.7,2.3-3.1c1.2,9.7-2.7,15.1-13,17.7c-10.7,2.8-21.5,3.9-32.1-0.7c-0.8-0.4-1.6-0.8-2.5-1.2c-1.1-1.6-2.9-2.3-4.1-3.7
			c-0.8-1.3-1.8-2.5-2.7-3.7c-1.1-1.4-0.6-2.4,1.2-2.6C354.5,148.2,358.7,150.4,363,151.9z"/>
		<path fill="#F3EB3C" d="M395,143.5c-0.7,1.3-1,3-2.5,3.8c-3.2,0.6-5.1-1.8-7.3-3.2c-1.6-2.2-3-4.4-4.7-6.4
			c-0.6-0.9-1.2-1.7-1.8-2.6c-2.3-3.8-3.5-7.8-2.6-12.3c1.8-0.8,3.6-1.7,5.6-0.4c3,7,6.9,13.2,14.4,16.2c0.4,1.2-0.6,1.7-1.3,2.3
			C393.8,141.9,393.5,142.7,395,143.5z"/>
		<path fill="#814199" d="M357,143.7c-3.3,0-6.5,0-9.8,0c0-0.4,0-0.9,0-1.3c5.6-0.3,11.2-0.9,16.9-0.5c-4.3-1.9-8.7-1.4-13.1-0.8
			c-1.3,0.2-2.5,0.6-3.8,0.3c-0.7-1.3,0.1-1.5,1.1-1.7c4.9-1.1,9.8-1.4,14.8-0.4c2.9,0.9,6,1.2,9,1.9c-2.7-0.5-5.4-1.1-8-1.7
			c-4.8-1.4-9.7-1-14.6-0.2c-1.2,0.2-2.3,0.6-3-0.8c0.4-1.4,2.2-0.1,2.6-1.4c3.5-1.4,7.1-1.8,10.8-1.3c1.5,0.2,3,0.3,4.5,0.5
			c2.1,0.6,4.2,0.8,6.3,1.5c2.1,0.8,4.9,0.3,5.7,3.4c0.1,1.5-0.2,2.8-1.5,3.7C368.7,145.6,363,142.7,357,143.7z"/>
		<path fill="#E0E0E5" d="M395,143.5c-0.9-0.3-1.9-0.7-2.8-1c2,0.2,0.5-3,2.7-2.8c0.5,0.1,1-0.4,1.1-1.1c1.7,0.6,3.2-0.2,4.7-0.5
			c0.9-0.2,2-0.5,2.6,0.3c0.8,1,0.7,2.2-0.3,3.1c-1.8-0.2-1.4,1-1.4,2.1c-0.3,7.8-3.1,11.4-10.5,13.6c-4.6,1.4-9.3,2.4-14.2,2.5
			c0.1-1.6,1.6-1.1,2.4-1.7c4.3-0.6,8.7-0.8,12.8-2.6c5.4-2.4,7.7-5.9,7.5-11.6c0-1.1,0-1.9-1.5-1.6c-0.4,0.3-0.9,0.6-1.4,0.5
			C396,142.5,395.4,142.9,395,143.5z"/>
		<path fill="#E2D7D9" d="M374.7,144.9c0.3-1.1,0.5-2.3,0.8-3.4c0.7-1.6,0.5-3.1-0.8-4.3c1-0.1,2.2,0,2.2-1.5c0.3-0.6,0.7-1,1.4-1.1
			c0.5,0,0.9,0.1,1.2,0.6c0.7,0.9,1.4,1.7,2.1,2.6c-0.8,1.3,0.6,1.8,1.1,2.6c1.7,3.1,3.1,6.3,0.6,9.7c-0.9,0.2-1.2-0.4-1.5-1.1
			c-0.1-2.1,0.1-4.2-1.1-6c1.6,4.8,1,7.3-2.5,10c-0.5,0.1-0.9,0.2-1.4,0.3c0.4-2.8,1.9-5.4,1.7-8.2c-0.5,0.1-0.2,1.3-1.1,1.5
			C376.5,145.9,375.6,145.4,374.7,144.9z"/>
		<path fill="#DDDBDC" d="M350.1,147.7c-1,0.1-2.2,1-0.9,1.5c2.1,0.9,2,2.8,2.9,4.3c0.4,0.6,0.6,1.2,0.1,1.8c-2.6,1.1-4,0.2-4.4-2.5
			c-0.2-1.5-0.7-2.9-1.2-4.4c-0.3-1-0.4-1.9,0.6-2.5c1-0.6,2-0.6,2.7,0.5C350.3,146.9,350.4,147.3,350.1,147.7z"/>
		<path fill="#DBDADA" d="M381.7,122.3c-1.8,0.2-3.6,0.5-5.4,0.7c-0.5,0.4-1.1,0.7-1.7,0.7c-0.2,0-0.3,0-0.5,0
			c-0.8-0.3-1.6-0.6-2.4-0.9c-0.4-0.6-0.4-1.3-0.1-1.9c0.3-0.5,0.7-0.8,1.2-0.9c2.3,0.7,4.2-1.1,6.3-1.1
			C380.1,119.9,382.9,119.6,381.7,122.3z"/>
		<path fill="#E53939" d="M350.1,147.7c0-0.4-0.1-0.8-0.1-1.2c4.9,0.3,9,2.9,13,5.3C358.5,151.2,354.3,149.7,350.1,147.7z"/>
		<path fill="#E62C31" d="M377.4,146.4c0.3-0.7,0.7-1.4,1.2-2.6c1.1,3.7,0.4,6.6-1.7,9.3c-1,0.4-2.1,0.3-3.1,0
			C376,151.5,377.9,149.5,377.4,146.4z"/>
		<path fill="#CC4251" d="M352.3,155.4c0-0.6-0.1-1.2-0.1-1.8c1.2,1.1,3,1.8,3.4,3.7C354.4,156.6,353.3,156,352.3,155.4z"/>
		<path fill="#864A9D" d="M374.7,137.2c2.6,1,1.7,2.6,0.8,4.3c-0.5-3-3.5-1.5-5-2.7c-1.5-1.4-3.5-1.3-5.3-1.8
			c-5.5-1.2-11-1.1-16.5,0.2c-0.7-0.1-1.7,0-2.1-0.5c-0.6-0.6,0.2-1.1,0.7-1.6C356.6,132.4,365.7,134.1,374.7,137.2z"/>
		<path fill="#26489A" d="M371.8,120.8c-0.1,0.6-0.1,1.3-0.2,1.9c-2.1,1.7-4.2,3.4-6.3,5c-4.3,3.3-9.1,4.8-14.5,2.8
			c-0.2-0.5-1.1-0.7-0.6-1.4c0.6-0.9,1.2-0.2,1.8,0c4.2,1.3,8,0.6,11.2-2.6c2.3-1.5,4.7-2.7,6.4-4.9
			C370.4,121.2,370.9,120.5,371.8,120.8z"/>
		<path fill="#F3EB41" d="M378.1,134.9c-0.4,0.3-0.8,0.5-1.2,0.8c-2.7-3.6-3-7.7-2.9-12l0.1,0.1c1.3-0.9,1.6,0,1.7,1
			C376.4,128.2,377.2,131.5,378.1,134.9z"/>
		<path fill="#9DA9CF" d="M371.8,120.8c-0.7,0.3-1.4,0.5-2.1,0.8c1-1.9,2.6-3.1,4.8-3.7c-0.1,1.4-1.4,1.3-1.8,2
			C372.4,120.2,372.1,120.5,371.8,120.8z"/>
		<path fill="#AB82B9" d="M363.5,139.8c-5.1-0.9-10.1-0.9-15.1,0.2c-0.8,0.2-1.2,0.5-1.2,1.3c-1.1-0.7-0.6-1.8-0.7-2.8
			c2.9,1.3,5.7-0.1,8.5-0.4c3.2-0.4,6.2,0.1,9.2,1.1C364,139.5,363.8,139.7,363.5,139.8z"/>
		<path fill="#EDE9F1" d="M348.7,137.2c5.7-2.4,11.6-1.9,17.4-0.6c0,1.4-0.8,0.8-1.5,0.7c-5.2-1-10.4-0.4-15.6-0.2
			C349,137.1,348.7,137.2,348.7,137.2z"/>
		<path fill="#234497" d="M223.8,147.4c0.1-0.3,0.2-0.6,0.3-1c0.3-0.9-1.2-2.7,0.1-2.6c1.7,0.2,3.8-2.8,5.2,0.4
			c1.2,6.7-3.2,10.2-8.2,12.4c-8.3,3.8-17.2,5.6-26.4,5.3c-6.3-0.2-11.4-3.2-16.1-7.2c-1.9-1.7-3.9-3.3-5.9-5
			c-0.8-2.3,0.9-2.3,2.3-2.5c2.1,1,3.9,2.3,5.6,3.7c0.7,1,1.6,1.7,2.8,2.2c6.5,3.3,13.4,3.1,20.4,2.8c1.6-0.3,3.1-0.5,4.7-0.9
			c1.6-0.4,3.2-0.6,4.7-1.4c0.8-0.8,2.1,0.2,2.9-0.7C219,151.5,222.2,150.6,223.8,147.4z"/>
		<path fill="#DED8DA" d="M175.5,147.8c-1,0.5-3-0.2-2.7,2c-2.4-0.3-3.4-1.6-3-4c0.9,0,1.7-0.2,1.3-1.4c-1.1-3.1-0.6-6.2,0-9.3
			c1.5,1.1,1.2,2.8,1,4.2c-0.5,3.3,1.6,3.2,3.7,3.2c1,0,1.9-0.8,3-0.9c2.8,0.1,3.4,1.8,3,4.1c0,0.7-2.2,1.3,0.1,2
			c1.4,0.4,2.8,1,3.8,2.3c0.1,0.4,0,0.7-0.3,0.9c-2.3,1.1-4.2-0.2-6.2-1.1C177.9,149.1,176.9,148,175.5,147.8z"/>
		<path fill="#EC2328" d="M218.1,142.1c0,1.4,0.1,2.8,0.1,4.1c0.6,0.9,0.8,1.8,0.5,2.9c-1.3,3-4.2,3.3-6.9,3.7
			c-1.1-0.3-3.1,0-1.8-2.3c2.9-1.2,6.5-1.7,6-6.2c-0.3-4.4-2.6-8-4.9-11.6c2.5,4.2,5.3,8.3,4.8,13.6c-2.8,4.6-10.1,6-13.5,2.7
			c1-2.2,3.2-1.3,4.9-1.8c3.3-1.2,4.1-2.1,3.9-5.4c0.3,4.4-3.9,6.7-10.2,5.5c-0.6-0.5-1-1-0.7-1.8c1.2-1,2.7-0.7,4-1
			c3.4-0.8,4.1-2.3,2.4-5.3c-2.6-4.5-7-6.2-12.7-5.1c-1.9,0.4-3.6,1.9-5.7,1c-1.8-1.7-3.6-3.4-5.4-5.1c3.4-2.2,7-3.9,10.7-5.6
			c2.6-0.7,5.4-0.8,8.1-0.8c4.9,0.1,8.4,2.5,10.8,6.8C214.4,134.3,216.8,137.9,218.1,142.1z"/>
		<path fill="#F6F7EF" d="M220.2,141.3c-0.5,0.2-1.1,0.5-1.6,0.7c0.6-4.2-1.2-7.7-3.2-11.3c-1.5-2.7-3.5-5.1-4.7-8.3
			C215.7,124.5,218.6,130.3,220.2,141.3z"/>
		<path fill="#92683D" d="M221.8,131.4c0.6,2.3,1.3,4.6,1.8,7c0.3,1.4,0.1,2.7-1.9,1.7c-0.7-8.7-2.9-13.6-9-19.4
			C216.9,121.8,218.8,124.1,221.8,131.4z"/>
		<path fill="#F6EFEE" d="M212.4,130.4c-2.8-2.9-5.8-5.5-10-6.2c-1.3-0.9-3.2,0.7-4.2-1c3.4-0.3,7-0.2,9.8-2.7
			c0.3,2.5,1.9,4.4,3,6.5C211.5,128.1,212.7,129,212.4,130.4z"/>
		<path fill="#976E43" d="M230.1,137.5c-2.9,2.3-1.6-1-2.3-1.7c-1.4-1.9-1.7-4.4-2.8-6.4c-0.5-1.1-0.8-2.2-2-2.8
			c-2-1.1-3-3.3-5.5-5.3c3.8,0.8,5.9,2.5,7.6,4.6C228,129.3,229.1,133.4,230.1,137.5z"/>
		<path fill="#D6C8BC" d="M223,126.6c2.4,0,2.3,2.3,3,3.6c0.9,1.7,1.2,3.7,1.8,5.6c-0.2,0.5-0.4,1-0.6,1.5
			C225.8,133.7,224.4,130.1,223,126.6z"/>
		<path fill="#DCE0EC" d="M182.3,123.6c6.9-5.4,14.9-5.2,22.9-4.5C197.4,119.8,189.7,121.1,182.3,123.6z"/>
		<path fill="#B8C1DC" d="M203.8,116.8c-5.8,0.3-11.5,0.2-17.2,1.7C192.2,116,197.8,115,203.8,116.8z"/>
		<path fill="#D6A0AE" d="M198.1,123.2c1.3,0.8,3-0.2,4.2,1c-2.9,0.1-5.9,0.1-8.8,0.2C194.9,123.4,196.6,123.4,198.1,123.2z"/>
		<path fill="#F6F7F7" d="M188.2,135.1c2.6-1,5.2-2.1,8.1-2.3c5.3-0.3,10.4,2.9,12.2,7.8c0.8,2.1,0.2,3.4-1.8,4.2
			c-2,0.7-4.1,0.8-6.3,0.9c-1.7,0-2.9,0.2-1.6,2.4c0.6,1,1,2.2-0.4,3c-6,0.9-11.4-1.2-16.6-3.8c-0.4-0.2-0.6-0.7-0.6-1.2
			c0-2.1,0.3-4.3-2.9-4c-2.9-2.3-3.7-5.9-1.9-9.2c2.2,0.7,3.6,2.4,5.4,3.7c1.7,1.3,3.3,2.7,4.9-0.2
			C186.9,135.8,187.7,135.5,188.2,135.1z"/>
		<path fill="#82439A" d="M176.3,132.9c-0.2,3.3,0.2,6.4,1.9,9.2c-1.4,0.6-2.2,2.4-4.4,0.6c-1.3-1.1,0.9,2.4-1.8,1.8
			c-1.7-2.8-0.6-6.3-1-9.5c1.5-1.4,0.8-3.4,1.6-5c0-1,0.3-1.6,1.4-1.3c0.8,0.3,1.3,0.5,0.5,1.6C173.7,131.8,176.2,131.8,176.3,132.9
			z"/>
		<path fill="#46488F" d="M212,152.1c2.3-0.2,4.3-1.1,6.1-2.6c1.1-1.9,2.5-3.5,4-5.1c2.1,2-0.8,3.1-0.9,4.7
			c-0.4,3.2-3.9,2.8-5.4,4.7c-0.7,0.1-1.5,0.2-2.2,0.3c-1.7,0.4-3.4,1-5.2,0.4c-0.5-1.6-0.5-1.6,1.9-2
			C211,152.4,211.5,152.2,212,152.1z"/>
		<path fill="#DB5B3B" d="M222.1,144.4c-0.6,2.2-2,3.9-4,5.1c0-1.1,0.1-2.2,0.1-3.2C219.8,146.3,220.4,144.1,222.1,144.4z"/>
		<path fill="#D05F47" d="M215.9,153.8c1.2-2.3,4.1-2.6,5.4-4.7c1.2,0,1.6-1.3,2.5-1.7C222.9,151.7,219.1,152.4,215.9,153.8z"/>
		<path fill="#E1D8D8" d="M102.3,132.9c0.5,0.5,1.2,0.8,1.4,1.4c1.5,3.4,3.6,6.3,6.6,8.5c1,0.7,2.2,1.9,2.5-0.6
			c4.9,2.7,4.9,2.7-0.5,6.2c-0.3,0.8-1,1.1-1.7,1.5c-0.7,0.4-1.2,0.9-1.9,1.2c-1,0.4-2,0.7-3.1,0.7c-0.3-0.1-0.5-0.3-0.8-0.4
			c-1.9-1.2-4.7-0.7-6-3c0-0.2,0-0.4,0-0.5c1.6-1.7,3.3,1,4.9-0.1c0.5-1.8,3.2-0.5,3.5-2.6c-0.1-0.4,0-0.5,0.4-0.4
			c0.8,0.2,1.6,0.6,2.4-0.3C106.5,141.3,103.5,137.7,102.3,132.9z"/>
		<path fill="#E25D38" d="M105.7,151.8c0.9-0.6,1.8-1.3,3-1.3c1.7-1,3.5-0.2,5.2-0.1c2.8,0,5.4,1.1,8.2,0.7c1.8,0.1,3.6-0.1,5.4,0.3
			c0.4,0.1,0.7,0.4,1,0.7c-2.1,1.5-4.7,1.3-7.1,2c-0.9-0.6-2,0.2-2.9-0.4C114.3,153,110,152.4,105.7,151.8z"/>
		<path fill="#B4B6D2" d="M118.6,153.6c1,0,2-0.2,2.9,0.4c-8.7,2.1-17.1,2-25.1-2.5C103.7,153.2,111.1,154.5,118.6,153.6z"/>
		<path fill="#D1D4E3" d="M140.1,149.5c-4.8,4.2-10.6,5.9-16.6,7.1c-1-0.2-2.2,0.5-3.1-0.5c3.5-0.9,7-1.8,10.4-2.8
			c3.5-1.1,6.6-2.9,9.1-5.6C140.5,148.2,140.4,148.9,140.1,149.5z"/>
		<path fill="#E85D34" d="M98.9,148.4c2.1,0.8,4.5,1.1,6,3c-6-0.8-12-1.3-16.6-6c1.2-1.1,2.1-0.2,3,0.5
			C93.6,147.4,96.1,148.4,98.9,148.4z"/>
		<path fill="#D8D8E5" d="M116.7,157.9c-6,1.1-11.8,0.7-17.4-2.1c4.4,0.1,8.6,1.5,13,1.3C113.6,157.9,115.4,156.6,116.7,157.9z"/>
		<path fill="#DC6647" d="M128.6,152l-0.3,0l-0.3,0c2.2-2.7,5.2-4,8.1-5.6c1.5,0.1,1.8-1.2,2.7-1.9
			C138.1,148.4,134.4,151.1,128.6,152z"/>
		<path fill="#DE603F" d="M116.7,157.9c-1.4-0.5-3.1,0.1-4.4-0.9c2.7-0.3,5.5-0.6,8.2-0.9c1,0.2,2.1,0.3,3.1,0.5
			C121.3,157.3,119,157.9,116.7,157.9z"/>
		<path fill="#E8633B" d="M140.1,149.5c-0.1-0.6-0.1-1.2-0.2-1.9c0.6-1.4,1.3-2.8,1.9-4.2C143,146.1,142.1,148,140.1,149.5z"/>
		<path fill="#ED6337" d="M110.3,149.2c0.7-0.3,1.4-0.6,2.1-0.8c5,0.4,10.1,0.8,15-0.6c2.6-0.7,4.8-1.9,6.3-4.2
			c1.2-0.2,0.9-3.6,3.2-1.6c-0.9,4.8-5.2,8.4-11.2,9.2c-0.6,0.1-1.2,0-1.7,0c-3.2,0.2-6.5-0.3-9.7-0.4
			C112.9,150.5,111.1,150.9,110.3,149.2z"/>
		<path fill="#2F4796" d="M124.5,150.7c5.2-1.4,10.2-3.1,12.4-8.7c1,1.2,1,1.2-0.8,4.4c-2.1,2.7-5.2,4.1-8.1,5.6c-2,0-4.1,0-6.1,0
			C122.2,150.5,123.7,151.3,124.5,150.7z"/>
		<path fill="#F16437" d="M103.8,147.8c-1.6,1.6-3.3,0.3-4.9,0.1c-1.9-0.9-3.8-1.7-5.7-2.6c-0.4-0.2-1.3-0.4-1.1-1.1
			c0.3-0.8,1.2-0.5,1.8-0.6c2.1,1.5,4.5,2.5,7.1,2.9C102.1,146.7,102.6,147.9,103.8,147.8z"/>
		<path fill="#F6F4C5" d="M130.8,132.1c-2.5-2.2-5-4.5-7.5-6.7c0.3-0.3,0.5-0.5,0.8-0.8C126.7,126.7,129.1,129,130.8,132.1z"/>
		<path fill="#F5DEDD" d="M107.3,145.2c-5.5-2.4-7.9-6.5-6.9-12.4c1.2,4.8,4,8.5,7.3,12C107.5,144.9,107.4,145,107.3,145.2z"/>
		<path fill="#AB82BA" d="M89.1,140c-2.1-2.5-2.2-5.4-1.7-8.5C87.9,134.4,88.5,137.2,89.1,140C89,140,89.1,140,89.1,140z"/>
		<path fill="#E5E6EF" d="M312.4,142.1c0.5-0.2,1-0.4,1.6-0.7c1.1,7-1.8,12.3-8.4,14.7c-5.1,1.9-10.4,2.9-15.8,3
			c-0.4-1.5,1.1-0.9,1.6-1.4c2.9-0.4,5.8-0.7,8.7-1.3C309,154.5,311.6,151.3,312.4,142.1z"/>
		<path fill="#EEEFF4" d="M309.4,142.9c1.1-0.9,0.6,0.4,0.9,0.7c-0.3,7.8-5.8,11.8-16.1,11.8c0.4-1.8,2-1.7,3.2-2.1
			C302.7,151.4,307.7,149.1,309.4,142.9z"/>
		<path fill="#EB3232" d="M290.3,152.6c3.4-3.9,3.2-8.3,1.2-12.9c3.8,3.3,4,6.5,1.4,12.6C292,152.7,291.2,152.8,290.3,152.6z"/>
		<path fill="#E3D1D8" d="M279.8,155.6c-5.2,0.2-5.7,0.1-9.9-2.7c3.7-0.4,6.6,1.6,9.8,2.1c0.2,0.1,0.3,0.2,0.3,0.4
			C280,155.5,279.9,155.6,279.8,155.6z"/>
		<path fill="#D0303F" d="M291.3,157.7c-0.5,0.5-1.1,0.9-1.6,1.4c-2.8,0.6-5.6,0.9-8.4,0.1c0.8-1,2-0.1,2.9-0.7
			C286.5,158,288.9,157.3,291.3,157.7z"/>
		<path fill="#AEACCC" d="M277.4,158.8c-2.7-0.3-5.3-1.1-7.3-3.1c2.5,0.7,5,1.4,7.5,2.1C278,158.1,278,158.5,277.4,158.8z"/>
		<path fill="#F4A9AB" d="M279.8,155.6c-0.1-0.2-0.1-0.4-0.1-0.6c2.3,0,4.6,0,7.4,0C284.4,156.9,282.1,155.5,279.8,155.6z"/>
		<path fill="#F39599" d="M277.4,158.8c0.1-0.3,0.1-0.7,0.2-1c2.1,1,4.4,0.6,6.7,0.8c-0.8,0.9-1.9,0.6-2.9,0.7
			C280,159.1,278.7,158.9,277.4,158.8z"/>
		<path fill="#C2A7CE" d="M270.6,138.4c0-0.2,0-0.3-0.1-0.5c4.9-0.4,9.4,1.6,14.1,2.4C279.7,141.5,275.4,138.3,270.6,138.4z"/>
		<path fill="#F5F3C3" d="M304.5,140.6c0.5-2.1-0.5-4-1.1-6c1.4,1.3,2.3,2.8,2.5,4.7C305.4,139.8,304.9,140.2,304.5,140.6z"/>
		<path fill="#EA262A" d="M474.8,150.6c0,3.1-1.8,3.1-4.7,1.7c3.2,2.9,3.2,2.9,1.8,4c-4-2.8-5.7-7.4-8.1-11.3c-1-1.7,1-4.9,2.1-7.3
			c2.7,1.5,3.6,4.3,4.9,6.8C471.8,146.8,473.8,148.4,474.8,150.6z"/>
		<path fill="#244698" d="M470.6,145.3c-1.5-2.5-3.1-5-4.6-7.5c0.4,0,0.8-0.1,1.2-0.1c4.2,2.9,8.8,2.7,13.5,1.3
			c0.2-0.3,0.3-0.6,0.8-0.4c1-0.2,2-0.5,3-0.7c0,0.5,0.1,1,0.1,1.5c-2.2,2.3-5,2.4-7.4,2.4c2.2,0.9,4.7-1.6,7.4-0.9
			c0,0.5,0,0.9,0,1.4c-2.2,2.6-5.2,1.3-7.4,1.7c-0.9,0.1-0.4,0.9-0.5,0.4c0-0.1,0-0.1,0.1-0.1c2.6-0.2,5.1-0.7,7.7-0.5
			c0.3,1.7-1,1.8-2.1,2c-1.1,0.2-2.3,0.4-3.4,0.6C476,147.1,473.2,147.1,470.6,145.3z"/>
		<path fill="#86499A" d="M455,143c-0.8-2.4-1.4-4.8,0-7.3c2.6,0.1,5.2,0.6,7.7,1.4C462.1,143.5,461.9,143.7,455,143z"/>
		<path fill="#DDDBDB" d="M456.3,157.2c0.9-0.1,1.4-0.6,1.4-1.6c0.8-1.5,1.4-3.1,2.3-4.6c0.8-1.3-0.1-1.9-0.9-2.5
			c1.1,0.1,2.2-0.1,3.1,0.2c2,0.6,3.1,1.7,1.6,3.8c-0.9,1.2-1.7,2.6-2.4,3.9C460,159.1,458.4,159.5,456.3,157.2z"/>
		<path fill="#864B9D" d="M462.6,137.1c-2.7,0.5-5.3,0-7.7-1.4c0.1-0.7,0.1-1.5,0.2-2.2c2.1,0.7,4.1,1.4,6.2,2.1
			C462.2,135.9,462.9,136,462.6,137.1z"/>
		<path fill="#F6F6EB" d="M465.7,126.1c2.3,3.9,5.3,7.2,8,10.8C469.8,134.2,466,131.5,465.7,126.1z"/>
		<path fill="#F6F4C4" d="M481.4,138.6c-0.3,0.1-0.5,0.3-0.8,0.4c-3.9-2.1-7.1-5-9.6-8.7c-0.1-0.4,0.1-0.5,0.4-0.4
			C474.4,133.2,477.6,136.2,481.4,138.6z"/>
		<path fill="#F6F5CF" d="M471,130.3c-2.1-2.1-3.3-4.6-3.5-7.7c1.3,2.4,2.6,4.8,4,7.2C471.3,130,471.1,130.1,471,130.3z"/>
		<path fill="#DCCFE3" d="M441.5,140.1c-2.1-0.5-4.3,0.6-6.3-0.7c4-0.3,8-1.4,12-0.4c0.3,0.4,0.4,0.7,0,1.1
			C445.3,140.1,443.4,140.1,441.5,140.1z"/>
		<path fill="#BFA2CB" d="M447.2,137.1c-2.9,0-5.8,0-8.7,0c0-0.2,0-0.4,0-0.6c2.9,0,5.9,0,8.8,0
			C447.4,136.7,447.3,136.9,447.2,137.1z"/>
		<path fill="#E28568" d="M450.5,129.2c0.1,2.2-1,3.5-0.8,5.1C449.3,132.7,448.6,131.1,450.5,129.2z"/>
		<path fill="#EFEFF1" d="M470.6,145.3c2.8,0.3,5.5,0.7,8.3,1c2.9,0,5.7,0.1,8.6,0.1c0.4,2.1-1,2.2-2.5,2.1
			c-2.4-0.2-4.6,0.1-6.6,1.5c-1.2-0.1-2.4,0-3.5,0.7C472.9,149.2,471.5,147.5,470.6,145.3z"/>
		<path fill="#B5B87C" d="M484.4,140.8c-2.8,0.8-5.6,1.9-9.1,0.9c3.5-0.4,6.5-0.9,9.2-2.4C484.4,139.8,484.4,140.3,484.4,140.8z"/>
		<path fill="#A6AD7D" d="M484.4,143.6c-2.8,0.8-5.6,0.7-8.4,0.3c2.8-0.6,5.9-0.1,8.5-1.7C484.4,142.7,484.4,143.1,484.4,143.6z"/>
		<path fill="#EDEEF3" d="M397.3,147.7c-2,5-8.4,8.7-13.6,8c-0.4-0.1-1,0-1.1-0.6c-0.2-0.9,0.5-0.8,1.1-1c4.4-1.2,8.4-3.1,11.5-6.5
			C395.9,147.2,396.6,147.1,397.3,147.7z"/>
		<path fill="#F1F2F4" d="M385.2,143c2.2,1.7,4.5,3.4,7.3,4.2c-2,2.6-4.9,3.7-7.9,4.6C383.9,148.8,384.6,145.9,385.2,143z"/>
		<path fill="#ED2C2C" d="M385.2,143c0.4,3,0.1,5.9-0.6,8.8c-0.8,0.2-1.7,0.4-2.5,0.6c-0.4-1.2,0.1-2,1-2.7
			c1.2-3.9,0.8-7.4-2.2-10.4c-0.8-0.8-0.6-0.9,0.7-1.7C383.3,139.2,384.4,141,385.2,143z"/>
		<path fill="#ED3031" d="M378.3,152.8c1.2-2,2.4-4,2.7-6.4c0.3-2.2-2.4-3.8-1.1-6.5c2.3,2.5,2.7,5.3,2.5,8.3
			c-0.4,1.5-0.1,3.3-1.7,4.3C379.9,152.7,379.1,152.8,378.3,152.8z"/>
		<path fill="#D3303C" d="M379.4,157.9c-0.8,0.6-1.6,1.1-2.4,1.7c-3.1,0.4-6.2,0.6-9.2-0.3c2.4-0.6,4.8-0.8,7.2-1
			C376.4,157.8,377.9,157.6,379.4,157.9z"/>
		<path fill="#DCA3AF" d="M374.9,158.2c-2.3,1.2-4.8,0.7-7.2,1c-1.6-0.3-3.2-0.6-4.8-0.9c-0.3-0.9,0.1-1.1,0.8-0.8
			C367.4,158.9,371.2,157.9,374.9,158.2z"/>
		<path fill="#CBC970" d="M397.3,147.7c-0.7,0-1.4,0-2.1-0.1c0.4-1.6,1.9-3,1.5-4.9c0.3-0.6,0.9-0.6,1.4-0.5
			C398.1,144.1,398.3,146,397.3,147.7z"/>
		<path fill="#A5A3C6" d="M366.9,154.9c2.7,1.7,5.4-0.6,8.1,0c0,0.7-0.5,1-1,1.2c-3.1,0.1-6.2,0.5-9.3-0.4
			C365.1,154.8,366.3,155.6,366.9,154.9z"/>
		<path fill="#E7D9E0" d="M366.9,154.9c-0.6,0.8-1.5,0.5-2.3,0.8c-2,0.1-3.6-0.8-5.4-1.9C362.2,152.7,364.4,154.8,366.9,154.9z"/>
		<path fill="#F1B5B5" d="M380.7,152.6c0.6-1.4,1.1-2.9,1.7-4.3c0.2,0.5,0.4,1,0.6,1.5c-0.3,0.9-0.7,1.8-1,2.7
			C381.6,152.5,381.2,152.5,380.7,152.6z"/>
		<path fill="#BB2D49" d="M374,156.2c0.3-0.4,0.7-0.8,1-1.2c1.1,0,2.2-0.5,3.4,0.6C377,156.8,375.4,156.1,374,156.2z"/>
		<path fill="#8E9BC9" d="M363.7,157.6c-0.3,0.3-0.6,0.5-0.9,0.8c-1.8-0.5-3.5-1.2-4.8-2.8C360,156.2,361.9,156.9,363.7,157.6z"/>
		<path fill="#F6F6E4" d="M386.5,138.3c-3.9-2.3-6.9-5.2-7.5-10.9C381.4,131.9,384.1,135,386.5,138.3z"/>
		<path fill="#F4F1B9" d="M378.1,134.9c-1.6-2.9-2.2-6.1-2.5-9.3c-0.1-1-0.1-1.9-1.5-1.8c0.5-1,1.3-0.8,2.2-0.7
			c0.6,4.2,1,8.4,3.3,12C379.1,135,378.6,134.9,378.1,134.9z"/>
		<path fill="#F5F4C2" d="M380.9,125.2c1.7,2.8,3.4,5.6,5,8.4C383.1,131.6,381.4,128.8,380.9,125.2z"/>
		<path fill="#C2A6CE" d="M363.5,139.8c0.2-0.2,0.4-0.4,0.7-0.6c2.9,0,5.7,1,9.1,1.9C369.4,141.8,366.5,140.4,363.5,139.8z"/>
		<path fill="#CBB5D6" d="M364.7,137.3c0.5-0.2,1-0.5,1.5-0.7c1.5,0.6,3.5,0.2,4.3,2.2C368.5,138.3,366.6,137.8,364.7,137.3z"/>
		<path fill="#E95C31" d="M207.7,154.1c2,0,4,0,6,0.1c-1.5,1.2-3.3,1.2-5,1.6c-3,0.3-6,0.8-9,0.1c-5.4-0.4-10.6-1.1-15.8-2.7
			c-1.2-0.4-2.4-0.8-3.3-1.8c-1.8-1-3.8-1.7-5-3.6c0.8-0.6,1.5-0.9,2.4,0c2.1,2,4.8,2.6,7.5,3c2.3-0.6,4.4,0.6,6.6,0.5
			c0.3,0.1,0.7,0.1,1,0.2c2.3,0.3,4.5,1,6.8,0.9C202.5,152.8,205.3,152.7,207.7,154.1z"/>
		<path fill="#C8CADE" d="M225.2,151.7c-4.7,4.1-10.3,5.9-16.4,6.9c-0.9,0.1-1.9,0.7-2.6-0.4c3.9-1.1,7.9-1.8,11.7-3.3
			c2.7-1.1,5.1-2.7,7.1-4.9C225.6,150.4,225.4,151.1,225.2,151.7z"/>
		<path fill="#2E4998" d="M180.5,151.4c6.3,1.8,12.7,2.9,19.2,3.6c-0.5,1.7-2,1.1-3.1,1.3c-5,0.3-9.6-1.1-14.1-2.8
			C181.2,153.4,180.5,152.7,180.5,151.4z"/>
		<path fill="#D1CEDD" d="M182.5,153.4c4.7,1,9.3,2.5,14.2,2.3c2.2,0.4,4.4-0.4,6.6,0.2c0.5,0.1,1.2,0,1.1,0.9
			C196.8,157.4,189.3,157.8,182.5,153.4z"/>
		<path fill="#BABFDA" d="M200.7,159.8c-5.6,1.9-10.7,0-15.6-2.6C190.2,158.7,195.5,158.5,200.7,159.8L200.7,159.8z"/>
		<path fill="#6B669A" d="M204.4,156.8c-2.4-1.3-5.2,0.1-7.7-1c1-0.3,2.2,0.1,3-0.8c3,0.3,6,0.5,9,0.8
			C207.4,156.8,205.8,156.3,204.4,156.8z"/>
		<path fill="#D6573A" d="M200.7,159.8C200.7,159.8,200.6,159.8,200.7,159.8c1.3-2.4,3.8-0.8,5.6-1.6c0.9,0.1,1.7,0.3,2.6,0.4
			C206.2,159.6,203.5,160,200.7,159.8z"/>
		<path fill="#D56148" d="M225.2,151.7c-0.1-0.6-0.1-1.2-0.2-1.8c0.2-1.5,0.9-2.7,2.3-4.1C227.9,148.6,227,150.3,225.2,151.7z"/>
		<path fill="#F15F31" d="M181.2,146.2c5.5,3,11.4,4.4,17.7,4.5c0.8,0.5,1.4,1,0.3,1.8c-2.2,0.1-4.5,0-6.7-0.5l0.1,0
			c-2.4-0.7-5.1-0.5-7.2-2.1c-2.3-0.7-4.5-1.7-6.6-3.1C179.4,145.7,180.3,146,181.2,146.2z"/>
		<path fill="#F29B80" d="M185.4,149.9c2.4,0.7,4.9,0.9,7.2,2.1c-2.5,0.1-4.9-0.1-7.1-1.3C185.4,150.5,185.4,150.2,185.4,149.9z"/>
		<path fill="#E6D6D4" d="M199.7,152c-0.3-0.5-0.6-0.9-0.8-1.4c-0.3-0.9-0.6-1.7-0.9-2.6c-0.4-1.1-1.9-2.3-0.8-3.4
			c1.3-1.2,2.1,0.8,3.2,1.1c0.2,0.4,0.4,0.9,0.6,1.3c0.4,0.7,2,0.2,1.5,1.7c4.1,2.9,10.3,1.4,12.7-3.1c0.5-0.3-0.1-1.7,1.2-1.4
			c0.2,4.5-0.6,5.4-6.3,6.5c-2.8,1.5-5.8,2.1-8.9,1.9C200.7,152.7,200.1,152.5,199.7,152z"/>
		<path fill="#F5D1CE" d="M202.6,148.7c-0.5-0.6-1-1.1-1.5-1.7c1,0,2.1,0.1,3.1,0c5.2-0.4,6.8-2.3,6.2-7.4c2.9,4.2,1.8,7-3.1,8.1
			C205.8,148.1,204.2,148.4,202.6,148.7z"/>
		<path fill="#F4BEBF" d="M216.5,144.3c-0.4,0.5-0.8,0.9-1.2,1.4c0.3-6.1-3.7-10.4-6.2-15.4C213.3,134,215.2,138.9,216.5,144.3z"/>
		<path fill="#F15C2E" d="M201.1,152.1c3.1,0,6-1.6,9.1-1.4c-0.7,2.2,1.2,0.8,1.8,1.3c-0.4,0.2-0.8,0.4-1.1,0.6
			c-3.1,1-6.2,0.9-9.4,0.4C201,152.9,200.8,152.6,201.1,152.1z"/>
		<path fill="#F39EA0" d="M200.1,131c4.1,0,6.6,2.5,8.6,5.7C205.9,134.7,203.6,132,200.1,131z"/>
		<path fill="#F28E8E" d="M188.6,131.2c2.1-2.2,4.7-2.8,7.5-2.6C193.6,129.5,191.1,130.3,188.6,131.2z"/>
		<path fill="#DCDBE6" d="M201.1,152.6c3.2,0,6.5,0,9.7,0.1c-0.8,1.2-2.4,0.5-3.2,1.4c-2.6-0.3-5.3-0.5-7.9-0.8
			C199.7,152.1,200.4,152.4,201.1,152.6z"/>
		<path fill="#F2AE99" d="M110.3,149.2c0.8,1.4,2.7,0.3,3.6,1.4c0.2,0.1,0.3,0.2,0.2,0.3c0,0.1-0.1,0.2-0.1,0.2
			c-1.7-0.2-3.4-0.5-5.1-0.7C109.2,149.9,109.5,149.3,110.3,149.2z"/>
		<path fill="#DDDDE8" d="M113.9,151.2c0-0.2,0-0.4-0.1-0.5c3.5,0,7.1,0.1,10.6,0.1c-0.5,1.1-1.9,0.3-2.5,1.2
			C119.2,152.3,116.6,151.3,113.9,151.2z"/>
		<path fill="#F29B80" d="M201.1,152.6c-0.5,0.2-0.9,0.5-1.4,0.7c-2.5-0.2-5-0.2-7.3-1.3c2.4,0,4.8,0,7.2,0c0.5,0,0.9,0.1,1.4,0.1
			C201.1,152.3,201.1,152.5,201.1,152.6z"/>
	</g>
</g>
<g>
	<circle fill="none" stroke="#000000" stroke-miterlimit="10" cx="366.7" cy="253.1" r="18.6"/>
	<line fill="none" stroke="#000000" stroke-miterlimit="10" x1="366" y1="237.6" x2="366" y2="252.1"/>
	<line fill="none" stroke="#000000" stroke-miterlimit="10" x1="366.2" y1="251.4" x2="356.2" y2="260.4"/>
	<circle cx="365.5" cy="251.6" r="1.4"/>
</g>
<g>
	<circle fill="none" stroke="#000000" stroke-miterlimit="10" cx="452.5" cy="253.1" r="18.6"/>
	<line fill="none" stroke="#000000" stroke-miterlimit="10" x1="466.5" y1="254.2" x2="452.5" y2="250.2"/>
	<line fill="none" stroke="#000000" stroke-miterlimit="10" x1="452.3" y1="250.9" x2="450.8" y2="264.2"/>
	<circle cx="452.3" cy="250.2" r="1.4"/>
</g>
<g>
	<circle fill="none" stroke="#000000" stroke-miterlimit="10" cx="280.8" cy="253.1" r="18.6"/>
	<line fill="none" stroke="#000000" stroke-miterlimit="10" x1="289" y1="240.8" x2="280.1" y2="252.3"/>
	<line fill="none" stroke="#000000" stroke-miterlimit="10" x1="280.1" y1="252.1" x2="291.1" y2="259.7"/>
	<circle cx="280.2" cy="252.2" r="1.4"/>
</g>
<g>
	<circle fill="none" stroke="#000000" stroke-miterlimit="10" cx="194.9" cy="253.1" r="18.6"/>
	<line fill="none" stroke="#000000" stroke-miterlimit="10" x1="194.2" y1="238.6" x2="194.2" y2="253.1"/>
	<line fill="none" stroke="#000000" stroke-miterlimit="10" x1="194.7" y1="252.8" x2="181.3" y2="253.4"/>
	<circle cx="194.2" cy="252.8" r="1.4"/>
</g>
<g>
	<path d="M109,240.8c-0.3,0-0.6,0.3-0.6,0.6v12.8c0,0.2,0.1,0.3,0.2,0.4l8.2,8.2c0.2,0.2,0.6,0.2,0.8,0c0.2-0.2,0.2-0.6,0-0.8
		l-8.1-8.1v-12.5C109.6,241.1,109.3,240.8,109,240.8L109,240.8z M109,235.6c10.3,0,18.6,8.3,18.6,18.6c0,10.3-8.3,18.6-18.6,18.6
		s-18.6-8.3-18.6-18.6C90.4,243.9,98.7,235.6,109,235.6z M109,234.4c-10.9,0-19.8,8.9-19.8,19.8c0,10.9,8.9,19.8,19.8,19.8
		s19.8-8.9,19.8-19.8C128.8,243.3,119.9,234.4,109,234.4z"/>
	<circle cx="109" cy="254.2" r="1.4"/>
</g>
</svg>
