<?xml version="1.0" encoding="utf-8"?>
<!-- Generator: Adobe Illustrator 23.0.3, SVG Export Plug-In . SVG Version: 6.00 Build 0)  -->
<svg version="1.1" id="Layer_1" xmlns="http://www.w3.org/2000/svg" xmlns:xlink="http://www.w3.org/1999/xlink" x="0px" y="0px"
	 viewBox="0 0 600 350" enable-background="new 0 0 600 350" xml:space="preserve">
<path fill="#D0EBE4" d="M316.5,257.3H66.1c-6.6,0-12-5.4-12-12V216c0-6.6,5.4-12,12-12h250.4c6.6,0,12,5.4,12,12v29.3
	C328.5,251.9,323.1,257.3,316.5,257.3z"/>
<text transform="matrix(1 0 0 1 52.7522 52.6351)"><tspan x="0" y="0" font-family="'ArialMT'" font-size="13px">2016-2026 growth </tspan><tspan x="22.8" y="15.6" font-family="'ArialMT'" font-size="13px">projections</tspan></text>
<path fill="#5E5F61" d="M59.6,151.5h19.8v21.2H59.6V151.5z M58.6,174.2h21.7c0.5,0,1-0.3,1-0.8v-22.7c0-0.4-0.4-0.8-1-0.8H58.6
	c-0.5,0-1,0.3-1,0.8v22.7C57.6,173.9,58.1,174.2,58.6,174.2z"/>
<path fill="#5E5F61" d="M88.7,140.7h21l0,31.9h-21L88.7,140.7z M86.7,173.4c0,0.5,0.5,0.8,1,0.8h23c0.6,0,1-0.4,1-0.8l0-33.6
	c0-0.5-0.5-0.8-1-0.8h-23c-0.6,0-1,0.4-1,0.8L86.7,173.4z"/>
<path fill="#5E5F61" d="M139.1,171.7h-21.4v-60.2h21.4V171.7z M140.2,109h-23.4c-0.6,0-1,0.6-1,1.3V173c0,0.7,0.5,1.3,1,1.3h23.4
	c0.6,0,1-0.6,1-1.3v-62.7C141.2,109.6,140.7,109,140.2,109z"/>
<path fill="#5E5F61" d="M78.5,134.2c0,2.3-0.8,4.4-2.2,6.1c-0.5-1.9-1.7-3.6-3.4-4.6c0.9-1,1.5-2.2,1.5-3.6c0-2.9-2.3-5.2-5.2-5.2
	s-5.2,2.3-5.2,5.2c0,1.3,0.5,2.6,1.4,3.5c-1.8,1-3.1,2.7-3.6,4.7c-1.4-1.6-2.2-3.8-2.2-6.1c0-5.2,4.3-9.5,9.5-9.5
	C74.2,124.7,78.5,128.9,78.5,134.2L78.5,134.2z M63.4,141.8c0.1-2.4,1.7-4.4,4-5.1c0.4-0.1,0.6-0.4,0.6-0.8c0-0.4-0.2-0.7-0.5-0.9
	c-1.1-0.6-1.8-1.7-1.8-3c0-1.9,1.5-3.4,3.4-3.4c1.9,0,3.4,1.5,3.4,3.4c0,1.3-0.7,2.4-1.8,3c-0.3,0.2-0.5,0.5-0.5,0.9
	c0,0.4,0.3,0.7,0.6,0.8c2.2,0.7,3.7,2.8,3.9,5.1c-1.6,1.2-3.5,1.9-5.6,1.9C66.9,143.6,64.9,142.9,63.4,141.8L63.4,141.8z
	 M57.7,134.2c0,6.2,5.1,11.3,11.3,11.3s11.3-5.1,11.3-11.3s-5.1-11.3-11.3-11.3C62.8,122.8,57.7,127.9,57.7,134.2z"/>
<path fill="#5E5F61" d="M98.9,115.5c5.2,0,9.5,4.3,9.5,9.5c0,2.3-0.8,4.4-2.2,6.1c-0.5-1.9-1.7-3.6-3.4-4.6c0.9-1,1.5-2.2,1.5-3.6
	c0-2.9-2.3-5.2-5.2-5.2s-5.2,2.3-5.2,5.2c0,1.3,0.5,2.6,1.4,3.5c-1.8,1-3.1,2.7-3.6,4.7c-1.4-1.6-2.2-3.8-2.2-6.1
	C89.5,119.8,93.7,115.5,98.9,115.5L98.9,115.5z M93.3,132.6c0.1-2.4,1.7-4.4,4-5.1c0.4-0.1,0.6-0.4,0.6-0.8c0-0.4-0.2-0.7-0.5-0.9
	c-1.1-0.6-1.8-1.7-1.8-3c0-1.9,1.5-3.4,3.4-3.4c1.9,0,3.4,1.5,3.4,3.4c0,1.3-0.7,2.4-1.8,3c-0.3,0.2-0.5,0.5-0.5,0.9
	c0,0.4,0.3,0.7,0.6,0.8c2.2,0.7,3.7,2.8,3.9,5.1c-1.6,1.2-3.5,1.9-5.6,1.9C96.8,134.5,94.9,133.8,93.3,132.6L93.3,132.6z
	 M98.9,136.3c6.2,0,11.3-5.1,11.3-11.3c0-6.2-5.1-11.3-11.3-11.3c-6.2,0-11.3,5.1-11.3,11.3C87.6,131.2,92.7,136.3,98.9,136.3z"/>
<path fill="#5E5F61" d="M128,85.8c5.2,0,9.5,4.3,9.5,9.5c0,2.3-0.8,4.4-2.2,6.1c-0.5-1.9-1.7-3.6-3.4-4.6c0.9-1,1.5-2.2,1.5-3.6
	c0-2.9-2.3-5.2-5.2-5.2s-5.2,2.3-5.2,5.2c0,1.3,0.5,2.6,1.4,3.5c-1.8,1-3.1,2.7-3.6,4.7c-1.4-1.6-2.2-3.8-2.2-6.1
	C118.5,90,122.7,85.8,128,85.8L128,85.8z M122.3,102.9c0.1-2.4,1.7-4.4,4-5.1c0.4-0.1,0.6-0.4,0.6-0.8c0-0.4-0.2-0.7-0.5-0.9
	c-1.1-0.6-1.8-1.7-1.8-3c0-1.9,1.5-3.4,3.4-3.4c1.9,0,3.4,1.5,3.4,3.4c0,1.3-0.7,2.4-1.8,3c-0.3,0.2-0.5,0.5-0.5,0.9
	c0,0.4,0.3,0.7,0.6,0.8c2.2,0.7,3.7,2.8,3.9,5.1c-1.6,1.2-3.5,1.9-5.6,1.9C125.9,104.8,123.9,104.1,122.3,102.9L122.3,102.9z
	 M128,106.6c6.2,0,11.3-5.1,11.3-11.3c0-6.2-5.1-11.3-11.3-11.3c-6.2,0-11.3,5.1-11.3,11.3C116.6,101.5,121.7,106.6,128,106.6z"/>
<text transform="matrix(1 0 0 1 58.8939 190.0993)" font-family="'ArialMT'" font-size="11.9287px">Avg</text>
<text transform="matrix(1 0 0 1 89.4574 190.0993)" font-family="'ArialMT'" font-size="11.9287px">TW</text>
<text transform="matrix(1 0 0 1 116.9852 190.0988)" font-family="'ArialMT'" font-size="11.9287px">SD/P</text>
<g>
	<text transform="matrix(1 0 0 1 119.7381 136.3014)" font-family="'ArialMT'" font-size="9.176px">17%</text>
</g>
<g>
	<text transform="matrix(1 0 0 1 62.9334 163.0246)" font-family="'ArialMT'" font-size="9.176px">7%</text>
</g>
<g>
	<text transform="matrix(1 0 0 1 90.3748 156.6017)" font-family="'ArialMT'" font-size="9.176px">11%</text>
</g>
<rect x="71.1" y="212" fill="none" width="263.3" height="48.4"/>
<text transform="matrix(1 0 0 1 71.0593 221.4264)"><tspan x="0" y="0" font-family="'ArialMT'" font-size="11px">“... Job opportunities, especially  for applicants with </tspan><tspan x="0" y="13.2" font-family="'ArialMT'" font-size="11px">technical skills, are expected to be good.” </tspan><tspan x="0" y="26.4" font-family="'ArialMT'" font-size="11px">-- BLS</tspan></text>
<text transform="matrix(1 0 0 1 389.5834 54.5399)" font-family="'ArialMT'" font-size="13px">Perceived workloads</text>
<line fill="none" stroke="#A9A8A9" stroke-miterlimit="10" x1="338.9" y1="35.4" x2="338.9" y2="277.3"/>
<rect x="191.5" y="87.6" fill="none" width="148.7" height="115.1"/>
<text transform="matrix(1 0 0 1 191.4662 96.1579)"><tspan x="0" y="0" font-family="'ArialMT'" font-size="10px">►1 tech writer for every 33 </tspan><tspan x="0" y="12" font-family="'ArialMT'" font-size="10px">software developers and </tspan><tspan x="0" y="24" font-family="'ArialMT'" font-size="10px">programmers in 2016</tspan><tspan x="0" y="48" font-family="'ArialMT'" font-size="10px">► 1 tech writer for every 35 </tspan><tspan x="0" y="60" font-family="'ArialMT'" font-size="10px">software developers and </tspan><tspan x="0" y="72" font-family="'ArialMT'" font-size="10px">programmers in 2026</tspan></text>
<rect x="356" y="63.4" fill="none" width="211.5" height="80.3"/>
<text transform="matrix(1 0 0 1 355.958 72.0259)"><tspan x="0" y="0" font-family="'ArialMT'" font-size="10px">“The number of engineers I support seems to </tspan><tspan x="0" y="12" font-family="'ArialMT'" font-size="10px">be growing each year, making the ratio of tech </tspan><tspan x="0" y="24" font-family="'ArialMT'" font-size="10px">writers to engineers more lopsided (with fewer </tspan><tspan x="0" y="36" font-family="'ArialMT'" font-size="10px">tech writers and more engineers).”</tspan></text>
<g>
	<g>
		<g>
			<g>
				<path fill="#A4A4A4" stroke="#000000" stroke-width="0.5" stroke-miterlimit="10" d="M451.6,206.6l-9.4-53.2
					c3.2-0.6,6.2-0.8,9.4-0.8V206.6z"/>
			</g>
		</g>
		<g>
			<g>
				<path fill="#A4A4A4" stroke="#000000" stroke-width="0.5" stroke-miterlimit="10" d="M451.6,206.6l-22.8-49
					c4.4-2,8.7-3.4,13.5-4.2L451.6,206.6z"/>
			</g>
		</g>
		<g>
			<g>
				<path fill="#DADADA" stroke="#000000" stroke-width="0.5" stroke-miterlimit="10" d="M451.6,206.6l-54-1.9
					c0.7-20.9,12.2-38.2,31.2-47.1L451.6,206.6z"/>
			</g>
		</g>
		<g>
			<g>
				<path fill="#9CB5A4" stroke="#000000" stroke-width="0.5" stroke-miterlimit="10" d="M451.6,206.6l43.7,31.8
					c-17.5,24.1-51.3,29.5-75.5,12c-15-10.9-22.9-27.1-22.2-45.6L451.6,206.6z"/>
			</g>
		</g>
		<g>
			<g>
				<path fill="#B5DDBE" stroke="#000000" stroke-width="0.5" stroke-miterlimit="10" d="M451.6,206.6v-54c29.8,0,54,24.2,54,54
					c0,12.1-3.2,22-10.3,31.8L451.6,206.6z"/>
			</g>
		</g>
	</g>
	<g>
		<g>
		</g>
		<g>
		</g>
		<g>
		</g>
		<g>
		</g>
		<g>
		</g>
	</g>
</g>
<text transform="matrix(1 0 0 1 375.0458 172.2748)"><tspan x="0" y="0" font-family="'ArialMT'" font-size="6px">Undecided </tspan><tspan x="9.2" y="7.2" font-family="'ArialMT'" font-size="6px">18%</tspan></text>
<text transform="matrix(1 0 0 1 395.2247 137.7013)"><tspan x="0" y="0" font-family="'ArialMT'" font-size="6px">Disagree </tspan><tspan x="8.5" y="7.2" font-family="'ArialMT'" font-size="6px">4%</tspan></text>
<text transform="matrix(1 0 0 1 427.0215 123.7159)"><tspan x="0" y="0" font-family="'ArialMT'" font-size="6px">Strongly </tspan><tspan x="-1" y="7.2" font-family="'ArialMT'" font-size="6px">Disagree </tspan><tspan x="7.5" y="14.4" font-family="'ArialMT'" font-size="6px">3%</tspan></text>
<text transform="matrix(1 0 0 1 495.7447 168.5202)"><tspan x="0" y="0" font-family="'ArialMT'" font-size="6px">Strongly Agree</tspan><tspan x="13.8" y="7.2" font-family="'ArialMT'" font-size="6px">35%</tspan></text>
<text transform="matrix(1 0 0 1 385.5737 257.2588)" font-family="'ArialMT'" font-size="6px">Agree 41%</text>
<line fill="none" stroke="#666666" stroke-width="0.25" stroke-miterlimit="10" x1="434" y1="155.7" x2="414.1" y2="140.4"/>
<line fill="none" stroke="#666666" stroke-width="0.25" stroke-miterlimit="10" x1="443.3" y1="140.3" x2="448" y2="152.2"/>
<g>
	<path fill="none" stroke="#6D6D6D" stroke-width="0.7271" stroke-miterlimit="10" d="M153.5,87.9c4.7,0.1,7.7,3.3,9.2,6.2
		c4.1,8.3,2,17.5,5,26c1.6,4.4,5.7,9.2,12.6,9.7"/>
	<path fill="none" stroke="#6D6D6D" stroke-width="0.7719" stroke-miterlimit="10" d="M153.5,177c4.7-0.2,7.7-3.7,9.2-7
		c4.1-9.4,2-19.7,5-29.3c1.6-5,5.7-10.4,12.6-10.9"/>
</g>
</svg>
