<?xml version="1.0" encoding="utf-8"?>
<!-- Generator: Adobe Illustrator 23.0.3, SVG Export Plug-In . SVG Version: 6.00 Build 0)  -->
<svg version="1.1" id="Layer_1" xmlns="http://www.w3.org/2000/svg" xmlns:xlink="http://www.w3.org/1999/xlink" x="0px" y="0px"
	 viewBox="0 0 600 350" style="enable-background:new 0 0 600 350;" xml:space="preserve">
<style type="text/css">
	.st0{fill:none;}
	.st1{fill:#010101;}
	.st2{font-family:'ArialMT';}
	.st3{font-size:12px;}
	.st4{font-size:8px;}
	.st5{fill:#E0DEDE;}
	.st6{font-family:'Arial-BoldMT';}
	.st7{font-size:9.7635px;}
	.st8{fill:none;stroke:#010101;stroke-width:2;stroke-miterlimit:10;}
	.st9{fill:#D6EAF3;}
	.st10{fill:none;stroke:#010101;stroke-miterlimit:10;}
	.st11{fill:none;stroke:#010101;stroke-miterlimit:10;stroke-dasharray:3.4822,3.4822;}
</style>
<rect x="230" y="47.5" class="st0" width="600" height="45.9"/>
<rect x="436.8" y="52.7" class="st0" width="134.2" height="216.9"/>
<text transform="matrix(1 0 0 1 436.7654 62.9947)" class="st1 st2 st3">CX questions to answer</text>
<text transform="matrix(1 0 0 1 436.7654 86.9947)" class="st1 st2 st4">1. What&apos;s the CX journey with our </text>
<text transform="matrix(1 0 0 1 436.7654 96.5948)" class="st1 st2 st4">    products?</text>
<text transform="matrix(1 0 0 1 436.7654 115.795)" class="st1 st2 st4">2. What&apos;s the CX on competitor </text>
<text transform="matrix(1 0 0 1 436.7654 125.3951)" class="st1 st2 st4">    products?</text>
<text transform="matrix(1 0 0 1 436.7654 144.5948)" class="st1 st2 st4">3. What are the pain points in our </text>
<text transform="matrix(1 0 0 1 436.7654 154.1949)" class="st1 st2 st4">    CX?</text>
<text transform="matrix(1 0 0 1 436.7654 173.3951)" class="st1 st2 st4">4. What CX can we infer from web </text>
<text transform="matrix(1 0 0 1 436.7654 182.9947)" class="st1 st2 st4">    analytics?</text>
<text transform="matrix(1 0 0 1 436.7654 202.1949)" class="st1 st2 st4">5. What CX insights do we get from </text>
<text transform="matrix(1 0 0 1 436.7654 211.795)" class="st1 st2 st4">    surveys?</text>
<text transform="matrix(1 0 0 1 436.7654 230.9947)" class="st1 st2 st4">6. What are people saying/writing </text>
<text transform="matrix(1 0 0 1 436.7654 240.5948)" class="st1 st2 st4">    about our products?</text>
<rect x="29.4" y="32.4" class="st5" width="193.6" height="212.1"/>
<text transform="matrix(1 0 0 1 69.2148 49.2809)" class="st1 st6 st7">Not the Writing Model</text>
<text transform="matrix(1 0 0 1 130.7113 84.5987)" class="st1 st2 st7">technology</text>
<path class="st1" d="M329.8,158.4c0,0.3,0.2,0.5,0.5,0.5v-1C330,157.9,329.8,158.1,329.8,158.4z"/>
<path class="st1" d="M330.2,159.7c-0.8,0-1.5-0.6-1.5-1.4c0-0.8,0.7-1.4,1.5-1.4v-0.4h-10.6v4.1h10.7v-0.9L330.2,159.7L330.2,159.7z
	"/>
<path class="st1" d="M329.3,153.8c0,0.5-0.4,0.9-1,0.9h-6.8c-0.5,0-1-0.4-1-0.9v-6.4c0-0.5,0.4-0.9,1-0.9h6.8c0.5,0,1,0.4,1,0.9
	V153.8z M321,138.3c0-1.3,1.1-2.3,2.4-2.3h2.9c1.3,0,2.4,1,2.4,2.3v2.7c0,1.3-1.1,2.3-2.4,2.3h-2.9c-1.3,0-2.4-1-2.4-2.3V138.3z
	 M330.2,134.2h-10.6v21.5h10.7v-21.5H330.2z"/>
<path class="st1" d="M323.9,149.2l2.4,1.4l-2.4,1.4V149.2z M321.5,153.8h6.8v-6.4h-6.8V153.8z"/>
<path class="st1" d="M106.2,89.2c0.7-0.2,1.4-0.4,2-0.8l1.2,1.1l2.7-2.6l-1.2-1.1c0.4-0.6,0.6-1.2,0.8-1.9h1.7v-3.7h-1.7
	c-0.2-0.7-0.5-1.3-0.8-1.9l1.2-1.1l-2.7-2.6l-1.2,1.1c-0.6-0.3-1.3-0.6-2-0.8v-1.6h-1.9v3.2c3.2,0,5.8,2.5,5.8,5.5s-2.6,5.5-5.8,5.5
	v3.2h1.9V89.2z"/>
<path class="st1" d="M324.9,138.7c0.5,0,1,0.4,1,0.9s-0.4,0.9-1,0.9s-1-0.4-1-0.9S324.4,138.7,324.9,138.7z M323.4,142.4h2.9
	c0.8,0,1.5-0.6,1.5-1.4v-2.7c0-0.8-0.7-1.4-1.5-1.4h-2.9c-0.8,0-1.5,0.6-1.5,1.4v2.7C322,141.8,322.6,142.4,323.4,142.4z"/>
<path class="st1" d="M111.5,94c0.3,0,0.5,0.2,0.5,0.5s-0.2,0.5-0.5,0.5s-0.5-0.2-0.5-0.5S111.2,94,111.5,94z M104.7,94.9h5.4
	c0.2,0.5,0.7,0.9,1.4,0.9c0.8,0,1.5-0.6,1.5-1.4s-0.7-1.4-1.5-1.4c-0.6,0-1.2,0.4-1.4,0.9h-4.9v-1.8h-1v2.3
	C104.2,94.7,104.4,94.9,104.7,94.9L104.7,94.9z"/>
<path class="st1" d="M120.2,70.3c-0.3,0-0.5-0.2-0.5-0.5s0.2-0.5,0.5-0.5s0.5,0.2,0.5,0.5S120.5,70.3,120.2,70.3z M120.2,68.4
	c-0.6,0-1.2,0.4-1.4,0.9h-4.9c-0.3,0-0.5,0.2-0.5,0.5v4.6h-2v0.9h2.4c0.3,0,0.5-0.2,0.5-0.5v-4.6h4.4c0.2,0.5,0.7,0.9,1.4,0.9
	c0.8,0,1.5-0.6,1.5-1.4C121.7,69,121,68.4,120.2,68.4L120.2,68.4z"/>
<path class="st1" d="M119.2,81.7c0.3,0,0.5,0.2,0.5,0.5s-0.2,0.5-0.5,0.5s-0.5-0.2-0.5-0.5S119,81.7,119.2,81.7z M119.2,83.5
	c0.8,0,1.5-0.6,1.5-1.4s-0.7-1.4-1.5-1.4c-0.6,0-1.2,0.4-1.4,0.9h-3v0.9h3C118.1,83.1,118.6,83.5,119.2,83.5z"/>
<path class="st1" d="M120.2,91.7c-0.3,0-0.5-0.2-0.5-0.5s0.2-0.5,0.5-0.5s0.5,0.2,0.5,0.5S120.5,91.7,120.2,91.7z M120.2,89.9
	c-0.6,0-1.2,0.4-1.4,0.9h-3.4v-2.3c0-0.3-0.2-0.5-0.5-0.5h-2v0.9h1.5v2.3c0,0.3,0.2,0.5,0.5,0.5h3.9c0.2,0.5,0.7,0.9,1.4,0.9
	c0.8,0,1.5-0.6,1.5-1.4C121.7,90.5,121,89.9,120.2,89.9L120.2,89.9z"/>
<path class="st1" d="M120.5,185.6l-2.5-3h4.9L120.5,185.6z M132.2,196.7v-8.2c0-4.1-2.8-7.4-6.2-7.4h-11c-3.4,0-6.2,3.3-6.2,7.4
	v10.7h1.4v-10.7c0-3.2,2.2-5.8,4.8-5.8h1.1l3.9,4.7c0.3,0.3,0.7,0.3,1,0l3.9-4.7h1.1c2.7,0,4.8,2.6,4.8,5.8v8.2H132.2z"/>
<rect x="113.6" y="190.1" class="st1" width="1.4" height="7.4"/>
<rect x="126" y="190.1" class="st1" width="1.4" height="5.8"/>
<path class="st1" d="M116.4,169.5c0-2.7,1.8-4.9,4.1-4.9c2.3,0,4.1,2.2,4.1,4.9v3.3c0,2.7-1.8,4.9-4.1,4.9c-2.3,0-4.1-2.2-4.1-4.9
	V169.5z M120.5,179.4c3,0,5.5-3,5.5-6.6v-3.3c0-3.6-2.5-6.6-5.5-6.6s-5.5,3-5.5,6.6v3.3C115,176.4,117.5,179.4,120.5,179.4z"/>
<path class="st1" d="M119.1,169.5c0-0.7,0.4-1.3,0.9-1.6l-0.5-1.6l0,0c-1.1,0.5-1.8,1.7-1.8,3.1v0.8h1.4V169.5z"/>
<path class="st1" d="M129.7,209.8v-6.2l2.5,1.9v2.5L129.7,209.8z M128.5,210.6h-12.2c0.1-0.2,0.1-0.4,0.1-0.7v-1.2h12.7v1.1
	c0,0.2,0,0.4-0.2,0.5C128.8,210.6,128.6,210.6,128.5,210.6L128.5,210.6z M110.7,210.6c-0.3,0-0.5-0.3-0.5-0.6v-6.6
	c0-0.3,0.2-0.6,0.5-0.6h2.4c0.3,0,0.5,0.3,0.5,0.6v6.6c0,0.3-0.2,0.6-0.5,0.6H110.7z M116.3,208v-2.5H129v2.5H116.3z M115.2,210.6
	h-1c0-0.2,0.1-0.4,0.1-0.6v-6.6c0-0.2,0-0.5-0.1-0.6h1c0.3,0,0.5,0.3,0.5,0.6v6.6C115.7,210.3,115.4,210.6,115.2,210.6z
	 M128.4,202.7c0.3,0,0.6,0.3,0.6,0.7v1.2h-12.7v-1.2c0-0.2,0-0.5-0.1-0.7H128.4z M134.3,207.4c0.2-0.2,0.3-0.4,0.3-0.7
	c0-0.2-0.1-0.5-0.2-0.7v-0.1l-0.1-0.1c0-0.1-0.1-0.1-0.2-0.2l-4.9-3.7c-0.1-0.1-0.2-0.1-0.3-0.2c-0.1,0-0.2,0-0.3-0.1H111
	c-0.4,0-0.7,0.2-0.9,0.5c-0.1,0.1-0.1,0.2-0.2,0.3c-0.1,0.2-0.2,0.5-0.2,0.8v6.6c0,0.4,0.1,0.8,0.3,1c0.2,0.3,0.5,0.4,0.8,0.4h0.1
	h17.6c0.3,0,0.6-0.2,0.9-0.4l4.7-3.4C134.1,207.6,134.2,207.5,134.3,207.4L134.3,207.4z"/>
<text transform="matrix(1 0 0 1 110.1979 222.4288)" class="st1 st2 st7">writer</text>
<path class="st8" d="M133,159.5l9.3-14.2c0.8-1.3-0.4-2.9-1.8-2.5l-3.4,1l-1.8-17.9c-0.1-0.9-0.8-1.5-1.6-1.5h-4.1
	c-0.9,0-1.5,0.6-1.6,1.5l-1.8,17.9l-3.4-1c-1.5-0.4-2.6,1.2-1.8,2.5l9.3,14.2C130.9,160.5,132.3,160.5,133,159.5L133,159.5z"/>
<path class="st8" d="M121.2,136.3l1.8-17.9l3.4,1c1.5,0.4,2.6-1.2,1.8-2.5l-9.3-14.2c-0.6-1-2.1-1-2.7,0l-9.3,14.2
	c-0.8,1.3,0.4,2.9,1.8,2.5l3.4-1l1.8,17.9c0.1,0.9,0.8,1.5,1.6,1.5h4.1C120.4,137.7,121.1,137.1,121.2,136.3L121.2,136.3z"/>
<rect x="227.7" y="32.4" class="st9" width="193.6" height="212.1"/>
<text transform="matrix(1 0 0 1 279.0111 49.2804)" class="st1 st6 st7">The Writing Model</text>
<text transform="matrix(1 0 0 1 344.3898 87.0939)" class="st1 st2 st7">technology</text>
<path class="st1" d="M316.4,95.6c0,0.3,0.2,0.5,0.5,0.5v-0.9C316.7,95.1,316.4,95.3,316.4,95.6z"/>
<path class="st1" d="M316.9,96.9c-0.8,0-1.5-0.6-1.5-1.4s0.7-1.4,1.5-1.4v-0.4h-10.7v4.1h10.7V96.9z"/>
<path class="st1" d="M315.9,91c0,0.5-0.4,0.9-1,0.9h-6.8c-0.5,0-1-0.4-1-0.9v-6.4c0-0.5,0.4-0.9,1-0.9h6.8c0.5,0,1,0.4,1,0.9V91z
	 M307.7,75.5c0-1.3,1.1-2.3,2.4-2.3h2.9c1.3,0,2.4,1,2.4,2.3v2.7c0,1.3-1.1,2.3-2.4,2.3h-2.9c-1.3,0-2.4-1-2.4-2.3V75.5z
	 M316.9,71.4h-10.7v21.5h10.7V71.4z"/>
<path class="st1" d="M310.6,86.4l2.4,1.4l-2.4,1.4V86.4z M308.2,91h6.8v-6.4h-6.8V91z"/>
<path class="st1" d="M319.8,91.7c0.7-0.2,1.4-0.4,2-0.8L323,92l2.7-2.6l-1.2-1.1c0.4-0.6,0.6-1.2,0.8-1.9h1.7v-3.7h-1.7
	c-0.2-0.7-0.5-1.3-0.8-1.9l1.2-1.1l-2.7-2.6l-1.2,1.1c-0.6-0.3-1.3-0.6-2-0.8v-1.6h-1.9V79c3.2,0,5.8,2.5,5.8,5.5s-2.6,5.5-5.8,5.5
	v3.2h1.9V91.7z"/>
<path class="st1" d="M311.6,75.9c0.5,0,1,0.4,1,0.9s-0.4,0.9-1,0.9c-0.5,0-1-0.4-1-0.9C310.6,76.4,311,75.9,311.6,75.9z M310.1,79.6
	h2.9c0.8,0,1.5-0.6,1.5-1.4v-2.7c0-0.8-0.7-1.4-1.5-1.4h-2.9c-0.8,0-1.5,0.6-1.5,1.4v2.7C308.7,79,309.3,79.6,310.1,79.6z"/>
<path class="st1" d="M325.2,96.5c0.3,0,0.5,0.2,0.5,0.5s-0.2,0.5-0.5,0.5s-0.5-0.2-0.5-0.5S324.9,96.5,325.2,96.5z M318.4,97.4h5.4
	c0.2,0.5,0.7,0.9,1.4,0.9c0.8,0,1.5-0.6,1.5-1.4s-0.7-1.4-1.5-1.4c-0.6,0-1.2,0.4-1.4,0.9h-4.9v-1.8h-1v2.3
	C317.9,97.2,318.1,97.4,318.4,97.4L318.4,97.4z"/>
<path class="st1" d="M321.3,71.8c0.3,0,0.5,0.2,0.5,0.5s-0.2,0.5-0.5,0.5s-0.5-0.2-0.5-0.5S321,71.8,321.3,71.8z M318.9,72.7h1.1
	c0.2,0.5,0.7,0.9,1.4,0.9c0.8,0,1.5-0.6,1.5-1.4s-0.7-1.4-1.5-1.4c-0.6,0-1.2,0.4-1.4,0.9h-1.5c-0.3,0-0.5,0.2-0.5,0.5v2.3h1v-1.8
	H318.9z"/>
<path class="st1" d="M333.9,72.7c-0.3,0-0.5-0.2-0.5-0.5s0.2-0.5,0.5-0.5s0.5,0.2,0.5,0.5S334.2,72.7,333.9,72.7z M333.9,70.9
	c-0.6,0-1.2,0.4-1.4,0.9h-4.9c-0.3,0-0.5,0.2-0.5,0.5v4.6h-2v0.9h2.4c0.3,0,0.5-0.2,0.5-0.5v-4.6h4.4c0.2,0.5,0.7,0.9,1.4,0.9
	c0.8,0,1.5-0.6,1.5-1.4C335.4,71.5,334.7,70.9,333.9,70.9L333.9,70.9z"/>
<path class="st1" d="M332.9,84.2c0.3,0,0.5,0.2,0.5,0.5s-0.2,0.5-0.5,0.5s-0.5-0.2-0.5-0.5S332.7,84.2,332.9,84.2z M332.9,86
	c0.8,0,1.5-0.6,1.5-1.4s-0.7-1.4-1.5-1.4c-0.6,0-1.2,0.4-1.4,0.9h-3V85h3C331.8,85.6,332.3,86,332.9,86z"/>
<path class="st1" d="M333.9,94.2c-0.3,0-0.5-0.2-0.5-0.5s0.2-0.5,0.5-0.5s0.5,0.2,0.5,0.5S334.2,94.2,333.9,94.2z M333.9,92.4
	c-0.6,0-1.2,0.4-1.4,0.9h-3.4V91c0-0.3-0.2-0.5-0.5-0.5h-2v0.9h1.5v2.3c0,0.3,0.2,0.5,0.5,0.5h3.9c0.2,0.5,0.7,0.9,1.4,0.9
	c0.8,0,1.5-0.6,1.5-1.4C335.4,93,334.7,92.4,333.9,92.4L333.9,92.4z"/>
<path class="st1" d="M387.9,180.7l-2.3-2.6h4.7L387.9,180.7z M399,190.5v-7.3c0-3.6-2.6-6.6-5.9-6.6h-10.4c-3.2,0-5.8,2.9-5.9,6.6
	v9.5h1.3v-9.5c0-2.8,2-5.1,4.6-5.1h1l3.7,4.2c0.3,0.3,0.7,0.3,0.9,0l3.7-4.2h1c2.5,0,4.5,2.3,4.6,5.1v7.3H399z"/>
<rect x="381.4" y="184.6" class="st1" width="1.3" height="6.6"/>
<rect x="393.1" y="184.6" class="st1" width="1.3" height="5.1"/>
<path class="st1" d="M398.6,202H394v-6.9h4.6V202z M393.2,202h-9.1c-0.3,0-0.7-0.1-0.9-0.3l-5.4-3.7c-0.3-0.2-0.5-0.7-0.5-1.2v-0.1
	c0-0.4,0.2-0.9,0.4-1.1c0.3-0.2,0.6-0.3,0.9-0.1l1.4,0.9l0,0l3.3,2.1l0,0c0.1,0,0.1,0.1,0.2,0.1h4.6v-1.1h-3.8
	c-0.4,0-0.8-0.5-0.8-1.1c0,0,0,0,0-0.1c0-0.6,0.4-1.1,0.8-1.1h3.2c0.1,0,0.1,0,0.2-0.1l0.1-0.1c0.8-0.6,1.8-0.9,2.7-0.9h0.1
	c0.9,0,1.7,0.3,2.5,0.9L393.2,202z M399.1,194h-5.4c-0.9-0.7-2-1.1-3-1.1h-0.1c-1.1,0-2.2,0.4-3.1,1.1h-3.1c-0.9,0-1.7,1-1.7,2.3
	v0.1c0,0.2,0,0.3,0.1,0.5l-2.4-1.5l0,0l-1.4-0.9c-0.6-0.3-1.2-0.3-1.7,0.2c-0.5,0.4-0.8,1.2-0.8,2.1v0.1c0,0.9,0.4,1.8,1,2.2
	l5.4,3.7c0.4,0.3,0.9,0.4,1.3,0.4h15c0.1,0,0.2-0.1,0.3-0.2c0.1-0.1,0.1-0.3,0.1-0.4v-8c0-0.2,0-0.3-0.1-0.4
	C399.3,194,399.2,194,399.1,194L399.1,194z"/>
<path class="st1" d="M384,166.4c0-2.4,1.7-4.4,3.9-4.4c2.2,0,3.9,2,3.9,4.4v2.9c0,2.4-1.7,4.4-3.9,4.4c-2.2,0-3.9-2-3.9-4.4V166.4z
	 M387.9,175.1c2.9,0,5.2-2.6,5.2-5.8v-2.9c0-3.2-2.3-5.8-5.2-5.8c-2.9,0-5.2,2.6-5.2,5.8v2.9C382.7,172.5,385,175.1,387.9,175.1z"/>
<path class="st1" d="M386.6,166.4c0-0.6,0.3-1.2,0.9-1.4l-0.5-1.4l0,0c-1,0.4-1.7,1.5-1.7,2.8v0.7h1.3L386.6,166.4z"/>
<path class="st1" d="M250.9,179.3l-2.5-3h4.9L250.9,179.3z M262.5,190.4v-8.2c0-4.1-2.8-7.4-6.2-7.4h-11c-3.4,0-6.2,3.3-6.2,7.4
	v10.7h1.4v-10.7c0-3.2,2.2-5.8,4.8-5.8h1.1l3.9,4.7c0.3,0.3,0.7,0.3,1,0l3.9-4.7h1.1c2.7,0,4.8,2.6,4.8,5.8v8.2H262.5z"/>
<rect x="244" y="183.8" class="st1" width="1.4" height="7.4"/>
<rect x="256.3" y="183.8" class="st1" width="1.4" height="5.8"/>
<path class="st1" d="M246.7,163.2c0-2.7,1.8-4.9,4.1-4.9s4.1,2.2,4.1,4.9v3.3c0,2.7-1.8,4.9-4.1,4.9s-4.1-2.2-4.1-4.9V163.2
	L246.7,163.2z M250.9,173.1c3,0,5.5-3,5.5-6.6v-3.3c0-3.6-2.5-6.6-5.5-6.6s-5.5,3-5.5,6.6v3.3C245.4,170.1,247.8,173.1,250.9,173.1z
	"/>
<path class="st1" d="M249.5,163.2c0-0.7,0.4-1.3,0.9-1.6l-0.5-1.6l0,0c-1.1,0.5-1.8,1.7-1.8,3.1v0.8h1.4L249.5,163.2z"/>
<path class="st1" d="M260.1,203.5v-6.2l2.5,1.9v2.5L260.1,203.5z M258.8,204.3h-12.2c0.1-0.2,0.1-0.4,0.1-0.7v-1.2h12.7v1.1
	c0,0.2,0,0.4-0.2,0.5C259.1,204.3,259,204.3,258.8,204.3L258.8,204.3z M241.1,204.3c-0.3,0-0.5-0.3-0.5-0.6v-6.6
	c0-0.3,0.2-0.6,0.5-0.6h2.4c0.3,0,0.5,0.3,0.5,0.6v6.6c0,0.3-0.2,0.6-0.5,0.6H241.1z M246.7,201.7v-2.5h12.7v2.5H246.7z
	 M245.5,204.3h-1c0-0.2,0.1-0.4,0.1-0.6v-6.6c0-0.2,0-0.5-0.1-0.6h1c0.3,0,0.5,0.3,0.5,0.6v6.6C246,204,245.8,204.3,245.5,204.3z
	 M258.8,196.4c0.3,0,0.6,0.3,0.6,0.7v1.2h-12.7v-1.2c0-0.2,0-0.5-0.1-0.7H258.8z M264.6,201.1c0.2-0.2,0.3-0.4,0.3-0.7
	c0-0.2-0.1-0.5-0.2-0.7v-0.1l-0.1-0.1c0-0.1-0.1-0.1-0.2-0.2l-4.9-3.7c-0.1-0.1-0.2-0.1-0.3-0.2c-0.1,0-0.2,0-0.3-0.1h-17.6
	c-0.4,0-0.7,0.2-0.9,0.5c-0.1,0.1-0.1,0.2-0.2,0.3c-0.1,0.2-0.2,0.5-0.2,0.8v6.6c0,0.4,0.1,0.8,0.3,1c0.2,0.3,0.5,0.4,0.8,0.4h0.1
	h17.6c0.3,0,0.6-0.2,0.9-0.4l4.7-3.4C264.4,201.3,264.5,201.2,264.6,201.1L264.6,201.1z"/>
<polygon class="st10" points="320.8,102.1 273.3,184.5 368.4,184.5 "/>
<text transform="matrix(1 0 0 1 240.5371 216.1266)" class="st1 st2 st7">writer</text>
<text transform="matrix(1 0 0 1 377.3725 214.5177)" class="st1 st2 st7">reader</text>
<circle class="st10" cx="391.8" cy="191.9" r="35.3"/>
<g>
	<g>
		<path class="st10" d="M383.5,156.6c0.1-0.6,0.3-1.1,0.4-1.7"/>
		<path class="st11" d="M384.8,151.6c2.1-7,5-13.8,7.9-20.5c10.6-24.5,21.6-48.7,33-72.8c3.5-7.5,7.2-15,12.6-21.3s12.8-11.3,21-12
			c8-0.7,15.9,2.7,22.1,7.7c2.8,2.3,5.3,5,7.2,8"/>
		<path class="st10" d="M489.4,42.3c0.3,0.5,0.5,1.1,0.8,1.6"/>
		<g>
			<path class="st1" d="M491.7,49.7c-1.8-2.4-4.5-5.3-6.9-6.9l5,0.4l4.1-3C492.7,42.8,491.9,46.7,491.7,49.7z"/>
		</g>
	</g>
</g>
</svg>
