<?xml version="1.0" encoding="utf-8"?>
<!-- Generator: Adobe Illustrator 23.0.3, SVG Export Plug-In . SVG Version: 6.00 Build 0)  -->
<svg version="1.1" id="Layer_1" xmlns="http://www.w3.org/2000/svg" xmlns:xlink="http://www.w3.org/1999/xlink" x="0px" y="0px"
	 viewBox="0 0 600 350" enable-background="new 0 0 600 350" xml:space="preserve">
<rect y="44" fill="none" width="600" height="45.9"/>
<text transform="matrix(1 0 0 1 84.6007 65.4881)" font-family="'ArialMT'" font-size="25px">BLS data about TW and SD job growth</text>
<text transform="matrix(1 0 0 1 105.5363 104.2653)" font-family="'Arial-BoldMT'" font-size="13px">Technical writers </text>
<text transform="matrix(1 0 0 1 338.6342 104.2653)" font-family="'Arial-BoldMT'" font-size="13px">Software developers and programmers </text>
<text transform="matrix(1 0 0 1 112.2997 224.3997)" fill="#ED1C24" font-family="'Arial-BoldMT'" font-size="12px">8.2% growth rate</text>
<g>
	<line fill="none" stroke="#000000" stroke-width="0.5" stroke-miterlimit="10" x1="76.4" y1="295.5" x2="279.3" y2="295.5"/>
	<g>
		<g>
			<line fill="none" stroke="#000000" stroke-width="0.5" stroke-miterlimit="10" x1="76.4" y1="295.5" x2="76.4" y2="291.2"/>
		</g>
	</g>
</g>
<g>
	<g>
		<text transform="matrix(1 0 0 1 68.3244 299.0957)" font-family="'MyriadPro-Regular'" font-size="9.514px">0</text>
		<g>
			<text transform="matrix(1 0 0 1 38.8142 256.0503)" fill="#0B0B0B" font-family="'ArialMT'" font-size="9.514px">500,000</text>
		</g>
		<g>
			<text transform="matrix(1 0 0 1 30.8796 213.0044)" fill="#0B0B0B" font-family="'ArialMT'" font-size="9.514px">1,000,000</text>
		</g>
		<g>
			<text transform="matrix(1 0 0 1 30.8796 169.959)" fill="#0B0B0B" font-family="'ArialMT'" font-size="9.514px">1,500,000</text>
		</g>
		<text transform="matrix(1 0 0 1 30.8796 126.9131)" font-family="'ArialMT'" font-size="9.514px">2,000,000</text>
	</g>
	<line fill="none" stroke="#000000" stroke-width="0.5" stroke-miterlimit="10" x1="76.4" y1="295.5" x2="76.4" y2="123.3"/>
	<g>
		<g>
			<line fill="none" stroke="#000000" stroke-width="0.5" stroke-miterlimit="10" x1="76.4" y1="295.5" x2="81.4" y2="295.5"/>
			<line fill="none" stroke="#000000" stroke-width="0.5" stroke-miterlimit="10" x1="76.4" y1="252.5" x2="81.4" y2="252.5"/>
			<line fill="none" stroke="#000000" stroke-width="0.5" stroke-miterlimit="10" x1="76.4" y1="209.4" x2="81.4" y2="209.4"/>
			<line fill="none" stroke="#000000" stroke-width="0.5" stroke-miterlimit="10" x1="76.4" y1="166.4" x2="81.4" y2="166.4"/>
			<line fill="none" stroke="#000000" stroke-width="0.5" stroke-miterlimit="10" x1="76.4" y1="123.3" x2="81.4" y2="123.3"/>
		</g>
	</g>
</g>
<g>
	<g>
		<g>
			
				<rect x="195.7" y="291.2" fill="#424384" stroke="#000000" stroke-width="0.5" stroke-miterlimit="10" width="29.2" height="4.3"/>
		</g>
	</g>
	<g>
		<g>
			
				<rect x="163.2" y="291.2" fill="#6870A6" stroke="#000000" stroke-width="0.5" stroke-miterlimit="10" width="29.2" height="4.3"/>
		</g>
	</g>
	<g>
		<g>
			
				<rect x="130.8" y="291.4" fill="#868BC4" stroke="#000000" stroke-width="0.5" stroke-miterlimit="10" width="29.2" height="4.2"/>
		</g>
	</g>
	<g>
		<g>
			<rect x="98.3" y="291.6" fill="#C6BDDD" stroke="#000000" stroke-width="0.5" stroke-miterlimit="10" width="29.2" height="4"/>
		</g>
	</g>
</g>
<g>
	<line fill="#868BC4" stroke="#000000" stroke-width="0.5" stroke-miterlimit="10" x1="371.3" y1="297.7" x2="574.3" y2="297.7"/>
	<g>
		<g>
			<line fill="#868BC4" stroke="#000000" stroke-width="0.5" stroke-miterlimit="10" x1="371.3" y1="297.7" x2="371.3" y2="293.4"/>
		</g>
	</g>
</g>
<g>
	<g>
		<text transform="matrix(1 0 0 1 362.8845 301.279)" fill="#0B0B0B" font-family="'ArialMT'" font-size="9.514px">0</text>
		<g>
			<text transform="matrix(1 0 0 1 333.7849 258.2336)" fill="#0B0B0B" font-family="'ArialMT'" font-size="9.514px">500,000</text>
		</g>
		<g>
			<text transform="matrix(1 0 0 1 325.8503 215.1877)" fill="#0B0B0B" font-family="'ArialMT'" font-size="9.514px">1,000,000</text>
		</g>
		<g>
			<text transform="matrix(1 0 0 1 325.8503 172.1422)" fill="#0B0B0B" font-family="'ArialMT'" font-size="9.514px">1,500,000</text>
		</g>
		<text transform="matrix(1 0 0 1 325.8503 129.0963)" fill="#0B0B0B" font-family="'ArialMT'" font-size="9.514px">2,000,000</text>
	</g>
</g>
<line fill="#868BC4" stroke="#000000" stroke-width="0.5" stroke-miterlimit="10" x1="371.3" y1="297.7" x2="371.3" y2="125.5"/>
<g>
	<g>
		<line fill="#868BC4" stroke="#000000" stroke-width="0.5" stroke-miterlimit="10" x1="371.3" y1="297.7" x2="376.4" y2="297.7"/>
		<line fill="#868BC4" stroke="#000000" stroke-width="0.5" stroke-miterlimit="10" x1="371.3" y1="254.7" x2="376.4" y2="254.7"/>
		<line fill="#868BC4" stroke="#000000" stroke-width="0.5" stroke-miterlimit="10" x1="371.3" y1="211.6" x2="376.4" y2="211.6"/>
		<line fill="#868BC4" stroke="#000000" stroke-width="0.5" stroke-miterlimit="10" x1="371.3" y1="168.6" x2="376.4" y2="168.6"/>
		<line fill="#868BC4" stroke="#000000" stroke-width="0.5" stroke-miterlimit="10" x1="371.3" y1="125.5" x2="376.4" y2="125.5"/>
	</g>
</g>
<g>
	<g>
		<g>
			
				<rect x="490.7" y="158.5" fill="#424384" stroke="#000000" stroke-width="0.25" stroke-miterlimit="10" width="29.2" height="139.2"/>
		</g>
	</g>
	<g>
		<g>
			
				<rect x="458.2" y="159.6" fill="#6870A6" stroke="#000000" stroke-width="0.25" stroke-miterlimit="10" width="29.2" height="138.1"/>
		</g>
	</g>
	<g>
		<g>
			
				<rect x="425.7" y="169.3" fill="#868BC4" stroke="#000000" stroke-width="0.25" stroke-miterlimit="10" width="29.2" height="128.5"/>
		</g>
	</g>
	<g>
		<g>
			
				<rect x="393.3" y="177.4" fill="#C6BDDD" stroke="#000000" stroke-width="0.25" stroke-miterlimit="10" width="29.2" height="120.3"/>
		</g>
	</g>
</g>
<g>
	<rect x="389.4" y="302.7" fill="none" width="31.8" height="17"/>
	<text transform="matrix(1 0 0 1 399.9959 310.8667)" fill="#0B0B0B" font-family="'ArialMT'" font-size="9.514px">2012</text>
</g>
<g>
	<rect x="489.1" y="302.7" fill="none" width="29.8" height="17"/>
	<text transform="matrix(1 0 0 1 497.7594 310.8663)" fill="#0B0B0B" font-family="'ArialMT'" font-size="9.514px">2017</text>
</g>
<g>
	<text transform="matrix(1 0 0 1 411.1475 138.4467)" fill="#ED1C24" font-family="'Arial-BoldMT'" font-size="12px">15.7% growth rate</text>
</g>
<g>
	<text transform="matrix(1 0 0 1 395.1054 170.7755)" fill="#0B0B0B" font-family="'ArialMT'" font-size="9.514px">1.4m</text>
</g>
<g>
	<text transform="matrix(1 0 0 1 428.5662 164.5762)" fill="#0B0B0B" font-family="'ArialMT'" font-size="9.514px">1.5m</text>
</g>
<g>
	<text transform="matrix(1 0 0 1 461.5663 154.7471)" fill="#0B0B0B" font-family="'ArialMT'" font-size="9.514px">1.6m</text>
</g>
<g>
	<text transform="matrix(1 0 0 1 490.8363 152.968)" fill="#0B0B0B" font-family="'ArialMT'" font-size="9.514px">1.6m</text>
</g>
<text transform="matrix(1 0 0 1 98.6452 285.2438)" font-family="'ArialMT'" font-size="9.514px">46.2k</text>
<text transform="matrix(1 0 0 1 132.1844 285.2437)" font-family="'ArialMT'" font-size="9.514px">48.2k</text>
<g>
	<text transform="matrix(1 0 0 1 164.2949 285.2437)" font-family="'ArialMT'" font-size="9.514px">49.8k</text>
</g>
<g>
	<text transform="matrix(1 0 0 1 201.2422 285.2439)" font-family="'ArialMT'" font-size="9.514px">50k</text>
</g>
<g>
	<rect x="100.4" y="302.7" fill="none" width="31.8" height="17"/>
	<text transform="matrix(1 0 0 1 100.4425 310.4254)" font-family="'ArialMT'" font-size="9px">2012</text>
</g>
<g>
	<rect x="197.2" y="302.7" fill="none" width="29.8" height="17"/>
	<text transform="matrix(1 0 0 1 197.1736 310.4254)" font-family="'ArialMT'" font-size="9px">2017</text>
</g>
</svg>
