<?xml version="1.0" encoding="utf-8"?>
<!-- Generator: Adobe Illustrator 23.0.3, SVG Export Plug-In . SVG Version: 6.00 Build 0)  -->
<svg version="1.1" id="Layer_1" xmlns="http://www.w3.org/2000/svg" xmlns:xlink="http://www.w3.org/1999/xlink" x="0px" y="0px"
	 viewBox="0 0 600 350" enable-background="new 0 0 600 350" xml:space="preserve">
<path opacity="0.13" fill="#4A4B4D" d="M182.5,220.5H48.8c-6.6,0-12-5.4-12-12V98.2c0-6.6,5.4-12,12-12h133.7c6.6,0,12,5.4,12,12
	v110.2C194.5,215.1,189.1,220.5,182.5,220.5z"/>
<rect x="0" y="44.1" fill="none" width="600" height="45.9"/>
<text transform="matrix(1 0 0 1 83.9178 65.5097)" font-family="'ArialMT'" font-size="25px">A reliable barometer for trends: job ads</text>
<path d="M105.7,131.2h-3.9c-4.1,0-7.3,3.8-7.3,8.3c0,5.4,3.8,13.4,9.3,13.4s9.3-8.2,9.3-13.5C113,134.9,109.8,131.2,105.7,131.2z"/>
<path d="M77.9,185.5c-1.5,0.5-2.9,1.1-3.9,2.3c-1.1,1.1-2,2.4-2.3,3.9l-0.8,5.9l-0.8,6c-0.2,0.7,0.2,1.3,0.7,1.8
	c0.5,0.5,1.1,0.8,1.8,0.8h25.8c0.7,0,1.3-0.3,1.8-0.8s0.7-1.1,0.7-1.8l-1.6-11.8c-0.5-1.5-1.3-2.9-2.3-3.9c-1.1-1.1-2.4-1.8-3.9-2.3
	h-15L77.9,185.5z"/>
<path d="M73.2,192.1l-1.5,11.8c0,0.3,0.2,0.5,0.2,0.5c0.2,0.2,0.3,0.3,0.7,0.3h25.9c0.3,0,0.5-0.2,0.7-0.3c0.2-0.2,0.2-0.3,0.2-0.5
	l-1.6-11.8c-0.3-1.1-1-2.3-1.8-3.1c-0.8-0.8-2-1.5-3.1-1.8H78.3c-1.1,0.3-2.1,1-3.1,1.8C74.2,189.9,73.5,190.9,73.2,192.1
	L73.2,192.1z M98.3,207.9H72.4c-1.1,0-2.3-0.5-2.9-1.3c-0.8-0.8-1.1-2-1-3.1l1.6-12.1c0.5-1.8,1.5-3.4,2.8-4.7
	c1.3-1.3,2.9-2.1,4.7-2.6h16c1.8,0.5,3.4,1.5,4.7,2.6c1.3,1.3,2.3,2.9,2.8,4.7v0.2l1.6,11.8c0.2,1.1-0.2,2.3-1,3.1
	C100.6,207.4,99.5,207.9,98.3,207.9L98.3,207.9z"/>
<path d="M87.4,162.2h-3.9c-3.1,0-5.7,2.9-5.7,6.7c0,5.1,3.4,11.8,7.7,11.8c4.2,0,7.7-6.7,7.7-11.8C93,165.1,90.5,162.2,87.4,162.2z"
	/>
<path d="M83.5,163.8c-2.3,0-4.1,2.3-4.1,5.1c0,4.4,2.9,10.3,6,10.3c3.1,0,6-5.9,6-10.1c0-2.8-1.8-5.1-4.1-5.1l-3.9,0V163.8z
	 M85.5,182.4c-5.5,0-9.3-8.2-9.3-13.4c0-4.6,3.3-8.3,7.3-8.3h3.9c4.1,0,7.3,3.8,7.3,8.2C94.8,174.3,91,182.4,85.5,182.4z"/>
<path d="M105.4,159.9v-2.3c0-1-0.7-1.6-1.6-1.6s-1.6,0.7-1.6,1.6v2.3H105.4z"/>
<path d="M120.7,173.9l-1.6-11.8V162c-0.5-1.8-1.5-3.4-2.8-4.7s-2.9-2.1-4.7-2.6l-1-0.3l-5.4,5.7v10.3c0,1-0.7,1.6-1.6,1.6
	s-1.6-0.7-1.6-1.6v-10.3l-5.4-5.7l-1,0.3c-1.8,0.5-3.4,1.5-4.7,2.6l-0.7,0.7c4.2,1.5,7.3,5.9,7.3,10.9c0,3.1-0.8,6.5-2.4,9.6h21.2
	c1.1,0,2.3-0.5,2.9-1.3C120.5,176.2,120.9,175.1,120.7,173.9L120.7,173.9z"/>
<path d="M67,190.6c0.7-2.3,1.8-4.4,3.6-6.2c1.6-1.6,3.8-2.9,6-3.4h0.2c-1-1.3-1.8-2.9-2.4-4.6l-17.6,15.2c-0.5,0.5-0.7,1.1-0.5,1.8
	c0.2,0.7,0.8,1,1.5,1h8.5L67,190.6z"/>
<path d="M132.8,176.2c-0.2-0.7-0.8-1-1.5-1H124c-0.2,1.5-0.8,2.9-1.8,4.1c-1.3,1.5-3.4,2.4-5.4,2.4H96.6c1.5,0.7,2.8,1.5,3.8,2.6
	c1.8,1.6,2.9,3.9,3.6,6.2l0.2,0.5l0.5,3.4h8.5c0.3,0,0.8-0.2,1.1-0.3l18.4-16C132.9,177.5,133.1,176.9,132.8,176.2L132.8,176.2z"/>
<path d="M176.9,135.8h-31.3V96.9h20.2V107c0,0.4,0.3,0.6,0.6,0.6l10.5,0L176.9,135.8z M167,97.7l8.9,8.6l-8.9,0V97.7z M178.1,106.7
	c-0.1-0.1-0.1-0.1-0.1-0.2l-11.1-10.7c-0.1-0.1-0.1-0.1-0.3-0.1h-0.2h-21.5c-0.4,0-0.6,0.3-0.6,0.6v40.1c0,0.4,0.3,0.6,0.6,0.6h32.6
	c0.4,0,0.6-0.3,0.6-0.6v-2.6l0-26.8C178.1,107,178.1,106.8,178.1,106.7L178.1,106.7z"/>
<path d="M51.3,193.5l-1.1-3.7l2.2,0L51.3,193.5z M51,176.5l0.6,0c0.6,0,1,0.5,1,1.2l0,1.3l-2.5,0l0-1.3C50,177,50.4,176.5,51,176.5
	L51,176.5z M50,179.8l2.5,0l0,9.1l-2.5,0L50,179.8z M53.4,189.4l0-9.9l0-1.8c0-1.1-0.9-2-1.9-2l-0.6,0c-1.1,0-1.9,0.9-1.9,2l0,11.7
	l0,0.1l1.7,5.7c0,0.2,0.2,0.3,0.4,0.3c0.2,0,0.4-0.1,0.4-0.3l1.6-5.7L53.4,189.4L53.4,189.4z"/>
<path d="M172.5,116.2h-5.2v-4.7h5.2L172.5,116.2z M172.9,110.7h-6c-0.3,0-0.4,0.2-0.4,0.4v5.5c0,0.3,0.2,0.4,0.4,0.4h6
	c0.3,0,0.4-0.2,0.4-0.4l0-5.5C173.3,110.9,173.1,110.7,172.9,110.7L172.9,110.7z"/>
<path d="M168.8,115.2c0.1,0.1,0.2,0.2,0.3,0.2h0c0.1,0,0.2,0,0.3-0.1l2.5-2.3c0.2-0.2,0.2-0.4,0-0.6c-0.2-0.2-0.4-0.2-0.6,0
	l-2.1,1.9l-0.6-0.9c-0.1-0.2-0.4-0.3-0.6-0.1c-0.2,0.1-0.3,0.4-0.1,0.6L168.8,115.2z"/>
<path d="M172.5,123.6h-5.2v-4.7h5.2L172.5,123.6z M172.9,118.1h-6c-0.3,0-0.4,0.2-0.4,0.4v5.5c0,0.3,0.2,0.4,0.4,0.4h6
	c0.3,0,0.4-0.2,0.4-0.4l0-5.5C173.4,118.3,173.2,118.1,172.9,118.1L172.9,118.1z"/>
<path d="M168.8,122.1c0.1,0.1,0.2,0.2,0.3,0.2h0c0.1,0,0.2,0,0.3-0.1l2.5-2.3c0.2-0.2,0.2-0.4,0-0.6c-0.2-0.2-0.4-0.2-0.6,0
	l-2.1,1.9l-0.6-0.9c-0.1-0.2-0.4-0.3-0.6-0.1c-0.2,0.1-0.3,0.4-0.1,0.6L168.8,122.1z"/>
<path d="M172.5,131.2h-5.2v-4.7h5.2L172.5,131.2z M172.9,125.7h-6c-0.3,0-0.4,0.2-0.4,0.4v5.5c0,0.3,0.2,0.4,0.4,0.4h6
	c0.3,0,0.4-0.2,0.4-0.4l0-5.5C173.4,125.9,173.2,125.7,172.9,125.7L172.9,125.7z"/>
<path d="M168.7,130.1c0.1,0.1,0.2,0.2,0.3,0.2h0c0.1,0,0.2,0,0.3-0.1l2.5-2.3c0.2-0.2,0.2-0.4,0-0.6c-0.2-0.2-0.4-0.2-0.6,0
	l-2.1,1.9l-0.6-0.9c-0.1-0.2-0.4-0.3-0.6-0.1c-0.2,0.1-0.3,0.4-0.1,0.6L168.7,130.1z"/>
<path d="M150.5,109.7c0-1.8,1.4-3.1,3.1-3.1h4.4c1.8,0,3.1,1.4,3.1,3.1v1.3h-10.7L150.5,109.7z M155.9,99.4c1.4,0,2.6,1.2,2.6,2.6
	c0,1.4-1.2,2.6-2.6,2.6c-1.4,0-2.6-1.2-2.6-2.6C153.2,100.6,154.4,99.4,155.9,99.4z M149.9,112.3h11.9c0.4,0,0.6-0.3,0.6-0.6v-1.9
	c0-2.4-2-4.4-4.4-4.4h-0.1c1.1-0.7,1.8-1.9,1.8-3.3c0-2.1-1.8-3.9-3.9-3.9s-3.9,1.8-3.9,3.9c0,1.4,0.8,2.6,1.8,3.3h-0.2
	c-2.4,0-4.4,2-4.4,4.4v1.9C149.2,112,149.6,112.3,149.9,112.3L149.9,112.3z"/>
<path d="M149.1,114.8c-0.4,0-0.6,0.3-0.6,0.6c0,0.4,0.3,0.6,0.6,0.6l12.2,0c0.4,0,0.6-0.3,0.6-0.6c0-0.4-0.3-0.6-0.6-0.6
	L149.1,114.8z"/>
<path d="M161.2,119.1h-12.2c-0.4,0-0.6,0.3-0.6,0.6c0,0.4,0.3,0.6,0.6,0.6l12.2,0c0.4,0,0.6-0.3,0.6-0.6
	C161.8,119.4,161.6,119.1,161.2,119.1L161.2,119.1z"/>
<path d="M161.7,123.4h-12.9c-0.2,0-0.3,0.3-0.3,0.6c0,0.4,0.1,0.6,0.3,0.6l12.9,0c0.2,0,0.3-0.3,0.3-0.6
	C162,123.6,161.9,123.4,161.7,123.4L161.7,123.4z"/>
<path d="M161.7,127.6h-12.9c-0.2,0-0.3,0.3-0.3,0.6c0,0.4,0.1,0.6,0.3,0.6l12.9,0c0.2,0,0.3-0.3,0.3-0.6
	C162,128,161.9,127.6,161.7,127.6L161.7,127.6z"/>
<path d="M161.7,132h-12.9c-0.2,0-0.3,0.3-0.3,0.6c0,0.4,0.1,0.6,0.3,0.6l12.9,0c0.2,0,0.3-0.3,0.3-0.6
	C162,132.2,161.9,132,161.7,132z"/>
<line fill="none" stroke="#282726" stroke-width="0.446" stroke-miterlimit="10" x1="129.1" y1="167.6" x2="148.2" y2="143"/>
<g>
	<path d="M58.5,261.4H47.8V248h7v3.5c0,0.1,0.1,0.2,0.2,0.2l3.6,0L58.5,261.4z M55.2,248.3l3.1,3l-3.1,0V248.3z M59,251.4
		C58.9,251.4,58.9,251.3,59,251.4l-3.9-3.8c0,0,0,0-0.1,0h-0.1h-7.4c-0.1,0-0.2,0.1-0.2,0.2v13.8c0,0.1,0.1,0.2,0.2,0.2h11.2
		c0.1,0,0.2-0.1,0.2-0.2v-0.9l0-9.2C59,251.5,59,251.4,59,251.4L59,251.4z"/>
	<path d="M57,254.6h-1.8V253H57L57,254.6z M57.2,252.7h-2.1c-0.1,0-0.1,0.1-0.1,0.1v1.9c0,0.1,0.1,0.1,0.1,0.1h2.1
		c0.1,0,0.1-0.1,0.1-0.1l0-1.9C57.3,252.8,57.3,252.7,57.2,252.7L57.2,252.7z"/>
	<path d="M55.8,254.3c0,0,0.1,0.1,0.1,0.1h0c0,0,0.1,0,0.1,0l0.9-0.8c0.1-0.1,0.1-0.1,0-0.2c-0.1-0.1-0.1-0.1-0.2,0l-0.7,0.7
		l-0.2-0.3c0-0.1-0.1-0.1-0.2,0s-0.1,0.1,0,0.2L55.8,254.3z"/>
	<path d="M57.1,257.2h-1.8v-1.6h1.8L57.1,257.2z M57.2,255.3h-2.1c-0.1,0-0.1,0.1-0.1,0.1v1.9c0,0.1,0.1,0.1,0.1,0.1h2.1
		c0.1,0,0.1-0.1,0.1-0.1l0-1.9C57.3,255.4,57.3,255.3,57.2,255.3L57.2,255.3z"/>
	<path d="M55.8,256.7c0,0,0.1,0.1,0.1,0.1h0c0,0,0.1,0,0.1,0l0.9-0.8c0.1-0.1,0.1-0.1,0-0.2c-0.1-0.1-0.1-0.1-0.2,0l-0.7,0.7
		l-0.2-0.3c0-0.1-0.1-0.1-0.2,0s-0.1,0.1,0,0.2L55.8,256.7z"/>
	<path d="M57.1,259.8h-1.8v-1.6h1.8L57.1,259.8z M57.2,257.9h-2.1c-0.1,0-0.1,0.1-0.1,0.1v1.9c0,0.1,0.1,0.1,0.1,0.1h2.1
		c0.1,0,0.1-0.1,0.1-0.1l0-1.9C57.3,258,57.3,257.9,57.2,257.9L57.2,257.9z"/>
	<path d="M55.7,259.4c0,0,0.1,0.1,0.1,0.1h0c0,0,0.1,0,0.1,0l0.9-0.8c0.1-0.1,0.1-0.1,0-0.2c-0.1-0.1-0.1-0.1-0.2,0l-0.7,0.7
		l-0.2-0.3c0-0.1-0.1-0.1-0.2,0s-0.1,0.1,0,0.2L55.7,259.4z"/>
	<path d="M49.1,252.4c0-0.6,0.5-1.1,1.1-1.1h1.5c0.6,0,1.1,0.5,1.1,1.1v0.5h-3.7L49.1,252.4z M51,248.9c0.5,0,0.9,0.4,0.9,0.9
		s-0.4,0.9-0.9,0.9c-0.5,0-0.9-0.4-0.9-0.9C50.1,249.3,50.5,248.9,51,248.9z M48.9,253.3H53c0.1,0,0.2-0.1,0.2-0.2v-0.7
		c0-0.8-0.7-1.5-1.5-1.5h0c0.4-0.2,0.6-0.6,0.6-1.1c0-0.7-0.6-1.3-1.3-1.3s-1.3,0.6-1.3,1.3c0,0.5,0.3,0.9,0.6,1.1h-0.1
		c-0.8,0-1.5,0.7-1.5,1.5v0.7C48.7,253.2,48.8,253.3,48.9,253.3L48.9,253.3z"/>
	<path d="M49,254.2c-0.1,0-0.2,0.1-0.2,0.2c0,0.1,0.1,0.2,0.2,0.2l4.2,0c0.1,0,0.2-0.1,0.2-0.2c0-0.1-0.1-0.2-0.2-0.2L49,254.2z"/>
	<path d="M53.2,255.6H49c-0.1,0-0.2,0.1-0.2,0.2c0,0.1,0.1,0.2,0.2,0.2l4.2,0c0.1,0,0.2-0.1,0.2-0.2
		C53.4,255.7,53.3,255.6,53.2,255.6L53.2,255.6z"/>
	<path d="M53.3,257.1h-4.4c-0.1,0-0.1,0.1-0.1,0.2c0,0.1,0,0.2,0.1,0.2l4.4,0c0.1,0,0.1-0.1,0.1-0.2
		C53.4,257.2,53.4,257.1,53.3,257.1L53.3,257.1z"/>
	<path d="M53.3,258.6h-4.4c-0.1,0-0.1,0.1-0.1,0.2c0,0.1,0,0.2,0.1,0.2l4.4,0c0.1,0,0.1-0.1,0.1-0.2
		C53.4,258.7,53.4,258.6,53.3,258.6L53.3,258.6z"/>
	<path d="M53.3,260.1h-4.4c-0.1,0-0.1,0.1-0.1,0.2c0,0.1,0,0.2,0.1,0.2l4.4,0c0.1,0,0.1-0.1,0.1-0.2
		C53.4,260.2,53.4,260.1,53.3,260.1z"/>
</g>
<g>
	<path d="M75.6,261.4H64.8V248h7v3.5c0,0.1,0.1,0.2,0.2,0.2l3.6,0L75.6,261.4z M72.2,248.3l3.1,3l-3.1,0V248.3z M76,251.4
		C76,251.4,76,251.3,76,251.4l-3.9-3.8c0,0,0,0-0.1,0H72h-7.4c-0.1,0-0.2,0.1-0.2,0.2v13.8c0,0.1,0.1,0.2,0.2,0.2h11.2
		c0.1,0,0.2-0.1,0.2-0.2v-0.9l0-9.2C76.1,251.5,76.1,251.4,76,251.4L76,251.4z"/>
	<path d="M74.1,254.6h-1.8V253h1.8L74.1,254.6z M74.2,252.7h-2.1c-0.1,0-0.1,0.1-0.1,0.1v1.9c0,0.1,0.1,0.1,0.1,0.1h2.1
		c0.1,0,0.1-0.1,0.1-0.1l0-1.9C74.4,252.8,74.3,252.7,74.2,252.7L74.2,252.7z"/>
	<path d="M72.8,254.3c0,0,0.1,0.1,0.1,0.1h0c0,0,0.1,0,0.1,0l0.9-0.8c0.1-0.1,0.1-0.1,0-0.2c-0.1-0.1-0.1-0.1-0.2,0L73,254l-0.2-0.3
		c0-0.1-0.1-0.1-0.2,0c-0.1,0-0.1,0.1,0,0.2L72.8,254.3z"/>
	<path d="M74.1,257.2h-1.8v-1.6h1.8L74.1,257.2z M74.3,255.3h-2.1c-0.1,0-0.1,0.1-0.1,0.1v1.9c0,0.1,0.1,0.1,0.1,0.1h2.1
		c0.1,0,0.1-0.1,0.1-0.1l0-1.9C74.4,255.4,74.4,255.3,74.3,255.3L74.3,255.3z"/>
	<path d="M72.8,256.7c0,0,0.1,0.1,0.1,0.1h0c0,0,0.1,0,0.1,0l0.9-0.8c0.1-0.1,0.1-0.1,0-0.2c-0.1-0.1-0.1-0.1-0.2,0l-0.7,0.7
		l-0.2-0.3c0-0.1-0.1-0.1-0.2,0c-0.1,0-0.1,0.1,0,0.2L72.8,256.7z"/>
	<path d="M74.1,259.8h-1.8v-1.6h1.8L74.1,259.8z M74.3,257.9h-2.1c-0.1,0-0.1,0.1-0.1,0.1v1.9c0,0.1,0.1,0.1,0.1,0.1h2.1
		c0.1,0,0.1-0.1,0.1-0.1l0-1.9C74.4,258,74.4,257.9,74.3,257.9L74.3,257.9z"/>
	<path d="M72.8,259.4c0,0,0.1,0.1,0.1,0.1h0c0,0,0.1,0,0.1,0l0.9-0.8c0.1-0.1,0.1-0.1,0-0.2c-0.1-0.1-0.1-0.1-0.2,0l-0.7,0.7
		l-0.2-0.3c0-0.1-0.1-0.1-0.2,0s-0.1,0.1,0,0.2L72.8,259.4z"/>
	<path d="M66.2,252.4c0-0.6,0.5-1.1,1.1-1.1h1.5c0.6,0,1.1,0.5,1.1,1.1v0.5h-3.7L66.2,252.4z M68.1,248.9c0.5,0,0.9,0.4,0.9,0.9
		s-0.4,0.9-0.9,0.9c-0.5,0-0.9-0.4-0.9-0.9C67.1,249.3,67.6,248.9,68.1,248.9z M66,253.3h4.1c0.1,0,0.2-0.1,0.2-0.2v-0.7
		c0-0.8-0.7-1.5-1.5-1.5h0c0.4-0.2,0.6-0.6,0.6-1.1c0-0.7-0.6-1.3-1.3-1.3c-0.7,0-1.3,0.6-1.3,1.3c0,0.5,0.3,0.9,0.6,1.1h-0.1
		c-0.8,0-1.5,0.7-1.5,1.5v0.7C65.8,253.2,65.9,253.3,66,253.3L66,253.3z"/>
	<path d="M66,254.2c-0.1,0-0.2,0.1-0.2,0.2c0,0.1,0.1,0.2,0.2,0.2l4.2,0c0.1,0,0.2-0.1,0.2-0.2c0-0.1-0.1-0.2-0.2-0.2L66,254.2z"/>
	<path d="M70.2,255.6H66c-0.1,0-0.2,0.1-0.2,0.2c0,0.1,0.1,0.2,0.2,0.2l4.2,0c0.1,0,0.2-0.1,0.2-0.2
		C70.4,255.7,70.4,255.6,70.2,255.6L70.2,255.6z"/>
	<path d="M70.4,257.1h-4.4c-0.1,0-0.1,0.1-0.1,0.2c0,0.1,0,0.2,0.1,0.2l4.4,0c0.1,0,0.1-0.1,0.1-0.2
		C70.5,257.2,70.5,257.1,70.4,257.1L70.4,257.1z"/>
	<path d="M70.4,258.6h-4.4c-0.1,0-0.1,0.1-0.1,0.2c0,0.1,0,0.2,0.1,0.2l4.4,0c0.1,0,0.1-0.1,0.1-0.2
		C70.5,258.7,70.5,258.6,70.4,258.6L70.4,258.6z"/>
	<path d="M70.4,260.1h-4.4c-0.1,0-0.1,0.1-0.1,0.2c0,0.1,0,0.2,0.1,0.2l4.4,0c0.1,0,0.1-0.1,0.1-0.2
		C70.5,260.2,70.5,260.1,70.4,260.1z"/>
</g>
<path d="M92.7,261.4H81.9V248h7v3.5c0,0.1,0.1,0.2,0.2,0.2l3.6,0L92.7,261.4z M89.3,248.3l3.1,3l-3.1,0V248.3z M93.1,251.4
	C93.1,251.4,93.1,251.3,93.1,251.4l-3.9-3.8c0,0,0,0-0.1,0h-0.1h-7.4c-0.1,0-0.2,0.1-0.2,0.2v13.8c0,0.1,0.1,0.2,0.2,0.2h11.2
	c0.1,0,0.2-0.1,0.2-0.2v-0.9l0-9.2C93.1,251.5,93.1,251.4,93.1,251.4L93.1,251.4z"/>
<path d="M91.2,254.6h-1.8V253h1.8L91.2,254.6z M91.3,252.7h-2.1c-0.1,0-0.1,0.1-0.1,0.1v1.9c0,0.1,0.1,0.1,0.1,0.1h2.1
	c0.1,0,0.1-0.1,0.1-0.1l0-1.9C91.5,252.8,91.4,252.7,91.3,252.7L91.3,252.7z"/>
<path d="M89.9,254.3c0,0,0.1,0.1,0.1,0.1h0c0,0,0.1,0,0.1,0l0.9-0.8c0.1-0.1,0.1-0.1,0-0.2c-0.1-0.1-0.1-0.1-0.2,0l-0.7,0.7
	l-0.2-0.3c0-0.1-0.1-0.1-0.2,0c-0.1,0-0.1,0.1,0,0.2L89.9,254.3z"/>
<path d="M91.2,257.2h-1.8v-1.6h1.8L91.2,257.2z M91.3,255.3h-2.1c-0.1,0-0.1,0.1-0.1,0.1v1.9c0,0.1,0.1,0.1,0.1,0.1h2.1
	c0.1,0,0.1-0.1,0.1-0.1l0-1.9C91.5,255.4,91.4,255.3,91.3,255.3L91.3,255.3z"/>
<path d="M89.9,256.7c0,0,0.1,0.1,0.1,0.1h0c0,0,0.1,0,0.1,0l0.9-0.8c0.1-0.1,0.1-0.1,0-0.2c-0.1-0.1-0.1-0.1-0.2,0l-0.7,0.7
	l-0.2-0.3c0-0.1-0.1-0.1-0.2,0c-0.1,0-0.1,0.1,0,0.2L89.9,256.7z"/>
<path d="M91.2,259.8h-1.8v-1.6h1.8L91.2,259.8z M91.3,257.9h-2.1c-0.1,0-0.1,0.1-0.1,0.1v1.9c0,0.1,0.1,0.1,0.1,0.1h2.1
	c0.1,0,0.1-0.1,0.1-0.1l0-1.9C91.5,258,91.4,257.9,91.3,257.9L91.3,257.9z"/>
<path d="M89.9,259.4c0,0,0.1,0.1,0.1,0.1h0c0,0,0.1,0,0.1,0l0.9-0.8c0.1-0.1,0.1-0.1,0-0.2c-0.1-0.1-0.1-0.1-0.2,0l-0.7,0.7
	l-0.2-0.3c0-0.1-0.1-0.1-0.2,0c-0.1,0-0.1,0.1,0,0.2L89.9,259.4z"/>
<path d="M92.8,253.7c0-0.8,0.6-1.4,1.4-1.4H96c0.8,0,1.4,0.6,1.4,1.4v0.6h-4.6L92.8,253.7z M95.1,249.2c0.6,0,1.1,0.5,1.1,1.1
	s-0.5,1.1-1.1,1.1c-0.6,0-1.1-0.5-1.1-1.1C94,249.7,94.5,249.2,95.1,249.2z M92.5,254.8h5.2c0.2,0,0.3-0.1,0.3-0.3v-0.8
	c0-1.1-0.9-1.9-1.9-1.9h0c0.5-0.3,0.8-0.8,0.8-1.4c0-0.9-0.8-1.7-1.7-1.7s-1.7,0.8-1.7,1.7c0,0.6,0.3,1.1,0.8,1.4h-0.1
	c-1.1,0-1.9,0.9-1.9,1.9v0.8C92.2,254.7,92.3,254.8,92.5,254.8L92.5,254.8z"/>
<path d="M83.1,254.2c-0.1,0-0.2,0.1-0.2,0.2c0,0.1,0.1,0.2,0.2,0.2l4.2,0c0.1,0,0.2-0.1,0.2-0.2c0-0.1-0.1-0.2-0.2-0.2L83.1,254.2z"
	/>
<path d="M87.3,255.6h-4.2c-0.1,0-0.2,0.1-0.2,0.2c0,0.1,0.1,0.2,0.2,0.2l4.2,0c0.1,0,0.2-0.1,0.2-0.2
	C87.5,255.7,87.4,255.6,87.3,255.6L87.3,255.6z"/>
<path d="M87.5,257.1H83c-0.1,0-0.1,0.1-0.1,0.2c0,0.1,0,0.2,0.1,0.2l4.4,0c0.1,0,0.1-0.1,0.1-0.2C87.6,257.2,87.5,257.1,87.5,257.1
	L87.5,257.1z"/>
<path d="M87.5,258.6H83c-0.1,0-0.1,0.1-0.1,0.2c0,0.1,0,0.2,0.1,0.2l4.4,0c0.1,0,0.1-0.1,0.1-0.2C87.6,258.7,87.5,258.6,87.5,258.6
	L87.5,258.6z"/>
<path d="M87.5,260.1H83c-0.1,0-0.1,0.1-0.1,0.2c0,0.1,0,0.2,0.1,0.2l4.4,0c0.1,0,0.1-0.1,0.1-0.2C87.6,260.2,87.5,260.1,87.5,260.1z
	"/>
<g>
	<path d="M58.8,277.3H48V264h7v3.5c0,0.1,0.1,0.2,0.2,0.2l3.6,0L58.8,277.3z M55.4,264.3l3.1,3l-3.1,0V264.3z M59.2,267.3
		C59.2,267.3,59.2,267.3,59.2,267.3l-3.9-3.8c0,0,0,0-0.1,0h-0.1h-7.4c-0.1,0-0.2,0.1-0.2,0.2v13.8c0,0.1,0.1,0.2,0.2,0.2H59
		c0.1,0,0.2-0.1,0.2-0.2v-0.9l0-9.2C59.3,267.4,59.3,267.4,59.2,267.3L59.2,267.3z"/>
	<path d="M57.3,270.6h-1.8V269h1.8L57.3,270.6z M57.5,268.7h-2.1c-0.1,0-0.1,0.1-0.1,0.1v1.9c0,0.1,0.1,0.1,0.1,0.1h2.1
		c0.1,0,0.1-0.1,0.1-0.1l0-1.9C57.6,268.8,57.5,268.7,57.5,268.7L57.5,268.7z"/>
	<path d="M56.1,270.3c0,0,0.1,0.1,0.1,0.1h0c0,0,0.1,0,0.1,0l0.9-0.8c0.1-0.1,0.1-0.1,0-0.2c-0.1-0.1-0.1-0.1-0.2,0l-0.7,0.7
		l-0.2-0.3c0-0.1-0.1-0.1-0.2,0s-0.1,0.1,0,0.2L56.1,270.3z"/>
	<path d="M57.3,273.1h-1.8v-1.6h1.8L57.3,273.1z M57.5,271.2h-2.1c-0.1,0-0.1,0.1-0.1,0.1v1.9c0,0.1,0.1,0.1,0.1,0.1h2.1
		c0.1,0,0.1-0.1,0.1-0.1l0-1.9C57.6,271.3,57.6,271.2,57.5,271.2L57.5,271.2z"/>
	<path d="M56.1,272.6c0,0,0.1,0.1,0.1,0.1h0c0,0,0.1,0,0.1,0l0.9-0.8c0.1-0.1,0.1-0.1,0-0.2c-0.1-0.1-0.1-0.1-0.2,0l-0.7,0.7L56,272
		c0-0.1-0.1-0.1-0.2,0s-0.1,0.1,0,0.2L56.1,272.6z"/>
	<path d="M57.3,275.8h-1.8v-1.6h1.8L57.3,275.8z M57.5,273.9h-2.1c-0.1,0-0.1,0.1-0.1,0.1v1.9c0,0.1,0.1,0.1,0.1,0.1h2.1
		c0.1,0,0.1-0.1,0.1-0.1l0-1.9C57.6,274,57.6,273.9,57.5,273.9L57.5,273.9z"/>
	<path d="M56,275.4c0,0,0.1,0.1,0.1,0.1h0c0,0,0.1,0,0.1,0l0.9-0.8c0.1-0.1,0.1-0.1,0-0.2c-0.1-0.1-0.1-0.1-0.2,0l-0.7,0.7l-0.2-0.3
		c0-0.1-0.1-0.1-0.2,0c-0.1,0-0.1,0.1,0,0.2L56,275.4z"/>
	<path d="M49.4,268.4c0-0.6,0.5-1.1,1.1-1.1H52c0.6,0,1.1,0.5,1.1,1.1v0.5h-3.7L49.4,268.4z M51.3,264.8c0.5,0,0.9,0.4,0.9,0.9
		c0,0.5-0.4,0.9-0.9,0.9s-0.9-0.4-0.9-0.9C50.4,265.2,50.8,264.8,51.3,264.8z M49.2,269.3h4.1c0.1,0,0.2-0.1,0.2-0.2v-0.7
		c0-0.8-0.7-1.5-1.5-1.5h0c0.4-0.2,0.6-0.6,0.6-1.1c0-0.7-0.6-1.3-1.3-1.3s-1.3,0.6-1.3,1.3c0,0.5,0.3,0.9,0.6,1.1h-0.1
		c-0.8,0-1.5,0.7-1.5,1.5v0.7C49,269.1,49.1,269.3,49.2,269.3L49.2,269.3z"/>
	<path d="M49.3,270.1c-0.1,0-0.2,0.1-0.2,0.2c0,0.1,0.1,0.2,0.2,0.2l4.2,0c0.1,0,0.2-0.1,0.2-0.2c0-0.1-0.1-0.2-0.2-0.2L49.3,270.1z
		"/>
	<path d="M53.4,271.6h-4.2c-0.1,0-0.2,0.1-0.2,0.2c0,0.1,0.1,0.2,0.2,0.2l4.2,0c0.1,0,0.2-0.1,0.2-0.2
		C53.7,271.7,53.6,271.6,53.4,271.6L53.4,271.6z"/>
	<path d="M53.6,273.1h-4.4c-0.1,0-0.1,0.1-0.1,0.2c0,0.1,0,0.2,0.1,0.2l4.4,0c0.1,0,0.1-0.1,0.1-0.2
		C53.7,273.2,53.7,273.1,53.6,273.1L53.6,273.1z"/>
	<path d="M53.6,274.5h-4.4c-0.1,0-0.1,0.1-0.1,0.2c0,0.1,0,0.2,0.1,0.2l4.4,0c0.1,0,0.1-0.1,0.1-0.2
		C53.7,274.6,53.7,274.5,53.6,274.5L53.6,274.5z"/>
	<path d="M53.6,276h-4.4c-0.1,0-0.1,0.1-0.1,0.2c0,0.1,0,0.2,0.1,0.2l4.4,0c0.1,0,0.1-0.1,0.1-0.2C53.7,276.1,53.7,276,53.6,276z"/>
</g>
<g>
	<path d="M75.9,277.3H65.1V264h7v3.5c0,0.1,0.1,0.2,0.2,0.2l3.6,0L75.9,277.3z M72.5,264.3l3.1,3l-3.1,0V264.3z M76.3,267.3
		C76.3,267.3,76.3,267.3,76.3,267.3l-3.9-3.8c0,0,0,0-0.1,0h-0.1h-7.4c-0.1,0-0.2,0.1-0.2,0.2v13.8c0,0.1,0.1,0.2,0.2,0.2h11.2
		c0.1,0,0.2-0.1,0.2-0.2v-0.9l0-9.2C76.3,267.4,76.3,267.4,76.3,267.3L76.3,267.3z"/>
	<path d="M74.4,270.6h-1.8V269h1.8L74.4,270.6z M74.5,268.7h-2.1c-0.1,0-0.1,0.1-0.1,0.1v1.9c0,0.1,0.1,0.1,0.1,0.1h2.1
		c0.1,0,0.1-0.1,0.1-0.1l0-1.9C74.7,268.8,74.6,268.7,74.5,268.7L74.5,268.7z"/>
	<path d="M73.1,270.3c0,0,0.1,0.1,0.1,0.1h0c0,0,0.1,0,0.1,0l0.9-0.8c0.1-0.1,0.1-0.1,0-0.2c-0.1-0.1-0.1-0.1-0.2,0l-0.7,0.7
		l-0.2-0.3c0-0.1-0.1-0.1-0.2,0c-0.1,0-0.1,0.1,0,0.2L73.1,270.3z"/>
	<path d="M74.4,273.1h-1.8v-1.6h1.8L74.4,273.1z M74.5,271.2h-2.1c-0.1,0-0.1,0.1-0.1,0.1v1.9c0,0.1,0.1,0.1,0.1,0.1h2.1
		c0.1,0,0.1-0.1,0.1-0.1l0-1.9C74.7,271.3,74.6,271.2,74.5,271.2L74.5,271.2z"/>
	<path d="M73.1,272.6c0,0,0.1,0.1,0.1,0.1h0c0,0,0.1,0,0.1,0l0.9-0.8c0.1-0.1,0.1-0.1,0-0.2c-0.1-0.1-0.1-0.1-0.2,0l-0.7,0.7
		l-0.2-0.3c0-0.1-0.1-0.1-0.2,0c-0.1,0-0.1,0.1,0,0.2L73.1,272.6z"/>
	<path d="M74.4,275.8h-1.8v-1.6h1.8L74.4,275.8z M74.5,273.9h-2.1c-0.1,0-0.1,0.1-0.1,0.1v1.9c0,0.1,0.1,0.1,0.1,0.1h2.1
		c0.1,0,0.1-0.1,0.1-0.1l0-1.9C74.7,274,74.6,273.9,74.5,273.9L74.5,273.9z"/>
	<path d="M73.1,275.4c0,0,0.1,0.1,0.1,0.1h0c0,0,0.1,0,0.1,0l0.9-0.8c0.1-0.1,0.1-0.1,0-0.2c-0.1-0.1-0.1-0.1-0.2,0l-0.7,0.7
		l-0.2-0.3c0-0.1-0.1-0.1-0.2,0c-0.1,0-0.1,0.1,0,0.2L73.1,275.4z"/>
	<path d="M66.5,268.4c0-0.6,0.5-1.1,1.1-1.1h1.5c0.6,0,1.1,0.5,1.1,1.1v0.5h-3.7L66.5,268.4z M68.3,264.8c0.5,0,0.9,0.4,0.9,0.9
		c0,0.5-0.4,0.9-0.9,0.9c-0.5,0-0.9-0.4-0.9-0.9C67.4,265.2,67.8,264.8,68.3,264.8z M66.3,269.3h4.1c0.1,0,0.2-0.1,0.2-0.2v-0.7
		c0-0.8-0.7-1.5-1.5-1.5h0c0.4-0.2,0.6-0.6,0.6-1.1c0-0.7-0.6-1.3-1.3-1.3c-0.7,0-1.3,0.6-1.3,1.3c0,0.5,0.3,0.9,0.6,1.1h-0.1
		c-0.8,0-1.5,0.7-1.5,1.5v0.7C66,269.1,66.2,269.3,66.3,269.3L66.3,269.3z"/>
	<path d="M66.3,270.1c-0.1,0-0.2,0.1-0.2,0.2c0,0.1,0.1,0.2,0.2,0.2l4.2,0c0.1,0,0.2-0.1,0.2-0.2c0-0.1-0.1-0.2-0.2-0.2L66.3,270.1z
		"/>
	<path d="M70.5,271.6h-4.2c-0.1,0-0.2,0.1-0.2,0.2c0,0.1,0.1,0.2,0.2,0.2l4.2,0c0.1,0,0.2-0.1,0.2-0.2
		C70.7,271.7,70.6,271.6,70.5,271.6L70.5,271.6z"/>
	<path d="M70.7,273.1h-4.4c-0.1,0-0.1,0.1-0.1,0.2c0,0.1,0,0.2,0.1,0.2l4.4,0c0.1,0,0.1-0.1,0.1-0.2
		C70.8,273.2,70.7,273.1,70.7,273.1L70.7,273.1z"/>
	<path d="M70.7,274.5h-4.4c-0.1,0-0.1,0.1-0.1,0.2c0,0.1,0,0.2,0.1,0.2l4.4,0c0.1,0,0.1-0.1,0.1-0.2
		C70.8,274.6,70.7,274.5,70.7,274.5L70.7,274.5z"/>
	<path d="M70.7,276h-4.4c-0.1,0-0.1,0.1-0.1,0.2c0,0.1,0,0.2,0.1,0.2l4.4,0c0.1,0,0.1-0.1,0.1-0.2C70.8,276.1,70.7,276,70.7,276z"/>
</g>
<g>
	<path d="M93,277.3H82.2V264h7v3.5c0,0.1,0.1,0.2,0.2,0.2l3.6,0L93,277.3z M89.6,264.3l3.1,3l-3.1,0V264.3z M93.4,267.3
		C93.4,267.3,93.4,267.3,93.4,267.3l-3.9-3.8c0,0,0,0-0.1,0h-0.1H82c-0.1,0-0.2,0.1-0.2,0.2v13.8c0,0.1,0.1,0.2,0.2,0.2h11.2
		c0.1,0,0.2-0.1,0.2-0.2v-0.9l0-9.2C93.4,267.4,93.4,267.4,93.4,267.3L93.4,267.3z"/>
	<path d="M91.5,270.6h-1.8V269h1.8L91.5,270.6z M91.6,268.7h-2.1c-0.1,0-0.1,0.1-0.1,0.1v1.9c0,0.1,0.1,0.1,0.1,0.1h2.1
		c0.1,0,0.1-0.1,0.1-0.1l0-1.9C91.7,268.8,91.7,268.7,91.6,268.7L91.6,268.7z"/>
	<path d="M90.2,270.3c0,0,0.1,0.1,0.1,0.1h0c0,0,0.1,0,0.1,0l0.9-0.8c0.1-0.1,0.1-0.1,0-0.2c-0.1-0.1-0.1-0.1-0.2,0l-0.7,0.7
		l-0.2-0.3c0-0.1-0.1-0.1-0.2,0c-0.1,0-0.1,0.1,0,0.2L90.2,270.3z"/>
	<path d="M91.5,273.1h-1.8v-1.6h1.8L91.5,273.1z M91.6,271.2h-2.1c-0.1,0-0.1,0.1-0.1,0.1v1.9c0,0.1,0.1,0.1,0.1,0.1h2.1
		c0.1,0,0.1-0.1,0.1-0.1l0-1.9C91.8,271.3,91.7,271.2,91.6,271.2L91.6,271.2z"/>
	<path d="M90.2,272.6c0,0,0.1,0.1,0.1,0.1h0c0,0,0.1,0,0.1,0l0.9-0.8c0.1-0.1,0.1-0.1,0-0.2c-0.1-0.1-0.1-0.1-0.2,0l-0.7,0.7
		l-0.2-0.3c0-0.1-0.1-0.1-0.2,0c-0.1,0-0.1,0.1,0,0.2L90.2,272.6z"/>
	<path d="M91.5,275.8h-1.8v-1.6h1.8L91.5,275.8z M91.6,273.9h-2.1c-0.1,0-0.1,0.1-0.1,0.1v1.9c0,0.1,0.1,0.1,0.1,0.1h2.1
		c0.1,0,0.1-0.1,0.1-0.1l0-1.9C91.8,274,91.7,273.9,91.6,273.9L91.6,273.9z"/>
	<path d="M90.2,275.4c0,0,0.1,0.1,0.1,0.1h0c0,0,0.1,0,0.1,0l0.9-0.8c0.1-0.1,0.1-0.1,0-0.2c-0.1-0.1-0.1-0.1-0.2,0l-0.7,0.7
		l-0.2-0.3c0-0.1-0.1-0.1-0.2,0c-0.1,0-0.1,0.1,0,0.2L90.2,275.4z"/>
	<path d="M83.5,268.4c0-0.6,0.5-1.1,1.1-1.1h1.5c0.6,0,1.1,0.5,1.1,1.1v0.5h-3.7L83.5,268.4z M85.4,264.8c0.5,0,0.9,0.4,0.9,0.9
		c0,0.5-0.4,0.9-0.9,0.9c-0.5,0-0.9-0.4-0.9-0.9C84.5,265.2,84.9,264.8,85.4,264.8z M83.3,269.3h4.1c0.1,0,0.2-0.1,0.2-0.2v-0.7
		c0-0.8-0.7-1.5-1.5-1.5h0c0.4-0.2,0.6-0.6,0.6-1.1c0-0.7-0.6-1.3-1.3-1.3c-0.7,0-1.3,0.6-1.3,1.3c0,0.5,0.3,0.9,0.6,1.1h-0.1
		c-0.8,0-1.5,0.7-1.5,1.5v0.7C83.1,269.1,83.2,269.3,83.3,269.3L83.3,269.3z"/>
	<path d="M83.4,270.1c-0.1,0-0.2,0.1-0.2,0.2c0,0.1,0.1,0.2,0.2,0.2l4.2,0c0.1,0,0.2-0.1,0.2-0.2c0-0.1-0.1-0.2-0.2-0.2L83.4,270.1z
		"/>
	<path d="M87.6,271.6h-4.2c-0.1,0-0.2,0.1-0.2,0.2c0,0.1,0.1,0.2,0.2,0.2l4.2,0c0.1,0,0.2-0.1,0.2-0.2
		C87.8,271.7,87.7,271.6,87.6,271.6L87.6,271.6z"/>
	<path d="M87.7,273.1h-4.4c-0.1,0-0.1,0.1-0.1,0.2c0,0.1,0,0.2,0.1,0.2l4.4,0c0.1,0,0.1-0.1,0.1-0.2
		C87.9,273.2,87.8,273.1,87.7,273.1L87.7,273.1z"/>
	<path d="M87.7,274.5h-4.4c-0.1,0-0.1,0.1-0.1,0.2c0,0.1,0,0.2,0.1,0.2l4.4,0c0.1,0,0.1-0.1,0.1-0.2
		C87.9,274.6,87.8,274.5,87.7,274.5L87.7,274.5z"/>
	<path d="M87.7,276h-4.4c-0.1,0-0.1,0.1-0.1,0.2c0,0.1,0,0.2,0.1,0.2l4.4,0c0.1,0,0.1-0.1,0.1-0.2C87.9,276.1,87.8,276,87.7,276z"/>
</g>
<g>
	<path d="M58.9,293.1H48.1v-13.4h7v3.5c0,0.1,0.1,0.2,0.2,0.2l3.6,0L58.9,293.1z M55.5,280l3.1,3l-3.1,0V280z M59.3,283.1
		C59.3,283.1,59.3,283.1,59.3,283.1l-3.9-3.8c0,0,0,0-0.1,0h-0.1h-7.4c-0.1,0-0.2,0.1-0.2,0.2v13.8c0,0.1,0.1,0.2,0.2,0.2h11.2
		c0.1,0,0.2-0.1,0.2-0.2v-0.9l0-9.2C59.3,283.2,59.3,283.1,59.3,283.1L59.3,283.1z"/>
	<path d="M57.4,286.3h-1.8v-1.6h1.8L57.4,286.3z M57.5,284.5h-2.1c-0.1,0-0.1,0.1-0.1,0.1v1.9c0,0.1,0.1,0.1,0.1,0.1h2.1
		c0.1,0,0.1-0.1,0.1-0.1l0-1.9C57.7,284.5,57.6,284.5,57.5,284.5L57.5,284.5z"/>
	<path d="M56.1,286c0,0,0.1,0.1,0.1,0.1h0c0,0,0.1,0,0.1,0l0.9-0.8c0.1-0.1,0.1-0.1,0-0.2c-0.1-0.1-0.1-0.1-0.2,0l-0.7,0.7l-0.2-0.3
		c0-0.1-0.1-0.1-0.2,0s-0.1,0.1,0,0.2L56.1,286z"/>
	<path d="M57.4,288.9h-1.8v-1.6h1.8L57.4,288.9z M57.5,287h-2.1c-0.1,0-0.1,0.1-0.1,0.1v1.9c0,0.1,0.1,0.1,0.1,0.1h2.1
		c0.1,0,0.1-0.1,0.1-0.1l0-1.9C57.7,287.1,57.6,287,57.5,287L57.5,287z"/>
	<path d="M56.1,288.4c0,0,0.1,0.1,0.1,0.1h0c0,0,0.1,0,0.1,0l0.9-0.8c0.1-0.1,0.1-0.1,0-0.2c-0.1-0.1-0.1-0.1-0.2,0l-0.7,0.7
		l-0.2-0.3c0-0.1-0.1-0.1-0.2,0s-0.1,0.1,0,0.2L56.1,288.4z"/>
	<path d="M57.4,291.5h-1.8v-1.6h1.8L57.4,291.5z M57.5,289.6h-2.1c-0.1,0-0.1,0.1-0.1,0.1v1.9c0,0.1,0.1,0.1,0.1,0.1h2.1
		c0.1,0,0.1-0.1,0.1-0.1l0-1.9C57.7,289.7,57.6,289.6,57.5,289.6L57.5,289.6z"/>
	<path d="M56.1,291.1c0,0,0.1,0.1,0.1,0.1h0c0,0,0.1,0,0.1,0l0.9-0.8c0.1-0.1,0.1-0.1,0-0.2c-0.1-0.1-0.1-0.1-0.2,0l-0.7,0.7
		l-0.2-0.3c0-0.1-0.1-0.1-0.2,0s-0.1,0.1,0,0.2L56.1,291.1z"/>
	<path d="M49.5,284.1c0-0.6,0.5-1.1,1.1-1.1h1.5c0.6,0,1.1,0.5,1.1,1.1v0.5h-3.7L49.5,284.1z M51.3,280.6c0.5,0,0.9,0.4,0.9,0.9
		c0,0.5-0.4,0.9-0.9,0.9s-0.9-0.4-0.9-0.9C50.4,281,50.8,280.6,51.3,280.6z M49.3,285h4.1c0.1,0,0.2-0.1,0.2-0.2v-0.7
		c0-0.8-0.7-1.5-1.5-1.5h0c0.4-0.2,0.6-0.6,0.6-1.1c0-0.7-0.6-1.3-1.3-1.3s-1.3,0.6-1.3,1.3c0,0.5,0.3,0.9,0.6,1.1h-0.1
		c-0.8,0-1.5,0.7-1.5,1.5v0.7C49,284.9,49.1,285,49.3,285L49.3,285z"/>
	<path d="M49.3,285.9c-0.1,0-0.2,0.1-0.2,0.2c0,0.1,0.1,0.2,0.2,0.2l4.2,0c0.1,0,0.2-0.1,0.2-0.2c0-0.1-0.1-0.2-0.2-0.2L49.3,285.9z
		"/>
	<path d="M53.5,287.3h-4.2c-0.1,0-0.2,0.1-0.2,0.2c0,0.1,0.1,0.2,0.2,0.2l4.2,0c0.1,0,0.2-0.1,0.2-0.2
		C53.7,287.5,53.6,287.3,53.5,287.3L53.5,287.3z"/>
	<path d="M53.7,288.8h-4.4c-0.1,0-0.1,0.1-0.1,0.2c0,0.1,0,0.2,0.1,0.2l4.4,0c0.1,0,0.1-0.1,0.1-0.2
		C53.8,288.9,53.7,288.8,53.7,288.8L53.7,288.8z"/>
	<path d="M53.7,290.3h-4.4c-0.1,0-0.1,0.1-0.1,0.2c0,0.1,0,0.2,0.1,0.2l4.4,0c0.1,0,0.1-0.1,0.1-0.2
		C53.8,290.4,53.7,290.3,53.7,290.3L53.7,290.3z"/>
	<path d="M53.7,291.8h-4.4c-0.1,0-0.1,0.1-0.1,0.2c0,0.1,0,0.2,0.1,0.2l4.4,0c0.1,0,0.1-0.1,0.1-0.2
		C53.8,291.9,53.7,291.8,53.7,291.8z"/>
</g>
<g>
	<path d="M76,293.1H65.2v-13.4h7v3.5c0,0.1,0.1,0.2,0.2,0.2l3.6,0L76,293.1z M72.6,280l3.1,3l-3.1,0V280z M76.4,283.1
		C76.4,283.1,76.4,283.1,76.4,283.1l-3.9-3.8c0,0,0,0-0.1,0h-0.1H65c-0.1,0-0.2,0.1-0.2,0.2v13.8c0,0.1,0.1,0.2,0.2,0.2h11.2
		c0.1,0,0.2-0.1,0.2-0.2v-0.9l0-9.2C76.4,283.2,76.4,283.1,76.4,283.1L76.4,283.1z"/>
	<path d="M74.4,286.3h-1.8v-1.6h1.8L74.4,286.3z M74.6,284.5h-2.1c-0.1,0-0.1,0.1-0.1,0.1v1.9c0,0.1,0.1,0.1,0.1,0.1h2.1
		c0.1,0,0.1-0.1,0.1-0.1l0-1.9C74.7,284.5,74.7,284.5,74.6,284.5L74.6,284.5z"/>
	<path d="M73.2,286c0,0,0.1,0.1,0.1,0.1h0c0,0,0.1,0,0.1,0l0.9-0.8c0.1-0.1,0.1-0.1,0-0.2c-0.1-0.1-0.1-0.1-0.2,0l-0.7,0.7l-0.2-0.3
		c0-0.1-0.1-0.1-0.2,0c-0.1,0-0.1,0.1,0,0.2L73.2,286z"/>
	<path d="M74.5,288.9h-1.8v-1.6h1.8L74.5,288.9z M74.6,287h-2.1c-0.1,0-0.1,0.1-0.1,0.1v1.9c0,0.1,0.1,0.1,0.1,0.1h2.1
		c0.1,0,0.1-0.1,0.1-0.1l0-1.9C74.8,287.1,74.7,287,74.6,287L74.6,287z"/>
	<path d="M73.2,288.4c0,0,0.1,0.1,0.1,0.1h0c0,0,0.1,0,0.1,0l0.9-0.8c0.1-0.1,0.1-0.1,0-0.2c-0.1-0.1-0.1-0.1-0.2,0l-0.7,0.7
		l-0.2-0.3c0-0.1-0.1-0.1-0.2,0c-0.1,0-0.1,0.1,0,0.2L73.2,288.4z"/>
	<path d="M74.5,291.5h-1.8v-1.6h1.8L74.5,291.5z M74.6,289.6h-2.1c-0.1,0-0.1,0.1-0.1,0.1v1.9c0,0.1,0.1,0.1,0.1,0.1h2.1
		c0.1,0,0.1-0.1,0.1-0.1l0-1.9C74.8,289.7,74.7,289.6,74.6,289.6L74.6,289.6z"/>
	<path d="M73.2,291.1c0,0,0.1,0.1,0.1,0.1h0c0,0,0.1,0,0.1,0l0.9-0.8c0.1-0.1,0.1-0.1,0-0.2c-0.1-0.1-0.1-0.1-0.2,0l-0.7,0.7
		l-0.2-0.3c0-0.1-0.1-0.1-0.2,0c-0.1,0-0.1,0.1,0,0.2L73.2,291.1z"/>
	<path d="M66.5,284.1c0-0.6,0.5-1.1,1.1-1.1h1.5c0.6,0,1.1,0.5,1.1,1.1v0.5h-3.7L66.5,284.1z M68.4,280.6c0.5,0,0.9,0.4,0.9,0.9
		c0,0.5-0.4,0.9-0.9,0.9c-0.5,0-0.9-0.4-0.9-0.9C67.5,281,67.9,280.6,68.4,280.6z M66.3,285h4.1c0.1,0,0.2-0.1,0.2-0.2v-0.7
		c0-0.8-0.7-1.5-1.5-1.5h0c0.4-0.2,0.6-0.6,0.6-1.1c0-0.7-0.6-1.3-1.3-1.3c-0.7,0-1.3,0.6-1.3,1.3c0,0.5,0.3,0.9,0.6,1.1h-0.1
		c-0.8,0-1.5,0.7-1.5,1.5v0.7C66.1,284.9,66.2,285,66.3,285L66.3,285z"/>
	<path d="M66.4,285.9c-0.1,0-0.2,0.1-0.2,0.2c0,0.1,0.1,0.2,0.2,0.2l4.2,0c0.1,0,0.2-0.1,0.2-0.2c0-0.1-0.1-0.2-0.2-0.2L66.4,285.9z
		"/>
	<path d="M70.6,287.3h-4.2c-0.1,0-0.2,0.1-0.2,0.2c0,0.1,0.1,0.2,0.2,0.2l4.2,0c0.1,0,0.2-0.1,0.2-0.2
		C70.8,287.5,70.7,287.3,70.6,287.3L70.6,287.3z"/>
	<path d="M70.7,288.8h-4.4c-0.1,0-0.1,0.1-0.1,0.2c0,0.1,0,0.2,0.1,0.2l4.4,0c0.1,0,0.1-0.1,0.1-0.2
		C70.9,288.9,70.8,288.8,70.7,288.8L70.7,288.8z"/>
	<path d="M70.7,290.3h-4.4c-0.1,0-0.1,0.1-0.1,0.2c0,0.1,0,0.2,0.1,0.2l4.4,0c0.1,0,0.1-0.1,0.1-0.2
		C70.9,290.4,70.8,290.3,70.7,290.3L70.7,290.3z"/>
	<path d="M70.7,291.8h-4.4c-0.1,0-0.1,0.1-0.1,0.2c0,0.1,0,0.2,0.1,0.2l4.4,0c0.1,0,0.1-0.1,0.1-0.2
		C70.9,291.9,70.8,291.8,70.7,291.8z"/>
</g>
<g>
	<path d="M93,293.1H82.3v-13.4h7v3.5c0,0.1,0.1,0.2,0.2,0.2l3.6,0L93,293.1z M89.6,280l3.1,3l-3.1,0V280z M93.4,283.1
		C93.4,283.1,93.4,283.1,93.4,283.1l-3.9-3.8c0,0,0,0-0.1,0h-0.1H82c-0.1,0-0.2,0.1-0.2,0.2v13.8c0,0.1,0.1,0.2,0.2,0.2h11.2
		c0.1,0,0.2-0.1,0.2-0.2v-0.9l0-9.2C93.5,283.2,93.5,283.1,93.4,283.1L93.4,283.1z"/>
	<path d="M91.5,286.3h-1.8v-1.6h1.8L91.5,286.3z M91.7,284.5h-2.1c-0.1,0-0.1,0.1-0.1,0.1v1.9c0,0.1,0.1,0.1,0.1,0.1h2.1
		c0.1,0,0.1-0.1,0.1-0.1l0-1.9C91.8,284.5,91.7,284.5,91.7,284.5L91.7,284.5z"/>
	<path d="M90.3,286c0,0,0.1,0.1,0.1,0.1h0c0,0,0.1,0,0.1,0l0.9-0.8c0.1-0.1,0.1-0.1,0-0.2c-0.1-0.1-0.1-0.1-0.2,0l-0.7,0.7l-0.2-0.3
		c0-0.1-0.1-0.1-0.2,0c-0.1,0-0.1,0.1,0,0.2L90.3,286z"/>
	<path d="M91.5,288.9h-1.8v-1.6h1.8L91.5,288.9z M91.7,287h-2.1c-0.1,0-0.1,0.1-0.1,0.1v1.9c0,0.1,0.1,0.1,0.1,0.1h2.1
		c0.1,0,0.1-0.1,0.1-0.1l0-1.9C91.8,287.1,91.8,287,91.7,287L91.7,287z"/>
	<path d="M90.3,288.4c0,0,0.1,0.1,0.1,0.1h0c0,0,0.1,0,0.1,0l0.9-0.8c0.1-0.1,0.1-0.1,0-0.2c-0.1-0.1-0.1-0.1-0.2,0l-0.7,0.7
		l-0.2-0.3c0-0.1-0.1-0.1-0.2,0c-0.1,0-0.1,0.1,0,0.2L90.3,288.4z"/>
	<path d="M91.5,291.5h-1.8v-1.6h1.8L91.5,291.5z M91.7,289.6h-2.1c-0.1,0-0.1,0.1-0.1,0.1v1.9c0,0.1,0.1,0.1,0.1,0.1h2.1
		c0.1,0,0.1-0.1,0.1-0.1l0-1.9C91.8,289.7,91.8,289.6,91.7,289.6L91.7,289.6z"/>
	<path d="M90.2,291.1c0,0,0.1,0.1,0.1,0.1h0c0,0,0.1,0,0.1,0l0.9-0.8c0.1-0.1,0.1-0.1,0-0.2c-0.1-0.1-0.1-0.1-0.2,0l-0.7,0.7
		l-0.2-0.3c0-0.1-0.1-0.1-0.2,0c-0.1,0-0.1,0.1,0,0.2L90.2,291.1z"/>
	<path d="M83.6,284.1c0-0.6,0.5-1.1,1.1-1.1h1.5c0.6,0,1.1,0.5,1.1,1.1v0.5h-3.7L83.6,284.1z M85.5,280.6c0.5,0,0.9,0.4,0.9,0.9
		c0,0.5-0.4,0.9-0.9,0.9s-0.9-0.4-0.9-0.9C84.6,281,85,280.6,85.5,280.6z M83.4,285h4.1c0.1,0,0.2-0.1,0.2-0.2v-0.7
		c0-0.8-0.7-1.5-1.5-1.5h0c0.4-0.2,0.6-0.6,0.6-1.1c0-0.7-0.6-1.3-1.3-1.3c-0.7,0-1.3,0.6-1.3,1.3c0,0.5,0.3,0.9,0.6,1.1h-0.1
		c-0.8,0-1.5,0.7-1.5,1.5v0.7C83.2,284.9,83.3,285,83.4,285L83.4,285z"/>
	<path d="M83.5,285.9c-0.1,0-0.2,0.1-0.2,0.2c0,0.1,0.1,0.2,0.2,0.2l4.2,0c0.1,0,0.2-0.1,0.2-0.2c0-0.1-0.1-0.2-0.2-0.2L83.5,285.9z
		"/>
	<path d="M87.6,287.3h-4.2c-0.1,0-0.2,0.1-0.2,0.2c0,0.1,0.1,0.2,0.2,0.2l4.2,0c0.1,0,0.2-0.1,0.2-0.2
		C87.9,287.5,87.8,287.3,87.6,287.3L87.6,287.3z"/>
	<path d="M87.8,288.8h-4.4c-0.1,0-0.1,0.1-0.1,0.2c0,0.1,0,0.2,0.1,0.2l4.4,0c0.1,0,0.1-0.1,0.1-0.2
		C87.9,288.9,87.9,288.8,87.8,288.8L87.8,288.8z"/>
	<path d="M87.8,290.3h-4.4c-0.1,0-0.1,0.1-0.1,0.2c0,0.1,0,0.2,0.1,0.2l4.4,0c0.1,0,0.1-0.1,0.1-0.2
		C87.9,290.4,87.9,290.3,87.8,290.3L87.8,290.3z"/>
	<path d="M87.8,291.8h-4.4c-0.1,0-0.1,0.1-0.1,0.2c0,0.1,0,0.2,0.1,0.2l4.4,0c0.1,0,0.1-0.1,0.1-0.2
		C87.9,291.9,87.9,291.8,87.8,291.8z"/>
</g>
<g>
	<path d="M167.4,269.4L167.4,269.4c-1.6,0-3.1,0.6-4.2,1.8c-1.5,1.5-2,3.8-1.5,5.8c0.6,2.1,2.1,3.7,4.2,4.3c2,0.6,4.2,0,5.7-1.5
		c1.1-1.1,1.7-2.7,1.7-4.3c0-1.6-0.6-3.2-1.7-4.3C170.5,270,169,269.3,167.4,269.4L167.4,269.4z M167.4,282.4
		c-1.3,0-2.6-0.4-3.7-1.1c-1.8-1.1-2.9-3-3.1-5.1c-0.2-2.1,0.5-4.2,2-5.7c1.3-1.3,3-2.1,4.9-2c1.8,0,3.6,0.7,4.9,2
		c1.3,1.3,2,3.1,2,4.9c0,1.9-0.7,3.6-2,4.9C171,281.7,169.2,282.4,167.4,282.4L167.4,282.4z"/>
	<path d="M168.9,271.4c-0.6-0.2-1.2-0.2-1.8-0.1l-0.1-0.9c0.8-0.1,1.5-0.1,2.3,0.2L168.9,271.4z"/>
	<path d="M161.9,279.7l-6.1,6.2c-0.1,0.1-0.1,0.3,0,0.4l1,1c0.1,0.1,0.3,0.1,0.4,0l6.1-6.2C162.8,280.6,162.3,280.2,161.9,279.7
		L161.9,279.7z M157,288.2c-0.3,0-0.6-0.1-0.8-0.3l-1-1c-0.5-0.5-0.5-1.2,0-1.7l6.4-6.6c0.1-0.1,0.2-0.1,0.4-0.1
		c0.1,0,0.3,0.1,0.3,0.2c0.5,0.8,1.1,1.4,1.8,1.9c0.1,0.1,0.2,0.2,0.2,0.3c0,0.1,0,0.3-0.1,0.4l-6.4,6.6
		C157.6,288.1,157.3,288.2,157,288.2L157,288.2z"/>
	<path d="M176.3,266.9h4.2l-4.2-4.3V266.9z M181.6,267.9h-5.7c-0.1,0-0.2,0-0.3-0.1c-0.1-0.1-0.1-0.2-0.1-0.3v-5.8
		c0-0.2,0.1-0.4,0.3-0.4c0.2-0.1,0.4,0,0.5,0.1l5.7,5.8c0.1,0.1,0.2,0.3,0.1,0.5C181.9,267.7,181.7,267.9,181.6,267.9L181.6,267.9z"
		/>
	<path d="M181.6,288.4h-19.3c-0.1,0-0.2,0-0.3-0.1c-0.1-0.1-0.1-0.2-0.1-0.3v-2.7h0.9v2.2h18.4l0-19.9l-5.4-5.5h-13v6.7h-0.9l0-7.2
		c0-0.3,0.2-0.5,0.4-0.5h13.6c0.1,0,0.2,0,0.3,0.1l5.7,5.8c0.1,0.1,0.1,0.2,0.1,0.3v20.5c0,0.1,0,0.2-0.1,0.3
		C181.8,288.3,181.7,288.4,181.6,288.4L181.6,288.4z"/>
	<rect x="164.7" y="274.1" width="0.9" height="3.7"/>
	<rect x="166.8" y="275.1" width="0.9" height="2.7"/>
	<rect x="169" y="273" width="0.9" height="4.8"/>
	<rect x="171.2" y="283.6" width="4.2" height="0.9"/>
	<rect x="171.2" y="286.4" width="4.2" height="0.9"/>
	<rect x="163.5" y="286.2" width="6.4" height="0.9"/>
	<rect x="163.8" y="283.6" width="6.3" height="0.9"/>
	<path d="M164.9,266.4c0-0.6,0.5-1.1,1.1-1.1h1.6c0.6,0,1.1,0.5,1.1,1.1v0.5h-3.8L164.9,266.4z M166.8,262.7c0.5,0,0.9,0.4,0.9,0.9
		c0,0.5-0.4,0.9-0.9,0.9s-0.9-0.4-0.9-0.9C165.9,263.2,166.3,262.7,166.8,262.7z M164.7,267.4h4.2c0.1,0,0.2-0.1,0.2-0.2v-0.7
		c0-0.9-0.7-1.6-1.6-1.6h0c0.4-0.2,0.6-0.7,0.6-1.2c0-0.8-0.6-1.4-1.4-1.4s-1.4,0.6-1.4,1.4c0,0.5,0.3,0.9,0.6,1.2H166
		c-0.9,0-1.6,0.7-1.6,1.6v0.7C164.4,267.3,164.6,267.4,164.7,267.4L164.7,267.4z"/>
	<path d="M178.6,273.4h-2.8v-2.6h2.8L178.6,273.4z M178.8,270.4h-3.2c-0.1,0-0.2,0.1-0.2,0.2v3c0,0.1,0.1,0.2,0.2,0.2h3.2
		c0.1,0,0.2-0.1,0.2-0.2l0-3C179.1,270.5,179,270.4,178.8,270.4L178.8,270.4z"/>
	<path d="M176.7,272.9c0,0,0.1,0.1,0.2,0.1h0c0,0,0.1,0,0.2-0.1l1.3-1.2c0.1-0.1,0.1-0.2,0-0.3c-0.1-0.1-0.2-0.1-0.3,0l-1.1,1
		l-0.3-0.5c-0.1-0.1-0.2-0.1-0.3-0.1s-0.1,0.2-0.1,0.3L176.7,272.9z"/>
	<path d="M178.7,277.5h-2.8v-2.6h2.8L178.7,277.5z M178.9,274.5h-3.2c-0.1,0-0.2,0.1-0.2,0.2v3c0,0.1,0.1,0.2,0.2,0.2h3.2
		c0.1,0,0.2-0.1,0.2-0.2l0-3C179.1,274.6,179,274.5,178.9,274.5L178.9,274.5z"/>
	<path d="M176.7,276.7c0,0,0.1,0.1,0.2,0.1h0c0,0,0.1,0,0.2-0.1l1.3-1.2c0.1-0.1,0.1-0.2,0-0.3c-0.1-0.1-0.2-0.1-0.3,0l-1.1,1
		l-0.3-0.5c-0.1-0.1-0.2-0.1-0.3-0.1c-0.1,0.1-0.1,0.2-0.1,0.3L176.7,276.7z"/>
	<path d="M178.7,281.7h-2.8v-2.6h2.8L178.7,281.7z M178.9,278.7h-3.2c-0.1,0-0.2,0.1-0.2,0.2v3c0,0.1,0.1,0.2,0.2,0.2h3.2
		c0.1,0,0.2-0.1,0.2-0.2l0-3C179.1,278.8,179,278.7,178.9,278.7L178.9,278.7z"/>
	<path d="M176.6,281c0,0,0.1,0.1,0.2,0.1h0c0,0,0.1,0,0.2-0.1l1.3-1.2c0.1-0.1,0.1-0.2,0-0.3c-0.1-0.1-0.2-0.1-0.3,0l-1.1,1
		l-0.3-0.5c-0.1-0.1-0.2-0.1-0.3-0.1c-0.1,0.1-0.1,0.2-0.1,0.3L176.6,281z"/>
</g>
<rect x="389.9" y="178.9" fill="none" width="193.1" height="147.3"/>
<text transform="matrix(1 0 0 1 389.9399 190.0711)"><tspan x="0" y="0" font-family="'ArialMT'" font-size="13px">75% Written communication</tspan><tspan x="0" y="15.6" font-family="'ArialMT'" font-size="13px">51% Editing</tspan><tspan x="0" y="31.2" font-family="'Arial-BoldMT'" font-size="13px">49% Project planning/mgmt</tspan><tspan x="0" y="46.8" font-family="'ArialMT'" font-size="13px">49% Visual communication</tspan><tspan x="0" y="62.4" font-family="'Arial-BoldMT'" font-size="13px">45% Subject-matter familiarity</tspan><tspan x="185.7" y="62.4" font-family="'ArialMT'" font-size="13px"> </tspan><tspan x="0" y="78" font-family="'Arial-BoldMT'" font-size="13px">41% Working with SMEs</tspan><tspan x="0" y="93.6" font-family="'ArialMT'" font-size="13px">40% Style guides/standards</tspan></text>
<text transform="matrix(1 0 0 1 389.9399 139.3391)"><tspan x="0" y="0" font-family="'ArialMT'" font-size="18px">Desired professional </tspan><tspan x="0" y="21.6" font-family="'ArialMT'" font-size="18px">competencies (tw/e)</tspan></text>
<text transform="matrix(1 0 0 1 214.9394 143.0936)" font-family="'ArialMT'" font-size="18px">TC job categories</text>
<rect x="214.9" y="163.2" fill="none" width="152.5" height="114.5"/>
<text transform="matrix(1 0 0 1 214.9387 174.3624)"><tspan x="0" y="0" font-family="'ArialMT'" font-size="13px">22% Content Dev/Mgr.</tspan><tspan x="0" y="15.6" font-family="'ArialMT'" font-size="13px">10% Grant/Propos. Writer</tspan><tspan x="0" y="31.2" font-family="'ArialMT'" font-size="13px"> 4%  Medical Writer</tspan><tspan x="0" y="46.8" font-family="'ArialMT'" font-size="13px">11% Social Media Mgr</tspan><tspan x="0" y="62.4" font-family="'ArialMT'" font-size="13px">52% Tech writer/editor</tspan></text>
<g>
	<path d="M111.1,262.1h-10.8v-13.4h7v3.5c0,0.1,0.1,0.2,0.2,0.2l3.6,0L111.1,262.1z M107.7,249l3.1,3l-3.1,0V249z M111.5,252.1
		C111.5,252,111.5,252,111.5,252.1l-3.9-3.8c0,0,0,0-0.1,0h-0.1h-7.4c-0.1,0-0.2,0.1-0.2,0.2v13.8c0,0.1,0.1,0.2,0.2,0.2h11.2
		c0.1,0,0.2-0.1,0.2-0.2v-0.9l0-9.2C111.6,252.1,111.6,252.1,111.5,252.1L111.5,252.1z"/>
	<path d="M109.6,255.3h-1.8v-1.6h1.8L109.6,255.3z M109.8,253.4h-2.1c-0.1,0-0.1,0.1-0.1,0.1v1.9c0,0.1,0.1,0.1,0.1,0.1h2.1
		c0.1,0,0.1-0.1,0.1-0.1l0-1.9C109.9,253.5,109.8,253.4,109.8,253.4L109.8,253.4z"/>
	<path d="M108.4,255c0,0,0.1,0.1,0.1,0.1h0c0,0,0.1,0,0.1,0l0.9-0.8c0.1-0.1,0.1-0.1,0-0.2c-0.1-0.1-0.1-0.1-0.2,0l-0.7,0.7
		l-0.2-0.3c0-0.1-0.1-0.1-0.2,0c-0.1,0-0.1,0.1,0,0.2L108.4,255z"/>
	<path d="M109.6,257.9h-1.8v-1.6h1.8L109.6,257.9z M109.8,256h-2.1c-0.1,0-0.1,0.1-0.1,0.1v1.9c0,0.1,0.1,0.1,0.1,0.1h2.1
		c0.1,0,0.1-0.1,0.1-0.1l0-1.9C109.9,256,109.9,256,109.8,256L109.8,256z"/>
	<path d="M108.4,257.4c0,0,0.1,0.1,0.1,0.1h0c0,0,0.1,0,0.1,0l0.9-0.8c0.1-0.1,0.1-0.1,0-0.2c-0.1-0.1-0.1-0.1-0.2,0l-0.7,0.7
		l-0.2-0.3c0-0.1-0.1-0.1-0.2,0c-0.1,0-0.1,0.1,0,0.2L108.4,257.4z"/>
	<path d="M109.6,260.5h-1.8v-1.6h1.8L109.6,260.5z M109.8,258.6h-2.1c-0.1,0-0.1,0.1-0.1,0.1v1.9c0,0.1,0.1,0.1,0.1,0.1h2.1
		c0.1,0,0.1-0.1,0.1-0.1l0-1.9C109.9,258.7,109.9,258.6,109.8,258.6L109.8,258.6z"/>
	<path d="M108.3,260.1c0,0,0.1,0.1,0.1,0.1h0c0,0,0.1,0,0.1,0l0.9-0.8c0.1-0.1,0.1-0.1,0-0.2c-0.1-0.1-0.1-0.1-0.2,0l-0.7,0.7
		l-0.2-0.3c0-0.1-0.1-0.1-0.2,0c-0.1,0-0.1,0.1,0,0.2L108.3,260.1z"/>
	<path d="M101.7,253.1c0-0.6,0.5-1.1,1.1-1.1h1.5c0.6,0,1.1,0.5,1.1,1.1v0.5h-3.7L101.7,253.1z M103.6,249.6c0.5,0,0.9,0.4,0.9,0.9
		s-0.4,0.9-0.9,0.9c-0.5,0-0.9-0.4-0.9-0.9C102.7,250,103.1,249.6,103.6,249.6z M101.5,254h4.1c0.1,0,0.2-0.1,0.2-0.2v-0.7
		c0-0.8-0.7-1.5-1.5-1.5h0c0.4-0.2,0.6-0.6,0.6-1.1c0-0.7-0.6-1.3-1.3-1.3c-0.7,0-1.3,0.6-1.3,1.3c0,0.5,0.3,0.9,0.6,1.1h-0.1
		c-0.8,0-1.5,0.7-1.5,1.5v0.7C101.3,253.9,101.4,254,101.5,254L101.5,254z"/>
	<path d="M101.6,254.8c-0.1,0-0.2,0.1-0.2,0.2c0,0.1,0.1,0.2,0.2,0.2l4.2,0c0.1,0,0.2-0.1,0.2-0.2c0-0.1-0.1-0.2-0.2-0.2
		L101.6,254.8z"/>
	<path d="M105.7,256.3h-4.2c-0.1,0-0.2,0.1-0.2,0.2c0,0.1,0.1,0.2,0.2,0.2l4.2,0c0.1,0,0.2-0.1,0.2-0.2
		C106,256.4,105.9,256.3,105.7,256.3L105.7,256.3z"/>
	<path d="M105.9,257.8h-4.4c-0.1,0-0.1,0.1-0.1,0.2c0,0.1,0,0.2,0.1,0.2l4.4,0c0.1,0,0.1-0.1,0.1-0.2
		C106,257.9,106,257.8,105.9,257.8L105.9,257.8z"/>
	<path d="M105.9,259.3h-4.4c-0.1,0-0.1,0.1-0.1,0.2c0,0.1,0,0.2,0.1,0.2l4.4,0c0.1,0,0.1-0.1,0.1-0.2
		C106,259.4,106,259.3,105.9,259.3L105.9,259.3z"/>
	<path d="M105.9,260.8h-4.4c-0.1,0-0.1,0.1-0.1,0.2c0,0.1,0,0.2,0.1,0.2l4.4,0c0.1,0,0.1-0.1,0.1-0.2
		C106,260.8,106,260.8,105.9,260.8z"/>
</g>
<g>
	<path d="M128.2,262.1h-10.8v-13.4h7v3.5c0,0.1,0.1,0.2,0.2,0.2l3.6,0L128.2,262.1z M124.8,249l3.1,3l-3.1,0V249z M128.6,252.1
		C128.6,252,128.6,252,128.6,252.1l-3.9-3.8c0,0,0,0-0.1,0h-0.1h-7.4c-0.1,0-0.2,0.1-0.2,0.2v13.8c0,0.1,0.1,0.2,0.2,0.2h11.2
		c0.1,0,0.2-0.1,0.2-0.2v-0.9l0-9.2C128.6,252.1,128.6,252.1,128.6,252.1L128.6,252.1z"/>
	<path d="M126.7,255.3h-1.8v-1.6h1.8L126.7,255.3z M126.8,253.4h-2.1c-0.1,0-0.1,0.1-0.1,0.1v1.9c0,0.1,0.1,0.1,0.1,0.1h2.1
		c0.1,0,0.1-0.1,0.1-0.1l0-1.9C127,253.5,126.9,253.4,126.8,253.4L126.8,253.4z"/>
	<path d="M125.4,255c0,0,0.1,0.1,0.1,0.1h0c0,0,0.1,0,0.1,0l0.9-0.8c0.1-0.1,0.1-0.1,0-0.2c-0.1-0.1-0.1-0.1-0.2,0l-0.7,0.7
		l-0.2-0.3c0-0.1-0.1-0.1-0.2,0c-0.1,0-0.1,0.1,0,0.2L125.4,255z"/>
	<path d="M126.7,257.9h-1.8v-1.6h1.8L126.7,257.9z M126.9,256h-2.1c-0.1,0-0.1,0.1-0.1,0.1v1.9c0,0.1,0.1,0.1,0.1,0.1h2.1
		c0.1,0,0.1-0.1,0.1-0.1l0-1.9C127,256,126.9,256,126.9,256L126.9,256z"/>
	<path d="M125.4,257.4c0,0,0.1,0.1,0.1,0.1h0c0,0,0.1,0,0.1,0l0.9-0.8c0.1-0.1,0.1-0.1,0-0.2c-0.1-0.1-0.1-0.1-0.2,0l-0.7,0.7
		l-0.2-0.3c0-0.1-0.1-0.1-0.2,0c-0.1,0-0.1,0.1,0,0.2L125.4,257.4z"/>
	<path d="M126.7,260.5h-1.8v-1.6h1.8L126.7,260.5z M126.9,258.6h-2.1c-0.1,0-0.1,0.1-0.1,0.1v1.9c0,0.1,0.1,0.1,0.1,0.1h2.1
		c0.1,0,0.1-0.1,0.1-0.1l0-1.9C127,258.7,126.9,258.6,126.9,258.6L126.9,258.6z"/>
	<path d="M125.4,260.1c0,0,0.1,0.1,0.1,0.1h0c0,0,0.1,0,0.1,0l0.9-0.8c0.1-0.1,0.1-0.1,0-0.2c-0.1-0.1-0.1-0.1-0.2,0l-0.7,0.7
		l-0.2-0.3c0-0.1-0.1-0.1-0.2,0s-0.1,0.1,0,0.2L125.4,260.1z"/>
	<path d="M118.8,253.1c0-0.6,0.5-1.1,1.1-1.1h1.5c0.6,0,1.1,0.5,1.1,1.1v0.5h-3.7L118.8,253.1z M120.6,249.6c0.5,0,0.9,0.4,0.9,0.9
		s-0.4,0.9-0.9,0.9c-0.5,0-0.9-0.4-0.9-0.9C119.7,250,120.1,249.6,120.6,249.6z M118.6,254h4.1c0.1,0,0.2-0.1,0.2-0.2v-0.7
		c0-0.8-0.7-1.5-1.5-1.5h0c0.4-0.2,0.6-0.6,0.6-1.1c0-0.7-0.6-1.3-1.3-1.3c-0.7,0-1.3,0.6-1.3,1.3c0,0.5,0.3,0.9,0.6,1.1h-0.1
		c-0.8,0-1.5,0.7-1.5,1.5v0.7C118.4,253.9,118.5,254,118.6,254L118.6,254z"/>
	<path d="M118.6,254.8c-0.1,0-0.2,0.1-0.2,0.2c0,0.1,0.1,0.2,0.2,0.2l4.2,0c0.1,0,0.2-0.1,0.2-0.2c0-0.1-0.1-0.2-0.2-0.2
		L118.6,254.8z"/>
	<path d="M122.8,256.3h-4.2c-0.1,0-0.2,0.1-0.2,0.2c0,0.1,0.1,0.2,0.2,0.2l4.2,0c0.1,0,0.2-0.1,0.2-0.2
		C123,256.4,122.9,256.3,122.8,256.3L122.8,256.3z"/>
	<path d="M123,257.8h-4.4c-0.1,0-0.1,0.1-0.1,0.2c0,0.1,0,0.2,0.1,0.2l4.4,0c0.1,0,0.1-0.1,0.1-0.2C123.1,257.9,123,257.8,123,257.8
		L123,257.8z"/>
	<path d="M123,259.3h-4.4c-0.1,0-0.1,0.1-0.1,0.2c0,0.1,0,0.2,0.1,0.2l4.4,0c0.1,0,0.1-0.1,0.1-0.2C123.1,259.4,123,259.3,123,259.3
		L123,259.3z"/>
	<path d="M123,260.8h-4.4c-0.1,0-0.1,0.1-0.1,0.2c0,0.1,0,0.2,0.1,0.2l4.4,0c0.1,0,0.1-0.1,0.1-0.2C123.1,260.8,123,260.8,123,260.8
		z"/>
</g>
<path d="M145.3,262.1h-10.8v-13.4h7v3.5c0,0.1,0.1,0.2,0.2,0.2l3.6,0L145.3,262.1z M141.9,249l3.1,3l-3.1,0V249z M145.7,252.1
	C145.7,252,145.7,252,145.7,252.1l-3.9-3.8c0,0,0,0-0.1,0h-0.1h-7.4c-0.1,0-0.2,0.1-0.2,0.2v13.8c0,0.1,0.1,0.2,0.2,0.2h11.2
	c0.1,0,0.2-0.1,0.2-0.2v-0.9l0-9.2C145.7,252.1,145.7,252.1,145.7,252.1L145.7,252.1z"/>
<path d="M143.8,255.3H142v-1.6h1.8L143.8,255.3z M143.9,253.4h-2.1c-0.1,0-0.1,0.1-0.1,0.1v1.9c0,0.1,0.1,0.1,0.1,0.1h2.1
	c0.1,0,0.1-0.1,0.1-0.1l0-1.9C144,253.5,144,253.4,143.9,253.4L143.9,253.4z"/>
<path d="M142.5,255c0,0,0.1,0.1,0.1,0.1h0c0,0,0.1,0,0.1,0l0.9-0.8c0.1-0.1,0.1-0.1,0-0.2c-0.1-0.1-0.1-0.1-0.2,0l-0.7,0.7l-0.2-0.3
	c0-0.1-0.1-0.1-0.2,0c-0.1,0-0.1,0.1,0,0.2L142.5,255z"/>
<path d="M143.8,257.9H142v-1.6h1.8L143.8,257.9z M143.9,256h-2.1c-0.1,0-0.1,0.1-0.1,0.1v1.9c0,0.1,0.1,0.1,0.1,0.1h2.1
	c0.1,0,0.1-0.1,0.1-0.1l0-1.9C144.1,256,144,256,143.9,256L143.9,256z"/>
<path d="M142.5,257.4c0,0,0.1,0.1,0.1,0.1h0c0,0,0.1,0,0.1,0l0.9-0.8c0.1-0.1,0.1-0.1,0-0.2c-0.1-0.1-0.1-0.1-0.2,0l-0.7,0.7
	l-0.2-0.3c0-0.1-0.1-0.1-0.2,0c-0.1,0-0.1,0.1,0,0.2L142.5,257.4z"/>
<path d="M143.8,260.5H142v-1.6h1.8L143.8,260.5z M143.9,258.6h-2.1c-0.1,0-0.1,0.1-0.1,0.1v1.9c0,0.1,0.1,0.1,0.1,0.1h2.1
	c0.1,0,0.1-0.1,0.1-0.1l0-1.9C144.1,258.7,144,258.6,143.9,258.6L143.9,258.6z"/>
<path d="M142.5,260.1c0,0,0.1,0.1,0.1,0.1h0c0,0,0.1,0,0.1,0l0.9-0.8c0.1-0.1,0.1-0.1,0-0.2c-0.1-0.1-0.1-0.1-0.2,0l-0.7,0.7
	l-0.2-0.3c0-0.1-0.1-0.1-0.2,0s-0.1,0.1,0,0.2L142.5,260.1z"/>
<path d="M135.9,253.1c0-0.6,0.5-1.1,1.1-1.1h1.5c0.6,0,1.1,0.5,1.1,1.1v0.5h-3.7L135.9,253.1z M137.7,249.6c0.5,0,0.9,0.4,0.9,0.9
	s-0.4,0.9-0.9,0.9s-0.9-0.4-0.9-0.9C136.8,250,137.2,249.6,137.7,249.6z M135.6,254h4.1c0.1,0,0.2-0.1,0.2-0.2v-0.7
	c0-0.8-0.7-1.5-1.5-1.5h0c0.4-0.2,0.6-0.6,0.6-1.1c0-0.7-0.6-1.3-1.3-1.3c-0.7,0-1.3,0.6-1.3,1.3c0,0.5,0.3,0.9,0.6,1.1h-0.1
	c-0.8,0-1.5,0.7-1.5,1.5v0.7C135.4,253.9,135.5,254,135.6,254L135.6,254z"/>
<path d="M135.7,254.8c-0.1,0-0.2,0.1-0.2,0.2c0,0.1,0.1,0.2,0.2,0.2l4.2,0c0.1,0,0.2-0.1,0.2-0.2c0-0.1-0.1-0.2-0.2-0.2L135.7,254.8
	z"/>
<path d="M139.9,256.3h-4.2c-0.1,0-0.2,0.1-0.2,0.2c0,0.1,0.1,0.2,0.2,0.2l4.2,0c0.1,0,0.2-0.1,0.2-0.2
	C140.1,256.4,140,256.3,139.9,256.3L139.9,256.3z"/>
<path d="M140,257.8h-4.4c-0.1,0-0.1,0.1-0.1,0.2c0,0.1,0,0.2,0.1,0.2l4.4,0c0.1,0,0.1-0.1,0.1-0.2
	C140.2,257.9,140.1,257.8,140,257.8L140,257.8z"/>
<path d="M140,259.3h-4.4c-0.1,0-0.1,0.1-0.1,0.2c0,0.1,0,0.2,0.1,0.2l4.4,0c0.1,0,0.1-0.1,0.1-0.2
	C140.2,259.4,140.1,259.3,140,259.3L140,259.3z"/>
<path d="M140,260.8h-4.4c-0.1,0-0.1,0.1-0.1,0.2c0,0.1,0,0.2,0.1,0.2l4.4,0c0.1,0,0.1-0.1,0.1-0.2
	C140.2,260.8,140.1,260.8,140,260.8z"/>
<g>
	<path d="M111.4,278h-10.8v-13.4h7v3.5c0,0.1,0.1,0.2,0.2,0.2l3.6,0L111.4,278z M108,264.9l3.1,3l-3.1,0V264.9z M111.8,268
		C111.8,268,111.8,268,111.8,268l-3.9-3.8c0,0,0,0-0.1,0h-0.1h-7.4c-0.1,0-0.2,0.1-0.2,0.2v13.8c0,0.1,0.1,0.2,0.2,0.2h11.2
		c0.1,0,0.2-0.1,0.2-0.2v-0.9l0-9.2C111.8,268.1,111.8,268,111.8,268L111.8,268z"/>
	<path d="M109.9,271.3h-1.8v-1.6h1.8L109.9,271.3z M110,269.4H108c-0.1,0-0.1,0.1-0.1,0.1v1.9c0,0.1,0.1,0.1,0.1,0.1h2.1
		c0.1,0,0.1-0.1,0.1-0.1l0-1.9C110.2,269.5,110.1,269.4,110,269.4L110,269.4z"/>
	<path d="M108.6,270.9c0,0,0.1,0.1,0.1,0.1h0c0,0,0.1,0,0.1,0l0.9-0.8c0.1-0.1,0.1-0.1,0-0.2c-0.1-0.1-0.1-0.1-0.2,0l-0.7,0.7
		l-0.2-0.3c0-0.1-0.1-0.1-0.2,0c-0.1,0-0.1,0.1,0,0.2L108.6,270.9z"/>
	<path d="M109.9,273.8h-1.8v-1.6h1.8L109.9,273.8z M110.1,271.9H108c-0.1,0-0.1,0.1-0.1,0.1v1.9c0,0.1,0.1,0.1,0.1,0.1h2.1
		c0.1,0,0.1-0.1,0.1-0.1l0-1.9C110.2,272,110.1,271.9,110.1,271.9L110.1,271.9z"/>
	<path d="M108.6,273.3c0,0,0.1,0.1,0.1,0.1h0c0,0,0.1,0,0.1,0l0.9-0.8c0.1-0.1,0.1-0.1,0-0.2c-0.1-0.1-0.1-0.1-0.2,0l-0.7,0.7
		l-0.2-0.3c0-0.1-0.1-0.1-0.2,0c-0.1,0-0.1,0.1,0,0.2L108.6,273.3z"/>
	<path d="M109.9,276.5h-1.8v-1.6h1.8L109.9,276.5z M110.1,274.6H108c-0.1,0-0.1,0.1-0.1,0.1v1.9c0,0.1,0.1,0.1,0.1,0.1h2.1
		c0.1,0,0.1-0.1,0.1-0.1l0-1.9C110.2,274.6,110.1,274.6,110.1,274.6L110.1,274.6z"/>
	<path d="M108.6,276.1c0,0,0.1,0.1,0.1,0.1h0c0,0,0.1,0,0.1,0l0.9-0.8c0.1-0.1,0.1-0.1,0-0.2c-0.1-0.1-0.1-0.1-0.2,0l-0.7,0.7
		l-0.2-0.3c0-0.1-0.1-0.1-0.2,0c-0.1,0-0.1,0.1,0,0.2L108.6,276.1z"/>
	<path d="M102,269.1c0-0.6,0.5-1.1,1.1-1.1h1.5c0.6,0,1.1,0.5,1.1,1.1v0.5H102L102,269.1z M103.8,265.5c0.5,0,0.9,0.4,0.9,0.9
		c0,0.5-0.4,0.9-0.9,0.9s-0.9-0.4-0.9-0.9C102.9,265.9,103.4,265.5,103.8,265.5z M101.8,269.9h4.1c0.1,0,0.2-0.1,0.2-0.2v-0.7
		c0-0.8-0.7-1.5-1.5-1.5h0c0.4-0.2,0.6-0.6,0.6-1.1c0-0.7-0.6-1.3-1.3-1.3c-0.7,0-1.3,0.6-1.3,1.3c0,0.5,0.3,0.9,0.6,1.1h-0.1
		c-0.8,0-1.5,0.7-1.5,1.5v0.7C101.6,269.8,101.7,269.9,101.8,269.9L101.8,269.9z"/>
	<path d="M101.8,270.8c-0.1,0-0.2,0.1-0.2,0.2c0,0.1,0.1,0.2,0.2,0.2l4.2,0c0.1,0,0.2-0.1,0.2-0.2c0-0.1-0.1-0.2-0.2-0.2
		L101.8,270.8z"/>
	<path d="M106,272.3h-4.2c-0.1,0-0.2,0.1-0.2,0.2c0,0.1,0.1,0.2,0.2,0.2l4.2,0c0.1,0,0.2-0.1,0.2-0.2
		C106.2,272.4,106.2,272.3,106,272.3L106,272.3z"/>
	<path d="M106.2,273.8h-4.4c-0.1,0-0.1,0.1-0.1,0.2c0,0.1,0,0.2,0.1,0.2l4.4,0c0.1,0,0.1-0.1,0.1-0.2
		C106.3,273.8,106.3,273.8,106.2,273.8L106.2,273.8z"/>
	<path d="M106.2,275.2h-4.4c-0.1,0-0.1,0.1-0.1,0.2c0,0.1,0,0.2,0.1,0.2l4.4,0c0.1,0,0.1-0.1,0.1-0.2
		C106.3,275.3,106.3,275.2,106.2,275.2L106.2,275.2z"/>
	<path d="M106.2,276.7h-4.4c-0.1,0-0.1,0.1-0.1,0.2c0,0.1,0,0.2,0.1,0.2l4.4,0c0.1,0,0.1-0.1,0.1-0.2
		C106.3,276.8,106.3,276.7,106.2,276.7z"/>
</g>
<g>
	<path d="M128.5,278h-10.8v-13.4h7v3.5c0,0.1,0.1,0.2,0.2,0.2l3.6,0L128.5,278z M125.1,264.9l3.1,3l-3.1,0V264.9z M128.9,268
		C128.9,268,128.9,268,128.9,268l-3.9-3.8c0,0,0,0-0.1,0h-0.1h-7.4c-0.1,0-0.2,0.1-0.2,0.2v13.8c0,0.1,0.1,0.2,0.2,0.2h11.2
		c0.1,0,0.2-0.1,0.2-0.2v-0.9l0-9.2C128.9,268.1,128.9,268,128.9,268L128.9,268z"/>
	<path d="M127,271.3h-1.8v-1.6h1.8L127,271.3z M127.1,269.4H125c-0.1,0-0.1,0.1-0.1,0.1v1.9c0,0.1,0.1,0.1,0.1,0.1h2.1
		c0.1,0,0.1-0.1,0.1-0.1l0-1.9C127.3,269.5,127.2,269.4,127.1,269.4L127.1,269.4z"/>
	<path d="M125.7,270.9c0,0,0.1,0.1,0.1,0.1h0c0,0,0.1,0,0.1,0l0.9-0.8c0.1-0.1,0.1-0.1,0-0.2c-0.1-0.1-0.1-0.1-0.2,0l-0.7,0.7
		l-0.2-0.3c0-0.1-0.1-0.1-0.2,0s-0.1,0.1,0,0.2L125.7,270.9z"/>
	<path d="M127,273.8h-1.8v-1.6h1.8L127,273.8z M127.1,271.9h-2.1c-0.1,0-0.1,0.1-0.1,0.1v1.9c0,0.1,0.1,0.1,0.1,0.1h2.1
		c0.1,0,0.1-0.1,0.1-0.1l0-1.9C127.3,272,127.2,271.9,127.1,271.9L127.1,271.9z"/>
	<path d="M125.7,273.3c0,0,0.1,0.1,0.1,0.1h0c0,0,0.1,0,0.1,0l0.9-0.8c0.1-0.1,0.1-0.1,0-0.2c-0.1-0.1-0.1-0.1-0.2,0l-0.7,0.7
		l-0.2-0.3c0-0.1-0.1-0.1-0.2,0s-0.1,0.1,0,0.2L125.7,273.3z"/>
	<path d="M127,276.5h-1.8v-1.6h1.8L127,276.5z M127.1,274.6h-2.1c-0.1,0-0.1,0.1-0.1,0.1v1.9c0,0.1,0.1,0.1,0.1,0.1h2.1
		c0.1,0,0.1-0.1,0.1-0.1l0-1.9C127.3,274.6,127.2,274.6,127.1,274.6L127.1,274.6z"/>
	<path d="M125.7,276.1c0,0,0.1,0.1,0.1,0.1h0c0,0,0.1,0,0.1,0l0.9-0.8c0.1-0.1,0.1-0.1,0-0.2c-0.1-0.1-0.1-0.1-0.2,0l-0.7,0.7
		l-0.2-0.3c0-0.1-0.1-0.1-0.2,0c-0.1,0-0.1,0.1,0,0.2L125.7,276.1z"/>
	<path d="M119.1,269.1c0-0.6,0.5-1.1,1.1-1.1h1.5c0.6,0,1.1,0.5,1.1,1.1v0.5h-3.7L119.1,269.1z M120.9,265.5c0.5,0,0.9,0.4,0.9,0.9
		c0,0.5-0.4,0.9-0.9,0.9c-0.5,0-0.9-0.4-0.9-0.9C120,265.9,120.4,265.5,120.9,265.5z M118.8,269.9h4.1c0.1,0,0.2-0.1,0.2-0.2v-0.7
		c0-0.8-0.7-1.5-1.5-1.5h0c0.4-0.2,0.6-0.6,0.6-1.1c0-0.7-0.6-1.3-1.3-1.3c-0.7,0-1.3,0.6-1.3,1.3c0,0.5,0.3,0.9,0.6,1.1h-0.1
		c-0.8,0-1.5,0.7-1.5,1.5v0.7C118.6,269.8,118.7,269.9,118.8,269.9L118.8,269.9z"/>
	<path d="M118.9,270.8c-0.1,0-0.2,0.1-0.2,0.2c0,0.1,0.1,0.2,0.2,0.2l4.2,0c0.1,0,0.2-0.1,0.2-0.2c0-0.1-0.1-0.2-0.2-0.2
		L118.9,270.8z"/>
	<path d="M123.1,272.3h-4.2c-0.1,0-0.2,0.1-0.2,0.2c0,0.1,0.1,0.2,0.2,0.2l4.2,0c0.1,0,0.2-0.1,0.2-0.2
		C123.3,272.4,123.2,272.3,123.1,272.3L123.1,272.3z"/>
	<path d="M123.3,273.8h-4.4c-0.1,0-0.1,0.1-0.1,0.2c0,0.1,0,0.2,0.1,0.2l4.4,0c0.1,0,0.1-0.1,0.1-0.2
		C123.4,273.8,123.3,273.8,123.3,273.8L123.3,273.8z"/>
	<path d="M123.3,275.2h-4.4c-0.1,0-0.1,0.1-0.1,0.2c0,0.1,0,0.2,0.1,0.2l4.4,0c0.1,0,0.1-0.1,0.1-0.2
		C123.4,275.3,123.3,275.2,123.3,275.2L123.3,275.2z"/>
	<path d="M123.3,276.7h-4.4c-0.1,0-0.1,0.1-0.1,0.2c0,0.1,0,0.2,0.1,0.2l4.4,0c0.1,0,0.1-0.1,0.1-0.2
		C123.4,276.8,123.3,276.7,123.3,276.7z"/>
</g>
<g>
	<path d="M145.6,278h-10.8v-13.4h7v3.5c0,0.1,0.1,0.2,0.2,0.2l3.6,0L145.6,278z M142.2,264.9l3.1,3l-3.1,0V264.9z M146,268
		C145.9,268,145.9,268,146,268l-3.9-3.8c0,0,0,0-0.1,0H142h-7.4c-0.1,0-0.2,0.1-0.2,0.2v13.8c0,0.1,0.1,0.2,0.2,0.2h11.2
		c0.1,0,0.2-0.1,0.2-0.2v-0.9l0-9.2C146,268.1,146,268,146,268L146,268z"/>
	<path d="M144,271.3h-1.8v-1.6h1.8L144,271.3z M144.2,269.4h-2.1c-0.1,0-0.1,0.1-0.1,0.1v1.9c0,0.1,0.1,0.1,0.1,0.1h2.1
		c0.1,0,0.1-0.1,0.1-0.1l0-1.9C144.3,269.5,144.3,269.4,144.2,269.4L144.2,269.4z"/>
	<path d="M142.8,270.9c0,0,0.1,0.1,0.1,0.1h0c0,0,0.1,0,0.1,0l0.9-0.8c0.1-0.1,0.1-0.1,0-0.2c-0.1-0.1-0.1-0.1-0.2,0l-0.7,0.7
		l-0.2-0.3c0-0.1-0.1-0.1-0.2,0c-0.1,0-0.1,0.1,0,0.2L142.8,270.9z"/>
	<path d="M144.1,273.8h-1.8v-1.6h1.8L144.1,273.8z M144.2,271.9h-2.1c-0.1,0-0.1,0.1-0.1,0.1v1.9c0,0.1,0.1,0.1,0.1,0.1h2.1
		c0.1,0,0.1-0.1,0.1-0.1l0-1.9C144.3,272,144.3,271.9,144.2,271.9L144.2,271.9z"/>
	<path d="M142.8,273.3c0,0,0.1,0.1,0.1,0.1h0c0,0,0.1,0,0.1,0l0.9-0.8c0.1-0.1,0.1-0.1,0-0.2c-0.1-0.1-0.1-0.1-0.2,0l-0.7,0.7
		l-0.2-0.3c0-0.1-0.1-0.1-0.2,0c-0.1,0-0.1,0.1,0,0.2L142.8,273.3z"/>
	<path d="M144.1,276.5h-1.8v-1.6h1.8L144.1,276.5z M144.2,274.6h-2.1c-0.1,0-0.1,0.1-0.1,0.1v1.9c0,0.1,0.1,0.1,0.1,0.1h2.1
		c0.1,0,0.1-0.1,0.1-0.1l0-1.9C144.3,274.6,144.3,274.6,144.2,274.6L144.2,274.6z"/>
	<path d="M142.7,276.1c0,0,0.1,0.1,0.1,0.1h0c0,0,0.1,0,0.1,0l0.9-0.8c0.1-0.1,0.1-0.1,0-0.2c-0.1-0.1-0.1-0.1-0.2,0l-0.7,0.7
		l-0.2-0.3c0-0.1-0.1-0.1-0.2,0c-0.1,0-0.1,0.1,0,0.2L142.7,276.1z"/>
	<path d="M136.1,269.1c0-0.6,0.5-1.1,1.1-1.1h1.5c0.6,0,1.1,0.5,1.1,1.1v0.5h-3.7L136.1,269.1z M138,265.5c0.5,0,0.9,0.4,0.9,0.9
		c0,0.5-0.4,0.9-0.9,0.9s-0.9-0.4-0.9-0.9C137.1,265.9,137.5,265.5,138,265.5z M135.9,269.9h4.1c0.1,0,0.2-0.1,0.2-0.2v-0.7
		c0-0.8-0.7-1.5-1.5-1.5h0c0.4-0.2,0.6-0.6,0.6-1.1c0-0.7-0.6-1.3-1.3-1.3s-1.3,0.6-1.3,1.3c0,0.5,0.3,0.9,0.6,1.1h-0.1
		c-0.8,0-1.5,0.7-1.5,1.5v0.7C135.7,269.8,135.8,269.9,135.9,269.9L135.9,269.9z"/>
	<path d="M136,270.8c-0.1,0-0.2,0.1-0.2,0.2c0,0.1,0.1,0.2,0.2,0.2l4.2,0c0.1,0,0.2-0.1,0.2-0.2c0-0.1-0.1-0.2-0.2-0.2L136,270.8z"
		/>
	<path d="M140.2,272.3H136c-0.1,0-0.2,0.1-0.2,0.2c0,0.1,0.1,0.2,0.2,0.2l4.2,0c0.1,0,0.2-0.1,0.2-0.2
		C140.4,272.4,140.3,272.3,140.2,272.3L140.2,272.3z"/>
	<path d="M140.3,273.8h-4.4c-0.1,0-0.1,0.1-0.1,0.2c0,0.1,0,0.2,0.1,0.2l4.4,0c0.1,0,0.1-0.1,0.1-0.2
		C140.4,273.8,140.4,273.8,140.3,273.8L140.3,273.8z"/>
	<path d="M140.3,275.2h-4.4c-0.1,0-0.1,0.1-0.1,0.2c0,0.1,0,0.2,0.1,0.2l4.4,0c0.1,0,0.1-0.1,0.1-0.2
		C140.4,275.3,140.4,275.2,140.3,275.2L140.3,275.2z"/>
	<path d="M140.3,276.7h-4.4c-0.1,0-0.1,0.1-0.1,0.2c0,0.1,0,0.2,0.1,0.2l4.4,0c0.1,0,0.1-0.1,0.1-0.2
		C140.4,276.8,140.4,276.7,140.3,276.7z"/>
</g>
<g>
	<path d="M111.5,293.8h-10.8v-13.4h7v3.5c0,0.1,0.1,0.2,0.2,0.2l3.6,0L111.5,293.8z M108.1,280.7l3.1,3l-3.1,0V280.7z M111.9,283.8
		C111.9,283.8,111.9,283.7,111.9,283.8L108,280c0,0,0,0-0.1,0h-0.1h-7.4c-0.1,0-0.2,0.1-0.2,0.2V294c0,0.1,0.1,0.2,0.2,0.2h11.2
		c0.1,0,0.2-0.1,0.2-0.2v-0.9l0-9.2C111.9,283.9,111.9,283.8,111.9,283.8L111.9,283.8z"/>
	<path d="M110,287h-1.8v-1.6h1.8L110,287z M110.1,285.1H108c-0.1,0-0.1,0.1-0.1,0.1v1.9c0,0.1,0.1,0.1,0.1,0.1h2.1
		c0.1,0,0.1-0.1,0.1-0.1l0-1.9C110.3,285.2,110.2,285.1,110.1,285.1L110.1,285.1z"/>
	<path d="M108.7,286.7c0,0,0.1,0.1,0.1,0.1h0c0,0,0.1,0,0.1,0l0.9-0.8c0.1-0.1,0.1-0.1,0-0.2c-0.1-0.1-0.1-0.1-0.2,0l-0.7,0.7
		l-0.2-0.3c0-0.1-0.1-0.1-0.2,0c-0.1,0-0.1,0.1,0,0.2L108.7,286.7z"/>
	<path d="M110,289.6h-1.8V288h1.8L110,289.6z M110.1,287.7h-2.1c-0.1,0-0.1,0.1-0.1,0.1v1.9c0,0.1,0.1,0.1,0.1,0.1h2.1
		c0.1,0,0.1-0.1,0.1-0.1l0-1.9C110.3,287.8,110.2,287.7,110.1,287.7L110.1,287.7z"/>
	<path d="M108.7,289.1c0,0,0.1,0.1,0.1,0.1h0c0,0,0.1,0,0.1,0l0.9-0.8c0.1-0.1,0.1-0.1,0-0.2c-0.1-0.1-0.1-0.1-0.2,0l-0.7,0.7
		l-0.2-0.3c0-0.1-0.1-0.1-0.2,0c-0.1,0-0.1,0.1,0,0.2L108.7,289.1z"/>
	<path d="M110,292.2h-1.8v-1.6h1.8L110,292.2z M110.1,290.3h-2.1c-0.1,0-0.1,0.1-0.1,0.1v1.9c0,0.1,0.1,0.1,0.1,0.1h2.1
		c0.1,0,0.1-0.1,0.1-0.1l0-1.9C110.3,290.4,110.2,290.3,110.1,290.3L110.1,290.3z"/>
	<path d="M108.7,291.8c0,0,0.1,0.1,0.1,0.1h0c0,0,0.1,0,0.1,0l0.9-0.8c0.1-0.1,0.1-0.1,0-0.2c-0.1-0.1-0.1-0.1-0.2,0l-0.7,0.7
		l-0.2-0.3c0-0.1-0.1-0.1-0.2,0c-0.1,0-0.1,0.1,0,0.2L108.7,291.8z"/>
	<path d="M102.1,284.8c0-0.6,0.5-1.1,1.1-1.1h1.5c0.6,0,1.1,0.5,1.1,1.1v0.5h-3.7L102.1,284.8z M103.9,281.3c0.5,0,0.9,0.4,0.9,0.9
		c0,0.5-0.4,0.9-0.9,0.9c-0.5,0-0.9-0.4-0.9-0.9C103,281.7,103.4,281.3,103.9,281.3z M101.8,285.7h4.1c0.1,0,0.2-0.1,0.2-0.2v-0.7
		c0-0.8-0.7-1.5-1.5-1.5h0c0.4-0.2,0.6-0.6,0.6-1.1c0-0.7-0.6-1.3-1.3-1.3c-0.7,0-1.3,0.6-1.3,1.3c0,0.5,0.3,0.9,0.6,1.1h-0.1
		c-0.8,0-1.5,0.7-1.5,1.5v0.7C101.6,285.6,101.7,285.7,101.8,285.7L101.8,285.7z"/>
	<path d="M101.9,286.6c-0.1,0-0.2,0.1-0.2,0.2c0,0.1,0.1,0.2,0.2,0.2l4.2,0c0.1,0,0.2-0.1,0.2-0.2c0-0.1-0.1-0.2-0.2-0.2
		L101.9,286.6z"/>
	<path d="M106.1,288h-4.2c-0.1,0-0.2,0.1-0.2,0.2c0,0.1,0.1,0.2,0.2,0.2l4.2,0c0.1,0,0.2-0.1,0.2-0.2
		C106.3,288.1,106.2,288,106.1,288L106.1,288z"/>
	<path d="M106.3,289.5h-4.4c-0.1,0-0.1,0.1-0.1,0.2c0,0.1,0,0.2,0.1,0.2l4.4,0c0.1,0,0.1-0.1,0.1-0.2
		C106.4,289.6,106.3,289.5,106.3,289.5L106.3,289.5z"/>
	<path d="M106.3,291h-4.4c-0.1,0-0.1,0.1-0.1,0.2c0,0.1,0,0.2,0.1,0.2l4.4,0c0.1,0,0.1-0.1,0.1-0.2C106.4,291.1,106.3,291,106.3,291
		L106.3,291z"/>
	<path d="M106.3,292.5h-4.4c-0.1,0-0.1,0.1-0.1,0.2c0,0.1,0,0.2,0.1,0.2l4.4,0c0.1,0,0.1-0.1,0.1-0.2
		C106.4,292.6,106.3,292.5,106.3,292.5z"/>
</g>
<g>
	<path d="M128.5,293.8h-10.8v-13.4h7v3.5c0,0.1,0.1,0.2,0.2,0.2l3.6,0L128.5,293.8z M125.2,280.7l3.1,3l-3.1,0V280.7z M129,283.8
		C128.9,283.8,128.9,283.7,129,283.8l-3.9-3.8c0,0,0,0-0.1,0h-0.1h-7.4c-0.1,0-0.2,0.1-0.2,0.2V294c0,0.1,0.1,0.2,0.2,0.2h11.2
		c0.1,0,0.2-0.1,0.2-0.2v-0.9l0-9.2C129,283.9,129,283.8,129,283.8L129,283.8z"/>
	<path d="M127,287h-1.8v-1.6h1.8L127,287z M127.2,285.1h-2.1c-0.1,0-0.1,0.1-0.1,0.1v1.9c0,0.1,0.1,0.1,0.1,0.1h2.1
		c0.1,0,0.1-0.1,0.1-0.1l0-1.9C127.3,285.2,127.3,285.1,127.2,285.1L127.2,285.1z"/>
	<path d="M125.8,286.7c0,0,0.1,0.1,0.1,0.1h0c0,0,0.1,0,0.1,0l0.9-0.8c0.1-0.1,0.1-0.1,0-0.2c-0.1-0.1-0.1-0.1-0.2,0l-0.7,0.7
		l-0.2-0.3c0-0.1-0.1-0.1-0.2,0c-0.1,0-0.1,0.1,0,0.2L125.8,286.7z"/>
	<path d="M127.1,289.6h-1.8V288h1.8L127.1,289.6z M127.2,287.7h-2.1c-0.1,0-0.1,0.1-0.1,0.1v1.9c0,0.1,0.1,0.1,0.1,0.1h2.1
		c0.1,0,0.1-0.1,0.1-0.1l0-1.9C127.3,287.8,127.3,287.7,127.2,287.7L127.2,287.7z"/>
	<path d="M125.8,289.1c0,0,0.1,0.1,0.1,0.1h0c0,0,0.1,0,0.1,0l0.9-0.8c0.1-0.1,0.1-0.1,0-0.2c-0.1-0.1-0.1-0.1-0.2,0l-0.7,0.7
		l-0.2-0.3c0-0.1-0.1-0.1-0.2,0c-0.1,0-0.1,0.1,0,0.2L125.8,289.1z"/>
	<path d="M127.1,292.2h-1.8v-1.6h1.8L127.1,292.2z M127.2,290.3h-2.1c-0.1,0-0.1,0.1-0.1,0.1v1.9c0,0.1,0.1,0.1,0.1,0.1h2.1
		c0.1,0,0.1-0.1,0.1-0.1l0-1.9C127.3,290.4,127.3,290.3,127.2,290.3L127.2,290.3z"/>
	<path d="M125.7,291.8c0,0,0.1,0.1,0.1,0.1h0c0,0,0.1,0,0.1,0l0.9-0.8c0.1-0.1,0.1-0.1,0-0.2c-0.1-0.1-0.1-0.1-0.2,0l-0.7,0.7
		l-0.2-0.3c0-0.1-0.1-0.1-0.2,0c-0.1,0-0.1,0.1,0,0.2L125.7,291.8z"/>
	<path d="M119.1,284.8c0-0.6,0.5-1.1,1.1-1.1h1.5c0.6,0,1.1,0.5,1.1,1.1v0.5h-3.7L119.1,284.8z M121,281.3c0.5,0,0.9,0.4,0.9,0.9
		c0,0.5-0.4,0.9-0.9,0.9c-0.5,0-0.9-0.4-0.9-0.9C120.1,281.7,120.5,281.3,121,281.3z M118.9,285.7h4.1c0.1,0,0.2-0.1,0.2-0.2v-0.7
		c0-0.8-0.7-1.5-1.5-1.5h0c0.4-0.2,0.6-0.6,0.6-1.1c0-0.7-0.6-1.3-1.3-1.3c-0.7,0-1.3,0.6-1.3,1.3c0,0.5,0.3,0.9,0.6,1.1h-0.1
		c-0.8,0-1.5,0.7-1.5,1.5v0.7C118.7,285.6,118.8,285.7,118.9,285.7L118.9,285.7z"/>
	<path d="M119,286.6c-0.1,0-0.2,0.1-0.2,0.2c0,0.1,0.1,0.2,0.2,0.2l4.2,0c0.1,0,0.2-0.1,0.2-0.2c0-0.1-0.1-0.2-0.2-0.2L119,286.6z"
		/>
	<path d="M123.2,288H119c-0.1,0-0.2,0.1-0.2,0.2c0,0.1,0.1,0.2,0.2,0.2l4.2,0c0.1,0,0.2-0.1,0.2-0.2
		C123.4,288.1,123.3,288,123.2,288L123.2,288z"/>
	<path d="M123.3,289.5h-4.4c-0.1,0-0.1,0.1-0.1,0.2c0,0.1,0,0.2,0.1,0.2l4.4,0c0.1,0,0.1-0.1,0.1-0.2
		C123.4,289.6,123.4,289.5,123.3,289.5L123.3,289.5z"/>
	<path d="M123.3,291h-4.4c-0.1,0-0.1,0.1-0.1,0.2c0,0.1,0,0.2,0.1,0.2l4.4,0c0.1,0,0.1-0.1,0.1-0.2C123.4,291.1,123.4,291,123.3,291
		L123.3,291z"/>
	<path d="M123.3,292.5h-4.4c-0.1,0-0.1,0.1-0.1,0.2c0,0.1,0,0.2,0.1,0.2l4.4,0c0.1,0,0.1-0.1,0.1-0.2
		C123.4,292.6,123.4,292.5,123.3,292.5z"/>
</g>
<g>
	<path d="M145.6,293.8h-10.8v-13.4h7v3.5c0,0.1,0.1,0.2,0.2,0.2l3.6,0L145.6,293.8z M142.2,280.7l3.1,3l-3.1,0V280.7z M146,283.8
		C146,283.8,146,283.7,146,283.8l-3.9-3.8c0,0,0,0-0.1,0H142h-7.4c-0.1,0-0.2,0.1-0.2,0.2V294c0,0.1,0.1,0.2,0.2,0.2h11.2
		c0.1,0,0.2-0.1,0.2-0.2v-0.9l0-9.2C146.1,283.9,146.1,283.8,146,283.8L146,283.8z"/>
	<path d="M144.1,287h-1.8v-1.6h1.8L144.1,287z M144.2,285.1h-2.1c-0.1,0-0.1,0.1-0.1,0.1v1.9c0,0.1,0.1,0.1,0.1,0.1h2.1
		c0.1,0,0.1-0.1,0.1-0.1l0-1.9C144.4,285.2,144.3,285.1,144.2,285.1L144.2,285.1z"/>
	<path d="M142.8,286.7c0,0,0.1,0.1,0.1,0.1h0c0,0,0.1,0,0.1,0l0.9-0.8c0.1-0.1,0.1-0.1,0-0.2c-0.1-0.1-0.1-0.1-0.2,0l-0.7,0.7
		l-0.2-0.3c0-0.1-0.1-0.1-0.2,0c-0.1,0-0.1,0.1,0,0.2L142.8,286.7z"/>
	<path d="M144.1,289.6h-1.8V288h1.8L144.1,289.6z M144.3,287.7h-2.1c-0.1,0-0.1,0.1-0.1,0.1v1.9c0,0.1,0.1,0.1,0.1,0.1h2.1
		c0.1,0,0.1-0.1,0.1-0.1l0-1.9C144.4,287.8,144.4,287.7,144.3,287.7L144.3,287.7z"/>
	<path d="M142.8,289.1c0,0,0.1,0.1,0.1,0.1h0c0,0,0.1,0,0.1,0l0.9-0.8c0.1-0.1,0.1-0.1,0-0.2c-0.1-0.1-0.1-0.1-0.2,0l-0.7,0.7
		l-0.2-0.3c0-0.1-0.1-0.1-0.2,0c-0.1,0-0.1,0.1,0,0.2L142.8,289.1z"/>
	<path d="M144.1,292.2h-1.8v-1.6h1.8L144.1,292.2z M144.3,290.3h-2.1c-0.1,0-0.1,0.1-0.1,0.1v1.9c0,0.1,0.1,0.1,0.1,0.1h2.1
		c0.1,0,0.1-0.1,0.1-0.1l0-1.9C144.4,290.4,144.4,290.3,144.3,290.3L144.3,290.3z"/>
	<path d="M142.8,291.8c0,0,0.1,0.1,0.1,0.1h0c0,0,0.1,0,0.1,0l0.9-0.8c0.1-0.1,0.1-0.1,0-0.2c-0.1-0.1-0.1-0.1-0.2,0l-0.7,0.7
		l-0.2-0.3c0-0.1-0.1-0.1-0.2,0s-0.1,0.1,0,0.2L142.8,291.8z"/>
	<path d="M136.2,284.8c0-0.6,0.5-1.1,1.1-1.1h1.5c0.6,0,1.1,0.5,1.1,1.1v0.5h-3.7L136.2,284.8z M138.1,281.3c0.5,0,0.9,0.4,0.9,0.9
		c0,0.5-0.4,0.9-0.9,0.9s-0.9-0.4-0.9-0.9C137.1,281.7,137.6,281.3,138.1,281.3z M136,285.7h4.1c0.1,0,0.2-0.1,0.2-0.2v-0.7
		c0-0.8-0.7-1.5-1.5-1.5h0c0.4-0.2,0.6-0.6,0.6-1.1c0-0.7-0.6-1.3-1.3-1.3c-0.7,0-1.3,0.6-1.3,1.3c0,0.5,0.3,0.9,0.6,1.1h-0.1
		c-0.8,0-1.5,0.7-1.5,1.5v0.7C135.8,285.6,135.9,285.7,136,285.7L136,285.7z"/>
	<path d="M136,286.6c-0.1,0-0.2,0.1-0.2,0.2c0,0.1,0.1,0.2,0.2,0.2l4.2,0c0.1,0,0.2-0.1,0.2-0.2c0-0.1-0.1-0.2-0.2-0.2L136,286.6z"
		/>
	<path d="M140.2,288H136c-0.1,0-0.2,0.1-0.2,0.2c0,0.1,0.1,0.2,0.2,0.2l4.2,0c0.1,0,0.2-0.1,0.2-0.2
		C140.4,288.1,140.4,288,140.2,288L140.2,288z"/>
	<path d="M140.4,289.5h-4.4c-0.1,0-0.1,0.1-0.1,0.2c0,0.1,0,0.2,0.1,0.2l4.4,0c0.1,0,0.1-0.1,0.1-0.2
		C140.5,289.6,140.5,289.5,140.4,289.5L140.4,289.5z"/>
	<path d="M140.4,291h-4.4c-0.1,0-0.1,0.1-0.1,0.2c0,0.1,0,0.2,0.1,0.2l4.4,0c0.1,0,0.1-0.1,0.1-0.2C140.5,291.1,140.5,291,140.4,291
		L140.4,291z"/>
	<path d="M140.4,292.5h-4.4c-0.1,0-0.1,0.1-0.1,0.2c0,0.1,0,0.2,0.1,0.2l4.4,0c0.1,0,0.1-0.1,0.1-0.2
		C140.5,292.6,140.5,292.5,140.4,292.5z"/>
</g>
<text transform="matrix(1 0 0 1 47.3366 241.1012)" font-family="'ArialMT'" font-size="12px">2013</text>
<line fill="none" stroke="#000000" stroke-miterlimit="10" x1="373.4" y1="124" x2="373.4" y2="303.5"/>
<text transform="matrix(1 0 0 1 46.4145 309.0705)" font-family="'ArialMT'" font-size="11px">Brumberger and Lauer</text>
</svg>
