<?xml version="1.0" encoding="utf-8"?>
<!-- Generator: Adobe Illustrator 23.0.3, SVG Export Plug-In . SVG Version: 6.00 Build 0)  -->
<svg version="1.1" id="Layer_1" xmlns="http://www.w3.org/2000/svg" xmlns:xlink="http://www.w3.org/1999/xlink" x="0px" y="0px"
	 viewBox="0 0 600 350" enable-background="new 0 0 600 350" xml:space="preserve">
<path d="M104.7,64.6h36.8v27.2h-17.8c0.7,1,1.2,2.1,1.7,3.2h19.3V61.4h-43.2v21.8c1-0.3,2.1-0.5,3.2-0.6L104.7,64.6z"/>
<path d="M152.7,119.3v-3.2h36.8v27.2h-30c-0.9,1.2-1.8,2.2-2.7,3.2h35.9V113h-43.2v12.7c0.5-1.1,1-2.3,1.5-3.6
	C151.4,121.1,152,120.1,152.7,119.3L152.7,119.3z"/>
<path d="M127,103.5h2.9v-6.1h-3.7c0.5,1.8,0.8,3.7,0.8,5.6C127,103.1,127,103.3,127,103.5L127,103.5z"/>
<path d="M147.4,129.8V123h-6.1v13.6c0.6-0.2,1.3-0.7,2.4-1.7C144.5,134.1,145.8,132.6,147.4,129.8L147.4,129.8z"/>
<path d="M152,176.7h36.8v27.2H152V176.7z M148.8,207.1H192v-33.6h-43.2V207.1z"/>
<path d="M205.7,154.3h36.8v27.2h-36.8V154.3z M202.5,184.7h43.2v-33.6h-43.2V184.7z"/>
<polygon points="163.9,165.2 163.9,171.3 177.5,171.3 177.5,165.2 172.3,165.2 172.3,155.5 177.5,155.5 177.5,149.3 163.9,149.3 
	163.9,155.5 169.1,155.5 169.1,165.2 "/>
<rect x="217.3" y="142.3" width="13.6" height="6.1"/>
<path d="M293.7,149.8h-36.8v-27.2h36.8V149.8z M296.9,119.4h-43.2V153h43.2V119.4z"/>
<path d="M130.9,131.2h8.5V128h-11.2c0.4,0.6,1.1,1.4,2,2.4C130.4,130.7,130.7,131,130.9,131.2L130.9,131.2z"/>
<path d="M121.5,123.2c1.1,0.2,2.2,0.6,3.2,1.1v-12c-0.9,1.6-1.9,3.2-3.2,4.5V123.2z"/>
<polygon points="282.1,103.5 282.1,97.3 268.5,97.3 268.5,103.5 273.8,103.5 273.8,110.6 268.5,110.6 268.5,116.7 282.1,116.7 
	282.1,110.6 276.9,110.6 276.9,103.5 "/>
<polygon points="225.1,79.2 234.2,79.2 234.2,104.5 222.5,104.5 222.5,128.3 200.7,128.3 200.7,123 194.6,123 194.6,136.6 
	200.7,136.6 200.7,131.5 222.5,131.5 222.5,139.9 225.7,139.9 225.7,131.5 245.5,131.5 245.5,136.6 251.7,136.6 251.7,123 
	245.5,123 245.5,128.3 225.7,128.3 225.7,107.7 237.4,107.7 237.4,79.2 245.5,79.2 245.5,85 251.6,85 251.6,71.4 245.5,71.4 
	245.5,76 225.1,76 225.1,70.7 218.9,70.7 218.9,84.3 225.1,84.3 "/>
<path d="M213.6,91.8h-36.8V64.6h36.8V91.8z M216.8,61.4h-43.2V95h43.2V61.4z"/>
<rect x="165.4" y="71.4" width="6.1" height="13.6"/>
<path d="M293.7,91.8h-36.8V64.6h36.8V91.8z M296.9,61.4h-43.2V95h43.2V61.4z"/>
<rect x="147.5" y="76.8" width="16.4" height="3.2"/>
<path d="M128.4,72.5c0,6.8-10.2,6.8-10.2,0C118.2,65.7,128.4,65.7,128.4,72.5"/>
<path d="M116.8,85.3c0.1-0.3,0.2-0.6,0.4-0.8v1.1c1.8,1.1,3.4,2.4,4.8,4h7.5v-5.1c0.1,0.3,0.3,0.6,0.4,1c0.4,1,0.7,2.3,0.9,4.1h3.7
	c-0.4-3.8-1.3-6.2-2.3-7.8c-0.7-1.1-1.6-1.9-2.4-2.3c-0.5-0.3-1-0.4-1.4-0.4c-0.2-0.1-0.4-0.1-0.5-0.1l-8.8,0c-0.2,0-0.4,0-0.5,0.1
	c-0.4,0.1-0.9,0.2-1.4,0.4c-1.2,0.6-2.5,1.9-3.5,4.3c0,0,0,0,0,0C114.6,84.1,115.7,84.7,116.8,85.3L116.8,85.3z"/>
<path d="M167.2,121.7c0.9,2,1,4.2,0.3,6.2c0.9,0.9,2.2,1.4,3.5,1.4c2.8,0,5.1-2.3,5.1-5.1c0-2.8-2.3-5.1-5.1-5.1
	c-1.7,0-3.2,0.8-4.1,2.1C167.1,121.4,167.2,121.5,167.2,121.7L167.2,121.7z"/>
<path d="M175.5,130.6h-8.8c-0.1,0-0.1,0-0.2,0c-1.7,4.1-3.5,7.6-5.5,10.6h2.6c0.3-2.4,0.8-4,1.3-5.1v5.1h12.3v-5.1
	c0.1,0.3,0.3,0.6,0.4,1c0.4,1,0.7,2.3,0.9,4.1h3.7c-0.4-3.8-1.3-6.2-2.3-7.8c-0.7-1.1-1.6-1.9-2.4-2.3c-0.5-0.3-1-0.4-1.4-0.4
	C175.9,130.7,175.7,130.6,175.5,130.6L175.5,130.6z"/>
<path d="M176.2,184.5c0,6.8-10.2,6.8-10.2,0C166,177.7,176.2,177.7,176.2,184.5"/>
<path d="M177.4,191.4c-0.5-0.3-1-0.4-1.4-0.4c-0.2-0.1-0.4-0.1-0.5-0.1h-8.8c-0.2,0-0.4,0-0.5,0.1c-0.4,0.1-0.9,0.2-1.4,0.4
	c-1.2,0.6-2.5,1.9-3.5,4.3c-0.6,1.5-1,3.3-1.3,5.8h3.7c0.3-2.4,0.8-4,1.3-5.1v5.1h12.3v-5.1c0.1,0.3,0.3,0.6,0.4,1
	c0.4,1,0.7,2.3,0.9,4.1h3.7c-0.4-3.8-1.3-6.2-2.3-7.8C179.1,192.6,178.2,191.8,177.4,191.4L177.4,191.4z"/>
<path d="M69.9,202.1c0.1,0,0.3,0,0.4,0c3.5-0.2,6.2-3.2,6-6.8c-0.3-5.3-0.5-10.2-0.5-14.6c0-19.4,2.8-30.3,5.6-35.9v120
	c0,5.5,4.4,9.9,9.9,9.9c5.5,0,9.9-4.4,9.9-9.9v-72.2h3.7v72.2c0,5.5,4.4,9.9,9.9,9.9c5.5,0,9.9-4.4,9.9-9.9V146
	c1.4,1.1,2.9,2.2,4.6,3.1c3,1.6,6.6,2.9,10.7,2.9h0.2c4.8,0,9.9-2.1,14-6.2c4.2-4.1,7.8-10,11-18.3c1.3-3.3-0.4-7-3.7-8.3
	c-3.3-1.3-7,0.4-8.3,3.7c-2.8,7.2-5.6,11.5-8,13.7c-2.4,2.2-3.8,2.5-5.3,2.6c-1.3,0-2.8-0.4-4.5-1.4c-2.5-1.4-5.2-3.8-7-5.9
	c-0.9-1-1.7-2-2.2-2.6c-0.2-0.3-0.4-0.6-0.5-0.8c-0.1-0.1-0.1-0.1-0.1-0.2c0,0,0,0,0,0c0,0,0,0,0,0c-1.4-2.1-3.8-3.1-6.1-2.8
	c-0.3,0-0.6-0.1-1-0.1H87.6c-0.1,0-0.3,0-0.4,0c-1.5,0-3.8,0.4-6.5,1.7c-4.3,2.1-8.9,6.8-12.2,15.1c-3.3,8.3-5.5,20.3-5.5,38.4
	c0,4.7,0.2,9.8,0.5,15.3C63.7,199.5,66.5,202.1,69.9,202.1L69.9,202.1z"/>
<path d="M124.6,102.9c0,9.9-8.1,18-18,18s-18-8.1-18-18s8.1-18,18-18S124.6,93,124.6,102.9"/>
<path d="M226.8,166.6v-7.3c-3.6,2.2-7.3-2.1-10.9-0.7v-0.2c0-0.3-0.2-0.5-0.5-0.5c-0.3,0-0.5,0.2-0.5,0.5V179h1.1v-12.4
	C219.6,165,223.2,169.1,226.8,166.6L226.8,166.6z"/>
<rect x="207.5" y="174.4" width="6.2" height="0.9"/>
<rect x="217.3" y="174.4" width="22.4" height="0.9"/>
<path d="M267,71.5c2,0,3.6,1.6,3.6,3.6c0,2-1.6,3.6-3.6,3.6c-2,0-3.6-1.6-3.6-3.6C263.4,73.1,265,71.5,267,71.5z M260.3,76.5
	c0.2,0.8,0.5,1.5,0.9,2.2l-1.1,1.1c0.6,0.8,1.3,1.5,2.1,2.1l1.1-1.1c0.7,0.4,1.4,0.7,2.2,0.9v1.5c0.5,0.1,1,0.1,1.5,0.1
	c0.5,0,1-0.1,1.5-0.1v-1.5c0.8-0.2,1.5-0.5,2.2-0.9l1.1,1.1c0.8-0.6,1.5-1.3,2.1-2.1l-1.1-1.1c0.4-0.7,0.7-1.4,0.9-2.2h1.5
	c0.1-0.5,0.1-1,0.1-1.5c0-0.5-0.1-1-0.1-1.5h-1.5c-0.2-0.8-0.5-1.5-0.9-2.2l1.1-1.1c-0.6-0.8-1.3-1.5-2.1-2.1l-1.1,1.1
	c-0.7-0.4-1.4-0.7-2.2-0.9l0-1.5c-0.5-0.1-1-0.1-1.5-0.1c-0.5,0-1,0.1-1.5,0.1v1.5c-0.8,0.2-1.5,0.5-2.2,0.9l-1.1-1.1
	c-0.8,0.6-1.5,1.3-2.1,2.1l1.1,1.1c-0.4,0.7-0.7,1.4-0.9,2.2h-1.5c-0.1,0.5-0.1,1-0.1,1.5c0,0.5,0.1,1,0.1,1.5L260.3,76.5z"/>
<path d="M268.7,75c0,2.3-3.5,2.3-3.5,0C265.2,72.7,268.7,72.7,268.7,75"/>
<path d="M283.6,78.1c2,0,3.6,1.6,3.6,3.6c0,2-1.6,3.6-3.6,3.6s-3.6-1.6-3.6-3.6C280,79.7,281.6,78.1,283.6,78.1z M277,83.2
	c0.2,0.8,0.5,1.5,0.9,2.2l-1.1,1.1c0.6,0.8,1.3,1.5,2.1,2.1l1.1-1.1c0.7,0.4,1.4,0.7,2.2,0.9v1.5c0.5,0.1,1,0.1,1.5,0.1
	c0.5,0,1-0.1,1.5-0.1v-1.5c0.8-0.2,1.5-0.5,2.2-0.9l1.1,1.1c0.8-0.6,1.5-1.3,2.1-2.1l-1.1-1.1c0.4-0.7,0.7-1.4,0.9-2.2h1.5
	c0.1-0.5,0.1-1,0.1-1.5c0-0.5-0.1-1-0.1-1.5h-1.5c-0.2-0.8-0.5-1.5-0.9-2.2l1.1-1.1c-0.6-0.8-1.3-1.5-2.1-2.1l-1.1,1.1
	c-0.7-0.4-1.4-0.7-2.2-0.9l0-1.5c-0.5-0.1-1-0.1-1.5-0.1c-0.5,0-1,0.1-1.5,0.1v1.5c-0.8,0.2-1.5,0.5-2.2,0.9l-1.1-1.1
	c-0.8,0.6-1.5,1.3-2.1,2.1l1.1,1.1c-0.4,0.7-0.7,1.4-0.9,2.2h-1.5c-0.1,0.5-0.1,1-0.1,1.5c0,0.5,0.1,1,0.1,1.5L277,83.2z"/>
<path d="M285.4,81.7c0,2.3-3.5,2.3-3.5,0C281.9,79.4,285.4,79.4,285.4,81.7"/>
<path d="M284.6,136.3l-1.4,1.1l-2.3-1.3l-3,2.4l-1.8-2.1l4.3-7.5L284.6,136.3z M280.6,146.6l0.4,0.6h11.4l-12-20.8l-5.7,9.9
	L280.6,146.6z"/>
<path d="M273,138l-1.2,1l-2-1.1l-2.5,2l-1.6-1.7l3.6-6.3L273,138z M269.4,129.7l-10.1,17.5h20.2L269.4,129.7z"/>
<path d="M191.8,77.2c1.3,0,2.3,1,2.3,2.3s-1,2.3-2.3,2.3c-1.3,0-2.3-1-2.3-2.3S190.5,77.2,191.8,77.2z M198.6,84.6v1.3h-6.7v-1.3
	H198.6z M198.7,77.2c1.3,0,2.3,1,2.3,2.3s-1,2.3-2.3,2.3s-2.3-1-2.3-2.3S197.4,77.2,198.7,77.2z M187.2,88.7h16v-5h2.8v-6.1h-2.8
	v-4.8h-7.1v-1.5c0.8-0.3,1.3-1.1,1.3-2c0-1.2-1-2.2-2.2-2.2s-2.2,1-2.2,2.2c0,0.9,0.5,1.6,1.3,2v1.5h-7.1v4.8h-2.8v6.1h2.8
	L187.2,88.7z"/>
<path d="M375.4,84.9c-0.2,0.2-0.4,0.4-0.7,0.5c-0.6,0.1-1.3-0.3-1.4-0.9c-0.5-2.4-0.7-4.8-0.6-7.3c0-0.7,0.6-1.2,1.2-1.1
	c0.7,0,1.2,0.6,1.1,1.2c-0.1,2.2,0.1,4.5,0.5,6.7C375.7,84.3,375.6,84.6,375.4,84.9L375.4,84.9z"/>
<text transform="matrix(1 0 0 1 166.5643 105.3422)" font-family="'ArialMT'" font-size="10px">Blockbuster</text>
<text transform="matrix(1 0 0 1 145.8035 217.3937)" font-family="'ArialMT'" font-size="10px">Blackberry</text>
<text transform="matrix(0.9995 -3.024000e-02 3.024000e-02 0.9995 196.0172 195.9696)" font-family="'ArialMT'" font-size="10px">Radio Shack</text>
<text transform="matrix(1 0 0 1 256.9892 163.3422)" font-family="'ArialMT'" font-size="10px">Borders</text>
<path d="M429.2,222.6c0,6.5-9.8,6.5-9.8,0C419.4,216.1,429.2,216.1,429.2,222.6"/>
<path d="M476.5,265.4c1.5-0.5,4.5-0.7,1.1-2.1c-3.5-1.4-6.5-4.1-5.1-4c1.3,0.2,1.7,2.9,2.7,0c1-2.9-2.4-14.6-6.2-15.6
	s-4.8-3.1-6-4.6s-2.8,2.2-4,1.2s-1-4-3.4-2.2c-2.4,1.8-2.2,5.4-4,3.6c-1.7-1.8-2.4-1.6-2.9-0.8c-0.5,0.9-1.2,1.7-2.1,1.9
	s-5.7,0.4-2.4,1.9c3.3,1.5,14.1,7.2,16,10.3c1.9,3.1,5.5,12.2,5.5,12.2c1.4,4,14.3,4.1,11.5,0c-0.6-1-1.1-1.5-1.4-1.9
	C476,265.5,476.2,265.5,476.5,265.4L476.5,265.4z"/>
<path d="M462.4,262.1v5.7c0,0.6,0.5,1.1,1.1,1.1h2c-0.3-0.4-0.6-0.8-0.8-1.2C464.7,267.6,463.6,265,462.4,262.1L462.4,262.1z"/>
<path d="M411.2,243.8c0.2-0.2,0.3-0.5,0.4-0.8c1.1-6.3-6.6,1.8-15.5-6.9c-0.6-0.6-1-0.3-1.2,0.5v6.4c0.4,0.1,1.7,0.4,3.3,0.7
	L411.2,243.8z"/>
<path d="M418.9,236.1v3.9l-1.1-1.2L418.9,236.1z M429.8,234.8l1.7,4l-1.7,1.8V234.8z M443.7,245.8c-0.3-0.2-1-0.5-1.4-0.9l-5.8,0
	h-2.1l0.2-1c0.1-0.8-0.2-1.7-0.7-2.4c0.7-0.8,0.6-1.6,0.5-1.9l-1.9-9.7c-0.7-1.8-2.2-2.1-2.9-1.9l-1.5,0.4c0,0,0,0-0.1,0
	c-1,0-2.3,0.3-3.7,0.3c-1.2,0-2.2-0.2-3.1-0.3c0,0-0.1,0-0.1-0.1l-1.5-0.4c-0.7-0.2-2.2,0.1-2.9,1.9l-1.9,9.7
	c-0.1,0.3-0.1,0.9,0.3,1.5c-0.7,0.8-1.1,1.9-1,2.8l0.2,1h-1.9l-18.5,0l0-16.7c0-0.6-0.5-1.1-1.1-1.1h-2.4c-0.6,0-1.1,0.5-1.1,1.1
	v39.6c0,0.6,0.5,1.1,1.1,1.1h2.4c0.6,0,1.1-0.5,1.1-1.1v-17.2c0-0.6,0.5-1.1,1.1-1.1h20l2.7,16.6c0.2,1.4,0.8,3.5,2.2,3.3
	c1.4-0.2,1.6-1.6,1.4-3l-0.5-16.9h7.4l-0.5,16.9c-0.2,1.4,0,2.8,1.4,3c1.4,0.2,2-1.9,2.2-3.3l2.7-16.6h17.2
	C448.1,247.9,445.4,246.5,443.7,245.8L443.7,245.8z"/>
<path fill="#EAEAEA" d="M523,173.2h-78.2c-6.6,0-12,5.4-12,12v0.1c0,4,2,7.5,4.9,9.7c-1.8,10-8.2,23.9-8.2,23.9
	c3.1-7.6,12.6-9.9,22.1-19.8c0.6-0.6,1.2-1.3,1.8-1.9H523c6.6,0,12-5.4,12-12v-0.1C535,178.6,529.6,173.2,523,173.2z"/>
<text transform="matrix(1 0 0 1 438.1717 189.0733)" font-family="'ArialMT'" font-size="11px">“what happened?”</text>
<path d="M414.9,53c0,0.1-0.1,0.2-0.1,0.2c-0.3,0.4-0.9,0.6-1.4,0.4c-2.1-0.9-4.2-1.5-6.5-1.9c-0.6-0.1-1.1-0.7-1-1.4
	c0.1-0.6,0.7-1.1,1.4-1c2.4,0.4,4.8,1.1,7,2C414.8,51.7,415.1,52.4,414.9,53L414.9,53z"/>
<path d="M392.8,50.6c2.3-0.8,4.7-1.3,7.2-1.5c0.7-0.1,1.2,0.4,1.3,1.1c0,0.3-0.1,0.6-0.2,0.8c-0.2,0.3-0.5,0.4-0.9,0.5
	c-2.2,0.2-4.5,0.6-6.6,1.3c-0.6,0.2-1.3-0.1-1.5-0.8C391.8,51.4,392.1,50.8,392.8,50.6L392.8,50.6z"/>
<path d="M381.7,96.2c0.4,0.4,0.3,1,0,1.5c-0.1,0.1-0.1,0.1-0.2,0.2c-0.5,0.4-1.3,0.3-1.7-0.2c-1.5-1.9-2.9-4-3.9-6.2
	c-0.3-0.6,0-1.3,0.6-1.6c0.6-0.3,1.3,0,1.6,0.6C379.1,92.6,380.3,94.5,381.7,96.2L381.7,96.2z"/>
<path d="M381.5,60c-0.5-0.5-0.5-1.2,0-1.7c1.7-1.8,3.6-3.3,5.7-4.6c0.6-0.3,1.3-0.2,1.6,0.4c0.3,0.4,0.2,1-0.1,1.3
	c-0.1,0.1-0.2,0.2-0.3,0.3c-1.9,1.2-3.7,2.6-5.2,4.3C382.8,60.4,382,60.4,381.5,60L381.5,60z"/>
<path d="M379.2,64.6c-1.1,1.9-2,4-2.6,6.2c0,0.1-0.1,0.3-0.2,0.4c-0.3,0.4-0.8,0.6-1.3,0.4c-0.6-0.2-1-0.8-0.8-1.5
	c0.7-2.3,1.6-4.6,2.9-6.7c0.3-0.6,1.1-0.8,1.6-0.4C379.3,63.3,379.5,64.1,379.2,64.6L379.2,64.6z"/>
<path d="M420.1,57c-0.5-0.4-0.6-1.1-0.2-1.7l0,0c0.4-0.5,1.1-0.6,1.6-0.2c1.2,0.9,2.3,1.9,3.3,2.9l3.7-5l0.4,10.1l-9,1.3l3.4-4.6
	C422.4,58.9,421.3,57.9,420.1,57L420.1,57z"/>
<path d="M397.6,107.2c0.1-0.6,0.7-1.1,1.4-1c2.2,0.4,4.5,0.4,6.7,0.3c0.7-0.1,1.2,0.4,1.3,1.1c0,0.3-0.1,0.6-0.2,0.8
	c-0.2,0.3-0.5,0.4-0.9,0.5c-2.4,0.2-4.9,0.1-7.3-0.3C397.9,108.4,397.5,107.8,397.6,107.2L397.6,107.2z"/>
<path d="M423.7,98c0.8-0.8,1.7-1.6,2.3-2.5c0,0,0,0,0,0c0.7-0.9,1.1-1.9,1.7-2.9c0.3-0.6,0.9-0.9,1.5-0.5c0.6,0.3,0.8,1.1,0.5,1.6
	c-0.6,1-1.2,2.1-2,3.1c0,0,0,0,0,0c-0.7,1-1.5,1.9-2.4,2.8c-0.5,0.5-1.2,0.5-1.7,0C423.2,99.2,423.2,98.5,423.7,98L423.7,98z"/>
<path d="M385.6,102.3l-0.1-0.1c-0.5-0.4-0.7-1-0.3-1.6c0.4-0.5,1.1-0.5,1.6-0.1l0.1,0.1c1.8,1.4,3.6,2.7,5.7,3.5
	c0.6,0.3,0.8,1.1,0.5,1.7c0,0.1-0.1,0.2-0.1,0.3c-0.3,0.4-0.7,0.3-1.2,0.1C389.5,105.3,387.6,103.8,385.6,102.3L385.6,102.3z"/>
<path d="M412.3,105.1c2.1-0.7,4.2-1.7,6.1-2.9c0.6-0.4,1.3-0.2,1.6,0.4c0.3,0.4,0.2,1-0.1,1.3c-0.1,0.1-0.2,0.2-0.3,0.3
	c-2.1,1.3-4.3,2.4-6.6,3.1c-0.6,0.2-1.3-0.1-1.5-0.7C411.3,106,411.6,105.3,412.3,105.1L412.3,105.1z"/>
<path d="M404.1,73V62.2c0-0.7-0.4-1.2-1-1.2c-0.7,0-1,0.5-1,1.2v10.9c0-0.1,0.8-0.2,1.2-0.2C403.5,72.9,403.4,72.9,404.1,73
	L404.1,73z"/>
<path d="M423.6,76.2h-16.2c0.1,0.7,0.1,0.9,0.1,1.2c0,0.5-0.1,0.9-0.2,1.6h16.3c0.7,0,1.2-0.7,1.2-1.4
	C424.8,77,424.2,76.2,423.6,76.2L423.6,76.2z"/>
<path d="M405.6,76.4c-0.3-0.7-0.9-1.3-1.6-1.6c-0.3-0.1-0.6-0.2-1-0.2c-0.5,0-1,0.1-1.4,0.4c-0.8,0.5-1.4,1.4-1.4,2.4
	c0,1.5,1.2,2.8,2.8,2.8c1,0,1.9-0.6,2.4-1.4c0.2-0.4,0.4-0.9,0.4-1.4C405.8,77.1,405.7,76.7,405.6,76.4L405.6,76.4z"/>
<text transform="matrix(1 0 0 1 378.9085 130.4142)"><tspan x="0" y="0" font-family="'ArialMT'" font-size="12px">tomorrow’s </tspan><tspan x="0" y="14.4" font-family="'ArialMT'" font-size="12px">market</tspan></text>
<path d="M494.1,44.2c0-1.9,1.6-3.5,3.6-3.5c2,0,3.6,1.6,3.6,3.5s-1.6,3.5-3.6,3.5C495.7,47.7,494.1,46.1,494.1,44.2z M502.8,44.2
	c0-2.8-2.3-5.2-5.2-5.2s-5.2,2.3-5.2,5.2c0,2.8,2.3,5.2,5.2,5.2S502.8,47,502.8,44.2z"/>
<path d="M475.6,52.2c0-0.9,0.4-1.8,1-2.5c0.7-0.7,1.6-1,2.5-1h0c0.9,0,1.8,0.4,2.5,1c0.7,0.7,1,1.6,1,2.5c0,0.9-0.4,1.8-1,2.5
	c-0.7,0.7-1.6,1-2.5,1h0c-0.9,0-1.8-0.4-2.5-1C476,54,475.6,53.1,475.6,52.2z M479.2,57.3c1.4,0,2.7-0.5,3.7-1.5
	c1-1,1.5-2.3,1.5-3.7c0-1.4-0.5-2.7-1.5-3.6c-1-1-2.3-1.5-3.6-1.5h0c-1.4,0-2.7,0.5-3.7,1.5c-1,1-1.5,2.3-1.5,3.7
	c0,1.4,0.5,2.7,1.5,3.6C476.5,56.8,477.8,57.3,479.2,57.3L479.2,57.3z"/>
<path d="M461.2,73c1.9,0,3.5,1.6,3.5,3.6c0,2-1.6,3.6-3.5,3.6c-1.9,0-3.5-1.6-3.5-3.6C457.6,74.6,459.2,73,461.2,73z M461.2,81.7
	c2.8,0,5.2-2.3,5.2-5.2s-2.3-5.2-5.2-5.2c-2.8,0-5.2,2.3-5.2,5.2S458.3,81.7,461.2,81.7z"/>
<path d="M466.7,93.4c0.7-0.7,1.5-1,2.5-1h0c0.9,0,1.8,0.4,2.5,1c0.7,0.7,1,1.6,1,2.5c0,0.9-0.4,1.8-1,2.5c-0.7,0.7-1.5,1-2.5,1h0
	c-0.9,0-1.8-0.4-2.5-1c-0.7-0.7-1-1.6-1-2.5C465.6,94.9,466,94,466.7,93.4z M464,95.9c0,1.4,0.5,2.7,1.5,3.7c1,1,2.3,1.5,3.7,1.5h0
	c1.4,0,2.7-0.5,3.6-1.5c1-1,1.5-2.3,1.5-3.6c0-1.4-0.5-2.7-1.5-3.7c-1-1-2.3-1.5-3.7-1.5h0c-1.4,0-2.7,0.5-3.6,1.5
	C464.5,93.2,464,94.5,464,95.9z"/>
<path d="M488.5,107.4c-2,0-3.6-1.6-3.6-3.5c0-1.9,1.6-3.5,3.6-3.5s3.6,1.6,3.6,3.5C492.1,105.8,490.5,107.4,488.5,107.4z
	 M488.5,98.7c-2.9,0-5.2,2.3-5.2,5.2c0,2.8,2.3,5.2,5.2,5.2s5.2-2.3,5.2-5.2C493.7,101,491.4,98.7,488.5,98.7z"/>
<path d="M511.4,95.9c0,0.9-0.4,1.8-1,2.5c-0.7,0.7-1.6,1-2.5,1h0c-0.9,0-1.8-0.4-2.5-1c-0.7-0.7-1-1.6-1-2.5c0-0.9,0.4-1.8,1-2.5
	c0.7-0.7,1.6-1,2.5-1h0c0.9,0,1.8,0.4,2.5,1C511,94,511.4,94.9,511.4,95.9z M507.9,90.7c-1.4,0-2.7,0.5-3.7,1.5s-1.5,2.3-1.5,3.7
	c0,1.4,0.5,2.7,1.5,3.6c1,1,2.3,1.5,3.6,1.5h0c1.4,0,2.7-0.5,3.7-1.5c1-1,1.5-2.3,1.5-3.7c0-1.4-0.5-2.7-1.5-3.6
	C510.6,91.2,509.3,90.7,507.9,90.7L507.9,90.7z"/>
<path d="M517.7,80.1c-1.9,0-3.5-1.6-3.5-3.6s1.6-3.6,3.5-3.6c1.9,0,3.5,1.6,3.5,3.6S519.6,80.1,517.7,80.1z M517.7,71.3
	c-2.8,0-5.2,2.3-5.2,5.2c0,2.9,2.3,5.2,5.2,5.2s5.2-2.3,5.2-5.2C522.8,73.7,520.5,71.3,517.7,71.3z"/>
<path d="M520.4,54.7c-0.7,0.7-1.5,1-2.5,1h0c-0.9,0-1.8-0.4-2.5-1c-0.7-0.7-1-1.6-1-2.5c0-0.9,0.4-1.8,1-2.5c0.7-0.7,1.5-1,2.5-1h0
	c0.9,0,1.8,0.4,2.5,1c0.7,0.7,1,1.6,1,2.5C521.4,53.1,521,54,520.4,54.7z M523,52.2c0-1.4-0.5-2.7-1.5-3.7c-1-1-2.3-1.5-3.7-1.5h0
	c-1.4,0-2.7,0.5-3.6,1.5c-1,1-1.5,2.3-1.5,3.6c0,1.4,0.5,2.7,1.5,3.7c1,1,2.3,1.5,3.7,1.5h0c1.4,0,2.7-0.5,3.6-1.5
	C522.5,54.9,523,53.6,523,52.2z"/>
<path d="M511.7,48c0.2-0.4,0.1-0.9-0.3-1.1c-1.8-1-3.7-1.8-5.7-2.4c-0.4-0.1-0.9,0.1-1,0.5c-0.1,0.4,0.1,0.9,0.5,1
	c1.8,0.6,3.6,1.3,5.3,2.2c0.1,0.1,0.3,0.1,0.4,0.1C511.2,48.4,511.5,48.3,511.7,48L511.7,48z"/>
<path d="M490,44.4c-2,0.6-3.9,1.3-5.7,2.3c-0.4,0.2-0.5,0.7-0.3,1.1c0.1,0.3,0.4,0.4,0.7,0.4c0.1,0,0.3,0,0.4-0.1
	c1.7-0.9,3.5-1.7,5.4-2.2c0.4-0.1,0.7-0.6,0.6-1S490.4,44.3,490,44.4L490,44.4z"/>
<path d="M475.1,57.4c-0.4-0.2-0.9-0.1-1.1,0.3c-1,1.8-1.8,3.7-2.4,5.7c-0.1,0.4,0.1,0.9,0.5,1c0.1,0,0.2,0,0.2,0
	c0.3,0,0.7-0.2,0.8-0.6c0.6-1.8,1.3-3.6,2.2-5.3C475.6,58.1,475.5,57.6,475.1,57.4L475.1,57.4z"/>
<path d="M463,83.6c-0.1-0.4-0.6-0.7-1-0.6c-0.4,0.1-0.7,0.6-0.6,1c0.6,2,1.3,3.9,2.3,5.7c0.1,0.3,0.4,0.4,0.7,0.4
	c0.1,0,0.3,0,0.4-0.1c0.4-0.2,0.5-0.7,0.3-1.1C464.3,87.3,463.6,85.5,463,83.6L463,83.6z"/>
<path d="M474.5,99.8c-0.2,0.4-0.1,0.9,0.3,1.1c1.8,1,3.7,1.8,5.7,2.4c0.1,0,0.2,0,0.2,0c0.3,0,0.7-0.2,0.8-0.6
	c0.1-0.4-0.1-0.9-0.5-1c-1.8-0.6-3.6-1.3-5.3-2.2C475.2,99.3,474.7,99.4,474.5,99.8L474.5,99.8z"/>
<path d="M501.1,99.7c-1.7,0.9-3.5,1.7-5.4,2.2c-0.4,0.1-0.7,0.6-0.6,1c0.1,0.4,0.4,0.6,0.8,0.6c0.1,0,0.1,0,0.2,0
	c2-0.6,3.9-1.3,5.7-2.3c0.4-0.2,0.5-0.7,0.3-1.1C502,99.6,501.5,99.5,501.1,99.7L501.1,99.7z"/>
<path d="M516.7,83.5c-0.4-0.1-0.9,0.1-1,0.5c-0.6,1.8-1.3,3.6-2.2,5.3c-0.2,0.4-0.1,0.9,0.3,1.1c0.1,0.1,0.3,0.1,0.4,0.1
	c0.3,0,0.6-0.1,0.7-0.4c1-1.8,1.8-3.7,2.4-5.7C517.3,84,517.1,83.6,516.7,83.5L516.7,83.5z"/>
<path d="M525.8,64.2c0.1,0.4,0.4,0.6,0.8,0.6c0.1,0,0.1,0,0.2,0c0.4-0.1,0.7-0.6,0.6-1c-0.6-2-1.3-3.9-2.3-5.7
	c-0.2-0.4-0.7-0.5-1.1-0.3c-0.4,0.2-0.5,0.7-0.3,1.1C524.5,60.6,525.3,62.4,525.8,64.2L525.8,64.2z"/>
<path d="M488,62.5c2.3-0.1,4.6,0.7,6.2,2.2c1.7,1.6,2.6,3.8,2.6,6.1c0,2.1-0.8,4.1-2.2,5.7c-1.5,1.6-2.3,3.6-2.5,5.8h-7.2
	c-0.2-2.2-1-4.3-2.5-5.8c-1.5-1.6-2.3-3.8-2.2-6C480.3,66.3,483.8,62.8,488,62.5L488,62.5z M490.1,90.7H487c-0.6,0-1.1-0.5-1.1-1.1
	v-0.8h5.2v0.8C491.2,90.2,490.7,90.7,490.1,90.7L490.1,90.7z M492.7,84v2.9c0,0.1-0.1,0.2-0.2,0.2h-7.8c-0.1,0-0.2-0.1-0.2-0.2V84
	H492.7z M478.6,70.4c-0.1,2.7,0.9,5.2,2.7,7.2c1.2,1.3,1.9,2.9,2.1,4.8c-0.3,0.1-0.6,0.4-0.6,0.8v3.7c0,0.9,0.7,1.7,1.6,1.8v0.9
	c0,1.5,1.2,2.7,2.7,2.7h3.1c1.5,0,2.7-1.2,2.7-2.7v-0.9c0.8-0.2,1.5-0.9,1.5-1.8v-3.7c0-0.4-0.2-0.7-0.6-0.8
	c0.2-1.8,0.9-3.5,2.1-4.8c1.7-1.8,2.7-4.3,2.7-6.8c0-2.7-1.1-5.4-3.1-7.3c-2-1.9-4.7-2.9-7.5-2.7C482.9,61.2,478.8,65.4,478.6,70.4
	L478.6,70.4z"/>
<text transform="matrix(1 0 0 1 462.2455 129.4144)"><tspan x="0" y="0" font-family="'ArialMT'" font-size="12px">continuous</tspan><tspan x="0" y="14.4" font-family="'ArialMT'" font-size="12px">innovation</tspan></text>
<g>
	<path fill="none" stroke="#000000" stroke-width="0.8794" stroke-miterlimit="10" d="M347.9,47.9c-4.6,0.2-7.5,4.9-8.9,9.3
		c-4,12.5-1.9,26.3-4.9,39.1c-1.5,6.6-5.6,13.9-12.3,14.5"/>
	<path fill="none" stroke="#000000" stroke-width="0.9337" stroke-miterlimit="10" d="M347.9,181.9c-4.6-0.2-7.5-5.6-8.9-10.5
		c-4-14.1-1.9-29.6-4.9-44.1c-1.5-7.5-5.6-15.7-12.3-16.4"/>
</g>
</svg>
