<?xml version="1.0" encoding="utf-8"?>
<!-- Generator: Adobe Illustrator 23.0.3, SVG Export Plug-In . SVG Version: 6.00 Build 0)  -->
<svg version="1.1" id="Layer_1" xmlns="http://www.w3.org/2000/svg" xmlns:xlink="http://www.w3.org/1999/xlink" x="0px" y="0px"
	 viewBox="0 0 600 350" enable-background="new 0 0 600 350" xml:space="preserve">
<rect x="-0.8" y="44" fill="none" width="600" height="45.9"/>
<text transform="matrix(1 0 0 1 83.7942 65.4879)" font-family="'ArialMT'" font-size="25px">BLS data about TW and SD job growth</text>
<path fill="#CB7B76" d="M100.3,226.1v12.4c0,0.6-2.1,1-4.7,1h-9.4c-2.6,0-4.7-0.5-4.7-1v-12.4c0-0.6,2.1-1,4.7-1h9.4
	C98.2,225.1,100.3,225.5,100.3,226.1z"/>
<path fill="#CB7B76" d="M125.1,225.4v13.3c0,0.4-2.1,0.8-4.7,0.8H111c-2.6,0-4.7-0.4-4.7-0.8v-13.3c0-0.4,2.1-0.8,4.7-0.8h9.4
	C123,224.6,125.1,224.9,125.1,225.4z"/>
<path fill="#C16060" d="M149.9,224.7v14.1c0,0.4-2.1,0.6-4.7,0.6h-9.4c-2.6,0-4.7-0.3-4.7-0.6v-14.1c0-0.4,2.1-0.6,4.7-0.6h9.4
	C147.8,224.1,149.9,224.4,149.9,224.7z"/>
<path fill="#CB7B76" d="M75.4,227.6v10.5c0,0.7-2.1,1.4-4.7,1.4h-9.4c-2.6,0-4.7-0.6-4.7-1.4v-10.5c0-0.7,2.1-1.4,4.7-1.4h9.4
	C73.3,226.3,75.4,226.9,75.4,227.6z"/>
<line stroke="#050505" stroke-miterlimit="10" x1="50.1" y1="246.1" x2="50.1" y2="140.5"/>
<rect x="54.7" y="209.8" fill="none" width="24.2" height="17"/>
<text transform="matrix(1 0 0 1 54.7399 220.13)" font-family="'ArialMT'" font-size="12px">50k</text>
<rect x="130.8" y="207.8" fill="none" width="22.1" height="17"/>
<text transform="matrix(1 0 0 1 130.7504 218.1301)" font-family="'ArialMT'" font-size="12px">52k</text>
<text transform="matrix(1 0 0 1 44.6928 120.7284)" font-family="'ArialMT'" font-size="13px">Technical Writer Jobs</text>
<g>
	<rect x="50.2" y="253.3" fill="none" width="31.8" height="17"/>
	<text transform="matrix(1 0 0 1 50.1981 264.4546)" font-family="'ArialMT'" font-size="13px">2010</text>
</g>
<g>
	<rect x="125.6" y="253.3" fill="none" width="29.8" height="17"/>
	<text transform="matrix(1 0 0 1 125.6412 264.4546)" font-family="'ArialMT'" font-size="13px">2016</text>
</g>
<line fill="none" stroke="#050505" stroke-miterlimit="10" x1="50.1" y1="246.1" x2="152.8" y2="246.1"/>
<text transform="matrix(1 0 0 1 348.5448 117.6954)"><tspan x="0" y="0" font-family="'ArialMT'" font-size="13px">2016-2026 growth </tspan><tspan x="0" y="15.6" font-family="'ArialMT'" font-size="13px">projections</tspan></text>
<path fill="#5E5F61" d="M351.6,221.2h21.6v23.1h-21.6V221.2z M350.5,246h23.6c0.6,0,1-0.4,1-0.8v-24.8c0-0.5-0.5-0.8-1-0.8h-23.6
	c-0.6,0-1,0.4-1,0.8v24.8C349.5,245.6,350,246,350.5,246z"/>
<path fill="#5E5F61" d="M383.4,209.4h22.9l0,34.7h-22.9L383.4,209.4z M381.1,245c0,0.5,0.5,0.9,1.1,0.9h25.1c0.6,0,1.1-0.4,1.1-0.9
	l0-36.6c0-0.5-0.5-0.9-1.1-0.9h-25.1c-0.6,0-1.1,0.4-1.1,0.9L381.1,245z"/>
<path fill="#5E5F61" d="M438.3,243.2H415v-65.6h23.3V243.2z M439.4,174.9h-25.6c-0.6,0-1.1,0.6-1.1,1.4v68.3c0,0.8,0.5,1.4,1.1,1.4
	h25.6c0.6,0,1.1-0.6,1.1-1.4v-68.3C440.6,175.5,440.1,174.9,439.4,174.9z"/>
<path fill="#5E5F61" d="M372.2,202.3c0,2.5-0.9,4.8-2.4,6.6c-0.5-2.1-1.9-3.9-3.7-5c1-1,1.6-2.4,1.6-3.9c0-3.1-2.5-5.7-5.7-5.7
	s-5.7,2.5-5.7,5.7c0,1.4,0.6,2.8,1.5,3.8c-2,1.1-3.4,3-3.9,5.1c-1.5-1.8-2.4-4.1-2.4-6.6c0-5.7,4.6-10.3,10.3-10.3
	C367.6,192,372.2,196.6,372.2,202.3L372.2,202.3z M355.7,210.6c0.1-2.6,1.8-4.8,4.3-5.6c0.4-0.1,0.7-0.5,0.7-0.9
	c0-0.4-0.2-0.8-0.5-1c-1.2-0.6-1.9-1.9-1.9-3.2c0-2,1.6-3.7,3.7-3.7c2,0,3.7,1.6,3.7,3.7c0,1.4-0.8,2.6-2,3.3
	c-0.4,0.2-0.6,0.6-0.5,1c0,0.4,0.3,0.7,0.7,0.9c2.4,0.8,4.1,3,4.2,5.5c-1.7,1.3-3.8,2-6.1,2C359.6,212.6,357.5,211.9,355.7,210.6
	L355.7,210.6z M349.5,202.3c0,6.8,5.5,12.3,12.3,12.3s12.3-5.5,12.3-12.3c0-6.8-5.5-12.3-12.3-12.3
	C355.1,190,349.5,195.5,349.5,202.3z"/>
<path fill="#5E5F61" d="M394.5,182c5.7,0,10.3,4.6,10.3,10.3c0,2.5-0.9,4.8-2.4,6.6c-0.5-2.1-1.9-3.9-3.7-5c1-1,1.6-2.4,1.6-3.9
	c0-3.1-2.5-5.7-5.7-5.7s-5.7,2.5-5.7,5.7c0,1.4,0.6,2.8,1.5,3.8c-2,1.1-3.4,3-3.9,5.1c-1.5-1.8-2.4-4.1-2.4-6.6
	C384.2,186.6,388.8,182,394.5,182L394.5,182z M388.4,200.6c0.1-2.6,1.8-4.8,4.3-5.6c0.4-0.1,0.7-0.5,0.7-0.9c0-0.4-0.2-0.8-0.5-1
	c-1.2-0.6-1.9-1.9-1.9-3.2c0-2,1.6-3.7,3.7-3.7c2,0,3.7,1.6,3.7,3.7c0,1.4-0.8,2.6-2,3.3c-0.4,0.2-0.6,0.6-0.5,1
	c0,0.4,0.3,0.7,0.7,0.9c2.4,0.8,4.1,3,4.2,5.5c-1.7,1.3-3.8,2-6.1,2C392.2,202.6,390.1,201.9,388.4,200.6L388.4,200.6z M394.5,204.6
	c6.8,0,12.3-5.5,12.3-12.3c0-6.8-5.5-12.3-12.3-12.3c-6.8,0-12.3,5.5-12.3,12.3C382.2,199.1,387.7,204.6,394.5,204.6z"/>
<path fill="#5E5F61" d="M426.1,149.6c5.7,0,10.3,4.6,10.3,10.3c0,2.5-0.9,4.8-2.4,6.6c-0.5-2.1-1.9-3.9-3.7-5c1-1,1.6-2.4,1.6-3.9
	c0-3.1-2.5-5.7-5.7-5.7c-3.1,0-5.7,2.5-5.7,5.7c0,1.4,0.6,2.8,1.5,3.8c-2,1.1-3.4,3-3.9,5.1c-1.5-1.8-2.4-4.1-2.4-6.6
	C415.8,154.2,420.4,149.6,426.1,149.6L426.1,149.6z M420,168.2c0.1-2.6,1.8-4.8,4.3-5.6c0.4-0.1,0.7-0.5,0.7-0.9
	c0-0.4-0.2-0.8-0.5-1c-1.2-0.6-1.9-1.9-1.9-3.2c0-2,1.6-3.7,3.7-3.7c2,0,3.7,1.6,3.7,3.7c0,1.4-0.8,2.6-2,3.3
	c-0.4,0.2-0.6,0.6-0.5,1c0,0.4,0.3,0.7,0.7,0.9c2.4,0.8,4.1,3,4.2,5.5c-1.7,1.3-3.8,2-6.1,2C423.8,170.3,421.7,169.5,420,168.2
	L420,168.2z M426.1,172.3c6.8,0,12.3-5.5,12.3-12.3c0-6.8-5.5-12.3-12.3-12.3c-6.8,0-12.3,5.5-12.3,12.3S419.3,172.3,426.1,172.3z"
	/>
<text transform="matrix(1 0 0 1 350.8695 263.2636)" font-family="'ArialMT'" font-size="13px">Avg</text>
<text transform="matrix(1 0 0 1 384.1776 263.2637)" font-family="'ArialMT'" font-size="13px">TW</text>
<text transform="matrix(1 0 0 1 417.1774 263.2633)" font-family="'ArialMT'" font-size="13px">SD</text>
<g>
	<text transform="matrix(1 0 0 1 417.1779 204.6344)" font-family="'ArialMT'" font-size="10px">24%</text>
</g>
<g>
	<text transform="matrix(1 0 0 1 355.2716 233.7576)" font-family="'ArialMT'" font-size="10px">7%</text>
</g>
<g>
	<text transform="matrix(1 0 0 1 385.1776 226.7575)" font-family="'ArialMT'" font-size="10px">11%</text>
</g>
<rect x="476.9" y="146.9" fill="none" width="86.5" height="280.4"/>
<text transform="matrix(1 0 0 1 476.9418 157.1922)"><tspan x="0" y="0" font-family="'ArialMT'" font-size="12px">“... Job opportu</tspan><tspan x="80.7" y="0" font-family="'ArialMT'" font-size="12px">-</tspan><tspan x="0" y="14.4" font-family="'ArialMT'" font-size="12px">nities, especial</tspan><tspan x="78.7" y="14.4" font-family="'ArialMT'" font-size="12px">-</tspan><tspan x="0" y="28.8" font-family="'ArialMT'" font-size="12px">ly  for appli</tspan><tspan x="58" y="28.8" font-family="'ArialMT'" font-size="12px">-</tspan><tspan x="0" y="43.2" font-family="'ArialMT'" font-size="12px">cants with </tspan><tspan x="0" y="57.6" font-family="'ArialMT'" font-size="12px">technical skills, </tspan><tspan x="0" y="72" font-family="'ArialMT'" font-size="12px">are expected to </tspan><tspan x="0" y="86.4" font-family="'ArialMT'" font-size="12px">be good.” </tspan></text>
<path fill="#8D97CC" d="M243,193.6v42.5c0,1.9-2.1,3.5-4.7,3.5H229c-2.6,0-4.7-1.6-4.7-3.5v-42.5c0-1.9,2.1-3.5,4.7-3.5h9.4
	C240.9,190.1,243,191.7,243,193.6z"/>
<path fill="#6F7FBE" d="M267.8,180.8v55.5c0,1.8-2.1,3.3-4.7,3.3h-9.4c-2.6,0-4.7-1.5-4.7-3.3v-55.5c0-1.8,2.1-3.3,4.7-3.3h9.4
	C265.7,177.5,267.8,178.9,267.8,180.8z"/>
<path fill="#506AB2" d="M292.6,163.8v72.5c0,1.8-2.1,3.3-4.7,3.3h-9.4c-2.6,0-4.7-1.5-4.7-3.3v-72.5c0-1.8,2.1-3.3,4.7-3.3h9.4
	C290.5,160.5,292.6,162,292.6,163.8z"/>
<path fill="#AEB5DB" d="M218.2,205.6v30.1c0,2.2-2.1,3.9-4.7,3.9h-9.4c-2.6,0-4.7-1.8-4.7-3.9v-30.1c0-2.2,2.1-3.9,4.7-3.9h9.4
	C216.1,201.7,218.2,203.4,218.2,205.6z"/>
<line stroke="#050505" stroke-miterlimit="10" x1="192.8" y1="246.2" x2="192.8" y2="140.6"/>
<rect x="196.1" y="183" fill="none" width="31.6" height="17"/>
<text transform="matrix(1 0 0 1 196.1371 193.2788)" font-family="'ArialMT'" font-size="12px">913k</text>
<rect x="265.4" y="142.8" fill="none" width="43.6" height="17"/>
<text transform="matrix(1 0 0 1 265.3961 153.1301)" font-family="'ArialMT'" font-size="12px">1,256k</text>
<text transform="matrix(1 0 0 1 187.4142 120.8207)" font-family="'ArialMT'" font-size="13px">Software Developer Jobs</text>
<g>
	<rect x="192.9" y="253.4" fill="none" width="31.8" height="17"/>
	<text transform="matrix(1 0 0 1 192.9196 264.5468)" font-family="'ArialMT'" font-size="13px">2012</text>
</g>
<g>
	<rect x="268.4" y="253.4" fill="none" width="29.8" height="17"/>
	<text transform="matrix(1 0 0 1 268.3629 264.5468)" font-family="'ArialMT'" font-size="13px">2016</text>
</g>
<line fill="none" stroke="#050505" stroke-miterlimit="10" x1="192.8" y1="246.2" x2="295.5" y2="246.2"/>
<text transform="matrix(1 0 0 1 70.4686 288.9688)" font-family="'ArialMT'" font-size="12px">growth rate: 6%</text>
<text transform="matrix(1 0 0 1 204.2008 288.9688)" font-family="'ArialMT'" font-size="12px">growth rate: 37.5%</text>
<text transform="matrix(1 0 0 1 487.3854 116.9892)" font-family="'ArialMT'" font-size="13px">BLS Advice</text>
<line fill="none" stroke="#A9A8A9" stroke-miterlimit="10" x1="176.6" y1="95.7" x2="176.6" y2="337.5"/>
<line fill="none" stroke="#A9A8A9" stroke-miterlimit="10" x1="336.3" y1="95.7" x2="336.3" y2="337.5"/>
<line fill="none" stroke="#A9A8A9" stroke-miterlimit="10" x1="461.8" y1="95.7" x2="461.8" y2="337.5"/>
</svg>
