<?xml version="1.0" encoding="utf-8"?>
<!-- Generator: Adobe Illustrator 23.0.3, SVG Export Plug-In . SVG Version: 6.00 Build 0)  -->
<svg version="1.1" id="Layer_1" xmlns="http://www.w3.org/2000/svg" xmlns:xlink="http://www.w3.org/1999/xlink" x="0px" y="0px"
	 viewBox="0 0 600 350" enable-background="new 0 0 600 350" xml:space="preserve">
<path d="M119.3,220.3c3.4,0,6.2,2.8,6.2,6.2s-2.8,6.2-6.2,6.2s-6.2-2.8-6.2-6.2S115.9,220.3,119.3,220.3z M202.1,187.2
	c3.4,0,6.2,2.8,6.2,6.2s-2.8,6.2-6.2,6.2s-6.2-2.8-6.2-6.2S198.6,187.2,202.1,187.2z M160.7,162.4c3.4,0,6.2,2.8,6.2,6.2
	s-2.8,6.2-6.2,6.2s-6.2-2.8-6.2-6.2S157.2,162.4,160.7,162.4z M243.4,125.1c3.4,0,6.2,2.8,6.2,6.2c0,3.4-2.8,6.2-6.2,6.2
	s-6.2-2.8-6.2-6.2C237.2,127.9,240,125.1,243.4,125.1z M243.4,121c-5.7,0-10.3,4.7-10.3,10.3c0,2.8,1.1,5.4,3,7.2l-30.2,45.2
	c-1.2-0.5-2.5-0.8-3.8-0.8c-2.9,0-5.5,1.2-7.4,3.1l-24.4-13.9c0.4-1.1,0.7-2.4,0.7-3.7c0-5.7-4.7-10.3-10.3-10.3
	s-10.3,4.7-10.3,10.3c0,2.8,1.1,5.3,2.9,7.2L123.3,217h-0.1c-1.2-0.5-2.5-0.8-3.9-0.8c-5.7,0-10.3,4.7-10.3,10.3
	c0,5.7,4.7,10.3,10.3,10.3s10.3-4.7,10.3-10.3c0-2.8-1.2-5.3-3-7.2l29.9-41.2c1.3,0.5,2.6,0.8,4.1,0.8c2.9,0,5.5-1.2,7.4-3.2
	l24.4,13.9c-0.5,1.2-0.8,2.4-0.8,3.7c0,5.7,4.7,10.3,10.3,10.3c5.7,0,10.3-4.7,10.3-10.3c0-2.8-1.2-5.4-3-7.3l30.1-45.2
	c1.2,0.5,2.5,0.8,3.9,0.8c5.7,0,10.3-4.7,10.3-10.3C253.8,125.7,249.1,121,243.4,121L243.4,121z"/>
<path d="M247,126.4c2.7,2.1,3.1,6,1,8.7c-2.1,2.7-6,3.1-8.7,1c-2.7-2.1-3.1-6-1-8.7C240.4,124.7,244.3,124.2,247,126.4z
	 M332.4,151.8c2.7,2.1,3.1,6,1,8.7c-2.1,2.7-6,3.1-8.7,1c-2.7-2.1-3.1-6-1-8.7C325.8,150.1,329.7,149.7,332.4,151.8z M315.4,106.7
	c2.7,2.1,3.1,6,1,8.7s-6,3.1-8.7,1c-2.7-2.1-3.1-6-1-8.7C308.8,105,312.7,104.6,315.4,106.7z M403.3,128.9c2.7,2.1,3.1,6,1,8.7
	c-2.1,2.7-6,3.1-8.7,1c-2.7-2.1-3.1-6-1-8.7C396.8,127.2,400.6,126.8,403.3,128.9z M405.9,125.7c-4.5-3.5-11-2.8-14.5,1.7
	c-1.7,2.2-2.4,4.9-2.2,7.5l-51.8,16.7c-0.6-1.1-1.4-2.1-2.5-3c-2.3-1.8-5-2.5-7.7-2.1l-10.5-26c1-0.6,2.1-1.4,2.8-2.4
	c3.5-4.5,2.8-11-1.7-14.5c-4.5-3.5-11-2.8-14.5,1.7c-1.7,2.2-2.4,4.8-2.2,7.4l-49.1,13.7l-0.1,0c-0.6-1.2-1.5-2.2-2.6-3.1
	c-4.5-3.5-11-2.8-14.5,1.7c-3.5,4.5-2.8,11,1.7,14.5c4.5,3.5,11,2.8,14.5-1.7c1.7-2.2,2.4-4.9,2.1-7.5l49-13.7
	c0.6,1.2,1.6,2.2,2.7,3.1c2.3,1.8,5.1,2.5,7.8,2.1l10.5,26c-1.1,0.6-2.1,1.4-2.9,2.5c-3.5,4.5-2.8,11,1.7,14.5
	c4.5,3.5,11,2.8,14.5-1.7c1.8-2.2,2.5-5,2.2-7.6l51.7-16.7c0.6,1.2,1.5,2.2,2.6,3.1c4.5,3.5,11,2.8,14.5-1.7
	C411.1,135.8,410.4,129.2,405.9,125.7L405.9,125.7z"/>
<path d="M405.8,134.5c-0.2,3.4-3.1,6.1-6.5,5.9c-3.4-0.2-6.1-3.1-5.9-6.5c0.2-3.4,3.1-6.1,6.5-5.9
	C403.4,128.2,406,131.1,405.8,134.5z M434.6,218.8c-0.2,3.4-3.1,6.1-6.5,5.9c-3.4-0.2-6.1-3.1-5.9-6.5c0.2-3.4,3.1-6.1,6.5-5.9
	C432.2,212.5,434.8,215.4,434.6,218.8z M461.5,178.8c-0.2,3.4-3.1,6.1-6.5,5.9c-3.4-0.2-6.1-3.1-5.9-6.5c0.2-3.4,3.1-6.1,6.5-5.9
	S461.7,175.3,461.5,178.8z M494.4,263.3c-0.2,3.4-3.1,6.1-6.5,5.9c-3.4-0.2-6.1-3.1-5.9-6.5c0.2-3.4,3.1-6.1,6.5-5.9
	C492,257,494.6,259.9,494.4,263.3z M498.6,263.5c0.3-5.7-4.1-10.6-9.8-10.9c-2.8-0.1-5.4,0.9-7.4,2.6l-43.6-32.5
	c0.5-1.2,0.9-2.4,1-3.8c0.1-2.9-0.9-5.5-2.7-7.5l15.1-23.6c1.1,0.5,2.4,0.8,3.6,0.9c5.7,0.3,10.6-4.1,10.9-9.8
	c0.3-5.7-4.1-10.6-9.8-10.9c-2.8-0.1-5.4,0.8-7.3,2.5l-39.6-32l0-0.1c0.6-1.2,1-2.5,1-3.9c0.3-5.7-4.1-10.6-9.8-10.9
	c-5.7-0.3-10.6,4.1-10.9,9.8c-0.3,5.7,4.1,10.6,9.8,10.9c2.8,0.1,5.4-0.9,7.3-2.6l39.6,32c-0.6,1.2-0.9,2.6-1,4
	c-0.1,2.9,0.9,5.6,2.8,7.6l-15.1,23.6c-1.1-0.5-2.4-0.9-3.7-1c-5.7-0.3-10.6,4.1-10.9,9.8c-0.3,5.7,4.1,10.6,9.8,10.9
	c2.8,0.1,5.5-0.9,7.4-2.7l43.6,32.4c-0.6,1.2-0.9,2.5-1,3.9c-0.3,5.7,4.1,10.6,9.8,10.9C493.4,273.6,498.3,269.2,498.6,263.5
	L498.6,263.5z"/>
<text transform="matrix(1 0 0 1 191.219 216.4833)" font-family="'ArialMT'" font-size="12px">wikis </text>
<text transform="matrix(1 0 0 1 244.6142 156.7054)"><tspan x="0" y="0" font-family="'ArialMT'" font-size="12px">social </tspan><tspan x="0.7" y="14.4" font-family="'ArialMT'" font-size="12px">media</tspan></text>
<text transform="matrix(1 0 0 1 376.9238 117.7809)" font-family="'ArialMT'" font-size="12px">chatbots</text>
<text transform="matrix(1 0 0 1 296.4046 79.5445)"><tspan x="0" y="0" font-family="'ArialMT'" font-size="12px">content </tspan><tspan x="0" y="14.4" font-family="'ArialMT'" font-size="12px">strategy</tspan></text>
<text transform="matrix(1 0 0 1 115.3504 132.4252)"><tspan x="0" y="0" font-family="'ArialMT'" font-size="12px">XML &amp; semantic </tspan><tspan x="34.3" y="14.4" font-family="'ArialMT'" font-size="12px">web</tspan></text>
<text transform="matrix(1 0 0 1 91.6573 248.5097)" font-family="'ArialMT'" font-size="12px">pdf     web</text>
<text transform="matrix(1 0 0 1 376.4374 212.2897)"><tspan x="0" y="0" font-family="'ArialMT'" font-size="12px">docs as</tspan><tspan x="7.7" y="14.4" font-family="'ArialMT'" font-size="12px">code</tspan></text>
<text transform="matrix(1 0 0 1 302.5101 181.474)"><tspan x="0" y="0" font-family="'ArialMT'" font-size="12px">YouTube </tspan><tspan x="0" y="14.4" font-family="'ArialMT'" font-size="12px">and video</tspan></text>
<text transform="matrix(1 0 0 1 498.3642 278.3974)" font-family="'ArialMT'" font-size="12px">AI</text>
<text transform="matrix(1 0 0 1 465.7695 168.5627)"><tspan x="0" y="0" font-family="'ArialMT'" font-size="12px">Internet of </tspan><tspan x="10.7" y="14.4" font-family="'ArialMT'" font-size="12px">Things</tspan></text>
<g>
	<g>
		<line fill="none" stroke="#171717" stroke-miterlimit="10" x1="110.8" y1="245.4" x2="121" y2="245.4"/>
		<g>
			<polygon fill="#171717" points="117.7,249.5 117,248.8 120.6,245.4 117,242.1 117.7,241.3 122.1,245.4 			"/>
		</g>
	</g>
</g>
<path d="M310.3,255.6c4,0.5,8.2,0.9,11.2,3.6c3,2.7,4.6,18.5,5.8,18.3c1.2-0.2,7.8-12.2,9.2-13c1.7-0.9,11.6-1.4,11.6-0.5
	c0,0.9-0.1,2.1-0.9,2.4c-1.4,0.4-6.3,1.2-7.3,1.9c-2.1,1.4-10.1,16.7-12.5,17.4c-1.5,0.5-3.4,0.2-4.5-1.4
	c-1.1-1.7-5.2-17.3-5.2-17.3v26.6h-29.4v-26.5c0,0-4.1,15.6-5.2,17.3c-1.1,1.7-3,1.9-4.5,1.4c-2.4-0.8-10.4-16.1-12.5-17.6
	c-1-0.7-6-1.5-7.3-1.9c-0.8-0.2-1-1.4-1-2.3c0-0.9,9.9-0.5,11.6,0.5c1.4,0.8,8,12.8,9.2,13c1.2,0.2,2.8-15.6,5.8-18.3
	c3-2.7,7.2-3.1,11.2-3.6c0,0,2.2,3.1,7.5,3.1C308.3,258.7,310.3,255.6,310.3,255.6L310.3,255.6z"/>
<path d="M309.3,232.4c4.4,4.1,3.1,12.1,2.5,14.7c-0.9,3.9-4.1,9.8-8.8,9.8c-4.7,0-7.9-6-8.7-9.8c-0.5-2.2-2.2-10.2,2.2-14.5
	C299.9,229.2,306.6,229.9,309.3,232.4L309.3,232.4z"/>
<text transform="matrix(1 0 0 1 249.3009 252.7729)" font-family="'ArialMT'" font-size="21px">?</text>
<text transform="matrix(1 0 0 1 295.1837 221.5136)" font-family="'ArialMT'" font-size="21px">?</text>
<text transform="matrix(1 0 0 1 336.1564 252.773)" font-family="'ArialMT'" font-size="21px">?</text>
<g>
	<path d="M87.1,98.2c0,1.7,3.2,3.1,7.2,3.1c4,0,7.2-1.4,7.2-3.1s-3.2-3.1-7.2-3.1C90.3,95.1,87.1,96.5,87.1,98.2"/>
	<path d="M155.6,98.7c0,1.7,3.2,3.2,7.2,3.2c4,0,7.2-1.4,7.2-3.2c0-1.7-3.2-3.1-7.2-3.1C158.9,95.5,155.6,96.9,155.6,98.7"/>
	<path d="M103.5,98.4c0,1.7,3.2,3.2,7.2,3.2c4,0,7.2-1.4,7.2-3.2c0-1.7-3.2-3.1-7.2-3.1C106.7,95.3,103.5,96.7,103.5,98.4"/>
	<path d="M138.8,98.4c0,1.7,3.2,3.2,7.2,3.2s7.2-1.4,7.2-3.2c0-1.7-3.2-3.1-7.2-3.1S138.8,96.7,138.8,98.4"/>
	<path d="M121.3,98.4c0,1.7,3.2,3.2,7.2,3.2c4,0,7.2-1.4,7.2-3.2c0-1.7-3.2-3.1-7.2-3.1C124.5,95.3,121.3,96.7,121.3,98.4"/>
	<path d="M90.4,89.5c0,1.6,2.8,2.8,6.3,2.8c3.5,0,6.3-1.3,6.3-2.8c0-1.6-2.8-2.8-6.3-2.8C93.2,86.7,90.4,88,90.4,89.5"/>
	<path d="M150,89.9c0,1.6,2.8,2.8,6.3,2.8c3.5,0,6.3-1.3,6.3-2.8c0-1.6-2.8-2.8-6.3-2.8C152.8,87.1,150,88.3,150,89.9"/>
	<path d="M104.7,89.7c0,1.6,2.8,2.8,6.3,2.8s6.3-1.3,6.3-2.8c0-1.6-2.8-2.8-6.3-2.8S104.7,88.1,104.7,89.7"/>
	<path d="M135.3,89.7c0,1.6,2.8,2.8,6.3,2.8s6.3-1.3,6.3-2.8c0-1.6-2.8-2.8-6.3-2.8S135.3,88.1,135.3,89.7"/>
	<path d="M120.1,89.7c0,1.6,2.8,2.8,6.3,2.8c3.5,0,6.3-1.3,6.3-2.8c0-1.6-2.8-2.8-6.3-2.8C123,86.9,120.1,88.1,120.1,89.7"/>
	<path d="M94.3,82.6c0,1,2.4,1.9,5.3,1.9s5.3-0.8,5.3-1.9c0-1-2.4-1.9-5.3-1.9C96.7,80.7,94.3,81.5,94.3,82.6"/>
	<path d="M144.9,82.8c0,1,2.4,1.9,5.3,1.9c2.9,0,5.3-0.8,5.3-1.9c0-1-2.4-1.9-5.3-1.9C147.3,80.9,144.9,81.8,144.9,82.8"/>
	<path d="M106.4,82.7c0,1,2.4,1.9,5.3,1.9c2.9,0,5.3-0.8,5.3-1.9c0-1-2.4-1.9-5.3-1.9C108.8,80.8,106.4,81.7,106.4,82.7"/>
	<path d="M132.4,82.7c0,1,2.4,1.9,5.3,1.9c2.9,0,5.3-0.8,5.3-1.9c0-1-2.4-1.9-5.3-1.9C134.8,80.8,132.4,81.7,132.4,82.7"/>
	<path d="M119.5,82.7c0,1,2.4,1.9,5.3,1.9c2.9,0,5.3-0.8,5.3-1.9c0-1-2.4-1.9-5.3-1.9S119.5,81.7,119.5,82.7"/>
	<path d="M96.9,77.7c0,1.9,9.3,1.9,9.3,0C106.2,75.8,96.9,75.8,96.9,77.7"/>
	<path d="M140.9,77.8c0,1.9,9.3,1.9,9.3,0C150.2,76,140.9,76,140.9,77.8"/>
	<path d="M107.4,77.7c0,1.9,9.3,1.9,9.3,0C116.7,75.9,107.4,75.9,107.4,77.7"/>
	<path d="M130.1,77.7c0,1.9,9.3,1.9,9.3,0C139.4,75.9,130.1,75.9,130.1,77.7"/>
	<path d="M118.9,77.7c0,1.9,9.3,1.9,9.3,0C128.1,75.9,118.9,75.9,118.9,77.7"/>
	<path d="M100.2,73.3c0,1.9,7.7,1.9,7.7,0C107.9,71.5,100.2,71.5,100.2,73.3"/>
	<path d="M136.5,73.5c0,1.9,7.7,1.9,7.7,0S136.5,71.7,136.5,73.5"/>
	<path d="M108.9,73.4c0,1.9,7.7,1.9,7.7,0C116.6,71.6,108.9,71.6,108.9,73.4"/>
	<path d="M127.6,73.4c0,1.9,7.7,1.9,7.7,0C135.2,71.6,127.6,71.6,127.6,73.4"/>
	<path d="M118.3,73.4c0,1.9,7.7,1.9,7.7,0C126,71.6,118.3,71.6,118.3,73.4"/>
	<path d="M103.2,69.3c0,1.4,6.6,1.4,6.6,0C109.8,67.9,103.2,67.9,103.2,69.3"/>
	<path d="M134.3,69.4c0,1.4,6.6,1.4,6.6,0C140.9,68.1,134.3,68.1,134.3,69.4"/>
	<path d="M110.7,69.4c0,1.4,6.6,1.4,6.6,0C117.2,68,110.7,68,110.7,69.4"/>
	<path d="M126.7,69.4c0,1.4,6.6,1.4,6.6,0C133.2,68,126.7,68,126.7,69.4"/>
	<path d="M118.7,69.4c0,1.4,6.6,1.4,6.6,0C125.3,68,118.7,68,118.7,69.4"/>
	<path d="M106.5,66c0,1.2,5.7,1.2,5.7,0C112.2,64.8,106.5,64.8,106.5,66"/>
	<path d="M133.6,66.2c0,1.2,5.7,1.2,5.7,0C139.3,64.9,133.6,64.9,133.6,66.2"/>
	<path d="M113,66.1c0,1.2,5.7,1.2,5.7,0C118.7,64.9,113,64.9,113,66.1"/>
	<path d="M127,66.1c0,1.2,5.7,1.2,5.7,0C132.7,64.9,127,64.9,127,66.1"/>
	<path d="M120,66.1c0,1.2,5.7,1.2,5.7,0C125.8,64.9,120,64.9,120,66.1"/>
	<path d="M110.8,63.5c0,0.9,4.9,0.9,4.9,0C115.7,62.6,110.8,62.6,110.8,63.5"/>
	<path d="M134.1,63.6c0,0.9,4.9,0.9,4.9,0C139,62.7,134.1,62.7,134.1,63.6"/>
	<path d="M116.3,63.5c0,0.9,4.9,0.9,4.9,0C121.3,62.6,116.3,62.6,116.3,63.5"/>
	<path d="M128.3,63.5c0,0.9,4.9,0.9,4.9,0C133.3,62.6,128.3,62.6,128.3,63.5"/>
	<path d="M122.4,63.5c0,0.9,4.9,0.9,4.9,0C127.3,62.6,122.4,62.6,122.4,63.5"/>
	<path d="M116.5,61.3c0,0.9,4.2,0.9,4.2,0C120.7,60.4,116.5,60.4,116.5,61.3"/>
	<path d="M136.6,61.4c0,0.9,4.2,0.9,4.2,0C140.8,60.5,136.6,60.5,136.6,61.4"/>
	<path d="M121.3,61.3c0,0.9,4.2,0.9,4.2,0C125.5,60.4,121.3,60.4,121.3,61.3"/>
	<path d="M131.6,61.3c0,0.9,4.2,0.9,4.2,0C135.9,60.4,131.6,60.4,131.6,61.3"/>
	<path d="M126.5,61.3c0,0.9,4.2,0.9,4.2,0C130.8,60.4,126.5,60.4,126.5,61.3"/>
	<path d="M120.4,59.3c0,0.6,3.7,0.6,3.7,0C124.2,58.7,120.4,58.7,120.4,59.3"/>
	<path d="M138.1,59.4c0,0.6,3.7,0.6,3.7,0S138.1,58.8,138.1,59.4"/>
	<path d="M124.7,59.4c0,0.6,3.7,0.6,3.7,0S124.7,58.8,124.7,59.4"/>
	<path d="M133.8,59.4c0,0.6,3.7,0.6,3.7,0S133.8,58.8,133.8,59.4"/>
	<path d="M129.2,59.4c0,0.6,3.7,0.6,3.7,0S129.2,58.8,129.2,59.4"/>
	<path d="M124.4,58c0,0.4,3.3,0.4,3.3,0C127.6,57.6,124.4,57.6,124.4,58"/>
	<path d="M139.8,58.1c0,0.4,3.3,0.4,3.3,0C143.1,57.6,139.8,57.6,139.8,58.1"/>
	<path d="M128.1,58c0,0.4,3.3,0.4,3.3,0C131.3,57.6,128.1,57.6,128.1,58"/>
	<path d="M136,58c0,0.4,3.3,0.4,3.3,0C139.3,57.6,136,57.6,136,58"/>
	<path d="M132.1,58c0,0.4,3.3,0.4,3.3,0C135.3,57.6,132.1,57.6,132.1,58"/>
	<path d="M128.2,56.9c0,0.4,2.8,0.4,2.8,0C131,56.5,128.2,56.5,128.2,56.9"/>
	<path d="M141.4,57c0,0.4,2.8,0.4,2.8,0S141.4,56.5,141.4,57"/>
	<path d="M131.3,56.9c0,0.4,2.8,0.4,2.8,0C134.1,56.5,131.3,56.5,131.3,56.9"/>
	<path d="M138.2,56.9c0,0.4,2.8,0.4,2.8,0C141,56.5,138.2,56.5,138.2,56.9"/>
	<path d="M134.8,56.9c0,0.4,2.8,0.4,2.8,0C137.6,56.5,134.8,56.5,134.8,56.9"/>
	<path d="M132,55.9c0,0.3,2.2,0.3,2.2,0C134.3,55.6,132,55.6,132,55.9"/>
	<path d="M142.6,55.9c0,0.3,2.2,0.3,2.2,0C144.8,55.6,142.6,55.6,142.6,55.9"/>
	<path d="M134.6,55.9c0,0.3,2.2,0.3,2.2,0C136.8,55.6,134.6,55.6,134.6,55.9"/>
	<path d="M140,55.9c0,0.3,2.2,0.3,2.2,0C142.2,55.6,140,55.6,140,55.9"/>
	<path d="M137.3,55.9c0,0.3,2.2,0.3,2.2,0C139.5,55.6,137.3,55.6,137.3,55.9"/>
	<path d="M135.1,55c0,0.3,1.9,0.3,1.9,0C137,54.7,135.1,54.7,135.1,55"/>
	<path d="M144.3,55c0,0.3,1.9,0.3,1.9,0C146.2,54.7,144.3,54.7,144.3,55"/>
	<path d="M137.3,55c0,0.3,1.9,0.3,1.9,0C139.2,54.7,137.3,54.7,137.3,55"/>
	<path d="M142,55c0,0.3,1.9,0.3,1.9,0C143.9,54.7,142,54.7,142,55"/>
	<path d="M139.7,55c0,0.3,1.9,0.3,1.9,0C141.6,54.7,139.7,54.7,139.7,55"/>
	<path d="M139.2,54.3c0,0.2,1.7,0.2,1.7,0C140.9,54.1,139.2,54.1,139.2,54.3"/>
	<path d="M141.1,54.3c0,0.2,1.7,0.2,1.7,0C142.8,54.1,141.1,54.1,141.1,54.3"/>
	<path d="M145.3,54.3c0,0.2,1.7,0.2,1.7,0C147,54.1,145.3,54.1,145.3,54.3"/>
	<path d="M143.2,54.3c0,0.2,1.7,0.2,1.7,0C145,54.1,143.2,54.1,143.2,54.3"/>
	<path d="M141.2,53.6c0,0.2,1.5,0.2,1.5,0C142.7,53.5,141.2,53.5,141.2,53.6"/>
	<path d="M142.9,53.6c0,0.2,1.5,0.2,1.5,0C144.4,53.5,142.9,53.5,142.9,53.6"/>
	<path d="M146.5,53.6c0,0.2,1.5,0.2,1.5,0C148,53.5,146.5,53.5,146.5,53.6"/>
	<path d="M144.7,53.6c0,0.2,1.5,0.2,1.5,0C146.2,53.5,144.7,53.5,144.7,53.6"/>
	<path d="M142.9,53c0,0.2,1.3,0.2,1.3,0C144.2,52.9,142.9,52.9,142.9,53"/>
	<path d="M144.4,53c0,0.2,1.3,0.2,1.3,0C145.7,52.9,144.4,52.9,144.4,53"/>
	<path d="M147.6,53c0,0.2,1.3,0.2,1.3,0C148.9,52.9,147.6,52.9,147.6,53"/>
	<path d="M146,53c0,0.2,1.3,0.2,1.3,0C147.3,52.9,146,52.9,146,53"/>
	<path d="M145.3,52.5c0,0.1,1.2,0.1,1.2,0C146.5,52.4,145.3,52.4,145.3,52.5"/>
	<path d="M146.7,52.5c0,0.1,1.2,0.1,1.2,0C147.9,52.4,146.7,52.4,146.7,52.5"/>
	<path d="M148.1,52.5c0,0.1,1.2,0.1,1.2,0C149.4,52.4,148.1,52.4,148.1,52.5"/>
	<path fill="#898BAB" d="M82.9,92.5c0-0.1-0.1-0.1-0.2-0.3c-0.1-0.2-0.2-0.5-0.2-0.5c-0.1-0.1-0.6,0.3-1.2,0.3
		c-0.8,0-1.7-0.4-1.7-0.3s0.6,1.3,1.1,2.6s1,2.6,1,2.6C81.9,96.8,83,92.7,82.9,92.5L82.9,92.5z M68.4,89.2c-0.1,0-0.3,0.4-0.5,0.9
		c-0.2,0.5-0.2,1.1-0.1,1.2c0.1,0,0.2-0.3,0.4-0.6c0.2-0.3,0.5-0.4,0.5-0.4C68.7,90,68.5,89.2,68.4,89.2L68.4,89.2z M85.1,103.4
		c-0.6,0.1-3.2,0-3.3-0.1c-0.1-0.1,0.1-1.2,0.1-1.5c0-0.2-0.6-0.7-0.7-1.1c-0.1,0-0.9,2.9-0.9,3c-0.1,0.1-0.4,0-0.4-0.2
		c0-0.1,1-3.4,1-3.4l0,0c-0.2-0.4-0.3-0.8-0.5-1.2c-0.1-0.4-1.8-2.3-2.1-3.9c-0.4,1.2-1,2.3-1.9,3.2c-1,1-2.3,1.4-2.5,1.6
		c-0.1,0.2,0.3,1.5,0.4,2c0.3,0.5,0.7,0.9,1.2,1.2c0.3,0.1,0.5,0.1,0.8,0.1c0.1,0.1,0.1,0.3,0,0.4c-0.5,0.1-1.1,0.1-1.6,0
		c-0.5,0-0.9-0.2-1.3-0.4c-0.1-0.1,0.1-0.4,0.1-0.7c0-0.3-0.3-1.1-0.7-1.6c-0.4,0.3-0.6,0.7-0.7,1.2c-0.2,1.1,0.2,1.4,0.2,1.5l0,0
		c0,0.1-0.1,0.2-0.2,0.2c-0.1,0-0.5-0.3-0.8-1c-0.3-0.7-0.6-1.8-0.5-2c0-0.3,0.4-0.3,0.8-0.4c0.2-0.1,0.6-0.8,0.6-0.8
		s-0.4-0.6-0.5-0.9c-0.2-0.3-0.3-1-0.2-1.8c-0.6,0.1-2.7,0.1-3.5-0.3c-0.1,0.4-0.2,0.8-0.4,1.1c-0.3,0.6-1.5,1.8-1.7,3.4
		c0,0.7,0.4,1.1,0.6,1.4c0.2,0.3,0.7,0.4,0.7,0.5c0.1,0.1,0.1,0.4-0.1,0.4c-1-0.1-2.4-1.2-2.4-1.5s0.3-0.7,0.5-1.5
		c0.1-0.5,0.2-2.2,0.3-2.7s1-1.9,1.1-2.2c0.1-0.3,0.2-0.9,0.1-0.9c-0.1,0-0.6,0.5-0.7,0.5h0c-0.2-0.3-0.3-0.7-0.4-1
		c0-0.2,0.3-0.2,0.3-0.4c0-0.2-0.5-1.4-0.4-1.6c0.1-0.1,0.5-0.2,0.9-0.4c0.1-1.3,1-3.6,1.3-4.3c0.3-0.7,1.2-1.8,1.4-2.7
		c-1.1,0-2.2-0.9-2.2-1.6l0,0c0,0,0,0,0,0c0.2,0.2,0.5,0.3,0.8,0.3c0,0,0,0,0,0c-0.2-0.2-0.4-0.3-0.6-0.5c-0.2-0.2-0.3-0.4-0.3-0.7
		c0,0,0.2,0.1,0.3,0.2c0.2,0.1,0.3,0.1,0.4,0.1c0,0,0,0,0,0c-0.1-0.1-0.8-0.6-0.8-0.9c0,0,0,0,0,0c0.1,0,0.4,0.2,0.6,0.3
		c0-0.1-0.1-0.4-0.2-0.7h0c0,0,0,0,0,0c0.3,0.2,0.5,0.3,0.8,0.4c0.5,0.1,1,0.1,1.5,0.1c0.6-0.1,1.1,0.1,1.5,0.6
		c0.3,0.3,0.3,1,0.3,1.6c0,0.4,0,0.7,0,0.8c0,0-0.3,0-0.3,0.1c-0.1,0.1,0.2,0.6-0.1,0.7c-0.2,0.1-0.5-0.1-0.6-0.1
		c-0.1,0-0.1,0.2-0.2,0.4c-0.1,0.2-0.3,0.4-0.3,0.5c0.1,0.3,0.3,0.6,0.5,0.8c0.4,0.5,1,1,1,1.2c-0.1,0.3-0.3,0.6-0.6,0.7
		c0,0.4-0.1,1.1-0.1,2c0.5,0.9,1.8,4.6,2.1,5.4c0.3,0.8,0.4,1.8,0.5,1.9c0.1,0,0.6-0.6,0.8-0.9c0.2-0.4,0.5-1.4,0.6-1.8
		c0.1-0.3,0.5-1.1,0.6-1.2c0-0.1-0.4-0.4-0.7-1c-0.2-0.5,0-1.5-0.1-1.5c-0.3-0.1-1.1-0.2-1.2-0.3s0.2-1.3,0.5-1.9
		c0.1-0.1-0.5-0.4-0.5-0.6v0c0.1-0.6,0.3-1.1,0.6-1.6c0.1-0.1,0.7-0.1,0.9-0.2c0.4-0.5,0.8-1,1.2-1.5c0.1-0.2-0.2-0.9-0.2-1.4
		c0-0.2-0.9,0.1-1-0.1c0-0.1,0.5-0.6,0.6-0.8c0.1-0.2,0.1-1.6,0.3-1.9c0.1-0.1,0.4,0,0.7-0.1c0.3-0.1,0.7-0.3,0.9-0.3
		c0.2,0,0.7,1,0.8,1.2c0.1,0.1,0.8,0.6,0.7,0.7c0,0.1-0.6,0.2-0.7,0.2c-0.1,0.1,0.3,0.9,0.3,1c-0.1,0.1-0.2,0-0.3,0.1
		c-0.1,0.1,0.1,0.9,0,1c-0.1,0.1-0.4-0.1-0.5-0.1c-0.1,0-0.2,0.5-0.2,0.7c0,0.1,0.4,0.4,0.5,0.7c0.2,0.3,0.3,1.8,0.6,3
		c0.4,0.3,3.3,1.4,3.8,1.5c0.5,0.1,1.1,0.1,1.3,0.2c0.2,0.2,0.4,0.5,0.4,0.9c0,0.1-0.8,0.5-0.9,0.6c-0.1,0.1-1.5,4.8-1.5,4.9
		c0,0.1,0.3,0.7,0.5,1.4c0.2,0.7,0.3,2.7,0.8,3.4c0.6,0.8,1.6,0.7,1.7,0.8C85.2,103.2,85.2,103.4,85.1,103.4L85.1,103.4z"/>
	<text transform="matrix(0.9345 0 0 1 147.045 50.8365)" fill="#AAAAC1" font-family="'ArialMT'" font-size="8.1705px">?</text>
</g>
<line stroke="#000000" stroke-width="4" stroke-miterlimit="10" x1="406.5" y1="127.9" x2="488.8" y2="107.6"/>
<circle fill="#F8F8F8" stroke="#000000" stroke-width="3.5584" stroke-miterlimit="10" cx="494.5" cy="104.2" r="8.2"/>
<text transform="matrix(1 0 0 1 477.7775 74.2508)"><tspan x="0" y="0" font-family="'ArialMT'" font-size="12px">augmented </tspan><tspan x="0" y="14.4" font-family="'ArialMT'" font-size="12px">reality</tspan></text>
<line stroke="#000000" stroke-width="4" stroke-miterlimit="10" x1="213.4" y1="89.3" x2="237.7" y2="123.4"/>
<circle fill="#F8F8F8" stroke="#000000" stroke-width="3.5584" stroke-miterlimit="10" cx="208.3" cy="82.5" r="8.2"/>
<text transform="matrix(1 0 0 1 183.901 66.5447)" font-family="'ArialMT'" font-size="12px">DITA</text>
</svg>
