<?xml version="1.0" encoding="utf-8"?>
<!-- Generator: Adobe Illustrator 23.0.3, SVG Export Plug-In . SVG Version: 6.00 Build 0)  -->
<svg version="1.1" id="Layer_1" xmlns="http://www.w3.org/2000/svg" xmlns:xlink="http://www.w3.org/1999/xlink" x="0px" y="0px"
	 viewBox="0 0 600 350" enable-background="new 0 0 600 350" xml:space="preserve">
<path fill="#858585" d="M114,141.4c-0.1,0.1-0.1,0.1-0.3,0.1c-0.1,0.1-0.3,0.1-0.4,0.2c-0.2,0.1-0.3,0.1-0.5,0.1
	c-0.2,0-0.3,0.1-0.5,0.1c-0.2,0-0.3,0-0.5,0h-0.9c-0.2,0-0.4,0-0.7-0.1c-0.2,0-0.3-0.1-0.4-0.1c-0.1,0-0.3-0.1-0.4-0.1
	c-0.2-0.1-0.3-0.1-0.5-0.2c-0.2-0.1-0.2-0.1-0.4-0.2c-0.2-0.1-0.2-0.1-0.4-0.2c-0.2-0.1-0.2-0.1-0.4-0.2c-0.2-0.1-0.2-0.1-0.4-0.2
	c-0.2-0.1-0.2-0.1-0.5-0.2c-0.2-0.1-0.3-0.1-0.5-0.2c-0.2-0.1-0.3-0.2-0.5-0.2c-0.2-0.1-0.3-0.2-0.5-0.3c-0.2-0.1-0.3-0.2-0.5-0.3
	c-0.2-0.1-0.3-0.2-0.5-0.3c-0.2-0.1-0.3-0.2-0.5-0.4c-0.2-0.1-0.4-0.3-0.6-0.5c-0.2-0.2-0.3-0.3-0.5-0.5c-0.2-0.2-0.4-0.3-0.5-0.5
	c-0.2-0.2-0.4-0.4-0.5-0.5c-0.2-0.2-0.3-0.4-0.5-0.5c-0.1-0.2-0.3-0.3-0.5-0.5c-0.2-0.2-0.3-0.4-0.5-0.7c-0.2-0.2-0.3-0.4-0.5-0.6
	c-0.1-0.2-0.3-0.4-0.4-0.6c-0.2-0.3-0.2-0.3-0.4-0.6c-0.2-0.3-0.3-0.5-0.4-0.7c-0.1-0.2-0.2-0.4-0.3-0.6c-0.1-0.2-0.3-0.5-0.4-0.7
	c-0.1-0.2-0.2-0.5-0.4-0.7c-0.1-0.2-0.2-0.5-0.4-0.8l-0.3-0.7c-0.1-0.3-0.2-0.5-0.3-0.7c-0.1-0.3-0.2-0.5-0.3-0.8
	c-0.1-0.2-0.2-0.5-0.2-0.8c-0.1-0.3-0.2-0.5-0.2-0.8c-0.1-0.3-0.1-0.5-0.2-0.7c-0.1-0.3-0.1-0.3-0.2-0.7c-0.1-0.3-0.1-0.6-0.2-0.8
	c-0.1-0.3-0.1-0.3-0.1-0.7c0-0.2-0.1-0.5-0.1-0.8c0-0.3-0.1-0.5-0.1-0.8c0-0.3-0.1-0.6-0.1-0.9c0-0.3,0-0.6-0.1-0.9
	c0-0.3,0-0.6,0-0.8c0-0.3,0-0.5,0-0.8v-1.6c0-0.3,0-0.5,0-0.7c0-0.3,0-0.6,0.1-0.9c0-0.3,0.1-0.6,0.1-0.8c0.1-0.3,0.1-0.3,0.1-0.7
	c0-0.3,0.1-0.5,0.2-0.8c0.1-0.4,0.1-0.4,0.2-0.7c0.1-0.2,0.1-0.5,0.2-0.7c0.1-0.2,0.2-0.5,0.2-0.7c0.1-0.3,0.2-0.5,0.3-0.7
	c0.1-0.3,0.1-0.3,0.3-0.6c0.1-0.2,0.2-0.4,0.3-0.6c0.1-0.3,0.2-0.5,0.4-0.8c0.1-0.2,0.2-0.4,0.3-0.5c0.1-0.2,0.2-0.5,0.4-0.7
	c0.1-0.2,0.3-0.4,0.4-0.6c0.2-0.3,0.2-0.3,0.4-0.6c0.1-0.2,0.3-0.5,0.5-0.7c0.1-0.2,0.3-0.4,0.4-0.6c0.2-0.2,0.3-0.4,0.5-0.6
	c0.2-0.3,0.2-0.3,0.5-0.5c0.2-0.2,0.3-0.4,0.5-0.5c0.1-0.2,0.3-0.3,0.5-0.5c0.2-0.2,0.3-0.3,0.5-0.5c0.2-0.2,0.4-0.3,0.6-0.5
	c0.2-0.2,0.4-0.3,0.5-0.5c0.2-0.1,0.4-0.3,0.6-0.5c0.2-0.2,0.5-0.3,0.7-0.5c0.2-0.1,0.4-0.3,0.6-0.4c0.2-0.1,0.4-0.2,0.6-0.4
	c0.2-0.2,0.5-0.3,0.7-0.4c0.2-0.1,0.4-0.2,0.6-0.3c0.2-0.1,0.4-0.2,0.6-0.3c0.3-0.1,0.3-0.1,0.6-0.3c0.2-0.1,0.4-0.2,0.7-0.3
	c0.2-0.1,0.4-0.2,0.6-0.2c0.2-0.1,0.5-0.2,0.7-0.2c0.2-0.1,0.4-0.1,0.6-0.2c0.2,0,0.4-0.1,0.7-0.2c0.3-0.1,0.5-0.1,0.7-0.1
	c0.2,0,0.4,0,0.6-0.1c0.2,0,0.4,0,0.7-0.1c0.2,0,0.4,0,0.6,0c0.2,0,0.4,0,0.6,0h1.1c0.2,0,0.4,0,0.6,0c0.3,0,0.5,0,0.7,0.1
	c0.2,0,0.4,0.1,0.6,0.1c0.2,0,0.4,0.1,0.6,0.1c0.2,0,0.4,0.1,0.7,0.2c0.2,0.1,0.4,0.1,0.6,0.2c0.2,0.1,0.4,0.1,0.6,0.2
	c0.3,0.1,0.3,0.1,0.6,0.2c0.3,0.1,0.3,0.1,0.6,0.2c0.2,0.1,0.4,0.1,0.6,0.2c0.2,0.1,0.4,0.1,0.6,0.2c0.2,0.1,0.4,0.2,0.6,0.2
	c0.3,0.1,0.3,0.1,0.5,0.2c0.2,0.1,0.4,0.2,0.5,0.2c0.2,0.1,0.4,0.2,0.5,0.3c0.2,0.1,0.4,0.2,0.6,0.3c0.1,0.1,0.3,0.2,0.5,0.3
	c0.3,0.1,0.3,0.1,0.5,0.3c0.2,0.1,0.4,0.2,0.5,0.3c0.2,0.2,0.2,0.2,0.5,0.3c0.2,0.1,0.3,0.2,0.5,0.3c0.2,0.1,0.3,0.2,0.5,0.4
	c0.1,0.1,0.3,0.2,0.4,0.4c0.2,0.1,0.3,0.3,0.4,0.4c0.1,0.2,0.1,0.2,0.3,0.3c0.1,0.1,0.3,0.3,0.4,0.4c0.1,0.2,0.3,0.3,0.4,0.5
	c0.2,0.2,0.2,0.2,0.3,0.4c0.1,0.1,0.2,0.3,0.3,0.4c0.1,0.2,0.2,0.3,0.3,0.5c0.1,0.1,0.2,0.3,0.3,0.4c0.1,0.1,0.1,0.2,0.2,0.4
	c0.1,0.1,0.2,0.3,0.3,0.5c0.1,0.2,0.2,0.4,0.3,0.5c0.1,0.2,0.1,0.2,0.2,0.4c0.1,0.2,0.1,0.2,0.2,0.4c0.1,0.2,0.1,0.2,0.2,0.4
	c0.1,0.2,0.2,0.4,0.2,0.5c0.1,0.2,0.1,0.3,0.2,0.5c0.1,0.2,0.1,0.2,0.2,0.4c0,0.1,0.1,0.3,0.2,0.5c0.1,0.2,0.1,0.2,0.1,0.4
	c0,0.1,0.1,0.3,0.1,0.5c0.1,0.2,0.1,0.2,0.1,0.5c0,0.2,0.1,0.3,0.1,0.5c0,0.1,0,0.2,0.1,0.3c0,0.2,0.1,0.4,0.1,0.6
	c0,0.2,0,0.2,0,0.4c0,0.2,0,0.3,0,0.5c0,0.1,0,0.3,0,0.4c0,0.2,0,0.4,0,0.6c0,0.2,0,0.3,0,0.4c0,0.2,0,0.2,0,0.5c0,0.2,0,0.3,0,0.4
	c0,0.2,0,0.3,0,0.5v2.9c0,0.2,0,0.4,0,0.6c0,0.2,0,0.2,0,0.4c0,0.1,0,0.3-0.1,0.5c0,0.1,0,0.3-0.1,0.4c0,0.2,0,0.3-0.1,0.5
	c0,0.1,0,0.2,0,0.3c0,0.2,0,0.3-0.1,0.5c0,0.2,0,0.2-0.1,0.4c0,0.1,0,0.2-0.1,0.3c0,0.1-0.1,0.3-0.1,0.4c0,0.2,0,0.2-0.1,0.3
	c0,0.2-0.1,0.3-0.1,0.5c0,0.1,0,0.2-0.1,0.3c0,0.2-0.1,0.3-0.1,0.5c0,0.1,0,0.1-0.1,0.3c0,0.1-0.1,0.3-0.1,0.4
	c0,0.1-0.1,0.2-0.1,0.3c0,0.2-0.1,0.3-0.2,0.5c-0.1,0.2-0.1,0.2-0.1,0.4c-0.1,0.1-0.1,0.3-0.2,0.4c0,0.1-0.1,0.2-0.1,0.3
	c-0.1,0.1-0.1,0.3-0.2,0.4c-0.1,0.2-0.1,0.2-0.2,0.4s-0.1,0.2-0.2,0.4c-0.1,0.2-0.1,0.2-0.2,0.3c0,0.1-0.1,0.2-0.1,0.3
	c-0.1,0.1-0.1,0.3-0.2,0.5c-0.1,0.1-0.1,0.3-0.2,0.4c-0.1,0.2-0.1,0.2-0.2,0.3c-0.1,0.1-0.1,0.3-0.2,0.4c0,0.1-0.1,0.2-0.1,0.3
	c-0.1,0.1-0.1,0.3-0.2,0.4c-0.1,0.1-0.2,0.3-0.2,0.4c-0.1,0.1-0.1,0.1-0.2,0.2c-0.1,0.1-0.1,0.2-0.2,0.3c0,0.1-0.1,0.1-0.1,0.2
	c-0.1,0.1-0.2,0.3-0.3,0.4l-0.2,0.2c-0.1,0.1-0.1,0.1-0.2,0.2c-0.1,0.1-0.2,0.2-0.3,0.4c0,0-0.1,0.1-0.1,0.1
	c-0.1,0.1-0.1,0.2-0.2,0.3c-0.1,0.1-0.2,0.2-0.3,0.3c-0.1,0.1-0.1,0.1-0.2,0.2c-0.1,0.1-0.2,0.2-0.3,0.3c-0.1,0.1-0.1,0.1-0.3,0.3
	c-0.1,0.1-0.2,0.3-0.3,0.3c-0.1,0.1-0.1,0.1-0.2,0.2c-0.1,0.1-0.2,0.2-0.3,0.3c-0.1,0.1-0.3,0.3-0.4,0.4c-0.1,0.1-0.3,0.2-0.4,0.3
	c-0.1,0.1-0.2,0.2-0.4,0.3c-0.1,0.1-0.2,0.2-0.3,0.3c-0.1,0.1-0.2,0.2-0.3,0.3c-0.1,0.1-0.3,0.2-0.4,0.3c-0.1,0.1-0.2,0.2-0.3,0.3
	c-0.2,0.1-0.2,0.1-0.4,0.3c-0.2,0.2-0.2,0.2-0.4,0.3c-0.1,0.1-0.3,0.2-0.4,0.3c-0.1,0.1-0.3,0.2-0.4,0.3c-0.2,0.1-0.2,0.1-0.4,0.2
	c-0.1,0.1-0.3,0.2-0.4,0.2c-0.1,0.1-0.3,0.1-0.4,0.2c-0.1,0.1-0.3,0.1-0.4,0.2c-0.1,0.1-0.1,0.1-0.3,0.1c-0.1,0.1-0.3,0.1-0.4,0.2
	c-0.2,0.1-0.2,0.1-0.3,0.1c-0.2,0.1-0.2,0.1-0.3,0.1c-0.1,0-0.2,0.1-0.3,0.1c-0.2,0.1-0.2,0.1-0.3,0.1c-0.1,0-0.2,0.1-0.2,0.1
	c-0.2,0.1-0.2,0.1-0.4,0.2c-0.1,0-0.2,0.1-0.3,0.1c-0.1,0.1-0.2,0.1-0.3,0.2c-0.1,0.1-0.1,0.1-0.2,0.1c-0.1,0.1-0.3,0.1-0.4,0.2
	c-0.2,0.1-0.4,0.1-0.5,0.2c-0.2,0-0.2,0-0.4,0.1c-0.2,0-0.2,0-0.4,0.1c-0.2,0-0.2,0-0.4,0.1c-0.2,0-0.2,0-0.3,0c-0.1,0-0.1,0-0.3,0
	C114.2,141.3,114.1,141.4,114,141.4L114,141.4z M113,138.8c0.4-0.5,1.1-0.6,1.6-0.3c0.1,0,0.1,0,0.2,0c0.1,0,0.1,0,0.3-0.1
	c0.2,0,0.2,0,0.3-0.1c0.1,0,0.1,0,0.2-0.1c0.1,0,0.1-0.1,0.2-0.1c0.1-0.1,0.1-0.1,0.3-0.1c0.1,0,0.2-0.1,0.2-0.1
	c0.1-0.1,0.2-0.1,0.4-0.2c0.1-0.1,0.1-0.1,0.3-0.1c0.1-0.1,0.3-0.1,0.4-0.2c0.2-0.1,0.2-0.1,0.3-0.1c0.1-0.1,0.3-0.1,0.4-0.1
	c0.2,0,0.2,0,0.3-0.1c0.2-0.1,0.2-0.1,0.3-0.1c0.1,0,0.1-0.1,0.2-0.1c0.2-0.1,0.2-0.1,0.3-0.1c0.1,0,0.2-0.1,0.3-0.1
	c0.1,0,0.2-0.1,0.2-0.1c0.1,0,0.2-0.1,0.2-0.1c0.2-0.1,0.2-0.1,0.3-0.2c0.1-0.1,0.2-0.1,0.3-0.2c0.1-0.1,0.2-0.2,0.3-0.2
	c0.2-0.1,0.2-0.1,0.4-0.3c0.2-0.2,0.2-0.2,0.4-0.3c0.1-0.1,0.3-0.2,0.4-0.3c0.1-0.1,0.2-0.2,0.3-0.2c0.1-0.1,0.3-0.2,0.4-0.3
	c0.1-0.1,0.2-0.2,0.4-0.3c0.1-0.1,0.2-0.2,0.3-0.2c0.1-0.1,0.2-0.2,0.3-0.2c0.1-0.1,0.2-0.2,0.3-0.2c0.1-0.1,0.2-0.2,0.2-0.2
	c0.1-0.1,0.1-0.1,0.2-0.2c0.1-0.1,0.1-0.1,0.2-0.3c0.2-0.2,0.2-0.2,0.3-0.3c0.1-0.1,0.1-0.1,0.2-0.2c0.1-0.1,0.2-0.2,0.3-0.3
	c0.1-0.1,0.1-0.1,0.2-0.2c0.1-0.1,0.1-0.1,0.1-0.2c0.1-0.1,0.2-0.2,0.3-0.4c0,0,0.1-0.1,0.1-0.1c0.1-0.1,0.2-0.2,0.2-0.3l0.1-0.1
	c0-0.1,0-0.1,0.1-0.1c0,0,0.1-0.1,0.1-0.1c0.1-0.1,0.1-0.2,0.2-0.3c0-0.1,0.1-0.1,0.1-0.2c0.1-0.1,0.1-0.1,0.2-0.3
	c0-0.1,0.1-0.1,0.1-0.2c0-0.1,0.1-0.2,0.1-0.3c0.1-0.1,0.1-0.3,0.2-0.4c0-0.1,0.1-0.2,0.2-0.3c0.1-0.2,0.1-0.2,0.2-0.3
	c0.1-0.1,0.1-0.2,0.2-0.3c0.1-0.1,0.1-0.2,0.1-0.3c0.1-0.1,0.1-0.3,0.2-0.4c0.1-0.2,0.1-0.2,0.2-0.4c0.1-0.2,0.1-0.2,0.2-0.3
	c0.1-0.2,0.1-0.2,0.2-0.3c0-0.1,0.1-0.2,0.1-0.3c0.1-0.1,0.1-0.3,0.2-0.4c0-0.1,0.1-0.2,0.1-0.3c0.1-0.2,0.1-0.2,0.1-0.4
	c0-0.1,0.1-0.1,0.1-0.2c0-0.2,0.1-0.3,0.1-0.5c0-0.1,0.1-0.2,0.1-0.3c0.1-0.2,0.1-0.2,0.1-0.3c0-0.1,0-0.2,0.1-0.2
	c0-0.2,0.1-0.3,0.1-0.5c0-0.1,0-0.2,0.1-0.3c0-0.2,0-0.2,0.1-0.4c0-0.1,0-0.2,0.1-0.3c0-0.2,0.1-0.3,0.1-0.4c0-0.2,0-0.2,0.1-0.4
	c0-0.1,0-0.2,0-0.3c0-0.2,0-0.3,0.1-0.5c0-0.1,0-0.2,0-0.3c0-0.1,0-0.3,0.1-0.5c0-0.1,0-0.3,0-0.4c0-0.2,0-0.2,0-0.4
	c0-0.1,0-0.2,0-0.3v-2.9c0-0.1,0-0.2,0-0.3c0-0.1,0-0.3,0-0.5c0-0.2,0-0.2,0-0.4c0-0.1,0-0.3,0-0.4c0-0.1,0-0.3,0-0.4
	c0-0.1,0-0.3-0.1-0.5c0-0.1,0-0.3,0-0.4c0-0.2,0-0.2,0-0.4c0-0.1,0-0.2,0-0.3c0-0.2-0.1-0.3-0.1-0.5c0-0.1,0-0.2-0.1-0.3
	c0-0.2,0-0.2-0.1-0.4c0-0.1-0.1-0.2-0.1-0.3c-0.1-0.2-0.1-0.2-0.1-0.4c0-0.1-0.1-0.3-0.1-0.4c-0.1-0.2-0.1-0.2-0.1-0.4
	c-0.1-0.1-0.1-0.3-0.2-0.4c0-0.1-0.1-0.2-0.1-0.3c-0.1-0.2-0.1-0.2-0.2-0.4c-0.1-0.2-0.1-0.2-0.2-0.4c-0.1-0.2-0.1-0.2-0.2-0.4
	c-0.1-0.1-0.1-0.2-0.2-0.4c-0.1-0.1-0.2-0.3-0.2-0.4c-0.1-0.1-0.2-0.3-0.3-0.4c-0.1-0.1-0.1-0.2-0.2-0.4c-0.1-0.1-0.2-0.3-0.3-0.4
	c-0.1-0.1-0.2-0.3-0.2-0.3c-0.1-0.2-0.1-0.2-0.3-0.4c-0.1-0.1-0.2-0.2-0.3-0.3c-0.1-0.1-0.2-0.2-0.3-0.4c-0.2-0.2-0.2-0.2-0.3-0.3
	c-0.1-0.1-0.2-0.2-0.3-0.3c-0.1-0.1-0.2-0.2-0.4-0.3c-0.1-0.1-0.2-0.2-0.4-0.3c-0.1-0.1-0.2-0.2-0.4-0.3c-0.2-0.1-0.2-0.1-0.4-0.3
	c-0.1-0.1-0.3-0.2-0.4-0.2c-0.2-0.1-0.2-0.1-0.5-0.3c-0.2-0.1-0.3-0.2-0.5-0.3c-0.1-0.1-0.3-0.1-0.4-0.2c-0.2-0.1-0.3-0.2-0.5-0.2
	c-0.2-0.1-0.3-0.1-0.5-0.2c-0.3-0.1-0.3-0.1-0.5-0.2c-0.2-0.1-0.3-0.1-0.5-0.2c-0.2-0.1-0.3-0.1-0.5-0.2c-0.2-0.1-0.3-0.1-0.5-0.2
	c-0.3-0.1-0.3-0.1-0.6-0.2c-0.3-0.1-0.3-0.1-0.6-0.2c-0.2-0.1-0.4-0.1-0.5-0.2c-0.2,0-0.4-0.1-0.5-0.1c-0.2-0.1-0.4-0.1-0.5-0.1
	c-0.2,0-0.4-0.1-0.6-0.1c-0.2,0-0.3-0.1-0.5-0.1c-0.1,0-0.3,0-0.4,0c-0.2,0-0.4,0-0.5,0H114c-0.2,0-0.3,0-0.5,0c-0.2,0-0.4,0-0.6,0
	c-0.2,0-0.4,0-0.6,0.1c-0.2,0-0.4,0-0.5,0.1c-0.1,0-0.3,0.1-0.5,0.1c-0.2,0-0.4,0.1-0.5,0.1c-0.2,0-0.4,0.1-0.6,0.2
	c-0.2,0.1-0.4,0.1-0.5,0.2c-0.2,0.1-0.4,0.1-0.6,0.2c-0.2,0.1-0.3,0.1-0.5,0.2c-0.3,0.1-0.3,0.1-0.6,0.3c-0.2,0.1-0.4,0.2-0.5,0.3
	c-0.2,0.1-0.4,0.2-0.5,0.3c-0.2,0.1-0.3,0.2-0.5,0.3c-0.2,0.1-0.4,0.3-0.6,0.4c-0.2,0.1-0.3,0.2-0.5,0.3c-0.2,0.1-0.4,0.2-0.5,0.4
	c-0.2,0.2-0.4,0.3-0.5,0.4c-0.1,0.1-0.3,0.3-0.5,0.4c-0.2,0.2-0.3,0.3-0.5,0.4c-0.2,0.1-0.3,0.3-0.5,0.5c-0.1,0.1-0.3,0.3-0.4,0.4
	c-0.1,0.1-0.2,0.3-0.4,0.4c-0.2,0.3-0.2,0.3-0.5,0.5c-0.1,0.1-0.2,0.3-0.4,0.5c-0.1,0.2-0.3,0.4-0.4,0.6c-0.1,0.2-0.2,0.4-0.4,0.5
	c-0.2,0.3-0.2,0.3-0.4,0.6c-0.1,0.2-0.2,0.4-0.4,0.6c-0.1,0.2-0.2,0.4-0.3,0.5c-0.1,0.2-0.2,0.4-0.4,0.7c-0.1,0.2-0.2,0.4-0.3,0.5
	c-0.1,0.2-0.2,0.4-0.3,0.6c-0.1,0.3-0.1,0.3-0.3,0.6c-0.1,0.2-0.1,0.3-0.2,0.5c-0.1,0.2-0.2,0.5-0.2,0.7c-0.1,0.2-0.1,0.4-0.2,0.6
	c-0.1,0.3-0.1,0.3-0.2,0.7c-0.1,0.2-0.1,0.4-0.1,0.6c-0.1,0.3-0.1,0.3-0.1,0.7c0,0.2-0.1,0.5-0.1,0.7c0,0.2-0.1,0.4-0.1,0.6
	c0,0.2,0,0.4,0,0.6v1.6c0,0.2,0,0.5,0,0.7c0,0.3,0,0.5,0,0.8c0,0.3,0,0.5,0.1,0.8c0,0.2,0,0.5,0.1,0.7c0,0.3,0.1,0.5,0.1,0.8
	c0,0.2,0.1,0.5,0.1,0.6c0.1,0.3,0.1,0.3,0.1,0.7c0,0.2,0.1,0.4,0.1,0.7c0.1,0.4,0.1,0.4,0.2,0.7c0,0.2,0.1,0.4,0.2,0.6
	c0.1,0.2,0.1,0.5,0.2,0.7c0.1,0.3,0.2,0.5,0.2,0.7c0.1,0.2,0.1,0.4,0.2,0.6c0.1,0.2,0.2,0.4,0.3,0.7c0.2,0.4,0.2,0.4,0.3,0.7
	c0.1,0.2,0.2,0.4,0.3,0.6c0.1,0.2,0.2,0.4,0.3,0.6c0.1,0.2,0.2,0.4,0.3,0.6c0.1,0.2,0.2,0.4,0.3,0.6c0.1,0.2,0.2,0.3,0.4,0.5
	c0.2,0.3,0.2,0.3,0.4,0.6c0.1,0.2,0.2,0.3,0.4,0.5c0.1,0.2,0.3,0.4,0.5,0.6c0.1,0.2,0.3,0.4,0.4,0.6c0.2,0.2,0.3,0.4,0.4,0.5
	s0.3,0.3,0.4,0.5c0.2,0.2,0.3,0.3,0.5,0.5c0.2,0.2,0.3,0.3,0.4,0.4c0.2,0.1,0.3,0.3,0.5,0.4c0.1,0.1,0.3,0.2,0.4,0.3
	c0.2,0.1,0.3,0.2,0.4,0.3c0.1,0.1,0.3,0.2,0.4,0.3c0.1,0.1,0.3,0.2,0.4,0.2c0.1,0.1,0.3,0.1,0.4,0.2c0.1,0.1,0.3,0.1,0.4,0.2
	c0.2,0.1,0.3,0.1,0.4,0.2c0.2,0.1,0.2,0.1,0.4,0.2c0.2,0.1,0.2,0.1,0.4,0.2c0.2,0.1,0.2,0.1,0.4,0.2c0.2,0.1,0.2,0.1,0.4,0.2
	c0.2,0.1,0.2,0.1,0.4,0.2c0.1,0,0.2,0.1,0.4,0.1c0.1,0,0.2,0.1,0.3,0.1c0.1,0,0.2,0.1,0.3,0.1c0,0,0.3,0,0.9,0c0,0,0.1,0,0.2,0
	c0.1,0,0.2,0,0.3,0c0.1,0,0.2,0,0.2-0.1C112.7,139,112.8,138.9,113,138.8L113,138.8z M113,138.9C113,138.9,113,138.9,113,138.9
	C113,138.9,113,138.9,113,138.9z"/>
<path fill="#505050" d="M162.6,245L162.6,245L162.6,245L162.6,245z M158.4,212.3C158.4,212.3,158.4,212.3,158.4,212.3
	C158.4,212.3,158.4,212.3,158.4,212.3z M134.3,208.5c0.2,0.1,0.3,0.3,0.4,0.4h4.8c0.2,0,0.5,0,0.7,0c0.2,0,0.5,0,0.7,0
	c0.2,0,0.4,0,0.6-0.1c0.2,0,0.5-0.1,0.8-0.1c0.4,0,0.4,0,0.8-0.1c0.4,0,0.4,0,0.8-0.1c0.3,0,0.6-0.1,0.8-0.1c0.3,0,0.5,0,0.8-0.1
	c0.3,0,0.5,0,0.8-0.1c0.3,0,0.6,0,0.8-0.1c0.4,0,0.4,0,0.7,0c0.3,0,0.3,0,0.6,0c0.2,0,0.5,0,0.7,0c0.2,0,0.4,0,0.6,0
	c0.2,0,0.5,0,0.6,0c0.2,0,0.4,0,0.6,0c0.2,0,0.4,0,0.5,0c0.3,0,0.3,0,0.6,0c0.2,0,0.4,0,0.6,0h2.3c0.2,0,0.4,0,0.6,0
	c0.2,0,0.3,0,0.5,0.1c0.1,0,0.3,0.1,0.4,0.1c0.1,0,0.3,0.1,0.4,0.1c0.2,0.1,0.3,0.1,0.5,0.2c0.1,0.1,0.1,0.1,0.3,0.1
	c0.1,0,0.2,0.1,0.3,0.2c0.1,0.1,0.2,0.1,0.4,0.2c0.2,0.1,0.2,0.1,0.4,0.2c0.2,0.1,0.4,0.2,0.5,0.3c0.1,0.1,0.1,0.1,0.3,0.2
	c0.2,0.1,0.3,0.3,0.5,0.4c0.1,0.1,0.2,0.2,0.3,0.3c0.2,0.2,0.3,0.4,0.4,0.6c0.1,0.2,0.1,0.4,0.2,0.5c0,0.2,0,0.2,0.1,0.4
	c0,0.1,0,0.3,0,0.4c0,0.2,0,0.2,0,0.3c0,0.1,0,0.2,0,0.3c0,0.2,0,0.2,0,0.4c0,0.2,0,0.2,0,0.4c0,0.2,0,0.2,0,0.4
	c0,0.2,0,0.4,0.1,0.5c0,0.2,0,0.3,0,0.5c0,0.1,0,0.3,0,0.4c0,0.2,0,0.4,0,0.7c0,0.2,0,0.4,0,0.6c0,0.3,0,0.5,0,0.8
	c0,0.3,0,0.5,0,0.8c0,0.4,0,0.4,0,0.9c0,0.5,0,0.5,0,1.1c0,0.4,0,0.7,0,1.1c0,0.4,0,0.7,0,1.1c0,0.4,0,0.7,0,1.2c0,0.4,0,0.8,0,1.2
	c0,0.4,0,0.8,0,1.3c0,0.4,0,0.8,0.1,1.2c0,0.4,0.1,0.8,0.1,1.3c0,0.5,0.1,0.9,0.1,1.3c0,0.4,0.1,0.7,0.1,1.2c0,0.4,0.1,0.8,0.1,1.1
	c0,0.3,0,0.7,0,1c0,0.4,0,0.7,0,1c0,0.3,0,0.7,0,1c0,0.3,0,0.6,0,0.8c0,0.3,0,0.5,0,0.8c0,0.4,0,0.4,0,0.7c0,0.2,0,0.4,0,0.6
	c0,0.2,0,0.5,0,0.7c0,0.3,0,0.3,0,0.6c0,0.3,0,0.3,0,0.6c0,0.2,0,0.4,0,0.6c0,0.2,0,0.3,0,0.4c0,0.2,0,0.4,0,0.6c0,0.1,0,0.3,0,0.4
	c0,0.2,0,0.4,0,0.5v0.4c0,0.1,0,0.2,0,0.3c0,0.2,0,0.3,0,0.4v0.2c0.1,0,0.2,0,0.3,0c0.1,0,0.3,0,0.4,0c0.2,0,0.2-0.1,0.3-0.1
	l0.1-0.1c0.7-0.3,1.5,0,1.8,0.7c0.3,0.7,0,1.5-0.7,1.8l-0.1,0.1c-0.2,0.1-0.3,0.1-0.5,0.2c-0.3,0.1-0.6,0.1-0.9,0.1
	c-0.2,0-0.4,0-0.5,0c-0.2,0-0.4,0-0.5-0.1c-0.2,0-0.4-0.1-0.5-0.1c-0.2,0-0.3-0.1-0.4-0.1l-0.3-0.1c-0.6-0.2-1.1-0.8-1.1-1.5
	c0-0.1,0-0.1,0-0.2c0-0.1,0-0.3,0-0.5V244c0-0.1,0-0.2,0-0.3c0-0.2,0-0.3,0-0.5v-0.4c0-0.1,0-0.2,0-0.4c0-0.2,0-0.4,0-0.6
	c0-0.2,0-0.3,0-0.4c0-0.2,0-0.4,0-0.6c0-0.2,0-0.4,0-0.5c0-0.3,0-0.3,0-0.6c0-0.3,0-0.3,0-0.6c0-0.2,0-0.4,0-0.6c0-0.2,0-0.5,0-0.7
	c0-0.3,0-0.3,0-0.7c0-0.3,0-0.5,0-0.8c0-0.3,0-0.6,0-0.9c0-0.3,0-0.6,0-0.9c0-0.3,0-0.7,0-1c0-0.4,0-0.7,0-1c0-0.3,0-0.6-0.1-1
	c0-0.4-0.1-0.8-0.1-1.1c0-0.4-0.1-0.8-0.1-1.3c0-0.5-0.1-1-0.1-1.4c0-0.4,0-0.8-0.1-1.3c0-0.4,0-0.8,0-1.2c0-0.4,0-0.8,0-1.3
	c0-0.4,0-0.8,0-1.2c0-0.4,0-0.7,0-1.1c0-0.4,0-0.7,0-1.1c0-0.5,0-0.5,0-1.1c0-0.5,0-0.5,0-0.9c0-0.3,0-0.5,0-0.8c0-0.3,0-0.5,0-0.7
	c0-0.3,0-0.5,0-0.7c0-0.2,0-0.4,0-0.5c0-0.2,0-0.4,0-0.5c0-0.1,0-0.2,0-0.3c0-0.1,0-0.3-0.1-0.5c0-0.3,0-0.3,0-0.5
	c0-0.2,0-0.2,0-0.4c0-0.2,0-0.2,0-0.4c0-0.1,0-0.3,0-0.4c0-0.2,0-0.2,0-0.3c0-0.1,0-0.1,0-0.2c0-0.1,0-0.1,0-0.2
	c0,0-0.1-0.1-0.1-0.2c0,0-0.1-0.1-0.1-0.1c-0.1-0.1-0.1-0.1-0.3-0.2c-0.1,0-0.1-0.1-0.2-0.1c-0.2-0.1-0.2-0.1-0.4-0.2
	c-0.1-0.1-0.2-0.1-0.3-0.2c-0.1,0-0.1-0.1-0.2-0.1c-0.1-0.1-0.1-0.1-0.3-0.1c-0.1,0-0.1-0.1-0.2-0.1c-0.1,0-0.2-0.1-0.3-0.1
	c-0.1,0-0.2-0.1-0.3-0.1c-0.1,0-0.2,0-0.3,0c-0.1,0-0.1,0-0.2,0H153c-0.2,0-0.3,0-0.5,0c-0.3,0-0.3,0-0.5,0c-0.2,0-0.4,0-0.7,0
	c-0.2,0-0.4,0-0.5,0c-0.2,0-0.4,0-0.6,0c-0.2,0-0.5,0-0.7,0c-0.2,0-0.4,0-0.6,0c-0.3,0-0.3,0-0.7,0.1c-0.3,0-0.3,0-0.7,0
	c-0.2,0-0.5,0-0.7,0c-0.3,0-0.5,0.1-0.8,0.1c-0.3,0-0.5,0-0.8,0.1c-0.3,0-0.5,0.1-0.8,0.1c-0.4,0-0.4,0-0.8,0.1
	c-0.4,0-0.4,0-0.8,0.1c-0.3,0-0.5,0.1-0.8,0.1c-0.3,0-0.6,0.1-0.8,0.1c-0.3,0-0.5,0-0.8,0c-0.3,0-0.5,0-0.8,0h-5c-0.2,0-0.3,0-0.5,0
	c-0.2,0-0.2,0-0.5,0c-0.4,0-0.7-0.1-1.1-0.3c-0.8-0.5-1.1-1.7-0.2-2.4C132.8,208.2,133.7,208,134.3,208.5L134.3,208.5z"/>
<path fill="#505050" d="M120.8,249.3C120.8,249.3,120.8,249.3,120.8,249.3C120.8,249.3,120.8,249.3,120.8,249.3L120.8,249.3z
	 M118.6,232.3C118.6,232.3,118.6,232.3,118.6,232.3C118.6,232.3,118.6,232.3,118.6,232.3z M118.5,232.4
	C118.5,232.4,118.5,232.4,118.5,232.4C118.5,232.4,118.5,232.4,118.5,232.4z M85.3,210c0.6-0.5,1.5-0.4,1.9,0.2
	c0.2,0.3,0.3,0.7,0.3,1c0.1,0.1,0.2,0.1,0.3,0.2c0.1,0.1,0.3,0.2,0.4,0.3c0.2,0.2,0.2,0.2,0.5,0.4c0.2,0.1,0.4,0.3,0.6,0.4
	c0.2,0.2,0.4,0.3,0.6,0.5c0.2,0.1,0.4,0.3,0.7,0.5c0.3,0.2,0.6,0.4,0.8,0.6s0.5,0.4,0.9,0.6c0.3,0.2,0.6,0.5,1,0.7
	c0.3,0.2,0.6,0.4,1,0.6c0.3,0.2,0.7,0.4,1,0.7c0.4,0.2,0.7,0.5,1.2,0.7c0.4,0.3,0.8,0.5,1.2,0.7c0.4,0.2,0.8,0.4,1.2,0.7
	c0.5,0.2,0.9,0.5,1.4,0.8c0.5,0.3,0.9,0.5,1.3,0.7s0.8,0.5,1.2,0.7c0.4,0.2,0.8,0.4,1.3,0.7c0.5,0.3,0.9,0.5,1.3,0.7
	c0.4,0.2,0.7,0.4,1.1,0.6c0.4,0.2,0.8,0.4,1.2,0.6c0.4,0.2,0.7,0.4,1.1,0.5c0.3,0.2,0.6,0.3,1,0.4c0.5,0.2,0.5,0.2,1,0.4
	c0.3,0.1,0.6,0.3,0.9,0.4c0.3,0.1,0.5,0.2,0.8,0.4c0.3,0.1,0.6,0.3,0.9,0.4c0.3,0.1,0.5,0.2,0.8,0.3c0.3,0.1,0.5,0.2,0.7,0.3
	c0.2,0.1,0.4,0.2,0.6,0.3c0.3,0.1,0.3,0.1,0.6,0.2c0.2,0.1,0.4,0.1,0.5,0.2c0.1,0.1,0.3,0.1,0.5,0.2c0.2,0.1,0.3,0.1,0.5,0.2
	c0.2,0.1,0.2,0.1,0.4,0.2c0.2,0.1,0.3,0.1,0.4,0.2c0.1,0.1,0.3,0.1,0.4,0.2c0.1,0.1,0.3,0.1,0.4,0.2c0.1,0.1,0.3,0.2,0.4,0.2
	c0.1,0.1,0.3,0.2,0.4,0.3c0.1,0.1,0.3,0.2,0.4,0.4c0.2,0.2,0.3,0.3,0.4,0.5c0.1,0.2,0.2,0.4,0.3,0.5c0.1,0.2,0.2,0.4,0.2,0.6
	c0,0.2,0,0.2,0.1,0.3c0,0.2,0.1,0.4,0.1,0.6c0,0.1,0,0.3,0,0.4c0,0.3-0.1,0.5-0.2,0.8c0,0.1-0.1,0.2-0.1,0.2
	c-0.1,0.1-0.1,0.1-0.1,0.3c0,0.1,0,0.1-0.1,0.2c0,0.1,0,0.1-0.1,0.2c0,0.1,0,0.2-0.1,0.3c0,0.1,0,0.2,0,0.4c0,0.2,0,0.3-0.1,0.5
	c0,0.1,0,0.1,0,0.2c0,0.2,0,0.2,0,0.4c0,0.2,0,0.2,0,0.5c0,0.1,0,0.2,0,0.4c0,0.3,0,0.3,0,0.5c0,0.2,0,0.3,0,0.5c0,0.3,0,0.3,0,0.6
	c0,0.2,0,0.4,0,0.6c0,0.2,0,0.4,0,0.7c0,0.2,0,0.4,0,0.6v0.6c0,0.2,0,0.5,0,0.7c0,0.2,0,0.3,0,0.5v4.4c0,0.1,0,0.2,0,0.2
	c0,0.2,0,0.2,0,0.4c0,0.1,0,0.2,0,0.3c0,0.2,0.1,0.3,0.1,0.4c0,0,0,0.1,0,0.2c0.2,0.1,0.3,0.1,0.4,0c0.2,0,0.3,0,0.5-0.1
	c0.2,0,0.2,0,0.4,0c0.1,0,0.3,0,0.4,0h0.8c0.2,0,0.4,0,0.6,0c0.3,0,0.5,0.1,0.7,0.1c0.1,0,0.3,0.1,0.4,0.1c0.2,0.1,0.3,0.1,0.4,0.1
	c0.2,0.1,0.3,0.1,0.5,0.1c0.2,0,0.3,0.1,0.5,0.2c0.1,0,0.3,0.1,0.4,0.1c0.2,0.1,0.2,0.1,0.4,0.1c0.2,0.1,0.2,0.1,0.4,0.1
	c0.1,0,0.2,0,0.3,0.1c0.1,0,0.2,0,0.3,0.1c0.2,0,0.2,0,0.3,0.1c0.1,0,0.1,0,0.2,0l0.2,0c0.8,0,1.3,0.7,1.3,1.4
	c-0.1,0.8-0.7,1.3-1.5,1.3l-0.2,0c-0.2,0-0.3,0-0.5,0c-0.2,0-0.2,0-0.3-0.1c-0.1,0-0.3,0-0.4-0.1c-0.2,0-0.3-0.1-0.5-0.1
	c-0.2-0.1-0.2-0.1-0.5-0.1c-0.2-0.1-0.2-0.1-0.4-0.1c-0.1,0-0.3-0.1-0.5-0.1c-0.1,0-0.3-0.1-0.4-0.1c-0.2,0-0.2-0.1-0.4-0.1
	c-0.1,0-0.3-0.1-0.5-0.1c-0.2-0.1-0.4-0.1-0.5-0.1c0,0-0.1,0-0.2,0c-0.1,0-0.2,0-0.3,0h-0.8c-0.1,0-0.2,0-0.3,0c-0.2,0-0.2,0-0.4,0
	c-0.1,0-0.1,0-0.2,0c-0.1,0-0.2,0-0.3,0.1c-0.2,0-0.4,0.1-0.5,0.1c-0.2,0-0.4,0.1-0.6,0.1h-0.3c-0.6,0-1.1-0.3-1.4-0.8
	c-0.2-0.3-0.2-0.6-0.2-0.9c0,0,0-0.1,0-0.1c0-0.1-0.1-0.2-0.1-0.3c-0.1-0.2-0.1-0.3-0.1-0.5c0-0.1,0-0.2-0.1-0.3
	c0-0.2-0.1-0.4-0.1-0.6c0-0.2,0-0.2,0-0.4c0-0.1,0-0.3,0-0.4v-4.4c0-0.2,0-0.4,0-0.6c0-0.2,0-0.3,0-0.5v-0.6c0-0.2,0-0.4,0-0.7
	c0-0.2,0-0.4,0-0.6c0-0.2,0-0.4,0-0.7c0-0.3,0-0.3,0-0.6c0-0.2,0-0.4,0-0.6c0-0.3,0-0.3,0-0.5c0-0.2,0-0.4,0-0.5c0-0.2,0-0.2,0-0.4
	c0-0.2,0-0.2,0-0.4c0-0.2,0-0.3,0-0.4c0-0.1,0-0.2,0-0.4c0-0.2,0-0.4,0.1-0.6c0-0.2,0-0.3,0.1-0.4c0-0.1,0-0.3,0.1-0.4
	c0-0.2,0.1-0.3,0.1-0.5c0.1-0.2,0.1-0.2,0.1-0.3c0-0.1,0.1-0.2,0.1-0.3c0-0.3,0-0.3-0.1-0.4c-0.1-0.1-0.2-0.2-0.2-0.3
	c-0.1-0.1-0.1-0.1-0.2-0.2c0,0-0.1-0.1-0.2-0.1c-0.1-0.1-0.1-0.1-0.2-0.2c-0.1-0.1-0.2-0.1-0.3-0.2c-0.1-0.1-0.2-0.1-0.3-0.2
	c-0.1-0.1-0.2-0.1-0.3-0.1c-0.2-0.1-0.2-0.1-0.4-0.2c-0.1-0.1-0.3-0.1-0.4-0.2c-0.2-0.1-0.4-0.1-0.6-0.2c-0.2-0.1-0.3-0.1-0.5-0.2
	c-0.3-0.1-0.3-0.1-0.6-0.3c-0.3-0.1-0.5-0.2-0.7-0.3c-0.2-0.1-0.4-0.2-0.7-0.3c-0.3-0.1-0.5-0.2-0.8-0.3c-0.3-0.1-0.5-0.2-0.8-0.4
	c-0.3-0.1-0.6-0.3-0.9-0.4c-0.3-0.1-0.5-0.2-0.9-0.4c-0.5-0.2-0.5-0.2-1-0.4c-0.3-0.2-0.7-0.3-1-0.5c-0.3-0.2-0.7-0.3-1.1-0.5
	c-0.4-0.2-0.8-0.4-1.2-0.6c-0.4-0.2-0.8-0.4-1.2-0.6c-0.4-0.2-0.8-0.4-1.3-0.7c-0.5-0.3-0.9-0.5-1.3-0.7c-0.4-0.2-0.8-0.4-1.2-0.7
	c-0.4-0.2-0.9-0.5-1.4-0.8c-0.5-0.3-0.9-0.5-1.4-0.8c-0.5-0.2-0.9-0.5-1.2-0.7c-0.4-0.2-0.8-0.4-1.2-0.7c-0.5-0.3-0.9-0.5-1.2-0.8
	c-0.4-0.2-0.7-0.5-1.1-0.7c-0.3-0.2-0.7-0.5-1-0.7c-0.4-0.2-0.7-0.5-1-0.7c-0.3-0.2-0.6-0.4-0.9-0.6c-0.3-0.2-0.6-0.4-0.9-0.6
	c-0.3-0.2-0.6-0.4-0.8-0.6c-0.2-0.2-0.4-0.3-0.6-0.5c-0.2-0.2-0.4-0.3-0.6-0.4c-0.2-0.2-0.2-0.2-0.5-0.4c-0.2-0.1-0.3-0.2-0.4-0.3
	c-0.1-0.1-0.2-0.1-0.3-0.2c-0.1-0.1-0.2-0.2-0.4-0.2c-0.1,0-0.1-0.1-0.2-0.2c-0.4-0.2-0.6-0.5-0.8-0.9c-0.3-0.7-0.1-1.6,0.7-2
	C85.2,210.1,85.2,210.1,85.3,210L85.3,210z"/>
<path d="M160.5,185.5C160.5,185.5,160.5,185.5,160.5,185.5C160.5,185.5,160.5,185.5,160.5,185.5z M160.6,181.4c-0.1,0-0.1,0-0.2-0.1
	c-0.1,0-0.1,0-0.2,0c-0.1,0-0.1,0-0.2,0c-0.1,0-0.1,0-0.2,0h-0.3c0,0-0.1,0-0.1,0c0,0-0.1,0-0.1,0.1c-0.1,0-0.2,0.1-0.2,0.1
	c-0.1,0-0.1,0.1-0.2,0.1c0,0,0,0,0,0c0,0.1,0,0.3,0,0.4c0,0,0,0.1,0,0.1c0,0,0,0.1,0.1,0.2c0,0.1,0,0.1,0.1,0.3c0,0.1,0,0.1,0.1,0.2
	c0,0.1,0,0.1,0.1,0.2c0,0.1,0.1,0.1,0.1,0.2c0,0.1,0.1,0.1,0.1,0.2c0,0.1,0.1,0.1,0.2,0.2c0.1,0.1,0.2,0.3,0.3,0.4
	c0.1,0.1,0.1,0.2,0.1,0.2c0-0.1,0.1-0.2,0.1-0.3c0-0.1,0.1-0.3,0.1-0.4c0.1-0.3,0.1-0.3,0.1-0.5c0-0.2,0.1-0.3,0.1-0.5
	c0.1-0.3,0.1-0.3,0.1-0.6c0-0.1,0.1-0.2,0.1-0.3C160.7,181.5,160.7,181.4,160.6,181.4z M157.2,179.5c-0.3-0.2-0.5-0.5-0.7-0.9
	c-0.1-0.2-0.2-0.4-0.2-0.7c0-0.2-0.1-0.4-0.1-0.5c0-0.2,0-0.2-0.1-0.4c0-0.2,0-0.2-0.1-0.5c0-0.3,0-0.3-0.1-0.5
	c0-0.2-0.1-0.4-0.1-0.6c0-0.3,0-0.3-0.1-0.6c0-0.2-0.1-0.5-0.1-0.8c0-0.3,0-0.5-0.1-0.8c0-0.4,0-0.4-0.1-0.9c0-0.4,0-0.7-0.1-1.1
	c0-0.3,0-0.7,0-1.1c0-0.4,0-0.8,0-1.2c0-0.4,0-0.8,0-1.3c0-0.5,0-0.9,0-1.2v-6.9c0-0.3,0-0.6,0-1c0-0.3,0-0.6,0-0.9v-2.4
	c0-0.3,0-0.5,0-0.7c0-0.3,0-0.5,0.1-0.8c0-0.2,0.1-0.4,0.1-0.6c0-0.2,0.1-0.4,0.1-0.6c0.1-0.2,0.1-0.3,0.1-0.5
	c0.1-0.2,0.1-0.4,0.2-0.5c0.1-0.2,0.2-0.4,0.4-0.5c0.2-0.3,0.5-0.5,0.9-0.6c0.2-0.1,0.5-0.1,0.7-0.1c0.4,0,0.8,0.2,1.1,0.5
	c0.2,0.2,0.3,0.3,0.5,0.5c0.1,0.1,0.2,0.3,0.3,0.4c0.1,0.2,0.2,0.3,0.3,0.5c0.1,0.2,0.1,0.4,0.2,0.6c0.1,0.2,0.1,0.4,0.2,0.7
	c0,0.2,0.1,0.4,0.1,0.7c0,0.3,0.1,0.5,0.1,0.7c0,0.2,0.1,0.5,0.1,0.8c0,0.3,0.1,0.6,0.1,0.9c0,0.3,0,0.6,0,0.9c0,0.4,0,0.4,0,0.8
	c0,0.4,0,0.4,0,0.9c0,0.5,0,0.5,0,0.9c0,0.3,0,0.6,0,0.9c0,0.3,0,0.7,0.1,1c0,0.3,0,0.7,0.1,1.1c0,0.4,0.1,0.7,0.1,1
	c0,0.3,0.1,0.7,0.1,1.1c0,0.4,0.1,0.7,0.1,1c0,0.3,0.1,0.7,0.1,1c0,0.4,0.1,0.7,0.1,1c0,0.3,0.1,0.7,0.1,1c0.1,0.5,0.1,0.5,0.1,0.9
	c0,0.2,0.1,0.5,0.1,0.8c0,0.3,0.1,0.5,0.1,0.8c0,0.2,0.1,0.5,0.1,0.7c0,0.2,0.1,0.3,0.1,0.7c0,0.2,0.1,0.4,0.1,0.6
	c0.1,0.3,0.1,0.3,0.1,0.6c0,0.2,0.1,0.4,0.1,0.6c0,0.2,0.1,0.3,0.1,0.4c0,0.2,0,0.2,0.1,0.4c0,0.2,0,0.2,0.1,0.4
	c0,0.2,0,0.2,0.1,0.4c0.3,0.2,0.5,0.7,0.5,1.1v0.1c0,0.1,0,0.3,0,0.4c0,0.2,0,0.4,0,0.5l0,0.3c0,0.2,0,0.2-0.1,0.4
	c0,0.1,0,0.3-0.1,0.4c0,0.1-0.1,0.3-0.1,0.5c-0.1,0.2-0.1,0.2-0.1,0.5c0,0.2-0.1,0.4-0.1,0.5c0,0.2-0.1,0.4-0.1,0.6
	c0,0.2-0.1,0.3-0.1,0.5c-0.1,0.3-0.1,0.3-0.1,0.6c0,0.2-0.1,0.4-0.2,0.6c-0.1,0.3-0.1,0.3-0.2,0.5c-0.1,0.2-0.1,0.4-0.2,0.5
	c-0.1,0.2-0.1,0.3-0.2,0.5c0,0.1-0.1,0.3-0.1,0.4c-0.1,0.2-0.1,0.3-0.2,0.4c-0.1,0.1-0.1,0.3-0.2,0.4c-0.1,0.2-0.3,0.4-0.4,0.5
	c-0.2,0.2-0.4,0.4-0.6,0.5c-0.3,0.2-0.6,0.2-0.9,0.2c-0.2,0-0.4,0-0.6-0.1c-0.3-0.1-0.6-0.3-0.9-0.6c-0.2-0.2-0.3-0.5-0.4-0.8
	c0-0.1-0.1-0.3-0.1-0.4c0-0.1,0-0.2-0.1-0.2c0,0,0,0,0-0.1c0,0,0-0.1-0.1-0.1c-0.1-0.1-0.2-0.2-0.3-0.3s-0.2-0.2-0.3-0.4
	c-0.1-0.1-0.2-0.3-0.3-0.4c-0.1-0.1-0.1-0.3-0.2-0.4c-0.1-0.1-0.1-0.3-0.2-0.4c0-0.2,0-0.2-0.1-0.3c0-0.1,0-0.1-0.1-0.3
	c-0.1-0.3-0.2-0.7-0.1-1.1c0-0.1,0-0.1,0-0.2c0-0.1,0-0.1,0-0.2c0-0.2,0-0.3,0.1-0.5c0-0.2,0.1-0.4,0.2-0.6c0.1-0.2,0.2-0.4,0.4-0.5
	C157.1,179.7,157.2,179.6,157.2,179.5C157.3,179.5,157.3,179.5,157.2,179.5L157.2,179.5z M160.7,179.2L160.7,179.2
	C160.7,179.2,160.7,179.2,160.7,179.2z M159.3,178.6c0.1,0,0.1,0,0.2,0h0.3c0.1,0,0.3,0,0.4,0c0.2,0,0.2,0,0.3,0
	c0.1,0,0.3,0,0.4,0.1c0,0,0,0,0,0v-0.2c0-0.1,0-0.2,0-0.3c0-0.2,0-0.2,0-0.4c0-0.1,0-0.2,0-0.3c0-0.2,0-0.2,0-0.3c0-0.1,0-0.1,0-0.3
	c0-0.2,0-0.2-0.1-0.4c0-0.2,0-0.2-0.1-0.4c0-0.2,0-0.2-0.1-0.4c0-0.1-0.1-0.3-0.1-0.5c0-0.2-0.1-0.3-0.1-0.5
	c-0.1-0.3-0.1-0.3-0.1-0.5c0-0.2-0.1-0.4-0.1-0.7c-0.1-0.3-0.1-0.4-0.1-0.7c0-0.2-0.1-0.5-0.1-0.7c0-0.3-0.1-0.5-0.1-0.8
	c0-0.3-0.1-0.6-0.1-0.8c-0.1-0.4-0.1-0.4-0.1-0.9c0-0.3-0.1-0.7-0.1-1c0-0.3-0.1-0.7-0.1-1.1c-0.1-0.4-0.1-0.7-0.1-1.1
	c0-0.3-0.1-0.7-0.1-1.1c0-0.4-0.1-0.7-0.1-1.1c0-0.4-0.1-0.7-0.1-1.1c0-0.4-0.1-0.7-0.1-1.1c0-0.4,0-0.7-0.1-1c0-0.3,0-0.7,0-0.9
	c0-0.4,0-0.4,0-0.9c0-0.5,0-0.5,0-1c0-0.4,0-0.4,0-0.9c0-0.3,0-0.5,0-0.8c0-0.2,0-0.5-0.1-0.8c0-0.3-0.1-0.5-0.1-0.6
	c0-0.2-0.1-0.3-0.1-0.5c0-0.2-0.1-0.4-0.1-0.6c0-0.1,0-0.2-0.1-0.2c0,0.1,0,0.1,0,0.2c0,0.2,0,0.3,0,0.4c0,0.2,0,0.4,0,0.6v2.4
	c0,0.3,0,0.5,0,0.9c0,0.3,0,0.7,0,1v6.9c0,0.3,0,0.7,0,1.2c0,0.5,0,0.9,0,1.3c0,0.4,0,0.8,0,1.2c0,0.4,0,0.7,0,1.1c0,0.3,0,0.6,0,1
	c0,0.5,0,0.5,0.1,0.9c0,0.3,0,0.5,0.1,0.8c0,0.2,0,0.5,0.1,0.7c0,0.3,0,0.3,0.1,0.6c0,0.2,0,0.4,0.1,0.5c0,0.2,0,0.2,0.1,0.5
	c0,0.2,0,0.2,0.1,0.4c0,0.2,0,0.2,0.1,0.4c0,0.1,0,0.2,0.1,0.4c0,0,0,0.1,0,0.1C159.2,177.7,159.4,178.1,159.3,178.6L159.3,178.6z
	 M158.9,177.4C158.9,177.5,158.9,177.5,158.9,177.4L158.9,177.4L158.9,177.4z"/>
<path d="M153.4,175C153.4,175,153.4,175,153.4,175C153.4,175,153.4,175,153.4,175z M149.5,185C149.5,185,149.5,185,149.5,185
	C149.5,185,149.5,185,149.5,185z M157,186.7L157,186.7L157,186.7z M153.3,175.2c0,0.1-0.1,0.1-0.1,0.2c-0.1,0.1-0.1,0.1-0.1,0.2
	c-0.1,0.2-0.1,0.2-0.1,0.4c-0.1,0.1-0.1,0.3-0.2,0.4c-0.1,0.3-0.1,0.3-0.2,0.5c-0.1,0.2-0.1,0.4-0.2,0.6c-0.1,0.2-0.1,0.4-0.2,0.6
	c-0.1,0.3-0.1,0.3-0.2,0.6c-0.1,0.2-0.1,0.4-0.2,0.7c-0.1,0.2-0.2,0.5-0.2,0.6c-0.1,0.3-0.1,0.3-0.2,0.6c-0.1,0.2-0.2,0.4-0.2,0.6
	c-0.1,0.2-0.1,0.4-0.2,0.6c-0.1,0.2-0.1,0.4-0.2,0.6c-0.1,0.2-0.1,0.2-0.2,0.5c-0.1,0.2-0.1,0.2-0.2,0.4c0,0.1,0,0.1-0.1,0.1
	c0.1,0,0.2,0.1,0.4,0.1c0.2,0.1,0.2,0.1,0.3,0.1c0.2,0.1,0.3,0.1,0.5,0.2c0.1,0.1,0.2,0.1,0.3,0.2c0.1,0.1,0.3,0.1,0.5,0.2
	c0.2,0.1,0.2,0.1,0.4,0.3c0.1,0.1,0.3,0.2,0.4,0.2c0.2,0.1,0.3,0.2,0.4,0.2c0.1,0.1,0.2,0.1,0.4,0.2c0.2,0.1,0.3,0.2,0.5,0.3
	c0.1,0.1,0.2,0.1,0.3,0.2c0.2,0.1,0.2,0.1,0.4,0.2c0.1,0.1,0.3,0.1,0.4,0.2c0.1,0,0.1,0.1,0.2,0.1c0.1,0.1,0.3,0.1,0.4,0.2
	c0.2,0.1,0.2,0.1,0.4,0.2c0,0,0,0,0,0c0-0.1,0.1-0.2,0.1-0.2c0.1-0.2,0.1-0.2,0.1-0.4c0.1-0.2,0.1-0.2,0.1-0.4
	c0-0.1,0.1-0.2,0.1-0.3c0-0.2,0.1-0.3,0.1-0.5c0.1-0.2,0.1-0.2,0.1-0.4c0.1-0.2,0.1-0.2,0.1-0.4c0.1-0.2,0.1-0.2,0.1-0.4
	c0-0.1,0.1-0.3,0.1-0.5c0-0.2,0.1-0.3,0.1-0.5c0-0.2,0.1-0.3,0.1-0.5c0-0.1,0.1-0.3,0.1-0.5c0.1-0.3,0.1-0.3,0.1-0.5
	c0.1-0.3,0.1-0.3,0.1-0.5c0.1-0.3,0.1-0.3,0.1-0.5c0-0.2,0.1-0.3,0.1-0.5c0.1-0.3,0.1-0.3,0.1-0.5c0.1-0.3,0.1-0.3,0.1-0.5
	c0-0.2,0.1-0.4,0.2-0.5c0.1-0.3,0.1-0.3,0.1-0.5c0-0.1,0.1-0.2,0.1-0.4c0.1-0.2,0.1-0.2,0.1-0.4c0.1-0.2,0.1-0.2,0.1-0.3
	c0,0,0-0.1,0-0.2c0-0.2,0-0.2,0.1-0.4c0-0.1,0-0.2,0-0.2v0c-0.1,0-0.1,0-0.2-0.1c-0.2,0-0.3-0.1-0.4-0.1c-0.1,0-0.2,0-0.3,0
	c-0.1,0-0.2,0-0.3,0c-0.2,0-0.2,0-0.3,0c-0.1,0-0.2,0-0.3,0c-0.1,0-0.2,0-0.3,0H156c-0.1,0-0.2,0-0.2,0c0,0-0.1,0-0.1,0
	c-0.1,0-0.2,0-0.3,0.1c-0.1,0-0.2,0.1-0.3,0.1l-0.2,0.1c-0.5,0.1-1,0-1.3-0.4C153.4,175.1,153.4,175.1,153.3,175.2L153.3,175.2z
	 M149.2,185.9c-0.1,0-0.1,0-0.2,0c-0.3,0.1-0.6,0-0.9,0c-0.9-0.2-1.4-1.2-1-2.1c0.1-0.1,0.1-0.1,0.2-0.3c0.1-0.2,0.1-0.2,0.2-0.4
	c0-0.1,0.1-0.1,0.1-0.2c0.1-0.1,0.1-0.1,0.2-0.3c0.1-0.2,0.1-0.2,0.2-0.4c0.1-0.2,0.1-0.2,0.2-0.4c0.1-0.2,0.1-0.2,0.2-0.5
	c0.1-0.1,0.1-0.3,0.2-0.5c0.1-0.2,0.1-0.4,0.2-0.6c0.1-0.2,0.1-0.4,0.2-0.6c0.1-0.3,0.1-0.3,0.2-0.6c0.1-0.2,0.1-0.4,0.2-0.6
	s0.1-0.4,0.2-0.6c0.1-0.3,0.1-0.3,0.2-0.6c0.1-0.2,0.1-0.4,0.2-0.6c0.1-0.2,0.1-0.4,0.2-0.6c0.1-0.3,0.1-0.3,0.2-0.5
	c0.1-0.2,0.1-0.3,0.2-0.5c0.1-0.2,0.1-0.2,0.2-0.4c0.1-0.2,0.1-0.2,0.1-0.3c0.1-0.1,0.1-0.3,0.2-0.5c0.1-0.2,0.2-0.4,0.4-0.5
	c0.2-0.2,0.4-0.4,0.6-0.5c0.3-0.2,0.7-0.2,1.1-0.2c0.4,0,0.7,0.2,1,0.5l0.1,0c0.1,0,0.3-0.1,0.5-0.1c0.2,0,0.3-0.1,0.4-0.1
	c0.2,0,0.3,0,0.4-0.1c0.1,0,0.2,0,0.4,0h1.4c0.1,0,0.3,0,0.4,0c0.1,0,0.3,0,0.4,0c0.2,0,0.2,0,0.4,0c0.1,0,0.3,0,0.4,0
	c0.1,0,0.3,0,0.4,0c0.1,0,0.3,0.1,0.5,0.1c0.3,0.1,0.5,0.1,0.7,0.2c0.2,0.1,0.4,0.2,0.6,0.3c0.2,0.2,0.4,0.3,0.6,0.5
	c0.2,0.3,0.4,0.6,0.4,1c0,0.2,0,0.4,0,0.6c0,0.2,0,0.3,0,0.5c0,0.2-0.1,0.4-0.1,0.6c-0.1,0.2-0.1,0.2-0.1,0.3c0,0.1-0.1,0.3-0.1,0.4
	c-0.1,0.1-0.1,0.1-0.1,0.3c-0.1,0.2-0.1,0.2-0.1,0.3c0,0.2-0.1,0.3-0.1,0.5c-0.1,0.2-0.1,0.2-0.1,0.4c0,0.2-0.1,0.3-0.1,0.4
	c-0.1,0.2-0.1,0.2-0.1,0.5c-0.1,0.3-0.1,0.3-0.1,0.5c-0.1,0.2-0.1,0.4-0.2,0.5c-0.1,0.3-0.1,0.3-0.1,0.5c-0.1,0.3-0.1,0.3-0.1,0.5
	c-0.1,0.3-0.1,0.3-0.1,0.5c-0.1,0.2-0.1,0.4-0.1,0.5c0,0.1-0.1,0.3-0.1,0.4c0,0.2-0.1,0.3-0.1,0.5c0,0.2-0.1,0.3-0.1,0.5
	c-0.1,0.2-0.1,0.2-0.1,0.4c-0.1,0.2-0.1,0.2-0.1,0.5c-0.1,0.2-0.1,0.2-0.1,0.4c0,0.1-0.1,0.2-0.1,0.4c0,0.2-0.1,0.4-0.1,0.5
	c-0.1,0.2-0.1,0.2-0.1,0.4c-0.1,0.2-0.1,0.2-0.1,0.4c-0.1,0.2-0.1,0.3-0.2,0.5c-0.1,0.2-0.2,0.5-0.3,0.6c-0.2,0.3-0.3,0.5-0.6,0.7
	c-0.3,0.2-0.7,0.4-1.1,0.4c-0.2,0-0.3,0-0.5,0c-0.2,0-0.4-0.1-0.6-0.1c-0.2-0.1-0.3-0.1-0.5-0.2c-0.2-0.1-0.2-0.1-0.4-0.2
	c-0.1,0-0.2-0.1-0.3-0.1c-0.1-0.1-0.3-0.1-0.4-0.2c-0.1-0.1-0.2-0.1-0.3-0.2c-0.2-0.1-0.2-0.1-0.4-0.2c-0.1-0.1-0.3-0.2-0.5-0.2
	c-0.1-0.1-0.3-0.2-0.4-0.2c-0.2-0.1-0.3-0.2-0.5-0.3c-0.1-0.1-0.2-0.1-0.4-0.2c-0.2-0.1-0.3-0.2-0.5-0.3c-0.2-0.1-0.2-0.1-0.4-0.3
	c-0.1-0.1-0.2-0.1-0.3-0.2c-0.1-0.1-0.3-0.1-0.4-0.2c-0.1-0.1-0.2-0.1-0.3-0.1c-0.2-0.1-0.2-0.1-0.3-0.1c-0.1,0-0.1-0.1-0.2-0.1
	H149.2L149.2,185.9z"/>
<path d="M185.8,166.7C185.8,166.7,185.8,166.7,185.8,166.7C185.8,166.7,185.8,166.7,185.8,166.7z M185.5,168.2
	C185.5,168.2,185.5,168.2,185.5,168.2C185.5,168.2,185.5,168.2,185.5,168.2z M186.9,169.2c-0.1,0.2-0.1,0.2-0.2,0.4
	c0,0.1-0.1,0.1-0.1,0.3c-0.1,0.2-0.1,0.2-0.2,0.4c0,0.1-0.1,0.2-0.1,0.3c0,0.1-0.1,0.3-0.2,0.4c-0.1,0.2-0.1,0.3-0.2,0.4
	c-0.1,0.2-0.1,0.3-0.2,0.5c-0.1,0.2-0.1,0.3-0.1,0.4c-0.1,0.2-0.1,0.2-0.2,0.5c-0.1,0.2-0.1,0.3-0.2,0.5c-0.1,0.2-0.1,0.2-0.2,0.4
	c-0.1,0.2-0.1,0.2-0.1,0.3c-0.1,0.2-0.1,0.2-0.1,0.4c0,0.1-0.1,0.2-0.1,0.3c-0.1,0.2-0.1,0.2-0.1,0.4c-0.1,0.2-0.1,0.3-0.1,0.5
	c0,0.1,0,0.2-0.1,0.3c0,0.1,0,0.2,0,0.4c0,0.2,0,0.3-0.1,0.5c0,0.2-0.1,0.4-0.1,0.5c-0.1,0.2-0.2,0.4-0.3,0.6
	c-0.1,0.2-0.3,0.4-0.5,0.5c-0.2,0.1-0.3,0.3-0.5,0.3c-0.1,0.1-0.1,0.1-0.3,0.1c-0.1,0.1-0.3,0.1-0.4,0.2c-0.1,0-0.3,0.1-0.4,0.1
	c-0.2,0-0.3,0.1-0.5,0.1c-0.2,0-0.4,0.1-0.6,0.1c-0.2,0-0.3,0-0.5,0h-0.4c-0.1,0-0.3,0-0.5,0c-0.2,0-0.4,0-0.5,0
	c-0.2,0-0.2,0-0.4-0.1c-0.2,0-0.4,0-0.6-0.1c-0.2,0-0.4-0.1-0.6-0.1c-0.2,0-0.4-0.1-0.5-0.1c-0.2,0-0.4-0.1-0.5-0.2
	c-0.2-0.1-0.4-0.1-0.5-0.2c-0.2-0.1-0.2-0.1-0.5-0.2c-0.2-0.1-0.3-0.1-0.5-0.2c-0.2-0.1-0.2-0.1-0.4-0.2c-0.2-0.1-0.2-0.1-0.3-0.1
	l-0.3-0.1c-0.1,0-0.1,0-0.2-0.1c-0.1,0-0.2,0-0.4,0c-0.1,0-0.2,0-0.3,0c-0.1,0-0.1,0-0.2,0.1c-0.2,0.1-0.5,0.2-0.8,0.2
	c-0.7,0-1.4-0.6-1.4-1.3c0-0.1,0-0.3,0-0.5c0-0.1,0-0.3,0.1-0.4c0-0.2,0.1-0.3,0.1-0.5c0-0.1,0-0.1,0.1-0.2c0-0.1,0.1-0.3,0.1-0.4
	c0-0.2,0-0.2,0.1-0.3c0-0.2,0-0.2,0.1-0.4c0-0.1,0.1-0.3,0.1-0.4c0-0.1,0.1-0.3,0.1-0.4c0-0.2,0.1-0.3,0.1-0.5
	c0-0.2,0.1-0.4,0.1-0.6c0.1-0.3,0.1-0.3,0.1-0.6c0-0.2,0.1-0.4,0.1-0.6c0.1-0.3,0.1-0.3,0.1-0.6c0-0.2,0.1-0.3,0.1-0.6
	c0-0.2,0.1-0.4,0.1-0.5c0-0.2,0.1-0.4,0.1-0.5c0-0.2,0.1-0.3,0.1-0.5c0-0.2,0-0.2,0.1-0.4c0-0.1,0.1-0.3,0.1-0.4
	c0-0.2,0.1-0.3,0.1-0.4c0.1-0.3,0.3-0.5,0.5-0.7c0.2-0.2,0.4-0.3,0.7-0.5c0.6-0.4,1.3-0.3,1.7,0.3c0.4,0.6,0.2,1.4-0.3,1.8
	c-0.1,0.1-0.2,0.2-0.3,0.2c0,0.1,0,0.2-0.1,0.3c0,0.2,0,0.2-0.1,0.4c0,0.1,0,0.2-0.1,0.4c0,0.1,0,0.3-0.1,0.4c0,0.2-0.1,0.4-0.1,0.6
	c0,0.2-0.1,0.4-0.1,0.6c-0.1,0.3-0.1,0.3-0.1,0.6c0,0.2-0.1,0.5-0.1,0.6c-0.1,0.3-0.1,0.3-0.1,0.6c0,0.2-0.1,0.4-0.1,0.6
	c0,0.2-0.1,0.4-0.1,0.6c0,0.2-0.1,0.3-0.1,0.5c0,0.1-0.1,0.3-0.1,0.5c-0.1,0.2-0.1,0.2-0.1,0.4c0,0.1,0,0.2-0.1,0.2h0.3
	c0.2,0,0.4,0,0.5,0.1c0.1,0,0.3,0.1,0.4,0.1c0.2,0.1,0.2,0.1,0.4,0.1c0.2,0.1,0.2,0.1,0.4,0.2c0.2,0.1,0.2,0.1,0.4,0.2
	c0.1,0.1,0.3,0.1,0.4,0.2c0.2,0.1,0.2,0.1,0.4,0.2c0.1,0.1,0.3,0.1,0.4,0.2c0.1,0,0.3,0.1,0.4,0.1c0.1,0,0.3,0.1,0.5,0.1
	c0.2,0,0.3,0.1,0.4,0.1c0.1,0,0.3,0,0.4,0.1c0.2,0,0.2,0,0.4,0c0.1,0,0.2,0,0.4,0c0.2,0,0.3,0,0.4,0h0.4c0.1,0,0.3,0,0.4,0
	c0.1,0,0.1,0,0.2,0c0.1,0,0.1,0,0.2-0.1c0.1,0,0.2,0,0.2-0.1c0.1,0,0.1,0,0.2-0.1c0.1,0,0.1,0,0.2-0.1c0,0,0,0,0.1-0.1
	c0,0,0,0,0-0.1c0-0.1,0-0.2,0-0.3c0-0.2,0-0.3,0.1-0.5c0-0.2,0.1-0.4,0.1-0.6c0-0.2,0.1-0.4,0.2-0.6c0.1-0.3,0.1-0.3,0.1-0.4
	c0-0.1,0.1-0.2,0.1-0.4c0.1-0.2,0.1-0.2,0.1-0.3c0.1-0.2,0.1-0.2,0.1-0.4c0.1-0.2,0.1-0.2,0.2-0.4c0-0.1,0.1-0.3,0.1-0.4
	c0.1-0.2,0.1-0.2,0.1-0.4c0.1-0.2,0.1-0.3,0.2-0.5c0.1-0.2,0.1-0.3,0.2-0.5c0.1-0.2,0.1-0.2,0.2-0.5c0.1-0.1,0.1-0.3,0.1-0.4
	c0-0.1,0.1-0.3,0.2-0.4c0.1-0.2,0.1-0.2,0.1-0.4c0.1-0.1,0.1-0.3,0.1-0.4c0.1-0.2,0.1-0.2,0.2-0.4c0.1-0.1,0.1-0.3,0.2-0.4
	c-0.1,0-0.1,0-0.2-0.1c-0.1,0-0.1-0.1-0.2-0.1c-0.1-0.1-0.3-0.1-0.4-0.2c-0.2-0.1-0.2-0.1-0.3-0.1c-0.1,0-0.2-0.1-0.3-0.1
	c-0.1,0-0.2-0.1-0.3-0.1c-0.1,0-0.3-0.1-0.4-0.1c-0.1,0-0.2-0.1-0.4-0.1c-0.1,0-0.3-0.1-0.4-0.1c-0.1,0-0.2-0.1-0.4-0.1
	c-0.1,0-0.3-0.1-0.4-0.1c-0.1,0-0.2,0-0.3,0c-0.1,0-0.2,0-0.4,0c-0.2,0-0.2,0-0.4,0c-0.2,0-0.2,0-0.4,0c-0.1,0-0.2,0-0.2,0
	c-0.1,0-0.1,0-0.2,0h-1.5c-0.7,0-1.3-0.6-1.3-1.3c0-0.7,0.6-1.3,1.3-1.3h1.5c0.1,0,0.2,0,0.3,0c0.1,0,0.3,0,0.4,0c0.2,0,0.2,0,0.3,0
	c0.2,0,0.2,0,0.4,0c0.1,0,0.3,0,0.4,0c0.2,0,0.3,0,0.5,0.1c0.2,0,0.3,0,0.5,0.1c0.2,0,0.3,0.1,0.5,0.1c0.1,0,0.3,0.1,0.5,0.1
	c0.2,0,0.3,0.1,0.5,0.1c0.1,0,0.2,0.1,0.4,0.1c0.2,0,0.3,0.1,0.5,0.2c0.1,0.1,0.3,0.1,0.4,0.2c0.2,0.1,0.2,0.1,0.4,0.2
	c0.1,0,0.2,0.1,0.3,0.1c0.1,0.1,0.3,0.1,0.4,0.2c0.1,0,0.1,0.1,0.2,0.1c0.2,0.1,0.2,0.1,0.3,0.1c0.1,0,0.2,0.1,0.4,0.2
	c0.2,0.1,0.4,0.2,0.5,0.4c0.3,0.2,0.5,0.6,0.6,0.9c0.1,0.4,0.1,0.8-0.1,1.2c-0.1,0.3-0.3,0.5-0.5,0.6
	C186.9,169,186.9,169.1,186.9,169.2L186.9,169.2z M187,168.8C187.1,168.8,187.1,168.8,187,168.8C187.1,168.8,187.1,168.8,187,168.8z
	"/>
<path fill="#27B04B" d="M178.1,197L178.1,197L178.1,197L178.1,197z M173.3,185.6c-0.2,0.2-0.3,0.3-0.3,0.3c0,0.1-0.1,0.1-0.1,0.2
	c0,0.1-0.1,0.1-0.1,0.2c-0.1,0.2-0.1,0.2-0.2,0.4c0,0.1-0.1,0.2-0.1,0.3c-0.1,0.2-0.1,0.3-0.2,0.5c-0.1,0.1-0.1,0.3-0.1,0.4
	c-0.1,0.2-0.1,0.2-0.2,0.5c-0.1,0.3-0.1,0.3-0.2,0.6c-0.1,0.2-0.1,0.4-0.2,0.6c-0.1,0.2-0.1,0.4-0.2,0.5c-0.1,0.2-0.1,0.4-0.2,0.5
	c-0.1,0.2-0.1,0.2-0.2,0.5c-0.1,0.2-0.1,0.2-0.2,0.5c-0.1,0.2-0.1,0.3-0.1,0.4c-0.1,0.2-0.1,0.2-0.1,0.4c0,0.1-0.1,0.3-0.1,0.4
	c-0.1,0.2-0.1,0.2-0.1,0.4c0,0.2-0.1,0.3-0.1,0.4c0,0.2,0,0.2-0.1,0.4c0,0.2,0,0.2-0.1,0.4c0,0.1,0,0.1,0,0.1c0.2,0,0.3,0,0.5,0h0.7
	c0.2,0,0.4,0,0.7,0.1c0.2,0,0.3,0.1,0.5,0.1c0.2,0.1,0.3,0.1,0.5,0.2c0.2,0.1,0.2,0.1,0.4,0.2c0.2,0.1,0.3,0.1,0.5,0.2
	c0.2,0.1,0.2,0.1,0.4,0.2c0.1,0.1,0.3,0.1,0.4,0.2c0.2,0.1,0.2,0.1,0.5,0.2c0.1,0.1,0.3,0.1,0.4,0.2c0.2,0.1,0.2,0.1,0.4,0.2
	c0.1,0.1,0.2,0.1,0.3,0.2c0.2,0.1,0.2,0.1,0.3,0.1l0.3,0.1c0.1,0,0.1,0,0.2,0.1c0.1,0,0.1,0,0.2,0.1c0,0,0.1,0,0.2,0
	c0,0,0.1,0,0.1,0c0.1-0.1,0.1-0.3,0.2-0.4c0.1-0.2,0.1-0.2,0.2-0.3c0.1-0.1,0.1-0.1,0.2-0.3c0.1-0.1,0.1-0.2,0.1-0.3
	c0.1-0.1,0.1-0.3,0.2-0.4c0.1-0.1,0.1-0.2,0.2-0.3c0.1-0.2,0.2-0.3,0.2-0.5c0.1-0.1,0.1-0.2,0.2-0.4c0.1-0.2,0.1-0.2,0.2-0.5
	c0.1-0.2,0.1-0.2,0.3-0.5c0.1-0.2,0.2-0.4,0.2-0.5c0.1-0.1,0.1-0.3,0.2-0.5c0.1-0.3,0.1-0.3,0.2-0.5c0.1-0.2,0.1-0.3,0.2-0.5
	c0.1-0.2,0.2-0.4,0.2-0.5c0.1-0.2,0.1-0.3,0.2-0.5c0.1-0.2,0.1-0.3,0.2-0.5c0.1-0.2,0.1-0.2,0.2-0.5c0.1-0.1,0.1-0.3,0.1-0.4
	c0-0.1,0.1-0.2,0.1-0.3c0.1-0.2,0.1-0.2,0.1-0.3c0-0.1,0-0.1,0-0.2c0-0.1,0-0.1,0-0.3c0,0,0-0.1,0-0.1v-0.1c-0.1,0-0.2-0.1-0.3-0.1
	c-0.2-0.1-0.2-0.1-0.3-0.1c-0.1,0-0.1,0-0.3-0.1c-0.2,0-0.2,0-0.3-0.1c-0.1,0-0.2-0.1-0.3-0.1c-0.2,0-0.2,0-0.4-0.1
	c-0.1,0-0.3-0.1-0.4-0.1c-0.2,0-0.2,0-0.4-0.1c-0.2,0-0.2,0-0.5-0.1c-0.2,0-0.3,0-0.5-0.1c-0.2,0-0.4-0.1-0.5-0.1
	c-0.1,0-0.3,0-0.4-0.1c-0.2,0-0.3,0-0.4,0c-0.2,0-0.3,0-0.5-0.1c-0.2,0-0.2,0-0.4-0.1c-0.2,0-0.2,0-0.4-0.1c-0.2,0-0.3-0.1-0.4-0.1
	c-0.1,0-0.3-0.1-0.4-0.1c-0.1,0-0.3-0.1-0.4-0.1l-0.3-0.1c-0.2-0.1-0.3-0.1-0.5-0.2c0,0,0,0,0,0
	C173.4,185.6,173.4,185.6,173.3,185.6z M174.9,183.4c0.1,0,0.1,0,0.1,0c0.1,0,0.1,0,0.2,0.1c0.1,0,0.2,0,0.3,0.1
	c0.1,0,0.2,0,0.3,0.1c0.2,0,0.2,0,0.4,0.1c0.2,0,0.2,0,0.5,0.1c0.1,0,0.3,0,0.4,0c0.1,0,0.3,0,0.5,0c0.2,0,0.4,0,0.5,0.1
	c0.1,0,0.3,0,0.5,0.1c0.2,0,0.4,0.1,0.5,0.1c0.2,0,0.2,0,0.5,0.1c0.2,0,0.2,0,0.4,0.1c0.2,0,0.3,0.1,0.5,0.1
	c0.2,0.1,0.2,0.1,0.4,0.1c0.1,0,0.3,0.1,0.4,0.1c0.2,0.1,0.2,0.1,0.4,0.1c0.2,0.1,0.2,0.1,0.3,0.1c0.2,0.1,0.2,0.1,0.4,0.1
	c0.1,0,0.3,0.1,0.4,0.1c0.2,0.1,0.3,0.1,0.5,0.2c0.2,0.1,0.4,0.3,0.6,0.5c0.3,0.3,0.4,0.7,0.4,1.1v0.4c0,0.2,0,0.2,0,0.3
	c0,0.1,0,0.3,0,0.4c0,0.1,0,0.1,0,0.3c0,0.1-0.1,0.3-0.1,0.5c-0.1,0.2-0.1,0.2-0.1,0.4c0,0.1-0.1,0.3-0.1,0.4c0,0.1-0.1,0.3-0.1,0.4
	c-0.1,0.2-0.1,0.2-0.2,0.5c-0.1,0.2-0.1,0.4-0.2,0.5c-0.1,0.2-0.1,0.4-0.2,0.5c-0.1,0.2-0.1,0.3-0.2,0.5c-0.1,0.2-0.2,0.4-0.3,0.6
	c-0.1,0.3-0.1,0.3-0.2,0.5c-0.1,0.2-0.2,0.4-0.2,0.5c-0.1,0.2-0.2,0.3-0.3,0.5c-0.1,0.3-0.1,0.3-0.2,0.5c-0.1,0.2-0.1,0.2-0.2,0.5
	c-0.1,0.2-0.2,0.3-0.3,0.5c-0.1,0.1-0.1,0.2-0.2,0.4c-0.1,0.2-0.2,0.3-0.2,0.4c-0.1,0.1-0.1,0.2-0.1,0.3c-0.1,0.1-0.1,0.2-0.2,0.3
	c-0.1,0.2-0.1,0.2-0.1,0.3c-0.1,0.2-0.1,0.2-0.2,0.4c-0.1,0.1-0.1,0.3-0.2,0.4c-0.1,0.1-0.1,0.3-0.2,0.4c-0.1,0.2-0.3,0.4-0.5,0.6
	c-0.3,0.3-0.7,0.4-1.1,0.4c-0.2,0-0.2,0-0.4,0c-0.1,0-0.3,0-0.5,0c-0.2,0-0.4-0.1-0.5-0.1c-0.1,0-0.1,0-0.3-0.1
	c-0.1,0-0.3-0.1-0.4-0.1c-0.2-0.1-0.2-0.1-0.4-0.2c-0.2-0.1-0.2-0.1-0.4-0.1c-0.1-0.1-0.3-0.1-0.4-0.2c-0.2-0.1-0.2-0.1-0.5-0.2
	c-0.2-0.1-0.3-0.2-0.5-0.2c-0.2-0.1-0.2-0.1-0.4-0.2c-0.2-0.1-0.3-0.2-0.5-0.3c-0.2-0.1-0.2-0.1-0.4-0.2c-0.1-0.1-0.2-0.1-0.4-0.2
	c-0.2-0.1-0.2-0.1-0.4-0.2c-0.1,0-0.2-0.1-0.2-0.1c-0.1,0-0.2,0-0.3-0.1c-0.1,0-0.1,0-0.1,0h-0.7c-0.1,0-0.2,0-0.3,0
	c-0.2,0-0.3,0-0.5,0.1c-0.2,0-0.4,0-0.6,0c-0.2,0-0.3,0-0.5,0c-0.6-0.1-1.2-0.5-1.3-1.3c0-0.2,0-0.3,0-0.5c0-0.2,0-0.3,0.1-0.5
	c0-0.2,0.1-0.3,0.1-0.4c0-0.1,0-0.2,0-0.2c0-0.1,0-0.2,0.1-0.4c0-0.2,0-0.2,0.1-0.4c0.1-0.2,0.1-0.2,0.1-0.4c0-0.1,0.1-0.3,0.1-0.5
	c0.1-0.2,0.1-0.2,0.1-0.5c0-0.2,0.1-0.3,0.1-0.5c0.1-0.2,0.1-0.2,0.1-0.4c0-0.1,0.1-0.3,0.2-0.5l0.3-1c0.1-0.2,0.1-0.3,0.2-0.5
	c0.1-0.2,0.1-0.4,0.2-0.6c0.1-0.2,0.1-0.4,0.2-0.5c0.1-0.3,0.1-0.3,0.2-0.6c0.1-0.3,0.1-0.3,0.2-0.5c0.1-0.2,0.1-0.3,0.2-0.5
	c0.1-0.1,0.1-0.3,0.2-0.4c0.1-0.2,0.1-0.3,0.2-0.5c0.1-0.2,0.1-0.2,0.2-0.4c0.1-0.1,0.1-0.3,0.2-0.4c0.1-0.1,0.2-0.3,0.2-0.4
	c0.1-0.2,0.4-0.4,0.7-0.8c0.2-0.2,0.5-0.3,0.8-0.3c0.1-0.4,0.5-0.7,0.9-0.8c0.6-0.1,1.2,0.2,1.4,0.7L174.9,183.4z"/>
<path fill="#F04D39" d="M174.5,167.7c-0.1,0.2-0.3,0.5-0.5,0.7c-0.4,0.4-0.9,0.6-1.5,0.7c-0.9,0.1-1.7-0.6-1.8-1.5
	c-0.1-0.7,0.3-1.4,1-1.7c0-0.1,0.1-0.1,0.1-0.3c0.1-0.3,0.3-0.6,0.5-0.8c0.3-0.3,0.6-0.5,1-0.7c0.3-0.1,0.6-0.1,0.9-0.1
	c0.2,0,0.4,0,0.6,0c0.2,0,0.5,0.1,0.7,0.2c0.2,0.1,0.3,0.1,0.5,0.2c0.2,0.1,0.2,0.1,0.4,0.2l0.2,0.1c0.8,0.4,1.1,1.4,0.6,2.2
	s-1.4,1.1-2.2,0.6l-0.2-0.1c-0.1-0.1-0.2-0.1-0.2-0.1C174.6,167.5,174.6,167.6,174.5,167.7L174.5,167.7z"/>
<path fill="#02929D" d="M173.3,144.4c-0.1-0.1-0.1-0.1-0.3-0.3c-0.3-0.4-0.3-0.4-0.2-1.4c0.6-0.6,0.6-0.6,1-0.7c0.2,0,0.2,0,0.4,0
	c0.1,0,0.3,0,0.4,0c0.2,0,0.3,0,0.5,0c0.2,0,0.4,0,0.5,0c0.1,0,0.1,0,0.3,0c0.2,0,0.2,0,0.4,0c0.2,0,0.2,0,0.4,0c0.2,0,0.2,0,0.5,0
	c0.2,0,0.2,0,0.4,0c0.1,0,0.3,0,0.5,0c0.3,0,0.3,0,0.6,0c0.2,0,0.3,0,0.5,0c0.2,0,0.4,0,0.5,0h4.2h0.6c0.2,0,0.3,0,0.5,0
	c0.2,0,0.2,0,0.5,0c0.1,0,0.3,0,0.5,0.1c0.2,0,0.4,0.1,0.6,0.1c0.3,0.1,0.3,0.1,0.5,0.1c0.2,0,0.4,0.1,0.5,0.1
	c0.2,0.1,0.2,0.1,0.4,0.1c0.1,0,0.3,0.1,0.4,0.1c0.5,0.2,0.9,0.5,1,1c0.1,0.3,0.1,0.6,0,1c0,0.2-0.1,0.3-0.2,0.5
	c-0.1,0.2-0.1,0.3-0.2,0.4c0,0.1,0,0.1-0.1,0.3c-0.1,0.1-0.1,0.1-0.1,0.3c-0.1,0.2-0.1,0.2-0.1,0.3c-0.1,0.1-0.1,0.2-0.2,0.4
	c-0.1,0.1-0.1,0.3-0.2,0.4c-0.1,0.2-0.1,0.2-0.2,0.4c-0.1,0.1-0.1,0.3-0.2,0.5c-0.1,0.3-0.1,0.3-0.2,0.5c-0.1,0.2-0.1,0.4-0.2,0.5
	c-0.1,0.2-0.1,0.4-0.2,0.6c-0.1,0.2-0.1,0.3-0.2,0.5c0,0.1-0.1,0.3-0.1,0.4c-0.1,0.2-0.1,0.4-0.2,0.5c-0.1,0.2-0.1,0.2-0.1,0.5
	c-0.1,0.2-0.1,0.2-0.1,0.4c-0.1,0.2-0.1,0.2-0.1,0.4c0,0.1-0.1,0.3-0.1,0.4c-0.1,0.2-0.1,0.2-0.1,0.3c-0.1,0.2-0.1,0.2-0.1,0.3
	c-0.1,0.1-0.1,0.3-0.2,0.5c-0.1,0.2-0.2,0.4-0.3,0.6c-0.1,0.2-0.2,0.4-0.3,0.5c-0.1,0.2-0.2,0.3-0.3,0.5c-0.1,0.1-0.2,0.2-0.2,0.3
	c-0.1,0.2-0.2,0.3-0.3,0.4c-0.1,0.2-0.1,0.2-0.2,0.3c-0.1,0.1-0.1,0.1-0.1,0.2c0,0-0.1,0.1-0.1,0.2c-0.1,0.3-0.3,0.5-0.6,0.7
	c-0.2,0.1-0.3,0.2-0.5,0.3c-0.2,0.1-0.4,0.2-0.6,0.2c-0.2,0.1-0.4,0.1-0.5,0.1c-0.1,0-0.3,0.1-0.4,0.1c-0.1,0-0.3,0-0.4,0.1
	c-0.2,0-0.2,0-0.4,0c-0.2,0-0.2,0-0.4,0.1c-0.2,0-0.3,0-0.5,0c-0.2,0-0.4,0-0.6,0c-0.3,0-0.3,0-0.6,0c-0.3,0-0.3,0-0.6,0
	c-0.2,0-0.4,0-0.7,0c-0.2,0-0.5,0-0.7,0h-3.1c-0.2,0-0.5,0-0.6,0c-0.3,0-0.3,0-0.5,0c-0.2,0-0.4,0-0.5,0c-0.2,0-0.4,0-0.6-0.1
	c-0.3,0-0.5-0.1-0.7-0.1c-0.7-0.2-1.3-0.7-1.2-1.5c0-0.4,0.2-0.8,0.5-1.1c0,0,0-0.1,0.1-0.1c0,0,0,0,0.1-0.1c0,0,0-0.1,0-0.1
	c0-0.1,0-0.2,0.1-0.3c0-0.1,0-0.2,0-0.3c0-0.1,0-0.1,0-0.2c0-0.2,0-0.2,0-0.4c0-0.2,0-0.2,0-0.3c0-0.2,0-0.2,0-0.4
	c0-0.2,0-0.3,0-0.5c0-0.2,0-0.2,0-0.5c0-0.2,0-0.3,0.1-0.5c0-0.2,0-0.4,0.1-0.6c0-0.2,0.1-0.4,0.1-0.6c0-0.2,0.1-0.4,0.1-0.6
	c0.1-0.3,0.1-0.3,0.1-0.5c0-0.2,0.1-0.4,0.1-0.6c0.1-0.3,0.1-0.3,0.1-0.6c0.1-0.3,0.1-0.3,0.1-0.6c0-0.2,0.1-0.4,0.1-0.6
	c0-0.2,0.1-0.3,0.1-0.5l0.1-0.5c0-0.2,0-0.2,0.1-0.4c0-0.2,0-0.2,0.1-0.4c0.1-0.5,0.4-1,0.9-1.3c0.4-0.2,0.8-0.3,1.2-0.2
	C173.4,144.4,173.4,144.4,173.3,144.4L173.3,144.4z M171.6,157.8L171.6,157.8L171.6,157.8z M187.3,145.3
	C187.3,145.3,187.3,145.3,187.3,145.3C187.3,145.3,187.3,145.3,187.3,145.3z M174.1,145c0.4,0.5,0.3,1.2-0.2,1.6c0,0,0,0.1,0,0.1
	c0,0.2,0,0.2-0.1,0.4c0,0.2,0,0.2-0.1,0.5c0,0.2-0.1,0.4-0.1,0.6c0,0.2-0.1,0.4-0.1,0.6c-0.1,0.3-0.1,0.3-0.1,0.6
	c-0.1,0.3-0.1,0.3-0.1,0.7c-0.1,0.2-0.1,0.4-0.1,0.6c-0.1,0.3-0.1,0.3-0.1,0.5c0,0.2-0.1,0.4-0.1,0.5c0,0.2-0.1,0.3-0.1,0.5
	c0,0.2-0.1,0.3-0.1,0.5c0,0.2,0,0.3,0,0.4c0,0.2,0,0.2,0,0.5c0,0.1,0,0.3,0,0.4c0,0.2,0,0.2,0,0.4c0,0.2,0,0.2,0,0.4
	c0,0.2,0,0.2,0,0.3c0,0.1,0,0.3,0,0.4c0,0.1,0,0.3-0.1,0.4c0,0.1,0,0.3-0.1,0.4c0.1,0,0.1,0,0.3,0c0.2,0,0.3,0,0.5,0h3.1
	c0.2,0,0.4,0,0.6,0c0.2,0,0.4,0,0.6,0c0.3,0,0.3,0,0.6,0c0.3,0,0.3,0,0.6,0c0.2,0,0.4,0,0.5,0c0.2,0,0.3,0,0.4,0c0.2,0,0.2,0,0.4,0
	c0.2,0,0.2,0,0.4,0c0.1,0,0.2,0,0.3,0c0.1,0,0.2,0,0.3-0.1c0,0,0.1,0,0.3-0.1c0.1,0,0.1,0,0.2-0.1c0-0.1,0.1-0.2,0.1-0.2
	c0.1-0.1,0.1-0.1,0.2-0.3c0.1-0.2,0.1-0.2,0.3-0.4c0.1-0.1,0.1-0.2,0.2-0.3c0.1-0.1,0.2-0.3,0.3-0.4c0.1-0.1,0.2-0.2,0.3-0.4
	c0.1-0.1,0.2-0.3,0.2-0.4c0.1-0.1,0.2-0.3,0.2-0.4c0.1-0.1,0.1-0.2,0.1-0.3c0.1-0.1,0.1-0.1,0.1-0.3c0.1-0.2,0.1-0.2,0.1-0.3
	c0-0.1,0.1-0.2,0.1-0.3c0.1-0.2,0.1-0.2,0.1-0.3c0.1-0.2,0.1-0.2,0.1-0.4c0.1-0.2,0.1-0.2,0.1-0.4c0-0.1,0.1-0.3,0.1-0.5
	c0.1-0.2,0.1-0.3,0.2-0.5c0-0.2,0.1-0.3,0.2-0.5c0.1-0.2,0.1-0.3,0.2-0.5c0.1-0.2,0.1-0.4,0.2-0.6l0.2-0.6c0.1-0.2,0.1-0.4,0.2-0.5
	c0.1-0.2,0.1-0.2,0.2-0.4c0.1-0.1,0.1-0.3,0.2-0.4c0.1-0.2,0.1-0.3,0.2-0.4c0.1-0.2,0.1-0.2,0.1-0.3c0.1-0.2,0.1-0.2,0.1-0.3
	c-0.1,0-0.2,0-0.3-0.1c-0.2,0-0.3-0.1-0.5-0.1c-0.2,0-0.3,0-0.4-0.1c-0.2,0-0.2,0-0.4,0c-0.1,0-0.3,0-0.4,0h-0.5h-4.2
	c-0.2,0-0.4,0-0.6,0c-0.2,0-0.5,0-0.7,0c-0.3,0-0.3,0-0.5,0c-0.2,0-0.3,0-0.5,0c-0.2,0-0.2,0-0.5,0c-0.2,0-0.2,0-0.4,0
	c-0.2,0-0.2,0-0.4,0c-0.2,0-0.2,0-0.4,0c-0.2,0-0.2,0-0.4,0c-0.1,0-0.2,0-0.4,0c0,0,0,0-0.1,0c-0.3,0.2-0.7,0.2-1.1,0.1
	C173.9,144.7,174,144.8,174.1,145L174.1,145z M173.8,144.6c-0.1,0-0.2-0.1-0.4-0.2C173.5,144.5,173.7,144.5,173.8,144.6z"/>
<path fill="#3C51A3" d="M201.7,167.4c0.2,0,0.3,0,0.5,0h1.6c0.2,0,0.4,0,0.6,0c0.2,0,0.4,0,0.5,0c0.2,0,0.4,0,0.5,0
	c0.2,0,0.4,0,0.6,0.1c0.2,0,0.4,0.1,0.6,0.1c0.2,0,0.3,0,0.5,0.1c0.2,0,0.4,0.1,0.6,0.1c0.3,0.1,0.3,0.1,0.6,0.1
	c0.3,0.1,0.3,0.1,0.6,0.1c0.3,0,0.3,0,0.6,0.1c0.2,0,0.4,0.1,0.6,0.1c0.3,0.1,0.3,0.1,0.5,0.1c0.2,0.1,0.4,0.1,0.6,0.2
	c0.2,0,0.3,0.1,0.5,0.2c0.2,0.1,0.2,0.1,0.4,0.2c0.2,0.1,0.4,0.2,0.6,0.3c0.3,0.1,0.4,0.2,0.6,0.3c0.1,0.1,0.3,0.2,0.4,0.3
	c0.2,0.2,0.3,0.3,0.5,0.5c0.2,0.3,0.4,0.6,0.5,1c0,0.2,0,0.4,0,0.7c0,0.3-0.1,0.5-0.1,0.7c-0.1,0.2-0.1,0.4-0.2,0.5
	c-0.1,0.1-0.2,0.3-0.2,0.4c-0.1,0.1-0.1,0.2-0.2,0.3c0,0.1-0.1,0.1-0.1,0.2c-0.1,0.1-0.1,0.3-0.2,0.4c-0.1,0.1-0.1,0.2-0.2,0.3
	c-0.1,0.1-0.1,0.3-0.2,0.4c-0.1,0.2-0.1,0.2-0.2,0.5c-0.1,0.2-0.2,0.3-0.2,0.5c-0.1,0.2-0.2,0.3-0.2,0.5c-0.1,0.2-0.2,0.4-0.3,0.6
	c-0.1,0.2-0.2,0.4-0.3,0.6c-0.1,0.2-0.2,0.4-0.3,0.7c-0.1,0.2-0.2,0.4-0.3,0.6c-0.1,0.2-0.2,0.4-0.3,0.7c-0.1,0.2-0.2,0.5-0.3,0.6
	c-0.1,0.3-0.1,0.3-0.3,0.6c-0.1,0.2-0.2,0.5-0.3,0.6c-0.1,0.3-0.1,0.3-0.3,0.6c-0.1,0.2-0.2,0.4-0.2,0.5c-0.1,0.2-0.2,0.4-0.3,0.6
	c-0.1,0.2-0.1,0.3-0.2,0.4c-0.1,0.1-0.1,0.3-0.2,0.4c-0.1,0.2-0.1,0.2-0.2,0.4c0,0.1-0.1,0.3-0.2,0.5c-0.1,0.2-0.1,0.4-0.2,0.5
	c0,0.1-0.1,0.2-0.1,0.3c-0.1,0.4-0.2,0.7-0.4,1c-0.4,0.5-1.1,0.7-1.7,0.6c-0.2,0-0.3-0.1-0.5-0.1c-0.2-0.1-0.2-0.1-0.4-0.1
	c-0.2,0-0.3-0.1-0.4-0.1c-0.1,0-0.2-0.1-0.4-0.1c-0.1-0.1-0.3-0.1-0.4-0.2c-0.2-0.1-0.3-0.1-0.5-0.2c-0.2-0.1-0.2-0.1-0.5-0.2
	c-0.2-0.1-0.4-0.2-0.6-0.3c-0.2-0.1-0.3-0.2-0.5-0.3c-0.2-0.1-0.4-0.2-0.5-0.3c-0.2-0.1-0.3-0.2-0.5-0.3c-0.2-0.1-0.4-0.2-0.6-0.3
	c-0.2-0.1-0.3-0.2-0.5-0.2c-0.2-0.1-0.3-0.1-0.5-0.2c-0.2-0.1-0.3-0.1-0.5-0.1c-0.2-0.1-0.3-0.1-0.5-0.1c-0.1,0-0.3-0.1-0.4-0.1
	c-0.2,0-0.3,0-0.4-0.1c-0.1,0-0.2,0-0.3,0c-0.2,0-0.2,0-0.3,0h-0.8c-0.3,0-0.5,0-0.8-0.1c-0.7-0.2-1.2-0.8-1.2-1.6
	c0-0.2,0-0.3,0-0.5c0-0.2,0-0.3,0.1-0.5c0-0.2,0-0.2,0.1-0.4c0-0.1,0.1-0.3,0.1-0.4c0-0.2,0-0.2,0.1-0.3c0-0.2,0.1-0.3,0.2-0.6
	c0.1-0.2,0.1-0.4,0.2-0.6c0.1-0.3,0.1-0.3,0.2-0.6c0.1-0.2,0.1-0.4,0.2-0.7c0.1-0.3,0.1-0.3,0.2-0.7c0.1-0.2,0.2-0.5,0.3-0.7
	c0.1-0.3,0.2-0.5,0.3-0.8c0.1-0.3,0.2-0.5,0.3-0.8c0.1-0.3,0.2-0.6,0.3-0.8c0.1-0.3,0.2-0.5,0.3-0.8c0.1-0.3,0.2-0.6,0.3-0.9
	c0.1-0.3,0.2-0.5,0.3-0.7c0.1-0.2,0.2-0.5,0.3-0.8c0.1-0.3,0.2-0.5,0.3-0.7c0.1-0.3,0.1-0.3,0.2-0.5c0.1-0.2,0.1-0.2,0.2-0.5
	c0.1-0.1,0.1-0.3,0.2-0.4c0.1-0.2,0.2-0.4,0.3-0.5c0.3-0.4,0.6-0.6,1-0.9c0.3-0.1,0.6-0.2,0.8-0.2
	C201.5,167.4,201.6,167.4,201.7,167.4L201.7,167.4z M197.4,182.6L197.4,182.6L197.4,182.6L197.4,182.6z M206.9,184.8
	C207,184.8,207,184.8,206.9,184.8L206.9,184.8L206.9,184.8z M205.7,185.6C205.7,185.6,205.7,185.6,205.7,185.6
	C205.7,185.6,205.7,185.6,205.7,185.6L205.7,185.6z M211.9,171.7C211.9,171.7,211.9,171.7,211.9,171.7
	C211.9,171.7,211.9,171.7,211.9,171.7z M212.1,172.1C212.1,172.1,212.1,172.1,212.1,172.1C212.1,172.1,212.1,172.1,212.1,172.1
	L212.1,172.1z M202.1,170.2L202.1,170.2L202.1,170.2z M201.7,170.5c-0.1,0.2-0.1,0.2-0.2,0.4c-0.1,0.2-0.1,0.2-0.2,0.5
	c-0.1,0.2-0.2,0.4-0.3,0.6c-0.1,0.3-0.2,0.5-0.3,0.7c-0.1,0.3-0.2,0.5-0.3,0.8c-0.1,0.3-0.2,0.5-0.3,0.8c-0.1,0.3-0.2,0.6-0.3,0.8
	c-0.1,0.2-0.2,0.5-0.3,0.8c-0.1,0.3-0.2,0.6-0.3,0.8c-0.1,0.3-0.2,0.5-0.3,0.8c-0.1,0.2-0.2,0.5-0.2,0.7c-0.1,0.3-0.1,0.3-0.2,0.7
	c-0.1,0.2-0.2,0.4-0.2,0.7c-0.1,0.3-0.1,0.3-0.2,0.5c0,0.1-0.1,0.3-0.2,0.5c0,0.2-0.1,0.3-0.1,0.4c-0.1,0.2-0.1,0.2-0.1,0.4
	c0,0,0.1,0,0.2,0c0.2,0,0.3,0,0.5,0c0.2,0,0.3,0,0.5,0.1c0.2,0,0.4,0.1,0.6,0.1c0.2,0,0.4,0.1,0.6,0.2c0.2,0.1,0.4,0.1,0.7,0.2
	c0.2,0.1,0.4,0.2,0.6,0.2c0.2,0.1,0.4,0.2,0.6,0.3c0.2,0.1,0.4,0.2,0.6,0.3c0.2,0.1,0.4,0.2,0.6,0.3c0.2,0.1,0.4,0.2,0.6,0.3
	c0.2,0.1,0.4,0.2,0.6,0.3c0.1,0.1,0.3,0.2,0.4,0.2c0.2,0.1,0.2,0.1,0.5,0.2c0.1,0.1,0.2,0.1,0.3,0.2c0.1,0.1,0.3,0.1,0.4,0.2
	c0,0,0.1,0,0.1,0c0-0.1,0.1-0.2,0.1-0.3c0.1-0.2,0.2-0.4,0.2-0.6c0.1-0.2,0.1-0.2,0.2-0.4c0.1-0.2,0.1-0.3,0.2-0.5
	c0.1-0.2,0.1-0.3,0.2-0.5c0.1-0.2,0.2-0.4,0.2-0.5c0.1-0.2,0.2-0.4,0.3-0.6c0.1-0.3,0.1-0.3,0.3-0.6c0.1-0.2,0.2-0.4,0.3-0.7
	c0.2-0.3,0.2-0.3,0.3-0.6c0.1-0.2,0.2-0.4,0.3-0.7c0.1-0.2,0.2-0.4,0.3-0.6c0.1-0.2,0.2-0.4,0.3-0.6c0.1-0.2,0.2-0.4,0.3-0.6
	c0.1-0.2,0.2-0.4,0.3-0.7c0.1-0.2,0.2-0.4,0.2-0.5c0.1-0.2,0.2-0.4,0.3-0.6c0.1-0.2,0.2-0.4,0.3-0.5c0.1-0.2,0.1-0.2,0.2-0.4
	c0.1-0.1,0.1-0.3,0.2-0.4c0.1-0.2,0.2-0.3,0.2-0.5c0.1-0.1,0.1-0.2,0.1-0.3c0.1-0.1,0.1-0.2,0.2-0.4c0.1-0.1,0.1-0.3,0.2-0.4
	c0.1-0.1,0.1-0.2,0.2-0.3c-0.1,0-0.1-0.1-0.1-0.1c0,0-0.1-0.1-0.3-0.2c-0.2-0.1-0.3-0.1-0.3-0.2c-0.2-0.1-0.2-0.1-0.4-0.1
	c-0.1,0-0.2-0.1-0.3-0.1c-0.1,0-0.2-0.1-0.4-0.1c-0.3-0.1-0.3-0.1-0.5-0.1c-0.1,0-0.3-0.1-0.5-0.1c-0.3,0-0.3,0-0.5-0.1
	c-0.3,0-0.3,0-0.6-0.1c-0.3-0.1-0.3-0.1-0.6-0.1c-0.2,0-0.3-0.1-0.5-0.1c-0.2,0-0.4-0.1-0.6-0.1c-0.2,0-0.3-0.1-0.5-0.1
	c-0.2,0-0.3,0-0.5-0.1c-0.2,0-0.3,0-0.5,0c-0.2,0-0.3,0-0.5,0c-0.1,0-0.3,0-0.5,0h-1.6c-0.1,0-0.2,0-0.3,0l-0.1,0c0,0-0.1,0-0.1,0.1
	C201.7,170.4,201.7,170.5,201.7,170.5L201.7,170.5z"/>
<path fill="#CE57A0" d="M189.8,195.7C189.8,195.7,189.8,195.7,189.8,195.7C189.8,195.7,189.8,195.7,189.8,195.7z M187,206.5
	L187,206.5L187,206.5z M202.3,197.5C202.3,197.5,202.3,197.5,202.3,197.5C202.3,197.5,202.3,197.5,202.3,197.5z M190.1,195.5
	c-0.1,0-0.2,0.1-0.2,0.1c-0.1,0.1-0.1,0.1-0.1,0c0,0.1-0.1,0.1-0.1,0.2c0,0.1-0.1,0.2-0.1,0.4c0,0.1-0.1,0.3-0.1,0.5
	c0,0.2-0.1,0.4-0.1,0.5c-0.1,0.3-0.1,0.3-0.2,0.7c-0.1,0.2-0.1,0.5-0.2,0.7c-0.1,0.3-0.1,0.3-0.2,0.8c-0.1,0.3-0.2,0.6-0.2,0.9
	c-0.1,0.3-0.1,0.6-0.2,0.8c-0.1,0.2-0.1,0.5-0.2,0.7c-0.1,0.3-0.1,0.3-0.2,0.7c-0.1,0.3-0.1,0.5-0.2,0.7c-0.1,0.3-0.1,0.3-0.1,0.5
	c-0.1,0.3-0.1,0.3-0.2,0.6c-0.1,0.3-0.1,0.3-0.2,0.5c-0.1,0.2-0.1,0.2-0.1,0.4c0,0.1,0,0.1-0.1,0.2c0.2,0,0.3,0,0.4,0
	c0.2,0,0.2,0,0.4,0c0.1,0,0.3,0,0.5,0h0.5c0.2,0,0.4,0,0.6,0c0.2,0,0.5,0.1,0.7,0.1c0.2,0,0.4,0.1,0.6,0.1c0.2,0,0.4,0.1,0.6,0.2
	c0.2,0.1,0.4,0.1,0.6,0.2c0.2,0.1,0.5,0.2,0.7,0.2c0.2,0.1,0.4,0.2,0.6,0.2c0.2,0.1,0.4,0.2,0.6,0.2c0.2,0.1,0.4,0.2,0.6,0.2
	c0.2,0.1,0.4,0.2,0.6,0.2c0.2,0.1,0.3,0.2,0.5,0.2c0.2,0.1,0.2,0.1,0.4,0.2c0.2,0.1,0.2,0.1,0.4,0.2c0.2,0.1,0.2,0.1,0.3,0.2
	c0.2,0.1,0.2,0.1,0.3,0.2c0.1,0,0.1,0.1,0.2,0.1c0,0,0-0.1,0-0.1c0.1-0.2,0.1-0.3,0.2-0.5l0.1-0.4c0.1-0.2,0.1-0.2,0.2-0.4
	c0.1-0.2,0.1-0.2,0.2-0.5c0.1-0.3,0.1-0.3,0.2-0.6c0.1-0.3,0.1-0.3,0.2-0.6c0.1-0.3,0.1-0.3,0.3-0.7c0.1-0.4,0.1-0.4,0.3-0.7
	c0.1-0.2,0.2-0.4,0.2-0.6c0.1-0.2,0.2-0.5,0.3-0.7c0.1-0.2,0.2-0.4,0.3-0.6c0.1-0.3,0.1-0.3,0.3-0.6c0.1-0.2,0.2-0.4,0.3-0.6
	c0.1-0.3,0.1-0.3,0.3-0.5c0.1-0.3,0.1-0.3,0.2-0.5c0.1-0.1,0.1-0.3,0.2-0.4c0.1-0.2,0.2-0.4,0.2-0.5c0.1-0.2,0.1-0.2,0.2-0.4
	c0-0.1,0.1-0.2,0.1-0.3c0.1-0.2,0.1-0.2,0.1-0.3c0.1-0.2,0.1-0.2,0.1-0.3c-0.1-0.1-0.1-0.1-0.3-0.2c-0.1-0.1-0.2-0.2-0.4-0.3
	c-0.2-0.1-0.2-0.1-0.3-0.2c-0.1-0.1-0.1-0.1-0.4-0.3c-0.2-0.1-0.3-0.2-0.3-0.2c-0.1-0.1-0.2-0.1-0.3-0.2c-0.2-0.1-0.2-0.1-0.4-0.2
	c-0.1-0.1-0.2-0.1-0.4-0.2c-0.1-0.1-0.3-0.1-0.4-0.2c-0.1-0.1-0.3-0.1-0.5-0.2c-0.3-0.1-0.3-0.1-0.6-0.2c-0.2-0.1-0.4-0.1-0.6-0.2
	c-0.2,0-0.4-0.1-0.5-0.1c-0.2,0-0.4-0.1-0.6-0.1c-0.2,0-0.4-0.1-0.5-0.1c-0.3-0.1-0.3-0.1-0.6-0.1c-0.2,0-0.4-0.1-0.5-0.1
	c-0.3,0-0.3,0-0.5-0.1c-0.2,0-0.4,0-0.5-0.1c-0.1,0-0.3,0-0.4,0c-0.2,0-0.2,0-0.5,0c-0.1,0-0.3,0-0.4,0h-1
	C190.9,194.7,190.6,195.3,190.1,195.5L190.1,195.5z M188.2,192.6c0-0.8,0.6-1.5,1.4-1.5h2.3c0.2,0,0.3,0,0.5,0c0.2,0,0.2,0,0.5,0
	c0.2,0,0.4,0,0.6,0c0.2,0,0.4,0,0.5,0.1c0.3,0,0.3,0,0.6,0.1c0.2,0,0.4,0.1,0.7,0.1c0.3,0.1,0.3,0.1,0.6,0.1c0.2,0,0.4,0.1,0.6,0.1
	c0.2,0,0.4,0.1,0.6,0.1c0.2,0,0.5,0.1,0.7,0.2c0.2,0.1,0.4,0.1,0.6,0.2c0.3,0.1,0.3,0.1,0.6,0.2c0.2,0.1,0.4,0.1,0.6,0.2
	c0.2,0.1,0.4,0.1,0.6,0.2c0.2,0.1,0.4,0.2,0.6,0.3c0.2,0.1,0.2,0.1,0.4,0.2c0.1,0.1,0.3,0.1,0.4,0.2c0.1,0.1,0.3,0.2,0.5,0.3
	c0.3,0.2,0.3,0.2,0.4,0.3l0.3,0.2c0.1,0.1,0.2,0.2,0.3,0.2c0.1,0.1,0.1,0.1,0.3,0.2c0.1,0.1,0.1,0.1,0.3,0.2
	c0.2,0.1,0.3,0.2,0.5,0.4c0.4,0.3,0.6,0.8,0.6,1.3c0,0.2,0,0.4,0,0.6c0,0.2-0.1,0.4-0.1,0.6c0,0.2-0.1,0.3-0.1,0.5
	c-0.1,0.1-0.1,0.1-0.1,0.3c-0.1,0.2-0.1,0.2-0.1,0.3c-0.1,0.2-0.1,0.3-0.2,0.5c-0.1,0.2-0.1,0.2-0.2,0.5c-0.1,0.1-0.1,0.3-0.2,0.4
	c-0.1,0.2-0.2,0.4-0.2,0.5c-0.1,0.2-0.1,0.2-0.2,0.5c-0.1,0.3-0.1,0.3-0.2,0.5c-0.1,0.2-0.2,0.4-0.3,0.6c-0.1,0.3-0.1,0.3-0.3,0.6
	c-0.1,0.2-0.2,0.4-0.3,0.7c-0.1,0.2-0.2,0.4-0.3,0.6c-0.1,0.2-0.2,0.5-0.3,0.7c-0.1,0.3-0.1,0.3-0.3,0.7c-0.1,0.4-0.1,0.4-0.3,0.6
	c-0.1,0.3-0.1,0.3-0.2,0.6s-0.1,0.3-0.2,0.5c-0.1,0.3-0.1,0.3-0.2,0.5c-0.1,0.2-0.1,0.2-0.2,0.4c-0.1,0.2-0.1,0.2-0.1,0.4
	c0,0.1-0.1,0.3-0.2,0.4c-0.1,0.1-0.1,0.3-0.1,0.4c-0.1,0.2-0.1,0.2-0.1,0.4c-0.1,0.3-0.2,0.6-0.4,0.8c-0.3,0.5-0.8,0.7-1.4,0.7
	c-0.2,0-0.4,0-0.6-0.1c-0.2-0.1-0.4-0.1-0.5-0.2c-0.1-0.1-0.3-0.1-0.5-0.2l-0.4-0.2c-0.1-0.1-0.1-0.1-0.3-0.1
	c-0.1-0.1-0.1-0.1-0.3-0.1c-0.2-0.1-0.2-0.1-0.4-0.2c-0.2-0.1-0.2-0.1-0.4-0.2c-0.1-0.1-0.3-0.1-0.4-0.2c-0.2-0.1-0.3-0.1-0.5-0.2
	c-0.2-0.1-0.4-0.2-0.6-0.2c-0.2-0.1-0.4-0.1-0.5-0.2c-0.2-0.1-0.4-0.1-0.6-0.2c-0.2-0.1-0.4-0.1-0.6-0.2c-0.2-0.1-0.4-0.1-0.6-0.2
	c-0.2-0.1-0.3-0.1-0.5-0.1c-0.2,0-0.4-0.1-0.5-0.1c-0.1,0-0.3,0-0.4-0.1c-0.2,0-0.3,0-0.4,0h-0.5c-0.1,0-0.3,0-0.4,0
	c-0.2,0-0.2,0-0.4,0c-0.1,0-0.2,0-0.4,0c-0.2,0-0.4,0.1-0.6,0.1h-0.3c-0.2,0-0.3,0-0.4,0c-0.5,0-0.9-0.2-1.2-0.6
	c-0.3-0.4-0.5-0.8-0.5-1.3c0-0.2,0-0.3,0-0.5c0-0.2,0.1-0.4,0.1-0.7c0-0.2,0.1-0.4,0.1-0.6c0-0.1,0.1-0.3,0.1-0.4
	c0.1-0.2,0.1-0.2,0.1-0.4c0.1-0.2,0.1-0.2,0.1-0.5c0.1-0.3,0.1-0.3,0.1-0.5c0.1-0.3,0.1-0.3,0.2-0.5c0-0.2,0.1-0.4,0.2-0.7
	c0.1-0.4,0.1-0.4,0.2-0.7c0.1-0.2,0.1-0.4,0.2-0.6c0.1-0.2,0.1-0.5,0.2-0.8c0.1-0.3,0.1-0.6,0.2-0.9c0.1-0.4,0.1-0.4,0.2-0.8
	c0.1-0.2,0.1-0.5,0.2-0.7c0.1-0.4,0.1-0.4,0.2-0.6c0.1-0.2,0.1-0.4,0.2-0.6c0.1-0.2,0.1-0.4,0.2-0.6c0.1-0.2,0.1-0.4,0.2-0.5
	c0.1-0.2,0.1-0.4,0.2-0.5c0.1-0.3,0.3-0.5,0.5-0.7c0.1-0.1,0.2-0.2,0.3-0.3C188.2,193.1,188.2,192.8,188.2,192.6L188.2,192.6z"/>
<path fill="#EE314C" d="M193.9,157.9L193.9,157.9L193.9,157.9L193.9,157.9z M211.4,149.2C211.4,149.2,211.4,149.2,211.4,149.2
	L211.4,149.2L211.4,149.2z M199.4,145.2c-0.1,0.1-0.1,0.2-0.2,0.4c-0.1,0.1-0.2,0.3-0.3,0.5c-0.1,0.2-0.2,0.4-0.3,0.6
	c-0.1,0.2-0.2,0.4-0.3,0.6c-0.1,0.2-0.2,0.5-0.4,0.7c-0.1,0.3-0.3,0.5-0.4,0.8c-0.2,0.4-0.2,0.4-0.4,0.7c-0.1,0.3-0.2,0.5-0.4,0.8
	c-0.2,0.4-0.2,0.4-0.4,0.8c-0.2,0.4-0.2,0.4-0.4,0.8c-0.1,0.3-0.2,0.5-0.3,0.7c-0.2,0.4-0.2,0.4-0.3,0.8c-0.1,0.2-0.2,0.4-0.3,0.6
	c-0.1,0.3-0.1,0.3-0.3,0.7c-0.1,0.4-0.1,0.4-0.2,0.6c-0.1,0.2-0.1,0.3-0.2,0.5c-0.1,0.1-0.1,0.3-0.2,0.4c0,0,0,0.1,0,0.1
	c0.2,0,0.3-0.1,0.5-0.1c0.2,0,0.3-0.1,0.5-0.1c0.2,0,0.3,0,0.6-0.1c0.3,0,0.3,0,0.5,0c0.2,0,0.4,0,0.6,0h0.6c0.2,0,0.4,0,0.7,0
	c0.3,0,0.5,0,0.8,0.1c0.2,0,0.5,0.1,0.8,0.2c0.2,0.1,0.5,0.1,0.7,0.2c0.2,0.1,0.4,0.1,0.6,0.2c0.2,0.1,0.5,0.2,0.7,0.3
	c0.2,0.1,0.4,0.2,0.6,0.3c0.2,0.1,0.4,0.2,0.6,0.3c0.3,0.1,0.3,0.1,0.6,0.3c0.2,0.1,0.4,0.2,0.6,0.3c0.2,0.1,0.2,0.1,0.4,0.2
	c0.2,0.1,0.3,0.2,0.5,0.3c0.1,0.1,0.3,0.1,0.4,0.2c0.2,0.1,0.2,0.1,0.4,0.2c0.1,0.1,0.2,0.1,0.3,0.2c0.2,0.1,0.2,0.1,0.3,0.2
	c0,0,0,0,0.1,0c0-0.1,0-0.1,0.1-0.3c0.1-0.2,0.1-0.2,0.1-0.4c0.1-0.2,0.1-0.3,0.2-0.5c0.1-0.2,0.1-0.2,0.2-0.5
	c0.1-0.2,0.1-0.4,0.2-0.6c0.1-0.2,0.1-0.3,0.2-0.5c0.1-0.2,0.1-0.4,0.2-0.6c0.1-0.3,0.1-0.3,0.2-0.7c0.1-0.4,0.1-0.4,0.3-0.7
	c0.1-0.3,0.1-0.3,0.2-0.7c0.1-0.2,0.2-0.5,0.3-0.7c0.1-0.2,0.2-0.5,0.3-0.7c0.1-0.3,0.2-0.5,0.3-0.8c0.1-0.2,0.2-0.5,0.3-0.7
	c0.1-0.2,0.2-0.4,0.2-0.6c0.1-0.2,0.1-0.3,0.2-0.4c0.1-0.2,0.1-0.2,0.2-0.5c0-0.1,0.1-0.2,0.1-0.3c-0.1,0-0.1-0.1-0.2-0.1
	c-0.2-0.1-0.4-0.1-0.5-0.2c-0.2-0.1-0.2-0.1-0.3-0.2c-0.1,0-0.2-0.1-0.4-0.2c-0.2-0.1-0.2-0.1-0.3-0.2c-0.2-0.1-0.2-0.1-0.3-0.2
	c-0.2-0.1-0.2-0.1-0.4-0.2c-0.2-0.1-0.2-0.1-0.4-0.2c-0.2-0.1-0.2-0.1-0.4-0.2c-0.2-0.1-0.2-0.1-0.5-0.2c-0.2-0.1-0.3-0.1-0.4-0.2
	c-0.2-0.1-0.3-0.1-0.5-0.2c-0.2-0.1-0.2-0.1-0.5-0.2c-0.2-0.1-0.4-0.2-0.6-0.3c-0.1-0.1-0.3-0.1-0.4-0.2c-0.1-0.1-0.3-0.1-0.4-0.2
	c-0.2-0.1-0.4-0.1-0.5-0.2c-0.1,0-0.3-0.1-0.4-0.1c-0.2,0-0.4-0.1-0.5-0.1c-0.2,0-0.3-0.1-0.5-0.1c-0.1,0-0.3-0.1-0.4-0.1
	c-0.2,0-0.2,0-0.5-0.1c-0.2,0-0.3,0-0.4,0c-0.2,0-0.3,0-0.5,0c-0.1,0-0.2,0-0.3,0C199.5,145.2,199.5,145.2,199.4,145.2
	C199.4,145.2,199.4,145.2,199.4,145.2L199.4,145.2z M196.8,143.4c0.1-0.8,0.8-1.3,1.6-1.2l0.1,0c0.5-0.4,1.3-0.3,1.8,0.2
	c0.1,0.1,0.2,0.1,0.3,0.1c0.1,0,0.3,0,0.5,0c0.3,0,0.3,0,0.5,0.1c0.2,0,0.4,0.1,0.6,0.1c0.2,0,0.4,0.1,0.6,0.1
	c0.2,0,0.4,0.1,0.6,0.1c0.2,0.1,0.4,0.1,0.6,0.2c0.2,0.1,0.3,0.1,0.5,0.2c0.2,0.1,0.4,0.1,0.6,0.2c0.2,0.1,0.4,0.2,0.6,0.3
	c0.2,0.1,0.3,0.2,0.5,0.2c0.2,0.1,0.2,0.1,0.5,0.2c0.1,0.1,0.3,0.1,0.4,0.2c0.2,0.1,0.4,0.2,0.5,0.2c0.2,0.1,0.2,0.1,0.4,0.2
	c0.2,0.1,0.2,0.1,0.4,0.2c0.2,0.1,0.2,0.1,0.4,0.2c0.2,0.1,0.2,0.1,0.4,0.2c0.2,0.1,0.2,0.1,0.4,0.2c0.1,0.1,0.1,0.1,0.3,0.2
	c0.1,0,0.2,0.1,0.3,0.1c0.2,0.1,0.2,0.1,0.4,0.2c0.1,0.1,0.2,0.1,0.3,0.1c0.1,0,0.2,0.1,0.4,0.1c0.1,0,0.2,0,0.2,0
	c0.5,0,0.9,0.2,1.3,0.6c0.4,0.4,0.5,0.9,0.4,1.5c0,0.2,0,0.2-0.1,0.4c0,0.1-0.1,0.3-0.1,0.5c-0.1,0.2-0.1,0.2-0.1,0.4
	c0,0.2-0.1,0.3-0.1,0.5c-0.1,0.2-0.1,0.2-0.2,0.4c-0.1,0.2-0.1,0.3-0.2,0.5c-0.1,0.2-0.1,0.4-0.2,0.6c-0.1,0.2-0.2,0.4-0.2,0.7
	c-0.1,0.2-0.2,0.5-0.3,0.7c-0.1,0.3-0.2,0.5-0.3,0.8c-0.1,0.3-0.2,0.5-0.3,0.7c-0.1,0.3-0.1,0.3-0.2,0.7c-0.1,0.3-0.1,0.3-0.3,0.7
	c-0.1,0.4-0.1,0.4-0.2,0.7c-0.1,0.2-0.1,0.4-0.2,0.6c-0.1,0.2-0.1,0.4-0.2,0.6c-0.1,0.2-0.1,0.3-0.2,0.5c-0.1,0.3-0.1,0.3-0.2,0.5
	c0,0.1-0.1,0.2-0.1,0.4c-0.1,0.2-0.1,0.2-0.1,0.4c-0.1,0.2-0.1,0.2-0.1,0.3c0,0.2,0,0.2-0.1,0.3c0,0.1-0.1,0.3-0.2,0.4
	c-0.1,0.2-0.2,0.5-0.3,0.7c-0.3,0.5-0.9,0.8-1.5,0.7c-0.2,0-0.4,0-0.5-0.1c-0.2,0-0.4-0.1-0.6-0.2c-0.2-0.1-0.3-0.1-0.4-0.2
	c-0.2-0.1-0.2-0.1-0.3-0.1c-0.1-0.1-0.1-0.1-0.3-0.1c-0.1-0.1-0.3-0.1-0.4-0.2c-0.2-0.1-0.2-0.1-0.4-0.2c-0.1-0.1-0.3-0.2-0.4-0.2
	c-0.1-0.1-0.2-0.1-0.4-0.2c-0.2-0.1-0.2-0.1-0.5-0.2c-0.1-0.1-0.3-0.1-0.5-0.2c-0.3-0.1-0.3-0.1-0.6-0.3c-0.2-0.1-0.4-0.2-0.5-0.2
	c-0.2-0.1-0.4-0.2-0.6-0.2c-0.2-0.1-0.4-0.1-0.6-0.2c-0.2-0.1-0.4-0.1-0.5-0.2c-0.2,0-0.4-0.1-0.6-0.2c-0.2,0-0.4-0.1-0.5-0.1
	c-0.2,0-0.3,0-0.5,0c-0.2,0-0.4,0-0.5,0H197c-0.2,0-0.3,0-0.4,0c-0.2,0-0.2,0-0.5,0c-0.2,0-0.3,0-0.4,0c-0.1,0-0.2,0-0.4,0.1
	c-0.1,0-0.2,0-0.3,0.1c-0.2,0-0.2,0-0.3,0.1c-0.1,0-0.1,0-0.2,0.1c-0.1,0-0.1,0-0.2,0.1c-0.1,0.1-0.3,0.1-0.4,0.2
	c-0.2,0.1-0.5,0.1-0.7,0.2c-0.3,0-0.6,0-0.8-0.1c-0.7-0.2-1.2-0.8-1.2-1.6c0-0.1,0-0.3,0-0.5c0-0.2,0.1-0.4,0.1-0.6
	c0-0.2,0.1-0.3,0.1-0.5c0.1-0.2,0.1-0.2,0.1-0.3c0.1-0.2,0.1-0.2,0.1-0.4c0.1-0.2,0.1-0.2,0.2-0.4c0.1-0.2,0.1-0.3,0.2-0.5
	c0.1-0.2,0.1-0.3,0.2-0.5c0.1-0.3,0.1-0.3,0.2-0.6c0.1-0.4,0.1-0.4,0.3-0.6c0.1-0.2,0.2-0.4,0.3-0.7c0.2-0.4,0.2-0.4,0.3-0.7
	c0.1-0.3,0.2-0.5,0.4-0.8c0.2-0.4,0.2-0.4,0.4-0.8c0.2-0.4,0.2-0.4,0.4-0.8c0.1-0.3,0.3-0.5,0.4-0.8c0.2-0.4,0.2-0.4,0.4-0.8
	c0.1-0.2,0.2-0.5,0.4-0.8c0.1-0.3,0.3-0.5,0.4-0.8c0.1-0.2,0.2-0.5,0.4-0.7c0.1-0.2,0.2-0.4,0.3-0.6c0.1-0.2,0.2-0.4,0.3-0.6
	c0,0,0-0.1,0.1-0.1C196.8,143.8,196.8,143.6,196.8,143.4L196.8,143.4z"/>
<path d="M198.6,232.9c0.7-0.5,1.6-0.8,2.5-0.9c1.4,0,2.8,0.7,3.6,1.8c0,0,0,0.1,0,0.1l3.4,21.1c-1.4-1.2-3.2-1.9-5.1-1.7
	c-1.9,0.2-3.6,1.1-4.7,2.5c0-5.7-0.5-15.1-1.8-20.7C197,234.3,197.7,233.5,198.6,232.9L198.6,232.9z M202.1,254.8
	c0.5-0.1,1-0.2,1.5-0.2c2.5,0,4.6,1.6,5.1,3.8c-0.4,2.1-2.9,3.5-5.1,3.7L202.1,254.8z M216.4,234.1c-2.1,1.3-4.1,2.6-4.2,2.7
	c-0.2,0.2-0.3,0.4-0.2,0.7c0,0.2,0.2,0.4,0.5,0.5c0.3,0,6.3,1.1,8.8,1.1h0.3c0.2,0,0.3,0,0.5-0.1h0.2l24.8-5h13.8l7.5,25.8
	l-31.1,5.5h-30.6c-4.8,0-7.7-2.8-8.3-5.6c0-0.3,0-0.6,0-0.9c0,0,0,0,0-0.1c0.4-1.5,1.3-2.7,2.7-3.4l1.5,7.5c0.1,0.3,0.3,0.5,0.6,0.5
	c2.9,0,6.3-1.8,6.8-4.7c0-0.1,0-0.3,0-0.4l-3.8-23.9L216.4,234.1z M220.5,233.2c0.5-0.2,1.1-0.1,1.6,0.2c0.6,0.4,1,1,1.2,1.7
	c0.1,0.7,0,1.4-0.5,2c-0.3,0.5-0.8,0.8-1.4,0.8c-1.6,0.1-5.3-0.5-7.4-0.9C215.8,235.8,219.1,233.8,220.5,233.2L220.5,233.2z
	 M252.3,226.9c1.2-0.2,2.4,0.5,2.6,1.7l0.1,0.3c0.1,0.6,0,1.2-0.3,1.7c-0.3,0.5-0.8,0.8-1.4,1l-29.3,5.9c0.3-0.6,0.5-1.2,0.5-1.9
	l21.5-4.3c0.3-0.1,0.5-0.4,0.5-0.7s-0.4-0.5-0.7-0.5l-21.4,4.3c-0.2-0.6-0.6-1.2-1.1-1.6L252.3,226.9z M270.1,267l-58,10.3l-1.4-6.1
	l3.4-0.6l0.7,3.3c0.1,0.3,0.3,0.5,0.6,0.5h0.1c0.3-0.1,0.5-0.4,0.5-0.7l-0.7-3.2l3.5-0.6l0.7,3.3c0.1,0.3,0.3,0.5,0.6,0.5h0.1
	c0.3-0.1,0.5-0.4,0.5-0.7l-0.7-3.2l3.5-0.6l0.7,3.3c0.1,0.3,0.3,0.5,0.6,0.5h0.1c0.3-0.1,0.5-0.4,0.5-0.7l-0.8-3.3l3.5-0.6l0.7,3.3
	c0.1,0.3,0.3,0.5,0.6,0.5h0.1c0.2,0,0.3-0.1,0.4-0.3c0.1-0.2,0.1-0.3,0-0.5l-0.7-3.2l3.5-0.6l0.7,3.3c0.1,0.3,0.3,0.5,0.6,0.5h0.1
	c0.3-0.1,0.5-0.4,0.5-0.7l-0.7-3.2l3.5-0.6l0.7,3.3c0.1,0.3,0.3,0.5,0.6,0.5h0.1c0.3-0.1,0.5-0.4,0.5-0.7l-0.7-3.2l3.5-0.6l0.7,3.3
	c0.1,0.3,0.3,0.5,0.6,0.5h0.1c0.3-0.1,0.5-0.4,0.5-0.7l-0.7-3.2l3.5-0.6l0.7,3.3c0.1,0.3,0.3,0.5,0.6,0.5h0.1
	c0.3-0.1,0.5-0.4,0.5-0.7l-0.8-3.4l3.5-0.6l0.7,3.3c0.1,0.3,0.3,0.5,0.6,0.5h0.1c0.3-0.1,0.5-0.4,0.5-0.7l-0.7-3.3l3.5-0.6l0.7,3.3
	c0.1,0.3,0.3,0.5,0.6,0.5h0.1c0.3-0.1,0.5-0.4,0.5-0.7l-0.7-3.2l3.5-0.6l0.7,3.2c0.1,0.3,0.3,0.5,0.6,0.5h0.1
	c0.3-0.1,0.5-0.4,0.5-0.7l-0.7-3.2l3.9-0.7l0.7,3.2c0.1,0.3,0.3,0.5,0.6,0.5h0.1c0.3-0.1,0.5-0.4,0.5-0.7l-0.7-3.1l1.9-0.3
	L270.1,267z M197.1,257.9c0,0,0,0.1,0,0.1c-0.1,0.6-0.1,1.3,0,1.9c0.8,3.3,4.1,6.5,9.5,6.5h23.9l-20.6,3.7c-0.2,0-0.3,0.1-0.4,0.3
	c-0.1,0.1-0.1,0.3-0.1,0.5l1.6,7.2c0.1,0.3,0.3,0.5,0.6,0.5h0.1l59.2-10.5c0.2,0,0.3-0.1,0.4-0.3c0.1-0.1,0.1-0.3,0.1-0.5l-1.6-7.3
	c0-0.1-0.1-0.2-0.2-0.3v-0.1l-7.7-26.5c-0.1-0.3-0.3-0.4-0.6-0.4h-8.3l0.6-0.1c0.9-0.2,1.7-0.7,2.2-1.4c0.5-0.8,0.7-1.7,0.5-2.6
	l-0.1-0.3c-0.4-1.8-2.2-3-4-2.7l-30.8,6.2c-0.4,0-0.8,0-1.1,0.2c-0.5,0.2-1.1,0.5-1.6,0.8l-12.9,0.2c-1.1-1.4-2.8-2.2-4.5-2.1
	c-1.2,0-2.3,0.4-3.2,1.1c-1.4,1-2.6,2.7-2.6,3.2c0,0,0,0.1,0,0.1C196.8,241.5,197.2,252.7,197.1,257.9L197.1,257.9z"/>
<path d="M222.8,248h1.7c0.8,0,1.7-0.8,2.6-1.6c0.3-0.3,0.4-0.7,0.4-1.1c-0.1-0.5-0.4-0.9-0.9-1.1l-1.3-0.7l-0.1,0l0.1,0l0.6-0.3
	c0.5-0.2,1-0.2,1.5,0l1.3,0.7c0.8,0.4,1.7,0.5,2.6,0.3l1.7-0.4c1-0.2,1.7-1,1.7-2v-0.2c0-0.3,0.3-0.6,0.6-0.6h1.4
	c0.2,0,0.3,0.1,0.4,0.2c0.1,0.1,0.2,0.3,0.2,0.4v0.2c0,1,0.7,1.8,1.6,2l1.7,0.4c0.9,0.2,1.8,0.1,2.6-0.3l1.3-0.7
	c0.5-0.2,1-0.2,1.5,0l0.6,0.3l0.1,0l-0.1,0l-1.3,0.7c-0.3,0.1-0.4,0.4-0.5,0.6c-0.2,0.8,0.3,1.8,0.5,2.1c0.5,0.7,1.3,1,2.1,1h2.2
	c0.4,0,0.6,0.2,0.6,0.4c0,0.2-0.2,0.4-0.6,0.4h-2.2c-0.8,0-1.7,0.8-2.6,1.6c-0.3,0.3-0.4,0.7-0.4,1.1c0.1,0.5,0.4,0.9,0.9,1.1
	l1.3,0.7l0.1,0l-0.1,0l-0.6,0.3c-0.5,0.2-1,0.2-1.5,0l-1.3-0.7c-0.8-0.4-1.7-0.5-2.6-0.3l-1.7,0.4c-1,0.2-1.7,1-1.7,2v0.2
	c0,0.2-0.1,0.3-0.2,0.4c-0.1,0.1-0.3,0.2-0.4,0.2h-1.4c-0.3,0-0.6-0.3-0.6-0.6V255c0-1-0.7-1.8-1.6-2l-1.7-0.4
	c-0.3-0.1-0.6-0.1-0.9-0.1c-0.6,0-1.2,0.1-1.7,0.4l-1.3,0.7c-0.5,0.2-1,0.2-1.5,0l-0.6-0.3l-0.1-0.1l0.1,0l1.3-0.7
	c0.3-0.1,0.4-0.4,0.5-0.6c0.2-0.8-0.3-1.8-0.5-2.1c-0.5-0.7-1.3-1.1-2.1-1.1h-1.7c-0.4,0-0.6-0.2-0.6-0.4
	C222.2,248.2,222.4,247.9,222.8,248L222.8,248z M222.8,250h1.7c0.4,0,0.8,0.2,1.1,0.5c0.2,0.4,0.4,0.8,0.4,1.2l-1.2,0.6
	c-0.4,0.2-0.7,0.6-0.7,1.1c0,0.5,0.3,0.9,0.7,1.1l0.6,0.3c0.8,0.4,1.8,0.4,2.7,0l1.3-0.7c0.6-0.2,1.2-0.3,1.8-0.2l1.8,0.4
	c0.4,0.1,0.7,0.4,0.7,0.8v0.2c0,1,0.8,1.8,1.8,1.8h1.4c1,0,1.8-0.8,1.8-1.8V255c0-0.4,0.3-0.7,0.7-0.8l1.8-0.4
	c0.6-0.1,1.2-0.1,1.7,0.2l1.3,0.7c0.8,0.4,1.8,0.4,2.7,0l0.6-0.3c0.4-0.2,0.7-0.6,0.7-1.1c0-0.5-0.3-0.9-0.7-1.1l-1.3-0.7
	c-0.2-0.1-0.2-0.2-0.2-0.2s0,0,0-0.1c1.3-1.2,1.7-1.3,1.7-1.3h2.2c0.5,0.1,0.9-0.1,1.3-0.4c0.3-0.3,0.5-0.7,0.5-1.2
	c0-0.5-0.2-0.9-0.5-1.2c-0.3-0.3-0.8-0.4-1.3-0.4h-2.2c-0.4,0-0.8-0.2-1.1-0.5c-0.2-0.4-0.4-0.8-0.4-1.2l1.2-0.6
	c0.4-0.2,0.7-0.6,0.7-1.1c0-0.5-0.3-0.9-0.7-1.1l-0.6-0.3c-0.8-0.4-1.8-0.4-2.7,0l-1.2,0.7c-0.6,0.2-1.2,0.3-1.8,0.2l-1.8-0.4
	c-0.4-0.1-0.7-0.4-0.7-0.8v-0.2c0-1-0.8-1.8-1.8-1.8h-1.4c-1,0-1.8,0.8-1.8,1.8v0.2c0,0.4-0.3,0.7-0.7,0.8l-1.8,0.4
	c-0.6,0.1-1.2,0.1-1.7-0.2L228,242c-0.8-0.4-1.8-0.4-2.7,0l-0.6,0.3c-0.4,0.2-0.7,0.6-0.7,1.1c0,0.5,0.3,0.9,0.7,1.1l1.3,0.7
	c0.2,0.1,0.2,0.2,0.2,0.2c0,0,0,0,0,0.1c-1.3,1.2-1.7,1.3-1.7,1.3h-1.7c-0.5-0.1-0.9,0.1-1.3,0.4c-0.3,0.3-0.5,0.7-0.5,1.2
	c0,0.5,0.2,0.9,0.5,1.2C221.9,249.9,222.3,250,222.8,250L222.8,250z"/>
<path d="M236.2,246.6c2.1,0,3.6,0.9,3.6,1.7s-1.5,1.7-3.6,1.7c-2.1,0-3.6-0.9-3.6-1.7S234.1,246.6,236.2,246.6z M236.2,251.3
	c2.7,0,4.8-1.3,4.8-2.9s-2.1-2.9-4.8-2.9c-2.7,0-4.8,1.3-4.8,2.9S233.5,251.3,236.2,251.3z"/>
<path fill-rule="evenodd" clip-rule="evenodd" d="M285.7,133c0.1,0.7,0.3,0.8,1.2,0.8c0.8,0,1.7-0.5,1.7-1.2c0-0.7-1.2-0.8-1.8-0.7
	C286.2,132,285.6,132.4,285.7,133L285.7,133z M284.5,141.4c-1.7,0-3.3,1.3-4,2.8c0,0-0.2,0.4-0.2,0.4c0.1,0.1,0.5,0,0.5,0
	c2.6-0.3,5.1-0.7,7.7-1.1c0.1,0,0.2-0.1,0.2-0.1c0-0.1-0.1-0.2-0.1-0.3C287.6,141.9,286.2,141.3,284.5,141.4L284.5,141.4z
	 M280.8,145.2c-1.3,0.5-1-0.2-0.7-0.9c0.6-2,2.1-2.9,3.9-3.4c0.2-0.1,0.5-0.3,0.6-0.5c0.6-1.5,2-4.9,2.1-5.3c0-0.2-0.1-0.6-0.3-0.7
	c-0.9-0.4-1.1-1-0.9-2c0.3-1.5,3.1-0.7,3.3-0.2c0.3,0.9-0.2,1.5-0.9,2.1c-0.5,0.4-0.8,1-1,1.6c-0.6,1.4-1.1,2.8-1.6,4.2
	c0,0.1,0.2,0.4,0.4,0.5c1.1,0.7,1.9,0.8,2.7,1.5c0.8,0.7,1.7,1.6,1.8,1.8C290,143.9,281,145.1,280.8,145.2L280.8,145.2z"/>
<path fill-rule="evenodd" clip-rule="evenodd" d="M367.2,126.6L367.2,126.6L367.2,126.6z"/>
<polygon fill-rule="evenodd" clip-rule="evenodd" points="279.1,118 279.1,118 279.1,118 "/>
<polygon fill-rule="evenodd" clip-rule="evenodd" points="279.1,118 279.1,118 279.1,118 "/>
<path fill-rule="evenodd" clip-rule="evenodd" d="M322.8,155c0,0.2-2.1,0.3-2.3,0.3c-3.4,0.2-79.6,6.1-83.1,6.3
	c-0.3-3.6-2.1-19.8-3.7-33.9c2.4-0.1,82.3-5.9,88.1-6.3C322.4,135.8,322.9,153.2,322.8,155L322.8,155z M244.6,105.9
	c0.2,0.2,9,8.2,9,9c0.1,0.6-2.7,7.7-3.6,9.5c-0.2,0.4-1.4,1.6-1.8,1.7c-2.3,0.3-13.3,1-14.6,1.1c-1.1-10.1-2.1-18.9-2.3-20.9
	C232.5,106.1,244.5,105.8,244.6,105.9L244.6,105.9z M264.3,104.6c0.5,0,1.1,0.2,1.6,0.5c0.4,0.3,5.3,6,7.3,8.4
	c0.1,0.1-3.7,8.2-4.6,9.6c-0.1,0.2-1.4,1.6-1.6,1.6c-2.9,0.2-17.2,1.2-17.1,1.1c0.5-1,1.4-3,1.9-4c0.8-1.6,3.2-7.1,2.9-7.5
	c-1.3-1.8-7.7-6.8-8.9-8.1c-0.1-0.1-0.6-0.5-0.6-0.6C245.3,105.5,262.4,104.6,264.3,104.6L264.3,104.6z M266.6,104.5
	c3.5-0.1,18.4-1,18.8-0.8c0.7,0.3,1.1,0.6,1.6,1.1c2,2.1,6.2,7,6.3,7c0,0-3.7,9.9-4.2,11.1c-0.1,0.2-21.1,2.1-20.8,1.6
	c1.1-1.8,5.3-9.8,5.4-10c0.3-0.3,0.3-1.2,0-1.5c-0.4-0.3-5.2-5.7-7.3-8c-0.1-0.1-0.1-0.2-0.2-0.4
	C266.4,104.6,266.5,104.5,266.6,104.5L266.6,104.5z M305.5,102.9c0.5,0.1,1.1,0.9,1.4,1.5c1.1,1.8,2.5,4.2,3.6,6
	c0.6,1-3.3,9.4-4.2,11.4c-0.1,0.3-16.5,1.3-16.5,1.1c0.7-1.9,2-5.9,2.7-7.8c0.3-0.7,1-2.7,1.2-3.4c0,0-6.9-8.1-7.1-8.4
	C287.1,103.4,304.2,102.7,305.5,102.9L305.5,102.9z M306.5,102.9c0-0.1,0.2-0.2,0.3-0.2c0.6,0,12.5-0.4,14.6-0.4
	c0,3,0.5,10.7,0.4,18.6c-2.4,0.1-14.3,0.6-14.3,0.5c0.9-2.1,4.1-10.2,4-10.6c-1-2.7-3-5.4-4.8-7.7
	C306.6,103.1,306.5,102.9,306.5,102.9L306.5,102.9z M322,101.5c0,0-89.3,3.6-91.3,3.9c-0.1,0,6.1,56.6,6.2,57
	c0,0.1,81.2-6.5,83.8-6.6c0.3,0,2.6-0.1,2.7-0.2C323.5,152.8,322,101.5,322,101.5L322,101.5z"/>
<path fill-rule="evenodd" clip-rule="evenodd" d="M251.6,129.9c0-0.1,0.3-0.1,0.3,0c0.1,0.6,3,26.6,3,27.9c0,0.1-0.3,0.1-0.3,0
	C254.6,157.5,251.7,131.1,251.6,129.9L251.6,129.9z"/>
<path fill-rule="evenodd" clip-rule="evenodd" d="M269.2,128.7c0-0.1,0.3-0.1,0.3,0c0.1,0.6,3,26.6,3,27.9c0,0.1-0.3,0.1-0.3,0
	C272.2,156.4,269.3,130,269.2,128.7L269.2,128.7z"/>
<path fill-rule="evenodd" clip-rule="evenodd" d="M288.8,126.7c0-0.1,0.3-0.1,0.3,0c0.1,0.6,3,26.6,3,27.9c0,0.1-0.3,0.1-0.3,0
	C291.8,154.4,288.9,128,288.8,126.7L288.8,126.7z"/>
<path fill-rule="evenodd" clip-rule="evenodd" d="M275.7,125.4c0-0.1,0.3-0.1,0.3,0c0.1,0.6,3,26.6,3,27.9c0,0.1-0.3,0.1-0.3,0
	C278.7,153.1,275.9,126.7,275.7,125.4L275.7,125.4z"/>
<path fill-rule="evenodd" clip-rule="evenodd" d="M292,137.5c0,0.1-0.4,0.2-0.6,0.3c0-0.2-0.1-0.3-0.1-0.5c0-0.2-0.1-0.6-0.1-0.6
	c-0.7,0-1.2,0-1.4,1l-1.6,8.3c-0.4,1.5-2.6,0.2-2.5,0c0.3-1.1,2.1-7.2,2.4-9.2c0-0.2,0.3-0.4-0.3-0.6c-0.6-0.2-3,1.7-2.9,0.9
	c0.2-2.1,4.1-2.1,5.6-1.6c0,0-0.1,0.4,0.1,0.4c0.3,0.1,0.7,0,0.7,0c0,0,0-1,0.1-1.1c0.3,0.3,1.2,0.1,1.2,0.4
	C292.6,135.8,292.2,136.9,292,137.5L292,137.5z M291.5,134.3c-0.1,0-0.5,0-0.5,0.1c-0.1,0.3,0,0.9-0.1,1.2l-0.2,0
	c-0.1-0.1,0-0.5-0.1-0.5c-1.1-0.1-2.5-0.3-3.6-0.1c-1.2,0.1-3.7,1.8-2.6,2.9c1,0.9,1.9-0.7,2.5-1.1c0.1-0.1,0.8-0.1,0.7,0
	c-0.1,0.7-0.4,1.5-0.5,2.1c-0.6,2.3-1.3,4.6-1.9,6.9c-0.1,0.2,0,0.6,0.2,0.7c0.7,0.3,1.4,0.6,2.1,0.8c0.2,0,0.6-0.2,0.6-0.4
	c0.5-2,1-3.9,1.4-5.9c0.3-1.1,0.5-3.8,1-3.8c0.1,0,0.4,0,0.4,0c-0.3,0.8,0.3,1.2,0.3,1.1c0.2,0,1.2,0,1.2-0.1
	c0.3-0.9,0.2-1.8,0.4-2.4C293.1,134.5,292.2,134.5,291.5,134.3L291.5,134.3z"/>
<path d="M278.3,147.4l-0.3-6.8l0.8-0.1c0,0,2.1,4.8,2.3,4.9s2.5-5.4,2.5-5.4l1.2-0.1l0.4,7L278.3,147.4z M282.9,140.1
	c0,0-1.7,4.4-1.9,4.3c-0.2,0-1.7-3.9-1.7-3.9L282.9,140.1z M285.1,139.4l-1.3,0.1c0,0,1.6-2.9,1.5-3.5c-0.1-0.5-0.3-0.5-0.5-0.2
	c-0.2,0.3-1.6,3.8-1.6,3.8l-4,0.4c0,0-0.5-1.3-0.7-1.6c-0.2-0.3-0.5-0.1-0.5,0.2c0,0.4,0.6,1.5,0.6,1.5l-1.1,0.1l0.4,7.8l7.8-0.7
	L285.1,139.4z"/>
<path d="M237.3,140.4c0,0,4.4,11.6,3.4,12.4c-1,0.8,9.9-3.3,9.9-3.3s0.1-12.2-2.9-11.9C244.6,137.8,237.3,140.4,237.3,140.4
	L237.3,140.4z M240.4,153c0.9-0.7-3.3-12.7-3.3-12.7l0.1,0c0,0,7.6-2.7,10.6-2.9c3-0.2,3.3,12.2,3.3,12.2l-0.1,0
	C251,149.6,239.5,153.7,240.4,153L240.4,153z"/>
<path fill-rule="evenodd" clip-rule="evenodd" d="M246.1,146.7c-0.2-0.9-0.5-1.8-0.8-2.8c0.8-0.3,1.5-0.5,2.2-0.7
	c0.3,0.9,0.5,1.8,0.8,2.7C247.6,146.1,246.8,146.4,246.1,146.7L246.1,146.7z M241.2,142.3c0.9-0.3,2-0.7,3.1-1l0.6,2.4
	c-1.1,0.4-2.2,0.8-3.1,1.1L241.2,142.3z M249.9,145.2c-0.1,0-0.7,0.3-1.5,0.6c-0.2-0.8-0.4-1.8-0.7-2.7c1.2-0.4,2-0.7,2.1-0.7
	c0,0,0-0.4,0-0.4c-0.1,0-1,0.3-2.1,0.7c-0.2-0.8-0.5-1.7-0.7-2.3c1.1-0.4,1.8-0.6,1.9-0.6c0,0,0-0.4,0-0.4c-0.1,0-0.9,0.3-1.9,0.7
	c-0.3-0.8-0.5-1.3-0.6-1.3c-0.1,0,0,0.6,0.3,1.4c-0.7,0.2-1.4,0.5-2.2,0.8c-0.2-0.7-0.2-1.3-0.4-1.2c-0.2,0,0.3,1.3,0.3,1.3
	c-1.1,0.4-2.1,0.8-3.1,1.1l-0.4-1.5c-0.2,0.1-0.2,0.7-0.1,1.6c-1.2,0.4-2,0.7-2,0.7c0,0,0,0.2,0,0.2c0.1,0,0.9-0.3,2.1-0.6
	c0.1,0.7,0.4,1.6,0.6,2.4c-1,0.3-1.7,0.6-1.7,0.6c0,0,0,0.2,0,0.2c0.1,0,0.8-0.2,1.7-0.5c0.3,1,0.6,2.1,0.9,2.9
	c-0.8,0.3-1.4,0.6-1.4,0.6c0,0,0,0.2,0,0.2c0.1,0,0.7-0.2,1.5-0.5c0.4,1,0.6,1.8,0.7,1.9l-0.5-2c0.9-0.3,2-0.7,3.1-1.2l0.6,2.3
	c0.3-0.1,0.2-1.1-0.1-2.4c0.8-0.3,1.5-0.6,2.1-0.8c0.3,1.2,0.4,2.2,0.1,2.3c0,0,0.3,0.1,0.3,0.1c0.2-0.1,0.1-1.1-0.2-2.5
	c0.8-0.3,1.4-0.5,1.5-0.6C249.9,145.5,249.9,145.2,249.9,145.2L249.9,145.2z"/>
<path d="M259,147.9c-0.1,0-0.6,0.3-0.8,0.2c-0.2-0.1-0.2-0.3-0.2-0.6c0-0.3,0.3-0.7,0.7-1.6l0.2,0.8l1.1-0.2
	C259.7,146.9,259.3,147.4,259,147.9L259,147.9z M263.6,136.2c0-0.1,0.4,0,0.8,0.1l-5.3,9.5l-0.1-0.3
	C260.5,142.4,263.4,136.6,263.6,136.2L263.6,136.2z M259.1,146l5.4-9.6c0.3,0.1,0.6,0.2,0.9,0.3l-6,9.6l-0.3,0.1L259.1,146z
	 M260.2,146.1l-0.6,0.1l5.9-9.5c0.5,0.2,1,0.3,1,0.3S262.8,142.3,260.2,146.1L260.2,146.1z M263.3,135.9c-0.8,1.4-4.4,8.8-5.2,10.1
	c-0.4,0.8-0.9,2.9-0.8,3.6c0.9-0.5,1.8-1,2.3-2c0.6-1.3,7-9.9,7.5-10.9C265.8,136.4,264.7,135.5,263.3,135.9L263.3,135.9z"/>
<path d="M515.4,138.6h-26.6c6.3-1.8,12.9-2.8,19.5-2.8c0.9,0,1.7-0.8,1.7-1.7l0-36.2h5.4L515.4,138.6z M442.5,98h5.4v36.2
	c0,0.9,0.8,1.7,1.7,1.7c6.7,0,13.2,1,19.5,2.8h-26.6V98z M451.2,92c9,0.2,17.7,2.1,26.1,5.5v40.3c-8.4-3.3-17.1-5.1-26.1-5.3
	L451.2,92L451.2,92z M480.6,137.8V97.5c8.4-3.4,17.1-5.3,26.1-5.5v40.6C497.6,132.7,489,134.6,480.6,137.8L480.6,137.8z M516.9,94.7
	h-7v-4.3c0-0.9-0.8-1.7-1.7-1.7c-10.1,0-20,2-29.4,5.8c-9.4-3.9-19.2-5.8-29.4-5.8c-0.9,0-1.7,0.8-1.7,1.7v4.3h-6.9
	c-0.9,0-1.7,0.8-1.7,1.7v43.9c0,0.9,0.8,1.7,1.7,1.7H517c0.9,0,1.7-0.8,1.7-1.7V96.3C518.6,95.5,517.9,94.7,516.9,94.7L516.9,94.7z"
	/>
<path d="M457.3,102.4c4.4,0.5,8.9,1.3,13.1,2.7c0.2,0.1,0.3,0.1,0.5,0.1c0.7,0,1.3-0.5,1.6-1.2c0.3-0.8-0.3-1.8-1.1-2
	c-4.5-1.3-9.1-2.3-13.7-2.8c-0.9-0.1-1.7,0.6-1.8,1.4C455.8,101.5,456.5,102.3,457.3,102.4L457.3,102.4z"/>
<path d="M471.4,109.9c-4.5-1.3-9.1-2.3-13.7-2.8c-0.9-0.1-1.7,0.6-1.8,1.4c-0.1,0.9,0.6,1.7,1.4,1.8c4.4,0.5,8.9,1.3,13.1,2.7
	c0.2,0.1,0.3,0.1,0.5,0.1c0.7,0,1.3-0.4,1.6-1.2C472.8,111,472.2,110.1,471.4,109.9L471.4,109.9z"/>
<path d="M471.4,117.8c-4.5-1.3-9.1-2.3-13.7-2.8c-0.9-0.1-1.7,0.6-1.8,1.4c-0.1,0.9,0.6,1.7,1.4,1.8c4.4,0.5,8.9,1.3,13.1,2.7
	c0.2,0.1,0.3,0.1,0.5,0.1c0.7,0,1.3-0.4,1.6-1.2C472.8,119,472.2,118,471.4,117.8L471.4,117.8z"/>
<path d="M471.4,125.6c-4.5-1.3-9.1-2.3-13.7-2.8c-0.9-0.1-1.7,0.6-1.8,1.4c-0.1,0.9,0.6,1.7,1.4,1.8c4.4,0.5,8.9,1.3,13.1,2.7
	c0.2,0.1,0.3,0.1,0.5,0.1c0.7,0,1.3-0.4,1.6-1.2C472.8,126.8,472.2,125.9,471.4,125.6L471.4,125.6z"/>
<path d="M500.1,99.2c-4.6,0.5-9.2,1.4-13.7,2.8c-0.8,0.3-1.3,1.2-1.1,2c0.3,0.7,0.8,1.2,1.6,1.2c0.2,0,0.3,0,0.5-0.1
	c4.3-1.3,8.8-2.2,13.1-2.7c0.9-0.1,1.6-0.9,1.4-1.8C501.9,99.7,501.1,99.1,500.1,99.2L500.1,99.2z"/>
<path d="M500.1,107.1c-4.6,0.5-9.3,1.4-13.7,2.8c-0.8,0.3-1.3,1.2-1.1,2c0.3,0.7,0.8,1.2,1.6,1.2c0.2,0,0.3,0,0.5-0.1
	c4.3-1.3,8.7-2.2,13.1-2.7c0.9-0.1,1.6-0.9,1.4-1.8C501.9,107.6,501.1,106.9,500.1,107.1L500.1,107.1z"/>
<path d="M500.1,114.9c-4.6,0.5-9.3,1.5-13.7,2.8c-0.8,0.3-1.3,1.2-1.1,2c0.3,0.7,0.8,1.2,1.6,1.2c0.2,0,0.3,0,0.5-0.1
	c4.3-1.3,8.7-2.2,13.1-2.7c0.9-0.1,1.6-0.9,1.4-1.8C501.9,115.5,501.1,114.9,500.1,114.9L500.1,114.9z"/>
<path d="M500.1,122.9c-4.6,0.5-9.3,1.4-13.7,2.8c-0.8,0.3-1.3,1.2-1.1,2c0.3,0.7,0.8,1.2,1.6,1.2c0.2,0,0.3,0,0.5-0.1
	c4.3-1.3,8.7-2.2,13.1-2.7c0.9-0.1,1.6-0.9,1.4-1.8C501.9,123.5,501.1,122.8,500.1,122.9L500.1,122.9z"/>
<text transform="matrix(1 0 0 1 84.3188 278.539)" font-family="'ArialMT'" font-size="18px">UX designer</text>
<text transform="matrix(1 0 0 1 423.1148 163.9616)" font-family="'ArialMT'" font-size="18px">Documentation</text>
<text transform="matrix(1 0 0 1 439.2567 283.3232)"><tspan x="0" y="0" font-family="'ArialMT'" font-size="18px">TWs and </tspan><tspan x="0" y="21.6" font-family="'ArialMT'" font-size="18px">UX writing</tspan></text>
<rect x="0" y="44" fill="none" width="600" height="45.9"/>
<text transform="matrix(1 0 0 1 79.0406 65.4878)" font-family="'ArialMT'" font-size="25px">The impact of UX and the need for docs</text>
<g>
	<path fill="none" d="M56.4,187.8c0,0-19.8-65.9,44.9-124.8"/>
	<text transform="matrix(-0.2093 -0.9778 0.9778 -0.2093 55.9293 186.2066)" font-family="'ArialMT'" font-size="9px"></text>
	<text transform="matrix(-0.1566 -0.9877 0.9877 -0.1566 55.2847 183.3705)" font-family="'ArialMT'" font-size="9px">S</text>
	<text transform="matrix(-0.1032 -0.9947 0.9947 -0.1032 54.373 177.5347)" font-family="'ArialMT'" font-size="9px">o</text>
	<text transform="matrix(-6.945117e-02 -0.9976 0.9976 -6.945117e-02 53.8833 172.6073)" font-family="'ArialMT'" font-size="9px">f</text>
	<text transform="matrix(-4.752361e-02 -0.9989 0.9989 -4.752361e-02 53.7099 170.1263)" font-family="'ArialMT'" font-size="9px">t</text>
	<text transform="matrix(-9.501412e-03 -0.9999 0.9999 -9.501412e-03 53.5561 167.7103)" font-family="'ArialMT'" font-size="9px">w</text>
	<text transform="matrix(3.810610e-02 -0.9993 0.9993 3.810610e-02 53.5114 161.2875)" font-family="'ArialMT'" font-size="9px">a</text>
	<text transform="matrix(7.089450e-02 -0.9975 0.9975 7.089450e-02 53.7172 156.3143)" font-family="'ArialMT'" font-size="9px">r</text>
	<text transform="matrix(0.103 -0.9947 0.9947 0.103 53.908 153.393)" font-family="'ArialMT'" font-size="9px">e</text>
	<text transform="matrix(0.133 -0.9911 0.9911 0.133 54.4378 148.4575)" font-family="'ArialMT'" font-size="9px"> </text>
	<text transform="matrix(0.1529 -0.9882 0.9882 0.1529 54.7652 146.0129)" font-family="'ArialMT'" font-size="9px">t</text>
	<text transform="matrix(0.1825 -0.9832 0.9832 0.1825 55.1218 143.5794)" font-family="'ArialMT'" font-size="9px">e</text>
	<text transform="matrix(0.2194 -0.9756 0.9756 0.2194 56.0254 138.7296)" font-family="'ArialMT'" font-size="9px">c</text>
	<text transform="matrix(0.256 -0.9667 0.9667 0.256 56.995 134.3941)" font-family="'ArialMT'" font-size="9px">h</text>
	<text transform="matrix(0.2939 -0.9558 0.9558 0.2939 58.2584 129.6169)" font-family="'ArialMT'" font-size="9px">n</text>
	<text transform="matrix(0.32 -0.9474 0.9474 0.32 59.7383 124.8728)" font-family="'ArialMT'" font-size="9px">i</text>
	<text transform="matrix(0.3437 -0.9391 0.9391 0.3437 60.3458 123.0211)" font-family="'ArialMT'" font-size="9px">c</text>
	<text transform="matrix(0.3779 -0.9258 0.9258 0.3779 61.8735 118.8325)" font-family="'ArialMT'" font-size="9px">a</text>
	<text transform="matrix(0.4025 -0.9154 0.9154 0.4025 63.7646 114.2519)" font-family="'ArialMT'" font-size="9px">l</text>
	<text transform="matrix(0.418 -0.9084 0.9084 0.418 64.5575 112.4418)" font-family="'ArialMT'" font-size="9px"> </text>
	<text transform="matrix(0.4483 -0.8939 0.8939 0.4483 65.5498 110.2027)" font-family="'ArialMT'" font-size="9px">w</text>
	<text transform="matrix(0.4792 -0.8777 0.8777 0.4792 68.4627 104.4622)" font-family="'ArialMT'" font-size="9px">r</text>
	<text transform="matrix(0.4951 -0.8688 0.8688 0.4951 69.8925 101.8529)" font-family="'ArialMT'" font-size="9px">i</text>
	<text transform="matrix(0.509 -0.8607 0.8607 0.509 70.8616 100.1475)" font-family="'ArialMT'" font-size="9px">t</text>
	<text transform="matrix(0.5228 -0.8524 0.8524 0.5228 72.1311 98.0054)" font-family="'ArialMT'" font-size="9px">i</text>
	<text transform="matrix(0.5436 -0.8394 0.8394 0.5436 73.1336 96.3349)" font-family="'ArialMT'" font-size="9px">n</text>
	<text transform="matrix(0.5721 -0.8202 0.8202 0.5721 75.82 92.1856)" font-family="'ArialMT'" font-size="9px">g</text>
	<text transform="matrix(0.5926 -0.8055 0.8055 0.5926 78.6783 88.1139)" font-family="'ArialMT'" font-size="9px"> </text>
	<path fill="none" d="M70.2,187.5c0,0-19.8-65.9,44.9-124.8"/>
	<text transform="matrix(-0.2162 -0.9763 0.9763 -0.2162 69.6596 185.818)" font-family="'ArialMT'" font-size="9px">i</text>
	<text transform="matrix(-0.1756 -0.9845 0.9845 -0.1756 69.2211 183.9536)" font-family="'ArialMT'" font-size="9px">s</text>
	<text transform="matrix(-0.1388 -0.9903 0.9903 -0.1388 68.4593 179.5721)" font-family="'ArialMT'" font-size="9px"> </text>
	<text transform="matrix(-0.1032 -0.9947 0.9947 -0.1032 68.0988 177.1692)" font-family="'ArialMT'" font-size="9px">a</text>
	<text transform="matrix(-6.945117e-02 -0.9976 0.9976 -6.945117e-02 67.6093 172.2415)" font-family="'ArialMT'" font-size="9px"> </text>
	<text transform="matrix(-3.694521e-02 -0.9993 0.9993 -3.694521e-02 67.4181 169.7973)" font-family="'ArialMT'" font-size="9px">d</text>
	<text transform="matrix(3.147206e-03 -1 1 3.147206e-03 67.2394 164.849)" font-family="'ArialMT'" font-size="9px">y</text>
	<text transform="matrix(2.990749e-02 -0.9995 0.9995 2.990749e-02 67.2696 160.405)" font-family="'ArialMT'" font-size="9px">i</text>
	<text transform="matrix(5.866887e-02 -0.9983 0.9983 5.866887e-02 67.3067 158.4347)" font-family="'ArialMT'" font-size="9px">n</text>
	<text transform="matrix(9.913523e-02 -0.9951 0.9951 9.913523e-02 67.595 153.5011)" font-family="'ArialMT'" font-size="9px">g</text>
	<text transform="matrix(0.1291 -0.9916 0.9916 0.1291 68.1034 148.5817)" font-family="'ArialMT'" font-size="9px"> </text>
	<text transform="matrix(0.1569 -0.9876 0.9876 0.1569 68.4073 146.1323)" font-family="'ArialMT'" font-size="9px">c</text>
	<text transform="matrix(0.1943 -0.9809 0.9809 0.1943 69.0974 141.7501)" font-family="'ArialMT'" font-size="9px">a</text>
	<text transform="matrix(0.2252 -0.9743 0.9743 0.2252 70.0716 136.9085)" font-family="'ArialMT'" font-size="9px">r</text>
	<text transform="matrix(0.256 -0.9667 0.9667 0.256 70.721 134.0282)" font-family="'ArialMT'" font-size="9px">e</text>
	<text transform="matrix(0.2939 -0.9558 0.9558 0.2939 71.9845 129.2511)" font-family="'ArialMT'" font-size="9px">e</text>
	<text transform="matrix(0.3236 -0.9462 0.9462 0.3236 73.4572 124.5144)" font-family="'ArialMT'" font-size="9px">r</text>
	<text transform="matrix(0.3437 -0.9391 0.9391 0.3437 74.4154 121.7164)" font-family="'ArialMT'" font-size="9px"> </text>
	<text transform="matrix(0.3619 -0.9322 0.9322 0.3619 75.2726 119.3757)" font-family="'ArialMT'" font-size="9px">.</text>
	<text transform="matrix(0.3795 -0.9252 0.9252 0.3795 76.1551 117.0999)" font-family="'ArialMT'" font-size="9px">.</text>
	<text transform="matrix(0.3972 -0.9177 0.9177 0.3972 77.0958 114.8064)" font-family="'ArialMT'" font-size="9px">.</text>
	<text transform="matrix(0.4162 -0.9093 0.9093 0.4162 78.0761 112.5342)" font-family="'ArialMT'" font-size="9px"></text>
	<text transform="matrix(0.4349 -0.9005 0.9005 0.4349 79.3149 109.8354)" font-family="'ArialMT'" font-size="9px"> </text>
	<text transform="matrix(0.4598 -0.888 0.888 0.4598 80.3615 107.6259)" font-family="'ArialMT'" font-size="9px">?</text>
	<text transform="matrix(0.492 -0.8706 0.8706 0.492 82.6388 103.2258)" font-family="'ArialMT'" font-size="9px">?</text>
	<text transform="matrix(0.5228 -0.8524 0.8524 0.5228 85.0713 98.9207)" font-family="'ArialMT'" font-size="9px">?</text>
</g>
<path fill="#212121" d="M468.8,258.5v-25l-8.4,7.5v17.5c0,2.3,1.9,4.2,4.2,4.2C466.9,262.7,468.8,260.8,468.8,258.5L468.8,258.5z"/>
<path fill="#212121" d="M477,190.9c1,4.1-1.6,8.2-5.7,9.2c-4.1,1-8.2-1.6-9.2-5.7c-1-4.1,1.6-8.2,5.7-9.2
	C472,184.2,476.1,186.8,477,190.9"/>
<path fill="#212121" d="M506.9,207.8v-5.7c0-2.1-1.7-3.8-3.8-3.8l-11.4,0c-2.1,0-3.8,1.7-3.8,3.8l0,3.4v2.3L506.9,207.8z"/>
<polygon fill="#212121" points="493.6,243 501.2,243 501.2,208.9 493.6,208.9 493.6,216.3 "/>
<polygon fill="#212121" points="492.2,243 492.2,216.1 492.2,208.9 487.8,208.9 487.8,243 "/>
<rect x="502.5" y="208.9" fill="#212121" width="4.4" height="34.1"/>
<path fill="#212121" d="M495.7,261.1c0.9,1.9,2.5,1.9,3.4,0l7.8-17h-19.1L495.7,261.1z"/>
<path fill="#212121" d="M469.6,231.9c0.3-0.3,0.5-0.6,0.5-0.9c0.1-0.5,0-1-0.4-1.5l-0.9-1l-5.7-6.4c-0.6-0.7-1.7-0.8-2.4-0.1
	l-0.3,0.2l-1.7,1.5c0.5,1,1,2.1,1.7,3.2c0.3,0.6,0.7,1.1,1.1,1.7c0.4,0.7,0.6,1.4,0.5,2.1c-0.1,1-0.6,2-1.5,2.6c0,0-0.1,0-0.1,0.1
	c-0.5,0.3-1.1,0.5-1.7,0.5c-1.1,0-2.2-0.6-2.8-1.5c-0.9-1.3-1.7-2.7-2.3-4l-3.4,3.1c-0.7,0.6-0.8,1.7-0.1,2.4l6.6,7.4
	c0.6,0.7,1.7,0.8,2.4,0.1l1.4-1.3l8.4-7.5L469.6,231.9z"/>
<path fill="#212121" d="M454,227.9c0.7,1.3,1.5,2.6,2.4,4c0.5,0.8,1.4,1.2,2.3,1.2c0.5,0,1-0.1,1.5-0.5c0.1-0.1,0.2-0.1,0.2-0.2
	c0.7-0.6,1-1.4,1-2.2c0-0.5-0.2-0.9-0.4-1.4c-0.2-0.3-0.3-0.5-0.5-0.8c-0.9-1.4-1.6-2.8-2.2-4c-0.1-0.2-0.2-0.4-0.3-0.6
	c-0.6-1.3-0.9-2.5-1.2-3.6c-0.2-1-0.3-2-0.3-2.8c0-1.8,0.4-3.2,1-4.3c0.8-1.4,1.9-2.5,2.9-3.3v11.8c0,0,0,0,0.1,0
	c0.4-0.3,0.9-0.4,1.4-0.4c0.7,0,1.3,0.3,1.8,0.8l5.2,5.8l1.4,1.6c0.1,0.1,0.1,0.2,0.2,0.2c0.3,0.4,0.4,0.9,0.4,1.5
	c0,0.1,0,0.1,0,0.2c-0.1,0.4-0.2,0.7-0.4,1v26.5c0,2.3,1.9,4.2,4.2,4.2c2.3,0,4.2-1.9,4.2-4.2l0-36.6c0-0.2,0-0.4,0-0.6v-10.4
	c0.4,0.2,0.8,0.5,1.2,0.7c1.9,1.2,4.3,2.4,7.2,3.3v-5.8c-1.7-0.7-3.2-1.4-4.4-2.2c-1.5-0.9-2.6-1.8-3.4-2.4
	c-0.4-0.3-0.7-0.6-0.8-0.7c-0.1-0.1-0.2-0.1-0.2-0.2c0,0,0,0,0,0c0,0,0,0-0.1-0.1c-0.5-0.6-1.2-1-2.1-1l-13.1,0
	c-0.2,0-0.4,0-0.6,0.1c-0.3,0-0.5,0-0.8,0.1c-0.2,0.1-2.7,0.9-5.3,3.1c-1.3,1.1-2.6,2.5-3.7,4.4c-1,1.9-1.7,4.2-1.7,6.9
	c0,1.6,0.2,3.3,0.8,5.2c0.4,1.6,1.1,3.2,1.9,5C453.8,227.5,453.9,227.7,454,227.9L454,227.9z"/>
<path fill-rule="evenodd" clip-rule="evenodd" fill="none" stroke="#9A9A9A" stroke-width="1.573" stroke-miterlimit="10" d="
	M313.5,195.4c21.8-2.2,40.7-15.5,58.5-28.4c14-10.2,28.6-21,36-36.7"/>
<path fill-rule="evenodd" clip-rule="evenodd" fill="none" stroke="#9A9A9A" stroke-width="1.3464" stroke-miterlimit="10" d="
	M313.5,218.9c21.8,1.6,40.7,11.3,58.5,20.8c14,7.5,28.6,15.4,36,26.9"/>
<path fill-rule="evenodd" clip-rule="evenodd" fill="none" d="M310.2,190.3c21.8-2.2,40.7-15.5,58.5-28.4c14-10.2,28.6-21,36-36.7"
	/>
<text transform="matrix(0.9109 -0.4126 0.4126 0.9109 332.3635 184.3661)"><tspan x="0" y="0" font-family="'ArialMT'" font-size="13px">I</tspan><tspan x="4" y="0.1" font-family="'ArialMT'" font-size="13px" rotate="-3.9">m</tspan><tspan x="15.1" y="-0.7" font-family="'ArialMT'" font-size="13px" rotate="-7.5">p</tspan><tspan x="22.4" y="-1.7" font-family="'ArialMT'" font-size="13px" rotate="-9.5">a</tspan><tspan x="29.5" y="-2.9" font-family="'ArialMT'" font-size="13px" rotate="-10.8">c</tspan><tspan x="35.9" y="-4.1" font-family="'ArialMT'" font-size="13px" rotate="-11.3">t</tspan></text>
<path fill-rule="evenodd" clip-rule="evenodd" fill="none" d="M312.5,233.3c21.8,1.6,40.7,11.3,58.5,20.8c14,7.5,28.6,15.4,36,26.9"
	/>
<text transform="matrix(0.9263 0.3768 -0.3768 0.9263 343.0495 240.5897)"><tspan x="0" y="0" font-family="'ArialMT'" font-size="13px">I</tspan><tspan x="3.5" y="-0.1" font-family="'ArialMT'" font-size="13px" rotate="2.4">m</tspan><tspan x="14.3" y="0.4" font-family="'ArialMT'" font-size="13px" rotate="4.5">p</tspan><tspan x="21.4" y="1" font-family="'ArialMT'" font-size="13px" rotate="5.5">a</tspan><tspan x="28.6" y="1.7" font-family="'ArialMT'" font-size="13px" rotate="5.9">c</tspan><tspan x="35.1" y="2.4" font-family="'ArialMT'" font-size="13px" rotate="6.4">t</tspan></text>
<path fill-rule="evenodd" clip-rule="evenodd" fill="none" d="M368.1,134.8c6.7-2,13.3-4,20-5.9c0.3,5.1-0.5,12.9-2.1,17.7"/>
<path fill-rule="evenodd" clip-rule="evenodd" fill="none" d="M406.5,247.4c0.9,6,1.7,12,2.6,18.1c-7.3-0.4-16.7,4.2-24.1,3.8"/>
<path fill="none" stroke="#9A9A9A" stroke-width="1.573" stroke-miterlimit="10" d="M396.7,127.1c6-0.1,11.9-1.8,17-4.9
	c-1,5.6-2,11.3-3,16.9c-0.1,0.7-0.4,1.5-1.1,1.5c-0.7,0-0.4-1.4,0.1-0.9"/>
<path fill="none" stroke="#9A9A9A" stroke-width="1.573" stroke-miterlimit="10" d="M408.9,254.6c0.2,6,2,11.9,5.1,16.9
	c-5.7-0.9-11.3-1.8-17-2.8c-0.7-0.1-1.5-0.4-1.5-1.1c0-0.7,1.4-0.4,0.9,0.1"/>
<path fill="#505050" d="M115.4,153.4C115.4,153.5,115.5,153.5,115.4,153.4C115.5,153.5,115.5,153.5,115.4,153.4L115.4,153.4z
	 M159.7,168.4C159.7,168.4,159.7,168.4,159.7,168.4C159.7,168.4,159.7,168.4,159.7,168.4L159.7,168.4z M157.9,168.7
	C157.9,168.7,157.9,168.7,157.9,168.7C157.8,168.7,157.9,168.7,157.9,168.7z M157.3,169.5L157.3,169.5L157.3,169.5z M118,152.5
	c0.2,0.7-0.2,1.5-0.9,1.7c-0.7,0.2-1.5-0.1-1.7-0.9c-0.1-0.1-0.3-0.4-0.4-0.6c-0.1-0.3-0.1-0.5-0.1-0.8v-0.4c0-0.4,0.1-0.7,0.3-1
	c0.1-0.2,0.3-0.4,0.5-0.6c0.2-0.2,0.4-0.4,0.6-0.5c0.2-0.1,0.4-0.3,0.7-0.3c0.1,0,0.3-0.1,0.4-0.1c0.2,0,0.3-0.1,0.5-0.1
	c0.2,0,0.4-0.1,0.6-0.1c0.2,0,0.4,0,0.6,0h0.6c0.3,0,0.6,0,0.8,0c0.3,0,0.6,0.1,1,0.2c0.3,0.1,0.6,0.2,0.9,0.3
	c0.3,0.1,0.7,0.2,1,0.4c0.4,0.1,0.7,0.3,1,0.4c0.3,0.1,0.7,0.3,1.1,0.5c0.4,0.2,0.8,0.3,1.2,0.5c0.4,0.2,0.8,0.3,1.2,0.5
	c0.5,0.2,0.9,0.4,1.4,0.6c0.5,0.2,0.9,0.4,1.4,0.6c0.5,0.2,1,0.4,1.4,0.6c0.5,0.2,1,0.4,1.5,0.6c0.5,0.2,1,0.4,1.5,0.6
	c0.5,0.2,1,0.4,1.5,0.6c0.5,0.2,1,0.4,1.5,0.6c0.5,0.2,1,0.4,1.5,0.6c0.7,0.3,0.7,0.3,1.4,0.6c0.5,0.2,0.9,0.4,1.4,0.6
	c0.5,0.2,0.9,0.4,1.3,0.5c0.4,0.2,0.8,0.3,1.2,0.5c0.4,0.2,0.8,0.4,1.2,0.6c0.4,0.2,0.8,0.4,1.1,0.5c0.3,0.2,0.7,0.3,1,0.5
	c0.3,0.2,0.7,0.4,1,0.6c0.3,0.2,0.6,0.4,0.9,0.5c0.2,0.2,0.5,0.3,0.8,0.5c0.3,0.2,0.6,0.4,0.9,0.6c0.3,0.2,0.5,0.4,0.8,0.6
	c0.2,0.2,0.5,0.4,0.7,0.5c0.2,0.2,0.5,0.4,0.7,0.5c0.2,0.2,0.4,0.3,0.6,0.4c0.3,0.2,0.3,0.2,0.5,0.4c0.2,0.1,0.3,0.2,0.5,0.3
	c0.2,0.1,0.3,0.2,0.5,0.3c0.2,0.1,0.3,0.2,0.5,0.3c0.1,0.1,0.2,0.1,0.3,0.2c0.2,0.1,0.2,0.1,0.3,0.2c0.1,0.1,0.2,0.1,0.4,0.2
	c0.2,0.1,0.2,0.1,0.4,0.2c0.2,0.1,0.2,0.1,0.4,0.2c0.1,0,0.1,0.1,0.2,0.1c0.2-0.1,0.4-0.2,0.7-0.2c0.8,0,1.4,0.6,1.4,1.4v0.2
	c0,0.2,0,0.3,0,0.4c0,0.2,0,0.3-0.1,0.5c-0.1,0.2-0.2,0.5-0.3,0.7c-0.4,0.6-1.2,0.9-1.9,0.6c-0.3-0.1-0.6-0.4-0.8-0.6
	c-0.1-0.1-0.2-0.2-0.2-0.4c0-0.1-0.1-0.1-0.1-0.2c0,0-0.1,0-0.1-0.1c0,0-0.1-0.1-0.2-0.1c-0.2-0.1-0.2-0.1-0.4-0.3
	c-0.2-0.1-0.2-0.1-0.4-0.2c-0.1-0.1-0.2-0.1-0.2-0.2c-0.2-0.1-0.2-0.1-0.4-0.2c-0.2-0.1-0.3-0.2-0.5-0.3c-0.1-0.1-0.2-0.2-0.4-0.3
	c-0.1-0.1-0.3-0.2-0.5-0.3c-0.2-0.1-0.4-0.3-0.6-0.4c-0.3-0.2-0.3-0.2-0.5-0.4c-0.2-0.1-0.4-0.3-0.7-0.5c-0.2-0.2-0.4-0.3-0.6-0.5
	c-0.2-0.2-0.5-0.4-0.7-0.5c-0.2-0.2-0.5-0.4-0.7-0.5c-0.2-0.2-0.5-0.3-0.7-0.5c-0.3-0.2-0.6-0.4-0.8-0.5c-0.2-0.1-0.5-0.3-0.8-0.5
	c-0.3-0.2-0.6-0.3-0.9-0.5c-0.3-0.2-0.6-0.3-1-0.5c-0.3-0.2-0.7-0.3-1.1-0.5c-0.4-0.2-0.8-0.4-1.2-0.5c-0.4-0.2-0.8-0.4-1.1-0.5
	c-0.4-0.2-0.8-0.3-1.3-0.5c-0.5-0.2-0.9-0.4-1.4-0.6c-0.7-0.3-0.7-0.3-1.4-0.6c-0.5-0.2-1-0.4-1.5-0.6c-0.5-0.2-1-0.4-1.5-0.6
	c-0.5-0.2-1-0.4-1.5-0.6c-0.5-0.2-1-0.4-1.5-0.6c-0.5-0.2-1-0.4-1.5-0.6c-0.5-0.2-1-0.4-1.5-0.6c-0.5-0.2-1-0.4-1.5-0.6
	c-0.5-0.2-0.9-0.4-1.3-0.6c-0.4-0.2-0.8-0.4-1.2-0.5c-0.4-0.1-0.8-0.3-1.2-0.5c-0.4-0.2-0.8-0.3-1.1-0.4c-0.3-0.1-0.6-0.2-1-0.4
	c-0.3-0.1-0.6-0.2-0.9-0.3c-0.3-0.1-0.5-0.2-0.8-0.2c-0.2-0.1-0.4-0.1-0.6-0.1c-0.2,0-0.4,0-0.6,0H119c-0.2,0-0.3,0-0.5,0
	c-0.1,0-0.2,0-0.3,0c-0.1,0-0.2,0-0.3,0.1c-0.1,0-0.2,0-0.2,0.1c0,0,0,0-0.1,0.1c0,0-0.1,0.1-0.1,0.1
	C117.7,152,117.9,152.2,118,152.5L118,152.5z"/>
<path fill="#212020" d="M86.5,209.7l0.4,1.3c0.1,0,0.2-0.1,0.3-0.1c0.1,0,0.1,0,0.2-0.1c0.2-0.1,0.4-0.2,0.5-0.2c0.1,0,0.1,0,0.2,0
	c0.1,0,0.2,0,0.3,0h0.8c0.1,0,0.2,0,0.3,0c0.1,0,0.1,0,0.1,0c0.1,0,0.1,0,0.2,0c0.1,0,0.2,0,0.3,0c0.2,0,0.2,0,0.3,0.1
	c0.1,0,0.1,0,0.2,0c0,0,1.1,0,3.3,0c0.1,0,0.2,0,0.3,0c0.1,0,0.1,0,0.2,0c0.1,0,0.2,0,0.4,0c0.2,0,0.2,0,0.3,0l0.2,0l0.2,0
	c0.2,0,0.2,0,0.3,0l0.3,0c0.1,0,0.3,0,0.4,0.1c0.1,0,0.2,0,0.3,0c0.1,0,0.3,0,0.4,0.1c0.1,0,0.2,0,0.4,0.1c0.1,0,0.2,0,0.4,0
	c0.2,0,0.2,0,0.4,0c0.2,0,0.2,0,0.4,0c0.1,0,0.3,0,0.4,0c0.2,0,0.2,0,0.4,0c0.1,0,0.3,0,0.4,0h2.8c0.2,0,0.4,0,0.5,0
	c0.2,0,0.3,0,0.5,0c0.2,0,0.4,0,0.6,0c0.2,0,0.4,0,0.5,0c0.2,0,0.4,0,0.6,0c0.2,0,0.4,0,0.5,0c0.2,0,0.4,0,0.6,0.1
	c0.3,0,0.3,0,0.5,0.1c0.2,0,0.4,0,0.5,0.1c0.2,0,0.4,0,0.6,0.1c0.2,0,0.3,0,0.5,0.1c0.2,0,0.4,0,0.5,0c0.2,0,0.4,0,0.6,0h3.1
	c0.2,0,0.4,0,0.6,0c0.2,0,0.4,0,0.7,0c0.2,0,0.4,0,0.6,0c0.3,0,0.3,0,0.6,0c0.3,0,0.3,0,0.7,0c0.3,0,0.3,0,0.6,0c0.2,0,0.4,0,0.6,0
	c0.3,0,0.5,0,0.7,0c0.3,0,0.3,0,0.6,0c0.3,0,0.3,0,0.6,0c0.2,0,0.4,0,0.6,0c0.3,0,0.3,0,0.6,0c0.3,0,0.3,0,0.6,0c0.2,0,0.4,0,0.5,0
	c0.2,0,0.4,0,0.6-0.1c0.2,0,0.4,0,0.5,0c0.2,0,0.4,0,0.6,0c0.2,0,0.4,0,0.6,0c0.2,0,0.4,0,0.6,0h5.1c0.2,0,0.3,0,0.4,0
	c0.1,0,0.2,0,0.4,0c0.2,0,0.3,0,0.5,0c0.1,0,0.2,0,0.3,0c0.2,0,0.2,0,0.4,0c0.1,0,0.3,0,0.4,0c0.2,0,0.2,0,0.3,0c0.2,0,0.2,0,0.3,0
	c0.1,0,0.2,0,0.4,0c0.1,0,0.2,0,0.2,0c0.2,0,0.2,0,0.3,0c0.2,0,0.2,0,0.3,0c0.1,0,0.1,0,0.2,0c0.1,0,0.2,0,0.3,0c0.1,0,0.1,0,0.2,0
	h0.8v-0.4c0-0.3,0-0.3,0-0.4c0-0.1,0-0.1,0-0.2c0-0.1,0-0.1,0-0.3c0-0.1,0-0.1,0-0.3c0-0.1,0-0.1,0-0.3c0-0.2,0-0.2,0-0.3
	c0-0.1,0-0.2,0-0.3c0-0.1,0-0.3,0-0.4c0-0.1,0-0.2,0-0.3c0-0.2,0-0.2,0-0.4c0-0.1,0-0.3,0-0.4c0-0.2,0-0.3-0.1-0.5
	c0-0.1,0-0.3,0-0.4c0-0.2,0-0.3-0.1-0.5c0-0.2,0-0.2-0.1-0.5l-0.1-0.5c0-0.3,0-0.3-0.1-0.6c0-0.2,0-0.4-0.1-0.6
	c0-0.2-0.1-0.4-0.1-0.6c0-0.2,0-0.4-0.1-0.6c0-0.2,0-0.4-0.1-0.7c0-0.2-0.1-0.4-0.1-0.6c0-0.3,0-0.3-0.1-0.7
	c-0.1-0.4-0.1-0.4-0.1-0.8c0-0.3,0-0.3-0.1-0.7c0-0.2-0.1-0.4-0.1-0.7c0-0.2-0.1-0.5-0.1-0.8c-0.1-0.4-0.1-0.4-0.1-0.7
	c0-0.2-0.1-0.4-0.1-0.7c0-0.3,0-0.3-0.1-0.7c0-0.2-0.1-0.4-0.1-0.7c0-0.2-0.1-0.5-0.1-0.7c0-0.2-0.1-0.5-0.1-0.7
	c0-0.2-0.1-0.5-0.1-0.6c0-0.2-0.1-0.4-0.1-0.7c0-0.4,0-0.4-0.1-0.7c0-0.3,0-0.3-0.1-0.7c0-0.2-0.1-0.4-0.1-0.6c0-0.3,0-0.3-0.1-0.7
	s-0.1-0.4-0.1-0.7c0-0.3,0-0.3-0.1-0.7c-0.1-0.4-0.1-0.4-0.1-0.7c0-0.3-0.1-0.5-0.1-0.8c0-0.3-0.1-0.5-0.1-0.8
	c-0.1-0.4-0.1-0.4-0.1-0.8c0-0.3-0.1-0.5-0.1-0.8c0-0.3-0.1-0.5-0.1-0.8c0-0.3-0.1-0.5-0.1-0.8c0-0.3-0.1-0.5-0.1-0.8
	c0-0.3-0.1-0.6-0.1-0.8c0-0.3-0.1-0.5-0.1-0.8c-0.1-0.3-0.1-0.6-0.1-0.8c0-0.3-0.1-0.5-0.1-0.8c0-0.3-0.1-0.5-0.1-0.8
	c0-0.3-0.1-0.5-0.1-0.8c0-0.3-0.1-0.5-0.1-0.8c0-0.2-0.1-0.5-0.1-0.8c-0.1-0.4-0.1-0.4-0.1-0.8c0-0.3-0.1-0.5-0.1-0.9
	c0-0.3-0.1-0.6-0.1-0.9c0-0.3-0.1-0.5-0.1-0.8c-0.1-0.3-0.1-0.5-0.2-0.8c-0.1-0.4-0.1-0.4-0.2-0.8c-0.1-0.3-0.1-0.5-0.2-0.7
	c-0.1-0.3-0.1-0.3-0.2-0.7c-0.1-0.2-0.1-0.5-0.2-0.7c-0.1-0.2-0.1-0.5-0.2-0.7c-0.1-0.2-0.1-0.4-0.2-0.6c0-0.2-0.1-0.4-0.2-0.6
	c-0.1-0.4-0.1-0.4-0.2-0.6c-0.1-0.2-0.1-0.4-0.2-0.7c-0.1-0.2-0.1-0.4-0.2-0.6c-0.1-0.2-0.1-0.4-0.2-0.6c-0.1-0.2-0.1-0.4-0.2-0.6
	c-0.1-0.2-0.1-0.4-0.2-0.6c-0.1-0.2-0.1-0.4-0.2-0.6c-0.1-0.2-0.1-0.4-0.2-0.6c-0.1-0.2-0.2-0.4-0.2-0.6c-0.1-0.2-0.2-0.4-0.2-0.6
	c-0.1-0.3-0.1-0.3-0.3-0.6c-0.1-0.2-0.2-0.4-0.3-0.6c-0.1-0.2-0.2-0.3-0.3-0.5c-0.1-0.3-0.1-0.3-0.3-0.6c-0.1-0.2-0.2-0.4-0.3-0.5
	c-0.1-0.2-0.2-0.3-0.3-0.5c-0.1-0.2-0.2-0.3-0.3-0.5c-0.1-0.1-0.2-0.3-0.3-0.4c-0.1-0.2-0.3-0.3-0.4-0.5c-0.1-0.1-0.2-0.3-0.3-0.4
	c-0.1-0.1-0.2-0.3-0.4-0.4c-0.2-0.2-0.2-0.2-0.4-0.4c-0.1-0.1-0.3-0.3-0.4-0.4c-0.2-0.2-0.2-0.2-0.4-0.4c-0.1-0.1-0.3-0.3-0.4-0.4
	c-0.1-0.1-0.3-0.3-0.4-0.4c-0.2-0.2-0.2-0.2-0.4-0.4c-0.1-0.1-0.3-0.2-0.4-0.4c-0.1-0.1-0.3-0.2-0.4-0.4c-0.1-0.1-0.3-0.2-0.4-0.4
	c-0.1-0.1-0.3-0.2-0.4-0.3c-0.1-0.1-0.3-0.2-0.4-0.3c-0.1-0.1-0.3-0.2-0.4-0.3c-0.1-0.1-0.2-0.2-0.4-0.3c-0.2-0.1-0.3-0.2-0.4-0.3
	c-0.1-0.1-0.2-0.1-0.4-0.2c-0.1-0.1-0.3-0.2-0.4-0.2c-0.1-0.1-0.2-0.1-0.4-0.2c-0.2-0.1-0.3-0.1-0.4-0.2c-0.2-0.1-0.2-0.1-0.4-0.2
	c-0.1-0.1-0.2-0.1-0.3-0.1c-0.1,0-0.2-0.1-0.4-0.1c-0.1,0-0.2,0-0.3-0.1c-0.1,0-0.2,0-0.4,0h-1.2c-0.1,0-0.2,0-0.4,0
	c-0.2,0-0.2,0-0.4,0c-0.2,0-0.2,0-0.4,0c-0.1,0-0.2,0-0.3,0c-0.2,0-0.2,0-0.4,0c-0.1,0-0.2,0-0.4,0c-0.1,0-0.2,0-0.3,0.1
	c-0.1,0-0.3,0.1-0.4,0.1c-0.1,0-0.2,0-0.3,0.1c-0.1,0-0.2,0.1-0.3,0.1c-0.2,0.1-0.2,0.1-0.4,0.1c-0.1,0-0.3,0.1-0.4,0.1
	c-0.1,0-0.2,0.1-0.3,0.1c-0.2,0.1-0.2,0.1-0.4,0.1c-0.1,0-0.2,0.1-0.3,0.1c-0.1,0.1-0.2,0.1-0.3,0.2c-0.1,0.1-0.2,0.1-0.3,0.2
	c-0.2,0.1-0.2,0.1-0.4,0.2c-0.1,0.1-0.2,0.1-0.4,0.2c-0.1,0.1-0.3,0.2-0.4,0.3c-0.1,0.1-0.2,0.2-0.3,0.3c-0.1,0.1-0.3,0.2-0.4,0.4
	c-0.1,0.1-0.3,0.2-0.4,0.3c-0.2,0.2-0.2,0.2-0.4,0.4c-0.1,0.1-0.3,0.3-0.4,0.4c-0.2,0.2-0.3,0.3-0.4,0.4c-0.1,0.1-0.3,0.3-0.4,0.5
	c-0.2,0.2-0.3,0.4-0.4,0.5c-0.1,0.2-0.3,0.3-0.4,0.5c-0.2,0.3-0.2,0.3-0.4,0.5c-0.1,0.1-0.3,0.3-0.4,0.5c-0.2,0.3-0.2,0.3-0.4,0.5
	c-0.1,0.1-0.2,0.3-0.4,0.5c-0.2,0.2-0.3,0.4-0.5,0.6c-0.1,0.2-0.3,0.4-0.4,0.5c-0.1,0.2-0.3,0.4-0.4,0.5c-0.1,0.2-0.2,0.3-0.4,0.5
	c-0.1,0.2-0.3,0.4-0.4,0.6c-0.1,0.2-0.3,0.4-0.4,0.6c-0.1,0.2-0.3,0.4-0.4,0.6c-0.1,0.2-0.3,0.4-0.4,0.6c-0.1,0.2-0.2,0.4-0.3,0.6
	c-0.1,0.2-0.2,0.4-0.4,0.6c-0.1,0.2-0.2,0.4-0.3,0.6c-0.2,0.3-0.2,0.3-0.3,0.7l-0.2,0.4l-0.2,0.4c-0.1,0.2-0.2,0.5-0.3,0.7
	c-0.1,0.2-0.2,0.4-0.3,0.7c-0.1,0.2-0.2,0.4-0.3,0.7c-0.2,0.4-0.2,0.4-0.3,0.8c-0.2,0.4-0.2,0.4-0.3,0.8c-0.1,0.3-0.2,0.5-0.3,0.8
	s-0.2,0.6-0.3,0.9c-0.1,0.3-0.2,0.6-0.3,0.9c-0.1,0.3-0.2,0.6-0.4,0.9c-0.1,0.4-0.2,0.7-0.3,1c-0.1,0.3-0.2,0.6-0.3,0.9
	c-0.1,0.4-0.2,0.7-0.4,1c-0.1,0.3-0.2,0.6-0.3,0.9c-0.1,0.3-0.2,0.6-0.3,0.9c-0.1,0.3-0.2,0.6-0.3,0.9c-0.1,0.4-0.2,0.7-0.3,1
	c-0.1,0.3-0.2,0.6-0.3,0.9c-0.2,0.5-0.2,0.5-0.3,1c-0.1,0.4-0.2,0.7-0.3,1c-0.1,0.5-0.1,0.5-0.3,1c-0.1,0.4-0.2,0.7-0.3,1.1
	c-0.1,0.4-0.2,0.7-0.3,1c-0.1,0.5-0.1,0.5-0.3,1.1c-0.1,0.4-0.2,0.7-0.3,1.1c-0.1,0.5-0.1,0.5-0.3,1.1c-0.1,0.4-0.2,0.8-0.3,1.1
	c-0.1,0.3-0.2,0.7-0.3,1.1c-0.1,0.4-0.2,0.8-0.3,1.2c-0.1,0.6-0.1,0.6-0.2,1.2c-0.1,0.4-0.1,0.8-0.2,1.2c-0.1,0.4-0.1,0.8-0.2,1.3
	c-0.1,0.4-0.1,0.8-0.2,1.2c-0.1,0.4-0.1,0.8-0.2,1.2c-0.1,0.4-0.1,0.8-0.1,1.1c0,0.3-0.1,0.7-0.1,1.1c0,0.4-0.1,0.7-0.1,1.1
	c0,0.3-0.1,0.6-0.1,0.9c0,0.3-0.1,0.6-0.1,0.9c0,0.4,0,0.4-0.1,0.8c0,0.3,0,0.5-0.1,0.8c0,0.3,0,0.5,0,0.7l0,0.7c0,0.2,0,0.4,0,0.7
	c0,0.2,0,0.4,0,0.6v3.3c0,0.1,0,0.2,0,0.2C85.9,209.2,86.4,209.3,86.5,209.7L86.5,209.7z M85.7,210.2
	C85.7,210.2,85.7,210.2,85.7,210.2L85.7,210.2L85.7,210.2z M85.3,209.7c-0.1,0.1-0.1,0.1-0.1,0.1c0,0,0,0,0,0.1h0c0,0,0,0,0,0
	c0,0,0,0,0,0l0,0c0,0,0,0,0,0C85.3,209.8,85.3,209.7,85.3,209.7z"/>
<path fill="#505050" d="M150.2,175.8c0.7-0.2,1.5,0.2,1.7,0.9l0.1,0.2c0.3,0.8,0,1.7-1.1,1.9c-0.2,0-0.3,0.1-0.4,0.1
	c-0.2,0.1-0.3,0.1-0.4,0.2c-0.1,0-0.1,0-0.3,0.1c-0.2,0.1-0.2,0.1-0.4,0.2c-0.1,0-0.2,0.1-0.3,0.1c-0.1,0.1-0.3,0.1-0.5,0.2
	c-0.1,0.1-0.3,0.1-0.5,0.2c-0.2,0.1-0.4,0.2-0.6,0.3c-0.2,0.1-0.4,0.2-0.6,0.3c-0.3,0.1-0.3,0.1-0.7,0.3c-0.2,0.1-0.5,0.2-0.7,0.3
	c-0.2,0.1-0.5,0.2-0.8,0.3c-0.3,0.1-0.6,0.2-0.9,0.3c-0.3,0.1-0.6,0.2-0.9,0.3c-0.3,0.1-0.7,0.2-1,0.3c-0.4,0.1-0.8,0.2-1.2,0.3
	c-0.4,0.1-0.8,0.2-1.2,0.3c-0.4,0.1-0.8,0.2-1.3,0.2c-0.4,0.1-0.9,0.2-1.3,0.2s-0.9,0.1-1.4,0.2c-0.5,0.1-0.9,0.1-1.5,0.2
	c-0.8,0.1-0.8,0.1-1.5,0.2c-0.5,0.1-1,0.1-1.5,0.2c-0.5,0.1-1.1,0.1-1.6,0.2c-0.6,0.1-1.1,0.2-1.6,0.2c-0.5,0.1-1.1,0.2-1.7,0.2
	c-0.6,0.1-1.2,0.2-1.7,0.3c-0.6,0.1-1.2,0.2-1.8,0.3c-0.6,0.1-1.2,0.2-1.7,0.2c-0.5,0.1-1.1,0.1-1.8,0.2c-0.7,0.1-1.4,0.1-1.9,0.2
	c-0.6,0.1-1.2,0.1-1.8,0.1c-0.6,0-1.2,0-1.8,0c-0.6,0-1.2,0-1.9,0c-0.6,0-1.2,0-1.7,0c-0.6,0-1.2,0-1.8-0.1c-0.6,0-1.2-0.1-1.7-0.1
	c-0.5,0-1.1-0.1-1.6-0.2c-0.6-0.1-1.1-0.1-1.7-0.2c-0.6-0.1-1.1-0.2-1.6-0.3c-0.5-0.1-1-0.2-1.4-0.3c-0.4-0.1-0.9-0.2-1.4-0.3
	c-0.6-0.1-1.1-0.3-1.5-0.4c-0.5-0.1-0.9-0.3-1.3-0.4c-0.4-0.1-0.9-0.3-1.3-0.5c-0.5-0.2-0.9-0.4-1.3-0.6c-0.4-0.2-0.8-0.4-1.1-0.5
	c-0.4-0.2-0.7-0.4-1.2-0.6c-0.4-0.3-0.8-0.5-1.1-0.7c-0.3-0.2-0.7-0.5-1-0.7s-0.6-0.5-0.9-0.8c-0.3-0.3-0.6-0.6-0.9-0.9
	c-0.3-0.3-0.5-0.6-0.7-0.8c-0.2-0.2-0.4-0.5-0.6-0.8c-0.2-0.3-0.4-0.6-0.6-0.9c-0.2-0.3-0.3-0.6-0.4-0.8c-0.1-0.3-0.2-0.6-0.4-0.9
	c-0.1-0.4-0.2-0.7-0.3-1c0-0.3-0.1-0.6-0.1-0.9v-0.8c0-0.3,0-0.6,0-0.8c0-0.2,0-0.5,0.1-0.8c0-0.3,0.1-0.6,0.1-0.8
	c0.1-0.3,0.1-0.5,0.2-0.8c0.1-0.3,0.2-0.6,0.3-0.9c0.1-0.3,0.2-0.6,0.4-0.9c0.1-0.3,0.3-0.6,0.4-0.8c0.1-0.3,0.3-0.5,0.4-0.8
	c0.2-0.3,0.3-0.6,0.5-0.9c0.2-0.3,0.4-0.6,0.6-0.8c0.2-0.3,0.4-0.5,0.6-0.8c0.2-0.3,0.4-0.6,0.7-0.9c0.3-0.3,0.5-0.6,0.7-0.9
	c0.2-0.3,0.5-0.6,0.8-0.9c0.3-0.3,0.5-0.6,0.8-0.9c0.3-0.3,0.6-0.6,0.8-0.8c0.3-0.3,0.5-0.5,0.8-0.7c0.2-0.2,0.5-0.4,0.7-0.6
	c0.3-0.3,0.6-0.5,0.8-0.7c0.4-0.3,0.4-0.3,0.7-0.5c0.3-0.2,0.5-0.4,0.8-0.6c0.3-0.2,0.6-0.4,0.8-0.5c0.3-0.2,0.5-0.3,0.8-0.4
	c0.2-0.1,0.5-0.3,0.8-0.4c0.3-0.2,0.6-0.3,0.8-0.4c0.2-0.1,0.5-0.2,0.7-0.4c0.3-0.1,0.5-0.3,0.7-0.4c0.2-0.1,0.4-0.2,0.6-0.3
	c0.3-0.2,0.5-0.3,0.7-0.4c0.2-0.1,0.3-0.2,0.6-0.3c0.2-0.1,0.5-0.3,0.7-0.4c0.3-0.2,0.3-0.2,0.6-0.3c0.3-0.1,0.3-0.1,0.6-0.3
	c0.2-0.1,0.4-0.2,0.5-0.3c0.2-0.1,0.4-0.2,0.5-0.3c0.2-0.1,0.3-0.2,0.5-0.2c0.2-0.1,0.3-0.2,0.5-0.2c0.1-0.1,0.3-0.1,0.4-0.2
	c0.2-0.1,0.4-0.1,0.7-0.2c0.1,0,0.3,0,0.5,0c0.2,0,0.4,0,0.6,0c0.2,0,0.5,0.1,0.7,0.2c0.7,0.2,1.1,1,0.9,1.7c-0.2,0.7-1,1.1-1.7,0.9
	c-0.1,0-0.2,0-0.2-0.1c-0.1,0-0.2,0-0.2,0c-0.2,0-0.3,0.1-0.4,0.1c-0.1,0-0.2,0.1-0.4,0.2c-0.2,0.1-0.3,0.1-0.4,0.2
	c-0.1,0.1-0.3,0.2-0.4,0.2c-0.2,0.1-0.4,0.2-0.6,0.3c-0.3,0.2-0.3,0.2-0.5,0.3c-0.3,0.2-0.3,0.2-0.6,0.3c-0.2,0.1-0.4,0.2-0.6,0.3
	c-0.3,0.1-0.5,0.3-0.7,0.4c-0.2,0.1-0.4,0.2-0.6,0.3c-0.3,0.2-0.5,0.3-0.8,0.4c-0.2,0.1-0.5,0.2-0.7,0.3c-0.2,0.1-0.5,0.3-0.7,0.4
	c-0.2,0.1-0.5,0.3-0.7,0.4c-0.3,0.2-0.5,0.3-0.8,0.4c-0.2,0.1-0.4,0.3-0.7,0.4c-0.2,0.1-0.5,0.3-0.7,0.5c-0.2,0.2-0.5,0.3-0.7,0.5
	c-0.4,0.3-0.4,0.3-0.7,0.5c-0.2,0.2-0.5,0.3-0.7,0.6c-0.3,0.2-0.5,0.4-0.7,0.6c-0.2,0.2-0.4,0.4-0.6,0.6c-0.3,0.3-0.5,0.5-0.8,0.8
	c-0.3,0.3-0.5,0.5-0.8,0.8c-0.2,0.3-0.5,0.5-0.7,0.8c-0.2,0.3-0.5,0.6-0.7,0.9c-0.2,0.3-0.5,0.6-0.6,0.8c-0.2,0.3-0.4,0.5-0.6,0.8
	c-0.2,0.3-0.4,0.5-0.5,0.8c-0.2,0.3-0.3,0.5-0.5,0.7c-0.1,0.2-0.3,0.5-0.4,0.7c-0.1,0.2-0.2,0.5-0.3,0.7c-0.1,0.2-0.2,0.5-0.3,0.7
	c-0.1,0.2-0.1,0.4-0.2,0.7c-0.1,0.2-0.1,0.5-0.2,0.7c0,0.2-0.1,0.4-0.1,0.7c0,0.2-0.1,0.4-0.1,0.6c0,0.2,0,0.4,0,0.6v0.8
	c0,0.2,0,0.3,0,0.5c0,0.1,0.1,0.3,0.1,0.5c0.1,0.3,0.2,0.5,0.3,0.7c0.1,0.2,0.2,0.4,0.3,0.6c0.1,0.2,0.3,0.4,0.4,0.7
	c0.2,0.3,0.4,0.5,0.5,0.7c0.1,0.2,0.3,0.4,0.5,0.6c0.2,0.2,0.5,0.5,0.7,0.7c0.3,0.2,0.5,0.5,0.8,0.7c0.3,0.2,0.5,0.4,0.8,0.6
	c0.3,0.2,0.6,0.4,1,0.6c0.4,0.2,0.7,0.4,1,0.6c0.3,0.2,0.7,0.3,1,0.5c0.4,0.2,0.7,0.3,1.1,0.5c0.4,0.2,0.8,0.3,1.2,0.4
	c0.4,0.1,0.8,0.3,1.2,0.4c0.4,0.1,0.9,0.2,1.4,0.4c0.5,0.1,1,0.2,1.4,0.3c0.4,0.1,0.8,0.2,1.3,0.3c0.5,0.1,1,0.2,1.5,0.3
	c0.5,0.1,1,0.1,1.6,0.2c0.5,0.1,1,0.1,1.5,0.2c0.5,0,1,0.1,1.6,0.1c0.6,0,1.1,0.1,1.7,0.1c0.5,0,1.1,0,1.7,0c0.6,0,1.2,0,1.8,0
	c0.6,0,1.2,0,1.8,0c0.5,0,1.1,0,1.6-0.1c0.6,0,1.2-0.1,1.9-0.2c0.7-0.1,1.3-0.1,1.8-0.2s1-0.1,1.6-0.2c0.6-0.1,1.2-0.2,1.8-0.3
	c0.6-0.1,1.2-0.2,1.7-0.3c0.6-0.1,1.2-0.2,1.7-0.2c0.5-0.1,1.1-0.2,1.7-0.2c0.6-0.1,1.1-0.2,1.6-0.2c0.5-0.1,1-0.1,1.5-0.2
	c0.7-0.1,0.7-0.1,1.5-0.2c0.5-0.1,1-0.1,1.4-0.2c0.5-0.1,0.9-0.1,1.3-0.2c0.4-0.1,0.9-0.1,1.3-0.2c0.4-0.1,0.8-0.2,1.2-0.2
	c0.4-0.1,0.8-0.2,1.1-0.2c0.4-0.1,0.7-0.2,1.1-0.3c0.3-0.1,0.7-0.2,1-0.3c0.3-0.1,0.6-0.2,0.9-0.3c0.2-0.1,0.5-0.2,0.8-0.3
	c0.3-0.1,0.5-0.2,0.8-0.3c0.2-0.1,0.5-0.2,0.6-0.3c0.3-0.1,0.3-0.1,0.7-0.3c0.2-0.1,0.5-0.2,0.6-0.3c0.2-0.1,0.3-0.1,0.5-0.2
	c0.2-0.1,0.4-0.2,0.5-0.3c0.2-0.1,0.3-0.1,0.4-0.2c0.1-0.1,0.3-0.1,0.5-0.2c0.2-0.1,0.2-0.1,0.3-0.1c0.2-0.1,0.2-0.1,0.3-0.1
	c0,0,0.1,0,0.2-0.1C149.5,176.2,149.8,175.9,150.2,175.8L150.2,175.8z M150.2,176.2c0.1,0,0.1,0,0.2,0
	C150.3,176.2,150.3,176.2,150.2,176.2L150.2,176.2z"/>
</svg>
