<?xml version="1.0" encoding="utf-8"?>
<!-- Generator: Adobe Illustrator 23.0.3, SVG Export Plug-In . SVG Version: 6.00 Build 0)  -->
<svg version="1.1" id="Layer_1" xmlns="http://www.w3.org/2000/svg" xmlns:xlink="http://www.w3.org/1999/xlink" x="0px" y="0px"
	 viewBox="0 0 600 350" enable-background="new 0 0 600 350" xml:space="preserve">
<text transform="matrix(1 0 0 1 73.2688 100.8977)" font-family="'ArialMT'" font-size="33px">Tech Comm Trends</text>
<text transform="matrix(1 0 0 1 73.2688 131.3062)" font-family="'ArialMT'" font-size="19px">Providing Value as a Generalist in a Sea of Specialists</text>
<text transform="matrix(1 0 0 1 73.2688 187.0549)" font-family="'ArialMT'" font-size="15px">by Tom Johnson</text>
<g>
	<g>
		<path fill="#FBFBFB" d="M538.3,306.7c-21.5,0-43,0-64.5,0c-1.1,0-1.4-0.2-1.4-1.3c0-29.8,0-59.6,0-89.5c0-1.1,0.3-1.2,1.3-1.2
			c21.1,0,42.2,0,63.3,0c0.7,0,1.3-0.2,1.3,1C538.3,246.1,538.3,276.4,538.3,306.7z"/>
		<path fill="#F2F1F1" d="M476.1,218.7c1.4-1.3,3.2-1.6,5-1.6c12.7-0.5,25.5-0.5,38.2-0.2c3.7,0.1,7.5-0.1,11.2,0.5
			c3.1,0.6,4.3,2.1,4.5,5.2c0.3,4.5,0,9,0.4,13.5c0.5,6.3,0.3,12.5,0.2,18.8c-0.1,4.2,0,8.4-0.3,12.5c-0.1,1.9,0,3.8-0.4,5.7
			c-0.8,3.1-2.3,4.4-5.5,4.5c-13.9,0.6-27.9,0.4-41.8,0.2c-2.9,0-5.8,0.1-8.8-0.5c-2.4-0.4-3.6-1.9-3.9-4.2
			c-0.2-1.5-0.3-3.1-0.4-4.7c-0.4-10.2-0.5-20.4-0.3-30.5c0.1-4.3,0.1-8.7,0.3-13c0.1-1.5,0-3.2,0.7-4.6c0.1-0.3,0.2-1,0.8-0.6
			c0.6,0.4,0.6,1,0.4,1.6c-0.4,1.5-0.2,3.1-0.2,4.6c-0.1,1.5,0.1,3.1-0.1,4.6c-0.5,2.7-0.1,5.5-0.2,8.3c0,4.6,0,9.3,0,13.9
			c0.1,2.8-0.2,5.5,0.2,8.3c0.2,1.6,0.1,3.2,0.1,4.8c0.1,1.3-0.2,2.7,0.2,4c0.2,1,0.1,1.9,0.2,2.9c0.7,2.3,1.8,3,4.5,3.2
			c8.3,0.4,16.5,0.3,24.8,0.3c3.5,0,7-0.1,10.5,0c4.2,0.1,8.4-0.4,12.6-0.4c2.9,0,4.2-1.4,4.3-4c0.5-10.6,1-21.2,0.6-31.8
			c-0.2-5.6,0.1-11.3-0.6-16.9c-0.2-1.7-0.6-3.2-2.5-3.8c-0.2,0-0.4-0.1-0.6-0.1c-0.3,0-0.6-0.1-0.8-0.2c-1.2-0.3-2.4-0.1-3.6-0.2
			c-1.4,0-2.8,0.1-4.1-0.1c-2-0.4-4-0.1-6-0.2c-8.3,0-16.6,0-24.9,0c-1.9,0.1-3.8-0.2-5.7,0.2c-1.4,0.2-2.8,0.1-4.1,0.1
			c-1.2,0-2.4-0.1-3.7,0.1C476.8,219,476.4,218.9,476.1,218.7z"/>
		<path fill="#3C4390" d="M527,301.9c0-2.4,0-2.4,2.2-2.4c1.6,0.1,1.7,1.3,1.6,2.5c-0.1,0.7,0.5,1.9-0.4,1.9c-1,0-0.3-1.2-0.5-1.9
			c-0.1-0.7,0.2-1.6-0.9-1.6c-1-0.1-1,0.7-1.1,1.5c-0.1,0.7,0.5,2-0.5,2C526.5,303.9,527.2,302.5,527,301.9z"/>
		<path fill="#353E8E" d="M478.7,303.3c0.3-0.1,0.8-0.4,0.9,0.2c0,0.4-0.4,0.5-0.7,0.5c-1.3,0.2-2.5,0-3.2-1.1
			c-0.8-1.2-0.8-2.6,0.1-3.8c0.8-1.1,1.9-1.4,3.2-1.2c0.3,0,0.7,0.1,0.7,0.5c-0.1,0.5-0.5,0.2-0.8,0.2c-1.8-0.1-2.8,0.7-2.8,2.4
			C476,302.6,477,303.4,478.7,303.3z"/>
		<path fill="#353E8E" d="M516.5,286.5c-1.3,0-2.1-0.9-2.1-2.2c0-1.3,1-2.4,2.2-2.3c1.4,0.1,2,0.9,2,2.2
			C518.7,285.6,517.9,286.5,516.5,286.5z"/>
		<path fill="#39418F" d="M502.6,301.8c0,0.1,0,0.2,0,0.3c0,1.8,0,1.8-0.5,1.8c-2.9,0.1-3.1-0.1-3.1-1.9c0-0.6,0-1.2,0-1.8
			c0-0.3,0.1-0.6,0.4-0.5c0.3,0,0.4,0.3,0.5,0.6c0,0.7,0,1.3,0,2c0,0.5,0.2,1,0.8,1.1c0.6,0,1-0.4,1.1-1c0.1-0.6,0-1.2,0.1-1.8
			c0-0.4,0-0.9,0.5-0.8c0.5,0,0.3,0.5,0.3,0.8C502.7,300.9,502.6,301.4,502.6,301.8z"/>
		<path fill="#39418F" d="M517,304c-0.6,0-1.2-0.2-1.8,0c-0.7,0.2-1.3,0-1.6-0.8c-0.2-0.8,0-1.4,0.8-1.8c0.3-0.1,0.6-0.2,0.9-0.3
			c0.3-0.1,0.7,0.1,0.6-0.5c-0.1-0.3-0.4-0.4-0.8-0.5c-0.4-0.1-0.8,0.4-1.4-0.1c0.6-0.7,1.3-0.7,2-0.6c0.7,0.2,1.1,0.7,1.1,1.4
			C517,302,517,303,517,304z"/>
		<path fill="#3A4190" d="M516,292.2c-0.4-1.3-1.4-0.4-2.1-0.7c1-1.1,2.3-1,2.8,0.1c0.5,1,0.5,2.2,0.2,3.2c-0.2,0.6-1.4,0.3-2.2,0.4
			c-0.6,0.1-1-0.4-1.2-0.9c-0.2-0.7,0.2-1.3,0.8-1.6C514.9,292.5,515.4,292.4,516,292.2z"/>
		<path fill="#333C8D" d="M488.1,280.8c-0.2,0.2-0.2,0.3-0.3,0.4c-0.7,0.2-1.8-0.5-2,0.7c-0.2,1,0.9,1,1.6,1.4
			c1,0.6,1.4,1.8,0.7,2.6c-0.5,0.7-2.4,1-3,0.5c-0.1-0.1-0.2-0.3-0.2-0.4c0-0.3,0.2-0.3,0.4-0.3c0.4,0.1,0.8,0.2,1.3,0.2
			c0.5,0,0.8-0.3,0.9-0.8c0.1-0.4-0.2-0.7-0.5-0.9c-0.1-0.1-0.3-0.2-0.4-0.2c-1.2-0.4-2.1-1.1-1.5-2.5
			C485.4,280.3,486.6,280.2,488.1,280.8z"/>
		<path fill="#454A95" d="M489.1,289.1c0.3,0,0.6,0,0.8,0c0.4,0.1,1.2-0.3,1.2,0.4c0,0.6-0.7,0.4-1,0.4c-0.8,0-0.7,0.6-0.7,1
			c0,1.1,0,2.3,0,3.4c0,0.4,0,0.8-0.5,0.8c-0.5,0-0.3-0.5-0.3-0.8c0-1.1-0.1-2.2,0-3.3c0-0.8-0.1-1.4-1.1-1.2c-0.3,0-0.6,0-0.6-0.3
			c0-0.5,0.3-0.5,0.7-0.5C488,289.1,488.6,289.1,489.1,289.1z"/>
		<path fill="#333D8D" d="M502.7,286.2c-1.2,0.4-2.3,0.6-3.2-0.4c-0.7-0.9-0.6-1.9-0.1-2.9c0.7-1.2,2.5-1.2,3.1-0.1
			c0.3,0.4,0.5,0.9,0.3,1.4c-0.2,0.5-0.8,0.1-1.2,0.3c-0.6,0.2-1.6-0.4-1.6,0.4c-0.1,0.9,0.9,1,1.7,0.9
			C502.1,285.7,502.4,285.6,502.7,286.2z"/>
		<path fill="#353E8E" d="M491.4,293.2c0.8,1.3,0.8,1.3,2.6,1.4c-0.5,0.6-1.2,0.8-2,0.6c-0.9-0.3-1.4-1-1.4-2c0-0.8-0.2-1.8,0.9-2.2
			c0.8-0.3,1.7-0.5,2.4,0.3c0.4,0.4,0.6,0.9,0.5,1.5c-0.1,0.7-0.8,0.4-1.2,0.4C492.7,293.3,492.2,293.2,491.4,293.2z"/>
		<path fill="#323C8D" d="M493.1,284.2c0,1.4-0.8,2.3-2.2,2.3c-1.4,0-2.1-0.8-2.1-2.1c0-1.4,0.8-2.3,2.1-2.3
			C492.2,282,493.1,282.9,493.1,284.2z"/>
		<path fill="#323C8D" d="M524.2,299.5c1.2,0,2.1,0.9,2.2,2.2c0,1.3-0.9,2.4-2.1,2.4c-1.2,0-2.1-0.9-2.1-2.2
			C522,300.5,522.9,299.6,524.2,299.5z"/>
		<path fill="#353E8E" d="M508.1,285.2c0.4-1.1,0.7-1.9,1-2.7c0.1-0.3,0.4-0.4,0.7-0.3c0.3,0.1,0.3,0.3,0.2,0.5
			c-0.8,1.7-1.1,3.6-2.3,5.1c-0.3,0.3-0.7,0.8-1.1,0.4c-0.6-0.5,0.1-0.7,0.4-1c0.6-0.5,0.7-1.1,0.4-1.9c-0.4-0.7-0.6-1.5-0.9-2.3
			c-0.1-0.3-0.5-0.7,0-1c0.5-0.2,0.7,0.3,0.9,0.7C507.5,283.5,507.8,284.2,508.1,285.2z"/>
		<path fill="#333C8D" d="M484.1,301.8c0,1.4-0.9,2.3-2.2,2.3c-1.2,0-2-0.9-2-2.2c0-1.4,0.9-2.3,2.2-2.3
			C483.3,299.6,484.1,300.4,484.1,301.8z"/>
		<path fill="#3E4592" d="M506.3,292c-1.5-0.5-1.7-0.3-1.9,1.2c-0.1,0.7,0.4,1.9-0.5,1.9c-0.8,0-0.2-1.3-0.4-1.9c0-0.1,0-0.3,0-0.5
			c-0.4-1.5,0.5-1.7,1.7-1.8c1.4,0,2,0.6,2,1.9c0,0.7,0,1.3,0,2c0,0.5-0.4,0.5-0.7,0.3C506.1,294.1,506.6,293,506.3,292z"/>
		<path fill="#3F4592" d="M495.4,300.4c0,0.9,0,1.8,0,2.7c0,0.5-0.2,0.7-0.7,0.5c-0.4-0.9,0.1-1.9-0.3-2.9c-1.4-1-1.6-0.1-1.7,1
			c-0.1,0.7,0.5,2.1-0.4,2.1c-0.9,0-0.4-1.3-0.4-2.1c0-0.7-0.5-1.9,0.3-2C493.2,299.7,494.5,299.4,495.4,300.4L495.4,300.4z"/>
		<path fill="#3A4290" d="M514.1,280c0.3,0,0.6,0.1,0.6,0.4c0,0.4-0.3,0.3-0.5,0.4c-0.9,0.3-1.2,0.8-0.1,1.3
			c0.3,0.1,0.5,0.5,0.3,0.5c-1.8,0.5-0.6,2-1,2.9c-0.1,0.3,0.1,0.8-0.5,0.8c-0.5,0-0.4-0.4-0.4-0.7c-0.2-1,0.4-2.1-0.5-3.2
			C511.5,282.1,513.4,280,514.1,280z"/>
		<path fill="#303A8C" d="M488.2,300.4c0,0.9,0.1,1.7,0.1,2.6c0,0.3,0.1,0.7-0.4,0.7c-0.4-0.1-0.3-0.5-0.3-0.8
			c-0.1-0.6,0-1.2-0.2-1.8c-0.1-0.4-0.2-0.9-0.8-0.8c-0.5,0.1-0.9,0.4-0.9,1c0,0.7,0,1.4,0,2.1c0,0.3,0,0.6-0.4,0.6
			c-0.3,0-0.4-0.3-0.4-0.6c0-1.1-0.4-2.4,0.1-3.2c0.5-0.9,1.8-0.5,2.7-0.2C487.8,300.1,488,300.3,488.2,300.4
			C488.2,300.5,488.2,300.4,488.2,300.4z"/>
		<path fill="#3D4391" d="M520,303.8c-0.6,0.4-1,0.4-1.5,0.1c-0.4-0.3-0.6-0.8-0.5-1.1c0.4-1.2-1-2.3-0.1-3.5c0.5-0.6,0.8-0.8,1,0.1
			c0.1,0.6,0.9,0.1,1,0.7C518.5,300.9,518.5,302.7,520,303.8z"/>
		<path fill="#363F8E" d="M498.3,291.3c-1.1,0.3-2.5,0-2.5,1.7c0,1.6,1.3,1.6,2.5,1.7c-0.9,0.7-1.9,0.8-2.7,0.1
			c-1-0.9-1-2.1-0.3-3.1C496.1,290.6,497.2,290.6,498.3,291.3z"/>
		<path fill="#373F8F" d="M512.1,290.8c0.3,0,0.9-0.1,0.9,0.4c0.1,0.7-0.5,0.3-0.8,0.3c-1.1,0-1.6,0.6-1.6,1.6
			c0,0.9,0.6,1.5,1.6,1.4c0.3,0,0.7-0.4,0.8,0.2c0.1,0.6-0.5,0.5-0.8,0.5c-1.5,0.2-2.4-0.7-2.5-2.1
			C509.7,291.7,510.7,290.8,512.1,290.8z"/>
		<path fill="#38408F" d="M497.2,282.5c-1.2,0.4-2.8,0-2.7,1.8c0.1,1.7,1.5,1.3,2.8,1.7c-1.3,0.6-2.3,0.8-3.1-0.2
			c-0.9-1-0.8-2.2,0-3.1C494.9,281.9,495.9,281.7,497.2,282.5z"/>
		<path fill="#373F8F" d="M512.2,299.5c0.3,0.1,1-0.1,0.9,0.6c-0.1,0.7-0.6,0.1-0.9,0.1c-1,0.2-1.5,0.7-1.4,1.6c0,1,0.6,1.5,1.6,1.5
			c0.3,0,0.7-0.4,0.8,0.2c0.1,0.6-0.4,0.5-0.8,0.6c-1.4,0.2-2.4-0.6-2.5-2C509.7,300.6,510.7,299.5,512.2,299.5z"/>
		<path fill="#474B95" d="M518.7,292.2c0,0.8,0,1.5,0,2.3c0,0.3,0,0.7-0.4,0.7c-0.4,0-0.5-0.3-0.5-0.7c0-1.7,0-3.4,0-5.1
			c0-0.4,0.1-0.7,0.5-0.6c0.5,0,0.4,0.4,0.4,0.7C518.7,290.5,518.7,291.4,518.7,292.2z"/>
		<path fill="#404692" d="M519.4,283.9c-0.4-1.1,0-1.9,1.6-1.8c0.2,0,0.4-0.1,0.5,0.1c0.1,0.2,0.2,0.5-0.1,0.6
			c-1.5,0.4-1,1.7-1.1,2.7c0,0.3,0.2,0.9-0.3,0.9c-0.7,0.1-0.5-0.6-0.5-0.9C519.4,285,519.4,284.6,519.4,283.9z"/>
		<path fill="#404692" d="M499.9,291.3c1.6-0.9,2.7-0.4,2.7,1.4c0,0.9,0.3,2.5-0.3,2.4c-1.2-0.1-0.4-1.4-0.6-2.2
			c-0.2-0.9-0.5-1.4-1.5-1.2C500.2,291.5,500,291.5,499.9,291.3z"/>
		<path fill="#444994" d="M495.4,300.5c0-1,0.7-1,1.3-0.9c0.7,0,1.2,0.6,1.2,1.3c0.1,0.9,0,1.7,0,2.6c0,0.3,0,0.6-0.4,0.6
			c-0.3,0-0.5-0.2-0.5-0.5c0-0.5-0.1-1,0-1.5C497.3,300.7,496.8,300.1,495.4,300.5C495.4,300.4,495.4,300.5,495.4,300.5z"/>
		<path fill="#2E388B" d="M505.7,282.5c-1.5,0.8-1.5,2.6-0.1,3.7c-1.3,0.4-1.6,0.3-1.7-0.9c-0.1-0.9,0.4-1.9-0.5-2.7
			c0,0,0.4-0.9,0.7-1.2c0.6-0.5,0.5,0.2,0.6,0.5C504.9,282.3,505.6,281.9,505.7,282.5z"/>
		<path fill="#3B4290" d="M506.2,300.5c-1.5-0.5-1.6,0.4-1.7,1.5c0,0.7,0.5,1.9-0.5,1.9c-0.9,0-0.2-1.3-0.4-1.9c-0.1-0.3,0-0.7,0-1
			c-0.2-1.2,0.3-1.4,1.3-1.2C505.3,300.1,506.2,299.4,506.2,300.5z"/>
		<path fill="#2F3A8C" d="M499.9,291.3c0.1,0.1,0.3,0.2,0.4,0.3c-0.9,0.8-0.5,1.9-0.6,2.9c0,0.3,0,0.6-0.3,0.7
			c-0.5,0.1-0.5-0.3-0.5-0.7c0-1.6,0-3.3,0-4.9c0-0.3-0.1-0.7,0.4-0.7c0.4,0,0.3,0.5,0.4,0.8C499.8,290.2,499.5,290.8,499.9,291.3z"
			/>
		<path fill="#3A4190" d="M508.1,293.2c0.4-0.8-0.4-2.1,0.6-2.1c1,0,0.4,1.3,0.4,2.1c0,0.7,0.5,2-0.5,2
			C507.6,295.1,508.6,293.7,508.1,293.2z"/>
		<path fill="#484C96" d="M498.5,284.4c-0.4,0.6,0.4,1.9-0.5,1.9c-0.9,0-0.4-1.3-0.4-1.9c0-0.7-0.4-2.2,0.4-2.1
			C498.9,282.3,498.1,283.7,498.5,284.4z"/>
		<path fill="#2C378A" d="M509.2,302c-0.3,0.6,0.5,1.9-0.5,1.9c-0.8,0-0.4-1.3-0.4-2c0-0.7-0.5-2.1,0.4-2.1
			C509.5,299.9,508.9,301.2,509.2,302z"/>
		<path fill="#3A4290" d="M506.2,300.5c-0.2-0.6-1-0.2-1.3-0.7c1.6-0.5,2.3-0.1,2.3,1.4c0,0.9,0.2,1.8-0.3,3
			C506.1,303,506.8,301.6,506.2,300.5z"/>
		<path fill="#302D30" d="M475.8,225.9c-0.2-2.1,0.1-4.2,0.2-6.2c0-0.3,0.1-0.6,0.1-1c0.3,0,0.5,0,0.8-0.1c0.4-0.1,0.9-0.1,1.3-0.1
			c0.2,0,0.3,0.1,0.3,0.3c-0.3,0.6-1.1,0.5-1.4,1.1c-0.4,0.7-0.1,1.5-0.2,2.3c0,0.3-0.1,0.6-0.1,1c-0.3,0.7-0.2,1.4-0.3,2.2
			c0,0.2-0.1,0.3-0.2,0.5C476.1,225.9,476,226,475.8,225.9z"/>
		<path fill="#343D8D" d="M488.2,300.5c-0.1-1.1,0.8-0.6,1.2-0.7c0.8-0.1,1.2,0.4,1.4,1.1c0.1,0.2,0.1,0.4,0,0.6
			c-0.2,0.7,0.4,2-0.4,2.1c-0.8,0-0.3-1.2-0.3-1.9C490.1,300.2,489.2,300.3,488.2,300.5C488.2,300.4,488.2,300.5,488.2,300.5z"/>
		<path fill="#333D8D" d="M521,304c-0.7-1.3-0.3-2.6-0.4-3.9c0-0.2,0.1-0.4,0.4-0.4c0.3,0,0.3,0.3,0.3,0.5
			C521.3,301.4,521.5,302.7,521,304z"/>
		<path fill="#6665A4" d="M521.5,298.5c-0.1,0.3-0.2,0.5-0.5,0.5c-0.4,0-0.6-0.2-0.6-0.6c0-0.3,0.2-0.5,0.5-0.5
			C521.3,297.9,521.5,298.2,521.5,298.5z"/>
		<path fill="#424793" d="M506.3,292c0.5,1,0.1,2.1,0.3,3.2C506.1,294.1,506.5,293,506.3,292z"/>
		<path fill="#494D96" d="M508.7,289.2c0.3,0.1,0.5,0.2,0.5,0.6c0,0.3-0.3,0.5-0.6,0.5c-0.3,0-0.5-0.3-0.4-0.6
			C508.2,289.3,508.4,289.2,508.7,289.2z"/>
		<path fill="#434894" d="M494.5,300.8c0.6,0.9,0.2,1.9,0.3,2.9C494.3,302.8,494.7,301.8,494.5,300.8z"/>
		<path fill="#464B95" d="M497.9,280.5c0.3,0,0.5,0.1,0.5,0.4c0,0.3-0.1,0.5-0.4,0.5c-0.3,0-0.5-0.2-0.5-0.4
			C497.4,280.7,497.6,280.5,497.9,280.5z"/>
		<path fill="#3E4491" d="M509.2,298.5c0,0.3-0.2,0.5-0.5,0.5c-0.3,0-0.5-0.2-0.5-0.5c0-0.3,0.3-0.5,0.5-0.5
			C508.9,298,509.2,298.2,509.2,298.5z"/>
		<path fill="#DCDADA" d="M530.4,218.7c2.2,0.3,3.1,1.8,3.3,3.8c0.2,1.9,0.3,3.8,0.3,5.7c0,7.6,0.5,15.2,0.4,22.9
			c-0.1,5.6-0.5,11.2-0.4,16.8c0,1.5-0.2,3-0.3,4.5c-0.2,2.4-1.8,3.7-4.5,3.8c-14.1,0.6-28.2,0.3-42.3,0.2c-2.4,0-4.9,0-7.3-0.4
			c-2-0.4-3.1-1.4-3.4-3.4c0.2-0.1,0.3-0.1,0.5-0.1c0.3,0.1,0.5,0.3,0.6,0.5c0.9,1.5,2.1,2,3.8,2.1c13,0.6,26.1,0.2,39.1,0.3
			c2.9,0,5.9-0.1,8.8-0.3c2.5-0.2,3.5-1.2,3.6-3.7c0-0.5-0.2-1-0.3-1.6c-0.1-0.7-0.1-1.4,0.2-2.1c0.3-1.9,0.1-3.8,0.1-5.7
			c0-1.5,0.1-2.9,0.2-4.4c0-0.2,0-0.4,0.1-0.5c0.1-0.3,0.2-0.5,0.3-0.8c0.2-6.1,0.1-12.3,0-18.4c-0.1-0.2-0.1-0.4-0.1-0.6
			c-0.2-3.6,0-7.2-0.3-10.8c-0.1-0.3-0.1-0.6-0.1-1c0-1.7,0.4-3.4-0.8-4.8c-0.5-0.5-1.2-0.7-1.6-1.3
			C530.1,219.3,530.2,219,530.4,218.7z"/>
		<path fill="#11102B" d="M475.8,225.9c0.1,0,0.2,0,0.3,0c0.5,0.5,0.4,1.1,0.5,1.7c0,1.4,0.1,2.7,0,4.1c-0.1,0.8,0,1.5,0,2.3
			c0,0.3,0,0.6,0,0.8c0,0.6,0,1.3,0,1.9c0,0.5,0,1.1,0,1.6c0,0.5,0,1.1,0,1.6c0,0.5,0,0.9,0,1.4c0,0.4,0,0.7,0,1.1
			c0,0.9,0,1.9,0,2.8c0,0.7,0,1.5,0,2.2c0,0.4,0,0.7,0,1.1c0,0.4,0,0.9,0,1.3c0,0.5,0,1,0,1.6c0,0.3,0,0.7,0,1c0,0.4,0,0.9-0.1,1.3
			c-0.1,0.2-0.2,0.3-0.3,0.4c-0.2,0-0.4,0-0.4-0.3c0-0.5,0-1,0-1.5c0-4.6,0-9.2,0-13.8c0.1-2.8-0.1-5.5,0.1-8.3
			C475.8,228.8,475.8,227.3,475.8,225.9z"/>
		<path fill="#121222" d="M475.8,254c0.1,0,0.2,0,0.2,0c0.5,0.3,0.5,0.8,0.5,1.2c0,0.6,0,1.2,0,1.9c0,0.2,0,0.4,0,0.5
			c0,0.4,0,0.9,0,1.3c0,0.6,0,1.2,0,1.8c0,0.2,0,0.4,0,0.5c-0.1,1,0.3,1.9,0.3,2.9c0,0.5,0,1.1,0,1.6c0.1,0.9,0,1.8,0,2.7
			c0,0.4,0,0.9,0,1.3c0,0.6,0.1,1.1,0.4,1.7c0.8,0.6,1.8,0.2,2.7,0.4c0.5,0.1,1.4-0.2,1.3,0.9c-0.6,0.4-1.3,0.3-2,0.3
			c-1,0-2,0-3-0.4l-0.1,0c0,0-0.1,0-0.1,0c0-0.9,0-1.9,0-2.8c-0.3-1.3,0.1-2.7-0.2-4.1c0-1.6-0.3-3.2-0.1-4.8
			C475.6,258.7,475.5,256.3,475.8,254z"/>
		<path fill="#0C0A0A" d="M490.5,218.1c8.4-0.2,16.8-0.2,25.2,0c0.1,0.2,0,0.4-0.2,0.5c-1,0.4-2,0.1-3,0.3c-6.2,0-12.4,0-18.5,0
			c-1.1-0.2-2.2,0.1-3.3-0.3C490.5,218.4,490.4,218.3,490.5,218.1z"/>
		<path fill="#262335" d="M490.5,218.3c1.1,0,2.2,0.1,3.2,0.1c-0.3,1-1.2,0.8-1.9,0.8c-2,0.1-4,0-6,0c-1.5,0-3,0.1-4.5,0.3
			c-1,0.1-2.1,0.3-2.9-0.5c0-0.1,0-0.2,0-0.3c0.7-0.5,1.6,0.1,2.3-0.3c1.4,0,2.7-0.3,4.1-0.1C486.7,218.1,488.6,218.1,490.5,218.3z"
			/>
		<path fill="#262334" d="M512.8,218.4c1,0,2-0.1,2.9-0.1c2-0.1,4.1-0.2,6.1,0c1.4-0.2,2.7,0.1,4.1,0.1c0.3,0.1,0.5,0.3,0.4,0.7
			c-0.1,0.1-0.3,0.2-0.5,0.3c-3.8-0.3-7.7-0.1-11.5-0.2C513.6,219.1,512.9,219.2,512.8,218.4z"/>
		<path fill="#201D2F" d="M530.4,218.7c0,0.3,0.1,0.6,0.1,1c0.1,0.1,0.2,0.3,0.2,0.4c0.1,0.4,0.1,0.8,0.1,1.3c0,0.7,0,1.3,0.2,2
			c0.1,0.6,0.1,1.2,0,1.8c-0.3,0.8-0.2,1.5-0.2,2.3c0,0.6,0.1,1.3-0.2,1.8c-0.1,0.2-0.3,0.2-0.4,0.2c-0.2-0.1-0.3-0.2-0.4-0.4
			c-0.2-0.4-0.2-0.9-0.2-1.3c0-0.3,0-0.7,0-1.1c0-0.5,0-1,0-1.6c0-0.4,0-0.9,0-1.3c0-0.9,0.1-1.9-0.1-2.8c-0.1-0.2-0.1-0.3-0.1-0.5
			c-0.1-0.5-0.1-1,0.1-1.5c0.1-0.2,0.4-0.3,0.6-0.5C530.2,218.6,530.3,218.6,530.4,218.7z"/>
		<path fill="#0A0724" d="M475.8,238.6c0,4.7,0,9.4,0,14.1c-0.1,0.1-0.2,0.1-0.3,0c0-4.7,0-9.4,0-14.1
			C475.6,238.5,475.7,238.5,475.8,238.6z"/>
		<path fill="#383534" d="M475.8,238.6c-0.1,0-0.2,0-0.3,0c0-2.8-0.2-5.6,0.2-8.3C475.7,233.1,475.8,235.8,475.8,238.6z"/>
		<path fill="#292629" d="M475.5,252.7c0.1,0,0.2,0,0.3,0c0,0.4,0,0.9,0,1.3c0,2.3,0,4.7,0,7C475.3,258.2,475.5,255.5,475.5,252.7z"
			/>
		<path fill="#353231" d="M521.8,218.3c-2,0-4.1,0-6.1,0c0-0.1,0-0.1,0-0.2C517.7,218,519.8,217.8,521.8,218.3z"/>
		<path fill="#353231" d="M490.5,218.3c-1.9,0-3.8,0-5.8,0c1.9-0.4,3.8-0.3,5.7-0.2C490.5,218.1,490.5,218.2,490.5,218.3z"/>
		<path fill="#2A2828" d="M475.8,265.8c0.6,1.3,0.2,2.7,0.2,4.1C475.6,268.5,475.8,267.1,475.8,265.8z"/>
		<path fill="#353231" d="M480.7,218.4c-0.7,0.5-1.5,0.2-2.3,0.3c-0.5,0-1,0-1.5-0.1C478.2,218.2,479.4,218.3,480.7,218.4z"/>
		<path fill="#353231" d="M526.2,218.7c-0.1-0.1-0.2-0.2-0.3-0.3c1.2,0,2.5-0.2,3.7,0.2c-0.3,0.5-0.9,0.5-1.4,0.5
			C527.5,219.1,526.8,219.2,526.2,218.7z"/>
		<path fill="#201E21" d="M528.1,218.7c0.5,0,1-0.1,1.4-0.1c0.2,0,0.4,0.1,0.5,0.1c-0.1,0.1-0.2,0.2-0.4,0.3
			c-0.5,0.4-0.9,0.4-1.5,0.1C528.1,219,528.1,218.9,528.1,218.7z"/>
		<path fill="#F5F4F7" d="M517.8,284.3c-0.1,0.7-0.2,1.5-1.2,1.5c-1,0-1.2-0.7-1.3-1.6c0-0.8,0.3-1.4,1.2-1.5
			C517.6,282.7,517.7,283.5,517.8,284.3z"/>
		<path fill="#E7E5EF" d="M515.4,301.8c0.6-0.1,0.7,0.2,0.6,0.6c0,0.6-0.3,0.9-0.9,1c-0.4,0.1-0.8-0.2-0.8-0.6
			C514.5,302,515.1,302,515.4,301.8z"/>
		<path fill="#E4E3EE" d="M516.1,293.6c-0.1,0.5-0.3,1-1,1c-0.4,0-0.6-0.2-0.7-0.6c0-0.7,0.5-0.8,1.1-1
			C515.9,292.9,516.1,293.2,516.1,293.6z"/>
		<path fill="#E8E6F0" d="M500,283.8c0.3-1,0.8-1.3,1.5-1c0.3,0.1,0.7,0.5,0.5,0.7C501.5,284.1,500.8,283.7,500,283.8z"/>
		<path fill="#BFBCD8" d="M491.4,292.6c0.5-0.9,0.8-1.5,1.7-1.1c0.4,0.2,0.7,0.6,0.5,0.9C493,292.9,492.3,292.6,491.4,292.6z"/>
		<path fill="#F0EFF5" d="M489.7,284.3c0.1-0.9,0.3-1.6,1.3-1.6c0.9,0.1,1.2,0.8,1.1,1.7c-0.1,0.7-0.3,1.4-1.2,1.4
			C489.9,285.8,489.8,285,489.7,284.3z"/>
		<path fill="#E9E7F0" d="M524.2,300.2c0.9,0.2,1.3,0.9,1.2,1.7c0,0.8-0.4,1.6-1.3,1.5c-0.8,0-1.1-0.8-1.1-1.5
			C523,301,523.3,300.4,524.2,300.2z"/>
		<path fill="#EBEAF1" d="M483.3,301.8c-0.2,0.8-0.4,1.7-1.4,1.6c-0.9-0.1-1.2-0.8-1.2-1.7c0-0.8,0.4-1.5,1.2-1.5
			C482.9,300.2,483.1,301.1,483.3,301.8z"/>
		<path fill="#33449B" d="M528.2,218.9c0.5,0,1.1,0,1.6,0.1c0.2,0.5,0.2,1.1,0.1,1.6c-0.7,0.9-1.8,0.7-2.7,0.7
			c-9.5-0.3-18.9,0-28.4,0c-5.1,0-10.2-0.2-15.3-0.1c-1.8,0-3.6,0-5.4,0c-1.3,0-1.6-0.5-1.3-1.7c0.3-1,1.2-0.3,1.7-0.6
			c5-0.1,10-0.3,14.9-0.4c0.1,0,0.3-0.1,0.4-0.2c6.3,0,12.7,0,19,0c2.7,0.4,5.4,0.2,8.1,0.3c1.8,0.1,3.6,0.1,5.3,0.2
			C526.8,218.9,527.5,218.7,528.2,218.9z"/>
		<path fill="#31429B" d="M476.7,219.5c-0.2,1.1,0.4,1.3,1.4,1.3c7.5,0,15.1,0,22.6,0c8.3,0,16.6,0,24.9,0c1.4,0,2.8,0.1,4.2-0.2
			c0.1,0.1,0.1,0.2,0,0.2c0.2,1.6-0.1,1.8-2.1,1.8c-3.8,0-7.5,0-11.3-0.1c-7.4-0.2-14.8,0.2-22.2,0.1c-5.4-0.1-10.9,0.1-16.3,0
			c-0.5,0-1-0.1-1.4-0.4C476.5,221.3,476.2,220.4,476.7,219.5z"/>
		<path fill="#2F409A" d="M476.5,222.2c8.5,0,17,0.2,25.5,0c8.1-0.2,16.2,0.3,24.3-0.1c0.8,0,1.5,0.1,2.3,0.1c0.9,0,1.4-0.4,1.2-1.4
			c0.4,1,0.2,2,0.2,3c-2,0.1-3.9-0.1-5.9-0.1c-12.9,0-25.7,0-38.6,0c-3,0-6-0.2-9,0.3c-0.4-0.2-0.3-0.5-0.2-0.8
			C476.4,222.9,476.5,222.6,476.5,222.2z"/>
		<path fill="#131134" d="M476.4,223.2c0,0.2,0.1,0.4,0.1,0.7c0.2,0.3,0.3,0.6,0.3,0.9c0,0.3-0.1,0.5-0.2,0.7
			c-0.1,0.1-0.3,0.1-0.4,0C476.2,224.8,475.9,223.9,476.4,223.2z"/>
		<path fill="#26233D" d="M476.1,225.5c0.1,0,0.1,0,0.2,0c0.5,0.1,0.5,0.5,0.5,0.8c0,0.4,0,0.7-0.2,1c-0.1,0.2-0.3,0.2-0.5,0.2
			c0-0.6-0.1-1.2-0.1-1.7C476.1,225.7,476.1,225.6,476.1,225.5z"/>
		<path fill="#C6C4C4" d="M530.5,221.2c0-0.4,0-0.8,0-1.3c0.8,0.1,1.3,0.6,1.7,1.2c0.1,0.3,0.2,0.5,0.3,0.8c0.2,0.8,0,1.6,0.3,2.4
			c0,0.6,0,1.1,0,1.7c0.4,3,0.1,5.9,0.2,8.9c0.1,0.9,0.2,1.7,0.1,2.6c0.2,0.6,0.2,1.3,0.2,1.9c0,5.3,0,10.5,0,15.8
			c0,0.7,0,1.4-0.3,2.1c0,0.1,0,0.2,0,0.3c-0.3,2.9-0.1,5.8-0.2,8.7c0,0.6,0.1,1.2-0.1,1.8c-0.2,0.5-0.1,1.1,0,1.6
			c-0.4,1.1,0.3,2.3-0.3,3.3c-0.6,1.8-2.2,2.2-3.8,2.2c-5.6,0.2-11.2,0.4-16.8,0.4c-6.5-0.1-13.1-0.1-19.6,0
			c-3.9,0.1-7.8-0.4-11.7-0.4c-1.3,0-2.6-0.4-3-2c0-0.4,0.3-0.4,0.6-0.4c0.3,0.1,0.5,0.2,0.8,0.3c1.5,1.2,3.4,0.6,5.1,0.7
			c0.6,0,1.3,0,1.9,0.1c1,0.3,2,0.2,3,0.2c0.8,0,1.6,0,2.4,0c8.1,0,16.1,0,24.2,0c1.1-0.1,2.2,0,3.3,0c1.4,0,2.9,0.2,4.3-0.2
			c1.7-0.3,3.4-0.1,5.1-0.2c2.3-0.1,2.8-0.7,3.1-2.9c0.4-3.7,0.1-7.4,0.4-11.1c0.4-6.2,0.5-12.4,0.2-18.6c-0.2-5.8,0-11.6-0.6-17.4
			c-0.1-0.7-0.2-1.4-0.5-2C530.7,221.6,530.6,221.4,530.5,221.2z"/>
		<path fill="#CFCCCC" d="M477.7,273c0.5,1.6,1.8,1.8,3.2,1.9c10.5,0.6,21.1,0.2,31.6,0.4c5.3,0.1,10.6-0.3,15.9-0.3
			c1.8,0,3.2-0.6,3.9-2.3c0.4-0.5-0.3-1.4,0.6-1.6c0,3.1-1.2,4.4-4.2,4.6c-12.1,0.6-24.3,0.2-36.4,0.4c-4,0.1-8-0.4-12-0.4
			c-1.8,0-2.9-1-3.6-2.6C477.1,272.8,477.4,272.7,477.7,273z"/>
		<path fill="#CCCACA" d="M533.1,257.3c0-5.9,0-11.8,0-17.7c0-0.9-0.3-1.7,0-2.6c0.3-0.1,0.5,0,0.3,0.3c0,0.1,0,0.2,0,0.3
			c0.3,0.5,0.2,1.1,0.2,1.6c0,5.4,0,10.7,0,16.1c0,0.5,0.1,1.1-0.2,1.6C533.3,257.1,533.2,257.2,533.1,257.3z"/>
		<path fill="#CECCCC" d="M533.4,256.9c0-6.4,0-12.9,0-19.3c0.4,0.3,0.3,0.8,0.3,1.2c0,5.6,0,11.3,0,16.9
			C533.7,256.2,533.8,256.6,533.4,256.9z"/>
		<path fill="#CECCCC" d="M533.4,237.3c-0.1-0.1-0.2-0.2-0.3-0.3c-0.2-0.5-0.2-1.1,0-1.6c-0.3-2.9-0.3-5.9,0-8.8
			c0.4,0.3,0.3,0.7,0.3,1C533.4,230.8,533.4,234.1,533.4,237.3z"/>
		<path fill="#CCCACA" d="M532.7,268.1c0-3,0-6,0-9c0-0.5-0.2-1.1,0.3-1.5C533,261.1,533.4,264.6,532.7,268.1z"/>
		<path fill="#CCCACA" d="M533.1,226.5c0,2.9,0,5.9,0,8.8c-0.6-0.8-0.3-1.7-0.3-2.5c-0.1-2.4,0-4.9,0-7.3c0.1-0.2,0.2-0.2,0.3,0
			C533,225.9,533.1,226.2,533.1,226.5z"/>
		<path fill="#CECCCC" d="M533,225.5c-0.1,0-0.2,0-0.3,0c0-0.4-0.3-0.9,0-1.3c-0.3-0.7,0-1.6-0.3-2.3c-0.3-0.1-0.3-0.4-0.3-0.7
			c-0.2-0.2-0.2-0.4,0-0.7C533.7,222,533,223.8,533,225.5z"/>
		<path fill="#CCCACA" d="M533,271c-0.6,0.4,0,1.3-0.6,1.6c0-1-0.2-2,0.3-2.9C532.7,270.2,532.8,270.6,533,271z"/>
		<path fill="#2A2828" d="M477.7,273c-0.3,0-0.7,0-1,0c-0.1-0.1-0.3-0.2-0.4-0.3c1,0,2,0,3,0c0.1,0.2,0.1,0.3,0,0.4
			c-0.3,0.2-0.6,0.1-0.9-0.1C478.2,273,478,273,477.7,273z"/>
		<path fill="#CCCACA" d="M532.1,220.6c0,0.2,0,0.4,0,0.7c-0.5-0.4-1-0.9-1.6-1.3c0-0.1,0-0.2,0-0.3
			C531.2,219.7,531.6,220.2,532.1,220.6z"/>
		<path fill="#2A2B76" d="M476.1,245.2c0-1,0-2,0-2.9c0.6-0.5,1.3-0.5,2-0.5c16.6,0,33.3,0,49.9,0c0.9,0,1.8,0,2.5,0.7
			c0.6,1.2,0.6,2.3,0,3.5c-17.1-0.4-34.3-0.1-51.4-0.2C478.1,245.7,477,245.9,476.1,245.2z"/>
		<path fill="#2B3491" d="M476.2,227.6c0.1-0.1,0.2-0.1,0.2-0.1c0.3,0.2,0.4,0.4,0.5,0.7c0.7,0.7,1.5,0.5,2.3,0.5
			c16,0,31.9,0,47.9,0c1,0,2.1-0.2,3,0.5c0.1,0.1,0.1,0.2,0,0.2c0.9,2.3,0.4,3.2-2,3.2c-16.6,0-33.2,0-49.8,0
			c-0.8,0-1.7,0.1-2.1-0.8C476.2,230.4,476.2,229,476.2,227.6z"/>
		<path fill="#282970" d="M476.1,245.2c17.4,0,34.8,0,52.2,0c0.7,0,1.6-0.2,2,0.6c0.5,0.5,0.4,1,0.1,1.5c-0.6,0.6-1.4,0.6-2.1,0.6
			c-16.8,0-33.6,0-50.4,0c-0.7,0-1.3,0-1.8-0.5C476.1,246.7,476.1,245.9,476.1,245.2z"/>
		<path fill="#2C328C" d="M476.2,231.8c0.6,0.4,1.4,0.3,2.1,0.3c16.3,0,32.7,0,49,0c2.8,0,2.8,0,2.9-2.7c0.1,0.1,0.2,0.1,0.2,0.2
			c0.8,1.5,0.7,3.1,0.1,4.6c-0.9,0.4-1.9,0.4-2.9,0.4c-16.4,0-32.8,0-49.2,0c-0.8,0-1.5,0.1-2.2-0.5
			C476.2,233.3,476.2,232.5,476.2,231.8z"/>
		<path fill="#2B2F7F" d="M476.1,241.2c0-0.4,0-0.9,0-1.3c0.2-0.7,0.7-1.1,1.4-1.1c0.3,0,0.7,0,1,0c16.4,0,32.9,0,49.3,0
			c1.1,0,2.1,0.1,2.7,1.1c0.3,0.6,0.4,1.3-0.2,1.8c-0.8,0.2-1.6,0.1-2.4,0.1c-16.4,0-32.9,0-49.3,0
			C477.8,241.7,476.9,241.9,476.1,241.2z"/>
		<path fill="#2C2F84" d="M530.4,239.9c-0.5-0.4-1-0.7-1.8-0.7c-16.9,0-33.7,0-50.6,0c-0.7,0-1.4,0-1.9,0.7c0-0.5,0-1.1,0-1.6
			c0.4-0.8,1-1.1,1.8-1.1c0.4,0,0.9,0,1.3,0c16.3,0,32.5,0,48.8,0c0.8,0,1.6-0.1,2.4,0.3C531,238.3,531.1,239.1,530.4,239.9z"/>
		<path fill="#2B3188" d="M476.2,236.7c0-0.7,0-1.3,0-2c0.6-0.3,1.2-0.2,1.8-0.2c16.7,0,33.5,0,50.2,0c0.8,0,1.5-0.1,2.2,0.3
			c0.5,0.5,0.5,1,0.2,1.5c-0.6,0.8-1.5,0.8-2.4,0.8c-16.6,0-33.2,0-49.8,0C477.6,237.1,476.8,237.2,476.2,236.7z"/>
		<path fill="#26266B" d="M476.1,249.7c0-0.4,0-0.9,0-1.3c0.6-0.6,1.3-0.5,2-0.5c16.7,0,33.4,0,50.1,0c0.8,0,1.7,0,2.3,0.7
			c0.3,0.5,0.3,1.1-0.1,1.6c-0.7,0.5-1.6,0.4-2.4,0.4c-16.4,0-32.9,0-49.3,0C477.8,250.6,476.8,250.8,476.1,249.7z"/>
		<path fill="#252468" d="M476.1,249.7c0.6,0.4,1.4,0.3,2.1,0.3c17.4,0,34.8,0,52.2,0c0.4,0.4,0.3,0.8,0.1,1.2
			c-0.6,0.6-1.4,0.6-2.1,0.6c-16.8,0-33.6,0-50.4,0c-0.7,0-1.3,0-1.8-0.5C476.1,250.8,476.1,250.3,476.1,249.7z"/>
		<path fill="#242363" d="M476.1,253.7c0-0.4,0-0.9,0-1.3c0.6-0.6,1.3-0.5,2-0.5c17.4,0,34.7,0,52.1,0c0.6,0.2,0.6,0.7,0.5,1.2
			c-0.3,0.7-0.9,0.9-1.6,0.9c-1.5,0.1-2.9,0.1-4.4,0.3c-1.4-1.5-3.3-1-4.9-1.1c-2.8-0.3-5.5,0.5-7.8,2.2c-0.6,0.4-1.2,1.1-2,0.5
			c-0.4-2.7-2.4-2.6-4.4-2.4c-3.9,0.5-7.9,0.4-11.8,0c-1-0.1-1.7,0.2-1.8,1.4c0,0.4-0.1,0.9-0.6,1.1c-0.1,0-0.2,0-0.3-0.1
			c-0.6-0.7-0.4-2-1.6-2.3c-1.7-0.4-3.5-0.5-5.2,0c-0.6,0.2-1.2,0.4-1.9,0.4c-1.5,0.1-3.1,0.1-4.6,0
			C477.2,254.2,476.6,254.1,476.1,253.7z"/>
		<path fill="#2C3086" d="M476.2,236.7c0.9-0.3,1.8,0,2.7,0c16.2,0,32.5,0,48.7,0c0.9,0,1.8,0,2.7-0.3c0.5,0.4,0.4,0.9,0,1.3
			c-17.3,0-34.6,0-51.8,0c-0.9,0-1.7,0-2.4,0.7C476.1,237.7,476.2,237.2,476.2,236.7z"/>
		<path fill="#27286E" d="M530.4,248.8c-0.7-0.5-1.5-0.3-2.2-0.3c-17.3,0-34.7,0-52,0c0-0.3,0-0.7,0-1c17.4,0,34.8,0,52.2,0
			c0.7,0,1.4,0.1,2.1-0.3C530.9,247.7,530.9,248.2,530.4,248.8z"/>
		<path fill="#2B2D7B" d="M476.1,241.2c17.3,0,34.7,0,52,0c0.8,0,1.5-0.2,2.2,0.3c0.1,0.1,0.2,0.2,0.3,0.4c0,0.2,0,0.5-0.3,0.6
			c-0.8-0.3-1.7-0.3-2.6-0.3c-17.2,0-34.5,0-51.7,0C476.1,241.9,476.1,241.6,476.1,241.2z"/>
		<path fill="#242365" d="M530.4,252c-0.6,0.4-1.4,0.3-2.1,0.3c-17.4,0-34.8,0-52.2,0c0-0.3,0-0.7,0-1c17.4,0,34.8,0,52.2,0
			c0.7,0,1.4,0.1,2.1-0.3C530.7,251.4,530.7,251.7,530.4,252z"/>
		<path fill="#2C328A" d="M530.4,235c-17.4,0-34.8,0-52.1,0c-0.7,0-1.4,0.1-2.1-0.3c0-0.2,0-0.4,0-0.7c17.2,0,34.4,0,51.6,0
			c0.9,0,1.7-0.3,2.6,0C530.7,234.4,530.7,234.7,530.4,235z"/>
		<path fill="#232260" d="M476.1,253.7c2.2,0,4.4,0,6.6,0c0.1,1.3-0.9,1.9-1.6,2.7c-0.9-0.6-1.8-0.8-2.9-0.7c-0.7,0.1-1.4-0.1-2-0.4
			c0-0.4-0.1-0.9-0.1-1.3C476.1,253.9,476.1,253.8,476.1,253.7z"/>
		<path fill="#0F1137" d="M476.8,271.7c-0.3-0.5-0.4-1.1-0.3-1.6c0.6-0.5,1.3-0.4,2-0.4c2.7-0.2,5.4,0.1,8.1-0.1
			c3.1,0.1,6.3,0,9.4,0.2c0.8,0.1,0.1-0.2,0.1-0.3c-0.2-0.5,0.1-0.7,0.4-0.9c0.7-0.3,1.5-0.3,2.2,0c0.8,0.7,0,0.8-0.2,1.1
			c0.9-0.2,2,0.1,3,0.1c4.2,0.2,8.4-0.1,12.6,0c1.1,0,0.3-1.2,1.2-1.2c3.2,0.4,6.3-0.1,9.4-0.4c0.4,0.1,0.7,0.3,0.7,0.7
			c0,0.4-0.4,0.6-0.7,0.5c-1.3-0.1-2.5,0.8-3.5,0.4c-0.5,0-0.3,0.3-0.4,0.1c0-0.1,0-0.1,0.1-0.1c2.4,0.2,4.9-0.3,7.3-0.1
			c0.6,0.1,0.9-0.3,1.1-0.8c0.2-0.3,0.4-0.7,0.8-0.2c0.4,1,0,2-0.3,3c-0.5,0.6-1.3,0.5-2,0.5c-8.3-0.1-16.5,0-24.8,0
			c-6.4,0-12.8,0-19.2,0.1c-2,0-4-0.2-6-0.1C477.6,272,477.1,272,476.8,271.7z"/>
		<path fill="#0F1133" d="M476.8,271.7c17.7,0,35.3,0,53,0c0.3,1.1-0.5,1.1-1.1,1.1c-2,0-4,0.3-6,0.3c-8.3,0.1-16.6,0.6-24.8,0.3
			c-4.7-0.1-9.5-0.4-14.2-0.3c-0.7,0-1.5,0-2.2-0.4c-1-0.6-2.1-0.2-3.2-0.3C477.7,272.3,476.9,272.6,476.8,271.7z"/>
		<path fill="#141448" d="M476.5,265.8c0-0.5,0-1.1,0-1.6c0.2-0.6,0.5-0.8,1.2-0.8c2.8,0.2,5.7-0.2,8.5,0.3c0.8,0.1,1.1-0.9,1.9-0.8
			c1.7,0.7,2.2,1.6,1.8,3.2c-1,0.7-2.1,0.4-3,0.2c-1.6-0.3-3-0.2-4.5,0.2c-0.2,0-0.3-0.1-0.4-0.2c-0.5-1-1-0.6-1.5,0
			C479.2,266,477.7,266.6,476.5,265.8z"/>
		<path fill="#0C0B19" d="M481.4,272.6c3.3,0,6.5-0.1,9.8,0.1c6.8,0.3,13.7,0.4,20.5,0.1c4.3-0.2,8.7-0.2,13-0.3
			c1.3,0,2.6-0.1,3.9-0.2c0.5,0,1.2,0.2,1.3-0.7c0-1.1,0.5-2.1,0.3-3.3c-0.2-0.2-0.3-0.4-0.4-0.7c-0.1-0.6-0.1-1.3-0.1-1.9
			c0-0.5,0.1-1,0.4-1.3c0.2-0.1,0.4,0,0.5,0.2c0.5,1.2,0.2,2.5,0.3,3.8c-0.1,1.5,0.3,3-0.7,4.3c-1,0.7-2.1,0.2-3.1,0.6
			c-1.3,0.2-2.6,0.1-3.9,0.1c-1.8,0-3.6-0.2-5.3,0.2c-2.6,0.3-5.2,0-7.8,0.1c-4.7,0-9.3,0-14,0c-2.6-0.1-5.2,0.2-7.8-0.1
			c-1.8-0.5-3.6-0.2-5.4-0.2c-1.2-0.1-2.5,0.4-3.6-0.5c0-0.1,0-0.2,0-0.3C480,272.7,480.7,272.6,481.4,272.6z"/>
		<path fill="#17164C" d="M488,263.1c-0.8,0.7-1.4,0.9-2.6,0.8c-2.7-0.4-5.5-0.2-8.2-0.2c-0.2,0-0.4,0.3-0.6,0.4
			c-0.1-1-0.5-1.9-0.3-2.9c3.1,0.8,6.2,0.8,9.4,0.3C486.6,261.7,487.7,261.8,488,263.1z"/>
		<path fill="#0F123C" d="M486.6,269.7c-0.9,0.4-1.8,0.3-2.8,0.3c-2.4-0.1-4.9,0-7.3,0c0-0.4,0-0.9,0-1.3c0.7-1.5,2.7-2,3.9-0.8
			c0.5,0.5,0.9,0.4,1.4,0.3c1.9,0.5,3.8,0.2,5.7,0.6C488.2,270.2,487,269.6,486.6,269.7z"/>
		<path fill="#1A1750" d="M485.6,261.8c-0.9,0.4-1.8,0.6-2.7,0.5c-1.7-0.2-3.4-0.1-5.1-0.1c-0.8,0-1.3-0.3-1.6-1c0-0.1,0-0.2,0-0.4
			c1.9-0.9,3.9-0.3,5.9-0.5c0.5,0,1,0.1,1.5,0.1C484.4,260.7,485.4,260.7,485.6,261.8z"/>
		<path fill="#111242" d="M481.7,268.5c-0.5,0.8-1,0.5-1.4,0c-1.2-1.2-2.6-1.1-3.8,0.2c0-1,0-2,0-2.9c1.4,0.2,2.9-0.3,4.3,0.3
			C481.8,266.6,481.3,267.7,481.7,268.5z"/>
		<path fill="#1C1953" d="M483.7,260.8c-2.5,0-5,0-7.5,0c0-0.6,0-1.3,0-1.9c2-0.3,4-0.4,6,0.5c0.6,0.2,1.1,0.4,1.5,0.9
			C483.8,260.5,483.8,260.7,483.7,260.8z"/>
		<path fill="#211E5C" d="M476.2,255.3c1.3,0,2.7,0.1,4,0c0.9-0.1,0.6,0.7,0.9,1c0.4,0.4,0.4,0.8,0.1,1.3c-1.7-0.1-3.3-0.1-5-0.3
			C476.2,256.6,476.2,256,476.2,255.3z"/>
		<path fill="#1F1D59" d="M476.2,257.3c1.6-0.4,3.3-0.7,4.8,0.3c0.5,0.4,0.8,0.8,0.3,1.4c-1.2-0.2-2.4-0.4-3.6-0.3
			c-0.8,0-1.4-0.2-1.5-1.1C476.1,257.5,476.2,257.4,476.2,257.3z"/>
		<path fill="#1E1C57" d="M476.1,257.6c0.4,0.4,0.8,0.7,1.4,0.7c1.3-0.1,2.7,0,3.9,0.6c0.7,0,1,0.3,0.9,1c-1.9-1.2-4.2-0.2-6.2-1
			C476.2,258.5,476.2,258.1,476.1,257.6z"/>
		<path fill="#111028" d="M528.2,218.9c-0.7,0-1.3-0.1-2-0.1c0-0.1,0-0.1,0-0.2c0.6,0,1.3,0,1.9,0
			C528.1,218.8,528.1,218.9,528.2,218.9z"/>
		<path fill="#2B3C97" d="M476.4,226.5c-0.1-0.3-0.1-0.6-0.2-1c0.1-0.2,0.1-0.4,0.2-0.7c0.6-0.6,1.4-0.5,2.2-0.5
			c16.3,0,32.6,0,48.9,0c0.9,0,1.9-0.2,2.5,0.8c0,0.5,0,1.1,0,1.6c-0.5,0.3-1.1,0.2-1.6,0.2c-16.3,0-32.6,0-48.9,0
			C478.5,227,477.4,227.1,476.4,226.5z"/>
		<path fill="#2D3F99" d="M530.1,225.2c-0.7-0.5-1.5-0.3-2.2-0.3c-17.1,0-34.2,0-51.3,0c0-0.3,0-0.7,0-1c0.8-0.6,1.6-0.7,2.6-0.7
			c16.1,0,32.2,0,48.2,0c1,0,1.9,0.1,2.7,0.6C530,224.3,530.1,224.8,530.1,225.2z"/>
		<path fill="#2C3A96" d="M476.4,226.5c0.9,0,1.8,0,2.7,0c16.2,0,32.4,0,48.7,0c0.8,0,1.5-0.1,2.2,0.3c0,0.3,0,0.7,0.1,1
			c-0.7,0.6-1.5,0.5-2.3,0.5c-16.6,0-33.3,0-49.9,0c-0.5,0-1,0-1.4-0.2c0-0.2,0-0.5-0.1-0.7C476.4,227.1,476.4,226.8,476.4,226.5z"
			/>
		<path fill="#2A3895" d="M476.5,228.1c0.7-0.4,1.5-0.3,2.2-0.3c17.1,0,34.3,0,51.4,0c0,0.4,0,0.9,0,1.3c-17.6,0-35.2,0-52.8,0.1
			C476.2,229.2,476.5,228.7,476.5,228.1z"/>
		<path fill="#A7A4A3" d="M530,272.7c0.4-1.4,0.6-2.7,0.4-4.2c0.2-1.6,0.3-3.1-0.1-4.7c0-1.9-0.1-3.7,0.1-5.6
			c0.4-1.8,0.3-3.7,0.3-5.5c0.1-6.3,0-12.5,0-18.8c0-0.3,0-0.5-0.1-0.8c-0.1-1.8,0-3.7-0.1-5.5c0-0.8-0.1-1.6,0.1-2.4
			c0-0.7,0.1-1.3,0.1-2c0.1,0,0.2,0,0.3,0c0.7,1.2,0.7,2.5,0.7,3.8c0,8.6,0.7,17.3,0.3,25.9c-0.2,6.1-0.1,12.2-0.7,18.2
			c-0.1,0.8,0.2,2.1-1.3,2.1C530,273,529.9,272.8,530,272.7z"/>
		<path fill="#111027" d="M530.7,227.5c0,1.8,0.1,3.6,0.1,5.5c0.3,2.9,0.1,5.8,0.1,8.7c0,0.3-0.2,0.3-0.4,0.3c0-0.1-0.1-0.2-0.1-0.3
			c0-0.5,0-1.1,0-1.6c0-0.8,0-1.5,0-2.3c0-0.4,0-0.9,0-1.3c0-0.4,0-0.9,0-1.3c0-0.3,0-0.7,0-1c0-1.5,0-3,0-4.5c0-0.7,0-1.4,0.1-2
			C530.6,227.3,530.6,227.3,530.7,227.5z"/>
		<path fill="#221F2C" d="M530.7,227.5c-0.1,0-0.2,0-0.3,0c0.1-0.8-0.2-1.5,0.2-2.3C530.7,226,530.7,226.7,530.7,227.5z"/>
		<path fill="#A7A4A3" d="M530.5,221.2c0.1,0,0.2,0,0.2,0c0.3,0.6,0.6,1.3,0,2c0,0-0.1,0-0.1,0C530.4,222.6,530.6,221.9,530.5,221.2
			z"/>
		<path fill="#AEABAB" d="M530.8,223.2c0-0.7,0-1.3,0-2c0.8,0.5,0.9,1.3,1,2.1c0.6,4.9,0.1,9.7,0.5,14.6c0.4,6,0.4,12,0.1,17.9
			c-0.3,5,0.1,10-0.5,14.9c-0.3,2.5-1,3.4-3.5,3.4c-1.7,0-3.4,0-5.1,0c-1.4,0.4-2.9-0.2-4.3,0.3c-1.1,0-2.2,0-3.3,0
			c-0.3-0.3-0.7-0.2-1.1-0.2c-7.4,0-14.9,0-22.3,0c-0.4,0-0.8-0.1-1.1,0.2c-0.8,0-1.5,0-2.3,0c-0.9-0.4-2,0.1-3-0.3
			c-0.7,0-1.3,0-2,0c-0.7-0.3-1.5-0.2-2.2-0.1c-1.1,0.1-2.1-0.2-3-0.8c-0.1-0.1-0.2-0.2-0.3-0.3c0.3,0,0.7-0.1,1-0.1
			c1.2,0,2.3,0.1,3.5,0.1c1.8,0.4,3.6-0.1,5.3,0.2c2.6,0.1,5.2,0.3,7.8,0.1c4.8,0.2,9.5,0.2,14.3,0c2.6,0.2,5.2,0,7.7-0.1
			c1.8-0.3,3.6,0.1,5.3-0.2c1.3,0,2.5-0.1,3.8-0.1c1-0.2,1.9-0.1,2.9,0c1.2-0.1,0.9-1.2,1-1.9c0.5-4,0.3-8,0.5-12
			c0.4-6.8,0.3-13.7,0.1-20.5c-0.2-4.5,0-9.1-0.4-13.6C531.2,224.3,531.2,223.7,530.8,223.2z"/>
		<path fill="#B2AFAF" d="M491.2,274.6c0.4-0.5,0.9-0.3,1.4-0.3c7.3,0,14.5,0,21.8,0c0.5,0,1-0.1,1.4,0.3
			C507.5,274.6,499.3,274.6,491.2,274.6z"/>
		<path fill="#B2AFAF" d="M478.7,273.3c1.6,1,3.6,0.3,5.2,1c-1.2,0-2.3,0-3.5,0C479.7,274.3,479.1,274,478.7,273.3z"/>
		<path fill="#B2AFAF" d="M519,274.6c1.4-0.7,2.8-0.1,4.3-0.3C521.9,275,520.4,274.4,519,274.6z"/>
		<path fill="#B2AFAF" d="M485.9,274.3c1,0.1,2-0.3,3,0.3C487.9,274.5,486.8,274.9,485.9,274.3z"/>
		<path fill="#CCCACA" d="M532.4,221.9c0.6,0.7,0.2,1.5,0.3,2.3C532.3,223.5,532.2,222.7,532.4,221.9z"/>
		<path fill="#101023" d="M530.5,241.9c0.1,0,0.2,0,0.3,0c0.4,1.1,0.2,2.2,0.2,3.2c0,4.4,0.2,8.8-0.1,13.2c0,1.8-0.1,3.7-0.1,5.5
			c-0.2,0.2,0,0.5-0.3,0.6c-0.1,0-0.2,0-0.3,0c-0.2-0.2-0.3-0.4-0.4-0.7c-0.1-0.6-0.1-1.2,0-1.8c0-0.5,0.2-0.9,0.2-1.4
			c0.1-0.7,0.1-1.4,0.1-2.1c0-0.2,0-0.5,0-0.7c0-0.3,0-0.7,0-1c0-0.5,0-1.1,0-1.6c0-0.7,0-1.3,0.4-1.9c0-0.4,0-0.9,0-1.3
			c0-0.3,0-0.7,0-1c0-0.3,0-0.7,0-1c0-0.4,0-0.9,0-1.3c0-0.5,0-1.1,0-1.6c0-0.4,0-0.9,0-1.3c0-1.1,0-2.2,0-3.3
			C530.4,242.3,530.5,242.1,530.5,241.9z"/>
		<path fill="#FBE707" d="M499,268.8c-0.9,0-1.7,0-2.6-0.1c-0.3-0.3-0.1-0.6,0.2-0.8c1.1-0.4,2.5-0.5,2.3-2.3c0-0.6,0-1.2,0-1.8
			c0-0.5,0-1.1,0-1.6c0-0.5,0-0.9,0-1.4c0-0.8,0-1.6,0-2.5c0-0.4,0-0.9,0-1.3c0.1-2.7-0.4-3.1-3-2.4c-1.3,0.3-2.4,0.9-3.2,2
			c-0.5,0.4-1,1.1-1.7,0.3c-0.1-0.3-0.1-0.7,0.1-1c0.3-0.1,0.3-0.4,0.3-0.7c0.1-2.5-0.3-2.4,2.7-2.3c4.3,0.2,8.7,0.1,13-0.1
			c2.4-0.1,2.4-0.2,2.8,2.2c0,0.3,0.2,0.5,0.3,0.7c0.7,1,0,1.3-0.8,1.6c-0.4-0.3-0.7-0.6-0.9-1c-1.2-2.2-4.3-2.9-5.9-1.4
			c-0.4,3.5-0.2,7-0.1,10.6c0,1.3,1.1,1.6,2.1,2c0.8,0.7,0.4,1.2-0.4,1.3C502.5,269.3,500.7,269.6,499,268.8z"/>
		<path fill="#FCE805" d="M509.6,257.6c0.2-0.5,0.9-0.8,0.7-1.5c2.2-1.7,4.5-3,7.3-3.2c2.2-0.2,4.3,0.2,6.5,0.3c0.9,0,0.9,0.6,1,1.2
			c0.5,0.3,0.6,0.8,0.7,1.3c0,0.7,0.6,1.8-0.9,1.8c-1-0.5-1.2-1.6-2-2.2c-0.8-0.7-1.8-1-2.9-1.2c-0.5,0-1,0-1.6,0
			c-0.1,0-0.3,0-0.4,0c-0.4,0-0.7,0.1-1,0.2c-0.7,0.2-1.3,0.5-1.9,0.9c-0.7,0.6-1.4,1.2-1.9,2c-0.1,0.2-0.3,0.5-0.4,0.7
			c-0.1,0.3-0.2,0.7-0.3,1c-0.1,0.4-0.2,0.9-0.3,1.3c-0.3,1.1,0.2,2,0.3,3.1c0.3,0.7,0.6,1.4,1.1,2c2.4,3.5,8.6,3.7,11.2-0.1
			c0.5-0.5,0.8-1.2,1.7-0.7c0.5,0.9,0,1.7-0.1,2.6c-0.3,0.5-0.1,1.3-1,1.4c-2.4,0.2-4.7,0.8-7.1,0.6c-1-0.1-2-0.2-3.1-0.3
			c-1.3,0.2-2.3-0.5-3.3-1.2c-0.8-0.6-1.5-1.3-2.1-2.1c-0.4-0.8-0.8-1.5-1.1-2.3c-0.1-0.5-0.2-0.9-0.3-1.4c-0.1-0.5-0.1-1-0.1-1.5
			c0.2-0.7,0.3-1.4,0.6-2.1C509,257.9,509.2,257.6,509.6,257.6z"/>
		<path fill="#8A96C0" d="M491.2,256.2c0,0.2,0,0.5,0,0.7c-0.4,0.4-0.7,0.3-1.1,0c-0.3-0.5-0.4-1-0.8-1.5c-1.5-1.7-3.2-1.8-5-0.3
			c-0.3,0.4-0.6,0.9-0.4,1.5c0.1,0.5,0.5,0.8,0.6,1.3c-0.1,0.5,0.1,1-0.1,1.4c-0.2,0.4-0.4,0.9-0.8,1.3c-0.4-0.2-0.8-0.5-1.3-0.7
			c-0.3-0.3-0.6-0.7-0.9-1c-0.1-0.4-0.3-0.9-0.4-1.3c0-0.4,0-0.9,0-1.3c0.6-0.9,1.1-1.7,1.7-2.6c1.8-0.6,3.5-1,5.4-0.7
			C491,253.4,490.7,252.6,491.2,256.2z"/>
		<path fill="#23225F" d="M525.2,255.6c-0.1-0.4-0.2-0.9-0.3-1.3c0.5-0.5,0.9-0.8,1.8-0.7c1.2,0.2,2.5,0.2,3.7-0.3c0,0.7,0,1.3,0,2
			C528.7,256.2,527,255.8,525.2,255.6z"/>
		<path fill="#0F113B" d="M511.9,267.4c1,0.6,2.1,1.1,3.2,1.4c0,0.3,0.2,0.5,0.5,0.6c0.3,0.1,0.5,0.2,0.3,0.6
			c-0.1,0.2-0.3,0.2-0.6,0.2c-3.7-0.1-7.5-0.1-11.2,0c-2.2,0.1-4.3-0.3-6.6-0.4c0.4-0.6,1.4-0.2,1.5-1c1.7,0,3.5,0,5.2,0
			c0.3,0,0.7,0.1,0.7-0.4c0-0.3-0.4-0.3-0.6-0.4c1-1.3,2.5-0.8,3.7-0.6C509.3,267.7,510.6,267.6,511.9,267.4z"/>
		<path fill="#0F113B" d="M496.7,268c-0.3,0.1-0.3,0.4-0.3,0.7c-0.1,0.3-0.3,0.6,0.1,0.9c0.7,0.5,0.1,0.6-0.2,0.6
			c-3.1-0.3-6.2-0.2-9.3-0.2c-0.1,0-0.3-0.2-0.4-0.3c0.1-0.6,1,0.2,1-0.6c0.8-0.8,1.9-0.9,2.9-1.3c1.6-0.4,3.2-0.6,4.9-0.5
			C495.8,267.4,496.5,267.2,496.7,268z"/>
		<path fill="#10133B" d="M525.2,268.4c0.5-0.3,0.1-1.1,0.6-1.4c1.4,0.4,2.9-0.1,4.3,0.7c0,0.2,0,0.4,0,0.7
			c-0.2,1.5-1.1,1.9-2.5,1.6c-2.3-0.4-4.6,0.3-7-0.4c1.2-0.2,2.5-0.4,3.7-0.6C524.7,269,525.5,269.5,525.2,268.4z"/>
		<path fill="#8995BB" d="M490.5,268c-0.9,0.5-1.9,0.9-2.9,1.1c-2-0.2-4,0.2-5.9-0.6c-1.3-0.4-0.3-1.7-1-2.4c0-0.3,0-0.5,0-0.8
			c0-0.3-0.2-0.7,0.3-0.8c0.4-0.1,0.5,0.2,0.7,0.5c0.2,0.5,0.5,0.9,0.8,1.4c0.6,0.2,1,0.7,1.5,1c2,1.1,3.8,0.7,5.6-1.2
			c0.5-1.6-0.3-2.4-1.6-3.1c-0.6-0.7-1.5-1-2.3-1.3c-0.6-0.4-1.2-0.8-1.9-1c0-0.1,0-0.2-0.1-0.3c0-0.6,0.1-1.1,0.7-1.3
			c1.2-0.2,2.2,0.3,3.2,0.9c0.4,0.2,0.7,0.6,1.2,0.3c0.7-0.2,1.2,0.2,1.7,0.6c0.7,0.4,1.3,0.9,1.7,1.6c0.3,0.5,0.4,1.1,0.5,1.6
			c0,0.4,0,0.8-0.1,1.2C492.2,266.6,491.6,267.5,490.5,268z"/>
		<path fill="#111243" d="M489.6,266.2c-0.2,1.5-1.3,2-2.6,2.2c-1.8,0.2-3.6,0-4.5-1.9c1-1.3,2.6-0.8,3.6-0.6
			C487.2,266,488.4,265.7,489.6,266.2z"/>
		<path fill="#141448" d="M513.1,265.4c-0.5-0.5-0.9-1.2-1-2c0.3-0.3,0.7-0.3,1.1-0.3c4.9,0.1,9.8,0,14.7,0.1c0.8,0,1.5-0.1,2.2,0.5
			c0,0.2,0,0.4,0,0.7c0,0.4,0,0.9,0,1.3c-0.9,0.7-1.9,0.4-2.9,0.3c-1.1-0.1-0.6-1.1-1-1.6c-0.8-0.2-0.9,0.7-1.3,1
			c-0.1,0.1-0.2,0.1-0.3,0.2C522.8,266.7,514.8,266.6,513.1,265.4z"/>
		<path fill="#111241" d="M526.2,264.5c0.8,2,2.5,1.1,3.9,1.3c0,0.7,0,1.3,0,2c-0.9,0-1.9,0-2.8,0c-0.6,0-1.2-0.1-1.4-0.7
			C525.9,266.2,526.1,265.3,526.2,264.5z"/>
		<path fill="#1E1C1E" d="M510.3,273.4c-0.9,0.5-1.9,0.2-2.9,0.2c-3.2,0-6.4,0-9.6,0c-0.6,0-1.2,0.1-1.8-0.2
			C500.7,273.3,505.5,273.3,510.3,273.4z"/>
		<path fill="#1D1B20" d="M523.4,273c-1.8,0.5-3.6,0.3-5.3,0.2C519.8,272.7,521.6,273.1,523.4,273z"/>
		<path fill="#1D1B20" d="M488.2,273.3c-1.8,0-3.6,0.2-5.3-0.2C484.7,273.1,486.5,272.7,488.2,273.3z"/>
		<path fill="#211F22" d="M530.4,264.5c0.1-0.2,0.2-0.4,0.3-0.6c0,1.6,0.2,3.1-0.2,4.7C530.5,267.1,530.4,265.8,530.4,264.5z"/>
		<path fill="#1D1B20" d="M530.1,272.9c-1,0-1.9,0-2.9,0c0.9-0.6,1.9-0.2,2.9-0.3C530.1,272.7,530.1,272.8,530.1,272.9z"/>
		<path fill="#221F2C" d="M530.8,258.3c0-5.5,0-11,0-16.5c0-3,0-6,0-8.9c0.5,1.6,0.2,3.3,0.3,5c0.1,6.4,0,12.7,0,19.1
			C531,257.5,531.1,258,530.8,258.3z"/>
		<path fill="#17164C" d="M530.1,263.8c-5.1,0-10.3,0-15.4,0c-0.9,0-1.7-0.1-2.5-0.3c-0.6-1.1-0.6-2.2-0.4-3.3c0.8,0,0.3,0.8,0.7,1
			c0.5,0.6,1.2,0.5,1.8,0.5c4.8,0,9.6,0,14.4,0c0.5,0,1-0.1,1.4,0.2C530.1,262.5,530.1,263.2,530.1,263.8z"/>
		<path fill="#1C1953" d="M512.1,260.9c-0.1-0.2-0.2-0.5-0.3-0.7c0-0.5-0.1-1,0.3-1.4c5-0.1,10,0,15,0c1.1,0,2.3,0,3.4-0.2
			c0,0.8,0.1,1.5-0.2,2.3c-0.5,0.5-1.2,0.5-1.8,0.5c-4.6,0-9.1,0-13.7,0C513.8,261.4,512.9,261.4,512.1,260.9z"/>
		<path fill="#1A174F" d="M512.1,260.9c3.7,0,7.5,0,11.2,0c2.3,0,4.6,0,6.8,0c0.3,0.3-0.1,0.7,0,1c-0.5,0.3-1.1,0.3-1.7,0.3
			c-5.1,0-10.3,0.1-15.4,0.1C511.9,262.3,511.8,261.7,512.1,260.9z"/>
		<path fill="#1F1D59" d="M512.4,257.8c0-0.2,0-0.5,0.3-0.6c0.5-0.5,1.2-0.8,1.9-0.8c2.8-0.1,5.6,0,8.4,0.1c0.5,0,0.8,0.2,1.1,0.5
			c0.5,0.5,1,0.4,1.6,0c1.5-1,3-0.9,4.6-0.2c0,0.3,0,0.7,0,1c-0.5,0.9-1.4,0.8-2.2,0.8c-4.9-0.2-9.8,0.1-14.6,0
			C513,258.7,512.4,258.7,512.4,257.8z"/>
		<path fill="#1E1C57" d="M512.4,257.8c0.6,1.1,1.5,0.3,2.2,0.3c4.8,0.1,9.6,0.1,14.4,0.1c0.5,0,1-0.1,1.4-0.3c0,0.2,0,0.4,0,0.7
			c-0.4,0.5-0.9,0.7-1.6,0.6c-5.1,0-10.2,0-15.3,0c-0.5,0-1.1,0.1-1.5-0.4C512.1,258.4,512,258.1,512.4,257.8z"/>
		<path fill="#22205B" d="M530.4,256.9c-1.7,0.1-3.4-0.4-5,0.6c-0.3,0.2-0.9,0.1-1.2-0.3c0.1-0.1,0.3-0.1,0.4,0
			c1.6,0,0.2-1.2,0.6-1.6c1.7-0.7,3.4-0.2,5.1-0.3C530.4,255.9,530.4,256.4,530.4,256.9z"/>
		<path fill="#1D1B55" d="M490.2,261.2c-0.5-0.2-1.1-0.5-1.6-0.7c-1.1-0.5-2.4-0.7-3.1-1.8c0.1-1.3,1.3-0.8,1.7-0.8
			c3.8-0.1,7.7-0.2,11.5-0.1c0.3,0,0.5,0.2,0.6,0.5c0,0.9,0,1.7,0,2.6c-2.5,0.7-5,0.4-7.5,0.4C491.3,261.3,490.7,261.1,490.2,261.2z
			"/>
		<path fill="#201E5A" d="M499.3,258.3c-4.4,0-8.9-0.1-13.3-0.1c-0.1,0-0.3,0.3-0.4,0.5c-0.7,0.3-1-0.2-1.3-0.7
			c-0.2-0.5-0.8-0.7-0.7-1.3c0.1-0.3,0.3-0.5,0.6-0.5c2,0.1,4-0.3,5.9,0.5c0.2,0.5,0.6,0.3,1,0.3c0.6,0.7,0.9-0.1,1.3-0.3
			c1.9-0.8,3.9-0.5,5.9-0.4c0.4,0,0.8,0.3,1,0.7C499.3,257.4,499.3,257.8,499.3,258.3z"/>
		<path fill="#0F113D" d="M511.9,267.4c-0.5,1.2-2,1.1-2.5,0.9c-1.7-0.9-3.4-0.6-5.1-0.3c-1.7,0-2.2-0.8-2.2-2.5
			c0.1-3.2,0-6.4,0-9.6c0-0.4-0.2-0.9,0.2-1.2c0.5,0.5,0.4,1.2,0.4,1.9c0,0.5,0,1.1,0,1.6c0,0.3,0,0.5,0,0.8c0,0.8,0,1.6,0,2.4
			c0,0.4,0,0.8,0,1.2c0,2.8,0,2.8,2.8,2.7c1.5,0,2.9-0.1,4.4,0C510.5,266.1,511.2,266.7,511.9,267.4z"/>
		<path fill="#101241" d="M490.5,268c0.8-0.7,1.3-1.6,1.7-2.6c2.4-0.1,4.8-0.5,7.1,0.3c0,1.8-0.4,2.1-2.6,2.2
			c-1.6-0.5-3.2-0.4-4.7-0.1C491.5,268.1,491,268.3,490.5,268z"/>
		<path fill="#23215D" d="M502.4,256.6c0-0.6,0-1.3-0.1-1.9c1.6-1.7,5.8-0.5,6.5,1.9C506.7,257.2,504.5,257.3,502.4,256.6z"/>
		<path fill="#141448" d="M499.3,265.8c-0.6,0.9-1.1-0.2-1.9-0.1c-1.7,0.3-3.5,0.3-5.3-0.2c0-0.4,0-0.9,0.1-1.3
			c0.2-0.5,0.5-0.8,1.1-0.8c1.7,0.1,3.5,0,5.2,0c0.3,0,0.6,0.1,0.8,0.5C499.3,264.5,499.3,265.1,499.3,265.8z"/>
		<path fill="#22205D" d="M499.3,256.9c-1.6-0.9-3.3-0.4-4.9-0.4c-0.6,0-1.3,0.1-1.9,0.1c1.1-1.8,4.3-3.1,6.2-2.5
			c0.5,0.2,0.8,0.5,0.7,1.1C499.3,255.8,499.3,256.3,499.3,256.9z"/>
		<path fill="#1A174F" d="M490.2,261.2c0-0.2,0-0.5,0.3-0.5c2.9,0.4,5.9,0,8.8,0.1c0,0.4,0,0.9,0,1.3c-0.2,0.4-0.5,0.5-0.9,0.5
			c-2.2-0.1-4.4,0-6.6,0C491.2,262.2,490.7,261.7,490.2,261.2z"/>
		<path fill="#17164C" d="M491.8,262.6c2.2-0.9,4.4-0.3,6.6-0.4c0.3,0,0.6,0.1,0.9-0.1c0,0.5,0,1.1,0,1.6c-2.4,0.1-4.8-0.4-7.1,0.3
			C492.1,263.6,491.9,263.1,491.8,262.6z"/>
		<path fill="#201E5A" d="M502.4,256.6c2.1,0,4.3,0,6.4,0c0.2,0.4,0.7,0.5,0.7,1c-0.1,0.2-0.3,0.4-0.4,0.6c-2.2,0.4-4.5,0.5-6.7,0
			C502.4,257.7,502.4,257.2,502.4,256.6z"/>
		<path fill="#121441" d="M513.1,265.4c3.9,0.6,7.8,0.5,11.7,0C522,269.4,516.1,269.4,513.1,265.4z"/>
		<path fill="#1B1851" d="M502.4,261.6c0-0.9,0-1.7,0-2.6c1.5-0.1,2.9-0.2,4.4-0.2c1,0,1.7,0.3,1.8,1.4c0,0.5,0,1.1,0,1.6
			c-0.1,0.3-0.2,0.6-0.4,0.6c-1.8,0.3-3.5,0.4-5.2-0.1C502.5,262.3,502.5,261.9,502.4,261.6z"/>
		<path fill="#211F5C" d="M524.6,257.2c-0.1,0-0.3,0-0.4,0c-0.8-0.6-1.8-0.2-2.7-0.3c-2.9,0-5.9-0.4-8.8,0.2c0.4-1,1.1-1.7,2-2.2
			c2.7,0.1,5.5,0.2,8.2,0C523.7,255.5,524.3,256.3,524.6,257.2z"/>
		<path fill="#151548" d="M509.8,265.4c-0.1,0.3-0.2,0.5-0.7,0.5c-1.3-0.1-2.7,0-4-0.1c-2.8,0-2.8,0-2.8-2.9
			c2.1,0.9,4.3,0.5,6.4,0.3C509.2,263.9,509.5,264.6,509.8,265.4z"/>
		<path fill="#18174C" d="M508.8,263.2c-0.4,0.3-0.5,0.9-1.4,0.6c-1-0.3-2.1-0.1-3.2,0.1c-0.9,0.1-1.5-0.2-1.9-1c0-0.4,0-0.9,0-1.3
			c0.2,0.2,0.5,0.6,0.7,0.6c1.8-0.1,3.7,0.5,5.4-0.3C508.6,262.3,508.7,262.7,508.8,263.2z"/>
		<path fill="#23225F" d="M522.9,255c-0.3,0.4-0.6,0.5-1.1,0.5c-2.1,0-4.2,0-6.3,0c-0.4,0-0.6-0.1-0.7-0.4c0.6-0.5,1.2-0.9,2-1
			c0.4,0.2,0.7-0.1,0.9-0.3c0.1,0,0.2,0,0.4,0c0.7,0.4,1.3,0.3,2,0C521.1,253.8,522.1,254.2,522.9,255z"/>
		<path fill="#1F1E57" d="M508.5,260.2c-0.5-1-1.4-1-2.3-1c-1.3-0.1-2.6,0.4-3.8-0.3c0-0.2,0-0.5,0-0.7c2.2-0.1,4.5-0.1,6.7,0
			C508.9,258.9,508.7,259.6,508.5,260.2z"/>
		<path fill="#242364" d="M520,253.7c-0.7,0.7-1.3,0.8-2,0C518.7,253.6,519.3,253.6,520,253.7z"/>
		<path fill="#252467" d="M517.7,253.8c-0.2,0.7-0.5,0.7-0.9,0.3C517,253.8,517.3,253.7,517.7,253.8z"/>
		<path fill="#232261" d="M483.9,254.9c1.8-1.9,4.7-1.7,5.7,0.4c-1.8,1.1-3.7,0.4-5.6,0.3C483.7,255.6,483.8,255.2,483.9,254.9z"/>
		<path fill="#211F5D" d="M483.9,254.9c0.1,0.2,0.2,0.5,0.3,0.5c1.8-0.1,3.6,0.3,5.4-0.1c0.6,0.3,0.7,0.8,0.5,1.3
			c-2.2,0.1-4.3-0.4-6.5,0C483.2,256,483.6,255.4,483.9,254.9z"/>
		<path fill="#8792BD" d="M484.3,257.9c0.4,0.2,0.9,0.5,1.3,0.7c1,0.6,2,1.2,3,1.8c0,0.3,0.1,0.6,0,0.8c-0.2,0.3-0.5,0.1-0.6-0.1
			c-0.9-1.2-2.2-1.4-3.6-1.5c0,0,0-0.2-0.1-0.3C484.3,258.8,484,258.4,484.3,257.9z"/>
	</g>
</g>
<text transform="matrix(1 0 0 1 105.4897 296.2956)" font-family="'ArialMT'" font-size="14px">@tomjohnson #stc19 #techcomm</text>
<text transform="matrix(1 0 0 1 73.2688 210.7061)"><tspan x="0" y="0" font-family="'ArialMT'" font-size="16px">blog: </tspan><tspan x="39.1" y="0" fill="#4371B8" font-family="'ArialMT'" font-size="16px">idratherbewriting.com</tspan></text>
<path fill="none" stroke="#5CCCF5" stroke-miterlimit="10" d="M84.3,304.3c-0.9,0-1.9-0.1-2.9-0.3c-0.1,0-0.3-0.1-0.4-0.1
	c-3.8-0.8-6.4-2.9-6.9-4.1c0-0.1,0-0.2,0-0.2c0.1-0.1,0.1-0.1,0.2-0.1c0.7,0.2,2.1,0.5,3.2,0c0.1,0,0.2,0,0.3,0.1
	c0,0.1,0,0.2-0.1,0.3c-1,0.4-2.2,0.3-3,0.1c0.8,1.1,3.2,2.7,6.4,3.4c0.1,0,0.3,0.1,0.4,0.1c2.8,0.5,5.6,0.3,8.3-0.8
	c3.3-1.4,5.8-3.9,6.8-7c0-0.1,0.1-0.1,0.1-0.1l3.1-1.6l-2.6,0c-0.1,0-0.1,0-0.1-0.1s-0.1-0.1-0.1-0.2c0,0,0-0.1,0-0.1
	c0,0,0-0.1,0-0.1c0.2-2.3-1.5-4-3.3-4.3c-1.7-0.3-3.8,0.5-4.7,3.6c0,0.1-0.1,0.1-0.1,0.1c-0.1,0-0.1,0-0.2,0c-3.5-1.8-5-5.6-5.4-7.9
	c-1,1.8-0.7,3.8-0.4,4.7c0,0.1,0,0.2,0,0.2s-0.1,0.1-0.2,0.1c-0.5-0.2-0.9-0.7-1.1-1.1c-0.5,1.9,0,4,0.9,4.9c0.1,0.1,0.1,0.2,0,0.2
	c0,0.1-0.1,0.1-0.2,0.1c-0.8-0.2-1.6-0.8-2-1.5c-0.3,1.7,0.6,4,1.9,4.7c0.1,0,0.1,0.2,0.1,0.3c0,0.1-0.2,0.1-0.3,0.1
	c-1.7-0.8-2.7-3.8-1.9-5.7c0-0.1,0.1-0.1,0.2-0.1c0.1,0,0.2,0.1,0.2,0.2c0.1,0.4,0.6,1,1.3,1.4c-0.8-1.3-1.1-3.3-0.4-5.2
	c0-0.1,0.1-0.1,0.2-0.1c0.1,0,0.2,0.1,0.2,0.1c0.1,0.2,0.3,0.7,0.6,1c-0.3-1.2-0.4-3.2,0.8-4.9c0-0.1,0.1-0.1,0.2-0.1
	c0.1,0,0.1,0.1,0.2,0.2c0.3,2.1,1.6,6.1,5.1,8c1-3.2,3.3-4,5.1-3.7c1.9,0.4,3.9,2.1,3.7,4.7h3.2c0.1,0,0.2,0.1,0.2,0.2
	c0,0.1,0,0.2-0.1,0.2l-3.8,2c-1,3.2-3.6,5.8-7,7.2C88.1,303.9,86.2,304.3,84.3,304.3L84.3,304.3z"/>
<path fill="#5CCCF5" d="M93.4,301.1c-0.1,0-0.1,0-0.1-0.1l-2.1-2.2c-0.1-0.1-0.1-0.2,0-0.3c0.1-0.1,0.2-0.1,0.3,0l2.1,2.2
	c0.1,0.1,0.1,0.2,0,0.3C93.5,301,93.5,301.1,93.4,301.1z"/>
<path fill="#5CCCF5" d="M92.2,302c-0.1,0-0.1,0-0.1-0.1l-2.3-2.3c-0.1-0.1-0.1-0.2,0-0.3c0.1-0.1,0.2-0.1,0.3,0l2.3,2.3
	c0.1,0.1,0.1,0.2,0,0.3C92.3,301.9,92.2,302,92.2,302L92.2,302z"/>
<path fill="#5CCCF5" d="M90.8,302.7c-0.1,0-0.1,0-0.1-0.1l-2.3-2.4c-0.1-0.1-0.1-0.2,0-0.3c0.1-0.1,0.2-0.1,0.3,0l2.3,2.4
	c0.1,0.1,0.1,0.2,0,0.3C90.9,302.7,90.9,302.7,90.8,302.7z"/>
<path fill="#5CCCF5" d="M89.4,303.4c-0.1,0-0.1,0-0.1-0.1L87,301c-0.1-0.1-0.1-0.2,0-0.3c0.1-0.1,0.2-0.1,0.3,0l2.3,2.3
	c0.1,0.1,0.1,0.2,0,0.3C89.5,303.3,89.4,303.4,89.4,303.4L89.4,303.4z"/>
<path fill="#5CCCF5" d="M87.7,303.9c-0.1,0-0.1,0-0.1-0.1l-2-2.1c-0.1-0.1-0.1-0.2,0-0.3s0.2-0.1,0.3,0l2,2.1c0.1,0.1,0.1,0.2,0,0.3
	C87.8,303.8,87.8,303.9,87.7,303.9L87.7,303.9z"/>
<path fill="#5CCCF5" d="M86,304.2c-0.1,0-0.1,0-0.1-0.1l-1.6-1.7c-0.1-0.1-0.1-0.2,0-0.3c0.1-0.1,0.2-0.1,0.3,0l1.6,1.7
	c0.1,0.1,0.1,0.2,0,0.3C86.1,304.2,86,304.2,86,304.2L86,304.2z"/>
<path fill="#5CCCF5" d="M83.9,304.3c-0.1,0-0.1,0-0.1-0.1l-1-1c-0.1-0.1-0.1-0.2,0-0.3c0.1-0.1,0.2-0.1,0.3,0l1,1
	c0.1,0.1,0.1,0.2,0,0.3C84,304.2,84,304.3,83.9,304.3z"/>
</svg>
