<?xml version="1.0" encoding="utf-8"?>
<!-- Generator: Adobe Illustrator 23.0.3, SVG Export Plug-In . SVG Version: 6.00 Build 0)  -->
<svg version="1.1" id="Layer_1" xmlns="http://www.w3.org/2000/svg" xmlns:xlink="http://www.w3.org/1999/xlink" x="0px" y="0px"
	 viewBox="0 0 600 350" enable-background="new 0 0 600 350" xml:space="preserve">
<path opacity="0.41" fill="#67308F" enable-background="new    " d="M523.7,135.8H76.3c-6.6,0-12-5.4-12-12V57.3c0-6.6,5.4-12,12-12
	h447.4c6.6,0,12,5.4,12,12v66.5C535.7,130.4,530.3,135.8,523.7,135.8z"/>
<g>
	<rect x="77.9" y="55.9" fill="none" width="450.6" height="93.4"/>
	<text transform="matrix(1 0 0 1 77.9493 67.053)" fill="#010101" font-family="'ArialMT'" font-size="13px">There’s a disconnect between what companies say they want and what they </text>
	<text transform="matrix(1 0 0 1 77.9493 82.6526)" fill="#010101" font-family="'ArialMT'" font-size="13px">actually need. They say they want technical technical writers, but what they </text>
	<text transform="matrix(1 0 0 1 77.9493 98.2527)" fill="#010101" font-family="'ArialMT'" font-size="13px">really want is to improve the customer  experience. The “technical technical” </text>
	<text transform="matrix(1 0 0 1 77.9493 113.8528)" fill="#010101" font-family="'ArialMT'" font-size="13px">writer isn’t necessarily going to do that. -- Paul Gustovson, Expert Support</text>
</g>
<path fill="#010101" d="M229.5,192.7l0.7-0.5l-1.6-1.5c-0.3,0.2-0.6,0.5-0.9,0.7l-1.3,3c0.1,0.1,0.2,0.1,0.3,0.2L229.5,192.7z"/>
<path fill="#010101" d="M226.7,194.3L226.7,194.3l2.7-1.8l0.5-0.3l-1.3-1.2c-0.2,0.2-0.5,0.4-0.7,0.5L226.7,194.3z M226.7,194.9
	l-0.1-0.1c-0.1-0.1-0.2-0.1-0.2-0.2l-0.2-0.1l1.4-3.2h0.1c0.3-0.2,0.6-0.4,0.9-0.6l0.2-0.1l2,1.8L226.7,194.9z"/>
<path fill="#010101" d="M225.3,198.2c-0.2,0-0.4,0-0.6-0.1l-0.6,7c0.4,0,0.8,0,1.2,0s0.8,0,1.2,0l-0.6-7
	C225.6,198.2,225.4,198.2,225.3,198.2L225.3,198.2z"/>
<path fill="#010101" d="M224.3,204.9c0.7,0,1.2,0,1.9,0l-0.6-6.5c-0.2,0-0.4,0-0.7,0L224.3,204.9z M225.2,205.4c-0.4,0-0.7,0-1.2,0
	h-0.2l0.7-7.5l0.3,0.1c0.4,0.1,0.6,0.1,1,0l0.3-0.1l0.7,7.5h-0.2C226,205.4,225.6,205.4,225.2,205.4L225.2,205.4z"/>
<path fill="#010101" d="M244.1,199.1c-0.9,1.3-1.9,2.6-3,3.8c-1.2,1.2-2.4,2.2-3.8,3l2.8,2.8l6.8-6.8L244.1,199.1z"/>
<path fill="#010101" d="M237.7,205.9l2.4,2.4l6.5-6.5l-2.4-2.4c-0.8,1.3-1.8,2.5-2.9,3.6C240.2,204.1,239,205.1,237.7,205.9z
	 M240.1,209l-3.1-3.1l0.2-0.2c1.4-0.9,2.6-1.9,3.7-3c1.1-1.1,2.1-2.4,3-3.7l0.2-0.2l3.1,3.1L240.1,209z"/>
<path fill="#010101" d="M258.1,219.9c-0.5,0.5-1.3,0.8-2,0.8c-0.7,0-1.4-0.3-2-0.8c-1.1-1.1-1.1-2.9,0-4s2.9-1.1,4,0
	S259.2,218.8,258.1,219.9L258.1,219.9z M259.6,215c-0.1-0.1-0.2-0.2-0.3-0.3l-13-11l-4.4,4.4l11,13c0.8,1,2,1.5,3.3,1.6
	c1.3,0,2.5-0.4,3.4-1.3C261.3,219.6,261.3,216.7,259.6,215L259.6,215z"/>
<path fill="#010101" d="M256.1,215.3c-0.7,0-1.3,0.3-1.8,0.8c-1,1-1,2.6,0,3.7c0.5,0.5,1.1,0.8,1.8,0.8c0.7,0,1.3-0.3,1.8-0.8
	c1-1,1-2.6,0-3.7C257.5,215.6,256.8,215.3,256.1,215.3z M256.1,221c-0.8,0-1.6-0.3-2.1-0.9c-0.6-0.6-0.9-1.3-0.9-2.1
	s0.3-1.6,0.9-2.1c1.2-1.2,3.1-1.2,4.3,0c1.2,1.2,1.2,3.1,0,4.3C257.7,220.6,257,221,256.1,221z M242.2,208.1l10.9,12.9
	c0.8,0.9,1.9,1.5,3.1,1.5c1.2,0.1,2.4-0.4,3.2-1.3c0.8-0.8,1.3-1.9,1.3-3s-0.4-2.2-1.3-3c-0.1-0.1-0.2-0.2-0.3-0.2l-12.9-10.9
	L242.2,208.1z M256.4,222.9c-0.1,0-0.1,0-0.2,0c-1.3-0.1-2.6-0.6-3.4-1.7L241.7,208l4.7-4.7l13.2,11.1c0.1,0.1,0.2,0.2,0.3,0.3l0,0
	c0.9,0.9,1.4,2.1,1.4,3.4c0,1.3-0.5,2.5-1.4,3.4C258.8,222.4,257.7,222.9,256.4,222.9L256.4,222.9z"/>
<path fill="#010101" d="M237.7,201.4L237.7,201.4c-1.2,1-2.4,1.9-3.8,2.6l0,0c-2.2,1.1-4.5,1.8-7,2l0,0l0,0l0,0
	c-0.5,0-1.1,0.1-1.7,0.1c-3.1,0-6-0.7-8.7-2.1l0,0c-1.3-0.7-2.6-1.5-3.7-2.5c0,0,0,0-0.1-0.1c-0.3-0.3-0.7-0.6-1-0.9
	c-7.4-7.4-7.4-19.5,0-27c3.6-3.6,8.4-5.6,13.5-5.6s9.9,2,13.5,5.6c7.4,7.4,7.4,19.5,0,27C238.4,200.8,238.1,201.1,237.7,201.4
	L237.7,201.4z M240.4,171.8c-4.1-4.1-9.5-6.3-15.2-6.3s-11.1,2.2-15.2,6.3c-8.4,8.4-8.4,22,0,30.4c4.2,4.2,9.7,6.3,15.2,6.3
	s11-2.1,15.2-6.3C248.8,193.8,248.8,180.2,240.4,171.8L240.4,171.8z"/>
<path fill="#010101" d="M225.2,168.2c-5,0-9.8,2-13.3,5.5c-7.3,7.3-7.3,19.3,0,26.6c0.3,0.3,0.6,0.6,1,0.9l0,0
	c1.1,1,2.4,1.8,3.7,2.5l0,0c2.7,1.4,5.6,2.1,8.6,2.1c0.5,0,1.1,0,1.6-0.1l0,0l0,0c2.5-0.2,4.8-0.9,6.9-2l0,0
	c1.3-0.7,2.5-1.5,3.7-2.5l0,0c0.4-0.3,0.7-0.6,1-0.9c3.6-3.6,5.5-8.3,5.5-13.3s-2-9.8-5.5-13.3C235,170.1,230.3,168.2,225.2,168.2
	L225.2,168.2z M225.2,206.3c-3.1,0-6.1-0.7-8.8-2.1l0,0c-1.3-0.7-2.6-1.5-3.8-2.5c0,0-0.1,0-0.1-0.1c-0.4-0.3-0.7-0.6-1-0.9
	c-7.5-7.5-7.5-19.8,0-27.3c3.6-3.6,8.5-5.6,13.6-5.6c5.2,0,10,2,13.6,5.6s5.6,8.5,5.6,13.6c0,5.2-2,10-5.6,13.6
	c-0.3,0.3-0.6,0.6-1,0.9c0,0,0,0-0.1,0c-1.2,1-2.4,1.9-3.8,2.6h-0.1c-2.2,1.1-4.5,1.8-7,2l0,0c0,0,0,0-0.1,0l0,0
	C226.3,206.3,225.8,206.3,225.2,206.3L225.2,206.3z M225.2,165.7c-5.7,0-11,2.2-15,6.2c-8.3,8.3-8.3,21.8,0,30.1c4,4,9.4,6.2,15,6.2
	l0,0c5.7,0,11-2.2,15-6.2s6.2-9.4,6.2-15s-2.2-11-6.2-15C236.3,167.9,230.9,165.7,225.2,165.7L225.2,165.7z M225.2,208.7
	L225.2,208.7c-5.8,0-11.3-2.3-15.4-6.4c-8.5-8.5-8.5-22.3,0-30.7c4.1-4.1,9.6-6.4,15.4-6.4c5.8,0,11.3,2.3,15.4,6.4
	c4.1,4.1,6.4,9.6,6.4,15.4c0,5.8-2.3,11.3-6.4,15.4C236.5,206.5,231,208.7,225.2,208.7L225.2,208.7z"/>
<path fill="#010101" d="M223.3,195.4l-3.7-2.5l-0.2-0.1l-2.1,0.6c-2.2,0.6-3.7,2.6-3.7,4.8v2.7c0.9,0.7,1.8,1.4,2.7,1.9V198
	c0-0.3,0.2-0.5,0.5-0.5s0.5,0.2,0.5,0.5v5.3c1.9,0.9,3.9,1.5,6,1.8l0.7-7.4c-0.4-0.4-0.7-0.9-0.7-1.5
	C223.1,195.8,223.2,195.6,223.3,195.4L223.3,195.4z"/>
<path fill="#010101" d="M217.4,203.1c1.7,0.9,3.6,1.4,5.6,1.7l0.6-7c-0.4-0.4-0.7-1-0.7-1.6c0-0.2,0-0.4,0.1-0.7l-3.7-2.4l-2.1,0.5
	c-2.1,0.6-3.6,2.4-3.6,4.6v2.6c0.7,0.6,1.5,1.1,2.3,1.6V198c0-0.4,0.3-0.7,0.7-0.7s0.7,0.3,0.7,0.7L217.4,203.1z M223.3,205.3h-0.2
	c-2.1-0.2-4.2-0.8-6.1-1.8l-0.1-0.1v-5.5c0-0.1-0.1-0.2-0.2-0.2s-0.2,0.1-0.2,0.2v5.2l-0.3-0.2c-1-0.6-1.9-1.2-2.8-1.9l-0.1-0.1
	v-2.8c0-2.4,1.6-4.4,3.9-5l2.2-0.6l4.1,2.7l-0.1,0.2c-0.1,0.2-0.1,0.4-0.1,0.7c0,0.5,0.2,1,0.6,1.4l0.1,0.1L223.3,205.3z"/>
<path fill="#010101" d="M221.8,190.7l-1.6,1.5l0.6,0.4l3,2c0.1-0.1,0.2-0.1,0.3-0.2l-1.3-3C222.4,191.2,222.1,191,221.8,190.7
	L221.8,190.7z"/>
<path fill="#010101" d="M220.6,192.2l3.2,2.1l0,0l-1.2-2.7c-0.3-0.2-0.5-0.3-0.8-0.5L220.6,192.2z M223.8,194.9l-4-2.6l2-1.8
	l0.2,0.1c0.3,0.3,0.6,0.5,0.9,0.6h0.1l1.4,3.2l-0.1,0.1c-0.1,0.1-0.2,0.1-0.2,0.2L223.8,194.9z"/>
<path fill="#010101" d="M226.6,179L226.6,179c0.8,1.4,2.3,2.7,4.8,3.7c-0.1-3.2-2.5-5.7-5.6-6C225.9,177.4,226.1,178.2,226.6,179
	L226.6,179L226.6,179z"/>
<path fill="#010101" d="M226.8,179c0.9,1.5,2.3,2.6,4.3,3.4c-0.2-2.8-2.3-5-5.1-5.4c0.1,0.7,0.4,1.3,0.7,1.9L226.8,179z M231.6,183
	l-0.3-0.1c-2.3-0.8-3.9-2.1-4.9-3.7l0,0c-0.4-0.8-0.7-1.6-0.9-2.4v-0.3h0.3c3.2,0.3,5.7,3,5.8,6.2L231.6,183z"/>
<path fill="#010101" d="M224.9,176.6c-2.7,0.2-4.9,2-5.6,4.5c1.4-0.2,3.8-0.6,6.3-2.1C225.2,178.2,225,177.4,224.9,176.6
	L224.9,176.6z"/>
<path fill="#010101" d="M224.7,176.9c-2.3,0.2-4.3,1.8-5.1,4c1.4-0.2,3.5-0.7,5.7-1.9C225,178.3,224.8,177.6,224.7,176.9z
	 M219,181.4l0.1-0.3c0.7-2.6,3.1-4.5,5.8-4.7h0.2v0.2c0.1,0.8,0.4,1.6,0.7,2.4l0.1,0.2l-0.2,0.1c-2.6,1.4-4.9,1.9-6.4,2.1H219z"/>
<path fill="#010101" d="M225.2,191.2c3.1,0,5.7-4.3,6.1-7.6c-2.7-0.9-4.3-2.3-5.3-3.7c-2.9,1.6-5.4,2.1-6.9,2.2c0,0.2,0,0.5,0,0.7
	C219.1,186.1,221.8,191.2,225.2,191.2L225.2,191.2z"/>
<path fill="#010101" d="M219.3,182.3c0,0.2,0,0.4,0,0.5c0,3.2,2.7,8.2,5.9,8.2c3,0,5.4-4.2,5.9-7.2c-2.3-0.8-4-2-5.1-3.6
	C223.3,181.6,220.9,182.1,219.3,182.3L219.3,182.3z M225.2,191.4c-3.5,0-6.4-5.2-6.4-8.6c0-0.2,0-0.5,0-0.8v-0.2h0.2
	c1.6-0.1,4.1-0.6,6.9-2.2l0.2-0.1l0.1,0.2c1.1,1.6,2.8,2.8,5.2,3.7l0.2,0.1v0.2C231.2,186.9,228.6,191.4,225.2,191.4L225.2,191.4z"
	/>
<path fill="#010101" d="M233.2,193.3l-2.2-0.6l-1.4,1l-2.4,1.6c0.1,0.2,0.2,0.5,0.2,0.8c0,0.6-0.3,1.2-0.8,1.6l0.7,7.3
	c2.1-0.2,4.1-0.8,6-1.8v-5.3c0-0.3,0.2-0.5,0.5-0.5s0.5,0.2,0.5,0.5v4.8c1-0.5,1.9-1.2,2.7-1.9v-2.7
	C236.9,195.9,235.4,193.9,233.2,193.3L233.2,193.3z"/>
<path fill="#010101" d="M226.9,197.8l0.6,7c1.9-0.2,3.8-0.8,5.6-1.7v-5.2c0-0.4,0.3-0.7,0.7-0.7s0.7,0.3,0.7,0.7v4.4
	c0.8-0.5,1.6-1,2.3-1.6v-2.6c0-2.2-1.5-4.1-3.6-4.6l-2.1-0.5l-3.6,2.4c0.1,0.2,0.1,0.5,0.1,0.7C227.6,196.8,227.3,197.4,226.9,197.8
	L226.9,197.8z M227.1,205.3l-0.7-7.7l0.1-0.1c0.4-0.4,0.7-0.9,0.7-1.4c0-0.2,0-0.5-0.1-0.7l-0.1-0.2l4.1-2.7l2.3,0.6
	c2.3,0.6,3.9,2.7,3.9,5v2.8l-0.1,0.1c-0.9,0.7-1.8,1.4-2.8,1.9l-0.3,0.2v-5.2c0-0.1-0.1-0.2-0.2-0.2s-0.2,0.1-0.2,0.2v5.5l-0.1,0.1
	c-1.9,1-4,1.6-6.1,1.8L227.1,205.3z"/>
<path fill="#010101" d="M224,191.9l0.9,2.1c0.1,0,0.3,0,0.4,0c0.1,0,0.2,0,0.3,0l0.9-2.1c-0.4,0.1-0.8,0.2-1.3,0.2
	C224.8,192.1,224.4,192,224,191.9L224,191.9z"/>
<path fill="#010101" d="M224.4,192.2l0.7,1.5c0.2,0,0.3,0,0.5,0l0.7-1.6C225.5,192.3,225,192.3,224.4,192.2L224.4,192.2z
	 M224.7,194.3l-1.1-2.7l0.5,0.1c0.8,0.2,1.6,0.2,2.4,0l0.5-0.1l-1.2,2.7h-0.2c-0.2,0-0.4,0-0.7,0H224.7z"/>
<path fill="#010101" d="M225.3,194.9c-0.4,0-0.8,0.2-1,0.5l0,0l0,0l0,0c-0.1,0.2-0.2,0.4-0.2,0.6c0,0.7,0.5,1.2,1.2,1.2
	s1.2-0.5,1.2-1.2C226.5,195.4,225.9,194.9,225.3,194.9L225.3,194.9z"/>
<path fill="#010101" d="M224.4,195.6c-0.1,0.2-0.1,0.3-0.1,0.5c0,0.5,0.4,1,1,1s1-0.4,1-1s-0.4-1-1-1
	C224.9,195.1,224.6,195.3,224.4,195.6L224.4,195.6z M225.3,197.6c-0.8,0-1.4-0.6-1.4-1.4c0-0.3,0.1-0.5,0.2-0.8l0,0l0,0
	c0.3-0.4,0.7-0.6,1.2-0.6c0.8,0,1.4,0.6,1.4,1.4C226.7,196.9,226.1,197.6,225.3,197.6L225.3,197.6z"/>
<path fill="#010101" d="M126,195.8c-2.1,0-3.8-1.7-3.8-3.8s1.7-3.8,3.8-3.8c2.1,0,3.8,1.7,3.8,3.8C129.7,194.1,128,195.8,126,195.8z
	 M126,184.4c5.7,0,10.3,4.6,10.3,10.3c0,3-1.3,5.7-3.3,7.5c-0.3-3-2.4-5.4-5.2-6.2c1.5-0.7,2.6-2.2,2.6-4c0-2.4-2-4.4-4.4-4.4
	c-2.4,0-4.4,2-4.4,4.4c0,1.8,1.1,3.3,2.6,4c-2.8,0.7-4.9,3.2-5.2,6.2c-2-1.9-3.3-4.6-3.3-7.5C115.7,189,120.3,184.4,126,184.4
	L126,184.4z M130.9,203.7C130.8,203.7,130.8,203.7,130.9,203.7c-0.2,0.1-0.3,0.2-0.4,0.2c-0.1,0-0.1,0.1-0.2,0.1
	c-0.1,0-0.1,0.1-0.2,0.1c-0.1,0-0.2,0.1-0.3,0.1h-0.1c-0.1,0-0.2,0.1-0.3,0.1l0,0c-0.5,0.2-1,0.3-1.6,0.4h-0.1c-0.1,0-0.2,0-0.3,0
	c-0.1,0-0.1,0-0.2,0s-0.2,0-0.3,0c-0.1,0-0.2,0-0.3,0c-0.1,0-0.1,0-0.2,0c-0.2,0-0.3,0-0.5,0l0,0c-0.2,0-0.3,0-0.5,0
	c-0.1,0-0.1,0-0.2,0s-0.2,0-0.3,0c-0.1,0-0.2,0-0.3,0c-0.1,0-0.1,0-0.2,0s-0.2,0-0.3,0H124c-0.5-0.1-1.1-0.2-1.6-0.4l0,0
	c-0.1,0-0.2-0.1-0.3-0.1H122c-0.1,0-0.2-0.1-0.3-0.1c-0.1,0-0.1-0.1-0.2-0.1s-0.1-0.1-0.2-0.1c-0.1-0.1-0.2-0.1-0.3-0.2h-0.1
	c-0.5-0.3-1-0.6-1.5-1c0.1-3.5,2.9-6.3,6.4-6.3c3.5,0,6.3,2.8,6.4,6.3C131.9,203.1,131.4,203.4,130.9,203.7L130.9,203.7z
	 M119.1,203.1L119.1,203.1c0.4,0.3,0.8,0.6,1.2,0.9l0,0c0.1,0.1,0.3,0.2,0.4,0.2c0,0,0.1,0,0.1,0.1c0.1,0,0.2,0.1,0.3,0.1
	c0.1,0,0.1,0.1,0.2,0.1s0.1,0.1,0.2,0.1s0.2,0.1,0.3,0.1h0.1c0.7,0.3,1.4,0.5,2.1,0.6h0.1c0.1,0,0.2,0,0.3,0c0.1,0,0.1,0,0.2,0
	s0.2,0,0.3,0c0.1,0,0.2,0,0.3,0c0.1,0,0.1,0,0.2,0c0.2,0,0.3,0,0.5,0s0.3,0,0.5,0c0.1,0,0.1,0,0.2,0s0.2,0,0.3,0c0.1,0,0.2,0,0.3,0
	c0.1,0,0.1,0,0.2,0s0.2,0,0.3,0h0.1c0.7-0.1,1.4-0.3,2.1-0.6h0.1c0.1,0,0.2-0.1,0.3-0.1c0.1,0,0.1-0.1,0.2-0.1
	c0.1,0,0.1-0.1,0.2-0.1c0.1,0,0.2-0.1,0.3-0.1c0,0,0.1,0,0.1-0.1c0.1-0.1,0.3-0.1,0.4-0.2l0,0c0.4-0.3,0.8-0.5,1.2-0.9l0,0
	c2.4-2,4-5,4-8.4c0-6-4.9-10.9-10.9-10.9c-6,0-10.9,4.9-10.9,10.9C115.1,198.1,116.6,201.1,119.1,203.1L119.1,203.1z"/>
<path fill="#010101" d="M151.9,195.8c-2.1,0-3.8-1.7-3.8-3.8s1.7-3.8,3.8-3.8s3.8,1.7,3.8,3.8S154,195.8,151.9,195.8z M151.9,184.4
	c5.7,0,10.3,4.6,10.3,10.3c0,3-1.3,5.7-3.3,7.5c-0.3-3-2.4-5.4-5.2-6.2c1.5-0.7,2.6-2.2,2.6-4c0-2.4-2-4.4-4.4-4.4s-4.4,2-4.4,4.4
	c0,1.8,1.1,3.3,2.6,4c-2.8,0.7-4.9,3.2-5.2,6.2c-2-1.9-3.3-4.6-3.3-7.5C141.7,189,146.3,184.4,151.9,184.4L151.9,184.4z
	 M156.8,203.7L156.8,203.7c-0.2,0.1-0.3,0.2-0.4,0.2c-0.1,0-0.1,0.1-0.2,0.1c-0.1,0-0.1,0.1-0.2,0.1c-0.1,0-0.2,0.1-0.3,0.1h-0.1
	c-0.1,0-0.2,0.1-0.3,0.1l0,0c-0.5,0.2-1,0.3-1.6,0.4h-0.1c-0.1,0-0.2,0-0.3,0s-0.1,0-0.2,0c-0.1,0-0.2,0-0.3,0s-0.2,0-0.3,0
	s-0.1,0-0.2,0c-0.2,0-0.3,0-0.5,0l0,0c-0.2,0-0.3,0-0.5,0c-0.1,0-0.1,0-0.2,0c-0.1,0-0.2,0-0.3,0s-0.2,0-0.3,0s-0.1,0-0.2,0
	c-0.1,0-0.2,0-0.3,0h-0.1c-0.5-0.1-1.1-0.2-1.6-0.4l0,0c-0.1,0-0.2-0.1-0.3-0.1h-0.1c-0.1,0-0.2-0.1-0.3-0.1s-0.1-0.1-0.2-0.1
	c-0.1,0-0.1-0.1-0.2-0.1c-0.1-0.1-0.2-0.1-0.3-0.2h-0.1c-0.5-0.3-1-0.6-1.5-1c0.1-3.5,2.9-6.3,6.4-6.3s6.3,2.8,6.4,6.3
	C157.9,203.1,157.4,203.4,156.8,203.7L156.8,203.7z M145.1,203.1L145.1,203.1c0.4,0.3,0.8,0.6,1.2,0.9l0,0c0.1,0.1,0.3,0.2,0.4,0.2
	c0,0,0.1,0,0.1,0.1c0.1,0,0.2,0.1,0.3,0.1s0.1,0.1,0.2,0.1c0.1,0,0.1,0.1,0.2,0.1c0.1,0,0.2,0.1,0.3,0.1h0.1
	c0.7,0.3,1.4,0.5,2.1,0.6h0.1c0.1,0,0.2,0,0.3,0s0.1,0,0.2,0c0.1,0,0.2,0,0.3,0s0.2,0,0.3,0s0.1,0,0.2,0c0.2,0,0.3,0,0.5,0
	s0.3,0,0.5,0c0.1,0,0.1,0,0.2,0c0.1,0,0.2,0,0.3,0s0.2,0,0.3,0s0.1,0,0.2,0c0.1,0,0.2,0,0.3,0h0.1c0.7-0.1,1.4-0.3,2.1-0.6h0.1
	c0.1,0,0.2-0.1,0.3-0.1s0.1-0.1,0.2-0.1c0.1,0,0.1-0.1,0.2-0.1c0.1,0,0.2-0.1,0.3-0.1c0,0,0.1,0,0.1-0.1c0.1-0.1,0.3-0.1,0.4-0.2
	l0,0c0.4-0.3,0.8-0.5,1.2-0.9l0,0c2.4-2,4-5,4-8.4c0-6-4.9-10.9-10.9-10.9s-10.9,4.9-10.9,10.9C141.1,198.1,142.6,201.1,145.1,203.1
	L145.1,203.1z"/>
<path fill="#010101" d="M177.1,195.8c-2.1,0-3.8-1.7-3.8-3.8s1.7-3.8,3.8-3.8s3.8,1.7,3.8,3.8C180.8,194.1,179.1,195.8,177.1,195.8z
	 M177.1,184.4c5.7,0,10.3,4.6,10.3,10.3c0,3-1.3,5.7-3.3,7.5c-0.3-3-2.4-5.4-5.2-6.2c1.5-0.7,2.6-2.2,2.6-4c0-2.4-2-4.4-4.4-4.4
	s-4.4,2-4.4,4.4c0,1.8,1.1,3.3,2.6,4c-2.8,0.7-4.9,3.2-5.2,6.2c-2-1.9-3.3-4.6-3.3-7.5C166.8,189,171.4,184.4,177.1,184.4
	L177.1,184.4z M182,203.7C181.9,203.7,181.9,203.7,182,203.7c-0.2,0.1-0.3,0.2-0.4,0.2c-0.1,0-0.1,0.1-0.2,0.1
	c-0.1,0-0.1,0.1-0.2,0.1c-0.1,0-0.2,0.1-0.3,0.1h-0.1c-0.1,0-0.2,0.1-0.3,0.1l0,0c-0.5,0.2-1,0.3-1.6,0.4h-0.1c-0.1,0-0.2,0-0.3,0
	s-0.1,0-0.2,0c-0.1,0-0.2,0-0.3,0s-0.2,0-0.3,0s-0.1,0-0.2,0c-0.2,0-0.3,0-0.5,0l0,0c-0.2,0-0.3,0-0.5,0c-0.1,0-0.1,0-0.2,0
	c-0.1,0-0.2,0-0.3,0s-0.2,0-0.3,0s-0.1,0-0.2,0c-0.1,0-0.2,0-0.3,0h-0.1c-0.5-0.1-1.1-0.2-1.6-0.4l0,0c-0.1,0-0.2-0.1-0.3-0.1h-0.1
	c-0.1,0-0.2-0.1-0.3-0.1s-0.1-0.1-0.2-0.1c-0.1,0-0.1-0.1-0.2-0.1c-0.1-0.1-0.2-0.1-0.3-0.2H172c-0.5-0.3-1-0.6-1.5-1
	c0.1-3.5,2.9-6.3,6.4-6.3s6.3,2.8,6.4,6.3C183,203.1,182.5,203.4,182,203.7L182,203.7z M170.2,203.1L170.2,203.1
	c0.4,0.3,0.8,0.6,1.2,0.9l0,0c0.1,0.1,0.3,0.2,0.4,0.2c0,0,0.1,0,0.1,0.1c0.1,0,0.2,0.1,0.3,0.1s0.1,0.1,0.2,0.1
	c0.1,0,0.1,0.1,0.2,0.1c0.1,0,0.2,0.1,0.3,0.1h0.1c0.7,0.3,1.4,0.5,2.1,0.6h0.1c0.1,0,0.2,0,0.3,0s0.1,0,0.2,0c0.1,0,0.2,0,0.3,0
	s0.2,0,0.3,0s0.1,0,0.2,0c0.2,0,0.3,0,0.5,0s0.3,0,0.5,0c0.1,0,0.1,0,0.2,0c0.1,0,0.2,0,0.3,0s0.2,0,0.3,0s0.1,0,0.2,0
	c0.1,0,0.2,0,0.3,0h0.1c0.7-0.1,1.4-0.3,2.1-0.6h0.1c0.1,0,0.2-0.1,0.3-0.1s0.1-0.1,0.2-0.1c0.1,0,0.1-0.1,0.2-0.1
	c0.1,0,0.2-0.1,0.3-0.1c0,0,0.1,0,0.1-0.1c0.1-0.1,0.3-0.1,0.4-0.2l0,0c0.4-0.3,0.8-0.5,1.2-0.9l0,0c2.4-2,4-5,4-8.4
	c0-6-4.9-10.9-10.9-10.9s-10.9,4.9-10.9,10.9C166.2,198.1,167.7,201.1,170.2,203.1L170.2,203.1z"/>
<path fill="#010101" d="M126.4,222.8c-2.1,0-3.8-1.7-3.8-3.8c0-2.1,1.7-3.8,3.8-3.8c2.1,0,3.8,1.7,3.8,3.8
	C130.1,221.1,128.5,222.8,126.4,222.8z M126.4,211.4c5.7,0,10.3,4.6,10.3,10.3c0,3-1.3,5.7-3.3,7.5c-0.3-3-2.4-5.4-5.2-6.2
	c1.5-0.7,2.6-2.2,2.6-4c0-2.4-2-4.4-4.4-4.4c-2.4,0-4.4,2-4.4,4.4c0,1.8,1.1,3.3,2.6,4c-2.8,0.7-4.9,3.2-5.2,6.2
	c-2-1.9-3.3-4.6-3.3-7.5C116.1,216,120.7,211.4,126.4,211.4L126.4,211.4z M131.3,230.7C131.3,230.7,131.2,230.7,131.3,230.7
	c-0.2,0.1-0.3,0.2-0.4,0.2c-0.1,0-0.1,0.1-0.2,0.1c-0.1,0-0.1,0.1-0.2,0.1c-0.1,0-0.2,0.1-0.3,0.1h-0.1c-0.1,0-0.2,0.1-0.3,0.1l0,0
	c-0.5,0.2-1,0.3-1.6,0.4h-0.1c-0.1,0-0.2,0-0.3,0c-0.1,0-0.1,0-0.2,0s-0.2,0-0.3,0c-0.1,0-0.2,0-0.3,0c-0.1,0-0.1,0-0.2,0
	c-0.2,0-0.3,0-0.5,0l0,0c-0.2,0-0.3,0-0.5,0c-0.1,0-0.1,0-0.2,0s-0.2,0-0.3,0c-0.1,0-0.2,0-0.3,0c-0.1,0-0.1,0-0.2,0s-0.2,0-0.3,0
	h-0.1c-0.5-0.1-1.1-0.2-1.6-0.4l0,0c-0.1,0-0.2-0.1-0.3-0.1h-0.1c-0.1,0-0.2-0.1-0.3-0.1c-0.1,0-0.1-0.1-0.2-0.1s-0.1-0.1-0.2-0.1
	c-0.1-0.1-0.2-0.1-0.3-0.2h-0.1c-0.5-0.3-1-0.6-1.5-1c0.1-3.5,2.9-6.3,6.4-6.3s6.3,2.8,6.4,6.3C132.3,230.1,131.8,230.4,131.3,230.7
	L131.3,230.7z M119.5,230.1L119.5,230.1c0.4,0.3,0.8,0.6,1.2,0.9l0,0c0.1,0.1,0.3,0.2,0.4,0.2c0,0,0.1,0,0.1,0.1
	c0.1,0,0.2,0.1,0.3,0.1c0.1,0,0.1,0.1,0.2,0.1s0.1,0.1,0.2,0.1s0.2,0.1,0.3,0.1h0.1c0.7,0.3,1.4,0.5,2.1,0.6h0.1c0.1,0,0.2,0,0.3,0
	c0.1,0,0.1,0,0.2,0s0.2,0,0.3,0c0.1,0,0.2,0,0.3,0c0.1,0,0.1,0,0.2,0c0.2,0,0.3,0,0.5,0s0.3,0,0.5,0c0.1,0,0.1,0,0.2,0s0.2,0,0.3,0
	c0.1,0,0.2,0,0.3,0c0.1,0,0.1,0,0.2,0s0.2,0,0.3,0h0.1c0.7-0.1,1.4-0.3,2.1-0.6h0.1c0.1,0,0.2-0.1,0.3-0.1s0.1-0.1,0.2-0.1
	c0.1,0,0.1-0.1,0.2-0.1c0.1,0,0.2-0.1,0.3-0.1c0,0,0.1,0,0.1-0.1c0.1-0.1,0.3-0.1,0.4-0.2l0,0c0.4-0.3,0.8-0.5,1.2-0.9l0,0
	c2.4-2,4-5,4-8.4c0-6-4.9-10.9-10.9-10.9c-6,0-10.9,4.9-10.9,10.9C115.5,225,117.1,228.1,119.5,230.1L119.5,230.1z"/>
<path fill="#010101" d="M154.1,224.5l-2.5,2.5l-0.8-0.8c-0.1-0.1-0.3-0.1-0.4,0s-0.1,0.3,0,0.4l1,1c0.1,0.1,0.1,0.1,0.2,0.1
	s0.2,0,0.2-0.1l2.7-2.7c0.1-0.1,0.1-0.3,0-0.4C154.4,224.3,154.2,224.3,154.1,224.5L154.1,224.5z"/>
<path fill="#010101" d="M152.4,222.8c-2.1,0-3.8-1.7-3.8-3.8c0-2.1,1.7-3.8,3.8-3.8s3.8,1.7,3.8,3.8
	C156.1,221.1,154.4,222.8,152.4,222.8z M152.4,211.4c5.7,0,10.3,4.6,10.3,10.3c0,3-1.3,5.7-3.3,7.5c-0.3-3-2.4-5.4-5.2-6.2
	c1.5-0.7,2.6-2.2,2.6-4c0-2.4-2-4.4-4.4-4.4s-4.4,2-4.4,4.4c0,1.8,1.1,3.3,2.6,4c-2.8,0.7-4.9,3.2-5.2,6.2c-2-1.9-3.3-4.6-3.3-7.5
	C142.1,216,146.7,211.4,152.4,211.4L152.4,211.4z M157.3,230.7C157.2,230.7,157.2,230.7,157.3,230.7c-0.2,0.1-0.3,0.2-0.4,0.2
	c-0.1,0-0.1,0.1-0.2,0.1c-0.1,0-0.1,0.1-0.2,0.1c-0.1,0-0.2,0.1-0.3,0.1h-0.1c-0.1,0-0.2,0.1-0.3,0.1l0,0c-0.5,0.2-1,0.3-1.6,0.4
	h-0.1c-0.1,0-0.2,0-0.3,0s-0.1,0-0.2,0c-0.1,0-0.2,0-0.3,0s-0.2,0-0.3,0s-0.1,0-0.2,0c-0.2,0-0.3,0-0.5,0l0,0c-0.2,0-0.3,0-0.5,0
	c-0.1,0-0.1,0-0.2,0c-0.1,0-0.2,0-0.3,0s-0.2,0-0.3,0s-0.1,0-0.2,0c-0.1,0-0.2,0-0.3,0h-0.1c-0.5-0.1-1.1-0.2-1.6-0.4l0,0
	c-0.1,0-0.2-0.1-0.3-0.1h-0.1c-0.1,0-0.2-0.1-0.3-0.1s-0.1-0.1-0.2-0.1c-0.1,0-0.1-0.1-0.2-0.1c-0.1-0.1-0.2-0.1-0.3-0.2h-0.1
	c-0.5-0.3-1-0.6-1.5-1c0.1-3.5,2.9-6.3,6.4-6.3s6.3,2.8,6.4,6.3C158.3,230.1,157.8,230.4,157.3,230.7L157.3,230.7z M145.5,230.1
	L145.5,230.1c0.4,0.3,0.8,0.6,1.2,0.9l0,0c0.1,0.1,0.3,0.2,0.4,0.2c0,0,0.1,0,0.1,0.1c0.1,0,0.2,0.1,0.3,0.1s0.1,0.1,0.2,0.1
	c0.1,0,0.1,0.1,0.2,0.1c0.1,0,0.2,0.1,0.3,0.1h0.1c0.7,0.3,1.4,0.5,2.1,0.6h0.1c0.1,0,0.2,0,0.3,0s0.1,0,0.2,0c0.1,0,0.2,0,0.3,0
	s0.2,0,0.3,0s0.1,0,0.2,0c0.2,0,0.3,0,0.5,0s0.3,0,0.5,0c0.1,0,0.1,0,0.2,0c0.1,0,0.2,0,0.3,0s0.2,0,0.3,0s0.1,0,0.2,0
	c0.1,0,0.2,0,0.3,0h0.1c0.7-0.1,1.4-0.3,2.1-0.6h0.1c0.1,0,0.2-0.1,0.3-0.1s0.1-0.1,0.2-0.1c0.1,0,0.1-0.1,0.2-0.1
	c0.1,0,0.2-0.1,0.3-0.1c0,0,0.1,0,0.1-0.1c0.1-0.1,0.3-0.1,0.4-0.2l0,0c0.4-0.3,0.8-0.5,1.2-0.9l0,0c2.4-2,4-5,4-8.4
	c0-6-4.9-10.9-10.9-10.9s-10.9,4.9-10.9,10.9C141.5,225,143,228.1,145.5,230.1L145.5,230.1z"/>
<path fill="#010101" d="M179.3,197.9l-2.5,2.5l-0.8-0.8c-0.1-0.1-0.3-0.1-0.4,0c-0.1,0.1-0.1,0.3,0,0.4l1,1c0.1,0.1,0.1,0.1,0.2,0.1
	c0.1,0,0.2,0,0.2-0.1l2.7-2.7c0.1-0.1,0.1-0.3,0-0.4C179.6,197.8,179.4,197.8,179.3,197.9L179.3,197.9z"/>
<path fill="#010101" d="M177.5,222.8c-2.1,0-3.8-1.7-3.8-3.8c0-2.1,1.7-3.8,3.8-3.8s3.8,1.7,3.8,3.8
	C181.2,221.1,179.6,222.8,177.5,222.8z M177.5,211.4c5.7,0,10.3,4.6,10.3,10.3c0,3-1.3,5.7-3.3,7.5c-0.3-3-2.4-5.4-5.2-6.2
	c1.5-0.7,2.6-2.2,2.6-4c0-2.4-2-4.4-4.4-4.4s-4.4,2-4.4,4.4c0,1.8,1.1,3.3,2.6,4c-2.8,0.7-4.9,3.2-5.2,6.2c-2-1.9-3.3-4.6-3.3-7.5
	C167.2,216,171.8,211.4,177.5,211.4L177.5,211.4z M182.4,230.7C182.4,230.7,182.3,230.7,182.4,230.7c-0.2,0.1-0.3,0.2-0.4,0.2
	c-0.1,0-0.1,0.1-0.2,0.1c-0.1,0-0.1,0.1-0.2,0.1c-0.1,0-0.2,0.1-0.3,0.1h-0.1c-0.1,0-0.2,0.1-0.3,0.1l0,0c-0.5,0.2-1,0.3-1.6,0.4
	h-0.1c-0.1,0-0.2,0-0.3,0s-0.1,0-0.2,0c-0.1,0-0.2,0-0.3,0s-0.2,0-0.3,0s-0.1,0-0.2,0c-0.2,0-0.3,0-0.5,0l0,0c-0.2,0-0.3,0-0.5,0
	c-0.1,0-0.1,0-0.2,0c-0.1,0-0.2,0-0.3,0s-0.2,0-0.3,0s-0.1,0-0.2,0c-0.1,0-0.2,0-0.3,0h-0.1c-0.5-0.1-1.1-0.2-1.6-0.4l0,0
	c-0.1,0-0.2-0.1-0.3-0.1h-0.1c-0.1,0-0.2-0.1-0.3-0.1s-0.1-0.1-0.2-0.1c-0.1,0-0.1-0.1-0.2-0.1c-0.1-0.1-0.2-0.1-0.3-0.2h-0.1
	c-0.5-0.3-1-0.6-1.5-1c0.1-3.5,2.9-6.3,6.4-6.3s6.3,2.8,6.4,6.3C183.4,230.1,182.9,230.4,182.4,230.7L182.4,230.7z M170.6,230.1
	L170.6,230.1c0.4,0.3,0.8,0.6,1.2,0.9l0,0c0.1,0.1,0.3,0.2,0.4,0.2c0,0,0.1,0,0.1,0.1c0.1,0,0.2,0.1,0.3,0.1s0.1,0.1,0.2,0.1
	c0.1,0,0.1,0.1,0.2,0.1c0.1,0,0.2,0.1,0.3,0.1h0.1c0.7,0.3,1.4,0.5,2.1,0.6h0.1c0.1,0,0.2,0,0.3,0s0.1,0,0.2,0c0.1,0,0.2,0,0.3,0
	s0.2,0,0.3,0s0.1,0,0.2,0c0.2,0,0.3,0,0.5,0s0.3,0,0.5,0c0.1,0,0.1,0,0.2,0c0.1,0,0.2,0,0.3,0s0.2,0,0.3,0s0.1,0,0.2,0
	c0.1,0,0.2,0,0.3,0h0.1c0.7-0.1,1.4-0.3,2.1-0.6h0.1c0.1,0,0.2-0.1,0.3-0.1s0.1-0.1,0.2-0.1c0.1,0,0.1-0.1,0.2-0.1
	c0.1,0,0.2-0.1,0.3-0.1c0,0,0.1,0,0.1-0.1c0.1-0.1,0.3-0.1,0.4-0.2l0,0c0.4-0.3,0.8-0.5,1.2-0.9l0,0c2.4-2,4-5,4-8.4
	c0-6-4.9-10.9-10.9-10.9s-10.9,4.9-10.9,10.9C166.6,225,168.2,228.1,170.6,230.1L170.6,230.1z"/>
<path fill="#010101" d="M128.5,170.8l-2.9,2.9l-0.9-0.9c-0.1-0.1-0.4-0.1-0.5,0s-0.1,0.4,0,0.5l1.2,1.2c0.1,0.1,0.2,0.1,0.3,0.1
	c0.1,0,0.2,0,0.3-0.1l3.2-3.2c0.1-0.1,0.1-0.4,0-0.5C128.9,170.7,128.6,170.7,128.5,170.8L128.5,170.8z"/>
<path fill="#010101" d="M126.4,168.9c-2.1,0-3.8-1.7-3.8-3.8s1.7-3.8,3.8-3.8c2.1,0,3.8,1.7,3.8,3.8
	C130.1,167.2,128.5,168.9,126.4,168.9z M126.4,157.4c5.7,0,10.3,4.6,10.3,10.3c0,3-1.3,5.7-3.3,7.5c-0.3-3-2.4-5.4-5.2-6.2
	c1.5-0.7,2.6-2.2,2.6-4c0-2.4-2-4.4-4.4-4.4c-2.4,0-4.4,2-4.4,4.4c0,1.8,1.1,3.3,2.6,4c-2.8,0.7-4.9,3.2-5.2,6.2
	c-2-1.9-3.3-4.6-3.3-7.5C116.1,162,120.7,157.4,126.4,157.4L126.4,157.4z M131.3,176.7C131.3,176.7,131.2,176.8,131.3,176.7
	c-0.2,0.1-0.3,0.2-0.4,0.2c-0.1,0-0.1,0.1-0.2,0.1c-0.1,0-0.1,0.1-0.2,0.1c-0.1,0-0.2,0.1-0.3,0.1h-0.1c-0.1,0-0.2,0.1-0.3,0.1l0,0
	c-0.5,0.2-1,0.3-1.6,0.4h-0.1c-0.1,0-0.2,0-0.3,0c-0.1,0-0.1,0-0.2,0s-0.2,0-0.3,0c-0.1,0-0.2,0-0.3,0c-0.1,0-0.1,0-0.2,0
	c-0.2,0-0.3,0-0.5,0l0,0c-0.2,0-0.3,0-0.5,0c-0.1,0-0.1,0-0.2,0s-0.2,0-0.3,0c-0.1,0-0.2,0-0.3,0c-0.1,0-0.1,0-0.2,0s-0.2,0-0.3,0
	h-0.1c-0.5-0.1-1.1-0.2-1.6-0.4l0,0c-0.1,0-0.2-0.1-0.3-0.1h-0.1c-0.1,0-0.2-0.1-0.3-0.1c-0.1,0-0.1-0.1-0.2-0.1s-0.1-0.1-0.2-0.1
	c-0.1-0.1-0.2-0.1-0.3-0.2h-0.1c-0.5-0.3-1-0.6-1.5-1c0.1-3.5,2.9-6.3,6.4-6.3s6.3,2.8,6.4,6.3C132.3,176.1,131.8,176.4,131.3,176.7
	L131.3,176.7z M119.5,176.1L119.5,176.1c0.4,0.3,0.8,0.6,1.2,0.9l0,0c0.1,0.1,0.3,0.2,0.4,0.2c0,0,0.1,0,0.1,0.1
	c0.1,0,0.2,0.1,0.3,0.1c0.1,0,0.1,0.1,0.2,0.1s0.1,0.1,0.2,0.1s0.2,0.1,0.3,0.1h0.1c0.7,0.3,1.4,0.5,2.1,0.6h0.1c0.1,0,0.2,0,0.3,0
	c0.1,0,0.1,0,0.2,0s0.2,0,0.3,0c0.1,0,0.2,0,0.3,0c0.1,0,0.1,0,0.2,0c0.2,0,0.3,0,0.5,0s0.3,0,0.5,0c0.1,0,0.1,0,0.2,0s0.2,0,0.3,0
	c0.1,0,0.2,0,0.3,0c0.1,0,0.1,0,0.2,0s0.2,0,0.3,0h0.1c0.7-0.1,1.4-0.3,2.1-0.6h0.1c0.1,0,0.2-0.1,0.3-0.1s0.1-0.1,0.2-0.1
	c0.1,0,0.1-0.1,0.2-0.1c0.1,0,0.2-0.1,0.3-0.1c0,0,0.1,0,0.1-0.1c0.1-0.1,0.3-0.1,0.4-0.2l0,0c0.4-0.3,0.8-0.5,1.2-0.9l0,0
	c2.4-2,4-5,4-8.4c0-6-4.9-10.9-10.9-10.9c-6,0-10.9,4.9-10.9,10.9C115.5,171.1,117.1,174.1,119.5,176.1L119.5,176.1z"/>
<path fill="#010101" d="M152.4,168.9c-2.1,0-3.8-1.7-3.8-3.8s1.7-3.8,3.8-3.8s3.8,1.7,3.8,3.8C156.1,167.2,154.4,168.9,152.4,168.9z
	 M152.4,157.4c5.7,0,10.3,4.6,10.3,10.3c0,3-1.3,5.7-3.3,7.5c-0.3-3-2.4-5.4-5.2-6.2c1.5-0.7,2.6-2.2,2.6-4c0-2.4-2-4.4-4.4-4.4
	s-4.4,2-4.4,4.4c0,1.8,1.1,3.3,2.6,4c-2.8,0.7-4.9,3.2-5.2,6.2c-2-1.9-3.3-4.6-3.3-7.5C142.1,162,146.7,157.4,152.4,157.4
	L152.4,157.4z M157.3,176.7C157.2,176.7,157.2,176.8,157.3,176.7c-0.2,0.1-0.3,0.2-0.4,0.2c-0.1,0-0.1,0.1-0.2,0.1
	c-0.1,0-0.1,0.1-0.2,0.1c-0.1,0-0.2,0.1-0.3,0.1h-0.1c-0.1,0-0.2,0.1-0.3,0.1l0,0c-0.5,0.2-1,0.3-1.6,0.4h-0.1c-0.1,0-0.2,0-0.3,0
	s-0.1,0-0.2,0c-0.1,0-0.2,0-0.3,0s-0.2,0-0.3,0s-0.1,0-0.2,0c-0.2,0-0.3,0-0.5,0l0,0c-0.2,0-0.3,0-0.5,0c-0.1,0-0.1,0-0.2,0
	c-0.1,0-0.2,0-0.3,0s-0.2,0-0.3,0s-0.1,0-0.2,0c-0.1,0-0.2,0-0.3,0h-0.1c-0.5-0.1-1.1-0.2-1.6-0.4l0,0c-0.1,0-0.2-0.1-0.3-0.1h-0.1
	c-0.1,0-0.2-0.1-0.3-0.1s-0.1-0.1-0.2-0.1c-0.1,0-0.1-0.1-0.2-0.1c-0.1-0.1-0.2-0.1-0.3-0.2h-0.1c-0.5-0.3-1-0.6-1.5-1
	c0.1-3.5,2.9-6.3,6.4-6.3s6.3,2.8,6.4,6.3C158.3,176.1,157.8,176.4,157.3,176.7L157.3,176.7z M145.5,176.1L145.5,176.1
	c0.4,0.3,0.8,0.6,1.2,0.9l0,0c0.1,0.1,0.3,0.2,0.4,0.2c0,0,0.1,0,0.1,0.1c0.1,0,0.2,0.1,0.3,0.1s0.1,0.1,0.2,0.1
	c0.1,0,0.1,0.1,0.2,0.1c0.1,0,0.2,0.1,0.3,0.1h0.1c0.7,0.3,1.4,0.5,2.1,0.6h0.1c0.1,0,0.2,0,0.3,0s0.1,0,0.2,0c0.1,0,0.2,0,0.3,0
	s0.2,0,0.3,0s0.1,0,0.2,0c0.2,0,0.3,0,0.5,0s0.3,0,0.5,0c0.1,0,0.1,0,0.2,0c0.1,0,0.2,0,0.3,0s0.2,0,0.3,0s0.1,0,0.2,0
	c0.1,0,0.2,0,0.3,0h0.1c0.7-0.1,1.4-0.3,2.1-0.6h0.1c0.1,0,0.2-0.1,0.3-0.1s0.1-0.1,0.2-0.1c0.1,0,0.1-0.1,0.2-0.1
	c0.1,0,0.2-0.1,0.3-0.1c0,0,0.1,0,0.1-0.1c0.1-0.1,0.3-0.1,0.4-0.2l0,0c0.4-0.3,0.8-0.5,1.2-0.9l0,0c2.4-2,4-5,4-8.4
	c0-6-4.9-10.9-10.9-10.9s-10.9,4.9-10.9,10.9C141.5,171.1,143,174.1,145.5,176.1L145.5,176.1z"/>
<path fill="#010101" d="M177.5,168.9c-2.1,0-3.8-1.7-3.8-3.8s1.7-3.8,3.8-3.8s3.8,1.7,3.8,3.8C181.2,167.2,179.6,168.9,177.5,168.9z
	 M177.5,157.4c5.7,0,10.3,4.6,10.3,10.3c0,3-1.3,5.7-3.3,7.5c-0.3-3-2.4-5.4-5.2-6.2c1.5-0.7,2.6-2.2,2.6-4c0-2.4-2-4.4-4.4-4.4
	s-4.4,2-4.4,4.4c0,1.8,1.1,3.3,2.6,4c-2.8,0.7-4.9,3.2-5.2,6.2c-2-1.9-3.3-4.6-3.3-7.5C167.2,162,171.8,157.4,177.5,157.4
	L177.5,157.4z M182.4,176.7C182.4,176.7,182.3,176.8,182.4,176.7c-0.2,0.1-0.3,0.2-0.4,0.2c-0.1,0-0.1,0.1-0.2,0.1
	c-0.1,0-0.1,0.1-0.2,0.1c-0.1,0-0.2,0.1-0.3,0.1h-0.1c-0.1,0-0.2,0.1-0.3,0.1l0,0c-0.5,0.2-1,0.3-1.6,0.4h-0.1c-0.1,0-0.2,0-0.3,0
	s-0.1,0-0.2,0c-0.1,0-0.2,0-0.3,0s-0.2,0-0.3,0s-0.1,0-0.2,0c-0.2,0-0.3,0-0.5,0l0,0c-0.2,0-0.3,0-0.5,0c-0.1,0-0.1,0-0.2,0
	c-0.1,0-0.2,0-0.3,0s-0.2,0-0.3,0s-0.1,0-0.2,0c-0.1,0-0.2,0-0.3,0h-0.1c-0.5-0.1-1.1-0.2-1.6-0.4l0,0c-0.1,0-0.2-0.1-0.3-0.1h-0.1
	c-0.1,0-0.2-0.1-0.3-0.1s-0.1-0.1-0.2-0.1c-0.1,0-0.1-0.1-0.2-0.1c-0.1-0.1-0.2-0.1-0.3-0.2h-0.1c-0.5-0.3-1-0.6-1.5-1
	c0.1-3.5,2.9-6.3,6.4-6.3s6.3,2.8,6.4,6.3C183.4,176.1,182.9,176.4,182.4,176.7L182.4,176.7z M170.6,176.1L170.6,176.1
	c0.4,0.3,0.8,0.6,1.2,0.9l0,0c0.1,0.1,0.3,0.2,0.4,0.2c0,0,0.1,0,0.1,0.1c0.1,0,0.2,0.1,0.3,0.1s0.1,0.1,0.2,0.1
	c0.1,0,0.1,0.1,0.2,0.1c0.1,0,0.2,0.1,0.3,0.1h0.1c0.7,0.3,1.4,0.5,2.1,0.6h0.1c0.1,0,0.2,0,0.3,0s0.1,0,0.2,0c0.1,0,0.2,0,0.3,0
	s0.2,0,0.3,0s0.1,0,0.2,0c0.2,0,0.3,0,0.5,0s0.3,0,0.5,0c0.1,0,0.1,0,0.2,0c0.1,0,0.2,0,0.3,0s0.2,0,0.3,0s0.1,0,0.2,0
	c0.1,0,0.2,0,0.3,0h0.1c0.7-0.1,1.4-0.3,2.1-0.6h0.1c0.1,0,0.2-0.1,0.3-0.1s0.1-0.1,0.2-0.1c0.1,0,0.1-0.1,0.2-0.1
	c0.1,0,0.2-0.1,0.3-0.1c0,0,0.1,0,0.1-0.1c0.1-0.1,0.3-0.1,0.4-0.2l0,0c0.4-0.3,0.8-0.5,1.2-0.9l0,0c2.4-2,4-5,4-8.4
	c0-6-4.9-10.9-10.9-10.9s-10.9,4.9-10.9,10.9C166.6,171.1,168.2,174.1,170.6,176.1L170.6,176.1z"/>
<path fill="#010101" d="M396,181.4l-3,3l-3.2-3.2c-0.1-0.1-0.3-0.2-0.5-0.2s-0.4,0.1-0.5,0.2l-3.2,3.2l-3.2-3.2
	c-0.3-0.3-0.8-0.3-1.1,0l-3.2,3.2l-2.7-2.7l3.2-3.2c0.3-0.3,0.3-0.8,0-1.1l-3.2-3.2l3.2-3.2c0.3-0.3,0.3-0.8,0-1.1l-3.2-3.2l3-3
	h15.3c1.2,0,2.2,1,2.2,2.2v15.5H396z M397.5,166.2c0-2-1.7-3.7-3.7-3.7h-15.6c-0.2,0-0.4,0.1-0.5,0.2l-3.7,3.7
	c-0.3,0.3-0.3,0.8,0,1.1l3.2,3.2l-3.2,3.2c-0.3,0.3-0.3,0.8,0,1.1l3.2,3.2l-3.2,3.2c-0.3,0.3-0.3,0.8,0,1.1l3.7,3.7
	c0.3,0.3,0.8,0.3,1.1,0l3.2-3.2l3.2,3.2c0.3,0.3,0.8,0.3,1.1,0l3.2-3.2l3.2,3.2c0.1,0.1,0.3,0.2,0.5,0.2s0.4-0.1,0.5-0.2l3.7-3.7
	c0.1-0.1,0.2-0.3,0.2-0.5L397.5,166.2z"/>
<path fill="#010101" d="M356.6,169.9h13.8l-2.4,2.4c-0.3,0.3-0.3,0.8,0,1.1l3.2,3.2l-3.2,3.2c-0.3,0.3-0.3,0.8,0,1.1l3.2,3.2
	l-6.4,6.4l-3.2-3.2c-0.3-0.3-0.8-0.3-1.1,0l-3.2,3.2l-3-3v-15.3C354.4,170.9,355.4,169.9,356.6,169.9L356.6,169.9z M371.1,191.4
	l-3.2,3.2c-0.3,0.3-0.3,0.8,0,1.1l3.2,3.2l-3.2,3.2c-0.3,0.3-0.3,0.8,0,1.1l2.4,2.4h-13.8c-1.2,0-2.2-1-2.2-2.2v-13.8l2.4,2.4
	c0.3,0.3,0.8,0.3,1.1,0l3.2-3.2l3.2,3.2c0.1,0.1,0.3,0.2,0.5,0.2s0.4-0.1,0.5-0.2l3.2-3.2L371.1,191.4z M375.9,188.7l3.2,3.2
	c0.3,0.3,0.8,0.3,1.1,0l3.2-3.2l3.2,3.2c0.3,0.3,0.8,0.3,1.1,0l2.4-2.4v13.8c0,1.2-1,2.2-2.2,2.2h-15.3l-3-3l3.2-3.2
	c0.3-0.3,0.3-0.8,0-1.1l-3.2-3.2L375.9,188.7z M356.6,207h31.2c2,0,3.7-1.7,3.7-3.7v-15.6c0-0.3-0.2-0.6-0.5-0.7
	c-0.3-0.1-0.6-0.1-0.8,0.2l-3.2,3.2l-3.2-3.2c-0.3-0.3-0.8-0.3-1.1,0l-3.2,3.2l-3.2-3.2c-0.3-0.3-0.8-0.3-1.1,0l-3.2,3.2l-2.7-2.7
	l3.2-3.2c0.3-0.3,0.3-0.8,0-1.1l-3.2-3.2l3.2-3.2c0.3-0.3,0.3-0.8,0-1.1l-3.2-3.2l3.2-3.2c0.2-0.2,0.3-0.5,0.2-0.8
	c-0.1-0.3-0.4-0.5-0.7-0.5h-15.6c-2,0-3.7,1.7-3.7,3.7v31.2C352.9,205.3,354.6,207,356.6,207L356.6,207z"/>
<path fill="#010101" d="M387.1,166.2c-2,0-3.7,1.7-3.7,3.7v1.5h1.5v-1.5c0-1.2,1-2.2,2.2-2.2s2.2,1,2.2,2.2v1.2l-2.8,2.8
	c-0.1,0.1-0.2,0.3-0.2,0.5v2.2h1.5v-1.9l2.8-2.8c0.1-0.1,0.2-0.3,0.2-0.5v-1.5C390.8,167.8,389.1,166.2,387.1,166.2z"/>
<rect x="386.3" y="178" fill="#010101" width="1.5" height="1.5"/>
<rect x="386.3" y="202.5" fill="#010101" width="1.5" height="1.5"/>
<rect x="383.3" y="202.5" fill="#010101" width="1.5" height="1.5"/>
<rect x="380.4" y="202.5" fill="#010101" width="1.5" height="1.5"/>
<text transform="matrix(1 0 0 1 406.5475 174.1462)" fill="#010101" font-family="'Arial-ItalicMT'" font-size="10px">problem: </text>
<text transform="matrix(1 0 0 1 406.5475 186.1462)" fill="#010101" font-family="'Arial-ItalicMT'" font-size="10px">customers hate docs</text>
<g>
	<g>
		<path fill="#010101" d="M363.8,218.5c-11.4,12.3-30.8,11.2-46.2,12.2c-9.2,0.6-18.4,1.4-27.7,1.7c-7.7,0.2-15.9-0.4-21.4-6.5
			c-1.8-2-4.8,1-3,3c5.1,5.8,12.6,7.5,20,7.8c10.6,0.3,21.4-1,32-1.7c16.6-1.1,36.9-0.2,49.2-13.5
			C368.7,219.5,365.7,216.5,363.8,218.5L363.8,218.5z"/>
	</g>
</g>
<text transform="matrix(1 0 0 1 116.1091 250.2404)" fill="#010101" font-family="'Arial-ItalicMT'" font-size="10px">solution: </text>
<text transform="matrix(1 0 0 1 116.1091 262.2404)" fill="#010101" font-family="'Arial-ItalicMT'" font-size="10px">a more technical candidate?</text>
<polygon fill="#010101" points="326.7,248.8 326.7,246.4 322.2,246.4 324.7,242.1 323.3,242.1 320.7,246.4 312.4,246.4 312.4,248.8 
	319.3,248.8 317.9,251.2 312.4,251.2 312.4,253.7 316.4,253.7 313.6,258.5 315.1,258.5 317.9,253.7 326.7,253.7 326.7,251.2 
	319.3,251.2 320.7,248.8 "/>
</svg>
