<?xml version="1.0" encoding="utf-8"?>
<!-- Generator: Adobe Illustrator 23.0.3, SVG Export Plug-In . SVG Version: 6.00 Build 0)  -->
<svg version="1.1" id="Layer_1" xmlns="http://www.w3.org/2000/svg" xmlns:xlink="http://www.w3.org/1999/xlink" x="0px" y="0px"
	 viewBox="0 0 600 350" enable-background="new 0 0 600 350" xml:space="preserve">
<rect x="5" y="38.6" fill="none" width="600" height="45.9"/>
<text transform="matrix(1 0 0 1 81.9595 60.0181)" font-family="'ArialMT'" font-size="25px">In long run, writers who focus on CX win</text>
<rect x="438.8" y="109.1" fill="none" width="134.2" height="216.9"/>
<text transform="matrix(1 0 0 1 438.8118 119.3653)"><tspan x="0" y="0" font-family="'ArialMT'" font-size="12px">CX questions to answer</tspan><tspan x="0" y="24" font-family="'ArialMT'" font-size="8px">1. What&apos;s the CX journey with our </tspan><tspan x="0" y="33.6" font-family="'ArialMT'" font-size="8px">    products?</tspan><tspan x="0" y="52.8" font-family="'ArialMT'" font-size="8px">2. What&apos;s the CX on competitor </tspan><tspan x="0" y="62.4" font-family="'ArialMT'" font-size="8px">    products?</tspan><tspan x="0" y="81.6" font-family="'ArialMT'" font-size="8px">3. What are the pain points in our </tspan><tspan x="0" y="91.2" font-family="'ArialMT'" font-size="8px">    CX?</tspan><tspan x="0" y="110.4" font-family="'ArialMT'" font-size="8px">4. What CX can we infer from web </tspan><tspan x="0" y="120" font-family="'ArialMT'" font-size="8px">    analytics?</tspan><tspan x="0" y="139.2" font-family="'ArialMT'" font-size="8px">5. What CX insights do we get from </tspan><tspan x="0" y="148.8" font-family="'ArialMT'" font-size="8px">    surveys?</tspan><tspan x="0" y="168" font-family="'ArialMT'" font-size="8px">6. What are people saying/writing </tspan><tspan x="0" y="177.6" font-family="'ArialMT'" font-size="8px">    about our products?</tspan></text>
<rect x="31.4" y="88.8" fill="#DFDEDE" width="193.6" height="212.1"/>
<text transform="matrix(1 0 0 1 71.2611 105.6514)" font-family="'Arial-BoldMT'" font-size="9.7635px">Not the Writing Model</text>
<text transform="matrix(1 0 0 1 132.7576 140.9692)" font-family="'ArialMT'" font-size="9.7635px">technology</text>
<path d="M104.8,149.5c0,0.3,0.2,0.5,0.5,0.5V149C105,149,104.8,149.2,104.8,149.5z"/>
<path d="M105.2,150.8c-0.8,0-1.5-0.6-1.5-1.4c0-0.8,0.7-1.4,1.5-1.4v-0.4H94.6v4.1h10.7V150.8z"/>
<path d="M104.3,144.9c0,0.5-0.4,0.9-1,0.9h-6.8c-0.5,0-1-0.4-1-0.9v-6.4c0-0.5,0.4-0.9,1-0.9h6.8c0.5,0,1,0.4,1,0.9V144.9z
	 M96,129.4c0-1.3,1.1-2.3,2.4-2.3h2.9c1.3,0,2.4,1,2.4,2.3v2.7c0,1.3-1.1,2.3-2.4,2.3h-2.9c-1.3,0-2.4-1-2.4-2.3V129.4z
	 M105.2,125.3H94.6v21.5h10.7V125.3z"/>
<path d="M98.9,140.3l2.4,1.4l-2.4,1.4V140.3z M96.5,144.9h6.8v-6.4h-6.8V144.9z"/>
<path d="M108.2,145.6c0.7-0.2,1.4-0.4,2-0.8l1.2,1.1l2.7-2.6l-1.2-1.1c0.4-0.6,0.6-1.2,0.8-1.9l1.7,0v-3.7h-1.7
	c-0.2-0.7-0.5-1.3-0.8-1.9l1.2-1.1l-2.7-2.6l-1.2,1.1c-0.6-0.3-1.3-0.6-2-0.8l0-1.6h-1.9v3.2c3.2,0,5.8,2.5,5.8,5.5
	s-2.6,5.5-5.8,5.5v3.2h1.9V145.6z"/>
<path d="M99.9,129.8c0.5,0,1,0.4,1,0.9s-0.4,0.9-1,0.9s-1-0.4-1-0.9S99.4,129.8,99.9,129.8z M98.4,133.5h2.9c0.8,0,1.5-0.6,1.5-1.4
	v-2.7c0-0.8-0.7-1.4-1.5-1.4h-2.9c-0.8,0-1.5,0.6-1.5,1.4v2.7C97,132.9,97.6,133.5,98.4,133.5z"/>
<path d="M113.5,150.4c0.3,0,0.5,0.2,0.5,0.5s-0.2,0.5-0.5,0.5s-0.5-0.2-0.5-0.5S113.2,150.4,113.5,150.4z M106.7,151.3h5.4
	c0.2,0.5,0.7,0.9,1.4,0.9c0.8,0,1.5-0.6,1.5-1.4c0-0.8-0.7-1.4-1.5-1.4c-0.6,0-1.2,0.4-1.4,0.9h-4.9v-1.8h-1v2.3
	C106.2,151.1,106.4,151.3,106.7,151.3L106.7,151.3z"/>
<path d="M109.6,125.7c0.3,0,0.5,0.2,0.5,0.5s-0.2,0.5-0.5,0.5s-0.5-0.2-0.5-0.5S109.3,125.7,109.6,125.7z M107.2,126.7h1.1
	c0.2,0.5,0.7,0.9,1.4,0.9c0.8,0,1.5-0.6,1.5-1.4c0-0.8-0.7-1.4-1.5-1.4c-0.6,0-1.2,0.4-1.4,0.9h-1.5c-0.3,0-0.5,0.2-0.5,0.5v2.3h1
	V126.7z"/>
<path d="M122.2,126.7c-0.3,0-0.5-0.2-0.5-0.5s0.2-0.5,0.5-0.5s0.5,0.2,0.5,0.5S122.5,126.7,122.2,126.7z M122.2,124.8
	c-0.6,0-1.2,0.4-1.4,0.9h-4.9c-0.3,0-0.5,0.2-0.5,0.5v4.6h-2v0.9h2.4c0.3,0,0.5-0.2,0.5-0.5l0-4.6h4.4c0.2,0.5,0.7,0.9,1.4,0.9
	c0.8,0,1.5-0.6,1.5-1.4C123.7,125.4,123,124.8,122.2,124.8L122.2,124.8z"/>
<path d="M121.2,138.1c0.3,0,0.5,0.2,0.5,0.5s-0.2,0.5-0.5,0.5c-0.3,0-0.5-0.2-0.5-0.5S121,138.1,121.2,138.1z M121.2,139.9
	c0.8,0,1.5-0.6,1.5-1.4s-0.7-1.4-1.5-1.4c-0.6,0-1.2,0.4-1.4,0.9h-3v0.9h3C120.1,139.5,120.6,139.9,121.2,139.9z"/>
<path d="M122.2,148.1c-0.3,0-0.5-0.2-0.5-0.5s0.2-0.5,0.5-0.5s0.5,0.2,0.5,0.5S122.5,148.1,122.2,148.1z M122.2,146.3
	c-0.6,0-1.2,0.4-1.4,0.9h-3.4v-2.3c0-0.3-0.2-0.5-0.5-0.5h-2v0.9h1.5v2.3c0,0.3,0.2,0.5,0.5,0.5h3.9c0.2,0.5,0.7,0.9,1.4,0.9
	c0.8,0,1.5-0.6,1.5-1.4C123.7,146.9,123,146.3,122.2,146.3L122.2,146.3z"/>
<path d="M122.5,242l-2.5-3h4.9L122.5,242z M134.2,253.1v-8.2c0-4.1-2.8-7.4-6.2-7.4h-11c-3.4,0-6.2,3.3-6.2,7.4v10.7h1.4v-10.7
	c0-3.2,2.2-5.8,4.8-5.8h1.1l3.9,4.7c0.3,0.3,0.7,0.3,1,0l3.9-4.7h1.1c2.7,0,4.8,2.6,4.8,5.8v8.2H134.2z"/>
<rect x="115.6" y="246.5" width="1.4" height="7.4"/>
<rect x="128" y="246.5" width="1.4" height="5.8"/>
<path d="M118.4,225.9c0-2.7,1.8-4.9,4.1-4.9c2.3,0,4.1,2.2,4.1,4.9v3.3c0,2.7-1.8,4.9-4.1,4.9c-2.3,0-4.1-2.2-4.1-4.9V225.9z
	 M122.5,235.8c3,0,5.5-3,5.5-6.6v-3.3c0-3.6-2.5-6.6-5.5-6.6c-3,0-5.5,3-5.5,6.6v3.3C117,232.8,119.5,235.8,122.5,235.8z"/>
<path d="M121.1,225.9c0-0.7,0.4-1.3,0.9-1.6l-0.5-1.6h0c-1.1,0.5-1.8,1.7-1.8,3.1v0.8h1.4L121.1,225.9z"/>
<path d="M131.7,266.2v-6.2l2.5,1.9l0,2.5L131.7,266.2z M130.5,267h-12.2c0.1-0.2,0.1-0.4,0.1-0.7v-1.2l12.7,0v1.1
	c0,0.2,0,0.4-0.2,0.5C130.8,267,130.6,267,130.5,267L130.5,267z M112.7,267c-0.3,0-0.5-0.3-0.5-0.6v-6.6c0-0.3,0.2-0.6,0.5-0.6
	l2.4,0c0.3,0,0.5,0.3,0.5,0.6v6.6c0,0.3-0.2,0.6-0.5,0.6L112.7,267z M118.3,264.4v-2.5l12.7,0v2.5L118.3,264.4z M117.2,267h-1
	c0-0.2,0.1-0.4,0.1-0.6v-6.6c0-0.2,0-0.5-0.1-0.6h1c0.3,0,0.5,0.3,0.5,0.6v6.6C117.7,266.7,117.4,267,117.2,267z M130.4,259.1
	c0.3,0,0.6,0.3,0.6,0.7v1.2h-12.7v-1.2c0-0.2,0-0.5-0.1-0.7L130.4,259.1z M136.3,263.8c0.2-0.2,0.3-0.4,0.3-0.7
	c0-0.2-0.1-0.5-0.2-0.7l0-0.1l-0.1-0.1c0-0.1-0.1-0.1-0.2-0.2l-4.9-3.7c-0.1-0.1-0.2-0.1-0.3-0.2c-0.1,0-0.2,0-0.3-0.1l-17.6,0
	c-0.4,0-0.7,0.2-0.9,0.5c-0.1,0.1-0.1,0.2-0.2,0.3c-0.1,0.2-0.2,0.5-0.2,0.8v6.6c0,0.4,0.1,0.8,0.3,1c0.2,0.3,0.5,0.4,0.8,0.4
	c0,0,0.1,0,0.1,0l17.6,0c0.3,0,0.6-0.2,0.9-0.4l4.7-3.4C136.1,264,136.2,263.9,136.3,263.8L136.3,263.8z"/>
<text transform="matrix(1 0 0 1 112.2442 278.7991)" font-family="'ArialMT'" font-size="9.7635px">writer</text>
<path fill="none" stroke="#000000" stroke-width="2" stroke-miterlimit="10" d="M135,215.9l9.3-14.2c0.8-1.3-0.4-2.9-1.8-2.5l-3.4,1
	l-1.8-17.9c-0.1-0.9-0.8-1.5-1.6-1.5h-4.1c-0.9,0-1.5,0.6-1.6,1.5l-1.8,17.9l-3.4-1c-1.5-0.4-2.6,1.2-1.8,2.5l9.3,14.2
	C132.9,216.9,134.3,216.9,135,215.9L135,215.9z"/>
<path fill="none" stroke="#000000" stroke-width="2" stroke-miterlimit="10" d="M123.2,192.7l1.8-17.9l3.4,1
	c1.5,0.4,2.6-1.2,1.8-2.5l-9.3-14.2c-0.6-1-2.1-1-2.7,0l-9.3,14.2c-0.8,1.3,0.4,2.9,1.8,2.5l3.4-1l1.8,17.9c0.1,0.9,0.8,1.5,1.6,1.5
	h4.1C122.4,194.1,123.1,193.5,123.2,192.7L123.2,192.7z"/>
<rect x="229.7" y="88.8" fill="#D7EBF4" width="193.6" height="212.1"/>
<text transform="matrix(1 0 0 1 281.0574 105.651)" font-family="'Arial-BoldMT'" font-size="9.7635px">The Writing Model</text>
<text transform="matrix(1 0 0 1 346.4362 143.4641)" font-family="'ArialMT'" font-size="9.7635px">technology</text>
<path d="M318.4,152c0,0.3,0.2,0.5,0.5,0.5v-0.9C318.7,151.5,318.4,151.7,318.4,152z"/>
<path d="M318.9,153.3c-0.8,0-1.5-0.6-1.5-1.4c0-0.8,0.7-1.4,1.5-1.4v-0.4h-10.7v4.1h10.7V153.3z"/>
<path d="M317.9,147.4c0,0.5-0.4,0.9-1,0.9h-6.8c-0.5,0-1-0.4-1-0.9V141c0-0.5,0.4-0.9,1-0.9h6.8c0.5,0,1,0.4,1,0.9V147.4z
	 M309.7,131.9c0-1.3,1.1-2.3,2.4-2.3h2.9c1.3,0,2.4,1,2.4,2.3v2.7c0,1.3-1.1,2.3-2.4,2.3h-2.9c-1.3,0-2.4-1-2.4-2.3V131.9z
	 M318.9,127.8h-10.7v21.5h10.7V127.8z"/>
<path d="M312.6,142.8l2.4,1.4l-2.4,1.4V142.8z M310.2,147.4h6.8V141h-6.8V147.4z"/>
<path d="M321.8,148.1c0.7-0.2,1.4-0.4,2-0.8l1.2,1.1l2.7-2.6l-1.2-1.1c0.4-0.6,0.6-1.2,0.8-1.9l1.7,0v-3.7h-1.7
	c-0.2-0.7-0.5-1.3-0.8-1.9l1.2-1.1l-2.7-2.6l-1.2,1.1c-0.6-0.3-1.3-0.6-2-0.8l0-1.6h-1.9v3.2c3.2,0,5.8,2.5,5.8,5.5
	s-2.6,5.5-5.8,5.5v3.2h1.9V148.1z"/>
<path d="M313.6,132.3c0.5,0,1,0.4,1,0.9c0,0.5-0.4,0.9-1,0.9c-0.5,0-1-0.4-1-0.9C312.6,132.8,313,132.3,313.6,132.3z M312.1,136h2.9
	c0.8,0,1.5-0.6,1.5-1.4v-2.7c0-0.8-0.7-1.4-1.5-1.4h-2.9c-0.8,0-1.5,0.6-1.5,1.4v2.7C310.7,135.4,311.3,136,312.1,136z"/>
<path d="M327.2,152.9c0.3,0,0.5,0.2,0.5,0.5s-0.2,0.5-0.5,0.5s-0.5-0.2-0.5-0.5S326.9,152.9,327.2,152.9z M320.4,153.8h5.4
	c0.2,0.5,0.7,0.9,1.4,0.9c0.8,0,1.5-0.6,1.5-1.4c0-0.8-0.7-1.4-1.5-1.4c-0.6,0-1.2,0.4-1.4,0.9h-4.9v-1.8h-1v2.3
	C319.9,153.6,320.1,153.8,320.4,153.8L320.4,153.8z"/>
<path d="M323.3,128.2c0.3,0,0.5,0.2,0.5,0.5s-0.2,0.5-0.5,0.5s-0.5-0.2-0.5-0.5S323,128.2,323.3,128.2z M320.9,129.1h1.1
	c0.2,0.5,0.7,0.9,1.4,0.9c0.8,0,1.5-0.6,1.5-1.4c0-0.8-0.7-1.4-1.5-1.4c-0.6,0-1.2,0.4-1.4,0.9h-1.5c-0.3,0-0.5,0.2-0.5,0.5v2.3h1
	V129.1z"/>
<path d="M335.9,129.1c-0.3,0-0.5-0.2-0.5-0.5s0.2-0.5,0.5-0.5s0.5,0.2,0.5,0.5S336.2,129.1,335.9,129.1z M335.9,127.3
	c-0.6,0-1.2,0.4-1.4,0.9h-4.9c-0.3,0-0.5,0.2-0.5,0.5v4.6h-2v0.9h2.4c0.3,0,0.5-0.2,0.5-0.5l0-4.6h4.4c0.2,0.5,0.7,0.9,1.4,0.9
	c0.8,0,1.5-0.6,1.5-1.4C337.4,127.9,336.7,127.3,335.9,127.3L335.9,127.3z"/>
<path d="M334.9,140.6c0.3,0,0.5,0.2,0.5,0.5s-0.2,0.5-0.5,0.5s-0.5-0.2-0.5-0.5S334.7,140.6,334.9,140.6z M334.9,142.4
	c0.8,0,1.5-0.6,1.5-1.4c0-0.8-0.7-1.4-1.5-1.4c-0.6,0-1.2,0.4-1.4,0.9h-3v0.9h3C333.8,142,334.3,142.4,334.9,142.4z"/>
<path d="M335.9,150.6c-0.3,0-0.5-0.2-0.5-0.5s0.2-0.5,0.5-0.5s0.5,0.2,0.5,0.5S336.2,150.6,335.9,150.6z M335.9,148.8
	c-0.6,0-1.2,0.4-1.4,0.9h-3.4v-2.3c0-0.3-0.2-0.5-0.5-0.5h-2v0.9h1.5v2.3c0,0.3,0.2,0.5,0.5,0.5h3.9c0.2,0.5,0.7,0.9,1.4,0.9
	c0.8,0,1.5-0.6,1.5-1.4C337.4,149.4,336.7,148.8,335.9,148.8L335.9,148.8z"/>
<path d="M389.9,237.1l-2.3-2.6h4.7L389.9,237.1z M401,246.9v-7.3c0-3.6-2.6-6.6-5.9-6.6h-10.4c-3.2,0-5.8,2.9-5.9,6.6v9.5h1.3v-9.5
	c0-2.8,2-5.1,4.6-5.1h1l3.7,4.2c0.3,0.3,0.7,0.3,0.9,0l3.7-4.2h1c2.5,0,4.5,2.3,4.6,5.1v7.3H401z"/>
<rect x="383.4" y="241" width="1.3" height="6.6"/>
<rect x="395.1" y="241" width="1.3" height="5.1"/>
<path d="M400.6,258.4H396v-6.9h4.6V258.4z M395.2,258.4h-9.1c-0.3,0-0.7-0.1-0.9-0.3l-5.4-3.7c-0.3-0.2-0.5-0.7-0.5-1.2v-0.1
	c0-0.4,0.2-0.9,0.4-1.1c0.3-0.2,0.6-0.3,0.9-0.1l1.4,0.9l0,0l3.3,2.1h0c0.1,0,0.1,0.1,0.2,0.1h4.6v-1.1h-3.8c-0.4,0-0.8-0.5-0.8-1.1
	c0,0,0,0,0-0.1c0-0.6,0.4-1.1,0.8-1.1h3.2c0.1,0,0.1,0,0.2-0.1l0.1-0.1c0.8-0.6,1.8-0.9,2.7-0.9c0,0,0.1,0,0.1,0
	c0.9,0,1.7,0.3,2.5,0.9L395.2,258.4z M401.1,250.4h-5.4c-0.9-0.7-2-1.1-3-1.1c0,0-0.1,0-0.1,0c-1.1,0-2.2,0.4-3.1,1.1l-3.1,0
	c-0.9,0-1.7,1-1.7,2.3c0,0,0,0.1,0,0.1c0,0.2,0,0.3,0.1,0.5l-2.4-1.5l0,0l-1.4-0.9c-0.6-0.3-1.2-0.3-1.7,0.2
	c-0.5,0.4-0.8,1.2-0.8,2.1v0.1c0,0.9,0.4,1.8,1,2.2l5.4,3.7c0.4,0.3,0.9,0.4,1.3,0.4h15c0.1,0,0.2-0.1,0.3-0.2
	c0.1-0.1,0.1-0.3,0.1-0.4v-8c0-0.2,0-0.3-0.1-0.4C401.3,250.4,401.2,250.4,401.1,250.4L401.1,250.4z"/>
<path d="M386,222.8c0-2.4,1.7-4.4,3.9-4.4c2.2,0,3.9,2,3.9,4.4v2.9c0,2.4-1.7,4.4-3.9,4.4c-2.2,0-3.9-2-3.9-4.4V222.8z M389.9,231.5
	c2.9,0,5.2-2.6,5.2-5.8v-2.9c0-3.2-2.3-5.8-5.2-5.8c-2.9,0-5.2,2.6-5.2,5.8v2.9C384.7,228.9,387,231.5,389.9,231.5z"/>
<path d="M388.6,222.8c0-0.6,0.3-1.2,0.9-1.4L389,220h0c-1,0.4-1.7,1.5-1.7,2.8v0.7h1.3L388.6,222.8z"/>
<path d="M252.9,235.7l-2.5-3h4.9L252.9,235.7z M264.5,246.8v-8.2c0-4.1-2.8-7.4-6.2-7.4h-11c-3.4,0-6.2,3.3-6.2,7.4v10.7h1.4v-10.7
	c0-3.2,2.2-5.8,4.8-5.8h1.1l3.9,4.7c0.3,0.3,0.7,0.3,1,0l3.9-4.7h1.1c2.7,0,4.8,2.6,4.8,5.8v8.2H264.5z"/>
<rect x="246" y="240.2" width="1.4" height="7.4"/>
<rect x="258.3" y="240.2" width="1.4" height="5.8"/>
<path d="M248.7,219.6c0-2.7,1.8-4.9,4.1-4.9c2.3,0,4.1,2.2,4.1,4.9v3.3c0,2.7-1.8,4.9-4.1,4.9c-2.3,0-4.1-2.2-4.1-4.9V219.6z
	 M252.9,229.5c3,0,5.5-3,5.5-6.6v-3.3c0-3.6-2.5-6.6-5.5-6.6c-3,0-5.5,3-5.5,6.6v3.3C247.4,226.5,249.8,229.5,252.9,229.5z"/>
<path d="M251.5,219.6c0-0.7,0.4-1.3,0.9-1.6l-0.5-1.6h0c-1.1,0.5-1.8,1.7-1.8,3.1v0.8h1.4L251.5,219.6z"/>
<path d="M262.1,259.9v-6.2l2.5,1.9l0,2.5L262.1,259.9z M260.8,260.7h-12.2c0.1-0.2,0.1-0.4,0.1-0.7v-1.2l12.7,0v1.1
	c0,0.2,0,0.4-0.2,0.5C261.1,260.7,261,260.7,260.8,260.7L260.8,260.7z M243.1,260.7c-0.3,0-0.5-0.3-0.5-0.6v-6.6
	c0-0.3,0.2-0.6,0.5-0.6l2.4,0c0.3,0,0.5,0.3,0.5,0.6v6.6c0,0.3-0.2,0.6-0.5,0.6L243.1,260.7z M248.7,258.1v-2.5l12.7,0v2.5
	L248.7,258.1z M247.5,260.7h-1c0-0.2,0.1-0.4,0.1-0.6v-6.6c0-0.2,0-0.5-0.1-0.6h1c0.3,0,0.5,0.3,0.5,0.6v6.6
	C248,260.4,247.8,260.7,247.5,260.7z M260.8,252.8c0.3,0,0.6,0.3,0.6,0.7v1.2h-12.7v-1.2c0-0.2,0-0.5-0.1-0.7L260.8,252.8z
	 M266.6,257.5c0.2-0.2,0.3-0.4,0.3-0.7c0-0.2-0.1-0.5-0.2-0.7l0-0.1l-0.1-0.1c0-0.1-0.1-0.1-0.2-0.2l-4.9-3.7
	c-0.1-0.1-0.2-0.1-0.3-0.2c-0.1,0-0.2,0-0.3-0.1l-17.6,0c-0.4,0-0.7,0.2-0.9,0.5c-0.1,0.1-0.1,0.2-0.2,0.3c-0.1,0.2-0.2,0.5-0.2,0.8
	l0,6.6c0,0.4,0.1,0.8,0.3,1c0.2,0.3,0.5,0.4,0.8,0.4c0,0,0.1,0,0.1,0l17.6,0c0.3,0,0.6-0.2,0.9-0.4l4.7-3.4
	C266.4,257.7,266.5,257.6,266.6,257.5L266.6,257.5z"/>
<polygon fill="none" stroke="#000000" stroke-miterlimit="10" points="322.8,158.5 275.3,240.9 370.4,240.9 "/>
<text transform="matrix(1 0 0 1 242.5834 272.4972)" font-family="'ArialMT'" font-size="9.7635px">writer</text>
<text transform="matrix(1 0 0 1 379.4188 270.8879)" font-family="'ArialMT'" font-size="9.7635px">reader</text>
<circle fill="none" stroke="#000000" stroke-miterlimit="10" cx="393.8" cy="248.3" r="35.3"/>
<g>
	<g>
		<path fill="none" stroke="#000000" stroke-miterlimit="10" d="M385.5,213c0.1-0.6,0.3-1.1,0.4-1.7"/>
		<path fill="none" stroke="#000000" stroke-miterlimit="10" stroke-dasharray="3.4822,3.4822" d="M386.8,208c2.1-7,5-13.8,7.9-20.5
			c10.6-24.5,21.6-48.7,33-72.8c3.5-7.5,7.2-15,12.6-21.3c5.4-6.3,12.8-11.3,21-12c8-0.7,15.9,2.7,22.1,7.7c2.8,2.3,5.3,5,7.2,8"/>
		<path fill="none" stroke="#000000" stroke-miterlimit="10" d="M491.4,98.7c0.3,0.5,0.5,1.1,0.8,1.6"/>
		<g>
			<path d="M493.7,106.1c-1.8-2.4-4.5-5.3-6.9-6.9l5,0.4l4.1-3C494.7,99.2,493.9,103.1,493.7,106.1z"/>
		</g>
	</g>
</g>
</svg>
