<?xml version="1.0" encoding="utf-8"?>
<!-- Generator: Adobe Illustrator 19.0.1, SVG Export Plug-In . SVG Version: 6.00 Build 0)  -->
<svg version="1.1" xmlns="http://www.w3.org/2000/svg" xmlns:xlink="http://www.w3.org/1999/xlink" x="0px" y="0px"
	 viewBox="0 0 600 400" enable-background="new 0 0 600 400" xml:space="preserve">
<g id="www_1_">
</g>
<g id="restapi">
	<path d="M143.2,105.3v-1.5c0,0-13.9,7.9-17.8,15.4c-0.3,0.5-0.5,1-0.8,1.6l-10.1,12H91.8c-2.8,0-5.1,2.3-5.1,5.1
		c0,2.8,2.2,5.1,5,5.1c0,0,0,0,0,0h0.6c0.5,0,0.9-0.3,0.9-0.7c0-0.4-0.4-0.7-0.9-0.7h-0.6c-2,0-3.7-1.7-3.7-3.7c0-2,1.7-3.7,3.7-3.7
		h22.5l10.3,12.2c2.8,6.4,7.8,11.9,14.5,15.3c1.3,0.7,4,1.7,4,1.7V162c-2.5-1.1-4.3-3.7-4.3-6.6c0-2.9,1.8-5.4,4.3-6.6v-0.3
		c-0.3,0-4.5,0.3-9.1-0.5c-5-0.9-8.6-2.6-10.8-5.2c0.2,0.6,0.4,1.3,0.6,1.9l-8.4-9.9l6.8,3.7c0.1,0.7,0.3,1.5,0.4,2.2
		c4.3,8.1,20.2,7.1,20.4,7.1v-0.3c-2.5-1.1-4.2-3.7-4.2-6.6c0-2.9,1.7-5.4,4.2-6.5V134l-21.2-0.1c0,1.3,0.1,2.6,0.3,3.8l-6.5-3.6
		h3.9v0h0.7c0.5,0,0.9-0.3,0.9-0.7s-0.4-0.7-0.9-0.7h0v0h-4l6.1-3.4c-0.2,1.3-0.3,2.5-0.3,3.8l21.2,0.1v-0.4
		c-2.5-1.2-4.2-3.7-4.2-6.6c0-2.9,1.7-5.4,4.2-6.5v-0.5l-0.6,0l0,0c-2.6-0.1-15.6-0.2-19.7,6.7c-0.2,0.9-0.4,1.8-0.6,2.8l-6.8,3.7
		l8.4-9.9c-0.2,0.5-0.4,1-0.5,1.5c2.2-2.4,5.8-4.1,10.5-4.9c4.7-0.8,9.1-0.5,9.1-0.5v0l0.1,0v-0.3c-2.5-1.2-4.1-3.7-4.1-6.6
		C139.1,108.9,140.8,106.4,143.2,105.3z"/>
	<path d="M91.4,117.5H111c0.4,0,0.8-0.4,0.8-0.8s-0.4-0.8-0.8-0.8H91.4c-0.4,0-0.8,0.4-0.8,0.8S90.9,117.5,91.4,117.5z"/>
	<path d="M93.2,122c0,0.4,0.4,0.8,0.8,0.8h19.6c0.4,0,0.8-0.4,0.8-0.8c0-0.4-0.4-0.8-0.8-0.8H94C93.6,121.2,93.2,121.6,93.2,122z"/>
	<path d="M91.4,128.2H111c0.4,0,0.8-0.4,0.8-0.8c0-0.4-0.4-0.8-0.8-0.8H91.4c-0.4,0-0.8,0.4-0.8,0.8
		C90.6,127.8,90.9,128.2,91.4,128.2z"/>
	<path d="M207.4,235.9h53.9v-53.1h-53.9V235.9z M264.9,239.5h-61.1v-60.2h61.1V239.5z"/>
	<path d="M283.2,235.9h53.9v-53.1h-53.9V235.9z M340.7,239.5h-61.1v-60.2h61.1V239.5z"/>
	<path d="M74.6,306.9h294.6V84.1H74.6V306.9z M376.5,314.1h-309V76.9h309V314.1z"/>
	<path d="M74.6,76.9h294.6V51.1c0-1.4-2.5-2.9-4.9-2.9H79.6c-2.4,0-4.9,1.4-4.9,2.9V76.9z M376.5,84.1h-309V51.1
		c0-6.2,6.3-10.1,12.1-10.1h284.8c5.8,0,12.1,3.8,12.1,10.1V84.1z"/>
	<path d="M98.9,61.8c0,7.4-11.1,7.4-11.1,0C87.8,54.4,98.9,54.4,98.9,61.8"/>
	<path d="M116.9,61.8c0,7.4-11.1,7.4-11.1,0C105.8,54.4,116.9,54.4,116.9,61.8"/>
	<path d="M134.8,61.8c0,7.4-11.1,7.4-11.1,0C123.7,54.4,134.8,54.4,134.8,61.8"/>
	<path d="M307.3,159.2h-132c-1,0-1.8-0.8-1.8-1.8s0.8-1.8,1.8-1.8h132c1,0,1.8,0.8,1.8,1.8S308.3,159.2,307.3,159.2z"/>
	<path d="M313,278H131.2c-1.3,0-2.4-1.1-2.4-2.4c0-1.3,1.1-2.4,2.4-2.4H313c1.3,0,2.4,1.1,2.4,2.4C315.4,276.9,314.4,278,313,278z"
		/>
	<path d="M308.1,293.5H131.6c-1.3,0-2.3-1.1-2.3-2.3c0-1.3,1.1-2.3,2.3-2.3h176.5c1.3,0,2.3,1.1,2.3,2.3
		C310.4,292.4,309.4,293.5,308.1,293.5z"/>
	<g>
		<path d="M174,138v-11.5h2.3v4.5h4.5v-4.5h2.3V138h-2.3v-5h-4.5v5H174z"/>
		<path d="M185,133.7c0-0.7,0.2-1.4,0.5-2.1c0.4-0.7,0.9-1.2,1.5-1.6s1.4-0.5,2.2-0.5c1.3,0,2.3,0.4,3.1,1.2
			c0.8,0.8,1.2,1.8,1.2,3.1c0,1.3-0.4,2.3-1.2,3.1c-0.8,0.8-1.8,1.2-3.1,1.2c-0.8,0-1.5-0.2-2.2-0.5s-1.2-0.8-1.6-1.5
			S185,134.7,185,133.7z M187.2,133.9c0,0.8,0.2,1.5,0.6,1.9s0.9,0.7,1.4,0.7s1.1-0.2,1.4-0.7s0.6-1.1,0.6-1.9
			c0-0.8-0.2-1.4-0.6-1.9s-0.9-0.7-1.4-0.7s-1.1,0.2-1.4,0.7S187.2,133,187.2,133.9z"/>
		<path d="M196.8,138l-2.6-8.3h2.1l1.6,5.4l1.4-5.4h2.1l1.4,5.4l1.6-5.4h2.2l-2.7,8.3h-2.1l-1.4-5.3L199,138H196.8z"/>
		<path d="M213.7,138l-2.6-8.3h2.1l1.6,5.4l1.4-5.4h2.1l1.4,5.4l1.6-5.4h2.2l-2.7,8.3h-2.1l-1.4-5.3l-1.4,5.3H213.7z"/>
		<path d="M224.6,128.6v-2h2.2v2H224.6z M224.6,138v-8.3h2.2v8.3H224.6z"/>
		<path d="M236.6,138h-2.2v-4.2c0-0.9,0-1.5-0.1-1.7c-0.1-0.3-0.2-0.5-0.5-0.6c-0.2-0.1-0.5-0.2-0.8-0.2c-0.4,0-0.7,0.1-1,0.3
			c-0.3,0.2-0.5,0.5-0.6,0.8s-0.2,1-0.2,1.9v3.8H229v-8.3h2v1.2c0.7-0.9,1.6-1.4,2.7-1.4c0.5,0,0.9,0.1,1.3,0.3
			c0.4,0.2,0.7,0.4,0.9,0.7c0.2,0.3,0.3,0.6,0.4,0.9s0.1,0.8,0.1,1.5V138z"/>
		<path d="M246.4,138h-2v-1.2c-0.3,0.5-0.7,0.8-1.2,1.1s-0.9,0.3-1.4,0.3c-1,0-1.8-0.4-2.4-1.2c-0.7-0.8-1-1.8-1-3.2
			c0-1.4,0.3-2.5,1-3.2c0.7-0.7,1.5-1.1,2.5-1.1c0.9,0,1.7,0.4,2.4,1.2v-4.1h2.2V138z M240.6,133.7c0,0.9,0.1,1.5,0.4,1.9
			c0.4,0.6,0.8,0.9,1.5,0.9c0.5,0,0.9-0.2,1.3-0.6s0.5-1.1,0.5-1.9c0-1-0.2-1.6-0.5-2.1c-0.3-0.4-0.8-0.6-1.3-0.6
			c-0.5,0-1,0.2-1.3,0.6S240.6,132.9,240.6,133.7z"/>
		<path d="M247.6,129.7h2.3l2,5.9l1.9-5.9h2.3l-2.9,8l-0.5,1.4c-0.2,0.5-0.4,0.9-0.6,1.1c-0.2,0.3-0.4,0.5-0.6,0.6
			c-0.2,0.2-0.5,0.3-0.8,0.4c-0.3,0.1-0.7,0.1-1.1,0.1c-0.4,0-0.8,0-1.2-0.1l-0.2-1.7c0.3,0.1,0.7,0.1,0.9,0.1
			c0.5,0,0.9-0.1,1.1-0.4c0.2-0.3,0.4-0.7,0.6-1.1L247.6,129.7z"/>
		<path d="M261.9,128.6v-2h2.2v2H261.9z M261.9,138v-8.3h2.2v8.3H261.9z"/>
		<path d="M265.6,135.6l2.2-0.3c0.1,0.4,0.3,0.8,0.6,1c0.3,0.2,0.7,0.3,1.2,0.3c0.6,0,1-0.1,1.3-0.3c0.2-0.1,0.3-0.3,0.3-0.6
			c0-0.2-0.1-0.3-0.2-0.4c-0.1-0.1-0.4-0.2-0.7-0.3c-1.8-0.4-2.9-0.7-3.4-1.1c-0.7-0.4-1-1.1-1-1.9c0-0.7,0.3-1.3,0.9-1.8
			c0.6-0.5,1.4-0.7,2.6-0.7c1.1,0,2,0.2,2.5,0.6c0.6,0.4,0.9,0.9,1.1,1.6l-2.1,0.4c-0.1-0.3-0.3-0.6-0.5-0.7s-0.6-0.3-1.1-0.3
			c-0.6,0-1,0.1-1.2,0.2c-0.2,0.1-0.2,0.3-0.2,0.4c0,0.2,0.1,0.3,0.2,0.4c0.2,0.1,0.9,0.4,2.1,0.6s2,0.6,2.4,1
			c0.5,0.4,0.7,0.9,0.7,1.6c0,0.8-0.3,1.4-1,2s-1.6,0.8-2.8,0.8c-1.1,0-2-0.2-2.7-0.7C266.2,137.1,265.8,136.4,265.6,135.6z"/>
		<path d="M279.7,128.6v-2h2.2v2H279.7z M279.7,138v-8.3h2.2v8.3H279.7z"/>
		<path d="M288,129.7v1.8h-1.5v3.3c0,0.7,0,1.1,0,1.2c0,0.1,0.1,0.2,0.2,0.3c0.1,0.1,0.2,0.1,0.4,0.1c0.2,0,0.5-0.1,0.9-0.2l0.2,1.7
			c-0.5,0.2-1.1,0.3-1.7,0.3c-0.4,0-0.8-0.1-1.1-0.2s-0.6-0.3-0.7-0.5s-0.3-0.5-0.3-0.9c0-0.3-0.1-0.8-0.1-1.5v-3.6h-1v-1.8h1v-1.6
			l2.2-1.3v2.9H288z"/>
		<path d="M294.2,135.1h-2c0-0.3,0-0.5,0-0.5c0-0.6,0.1-1.2,0.3-1.6c0.2-0.4,0.6-0.9,1.3-1.4c0.6-0.5,1-0.9,1.1-1
			c0.2-0.3,0.3-0.5,0.3-0.8c0-0.4-0.2-0.8-0.5-1.1s-0.8-0.5-1.4-0.5c-0.6,0-1,0.2-1.4,0.5c-0.4,0.3-0.6,0.8-0.8,1.5l-2-0.2
			c0.1-0.9,0.5-1.7,1.2-2.4c0.7-0.7,1.7-1,2.9-1c1.3,0,2.3,0.3,3,1c0.7,0.7,1.1,1.4,1.1,2.3c0,0.5-0.1,0.9-0.4,1.4
			c-0.3,0.4-0.9,1-1.8,1.8c-0.5,0.4-0.8,0.7-0.9,0.9S294.2,134.5,294.2,135.1z M292.2,138v-2.2h2.2v2.2H292.2z"/>
	</g>
	<path d="M132.3,235.9h53.9v-53.1h-53.9V235.9z M189.8,239.5h-61.1v-60.2h61.1V239.5z"/>
	<g>
		<path d="M136.5,255.9l2.2-0.3c0.1,0.4,0.3,0.8,0.6,1c0.3,0.2,0.7,0.3,1.2,0.3c0.6,0,1-0.1,1.3-0.3c0.2-0.1,0.3-0.3,0.3-0.6
			c0-0.2-0.1-0.3-0.2-0.4c-0.1-0.1-0.4-0.2-0.7-0.3c-1.8-0.4-2.9-0.7-3.4-1.1c-0.7-0.4-1-1.1-1-1.9c0-0.7,0.3-1.3,0.9-1.8
			c0.6-0.5,1.4-0.7,2.6-0.7c1.1,0,2,0.2,2.5,0.6c0.6,0.4,0.9,0.9,1.1,1.6l-2.1,0.4c-0.1-0.3-0.3-0.6-0.5-0.7s-0.6-0.3-1.1-0.3
			c-0.6,0-1,0.1-1.2,0.2c-0.2,0.1-0.2,0.3-0.2,0.4c0,0.2,0.1,0.3,0.2,0.4c0.2,0.1,0.9,0.4,2.1,0.6s2,0.6,2.4,1
			c0.5,0.4,0.7,0.9,0.7,1.6c0,0.8-0.3,1.4-1,2s-1.6,0.8-2.8,0.8c-1.1,0-2-0.2-2.7-0.7C137.2,257.3,136.7,256.7,136.5,255.9z"/>
		<path d="M146.1,249.9h2v1.2c0.3-0.4,0.6-0.8,1.1-1c0.5-0.3,1-0.4,1.5-0.4c1,0,1.8,0.4,2.5,1.1c0.7,0.8,1,1.8,1,3.2
			c0,1.4-0.3,2.5-1,3.2c-0.7,0.8-1.5,1.2-2.5,1.2c-0.5,0-0.9-0.1-1.2-0.3s-0.8-0.5-1.2-0.9v4.2h-2.2V249.9z M148.3,253.9
			c0,0.9,0.2,1.6,0.6,2.1s0.8,0.7,1.4,0.7c0.5,0,0.9-0.2,1.3-0.6c0.3-0.4,0.5-1.1,0.5-2c0-0.9-0.2-1.5-0.5-1.9s-0.8-0.6-1.3-0.6
			c-0.5,0-1,0.2-1.3,0.6S148.3,253.1,148.3,253.9z"/>
		<path d="M160.8,255.6l2.2,0.4c-0.3,0.8-0.7,1.4-1.3,1.8c-0.6,0.4-1.4,0.6-2.3,0.6c-1.4,0-2.5-0.5-3.2-1.4
			c-0.5-0.8-0.8-1.7-0.8-2.9c0-1.4,0.4-2.5,1.1-3.2c0.7-0.8,1.6-1.2,2.7-1.2c1.2,0,2.2,0.4,2.9,1.2c0.7,0.8,1.1,2.1,1,3.7h-5.5
			c0,0.7,0.2,1.2,0.5,1.5c0.3,0.4,0.8,0.5,1.3,0.5c0.3,0,0.6-0.1,0.9-0.3S160.7,256,160.8,255.6z M160.9,253.4
			c0-0.6-0.2-1.1-0.5-1.4c-0.3-0.3-0.7-0.5-1.1-0.5c-0.5,0-0.9,0.2-1.2,0.5c-0.3,0.3-0.5,0.8-0.5,1.4H160.9z"/>
		<path d="M169.7,255.6l2.2,0.4c-0.3,0.8-0.7,1.4-1.3,1.8c-0.6,0.4-1.4,0.6-2.3,0.6c-1.4,0-2.5-0.5-3.2-1.4
			c-0.5-0.8-0.8-1.7-0.8-2.9c0-1.4,0.4-2.5,1.1-3.2c0.7-0.8,1.6-1.2,2.7-1.2c1.2,0,2.2,0.4,2.9,1.2c0.7,0.8,1.1,2.1,1,3.7h-5.5
			c0,0.7,0.2,1.2,0.5,1.5c0.3,0.4,0.8,0.5,1.3,0.5c0.3,0,0.6-0.1,0.9-0.3S169.6,256,169.7,255.6z M169.8,253.4
			c0-0.6-0.2-1.1-0.5-1.4c-0.3-0.3-0.7-0.5-1.1-0.5c-0.5,0-0.9,0.2-1.2,0.5c-0.3,0.3-0.5,0.8-0.5,1.4H169.8z"/>
		<path d="M181.4,258.2h-2V257c-0.3,0.5-0.7,0.8-1.2,1.1s-0.9,0.3-1.4,0.3c-1,0-1.8-0.4-2.4-1.2c-0.7-0.8-1-1.8-1-3.2
			c0-1.4,0.3-2.5,1-3.2c0.7-0.7,1.5-1.1,2.5-1.1c0.9,0,1.7,0.4,2.4,1.2v-4.1h2.2V258.2z M175.5,253.9c0,0.9,0.1,1.5,0.4,1.9
			c0.4,0.6,0.8,0.9,1.5,0.9c0.5,0,0.9-0.2,1.3-0.6s0.5-1.1,0.5-1.9c0-1-0.2-1.6-0.5-2.1c-0.3-0.4-0.8-0.6-1.3-0.6
			c-0.5,0-1,0.2-1.3,0.6S175.5,253.1,175.5,253.9z"/>
	</g>
	<g>
		<path d="M301.5,252.4l-2.2,0.4c-0.1-0.4-0.2-0.8-0.5-1s-0.6-0.3-1-0.3c-0.5,0-1,0.2-1.3,0.6c-0.3,0.4-0.5,1-0.5,1.9
			c0,1,0.2,1.7,0.5,2.1s0.8,0.6,1.3,0.6c0.4,0,0.8-0.1,1-0.4c0.3-0.2,0.5-0.6,0.6-1.2l2.2,0.4c-0.2,1-0.7,1.7-1.3,2.2
			c-0.6,0.5-1.5,0.8-2.6,0.8c-1.2,0-2.2-0.4-2.9-1.1s-1.1-1.8-1.1-3.2c0-1.4,0.4-2.4,1.1-3.2c0.7-0.8,1.7-1.1,2.9-1.1
			c1,0,1.8,0.2,2.4,0.7C300.8,250.8,301.2,251.5,301.5,252.4z"/>
		<path d="M305.3,246.8v4.2c0.7-0.8,1.6-1.2,2.5-1.2c0.5,0,1,0.1,1.4,0.3s0.7,0.4,0.9,0.7c0.2,0.3,0.3,0.6,0.4,1
			c0.1,0.4,0.1,0.9,0.1,1.6v4.9h-2.2v-4.4c0-0.9,0-1.4-0.1-1.7s-0.2-0.4-0.4-0.6c-0.2-0.1-0.5-0.2-0.8-0.2c-0.4,0-0.7,0.1-1,0.3
			c-0.3,0.2-0.5,0.4-0.6,0.8c-0.1,0.4-0.2,0.9-0.2,1.6v4.2h-2.2v-11.5H305.3z"/>
		<path d="M312.9,248.8v-2h2.2v2H312.9z M312.9,258.2v-8.3h2.2v8.3H312.9z"/>
		<path d="M317.4,258.2v-11.5h2.2v11.5H317.4z"/>
		<path d="M321.8,258.2v-11.5h2.2v11.5H321.8z"/>
	</g>
	<g>
		<path d="M209.3,258.2h-2V257c-0.3,0.5-0.7,0.8-1.2,1.1s-0.9,0.3-1.4,0.3c-1,0-1.8-0.4-2.4-1.2c-0.7-0.8-1-1.8-1-3.2
			c0-1.4,0.3-2.5,1-3.2c0.7-0.7,1.5-1.1,2.5-1.1c0.9,0,1.7,0.4,2.4,1.2v-4.1h2.2V258.2z M203.5,253.9c0,0.9,0.1,1.5,0.4,1.9
			c0.4,0.6,0.8,0.9,1.5,0.9c0.5,0,0.9-0.2,1.3-0.6s0.5-1.1,0.5-1.9c0-1-0.2-1.6-0.5-2.1c-0.3-0.4-0.8-0.6-1.3-0.6
			c-0.5,0-1,0.2-1.3,0.6S203.5,253.1,203.5,253.9z"/>
		<path d="M211.5,248.8v-2h2.2v2H211.5z M211.5,258.2v-8.3h2.2v8.3H211.5z"/>
		<path d="M218,258.2h-2.2v-8.3h2v1.2c0.3-0.6,0.7-0.9,0.9-1.1c0.3-0.2,0.6-0.3,0.9-0.3c0.5,0,1,0.1,1.4,0.4l-0.7,1.9
			c-0.4-0.2-0.7-0.4-1-0.4c-0.3,0-0.6,0.1-0.8,0.3c-0.2,0.2-0.4,0.5-0.5,0.9c-0.1,0.4-0.2,1.4-0.2,2.8V258.2z"/>
		<path d="M227,255.6l2.2,0.4c-0.3,0.8-0.7,1.4-1.3,1.8c-0.6,0.4-1.4,0.6-2.3,0.6c-1.4,0-2.5-0.5-3.2-1.4c-0.5-0.8-0.8-1.7-0.8-2.9
			c0-1.4,0.4-2.5,1.1-3.2c0.7-0.8,1.6-1.2,2.7-1.2c1.2,0,2.2,0.4,2.9,1.2c0.7,0.8,1.1,2.1,1,3.7h-5.5c0,0.7,0.2,1.2,0.5,1.5
			c0.3,0.4,0.8,0.5,1.3,0.5c0.3,0,0.6-0.1,0.9-0.3S226.8,256,227,255.6z M227.1,253.4c0-0.6-0.2-1.1-0.5-1.4
			c-0.3-0.3-0.7-0.5-1.1-0.5c-0.5,0-0.9,0.2-1.2,0.5c-0.3,0.3-0.5,0.8-0.5,1.4H227.1z"/>
		<path d="M238.3,252.4l-2.2,0.4c-0.1-0.4-0.2-0.8-0.5-1s-0.6-0.3-1-0.3c-0.5,0-1,0.2-1.3,0.6c-0.3,0.4-0.5,1-0.5,1.9
			c0,1,0.2,1.7,0.5,2.1s0.8,0.6,1.3,0.6c0.4,0,0.8-0.1,1-0.4c0.3-0.2,0.5-0.6,0.6-1.2l2.2,0.4c-0.2,1-0.7,1.7-1.3,2.2
			c-0.6,0.5-1.5,0.8-2.6,0.8c-1.2,0-2.2-0.4-2.9-1.1s-1.1-1.8-1.1-3.2c0-1.4,0.4-2.4,1.1-3.2c0.7-0.8,1.7-1.1,2.9-1.1
			c1,0,1.8,0.2,2.4,0.7C237.6,250.8,238,251.5,238.3,252.4z"/>
		<path d="M243.8,249.9v1.8h-1.5v3.3c0,0.7,0,1.1,0,1.2c0,0.1,0.1,0.2,0.2,0.3c0.1,0.1,0.2,0.1,0.4,0.1c0.2,0,0.5-0.1,0.9-0.2
			l0.2,1.7c-0.5,0.2-1.1,0.3-1.7,0.3c-0.4,0-0.8-0.1-1.1-0.2s-0.6-0.3-0.7-0.5s-0.3-0.5-0.3-0.9c0-0.3-0.1-0.8-0.1-1.5v-3.6h-1v-1.8
			h1v-1.6l2.2-1.3v2.9H243.8z"/>
		<path d="M245.3,248.8v-2h2.2v2H245.3z M245.3,258.2v-8.3h2.2v8.3H245.3z"/>
		<path d="M249.2,254c0-0.7,0.2-1.4,0.5-2.1c0.4-0.7,0.9-1.2,1.5-1.6s1.4-0.5,2.2-0.5c1.3,0,2.3,0.4,3.1,1.2
			c0.8,0.8,1.2,1.8,1.2,3.1c0,1.3-0.4,2.3-1.2,3.1c-0.8,0.8-1.8,1.2-3.1,1.2c-0.8,0-1.5-0.2-2.2-0.5s-1.2-0.8-1.6-1.5
			S249.2,254.9,249.2,254z M251.5,254.1c0,0.8,0.2,1.5,0.6,1.9s0.9,0.7,1.4,0.7s1.1-0.2,1.4-0.7s0.6-1.1,0.6-1.9
			c0-0.8-0.2-1.4-0.6-1.9s-0.9-0.7-1.4-0.7s-1.1,0.2-1.4,0.7S251.5,253.3,251.5,254.1z"/>
		<path d="M267,258.2h-2.2V254c0-0.9,0-1.5-0.1-1.7c-0.1-0.3-0.2-0.5-0.5-0.6c-0.2-0.1-0.5-0.2-0.8-0.2c-0.4,0-0.7,0.1-1,0.3
			c-0.3,0.2-0.5,0.5-0.6,0.8s-0.2,1-0.2,1.9v3.8h-2.2v-8.3h2v1.2c0.7-0.9,1.6-1.4,2.7-1.4c0.5,0,0.9,0.1,1.3,0.3
			c0.4,0.2,0.7,0.4,0.9,0.7c0.2,0.3,0.3,0.6,0.4,0.9s0.1,0.8,0.1,1.5V258.2z"/>
	</g>
	<g>
		<path fill="#E2251B" d="M307.7,210.6v3.6h-13.5c0.1-1.3,0.6-2.6,1.3-3.8c0.7-1.2,2.2-2.8,4.3-4.8c1.7-1.6,2.8-2.7,3.2-3.3
			c0.5-0.8,0.8-1.6,0.8-2.4c0-0.9-0.2-1.5-0.7-2c-0.5-0.5-1.1-0.7-1.9-0.7c-0.8,0-1.4,0.2-1.9,0.7c-0.5,0.5-0.7,1.3-0.8,2.4
			l-3.8-0.4c0.2-2.1,0.9-3.6,2.1-4.6c1.2-0.9,2.7-1.4,4.5-1.4c2,0,3.5,0.5,4.7,1.6s1.7,2.4,1.7,4c0,0.9-0.2,1.8-0.5,2.6
			c-0.3,0.8-0.8,1.7-1.5,2.6c-0.5,0.6-1.3,1.4-2.5,2.6c-1.2,1.1-2,1.9-2.3,2.2c-0.3,0.4-0.6,0.7-0.8,1.1H307.7z"/>
		<path fill="#E2251B" d="M310.3,209l3.8-0.4c0.1,0.9,0.4,1.6,1,2.1s1.2,0.8,1.9,0.8c0.8,0,1.5-0.3,2-1c0.6-0.7,0.8-1.6,0.8-2.9
			c0-1.2-0.3-2.2-0.8-2.8s-1.3-0.9-2.2-0.9c-1.1,0-2.1,0.5-3,1.5l-3.1-0.5l2-10.4h10.2v3.6h-7.2l-0.6,3.4c0.9-0.4,1.7-0.6,2.6-0.6
			c1.7,0,3.1,0.6,4.3,1.9c1.2,1.2,1.8,2.8,1.8,4.8c0,1.6-0.5,3.1-1.4,4.4c-1.3,1.8-3.1,2.7-5.4,2.7c-1.9,0-3.4-0.5-4.5-1.5
			C311.3,212.1,310.6,210.7,310.3,209z"/>
	</g>
	<g>
		<path fill="#E2251B" d="M155.9,210.6v3.6h-13.5c0.1-1.3,0.6-2.6,1.3-3.8c0.7-1.2,2.2-2.8,4.3-4.8c1.7-1.6,2.8-2.7,3.2-3.3
			c0.5-0.8,0.8-1.6,0.8-2.4c0-0.9-0.2-1.5-0.7-2c-0.5-0.5-1.1-0.7-1.9-0.7c-0.8,0-1.4,0.2-1.9,0.7c-0.5,0.5-0.7,1.3-0.8,2.4
			l-3.8-0.4c0.2-2.1,0.9-3.6,2.1-4.6c1.2-0.9,2.7-1.4,4.5-1.4c2,0,3.5,0.5,4.7,1.6s1.7,2.4,1.7,4c0,0.9-0.2,1.8-0.5,2.6
			c-0.3,0.8-0.8,1.7-1.5,2.6c-0.5,0.6-1.3,1.4-2.5,2.6c-1.2,1.1-2,1.9-2.3,2.2c-0.3,0.4-0.6,0.7-0.8,1.1H155.9z"/>
		<path fill="#E2251B" d="M158.6,209.6l3.7-0.4c0.1,0.8,0.3,1.3,0.7,1.7c0.4,0.4,0.9,0.5,1.5,0.5c0.8,0,1.5-0.4,2-1.1
			c0.6-0.7,0.9-2.2,1.1-4.5c-1,1.1-2.2,1.7-3.6,1.7c-1.6,0-2.9-0.6-4.1-1.8s-1.7-2.8-1.7-4.8c0-2,0.6-3.7,1.8-4.9s2.7-1.9,4.6-1.9
			c2,0,3.7,0.8,5,2.4s2,4.2,2,7.8c0,3.7-0.7,6.3-2,7.9c-1.4,1.6-3.1,2.4-5.3,2.4c-1.6,0-2.8-0.4-3.8-1.3S158.8,211.2,158.6,209.6z
			 M167.3,201.2c0-1.2-0.3-2.2-0.9-2.9s-1.2-1-2-1c-0.7,0-1.3,0.3-1.8,0.8s-0.7,1.5-0.7,2.8c0,1.3,0.3,2.2,0.8,2.9
			c0.5,0.6,1.1,0.9,1.9,0.9c0.7,0,1.4-0.3,1.9-0.9C167,203.1,167.3,202.3,167.3,201.2z"/>
	</g>
	<g>
		<path fill="#E2251B" d="M212,208.9l3.7-0.5c0.1,0.9,0.4,1.7,1,2.2c0.5,0.5,1.1,0.8,1.9,0.8c0.8,0,1.5-0.3,2-0.9s0.8-1.4,0.8-2.4
			c0-1-0.3-1.7-0.8-2.3c-0.5-0.6-1.2-0.8-1.9-0.8c-0.5,0-1.1,0.1-1.8,0.3l0.4-3.1c1,0,1.8-0.2,2.4-0.7s0.8-1.1,0.8-1.9
			c0-0.7-0.2-1.2-0.6-1.6c-0.4-0.4-0.9-0.6-1.6-0.6c-0.7,0-1.2,0.2-1.7,0.7c-0.5,0.5-0.7,1.1-0.8,2l-3.5-0.6
			c0.2-1.2,0.6-2.2,1.1-2.9s1.2-1.3,2.1-1.7c0.9-0.4,1.9-0.6,3-0.6c1.9,0,3.4,0.6,4.5,1.8c0.9,1,1.4,2.1,1.4,3.3
			c0,1.8-1,3.2-2.9,4.2c1.1,0.2,2.1,0.8,2.8,1.7c0.7,0.9,1,1.9,1,3.1c0,1.8-0.6,3.3-1.9,4.5c-1.3,1.2-2.9,1.9-4.8,1.9
			c-1.8,0-3.3-0.5-4.5-1.6C212.9,211.9,212.2,210.6,212,208.9z"/>
		<path fill="#E2251B" d="M240.7,210.6v3.6h-13.5c0.1-1.3,0.6-2.6,1.3-3.8c0.7-1.2,2.2-2.8,4.3-4.8c1.7-1.6,2.8-2.7,3.2-3.3
			c0.5-0.8,0.8-1.6,0.8-2.4c0-0.9-0.2-1.5-0.7-2c-0.5-0.5-1.1-0.7-1.9-0.7c-0.8,0-1.4,0.2-1.9,0.7c-0.5,0.5-0.7,1.3-0.8,2.4
			l-3.8-0.4c0.2-2.1,0.9-3.6,2.1-4.6c1.2-0.9,2.7-1.4,4.5-1.4c2,0,3.5,0.5,4.7,1.6s1.7,2.4,1.7,4c0,0.9-0.2,1.8-0.5,2.6
			c-0.3,0.8-0.8,1.7-1.5,2.6c-0.5,0.6-1.3,1.4-2.5,2.6c-1.2,1.1-2,1.9-2.3,2.2c-0.3,0.4-0.6,0.7-0.8,1.1H240.7z"/>
		<path fill="#E2251B" d="M249.8,194.1c1.9,0,3.5,0.7,4.6,2.1c1.3,1.6,2,4.4,2,8.2c0,3.8-0.7,6.5-2,8.2c-1.1,1.4-2.6,2.1-4.5,2.1
			c-2,0-3.5-0.7-4.7-2.2c-1.2-1.5-1.8-4.2-1.8-8c0-3.8,0.7-6.5,2-8.1C246.4,194.8,247.9,194.1,249.8,194.1z M249.8,197.3
			c-0.5,0-0.9,0.1-1.2,0.4c-0.4,0.3-0.6,0.8-0.8,1.6c-0.3,1-0.4,2.7-0.4,5s0.1,4,0.4,4.8c0.2,0.9,0.5,1.5,0.9,1.8
			c0.4,0.3,0.8,0.4,1.2,0.4s0.9-0.1,1.2-0.4c0.4-0.3,0.6-0.8,0.8-1.6c0.3-1,0.4-2.7,0.4-5s-0.1-4-0.4-4.8c-0.2-0.9-0.5-1.5-0.9-1.8
			C250.7,197.4,250.3,197.3,249.8,197.3z"/>
	</g>
	<g>
		<path d="M139.9,229.6v-7.2h0.9v4.1l2.1-2.1h1.1l-2,1.9l2.2,3.3h-1.1l-1.7-2.7l-0.6,0.6v2.1H139.9z"/>
		<path d="M144.9,229.6v-5.2h0.8v0.7c0.2-0.3,0.4-0.5,0.6-0.6s0.6-0.2,0.9-0.2c0.4,0,0.7,0.1,0.9,0.2c0.2,0.2,0.4,0.4,0.5,0.7
			c0.4-0.6,0.9-0.9,1.6-0.9c0.5,0,0.9,0.1,1.2,0.4s0.4,0.7,0.4,1.3v3.6H151v-3.3c0-0.4,0-0.6-0.1-0.8c-0.1-0.2-0.2-0.3-0.3-0.4
			s-0.3-0.1-0.5-0.1c-0.4,0-0.7,0.1-0.9,0.4s-0.4,0.6-0.4,1.2v3H148v-3.4c0-0.4-0.1-0.7-0.2-0.9s-0.4-0.3-0.7-0.3
			c-0.2,0-0.5,0.1-0.7,0.2c-0.2,0.1-0.4,0.3-0.5,0.6s-0.1,0.6-0.1,1.1v2.7H144.9z"/>
		<path d="M152.6,229.7l2.1-7.4h0.7l-2.1,7.4H152.6z"/>
		<path d="M156,229.6v-7.2h0.9v2.6c0.4-0.5,0.9-0.7,1.6-0.7c0.4,0,0.7,0.1,1,0.2s0.5,0.4,0.6,0.6c0.1,0.3,0.2,0.7,0.2,1.2v3.3h-0.9
			v-3.3c0-0.4-0.1-0.8-0.3-1c-0.2-0.2-0.5-0.3-0.8-0.3c-0.3,0-0.5,0.1-0.7,0.2c-0.2,0.1-0.4,0.3-0.5,0.5s-0.1,0.6-0.1,1v2.8H156z"/>
		<path d="M161.2,227c0-1,0.3-1.7,0.8-2.1c0.4-0.4,1-0.6,1.6-0.6c0.7,0,1.3,0.2,1.7,0.7s0.7,1.1,0.7,1.9c0,0.7-0.1,1.2-0.3,1.6
			c-0.2,0.4-0.5,0.7-0.9,0.9c-0.4,0.2-0.8,0.3-1.3,0.3c-0.7,0-1.3-0.2-1.8-0.7C161.5,228.6,161.2,227.9,161.2,227z M162.1,227
			c0,0.7,0.1,1.2,0.4,1.5s0.7,0.5,1.1,0.5c0.4,0,0.8-0.2,1.1-0.5s0.4-0.8,0.4-1.5c0-0.6-0.1-1.1-0.4-1.5c-0.3-0.3-0.7-0.5-1.1-0.5
			c-0.4,0-0.8,0.2-1.1,0.5S162.1,226.4,162.1,227z"/>
		<path d="M170.5,229.6v-0.8c-0.4,0.6-1,0.9-1.6,0.9c-0.3,0-0.6-0.1-0.9-0.2c-0.3-0.1-0.5-0.3-0.6-0.4c-0.1-0.2-0.2-0.4-0.3-0.7
			c0-0.2-0.1-0.4-0.1-0.8v-3.2h0.9v2.9c0,0.5,0,0.8,0.1,0.9c0.1,0.2,0.2,0.4,0.4,0.5s0.4,0.2,0.7,0.2s0.5-0.1,0.7-0.2
			s0.4-0.3,0.5-0.6c0.1-0.2,0.1-0.6,0.1-1v-2.8h0.9v5.2H170.5z"/>
		<path d="M172.7,229.6v-5.2h0.8v0.8c0.2-0.4,0.4-0.6,0.6-0.7c0.2-0.1,0.4-0.2,0.6-0.2c0.3,0,0.6,0.1,0.9,0.3l-0.3,0.8
			c-0.2-0.1-0.4-0.2-0.6-0.2c-0.2,0-0.4,0.1-0.5,0.2s-0.3,0.3-0.3,0.5c-0.1,0.3-0.1,0.7-0.1,1v2.7H172.7z"/>
	</g>
	<g>
		<path d="M218.1,229.6V229c-0.3,0.5-0.8,0.8-1.5,0.8c-0.4,0-0.8-0.1-1.1-0.3c-0.3-0.2-0.6-0.5-0.8-1c-0.2-0.4-0.3-0.9-0.3-1.4
			c0-0.5,0.1-1,0.3-1.4s0.4-0.7,0.8-1s0.7-0.3,1.2-0.3c0.3,0,0.6,0.1,0.8,0.2s0.4,0.3,0.6,0.5v-2.6h0.9v7.2H218.1z M215.3,227
			c0,0.7,0.1,1.2,0.4,1.5s0.6,0.5,1,0.5c0.4,0,0.7-0.2,1-0.5c0.3-0.3,0.4-0.8,0.4-1.4c0-0.7-0.1-1.2-0.4-1.6s-0.6-0.5-1-0.5
			c-0.4,0-0.7,0.2-1,0.5C215.5,225.8,215.3,226.3,215.3,227z"/>
		<path d="M223.9,227.9l0.9,0.1c-0.1,0.5-0.4,0.9-0.8,1.2s-0.9,0.4-1.5,0.4c-0.8,0-1.4-0.2-1.8-0.7c-0.4-0.5-0.7-1.1-0.7-2
			c0-0.9,0.2-1.5,0.7-2s1-0.7,1.7-0.7c0.7,0,1.3,0.2,1.7,0.7s0.7,1.1,0.7,2c0,0.1,0,0.1,0,0.2h-3.9c0,0.6,0.2,1,0.5,1.3
			s0.7,0.5,1.1,0.5c0.3,0,0.6-0.1,0.8-0.3S223.7,228.3,223.9,227.9z M221,226.5h2.9c0-0.4-0.1-0.8-0.3-1c-0.3-0.3-0.6-0.5-1.1-0.5
			c-0.4,0-0.7,0.1-1,0.4C221.1,225.7,221,226.1,221,226.5z"/>
		<path d="M225.7,230l0.9,0.1c0,0.3,0.1,0.5,0.3,0.6c0.2,0.2,0.5,0.2,0.9,0.2c0.4,0,0.7-0.1,0.9-0.2s0.4-0.4,0.4-0.7
			c0-0.2,0.1-0.6,0.1-1.1c-0.4,0.5-0.9,0.7-1.4,0.7c-0.7,0-1.3-0.3-1.7-0.8s-0.6-1.1-0.6-1.9c0-0.5,0.1-1,0.3-1.4s0.4-0.7,0.8-1
			c0.3-0.2,0.7-0.3,1.2-0.3c0.6,0,1.1,0.2,1.5,0.7v-0.6h0.8v4.5c0,0.8-0.1,1.4-0.2,1.7c-0.2,0.3-0.4,0.6-0.8,0.8
			c-0.4,0.2-0.8,0.3-1.3,0.3c-0.6,0-1.1-0.1-1.5-0.4S225.7,230.6,225.7,230z M226.4,226.9c0,0.7,0.1,1.2,0.4,1.5s0.6,0.5,1,0.5
			c0.4,0,0.7-0.2,1-0.5s0.4-0.8,0.4-1.5c0-0.6-0.1-1.1-0.4-1.4c-0.3-0.3-0.6-0.5-1-0.5c-0.4,0-0.7,0.2-1,0.5
			S226.4,226.3,226.4,226.9z"/>
		<path d="M231.4,229.6v-5.2h0.8v0.8c0.2-0.4,0.4-0.6,0.6-0.7c0.2-0.1,0.4-0.2,0.6-0.2c0.3,0,0.6,0.1,0.9,0.3l-0.3,0.8
			c-0.2-0.1-0.4-0.2-0.6-0.2c-0.2,0-0.4,0.1-0.5,0.2s-0.3,0.3-0.3,0.5c-0.1,0.3-0.1,0.7-0.1,1v2.7H231.4z"/>
		<path d="M238.3,227.9l0.9,0.1c-0.1,0.5-0.4,0.9-0.8,1.2s-0.9,0.4-1.5,0.4c-0.8,0-1.4-0.2-1.8-0.7c-0.4-0.5-0.7-1.1-0.7-2
			c0-0.9,0.2-1.5,0.7-2s1-0.7,1.7-0.7c0.7,0,1.3,0.2,1.7,0.7s0.7,1.1,0.7,2c0,0.1,0,0.1,0,0.2h-3.9c0,0.6,0.2,1,0.5,1.3
			s0.7,0.5,1.1,0.5c0.3,0,0.6-0.1,0.8-0.3S238.2,228.3,238.3,227.9z M235.4,226.5h2.9c0-0.4-0.1-0.8-0.3-1c-0.3-0.3-0.6-0.5-1.1-0.5
			c-0.4,0-0.7,0.1-1,0.4C235.6,225.7,235.5,226.1,235.4,226.5z"/>
		<path d="M243.9,227.9l0.9,0.1c-0.1,0.5-0.4,0.9-0.8,1.2s-0.9,0.4-1.5,0.4c-0.8,0-1.4-0.2-1.8-0.7c-0.4-0.5-0.7-1.1-0.7-2
			c0-0.9,0.2-1.5,0.7-2s1-0.7,1.7-0.7c0.7,0,1.3,0.2,1.7,0.7s0.7,1.1,0.7,2c0,0.1,0,0.1,0,0.2h-3.9c0,0.6,0.2,1,0.5,1.3
			s0.7,0.5,1.1,0.5c0.3,0,0.6-0.1,0.8-0.3S243.7,228.3,243.9,227.9z M241,226.5h2.9c0-0.4-0.1-0.8-0.3-1c-0.3-0.3-0.6-0.5-1.1-0.5
			c-0.4,0-0.7,0.1-1,0.4C241.2,225.7,241,226.1,241,226.5z"/>
		<path d="M245.5,228.1l0.9-0.1c0,0.3,0.2,0.6,0.4,0.8c0.2,0.2,0.5,0.3,0.9,0.3c0.4,0,0.7-0.1,0.9-0.2s0.3-0.4,0.3-0.6
			c0-0.2-0.1-0.4-0.3-0.5c-0.1-0.1-0.4-0.2-0.9-0.3c-0.6-0.2-1.1-0.3-1.3-0.4c-0.2-0.1-0.4-0.3-0.6-0.5c-0.1-0.2-0.2-0.4-0.2-0.7
			c0-0.2,0.1-0.4,0.2-0.6c0.1-0.2,0.2-0.4,0.4-0.5c0.1-0.1,0.3-0.2,0.6-0.3c0.2-0.1,0.5-0.1,0.8-0.1c0.4,0,0.8,0.1,1.1,0.2
			c0.3,0.1,0.5,0.3,0.7,0.5s0.2,0.5,0.3,0.8l-0.9,0.1c0-0.3-0.2-0.5-0.3-0.6c-0.2-0.1-0.5-0.2-0.8-0.2c-0.4,0-0.7,0.1-0.9,0.2
			s-0.3,0.3-0.3,0.5c0,0.1,0,0.2,0.1,0.3c0.1,0.1,0.2,0.2,0.3,0.2c0.1,0,0.3,0.1,0.8,0.2c0.6,0.2,1.1,0.3,1.3,0.4
			c0.2,0.1,0.4,0.3,0.6,0.5s0.2,0.5,0.2,0.8c0,0.3-0.1,0.6-0.3,0.8c-0.2,0.3-0.4,0.5-0.7,0.6s-0.7,0.2-1.1,0.2
			c-0.7,0-1.2-0.1-1.5-0.4C245.9,229,245.6,228.6,245.5,228.1z"/>
	</g>
	<g>
		<path d="M298.6,227.1l0.9,0.2c-0.2,0.8-0.6,1.4-1.1,1.8c-0.5,0.4-1.1,0.6-1.9,0.6c-0.8,0-1.4-0.2-1.9-0.5
			c-0.5-0.3-0.9-0.8-1.1-1.4c-0.3-0.6-0.4-1.2-0.4-1.9c0-0.7,0.1-1.4,0.4-2c0.3-0.6,0.7-1,1.2-1.3c0.5-0.3,1.1-0.4,1.7-0.4
			c0.7,0,1.3,0.2,1.8,0.5s0.8,0.9,1,1.5l-0.9,0.2c-0.2-0.5-0.4-0.9-0.7-1.1s-0.7-0.4-1.2-0.4c-0.5,0-1,0.1-1.4,0.4
			c-0.4,0.3-0.6,0.6-0.8,1.1s-0.2,0.9-0.2,1.4c0,0.6,0.1,1.1,0.3,1.6c0.2,0.5,0.5,0.8,0.8,1s0.8,0.3,1.2,0.3c0.5,0,1-0.2,1.3-0.5
			S298.5,227.7,298.6,227.1z"/>
		<path d="M304.1,227.9l0.9,0.1c-0.1,0.5-0.4,0.9-0.8,1.2s-0.9,0.4-1.5,0.4c-0.8,0-1.4-0.2-1.8-0.7c-0.4-0.5-0.7-1.1-0.7-2
			c0-0.9,0.2-1.5,0.7-2s1-0.7,1.7-0.7c0.7,0,1.3,0.2,1.7,0.7s0.7,1.1,0.7,2c0,0.1,0,0.1,0,0.2h-3.9c0,0.6,0.2,1,0.5,1.3
			s0.7,0.5,1.1,0.5c0.3,0,0.6-0.1,0.8-0.3S304,228.3,304.1,227.9z M301.2,226.5h2.9c0-0.4-0.1-0.8-0.3-1c-0.3-0.3-0.6-0.5-1.1-0.5
			c-0.4,0-0.7,0.1-1,0.4C301.4,225.7,301.3,226.1,301.2,226.5z"/>
		<path d="M306.1,229.6v-7.2h0.9v7.2H306.1z"/>
		<path d="M308,228.1l0.9-0.1c0,0.3,0.2,0.6,0.4,0.8c0.2,0.2,0.5,0.3,0.9,0.3c0.4,0,0.7-0.1,0.9-0.2s0.3-0.4,0.3-0.6
			c0-0.2-0.1-0.4-0.3-0.5c-0.1-0.1-0.4-0.2-0.9-0.3c-0.6-0.2-1.1-0.3-1.3-0.4c-0.2-0.1-0.4-0.3-0.6-0.5c-0.1-0.2-0.2-0.4-0.2-0.7
			c0-0.2,0.1-0.4,0.2-0.6c0.1-0.2,0.2-0.4,0.4-0.5c0.1-0.1,0.3-0.2,0.6-0.3c0.2-0.1,0.5-0.1,0.8-0.1c0.4,0,0.8,0.1,1.1,0.2
			c0.3,0.1,0.5,0.3,0.7,0.5s0.2,0.5,0.3,0.8l-0.9,0.1c0-0.3-0.2-0.5-0.3-0.6c-0.2-0.1-0.5-0.2-0.8-0.2c-0.4,0-0.7,0.1-0.9,0.2
			s-0.3,0.3-0.3,0.5c0,0.1,0,0.2,0.1,0.3c0.1,0.1,0.2,0.2,0.3,0.2c0.1,0,0.3,0.1,0.8,0.2c0.6,0.2,1.1,0.3,1.3,0.4
			c0.2,0.1,0.4,0.3,0.6,0.5s0.2,0.5,0.2,0.8c0,0.3-0.1,0.6-0.3,0.8c-0.2,0.3-0.4,0.5-0.7,0.6s-0.7,0.2-1.1,0.2
			c-0.7,0-1.2-0.1-1.5-0.4C308.3,229,308.1,228.6,308,228.1z"/>
		<path d="M313.4,223.5v-1h0.9v1H313.4z M313.4,229.6v-5.2h0.9v5.2H313.4z"/>
		<path d="M319,229.6v-0.8c-0.4,0.6-1,0.9-1.6,0.9c-0.3,0-0.6-0.1-0.9-0.2c-0.3-0.1-0.5-0.3-0.6-0.4c-0.1-0.2-0.2-0.4-0.3-0.7
			c0-0.2-0.1-0.4-0.1-0.8v-3.2h0.9v2.9c0,0.5,0,0.8,0.1,0.9c0.1,0.2,0.2,0.4,0.4,0.5s0.4,0.2,0.7,0.2s0.5-0.1,0.7-0.2
			s0.4-0.3,0.5-0.6c0.1-0.2,0.1-0.6,0.1-1v-2.8h0.9v5.2H319z"/>
		<path d="M320.8,228.1l0.9-0.1c0,0.3,0.2,0.6,0.4,0.8c0.2,0.2,0.5,0.3,0.9,0.3c0.4,0,0.7-0.1,0.9-0.2s0.3-0.4,0.3-0.6
			c0-0.2-0.1-0.4-0.3-0.5c-0.1-0.1-0.4-0.2-0.9-0.3c-0.6-0.2-1.1-0.3-1.3-0.4c-0.2-0.1-0.4-0.3-0.6-0.5c-0.1-0.2-0.2-0.4-0.2-0.7
			c0-0.2,0.1-0.4,0.2-0.6c0.1-0.2,0.2-0.4,0.4-0.5c0.1-0.1,0.3-0.2,0.6-0.3c0.2-0.1,0.5-0.1,0.8-0.1c0.4,0,0.8,0.1,1.1,0.2
			c0.3,0.1,0.5,0.3,0.7,0.5s0.2,0.5,0.3,0.8l-0.9,0.1c0-0.3-0.2-0.5-0.3-0.6c-0.2-0.1-0.5-0.2-0.8-0.2c-0.4,0-0.7,0.1-0.9,0.2
			s-0.3,0.3-0.3,0.5c0,0.1,0,0.2,0.1,0.3c0.1,0.1,0.2,0.2,0.3,0.2c0.1,0,0.3,0.1,0.8,0.2c0.6,0.2,1.1,0.3,1.3,0.4
			c0.2,0.1,0.4,0.3,0.6,0.5s0.2,0.5,0.2,0.8c0,0.3-0.1,0.6-0.3,0.8c-0.2,0.3-0.4,0.5-0.7,0.6s-0.7,0.2-1.1,0.2
			c-0.7,0-1.2-0.1-1.5-0.4C321.1,229,320.9,228.6,320.8,228.1z"/>
	</g>
</g>
</svg>
