<?xml version="1.0" encoding="utf-8"?>
<!-- Generator: Adobe Illustrator 19.0.1, SVG Export Plug-In . SVG Version: 6.00 Build 0)  -->
<svg version="1.1" id="www_1_" xmlns="http://www.w3.org/2000/svg" xmlns:xlink="http://www.w3.org/1999/xlink" x="0px" y="0px"
	 viewBox="0 0 196.3 76.8" enable-background="new 0 0 196.3 76.8" xml:space="preserve">
<g>
	<path fill="none" stroke="#F4BA5D" stroke-width="2" stroke-miterlimit="10" d="M193.1,62.6c0,5.5-4.5,10-10,10H13.5
		c-5.5,0-10-4.5-10-10V14.3c0-5.5,4.5-10,10-10h169.6c5.5,0,10,4.5,10,10V62.6z"/>
</g>
<rect x="24.6" y="19.2" fill="#F2F2DD" width="37.1" height="40.9"/>
<path d="M60.8,57.9H25.9V19h7c0,1.6,1.3,2.9,2.9,2.9h15.1c1.6,0,2.9-1.3,2.9-2.9h7V57.9z M36.4,16.1h13.9v2.3H36.4V16.1z M60.8,15.5
	h-7c0-1.6-1.3-2.9-2.9-2.9H35.8c-1.6,0-2.9,1.3-2.9,2.9h-7c-1.9,0-3.5,1.6-3.5,3.5v38.9c0,1.9,1.6,3.5,3.5,3.5h34.8
	c1.9,0,3.5-1.6,3.5-3.5V19C64.2,17.1,62.7,15.5,60.8,15.5z"/>
<rect x="43.9" y="28.3" fill="#707070" width="12.2" height="2.9"/>
<rect x="43.9" y="37.6" fill="#707070" width="12.2" height="2.9"/>
<rect x="43.9" y="46.9" fill="#707070" width="12.2" height="2.9"/>
<polygon fill="#64C923" points="30.6,29.5 34.1,34.1 41,24.8 34.1,31.2 "/>
<polygon fill="#64C923" points="30.6,38.7 34.1,43.4 41,34.1 34.1,40.5 "/>
<polygon fill="#64C923" points="30.6,48 34.1,52.7 41,43.4 34.1,49.8 "/>
<g>
	<path d="M93.7,46.5h-4l-1.6-4.2h-7.3l-1.5,4.2h-3.9l7.1-18.3h3.9L93.7,46.5z M86.9,39.2l-2.5-6.8l-2.5,6.8H86.9z"/>
	<path d="M107.1,37.2l-3.5,0.6c-0.1-0.7-0.4-1.2-0.8-1.6c-0.4-0.3-0.9-0.5-1.6-0.5c-0.9,0-1.6,0.3-2.1,0.9c-0.5,0.6-0.8,1.6-0.8,3
		c0,1.6,0.3,2.7,0.8,3.3c0.5,0.6,1.2,1,2.1,1c0.7,0,1.2-0.2,1.6-0.6s0.7-1,0.9-2l3.4,0.6c-0.4,1.6-1,2.8-2.1,3.6
		c-1,0.8-2.4,1.2-4.1,1.2c-1.9,0-3.5-0.6-4.6-1.8s-1.7-2.9-1.7-5.1c0-2.2,0.6-3.9,1.7-5.1s2.7-1.8,4.7-1.8c1.6,0,2.9,0.3,3.8,1
		C106,34.7,106.7,35.7,107.1,37.2z"/>
	<path d="M115.9,33.2V36h-2.4v5.3c0,1.1,0,1.7,0.1,1.9c0,0.2,0.1,0.3,0.3,0.4c0.2,0.1,0.4,0.2,0.6,0.2c0.3,0,0.8-0.1,1.4-0.3
		l0.3,2.7c-0.8,0.3-1.7,0.5-2.8,0.5c-0.6,0-1.2-0.1-1.7-0.3s-0.9-0.5-1.1-0.8c-0.2-0.3-0.4-0.8-0.5-1.4c-0.1-0.4-0.1-1.2-0.1-2.5V36
		h-1.6v-2.8h1.6v-2.6l3.5-2v4.7H115.9z"/>
	<path d="M118.3,31.4v-3.2h3.5v3.2H118.3z M118.3,46.5V33.2h3.5v13.2H118.3z"/>
	<path d="M129,46.5l-5.3-13.2h3.7l2.5,6.8l0.7,2.3c0.2-0.6,0.3-1,0.4-1.1c0.1-0.4,0.2-0.7,0.4-1.1l2.5-6.8h3.6l-5.3,13.2H129z"/>
	<path d="M139.6,31.4v-3.2h3.5v3.2H139.6z M139.6,46.5V33.2h3.5v13.2H139.6z"/>
	<path d="M152.8,33.2V36h-2.4v5.3c0,1.1,0,1.7,0.1,1.9c0,0.2,0.1,0.3,0.3,0.4c0.2,0.1,0.4,0.2,0.6,0.2c0.3,0,0.8-0.1,1.4-0.3
		l0.3,2.7c-0.8,0.3-1.7,0.5-2.8,0.5c-0.6,0-1.2-0.1-1.7-0.3s-0.9-0.5-1.1-0.8c-0.2-0.3-0.4-0.8-0.5-1.4c-0.1-0.4-0.1-1.2-0.1-2.5V36
		h-1.6v-2.8h1.6v-2.6l3.5-2v4.7H152.8z"/>
	<path d="M153.5,33.2h3.7l3.2,9.4l3.1-9.4h3.6L162.5,46l-0.8,2.3c-0.3,0.8-0.6,1.4-0.9,1.8s-0.6,0.7-1,1c-0.4,0.3-0.8,0.5-1.3,0.6
		c-0.5,0.1-1.1,0.2-1.8,0.2c-0.7,0-1.3-0.1-2-0.2l-0.3-2.7c0.5,0.1,1,0.2,1.5,0.2c0.8,0,1.4-0.2,1.8-0.7s0.7-1.1,0.9-1.8L153.5,33.2
		z"/>
</g>
</svg>
